<svg xmlns="http://www.w3.org/2000/svg" viewBox="0 0 1258 1258"><defs/><filter id="a"><feGaussianBlur stdDeviation="12"/></filter><rect width="100%" height="100%" fill="#325e67"/><g filter="url(#a)"><g fill-opacity=".5" transform="translate(2.5 2.5) scale(4.91406)"><circle r="1" fill="#72bbb5" transform="matrix(13.81196 -40.86136 72.805 24.60955 135.4 66.1)"/><circle r="1" fill="#140f1d" transform="matrix(-72.893 -25.8911 21.43978 -60.36088 75.2 167)"/><circle r="1" fill="#57b9c3" transform="rotate(156.3 93.7 140.6) scale(88.36371 30.32982)"/><circle r="1" fill="#a4ffe7" transform="matrix(-10.20394 11.22376 -20.49336 -18.63128 158.3 81)"/><circle r="1" fill="#161a3e" transform="matrix(-7.46932 32.11588 -30.6906 -7.13784 231.7 99.9)"/><path fill="#6fb7ad" d="M43 17l14 30-30 14-14-30z"/><circle r="1" fill="#67a796" transform="matrix(20.38985 -11.20942 22.21411 40.40732 0 84.3)"/><circle r="1" fill="#5997bb" transform="matrix(40.6663 3.1164 -1.42267 18.56468 255 37.7)"/><path fill="#171021" d="M70 73l-40 27 95 111z"/><circle r="1" fill="#72bdba" transform="matrix(6.89393 -4.47697 32.50635 50.05538 186.9 118)"/><circle r="1" fill="#263b42" transform="matrix(24.79364 47.72094 -25.99909 13.50795 167.2 154.7)"/><path fill="#193058" d="M152.8-8L195-20.2 215.2 50 173 62.2z"/><ellipse cx="115" cy="18" fill="#4d8489" rx="32" ry="119"/><circle r="1" fill="#233b45" transform="rotate(137.3 33.3 67) scale(30.64866 8.62578)"/><path fill="#1b2238" d="M68 5l-84 31L6-16z"/><path fill="#398385" d="M74 164.1l-10.3-9.7-31.3 3.7-22.8 16.7z"/><circle r="1" fill="#91e4d2" transform="rotate(24.8 -55.2 483.4) scale(16.42659 6.81963)"/><circle r="1" fill="#64a3a3" transform="rotate(165.6 46.7 21.7) scale(18.78767 42.05875)"/><circle r="1" fill="#3e6e77" transform="matrix(50.0159 16.70213 -7.2112 21.5945 148.3 35.5)"/><circle r="1" fill="#3e8278" transform="matrix(28.93793 16.3878 -4.29677 7.58732 145 150.8)"/><path fill="#3b6e6f" d="M214.1 177.7l-42.5-99 36.8.2-13.7 72.4z"/><path fill="#84ddc6" d="M103.8 101.9l4.2-4.5 53-36.9 16.5 33.8z"/><ellipse cx="21" cy="144" fill="#191724" rx="70" ry="14"/><path fill="#2a5160" d="M11-11l80 96-31-74z"/><path fill="#65b4b4" d="M205.4 148.9l-3.8 10.8 43.2-1.3 6.6.8z"/><path fill="#52a7b2" d="M237.7 233.6l-5.4 37.4-20.8-44.7 43.1-53.4z"/><ellipse cx="119" cy="179" fill="#1f2230" rx="41" ry="26"/><circle r="1" fill="#223f4e" transform="matrix(-11.71368 -30.9977 14.4234 -5.45044 192.7 192.7)"/><path fill="#1d3258" d="M226.2 22.5L103.7 3.1l4.1-25.6L230.3-3.1z"/><ellipse cx="26" cy="67" fill="#142536" rx="12" ry="10"/><circle r="1" fill="#224752" transform="rotate(-150 51.6 99.2) scale(80.76306 14.42402)"/><path fill="#5ea0b4" d="M267 36l-21-52 3 59z"/><circle r="1" fill="#3b8a91" transform="matrix(3.86655 -11.6589 42.29698 14.02734 0 246)"/><path fill="#376e7c" d="M113 215h62v41h-62z"/><ellipse cx="17" cy="82" fill="#6dbec8" rx="11" ry="6"/><path fill="#1f2c3b" d="M194.5 160.5l.6 19.7-21.5-56.7-66.4 1.4z"/><circle r="1" fill="#6cb7c1" transform="matrix(-4.89134 -8.2995 5.8246 -3.43274 181.8 120.3)"/><path fill="#92c896" d="M104 4l18 29-8 8z"/><path fill="#68b5bd" d="M86 45l35 17-62-3z"/><path fill="#62a4a4" d="M44.6 19.6l-5.5 13.1 26.2 17.7L.4 35.6z"/><path fill="#325050" d="M-5.8 123.8l-7.7-8.5 71.8-4.1-32.6 28.5z"/><path fill="#5bb2ac" d="M36 157h28v5H36z"/><path fill="#233948" d="M148 246l6-19-35-17z"/><path fill="#64a7ab" d="M195 89l6 27h-13z"/><path fill="#204050" d="M138 42.6l-2.1-4.9 26.4 2.6-43.8-14.9z"/><path fill="#213b4a" d="M186 84h34v10h-34z"/><path fill="#284764" d="M245 81l-15-53-55 19z"/><path fill="#5a97a2" d="M158.7 25.4l-26.3 41.8 25.6-4.5-26.2-75.4z"/><path fill="#457c84" d="M81.1 56.5l4.6-3.8 26.2 40.2-41.1.8z"/><path fill="#23414a" d="M108 73v24l26-24z"/><path fill="#326f82" d="M261 271l10-119-40-30z"/><circle r="1" fill="#214058" transform="matrix(17.8245 8.54708 -4.56193 9.51367 216.5 132.3)"/><path fill="#448389" d="M153 222h64v34h-64z"/><path fill="#4c8395" d="M227 20.8l1 32-11 .4-1-32z"/><path fill="#1a1d2b" d="M44.4 145.5L42 79.1l8.5 2.7 41 46.8z"/><path fill="#427f7c" d="M106 106h43v16h-43z"/><path fill="#2f575e" d="M53.6 33.3l50.5-6.9L61.4 5.3 42.9 33.9z"/><path fill="#457c83" d="M68.2 60.6L130.9 77 46.7 47.8v36z"/><path fill="#478d7d" d="M156 170.7l-2.2-2.6 1.3-27.4 21.1 24.7z"/><path fill="#3c6b67" d="M10.8 65l15.9-17.6-2.5-27.1-6.9 18.3z"/><path fill="#82c3a8" d="M87.4 10l-19-1 .2-5 19 1z"/><path fill="#28515f" d="M108.4 39.5l36.3 7-1.1 6-36.3-7z"/><path fill="#295865" d="M196 227l75-74-59 10z"/><path fill="#6e9b7f" d="M15 56l-31 59 4-79z"/><path fill="#254554" d="M114 239l-61-11 112-42z"/><path fill="#3f7578" d="M185.5 144.5l-3.8-15.2 7.7-6.7 15.9 40.1z"/><path fill="#a1eed7" d="M176 98l2-12h-35z"/><path fill="#21344d" d="M216 135l55-55-62-22z"/><circle r="1" fill="#1c3961" transform="matrix(21.53886 2.77588 -.83389 6.47037 228.3 14.9)"/><path fill="#65aca9" d="M130 55h14v49h-14z"/><path fill="#8bdecc" d="M170.1 62.3l-8.8 23.2-25.6 5.4L150 64.5z"/><path fill="#80c9ce" d="M167.4 83l38.8 68.5L161 84.9l16.7 29.6z"/><path fill="#396a65" d="M202.1 84.7l-26.5-11.2 6.8 35.5 9.6-20z"/><path fill="#44807c" d="M24 112l-13 20-14-9z"/><path fill="#356c76" d="M150 53l44-4-17 20z"/><path fill="#25444a" d="M30 209l-46-31 99-24z"/><path fill="#202837" d="M133.6 185.8l-47 36.6 32.7-64.5 14.4-34.1z"/><circle r="1" fill="#5c9da0" transform="matrix(.31238 -2.91455 12.8556 1.37784 196 98)"/><path fill="#497c91" d="M235 19l-32 6 7 9z"/><path fill="#5e8f98" d="M26.9-8.9l-1 15L19.1 4l-6.6-14z"/><path fill="#56a9b4" d="M223 271l48-26.5-35.6 2.7-18-42.6z"/><path fill="#273f4a" d="M41.8 105.1L22.9 88.8l16.9-3.1 42.7-11.6z"/><path fill="#1c3b49" d="M42 30l22-5-12 16z"/><circle cx="243" cy="32" r="11" fill="#5b9ab0"/><path fill="#4e9ba4" d="M184.7 221.1l30.7 40.8-37.7-27.3 17.7-19.5z"/><path fill="#2c5961" d="M56.3 37l1.9-7.1 31.1 41.3 3.8 9.9z"/><path fill="#75c1b9" d="M29 31l6 9 10-19z"/><path fill="#3e7e8a" d="M133.9 241l19 30-24.5-16.8-11.5-37.8z"/><path fill="#1c2333" d="M6.7 30L-16 13l50.9-5.8L9.6 21.6z"/><path fill="#488" d="M112.1 102.8L55.2 15.3l51.7 80.5 42.4-5.8z"/><ellipse cx="33" cy="230" fill="#275c66" rx="50" ry="14"/><path fill="#6dabb3" d="M132 62.4l-20.8-11.1 63.5 12.3 5.5-1.3z"/><circle r="1" fill="#688a77" transform="matrix(1.03236 -5.08035 6.08734 1.23698 27.6 112.8)"/><ellipse cx="228" fill="#34648a" rx="21" ry="8"/><path fill="#263847" d="M181 147l29 17-51 35z"/><circle r="1" fill="#7ecdd9" transform="matrix(8.07998 .52926 -.23964 3.65839 103 57.9)"/><path fill="#559ea3" d="M224.2 145.3l23.2 18.4-47.9-12.7 24.8 1.7z"/><path fill="#6aae9c" d="M179.8 59.2l1.7 16.7 41.3 4.2-21.2-4.7z"/><circle r="1" fill="#347c83" transform="matrix(-4.32662 26.99057 -6.80468 -1.0908 0 227)"/><circle r="1" fill="#3f8775" transform="matrix(1.12864 -4.96772 10.64452 2.41837 158.1 203.3)"/></g></g></svg>