<svg xmlns="http://www.w3.org/2000/svg" viewBox="0 0 1800 1013"><defs/><filter id="a"><feGaussianBlur stdDeviation="12"/></filter><rect width="100%" height="100%" fill="#27364d"/><g filter="url(#a)"><g fill-opacity=".5" transform="translate(3.5 3.5) scale(7.03125)"><circle r="1" fill="#dadacc" transform="rotate(2.2 -3185 4959) scale(255 80.32398)"/><circle r="1" fill="#004fb0" transform="matrix(-9.88757 -60.849 157.3507 -25.56848 104.8 28.4)"/><circle r="1" fill="#ffebce" transform="rotate(-170.9 108.8 52.2) scale(90.35683 19.42981)"/><circle r="1" fill="#ffeabc" transform="matrix(103.18699 30.33309 -6.52671 22.20255 56.6 142.4)"/><circle r="1" fill="#000227" transform="matrix(37.04697 11.89448 -4.59941 14.3255 110 122.1)"/><circle r="1" fill="#341f0d" transform="matrix(-44.73028 .2551 -.1011 -17.72528 142 79.2)"/><circle r="1" fill="#ceb990" transform="rotate(160.7 115 57.1) scale(52.00837 31.97946)"/><circle r="1" fill="#0685e8" transform="matrix(-13.69523 25.11882 -22.01342 -12.0021 65.6 65)"/><path fill="#f4e8e0" d="M130 44l-28 8 25 21z"/><ellipse cx="47" cy="101" fill="#e4c094" rx="43" ry="11"/><path fill="#231204" d="M137.5 79.9l93.1 16.2.2 7.4-120.8-17z"/><circle r="1" transform="matrix(-27.71968 .00147 -.00021 -4.00177 62.6 114.8)"/><path fill="#004285" d="M137 66l115-19-133-63z"/><path fill="#ffdec0" d="M182 66h46v15h-46z"/><ellipse cy="93" rx="29" ry="3"/><path fill="#fff0e0" d="M245 39h11v34h-11z"/><path fill="#c6f9ff" d="M132 77h45v3h-45z"/><circle r="1" fill="#dcc8b6" transform="rotate(21 -245 552.2) scale(63.69674 17.80859)"/><path fill="#353e3e" d="M139.6 37.6l-16.2 42.1 73.1-11.3-31.3-20.3z"/><path fill="#4b4d51" d="M88.2 14l-.8 62.1 2.9 31.3L116 94.2z"/><path fill="#214000" d="M265 72.1l-24.3 10.3 22.8 16.7-7.9-29.4z"/><circle r="1" fill="#004b99" transform="rotate(46.8 -42.2 22.6) scale(35.02712 97.84161)"/><path fill="#c8ab41" d="M23.3 53.6L42 58.5l-5.6 11.3-3 14.2z"/><path fill="#f8e1c8" d="M77 139h81v5H77z"/><path fill="#0064d4" d="M76 36h14v59H76z"/><circle r="1" fill="#dcc8bc" transform="matrix(22.93784 24.56986 -8.43526 7.87496 253.1 113.5)"/><circle r="1" fill="#003f91" transform="rotate(70.4 95.6 167.8) scale(28.46702 55.13185)"/><path fill="#000013" d="M163 141.8l-19.5-7.9 1.5-3.7 19.5 7.9z"/><path fill="#a4a2aa" d="M139 55h28v10h-28z"/><path fill="#e2cab2" d="M102 96h90v8h-90z"/><ellipse cx="69" cy="59" fill="#95b6c9" rx="7" ry="15"/><path fill="#dcc6a6" d="M51.7 104.4l-40.2 28-13.2-18.8 40.2-28z"/><path fill="#573100" d="M111 2L74 35l20-4z"/><path fill="#212a31" d="M95 84h81v12H95z"/><path d="M40 112h40v5H40z"/><path fill="#9b9da7" d="M89.3 58.6l1.1 3.6 35 12.1L113.8 46z"/><ellipse cx="7" cy="90" fill="#233204" rx="17" ry="6"/><circle cx="229" cy="59" r="8" fill="#6f5e1d"/><path fill="#a29fa1" d="M102.7 92.1l-5.1 2.6L89.4 83l6.3-8.9z"/><path fill="#004fb1" d="M54 59L30 82l61 11z"/><path fill="#e7dcc9" d="M139 103l6 22-37-26z"/><path fill="#182f4c" d="M66 119l104 21-71-41z"/><path fill="#004c95" d="M123 1l121 49-159-6z"/><circle r="1" fill="#b19f90" transform="matrix(-.56713 10.8214 -45.18977 -2.3683 220.2 143)"/><path fill="#002d77" d="M109.7-9.8l176.8-9.3 1.8 35L111.5 25z"/><ellipse cx="221" cy="93" fill="#1b1500" rx="3" ry="7"/><circle r="1" fill="#b0a0a5" transform="matrix(-.1046 -3.52455 17.94087 -.53247 42 90.5)"/><path fill="#0d1e2b" d="M167 52h13v23h-13z"/><path fill="#fffff3" d="M226 90h26v5h-26z"/><path fill="#232627" d="M180.9 52.5l-48 4.5-1.1-15.6 34.3 9z"/><path fill="#005c9d" d="M40 87l-56-13 15-33z"/><path fill="#f4d9c2" d="M203.1 58.4l13-.8.6 8.5-17 2.9z"/><path fill="#b43e3f" d="M109 68h6v22h-6z"/><path fill="#ca5f60" d="M181.2 94.6l-4-.7 5.6-28.5 4 .7z"/><path fill="#27608e" d="M11 66L76 7l8 22z"/><path fill="#252111" d="M134 81h44v14h-44z"/><path fill="#887a4c" d="M181 84h72v5h-72z"/><path fill="#030000" d="M57 110h30v6H57z"/><path fill="#4b5900" d="M247.3 76.6l2.9 16.9L271 80.9 260.4 79z"/><circle r="1" fill="#dbc4ad" transform="rotate(113.9 -13.2 87.4) scale(16.05069 24.37504)"/><path fill="#6a89a5" d="M119.7 79.5l15.1 7.2-6.7 20.6 7.7-32.3z"/><path fill="#c4b5b3" d="M170 111.5h-1l-1-31h1z"/><path fill="#000017" d="M163 138l19 21h37z"/><path fill="#a5aab4" d="M113.4 47l15.9 13.7 4.3-20.4-38.1 23.8z"/><path fill="#7d7268" d="M59 101h27v9H59z"/><path fill="#cdd8e6" d="M109 44l7 1-9 10z"/><path fill="#dbe8ff" d="M91.9 43.5l.2 11h-2l-.2-11z"/><path fill="#2094e1" d="M56.6 43.9L43.4 56.7l4.2 10.6L88 34.4z"/><path fill="#e6d9ce" d="M271 56.4L180.6 81l38.8-3.5L271 62.9z"/><path fill="#1265a5" d="M219.2 43.5l-36.4-1-3.1-15.6-1 45.3z"/><path fill="#00428f" d="M-16 5l67-15-17 74z"/><path fill="#0a253c" d="M131 64h37v10h-37z"/><path fill="#e1cfb3" d="M2 96l41 32-12-33z"/><path fill="#615346" d="M242 138h10v6h-10z"/><path fill="#232a37" d="M91 99l8 17 2-28z"/><circle r="1" fill="#9d8978" transform="matrix(-.36509 -2.35833 26.77972 -4.14572 13.3 131.4)"/><path fill="#0b2340" d="M113 130h34v8h-34z"/><path fill="#fab432" d="M34 68l1 13-9-19z"/><ellipse cx="153" cy="61" fill="#000b17" rx="24" ry="1"/><path fill="#c9baab" d="M102 97h91v8h-91z"/><path fill="#d0c58c" d="M32 70l11-10-2-9z"/><path fill="#c6b8ab" d="M271 85l-116 46 59 28z"/><ellipse cx="230" cy="62" fill="#6a5932" rx="2" ry="14"/><path fill="#a8967f" d="M35.1 113.4l43.2-7.5-55.1-19.3 17.6 27.6z"/><path fill="#d6c6b1" d="M52.2 117.2l50.8 16.7 33.2 15.6-38.1 9.5z"/><path fill="#91936e" d="M214.6 88.6l37.4 2.5-15.1-33.8 2.4 20.3z"/><path fill="#5d5455" d="M64 115l26 14 13-13z"/><path fill="#87745c" d="M105 20l4-20-8 8z"/><path fill="#8d783a" d="M190 63.4h-5.9l8.5 11 4.1-10.7z"/><path fill="#2d4658" d="M110.2 71.7l-29.3 6.9L122 62l-3.2 5.3z"/><path fill="#d4bfa7" d="M255.9 63.1L221 57.5l-31.7 17.8 68.3-31.4z"/><path fill="#adbdd6" d="M118.4 70l12 1.4-6.1-20.9 7.3-8.3z"/><path fill="#0a1400" d="M204 82.3l3.8-1.2 2.2 6.6-3.8 1.2z"/><path fill="#001345" d="M88 25h2v50h-2z"/><path fill="#005199" d="M129.6 40.1l64.2 3.4 46 8.9 12.1-26z"/><path fill="#64632a" d="M17 65l14.8-12 3.2 4-14.8 12z"/><path fill="#6f6040" d="M215.1 66.2l79.6-15.4.2 1-79.6 15.4z"/><path fill="#01478b" d="M119.3-9.8L91.9 47.9l12.4 5.2 30.9-30.6z"/><path fill="#0069cb" d="M87 37l1 57H66z"/><circle r="1" fill="#e1d1b9" transform="rotate(35.4 -21.4 388.5) scale(3.10825 10.96589)"/></g></g></svg>