<svg xmlns="http://www.w3.org/2000/svg" viewBox="0 0 1175 784"><defs/><filter id="a"><feGaussianBlur stdDeviation="12"/></filter><rect width="100%" height="100%" fill="#2b3b55"/><g filter="url(#a)"><g fill-opacity=".5" transform="translate(2.3 2.3) scale(4.58984)"><circle r="1" fill="#debb89" transform="matrix(-177.29744 14.88808 -7.3939 -88.0516 107.5 94)"/><path fill="#0d2200" d="M104.2 119l23.5 55.2-82 34.8-23.4-55.2z"/><circle r="1" fill="#afd473" transform="matrix(-43.32017 -11.854 14.23328 -52.01518 136.6 87.1)"/><path fill="#ed7f9a" d="M106 21L43 3l-6 156z"/><circle r="1" fill="#2d488a" transform="matrix(34.76784 10.31636 -30.06902 101.3376 255 57)"/><ellipse cx="28" cy="88" fill="#192e3d" rx="9" ry="152"/><circle r="1" fill="#e37393" transform="matrix(-22.76343 -36.57098 21.92269 -13.64567 190.3 40.5)"/><circle r="1" fill="#a5b9ec" transform="rotate(-8.6 580.7 43.7) scale(19.16658 57.70407)"/><ellipse cx="218" cy="142" fill="#381900" rx="10" ry="66"/><ellipse cx="255" cy="101" fill="#638ee0" rx="28" ry="46"/><circle r="1" fill="#789247" transform="matrix(7.67162 -91.65788 29.63927 2.48076 180.1 159.8)"/><path fill="#ff91b5" d="M78 102l-4 28-33-15z"/><ellipse cx="133" fill="#542325" rx="100" ry="14"/><path d="M19 154l-3 10-32-23z"/><path fill="#00410e" d="M48 108l4-20 14 16z"/><circle cx="7" cy="37" r="14" fill="#b9cbcc"/><path fill="#364f1a" d="M175 145l-58 12 8 18z"/><path fill="#adc16d" d="M146 185l55-77 2 77z"/><path fill="#00377e" d="M20.9 87.5L2.6 75.2l4.5-6.7 18.3 12.3z"/><ellipse cx="85" cy="102" fill="#385c2c" rx="7" ry="36"/><ellipse cx="229" cy="41" fill="#253756" rx="9" ry="49"/><path fill="#bac6b3" d="M25 134h5v36h-5z"/><path fill="#b3707f" d="M134 4h86v46h-86z"/><path fill="#403028" d="M207 93l33 37-75-48z"/><path fill="#487d3e" d="M102.5 89.2l-6.9-2.1-41.1-31.8-10.1 13.6z"/><circle r="1" fill="#c0d18d" transform="matrix(55.68426 -12.28552 1.67223 7.5794 114.2 86.2)"/><path fill="#000004" d="M123 116.7l16.5-7 1.6 3.6-16.6 7z"/><path fill="#ff94bb" d="M87.5 57.5l-9.4 12.9-35.6-25.9 9.4-12.9z"/><path fill="#488546" d="M177 31l12 16-34 22z"/><path fill="#c8df97" d="M156.2 69.3l-5.9-10.8-54.1 12.8 27.4-34.6z"/><path fill="#151b27" d="M32 32L-16 5l73-16z"/><path fill="#2a382f" d="M175 109l22-16-15 38z"/><ellipse cx="56" cy="157" fill="#33231a" rx="22" ry="17"/><path fill="#44954b" d="M67 40l7-16 25 40z"/><ellipse cx="74" cy="15" fill="#ab586f" rx="37" ry="9"/><path fill="#002532" d="M15 63.7l.1 15.9 8.7-16.9L12 43.2z"/><path fill="#414c38" d="M114 65l5 9-36 10z"/><path fill="#302728" d="M203.8 182.7l8.6-44.2 65.8 12.8-8.6 44.2z"/><ellipse cx="4" cy="100" fill="#c8dde4" rx="15" ry="14"/><ellipse cx="43" cy="81" fill="#ee779e" rx="6" ry="61"/><path fill="#3c0f01" d="M271 106l-29-16 9 14z"/><path fill="#ff92bd" d="M52 74.8l27.6 9L76 95.2l-27.5-9z"/><ellipse cx="255" cy="10" fill="#52707d" rx="24" ry="70"/><ellipse cx="87" cy="1" fill="#000e11" rx="66" ry="6"/><path fill="#d67991" d="M214 95l-42-80 54 40z"/><path fill="#5c7647" d="M136 174L88 78l-17 23z"/><path fill="#99adf2" d="M235.8 122.6l35.2 22.8-10.6-45.8L271 91z"/><path fill="#407443" d="M139.2 53.8l3.2-36.1 6.2-1.6 6.8 11.8z"/><path fill="#ee85ae" d="M146.1 41.1l.5-1.2 14.5 15.5 19.1-40z"/><ellipse cx="15" cy="130" fill="#aebeb8" rx="5" ry="26"/><path fill="#abca7d" d="M96.6 43.9L86.4 81.1 114.6 51l29.1 44.2z"/><ellipse cx="58" cy="140" fill="#2c3a24" rx="6" ry="15"/><path fill="#2f5238" d="M122.4 8.2l5 21.4-9.8 2.2-5-21.4z"/><path fill="#dc8fa0" d="M188 22h12v61h-12z"/><path fill="#fff" d="M23.7 91.5h-1l-.4-19h1z"/><path fill="#87634a" d="M223 60h4v101h-4z"/><ellipse cx="28" cy="70" fill="#9c7b8e" rx="3" ry="33"/><path fill="#2b3124" d="M118 95h19v4h-19z"/><path fill="#5084e7" d="M233.5 143.2l-4.3-2.9-1.1-13.9 28.5 15.5z"/><ellipse cx="93" cy="27" fill="#d6849a" rx="23" ry="8"/><ellipse cx="32" cy="76" fill="#1a2626" rx="3" ry="59"/><path fill="#b0cb70" d="M112 125l-23-8 68-29z"/><path fill="#6d7353" d="M129 63h43v10h-43z"/><path fill="#8ac7b6" d="M250 69l-5-17 26-17z"/><circle r="1" fill="#ff8bab" transform="matrix(6.29655 6.70515 -7.69098 7.22231 69.4 115)"/><path fill="#001529" d="M23.8 154.4L8.4 170.6l16.9-33.9-1.2 9.9z"/><path fill="#0e213e" d="M236 75l2 11-31-4z"/><path fill="#2a2e3a" d="M-16 29l69.1-7-41-21L-16 6.3z"/><circle r="1" fill="#5e3f46" transform="rotate(-156.6 132.1 39.3) scale(21.25943 2.386)"/><path fill="#df7d94" d="M65 117l-32 29 4-50z"/><path fill="#a5c96d" d="M158 147l-32 9 52-34z"/><path fill="#ff87b3" d="M129 25h12v10h-12z"/><ellipse cx="218" cy="133" fill="#19180a" rx="4" ry="37"/><path fill="#3c4031" d="M127 122.2l-7.5-4.8 27.2-6.1-2.3 4.9z"/><circle r="1" fill="#a0cdee" transform="matrix(38.60594 29.19744 -.63825 .84392 10.5 164.3)"/><path fill="#576239" d="M144.7 130.1l1.2-9.5-28.9 17.9 14.5-7.3z"/><path fill="#b1c97a" d="M145 53h15v71h-15z"/><path fill="#95b1c5" d="M31.1 49.1l-18.7.8 10.2-23.6-23.7 2.5z"/><path fill="#87b557" d="M62.8 125.1l2.9 17.2 18-20-22.2 6.1z"/><path fill="#517ad4" d="M246.9 97l-5.3-53.1-17.6 83.4 10.9-10z"/><path fill="#874353" d="M214.2 71.2L224.8 84l-4.2-72.1-9-9.7z"/><path fill="#c638a9" d="M13 65l-29-41v45z"/><path fill="#292c23" d="M30.3 126.6l-4.7-3.8 2.7 20.7 8 20.7z"/><ellipse cx="186" cy="69" fill="#295f32" rx="5" ry="6"/><path fill="#dd7e9c" d="M38 23h28v32H38z"/><path fill="#385e25" d="M115 142h30v5h-30z"/><path fill="#7f6f4f" d="M176 175l31-14 3-33z"/><circle r="1" fill="#50744a" transform="rotate(-105.7 70.7 -17.2) scale(12.06203 3.91251)"/><path fill="#eea3ba" d="M175.5 76.7l-7.3-14.2 6.3-3.2 7.3 14.2z"/><path fill="#555e3e" d="M184.2 128.4l-84.3 52.9 73.4-32 15.4-16.8z"/><path fill="#cfe492" d="M140 138l21-15-41 14z"/><ellipse cx="233" cy="31" fill="#334769" rx="13" ry="37"/><path fill="#274f34" d="M50 70h17v5H50z"/><path fill="#8d535e" d="M123.8 6L53 17.1l-8.1 19.8L38.4 7z"/><path fill="#cce5a3" d="M93 88h43v6H93z"/><circle r="1" fill="#01120f" transform="matrix(-.50279 1.89654 -6.6008 -1.74993 7 169)"/><ellipse cx="135" cy="105" fill="#dae993" rx="9" ry="6"/><circle r="1" fill="#434d3d" transform="matrix(3.65363 8.24802 -5.10046 2.25935 54.1 102)"/><path fill="#615a4f" d="M226.4 81.9l-67.5 3 29.5-15.4-13.6 27.4z"/><path fill="#b8ca87" d="M63.1 18.2l37 46 67.7 19.6-20.9 9.5z"/></g></g></svg>