<svg xmlns="http://www.w3.org/2000/svg" viewBox="0 0 3724 2096"><defs/><filter id="a"><feGaussianBlur stdDeviation="12"/></filter><rect width="100%" height="100%" fill="#53402f"/><g filter="url(#a)"><g fill-opacity=".5" transform="translate(7.3 7.3) scale(14.54688)"><circle r="1" fill="#eeaf84" transform="matrix(58.39353 9.99877 -23.6235 137.96291 110.7 102.3)"/><ellipse cx="176" fill="#b2f3ff" rx="72" ry="27"/><circle r="1" fill="ivory" transform="matrix(21.5806 3.72762 -8.14613 47.16108 0 26.1)"/><circle r="1" fill="#ecd36d" transform="matrix(26.83887 16.36357 -8.82895 14.48089 204.6 91.9)"/><circle cx="145" cy="143" r="25" fill="#f4ffff"/><ellipse cx="195" cy="45" fill="#141d18" rx="67" ry="25"/><circle r="1" fill="#f28b48" transform="matrix(-18.36809 -25.46798 34.9833 -25.23075 79.7 80.6)"/><path fill="#621f07" d="M72 93l117 15-102 21z"/><path fill="#270e00" d="M115 20L8 78l26-94z"/><path fill="#ffffe5" d="M0 14h18v32H0z"/><circle r="1" fill="#abcce5" transform="matrix(-26.85766 15.01024 -8.9186 -15.95796 207 9)"/><circle r="1" fill="#97572d" transform="rotate(137.6 68.1 101.9) scale(17.24527 55.69431)"/><path fill="#cbb881" d="M-16 65.2l.7 36.5 36.4 11.9-2.9-26.1z"/><path fill="#e085be" d="M207 103h38v12h-38z"/><circle r="1" fill="#ffcc8b" transform="rotate(-115.7 62.4 31) scale(30.63721 9.92184)"/><path d="M206 42h13v48h-13z"/><path fill="#49320f" d="M169 0h13v92h-13z"/><path fill="#8fcaeb" d="M79.7-16l57.4.4-35 29.4-10.6 7.9z"/><ellipse cx="142" cy="72" fill="#928a71" rx="25" ry="30"/><path fill="#3d1b05" d="M12.3 59.4l42 67.9L76.6 159l-37.4-6.9z"/><path fill="#fadd38" d="M167.5 79.2l40.8-6.6-11 31.2-11.2-7.8z"/><circle r="1" fill="#0c0000" transform="matrix(7.34015 13.74687 -28.20995 15.06271 201.2 53.5)"/><circle r="1" fill="#9c5222" transform="matrix(-9.80533 -18.02997 21.35916 -11.61586 107 32.2)"/><ellipse cx="239" cy="127" fill="#a56637" rx="77" ry="10"/><path fill="#ffa869" d="M116.8 69.7l-27.1 18 23.6-62.9 15.4-4z"/><path fill="#fff" d="M219 76h5v22h-5z"/><path fill="#fbae7e" d="M99.8 126.6l-6.1-10.1 47.9 42.5-78.1-25.7z"/><path fill="#481c00" d="M224 59h32v43h-32z"/><circle r="1" fill="#5c3d0c" transform="matrix(-8.63898 18.0471 -12.61872 -6.04046 168 103.9)"/><ellipse cx="221" fill="#c0e3f9" rx="31" ry="10"/><path fill="#2d0700" d="M79 97h13v30H79z"/><path fill="#556466" d="M142.4 8.7l-3.7 26.7 86.6-7.5-64.7-4.6z"/><circle r="1" fill="#8f481b" transform="matrix(-9.97012 3.9042 -7.8802 -20.12353 63.3 65.6)"/><path fill="#ffb" d="M-16 3l37 17-8 32z"/><path fill="#ab966e" d="M22.6 131.2l-2.6.5L-6.1 159l44.3-21.7z"/><circle r="1" fill="#fba062" transform="rotate(-151.3 47.6 16.5) scale(19.26606 11.02809)"/><path fill="#f4b891" d="M131.1 131.6l3.9-13.8 4.3 5.7-24.8-13.9z"/><ellipse cx="37" cy="29" fill="#181103" rx="17" ry="31"/><path fill="#c19541" d="M-3 45l17.4 7.4L3.1 79l-17.5-7.5z"/><ellipse cx="10" fill="#61716c" rx="16" ry="14"/><path fill="#abacba" d="M119 102l53-22-31-1z"/><path fill="#c46e43" d="M131 69L98 86l8 49z"/><circle r="1" fill="#826b47" transform="matrix(-5.68466 -12.74457 25.84439 -11.5278 148 67.5)"/><circle cx="255" cy="30" r="26" fill="#1d231e"/><circle r="1" fill="#431d00" transform="matrix(-2.69264 3.23257 -40.98865 -34.1424 206 121.4)"/><path fill="#5f1d0f" d="M94.3 51.8l.4-12 13 .4-.4 12z"/><ellipse cx="111" cy="19" fill="#573715" rx="15" ry="8"/><path fill="#6e7475" d="M245.6 41.1l-23.8 11.2 16.4 3.5-19.1 33.7z"/><circle r="1" fill="#f9a86a" transform="matrix(6.17046 6.41206 -11.23297 10.80973 67.5 119.7)"/><path fill="#5e757d" d="M211 29l25-14-60 2z"/><path fill="#000100" d="M122 42h69v3h-69z"/><path fill="#003273" d="M243 105h13v10h-13z"/><path fill="#86572a" d="M42.3-16h21.4l-6 34.5 47.8 16.3z"/><path fill="#a0674b" d="M171.4 144.9l-9.3-19.5 36.3 3.1 61 30.5z"/><path fill="#964622" d="M81 71h8v29h-8z"/><path fill="#a9c8e2" d="M171-16H94l74 39z"/><ellipse cx="2" cy="48" rx="4" ry="2"/><path fill="#c6c3c1" d="M178 151l-21-31-67 25z"/><circle cx="119" cy="130" r="8" fill="#844326"/><ellipse cx="98" cy="70" fill="#ffb373" rx="11" ry="16"/><path fill="#1f1004" d="M114.8 110.4L93 101.5l-21.4-2.6 10.5 6.9z"/><path fill="#481c10" d="M123 110l48 12-32-21z"/><path fill="#e3cd3e" d="M188.3 70.4l18.3 1.8-4.6 25.7-21.2-4.6z"/><path fill="#3a3519" d="M173.6 24.9l28 65.4 31.3-51.7-23.7 68.2z"/><path fill="#8e8465" d="M118 44h53v13h-53z"/><path fill="#544e3b" d="M129 27h95v13h-95z"/><circle r="1" fill="#e48f5d" transform="rotate(135.3 8.2 46) scale(5.22901 8.31619)"/><path fill="#260f00" d="M86.7 29.1L85 40l-19.7-3.1L67 26z"/><circle r="1" fill="#ffffaf" transform="matrix(10.18004 -16.8251 3.32157 2.00971 11.4 27.8)"/><path fill="#af8642" d="M20.6 43.5L-16 124.3l33.4-83.4 8.3-52.3z"/><path fill="#8fa591" d="M198 104l18-14 22 16z"/><circle r="1" fill="#50311b" transform="matrix(-16.43711 -60.55866 11.03001 -2.99382 36.1 107)"/><path fill="#ce8a69" d="M133.1 86l-5.1 16.8-34.1-3.2-12.8-.8z"/><path fill="#0b0200" d="M174 44h39v27h-39z"/><path fill="#050000" d="M267 159l-43-22 45 6z"/><path fill="#abbbc6" d="M145.8 28.4l3.5-2-17.2.1-20.1-41z"/><path fill="#b0cfde" d="M183 0h57v13h-57z"/><path fill="#909878" d="M207 73h18v3h-18z"/><path fill="#473403" d="M161.5 94.5l-5 2.4 10.3 7.4 21-40.6z"/><path fill="#854145" d="M185.2 99.8l39.2 27.7-6.3 4.4-20.6-34.6z"/><path fill="#6c2a15" d="M104.6 94.6l-3.5-2 10.3-17.2 3.5 2z"/><path fill="#685841" d="M152 51h21v28h-21z"/><path fill="#f25c80" d="M216.6 106.8l25 .4-.2 8-25-.4z"/><path fill="#945f3d" d="M151 101h30v15h-30z"/><path fill="#727277" d="M171 82l-55 20 35-1z"/><circle r="1" fill="#85a7b8" transform="matrix(-5.5935 4.64382 -9.3346 -11.24358 93 4.6)"/><path fill="#6f6649" d="M25 113L-7 91l-9 33z"/><path fill="#baa678" d="M19.4 107.8L-8.4 80.7 14 90.3l3.8-7.6z"/><path fill="#d88651" d="M41.3 102.6L78.2 159l36.5-31.7-40.8.9z"/><path fill="#f5b67e" d="M79 124.1l-10.2-40-21.6 2.7 31.2 19.9z"/><path fill="#bd6f4a" d="M74 105l33 5 3 11z"/><path fill="#160c01" d="M191.6 42.3l3.2 34.1 15.3-19.9L269 68.1z"/><path fill="#7e93a1" d="M180 16h14v14h-14z"/><path fill="#552c09" d="M231.7 86.3l27 28.5V66.5l-45.6-8z"/><path fill="#342513" d="M62.7-6.2L80.6 13l6.9-11.8 3.4 4.5z"/><path fill="#5f1e05" d="M72.7 129.1l24-18.5 4.9 8.8-9.1 6.5z"/><path fill="#151005" d="M191.8 78.9l-24.1-8.2 99.5-42.6-82.3 43.3z"/><circle r="1" fill="#ffe" transform="rotate(-129.2 7.3 8.5) scale(8.59773 5.43406)"/><path fill="#4c5a4f" d="M221.5 96.2l2-3.4 19 11-2 3.4z"/><circle r="1" fill="#083312" transform="matrix(4.39324 8.62223 -3.68805 1.87916 212.2 82.6)"/></g></g></svg>