<svg xmlns="http://www.w3.org/2000/svg" viewBox="0 0 1800 1012"><defs/><filter id="a"><feGaussianBlur stdDeviation="12"/></filter><rect width="100%" height="100%" fill="#31394d"/><g filter="url(#a)"><g fill-opacity=".5" transform="translate(3.5 3.5) scale(7.03125)"><circle r="1" fill="#ffffe0" transform="rotate(83.8 36 118) scale(83.23509 54.43781)"/><ellipse cx="219" cy="82" fill="#00a38a" rx="50" ry="255"/><circle r="1" fill="#ffeff9" transform="rotate(94.1 59.3 124.2) scale(29.68167 18.53467)"/><circle r="1" fill="#fff" transform="matrix(-5.61057 38.45961 -22.7543 -3.31945 146 6.6)"/><circle cx="43" cy="67" r="74" fill="#003140"/><path fill="#000909" d="M171 0h25v43h-25z"/><path fill="#00362b" d="M171 98h29v45h-29z"/><ellipse cx="146" cy="75" fill="#e8dcb9" rx="24" ry="253"/><ellipse cx="110" fill="#938268" rx="15" ry="253"/><ellipse cy="81" fill="#006672" rx="32" ry="255"/><path fill="#fffffb" d="M191 44h13v53h-13z"/><ellipse cx="60" cy="73" fill="#000f26" rx="25" ry="255"/><path fill="#8b8a8a" d="M182 64.8l-45.3 39.5-5.9-65.4 76.3 6.5z"/><path fill="#ffffef" d="M156 81h14v62h-14z"/><ellipse cx="232" cy="80" fill="#007f73" rx="29" ry="255"/><path fill="#ffefe5" d="M229 73h-65l11 15z"/><path fill="#fffff3" d="M135 0h35v29h-35z"/><path fill="#030e1e" d="M119 116l-13-19 3 22z"/><path fill="#00001b" d="M143 76l6-5 12 8z"/><path fill="#fffff1" d="M156 41h8v26h-8z"/><ellipse cx="127" cy="95" fill="#ffffdb" rx="3" ry="65"/><ellipse cx="192" cy="11" fill="#005951" rx="22" ry="30"/><path fill="#aaa382" d="M106 132h51v11h-51z"/><path fill="#006a5f" d="M171 100h47v43h-47z"/><path fill="#606c75" d="M157.6 38.4l-15.9-5.6 13.2-4.3 9.3 9.6z"/><path fill="#656c75" d="M87 44l37 17-22-77z"/><path fill="#00658c" d="M179.1 63.2l-.2-8 12-.4.2 8z"/><path fill="#f2f2e2" d="M112 23l7-24v37z"/><circle r="1" fill="#56646d" transform="matrix(3.13067 18.50964 -2.60712 .44096 167.7 62)"/><path fill="#a79d8c" d="M131 80h26v54h-26z"/><path fill="#fff" d="M173 69h7v30h-7z"/><path fill="#f5f2f1" d="M189.6 57.8l9.4-19.7 5.6 11.4-3.1 50.1z"/><circle cx="225" cy="19" r="35" fill="#006f69"/><circle r="1" fill="#002d4b" transform="matrix(.5407 -114.58676 12.00349 .05664 36.7 84.3)"/><path fill="#efefdc" d="M167.6 24.2l-47 23.6 32.1-40.5 21.8 53.2z"/><path fill="#3c4a60" d="M86 25h12v63H86z"/><path fill="#848681" d="M96 23l4-35 24 22z"/><circle r="1" fill="#007c73" transform="rotate(-45.4 247.3 -222.2) scale(59.87012 30.28893)"/><path fill="#002b2c" d="M191 27l-13 22-8-27z"/><ellipse cx="123" cy="98" fill="#999243" rx="2" ry="111"/><path fill="#00000a" d="M133.9 45l10-1 .2 3-10 1z"/><path fill="#e0ebf1" d="M194 75h35v3h-35z"/><ellipse cx="76" cy="102" fill="#131617" rx="7" ry="187"/><path fill="#1b262b" d="M162.3 81.4l-7.8-2 1.2-4.8 7.8 2z"/><path fill="#240a05" d="M170 51h1v53h-1z"/><path fill="#fffceb" d="M168.7 80.4l33.7 1-28.9-7.2-19.4-4.5z"/><path fill="#747c8a" d="M184 76l9-3-25-10z"/><path fill="#f2fcff" d="M173 51h26v4h-26z"/><path fill="#35766e" d="M203 78h15v11h-15z"/><path fill="#1a242a" d="M112 30h4v24h-4z"/><path fill="#cdc1a9" d="M192.2 103.9l-16.1-17.3 17.9-7.4 5.3 11.4z"/><ellipse cx="117" cy="110" fill="#bcb1a0" rx="3" ry="39"/><path fill="#243441" d="M170.6 71.6l-.2 1-33-8.2.2-1z"/><ellipse cy="72" fill="#005b63" rx="18" ry="231"/><path fill="#1e2d3c" d="M71 129h54v3H71z"/><path fill="#a8a39c" d="M114 45l-6 9-10-12z"/><path fill="#004c40" d="M171 98l22 7-21 39z"/><path fill="#242d3e" d="M89 158L78 59l22 50z"/><circle cx="147" cy="32" r="3" fill="#404b57"/><path fill="#d5dddd" d="M204.5 69.7l-15 11.8-8.1-14 29.4 9.3z"/><path fill="#30353e" d="M115 77.3L94 23l1-.4L115.9 77z"/><path fill="#06665c" d="M223 73l-17 2 2-47z"/><path fill="#fffdda" d="M157 52h8v16h-8z"/><circle r="1" fill="#4b321c" transform="matrix(.91727 6.96735 -.99144 .13053 171.4 91.6)"/><path fill="#e3e3de" d="M194.1 101.6l14.9-15-20.4 11.3-2.4-10z"/><path fill="#373e43" d="M109 9h3v29h-3z"/><path fill="#7c9025" d="M118 150l12-17-8 2z"/><path fill="#007974" d="M226 5h30v138h-30z"/><path fill="#101325" d="M113 137l9 14-21 1z"/><path fill="#1c1b15" d="M123.6 79l-.2 8h-3l.2-8z"/><path fill="#a39589" d="M100 44h2v80h-2z"/><path fill="#fff" d="M128-16L103 2l-5-18z"/><path fill="#4d484d" d="M100 74h8v25h-8z"/><path fill="#b3aaa4" d="M165.5 40.9l9.7.3 4.3 11.7-38-11.3z"/><path fill="#080e1c" d="M84-16l-3 31 13 14z"/><path fill="#3e3f40" d="M99.6 109.8l23.3 4.2-15.3 9.8-1.9-12.4z"/><path fill="#a69a8f" d="M112.2 95.9L105.9 72l18.9 15.5L93.4 106z"/><path fill="#053a30" d="M170 40l2-54 13 29z"/><path fill="#f8f6e1" d="M168.8 40.3l-26.6-5.5-3.4-32.7-11 38.6z"/><circle r="1" fill="#fefbe9" transform="matrix(.7758 .63099 -3.71987 4.57356 117.2 106)"/><path fill="#32465e" d="M168 49h4v22h-4z"/><circle r="1" fill="#b5aea3" transform="matrix(1.5597 -.41638 3.18334 11.92445 100 48)"/><path fill="#212a31" d="M108 123l-4 16-4-12z"/><path fill="#2a3b52" d="M84 52L71 72l34-19z"/><path fill="#f2ecd4" d="M100 12h3v8h-3z"/><path fill="#52504e" d="M110.3 55.1L156 70l-.3 1L110 56z"/><path fill="#959597" d="M195 41l-14 1 17 10z"/><path fill="#dfd1bf" d="M113 61h7v6h-7z"/><path fill="#f8f4d2" d="M114 117h10l-7 8z"/><circle cx="161" cy="35" r="3" fill="#28272d"/><path fill="#0d161f" d="M111 19l-3 3-4-8z"/><path fill="#b1a39a" d="M113.6 132l2.3 3.2-15.5 10.9-2.3-3.3z"/><path fill="#cdc7b5" d="M100.5 19.9L120.7 36l-2.8-52 .1 45.5z"/><path fill="#c3bab1" d="M98.4 72.4l12.3-25.2.9.4-12.3 25.2z"/><path fill="#a7a69c" d="M125 32l7-27 4 14z"/><path fill="#007793" d="M182 54h8v9h-8z"/><path fill="#000015" d="M95 11h4v5h-4z"/><path fill="#4a504e" d="M130.8 79.8l.4-.9 20 9.3-.4.9z"/><path fill="#203c5e" d="M73.3 98.6l-7.1-17.1-4.1 6.5 3.9 21.7z"/><path fill="#406481" d="M95.2 77.5l-14 7.5-2.4-4.5 14-7.5z"/></g></g></svg>