<svg xmlns="http://www.w3.org/2000/svg" viewBox="0 0 1200 1800"><defs/><filter id="a"><feGaussianBlur stdDeviation="12"/></filter><rect width="100%" height="100%" fill="#6d5d3e"/><g filter="url(#a)"><g fill-opacity=".5" transform="translate(3.5 3.5) scale(7.03125)"><circle r="1" fill="#ade0ff" transform="matrix(-168.62657 11.22852 -3.7152 -55.79379 58.2 43.6)"/><circle r="1" fill="#cba928" transform="matrix(-87.62188 -40.23936 21.35266 -46.49576 91.7 148.5)"/><circle r="1" fill="#889dcb" transform="matrix(-24.72582 1.115 -3.21765 -71.35354 9 135.6)"/><circle r="1" transform="matrix(-22.12565 9.57462 -13.58141 -31.3848 122.2 245.1)"/><path fill="#eec434" d="M101 92h42v116h-42z"/><circle r="1" fill="#9aaddc" transform="matrix(66.28039 -2.3122 1.60392 45.97697 105 51.6)"/><ellipse cx="53" cy="117" fill="#66561c" rx="35" ry="32"/><circle r="1" fill="#7a640d" transform="matrix(14.53343 67.7924 -20.94736 4.49073 159 142)"/><path fill="#7e97cc" d="M-16-3l90-9-90 208z"/><path fill="#2b2a2e" d="M97 205l-28-2 22-39z"/><circle r="1" fill="#15221a" transform="matrix(5.03241 .21343 -1.26152 29.74466 80.2 130.6)"/><circle r="1" fill="#8f8868" transform="matrix(-9.48182 12.76728 -41.17023 -30.57571 49.6 201.6)"/><path fill="#000321" d="M51.2 152.7l-8-.5 3.6-51 8 .6z"/><path fill="#d19e1e" d="M54 112h21v84H54z"/><path fill="#c9a930" d="M170.1 107l-78.7 23.9 43.1-49.6 44.1.3z"/><path fill="#0c0b09" d="M175 135.2l-32-8 4-16.4 32 8z"/><circle r="1" fill="#7f6700" transform="matrix(-27.84195 -22.167 17.12422 -21.50816 169 233)"/><circle r="1" fill="#ddae25" transform="rotate(165.2 38.2 79.4) scale(10.43397 29.10167)"/><path fill="#130a00" d="M102 216h38v40h-38z"/><path fill="#a5b8d4" d="M24.8 75.7l95.8 28.4 8.1-65.4L61 47.8z"/><path fill="#788591" d="M-16 249.5l111.2 11.2-21.8-35.9 20.1 20.6z"/><path fill="#43320e" d="M112.4 108.4l-9.7 7.6 1.4.7-77-24.9z"/><path fill="#b6cbe3" d="M29 84l-45 39 7 48z"/><path fill="#798fb6" d="M-2.2 50L-14-10.7 188.2-50 200 10.8z"/><circle r="1" fill="#887d61" transform="matrix(-13.20646 56.52655 -14.13504 -3.30241 21.1 148)"/><path fill="#d2aa30" d="M109.1 196.6L86 186.7l54.3-107.4 2 70.6z"/><path fill="#8993a5" d="M9.3 194.7l62.5 7.7-1 9-62.6-7.8z"/><path fill="#ad8714" d="M34 82h11v95H34z"/><path fill="#c6a02a" d="M151 244l-13-67 16 29z"/><ellipse cx="85" cy="233" fill="#8390a2" rx="6" ry="22"/><path fill="#8d7624" d="M124.4 105.8L78.9 92.3 35.3 80.4 33 94.9z"/><path fill="#5f5005" d="M89.6 271l2.6-78 37.6 28-24.1-7z"/><path fill="#b08615" d="M41 153h25v46H41z"/><circle r="1" fill="#879ec2" transform="rotate(153.6 72.6 37.1) scale(27.72528 49.49064)"/><path fill="#6e5b1c" d="M142 126h21v63h-21z"/><ellipse cx="79" cy="130" fill="#02151f" rx="3" ry="28"/><path fill="#645932" d="M0 212h77v31H0z"/><path fill="#000126" d="M172 239.5v29h-6v-29z"/><path fill="#c5a431" d="M166 183h4v55h-4z"/><path fill="#584c19" d="M168.1 197.5L155.4 271l.2-83.5 5-3.8z"/><path fill="#181114" d="M88 166h6v15h-6z"/><path fill="#856f24" d="M141 80h19v33h-19z"/><path fill="#bf9a27" d="M152 215l1-33-53 21z"/><path fill="#b1bfd1" d="M72.5 91.1L92 66.8 17.1 78l33.8 6z"/><path fill="#594920" d="M50.3 93.6l-18.4-6.5-2.1 10.8 84 17.5z"/><circle cx="112" cy="90" r="12" fill="#7d9ac2"/><path fill="#503f0b" d="M133 214h15v42h-15z"/><ellipse cx="84" cy="199" fill="#4a493a" rx="16" ry="11"/><path fill="#b28e29" d="M54.5 107.5l22.1 16.4-1.7 62.9-23.5-13.3z"/><path fill="#717982" d="M-8.8 251.3l-7.2-12.2 52.7 9.4-16.4 4.3z"/><path fill="#cdab37" d="M142.1 117.1l-.5-44.5-19 26.3-34.7 28.6z"/><path fill="#adc1d7" d="M-16 87l26 56-23 37z"/><path fill="#786412" d="M95 259.5l-1-67h5l1 67z"/><ellipse cy="35" fill="#798eab" rx="22" ry="65"/><path fill="#807b6f" d="M9 127h24v79H9z"/><path fill="#767578" d="M32 127l-17-1 20-43z"/><path fill="#94a8c2" d="M126.5 72.3l9.8-74.4-60.2 40.2L185 87.9z"/><path fill="#191100" d="M143.7 218.6L100.1 271l.5-56.6 28.9 3z"/><path fill="#957922" d="M155.8 200.9l-24.5 34.2 19.1-4.8-1.1 40.7z"/><path fill="#c8a22e" d="M153 108l-60 16-14 48z"/><path fill="#f6cc3f" d="M164 108h6v5h-6z"/><path fill="#604f02" d="M138.3 218.5l-25.7-4 1.1-7 25.7 4z"/><path fill="#9badc5" d="M50.4 59.7l-54.5 83.9-14.3-9.3 54.5-83.9z"/><ellipse cx="81" cy="179" fill="#24171f" rx="3" ry="6"/><circle r="1" fill="#b88e28" transform="matrix(-28.22516 4.6553 -1.59781 -9.68756 63 170.7)"/><path fill="#7f5e0d" d="M64 199l-14 1-10-23z"/><path fill="#152921" d="M46 95h6v54h-6z"/><path fill="#1a1504" d="M166.2 132.6l18.8 20.7v-26l-44-9.2z"/><path fill="#aa8a26" d="M53 105h23v42H53z"/><path fill="#62531a" d="M154 184h12v72h-12z"/><path fill="#877326" d="M185 101.4l-31.6 11.1-12.5-36.8 28.3 9.3z"/><path fill="#a78325" d="M83 111h5v45h-5z"/><path fill="#767a7f" d="M84 200l-18 4 21 17z"/><path fill="#685b38" d="M-16 238l93-25 2 37z"/><circle r="1" fill="#a18825" transform="rotate(-161.8 48.2 42.4) scale(39.30131 3.83532)"/><path fill="#272624" d="M91 190l-2 12-15-9z"/><path fill="#cea32c" d="M86 180h51v10H86z"/><path fill="#848276" d="M-16 149.4V203l50.5 3.9 6.9-21z"/><path fill="#48360e" d="M106.5 112l-.5 2-62.5-18 .5-2z"/><path fill="#997b20" d="M103.9 114.5l-3.1 2.3-13.4 15.1-2.9-22z"/><path fill="#7d7767" d="M7.9 134.5l4.5 38.4 21.3-88.2-25 45.3z"/><path fill="#c7a634" d="M139.3 136.7l-52-4.1 29.1-31.5 20.4-17.7z"/><ellipse cx="39" cy="123" fill="#aa8c29" rx="6" ry="27"/><ellipse cx="77" cy="151" fill="#000100" rx="2" ry="6"/><path fill="#7b7e7d" d="M79 216h12v40H79z"/><path fill="#6c5f3b" d="M82.8 253.1l-30.7-42.2-57.9-8.2-6 11.9z"/><circle r="1" fill="#768db0" transform="matrix(20.744 -7.73247 4.75449 12.75494 99.3 2.8)"/><path fill="#816a20" d="M193.3 147.8l-2.8 39.9-49.8-3.5 2.8-39.9z"/><circle r="1" fill="#a6861d" transform="matrix(.17204 -10.9166 2.41222 .03802 151.4 248)"/><path fill="#cba62f" d="M96 127h46v64H96z"/><circle cx="121" cy="66" r="21" fill="#96abc5"/><path fill="#5e4e19" d="M91 180h3v76h-3z"/><path fill="#b88e2a" d="M56.8 188.4l25.2 5L61.1 157l24.8 1.5z"/><path fill="#2a2310" d="M99.7 212l4.4 33.9-3.7-15.4 46.2-9.1z"/><path fill="#879bb6" d="M50 62L15 40l81-56z"/><path fill="#7995be" d="M94 89l25 8-17 2z"/><ellipse cx="88" cy="189" fill="#494136" rx="1" ry="25"/><path fill="#6b581b" d="M151.5 137l-9.3 50.7.6-68.3 33.4 22.5z"/><path fill="#8199bb" d="M185 65.4l-46 7.9 37.3 14.3-32.9-59.1z"/><path fill="#a28526" d="M32 136h12v42H32z"/></g></g></svg>