<svg xmlns="http://www.w3.org/2000/svg" viewBox="0 0 1200 1800"><defs/><filter id="a"><feGaussianBlur stdDeviation="12"/></filter><rect width="100%" height="100%" fill="#543f39"/><g filter="url(#a)"><g fill-opacity=".5" transform="translate(3.5 3.5) scale(7.03125)"><circle r="1" fill="#e3ffff" transform="rotate(33.3 -64.4 176) scale(71.96747 116.73222)"/><circle r="1" fill="#ad9681" transform="matrix(99.98927 -110.2728 54.13249 49.08434 79.6 237.3)"/><circle r="1" fill="#fff" transform="matrix(65.6999 2.63878 -.92975 23.1487 9.5 116.2)"/><circle r="1" fill="#bff3ff" transform="matrix(15.83851 -20.09957 44.94342 35.41552 144.6 19.2)"/><ellipse cx="79" cy="69" fill="#cbefff" rx="36" ry="30"/><ellipse cx="76" cy="160" fill="#453b38" rx="83" ry="22"/><circle r="1" fill="#5f5e5d" transform="matrix(-80.62972 61.42339 -18.92178 -24.83838 26 33.8)"/><path fill="#524944" d="M192 86.5l-13.5 18.7L66 23.5 79.5 4.8z"/><path fill="#ecffff" d="M54 56l38 51 66 25z"/><path fill="#081028" d="M101.1 61.7l17.4-14.5-35.3 14.5L82 80.5z"/><circle r="1" fill="#d4c5a7" transform="matrix(-1.98526 8.07242 -55.79251 -13.72111 29.4 231.7)"/><circle r="1" fill="#fff" transform="matrix(-8.4589 15.74981 -35.34482 -18.98299 15.8 104.2)"/><path fill="#5a5759" d="M-16 49.7l30 33.6 143.2 69.2-58.3-43.9z"/><path fill="#503018" d="M61 130h33v24H61z"/><path fill="#111113" d="M157.6 92.8l-11.2 8.4-12-16 11.2-8.4z"/><circle r="1" fill="#ceefff" transform="matrix(14.14201 -27.43286 15.66305 8.07452 69.8 59.8)"/><circle r="1" fill="#e4fbff" transform="matrix(-53.49161 -20.84216 1.7376 -4.45958 74.6 120.8)"/><circle r="1" fill="#d9f2ff" transform="matrix(7.36183 -10.88009 15.1566 10.25545 116 76.5)"/><path fill="#ccdeeb" d="M153.9 142.8l-129-75.4 102.2 37.2 9.3-3.1z"/><path fill="#ab8f7b" d="M30 213l97 36 58-38z"/><circle r="1" fill="#69696a" transform="matrix(30.43721 3.73722 -5.20994 42.43153 16.1 39.3)"/><path fill="#231c18" d="M108 268l60 3-16-45z"/><circle r="1" fill="#aed1ff" transform="matrix(19.92716 -16.1367 53.38828 65.92903 159.6 21.7)"/><path fill="#ac8572" d="M95 169l-21-31-36 45z"/><path fill="#582600" d="M-15 247l54 24 2-33z"/><ellipse cy="221" fill="#b4a586" rx="31" ry="24"/><path fill="#262521" d="M115.1 98.9l20.6 1.1-17.7-5.4-35.4-25.1z"/><path fill="#3a322a" d="M94.8 167.8L185 84.1l-79.8 96.8-12.6 30.5z"/><path fill="#442f27" d="M88.1 232.7l-44 1.6-.2-9 44-1.6z"/><path fill="#f4b797" d="M136 191l1-18-24 7z"/><path fill="#d0daec" d="M114 137l-16 19v-22z"/><path fill="#c3c5c9" d="M96 250l-48-11 32-9z"/><ellipse cx="50" cy="217" fill="#d1dcdf" rx="16" ry="5"/><path fill="#032141" d="M28.4 168.1l-43.9-3.7L32.6 148l-.5 22.7z"/><path fill="#513e39" d="M4.3 218.9l57.4-6.5-1.6-61.8 21.9 43z"/><circle r="1" fill="#c59282" transform="matrix(12.13523 -5.7853 14.84004 31.12846 169 231.8)"/><path fill="#182636" d="M124 103l-3-13 21 6z"/><path fill="#fff" d="M35 69l21-20-13 30z"/><path fill="#6f7d93" d="M2.9 158.9l67-17.9-69.5-2.2-9.6 1.8z"/><path fill="#d2ceac" d="M43.6-12.3l15.9 1.7-3 28.9-16-1.7z"/><path fill="#e7eff2" d="M0 117h59v24H0z"/><path fill="#a4a4a8" d="M112.8 233.4l26.1 4.7 20.7 8.6-47.1-.4z"/><ellipse cx="79" cy="140" fill="#5c4a3b" rx="16" ry="15"/><path fill="#94b2d8" d="M144 151h12l-13-31z"/><path fill="#d9d2bb" d="M37.7 233l-8.4 8.4-28 1.6-9.7-5.9z"/><circle r="1" fill="#00020f" transform="matrix(-9.8967 10.22105 -1.88998 -1.83 94.4 63.6)"/><path fill="#362114" d="M60 250h96v4H60z"/><path fill="#291200" d="M30.3 201.2l-12 .6-.6-13 12-.6z"/><path fill="#493329" d="M-16 218.2l77.7-8.3-70.5-4.3 35.4 16.2z"/><path fill="#d5f5ff" d="M143.8 110.8l-22.6-1.4 24.1-15.6-12.5 34.4z"/><path fill="#e6f9ff" d="M31 130l37-22 26 16z"/><path fill="#9d7d74" d="M126.8 125.7l58.2 45.6-2.6-65.4-56 44.1z"/><path fill="#f9ffff" d="M93 255h38v1H93z"/><path fill="#cbe0f4" d="M131.9 95l-25.4-11.8 7.6-16.3 25.4 11.9z"/><path fill="#8d979d" d="M60.1 183.9l8.3-7.8L33 146.3l.8 17.6z"/><path fill="#392f21" d="M185 116.7l-40 5.5-.7-23.2L185 50.6z"/><path fill="#00121f" d="M163.9 163.6l-26.3-18.2 10 7-4.9 11.8z"/><path fill="#2f2518" d="M92 81l14 5-20-14z"/><path fill="#47362e" d="M93 213l-1-45 19 47z"/><path fill="#b4d4fc" d="M-5 198l-11 10 32-8z"/><path fill="#b2d1f5" d="M97.1-13.4L174 48.7 91.5 13.2l21.3-24.5z"/><path fill="#2c1812" d="M37 223h46v4H37z"/><ellipse cx="99" cy="245" fill="#450004" rx="11" ry="3"/><path fill="#a18271" d="M79 160l2 45 18-52z"/><path fill="#918593" d="M43 228h15v28H43z"/><path fill="#badcff" d="M72 28.2l28.4 18.5-16.3 25.1-28.5-18.5z"/><path fill="#101212" d="M64.7 134L51 163l-1.8-1L63 133z"/><path fill="#706d6c" d="M68.9 94.1l20.5 13-30.7 1.6-33.3-40z"/><path fill="#535c63" d="M36.5 95.9l-1.1-1.3-14.7-2.8-29.2-1.6z"/><path fill="#10121a" d="M106.6 54L144 77.1l-.5.9L106 54.8z"/><circle r="1" fill="#6d6561" transform="matrix(-22.52585 41.14431 -8.2571 -4.52063 65.5 17.4)"/><path fill="#b7b7b8" d="M18 203h24v6H18z"/><path fill="#58443a" d="M107.1 224.7l49.8 8.9-11-13.7-5.8 20.1z"/><circle r="1" fill="#6a6867" transform="matrix(-.94724 -73.1917 22.41263 -.29006 22.2 10.8)"/><path fill="#868d86" d="M156.4 190.6l28.6-15.5-29.7-10.3-15.7.7z"/><path fill="#000409" d="M136 147l5-12 1 15z"/><path fill="#c0b7a6" d="M116.8 252l-17.9-33.6-7.4 1.4 29.5 27.8z"/><path fill="#7c8e9c" d="M133 113l-35-8 20 11z"/><circle r="1" fill="#7a5222" transform="matrix(26.34767 9.97855 -2.32164 6.13013 14.8 183.7)"/><path fill="#42271d" d="M57.1 252.3l3.5-8.3L93 257.7l-3.5 8.3z"/><path fill="#9a9184" d="M161 75l13-11-37-28z"/><circle cx="35" cy="117" r="22" fill="#edefef"/><path fill="#382d22" d="M110.1 138l9.1 15.5-25.7 39.6 6.8-31.6z"/><path fill="#734639" d="M139.5 195.4l-23.3 25 35.4-9.1-50.4 2.8z"/><path fill="#77706a" d="M48.2 22.3l66-35.1-20.8 23.4L95 39.9z"/><path fill="#f4f9f9" d="M-14.8 88.1l44.6 3.7.2-.5-31.8-13.6z"/><path fill="#bec1c8" d="M1.4 213.6l17-3.8-2.7 3.5 9.8 4.1z"/><path fill="#d9efff" d="M63 57L38 72l81 37z"/><ellipse cx="17" cy="144" fill="#757984" rx="36" ry="6"/><path fill="#5d483f" d="M47.6 192.2l58.5 18-53.1 1.2 40.3-53.1z"/><path fill="#ac7967" d="M116 174.3l-11.7 10.8-4.3 8.2 78.5 27.3z"/><path fill="#e0dbdb" d="M90 248h32v2H90z"/><path fill="#434d56" d="M152 120l-48.3-13 .3-1 48.3 13z"/><path fill="#d8b175" d="M47 202.5l1.9 3.4-6.4-25-7.9 2.5z"/><path fill="#80776f" d="M109.1 22.9l-.1 32.2 23.9 4.9 38 9.1z"/><circle r="1" fill="#402e23" transform="matrix(.73644 2.42282 -17.102 5.1983 27 242.4)"/><path fill="#6c6c6b" d="M135.9 131.7l5.2 13.2-34-13.4-17.9-26.4z"/><path fill="#9f8664" d="M92 243l2-40-15 35z"/><path fill="#e5faff" d="M115 113l37 16-15-14z"/><path fill="#a37562" d="M85.1 185l10.9-9.4-35.3-15.1 18.2-20.8z"/></g></g></svg>