<svg xmlns="http://www.w3.org/2000/svg" viewBox="0 0 1200 1800"><defs/><filter id="a"><feGaussianBlur stdDeviation="12"/></filter><rect width="100%" height="100%" fill="#5a3e2f"/><g filter="url(#a)"><g fill-opacity=".5" transform="translate(3.5 3.5) scale(7.03125)"><circle r="1" fill="#cff" transform="rotate(-140.3 73.2 -4.2) scale(129.07865 39.1996)"/><circle r="1" fill="#e4faff" transform="matrix(-100.90848 4.85543 -.6434 -13.3717 95.4 31.6)"/><circle r="1" fill="#919896" transform="matrix(-68.48438 24.80285 -6.49234 -17.92632 130.6 106.6)"/><ellipse cx="29" cy="236" fill="#678c9c" rx="46" ry="24"/><circle r="1" fill="#95b0ca" transform="matrix(2.03527 -32.8842 11.23353 .69526 25.7 50.4)"/><circle r="1" fill="#0d252a" transform="matrix(59.2739 -25.89268 16.62856 38.06634 136.2 227.5)"/><ellipse cx="101" cy="7" fill="#404543" rx="169" ry="10"/><circle r="1" fill="#001119" transform="matrix(7.4315 21.10287 -37.3726 13.16097 38.4 160)"/><circle r="1" fill="#bfdfe9" transform="matrix(7.94439 -4.1814 6.48666 12.32425 43.4 112.5)"/><circle r="1" fill="#001316" transform="matrix(-18.06972 -14.0669 18.81678 -24.17122 58 68.5)"/><circle r="1" fill="#78b5f0" transform="rotate(-151.1 86.5 13.9) scale(54.83842 22.26457)"/><circle r="1" fill="#7c5445" transform="rotate(-139.9 66.2 19.8) scale(30.79111 18.64297)"/><circle r="1" fill="#375866" transform="matrix(-24.01447 4.92911 -7.06566 -34.4237 95.4 158.2)"/><path fill="#feffff" d="M76 17h94v19H76z"/><circle r="1" fill="#746860" transform="rotate(-84.3 170.5 14.8) scale(63.42213 11.12571)"/><path fill="#1c1914" d="M14.3 223.2l3.6 47.8h16.2l24.3-20.1z"/><circle r="1" fill="#826538" transform="matrix(6.6965 -84.15851 15.62478 1.24326 0 82.1)"/><path fill="#4e5959" d="M53.5 28.3L2.4 30.8 42.8-16l57.7 85.6z"/><circle r="1" fill="#93a4ae" transform="matrix(-29.20077 -4.22735 .88074 -6.08376 38.4 225)"/><circle r="1" fill="#12202f" transform="matrix(-79.02073 -8.55742 .78654 -7.26305 59.6 210.5)"/><circle r="1" fill="#a57962" transform="rotate(-95.7 118 -2.2) scale(28.2423 16.58042)"/><path fill="#865b4a" d="M99 50l-51 58 80-32z"/><circle r="1" fill="#0d0000" transform="matrix(-6.7284 103.82674 -4.34667 -.28168 153 255)"/><path fill="#949ead" d="M25.5 19.7L56.2 18 43.7 47.8 19.5 78.1z"/><circle r="1" fill="#6b747e" transform="rotate(129.6 -1.5 102.1) scale(17.3965 9.99361)"/><path fill="#95a7b8" d="M79.8 224.3l-24.5 42.4-5.1-3 24.5-42.4z"/><path fill="#85aecd" d="M78.2 28.1l49.9 10 56.9 6.8L83.6 55.1z"/><circle r="1" fill="#49545b" transform="matrix(-65.89665 -2.94746 .41838 -9.35387 30.8 192.9)"/><path fill="#747f84" d="M185 13.1L160.1-7.6 134.5-16l27.2 36.3z"/><path fill="#22231e" d="M42.6 103.9L98 56.5 47.4 42.9l-12.9 59.8z"/><path fill="#0c2b1c" d="M14.9-13.8l36.1 32-24.4-1.1L-3.7-5.7z"/><ellipse cy="68" fill="#b58c58" rx="6" ry="36"/><circle r="1" fill="#1c1102" transform="matrix(-10.121 -.106 .3243 -30.96697 101.8 229.1)"/><path fill="#383f39" d="M185 104.2l-26.9-3.5-13.1 17.8 26.7 81.4z"/><path fill="#99998a" d="M17.2 252.6L3.5 218.4l-14-26.1 8.2 78.7z"/><path fill="#e4f466" d="M63 119l14-2 3 12z"/><path fill="#2d3231" d="M82.5 137.5l10.5-1.6-6.8-31.1-9 .8z"/><path fill="#858f95" d="M51 115.3L20.9 85.7l23.3 48.7 4.9 16.2z"/><path fill="#34210e" d="M20 104l23 27-49 64z"/><ellipse cx="22" cy="28" fill="#3f2b1e" rx="33" ry="2"/><path fill="#335264" d="M113 196l24-11 6 85z"/><path fill="#105765" d="M60.8 150.2l1.4-28.9 25.1 22.6-8.9 7.2z"/><path fill="#a2c9e8" d="M185 98l-42-5-21-26z"/><circle r="1" fill="#a0a393" transform="rotate(-94.8 8 3.1) scale(4.98881 10.16882)"/><ellipse cx="107" cy="23" fill="#edf8ff" rx="41" ry="8"/><path fill="#19113d" d="M19.3 207.3L-16 183.8l42 70.4-19.7-27.7z"/><circle r="1" fill="#a1a9b3" transform="matrix(-25.73565 9.62216 -2.80405 -7.49978 37.4 40.8)"/><path fill="#b29081" d="M155 163l-23-48 11-19z"/><path fill="#99aead" d="M48.5 196.6l-18.9 3.2 1.9-9.3 14 13.9z"/><path fill="#1e2c31" d="M116.2 132.3l21.2 31.5-11.6 7.9-21.2-31.5z"/><path fill="#070e0c" d="M66 224l-13-9 44-14z"/><path fill="#0f1717" d="M65 178l-81-7 92-25z"/><path fill="#dff2ff" d="M185 42V17.6L69.6 29l67.5 8.6z"/><path fill="#462e14" d="M7 59h11v56H7z"/><path fill="#596c7e" d="M17 80l17 36-3-44z"/><path fill="#6a574e" d="M136.2 91.9l-1.1-9.8-15.2-9L82 112.5z"/><ellipse cx="98" cy="4" fill="#695f5a" rx="61" ry="13"/><path fill="#785142" d="M157.4 168.7l-77.3 37.7-3.5-7.1 77.3-37.7z"/><path fill="#231a0c" d="M175.8 271l-27.1-97.2-3.2 32.3-1.5 48.3z"/><path fill="#b0745d" d="M102 78l-7-16-20 27z"/><path fill="#311600" d="M145.7 118.3l34.4 1 4.9-1.6-32.4 16.4z"/><path fill="#8b5416" d="M139 202h7v39h-7z"/><circle r="1" fill="#0f1411" transform="rotate(-58.1 221.7 98.8) scale(3.25113 13.65833)"/><path fill="#4f331c" d="M9 44l6-28-23-4z"/><path fill="#817b74" d="M178.9 122.4l-50.8-19.2 56.9-4.4-22.8 43.6z"/><path fill="#597589" d="M146 179l-11 15 2 24z"/><path fill="#7a8992" d="M69.6 250.2L53.2 271l18.7-40.3-42.7-24.8z"/><path fill="#73523e" d="M115.4 124.5l17.2-8 22 47-17.2 8z"/><path fill="#b1c2d0" d="M38 29h27v7H38z"/><path fill="#576874" d="M113.9 36.1l68.1 5.8 3-2.4-21.7 4.4z"/><ellipse cx="94" cy="59" fill="#514338" rx="14" ry="7"/><path fill="#a7afae" d="M55 101l-11 28-6-19z"/><path fill="#3b3938" d="M63.2 204.9l-20.5-81.3 2.7 59.8 72.2-4.6z"/><path fill="#37302f" d="M-7.4 106.4l47-17.1 3.8 10.3-47 17.1z"/><ellipse cx="95" cy="36" fill="#e3edef" rx="16" ry="3"/><path fill="#898180" d="M84.7 154l4.4 22.5-7.8 1.6-4.4-22.6z"/><path fill="#0a0d14" d="M21 190h8v15h-8z"/><circle cx="45" cy="198" r="3" fill="#e4ddc8"/><ellipse cx="7" cy="134" fill="#896632" rx="5" ry="20"/><ellipse cx="70" cy="132" fill="#7c9e89" rx="10" ry="4"/><path fill="#272926" d="M31.4 70.8l13.9-29.5 29.5 3.3-39.8 61z"/><path fill="#af814c" d="M-16 44l28 55-28 5z"/><ellipse cx="84" cy="254" fill="#463422" rx="14" ry="31"/><path fill="#8ab1cc" d="M145.9 90.1l-19.8-51.4-52.9 8 31.9 8.5z"/><path fill="#394d5a" d="M174.9 193.7l-14-.5 2.2-63 14 .6z"/><path fill="#68574a" d="M50.4 108l19.1-23.3-29 17.1 30.8 10z"/><path fill="#2f1b00" d="M156 131h6v54h-6z"/><path fill="#314d6e" d="M145.8 94.2l28.6 4.6-.2 1-28.6-4.6z"/><path fill="#646f6f" d="M97.4 32.1l19.4 4.8-.2 1-19.4-4.8z"/><path fill="#625648" d="M66.8 37.9L83 58l7.8 4.9-27-40z"/><path fill="#454f50" d="M121.7 85l-28.1 52.9-5.3-2.8 28.1-53z"/><circle r="1" fill="#263236" transform="matrix(11.87736 -5.71619 11.73648 24.3866 121.5 232)"/><path fill="#002b32" d="M32 132h13v18H32z"/><path fill="#8b96a2" d="M9.3 73.9l38.3-28L17.2 44l-.1 24.4z"/><circle r="1" fill="#69727a" transform="matrix(-.78694 .61704 -37.77464 -48.17578 62.7 17.7)"/><path fill="#57584f" d="M39 212l10-14 9 20z"/><circle r="1" fill="#4e4c45" transform="rotate(-158.9 45.2 118.6) scale(14.80057 8.317)"/><path fill="#f3f8fc" d="M106 17L79 30 66 17z"/><path fill="#91714f" d="M19 54.1l-6.3-19.9L7 29.7l-23-3.9z"/><path fill="#553527" d="M29.4 107.7l2 47-26.7 13.2 30.8-49.1z"/></g></g></svg>