<svg xmlns="http://www.w3.org/2000/svg" viewBox="0 0 1800 1200"><defs/><filter id="a"><feGaussianBlur stdDeviation="12"/></filter><rect width="100%" height="100%" fill="#605237"/><g filter="url(#a)"><g fill-opacity=".5" transform="translate(3.5 3.5) scale(7.03125)"><circle r="1" fill="#e9f3ff" transform="matrix(-223.17119 -76.40858 19.36063 -56.54777 108.1 35.4)"/><circle r="1" fill="#8d8a95" transform="rotate(-64.5 169.8 -2.5) scale(88.86101 254.40905)"/><circle cx="174" cy="70" r="46" fill="#e3edf1"/><circle r="1" fill="#423320" transform="matrix(-20.80506 -5.76975 14.53931 -52.42708 44 78.4)"/><circle r="1" fill="#664d43" transform="matrix(15.8344 -9.27915 24.59219 41.96531 219.3 34.9)"/><path fill="#161800" d="M96 90l20 32-1-98z"/><circle r="1" fill="#afb5cf" transform="matrix(17.06736 16.77205 -29.28329 29.7989 28.1 167.9)"/><circle r="1" fill="#fff" transform="rotate(-129.2 51.5 -1) scale(25.63505 9.53115)"/><circle cx="160" r="34" fill="#d5e1e4"/><circle r="1" fill="#c2b1aa" transform="rotate(63.6 -27.6 186.8) scale(8.79328 77.67656)"/><circle r="1" fill="#efebdd" transform="matrix(-8.81586 18.25809 -30.31886 -14.63937 0 36.2)"/><circle r="1" fill="#c1ad9b" transform="matrix(-56.23663 14.32032 -2.25117 -8.84047 51.4 68.3)"/><ellipse cx="255" cy="71" fill="#7b8499" rx="35" ry="72"/><path fill="#0a1c33" d="M172 156l81-21-84 50z"/><path fill="#292620" d="M193 6h33v22h-33z"/><circle r="1" fill="#e9eeeb" transform="matrix(.04178 5.9846 -122.7449 .85693 83.4 0)"/><circle r="1" fill="#4c402e" transform="matrix(-20.5765 4.5994 -3.73376 -16.70387 52.2 43)"/><path d="M70 165h43v5H70z"/><path fill="#f4ddc5" d="M13.9 102.3l6.4 14.2-31 7.3-5.3-15.3z"/><circle cx="126" cy="25" r="8" fill="#111713"/><path fill="#685345" d="M210.6 115L233 59.6l-8.4 74.8-64.3-21.2z"/><path fill="#aaa2ae" d="M100 105L74 75l-9 69z"/><ellipse cx="198" cy="84" fill="#dfe7eb" rx="21" ry="31"/><path fill="#bde1ff" d="M147 185l25-25-29 3z"/><path fill="#c2c0bb" d="M131 67h15v86h-15z"/><ellipse cx="174" cy="70" fill="#727877" rx="4" ry="75"/><path fill="#2d312a" d="M7.4 158.4L69 84l-40-5.4-10.5 29.2z"/><ellipse cx="124" cy="90" fill="#4b4134" rx="4" ry="52"/><circle r="1" fill="#534b3a" transform="matrix(17.941 -8.73599 3.16466 6.49923 95.2 66.4)"/><path fill="#fff" d="M258.8 4.3L254.2 42l-3-.3L255.8 4zM111 17l-2 21-13-26z"/><path fill="#8f7c68" d="M-14.6 57.9l41.3-20.4 47-18.6L40.8 4z"/><circle r="1" fill="#f6f3ed" transform="rotate(-88.5 103.9 -82.8) scale(40.16392 6.27741)"/><path fill="#7090bd" d="M233 151l32 19-105 15z"/><path fill="#c6a082" d="M206 30h42l-27 42z"/><path fill="#94baf7" d="M0 165h69v5H0z"/><path fill="#51322a" d="M67.8 142.3l8.1-8.1 45.3 3.7-40.7 12.7z"/><circle r="1" fill="#344660" transform="matrix(7.67548 -19.88657 16.23181 6.26488 253 141.3)"/><path fill="#fcfbf4" d="M84 60l-9-44 31 37z"/><path fill="#9f7d64" d="M66.6 165.6l-35.5-5.7 6.3-39.5 35.5 5.7z"/><path fill="#2c2d32" d="M181 144l-29-8-3 24z"/><path fill="#a48f7d" d="M57 42h23v40H57z"/><path fill="#584800" d="M101.5 104.7L89.2 88.9l17.3-13.6 12.3 15.8z"/><path fill="#a37e6b" d="M146 99l87 42-93-15z"/><path fill="#9c7552" d="M85.5 10.7l37.1 53.7L87 25 56.3 10.3z"/><path fill="#cfddd6" d="M125.2 45.3l21.4 46.8.4-70.1-21.7 16.4z"/><circle r="1" fill="#5a4b3a" transform="matrix(10.40569 8.45647 -12.01147 14.78011 60.2 105.9)"/><path fill="#f1ede2" d="M36.6 63.2L6 50.7 25.5 40l18.7 38.6z"/><path fill="#fffffc" d="M78 16L50 26l36-2z"/><path fill="#cbcccb" d="M119 52h3v82h-3z"/><path fill="#fff" d="M23 22l-36-6 11 21z"/><path fill="#c09e8e" d="M82 163l49-18-78 5z"/><path fill="#9ac0f3" d="M16 141h10v26H16z"/><circle r="1" fill="#87a0bf" transform="rotate(-36.2 280.8 -326.6) scale(30.08325 16.21598)"/><circle r="1" fill="#282e38" transform="matrix(-2.11624 1.47083 -14.38171 -20.69257 215.5 160.5)"/><path fill="#454145" d="M246 31L200-7l48-9z"/><path fill="#b08872" d="M246.1 127.6L223.3 142l-69-16.9 51 2.4z"/><circle r="1" fill="#8a867d" transform="matrix(10.1726 8.35993 -20.80074 25.31093 13.1 83.5)"/><path fill="#d1d9dd" d="M202.6 104.8L232 45.4 212.3 113l-29.5 3.4z"/><path fill="#534b3a" d="M80 57l-3-22-42-7z"/><path fill="#7b6d5c" d="M111.3 37.2l-.8-25.5-64.3 12.9L122 3z"/><ellipse cx="13" cy="76" fill="#ebddc7" rx="28" ry="2"/><path fill="#160e07" d="M15 102.2l33.4 16.5-13.7.6 6.4 15.2z"/><path fill="#35231c" d="M121.8 185l-9.6-25.8-30.1 6.9-30.6-6.2z"/><path fill="#785d3f" d="M241 59l7-17-31 10z"/><path fill="#b69585" d="M75.1 109.6l-7.9 2 .6 25.3 34.5-4.1z"/><path fill="#817e86" d="M85 107h28v12H85z"/><path fill="#d3d6d2" d="M37 0h70v9H37z"/><path fill="#a0a1a4" d="M88 79.6l-29-17 17.1 40.3 38-30.9z"/><path fill="#8397a8" d="M246.6 174.3l-63.5-37.1-29.2 1.4.4-10.7z"/><path fill="#3f4a5b" d="M87 98h6v29h-6z"/><circle r="1" fill="#272e24" transform="matrix(9.56504 2.72654 -.80663 2.82974 83.1 73)"/><circle r="1" fill="#d3dade" transform="matrix(-.9997 .02443 -1.31815 -53.93542 119.4 64.5)"/><path fill="#6a5444" d="M212.1 124l22.7 3.8-23.6-13.4-48.4 3.3z"/><ellipse cx="50" cy="32" fill="#2e2a1f" rx="11" ry="7"/><ellipse cx="198" cy="82" fill="#b2b9bc" rx="6" ry="34"/><ellipse cx="183" cy="65" fill="#ebeded" rx="6" ry="50"/><path fill="#26331f" d="M111.2 82.9l-10.5-8.7 16.7 60.4-4.5-96.9z"/><path fill="#e3e1d9" d="M126 18.7l5.3-34.7-96.2 7.3 104.1 20.9z"/><path fill="#352a21" d="M207.5 13.6l19.6 10-4.6 8.8-19.6-10z"/><path fill="#2f2d2a" d="M232 136h12v17h-12z"/><path fill="#716010" d="M101.9 107.9L87.1 82.2l22.1 4.3 4.9 20.2z"/><path fill="#585950" d="M121 73h9v33h-9z"/><path fill="#5f6970" d="M0 58h29v16H0z"/><path fill="#5f7867" d="M-18.6 150.2l28.7-25 14.5 16.6-28.7 25z"/><path fill="#7b8489" d="M0 7h33v13H0z"/><ellipse cx="141" cy="156" fill="#5a5352" rx="27" ry="6"/><path fill="#97a0a8" d="M57.3 79.5l48 39.7L78.1 71l47.6-31.6z"/><path fill="#d8e9fb" d="M245.9 165.8l2.3-3.3 14 9.7-2.4 3.3z"/><path fill="#9b7f68" d="M110 37L92 15l17 43z"/><path fill="#222018" d="M22.1 94.1l46.2-.6-18.8-14-24 7.3z"/><path fill="#bb9c8c" d="M36 125l29 14-22-21z"/><ellipse cx="50" cy="57" fill="#2f2318" rx="5" ry="7"/><path fill="#11161b" d="M193 159.1l-12.5 12.5-29.3 13.4 31.9-28.1z"/><path fill="#5b554e" d="M190.5 7.1l-.7 18.1 52.7-9.8-32.1-30.9z"/><ellipse cx="77" cy="142" fill="#3d0a00" rx="7" ry="5"/><path fill="#edeceb" d="M205 56h10v54h-10z"/><path fill="#fbf7f0" d="M106.4 32.4l6.1 7.9L95.2 15l17.1-2.3z"/><path fill="#656c70" d="M110 10h6v24h-6z"/><ellipse cx="153" cy="51" fill="#bdc6c6" rx="20" ry="56"/></g></g></svg>