<svg xmlns="http://www.w3.org/2000/svg" viewBox="0 0 1800 1200"><defs/><filter id="a"><feGaussianBlur stdDeviation="12"/></filter><rect width="100%" height="100%" fill="#454828"/><g filter="url(#a)"><g fill-opacity=".5" transform="translate(3.5 3.5) scale(7.03125)"><circle r="1" fill="#658d9a" transform="matrix(-254.90058 -7.12002 1.32264 -47.35132 145 143.4)"/><circle r="1" fill="#16180f" transform="matrix(-58.93392 56.89436 -34.35748 -35.58913 101.2 47.6)"/><circle r="1" fill="#b0b27c" transform="matrix(-.41168 6.93461 -81.74029 -4.85262 189.2 105.8)"/><circle r="1" fill="#080e0a" transform="matrix(21.51644 20.40986 -25.90034 27.3046 241 66.3)"/><path fill="#fce7b7" d="M0 99h73v4H0z"/><path fill="#7d6d54" d="M136.4 116.7L120 94.1l39.6-28.8L176 87.9z"/><circle r="1" fill="#d6e1d2" transform="matrix(-.1996 3.48533 -16.58722 -.94988 166.9 109.6)"/><path fill="#8e9880" d="M-6.7 111.8l4.1-23.6 45.3 8-4.1 23.6z"/><ellipse cx="153" cy="31" fill="#181e0f" rx="47" ry="15"/><circle r="1" fill="#515c2d" transform="matrix(-10.0889 19.55587 -87.25968 -45.0174 13 16.6)"/><ellipse cx="203" cy="147" fill="#3e5b58" rx="65" ry="33"/><path fill="#24180e" d="M73.1 111.5l-9.4.7 12.7-12.9 80.8 13.8z"/><path fill="#788037" d="M243 12l-39 44 31-65z"/><path fill="#1e1f18" d="M185 61h71v32h-71z"/><path fill="#0e0400" d="M40 112l27-1-20-12z"/><path fill="#0c190a" d="M-10 27l51 42-55-22z"/><ellipse cx="155" cy="82" fill="#9a8b6b" rx="15" ry="6"/><path fill="#5c5036" d="M118 94h94v7h-94z"/><path fill="#131b0f" d="M164 7L52 12l32 23z"/><path fill="#251c11" d="M153 111l-13-10-6 8z"/><path fill="#13190d" d="M242.5 6l21.9-1.9 3.1 35.9-21.9 1.9z"/><circle r="1" fill="#5a602b" transform="matrix(-15.68597 -9.03064 11.63366 -20.20733 182 4.1)"/><circle r="1" fill="#646a36" transform="matrix(-10.37142 -2.49374 10.36589 -43.1115 34.2 16.6)"/><path fill="#786342" d="M0 94h72v6H0z"/><ellipse cx="62" cy="138" fill="#4f6b6d" rx="152" ry="26"/><circle r="1" fill="#414327" transform="matrix(-12.38435 -1.30165 4.93668 -46.96939 67.8 42.2)"/><path fill="#1d1f17" d="M47 95l-30-1 51-68z"/><path fill="#394e40" d="M143 156h85v14h-85z"/><path fill="#616d28" d="M82 47h44v7H82z"/><circle r="1" fill="#141911" transform="matrix(-38.85431 78.61573 -7.90006 -3.90445 149 14.7)"/><ellipse cx="247" cy="102" fill="#bcb287" rx="121" ry="2"/><path fill="#b9b58e" d="M66.5 100l-35.4 1.8 23.4-6.1 15.3 13.5z"/><path fill="#1a1a15" d="M126 67L68 54l28 43z"/><path fill="#595a2c" d="M184 41h41v23h-41z"/><path fill="#71743d" d="M59 55h10v16H59z"/><path fill="#646930" d="M185.1 54.2l61.5-37.8.6 1.6-33.3-10z"/><path fill="#f1ece2" d="M154 110h28v3h-28z"/><ellipse cx="156" cy="107" fill="#4e724c" rx="12" ry="2"/><path fill="#272620" d="M139 93l13 5-5-16z"/><path fill="#ccbc99" d="M5.3 101.5l28.6-.3L13 90.3l6.4 12.4z"/><path fill="#5a7a82" d="M67 185l85-24-67-6z"/><path fill="#988e94" d="M164 65l4 6 8-3z"/><path fill="#858166" d="M148 84h35v6h-35z"/><ellipse cx="7" cy="34" fill="#7a8a36" rx="14" ry="4"/><path fill="#a9c6c8" d="M0 111h29v2H0z"/><path fill="#868155" d="M37.4 14l-14.3 2.5L51.7-6.7l-27 12.9z"/><path fill="#5f6f2f" d="M105 1h10v10h-10z"/><path fill="#47453a" d="M189 93h54v9h-54z"/><path fill="#28281f" d="M197.1 71.5l2.5 23.2-25.5-16.6-73.3-1.8z"/><path fill="#2a2d19" d="M144.8 29l66.3-11.7L154.5 63l-17.6-22.5z"/><circle r="1" fill="#111413" transform="matrix(1.11895 -13.79425 20.27353 1.64454 247.1 85)"/><path fill="#7d8a38" d="M18 63l-34-11v14z"/><path fill="#587574" d="M24 117l93 23-133 14z"/><ellipse cx="144" cy="128" fill="#41594b" rx="42" ry="5"/><path fill="#393919" d="M-6.3 92.9l-9.7 30 31-70.2-3.2 40z"/><path fill="#32351e" d="M202.6 89.1l-8-30 30.8-8.2 8 30z"/><ellipse cx="3" cy="165" fill="#213723" rx="11" ry="3"/><path fill="#2f361c" d="M19.3 19.3L148 55.4 45.7 23 8.3 4.3z"/><path fill="#96a178" d="M127.3 110.8l-17.9-11.7 32.3 3.6-11.8 5.1z"/><path fill="#74773d" d="M179.6 8.7L227.3-16 162.4 4.2l13.6 5z"/><path fill="#202119" d="M66.7 107.9l13.9-8.5 33.7 11.1-21.2 3.6z"/><path fill="#474d22" d="M180 9l-5 47 25-55z"/><path fill="#587475" d="M141 155.7l130-5.9-44.7-6.9-104.8 11.9z"/><ellipse cx="226" cy="110" fill="#709883" rx="47" ry="4"/><path fill="#928662" d="M136 92l9-15-28 23z"/><path fill="#6d7630" d="M103.8 58.7l-2.7-2.8 15-14.6L119 44z"/><path fill="#a7bd92" d="M58 101h12v4H58z"/><path fill="#495f55" d="M132 157l-51-16-48 16z"/><path fill="#594c32" d="M122.5 107.7l-1.8.3L103 95.4l-30.9 2.1z"/><path fill="#adb085" d="M148 100h40v5h-40z"/><path fill="#58622e" d="M77.6 6.8L96-9.3 60.2 14.8l17.4-2.6z"/><circle r="1" fill="#171e0f" transform="matrix(-25.05966 44.07425 -4.09268 -2.327 117.1 16.7)"/><path fill="#676c33" d="M193.5 12.7L230.9-16 200.3 4.9l42.3 12.8z"/><path fill="#52592e" d="M63.1 35.2l-41.7 19L69.7 24l10.5-1.7z"/><path fill="#e7e9db" d="M213 107h8v2h-8z"/><path fill="#2e311a" d="M271 26l-48.4 10.2-8.2 30.6L154.9 91z"/><path fill="#667032" d="M-16 63.3l9.8-.1 29.1 17.5-3.4 2.6z"/><ellipse cx="19" cy="101" fill="#eae9dc" rx="13" ry="1"/><path fill="#848e37" d="M41.4 29.3L30 46.9l-3.4-2.2L38 27.1z"/><path fill="#3b715c" d="M-15 107l53.9-3 .1 3-53.9 3z"/><path fill="#212613" d="M186.3 34.1l26.3 6.4-20.9-14.8 28.8-19.1z"/><path fill="#8c8463" d="M161 88l10.3 13.2-6.8-27.1-17.6 18.7z"/><path fill="#212715" d="M54.8 34.7L41.2 24.3l7.8 3 51.2-22.5z"/><path fill="#597474" d="M46 140h98v10H46z"/><path fill="#262d1a" d="M40 43h41v9H40z"/><path fill="#2c3918" d="M-9.6 30.7l33.1-15.5-9.7 19.5L-16 .8z"/><path fill="#384b39" d="M248.6 165.5l10.2-2.1 9.1 11-78-6.2z"/><path fill="#1e290f" d="M23.7 65.1L25 72l-14.7 2.9L9 68z"/><path fill="#8c8b4f" d="M30 6l8 6-22-4z"/><path fill="#323f1b" d="M29 27l2 10L7 47z"/><path fill="#788246" d="M.7 5.8L-7.1-9.3 45.7 3l18.5-19z"/><path fill="#0f180d" d="M33 57h21v14H33z"/><path fill="#abbb7f" d="M192 103h64v2h-64z"/><path fill="#3f3929" d="M131.3 99.7l19.8-15.8-14 1.2 9.9 10.7z"/><path fill="#433c2e" d="M143.2 62.8L99 107.2 165.8 63l7.5-4.4z"/><path fill="#2f2d1e" d="M85.8 92.5l8.4-44.2-35.4 48.6 8.1 2.8z"/><path fill="#73832a" d="M23 42h5v19h-5z"/><path fill="#16140b" d="M39.1 110.1l2.5-5.5 7.3 3.3-2.5 5.5z"/><circle cx="14" cy="5" r="4" fill="#111f0d"/><path fill="#fffffd" d="M178.2 108.1l-.5 3-6-1.2.6-3z"/></g></g></svg>