<svg xmlns="http://www.w3.org/2000/svg" viewBox="0 0 1200 1800"><defs/><filter id="prefix__a"><feGaussianBlur stdDeviation="12"/></filter><rect width="100%" height="100%" fill="#483528"/><g filter="url(#prefix__a)"><g transform="translate(3.5 3.5) scale(7.03125)"><circle r="1" fill="#dfc5b7" fill-opacity=".5" transform="matrix(67.33379 47.3191 -97.17054 138.27106 75 40.3)"/><circle r="1" fill="#fff" fill-opacity=".5" transform="rotate(111.5 76 53.7) scale(48.77908 63.09036)"/><ellipse cx="136" cy="162" fill="#835a40" fill-opacity=".5" rx="160" ry="105"/><circle r="1" fill="#eccc9a" fill-opacity=".5" transform="matrix(125.44564 5.47707 -.43092 9.8698 164.2 229.2)"/><circle r="1" fill="#ebffff" fill-opacity=".5" transform="matrix(45.3863 25.44495 -14.78862 26.37854 141.1 14.6)"/><circle r="1" fill="#763625" fill-opacity=".5" transform="rotate(-154 58.7 53.8) scale(42.69017 71.95543)"/><circle r="1" fill="#171810" fill-opacity=".5" transform="matrix(-3.95132 -75.39571 12.21628 -.64023 153.4 137.6)"/><path fill="#130c06" fill-opacity=".5" d="M45 0h35v20H45z"/><path fill="#bad3dc" fill-opacity=".5" d="M158 62l13 84 14-80z"/><path fill="#c2bbb5" fill-opacity=".5" d="M11 0h34v55H11z"/><path fill="#c69d77" fill-opacity=".5" d="M70 238.3l-11-1.4 13-105.2 11 1.4z"/><path fill="#8bb1eb" fill-opacity=".5" d="M103 44h40v19h-40z"/><circle cx="103" cy="110" r="15" fill="#c9a285" fill-opacity=".5"/><path fill="#56513a" fill-opacity=".5" d="M40 65l123-7-29 54z"/><circle r="1" fill="#8a8988" fill-opacity=".5" transform="matrix(-2.45682 38.64462 -26.65487 -1.69458 154 243.5)"/><path fill="#a68972" fill-opacity=".5" d="M102 200l-12-15 55-17z"/><ellipse cx="54" cy="103" fill="#864b23" fill-opacity=".5" rx="11" ry="90"/><path fill="#a7b1bf" fill-opacity=".5" d="M63 57l3-45 34 39z"/><path fill="#691415" fill-opacity=".5" d="M86 184l69-33-77-41z"/><ellipse cx="14" cy="79" fill="#a49277" fill-opacity=".5" rx="27" ry="73"/><circle r="1" fill="#837051" fill-opacity=".5" transform="rotate(-95.6 94.3 79.5) scale(21.6051 30.61991)"/><path fill="#415b73" fill-opacity=".5" d="M116.6 29.5l-2.8-5.9-10.6 25.2-31.9-28.2z"/><path fill="#93a8b0" fill-opacity=".5" d="M169 196l16-25-19-46z"/><path fill="#e4f3ff" fill-opacity=".5" d="M90 25.3L185 15l-82.5-31-14 36z"/><path fill="#eac094" fill-opacity=".5" d="M125 221h45v11h-45z"/><path fill-opacity=".5" d="M85 204h27v8H85z"/><path fill="#663b0b" fill-opacity=".5" d="M74.5 71.3l-5.9-1 4.9-27.6 5.9 1z"/><path fill="#27270c" fill-opacity=".5" d="M112 146h53v23h-53z"/><path fill="#77171e" fill-opacity=".5" d="M46.4 163.5l9.2-65.9 15.9 44.5-5.8 40.4z"/><path fill="#caa688" fill-opacity=".5" d="M70 138h12v34H70z"/><path fill="#ca2334" fill-opacity=".5" d="M92 147l-26-22 22-11z"/><path fill="#636a7a" fill-opacity=".5" d="M147.4 76.3l27.2-17.9-9.5-8.2h-35z"/><ellipse cx="48" cy="238" fill="#564430" fill-opacity=".5" rx="103" ry="11"/><path fill="#5c4e23" fill-opacity=".5" d="M43.7 160.8l44.8-64.3L67.8 80 50 102z"/><ellipse cx="75" cy="214" fill="#765b38" fill-opacity=".5" rx="69" ry="4"/><circle cx="55" cy="200" r="9" fill="#191304" fill-opacity=".5"/><path fill="#3d3427" fill-opacity=".5" d="M107 101l24-39-31 4z"/><path fill="#201d1a" fill-opacity=".5" d="M64.8 20.7l.7-.6 47.7 51.2-.7.6z"/><path fill="#f94359" fill-opacity=".5" d="M61 135l8 6-21 22z"/><path fill="#748090" fill-opacity=".5" d="M55.7-16l43.2 28.1 9.9 20.5L74.5 6.5z"/><path fill="#b68669" fill-opacity=".5" d="M63.7 190.7l-18.6-7.3-.4-22.2 10.4 13.9z"/><path fill="#5d595b" fill-opacity=".5" d="M169.6 275l-58.8-5.1 3.6-40.9 58.8 5.1z"/><ellipse cx="155" cy="194" fill="#4b463f" fill-opacity=".5" rx="33" ry="15"/><circle r="1" fill="#14160f" fill-opacity=".5" transform="matrix(-24.84276 14.85108 -2.04597 -3.42249 26.5 248.4)"/><circle r="1" fill="#8c6c46" fill-opacity=".5" transform="matrix(-.4007 17.95654 -29.32799 -.65447 71.4 74)"/><path fill="#d3ac8e" fill-opacity=".5" d="M92 114l15-9-9-19z"/><path fill="#546472" fill-opacity=".5" d="M110.2 93.3L96.6 22.7l35.7 22.7L95.1 40z"/><circle r="1" fill="#d8e7f8" fill-opacity=".5" transform="matrix(-30.4199 8.20792 -7.11946 -26.38588 149.1 22.2)"/><circle r="1" fill="#715a38" fill-opacity=".5" transform="rotate(-1.9 6519 -320.6) scale(33.28626 19.3699)"/><path fill="#cac4ca" fill-opacity=".5" d="M63.8 31.3l-1.2 11.5 19.8-1.4-16.1-16.8z"/><path fill="#2e2f31" fill-opacity=".5" d="M73 15l6 10 14-36z"/><path fill="#634c2e" fill-opacity=".5" d="M145.4 76.1l-1.3 77-48.3-44.7 28.7 5.6z"/><path fill="#876a56" fill-opacity=".5" d="M106 200.5l36.7-23-5.6-13.4-57.9 29z"/><path fill="#1e1001" fill-opacity=".5" d="M144.5 81.5h7v105h-7z"/><path fill="#510515" fill-opacity=".5" d="M95.5 184.5l-19.6 7 6.2-24.8 19.4-8.7z"/><path fill="#94242c" fill-opacity=".5" d="M88.7 160.7L74 127.1l49.9 4.6-6.8 17.6z"/><path fill="#d2e0f9" fill-opacity=".5" d="M43 0h2v51h-2z"/><ellipse cx="125" cy="224" fill="#cfa676" fill-opacity=".5" rx="82" ry="5"/><path fill="#2b1500" fill-opacity=".5" d="M52-16l27 27-32-5z"/><path fill="#a3b8ca" fill-opacity=".5" d="M96 34l-7-13 11-15z"/><path fill="#a58462" fill-opacity=".5" d="M92 128.9l11.2 13.8-1.6-14 22.7-18.6z"/><path fill="#b6a8a3" fill-opacity=".5" d="M27 0h14v64H27z"/><path fill="#4b361c" fill-opacity=".5" d="M120.3 131.1l25.3-14.3-.1 36.2 5.3 44.9z"/><circle cx="136" cy="59" r="5" fill="#a899e0" fill-opacity=".5"/><path fill="#98b0c7" fill-opacity=".5" d="M106.3 41l23.2 8.8-24.9 15.1-1.7-2.7z"/><path fill="#eabd9b" fill-opacity=".5" d="M116 107h5v8h-5z"/><path fill="#eff4f9" fill-opacity=".5" d="M127 23l58-23-98-2z"/><path fill="#50371d" fill-opacity=".5" d="M77.6 48l.8 46h-4l-.8-46z"/><path fill="#4b3f2f" fill-opacity=".5" d="M127.9 99l-20.4-40.6 12.4 2.6-28.2 26.2z"/><path fill="#917757" fill-opacity=".5" d="M77 124l4-31 13-8z"/><ellipse cx="51" cy="49" fill="#a58057" fill-opacity=".5" rx="5" ry="30"/><path fill="#6d5136" fill-opacity=".5" d="M83 228l-10 32-39-36z"/><path fill="#483b2e" fill-opacity=".5" d="M160.7 174.1l-47.8 22-8.5 19.6 65.4-18.8z"/><path fill="#251916" fill-opacity=".5" d="M155 81.2l-13.5.9-1.4-8.8-9.2-10.1z"/><path fill="#5c5c5d" fill-opacity=".5" d="M152 98h3v53h-3z"/><path fill="#9d897d" fill-opacity=".5" d="M2.5-11.8L30 .4 3.5 59.8-24 47.6z"/><path fill="#291d1d" fill-opacity=".5" d="M110 63h25v7h-25z"/><path fill="#896746" fill-opacity=".5" d="M110 71h30v11h-30z"/><path fill="#313022" fill-opacity=".5" d="M129.2 163.1l-43.1 24.1-14.2 19.9 5.3-19z"/><path fill="#b8ceea" fill-opacity=".5" d="M95.5 51.8L71 21.5l1.5-1.3L97 50.5z"/><path fill="#9eb2c4" fill-opacity=".5" d="M136 27l-20 9-10-8z"/><path fill="#8b878c" fill-opacity=".5" d="M85.7-2.4l-20-.8L90 20.4 77.2-3.1z"/><path fill="#6d001a" fill-opacity=".5" d="M65 149l-16 18 14 9z"/><path fill="#210f05" fill-opacity=".5" d="M155 140h9v39h-9z"/><circle cx="12" cy="166" r="31" fill="#7e6b52" fill-opacity=".5"/><path fill="#444027" fill-opacity=".5" d="M82 107h8v11h-8z"/><path fill="#515053" fill-opacity=".5" d="M109 38l-9 11-23-29z"/><path fill="#5d5958" fill-opacity=".5" d="M141 53h29v11h-29z"/><path fill="#e1c5ac" fill-opacity=".5" d="M71 133h5v11h-5z"/><path fill="#927c62" fill-opacity=".5" d="M43.8 152L9 164.6-21.8 80 13 67.4z"/><path fill="#9b948f" fill-opacity=".5" d="M84 189h6l-11 13z"/><path fill="#ae9f98" fill-opacity=".5" d="M103.3 188l3.9 9.2-6.5 2.8-3.9-9.2z"/><path fill="#0e0e05" fill-opacity=".5" d="M99.2 199.7l-11.6 9.7 28.6 3-28.2-9.6z"/><path fill="#675940" fill-opacity=".5" d="M91 195l21-47-2 31z"/><circle r="1" fill="#8e7968" fill-opacity=".5" transform="matrix(22.34685 -.83707 .17568 4.69 137.6 215.3)"/><path fill="none" stroke="#bdc7c9" stroke-opacity=".5" stroke-width=".5" d="M173 50.5q-55.9 12-76-44.6"/><path fill="#cb9a82" fill-opacity=".5" d="M95 99l21 1-24 16z"/><path fill="#a7a6a1" fill-opacity=".5" d="M180.7 90l-13 5-10.4-27 13-5z"/><path fill="#2e271d" fill-opacity=".5" d="M129.4 96.4l-21.3-10.5-6.9-11.3L124 88.3z"/><path fill="#33485c" fill-opacity=".5" d="M94 48l10.7 31-3.1-20.4 6.6 13.6z"/></g></g></svg>