<svg xmlns="http://www.w3.org/2000/svg" viewBox="0 0 1200 1800"><defs/><filter id="a"><feGaussianBlur stdDeviation="12"/></filter><rect width="100%" height="100%" fill="#494433"/><g filter="url(#a)"><g fill-opacity=".5" transform="translate(3.5 3.5) scale(7.03125)"><circle cx="111" cy="64" r="168" fill="#eae1c2"/><circle r="1" fill="#fffad5" transform="matrix(-2.77368 51.90662 -168.75923 -9.01782 104.8 24)"/><circle r="1" fill="#5e5d4c" transform="rotate(.8 -11013.1 6686) scale(169 79.2455)"/><ellipse cx="128" cy="137" fill="#374745" rx="169" ry="8"/><path fill="#312c26" d="M51 128h11v97H51z"/><path fill="#988b6b" d="M0 168h46v61H0z"/><circle r="1" fill="#ebdec9" transform="rotate(11.1 -2.8 597.6) scale(145.97286 26.85962)"/><ellipse cx="55" cy="67" fill="#c5a985" rx="169" ry="18"/><circle r="1" fill="#a2a18a" transform="matrix(-.04547 9.67634 -122.79547 -.57699 131.9 118)"/><ellipse cx="146" cy="203" fill="#8e805f" rx="85" ry="33"/><ellipse cx="21" cy="163" fill="#1e1a10" rx="58" ry="3"/><path fill="#4e5453" d="M2 85h114v9H2z"/><path fill="#79735f" d="M31.9 197.1l94.6-30.9L-16 123.4l93 16.7z"/><path fill="#3a3930" d="M56 236l-16-33h33z"/><ellipse cx="145" cy="168" fill="#3b372c" rx="20" ry="3"/><circle r="1" fill="#39372a" transform="matrix(-.5184 21.21175 -115.11023 -2.81323 71.9 255)"/><circle r="1" fill="#e0caa3" transform="matrix(-90.16156 -17.689 2.67622 -13.64078 119.3 44)"/><ellipse cx="145" cy="154" fill="#9c9577" rx="34" ry="8"/><path fill="#41473f" d="M108.9 80.6l2.8 19.3-20-9.1 42-7.5z"/><path fill="#b6a688" d="M-12 65l120.6 24 9.2-61.3L102.7 62z"/><path fill="#918464" d="M-4.5 164.7l79.1 4.9 71.3.1-161.9 43z"/><path fill="#373d33" d="M124 133h46v10h-46z"/><path fill="#484435" d="M27 164h95v4H27z"/><circle r="1" fill="#636c64" transform="rotate(97.6 -47.2 84.7) scale(13.96361 35.7324)"/><path fill="#716b55" d="M60 218h83v14H60z"/><path fill="#a39d81" d="M179.6 106.6l5.4 23-34.5 3.5-33.1-16.2z"/><path fill="#c5b08f" d="M127 70h43v15h-43z"/><path fill="#292217" d="M59 156h2v68h-2z"/><circle cx="157" cy="210" r="23" fill="#908465"/><circle r="1" fill="#697069" transform="matrix(-.49811 10.13756 -91.16447 -4.47942 24.9 96.7)"/><ellipse cx="35" cy="8" fill="#d0cab7" rx="49" ry="25"/><path fill="#4f514a" d="M90 86h80v2H90z"/><path fill="#9a8c6b" d="M69.7 169.7l28.6 5.8-27.4 35.9-8.5-24.3z"/><circle r="1" fill="#716b56" transform="rotate(176 58 97.3) scale(31.13796 8.47122)"/><circle r="1" fill="#e7dfc8" transform="matrix(61.94038 9.47821 -4.60183 30.07312 168.8 0)"/><path fill="#7b7e72" d="M108 89h62v22h-62z"/><ellipse cx="51" cy="178" fill="#473824" rx="2" ry="18"/><path fill="#494743" d="M29.1 161.4l48.4-.1-21.4-23 13.5 20.6z"/><path fill="#2b2d27" d="M63 211l-13 14 3-33z"/><circle r="1" fill="#cab794" transform="matrix(.55022 -15.46173 84.76246 3.01634 22 56.4)"/><path fill="#a5977b" d="M96.6 78.9l12.9 7.9 6.6-15.5-3.6-18z"/><path fill="#887f65" d="M0 165h51v46H0z"/><path fill="#2c312b" d="M16 166.6L59.4 155l5.7-4.1-10.2 12.8z"/><path fill="#10130d" d="M94 89h12v5H94z"/><path fill="#7e806d" d="M156.6 128.4l-.5 6-124.7-8.8.5-6z"/><path fill="#464d44" d="M112 81h15v6h-15z"/><path fill="#6b6755" d="M45 200.8l-48.9 26.3 60.2 6.5-10.2-15.9z"/><circle r="1" fill="#423f31" transform="matrix(117.97935 5.15109 -.04362 .99905 131.7 167.7)"/><circle r="1" fill="#808576" transform="rotate(177 10 56.8) scale(90.20956 5.28941)"/><path fill="#7f7e7c" d="M74.4 165.2l-13.6-30.7-10.7 5.3 18.7 6z"/><circle r="1" fill="#9f9885" transform="matrix(-.10628 3.20388 -28.63076 -.94978 50.9 82.8)"/><path fill="#887e61" d="M185 165.3l-34.5 73.8-90.4-44.9 6.3 27z"/><ellipse cx="91" cy="158" fill="#50554e" rx="16" ry="3"/><circle cx="58" cy="130" r="4" fill="#201603"/><path fill="#7f7e6a" d="M6.9 142.1L54 162.7l-17.8-5.6 10.1-15.6z"/><ellipse cx="56" cy="179" fill="#978a6a" rx="4" ry="13"/><ellipse cx="42" cy="127" fill="#888a76" rx="89" ry="2"/><circle r="1" fill="#585850" transform="matrix(35.4196 -.35821 .02033 2.01005 3.8 88)"/><path fill="#938b75" d="M109.6 105.9l4.2-75.3-1-1.6-2.5 45.5z"/><circle r="1" fill="#4b4031" transform="matrix(.71413 .70002 -6.40183 6.53088 43.5 150.4)"/><path fill="#89877a" d="M81 162h53v3H81z"/><path fill="#403e34" d="M39.7 201.7L56.5 240l3.1-18.4-4.2-1.4z"/><ellipse cx="22" cy="130" fill="#3a4b47" rx="30" ry="1"/><ellipse cx="91" cy="150" fill="#908e76" rx="24" ry="3"/><circle r="1" fill="#2c3240" transform="matrix(-1.47876 3.9924 -2.99967 -1.11106 61.8 148.6)"/><path fill="#1e1e12" d="M0 163h52v2H0z"/><path fill="#646250" d="M153 241.4l-98.1-15.7 125.7 7.7-43.9 6.7z"/><path fill="#8a8573" d="M151.3 164.6l33.7 15.8-40.6-4 40.6-13.5z"/><path fill="#4e5448" d="M154 128l-57 6 30 6z"/><path fill="#6f7467" d="M60 142l22 7 14-12z"/><path fill="#7d7861" d="M-16 210l44-11 22 26z"/><path fill="#444335" d="M101 93h30v2h-30z"/><path fill="#392b1a" d="M48.3 177l1-.3 4.4 16.4-1 .2z"/><path fill="#818071" d="M34 94h77v5H34z"/><path fill="#af9e81" d="M120.6 88.2l3.8-16.6 1 .2-3.8 16.6z"/><ellipse cx="12" cy="68" fill="#b8a98c" rx="60" ry="10"/><path fill="#e5d4b0" d="M114 41l5.3-27.4L188 26.9l-5.3 27.5z"/><path fill="#908874" d="M185 92.2l-32.2 36.1 21.3-29.2-76.5-11.4z"/><path fill="#051315" d="M54 162.4l-2-3.5 6-3.3 2 3.5z"/><path fill="#4c4839" d="M71.5 200.9L37.7 271l21.7-48.3 8.9-22.4z"/><path fill="#6f7162" d="M29 156.8l-19.6 7.8-25.4-9 20.2-17.9z"/><path fill="#9e987e" d="M90.6 122.9l94.3-12.7L76 117l-16.9 1.5z"/><path fill="#948766" d="M179.6 213.1l-50.9 5.2L84 194.5l-23.4 7.4z"/><circle cx="57" cy="131" r="4" fill="#120c00"/><path fill="#4d3c28" d="M62.9 197.4l-2 .1-1.8-51h2z"/><path fill="#717065" d="M132 85h38v5h-38z"/><circle r="1" fill="#464433" transform="matrix(-11.26165 14.91205 -24.4221 -18.44369 20.7 250)"/><path fill="#b9a789" d="M185 86.9l-36.9-5.1-162.5-12 138.6-.9z"/><path fill="#7c816e" d="M13.4 137l-.2-1 39.4-7 .2 1z"/><path fill="#807e6b" d="M59.4 125l9.3-6.7 15.2-41.1L61 136z"/><path fill="#d5c3a0" d="M102.1 42.4l-118.1-8 72.8 19.7 47.4 2.8z"/><path fill="#363f35" d="M143 135l23 7 18-13z"/><path fill="#938869" d="M48 207l-27-37 27-2z"/><path fill="#6c6755" d="M103 183l13 10 33-15z"/><ellipse cx="11" cy="123" fill="#6c7165" rx="67" ry="2"/><ellipse cx="106" cy="102" fill="#696f64" rx="123" ry="3"/><path fill="#7a745c" d="M63.8 228.1l4-17.6 45.9 6.7-46.4 13.1z"/><path fill="#5d6155" d="M112.8 145.7l.4-10 18 .6-.4 10z"/><path fill="#727266" d="M42 152l9 6-21 3z"/><path fill="#dad5c2" d="M134 22L51 4l88-20z"/></g></g></svg>