<svg xmlns="http://www.w3.org/2000/svg" viewBox="0 0 1800 1800"><defs/><filter id="a"><feGaussianBlur stdDeviation="12"/></filter><rect width="100%" height="100%" fill="#544537"/><g filter="url(#a)"><g fill-opacity=".5" transform="translate(3.5 3.5) scale(7.03125)"><circle r="1" fill="#f3cdb2" transform="rotate(-151.6 124.8 49.8) scale(111.08391 25.53748)"/><ellipse cx="216" cy="27" fill="#fff7de" rx="13" ry="118"/><ellipse cy="175" fill="#e6d9c7" rx="90" ry="28"/><circle r="1" fill="#bcbcb6" transform="matrix(123.12904 15.55482 -3.13998 24.85554 35.4 21.2)"/><path fill="#b79c8a" d="M91 232l74-28-10-174z"/><circle r="1" fill="#f3d0bf" transform="rotate(-14 221.6 -410.4) scale(6.35265 65.20802)"/><ellipse cx="209" cy="137" fill="#c9a997" rx="31" ry="42"/><circle r="1" fill="#dcae8a" transform="matrix(-41.42953 13.69267 -3.59907 -10.88961 98.1 169)"/><ellipse cx="176" cy="241" fill="#301500" rx="70" ry="30"/><path fill="#070000" d="M101.5-16h142.4L108 27.2l1.4 1.5z"/><circle r="1" fill="#48473d" transform="matrix(8.5152 24.84063 -56.93094 19.51554 134.8 121.2)"/><circle cx="60" cy="133" r="35" fill="#2e2216"/><circle r="1" fill="#0a0f0c" transform="matrix(3.3551 34.52774 -20.70945 2.01236 45.7 232.8)"/><circle r="1" fill="#141a17" transform="matrix(-.25416 -26.48177 35.12832 -.33714 32 74.7)"/><circle r="1" fill="#c99f89" transform="matrix(5.79315 17.3139 -31.81227 10.64424 131.7 203.5)"/><path fill="#aab7b8" d="M0 136h22v73H0z"/><path fill="#ddc5b7" d="M147 21h10v78h-10z"/><circle r="1" fill="#daaa8c" transform="matrix(-7.37565 -71.3727 17.26181 -1.78383 212.4 3)"/><path fill="#a8958d" d="M76 51h16v52H76z"/><path d="M235 138l24 21 12-16z"/><circle r="1" fill="#4b2b08" transform="matrix(-.39738 32.6159 -31.4015 -.38259 211.7 213)"/><circle r="1" fill="#271805" transform="matrix(-5.76243 -1.63091 18.83187 -66.53772 239.7 63.8)"/><path fill="#3c2512" d="M137.1 106.4l7.2-77.3-19.4 12.5-13.8 3.1z"/><circle r="1" fill="#819da5" transform="matrix(-108.74797 57.8497 -9.79587 -18.41463 33.4 14.1)"/><path fill="#301900" d="M135 170l-79 22 36 13z"/><path fill="#b2917b" d="M116 120l48 19-66-89z"/><path fill="#282622" d="M125 173h60v13h-60z"/><path fill="#bb8d68" d="M41 147.6l5 43.8 22.8-19.6-5.5-28z"/><path fill="#e9b185" d="M208.8 174.3L164.2 129 271 189.1l-12.5 15.5z"/><path fill="#acd8fa" d="M227.6 139.6l-6.6-6 15.4-17.2 6.6 6z"/><circle r="1" fill="#e2b89a" transform="matrix(10.26792 -2.14362 3.5032 16.7803 121.3 198.4)"/><path fill="#181a19" d="M101.8 153.7l-22.3 11.8 46.6-15.9-29.3-75.5z"/><path fill="#847967" d="M142 130.5l39.4 17.6-8.3 28.9-56.4-5.6z"/><path fill="#d7a585" d="M102.4-5.1l3.8 23.7L77.6 23 73.8-.6z"/><circle r="1" fill="#8a7b6e" transform="matrix(-22.61586 -28.43204 4.0558 -3.22613 91.1 231.5)"/><circle r="1" fill="#1a130e" transform="rotate(40.8 -267 280.4) scale(38.59867 6.81951)"/><circle r="1" fill="#85614b" transform="rotate(-8.7 310.5 -475) scale(18.81337 25.72385)"/><path fill="#d7c0c8" d="M171 197h13v6h-13z"/><path fill="#ecb896" d="M93 204.8l7 .5-1 14-7-.6z"/><circle r="1" fill="#564732" transform="matrix(2.03124 -1.29404 81.08274 127.2744 54.7 193)"/><path fill="#3b2711" d="M229 0h27v59h-27z"/><circle r="1" fill="#593713" transform="matrix(-43.96662 -61.86705 17.57977 -12.4933 246.3 239.7)"/><ellipse cx="143" cy="54" fill="#906a4f" rx="6" ry="38"/><circle r="1" fill="#0e3741" transform="rotate(-79 .8 -1) scale(24.00707 7.16762)"/><path fill="#15140d" d="M86.8 129l-48 22.4-7.6-16.4 48-22.4z"/><ellipse cx="174" cy="19" fill="#3b2f1f" rx="24" ry="20"/><path fill="#35372b" d="M142.7 173.7l26.6 20.3 2.6-53.2 22.7 44.1z"/><path fill="#676360" d="M60 108L46 67l34 29z"/><path fill="#242019" d="M-7.3 51l77.9 25.8 37.6 17.8-59.1-45z"/><ellipse cx="224" cy="34" fill="#d0c7c7" rx="3" ry="79"/><circle cx="239" cy="101" r="15" fill="#3f2607"/><path fill="#cf9a6c" d="M194-14l24 14-8 82z"/><circle cx="19" cy="182" r="23" fill="#a0aaab"/><path fill="#798fa6" d="M94 125h5v32h-5z"/><path fill="#caa382" d="M96.8 182l40.4-30.4-91.6 25.6 17.9 14.1z"/><path fill="#58513f" d="M178 103l-60 32 90-19z"/><path fill="#b6a897" d="M141 100l19 40-40-40z"/><path fill="#ccac9b" d="M223.7 60.6l1 54.7-11.8-22.5-20.6 10.1z"/><path fill="#3c2d1e" d="M160 56h45v31h-45z"/><path fill="#dfc8be" d="M80 96l-3-17 13 18z"/><circle r="1" fill="#b9adae" transform="rotate(50.1 -43.3 328.2) scale(30.60706 7.00897)"/><path fill="#2a2114" d="M267.1 171.4l3.9 9.2-10.4-51.7-29.3 4.5z"/><path fill="#432b10" d="M52.2 192.6l37.9 16 22.3-10.8-12.6-13.2z"/><circle r="1" fill="#413a29" transform="rotate(170.6 -6.4 121.2) scale(28.10122 38.00695)"/><path fill="#9fb5bc" d="M10.3 46.3L18.8-7l-30.3 47.9-4.5 11.9z"/><path fill="#9f9d92" d="M-12 117L2 218l20-73z"/><path fill="#748181" d="M68 14.1L35.9-16 4.4 45.6l44.5 4.1z"/><path fill="#817573" d="M148.4 201.6l-18.6 4 55.1-12.4-83.1-17z"/><path fill="#d8b59d" d="M171 126h40v20h-40z"/><path fill="#302f2a" d="M15 75l3 53 94-14z"/><path fill="#210" d="M107 6h33v13h-33z"/><circle r="1" fill="#212728" transform="rotate(-112.2 97.7 -1) scale(12.71626 8.33869)"/><path fill="#c1a28e" d="M126.5 92.3L89.1 36.7 73.7-16l25 27.3z"/><path fill="#eabb92" d="M44 167.2l-1.3-14.6 18.5 36.6-10.1-2z"/><path fill="#2a1d0e" d="M214 186.3l-90 79.3-13.3-5.1-.1-25.5z"/><path fill="#3d2919" d="M102.1 68.8l2.5-3-10.9 77.3-32.3 28.2z"/><path fill="#bc9d8f" d="M71 213l18 12 3-8z"/><path fill="#978778" d="M125.8 128.9L157.6 92l25.6 39.7-26.9-24.8z"/><path fill="#4d5046" d="M178 72l19 15-41 70z"/><path fill="#9e8972" d="M131 141l34-9-32 49z"/><circle r="1" fill="#b78768" transform="matrix(-3.02189 -23.4022 4.83168 -.6239 209.5 95.8)"/><circle cx="172" cy="33" r="17" fill="#5d4e3b"/><path fill="#3d525d" d="M218.9 118.8l13 5-2.8 7.4-13-5z"/><path fill="#1e1308" d="M228.2 72.6l42.8 34.5-39.5-19.7L271 15.2z"/><ellipse cx="138" cy="23" fill="#c49d83" rx="14" ry="4"/><circle r="1" fill="#51361b" transform="matrix(-26.94764 -34.14002 25.34643 -20.00662 224.7 223.6)"/><path fill="#321c09" d="M128.9 43.7L116 46.9l19.5 15.4.6-26.1z"/><path fill="#b2988d" d="M86.5 112.8l-1 9-4-.6 1-9z"/><path fill="#4d3e2a" d="M73.9 239.2l-32.5-66-8.4-22 50.2 90.9z"/><path fill="#34342b" d="M155 83l35 24-9 14z"/><path fill="#86664c" d="M68.6 164.8l-22.5-26.6 8.5 37.3 59.2-19.8z"/><path fill="#a28a82" d="M160 187l-23-1 8-8z"/><path fill="#00010b" d="M67 19.6L59.5 15l1.5-2.6 7.7 4.6z"/><path fill="#8ab3cd" d="M229.5 122.6l-2-4.6 11-4.6 2 4.6z"/><path fill="#daccc2" d="M152 41h5v39h-5z"/><circle r="1" fill="#968a86" transform="matrix(-4.1506 2.10895 -5.80536 -11.4255 88.7 72)"/><path fill="#76674d" d="M14.6 106L3 91.6l-19 26.8h37.8z"/><path fill="#c29876" d="M99 225l12-2 1-36z"/><path fill="#c9c3c0" d="M226 30h4v23h-4z"/><path fill="#191711" d="M72 65L35 52l42 34z"/></g></g></svg>