<svg xmlns="http://www.w3.org/2000/svg" viewBox="0 0 1200 1800"><defs/><filter id="a"><feGaussianBlur stdDeviation="12"/></filter><rect width="100%" height="100%" fill="#492530"/><g filter="url(#a)"><g fill-opacity=".5" transform="translate(3.5 3.5) scale(7.03125)"><ellipse cx="138" cy="147" fill="#daedcf" rx="112" ry="165"/><path fill="#160000" d="M62 20l25 171 55-101z"/><circle cx="141" r="62" fill="#fff"/><circle r="1" fill="#efe6cd" transform="matrix(-34.49064 -36.47412 22.74134 -21.50466 37.7 95.5)"/><ellipse cx="160" cy="83" fill="#fff" rx="17" ry="52"/><circle r="1" fill="#6b664e" transform="rotate(-49.4 260.2 53.6) scale(145.57309 31.58034)"/><ellipse cx="65" cy="33" fill="#230009" rx="20" ry="32"/><path fill="#f0f3df" d="M81.8 66.6l11 6.4L6.7 204.6l48-102.2z"/><circle r="1" fill="#c1e3ff" transform="rotate(67.2 -83 201.2) scale(15.31812 32.50883)"/><ellipse cx="128" cy="250" fill="#bcb3b4" rx="139" ry="13"/><path fill="#003035" d="M14.8 104.8l22.4 5.2-16 69.2-22.4-5.2z"/><circle r="1" fill="#fcfff4" transform="matrix(13.39302 -31.8273 51.74928 21.77624 126.4 5.2)"/><circle r="1" fill="#29383a" transform="rotate(110.9 -43.4 118.4) scale(11.80566 67.29623)"/><circle r="1" fill="#121405" transform="matrix(-27.96317 -7.28386 7.22815 -27.74928 108.3 99.3)"/><ellipse cx="169" cy="185" fill="#35342d" rx="13" ry="59"/><path fill="#6a4a12" d="M113 46h27v19h-27z"/><circle r="1" fill="#fdfae7" transform="matrix(-14.08731 -3.40808 6.72319 -27.79033 61.7 125.2)"/><path fill="#a7d9bd" d="M14.8 224.8l.4-18 24 .4-.4 18z"/><circle r="1" fill="#d1b49e" transform="rotate(-98.7 122.8 9.6) scale(6.49669 49.53876)"/><circle r="1" fill="#f9ffff" transform="matrix(-9.31005 -2.90534 12.97196 -41.56816 161.4 94.4)"/><path fill="#ae9687" d="M-10.4 135.7l21.6-90.3L94.7 81 7 115.1z"/><path fill="#30081d" d="M16-16L145 95-16 23z"/><circle r="1" fill="#65472e" transform="rotate(11 -759 909.2) scale(89.55903 16.17623)"/><path fill="#233823" d="M160 81l-2-19-10 9z"/><path fill="#dcebea" d="M172 184l-18 1-13 35z"/><path fill="#08211f" d="M13.1 225.8l67.5 3.4-96.6 11.3 25.7-55.2z"/><circle r="1" fill="#e6e3cd" transform="matrix(0 35.37081 -3.62101 0 66.4 154.8)"/><circle r="1" fill="#0b293a" transform="matrix(9.78892 .99233 -1.6541 16.31685 163.6 215.7)"/><path fill="#533b22" d="M69 208l3-80 18 75z"/><path fill="#d0b182" d="M88 44l39-4 4 38z"/><circle r="1" fill="#fffffd" transform="rotate(149.6 30.4 48.5) scale(6.98669 7.22263)"/><path fill="#b2987a" d="M71 149.6l37.2 56.9 76.8-74-68.7 40.7z"/><circle r="1" fill="#ceedff" transform="matrix(-2.62626 6.08695 -10.36877 -4.4737 161.3 239.7)"/><path fill="#605b40" d="M130 53h16v69h-16z"/><ellipse cx="18" cy="134" fill="#1b333c" rx="15" ry="25"/><path d="M79 153l-9-13 26 4z"/><path fill="#40192a" d="M17.8-12.8L74.1-16l2.8 96.2-9-8.8z"/><circle r="1" fill="#856b5c" transform="rotate(123.8 -14 61.5) scale(9.20957 21.8785)"/><path fill="#2e261c" d="M162.5 161l6.3 9-21.3 15-6.3-9z"/><circle r="1" fill="#507987" transform="matrix(16.53511 -9.38417 3.20286 5.64352 7.7 141.2)"/><circle r="1" fill="#c3c9ae" transform="matrix(-4.25868 8.69305 -64.27755 -31.48925 118.7 8.6)"/><path fill="#461c2e" d="M34 66l54-29-21-53z"/><circle r="1" fill="#517d9e" transform="rotate(99.3 -25.9 171) scale(7.74021 24.5142)"/><path fill="#b4ac8e" d="M31.1 179.1L16 191.2l27-76.1 34.6 53.8z"/><circle r="1" fill="#080700" transform="matrix(-11.67797 10.85057 -6.42878 -6.919 92.3 116.8)"/><circle r="1" fill="#f6fdf9" transform="rotate(89.1 65 102.8) scale(93.07707 9.63142)"/><path fill="#c8a696" d="M15 46h13v24H15z"/><path fill="#c4b6ae" d="M45 271l61-40-122 32z"/><ellipse cx="27" cy="194" fill="#213331" rx="42" ry="8"/><path fill="#edf4ee" d="M71.7 126.7l-37.3-6.4-3 29.9 36.8-50z"/><path fill="#fcfff9" d="M171 39L83 11l6 28z"/><path fill="#876f51" d="M157.5 133.3l-80.8 63.6 87.1-43.8 1.7-34.4z"/><path fill="#f9f4e7" d="M50 183h12v6H50z"/><path fill="#84a8b9" d="M17 165l-32 9-1-10z"/><path fill="#28251d" d="M135 81l-26-20 22 70z"/><circle r="1" fill="#d8e4db" transform="matrix(-7.36384 6.0268 -11.9422 -14.59156 153.8 94.6)"/><path fill="#bbac9e" d="M62 64l-63 48-14-26z"/><path fill="#e2e0cc" d="M145.8 149.8l-2.2-33.9 24.5.1-23.4 31.6z"/><path fill="#1c3526" d="M76-16l6 26 1-21z"/><path fill="#e9ead8" d="M155 192.1l29.9-1.3-5.9 5-29.6-19z"/><path fill="#fff" d="M93.8 73.7l-17.5-4.9 2.6 10.3-2.4 8.8z"/><path fill="#64574c" d="M130.9 218.4H67l-83 36.2 38-4.8z"/><path fill="#fff" d="M123 73l8-5-14-6z"/><path fill="#a58b7f" d="M99 125h33v19H99z"/><ellipse cx="27" cy="219" fill="#8c9b89" rx="19" ry="8"/><path fill="#2e1720" d="M77.5-5L21.6 35.4l-33.3 53.5 9.8-100.7z"/><path fill="#fff" d="M117-3.4l10.5-20.5L181 3.4l-10.5 20.5z"/><path fill="#3d3828" d="M135 43h4v30h-4z"/><path fill="#785a39" d="M63.5 91l27.7-4.6-21.3 16.7 2.6-21.4z"/><path fill="#685f4d" d="M46.4 66.4L19.1 78.5l6.6-13.6L48.2 50z"/><path fill="#5d3f2f" d="M70 37l66.7 13-.6 3-66.8-13z"/><circle r="1" fill="#23576f" transform="matrix(-3.16118 3.76735 -7.42182 -6.22765 169 255)"/><path fill="#8b9bb0" d="M164.8 211.6l-59.3 2.8 5.6 13.2 41.4-10.7z"/><ellipse cx="57" cy="147" fill="#f4e5c6" rx="20" ry="3"/><path fill="#645949" d="M112 103h33v11h-33z"/><path fill="#76615b" d="M102 270l19.6-1.7-19.3-18.9-74.7 12.3z"/><path fill="#111511" d="M42.2 121.8l-58.2-.2 37.9-8.9 10.3 5z"/><circle r="1" fill="#b3cae4" transform="rotate(109.1 -4.5 149.6) scale(12.30009 19.61835)"/><path fill="#00090e" d="M0 148h27v15H0z"/><circle cx="63" cy="115" r="14" fill="#fffef9"/><ellipse cx="10" cy="186" fill="#4e6e8f" rx="14" ry="5"/><path fill="#8d7a79" d="M99.1 225.2l-7.3 3.1 37 26.5 24.2-20z"/><path fill="#424e3d" d="M156.1 78.1l-7.5-13.7 5.4-.3-4.8 15.6z"/><path fill="#ccafa5" d="M27 90l47-7-22-29z"/><path d="M45 232.6l-1.1-2.9 11.2-4.3 1 2.9z"/><path fill="#d3dfd4" d="M142 62h8v23h-8z"/><path fill="#bacdee" d="M92 163h4v13h-4z"/><path fill="#af8e54" d="M85.2 96.6L75.6 126l18.3 15.6-25.1-3.1z"/><circle r="1" fill="#c3a98b" transform="matrix(-3.0256 -4.37464 23.90146 -16.53077 118.4 184)"/><circle r="1" fill="#262519" transform="matrix(24.9079 -8.3192 3.47244 10.39658 104.2 85.2)"/><path fill="#9f8479" d="M22 104l46-17-28 29z"/><path fill="#53403d" d="M133 157.5l-12 8.7-28.3-6.5 41.3-20.5z"/><path fill="#dab88c" d="M94 54.5l-5.7-14.1 13.7 7.2 35.7 7.7z"/><path fill="#707268" d="M56.3 206.5L18 210.7l62.1 25.6-12.5-46.5z"/><path fill="#483b32" d="M64.6 193.7l24.9 35-10.9-49.4 29.7-.5z"/><path fill="#947b62" d="M162.1 123.9l13.2 7.2-19.4 35-13.2-7.2z"/><path fill="#a2ac98" d="M209.2 45l-.9 1.8L106.8-5l.9-1.8z"/><path fill="#52252f" d="M118.1 74l-3.6-19.6 9.4 7.2-65.6 5.3z"/><path fill="#a28e70" d="M63.8 173.8l-7-23.5-35 15.2 3.3 14.1z"/><path fill="#46192d" d="M81.7 68.7L8.3 17l72.5-6.5 14.7 62.7z"/></g></g></svg>