<svg xmlns="http://www.w3.org/2000/svg" viewBox="0 0 1800 1200"><defs/><filter id="a"><feGaussianBlur stdDeviation="12"/></filter><rect width="100%" height="100%" fill="#3b4448"/><g filter="url(#a)"><g fill-opacity=".5" transform="translate(3.5 3.5) scale(7.03125)"><circle r="1" fill="#ffffca" transform="matrix(7.61635 42.28026 -250.96063 45.20797 88.3 26.9)"/><circle r="1" fill="#ffd132" transform="rotate(-92.2 168.8 -36.9) scale(11.34713 96.86943)"/><circle r="1" fill="#e4c18a" transform="rotate(-40.6 118.8 -155.2) scale(24.57557 48.61785)"/><path fill="#e8d9af" d="M231 0h25v49h-25z"/><path fill="#2e2e30" d="M143 57l96 48-55-75z"/><circle cx="41" cy="6" r="63" fill="#dfc697"/><path fill="#101018" d="M60 76l62-14-38-10z"/><ellipse cx="214" cy="132" fill="#ffaa3e" rx="74" ry="10"/><ellipse cx="165" cy="13" fill="#d9c7a7" rx="81" ry="23"/><circle r="1" fill="#b89e64" transform="matrix(-4.54984 -11.77393 56.82275 -21.9582 30.8 69.4)"/><ellipse cx="64" cy="138" fill="#040000" rx="67" ry="4"/><ellipse cx="159" cy="160" fill="#546565" rx="255" ry="17"/><ellipse cx="113" cy="105" fill="#373332" rx="75" ry="27"/><ellipse cx="98" cy="133" fill="#ea8d27" rx="44" ry="3"/><path fill="#393f42" d="M228 31l21 63-92-35z"/><path fill="#ff9e38" d="M200.3 141.5l-73.5.6 48-19.6 96.2 19.6z"/><path fill="#5d4a3c" d="M173 95h83v26h-83z"/><path fill="#b7a06a" d="M174.6 72.7l-31.2 18.4L162 80.8 50.2 37.5z"/><path fill="#d9c895" d="M233.3 30.4l.5 22.6 10.7-9L271 31.3z"/><ellipse cx="253" cy="71" fill="#2d3338" rx="21" ry="29"/><path fill="#464643" d="M180.1 87.5l30.6-29L177.3 30l-21.9 23.5z"/><path fill="#3c3a37" d="M141.9 70.5l61.9 46-37 8.7-113.1 11.9z"/><path fill="#c2ab79" d="M106.9 73.9L148 24.5l32.7 6.5-31.5 28.9z"/><path fill="#0f120c" d="M71.2 134.8l66.3 7.2-153.5 1.8V136z"/><path fill="#b9a876" d="M74.9 76.6l4-2.9-63-39.9-31.9 33z"/><ellipse cx="117" fill="#bebaa2" rx="255" ry="24"/><path fill="#434c4d" d="M70 61h43v31H70z"/><circle r="1" fill="#cab88d" transform="matrix(-75.28708 16.08544 -3.27307 -15.31943 104.5 34.7)"/><ellipse cx="151" cy="137" fill="#ffa932" rx="23" ry="5"/><path fill="#e2952c" d="M83 133h46v4H83z"/><path fill="#364145" d="M223 30h7v34h-7z"/><path fill="#434d4c" d="M25 78l90 7-131 25z"/><path fill="#bab494" d="M249.4-16L271 56.3 187 2.9l7.3 48.8z"/><path fill="#4c534a" d="M145 52l1 15 34-3z"/><path fill="#414747" d="M67 64l70 26-40-38z"/><path fill="#bca670" d="M-9.6 92.7l-8-35 27.2-6.4 8 35z"/><ellipse cx="40" cy="118" fill="#363535" rx="103" ry="15"/><path fill="#e29043" d="M187 122h69v20h-69z"/><path fill="#b48e5f" d="M184.6 92.4l19.3 5.2-.5 2-19.3-5.2z"/><circle cx="161" cy="73" r="6" fill="#dab674"/><path fill="#34393d" d="M209.4 32.9l14.9 67.6 46.7-5-34.8-44.9z"/><path fill="#463c35" d="M41 126h92v6H41z"/><ellipse cx="185" cy="150" fill="#5b6665" rx="145" ry="4"/><path fill="#484d4a" d="M175 81l-58-9 90 42z"/><path fill="#86562e" d="M35 132h28v4H35z"/><path fill="#f2daa7" d="M217 32h4v7h-4z"/><path fill="#444d4f" d="M271 50l-119-6 64 21z"/><path fill="#32383c" d="M271 36L168 83l59 18z"/><path fill="#c1b48d" d="M237.1 51.7l21.7-23.8-25.3-.9-4 11.7z"/><path fill="#ffb641" d="M120 132h62v4h-62z"/><path fill="#cdb786" d="M101 55l54-5 30-27z"/><path fill="#9c9270" d="M103 67h10v3h-10z"/><path fill="#324044" d="M25 153h132v5H25z"/><path fill="#a49b73" d="M67 61l11 14-50-14z"/><path fill="#c3ad77" d="M102 45h35v14h-35z"/><path fill="#583c1c" d="M81 136h27v2H81z"/><path fill="#0a0f11" d="M0 135h83v7H0z"/><path fill="#a09368" d="M-16 80.3l66.5-2 23.9-7.5-34.5-7z"/><path fill="#aea986" d="M80 19L67 46l36 7z"/><path fill="#a8a17b" d="M152.6 43.3l-.1-21 1.3 44.6-5.9-7.3z"/><circle r="1" fill="#5a493c" transform="rotate(-93.3 155 -35.6) scale(3.90961 72.03819)"/><path fill="#ffb642" d="M168.1 131l-17.8 6.5-2.4-6.5 17.8-6.5z"/><path fill="#4d5450" d="M63.7 95L-16 97.1l86.6-26.6 1.6 10.2z"/><path fill="#627270" d="M0 167h47v3H0z"/><circle r="1" fill="#333639" transform="rotate(131.4 39 82) scale(14.45639 31.89818)"/><path fill="#3b4648" d="M139.9 85.2L90.6 97.9l9.6-6.9 23.2-26.1z"/><path fill="#c7b68d" d="M164 25l74-1-39 14z"/><circle r="1" fill="#3a3c3e" transform="rotate(-101.4 114.8 -44) scale(27.69085 4.6086)"/><path fill="#b3a876" d="M134.8 50.6l3.3 23.8-6.9 1-3.3-23.8z"/><path fill="#7f6b50" d="M261 99l10 9-33-8z"/><path fill="#434f54" d="M252.2 44.7l-8.8-1.6-2.6 12.1L271 75.3z"/><path fill="#3a464a" d="M201 43l27-5 21 33z"/><ellipse cx="91" cy="133" fill="#d78e39" rx="40" ry="1"/><path fill="#dab57d" d="M205.8 42.6l-24.3-9.3.7-1.9 24.3 9.3z"/><path fill="#b9ac7d" d="M119 47l10 4-13 20z"/><path fill="#beb38c" d="M229.9 40.6l9.1-16 4.7 27.3h-2.6z"/><path fill="#130f0b" d="M132 137.3l.7 3-12.8 2.4-.6-3z"/><circle r="1" fill="#5b4f41" transform="matrix(2.2705 -4.8623 5.80449 2.71047 166.8 47.3)"/><ellipse cx="124" cy="7" fill="#cbbb9a" rx="43" ry="32"/><path fill="#38464b" d="M156 157h98v6h-98z"/><circle r="1" fill="#2e3134" transform="rotate(-86.7 153.4 -71.7) scale(8.69769 36.09826)"/><path fill="#504e48" d="M180.8 43.3l10.7 9.6-1.3-20.6-55 57.8z"/><path fill="#cfb886" d="M153 30l-16 44-3-47z"/><circle cx="165" cy="78" r="2" fill="#d4ac6e"/><ellipse cx="34" fill="#bab9a4" rx="85" ry="14"/><path fill="#eab773" d="M167 32h4v11h-4z"/><circle r="1" fill="#3a4346" transform="matrix(-124.20886 31.74348 -1.99556 -7.80842 20.2 107.9)"/><ellipse cx="204" cy="153" fill="#5e6b6b" rx="56" ry="2"/><path fill="#5e5e4b" d="M149.9 65.8l-4.9 1.1-2.9-12.7 4.9-1.1z"/><path fill="#42494a" d="M149 89l-4-19-24 14z"/><circle r="1" fill="#cdb889" transform="matrix(-20.78681 -19.25748 5.77205 -6.23043 52.6 42.6)"/><path fill="#665142" d="M201 116h55v4h-55z"/><path fill="#efa239" d="M190.8 130.7l36.9 2.5-39.5-9.6-21.3-1.3z"/><path fill="#384045" d="M157.2 65.7l33.8 19 59.9-24.9-92.4-5.2z"/><path fill="#c2af7f" d="M46 44L29 72l-45-16z"/><path fill="#c7b586" d="M97 34h61v20H97z"/><ellipse cx="35" cy="82" fill="#434b49" rx="17" ry="4"/><path fill="#5f4320" d="M82 135h36v3H82z"/><path fill="#eea539" d="M114 132.3l17.8 6.9 1 2.9 49-10.7z"/><path fill="#c77d49" d="M190 121h66v3h-66z"/></g></g></svg>