<svg xmlns="http://www.w3.org/2000/svg" viewBox="0 0 1800 1013"><defs/><filter id="a"><feGaussianBlur stdDeviation="12"/></filter><rect width="100%" height="100%" fill="#3a4c68"/><g filter="url(#a)"><g fill-opacity=".5" transform="translate(3.5 3.5) scale(7.03125)"><ellipse cx="99" cy="25" fill="#97aaba" rx="255" ry="62"/><circle r="1" fill="#0a2e48" transform="rotate(-178.9 78.4 63) scale(200.61339 28.14429)"/><path fill="#7e93a6" d="M216 70h40v26h-40z"/><circle r="1" fill="#929999" transform="matrix(43.3437 -7.87146 1.81398 9.98857 37.2 84)"/><path fill="#c16b62" d="M64 92h137v5H64z"/><path fill="#3a454a" d="M78 81h136v10H78z"/><path fill="#c2b9a0" d="M58.3 81.5l11.1-19.4 6.8-.2.1 23.6z"/><path fill="#353e4e" d="M40.6 85.7l8.5 20.7 20.6-9.9-6.3-9.4z"/><path fill="#6c8094" d="M0 0h44v96H0z"/><path fill="#5f768e" d="M214 0h42v97h-42z"/><path fill="#1d2f44" d="M182.9 91.9l9.3-11.7L215 80l2.9 12z"/><path fill="#0a3656" d="M66 65H56l1 10z"/><ellipse cx="163" cy="81" fill="#69747d" rx="29" ry="6"/><path fill="#132f47" d="M262.8 125.8l-68.4 9.7 76.6-38-44.5 3.7z"/><path fill="#f4e6c5" d="M57 75l-7 9 10-3z"/><ellipse cx="58" cy="143" fill="#082943" rx="64" ry="6"/><path fill="#3b5573" d="M120 140h114v4H120z"/><circle cx="147" cy="83" r="5" fill="#273443"/><path fill="#687b90" d="M53.3 97.1L37 90.8l64.9-89.4L-16 96.3z"/><path fill="#2b4054" d="M79 69h5v22h-5z"/><path fill="#8c8f93" d="M91 81h45v2H91z"/><path fill="#d8ceb6" d="M209 96l9-1-3-2z"/><ellipse cx="36" cy="100" fill="#2c455e" rx="255" ry="5"/><path fill="#385475" d="M85 141l10-7-37-4z"/><ellipse cx="176" cy="122" fill="#001d33" rx="14" ry="3"/><circle r="1" fill="#6c8199" transform="matrix(1.19809 17.30855 -103.23867 7.14613 94.1 9.2)"/><path fill="#002137" d="M10.3 125.8l12.7-6.3-34-.2-5 4.2z"/><path fill="#283f52" d="M39 87h37v5H39z"/><path fill="#416182" d="M10 131h36v3H10z"/><circle r="1" fill="#2d4866" transform="matrix(.02192 -2.89755 58.83015 .44513 141.4 130.9)"/><path fill="#07273f" d="M70.7 127.3l7 .4-58.5-.7 18.6 5z"/><ellipse cx="82" cy="118" fill="#0c2b45" rx="85" ry="2"/><path fill="#7e8795" d="M47.3 96.7l-5.2-2.9-3.4-8.4-3 12.1z"/><path fill="#64778d" d="M215 51h41v44h-41z"/><ellipse cx="128" cy="94" fill="#9e6a6c" rx="59" ry="2"/><path fill="#5a4455" d="M185 92h26v6h-26z"/><ellipse cx="120" cy="85" fill="#908d80" rx="23" ry="1"/><path fill="#cbc9bd" d="M77.8 82l-.8.4L66.2 62l.8-.5z"/><ellipse cx="127" cy="75" fill="#aaada4" rx="7" ry="2"/><path fill="#677a91" d="M91.3 46.1l65.4 37.6 32.6-1.3 54.1-9.5z"/><path fill="#36506e" d="M124 121h10v23h-10z"/><path fill="#d6b39b" d="M48 75h11v3H48z"/><path fill="#968f7b" d="M71 78l-22 8 28-1z"/><path fill="#365678" d="M27 126l-.7-4 24.7-4 .7 4z"/><path fill="#4d5962" d="M40 86l14 1-3-5z"/><ellipse cx="190" cy="128" fill="#3e5976" rx="8" ry="4"/><circle cx="58" cy="69" r="5" fill="#315471"/><path fill="#304a66" d="M244.2 122l-27.7 17.6 39.2-5.4-31.2-6.3z"/><path fill="#e5dcc7" d="M75 77h3v6h-3z"/><path fill="#5e625f" d="M61 76h12v2H61z"/><path fill="#243144" d="M201 92l16-13-3 12z"/><path fill="#355170" d="M52 135l23 6 8-7z"/><path fill="#6a7c8e" d="M0 50h42v47H0z"/><path fill="#959a97" d="M62 71l24-5-19-3z"/><path fill="#26435e" d="M17.1 100.5l32.4-1.7-31.4 25.3L-16 93.9z"/><path fill="#213042" d="M76.6 86.1L93.2 83l.2 1-16.6 3z"/><path fill="#08273f" d="M226.9 123l2.5 3.7-14.3-7.9-5.4 19.1z"/><path fill="#072034" d="M87 106.1l-40 2.8v-1l40-2.8z"/><path fill="#6a7074" d="M132.4 94.6l6.5-11.5 6-13.9-10.7 11.9z"/><ellipse cx="133" cy="41" fill="#677b94" rx="76" ry="34"/><path fill="#001f35" d="M18 139h41v3H18z"/><path fill="#102b43" d="M201 114h55v3h-55z"/><path fill="#0a2942" d="M185 134l36-9-4 10z"/><path fill="#0f2d46" d="M214 159l30-25 25 6z"/><circle cx="67" cy="73" r="3" fill="#dfd9ca"/><path fill="#2f4660" d="M239.7 128.7l-19.3-9.6 34.8-7.1-33.2-7.2z"/><ellipse cx="44" cy="96" fill="#cbbbac" rx="4" ry="1"/><path fill="#2f4a67" d="M154.1 133.1l-16.4-15 30.2 13.2-39.8 27.7z"/><path fill="#001a32" d="M73.2 123.1L93 126l-.2 1-19.8-3z"/><path fill="#08263e" d="M234 123l37 3-23 5z"/><path fill="#93978e" d="M156 79h5v8h-5z"/><ellipse cx="179" cy="117" fill="#001225" rx="4" ry="2"/><path fill="#1f3852" d="M138 87h60v4h-60z"/><ellipse cx="164" cy="111" fill="#2e455f" rx="55" ry="3"/><path fill="#4f6b82" d="M78.5 68.5v1h-39v-1z"/><path fill="#0a2640" d="M185 143h34v1h-34z"/><path fill="#6c555e" d="M73.4 96.5l-5.6-5.4-23.9 5.2-3.4-5.6z"/><path fill="#5a636d" d="M74.6 70.3l6.8 10-7.7 24.5L79 69.5z"/><path fill="#29445f" d="M207.8 131.2l35.4-1.8-43.7 9.4 53.8 3.1z"/><path fill="#fdf8e7" d="M53 79h1v8h-1z"/><circle cx="75" cy="130" r="3" fill="#001b31"/><path fill="#65778d" d="M229.4 64.3l-20.2 35.3 2.6-5.3 40.3 2z"/><path fill="#112e47" d="M99.1 117.6l28.6 17.6L82.9 151l44.4-21.1z"/><path fill="#405b77" d="M259.8 131.7l-31.5 5.6-.1-1 31.5-5.6z"/><path fill="#2d4765" d="M112 135l-15 4 27-40z"/><path fill="#894841" d="M51 77l-3 3h3z"/><path fill="#67778b" d="M38.8 95.9l3.8-13.1 24.7-30.7-44.8 24.7z"/><path fill="#6b706f" d="M90 86h69v1H90z"/><path fill="#606056" d="M61 77h2v5h-2z"/><ellipse cx="223" cy="126" fill="#3e5570" rx="14" ry="1"/><path fill="#778088" d="M173 81h14v5h-14z"/><path fill="#bca191" d="M51.3 76.8l-9.1 10.1 3.2-8.1 6.6-5.2z"/><path fill="#445f7d" d="M131 142h34v2h-34z"/><path fill="#2f4c6b" d="M69.7 125.9l-30.6-2.1 58.9 3.8-17.1 2.6z"/><path fill="#475461" d="M163.8 82l-7.7 5.8 25-5.1 22.1 3.5z"/><path fill="#66737d" d="M68 72h22v2H68z"/><path fill="#06243e" d="M134 140h31v1h-31z"/><path fill="#4a5054" d="M140.8 79.6l-21.3 5.7-.3-1 21.3-5.6z"/><path fill="#bcb8a9" d="M52 85l5-10 5 10z"/><ellipse cx="168" cy="99" fill="#2d4661" rx="159" ry="3"/></g></g></svg>