<svg xmlns="http://www.w3.org/2000/svg" viewBox="0 0 1800 1200"><defs/><filter id="a"><feGaussianBlur stdDeviation="12"/></filter><rect width="100%" height="100%" fill="#552b2c"/><g filter="url(#a)"><g fill-opacity=".5" transform="translate(3.5 3.5) scale(7.03125)"><circle r="1" fill="#ef831f" transform="matrix(63.22372 -32.12387 21.93273 43.16631 178 71.6)"/><path fill="#001011" d="M2 124.3l255 4.4-1 49-255-4.4z"/><circle r="1" fill="#fff" transform="matrix(14.9897 .67576 -.2997 6.64783 173 113.5)"/><ellipse cx="136" cy="86" fill="#da6b1b" rx="66" ry="18"/><circle r="1" fill="#712f0e" transform="matrix(-18.60839 -22.54781 43.95991 -36.27948 232.2 83.1)"/><path fill="#714314" d="M2 20h186v27H2z"/><circle r="1" fill="#ed922d" transform="rotate(139 72.6 68) scale(30.54115 21.29799)"/><ellipse cx="150" cy="1" fill="#221f0d" rx="156" ry="18"/><circle r="1" fill="#783a12" transform="rotate(-24.8 197.7 -143.9) scale(77.94218 31.3691)"/><path fill="#fff" d="M177 99.5L154.1 118l23.9 1.9 6.8-3.2z"/><path fill="#61160b" d="M117 104h40v21h-40z"/><path fill="#522717" d="M259 95L153 83l118-18z"/><circle r="1" fill="#271016" transform="matrix(-1.06342 -6.28603 19.89138 -3.36507 164.9 37.5)"/><path fill="#d67827" d="M113.6 31.3l37.5 16.3 53.1 26.6-26.6 31.7z"/><path fill="#d0852d" d="M212.9 16.4l32.6 9.4-1.6 1.2-52.2 14.6z"/><circle r="1" fill="#0e1d1f" transform="rotate(-88.2 98 56.6) scale(26.50974 103.57108)"/><path fill="#ff682d" d="M192.9 126.9l-34-1.8.2-4 34 1.8z"/><path fill="#a43a11" d="M153.6 94.7l37 4.7 30 20.5-32.8-7.2z"/><ellipse cx="237" cy="42" fill="#5f3217" rx="47" ry="5"/><path fill="#803212" d="M65 74l99 52-97-11z"/><ellipse cx="249" cy="55" fill="#bb6420" rx="135" ry="10"/><ellipse cx="99" cy="68" fill="#4b2716" rx="47" ry="8"/><path fill="#ffa236" d="M158 66.3l63.8 11.4-20.3-.5-74 5.9z"/><ellipse cx="193" cy="68" fill="#350e10" rx="19" ry="2"/><ellipse cx="176" cy="94" fill="#ffb34a" rx="31" ry="2"/><ellipse cx="20" cy="66" fill="#573219" rx="39" ry="60"/><ellipse cx="89" cy="43" fill="#b15f29" rx="44" ry="3"/><ellipse cx="245" cy="73" fill="#050e14" rx="33" ry="3"/><path fill="#d4762c" d="M119 31h44v4h-44z"/><path fill="#fff" d="M184.5 119.2l-23.9-2.5.9-8 23.9 2.6z"/><path fill="#54180e" d="M136 96h28v4h-28z"/><path fill="#753b1e" d="M235 20l-42-10-41 19z"/><path fill="#8e3816" d="M163.1 81.3l-13.2.3-26.9 17 52.6-16.1z"/><circle r="1" fill="#f3672a" transform="rotate(-77.4 168.3 -64.1) scale(3.6776 11.68293)"/><path fill="#c6511c" d="M130.4 74.6l3.8 23.7-32.6 5.1-3.8-23.7z"/><circle r="1" fill="#181b1c" transform="rotate(85.9 33.8 202) scale(28.9381 53.58076)"/><ellipse cx="128" cy="115" fill="#c8451c" rx="28" ry="3"/><path fill="#351d17" d="M131.3 37.7l61.4-7.3-27.7 9.9-30.1 5.2z"/><circle r="1" fill="#783f1b" transform="matrix(-4.56378 -22.38636 26.78784 -5.46109 250.5 45)"/><path fill="#402117" d="M195.1 76.3l-2.9 3.5 62.9 5 15.4-1.1z"/><path fill="#502515" d="M134 103h26v9h-26z"/><ellipse cx="229" cy="94" fill="#c64c1b" rx="41" ry="2"/><path fill="#fd7539" d="M168 119h17v6h-17z"/><path fill="#704728" d="M38.1 12.2l75.6-10.7L-16 12.8l33.9 7.8z"/><path fill="#d4802c" d="M184.9 24.7l14.9 11.5-56 23.6 39-3.3z"/><path fill="#df8330" d="M120.8 39.8l17-8.3 1.4 2.7-17 8.3z"/><path fill="#552917" d="M0 103h120v23H0z"/><path fill="#e09b40" d="M204 24h24v9h-24z"/><path fill="#8b3f21" d="M24 80l65 6-52 10z"/><path fill="#723217" d="M160 96l81 23 12-22z"/><path fill="#512517" d="M197.1 121.5l-57.5 10.2 31.5 6.5 99.3-24.3z"/><path fill="#7e3c19" d="M102.5 69.6L47.1 81.3l135.4-21.7-28.8-.9z"/><path fill="#f59231" d="M145 88l7-14-34 2z"/><path fill="#7a4220" d="M201.7 34.5l-49.1-17 52.2-2.8.5-.4z"/><path fill="#2b1715" d="M201.2 88l24.7-4 1 6-24.8 4z"/><path fill="#ffb034" d="M142 101h35v2h-35z"/><path fill="#33221b" d="M36 15l104 12 38-43z"/><ellipse cx="61" cy="49" fill="#352217" rx="35" ry="4"/><circle r="1" fill="#de892c" transform="matrix(.43053 3.5387 -36.4977 4.44046 178.4 54)"/><path fill="#7a3e1f" d="M93.6 55.2l-.5 7-104.7-7.4.5-7z"/><ellipse cx="186" cy="74" fill="#fea836" rx="23" ry="3"/><path fill="#b0551d" d="M155.2 73.5l-34.1-.6 74.2-37.8-53.9 14z"/><path fill="#fe9f3a" d="M155 86h29v10h-29z"/><path fill="#400e0b" d="M141.5 121v-1l49-1v1z"/><path fill="#fbffff" d="M166.1 107.4l-2.3 11.6 22.5-.2-18.5-13.5z"/><ellipse cx="186" cy="84" fill="#913b17" rx="41" ry="2"/><path fill="#975427" d="M34 35.1l59.7 4 16.1 11.1-61.4-9.9z"/><path fill="#261918" d="M120 40l-21 2 13-7z"/><path fill="#bd4206" d="M180 99l7 6-22-1z"/><ellipse cx="42" cy="66" fill="#452719" rx="82" ry="5"/><ellipse cx="234" cy="69" fill="#4f2b1b" rx="45" ry="3"/><ellipse cx="130" cy="109" fill="#662e18" rx="31" ry="5"/><path fill="#6c3d24" d="M98.9 11.6l24.9 10.6-65-3.5 70.6 18.8z"/><path fill="#eb932f" d="M170.1 85l11-14-75.4 6.9 82.5 1.1z"/><path fill="#853e18" d="M222.4 53.2l34.5-5.7-69 11.5 44.4-.7z"/><path fill="#a3441c" d="M227.9 87.2l15.4-7.4-12.8 13.9-3.8 1.7z"/><path fill="#9a3b17" d="M124.3 93.9l-23.8 10.4-19.8-1.7 12.8-17.2z"/><path fill="#de7e27" d="M176 61h45v5h-45z"/><circle r="1" fill="#161b1e" transform="matrix(-12.0113 23.97997 -39.80456 -19.93766 1.2 148.4)"/><ellipse cx="116" cy="115" fill="#9f3619" rx="23" ry="4"/><path fill="#a05723" d="M230 26.8l-71.8-6 64.8-.7 16.4-1.3z"/><circle cx="154" cy="115" r="3" fill="#ff7b26"/><path fill="#56311e" d="M150 16h24v13h-24z"/><path fill="#623119" d="M222 95h34v31h-34z"/><circle r="1" fill="#652e15" transform="matrix(-.03275 .99946 -17.40027 -.5702 169.5 83.8)"/><path fill="#2c1e1d" d="M174.5 156.8l11.9-31.6 53.3 1.7-37.2 27.1z"/><circle r="1" fill="#b8521b" transform="matrix(14.43907 -1.30637 .23153 2.55911 194 84.4)"/><ellipse cx="216" cy="79" fill="#422217" rx="29" ry="2"/><ellipse cx="24" cy="1" fill="#1d1b1a" rx="104" ry="2"/><circle cx="172" cy="111" r="6" fill="#f8ffff"/><circle r="1" fill="#341e19" transform="matrix(4.65276 11.3446 -41.02683 16.82633 249.2 0)"/><path fill="#5e3a24" d="M59 48L-4 23l87-7z"/><path fill="#642b1b" d="M128.7 126.9l-43.4-12.2 80.5 5 .6 1.1z"/><ellipse cx="135" cy="165" fill="#231f20" rx="47" ry="40"/><path fill="#eda13d" d="M203 35.4l-.3 2-15.8-2.8.4-2z"/><ellipse cx="255" cy="59" fill="#ae571f" rx="60" ry="3"/><path fill="#ffc250" d="M151 92h29v3h-29z"/><path fill="#35281c" d="M-7 37l3-10 33 4z"/><path fill="#552f1d" d="M205 41h51v3h-51z"/><path fill="#512b1c" d="M70 61l3 20-66-6z"/></g></g></svg>