<svg xmlns="http://www.w3.org/2000/svg" viewBox="0 0 1800 1200"><defs/><filter id="a"><feGaussianBlur stdDeviation="12"/></filter><rect width="100%" height="100%" fill="#4b3d3b"/><g filter="url(#a)"><g fill-opacity=".5" transform="translate(3.5 3.5) scale(7.03125)"><circle r="1" fill="#fcffff" transform="matrix(70.5538 -32.75159 105.63777 227.56593 193.3 47.8)"/><ellipse cx="96" cy="13" fill="#eff8f5" rx="255" ry="16"/><circle r="1" fill="#362920" transform="rotate(148.8 49.4 46) scale(19.57968 51.63049)"/><circle r="1" fill="#fff" transform="rotate(-153.3 6 25) scale(13.19731 31.9755)"/><circle r="1" fill="#737a7b" transform="matrix(-125.53216 -37.96792 12.79438 -42.30166 198.1 137.3)"/><ellipse cx="205" cy="46" fill="#dbe5e6" rx="73" ry="36"/><circle r="1" fill="#3a362b" transform="matrix(-36.72257 -4.17057 2.80415 -24.69097 63.6 39.7)"/><circle r="1" fill="#9faaab" transform="matrix(15.39413 43.28768 -9.84467 3.501 152 155.8)"/><ellipse cx="63" cy="7" fill="#e3e8e8" rx="37" ry="10"/><path fill="#0c1413" d="M80 153L16 72 0 134z"/><circle r="1" fill="#475655" transform="matrix(-2.39044 1.19042 -69.20128 -138.95984 229 94.6)"/><ellipse cx="112" cy="83" fill="#58463f" rx="29" ry="57"/><path fill="#c9d3d4" d="M67-16L-8 68l1-39z"/><path fill="#2f3521" d="M6.4-10.3l2.8-1 16.4 53.6-2.8 1z"/><path fill="#a8afa6" d="M6.4 59.7L2.7 106l-10.1 16 6.3-94.3z"/><circle r="1" fill="#393833" transform="matrix(-52.86686 14.95981 -7.03967 -24.87767 58.4 50.7)"/><path fill="#635345" d="M-15 175l278 10-149-46z"/><circle cx="164" cy="52" r="29" fill="#d0d3d2"/><circle r="1" fill="#6c6260" transform="matrix(16.50688 -24.6153 16.18154 10.85125 104.5 86.2)"/><ellipse cx="184" cy="96" fill="#96a3a8" rx="42" ry="21"/><circle cx="142" cy="7" r="32" fill="#d8d9da"/><path fill="#121a20" d="M97.7 63.1l-34 24.7-9.4-13 34-24.6z"/><path fill="#54493f" d="M15 42l41-32 84 36z"/><circle r="1" fill="#8f989d" transform="matrix(12.16882 35.54984 -8.10021 2.77273 149.7 151.6)"/><circle r="1" fill="#cfd2d3" transform="matrix(-24.22292 15.6705 -44.46868 -68.7381 226.8 20.2)"/><path fill="#382a23" d="M104 134l-53-2 72 44z"/><path fill="#cbcbcb" d="M75.1-16l19.2 38.1 99.7 4.5-29.4 41.7z"/><path fill="#343233" d="M75.4 62.5L73 42.6l57.6-7 2.4 19.8z"/><path fill="#465e78" d="M48 144l-30-8-27 10z"/><path fill="#635045" d="M41 78l95 27-5 69z"/><path fill="#96857a" d="M85.4 169.8l5.4-10.7 17.8 9-5.4 10.8z"/><path fill="#593a33" d="M140.9 108.1l-18.8-2.6 5-35.6 18.8 2.6z"/><path fill="#c5c7c6" d="M131.1 58.9l24.2-23.1L206.2 80l-52.7-4.7z"/><path fill="#3b4746" d="M197.2 32.4l33.5 67 37.5 72.6-15.8-39.9z"/><circle r="1" fill="#676f70" transform="matrix(18.45366 -18.99427 8.29693 8.0608 12.9 0)"/><path fill="#927f66" d="M56 17l43-6-5 13z"/><path fill="#0c0d12" d="M61 116l1-18 12 26z"/><path fill="#cdcfd1" d="M21.3 33.5l-1.4-20.8L50.2-16l7.4 18.4z"/><path fill="#6c777a" d="M205.3 171.2L159 183.7l-8.3-31 46.3-12.4z"/><path fill="#959c9f" d="M229.2 98.9l20.5 36.8-107.8-48.5 75.7-12.6z"/><path fill="#1c1c1c" d="M54.6 153.1l-11.2-8.8-13-75.4 31.7 73.9z"/><path fill="#37322c" d="M13 57h49L2 127z"/><path fill="#00080e" d="M24.4 143.3l1 1.8-49.8 27.6-1-1.8z"/><ellipse cx="34" cy="163" fill="#664d3f" rx="28" ry="16"/><circle r="1" fill="#79827c" transform="matrix(-8.89869 13.75753 -1.6624 -1.07528 59.7 4.5)"/><path fill="#856c4e" d="M132 40l-14 6-7-23z"/><path fill="#697574" d="M170.6-16l25.6 43.4 20.3 42.1L191 26z"/><path fill="#695452" d="M41 88.7l22.9 39.4L51 73.3l-11.9 8.2z"/><path fill="#58493c" d="M208.2 172.2l-89.3-33.9 34.5 46.7-15.9-34.2z"/><circle r="1" fill="#8c866f" transform="rotate(126.7 .3 24.5) scale(15.23602 2.08268)"/><path fill="#9aa8a8" d="M254.5 75.3l24.9 46.8-23.9 12.6L230.6 88z"/><circle r="1" fill="#c4c8cb" transform="rotate(-161.8 7 20.4) scale(8.33201 13.35863)"/><circle cx="118" cy="65" r="7" fill="#827f81"/><path fill="#d6d7d8" d="M90-16L55 11l123-4z"/><path fill="#828686" d="M204.9 94.7l-53 90.3-31-35.5 40.3 34.7z"/><path fill="#6b605b" d="M106.1 103.9l9.8-26.2 5.7 49.5-79-43.3z"/><ellipse cx="185" cy="134" fill="#838d94" rx="44" ry="23"/><circle r="1" fill="#675746" transform="rotate(106 38.2 49.7) scale(6.26686 24.57647)"/><circle r="1" fill="#d2d3d4" transform="matrix(11.1522 -29.46913 42.31324 16.0129 225.3 0)"/><path fill="#202224" d="M87 64L74 89 39 66z"/><path fill="#333133" d="M119.6 50.6l-7.2-20.2-49.9 35 63.2-8.1z"/><path fill="#4c423a" d="M56.9 18.6L20.7 32.8 69 62.6l24.5-4z"/><path fill="#8e959a" d="M147 77.9l65.9 41.9-100.2 8.7 23.2-2z"/><path fill="#556a80" d="M1.3 156.3l10.8-13.1-13.7 2.3-14.4 2.1z"/><path fill="#1b1b1b" d="M35.8 113.7L6.6 144.8-16 116.2l47.5 13.1z"/><path fill="#504240" d="M70.7 106.7l48.4-37.9 22.7 24-13.4-19.9z"/><circle r="1" fill="#7d7477" transform="matrix(3.1086 -1.1499 3.3296 9.00108 116.4 95.5)"/><path fill="#6e6551" d="M1.5 66l30.2-44.1-27 57.2-.6-13.8z"/><path fill="#77483c" d="M143 70l-11-12v30z"/><path fill="#525b68" d="M0 138h38v3H0z"/><path fill="#cdcece" d="M208 77l-17-55L43-16z"/><path fill="#534338" d="M112.1 135.7l-37.6-21.8-2.6 16.2 69.7 54.9z"/><ellipse cx="4" cy="142" fill="#121923" rx="15" ry="2"/><path fill="#000b18" d="M25 145h15v2H25z"/><path fill="#7e868a" d="M271 166.1L216.9 185l-27.7-38.2 56.6-9.7z"/><path fill="#838b8f" d="M195 177l-40 8-12-36z"/><path fill="#727b81" d="M178 129l-31-10 7 15z"/><path fill="#c3c6c6" d="M137.4 27l8.4 57.1L196.1 51l-59.8 3.2z"/><path fill="#625651" d="M74.1 97.7l12.6-23.8 30.1-16.4-25.6 70.3z"/><path fill="#554848" d="M140.3 103.8l-3 13.5-6.6 3.5-18-48z"/><circle r="1" fill="#565448" transform="matrix(17.4986 6.1989 -.71838 2.02789 184 164.2)"/><path fill="#514637" d="M4.2 111l13.9-23.1-34.1 29.5 34.4 4.8z"/><circle cx="77" cy="169" r="16" fill="#674f43"/><path fill="#5a5f54" d="M8.1-16l6 34.6 2.5 14.2.3-22.5z"/><path fill="#7d694b" d="M44 19L24 36l7-13z"/><path fill="#5c4c47" d="M57.7 111.2l13 20.1-8.4 5.5-13-20.1z"/><path fill="#b2b6b7" d="M4.5 50.1l-1 26-8-.2 1-26z"/><path fill="#241f1f" d="M46.1 150.4l50.6-.6-43.8-16.6-3.8-43.6z"/><path fill="#151718" d="M56.1 130l3.3 2.9-5.4 14.8L21.9 132z"/><path fill="#92999e" d="M139 147h36l-39-28z"/><path fill="#c7cdc9" d="M131 61.7l-.4-.9 12.3-6.5.5.9z"/><path fill="#798391" d="M16 146.5H2v-3h14z"/><path fill="#a1998c" d="M58.5 7.3l-1.8 10.5 23.9 1.6L52.7 6.5z"/><path fill="#bcbdb6" d="M99.4 5.6L88.3-5l33.2 33.1-28.6-11.6z"/><path fill="#c5c7c7" d="M218.7 78.4l-19.3 2-77.6-48.9 80.6 12.6z"/><path fill="#cccdcd" d="M68.8-16l-48 36.7 21.4-2.5 4.8 1.5z"/><path fill="#909698" d="M227.6 99.4l22.9 40.1-17.8-1.1-26.2 31.9z"/><circle r="1" fill="#72807b" transform="rotate(-118.4 141.3 -24) scale(20.20137 1)"/><path fill="#645450" d="M46.8 78.8l4.6-3.9 23.8 28.3-4.6 3.9z"/><path fill="#cbcdcd" d="M195 17l76-2.3-60.8 37.9-11.4-21.7z"/></g></g></svg>