<svg xmlns="http://www.w3.org/2000/svg" viewBox="0 0 1800 1200"><defs/><filter id="a"><feGaussianBlur stdDeviation="12"/></filter><rect width="100%" height="100%" fill="#244141"/><g filter="url(#a)"><g fill-opacity=".5" transform="translate(3.5 3.5) scale(7.03125)"><circle r="1" fill="#bf9d9b" transform="rotate(110 -7.8 91.5) scale(99.59444 129.09093)"/><circle r="1" fill="#93a2b5" transform="matrix(-2.83349 -15.0293 120.28183 -22.67687 177.6 46.8)"/><ellipse cx="108" cy="142" fill="#6f2f1a" rx="89" ry="22"/><ellipse cx="1" cy="50" fill="#adf" rx="41" ry="24"/><circle r="1" fill="#cbd3b5" transform="rotate(-161.5 15.2 50.3) scale(61.55702 17.9484)"/><circle cx="218" cy="92" r="56" fill="#513a39"/><path fill="#003932" d="M151 24l-41 30-95-27z"/><circle r="1" fill="#a7ceeb" transform="matrix(-20.2025 -6.83817 5.00912 -14.7988 76.7 62.6)"/><ellipse cx="246" cy="115" fill="#deaa72" rx="49" ry="6"/><path fill="#7c7066" d="M131-16l140 84-23-73z"/><path fill="#f9f2d2" d="M131 174.4l26.1-13.9-9.7-7.6-53.7 26.8z"/><circle r="1" fill="#663624" transform="rotate(-99.5 104.7 47.6) scale(16.15143 81.27898)"/><path fill="#09112b" d="M66.4 66.2l-27.3-3.5-4 4.9 22.5 17z"/><path fill="#a1c7f2" d="M155.7 47.8l55.7-8.9-9.2-11.2-140 37.9z"/><ellipse cx="216" cy="154" fill="#0e0205" rx="17" ry="36"/><path fill="#fff" d="M198 177l-1-37-13 45z"/><circle cx="221" cy="44" r="11" fill="#030000"/><path fill="#fafff2" d="M243 23h13v13h-13z"/><path fill="#2f3d48" d="M130 53h20v50h-20z"/><circle r="1" fill="#698097" transform="matrix(15.29936 15.03464 -33.85315 34.44922 97.5 94.2)"/><path fill="#ffeebf" d="M-4 58l-12 48 37-49z"/><ellipse cx="178" cy="107" fill="#262d32" rx="15" ry="31"/><path fill="#bec1c8" d="M157 119l-6-16-42 9z"/><path fill="#a2b199" d="M193.3 139.6l-22.5 1.4 27 14.8 8.5-42.4z"/><circle r="1" fill="#825d43" transform="matrix(10.36393 11.5508 -9.73342 8.7333 21.7 83)"/><circle r="1" fill="#5b6870" transform="matrix(-85.95469 4.20389 -.47097 -9.62973 189.5 60.2)"/><path fill="#ccc1ac" d="M-16 119l43.3 27.8-16.5-.5-24.8 10.8z"/><path fill="#584f37" d="M-14.2 32.9L-8 10.8 14.2 17 8 39.2z"/><path fill="#9eb3c4" d="M67.4 43.8l-9.2 4.3 7 36L86 96.5z"/><path fill="#83addb" d="M38 84l3-49-39 4z"/><path fill="#d9d3d3" d="M67.2 97.4l-3.8 20.9-12.1-.6-15-3z"/><path fill="#937768" d="M242 121l-30-1-1-29z"/><circle r="1" fill="#83524a" transform="matrix(52.7389 -10.40405 1.58423 8.0306 63.5 129.9)"/><path fill="#8094aa" d="M200.5 72.1l-4.4 14.4-8.6-2.6 4.4-14.4z"/><path fill="#dab39d" d="M38.8 92.1l4.7 40L40 83l-56 7.4z"/><path fill="#60ccb0" d="M15 99l-31 75V85z"/><ellipse cx="100" cy="22" fill="#214843" rx="52" ry="28"/><path fill="#639bde" d="M12 26L2 55l47-17z"/><path fill="#221e1e" d="M198 77l93-14.7 3 18.7-93 14.7z"/><path fill="#b4bec1" d="M148.5 45.3L61.2 81.8l33.5-23.5 65.4-21.7z"/><path fill="#25403f" d="M40.1 43.7l171-11.6-77.7-28.2-93.6 49.7z"/><path fill="#876405" d="M20 26l11-14v21z"/><path fill="#fffbf8" d="M62 116h19v4H62z"/><path fill="#8abbeb" d="M103.7 56.4l-48.2 6.5 1.6-14.5-1.4-7.2z"/><ellipse cx="169" cy="113" fill="#a1a4a0" rx="11" ry="3"/><path fill="#c37c39" d="M195.4 129.6l-70.6 36.7L56.6 185l24.6-4.6z"/><path fill="#fff" d="M11.5 91.4L10 92.7-9.5 68.6l1.5-1.3z"/><path fill="#664231" d="M3 127.4l78.8 38.5 54.4 19.1-108.7-62.6z"/><path fill="#6ea7ca" d="M224 24l1 11 26 1z"/><path fill="#42436d" d="M40.5 100.1L44 86.5 57.5 90 54 103.5z"/><path fill="#d0d3d0" d="M138 116l-14 6-7-4z"/><path fill="#39221a" d="M132 77h16v18h-16z"/><path fill="#775d5d" d="M235 144h14l-3 36z"/><circle r="1" fill="#6c506c" transform="matrix(6.88852 -20.92277 12.27796 4.04234 82.9 135.8)"/><path fill="#52392f" d="M234.7 46.7l-26.4-3.2h-2.4l18.2 55.1z"/><path fill="#f4b47e" d="M251.9 95.2l19-19.3-9.7 27L271 148z"/><path fill="#2b373c" d="M81 74h19v7H81z"/><path fill="#414542" d="M180 17h60v13h-60z"/><path fill="#7392a1" d="M148.5 64.4l15 1.3-2 22-15-1.4z"/><path fill="#6f3c27" d="M185 134l-92 39v-58z"/><path fill="#585863" d="M126.3 136.2l86.8-13.2-70.2-3 9.9-30.3z"/><path fill="#234d47" d="M100.6 67.2L100-16-12.4 12.7l129.9 22.8z"/><path fill="#1d2123" d="M164.2 93.1l2.1-10.1 34.2 32.4-14.2 6z"/><path fill="#decec7" d="M40.6 129.4l6.5-7.5 7.8-14.5-14-7.3z"/><ellipse cx="183" cy="90" fill="#677681" rx="10" ry="5"/><path fill="#3b3227" d="M12 72l11-3 11 16z"/><path fill="#eaa672" d="M3.8 120l23.6-18-18.7 27.5 2.1 2.9z"/><path fill="#273f57" d="M165 61h47v14h-47z"/><ellipse cx="183" cy="55" fill="#6a828c" rx="24" ry="6"/><path fill="#a4a39c" d="M107.3 69.5L63 59.8l1.7 23-.3-.5z"/><path fill="#d1c9b9" d="M33.5 74.4L8.2 64.8l4.3-11.2 25.3 9.6z"/><circle r="1" fill="#2f2d2c" transform="matrix(2.08444 18.8091 -10.7318 1.1893 234.4 98)"/><circle r="1" fill="#2d2e3d" transform="matrix(10.2236 2.24015 -1.9316 8.81541 53.7 71.7)"/><path fill="#7aa2d0" d="M116.9 48.4l77.9-17.2 21.2-1.5-1.4 7.6z"/><path fill="#172f28" d="M150.5-6.8l35.6 28.9-6.3 11L107-.2z"/><circle r="1" fill="#ad887f" transform="matrix(15.53471 -.3029 .12408 6.3634 252.6 117.7)"/><path fill="#5d778e" d="M83.1 85.7l77.3 18.1-96 13.1-1.9-11.5z"/><path fill="#8d907b" d="M161.9 156.8l-7.5 28.2-1.3-39.5 20.5 12.5z"/><path fill="#18253c" d="M37 108h3v13h-3z"/><circle r="1" fill="#452018" transform="matrix(-8.82334 64.1071 -7.25129 -.99803 255 163)"/><ellipse cy="159" fill="#293036" rx="7" ry="8"/><path fill="#545368" d="M35.7 75.2L38 56.8l6.5 44.4 30.6-13.3z"/><path fill="#516a75" d="M234 37h22v22h-22z"/><path fill="#7e6553" d="M13 185l-4-35 53-35z"/><path fill="#f0e9e9" d="M31 122h20v4H31z"/><path fill="#579374" d="M29 124v-20l-16 19z"/><path fill="#4d3734" d="M58 45l-9 29-5-34z"/><path fill="#29423e" d="M164 154l26-2-20-11z"/><path fill="#5b4a44" d="M243.4 55.6l18.7 19.5-47.4-20.3 5.9 33.3z"/><path fill="#201d14" d="M209 54l34-17-37 5z"/><path fill="#e5eae3" d="M147 163l-9 4.3-3-6.4 9-4.2z"/><path fill="#fffff6" d="M197 171l-12 11 10-30z"/><path fill="#bfc4b0" d="M185 138l5 9-16-6z"/><path fill="#eecbaa" d="M101.8 119.8l-11.6-6.3 10.7 1.4 1.9 2.8z"/><path fill="#fff" d="M-9 130L2 96-8 63z"/><circle r="1" fill="#1e191d" transform="matrix(-22.80035 1.37946 -1.09327 -18.06994 219.7 169)"/><circle r="1" fill="#af8484" transform="matrix(-2.65603 1.07176 -2.62165 -6.49695 160.8 130)"/><path fill="#171818" d="M238.7 59.6l7.4 3.2-16.8 39.6-7.4-3.2z"/><path fill="#b2ab9c" d="M1.7 138l30 9.2-33.5-18.7 8.4 18.1z"/><path fill="#573f3b" d="M65 163l41-12L1 129z"/></g></g></svg>