<svg xmlns="http://www.w3.org/2000/svg" viewBox="0 0 3168 4752"><defs/><filter id="a"><feGaussianBlur stdDeviation="12"/></filter><rect width="100%" height="100%" fill="#4b4437"/><g filter="url(#a)"><g fill-opacity=".5" transform="translate(9.3 9.3) scale(18.5625)"><circle r="1" fill="#bbba88" transform="matrix(78.48727 5.98534 -12.84735 168.47037 70.5 108.8)"/><ellipse cx="107" cy="197" fill="#ab907e" rx="124" ry="36"/><path fill="#b6d5cb" d="M164.7 20.3l-.3-35.9L19.8-16l69.5 27.5z"/><circle r="1" fill="#bac3d9" transform="matrix(5.26735 -18.16387 22.4845 6.52029 39.5 59.3)"/><path fill="#586b42" d="M64 25h106v115H64z"/><circle r="1" fill="#5a3a21" transform="rotate(-57.8 124.4 57.7) scale(16.532 63.67133)"/><circle r="1" fill="#262717" transform="rotate(58.7 -47.2 207.3) scale(19.64981 33.23337)"/><circle r="1" fill="#b49f1d" transform="rotate(135.6 -16.9 41.4) scale(13.7058 91.41059)"/><circle r="1" fill="#2a422a" transform="rotate(-73.6 30.2 -5.2) scale(10.1383 33.19491)"/><circle r="1" fill="#78614f" transform="rotate(-127.7 119.4 89.2) scale(23.18608 70.53964)"/><path fill="#3d2619" d="M37 160l-17 28 23-1z"/><path fill="#413e1e" d="M100.6 98.1l-63.6 41 54.3-3.2 8.3-7.1z"/><circle r="1" fill="#9a9678" transform="rotate(177.1 61.7 37.6) scale(37.22521 11.22285)"/><ellipse cx="46" cy="205" fill="#cab792" rx="32" ry="11"/><circle r="1" fill="#bebdba" transform="matrix(5.38532 -10.31994 13.35056 6.9668 74 173.3)"/><path fill="#a9bf9d" d="M69 0h27v36H69z"/><path fill="#120d01" d="M171.3 255.3l-8.8 1.7-7.8-40.3 8.8-1.7z"/><circle r="1" fill="#a0ac59" transform="matrix(11.33115 5.28552 -11.29895 24.2228 102.6 140.3)"/><circle r="1" fill="#a49370" transform="matrix(-6.28667 1.64928 -6.39211 -24.3653 150.2 229.2)"/><circle r="1" fill="#556a5a" transform="rotate(-164.9 79.9 6) scale(40.97595 20.47639)"/><path fill="#ecf1f1" d="M35 57h25v10H35z"/><path fill="#b18872" d="M84 219l-100 46 49-49z"/><path fill="#fff" d="M81 5l-6-20 27 18z"/><path fill="#a8aa8c" d="M16 110l28-18 22 34z"/><circle r="1" fill="#474038" transform="matrix(5.83293 -3.11584 15.23396 28.5184 75.3 72)"/><path fill="#3a3e2d" d="M144 101h26v86h-26z"/><circle r="1" fill="#4c342b" transform="matrix(-12.32842 .17558 -.1435 -10.07536 8.2 227.8)"/><path fill="#a6a193" d="M129.1 205l17.8-15.8-54.4-7.4-9.4 28.7z"/><path fill="#c5b486" d="M12 76.2l-13.6-6.6 9.7-19.8 13.5 6.6z"/><path fill="#708a52" d="M98.5-9.9l-99.9-4.6L4 39.7l-2.4-12z"/><circle r="1" fill="#b19c72" transform="matrix(21.71243 -20.8482 12.77833 13.30804 0 178.2)"/><path fill="#7d8968" d="M142.3 109.3L29.6-16l83.7 49.5 20.6 3.8z"/><path fill="#846c5b" d="M114 271h45l-73-59z"/><circle cx="80" cy="195" r="6" fill="#1c2f45"/><path fill="#171412" d="M17 129l-33-12 23 20z"/><circle r="1" fill="#3f4938" transform="matrix(41.81379 -13.1819 1.72276 5.46468 17.4 26.9)"/><path fill="#443227" d="M131.5 245.6L120 209l20.3 12.3-38.1 8z"/><path fill="#8a888b" d="M12 33h16v48H12z"/><path fill="#4c4238" d="M125 168l36 50-11-33z"/><path fill="#757b78" d="M45.1 90.3L43 62l36.1 54.4-59.3-10z"/><ellipse cx="41" cy="89" fill="#c6cbcc" rx="2" ry="27"/><circle r="1" fill="#c4b635" transform="matrix(16.313 6.34962 -2.03146 5.21909 46.5 119.2)"/><path fill="#0d0f07" d="M158 125l27-50v97z"/><ellipse cx="165" cy="10" fill="#657352" rx="7" ry="93"/><path fill="#574a34" d="M48.8 191.2l-11.4 2.3-21.6-20.3 19.6-.8z"/><path fill="#3d251b" d="M99 183l6-6-12-4z"/><path fill="#c6c6c6" d="M80.6 184.5l17.9-23.8 15.5 9-39.4-.5z"/><path fill="#b3a386" d="M165 182h5v27h-5z"/><path fill="#404b34" d="M144.7 25.7l-14.2 8 22.7 20.4 31.8-7.8z"/><path fill="#826d17" d="M16.7 128.7l17.6-3.8-46.5-16.2 32.9-27.8z"/><path fill="#72665d" d="M170.9 168.6l-34.5-16.3 21.6-16.2-23.4 56.3z"/><path fill="#474c4c" d="M28.5 73.4l6.9-1.8 4.1 28.8-10.1-11.9z"/><path fill="#aab26d" d="M63 146l69-22-52 34z"/><path fill="#52382e" d="M33 249l22 22-58-24z"/><path fill="#b28675" d="M32 242h61v8H32z"/><path fill="#543f30" d="M116.8 181l-3.6-10.6 62 16.1-49.6-11.3z"/><path fill="#2c2826" d="M64 78V68l29 11z"/><path fill="#634b3b" d="M64 211l47.4 18.1-27-16.5L72 221z"/><path fill="#b4a57e" d="M116 226l-16-10 12-57z"/><path fill="#a09671" d="M65 82h13v22H65z"/><path fill="#9a9489" d="M109.5 217l-34.7-46.8-29.9-18.9-8.4-.1z"/><path fill="#597f90" d="M108 206l-13-28 3 31z"/><circle cx="24" cy="94" r="8" fill="#d1b432"/><path fill="#473720" d="M5 198.4l9.7-5.2 2.3 4.4-9.7 5.2z"/><path fill="#beb3a2" d="M103 64l7 8-5 22z"/><path fill="#91a08d" d="M171.2-16L130 33.9l-6.7-21.3L62-16z"/><path fill="#85946c" d="M124.7 39.9L13.3-3.8l118.2 62.1 21.5-9.9z"/><path fill="#3a2d25" d="M21 144l-33-3 22 12z"/><path fill="#856a40" d="M125.4 194.6l-17-.2.2-9 17 .2z"/><path fill="#c2cbcd" d="M124.1-16L82.4-1.7l80-11.7-39.1 28.9z"/><path fill="#b69a81" d="M97.7 230.7l-16.4 12.6-3.3-6.5L-5.4 187z"/><path fill="#42452c" d="M74 109h25v25H74z"/><path fill="#72853d" d="M138.2 99.3l-4.7 20.4-47.7-11 4.7-20.4z"/><circle r="1" fill="#585f2a" transform="rotate(-9.8 936.7 -566.9) scale(28.07123 1.57385)"/><path fill="#807c77" d="M36.8 36.3L35 57.2l-39.8-3.5L-3 32.8z"/><path fill="#4d5047" d="M44 74h6v27h-6z"/><path fill="#ceaf90" d="M87 181h8v36h-8z"/><path fill="#6b661d" d="M-.5 120.6l24.9 15.7 33.2-11.1-5.3 27.4z"/><path fill="#baa68a" d="M117 249l8-6 3 12z"/><path fill="#b89e7c" d="M141 224l-5 7 6 11z"/><path fill="#e1cd46" d="M11 75.8l-27-4.5v4L9 61.6z"/><path fill="#beaeae" d="M117 196.5l23.8-7.7 2.2 6.7-23.8 7.7z"/><path fill="#45542c" d="M106.1 93.1l14.8-13.3 1 22.9-13.5-18.2z"/><ellipse cx="120" cy="5" fill="#484f4e" rx="2" ry="29"/><path fill="#484a59" d="M27.1 106.2l11-4.8 2.8 6.4-11 4.8z"/><circle r="1" fill="#78564d" transform="matrix(11.51537 -2.5433 1.6903 7.65324 62.5 236.7)"/><path fill="#68534a" d="M62 248h47v8H62z"/><path fill="#424d46" d="M53 16.2l-1-16 7-.4 1 16z"/><path fill="#5b3f23" d="M116 202h4v38h-4z"/><path fill="#7a5d44" d="M26.3 162l22 12.6 7.8-19.9 6 26.3z"/><path fill="#6a7356" d="M74 69l76-6-81-32z"/><path fill="#aa9e3b" d="M56.3 121.3L7.9 125l21.7-14.3-2 28z"/><path fill="#4d423b" d="M-14 114.7l12.5 11.1 22.1 10.7L-16 68.9z"/><path fill="#b49e84" d="M41.6 214L76 150l-.7 25.1-34.8 76.1z"/><path fill="#4d4147" d="M135 190l6 18-9 25z"/><path fill="#bcbab1" d="M8 46h30v4H8z"/><path fill="#232f00" d="M126.3 119.9L118 130l-2.4-1.9L124 118z"/><path fill="#857a79" d="M127.5 232.2l1.9-7.7 12.7-24.6-17.1 1z"/><path fill="#808f52" d="M158 78l-55 28h38z"/><path fill="#9d9487" d="M162.3 165.3l.3 4-19 1.4-.2-4z"/></g></g></svg>