<svg xmlns="http://www.w3.org/2000/svg" viewBox="0 0 3168 3168"><defs/><filter id="a"><feGaussianBlur stdDeviation="12"/></filter><rect width="100%" height="100%" fill="#345"/><g filter="url(#a)"><g fill-opacity=".5" transform="translate(6.2 6.2) scale(12.375)"><circle r="1" fill="#d8cebb" transform="rotate(148 56.3 101.7) scale(255 151.12379)"/><ellipse cx="96" cy="33" fill="#3d6089" rx="255" ry="53"/><circle cx="189" cy="222" r="100" fill="#bfa895"/><circle r="1" fill="#583739" transform="matrix(-5.69793 38.88384 -20.07792 -2.94216 80.5 170.5)"/><circle r="1" fill="#233a44" transform="matrix(-171.38544 2.63812 -.11453 -7.44053 104.6 53.4)"/><circle r="1" fill="#b89f90" transform="matrix(-28.97254 -103.07309 39.53886 -11.11387 31.6 221.5)"/><circle r="1" fill="#6876a0" transform="matrix(243.08244 -13.97836 1.46268 25.43583 102 16)"/><circle r="1" fill="#5e827a" transform="matrix(-254.66292 13.10714 -.9929 -19.29151 86.6 78.7)"/><path fill="#cfdcff" d="M146 197l-48-25 5 20z"/><ellipse cx="86" cy="199" fill="#4c4556" rx="36" ry="6"/><circle r="1" fill="#bac8fc" transform="rotate(68.8 -115 133.2) scale(5.03825 18.60963)"/><ellipse cx="122" cy="241" fill="#b19d8d" rx="91" ry="35"/><circle r="1" fill="#85988d" transform="matrix(-95.91555 -5.96924 2.466 -39.62452 165.2 119)"/><path fill="#3b1e1a" d="M179 72l-21-7 12-20z"/><path fill="#2f261f" d="M78 163l-2-26-21 42z"/><path fill="#ada896" d="M-16 117l133-12-53 29z"/><circle r="1" fill="#7c8ca8" transform="rotate(-76.8 99.4 -122.5) scale(20.49769 68.80921)"/><circle r="1" fill="#3e566b" transform="matrix(4.48995 18.0082 -53.2517 13.27714 74.6 50.5)"/><path fill="#a48477" d="M87 148l-19 19 62 8z"/><ellipse cx="78" cy="94" fill="#73908d" rx="253" ry="14"/><path fill="#835c57" d="M55 214.6l-10.4 5.6-29.4-16.1 4.6-1.8z"/><path fill="#8a83a1" d="M127.6 195.7l-28.7-9.2-.6-31.2-4.2 41.1z"/><path fill="#978d80" d="M64 164l6-37-86 2z"/><path fill="#4a3e35" d="M87 210l6-12H53z"/><ellipse cx="73" cy="50" fill="#2b4151" rx="94" ry="5"/><path fill="#56678b" d="M186 46H23L123-9z"/><path fill="#979388" d="M102 124h154v36H102z"/><path fill="#6e6d85" d="M48.8 170.7l15.9 18.4-15.9 10 61.1 3.4z"/><path fill="#44362f" d="M71 154.4l-3-7.4 23-9.4 3 7.4z"/><path fill="#aa978a" d="M153.9 198.1l-8.7-3L5 228.2l107.3 38.7z"/><path fill="#4b3a36" d="M68.7 160.9l-15.2 12.5 25.8-7.7 26.6-2.4z"/><path fill="#c9cee7" d="M40.4 200.8L60 183.5l-21.2 10.1-14.5 4.2z"/><ellipse cx="185" cy="2" fill="#8a99b3" rx="32" ry="6"/><path fill="#817f72" d="M48 130l6 14 48-13z"/><ellipse cx="14" cy="70" fill="#557172" rx="105" ry="13"/><path fill="#554336" d="M88 136l12 8 3 24z"/><circle cx="89" cy="155" r="6" fill="#bf9d95"/><path fill="#849cbe" d="M48.1 204.2l21.7-32.7-9.3 4.4-1.4 11.6z"/><circle r="1" fill="#dae2ff" transform="rotate(29.2 -297.4 312.9) scale(17.9973 1.92461)"/><path fill="#4d2826" d="M91.1 176.2l-8.4 5.5-3.8-6 8.4-5.4z"/><path fill="#000100" d="M172 65l-4 3-2-8z"/><circle r="1" fill="#677798" transform="matrix(60.63892 8.71815 -1.90672 13.26217 225 26.1)"/><ellipse cx="156" cy="147" fill="#86817b" rx="35" ry="5"/><ellipse cx="245" cy="132" fill="#989e94" rx="90" ry="13"/><path fill="#766c63" d="M54 151h5v33h-5z"/><path fill="#e0e5fe" d="M125 192h17v3h-17z"/><path fill="#796760" d="M131.3 218.7l4-8 5.4 2.6-4 8z"/><path fill="#c19384" d="M62 140h5v21h-5z"/><path fill="#d7bac0" d="M84 169l2-6 2 4z"/><path fill="#4a5c7e" d="M6-16l64 60-86 1z"/><circle r="1" fill="#405d6b" transform="matrix(84.62419 1.21064 -.08286 5.79193 55.5 59)"/><ellipse cx="184" cy="56" fill="#4f657a" rx="84" ry="2"/><circle r="1" fill="#2a3640" transform="matrix(5.9434 -9.8438 2.52612 1.5252 63.3 171)"/><circle r="1" fill="#83978d" transform="matrix(88.15972 -6.47404 .87623 11.93198 21.8 105)"/><path fill="#9b8d82" d="M84.7 212.5l21.1 14.3 13.1-23.3-24.4-2.2z"/><path fill="#4c3f38" d="M104 198h17v3h-17z"/><path fill="#6a8485" d="M201 78L89 70l32 24z"/><path fill="#90887f" d="M222.3 144.3l-70.1 3 32 9.7 74.1.9z"/><path fill="#8b8297" d="M131.6 202.8L87 176.4l16.2 27.9 5.6-8.3z"/><circle r="1" fill="#658288" transform="rotate(-83.5 160.7 -94.9) scale(14.84169 61.8406)"/><circle r="1" fill="#979389" transform="matrix(16.61972 31.38919 -19.97589 10.57669 31.6 157.5)"/><path fill="#9c978c" d="M99.2 137.6l8.9 38.3 18.4 12.5 34-26.5z"/><path fill="#8f7d7a" d="M169 62l2-9 6 4z"/><path fill="#514439" d="M64 201h28v7H64z"/><path fill="#7e6358" d="M56 216.3l.6 4.9-21.2-8.3 3.6 8.5z"/><path fill="#556e79" d="M57.5 65.5l116.4 9.9-14.6-13.8 11.2-8.2z"/><path fill="#624138" d="M92 189l-23-22 5 14z"/><circle r="1" fill="#a99d8f" transform="rotate(-48 339.8 -116.5) scale(37.53541 46.39171)"/><path fill="#a1a5c1" d="M103 184l3 11-14-4z"/><circle cx="199" cy="45" r="5" fill="#36445c"/><path fill="#bcc1de" d="M118 192.6l-18.3-7-1.7-9.7 5.5-3.8z"/><path fill="#2d2420" d="M169.7 60.5L165 59l3.4-11.6L173 49z"/><ellipse cx="6" cy="83" fill="#6a8481" rx="33" ry="9"/><ellipse cx="57" cy="124" fill="#a79c91" rx="43" ry="6"/><path fill="#937c76" d="M47.9 197.2l23.2 10.1-19.2 7.8 3.3-17.9z"/><circle cx="58" cy="188" r="5" fill="#bcc6e4"/><circle r="1" fill="#84968d" transform="rotate(179.4 103.2 57.5) scale(52.9276 17.82799)"/><circle r="1" fill="#b27c71" transform="matrix(1.31593 2.05766 -4.11694 2.6329 88.6 181.8)"/><circle r="1" fill="#aa9d90" transform="rotate(-20.7 713.5 -92) scale(77.34906 13.95097)"/><circle r="1" fill="#8a8b80" transform="matrix(-53.57474 -11.8932 1.44736 -6.51986 124 141)"/><path fill="#515579" d="M75 186.7l-11.5 2 1-10.6 9.1-6.3z"/><path fill="#ac8581" d="M86.8 176.2l-.8-.7 13.2-13.7.8.7z"/><path fill="#3a4a5b" d="M227.2 53.4l6.3-10.5L271 60l-36.3-6.6z"/><path fill="#48362e" d="M67 148h12v8H67z"/><path fill="#8a8782" d="M-10.8 127.8l23.9 2.5-2.3 21.9-23.9-2.5z"/><path fill="#2d3f3f" d="M160.2 61.2l12.1 15.1 5-6.1-10.4-3.6z"/><path fill="#645953" d="M88.8 141.7l-22.6 14 27.2-26.4-5.1 2.5z"/><path fill="#4b302f" d="M79 161l-7 5 13-2z"/><ellipse cx="207" cy="47" fill="#25384d" rx="215" ry="1"/><path fill="#a98980" d="M79.2 158.8l.7-6 18.9 2.4-.7 6z"/><path fill="#b2887e" d="M121.9 213.9l22.6-20.8 5.4 9 4.9 2.9z"/><path fill="#af8882" d="M75 167h28v4H75z"/><path fill="#7f8678" d="M66 138l49-6-4-14z"/><path fill="#492d2a" d="M89 161h4v4h-4z"/><path fill="#705048" d="M101.8 158.9l1.1 12.7-27.1 3.1 20.4 5.9z"/><path fill="#9e988f" d="M65.6 148.1l10.5-10-55.2 32.2 7.6-31z"/><circle r="1" fill="#5a6c8c" transform="matrix(-1.14059 7.80367 -59.17536 -8.64912 130 35)"/><path fill="#c4988b" d="M45 208h8v8h-8z"/><path fill="#babad7" d="M145 195.1l-23.2.6 10.7 4.2 1.4-3.1z"/><path fill="#887f76" d="M58 183.3l3.6-42.8-19.9 39.2 5.6 10.2z"/></g></g></svg>