<svg xmlns="http://www.w3.org/2000/svg" viewBox="0 0 1800 1012"><defs/><filter id="a"><feGaussianBlur stdDeviation="12"/></filter><rect width="100%" height="100%" fill="#304965"/><g filter="url(#a)"><g fill-opacity=".5" transform="translate(3.5 3.5) scale(7.03125)"><circle r="1" fill="#d9e5f8" transform="matrix(-243.49797 13.00451 -2.82459 -52.8879 144.6 39.3)"/><circle r="1" fill="#474a4c" transform="matrix(-15.93113 -30.98834 57.98701 -29.81117 145.3 109)"/><circle r="1" fill="#fcf0dd" transform="rotate(175.2 69.6 26.8) scale(45.41597 13.76517)"/><path fill="#a9bcd2" d="M207 25h49v70h-49z"/><circle r="1" fill="#4775b3" transform="rotate(174.4 59.3 3.2) scale(237.5716 24.96071)"/><ellipse cx="14" cy="72" fill="#b2b0ab" rx="128" ry="23"/><path fill="#434f5e" d="M89 81h120v58H89z"/><circle r="1" fill="#2e3843" transform="matrix(-4.85322 33.91545 -69.80376 -9.98874 39.5 131.4)"/><ellipse cx="207" cy="21" fill="#779ece" rx="105" ry="16"/><circle r="1" fill="#454a4f" transform="rotate(-128.5 104.2 -1.9) scale(18.92579 15.27452)"/><ellipse cx="151" cy="43" fill="#d2d3d5" rx="59" ry="9"/><path fill="#7b96ba" d="M0 25h120v35H0z"/><ellipse cx="241" cy="71" fill="#9ca7b3" rx="40" ry="25"/><path fill="#566272" d="M121 97h49v40h-49z"/><circle r="1" fill="#53719d" transform="rotate(-97.3 28.9 -25.4) scale(16.12109 128.44479)"/><path fill="#a59076" d="M70.2 96.2l-81.6-1.4 115.1-15.1 13.1 7.9z"/><circle r="1" fill="#3e3c39" transform="matrix(-37.62406 4.22021 -.4721 -4.20883 120 90.9)"/><circle r="1" fill="#98a5b4" transform="matrix(8.41633 20.3188 -22.1591 9.1786 199 53.3)"/><path fill="#aab6be" d="M132 82l37-30L64 70z"/><path fill="#c9c3bc" d="M37.1 59.7l-25.6 8.4 2.4 11.1 30.2.2z"/><path fill="#86898c" d="M169 50.1l82.9 8.6-101.7 8.4 5 22.9z"/><path fill="#807460" d="M134.8 78.4l12.8 5.5 6.4 11.6 17.4-42.4z"/><path fill="#f7eee1" d="M119 38h47v11h-47z"/><path fill="#24323d" d="M245.3 153.2l-82.2-11.5 1.6-11 82.2 11.6z"/><path fill="#0e202e" d="M79 137h44v6H79z"/><path fill="#364e68" d="M220 109l-55 15 10-62z"/><path fill="#283c51" d="M143 113L89 95l-53 38z"/><path fill="#2b3440" d="M130.3 82.8l-22-1.6 33.1 16 7.2-4.6z"/><path d="M26 141h27v2H26z"/><path fill="#9eafc2" d="M94 33l51 38-97-1z"/><path fill="#cabeaf" d="M45.9 85.2L43.4 89l-14.3 3.4 41.5-.1z"/><path fill="#dac1a1" d="M80 94l7 1-5-13z"/><path fill="#909093" d="M-16 98.2v1.2l7.7-23.5 78 10.8z"/><path fill="#425369" d="M188 85l31 15-21-31z"/><path fill="#425063" d="M67 121l-80-11 34 27z"/><path fill="#4c5a6b" d="M80 119h72v16H80z"/><path fill="#414140" d="M109 89.7l-26.5 2 18.6 5.9-5.8-14z"/><circle r="1" fill="#6b84a8" transform="matrix(59.91967 -6.02445 1.46012 14.52252 21.8 28)"/><path fill="#a3aab0" d="M183.6 49.8L198 69l-9.6 7.2L174 57z"/><circle r="1" fill="#93adcd" transform="matrix(71.83575 19.8787 -2.14308 7.74446 230.5 47.8)"/><path fill="#324356" d="M42.6 109.5L73 89.3l3.3 6.4 55.3 26.2z"/><path fill="#a2a9b1" d="M210 78h46v13h-46z"/><circle r="1" fill="#4d6a89" transform="matrix(9.98442 -2.93858 1.45637 4.9483 249.4 123)"/><path fill="#c3bdb3" d="M111 50h58v14h-58z"/><ellipse cx="133" cy="79" fill="#cabda9" rx="14" ry="2"/><path fill="#162532" d="M22 127h63v3H22z"/><path fill="#d3c4ac" d="M84 82l13 9-4-7z"/><path fill="#b3a48e" d="M111.6 92l-5.7-11.7 4.5-2.2 5.7 11.6z"/><circle r="1" fill="#668ec0" transform="matrix(.08582 -10.12323 60.40577 .51206 218.5 8.8)"/><path fill="#34404f" d="M160 61l2 28-5-14z"/><path fill="#d6cfc8" d="M108 48l-9-13-4 9z"/><path fill="#8ba5c4" d="M117 27h95v9h-95z"/><path fill="#202a35" d="M14 128l13 30-43-29z"/><path fill="#253645" d="M124.2 116.7l9.4-9.2 24.8 10-33.3-3.9z"/><path fill="#7b8da5" d="M175 55h58v8h-58z"/><path fill="#1c3244" d="M179 119h46v4h-46z"/><path fill="#657082" d="M156 109l-30-4 6-9z"/><path fill="#2a333d" d="M45 95h64v2H45z"/><path fill="#7d98ba" d="M83.1 22.2l27.3 26 10.2-11.9 82.2-24z"/><path fill="#b2b7bf" d="M178.1 59.3l39.7-14.9-40.6-6.4-5.1 15.1z"/><circle r="1" fill="#8ea4bb" transform="matrix(39.70448 2.60122 -.8027 12.2521 74.7 60.4)"/><ellipse cx="82" cy="116" fill="#152737" rx="20" ry="3"/><path fill="#3b536d" d="M181 120l48-29-66 12z"/><path fill="#5d5b53" d="M93.5 81l27-1v3l-27 1z"/><path fill="#485362" d="M170 55l2.3 35.5 46.2 7.3-33-23.5z"/><path fill="#fffffd" d="M51 89h10v2H51z"/><path fill="#33465c" d="M95 116L85 87l30 18z"/><path fill="#6284b2" d="M199.7 5.3L97.3 23.4l-3-16.7 102.4-18.1z"/><path fill="#23272e" d="M86 92h22v4H86z"/><path fill="#6b6962" d="M128.4 79l-.2-.9 45.4-7.2.2 1z"/><path fill="#615a50" d="M96 81v11l14-3z"/><path fill="#0f2231" d="M187 136h26v3h-26z"/><path fill="#726f66" d="M139 76l24-19 2 12z"/><path fill="#deddd7" d="M38 64l-9.2 6.1L26 66l9.2-6.1z"/><path fill="#394f67" d="M96 112l-38-3 56-13z"/><path fill="#797b7f" d="M125 142h29v1h-29z"/><path fill="#495566" d="M23 133h48v3H23z"/><path fill="#5f6875" d="M134 116h30v7h-30z"/><path fill="#111f27" d="M133 136l8 5 12-2z"/><path fill="#202f3d" d="M50 135h36v6H50z"/><path fill="#182734" d="M-16 104l36 3-34 8z"/><ellipse fill="#55729d" rx="67" ry="11"/><path fill="#b5936f" d="M55 93h27v2H55z"/><path fill="#303e4f" d="M118 82h16v8h-16z"/><path fill="#0d1d28" d="M157 132h16v3h-16z"/><path fill="#435d7a" d="M239.8 134l1.3 15-11 1-1.2-15z"/><path fill="#9fadb9" d="M124 58L61 82l70-4z"/><path fill="#42556b" d="M48 120h32v6H48z"/><ellipse cx="55" cy="81" fill="#9d9f9f" rx="37" ry="5"/><path fill="#435263" d="M187.7 129.4L140.4 145l42.5-8.6h50.6z"/><path fill="#d4cfc6" d="M124.5 58.1l53.7-9.1-61.7-1.9 2.8 10.3z"/><path fill="#e5d1b5" d="M65.5 92.3l-29-1.6v-1l29 1.6z"/><path fill="#2f3c4d" d="M158 73l20 24-18-9z"/><path fill="#cbbba5" d="M114 86l-8-5-2 5z"/><path fill="#182a39" d="M126.8 111.8l2.5 1.9 20.7 3.7-2.2-2.3z"/><path fill="#a0aab3" d="M185 75.7l-3.3-10.5 15.2-4.9 3.4 10.5z"/><circle r="1" fill="#3b5978" transform="matrix(1.10549 2.01329 -22.09977 12.13487 238 106)"/><path fill="#101a23" d="M6 137h31v2H6z"/><path fill="#3e4957" d="M153.4 81.5l25.9-3.2-6.5-16.3 12.1 8.4z"/><path fill="#8ba8cc" d="M272.6 33.6l-.2 14-67-1.2.2-14z"/></g></g></svg>