<svg xmlns="http://www.w3.org/2000/svg" viewBox="0 0 1800 1200"><defs/><filter id="a"><feGaussianBlur stdDeviation="12"/></filter><rect width="100%" height="100%" fill="#32505d"/><g filter="url(#a)"><g fill-opacity=".5" transform="translate(3.5 3.5) scale(7.03125)"><circle r="1" fill="#eeb195" transform="matrix(-39.23866 -86.50114 232.22434 -105.34163 107.7 55.4)"/><circle cy="84" r="52" fill="#570d00"/><ellipse cx="120" cy="59" fill="#531300" rx="55" ry="28"/><circle r="1" fill="#fff" transform="matrix(.35078 28.20708 -42.71935 .53125 255 57)"/><circle r="1" fill="#d1d4e3" transform="rotate(24.8 -238 292.3) scale(45.95093 36.09315)"/><circle r="1" fill="#321612" transform="matrix(-35.3482 -38.44087 38.24177 -35.1651 201.3 128.3)"/><circle r="1" fill="#c8d1d7" transform="matrix(.65578 18.90311 -92.24894 3.20025 123.1 16)"/><path fill="#fff" d="M58.3 92.5L42.5 40.8l17.2-5.3 15.8 51.7z"/><ellipse cx="137" cy="169" fill="#936c5f" rx="24" ry="46"/><path fill="#e4efee" d="M176.9 108.2l11.8-6.7-63.8-30.2.8 1.7z"/><circle r="1" fill="#f3ffff" transform="matrix(26.448 -4.53954 1.99904 11.64672 87.4 103.4)"/><path fill="#c2bfc6" d="M214 109.7l2.1-19.7 42.9 11-14.2-.5z"/><path fill="#000012" d="M126.4 107l25.3 1.3L122.2 79l4.2-1.5z"/><circle r="1" fill="#0d0202" transform="rotate(9.6 -777.6 1187.7) scale(20.38707 40.79135)"/><path fill="#4c2814" d="M179.5 28.2l25.3 4.5-118.1 5.2 81.1 56.7z"/><path fill="#6f421f" d="M41.5 30.8L61.8 100-16 154.5V-8z"/><path fill="#d9d8c4" d="M189.7 81.3l-22-11.7 20.6-38.9 22 11.7z"/><path fill="#f3ffff" d="M222 33h34v36h-34z"/><path fill="#aaa2a2" d="M171 161L45 109l-61 50z"/><path fill="#532208" d="M63 34h28v17H63z"/><path fill="#222b30" d="M124 149l50-19-17-20z"/><path fill="#020000" d="M172.8 153.8l110.6-17.5 1.8 11.9-110.6 17.5z"/><path fill="#16222b" d="M137 69l-1.4 3.4 57.9 30.5-8.3-25.8z"/><circle r="1" fill="#abb1b1" transform="matrix(1.6164 16.82759 -61.24512 5.883 204.2 8.7)"/><path fill="#7e4927" d="M76 35h47v54H76z"/><path fill="#a3725f" d="M208.4 160.7l24.5 3.5 26.6 20.8 11.5-33.5z"/><circle r="1" fill="#f1ffff" transform="matrix(21.97418 4.91181 -.93491 4.18255 64.4 27.4)"/><ellipse cx="164" cy="169" fill="#682c19" rx="121" ry="5"/><ellipse cx="183" cy="104" fill="#bec5c5" rx="29" ry="2"/><path fill="#534a4c" d="M192 126l24-31 55 35z"/><circle r="1" fill="#e3e5ef" transform="matrix(26.79748 -9.58608 4.09223 11.43964 72.9 112.1)"/><path fill="#320900" d="M207.3 29l-45.7 14.8-.9-2.8 45.7-14.8z"/><circle r="1" fill="#724424" transform="matrix(5.438 -18.79794 4.9475 1.43125 205.8 60.9)"/><path fill="#a0a7a7" d="M138.3 73.5L127 76.4l6.5 14.4 44.1 7.7z"/><path fill="#926258" d="M271 139l-21.9-25.9-17.6-26.4 37.4-3z"/><ellipse cx="153" cy="27" fill="#8c827f" rx="33" ry="9"/><path fill="#75797a" d="M176.2 108.3l2.2 19.5-3.1 3.8-48-57.8z"/><path fill="#2d5656" d="M38 37L23 21l57 17z"/><path fill="#451a0c" d="M142 37l29 19 12-21z"/><path fill="#9c9bb3" d="M102 88h22v10h-22z"/><path fill="#d7e6de" d="M46.3 27l26.8 60.5-16.4.4-8.5-22.8z"/><circle r="1" fill="#b5c3e7" transform="rotate(76.1 -6.2 142.1) scale(6.69392 13.85786)"/><path fill="#5f381f" d="M5 14l-19 98 29 44z"/><path fill="#887e7e" d="M72.7 143.4l59.4-34.4-71.3 21.9-44.9-33z"/><path fill="#5b352c" d="M-.6 131.7l3.7 9.9 84.5-65.4 10.8 5.4z"/><path fill="#92817d" d="M77 168l57-43 33 38z"/><path fill="#8f715e" d="M52 65L35 30l-43 1z"/><path fill="#fff" d="M220.2 90.3l26 10.5-.4 1-26-10.6z"/><path fill="#b7bfc1" d="M263.9 88.9L226 79.3l-12 1.1-3.1-24.3z"/><ellipse cx="30" cy="7" fill="#99908d" rx="24" ry="15"/><path fill="#bbb9b3" d="M9 185l-25-71 31 45z"/><circle r="1" fill="#eaf0e7" transform="matrix(.48097 1.56342 -41.51605 12.772 249.8 12.7)"/><path fill="#000b1c" d="M154 108l-27-25 4 17z"/><path fill="#0e0b0f" d="M168 131h88v7h-88z"/><path fill="#4c2a20" d="M.2-16L-16 16.4l48.4 9.2-19.5 1.8z"/><path fill="#9c7f6d" d="M237 141.4l-31.4 6.1-.6-3 31.4-6z"/><path fill="#6f6c68" d="M229 70l11-1-12 13z"/><ellipse cx="117" cy="64" fill="#90532d" rx="32" ry="11"/><path fill="#b9c2c9" d="M79 24h52v11H79z"/><circle r="1" fill="#c3c1c4" transform="rotate(-43.7 244 -79.6) scale(20.81196 2.75761)"/><path fill="#cfd2d2" d="M188-18.2l15.3 19.7-21.2 16.7-15.4-19.7z"/><path fill="#5a3f3a" d="M250.3 85.4l-15.2-4.2 35.9 24.9-92.7-27.2z"/><circle r="1" fill="#61626d" transform="matrix(-21.10919 18.30654 -1.73005 -1.99491 127 133.7)"/><path fill="#141313" d="M190.7 121l-.6.8L141.3 85l.6-.8z"/><path fill="#dbdac7" d="M179 62.1l-8.8 12.1L167 72l8.8-12.1z"/><path fill="#eff6f3" d="M224.3 95.9l.3-1 61 15.2-.2 1z"/><path fill="#e6e4e1" d="M167 102l-7-15 24 15z"/><path fill="#905e4a" d="M40.2 38l-8-19.2 16.4 102.4 10.3-29.8z"/><ellipse cx="227" cy="5" fill="#838586" rx="26" ry="11"/><path fill="#0a070b" d="M165 128h17v35h-17z"/><ellipse cx="129" cy="169" fill="#421c14" rx="45" ry="4"/><path fill="#d8d4d8" d="M147.6 112.2L97.2 141l5.1 7.6 24.4-20.8z"/><path fill="#fffff8" d="M245 158h3v6h-3z"/><path fill="#ddf2e4" d="M45 37h13v12H45z"/><circle r="1" fill="#72717a" transform="rotate(151.2 29.7 71.4) scale(30.72505 1.98937)"/><path fill="#554e4d" d="M113 157l50-23-8-16z"/><circle r="1" fill="#6d3a15" transform="rotate(-144.8 17.2 37.6) scale(22.42709 36.73224)"/><path fill="#cdd0da" d="M107.5 110.2l-2.3 2.4-36.6 25.5 54.8-30.6z"/><ellipse cx="66" cy="164" fill="#786966" rx="48" ry="5"/><path fill="#474748" d="M218.8 31.5L180.3 101l38.3 3.3-19.9-25.1z"/><path fill="#aca2a1" d="M39.8 141.6l17.5-2.7 90.7 22.8-116.3-1.9z"/><path fill="#dfebff" d="M77 98h45v6H77z"/><path fill="#180d10" d="M271 123.4l-18 31.2-14-8 18-31.2z"/><path fill="#dbe2e2" d="M216.6 55.4l-1 19.2 13.7 5.6 2.4-52.9z"/><path fill="#421609" d="M207 162h31v8h-31z"/><path fill="#4d271b" d="M79 84h42v4H79z"/><path fill="#8e664f" d="M91.8 89.6L76.9 42.5l34.6 28.9-42.8 30.7z"/><circle r="1" fill="#a4a199" transform="matrix(-29.9924 11.77637 -3.45083 -8.78868 204.6 16.4)"/><path fill="#2c2f32" d="M178 105h29v28h-29z"/><path fill="#7c492f" d="M-16 140.1l57.7-26.4 22-12.6-28-34.9z"/><path fill="#5d3a32" d="M59.3 39.1l8-4 21.4 41.8-8 4z"/><circle cx="56" r="21" fill="#a59892"/><path fill="#a8b5d7" d="M135 107h15v10h-15z"/><path fill="#929192" d="M172.4 110.3l23.5-8.9-35.5 13.9-36.9-39z"/><path fill="#a9b0b6" d="M227 103l-16-16 27 13z"/><path fill="#aaab9d" d="M267 16.8l-56.7 12.9-21 13.7L246 32.9z"/><path fill="#989191" d="M85-9l105 32-42 9z"/><path fill="#dbe1de" d="M271 118l-44-86 33-6z"/><path fill="#b1b0ae" d="M186 103h26v4h-26z"/><path fill="#120e12" d="M160 160l23-21 64 16z"/></g></g></svg>