<svg xmlns="http://www.w3.org/2000/svg" viewBox="0 0 1800 1200"><defs/><filter id="a"><feGaussianBlur stdDeviation="12"/></filter><rect width="100%" height="100%" fill="#333a47"/><g filter="url(#a)"><g fill-opacity=".5" transform="translate(3.5 3.5) scale(7.03125)"><circle r="1" fill="#fff" transform="matrix(-241.48973 -81.90061 19.54523 -57.6305 171.8 34.8)"/><circle cx="126" cy="168" r="131" fill="#7b735d"/><circle r="1" fill="#eff3ed" transform="matrix(-3.69518 -32.43436 80.09768 -9.12538 168.7 24.6)"/><ellipse cy="67" fill="#a4a855" rx="51" ry="43"/><ellipse cx="103" cy="88" fill="#242b10" rx="51" ry="26"/><path fill="#937f76" d="M29 118h81v52H29z"/><circle cx="212" cy="103" r="49" fill="#6a7485"/><path fill="#1d1e0f" d="M184 185L146 71l-29 25z"/><path fill="#a9b4c0" d="M152-8L20-12 123 89z"/><path fill="#3c3524" d="M70.3 138.1L15.7 89.7l55.9-36.3 32.2 9.6z"/><circle r="1" fill="#e5ad0a" transform="matrix(17.47141 12.14295 -5.45514 7.84892 24.8 46)"/><path fill="#41b9ff" d="M51.3 46l-.6 38h-8l.6-38z"/><circle r="1" fill="#eeeadd" transform="matrix(-4.09237 19.09266 -35.46994 -7.60272 205.9 34.5)"/><ellipse cx="251" cy="134" fill="#7f8ca0" rx="7" ry="220"/><ellipse cx="74" cy="39" fill="#f9ecd1" rx="23" ry="11"/><path fill="#547c91" d="M87.6 185l82.4-60.4-44.3-5.9-9 36.8z"/><path fill="#94a9c1" d="M3.3-16L211.7 1.4 16.2 28.6l-32.2 51z"/><path fill="#272c05" d="M135 52h10v18h-10z"/><path fill="#8f9dad" d="M168 83h31v39h-31z"/><circle r="1" fill="#924221" transform="rotate(148.7 -8 75) scale(15.01662 22.5064)"/><circle r="1" fill="#a8acb5" transform="rotate(-79.7 135 44.1) scale(9.32911 27.86957)"/><path fill="#1e7393" d="M46.7 29L-.8 19.9l51.3 26-.6-13.9z"/><path fill="#3f3829" d="M250.8 52.8l.2-5L237.4 25l13.6-.6z"/><circle r="1" fill="#504d4e" transform="rotate(96.7 45.7 164) scale(37.51035 29.14761)"/><path fill="#00544e" d="M-17.3 73.3l21-15.2 13.6 18.6-21 15.2z"/><path fill="#2a1d1a" d="M28 65h12v60H28z"/><path fill="#24160b" d="M163 69h16v12h-16z"/><path fill="#888682" d="M0 88h12v75H0z"/><path fill="#2e1f15" d="M187.3 146.8l-43.6-16.5 9.5 35.8 8.7 3.2z"/><path fill="#1c2412" d="M122.1 81.4l-21 25.3 69.9 18.8-3.3-21.1z"/><circle r="1" fill="#7e766d" transform="rotate(67.5 5.2 126.7) scale(11.65303 19.56009)"/><circle r="1" fill="#d5a411" transform="matrix(2.7986 -25.76155 3.5262 .38307 26.5 65)"/><path fill="#c2a31b" d="M40.8 58l-.5-20.5-16.8-3.4 22.8 65.1z"/><path fill="#46433e" d="M228.1 80l-28.8 3-1.4-13 28.8-3z"/><path fill="#1c2a12" d="M52 57h35v34H52z"/><path fill="#4c603a" d="M11 0h7v38h-7z"/><path fill="#f5f4ee" d="M243.4 23.1l-24.8-3.5 4-28.7 24.8 3.5z"/><path fill="#1345af" d="M17 49h5v48h-5z"/><path fill="#0176a6" d="M121 130h15v23h-15z"/><path fill="#597883" d="M44 98h29v12H44z"/><circle r="1" fill="#949a9d" transform="matrix(-4.61768 -4.47379 10.32036 -10.65229 92.2 122.7)"/><path fill="#6c4a15" d="M100.2 153.2l-2.9-30.5 27.4-2-13.7 34.7z"/><path fill="#8997a5" d="M151 79h78v19h-78z"/><path fill="#dae1f9" d="M4.6 89.9l2.5 11.7-11.7 2.5-2.5-11.7z"/><path fill="#762e28" d="M56 108h27v24H56z"/><path fill="#7e7d83" d="M157.3 182.6L84 172.3l2.7-18.9 73.3 10.3z"/><path fill="#c2c1c9" d="M9.1 23L-16 32.4l24.3 14 2.2-4.4z"/><path fill="#eeebdd" d="M214 46.1l34.8 8-2.8-10-13.6-8.3z"/><path fill="#484638" d="M13 89l16 27-42 21z"/><path fill="#7e8796" d="M271 111.4l-56.5 1.3-45.3 10.8 25.1 1.1z"/><ellipse cx="46" cy="90" fill="#b9ae33" rx="6" ry="7"/><path fill="#00206f" d="M9.1 47.4L-16 54.2l31.6 1.9-.5-7.5z"/><circle r="1" fill="#7c736d" transform="matrix(1.18018 -3.97384 51.96356 15.43254 149 126.7)"/><path fill="#919eb5" d="M246 77h10v68h-10z"/><path fill="#3d4345" d="M120 156l-49-8v-19z"/><path fill="#003092" d="M19 88l-5 12-9-8z"/><path fill="#838f9c" d="M210 62h8v59h-8z"/><circle r="1" fill="#946600" transform="rotate(-16.5 300.8 10.1) scale(8.20836 5.54825)"/><path fill="#383839" d="M219 130h24v27h-24z"/><path fill="#ffd279" d="M100.3 134l12.9-1.9.5 4-12.9 1.8z"/><circle r="1" fill="#d7d7d0" transform="matrix(-41.76282 9.75374 -5.29606 -22.67627 198.2 31.7)"/><path fill="#1f1f00" d="M17.7 165.4l11.2-.7-2.9 6.4-39.1-7.2z"/><path fill="#2b1b18" d="M110 117l9 27 3-26z"/><ellipse cx="23" cy="74" fill="#deb92f" rx="2" ry="27"/><path fill="#6d6972" d="M191 154l80 2v25z"/><circle r="1" fill="#efc71f" transform="matrix(4.60443 5.2596 -1.96678 1.72179 11 62)"/><circle r="1" fill="#c3bfa7" transform="rotate(169 56.3 32.2) scale(27.19839 6.99289)"/><path fill="#4891c7" d="M42 28h8v56h-8z"/><path fill="#d2d7da" d="M19 15h25v8H19z"/><path fill="#75838e" d="M214 65l-19-5 42-14z"/><path fill="#2a1f12" d="M219 100h9v12h-9z"/><path fill="#ad8a0f" d="M31.5 55.6L8.2 49.8l4.3-17.4 23.3 5.8z"/><path fill="#99a8be" d="M54 0h64v32H54z"/><circle r="1" fill="#9b8c7b" transform="matrix(-3.35198 1.90419 -7.07633 -12.4566 106.6 75)"/><path fill="#253136" d="M55 24l-1-5-9 9z"/><ellipse cx="27" cy="148" fill="#750f00" rx="3" ry="16"/><circle r="1" fill="#949593" transform="matrix(28.87527 5.84148 -.35314 1.74561 51.1 137.4)"/><path fill="#9a822f" d="M72 103l14 5v12z"/><ellipse cx="153" cy="73" fill="#8898ac" rx="8" ry="15"/><path fill="#343b27" d="M156 98l-90 2 76-24z"/><ellipse cx="251" fill="#2c3134" rx="2" ry="13"/><path fill="#6c6a3b" d="M124.4 74L75 52.1 49.1 65.7l2.6-15.3z"/><path fill="#24302e" d="M115.5 143.3l65.4 37.6-21.9-32.1-33.2-1.9z"/><circle r="1" fill="#89898b" transform="matrix(-39.5385 -7.47088 .54382 -2.87806 72.2 153.6)"/><ellipse cx="152" cy="136" fill="#43362a" rx="17" ry="5"/><ellipse cx="170" cy="61" fill="#62717d" rx="27" ry="5"/><path fill="#84a0b1" d="M120 128h25v5h-25z"/><path fill="#837e5c" d="M-16 113l36-19 17 12z"/><ellipse cx="103" cy="132" fill="#ce8400" rx="2" ry="12"/><path fill="#524f46" d="M239 39l9-15 5 15z"/><path fill="#33281b" d="M198 104h12v11h-12z"/><path fill="#1f77af" d="M58 93l4 14 13 1z"/><path fill="#8c9dac" d="M182 64h17v19h-17z"/><path fill="#52453b" d="M162 71h18v10h-18z"/><path fill="#000a18" d="M30 83l12 15-3 11z"/><path fill="#abe0ff" d="M123 141h10v3h-10z"/><path fill="#261e1b" d="M29.7 60.4l3.2 1.7 5.6 68.2L37 64z"/><ellipse cx="40" cy="71" fill="#b89f26" rx="3" ry="22"/><path fill="#1b2112" d="M157.9 128.5l-6.8-7.1-32.5-10.8 39.2-15.3z"/><path fill="#680e00" d="M16.5 172l-5-47.8 2-.2 5 47.8z"/></g></g></svg>