<svg xmlns="http://www.w3.org/2000/svg" viewBox="0 0 1800 1200"><defs/><filter id="prefix__a"><feGaussianBlur stdDeviation="12"/></filter><rect width="100%" height="100%" fill="#2b374f"/><g filter="url(#prefix__a)"><g transform="translate(3.5 3.5) scale(7.03125)"><circle r="1" fill="#fff" fill-opacity=".5" transform="matrix(15.6382 74.17103 -249.51442 52.60757 81.9 59.2)"/><ellipse cx="114" cy="44" fill="#c4e2ff" fill-opacity=".5" rx="255" ry="50"/><circle r="1" fill="#566984" fill-opacity=".5" transform="matrix(153.87007 -16.1724 4.79744 45.64459 107.3 138)"/><ellipse cx="40" cy="160" fill="#a19da1" fill-opacity=".5" rx="48" ry="17"/><path fill="#243955" fill-opacity=".5" d="M112 96.7l120.8-6.4 1.2 23-120.8 6.4z"/><circle r="1" fill="#92addd" fill-opacity=".5" transform="matrix(89.09677 24.04015 -20.28295 75.17194 238.7 11.7)"/><path fill="#c7d0e3" fill-opacity=".5" d="M-16 75l61 45 104-88z"/><circle r="1" fill="#5e697d" fill-opacity=".5" transform="rotate(147.1 22.4 84.7) scale(66.65691 26.55842)"/><ellipse cx="152" cy="84" fill="#cdd6de" fill-opacity=".5" rx="119" ry="8"/><path fill="#4c6b98" fill-opacity=".5" d="M3 96h115v7H3z"/><path fill="#061b32" fill-opacity=".5" d="M203 148h36v10h-36z"/><circle r="1" fill="#84a0d0" fill-opacity=".5" transform="matrix(-16.63023 30.69563 -75.05127 -40.66115 234 0)"/><path fill="#455a76" fill-opacity=".5" d="M140 139l131-37L92 90z"/><ellipse cx="222" cy="98" fill="#353d47" fill-opacity=".5" rx="74" ry="7"/><ellipse cx="78" cy="107" fill="#a9abb2" fill-opacity=".5" rx="59" ry="4"/><path fill="#5c6378" fill-opacity=".5" d="M-6.1 134.6l6.8-32 48.2 52.1L98.8 185z"/><circle r="1" fill="#b5c5e5" fill-opacity=".5" transform="matrix(12.79175 -35.92342 65.31298 23.2569 92.9 36.6)"/><path fill="#afaeb6" fill-opacity=".5" d="M33.9 150.9l-15.5-3.6 24.1 35.3-34.8-20.4z"/><ellipse cx="123" cy="161" fill="#7c8697" fill-opacity=".5" rx="39" ry="3"/><ellipse cx="163" cy="169" fill="#000b16" fill-opacity=".5" rx="20" ry="4"/><path fill="#cdcdcf" fill-opacity=".5" d="M204 154l-18-2 9-3z"/><circle r="1" fill="#ccd4de" fill-opacity=".5" transform="matrix(-107.36214 9.64021 -.91478 -10.18782 46.4 83.7)"/><path fill="#afc2db" fill-opacity=".5" d="M271 73L162 94 65 3z"/><path fill="#9a9eab" fill-opacity=".5" d="M94 112l-54 11-45-28z"/><path fill="#142840" fill-opacity=".5" d="M114 137h59v5h-59z"/><circle r="1" fill="#60708a" fill-opacity=".5" transform="matrix(-4.93778 -11.09043 37.85324 -16.85335 104 123)"/><path fill="#332223" fill-opacity=".5" d="M71.3 174.7l-1.1-5.9 28.5-5.5 1.1 5.9z"/><ellipse cx="245" cy="131" fill="#163152" fill-opacity=".5" rx="38" ry="5"/><path fill="#9fa0a9" fill-opacity=".5" d="M33.6 166l34.6.3 58.6-8.8L2.6 182.2z"/><circle r="1" fill="#40485b" fill-opacity=".5" transform="matrix(44.54932 -2.17883 .07196 1.4713 64.5 157.5)"/><ellipse cx="196" cy="116" fill="#425b7f" fill-opacity=".5" rx="58" ry="13"/><circle r="1" fill="#a9b9db" fill-opacity=".5" transform="matrix(-20.65083 83.44612 -40.74434 -10.0832 4 17)"/><path fill="#27384d" fill-opacity=".5" d="M119 122h37v5h-37z"/><path fill="#82848e" fill-opacity=".5" d="M98.8 146l3.4-2 15 26-3.4 2z"/><path fill="#213248" fill-opacity=".5" d="M90 142v18l15-2z"/><path fill="#63738c" fill-opacity=".5" d="M75.8 160l36-70.8L76.7 93l46.4 19.7z"/><path fill="#1f334b" fill-opacity=".5" d="M150 147h90v4h-90z"/><path fill="#7a7f8f" fill-opacity=".5" d="M69 164l-5-46-68-14z"/><ellipse cx="48" cy="96" fill="#a0b7d5" fill-opacity=".5" rx="15" ry="4"/><path fill="#c4c4c8" fill-opacity=".5" d="M51 104h42v3H51z"/><path fill="#334c6f" fill-opacity=".5" d="M228 104h28v47h-28z"/><path fill="#b5b4b9" fill-opacity=".5" d="M27 159l6-19-15 19z"/><path fill="#465671" fill-opacity=".5" d="M55 99h77v4H55z"/><path fill="#0f161e" fill-opacity=".5" d="M119 166h11v4h-11z"/><path fill="#142746" fill-opacity=".5" d="M0 152h6v5H0z"/><circle cx="35" cy="153" r="4" fill="#292f38" fill-opacity=".5"/><path fill="#291c1a" fill-opacity=".5" d="M102.6 165.5l1.6-2.5 15.2 9.5-1.6 2.5z"/><path fill="none" stroke="#f7eee8" stroke-opacity=".5" stroke-width=".5" d="M193.5 185q-62.2 0-85.6-23.1"/><circle r="1" fill="#a4b8da" fill-opacity=".5" transform="matrix(13.3207 -22.98409 31.66381 18.35114 147.5 25.1)"/><circle r="1" fill="#7d7f8c" fill-opacity=".5" transform="matrix(-1.13567 -2.33422 35.17184 -17.11214 43.6 153.7)"/><path fill="#2d4561" fill-opacity=".5" d="M195.2 153.3l52 6.7 2.7 25-54.2-25.1z"/><path fill="#435267" fill-opacity=".5" d="M106 120l35 52-32-13z"/><path fill="#c6ced5" fill-opacity=".5" d="M147 84h28v9h-28z"/><path fill="#b7b7c3" fill-opacity=".5" d="M-2.7 177.6L-7 163.2l9.6-2.8L7 174.8z"/><path fill="#acbbcd" fill-opacity=".5" d="M205 92h-12l21-9z"/><path fill="#748093" fill-opacity=".5" d="M73 112l46-8-44 24z"/><circle r="1" fill="#666f83" fill-opacity=".5" transform="matrix(99.744 -20.98514 .7804 3.70926 0 149.3)"/><path fill="#9396a7" fill-opacity=".5" d="M-16 142l32 8-11-15z"/><ellipse cx="140" cy="129" fill="#576b88" fill-opacity=".5" rx="77" ry="2"/><path fill="#545a68" fill-opacity=".5" d="M37 163.2l12.6 3.3 9.8 6.8 2.5-27.7z"/><path fill="#576985" fill-opacity=".5" d="M191 117l-78-16 20 21z"/><path fill="#808795" fill-opacity=".5" d="M81 131h37v5H81z"/><path fill="#485f80" fill-opacity=".5" d="M126 141h85v5h-85z"/><ellipse cx="67" cy="75" fill="#cad4e1" fill-opacity=".5" rx="29" ry="20"/><circle r="1" fill="#b8c8e1" fill-opacity=".5" transform="rotate(161.1 22.6 31.2) scale(42.68152 17.3302)"/><path fill="#7c828e" fill-opacity=".5" d="M123 156l-19-4 1-7z"/><circle r="1" fill="#687282" fill-opacity=".5" transform="matrix(-11.6572 2.11847 -.89565 -4.92846 140 161.8)"/><path fill="#253a56" fill-opacity=".5" d="M159.9 145.4l-2-5.7 32.2-11 2 5.6z"/><path fill="#b3c4d7" fill-opacity=".5" d="M156 70h100v19H156z"/><path fill="#363e47" fill-opacity=".5" d="M131 99h125v4H131z"/><ellipse cx="57" cy="154" fill="#949295" fill-opacity=".5" rx="17" ry="2"/><path fill="#9398a4" fill-opacity=".5" d="M70.8 133.7l-85-33.1 87.3 14-14.5-7.7z"/><path fill="#12273e" fill-opacity=".5" d="M213 153h43v6h-43z"/><path fill="#1d324e" fill-opacity=".5" d="M114 145h13v5h-13z"/><ellipse cx="7" cy="100" fill="#7f9cc5" fill-opacity=".5" rx="45" ry="4"/><path fill="#485e7d" fill-opacity=".5" d="M180 158l-11-12 34-20z"/><path fill="#394b65" fill-opacity=".5" d="M107 147l-3-24 8 3z"/><circle r="1" fill="#a3a6b4" fill-opacity=".5" transform="matrix(.12463 -.9922 34.76572 4.36685 37.8 169)"/><path fill="#b2b3b9" fill-opacity=".5" d="M42 107h31v7H42z"/><path fill="#445069" fill-opacity=".5" d="M20 149l4.6-2.9-2.3-.7L3.4 143z"/><circle r="1" fill="#12273c" fill-opacity=".5" transform="rotate(1.6 -4529.5 8024) scale(21.04557 1)"/><circle r="1" fill="#9fb2d7" fill-opacity=".5" transform="matrix(18.57725 6.02988 -14.12818 43.52705 0 14.3)"/><path fill="#0b1c2d" fill-opacity=".5" d="M119 138h20v3h-20z"/><path fill="#192a3f" fill-opacity=".5" d="M150 153h9v6h-9z"/><path fill="#1c2b43" fill-opacity=".5" d="M-2 156.8l-.3-1 14.3-4.6.3 1z"/><circle r="1" fill="#afaaac" fill-opacity=".5" transform="rotate(-144.5 84.3 65.5) scale(12.80432 1)"/><path fill="#718ab2" fill-opacity=".5" d="M79.9 91.1L124 91l-4.6 3.7-19.6.3z"/><circle r="1" fill="#98b0d7" fill-opacity=".5" transform="rotate(119 95.9 70.2) scale(12.20405 76.71343)"/><circle r="1" fill="#84a1d0" fill-opacity=".5" transform="rotate(34.5 118.2 391.7) scale(60.69445 15.05289)"/><ellipse cx="46" cy="161" fill="#4b5467" fill-opacity=".5" rx="31" ry="2"/><path fill="#4c5d78" fill-opacity=".5" d="M195 95.9l-61.1 2 42.6-4.9 12.4-3z"/><path fill="#aaa1a1" fill-opacity=".5" d="M44 154l-11 4 4 2z"/><circle r="1" fill="#b2afb2" fill-opacity=".5" transform="matrix(.16677 .986 -23.6302 3.99675 81.7 165.4)"/><path fill="#536d92" fill-opacity=".5" d="M202.7 136.2v-1l82.6 8.6v1z"/><path fill="#3d363a" fill-opacity=".5" d="M108 170l-9.4 5.7L94 168l9.4-5.7z"/><path fill="#536786" fill-opacity=".5" d="M120 123l-10 10 48 5z"/><path fill="#9d9ba7" fill-opacity=".5" d="M6.6 161.4l-4.3-4.7 3.4-3.4 25.7 18.9z"/><path fill="#cfd5dd" fill-opacity=".5" d="M103.4 78.7L81.5 88.9l45 2.5 17.6-.8z"/><path fill="#22354e" fill-opacity=".5" d="M202.9 159l-31.9 3 31.9 1.4 67.9 3.3z"/><path fill="#162534" fill-opacity=".5" d="M187 166h19v4h-19z"/></g></g></svg>