<svg xmlns="http://www.w3.org/2000/svg" viewBox="0 0 1200 1800"><defs/><filter id="a"><feGaussianBlur stdDeviation="12"/></filter><rect width="100%" height="100%" fill="#345e45"/><g filter="url(#a)"><g fill-opacity=".5" transform="translate(3.5 3.5) scale(7.03125)"><circle r="1" fill="#eebbbc" transform="matrix(91.4275 -98.17984 103.6096 96.48383 41 28)"/><circle r="1" fill="#fff" transform="rotate(68.9 -113.3 233.4) scale(20.37959 80.98824)"/><path fill="#fff" d="M84 99l31-47L14 62z"/><circle cy="209" r="129" fill="#807562"/><circle r="1" fill="#372a2e" transform="rotate(138.8 38 75.8) scale(52.99903 16.88508)"/><circle r="1" fill="#ddeaea" transform="rotate(-106.1 73.5 -55.4) scale(23.81734 65.08311)"/><path fill="#e71e00" d="M158 110l-34-82h28z"/><circle r="1" fill="#d2cdd4" transform="matrix(10.48658 -11.77503 44.50069 39.63131 7.2 247.3)"/><circle r="1" fill="#432e19" transform="rotate(26.9 -450.8 238.2) scale(44.44843 26.05211)"/><circle r="1" fill="#c6decc" transform="matrix(-8.45641 -13.17222 35.66676 -22.89765 29 77)"/><circle r="1" fill="#652d10" transform="rotate(165.7 66.2 98.5) scale(31.19434 49.54369)"/><path fill="#0d120e" d="M39 52l-55 25 59-49z"/><circle r="1" fill="#161a29" transform="matrix(-18.15468 -13.58143 5.25016 -7.01803 79.7 23.1)"/><path fill="#001400" d="M48 137l6 16-40 24z"/><circle r="1" fill="#979795" transform="matrix(-31.72557 -11.2168 6.6443 -18.7927 101.2 190.8)"/><path fill="#efe74f" d="M137 140h25v14h-25z"/><path fill="#afcaf6" d="M50.8 143.9L75 109.5l12.3 8.6L63 152.5z"/><path fill="#d1e3f0" d="M118 99L83 39l44 43z"/><circle r="1" fill="#3b2906" transform="matrix(32.15454 16.7597 -4.378 8.39946 113.4 166.9)"/><circle r="1" fill="#d6dcff" transform="matrix(-52.38247 19.79369 -2.38336 -6.30738 129 247.8)"/><path fill="#282100" d="M4.4 124.1l25.5-17.6 11.5 22.3-53.3-23.7z"/><path fill="#5e2000" d="M37 103l17 8-1-39z"/><path fill="#dae6f6" d="M66.2 105.3l49.4-44.9L93.5 43 54.2 84.9z"/><ellipse cx="109" cy="144" fill="#edeb6f" rx="13" ry="8"/><circle r="1" fill="#0b3120" transform="matrix(-1.9098 -2.06922 36.00777 -33.23364 100 190)"/><path fill="#f96336" d="M45.6 25.1l16.1 5.3-9.3 28.5-16.1-5.3z"/><path fill="#cbc691" d="M-11.9 148.5l27-29.7 17.5 18.5-23.3 24.9z"/><path fill="#3f1b19" d="M166 105l-58-42 31 6z"/><path fill="#c4cbca" d="M6 13l19 52L4 53z"/><circle r="1" fill="#3e4754" transform="matrix(16.9327 8.14916 -12.26665 25.4882 101.4 113)"/><circle r="1" fill="#a15830" transform="rotate(-59.7 170.7 98) scale(28.28944 26.1367)"/><path fill="#98b0a3" d="M99.8 109l2.8-10.6 39.6 10.6-2.8 10.6z"/><circle r="1" fill="#a1442d" transform="rotate(7 -283 1018.6) scale(29.15706 13.54013)"/><circle r="1" fill="#246650" transform="matrix(-9.47226 12.38952 -45.81669 -35.02862 62 204.8)"/><ellipse cx="169" cy="30" fill="#c5cbc7" rx="19" ry="36"/><circle r="1" fill="#000016" transform="matrix(4.68957 1.85673 -9.81004 24.77733 163 167.8)"/><path fill="#a9b3ac" d="M83.1 198.8l12.8-34.6-9.9 2.2-23.6 20.5z"/><circle r="1" fill="#eeed78" transform="matrix(11.57824 3.99898 -1.95432 5.65832 127.6 130.6)"/><path fill="#061700" d="M156.4 135.3l-8 3.9-19-18.2 23.7 3.9z"/><circle r="1" fill="#2d0b07" transform="matrix(12.4891 -26.78552 2.41744 1.12716 123 105)"/><path fill="#875235" d="M-7.4 211.8l56.5 13.3 75.4 45.9H58.7z"/><path fill="#4f1d15" d="M184 217l-28-22-45 50z"/><path fill="#8aa4b4" d="M41.9 108.5l13.2 59.1 19.8-13.9-21-43.4z"/><path fill="#0c4835" d="M-16 57.5l12.9-13.9 20.5 25.1-28.3 5.2z"/><path fill="#000500" d="M58.6 187.2l-1.3-1.6 38.1-30.8 1.3 1.6z"/><path fill="#6e9dc9" d="M166 164h4v26h-4z"/><path fill="#edc600" d="M107.1 175l2-9.9 9.8 2-2 9.8z"/><path fill="#2e2712" d="M117.2 136.5l-38.5-31.3 77.4 55.6-11.7 9.7z"/><path fill="#305b28" d="M12.3 92.1l-4.4 22.3 41.1 18-29.8-9.5z"/><path fill="#c3a300" d="M152.7 179.8L139 177l2.3-10.7L155 169z"/><path fill="#162b14" d="M153.7 118.9l12.3-.2-40-22.5-5.3-3.4z"/><path fill="#80867e" d="M133 34l10-15L79 7z"/><path fill="#342219" d="M101.3 123.2l-3.1-28.4-21.9 50.8 40.7-26.3z"/><path fill="#8fd9d4" d="M185 96.3l-1.4 4.8-30.6-9.4 1.4-4.8z"/><path fill="#b8b5ca" d="M99.6 205.4l-5-4.1 40.1-11.9 1.5 3.4z"/><path fill="#c7d5de" d="M-16 73.5l100.2-9.4L-16 107l32.5-19.8z"/><path fill="#5a8c42" d="M27 85h19v24H27z"/><path fill="#647e61" d="M13 74h20l-44 20z"/><path fill="#252f1b" d="M103 271l-38-35 19-35z"/><path fill="#e04b0c" d="M150.6 100l-18.9-66.2 22.8 12.3.6-7.7z"/><ellipse cx="20" fill="#a3a59e" rx="46" ry="28"/><path fill="#655d50" d="M185 45l-33-9V25z"/><path fill="#71bfaa" d="M135.2 104l11.7-6.7 15.7 6.3-4.1 7.9z"/><path fill="#dbe1da" d="M81 13l38 11-31 1z"/><path fill="#314963" d="M89.3 126L69 143.8l14.7 8.7 20.1-1.1z"/><path fill="#669c51" d="M20.2 178.7l35.3-52.9-38.6 19.1-1.7 22z"/><circle cx="28" cy="47" r="10" fill="#22292c"/><circle r="1" fill="#0b2409" transform="matrix(-2.83702 -4.95931 11.81805 -6.76062 38.6 157.1)"/><ellipse cx="157" fill="#d7ddd9" rx="76" ry="9"/><path fill="#62a095" d="M78.1 200.3l-1.5 14.4-34.8-51.6-9 5.7z"/><path fill="#26313c" d="M102.8 30.1l-21 1.3L55 20.9l9.3-7.7z"/><path fill="#a5def4" d="M23.2 113l-8-1 1.6-13 8 1z"/><path fill="#111a09" d="M151.4 90l33.6 19-10.2-.3-10.5-1.6z"/><path fill="#e4f6f5" d="M-12.1 87.3l24 7.8L1 108.2l-17-86.8z"/><path fill="#4e3542" d="M110.1 65.8l-7.2 2.1 30.3 10.6 15.6.3z"/><path fill="#a7c1d9" d="M74 106l15 15-34-17z"/><circle r="1" fill="#1e1918" transform="matrix(3.65799 -4.80933 21.80083 16.58177 141.2 187.4)"/><path fill="#281e20" d="M65 119l-10-10 16 2z"/><path fill="#a3856d" d="M95.1 202.4l17.1 15.4 4.2 1.5 24.1-22.2z"/><ellipse cx="124" cy="32" fill="#311e1c" rx="13" ry="3"/><circle cx="60" cy="53" r="12" fill="#9e8f65"/><path fill="#b6b5c6" d="M56 95l32 11 9-25z"/><circle r="1" fill="#2c290d" transform="rotate(122.9 37.6 105.8) scale(3.42755 23.42856)"/><path fill="#7a9c6c" d="M151.2 130.8l2.3-10.7 33.3 7-2.3 10.8z"/><path fill="#8b9ea3" d="M103 72l24-18 3-25z"/><path fill="#6d9751" d="M22.4 94.4l15-9-15.6 16.4-29.2-19.7z"/><path fill="#272b1e" d="M60.1 180l-33.9 40.8L5.9 210l42.5 2.1z"/><path fill="#d3dfed" d="M22 85l-31-9 22-6z"/><circle r="1" fill="#b8bad6" transform="rotate(126.7 19.5 164.1) scale(21.80413 17.62772)"/><path fill="#d3dad6" d="M125.5 74l-1 12-24-2 1-12z"/><path fill="#16120e" d="M120.4 169.4l13.9 19.6-8.5-39.3 38.8-44z"/><path fill="#96abc3" d="M54.5 119l4.6 39.3 26.1-3.6-20.6-13.2z"/><path fill="#23482e" d="M104 152l-41 32 19-33z"/><path fill="#917e64" d="M31 229l10 29-43-47z"/><path fill="#e7b7c6" d="M44 137v-9l-9 15z"/><circle r="1" fill="#ff8173" transform="rotate(139.8 22.8 24) scale(7.32351 4.51893)"/><path fill="#881d0e" d="M46 91l7 15 1-29z"/><path fill="#7e9a82" d="M131.4 223.1l-21.8 16.6 13.8-18.6 9.7-7.1z"/><ellipse cx="13" cy="11" fill="#6c6e65" rx="79" ry="4"/><path fill="#47473c" d="M126 55l17 10-19-23z"/></g></g></svg>