<svg xmlns="http://www.w3.org/2000/svg" viewBox="0 0 3830 2553"><defs/><filter id="a"><feGaussianBlur stdDeviation="12"/></filter><rect width="100%" height="100%" fill="#52433c"/><g filter="url(#a)"><g fill-opacity=".5" transform="translate(7.5 7.5) scale(14.96094)"><circle r="1" fill="#fff" transform="matrix(251.27095 -27.29676 5.5375 50.97355 131.3 28)"/><circle cx="159" cy="99" r="70" fill="#684852"/><circle r="1" fill="#c3d7e2" transform="matrix(-68.20997 46.03334 -32.4652 -48.10537 54.3 31.3)"/><ellipse cx="238" cy="20" fill="#d1e5f3" rx="42" ry="49"/><circle r="1" fill="#81906a" transform="matrix(1.9476 -33.77766 58.1776 3.3545 42.5 106)"/><path fill="#3c2a29" d="M128.7 78.4l-16.3-52.7 32.1-5.6 10.4 60.8z"/><path fill="#dbf0f1" d="M141.5 60.4l19-62.1 24 7.3-19 62.1z"/><circle cx="212" cy="112" r="54" fill="#656f71"/><circle r="1" fill="#e2e5e7" transform="matrix(-.15504 12.36444 -101.57763 -1.27371 86 8.7)"/><ellipse cx="190" cy="61" fill="#412e23" rx="17" ry="28"/><circle r="1" fill="#521c24" transform="matrix(-5.20007 31.41107 -16.50777 -2.73284 103.4 93.1)"/><path fill="#96a6c3" d="M187 63l-7 64-26 8z"/><circle r="1" fill="#e9e7f0" transform="rotate(-175.5 16.7 64.6) scale(58.89634 2.86126)"/><circle r="1" fill="#a14b50" transform="matrix(18.74094 -49.5546 17.64527 6.67322 122.8 114.3)"/><path fill="#2a191c" d="M156 135l90-1-156 51z"/><path fill="#0f0408" d="M148 66h13v55h-13z"/><path fill="#39312d" d="M138 61l-7-39 24 10z"/><ellipse cx="32" cy="169" fill="#35331b" rx="83" ry="32"/><path fill="#dfeeee" d="M109 45h13v15h-13z"/><path fill="#cecbcb" d="M228 140h28v7h-28z"/><path fill="#563733" d="M92 66.5l67 12.9 46.9-10.6-19.7-7.2z"/><path fill="#040400" d="M271 159l-29 25-7-36z"/><ellipse cx="207" cy="161" fill="#526283" rx="30" ry="17"/><path fill="#bac3c8" d="M148-5l87-4-81 63z"/><path fill="#b1bdc8" d="M204 70l9-29 58 16z"/><path fill="#041019" d="M90.7 153.2L108 62.1l10.8-2.4-5.2 24.2z"/><circle r="1" fill="#8e3233" transform="matrix(18.76558 -21.28537 18.60678 16.40409 125.7 138.5)"/><circle r="1" fill="#5d6633" transform="rotate(-93 66.2 41.1) scale(18.0846 60.31704)"/><path fill="#101d00" d="M240 127h16v14h-16z"/><circle r="1" fill="#78727c" transform="matrix(1.02738 17.90563 -15.06761 .86454 134.7 92.6)"/><path fill="#91a1b9" d="M-14 67L90 96l-8-33z"/><path fill="#001014" d="M158.4 138.4l24.1 1.1-32 42.3 9.6-5.4z"/><circle r="1" fill="#dfe4e5" transform="matrix(12.46741 -10.86655 17.44181 20.01134 138.1 1.3)"/><ellipse cx="223" cy="110" fill="#866556" rx="10" ry="45"/><ellipse cx="11" cy="11" fill="#d5d7db" rx="19" ry="47"/><circle cx="135" cy="37" r="17" fill="#4f4545"/><path fill="#000009" d="M100 164h47v6h-47z"/><path fill="#d5ddda" d="M142 50h32v8h-32z"/><path fill="#d0d5d6" d="M229 53.1l-60.6-30.7-16.6 37.2L198 15.3z"/><path fill="#5d6d6a" d="M271 88V61l-71 8z"/><circle r="1" fill="#9ca5ab" transform="rotate(99.9 95 88.7) scale(10.09721 24.23864)"/><path fill="#afb3b5" d="M71 14h48v19H71z"/><path fill="#c8c1be" d="M46 133l25-4 19 9z"/><path fill="#2c3247" d="M203 104h11v27h-11z"/><path fill="#323234" d="M189 31l-16 8 33 11z"/><circle r="1" fill="#855754" transform="rotate(-158.8 54.5 37.5) scale(8.15147 29.58991)"/><path fill="#8f3638" d="M126.5 57.5v23h-11v-23z"/><circle r="1" fill="#707a83" transform="matrix(48.2193 -.55248 .06204 5.41489 22.3 88.4)"/><ellipse cx="119" cy="153" fill="#733639" rx="42" ry="12"/><path fill="#d4d8dd" d="M246.4 46L216.2-2.4 247.6-22l30.2 48.4z"/><ellipse cx="79" cy="38" fill="#d5d8d8" rx="34" ry="6"/><path fill="#6c7288" d="M160.7 116.4l43.5-24.2.4 31.4L169 79.8z"/><path fill="#828781" d="M51.5 172.2l-55.4-7.8-10.5-.8L64.2 179z"/><circle r="1" fill="#959fa6" transform="rotate(-165.8 26.8 20.6) scale(30.90084 4.77872)"/><path fill="#757838" d="M30 105h55v24H30z"/><path fill="#88716a" d="M114 31h27v9h-27z"/><path fill="#8a96ad" d="M180 121l-11.4 18.8-14.6-8.7 11.4-19z"/><path fill="#785e55" d="M178.3 61.9l53.6 29.2-53.1-55.3-10.7 8.2z"/><path fill="#444828" d="M33 111l-42 13 48 3z"/><path fill="#594840" d="M206 55l-49 12 7 24z"/><ellipse cx="86" cy="161" fill="#6f5e5d" rx="4" ry="76"/><path fill="#b3bdc5" d="M208 66l55-5-55-27z"/><path fill="#948775" d="M167 67.6l4.1-17.5L153.5 65l4.7 6.6z"/><path fill="#54596a" d="M181 145h53v25h-53z"/><path fill="#545f2d" d="M271 112.4l-37.9 25.1 1.1-34.3 36.3-2.8z"/><path fill="#974e4f" d="M96 158l52-50-46 13z"/><path fill="#503c32" d="M169.1 131.9l60 4.4-6.1 8.6-8.5 8z"/><path fill="#312521" d="M194 90.2l7.2-37.3 4.9 1-7.3 37.2z"/><path fill="#05101a" d="M89 158l12 27h81z"/><path fill="#798199" d="M208.4 166l-5.6 19 1.4-8.3 33.5-15.3z"/><path fill="#d9dad9" d="M-.6-16l117 31.5-8.5 43.1 22.7-65.7z"/><path fill="#0e1926" d="M145 153l28-19-19 1z"/><path fill="#a5b0bc" d="M79.4 82L-16 79.5l92.3-40.1 38.8 16.5z"/><path fill="#723b36" d="M145.6 105.7l-25.9 51.7 40.6-31.1-41.7-64.2z"/><path fill="#171418" d="M99.6 123.6L91.1 163l3.6-41.9 15.4-49.4z"/><path fill="#46413e" d="M129.7 19.2l11.7 4.3-25.5 10.7 12.1-15z"/><path fill="#181f29" d="M154.7 69.2l-8.9-9 14.2 67.2 2.7-17.4z"/><path fill="#3d373b" d="M124 39h14v30h-14z"/><path fill="#c4bfc1" d="M-12.3 130.9l36.2 2 75.3.8L7 127.8z"/><path fill="#593834" d="M89.3 175.3l-6.4-38 18.7-63.5-9.5 71.6z"/><circle r="1" fill="#9b9faf" transform="matrix(-2.32472 -5.17273 4.6345 -2.08282 175 92)"/><ellipse cx="247" cy="90" fill="#54615b" rx="19" ry="27"/><path fill="#3b2a30" d="M129.9 102l-3.6-18.3 4.4 9.7 8.5-2.2z"/><path fill="#4a4958" d="M227 129.7l-49.9-1.5L198 82.4l-28.2 22.7z"/><path fill="#8e634b" d="M218.8 138.2l-42.4-8.6 27.1 1.4 24.9-6.3z"/><path fill="#876e67" d="M210.9 76.9l-31.6 37 52.4-33.6L208 67.1z"/><path fill="#4a534d" d="M41.3 94.3l39.1-3.9L82 114l-7.3-12.2z"/><ellipse cx="154" cy="53" fill="#c2c9cc" rx="8" ry="12"/><path fill="#cfd2d5" d="M52.5 45.3l-11-6.4L50.9 18l24.8-6.6z"/><path fill="#735f4c" d="M148.6 160.3l5.3 6.8 5.7-15.8-9.4-4.3z"/><path fill="#7a95ab" d="M85.1 93.9l2.7 21.8-3 .4-2.6-21.8z"/><path fill="#4c4037" d="M196 185l-32-17 6-19z"/><path fill="#a1adb9" d="M248.3 51.4L212.4 57l-3.7 11.6 62.3-7.1z"/><path fill="#7c5745" d="M215.6 129.3l-7-44.4 13.8-2.2 7 44.4z"/><path fill="#40403f" d="M123.5 27.8L119.4 40l-4.3 2.2-.4-4.7z"/><path fill="#814244" d="M152.5 87.7l.8-10.1-2.8 27.4-12.6-56.1z"/><circle r="1" fill="#253214" transform="matrix(-16.58473 -3.39875 1.1036 -5.38517 57.3 160.2)"/><path fill="#b1b8be" d="M28.1 19.1l7.2-12.2 2.2 3.6 73.4 45.1z"/><path fill="#9b474a" d="M113 90l32-21h-27z"/><path fill="#82818b" d="M186.4 90l-8.1-6-9.7 42 19.6-55.4z"/></g></g></svg>