<svg xmlns="http://www.w3.org/2000/svg" viewBox="0 0 1800 1200"><defs/><filter id="a"><feGaussianBlur stdDeviation="12"/></filter><rect width="100%" height="100%" fill="#2a3345"/><g filter="url(#a)"><g fill-opacity=".5" transform="translate(3.5 3.5) scale(7.03125)"><circle r="1" fill="#fff6cc" transform="matrix(-1.71098 -57.49578 244.9665 -7.28981 146.4 34)"/><circle r="1" fill="#866852" transform="matrix(-226.1772 3.8027 -.38387 -22.832 144.3 91.1)"/><circle r="1" fill="#b4b0ab" transform="matrix(1.17471 -50.257 110.33258 2.57893 101.8 13.2)"/><ellipse cx="74" cy="153" fill="#465665" rx="151" ry="16"/><circle r="1" fill="#b89472" transform="matrix(-101.09424 0 0 -17.5105 84.8 63.4)"/><path fill="#ffbf75" d="M86 113l-24-8h43z"/><circle r="1" fill="#424c55" transform="matrix(75.5178 5.7 -2.1715 28.76966 208.8 109.6)"/><ellipse cx="98" cy="87" fill="#756659" rx="211" ry="6"/><circle r="1" fill="#93a2ab" transform="matrix(1.26586 -18.56831 209.94237 14.31244 135 5.3)"/><circle r="1" fill="#7f7363" transform="matrix(-1.4691 -14.92855 65.8747 -6.48265 237.2 72.6)"/><ellipse cx="208" cy="169" fill="#121410" rx="220" ry="3"/><path fill="#ab7457" d="M51 105h74v8H51z"/><path fill="#ffebac" d="M84 105h7v8h-7z"/><ellipse cx="84" cy="131" fill="#364452" rx="98" ry="12"/><circle r="1" fill="#0c1924" transform="matrix(.63965 -6.18973 9.44148 .97568 191.6 151.6)"/><ellipse cx="99" cy="161" fill="#475466" rx="69" ry="8"/><path fill="#7e6e5e" d="M0 58h17v29H0z"/><circle r="1" fill="#b2aa9e" transform="matrix(45.56084 -6.3177 3.29324 23.74955 86.4 31.2)"/><circle r="1" fill="#585151" transform="matrix(-6.70918 4.82784 -8.9052 -12.37545 62 94.7)"/><circle r="1" fill="#a49e90" transform="matrix(2.32177 17.80531 -56.14397 7.32102 172.5 40)"/><path fill="#0c1820" d="M210 155h46v5h-46z"/><path fill="#7d5a4d" d="M76.6 101.9l89.4 6.8-82.7 5.6 7.9-5.1z"/><path fill="#b69470" d="M70.7 63l49 1-.4 21-49-1z"/><path fill="#fff" d="M88 108l-6 1v-3z"/><path fill="#152331" d="M133.3 148.3l19.6 4.7 17.6.8-2.7-5.4z"/><path fill="#455364" d="M85 164h110v4H85z"/><ellipse cx="240" cy="1" fill="#8a9698" rx="60" ry="34"/><ellipse cx="192" cy="118" fill="#233241" rx="74" ry="6"/><ellipse cx="16" cy="100" fill="#464a52" rx="17" ry="16"/><path fill="#061318" d="M249 145l3-16-17 17z"/><circle r="1" fill="#b09d86" transform="matrix(2.48132 -10.99451 73.1531 16.50975 48.7 53)"/><path fill="#314353" d="M199 121h33v37h-33z"/><circle r="1" fill="#988a76" transform="matrix(.9105 6.11797 -78.3764 11.66437 193.7 62.3)"/><path fill="#1c2837" d="M76 141h23v8H76z"/><ellipse cx="48" cy="90" fill="#6f625a" rx="134" ry="3"/><ellipse cx="218" cy="163" fill="#354555" rx="113" ry="3"/><path fill="#9a7c62" d="M160 72.8l.7 10L68 89.1l-.7-10z"/><ellipse cx="234" cy="102" fill="#444951" rx="61" ry="12"/><path fill="#4c5868" d="M22 160h80v7H22z"/><circle r="1" fill="#a4a8a7" transform="matrix(64.7071 6.36267 -1.84664 18.78 101.7 12)"/><path fill="#a08569" d="M-16 61.6l4.2 16.1L99.7 83 42.6 67.4z"/><path fill="#4a5666" d="M63 135h10v29H63z"/><path fill="#6a655e" d="M271 88.1l-4.7-14-104.1 15.7 66 2.3z"/><ellipse cx="43" cy="149" fill="#08121b" rx="7" ry="2"/><path fill="#243243" d="M154 161l42-4-19 8z"/><path fill="#ffff64" d="M83 110h5v3h-5z"/><path fill="#3a3f47" d="M50 83h17v3H50z"/><path fill="#111514" d="M180 167h76v3h-76z"/><ellipse cx="193" cy="144" fill="#445364" rx="37" ry="2"/><path fill="#495a6c" d="M158 153h25v6h-25z"/><ellipse cx="254" cy="135" fill="#223342" rx="19" ry="7"/><path fill="#455864" d="M271 153l-26 2 2-7z"/><path fill="#1f2b39" d="M156.3 154.3L271 141.9 168.9 150l-46.3-13z"/><path fill="#8c5a42" d="M80.2 111.8l8.7 7.6-14.2-16-12.4 7.7z"/><path fill="#121b22" d="M239.5 156.3l-39.4 17.8 35.2-5.5-24.2-9.6z"/><path fill="#121c27" d="M100.4 135l-.1 1-34.7-5 .1-1z"/><path fill="#525756" d="M185.5 69.5l18.7-3 .3 2-18.7 3z"/><circle cx="84" cy="108" r="2" fill="#fff"/><path fill="#435163" d="M53.4 141.5l-57.3 3.9 11.8 5.5 91.2-10.8z"/><ellipse cx="175" cy="52" fill="#a59785" rx="40" ry="9"/><path fill="#131618" d="M65 168h168v2H65z"/><path fill="#18222d" d="M48.1 132.2l.7 6-15 1.6-.6-6z"/><path fill="#0c1622" d="M40 153.2l.7 3-12.7 2.6-.7-3z"/><path fill="#9d978c" d="M-15.8 15.5l65.3 37.3L39.3 55l-54.9 5.8z"/><ellipse cx="134" cy="123" fill="#364353" rx="90" ry="3"/><path fill="#595d5f" d="M14.9 58l.3.9-14 5.1-.4-.9z"/><circle r="1" fill="#9ca199" transform="rotate(3 -424.6 3758.8) scale(39.09722 13.06041)"/><path fill="#4e4b50" d="M21.3 81.7l18.5 31.9-39-.3-16.8-3.1z"/><ellipse cx="214" cy="163" fill="#4e6070" rx="25" ry="1"/><path fill="#273447" d="M56 159h46v2H56z"/><circle r="1" fill="#fffacc" transform="matrix(3.31052 -.25497 .187 2.42805 85 109.1)"/><path fill="#b3a493" d="M119.2 35.4l45.6 13.5-89 4-40.5-15.8z"/><path fill="#685352" d="M28 105h31v8H28z"/><circle r="1" fill="#819099" transform="matrix(-54.20529 -25.04636 6.88726 -14.9054 250 0)"/><path fill="#373c47" d="M43 113h103v4H43z"/><circle r="1" fill="#131c27" transform="matrix(-.16076 -.987 15.03764 -2.4493 194.9 148.3)"/><path fill="#121e2b" d="M93 146h19v2H93z"/><path fill="#565153" d="M38 93h126v13H38z"/><path fill="#1c2a37" d="M18.5 161.5v3h-23v-3z"/><path fill="#475466" d="M75 149h61v3H75z"/><path fill="#2e3a4b" d="M78 157l-3-11 31 7z"/><path fill="#b6997a" d="M45 60h83v12H45z"/><path fill="#202d37" d="M26.7 123.7L6.5 112.9l36.9 4.2-18.2 9.2z"/><path fill="#050f15" d="M241 142h15v4h-15z"/><ellipse cx="146" cy="111" fill="#615053" rx="40" ry="2"/><path fill="#969fa2" d="M31.5 18.3l-46.3 12.5-6.7-25.1L24.8-6.8z"/><circle r="1" fill="#0c1114" transform="matrix(.24275 -1.5502 11.10837 1.73952 5.5 169)"/><path fill="#4b4c52" d="M154 92h81v22h-81z"/><path fill="#455364" d="M146 141l24 5-3-12z"/><ellipse cx="35" cy="162" fill="#57616f" rx="18" ry="2"/><path fill="#ad6c46" d="M89 107h22v4H89z"/><path fill="#546173" d="M110 142h24v2h-24z"/><path fill="#414e5e" d="M24.4 155.6l-1.7-20 14.9-1.2 1.7 20z"/><path fill="#526070" d="M169 164h28v2h-28z"/><path fill="#7a6759" d="M81 96.4l19.1-6.7L48.3 93l22.9-16.3z"/><path fill="#495962" d="M234 169h10v1h-10z"/><path fill="#99856f" d="M120.4 82l86.9-6L158 64.8 103.9 77z"/><path fill="#203042" d="M140 155h20v3h-20z"/><path fill="#65707d" d="M1 147h17v2H1z"/><ellipse cx="148" cy="160" fill="#5c6a7c" rx="10" ry="2"/></g></g></svg>