<svg xmlns="http://www.w3.org/2000/svg" viewBox="0 0 1800 1200"><defs/><filter id="a"><feGaussianBlur stdDeviation="12"/></filter><rect width="100%" height="100%" fill="#4c3d33"/><g filter="url(#a)"><g fill-opacity=".5" transform="translate(3.5 3.5) scale(7.03125)"><ellipse cx="160" cy="28" fill="#9adfff" rx="111" ry="157"/><circle r="1" fill="#96c6ff" transform="matrix(-116.85727 -3.67239 1.29886 -41.33047 183.8 76)"/><circle r="1" fill="#001c4b" transform="matrix(-5.79319 21.62046 -48.77799 -13.07002 226.2 140.5)"/><circle r="1" fill="#a88356" transform="rotate(-156.4 60.7 60.1) scale(209.72029 40.05353)"/><circle r="1" fill="#2e6dcc" transform="rotate(-84.9 75.7 -73) scale(46.23019 126.46112)"/><circle r="1" fill="#00040c" transform="matrix(-9.18436 13.98185 -46.8749 -30.79106 12.3 45)"/><circle r="1" fill="#383937" transform="rotate(5.8 -1394.7 624.7) scale(35.81482 19.00292)"/><circle r="1" fill="#19405c" transform="matrix(.55539 24.74883 -44.65746 1.00216 237 141.6)"/><ellipse cx="190" cy="98" fill="#b0c7db" rx="102" ry="19"/><path fill="#00255f" d="M137 117l46 21 5-23z"/><ellipse cx="141" cy="169" fill="#bc9974" rx="57" ry="44"/><path fill="#998356" d="M29.9 38.8l18.7 6.6-5.7-40.1-26.3 2.3z"/><ellipse cx="97" cy="47" fill="#5e92d4" rx="43" ry="24"/><ellipse cx="133" cy="4" fill="#30609f" rx="100" ry="14"/><path fill="#4a433a" d="M38.1 5.2L69 85l2.1 10-32.8-20.7z"/><ellipse cx="246" cy="45" fill="#6796ce" rx="180" ry="20"/><circle r="1" fill="#aa8964" transform="matrix(-32.51482 -27.4699 11.70655 -13.85649 90.5 112.7)"/><circle cx="14" cy="111" r="46" fill="#625e55"/><circle r="1" fill="#968167" transform="matrix(-4.24787 -10.19981 55.78169 -23.23114 89.6 160)"/><circle r="1" fill="#504e13" transform="matrix(1.7542 -4.77564 13.72032 5.0398 201 154)"/><path fill="#97bbdf" d="M117.8 118.8L77 65.5l194 9.1-137.7 43.9z"/><ellipse cx="215" cy="169" fill="#c7ab7e" rx="23" ry="4"/><path fill="#c6c3b7" d="M188.3 141.5l2.8 6.8-59-22.9 26.4 3.7z"/><circle r="1" fill="#111b1f" transform="matrix(-14.08284 -22.191 5.12992 -3.25554 46.2 64)"/><circle r="1" fill="#26211c" transform="matrix(1.28643 -4.80102 22.63755 6.06571 65.2 135)"/><ellipse cx="250" cy="146" fill="#23476d" rx="20" ry="31"/><path fill="#021017" d="M5.7 183.2l-16.1-10 12.7-20.4 16.1 10z"/><path fill="#93afd0" d="M266 64l2 54-48-6z"/><path fill="#78a4d9" d="M59 51h197v24H59z"/><path fill="#c1a884" d="M23 7h21v6H23z"/><circle r="1" fill="#867253" transform="matrix(-19.62463 2.27065 -.88357 -7.63647 31.6 146.2)"/><path fill="#37342b" d="M28 149h32v16H28z"/><path fill="#897764" d="M42.5 81L-16 50.8l89.3 68.4-14.9-31.1z"/><circle r="1" fill="#071114" transform="matrix(29.2428 26.6089 -10.87705 11.95372 0 35.8)"/><path fill="#86725c" d="M147 162l-35-34-27 12z"/><path fill="#beaa8e" d="M118.9 119.7l-35.5 9.1 65.8-2.2-53.3-32.4z"/><path fill="#244467" d="M197 142l12-20-65-1z"/><ellipse cx="163" cy="162" fill="#c9b298" rx="9" ry="12"/><ellipse cx="96" cy="25" fill="#4778b4" rx="48" ry="13"/><path fill="#68604e" d="M52.2 55.8l2.9 2.5-11.7-45.2L-16 0z"/><path fill="#7a6954" d="M75.6 101.1l-7.3-19.7-26.2-53.5 17.3 49.3z"/><path fill="#191f21" d="M50.1 76.6L60.3 69 31.5 79.3l-23-57.5z"/><ellipse cx="34" cy="109" fill="#595249" rx="24" ry="17"/><path fill="#36639d" d="M22.1 4.8l62.5 7.7L179.9 0-9.7-.6z"/><path fill="#d5cfbc" d="M73 83h9v11h-9z"/><path fill="#b38f61" d="M226.8 170.8l-6.3 13.6-45.3-21.2 6.3-13.6z"/><path fill="#1c1a18" d="M83 89h2v11h-2z"/><circle r="1" fill="#203b4b" transform="matrix(-36.89981 -13.9577 3.35632 -8.87306 227.5 153.2)"/><path fill="#335487" d="M196 116h60v11h-60z"/><path fill="#5687c2" d="M202 23H48l12 40z"/><path fill="#483919" d="M-10.5 117.4l24.9 30.2-30.4-.2 23.2-40.9z"/><path fill="#af9069" d="M100 125l-38-6 63 40z"/><path fill="#8f7f6a" d="M-10 138l31-23 3 13z"/><path fill="#b9a58b" d="M27.7 5.4L32 18.7l-5.7 1.9L22 7.3z"/><path fill="#e2cca8" d="M183 139h7v6h-7z"/><ellipse cx="255" cy="19" fill="#497cb9" rx="145" ry="13"/><path fill="#938474" d="M-1 65l-7 13 34-9z"/><path fill="#563e2d" d="M76 141h19v8H76z"/><path fill="#615b1a" d="M201.4 160l11.3-5.2 14.2 10.8-.1 1.4z"/><path fill="#2f2a24" d="M59.3 133.5l-2.9 30.2-4.9-24.9-11.3-16.6z"/><path fill="#6c98cc" d="M259.8 53.7L59 64.2l-.9-16L259 37.9z"/><path fill="#82705d" d="M56.3 137.1l46.5 47.9-40.7-26.8 21-6.7z"/><circle r="1" fill="#a39a8a" transform="matrix(-10.80935 -8.29373 6.19977 -8.08025 128 133.6)"/><path fill="#9eb4c9" d="M125 102h131v14H125z"/><path fill="#857f6e" d="M36 142h15v9H36z"/><path fill="#a98f6d" d="M79.1 111L38.6 84.2l35.8 7.2 13.7 6.3z"/><circle r="1" fill="#3c6aa7" transform="matrix(-1.56524 -15.22555 38.10875 -3.91771 237.3 0)"/><circle cx="130" cy="122" r="4" fill="#6f5736"/><path fill="#4070ab" d="M48 10h54v18H48z"/><path fill="#74675b" d="M14 77l45 49 32-4z"/><path fill="#7f6748" d="M24 167l-5-17 19-26z"/><path fill="#463c25" d="M3 116l23-5-25 13z"/><path fill="#3a322b" d="M56.5 145.6l22.1 13.8 6.3-1.1-6.7-3z"/><path fill="#466c9c" d="M135 116h87v3h-87z"/><path fill="#7e6f54" d="M6.7 12.9L-16 9.2l36.1-22.5-31.1 36z"/><path fill="#cec3b0" d="M153.9 129.7l-10.2 2.7-9.8-15-23.8-11.7z"/><path fill="#544b3c" d="M45.9 17l-13.6 5.1-3.3.7L49.6 35z"/><path fill="#2e2c25" d="M21.2 8.7l2 21.5L5.3 6.9l6 30.1z"/><path fill="#8ab3de" d="M201.7 61.3L95.1 79 271 90.7V76.1z"/><circle r="1" fill="#7e705b" transform="matrix(-1.98023 1.56951 -19.42762 -24.51156 106.9 130)"/><path fill="#272620" d="M55.3 158.1l-67.2 21.1 48 1.4 8.4-28.5z"/><path fill="#54412d" d="M23 129l34-3-15 17z"/><path fill="#38342e" d="M64.2 81.1l.8-.5L71.8 93l-.8.5z"/><path fill="#274669" d="M286 118.7l1.7 24-95.7 6.6-1.7-24z"/><path fill="#ad9471" d="M71 91h11v30H71z"/><path fill="#a08668" d="M77 185l13-25-55 12z"/><path fill="#9a7e5c" d="M222 182l-66 3 24-30z"/><path fill="#b09370" d="M103 141h15v29h-15z"/><path fill="#927d62" d="M110.1 177.4L59.5 76.1l3.4 6.1L38.5 24z"/><path fill="#4e4332" d="M17.6 136.8l-2.7 9 18.4-32.5-7.7 31z"/><ellipse cx="159" cy="122" fill="#2c4b73" rx="16" ry="5"/><path fill="#443e36" d="M42.1 152.5l32.1-2.5 2.9 11.9 14.2-3z"/><path fill="#857662" d="M23 15l13 17H24z"/><path fill="#b59873" d="M176 145l-21 20-12-34z"/><circle r="1" fill="#5989c4" transform="matrix(-1.52255 8.43966 -102.9264 -18.56834 255 43)"/><path fill="#66563e" d="M108 110.8l4.9.5-.8 8-5-.6z"/><path fill="#836341" d="M158.1 142.3l-.3 1-14-5.6.4-1z"/><path fill="#443f37" d="M33.9 10.4l2-.3L42 45.6l-2 .3z"/><ellipse cx="167" cy="98" fill="#a4c1d6" rx="68" ry="7"/><path fill="#304e73" d="M160 118h38v13h-38z"/></g></g></svg>