<svg xmlns="http://www.w3.org/2000/svg" viewBox="0 0 1800 1200"><defs/><filter id="a"><feGaussianBlur stdDeviation="12"/></filter><rect width="100%" height="100%" fill="#3b484e"/><g filter="url(#a)"><g fill-opacity=".5" transform="translate(3.5 3.5) scale(7.03125)"><circle r="1" fill="#f1e4d8" transform="matrix(-193.30294 13.86431 -5.76915 -80.43633 131.1 54)"/><path fill="#d8edf8" d="M200.5 100.5h-181v-31h181z"/><circle r="1" fill="#863" transform="matrix(-213.82128 3.55053 -.18136 -10.92177 165.3 124.1)"/><circle r="1" fill="#6e655a" transform="matrix(58.28886 -7.61245 4.55782 34.89939 242.2 36)"/><circle r="1" fill="#212b21" transform="rotate(-14.2 762.8 -808.1) scale(101.43046 22.24825)"/><ellipse cx="173" cy="124" fill="#816a42" rx="63" ry="14"/><circle r="1" fill="#ded3be" transform="matrix(11.03113 -38.57744 12.39714 3.54493 115.2 88)"/><circle r="1" fill="#7e95af" transform="rotate(-59.9 187 -146.2) scale(18.21464 41.20066)"/><path fill="#9ba9b1" d="M-19.3 107l.6-39 64 1-.6 39z"/><path fill="#707174" d="M0 112h82v22H0z"/><path fill="#ccdde5" d="M111 67h53v31h-53z"/><circle r="1" fill="#8f8a82" transform="rotate(-64.1 131 -128.5) scale(37.87829 31.2922)"/><path fill="#baaa96" d="M128.2 73.4l-18.5-9.8 44-83 18.6 9.8z"/><ellipse cx="8" cy="23" fill="#84858e" rx="40" ry="46"/><path fill="#6d6c69" d="M189 60l79-50 2 64z"/><path fill="#a1b2bf" d="M223.6 85.8l-6.6-8.6-57.4 33.4 105-25z"/><ellipse cx="198" cy="120" fill="#67573b" rx="43" ry="7"/><path fill="#a68755" d="M90 113l10 26 91-9z"/><circle r="1" fill="#535c53" transform="matrix(1.56734 12.1886 -40.75813 5.24111 129.7 146.7)"/><circle r="1" fill="#2d3b36" transform="rotate(15.4 -611.7 167.5) scale(51.03374 32.88889)"/><ellipse cx="251" cy="129" fill="#9a7c4a" rx="99" ry="5"/><ellipse cx="241" cy="107" fill="#758397" rx="78" ry="7"/><path fill="#63584d" d="M57 123h39v12H57z"/><path fill="#faca66" d="M101.3 134.6l-4-.7 5.4-30.5 4 .7z"/><path fill="#91939c" d="M32 72l79-2-62-86z"/><path fill="#9b9082" d="M175-16l90 20-133 50z"/><ellipse cx="132" cy="101" fill="#a4a7aa" rx="82" ry="4"/><path fill="#bfd0d7" d="M123 70l97 19-49 9z"/><path fill="#898b8f" d="M24 95l22-8-57-5z"/><path fill="#7f848b" d="M17 106h77v18H17z"/><circle r="1" fill="#a3a9ae" transform="rotate(100 48.5 95.4) scale(5.88043 43.37161)"/><circle r="1" fill="#3b4945" transform="matrix(3.40574 16.59145 -28.66744 5.88458 173.6 151)"/><ellipse cx="40" cy="77" fill="#aec1d0" rx="67" ry="6"/><path fill="#9f8466" d="M20 128h40v6H20z"/><path fill="#a7a090" d="M123.5 95.4l9.9 22.3-32.1 4.8 13.2-22.2z"/><path fill="#ebdec8" d="M94.5 91l12.1 16.6 9.7-39.7-23.7 35z"/><circle r="1" fill="#7e96b2" transform="rotate(120.7 103.3 115) scale(9.10235 28.5471)"/><path fill="#7d6c50" d="M135 110h44v19h-44z"/><path fill="#decdb7" d="M54 89.9l15.3 8.4-22.5 4.1-12.4-2.2z"/><path fill="#1c2423" d="M255 149l-38 17 54 11z"/><path fill="#4f574f" d="M98 135h33v32H98z"/><ellipse cx="212" cy="140" fill="#374039" rx="29" ry="7"/><path fill="#685a45" d="M250.8 135.1l-57.4-18.7 67.2-3.8 10.4 22.3z"/><path fill="#797f8a" d="M115.8 113.8l148.2-.4 7-38.8-38.2 33.1z"/><path fill="#d9883d" d="M101.6 115.5l-5.9 8.6-3.6 9.4 9.4.7z"/><path fill="#ab8955" d="M142 131h96v3h-96z"/><ellipse cx="131" cy="167" fill="#232f26" rx="30" ry="2"/><circle r="1" fill="#c6b196" transform="matrix(3.11986 1.63796 -26.85711 51.15526 134.5 26.6)"/><circle r="1" fill="#68655d" transform="matrix(-23.3306 -8.58399 1.1081 -3.01173 8.5 121)"/><circle r="1" fill="#8b847b" transform="matrix(-14.85187 -12.83505 37.3151 -43.17857 214 19.8)"/><ellipse cx="226" cy="103" fill="#808ea0" rx="27" ry="12"/><path fill="#9aa8b6" d="M198 67l-28 19-17-20z"/><path fill="#6f6964" d="M91.3 130l5.7-17.8-41.9 20.2-11-11.2z"/><path fill="#a39789" d="M35 119.4l6.9-17.8 13 5-6.8 17.8z"/><path fill="#97a7b2" d="M199 108l26-23-44 17z"/><circle r="1" fill="#8b96a2" transform="matrix(5.42548 -5.7325 9.9548 9.42165 199.7 77.3)"/><path fill="#cdcb97" d="M103 98h2v36h-2z"/><path fill="#929295" d="M21 0h45v73H21z"/><path fill="#6e5e41" d="M163 111l39 20 58-12z"/><ellipse cx="137" cy="88" fill="#d1dbdb" rx="36" ry="8"/><ellipse cx="130" cy="105" fill="#a8a6a0" rx="17" ry="7"/><path fill="#878689" d="M18.6-40.3L11.3 64.4l-30-2 7.4-104.8z"/><circle r="1" fill="#8390a2" transform="matrix(-.254 5.04404 -18.62719 -.93797 78.2 105.4)"/><path fill="#243231" d="M-16 152.8l36.9 5.6-2.8 5L-16 185z"/><path fill="#a3b1b7" d="M-1.1 70.3l28.4 31.8-22.6 3.5 24-34z"/><path fill="#807c75" d="M224.2 74.5l-2.3-5.8L271-12.6 190.8 54z"/><circle r="1" fill="#6c6a68" transform="matrix(8.32629 11.13759 -15.68868 11.72862 252.8 55.5)"/><path fill="#3c4a49" d="M21 135h76v22H21z"/><path fill="#7f6941" d="M124 121h89v7h-89z"/><path fill="#a19b92" d="M124.4 53l47.7-76.3L191.6-11l-47.7 76.4z"/><path fill="#b7c9d9" d="M153 67l24 15-67-10z"/><circle r="1" fill="#b2c9d7" transform="matrix(-.5698 -6.3844 23.30572 -2.07998 80.4 85.1)"/><path fill="#908069" d="M149 119.7l-36.4 6.4-1.7-9.8 36.5-6.4z"/><path fill="#e6dfd6" d="M112.2 93.7l-9.4 1.5 6.9-24.8 4.6 1z"/><path fill="#ae8f5c" d="M136.3 132l52.1-.9-38-3.8-.5 1.9z"/><path fill="#ffeba1" d="M193.5 132l7-1v1l-7 1z"/><path fill="#b6935a" d="M216.5 129.4l.4-2 12.6 3.2-.4 2z"/><path fill="#9a8065" d="M30 132l23-20-9 21z"/><circle r="1" fill="#8f9395" transform="rotate(-177.8 1 54.3) scale(50.08703 5.31133)"/><ellipse cx="140" cy="135" fill="#63666b" rx="33" ry="2"/><path fill="#919496" d="M166 112l-24-11.9 3.6-3.3 46.8 10.6z"/><circle r="1" fill="#d59789" transform="matrix(-2.58399 -.59656 2.56632 -11.11594 100.7 110)"/><path fill="#929094" d="M67 10h47v43H67z"/><path fill="#465756" d="M169 152l-60-5 35 13z"/><path fill="#575853" d="M82 132l37 6-31 6z"/><path fill="#000f07" d="M76 168l48 17-99-7z"/><path fill="#8f98a2" d="M175 67h36v13h-36z"/><path fill="#5d503d" d="M249.5 137.1l-32.4-2.7 43.5.3-19-27z"/><ellipse cx="79" cy="60" fill="#94989f" rx="35" ry="11"/><path fill="#9a7c52" d="M224 119h10v4h-10z"/><path fill="#a5a9a2" d="M129 37.6l-4.3 15.6-8.5 15.7 34.3-1.7z"/><path fill="#717276" d="M48 116h43v7H48z"/><path fill="#7a8492" d="M271 112l-36-15-22 15z"/><path fill="#cfc9bd" d="M32 96h73v4H32z"/><path fill="#243836" d="M65 159h20v4H65z"/><ellipse cx="56" cy="134" fill="#505865" rx="32" ry="1"/><path fill="#91a8bc" d="M239.5 71.2l-7.4 6.4 38.9-1-25.3-1.9z"/><path fill="#887045" d="M178 114l-39 3-5 16z"/><path fill="#7b776f" d="M140 109h42v6h-42z"/><circle r="1" fill="#a2928d" transform="rotate(-151.9 69.7 -17.5) scale(7.17258 50.60562)"/></g></g></svg>