<svg xmlns="http://www.w3.org/2000/svg" viewBox="0 0 1800 1200"><defs/><filter id="a"><feGaussianBlur stdDeviation="12"/></filter><rect width="100%" height="100%" fill="#5a4637"/><g filter="url(#a)"><g fill-opacity=".5" transform="translate(3.5 3.5) scale(7.03125)"><circle r="1" fill="#fff" transform="rotate(-16.5 194.4 -308.4) scale(255 71.94441)"/><ellipse cx="76" cy="44" fill="#b9dffd" rx="255" ry="44"/><circle r="1" fill="#9ab1c7" transform="matrix(-253.31006 -29.30897 4.00398 -34.60541 110.5 169)"/><ellipse cx="155" cy="118" fill="#4c3a21" rx="97" ry="37"/><circle r="1" fill="#f8f4e5" transform="matrix(-113.37657 33.1765 -8.63127 -29.49629 24.7 95.1)"/><circle r="1" fill="#81a3c6" transform="matrix(-227.10855 -28.26978 3.43262 -27.57637 109.2 1.2)"/><ellipse cx="80" cy="123" fill="#7b4f2b" rx="23" ry="29"/><path fill="#ced5d5" d="M0 54h256v25H0z"/><path fill="#3b301d" d="M84.4 121.9l166 3.4-83-43.8-32.5-2.8z"/><circle r="1" fill="#879db6" transform="rotate(175.8 27.7 85.6) scale(144.71907 17.28822)"/><circle r="1" fill="#e9e1d1" transform="matrix(13.03943 19.66035 -39.23092 26.01932 24.9 112.2)"/><ellipse cx="105" cy="144" fill="#3b2519" rx="88" ry="5"/><ellipse cx="117" cy="136" fill="#91715b" rx="92" ry="8"/><circle r="1" fill="#eff5f1" transform="rotate(44.8 -54.1 171.8) scale(12.0309 14.98629)"/><path fill="#6c87a4" d="M177.8 191.8l-1.5-42 104-3.6 1.4 42z"/><path fill="#a68358" d="M123 80h97v9h-97z"/><path fill="#d4cbbf" d="M49.6 138.1L-16 115.2l2.9 69.8L78.3 66.6z"/><path fill="#343329" d="M198 78h58v49h-58z"/><path fill="#1b1e1e" d="M239 115l-71 19-48-20z"/><path fill="#96775e" d="M60.4 137.4l10.7-34.3 38.7 52.9 10.9-45.2z"/><path fill="#abbdca" d="M158.3 51L271 87.4l-8.3-47.6L-10.5 4.3z"/><path fill="#98715a" d="M197 142l72-9-62-9z"/><path fill="#dfded0" d="M158 72l40 5-4 12z"/><path fill="#48382c" d="M22 136h64v12H22z"/><path fill="#4e3b26" d="M86 102h66v16H86z"/><circle r="1" fill="#8f9ca7" transform="matrix(-.63788 14.52296 -61.95706 -2.72127 25.9 161.7)"/><path fill="#242326" d="M118 143h133v5H118z"/><path fill="#d8c8b5" d="M50.4 141.8l7.8-26.2-9.6 2.8-59.9-6.3z"/><circle r="1" fill="#8ba6bd" transform="matrix(-118.75932 -78.25768 13.94946 -21.1689 207.3 0)"/><path fill="#ba8756" d="M153.4 83.2l-24.6 16.9 17.2-1.7 29-20.3z"/><ellipse cx="44" cy="77" fill="#d9dedd" rx="44" ry="27"/><circle r="1" fill="#beccd5" transform="rotate(91.7 12 63) scale(14.80482 113.52083)"/><path fill="#9d7249" d="M62.4 105.4l-.8 14.4 33.3 23.5-16-49.7z"/><circle r="1" fill="#c7cdc8" transform="rotate(94.4 90.2 151.7) scale(6.46028 62.19875)"/><path fill="#745942" d="M150.4 86.2l-12.9-10-11.2 4.3-21.2 32.3z"/><path fill="#73604b" d="M220 91l33-11-50-4z"/><circle cx="99" cy="81" r="20" fill="#d8dbd8"/><circle cx="184" cy="89" r="6" fill="#5e4b2d"/><path fill="#171917" d="M216 127l55-4-33-13z"/><ellipse cx="253" cy="159" fill="#73808f" rx="133" ry="10"/><circle r="1" fill="#98b0cb" transform="matrix(2.13528 16.53814 -224.31998 28.96249 44.9 10.2)"/><path fill="#9b7a5e" d="M262.6 138.9l-8.7 5-8.5-14.8 8.7-5z"/><path fill="#c8b6a7" d="M10 146l-26-33 51 16z"/><path fill="#e1e3dd" d="M141 69l-9 3 20 12z"/><path fill="#2f2c24" d="M131.5 112.4l-30.2 13.9 103.9 2.6 3.5-18.4z"/><path fill="#473b27" d="M125.7 104.3l59.6-19.6-33.3 52.1-17.9-58.6z"/><path fill="#8f745c" d="M58 123l45 20 56-10z"/><ellipse cx="171" cy="149" fill="#455976" rx="102" ry="2"/><path fill="#8f633a" d="M55.5 132l33.4-38.8-2.3 25-21-17.9z"/><path fill="#634d3b" d="M49 144l15-2-5-20z"/><path fill="#282321" d="M98 147l-17-9-27 9z"/><path fill="#524234" d="M115.2 113.5l-13.4 19.9-19-12.9 13.4-19.9z"/><path fill="#ddd3be" d="M192.1 70.8l4 .8-4.2 19.6-4-.8z"/><path fill="#e5ac67" d="M171 83h7v5h-7z"/><circle r="1" fill="#e3d9c7" transform="matrix(-1.79721 -3.1617 4.15188 -2.36005 55.2 121.7)"/><path fill="#b9824e" d="M76 124V94l13 1z"/><ellipse cx="29" cy="91" fill="#e0e1d8" rx="48" ry="15"/><path fill="#7c8c9d" d="M-3 166l-5-18 29-5z"/><circle cx="104" cy="140" r="6" fill="#b89169"/><path fill="#4e422a" d="M175.7 112.1l-43.5 2.2 24.5-22.8-.9-14.7z"/><path fill="#24231f" d="M148 117h30v15h-30z"/><path fill="#625037" d="M212.4 76.8l-6-1.1-11.4 8.1 53 23.2z"/><path fill="#a97e60" d="M120 84h6v15h-6z"/><circle r="1" fill="#83a0bc" transform="matrix(88.53795 27.07163 -3.91665 12.80944 231.4 4.5)"/><ellipse cx="255" cy="155" fill="#778a9f" rx="32" ry="7"/><path fill="#5d4a3e" d="M26 135h19v11H26z"/><circle r="1" fill="#dadcd6" transform="matrix(3.14198 -13.27309 17.40294 4.11959 99.5 86.2)"/><path fill="#d0d5d2" d="M193.3 81.9l-69.4-5.6 7.6-12.5 80.5 9.6z"/><path fill="#a27a54" d="M143 88l21-2-35 16z"/><path fill="#c29866" d="M142 91.4l-.8-1.9L168 78.6l.7 1.9z"/><path fill="#725745" d="M145 132h69v12h-69z"/><circle r="1" fill="#a6b8c4" transform="matrix(-3.9363 14.00383 -70.87947 -19.92332 226.7 43.2)"/><path fill="#55412e" d="M64.5 128.3l40.2-19.4 96.5-26.8-69.9 28.1z"/><path fill="#393126" d="M121 97h9v36h-9z"/><circle r="1" fill="#a8bdd0" transform="matrix(-75.1233 -6.2262 1.20958 -14.59443 102 28.3)"/><circle r="1" fill="#4a3a21" transform="matrix(5.79642 3.9035 -1.48454 2.20444 138.2 91.5)"/><path fill="#bfb5af" d="M9 134h11v13H9z"/><path fill="#937259" d="M231 143l9-12 25-3z"/><path fill="#947456" d="M149.7 128.8l-3.4-2.7-18 15 17.4-6.8z"/><path fill="#55432f" d="M79.1 106.3l12.4-7.7 9.5 28.8-15-25.2z"/><path fill="#383122" d="M174 96l97 8-84 29z"/><path fill="#cfc3ba" d="M45 127h4v15h-4z"/><path fill="#d89b5f" d="M109.5 106.3l-.3-1 9.3-3.6.3 1z"/><path fill="#765f4d" d="M78.4 116.9l15.4 7.2 22.2-16.2-25.9 29.9z"/><path fill="#363e42" d="M227.4 87.9l33.8 13.9 9.6-22.7.2-1.7z"/><path fill="#f0cb94" d="M191.2 81.5l5.2 3-3.6 6-5.2-3z"/><path fill="#41352f" d="M224.3 143.8l3.4-19.7 6.3 20.6 37-5.8z"/><circle cx="211" cy="84" r="3" fill="#ac8366"/><path fill="#22211d" d="M241 129l-23-19 43 10z"/><path fill="#2c2521" d="M76.4 144v1l-56.8 3v-1z"/><path fill="#917158" d="M70 136l-7-19-3 29z"/><path fill="#8b95a1" d="M0 150h122v20H0z"/><ellipse cx="148" cy="52" fill="#b7c6ce" rx="71" ry="9"/><path fill="#6a5445" d="M48 140l-28-3 4 7z"/><path fill="#dadcd7" d="M107.6 102.4l-17.7-7.8L-16 80.2l142.5-7.1z"/><circle r="1" fill="#715b4c" transform="rotate(59.5 -61 153.6) scale(4.85772 24.44523)"/><path fill="#79450d" d="M170.9 83.4l.2-3 4 .2-.2 3z"/><path fill="#cdd0cc" d="M208.9 74.9l-38.8 4.8 9.7 4.9 21.4-5.8z"/><ellipse cx="151" cy="142" fill="#574132" rx="25" ry="3"/><path fill="#664a2e" d="M60 110h18v3H60z"/></g></g></svg>