<svg xmlns="http://www.w3.org/2000/svg" viewBox="0 0 1800 1200"><defs/><filter id="prefix__a"><feGaussianBlur stdDeviation="12"/></filter><rect width="100%" height="100%" fill="#3b414d"/><g filter="url(#prefix__a)"><g transform="translate(3.5 3.5) scale(7.03125)"><circle r="1" fill="#6682a4" fill-opacity=".5" transform="matrix(242.376 79.23932 -21.4884 65.7284 148.2 34.8)"/><circle r="1" fill="#5c7491" fill-opacity=".5" transform="rotate(-151.8 23.5 24.4) scale(30.71452 130.37459)"/><circle cx="76" cy="111" r="42" fill="#29251d" fill-opacity=".5"/><path fill="#475b76" fill-opacity=".5" d="M147 50h109v95H147z"/><circle r="1" fill="#16110c" fill-opacity=".5" transform="matrix(-9.7023 23.94104 -8.07087 -3.27079 72.2 75.4)"/><ellipse cx="86" cy="134" fill="#161616" fill-opacity=".5" rx="61" ry="11"/><path fill="#c1b096" fill-opacity=".5" d="M83.8 41.8l19.4 43 3.6 1.7L85 71.7z"/><circle r="1" fill="#6d7e96" fill-opacity=".5" transform="matrix(-.09204 -12.80546 172.494 -1.2398 93.4 0)"/><circle cx="25" cy="71" r="35" fill="#51667f" fill-opacity=".5"/><path fill="#b6bfc3" fill-opacity=".5" d="M159 136.7l-8.9 3.9 2.1 4.7 17.3-.8z"/><path fill="#4f463e" fill-opacity=".5" d="M100.6 73.2l34.2 39.3-23.4 20.3-34.2-39.3z"/><circle r="1" fill="#4c5f7a" fill-opacity=".5" transform="rotate(-50.4 198.3 -118.5) scale(24.68398 45.44508)"/><path fill="#000406" fill-opacity=".5" d="M53 145.2l-26-.4v-6l26 .4z"/><path fill="#354958" fill-opacity=".5" d="M0 145h239v17H0z"/><path fill="#bcbcb4" fill-opacity=".5" d="M83 67h15v10H83z"/><circle r="1" fill="#41526a" fill-opacity=".5" transform="matrix(53.85603 -21.04104 12.91165 33.0483 247 105)"/><path fill="#2a2a2b" fill-opacity=".5" d="M71 58h15v36H71z"/><path fill="#181c20" fill-opacity=".5" d="M41 99l-15 45 43-52z"/><path fill="#4a5f77" fill-opacity=".5" d="M50 68l-28 78-38-30z"/><path fill="#383636" fill-opacity=".5" d="M63 65l-10 73 96-12z"/><path fill="#fffff9" fill-opacity=".5" d="M81 48h10v2H81z"/><circle r="1" fill="#566981" fill-opacity=".5" transform="matrix(105.923 4.6545 -.82093 18.68191 89 27)"/><path fill="#4e4843" fill-opacity=".5" d="M98.2 64l26.7 49.6-25.1 10-13.7-11z"/><circle r="1" fill="#4e6178" fill-opacity=".5" transform="matrix(-22.36419 -12.0461 17.71446 -32.8878 32.5 74.7)"/><ellipse cx="130" cy="143" fill="#e0e6df" fill-opacity=".5" rx="3" ry="2"/><path fill="#453424" fill-opacity=".5" d="M90 52l13 18-12-8z"/><path fill="#1c2026" fill-opacity=".5" d="M60 71l-8 43 34-52z"/><circle cx="92" cy="70" r="4" fill="#f2f5f2" fill-opacity=".5"/><path fill="#232425" fill-opacity=".5" d="M151 141l-14-25-54 26z"/><path fill="#4c5d76" fill-opacity=".5" d="M146.6 73.9l36.8 40.8-26 23.4-36.8-40.8z"/><ellipse cx="220" cy="169" fill="#283b46" fill-opacity=".5" rx="165" ry="9"/><circle cx="156" cy="142" r="3" fill="#e3e8e5" fill-opacity=".5"/><path fill="#3a3836" fill-opacity=".5" d="M78 78.7L63.2 95.3l40-1.1-12-19.4z"/><circle r="1" fill="#54667d" fill-opacity=".5" transform="matrix(-47.8314 11.36029 -7.88034 -33.17942 27 45)"/><path fill="#151a20" fill-opacity=".5" d="M27 136h99v9H27z"/><path fill="#8c8173" fill-opacity=".5" d="M92 73l2 8 7-6z"/><path fill="#485a71" fill-opacity=".5" d="M145 139l94-15 32-135z"/><ellipse cx="59" cy="150" fill="#3c4958" fill-opacity=".5" rx="94" ry="5"/><path fill="#44403d" fill-opacity=".5" d="M123 95l13 47-54-46z"/><circle r="1" fill="#51637d" fill-opacity=".5" transform="matrix(-10.62761 -25.36277 62.56099 -26.21455 164 47.5)"/><ellipse cx="114" cy="6" fill="#66778f" fill-opacity=".5" rx="32" ry="9"/><path fill="#9fa5a3" fill-opacity=".5" d="M148 144h15v2h-15z"/><ellipse cx="231" cy="154" fill="#32404e" fill-opacity=".5" rx="73" ry="11"/><circle r="1" fill="#405169" fill-opacity=".5" transform="rotate(158.8 113.3 82.4) scale(63.33644 12.96556)"/><path fill="#4d5e76" fill-opacity=".5" d="M13.3 145l-3.7-3.4L30.7 119l3.7 3.4z"/><path fill="#bec4c2" fill-opacity=".5" d="M92 69.9l.5.8-8.4 5.4-.6-.8z"/><path fill="#25272b" fill-opacity=".5" d="M61 68h16v37H61z"/><path fill="#64748a" fill-opacity=".5" d="M224 13l21-14-71-15z"/><ellipse cx="153" cy="144" fill="#949d9e" fill-opacity=".5" rx="21" ry="1"/><path fill="#4a4947" fill-opacity=".5" d="M86 63h1v53h-1z"/><path fill="#4e5f76" fill-opacity=".5" d="M164 137h18v9h-18z"/><path fill="#72777c" fill-opacity=".5" d="M124 141h8v2h-8z"/><path fill="#756c64" fill-opacity=".5" d="M58.1 118l-5-7.5.8-.5 5 7.5z"/><path fill="#4b5f77" fill-opacity=".5" d="M17.4 77.8L53 61.1l5.1 30.1-24.5 5.3z"/><path fill="#1b1e22" fill-opacity=".5" d="M27 130h32v15H27z"/><path fill="#4b5c74" fill-opacity=".5" d="M163.9 134.4l-28.6-16.2L116.2 91 271 64.1z"/><path fill="#2c2d2e" fill-opacity=".5" d="M63 137l-35-6 18-17z"/><circle cx="86" cy="47" r="2" fill="#ebf0ef" fill-opacity=".5"/><path fill="#212427" fill-opacity=".5" d="M148 131l-16-16 12 30z"/><path fill="#34434e" fill-opacity=".5" d="M-16 179.7l43.1-35.8-41 .6 106.6 23z"/><path fill="#556881" fill-opacity=".5" d="M111 70l76-61-127 6z"/><path fill="#c4c6c0" fill-opacity=".5" d="M86 72h13v2H86z"/><path fill="#3e3a38" fill-opacity=".5" d="M114.5 101.8l-6.2-22.3-22.6 11.2-25.1.9z"/><path fill="#4a4540" fill-opacity=".5" d="M92 63l1-8 10 19z"/><path fill="#485a71" fill-opacity=".5" d="M250.4 87.6l-107.5 48.6 17.3 5.8-23.2-26.1z"/><path fill="#524c46" fill-opacity=".5" d="M113.3 116.6l-13.8-10.8 3.8-14.9 17.6 17.9z"/><circle r="1" fill="#7e8c9f" fill-opacity=".5" transform="matrix(-.48179 1.73742 -2.0511 -.56877 162.9 138.9)"/><path fill="#3c3936" fill-opacity=".5" d="M137 118l-7 10-15-35z"/><path fill="#191e23" fill-opacity=".5" d="M36.1 107.8l-1.7 14.6 25.9-16.6 17.6-11.5z"/><path fill="#e7eae1" fill-opacity=".5" d="M87 67h3v6h-3z"/><path fill="#948d85" fill-opacity=".5" d="M87 84h2v3h-2z"/><path fill="#1d1f22" fill-opacity=".5" d="M100 143l6-21 21 20z"/><path fill="#58677b" fill-opacity=".5" d="M1 140l24-4-2 7z"/><path fill="#4e6178" fill-opacity=".5" d="M19 96l45-30 12-39z"/><circle r="1" fill="#181d20" fill-opacity=".5" transform="rotate(66.3 -38.7 113.2) scale(5.53713 2.28943)"/><ellipse cx="63" cy="27" fill="#556880" fill-opacity=".5" rx="43" ry="21"/><path fill="none" stroke="#413f3d" stroke-opacity=".5" stroke-width=".5" d="M36 123q54.7-16.3 56.3-53"/><path fill="#2f2c29" fill-opacity=".5" d="M77 51h7v18h-7z"/><path fill="#394552" fill-opacity=".5" d="M197.1 145.6l-52.6-.6-12.5-8.2 23.2 23.6z"/><path fill="#4e6079" fill-opacity=".5" d="M137 106l77-71-102 53z"/><path fill="#302f2f" fill-opacity=".5" d="M82.1 57l-11 23.5L64 77l11-23.6z"/><path fill="#433e3b" fill-opacity=".5" d="M97 76l28 24-18-1z"/><path fill="#48586e" fill-opacity=".5" d="M12.3 113.6l13.5 45.7.2-26.6 21.5-54.4z"/><path fill="none" stroke="#3c3c3d" stroke-opacity=".5" stroke-width=".5" d="M84.3 54.8q10 76 33.4 88.8"/><path fill="#3d4957" fill-opacity=".5" d="M0 149h91v8H0z"/><path fill="#363432" fill-opacity=".5" d="M108 101.5L89.5 74.6l-.2 13.9-1-2.6z"/><circle cx="98" cy="69" r="2" fill="#373533" fill-opacity=".5"/><path fill="#5b4834" fill-opacity=".5" d="M89 52h4v5h-4z"/><path fill="#313233" fill-opacity=".5" d="M65.5 100.1l19-20.8-35.6 15.1-5.1 6.9z"/><path fill="#1d1f23" fill-opacity=".5" d="M131 135.2l-1.8-2.4 13.8-10 1.8 2.4z"/><ellipse cx="95" cy="73" fill="#c3c2bb" fill-opacity=".5" rx="1" ry="8"/><ellipse cx="157" cy="143" fill="#c8d0d3" fill-opacity=".5" rx="3" ry="2"/><path fill="#6d7a81" fill-opacity=".5" d="M82.3 72.9l2 .2-.6 4-2-.2z"/><path fill="#b1a997" fill-opacity=".5" d="M90 61l-4-1-1-9z"/><ellipse cx="204" cy="28" fill="#4e6279" fill-opacity=".5" rx="19" ry="23"/><path fill="#373636" fill-opacity=".5" d="M107.4 130.5l-10.8-16.6-50.9 13.5 46.2-1.2z"/><path fill="#464f5b" fill-opacity=".5" d="M155 151.8l-8.5-20.9 14.6 27.9-4.1-10.2z"/><path fill="#181d23" fill-opacity=".5" d="M60 70h5v20h-5z"/><path fill="#4c5f76" fill-opacity=".5" d="M-16 135v-28.5l78.1-45.1L59 80.8z"/><path fill="#52647c" fill-opacity=".5" d="M103 75l-9-20.1L125 41l9 20.1z"/></g></g></svg>