<svg xmlns="http://www.w3.org/2000/svg" viewBox="0 0 1800 1200"><defs/><filter id="a"><feGaussianBlur stdDeviation="12"/></filter><rect width="100%" height="100%" fill="#633b49"/><g filter="url(#a)"><g fill-opacity=".5" transform="translate(3.5 3.5) scale(7.03125)"><circle r="1" fill="#fcffff" transform="rotate(-92.3 97.3 -35.2) scale(76.18839 254.99999)"/><circle r="1" fill="#36212f" transform="matrix(14.74003 54.25416 -65.6463 17.8351 126 112.5)"/><ellipse cx="137" cy="24" fill="#f1fff9" rx="255" ry="54"/><circle r="1" fill="#10000a" transform="matrix(-16.92372 14.96083 -17.58154 -19.88828 141.4 58)"/><ellipse cx="27" cy="153" fill="#b2ebf6" rx="40" ry="30"/><circle r="1" fill="#9bbbbf" transform="matrix(23.12267 8.68166 -21.00735 55.9508 217.3 125.4)"/><circle r="1" fill="#f6fcf6" transform="rotate(-158.2 112.7 -7.4) scale(142.80335 38.06859)"/><path fill="#450f26" d="M116.6 148.3l-48.7-6 5.5-44.6 48.7 6z"/><circle r="1" fill="#6b132f" transform="matrix(15.3119 9.63323 -16.45693 26.15809 177 116)"/><ellipse cx="113" cy="79" fill="#575f6c" rx="31" ry="24"/><circle r="1" fill="#98a9b6" transform="matrix(-2.5175 21.17898 -17.8423 -2.12088 137.6 115.5)"/><circle r="1" fill="#4e696e" transform="rotate(-137 45.6 39) scale(20.24156 13.11727)"/><circle r="1" fill="#967a68" transform="matrix(-43.63947 -13.50549 2.36323 -7.63617 156.3 152.7)"/><path fill="#e6d2c0" d="M149.9 56.9l16.4 27.4 10.5.1L271 70.6z"/><path fill="#01152c" d="M212.5 169.4l-10.3-3.8 11.3-31 10.3 3.8z"/><circle r="1" fill="#e3f1f4" transform="matrix(20.65308 14.7317 -34.72107 48.67715 55.4 0)"/><circle r="1" fill="#99a8b6" transform="rotate(-103.1 161.4 -21.8) scale(9.29026 38.88842)"/><path fill="#97a8b2" d="M114.8 101l-66-25.1 52.6 2.1 21.6 1.6z"/><circle r="1" fill="#9db3bb" transform="matrix(15.12542 -19.68742 38.84604 29.84457 21 120.7)"/><path fill="#332f3c" d="M129.6 97.3l-10.1-43.5 24.3-21.3.8 23.8z"/><circle r="1" fill="#0e1822" transform="rotate(115 1.3 113.4) scale(16.35454 25.44535)"/><circle r="1" fill="#4d5b58" transform="rotate(36.4 -24.2 112.4) scale(1 184.96116)"/><circle r="1" fill="#d7e0db" transform="matrix(.66116 -8.87094 44.59428 3.32367 244.2 107.7)"/><path fill="#f2fbf8" d="M132.7 21.7l-23.5 34.8-29.9-20.2 23.5-34.8z"/><ellipse cx="235" cy="119" fill="#5f6874" rx="36" ry="4"/><path fill="#8e334b" d="M204.8 89.7l-12 22-30 5.1 7.6-31.2z"/><path fill="#635050" d="M164.5 45.4l-3.8 54.2-45.5-6.1L171 62.9z"/><path fill="#7899a7" d="M70.5 160.8l-14.8-13.1 26.7 5.7 4.9 31.6z"/><circle r="1" fill="#5f6967" transform="rotate(33.3 39.4 166.1) scale(1 252.54266)"/><circle r="1" fill="#1c434b" transform="matrix(-14.76625 -12.38562 11.10072 -13.23438 250.3 155.3)"/><circle r="1" fill="#3e3f42" transform="rotate(88.6 -41.5 78) scale(32.53495 1)"/><ellipse cx="215" cy="126" fill="#e6e7e5" rx="17" ry="6"/><ellipse cx="247" cy="129" fill="#677986" rx="17" ry="9"/><circle r="1" fill="#274248" transform="matrix(.40887 -2.56342 17.4442 2.7824 1.6 81.2)"/><ellipse cx="232" cy="84" fill="#8e96a3" rx="79" ry="6"/><path fill="#5e6167" d="M6 185l9-62-19 43z"/><path fill="#93959d" d="M168.3 99.6l-18.1 3.4-11.9 44.8-8.2-8.8z"/><ellipse cx="199" cy="127" fill="#b2baca" rx="5" ry="27"/><path fill="#eedeca" d="M168 47h88v31h-88z"/><path fill="#b0c4cd" d="M36 72l-16 33 61-29z"/><circle r="1" fill="#c4c9d5" transform="matrix(10.30168 -34.10247 1.67549 .50613 217.5 167)"/><ellipse cx="17" cy="51" fill="#e1d9ce" rx="24" ry="28"/><path fill="#3d0827" d="M72 90h17v10H72z"/><circle r="1" fill="#5b6068" transform="rotate(-84.5 96 36.8) scale(43.67609 1)"/><path fill="#502237" d="M178.3 151.2l-11-44.2-23.8 34.2 20.3 11z"/><path fill="#2b2c38" d="M188 126l15-38-13 17z"/><path fill="#666771" d="M92.3 68.7l8 47.5 15-35.2-10.4-26.5z"/><ellipse cx="55" cy="100" fill="#65686d" rx="13" ry="15"/><path fill="#b53652" d="M192 110l1-22-27-7z"/><path fill="#364053" d="M204 138l7 38 13-44z"/><path fill="#14333c" d="M66 134h20v17H66z"/><path fill="#ac877a" d="M197.6 164l-46.1-11.2-16.1-10.8-8.4-4.1z"/><path fill="#191f2e" d="M198.1 157.6l14.9 1.8-1.1 9-14.9-1.8z"/><circle r="1" fill="#e8e9e3" transform="matrix(3.88931 2.54287 -25.33282 38.74642 67.4 40.6)"/><path fill="#5f4a47" d="M238.1 185l-133.7-32.7 6.8-36.4 35.2 36.1z"/><path fill="#b0b6bf" d="M203.5 154.7l.2-2 18.8 2.6-.2 2z"/><path fill="#5b686d" d="M15.2 123.3l-.6-9.4 3.7-27 3.7 2.2z"/><path fill="#beced7" d="M53 116h7v31h-7z"/><path fill="#bdc2ca" d="M36.2 144.1l34.4 3.1-57.8-3.3 21.8-41.2z"/><path fill="#bad0d8" d="M20 84l-36 5v51z"/><circle r="1" fill="#9caaba" transform="rotate(120.6 44.2 94.6) scale(5.664 14.36901)"/><circle r="1" fill="#311225" transform="rotate(73.2 -33.6 123.7) scale(27.99117 3.1105)"/><path fill="#aebfc9" d="M189 71l27 18-50-8z"/><path fill="#5d1b38" d="M117 109l21-20-19 2z"/><path fill="#b8b7ba" d="M106 47l14 34 2-17z"/><path fill="#979c9f" d="M61.8 93.3l9 .4-.6 15-9-.4z"/><path fill="#646a6b" d="M43.6 90.6L7.4 82.8 44.1 86l25.7-36.8z"/><ellipse cx="71" cy="169" fill="#4a5360" rx="17" ry="8"/><path fill="#868795" d="M238 145h7v13h-7z"/><circle r="1" fill="#d6e4ef" transform="matrix(-91.26722 7.66392 -1.74722 -20.80704 190.8 0)"/><path fill="#5a3b43" d="M191.4 148.5l-61.5-19.3 62.8 29.5-5.4-68z"/><ellipse cx="195" cy="34" fill="#efefe9" rx="37" ry="26"/><circle r="1" fill="#d1e0ea" transform="matrix(7.77117 24.79784 -86.79773 27.20076 22.5 0)"/><path fill="#927470" d="M162 86l6-36-25 16z"/><path fill="#e4ddd3" d="M104.7 23.5L117 35.1 67.3 88.5 55 76.9z"/><path fill="#68707c" d="M201 115h32v7h-32z"/><path fill="#6a727c" d="M130 111.5l15.4-4.1 6.7 25-15.5 4.2z"/><path fill="#1d2631" d="M159.1 104.5l-1.3 37.5-14.1 1 10.5-16.2z"/><path fill="#c1b7b2" d="M146.1 50.1l1 .2L164 63.5l6.9 18.6z"/><circle r="1" fill="#9d929c" transform="rotate(-69.7 219.2 -91) scale(28.31548 3.69629)"/><path fill="#6e7075" d="M36 86h4v84h-4z"/><path fill="#576066" d="M154.7 159.3l-16.2 13.3-21.8 12.4 22.9-29.2z"/><path fill="#626966" d="M19.2 92.6l-.8-.6 50.4-64.6.8.6z"/><path fill="#c0cbd3" d="M39 87h3v38h-3z"/><path fill="#86969e" d="M214 80h42v16h-42z"/><path fill="#bcc0cf" d="M195.2 135.8l12.5 23.9-9.1-36.6 14.9 9.8z"/><circle r="1" fill="#737579" transform="rotate(-142.9 83 -5) scale(10.57545 4.71795)"/><path fill="#ad816f" d="M191 146h8v24h-8z"/><path fill="#092832" d="M136 90l-16 6 1-9z"/><path fill="#030006" d="M243 164h13v5h-13z"/><circle r="1" fill="#161823" transform="matrix(2.32955 6.77485 -21.37263 7.34904 113.9 164.3)"/><path fill="#84334f" d="M118.5 117.3l-21.8-4.1 26.6-16.7-3.3 33.4z"/><path fill="#b0b4b7" d="M236 166h5v4h-5z"/><path fill="#c2d1d8" d="M37.7 92.1l-14.6.5-6.6 32.7 7.5-11.8z"/><path fill="#763b4e" d="M169.2 109.7l30.9-22-25.2 62.8-10-7.5z"/><path fill="#862f4d" d="M80 108h11v30H80z"/><path fill="#635b5a" d="M78.6 139.5L46.4 97.2l41.1 23.1L48 141.9z"/><path fill="#b0bdc5" d="M13 107l-29 34 18 9z"/><path fill="#e6ebec" d="M71 48l92-27-59-18z"/><path fill="#65686a" d="M-9.6 93.4L1.8 73.2.5 66.1l7 15.4z"/></g></g></svg>