<svg xmlns="http://www.w3.org/2000/svg" viewBox="0 0 1800 1200"><defs/><filter id="a"><feGaussianBlur stdDeviation="12"/></filter><rect width="100%" height="100%" fill="#4c3d3a"/><g filter="url(#a)"><g fill-opacity=".5" transform="translate(3.5 3.5) scale(7.03125)"><circle r="1" fill="#ffe06b" transform="rotate(-91 97.7 -60) scale(63.0324 249.2853)"/><path fill="#ffb965" d="M271 90l-284-3L157-16z"/><circle r="1" fill="#4e242d" transform="matrix(4.23561 -27.3738 52.67795 8.15098 7.5 21.7)"/><ellipse cx="168" cy="150" fill="#0c1c1e" rx="255" ry="29"/><circle r="1" fill="#ffc471" transform="rotate(167.7 80 42.9) scale(30.58462 47.35004)"/><circle r="1" fill="#ffffc9" transform="rotate(-95.6 115 -34.4) scale(6.1289 58.72416)"/><path fill="#b45125" d="M122.1 68.9l1.6 29-139.8 7.2-1.6-29z"/><circle r="1" fill="#9f5633" transform="matrix(-.60263 -8.88015 61.20326 -4.15342 73.8 45)"/><circle r="1" fill="#884233" transform="rotate(-132.7 116 -44.3) scale(50.23539 21.83593)"/><circle r="1" fill="#b8451c" transform="matrix(105.95745 -4.47613 .3685 8.72294 213.7 96.2)"/><circle r="1" fill="#ffcf95" transform="matrix(-61.50772 -9.412 1.27667 -8.34307 144.2 16)"/><circle r="1" fill="#ffb34c" transform="matrix(-4.62382 -21.736 32.17767 -6.84504 225.3 69.2)"/><path fill="#ffdd63" d="M70.1 82.8l60.6-7.5 1.2 10-60.6 7.4z"/><ellipse cx="38" cy="62" fill="#ffb55b" rx="255" ry="7"/><ellipse cx="115" cy="107" fill="#674034" rx="49" ry="14"/><path fill="#ff8e2a" d="M122 86h90v10h-90z"/><path fill="#be7440" d="M217 15l54 51-92-39z"/><path fill="#ffecb0" d="M174 91l47-30-88 12z"/><ellipse cx="208" cy="106" fill="#794134" rx="32" ry="13"/><circle r="1" fill="#cb885a" transform="matrix(33.25219 2.91378 -1.15307 13.15892 83.8 21.8)"/><path fill="#6f4f3a" d="M-16-8l130 56L-6 35z"/><ellipse cy="111" fill="#3d362f" rx="66" ry="17"/><path fill="#ffd183" d="M4.6 79.3l56.7-12.5L130.8 52l-62.5 6.7z"/><path fill="#fff" d="M175.4 107.7l.1 1-12.9 1.6-.1-1z"/><ellipse cx="75" cy="74" fill="#8d512d" rx="35" ry="4"/><path fill="#ff943f" d="M101.9 90.6L49 94.3l-.9-13 52.9-3.6z"/><path fill="#ffbd55" d="M271 54.6l-90.9 39.6 20 6.7-49.7-5.4z"/><ellipse cx="209" cy="53" fill="#e19444" rx="117" ry="6"/><circle r="1" fill="#f6c47a" transform="rotate(17.2 -18.7 511) scale(19.69546 25.74814)"/><ellipse cx="62" cy="5" fill="#865548" rx="26" ry="5"/><circle r="1" fill="#fff4df" transform="matrix(.21921 3.1533 -31.17715 2.16738 167.2 76.8)"/><circle r="1" fill="#a45d37" transform="matrix(-.553 -8.32588 34.70127 -2.30486 26.7 84.1)"/><ellipse cx="170" cy="20" fill="#f3c781" rx="55" ry="4"/><path fill="#724e39" d="M236 6h20v31h-20z"/><path fill="#d07d33" d="M62 66h89v5H62z"/><circle r="1" fill="#c88249" transform="matrix(-43.55225 .182 -.0253 -6.05509 38 51.7)"/><path fill="#ffca6a" d="M96.1 77.1L87 87.9l69-3-30.4-10.5z"/><circle r="1" fill="#060809" transform="rotate(156.9 111.7 103.5) scale(51.62983 3.83429)"/><path fill="#6d4439" d="M53 95h83v13H53z"/><ellipse cx="160" cy="103" fill="#654136" rx="192" ry="3"/><circle r="1" fill="#f0842f" transform="rotate(-101.4 152.6 -55) scale(6.18379 38.78007)"/><path fill="#915f4a" d="M113.3-.1L168-6l.7 6L114 6z"/><path fill="#8e5c42" d="M176.1 7.1l-4.1-.6 19.3 10.7 62.9-7.7z"/><ellipse cx="129" cy="90" fill="#d56123" rx="33" ry="4"/><circle r="1" fill="#f7d398" transform="rotate(-93.5 67.6 -56.2) scale(2.64969 31.69635)"/><path fill="#212726" d="M0 122h95v14H0z"/><path fill="#3d3b37" d="M195 166L12 150l96 35z"/><path fill="#ffc65a" d="M216.9 68l-35.6 4.1-38.1-15.7 83.1 5.9z"/><path fill="#c38144" d="M78.8 53.1l36.8 2.2 1.6-25.7 44.6-.7z"/><path fill="#db462a" d="M159 109.8l28 .4v4l-28-.4z"/><path fill="#6e4337" d="M225 93h31v20h-31z"/><path fill="#d89e60" d="M65.3 32.8L69 12l17.7 3.1L83 36z"/><ellipse cx="102" cy="22" fill="#95663d" rx="12" ry="3"/><path fill="#fff" d="M173.4 108l-.4.9-6.4-2.9.4-.9z"/><circle r="1" fill="#ac6d3c" transform="matrix(1.45632 -9.13075 27.53306 4.39141 229 40.6)"/><path fill="#d39756" d="M55 47l30 6-69 17z"/><path fill="#ffc765" d="M22 76l4-10h33z"/><circle r="1" fill="#5b4b3c" transform="rotate(-18.6 41.5 -4.6) scale(15.19885 28.89243)"/><circle r="1" fill="#ffb24b" transform="rotate(72 67.6 201.5) scale(6.24327 45.06082)"/><path fill="#d9a776" d="M160.8 15.5l-10.7-4.9L187.8-16l-1.7 19.8z"/><path fill="#9c6943" d="M9.5 43l67.4 4.5-28-52-3 63.1z"/><path fill="#ffd281" d="M128 37h64v5h-64z"/><ellipse cx="179" cy="117" fill="#523d34" rx="146" ry="6"/><path fill="#ffe4a7" d="M143 75l-37 7 23 3z"/><path fill="#d76929" d="M234.2 94.6L271 78.5l-85.8 22.3-16.3-11.3z"/><ellipse cy="71" fill="#cb8045" rx="21" ry="9"/><path fill="#9b572b" d="M74.6 79.3l-4.1-6.9L145 69l-48.7 7.2z"/><circle r="1" fill="#fde2a2" transform="matrix(.3606 1.61886 -21.02122 4.68247 75.5 61.6)"/><path fill="#ffd479" d="M209.4 74.4L193.6 65l40.9 5 36.5 1.1z"/><path fill="#824535" d="M132 98h29v13h-29z"/><circle r="1" fill="#bc5b3b" transform="matrix(.38658 -4.70206 10.86054 .8929 49.5 94)"/><path fill="#ffc26a" d="M162 94h23v4h-23z"/><ellipse cx="39" cy="78" fill="#885231" rx="27" ry="2"/><circle r="1" fill="#3c3835" transform="rotate(-22.3 500.2 -277.7) scale(52.60056 14.22659)"/><path fill="#e8a656" d="M133.3 26.8l10.8 21.1-17.2 6.6-19 16.3z"/><path fill="#e39c4e" d="M191 32l-18 23 92 7z"/><path fill="#9c6037" d="M76 40h38v9H76z"/><path fill="#c19167" d="M263.1-7.5l-71-8.5 51.3 20.2 27.6 7.3z"/><path fill="#da882b" d="M138 64h31v3h-31z"/><path fill="#fead40" d="M92.3 83.6l-.7-3 70.1-16.2.7 3z"/><circle r="1" fill="#f8d092" transform="matrix(12.10683 -.30345 .10809 4.3124 105 9.7)"/><path fill="#ffc766" d="M211.5 81.8l-8.6-4.4-14.7-1.2-6.9 13.4z"/><path fill="#ab7747" d="M31 62h25v3H31z"/><path fill="#bf8955" d="M171 16.1l2.1-8.6 19.5 5.6 49.7 9.7z"/><path fill="#f0b262" d="M89.1 52.1l-12.3-.6-11.2-3L53 73z"/><path fill="#ffb446" d="M138 83h27v6h-27z"/><path fill="#803728" d="M202 98l-41 3 23 8z"/><path fill="#944832" d="M75 95.4l60.5 2 55.5 13.3-82.9-21z"/><path fill="#f2bf75" d="M46.4 56.7L22.1 67.2 58 66 8.1 67.3z"/><path fill="#f6bc65" d="M197.3 38.4l-10.6-5L119 53.2l47.6-.9z"/><circle r="1" fill="#e09849" transform="matrix(.0891 .99602 -118.00881 10.5576 50 73.5)"/><path fill="#ff9560" d="M174.5 109.6l-1.7-3.6 10.5 6.6-30.3-3.2z"/><path fill="#f9d58e" d="M168 28.4l18.9-6.4-20.6-8.6-25.7 10.9z"/><path fill="#ad8765" d="M20.6-6.5L.1-16 32.7 4.6l45.2-6.3z"/><path fill="#f7c174" d="M-10.5 70.6L43.1 60l-18.2.7L-16 81.3z"/><path fill="#a4663e" d="M-16 86.3l43.2-22-39.1 10.8 38.5 19.1z"/><circle r="1" fill="#8a5838" transform="matrix(-.82919 -4.65503 26.28926 -4.68283 238.5 33.8)"/><path fill="#a76c3d" d="M35.6 48.3l21.7 3.5-.9 5.9-21.7-3.5z"/><path fill="#050a0f" d="M64.1 163l33.9 3-.1 1-33.9-3z"/><path fill="#ffe3a0" d="M69.7 61.2l-.1-1 50.7-5.4.1 1z"/></g></g></svg>