<svg xmlns="http://www.w3.org/2000/svg" viewBox="0 0 1800 1200"><defs/><filter id="prefix__a"><feGaussianBlur stdDeviation="12"/></filter><rect width="100%" height="100%" fill="#384e54"/><g filter="url(#prefix__a)"><g transform="translate(3.5 3.5) scale(7.03125)"><path fill="#fffff8" fill-opacity=".5" d="M271-2l-23 187L-15-16z"/><circle r="1" fill="#83797d" fill-opacity=".5" transform="rotate(33 -68.2 129.7) scale(197.38072 39.41172)"/><path fill="#e3d8d2" fill-opacity=".5" d="M240-6l-5 162L102-16z"/><ellipse cx="11" cy="139" fill="#0e0109" fill-opacity=".5" rx="67" ry="33"/><circle r="1" fill="#7e8285" fill-opacity=".5" transform="matrix(160.96746 74.28551 -13.605 29.48033 56.1 51.2)"/><path fill="#1c121d" fill-opacity=".5" d="M239 145l16-5-11 45z"/><ellipse cx="226" cy="132" fill="#fff7e7" fill-opacity=".5" rx="9" ry="91"/><path fill="#35333b" fill-opacity=".5" d="M56 134h161v22H56z"/><circle r="1" fill="#9a9a99" fill-opacity=".5" transform="rotate(50.8 1.9 228) scale(46.70946 31.85073)"/><circle r="1" fill="#d1cecb" fill-opacity=".5" transform="matrix(-10.1668 -12.59985 54.9742 -44.3586 244.2 33.1)"/><circle r="1" fill="#cccdcc" fill-opacity=".5" transform="matrix(-57.55492 -39.59673 18.4788 -26.85942 123.5 0)"/><path fill="#8f8288" fill-opacity=".5" d="M236 74h20v73h-20z"/><circle cx="180" cy="164" r="39" fill="#666363" fill-opacity=".5"/><circle r="1" fill="#5a585c" fill-opacity=".5" transform="matrix(8.6359 -16.8987 51.16618 26.14796 48 96.7)"/><circle r="1" fill="#d9b89b" fill-opacity=".5" transform="matrix(.1308 .99141 -67.35467 8.88573 114 161.1)"/><circle r="1" fill="#72777c" fill-opacity=".5" transform="matrix(-14.45036 18.9688 -121.93313 -92.88815 51.7 45.8)"/><path fill="#f5ddaa" fill-opacity=".5" d="M182.9 175.5l28.3-121-10.4 51.1-17.1 79.4z"/><path fill="#2c2d35" fill-opacity=".5" d="M29 169l73-53 46 38z"/><ellipse cx="32" cy="59" fill="#8f9497" fill-opacity=".5" rx="37" ry="9"/><path fill="#7a7b81" fill-opacity=".5" d="M216 139l-3-67-20 70z"/><path fill="#f7f4ea" fill-opacity=".5" d="M215 46h10v61h-10z"/><path fill="#9b9fa0" fill-opacity=".5" d="M251 33l-67 2-46 34z"/><ellipse cx="167" cy="151" fill="#27313c" fill-opacity=".5" rx="50" ry="4"/><path fill="#5a646b" fill-opacity=".5" d="M-2-16l-14 48 81 5z"/><path fill="#d5ba99" fill-opacity=".5" d="M32 167l23 18 4-17z"/><path fill="#b3a08c" fill-opacity=".5" d="M218 159h38v9h-38z"/><path fill="#ded5c6" fill-opacity=".5" d="M239 175.8l-17 .3-1-60 17-.2z"/><ellipse cx="36" cy="83" fill="#41494e" fill-opacity=".5" rx="33" ry="8"/><ellipse cx="89" cy="99" fill="#777a7c" fill-opacity=".5" rx="47" ry="10"/><path fill="#172230" fill-opacity=".5" d="M194.5 156.9l22.4-5-2.4 6.3-13-.3z"/><circle r="1" fill="#d9dbda" fill-opacity=".5" transform="matrix(25.87356 -10.30645 4.06888 10.2146 170.7 6.1)"/><path fill="#3d424a" fill-opacity=".5" d="M248 185l-9-44 14 5z"/><ellipse cx="4" cy="122" fill="#15181c" fill-opacity=".5" rx="36" ry="19"/><circle r="1" fill="#bbbaba" fill-opacity=".5" transform="rotate(133.6 117.5 60.7) scale(38.41018 35.76763)"/><path fill="#b4b7b4" fill-opacity=".5" d="M204 76.2l-31.2 24.6L156 82.6l55.6-37.2z"/><circle r="1" fill="#dadad9" fill-opacity=".5" transform="matrix(17.37257 -4.11697 2.0593 8.6897 255 22.2)"/><path fill="#4a4c53" fill-opacity=".5" d="M53 102l107 32-91-2z"/><path fill="#72747f" fill-opacity=".5" d="M269.3 94.8l-32.6 5.2-2-12.8 32.6-5.2z"/><path fill="#7e7f82" fill-opacity=".5" d="M95.2 81.7l99.4 27.4-6.9 33.3-70.6-35z"/><ellipse cx="105" cy="32" fill="#9e9da1" fill-opacity=".5" rx="22" ry="10"/><path fill="#a59884" fill-opacity=".5" d="M198.7 160.3l-39.1-3.8 24 .4 76 6.2z"/><path fill="#bebfbd" fill-opacity=".5" d="M98-8l106 45-66 18z"/><circle r="1" fill="#a6a2a1" fill-opacity=".5" transform="matrix(7.07395 14.67259 -6.58431 3.17443 255 133.7)"/><path fill="#d9bb9d" fill-opacity=".5" d="M57 166h22v2H57z"/><path fill="#fff1c1" fill-opacity=".5" d="M189 146h2v9h-2z"/><path fill="#a59fa6" fill-opacity=".5" d="M234 50h22v29h-22z"/><circle r="1" fill="#929495" fill-opacity=".5" transform="rotate(118.1 53.3 85.8) scale(31.33283 15.90359)"/><path fill="#e8e7df" fill-opacity=".5" d="M213 53h18v32h-18z"/><path fill="#b4a796" fill-opacity=".5" d="M196 159h59v2h-59z"/><path fill="#131f2b" fill-opacity=".5" d="M0 155h46v14H0z"/><circle r="1" fill="#574441" fill-opacity=".5" transform="matrix(53.24238 -5.05363 .54064 5.69586 108.8 169)"/><circle r="1" fill="#1f2531" fill-opacity=".5" transform="matrix(-34.78517 5.88347 -.68921 -4.07488 72 160.5)"/><ellipse cx="220" cy="107" fill="#e3dfd6" fill-opacity=".5" rx="5" ry="48"/><path fill="#696c6f" fill-opacity=".5" d="M20.7 68.5L6.2 85.1l-24.9-21.6 14.5-16.6z"/><path fill="#313a44" fill-opacity=".5" d="M196 147h22v12h-22z"/><path fill="#858a8e" fill-opacity=".5" d="M77.1 67.3L25.2 44l27.3 37.1-2.9-5.8z"/><path fill="#f0dcb1" fill-opacity=".5" d="M202.8 91.5l1 .2-18.6 80.8-1-.2z"/><path fill="#bfa185" fill-opacity=".5" d="M170.7 155.5l-97.3 12-.1-1 97.3-12z"/><ellipse cx="155" cy="165" fill="#514e4f" fill-opacity=".5" rx="20" ry="9"/><ellipse cx="27" cy="147" fill="#363a41" fill-opacity=".5" rx="162" ry="4"/><ellipse cx="107" cy="2" fill="#bcbcbc" fill-opacity=".5" rx="33" ry="24"/><path fill="#5e656e" fill-opacity=".5" d="M160.2 145.5l.6-16 29 1-.6 16z"/><path fill="#4f4f54" fill-opacity=".5" d="M0 71h36v34H0z"/><path fill="#b2b3b0" fill-opacity=".5" d="M260-16l-42 58-32-11z"/><path fill="#90857a" fill-opacity=".5" d="M223.5 158.7l38.6 7.7-18.5 2.5 27.4 4.7z"/><circle r="1" fill="#72797d" fill-opacity=".5" transform="rotate(-140.9 45.8 14) scale(51.37561 12.94674)"/><path fill="#9fa1a2" fill-opacity=".5" d="M140 66l-12-41-59-4z"/><path fill="#55595e" fill-opacity=".5" d="M87.3 105.3l-2.2 2.2-49.4 7.4-16.1-13.6z"/><path fill="#d9d3ca" fill-opacity=".5" d="M218.8 135.5l-.9 24 21.4-14-3.2-42.3z"/><path fill="#d1b68f" fill-opacity=".5" d="M156 159h2v11h-2z"/><circle r="1" fill="#e4d1a3" fill-opacity=".5" transform="matrix(-13.50166 61.40197 -.97667 -.21476 211.5 50.9)"/><path fill="#b8b3a8" fill-opacity=".5" d="M171.9 185l38.8-19 28.3-17.5-14.5 13z"/><path fill="#2f333b" fill-opacity=".5" d="M114.1 158.8L72 156.9l-18.5-39.7 6.2-8z"/><path fill="#504d4d" fill-opacity=".5" d="M191 160h17v8h-17z"/><path fill="#8c9195" fill-opacity=".5" d="M16.6-3.6L69.5 3l1.9 16.3 95.7 67.1z"/><path fill="#8a888a" fill-opacity=".5" d="M197.1 132.8l6.9-39.1.2-11.2 14.4 52.4z"/><path fill="#5b5f64" fill-opacity=".5" d="M41.3 101.2l54.9 6.7 101.2 43.6-123.8-36.6z"/><path fill="#d2b99c" fill-opacity=".5" d="M117 158l5 3-1 2z"/><path fill="#36343f" fill-opacity=".5" d="M271 138.7l-7.1 20.5 7.1 7.1-30.6-12.4z"/><path fill="#323b45" fill-opacity=".5" d="M160 154.6l28 1.7-2-2.6-13.5-7.5z"/><path fill="none" stroke="#494140" stroke-opacity=".5" stroke-width=".5" d="M140.8 159.2q-70.5 9.2-88.1 18.1"/><path fill="#afb1af" fill-opacity=".5" d="M209 63h4v32h-4z"/><path fill="#cebc9f" fill-opacity=".5" d="M34 169h15v1H34z"/><path fill="#898c8e" fill-opacity=".5" d="M131 93.5l27.9-25.6-89.9-29 48.3-5.2z"/><path fill="#676b6f" fill-opacity=".5" d="M-16 68.6l44.2-5.3 68.3 28.5-79.7-21.6z"/><circle r="1" fill="#8f9093" fill-opacity=".5" transform="matrix(-3.27715 -1.92223 7.29126 -12.43063 193.8 98.4)"/><path fill="#37363b" fill-opacity=".5" d="M113 162l-51 7 73 16z"/><path fill="#c1ac92" fill-opacity=".5" d="M48 167h18v2H48z"/><path fill="#474c51" fill-opacity=".5" d="M106 129h33v12h-33z"/><circle r="1" fill="#7e8082" fill-opacity=".5" transform="matrix(-10.38012 8.15074 -26.31467 -33.51225 119.5 81.5)"/><path fill="#c7c9c6" fill-opacity=".5" d="M124.2-10l-4 23.3-34.8-9.9L79.8-16z"/><path fill="#adafb0" fill-opacity=".5" d="M128.5 20.1l-54.7-5.7 20.3 16.5 48.9-4z"/><circle r="1" fill="#212a36" fill-opacity=".5" transform="rotate(-95.4 99.3 54.6) scale(8.97933 25.4551)"/><path fill="#e5d1b4" fill-opacity=".5" d="M171 158v-1l14-1v1z"/><path fill="#4a494b" fill-opacity=".5" d="M138.1 172.4l47.9-11.6-1.5 18.6-37.5-15.1z"/><path fill="#1d2225" fill-opacity=".5" d="M-8.3 143.6l41.5-26.2 30.7-3.1-29.8 31.1z"/><path fill="#e4e0d7" fill-opacity=".5" d="M217 121h17v15h-17z"/><path fill="#a4a7a6" fill-opacity=".5" d="M197 42l-30 42-19-2z"/><path fill="#8a8a8b" fill-opacity=".5" d="M209 104h7v31h-7z"/><path fill="#bcbebb" fill-opacity=".5" d="M207.9 52l-19.2-1.7-14.5 35.9 29.3-14z"/></g></g></svg>