<svg xmlns="http://www.w3.org/2000/svg" viewBox="0 0 1800 1200"><defs/><filter id="a"><feGaussianBlur stdDeviation="12"/></filter><rect width="100%" height="100%" fill="#273249"/><g filter="url(#a)"><g fill-opacity=".5" transform="translate(3.5 3.5) scale(7.03125)"><circle cx="46" cy="48" r="214" fill="#716149"/><path fill="#a18e78" d="M85 99L10 41l-14 76z"/><ellipse cx="98" cy="162" fill="#89867c" rx="55" ry="39"/><circle r="1" fill="#1e1f1f" transform="matrix(3.8504 -14.57328 75.31369 19.89855 218.5 122)"/><path fill="#001d4b" d="M76 44l52 20-55 47z"/><ellipse cx="43" cy="10" fill="#262c30" rx="67" ry="32"/><circle cx="164" cy="49" r="57" fill="#363938"/><circle r="1" fill="#7e7771" transform="matrix(17.80638 -8.3969 11.7205 24.85437 213.5 160.4)"/><path fill="#251f25" d="M203.8 138.8l-21.3 41.9-30.3-15.5 21.3-41.9z"/><circle r="1" fill="#d39a83" transform="matrix(-3.98144 8.70814 -6.4916 -2.96801 90 39.8)"/><ellipse cx="102" cy="62" fill="#3b69b6" rx="6" ry="18"/><circle r="1" fill="#6a5d55" transform="rotate(-67 144.1 -30.4) scale(32.73827 28.07152)"/><path fill="#a3a8ad" d="M70.2 78l3.4 7.2L41.8 100l-3.4-7.2z"/><path fill="#6b5844" d="M28 104l62-58-80-6z"/><path fill="#b7a898" d="M19 97L1 87l12-31z"/><path fill="#000208" d="M76.6 96.8l-2-19 24.8-2.6 2 19z"/><path fill="#0d0f12" d="M223.1 123.7l39.6 5.9 8.3 11.9-44.6 6.9z"/><path fill="#101414" d="M49 58h9v25h-9z"/><path fill="#f2ffff" d="M264 0l7-14-37 14z"/><circle r="1" fill="#64362d" transform="matrix(15.16424 -6.97477 10.807 23.4961 157.3 132)"/><path fill="#2e3136" d="M101.3 86.9l-67.5 39.7 20.6-39.1 10.5 46.8z"/><circle r="1" fill="#434240" transform="rotate(-179.4 117.6 43.7) scale(77.64914 31.05324)"/><path fill="#8a7765" d="M46 43.3l13 .5-16.1 10.8-58.9-19z"/><path fill="#161c2b" d="M156.7 142l-27.1-31.7-6.9.4 6.4 13z"/><path fill="#b78f81" d="M147 105l-14 7 9 7z"/><path fill="#826d5f" d="M99 70l42 34-20 6z"/><path fill="#bf8a76" d="M207 107l-11 3 11 5z"/><path fill="#8e9aa4" d="M80 97.6l-25 6.7-1-3.9 25-6.7z"/><circle r="1" fill="#7f6b57" transform="rotate(85.8 -61.1 56.9) scale(41.69865 9.45713)"/><path fill="#443b36" d="M32.3 97.7l-9-.5 2.4-44.9 9 .5z"/><circle r="1" fill="#445268" transform="rotate(140.4 -12.4 80.1) scale(37.29352 12.27875)"/><path fill="#464a51" d="M110.4 124.6L78 148l-16.4-22.7L94 102z"/><path fill="#072c6d" d="M83.4 50.2L73.9 80l24.6-11V46.8z"/><path fill="#ffceb1" d="M207.7 133.4l-.5 4-7-.8.6-4z"/><path fill="#393939" d="M106 0h34v82h-34z"/><path fill="#ffe7c3" d="M95.2 41.8L90.4 43l-1.6-6.8 4.8-1.2z"/><path fill="#8f7d6c" d="M8.8 79.4l7.7 18 1.1 18.4 25.2-3.4z"/><circle r="1" fill="#021526" transform="matrix(-3.96903 5.4039 -11.36713 -8.34887 205.5 125)"/><path fill="#b48e85" d="M108 96v4H90v-4z"/><path fill="#ab9075" d="M35 80h7v25h-7z"/><circle r="1" fill="#7d786f" transform="matrix(-9.40552 3.25695 -10.4386 -30.14488 138.1 155.2)"/><path fill="#8a7b69" d="M32.2 66.5L57 95.9 36.6 44.2h13.7z"/><path fill="#251f1d" d="M187.9 142.1l-11.1-20.6-22.7-19.2 24.9 45.6z"/><path fill="#3b3a39" d="M188 82.8l-56.1 25.8 21.9 4.3L59.7-4.9z"/><ellipse cx="64" cy="84" fill="#cdd3d0" rx="6" ry="3"/><path fill="#78726d" d="M239.7 172l-11.1-16.2-14.5.2-30.1 29z"/><circle r="1" fill="#c2b4a1" transform="matrix(-3.14649 -.4871 1.6761 -10.82691 6.6 85.5)"/><circle r="1" fill="#3b3e3f" transform="matrix(54.47856 62.44995 -7.5445 6.58148 243.7 41.7)"/><path fill="#7f7b70" d="M75 153h45v17H75z"/><path fill="#41494f" d="M79 90l-31 9 1-9z"/><path fill="#272626" d="M77 40.9l-27.4-8.6 3.2 7 35.3 15.8z"/><path fill="#ad7b71" d="M191 133v-7l9-2z"/><path fill="#9fc5f6" d="M211.7-3.9l.2-1L274.3 4l-.2 1z"/><circle cx="188" cy="86" r="5" fill="#807a73"/><path fill="#2c2823" d="M222 137l49 28-19 20z"/><path fill="#6c645a" d="M63.8 39.8L72 68l2.7 38.6-10.2-34.3z"/><path fill="#6c6d70" d="M47 133h33v22H47z"/><path fill="#313236" d="M28.1 135.5l17.6-30.4 51.8 5.7L11 127.7z"/><path fill="#564943" d="M-8 38l3 34 25-29z"/><path fill="#201e1b" d="M56 62l-1 17-12-22z"/><circle r="1" fill="#c89688" transform="matrix(2.03881 1.80043 -3.66297 4.14795 138.6 115.3)"/><path fill="#645d59" d="M40.8 104.2l.8 13-17 2.5 8.4-19.6z"/><ellipse cx="96" cy="19" fill="#434446" rx="64" ry="10"/><ellipse cx="103" cy="65" fill="#406aae" rx="3" ry="14"/><path fill="#142b52" d="M90 68.8l-2.5-18.3 7.8-8.3 8.6 55z"/><ellipse cx="12" cy="101" fill="#605448" rx="3" ry="21"/><path fill="#7c7069" d="M104.1 73.8l-1.3 13.4 2.2-2.1 19 10.7z"/><path fill="#161c30" d="M126 114l2 6 14-15z"/><path fill="#dbab93" d="M95 39l-8 1 1 8z"/><path fill="#454545" d="M158 34l60-48-2 138z"/><path fill="#6e7275" d="M86.1 98.4H86l-43.6 2.8 19 7.8z"/><path fill="#565558" d="M244 144l-11 4 27 3z"/><path fill="#2b2320" d="M43.7 86.4l-6.2-10.3.8-.5 6.2 10.3z"/><path fill="#56524f" d="M94.1 113.4l26.8-27.3-16.3 41.4-51 57.5z"/><path fill="#3e4654" d="M1.4 158.8l49.3 20.4L31 118l3.8-15.5z"/><path fill="#4b4743" d="M105.4 145l-.8-46h6l.8 46z"/><path fill="#1e242a" d="M192 167l-17-44 2 62z"/><path fill="#bbc2d1" d="M48.5 87l16.7-6.8.3.9-16.7 6.7z"/><path fill="#1a3a75" d="M72.4 68.7l10-14.8 20-6.5-28.6 30.5z"/><path fill="#161c26" d="M95.7 66.9l-16.5 43.9 19-23-32.3 6.7z"/><path fill="#726d64" d="M112.9 104.1l11.1 46.8-17.6-24.5 24.7 1.3z"/><path fill="#746354" d="M62 46h15v19H62z"/><path fill="#69433e" d="M162.2 154.6l-12.7-37 12.3-4.2 12.7 37z"/><path fill="#0d131b" d="M187.1 130.1l20.2-12.6 4 15.9-21.7-13.7z"/><path fill="#4b4a46" d="M125 163l-7-20 5-17z"/><path fill="#3b383c" d="M133.9 108.9l16.8 39.5h43.7L161.6 185z"/><path fill="#41403f" d="M228.2 118l42.8-4.6-56.6-36.8-10 40.6z"/><path fill="#847467" d="M2.2 57.7l19.1 23-4-18.3 9.1-19.6z"/><ellipse cx="199" cy="157" fill="#5a5958" rx="8" ry="20"/><circle cx="10" cy="29" r="10" fill="#282b2b"/><path fill="#323335" d="M154.9 45.8l20-6.1 41.5 18.4-22.9-3.6z"/><path fill="#b89a7e" d="M35 79l8 25 2-13z"/><path fill="#191c22" d="M71.7 86.8l1.8-14.9 20.2 34.4-5.3-1.7z"/><path fill="#2b2620" d="M139 89h4v20h-4z"/><path fill="#0c1928" d="M135 123l-11-5 21 2z"/><ellipse cx="121" cy="70" fill="#383835" rx="17" ry="14"/><path fill="#011126" d="M91.4 65.5l-1.8 29 7.8-36.2-9.6 3.3z"/><path fill="#4e4b4a" d="M226 80l38-13-96-17z"/><path fill="#252626" d="M212 89.1l-38.6-10.3.5-2 38.7 10.4z"/><path fill="#626168" d="M53 85l9 5-28 23z"/></g></g></svg>