<svg xmlns="http://www.w3.org/2000/svg" viewBox="0 0 1800 1200"><defs/><filter id="a"><feGaussianBlur stdDeviation="12"/></filter><rect width="100%" height="100%" fill="#5d4130"/><g filter="url(#a)"><g fill-opacity=".5" transform="translate(3.5 3.5) scale(7.03125)"><circle cx="172" r="125" fill="#c9d9d4"/><circle r="1" fill="#6886a3" transform="matrix(45.25983 32.76194 -57.99028 80.11216 36.2 46.3)"/><circle cx="84" cy="152" r="58" fill="#001420"/><circle r="1" fill="#ffc95a" transform="matrix(-2.82638 27.57469 -36.76279 -3.76815 167.2 106)"/><circle r="1" fill="#a6c6e1" transform="matrix(38.63132 -25.37603 10.57757 16.10282 127.9 29.6)"/><circle r="1" fill="#000708" transform="matrix(-47.27463 10.1348 -3.51995 -16.41911 238 124.2)"/><ellipse cx="150" cy="155" fill="#7b7360" rx="70" ry="15"/><ellipse cx="109" cy="12" fill="#5a7491" rx="255" ry="18"/><ellipse cx="215" cy="87" fill="#ae7e4d" rx="141" ry="18"/><ellipse cx="159" cy="123" fill="#ffff9a" rx="19" ry="9"/><ellipse cx="89" cy="123" fill="#000301" rx="49" ry="18"/><circle r="1" fill="#b4c0c7" transform="matrix(1.89632 9.66561 -59.67524 11.70782 200.8 58)"/><circle r="1" fill="#8f7866" transform="matrix(-43.3388 31.67 -11.96157 -16.3688 47.8 91.1)"/><path fill="#031c2c" d="M55.5 136l-42.2 46.8L-7.5 164l42.2-46.8z"/><circle r="1" fill="#b9bfbe" transform="matrix(-31.27616 14.87739 -9.30706 -19.56588 113.3 35.9)"/><circle r="1" fill="#4d5b6c" transform="rotate(-37.9 72.5 -46.5) scale(77.57561 21.733)"/><circle r="1" fill="#7b91a3" transform="rotate(17.9 -28 73.5) scale(78.10199 7.73762)"/><path fill="#dda75c" d="M124 98h107v15H124z"/><circle r="1" fill="#6f6762" transform="matrix(45.18598 11.19126 -2.45494 9.91209 246.5 73.2)"/><path fill="#0a100e" d="M75.9 91l40.1 12.2-7.9 25.8L68 116.8z"/><ellipse cx="142" cy="135" fill="#060e09" rx="23" ry="6"/><circle r="1" fill="#464f50" transform="matrix(-1.4359 15.3502 -47.61824 -4.45437 239 155.3)"/><circle cx="9" cy="124" r="17" fill="#816b5b"/><ellipse cy="167" fill="#2c363d" rx="122" ry="29"/><path fill="#eabb6e" d="M117.2 83.3l88.1 39.3-28.3 11.9-29.5-3.8z"/><path fill="#050f0e" d="M268 142.4l-55.8-3.9 1.7-25 55.9 4z"/><ellipse cx="242" cy="35" fill="#738296" rx="102" ry="9"/><path fill="#797472" d="M.1 79.3l63.5-33.2 51.7 15.3L66 104.2z"/><path fill="#7a664d" d="M233 140l-102 3-34 39z"/><path fill="#cbd2d2" d="M70.5 35.2l70.5 9.3-53.9 15.7 10-10.1z"/><ellipse cx="171" cy="137" fill="#131a1a" rx="149" ry="4"/><circle r="1" fill="#c4975b" transform="rotate(-106.1 102.8 -3.9) scale(14.01537 23.8996)"/><path fill="#88a2b6" d="M199.1-11.6l-55.9 42.1-40.1-16.8L141.9 0z"/><circle r="1" fill="#6c737b" transform="rotate(147.6 110.9 32.2) scale(66.54549 19.15249)"/><path fill="#93a4b2" d="M233 63.7l38-7.1-29.1-23.8-38.2 5.3z"/><circle r="1" fill="#fffebe" transform="rotate(-6 1249.3 -1356.9) scale(8.88859 4.03336)"/><path fill="#121510" d="M236 103h14v36h-14z"/><path fill="#cacfca" d="M194.1 53.6l9.4 5.1L165 70l13.7-15.7z"/><circle r="1" fill="#394c63" transform="matrix(-28.20884 2.36876 -1.17194 -13.9563 5 43.8)"/><path fill="#917055" d="M46.5 117.8l-33.2 5.9L51.4 101 72 85.6z"/><circle r="1" fill="#0e0c08" transform="matrix(15.6736 3.01826 -1.54759 8.0365 41 128.9)"/><path fill="#b2864e" d="M256 84l-74 33 51-7z"/><path fill="#2c2e28" d="M141 166h46v4h-46z"/><path fill="#4f5c6b" d="M147.2-16L73.4 25.2l-9.8-2.7L33-16z"/><path fill="#464444" d="M72 141h54v29H72z"/><circle r="1" fill="#cda46c" transform="matrix(4.97567 -12.96207 37.5255 14.4047 168.1 103)"/><circle r="1" fill="#b3986e" transform="rotate(39.5 -12.9 405.4) scale(6.59559 5.85969)"/><path fill="#9c816c" d="M25 129l-7 9-29-4z"/><ellipse cx="88" cy="116" fill="#111514" rx="36" ry="18"/><path fill="#7c6c5d" d="M211.2 69.7l75.3-16 4.3 20.6-75.3 16z"/><path fill="#5e636f" d="M80 55.9L53.2 30.5 33.1 77.8l56.4-32.4z"/><circle r="1" fill="#979a9b" transform="matrix(2.98388 11.62329 -28.01896 7.1929 144.4 54.3)"/><ellipse cx="1" cy="154" fill="#1b2630" rx="27" ry="16"/><circle cx="126" cy="128" r="15" fill="#1c1b17"/><path fill="#99826a" d="M90 71h136v15H90z"/><path fill="#ba8945" d="M115 82l-12 13 30 20z"/><path fill="#27251f" d="M212.8 113.3l16.4 18.9-12 10.5-16.4-18.9z"/><path fill="#6f8fab" d="M23.9 13.6L5.1 25.8-3.3-11l-5.5-4.2z"/><circle r="1" fill="#bc935c" transform="matrix(-29.0455 7.04904 -3.0435 -12.54074 199.7 104.7)"/><path fill="#8c7561" d="M113.3 76.3l-7 23-31.6-9.6 7-23z"/><circle r="1" fill="#858e95" transform="matrix(-30.24822 4.40116 -.51574 -3.54457 105.4 23)"/><path fill="#777f88" d="M166.8 53.4l-23.4-21.8 17.8-19 23.4 21.8z"/><path fill="#836e51" d="M141 140h28v24h-28z"/><path fill="#909394" d="M94.5 50.2L81.6 81.5l5.9-10.3L64.1 34z"/><circle r="1" fill="#645e5c" transform="matrix(12.48645 -36.44744 15.67766 5.37098 0 108.6)"/><path fill="#161917" d="M132.7 123.9l-49-30.1L71 92.2l16.1 34z"/><path fill="#9baebc" d="M137.6 8.2l-2.3 39.5 10.3-.4L154.3 0z"/><path fill="#303438" d="M132.4 185l-46.2-14.4-98.5-31.6 82.5 2.1z"/><path fill="#64574b" d="M112.2 142.3l20.9-2.7 13.5 19.5-37.4.8z"/><circle r="1" fill="#c0c0b7" transform="matrix(11.90917 4.44914 -1.35821 3.63557 182.2 66.7)"/><path fill="#fff1a9" d="M162 125l-18 3-3-11z"/><path fill="#3a3b38" d="M271 146.7l-76.9 30.7 76.9-8.3-18.4-29.1z"/><path fill="#fbd277" d="M186 123l-38 6 14-19z"/><path fill="#876f5c" d="M52 86h21v15H52z"/><circle r="1" fill="#a7855b" transform="matrix(8.57615 .97482 -1.9401 17.0683 227.7 97.2)"/><circle r="1" fill="#8b9cab" transform="matrix(-.58294 2.5666 -13.36389 -3.03528 52.3 20.6)"/><path fill="#e3bc71" d="M157 93.4l7.1 10.9-25.1 16.3-7.1-10.9z"/><circle r="1" fill="#a49b90" transform="rotate(17.4 -144.6 477.4) scale(26.19784 7.26836)"/><path fill="#cad3d5" d="M137 35L92 45l8 11z"/><circle cx="203" cy="155" r="17" fill="#5e5346"/><path fill="#2f2a21" d="M184 138l28-26 26 4z"/><path fill="#bd8736" d="M187.2 132.1l3.1-3.4L155 131l15.3 4.9z"/><path fill="#8e8a86" d="M26 75l23 21 4-8z"/><path fill="#0e1213" d="M31 120l-10 19 58 1z"/><path fill="#5b6d80" d="M53.2 7L5.4-16l16 27.6 94 9.8z"/><path fill="#bec5c5" d="M74 40h27v6H74z"/><path fill="#b6905b" d="M134 161h26v2h-26z"/><path fill="#96877a" d="M58.6 83.3l53.4-5.4-.5-7.5-46.1 5.3z"/><path fill="#232219" d="M187.7 132.5l-15.7 7.1 54.4-6.7-33-8.4z"/><path fill="#b9c0bf" d="M159.4 70.7l67.9-21.8-16.3-1.1-24 6.7z"/><circle r="1" fill="#292722" transform="rotate(-141 138.5 15.1) scale(5.05013 14.96173)"/><path fill="#b6946b" d="M121 89.5l1-6.5 88 19.4-20.1-27.1z"/><path fill="#71767f" d="M55 25l41 5-35 9z"/><path fill="#866f5d" d="M19 114l61-30-37 34z"/><path fill="#e9b559" d="M159 126h29v6h-29z"/><path fill="#928f89" d="M131 47h51v11h-51z"/><path fill="#95938e" d="M205.9 74.1L204.3 52l30.9 5.6L271 44z"/><path fill="#b5c2c7" d="M141 28l-24 34V40z"/><path fill="#797a7e" d="M80.1 46.6l-29.7 18 8.9 14.3 31-26.1z"/><path fill="#deb46a" d="M126 108h66v6h-66z"/></g></g></svg>