<svg xmlns="http://www.w3.org/2000/svg" viewBox="0 0 1800 1200"><defs/><filter id="a"><feGaussianBlur stdDeviation="12"/></filter><rect width="100%" height="100%" fill="#5e4e2e"/><g filter="url(#a)"><g fill-opacity=".5" transform="translate(3.5 3.5) scale(7.03125)"><circle cx="131" cy="50" r="139" fill="#80c2f4"/><circle r="1" fill="#fffbff" transform="matrix(-151.6695 -3.23302 .6055 -28.40585 166.7 0)"/><circle r="1" fill="#5c3404" transform="rotate(-176.9 11.7 17.5) scale(120.03801 16.07758)"/><circle r="1" fill="#5e6e42" transform="matrix(-29.28396 28.2123 -163.79208 -170.0138 6.1 117.6)"/><circle cx="111" cy="101" r="55" fill="#43809c"/><path fill="#796f60" d="M271 124l-64 61-185-19z"/><circle r="1" fill="#6494b3" transform="matrix(-63.63043 22.15846 -15.8069 -45.39121 195.6 76)"/><circle r="1" fill="#92721b" transform="matrix(-3.45774 -15.0973 68.14913 -15.60823 0 143.1)"/><path fill="#457a96" d="M19 50h75v67H19z"/><path fill="#3b6c7a" d="M7 165l91-42 47 31z"/><ellipse cx="219" cy="10" fill="#d0d5ee" rx="106" ry="17"/><ellipse cx="159" cy="43" fill="#816330" rx="43" ry="5"/><circle r="1" fill="#474035" transform="matrix(5.94968 -21.31234 23.96495 6.6902 18.4 36)"/><circle r="1" fill="#417785" transform="matrix(-1.12696 -16.03204 76.47447 -5.37572 175.5 131.8)"/><path fill="#a4a8ce" d="M0 0h90v14H0z"/><circle r="1" fill="#a19074" transform="matrix(-76.70898 13.98115 -1.97152 -10.81695 153.3 169)"/><ellipse cx="70" cy="128" fill="#ceab9b" rx="12" ry="7"/><path fill="#ead2cb" d="M33 103l35 2-16-7z"/><path fill="#71563c" d="M244.7 105.1l-7.3 45 33.6-11.2-17.5-42.4z"/><path fill="#8d764e" d="M41 13l4 29 105-4z"/><circle r="1" fill="#6d2a01" transform="matrix(-2.76981 8.22043 -5.09612 -1.7171 214.3 145.4)"/><path fill="#968024" d="M14 179l-26-71 45 33z"/><path fill="#81660c" d="M37.1 74.8L-16 93.4V50.8L9.8 77.3z"/><circle r="1" fill="#829bbe" transform="matrix(-.54605 6.93822 -65.95583 -5.19084 185.3 34.3)"/><path fill="#556f76" d="M124.4 135.1L40 131.5l-56-41.4 32 45.1z"/><path fill="#decdc5" d="M169 117l6-8-28 5z"/><path fill="#306b87" d="M15 52h36v22H15z"/><path fill="#3e6e79" d="M27 147h43v20H27z"/><path fill="#644a00" d="M-16 87.5l19.9 16L29 92.8l-39.6 7.7z"/><path fill="#695400" d="M31.7 149l-6.6 1.5 51.5-16.6-34.3 3.8z"/><path fill="#695842" d="M4.4 14L-16 42.9l72.3-1.6 4.9-22.8z"/><ellipse cx="41" cy="48" fill="#3f373e" rx="106" ry="3"/><path fill="#a87c4b" d="M242.1 92l17.8 25.1-3.5 4.5-19.9-24z"/><ellipse cx="106" fill="#b3bad4" rx="58" ry="26"/><path fill="#12010f" d="M252 143l-9 16-5-6z"/><circle r="1" fill="#337097" transform="matrix(-1.39192 -5.30569 21.17537 -5.55525 14 89.9)"/><ellipse cx="201" cy="94" fill="#5d90a8" rx="34" ry="41"/><ellipse cx="179" cy="28" fill="#708ab9" rx="74" ry="3"/><ellipse cx="26" cy="5" fill="#9da7bf" rx="48" ry="9"/><circle r="1" fill="#5e8ba7" transform="matrix(53.83678 -17.86409 6.4274 19.37016 126.1 71.8)"/><path fill="#715f53" d="M184 161h59v9h-59z"/><path fill="#b3b9c3" d="M250.7 120.7l-16.6-3.5 1.2-5.9 16.6 3.5z"/><path fill="#294a56" d="M233.2 129l1.9-10.8 15.7 2.8-1.9 10.8z"/><path fill="#073005" d="M102 84l-11 1 6 2z"/><path fill="#436d8d" d="M-4 154l7-4 12 13z"/><path fill="#6f6010" d="M54.8 117l.4 11-24 1-.4-11z"/><ellipse cx="255" cy="44" fill="#2e1401" rx="11" ry="2"/><path fill="#2c473f" d="M173.8 117.3l.3 3-28 2.4-.2-3z"/><ellipse cx="80" cy="136" fill="#2d4a46" rx="8" ry="6"/><path fill="#47788d" d="M27.8 109l-.6 12-35-2 .6-12z"/><path fill="#ffe4c7" d="M59 125h18v3H59z"/><ellipse cx="155" cy="165" fill="#a19d87" rx="20" ry="11"/><path fill="#857a50" d="M123 50L81 30l68 10z"/><path fill="#755e1d" d="M11 71.9L-4.4 46.2l3.4-2 15.4 25.6z"/><path fill="#7499b9" d="M203 47h53v22h-53z"/><ellipse cx="66" cy="129" fill="#604b12" rx="7" ry="2"/><path fill="#aebac0" d="M160 75h23v4h-23z"/><ellipse cx="175" cy="43" fill="#675338" rx="19" ry="4"/><path fill="#8c8e9c" d="M41 130h61v4H41z"/><path fill="#8b6e16" d="M21.6 127.7l-37.6-7.3 31-.2-31 41.8z"/><path fill="#83741b" d="M7.1 160.9l27.7 19.3-1.9-20.3L-7.9 185z"/><ellipse cx="41" cy="136" fill="#252a25" rx="11" ry="2"/><path fill="#7b6352" d="M251 105h5v63h-5z"/><path fill="#372d3f" d="M256 38.5l-5.3-2.8 3.3-6.2 5.3 2.8z"/><path fill="#558595" d="M111 142L12 61l142 45z"/><path fill="#254449" d="M26 107h25v3H26z"/><path fill="#6e7873" d="M49 166l105-20-68 39z"/><path fill="#457383" d="M40.6 104.9l-35.2-1.3 27.5 27-18.9 6z"/><ellipse cx="2" cy="50" fill="#143847" rx="14" ry="4"/><ellipse cx="47" cy="102" fill="#a2a9af" rx="18" ry="4"/><path fill="#1b3633" d="M77 135l6.8-5.8 3.2 3.7-6.8 6z"/><path fill="#7c734e" d="M-16 132l42-39-26 12z"/><path fill="#6a8682" d="M46 123l3-15 24-7z"/><circle cx="226" cy="151" r="9" fill="#877e73"/><ellipse cx="249" cy="76" fill="#103b42" rx="13" ry="1"/><path fill="#a2abbe" d="M52.9 16.8L24.7-16l96.2 49.4 52.5 7.6z"/><ellipse cx="182" cy="130" fill="#4b8290" rx="66" ry="6"/><path fill="#8ca1b7" d="M246.1 39.5l-98.3-3.9 96.3-2.7 11.7-12.6z"/><path fill="#48777c" d="M76.4 138.4l-54.8 25.8-37.6-.7 133.8-10.6z"/><path fill="#8b6a16" d="M54 115l8 17-15-5z"/><ellipse cx="19" cy="154" fill="#b98a00" rx="7" ry="4"/><circle r="1" fill="#805d40" transform="rotate(133.1 104.1 109.2) scale(15.11153 2.29726)"/><path fill="#8e9fb0" d="M41 59h2v41h-2z"/><path fill="#685300" d="M-16 92V63L8 82z"/><path fill="#a4a3aa" d="M55 66l1 34h-1l-1-34z"/><path fill="#a7a18c" d="M51.6 118.5l32.6 7.7 10.3 6.8-5-.6z"/><path fill="#483722" d="M248.9 176.7l-10.2-38.6 17.1 9.7-20.5-5.8z"/><path fill="#ebc178" d="M1.2 53.3l.7-.8 11 10.2-.8.8z"/><ellipse cx="92" cy="44" fill="#645847" rx="29" ry="5"/><path fill="#736320" d="M5.1 132.6l20.1-12.7-20.3 36.8 20.2-6.6z"/><path fill="#9ba5be" d="M-16 19L46 4 13-16z"/><path fill="#ad988b" d="M105 84.3l-18 .4v-3l18-.4z"/><path fill="#608c9d" d="M212.5 123.1l24-11.2L161.2 78l-57.8 19.1z"/><path fill="#816c4f" d="M87.8 27.2l-44-4.5-33.4-9.8 41.8 3.5z"/><path fill="#544f52" d="M179 43h23v4h-23z"/><path fill="#507f98" d="M31 75.1L105.7 49 6.2 107.2l36.5-5.8z"/><circle r="1" fill="#aa8d0a" transform="matrix(-.66181 3.19576 -8.5324 -1.76697 20.8 142.3)"/><path fill="#663612" d="M209.9 150.1l11.5-11.1 2.7 2.9-11.5 11.1z"/><circle r="1" fill="#6490ac" transform="matrix(-24.1496 -21.77194 10.4232 -11.56148 196 71.2)"/><path fill="#4378a8" d="M8.8 78.3L.3 60l1-.4L9.6 78z"/></g></g></svg>