<svg xmlns="http://www.w3.org/2000/svg" viewBox="0 0 1800 1200"><defs/><filter id="a"><feGaussianBlur stdDeviation="12"/></filter><rect width="100%" height="100%" fill="#3b4557"/><g filter="url(#a)"><g fill-opacity=".5" transform="translate(3.5 3.5) scale(7.03125)"><circle r="1" fill="#f0e2c4" transform="matrix(-1.60946 38.08428 -254.7726 -10.7668 89 66)"/><circle r="1" fill="#696e74" transform="matrix(124.92407 -6.8971 2.03342 36.8305 140.5 19.1)"/><circle r="1" fill="#776d5e" transform="matrix(8.05131 -36.6524 108.728 23.88392 66 143)"/><ellipse cx="117" cy="40" fill="#343e51" rx="47" ry="21"/><circle r="1" fill="#b8b7ab" transform="matrix(-45.70147 -21.30007 11.93884 -25.61599 229.6 49.5)"/><path fill="#d0c7b1" d="M91 61h98v29H91z"/><path fill="#afafad" d="M76 34L-16-2v47z"/><ellipse cx="126" cy="108" fill="#121104" rx="131" ry="5"/><ellipse cx="30" cy="96" fill="#bfb39c" rx="52" ry="10"/><path fill="#faf3df" d="M217.5 45.6l-17.3-2.9-12.8 25-41.4 3z"/><circle r="1" fill="#3d3a36" transform="matrix(4.72741 38.90006 -84.24451 10.238 200.7 169)"/><path fill="#f5ebd6" d="M69 71L27 61l11-11z"/><circle r="1" fill="#717373" transform="matrix(36.70687 9.90427 -4.25798 15.78077 184 22.6)"/><path fill="#c8b89a" d="M213 93h43v13h-43z"/><ellipse cx="98" cy="125" fill="#6b6968" rx="125" ry="13"/><path fill="#ede7d7" d="M10 50L-1 28l30 9z"/><path fill="#031328" d="M83 83h5v25h-5z"/><path fill="#48505e" d="M97 53.3L51.8-5.3l123 59-5 10.1z"/><path fill="#c2bdaf" d="M35.9 71.4l66.5-9-59.8-19.8 31.5 7.2z"/><path fill="#cac9be" d="M221 80l-30-42 66 10z"/><ellipse cx="227" cy="37" fill="#565a60" rx="44" ry="5"/><path fill="#ccc3af" d="M121.8 81.7L47.6 92.2l-1.4-10 74.2-10.4z"/><path fill="#1e252c" d="M104.6 103.3l-26.8-3.5-1.8 14.1-54-1.9z"/><circle r="1" fill="#424f63" transform="matrix(-93.81654 -5.60208 .63841 -10.6913 36.8 12.4)"/><path fill="#83868e" d="M152.2-9.2L8.7-5.6l76 8.9 19.5 7.7z"/><path fill="#5f6773" d="M11 63h15v26H11z"/><path fill="#93928d" d="M148 17l30-13 61 28z"/><path fill="#86847b" d="M118 63l49 14 13 25z"/><path fill="#ebe5d2" d="M179 54l17-1-4 16z"/><path fill="#47505d" d="M108 24h102v12H108z"/><circle r="1" fill="#46484c" transform="matrix(-1.84022 -11.23433 99.50865 -16.29983 173 132)"/><path fill="#5d626c" d="M28 36h77v7H28z"/><path fill="#717677" d="M186.2 89.9l-6.1-5.2 25.7-30.6 6.1 5.2z"/><circle r="1" fill="#b8b2a4" transform="matrix(20.59486 5.13067 -.89412 3.58907 177 43.4)"/><circle r="1" fill="#6b6a6d" transform="matrix(-10.37416 -11.21822 20.33976 -18.8094 10.3 161.2)"/><path fill="#363434" d="M109.4 160.8l1 13-39.8 3.4-1-13z"/><circle r="1" fill="#6f7372" transform="matrix(.31269 -3.72372 22.0816 1.85424 203.5 75)"/><path fill="#737375" d="M0 114h131v11H0z"/><circle r="1" fill="#b9b6a9" transform="rotate(117.6 101.6 79.8) scale(3.56274 13.03777)"/><path fill="#717272" d="M86.4 68.5l-25.7-4.3 24.2 14.1 40.4-31.5z"/><path fill="#c1bbad" d="M78.1 43.1l32 46.2 18.7-34.4-43.7 15.7z"/><circle r="1" fill="#8f9696" transform="rotate(-108.4 132.2 -52) scale(3.79238 30.9529)"/><path fill="#0d1316" d="M0 110h51v3H0z"/><path fill="#1b1e1f" d="M212 159h44v6h-44z"/><path fill="#495057" d="M255.3 14.1l-12.7 25.5L217-16 143.5 3.3z"/><path fill="#d2cab7" d="M114.6 76.3l25.1.1 54.2-27.5L141 84z"/><circle r="1" fill="#666d73" transform="rotate(-67.7 170.9 -144.3) scale(4.50234 6.07329)"/><ellipse cx="47" cy="50" fill="#6f7177" rx="33" ry="3"/><circle r="1" fill="#eae2ce" transform="matrix(.49264 -3.34142 13.32122 1.96402 216.6 69)"/><path fill="#040e1a" d="M74.5 142.9L43.6 146v-1l30.8-3.2z"/><path fill="#d7d0c0" d="M241.4 77.5L198.5 53l19.1-13.5-29.4 2.5z"/><ellipse cx="244" cy="59" fill="#f6edd6" rx="26" ry="2"/><path fill="#7f8081" d="M102.6 27.8L76 45.2 54.2 25.4l-13-2.9z"/><path fill="#4f617a" d="M15.3 64l-26.4 1.6L4.4-12.3l-15.1 53.5z"/><path fill="#c8c1b1" d="M32 26h22v9H32z"/><path fill="#7f7e7b" d="M110.9 77.3l43.6-29.8-42.6 9.5 34.6 14.3z"/><path fill="#c3bfb3" d="M20.8 52l-7.5 10.9 30.7-2 17.1-4.4z"/><path fill="#9d9686" d="M0 95h76v10H0z"/><path fill="#7c7c7b" d="M33.2 77.9l46 4.7-37.3-12.1-18.7-9.8z"/><ellipse cx="76" cy="18" fill="#303c4e" rx="28" ry="6"/><ellipse cx="222" cy="109" fill="#2b2d29" rx="39" ry="5"/><path fill="#525b6c" d="M101-5L23 29 12 1z"/><path fill="#afa490" d="M149 85.1l-1.2 15-36.9-3.2 1.3-15z"/><path fill="#d6d0c1" d="M-.6 75l.2-10h9l-.2 10z"/><path fill="#8c8d90" d="M-16 69.1l13.1-18.3L13.2 4.9 17.6 22z"/><path fill="#60646a" d="M119.2 19.1l38.1 43.2L182 48.7l-53.3-27.4z"/><path fill="#0e1a2e" d="M88 86l-3-4-2 4z"/><path fill="#bbb5a8" d="M56.4 41.5l.9 4.6-2.5 1.4 92.1 46.1z"/><path fill="#d3cbba" d="M149.9 73.7l3.6-13.9-21.9 1.1 40.2 12.8z"/><ellipse cx="172" cy="113" fill="#616264" rx="38" ry="2"/><ellipse cx="171" cy="105" fill="#31322f" rx="29" ry="3"/><path fill="#7d7e77" d="M229 87l34 5 8-29z"/><circle r="1" fill="#595858" transform="matrix(-39.97608 -24.78622 7.30267 -11.778 126 163.9)"/><path fill="#535d6f" d="M-12.1 79.3l23.9-1.6.3 5-23.9 1.6z"/><path fill="#6e7173" d="M231.8 43.9l-30.5-5.4-59.5-32.4 119.6 38.1z"/><ellipse cx="204" cy="169" fill="#201e1a" rx="26" ry="3"/><path fill="#ada390" d="M195 94h61v11h-61z"/><path fill="#737576" d="M261.2-11.3L217.5-16l3.5 9.3 38.2 22.4z"/><ellipse cx="35" cy="156" fill="#262a31" rx="17" ry="2"/><path fill="#d3cdbe" d="M185.2 54.8l9.7 14-33.7 5 3.3-8.7z"/><path fill="#d0c9bb" d="M45.1 48l-12.8-2 .6-4 12.8 2z"/><path fill="#808485" d="M197.7 54.9l50.8 15-41.1-8.1-8.8 7.9z"/><circle cx="75" cy="85" r="8" fill="#cbc0ab"/><ellipse cx="80" cy="108" fill="#2a2b2b" rx="44" ry="5"/><path fill="#e0dacd" d="M7.4 30.5l19.5 4.2-2.3 10.8-19.5-4.2z"/><path fill="#626465" d="M97 60h13v4H97z"/><path fill="#d8d4c5" d="M215.2 68.7l-.2-26-28 4.8 13.1-8.6z"/><path fill="#c8c4b6" d="M251.6 74.2L271 54.3V26.2l-31.1 34z"/><path fill="#757775" d="M128 87v-5l-15 1z"/><path fill="#938c7e" d="M148 82h26v22h-26z"/><path fill="#e4dbc7" d="M58 62l-9-1 20 16z"/><path fill="#374355" d="M105.4 17.2l16.3 30.7-2.6 1.4 25.2 2.9z"/><path fill="#7c7c76" d="M60 80l34-8-28-3z"/><path fill="#526577" d="M229 50l13 5-12-1z"/><path fill="#6c6b6d" d="M85.1 132.9l-56.7 16.7 47.2-36.2 76.4 12.7z"/><path fill="#979696" d="M109 5L79-16h79z"/><path fill="#515865" d="M123.2 46.1l-13.1 11.5-55.8-14.3L22 38.1z"/><ellipse cx="236" cy="45" fill="#d6d3c5" rx="55" ry="2"/><path fill="#5a5c61" d="M89 151l-23-33-58 4z"/><path fill="#ccc5b6" d="M110 59l-2 12 30-11z"/></g></g></svg>