<svg xmlns="http://www.w3.org/2000/svg" viewBox="0 0 1800 1200"><defs/><filter id="a"><feGaussianBlur stdDeviation="12"/></filter><rect width="100%" height="100%" fill="#4c2d2c"/><g filter="url(#a)"><g fill-opacity=".5" transform="translate(3.5 3.5) scale(7.03125)"><circle r="1" fill="#ffaf47" transform="rotate(-95.3 69.8 -45.1) scale(69.34349 214.67884)"/><ellipse cx="85" cy="67" fill="#fff" rx="15" ry="14"/><circle r="1" fill="#e48737" transform="matrix(.22028 36.52111 -86.20523 .51996 94 21)"/><circle r="1" fill="#42584d" transform="matrix(-.31858 30.20214 -251.3456 -2.65127 141.7 144)"/><circle cx="85" cy="68" r="14" fill="#fff"/><ellipse cx="187" cy="59" fill="#ac492a" rx="84" ry="20"/><path fill="#cd4e25" d="M70.8 102.1L58.9 87.9l69-17.1 37.7 9.8z"/><circle r="1" fill="#bc4921" transform="matrix(50.00796 11.46612 -5.24162 22.86064 21.8 65.5)"/><circle r="1" fill="#1d2321" transform="matrix(-.76113 -16.39565 67.89878 -3.15206 222 99.8)"/><path fill="#8d4832" d="M117 89l148-61 6 41z"/><path fill="#fff" d="M74 57h23v20H74z"/><path fill="#e27f32" d="M80.3 37l26.5-17.8 26.9 39.7-26.5 18z"/><circle r="1" fill="#ff9838" transform="matrix(3.31862 3.39696 -16.95764 16.56654 73 56.7)"/><ellipse cx="177" cy="27" fill="#bb7139" rx="73" ry="28"/><path fill="#68463b" d="M70 95h38v67H70z"/><path fill="#e6702e" d="M80.7 81.7L47.3 51.4l19.8 39.3 84.1-7.8z"/><circle r="1" fill="#5c2722" transform="rotate(-177.8 21 45.1) scale(24.70919 2.71562)"/><circle r="1" fill="#ba6b2e" transform="matrix(-12.24619 13.60077 -56.48462 -50.85898 8.5 20.8)"/><path fill="#93452a" d="M42 75L0 90l-1-38z"/><path fill="#090a0e" d="M131 168l-18-9 38 6z"/><path fill="#743223" d="M49 101l69 5 8-20z"/><path fill="#543932" d="M235 42h21v8h-21z"/><ellipse cx="85" cy="68" fill="#fff" rx="14" ry="13"/><path fill="#f97a30" d="M110 71l-6-16-13 37z"/><path fill="#472c26" d="M146.9 81.6l-21.4 38.1L235 76.1l-79.1 7.5z"/><circle r="1" fill="#ce843c" transform="matrix(16.2601 40.37044 -34.75779 13.99949 98.7 16.3)"/><circle r="1" fill="#2f2822" transform="matrix(29.53083 6.58123 -2.74001 12.2948 4 104)"/><path fill="#181f21" d="M196.7 166.5l-45.2-1.4-1.4 19.9H64.4z"/><path fill="#2c3430" d="M234 128h22v31h-22z"/><circle r="1" fill="#be662e" transform="matrix(11.04335 14.63805 -29.97087 22.61086 136 52.1)"/><path fill="#ffa43d" d="M103.3 54.5l-2.2 5.6-22.4-8.6 2.2-5.6z"/><path fill="#eb8230" d="M54.9 57.1l14.4 17.4 7-29.9 3-9.4z"/><circle r="1" fill="#524d46" transform="rotate(-119 88.6 46.8) scale(19.04794 35.43922)"/><ellipse cx="120" fill="#bf8142" rx="107" ry="16"/><ellipse cx="149" cy="140" fill="#151112" rx="15" ry="2"/><path fill="#c86c34" d="M221.1 52.9l25.3 7L231 41.6l-16.2-2z"/><ellipse cx="9" cy="153" fill="#373a34" rx="21" ry="26"/><circle r="1" fill="#602f24" transform="rotate(102.8 -7 77) scale(7.9743 40.51334)"/><ellipse cx="248" cy="95" fill="#2c2726" rx="38" ry="22"/><path fill="#673529" d="M111 87h33v12h-33z"/><path fill="#a8562f" d="M161.6 85.3l86.8-68.8L117 75.3l9.3 5.7z"/><path fill="#4b4d46" d="M132 144h86v19h-86z"/><ellipse cx="85" cy="151" fill="#90664d" rx="9" ry="3"/><path fill="#494b44" d="M202 117l60 35-58-5z"/><path d="M9.7 167l-.5 5-9-1 .6-5z"/><path fill="#262a28" d="M235.1 158.1l-12.3 13.2 1.6-20.8 46.6 6.1z"/><ellipse cx="42" cy="143" fill="#34312e" rx="80" ry="2"/><path fill="#0b0303" d="M108 160h19v3h-19z"/><circle r="1" fill="#8b4f37" transform="matrix(-28.1317 7.90746 -1.89517 -6.7423 232.4 68)"/><path fill="#a15b32" d="M271 31.1v36.5l-17.7-22-42.8-12.5z"/><circle r="1" fill="#432b28" transform="matrix(.72783 -16.7754 21.47747 .93183 152.6 101.1)"/><path fill="#615e52" d="M5 149h46v3H5z"/><path fill="#b16f33" d="M-.2 44.3l11.8-67 24.6 4.4-11.8 67z"/><path fill="#c65d2c" d="M42.6 94.7L57 49.9 76.8 94l-31.6-7.4z"/><circle r="1" fill="#ffbd4c" transform="matrix(9.53158 -1.3513 .27371 1.93067 85 54)"/><path fill="#181718" d="M95 165l-11 1v-4z"/><path fill="#ed7c33" d="M97.6 81.9l-31.3-1.5 23.1 7.1 32.2-49.3z"/><path fill="#565148" d="M144.7 159.7l-36.9 1.2-24.6-18.8 81.6 19.8z"/><ellipse cx="238" cy="120" fill="#43433d" rx="123" ry="7"/><path fill="#5b574c" d="M41.1 160.6l-1.1-9.1 45.3 24.7-5.9-17z"/><circle r="1" fill="#d3662e" transform="matrix(3.87767 5.33305 -14.03638 10.20586 100 82.7)"/><path fill="#fd9b3e" d="M65.3 70.5l14.9 18L67 60.9l18.2-13.2z"/><path fill="#e58638" d="M230 29h26v3h-26z"/><path fill="#646457" d="M190.6 163.9l16.7-.3.5 1.1 40.7 7.4z"/><path fill="#594942" d="M38 117h78v14H38z"/><circle r="1" fill="#f9fdfa" transform="matrix(5.17276 -9.99043 9.90088 5.1264 82.1 68)"/><path fill="#121718" d="M225 147h17v2h-17z"/><path fill="#54564e" d="M54 168h84v2H54z"/><path fill="#94482c" d="M-7.3 63.3L.7 82-16 101.4l41.3-27.1z"/><path fill="#292b2a" d="M21 165h49v2H21z"/><path fill="#b6743b" d="M236 1l-96 49 25-46z"/><path fill="#5b5d50" d="M15 166h24v4H15z"/><path fill="#745d4f" d="M65 160h33v3H65z"/><path fill="#30312e" d="M158 147h87v2h-87z"/><path fill="#d07732" d="M125.7 30.7L47.5 62.2l18.8-45 44.7 52z"/><path fill="#e27834" d="M122 82h10v6h-10z"/><path fill="#181313" d="M12 132h14v3H12z"/><path fill="#472a24" d="M11 87l9 25 63-1z"/><path fill="#211e1e" d="M60 153l3-5-18 5z"/><path fill="#a5693c" d="M259.3-2.9l4 27.8-42.6 6-4-27.8z"/><path fill="#9e5732" d="M200 43l31 5-53 21z"/><path fill="#7d3a29" d="M122.4 85.3L60.8 102l-6.5-12.4 34.3 16.5z"/><ellipse cx="26" cy="86" fill="#c05b2e" rx="46" ry="3"/><path fill="#402b28" d="M182.8 80.1l85 4.2-182.6 28.6 83.3 1.3z"/><path fill="#32302f" d="M77 156v-17l-5 14z"/><path fill="#f9f9f7" d="M98.3 74.4l2-5.6-11.2-13.6-13.6 23.6z"/><path fill="#df7f37" d="M232 45l-22-8 11 10z"/><path fill="#f79037" d="M91 45l12 23V58z"/><path fill="#47433c" d="M50 113l-24 21-42-21z"/><path fill="#1d1e1e" d="M162 152h8v4h-8z"/><path fill="#21221f" d="M12 162h20v3H12z"/><path fill="#645349" d="M44 134h56v4H44z"/><path fill="#262927" d="M162 141h29v2h-29z"/><path fill="#643f32" d="M236 42h8v11h-8z"/><path fill="#787664" d="M202.5 172l-.3-1 15.3-5 .3 1z"/><path fill="#525149" d="M183.5 148.1l27.1 36.6-53.9-52.1-12.7 1.5z"/><path fill="#4e4c44" d="M21.8 161.4l-9.6-18.7 8-4.1 9.6 18.7z"/><ellipse cx="155" cy="167" fill="#282a2c" rx="50" ry="1"/><path fill="#212424" d="M245 134h11v8h-11z"/><path fill="#572f29" d="M174 81.9l-73.6 19.7-55.6 5.9 62.5 9.2z"/></g></g></svg>