<svg xmlns="http://www.w3.org/2000/svg" viewBox="0 0 1800 1200"><defs/><filter id="a"><feGaussianBlur stdDeviation="12"/></filter><rect width="100%" height="100%" fill="#294443"/><g filter="url(#a)"><g fill-opacity=".5" transform="translate(3.5 3.5) scale(7.03125)"><circle r="1" fill="#d3b3ae" transform="rotate(95.1 9.2 105.6) scale(73.23708 219.49368)"/><circle cx="162" cy="149" r="78" fill="#403830"/><circle cy="158" r="87" fill="#c7cac9"/><path fill="#e9f3f3" d="M177 48h22v83h-22z"/><path fill="#ffe" d="M118 54h59v16h-59z"/><path fill="#000001" d="M229 130l-54 51 42-118z"/><path fill="#c5d7ee" d="M235 54h21v89h-21z"/><path fill="#ccb9af" d="M162.3 109.7L149 148.4l-29.3-10L133 99.5z"/><path fill="#2c1e15" d="M198.3 84.5l72.6-16.7-24.2 2.6-24.6-22.6z"/><circle r="1" fill="#d8cfbb" transform="matrix(2.1186 11.20357 -59.49637 11.25077 22.2 67.8)"/><circle r="1" fill="#2d2a31" transform="matrix(-25.61236 7.44108 -3.99692 -13.75748 21 169)"/><ellipse cx="54" cy="80" rx="11" ry="10"/><ellipse cx="74" cy="150" fill="#e4feff" rx="9" ry="37"/><circle r="1" fill="#1d1918" transform="matrix(.34737 10.77789 -28.73824 .92622 157.2 81.6)"/><path fill="#0e2747" d="M122 123l-38 43 3-90z"/><circle r="1" fill="#101000" transform="rotate(-5.3 1864 -1348) scale(17.42088 20.3339)"/><ellipse cx="72" cy="40" fill="#b3d5f1" rx="53" ry="4"/><path fill="#695850" d="M184.6-34l25.2 32.3L133.4 58l-25.2-32.3z"/><path fill="#dbf0ff" d="M148 43h33v11h-33z"/><circle r="1" fill="#220b00" transform="matrix(4.8012 6.3714 -9.41692 7.09616 83 51.1)"/><path fill="#ffd7c2" d="M101.8 178.8l20.1 6.2-41.7-18.7 30-9z"/><ellipse cx="171" cy="105" fill="#000001" rx="6" ry="32"/><path fill="#5d3b25" d="M45 116L25 76l37 37z"/><circle r="1" fill="#c0c5c8" transform="rotate(-76.5 164.6 -68.4) scale(26.89317 11.01046)"/><ellipse cx="5" cy="97" fill="#d4d6d0" rx="16" ry="42"/><path fill="#eaa95e" d="M47 7.5l2.3-12.8L71-1.5l-2.3 12.8z"/><path fill="#bb9790" d="M215 145l-22 13 67 27z"/><path fill="#cf9475" d="M65 115l47-73-67 56z"/><path fill="#d0bdb3" d="M223 155.1L235.5 96l-32-28.4 67.5 35.2z"/><path fill="#23212e" d="M231 142l30 42 10-32z"/><path fill="#101620" d="M203 94h28v52h-28z"/><path d="M136.9 27.2l10 .7-1.8 25-10-.8z"/><ellipse cx="86" cy="108" fill="#3f78b9" rx="10" ry="23"/><path fill="#3e524c" d="M249 32l-15 31-77-27z"/><path fill="#a27e66" d="M132 53l-3 54-32-7z"/><path fill="#d9ecd2" d="M154 150h25v5h-25z"/><path fill="#2e2214" d="M99 77h9v73h-9z"/><circle r="1" fill="#1c0b07" transform="matrix(-22.82248 24.30347 -4.06972 -3.82172 183.1 157)"/><path fill="#d7e7ff" d="M253.1 51.7l17.9 6.8-22.2 9.7-12.8-8.5z"/><path fill="#000d15" d="M145.2 71.8l-3.4 27.8-11-1.4 3.4-27.8z"/><path fill="#eaf4f5" d="M245.6 162l5.4 23-44.9-13.8 39.3-7.8z"/><path fill="#a8715c" d="M136.4 121.8l12.1-37.5 14.2 1.7 1.2 31z"/><path fill="#bcc3c9" d="M149.2 136.4l32 2.2-.4 5-32-2.2z"/><circle r="1" fill="#384221" transform="matrix(-6.27834 26.55923 -.97318 -.23005 27.9 104.7)"/><path fill="#c9d3db" d="M150 133l-15.5-25.8-6 22.1 15.7-1.4z"/><circle r="1" fill="#557ca3" transform="rotate(-31.4 272.7 -407) scale(14.54033 16.40814)"/><path fill="#382920" d="M197 59h42v13h-42z"/><path fill="#5e4231" d="M52.6 97.2l29.5-19.5-8.9.1-29-23.4z"/><path fill="#a5836e" d="M222 95l-22-32 27 9z"/><path fill="#374033" d="M13.5 161.2l-6.1-22.1-6.6 43.8 30.8 2.1z"/><path fill="#001800" d="M147 144h30v5h-30z"/><path fill="#82a0b5" d="M0 36h75v13H0z"/><path fill="#abc8d9" d="M65 185l8-87-28 64z"/><path fill="#a6a764" d="M136.2 140l-10.9-6.2-19.2-.8 9.1 17.4z"/><path fill="#c48d6b" d="M103.2 93.8l-3.9 5.8 12.8 7.6 29.2-.6z"/><path fill="#858c91" d="M57 154l-58 10 45-38z"/><path fill="#e4eef2" d="M231 83l18 45 4-23z"/><path fill="#985641" d="M15.7 78l18.6-3.9 2 9.8-18.6 4z"/><path fill="#bc8b73" d="M236.2 144l2.4-56.7-12.5 58.7-43.9 35.9z"/><path fill="#4a3927" d="M171.1 131.2l-41.8 13 31.1-20.6 6.2 16.5z"/><path fill="#36261b" d="M125 120.1l-40.7 46.1-3-8.5 42.5-51.9z"/><path fill="#76736d" d="M155-10l23 8-72 36z"/><path fill="#a67f6e" d="M215 43l-18 30 29-26z"/><path fill="#b5b7b6" d="M202.6 87.4l-8.1-19.6L192 139l14.4-47.1z"/><path fill="#261514" d="M200.1 170.3l-15.2-11.2 6.9 25.9 39.9-27.1z"/><path fill="#a0b4c7" d="M96 38h40v11H96z"/><ellipse cx="165" cy="64" fill="#eee6d7" rx="29" ry="6"/><ellipse cx="206" cy="117" fill="#050e18" rx="7" ry="18"/><path fill="#081d00" d="M26.2 121.9L4.6 146.8l-.8-.7 21.6-24.9z"/><path fill="#4c443e" d="M51.9 105.7L35.7 88.2l8.4 24.6-2.4 19.5z"/><path fill="#302927" d="M141 113l11-43-22 2z"/><path fill="#5a4a35" d="M134.8 51.8l.1-1 66.3 9.4-.1 1z"/><circle r="1" fill="#426a99" transform="matrix(-6.44127 -1.35522 5.30438 -25.21136 91 93.6)"/><path fill="#cbccc0" d="M-4 57l56-6-24 17z"/><circle r="1" fill="#020000" transform="matrix(-.53353 -1.10615 45.8342 -22.10747 200 9.4)"/><path fill="#cfb498" d="M99 64h18v11H99z"/><circle r="1" fill="#102825" transform="rotate(166.2 126.5 19.3) scale(49.01768 9.58823)"/><circle r="1" fill="#877d75" transform="matrix(-.42386 -.90573 51.01058 -23.87157 190 20)"/><path d="M63.6 79.9l-17.7 3-1.5-8.8 17.7-3z"/><path fill="#191214" d="M210 60h7v21h-7z"/><path fill="#d9af9c" d="M71.3 110L31.8 71.7 54.4 103l26.4-17.2z"/><path fill="#c8d2db" d="M117.9 37.5l-50.2-1.3 18.4 1.2L41.2 46z"/><path fill="#181a17" d="M177.9 98.4l-39-23.6 19.3 2.6 11.1 58.8z"/><path fill="#351f14" d="M37.6 159.5l7.4-6.7 3.4 3.7-7.4 6.7z"/><path fill="#885d44" d="M101 48L76 85l-1-25z"/><circle r="1" fill="#827f7b" transform="matrix(39.23042 -19.00076 1.2212 2.5214 207.6 0)"/><path fill="#bcbfbd" d="M23 141l11-54 9 50z"/><path fill="#2f323b" d="M221.4 161.7L173.9 139l28.1-8.9-1.4 3.1z"/><path fill="#a3b06d" d="M167.3 167.4l-7.8-11.6 26.1-12.3-20.4 25.7z"/><path fill="#272923" d="M131 29l44-23-34 37z"/><path fill="#4e4c58" d="M271 159.4l-39.9-9.5-21.9 18 15.7-1.8z"/><circle r="1" transform="matrix(-.0234 3.11502 -19.03966 -.14297 1.4 169)"/><path fill="#c1d5ef" d="M144.8 39.7l4.1 12.2 25.6-2.4L148 39.1z"/><path fill="#cda594" d="M73 93l-13 41V82z"/><path fill="#abafae" d="M176 83h22v49h-22z"/><circle cx="106" cy="155" r="6" fill="#429bc3"/><path fill="#ab8674" d="M241.4 160.4l-4.1-4.8-1.8-58.2-9.1 10.6z"/><ellipse cx="10" cy="105" fill="#c8c9c5" rx="16" ry="23"/><path fill="#d3b7a5" d="M218.8 67.4l5.6 24 24.3 1.7-11.8.6z"/><ellipse cx="251" cy="70" fill="#353330" rx="29" ry="3"/></g></g></svg>