<svg xmlns="http://www.w3.org/2000/svg" viewBox="0 0 1800 1200"><defs/><filter id="a"><feGaussianBlur stdDeviation="12"/></filter><rect width="100%" height="100%" fill="#2c3a57"/><g filter="url(#a)"><g fill-opacity=".5" transform="translate(3.5 3.5) scale(7.03125)"><circle r="1" fill="#c6ebff" transform="matrix(-254.98886 -2.38387 .61192 -65.45319 133.5 48.9)"/><ellipse cx="142" cy="104" fill="#687995" rx="255" ry="10"/><circle r="1" fill="#90a9c6" transform="matrix(-194.52771 -1.18618 .15092 -24.74995 83.5 65)"/><path fill="#2f2730" d="M-16 73l40 32-40-3z"/><circle r="1" fill="#597eb2" transform="matrix(1.2605 -18.634 188.40452 12.74475 132.8 0)"/><circle r="1" fill="#284866" transform="matrix(-.8551 -32.65514 146.96513 -3.84842 117.2 145.4)"/><circle r="1" fill="#7896bd" transform="matrix(2.03881 -20.42624 162.99371 16.26894 101 33.3)"/><ellipse cx="245" cy="101" fill="#7085a0" rx="228" ry="12"/><path fill="#778ca6" d="M135.5 86.6l-66.8 28.1-41.2-1.5-16.1-20.4z"/><path fill="#0d2840" d="M243.7 153.6l14.4 9.8-65.4 7.8 17.7-10.2z"/><circle r="1" fill="#0f243d" transform="rotate(-176.8 34.7 83.6) scale(25.99611 5.39667)"/><path fill="#6e84a0" d="M25 98h231v15H25z"/><ellipse cx="24" cy="161" fill="#385076" rx="30" ry="7"/><path fill="#30496c" d="M146 128l10 33 115-8z"/><ellipse cx="138" cy="116" fill="#40413d" rx="33" ry="3"/><ellipse cx="63" cy="73" fill="#8ea4ba" rx="70" ry="17"/><path fill="#3d5479" d="M40 132h38v8H40z"/><path fill="#192e3e" d="M271 119l-51 13 7-17z"/><circle r="1" fill="#1c3350" transform="matrix(-85.23167 6.4086 -.13863 -1.84374 154.6 149.4)"/><circle r="1" fill="#577aa3" transform="rotate(-80 119.7 -142.7) scale(13.38571 70.13341)"/><path fill="#344c71" d="M71 128.4l92.2 6.8L27 152l84.3-3.4z"/><path fill="#64726f" d="M43 118l24-1-17-4z"/><circle r="1" fill="#7593b6" transform="rotate(91.9 78.1 109.3) scale(20.96478 76.71626)"/><ellipse cx="6" cy="106" fill="#4e5563" rx="14" ry="12"/><ellipse cx="48" cy="43" fill="#829bbb" rx="49" ry="27"/><path fill="#051b31" d="M173 131h21v3h-21z"/><path fill="#1a314e" d="M151.5 157.7L110 143l16.8 20.5L83.2 185z"/><ellipse cx="48" cy="122" fill="#1d3b4d" rx="69" ry="4"/><circle r="1" fill="#081f32" transform="rotate(-178.6 118.4 80) scale(33.53155 1.28052)"/><path fill="#343830" d="M29.8 114.2l-1.3-1.1-14.5 6.8 39.9-3.9z"/><circle r="1" fill="#869eb3" transform="rotate(176.8 111 42.5) scale(112.97527 7.99325)"/><path fill="#7492ab" d="M43 120h2v6h-2z"/><path fill="#676b79" d="M44 145l3 3 5-11z"/><path fill="#04192d" d="M33.3 151l-18.8-3 .2-1 18.8 3z"/><path fill="#375072" d="M144 141.8l26.3 2.2-11.1 17.2 44.8-.9z"/><path fill="#0c2339" d="M220 141h22v4h-22z"/><path fill="#071c31" d="M69 169h57v1H69z"/><ellipse cx="108" cy="156" fill="#385178" rx="17" ry="3"/><ellipse cx="213" cy="118" fill="#0b100d" rx="14" ry="1"/><ellipse cx="105" cy="116" fill="#556271" rx="40" ry="1"/><path fill="#6c819b" d="M226 89h30v25h-30z"/><path fill="#365173" d="M194.4 146.3l76.6 16.3v-9.2l-33.3-7z"/><path fill="#22587a" d="M64 114h8v11h-8z"/><path fill="#132a45" d="M154 161h21v5h-21z"/><path fill="#172e48" d="M154 140h28v3h-28z"/><path fill="#132a42" d="M26.6 183.3l21.8-18.7 30.2-6.5L30.5 185z"/><path fill="#31486a" d="M105 155l-31-15-24 21z"/><path fill="#39698e" d="M137 123l-5-2 11-3z"/><path fill="#334c70" d="M8 135l28 27-47-26z"/><path fill="#3e587e" d="M169 159.6l-53.9 3.8v-1l53.8-3.8z"/><ellipse cx="158" cy="128" fill="#1c3351" rx="82" ry="2"/><circle r="1" fill="#152b45" transform="matrix(28.87684 -.35281 .01222 .99993 120.9 147)"/><ellipse cx="43" cy="153" fill="#091c32" rx="16" ry="1"/><circle r="1" fill="#1d344e" transform="matrix(-29.45718 .91434 -.03102 -.99952 206.7 156.7)"/><path fill="#213958" d="M190 123h66v10h-66z"/><ellipse cx="99" cy="147" fill="#ada7a7" rx="1" ry="2"/><ellipse cx="13" cy="113" fill="#4f6079" rx="25" ry="1"/><path fill="#171f27" d="M163.3 115l.2 1-18.8 3-.2-1z"/><path fill="#112843" d="M80 139l32.2 7-.2 1-32.2-7z"/><path fill="#03192e" d="M99 159h8v3h-8z"/><path fill="#54697d" d="M204.3 120l-.8 4-9.8-2 .8-4z"/><path fill="#26363c" d="M111 119h22v4h-22z"/><circle r="1" fill="#8698ad" transform="rotate(-176.8 16.7 45.5) scale(26.32211 3.48707)"/><path fill="#132942" d="M1 160.2l.1-1 23.9 2.6-.1 1z"/><path fill="#697d9b" d="M77.1 113.1l-62.7-6.3 66.2-4.3 33.3 12.3z"/><ellipse cx="229" cy="168" fill="#1f3b59" rx="46" ry="4"/><path fill="#495467" d="M-16 104.2l33.7-7.9 3.9 32.1L3 87.2z"/><path fill="#c1bdb9" d="M65 149h2v2h-2z"/><path fill="#172d4a" d="M19 134h19v5H19z"/><path fill="#213651" d="M64 141.4H37.9l-38 4.4-15.9 6z"/><circle cx="7" cy="123" r="3" fill="#0d1820"/><ellipse cx="137" cy="137" fill="#375076" rx="38" ry="2"/><path fill="#213956" d="M69 134h64v3H69z"/><path fill="#323e42" d="M48.7 121.3l9.2 1.8-20.3-10.3-25.4 5.3z"/><path fill="#375075" d="M73 165h45v2H73z"/><path fill="#617290" d="M53 139l-8-1 6-2z"/><path fill="#223853" d="M40.4 156.3l11.7 1.8-45.5 18.5 37.8 7.7z"/><path fill="#526e96" d="M7 165h25v1H7z"/><path fill="#5c6473" d="M42 117h53v1H42z"/><ellipse cx="221" cy="121" fill="#3c6f98" rx="4" ry="2"/><path fill="#8497ad" d="M-16 77l41.8 23.9-3.6 9.2-33-79.2z"/><circle r="1" fill="#6e89af" transform="matrix(-.67797 8.16468 -71.53194 -5.93984 20 4.7)"/><circle cx="24" cy="124" r="3" fill="#111929"/><path fill="#245f85" d="M3 113.3l.9-.6 9 12-.8.6z"/><path fill="#7bccf2" d="M35.9 120.9l1 1.7-.8.5-1-1.7z"/><path fill="#6e8db1" d="M271 46V24l-82 12z"/><path fill="#475f82" d="M71 131h14v4H71z"/><path fill="#4a6388" d="M59 162l-11-1 9-3z"/><path fill="#334c70" d="M135 153l19-8-23-2z"/><path fill="#7b95b7" d="M108.7 51.7l121.6-25.3L26.8 11.2l64.4 37.3z"/><path fill="#206788" d="M3 124l-1-9 3 2z"/><path fill="#6c82a0" d="M26 107h169v6H26z"/><path fill="#405a7f" d="M0 156h33v3H0z"/><path fill="#344857" d="M162 114h94v4h-94z"/><path fill="#1c3451" d="M46 129h19v5H46z"/><path fill="#081f35" d="M150 165l-2 20h29z"/><path fill="#405c83" d="M168 138h45v1h-45z"/><path fill="#223a56" d="M194.8 152.8l-24.5-3.8 42.3-7.9-7.4-5.9z"/><path fill="#3e5d80" d="M241 160h15v1h-15z"/><path fill="#7388a2" d="M69 90h120v16H69z"/></g></g></svg>