<svg xmlns="http://www.w3.org/2000/svg" viewBox="0 0 1200 1800"><defs/><filter id="prefix__a"><feGaussianBlur stdDeviation="12"/></filter><rect width="100%" height="100%" fill="#314b63"/><g filter="url(#prefix__a)"><g transform="translate(3.5 3.5) scale(7.03125)"><circle r="1" fill="#7da2ff" fill-opacity=".5" transform="matrix(15.82896 104.58845 -167.09712 25.28935 88.5 98.7)"/><circle r="1" fill="#acb6c1" fill-opacity=".5" transform="rotate(91.5 -56.7 113.8) scale(22.58197 169.00003)"/><circle cx="80" r="107" fill="#3056a6" fill-opacity=".5"/><path fill="#0f160c" fill-opacity=".5" d="M139 215.4l-50.9-1.8.8-23 51 1.8z"/><path fill="#fffbef" fill-opacity=".5" d="M53 172l58 17-71 1z"/><circle r="1" fill="#b3c0cf" fill-opacity=".5" transform="rotate(89.3 -27.6 112.6) scale(98.71276 2.62258)"/><circle r="1" fill="#678dcc" fill-opacity=".5" transform="rotate(-85.5 121.8 31.3) scale(24.27615 111.00694)"/><path fill="#848aa4" fill-opacity=".5" d="M128 170h42v33h-42z"/><path fill="#acc5d0" fill-opacity=".5" d="M85 211l7-22-33 14z"/><path fill="#8a765a" fill-opacity=".5" d="M-16 176.3L.1 201l26.2 2.3-9.1-18.1z"/><circle r="1" fill="#36599e" fill-opacity=".5" transform="matrix(82.0692 -109.74274 34.63527 25.90139 43.6 0)"/><ellipse cx="149" cy="255" fill="#1a3d46" fill-opacity=".5" rx="165" ry="21"/><ellipse cx="169" cy="214" fill="#7181a0" fill-opacity=".5" rx="25" ry="7"/><circle r="1" fill="#090f08" fill-opacity=".5" transform="rotate(81.8 -63 159.4) scale(5.44978 14.09518)"/><path fill="#b2b4b3" fill-opacity=".5" d="M56 178l-72 22 48-1z"/><circle r="1" fill="#4a73be" fill-opacity=".5" transform="matrix(20.50696 -23.34029 33.40313 29.34825 125.8 99)"/><path fill="#41617a" fill-opacity=".5" d="M58 191l41 39-115-19z"/><path fill="#fffbef" fill-opacity=".5" d="M107 173h4v16h-4z"/><path fill="#606883" fill-opacity=".5" d="M169 185l-16-2 22-57z"/><ellipse cy="186" fill="#242e30" fill-opacity=".5" rx="16" ry="4"/><ellipse cx="32" cy="100" fill="#4a74bd" fill-opacity=".5" rx="52" ry="31"/><path fill="#dbe1e6" fill-opacity=".5" d="M87 126h-1l-3-88h1z"/><path fill="#bcb5b7" fill-opacity=".5" d="M141 179l-36 12h67z"/><path fill="#2d4b5e" fill-opacity=".5" d="M132 191L31 271l123-43z"/><path fill="#94a6b2" fill-opacity=".5" d="M87 127l-1 59-16-7z"/><path fill="#242d58" fill-opacity=".5" d="M153 190l-10-2 14-1z"/><ellipse cx="24" cy="165" fill="#7e9acb" fill-opacity=".5" rx="41" ry="20"/><path fill="#071311" fill-opacity=".5" d="M127 208l-35-11-5 12z"/><path fill="#7599bb" fill-opacity=".5" d="M82 208l-17-17-9 14z"/><path fill="#3c5d6e" fill-opacity=".5" d="M97.7 228.7l-10.9 31.5-12.9-56.1 5-3.2z"/><path fill="#6083c0" fill-opacity=".5" d="M185 140l-55 47-58-78z"/><path fill="#e8e4ed" fill-opacity=".5" d="M85.2 208.5l2.6-75h1l-2.6 75z"/><ellipse cx="68" cy="187" fill="#fffffd" fill-opacity=".5" rx="20" ry="2"/><path fill="#408888" fill-opacity=".5" d="M87 173H65l19-8z"/><path fill="#b9c5e0" fill-opacity=".5" d="M147 190h3v16h-3z"/><path fill="#4368ac" fill-opacity=".5" d="M0 50h84v49H0z"/><circle cx="160" cy="190" r="5" fill="#cdcfda" fill-opacity=".5"/><path fill="#9badc3" fill-opacity=".5" d="M36.1 186.4l9.8 19.4-1.6-42.9 17.4 10.7z"/><path fill="#2c436c" fill-opacity=".5" d="M34 189l7 12-1-9z"/><circle r="1" fill="#37579b" fill-opacity=".5" transform="matrix(-41.27904 42.7457 -20.97142 -20.25187 13 19)"/><ellipse cx="74" cy="180" fill="#423e4f" fill-opacity=".5" rx="3" ry="2"/><path fill="#cdd7e0" fill-opacity=".5" d="M44 192l14-20 16 5z"/><path fill="#b0bbce" fill-opacity=".5" d="M81.8 199.3l.2 14.8 5.8-15.4 17.3-26.5z"/><path fill="#3f5774" fill-opacity=".5" d="M125 192h18v14h-18z"/><path fill="#74acb6" fill-opacity=".5" d="M106 147.4L84 59l2-.5 22 88.3z"/><path fill="#d0d5de" fill-opacity=".5" d="M15 190h18v5H15z"/><path fill="#525c6d" fill-opacity=".5" d="M3 194h17v4H3z"/><path fill="#eaeef5" fill-opacity=".5" d="M174.8 195.5l-24-10.1.4-1 24 10.2z"/><ellipse cx="33" cy="148" fill="#6b8dc8" fill-opacity=".5" rx="51" ry="12"/><path fill-opacity=".5" d="M150.7 202.2l36.7 4.6-.1 1-36.7-4.6z"/><circle r="1" fill="#466ab1" fill-opacity=".5" transform="rotate(139.9 55 62) scale(35.38351 30.44597)"/><ellipse cx="120" cy="190" fill="#f0f4f6" fill-opacity=".5" rx="20" ry="1"/><path fill="#1e1209" fill-opacity=".5" d="M90 180h4v3h-4z"/><circle r="1" fill="#23495b" fill-opacity=".5" transform="rotate(170.1 4.4 119.7) scale(32.73516 20.09088)"/><ellipse cx="164" cy="180" fill="#666d87" fill-opacity=".5" rx="24" ry="5"/><path fill="#324468" fill-opacity=".5" d="M46 193h15v7H46z"/><path fill="#dadce7" fill-opacity=".5" d="M91.4 187.5l-2.8 15.7-4-.7 2.8-15.7z"/><path fill="#373f31" fill-opacity=".5" d="M29 187.5h-6v-3h6z"/><path fill="#5a585b" fill-opacity=".5" d="M162 183h8v7h-8z"/><path fill="#597fc2" fill-opacity=".5" d="M0 114h85v26H0z"/><path fill="#7c8499" fill-opacity=".5" d="M119.4 193.6l-4-.8 5.2-24.4 4 .8z"/><path fill="#838ea4" fill-opacity=".5" d="M83.1 180.2l-41.2-19.7 47.6 22.1-6.7 12.4z"/><path fill="#6c8abf" fill-opacity=".5" d="M166.8 172.7l-40.7 4.5L87.5 148l79.7 2.7z"/><path fill="#412e1c" fill-opacity=".5" d="M0 202h30v2H0z"/><path fill="#c3cad9" fill-opacity=".5" d="M84.1 159l2.8-52h1L85 159z"/><path fill="#99a6b7" fill-opacity=".5" d="M45 202l-31-5 18-2z"/><path fill="#e6e6e7" fill-opacity=".5" d="M64.5 184.7l-18.9 7.5 24.5-2 16.4-3.9z"/><path fill="#7990b1" fill-opacity=".5" d="M78.6 189.6l-6.2 15.3-21-1.4 19.8-14z"/><path fill="#919bb2" fill-opacity=".5" d="M111.1 182.1l53.7-3.3-43.8 12.3-12.6-25.9z"/><path fill="#73798d" fill-opacity=".5" d="M166.5 106.6l-4.6-39.4-.6 4.8 11.2 133.3z"/><path fill="#cbc7cd" fill-opacity=".5" d="M139 182h12v6h-12z"/><path fill="#345366" fill-opacity=".5" d="M50.8 249.6l-8.7-45.1 86.8 11.1-25.9-4.7z"/><circle r="1" fill="#1b3748" fill-opacity=".5" transform="matrix(1.33822 7.29136 -50.3159 9.2347 118.4 255)"/><path fill="#ccc4c2" fill-opacity=".5" d="M20 182h14v3H20z"/><path fill="#4c72b6" fill-opacity=".5" d="M83 109V71l-98 40z"/><path fill="#6e95b4" fill-opacity=".5" d="M49.6 197l16 10.9 26.5.4-42.4-6.3z"/><circle r="1" fill="#e6e4e3" fill-opacity=".5" transform="matrix(-.34556 3.28778 -4.66426 -.49023 95.4 186.9)"/><path fill="#45658c" fill-opacity=".5" d="M22.2 203.5L37 213.6l-32.7 4.5 35-25.4z"/><path fill="#1b262b" fill-opacity=".5" d="M89.6 186.5l5.3 16.9 33.4-9-27.5 15.3z"/><circle cx="16" cy="201" r="3" fill="#574033" fill-opacity=".5"/><path fill="#3f6499" fill-opacity=".5" d="M160 193h10v10h-10z"/><path fill="#fff" fill-opacity=".5" d="M96 188h13v2H96z"/><circle cx="161" cy="213" r="4" fill="#828ea5" fill-opacity=".5"/><path fill="#567296" fill-opacity=".5" d="M144 191l-7 6 13 10z"/><circle r="1" fill="#39526d" fill-opacity=".5" transform="matrix(-32.45675 -6.70526 1.00274 -4.85376 155.4 220.6)"/><path fill="#586484" fill-opacity=".5" d="M174.3 231.8L162.7 98.3h1l11.6 133.4z"/><path fill="#384356" fill-opacity=".5" d="M87.5 127.7l-2-.6 1-2.8 2 .6z"/><circle cx="109" cy="172" r="2" fill="#f7f4f1" fill-opacity=".5"/><path fill="#6b6b89" fill-opacity=".5" d="M149.6 192.1l8.4-3.2.4 1-8.4 3.2z"/><ellipse cx="169" cy="186" fill="#ebf6ff" fill-opacity=".5" rx="24" ry="1"/><path fill="#bec1c5" fill-opacity=".5" d="M93.5 184.7l-18.7-10.1 9.2 1.5 5.8 12.8z"/><ellipse cx="41" cy="188" fill="#c8cad1" fill-opacity=".5" rx="17" ry="2"/><ellipse cx="85" cy="103" fill="#bcc5d9" fill-opacity=".5" rx="1" ry="61"/><path fill="none" stroke="#3e4955" stroke-opacity=".5" stroke-width=".5" d="M123.5 223.3Q86 181 77.1 177"/><path fill="#5579bf" fill-opacity=".5" d="M108.3 136.3l-8.5-20.7 62.7 2.4 5.9 40.5z"/><circle cx="12" cy="193" r="2" fill="#dcdce4" fill-opacity=".5"/><path fill="#a0948e" fill-opacity=".5" d="M143 173h27v4h-27z"/><circle r="1" fill="#3e60a4" fill-opacity=".5" transform="matrix(72.14973 -40.44479 10.31728 18.40506 71.2 21.2)"/><path fill="#6c8dc0" fill-opacity=".5" d="M85.6 137.9L84.5 176 7.2 130.6l53.4 24.6z"/><path fill="#b6cce6" fill-opacity=".5" d="M75 207h12v2H75z"/></g></g></svg>