<svg xmlns="http://www.w3.org/2000/svg" viewBox="0 0 1800 1200"><defs/><filter id="a"><feGaussianBlur stdDeviation="12"/></filter><rect width="100%" height="100%" fill="#2d435a"/><g filter="url(#a)"><g fill-opacity=".5" transform="translate(3.5 3.5) scale(7.03125)"><ellipse cx="157" cy="38" fill="#e7e6d9" rx="255" ry="92"/><circle r="1" fill="#504c47" transform="matrix(.8343 -43.45111 115.97324 2.2268 46.2 93)"/><ellipse cx="140" cy="12" fill="#cfebf8" rx="234" ry="38"/><path fill="#152d40" d="M84 118l7-59-81 58z"/><circle cx="235" cy="94" r="39" fill="#5e6972"/><ellipse cx="71" cy="122" fill="#878076" rx="255" ry="8"/><circle r="1" fill="#5b6e82" transform="matrix(45.56014 7.95152 -2.63845 15.11763 161.7 61.3)"/><path fill="#395f77" d="M147 184L26 128l199-1z"/><path fill="#c4a686" d="M-17.6 103.9l76-30.7 5.2 13-76 30.6z"/><path fill="#b79b81" d="M128 126l33-58 72 46z"/><path fill="#7ea8c6" d="M8 39l99 18-55 6z"/><path fill="#494b44" d="M30.1 55.9l-7 16.6L-20 54l7-16.6z"/><path fill="#c3baa2" d="M6 125h72v3H6z"/><path fill="#b49d89" d="M103.9 126.7l-5.1-55.3L92 88.2l-2 35.5z"/><path fill="#2c4150" d="M81 81l-54-9 63-8z"/><path fill="#2b4459" d="M184 120l-13-5 13 37z"/><circle r="1" fill="#4d5b66" transform="matrix(-5.5175 13.1129 -10.82045 -4.5529 240.5 110.5)"/><path fill="#405164" d="M129 102.8l6.6 34.4-20.6 4-6.6-34.4z"/><path fill="#e0c8a8" d="M166 79h12v25h-12z"/><path fill="#16314b" d="M57 92l23 35 5-50z"/><path fill="#9bb4bb" d="M-9-24.7l60.2 22L31 52.6l-60.2-22z"/><circle r="1" fill="#796f69" transform="matrix(31.20924 -3.90233 2.54947 20.3896 136.9 84.6)"/><circle r="1" fill="#b8c9d2" transform="matrix(4.43053 -19.5975 45.11795 10.2001 195 32.9)"/><path fill="#2d4052" d="M209 111l4 22 6-19z"/><path fill="#677d91" d="M181 56h75v32h-75z"/><path fill="#aa937b" d="M27.6 69.4L-13 122.5l53.4-26.6-13.8-16z"/><path fill="#cbb99d" d="M245 115l26-2-20 15z"/><path fill="#4c5451" d="M-16 125.8l18.8.2 53.2-.3L60.5 85z"/><path fill="#7ea1bb" d="M248 38l18 23-44-10z"/><ellipse cx="95" cy="23" fill="#b5c8d2" rx="38" ry="29"/><path fill="#2e4a5c" d="M231.2 153.4l-89.6-9.7L255 129.2l-19.1-17.6z"/><path fill="#baaa97" d="M134 113h37v14h-37z"/><path fill="#fae6c5" d="M43 97h5v4h-5z"/><path fill="#d4c0a4" d="M187.7 113l-1.3-2-7.7-14.9-2.5 29.1z"/><ellipse cx="31" cy="69" fill="#5f5f58" rx="32" ry="11"/><path fill="#bbab8b" d="M11 71L0 73l5 11z"/><path fill="#f0ecd9" d="M71 120l-5 9 7-4z"/><path fill="#b4c9ce" d="M17 21h83v27H17z"/><path fill="#c4b8a3" d="M219 121.7l12.8-2.3 1.2 7-12.8 2.2z"/><ellipse cx="60" cy="156" fill="#496e85" rx="14" ry="4"/><path fill="#2d4054" d="M170.4 107.6l3-.2 2.2 31-3 .2z"/><path fill="#687b8e" d="M145.8 66.9l2.5-23.9 19.9 2.1-2.5 23.9z"/><path fill="#011b22" d="M0 167h32v3H0z"/><path fill="#6789a6" d="M47 51h86v9H47z"/><circle r="1" fill="#99adb7" transform="matrix(18.40854 -2.2699 3.86348 31.33232 253.2 0)"/><ellipse cx="157" cy="151" fill="#506e86" rx="50" ry="2"/><path fill="#a69f92" d="M209.9 131.4l-16.7-8.1 28-14.7-7.8-16.2z"/><path fill="#5c5e5e" d="M203 110l-15 11 27-8z"/><path fill="#8ea6b0" d="M6.8-21.4L28.1-6.5l-35 50-21.2-15z"/><path fill="#45627a" d="M87.4 148.1l63.2 14.1-8.9 22.8-24.4-14.5z"/><path fill="#7c7f81" d="M188 107l13-40-26 7z"/><path fill="#b6b7ad" d="M249 96l16-11-23 8z"/><ellipse cx="21" cy="137" fill="#2d5168" rx="102" ry="9"/><path fill="#7d7671" d="M157.4 98.4l7.2-10.9-5.4 32.4-81.5-66.3z"/><path fill="#16313d" d="M220.6 155.9l-30.4 3.6 35.4 4.7 35.6 3z"/><path fill="#1d384a" d="M101 141h98v5h-98z"/><path fill="#3e5466" d="M238 107l27-12-1 23z"/><path fill="#84847e" d="M64.2 87.8l-12.3-4.2 4-11.4L68 76.4z"/><path fill="#9b8d81" d="M105.2 126.7l-14-.5 1.6-45 14 .6z"/><path fill="#08252d" d="M8 150h48v3H8z"/><path fill="#8c8a85" d="M271 120.3l-61.3-7.6-8.3-31.9 21.9 24.5z"/><path fill="#bfd0d4" d="M114.5 43V31h115v12z"/><path fill="#89837d" d="M151.6 131.8l-23.5-28.6-6.7 25.3 40.6-18.4z"/><path fill="#a28f7b" d="M4 81h33v18H4z"/><path fill="#517487" d="M194 168h46v2h-46z"/><path fill="#132c38" d="M72.9 159.9l2.2 2.6 19-6.7 14.9 10.1z"/><path fill="#6b879c" d="M62.8 46l21 4-2.2 13.8-21.2 8.3z"/><path fill="#b19c87" d="M54.9 128.3l-1.6-8.9 9.8-1.7 1.6 8.9z"/><path fill="#294054" d="M83.3 60L70.8 84.2l-7.4-17.3L88.6 68z"/><path fill="#07212b" d="M169 165h20v4h-20z"/><path fill="#3c5a71" d="M235.8 133.7l2.9 7.1-94.2-10.8 52.9-2.8z"/><path fill="#3a5c71" d="M77.4 163.1l-46.3 6.4 84.3 15.5-78-36.9z"/><path fill="#414b59" d="M103.8 96.8l3.6-1.7 12.8 26-3.6 1.8z"/><circle cx="197" cy="105" r="8" fill="#c0af98"/><path fill="#dad6c8" d="M204 117l3 8-4 3z"/><path fill="#8b9498" d="M224.7 72.8l-6.8-17.2 23 29.2-17.2-2.2z"/><path fill="#37536c" d="M89.2 127.4l64.7 1.8L73.5 157l16.2-45.8z"/><path fill="#a89788" d="M142.1 115.7l32.2-8.4-27.8-.4L135 95.8z"/><path fill="#b4a089" d="M19 81l-6 28 15-8z"/><path fill="#656565" d="M151 64l-23 65 3-59z"/><path fill="#777370" d="M116 101.6l-14.6-23.5 9.9 43.5-29.1-32z"/><path fill="#53544d" d="M2 81l-1 24-17-8z"/><path fill="#baa892" d="M167.4 92.9l-8.8-28 14.5 60.3-14.7 1.5z"/><path fill="#89a4b8" d="M203 47h53v9h-53z"/><path fill="#414c4c" d="M20 117.1l-36 12.6 41-24.8-5.4 34.5z"/><path fill="#8d8f91" d="M146 54l-34 15 11-13z"/><path fill="#586b7e" d="M236.3 83.6l-26.1 8.3 25.2 12.7 8.9 30.8z"/><path fill="#6a6a67" d="M84.2 55.4l4.8 9.3 9.4 17.8 18.5 12.6z"/><ellipse cx="109" cy="50" fill="#a1bcca" rx="26" ry="2"/><path fill="#4a5453" d="M69 65L36 81 26 71z"/><path fill="#5b6f7f" d="M271 43.5l-52.9 79.1L271 59.5l-42 28.8z"/><path fill="#a29885" d="M13.1 71.4l13.8-.6L19 90.7 27.4 75z"/><path fill="#788fa0" d="M239 42h10v30h-10z"/><path fill="#6d8091" d="M154 44.6L199.3 72 190 87.4 144.6 60z"/><path fill="#899197" d="M184.1 78.7l.2-4.7 14.1-5.4 18.1 14.8z"/><path fill="#535f65" d="M45 96v-8l26-5z"/><path fill="#949796" d="M70.6 130.7l-1-1.6-22.8-.4 37.9-3.1z"/><path fill="#344d61" d="M172 133.8l16.3 14.6-3.7-31.5-22.5 35.2z"/><path fill="#283e50" d="M49 95.9l25.2 16.2 18.4-33.3L72.7 83z"/><path fill="#48667e" d="M168 145h16v12h-16z"/></g></g></svg>