<svg xmlns="http://www.w3.org/2000/svg" viewBox="0 0 1800 1200"><defs/><filter id="a"><feGaussianBlur stdDeviation="12"/></filter><rect width="100%" height="100%" fill="#59392b"/><g filter="url(#a)"><g fill-opacity=".5" transform="translate(3.5 3.5) scale(7.03125)"><circle cx="141" cy="52" r="196" fill="#c1cdca"/><circle r="1" fill="#3d200c" transform="matrix(-41.08197 103.5006 -35.12193 -13.94077 183 101.6)"/><circle r="1" fill="#fdffff" transform="matrix(67.76113 -13.89625 3.25326 15.86362 114 44)"/><circle r="1" fill="#eafdff" transform="matrix(.82012 -141.36053 21.10924 .12247 252.2 144.6)"/><circle r="1" fill="#3e200f" transform="matrix(-106.63316 1.3381 -.20467 -16.31008 100.6 169)"/><circle r="1" fill="#f1caad" transform="rotate(-120.8 73.1 42.6) scale(30.08536 42.10988)"/><circle r="1" fill="#cdd6d9" transform="matrix(34.78417 18.41727 -9.23304 17.43818 224 152.9)"/><ellipse cx="43" cy="50" fill="#bfd4e1" rx="122" ry="14"/><path fill="#beb5ac" d="M209 32l-18 44 57-45z"/><ellipse cx="140" cy="74" fill="#130200" rx="62" ry="4"/><path fill="#1f2a21" d="M168 103h73v25h-73z"/><path fill="#271303" d="M113 111h37v21h-37z"/><path fill="#e4fbff" d="M175 91l-29-11 2 14z"/><circle r="1" fill="#20110a" transform="matrix(-21.67767 -15.57698 7.50259 -10.44096 48.7 169.1)"/><circle r="1" fill="#864311" transform="rotate(147 63.4 90.6) scale(13.89454 47.20187)"/><path fill="#242e2c" d="M51 27.7L27.9 40.9-9.4-16-16 24.3z"/><ellipse cx="116" cy="71" fill="#5f452f" rx="4" ry="50"/><path fill="#d4d5bc" d="M118 77h18v33h-18z"/><path fill="#f7f4ff" d="M33 122l-14 17 23 9z"/><circle r="1" fill="#544f44" transform="matrix(-3.67618 -6.1703 41.1598 -24.52244 15.5 128.5)"/><circle r="1" fill="#a6a99f" transform="rotate(-10.7 509.5 -255.4) scale(55.83534 12.68501)"/><path fill="#f9ffff" d="M224 129h32v18h-32z"/><path fill="#2c0400" d="M108 185l-5-49-32 49z"/><circle r="1" fill="#4d2c1f" transform="matrix(4.74737 1.10574 -15.11164 64.8799 229 36.1)"/><path fill="#bbd4e9" d="M109 129h6v41h-6z"/><path fill="#eefeff" d="M122 24h49v17h-49z"/><ellipse cx="105" cy="9" fill="#aba395" rx="49" ry="20"/><path fill="#f9ffff" d="M37 43l-53 17 33-25z"/><path fill="#88949b" d="M-16 63l98-37L0 129z"/><path fill="#8596aa" d="M123.6 135.4l13.9-12 1.1 47.6-8 4z"/><path fill="#28190f" d="M138 68.4l7 .2-1 53-7-.2z"/><path fill="#fff" d="M266 24.7L247.3 28 244 9.3 262.7 6z"/><path fill="#e4dcd6" d="M66 101h48v15H66z"/><path fill="#444040" d="M182 81l-47-6 93-91z"/><path fill="#59301e" d="M204 64h31v36h-31z"/><ellipse cx="242" cy="19" fill="#434c54" rx="2" ry="59"/><path fill="#2e1811" d="M114 93h5v61h-5z"/><circle cx="217" cy="40" r="8" fill="#dbe6e1"/><path fill="#a49786" d="M266.2 171.2l-34 .6-.4-25 34-.6z"/><circle r="1" fill="#deac76" transform="matrix(-16.95372 .08877 -.01385 -2.64602 205 101)"/><path fill="#c6ced3" d="M234 73h22v52h-22z"/><path fill="#d7e0e1" d="M160.5 52.5L136.7 64l-17.4-3.7 62.3-36.5z"/><ellipse cx="240" cy="85" fill="#3f4143" rx="2" ry="20"/><path fill="#c38a5b" d="M53 135h36v25H53z"/><path fill="#483f38" d="M271-5L168 13l27 20z"/><path fill="#dce7e5" d="M192.1 62.9l12.7 5.9-3 6.3-12.6-5.9z"/><path fill="#002423" d="M173 107h40v18h-40z"/><path fill="#cedce6" d="M216.7 150.8l-18.8-4.8 11.7 33.3 14.6-26.6z"/><path fill="#a6a5a4" d="M181.7 123.6l31.4 14.8-28.2.9-3.7-16.1z"/><path fill="#ecf2f4" d="M112 29L58 49l47 6z"/><path fill="#b46a2e" d="M156 100h16v32h-16z"/><path fill="#787674" d="M18.5 58l-30.8-3.3 25.6 15 73-36.2z"/><path fill="#a8a193" d="M217.6 5l22.9-21-163.6 3.9 74.7 25.5z"/><circle cx="13" cy="158" r="20" fill="#70706f"/><path fill="#33241d" d="M212.1 74.5l16.2 21.2-29.3-4.8-38.9-19.2z"/><path fill="#d0d6d4" d="M21.6 107.1l-17 .8-20.6 10.2v15z"/><path fill="#301808" d="M32 162h70v8H32z"/><circle r="1" fill="#3d2112" transform="rotate(170.9 67.7 75.4) scale(5.87921 38.26526)"/><path fill="#a7a299" d="M116 73l-62 43-35-36z"/><ellipse cx="238" cy="44" fill="#f0fbf7" rx="3" ry="19"/><path fill="#a9c8e2" d="M70.9 54L60.7 36.1 32.1 50l23.1-23.4z"/><path fill="#112032" d="M22.6 34.7l-.2-7 27-.4.2 7z"/><circle r="1" fill="#807462" transform="matrix(13.8968 -23.40321 6.8936 4.09341 13.6 21.7)"/><path fill="#c9e3fb" d="M122.8 132.7l12-.4.4 9-12 .4z"/><path fill="#78695e" d="M205.4 31.6l16.7 46.3-43.6-53.7-19.4 47.7z"/><path fill="#9c9ea8" d="M186 94l-33-18-12 18z"/><path fill="#31292d" d="M241.3 87.6l-3.6 40.9-1-.1 3.6-40.9z"/><path fill="#d2e2e8" d="M240 110l3-59 22 16z"/><path d="M0 82h11v4H0z"/><path fill="#d7c7b5" d="M114.2 133.5l-5.3 9.4-49.7-26.2 55.8 6.6z"/><path fill="#978e80" d="M106 20l16 43-4-79z"/><ellipse cx="240" cy="126" fill="#67493c" rx="78" ry="2"/><path fill="#191b19" d="M188.5 43.9l8-16.4 13-10.3 4.9 12z"/><path fill="#73797b" d="M105 55L33 72l33 5z"/><path fill="#6e6058" d="M17 116h96v3H17z"/><ellipse cx="230" cy="86" fill="#9a604c" rx="4" ry="41"/><path fill="#b6ad95" d="M118 83h20v31h-20z"/><path fill="#402619" d="M108.9 85.2L121 66.9l-7.8 36.7-1.3-25.3z"/><path fill="#382f2c" d="M202 160l-25 25 8-43z"/><path fill="#3a1d0e" d="M114 70h45v8h-45z"/><circle r="1" fill="#272120" transform="rotate(-95.2 76.7 -2.6) scale(1.55631 28.96534)"/><path fill="#58555a" d="M161 185l-41-49-7 39z"/><path fill="#90897e" d="M110.6 96l-41.7 7.2-84.9.6 130.2-28.5z"/><path fill="#40271b" d="M224 9h3v99h-3z"/><path fill="#d7a269" d="M172 99h44v4h-44z"/><path fill="#8d4b1b" d="M150.4 163.2l3.4-38.8 27.8 2.4-3.4 38.8z"/><path fill="#695854" d="M174.1 95l15 5.7 38.4-4.5-91.8-21.3z"/><path fill="#482913" d="M87.1 185l16.2-50.4 5.3 16.4-41.9 16.6z"/><path fill="#142b34" d="M64.4 19.4l-7.9 4.4-2.9-5.2 7.9-4.4z"/><path fill="#d5e1e7" d="M143 81l2 11 22 2z"/><path fill="#b9ccdb" d="M78 64.3l-63.3 1.2 18.7-1.1 38.1-22.6z"/><path fill="#9e9b96" d="M76.7 89.4l3.1-17.7 61.8-10.6-74.2 2.6z"/><path fill="#e1ecf6" d="M14 55l9-18 14 2z"/><path fill="#c8b5ae" d="M17.9 137.8l71.6-19.4-39.4-.6L29 123z"/><path fill="#8e846b" d="M137 129l-15-32h15z"/><path fill="#d6c7b8" d="M108 129.5l-6.5-32.3 13 2.6-25.1 58.3z"/><path fill="#432e26" d="M61.9 185l-75.9-5.2 110.4-2.6-73.5-34.3z"/><path fill="#f3fdff" d="M244 7h27l-18 36z"/><path fill="#a3b8c1" d="M195.5 49.8l5.2-8.8 1.7-1.7.1 9.8z"/><path fill="#89877f" d="M167.9 38L46.4 75l-.3-1 121.5-37z"/></g></g></svg>