<svg xmlns="http://www.w3.org/2000/svg" viewBox="0 0 1800 1200"><defs/><filter id="a"><feGaussianBlur stdDeviation="12"/></filter><rect width="100%" height="100%" fill="#5a5034"/><g filter="url(#a)"><g fill-opacity=".5" transform="translate(3.5 3.5) scale(7.03125)"><circle r="1" fill="#fff" transform="rotate(-8.7 133.3 -729) scale(250.91046 58.73756)"/><ellipse cx="152" cy="150" fill="#8aa5bb" rx="255" ry="20"/><ellipse cx="145" cy="12" fill="#d0def0" rx="132" ry="43"/><circle r="1" fill="#202616" transform="matrix(-.60972 31.75453 -81.54993 -1.56584 214 98.9)"/><ellipse cx="136" cy="85" fill="#383b2b" rx="38" ry="26"/><path fill="#e9e0d4" d="M151 35L84 77 73-8z"/><ellipse cx="24" cy="59" fill="#8d9cb3" rx="63" ry="24"/><circle r="1" fill="#87a8ca" transform="matrix(3.63626 26.89433 -58.76638 7.94553 189.6 0)"/><path fill="#959081" d="M173 138L55 181l70-66z"/><ellipse cx="20" cy="166" fill="#506064" rx="50" ry="26"/><ellipse cx="27" cy="115" fill="#404016" rx="89" ry="18"/><ellipse cx="94" cy="135" fill="#c39a70" rx="122" ry="4"/><path fill="#8a908e" d="M206.1 44.8l64.2-6.3-54.1 15-52.1 13.1z"/><ellipse cx="242" cy="161" fill="#446274" rx="44" ry="26"/><path fill="#3c4743" d="M-6.5 81.1l101.4.1-20.5-12.7-64.1 37.7z"/><path fill="#e7c194" d="M62 125h9v14h-9z"/><path fill="#4c482a" d="M138 57L47 91l124 40z"/><path fill="#333935" d="M238 81l-33-34-16 8z"/><circle r="1" fill="#bdb7ac" transform="matrix(1.06684 -9.2204 73.60943 8.5169 110.8 49.5)"/><circle r="1" fill="#1b2113" transform="matrix(-20.63994 -26.86283 11.88403 -9.13105 235 103.6)"/><path fill="#1d1715" d="M73 126h49v6H73z"/><circle r="1" fill="#788290" transform="matrix(40.39917 29.56772 -5.09384 6.95985 10.6 33.5)"/><ellipse cx="169" cy="149" fill="#698493" rx="52" ry="15"/><circle r="1" fill="#f4f0e4" transform="matrix(-2.69559 6.22914 -25.0419 -10.8366 255.1 35.2)"/><path fill="#f1ede4" d="M69.2 31.7l80.4 5.3L82.4 3.3l2.1 5.8z"/><path fill="#c4c7c7" d="M252.8 37.3L216 53.9 203.1 47l-34-37.3z"/><path fill="#464321" d="M271 90.6l-127.3 14.5-17.2 20.4 78.1 6.2z"/><path fill="#b18d68" d="M154 131h102v5H154z"/><ellipse cx="142" cy="73" fill="#494b43" rx="27" ry="14"/><path fill="#cfba87" d="M117 116h8v12h-8z"/><circle r="1" fill="#c5bcb1" transform="rotate(-57.7 42.5 -28.2) scale(13.31265 80.33385)"/><path fill="#2b2a1c" d="M65.5 133.8L43 132.6 7.5 132l30.3-18.6z"/><circle r="1" fill="#a6b6cd" transform="matrix(11.08784 -22.22447 13.92958 6.9495 0 62.7)"/><ellipse cx="88" cy="139" fill="#6e6e55" rx="72" ry="3"/><path fill="#6c5c38" d="M221.4 104.9l4 16.8-20.7 9.2-14.1 4.6z"/><path fill="#292b29" d="M214.3 55.8l53.4-13.3 2 7.7-53.4 13.3z"/><path fill="#babfc1" d="M144.6 26.1l17.9 38.5 53.4-45.4-36.7 45.6z"/><path fill="#98968f" d="M58.6 43.4L36.5 45 51 64.8l44.2-4.9z"/><path fill="#b2b5b6" d="M61.4 76.9l-24.5 4.3-12.1-24.1 51.9 10.5z"/><ellipse cx="228" cy="139" fill="#3d5852" rx="36" ry="3"/><path fill="#2d373c" d="M101.4 85l-3.1-13.6 28.3-6.5 3.1 13.7z"/><path fill="#393620" d="M40.9 100.5l-24.1-.2-24.6-2.1 63.5-18.8z"/><path fill="#5c6158" d="M215 60l-19-11-25 18z"/><path fill="#594d3a" d="M252.9 57.5L257 106l-32.2-61.2 32.8 16.9z"/><path fill="#bebdba" d="M105.8 45.1l36.6-10.4 5.8 20.2-36.6 10.4z"/><path fill="#5b4c24" d="M148 83l-18 46 14 2z"/><path fill="#afbbc6" d="M172 58l39-14-107-55z"/><path fill="#4e595e" d="M78.5 68.6l2.2 4.5-25.2 12.3-2.2-4.5z"/><path fill="#91958e" d="M124.8 112.4l-.4 44.4-51.3-4.7 55.5-18.6z"/><circle r="1" fill="#5e542c" transform="matrix(59.6171 -29.98428 3.82189 7.59898 15.4 112.1)"/><path fill="#716231" d="M91.2 78.5l23.7 19.6-28.2-2-6.8 5z"/><circle r="1" fill="#59707e" transform="matrix(49.1385 -3.86728 .75417 9.5827 169.7 169.4)"/><path fill="#626d6b" d="M108.5 185L-16 178.4 35.3 142l21.8-2.9z"/><ellipse cx="52" fill="#d1ceca" rx="53" ry="11"/><path fill="#5f6968" d="M34.9 83.8l-16.5-4.6-19.5 2.9L-4.7 94z"/><ellipse cx="199" fill="#8fa8c2" rx="55" ry="9"/><circle r="1" fill="#121618" transform="rotate(23.5 -175.3 635) scale(9.66936 7.90877)"/><path fill="#68612c" d="M146 123l-57-12 46-3z"/><path fill="#c3a885" d="M122 132h119v2H122z"/><path fill="#899bb2" d="M6 59l16 22 29-3z"/><circle r="1" fill="#adb7bf" transform="matrix(-9.87081 19.7019 -7.50755 -3.76134 222.6 34.4)"/><path fill="#302c2a" d="M177.3 132.9l23.3-13.6 10 7-74.5-4.2z"/><path fill="#2e2d24" d="M98.2 96.2l6.6 10 12.7-16.9 7.9 28z"/><circle r="1" fill="#736924" transform="matrix(6.58817 10.76604 -2.38914 1.46201 150 101.6)"/><ellipse cx="225" cy="84" fill="#21211d" rx="19" ry="13"/><ellipse cx="55" cy="135" fill="#bd9f7b" rx="79" ry="2"/><path fill="#766944" d="M137 77h29v4h-29z"/><path fill="#2b312d" d="M159.9 74.9L150.2 64l-7.4 6.7 5.7 26.3z"/><path fill="#c5c3bb" d="M73.8 68.3l26.5 2.4-28.5-10.5-16.6 18.2z"/><ellipse cx="152" cy="128" fill="#9daba9" rx="6" ry="2"/><path fill="#3b4220" d="M82 143l14-5H79z"/><ellipse cx="1" cy="129" fill="#151416" rx="29" ry="3"/><path fill="#5b5c49" d="M159.7 65.6l12.5-6.9 28.6 17.1L140 65.2z"/><path fill="#212218" d="M102 128l-33-12 8 14z"/><path fill="#6d6826" d="M75 127l-41-19h22z"/><circle r="1" fill="#a9a6a3" transform="matrix(-22.03727 -19.02185 4.33685 -5.02435 21.5 26.4)"/><path fill="#7a6d43" d="M226.8 131.1l-15.3 2 20.2-1.7-9-27.5z"/><path fill="#715e45" d="M176 82l15 1 3 8z"/><path fill="#ded6c9" d="M67 17l-9 13 54 15z"/><path fill="#868d95" d="M72 60l-40 1-48-45z"/><ellipse cx="127" cy="104" fill="#7a6532" rx="3" ry="14"/><circle r="1" fill="#dad9d3" transform="matrix(4.17999 -4.82662 7.25321 6.28148 194.7 27)"/><path fill="#594f43" d="M87 136h30v1H87z"/><ellipse cx="255" cy="135" fill="#c9d0d2" rx="27" ry="1"/><ellipse cx="65" cy="129" fill="#e0bc95" rx="4" ry="3"/><path fill="#2d2e24" d="M172 61l-11 41 21 26z"/><path fill="#78807f" d="M95.3 174.8L35.2 151l35.9-6.9 64.1 16.4z"/><path fill="#6f6a1d" d="M99.6 105.3L96.3 126l-7.9-1.3 3.3-20.7z"/><path fill="#5b5332" d="M147.8 131.6l12.7 2.6-3.5-49.4 14.2 39z"/><path fill="#565445" d="M131 59h8v36h-8z"/><path fill="#080908" d="M202.8 114.1l-.6 10-5-.2.6-10z"/><path fill="#85692d" d="M50 88h18v6H50z"/><path fill="#988142" d="M204.5 93l1.7-1 3.3 5-1.7 1z"/><path fill="#0d1414" d="M65 109l-5-9-5 6z"/><path fill="#47413a" d="M172 126l20-4 12 10z"/><path fill="#393c2f" d="M54.1 83.4l77.2-10.8.6 4-77.2 10.8z"/><ellipse cx="237" cy="68" fill="#3f3a32" rx="57" ry="4"/><path fill="#1a2012" d="M213.9 103.9l11 .9 41.6 16.2L209 92.3z"/><path fill="#3f3f15" d="M96.2 124.8l15.5 4.5-2.2-10.3-5.1-27.9z"/><ellipse cx="107" cy="95" fill="#8c7634" rx="3" ry="6"/></g></g></svg>