<svg xmlns="http://www.w3.org/2000/svg" viewBox="0 0 1800 1200"><defs/><filter id="a"><feGaussianBlur stdDeviation="12"/></filter><rect width="100%" height="100%" fill="#474533"/><g filter="url(#a)"><g fill-opacity=".5" transform="translate(3.5 3.5) scale(7.03125)"><circle r="1" fill="#dee8fb" transform="matrix(-145.65855 39.84767 -21.30233 -77.86819 134.6 1.5)"/><circle r="1" fill="#fff" transform="matrix(-48.5986 -2.80218 .7983 -13.84505 174 37.8)"/><ellipse cx="59" cy="87" fill="#485255" rx="237" ry="31"/><circle r="1" fill="#98958e" transform="rotate(-77.9 117 -27.4) scale(13.63937 96.34838)"/><path fill="#b2bedb" d="M100 185l-61-55 111 55z"/><circle r="1" fill="#232d2d" transform="matrix(49.47155 -2.10714 1.17875 27.67479 215 77)"/><path fill="#89838d" d="M19 172.2l-35.8-3.7 5.8-54.7 35.8 3.7z"/><circle r="1" fill="#dad8d3" transform="matrix(36.3651 -7.92888 1.3053 5.98666 235.3 36.9)"/><path fill="#1f395f" d="M103 68l-119 1 60-17z"/><path fill="#fffffd" d="M161.5 47l3.3-26.7 37.7 4.6-3.3 26.8z"/><path fill="#a1a4a0" d="M145.9 71.2l-97.7 6.2 77.2 20.8 35.4 1.8z"/><path fill="#f0ede5" d="M170-16l22 21-88-3z"/><path fill="#bcb8ab" d="M35 31h110v25H35z"/><circle r="1" fill="#625d51" transform="rotate(103.8 49.1 136) scale(7.8443 122.84734)"/><circle r="1" fill="#0a1200" transform="matrix(16.4395 4.71622 -3.23854 11.2887 11.2 103.3)"/><path fill="#262e1f" d="M123 120l-81 13 167 52z"/><ellipse cx="142" cy="65" fill="#304050" rx="107" ry="6"/><ellipse cx="137" cy="32" fill="#7e807a" rx="34" ry="4"/><path fill="#000005" d="M22 145l7 32 23-21z"/><path fill="#eadabf" d="M143.4 58.9l-16.9 1L-1 48.1l182.1 10.3z"/><path fill="#736e70" d="M8 117l79 54-45-53z"/><ellipse cx="167" cy="103" fill="#444431" rx="151" ry="5"/><path fill="#fefdf9" d="M183.9 39L128 35.6l-7.6.4 57 14.8z"/><ellipse cx="230" cy="11" fill="#868785" rx="46" ry="23"/><path fill="#42556e" d="M0 55h94v16H0z"/><ellipse cx="154" cy="94" fill="#ccc7b4" rx="18" ry="4"/><path fill="#888c8e" d="M47.9 72.1l82-1.1 1.5 14L57 101.2z"/><circle r="1" fill="#353a3a" transform="matrix(46.60202 8.55307 -7.11006 38.7397 238 84.5)"/><path fill="#1c1200" d="M21 185l-35-2 13-34z"/><path fill="#2e352f" d="M271 131.1l-12.8-67.3L143.8 90l17.3-20.2z"/><path fill="#d8d8d2" d="M74.1 16.6l-24.3-5.2-3.5-2L60 3.6z"/><path fill="#fff" d="M162 0h30v4h-30z"/><path fill="#fafaf7" d="M169.1 20.3l65.4 24.3-19.7-2.1-3.4 6.9z"/><path fill="#232816" d="M-13.5 66.1l59.3 18.1-2.3 7.7-59.3-18.1z"/><path fill="#434835" d="M75 94h45v55H75z"/><circle r="1" fill="#7a7e81" transform="rotate(-9.7 176.3 -864) scale(79.24264 4.79452)"/><path fill="#94847b" d="M22 156l1 29-30-54z"/><circle r="1" fill="#736a5c" transform="matrix(41.02359 10.07636 -1.77357 7.22068 186.8 119.8)"/><path fill="#fbf9f3" d="M190 32l-23-12-34 6z"/><path fill="#1c1f1d" d="M30.1 124.7l9.2 9.2L26 147.3l-9.2-9.2z"/><path fill="#bdbcb6" d="M271 7l-55.9 10.9-3.2-12.6 51.7 14.8z"/><path fill="#21251c" d="M117.2 106.8l32.9 56.1-33.6-12.2-2.8-26.9z"/><path fill="#cac1ae" d="M130 57l39-8 11 11z"/><ellipse cx="31" cy="30" fill="#b0b3b1" rx="34" ry="7"/><path fill="#b7b1a0" d="M139 87l21-17-27 2z"/><path fill="#665d43" d="M29.7 153.7l28.4-15.8-30.6-50 6.2 46.8z"/><path fill="#4c502d" d="M52.3 92.7L-16 75.3l77.7 45.5 7-34.6z"/><path fill="#383f56" d="M118 185H45l2-41z"/><path fill="#eeeeeb" d="M191 52l-45-8 90-11z"/><path fill="#645d4f" d="M181 88l70 33-96-17z"/><path fill="#aeaea9" d="M95.9 7.8l5.6-23.8 69.3 23-17.3-.2z"/><path fill="#373c1b" d="M146 139l125 30-98 16z"/><path fill="#8f97a1" d="M51.8 136.9l18.8 8.5 49.1 27.7-64.4-22.6z"/><circle cx="139" cy="92" r="9" fill="#a5a59a"/><ellipse cx="121" cy="50" fill="#96958b" rx="50" ry="4"/><path fill="#39403c" d="M227.2 111.3l9.4-2.3L145 85.1l55.9-34.3z"/><path fill="#99a1a9" d="M29 129l-31.4-15.3L-1 111l31.5 15.3z"/><path fill="#939492" d="M58.4 97.1l15.6 7.2L61.6 77l36.6 13.7z"/><path fill="#5d602f" d="M211.7 142l5.3 9.6-36.7 20.4-5.3-9.6z"/><circle r="1" fill="#444b4f" transform="matrix(-58.76693 19.6863 -1.35799 -4.05383 218.3 53.8)"/><path fill="#323728" d="M41.4 103.8l1.8 7.5-.9 12.3 97.2 61.4z"/><path fill="#898e90" d="M144.1 85l-50.9 16.4 12.7-4.5L5.6 69.4z"/><ellipse cx="13" cy="51" fill="#c6c0af" rx="46" ry="3"/><path fill="#3b402f" d="M108 105l59 12-11 57z"/><path fill="#4b5d75" d="M12 54h43v17H12z"/><path fill="#1d1d14" d="M28.1 115.5l5.4 7.9-49.5-18.1v-15z"/><path fill="#645d55" d="M271 106v31l-47 3z"/><path fill="#777c80" d="M218 24h38v9h-38z"/><path fill="#1e2118" d="M166.4 185h18.3l-33.6-23.8 29.4-13.5z"/><path fill="#838585" d="M105 10h96v12h-96z"/><path fill="#a3a195" d="M174 34l6 4 10-2z"/><path fill="#555740" d="M118.7 124.5l-58.1-16.3 21.2-17 27.2 19.3z"/><path fill="#6c6e55" d="M55 129l-32 18 34-7z"/><path fill="#8b8a81" d="M141.6 31l21.6 1.9 4.1 4.5-21.3-1.3z"/><path fill="#3d4449" d="M-16 119l15-6 33 21z"/><path fill="#303727" d="M200 142l40-9-52-3z"/><ellipse cx="19" cy="148" fill="#3f4d5e" rx="3" ry="17"/><circle r="1" fill="#d5d0c3" transform="rotate(97.7 34.3 68) scale(1.57364 16.07362)"/><path fill="#b6b6af" d="M145.2 42.5l-104-13.2 76.5 1.7 18.6 18.2z"/><path fill="#8c908a" d="M117 102l21-29 1 24z"/><ellipse cx="174" cy="100" fill="#424437" rx="31" ry="3"/><path fill="#353a21" d="M20 74l-32-15-4 57z"/><path fill="#92746a" d="M43 109l-12-4 10 14z"/><path fill="#9a9c9c" d="M238 9h18v29h-18z"/><path fill="#0f1313" d="M33 163.1l10-15 10 6.8-10 15z"/><path fill="#1d211f" d="M235.6 109.7l-29.7-2.9 65.1-6.1-9.8-23.9z"/><ellipse cx="177" cy="110" fill="#796d5f" rx="34" ry="7"/><path fill="#6f7578" d="M186 3l37-3-19 10z"/><path fill="#8e9496" d="M-10.9 34.8l108.6 9.5-.8 9-108.6-9.6z"/><circle r="1" fill="#9da3a8" transform="matrix(-6.65899 13.17514 -32.17015 -16.25945 0 11.3)"/><path fill="#fdfcfc" d="M219 36l-27-9-11 7z"/><path fill="#292c24" d="M23 132h29v4H23z"/><path fill="#3e3f2f" d="M176.1 119.1l35.5-6.2.3 2-35.5 6.2z"/><path fill="#868882" d="M215.3 39.3l9 1.4L187 15.4l39.2 3.1z"/><path fill="#d0c4ad" d="M58 52h43v4H58z"/><path fill="#9e9c8e" d="M134.6 83.2l22.9 16.2 25.8-5-3.9 1.1z"/><path fill="#4c5362" d="M19 173l49-12 19 20z"/><circle cx="56" cy="86" r="6" fill="#969a9e"/><path fill="#4b4e3b" d="M74 96l47 71-17-73z"/><ellipse cx="139" fill="#9c9d99" rx="13" ry="9"/></g></g></svg>