<svg xmlns="http://www.w3.org/2000/svg" viewBox="0 0 1800 1200"><defs/><filter id="a"><feGaussianBlur stdDeviation="12"/></filter><rect width="100%" height="100%" fill="#262f3c"/><g filter="url(#a)"><g fill-opacity=".5" transform="translate(3.5 3.5) scale(7.03125)"><circle cx="117" cy="81" r="164" fill="#e4dfce"/><ellipse cx="195" cy="96" fill="#41464c" rx="219" ry="18"/><ellipse cx="63" cy="65" fill="#c2bdb5" rx="223" ry="14"/><ellipse cx="75" cy="147" fill="#c9b28e" rx="85" ry="31"/><path fill="#191c00" d="M14 102.5l24.8 18.1-54.6 10.9 14.9-29.8z"/><circle r="1" fill="#5e7b9d" transform="matrix(161.6629 -5.08046 1.20934 38.4817 140.9 18.2)"/><circle r="1" fill="#c3c3b7" transform="matrix(4.58298 -11.80392 50.7331 19.69759 42.7 68)"/><path d="M206 92l8 18-38 3z"/><path fill="#a99577" d="M271 172l-22-74-217 82z"/><path fill="#beb09b" d="M94.2 88.2l-8.8 6.4-74.9 68.1 86.3 4.4z"/><path fill="#251e26" d="M156.6 115.9l-59.3-5 14.5-11.5 60.9 12.5z"/><circle r="1" fill="#a6b4b6" transform="matrix(.27315 -4.08184 28.35657 1.89755 229.2 86.6)"/><circle r="1" fill="#5b6975" transform="matrix(-.21467 -8.19774 62.05267 -1.6249 159.9 79)"/><path fill="#c3d8e0" d="M216 103h40v5h-40z"/><ellipse cx="170" cy="144" fill="#9a8d7b" rx="86" ry="32"/><path fill="#262321" d="M183.9 76.3l39.4 17.1-39.1 20.4 26.4-1.8z"/><path fill="#29496d" d="M125 83l-15 31-26-46z"/><path fill="#110100" d="M177 95l-11-3 15 21z"/><path fill="#d3c7b3" d="M187.7 66.8l-1.3-15 29.9-2.6 1.3 15z"/><path fill="#9a8e87" d="M170.6 75l28.7 25-7.9 9-28.7-25z"/><ellipse cx="14" cy="76" fill="#465863" rx="19" ry="3"/><path fill="#c1b39a" d="M208 152h48v16h-48z"/><ellipse cx="220" cy="39" fill="#637280" rx="167" ry="12"/><path fill="#8595a5" d="M138 15l-154 4 30-35z"/><circle r="1" fill="#3e3b38" transform="matrix(21.19328 -8.78405 1.2748 3.0757 136.6 112.3)"/><path fill="#98887d" d="M177 76.7l-22.1 41.1-8.6-22-57 48.3z"/><path fill="#cfc0a5" d="M31 151h71v16H31z"/><path fill="#b1b1aa" d="M71 49l22 42L-8 47z"/><path d="M109 106h19v6h-19z"/><path fill="#7d817a" d="M-5.8 88.4l60.6 39-14.9-22.5 62-1.4z"/><path fill="#cfc7b6" d="M143 68l-67-8 40-6z"/><path fill="#040b15" d="M154 111l-19 4 6-15z"/><ellipse cx="135" cy="169" fill="#77624a" rx="105" ry="2"/><path fill="#e3dec8" d="M37 75h27v8H37z"/><ellipse cx="137" cy="54" fill="#7f7778" rx="19" ry="9"/><path fill="#6b655c" d="M84 148h102v3H84z"/><path fill="#3c3e27" d="M39 104.8l-10.2 17L-16 113l59.4 7.3z"/><circle r="1" fill="#9b776e" transform="matrix(-6.80513 -4.23582 6.33313 -10.1746 92.1 97.5)"/><path fill="#989691" d="M73 70h81v10H73z"/><ellipse cx="245" cy="94" fill="#1e394e" rx="31" ry="3"/><path fill="#8e9697" d="M209.2 90.8l30.4 9.9-23.5 7.5 12-43z"/><path fill="#1a6cb0" d="M117 80l-13 13-9-14z"/><path fill="#9fa09c" d="M-4 101l19-47 27-12z"/><path fill="#4c4030" d="M207 182.4l-6 .9-4-27.7 6-.9z"/><circle r="1" fill="#7e756a" transform="rotate(-8 1037.8 -871.7) scale(29.11162 4.9195)"/><path fill="#1a1f25" d="M172 106h43v8h-43z"/><path fill="#232c3b" d="M122 88l-6-17-7 34z"/><circle r="1" fill="#4c5c6b" transform="matrix(-.48415 5.18991 -26.94981 -2.51404 244.4 80.3)"/><ellipse cx="252" cy="61" fill="#c4c2b6" rx="24" ry="7"/><path fill="#3c2510" d="M205.2 96.4l-6.5 2.6-7.9-19.4 6.5-2.6z"/><path fill="#a5b3b4" d="M158 83h28v5h-28z"/><path fill="#504436" d="M236 155h4v15h-4z"/><path fill="#ada59d" d="M138.1 68.4l36.8 8.9-41-25.5 23.4-8.7z"/><path fill="#9f7a67" d="M132.3 114l-8-15.1 5.4-2.8 8 15z"/><path fill="#403636" d="M141 107l-3-26-6 21z"/><ellipse cx="224" cy="125" fill="#877c6b" rx="53" ry="7"/><circle r="1" fill="#ebe5d1" transform="matrix(5.17032 .6924 -.87815 6.55733 34 66)"/><path fill="#7d6a50" d="M-16 169.3l39.2-15.6-39.2 4.8L.7 170.9z"/><circle r="1" fill="#a49c8d" transform="matrix(-9.09038 -16.2594 25.64677 -14.33871 71.9 130.4)"/><path fill="#545a5f" d="M41 104h37v9H41z"/><path fill="#ccc4b3" d="M169 150h35v3h-35z"/><path fill="#a59782" d="M168.8 107.6l-10.1 23.9-16.2-18 52.2 6.2z"/><path fill="#444e2e" d="M11 136h13v3H11z"/><path fill="#a89e95" d="M217 50l10 10-25 25z"/><circle cx="92" cy="83" r="3" fill="#0b0d09"/><path fill="#768692" d="M34.4 59.4l-36.5-2.8 84.7-37.9L-16 45.4z"/><path fill="#545d45" d="M-1.3 97.9l24.8-2.7 1.8 17-24.8 2.6z"/><path fill="#b9c2af" d="M26 106l11 1-1-7z"/><path fill="#d5cbb9" d="M78.5 55.6l-15.9-4.4-6.2 39.2-1.2-18.2z"/><path fill="#323317" d="M-2 128l-14-12 52 2z"/><path fill="#c0c6c1" d="M212 84h20v5h-20z"/><path fill="#596c7e" d="M236.5 33.9l-12 27.7 32.8-18.1-88.2-.7z"/><path fill="#4a5456" d="M211 109h45v4h-45z"/><path fill="#4b5e6a" d="M91.1 89.3l-21.4 5.5-22.1-15.1-18.9 19.8z"/><path fill="#2e4458" d="M154 73h9v10h-9z"/><path fill="#a99e8f" d="M153.6 124.1l-.6-22.4 15.1 3.7-48.3 21.6z"/><path fill="#bcb2a0" d="M127.1 156.4l-2.7 26.2 11.7-31.9 44.6 2.4z"/><path fill="#b1a598" d="M229.9 52L174 49.6l-13.4 31.8 32.8-23.5z"/><path fill="#768085" d="M90.2 57.8L68.8 70.7l32.3-41.9L108 61z"/><path fill="#9d9390" d="M124.1 87.4l10.8 2.6-9.3 9.6-3.2 1.4z"/><ellipse cx="2" cy="168" fill="#ad9572" rx="60" ry="5"/><circle r="1" fill="#d1cbba" transform="matrix(-2.83969 2.5453 -8.69168 -9.69695 5.4 62)"/><path fill="#585747" d="M99.2 117.8l.2 1-14.6 3.4-.2-1z"/><path fill="#5a6b7b" d="M133 39l5 24-18-9z"/><path fill="#dacbab" d="M22 147h15v16H22z"/><path fill="#c4bfaf" d="M-87 164.9l183.5-45.7.4 2-183.4 45.6z"/><circle r="1" fill="#aeaa9f" transform="matrix(20.12925 -3.88534 .65075 3.37144 3 86)"/><path fill="#70685b" d="M197.4 145.1l87.3 10.8v1L197.2 146z"/><circle r="1" fill="#bbaea3" transform="matrix(-3.63591 .20033 -.87333 -15.8506 142.4 63.6)"/><path fill="#bdb4a8" d="M92.7 65.7l20-15.7 18.8 15.7L50 75.1z"/><path fill="#6d5b57" d="M212 96.2l-37.6-10.4-60 19.4 50.3-10.6z"/><circle cx="80" cy="118" r="10" fill="#b5afa1"/><path fill="#566267" d="M-6 85.2L-9.4 78 6 70.8 9.4 78z"/><path fill="#6a7b9f" d="M116.7 86.1l-3.8-2.8-16 8.9 8.2-.6z"/><path fill="#93846b" d="M75.2 131.9L33.6 143l-.8-2.9L74.4 129z"/><circle r="1" fill="#161d25" transform="rotate(-40.9 243 -222.6) scale(7.43051 10.84794)"/><path fill="#48657a" d="M266 103h-38l23-7z"/><ellipse cx="187" cy="1" fill="#6d849d" rx="116" ry="16"/><path fill="#606d78" d="M40 59h5v7h-5z"/><path fill="#6e7e8c" d="M181.6 56.5L95.9 23.9-16 49.5l93.6-6z"/></g></g></svg>