<svg xmlns="http://www.w3.org/2000/svg" viewBox="0 0 4752 3168"><defs/><filter id="a"><feGaussianBlur stdDeviation="12"/></filter><rect width="100%" height="100%" fill="#54382d"/><g filter="url(#a)"><g fill-opacity=".5" transform="translate(9.3 9.3) scale(18.5625)"><circle r="1" fill="#f4f1da" transform="rotate(115.5 38.3 70.6) scale(176.01274 141.02144)"/><ellipse cx="81" cy="33" fill="#c6c8dd" rx="85" ry="34"/><circle r="1" fill="#997737" transform="rotate(115.4 38.9 103.7) scale(135.18105 39.98588)"/><circle r="1" fill="#b76e30" transform="matrix(-20.15845 -9.96293 15.07584 -30.50365 65.1 64.4)"/><circle r="1" fill="#a3c1eb" transform="matrix(21.03343 -28.0139 16.41091 12.32166 223.2 116.7)"/><path fill="#0c0013" d="M194.2-4.9l-21 73-11.4-3.2 21-73z"/><circle r="1" fill="#b3bef0" transform="rotate(-110.7 40.4 29) scale(39.34453 12.71062)"/><circle r="1" fill="#7b7e75" transform="matrix(-54.02955 -30.48746 28.85056 -51.12866 249.8 30.2)"/><circle r="1" fill="#987251" transform="matrix(16.17657 8.10062 -51.625 103.09273 249.5 151.5)"/><path fill="#764733" d="M-33.3 137.3l35.9-33.5 30.7 33-35.9 33.4z"/><circle r="1" fill="#c2d2f2" transform="matrix(-37.51436 -25.97617 9.37157 -13.53427 102.4 30)"/><path fill="#bcc9c3" d="M239.2 47.8l-6.8 14.5-51.6-24 6.8-14.6z"/><circle r="1" fill="#c99c56" transform="matrix(8.34406 48.81475 -38.14934 6.52099 117 114.4)"/><circle r="1" fill="#551d00" transform="matrix(-2.89881 6.39342 -14.06282 -6.37616 62.7 94.2)"/><circle r="1" fill="#59546a" transform="matrix(-1.09239 2.24969 -44.54616 -21.63046 135.3 22.5)"/><circle r="1" fill="#dbd2c4" transform="matrix(20.06405 42.63827 -5.83553 2.746 70.2 137.4)"/><path fill="#593028" d="M79 135l16 1 8 49z"/><path fill="#becef3" d="M15 42L56 2l28 29z"/><path fill="#6b6145" d="M271 62V19l-70 6z"/><circle r="1" fill="#8b6e44" transform="rotate(-177.9 81 78.3) scale(24.25621 50.3164)"/><path fill="#cbcbc4" d="M97 39l66 6-92 45z"/><circle r="1" fill="#4f3332" transform="matrix(-49.45914 -20.98365 1.43147 -3.37403 255 77.9)"/><path fill="#c3cacb" d="M195.9 93.6l45-3-32.3-14.4-4.4-8.6z"/><circle r="1" fill="#a9bbdb" transform="matrix(-19.41917 30.35512 -7.15186 -4.57528 19.1 166.2)"/><path fill="#a3b3c9" d="M194.9 162.1l39.9-75 20.3 10.8-39.9 75z"/><circle cx="59" cy="58" r="23" fill="#c38f5d"/><path fill="#574f56" d="M-53.7 16.8L-56.2-1 55.7-16.8 58.2 1z"/><circle r="1" fill="#c0cebb" transform="matrix(3.5168 -5.07333 27.2421 18.884 143 9)"/><circle r="1" fill="#c2b5a6" transform="matrix(-5.2475 -11.07145 26.4501 -12.53648 82.4 110.4)"/><ellipse cx="174" cy="93" fill="#b5954d" rx="27" ry="29"/><circle r="1" fill="#808289" transform="rotate(142.5 63 109.9) scale(35.80131 16.38174)"/><path fill="#ada189" d="M167.4 75.3l17.4-26.8 21.8 14.2-17.4 26.8z"/><ellipse cx="52" cy="155" fill="#9e7c5d" rx="15" ry="29"/><ellipse cy="52" fill="#968897" rx="15" ry="43"/><circle r="1" fill="#aaa3a7" transform="matrix(6.63753 -10.18194 18.70072 12.19085 145.4 43.8)"/><path fill="#b9c7e7" d="M23 35h15v46H23z"/><circle r="1" fill="#b68054" transform="matrix(15.4294 -2.36103 1.6976 11.0939 78.6 45.3)"/><circle r="1" fill="#ad833b" transform="matrix(6.68146 27.83028 -25.16265 6.04102 157.7 116.4)"/><path fill="#74725a" d="M109-16l65 33 6-20z"/><path fill="#b3b9ab" d="M92.5-6.9l74.2 43.4 5.8-19.4-14-8.1z"/><path fill="#c4d7fc" d="M93 24h17v33H93z"/><path fill="#aaa1b6" d="M20 114l57 1L8 63z"/><circle r="1" fill="#988082" transform="matrix(-21.07451 -24.58805 11.25822 -9.64947 21.4 110.4)"/><path fill="#7f5e49" d="M221 165l41-21 6-68z"/><path fill="#a87a4a" d="M78.3 123.5l22 38.6-5-28.3 35.5-26.5z"/><circle r="1" fill="#ae8f66" transform="rotate(-126.8 73 8.9) scale(3.59909 35.56107)"/><path fill="#d6c8ae" d="M69.9 90l16.2 3-8.9-14.4L66 82.8z"/><path fill="#5d514b" d="M184.7 44.7l-13.2 24-13.1 3.2 12.8-54.8z"/><path fill="#605758" d="M87 185h45l42-39z"/><ellipse cx="115" cy="139" fill="#c3a368" rx="23" ry="18"/><ellipse cx="255" cy="61" fill="#a9b4a7" rx="22" ry="8"/><circle cx="54" cy="57" r="19" fill="#bf956e"/><circle cx="213" cy="129" r="24" fill="#a3aab6"/><circle r="1" fill="#99947a" transform="matrix(17.54047 29.54151 -22.22458 13.196 223.2 1)"/><path fill="#5d5544" d="M247.9 52.8l4.4-37.9L241 38.7l-21.6-4.2z"/><path fill="#cfc2a9" d="M70.5 167.6L89.1 185l-11.4-44.2-21.3-38.7z"/><circle r="1" fill="#b7afa4" transform="rotate(72.7 -81 122.1) scale(16.72715 4.57426)"/><path fill="#623416" d="M68 85l3 15-28-16z"/><path fill="#452f24" d="M178 6l22-22-25 69z"/><path fill="#96726d" d="M199.2 54.5L262 87.8l-5.1 9.7L194 64.2z"/><path fill="#66585f" d="M230.8 65.4L135 18.1l24.5 18.6L201.1 57z"/><path fill="#894730" d="M58 50.8l5 .4-1 16-5-.4z"/><path fill="#a5a591" d="M247 45l5-22 19-13z"/><path fill="#714934" d="M109.4 185h-7l-21.7-53.4 5.8-5.7z"/><path fill="#d5b994" d="M76 40L43 57l14-17z"/><path fill="#a07553" d="M125 96l-11-29 46-8z"/><path fill="#cfc9bc" d="M204.6 69.8l11.5 12.4-3.9 6-12 8.9z"/><circle r="1" fill="#6a4e33" transform="matrix(11.8323 33.7391 -.94365 .33094 70 169)"/><path fill="#c0a56b" d="M155 69l-42 35 73-33z"/><path fill="#88784e" d="M197 72h5v34h-5z"/><path fill="#cbb390" d="M75 106l16 16 21-47z"/><path fill="#959189" d="M193.2 111.1l23-.5 5-7.3-6.5-17.7z"/><circle r="1" fill="#afb2c8" transform="rotate(36.8 -34.2 57.7) scale(11.49668 32.59104)"/><path fill="#938e94" d="M75.4 97l9.7 51.6L69.6 125l-1.7-1.3z"/><circle r="1" fill="#423c4e" transform="matrix(5.54946 -1.04735 .3739 1.98111 90.5 86.7)"/><path fill="#90776c" d="M16 143.1l23.8-10-47.7-35.8 9.3-37.7z"/><path fill="#becbe9" d="M25.9 51.8l8.3 9.3 5.3-32.8 31.1-.4z"/><path fill="#7d5736" d="M-11.6 149.3L1.2 138l14.4 16.6L2.8 166z"/><path fill="#a6adba" d="M0 171l31 14 9-55z"/><path fill="#807b8d" d="M57.4-16l.3 10.9 53.9 16.4-10.5-4.4z"/><path fill="#bdcae6" d="M112.4 15.5l8.6 45.7-10.8-9.4-25.9 14.4z"/><path fill="#977546" d="M70 78h10l14-17z"/><circle r="1" fill="#554133" transform="matrix(-5.36867 -2.4536 11.83858 -25.90382 174.3 42)"/><path fill="#878165" d="M127.9-13.5l2.7 1-10.5 26-2.7-1z"/><ellipse cx="239" cy="2" fill="#a09f8b" rx="45" ry="7"/><path fill="#543a29" d="M218.6 62l.5-.8 50.3 26.7-.5 1z"/><circle r="1" fill="#b8bbcd" transform="matrix(-3.27782 2.58198 -17.32547 -21.99467 43.6 96)"/><path fill="#826552" d="M235.3 142l18.6-39.8 20.8 9.7-18.6 39.9z"/><path fill="#ab7a46" d="M127.9 148.9l-23.1 32.6-6.3-53.2 17.2 44.2z"/><path fill="#93632b" d="M141 124l24-7 8 16z"/><path fill="#9f887f" d="M230 70.9l-22.7-11.2-28.7-13.8 1 14.6z"/><path fill="#abb3ad" d="M181.2 42l4-12.4 25.6 8.4-4 12.4z"/><path fill="#9a9784" d="M243 48l-33-17 25 29z"/><path fill="#a5b1c2" d="M218.3 80.9l-1.2 94.9 10.7-22.9 25.5-52.2z"/><path fill="#4d4633" d="M263.7-7.6L241.2 48l-.9-.4L262.8-8z"/><path fill="#a59b9f" d="M7.4 65.7L-9.3 12.1l20.7-2.8 16.8-4.5z"/><path fill="#9d7538" d="M156.2 94.7l-56 31-2.4-4.4 56-31z"/><path fill="#bd8f5f" d="M83 123l2-24-12-11z"/><circle r="1" fill="#e2f1f3" transform="rotate(159.7 55.2 38.9) scale(9.54227 2.61884)"/><path fill="#ab9ea6" d="M37.3 120.7l-7.4-2-24-36.3 56 26.6z"/></g></g></svg>