<svg xmlns="http://www.w3.org/2000/svg" viewBox="0 0 3835 2557"><defs/><filter id="a"><feGaussianBlur stdDeviation="12"/></filter><rect width="100%" height="100%" fill="#334454"/><g filter="url(#a)"><g fill-opacity=".5" transform="translate(7.5 7.5) scale(14.98047)"><circle r="1" fill="#96bee0" transform="matrix(253.46004 27.98225 -9.56877 86.6728 143 65.7)"/><circle r="1" fill="#fff8ee" transform="matrix(1.02524 -10.26523 140.26774 14.0092 176.8 72.9)"/><circle r="1" fill="#001938" transform="matrix(.07764 -11.09444 221.6195 1.55088 120 30.8)"/><circle r="1" fill="#8a530f" transform="matrix(-180.31535 -11.853 2.13244 -32.43995 88.7 169)"/><ellipse cx="143" cy="7" fill="#7dd7ff" rx="255" ry="10"/><ellipse cx="29" cy="47" fill="#fff" rx="71" ry="6"/><circle r="1" fill="#afb8c3" transform="matrix(-8.59207 -21.71128 42.40358 -16.78088 234.5 65.9)"/><ellipse cx="77" cy="101" fill="#486285" rx="101" ry="33"/><circle r="1" fill="#768391" transform="matrix(86.07555 16.9318 -2.39237 12.16201 212.9 151.7)"/><path fill="#fff" d="M77.9 55.4l-.9 12-38.9-2.8.9-12z"/><path fill="#153c51" d="M189.4 47.8L166 15l-47.8.7-43 12.4z"/><circle r="1" fill="#180000" transform="matrix(1.0425 10.26317 -8.79921 .8938 87.4 128.7)"/><ellipse cx="149" cy="64" fill="#f3f8f7" rx="75" ry="5"/><circle r="1" fill="#7e93a4" transform="matrix(44.44567 9.3314 -2.5428 12.11138 9.1 123.2)"/><path fill="#46678e" d="M177 73h30v52h-30z"/><ellipse cy="67" fill="#454b5b" rx="43" ry="16"/><ellipse cx="164" cy="80" fill="#f1eee0" rx="29" ry="4"/><path fill="#334462" d="M135 73h60v4h-60z"/><path fill="#133e59" d="M223 51l-77-31h118z"/><path fill="#fff" d="M5.4 40.2l43.4 5.3-25.9 7-38.9-1.6z"/><path fill="#4e688d" d="M219.4 77.1l51.6 8.2-77.3 57.8L271 66.2z"/><ellipse cx="213" cy="5" fill="#73b7f1" rx="75" ry="16"/><path fill="#d1c9c5" d="M81 138h10v16H81z"/><ellipse cx="186" cy="69" fill="#fff" rx="29" ry="3"/><ellipse cx="42" cy="169" fill="#4d2f0d" rx="159" ry="12"/><circle r="1" fill="#485059" transform="matrix(.25328 -1.95012 43.77807 5.68578 91 54.7)"/><ellipse cx="255" cy="107" fill="#35557d" rx="179" ry="6"/><ellipse cx="26" cy="12" fill="#6face4" rx="108" ry="8"/><path fill="#fffffb" d="M53.6 50.7l-11.8 3.8 4 6.7 73.8 6.3z"/><path fill="#eff4ee" d="M222.2 90.9l-3.3 4.1-12.3-13.3 57.4-.3z"/><path fill="#a1afbc" d="M232 39h24v33h-24z"/><path fill="#252228" d="M0 72h52v5H0z"/><ellipse cx="147" cy="20" fill="#202d38" rx="18" ry="6"/><path fill="#eae2cd" d="M94 77h57v2H94z"/><path fill="#271c18" d="M96 152l-14-25 8-21z"/><ellipse cx="246" cy="145" fill="#707e8e" rx="44" ry="23"/><ellipse cx="208" cy="59" fill="#95a6bd" rx="73" ry="8"/><ellipse cx="43" cy="67" fill="#75859e" rx="52" ry="3"/><path fill="#6b4a19" d="M0 137h82v23H0z"/><ellipse cx="116" cy="25" fill="#0f3c5c" rx="255" ry="5"/><ellipse cx="255" cy="115" fill="#4e7097" rx="75" ry="20"/><path fill="#475e75" d="M132 37h102v15H132z"/><ellipse cx="138" cy="130" fill="#59738d" rx="46" ry="19"/><path fill="#211300" d="M109.6 157.5l3.1-6.3 26.8 1.6-12.9 6.1z"/><path fill="#6fabda" d="M64.5 19.7l43.7 2 .6-37.7-114 35z"/><path fill="#6e7e7f" d="M31 62l-2.7-4.3L63 36l2.6 4.3z"/><path fill="#6e89a1" d="M80 132.5l-45.7 4.8-2.3-21.8 45.7-4.8z"/><ellipse cx="68" cy="46" fill="#fff" rx="13" ry="2"/><path fill="#5c6163" d="M166.4 157.9l35.9-11L101 134.1l92.9 27.1z"/><path fill="#3d3f4c" d="M38 76h53v4H38z"/><path fill="#5d6574" d="M265 75l-22 4-16-10z"/><path fill="#545c6a" d="M128.7 59l31.2-.3-40.2-10.4-57.1 7.3z"/><ellipse cx="73" cy="107" fill="#3c465a" rx="86" ry="2"/><ellipse cx="23" cy="54" fill="#474f55" rx="19" ry="3"/><path fill="#738193" d="M122 70h42v7h-42z"/><path fill="#f9ffff" d="M-1.8 48.7l28.6-5.1L71.5 66 43.1 47.3z"/><path fill="#5d544c" d="M81 79h62v3H81z"/><path fill="#7fa3c8" d="M185 92h71v4h-71z"/><path fill="#715322" d="M131.2 149.6l78.1 12.8-85.6 22.6 10.4-9.2z"/><ellipse cx="158" cy="66" fill="#f8fbf3" rx="68" ry="2"/><path fill="#a15d21" d="M87 120l1-14-5 3z"/><path fill="#69aadd" d="M165 12h91v9h-91z"/><path fill="#899baa" d="M218 131l13 25-53-17z"/><circle r="1" fill="#e7eeeb" transform="rotate(2.7 -1447 4357.7) scale(45.74749 1)"/><ellipse cx="67" cy="95" fill="#5279a1" rx="142" ry="10"/><path fill="#fefffd" d="M203 80l34-1-16 7z"/><path fill="#3a4244" d="M108 16h54v6h-54z"/><path fill="#4c7792" d="M20 38h66v5H20z"/><path fill="#485973" d="M163 74h31v4h-31z"/><path fill="#97642b" d="M108 153l-23-3-12 11z"/><path fill="#8298a5" d="M76.8 43.9L94.9 40l71.3 10.6-78.3-3.4z"/><path fill="#5a646e" d="M212.7 76.8l-8.5 10.1-6.3 1.9-6.8-5.1z"/><path fill="#6783a0" d="M28.1 101.7L-16 133.4l33.1-2 18 10.8z"/><path fill="#946620" d="M-16 138v-15l37 13z"/><ellipse cx="117" cy="34" fill="#23516e" rx="232" ry="5"/><path fill="#cdb7b7" d="M80 117h13v2H80z"/><path fill="#bbbcb5" d="M85 75l.1-1 33.9 3-.1 1z"/><path fill="#d5d2c2" d="M228.8 165l-.8 1.8-12.8-5.7.8-1.9z"/><path fill="#e9f6ef" d="M90.4 50.4l-48.8-8.7 30.1 3.8 32.1 2.4z"/><path fill="#110806" d="M98 166h25v4H98z"/><path fill="#505860" d="M237 157l10-5-27-10z"/><ellipse cx="187" cy="116" fill="#567a9e" rx="98" ry="9"/><path fill="#d0dbc8" d="M236 38v10l21-10z"/><path fill="#eef7f4" d="M82 141l-1 8 4-9z"/><path fill="#574d3d" d="M97.4 150l2.4-14.7 16.8 2.6-2.4 14.8z"/><ellipse cx="22" cy="89" fill="#517398" rx="155" ry="11"/><path fill="#6e8aac" d="M153 46h85v3h-85z"/><ellipse cx="222" cy="60" fill="#d6e7f5" rx="27" ry="1"/><path fill="#997539" d="M255 168l-21 9-27-15z"/><circle r="1" fill="#feffff" transform="matrix(.0959 -1.98897 20.38393 .98273 196.3 70.5)"/><circle r="1" fill="#402b13" transform="matrix(-23.307 2.17696 -.26786 -2.8678 52 148)"/><path fill="#edf5f6" d="M143 76h15v4h-15z"/><ellipse cx="236" cy="102" fill="#3a5982" rx="47" ry="4"/><path fill="#8092ac" d="M13 67h49v4H13z"/><path fill="#758c93" d="M58 52l21-1-32-7z"/><path fill="#f6fffa" d="M44 50l46 15-48-2z"/><path fill="#536582" d="M212 51.8l-37.8 9.4-.2-1 37.8-9.4z"/><ellipse cx="109" cy="162" fill="#81612e" rx="34" ry="2"/><ellipse cx="200" cy="41" fill="#3b515c" rx="39" ry="4"/><path fill="#ecf4f0" d="M271 87.5l-56.6-2 15.1-5.2-38 .1z"/></g></g></svg>