<svg xmlns="http://www.w3.org/2000/svg" viewBox="0 0 1800 1200"><defs/><filter id="a"><feGaussianBlur stdDeviation="12"/></filter><rect width="100%" height="100%" fill="#3b4d6c"/><g filter="url(#a)"><g fill-opacity=".5" transform="translate(3.5 3.5) scale(7.03125)"><circle r="1" fill="#fff" transform="rotate(91.8 38.4 92.8) scale(70.18946 254.55253)"/><circle r="1" fill="#cbd5de" transform="matrix(8.00637 60.3808 -108.56937 14.39607 48.7 56.6)"/><circle r="1" fill="#677481" transform="matrix(-.89966 -27.12003 107.43343 -3.56393 35.4 144.3)"/><circle r="1" fill="#5180b5" transform="matrix(149.54817 60.72521 -9.1537 22.54287 202.7 0)"/><path fill="#9aaec4" d="M135 22h121v106H135z"/><circle r="1" fill="#d5d6d8" transform="matrix(1.36219 -20.73272 85.71014 5.63136 27.6 37.9)"/><path fill="#daba91" d="M0 124h209v3H0z"/><path fill="#493b17" d="M0 118h92v6H0z"/><ellipse cx="134" fill="#6689b5" rx="235" ry="7"/><path fill="#bcc1ca" d="M301.5 74.1L143.3 90.7 140.5 64l158.2-16.6z"/><path fill="#a6b2c3" d="M147.8 113.6L60 121.2l-3.9-44.8 87.7-7.6z"/><ellipse cx="234" cy="43" fill="#7595bb" rx="65" ry="10"/><path fill="#455d79" d="M76 127h133v38H76z"/><path fill="#aab3bf" d="M42.5 117l-19.3 5.7-39.2-22.2 123.5-32z"/><path fill="#889bb4" d="M190.3 90.2l90 1.6-.6 34-90-1.6z"/><circle r="1" fill="#567ba6" transform="matrix(-.05571 -14.23501 48.17399 -.18854 241.7 0)"/><path fill="#d5cec4" d="M74.1 117.9l-2.1-.2.1-13.2-15.8 17.8z"/><path fill="#8aa3c1" d="M245 44L165 3l-17 59z"/><ellipse cx="73" cy="95" fill="#787c85" rx="2" ry="22"/><circle r="1" fill="#555c69" transform="rotate(-39.7 243.8 -110.7) scale(3.25802 15.37621)"/><path fill="#a3b2c9" d="M165 12l5 34L71-3z"/><ellipse cx="65" cy="125" fill="#dfd4c9" rx="84" ry="1"/><ellipse cx="55" cy="132" fill="#637a99" rx="113" ry="2"/><path fill="#fffced" d="M69 82h3v27h-3z"/><path fill="#554b46" d="M26 126h69v2H26z"/><path fill="#262713" d="M36 119h19v5H36z"/><path fill="#a0b1c8" d="M-15.6-7.8l57.3-9 3.9 24.6-57.3 9z"/><path fill="#4f6482" d="M-16 134l29 51 153-33z"/><path fill="#4f5568" d="M92 119.8l-20-.6v-3l20 .6z"/><ellipse cx="182" cy="142" fill="#304865" rx="56" ry="8"/><ellipse cx="136" cy="123" fill="#7e6a4c" rx="69" ry="1"/><circle r="1" fill="#a7b4c4" transform="matrix(-9.2455 -8.56084 20.69729 -22.3526 111.5 98.6)"/><path fill="#bdc2ca" d="M8.8 115.8L-5.9 56.9l92.5-8.7-97.8 73.1z"/><circle cx="113" cy="122" r="3" fill="#ffd87c"/><circle r="1" fill="#9baabe" transform="matrix(6.23509 21.45364 -58.50843 17.00435 195.5 97.5)"/><ellipse cx="125" cy="127" fill="#554739" rx="54" ry="1"/><circle r="1" fill="#ccd1d7" transform="matrix(25.04734 .49084 -.27131 13.8451 48.7 21.4)"/><circle r="1" fill="#745e46" transform="matrix(2.14567 .3839 -.66173 3.6985 119 121.4)"/><ellipse cx="192" cy="63" fill="#c3c6ca" rx="45" ry="4"/><path fill="#4a4521" d="M56 116h6v3h-6z"/><path fill="#74859e" d="M24 152h51v2H24z"/><path fill="#adb7c4" d="M0 79h67v38H0z"/><path fill="#1c2518" d="M70 122h22v2H70z"/><path fill="#c0c2c6" d="M222 52h34v11h-34z"/><circle r="1" fill="#415774" transform="matrix(3.40611 -6.11846 30.35113 16.89628 13.5 143)"/><path fill="#9e958d" d="M129.8 124.2l23.8 5 45.9-7.2-60.3 2z"/><circle r="1" fill="#293b56" transform="matrix(-.0349 .9994 -23.96408 -.83684 114.3 156.6)"/><path fill="#cdc5b7" d="M193 124h25v3h-25z"/><path fill="#bec5cf" d="M77.6 29.7L42.4 61l103.1-10.4 3.8-21.6z"/><ellipse cx="140" cy="91" fill="#a2b1c4" rx="21" ry="33"/><ellipse cx="145" cy="136" fill="#435978" rx="35" ry="9"/><path fill="#362e19" d="M16 120h10v3H16z"/><path fill="#677895" d="M97 149h35v5H97z"/><circle r="1" fill="#838d98" transform="matrix(.13576 -1.24833 56.32664 6.12563 224.2 124.6)"/><path fill="#829cbc" d="M214 30l-79 27 85-5z"/><path fill="#3c3a1a" d="M54.4 122.2l-3.4-2 2.6-4.4 3.4 2z"/><path fill="#22364d" d="M96 173.2l-42.3-7.4.2-1 42.4 7.4z"/><path fill="#1b3041" d="M97 167h34v2H97z"/><path fill="#ece8de" d="M69 109l-5 12 10-9z"/><path fill="#8a9db6" d="M271 124l-83-5 79-38z"/><path fill="#20394d" d="M211.7 165.7l-16.4 3.1 41-.7-15.6-3z"/><ellipse cx="4" cy="27" fill="#a1b2c6" rx="10" ry="5"/><circle r="1" fill="#2b4465" transform="matrix(.0628 .99803 -17.53218 1.10303 34.6 137.5)"/><path fill="#455f7c" d="M227.8 146.3l-118.7 28.3L213.8 154l57.2 7.4z"/><path fill="#243951" d="M147 146h34v4h-34z"/><path fill="#9c856d" d="M181 127h69v1h-69z"/><path fill="#7c95b5" d="M249 12l22 38h-43z"/><ellipse cx="78" cy="7" fill="#99adc7" rx="89" ry="2"/><path fill="#3f3d23" d="M37 117h6v2h-6z"/><ellipse cx="73" cy="64" fill="#bac2cc" rx="52" ry="14"/><ellipse cx="57" cy="122" fill="#424335" rx="37" ry="2"/><path fill="#40546b" d="M271 185l-40.4-57.8-13.4-2.4 14.9.9z"/><path fill="#3b4e6a" d="M27 155h33v5H27z"/><path fill="#a4b2c2" d="M184.7 78L75.4 94.7l18.5 27.6 17.2-1.4z"/><path fill="#535b6a" d="M70 117h20v5H70z"/><ellipse cx="109" cy="162" fill="#5e6f89" rx="23" ry="3"/><path fill="#a1adbf" d="M241 19l-14 25-8-11z"/><path fill="#687891" d="M53 164l-13-7-3 12z"/><path fill="#c6ccd5" d="M48 13h70v4H48z"/><ellipse cx="91" cy="126" fill="#8e7f74" rx="75" ry="1"/><path fill="#1b3347" d="M199 170.3l-.1 1-41.9-3.6.1-1z"/><path fill="#b1b9c5" d="M17 77h21v42H17z"/><path fill="#859dbc" d="M143.7 29L246 22.8 141.4.8l32.4 13.5z"/><path fill="#9e958a" d="M5 119h3v3H5z"/><path fill="#a7b4c7" d="M120.5 44.1l64.3-1.5L123.7 13l49-6.8z"/><ellipse cx="31" cy="146" fill="#364a66" rx="20" ry="2"/><ellipse cx="247" cy="125" fill="#344b6c" rx="22" ry="1"/><path fill="#c3c1bf" d="M65.2 98.7l10.7 17.7-21 5.8 18.9-11.7z"/><path fill="#7b736c" d="M0 126h26v2H0z"/><path fill="#687892" d="M58 151h20v6H58z"/><path fill="#1b2e3e" d="M244 159h12v2h-12z"/><path fill="#d7c8a8" d="M91 118l4 4 8-4z"/><path fill="#3d4651" d="M22 126h27v3H22z"/><ellipse cx="38" cy="123" fill="#494839" rx="60" ry="1"/><path fill="#7694b9" d="M131.2 6.8l97.2 6-121.6-22 .8 14.5z"/><path fill="#13263b" d="M137 153h10v2h-10z"/><path fill="#496080" d="M155.9 144.4l5.3 10.9 38.2 3.4-45.7 8.5z"/><path fill="#9ea9b8" d="M227 127h24v1h-24z"/><path fill="#95a6ba" d="M185.7 123.8l-66.2-1.5 71.4-15.4 74.6-27.8z"/><path fill="#566983" d="M4.8 159.5l23.1-13.9 11.3 18.9-23.1 13.9z"/></g></g></svg>