<svg xmlns="http://www.w3.org/2000/svg" viewBox="0 0 1000 667"><defs/><filter id="a"><feGaussianBlur stdDeviation="12"/></filter><rect width="100%" height="100%" fill="#565134"/><g filter="url(#a)"><g fill-opacity=".5" transform="translate(2 2) scale(3.90625)"><circle r="1" fill="#f3ffff" transform="matrix(-1.38402 -40.66072 246.37777 -8.38627 134.5 0)"/><circle r="1" fill="#f8ffff" transform="matrix(-1.66906 21.20744 -249.80191 -19.65984 203.5 -.1)"/><circle cx="114" cy="141" r="119" fill="#353e4f"/><circle r="1" fill="#737474" transform="matrix(-19.98917 39.74404 -57.24371 -28.79059 32.6 64)"/><ellipse cx="148" cy="106" fill="#13151d" rx="55" ry="37"/><ellipse cx="237" cy="45" fill="#6c7c94" rx="91" ry="18"/><circle r="1" fill="#b1d3ff" transform="matrix(.80808 17.13529 -45.54727 2.14795 67.6 4.8)"/><path fill="#787d88" d="M193 123h58v32h-58z"/><ellipse cx="139" cy="16" fill="#000010" rx="40" ry="2"/><path fill="#fbfeff" d="M183.8 23l2.8-32 91.6 8-2.8 32z"/><circle r="1" fill="#445160" transform="matrix(-21.33923 15.59137 -30.0063 -41.06832 234.1 66.7)"/><path fill="#bdc6cd" d="M212.2 25.6l-28.4-5.1 11.4 21.2-95-10.8z"/><path fill="#252d1f" d="M58 65h19v46H58z"/><path fill="#2c3551" d="M153.8 22.8l34.5-1.1-19.8-5.4-13.2 23.4z"/><path fill="#7f8370" d="M79.9 86.4l26.6 37.4 22.8 20.2-49.6-35.3z"/><path fill="#373749" d="M94 16.8h9l-4 72.9-15.3-62.6z"/><ellipse cx="115" cy="41" fill="#797f7d" rx="236" ry="6"/><ellipse cx="199" cy="93" fill="#2a2e35" rx="35" ry="33"/><path fill="#3d3d1e" d="M119 131.3l1 63-141 2.4-1-63z"/><ellipse cx="130" cy="27" fill="#110b1c" rx="30" ry="3"/><circle r="1" fill="#666850" transform="matrix(-30.85945 -11.47653 8.11158 -21.81139 28.2 110)"/><path fill="#f9ffff" d="M162 24h15v13h-15z"/><path fill="#d3ebff" d="M110 18h41v6h-41z"/><path fill="#41454e" d="M189 26l82 90-19 62z"/><path fill="#1f1a24" d="M178 19h3v95h-3z"/><path fill="#c4dbfe" d="M190 20.1L157.9 13 42.1 15.2 204.9-16z"/><path fill="#92a3ba" d="M26 20h61v14H26z"/><path fill="#736c71" d="M0 8h29v71H0z"/><circle r="1" fill="#181a1f" transform="rotate(136.8 36.2 85.2) scale(21.55757 27.50761)"/><path fill="#87987a" d="M87 63h5v68h-5z"/><circle r="1" fill="#67726f" transform="rotate(60.5 72.6 225.6) scale(31.14353 14.54091)"/><path fill="#89939a" d="M208.3 145.7l12.5-15.7-14.6-5.8-15.2 30z"/><path fill="#030a16" d="M86 79l13-1 8 35z"/><path fill="#e9f0f7" d="M193.8 30.8L170.2 3.7l12-10.5 23.6 27.1z"/><path fill="#93919b" d="M64.6 51.5l-34.2-1.7L1.8 2l3.7-18z"/><circle r="1" fill="#b2caf2" transform="rotate(-165.9 24 -1.3) scale(42.62325 10.04432)"/><circle cx="145" cy="34" r="7" fill="#bacac8"/><path fill="#646a62" d="M181.3 66l-18.9 13.1-4.5-30-4.8-24.3z"/><circle r="1" fill="#918489" transform="rotate(-48 189 -54.4) scale(1 36.28175)"/><path fill="#393c45" d="M92 47h68v42H92z"/><path fill="#0d0e0c" d="M134 143l40-15-64-3z"/><path fill="#221f23" d="M86 29h5v25h-5z"/><path fill="#51533d" d="M179.4 171.2l32.4 13.8-43.9-80-5.3.3z"/><path fill="#626864" d="M168.6 13.5L271 76.7l-47.5-52.4-33 6.5z"/><path fill="#212436" d="M166 17h15v2h-15z"/><ellipse cx="155" cy="20" fill="#dffcff" rx="11" ry="2"/><circle r="1" fill="#5a5831" transform="matrix(-12.61622 -22.20857 11.19737 -6.361 55.1 124.5)"/><path fill="#607f79" d="M111 47l21 10-16 4z"/><circle r="1" fill="#e9eaea" transform="matrix(-19.21455 18.33962 -5.52122 -5.78462 252.6 14)"/><path fill="#888284" d="M82.2 31.9l9.5 45-5.9 1.2-9.5-45z"/><path fill="#1d1d22" d="M157 76l1-36-23 44z"/><circle r="1" fill="#2f3036" transform="matrix(13.87423 23.18214 -21.17926 12.67553 195 86)"/><path fill="#f6ffff" d="M169 23h9v13h-9z"/><circle r="1" fill="#2e2b2b" transform="matrix(-15.98626 21.01755 -14.84014 -11.28762 9.8 157.5)"/><path fill="#959b9a" d="M161 34h16v18h-16z"/><path fill="#37323c" d="M98.8 57.2l-3.5-40.9-9.9 14.2 6.8-3.7z"/><path fill="#555935" d="M85 137h27v33H85z"/><path fill="#b4c9e4" d="M44.6 33.5l17.7-17.3 98-13.8L45.9-12.5z"/><path fill="#797878" d="M239.3 131.8l13.1 29.9-1.5-27-67.6 18z"/><path fill="#5d5952" d="M127 151l59-4-51 27z"/><path fill="#909d97" d="M118.7 39.7l-20.5-6.5 17.4-1.7 28.7 1.8z"/><path fill="#303425" d="M69 110h15v44H69z"/><path fill="#90a273" d="M94 95.8l-1.4 11.5 7.4 13.6-19.3-18.1z"/><path fill="#343446" d="M142.7 30.8l-.3-1 36.9-12.6.3 1z"/><path fill="#453f43" d="M204 152h43v18h-43z"/><path fill="#4b4e4b" d="M253 136.5l-37.3-14.3 7.2-18.7 37.4 14.3z"/><path fill="#6c6c67" d="M85 43.7l-53.2.8L-16 14.3l36.6 51.1z"/><path fill="#a4b4c1" d="M98 20h36v5H98z"/><circle cx="185" cy="31" r="4" fill="#fcffff"/><ellipse cx="134" cy="126" fill="#464942" rx="13" ry="3"/><path fill="#0c030b" d="M253 138h3v18h-3z"/><circle cx="90" cy="125" r="4" fill="#4e7ec6"/><path fill="#e1e8ef" d="M196-7.7l11.1 32.2-15.1 5.2-11.1-32.2z"/><circle r="1" fill="#606d76" transform="matrix(-16.68786 1.36927 -1.62485 -19.8027 249.4 50.1)"/><path fill="#988272" d="M88.3 87.2l-5-.4 11.3-18.6L82.2 55z"/><path fill="#53585c" d="M156 28l-5 22 14 7z"/><path fill="#8e989e" d="M85.1 29.2L31.8 42.5l-3-11.7 53.4-13.3z"/><path fill="#1c1819" d="M90 48l-2 10 23 12z"/><path fill="#494347" d="M122 112.1L93.1 21l33.1 65.5-3.7 23.2z"/><path fill="#101e28" d="M163 90.8l2.6 15.8-28.7 4.6-2.5-15.8z"/><ellipse cx="150" cy="24" fill="#3f4a66" rx="14" ry="1"/><path fill="#50554d" d="M192.6 64.8l20.2-35.1 2 4.6-7.2-12.4z"/><ellipse cx="123" cy="57" fill="#262a2f" rx="1" ry="32"/><path fill="#34352c" d="M78 64l7 4-15 26-7-4z"/><circle cx="161" cy="169" r="9" fill="#28211d"/><path fill="#14181e" d="M92 119l27 19-16 2z"/><path fill="#646768" d="M5.4 121.5l45.2 11-60.4-27.6 28.1 3.1z"/><path fill="#37304b" d="M193.2 33.6l-.8.6-11.6-13.8.8-.6z"/><circle cx="79" cy="99" r="3" fill="#d5ac93"/><path fill="#d1e2f7" d="M127 19h29v5h-29z"/><path fill="#55582f" d="M101.5 130.2l-4.6.8 12 18.3-50.5-21.1z"/><path fill="#434044" d="M129.9 83.6l33.4 6.1 89.5-18.3-71.2 5.6z"/><path fill="#646e72" d="M28.4 52.3l38.5-20.1-11.1-10.9 30.6 37.9z"/><circle cx="84" cy="98" r="3" fill="#15230c"/><path fill="#26282e" d="M178.8 88.5l.6-52.7 7.4 40.5-79.4 45z"/><path fill="#b4c8e3" d="M29.6-16l58.7 42.2L110.4-16l6.8 21.9z"/><path fill="#78858f" d="M190 50.7l10.9-13.2-19 .4 2.7 20.2z"/><path fill="#818593" d="M29 96l20-5-6 6z"/><path fill="#dae4ec" d="M175 21l4 18-19-11z"/><path fill="#080e13" d="M96 100h12v15H96z"/></g></g></svg>