<svg xmlns="http://www.w3.org/2000/svg" viewBox="0 0 4752 3168"><defs/><filter id="a"><feGaussianBlur stdDeviation="12"/></filter><rect width="100%" height="100%" fill="#5e4032"/><g filter="url(#a)"><g fill-opacity=".5" transform="translate(9.3 9.3) scale(18.5625)"><circle r="1" fill="#ecfff3" transform="rotate(-155.6 90.8 24.1) scale(101.62716 212.27404)"/><circle r="1" fill="#fffee4" transform="rotate(26.9 -153.6 141) scale(78.86498 19.20847)"/><circle r="1" fill="#84742e" transform="matrix(44.87587 16.33348 -25.50839 70.08371 156.3 58.6)"/><circle r="1" fill="#e2f2ff" transform="matrix(29.35032 -40.43898 58.28615 42.30366 98.5 169)"/><circle r="1" fill="#fffad2" transform="matrix(16.56516 -12.96154 25.61302 32.73407 14.5 0)"/><ellipse cx="255" cy="59" fill="#6d3b25" rx="24" ry="63"/><path fill="#212442" d="M41.9 35.8l74 33-7.8 17.4-74-33z"/><circle r="1" fill="#ffffcf" transform="matrix(-14.7296 39.6067 -12.97171 -4.82414 97.8 16.6)"/><circle r="1" fill="#748cbc" transform="rotate(-156.2 128.2 54.5) scale(72.68038 45.61772)"/><path fill="#3a2612" d="M152 2l-38 67h44z"/><circle r="1" fill="#d5e7ff" transform="rotate(-113.3 139 -23.7) scale(29.13825 15.93921)"/><path fill="#513120" d="M23-16L40.2 98.4l-2.7 56.5 17.1-68.7z"/><path fill="#fff" d="M5 107h16v12H5z"/><path fill="#ffffec" d="M23.7-.7L21.2 23l-22.9-2.4L.8-3z"/><circle cx="80" cy="109" r="33" fill="#dfe2e7"/><path fill="#ffeab4" d="M-16 42l49 16-16 33z"/><circle r="1" fill="#a4978f" transform="matrix(24.08094 -36.97476 5.16012 3.36069 18.6 157.9)"/><path fill="#001a2d" d="M18.5 112.2l16.3 16.3-35.3 35.3-16.3-16.3z"/><path fill="#6b513e" d="M40 1h39v68H40z"/><path fill="#e9dff3" d="M245.4 21.7l-15.9-36.8-21.4 24.8L166.4-16z"/><path fill="#080d17" d="M208 111l-32-2 15-9z"/><circle r="1" fill="#aea591" transform="matrix(23.2486 -3.27618 3.74362 26.56566 121.8 102.1)"/><circle r="1" fill="#c4cdda" transform="matrix(94.53503 50.26517 -10.6703 20.06792 138.3 159.9)"/><path fill="#d5c5c9" d="M243.8 51.3l-34.7-4.8 3.1-21.8 34.7 4.8z"/><circle r="1" fill="#e3bb6f" transform="rotate(114.1 49.6 49.3) scale(38.12118 13.24434)"/><path fill="#6b4428" d="M215 61l37 20 19 71z"/><path fill="#a7aeb7" d="M78.9 55.8l-49.4-22 1.6-3.6 49.4 22z"/><circle r="1" fill="#a9a76c" transform="rotate(99.6 69.3 101) scale(61.89693 26.72131)"/><path fill="#d6def1" d="M58.3 195l-29.8-8.6L47.7 119l29.8 8.5z"/><path fill="#c5d2ea" d="M195.2 83.7l15.9-22.5 19.1 29.3 40.8 62.3z"/><circle r="1" fill="#253857" transform="rotate(-154.7 8.9 16.3) scale(55.67268 11.56958)"/><path fill="#604732" d="M58 65L31 95l3 71z"/><path fill="#54403d" d="M197 18h59v7h-59z"/><circle r="1" fill="#5b5b64" transform="matrix(1.43301 16.5048 -20.67902 1.79543 238.7 161.3)"/><path fill="#261e24" d="M99 80l49-47 8 16z"/><path fill="#071f2f" d="M31.6 109.4L2.8 165.5l42.9-58.3L-16 84.4z"/><path fill="#e9f0f9" d="M43 133l17-67 37 16z"/><circle r="1" fill="#9b7a43" transform="matrix(-10.97117 -3.99318 7.32871 -20.13547 137.1 27.8)"/><path fill="#949fb9" d="M259 142.8l-18.4-40.3-25.8-6.4-29.5 43.3z"/><circle r="1" fill="#fff4d7" transform="rotate(19.4 4.5 277) scale(7.16333 30.60265)"/><path fill="#e3ecf7" d="M225 82l-36 16 23-41z"/><path fill="#5e6271" d="M124.9 128.5l34.3-6L194 94.6l-34.8 43.2z"/><path fill="#423b48" d="M76 50l63 26-89-10z"/><circle r="1" fill="#512811" transform="matrix(-6.40786 -30.46877 3.65774 -.76926 26.8 0)"/><circle r="1" fill="#eeba86" transform="matrix(5.96872 22.49426 -7.58389 2.01234 31 78)"/><path fill="#cad9c6" d="M4.4 118.4l3.9-14.5 20.7 8.9 6.9-1.6z"/><path fill="#5f3819" d="M76 49l8-54-35 41z"/><circle r="1" fill="#a48470" transform="matrix(19.9436 -18.5957 8.50336 9.11973 237.7 52)"/><path fill="#c88d59" d="M48.4 40.9L37.1-11.2l-3.2 46 18.2 2.3z"/><path fill="#5b352a" d="M250.4 29.1l20.6 2.4L221.1-16l43.4 3.3z"/><path fill="#fcdcb9" d="M22-4.3l-38 15.1 40.8 18.5 2.5.5z"/><path fill="#9b877d" d="M48.5 111l-4.1 17.4-47.1 51.8 51.5-76.6z"/><circle r="1" fill="#ac7b54" transform="matrix(-1.86672 3.2189 -30.78012 -17.85008 18.4 88)"/><path fill="#91824a" d="M167.3 35.5L182.7 54l-46 38.6L121.3 74z"/><path fill="#3d1f0f" d="M34 50.5l3.9-.9 10.2 48-4 .8z"/><path fill="#33251b" d="M153 30.5L147.8-16 141.2.4l14.1-4.3z"/><path fill="#d48f4e" d="M53.6 90l-4 1-7.2-29 4-1z"/><path fill="#83664c" d="M223 12l-27 5-1 19z"/><path fill="#a3a9a4" d="M96.7 62l-.4.9-115-48.9.4-.9z"/><path fill="#7b8eb6" d="M134 66l-24 11 2 12z"/><path fill="#f9cba6" d="M3 102l-19 47 4-73z"/><path fill="#ab9c8c" d="M18 154.9l-7.8 2.6-26.2 22.3 7.5 5.2z"/><path fill="#cecfdf" d="M236.8 19l10.1-6.2-22-17.7-2.6 22.3z"/><path fill="#afbac6" d="M160 184l35-24-100-49z"/><path fill="#9c7237" d="M129.6-1.2l24 4.1-34.8-13.5-2.6 30.6z"/><path fill="#db5416" d="M223.7 16.8l-.7.7-14.7-16.3.7-.7z"/><circle r="1" fill="#937056" transform="matrix(-4.45074 5.36094 -28.35133 -23.53773 240.8 80.1)"/><path fill="#f5cfaf" d="M28.1 88.7l5.1-23.9L13 50l-29-3.6z"/><ellipse cx="53" cy="70" fill="#774f35" rx="4" ry="15"/><path fill="#382d27" d="M119 53.1l27.3 9.7 8.1-22.8-2.5-1.7z"/><ellipse cx="183" cy="19" fill="#a4aa7c" rx="11" ry="47"/><path fill="#9fa9be" d="M207.6 87.4l-24.7 11.1 71.9 27.7-46.7 1.2z"/><path fill="#fbecc8" d="M81 24l-4 24 22 8z"/><path fill="#0f1415" d="M-16 139.6l51.2-28.7 10-2.1-9.7 15.1z"/><path fill="#262330" d="M-1.4 45.8l-3.9-20.2 27.1 7.2L29 54.2z"/><circle r="1" fill="#f0f7ed" transform="matrix(-2.93872 4.01525 -2.65759 -1.94506 8 114)"/><path fill="#acbed9" d="M51 56h7v3h-7z"/><path fill="#d7c08a" d="M145.5-16l-8.7 21.3-9.5 20.2-39.1 33.2z"/><path fill="#ced2d6" d="M26 185L77 76l52 71z"/><path fill="#404650" d="M188.3 102.2l19.4 5.2 1.4 6.5-21.4-5.6z"/><path fill="#958b54" d="M181.8 41.1l-15.6-25-65.4 39.3 49.1-17.7z"/><path fill="#cdbbd1" d="M216 13l-10 1-12-25z"/><path fill="#57462e" d="M166 60l-15 1-10 14z"/><path fill="#e3ebf2" d="M60 66l19 10-32 45z"/><path fill="#798198" d="M213 170l-16-23 74-14z"/><path fill="#494146" d="M63.6 69.9l65.7-3.5-92.4-19.8 66.7 34z"/><path fill="#564132" d="M242.5 97l10.5 31.3 18 3-11.2-21.7z"/><path fill="#c2b9bc" d="M204.8 21.1l7.8 12.8 24.9 11.9 4.5-17.3z"/><circle r="1" fill="#222d34" transform="matrix(-10.65577 7.79884 -10.73345 -14.6654 7 135.7)"/><path fill="#b4a668" d="M212 48l-35 63 15-85z"/><ellipse cx="35" cy="148" fill="#482717" rx="3" ry="7"/><path fill="#5f371c" d="M71 28h7v23h-7z"/><path fill="#3f312b" d="M19.5 110L-16 86l7.5-1 9.2-9z"/><path fill="#dbe5ed" d="M218 70l-10-12-10 38z"/><circle r="1" fill="#a49665" transform="rotate(-127.2 105.3 8.5) scale(20.44124 33.20916)"/><path fill="#b9ae8c" d="M100.9 81.2l36.5 30.8-24.1 10.2v7.2z"/><path fill="#bbc5d6" d="M50 151h118v19H50z"/><path fill="#c6a663" d="M104 43h17v16h-17z"/><ellipse cx="243" cy="23" fill="#524846" rx="17" ry="4"/><path fill="#816539" d="M143.2-8.5L126.4 38l17.7-11.4 1.6 62.6z"/></g></g></svg>