<svg xmlns="http://www.w3.org/2000/svg" viewBox="0 0 1800 1200"><defs/><filter id="a"><feGaussianBlur stdDeviation="12"/></filter><rect width="100%" height="100%" fill="#304457"/><g filter="url(#a)"><g fill-opacity=".5" transform="translate(3.5 3.5) scale(7.03125)"><circle r="1" fill="#888783" transform="matrix(-145.15209 -9.37573 3.71307 -57.48462 120.7 99.5)"/><path fill="#dfd3c4" d="M86 185l-5-69 42 2z"/><ellipse cx="161" cy="128" fill="#f3f3e7" rx="33" ry="7"/><ellipse cx="149" cy="149" fill="#fffaf2" rx="56" ry="3"/><ellipse cx="155" cy="166" fill="#020100" rx="58" ry="13"/><circle r="1" fill="#415f86" transform="matrix(-128.45654 .4484 -.1473 -42.19695 43.9 49)"/><circle r="1" fill="#3e464f" transform="matrix(81.50935 2.98881 -1.80067 49.10693 229 83.7)"/><ellipse cx="111" cy="139" fill="#060301" rx="32" ry="4"/><path fill="#fffff3" d="M118.8-49.5h1l-2.6 145h-1z"/><circle r="1" fill="#132e38" transform="matrix(-20.46322 -15.24595 7.54105 -10.12165 41.8 98.3)"/><ellipse cx="53" cy="133" fill="#8f857b" rx="33" ry="18"/><path fill="#0e0213" d="M108 134l26-33-17 3z"/><path fill="#364752" d="M60.5 3.9l90.2 99.3 41.1-90.5-32.9 124.8z"/><path fill="#eae5da" d="M67.7 121.8l85.4 8.9-21.5-19.1-4.5 19.9z"/><circle r="1" fill="#2f231a" transform="matrix(17.77658 -3.42624 11.12082 57.6988 0 150)"/><path fill="#719da5" d="M86 80.5l-19 27-23-16 19-27z"/><path fill="#8fa9b0" d="M96.8 144.5l42.6-74.2 39.4-5.4-55.7 28.2z"/><circle r="1" fill="#e4e1d8" transform="matrix(-12.26995 1.73673 -1.5061 -10.6406 96 127.1)"/><path fill="#343c3a" d="M101.3 104.6l13.4-49.8-48.5 52 23.2 11.3z"/><circle r="1" fill="#463c2c" transform="matrix(-45.26344 11.95912 -7.86032 -29.75013 233.5 168.7)"/><path fill="#e9e6e0" d="M88 151h11v19H88z"/><path fill="#222122" d="M241 77h15v40h-15z"/><path fill="#809ea8" d="M107.4 116.1l15.9-14.2-4.3-30-15 19.8z"/><circle r="1" fill="#567594" transform="matrix(-51.95925 -15.42542 5.99326 -20.1878 14.6 57.6)"/><ellipse cx="252" cy="11" fill="#132345" rx="27" ry="49"/><path fill="#8e8d89" d="M213.6 35.2l-.5 55.4-22.3 7.2 27.8 18.9z"/><ellipse cx="135" cy="150" fill="#c5c6c3" rx="49" ry="3"/><path fill="#3c3b39" d="M129 148l8-20-49 14z"/><path fill="#232c1e" d="M69 67h44v8H69z"/><circle r="1" fill="#584c42" transform="matrix(-5.51622 25.08923 -35.77626 -7.86592 49.6 169)"/><path fill="#2c0b18" d="M120.6 111.4l6.1-14.4 3.6-16.7-3.4 59.8z"/><circle r="1" fill="#ccc4b8" transform="matrix(7.55432 -.94837 .59906 4.77185 202.4 144.9)"/><path fill="#b2c0c6" d="M67 85h10v17H67z"/><path fill="#e7e1d8" d="M162 124h31v10h-31z"/><path fill="#ded5cc" d="M118 0h2v72h-2z"/><path fill="#b7ad98" d="M224 4h2v59h-2z"/><path fill="#d5d2c8" d="M124.3 127.1L112 140.5l7-21.7 1.2-1.6z"/><path fill="#cdc9bf" d="M94.5 129.6l-16.8-4.7-8.6-16 .4-.4z"/><circle r="1" fill="#2e4774" transform="matrix(55.61397 19.39802 -8.68585 24.90225 53.6 23.1)"/><path fill="#6e6964" d="M240.4 125.2l-23.2-22.5L271 128l-68.5 33.4z"/><path fill="#152637" d="M110.9 124.8l3.8 1.3-5.6 17-3.8-1.2z"/><circle r="1" fill="#3e454d" transform="rotate(127.6 6.4 86) scale(4.22084 12.78159)"/><circle r="1" fill="#273d5a" transform="rotate(155.2 86.1 32.9) scale(26.04636 62.68638)"/><path fill="#2a303b" d="M3 127h32v7H3z"/><circle r="1" fill="#4f8279" transform="matrix(-1.68888 .46326 -14.46342 -52.72807 179.8 45.2)"/><path fill="#263a43" d="M23 68l-7 29 21-37z"/><ellipse cx="107" cy="146" fill="#76726b" rx="19" ry="4"/><path fill="#1a2532" d="M34.8 116.8l33.3-6.2-30.2-18 20-9.9z"/><circle r="1" fill="#858075" transform="rotate(87.7 37 146.2) scale(20.46439 4.62625)"/><path fill="#a9a59d" d="M14 122h56v5H14z"/><circle r="1" fill="#483d30" transform="rotate(-167.2 118 50.8) scale(23.41842 6.22872)"/><path fill="#081408" d="M122.2 164.7l11.7-10.4 73.7 16-93.2 9.4z"/><path fill="#878079" d="M85.8 138l2 47-12.4-55.5-4.1 51.5z"/><path fill="#8e999f" d="M83 89l27 9-7-10z"/><path fill="#1b2b30" d="M170.3 79.6l-12.7 25.5-5-26-.1 55.1z"/><path fill="#a9acb3" d="M140 11h2v23h-2z"/><path fill="#a3a6a6" d="M145.6 96h-1l-4.2-80h1z"/><path fill="#a3a5a5" d="M57 132h11v16H57z"/><path fill="#25292c" d="M249.1 139.2l21.9 40-39 5.8 10-54.9z"/><path fill="#bdbbb2" d="M160 118l-34 5 11-8z"/><circle r="1" fill="#75808c" transform="matrix(1.1961 -.00737 .56642 91.88446 213.3 9.6)"/><path fill="#292c22" d="M165 153l33-2-8 22z"/><circle r="1" fill="#727c8a" transform="matrix(-5.84818 28.88541 -11.83026 -2.39517 7.6 80.3)"/><path fill="#8d8a87" d="M5.8 140.7l44.4-7.6L37 145.3l-20.1-1.6z"/><path fill="#94adb2" d="M116 89l-12-14 19 7z"/><path fill="#766b5d" d="M146.7 133.9l91.9.2-3.5 2.1-113.9 14z"/><path fill="#24395d" d="M124 0h17v55h-17z"/><path fill="#e8e6dd" d="M116 123h8v10h-8z"/><path fill="#40403f" d="M136 145l-14-22 35 20z"/><ellipse cx="77" cy="99" fill="#cbcac6" rx="8" ry="2"/><path fill="#a2aeb6" d="M121 100.8l-9.3-9.6 16.6 4.8-12.4 14.8z"/><circle cx="201" cy="82" r="13" fill="#4b423c"/><path fill="#5d909f" d="M91.2 76.2L40 79.7 27.7 60.5l25.7 10.4z"/><path fill="#212128" d="M75 100h24v8H75z"/><circle cx="191" cy="5" r="20" fill="#192849"/><ellipse cx="191" cy="120" fill="#2a2214" rx="6" ry="5"/><circle r="1" fill="#3e5a83" transform="matrix(-2.97256 14.68914 -67.02763 -13.564 17.7 40.9)"/><path fill="#51727f" d="M50 74h18v31H50z"/><circle r="1" fill="#273b5f" transform="matrix(-5.78991 18.93794 -36.31098 -11.10138 76.4 6.5)"/><path fill="#bcb0a6" d="M147.9 106.7l-18.2-8.5.4-.9 18.2 8.5z"/><path fill="#73858f" d="M125 60.3l23 10.9 31-8.9-44.4 26.9z"/><path fill="#171817" d="M-11 155.1l23.6-8.1L25 182.9 1.4 191z"/><ellipse cx="32" cy="22" fill="#5f727c" rx="2" ry="88"/><path fill="#2e3f5a" d="M146 61l-4-51 17 38z"/><path fill="#6c737e" d="M234.3 56.3l-2.4-1.2L220 21l16.8 64.1z"/><path fill="#543e41" d="M154.3 127.4l-31.2-37.1 37.4-10.7-38.8 23.6z"/><ellipse cx="207" cy="134" fill="#c0bdab" rx="9" ry="2"/><ellipse cx="111" cy="65" fill="#161a16" rx="5" ry="7"/><circle cx="204" cy="98" r="3" fill="#dee0db"/><path fill="#e4e0d4" d="M129 113h6v14h-6z"/><path fill="#bab4ab" d="M21 110.4l-2.9-11.6 4.9-1.2 2.9 11.6z"/><path fill="#c6c1b9" d="M33 140l7-13 1 13z"/><path fill="#b1b2aa" d="M251 120h5v9h-5z"/><path fill="#86868d" d="M222.3 147.2l8.9-5.3 6.4-.7 1.7 5z"/><ellipse cx="118" cy="166" fill="#182421" rx="21" ry="12"/><path fill="#3e4042" d="M54 185l1-63-18 63z"/><path fill="#2a404e" d="M127.3 90.3l7.3-32.5-16.2 35.9 53.5-14.9z"/><path fill="#e8e5de" d="M111 118l-3 12-17-3z"/><path fill="#554e45" d="M0 114h49v7H0z"/><path fill="#0e2634" d="M124 108l-12 5-1 15z"/></g></g></svg>