<svg xmlns="http://www.w3.org/2000/svg" viewBox="0 0 1200 1800"><defs/><filter id="a"><feGaussianBlur stdDeviation="12"/></filter><rect width="100%" height="100%" fill="#3e4046"/><g filter="url(#a)"><g fill-opacity=".5" transform="translate(3.5 3.5) scale(7.03125)"><circle cx="75" cy="118" r="169" fill="#f6e9db"/><circle r="1" fill="#000f20" transform="rotate(-75.6 199.5 82.3) scale(110.60517 24.93039)"/><ellipse cx="8" cy="130" fill="#fcfffb" rx="26" ry="76"/><ellipse cx="111" cy="82" fill="#fdfffc" rx="29" ry="25"/><path fill="#473740" d="M93 132h77v31H93z"/><path fill="#542e1b" d="M67.6 153l4.5-11.9L-16 152v12.6z"/><path fill="#734026" d="M45.1 110.9l36.6 12.8 2.8-43.9-31-16.2z"/><ellipse cx="26" cy="26" fill="#b8b4aa" rx="124" ry="47"/><path fill="#303d4e" d="M25 264l48-81 41 73z"/><path fill="#c5deff" d="M105 164h45v23h-45z"/><circle r="1" fill="#383c3e" transform="rotate(176.4 23.3 77.9) scale(9.50359 26.56203)"/><path fill="#292524" d="M147.5 151l30.1 38.5-7 5.6-30.2-38.6z"/><circle r="1" fill="#c5d0d3" transform="matrix(54.90608 -103.91298 7.36964 3.89401 67 172.4)"/><circle r="1" fill="#efffff" transform="matrix(19.30672 8.0281 -10.72904 25.80218 11.4 107.8)"/><circle r="1" fill="#5e595c" transform="rotate(50.4 -259.6 151) scale(49.19187 17.04369)"/><path fill="#4d281d" d="M185.3 107.2l-33.5 49.7-9.1-6.1 33.5-49.7z"/><circle r="1" fill="#8b7261" transform="matrix(17.22185 -10.49983 19.93532 32.69797 124.2 236.5)"/><path fill="#e5e8e1" d="M152 72h18v28h-18z"/><circle cx="66" cy="78" r="11" fill="#2e2017"/><circle r="1" fill="#98654a" transform="rotate(108.1 59.5 77) scale(38.50263 7.13755)"/><path fill="#0024e8" d="M127 186h18v8h-18z"/><path fill="#9db6c2" d="M143 156l-33-29-7 20z"/><circle r="1" fill="#c4c4bd" transform="rotate(31.1 -63.4 244) scale(12.30645 59.99634)"/><path fill="#7f6452" d="M183 121l-2 129-29-27z"/><circle cx="151" cy="235" r="7" fill="#feffff"/><path fill="#cfcec3" d="M28 73h17v57H28z"/><path fill="#c29279" d="M54 95h22v46H54z"/><path fill="#fff" d="M94.3 128.1l8.4-15.2 31.2-16 2.4-31.5z"/><path fill="#92000d" d="M129.3 143l4.5-12.2 16.9 6.2-4.5 12.2z"/><path fill="#d9d6de" d="M19.8 237.9l-14 15.6 8.6-2.2 11.7 14.1z"/><path fill="#c1cdd3" d="M124.9 201.4l23.2 16.2.2-50.6 15.3 24.5z"/><path fill="#3f413a" d="M75 178l30-61-1 37z"/><circle r="1" fill="#efecd6" transform="matrix(21.52902 -29.0948 11.9087 8.81197 0 194)"/><path d="M37.8 266l-2.5-21 8.9-1 2.5 20.8z"/><path fill="#e7eeec" d="M78 69l28.3 3.1 1-6.9-18 43.2z"/><circle r="1" fill="#9a9591" transform="rotate(127.8 37.8 47.6) scale(25.25749 21.89046)"/><path fill="#ffd7a2" d="M19.7 142.9l3.6-3.5 23 23.7-3.6 3.5z"/><path fill="#6e6a5e" d="M27 220l-1-46-34 97z"/><path fill="#404446" d="M36 148.1l-4.7-5 22.6-21.2 4.8 5z"/><path fill="#b58b6e" d="M160 83l-36 54-26-19z"/><path fill="#aeaaa2" d="M155.9 70.3L36.5 68.7l-46.6 19.9L.7 20.3z"/><path fill="#503525" d="M85.4 98.3L84.1 111l-6.7 20.2-6.3-21.3z"/><circle cx="169" cy="249" r="9" fill="#ffe5b8"/><circle r="1" fill="#b6b7b3" transform="matrix(43.90286 -28.17799 2.4778 3.86056 150.5 111.9)"/><path fill="#44342b" d="M41 197l12-15-2-13z"/><path fill="#c0c2bd" d="M128.4 26.8l14.4 7-59.2 121.4-14.4-7z"/><circle r="1" fill="#3f2e24" transform="rotate(-11.4 1259.6 -369.1) scale(5.63718 32.19291)"/><path fill="#436280" d="M79.7 266.5l-22-50.6-15.1 27.8 52.5-22.2z"/><path fill="#404c51" d="M77 133l-30 52 6-29z"/><path fill="#826256" d="M177 75l-36-65 21 4z"/><path fill="#bed4ac" d="M185 148v-17l-32 21z"/><path fill="#623b2e" d="M5 152h26v7H5z"/><path fill="#825c3c" d="M46 84h8v38h-8z"/><path fill="#f5b47d" d="M145.2 196.7l-19.3-3.2-1.7 13.5 24.4-11.3z"/><path fill="#735843" d="M149.9 219.1l2.1 6.7-21.9 7-2.1-6.6z"/><path fill="#1b2e41" d="M6.5 251.5l10.4-12.9-5.7-.8-11.9 9.8z"/><path fill="#b08668" d="M138 51h13v57h-13z"/><path fill="#fff" d="M-8 149l34-5-13-7z"/><path fill="#b79887" d="M76.3 139.3L48.7 96.8l37.4-21.6-28.7 24.6z"/><circle r="1" fill="#5e809d" transform="matrix(-6.5375 .68863 -1.11826 -10.61618 47.8 241)"/><circle r="1" fill="#c79e84" transform="matrix(-5.02232 -1.28802 7.65081 -29.83254 37.5 194.5)"/><path fill="#aeb9d3" d="M104 162h24v31h-24z"/><path fill="#68665b" d="M88 210l-16-29-19 34z"/><path fill="#c5ced4" d="M41.9 235.5l-17 3.9 10.5-22.3 25.4-47.8z"/><ellipse cx="13" cy="134" fill="#475161" rx="39" ry="1"/><path fill="#a79989" d="M30 173.4l-36.5 55.9 52.7-36.2-3.2-34.9z"/><circle cy="195" r="9" fill="#a8a38d"/><path fill="#b2aea6" d="M46.5 87.1L62 57.2l5.4-49.5-83.4 60z"/><circle cx="169" cy="120" r="6" fill="#57000b"/><path fill="#faf8eb" d="M12 194L0 174l36-12z"/><path fill="#53514b" d="M107.9 184.8L76 215l4.9-53.5 16-25.4z"/><path fill="#7d8794" d="M116 193.7l5.8 5.4-19.8 21.2-5.8-5.4z"/><path fill="#c5c5bf" d="M152 23L133 8l-15 80z"/><circle r="1" fill="#ff4550" transform="matrix(-1.37476 4.99053 -5.76598 -1.58837 0 157.7)"/><ellipse cx="18" cy="251" fill="#bab6b7" rx="5" ry="24"/><path fill="#a09caa" d="M170 161l-5 14-8-21z"/><path fill="#e8f5fc" d="M152 71h10v11h-10z"/><path fill="#5a4a43" d="M85.6 113.3l-18.9 38 18.1-53.1-12 5.2z"/><path fill="#ffbc56" d="M36.1 152.6l-.7 2.9-17.5-4 .7-3z"/><path fill="#16273b" d="M59 231h12v25H59z"/><path fill="#192e4e" d="M127.4 165l-15.9-10.7-7.1 1.7 12.3 5z"/><path fill="#806d5c" d="M185 146l-32-6 4-18z"/><path fill="#927f6a" d="M180.1 271l-41.8-40-.4-21.6L91.6 271z"/><path fill="#918d88" d="M90 36l44-24-21 43z"/><path fill="#aebbd2" d="M154 208l6-24-26-20z"/><circle r="1" fill="#c5bfb5" transform="rotate(-175.2 76.9 57.4) scale(7.75598 10.53628)"/><path fill="#a9b4ba" d="M10 159h29v8H10z"/><path fill="#d9be9f" d="M42 106h7v21h-7z"/><path fill="#e6f0fd" d="M29.2 94.4l-27.6 5-2.8-15.8 27.6-5z"/><path fill="#b4b3ad" d="M111 106l-26 7 46-74z"/><path fill="#384246" d="M108 140h5v20h-5z"/><path fill="#3d464a" d="M157.6 182.3l.9-18.1-26-2.5 15.9-22.5z"/><path fill="#dce3e4" d="M164 235l-11 9-10-11z"/><path fill="#969894" d="M171.5 24l8 6-27 36-8-6z"/><path fill="#b8bec0" d="M71.8 179.2L120 86.4l-40.4 39-35.8 75.7z"/><path fill="#949fa4" d="M14.3 135.1l29 22.1-6.4-6.4 1.5-19.4z"/><ellipse cx="65" cy="3" fill="#a19b92" rx="100" ry="15"/><path fill="#756f68" d="M14.9 239.3L4.2 257l24.5-44.3 10.8-59.9z"/><path fill="#b4cae5" d="M23.3 133.4l-2.4-16.8 13.8-2 2.4 16.8z"/><path fill="#d2c0ba" d="M142.6 187.5l-18.1-21 2.9 37.4-11.3-16.7z"/></g></g></svg>