<svg xmlns="http://www.w3.org/2000/svg" viewBox="0 0 1800 1200"><defs/><filter id="a"><feGaussianBlur stdDeviation="12"/></filter><rect width="100%" height="100%" fill="#374253"/><g filter="url(#a)"><g fill-opacity=".5" transform="translate(3.5 3.5) scale(7.03125)"><circle r="1" fill="#eaf0f7" transform="matrix(-1.08815 89.6951 -254.98124 -3.09336 137.6 22.8)"/><path fill="#8fa2b0" d="M-3 80.3l69 2.4-1 31-69-2.4z"/><circle r="1" fill="#4b5c66" transform="matrix(-122.45 4.93075 -2.12143 -52.6834 99.6 157.7)"/><ellipse cx="230" cy="96" fill="#7f8b9a" rx="150" ry="17"/><circle r="1" fill="#a1a7b1" transform="matrix(121.53806 -20.56146 10.6113 62.72308 119.6 0)"/><ellipse cx="130" cy="113" fill="#363534" rx="67" ry="4"/><ellipse cx="18" cy="94" fill="#8293a5" rx="106" ry="16"/><ellipse cx="39" cy="169" fill="#536274" rx="115" ry="19"/><path fill="#848e9e" d="M184 62h72v50h-72z"/><path fill="#4b3f34" d="M105 114l-30-6 54-4z"/><ellipse cx="174" cy="111" fill="#927756" rx="25" ry="3"/><circle r="1" fill="#344453" transform="matrix(-22.14155 -31.38766 15.17823 -10.70706 189.3 144.1)"/><ellipse cx="20" cy="99" fill="#7f91a3" rx="72" ry="11"/><path fill="#c1a88b" d="M125 106h61v4h-61z"/><path fill="#394857" d="M74 126l28-26-9 47z"/><ellipse cx="108" cy="1" fill="#a2a6af" rx="77" ry="33"/><path fill="#42515c" d="M9.3 108.8l-15.1 17.5L2 184.4l28.4-73.1z"/><path fill="#6c7a8e" d="M154 166h35v3h-35z"/><path fill="#3b4b5a" d="M131.6 107l-15.3 16.9L100 175l126.4-45z"/><circle r="1" fill="#4d5c6c" transform="matrix(52.95695 15.18516 -1.91376 6.67409 74.6 147.3)"/><path fill="#b7a487" d="M37 112.5l28-2v1l-28 2z"/><path fill="#1b2c34" d="M193 164h30v6h-30z"/><ellipse cx="59" cy="60" fill="#919aa9" rx="169" ry="29"/><path fill="#445462" d="M220 142l-41 14 92 21z"/><ellipse cx="255" cy="102" fill="#7a8a9e" rx="80" ry="9"/><circle cy="91" r="22" fill="#8594a1"/><path fill="#2e404a" d="M268 185l3-57.6-31.6-16.7-15.1.5z"/><path fill="#586677" d="M30.1 151.1l-16.8-9.4-19.8 18.5 64-6.6z"/><path fill="#021013" d="M10 163l-20-5 7 6z"/><path fill="#918b84" d="M114.4 104.2l50.5 8.7-58.7-14.4-6 13.1z"/><path fill="#323739" d="M13 117l20-8-25 2z"/><ellipse cx="116" cy="112" fill="#2e2e34" rx="33" ry="2"/><path fill="#1c2c34" d="M31 142.2l19.4.3-14.6 8.2 15.9-1.4z"/><path fill="#394652" d="M162.6 108.4l-8.8.6 13.9 20.6-19.2 22.1z"/><path fill="#605238" d="M33 109h46v2H33z"/><path fill="#18272f" d="M152 148h51v2h-51z"/><path fill="#313f4c" d="M62 160l-20 6h39z"/><circle cx="181" cy="107" r="2" fill="#fffff7"/><path fill="#7d91a1" d="M0 96h95v12H0z"/><path fill="#39444f" d="M140 124l-16-3 23-17z"/><path fill="#3e4f61" d="M64 114h69v21H64z"/><path fill="#5d4533" d="M98.2 102.7l-.1 5.6-1.2 2.1 7.2-7.7z"/><path fill="#435161" d="M180 123l31 15-62 12z"/><path fill="#8593a5" d="M61.9 90.6l61.9 17.5L241 81.6l-87.9-4.2z"/><ellipse cx="229" cy="140" fill="#283944" rx="23" ry="4"/><path fill="#d9d3c0" d="M172 108.1l12-.2v2l-12 .2z"/><path fill="#717d8e" d="M88 157h17v3H88z"/><path fill="#617081" d="M96 168l-20-5 31-1z"/><path fill="#848d9b" d="M245 35h11v78h-11z"/><path fill="#e2ceb5" d="M153.6 110.3l-2.5 1.6-2.7-4.2 2.5-1.6z"/><circle r="1" fill="#786a5a" transform="matrix(2.33168 1.97032 -3.73697 4.42235 118.7 108.8)"/><path fill="#313a41" d="M119.6 105.2l-11.1 10.6-16.8-3-1.5.9z"/><path fill="#505e70" d="M140 154h32v6h-32z"/><path fill="#697787" d="M16 166h12v4H16z"/><ellipse cx="135" cy="162" fill="#2e3d4a" rx="65" ry="1"/><path fill="#a99179" d="M159.8 107l8-.9.4 5-8 .8z"/><path fill="#283642" d="M203 150h14v5h-14z"/><path fill="#677586" d="M41 168h26v2H41z"/><path fill="#c09a72" d="M106.1 109.3l-5.7-1.8 1.5-4.8 5.7 1.8z"/><path fill="#616e80" d="M193.5 157.8v-1l25 1.4v1z"/><ellipse cx="174" cy="114" fill="#2e4150" rx="129" ry="2"/><path fill="#627081" d="M27 151h29v5H27z"/><path fill="#888378" d="M26 109h22v4H26z"/><path fill="#939292" d="M195 109h31v3h-31z"/><circle r="1" fill="#959ca6" transform="rotate(-33.3 161 -333.3) scale(48.01996 18.26553)"/><path fill="#1e2f39" d="M100 139l-13 1 14 3z"/><path fill="#1b2b34" d="M149 137h30v2h-30z"/><ellipse cx="98" cy="149" fill="#546374" rx="32" ry="2"/><path fill="#253540" d="M230 156h26v4h-26z"/><path fill="#c6b9aa" d="M137 104h4v6h-4z"/><ellipse cx="76" cy="110" fill="#47423d" rx="20" ry="2"/><path fill="#313f4c" d="M117 172l-11.8-2.2 1.9-9.9 11.7 2.3z"/><path fill="#7c8c9e" d="M109 97h80v8h-80z"/><path fill="#4b5b6b" d="M167.7 137l-47.7-5 .3-3 47.7 5z"/><path fill="#5b6a7b" d="M144 158l-9 15 16-12z"/><path fill="#647487" d="M131.5 138.5l-.2 1-12.8-2 .2-1z"/><path fill="#616f81" d="M101 124h17v2h-17z"/><path fill="#37373d" d="M98 103h4v12h-4z"/><ellipse cx="134" cy="111" fill="#362d29" rx="12" ry="2"/><path fill="#afa08b" d="M83.4 107.7l.7-1.9 6.5 2.5-.7 1.9z"/><circle r="1" fill="#8f9ba7" transform="matrix(22.83947 4.2398 -4.96877 26.76635 1.2 33)"/><path fill="#586678" d="M207 148l20-1-16-5z"/><path fill="#33414d" d="M0 146h28v3H0z"/><path fill="#1b2c38" d="M163 159l-8 1 3 5z"/><path fill="#707d8f" d="M164 142h16v1h-16z"/><ellipse cx="125" cy="107" fill="#dbc8b0" rx="3" ry="2"/><ellipse cx="128" cy="157" fill="#313f4d" rx="19" ry="2"/><path fill="#202e38" d="M34 147h21v4H34z"/><path fill="#47463f" d="M73 108l8-2 8 5z"/><path fill="#30404d" d="M90.3 143l-37.1 2.5 8.8-3.4 29.9-.1z"/><ellipse cx="36" cy="124" fill="#3e4e5d" rx="67" ry="10"/><path fill="#5e5a55" d="M232 113.5l-42.3-2.1-22.4-1 22.1 3.9z"/><path fill="#606e7e" d="M18 161h25v3H18z"/><path fill="#21303b" d="M180.6 148.4l15.6-4.3-4.1 5.6-10.7 2.4z"/><ellipse cx="45" cy="157" fill="#233039" rx="11" ry="1"/><path fill="#506171" d="M36 137h47v5H36z"/><path fill="#616f80" d="M220 153h16v2h-16z"/><path fill="#546070" d="M246 160l8 25 17-7z"/><path fill="#2d3d4a" d="M127 144h58v2h-58z"/><path fill="#7c889a" d="M254.5 112.2l-48.7-2.5L271 75.2l-25.6 38.6z"/></g></g></svg>