<svg xmlns="http://www.w3.org/2000/svg" viewBox="0 0 1800 1200"><defs/><filter id="prefix__a"><feGaussianBlur stdDeviation="12"/></filter><rect width="100%" height="100%" fill="#5b4035"/><g filter="url(#prefix__a)"><g transform="translate(3.5 3.5) scale(7.03125)"><circle r="1" fill="#fff" fill-opacity=".5" transform="matrix(-1.19155 -38.22123 238.22645 -7.42671 111.5 30.7)"/><circle r="1" fill="#48758b" fill-opacity=".5" transform="matrix(-238.33026 -5.39657 1.0743 -47.44495 148.8 138.3)"/><circle r="1" fill="#eee3ba" fill-opacity=".5" transform="rotate(169 56.2 17.5) scale(166.86472 39.90808)"/><circle r="1" fill="#bfbeb7" fill-opacity=".5" transform="rotate(-98.5 109.4 .9) scale(16.04652 39.53011)"/><path fill="#000b00" fill-opacity=".5" d="M101 123h100v22H101z"/><ellipse cx="198" cy="79" fill="#224352" fill-opacity=".5" rx="120" ry="17"/><circle r="1" fill="#13241b" fill-opacity=".5" transform="matrix(-1.61997 .49527 -13.55787 -44.3458 198.7 34)"/><path fill="#898b8c" fill-opacity=".5" d="M151.6 99.7l66.1 12.1-85.2 8.4L145.1-.7z"/><path fill="#d8cbae" fill-opacity=".5" d="M211.5 66.5l59.5-8-7.8-22.1-77.5-50.2z"/><path fill="#000100" fill-opacity=".5" d="M70 134h124v8H70z"/><path fill="#a6a499" fill-opacity=".5" d="M118.8 136.6l31.4-56.1-36 34.1-45.6 8.1z"/><ellipse cx="70" cy="79" fill="#394d58" fill-opacity=".5" rx="74" ry="12"/><circle r="1" fill="#e8d9bc" fill-opacity=".5" transform="matrix(-60.2238 -33.62074 21.27596 -38.11097 78.6 0)"/><path fill="#a59f99" fill-opacity=".5" d="M0 46h50v30H0z"/><path fill="#0a1910" fill-opacity=".5" d="M204 113l-34 4 24 32z"/><path fill="#bcc6cb" fill-opacity=".5" d="M89 125l70-9-44-7z"/><path fill="#282a1b" fill-opacity=".5" d="M52.8 113.1l2.1 15.2 72.8-4.9-49.5 9.6z"/><path fill="#1b2125" fill-opacity=".5" d="M161 91l97 3 13-30z"/><circle r="1" fill="#192d21" fill-opacity=".5" transform="matrix(17.75646 69.79463 -.96913 .24656 170.9 12.6)"/><path fill="#9da199" fill-opacity=".5" d="M69 131h78v2H69z"/><path fill="#1a2933" fill-opacity=".5" d="M58.4 95.7l-75-1.4.2-16 75 1.4z"/><ellipse cx="144" cy="8" fill="#4c5d5f" fill-opacity=".5" rx="2" ry="49"/><path fill="#72777d" fill-opacity=".5" d="M108 95h123v18H108z"/><path fill="#bdb8af" fill-opacity=".5" d="M149.9 104.5l-43-9.1 1.2-6 43 9.2z"/><path fill="#191d22" fill-opacity=".5" d="M78.8 97.2l13.9 8-5.5 9.6-13.9-8z"/><circle r="1" fill="#6b7682" fill-opacity=".5" transform="matrix(2.4212 8.38843 -27.84317 8.03652 52.8 103.5)"/><path fill="#ead9bc" fill-opacity=".5" d="M188 60L169 4l35 48z"/><path fill="#848c89" fill-opacity=".5" d="M183 126.6l-43.3 7.3 58.5-23.7-55.9 3.6z"/><circle r="1" fill="#cbb99e" fill-opacity=".5" transform="matrix(52.02614 58.39286 -25.66773 22.86912 6 9.8)"/><circle r="1" fill="#586576" fill-opacity=".5" transform="matrix(68.91681 6.75735 -2.21445 22.58469 120.4 166.5)"/><ellipse cx="243" cy="23" fill="#c1b49d" fill-opacity=".5" rx="28" ry="40"/><circle r="1" fill="#3f4a56" fill-opacity=".5" transform="matrix(-26.08094 -15.98242 36.90131 -60.21747 255.1 140)"/><circle r="1" fill="#324337" fill-opacity=".5" transform="rotate(-15.7 247.2 -624.3) scale(1 58.30752)"/><path fill="#e8d9c0" fill-opacity=".5" d="M150 9h19v50h-19z"/><path fill="#bdc1b3" fill-opacity=".5" d="M80 81h8v6h-8z"/><path fill="#373c3f" fill-opacity=".5" d="M152 75l11-17 36 41z"/><ellipse cx="129" cy="15" fill="#8e928b" fill-opacity=".5" rx="3" ry="16"/><circle r="1" fill="#3a4835" fill-opacity=".5" transform="matrix(-27.95229 4.29634 -.69972 -4.55239 137.6 125.3)"/><path fill="#d7cab9" fill-opacity=".5" d="M127.5 70l14.8-60.6 1.5 55.9L24.4 29.1z"/><ellipse cx="164" cy="138" fill="#0e1915" fill-opacity=".5" rx="35" ry="8"/><path fill="#03170e" fill-opacity=".5" d="M101 134l-37-3 14 12z"/><path fill="#090a0b" fill-opacity=".5" d="M58.6 115.7l7.7 2-6.2 8.9-9.2 4.3z"/><path fill="#727678" fill-opacity=".5" d="M152.3 96.8l-6-95.2-5.2 111.3 92.1-2z"/><path fill="#e8dac3" fill-opacity=".5" d="M169 23v44l9-14z"/><circle r="1" fill="#a1a9a7" fill-opacity=".5" transform="matrix(.18858 1.30862 -32.47995 4.68043 174.5 115)"/><path fill="#6f757b" fill-opacity=".5" d="M159.7 116.1l-57.3-21.7-15.3 15.5-6.5-13.3z"/><path fill="#212521" fill-opacity=".5" d="M43 133h18v7H43z"/><path fill="#5d7883" fill-opacity=".5" d="M26.6 69.8l-.2 7-35-.6.2-7z"/><circle r="1" fill="#313135" fill-opacity=".5" transform="rotate(-165.1 72.7 31.9) scale(5.58867 14.65073)"/><path fill="#697279" fill-opacity=".5" d="M57.6 115.4l30.7-34.3-64.9 47.1 15.2 12z"/><path fill="#344847" fill-opacity=".5" d="M158 124h30v4h-30z"/><path fill="#364148" fill-opacity=".5" d="M-11.1 139.9l25 1.3-2.8 51-25-1.4z"/><ellipse cx="123" cy="69" fill="#8a9090" fill-opacity=".5" rx="11" ry="2"/><ellipse cx="251" cy="66" fill="#4c5c62" fill-opacity=".5" rx="88" ry="3"/><path fill="#33383e" fill-opacity=".5" d="M151 98l-1-38 20 27z"/><path fill="#b4a591" fill-opacity=".5" d="M8.1 17.9l15 43.5L-8.1 72l-15-43.5z"/><circle r="1" fill="#3d4344" fill-opacity=".5" transform="rotate(-20.6 254 -127) scale(21.72113 12.52197)"/><path fill="#605048" fill-opacity=".5" d="M79 113h33v3H79z"/><path fill="#a5a29b" fill-opacity=".5" d="M145.2 81.4l-37.2 43 12.8-32.7 22.6 23.4z"/><path fill="#4c4b39" fill-opacity=".5" d="M68 125h52v7H68z"/><path fill="#010f07" fill-opacity=".5" d="M198.9 28.3l-1 .3-10.8-26.9 1-.3z"/><path fill="#e1d3b8" fill-opacity=".5" d="M207.8 66.3L158-16l24.7 2.4 8 33.4z"/><path fill="#061f18" fill-opacity=".5" d="M85 134h79v6H85z"/><path fill="#464643" fill-opacity=".5" d="M121 102l-15 9 4-10z"/><path fill="#0a150f" fill-opacity=".5" d="M207 112l-12 12-17-7z"/><path fill="#8a8e8d" fill-opacity=".5" d="M72.4 91.5l5.9 8.6-20.4-3.8-2.3-1z"/><path fill="#363a39" fill-opacity=".5" d="M259.5 68.8L203 90.3l-18.6-32-1.9 14.1z"/><circle r="1" fill="#ccbfb3" fill-opacity=".5" transform="matrix(-31.3826 1.57033 -.64532 -12.89665 95.2 57.1)"/><path fill="#051915" fill-opacity=".5" d="M211.7 70.3l-1 .3L186.3-.3l1-.3z"/><path fill="#98a0a4" fill-opacity=".5" d="M178 125h10v2h-10z"/><circle r="1" fill="#b3b8b7" fill-opacity=".5" transform="rotate(-96.2 108 11.4) scale(3.65637 22.65907)"/><path fill="#393a3c" fill-opacity=".5" d="M102.2 79.6l2.9-17.8 2.1 33.1L79.5 88z"/><path fill="#a8a79d" fill-opacity=".5" d="M63 121h15v4H63z"/><path fill="#929a96" fill-opacity=".5" d="M181 58v8l-17-3z"/><path fill="#423e3f" fill-opacity=".5" d="M90 66l42 18-41 1z"/><circle r="1" fill="#e4d6bb" fill-opacity=".5" transform="matrix(-18.2461 -27.07959 19.45224 -13.10683 101.7 16.9)"/><path fill="#596470" fill-opacity=".5" d="M207 95l12 46-21 2z"/><path fill="none" stroke="#a9b2b4" stroke-opacity=".5" stroke-width=".5" d="M147.5 130.5q-44.8 5-80.4 0"/><path fill="#000304" fill-opacity=".5" d="M86 106l-9-5 1 12z"/><path fill="#b0ada6" fill-opacity=".5" d="M92.1 124.5l12.4-23-10.6 2.6-6.5 18.7z"/><path fill="#0e2421" fill-opacity=".5" d="M129 128v-1l58-3v1z"/><path fill="#cfc1aa" fill-opacity=".5" d="M209 0h26v63h-26z"/><ellipse cx="160" cy="109" fill="#695c63" fill-opacity=".5" rx="28" ry="3"/><path fill="#44535f" fill-opacity=".5" d="M230.1 97l-39.1 9.6 80 3.7V90.8z"/><path fill="#8d9694" fill-opacity=".5" d="M175 114l-12 10-1-15z"/><path fill="#6c737b" fill-opacity=".5" d="M78 112l-26 2 22-17z"/><ellipse cx="138" cy="76" fill="#313638" fill-opacity=".5" rx="3" ry="13"/><path fill="#5c6d7c" fill-opacity=".5" d="M150.1 113.3l66.6-14.7-74-2.4 18.1 13.1z"/><path fill="#a1a69f" fill-opacity=".5" d="M85 132h27v2H85z"/><path fill="#ddcdb9" fill-opacity=".5" d="M88 32h54v27H88z"/><circle r="1" fill="#363735" fill-opacity=".5" transform="matrix(5.0924 1.06687 -2.00521 9.57136 232 71.5)"/><path fill="#2c3844" fill-opacity=".5" d="M144.5 144v-1l95 5v1z"/><path fill="#572d27" fill-opacity=".5" d="M87.1 117.4l-1.9 18.3-1.8-23.8-2.9 3.2z"/><path fill="#011612" fill-opacity=".5" d="M58 120l6 7 13 1z"/><ellipse cx="76" cy="143" fill="#464f59" fill-opacity=".5" rx="35" ry="3"/><path fill="#d8c8ad" fill-opacity=".5" d="M64-16v88L30 18z"/><circle r="1" fill="#1b232a" fill-opacity=".5" transform="rotate(-85.5 166.7 -82.4) scale(4.22118 29.29284)"/><path fill="#667179" fill-opacity=".5" d="M194 68l13-1-16-8z"/><path fill="#323941" fill-opacity=".5" d="M73 73.4l-16.1-6.1 13 25-81.3 6.4z"/><ellipse cx="148" cy="44" fill="#aaada0" fill-opacity=".5" rx="1" ry="39"/></g></g></svg>