<svg xmlns="http://www.w3.org/2000/svg" viewBox="0 0 4752 2673"><defs/><filter id="a"><feGaussianBlur stdDeviation="12"/></filter><rect width="100%" height="100%" fill="#313356"/><g filter="url(#a)"><g fill-opacity=".5" transform="translate(9.3 9.3) scale(18.5625)"><circle r="1" fill="#9fd2f3" transform="matrix(-3.96266 -55.90653 254.36185 -18.02918 108.4 44.3)"/><ellipse cx="240" cy="91" fill="#dae8cf" rx="38" ry="9"/><circle r="1" fill="#2c2c0d" transform="matrix(-94.33003 -5.11166 .97054 -17.91031 154.8 104.8)"/><ellipse cx="26" cy="77" fill="#c7d2da" rx="89" ry="18"/><ellipse cx="76" cy="136" fill="#397f81" rx="255" ry="20"/><circle r="1" fill="#375b8f" transform="matrix(92.03478 9.51087 -4.14095 40.07112 190.4 10.4)"/><circle r="1" fill="#879cac" transform="matrix(-10.06753 -17.24655 50.97806 -29.75802 33.7 90.7)"/><circle r="1" fill="#fffcf5" transform="rotate(178 7.9 34.5) scale(25.16333 5.79649)"/><ellipse cx="226" cy="77" fill="#8b97a2" rx="106" ry="20"/><path fill="#111219" d="M150 121l18-29-63-7z"/><ellipse cx="69" cy="36" fill="#6087bd" rx="53" ry="41"/><circle r="1" fill="#000c0d" transform="matrix(34.02176 1.90211 -.4013 7.17792 226.7 111.7)"/><path fill="#0d1204" d="M44 108h79v10H44z"/><path fill="#eae4d7" d="M136 86l-58-6 28-11z"/><ellipse cx="239" cy="59" fill="#f0e9df" rx="9" ry="5"/><path fill="#6a6355" d="M66.2 93.1l-76 29.7 109.9-23.2L126 78.1z"/><circle r="1" fill="#3a5680" transform="matrix(-4.88817 18.2429 -52.49438 -14.06583 230.4 9.2)"/><ellipse cx="20" cy="98" fill="#a5b5c5" rx="38" ry="6"/><circle r="1" fill="#5477a6" transform="rotate(117.1 59.5 48.8) scale(31.3655 103.8394)"/><circle r="1" fill="#7f9cc0" transform="rotate(-83.4 34.1 19.4) scale(8.90748 97.15019)"/><path fill="#5f5245" d="M145.8 88.2l1-5 85.4 16.6-1 5z"/><ellipse cx="107" cy="119" fill="#606a6a" rx="122" ry="2"/><path fill="#837469" d="M83 83l12 21 30-5z"/><path fill="#cbcabb" d="M222 92h34v6h-34z"/><path fill="#050c11" d="M219 113l-54-12-11 16z"/><path fill="#585340" d="M-16 122l25.3 3.7L-6.4 103l45.7 2.9z"/><path fill="#a7b0b7" d="M142 87l-42-5 36-11z"/><path fill="#e8ebe9" d="M181 117h8v2h-8z"/><path fill="#637797" d="M195 32l74 4 2 35z"/><circle r="1" fill="#6489bc" transform="matrix(50.62259 24.7525 -9.88169 20.20954 12.9 21)"/><path fill="#191d25" d="M99.8 86.9l32.3 17.1 25.2-5.2-39.4-12.7z"/><path fill="#eeeeea" d="M113.5 76.8l-8.4-8.2L95 74.8 76.2 85.7z"/><path fill="#141d17" d="M48 103h20v14H48z"/><path fill="#708499" d="M164 83h78v7h-78z"/><ellipse cx="255" cy="101" fill="#6f745d" rx="19" ry="4"/><path fill="#36677a" d="M-11.8 128.2L-16 116l56.4-2.4-9 5.1z"/><path fill="#dacbc1" d="M42 118h29v1H42z"/><path fill="#57524c" d="M205 86l-44 7 29 13z"/><path fill="#e3e5e4" d="M13.4 59.7l-.2 3.1-29.2 9 70.1-2.6z"/><path fill="#171a1e" d="M75 117l51 1 24-22z"/><path fill="#6d8cb3" d="M14.5-9.7l82.7 86.4-87.8-2.3L72.5 85z"/><path fill="#e7e5dc" d="M227 58l18 1-16 6z"/><path fill="#cbcecf" d="M57 88l18 1 4-12z"/><ellipse cx="42" cy="2" fill="#4f76ac" rx="94" ry="11"/><ellipse cx="213" cy="143" fill="#2e5768" rx="148" ry="25"/><circle r="1" fill="#c8cac3" transform="matrix(-.12808 -2.13732 14.44581 -.86566 255 90)"/><path fill="#6b8bb0" d="M119.5 80.9l4.8 1.4 24-31.7-54.9 2.3z"/><path fill="#8b7e73" d="M96 118h63v2H96z"/><path fill="#8099bc" d="M86.1 20.5l-53.3-7.1-4.3 8.9 4.8 3.2z"/><ellipse cx="245" cy="68" fill="#577498" rx="35" ry="4"/><path fill="#8da5b9" d="M175 90.3l-5.6 2.2-6.4-16.8 5.6-2.2z"/><path fill="#90a5a5" d="M187.7 114.1l-.3 3.6h10.5l-6.1-.6z"/><path fill="#594742" d="M151 83l14 5-34 1z"/><path fill="#6988ac" d="M132.2 47.9l-20.9-.3-47.7 30.7 22.6.7z"/><ellipse cx="252" cy="112" fill="#131a1c" rx="69" ry="7"/><path fill="#7e90a3" d="M180 65l91 16-64 12z"/><path fill="#cfcfc9" d="M130 78l10 7 1-8z"/><path fill="#3b3e3c" d="M107.6 109.8L77.9 83.4l14.6 11.5-28.2 17.6z"/><path fill="#486894" d="M271 31l-99-4-46-43z"/><path fill="#90a6bf" d="M-16 105v-9.5l35.1-26.6 45.8 28.8z"/><path fill="#dfddd7" d="M74 80h26v5H74z"/><circle cx="137" cy="117" r="3" fill="#979291"/><ellipse cx="20" cy="117" fill="#6d7f8a" rx="34" ry="1"/><path fill="#191f23" d="M155 98h28v21h-28z"/><path fill="#3e4344" d="M221.3 93.3l-6.4-7.8 16.1 22.2-32.5-2.6z"/><path fill="#6b6b65" d="M111.1 108.8l2.4-10.6-28-14.8 41.3 19.2z"/><path fill="#345c74" d="M57 159l-73-47 184 24z"/><circle r="1" fill="#7797c1" transform="rotate(77.2 -32.5 26) scale(13.81907 26.98313)"/><circle r="1" fill="#5c7aa2" transform="matrix(2.71067 -10.03123 60.46591 16.3393 170.6 40.5)"/><path fill="#6a88ad" d="M106 52h70v20h-70z"/><path fill="#8a99ab" d="M65 84h60v2H65z"/><path fill="#141b21" d="M202.5 99.2l-33.2 14.2 54.3-12.2-17 18.3z"/><path fill="#e7e7e4" d="M4 66h8v11H4z"/><path fill="#1a1e27" d="M103.5 90.5l2.3-4.5 18.7 9.5-2.3 4.5z"/><path fill="#6c655a" d="M31 117l-37-13 56-1z"/><path fill="#7e8d9b" d="M238.2 91.1l23.6 11.2-64.7-24.4 4.9 16.4z"/><path fill="#1b2225" d="M143.3 95.8l21 17-54.5 6.1-19.9-3.9z"/><path fill="#839cbc" d="M2 48l79 10-46 7z"/><path fill="#fffdf1" d="M39 83h7v2h-7z"/><path fill="#786c63" d="M61.5 100.6l29-7.3-21.4 16.2 14.6-23z"/><path fill="#bbc4cb" d="M133.6 69l-1.2 5.8 16.1-.9-8.8.5z"/><ellipse cx="5" cy="115" fill="#598094" rx="29" ry="2"/><path fill="#5f5650" d="M100 86l-26 17 11-17z"/><path fill="#7f95ac" d="M168 64l24 27 19-16z"/><path fill="#191e1d" d="M84 119.1l8.8-20.3-17.7 8.5.5 3.7z"/><path fill="#2b3033" d="M140 95h28v13h-28z"/><path fill="#35352a" d="M42.5 116.6l18.1-14.4-1.5-2.8-24.8 15.8z"/><circle r="1" fill="#c7cdd4" transform="matrix(-.14262 -3.058 25.42409 -1.1857 23.6 70.7)"/><path fill="#6784a8" d="M131 67l-11-20-5 38z"/><path fill="#647b9b" d="M245.1 56l2.5 23.7L271 28.9l-76.3 27.9z"/><ellipse cx="166" cy="79" fill="#ebe4d5" rx="3" ry="2"/><path fill="#e0e2e1" d="M91.2 86.6l2.3-14.1 19.1 3.7 2.2-6z"/><path fill="#889cb1" d="M32 86h15v18H32z"/><circle r="1" fill="#315260" transform="matrix(-10.00713 20.15924 -25.21335 -12.51601 237.5 141.4)"/><path fill="#d5d3cf" d="M54 92l-9 1v-4z"/><path fill="#51524e" d="M207 99h49v3h-49z"/><path fill="#a9a19c" d="M57 119.2v-1l18 .6v1z"/><path fill="#c2c3be" d="M241 88l30 22-1-12z"/><circle r="1" fill="#597cab" transform="matrix(36.32258 11.24372 -5.82744 18.82543 116.8 32.7)"/><path fill="#847467" d="M130.7 87.7l.1-1 54.5 7.6-.1 1z"/></g></g></svg>