<svg xmlns="http://www.w3.org/2000/svg" viewBox="0 0 1200 1800"><defs/><filter id="a"><feGaussianBlur stdDeviation="12"/></filter><rect width="100%" height="100%" fill="#5b4932"/><g filter="url(#a)"><g fill-opacity=".5" transform="translate(3.5 3.5) scale(7.03125)"><ellipse cx="130" cy="73" fill="#8fcdff" rx="113" ry="158"/><ellipse cx="102" cy="37" fill="#abccf0" rx="79" ry="51"/><ellipse cx="74" cy="194" fill="#4a626f" rx="169" ry="110"/><circle r="1" fill="#ba995e" transform="matrix(-76.63927 -15.55142 8.01777 -39.51256 142.3 191.2)"/><circle r="1" fill="#0b2319" transform="rotate(76.9 -114.4 172.4) scale(29.50703 51.58221)"/><ellipse cx="123" cy="118" fill="#22579c" rx="104" ry="32"/><ellipse cx="4" cy="147" fill="#546674" rx="28" ry="169"/><circle r="1" fill="#ebd3b7" transform="matrix(-67.66772 -5.9705 .55975 -6.34398 144.2 157.6)"/><circle r="1" fill="#889ea2" transform="matrix(-14.37424 9.02558 -16.1883 -25.78167 49.1 188.5)"/><circle r="1" fill="#616431" transform="matrix(-48.968 3.85387 -.71047 -9.02744 124 188.1)"/><circle cx="136" cy="246" r="11" fill="#7c9cbe"/><path fill="#98b2cd" d="M27 56h58v33H27z"/><ellipse cx="150" cy="59" fill="#a5b8cb" rx="48" ry="30"/><path fill="#e4c2a0" d="M182 163.7l-31.6 9.6-6.4-21 31.6-9.6z"/><ellipse cx="46" cy="141" fill="#264a69" rx="36" ry="12"/><path fill="#467696" d="M74.6 198.4l-3.8-5 40.6-35.3-63.9 8.6z"/><path fill="#7e99b5" d="M145.2 271l39.8-20.7-49-10.6 49-8z"/><path fill="#ba9572" d="M121 195l-90 3 33 16z"/><ellipse cx="8" cy="67" fill="#555b5b" rx="19" ry="169"/><path fill="#1c3226" d="M27 205h21v51H27z"/><path fill="#00000a" d="M146 245h15v11h-15z"/><path fill="#7ba1c9" d="M185 0L8-13l44 47z"/><path fill="#727237" d="M109.4 166.8l30.4-8.4 15.8 16.3 3.4 28.1z"/><path fill="#4f7cb9" d="M31 85h139v15H31z"/><path fill="#2b5b88" d="M27 93h13v90H27z"/><path fill="#b6bab2" d="M48 152h7v33h-7z"/><path fill="#3b6086" d="M42.4 91.8L165.9 148l-34 4.9-89-13.8z"/><path fill="#a08575" d="M106 199h64v33h-64z"/><path fill="#667073" d="M0 190h28v66H0z"/><path fill="#c1b08b" d="M78 168l42 22-11-16z"/><path fill="#4a544e" d="M134 228l-67-27 58 48z"/><ellipse cx="15" cy="130" fill="#4a4d4c" rx="12" ry="56"/><path fill="#b3afa7" d="M78 168l33-22H79z"/><ellipse cx="77" cy="253" fill="#1d2c25" rx="52" ry="19"/><path fill="#555c62" d="M179 204l-44-12 25-19z"/><path fill="#396578" d="M78.5 188l-13 9.7L42.7 181l-12.2 20.5z"/><path fill="#9aafc2" d="M28 48h142v38H28z"/><path fill="#596467" d="M6 168L29-16l-45 31z"/><path fill="#4d3f3d" d="M116.5 206.8l17.8 2.5-.8 6-17.8-2.6z"/><path fill="#a39b55" d="M108 160h24v25h-24z"/><path fill="#446b80" d="M79.8 171.1L53.9 185l42-28.8 18.7 10.8z"/><path fill="#e8e3dd" d="M67 178h12v4H67z"/><path fill="#3d697f" d="M36 171l32-6 9-20z"/><path fill="#feeedb" d="M46.7 154.8l10-1.6.6 4-10 1.6z"/><circle r="1" fill="#cdd2d3" transform="matrix(.77665 2.80297 -4.40903 1.22166 34.9 186.9)"/><path fill="#858fa1" d="M159 177h11v19h-11z"/><circle r="1" fill="#ac947a" transform="rotate(-160.6 94.1 91.9) scale(25.65793 11.92639)"/><circle cy="154" r="8" fill="#899396"/><ellipse cx="74" cy="165" fill="#cdc7c2" rx="5" ry="3"/><circle r="1" fill="#7fa3c5" transform="matrix(15.55374 15.46065 -14.86754 14.95706 48.1 9.4)"/><path fill="#305c76" d="M56 176l36 2-27-12z"/><path fill="#ffe" d="M40.6 174.3l-.1-1 10.9-1.6.1 1z"/><path fill="#c9b397" d="M145.7 155l32.1-7.5 4.5 19.5-32.1 7.5z"/><path fill="#dddcd8" d="M41 162h11v3H41z"/><path fill="#aa9177" d="M43 198h109v11H43z"/><path fill="#c1bab2" d="M52.7 183.9l6.7-.9-3.1 10.2 10.1-1.9z"/><path fill="#525735" d="M157 176l-5 21-16-25z"/><path fill="#3f4745" d="M41.7 200.7l-.5 16.9L7 224.3l4.7 23.6z"/><ellipse cx="61" cy="210" fill="#766b57" rx="21" ry="6"/><path fill="#263030" d="M9.8 65l-3-8.5 9.4-3.4 3 8.4z"/><path fill="#3c6a85" d="M68 159l38 7-11 7z"/><path fill="#7c8c98" d="M161 237h9v17h-9z"/><circle cx="159" cy="119" r="29" fill="#456d9b"/><ellipse cx="119" cy="155" fill="#d2c6b9" rx="19" ry="4"/><circle r="1" fill="#90adc9" transform="matrix(3.24852 17.1923 -97.4959 18.42204 146.4 20.2)"/><path fill="#555131" d="M149 195l-28-9-4 9z"/><path fill="#7a7d47" d="M72 184h54v13H72z"/><path fill="#3b4f44" d="M43 238l45-29-51 14z"/><path fill="#747e83" d="M0 245h26v11H0z"/><ellipse cy="234" fill="#8a9294" rx="10" ry="5"/><ellipse cx="21" cy="34" fill="#737c7c" rx="6" ry="11"/><path fill="#395f83" d="M25.9 199.7l4.9-91.8 70.3.1-62.4 55.5z"/><circle r="1" fill="#413d3e" transform="matrix(24.75515 -21.26783 2.00811 2.33739 3 187.2)"/><path fill="#c6c4cd" d="M101.1 175.7l-1 2.9-11.2-4.3 1-2.9z"/><path fill="#687b8c" d="M126 235h20v21h-20z"/><path fill="#3d697f" d="M61.8 198l-32.3-22.4 20.6.6-13.7 22.4z"/><circle r="1" fill="#cbbba5" transform="rotate(-88.7 127.5 27.4) scale(2.61216 23.78986)"/><path fill="#4970a2" d="M27 88h138v17H27z"/><path fill="#6c8184" d="M27 182l-8 21 18-2z"/><ellipse cx="127" cy="233" fill="#293638" rx="16" ry="3"/><circle r="1" fill="#c9b396" transform="matrix(-1.21495 -4.36551 27.81032 -7.73982 161.3 153)"/><circle r="1" fill="#6289b4" transform="matrix(-62.3881 -1.27513 .08544 -4.1804 124 89.1)"/><ellipse cx="1" cy="53" fill="#697375" rx="5" ry="31"/><path fill="#485155" d="M97 211l35 14-32-2z"/><path fill="#454a50" d="M126 203.1l25 43.3-1 .5-25-43.3z"/><path fill="#70848d" d="M26.2 218.2l-7.3 2.6-20.1-.4 24.7-9.9z"/><path fill="#434844" d="M20.6 95.1L8.5 121.2 14.3 81l13.6 15.1z"/><path fill="#3d5f7e" d="M24.3 151.8l98.6-5.1 38.5-9.1-73.3-5.8z"/><circle r="1" fill="#40678f" transform="matrix(-11.58165 22.64566 -14.57667 -7.45493 139.8 129.4)"/><path fill="#37617a" d="M61 144h7v43h-7z"/><path fill="#24372d" d="M28 212h14v44H28z"/><path fill="#335b7a" d="M96 177l-4 13 6-9z"/><path fill="#a69a68" d="M112 160l-8 14 10 31z"/><path fill="#4e7484" d="M51 176l26-16-26-2z"/><path fill="#576267" d="M185 163.3l-32.6 19 24.2 18.9-20.1-25z"/><path fill="#4b5456" d="M-7.4 16.2l3.2-22.8 31.6 4.4-3.2 22.8z"/><path fill="#a6907b" d="M48.2 209.9l15.5 9.2-10.6-21.6 42.6 2.3z"/><path fill="#a39483" d="M141.2 210l-9.6-10.9 44.8 27-19.6 7.7z"/><path fill="#d4d3d8" d="M83 169h4v3h-4z"/><path fill="#818678" d="M87.8 155.5l47.8 7.9-45.5-3.8-27.8-6.2z"/></g></g></svg>