<svg xmlns="http://www.w3.org/2000/svg" viewBox="0 0 1200 1800"><defs/><filter id="a"><feGaussianBlur stdDeviation="12"/></filter><rect width="100%" height="100%" fill="#474244"/><g filter="url(#a)"><g fill-opacity=".5" transform="translate(3.5 3.5) scale(7.03125)"><circle cx="83" cy="123" r="169" fill="#fff"/><circle r="1" fill="#362d1d" transform="rotate(33.5 -256.7 197.2) scale(42.37275 54.98812)"/><circle r="1" fill="#fff" transform="matrix(-3.64826 -62.37861 168.7117 -9.86723 89 55)"/><path fill="#000005" d="M32.8 297.8L9.5 286.4l55.7-114.2 23.3 11.4z"/><circle r="1" fill="#161718" transform="rotate(62.7 -41.3 176.3) scale(14.30968 51.11494)"/><ellipse cx="88" cy="239" fill="#f5f8fe" rx="20" ry="43"/><circle r="1" fill="#5f4e33" transform="matrix(7.83626 21.18416 -36.59242 13.53595 143 181.5)"/><circle r="1" fill="#eaf4fb" transform="matrix(-20.4373 -9.70434 13.95035 -29.37937 12 142.1)"/><path fill="#dce2e8" d="M109-16L78 155l107-91z"/><path fill="#e7ebf1" d="M12 271l38-75-66 28z"/><path fill="#362812" d="M16.6 183.1L84 119.2l-16.5-8.4-7.7 9z"/><path fill="#fcffff" d="M203.4 247.8l-53.8 28.6-15-28.2 53.8-28.6z"/><path fill="#302f31" d="M133 118.5l12.6 14.1-76.5 69-12.7-14.2z"/><path fill="#675b45" d="M133.2 269.6l4.8-60.7-20.3-38.4-12.9-11.8z"/><circle cx="91" cy="251" r="33" fill="#d3d5d8"/><path fill="#e5ebec" d="M118.6 164.7l66.4-27.5-39 1.1-37.7 26.7z"/><path fill="#7e7467" d="M119 133l-132 55 40 23z"/><path fill="#76674b" d="M185 223.9l-82.6 27.5 60.7-26.5-58.4-38.6z"/><path fill="#5d523c" d="M106 223l-10-30 37 45z"/><path fill="#d0d7df" d="M80.2 99.6L110.1-16-16 111.4l50.1 32.5z"/><path fill="#d3d6db" d="M75.5-15.6l7.4 144.9 2.6 21 41.3-37.8z"/><path fill="#c1c0c1" d="M62.3 172.6l-45.1 86.5 24.5-77.6 14.8-.6z"/><path fill="#222836" d="M24.3 251.2l14.5-29.6 18.9 9.2-14.5 29.6z"/><path fill="#ecefec" d="M135 217h22v13h-22z"/><path fill="#6b5431" d="M58 115h25v41H58z"/><path fill="#292820" d="M171 116.7l14-1.8-42 22.7 42-5.1z"/><path fill="#d2d2d4" d="M100.3 176.9l-30.7 45.9 63.5 20.9L94.5 271z"/><path fill="#2d2b27" d="M7 210l31-31-11 25z"/><circle r="1" fill="#42403f" transform="matrix(-32.24913 54.84784 -6.35439 -3.73622 67.3 212.4)"/><circle cx="104" cy="2" r="116" fill="#d2d6dc"/><path fill="#dee2e5" d="M-16 243.6v-37.5l32.9-8.8-21.3 39.9z"/><ellipse cx="33" cy="194" fill="#4b4035" rx="52" ry="3"/><path fill="#eff0eb" d="M151 201.6l30.9-3.2 1 10-30.8 3.2z"/><path fill="#a09783" d="M124.8 167.6l20.9-17.6 29.6 3.2-16 22z"/><path fill="#d2dcea" d="M23.9 166.6l-7.6.8-31.3 9.8 32.3 2.9z"/><path fill="#eaecf1" d="M116.1 204.8l-3.2 2.4-9-12 3.2-2.4z"/><path fill="#b8d1f9" d="M23.6 190.1l-3.7-1.6 6.5-14.6 3.7 1.6z"/><ellipse cx="145" cy="236" fill="#6b5b3a" rx="12" ry="4"/><path fill="#988e82" d="M82 197l30-33-2 21z"/><path fill="#8f7a56" d="M82.3 121.1l4.2 40.2-40.3 23.4 10.7-14.6z"/><path fill="#6b5b41" d="M134.8 204.3l-.8 5.4 45.9 17 5.1-4.8z"/><ellipse cx="169" cy="144" fill="#e0e4e6" rx="13" ry="9"/><path fill="#3b3c3e" d="M71 216l51-79-36 15z"/><ellipse cx="19" cy="68" fill="#cbd0d6" rx="55" ry="72"/><path fill="#544a3b" d="M61.3 162.6l-31.5-12.9 12.1-13.2 36.4-25.4z"/><ellipse cx="89" cy="244" fill="#c8cacd" rx="27" ry="32"/><path fill="#cccfd3" d="M91 86l-45 28 139-9z"/><path fill="#76674e" d="M156.6 226.1l28.4-36.6-24.2 41.7-35.6 16.3z"/><path fill="#6d6352" d="M143.2 165l26.6 34.6-35.8-12.4-7.9 83.8z"/><path fill="#443a2f" d="M112 179.1l4.8-1.3 7.2 27-4.8 1.4z"/><path fill="#625642" d="M25.8 155.7l10.4 52.6-10.8 1.5 22.2-42.5z"/><path fill="#504c4b" d="M185 131l-13-25-76 33z"/><path fill="#3d3b40" d="M59.6 237.8l-11.4-60.3-.4 70.7-2 19.8z"/><path fill="#cdcdcf" d="M29.4 229.7L-16 209.2l62 .3-8.9-14.4z"/><path fill="#d6d9e0" d="M150 138l-21 27-12-6z"/><path fill="#877f74" d="M98.2 212.6L120 164l-12.1 3.8L93 189.1z"/><path fill="#181612" d="M61 194l28-26-28 11z"/><path fill="#d6d7d5" d="M110.5 197.3l7.5 14.4-6.2 3.8-2.7-2.7z"/><path fill="#cdcdc9" d="M169.1 222.2L134.3 271l3.3-30 47.4-8.5z"/><path fill="#b9cee4" d="M41.6 144.5l7.7-4.7 1 1.7-7.6 4.7z"/><path fill="#292522" d="M24 209.5l-1.8-.6 9.7-28.4 2 .6z"/><path fill="#cdd1d6" d="M81.5 123.9l55.5-12.3-37.5 25.1-12.2 12.5z"/><path fill="#897857" d="M147 151h20v8h-20z"/><path fill="#938d88" d="M120.2 216.1l24.6-12.5-26.8-8.4 17.9-6.4z"/><path fill="#6d6658" d="M109.6 227l15 9.2-4.7-21.3-5.8 5z"/><path fill="#635946" d="M162.2 172.9l20.9 15-10.2 24.9-10-28.4z"/><path fill="#8a7959" d="M28.4 184.5l54.4-13.7-1-23.4-20 10z"/><path fill="#0c0908" d="M38.6 156.3l17.4-18 1.4 1.4-17.4 18z"/><path fill="#434d69" d="M32.9 230.8L21.3 263l27.9-42.2-1.5-13.5z"/><path fill="#d5d6da" d="M80 211l46 29-1 27z"/><path fill="#d3d6d9" d="M37 195l9 1-14 28z"/><path fill="#afb6ca" d="M55.9 189.6l-11.8-7.9-1.6 8.1 18.9-9.7z"/><path fill="#524537" d="M57 120l-1 14 30-15z"/><ellipse cx="2" cy="183" fill="#6780b0" rx="20" ry="5"/><path fill="#a49b8e" d="M149.8 180.3l6.5-2.8 13.7-12.6-25.1-4.5z"/><path fill="#676a71" d="M130.1 117.5l28.9-9.3-76.2 46.6 22.8-23.9z"/><ellipse cx="131" cy="245" fill="#68583f" rx="2" ry="34"/><path fill="#ceced1" d="M106.6 251.5l-37-29.3L88.7 193l6.9-.1z"/><circle r="1" fill="#4e4d4a" transform="rotate(-19.6 462.7 -318) scale(44.08327 7.85277)"/><path fill="#e1e2e4" d="M138 214h8v15h-8z"/><circle r="1" fill="#d6d8dc" transform="matrix(57.16419 -43.38998 49.75394 65.5484 114.1 24)"/><path fill="#c9ccd0" d="M84.8 150.8l59.7-51.4-65.6 20.2L98 92.5z"/><path fill="#8d8884" d="M136.2 163.8l2.5 17.8-18.9 2.6-2.5-17.8z"/><path fill="#7a6a52" d="M82 161l-29-33 32 13z"/><path fill="#524f48" d="M90.7 176.7l38.2-39.6 4.4 4.2L95 180.9z"/><path fill="#58544d" d="M64.3 235.6l11.9-27.9 28.9-44.9-52.4 65.7z"/><path fill="#635a4d" d="M131 198l9-35 8 19z"/><path fill="#c9cdd1" d="M37.4 139.6l-23.8 43.6-28.8-104.5 90.7 22.8z"/><path fill="#c2c3c5" d="M-16 226l37-20 2 65z"/><path fill="#666156" d="M43 177l-11 32-8-4z"/><path fill="#89795b" d="M140 200l-5.2 29.6-9.2-12.1 58.1-30.5z"/><path fill="#d0ced8" d="M121 226l4-4 2 3z"/><path fill="#c1c2c5" d="M73 228l18 29-49 14z"/><path fill="#cfd1d4" d="M133.9 145.6l51.1 5.6-19.6-14.4-40.7 15.1z"/><path fill="#857f77" d="M21.8 186.7l6.6 6.4-16.9 17.7 1.6-.5z"/><ellipse cy="35" fill="#c9d0d7" rx="114" ry="20"/><path fill="#3e392d" d="M24 173l7-24 18-2z"/><path fill="#4e4933" d="M29.5 167.5l.8.6-13.8 18.4-.8-.6z"/><path fill="#dbdee2" d="M139 232l4-12 16-1z"/><path fill="#dadad8" d="M163 210l-15.6-1.1 17.1-10.8 1.4 10.6z"/></g></g></svg>