<svg xmlns="http://www.w3.org/2000/svg" viewBox="0 0 1800 1200"><defs/><filter id="a"><feGaussianBlur stdDeviation="12"/></filter><rect width="100%" height="100%" fill="#64444c"/><g filter="url(#a)"><g fill-opacity=".5" transform="translate(3.5 3.5) scale(7.03125)"><circle r="1" fill="#82e1ff" transform="matrix(182.99277 -177.59123 86.52334 89.155 147.4 0)"/><path fill="#a2d3ff" d="M.3.5l254.8-9 2.6 74L3 74.5z"/><ellipse cx="145" cy="168" fill="#0d58ae" rx="255" ry="56"/><circle r="1" fill="#423320" transform="rotate(-94.1 75.9 22.7) scale(13.91565 72.45034)"/><circle r="1" fill="#223136" transform="matrix(.55013 17.55046 -37.26788 1.1682 220.5 89.4)"/><circle r="1" fill="#97beff" transform="rotate(85.3 -16.3 32.6) scale(31.29956 198.55432)"/><ellipse cx="151" cy="92" fill="#c2a27e" rx="42" ry="24"/><circle r="1" fill="#366696" transform="matrix(-151.02041 25.00127 -5.89982 -35.6379 188.6 146)"/><path fill="#4b4e38" d="M171.6 78.1l-45.8-13.7 3.3-1.2-52.4 15.1z"/><circle r="1" fill="#76a5ed" transform="rotate(109.3 99.2 70.4) scale(60.40046 171.27506)"/><circle r="1" fill="#c2ddff" transform="matrix(-13.03848 3.98626 -9.58124 -31.33883 0 60.4)"/><circle r="1" fill="#b3a695" transform="matrix(57.73786 4.03742 -.29268 4.18556 187.5 108.8)"/><path fill="#59594e" d="M48 73h60v32H48z"/><path fill="#d4ccbe" d="M184.4 70.3l-2 36.5-31.6-26.5-3.9 34.4z"/><path fill="#41505a" d="M186 73h70v37h-70z"/><path fill="#9cc1ee" d="M136 64l83-30 52 39z"/><ellipse cx="33" cy="129" fill="#5071a4" rx="188" ry="19"/><path fill="#4f5348" d="M149 104l-29-14 29-1z"/><circle r="1" fill="#a9967d" transform="matrix(-2.15077 -7.60068 20.99222 -5.9402 40.3 84.5)"/><path fill="#d8d5cc" d="M110 77l14-1-9 25z"/><path fill="#384246" d="M1 93h78v15H1z"/><path fill="#aaacac" d="M95.9 79l-17.4 24.5 4.4-32-26.2-.3z"/><path fill="#575e52" d="M118 70h107v4H118z"/><ellipse cx="237" cy="149" fill="#226299" rx="59" ry="35"/><path fill="#d6cdbe" d="M163.7 94.7l-31 18 48.3-2.2-52.5-35.6z"/><circle cx="20" cy="22" r="55" fill="#99bef3"/><circle r="1" fill="#325a8d" transform="matrix(57.97702 13.79332 -7.60853 31.9807 117.5 169)"/><path fill="#f5efe6" d="M170 73h12v9h-12z"/><ellipse cx="160" fill="#77a4e4" rx="148" ry="32"/><ellipse cx="89" cy="111" fill="#c4b3a3" rx="63" ry="2"/><path fill="#586459" d="M84.3 71.5l86.2-2.6-6 28.9-7.7-20.3z"/><path fill="#002d52" d="M121 168h103v2H121z"/><ellipse cx="14" cy="130" fill="#547fb7" rx="54" ry="19"/><path fill="#655d55" d="M142 113h63v4h-63z"/><path fill="#9b9a8d" d="M227.1 71.2l43.9 2.7-30.9 1.6 6.9 14.8z"/><path fill="#414e4b" d="M77.1 107.3l29-32.4 1.8 14.7 14.2 13.8z"/><path fill="#eee2cd" d="M136 80h16v8h-16z"/><ellipse cx="14" cy="91" fill="#ceb499" rx="22" ry="2"/><path fill="#676b71" d="M136.3 87.2l-1.2 3.4-31.4 27.1 26.1-40.4z"/><path fill="#09252b" d="M271 89.1v37.5L241.6 98z"/><ellipse cx="12" cy="55" fill="#a3c6ec" rx="102" ry="20"/><path fill="#302b36" d="M19.8 82.8l-.4-3 16.8-2.6.4 3z"/><path fill="#8db5e6" d="M264.6 72l-12.8-33.2L-16 .4l211.3 70.3z"/><path fill="#6f716e" d="M27.8 100.8l28.2 6.6-1.8 7.8-28.2-6.6z"/><path fill="#b5a89c" d="M191.6 108.3l3.4-11 3.2 14.8-16.1 2.9z"/><ellipse cx="68" cy="99" fill="#25383f" rx="9" ry="12"/><path fill="#978c7c" d="M161 94h17v14h-17z"/><path fill="#636351" d="M143 108l-10-8 21-15z"/><path fill="#bed8f5" d="M15 71l-31 16 32 2z"/><path fill="#094373" d="M144 154h106v3H144z"/><ellipse cx="43" cy="85" fill="#c9beb3" rx="20" ry="2"/><path fill="#626262" d="M41 95l-44 8 2-13z"/><path fill="#a1a093" d="M71.8 70l7.8 10.5 24.3-8.2-9.1 12.4z"/><path fill="#556058" d="M143 80l19-8-45-6z"/><path fill="#42699a" d="M65 112l206 6-116 34z"/><circle r="1" fill="#699add" transform="matrix(188.58726 41.80879 -2.98991 13.48662 214.1 0)"/><path fill="#2b3754" d="M194 70l11 40 1-34z"/><path fill="#273843" d="M231.8 104l-10.9 1.7-4.7-29.7 10.9-1.7z"/><path fill="#294b7c" d="M0 168h121v2H0z"/><path fill="#d5cfc3" d="M151 80h8v33h-8z"/><path fill="#b3b7b3" d="M191 112h65v2h-65z"/><path fill="#5a656e" d="M214.7 77.4l-9.6 44.6 16.6-28.2 15.5 3.8z"/><path fill="#bead94" d="M118 101h20v13h-20z"/><path fill="#93baea" d="M269.2 70L128 64.3l-20.8 6.5L-16 4.8z"/><path fill="#464e66" d="M86 82h19v18H86z"/><path fill="#595049" d="M18 80h5v9h-5z"/><path fill="#5b695b" d="M83 70h78v7H83z"/><path fill="#4e76a5" d="M107 158h75v6h-75z"/><path fill="#65758d" d="M193.3 103.6l-10-1.4 3.4-23.8 10 1.4z"/><circle r="1" fill="#5a6a7b" transform="matrix(.00669 -1.20334 75.37435 .41881 108.7 114.3)"/><ellipse cx="111" cy="107" fill="#8a7f5d" rx="23" ry="3"/><path fill="#86867a" d="M80.8 73.3l16.4-.5-68.1.9 32.1 16.9z"/><ellipse cx="38" cy="157" fill="#4d6ca1" rx="40" ry="11"/><path fill="#536379" d="M193 99l45 9-31 3z"/><circle r="1" fill="#b2a894" transform="rotate(35.8 -75.7 257.7) scale(2.20174 23.41596)"/><path fill="#d9d1c1" d="M164.7 93.7l-9.4 21-10-4.4 9.4-21z"/><path fill="#9ba672" d="M244 82h6v4h-6z"/><path fill="#9b9fa1" d="M87 77l1 22H78z"/><path fill="#4d5955" d="M84.6 82l-4.1 10.7-.5 2.7-72.6 19.7z"/><path fill="#688dbb" d="M17.5 140.2l-9.2-18.8 8-19.9-31.1 37.3z"/><path fill="#51595d" d="M53.2 76.8l-36.3 36.4 31.4-30.7 22.1-4.7z"/><path fill="#627ea8" d="M130 147h56v3h-56z"/><path fill="#526058" d="M252.3 111.8l-31.6-43.7 18.4 47.1L271 108z"/><path fill="#d2d1c6" d="M168.7 78l1-6.5 8.2 5.6-10 15.8z"/><path fill="#00355d" d="M117 166h25v4h-25z"/><path fill="#c3ccd4" d="M43.5 76.2l-1.6 4.7-10.6-9-11.9-6.6z"/><path fill="#696853" d="M175 67l15 8-1-7z"/><path fill="#033362" d="M232.5 134.7v1l-27-2.4v-1z"/><ellipse cx="90" cy="80" fill="#d4c9ba" rx="9" ry="2"/><path fill="#e6ded3" d="M110 79h14v7h-14z"/><path fill="#716e65" d="M34 108h57v3H34z"/><ellipse cx="222" cy="138" fill="#3c70a6" rx="91" ry="4"/><path fill="#3e6fa9" d="M0 113h72v5H0z"/><path fill="#95b7d9" d="M209.8 56.1l-3.7 19.1-11.8-6.6-49.5 1z"/><path fill="#273636" d="M105.1 104.9l-26.4 2.7-31.4-1.5 24.7-3.4z"/><path fill="#25324a" d="M12 113l13-2-5-11z"/><circle r="1" fill="#82ade5" transform="matrix(-2.3658 9.85427 -149.71805 -35.94412 173 28)"/><path fill="#1e4778" d="M98 149h49v4H98z"/><path fill="#34484a" d="M35.9 98.7L56.5 87l-15.7 18.6L39 82.9z"/><path fill="#9b968e" d="M154 84h3v24h-3z"/></g></g></svg>