<svg xmlns="http://www.w3.org/2000/svg" viewBox="0 0 1200 1800"><defs/><filter id="a"><feGaussianBlur stdDeviation="12"/></filter><rect width="100%" height="100%" fill="#344058"/><g filter="url(#a)"><g fill-opacity=".5" transform="translate(3.5 3.5) scale(7.03125)"><circle r="1" fill="#f8f0d2" transform="rotate(35.2 -153.3 171.7) scale(153.72074 166.77064)"/><circle r="1" fill="#060a0b" transform="rotate(91.7 -46 131.5) scale(73.27065 37.575)"/><circle r="1" fill="#fffffd" transform="matrix(166.40848 29.4825 -6.93244 39.12887 93.4 21)"/><path fill="#cdc0a4" d="M64 138l73 45-37-51z"/><circle r="1" fill="#394c67" transform="matrix(-42.3135 32.01721 -21.95623 -29.01705 76 245)"/><circle r="1" fill="#0e150a" transform="matrix(27.23113 11.94044 -7.2406 16.51277 83.8 174.4)"/><ellipse cx="56" cy="4" fill="#ebf9ff" rx="75" ry="21"/><circle r="1" fill="#c3bba4" transform="matrix(87.95543 73.54216 -19.03448 22.76498 149.5 95.7)"/><circle r="1" fill="#a6acab" transform="matrix(-20.07366 2.73218 -10.6443 -78.20497 29.8 152.4)"/><circle r="1" fill="#6a7993" transform="matrix(-133.14108 -4.41674 .40327 -12.15655 38.8 251.2)"/><path fill="#5299ff" d="M140.5-16l-12.8 32.7L179-16l-26.5 46.9z"/><path fill="#40372d" d="M108.6 115.2l16.3 32.9L59 121l-18 28.2z"/><circle r="1" fill="#fff5d5" transform="matrix(8.59498 -41.32997 10.29042 2.14 166.4 44)"/><ellipse cx="15" cy="39" fill="#dcc89c" rx="143" ry="12"/><ellipse cx="143" cy="145" fill="#abadac" rx="22" ry="80"/><path fill="#636466" d="M0 76h5v180H0z"/><path fill="#00173d" d="M93.2 230.7l1.8-18.5-32.2.1-7.5 11.8z"/><path fill="#231b15" d="M61 117h38v13H61z"/><path fill="#b0b7b3" d="M32 81h133v16H32z"/><path fill="#737274" d="M166 72h4v158h-4z"/><path fill="#1c2122" d="M59 219h13v27H59z"/><path fill="#292929" d="M86 226h34v10H86z"/><path fill="#8d9093" d="M170 271l-56-113 8 81z"/><path fill="#5e5a4e" d="M144.4 76v1l-92.8 5v-1z"/><path fill="#968971" d="M71 38h11v28H71z"/><path fill="#6e6f6c" d="M48 164h10v79H48z"/><circle r="1" fill="#817b6e" transform="rotate(40.9 -69.5 26) scale(32.50053 9.73274)"/><ellipse cx="143" cy="47" fill="#e4d3b1" rx="63" ry="19"/><path fill="#969b9c" d="M49.1 195.6l3-99.9-39.7 151.8 32.7 1.2z"/><path fill="#003496" d="M60.3 218l-3.1-7.7 10.9-5.9 4.4 11.7z"/><path fill="#7588a6" d="M73.6 249.6l-3-21.8 9.8-1.4 3 21.8z"/><path fill="#a69b83" d="M90 128l-28 17 57 15z"/><path fill="#e8e9e1" d="M145.4 9.8l2 22.9-40.8 3.5-2-22.9z"/><path fill="#7dadf5" d="M139-16l-6.9 41.4-11.8 3.4 18-44.8z"/><path fill="#312c27" d="M46.9 155.1l19.9-14.4 27.8-27.8-35.2 13z"/><ellipse cx="87" cy="255" fill="#6f8096" rx="80" ry="11"/><path fill="#bac0bb" d="M25 72h97v6H25z"/><path fill="#a7c3ed" d="M99 32.1l-8.1-8.4 4.7-15.8L125.7-16z"/><path fill="#eff1f2" d="M16 0h39v29H16z"/><path fill="#2b2c27" d="M64 145l15 65 38-26z"/><path fill="#b0a48d" d="M13 14l6 17-24 5z"/><path fill="#6ea0ed" d="M132 7l13-23 40 24z"/><ellipse cx="66" cy="66" fill="#c1cbcc" rx="54" ry="2"/><circle r="1" fill="#574f63" transform="matrix(16.51673 63.27067 -7.70554 2.01152 0 242.7)"/><circle r="1" fill="#adb4b4" transform="matrix(6.47195 2.13765 -16.81723 50.91589 26 139.4)"/><path fill="#60665e" d="M60 145.7l2.6-5.4 57.5 28-2.7 5.4z"/><path fill="#7a8697" d="M94.9 235.2h35l46.6 3.9-68.4 31.9z"/><path fill="#fff0ce" d="M107.8 151.4l-5.9 1-1.7-9.8 5.9-1z"/><path fill="#574f42" d="M99 195h20v37H99z"/><path fill="#d6caaa" d="M28 12h14v41H28z"/><path fill="#3e4245" d="M49 213l-1 20 33 13z"/><path fill="#6a625b" d="M80.1 212.6l15.5-7.4-40-13 23.6 29.3z"/><ellipse cx="83" cy="61" fill="#857e6e" rx="20" ry="3"/><ellipse cx="64" cy="79" fill="#5d5a4c" rx="79" ry="1"/><ellipse cx="114" cy="68" fill="#6b6a5b" rx="39" ry="1"/><circle r="1" fill="#a5a9a2" transform="matrix(47.84608 1.58722 -.6768 20.40215 8 95.2)"/><ellipse cx="18" cy="86" fill="#7d7c74" rx="3" ry="39"/><ellipse cx="133" cy="52" fill="#c9b490" rx="21" ry="6"/><path fill="#bbd3f7" d="M71.2 28.1l7.6-2.8.3-23.4-25-9.8z"/><path fill="#b3b8b7" d="M152 188l2-56-29-50z"/><path fill="#7d786b" d="M70 93h28v5H70z"/><path fill="#a8aeab" d="M36.6 157.1l18 19.6-7.4-32 14.2-44z"/><path fill="#ece8da" d="M160.8 11.4l19.8-9.7L163.2 89l-9-21.2z"/><path fill="#1d2a3b" d="M84 247l13-7-19-38z"/><path fill="#534f46" d="M115 128.4l.5 44.7 6-16.7-4.6-18.4z"/><path fill="#787365" d="M49.5 158.7L75.9 141l26.5-1.8-25.7-7.2z"/><path fill="#3f3933" d="M76.7 109.7l30.4 15.8 1.1 16.1L60.6 118z"/><circle r="1" fill="#706657" transform="rotate(146.3 18 68.9) scale(14.43606 2.9958)"/><ellipse cx="114" cy="72" fill="#909187" rx="40" ry="3"/><path fill="#948876" d="M65 12h3v13h-3z"/><circle cx="1" cy="19" r="11" fill="#ece0c4"/><path fill="#968e82" d="M150 87h6v37h-6z"/><ellipse cx="15" cy="193" fill="#9fa5a9" rx="11" ry="34"/><path fill="#bfaf93" d="M94 17L80 41l10 11z"/><path fill="#9e9f9b" d="M144.8 242l-35.3 2.2 14.7-4.9 11.7-123.5z"/><circle r="1" fill="#98988d" transform="matrix(22.14294 20.77338 -5.47827 5.83945 112.8 112.7)"/><path fill="#d1c2a0" d="M46 50h49v6H46z"/><circle r="1" fill="#8a8a80" transform="matrix(3.73437 .83473 -3.08686 13.80983 36.5 137.1)"/><path fill="#68645e" d="M185 127h-31l26-9z"/><path fill="#e7f0fa" d="M1.4 11.6l76.4 3.3L6.3-16-16 22.2z"/><path fill="#908d7f" d="M-5 68l-11-27 82 17z"/><path fill="#8a8d8f" d="M4 223h45v20H4z"/><path fill="#adb2ae" d="M42 79l55 1-59 30z"/><circle cx="87" cy="207" r="3" fill="#c8ada7"/><path fill="#575552" d="M155.6 246.6L185 264l-1.2-24.4-20.1-.7z"/><path fill="#f4ecd5" d="M106 52l16-45-17 6z"/><path fill="#1f261f" d="M56 190l16-9-9-22z"/><path fill="#9a8e79" d="M74 28h5v38h-5z"/><path fill="#dbd0b6" d="M47 30h119v10H47z"/><path fill="#425563" d="M25 251h16v5H25z"/><ellipse cx="22" cy="154" fill="#acb3b5" rx="4" ry="80"/><ellipse cx="133" cy="72" fill="#cccfca" rx="112" ry="1"/><ellipse cx="112" cy="76" fill="#bdc1bd" rx="45" ry="2"/><path fill="#858182" d="M57 206l-4-7 19 3z"/><path fill="#a9aca3" d="M100.4 110.6l21.9 22.2-1-16.8-67-33.7z"/><path fill="#dad1b5" d="M8 35h66v14H8z"/><path fill="#91aad5" d="M73 227h2v19h-2z"/><path fill="#727571" d="M53 155h3v70h-3z"/><ellipse cx="55" cy="68" fill="#666350" rx="38" ry="1"/><path fill="#a3a8a0" d="M110.3 109.6L64.6 99.3l-22.7 33.8 37-26.5z"/></g></g></svg>