<svg xmlns="http://www.w3.org/2000/svg" viewBox="0 0 1800 1200"><defs/><filter id="a"><feGaussianBlur stdDeviation="12"/></filter><rect width="100%" height="100%" fill="#26384c"/><g filter="url(#a)"><g fill-opacity=".5" transform="translate(3.5 3.5) scale(7.03125)"><ellipse cx="37" cy="6" fill="#b5daf1" rx="251" ry="102"/><circle r="1" fill="#917652" transform="rotate(-11.7 643.7 -153.8) scale(136.56371 67.01646)"/><ellipse cx="113" cy="30" fill="#75b1e7" rx="128" ry="34"/><circle cx="22" cy="130" r="82" fill="#827665"/><circle cx="154" cy="118" r="58" fill="#30444b"/><circle r="1" fill="#464738" transform="matrix(17.61128 -9.31704 16.55908 31.30035 24.1 77.9)"/><ellipse cx="210" cy="73" fill="#716856" rx="196" ry="11"/><path fill="#f8f9f1" d="M53 54h75v8H53z"/><ellipse cx="216" cy="3" fill="#3d7db9" rx="123" ry="29"/><circle r="1" fill="#998776" transform="matrix(-27.00365 12.30627 -28.10075 -61.66147 76.2 160.3)"/><circle r="1" fill="#003859" transform="matrix(19.35591 -35.06318 47.44505 26.19107 227 117.2)"/><path fill="#82a5c0" d="M115 40h141v25H115z"/><ellipse cx="96" cy="96" fill="#484c48" rx="12" ry="30"/><path fill="#01294a" d="M108.2 146l55.8-6 1.9 18-55.7 5.8z"/><path fill="#7e7769" d="M114 60h58v36h-58z"/><circle r="1" fill="#9bbad2" transform="matrix(-31.34897 -15.84852 6.4979 -12.85308 50.6 47)"/><path fill="#a48d79" d="M107 166h62v4h-62z"/><circle r="1" fill="#71a3d4" transform="rotate(141.9 19.3 6.7) scale(77.77735 30.28714)"/><ellipse cx="185" cy="111" fill="#968c80" rx="13" ry="4"/><path fill="#414a30" d="M63 67l-72 9-7-27z"/><path fill="#79766c" d="M160.8 133.4l19.3-4.6 6.8 10-34 2.7z"/><circle r="1" fill="#847e74" transform="matrix(66.17491 45.3632 -14.32733 20.90042 0 152.3)"/><path fill="#62564a" d="M168 69h72v14h-72z"/><path fill="#151418" d="M135.2 113.7l-7.5 22.3 16.4-5.9-2.8-9.3z"/><ellipse cx="251" cy="45" fill="#6897bd" rx="61" ry="21"/><path fill="#8a837b" d="M41.5 51.7L14 120.5l-30-3.7 49.4-15z"/><path fill="#aa9885" d="M87.3 140.4l2 14.9-16.5-21L70 72.9z"/><path fill="#5c5345" d="M30 115l48 33-94-29z"/><circle r="1" fill="#103449" transform="rotate(7 -1183.7 1670.5) scale(68.24884 13.86405)"/><ellipse cx="107" cy="128" fill="#8b6a67" rx="22" ry="5"/><circle r="1" fill="#6294c3" transform="rotate(10 -27 606.1) scale(174.57832 10.98582)"/><path fill="#212c2b" d="M78 114l61 5-30 7z"/><ellipse cx="50" cy="75" fill="#a8a9a6" rx="17" ry="3"/><path fill="#3a4942" d="M113 71l15-3-12-11z"/><path fill="#394149" d="M0 79h51v6H0z"/><path fill="#88adcb" d="M17 63l109-28-69-9z"/><circle cx="255" cy="116" r="39" fill="#00324e"/><path fill="#0b000b" d="M42.6 101.5l-6 1-1.2-8 6-1z"/><circle r="1" fill="#f2f3ef" transform="matrix(-1.46913 2.49925 -7.6674 -4.50712 59 56.7)"/><path fill="#457eb1" d="M157.9-34.9L283.8 11 272 43 146.2-3z"/><path fill="#898477" d="M149 108l4-34 26-15z"/><path fill="#575f46" d="M18.1 52L37 66.2 17 33.7l-3.7 35.7z"/><path fill="#8aa8c3" d="M121 55h135v7H121z"/><circle r="1" fill="#7f766b" transform="matrix(-85.1633 -5.27311 .2942 -4.75159 225.4 68.8)"/><path fill="#867a72" d="M0 100l62-10-78-10z"/><path fill="#83a9ca" d="M17.5 19.5H-16l14.1 34.7L80 25.4z"/><path fill="#25361a" d="M40 59h9v8h-9z"/><path fill="#5f5f57" d="M164 91L74 62l26 50z"/><path fill="#1a2e3e" d="M179 75h12v14h-12z"/><path fill="#fffef7" d="M60 55h53v2H60z"/><path fill="#46482f" d="M3 52h20v22H3z"/><ellipse cx="87" cy="65" fill="#879ea4" rx="42" ry="2"/><circle r="1" fill="#a37c66" transform="matrix(-17.0754 -19.5739 4.015 -3.5025 95.4 147.8)"/><path fill="#44413c" d="M36 149.7l-10.3-11.5L9.5 151l20.3-24.6z"/><circle r="1" fill="#152d3b" transform="matrix(.87127 -5.7859 9.77457 1.4719 168.5 119.8)"/><path fill="#2d3030" d="M117 123l-3-43-9 39z"/><path fill="#535452" d="M175.1 92.2L62 115.3l-31-8.6 39 2.9z"/><path fill="#000002" d="M19 101l-2-4 5-4z"/><circle r="1" fill="#585c53" transform="rotate(178.9 57.4 35) scale(60.9681 2.18857)"/><path fill="#84837b" d="M131.2 80.4l4.4-8.6-17-.4 2.2 27.9z"/><path fill="#d4dad0" d="M43 55l-8-3 1 9z"/><path fill="#77766e" d="M109.6 82.7l-15.9.6 6.1 26.8 4.8.1z"/><path fill="#988d7e" d="M4 127l-4 22 24-16z"/><path fill="#67625c" d="M160.8 170.9l-1.1 5.9L79.2 161l1.1-5.9z"/><path fill="#8aacc7" d="M71 43h84v12H71z"/><path fill="#918070" d="M100.6 131L-15.6 98l82.2 30.3 43.4-7.7z"/><path fill="#0a3c63" d="M178 85h78v18h-78z"/><path fill="#fff" d="M111.6 56l-.2 6h-5l.2-6z"/><path fill="#524c3e" d="M144 86.9l6.3 14.9 41.3 8.9-61.5 9.1z"/><path fill="#8a969e" d="M170 135h13v4h-13z"/><circle r="1" fill="#738490" transform="matrix(-12.06276 2.23451 -.18214 -.98327 136.2 139.7)"/><path fill="#716a5e" d="M149 128l40 7-18-9z"/><path fill="#828686" d="M125.8 104l.4 5-10 1-.4-5z"/><path fill="#544231" d="M99.6 132.8l27 .4-.2 12-27-.4z"/><path fill="#4b3c2b" d="M124 131h42v6h-42z"/><ellipse cx="198" cy="122" fill="#123d5c" rx="32" ry="10"/><path fill="#2d3534" d="M83.6 114.6l5.3 11.5 9.3-5.4 55.9-.4z"/><path fill="#757268" d="M171.5 84.6l8.2 16.6-.4-8.6-9.2-31.7z"/><circle r="1" fill="#8c877b" transform="matrix(1.21274 -6.63031 27.74688 5.07514 77 167.4)"/><circle r="1" fill="#5e8eb5" transform="matrix(57.71337 19.19338 -4.02901 12.115 224.5 30.6)"/><path fill="#4a4b47" d="M81 97h64v6H81z"/><path fill="#5e5749" d="M134 60h-14l14 4z"/><path fill="#1b3d54" d="M176.8 132.2l17.5-.1-70.6 32.6 104.4-5.6z"/><path fill="#a4998d" d="M22.2 93l13-6.1-6.7 11.7-1.3 1z"/><circle r="1" fill="#af8a68" transform="matrix(-.78888 9.2354 -8.14755 -.69595 73.8 122.4)"/><path fill="#77919b" d="M32.3 68.2L10.4 48.6l24.3-16.3L9.4 42.5z"/><path fill="#709fcb" d="M-30.5 1l201 21.1-2 19-201-21.2z"/><path fill="#657073" d="M30 53.9l11.8 20.7 11.9-27.3-4.5 26.8z"/><path fill="#8b918c" d="M86.8 97.5L67 103.4l18.8 10.4-17.5-37.1z"/><path fill="#5b554b" d="M60.1 135.8L39 130.9l21.2-1 14.7 13.9z"/><path fill="#060d17" d="M132.1 127.8l3.2 6.7 8.9-20.4-9.2 12.6z"/><path fill="#57554c" d="M23 78.2l8.5 8.8-14 8.8L.1 60.6z"/><path fill="#8c8478" d="M0 124l21-37-11-2z"/><path fill="#847f73" d="M194.1 83.7l22.8-10.2-31.1-6.5 34.1-3.6z"/><path fill="#3a463d" d="M116.4 62.1l5.9-1.1 1.3 6.9-5.9 1.1z"/><ellipse cx="54" cy="96" fill="#9b7363" rx="13" ry="5"/><path fill="#636762" d="M69.3 95.4L74 68.6l13.1 17.3-32.6-4.2z"/><path fill="#726f66" d="M166 102l8 12 21-4z"/><path fill="#7da3c3" d="M271 66.8L86.1 23l38.7 43.8-3.6-8z"/><ellipse cx="255" cy="80" fill="#363032" rx="32" ry="3"/></g></g></svg>