<svg xmlns="http://www.w3.org/2000/svg" viewBox="0 0 1800 1200"><defs/><filter id="a"><feGaussianBlur stdDeviation="12"/></filter><rect width="100%" height="100%" fill="#3f4147"/><g filter="url(#a)"><g fill-opacity=".5" transform="translate(3.5 3.5) scale(7.03125)"><circle r="1" fill="#a4a9a8" transform="matrix(186.34945 -2.2653 1.23882 101.90807 119.1 123.5)"/><circle cx="42" cy="165" r="31" fill="#ffe9d2"/><circle r="1" fill="#e7e7dc" transform="matrix(-11.09062 -11.58546 19.31756 -18.49247 175 140.6)"/><circle r="1" fill="#23221d" transform="matrix(-2.90128 20.74715 -27.84419 -3.89373 121.9 36.5)"/><circle r="1" fill="#111e29" transform="matrix(26.42119 19.27172 -8.39653 11.5115 227.8 129.2)"/><path d="M119.8 166.6L92.3 136l12-10.7 27.4 30.5z"/><circle r="1" fill="#abb8ba" transform="matrix(-21.56066 2.71415 -4.0265 -31.9857 200.9 78)"/><path fill="#3a3f48" d="M54.6 137.8l-65 2.3-2.2-64 65-2.2z"/><path fill="#edccad" d="M135 153h121v9H135z"/><path fill="#c1cace" d="M101.4 99.3L87.7 88.1l34.9-38.5 11.9 15.7z"/><path fill="#0d0100" d="M81 141.4l-34.3-15 15.2 12.5L93.6 185z"/><path fill="#10100f" d="M104 99h41v14h-41z"/><path fill="#bec5c7" d="M92.1 39.2l-26-12.9.7-14.7 29.4 17.7z"/><circle r="1" fill="#deb796" transform="matrix(-.17255 -2.99816 50.31291 -2.89566 39.4 127.6)"/><path fill="#202527" d="M105.2 78.3l-11.8-2.5L88 57.7 107.9-.2z"/><ellipse cx="165" cy="169" fill="#facca2" rx="55" ry="4"/><circle r="1" fill="#8c9698" transform="rotate(60.8 48.3 171.2) scale(29.64254 20.51438)"/><path fill="#2a3337" d="M271 77l-48 23-2-25z"/><path fill="#bdc7c8" d="M250.7 44.1l-52 6.8 21.2 58.9 1.5-47.2z"/><path fill="#192428" d="M192.3 28.7l58.3 17.7-45.5 1.1-5.8-2.4z"/><path fill="#292b25" d="M43.8 44.9L-16 31.1V5.6l75.2 19.9z"/><path fill="#d1aa8b" d="M101.2 142l-22.5 2.8 6.2 14.3 27.3 25.9z"/><ellipse cx="214" cy="165" fill="#140804" rx="50" ry="2"/><path fill="#1b2832" d="M0 128l-16-74 33 16z"/><ellipse cx="79" cy="130" fill="#d9cabc" rx="15" ry="6"/><path fill="#ced2ca" d="M197.7 130.9l-5.9 1.2-9.5-45 5.9-1.2z"/><circle r="1" fill="#bd9e86" transform="matrix(3.25356 9.8764 -38.11075 12.55472 5.8 151.7)"/><circle r="1" fill="#989c9c" transform="matrix(.46596 8.6037 -29.09143 1.57554 123.2 122.2)"/><path fill="#2c211c" d="M109.6 125.7l-39.4 20.5 61.9 2.2-24.2 36.6z"/><circle r="1" fill="#c3c6bf" transform="matrix(-12.43975 -19.57598 3.40051 -2.16089 93.6 82.7)"/><path fill="#dbdfda" d="M210.5 55.3l-8.5-1.7-32.6-32.3 4-2.1z"/><circle r="1" fill="#060000" transform="matrix(-39.67252 6.44519 -.3134 -1.92908 19.6 135.2)"/><circle r="1" fill="#687f97" transform="matrix(18.49135 -38.4193 8.63302 4.1551 31.8 77)"/><ellipse cx="229" cy="135" fill="#38424b" rx="26" ry="19"/><circle r="1" fill="#4b4842" transform="matrix(-19.35454 12.4254 -28.22797 -43.96959 119.7 15.9)"/><path fill="#c4b5a5" d="M255.4 165.1l-65.9-2.4-48-17.1L271 157.4z"/><circle r="1" fill="#434749" transform="rotate(-89.6 160.7 -48.7) scale(12.06282 14.90175)"/><path d="M-16 154v16l42 4z"/><path fill="#596e83" d="M179 68l-59 73 69-21z"/><path fill="#1d0c05" d="M129 162h49v3h-49z"/><path fill="#8f9eaa" d="M140.6 83.3l-39.3-19.1 44-1.5 28-8.9z"/><path fill="#69747c" d="M198 111l-21-72 30 19z"/><ellipse cx="97" cy="158" fill="#b79e8a" rx="7" ry="19"/><circle r="1" fill="#c9c3bd" transform="matrix(2.73144 10.12317 -27.73366 7.48311 32.8 154.8)"/><path fill="#424a54" d="M123.1 87.8l-43.8 37 72.5-31.6-21.3-10.4z"/><ellipse cx="248" cy="97" fill="#f4ffff" rx="13" ry="2"/><path fill="#47443d" d="M25.7 40.2L92.3 4.9 113 52.3 62-4z"/><path fill="#637787" d="M215 57l31-5-24 41z"/><circle r="1" fill="#99acbf" transform="matrix(-1.2273 3.82258 -16.78304 -5.38845 27.8 45.8)"/><circle r="1" fill="#cfd1ca" transform="matrix(8.45116 25.98421 -4.49001 1.46034 212.6 74.5)"/><path fill="#2a3c55" d="M127 150h32v5h-32z"/><path fill="#4d5451" d="M271 10l-73 30-57-56z"/><path fill="#475768" d="M190 132h37v18h-37z"/><path fill="#c0c4be" d="M208 126l-21-7-24 40z"/><circle r="1" fill="#414a4d" transform="matrix(16.94404 -7.19216 5.20934 12.2727 250.9 81.9)"/><path fill="#303537" d="M83 64l10.1 6.9 40.2-37.8-24.3-5.7z"/><path fill="#e3e2d6" d="M97 82l25-11-24 23z"/><path fill="#393f43" d="M15.7 125.1l28.6-1.6 7.4-33-67.7 37.9z"/><path fill="#5b6c80" d="M50 83h43v39H50z"/><path fill="#6d7f92" d="M115 50L95 81l30-15z"/><path fill="#f3c8a1" d="M219 168h37v2h-37z"/><path fill="#191313" d="M22 130h44v5H22z"/><path fill="#adbac3" d="M61 24l30 1-24-9z"/><circle r="1" fill="#5a534a" transform="matrix(13.90707 10.32574 -20.73205 27.92264 154.7 3.4)"/><path fill="#181211" d="M79 119h14l-2 7z"/><circle r="1" fill="#bfb4a9" transform="matrix(12.17595 -13.28772 12.94703 11.86377 50 151.6)"/><path fill="#9d8370" d="M7.1 139.2l-8.5 19.5 49.7-18.6-.7-5.2z"/><circle r="1" fill="#444749" transform="rotate(-60 102.2 -90.6) scale(14.23784 28.45119)"/><path fill="#c9bdae" d="M157 150h60v6h-60z"/><path fill="#dbbda5" d="M123 158h25v3h-25z"/><path fill="#b0b4b1" d="M85.3 58.2L65.5 68.6l19.4-.7 2.3-11.7z"/><path fill="#121116" d="M91 171l-6 3.5-20-33.4 6-3.6z"/><path fill="#e9d4bf" d="M136.2 146.8l-8 .4-.4-6 8-.4z"/><path fill="#b1a295" d="M78.5 168L73 150.4 25.6 185h78.1z"/><path fill="#848d90" d="M163 69l9-52-26 14z"/><path fill="#647fa1" d="M136.9 155.1l12.5 2.3 13.6-38-20.1 6z"/><path fill="#5c676f" d="M84 35l-57 69 38-85z"/><path fill="#d8b597" d="M126 164h18v5h-18z"/><path fill="#181514" d="M98 125l13 35 23-7z"/><path fill="#beac9d" d="M102.3 117.1l5.4 2.2 12.9 20.1L96 120.9z"/><ellipse cx="72" cy="127" fill="#cabcb1" rx="12" ry="6"/><path fill="#bec3c1" d="M139.3 66.9l-5.5.3-25.1-16.4 17.5 6.5z"/><path fill="#e4e3d9" d="M191 92l-7-8V69z"/><path fill="#252125" d="M85.8 146.2l-32.1-12.5 38.6 7.2 16.3-8.5z"/><path fill="#353c40" d="M238.8 74.3l-15.1 42.1 32.2 29.6-46-18.5z"/><path fill="#bbab9a" d="M206 162l-47-14 1 14z"/><path fill="#abb8bc" d="M212 49l25-4 25 14z"/><circle r="1" fill="#5c6d7d" transform="rotate(-167.5 132.4 44.5) scale(27.21136 13.28609)"/><path fill="#b49883" d="M-16 138.3l16.1 21-16.1-31 90.3-7z"/><path fill="#c8b19c" d="M134 166h61v4h-61z"/><ellipse cx="74" cy="4" fill="#535048" rx="43" ry="13"/><path fill="#948c89" d="M104.7 119.5l3.4 7.3-20.8 9.7-3.4-7.3z"/><path fill="#617489" d="M16 46h17v69H16z"/><path fill="#baaa9a" d="M84 150l15-11 6 13z"/><circle r="1" fill="#413530" transform="matrix(-.68223 -2.63798 10.65614 -2.75587 228.3 149.4)"/><path fill="#34383a" d="M141.7 67.3l-26.9-38.1-34.5-13.4 16 16.7z"/><path fill="#6b757d" d="M240.1 150.1l-40.7-8.1-8-4.2-15.6-20.6z"/><path fill="#a18b7d" d="M83.1 147.3l47.5 37.7-42.5-20.5-12.3-21.9z"/><path fill="#171818" d="M33 122l13-6 2-13z"/><path fill="#767e82" d="M169 25l41 41-69-28z"/></g></g></svg>