<svg xmlns="http://www.w3.org/2000/svg" viewBox="0 0 1800 1208"><defs/><filter id="a"><feGaussianBlur stdDeviation="12"/></filter><rect width="100%" height="100%" fill="#493e36"/><g filter="url(#a)"><g fill-opacity=".5" transform="translate(3.5 3.5) scale(7.03125)"><circle r="1" fill="#b8bbaf" transform="rotate(-29.5 154.7 -248.6) scale(119.19957 255)"/><path fill="#54320a" d="M177 17h79v85h-79z"/><circle r="1" fill="#1d211c" transform="matrix(75.5615 -3.36626 1.6119 36.18194 18.8 83.5)"/><circle r="1" fill="#a7aeae" transform="rotate(122.6 38.4 29.3) scale(48.28336 120.99416)"/><path fill="#c2d1cf" d="M37 138l55 20-51 8z"/><circle r="1" fill="#bbbebf" transform="matrix(33.56773 11.5673 -6.81857 19.78717 166.7 125)"/><ellipse cx="209" cy="89" fill="#1a1611" rx="36" ry="16"/><path d="M191.7 143.6l12-.2.6 31-12 .2z"/><circle r="1" fill="#a1a6aa" transform="rotate(-57.4 244.2 -149.4) scale(34.88649 38.98706)"/><path fill="#b5b5ad" d="M121 181l-68-77 40 2z"/><circle r="1" fill="#93a7ba" transform="matrix(1.0217 30.79889 -88.34969 2.93086 20.1 9.8)"/><circle r="1" fill="#98794e" transform="matrix(-31.02998 -5.47142 8.45246 -47.9363 204.8 31.7)"/><path fill="#443d33" d="M116 8l-26 95-47-10z"/><ellipse cx="159" cy="18" fill="#b8b6ad" rx="16" ry="83"/><path fill="#c4c2b5" d="M48 88l9-25-22-2z"/><path fill="#444138" d="M138 124h-34l53 62z"/><circle r="1" fill="#131c0e" transform="matrix(1.5763 19.5916 -40.66748 3.27203 14.3 122)"/><path fill="#ccbca0" d="M245.4 65.7l1.2-36 16 .6-1.2 36z"/><path fill="#d1ebec" d="M0 159h14v7H0z"/><circle cx="18" cy="54" r="16" fill="#232523"/><path fill="#a3b9d2" d="M197.1 1.3L148.3-.9l106.6-1.6L266.5 11z"/><path fill="#37342f" d="M169 140.8l-9.5 45.2 11.2-21.1 12-13.4z"/><path fill="#9a917f" d="M157 66l-58 69-7-114z"/><path fill="#57554c" d="M147 2.6l12.9 7.9-48.2 4.4-10.3-4z"/><ellipse cx="240" cy="53" fill="#1d1416" rx="4" ry="35"/><path fill="#3c362d" d="M181 32h30v18h-30z"/><path fill="#2a2724" d="M93 103L72 69l-51 33z"/><path fill="#37342c" d="M68.6 144l2.8-22.9 8 1-2.8 22.8z"/><path fill="#8d8c84" d="M56.1 79.2L24.6 66.8l30.2-7.7-37.5 38.4z"/><ellipse cx="70" cy="155" fill="#878c88" rx="45" ry="12"/><ellipse cx="87" cy="170" fill="#3f4034" rx="78" ry="4"/><path fill="#615a4d" d="M148 35v42l-10-24z"/><path fill="#9f8155" d="M164 104l33-81 3 35z"/><path fill="#2e2c27" d="M35.8 49.8l43.9 7.1-9.6 3.3 13.2 24.4z"/><path fill="#3b3025" d="M215 65h34v37h-34z"/><ellipse cx="60" cy="32" fill="#8e9caa" rx="36" ry="20"/><path fill="#24211c" d="M189 144h16v27h-16z"/><path fill="#b6bbbc" d="M72 124l-21-17 31-4z"/><circle r="1" fill="#b3aea4" transform="matrix(-6.66808 48.13684 -4.71745 -.65348 148.7 98.5)"/><path fill="#202f35" d="M32.5 183.8l-47.9-64.6 53 41.4 27.2 5.5z"/><path fill="#4d473a" d="M102.7 27l9.8-18.6 8.8 4.7-9.8 18.5z"/><path fill="#a6abb1" d="M180 108h9v63h-9z"/><path fill="#a9b1b3" d="M61.7 128.3l6 1.5 3.1 26.6-2.8 24.1z"/><path fill="#2f2b21" d="M199 105l36-17-77 13z"/><path fill="#9f9887" d="M76 138h51v23H76z"/><path fill="#a5a08c" d="M12 75.3l1.4 1.4-17.4 18-1.4-1.4z"/><path fill="#8b6d44" d="M189 32l82-21-96-11z"/><circle r="1" fill="#9f7d52" transform="matrix(-5.15844 -23.49074 10.4809 -2.30155 225.5 40.4)"/><path fill="#636157" d="M110 124l-21-8 12-22z"/><circle cx="136" cy="19" r="12" fill="#b2b2a7"/><path fill="#9fa39e" d="M38 136h6v30h-6z"/><circle r="1" fill="#3b362d" transform="matrix(-.0759 19.40814 -1.61072 -.0063 74 152.2)"/><path fill="#524e46" d="M118.8 86.6l-.7 5.2 24.6.9-5.7 15.1z"/><path fill="#686051" d="M127 35l10 11-18 11z"/><path fill="#b2b2ad" d="M155 0h19v90h-19z"/><path fill="#b5b1a6" d="M119.4 72.5l-13.9-33.9 9.8 48.2 26.1 3z"/><path fill="#5c564c" d="M122.1 189.1l7.2-45.4 32.6 5.2-7.2 45.4z"/><path fill="#6b5e4a" d="M143.4 96.3l-7.2-20.7-14.4-7.8 18.8 26z"/><circle r="1" fill="#3e4237" transform="rotate(-23.4 322.2 -53) scale(10.74841 26.28735)"/><path fill="#2e211c" d="M238 20h8v48h-8z"/><ellipse cx="16" cy="19" fill="#8b969e" rx="36" ry="21"/><path fill="#786f61" d="M111 82l-32-1 47-16z"/><path fill="#a1a5a4" d="M113-5L98 44l-37 3z"/><path fill="#896b3f" d="M175 0h6v95h-6z"/><path fill="#6f6859" d="M82 132h7v38h-7z"/><path fill="#2e2b20" d="M9.7 162.8l39.8 7.9.9-31.7-5.5 47z"/><path fill="#262019" d="M232 100l39-3-71-14z"/><path fill="#838279" d="M29.6 86l-3.1 7.3 31.8-22.6-.7 16z"/><circle r="1" fill="#4f4e48" transform="rotate(144.7 73.3 28.7) scale(5.23794 5.74023)"/><path fill="#aca89c" d="M120.6 116.7l-7.2-31.9-5.2.5-4.8 24.8z"/><path fill="#a5b1ab" d="M9.3 159.5l4.2 19.6-6.8 1.4L2.5 161z"/><path fill="#31322e" d="M51 55l-66 23 29-38z"/><path fill="#b1b6b5" d="M68 149H52l2 18z"/><path fill="#393a2b" d="M2 140h38v10H2z"/><path fill="#65543e" d="M229 69l17 22-3-38z"/><path d="M202 35h3v17h-3z"/><path fill="#adaeaa" d="M187.4 120.8l-6.1 16.9-50.7-18.5 6.1-16.9z"/><path fill="#3c3831" d="M166 147h12l2 27z"/><path fill="#b1ada2" d="M103 46.5l39.6 21.7-46.9-.7 16.8-32.2z"/><path fill="#272918" d="M93 178.4l-8-1 2-15.8 8 1z"/><path fill="#7a6444" d="M196.6 81.8l2.9 15.9-19.2-22.6-2.9-.2z"/><ellipse cx="138" cy="103" fill="#6b685f" rx="62" ry="2"/><circle r="1" fill="#a7a9a5" transform="rotate(99.2 12.6 150) scale(14.50391 2.29788)"/><path fill="#0a0c0f" d="M185 49l1-18-5 3z"/><path fill="#212117" d="M54 136l-70-58 4 62z"/><path fill="#393a31" d="M-.6 45.9l40.7 26.8.1 12.6L-16 70.2z"/><path fill="#35312b" d="M73.9 105.1l7.6-57.6-6.3 1.5 7.4 22.4z"/><path fill="#a7a497" d="M88.7 96.4l7.1 57.9-1-130.3-.3 85.9z"/><path fill="#969794" d="M183 112h73v33h-73z"/><path fill="#9c7e54" d="M226 38l-53 37 45-10z"/><path fill="#54524a" d="M112.7 5.3L109 35.7 97.5 51l4.9-18z"/><path fill="#6d6c68" d="M227.6 105.9L185 111l-.6-5 42.6-5z"/><path fill="#1a385a" d="M27.8 147.2l-9-1.8L38.5 163l-28.3 2.3z"/><path fill="#201b00" d="M57 177l22 4-22-20z"/><path fill="#b0ab9f" d="M176.6 85.8l-17.4-37.3-17.3 51.3 17.6 1.1z"/><path fill="#9ea9b4" d="M83-16L64 16 175-5z"/><path fill="#838a7d" d="M16 81h11v3H16z"/><path fill="#969388" d="M110.7 170.1l-18.3 1.8 6.2-21.6 29.5 11.8z"/><path fill="#483928" d="M256 66l-67 8 27 20z"/><ellipse cx="95" cy="53" fill="#a7a08f" rx="2" ry="51"/></g></g></svg>