<svg xmlns="http://www.w3.org/2000/svg" viewBox="0 0 4752 3168"><defs/><filter id="a"><feGaussianBlur stdDeviation="12"/></filter><rect width="100%" height="100%" fill="#45572b"/><g filter="url(#a)"><g fill-opacity=".5" transform="translate(9.3 9.3) scale(18.5625)"><circle r="1" fill="#dfaeaa" transform="rotate(87.3 -49.6 79.5) scale(34.7154 82.00007)"/><circle r="1" fill="#9f8e76" transform="matrix(103.59557 -42.17946 19.21163 47.18503 199.2 58.5)"/><circle r="1" fill="#d9bcbd" transform="matrix(-26.92078 14.53487 -8.5842 -15.89922 216.8 78.6)"/><circle r="1" fill="#434f1c" transform="matrix(-2.11903 -26.69463 49.2435 -3.90896 158.2 48.6)"/><path fill="#675659" d="M165 183l12-76-193 57z"/><ellipse cx="25" cy="132" fill="#e2cab8" rx="26" ry="16"/><path fill="#6a5c49" d="M-13.8 106.4l.6-33 131 2.2-.6 33z"/><circle r="1" fill="#7c9a45" transform="rotate(-174.8 62 -2.8) scale(122.95889 15.67727)"/><path fill="#3f323e" d="M285.3 183.2l-138-2.4 1.4-76 138 2.4z"/><path fill="#cdaead" d="M139 83h41v14h-41z"/><circle r="1" fill="#000207" transform="matrix(7.33164 -10.65775 8.00727 5.50833 255 18)"/><ellipse cx="72" cy="48" fill="#26241e" rx="52" ry="13"/><path fill="#364614" d="M167.2-11.6l-11.5 93.3-16.9-2 11.5-93.4z"/><circle r="1" fill="#836e6d" transform="matrix(-11.21719 -11.44394 33.36248 -32.70142 255 74.7)"/><path fill="#9dc556" d="M179 10h39v17h-39z"/><path fill="#071506" d="M117 79l11-14-37 15z"/><circle r="1" fill="#a2977f" transform="matrix(15.01285 -27.73341 17.58486 9.51916 227.8 58)"/><circle r="1" fill="#c6af96" transform="rotate(37.6 -146.7 170.7) scale(19.86588 8.6506)"/><circle r="1" fill="#726d5c" transform="matrix(14.94767 -5.20533 9.964 28.61269 114 135.1)"/><path fill="#81935b" d="M143.4 20.6l-17 35.6-2.4-27-33.5 3.5z"/><circle r="1" fill="#b5a09c" transform="matrix(11.22633 -7.9189 3.23983 4.59299 129.2 79.7)"/><path fill="#8d7674" d="M159 56.4l31.8 18.5-4.5 10.4-28.4 13z"/><path fill="#363b20" d="M-3.2 151.2l26-1.4.4 7-26 1.4z"/><path fill="#c7b09e" d="M58.7 95.8l-7.1 24.3-9.7 41.5-10.3-42.8z"/><path fill="#595a48" d="M138 159l39 5-11-93z"/><path fill="#767f96" d="M213.6 171.1l9.3-20.8-13.2 11.2-12.5 23.5z"/><path fill="#608335" d="M0 43l37-3 3-51z"/><path fill="#615b44" d="M-5.8 80.2l75.5 22.3 66.7 4.2L87 60z"/><path fill="#87b242" d="M61 4h30v10H61z"/><circle r="1" fill="#45472d" transform="rotate(-165 47.7 14.3) scale(7.69133 63.26761)"/><path fill="#879360" d="M89 70l23 2 22-30z"/><path fill="#6c882b" d="M175.5-16l5.7 55.5 59.3-22.6-91.1 15.3z"/><path fill="#bdafa2" d="M230.6 99.4l-39.7-5.2-.3-12.7 32.8-15.1z"/><path fill="#544c41" d="M267.9 87.9L230.7 82l13.5-14L271 56.7z"/><ellipse cx="24" cy="79" fill="#88835f" rx="38" ry="4"/><path fill="#8fac58" d="M70.3-16L110.9-.2 103.4 15l63.2-21.3z"/><path fill="#323029" d="M165.8-6.8L137 57.9l12.7-66.6-13.3 13.5z"/><circle r="1" fill="#aac375" transform="matrix(2.27292 2.18728 -10.17451 10.57288 184.8 25.1)"/><ellipse cx="177" cy="105" fill="#646640" rx="49" ry="9"/><path fill="#312f2c" d="M165 147l106-3-11-46z"/><circle r="1" fill="#464637" transform="matrix(22.26717 -11.65207 1.23879 2.36733 248.8 42.7)"/><path fill="#795f41" d="M-16 118l40 8-24-16z"/><path fill="#363a24" d="M39-12l30 74-27 15z"/><path fill="#676740" d="M66 141l64-12-109 54z"/><path fill="#b6a596" d="M134.1 100.6L253 63.9l-2.6-15.2-3.5 5.4z"/><path fill="#99c653" d="M74.6 68.1l-6.2 9.1-5-3.3 6.2-9.1z"/><path fill="#9f8e73" d="M10 96l48 11-59 19z"/><path fill="#6b6673" d="M105 145h45v13h-45z"/><path fill="#576037" d="M224.6 3.5l-13.2 17.6 31.2 2.5L271-16z"/><path fill="#dad2c7" d="M141 87h18v6h-18z"/><path fill="#261b1d" d="M194 28l-2 18 12-23z"/><path fill="#636c3f" d="M82 0h9v49h-9z"/><path fill="#14190e" d="M81 60h6v22h-6z"/><path fill="#bea998" d="M170.7 87.2l-1.9-2.4 20.5-16 1.9 2.4z"/><path fill="#232c13" d="M25.7 60l3 12.7L6.3 78l-3-12.6z"/><path fill="#323720" d="M118.3 77.8l-6-5.4 25.4-28.2 6 5.4z"/><path fill="#aa9573" d="M59 152l-41-24 16 30z"/><path fill="#847d53" d="M-7 99.2l-.8-9L55 84.9l.8 9z"/><path fill="#4b513e" d="M128.1 90.6l55.6 24.5-73.5 17 30.3-19.9z"/><path fill="#392b22" d="M58 86l22 18-20-6z"/><circle cx="56" cy="58" r="5" fill="#6aa130"/><circle r="1" fill="#30481b" transform="matrix(12.52083 19.9121 -12.72308 8.00034 4.5 11.4)"/><path fill="#32301d" d="M33 97h19v4H33z"/><path fill="#4b2415" d="M52 136l5-12-5-4z"/><path fill="#6e5b4c" d="M208 65V32l-32 60z"/><ellipse cx="255" cy="90" fill="#97897e" rx="34" ry="6"/><path fill="#404521" d="M238 58l-18-8 2-5z"/><ellipse cx="126" cy="107" fill="#a7827a" rx="3" ry="15"/><circle r="1" fill="#706f47" transform="matrix(.3625 -4.32967 49.03202 4.10526 25.7 161.2)"/><path fill="#886e53" d="M14 149l-9-2 18-14z"/><path fill="#b8c1cb" d="M116 80l11 13-4-11z"/><path fill="#2e291f" d="M22.4 87L8.9 85.3l44.9-3.9L31 87.9z"/><circle r="1" fill="#425615" transform="matrix(-3.1611 4.14954 -17.93272 -13.66107 170.2 36.7)"/><path fill="#859a46" d="M216.8 41.6l18.7-11.3-46.6-32L202.2 30z"/><path fill="#7b6d52" d="M111.3 127L69.7 91.9 85 86.1l41.2 34.8z"/><path fill="#322d1e" d="M94.7 150.3l-9.6 1.8-3.3 2.4 24 14.5z"/><path fill="#1b2217" d="M56 35h24v20H56z"/><circle r="1" fill="#918672" transform="matrix(1.38433 .5537 -7.83526 19.58955 136 30.6)"/><path fill="#57332b" d="M178.3 100.2L183 84l6.7 1.9L185 102z"/><path fill="#677b36" d="M-2.2 71.7l17 5.6-12.6 39-17-5.6z"/><path fill="#035292" d="M173 84l-15-9 3 6z"/><ellipse cx="47" cy="115" fill="#c6adad" rx="24" ry="3"/><path fill="#cfbcaa" d="M-2.4 137.9l7.9 8.2 14-11.6-11.6-11.3z"/><path fill="#3a312b" d="M185 68l18-16-10-7z"/><circle r="1" fill="#7c8e56" transform="matrix(12.72668 3.244 -.77816 3.05284 192.7 44.1)"/><path fill="#57652c" d="M168.3 61.7l-40.7 5 27.2 22.9 3.4-89.8z"/><path fill="#484d4c" d="M106.5 101.1l-15.8-.6 55.8-18.7-25 13.5z"/><path fill="#a8ca50" d="M172 9l-4-21 15 3z"/><path fill="#384828" d="M102.3 18.5L57.3-16 123 18 88.6 43.8z"/><path fill="#ac967d" d="M51.5 135.7l1.2 4.3 52.6-4.2-26.7-21.2z"/><path fill="#5d8b33" d="M61.6 31.7L87.2 9.3 50.5 30.1l-.6 3z"/><circle r="1" fill="#8a9aa2" transform="rotate(-166.8 115 69.2) scale(2.68123 4.02951)"/><path fill="#698234" d="M181 54l-37-11 19-7z"/><path fill="#4a4e2c" d="M208.7 36.7l-63.2 30.7 62.8-35.9 11.5-7z"/><path fill="#292c22" d="M89 65l4.2-29 26.6 19.1 8.7-23.2z"/><path fill="#25261f" d="M30 20h29v5H30z"/><path fill="#293225" d="M271 22.5l-16.8 27.4 4.3-65.9-13 48.3z"/><path fill="#81a777" d="M15.8 31.3L18 39l-5.8 1.7L10 33z"/><path fill="#735543" d="M48 104h13v8H48z"/><path fill="#88a436" d="M140 55v11h-10z"/></g></g></svg>