<svg xmlns="http://www.w3.org/2000/svg" viewBox="0 0 1800 1200"><defs/><filter id="a"><feGaussianBlur stdDeviation="12"/></filter><rect width="100%" height="100%" fill="#34465a"/><g filter="url(#a)"><g fill-opacity=".5" transform="translate(3.5 3.5) scale(7.03125)"><circle r="1" fill="#849ca7" transform="rotate(-30.8 142.5 -76.2) scale(255 83.80212)"/><circle r="1" fill="#fff" transform="matrix(8.55535 -10.19587 45.64752 38.30281 12 161.8)"/><ellipse cx="201" cy="169" fill="#fff" rx="32" ry="8"/><ellipse cx="255" cy="62" fill="#c5cbbe" rx="34" ry="20"/><circle cx="113" cy="98" r="70" fill="#334958"/><circle r="1" fill="#ffeaca" transform="matrix(-53.32865 -218.7629 5.3873 -1.31328 24.3 45.5)"/><circle r="1" fill="#abc4d3" transform="matrix(129.05818 -15.16085 1.412 12.01982 206.3 1.2)"/><path fill="#fff" d="M50.8 179.6l-20 23.8-53.6-45 20-23.8z"/><ellipse cx="201" cy="169" fill="#fff" rx="26" ry="9"/><ellipse cx="16" cy="111" fill="#27415c" rx="20" ry="35"/><circle r="1" fill="#fce6c6" transform="matrix(4.71152 -1.66406 19.39437 54.91193 59.3 169)"/><circle r="1" fill="#335264" transform="matrix(-6.17066 -14.74848 80.88346 -33.8411 173.5 67.6)"/><path fill="#81929f" d="M152 42L85 99l12-47z"/><path fill="#2c4257" d="M50.6 134.8l-18.2-64 36-.5L131.9 185z"/><circle r="1" fill="#ebe3cb" transform="matrix(55.33944 42.27552 -5.32737 6.97362 247.5 3.5)"/><path fill="#b7c6c6" d="M243.3 38.5l-9.4-10-23.4-9.2-17.5 7.9z"/><circle r="1" fill="#1b3546" transform="matrix(13.67923 -16.30227 54.39897 45.64615 216.7 125.3)"/><path fill="#fff5c8" d="M50.2 38.5l.8-.5 82.8 127.5-.8.5z"/><path fill="#496473" d="M193 93l78-1-151-79z"/><path fill="#d3cebe" d="M271 72.5l-21.2-.2-7 5-26.1-20.7z"/><path fill="#ffffe8" d="M30 1.6l32.8 50.3-.9.5L29.2 2.1z"/><path fill="#b3ada5" d="M40.6 112.3l-4.1-31.2-22.3 29.4 6.6-32.8z"/><path fill="#fff" d="M-5 177l55 1-66-55z"/><path fill="#cbd4da" d="M135.4 4l-37.1 7.4 35 1 39.5-2.5z"/><path fill="#2d435b" d="M-4 131l37-28 15 71z"/><circle r="1" fill="#2b4e69" transform="rotate(87.9 35.3 62) scale(7.45562 24.28559)"/><circle r="1" fill="#837163" transform="matrix(40.52897 -24.70552 2.49351 4.09057 124.5 110.3)"/><path fill="#99aabc" d="M13.3 18.8l-4 9.9L78-16-5.7-5.1z"/><path fill="#477086" d="M201.9 13.8l-4.6-12.6 56.2 9.2-4.9 27.8z"/><path fill="#173a5e" d="M5.8 73.7L-11 72.2l-5-27.4 36 10z"/><path fill="#315473" d="M97 31L29 42l4 19z"/><path fill="#ecdcc4" d="M31.3 60.4L38.2 90l15.6 78.5L7.5 2.2z"/><circle r="1" fill="#1f3447" transform="matrix(9.9269 3.71358 -4.87148 13.02211 107.9 102)"/><path fill="#5e6a72" d="M156 132l19 33 21-5z"/><path fill="#a0adb9" d="M38.7 43.5L-14 51.7l47-17.6 23.3-12.6z"/><path fill="#214f75" d="M60 17l42-22L42 5z"/><circle r="1" fill="#5b7d94" transform="matrix(-29.029 22.27473 -8.27396 -10.78283 160.1 35.7)"/><path fill="#446070" d="M239.9 34.2l-28 51.6-62.5-47.3 119.9-.4z"/><path fill="#d9cbb4" d="M53.2 142.9l-3.7-11.6-4.3 53.7 19.2-13.1z"/><circle r="1" fill="#fffff9" transform="matrix(-26.00052 4.7251 -.88907 -4.89225 187.2 169.1)"/><path fill="#27445e" d="M82 82L71 58l40 4z"/><path fill="#7b92a9" d="M-18 125.7l-2.3-7.7L18 106.3l2.3 7.7z"/><path fill="#9dadbd" d="M63 52L36 64l35-5z"/><circle r="1" fill="#5f717b" transform="matrix(17.2103 11.51955 -4.86315 7.26558 238.6 54.2)"/><path fill="#204366" d="M-1.9 13.5L19.5 10 15 6.6l-29.1 46.5z"/><path fill="#fff" d="M248.8 7.2l7-13.2 5.4 2.8-7 13.2z"/><path fill="#f5efe8" d="M222.6 163.9l-9.1 2.1-24 13.4L271 185z"/><circle r="1" fill="#85a3c1" transform="rotate(165.8 35.2 13.4) scale(19.25764 3.92255)"/><path fill="#8fa7b5" d="M161 26.6l-.8-2.8 62.7-20.4 1 2.8z"/><circle r="1" fill="#21425b" transform="rotate(109.3 -5 64) scale(17.62222 15.0279)"/><path fill="#7a92a5" d="M84 54h45v8H84z"/><path fill="#c6c2a5" d="M142.9 180.5L118.3 144l.8-.5 24.6 36.5z"/><ellipse cx="75" cy="44" fill="#859aac" rx="11" ry="3"/><path fill="#2e4f72" d="M22.2 40.2L6.9-26l1-.2L23 40z"/><path fill="#877868" d="M59.4 161.5l7.4 7.8.1-24.9-11.6-5.2z"/><circle r="1" fill="#1b2f3f" transform="matrix(-2.26263 -33.26507 23.05094 -1.56788 255 138.2)"/><path fill="#7e6952" d="M48.6 144l1-.3 9.8 28.3-1 .3z"/><path fill="#ffffe9" d="M27.2 48L15.9-16h1L28 48z"/><path fill="#6a7078" d="M19.9 159.4l62.5-75.5-36.1 26.3 6 12.2z"/><path fill="#7a858c" d="M219 61l-26-1 38 12z"/><path fill="#1a3a55" d="M20.4 71.3l2.4 11.6-38.8 46.5 11.9-24.9z"/><path fill="#274355" d="M129 128l114-30-67-29z"/><path fill="#254562" d="M27 75l-7 63 14-34z"/><path fill="#527086" d="M143.2 21.8L179 61.5l-68.8-26.4L198.4-16z"/><path fill="#1d4565" d="M96 18L71 30l-22-4z"/><path fill="#aeb5b2" d="M201.6 25.5l37-2.1-13.7-2.5 13.1 16z"/><path fill="#0c2943" d="M247 78l11 1 4-11z"/><path fill="#3f4f5d" d="M123.9 115l27.5-19.5-18.9 68.3L60.7 47.9z"/><path fill="#c0c8cb" d="M166 26.8l-31.6-19 1.5-2.6 31.7 19z"/><path fill="#1d384b" d="M99.6 107.8l67-31.2 1.8 3.6-67 31.2z"/><path fill="#fbf8f1" d="M-16 122.7L19.4 185H54L7.1 141.2z"/><path fill="#717c83" d="M122.9 37.4l10.2-22.2 36.4-9.1-70.9 24.1z"/><path fill="#e3d3b7" d="M8 80l-1 8-2-2z"/><path fill="#335568" d="M212 29.9l24.2 23.6-98.3 16.3 47-16.3z"/><path fill="#c3c7be" d="M261 45h-19l29 17z"/><path fill="#547a96" d="M130.6-10.1l31.3 18.8 31-4.8-104-1.3z"/><circle r="1" fill="#c7d3d9" transform="matrix(.89302 3.89913 -12.11606 2.77495 145 8)"/><path fill="#f8f1d6" d="M225.2 4.4L260-13l-37.2-1.1-11.2 1.9z"/><path fill="#2c455b" d="M73.6 140.6l-29-49.2 48.2 15.3 6.4 8z"/><path fill="#bba185" d="M43.8 141.8l-9.3.5 13.1-10.8-14.4-32.7z"/><path fill="#7a94a0" d="M178 32h64v3h-64z"/><circle r="1" fill="#c4c2b3" transform="matrix(-.84737 .531 -32.034 -51.11885 57.3 46)"/><path fill="#395c76" d="M141.4-16L33.1 17.5 175.3-16 106.6 9.2z"/><path fill="#91857a" d="M117 115l9-16 25-9z"/><path fill="#f6f1e2" d="M242.5 75.5l3.5-.7-2.2-3.4-14.1-4.9z"/><circle r="1" fill="#e3ddcd" transform="rotate(77.5 -2.3 24) scale(243.60662 1)"/><ellipse cx="154" cy="70" fill="#718593" rx="16" ry="2"/><path fill="#9aa09e" d="M230.6 42.7l-5.3 5.1 11.4.4L271 99.8z"/><path fill="#8da7bf" d="M66 31h18v5H66z"/><path fill="#f1e7d5" d="M58.3 145.7l-7.5 11.8-5-3.2 7.4-11.8z"/><path fill="#2d4b61" d="M132.4 95.8l-15-21.3 26.2-18.3 15 21.3z"/><circle r="1" fill="#4a6483" transform="matrix(6.23633 -3.0282 7.41551 15.27164 16 59.8)"/><path fill="#385c7e" d="M23 13.2l-2.5-7.6L29 2.8l2.5 7.6z"/><path fill="#849198" d="M154.7 39.1L106 63.4l33 .5-38.9 9.9z"/><path fill="#aabac6" d="M34.5 9.3L64.4-16l-77.5 29.6 99.5-26.5z"/><path fill="#fefff0" d="M16.4 25.7l1-.3 8.2 28.9-1 .3z"/><path fill="#2e4e6b" d="M41.4 61.6l-7.5-18.5 16.7-6.7 7.5 18.5z"/><path fill="#475766" d="M182.5 146.5l1.5-1-22.9 25 63.1-18.6z"/><path fill="#553920" d="M47.4 157.3l1-.3 2.2 7.7-1 .3z"/><path fill="#fffae6" d="M57 159h4v11h-4z"/></g></g></svg>