<svg xmlns="http://www.w3.org/2000/svg" viewBox="0 0 1200 1800"><defs/><filter id="a"><feGaussianBlur stdDeviation="12"/></filter><rect width="100%" height="100%" fill="#52332b"/><g filter="url(#a)"><g fill-opacity=".5" transform="translate(3.5 3.5) scale(7.03125)"><circle r="1" fill="#aebeb6" transform="rotate(92.9 -11.4 87.8) scale(169 117.8882)"/><path fill="#ffd787" d="M47 271l137-38L7 184z"/><circle r="1" fill="#2e1103" transform="matrix(-49.10495 -19.83969 7.81238 -19.33633 92 77)"/><path fill="#300600" d="M95 161l69 11 21 94z"/><circle r="1" fill="#9fbdcb" transform="rotate(129.2 -17.3 44.3) scale(51.83211 36.54508)"/><circle r="1" fill="#19304c" transform="rotate(53.1 23.2 184.5) scale(26.33345 29.66415)"/><path fill="#d6f2f5" d="M64 178h21v36H64z"/><circle r="1" fill="#c79d86" transform="matrix(-34.63075 -11.45516 6.09308 -18.42034 109.4 110.3)"/><circle r="1" fill="#99abc1" transform="matrix(-17.0099 -11.79285 20.66032 -29.80025 112 25.2)"/><circle r="1" fill="#423435" transform="matrix(15.53863 -.9309 4.28698 71.55887 63 104.7)"/><ellipse cx="10" fill="#b9feff" rx="37" ry="8"/><path fill="#ffe0a2" d="M140.8 233.7l-57 37-18.6-28.4 57-37z"/><circle r="1" fill="#d85708" transform="matrix(68.77335 -41.39128 10.6853 17.75408 161.7 252.3)"/><circle r="1" fill="#4c5163" transform="rotate(-21.9 453.3 -261.5) scale(68.21312 24.59249)"/><circle cx="47" cy="160" r="14" fill="#c5cfcb"/><path fill="#a85f1a" d="M88 190h50v27H88z"/><circle r="1" fill="#392a24" transform="matrix(-.03395 6.64687 -47.06622 -.24036 9.5 178.3)"/><path fill="#b8c6c9" d="M15.2 171.3l-20-.7 1.6-48 20 .8z"/><circle r="1" fill="#f8f2e8" transform="matrix(-.8625 2.51943 -64.57207 -22.10558 43.4 255)"/><path fill="#925d2c" d="M-34.2 217l10.6-23.8L52.2 227l-10.6 23.8z"/><circle r="1" fill="#45465b" transform="matrix(8.76779 4.55355 -16.78424 32.31779 34.8 124.1)"/><circle r="1" fill="#537585" transform="rotate(167.2 21.4 11.9) scale(62.45876 15.85421)"/><path fill="#bfb192" d="M142 119l-7 53-11-11z"/><path fill="#15181f" d="M125.8 167.6l1.3-28.8-19 36.8 76.9 34.7z"/><path fill="#1e1915" d="M77.6 51.4l-23.1-3.9 3.6 40.4 41.7-13.8z"/><circle r="1" fill="#77503f" transform="matrix(-1.148 -4.93199 35.62667 -8.29272 29.5 195.5)"/><circle r="1" fill="#4e5e6d" transform="rotate(154.9 68.4 67.3) scale(19.49855 68.7842)"/><ellipse cx="47" cy="142" fill="#acbaba" rx="9" ry="12"/><path fill="#edc781" d="M22.1 230.7l124.5-5.2-22.7-25.3-44.7 49z"/><circle r="1" fill="#99bfff" transform="matrix(1.48278 7.96905 -38.45787 7.15574 26.5 0)"/><path fill="#c5b8ae" d="M85 125l-5.9-40.6 21.8 53.2 52.5-31.1z"/><path fill="#57391b" d="M103 118l16-28 7 16z"/><circle r="1" fill="#d1cdd1" transform="rotate(173.2 14.3 99) scale(2.05326 18.48449)"/><path fill="#e07117" d="M142.7 194.6l22.3 8.8-31.7-3.4-3.8-7.2z"/><ellipse cx="169" cy="7" fill="#7596a2" rx="71" ry="22"/><ellipse cx="25" cy="23" fill="#8b9da0" rx="31" ry="10"/><path fill="#e6be8b" d="M15.5 192.9L9.4 209l12.4 6.4 38.4 9z"/><path fill="#170b01" d="M169.5 114.9l7.5 2.7-8.5 23.5-7.5-2.7z"/><path fill="#ffbcd3" d="M99 175h4v26h-4z"/><path fill="#a06046" d="M64.5 87.7l28.8 39.6-9.8 7-28.8-39.6z"/><path fill="#a14a17" d="M140 252l11.8-30.8L190 236l-11.9 30.9z"/><path fill="#262725" d="M41 175h11v19H41z"/><ellipse cx="1" cy="194" fill="#49302c" rx="7" ry="24"/><path fill="#90a1a6" d="M32 39h17v54H32z"/><path fill="#6e4326" d="M116 208l-34 13 38-38z"/><path fill="#54565e" d="M68 0h28v31H68z"/><path fill="#1f314e" d="M77.9 172.3L59 154l1 19.5-12.3 7z"/><path fill="#66412d" d="M60.4 118.2l62.8-5.9L36 132.1l24.3-35.5z"/><path fill="#efc4a5" d="M84 116.9l11.9-9.9-8.5-14.8-10.3 11.1z"/><path fill="#7a482e" d="M50 93l37-21 40 23z"/><path fill="#4a3b37" d="M42 201l16.8 2-.7 6-16.9-2z"/><path fill="#999aa6" d="M120 64L72 48l49-64z"/><path fill="#615e67" d="M85 193.4l17.8 7.7-15.9-74.2-34.6.5z"/><path fill="#751318" d="M101.8 133.4l14.2 9.8 3.8-11.2 9.8-2.2z"/><path fill="#9e5f27" d="M23 219l48 5-17 7z"/><path fill="#f6e4b7" d="M58 232l55 15 13-20z"/><path fill="#1a2422" d="M71.5 1.1L6.9 14.8l-.4-2L71.1-.7z"/><path fill="#825a39" d="M-11.2 198.4L45.2 249l15.9-.5-19.9-12.6z"/><path fill="#898788" d="M133.4 125.8l-31.7 22.6L90.4 166l14.4-.9z"/><path fill="#52616d" d="M185.6 207.7l-42.9-36 9.7-11.4 42.9 36z"/><path fill="#3a2c21" d="M125.9 71.3l-6.3-4.4H93l58.2 44.8z"/><path fill="#6989a3" d="M149 80h17v34h-17z"/><path fill="#283541" d="M136.8 38.2l1.8-9.5 46.4 2.8-19.5 16.8z"/><path fill="#dee2e9" d="M26.8 160.5l3.5 7.6-8.4-.5-.9-5.1z"/><ellipse cx="99" cy="173" fill="#192945" rx="34" ry="3"/><path fill="#2c180a" d="M179 199l-66-11 42-5z"/><path fill="#d9c8a2" d="M157 156h13v6h-13z"/><path fill="#cec4bd" d="M43 251h67v5H43z"/><path fill="#432816" d="M149.1 225.9l35.5-8 .4-7.2-59.4-13.1z"/><ellipse cx="74" cy="197" fill="#c8d0cb" rx="8" ry="21"/><path fill="#9cbfe8" d="M-16 16.9L120.7-16 66.2 3.4-7.4-2.1z"/><path fill="#d39577" d="M25 181l-5 25-17-13z"/><path fill="#b67e3f" d="M83.9 271l7.7-12.6-51.5-18.6 39.7 8.1z"/><path fill="#a24d1a" d="M69.1 271l72.7-26.8 20.4-21.6 22.8 29z"/><path fill="#7d8c9f" d="M84 31l1 18-50-6z"/><path fill="#e9e3d2" d="M38 167h22v7H38z"/><path fill="#f2c4c9" d="M101 180h3v25h-3z"/><path fill="#cba36e" d="M43.8 222.2l13-11 34.5-9.9 4.9 31.1z"/><path fill="#6f8381" d="M137.4-17.4l16 5.8-28.8 79-16-5.8z"/><ellipse cx="106" cy="124" fill="#e7f4f4" rx="14" ry="2"/><path fill="#b9966a" d="M121.4 110.2l2-16.6 4.9-3 4.1 9.5z"/><path fill="#e9f6ee" d="M176.3 194.3l-.5.9-14.1-7.5.5-.9z"/><path fill="#7e8b9e" d="M82.4 179.3l30.2 9.4 7.8-3.9-4.8-5.7z"/><path fill="#948179" d="M144.2 218.3l1.2 8.8-1.8 9.9-13.9 3.7z"/><path fill="#7e848d" d="M145 136l-27-9 28-20z"/><path fill="#e5dee5" d="M122.6 251l-30.9 4.5 19.3.3 39.9-21.4z"/><path fill="#ffd3ac" d="M100.2 111l5-12 4.6 2-5 12z"/><path fill="#a7937e" d="M108 252.2l-32.7 6.5 19.9-8.5 40.3-5.2z"/><path fill="#c6b698" d="M136.9 172.9l-9.3-12.8 11.6-7.5-2.5 23.7z"/><path fill="#4e4448" d="M137.1 140.8l2.1 31 15.3-35.6-64.4 2.5z"/><path fill="#885d42" d="M32.5 182l6.4 22-27.8-8.7.1 11.7z"/><ellipse cx="39" cy="200" fill="#eae0de" rx="2" ry="19"/><path fill="#929d9f" d="M52 84L40 39l-56 127z"/><circle r="1" fill="#4f2e22" transform="matrix(37.85095 12.51732 -1.10205 3.33249 19.8 255)"/><path fill="#ffecb5" d="M123 204l-6 8 3-16z"/><path fill="#585869" d="M17 126l20-12-3 56z"/><circle r="1" fill="#38392f" transform="rotate(177.5 11.2 18.1) scale(32.25229 1)"/><path fill="#2e1e12" d="M120.4 104.3l-4.4-5.5-1.5-33.2 8 4.7z"/><path fill="#6b6a67" d="M130 102l46.4 11.5-105.5 13.1 77.7-12z"/><path fill="#966146" d="M112.6 92l-35.6.5-10.6-3.3L93 80.3z"/></g></g></svg>