<svg xmlns="http://www.w3.org/2000/svg" viewBox="0 0 1800 1200"><defs/><filter id="a"><feGaussianBlur stdDeviation="12"/></filter><rect width="100%" height="100%" fill="#334764"/><g filter="url(#a)"><g fill-opacity=".5" transform="translate(3.5 3.5) scale(7.03125)"><circle r="1" fill="#e2ffff" transform="matrix(0 -37.75058 252.52673 0 99.3 12.7)"/><circle r="1" fill="#9eb4c7" transform="matrix(-129.70115 80.48243 -22.08067 -35.58402 26.2 68.1)"/><circle r="1" fill="#351800" transform="matrix(-3.03715 28.20457 -169.80941 -18.28555 180 144.2)"/><circle r="1" fill="#ffec89" transform="rotate(152.9 -8.2 54.3) scale(30.96383 13.00267)"/><circle r="1" fill="#886a55" transform="matrix(8.7413 -28.05984 56.32057 17.54516 27.5 155)"/><path fill="#3a5f86" d="M0 46h256v39H0z"/><path fill="#887d6a" d="M74 110l22-25 86 28z"/><circle r="1" fill="#b0c9df" transform="matrix(-75.11328 -16.0906 4.8075 -22.44214 14.7 18.3)"/><path fill="#412c1d" d="M90.8 93.2l-29.6 31-77.2 16.9 68-46.5z"/><ellipse cx="216" cy="3" fill="#5b89c0" rx="152" ry="15"/><circle r="1" fill="#1b1a16" transform="matrix(-7.08594 -26.63092 97.79581 -26.02145 246.6 144.2)"/><ellipse cx="229" cy="86" fill="#263c53" rx="93" ry="21"/><circle r="1" fill="#6680a3" transform="matrix(-.4231 -5.65088 79.68159 -5.9661 255 42.9)"/><ellipse cx="87" cy="104" fill="#e5b576" rx="8" ry="7"/><path fill="#aac2dd" d="M44 77h9v24h-9z"/><path fill="#f6c496" d="M-12.1 144.1l5.9 5.7-9.6-43.2 59.3-18.9z"/><path fill="#436487" d="M93 46h42v56H93z"/><path fill="#10080b" d="M71.6 92.9L81.9 95l-10.8 28.6-34.5 8.4z"/><circle r="1" fill="#57544b" transform="rotate(92.8 50.8 154.9) scale(7.53445 69.15851)"/><ellipse cx="86" cy="76" fill="#d8ddb0" rx="4" ry="7"/><path fill="#ae7e5f" d="M68.6 77l-3.3 27-8-1 3.4-26.8z"/><path fill="#62564b" d="M43 97l-22 61-26-24z"/><ellipse cx="151" cy="29" fill="#99b2ca" rx="105" ry="16"/><path fill="#fff1ce" d="M129 86h4v9h-4z"/><path fill="#6f533c" d="M84.2 158.4l-.9 22.4 127.4-3.4-100.8-15.2z"/><path fill="#271e1b" d="M52 85h7v17h-7z"/><path fill="#524846" d="M2 129h101v19H2z"/><path fill="#82a7cc" d="M32.1 17.1l209 9L-16-15.6 41.4 23z"/><path fill="#cc7f3a" d="M43 77.7l1-7 11 1.6-1 7z"/><ellipse cy="99" fill="#e1bd92" rx="38" ry="8"/><path fill="#5b6160" d="M69 57.9l63.2 65.9-24.6-7.2L93.4 99z"/><circle r="1" fill="#6a6263" transform="matrix(4.9496 -29.0739 31.2724 5.32388 30.6 166.6)"/><path fill="#e4d0ac" d="M6 98h26v13H6z"/><ellipse cx="232" cy="130" fill="#312f2b" rx="133" ry="13"/><path fill="#425e81" d="M36.1 89l-52.1.2 50.4-10.1L45 92.7z"/><circle r="1" fill="#6e90b5" transform="matrix(71.20145 4.76427 -1.00324 14.99333 199.6 7.5)"/><path fill="#231406" d="M38 95h3v22h-3z"/><path fill="#1e4166" d="M104 89h23v11h-23z"/><path fill="#9c7851" d="M-16 132v-28l26-12z"/><path fill="#466d99" d="M53 75l106-28-120-1z"/><path fill="#adbec8" d="M0 23h115v22H0z"/><circle r="1" fill="#f9dec2" transform="matrix(1.2801 1.96444 -2.69725 1.75762 63.5 89.9)"/><path fill="#768da7" d="M191 41h65v6h-65z"/><path fill="#685d55" d="M10.3 120.7l23.4-11.4 4 8-23.4 11.4z"/><path fill="#1f1818" d="M55.8 131.2l23.2-2.1-4.5-8.1-2.8-35.5z"/><path fill="#2d2721" d="M102 109.8l-19.3-.3 87.1 52.2-45 3.7z"/><path fill="#352c24" d="M80.6 143.5l-2.7 2.2-4.2 14.9 100.9 5.3z"/><circle cx="62" cy="82" r="4" fill="#683d16"/><ellipse cx="167" cy="52" fill="#436286" rx="47" ry="6"/><ellipse cx="167" cy="108" fill="#5b646f" rx="45" ry="4"/><path fill="#5a4e3f" d="M94 150l-16-11 2-36z"/><path fill="#357166" d="M75.3 93.2l7.5-4.3 8.8-5.1-27-7.8z"/><path fill="#f0d19f" d="M7 100h4v27H7z"/><path fill="#99fcc6" d="M89 82.3l-10.4-3.6.4-1 10.4 3.6z"/><circle r="1" fill="#171618" transform="matrix(-5.99084 8.73756 -21.39937 -14.6723 249 154.7)"/><path fill="#695d56" d="M6.7 131.1l24.7-7.7-9.3-17.8-3.8 7.6z"/><path fill="#4f749e" d="M0 47h42v38H0z"/><path fill="#3c3530" d="M6.7 144.3L-16 168l24.7-35 37.8-9.8z"/><path fill="#324d6c" d="M128.7 77.5l67.6-27.3 9 22.3-67.6 27.3z"/><path fill="#232627" d="M134 113h34v11h-34z"/><path fill="#e1dad0" d="M246 25h10v4h-10z"/><path fill="#887e72" d="M86.3 87.1l5.2 17.3 15-6.1-23.3.9z"/><path fill="#fff4db" d="M65 86h3v3h-3z"/><path fill="#616063" d="M42 99h12v8H42z"/><path fill="#100f12" d="M89 85l-14 22-18 5z"/><ellipse cx="70" cy="169" fill="#64646e" rx="30" ry="10"/><circle cx="47" cy="84" r="5" fill="#7cb2ef"/><path fill="#321113" d="M59 117l11-8-16-10z"/><path fill="#a7c3d9" d="M-15-2L1 33l45-18z"/><ellipse cx="37" cy="87" fill="#3b3a41" rx="5" ry="3"/><path fill="#333130" d="M145 148v-41l59 55z"/><circle cx="63" cy="97" r="5" fill="#5c6686"/><path fill="#ebecf8" d="M85 75.8L84 69l5-.7 1 6.9z"/><path fill="#6185ae" d="M136.2 1.3l1-12 106.6 9.4-1 12z"/><circle cx="46" cy="97" r="3" fill="#eed8b3"/><path fill="#4a4443" d="M129.6 113.7l13.6-2.9-22.5 20.6-13.2-29.4z"/><path fill="#4a444a" d="M59 127l-22 24 40-1z"/><path fill="#31311b" d="M81 75h5v4h-5z"/><path fill="#040304" d="M241 119h9v5h-9z"/><circle r="1" fill="#364c68" transform="rotate(-89.7 155.3 -90.4) scale(9.79788 63.59671)"/><ellipse cx="122" cy="46" fill="#688aaf" rx="96" ry="2"/><ellipse cx="193" cy="19" fill="#82a1bd" rx="72" ry="9"/><path fill="#b7967b" d="M39.5 89L-16 105.7v-8.3l43.6-9.6z"/><path fill="#436489" d="M161.5 48.5l-76.1 39 8-15.2-36.1-13.2z"/><circle cx="79" cy="108" r="4" fill="#aa8049"/><path fill="#3a3533" d="M110.9 125.6l89.2 17.1 39.7-27.8-64.5 11.5z"/><path fill="#a09e94" d="M133 89l-5 10 6-5z"/><path fill="#613512" d="M43 71h4v7h-4z"/><ellipse cx="7" cy="80" fill="#496a8e" rx="23" ry="11"/><path fill="#94b2cc" d="M150.1 37.3l16.9-7.5L90.8 5.4l-106.1.3z"/><path fill="#365373" d="M130 100l-1-37-38 19z"/><path fill="#1f344c" d="M227 91l-36 9 78 7z"/><path fill="#578ac5" d="M39 88h10v8H39z"/><path fill="#0d1318" d="M124.3 138.7l2.2-4.2-6.4-6.4-11.9 6.7z"/><path fill="#c2b49d" d="M13 117l8-5-3-10z"/><path fill="#463e34" d="M75 112l22 42 19-14z"/><path fill="#b8b8af" d="M127 88h6l1 6z"/><ellipse cx="128" cy="37" fill="#9fb1c0" rx="74" ry="8"/><path fill="#10141c" d="M59.9 81.3l-.8-.6 3-4 .8.6z"/><circle cx="139" cy="106" r="6" fill="#77777b"/></g></g></svg>