<svg xmlns="http://www.w3.org/2000/svg" viewBox="0 0 1800 1200"><defs/><filter id="a"><feGaussianBlur stdDeviation="12"/></filter><rect width="100%" height="100%" fill="#364150"/><g filter="url(#a)"><g fill-opacity=".5" transform="translate(3.5 3.5) scale(7.03125)"><circle r="1" fill="#e7faff" transform="matrix(0 71.51988 -255.00001 0 127.5 35.8)"/><circle r="1" fill="#2c303e" transform="matrix(-54.02625 -2.0723 .7316 -19.07338 231.5 47.9)"/><ellipse cx="152" cy="141" fill="#706f67" rx="129" ry="30"/><circle r="1" fill="#b3c7df" transform="matrix(4.65042 -18.00347 122.5947 31.66706 91 50.4)"/><circle r="1" fill="#fff6cb" transform="matrix(-8.38297 17.89573 -45.55726 -21.34058 225.4 0)"/><ellipse cx="90" cy="3" fill="#638ec8" rx="104" ry="34"/><circle r="1" fill="#aab2b2" transform="matrix(1.27595 20.4007 -98.87418 6.18401 55.5 93.5)"/><ellipse cx="243" cy="86" fill="#727882" rx="30" ry="28"/><circle r="1" fill="#7c756d" transform="matrix(-2.64078 -14.60102 78.03738 -14.11403 205 151.5)"/><circle r="1" fill="#372e2a" transform="matrix(-.39959 9.31011 -60.88053 -2.61298 71.3 152.2)"/><path fill="#9eb5ce" d="M97 92l98-57L19 11z"/><path fill="#707476" d="M0 128h89v15H0z"/><ellipse cy="64" fill="#687081" rx="57" ry="12"/><path fill="#465260" d="M235 34v29l-85-6z"/><path fill="#8f9ca4" d="M128.6 136.8l18.9.4 47.8 5.1-23.6 8.5z"/><circle r="1" fill="#ead0b1" transform="matrix(-18.21847 2.83829 -1.65975 -10.65363 31.4 44.2)"/><ellipse cx="246" cy="167" fill="#241100" rx="33" ry="6"/><ellipse cx="82" cy="123" fill="#364c60" rx="180" ry="10"/><path fill="#60748e" d="M40.4-16L156.1 6.8 204.3-16 75.7 18.4z"/><path fill="#adc2c9" d="M207.4 57.9L185 95.1l47.9-8.8-22.4-13.6z"/><path fill="#a69c92" d="M64 162l46 7-4 16z"/><path fill="#33302f" d="M133 147h26v13h-26z"/><path fill="#d8c1a4" d="M96.8 61.4L77.6 76.5 70 61.1l19.3-15.8z"/><path fill="#121518" d="M96 135h30v6H96z"/><path fill="#8e857f" d="M178 25h78v11h-78z"/><circle r="1" fill="#3e3634" transform="matrix(-8.13572 -22.90106 28.05545 -9.96684 45.2 164.7)"/><circle r="1" fill="#e3cbb7" transform="rotate(11.7 75.3 1140.4) scale(37.95873 18.21108)"/><ellipse cx="112" cy="128" fill="#64717d" rx="48" ry="5"/><path fill="#aac7de" d="M20 66l-36-9L9 73z"/><path fill="#889396" d="M-16 110l112 3-38-27z"/><path fill="#a8aea6" d="M72 80h126v30H72z"/><path fill="#686d78" d="M166.4 91l-.7-8 24-2 .6 8z"/><path fill="#586679" d="M245.9 31l-33 42.5 56 4.5-36.3 16.4z"/><ellipse cx="220" cy="120" fill="#243543" rx="168" ry="3"/><ellipse cx="119" cy="30" fill="#7fa4cf" rx="62" ry="14"/><ellipse cx="240" cy="112" fill="#6f6657" rx="67" ry="4"/><path fill="#353332" d="M212 145.1l16.4-.7 17.7.5 24.9-15.5z"/><path fill="#5f6978" d="M199 92h29v7h-29z"/><path fill="#0c0f0f" d="M211 148.5l.3 1-26.3 6-.3-1z"/><path fill="#758394" d="M140.5 24l8.2-.8L228.8-16 154.7-4.6z"/><circle r="1" fill="#8e8d89" transform="matrix(-29.94764 5.98413 -.55782 -2.79163 168.8 161.3)"/><ellipse cx="245" cy="148" fill="#97938e" rx="19" ry="4"/><path fill="#60758e" d="M-16 87l21-6 25 9z"/><path fill="#646668" d="M126.1 165.2l-37.2-11.4L62.8 133l-1.9 18.7z"/><circle r="1" fill="#6e6e73" transform="matrix(1.0939 -4.97538 41.84854 9.201 0 54.4)"/><path fill="#868887" d="M214.5 143.7l-93 1.6v-5l93-1.6z"/><path fill="#282017" d="M271 147.8L235.5 185l-7.4-33.8 42.9 33.1z"/><path fill="#8e9aa4" d="M118 59l70-16-19 18z"/><path fill="#afa596" d="M203 25.2l43.9 4.9L202 2.6l-14.8 9.3z"/><path fill="#323436" d="M101.4 139.1l-5 28.6-15.8-2.8 5-28.6z"/><path fill="#94b1cb" d="M166 63h76v5h-76z"/><circle r="1" fill="#adc0cc" transform="matrix(-1.37243 -5.89937 45.37464 -10.55595 110.3 78.4)"/><path fill="#68788c" d="M187.6 64.8l-16.3-3.7 14.8-45.6 1.2 21.4z"/><path fill="#93877a" d="M0 157h15v4H0z"/><path fill="#837b74" d="M270.2 177.9l-30.9-50.4L250 121l-2.6 36.6z"/><circle r="1" fill="#cbbeae" transform="rotate(9 -264.8 159.2) scale(40.13503 6.46434)"/><path fill="#8a8a86" d="M102.1 68.2l-1.7-2.1-3.7-3.1-28 16.4z"/><path fill="#efe4d2" d="M180-11l60 24 31-29z"/><path fill="#2d1611" d="M6 145h35v5H6z"/><path fill="#607085" d="M216 62h28v17h-28z"/><circle r="1" fill="#414240" transform="matrix(-15.27563 3.21226 -.71752 -3.4121 176.9 154)"/><circle r="1" fill="#52646f" transform="matrix(-.7163 -9.99281 30.02326 -2.1521 165 132)"/><path fill="#353c3d" d="M212 116h24v18h-24z"/><ellipse cx="37" cy="134" fill="#63696d" rx="42" ry="8"/><path fill="#796a5b" d="M3.6 146.9l135.4-17-118.7 8.5-36.3 4.5z"/><path fill="#959291" d="M2.8 45.1l72.6 16.2L49 65.8l-65-21.4z"/><path fill="#b2b7b6" d="M234.6 76.1l-5.9 12.1-16 2.6-11.4-4.9z"/><ellipse cx="82" cy="122" fill="#2c3f50" rx="56" ry="3"/><path fill="#acc3c9" d="M239 94l20-6-17-1z"/><path fill="#b1bdc3" d="M120.6 107.4L172.9 77l-21.7-33.9 26.3-3.3z"/><ellipse cx="105" cy="114" fill="#42596f" rx="65" ry="2"/><path fill="#acc1cf" d="M66 72l-51 6 30 8z"/><path fill="#525557" d="M79 143.4l16.6-1.1L-2.8 185l38.6-22.3z"/><ellipse cx="178" cy="146" fill="#9c9a94" rx="24" ry="2"/><path fill="#4c5561" d="M212 34l51 26-84-1z"/><path fill="#9dbdd5" d="M149 80l63-14-91-11z"/><path fill="#999489" d="M243 121l-1 15h9z"/><path fill="#3f3f3f" d="M167 150l-23-7-9 18z"/><path fill="#98876d" d="M271 103v14l-36-11z"/><path fill="#9e9992" d="M179 136l-3-5 17 5z"/><path fill="#5e6f80" d="M113.1 114.4l-63.6-.2 24.2 8.4-41.2-14.2z"/><path fill="#8c8986" d="M196.1 159.6l50.9-9.4 2-2.8-93 17.5z"/><path fill="#5e6b7d" d="M93 6l62-11-85-11z"/><path fill="#2d3032" d="M173 166l-18 3 8-5z"/><path fill="#020400" d="M15 158h14l-16 5z"/><path fill="#928d8b" d="M111 176l-24-5 37-7z"/><path fill="#576980" d="M28 66l-17 8h32z"/><path fill="#3c4345" d="M190 132h19v8h-19z"/><path fill="#3c3d3c" d="M175.3 165l57.3-9 .1 1-57.3 9z"/><path fill="#6f7779" d="M176.5 153.9l-34.8 5 59.8-91.2-55.1 83.9z"/><path fill="#5a6b80" d="M181.5 90.5h-21v-5h21z"/><path fill="#393b3c" d="M124.1 162.1l13.3-33.9-12.9 36.7 40.4-8z"/><path fill="#b8b4aa" d="M185.1 71.6l-65.5 28.8 64.5-19.7 8.2 13.1z"/><path fill="#9aa5a2" d="M97 93h74v20H97z"/><path fill="#ddd9d0" d="M37 29l5 11-29 8z"/><path fill="#8099b0" d="M24 76l-40-12 39 26z"/><circle r="1" fill="#7396c3" transform="matrix(54.16198 17.40762 -3.49887 10.88637 15.6 4.2)"/><path fill="#536b7e" d="M58 148.8l104-14.6v1L58 149.8z"/><path fill="#7d828b" d="M46 92H22v-4h24z"/><path fill="#918a83" d="M59 143l24-3-9-4z"/></g></g></svg>