<svg xmlns="http://www.w3.org/2000/svg" viewBox="0 0 1800 1800"><defs/><filter id="a"><feGaussianBlur stdDeviation="12"/></filter><rect width="100%" height="100%" fill="#553133"/><g filter="url(#a)"><g fill-opacity=".5" transform="translate(3.5 3.5) scale(7.03125)"><circle cx="156" cy="207" r="106" fill="#c2c1ad"/><circle r="1" fill="#fffffa" transform="rotate(-5.6 794.7 -2448.2) scale(24.22404 113.09055)"/><circle cx="188" cy="120" r="40"/><circle r="1" fill="#f7ffff" transform="matrix(-19.52785 -50.78317 25.23656 -9.70431 123.8 150.7)"/><circle r="1" fill="#d3fff6" transform="matrix(55.1692 -18.69296 8.62084 25.443 0 63)"/><path fill="#fff" d="M38 107h55v13H38z"/><circle cx="76" cy="231" r="44" fill="#362818"/><circle cx="103" cy="35" r="50" fill="#000200"/><path fill="#e5f8f9" d="M246.4 187l38.2 22-37 64-38.2-22z"/><circle r="1" fill="#fff" transform="rotate(-75.3 161.3 26.8) scale(13.15386 32.08705)"/><ellipse cx="242" cy="40" fill="#ffffd7" rx="26" ry="48"/><path fill="#000e10" d="M0 124h99v35H0z"/><path fill="#dcfae5" d="M78 107l46-15-44-11z"/><circle r="1" fill="#003421" transform="matrix(56.63422 89.56917 -29.92865 18.92376 16.5 202.2)"/><circle r="1" fill="#b35c49" transform="matrix(-58.63795 9.82693 -5.01307 -29.9133 131.6 217.7)"/><path fill="#000417" d="M156.6 167.5l-3.9 29.7 48.3-22.9-.5-4.4z"/><circle r="1" fill="#18080c" transform="matrix(28.42816 -1.81187 4.15022 65.11695 198.1 100.3)"/><path fill="#fff" d="M172 155h24v12h-24zm-59.2 37.9L102.7 156l-48.4 42.7-8.6-30.1z"/><path fill="#311823" d="M127.4 216.2l19.3-56-29.2 33-133.5 6.5z"/><ellipse cx="126" cy="141" fill="#fffffd" rx="27" ry="16"/><path fill="#be976a" d="M271 174l-55 26 16-136z"/><circle r="1" fill="#eff4f2" transform="matrix(-12.81547 -10.82992 19.25818 -22.78898 0 62.2)"/><path fill="#463f29" d="M242 104h14v54h-14z"/><circle r="1" fill="#10472d" transform="rotate(33.9 -18.6 45.9) scale(30.53275 21.11689)"/><path d="M149 152l18.8-13.1 9.2 13-18.8 13.2z"/><circle r="1" fill="#210c0f" transform="matrix(30.89494 15.0783 -19.46136 39.87569 150.2 55.3)"/><path fill="#bdc9c3" d="M169 266l35-52 35 38z"/><path fill="#d8e8ec" d="M172 158h8v35h-8z"/><path fill="#fdffff" d="M75.1 170.9l12.4-17.8-3.2 4.4-4.2-19.2z"/><path fill="#05181e" d="M73 176.9l-14-24.3 6-3.5 14 24.3z"/><ellipse cx="40" cy="143" fill="#ffc5ae" rx="3" ry="15"/><path fill="#dadfd3" d="M54.3 116.1l-21.9-11 14.8-1.8 83.1 32.1z"/><path fill="#84cd83" d="M105.1 15.2l17.7 8.7L131 9l-8.9 1z"/><path fill="#1f0b10" d="M68 113l42-94-74 60z"/><ellipse cx="135" cy="173" fill="#042634" rx="5" ry="20"/><ellipse cx="33" cy="1" fill="#a5cb9a" rx="6" ry="25"/><circle r="1" fill="#483b12" transform="matrix(2.799 -11.14747 7.4175 1.86245 90.6 108.8)"/><ellipse cx="125" cy="233" fill="#b67964" rx="44" ry="21"/><path fill="#e68a62" d="M222 156l-38 74-34-12z"/><circle r="1" fill="#040105" transform="rotate(65.5 -114 102.6) scale(49.21962 14.63748)"/><path d="M85 136h15v21H85z"/><path fill="#edfdf8" d="M43.6 113.3l41.9-4.6-12.8 7-45.9 7.8z"/><path fill="#737c6c" d="M95.8 76.8l50.1 23.8 23.9 21.5-32.3 5.3z"/><path fill="#f0efe4" d="M98 108h36v31H98z"/><path fill="#0c060b" d="M235 86l-40 75-2-103z"/><path fill="#ffbf96" d="M229.8 114.8l17.4 4.6-9 33.8-17.4-4.6z"/><path fill="#1c180e" d="M211.7 233.3l14-2.9 8.3-4.8-6.6-5z"/><circle r="1" fill="#11463b" transform="rotate(-66.6 89 39.9) scale(20.26559 23.05403)"/><ellipse cx="210" cy="16" fill="#001308" rx="8" ry="41"/><path fill="#295128" d="M212.8 182.6L192 222l31.7-12.8-1.2-3.9z"/><path fill="#f6fffc" d="M52.2 197.5L81 147.7l6.6 14.6-30.7 10z"/><path fill="#e7c8a0" d="M271 87.9l-55-39 .8 20 34.1 37.2z"/><path d="M159 165h11v28h-11z"/><circle r="1" fill="#304b39" transform="rotate(-59.9 247.2 82) scale(31.40103 76.30921)"/><circle r="1" fill="#150f17" transform="matrix(-4.25399 -3.67474 23.50017 -27.20445 68.8 150.8)"/><ellipse cx="7" cy="9" fill="#000004" rx="22" ry="18"/><circle cx="226" cy="188" r="10" fill="#cee7d3"/><path fill="#eaf3ef" d="M159.9 169.7l-14.8-21.8-8.6 50.3 17.3-13.3z"/><path fill="#77644c" d="M173 55l25 6 8-36z"/><path fill="#000209" d="M172.8 165l-7 30.2-20.3 2.9 21.9-27.6z"/><path fill="#2e0b1a" d="M66 183h19v19H66z"/><path fill="#2a1d19" d="M136.4 117.6l10.9 7.7L170.8 74l-15.2 21.8z"/><path fill="#12010b" d="M211 163l14-46-70 23z"/><path fill="#00000b" d="M175.8 177.9l10.7-9 7.7 9.2-10.7 9z"/><path fill="#fffeeb" d="M92 86l15 22-29-21z"/><path fill="#073506" d="M175.4 242.6L142 255.4l-2.9 15.6 50.4-42.7z"/><path fill="#4d4130" d="M247.8 192l-36-19.6 7.6-5.6 10.9 3.6z"/><path fill="#f6f8f7" d="M96 172h33v20H96z"/><path fill="#faffff" d="M182.6 158.7l20.2 5.8-1.4 4.8-20.2-5.8z"/><path fill="#170c11" d="M50.1-16l83.6 57.2L98 100.1l-2.6-17.4z"/><path fill="#3e6741" d="M20.1 56.5L74 29.8 42.8 40.2 22.5 75.8z"/><path fill="#8a9f62" d="M145 8l8-24 22 31z"/><path fill="#fff7d6" d="M219-16l14 27-16 52z"/><path fill="#ef925c" d="M235 124l-28 44 26-4z"/><path d="M242 106h14v7h-14z"/><path fill="#0a1c13" d="M50 225l69 35-37 11z"/><path fill="#bbc5c0" d="M248 188.9l-17-15.7 15-16 17 15.6z"/><path fill="#3b1820" d="M189 7l4 143-41 5z"/><path fill="#1d1016" d="M182.7 118l-74-36.9.4 28.5L135.9 47z"/><circle r="1" fill="#7ca087" transform="matrix(-.94643 -8.30102 11.3972 -1.29944 0 212.4)"/><path fill="#c3b79d" d="M145 97l14 15-38-19z"/><path fill="#eeae8e" d="M227.2 115l-3.4-25.1 19 24.6 28.2 10.6z"/><path fill="#654131" d="M253.3 127.9l-16.9 41.7-3.7-1.5 16.9-41.7z"/><path fill="#5d716f" d="M31.5 119.2l-20.8-8.4 34.4-33.2-16-18.7z"/><path fill="#818971" d="M53.3 59.9l10.4-15.3-34.5-12.5L27.4 8z"/><circle r="1" fill="#a5a091" transform="matrix(5.55087 29.2622 -4.02173 .7629 101.7 140.3)"/><path fill="#b37158" d="M191 187l-82 22 63 34z"/><ellipse cx="63" cy="177" fill="#fff" rx="6" ry="12"/><path fill="#819e71" d="M91-8.5L94.4.9l19.8 24.6 4.4.4z"/><path fill="#39292d" d="M81.2 170.4l5.4 8.6L38 135.9l19.5 27.4z"/><path fill="#d3dfa9" d="M60.2-8.4L48.8 26.7l-1-.3L59.2-8.7z"/><path fill="#da8972" d="M39.6 140.7l13.6 35.5-2.8 1-13.6-35.4z"/><path fill="#472329" d="M40.5 136.8l12.6-16.6 27.6.7-27.9 62.4z"/><circle cx="68" cy="101" r="10" fill="#041a18"/><path fill="#80554b" d="M45 213h67v9H45z"/><circle r="1" fill="#f1eee5" transform="matrix(24.04023 -12.31427 5.39062 10.5237 130.5 148.7)"/><path fill="#edeee7" d="M216 225l-20 12-9-9z"/><path fill="#e5f1e8" d="M78 84l7 15-5 9z"/><path fill="#421e20" d="M46 60h36v34H46z"/></g></g></svg>