<svg xmlns="http://www.w3.org/2000/svg" viewBox="0 0 1800 1200"><defs/><filter id="a"><feGaussianBlur stdDeviation="12"/></filter><rect width="100%" height="100%" fill="#404146"/><g filter="url(#a)"><g fill-opacity=".5" transform="translate(3.5 3.5) scale(7.03125)"><circle r="1" fill="#fff" transform="matrix(-254.86805 -8.20237 1.58053 -49.11107 144.7 36.8)"/><circle r="1" fill="#696f6f" transform="rotate(95.8 -16.2 101.6) scale(59.49048 187.45306)"/><ellipse cx="169" cy="10" fill="#bcc5cc" rx="173" ry="51"/><path fill="#1e1f21" d="M42 99h185v14H42z"/><path fill="#7d8486" d="M183 83h73v10h-73z"/><path fill="#6c7078" d="M117 88L67 61l-83 25z"/><ellipse cx="153" cy="136" fill="#666a6d" rx="106" ry="23"/><path fill="#a3a9b0" d="M271 56L101 88 30 19z"/><circle r="1" fill="#36383b" transform="matrix(52.20503 -10.4457 2.33536 11.67154 113.1 99.1)"/><ellipse cx="50" cy="85" fill="#63656a" rx="43" ry="19"/><circle r="1" fill="#a2aab0" transform="rotate(146.2 118.3 69) scale(30.03587 30.43311)"/><circle r="1" fill="#bdc1c5" transform="matrix(1.7871 -23.2254 107.61063 8.28019 129.2 0)"/><ellipse cx="18" cy="120" fill="#6a6f71" rx="113" ry="8"/><circle r="1" fill="#a3a9b1" transform="matrix(-16.03121 -19.21909 30.61483 -25.53674 11.1 44.5)"/><path fill="#2c2f2f" d="M0 129h54v7H0z"/><path fill="#5e6063" d="M123 83.8l77.5 1 38.3-1.6-67.7 24.5z"/><path fill="#252929" d="M99 159l-24 9-13-12z"/><path fill="#2d3031" d="M205 96h51v17h-51z"/><path fill="#373b3c" d="M256.3 149.8L217 163.9l3.1-7.5 11.4 22.5z"/><path fill="#3c4041" d="M85 150l-44-4 50-11z"/><path fill="#262a2a" d="M231 140h25v4h-25z"/><circle r="1" fill="#939ba0" transform="matrix(14.2669 2.21715 -.55994 3.60306 188 85.1)"/><path fill="#626668" d="M7 136l72 16-50 23z"/><path fill="#6c7075" d="M87.3 95l-8.5-34.6L-16 78.2l67.2 7.9z"/><path fill="#7b7f83" d="M109 128h36v7h-36z"/><ellipse cx="119" cy="169" fill="#292c2c" rx="14" ry="5"/><path fill="#a4a9af" d="M107.7 37.6L103 67.3l-106.7-17L1 20.8z"/><path fill="#676b6e" d="M195 114h61v9h-61z"/><path fill="#505254" d="M169 101l51-19 51 13z"/><path fill="#1c2020" d="M201 171l-43-5-4 17z"/><path fill="#343638" d="M93 88h42v26H93z"/><path fill="#9fa5ab" d="M88 54h154v28H88z"/><path fill="#2f3132" d="M48 101h27v13H48z"/><path fill="#515356" d="M161 83h14v23h-14z"/><path fill="#6d7174" d="M140.6 144.8l41.3-5.4 89.1 15.5-81.9-7.1z"/><ellipse cx="8" cy="114" fill="#6c6f72" rx="31" ry="6"/><path fill="#36383a" d="M271 112.3l-80.2 1.7 18.8-20.5 42.2 3.7z"/><circle r="1" fill="#9ea4a9" transform="matrix(-15.56513 -11.43981 7.74236 -10.53433 246.9 74.6)"/><path fill="#727579" d="M73 73l36 14-41 3z"/><ellipse cx="231" cy="78" fill="#979da4" rx="113" ry="6"/><circle r="1" fill="#989fa7" transform="matrix(-.86195 -6.63663 31.06274 -4.03435 17.6 64.2)"/><path fill="#676b6e" d="M221.7 154.6l-87.7 7.3 95.7-3.5 21.5-10.1z"/><path fill="#474b4c" d="M108.8 131.3l-5.5 3.9 7.2 7.9-37.6.1z"/><path fill="#65696b" d="M81.5 137.9l30.2-3.8-3-22.8-84.1 35.8z"/><path fill="#686c6f" d="M149.8 157.3l16-4.3-10.4 14.1-59.3-20.3z"/><path fill="#313536" d="M138.6 124l-17 1-.2-3 17-1z"/><path fill="#181c1b" d="M227 166h20v2h-20z"/><circle r="1" fill="#b0b4b8" transform="rotate(-170 62.6 8.7) scale(85.95787 12.99286)"/><ellipse cx="35" cy="123" fill="#1d2121" rx="9" ry="1"/><ellipse cx="32" cy="169" fill="#3f4243" rx="26" ry="3"/><path fill="#525457" d="M57 84l-11 21-62-7z"/><path fill="#484c4d" d="M180 128h61v3h-61z"/><ellipse cx="215" cy="53" fill="#a7abaf" rx="212" ry="13"/><path fill="#2c3031" d="M215 160h22v4h-22z"/><ellipse cx="254" cy="164" fill="#65696c" rx="60" ry="2"/><path fill="#4c5052" d="M139.6 159.5L120.2 185l13.2-39.6-23 .3z"/><path fill="#35373a" d="M47.9 110.8l36.9-15.2 73.8 1.6.7 17z"/><path fill="#626669" d="M240.9 144.4l30.1 2.7-20.5 8.6 12.6 29.3z"/><path fill="#535558" d="M129.9 83.9l11.7-2.4 25.6 22.3-44.6-17.7z"/><path fill="#6b6f71" d="M174 143l38-22-4 20z"/><ellipse cx="170" cy="135" fill="#505456" rx="21" ry="5"/><path fill="#4a4e50" d="M66 136l-12-10-8 8z"/><path fill="#3e4243" d="M239 138h17v7h-17z"/><path fill="#0c100f" d="M40 129l4 2-8 1z"/><path fill="#4c5051" d="M138 138.2l43.3 23-1.4 2.6-43.2-23z"/><path fill="#65696c" d="M34 162l27-14 36 4z"/><path fill="#676b6d" d="M123.9 135l34.9 9.9-24.5 6.3 45.3-37.7z"/><path fill="#0e1110" d="M221 176l-19-9-13 18z"/><path fill="#9a9fa5" d="M68.6 57.6l51.1 9.1 38.3 6.4-51 15.7z"/><circle r="1" fill="#606466" transform="matrix(.0755 -1.1367 53.30443 3.54048 104.6 148.2)"/><path fill="#44484a" d="M232 123h15v7h-15z"/><ellipse cx="146" fill="#bcc0c5" rx="73" ry="10"/><path fill="#5a5d5f" d="M153.5 94.1l88.3-10.4-43.3 13.9-24.3 5.1z"/><circle r="1" fill="#676a6f" transform="matrix(-23.36008 7.07913 -2.50378 -8.26211 19.8 79.6)"/><path fill="#6f7376" d="M-4 118l24 4-24 8z"/><path fill="#262b2b" d="M17 128h13v4H17z"/><ellipse cx="249" cy="93" fill="#5e6364" rx="21" ry="2"/><path fill="#696d70" d="M20 140h37v5H20z"/><path fill="#5d6163" d="M72 168h48v2H72z"/><path fill="#464a4b" d="M20 146h49v3H20z"/><path fill="#6a6e73" d="M92 91L74 62 9 73z"/><path fill="#3c3e3f" d="M226.3 94l-16.6 14.5-4-4.5 16.6-14.5z"/><ellipse cx="71" cy="142" fill="#242827" rx="5" ry="2"/><path fill="#65696c" d="M56 114h126v6H56z"/><path fill="#545659" d="M172 83l-35 8 66 8z"/><ellipse cx="158" cy="160" fill="#707477" rx="3" ry="8"/><path fill="#595d5f" d="M-16 151.8l43 2.4-20.2-22.7 35.2 3.3z"/><path fill="#6b7072" d="M253 113h3v21h-3z"/><path fill="#2f3234" d="M40 109h15v5H40z"/><path fill="#2c2f30" d="M23 165l2 3-11-1z"/><circle r="1" fill="#a4a8ae" transform="rotate(-77 53.8 -10.1) scale(11.59179 85.84869)"/><circle r="1" fill="#3b3f40" transform="matrix(-8.68233 1.25114 -.14263 -.98978 186.7 160.6)"/><path fill="#71757a" d="M98.6 84.9L71.3 66 88 73.5 82.7 97z"/><circle cx="32" cy="138" r="2" fill="#212524"/><path fill="#707478" d="M92.7 154.2l-.1-1 60.7-5.4.1 1z"/><path fill="#373b3c" d="M199 154h9v2h-9z"/><path fill="#363a3a" d="M64 159h42v4H64z"/><path fill="#0c0e0e" d="M122 169h10v1h-10z"/><path fill="#6d7174" d="M155 126h36v3h-36z"/><path fill="#434749" d="M142 122.8l-16.2 3.6 12.2.5 8.4-3z"/></g></g></svg>