<svg xmlns="http://www.w3.org/2000/svg" viewBox="0 0 1800 1013"><defs/><filter id="prefix__a"><feGaussianBlur stdDeviation="12"/></filter><rect width="100%" height="100%" fill="#364762"/><g filter="url(#prefix__a)"><g transform="translate(3.5 3.5) scale(7.03125)"><ellipse cx="139" cy="44" fill="#fff" fill-opacity=".5" rx="255" ry="55"/><ellipse cx="196" cy="57" fill="#b4c8e2" fill-opacity=".5" rx="247" ry="61"/><path fill="#425975" fill-opacity=".5" d="M168.6 159L-.9 95.6l163.7-2.1L271 98.2z"/><circle r="1" fill="#c7d1e0" fill-opacity=".5" transform="matrix(-134.78293 4.86715 -1.58126 -43.78889 225.8 44.1)"/><path fill="#1a2436" fill-opacity=".5" d="M189 97l-24-11-8 12z"/><ellipse cx="80" cy="97" fill="#213652" fill-opacity=".5" rx="127" ry="2"/><ellipse cx="56" cy="107" fill="#6982a4" fill-opacity=".5" rx="232" ry="5"/><circle r="1" fill="#93aacc" fill-opacity=".5" transform="rotate(-57.7 28 -25.3) scale(97.8908 45.28724)"/><ellipse cx="172" cy="142" fill="#596e87" fill-opacity=".5" rx="113" ry="7"/><circle r="1" fill="#a7bbd9" fill-opacity=".5" transform="matrix(9.39682 31.521 -106.41769 31.72449 137.5 9.3)"/><path fill="#607590" fill-opacity=".5" d="M228 120.2l-201.3-2.7L271 105.7v33.9z"/><path fill="#b4bcca" fill-opacity=".5" d="M148.1 97.4L103.3 95 45.9 29.9l136 49.4z"/><ellipse cx="48" cy="99" fill="#2b405d" fill-opacity=".5" rx="69" ry="3"/><circle r="1" fill="#969fb1" fill-opacity=".5" transform="matrix(3.59202 -14.29178 49.75244 12.50452 16.6 77.7)"/><ellipse cx="255" cy="61" fill="#c4cbd4" fill-opacity=".5" rx="86" ry="35"/><circle r="1" fill="#26384d" fill-opacity=".5" transform="matrix(.30173 -3.80906 45.6442 3.6156 130.5 128.1)"/><path fill="#485d79" fill-opacity=".5" d="M159 97h93v10h-93z"/><ellipse cx="209" cy="111" fill="#8498b3" fill-opacity=".5" rx="96" ry="2"/><path fill="#667b99" fill-opacity=".5" d="M140 101h31v23h-31z"/><circle r="1" fill="#91abd0" fill-opacity=".5" transform="matrix(138.68796 -38.62438 7.8246 28.09564 31.3 0)"/><ellipse cx="70" cy="99" fill="#415675" fill-opacity=".5" rx="21" ry="6"/><path fill="#bbbfc6" fill-opacity=".5" d="M185 74h35v22h-35z"/><ellipse cx="237" cy="119" fill="#495d76" fill-opacity=".5" rx="123" ry="6"/><path fill="#273c50" fill-opacity=".5" d="M37 119.7l-7.3 34.2-54.7-11.6 7.3-34.2z"/><path fill="#2b3c4c" fill-opacity=".5" d="M180 138.1l91-5.9-115.5-7.9 45.5 11.2z"/><path fill="#aeb5c4" fill-opacity=".5" d="M85 81h74v15H85z"/><path fill="#4e5a6b" fill-opacity=".5" d="M158 98V85l6 4z"/><ellipse cx="166" cy="79" fill="#bac0cb" fill-opacity=".5" rx="43" ry="9"/><path fill="#979ca5" fill-opacity=".5" d="M166 84l18 9h-12z"/><path fill="#5b6f86" fill-opacity=".5" d="M191 138h65v6h-65z"/><path fill="#445a76" fill-opacity=".5" d="M0 130h45v4H0z"/><circle cx="41" cy="57" r="23" fill="#a9b5c7" fill-opacity=".5"/><path fill="#28394c" fill-opacity=".5" d="M178 119h53v2h-53z"/><path fill="#35485f" fill-opacity=".5" d="M132.7 143.1l47.5-6.4-2.1-16-42.2 22.3z"/><path fill="#5b7394" fill-opacity=".5" d="M29 103h77v11H29z"/><path fill="#394f6d" fill-opacity=".5" d="M0 101h51v3H0z"/><circle r="1" fill="#939eb3" fill-opacity=".5" transform="rotate(-85.7 48 41) scale(9.7183 29.08843)"/><ellipse cx="247" cy="107" fill="#8296b1" fill-opacity=".5" rx="15" ry="2"/><ellipse cx="26" cy="122" fill="#1c2e3f" fill-opacity=".5" rx="30" ry="2"/><circle r="1" fill="#abbed8" fill-opacity=".5" transform="matrix(-108.40461 8.31113 -.94356 -12.30714 220.6 8.2)"/><ellipse cx="255" cy="86" fill="#b6bdc7" fill-opacity=".5" rx="85" ry="10"/><path fill="#233342" fill-opacity=".5" d="M201 130h55v3h-55z"/><path fill="#374c66" fill-opacity=".5" d="M71 129h62v13H71z"/><circle r="1" fill="#a0acbe" fill-opacity=".5" transform="rotate(-167 41.2 39.2) scale(39.99924 4.46595)"/><ellipse cx="168" cy="98" fill="#405571" fill-opacity=".5" rx="106" ry="2"/><ellipse cx="164" cy="112" fill="#7085a2" fill-opacity=".5" rx="24" ry="5"/><circle r="1" fill="#8ca3c5" fill-opacity=".5" transform="rotate(24.4 -36.7 8) scale(19.61143 82.6214)"/><path fill="#415671" fill-opacity=".5" d="M163 105h31v3h-31z"/><circle cx="163" cy="94" r="3" fill="#172335" fill-opacity=".5"/><path fill="#6d83a5" fill-opacity=".5" d="M165.7 102.7l-54.8 3.6 26.3-6 46.2 1.1z"/><path fill="#182734" fill-opacity=".5" d="M-7 159l19-22-25 1z"/><ellipse cx="208" cy="33" fill="#b8c7db" fill-opacity=".5" rx="69" ry="16"/><path fill="#192838" fill-opacity=".5" d="M108 125h17v4h-17z"/><path fill="#152735" fill-opacity=".5" d="M43 143h25v1H43z"/><ellipse cx="103" cy="119" fill="#485e7c" fill-opacity=".5" rx="40" ry="4"/><path fill="#4a5f7c" fill-opacity=".5" d="M117 136.9l-1.2 15-30.9-2.8 1.3-15z"/><circle cx="81" cy="96" r="4" fill="#455875" fill-opacity=".5"/><path fill="#c3cbd6" fill-opacity=".5" d="M196.6 41.2l78-1.4.8 41-78 1.4z"/><circle r="1" fill="#b0bed2" fill-opacity=".5" transform="matrix(-32.17346 19.63877 -9.84283 -16.12514 99.5 46)"/><path fill="#3a4d66" fill-opacity=".5" d="M194 108h24v1h-24z"/><circle r="1" fill="#a0b4d3" fill-opacity=".5" transform="matrix(58.1023 -10.771 3.05066 16.45625 103 0)"/><ellipse cx="236" cy="112" fill="#8193ab" fill-opacity=".5" rx="26" ry="2"/><ellipse cx="119" cy="96" fill="#5b7190" fill-opacity=".5" rx="38" ry="1"/><circle r="1" fill="#9cabc0" fill-opacity=".5" transform="matrix(9.19377 -6.24808 26.63606 39.19377 12.6 56.6)"/><path fill="#4c5b70" fill-opacity=".5" d="M171.7 106.9l9.8-16.3.8.5-9.8 16.3z"/><path fill="#556a83" fill-opacity=".5" d="M271.9 109.4l1.7 10.9-39.5 6.3-1.7-10.9z"/><circle r="1" fill="#465d78" fill-opacity=".5" transform="matrix(7.0064 .47465 -.22503 3.32167 64 138.1)"/><ellipse cx="99" cy="133" fill="#2f4259" fill-opacity=".5" rx="44" ry="3"/><path fill="#667c9b" fill-opacity=".5" d="M147.6 122.8l-13.8-2.7.6-3 13.8 2.8z"/><path fill="#677b98" fill-opacity=".5" d="M189 104h62v2h-62z"/><path fill="#485d73" fill-opacity=".5" d="M218 135l20-2-16 26z"/><path fill="#687e9f" fill-opacity=".5" d="M45 106h58v5H45z"/><path fill="#99a7bb" fill-opacity=".5" d="M33 87h24v9H33z"/><ellipse cx="173" cy="110" fill="#6c819e" fill-opacity=".5" rx="27" ry="4"/><path fill="none" stroke="#4d6483" stroke-opacity=".5" stroke-width=".5" d="M.8 118.2q137.4-5.4 186-6.8"/><path fill="#3b526c" fill-opacity=".5" d="M9 127h87v3H9z"/><path fill="#283849" fill-opacity=".5" d="M190 142h17v1h-17z"/><path fill="#485e7d" fill-opacity=".5" d="M95.1 95.7l9.3 10.5-13.9-.7L71.2 140z"/><path fill="#b5bdc8" fill-opacity=".5" d="M185.6 96.2L271 60.6l-82.9 36.7 2.6.9z"/><ellipse cx="172" cy="116" fill="#435771" fill-opacity=".5" rx="11" ry="2"/><path fill="#30435a" fill-opacity=".5" d="M83.1 121.2l32.3 7.3-44.7 5.3L84 159z"/><path fill="#556984" fill-opacity=".5" d="M73.3 147.4l111.6 11.1 11.5-19.4-20 .1z"/><path fill="#bdc4ce" fill-opacity=".5" d="M164.5 59.4l11.3 34.8 13.4-9.8 81.8-5.6z"/><path fill="#3b526f" fill-opacity=".5" d="M18 112h44v3H18z"/><path fill="#283c51" fill-opacity=".5" d="M48 123h49v3H48z"/><path fill="#546d90" fill-opacity=".5" d="M13 106h16v7H13z"/><path fill="#283345" fill-opacity=".5" d="M157.4 92.2l17.4 4.6-.2 1-17.4-4.6z"/><path fill="#798dac" fill-opacity=".5" d="M133 108h12v7h-12z"/><path fill="#96a3b6" fill-opacity=".5" d="M0 90h80v4H0z"/><path fill="#283948" fill-opacity=".5" d="M217 125h11v4h-11z"/><path fill="#b2bbc9" fill-opacity=".5" d="M113 82h95v6h-95z"/><circle r="1" fill="#283c51" fill-opacity=".5" transform="matrix(47.63407 -6.15558 .12816 .99175 22.2 123)"/><path fill="#3c4f6a" fill-opacity=".5" d="M24.2 104.5L-1 95l-15 17 48.7-18.8z"/><path fill="#1e2a35" fill-opacity=".5" d="M247 143h6v1h-6z"/><path fill="#384659" fill-opacity=".5" d="M163.6 92.6l1.9-3.6.9.4-1.9 3.6z"/><path fill="#a2afc2" fill-opacity=".5" d="M47 69h12v27H47z"/><path fill="#445a79" fill-opacity=".5" d="M82 113h32v5H82z"/><ellipse cx="210" cy="120" fill="#374a60" fill-opacity=".5" rx="32" ry="2"/><path fill="#41546d" fill-opacity=".5" d="M175 130h19v9h-19z"/><path fill="none" stroke="#aab4c4" stroke-opacity=".5" stroke-width=".5" d="M82.7 35.7q1 75.2 162.5 52.5"/></g></g></svg>