<svg xmlns="http://www.w3.org/2000/svg" viewBox="0 0 1800 1200"><defs/><filter id="prefix__a"><feGaussianBlur stdDeviation="12"/></filter><rect width="100%" height="100%" fill="#3f5c93"/><g filter="url(#prefix__a)"><g transform="translate(3.5 3.5) scale(7.03125)"><ellipse cx="108" cy="31" fill="#fff" fill-opacity=".5" rx="255" ry="54"/><circle r="1" fill-opacity=".5" transform="rotate(1.5 -5988.6 4719.2) scale(255 47.30286)"/><circle r="1" fill="#eaffff" fill-opacity=".5" transform="matrix(-.39394 -37.61749 191.59098 -2.0064 122.3 24.6)"/><circle r="1" fill="#001" fill-opacity=".5" transform="matrix(242.23544 10.85054 -1.43482 32.03204 129.9 166.4)"/><ellipse cx="150" cy="83" fill="#678fd1" fill-opacity=".5" rx="255" ry="13"/><circle r="1" fill="#1b366b" fill-opacity=".5" transform="matrix(-73.89188 3.08599 -.7302 -17.48407 188.1 117.5)"/><circle r="1" fill="#c1d8ff" fill-opacity=".5" transform="rotate(178 72.8 8.5) scale(213.6203 55.77305)"/><circle r="1" fill="#8faee0" fill-opacity=".5" transform="matrix(-.81454 18.77581 -114.63666 -4.97323 209.3 69.2)"/><circle r="1" fill="#e2ecfd" fill-opacity=".5" transform="matrix(-143.12374 1.07745 -.11165 -14.83054 118.8 35.5)"/><ellipse cx="86" cy="110" fill="#284379" fill-opacity=".5" rx="51" ry="18"/><path fill="#4d6ca8" fill-opacity=".5" d="M33 79h128v20H33z"/><circle r="1" fill="#08234a" fill-opacity=".5" transform="rotate(71.4 23.3 228.4) scale(22.58292 36.57586)"/><circle r="1" fill="#000510" fill-opacity=".5" transform="matrix(.74072 -16.29377 78.92884 3.58812 60 169)"/><circle r="1" fill="#9cb8e5" fill-opacity=".5" transform="matrix(64.60578 3.16994 -.59164 12.05808 50.3 62.4)"/><circle r="1" fill="#accaff" fill-opacity=".5" transform="rotate(-1.1 90.3 -6881) scale(156.45513 13.08827)"/><circle r="1" fill="#3b5891" fill-opacity=".5" transform="matrix(-3.15657 11.73655 -29.00332 -7.8005 163.6 103.6)"/><ellipse cx="20" cy="136" fill="#011e41" fill-opacity=".5" rx="57" ry="15"/><circle r="1" fill="#294379" fill-opacity=".5" transform="matrix(28.76201 6.46557 -2.37444 10.56268 5.8 108.4)"/><path fill="#6a8ac2" fill-opacity=".5" d="M169 77h87v12h-87z"/><path fill="#89a6d0" fill-opacity=".5" d="M27 91.7l63.9-3.4.1 2-63.9 3.4z"/><path fill="#7e9cce" fill-opacity=".5" d="M37 71.3l.9 12-49 3.4-.8-12z"/><circle r="1" fill="#00162d" fill-opacity=".5" transform="matrix(-108.81217 -21.12187 5.16472 -26.60674 182.2 169)"/><path fill="#5e7db9" fill-opacity=".5" d="M239 83h17v21h-17z"/><ellipse cx="84" cy="122" fill="#3f5a8f" fill-opacity=".5" rx="28" ry="3"/><ellipse cx="89" cy="115" fill="#081e43" fill-opacity=".5" rx="46" ry="3"/><ellipse cx="43" cy="105" fill="#5271aa" fill-opacity=".5" rx="25" ry="4"/><ellipse cx="167" cy="94" fill="#3c5c98" fill-opacity=".5" rx="44" ry="6"/><path fill="#8dabd9" fill-opacity=".5" d="M121.6 81.4l-33.7 3.5L199.1 80l-26-14.2z"/><path fill="#081f43" fill-opacity=".5" d="M87.4 138.1l82.3-13-40.2-4.9-79.7 13.6z"/><path fill="#273d6c" fill-opacity=".5" d="M215 101l-37 24 67-1z"/><ellipse cx="220" cy="55" fill="#b2c9eb" fill-opacity=".5" rx="166" ry="7"/><circle r="1" fill="#c7ddff" fill-opacity=".5" transform="matrix(125.00888 4.23265 -.3801 11.22578 166 19.5)"/><path fill="#3e5c95" fill-opacity=".5" d="M168 94l48 22-44-2z"/><path fill="#a6bcd8" fill-opacity=".5" d="M19.9 92.1v1l-31.8 2.8v-1z"/><path fill="#162b58" fill-opacity=".5" d="M34 108h25v27H34z"/><path fill="#30508d" fill-opacity=".5" d="M100 84h37v4h-37z"/><ellipse cx="50" cy="99" fill="#294176" fill-opacity=".5" rx="54" ry="3"/><path fill="#18305b" fill-opacity=".5" d="M124 129h88v9h-88z"/><circle r="1" fill="#041933" fill-opacity=".5" transform="rotate(-149.3 144 43.2) scale(29.88079 14.406)"/><path fill="#4d74b8" fill-opacity=".5" d="M102.4 78.6l.4-3 30.8 3.8-.4 3z"/><path fill="#7597cb" fill-opacity=".5" d="M108 87h79v2h-79z"/><circle r="1" fill="#809fcf" fill-opacity=".5" transform="matrix(65.31633 -.17931 .00275 1 73.7 83.5)"/><path fill="#9db9e4" fill-opacity=".5" d="M259.8 62.4L271 45.8l-48.8 4.5L174.8 77z"/><path fill="#3e65ab" fill-opacity=".5" d="M44 79h48v3H44z"/><ellipse cx="144" cy="103" fill="#203868" fill-opacity=".5" rx="13" ry="3"/><path fill="#7392c4" fill-opacity=".5" d="M230 89h26v7h-26z"/><ellipse cx="123" cy="37" fill="#dbe8f8" fill-opacity=".5" rx="76" ry="13"/><path fill="#5471a7" fill-opacity=".5" d="M21.3 104l.8 5-39.4 7-.8-5z"/><path fill="#172b55" fill-opacity=".5" d="M207 105l64 11-4 33z"/><path fill="#3e60a3" fill-opacity=".5" d="M271 90.4l-36-5.1 36-5.1-5.3 22.6z"/><circle r="1" fill="#acc9f9" fill-opacity=".5" transform="rotate(79 1.3 9.7) scale(10.69587 101.84575)"/><ellipse cx="26" cy="75" fill="#5177be" fill-opacity=".5" rx="50" ry="1"/><path fill="#6386be" fill-opacity=".5" d="M136 98h31v2h-31z"/><ellipse cx="246" cy="73" fill="#7e9dd2" fill-opacity=".5" rx="32" ry="9"/><ellipse cx="61" cy="169" fill="#000818" fill-opacity=".5" rx="66" ry="11"/><path fill="#8ca9d8" fill-opacity=".5" d="M120 62h18v18h-18z"/><ellipse cx="197" cy="77" fill="#6c8ec9" fill-opacity=".5" rx="59" ry="2"/><path fill="#415e95" fill-opacity=".5" d="M139.3 113.9l8.6-8.2 44.5 7.8-41.2.1z"/><ellipse cx="47" cy="152" fill="#011427" fill-opacity=".5" rx="49" ry="9"/><path fill="#3e5c9a" fill-opacity=".5" d="M19 85h36v5H19z"/><circle r="1" fill="#b4cffc" fill-opacity=".5" transform="matrix(-1.38318 18.05637 -64.55587 -4.94521 224.9 0)"/><path fill="none" stroke="#32518f" stroke-opacity=".5" stroke-width=".5" d="M61.2 87q52-.2 104.3-3.6"/><path fill="#203765" fill-opacity=".5" d="M-13.8 105.5l22.1.5 5.8-8.7-29.9-3.2z"/><ellipse cx="197" cy="81" fill="#4369af" fill-opacity=".5" rx="23" ry="1"/><path fill="#1e3665" fill-opacity=".5" d="M57 106.8l-73 32.3v-54 31.2z"/><path fill="#6b8cc1" fill-opacity=".5" d="M54.2 91.6l-7.9-4.8 38.6 6.4-25.8 2.2z"/><circle r="1" fill="#c0d7fa" fill-opacity=".5" transform="rotate(162.9 -2.3 15) scale(79.2127 11.33795)"/><path fill="#6688c0" fill-opacity=".5" d="M0 95h55v1H0z"/><path fill="#0a2346" fill-opacity=".5" d="M166.4 134.7l63.8 5.6-.6 7-63.8-5.6z"/><path fill="#6c8ec5" fill-opacity=".5" d="M163 82h33v7h-33z"/><path fill="#6085c1" fill-opacity=".5" d="M197 97.4l-26-1.8v-1l26 1.8z"/><path fill="#2b467c" fill-opacity=".5" d="M167 93.3l-42.1-.1 14.1 3 18-1.7z"/><path fill="#48659e" fill-opacity=".5" d="M28.6 108l-31.7 3.3 62-3L27 86.7z"/><path fill="#091f43" fill-opacity=".5" d="M-12 117l40 16 20-14z"/><ellipse cx="234" cy="99" fill="#4060a2" fill-opacity=".5" rx="23" ry="3"/><path fill="#99b3d8" fill-opacity=".5" d="M165 83h61v1h-61z"/><ellipse cx="119" cy="71" fill="#5f85c7" fill-opacity=".5" rx="27" ry="1"/><path fill="#162e59" fill-opacity=".5" d="M149.9 124.1l21.7-11.5 34.9 10.6 5.3-5.6z"/><path fill="#4c6ca6" fill-opacity=".5" d="M123.7 94.8l3.6 5.9-65.7-3.9L169 99.7z"/><path fill="#314b83" fill-opacity=".5" d="M231 108l-56-9 37-4z"/><path fill="#7e9cce" fill-opacity=".5" d="M0 70h22v15H0z"/><path fill="#cadaf3" fill-opacity=".5" d="M214 24h42v24h-42z"/><path fill="#9ab4dc" fill-opacity=".5" d="M170 78h47v2h-47z"/><path fill="#4668aa" fill-opacity=".5" d="M71 80.3l-46 2.4v-1l46-2.4z"/><path fill="#35528c" fill-opacity=".5" d="M147.9 93.6l-39.3 4.6-19.5-7.5-12.7 5.1z"/><path fill="#a8bedf" fill-opacity=".5" d="M95 75h48v2H95z"/><ellipse cx="206" cy="91" fill="#3f5f9f" fill-opacity=".5" rx="37" ry="2"/><path fill="#071b37" fill-opacity=".5" d="M106 152l-59-23 87 5z"/><path fill="#7390c1" fill-opacity=".5" d="M9.1 89.9l35.1 2.2-49.8-5.8-10.4 6z"/><path fill="#a2bde5" fill-opacity=".5" d="M136.5 61h73v10h-73z"/><path fill="#2a4172" fill-opacity=".5" d="M10 122l38-9-21-3z"/><ellipse cx="123" cy="53" fill="#b9cfef" fill-opacity=".5" rx="85" ry="4"/><path fill="#a2bbe2" fill-opacity=".5" d="M74 65L-8 46l7 23z"/><ellipse cx="54" cy="46" fill="#d7e0f1" fill-opacity=".5" rx="180" ry="4"/><path fill="#223764" fill-opacity=".5" d="M49 124h39v5H49z"/><ellipse cx="41" cy="83" fill="#a2b7d7" fill-opacity=".5" rx="22" ry="1"/><path fill="#7795c9" fill-opacity=".5" d="M228 80l26 10-38-3z"/><ellipse cx="75" cy="83" fill="#7093cb" fill-opacity=".5" rx="16" ry="3"/><path fill="#203562" fill-opacity=".5" d="M216.5 134.1l-46.6-7.2 86-1.7-33.9-8.9z"/><ellipse cy="79" fill="#96aed4" fill-opacity=".5" rx="40" ry="2"/></g></g></svg>