<svg xmlns="http://www.w3.org/2000/svg" viewBox="0 0 1800 1200"><defs/><filter id="prefix__a"><feGaussianBlur stdDeviation="12"/></filter><rect width="100%" height="100%" fill="#522f32"/><g filter="url(#prefix__a)"><g transform="translate(3.5 3.5) scale(7.03125)"><circle r="1" fill="#ff9b13" fill-opacity=".5" transform="rotate(-179.6 75.5 42.4) scale(255 36.88177)"/><ellipse cx="163" cy="80" fill="#ff912c" fill-opacity=".5" rx="87" ry="30"/><circle r="1" fill="#003043" fill-opacity=".5" transform="rotate(177 50.4 81.2) scale(179.37176 36.81263)"/><ellipse cx="171" cy="55" fill="#fff" fill-opacity=".5" rx="14" ry="7"/><circle r="1" fill="#19202e" fill-opacity=".5" transform="matrix(-168.26502 3.96857 -1.25996 -53.42147 120.6 0)"/><ellipse cx="33" cy="90" fill="#c94b1d" fill-opacity=".5" rx="88" ry="32"/><circle r="1" fill="#753b30" fill-opacity=".5" transform="matrix(46.18825 1.81794 -.4095 10.40434 159 39.5)"/><path fill="#fff" fill-opacity=".5" d="M187.1 50.2l-3.7 8.4-21.1 8-3.7-15z"/><ellipse cx="225" cy="110" fill="#d55212" fill-opacity=".5" rx="149" ry="12"/><circle r="1" fill="#f38e20" fill-opacity=".5" transform="matrix(1.31309 17.0209 -64.97719 5.0127 149.4 80)"/><ellipse cx="118" cy="139" fill="#1e303d" fill-opacity=".5" rx="255" ry="18"/><circle r="1" fill="#a14421" fill-opacity=".5" transform="matrix(-2.21763 -36.98203 27.45219 -1.64617 15.8 82.7)"/><ellipse cx="247" cy="86" fill="#b7450e" fill-opacity=".5" rx="20" ry="35"/><circle r="1" fill="#cf6321" fill-opacity=".5" transform="matrix(-4.43999 -21.52518 52.68642 -10.8676 77 75.3)"/><path fill="#1d2330" fill-opacity=".5" d="M-9 48L211-7 0-16z"/><circle r="1" fill="#262128" fill-opacity=".5" transform="rotate(141.2 117.3 51.3) scale(33.04589 38.98827)"/><ellipse cx="172" cy="47" fill="#db5417" fill-opacity=".5" rx="14" ry="3"/><ellipse cx="62" cy="54" fill="#9b3822" fill-opacity=".5" rx="81" ry="5"/><path fill="#9f441f" fill-opacity=".5" d="M0 106h84v16H0z"/><ellipse cx="113" cy="31" fill="#3d2c35" fill-opacity=".5" rx="46" ry="21"/><ellipse cx="11" cy="152" fill="#192b33" fill-opacity=".5" rx="42" ry="31"/><path fill="#fff" fill-opacity=".5" d="M184 49l-25 4 18 8z"/><circle r="1" fill="#d97321" fill-opacity=".5" transform="rotate(-74.6 120.6 -30.4) scale(17.15497 65.91607)"/><path fill="#ef8f23" fill-opacity=".5" d="M157 99l31-51 9 28z"/><ellipse cx="245" cy="151" fill="#192831" fill-opacity=".5" rx="35" ry="30"/><path fill="#4f2f2f" fill-opacity=".5" d="M184 27h57v24h-57z"/><path fill="#d15e16" fill-opacity=".5" d="M268 90l-29-34-64-10z"/><ellipse cx="107" cy="143" fill="#27323e" fill-opacity=".5" rx="128" ry="23"/><path fill="#eb8b24" fill-opacity=".5" d="M181.4 106.4l3.5-35.5-29.1-13.4-60 20.3z"/><ellipse cx="210" cy="96" fill="#cf6417" fill-opacity=".5" rx="37" ry="10"/><path fill="#9f4317" fill-opacity=".5" d="M221 109h35v13h-35z"/><path fill="#c45a1f" fill-opacity=".5" d="M64 87h52v34H64z"/><ellipse cx="88" cy="47" fill="#5c322c" fill-opacity=".5" rx="73" ry="5"/><path fill="#f05b00" fill-opacity=".5" d="M160 50h5v2h-5z"/><circle r="1" fill="#1c1e2a" fill-opacity=".5" transform="matrix(48.18695 4.10088 -1.23247 14.48196 229.8 2.4)"/><path fill="#fcffff" fill-opacity=".5" d="M168 62l-6-11 21 3z"/><circle r="1" fill="#8e3f20" fill-opacity=".5" transform="matrix(18.18638 5.28063 -3.60715 12.42297 4.7 108.8)"/><ellipse cx="5" cy="36" fill="#382a32" fill-opacity=".5" rx="133" ry="12"/><circle r="1" fill="#e47e1e" fill-opacity=".5" transform="matrix(-26.00884 -16.4153 6.84705 -10.84866 208.3 73.5)"/><circle r="1" fill="#1a1e27" fill-opacity=".5" transform="rotate(53.1 13 25.8) scale(16.23681 96.02031)"/><path fill="#90442a" fill-opacity=".5" d="M160.3 43.8l9.4-5 24.3 8.7-15.4 3.7z"/><path fill="#c95d19" fill-opacity=".5" d="M166.3 51.3l-95.4 7.3 58.9 3.9L173 46.9z"/><path fill="#98321a" fill-opacity=".5" d="M218 51h38v5h-38z"/><path fill="#ee9228" fill-opacity=".5" d="M181.4 87.2L156 90.3l-14.8-1.7 15.3-35.8z"/><ellipse cx="4" cy="56" fill="#a04925" fill-opacity=".5" rx="67" ry="8"/><path fill="#442f34" fill-opacity=".5" d="M202.6 23.6l33 2.2L46.8 53l110.7-36.2z"/><circle r="1" fill="#1b2830" fill-opacity=".5" transform="matrix(-28.47782 -3.64147 3.9066 -30.55117 2.8 154)"/><path fill="#fffffa" fill-opacity=".5" d="M157.2 51.4l18.2 12.3-.6.9-18.2-12.3z"/><path fill="#f0942a" fill-opacity=".5" d="M210.1 92.5l-52.3-25.9 18-4.5 7.9-4.3z"/><circle r="1" fill="#2b3440" fill-opacity=".5" transform="matrix(30.61751 16.27962 -9.6256 18.10312 161 145.8)"/><path fill-opacity=".5" d="M244 159h12v3h-12z"/><circle r="1" fill="#b95621" fill-opacity=".5" transform="matrix(35.20003 -9.13654 1.81366 6.98742 43.3 65.9)"/><ellipse cx="139" cy="52" fill="#ab441a" fill-opacity=".5" rx="16" ry="2"/><path fill="#1d2934" fill-opacity=".5" d="M15 122h78v7H15z"/><path fill="#b55113" fill-opacity=".5" d="M239.9 81.5l-15.1 6.1 35.2 12.7 10.1-12.9z"/><circle r="1" fill="#2c2530" fill-opacity=".5" transform="rotate(-159.2 118 -8.8) scale(95.67691 9.64974)"/><path fill="#df7c1d" fill-opacity=".5" d="M134 92h52v12h-52z"/><path fill="#aa4d22" fill-opacity=".5" d="M95.3 47.5l2.1 15.9 15-.6-34.6-13.5z"/><ellipse cx="66" cy="116" fill="#ac4920" fill-opacity=".5" rx="39" ry="5"/><circle r="1" fill="#2b2734" fill-opacity=".5" transform="matrix(83.36441 -12.4589 1.42877 9.56015 97 18)"/><path fill="#6f3126" fill-opacity=".5" d="M194.8 51.7l45.1-.4-89.8-12.6 25.6 7z"/><path fill="#823829" fill-opacity=".5" d="M149.9 54.9l1-.3-1.3-9 33.4-4.5z"/><path fill="#ce601b" fill-opacity=".5" d="M222.8 107.1l-79.5 14.1-24.4-1.1-3.1-10.6z"/><path fill="#ba5320" fill-opacity=".5" d="M5.9 86.3l9.4-11.8 99 45.5-74.4-13.2z"/><path fill="#d16c1c" fill-opacity=".5" d="M181 110l59-20-60-7z"/><circle r="1" fill="#d16c1c" fill-opacity=".5" transform="matrix(8.48367 -6.22922 10.44115 14.21996 228.4 69.1)"/><path fill="#d57022" fill-opacity=".5" d="M70 89l15-29 75 55z"/><ellipse cx="106" cy="169" fill="#1f303a" fill-opacity=".5" rx="116" ry="13"/><path fill="#e27c1e" fill-opacity=".5" d="M109.8 63.7l47.7-11 2.7 11.6-47.7 11z"/><path fill="#0a1115" fill-opacity=".5" d="M183.4 168.8l22.1.3-43.9 5.7 6.5 7.5z"/><ellipse cx="182" cy="127" fill="#292e39" fill-opacity=".5" rx="129" ry="5"/><path fill="#fdfffa" fill-opacity=".5" d="M159.3 53.7l17.7-4.2-1 12.1-14.7-1.1z"/><path fill="#f19428" fill-opacity=".5" d="M176 63.2l22.7 24.2-39-29.3-16.5 7z"/><path fill="#9e4517" fill-opacity=".5" d="M271 70.8l-29.8 46.6-6.9 2 36.7 4.4z"/><path fill="#263441" fill-opacity=".5" d="M81 128h72v33H81z"/><path fill="#4a2f31" fill-opacity=".5" d="M204.4 32.2l-37.3-8.6L102 54 86.3 42.5z"/><path fill="#161e26" fill-opacity=".5" d="M77 143h46v2H77z"/><circle r="1" fill="#944421" fill-opacity=".5" transform="rotate(-164.2 4.2 30.2) scale(11.01465 13.52964)"/><path fill="#512d25" fill-opacity=".5" d="M226 45h30v7h-30z"/><path fill="#b24f18" fill-opacity=".5" d="M271 84.4L231.8 122l-76.6.6 45.5-6.7z"/><path fill="#fff663" fill-opacity=".5" d="M171 50h14v1h-14z"/><path fill="#7c3d2c" fill-opacity=".5" d="M40.5 52.6l29.1 1.2-28.2-7.6-5.7 7.1z"/><path fill="#c65c19" fill-opacity=".5" d="M149 120h60l49-31z"/><ellipse cx="91" cy="121" fill="#773b25" fill-opacity=".5" rx="77" ry="1"/><path fill="#994623" fill-opacity=".5" d="M0 112h54v10H0z"/><path fill="#bd5418" fill-opacity=".5" d="M256.6 78.5l14.4-2.1-31.9-23-36.3-3z"/><path fill="#c95d1e" fill-opacity=".5" d="M79 59h34v7H79z"/><path fill="none" stroke="#cd651c" stroke-opacity=".5" stroke-width=".5" d="M162.9 49.6q54.9-3 86.5 28.8"/><circle r="1" fill="#222b34" fill-opacity=".5" transform="matrix(2.14786 -10.17293 22.8657 4.82775 255 132.8)"/><path fill="#d9731e" fill-opacity=".5" d="M119 84h17v18h-17z"/><path fill="#603432" fill-opacity=".5" d="M155.3 35.5l1-3.7-15.9 19.9 42.8-11.9z"/><ellipse cx="246" cy="85" fill="#a44a13" fill-opacity=".5" rx="8" ry="3"/><path fill="#050b0f" fill-opacity=".5" d="M74 157h8v2h-8z"/><path fill="#162128" fill-opacity=".5" d="M28.5 154.2l16.3-1.5-48.6 13-12.2-.1z"/><path fill="#d0611c" fill-opacity=".5" d="M180.5 50.1l-23-1.2v-1l23 1.2z"/><path fill="#e48222" fill-opacity=".5" d="M241.7 81.7l-30.6 7.4-24.7-28.9-7.7 11z"/><path fill="#24333f" fill-opacity=".5" d="M49 175l43-51-71 12z"/><path fill="#f8a532" fill-opacity=".5" d="M185 79l7 7V73z"/><circle r="1" fill="#201e25" fill-opacity=".5" transform="matrix(31.9591 42.56554 -9.77914 7.34238 255 15)"/><path fill="#be531d" fill-opacity=".5" d="M80 115h51v6H80z"/></g></g></svg>