<svg xmlns="http://www.w3.org/2000/svg" viewBox="0 0 1800 1200"><defs/><filter id="a"><feGaussianBlur stdDeviation="12"/></filter><rect width="100%" height="100%" fill="#3c4b76"/><g filter="url(#a)"><g fill-opacity=".5" transform="translate(3.5 3.5) scale(7.03125)"><circle r="1" fill="azure" transform="matrix(.82739 -59.25341 254.97516 3.56036 165.1 43.5)"/><path fill="#d8e7f1" d="M0 87h54v15H0z"/><path fill="#00133f" d="M65 94h136v8H65z"/><ellipse cx="208" cy="53" fill="#aec3dc" rx="173" ry="37"/><ellipse cx="178" cy="102" fill="#b97a71" rx="80" ry="3"/><circle r="1" fill="#7fa1cf" transform="matrix(253.8494 -24.19668 3.65788 38.37515 109.6 0)"/><circle cx="219" cy="157" r="55" fill="#426683"/><ellipse cx="244" cy="77" fill="#b6c2cf" rx="48" ry="26"/><circle r="1" fill="#0b4f86" transform="matrix(-.2082 -3.7568 24.0071 -1.3304 186.6 94.6)"/><path fill="#98aac4" d="M29 19l31 85-66-3z"/><ellipse cx="226" cy="168" fill="#798ba6" rx="32" ry="6"/><ellipse cx="110" cy="169" fill="#335679" rx="108" ry="76"/><circle r="1" fill="#6d8db9" transform="matrix(-152.672 45.8038 -6.6646 -22.21427 16.4 0)"/><path fill="#1b2e4a" d="M158.9 163.7l41.7-10.1 16.6-10.8-2.8 19.9z"/><path fill="#49648a" d="M213 143l-158-2 53 29z"/><path fill="#713638" d="M56 100h123v4H56z"/><path fill="#aabacd" d="M207 38h49v65h-49z"/><path fill="#e36956" d="M170 99h31v5h-31z"/><path fill="#2b3b51" d="M80.6 85.1l-20.7 17.5 4.2.2 10.9 3.4z"/><circle r="1" fill="#0c4983" transform="matrix(.022 2.22147 -66.40378 .65764 120.1 97.9)"/><circle r="1" fill="#123657" transform="rotate(177.3 -1.7 71.6) scale(53.19506 4.19735)"/><path fill="#60789a" d="M223.4 157.2l-.7-14 47.9-2.4.7 14z"/><path fill="#afb2be" d="M78 74h26v22H78z"/><path fill="#2b4f76" d="M0 103h54v36H0z"/><ellipse cx="144" cy="93" fill="#79717e" rx="47" ry="2"/><circle cx="38" cy="71" r="32" fill="#9babc4"/><circle r="1" fill="#afbdce" transform="matrix(70.25049 -5.04163 1.20622 16.8075 172.5 63.9)"/><path fill="#004f8f" d="M187 94l15 4 4-7z"/><ellipse cx="251" cy="161" fill="#15273a" rx="15" ry="4"/><path fill="#98afcc" d="M207-11l64 50-241 4z"/><path fill="#4b648b" d="M168 184l30-51-38 1z"/><ellipse cx="69" cy="83" fill="#1c3f60" rx="2" ry="4"/><path fill="#0d2844" d="M147 134.6l12-.2v9l-12 .2z"/><circle r="1" fill="#1a3658" transform="matrix(31.3623 -4.69779 .59357 3.96263 36 169)"/><path fill="#505567" d="M174 80h2v25h-2z"/><path fill="#dddbdc" d="M250 179l-12-13 33 10z"/><ellipse cx="150" cy="97" fill="#045b9e" rx="52" ry="2"/><ellipse cx="245" cy="123" fill="#365278" rx="69" ry="21"/><path fill="#223f65" d="M116 134l-28 11-17-23z"/><path fill="#6b82a5" d="M208 154l18 5 16-5z"/><path fill="#a3a9b4" d="M104 81h62v12h-62z"/><path fill="#0e2845" d="M110 168h33v2h-33z"/><ellipse cx="227" cy="151" fill="#1d3556" rx="20" ry="2"/><path fill="#4e4f5c" d="M151 82h2v13h-2z"/><path fill="#c78882" d="M190 98h20v7h-20z"/><path fill="#405d88" d="M98.4 140.5l-71.1-14.6 53.9 6.1 21-16.8z"/><path fill="#0d203a" d="M198.1 137l29.9 3-.1 1-29.9-3z"/><path fill="#0e4e85" d="M173 93h33v3h-33z"/><path fill="#82515c" d="M124 99h55v5h-55z"/><circle r="1" fill="#4c5c74" transform="rotate(169.9 60.7 51.5) scale(1 9.0214)"/><path fill="#5d779d" d="M86 160h77v2H86z"/><path fill="#5a7095" d="M186 164h53v6h-53z"/><path fill="#728cb5" d="M64 167h12v3H64z"/><path fill="#213d60" d="M151.3 147.5l-27.7-11.3 25.6-.1-14.6 12.4z"/><path fill="#4a668f" d="M19 150h66v5H19z"/><path fill="#2c466c" d="M61 149.8l-25.6-19.7 36.6 5.7-4.9 43.4z"/><path fill="#879bb8" d="M231 153h25v2h-25z"/><path fill="#4c6993" d="M120.3 146.1l32.6-4.1-61.6-2.4 21.1 6.4z"/><path fill="#4b6790" d="M83 159.2l-48 3.2 66.6-15.1-34.8-5.9z"/><path fill="#252130" d="M64 101h34v3H64z"/><circle r="1" fill="#001f37" transform="matrix(.02345 -.99972 6.20982 .14568 47.7 156.7)"/><ellipse cx="82" cy="95" fill="#6e666b" rx="21" ry="2"/><ellipse cx="83" cy="92" fill="#e9e4db" rx="2" ry="4"/><path fill="#00112b" d="M101 146h11v2h-11z"/><path fill="#486792" d="M138 118l11 16-27-5z"/><circle r="1" fill="#112c4b" transform="matrix(.245 -2.15547 10.4128 1.1836 85 141.2)"/><path fill="#5e616c" d="M82.2 89.8l-.9.5-3.5-6 .9-.6z"/><path fill="#4b668e" d="M201 132.5l1.7-7.8 32.3 6.8-1.7 7.8z"/><ellipse cx="196" cy="158" fill="#102640" rx="15" ry="3"/><path fill="#7f6668" d="M166 91h37v2h-37z"/><path fill="#213756" d="M221 116l28 3-14-7z"/><path fill="#aab8ca" d="M204 99l13-21 4 24z"/><circle r="1" fill="#95abca" transform="matrix(59.9222 -13.04425 3.01454 13.84807 65 37.6)"/><path fill="#9ca9be" d="M54.6 83.6l2.1 20.4L-16 69l99.2 15.8z"/><ellipse cx="72" cy="98" fill="#143a62" rx="17" ry="3"/><path fill="#557098" d="M257 132l-5-13-12 2z"/><path fill="#001022" d="M205 149h15v2h-15z"/><path fill="#405d89" d="M61.2 101.6l6.3 32.4-12.7 2.4-6.3-32.4z"/><path fill="#132848" d="M228 169h13v1h-13z"/><circle r="1" fill="#829dc5" transform="matrix(-2.04406 -8.38505 136.67253 -33.31717 84.5 6.5)"/><path fill="#9ea1a7" d="M258.1 164.9l-7.3 2.4-24.3 17.7h1.5z"/><path fill="#112c4a" d="M85 167.1l15.8-2.2.3 2-15.9 2.2z"/><path fill="#072642" d="M20 138l-11 7 24-6z"/><path fill="#036fb5" d="M179 94h21v4h-21z"/><path fill="#1c3a5a" d="M-16.2 120.1l-.4-5 36.8-3.2.4 5z"/><path fill="#6b8ab4" d="M40-3l-56 26V-2z"/><path fill="#4a6389" d="M217 143.6l-62.2 16.9 57.4-5.3-55.1-27.9z"/><path fill="#b0bbca" d="M169.7 76.8l18.3-17 14.3 15.4-18.3 17z"/><ellipse cx="158" cy="108" fill="#3a5881" rx="126" ry="4"/><path fill="#364e70" d="M73 155h92v4H73z"/><path fill="#304767" d="M225 156h19v6h-19z"/><path fill="#464a4f" d="M107.2 88.1l-.5 4-2-.2.6-4z"/><path fill="#112a48" d="M44 130h9v6h-9z"/><path fill="#f0f3f2" d="M83 84h2v10h-2z"/><path fill="#aebed1" d="M103 91h15v3h-15z"/><path fill="#203857" d="M184.5 167.7l-40.9 3.6v-1l40.8-3.6z"/><path fill="#3f5b86" d="M33.9 133.8L4.1 122.1l31 1.9 10.3-8.5z"/><path fill="#102842" d="M202 147h13v6h-13z"/><path fill="#a6b5ca" d="M72 54h52v32H72z"/><path fill="#2b4466" d="M172 147h44v2h-44z"/></g></g></svg>