<svg xmlns="http://www.w3.org/2000/svg" viewBox="0 0 1800 1200"><defs/><filter id="a"><feGaussianBlur stdDeviation="12"/></filter><rect width="100%" height="100%" fill="#4f3832"/><g filter="url(#a)"><g fill-opacity=".5" transform="translate(3.5 3.5) scale(7.03125)"><circle r="1" fill="#7ac1fd" transform="matrix(-197.20063 80.99609 -55.79722 -135.84912 154.6 43.1)"/><circle r="1" fill="#fffff7" transform="matrix(4.38297 16.52688 -79.63493 21.11938 100.4 88)"/><ellipse cx="107" cy="140" fill="#290e00" rx="67" ry="16"/><circle cx="248" cy="84" r="27"/><ellipse cx="83" cy="18" fill="#1d6acf" rx="198" ry="49"/><ellipse cx="195" cy="164" fill="#cdad80" rx="200" ry="17"/><ellipse cx="177" cy="86" fill="#d5d3bd" rx="40" ry="20"/><path fill="#7cafe4" d="M-23.2 69.7l127.6-29.4 8.8 38-127.6 29.4z"/><path fill="#231700" d="M223 146l-44-34 43-9z"/><ellipse cx="25" cy="133" fill="#845d39" rx="50" ry="23"/><path fill="#0e1514" d="M127 113L19 155l157-15z"/><path fill="#1b0d00" d="M199 61l72-2v75z"/><ellipse cx="41" cy="133" fill="#b1a697" rx="55" ry="9"/><circle r="1" fill="#fffff8" transform="matrix(47.60944 -16.85939 2.97632 8.40487 89.7 92.8)"/><circle r="1" fill="#1c5094" transform="matrix(1.46704 22.67734 -153.25525 9.91438 97.2 1.6)"/><ellipse cx="24" cy="150" fill="#00000a" rx="53" ry="4"/><path d="M243 183l28-31-46 19z"/><ellipse cx="255" cy="131" fill="#9c835d" rx="37" ry="22"/><path fill="#394a4d" d="M62.1 145.8l8.6-20.3 73.8-15.9 105.3-13z"/><ellipse cx="7" cy="121" fill="#2b0c04" rx="47" ry="5"/><path fill="#66b8ed" d="M175.2 117.6l-25.5 7.3 23.9 14.7 32.4-6.5z"/><path fill="#040000" d="M242 42l-6 12-7-11z"/><path fill="#d1d8de" d="M39.3 70.8L23.9 85.1l11.9-26.5L52 27.5z"/><path fill="#5f96d5" d="M109 41h93v24h-93z"/><path fill="#7b949c" d="M68.9 109.7l78.3-26.1 25.6 19.6-11.1 7.3z"/><path fill="#0d0800" d="M210.6 50.5l4.4 16.4-9.6 2.6-4.4-16.4z"/><path fill="#bfb1a2" d="M175 145h54v25h-54z"/><path fill="#6087a4" d="M68 84L2 122l-13-17z"/><path fill="#b2865c" d="M140 67l12 17-37-11z"/><path fill="#78644b" d="M163 136h43l-71 39z"/><path fill="#6298d9" d="M217.8 23.7L233 55l-18.9 9.2L199 33z"/><path fill="#e1cdb1" d="M228.8 90.7l-53.6-12.2-50.9-3.9 57.3-11.7z"/><path fill="#dde3ea" d="M121.5 74.1l-65.7 42.1L9.9 97.3l18.2 2.3z"/><path fill="#0a0200" d="M220.5 102.7l3.7-18.7 37.3 7.3-3.7 18.7z"/><path fill="#649ce3" d="M241 26h15v34h-15z"/><path fill="#090a0d" d="M164.5 145.7l-104.4-8.4 72.4-3.1 12.8-15.9z"/><path fill="#dbdacf" d="M97.6 55.3l27.5 35-47.8-54.4-21-26.8z"/><path fill="#6a8a9e" d="M202.1 110.4l3.5-38.1 14.6 26.5-13.4 27.5z"/><circle r="1" fill="#c1b09f" transform="matrix(59.39732 -2.2511 .14458 3.81499 0 142.6)"/><path fill="#38546c" d="M73.6 156.3h22.3L83 111.9l44.1 3.7z"/><path fill="#483d21" d="M214.4 146.1l28.5-15.7-41.3-6.8 6.4 23.3z"/><circle r="1" fill="#b0a494" transform="rotate(162.4 82.5 88.5) scale(28.32559 4.85145)"/><ellipse cx="132" cy="149" fill="#8c816d" rx="23" ry="5"/><ellipse cx="28" cy="169" fill="#aea696" rx="102" ry="16"/><circle r="1" fill="#000b1a" transform="matrix(-.03077 -1.93766 30.50567 -.48444 53 146.3)"/><circle r="1" fill="#0973b3" transform="rotate(74.3 -34 79.8) scale(1.61236 44.95983)"/><path fill="#5e4d41" d="M19.6 100.9L64 120.8 4.9 99.5l5.3-5z"/><path fill="#d6cab5" d="M75.4 77.8l-55.6 23.1-8.9-5 27.3-7.5z"/><path fill="#bfae9a" d="M72 133l-54-4 51-10z"/><ellipse cx="67" cy="59" fill="#477ec3" rx="28" ry="15"/><path fill="#b6ada2" d="M230.3 71.3l-3.9-4L196 79.2l-9.5-3.3z"/><circle r="1" fill="#362617" transform="matrix(-23.17733 5.00269 -.4039 -1.87128 191 139.6)"/><path fill="#ada69e" d="M172 185l60-49 39 6z"/><path fill="#1e1908" d="M223 65l-21 6-4-6z"/><path fill="#374b44" d="M56 157l-42 28 33-11z"/><circle r="1" fill="#e4faff" transform="matrix(-1.46315 1.5311 -9.24856 -8.83812 131.9 74.6)"/><path fill="#d9e1e3" d="M58 117.8l-5.1-10.9L80 94.2l5 10.9z"/><circle r="1" fill="#faeedc" transform="rotate(-105.8 71.2 8.1) scale(1 42.80918)"/><circle r="1" fill="#9fbec9" transform="matrix(1.86277 5.6483 -25.2359 8.3226 157.3 101)"/><circle r="1" fill="#528cd3" transform="rotate(-123.4 23 27.4) scale(17.06759 27.88403)"/><ellipse cx="236" cy="46" fill="#1b1900" rx="5" ry="7"/><path fill="#58483f" d="M126 113h81v5h-81z"/><path fill="#b2b6b9" d="M227.2 102.2l3.9 1.3 22.9 17-29.3-13z"/><circle r="1" fill="#ebe0d3" transform="matrix(1.70222 -2.09244 6.30654 5.13044 212.8 79.6)"/><path fill="#00102e" d="M228 169l26 16 5-29z"/><path fill="#ffffef" d="M28.9 80.7l-1-.4 19.2-43 1 .4z"/><circle r="1" fill="#0e5794" transform="matrix(1.29856 3.03102 -18.35462 7.86354 95.4 113.3)"/><path fill="#3081c0" d="M219 89.2l-1 8-19-2.4 1-8z"/><path d="M116 72h10v2h-10z"/><path fill="#336bb1" d="M92 15h65v35H92z"/><path fill="#843619" d="M141 68l-4 1 11 9z"/><circle r="1" fill="#0677be" transform="matrix(25.04007 -8.51238 .3854 1.1337 42.6 94.6)"/><path fill="#978d89" d="M87 145h12v6H87z"/><path fill="#091326" d="M46 136h25v2H46z"/><path fill="#8a9090" d="M74.4 114.1L133 98.2l41.9-22-93.8 30.7z"/><path fill="#cab08a" d="M167 137h4v13h-4z"/><path fill="#b1aba8" d="M-16 120.1l66.9-5.6-41.7-5.7 16.2 8.6z"/><path fill="#080d0d" d="M167 146.7l-14.9 2.6-1-6 14.8-2.6z"/><path fill="#c7dbe2" d="M169 90h33v6h-33z"/><circle cx="214" cy="122" r="6" fill="#000f1a"/><path fill="#6f7580" d="M260 112l-55-2 56 25z"/><circle r="1" fill="#eaf0e5" transform="matrix(5.30833 7.7813 -4.85307 3.31072 151.7 72.3)"/><path fill="#2a7592" d="M149 112.1l39.7-11.5 17.2 6.5-19.2 4.3z"/><path fill="#6294d3" d="M158 62l36 4 19-28z"/><path fill="#1a1b08" d="M201 54h12v9h-12z"/><path fill="#8a979f" d="M88.8 136.5l-43-41.4 32.8 32.2 28.3 4.9z"/><path fill="#504d47" d="M240.4 70.9l30.6-9.2-45.5 20.7-24.9-11.6z"/><path fill="#faeed3" d="M210 79l9 2 5 14z"/><path fill="#162129" d="M51.7 151.1l-59.1 5.3 50.5-12.9-3.8 12.8z"/><path fill="#081c2b" d="M197.3 114.4l-6.6 8.6 22.9 4.9 3.7 16.4z"/><path fill="#629add" d="M53 83.9l37-13.2-51.6-8-5 13.1z"/><path fill="#685f53" d="M-2.5 103.5l12.7-.7 14.2-18.9-1.8 10.2z"/><path fill="#359ce2" d="M161 123h33v9h-33z"/><path fill="#1a1a1c" d="M140.2 124.4l-84.5 20.9 114.7-1.5-82.3-14.6z"/><path fill="#07070b" d="M80 153h13v3H80z"/><ellipse cx="36" cy="119" fill="#582c1c" rx="24" ry="3"/><path fill="#094f92" d="M139 101h-13l24-8z"/><path fill="#8c9ca2" d="M160.6 95.2l-28.5 17.9 3.7 11-22.4-15.1z"/><path fill="#f3ecda" d="M59 13l1 .4L49 37l-1-.4z"/><path fill="#0c82d6" d="M74.8 85l42-13 .4 1-42 13z"/></g></g></svg>