<svg xmlns="http://www.w3.org/2000/svg" viewBox="0 0 4325 2883"><defs/><filter id="a"><feGaussianBlur stdDeviation="12"/></filter><rect width="100%" height="100%" fill="#514632"/><g filter="url(#a)"><g fill-opacity=".5" transform="translate(8.4 8.4) scale(16.89453)"><circle r="1" fill="#a5a2a0" transform="rotate(-27.8 171.2 -210.7) scale(255 88.85231)"/><circle r="1" fill="#e6d0b4" transform="matrix(-6.50522 20.17492 -64.39314 -20.76298 74.9 51.6)"/><ellipse cx="180" cy="29" fill="#192d34" rx="62" ry="22"/><path fill="#1e181e" d="M114 158L89 81l-70 6z"/><circle r="1" fill="#c4c0ab" transform="matrix(15.47372 -21.8763 16.83681 11.90915 191.3 78.7)"/><circle r="1" fill="#495364" transform="matrix(98.2921 -35.99839 12.13117 33.12366 192.9 134.7)"/><circle r="1" fill="#d6b295" transform="matrix(-55.83698 47.3532 -9.20928 -10.85921 12 169)"/><path fill="#ffd1b2" d="M90 17h16v62H90z"/><circle r="1" fill="#c8a386" transform="matrix(-6.81863 13.88251 -21.74993 -10.68284 124.8 93.8)"/><path fill="#624033" d="M74 4l4 64L99-6z"/><path fill="#3b3636" d="M84.2 151l-4.8 33.6-39.6-5.5 4.8-33.7z"/><ellipse cx="1" cy="46" fill="#b1baac" rx="78" ry="13"/><path fill="#505156" d="M66 61l-82 102L21 60z"/><path fill="#acac9d" d="M274.2 32.2l7.2 18.6-75.6 29-7.2-18.6z"/><ellipse cx="228" cy="6" fill="#93abaa" rx="61" ry="6"/><ellipse cx="24" cy="13" fill="#6c7c38" rx="38" ry="17"/><ellipse cx="90" cy="119" fill="#352f31" rx="19" ry="26"/><path fill="#493c3b" d="M44 91.9l12.2 4.6L38 144.1l-12.1-4.6z"/><path fill="#f8c3a1" d="M42 140l37 3-31-25z"/><path fill="#5c6a76" d="M118 54.3L109.2-16 97.8-7.7l78.6 60.8z"/><path fill="#4c4945" d="M147 65h24v82h-24z"/><path fill="#ebe3c8" d="M-1.2 82.6l15.9 9.1-5.6 1.4-25.1 41.1z"/><path fill="#bbb8a5" d="M191.3 97.3l-2.5-46.2 1.7 3.7-39.6-1.2z"/><path fill="#c8c0a6" d="M125.7 91.6l-16.1 38.2 4.5 5.9 23.6-41.3z"/><path fill="#cd9473" d="M16.7 139.1l25.2-56.6 5.4 2.4-25.2 56.6z"/><circle r="1" fill="#bbaf9a" transform="matrix(10.3534 8.57205 -3.96818 4.7928 102.3 169)"/><path fill="#b7bea0" d="M44.6 44.9L22.8 21.2l51.2 18-5.3-41.6z"/><path fill="#3e3734" d="M-9.8 133.6l-6.2 15.2 31.6-31 7.5 34.5z"/><path fill="#deb195" d="M46.3 86l22.9-30.1 75.1 5.6-67.9 10z"/><path fill="#bcb49f" d="M185 123.8l-13.7-58.5 24.8 64.5 8.6-12.6z"/><path fill="#363839" d="M122.4 9.4l57 44.5 91.6-18-90.1-4.4z"/><circle r="1" fill="#40474f" transform="rotate(44.9 -42.8 351.8) scale(53.54933 37.21957)"/><path fill="#f3d7c0" d="M109 85L88 66l27-16z"/><path fill="#6b5249" d="M72 75l61 33L14 89z"/><path fill="#4c5554" d="M203.5 61.1l29.2-70.8-44.1 71.6-1.3 4.8z"/><path fill="#3f4635" d="M222.4 28.5L126.7-.6l-55.6 14L119.6-16z"/><circle r="1" fill="#003550" transform="matrix(-3.5274 3.97382 -18.94693 -16.81839 77.2 118.4)"/><path fill="#8b6047" d="M107.6 82.3l8.4-18.8 22.1 30.7-20.4-4.5z"/><circle r="1" fill="#bab5a0" transform="matrix(-23.15074 -34.0033 7.48167 -5.0938 10 164.7)"/><circle r="1" fill="#575e63" transform="matrix(20.9936 14.4825 -6.31266 9.15072 246.5 83.5)"/><ellipse cx="96" cy="30" fill="#cea084" rx="9" ry="17"/><path fill="#e4bea1" d="M149.4 107.5L137.2 93l5.4-4.5 12.2 14.5z"/><circle r="1" fill="#9f9786" transform="rotate(153.8 55.2 82.8) scale(3.20525 20.13149)"/><circle r="1" fill="#beb198" transform="matrix(1.04153 3.11282 -7.83304 2.6209 14.6 113.2)"/><path fill="#686865" d="M183 132l23-1-2-57z"/><path fill="#6b5952" d="M63.1 55.6L49.6 93.3 7 106.6 100.2 35z"/><circle r="1" fill="#41403f" transform="rotate(133.1 2.7 63.7) scale(31.08363 9.77273)"/><path fill="#a0766a" d="M68 72l44 39-8-31z"/><path fill="#ccbb9d" d="M115.5 82.7l21.4 1.3 7.3-11.3-18.7 4.1z"/><path fill="#a88674" d="M69.7 113.4l-33.5 10.9 4.2 32.5 10-29.7z"/><path fill="#61676e" d="M169 149h34v21h-34z"/><path fill="#130c18" d="M30.4 4.2L-16 2.3 8.8-16h48.4z"/><path fill="#4b575d" d="M48 77l-19 26-35-51z"/><path fill="#3b3e3a" d="M244.1 52.8l-47-40.1-15-.7L149 36.3z"/><ellipse cx="67" cy="6" fill="#d5cba8" rx="10" ry="3"/><circle cx="124" cy="43" r="14" fill="#676f72"/><path fill="#cfc4ac" d="M185 109l-13-30 23-11z"/><path fill="#44413e" d="M120 144l6-25 38 66z"/><path fill="#59686c" d="M216 10h29v25h-29z"/><path fill="#656b70" d="M249 55h7v43h-7z"/><path fill="#d49570" d="M38.2 95l-16.8 39.6-3.6-1.6 16.8-39.6z"/><path fill="#50514d" d="M134.9 83.6l13.3 11.3-1.2-9 24.3-28.1z"/><path fill="#514944" d="M91 155l-60-14 57 31z"/><path fill="#6a703b" d="M52.1 25.8L-16-3.2l10.4 48.6 23.9-21.3z"/><path fill="#b7b09b" d="M235 52l-41 21 21-26z"/><path fill="#5b5f5c" d="M169.4 38.5l-36.7 39.2-1.5-9.3 24.3-8.3z"/><path fill="#3c3b3d" d="M148.7 101.1l-.7 38.7 123 30.9-107.8-39.3z"/><path fill="#714b3c" d="M87 121.3l4.7-18.4 23.2 5.8-4.6 18.4z"/><path fill="#94a098" d="M235.4 23L271 10.1 240.8 1l16.4 35.5z"/><path fill="#8b5b4b" d="M95.3 45.6l-3.6-22.7 3-.5 3.6 22.7z"/><path fill="#d4d0b4" d="M154.3 5.5l.1 1-32.7 4-.1-1z"/><path fill="#bab7a6" d="M-16 39L2 55l66-31z"/><path fill="#81864f" d="M75 10L42 27 15 3z"/><path fill="#61646a" d="M271 123l-6 30-46-15z"/><path fill="#8e9b8b" d="M198.6 2l-30.9 11.9 30.9-2.5-47.4-17.9z"/><path fill="#d9b296" d="M57.4 118.7l9 22.2-15.8 6.4-9-22.2z"/><path fill="#8d695a" d="M60 119.5l9.8-5 8.2 16-9.8 5z"/><path fill="#d3b096" d="M113.6 26.5L91.8 86.2 72.3 71.5l2.3-.9z"/><path fill="#53392a" d="M90 2l24 16-6-13z"/><path fill="#72493f" d="M80 34h6v29h-6z"/><circle r="1" fill="#ccc8b6" transform="matrix(-1.9018 .0404 -.27798 -13.08888 246 57.3)"/><path fill="#545654" d="M217 58h4v56h-4z"/><path fill="#08202e" d="M116 74l7 1-7-6z"/><path fill="#abac9f" d="M149.9 53.6l38.4 8.1-58-8.6 28.1-.7z"/><path fill="#312c28" d="M89 144.1l-19.2-9.4 25.3-9.8 18 26.9z"/><path fill="#815e52" d="M50 145l72-3-5 19z"/><path fill="#837f5c" d="M96.3 1.6L9.9 11.4 85.2-16l36.5 23.5z"/><path fill="#bbb6a2" d="M224 81l11 5-9 3z"/><circle r="1" fill="#37393a" transform="rotate(-123 146 -1) scale(9.92152 37.15301)"/><path fill="#786764" d="M123.7 101.7l-2 10.3-31.7-3.8 5-25.4z"/><path fill="#fbdabf" d="M22 132h3v13h-3z"/><path fill="#aba490" d="M160.8 104.3l-4.7 4.7 19.4-2.9 9.7-7.6z"/><path fill="#585d5c" d="M201 41.5l-.2-16.1-13.3-3.6-33.7-4.8z"/><path fill="#83857f" d="M39 47h31v5H39z"/><path fill="#3e453d" d="M106.9 15.9l16.5-5 77.2 5.5-46.5 4.6z"/><path fill="#bdbcae" d="M49 40h9v24h-9z"/><path fill="#313828" d="M174.7-.1L138 5.1l-.7-5L174-5.1z"/><path fill="#313642" d="M247 185l2-36-86 27z"/><path fill="#423b34" d="M73 16v16L89-3z"/><path fill="#d6cfae" d="M252 89h4v6h-4z"/></g></g></svg>