<svg xmlns="http://www.w3.org/2000/svg" viewBox="0 0 4752 3168"><defs/><filter id="prefix__a"><feGaussianBlur stdDeviation="12"/></filter><rect width="100%" height="100%" fill="#574c26"/><g filter="url(#prefix__a)"><g transform="translate(9.3 9.3) scale(18.5625)"><circle r="1" fill="#6c97d6" fill-opacity=".5" transform="matrix(-31.88949 -88.09374 239.77346 -86.79678 83.8 63)"/><circle r="1" fill="#fff" fill-opacity=".5" transform="matrix(-80.28121 -17.0643 4.04914 -19.0497 37.8 72.8)"/><circle r="1" fill="#806b00" fill-opacity=".5" transform="matrix(.57957 20.7488 -127.54685 3.5627 122.6 114.5)"/><circle r="1" fill="#1a438f" fill-opacity=".5" transform="rotate(19.7 57.3 329.9) scale(202.45173 63.86365)"/><circle r="1" fill="#e3e1e5" fill-opacity=".5" transform="matrix(-16.67682 -15.34072 23.9726 -26.06049 22.5 77.2)"/><ellipse cx="60" cy="140" fill="#decbb2" fill-opacity=".5" rx="92" ry="4"/><circle r="1" fill="#182e2c" fill-opacity=".5" transform="rotate(71.6 -11.7 230.6) scale(49.01187 44.5915)"/><circle r="1" fill="#5977ac" fill-opacity=".5" transform="rotate(22.4 -97 254.8) scale(87.03215 19.53558)"/><path fill="#6f7766" fill-opacity=".5" d="M-16 147l90 38 93-45z"/><ellipse cx="97" cy="88" fill="#d9dde2" fill-opacity=".5" rx="38" ry="9"/><circle r="1" fill="#2b446a" fill-opacity=".5" transform="matrix(-15.98388 47.28191 -85.9935 -29.07052 228.3 4.3)"/><path fill="#3d60a3" fill-opacity=".5" d="M20.6 64.8L-16 41l6.8-22.4 23-7.3z"/><ellipse cx="165" cy="116" fill="#66601a" fill-opacity=".5" rx="69" ry="25"/><circle r="1" fill="#e1e4e6" fill-opacity=".5" transform="rotate(30.9 -99.5 125.1) scale(36.74281 11.84609)"/><path fill="#d3cbbe" fill-opacity=".5" d="M48.3 156.1l-2.2-13L59.6 123l2.5 19.6z"/><path fill="#141b14" fill-opacity=".5" d="M11 139h13v9H11z"/><path fill="#827943" fill-opacity=".5" d="M175.4 115.6L53.2 90.3l-59.8 27.5 87.1 10.4z"/><path fill="#c0aba0" fill-opacity=".5" d="M104 141h50v6h-50z"/><ellipse cx="209" cy="83" fill="#4d6fa0" fill-opacity=".5" rx="99" ry="9"/><path fill="#8a8e97" fill-opacity=".5" d="M188 139h24v7h-24z"/><path fill="#2e4743" fill-opacity=".5" d="M164.9 169.6l-51 1.8-.8-21 51-1.8z"/><circle r="1" fill="#5f5a46" fill-opacity=".5" transform="matrix(-33.92025 -7.38235 2.2269 -10.23208 231 108.7)"/><path fill="#052613" fill-opacity=".5" d="M90.3 151l14.8-4.5-25.4 3 7.4-9.5z"/><circle r="1" fill="#3b430e" fill-opacity=".5" transform="rotate(-152.1 19.2 61.5) scale(5.67381 10.9732)"/><ellipse cx="73" cy="147" fill="#000600" fill-opacity=".5" rx="17" ry="2"/><path fill="#ced0d0" fill-opacity=".5" d="M-9.3 51.2l29.1 48.3 56.7-9.2-26.6-16.9z"/><path fill="#1c1711" fill-opacity=".5" d="M223.3 146.8l-31.7-17.7 49.1 1.9 12.3 2.4z"/><path fill="#5e77a0" fill-opacity=".5" d="M68 71l89 19-96-57z"/><circle r="1" fill="#5d77a7" fill-opacity=".5" transform="matrix(-5.66661 8.65949 -10.48205 -6.85926 43.7 46.4)"/><path fill="#5e6a59" fill-opacity=".5" d="M0 156h116v14H0z"/><path fill="#928a71" fill-opacity=".5" d="M16 129h70v9H16z"/><ellipse cx="140" cy="131" fill="#5f5f0c" fill-opacity=".5" rx="43" ry="7"/><path fill="#8c9092" fill-opacity=".5" d="M5 65l-9 43 15-26z"/><path fill="#fff" fill-opacity=".5" d="M77 146l3-3-5-1z"/><path fill="#b2b8c4" fill-opacity=".5" d="M84 101h2v31h-2z"/><path fill="#968284" fill-opacity=".5" d="M254 145l-16-1 23-8z"/><path fill="#eaebea" fill-opacity=".5" d="M48.5 56.2l12-.4 1 28-12 .4z"/><path fill="#ada8a1" fill-opacity=".5" d="M39.3 151.4l-17.7.6 5.8-56.8-5.3 39.5z"/><ellipse cx="167" cy="138" fill="#2a3111" fill-opacity=".5" rx="15" ry="6"/><path fill="#6f6f40" fill-opacity=".5" d="M59.2 110.3L43.5 91.6l44 6-61 .6z"/><circle cx="53" cy="142" r="5" fill="#f6f6f4" fill-opacity=".5"/><path fill="#486598" fill-opacity=".5" d="M-16 61.1V21.5l92.8-16L20.5 51z"/><path fill="#d7d4d7" fill-opacity=".5" d="M3 136h11v5H3z"/><path fill="#413b30" fill-opacity=".5" d="M39 141h9v8h-9z"/><path fill="#999b96" fill-opacity=".5" d="M43.2 105.4l2.1 36 .3-102.1 2.9 41.3z"/><path fill="#070606" fill-opacity=".5" d="M191 148h45v3h-45z"/><circle r="1" fill="#6e6854" fill-opacity=".5" transform="matrix(-1.08171 -.11639 4.27633 -39.74378 150.4 70.6)"/><path fill="#15312d" fill-opacity=".5" d="M84 147h22v4H84z"/><path fill="#b5b2a4" fill-opacity=".5" d="M49 149h13v6H49z"/><path fill="#2d3937" fill-opacity=".5" d="M65 141h9v9h-9z"/><path fill="#d9dada" fill-opacity=".5" d="M118.1 90.7l-11.3-12.4-1.2 16.4 15.5 3.2z"/><path fill="#b4c8c4" fill-opacity=".5" d="M91 136h14v10H91z"/><path fill="#e1e1e0" fill-opacity=".5" d="M75.3 71.7L62.5 88l22.3 8.3-.5-19.4z"/><path fill="#c3c7c7" fill-opacity=".5" d="M10.1 81l80 17.1 40.7-12.2 6 8.8z"/><ellipse cx="245" cy="169" fill="#29372f" fill-opacity=".5" rx="58" ry="24"/><ellipse cx="218" cy="89" fill="#4c6fa4" fill-opacity=".5" rx="27" ry="6"/><circle r="1" fill="#2c4368" fill-opacity=".5" transform="rotate(129.4 119.3 62.7) scale(19.78183 35.77486)"/><path fill="#e9e5df" fill-opacity=".5" d="M27 141h11v4H27z"/><circle r="1" fill="#375380" fill-opacity=".5" transform="matrix(-10.30895 19.30694 -89.33575 -47.70085 157.5 16)"/><path fill="#7c7d4f" fill-opacity=".5" d="M53.6 113.5l51.9 25.9-2.4-18.9-14.4 21.4z"/><circle r="1" fill="#45638f" fill-opacity=".5" transform="matrix(-89.42346 -36.2539 4.4607 -11.00274 102.3 42.2)"/><circle r="1" fill="#9b9f9b" fill-opacity=".5" transform="matrix(-1.44872 52.52373 -.99962 -.02757 86.2 87)"/><path fill="#6a81a6" fill-opacity=".5" d="M57.6 48.8l54.7 26.4-13.1 9.2-67.6-44.9z"/><ellipse cx="255" cy="105" fill="#6a6236" fill-opacity=".5" rx="23" ry="17"/><path fill="#1a221c" fill-opacity=".5" d="M12 141h12v5H12z"/><path fill="#7e7a72" fill-opacity=".5" d="M132.5 144.6l-5.8-2.7-21 3.2.6 17.4z"/><ellipse cx="165" cy="110" fill="#918338" fill-opacity=".5" rx="14" ry="6"/><path fill="#141216" fill-opacity=".5" d="M121 151h28v3h-28z"/><path fill="#5f6232" fill-opacity=".5" d="M31.3 135.1l52.6-20.5-67.5 14.6-30.5-36.3z"/><path fill="#585f26" fill-opacity=".5" d="M75 126l-19 8h23z"/><path fill="#e1e0dc" fill-opacity=".5" d="M49 139h15v6H49z"/><path fill="#767678" fill-opacity=".5" d="M103 71h2v39h-2z"/><path fill="#7b7632" fill-opacity=".5" d="M87.5 130.9l25.1-33 23.1-6.1-12.2 48.5z"/><path fill="#edf0f4" fill-opacity=".5" d="M6 54l-10 7 20 4z"/><path fill="#f7f3ef" fill-opacity=".5" d="M108 138h6v5h-6z"/><path fill="none" stroke="#c1c3c7" stroke-opacity=".5" stroke-width=".5" d="M25 140.1q-3.9-37 14.7-72.8"/><path fill="#6078a4" fill-opacity=".5" d="M16 58.2L-7.9 51-2 31.8 21.9 39z"/><path fill="#474137" fill-opacity=".5" d="M250 142l15-20-41-8z"/><path fill="#5f5b2e" fill-opacity=".5" d="M29 98h6v39h-6z"/><path fill="#464713" fill-opacity=".5" d="M183.7 131.6l30-2.9-16-27.2 20.8-3z"/><path fill="#f0f2f1" fill-opacity=".5" d="M25 57h34v7H25z"/><path fill="#7c837d" fill-opacity=".5" d="M42.8 151.5l-58.4-11.1L7.1 62.3l-16.3 99z"/><path fill="#91927d" fill-opacity=".5" d="M59.7 131.4L56.1 108l6.8-16.8-.2-31.6z"/><path fill="#7c781b" fill-opacity=".5" d="M168 92h24v9h-24z"/><path fill="#d7d5d6" fill-opacity=".5" d="M83 135.5l.2 1-22.2 6-.2-1z"/><path fill="#d5d9df" fill-opacity=".5" d="M-2 84.2l29.3-16 5.2-20-5-2.9z"/><circle r="1" fill="#666438" fill-opacity=".5" transform="matrix(-3.61458 .16228 -.87472 -19.4827 50.2 109.3)"/><path fill="#a3a599" fill-opacity=".5" d="M73 150h8v7h-8z"/><path fill="#566356" fill-opacity=".5" d="M152 149.1l1.8 4.5-76.5-.7.8 26.7z"/><path fill="#130d0f" fill-opacity=".5" d="M233 130l4.6 5.2-18.5 16.8-4.7-5.2z"/><path fill="none" stroke="#4d746c" stroke-opacity=".5" stroke-width=".5" d="M88.6 57.8l7.4 70.3"/><path fill="#4b4038" fill-opacity=".5" d="M107 103h20l-19 7z"/><circle r="1" fill="#e3dedd" fill-opacity=".5" transform="matrix(5.08582 -3.89713 .60823 .79376 3.4 142.6)"/><circle r="1" fill="#b3b7b9" fill-opacity=".5" transform="matrix(-.4638 6.34906 -29.97818 -2.18995 17.3 90.9)"/><path fill="#e4b88a" fill-opacity=".5" d="M134 143h13v3h-13z"/><path fill="#cbced2" fill-opacity=".5" d="M36 84l22 10 33-7z"/><path fill="#706b36" fill-opacity=".5" d="M62 95h17v24H62z"/><path fill="#686f64" fill-opacity=".5" d="M0 153h84v17H0z"/><path fill="#5a8f93" fill-opacity=".5" d="M89 143h23v5H89z"/><circle r="1" fill="#394931" fill-opacity=".5" transform="rotate(-20.8 547.1 -388.5) scale(31.92412 16.75184)"/></g></g></svg>