<svg xmlns="http://www.w3.org/2000/svg" viewBox="0 0 960 960"><defs/><filter id="a"><feGaussianBlur stdDeviation="12"/></filter><rect width="100%" height="100%" fill="#2e475d"/><g filter="url(#a)"><g fill-opacity=".5" transform="matrix(3.75 0 0 3.75 1.9 1.9)"><circle r="1" fill="#f0c8af" transform="matrix(-146.93548 64.07125 -101.92429 -233.74439 147 101.5)"/><path d="M179 165.2l-23.5 5.4-18.4-79.8 23.4-5.4z"/><path fill="#e3ffff" d="M71 12L50 64 224-3z"/><circle r="1" fill="#efffff" transform="matrix(30.35333 2.83143 -9.13363 97.9136 0 41)"/><circle r="1" fill="#2f2337" transform="matrix(42.45225 14.28676 -10.74788 31.93667 206.1 44.3)"/><circle r="1" fill="#4e4141" transform="rotate(124.2 -2.6 105.6) scale(189.51673 14.94496)"/><circle r="1" fill="#fff" transform="matrix(-89.28857 -64.62878 10.36598 -14.32123 230 2.1)"/><circle r="1" fill="#ebb499" transform="matrix(-16.23421 33.60984 -40.6376 -19.62876 190.2 206.7)"/><circle r="1" fill="#006f80" transform="matrix(35.653 -28.30601 13.52007 17.02929 73 2.1)"/><ellipse cx="108" cy="226" fill="#cacdd5" rx="31" ry="32"/><path fill="#fff" d="M231.2 136.9l19-31.7 26.6 16-19 31.6z"/><circle r="1" fill="#114870" transform="rotate(114.3 11.9 91.7) scale(22.93454 33.50973)"/><path fill="#552d27" d="M252 162.8l-30 16-22-41.6 30-16z"/><path fill="#dce9e6" d="M115 141h22v61h-22z"/><circle r="1" fill="#ddaa8f" transform="rotate(81.4 -126.7 148) scale(10.26036 32.18242)"/><path fill="#000003" d="M11 82h17v15H11z"/><path fill="#330a00" d="M178 151l-35 18 4-109z"/><path fill="#3c112d" d="M112.7 29.6l24.8-11 4.1 13.7-25.8 7.2z"/><circle r="1" fill="#fff" transform="matrix(36.03645 -14.76112 3.48153 8.49948 85.4 32.2)"/><circle r="1" fill="#57352d" transform="matrix(8.88422 23.40488 -22.99696 8.72938 90.1 177.6)"/><circle r="1" fill="#108893" transform="matrix(-51.60719 6.17286 -.81672 -6.82803 119.7 5.3)"/><circle r="1" fill="#412d31" transform="rotate(-157.9 35.7 103.5) scale(51.01939 20.46833)"/><circle r="1" fill="#fff" transform="matrix(6.32721 -.7209 6.55908 57.56816 249 9.6)"/><circle r="1" fill="#1b1628" transform="matrix(6.2373 .072 -.26801 23.2197 245.2 87.3)"/><circle r="1" fill="#f9efe6" transform="matrix(-15.1298 14.8254 -8.70736 -8.88614 158.6 24.7)"/><path fill="#d8f6f9" d="M64 101l-4-32 36 4z"/><path fill="#e9ac9e" d="M152.6 95.4l18.1 9.5 40.7-43-60.9 26z"/><path fill="#e5cdc3" d="M6 187l26-59 29 16z"/><path fill="#614b37" d="M17 142l70-48-78 20z"/><path fill="#fff" d="M128-16l132 42 4-42z"/><path fill="#d7afa0" d="M32 258.7l51-51.4-10.3-36.8 28.3-3.8z"/><circle r="1" fill="#b88077" transform="matrix(19.5177 1.39905 -5.099 71.13482 193.8 131)"/><path fill="#704351" d="M236 127l-65-27 77-17z"/><path fill="#d1c2b7" d="M115.1 115.6l-20.8 22.9-79.4 71.2 78.3-83.3z"/><ellipse cx="131" cy="79" fill="#caab8f" rx="10" ry="30"/><path fill="#fff" d="M-18 18l34-2 2 38-34 1.8z"/><circle r="1" fill="#373b4d" transform="matrix(-28.70702 2.46106 -1.66569 -19.42938 213.9 35)"/><path fill="#dcdee2" d="M142 133l-38 16 16 38z"/><path d="M143 176h4v36h-4z"/><circle r="1" fill="#fffff6" transform="rotate(-60.7 135.5 75) scale(26.4187 2.88564)"/><path fill="#020000" d="M166.7 57.8l-8.2 22.5-11.2-4 8.2-22.6z"/><circle r="1" fill="#3b5b60" transform="matrix(11.88502 1.92495 -9.97816 61.60702 255.6 233)"/><path fill="#00041f" d="M101 117l-20 2-9 23z"/><ellipse cx="111" cy="246" fill="#93472a" rx="5" ry="28"/><ellipse cx="38" cy="68" fill="#a6b0b7" rx="53" ry="17"/><path fill="#723c2f" d="M31.2 141.7l56-37.8-64.5 56.2 7.5 1.2z"/><path fill="#496065" d="M144 240h58v16h-58z"/><circle r="1" fill="#070103" transform="matrix(-33.24547 -8.9081 2.08381 -7.7769 6 216)"/><path fill="#131610" d="M67 175l52-38-46 17z"/><path fill="#fffdf5" d="M-16 148l44-54-44 6z"/><circle r="1" fill="#798a81" transform="matrix(2.40325 -24.9587 8.62401 .8304 134 180.7)"/><path fill="#fff" d="M118.5 12.1L47.9 41.2l30.4 2.5L88.4 56z"/><path fill="#4b0f00" d="M82 242l6 29-21-19z"/><path fill="#dfeffa" d="M248-16l5.9 106.9-17.8 49.1 34.9 16.7z"/><path d="M47.1 256l-1.6-1.1 9.4-13 1.6 1.2z"/><path fill="#2a2826" d="M88.1 148.3l11-4.7 18.8 44.1-11 4.7z"/><circle r="1" fill="#593e48" transform="rotate(-42.7 233.6 19.3) scale(54.30942 3.93911)"/><path fill="#d4b293" d="M195 114l-33-18 28 92z"/><path fill="#fdffff" d="M69 199h6v10h-6z"/><path fill="#572505" d="M167 179l-28-34 36 10z"/><path fill="#ab7950" d="M165 22l-31 50 49-41z"/><circle cy="62" r="9" fill="#424d4a"/><path fill="#b1c3d6" d="M13 0h28v36H13z"/><path fill="#e2ccbd" d="M52.5 188.2l41-58.8-38.7 39.2L35 183.1z"/><path fill="#b27d79" d="M72.1 184l17.3-22 20.5 16-17.3 22z"/><path fill="#fae4d7" d="M51.9 271l-8.7-17.7-26.8-5.4-5.7-.3z"/><path fill="#37313a" d="M33 36h16v14H33z"/><path fill="#6a2f20" d="M-5 177.5L26.1 134l-5.7 22.6-20.8 19.7z"/><path fill="#5a484a" d="M89.6 71.6l6-28.3 14.8 3-6 28.4z"/><path fill="#000618" d="M5 10L-4 0l5 14z"/><circle r="1" fill="#136d7a" transform="matrix(-19.68754 6.2832 -9.23936 -28.95025 59.8 0)"/><path fill="#dcb7a3" d="M242.5 203.6l8.1-19.7-38.5 1.7-21.4 9.2z"/><circle r="1" fill="#5a7d8f" transform="matrix(13.51642 -12.8266 21.87357 23.04993 106 94.8)"/><path fill="#fbfdff" d="M151 33l24-20-44-1z"/><circle r="1" fill="#5a6475" transform="matrix(44.524 -17.44877 4.41835 11.2743 3.6 246.5)"/><path fill="#062139" d="M98.2 104.4l30.4 2.3-21.8 9.4-25.9 20.7z"/><path fill="#302735" d="M190.9 76.1l5.3-12.6-22.1 2.9-.1 5.5z"/><path fill="#151318" d="M242 162l-4-21 18 19z"/><path fill="#95858b" d="M-9 174l42 32 7-14z"/><path fill="#c2cee6" d="M76.7 223.3l8.3 20 36.7-63.1 3.9 38.9z"/><path fill="#b47b46" d="M133 62h11v74h-11z"/><path fill="#8c6763" d="M267.1 170.6l-56.7-25 1.5 48.2 11.7-10.1z"/><path fill="#d9b6a2" d="M146 161l59 64-52-1z"/><path fill="#e9e2e1" d="M101.1 18.6L62.7-16 95-3.3 63.9 45.3z"/><path fill="#2f3433" d="M50.9 116.9l3.5-15.2-28.7 31.1 22-6.1z"/><ellipse cx="9" cy="14" fill="#fffef8" rx="6" ry="42"/><path fill="#381c1c" d="M72.7 225.7l2.5 3.2-30 23.4-2.4-3.2z"/><circle r="1" fill="#4c6265" transform="rotate(73.4 -88.6 227) scale(44.97387 6.44405)"/><path fill="#864028" d="M14.5 119.8L-16 164.3l22.9-18 5.7-13.6z"/><path fill="#394152" d="M63.5 214.1l7.2-38.7L24 215.8l26.1 20.1z"/><path fill="#292530" d="M188.4 57.9l-8.4-16 33.6-17.8 8.4 16z"/><path fill="#c3baae" d="M140 54l3.1-43.3 10.1 43.2-40.8 29.6z"/><path fill="#c8d7e2" d="M9 77l37 9-31-45z"/><path d="M149 93l14 48 8-18z"/><path fill="#000b26" d="M25 81L10 92l15 3z"/><path fill="#af8b90" d="M220 45.9l-26 17.8 5.5 41.4-14.5-1.4z"/><path fill="#001e3c" d="M110 131l-3 15 25-12z"/><path fill="#1d151d" d="M61 119l20-8-19 16z"/><path fill="#e1c4b0" d="M29.5 149.8l-5.7-11 10-2.8 27.1-23z"/><path fill="#e4ba9a" d="M170 63l-12 21 14 41z"/></g></g></svg>