<svg xmlns="http://www.w3.org/2000/svg" viewBox="0 0 1800 1200"><defs/><filter id="a"><feGaussianBlur stdDeviation="12"/></filter><rect width="100%" height="100%" fill="#59423a"/><g filter="url(#a)"><g fill-opacity=".5" transform="translate(3.5 3.5) scale(7.03125)"><circle cx="106" cy="23" r="217" fill="#ceddd7"/><circle r="1" transform="matrix(92.31892 -17.27702 6.896 36.8484 153.8 108.6)"/><ellipse cx="82" cy="161" fill="#fff" rx="255" ry="15"/><ellipse cx="84" cy="31" fill="#d2d2c8" rx="165" ry="38"/><circle r="1" fill="#090000" transform="rotate(-11.1 677.5 -184.4) scale(29.49229 15.66459)"/><path fill="#2d1d18" d="M118 66h84v82h-84z"/><circle r="1" fill="#d2c9b9" transform="rotate(-100.9 56.4 27.2) scale(29.65996 68.85143)"/><path fill="#11090a" d="M215.7 120.8l21.4 26.2-24.3-1.9 1.3-43.1z"/><path fill="#e2e8ec" d="M229.9 124.7l26.8-3.2 3.4 27.8-26.8 3.2z"/><circle r="1" fill="#cfd3d2" transform="matrix(29.05532 105.60526 -11.75837 3.2351 0 102.7)"/><path fill="#9fa6a7" d="M205-16l38 122 23-72z"/><ellipse cx="220" cy="113" fill="#553f32" rx="193" ry="9"/><path fill="#e1e4e1" d="M151 185l-77-44-84 2z"/><path fill="#0f1113" d="M129 127h68v20h-68z"/><path fill="#563e31" d="M103.7-16l-3 46 .5-7.7L111.4 91z"/><circle cx="155" cy="29" r="41" fill="#c2c5c0"/><path fill="#c8c1b7" d="M83.6 94.5l-99.6-13 92.9 31.6 7.1-4.8z"/><path fill="#ac9389" d="M79 127h29v12H79z"/><circle r="1" fill="#574137" transform="rotate(6.9 -823.7 1082) scale(39.2655 20.44319)"/><path fill="#12100f" d="M32 120h44v17H32z"/><circle r="1" fill="#413937" transform="matrix(-6.20649 12.8447 -28.94168 -13.98445 144.5 81)"/><circle r="1" fill="#6d7266" transform="rotate(44.6) scale(17.96229 25.46005)"/><circle r="1" fill="#382a20" transform="rotate(56.4 1.9 239.4) scale(21.76677 42.32842)"/><circle r="1" fill="#828c97" transform="matrix(-8.14212 2.08015 -1.24971 -4.89164 173.7 80.7)"/><path fill="#8e775f" d="M130 115h35v9h-35z"/><circle r="1" fill="#a9acaa" transform="matrix(13.5587 -9.9054 39.28746 53.77746 213.9 32.1)"/><path fill="#534d48" d="M230.1 80l-75.3 16.9 50.6-15.5 9.9-20.1z"/><circle cx="207" cy="136" r="7" fill="#dce0df"/><path fill="#180f13" d="M232 142l-21-14h17z"/><path fill="#949895" d="M33 136h20v8H33z"/><path fill="#1a1919" d="M197 145.7h-27.7l2-35.5 36 11.6z"/><path fill="#dadedb" d="M94 152l151-1-95 34z"/><path fill="#a9a598" d="M19.4-9.2L-16 59.9 34.5 76l16.7-60.6z"/><path fill="#8b8b87" d="M236 114l35-20-33-15z"/><circle r="1" fill="#261f1e" transform="rotate(-171.3 96.6 27.7) scale(9.02308 8.56226)"/><ellipse cx="114" cy="57" fill="#d1ccbf" rx="3" ry="28"/><path fill="#6d7269" d="M214 17l57-23v23z"/><ellipse cx="143" cy="148" fill="#a3aaa8" rx="94" ry="2"/><circle r="1" fill="#acada6" transform="rotate(-48.1 122.1 -217.8) scale(68.37231 20.26044)"/><path fill="#44332c" d="M86.7 95.6L78 92.1l66.1 45-42.9-50.3z"/><circle r="1" fill="#b9b2a9" transform="matrix(-36.72198 45.52435 -10.52689 -8.49146 24.7 101.8)"/><path fill="#d2d4cf" d="M60.5 185l17.6-45.9-54.2 6.6-39.9-13.9z"/><path fill="#4c4039" d="M27 114h13v29H27z"/><path fill="#c2beb4" d="M77.1 85.9l8.7 17.5-4 6.1-10.2 4z"/><path fill="#1a0f0c" d="M78 143h50v3H78z"/><path fill="#dde0db" d="M219 126l13-5 25 12z"/><path fill="#b1b8b9" d="M212.2 71l16.7-3 .9 5-16.7 3z"/><path fill="#745e4b" d="M271 92.5L221.3 99l-36.3 9.4 13.2-12.3z"/><ellipse cx="235" cy="144" fill="#464547" rx="9" ry="2"/><path fill="#c4c3bb" d="M181 45l-74-61 26 83z"/><path fill="#bdc1c1" d="M190 50h48v11h-48z"/><path fill="#774c3a" d="M77 110l51 18-53-4z"/><path fill="#757473" d="M127 85l-1 16-12-13z"/><path fill="#2e2d2d" d="M57.1 141.2l-6-36.2-3.3 16 36.8 17.1z"/><path fill="#89908f" d="M212 39l43-18-26-15z"/><circle cx="101" cy="81" r="8" fill="#bfb7a7"/><circle r="1" fill="#161617" transform="matrix(27.93185 -5.24827 .48156 2.5629 201.1 92.5)"/><path fill="#1f1918" d="M218 66l-13 15-15-3z"/><circle r="1" fill="#c5c4bd" transform="matrix(3.2873 -34.13991 19.99975 1.92576 9 169)"/><path fill="#c8c2b6" d="M62 36h43v24H62z"/><path fill="#887f76" d="M0 131h30v4H0z"/><path fill="#3d3938" d="M230.2 127.3l-17.5 16 19.4 5.9-1.8-11.5z"/><path fill="#574e47" d="M48.7 108l20-2 .6 6-20 2z"/><circle cx="157" cy="61" r="8" fill="#ced1cd"/><path fill="#bcb3a5" d="M36 33h13v83H36z"/><path fill="#342e2a" d="M191 61h25v2h-25z"/><path fill="#86776b" d="M19 49h6v18h-6z"/><circle r="1" fill="#382c28" transform="rotate(-6.8 989.8 -1084) scale(32.24976 7.77039)"/><circle cx="139" cy="87" r="6" fill="#666870"/><path fill="#40261a" d="M112 80.5l-1 .1-15-121 1-.2z"/><path fill="#4b4e49" d="M116 64h16v10h-16z"/><path fill="#302826" d="M209.8 95.9l-59.2 8.8 21.3-43.4-32.3 30.9z"/><path fill="#1d1918" d="M165.8 113.7l48.7 9.8 6.1 8.4-46.6-10.1z"/><path fill="#222918" d="M-2 17h8L-10 3z"/><path fill="#817c74" d="M271 29l-24.9 23.3-8.8 13.8L271 48z"/><path fill="#5b463e" d="M140 64l-4 15 25-8z"/><path fill="#cccac1" d="M114 67l37-83-44 54z"/><path fill="#cadfec" d="M-16 130.3L-.4 84.4-16 12.2 7.5 98.5z"/><path fill="#b7bdb8" d="M192 61h13l-4 7z"/><path fill="#837566" d="M81.1 19l3.7-1.7 6 13.7-3.6 1.7z"/><path fill="#2e221a" d="M86 95.5l-.2-1 52.2-14 .2 1z"/><path fill="#686f68" d="M186.3 29.5l6.5-2.5 2.9 7.5-6.5 2.5z"/><path fill="#352b28" d="M45 114l-21 27 60-30z"/><path fill="#5c4634" d="M168.2 118.8l6.3 7.1-61.1 7.9 51.2-20.9z"/><path fill="#4a4f49" d="M228 122l27-4-13-7z"/><path fill="#b0aca3" d="M22 169.2l-38 6.1v-32.9z"/><path fill="#b7ad9c" d="M81 41l-29 60 43-12z"/><path fill="#6e797b" d="M142 146h53v3h-53z"/><path fill="#242221" d="M220 65l-7-6 5 11z"/><path fill="#887f76" d="M146 123l9-11-25 9z"/><path fill="#8e8d88" d="M238 82h11v28h-11z"/><path fill="#a7acad" d="M208.2 36.1l18.4 42L271-4.7v53.5z"/><path fill="#c5beb2" d="M106 17l-3-22 9 18z"/><ellipse cx="69" cy="165" fill="#383e43" rx="5" ry="1"/><path fill="#c9c9c4" d="M41.9 134.9l83.4 50.1-78-46.1-6.1 1.1z"/><path fill="#66696d" d="M182 79.4l-15.5 9-4.5-7.8 15.5-9z"/><path fill="#7b7c7d" d="M200 140h14v9h-14z"/><ellipse cx="118" cy="141" fill="#261e1c" rx="27" ry="2"/><path fill="#c3c6c4" d="M213 148h43v22h-43z"/><path fill="#d7d7d0" d="M84 107l-14 3 1-8z"/></g></g></svg>