<svg xmlns="http://www.w3.org/2000/svg" viewBox="0 0 1800 1350"><defs/><filter id="a"><feGaussianBlur stdDeviation="12"/></filter><rect width="100%" height="100%" fill="#4a3d32"/><g filter="url(#a)"><g fill-opacity=".5" transform="translate(3.5 3.5) scale(7.03125)"><circle r="1" fill="#93b5d4" transform="matrix(-179.87451 124.94295 -79.11198 -113.8938 107.8 23.3)"/><circle r="1" fill="#62b7ff" transform="rotate(-97.3 131.1 -81.2) scale(47.42697 33.15065)"/><ellipse cx="128" cy="171" fill="#070b37" rx="70" ry="45"/><circle r="1" fill="#c5c3b9" transform="matrix(-4.2098 -16.25242 44.6831 -11.57407 220 131.3)"/><circle r="1" fill="#3c92ff" transform="matrix(100.75356 11.76596 -2.51558 21.54122 127.2 11.9)"/><circle r="1" fill="#725b20" transform="matrix(91.70102 14.18176 -5.6935 36.81487 26 45)"/><circle r="1" fill="#e2c99e" transform="rotate(156.2 -11.1 84.9) scale(34.3102 41.94351)"/><circle r="1" fill="#b8d0da" transform="matrix(49.95868 -19.08568 6.84919 17.92844 204.6 78.5)"/><path fill="#743709" d="M138 39h55v36h-55z"/><circle cx="154" cy="127" r="31" fill="#733723"/><circle r="1" fill="#7084bd" transform="matrix(7.66237 9.52457 -58.00521 46.66426 67.4 187.3)"/><path fill="#000731" d="M48.4 188.1L249.9 207l21.1-56.3L134 161z"/><ellipse cx="6" cy="107" fill="#134f43" rx="58" ry="16"/><path fill="#ffb376" d="M133 80l35 11-58 32z"/><path d="M236 140l-4-47 39-33z"/><path fill="#e3e4c1" d="M202.7 146.1l-34.7-1.2 22.8-12.3L224 107z"/><path fill="#331300" d="M179 121l27-8-9-28z"/><path fill="#e2ffff" d="M173.4 107.7l-3.7-29.8 13-1.6 3.6 29.8z"/><path fill="#a7aaad" d="M110.1 110.8l18.6 53.7-24.4-13.2-19.9-94z"/><path fill="#0034d0" d="M99.1 182.2l-4.6 18.5-43.6-11 4.6-18.4z"/><path d="M73 143l4 18 28-41z"/><path fill="#bea995" d="M138 54.5L47.1 31.2l-8.4-6.3L78 20.5z"/><path fill="#ffa861" d="M70.7 166.5l25-19.5-17.6 32.8L67 178z"/><circle r="1" fill="#0033a4" transform="matrix(-5.65771 .39202 -1.85537 -26.77685 218.5 141.7)"/><ellipse cx="52" cy="139" fill="#a4a3ac" rx="22" ry="24"/><path fill="#fdb18b" d="M148 61h21v15h-21z"/><path fill="#ffffe8" d="M40.5 91h-27v-8h27z"/><path fill="#c9e2bd" d="M211.3 123.2l-2.5 38.3-22.6-39.6 8.4-7.5z"/><path fill="#ffad72" d="M118.7 116.2l42 9.7-1.4 5.9-42-9.7z"/><path fill="#ffbb8b" d="M241.6 145.5L204.3 83l22.5 52.9 10.7 12.6z"/><circle r="1" fill="#3c71c2" transform="rotate(-81.9 101.9 -116.5) scale(22.87307 143.91825)"/><path fill="#5bb5ff" d="M122.2 21.6l17.7 20.3-12 10.5L110 32.1z"/><path fill="#2a1000" d="M136.2 77.5l6.4-9 17.2 12-6.4 9z"/><path fill="#2a261e" d="M73 53l4 51 15-35z"/><circle r="1" fill="#394931" transform="matrix(40.88904 -9.19788 4.5128 20.06156 0 42)"/><path fill="#211f1c" d="M157.4 145.3l-38.8-28.2-18.1 40.2-31.4-22.8z"/><circle r="1" fill="#a2a8b5" transform="rotate(109.9 15.9 84) scale(26.96027 14.66879)"/><path fill="#215b99" d="M206 83l24 4 7 43z"/><path fill="#f7a271" d="M61 59h9v37h-9z"/><path fill="#c5ffff" d="M181.8 87l4-3 12.4 17-4 3z"/><path fill="#ffad7d" d="M211.9 92.9l-14.5-11.3 6.6 23.7 13.9 10.1z"/><path fill="#050c0c" d="M170.4 139.8l13.4-5.7 12.3-5.1-31.1-1.5z"/><path fill="#30261d" d="M138.2 36.1l-2.4 48.2 9.7-21.9 20-3.4z"/><path fill="#3c2d1b" d="M182.3 170l29 34.1-88.4-51.4 47-7.3z"/><path fill="#cec2a8" d="M112.9 160.4l.2 8-34 1.2-.2-8z"/><path fill="#795133" d="M94.8 32.8l19-1.9 19.9 53.4-57.6-36.7z"/><circle r="1" fill="#76acee" transform="matrix(26.06175 -13.74951 10.35979 19.63664 224.1 56.7)"/><path fill="#2d2215" d="M176 34.6l23.7 16.6-5.7 8.2-23.7-16.6z"/><path fill="#080a09" d="M215 115.2l-4.2 6.8-17.8-11.2 4.2-6.8z"/><path fill="#ef9761" d="M177 135h35v15h-35z"/><circle r="1" fill="#00073d" transform="rotate(14.8 -665.9 639.4) scale(63.39615 17.51389)"/><path fill="#9f999e" d="M100.8 148.8l11.7-22.8 5.8 15.1 30.4 9z"/><path fill="#e49f69" d="M231.8 130.7l-8.1-22.6 18.1 37.9-27.7.9z"/><path fill="#cee7f5" d="M0 128h45v5H0z"/><path fill="#ff9f82" d="M103.4 69.4L78.8 58.6 89.3 60l18.4 2.3z"/><path fill="#385456" d="M53.5 81.9l21.2 37.4-31.9-7.2-9.2-12.9z"/><path fill="#595e52" d="M254.1 161.8l-17.4-23.2 19.2-14.4 17.4 23.2z"/><path fill="#020100" d="M75 148l23-27 5 26z"/><path fill="#7e7b6c" d="M27.2 130.6l20.7 33.7-34.2-16-27.4-11z"/><path fill="#142223" d="M205.3 131.8l12.7 18.1-1.2 57.1 44.7-34.4z"/><ellipse cx="24" cy="72" fill="#606842" rx="48" ry="12"/><path fill="#fffff5" d="M138 53l-3 12-2-16z"/><path fill="#00001a" d="M191.2 181.6l-3.3-31.8 12.9-1.4 3.3 31.8z"/><path fill="#00011f" d="M132 150l-26 49 103 8z"/><circle r="1" fill="#e8aa82" transform="matrix(8.1259 -.8839 .39019 3.58705 186.2 64.8)"/><path fill="#54321d" d="M186.7 105.1l-5.3-17 19 24.9-32.7 16.3z"/><path fill="#1d1a0f" d="M141 36h22v7h-22z"/><path fill="#b9ffe7" d="M180.7 72.3l7.3 34.3-14.7 3-7.3-34.2z"/><circle r="1" fill="#5a95db" transform="matrix(46.5864 13.09485 -3.09235 11.00137 104 20)"/><path fill="#2e1a11" d="M108 49h9v22h-9z"/><path fill="#a8aa97" d="M22.7 40.4l31.8 14.8-1.7 3.7-3.9 1.9z"/><circle r="1" fill="#003dc4" transform="matrix(-6.23929 -1.68349 5.02452 -18.62169 60.3 185)"/><circle r="1" fill="#fcd1aa" transform="rotate(-132.8 90.1 14.5) scale(10.14337 6.58552)"/><path fill="#5d1c17" d="M195 82h13v5h-13z"/><circle r="1" fill="#a3fff0" transform="rotate(-74.5 181.9 -67.7) scale(7.60637 10.9072)"/><path fill="#695451" d="M155 134l-3 30 27 4z"/><path fill="#493c59" d="M143.1 125.4L174 92l-49.5 24.8 7.2-10z"/><path fill="#243c37" d="M15 112l-31-27 30 2z"/><circle cx="250" cy="94" r="14" fill="#00080d"/><circle r="1" fill="#c4b8a2" transform="matrix(-35.71795 3.20548 -2.11893 -23.61073 13 191)"/><path fill="#8f8d9b" d="M27.5 127.4l70.6-13.3-42.2 59.7 3.8-38.2z"/><path fill="#3072e7" d="M222 159l-7-15 13 14z"/><path fill="#316da4" d="M232 114l-8-31-14 19z"/><path fill="#fff" d="M92 75h2v22h-2z"/><circle r="1" fill="#feb595" transform="rotate(-53.9 98 -30.7) scale(8.72627 3.65926)"/><path fill="#2e1900" d="M251 50l20-16-2 36z"/><path fill="#c18863" d="M113.9 40.7l-25.7-5.2 16.4 30.8-8.8 3.9z"/><path fill="#fcffff" d="M103.2 128.2l-1 .3-9.4-32.7 1-.3z"/><path fill="#7f8893" d="M94 78l17 93 8-83z"/><path fill="#f5f9fd" d="M99 91l6 4-7-20z"/><path fill="#225ccd" d="M220 119l5 9-22 9z"/><path fill="#9e987f" d="M38.8 77l-51.6-2.7 21.1 1.9-21.2-18z"/><path fill="#ecb796" d="M128 121h41v3h-41z"/><path fill="#000d33" d="M194.9 158.2l10.4-7.4-42.5-2.5 43.2 44.2z"/><path fill="#598fd4" d="M202.8 49l-19.6-15-52-23.3L271 27.3z"/><path fill="#f8ac85" d="M196.5 88.8l13.2 22.5 7.7-32.1-6.1 11.4z"/><path fill="#c0fff1" d="M189.1 79l5.5 24.3-23-30.3-2.6 1.6z"/><path fill="#f0b58c" d="M209.4 149.3l-.1 14.5 5.7-17.3-15.5-10.2z"/><path fill="#95a0a1" d="M122.5 147l-8.9 16 15.3-2.7-34.1-7.1z"/><path fill="#676a4b" d="M154 70l-33 22-5-32z"/></g></g></svg>