<svg xmlns="http://www.w3.org/2000/svg" viewBox="0 0 1800 1200"><defs/><filter id="a"><feGaussianBlur stdDeviation="12"/></filter><rect width="100%" height="100%" fill="#4c3a2f"/><g filter="url(#a)"><g fill-opacity=".5" transform="translate(3.5 3.5) scale(7.03125)"><circle r="1" fill="#ffe3c9" transform="matrix(-42.27664 60.7585 -83.4463 -58.06314 184.2 31.3)"/><circle r="1" fill="#f1c9a1" transform="rotate(75.3 -24.6 48.5) scale(32.13791 65.91675)"/><ellipse cx="83" cy="151" rx="53" ry="34"/><circle r="1" fill="#a77154" transform="matrix(7.93287 -24.51196 50.35877 16.29775 184.8 106)"/><circle r="1" fill="#000104" transform="matrix(-23.11083 -18.35026 93.33163 -117.54446 232.7 159.4)"/><path fill="#ffeff2" d="M237.4 121.6l2-71.7-1.1-1.8-43.1-3.7z"/><path fill="#9d8b75" d="M30.7 155.7l-65.9-4.6 4.5-64.8 65.9 4.6z"/><circle r="1" fill="#fff4c7" transform="rotate(-109.1 109.8 -33.7) scale(5.15714 44.92137)"/><ellipse cx="115" cy="113" fill="#060f0c" rx="18" ry="51"/><ellipse cx="36" cy="10" fill="#000b14" rx="53" ry="14"/><circle r="1" fill="#382f2e" transform="matrix(6.8463 -.61849 3.60645 39.92134 249.2 75.6)"/><ellipse cx="87" cy="17" fill="#24211b" rx="37" ry="8"/><path fill="#93664c" d="M164 75h58v62h-58z"/><path fill="#f2be87" d="M54 70h22v20H54z"/><circle r="1" fill="#b3766b" transform="matrix(-2.31072 -25.3905 11.83148 -1.07675 105.2 48.6)"/><circle r="1" fill="#070e0b" transform="matrix(-32.4089 1.06905 -.93375 -28.30714 187.7 164)"/><path fill="#fff" d="M44.9.6L174.4-16 90.5 11.1l-.8-16.6z"/><path fill="#dfd7ca" d="M224.4 31l5-25.5 38.2 7.5-5 25.5z"/><path d="M163 85h5v45h-5z"/><path fill="#3a3c2d" d="M163.8 61.4l-8.6-4.7 2.6-11.8 37.3-3.6z"/><ellipse cx="43" cy="37" fill="#beb5a2" rx="39" ry="13"/><circle r="1" fill="#3c444a" transform="rotate(93.7 98.2 104.6) scale(28.46973 6.45614)"/><path fill="#ebdaba" d="M146.9 20.9L137.3 64l-9.1-2.3L163.8 87z"/><path fill="#4f2f1d" d="M21.4 50.9L8.3 78.6 17 112l-33-38.5z"/><path fill="#543921" d="M36.1 62.4l17.2 47.5-.9-55.6-55.7 3.2z"/><circle r="1" fill="#fffcd9" transform="rotate(-137.8 115.1 10.3) scale(7.26609 6.91072)"/><path fill="#ab9385" d="M207.3 139.7l18.8-35.2 18.8 5.4-22.8 22.9z"/><path fill="#181613" d="M218 41h38v5h-38z"/><path fill="#8a6544" d="M130 101l14-24-25-21z"/><path fill="#d6ba78" d="M169 113h15v22h-15z"/><path fill="#cab69b" d="M-16 101.9v37.9l31.6-23.7L-16 74.2z"/><path fill="#e29b86" d="M23.8 96.5L9.1 80.2l23-20.7L47 75.8z"/><ellipse cx="204" cy="57" fill="#ffcba3" rx="19" ry="15"/><path fill="#fff" d="M247 49h9v5h-9z"/><ellipse cx="99" cy="165" fill="#000200" rx="27" ry="42"/><path fill="#645541" d="M115 120L34 66l38 58z"/><circle r="1" fill="#d9bb9e" transform="rotate(-119.5 76.4 -12) scale(29.01826 6.91754)"/><path fill="#745245" d="M39.4 21.3l45.5 8.9-1.1 36.4 33.4-28.8z"/><ellipse cx="152" cy="104" fill="#e4c7af" rx="6" ry="5"/><path fill="#e9e3fd" d="M229 96l-18-56 25 29z"/><path fill="#c5d9ff" d="M15.9 32.8L4.3 33l2.6 11 .8 11.2z"/><path fill="#4d3823" d="M185.2 95.8V80.4l-10.8.6-55.2 90z"/><ellipse cx="37" cy="34" fill="#fbf7e8" rx="4" ry="12"/><path fill="#2e2111" d="M37 94l12-22 18 75z"/><path fill="#252418" d="M171.9 134.1L97.3 67.9 87.7 55l-9.2 25.7z"/><path fill="#be9f92" d="M98 52l20 7-11 11z"/><path fill="#dbafa1" d="M224.7 83.8l18 27.7-13.4 8.7-18-27.7z"/><path fill="#96afc1" d="M192 33.7l50.5 20.2-7.3 35.6-8-36.1z"/><path d="M238.8 121.8l2.5-20.8 10 1.2-2.6 20.8z"/><path fill="#cd865f" d="M218 58l-47 32-5-28z"/><path fill="#7e887a" d="M83 112l-1-30 15 32z"/><circle r="1" fill="#151c27" transform="matrix(-35.5263 4.32757 -1.10047 -9.03406 6 22.4)"/><path fill="#784537" d="M197.5 75.3l16.9-2 6.1 55.3-10.2-18.9z"/><path fill="#d9d7d8" d="M157 63h7v33h-7z"/><path fill="#0b0a08" d="M53.5 152.5v25h-29v-25z"/><path fill="#46433d" d="M271 82l-32.9-8.1 5.7-21.4 27.2 8.6z"/><ellipse cx="80" cy="31" fill="#e9f0e4" rx="5" ry="3"/><path fill="#927952" d="M43.9 31.7l3.5 36.8 41.1-1.3-32.5-36z"/><path fill="#ddeaff" d="M120.3 25.2l1.3 10.9-6 .7-1.2-10.9z"/><path fill="#4c5766" d="M106.3 10l8.7-4.7 10.2 20-2.7 6.8z"/><path fill="#fff" d="M107.9 7.7l-17-1.5 1.2-14 17 1.6z"/><ellipse cx="159" fill="#a9a286" rx="41" ry="45"/><path fill="#1e1e18" d="M138 147l-19-90-30 41z"/><ellipse cx="73" cy="21" fill="#191c1b" rx="27" ry="6"/><circle r="1" fill="#ffeac8" transform="matrix(18.54593 -8.84695 2.39745 5.0258 197.3 52.6)"/><path fill="#7c6e64" d="M30.6 45.1L-16 31.8v24l55.2-31.6z"/><path fill="#0e0b08" d="M187 127l57 58-56-20z"/><path fill="#c1976b" d="M49.5 63.2l23.6 10.1-11.7 33.8 14.1 6.8z"/><path fill="#141413" d="M249.9 84.1l-28.7 87.5 34.9-39 14.9-17.2z"/><path fill="#cb817b" d="M254.3 80.3l-16 24-.5-23 4.6-7.4z"/><path fill="#6e523b" d="M121.7 74l16.3 64.5 5.4-70.7 16.5 16z"/><path fill="#504033" d="M-5 77l54.3 42.5L45 125-9.3 82.5z"/><circle cx="188" cy="114" r="12" fill="#7a4a39"/><circle r="1" fill="#3c3729" transform="matrix(-7.22035 -32.64953 22.56755 -4.99075 150 151.5)"/><path fill="#5b5447" d="M194.8 3l15 2.7 33.5-6L190.7-16z"/><path fill="#3b413a" d="M164.2 66.7l-2.3-14 4.7-.7v63.2z"/><circle r="1" fill="#473221" transform="rotate(15.8 -468.7 319.1) scale(8.96863 41.98845)"/><path fill="#edc1b4" d="M206 117h7v6h-7z"/><circle cx="25" cy="78" r="18" fill="#c68e75"/><path fill="#ffd1b4" d="M200.1 94.7l4.3 4.8-18-1.3 8.1-15.7z"/><circle r="1" fill="#706c69" transform="matrix(-14.1633 -11.80304 .97156 -1.16585 222.3 46.4)"/><path fill="#d5ffff" d="M235.4 66.3L237 54l3.9 1 .1 9.8z"/><path fill="#310" d="M147 61.7l-.2 1-13.8-2.4.2-1z"/><path fill="#ffdaac" d="M162.6 82l-26.3-29.8 21.5 8.9-26.8 4.5z"/><path fill="#fff" d="M18.4 33L9 36.7 7.6 33l9.3-3.7z"/><path fill="#87583f" d="M98 6L87 54l15 16z"/><path fill="#534a3e" d="M16 177.5l21.6-22.9-22.1-19.4L59.6 82z"/><path fill="#7e6d5c" d="M152 158l-9 8-3-17z"/><path fill="#544b3f" d="M264 133l-18 27-1-21z"/><path fill="#0d0c09" d="M200.2 143.1l41.2-16.1-2.2 53.9-32.1-34.6z"/><path fill="#d8b196" d="M148.5 54.8l-2.7 43.5 16.3 8.3-20.5-20.9z"/><path fill="#c3a0a2" d="M115 65l-10-29-1 30z"/><path fill="#49342a" d="M228.2 126.7l-8.1-1.4-10.7-13.9 3.5-3.4z"/><path fill="#e6cebe" d="M192.4 13.2l-2.3 13.5-8.4-4.1 19.6-14.3z"/><path fill="#bc9b6a" d="M58.7 36l25.8-3.7L87.3 52l-25.8 3.6z"/><path fill="#897d6b" d="M4.1 118.1l8.4-8.1 9.4 21.1-3.8 37.3z"/><path fill="#dfaf83" d="M77 90l-9 1-4-7z"/><path fill="#362215" d="M79 93l-21-6 21 22z"/><path fill="#a39062" d="M129.9 44.5l-2.6 22-2.2 18.4-5.4-31.8z"/><path fill="#795c49" d="M26.7 75.5l24.5-27.9-15 27.7-39.7-25.5z"/></g></g></svg>