<svg xmlns="http://www.w3.org/2000/svg" viewBox="0 0 1800 1200"><defs/><filter id="a"><feGaussianBlur stdDeviation="12"/></filter><rect width="100%" height="100%" fill="#365053"/><g filter="url(#a)"><g fill-opacity=".5" transform="translate(3.5 3.5) scale(7.03125)"><ellipse cx="128" cy="43" fill="#f9f7ff" rx="255" ry="69"/><ellipse cx="108" cy="164" fill="#6a8c89" rx="158" ry="61"/><circle r="1" fill="#bbc1de" transform="matrix(133.42558 -17.80277 6.27038 46.9943 75.7 0)"/><ellipse cx="9" cy="149" fill="#76908d" rx="59" ry="47"/><ellipse cx="116" cy="75" fill="#cbcee0" rx="255" ry="6"/><ellipse cx="171" cy="118" fill="#4f5665" rx="224" ry="13"/><path fill="#fff" d="M173.3 107l5.5 9.2-23.2-2.9 15.9-9.6z"/><ellipse cx="122" cy="59" fill="#7286b5" rx="149" ry="14"/><path fill="#8697bf" d="M271 109.4l-287-3.6 142.1-25.3L271 76.4z"/><circle r="1" fill="#375a5b" transform="matrix(-13.60781 22.0184 -47.46218 -29.33259 226.9 142.2)"/><ellipse cx="241" cy="17" fill="#7284ac" rx="49" ry="14"/><circle r="1" fill="#abb4c8" transform="matrix(2.60447 18.22434 -85.25667 12.18418 63 84.8)"/><path fill="#f2eede" d="M129 74.6l119.9-4.2.2 5-120 4.2z"/><path fill="#634d2e" d="M0 108h107v7H0z"/><path fill="#e2d9de" d="M172 115h34v2h-34z"/><path fill="#a6aca9" d="M29.5 113.2l40.9 4.3-46.6 1.7-29.9 25.7z"/><ellipse cx="15" cy="143" fill="#6a8d8c" rx="30" ry="27"/><path fill="#bec2c5" d="M98.9 113.2l13.5 5.5-.6-3.2-17.1 2.4z"/><path fill="#3b4f57" d="M126 106l95 25-111 3z"/><circle r="1" fill="#567e7b" transform="matrix(15.28354 -24.2368 46.25307 29.16681 69.4 155.7)"/><ellipse cx="219" cy="60" fill="#677d9d" rx="57" ry="6"/><circle r="1" fill="#939eba" transform="matrix(-2.2701 20.4756 -49.4582 -5.48335 183.8 32.2)"/><path fill="#4b6399" d="M175 107h81v6h-81z"/><path fill="#7b8eb0" d="M211.6 51.3l-227.6 4 7.1 23.6 92-13z"/><path fill="#e7e5de" d="M231.6 70.2l22.2 6.5 8.4-9.3-11.4-1z"/><path fill="#f4f1f5" d="M167 108l11 5-25-1z"/><path fill="#d0d6dd" d="M-16 19v22l54-3z"/><path fill="#455c89" d="M123 106l30 8 8-9z"/><path fill="#0c0100" d="M0 115h24v2H0z"/><circle r="1" fill="#98a5bb" transform="rotate(-13.3 59 -291) scale(57.10774 11.76368)"/><path fill="#2c3e49" d="M221.7 115.8l-61.7 4.7 111 3.8-17.3-12.3z"/><path fill="#8b9aae" d="M224 78h32v30h-32z"/><ellipse cx="66" cy="97" fill="#919fb8" rx="66" ry="11"/><path fill="#b1b7c6" d="M84 8h63v37H84z"/><ellipse cx="130" cy="158" fill="#508478" rx="68" ry="7"/><ellipse cx="113" cy="76" fill="#f5f1e1" rx="20" ry="2"/><ellipse cx="43" cy="82" fill="#b3bbca" rx="75" ry="7"/><path fill="#555040" d="M84.3 98.9l-.3 14.3-49.3-2.9 63.1 9.8z"/><path fill="#200f09" d="M145 115h25v2h-25z"/><ellipse cx="134" cy="114" fill="#40281d" rx="19" ry="2"/><path fill="#436f67" d="M208 181l52-46-168 7z"/><path fill="#b3acac" d="M94 114h19v3H94z"/><path fill="#e2d7d3" d="M26 115h24v2H26z"/><circle r="1" fill="#a1aac0" transform="matrix(-4.74085 -11.87245 25.00481 -9.9848 211.8 0)"/><path fill="#7e8ea5" d="M188 18h68v13h-68z"/><ellipse cx="222" cy="40" fill="#94a0b8" rx="106" ry="12"/><path fill="#a0abc1" d="M22.3 52.8l-19.9-.2-18.4-8.8 209.5-3.5z"/><ellipse cx="174" cy="116" fill="#848b92" rx="8" ry="2"/><path fill="#443c0c" d="M-5 104l11 4v-4z"/><path fill="#b7bfcb" d="M136.4.9l109.3-4.7-108.5 17.7L30.1 29.2z"/><path fill="#8696af" d="M235.9 82.9l-127.7 9.5 135.2 17.3L271 98.9z"/><ellipse cx="116" cy="68" fill="#99a4b7" rx="52" ry="7"/><path fill="#598780" d="M134 152h43v8h-43z"/><path fill="#221f32" d="M192 113h47v2h-47z"/><path fill="#596f79" d="M6 134l92 5-25-24z"/><ellipse cx="125" cy="109" fill="#465f8a" rx="33" ry="3"/><path fill="#4d3c2d" d="M140.6 117.7l-53.3-8.4.1-1 53.3 8.4z"/><circle r="1" fill="#919fb7" transform="rotate(-22 304.3 -290) scale(24.84238 12.95825)"/><path fill="#e3e5e5" d="M174 114l-5-13-5 10z"/><ellipse cx="156" cy="138" fill="#4e7874" rx="71" ry="5"/><path fill="#6b8888" d="M0 117h31v49H0z"/><path fill="#544d3f" d="M46 109h50v7H46z"/><path fill="#3f5d5a" d="M128 166h128v4H128z"/><circle cx="177" cy="110" r="4" fill="#445472"/><path fill="#94a0b5" d="M-16 100l26 6.3 23.3 2.2L99.7 99z"/><ellipse cx="133" cy="55" fill="#7186a6" rx="38" ry="5"/><ellipse cx="67" cy="117" fill="#9fa19c" rx="7" ry="2"/><path fill="#6b7992" d="M156.6 111.8l-.3 3-28.9-2.6.3-3z"/><circle r="1" fill="#a3acbd" transform="matrix(-.37178 -1.25623 6.72012 -1.9888 163.6 108.7)"/><path fill="#346953" d="M36 168h27v2H36z"/><path fill="#3a5b53" d="M260.5 158.4l-60.3.1 42.4-9.6L271 147z"/><path fill="#3d535b" d="M188 131.3l70.1 7.1-49-32.2 15.9 1.3z"/><circle r="1" fill="#a2abbb" transform="rotate(153.4 71 31.2) scale(30.26149 14.99162)"/><path fill="#54463f" d="M127 115v1l-20-1v-1z"/><path fill="#507073" d="M45 118h53v33H45z"/><path fill="#939fb3" d="M121 70h56v4h-56z"/><path fill="#cacbd3" d="M187 113h2v5h-2z"/><path fill="#7b8ba6" d="M271 24.9l-29.4 1-20.6-.4L253-16z"/><ellipse cx="20" cy="160" fill="#689287" rx="29" ry="9"/><path fill="#bec3c8" d="M53 70h25v6H53z"/><path fill="#466369" d="M89 117h42v17H89z"/><path fill="#8697af" d="M237 96L126 85l58 22z"/><path fill="#bdc2cc" d="M96.2 82L.1 91.9-16 75.6l19.9 12z"/><path fill="#2a486c" d="M248 107h8v3h-8z"/><path fill="#b8c0d1" d="M30 12l-46-1 2-20z"/><circle cx="153" cy="113" r="1" fill="#ffe"/><path fill="#8a9ab7" d="M-16 87.4l36-36.9 36.6 20.2-29.3.9z"/><path fill="#4d6c9e" d="M88 107h27v2H88z"/><path fill="#283438" d="M87.6 115l-13.1 3.7 14.5-.3h-1.2z"/><path fill="#e5e4dc" d="M278.4 70l-128.6 9-.2-3 128.6-9z"/><path fill="#35333a" d="M180.4 114l.1 1-13 1v-1z"/><circle cx="27" cy="114" r="2" fill="#aea197"/><path fill="#2b4049" d="M179 117h77v2h-77z"/><path fill="#97a5be" d="M0 82h60v3H0z"/><path fill="#445e62" d="M158.5 117.5l97.6 20.2-72.4 1.3-78.7-8.8z"/><ellipse cx="255" cy="77" fill="#b1b7bd" rx="86" ry="2"/><path fill="#919db2" d="M161 39.3l17.1-30.1L271-3.4v-1.5z"/><path fill="#5a7b7d" d="M45 134h88v6H45z"/><path fill="#9aabb0" d="M180 116.2v-1l32 .6v1z"/><circle cx="46" cy="114" r="2" fill="#aa988d"/></g></g></svg>