<svg xmlns="http://www.w3.org/2000/svg" viewBox="0 0 1800 1800"><defs/><filter id="a"><feGaussianBlur stdDeviation="12"/></filter><rect width="100%" height="100%" fill="#57373c"/><g filter="url(#a)"><g fill-opacity=".5" transform="translate(3.5 3.5) scale(7.03125)"><circle cx="159" cy="71" r="253" fill="#9dcfc6"/><ellipse cx="133" cy="17" fill="#dbfcff" rx="255" ry="45"/><circle r="1" fill="#292226" transform="rotate(167.1 52.6 73.7) scale(129.33866 52.76098)"/><circle r="1" fill="#1b0809" transform="matrix(7.0015 -76.31104 18.01448 1.65282 68.5 190.4)"/><circle r="1" fill="#0a0006" transform="matrix(-4.82215 30.3814 -15.99443 -2.53864 29 107.2)"/><path fill="#c2e3e1" d="M154 181v-48h20v48z"/><circle r="1" fill="#afd2df" transform="matrix(10.05604 -4.91501 13.6455 27.91849 143.5 75.6)"/><circle cx="2" cy="198" r="43" fill="#abbd9a"/><circle r="1" fill="#afcedb" transform="rotate(161.3 -.1 35.7) scale(82.86092 15.34772)"/><circle r="1" fill="#05010b" transform="matrix(.25995 -14.89268 11.36419 .19836 78 70.4)"/><ellipse cx="190" cy="101" fill="#202a36" rx="32" ry="47"/><ellipse cx="255" cy="117" fill="#bfdee2" rx="11" ry="126"/><circle r="1" fill="#2a2d2d" transform="rotate(52 -151 151.4) scale(59.6763 19.67383)"/><circle r="1" fill="#a3ae8e" transform="matrix(-112.00468 11.56588 -2.0074 -19.4398 194.6 220.6)"/><ellipse cx="235" cy="45" fill="#b5cddd" rx="26" ry="39"/><path fill="#b8d5d7" d="M113 88l-10-34-27 39z"/><circle r="1" fill="#72836d" transform="matrix(1.01596 -18.17176 50.33494 2.81416 115 177.7)"/><path fill="#a7c8c4" d="M200 141h17v38h-17z"/><path fill="#1e0c13" d="M108 64h21v16h-21z"/><path fill="#304a46" d="M215 88h24v77h-24z"/><path fill="#aac7d0" d="M124 94l62-44-53 10z"/><circle r="1" fill="#aed2d8" transform="matrix(12.77421 -4.92916 10.87175 28.1748 2.6 71.8)"/><path fill="#3a141f" d="M134 84h14v50h-14z"/><path fill="#978c5e" d="M64 239h192v17H64z"/><path fill="#bce7ea" d="M100.3 131.5l-13.2-18.9 2.4 9 9.4 33.8z"/><path fill="#b1ccd7" d="M70 84l-21 4 4-64z"/><path fill="#1d0d14" d="M43 222l9.3-30.7 28.7 8.8-9.3 30.6z"/><circle r="1" fill="#626c77" transform="rotate(-151 108.4 12) scale(34.62932 13.60875)"/><path fill="#6a493f" d="M23 79l126 23-86 33z"/><path fill="#a5b4b1" d="M0 140h13v77H0z"/><circle r="1" fill="#575d4c" transform="matrix(-9.3404 -21.7421 12.07546 -5.18762 184.4 177.5)"/><path fill="#942a27" d="M7 97l9 40-32 7z"/><circle r="1" fill="#0d161c" transform="rotate(116.1 56.9 120.7) scale(15.10105 28.08108)"/><circle r="1" fill="#2e6268" transform="rotate(84.7 -77.8 95.5) scale(28.01245 13.71918)"/><path fill="#8f8783" d="M57.4 77.3l-12.1 56.9 77 54.4-66-53.7z"/><ellipse cx="88" cy="171" fill="#12132c" rx="5" ry="48"/><path fill="#ab9d68" d="M0 225h51v31H0z"/><path fill="#1a0b0c" d="M231 89h15v20h-15z"/><path fill="#afc6d4" d="M159 107L95-7l63 4z"/><path fill="#7a201a" d="M63 271l-6.5-46.9L46 265.9l31.3-76.5z"/><path fill="#99a694" d="M96 207l31 45-31-108z"/><path fill="#a7bdca" d="M0 0h134v60H0z"/><path fill="#eff" d="M152 120h7v8h-7z"/><ellipse cx="249" cy="136" fill="#a7cacb" rx="10" ry="23"/><path fill="#a57861" d="M87 90h44v11H87z"/><path fill="#e6f1d9" d="M85 210l5 14-8-1z"/><path fill="#222424" d="M62 103h27v25H62z"/><path fill="#040b16" d="M8 123l20-51 4 21z"/><path fill="#080f15" d="M126 151l-25-22 1 22z"/><path fill="#a5bcbb" d="M174.3 135.4l-24.8-3.4 7.6 6.2 3.1 66.7z"/><path fill="#d3dee2" d="M100 120l5-8 1 16z"/><path fill="#2d2638" d="M124 152h33v12h-33z"/><circle cx="81" cy="69" r="10" fill="#12161d"/><path fill="#5e785a" d="M208.7 210.9L194.5 194l36.8-30.9 14.2 16.9z"/><path fill="#622c36" d="M106 106h47v35h-47z"/><circle r="1" fill="#9ba89b" transform="matrix(-20.19161 -9.06598 15.66787 -34.89525 247.8 212.6)"/><path fill="#a4b8bd" d="M190.6 11.3l-67.1 70.6 5.9 14-13.1 15.2z"/><path fill="#b4c6cd" d="M94 130.5l-40 2v-1l40-2z"/><path fill="#a6bcc2" d="M97.4 53.9l-58 15.5-52.7 29.7V4z"/><path fill="#003e79" d="M11.1 154l4.3-18.5 19.5 4.5-4.3 18.5z"/><path fill="#140305" d="M52 72l-13-1 1-4z"/><circle r="1" fill="#adc2cf" transform="matrix(-66.85832 -57.3045 19.09509 -22.27862 196.2 19.4)"/><path fill="#7a574a" d="M18.1 106.3l70.6-31.9-12.8 26.3L93.7 93z"/><path fill="#272425" d="M68 189.1l-2.1 38.5L41 176.3l-14.4-103z"/><path fill="#e96092" d="M155.3 101.2l1.4.4-11.6 14.6.6-16z"/><path fill="#a9c4ce" d="M108 88l1-27-39-27z"/><circle cx="146" cy="42" r="31" fill="#afc4cd"/><path fill="#c0c7b0" d="M29 214.5L51.7 231l-4.7 6.5L24.3 221z"/><path fill="#353c3e" d="M193 186.3l9.4-39.2-5.8-15.7-7.8 41.8z"/><ellipse cx="199" cy="227" fill="#595d4b" rx="35" ry="2"/><path fill="#8ea7a3" d="M198 159l18-26 1 46z"/><path fill="#001849" d="M93 138l-31-2 36 30z"/><path fill="#413439" d="M2 100h13v24H2z"/><path fill="#57545c" d="M125 138h31v53h-31z"/><path fill="#97c4c6" d="M-16 120.9l32.8-31.3.7 13.7-24.9-15.1z"/><path fill="#5e646d" d="M172 57h38v21h-38z"/><path fill="#2e1713" d="M79 231l-32 40 4-25z"/><circle r="1" fill="#707e7d" transform="matrix(-8.17444 -14.71233 4.3059 -2.39243 75.2 177.5)"/><path fill="#07131b" d="M111.2 63.8L129.1 77l1.8-4-10.5-10.9z"/><circle r="1" fill="#151920" transform="matrix(-3.22415 2.09772 -16.918 -26.00264 186 129.3)"/><path fill="#d0dedc" d="M172 127h2v26h-2z"/><path fill="#6f795a" d="M38.6 137l-6.9 24.8 16.2 29.3-29.3.4z"/><path fill="#292318" d="M89 220l-6-43 21 48z"/><path fill="#aeab8c" d="M73.7 257.6l-8.3-3.7 7-15.5 8.2 3.7z"/><path fill="#cdcde3" d="M56.8 121.2l-7.6 2.3-2-6.7 7.6-2.3z"/><circle cx="233" cy="115" r="5" fill="#8197a9"/><path fill="#2a2e32" d="M247.3 100.2l-7.2-19.8-13.9 45.8L143 132z"/><path fill="#707d6b" d="M82 159l102 25-86 4z"/><path fill="#4d3b33" d="M50.2 102.1l7.1-8.6 53.8 5.7-10 17.4z"/><path fill="#2c0c03" d="M110 88h15v5h-15z"/><path fill="#917062" d="M131.5 142L107 83.7l15 17.7 9.5 49.6z"/><path fill="#c89eab" d="M-16 130l26-4-19-21z"/><path fill="#525d63" d="M199.1 92l-18.8 14.6-3.5-56.1 58.3 36.7z"/><path fill="#5d7a62" d="M253 163l-53-25 21 27z"/><path fill="#9ca396" d="M101 205h41v21h-41z"/><circle cx="140" cy="94" r="9" fill="#1f3339"/><path fill="#7a1430" d="M177.3 136l12.5 3.5-3 10.6-12.6-3.6z"/><path fill="#9eb5ba" d="M128 43l39.2 79.7-15.8-23.2 17-54.4z"/><path fill="#a7b9ba" d="M198 157h13v26h-13z"/><path fill="#14232d" d="M159 75h6v37h-6z"/></g></g></svg>