<svg xmlns="http://www.w3.org/2000/svg" viewBox="0 0 1800 1200"><defs/><filter id="a"><feGaussianBlur stdDeviation="12"/></filter><rect width="100%" height="100%" fill="#2a3a4f"/><g filter="url(#a)"><g fill-opacity=".5" transform="translate(3.5 3.5) scale(7.03125)"><ellipse cx="150" cy="33" fill="#fff" rx="255" ry="43"/><circle r="1" fill="#c3cccf" transform="matrix(-49.83165 8.7948 -36.15382 -204.849 220.2 76.1)"/><circle r="1" fill="#9d8c7a" transform="matrix(-10.84939 -72.17283 79.83746 -12.00158 39.3 135.7)"/><circle r="1" fill="#2f1200" transform="matrix(2.16185 42.49418 -23.0135 1.17079 146.3 80.5)"/><circle r="1" fill="#e6f6ff" transform="matrix(79.35467 -9.04132 1.9844 17.4168 125 24)"/><ellipse cx="206" cy="97" fill="#4d392c" rx="66" ry="26"/><path d="M119.7 105.8l2.3 21.9-61.7 6.5-2.3-21.9z"/><ellipse cx="248" cy="33" fill="#cde4f8" rx="92" ry="34"/><circle r="1" fill="#e9fcfb" transform="matrix(48.51013 -1.47487 .20448 6.72553 73.9 66)"/><circle r="1" fill="#4b4639" transform="matrix(37.02496 -60.82712 6.61767 4.02812 32.3 42.3)"/><circle r="1" fill="#d1dce6" transform="matrix(-31.03767 56.67448 -21.5377 -11.79507 9.8 18.1)"/><ellipse cx="145" cy="163" fill="#180d05" rx="29" ry="44"/><path fill="#050504" d="M23.5 151.6l-22 .8-1-28 22-.8z"/><circle r="1" fill="#7890a5" transform="rotate(173.4 33.6 77.4) scale(41.88064 17.03232)"/><path fill="#7e6a62" d="M51 77l56 27 48-40z"/><path fill="#b5ac9e" d="M34 106l-33-2 40 51z"/><path fill="#a39998" d="M213 52h12v47h-12z"/><path fill="#332b20" d="M69.6 179.6l1-17-5.1-19-18.6-37.1z"/><circle r="1" fill="#452818" transform="rotate(135.1 63.5 57.6) scale(7.60459 20.79399)"/><circle r="1" fill="#878175" transform="matrix(7.6748 28.84613 -4.36025 1.16009 183.3 150.4)"/><path fill="#c1cfdd" d="M54 19l73 52-5-87z"/><path fill="#61575c" d="M227.1 123l6.2-53.5-26.9 6.6 15.5-24z"/><ellipse cx="207" cy="116" fill="#372b23" rx="33" ry="6"/><ellipse cx="87" cy="100" fill="#b6a18d" rx="27" ry="5"/><ellipse cx="114" cy="133" fill="#7894ad" rx="10" ry="9"/><path fill="#07070c" d="M148.1 167.4l-67.6 7.1-.6-6 67.6-7z"/><ellipse cx="7" cy="95" fill="#87847e" rx="15" ry="30"/><path fill="#b3a390" d="M22 156h21v14H22z"/><circle r="1" fill="#c5d7de" transform="matrix(-5.67216 -21.02195 23.65523 -6.38267 191.5 52.3)"/><path fill="#5c4739" d="M9.2 78.9l45.9 26.4 64.7-2.2L43 126.5z"/><path fill="#657e9f" d="M74 61L39 44l89 4z"/><ellipse cx="219" cy="164" fill="#353532" rx="3" ry="35"/><path d="M7 163h14v7H7z"/><ellipse cx="147" cy="4" fill="#94aac9" rx="82" ry="7"/><path fill="#83aac9" d="M241 113h15v25h-15z"/><circle r="1" fill="#060b14" transform="matrix(5.41329 6.01206 -15.19904 13.68527 106.3 118.1)"/><path fill="#202730" d="M129 75h42v81h-42z"/><ellipse cx="242" cy="55" fill="#d0e1e5" rx="22" ry="18"/><path fill="#c6cbc7" d="M215 75h9v20h-9z"/><path fill="#704c38" d="M175.9 77.1l-49.1 3.2 14.9-42.6L121 49.5z"/><path fill="#cfd5db" d="M59 12h117L38 49z"/><path fill="#54544d" d="M77.4-16L53 1.2l-57.3 101L63.9 6.7z"/><path fill="#635855" d="M21.3 76.7L168 68.5 93.1 95.2l-86 11.1z"/><path fill="#8da4ba" d="M43 127h7v19h-7z"/><path fill="#855e3e" d="M240.9 115.7l1.5-16.8-69.8.6 18.3 11.9z"/><path fill="#7192b0" d="M176 124h38v15h-38z"/><circle r="1" fill="#737279" transform="matrix(-2.656 .93185 -4.09222 -11.66378 126 111.6)"/><path fill="#ddd7d2" d="M-17.6 36.2l3.8-21.7 41.4 7.3-3.8 21.7z"/><path fill="#d3dfde" d="M29 62h97v8H29z"/><ellipse cx="241" cy="164" fill="#5c809d" rx="22" ry="35"/><path fill="#52473a" d="M173 144h14v26h-14z"/><path fill="#778b9f" d="M71.3 169.1l37.6-5.4-9.1-21.3-35.2-5.6z"/><ellipse cx="81" cy="126" fill="#0a0e15" rx="23" ry="6"/><path fill="#242529" d="M38 112h4v31h-4z"/><path fill="#aba69f" d="M34 111l-50 9 38-19z"/><path fill="#313030" d="M23.3 150l.7-28.6-40 15.9 2.3-7.9z"/><ellipse cx="143" cy="62" fill="#a77a5d" rx="6" ry="9"/><path fill="#1d2027" d="M105 185l51-133-3 68z"/><path fill="#5f101a" d="M213 63h9v5h-9z"/><path fill="#bcb6ac" d="M185.1 185l10.5-24-4.2-13.9-3.8 19.9z"/><path fill="#ac937e" d="M25 101h72v3H25z"/><path fill="#1b1816" d="M65 109H37l18 6z"/><path fill="#a9b8c6" d="M47.2 26.8l25.2 20.7 63.8-15.4-11.3 19.7z"/><path fill="#6f686d" d="M168 72h48l-39 33z"/><path fill="#6d6a72" d="M81 74l49-2-7 20z"/><ellipse cx="155" cy="22" fill="#c9d6e1" rx="72" ry="13"/><path fill="#8396b1" d="M17 7L-16-4l72 1z"/><path fill="#aba194" d="M7 156.6l-4.2 24.6-9.9-1.8 4.3-24.6z"/><path fill="#8c9eae" d="M194.9 55l3.4-1.8-40.1-5.7 12.9 7.9z"/><path fill="#8492a3" d="M6 46.5l-22-.2L.6 61.4 26 47z"/><path fill="#5e3a26" d="M29 147h7v13h-7z"/><path fill="#181616" d="M7 161h14v5H7z"/><circle r="1" fill="#614a3c" transform="matrix(-1.54023 -11.6908 19.0631 -2.51152 144 51.6)"/><path fill="#33333a" d="M178 106l-10 57-21-117z"/><path fill="#262622" d="M241 102h15v6h-15z"/><path fill="#6a6c6c" d="M33.6 72.4l-49.1-8.2 29 44.9 7.2-49z"/><path fill="#c6d7dd" d="M34 55h10v8H34z"/><path fill="#5a6072" d="M254 88l4-13-43-6z"/><path fill="#889dae" d="M233.4 137l-20.3-24.1 7.8 16.9 44.6-13.7z"/><ellipse cx="54" cy="160" fill="#7d8fa2" rx="5" ry="28"/><path fill="#2a241e" d="M200.7 115.8l-11.7-9.4-7.7 11.2 4.6 1z"/><path fill="#7c8ea6" d="M62.9 44.1l-30.6 2.5 57.3 15.3 25.9-6.1z"/><path fill="#78636a" d="M216 58l2-6 7 14z"/><path fill="#d5e3e5" d="M168 57h46v8h-46z"/><path fill="#728495" d="M78 150l44-30-9 40z"/><path fill="#14181c" d="M132.2 79.7l25.8 28-40.9-8.6-7.6 15.6z"/><circle r="1" fill="#acc5dd" transform="rotate(-96.4 105.3 -85.9) scale(6.3915 51.06897)"/><path fill="#191a1e" d="M127 120l-8-22-37 34z"/><path fill="#99928a" d="M24 110h7v38h-7z"/><path fill="#5e7d96" d="M196 133h21v37h-21z"/><circle cx="58" cy="120" r="5" fill="#93715a"/><path fill="#9f8f7e" d="M232 96h15v5h-15z"/><path fill="#cad9e0" d="M227 69L202 8l69 67z"/><path fill="#3a352e" d="M71.8 185l-11.5-61.2-3.8-5.7 7.8 50.1z"/><ellipse cx="93" cy="96" fill="#aca6a0" rx="14" ry="2"/><path fill="#747b8a" d="M129 105l-12-11 12 23z"/><path fill="#6e8193" d="M175 118h17v20h-17z"/><path fill="#986b58" d="M127 57h21v9h-21z"/><path fill="#5e5650" d="M47.3 150l-3.6 35 13.6-72.7-13 45.8z"/><path fill="#91897d" d="M0 154h31v6H0z"/></g></g></svg>