<svg xmlns="http://www.w3.org/2000/svg" viewBox="0 0 1800 1200"><defs/><filter id="a"><feGaussianBlur stdDeviation="12"/></filter><rect width="100%" height="100%" fill="#2a4461"/><g filter="url(#a)"><g fill-opacity=".5" transform="translate(3.5 3.5) scale(7.03125)"><circle r="1" fill="#b9bcc4" transform="matrix(-201.86507 140.39774 -64.84366 -93.23276 129.2 44.7)"/><circle r="1" fill="#efd0ac" transform="matrix(-23.70209 -.33073 .95298 -68.29612 132.8 132.8)"/><circle cx="191" cy="143" r="38" fill="#0f2d41"/><circle r="1" fill="#685647" transform="rotate(-74.4 106 4.6) scale(75.9517 32.14544)"/><circle r="1" fill="#fbf2da" transform="rotate(177.8 9.5 63.1) scale(8.90871 50.54665)"/><path fill="#5480b7" d="M7-2l252-14 12 144z"/><path fill="#002a4c" d="M35 113h23v57H35z"/><circle r="1" fill="#c5c5ae" transform="matrix(-7.82408 15.03518 -42.47683 -22.1043 105.8 169)"/><path fill="#c5afa1" d="M54 74l-2 32 74-31z"/><ellipse cx="4" cy="110" fill="#323124" rx="9" ry="32"/><path fill="#2c2e32" d="M129.3 139.4l10-30.5 11.4 3.7-10 30.5z"/><ellipse cx="143" cy="161" fill="#edfcff" rx="11" ry="23"/><circle r="1" fill="#7996b3" transform="rotate(-169.9 104.7 31.2) scale(75.90705 30.68895)"/><path fill="#fffff5" d="M-41 109.3l99.2 95.9L47 216.7l-99.3-95.9z"/><path fill="#a07650" d="M66.1 107.3l38.7 47.1 18.4-86-34.8 44.4z"/><ellipse cx="81" cy="49" fill="#391e0d" rx="14" ry="15"/><path fill="#aeac9f" d="M172 150l1.9-50.2 4 85.2h-10.4z"/><ellipse cx="44" cy="42" fill="#5581b9" rx="26" ry="36"/><circle r="1" fill="#f6fae9" transform="matrix(-14.45457 15.46307 -2.69768 -2.52174 25.6 4.1)"/><path fill="#1c3649" d="M156 115h93v35h-93z"/><path fill="#4f5255" d="M35 133h107v10H35z"/><path fill="#bc7f3b" d="M113 52l-6-32-9 67z"/><circle r="1" fill="#4c6d9b" transform="matrix(143.01272 -9.7353 2.37113 34.83227 173.3 0)"/><path fill="#e1bc99" d="M129 138l-11-80 31 37z"/><path fill="#f1f4ef" d="M14 69h10v28H14z"/><path fill="#e4eff2" d="M135 165l19-17 2-48z"/><path fill="#dee2d9" d="M17.2 111l-31.8 2.9-.6-7 31.8-2.8z"/><path fill="#050000" d="M84 102l25-10-12-4z"/><path fill="#b09b84" d="M94.7 128.5l17.7-33.8-32.2 20.4 15.3 67.3z"/><path fill="#1e2527" d="M18.7 63.4l-4.4-11.1-2.3 5-6.3 26z"/><path fill="#263a48" d="M82 110l-48 13 37 18z"/><path fill="#1e2227" d="M4 112h9v34H4z"/><circle r="1" fill="#9a9c95" transform="matrix(3.01164 -40.05355 2.64834 .19913 175.2 133.6)"/><circle r="1" fill="#838781" transform="matrix(2.80003 .39804 -8.80983 61.97377 255 113.1)"/><path fill="#c8cbc3" d="M15 185l23-27-10-58z"/><path fill="#d0d3c2" d="M-16 95.4l29.4-57.9L2.6 61.6l9.7 5z"/><path fill="#7891ac" d="M271 17l-111 95 111-1z"/><circle cx="22" cy="126" r="3"/><path fill="#163044" d="M37.9 152.7l36 31.7 24.2.6-67.3-43.9z"/><path fill="#b1886a" d="M102 155l19 2 14-66z"/><path fill="#c5a07c" d="M60.9 147.1l-5.8-84.2 10 48.2-10.3 4.4z"/><path fill="#8b9fb5" d="M97 13h62v10H97z"/><path fill="#213b52" d="M188 112h73l-86 60z"/><circle r="1" fill="#3562a3" transform="matrix(20.93936 -39.95624 10.16683 5.328 5 5.3)"/><path fill="#ccd2d0" d="M126 141h27v29h-27z"/><path fill="#35393a" d="M-16 106.1v-1.9l27-28.9 3.8 31z"/><circle r="1" fill="#efd5b7" transform="matrix(-4.18786 29.06172 -3.5864 -.5168 117.6 116.1)"/><ellipse cx="102" cy="61" fill="#9b3b28" rx="8" ry="12"/><path fill="#a2957a" d="M131 86l-25-51-10 17z"/><path fill="#454449" d="M63.5 81.3l-.2 24.9 3.5 4.6 7.9-6.5z"/><circle r="1" fill="#624232" transform="matrix(5.73392 6.8024 -5.77745 4.86997 75.2 72)"/><path fill="#593d2d" d="M96 141.9l9.5-2.3 12.1-53.8-11.4 32.1z"/><path fill="#85a0b9" d="M11.7 125l32.7-34.2 7.2 21.3-39 3.7z"/><ellipse cx="36" cy="144" fill="#3d5468" rx="4" ry="31"/><path fill="#a1a8b3" d="M82.8 110.5L71.1 81l33-5.1-28.2 33.2z"/><path fill="#323532" d="M4 161l16-2-1-5z"/><path fill="#6080a9" d="M271 28.2l-154.4-5.4-5.7 29.4 40.3 36z"/><path fill="#bec1b2" d="M5.6 148.6l27.8-.8-47.7 18.3L-4 100.2z"/><path fill="#908b7d" d="M179 121h62v2h-62z"/><path fill="#7a5e4b" d="M151.6 122.2l-3.7-22.5-12.6 23.6 14.4-12.4z"/><circle r="1" fill="#c7c5bf" transform="rotate(65.4 -103 104.7) scale(28.67948 1)"/><ellipse cx="30" cy="136" fill="#c6c6c0" rx="17" ry="3"/><path fill="#1b3a58" d="M156 113h15v57h-15z"/><path fill="#50423e" d="M72.8 102.2l65.5-24.8-19.5 8.6-25.2 19z"/><path fill="#8d6346" d="M24.8 102.9l-7.6-1.9v3.4l9.4 6.3z"/><path fill="#6d8bb0" d="M23 28h43v48H23z"/><path fill="#c9baa6" d="M109.5 44.4l18.2 30-21.5-24.3-18.5.8z"/><path fill="#373c4c" d="M117.7 135.8l25.5 4.8-3.3-12.3-19.4 19.4z"/><path fill="#f2fdff" d="M149 95l8 11-1 12z"/><path fill="#655f54" d="M67.5 122.3L25.8 73.7l29.6 13.8.5 42.5z"/><path fill="#373e42" d="M5.8 140l10.3 5.1-11.4-29.3-2.5 41.3z"/><path fill="#ab9d92" d="M100.2 127.9l-1.4-18.8-19.8 6.8-8.9 5.7z"/><path fill="#cf9f7b" d="M54 74h9v39h-9z"/><circle r="1" fill="#a2a49a" transform="rotate(113.9 -3 112) scale(17.56676 22.20393)"/><path fill="#dbddd3" d="M8.3 65.9L7.8 71-16 110.8l6.7-35.9z"/><circle cx="90" cy="65" r="6" fill="#748fc3"/><path fill="#e0e0d9" d="M11.6 76.3l3.2-8.2 8.8 2.8-10.2 12.7z"/><path fill="#466798" d="M20.5 27.2L37.6-1l126.6-.4-45.1 9z"/><path fill="#e3e2db" d="M-6 159l31 26v-22z"/><path fill="#dec6ae" d="M148 80l-14 2 3 39z"/><path fill="#715342" d="M98 78l1 8 21-3z"/><path fill="#573928" d="M74.6 118.4l-2.2-3.3 29-19.5 2.2 3.3z"/><path fill="#202c31" d="M9 55h3v20H9z"/><path fill="#d7dada" d="M17.2 146.7l8.3 38.3 1.6-41.7-15.6-23.6z"/><circle cx="44" cy="125" r="11" fill="#0f2f4a"/><path fill="#7c98b5" d="M174.4 65.1l-44.9 21.1 1.5-8.1-7.7-15z"/><circle cx="76" cy="44" r="7" fill="#1f201b"/><ellipse cx="78" cy="140" fill="#23384a" rx="29" ry="2"/><path fill="#6e7072" d="M169.1 76.1l-24.6 8.5-1.6-4.7 24.6-8.5z"/><circle r="1" fill="#72656b" transform="matrix(-2.93154 1.81763 -9.08308 -14.6495 115.2 66.6)"/><circle r="1" fill="#882526" transform="matrix(-5.49028 -10.39592 2.4066 -1.27097 97.3 62.7)"/><circle r="1" fill="#888e8b" transform="matrix(.99372 .11193 -7.22547 64.1503 29.8 143.3)"/><path fill="#6983a2" d="M156 97h100v16H156z"/><path fill="#304c69" d="M176 152h48v12h-48z"/><path fill="#7e8586" d="M247 144h5v26h-5z"/><path fill="#d7b395" d="M61.8 113.4l24-9.7.4.9-24 9.7z"/><path fill="#b7c6cc" d="M-1 35.7L37.1-16 12.3 24.9l2.2-3.8z"/><path fill="#858987" d="M13.6 93.9l-6.5 4.3 2.8 13.9 7.4-21z"/><path fill="#000002" d="M111 90l-22 7 6-7z"/><path fill="#735849" d="M86 61L66 49l11 26z"/></g></g></svg>