<svg xmlns="http://www.w3.org/2000/svg" viewBox="0 0 4752 2673"><defs/><filter id="a"><feGaussianBlur stdDeviation="12"/></filter><rect width="100%" height="100%" fill="#4c443c"/><g filter="url(#a)"><g fill-opacity=".5" transform="translate(9.3 9.3) scale(18.5625)"><circle r="1" fill="#816851" transform="matrix(-18.3841 -59.58332 70.51525 -21.75708 115.3 16)"/><circle r="1" fill="#262a24" transform="matrix(55.294 17.85947 -33.1459 102.6217 254.4 107)"/><ellipse cx="85" cy="65" fill="#ffb64b" rx="12" ry="9"/><circle r="1" fill="#282b24" transform="matrix(-33.61387 16.97959 -31.0134 -61.39608 15.6 99.7)"/><circle r="1" fill="#524b42" transform="matrix(-10.30337 -15.2412 87.56238 -59.19404 169 38.8)"/><circle r="1" fill="#514639" transform="matrix(21.95351 51.97124 -22.60366 9.54816 43.6 43.4)"/><ellipse cx="118" cy="103" fill="#2a302a" rx="255" ry="8"/><path fill="#ffc24e" d="M85 56l-9 7 22-3z"/><ellipse cx="117" fill="#6d5a48" rx="94" ry="34"/><ellipse cx="125" cy="126" fill="#434640" rx="92" ry="28"/><circle r="1" fill="#433d34" transform="rotate(120.8 89 92) scale(184.74788 16.58288)"/><path fill="#e37e48" d="M77 62h21v9H77z"/><circle r="1" fill="#2b2b26" transform="rotate(-76.4 197.3 -101.3) scale(71.39231 16.07966)"/><ellipse cx="110" cy="127" fill="#524f47" rx="41" ry="13"/><circle r="1" fill="#443d33" transform="rotate(-36.7 85.8 -8.2) scale(16.92452 75.05664)"/><ellipse cx="141" cy="67" fill="#504c46" rx="42" ry="24"/><circle r="1" fill="#76604d" transform="matrix(5.67161 24.20052 -35.74684 8.3776 116.7 0)"/><path fill="#865548" d="M76 71h19v7H76z"/><path fill="#2a2b24" d="M-15 66l19 93 19-59z"/><circle r="1" fill="#5b4a3b" transform="matrix(-27.28713 -26.72154 14.44472 -14.75047 39.2 16.6)"/><circle r="1" fill="#594c3e" transform="matrix(16.6909 9.44658 -24.21123 42.77816 195.7 15)"/><circle r="1" fill="#60544a" transform="matrix(-38.29636 17.67523 -6.58422 -14.26581 134.5 42.9)"/><path fill="#4e463f" d="M72.7 62.4l10.2-7.5-29.5 29.5-32.7-70.3z"/><path fill="#a36747" d="M95.8 74l5.9-5.5-28.7-.6 7.1 7.3z"/><circle r="1" fill="#4b4136" transform="rotate(-69.8 134.6 -144) scale(55.12061 13.65193)"/><path fill="#31332d" d="M248 143l-80 16-13-22z"/><circle r="1" fill="#4b3d2c" transform="matrix(-8.01233 -26.12212 17.81265 -5.4636 0 15.7)"/><path fill="#ffb14c" d="M93.7 65.3l-11-5 1.6-3.6 11 5z"/><ellipse cx="230" cy="98" fill="#252520" rx="46" ry="3"/><ellipse cx="15" cy="108" fill="#292a23" rx="80" ry="2"/><ellipse cx="94" cy="116" fill="#5b574f" rx="29" ry="2"/><circle r="1" fill="#6b594a" transform="matrix(-8.15817 -18.76252 21.66528 -9.42033 88 36)"/><circle r="1" fill="#44382d" transform="matrix(16.91166 5.07213 -7.39214 24.64709 255 15.3)"/><path fill="#3a3a34" d="M271 116.5l-128-3.9 72.6-29.9-9.4 50.6z"/><path fill="#4d4a43" d="M59.1 89.2l-.2-13 78-1.4.2 13z"/><path fill="#45433c" d="M64 112l25 4-62 43z"/><path fill="#282a24" d="M0 138h32v6H0z"/><ellipse cx="36" cy="97" fill="#272823" rx="45" ry="2"/><circle r="1" fill="#45453f" transform="rotate(-154.7 100.5 42.6) scale(31.97791 11.40982)"/><path fill="#383831" d="M60 153l-30-8 68-11z"/><path fill="#393a34" d="M114 139h70v4h-70z"/><path fill="#f4a348" d="M77.8 61l7-4 3.4 6-7 4z"/><path fill="#3d3d35" d="M0 124h51v10H0z"/><path fill="#cd8348" d="M78 63h21v4H78z"/><circle r="1" fill="#625244" transform="matrix(16.79406 38.68304 -10.27092 4.45907 58.9 18.4)"/><path fill="#433f3a" d="M90 110L21 41l15 46z"/><path fill="#383933" d="M43 100.8l-23.9 27.7 25.4-7.6 35.1-26z"/><path fill="#4f4a43" d="M99 62h56v33H99z"/><path fill="#524f48" d="M122 126h42v6h-42z"/><path fill="#040805" d="M172 143h7v1h-7z"/><path fill="#46453f" d="M63 100h115v4H63z"/><path fill="#45423c" d="M222 31l-72 64 52-1z"/><circle r="1" fill="#6c5b4c" transform="matrix(-40.28443 29.01418 -4.51681 -6.27132 118 28)"/><path fill="#5c574f" d="M104 133h25v3h-25z"/><circle r="1" fill="#514539" transform="rotate(-60.7 127.8 -172) scale(35.22465 9.52979)"/><circle r="1" fill="#635344" transform="rotate(-135.8 93.2 -37.8) scale(10.09633 38.40637)"/><path fill="#514e46" d="M91.6 125.2l1.9 7.8-31 7.8-2-7.8z"/><path fill="#42413b" d="M72 122h40v5H72z"/><path fill="#44433c" d="M186.6 110.1l-23.8 37.1 34.6-13.3 9.6-15z"/><circle r="1" fill="#b1724c" transform="matrix(2.32571 -.06755 .0764 2.63018 97.1 68)"/><circle r="1" fill="#c57a46" transform="rotate(-111.2 63.1 6.6) scale(4.15049 6.11343)"/><circle r="1" fill="#534536" transform="rotate(61.2 2.3 17.2) scale(45.8018 10.9742)"/><ellipse cx="248" cy="108" fill="#292923" rx="28" ry="4"/><circle r="1" fill="#6b5546" transform="matrix(1.9605 -3.27576 5.26147 3.14892 85.1 77.1)"/><path fill="#393932" d="M12 117h55v6H12z"/><circle r="1" fill="#564d43" transform="rotate(44 31.5 236.7) scale(7.95367 46.33664)"/><path fill="#39342b" d="M15.4 93.6l-9.6 2.8-21.2-74 9.6-2.8z"/><path fill="#ffb94b" d="M78 59l5-2 9 4z"/><path fill="#2d2e29" d="M159 96h66v3h-66z"/><path fill="#e5954c" d="M76 61h19v3H76z"/><path fill="#38332c" d="M255 29l-21 67 37-35z"/><path fill="#554b41" d="M64.8 74.3L23.6 7l40.2 36 14.9 38.3z"/><path fill="#705a49" d="M102 42L74 61l15-30z"/><path fill="#49473f" d="M41 139l20-20 7 7z"/><ellipse cx="152" cy="135" fill="#4e4c46" rx="28" ry="2"/><path fill="#4e4b45" d="M150 117l-32.9 11.8-48.7 1.5 119.4-13z"/><path fill="#35352e" d="M215 112l-36-5 53-10z"/><circle r="1" fill="#413d36" transform="rotate(-143.1 117.9 -.3) scale(10.45378 32.00542)"/><path fill="#262720" d="M15.6 110.8l-4.1-11.5-21.3-7.6L.9 110.2z"/><ellipse cx="142" cy="108" fill="#31322b" rx="105" ry="1"/><path fill="#383831" d="M221.5 138.1l40 .9-59.1-18.4 50.7 4.9z"/><path fill="#584f46" d="M110.7 79.2l73.2-49.8-71.1 31.4-17.6-1.6z"/><circle r="1" fill="#443c33" transform="matrix(5.6637 -3.48433 19.31499 31.39607 15.2 45.9)"/><circle r="1" fill="#65574b" transform="rotate(73.9 41.5 103.2) scale(12.08609 27.84167)"/><path fill="#5f5a51" d="M88 133.6l17.9-2.2v1l-17.8 2.2z"/><circle r="1" fill="#4c463e" transform="matrix(24.52757 -29.64874 8.0632 6.67046 185.8 64.6)"/><ellipse cx="66" cy="113" fill="#404039" rx="32" ry="2"/><path fill="#5b564c" d="M102 142h12v2h-12z"/><path fill="#5e5045" d="M78.6 55.2l3.9 1.8-34.2-26.2 25 36.7z"/><path fill="#424039" d="M187.7 120.5l10.5-4.1 34 10.3-9.5-11.7z"/><path fill="#31312c" d="M141 138h25v3h-25z"/><path fill="#33332d" d="M88.5 135.9l12.8-2.7.2 1-12.8 2.6z"/><path fill="#191b17" d="M223 134h22v1h-22z"/><path fill="#282923" d="M269.8 153.1l-54-13.6 11.6 9.5 43.6-13z"/><path fill="#47473f" d="M138 141h35v3h-35z"/><circle cx="124" cy="111" r="6" fill="#41413b"/><path fill="#7c5946" d="M75.3 70.4l6.6 6.5-12.5-7.4 36.5 7.3z"/><path fill="#3d3c33" d="M0 141h25v2H0z"/><path fill="#45443d" d="M32 123h63v6H32z"/><path fill="#ffb24d" d="M94 60h-8l5-3z"/></g></g></svg>