<svg xmlns="http://www.w3.org/2000/svg" viewBox="0 0 2931 4397"><defs/><filter id="a"><feGaussianBlur stdDeviation="12"/></filter><rect width="100%" height="100%" fill="#37492a"/><g filter="url(#a)"><g fill-opacity=".5" transform="translate(8.6 8.6) scale(17.17578)"><circle r="1" fill="#9aa37f" transform="rotate(107.3 0 86.3) scale(84.43617 99.14531)"/><circle r="1" fill="#01000c" transform="rotate(-85.8 112.1 16) scale(40.33502 15.21106)"/><ellipse cx="159" cy="101" fill="#000600" rx="15" ry="33"/><ellipse cx="105" cy="26" fill="#8eb169" rx="41" ry="57"/><circle r="1" fill="#a5b28c" transform="rotate(85.5 -47.8 78.8) scale(58.26889 27.802)"/><circle r="1" fill="#dee0cc" transform="matrix(-2.11661 -8.24366 43.76782 -11.23767 142.4 167)"/><ellipse cx="42" cy="47" fill="#0a2000" rx="23" ry="20"/><circle r="1" fill="#56454c" transform="matrix(95.02792 14.6774 -12.0548 78.04801 88 255)"/><path fill="#cfdcb4" d="M43.2 181.2L76.7 160l-5.6 7.9-69.2-28.3z"/><path fill="#37322e" d="M105 104l42 44L2 107z"/><path fill="#c2e1a1" d="M-16 72l28 24 69-11z"/><circle r="1" fill="#d8d6d0" transform="matrix(19.03863 11.94291 -3.96194 6.31588 48.3 130.2)"/><path fill="#35471d" d="M8 121l60 28-20 12z"/><ellipse cx="160" cy="33" fill="#2b3b25" rx="26" ry="64"/><ellipse cx="86" cy="70" fill="#b4da8a" rx="22" ry="8"/><ellipse cx="124" cy="110" fill="#e4e8c6" rx="17" ry="4"/><ellipse cx="147" cy="123" fill="#303c25" rx="31" ry="11"/><path fill="#202a1c" d="M137.6 49.2L70.3 4.4 135.9-16 86.1 5.6z"/><circle cx="90" cy="129" r="16" fill="#00030a"/><circle r="1" fill="#627056" transform="matrix(30.78264 20.58565 -16.5359 24.72686 23.5 252.4)"/><ellipse cx="96" cy="193" fill="#3b412f" rx="135" ry="13"/><circle r="1" fill="#2d3727" transform="matrix(13.61696 17.30407 -5.94631 4.67929 0 120)"/><path fill="#88ad63" d="M130.9 114.2l21.9-16.6-27.1-45.3-37.2-27.5z"/><path fill="#8e7981" d="M131.8 128.3l-14.1 36.5L87.3 180l3.1-20.4z"/><path fill="#bed09b" d="M28 148h12v36H28z"/><path fill="#46682f" d="M34 75l-41-1 1-38z"/><path fill="#665e46" d="M88 78l38 23-112 25z"/><path fill="#0e170a" d="M182.7 128.4l2.3-32.9-61.2-11.8 16.1-4.8z"/><path fill="#45473c" d="M157 172.2l-18.5-.7-19.8 52.4 66.3-67.6z"/><path fill="#b2cd93" d="M71 32h31v14H71z"/><path fill="#dbd7cf" d="M110.2 172.1l5.6 9.8 23.1-8.5-.6-13.6z"/><path fill="#a4c185" d="M46 60l22 43-40-6z"/><path fill="#5b693c" d="M8 157l27 5-11 31z"/><path fill="#8d9672" d="M75 116l-18-10 17 32z"/><path fill="#233020" d="M112 13l10.4 36 7.1-15.3L107.8 9z"/><circle cx="161" cy="156" r="19" fill="#89a86c"/><path fill="#28301f" d="M52 64L-6 38l43-54z"/><circle r="1" fill="#87a36c" transform="rotate(66.2 27.2 59.6) scale(24.2496 5.89005)"/><path fill="#260b09" d="M81 165h7v24h-7z"/><path fill="#746b69" d="M170.5 253.1l-20.6 12.4-12.4-20.6 20.6-12.4z"/><path fill="#557628" d="M60 75l33-31-36 7z"/><path fill="#eff4e3" d="M26 85l31-11-10 10z"/><circle r="1" fill="#a7cb91" transform="rotate(-63.7 108.3 -75) scale(14.77929 5.75771)"/><path fill="#839f65" d="M13.3 48.3l15.1.6-2 19.7-29.9-25z"/><path fill="#675c5a" d="M102 100h10v51h-10z"/><path fill="#d5e3bf" d="M28 175l22-2 22-20z"/><path fill="#d3d4cc" d="M42.9 130.8l-1.6-16.9L64 134.7l-3.1 8.1z"/><path fill="#9ab287" d="M110.7 5.5L101 23.6l4.1-35.4L126.5-8z"/><path fill="#302f27" d="M16.5 157.9l-23.9-17.3L3 242.5l6.6-79.2z"/><path fill="#4f6734" d="M48.5 14.6L31 36.8l43.2-6.2-31-46.6z"/><path fill="#688244" d="M-16 127.4l30-12 64.8-42.6-46.9 18.5z"/><path fill="#a9c287" d="M138.2 18.3L136 25l-16.2-5.3L122 13z"/><path fill="#a7d776" d="M81 73l-15-7 8 24z"/><ellipse cx="107" cy="170" fill="#d0c0c0" rx="4" ry="13"/><path fill="#495840" d="M167.1 131.3l-21.9-14.9-29.2 41 1.9 9.7z"/><path fill="#4b6138" d="M167 145l-18 11 30 2z"/><path fill="#739a58" d="M99.1 91.1l29.5-.9 25.2-27.5-37.9-4.8z"/><path fill="#394a29" d="M29.9 72.9L9.1-16 60.8 84.8l.2-29.5z"/><path fill="#5d733f" d="M132 11h18v32h-18z"/><path fill="#465b31" d="M42 146h17v18H42z"/><circle r="1" fill="#1a1f0b" transform="matrix(-19.32803 -13.23366 8.1811 -11.94865 169 24.6)"/><path fill="#1d1f20" d="M84.5 126.1l-11.9-12.9L76.9 85l4.5 10.5z"/><circle r="1" fill="#c7ceb2" transform="rotate(-10.4 993.6 -680) scale(36.59882 3.4766)"/><path fill="#314526" d="M-16 221l85-54-9 49z"/><path fill="#524544" d="M27 248l76-82-13 105z"/><path fill="#bec89e" d="M67 162l13 4-1 11z"/><path fill="#d6d7ce" d="M40.4 163.9L6.7 140.5l2.5 8 4.9 5.8z"/><path fill="#534f43" d="M40.7 101L22 97.5 66.6 134l9.1-11.8z"/><circle r="1" fill="#12190a" transform="matrix(3.23257 -6.37893 9.79857 4.9655 152.5 55.4)"/><path fill="#5f5e3b" d="M25.1 130.4l1.5 25.4-17.9-20.7 17.3 8.8z"/><path fill="#28381a" d="M74-8.3l26.7-4.2L104 8.3l-26.7 4.2z"/><path fill="#bab4a2" d="M120.9 113.2l18.9.7-35.5-10.3 9.2 14.8z"/><path fill="#967360" d="M95.6 104l-4.3 9-10.9-5 4.3-9z"/><path fill="#638d00" d="M100 57L84 41h10z"/><path fill="#d2c3be" d="M124 144l-16-1 7-5z"/><path fill="#334623" d="M-16 71.7l33.3-27L-16 83l45-14.8z"/><path fill="#537458" d="M159 73.5l16.7 7.8-11.6-40.2 15.2-.6z"/><path fill="#45602f" d="M110.3 81.7l.6-11.6 13.8 15.1-41.4-.7z"/><path fill="#cacfbb" d="M27.3 142.1l17.2 15L6 143.9l17.6 15.9z"/><path fill="#a8bd7a" d="M123.5-16l13 32.2L142-16 105 6.2z"/><path fill="#667f45" d="M59.2 51.9l27.3 22.6 1.5-5.4-22-30.5z"/><path fill="#6f8854" d="M83.8 165.4l-55.6 27.2-8.6-2.7 40.4-21z"/><path fill="#192012" d="M129.1 127.5l19.4-21.7 15.3-27.6 10.5 28.1z"/><path fill="#b7d39f" d="M96 86l3-14-16-14z"/><circle r="1" fill="#7b8662" transform="rotate(150 3.3 .9) scale(9.28506 5.85135)"/><path fill="#3d3f36" d="M151.3 271l5.1-101.9-10.6 3.7-11.2 4.4z"/><path fill="#414e45" d="M125.5 157.1L37 147.7l104.1-3.5-34 6.6z"/><path fill="#2e2926" d="M104.2 137.5L91 77.7l-13.9-.5 10 8.1z"/><circle cx="106" cy="96" r="6" fill="#2a4813"/><path fill="#d9ecb8" d="M114.8 61.3l-9.2-6 1.6-2.6 9.2 6z"/><path fill="#35471d" d="M11.7 103.2l-23 1.6-.4-6 23-1.6z"/><path fill="#a0b48b" d="M2.8 75.5L11.9 95l-.4-34.9 24.9 43z"/><path fill="#364533" d="M121 16l2-30-12 30z"/><path fill="#738f4c" d="M137.2 113.7L152 95.5l-16.1-10.8 16.3 24.5z"/><path fill="#a2ae8c" d="M10.3 110.5l14.3 20.1 22.9 8.4L21 116.6z"/><path fill="#c4d2af" d="M45 98h27v3H45z"/><path fill="#392c28" d="M125.7 235.8L77.2 183l56.5 35 15.7-5.5z"/><path fill="#86776f" d="M92 200l13 16-22-13z"/><path fill="#6c595a" d="M85 258l48-10-21-7z"/><path fill="#2d4114" d="M25 115l-12-9 5-5z"/></g></g></svg>