<svg xmlns="http://www.w3.org/2000/svg" viewBox="0 0 1800 1200"><defs/><filter id="a"><feGaussianBlur stdDeviation="12"/></filter><rect width="100%" height="100%" fill="#5f4037"/><g filter="url(#a)"><g fill-opacity=".5" transform="translate(3.5 3.5) scale(7.03125)"><ellipse cx="116" cy="18" fill="#f86c20" rx="206" ry="60"/><path fill="#ffff9e" d="M89.6 104.8l13.4-8.2-13.6-12.1-23.5 6.4z"/><circle r="1" fill="#334334" transform="matrix(-254.97175 3.79576 -.54813 -36.8191 107.8 148.3)"/><circle r="1" fill="#89402e" transform="matrix(.34471 -15.19013 148.51903 3.37037 156.1 75.1)"/><circle r="1" fill="#f87149" transform="matrix(19.22523 -3.23028 2.5742 15.32054 88.8 96.1)"/><circle r="1" fill="#f4ffe3" transform="matrix(-7.67695 -2.08578 1.78735 -6.57853 90 95.4)"/><circle r="1" fill="#c3662b" transform="matrix(113.32064 1.38454 -.41387 33.87437 90 12.8)"/><circle r="1" fill="#844430" transform="matrix(-5.85784 -18.38082 87.69414 -27.9475 186.4 73.3)"/><path fill="#b3241c" d="M89 115l-21-13 27-3z"/><circle r="1" fill="#413d30" transform="matrix(48.92884 13.57733 -6.0126 21.66773 11.8 107.2)"/><circle r="1" fill="#89432f" transform="rotate(96.6 -16.2 48.6) scale(11.15231 114.72147)"/><path fill="#9d4029" d="M99.2 54.4L67.8 98.2 49.6 87.4l50.9-3.9z"/><path fill="#eaf6d5" d="M85.6 88l5.6-.9 4.1 12.5L76.1 89z"/><path fill="#3f3a30" d="M271 139l-171-10 169-35z"/><circle r="1" fill="#633f33" transform="matrix(78.21273 -4.1776 .90447 16.9335 193.5 96)"/><path fill="#564e40" d="M125 148h131v12H125z"/><path fill="#813d31" d="M99 77h37v36H99z"/><path fill="#ffca67" d="M69.3 94.7l32.3 3.4-2.4 5.2-17-3.5z"/><ellipse cx="79" cy="142" fill="#504539" rx="37" ry="35"/><circle r="1" fill="#a8562c" transform="rotate(-28.2 149 -460.5) scale(97.24169 29.5543)"/><path fill="#1c201b" d="M224 164l47 4-48 14z"/><path fill="#ed2b19" d="M85 101l12 7 4-8z"/><path fill="#ffdc44" d="M76 89l6 9-11-5z"/><circle r="1" fill="#a54b2a" transform="matrix(64.16666 6.63098 -1.02795 9.94723 60.6 59.4)"/><path fill="#654032" d="M73.7 100.5l-26.8 10.6-22.9-34 41.1 4.7z"/><path fill="#f51e00" d="M75 91h6v3h-6z"/><path fill="#2a2925" d="M110 156h11v14h-11z"/><path fill="#d6dee7" d="M84.9 91.8L89 89l6.1 9.2L91 101z"/><path fill="#b1391c" d="M108.3 88.9l-5.5-1.5 2.9 15.8-14.6-17.4z"/><circle cx="75" cy="105" r="5" fill="#c83d34"/><ellipse cx="92" cy="148" fill="#554d3f" rx="52" ry="5"/><circle r="1" fill="#615745" transform="matrix(-17.89434 2.63721 -.48302 -3.27742 199.1 167.9)"/><circle r="1" fill="#96502c" transform="matrix(13.4624 1.03588 -5.4573 70.92402 256.2 3.1)"/><circle r="1" fill="#b45e2e" transform="matrix(-36.42516 34.18298 -21.33264 -22.73192 188.6 5.3)"/><path fill="#e4e9c6" d="M79 96l10 3-4-6z"/><path fill="#9d3e29" d="M117.9 96L74.5 72 67 95.7l13.3-11.6z"/><ellipse cx="46" cy="161" fill="#2d2d28" rx="28" ry="2"/><circle r="1" fill="#b75428" transform="matrix(.48445 9.56314 -78.3374 3.9684 114.4 44.9)"/><path fill="#7c4631" d="M39 73l-55-19 2 34z"/><ellipse cx="167" cy="91" fill="#6e4135" rx="50" ry="12"/><circle r="1" fill="#ffb20e" transform="matrix(-5.89204 .2313 -.03922 -.99923 83.9 87)"/><circle r="1" fill="#bd622c" transform="matrix(6.08185 -27.20862 52.11127 11.64825 92.7 12.6)"/><circle r="1" fill="#f44d3f" transform="matrix(-7.30568 -.83533 .1136 -.99353 74.3 105.7)"/><path fill="#1b1714" d="M145 150h17v2h-17z"/><ellipse cx="96" cy="133" fill="#5d5141" rx="51" ry="2"/><path fill="#595040" d="M-16 155l2-21 39 23z"/><path fill="#655945" d="M208 150h48v4h-48z"/><path fill="#a13324" d="M72.1 104.5l1-8.4 32 19.3-19.6-10.7z"/><path fill="#5f3d33" d="M61.8 111.9L-.3 97l69.1 17.3 25.3-10.4z"/><path fill="#864730" d="M194 72l77-23v24z"/><path fill="#fb6c29" d="M65.9 91.3l14.7 8.5-.5.9-14.7-8.5z"/><path fill="#813e32" d="M77.9 99.7l-37.6-9.6 35.4-9.9-9.2 23.8z"/><path fill="#683e35" d="M158 111l-22-15-57 17z"/><path fill="#131310" d="M201 160h13v2h-13z"/><path fill="#883f31" d="M130.5 94.3l-44.8 18.6 29.9-8.5-29.5-26.5z"/><path fill="#ffdc46" d="M97 93h2v11h-2z"/><ellipse cx="112" cy="117" fill="#403930" rx="255" ry="4"/><circle cx="83" cy="111" r="3" fill="#ba3d37"/><path fill="#ff9a0e" d="M85 100h10v1H85z"/><ellipse cx="158" cy="157" fill="#5f5443" rx="25" ry="3"/><path fill="#1a1d1b" d="M177.3 162l.8-2.9 10.6 2.9-.8 2.9z"/><circle r="1" fill="#605444" transform="rotate(.7 -13170.1 5972.2) scale(32.19163 1)"/><path fill="#171716" d="M111 159.2v-1l14-1.4v1z"/><circle r="1" fill="#b05b29" transform="matrix(20.97903 28.05216 -16.15894 12.0846 2 12.8)"/><path fill="#554033" d="M113.4 127.2L.1 93.5l28.2-17.4 12 15.5z"/><path fill="#feec6a" d="M72 93h5v4h-5z"/><path fill="#5d5343" d="M176 136l-15 6h25z"/><ellipse cx="125" cy="58" fill="#aa4e2b" rx="64" ry="6"/><circle r="1" fill="#a85e2e" transform="matrix(40.17112 4.86124 -1.80042 14.87787 213.3 4.6)"/><circle r="1" fill="#e1dfcc" transform="rotate(-48 148.5 -52.9) scale(2.98074 7.99636)"/><path fill="#5d5342" d="M245 145h11v16h-11z"/><ellipse cx="210" cy="133" fill="#101414" rx="14" ry="1"/><path fill="#b6642e" d="M187.5 17.4l-198-6.9 1-28 198 7z"/><path fill="#574f40" d="M140 167l17 4 20-15z"/><path fill="#593f33" d="M249 112l17-40-102 39z"/><path fill="#3c3930" d="M232.8 159.5l7.5.9-10-6.2-16.7 3.4z"/><ellipse cx="45" cy="158" fill="#39362e" rx="31" ry="2"/><path fill="#2f2f29" d="M11 145l14-6-9 12z"/><ellipse cx="116" cy="79" fill="#894533" rx="35" ry="7"/><path fill="#8f4930" d="M66.9 74.6L-16 42.8l43 35.1 65.9 4.9z"/><path fill="#921117" d="M88.8 101.3l8.7 2.5-.3 1-8.7-2.6z"/><path fill="#5e4438" d="M26 81h47v3H26z"/><path fill="#494338" d="M169.4 110l16.7 16.1-69.2 39.7 22-32.7z"/><ellipse cx="88" cy="138" fill="#262522" rx="14" ry="1"/><path fill="#af3822" d="M102.2 100.7l-1 .3-7.4-21.7 1-.3z"/><path fill="#595042" d="M102 159h29v2h-29z"/><path fill="#81654c" d="M91 169h15v1H91z"/><path fill="#4a4539" d="M188 164l54-30h-57z"/><path fill="#3c3830" d="M157.1 111.7l-40.7 21.4 24.9 4.8-28.7 6z"/><path fill="#272825" d="M32 150h28v1H32z"/><path fill="#433c32" d="M49 133.1l51.1-10-69.9 4.7 31.3 25.1z"/><ellipse cx="100" cy="166" fill="#373630" rx="39" ry="2"/><path fill="#99492e" d="M168.4 72.4l89.7-17.9-216 17.1 60.7 4.6z"/><ellipse cx="231" cy="168" fill="#000002" rx="6" ry="1"/><path fill="#3e3c32" d="M270.8 110.1l-52 4.1 35.8 32.3 3.3 38.5z"/><path fill="#ff3a3e" d="M96 108.3l-.3 1-3.7-1.6.3-1z"/><path fill="#ebdea3" d="M81 98h17v2H81z"/><path fill="#746248" d="M20 159h8v2h-8z"/><path fill="#ffa105" d="M98.2 95.6l1-.1.6 7h-1z"/><circle r="1" fill="#a34f2c" transform="matrix(74.1977 -16.29272 1.55674 7.08945 208.1 49.5)"/></g></g></svg>