<svg xmlns="http://www.w3.org/2000/svg" viewBox="0 0 1800 1200"><defs/><filter id="a"><feGaussianBlur stdDeviation="12"/></filter><rect width="100%" height="100%" fill="#323440"/><g filter="url(#a)"><g fill-opacity=".5" transform="translate(3.5 3.5) scale(7.03125)"><circle r="1" fill="#f3efdc" transform="matrix(202.89358 -27.79296 17.43289 127.2632 133.4 75.9)"/><ellipse cx="80" cy="18" fill="#ffffe9" rx="255" ry="24"/><ellipse cx="171" cy="95" fill="#606268" rx="255" ry="49"/><circle cx="157" cy="65" r="47" fill="#8c8882"/><circle r="1" fill="#11191d" transform="rotate(82.5 -43.2 75.3) scale(8.45888 42.91326)"/><circle r="1" fill="#5d5a58" transform="matrix(69.8372 -11.1082 5.61588 35.307 198.7 169)"/><path fill="#d1d4de" d="M95.4 158.2l-32.1 27-34.7-41.4 32.1-27z"/><ellipse cx="70" cy="12" fill="#fff9e6" rx="58" ry="30"/><ellipse cx="137" cy="98" fill="#a6b2c0" rx="7" ry="159"/><path fill="#92b1d9" d="M0 84h51v22H0z"/><path fill="#333034" d="M72 79l60 10-84 22z"/><ellipse cx="17" cy="75" fill="#222832" rx="34" ry="8"/><path fill="#fff2cd" d="M198.7 24.7l-1.9 25.8 38.6-4.6 5.4-10.3z"/><path fill="#123484" d="M79 119h19v29H79z"/><circle r="1" fill="#74716a" transform="matrix(8.7843 -16.34772 33.6345 18.0732 169.3 44.8)"/><ellipse cx="217" cy="72" fill="#b0b0b1" rx="35" ry="11"/><path fill="#242843" d="M103 73h15v38h-15z"/><circle r="1" fill="#bdc8dd" transform="matrix(4.55103 -13.07054 18.29431 6.3699 105 166)"/><circle r="1" fill="#6d655b" transform="matrix(55.84806 .67985 -.16117 13.23977 25.2 61.2)"/><path fill="#4e4f4d" d="M147.2 126l-2.9 59-9.1-15.2 94.4 15.2z"/><ellipse cy="112" fill="#141109" rx="81" ry="5"/><circle r="1" fill="#9a9993" transform="matrix(-27.83615 -13.09377 6.00622 -12.76868 203.3 147.7)"/><ellipse cx="36" fill="#756e63" rx="3" ry="61"/><path fill="#3b4456" d="M245 26h11v11h-11z"/><circle r="1" fill="#493f31" transform="matrix(-1.2143 -5.10336 27.99726 -6.6617 211.2 55.6)"/><circle r="1" fill="#5b637a" transform="rotate(123.7 -33.5 81) scale(9.82384 50.80163)"/><path fill="#76726e" d="M143.3 23.7l-10.6 2.6-8-32 10.6-2.6z"/><path fill="#fff" d="M45 28h66v12H45z"/><path fill="#fdf1e5" d="M23.4 171L16 183l-25.4-16 7.4-11.8z"/><path fill="#66655b" d="M67 35.7l18.7 98.6-31.5-1.7 10.1 9.8z"/><path fill="#a08b6a" d="M45 41h55v16H45z"/><circle r="1" fill="#6b6156" transform="matrix(86.39438 23.97278 -1.612 5.8094 232 106)"/><path fill="#a39aad" d="M83 97h18v20H83z"/><circle r="1" fill="#474341" transform="matrix(-27.3613 -9.84396 2.27395 -6.32044 255 151.1)"/><path fill="#605f60" d="M111.5 128.5l20.6-6.6-.9 23 12 40.1z"/><path fill="#8799ae" d="M56.7 74.7l-36.5 34.9 34-7.1 19.6-21.9z"/><path fill="#b1bbc2" d="M131 31h12v89h-12z"/><path fill="#8f887d" d="M114 32h16v56h-16z"/><path fill="#ffffef" d="M16.8 30.6l10.8 2.6.1 8-32.7.1z"/><path fill="#9b9692" d="M267.2 138.7l-114.8-35 4.4-14.4 114.8 35z"/><path fill="#bcc0c5" d="M44.8 111.9l26.1 9L31.2 158l18.2-34.4z"/><ellipse cx="90" cy="21" fill="#d9c4a0" rx="39" ry="6"/><path fill="#eee3c9" d="M212 71l15 11-17 1z"/><ellipse cx="178" cy="6" fill="#ecd9c0" rx="37" ry="15"/><path fill="#252527" d="M23.6 74.7l25.5-1.4-28.4 8.1 35 1.7z"/><path fill="#fffffe" d="M39-9l1 52 19-32z"/><path fill="#4a4840" d="M66.9 133.3L79.3 74l6.5 35.1L54.2 139z"/><path fill="#fff" d="M110 43l7-15-50 3z"/><path fill="#878d9c" d="M0 119h39v22H0z"/><path fill="#64615a" d="M240.4 62.5l3.7.1-114 2.5 108.5-21.4z"/><path fill="#88857e" d="M161 21h22v57h-22z"/><path fill="#d2bb94" d="M-16 35l6-21 71 10z"/><path fill="#171510" d="M49 55.6v1l-34 1.8v-1z"/><path fill="#cdcbc7" d="M32.6 148.4l14.2-21.9 5.3-4.5L73 185z"/><ellipse cx="90" cy="71" fill="#a5998b" rx="16" ry="10"/><circle r="1" fill="#9b9ea8" transform="matrix(-7.17684 22.14359 -4.50185 -1.45907 77.1 137.8)"/><path fill="#1a1916" d="M-12 120l46-5-35-12z"/><path fill="#989384" d="M168 33l29-2-2 27z"/><path fill="#f3e5cc" d="M198 45l35 1-36-23z"/><path fill="#645c53" d="M182.7 73.9l58.6-24.2-44-2.1-6.9 29.4z"/><circle r="1" fill="#69635d" transform="matrix(2.5861 -4.94675 31.16604 16.29321 186.4 120.6)"/><path fill="#a7abb4" d="M120 146.2l-18.3 10.1-5.8-10.5 18.4-10.1z"/><path fill="#959392" d="M48 59l-19 5 45 16z"/><ellipse cx="7" fill="#cab085" rx="21" ry="8"/><path fill="#6a6151" d="M53.9 62.6l58.2-.2 2.9-34.7-2.9 24.2z"/><ellipse cx="24" cy="98" fill="#7f8fa4" rx="29" ry="10"/><path fill="#2c436f" d="M83.5 150.3l12.7-33.7-19.7 34 1.8.9z"/><path fill="#11110b" d="M25 61.4l4.8-.7 1.3 7.9-5 .7z"/><ellipse cx="17" cy="67" fill="#909094" rx="7" ry="8"/><ellipse cx="138" cy="26" fill="#989c9e" rx="5" ry="42"/><path fill="#23211e" d="M68.7 85.2l-9.1 30.6-25.5-7.6 28.1-7.7z"/><path fill="#55514b" d="M238.2 99.7l32.8 25.5-27.3-12.5-41.8-11.2z"/><path fill="#1e305d" d="M105.1 81l-6.5 11.6 19.8 16.6-3.4-22.8z"/><ellipse cx="179" cy="71" fill="#e2d6c3" rx="10" ry="2"/><circle r="1" fill="#a2967d" transform="matrix(-.97382 -.2273 17.163 -73.5308 1 36.4)"/><path fill="#898681" d="M188 95l55-28-6 34z"/><path fill="#d9cbb9" d="M209.1-16l-29.3 48.2 36-1.3L259 1.6z"/><path fill="#fdfbf4" d="M6.9 10.4l54-1.8.2 7-54 1.8z"/><path fill="#5f5b57" d="M42.7 75.5l-4.8-24.4-5.7-14.2-3.5 6.1z"/><ellipse cx="12" cy="152" fill="#3e4143" rx="16" ry="2"/><path fill="#6f6f6e" d="M143.7 53.3l-9.2-23 6.1 28.2 68.2 19.9z"/><path fill="#1c3873" d="M92.6 136l2.3 18.4 4.8-33.5-11.6 1.5z"/><path fill="#fffff2" d="M116 27h14v4h-14z"/><path fill="#f9f3e5" d="M88-16l1 38 45-28z"/><path fill="#858c9b" d="M66.6 116.4l23.3 13.7-33-6 7.3-18.9z"/><circle r="1" fill="#a7acb3" transform="matrix(-.97474 -.22334 5.74028 -25.05243 86 155.6)"/><path fill="#453534" d="M62.4 141.6l-7-7.2 2.2-2 7 7.2z"/><path fill="#939592" d="M157.9 111.5l24.6 13.8-42.6 3.8 1.9-22.2z"/><path fill="#484c40" d="M79 96l1 34-17-55z"/><path fill="#859ab5" d="M25.9 82.6l-29.7 1.6 58.2 16.3 11-15.4z"/><path fill="#403627" d="M235.3 56.1l-2.9-1 4.3-13.2 2.9 1z"/><ellipse cx="45" cy="119" fill="#9eafc4" rx="23" ry="2"/><path fill="#a59479" d="M131.4 51.9l-11.7-7.3-57.3-5.1-52.8 7.8z"/><ellipse cx="35" cy="12" fill="#5b5a58" rx="1" ry="27"/><path fill="#4a463e" d="M0 49h56v2H0z"/><circle cx="13" cy="77" r="5" fill="#161719"/><path fill="#8b95a0" d="M238 43h16v13h-16z"/><path fill="#b2b6b6" d="M142.9 63.8l-8.8-28-3.9-3.2-1.7 37.7z"/><path fill="#a6adb8" d="M99 182l-43 3 33-44z"/><path fill="#4b4a49" d="M210 68h10v4h-10z"/></g></g></svg>