<svg xmlns="http://www.w3.org/2000/svg" viewBox="0 0 1800 1013"><defs/><filter id="prefix__a"><feGaussianBlur stdDeviation="12"/></filter><rect width="100%" height="100%" fill="#2f565b"/><g filter="url(#prefix__a)"><g transform="translate(3.5 3.5) scale(7.03125)"><circle r="1" fill="#fff" fill-opacity=".5" transform="matrix(-8.66694 56.33066 -220.48065 -33.92276 132.3 28.9)"/><circle r="1" fill="#fff" fill-opacity=".5" transform="matrix(69.84431 -26.20388 12.97406 34.5813 214.3 26.3)"/><circle r="1" fill="#94a3a2" fill-opacity=".5" transform="matrix(-129.51017 18.8935 -7.22275 -49.51013 211.1 139.3)"/><path fill="#49556c" fill-opacity=".5" d="M17-16l136 42-167 23z"/><ellipse cx="63" cy="88" fill="#190100" fill-opacity=".5" rx="84" ry="14"/><circle r="1" fill="#dea16c" fill-opacity=".5" transform="matrix(-73.11703 -10.84577 1.7267 -11.64058 43 143)"/><ellipse cx="213" cy="11" fill="#fff" fill-opacity=".5" rx="46" ry="41"/><path fill="#f1e9f2" fill-opacity=".5" d="M17.1 64l26.2 12.4L53 45.9l-69 19.8z"/><ellipse cx="144" cy="58" fill="#b2c3d9" fill-opacity=".5" rx="32" ry="27"/><circle r="1" fill="#536659" fill-opacity=".5" transform="matrix(2.7751 -27.3203 39.38297 4.00038 108.5 126)"/><path fill="#221800" fill-opacity=".5" d="M49.1 77.3L-16 119.7l8.5-49 19.2-6.2z"/><ellipse cx="239" cy="123" fill="#809f9e" fill-opacity=".5" rx="61" ry="17"/><circle r="1" fill="#4f5d69" fill-opacity=".5" transform="rotate(75 34.9 49.4) scale(8.87 47.47074)"/><ellipse cx="209" cy="78" fill="#8499bd" fill-opacity=".5" rx="76" ry="16"/><ellipse cx="29" cy="111" fill="#555139" fill-opacity=".5" rx="46" ry="19"/><circle r="1" fill="#74829a" fill-opacity=".5" transform="rotate(-104.6 61.7 3.5) scale(10.89058 26.08151)"/><ellipse cy="26" fill="#8a94a4" fill-opacity=".5" rx="23" ry="41"/><ellipse cx="251" cy="52" fill="#c5d4e5" fill-opacity=".5" rx="124" ry="12"/><ellipse cx="98" cy="86" fill="#1c2616" fill-opacity=".5" rx="29" ry="12"/><circle r="1" fill="#fff" fill-opacity=".5" transform="rotate(173.2 113.5 16.6) scale(46.38068 12.62353)"/><path fill="#598480" fill-opacity=".5" d="M197.3 136.3l-38.5-38-46 1.1-17.5 10.5z"/><path fill="#262a1a" fill-opacity=".5" d="M17.6 99.6l167-1.2-59.9-17.7-133.3-11z"/><circle r="1" fill="#5b6e7d" fill-opacity=".5" transform="matrix(33.37312 1.18106 -.2949 8.33318 86.9 30.5)"/><ellipse cx="153" cy="61" fill="#b4c4cc" fill-opacity=".5" rx="59" ry="11"/><path fill="#8899ad" fill-opacity=".5" d="M177 5L76 7l75 23z"/><path fill="#b3b7c2" fill-opacity=".5" d="M71.3 73.9L3.5 57.8l-13.2-2.4 46.4 18.1z"/><circle r="1" fill="#9d8268" fill-opacity=".5" transform="matrix(-74.61428 .26127 -.0138 -3.94158 124.7 143)"/><path fill="#ffffea" fill-opacity=".5" d="M127.4 110.8l-9.6-2.7.8-3 9.6 2.8z"/><ellipse cx="207" cy="100" fill="#435b6f" fill-opacity=".5" rx="66" ry="5"/><path fill="#40514d" fill-opacity=".5" d="M122 118l-2 23-85-14z"/><ellipse cx="53" cy="106" fill="#5e7c73" fill-opacity=".5" rx="41" ry="3"/><path fill="#8ea3b7" fill-opacity=".5" d="M180 61h39v35h-39z"/><path fill="#180a0b" fill-opacity=".5" d="M246.2 121.8l-.6 3-11.8-2.6.6-3z"/><path fill="#aabacd" fill-opacity=".5" d="M166.1 18.7L67.2-12.9l81.7-3.1 32 24.7z"/><ellipse cy="15" fill="#484e58" fill-opacity=".5" rx="1" ry="48"/><ellipse cx="224" cy="88" fill="#7d94b3" fill-opacity=".5" rx="64" ry="8"/><path fill="#81756a" fill-opacity=".5" d="M5 110l29-2-24-9z"/><path fill="#e5e7e4" fill-opacity=".5" d="M19 52.5l17.7-3.8 2.2 10.8-17.6 3.8z"/><path fill="#d9dcd8" fill-opacity=".5" d="M156.5 114.7v3l-11-.4v-3z"/><path fill="#466e6f" fill-opacity=".5" d="M169 142l-69-15 34-26z"/><path fill="#28332f" fill-opacity=".5" d="M12 110h66v5H12z"/><path fill="#171c15" fill-opacity=".5" d="M-16 73l35-8 48 38z"/><path fill="#8fa1b5" fill-opacity=".5" d="M141.3 42.5L91.4 70.3l49 15.1L93 38.9z"/><path fill="#d6e3eb" fill-opacity=".5" d="M218.5 27.9l-30.2 44.4-20.5-66.1-11.1 50.6z"/><path fill="#3f3c13" fill-opacity=".5" d="M64 97l-59 9 38-17z"/><path fill="#292a23" fill-opacity=".5" d="M103 94h81v3h-81z"/><path fill="#a79a7d" fill-opacity=".5" d="M24 140h64v4H24z"/><circle r="1" fill="#a3927f" fill-opacity=".5" transform="matrix(.35603 -1.56707 2.69578 .61247 56 80.1)"/><path fill="#8394a6" fill-opacity=".5" d="M45.6 55L125 29.5 82.7 77.8l-15.4-3.2z"/><circle r="1" fill="#f5ffff" fill-opacity=".5" transform="matrix(.67028 9.58376 -66.24904 4.63343 234 20.4)"/><path fill="#9dafbe" fill-opacity=".5" d="M214.5 86.1l-43.5-15 4.5-13.2 43.5 15z"/><path fill="#8b99a7" fill-opacity=".5" d="M1 19h17v46H1z"/><path fill="#504b14" fill-opacity=".5" d="M17 134h5v10h-5z"/><path fill="#5e707e" fill-opacity=".5" d="M12 31h53v10H12z"/><path fill="#a99a85" fill-opacity=".5" d="M7 131l18 2-24-11z"/><path fill="#dbe9f5" fill-opacity=".5" d="M249 31l-29 27-54-31z"/><path fill="#3f504b" fill-opacity=".5" d="M68 101h18v38H68z"/><path fill="#2a3332" fill-opacity=".5" d="M134.7 84.7l-43.8-9.6-32.1 5.1 127.4 17.6z"/><path fill="#c4d2d8" fill-opacity=".5" d="M162 50.2l-20.6 22-15.3-14.4 20.5-22z"/><path fill="#93a1b1" fill-opacity=".5" d="M84 35l1 23-69-15z"/><ellipse cx="121" cy="72" fill="#9cadb8" fill-opacity=".5" rx="80" ry="4"/><path fill="#6e8090" fill-opacity=".5" d="M149.1 26.6l7.8 1.3-18.8-16.5-55.6 30.8z"/><path fill="#6b7d8d" fill-opacity=".5" d="M100 65.8l-41.7 4.4-.4-4 41.8-4.4z"/><path fill="#ced6df" fill-opacity=".5" d="M178 141h11v2h-11z"/><ellipse cx="210" fill="#dfeeff" fill-opacity=".5" rx="36" ry="15"/><circle r="1" fill="#b8c6dc" fill-opacity=".5" transform="rotate(166.9 122.4 40.3) scale(22.24106 15.16275)"/><path fill="#006197" fill-opacity=".5" d="M142 118h15v3h-15z"/><path fill="#8d785d" fill-opacity=".5" d="M83.8 156.1l32.2-8.7-13.6-11.6-18.8-.7z"/><path fill="#7f97a4" fill-opacity=".5" d="M165.8 76.7l22.7 20.1-67.1-16.5 23-3.8z"/><path fill="#cdbc99" fill-opacity=".5" d="M42 134h16v2H42z"/><path fill="#b9c0c7" fill-opacity=".5" d="M42.4 70.1l-11.5 2.7-25.2-16 21.8-9.4z"/><path fill="#a6b8c8" fill-opacity=".5" d="M156 27.1l14 5.4-33.7 13.8-27-7.1z"/><path fill="#7a9798" fill-opacity=".5" d="M214.9 149l35.3-30.7 20.8 24.5-59.2-34.2z"/><path fill="#6e7a8c" fill-opacity=".5" d="M10.8 46.2L-16 47v32.6l27.2-25.8z"/><path fill="#7e8077" fill-opacity=".5" d="M39.7 103.2l-26 3.1-29.7 6.4 34.1-4z"/><ellipse cx="141" cy="102" fill="#42696b" fill-opacity=".5" rx="68" ry="3"/><ellipse cx="18" cy="96" fill="#404619" fill-opacity=".5" rx="33" ry="5"/><path fill="#62717b" fill-opacity=".5" d="M101.9 7.9l-9.3-.5-84.4 5.9 70.7-25.9z"/><path fill="#668987" fill-opacity=".5" d="M174.1 103.3l31.3 39.1-56.2-27.8 121.8-4.9z"/><path fill="#1a2016" fill-opacity=".5" d="M-16 71.3L74.9 91-16 93.7 8.4 109z"/><ellipse cx="74" cy="106" fill="#416762" fill-opacity=".5" rx="21" ry="5"/><path fill="#c6c8c7" fill-opacity=".5" d="M239 117h5v4h-5z"/><circle r="1" fill="#242c27" fill-opacity=".5" transform="matrix(19.36214 1.16249 -.61256 10.2026 93.1 85.1)"/><path fill="#aea083" fill-opacity=".5" d="M38.5 134.6l22.4 2.5-25.2-5.9-29.8.3z"/><ellipse cx="27" cy="118" fill="#335053" fill-opacity=".5" rx="54" ry="6"/><path fill="#222716" fill-opacity=".5" d="M49 102l15-23 51 18z"/><path fill="#272219" fill-opacity=".5" d="M56 110h20v4H56z"/><path fill="#52717b" fill-opacity=".5" d="M148 98h104v8H148z"/><circle cx="140" cy="139" r="2" fill="#c2c9cd" fill-opacity=".5"/><path fill="none" stroke="#63523e" stroke-opacity=".5" stroke-width=".5" d="M196.8 159q-40.6-15.2-202.2-33.4"/><path fill="#838f9b" fill-opacity=".5" d="M0 34.1l-16 11.6L32 25 2.8-13.6z"/><path fill="#566479" fill-opacity=".5" d="M185 95h71v5h-71z"/><circle cx="57" cy="85" r="2" fill="#88978f" fill-opacity=".5"/><path fill="#92a4ba" fill-opacity=".5" d="M198 63h58v22h-58z"/><path fill="#a5b2bb" fill-opacity=".5" d="M46 59.1L42.2 51 64 40.9l3.8 8.1z"/><path fill="#61726d" fill-opacity=".5" d="M177.2 142.2l-.8 2.3-36.1-4.1 18.5-14.8z"/><path fill="#31372c" fill-opacity=".5" d="M122 87h27v12h-27z"/><circle cx="121" cy="107" r="3" fill="#d6e3d6" fill-opacity=".5"/><path fill="#434745" fill-opacity=".5" d="M5 73h16v3H5z"/><path fill="#92a1ae" fill-opacity=".5" d="M95 3h54v13H95z"/></g></g></svg>