<svg xmlns="http://www.w3.org/2000/svg" viewBox="0 0 1200 1800"><defs/><filter id="a"><feGaussianBlur stdDeviation="12"/></filter><rect width="100%" height="100%" fill="#384c69"/><g filter="url(#a)"><g fill-opacity=".5" transform="translate(3.5 3.5) scale(7.03125)"><circle cx="146" cy="66" r="158" fill="#fff"/><circle r="1" fill="#bee1ff" transform="matrix(-109.51286 -82.57239 37.0311 -49.11305 169 100.6)"/><circle r="1" fill="#97896b" transform="matrix(43.25758 69.2266 -59.27258 37.03762 99 204)"/><circle r="1" fill="#0b0f08" transform="matrix(6.4274 23.37813 -14.99925 4.12378 169 196.9)"/><circle r="1" fill="#493e11" transform="rotate(-101.8 90.4 99.6) scale(87.41294 24.56085)"/><ellipse cx="130" cy="139" fill="#dddedf" rx="44" ry="49"/><circle r="1" fill="#84aeea" transform="matrix(96.6733 -1.16784 .77732 64.34622 85.2 0)"/><circle r="1" fill="#bfac8b" transform="matrix(-60.6997 -50.21517 17.02484 -20.5795 50 98.4)"/><path fill="#000104" d="M68.4 168.7l-4.3-17.5 15.5-3.9 4.3 17.5z"/><circle r="1" fill="#bbb7aa" transform="rotate(-151.4 40 73.3) scale(21.58832 30.15514)"/><path fill="#1e2224" d="M78.2 237.3l-83.4 10.2-3-24.8 83.4-10.2z"/><path fill="#fff9d3" d="M13.3 105.6l-23.9-2.5 5.3-50.7 23.9 2.5z"/><path fill="#c6def5" d="M48 33.2l22.6 62-20.6 7.6-22.6-62z"/><path fill="#c0dbfa" d="M0 210h31v6H0z"/><path fill="#a9a397" d="M82 134h70v89H82z"/><circle r="1" fill="#6c6859" transform="matrix(-27.95354 -12.79834 8.84317 -19.31484 56 193.6)"/><path fill="#736853" d="M19 42l6 92 14-60z"/><path fill="#c4c2bb" d="M161.3 216.4l7.1-17.2-52.5-2-23-97.4z"/><path fill="#7a6041" d="M83.6 118L62.7 74.5l22.9 21.3L52 114.3z"/><circle r="1" fill="#cae2ff" transform="matrix(-51.93237 12.59148 -7.53547 -31.07932 147.8 102)"/><path fill="#859bb8" d="M41 241h111v11H41z"/><path fill="#e8f6ff" d="M149.5 169.8l29.1 3.9L185 60.9 151.4 141z"/><circle cx="161" cy="186" r="10" fill="#051007"/><path fill="#827459" d="M31.5 136.5L14.8 132-16 93l31.6 74.7z"/><ellipse cx="113" cy="8" fill="#7da0d2" rx="52" ry="26"/><path fill="#484a48" d="M121.3 243.7l10.5-48-3.7 10.8-38.3 31.3z"/><path fill="#886f52" d="M94.1 96.7l-42.9-22 23.7 18 28.1 15.8z"/><path fill="#161e1e" d="M49 242l2-44 14 1z"/><path fill="#7e7869" d="M76 157l19-37-30 12z"/><path fill="#f7e7c7" d="M84 101L51 76l-3 27z"/><path fill="#222b00" d="M27.6 204.2l-12.9 5.5-20.3-47.9 12.9-5.5z"/><circle r="1" fill="#d0d1c7" transform="rotate(57.8 -106 108) scale(23.11466 9.04334)"/><path fill="#8c877e" d="M62 188h52v37H62z"/><path fill="#674e30" d="M35 67L3 46l28 8z"/><path fill="#8e775c" d="M128.5 139.7l-33.7-7.4-10.2-9.6 69.5 18.6z"/><path fill="#393838" d="M137.8 242.1l9-8.4 38.2 2.6v-39.5z"/><path fill="#7d684d" d="M38.7 96.4l12.9 12.1 16.7 7.1-35.4-32z"/><path fill="#536f75" d="M135 154h8v23h-8z"/><path fill="#dde9f4" d="M185 141.2L77.9 116l-11 6.1 28.2 3.1z"/><path fill="#6d7f93" d="M-16 255.9l54.7-3.6 6.5-19.2 53 37.9z"/><circle r="1" fill="#a2bee1" transform="matrix(-12.64566 19.4336 -65.74634 -42.78189 53.8 44)"/><path fill="#c3bda6" d="M-16 102.1l41-25.7-3.2 50.3 13.7 16.8z"/><path fill="#725739" d="M86.5 109.2L61 124.8l17.1-35.6-6.4 13.2z"/><path fill="#7b8594" d="M-9.3 209.8l6-21.2 12.6 3.6-6 21.2z"/><path fill="#171c0e" d="M34.1 212.3l-13.5-7.9-36.6-13.1 31.7 18.2z"/><path fill="#14171e" d="M0 235h39v16H0z"/><path fill="#bdaca2" d="M157 196h10v16h-10z"/><path fill="#313330" d="M70 216l25 20-31 3z"/><ellipse cx="123" cy="76" fill="#b3cdee" rx="50" ry="26"/><path fill="#8691a4" d="M167.1 240.3l-27.6 20.2 10.8-24 31-.9z"/><path fill="#9dbbe0" d="M27 27l158 22.9L56 73.7l-16.5 18z"/><path fill="#2a2828" d="M165.6 249.5l19.4-15.4-32.3 16.5 11.5 20.4z"/><path fill="#aaa8a3" d="M19 149h32v26H19z"/><path fill="#74726d" d="M25 222l-8-1v23z"/><path fill="#443f37" d="M96.6 196.4l-.2-.5 8.6 2.8-4-13.5z"/><path fill="#00010f" d="M120 254h22v2h-22z"/><path fill="#afaba1" d="M67.6 132.6l-3.3 47.1-4.9-79.8 5.3-35.7z"/><path fill="#111711" d="M168 171h2v52h-2z"/><path fill="#b5b1a8" d="M92 150l69 58-89-35z"/><path fill="#eaf9ff" d="M151 149l1 29 13-10z"/><path fill="#494a44" d="M18 177h70v2H18z"/><circle r="1" fill="#89867a" transform="rotate(12.6 -912.2 322.7) scale(13.5582 2.11786)"/><path fill="#454624" d="M0 140h18v46H0z"/><circle r="1" fill="#b48b54" transform="matrix(26.42944 3.6746 -.59131 4.253 0 47.7)"/><path fill="#7c6b55" d="M99.4 105.8l-5.3-10.2-6.6 8.3-15-16.6z"/><path fill="#fff8d9" d="M43 88l17 19V81z"/><path fill="#adb1ac" d="M25 182h86v3H25z"/><path fill="#a0b9cf" d="M32.8 214.4l-.6 2-21-6.8.6-2z"/><path fill="#fcedd7" d="M18.9 85.9L-16 79.4 7.3 61.7l8.1 11.8z"/><path fill="#7f7b6f" d="M68.5 126L46 97.3l39.7 71.2-.1-17.5z"/><path fill="#000600" d="M30.6 242.3l4.3-13.3 8.5 2.7-4.3 13.3z"/><path fill="#c8c5b7" d="M87 149h47v19H87z"/><ellipse cx="47" cy="186" fill="#4a4c3e" rx="39" ry="2"/><path fill="#7b7566" d="M33 190h17v31H33z"/><path fill="#27312d" d="M66 142h5v18h-5z"/><path fill="#7b8589" d="M68 222.1l-8.9 39.1 5.3-56.5 2.7-14z"/><path fill="#9c8d77" d="M152 139l-13-3-6 23z"/><path fill="#b0b0a6" d="M32.4 84.3l3.3 7.9 30.6 53-38.8-27.8z"/><path fill="#4b524e" d="M23 94h3v32h-3z"/><circle r="1" fill="#979788" transform="matrix(-5.58237 5.96545 -6.60727 -6.18297 8.2 129.5)"/><path fill="#202422" d="M185 175.1l-37.2 29.6 9.7-18.1 27.5 32.2z"/><path fill="#9c988e" d="M16.7 176.9l15-.2-.7-29.1-3.9-49.5z"/><path fill="#13140e" d="M18.5 219.6L-14.9 271l28.5-38.2-21.9-15.7z"/><path fill="#745637" d="M85.1 113l-8.3-11.7-9.6 20.5 7.1-5.1z"/><path fill="#c2b096" d="M-16 57.8l13.3 2.7 35.1 12.4-7.7-9.4z"/><ellipse cx="56" cy="23" fill="#91afd6" rx="119" ry="20"/><circle r="1" fill="#cbdcf0" transform="rotate(-84.8 122.8 -6.3) scale(17.18498 25.75546)"/><ellipse cx="75" cy="210" fill="#716754" rx="4" ry="26"/><path fill="#1c1916" d="M66 163.8l6-6.8 6 5.2-6 6.8z"/><path fill="#6a665f" d="M118.1 230.8l20.4-26.4-14.8 3.2 2.2 32.5z"/><path fill="#d0e4fb" d="M75 116l-9 10 18-3z"/><path fill="#cac3b2" d="M98 111l-8 9-21-32z"/><path fill="#000106" d="M59.6 199.6l-.2 7-9-.2.2-7z"/><path fill="#999a9a" d="M108 227l-24-4v-77z"/><path fill="#293037" d="M125 239l-19-10-8 11z"/><path fill="#4a3a2a" d="M25 76.5l1.9-.5L31 91.5l-1.9.5z"/><path fill="#637387" d="M38 248h81v8H38z"/><circle r="1" fill="#283119" transform="rotate(53 -186.6 111.4) scale(25.88037 6.44963)"/><path fill="#c2c0b3" d="M-16 79.9l27.5 43.8 7.3-55.2 10.4 20.1z"/><path fill="#908b7a" d="M40 187h33v12H40z"/></g></g></svg>