<svg xmlns="http://www.w3.org/2000/svg" viewBox="0 0 1800 1200"><defs/><filter id="a"><feGaussianBlur stdDeviation="12"/></filter><rect width="100%" height="100%" fill="#2a445d"/><g filter="url(#a)"><g fill-opacity=".5" transform="translate(3.5 3.5) scale(7.03125)"><circle r="1" fill="#ffefdd" transform="rotate(72.7 -1.9 80.5) scale(82.62207 217.70051)"/><circle cx="189" cy="119" r="63" fill="#514130"/><circle r="1" fill="#f2fdfe" transform="matrix(13.78603 197.1494 -13.75348 .96174 10.8 69.2)"/><circle r="1" fill="#efebd4" transform="matrix(101.05853 -11.67081 2.518 21.80362 208.3 35.3)"/><circle r="1" fill="#65380f" transform="matrix(1.0342 -29.6156 19.28 .67327 88.3 39)"/><path fill="#002874" d="M238 3.7l-84 22.5-8-30 84-22.4z"/><path fill="#d9b794" d="M94 128h35v25H94z"/><circle r="1" fill="#7d9db2" transform="matrix(-4.11818 30.45874 -15.33378 -2.0732 202.8 101.6)"/><circle r="1" fill="#516eac" transform="matrix(-13.22324 .04758 -.33965 -94.38921 39 87.1)"/><ellipse cx="128" cy="15" fill="#e3e2db" rx="29" ry="18"/><circle r="1" fill="#937c5b" transform="matrix(40.18533 -17.15262 8.27917 19.39652 243.3 150)"/><ellipse cx="74" cy="125" fill="#e4e4eb" rx="20" ry="19"/><path fill="#351f23" d="M140 64h52v25h-52z"/><path fill="#c1894c" d="M55 60l73-7-92 67z"/><path fill="#426db4" d="M22 1h47v47H22z"/><circle r="1" fill="#9e988d" transform="rotate(24.2 -379.5 119.5) scale(53.65824 22.75991)"/><circle r="1" fill="#080000" transform="matrix(12.54538 -2.33602 6.62696 35.58952 183 156.4)"/><path fill="#d2c9b6" d="M163 3l-88 98 43 11z"/><circle r="1" fill="#405c7a" transform="matrix(11.33018 1.59235 -10.2709 73.0812 135.9 128.4)"/><path fill="#2f190c" d="M116 153l-49 18-24-31z"/><path fill="#4b432f" d="M216 59h40v76h-40z"/><path fill="#fb8e86" d="M159.1 71.7l19.2 6.6L160.9 99l16.4 7.1z"/><path fill="#004d80" d="M144 0h67v12h-67z"/><path fill="#e5c800" d="M105.3 48.9l8.3.9 3 34.8-5.7-6.7z"/><circle r="1" fill="#beb496" transform="matrix(18.3137 5.01006 -3.0466 11.1365 245.4 61.5)"/><path fill="#868172" d="M188 129l66-12-118-34z"/><path fill="#365995" d="M24 87l32 34-20 42z"/><path fill="#dc9565" d="M110.4 168.2l-34.8 9.3-2-7.7 34.8-9.3z"/><path fill="#cdd0e8" d="M0 54h64v11H0z"/><path fill="#003b75" d="M88.4 15l1.3-18.9 12 .8-1.4 19z"/><path fill="#003a6f" d="M140 139V83l-17 17z"/><path fill="#051313" d="M178 70h13v30h-13z"/><path fill="#040000" d="M242.6 74.9l2.9 36.4L271 121l-11.4-47.6z"/><path fill="#aeb4b3" d="M241.7 101.2l-10.3 1.7 9.3-18.3 3.9-5z"/><path fill="#634a39" d="M99.4 83.7L76.5 28.5 63.3 51.6l-3.2-.1z"/><path fill="#0e0d08" d="M161.3 185l-14.6-55.1 20.8-26-20.4 7.1z"/><path fill="#397fbd" d="M191 73h26v27h-26z"/><path fill="#9d9184" d="M94 114h23v39H94z"/><path fill="#a5b5c9" d="M29 33h32v12H29z"/><path fill="#3f629b" d="M67.5 17.6l-2.1 21.5L19.5-3.3l54.1 8z"/><circle r="1" fill="#656b73" transform="matrix(-16.50192 -2.99169 4.57955 -25.26047 129.4 149.2)"/><path fill="#21282a" d="M240.1 87.8l-35.9 55.1 28.2-69.3-45.7-5.4z"/><circle r="1" fill="#cbd1d6" transform="matrix(3.1358 -.84172 4.0378 15.0426 79.4 73.6)"/><ellipse cx="235" cy="49" fill="#d6d5c3" rx="90" ry="10"/><ellipse cx="90" cy="60" fill="#94776f" rx="9" ry="30"/><path fill="#95917b" d="M159 113l13-6-19 30z"/><circle r="1" fill="#1b110e" transform="matrix(16.83168 -21.81611 6.45111 4.9772 153.6 163.4)"/><path fill="#7d7f72" d="M10 127l3 58-23-32z"/><path fill="#534c51" d="M96 101l7 16-11 27z"/><path fill="#a87748" d="M48.7 85l17.7 9.3-13.1 24.8-17.7-9.4z"/><path fill="#6c83a8" d="M29 138h24v32H29z"/><circle r="1" fill="#c9c4be" transform="rotate(78.2 44.3 88) scale(57.70106 15.89634)"/><circle r="1" fill="#c0c3c9" transform="matrix(-12.71102 -9.7183 19.93178 -26.06968 76.3 116.2)"/><path fill="#ff4e4d" d="M163 74h13v11h-13z"/><path fill="#c0c1b2" d="M264 66l1-69-57 14z"/><path fill="#ced9df" d="M25.9 153.2l-.9-73L19.3-16-16 117.8z"/><path fill="#acbdc3" d="M174 96l-19 7-3-15z"/><path fill="#171615" d="M175.3 142.7l-20.2 16.2 73.8-26 7.3-10.7z"/><ellipse cx="215" fill="#004874" rx="31" ry="5"/><circle r="1" fill="#323128" transform="matrix(.26556 -.9641 57.42032 15.81619 194.4 97.8)"/><path fill="#dcd5c0" d="M105 112l19-11 2 18z"/><path fill="#1f2b27" d="M153.5 83.5h-13v-19h13z"/><path fill="#292322" d="M54 144h40v21H54z"/><path fill="#6e6d62" d="M147 58h48v9h-48z"/><path fill="#aca396" d="M203.8 117.7l12.5 7.6-11.4-21.1-19.1 2z"/><path fill="#d2dbe8" d="M72 10h8v10h-8z"/><path fill="#e9f0ee" d="M239 82l-5 2 11 5z"/><circle cx="102" cy="62" r="6" fill="#bcced8"/><path fill="#a89e8a" d="M226 136h4v34h-4z"/><path fill="#375d91" d="M68.3 4.1L-9.5-5.1l98.2 17.9-6.4-8.6z"/><path fill="#15191a" d="M236.3 75.1l-14.7 28.8 29.5 11.3-31.8-28.3z"/><path fill="#61431e" d="M68 61.6l4.8-29.4 13.3-12.7-3 36.6z"/><path fill="#626154" d="M218 104l41 61-1-49z"/><circle r="1" fill="#837d6f" transform="matrix(2.3303 -10.95956 4.20217 .8935 168.7 166.3)"/><path fill="#21568a" d="M165 6l-11-22-13 30z"/><path fill="#b8ac91" d="M7 163h45v7H7z"/><path fill="#adb2c3" d="M26 2l29 8-13 2z"/><path fill="#565043" d="M217.7 149.5l-39.5-46.2-23.7 2.4-3.9-2.4z"/><circle r="1" fill="#c4b8a6" transform="matrix(-8.12162 5.06332 -3.72665 -5.97758 104.6 142.8)"/><path fill="#d4d4c6" d="M160 57.1l-6-31.4L210 15l6 31.4z"/><ellipse cx="245" cy="65" fill="#766e5a" rx="54" ry="7"/><path fill="#bcb7b3" d="M156.7 9.7L118 27l-5.8 62.5 42.6-45.1z"/><path fill="#375d9f" d="M30 94h9v70h-9z"/><path fill="#e7e6d9" d="M52 128h13v14H52z"/><path fill="#175a86" d="M244.5 0l-82.9-16-3.1 40.4 41.3-13z"/><path fill="#3a2a1a" d="M92 58l13-5-1-11z"/><path fill="#8a6855" d="M111.2 155.1l-22.4 13-29.6-.2 55.9 17.1z"/><ellipse cx="170" cy="70" fill="#142425" rx="26" ry="3"/><ellipse cx="112" cy="60" fill="#e5c400" rx="3" ry="9"/><path fill="#6c4c3d" d="M108 117l-14-12-1 13z"/><circle cx="93" cy="42" r="9" fill="#b78f82"/><path fill="#634e33" d="M89 12.9l8.7 4.7 9.7 15.3-.2 16.3z"/><path fill="#deeaee" d="M75 80h8l-6-20z"/><circle r="1" fill="#1a1a15" transform="rotate(-153.8 130 11.9) scale(15.66696 3.97687)"/><path fill="#2764a7" d="M215 97V75l-13-3z"/><path fill="#ab7958" d="M84 84.4L55.9 69.6l-6.8 13.9 27 14.8z"/><path fill="#c5d2a3" d="M53.2.1l47.9-6.7 5.5-9.4L85.8 5.3z"/><path fill="#66625b" d="M155.5 117.7L190.4 99l-54.2-34.9 60.5 57.4z"/><path fill="#32302e" d="M53 147l42-7-40 33z"/><path fill="#0f1017" d="M220 121l-5 96h-1l5-96z"/></g></g></svg>