<svg xmlns="http://www.w3.org/2000/svg" viewBox="0 0 1002 1002"><defs/><filter id="a"><feGaussianBlur stdDeviation="12"/></filter><rect width="100%" height="100%" fill="#2b364f"/><g filter="url(#a)"><g fill-opacity=".5" transform="translate(2 2) scale(3.91406)"><circle r="1" fill="#d3d7cd" transform="matrix(244.37226 -72.85053 27.63899 92.71314 112.6 78.2)"/><circle r="1" fill="#66665e" transform="matrix(25.39077 131.85238 -167.44487 32.2448 169.2 233)"/><circle r="1" fill="#efebdd" transform="matrix(79.30502 -55.37767 15.86878 22.7253 35 107)"/><path fill="#000405" d="M6-16L-5 57l37 11z"/><circle cx="255" cy="210" r="49" fill="#86939f"/><circle r="1" fill="#fafcf4" transform="matrix(-6.05179 17.47652 -30.80003 -10.66547 143.5 6.3)"/><ellipse cx="104" cy="255" fill="#b6b9b5" rx="131" ry="15"/><ellipse cx="18" cy="171" fill="#faf3df" rx="13" ry="31"/><ellipse cx="164" cy="177" fill="#38393d" rx="55" ry="65"/><path fill="#646e7e" d="M252 195l14-90L72 75z"/><ellipse cx="54" cy="228" fill="#231e18" rx="156" ry="14"/><circle cx="62" cy="192" r="34" fill="#3c3c3c"/><ellipse cx="2" cy="204" fill="#7b786d" rx="19" ry="30"/><path fill="#345385" d="M97 83h51v66H97z"/><path fill="#7e8992" d="M201 271l70-137-28-73z"/><path fill="#0d0d11" d="M196.2 6.5l-16.3 4.9-17-12.7L248.6-16z"/><circle r="1" fill="#adb6bd" transform="matrix(14.34135 -4.38459 9.42181 30.81735 134.1 30.9)"/><path fill="#d3d7d3" d="M-10 96l115 9-39-43z"/><path fill="#8493a2" d="M21 0h100v45H21z"/><circle r="1" fill="#653d28" transform="matrix(8.35052 8.30561 -6.674 6.71008 121.8 61.3)"/><circle r="1" fill="#eeecdf" transform="matrix(-12.22127 -21.77805 16.10183 -9.03592 .1 145.7)"/><ellipse cx="53" cy="132" fill="#7a828a" rx="38" ry="18"/><circle r="1" fill="#5c6269" transform="rotate(-97 138.3 29) scale(18.65305 77.07475)"/><circle r="1" fill="#8897a8" transform="matrix(-9.77702 -26.57317 65.00488 -23.91714 207.4 32)"/><path fill="#495b71" d="M11 85l62-29-46 4z"/><path fill="#37322c" d="M104 191h109v33H104z"/><ellipse cx="86" cy="52" fill="#8a6c5e" rx="4" ry="34"/><path fill="#373745" d="M81 78l36 30-4-25z"/><path fill="#363a3c" d="M-3 52.2l8-76.5 20 2-8 76.6z"/><path fill="#a1a4a1" d="M137.6 115.2l-22 1.5-1.2-18 22-1.4z"/><path fill="#12203b" d="M138 111l20 4-14-27z"/><circle r="1" fill="#b3b6b2" transform="matrix(33.38563 -17.7257 7.5827 14.28169 62 108.6)"/><path fill="#dde1dd" d="M89 69l13-25 17 36z"/><ellipse cx="171" cy="243" fill="#798593" rx="90" ry="3"/><path fill="#f9f8ef" d="M181 12l-43-28 23 35z"/><circle r="1" fill="#545451" transform="rotate(-146.9 124.5 42.5) scale(18.43081 32.97482)"/><circle r="1" fill="#ccd8ea" transform="matrix(3.66473 -.25626 .38463 5.5004 133.2 85.4)"/><path fill="#6c7e97" d="M96.7 98.6l23.6 18.1-8.7 70.7-29.3-69.6z"/><path fill="#fdebd0" d="M138 45l-11-1 16 22z"/><path fill="#343738" d="M-15 271l63-54-2-45z"/><circle r="1" fill="#9eb5d1" transform="rotate(150.4 62.8 66.4) scale(3.13032 16.11265)"/><path fill="#745446" d="M122.4 46.3l15 10.1-7.2 34.1-10.9-6.2z"/><path fill="#735f59" d="M128 165l-2 68 13-31z"/><ellipse cx="51" cy="232" fill="#18191b" rx="42" ry="8"/><path fill="#cfcec3" d="M15 132l7.5 73.6 3.6-2.7 4.6-26.6z"/><path fill="#2a3b55" d="M138.5 120.2l-10.7-5.4-4.7 42.1 25.9-15.3z"/><path fill="#8f9494" d="M47.9 239.8l115.8 5.5 65 25.7L9.4 243.6z"/><ellipse cx="222" cy="250" fill="#626b77" rx="41" ry="11"/><path fill="#8a8886" d="M96 205l23-54-17 4z"/><path fill="#2b2a2a" d="M73.6 221l140.3 17.2-86.4 4.6-5.6 1.1z"/><circle r="1" fill="#717477" transform="matrix(6.88229 15.17192 -44.85766 20.34834 206 103.8)"/><path fill="#748497" d="M163 74l10-55-42 23z"/><path fill="#ced0cb" d="M87 86L77 57l-93 66z"/><ellipse cx="36" cy="24" fill="#858c90" rx="16" ry="39"/><circle cx="57" cy="24" r="38" fill="#808c97"/><path fill="#666b74" d="M31 132h70v36H31z"/><path fill="#dde3e0" d="M106 44L89 63l28-16z"/><path fill="#775445" d="M104.6 190.4l-3.3 37.9-8-.7 3.4-37.9z"/><path fill="#313232" d="M206 235l-73-10 86-46z"/><path fill="#a58170" d="M119.9 75l-10.7-12 9-8 10.6 12z"/><circle r="1" fill="#806653" transform="matrix(-2.22212 .57468 -4.11886 -15.92644 89 73.7)"/><path fill="#2f4e7f" d="M103 88h43v13h-43z"/><ellipse cx="107" cy="124" fill="#3964a1" rx="6" ry="25"/><circle r="1" fill="#79838d" transform="matrix(11.57813 3.45732 -13.11608 43.92407 243 128)"/><ellipse cy="18" fill="#383d42" rx="20" ry="43"/><circle r="1" fill="#6a737e" transform="matrix(23.76306 5.79677 -20.71642 84.92414 233 232.4)"/><ellipse cx="115" cy="255" fill="#9b9c96" rx="81" ry="7"/><ellipse cx="104" cy="75" fill="#caccc6" rx="13" ry="7"/><path fill="#9ea7ae" d="M123.7 49l-49.5-7.3 127.2-35-31.1 14.1z"/><path fill="#373b3c" d="M115.6 50.7l17.2 12.1 1.3-2.2-11.6-13.8z"/><path fill="#7f8589" d="M74 133l-35 23-32-30z"/><circle cx="10" cy="73" r="12" fill="#6e8bb1"/><path fill="#6f8398" d="M102 47L50-7l62-3z"/><path fill="#676764" d="M24 209l-40-62v114z"/><path fill="#23375b" d="M109.8 79.9l13.5 10.3-25.8 8.9v-1.7z"/><path fill="#31373c" d="M7.8 36.8l27.6 38-3.2 2.4-27.6-38z"/><path fill="#adb4ba" d="M114.2 128.3l6 .4-.4 9-6-.4z"/><path fill="#4c3936" d="M147 130l11-26-2 26z"/><path fill="#414141" d="M101 166l-11 53-106 17z"/><path fill="#d9d9d0" d="M-14 102l37 82 8-28z"/><path fill="#313034" d="M81 229h21v14H81z"/><path fill="#cbd1cb" d="M230.2-4.3l-56 21.5-.4-1 56-21.4z"/><path fill="#53565a" d="M31 168h66v26H31z"/><path fill="#626c75" d="M151 183l-21 3-3-39z"/><path fill="#565c67" d="M158.9 111.9l-10.7 4.3-28.9-11.8-1.1 6.6z"/><ellipse cx="252" cy="61" fill="#67747e" rx="5" ry="28"/><path fill="#9fa29d" d="M-1.5 107.7l7 18.8 46.7 14.2-45.9-27.9z"/><path fill="#a4aec3" d="M130.7 83.3l-7.1 5.8 18.2-6.2 13.1 8.8z"/><path fill="#95726a" d="M76.9 53.4L73.6 42 85 38.6 88.4 50z"/><path fill="#6d85a7" d="M118 92l22 3-29 5z"/><path fill="#3f4751" d="M125 191l-1-32-19 19z"/><path fill="#92aecc" d="M137.6 122.9l10-12.4.8.6-10 12.4z"/><path fill="#c9ccc7" d="M56 69l-18 45-54-17z"/><path fill="#a7b1ba" d="M117 97l4 17-7 3z"/><path fill="#626463" d="M-1 241.3l24.9-33-39.9 44 76.5-5.4z"/><path fill="#c5d8ed" d="M151.6 91.2l3.5 10.4 1.2 7.4-9.4-23.1z"/><path fill="#4e5156" d="M183 244h22v5h-22z"/><path fill="#474848" d="M127 190l95-40-7 47z"/><path fill="#7a614e" d="M104.8 87.1l-4.8 6.4L83.2 81l4.8-6.4z"/><path fill="#62676d" d="M202.1 144.7l34.2-36.7-76.4 11.6-17.6 29.4z"/></g></g></svg>