<svg xmlns="http://www.w3.org/2000/svg" viewBox="0 0 1800 1200"><defs/><filter id="a"><feGaussianBlur stdDeviation="12"/></filter><rect width="100%" height="100%" fill="#55453f"/><g filter="url(#a)"><g fill-opacity=".5" transform="translate(3.5 3.5) scale(7.03125)"><circle r="1" fill="#bccfcd" transform="matrix(154.97593 63.56026 -59.4987 145.0728 130 76.8)"/><path fill="azure" d="M-7 183L61-16h-76z"/><circle r="1" fill="#0c354b" transform="matrix(17.08084 7.68796 -36.80037 81.76182 68.2 83)"/><circle r="1" fill="#5b1400" transform="matrix(.80767 -18.39979 84.03318 3.68871 109 164.5)"/><path fill="#ecffff" d="M182.7 47.3l-3.1-45 109.7-7.6 3.1 45z"/><circle r="1" fill="#384141" transform="rotate(83.8 35 118.7) scale(24.24302 125.17538)"/><circle r="1" fill="#f0c6b3" transform="matrix(-44.15542 -91.80668 21.76975 -10.4704 212.4 164.3)"/><path fill="#fff" d="M0 0h86v17H0zm110 0h48v15h-48z"/><path fill="#160f02" d="M76 31.8L42 48.4l-8-16.2 34.2-16.6z"/><path fill="#e5e0de" d="M94 134l-95-23-2-31z"/><path fill="#eacebb" d="M70 79l-1-35-46 12z"/><path fill="#3d3b34" d="M116 42.2l23.2 88.5 26.7-13.8-17.8-69.6z"/><circle cx="222" cy="101" r="23" fill="#3c5156"/><path fill="#e0eff9" d="M0 99h29v39H0z"/><ellipse cx="175" cy="36" fill="#bacec5" rx="78" ry="11"/><path fill="#ffd3b3" d="M189 141l-42 12-64-28z"/><ellipse cx="253" cy="137" fill="#b6d5e9" rx="9" ry="72"/><path fill="#0f1e1c" d="M160 0h18v22h-18z"/><circle r="1" fill="#004e93" transform="rotate(-43 120.4 -7.8) scale(19.03808 9.78374)"/><ellipse cx="228" cy="101" fill="#edfdff" rx="2" ry="50"/><circle r="1" fill="#ebfcff" transform="matrix(-.54177 7.92932 -57.40807 -3.92238 234.9 14)"/><path fill="#003464" d="M97 94.9l-42.1 18.7L43 87.1l42-18.7z"/><path fill="#ffd0bd" d="M101 78h20v13h-20z"/><path fill="#004356" d="M80.1 47.2L88-8.1l21.1-7.9.9 48.8z"/><path fill="#4d2a10" d="M87 151h97v19H87z"/><path fill="#c2b5af" d="M91.7 158.1l-30.9-18.5 15.5-25.7 30.9 18.5z"/><path fill="#273039" d="M232.9 53.7L247.8 185l-14.5-35.4 14.9-96.2z"/><circle cx="147" cy="29" r="9" fill="#273b29"/><circle r="1" fill="#a97242" transform="matrix(93.69407 21.50232 -3.99363 17.4018 33.6 169)"/><path fill="#be9f88" d="M144 84l60 15 6-29z"/><path fill="#003a79" d="M64 147l-36-8 5-34z"/><circle r="1" fill="#464c38" transform="matrix(-.04362 .99905 -124.39742 -5.4313 220 22.4)"/><ellipse cx="59" cy="3" fill="#efffff" rx="28" ry="14"/><ellipse cx="177" cy="60" fill="#464840" rx="78" ry="14"/><ellipse cx="40" cy="20" fill="#5a7162" rx="42" ry="3"/><path fill="#e0ffff" d="M110 0h33v17h-33z"/><path fill="#eabc9a" d="M39.1 115.6l-7.3-24.4 12.3.4 7.6 35.4z"/><circle r="1" fill="#8e9899" transform="matrix(-6.18915 -3.1689 10.84247 -21.1763 97.7 52.2)"/><path fill="#815940" d="M160 133l-48-22-32 13z"/><path fill="#d8e9f3" d="M87 23.8L-6.5-16 68.2-1.3l10.4 39.6z"/><path fill="#1e2815" d="M225 108V95l-31 16z"/><path fill="#c4b7a8" d="M123 145l-13-45 23-3z"/><path fill="#474640" d="M154.2 36.6l-19.5 85.5 51.2-3-32.4-10.9z"/><path fill="#3e362c" d="M84 118l4-48 21-15z"/><path fill="#bbc5be" d="M156 23h62v25h-62z"/><ellipse cx="47" cy="150" fill="#613214" rx="18" ry="9"/><path fill="#d7beae" d="M159 121h57v22h-57z"/><path fill="#d4cac4" d="M248.7 185l-30.4-57.4-20.9 32.1 26.9 21.1z"/><path fill="#90927b" d="M194 2l75 7-37-25z"/><path fill="#a7c0d8" d="M222 95l-3-11-23 17z"/><path fill="#9a8569" d="M171.4 62l11.5 20-24.3 14-11.5-20z"/><ellipse cx="121" cy="47" fill="#4c585e" rx="48" ry="5"/><path fill="#8f7762" d="M198.8 109.3l12.7.5 17.7-1.1-82.1 30.3z"/><path fill="#04456a" d="M48.9 65.8l-20.7 4.3 35.6 50L74 105.4z"/><path fill="#d6e5de" d="M126 22h14v16h-14z"/><path fill="#433425" d="M40.3 25.3l36.5 7.3-2.1 22.5-19.3-34.5z"/><path fill="#896656" d="M193.2 179.2l17.4 5.8-34.7-37.5 18-2.2z"/><path fill="#0f1b28" d="M222 48h3v83h-3z"/><circle cx="9" cy="118" r="22" fill="#cbd5d7"/><circle r="1" fill="#03375c" transform="matrix(-1.70091 2.38209 -5.17887 -3.69793 25.6 93)"/><ellipse cx="11" cy="40" fill="#849893" rx="35" ry="5"/><path fill="#ceb1a5" d="M159.7 110.9l36.7-47.2.9 41.9-6 9.2z"/><path fill="#acc3bf" d="M35.8 32.9L52 69.6-2 23.7 52.2 19z"/><path fill="#253d53" d="M59.5 131.6l1.1 19.7-25.9-34.6L83 138.2z"/><path fill="#c3987b" d="M60 78l21-43-31 33z"/><path fill="#be9a7e" d="M116.3 104.2l-50 30.6 36.8-35.2 20.3-31.8z"/><ellipse cx="146" fill="#7b8c77" rx="5" ry="33"/><path fill="#ccc9c9" d="M97.6 122.4l8.2 8.5-14.9 11.8-17.3-.6z"/><ellipse cx="102" cy="94" fill="#240900" rx="4" ry="6"/><path fill="#3d4d3b" d="M229 24h27v2h-27z"/><path fill="#baccc5" d="M122.3 41.9l-29.5-1.7 13.7-9.3 53.3 12.5z"/><path fill="#c7d8dd" d="M49 57l-65-19L5 84z"/><path fill="#e3f1ff" d="M186 18l-7-18 69 14z"/><path fill="#bb9f7e" d="M75 101h10v37H75z"/><path fill="#d8efff" d="M148.7-12.6l3.2 33.9 9.8-22.2L240.6-16z"/><path fill="#a5b8bf" d="M244 68h12v72h-12z"/><path fill="#665554" d="M126 147l-29-11-11 22z"/><path fill="#8ba3a3" d="M271 24.9l-27.7 59.4L271 65.2l-29.1-12.9z"/><path fill="#0e0a05" d="M160.1 106l-13.5-5.1-8.7 6.2 19.8.6z"/><path fill="#836a57" d="M152.3 137.4l-63.7-23.1-18 24.7 61.5-29.3z"/><path fill="#637661" d="M34.4-1.6L-.3 2.6l-.1-1 34.7-4.2z"/><path fill="#174c5a" d="M81.3 28.3l14.6 28.5 6.5-72.8-12 8.4z"/><path fill="#d1b49e" d="M35.8 115.8l19.9 11.5 71 15.5-58-23.1z"/><path fill="#d5eadd" d="M111 20h43v2h-43z"/><path fill="#e5fdff" d="M228.3 54h1l-1.6 18h-1z"/><path fill="#05181c" d="M123 21l2 7-8 1z"/><path fill="#8fa4a5" d="M99 42h157v4H99z"/><path fill="#1f170b" d="M102 58h17v10h-17z"/><path fill="#b5b4b8" d="M58.5 132.2l19.4 4 48.8-13.1-58.9 30.5z"/><ellipse cx="138" cy="71" fill="#515653" rx="18" ry="28"/><path fill="#e8f6ff" d="M67-16L40 15l-56 4z"/><path fill="#1c6a9f" d="M23.5 148.2l19.9-10.9 1.2-13.7-9.5-9.9z"/><path fill="#6c5241" d="M36 38l7 12 31-14z"/><path fill="#5b6257" d="M169-13l-4 38-10-8z"/><circle r="1" fill="#b6d0dd" transform="matrix(5.88165 -10.69554 2.3558 1.2955 120.5 104.8)"/><path fill="#3d4334" d="M212.5 111l-9.8-3.5 18.9 3.1 7.6 29.1z"/><path fill="#444a38" d="M17 18h33v2H17z"/><path fill="#71b9c7" d="M131 0h7v15h-7z"/><circle cx="120" cy="7" r="9" fill="#fffefd"/></g></g></svg>