<svg xmlns="http://www.w3.org/2000/svg" viewBox="0 0 1800 1800"><defs/><filter id="a"><feGaussianBlur stdDeviation="12"/></filter><rect width="100%" height="100%" fill="#604139"/><g filter="url(#a)"><g fill-opacity=".5" transform="translate(3.5 3.5) scale(7.03125)"><circle r="1" fill="#fff699" transform="matrix(-152.84237 17.41419 -5.58613 -49.0288 185.8 158.3)"/><circle r="1" transform="matrix(-3.73736 34.92525 -234.6283 -25.10766 93.1 244)"/><circle r="1" fill="#ab978c" transform="matrix(-105.39264 23.59838 -6.24599 -27.8952 191.8 5.8)"/><path fill="#ffc87a" d="M58 156l106 64 107-81z"/><circle r="1" fill="#ac7540" transform="rotate(-167.3 40.8 90.2) scale(124.60106 15.93315)"/><path fill="#fff2e1" d="M196.5 109.6l59.5.5 8.9 23.7-53.3-3.4z"/><ellipse cx="116" cy="75" fill="#c16938" rx="82" ry="11"/><circle r="1" fill="#e9dccc" transform="matrix(.46062 -7.46847 87.10963 5.37255 202 0)"/><ellipse cx="73" cy="133" fill="#7d4f3d" rx="50" ry="24"/><path fill="#32030a" d="M173 131h27v13h-27z"/><path d="M-.8 206.6l91.6-8 2 22.8-91.6 8z"/><circle r="1" fill="#685b58" transform="rotate(-88.1 63.3 -37) scale(19.40711 200.98256)"/><ellipse cx="227" cy="208" fill="#91714d" rx="143" ry="10"/><circle r="1" fill="#f1c286" transform="rotate(3 -3061 4292.3) scale(91.79524 24.80619)"/><path fill="#9b6442" d="M176 79h80v29h-80z"/><path fill="#2f2a22" d="M121.6 249.3L239.1 271l31.9-54.7-110.5 1.2z"/><path fill="#280d18" d="M208 141l22-10 20 8z"/><path fill="#795041" d="M141 12h53v108h-53z"/><path fill="#e9c48e" d="M24 160h86v16H24z"/><circle r="1" fill="#32302f" transform="matrix(-63.24705 -6.72376 1.8389 -17.29755 34.1 99.9)"/><path fill="#8dabb7" d="M32.6 19.2L-.7 21.4-16 5.9l34.3 5z"/><circle r="1" fill="#fdaf4c" transform="matrix(.12283 -12.76103 52.1199 .5017 144 188.9)"/><path fill="#c39f57" d="M-16 179l33 24 21-20z"/><path fill="#b06c44" d="M0 139h138v14H0z"/><path fill="#ffe9c4" d="M114 133h51v6h-51z"/><path fill="#59322a" d="M0 177h109v5H0z"/><path fill="#9b6940" d="M186 190h70v15h-70z"/><path fill="#795e4f" d="M95.7 213.9l32.9 5.6L133 199l-58.4.3z"/><path fill="#deb188" d="M173 104h42v9h-42z"/><path fill="#604233" d="M0 149h53v17H0z"/><circle r="1" fill="#ffab4b" transform="matrix(34.7472 .55319 -.04768 2.99483 156 209.2)"/><path fill="#ffe9cc" d="M165.9 127.7l-38-1.4.2-6 38 1.4z"/><ellipse cx="215" cy="20" fill="#935a41" rx="41" ry="15"/><circle r="1" fill="#0d110e" transform="matrix(65.20476 -4.30683 2.7085 41.0062 48.1 243.2)"/><path fill="#582d20" d="M159 143l29-19 8 20z"/><path fill="#949799" d="M85 24l85-23-18-17z"/><ellipse cx="234" cy="152" fill="#d3c9a8" rx="53" ry="10"/><path fill="#5c4d45" d="M-16 143l55-41 90 27z"/><path d="M-.2 194.6L-16 230.2l76.1-33.5 1.7 29.3z"/><circle r="1" fill="#4d5056" transform="matrix(-60.30552 26.84975 -7.90739 -17.76028 65 13)"/><path fill="#666052" d="M181 201h75v17h-75z"/><path fill="#d4773a" d="M63 75h65v7H63z"/><circle r="1" fill="#76787b" transform="matrix(-21.96335 2.71914 -.8052 -6.50385 56.5 19)"/><ellipse cx="212" cy="223" fill="#26201b" rx="246" ry="6"/><circle r="1" fill="#4d3d36" transform="rotate(-176.2 98 44.6) scale(47.56053 6.13988)"/><path fill="#ed9c59" d="M174 156l25-15-75 4z"/><path fill="#764c3c" d="M-5 41l-11 37 142-11z"/><ellipse cx="109" cy="186" fill="#eeb660" rx="67" ry="4"/><path fill="#a68d72" d="M26 115l-25 3 40 6z"/><path fill="#e2ad5e" d="M189.8 197l81.2-5.3-112.2-24.2 76.2 38.3z"/><path fill="#cc9a76" d="M222 94.8l-33.5 39.1 34.9 13.5-16.1-34.6z"/><path fill="#735546" d="M115 99h64v19h-64z"/><path fill="#d6c8b9" d="M279.6 2.2l-3.3 15.6-94-20 3.4-15.6z"/><circle r="1" fill="#988c88" transform="rotate(-164.8 73.3 3.7) scale(13.31832 5.43954)"/><path fill="#e1d7be" d="M260.5 156.7l-30.3-41 27.5-4.2 8.6 43z"/><ellipse cx="180" cy="204" fill="#6e4e3a" rx="94" ry="2"/><path fill="#98481b" d="M135.8 151.8l-.1 4.8-16.9-1 2.6-7z"/><path fill="#313335" d="M14 187h29v4H14z"/><ellipse cx="140" cy="160" fill="#edce9c" rx="96" ry="4"/><path fill="#b2622e" d="M207.1 141.8l-38.7 5.9-44.8-4.5 48.9-2.1z"/><path fill="#413b3c" d="M132.5 14.5l-86.8-3.2-1.2 9.3L-16-16z"/><circle r="1" fill="#f0b368" transform="rotate(79.9 7.2 253) scale(3.93398 7.05217)"/><ellipse cx="148" cy="148" fill="#fdddab" rx="15" ry="3"/><path fill="#ffd582" d="M185 191l-24 7 22 5z"/><path fill="#815d41" d="M223.6 209.5l-36.3-17.2 10.9-3.1 13.9 4z"/><circle r="1" fill="#a25833" transform="matrix(-.80152 8.03015 -31.91383 -3.18542 232.4 87)"/><path fill="#875b45" d="M41.6 131.2l91.2 6.8-22.9 4.7-51.7-1.3z"/><ellipse cx="73" cy="143" fill="#e39859" rx="33" ry="2"/><circle r="1" fill="#d07931" transform="matrix(20.9584 -1.68627 .2867 3.56345 107 179.7)"/><circle r="1" fill="#6c4e45" transform="matrix(-22.55953 .92903 -1.09426 -26.5718 119.1 47)"/><path fill="#876d57" d="M94 209h43v8H94z"/><path fill="#534d48" d="M11.6 168.1l26.1-.2-48.8 14.3-4.9-54.7z"/><circle r="1" fill="#ffe9c6" transform="matrix(.02953 2.3883 -10.172 .12579 153.8 138.9)"/><path fill="#79534b" d="M172 121l6-11 30 7z"/><circle r="1" fill="#51372b" transform="matrix(-58.3568 -.10185 .0144 -8.25048 241.7 72.4)"/><path fill="#98794a" d="M37.2 203.3L27.5 183l43.1 21.6-1.3-19.1z"/><ellipse cx="237" cy="121" fill="#f5ebd0" rx="36" ry="4"/><path fill="#9b795f" d="M114.8 117.2l27.7-4.3-26.5 11.3-29.7-2.3z"/><path d="M104 220l-91-4 62-15z"/><path fill="#333a3d" d="M243 197l-8-3 3 18z"/><circle r="1" fill="#d4bf9a" transform="matrix(28.02843 -1.041 .12784 3.44191 223.3 128.6)"/><circle r="1" fill="#382b23" transform="rotate(100.6 3.9 210.6) scale(24.69231 86.06492)"/><path fill="#9f7765" d="M155 4h64v6h-64z"/><path fill="#ffbd58" d="M138.6 201.7l19.3 11.4 24.8-4.6-25.9-1.4z"/><ellipse cx="229" cy="138" fill="#62493a" rx="16" ry="6"/><ellipse cx="43" cy="173" fill="#e7c886" rx="32" ry="2"/><path fill="#a06033" d="M223 164h33v2h-33z"/><circle r="1" fill="#fcbe7d" transform="matrix(.02088 -.99978 36.76448 .76798 191.9 198.4)"/><path fill="#8f5a42" d="M39.6 64.9l101.1 24.4-73.4-4.4L-16 72.5z"/><path fill="#9b6443" d="M7.2 166.4l59.9-21.5 14.7 5.6-63.7 19.4z"/><path fill="#6a493d" d="M158 12l90 31-55 28z"/><path fill="#ca844a" d="M97.6 142.1l23.8 13.3-31.8.6-53.6 7z"/><path fill="#353232" d="M200 136l-22-3-19 10z"/><path d="M15.6 217.4l96 1.9-81.9-14.5 5.6-16.3z"/><ellipse cx="32" cy="179" fill="#564a43" rx="21" ry="4"/><ellipse cx="84" cy="238" fill="#26201b" rx="53" ry="20"/><path fill="#fad7af" d="M151 132h24v3h-24z"/><path fill="#e5ac61" d="M7 183h107v3H7z"/><path fill="#b0866d" d="M227.2 8.6l.2-5 30.5 8.2 13.1 18z"/><path fill="#7a5f49" d="M104.8 197.2l42.7 22.2-49.1-6.1-32.8-15.4z"/></g></g></svg>