<svg xmlns="http://www.w3.org/2000/svg" viewBox="0 0 1800 1200"><defs/><filter id="a"><feGaussianBlur stdDeviation="12"/></filter><rect width="100%" height="100%" fill="#2c3c52"/><g filter="url(#a)"><g fill-opacity=".5" transform="translate(3.5 3.5) scale(7.03125)"><circle r="1" fill="#dedbce" transform="matrix(-180.08443 19.8815 -8.8514 -80.17496 113 64.2)"/><ellipse cx="228" cy="83" fill="#333c4c" rx="106" ry="42"/><circle r="1" fill="#cdd2ce" transform="matrix(79.81717 -47.19033 19.7778 33.45193 67.5 79.5)"/><circle r="1" fill="#caad7c" transform="rotate(-178.9 73.5 64.4) scale(142.83218 12.7985)"/><circle r="1" fill="#1b2f4c" transform="rotate(-63.4 30.5 -19) scale(10.28301 35.53504)"/><ellipse cx="52" cy="161" fill="#3c3324" rx="255" ry="19"/><path fill="#becfe1" d="M213 7l-25 57-40-33z"/><circle r="1" fill="#2f4569" transform="matrix(12.15146 -7.16652 24.62213 41.74896 239 29)"/><ellipse cx="73" cy="87" fill="#ced5d3" rx="31" ry="38"/><circle r="1" fill="#17243a" transform="rotate(-7.6 867.3 -1717.8) scale(41.67152 13.11446)"/><path fill="#d7d3c5" d="M161 99l66-17-31-5z"/><path fill="#d3dce3" d="M236.3 82.4l34.7.4-13.4-25.9-22.1 21.7z"/><path fill="#6b6b69" d="M106 79l-8 106 57-147z"/><circle cx="13" cy="117" r="27" fill="#8f9081"/><path fill="#fbe7bf" d="M124.2 125.5l-12.3-10 40.8.7 19.6 20.3z"/><path fill="#d1d8df" d="M46.7 9.2l28.3-6 13.1 11 23.1 21.3z"/><circle r="1" fill="#b3bfcd" transform="rotate(177 13.6 24.5) scale(29.39424 14.58539)"/><circle r="1" fill="#3c3e41" transform="rotate(-154.3 87.5 35) scale(26.72532 12.6656)"/><ellipse cx="212" cy="162" fill="#15191b" rx="62" ry="20"/><path fill="#5b5e60" d="M71 171l-87-13 126-16z"/><path fill="#354c6d" d="M139 8h45v15h-45z"/><path fill="#64778e" d="M82 48l68 5L19-3z"/><path fill="#cacecf" d="M193 19.7L82.6 38.1l130.9-5.9 38-5.9z"/><path fill="#35465f" d="M229.3 85.7l-45.4-46.5 19.6-3.4 57.4 7.6z"/><path fill="#5e6265" d="M36.9 114.3l30.2-7.7L-16 91.8l20.6 2.9z"/><path fill="#cacfd0" d="M91.4 47l5.9 28.6 56.1-13.1-63.8-16z"/><path fill="#30435b" d="M133 49h51v8h-51z"/><path fill="#535553" d="M71 122h45v8H71z"/><path fill="#dec9a5" d="M195.4 130.3l-13.9-22.6-13.1 23.8 72.2-8.2z"/><circle r="1" fill="#4c79ab" transform="matrix(1.72167 4.48074 -25.74053 9.89046 170.6 40)"/><path fill="#2f3d51" d="M148 45.7l41.2 20.4 45.7-6.1-44.6 25.3z"/><path fill="#dcd9c3" d="M15 113h84v9H15z"/><path fill="#263854" d="M178.9 4.5l33.5-17.8 4.7 8.8-33.5 17.8z"/><path fill="#d0d4d8" d="M150.6 5.4l-38.2 12.1-1.4-4.4 11.7-7.4z"/><path fill="#537cac" d="M12 63h61v6H12z"/><circle cx="190" cy="52" r="9" fill="#c1c5c4"/><circle r="1" fill="#3a495a" transform="matrix(32.66322 8.38526 -.48353 1.88348 143 73)"/><path fill="#4e4f51" d="M200.2 131.4l-36.4 2 34.8 10.2 66.7-18z"/><path fill="#dbdcd2" d="M31 87h76v15H31z"/><path fill="#eaebe6" d="M116 29h57v8h-57z"/><path fill="#b8b7ae" d="M97 83h42v5H97z"/><path fill="#d0a96f" d="M184 141l-39-13-25 14z"/><path fill="#565654" d="M94 102h112v12H94z"/><ellipse cx="19" fill="#415267" rx="25" ry="19"/><ellipse cx="47" cy="136" fill="#a68f6d" rx="108" ry="7"/><path fill="#3a516f" d="M204-16l55 36-19 10z"/><ellipse cx="67" cy="145" fill="#38393b" rx="148" ry="3"/><path fill="#2b496d" d="M81 25L67 14 32 31z"/><path fill="#c5c1b3" d="M177.1 87.6l-7 11.1 12.8-1.3 23.6-13z"/><path fill="#a1afbb" d="M67 85l55-50-75 31z"/><path fill="#b9bfc1" d="M102 10.5l1.4 8.9 42.2 49.3-11.4 1.2z"/><path fill="#a2a9af" d="M41 7h20v14H41z"/><path fill="#d2d6d6" d="M202.8 22.2l22.1 14.1-44.4-12.2 8.8-13.4z"/><path fill="#62605a" d="M101.7 131.4l61.9 4.5L32.2 121l21.2 5.7z"/><path fill="#627183" d="M171 28l-41-6 52-21z"/><path fill="#e1dac4" d="M100.7 108.6l-27.9-8.3 18.3 27.5.3-1.4z"/><path fill="#454d57" d="M107.3 83.8L231 110.2l-95.2-1.9-35.9-33.1z"/><path fill="#969ea9" d="M190 53h37v4h-37z"/><path fill="#686967" d="M48 158h67v7H48z"/><path fill="#455f7d" d="M18.3 76.5L7.7 59.4l16.8 4.3L.3 72.8z"/><path fill="#a29b8d" d="M203.7 116.1l-3.3-4.2 56.6 15.9-45.1-1.5z"/><path fill="#b3b8b7" d="M181 84l-18-13 13 1z"/><path fill="#acb2bc" d="M252 36l-15 8-5-4z"/><path fill="#cfd5d8" d="M177 0l-10 8-16-24z"/><path fill="#ece0c4" d="M117.4 118.2l33.2.7 5.9 2.6-5.7 13.5z"/><path fill="#9ba1aa" d="M262 28l-33-11-4 9z"/><circle r="1" fill="#324b6d" transform="matrix(-31.98632 22.5981 -2.44215 -3.45672 245.1 26)"/><ellipse cx="144" cy="152" fill="#3c3d3e" rx="57" ry="10"/><path fill="#bec3c6" d="M108.8 3.6L58.3 14.9l97.9 18.7-69.4-8.7z"/><circle r="1" fill="#d7dbda" transform="matrix(2.981 -3.07156 9.27423 9.00081 56.1 65)"/><path fill="#8ea2b7" d="M160.8 56.7l59.1-43.2-28.2 26.3-30.7 8.3z"/><ellipse cx="112" cy="100" fill="#c3bead" rx="23" ry="2"/><path fill="#aca595" d="M130.8 108.3l1.7.9-31.4 1 29.6-7.1z"/><path fill="#587497" d="M51 54l-8-10-15 4z"/><path fill="#e3e4dd" d="M88 72l4 22 17-53z"/><path fill="#244a7e" d="M9 34l1 8-26-7z"/><path fill="#3b71b1" d="M151.5 46l-11.7-7.7 2.7-4.2 11.7 7.6z"/><path fill="#596473" d="M138.2 44.2l3.7 1.4-16 44.2-3.8-1.4z"/><path fill="#5b6b82" d="M40.8 6l155.6-22L79.7 11.4 87.4-16z"/><path fill="#efdcb7" d="M172 122h27v6h-27z"/><path fill="#d1d3d5" d="M211 29l4-13-8-11z"/><path fill="#8d9baa" d="M18.1-5.1l8.7-7.3L-6-16l39.3 27.7z"/><path fill="#b2bdd1" d="M271 13.1L266.6 4l-27.5 3 11.7 7.6z"/><path fill="#bfc3c4" d="M81.6 33.8L74.2 49l-56-17.7 1.7 19.2z"/><path fill="#424d5d" d="M228-16l-12 44 21-14z"/><path fill="#313e4d" d="M23.2 15.3L70.6 28l-1.8 6.7L21.4 22z"/><path fill="#6e8097" d="M98.7 36.7l13.6 4.5-1.4-25.5 23.9-.9z"/><path fill="#7599bb" d="M78 68L63 58l11 35z"/><path fill="#a6aeb5" d="M189.5 56.2l19-32.4L177 62.1l21.5 9.8z"/><circle r="1" fill="#253040" transform="matrix(.27071 -12.00538 29.25611 .6597 249 110)"/><path fill="#a1a6a6" d="M79.1 80l45.1-9.7-4.5 19.8 27.9-2.4z"/><ellipse cx="136" cy="76" fill="#3c4755" rx="29" ry="2"/><path fill="#15181c" d="M224 143h32v24h-32z"/><path fill="#31425a" d="M213.1 50.5L271 60l-81.5-32 12.3 1.1z"/><path fill="#625c54" d="M215 138h41v5h-41z"/><path fill="#466f9c" d="M77 18l11 15-27-10z"/><path fill="#bac0c0" d="M119.8 38.5L142.2 73l8.8-16.5-21.7 6.5z"/><path fill="#565551" d="M153 109l28 6-20 9z"/><path fill="#8c9296" d="M81 54H62l37 17z"/><path fill="#3f4b5a" d="M199 71.2l-59.3 11.9 36.1 6.6 3.9-29.5z"/></g></g></svg>