<svg xmlns="http://www.w3.org/2000/svg" viewBox="0 0 1800 1200"><defs/><filter id="a"><feGaussianBlur stdDeviation="12"/></filter><rect width="100%" height="100%" fill="#4e4339"/><g filter="url(#a)"><g fill-opacity=".5" transform="translate(3.5 3.5) scale(7.03125)"><circle r="1" fill="#fff" transform="rotate(177.6 47 13.7) scale(218.76104 61.46059)"/><circle r="1" fill="#d1f7ff" transform="matrix(80.05597 -57.10337 24.88207 34.88338 36.3 38)"/><circle r="1" fill="#aae3ff" transform="rotate(83.4 89.7 130.1) scale(44.8115 103.8964)"/><circle r="1" fill="#8f7860" transform="rotate(-96.7 165.6 -35) scale(20.55716 219.63863)"/><circle r="1" fill="#624f23" transform="matrix(-4.0097 -14.98916 42.3425 -11.32688 87.3 83.3)"/><ellipse cx="189" cy="95" fill="#3e3f33" rx="43" ry="26"/><circle r="1" fill="#bf9464" transform="matrix(-52.13029 23.63456 -6.44904 -14.22453 255 102.6)"/><path fill="#edf6f2" d="M271 52l-12-38-137 65z"/><circle r="1" fill="#42504e" transform="matrix(10.02315 -33.83757 4.54342 1.34582 134.3 43.5)"/><circle r="1" fill="#5d8093" transform="matrix(.94625 11.63833 -125.69367 10.21948 195.5 168.3)"/><path fill="#9c6425" d="M101 92l7 40-76-10z"/><circle r="1" fill="#af7426" transform="matrix(-5.38003 -1.34827 6.20978 -24.77892 101 47.6)"/><ellipse cx="191" cy="135" fill="#30282a" rx="255" ry="5"/><circle r="1" fill="#7da8d8" transform="matrix(-42.5839 4.1634 -2.0049 -20.50653 88.8 0)"/><path fill="#ebf5e9" d="M137 84l-4-25 66 1z"/><circle cx="5" cy="63" r="33" fill="#d9e2d6"/><path fill="#7a8893" d="M138 100h22v29h-22z"/><circle r="1" fill="#0e0e00" transform="matrix(81.21026 -8.19883 .43969 4.35513 73 161.8)"/><path fill="#434135" d="M186 68l-90 33 150 17z"/><path fill="#aa9b79" d="M148 141h108v7H148z"/><path fill="#7fabd1" d="M218 39L98 56l125-72z"/><path fill="#edd7a9" d="M202.8 130.1l66.2-13-64.3 4.9-14.3 7.7z"/><path fill="#faefd6" d="M17.5 50.9l14.1-6.4 48.4 13-12.5 21.4z"/><circle r="1" fill="#a87844" transform="rotate(-80.9 156.3 -68.1) scale(37.54103 3.20621)"/><circle r="1" fill="#4e4636" transform="rotate(-107.8 60.2 19.2) scale(5.4488 32.04954)"/><path fill="#c9dbd3" d="M109.3 44.8l21.8 20.9-19.4 3.5-9.3-5.1z"/><path fill="#67716d" d="M130 78l17-77-26 47z"/><path fill="#b07022" d="M89 46l-2 38 20-17z"/><path fill="#f08c1c" d="M89 121h19v10H89z"/><path fill="#747d90" d="M147 119h50v11h-50z"/><path fill="#a07046" d="M267.8 138.3l3.2-45.5-27.5-5.2-22.4 2.6z"/><path fill="#253036" d="M162.5 75.1l38.2-2.1-36.9 55.1-9-47.6z"/><circle r="1" fill="#52402e" transform="matrix(32.0444 23.97228 -10.90225 14.57333 6.4 120.8)"/><path fill="#35332d" d="M102.7 124.2l13.8-48-15-6.9 35 76.5z"/><circle r="1" fill="#bfd6dc" transform="matrix(25.94602 11.36263 -6.86243 15.67004 197 54.5)"/><path fill="#1f1b1a" d="M222.6 139.5l30.5-1.8-19.7-12.5L212 130z"/><circle r="1" fill="#18190c" transform="matrix(-.1828 -2.82667 62.98815 -4.07326 189.3 153.9)"/><path fill="#192520" d="M39 85l-18 6-7 14z"/><path fill="#aec1b6" d="M95 80h36v5H95z"/><path fill="#fcb341" d="M87 86.7l1-.1 5 46.7-1 .1z"/><ellipse cx="71" cy="33" fill="#a9c8e0" rx="30" ry="21"/><ellipse cx="39" cy="152" fill="#8a7754" rx="72" ry="6"/><path fill="#f8f4ef" d="M207 51l64-30-23-13z"/><path fill="#81a4ce" d="M271 1.7L207.6-16l-62.1 26.6 124.1 1.1z"/><path fill="#b17d37" d="M105 138l-3.6-67.5 7.5-38.3-13.3 24.7z"/><path fill="#f5ebec" d="M126.5-4.9l25.4-5.8 3.6 15.6-25.4 5.8z"/><path fill="#ffe390" d="M237 118h6v11h-6z"/><ellipse cx="134" cy="147" fill="#928469" rx="57" ry="4"/><path fill="#050a1a" d="M75 71h10v11H75z"/><path fill="#b8d5d0" d="M-12.6 85.1L3 59.4 28.6 75 13 100.6z"/><path fill="#3d3f3a" d="M48 103h17v42H48z"/><path fill="#888780" d="M151.3 113.6l-1.6-29 5-.2 1.6 29z"/><path fill="#8e673b" d="M185 96h18v25h-18z"/><ellipse cy="133" fill="#6c726e" rx="113" ry="2"/><path fill="#886b42" d="M47.9 103.6l40.5-3.5-12.3-4.4-44.2-3.6z"/><path fill="#9bc0da" d="M254 31.1L192.9 66l73.9-29.3-27.2-38.9z"/><circle r="1" fill="#c6d0dc" transform="rotate(41.6 -12 41.4) scale(33.54142 24.27868)"/><path fill="#2e3434" d="M69 109h31v9H69z"/><circle r="1" fill="#1d180a" transform="matrix(1.25901 8.13273 -24.82321 3.84284 12 169)"/><ellipse cx="119" cy="140" fill="#594738" rx="81" ry="3"/><path fill="#cfcfc0" d="M13 64h77v7H13z"/><path fill="#acc3c2" d="M9 70h58v9H9z"/><path fill="#00183d" d="M181 100l-10 10 11 11z"/><ellipse cx="74" cy="83" fill="#b5b198" rx="24" ry="2"/><path fill="#b4cae1" d="M96.2 21.3l30.4 8.5 2.3 22.6 10.9-58.5z"/><path fill="#b46b29" d="M65.1 121l24 14.2-10-13.6 14.1-7.7z"/><path fill="#d9e8df" d="M132 66h14v19h-14z"/><path fill="#a4967b" d="M223 139h33v7h-33z"/><path fill="#7c5423" d="M79.2 137.4l9.5-74.1-8.5 19.4.4-1.5z"/><path fill="#c0d1e4" d="M210.1 5l21.2 26.2 39.7-27-85.8 25.1z"/><path fill="#b2cccc" d="M0 66h46v20H0z"/><path fill="#fbd780" d="M-16 104v21l21 3z"/><path fill="#a3cedf" d="M226.1 44.9l-10.7 3.5-10 20.4 57.8-7.3z"/><path fill="#3d372d" d="M230 136.7l6.7-18.9 34.3-.3-36.6-3z"/><path fill="#c46421" d="M51.2 116.2l-8.9-1.1 2.5-5.4-11.2 18.8z"/><path fill="#f1ede2" d="M229.1 36.9l-17.7 19.7-28.3 8.4 4.4-10.5z"/><path fill="#e7e9cd" d="M28 84l-44 2 28 12z"/><path fill="#353a34" d="M133.1 86.3l19.9-3.6 26.9-14.3 29.8 9.3z"/><path fill="#2b312c" d="M115 95l-6-26h-8z"/><path fill="#9dc3de" d="M109 34l-7 33 39-53z"/><path fill="#c7dade" d="M204 71l-43-20-11 14z"/><path fill="#bd8956" d="M248.8 96.5l8.2 20.2 6.3-23.7-36.4-6z"/><path fill="#ffa027" d="M89.9 108l1 .2L88 128l-1-.2z"/><path fill="#8e6531" d="M176.2 102.9l10.9-2.9L206 60.8l-2.6 28.1z"/><path fill="#04224f" d="M170 120l-11-1 4-20z"/><path fill="#875220" d="M101.2 74.9l.7-10.7 6.8-35.4-13.4 52.6z"/><path fill="#4c5249" d="M128.3 63.1l-3.7-16.7-24.2 34.8 26.7-41.1z"/><ellipse cx="130" cy="100" fill="#323024" rx="1" ry="36"/><path fill="#00040b" d="M246 124h7v5h-7z"/><path fill="#896535" d="M64.1 111.5L80.2 59l-5.1 8-6.5 12.2z"/><path fill="#5d869a" d="M250 130h6v9h-6z"/><path fill="#353e37" d="M205.1 80.7l31.8-15 34.1-5.1-1.4 31.3z"/><path fill="#f8d28a" d="M202 120h28v5h-28z"/><path fill="#c7c9ac" d="M122 52h3v30h-3z"/><ellipse cx="229" cy="137" fill="#05120b" rx="21" ry="2"/><path fill="#04110d" d="M115 133h27v4h-27z"/><path fill="#132122" d="M102 75h25v2h-25z"/><ellipse cx="245" cy="49" fill="#fdf5e6" rx="14" ry="5"/><path fill="#3e3e3a" d="M194.4 120.3L163 107.2l36.9 17.8-6.8-38.2z"/><path fill="#4b3922" d="M-10.5 86.3l54.1 41.5-42.4.3 9.4-7.7z"/></g></g></svg>