<svg xmlns="http://www.w3.org/2000/svg" viewBox="0 0 2214 2214"><defs/><filter id="a"><feGaussianBlur stdDeviation="12"/></filter><rect width="100%" height="100%" fill="#495e31"/><g filter="url(#a)"><g fill-opacity=".5" transform="translate(4.3 4.3) scale(8.64844)"><circle r="1" fill="#e5dad5" transform="rotate(173.9 52 108.3) scale(36.0681 65.89389)"/><path fill="#dcecaf" d="M27 197h105l-148 72z"/><circle r="1" fill="#e2ff92" transform="rotate(-175.1 119.5 117.6) scale(23.68275 34.09271)"/><circle r="1" fill="#fffff7" transform="matrix(-3.0766 9.08942 -42.34118 -14.3317 16.2 141.2)"/><circle r="1" fill="#d3d3b1" transform="rotate(-96.2 114.2 -30.8) scale(31.21624 21.65213)"/><path fill="#dffd86" d="M217 59l-7-75 22 16z"/><circle r="1" fill="#100b06" transform="matrix(9.43169 23.82173 -32.32692 12.79913 181 154.3)"/><circle r="1" fill="#000500" transform="rotate(-47.9 173.2 -266.5) scale(51.72288 21.86879)"/><circle r="1" fill="#d7e4d3" transform="matrix(-11.25052 5.37845 -24.7152 -51.69866 148.7 252.3)"/><ellipse cx="23" cy="105" fill="#0d1b05" rx="46" ry="26"/><path fill="#eeffd0" d="M230 81h17v24h-17z"/><path fill="#080300" d="M215 108h41v35h-41z"/><circle r="1" fill="#7b9a45" transform="matrix(14.1751 8.69682 -42.90274 69.9279 210 220)"/><path fill="#fffff1" d="M24 226l34-29-37 7z"/><path fill="#fffff4" d="M24.9 154.3L1 129.9l28.1 7.6 19.3 26.4z"/><path fill="#def6bf" d="M27.8 164.8l-38.3-2.5-5.2 2.2 28.5 16.8z"/><path fill="#fff" d="M67.4 203.9l20.9 4.6-9.6 11.1-22.9.9z"/><path fill="#514427" d="M62 186l-29 46 74-56z"/><path fill="#d1d8a5" d="M130 80l-10 35-15-8z"/><circle r="1" fill="#040012" transform="matrix(19.14812 9.22169 -5.41068 11.23485 138.6 129.2)"/><path fill="#eaffbc" d="M228.3 259.7l-1.5-43 15-.4 1.4 43z"/><circle r="1" fill="#1e270c" transform="matrix(5.27573 13.41837 -36.8481 14.48766 50.8 178.7)"/><path fill="#41442d" d="M136.2 148.2l6.6 62.7-9 .9-6.6-62.7z"/><path fill="#fff" d="M139 53h17v10h-17z"/><path fill="#758a45" d="M208 88l29-78-95 110z"/><path fill="#6b7f57" d="M158 78l-45 13L44-16z"/><circle r="1" fill="#768b3e" transform="matrix(-8.81481 -56.2902 24.74782 -3.8754 7.8 255)"/><path fill="#e7ff81" d="M204 114h9v20h-9z"/><circle r="1" fill="#344e17" transform="rotate(26.4 -499.2 275.2) scale(18.82936 29.26259)"/><path fill="#cab6a1" d="M73.1 182.5l-8.9 15.9L72 193l61.5-54.4z"/><path fill="#bcc9a7" d="M141.4 247.1l70.3-41.2-88 65.1h-12.6z"/><path fill="#d5fca1" d="M229 159h16v12h-16z"/><circle r="1" fill="#8f7473" transform="matrix(4.3815 -6.98257 28.342 17.78437 102.6 134)"/><circle r="1" fill="#00030a" transform="matrix(2.55308 1.22739 -10.00358 20.80834 56.9 203.9)"/><path fill="#29300e" d="M218 194l-68 22v25z"/><path fill="#12170c" d="M173 113l-13 10 12-45z"/><path fill="#485b4e" d="M97.1 263.5l16.6-21-.3-36.6 17.1 46.3z"/><path fill="#bccfb2" d="M68 0h9v20h-9z"/><path fill="#b5b286" d="M168 185h24v10h-24z"/><path fill="#fffffe" d="M40.2 137.3l4.9 10-15.3 7.4-4.9-10z"/><path fill="#2a3b18" d="M222.3 51.8l-45.9 95.1 49.1-50.5 15-15.3z"/><path fill="#b5d56c" d="M220.6 52.3l6.2-9.7-21.4 29.5-9.2-15.8z"/><path fill="#bbc17a" d="M168.9 94.6l-9.8 23-24-10.2 9.8-23z"/><path fill="#fcffcf" d="M233 5.6l-7.4 8.2L213 2.4l7.4-8.2z"/><path fill="#c4a988" d="M96 145h31v52H96z"/><ellipse cx="131" cy="124" fill="#151011" rx="7" ry="34"/><path fill="#91b25b" d="M8.6 165.9l22.1 11.7-46.6-57.1 47.3 36z"/><circle cx="78" cy="149" r="24" fill="#524b33"/><path fill="#323839" d="M170 56l-33 11 10 9z"/><path fill="#354835" d="M102 15h84v37h-84z"/><path fill="#d7e2c1" d="M131.4 76l51 .9-15-18.9-2.8 18.3z"/><path fill="#d8e8c1" d="M239.8 90.8l12.3-.9-10.8-9-20.1 27.8z"/><path fill="#62572c" d="M28.2 220.1L-16 271l114.5-94.4-75.3 49.1z"/><path fill="#1b2f0f" d="M59.8 205.6l1-19.6-10.9-36-7.8 2.1z"/><circle r="1" fill="#b4d17c" transform="matrix(-10.55797 -7.18794 5.02542 -7.38156 39.3 238.4)"/><circle r="1" fill="#f0ffd0" transform="matrix(-18.00624 18.93457 -2.55595 -2.43064 29.8 216)"/><path fill="#6b9133" d="M204.3 284.5l-30-52 29.4-17 30 52z"/><path fill="#8d8965" d="M149 156l-59 20 57 7z"/><path fill="#89bb50" d="M-9.8 216.5l38.6-9.6-6.1 17.7 1.6 5.6z"/><path fill="#8aabaa" d="M91 191h24v53H91z"/><path fill="#fbffef" d="M27.1 140.2l2.6 25.4-3.1-7.3-17.5-28.1z"/><path fill="#505d1a" d="M250.5-11.4l-62.3 57.6L271-16l-26.3 50.2z"/><path fill="#fffffe" d="M85 213l-36 4 35-16z"/><path fill="#688268" d="M38.8 21.4L87.9-5.7 46.7 48.6l-11-22.2z"/><path fill="#fff" d="M150 53h12v6h-12z"/><path fill="#3e511e" d="M217 114l-25 99 36-22z"/><path fill="#96b555" d="M216.9 235.2l54.1-17.3-11.7-2.9-18.5-3.7z"/><path fill="#3d5d15" d="M13 128l10-6 10 21z"/><path fill="#0f1800" d="M218.8 37.1l4.5-11.9 47.7 8.7L246.5 53z"/><ellipse cx="7" cy="12" fill="#d4f269" rx="14" ry="2"/><path fill="#394e2f" d="M96 122L41 91l20-78z"/><path fill="#feffb1" d="M243 11l4-4-8-3z"/><path fill="#6b7f53" d="M181.3 200l-33.8 23.3-18.1-59.4-5 28.8z"/><path fill="#9aa763" d="M239 162l17 16-25 14z"/><path fill="#c6ef86" d="M65 237v-29l-15 16z"/><path fill="#26351e" d="M41.6 230.5l-1.6 6.9L63.2 202l9.4-46.6z"/><path fill="#6c8068" d="M79 225l51-1-26-22z"/><path fill="#4e6736" d="M172 69l10 64-20 8z"/><path fill="#d9c7b2" d="M130.4 152l-4.2 5.1-12.3 8.9 5-27z"/><path fill="#15130b" d="M142 86.4l-8.8 22.6-7.7-5.7 11.7-21.2z"/><path fill="#f9fbd0" d="M91 93h5v6h-5z"/><path fill="#25231b" d="M148 122h16v65h-16z"/><circle cx="165" cy="32" r="3" fill="#fffffc"/><path fill="#b5bcbb" d="M98.5 198.9l24.1-25.8 5.1 15.2 11.1 37.2z"/><path fill="#334b1c" d="M-16 135.9l29.6-80.1-10.8 85.1L15.7 174z"/><path fill="#161d08" d="M85.9 94L61.4 83.6l9.5 1.1 29.2-7.3z"/><path fill="#161b0c" d="M212.2 139.2l-34 34-18.4-18.4 34-34z"/><path fill="#404c1d" d="M89.6 256L2 271l-18-39.4L14.7 251z"/><path fill="#fff" d="M87 5h6v3h-6z"/><path fill="#b18e56" d="M95.1 155.8l-11.2 5.5 32.7 33 2.8-26.4z"/><path fill="#d3f9aa" d="M223 220l25 22-12 25z"/><path fill="#97c25f" d="M54.9 98.2l-7 .6-.8-9 7-.6z"/><path fill="#fff" d="M2.6 242.4l-.6-.7 13.4-12 .6.6z"/><path fill="#f2f2b9" d="M18 156L6 140l-1 8z"/><path fill="#516c2e" d="M192 159l-8 61 48-59z"/><path fill="#69604b" d="M102 108h15v35h-15z"/><path fill="#9ba078" d="M198.1 234l14.8-4.1-38.7-2.1 19.8-15z"/><circle r="1" fill="#84948f" transform="rotate(-32.2 274.1 -191.4) scale(1.51616 13.82764)"/><path fill="#f5ffe6" d="M35 195.1l10.1 11.8-12.9 13.4.3-16z"/><path fill="#4c4227" d="M103.1 245.1l16.5 1.1 2.9-6.6-9 21.4z"/></g></g></svg>