<svg xmlns="http://www.w3.org/2000/svg" viewBox="0 0 1800 1200"><defs/><filter id="a"><feGaussianBlur stdDeviation="12"/></filter><rect width="100%" height="100%" fill="#513b2e"/><g filter="url(#a)"><g fill-opacity=".5" transform="translate(3.5 3.5) scale(7.03125)"><circle r="1" fill="#ffdc96" transform="matrix(-57.04794 -119.06825 46.32985 -22.19755 27.8 109.5)"/><path fill="#fff" d="M150 61l19 48-77-2z"/><ellipse cx="235" cy="155" fill="#d6c393" rx="93" ry="21"/><ellipse cx="117" cy="134" fill="#030000" rx="86" ry="18"/><circle r="1" fill="#ffffb8" transform="matrix(-101.04852 -38.58714 7.85643 -20.5737 39.8 162.7)"/><path d="M63-16L83 96 271 5z"/><circle cx="12" cy="69" r="54" fill="#ff8363"/><circle cx="68" cy="113" r="24" fill="#ff9169"/><circle r="1" fill="#040000" transform="matrix(6.48121 -55.93954 26.04014 3.01704 243 74.2)"/><circle r="1" fill="#ae815a" transform="rotate(-19.5 335 -491.2) scale(38.68487 23.69926)"/><path fill="#fbffff" d="M80.7 98l55 2-.4 8-55-2z"/><circle r="1" transform="matrix(-4.01703 11.35182 -54.10801 -19.14701 51 11.5)"/><circle r="1" fill="#cdbd9f" transform="matrix(-1.86176 18.1047 -33.3242 -3.42683 255 146.4)"/><path fill="#080603" d="M131.5 67.3L50.3 57l38.1 39.8 28.1.4z"/><circle r="1" fill="#492104" transform="matrix(4.39964 -7.57314 42.44585 24.65904 213.6 157.6)"/><path fill="#dde2c9" d="M132.3 70.6l30.9-10.2-26.2 56-21.7-19.2z"/><circle r="1" fill="#808e9a" transform="matrix(-8.3842 10.61624 -13.02512 -10.28662 62.8 40.4)"/><circle r="1" fill="#050000" transform="rotate(-162.8 49.5 66.1) scale(60.32793 6.22631)"/><circle r="1" fill="#d7d6aa" transform="matrix(8.58792 -12.3564 26.45838 18.38905 179 169)"/><path fill="#090300" d="M41 146.1l177.7-40.2 11.4 22.1-28.1 11.6z"/><path fill="#ffe896" d="M60.9 214.3l-86.6-52 26.8-44.6 86.6 52z"/><path fill="#ff846a" d="M98.2 155.9l-3.6-11.2L118 185l-89.5-45z"/><ellipse cx="113" cy="117" rx="23" ry="11"/><path fill="#0d0801" d="M182 31h45v28h-45z"/><circle r="1" fill="#e96b3a" transform="matrix(-7.02474 14.72767 -58.577 -27.9398 25.9 105.7)"/><path fill="#887b69" d="M129.5 112.9l65.3-81.2L170.3 44l3.6 75.1z"/><circle r="1" fill="#f69c7e" transform="matrix(-50.06473 -26.09444 5.7926 -11.11369 0 15.1)"/><path fill="#edffff" d="M133 99l1-27-25 34z"/><path fill="#f49574" d="M37 31l41 60-94-1z"/><path fill="#cae7fe" d="M96.7 97.8l44.3.6-55.1 12.8-.2-11.7z"/><path fill="#070904" d="M216.1 115.4l-33.1 5.4 29.2-30.1 11-17.3z"/><path fill="#230100" d="M53.5 143.5l-9.3-14.4L-16 114v-13.3z"/><path fill="#0c0a05" d="M139 156l-41-34 15 63z"/><circle r="1" fill="#b6a981" transform="matrix(-.45792 -2.96392 29.67426 -4.5846 163.2 150.4)"/><path fill="#140e0a" d="M79 78h40v18H79z"/><path fill="#2a0c05" d="M30.6 136.7l54 18.6-2.8-11.6-57.9-21.5z"/><path fill="#fff199" d="M-2.7 175.6L7.5 140l71.2 20.4L68.5 196z"/><path fill="#e6ffff" d="M134 166h7v4h-7z"/><path fill="#c69f6d" d="M177.4 86.5l-26.7-22.3-6.1 16.3 7.6 25.7z"/><path fill="#18150e" d="M115.8 136l-51.2 10.4 67 16.5L178 185z"/><path fill="#ae9c7f" d="M201 137.1l45.9-6.1 24.1-15-3.1 69z"/><circle r="1" fill="#ed9474" transform="matrix(15.9247 25.34551 -8.22835 5.1699 72.7 102.5)"/><circle r="1" fill="#8da2b9" transform="matrix(2.8755 8.29977 -15.95176 5.52656 142 102.7)"/><path fill="#595044" d="M185.2 112.8l-41.7 3.7 11.1-13.6 54.3-13.6z"/><circle r="1" fill="#1e150e" transform="matrix(14.98271 23.76425 -60.11074 37.89818 129.8 41.8)"/><circle r="1" fill="#2c1f15" transform="rotate(-123.3 110 -51) scale(53.42944 43.16566)"/><path fill="#4e575b" d="M71.7 60.3L55.4 60l-6.7-22.8-3.3-12z"/><circle r="1" fill="#bfd7c4" transform="matrix(1.62926 -2.777 14.27646 8.37595 153.2 160.3)"/><circle r="1" fill="#ffab84" transform="matrix(-3.56726 7.2178 -56.75487 -28.05 3.5 128.9)"/><path fill="#4c341a" d="M169.7 81.2l-22.3-46 22.3 11.4 5.8 19.5z"/><circle r="1" fill="#c3603f" transform="matrix(31.64456 22.73892 -2.63305 3.66428 13.7 44.2)"/><circle r="1" fill="#f8a27e" transform="matrix(20.63876 5.23063 -1.76064 6.94706 87.3 160.9)"/><circle r="1" fill="#18120c" transform="matrix(50.23379 -4.45728 2.14562 24.1813 76.1 2.6)"/><path fill="#1e1611" d="M72-16l94.5 74.9-29 10.7-56 30.3z"/><path fill="#150e08" d="M104.5 107.9l-27 34.7 38.4 22.7 48.8-43.6z"/><path fill="#967750" d="M181 36l-18 13 13 9z"/><path fill="#25180c" d="M147 149l66-15V91z"/><circle cx="75" cy="68" r="12" fill="#130b06"/><path fill="#ffffd4" d="M129.7 89l-5.6-7 14.2-11 5.6 7z"/><path fill="#ee7d49" d="M19.9 128.2L-16 77.1-9.5 62 46 118.2z"/><path fill="#b5a179" d="M141.8 152.4l32.4-8.2 32.5 21.6 3.7 6.5z"/><path fill="#7c7375" d="M50.7 47.8L64 26.6l15.3 9.6L66 57.4z"/><path fill="#6c492a" d="M204.4 140.6l59.9 44.4-34.6-2.9-51.9-39.6z"/><path fill="#fffffe" d="M83.9 109.5l15.7-8.5 17.2 5.1-13.9 1.8z"/><path fill="#f69c74" d="M20 52.3l-25.2 29L5.7-10.1-16 28.8z"/><path fill="#1f1713" d="M78.9 94L64.2 60.4l22.7-23 1.5 65.2z"/><circle r="1" fill="#9a6742" transform="matrix(-5.01711 4.3154 -14.7183 -17.1116 170 79.6)"/><path fill="#974825" d="M1.1 112.2l62.8 17.4 19 10-24.6-2.2z"/><path fill="#080804" d="M149 126l68-28-36 29z"/><circle r="1" fill="#ffc28a" transform="matrix(-18.24404 -12.88141 9.86206 -13.96771 0 134.5)"/><circle r="1" fill="#cae2fc" transform="rotate(148.2 48.9 69) scale(6.11549 8.81075)"/><circle r="1" fill="#2c1d11" transform="matrix(50.5514 -6.3989 1.34308 10.61035 218 122.9)"/><path fill="#bcc8b7" d="M210 93.6l-17.4 13.6-.6-.8 17.4-13.6z"/><path fill="#ffffae" d="M48 151l-31 34 69-9z"/><path fill="#e37e62" d="M14.3 132.7l2-5.1L38.2 138l58.3 26.8z"/><path fill="#e89d80" d="M76.2 95.1L59 80.7-11.1-16l65.2 69.3z"/><path fill="#150e09" d="M69.9 140.1l-51.8-13.2L75 153.3l76-35z"/><path fill="#191410" d="M82 88h32v10H82z"/><path fill="#b9a889" d="M255 126l-44 11 60 4z"/><path fill="#0f0902" d="M21 1l25.8 10.9L43 21 17.2 10z"/><path fill="#c1ac83" d="M181.5 110.1l.8 1.9-13.8 5.9-.8-1.9z"/><path fill="#f6ffff" d="M130.1 81.5l-6.8 11-3.4-2 6.8-11z"/><path fill="#867962" d="M152 92l-17 5 9 5z"/><circle r="1" fill="#ffe18c" transform="rotate(104.7 -54.7 87.8) scale(25.34954 20.68909)"/><path fill="#1c130d" d="M90.4 110.4l24.9-2.6 2.3 21.8-24.9 2.6z"/><path fill="#2a1807" d="M172 49l2 12-41 2z"/><ellipse cx="90" cy="158" fill="#e08d71" rx="8" ry="6"/><path fill="#757475" d="M140.2 117.4l21.5.6-21.3-10.7-7.5 3.8z"/><path fill="#cb754e" d="M86.5 133.2l-71.3-12.4 63.1-6.5 10.1 10.4z"/><path fill="#d7c68b" d="M145 93.3l-7.4-22.9 11.4-3.7 7.4 22.9z"/><path fill="#1d150e" d="M94.7 6.4L-16-16 7.8 3.6l43.4 24.1z"/><path fill="#271b11" d="M177 45h79v14h-79z"/><path fill="#9dafa9" d="M129.6 160l.7-.6 6.1 6.6-.7.6z"/><circle r="1" fill="#809180" transform="matrix(-2.5001 -1.57783 .77432 -1.22692 136.7 152.3)"/><path fill="#81796f" d="M22 0l-9.2 10.6-.8-.6L21.2-.6z"/><ellipse cx="230" cy="9" fill="#32241a" rx="36" ry="22"/><path fill="#aa784e" d="M170.3 54.9l4-10.8 2.8 26.5 14.1-7.6z"/><circle r="1" fill="#0d1407" transform="matrix(-2.71883 3.68773 -16.38176 -12.07768 149.7 169)"/><path fill="#0b0200" d="M26 125h11v7H26z"/><circle cx="126" cy="94" r="4" fill="#fff"/></g></g></svg>