<svg xmlns="http://www.w3.org/2000/svg" viewBox="0 0 1800 1200"><defs/><filter id="a"><feGaussianBlur stdDeviation="12"/></filter><rect width="100%" height="100%" fill="#303d4c"/><g filter="url(#a)"><g fill-opacity=".5" transform="translate(3.5 3.5) scale(7.03125)"><circle r="1" fill="#c8d2d8" transform="rotate(22.5 -77.7 371) scale(255 96.36246)"/><circle r="1" fill="#dcd4c3" transform="matrix(152.14704 11.62415 -2.06354 27.00945 109.7 71)"/><circle r="1" fill="#213756" transform="matrix(22.25354 -26.77993 67.59486 56.16986 238.8 153)"/><circle r="1" fill="#2471dd" transform="matrix(124.40254 61.21364 -19.65245 39.93904 176 5)"/><circle r="1" fill="#303129" transform="rotate(-113.6 99.4 16) scale(67.38504 11.72796)"/><circle r="1" fill="#5d5d54" transform="rotate(13.8 -508.8 319.4) scale(82.31585 32.77278)"/><circle r="1" fill="#997444" transform="matrix(-5.62785 -26.34363 64.54299 -13.78847 13.8 29.5)"/><circle cx="225" cy="75" r="32" fill="#9bc5f5"/><ellipse cx="110" cy="41" fill="#ddb981" rx="46" ry="19"/><path fill="#262113" d="M22 89h40v31H22z"/><ellipse cx="168" cy="165" fill="#d8e6f1" rx="13" ry="38"/><circle r="1" fill="#f3dbb4" transform="rotate(-62.1 112 -19.5) scale(15.07014 41.88045)"/><circle r="1" fill="#61594b" transform="matrix(-46.1698 26.39273 -7.4908 -13.10393 153.5 119.5)"/><circle r="1" fill="#fedaa9" transform="matrix(-4.60954 9.23313 -19.76141 -9.86567 2.7 90.3)"/><ellipse cx="126" cy="5" fill="#1b509b" rx="54" ry="14"/><circle r="1" fill="#1a548a" transform="matrix(-19.52518 19.53974 -27.16455 -27.1443 247 132.7)"/><path fill="#231e15" d="M111.1 101.1l17.8 13.9-3-29.3-31.5-20.2z"/><path fill="#d3dbdb" d="M128 63h70v27h-70z"/><path fill="#6397d5" d="M154 37h102v31H154z"/><path fill="#e4d5b9" d="M14.5 34.8l68.1 6.5 26.1 73.2-21.2-35.4z"/><ellipse cx="24" cy="135" fill="#636b72" rx="140" ry="19"/><circle r="1" fill="#395267" transform="matrix(-32.78004 -3.20781 3.80978 -38.93142 124.8 162.2)"/><ellipse cx="190" fill="#3161a3" rx="126" ry="23"/><path fill="#acb3cb" d="M203 140l3-25-27 43z"/><path fill="#331d0d" d="M200 96l-24-12 25 41z"/><path fill="#c9b38b" d="M130 93h46v14h-46z"/><path fill="#f1ddba" d="M105 64h40v11h-40z"/><path fill="#000005" d="M225 185l-30-29-2 29z"/><path d="M153 101h6v20h-6z"/><path fill="#263032" d="M-15 46.7l1-19 29 1.6-1 19z"/><path fill="#ded6c3" d="M17 47l73 36-46 8z"/><path fill="#5e4f37" d="M20.2 78.5l-8.1-.8 14.2 23.6-1.2-34.5z"/><path fill="#adb7be" d="M171 185l-28-14 43-62z"/><path fill="#ab8d65" d="M57.1 18.4L64.3 3 117 27.6 109.7 43z"/><path fill="#454036" d="M53.2 43.6l-4.4-2.4 16-28.8 4.4 2.4z"/><path fill="#bec5c3" d="M218.4 110l-15.9 1.9-2.9-23.8 15.9-2z"/><path fill="#ccb89a" d="M69 62h29v47H69z"/><path fill="#639feb" d="M155 50h20v28h-20z"/><path fill="#442f14" d="M156 44l-6-2 4 19z"/><path fill="#c6d3e1" d="M203 97.6l67.4.7.6-16.7-87.1-3.7z"/><path fill="#0d3c64" d="M238 127h18v43h-18z"/><path fill="#7d8181" d="M123.4 143.5l22 3.9 17.8 10.9-30.6-52.2z"/><path fill="#4d493c" d="M-11.7 37.8l50.1-14.9L74.5 21l-10.7 3.6z"/><path fill="#563929" d="M209.4 155.1l20.8 29.9-2.4-12.8-19.8-56.9z"/><path fill="#293c45" d="M121.5 138.4l-4.2 16-13.5-38.2 26.1-10.3z"/><path fill="#d7c5a6" d="M153.2 75.5l-5-42.5-28.8 42 28 37.5z"/><path fill="#6b4c38" d="M183 107h16v30h-16z"/><path fill="#423f36" d="M109 57h11v6h-11z"/><path fill="#d0d5d2" d="M158 82l41-28-26 47z"/><path fill="#7f786a" d="M64 107h43v37H64z"/><path fill="#53799a" d="M207 100h34v19h-34z"/><path fill="#2b312e" d="M24 46l13 8 6-4z"/><path fill="#4c4637" d="M51 60h11v7H51z"/><path fill="#6f5638" d="M15-1l13 22-44-25z"/><path fill="#32495b" d="M-16 154.3l156.9-10.8 9 15-109.8 23.8z"/><path fill="#897d6a" d="M61.8 110.2l23.5-22.8-45.9 13 16.5-22.9z"/><path fill="#272c28" d="M46.2 119.1L18.8 78.8l9.5 39.8 37.8-17.1z"/><path fill="#e6dcc8" d="M104.9 93l15.5 15.5-40.7-10.6-3.5-3z"/><path fill="#b99b77" d="M65.6 12.9L43.8-14.2l-58.1 3.8L40.5 16z"/><path fill="#6c7f98" d="M107.5 169.1l4.1 13.1 14.6-44.6-7.3 8.6z"/><path fill="#434039" d="M95.2 82.4l1.5-1.9 17.7 9.3-15.8-37z"/><ellipse cx="121" cy="71" fill="#5f513d" rx="2" ry="12"/><path fill="#80715b" d="M24 138l-40-15L3 88z"/><ellipse cx="183" cy="158" fill="#313331" rx="2" ry="17"/><path fill="#2a3b33" d="M12 112h129v3H12z"/><circle r="1" fill="#e1d3bb" transform="matrix(-3.62068 -3.1438 22.36745 -25.76037 45.7 62.3)"/><path fill="#282323" d="M176 89l21 2 3 23z"/><path fill="#736b59" d="M145 67h6v10h-6z"/><path fill="#7c6c56" d="M32.1 96.7l11.7 21 .5-23.6-4.1-10.6z"/><path fill="#642f1f" d="M179 104l-25 4 23 9z"/><path fill="#484c4f" d="M152 135h4v35h-4z"/><path fill="#a6b2b8" d="M187 138h7v32h-7z"/><path fill="#776240" d="M154.5 88l2.7-1.4 6.3 11.4-2.7 1.4z"/><path fill="#adaf53" d="M163.7 100.3l5.5 28.5-4.9 1-5.5-28.6z"/><path fill="#070c0e" d="M49 103L39 93l27 11z"/><path fill="#80ace0" d="M197 63h59v16h-59z"/><circle r="1" fill="#ccbda2" transform="matrix(-5.99071 -18.40569 9.33787 -3.0393 8.2 84.3)"/><path fill="#0a2e46" d="M117.4 150l-23 43.2-9.8-5.1 23-43.3z"/><path fill="#7c7974" d="M70 146l48-39-84 17z"/><path fill="#5e7793" d="M234 158l13-21-27 14z"/><path fill="#454338" d="M22 71h7v7h-7z"/><path fill="#3f71b4" d="M143 28L87 13l102-6z"/><path fill="#393731" d="M122 115l8-25-24-15z"/><ellipse cx="160" fill="#325f9e" rx="101" ry="10"/><path fill="#eadcc1" d="M200.5 85.6l-7.8 5.9-14.5-16.4 13.5-16.9z"/><circle r="1" fill="#cfb58e" transform="matrix(5.13229 -6.90363 3.0149 2.24133 70 106.8)"/><path fill="#0e1012" d="M199.6 146.2l24.5 17.2-1.7 2.4-24.5-17.2z"/><path fill="#bbdfff" d="M169.6 117.9l.4-1 8.4 3.2-.4 1z"/><path fill="#ad9e80" d="M114 30h43v18h-43z"/><path fill="#b09470" d="M71 12h18v25H71z"/><path fill="#4f4b3f" d="M55.7 30.1l16.8 3-9.1 2.6-53-10.5z"/><path fill="#d2cbb9" d="M30.1 55.4l18 13.6-35.4.5 15.9-31.6z"/><path fill="#dfd3bd" d="M61.1 98.3l-3.5-3.7 10.1-2.2 2.6 5.2z"/><path fill="#ae9371" d="M28.4 16.7l21.9 19-61.8-32.5 26.9 29.2z"/><path fill="#e9e6d9" d="M162 73l-15 5-6 26z"/><path fill="#908e8d" d="M209 99h43v6h-43z"/><path fill="#9c9e96" d="M16 70V49l-21-5z"/><path fill="#dcd3c2" d="M65 38h13v52H65z"/><path fill="#534735" d="M14 16h44v3H14z"/><path fill="#6794cd" d="M158 45h98v15h-98z"/></g></g></svg>