<svg xmlns="http://www.w3.org/2000/svg" viewBox="0 0 1800 1800"><defs/><filter id="a"><feGaussianBlur stdDeviation="12"/></filter><rect width="100%" height="100%" fill="#28374f"/><g filter="url(#a)"><g fill-opacity=".5" transform="translate(3.5 3.5) scale(7.03125)"><ellipse cx="102" cy="77" fill="#b5d9f8" rx="255" ry="105"/><circle cx="127" cy="255" r="140" fill="#6d6a5c"/><path fill="#fff5e8" d="M160 139h89v22h-89z"/><circle r="1" fill="#0c1923" transform="rotate(-35.9 342.5 -28.8) scale(49.47306 41.50425)"/><circle r="1" fill="#8493a4" transform="matrix(12.3915 35.23904 -92.61604 32.56762 236.2 255)"/><circle r="1" fill="#bcb5a7" transform="matrix(-31.19055 33.0091 -12.9696 -12.25507 28.8 161)"/><circle r="1" fill="#6899ce" transform="matrix(-208.0907 -13.63594 2.97974 -45.47217 89 67.5)"/><circle r="1" fill="#7496b7" transform="matrix(-44.46575 -17.50775 11.30632 -28.7155 21 255)"/><ellipse cx="207" cy="129" rx="7" ry="14"/><path d="M151 145l-30 11 27-39z"/><path fill="#202011" d="M-24 120.4l61 3.2-1 18-61-3.2z"/><ellipse cx="151" cy="205" fill="#0e2227" rx="144" ry="13"/><path fill="#fffbee" d="M0 142h75v8H0z"/><ellipse cx="192" cy="169" fill="#776c65" rx="105" ry="12"/><circle cx="179" r="83" fill="#4f7db5"/><ellipse cx="76" cy="124" fill="#343f3e" rx="21" ry="11"/><path fill="#d5bda6" d="M197 140l-35.3 10.8-8.8-28.7 35.4-10.9z"/><path fill="#1d1717" d="M64.2 155.8l-28.4-4 8.5-12 20.9 31.7z"/><circle r="1" fill="#b09d83" transform="matrix(41.61284 23.06637 -8.25432 14.89118 254.8 140.2)"/><path fill="#6a7675" d="M193.4 252.8l-73.6 8.6 10.5-134.2 20 106.5z"/><path fill="#ccc5be" d="M109 109h12v44h-12z"/><path fill="#252c31" d="M153 152h18v76h-18z"/><path fill="#1c2b40" d="M234 149l28 1 9-28z"/><circle r="1" fill="#dad3c1" transform="matrix(11.7272 4.93355 -2.10958 5.01454 142.3 159.3)"/><path fill="#e5e1d8" d="M33 128h25v17H33z"/><path fill="#ac9d9c" d="M213.6 135.9l17.2-23.2-47.5 86.2 16.5 8z"/><path fill="#050403" d="M203 153l-4-17 13-17z"/><circle r="1" fill="#707372" transform="matrix(-50.88714 13.66624 -4.92815 -18.3503 4.6 183.3)"/><circle r="1" fill="#517fb7" transform="matrix(3.85502 31.80218 -167.92462 20.3556 130.4 5.1)"/><path fill="#e5d8ca" d="M65 142h10v23H65z"/><path fill="#323833" d="M40 123L22 98l3 40z"/><path fill="#dddfdc" d="M261 155l-48-19-18 26z"/><path fill="#e4dacd" d="M86.1 149.5l12.3.2 2.2 4.8.7-22.1z"/><ellipse cx="36" cy="92" fill="#7d9ebf" rx="189" ry="24"/><ellipse cx="83" cy="150" fill="#41414b" rx="8" ry="45"/><path fill="#4f7db0" d="M45 249h94v7H45z"/><path fill="#8c7570" d="M128 169h56v19h-56z"/><path fill="#aca891" d="M251 182l-18-8 25-10z"/><path fill="#3d3531" d="M95.1 161.5l58.9 9.9-41.6-18.3-7.1-14.3z"/><path fill="#fdffff" d="M17 149l31 8.2-1 3.9-31-8.3z"/><path fill="#050e12" d="M146 203h38v21h-38z"/><ellipse cx="179" cy="145" fill="#f1fcff" rx="19" ry="6"/><path fill="#83a0b6" d="M57 126h26v12H57z"/><path fill="#24211c" d="M156 132l-24-19v36z"/><path fill="#010b16" d="M25.1 205l22-17.2L67 213l-22 17.2z"/><path fill="#8aafcf" d="M11.2 124.1l-26-18.1 35.3-4.6.3 36z"/><path fill="#28293b" d="M185 155l-23 53 5-39z"/><path fill="#080d0d" d="M205 180h13v37h-13z"/><path fill="#171d1b" d="M98 197h26v45H98z"/><path fill="#46586b" d="M258.8 161.4l-54.2-4.1 35.8 17.4-125 50.8z"/><path fill="#294054" d="M95 182l-50-39 28 95z"/><ellipse cx="53" cy="138" fill="#555148" rx="24" ry="3"/><path fill="#817b7d" d="M199.4 203.8L216 271l-41.4-41.2 18.9-3.3z"/><path fill="#a1a4a0" d="M19 159h13v42H19z"/><path fill="#9a8775" d="M162 115h40v23h-40z"/><path fill="#ebebe8" d="M230.1 149.1l5.4 22.8 3-32.8-32.5 4.1z"/><path d="M160 150l-6-7v15z"/><path fill="#6e8490" d="M76 188l-11 2 11-32z"/><path fill="#355473" d="M116 245l-92-24 40 32z"/><path fill="#152436" d="M33 160h10v11H33z"/><path fill="#d5c7a7" d="M129 171h16l-8 15z"/><path fill="#9ca1a9" d="M96 113h36v18H96z"/><path fill="#293d51" d="M-5 209l12-19-3-32z"/><path fill="#6f92b7" d="M83.9 68.4l21.5-46.2 118.7 55.4-21.5 46.2z"/><path d="M46 195l-13-6 4-10z"/><path fill="#717e88" d="M253.1 200.7L218.6 243l12.8 23.5 30-52.9z"/><path fill="#a7a4a2" d="M128 180l-25-20 3 12z"/><path fill="#899ba5" d="M234.1 198.9l-17.8-13 3.6-4.8 17.8 13z"/><path fill="#353938" d="M26 97l6 37.5-4 .6-6-37.6z"/><path fill="#52483f" d="M104 183l23-50 5 19z"/><path d="M193 130l5-9h-4z"/><path fill="#e8e3db" d="M0 143h37v9H0z"/><path fill="#202524" d="M0 121h12v20H0z"/><path fill="#303a37" d="M83.2 133.1l-3.3-20.8 9.6-1.1 9.4 21.4z"/><path fill="#bdbab1" d="M179.8 147.2L153 136.5l-12.5 25.9 27.6-27z"/><ellipse cx="61" cy="168" fill="#060e11" rx="3" ry="19"/><path fill="#480f19" d="M193 180v15l-9-19z"/><path fill="#241e25" d="M141 201l-59 3 16-22z"/><path fill="#bbaa92" d="M218 121h34v20h-34z"/><path fill="#2f3947" d="M232 148h24v3h-24z"/><circle cx="97" cy="146" r="5" fill="#f7faf9"/><path fill="#25272c" d="M106 131.5l5 30.6-3 .4-5-30.6z"/><path fill="#d79b8d" d="M186 174l23 19-16-24z"/><path fill="#0c0501" d="M52.2 152.7l-9.7-2.6 1.3-4.8 9.7 2.6z"/><path fill="#e1e1de" d="M46 137l-15 6 41 5z"/><path fill="#d5d2cd" d="M49.5 159.1l12.7-16.4 16 12.1-4.6-7.9z"/><path fill="#3a4e57" d="M256.6 190.9L205.2 236l28.4-45.5-23.8-35.7z"/><circle r="1" fill="#272a22" transform="matrix(.34694 4.5132 -8.62731 .6632 66 121.6)"/><path fill="#d2b693" d="M135.8 197.6l-18-6.2.4-1 18 6.2z"/><ellipse cx="22" cy="209" fill="#c8cdc9" rx="4" ry="2"/><path fill="#aa9480" d="M85.9 133.2l57.3-1-28.8-12.1-18.2 25.1z"/><ellipse cx="238" cy="90" fill="#6d90b1" rx="51" ry="30"/><path fill="#aaaca4" d="M10 146h4v53h-4z"/><ellipse cx="210" cy="137" fill="#3f3834" rx="61" ry="1"/><path fill="#334252" d="M179.3 191.5l-44.6-14.8 29.1-2.4 50.4 40.2z"/><circle cx="178" cy="180" r="5" fill="#fd7479"/><ellipse cx="159" cy="166" fill="#3f403e" rx="44" ry="4"/><path fill="#d1dbda" d="M205.6 168.2l-11.6-6 6.4-12.4 11.6 6z"/><circle r="1" fill="#cec8be" transform="rotate(-166.2 91.2 64.5) scale(2.46421 17.29246)"/><circle r="1" fill="#4d4e64" transform="rotate(135.6 35.8 161.4) scale(26.46446 8.20759)"/></g></g></svg>