<svg xmlns="http://www.w3.org/2000/svg" viewBox="0 0 1200 1800"><defs/><filter id="a"><feGaussianBlur stdDeviation="12"/></filter><rect width="100%" height="100%" fill="#2f2c53"/><g filter="url(#a)"><g fill-opacity=".5" transform="translate(3.5 3.5) scale(7.03125)"><circle r="1" fill="#ffcddc" transform="matrix(.69726 -47.55778 168.98184 2.4775 88 105.3)"/><ellipse cx="70" cy="81" fill="#f0c9c8" rx="169" ry="13"/><circle r="1" fill="#b295b3" transform="matrix(31.76494 -104.75697 10.3316 3.1328 158.9 33.7)"/><ellipse cx="77" cy="143" fill="#654e84" rx="161" ry="24"/><path fill="#001a44" d="M45 0h72v67H45z"/><circle r="1" fill="#ffd8c1" transform="matrix(24.26484 5.96002 -3.6166 14.72417 119.8 105.6)"/><path fill="#1e1d5b" d="M130 79l51 19 4 55z"/><path fill="#f8a19b" d="M68 135h86v9H68z"/><ellipse cx="146" cy="223" fill="#634a69" rx="51" ry="25"/><ellipse cx="19" cy="84" fill="#d2acb2" rx="41" ry="27"/><circle r="1" fill="#00112c" transform="rotate(-82.5 13 10.5) scale(33.90309 24.5244)"/><path fill="#4e487f" d="M121 162l-131-4-6-55z"/><path fill="#2f3463" d="M6 37h164v25H6z"/><ellipse cx="32" cy="183" fill="#02193c" rx="169" ry="10"/><path fill="#594680" d="M95 126.7l-30.7-9.4 6.8-22 30.6 9.4z"/><path fill="#e9a9a8" d="M60 122h23v17H60z"/><path fill="#f5beb7" d="M124 88l39 40-82-34z"/><ellipse cx="13" cy="96" fill="#53396a" rx="20" ry="4"/><circle r="1" fill="#2f2a66" transform="rotate(147.8 5.7 60.5) scale(8.52742 6.742)"/><path fill="#9082b1" d="M147.6 18.2l-9.2 3.6 42 26.5.1-64.3z"/><circle r="1" fill="#d5b2bb" transform="rotate(3.1 -1291.2 2924.7) scale(22.586 14.59507)"/><path fill="#102044" d="M140-16l13 64H46z"/><path fill="#4f4677" d="M10 39l38 30 66 1z"/><path fill="#9d7da4" d="M42.7 68.9l-4-19.2L16.6 63l60.1 4.7z"/><circle r="1" fill="#9d7b97" transform="matrix(-.83463 -5.86443 30.9236 -4.40108 111 86)"/><ellipse cx="65" cy="255" fill="#3a2d40" rx="126" ry="33"/><path fill="#614876" d="M134 132l39 14 12-37z"/><circle r="1" fill="#e3c4c4" transform="rotate(-90.5 63.6 19.8) scale(10.45948 33.31399)"/><ellipse cx="106" cy="127" fill="#6b5586" rx="26" ry="11"/><path fill="#eeaea8" d="M32 95l1 27-17-1z"/><ellipse cx="144" cy="211" fill="#4f4266" rx="136" ry="13"/><circle r="1" fill="#223567" transform="matrix(-118.1475 -3.50654 .25871 -8.71686 69.7 169)"/><path fill="#45406f" d="M127.4 28.8l27.9-30.6 14.4 27.7-8.1-8.4z"/><path fill="#786191" d="M107.7 62.7l3.2-11.2 65 10.2-71.5 6.2z"/><circle r="1" fill="#1b2954" transform="matrix(-14.15283 21.48475 -36.2048 -23.8495 59.6 34)"/><path fill="#575d98" d="M35.5 16.8L20.8-16l13.7 5.5 11 18.2z"/><path fill="#282f61" d="M147.4 109.7l9.2-13.3 27.8 16.6-24.4 4.9z"/><circle r="1" fill="#dfc7de" transform="matrix(-1.52085 -3.02387 11.82839 -5.94906 169 29.2)"/><path fill="#f0ac9f" d="M152 117l-13-18-1 35z"/><ellipse cx="91" cy="151" fill="#5f5085" rx="83" ry="5"/><path fill="#5c4a83" d="M47 114h17v18H47z"/><path fill="#3b3b6b" d="M9.1 116.7l3.2 56.4-28.3-36.3V82.5z"/><path fill="#ce828e" d="M118 136h41v12h-41z"/><path fill="#f9b1a6" d="M87 131l-30 4 44 8z"/><path fill="#e7b3b5" d="M50 108h19v6H50z"/><path fill="#d6b5bc" d="M112 62.7l73 16.4-86.8-3.6 13.6 40.9z"/><path fill="#6c5585" d="M58.4 153.8l-31.7.3 46.7-59-12.1-4z"/><path fill="#433570" d="M9 112l9 5 7-6z"/><path fill="#e8bab7" d="M88.1 95.2l51.4-8.7L93.7 116l46.7 4.2z"/><path fill="#584c85" d="M101.7 125.5l.4 3-37.8 4-.4-3z"/><circle r="1" fill="#0e1d3d" transform="matrix(50.70994 .03622 -.0147 20.59022 104.3 0)"/><path fill="#ada1c8" d="M143.8-16h-6.5l36.1 31.3-2.1-31.3z"/><path fill="#212e63" d="M146 126h11v9h-11z"/><ellipse cx="63" cy="147" fill="#72578c" rx="23" ry="8"/><path fill="#d8b5b9" d="M36 68h24v32H36z"/><ellipse cx="5" cy="24" fill="#071b3b" rx="18" ry="34"/><path fill="#e4b0aa" d="M8 99h24v11H8z"/><path fill="#db9aa0" d="M111 127l9-2 11 5z"/><circle r="1" fill="#3c4377" transform="matrix(-80.37454 1.6001 -.1383 -6.94656 113.7 162.8)"/><path fill="#232237" d="M10 266.6l-41.5-24 21.5-37.2 41.5 24z"/><path fill="#464376" d="M156 36L138 9l-8 9z"/><path fill="#5e4c78" d="M125 202h45v15h-45z"/><path fill="#8875a8" d="M154 44l11-11-13 25z"/><path fill="#976e91" d="M38 136l-21-5 32-9z"/><ellipse cx="53" cy="213" fill="#3b3454" rx="55" ry="15"/><path fill="#8e6e91" d="M80 81l19 5-22 6z"/><path fill="#7d628a" d="M159.3 86.4l8.5 6.5-16.5 6.3-27.6-1.7z"/><path fill="#8c678f" d="M158.7 117l.4 13.3-11.5 13.3 37.4-25.9z"/><path fill="#171c3b" d="M131 172h39v21h-39z"/><path fill="#5f4d7d" d="M136.6 135.7l-4.8-17.4-13.9 5.1 29.8 13.8z"/><path fill="#ddbabc" d="M124.7 89.5l15-2.2-12.6 16.6-55.9-9.4z"/><path fill="#746490" d="M36.3 47l9.3 26-11-11.3-15.1-19.2z"/><path fill="#684a73" d="M167 75h3v7h-3z"/><path fill="#957493" d="M109 86l25-12 17 13z"/><path fill="#343665" d="M132.4 65.5l19.7-28 10.6-15.6-40.5 37.5z"/><circle cx="83" cy="105" r="3" fill="#ebb9bc"/><circle r="1" fill="#132041" transform="rotate(100 -72.6 92.7) scale(19.02961 22.99061)"/><path fill="#6b5485" d="M71 63l12 7-20 2z"/><circle r="1" fill="#493857" transform="matrix(-22.81992 -13.81032 9.06645 -14.98124 126.9 246.1)"/><path fill="#434075" d="M88 118.2l1-13 7 .6-1 13z"/><path fill="#cbadb7" d="M6.7 95.9L20 58.3l20.3 17.1L-16 89.1z"/><circle cx="154" cy="75" r="11" fill="#dec0c2"/><path fill="#48447d" d="M95 133.7l4.2-5.5 7.9 6.1-4.3 5.5z"/><path fill="#5f4c81" d="M82 145h54v8H82z"/><path fill="#645281" d="M89 99l-24-7-8 12z"/><path fill="#e2aaac" d="M63.2 124.4l11.9-2.6 6 2.3-15.5 5.3z"/><circle r="1" fill="#aa93b8" transform="matrix(1.21912 -1.96911 15.04736 9.31614 162.3 29.8)"/><path fill="#755e8b" d="M60.4 110.6l30.3 8.7-82.6 3.5 53.6 10z"/><path fill="#424071" d="M159.1 65.1l16.8-34.8-53.8 31.9L164 42.6z"/><path fill="#d8adaf" d="M134.7 82.2l-1.8 14.4 28 27.4-51.3-30.2z"/><path fill="#87658a" d="M144.7 109.4l8.8-5.7-15.9-9.7 2.5-9z"/><path fill="#404477" d="M55 131l-4 7-18-12z"/><path fill="#21274e" d="M131.2 24.3L90.1 7.2l70.8 6.4-12.2-27.9z"/><path fill="#1d254c" d="M47.7 60l3-23.8L98.2 42l-3 23.8z"/><path fill="#443a5d" d="M21 200h42v28H21z"/><circle r="1" fill="#73587d" transform="matrix(24.38712 -6.33034 .55734 2.1471 6.6 98.9)"/><path fill="#e5aea8" d="M140 104.2l10.7 21.7-52.9-22.2 9.2 16.5z"/><path fill="#cfa1a9" d="M58 108l-6 4-7-22z"/><circle cx="137" cy="128" r="3" fill="#faaba0"/><path fill="#9f7b9b" d="M92 99.1l-19.1 18.2 35.7-1.9-39.1-1.5z"/></g></g></svg>