<svg xmlns="http://www.w3.org/2000/svg" viewBox="0 0 1800 1200"><defs/><filter id="a"><feGaussianBlur stdDeviation="12"/></filter><rect width="100%" height="100%" fill="#5d503a"/><g filter="url(#a)"><g fill-opacity=".5" transform="translate(3.5 3.5) scale(7.03125)"><circle cx="212" cy="10" r="113" fill="#e3cfaa"/><circle r="1" fill="#b39a75" transform="rotate(-83.5 51.7 -4.5) scale(89.90829 54.00631)"/><ellipse cx="177" cy="95" fill="#201a0c" rx="21" ry="94"/><path fill="#edd3ae" d="M198 96l12-112 61 113z"/><circle cx="38" cy="74" r="15" fill="#fff"/><ellipse cx="141" cy="68" fill="#d5c2a0" rx="18" ry="59"/><circle r="1" fill="#3f1c03" transform="matrix(-40.21083 -9.71311 12.39672 -51.32058 92.2 153.2)"/><ellipse cx="17" cy="64" fill="#120000" rx="7" ry="37"/><path fill="#2b1500" d="M63 38l3 36L1 31z"/><path fill="#4d1b00" d="M86 47h31v32H86z"/><path fill="#aeb198" d="M225.3 112l1.4 41-24 1-1.4-41z"/><circle r="1" fill="#afb4b0" transform="rotate(-162.8 30 58.1) scale(10.77473 38.01519)"/><path fill="#dbc7a2" d="M133 82l87 10-46 8z"/><circle r="1" fill="#caae86" transform="matrix(-1.30848 11.73009 -36.76682 -4.10132 62.8 12.6)"/><path fill="#cdac78" d="M65 46h23v58H65z"/><path fill="#bcb096" d="M226 1h30v124h-30z"/><path fill="#2f2b26" d="M263.2 185L135.9 94.5l23.6-.5-26.4 60.8z"/><path fill="#2a0400" d="M57 49h7v81h-7z"/><circle r="1" fill="#493316" transform="matrix(20.19565 4.5676 -5.2719 23.30965 178 35)"/><path fill="#acb5a7" d="M141 113l5 23-27-1z"/><path fill="#040000" d="M217 155l44 7-15 23z"/><path fill="#3a2318" d="M27.3 185L-16 156.6l20-20.9 13-47.2z"/><circle cx="113" cy="111" r="20" fill="#233014"/><path fill="#6b6853" d="M221 98.2l-24.5 72-4.7-55.2L105 97z"/><path fill="#969d85" d="M21 82h35v57H21z"/><path fill="#000509" d="M181 126l15-12-45-6z"/><path fill="#fff2af" d="M78 94.7l5.4-1.7 21.7 4.2-30.1 5.7z"/><circle r="1" fill="#b8a684" transform="matrix(6.58602 12.11012 -43.77744 23.8081 131 22.4)"/><circle r="1" fill="#785d3d" transform="matrix(1.60655 -.02507 2.40932 154.4161 39.2 73.7)"/><circle r="1" fill="#eaf8ea" transform="matrix(3.27016 16.82354 -4.23865 .8239 47.5 75.8)"/><path fill="#492b0f" d="M54 86l-6-52 24 1z"/><path fill="#502009" d="M107.4 138.2l-34 16.2-71.5 10L153.8 185z"/><path fill="#f8e6c8" d="M91 18L76 28 90 2z"/><circle r="1" fill="#b9ad91" transform="matrix(41.30398 36.7428 -12.28266 13.8074 201.4 0)"/><circle r="1" fill="#e8be82" transform="matrix(5.2034 -19.41938 4.65334 1.24686 59.5 14.7)"/><path fill="#381a01" d="M15.3 99.1L11 39.9l19.5 6 .4-3.4z"/><path fill="#7a5d3a" d="M44.7-16l22.8 38.8L37.7 7.2 43.4-16z"/><path fill="#f1cf9c" d="M245.6 68.2L212.8 93l-14.4-19.1L231.2 49z"/><path fill="#8c714b" d="M73 127l21-22-23-4z"/><path fill="#c6d1c8" d="M51 74l8 26-17 15z"/><path fill="#938f79" d="M244 145l11 13-37-6z"/><path fill="#4e3c1c" d="M130.3 115.3l-28.2 6.5-16.4-71.1 28.2-6.5z"/><path fill="#39291c" d="M249 151l22-25-47-2z"/><path fill="#25211c" d="M167.8 169.9l-44.1-36.6 63.1 16.1-45 15.4z"/><path fill="#f7fffe" d="M35.2 62l1 31.3 1.1 3.3-9.9-36.3z"/><circle r="1" fill="#93896a" transform="matrix(-.37871 -14.66377 29.33044 -.7575 3.7 21.3)"/><path fill="#dbc49d" d="M129 66h29v30h-29z"/><path fill="#827a5e" d="M12.3 126.7l.3-63.3L7.1-7.2-16 134.2z"/><path fill="#a89972" d="M169 41h5v36h-5z"/><path fill="#9d997f" d="M202.7 155.2l-2.3-33 21-1.4 2.2 33z"/><path fill="#788558" d="M18.6 110.8l5.9-45.7L33.1 87l28.3 3.4z"/><circle r="1" fill="#fff9e1" transform="matrix(.5127 5.10099 -2.69287 .27066 33 7.9)"/><circle cx="92" cy="128" r="3" fill="#cfd4ba"/><path fill="#aa957a" d="M193.6 171.1l-.3 1-52.9-15.2.3-1z"/><circle r="1" fill="#8c856a" transform="matrix(2.67238 -1.98862 11.8497 15.92407 38.1 49.9)"/><path fill="#61421a" d="M61.8 16l19.7 33.5-20.3-12.7-1.1 5.4z"/><circle cx="34" cy="129" r="4" fill="#fff"/><circle r="1" fill="#838273" transform="matrix(7.42149 -1.58258 .81797 3.83586 17 156.3)"/><path fill="#f3f9ec" d="M40 62h8v26h-8z"/><path fill="#a29b84" d="M271 35l-7 91-48-6z"/><path fill="#795f41" d="M44.8 123.9l60.3-10.7-59.4 3.9-56 14.3z"/><path fill="#bd8c4a" d="M229 56l-22-3 16 18z"/><path fill="#a6999a" d="M53.1 151.3l-24.4-1 8.6 9.5 4.6-15.6z"/><path fill="#9d9377" d="M184.6 85.8l19.2 33.6-33-16.6 35.3 5.6z"/><path fill="#4e3415" d="M158 78h42v9h-42z"/><path fill="#886d4c" d="M64 23l57-39H73z"/><path fill="#795930" d="M110.7 55.2l12.2 34.2 2.8-16.3-39.6 8z"/><ellipse cx="194" cy="59" fill="#553818" rx="4" ry="37"/><path fill="#d7d2d6" d="M18.9 113l16-1 .2 5-16 1z"/><path fill="#1e1815" d="M63 171l-38-18 7 15z"/><path fill="#fff" d="M62 2h3v15h-3z"/><path fill="#1d0900" d="M228 128h3v32h-3z"/><ellipse cx="157" cy="127" fill="#d7bda6" rx="3" ry="4"/><path fill="#2f1805" d="M18 142h-5l1-66h5z"/><path fill="#733a1a" d="M118 150h30v15h-30z"/><path fill="#d8c8a7" d="M191 98l1-12-20 2z"/><circle r="1" fill="#b7aa8f" transform="rotate(-66.7 126.8 -145.9) scale(29.13999 9.50738)"/><path fill="#5d4d31" d="M183 93l-10 10-12-11z"/><path fill="#8a7d61" d="M209 165h20v5h-20z"/><ellipse cx="163" cy="61" fill="#4a361b" rx="4" ry="32"/><circle cx="177" cy="15" r="11" fill="#4b3313"/><path fill="#787763" d="M153.3 111l-2.7 9.3-35.9 22.3 13.2-24.2z"/><path fill="#fffff7" d="M87 95l-8-3 2 9z"/><path fill="#1e2c14" d="M81.4 125.1l16.5 2.2 1.6 24.3 8.7-51.7z"/><path fill="#a8a891" d="M133.5 114.3l2.9.1 7.9-5.8-18.4-26.1z"/><path fill="#ffffe0" d="M226.6 66.2l6-8 4.8 3.6-6 8z"/><path fill="#baa88b" d="M123.7-12.8l37.4 17.4 3.2 16.6-45.9 41.3z"/><ellipse cx="205" cy="160" fill="#261f17" rx="38" ry="5"/><circle r="1" fill="#767962" transform="matrix(10.3908 -3.24243 2.81151 9.00986 179.6 71.8)"/><ellipse cx="189" cy="102" fill="#423d2e" rx="32" ry="2"/><path fill="#2c0e01" d="M69 144l-25-3 20 16z"/><path fill="#fff" d="M81 17h2v12h-2z"/><path fill="#653518" d="M111.2 57.2L88.5 82.3l-3.9-26.6 32.3-12.6z"/><path fill="#fafffe" d="M49 134h5v5h-5z"/><path fill="#372019" d="M42.5 178l-4-55.9h1l4 55.8z"/><path fill="#756d55" d="M208.5 156.8l-7-.8 4-36.8 7 .8z"/><path fill="#70785c" d="M49 83l-18 31-12-18z"/><path fill="#9f8c6c" d="M88.1-7L133 10.6 83 45.2l9.9 7.3z"/><path fill="#291b11" d="M55 119l23 8-23 4z"/><path fill="#954f43" d="M177 131l-11 7 8-15z"/></g></g></svg>