<svg xmlns="http://www.w3.org/2000/svg" viewBox="0 0 1800 1200"><defs/><filter id="a"><feGaussianBlur stdDeviation="12"/></filter><rect width="100%" height="100%" fill="#544534"/><g filter="url(#a)"><g fill-opacity=".5" transform="translate(3.5 3.5) scale(7.03125)"><circle r="1" fill="#c9b088" transform="matrix(-171.86294 -36.93118 21.04533 -97.93654 69.8 124.6)"/><circle r="1" fill="#ffcf9d" transform="matrix(24.93332 -14.1066 17.93802 31.70534 35.2 115.9)"/><circle r="1" fill="#2e85b4" transform="matrix(56.73134 -14.86413 7.13486 27.23132 151.3 143.2)"/><ellipse cx="203" cy="72" fill="#ad703b" rx="46" ry="45"/><circle r="1" transform="rotate(-170.2 116.2 -4) scale(62.39692 18.84174)"/><circle r="1" fill="#cd5a00" transform="matrix(23.29414 -23.78719 13.40612 13.12824 220.6 155.4)"/><circle r="1" fill="#362615" transform="matrix(-.73577 -6.66353 77.54685 -8.56249 107 52.4)"/><circle r="1" fill="#3e2612" transform="matrix(3.86558 9.81453 -56.88148 22.40354 162.7 110.5)"/><circle r="1" fill="#bbae8a" transform="matrix(-8.48375 -11.66284 32.14553 -23.38322 23.7 7.9)"/><circle r="1" fill="#67401e" transform="matrix(27.39137 -16.46084 10.9732 18.25975 24.8 52.3)"/><circle r="1" fill="#af9f7a" transform="rotate(149.5 68 23.8) scale(54.22514 7.79596)"/><path fill="#93d6e7" d="M162 128l-2 48-31-16z"/><path fill="#ffe" d="M50.2 183.9l-6.5-11.3 32-18.5 6.6 11.3z"/><ellipse cx="88" fill="#080e09" rx="41" ry="20"/><circle r="1" fill="#4c8100" transform="matrix(-4.87093 17.03465 -27.49807 -7.86287 194 169)"/><circle r="1" fill="#0b100c" transform="matrix(3.79425 13.17721 -26.51908 7.63591 172.2 16.7)"/><path fill="#aa8c69" d="M254 68l-50-36-78-2z"/><ellipse cx="131" cy="83" fill="#c2b292" rx="43" ry="10"/><path fill="#b5651d" d="M116 120l-41-11-52 76z"/><path fill="#5f2a02" d="M271 120l-71-43-1 29z"/><ellipse cx="38" cy="129" fill="#f6d3ac" rx="11" ry="31"/><circle r="1" fill="#ad8357" transform="matrix(-11.15337 23.43554 -17.1644 -8.16883 230.8 74)"/><path fill="#1b0e03" d="M100.6 57.5l2-17.9 26.8 2.9-2 17.9z"/><path fill="#3b2f2f" d="M103.7 92.9l28.7-4.7-8.2 14.6-29.5 11.4z"/><circle r="1" fill="#af0d44" transform="matrix(2.33638 -10.7156 23.22303 5.06344 220 152)"/><path fill="#cd8656" d="M21 77l33-27 23 75z"/><circle r="1" fill="#d1da5d" transform="matrix(.23612 8.77673 -20.5584 .55307 221.2 133.3)"/><path fill="#279ebc" d="M214 113h27v12h-27z"/><path fill="#8a6137" d="M39 185l-16-74-39 60z"/><path fill="#201a14" d="M215.7 27.1l11.7 3.9-6.6 42-5.3-25.2z"/><path fill="#ece2a1" d="M113.6 143.2l-10.6-4-8.3.5 5.8 20.2z"/><circle r="1" fill="#2f405c" transform="matrix(27.77449 22.1488 -4.413 5.5339 174.8 127.6)"/><path fill="#ae9f7a" d="M126 105l51-30-45-37z"/><ellipse cx="79" cy="40" fill="#a3a08b" rx="25" ry="12"/><path fill="#cac1ae" d="M84.5 111.7l6.2-30 12-2.4 10 5.8z"/><path fill="#000a0e" d="M13 74L1 54l-17 25z"/><path d="M201 40l-8 6 2 22z"/><path fill="#1a0c00" d="M248 112h8v58h-8z"/><ellipse cx="170" cy="102" fill="#90470d" rx="37" ry="9"/><ellipse cx="207" cy="169" fill="#9bd800" rx="19" ry="11"/><path fill="#000206" d="M214.3 98.8l-17.5-3.3 5.1-10.4 8.4-5.3z"/><path fill="#cf9163" d="M223 50l-18 9-12-42z"/><path fill="#e9ba8f" d="M40.9 92.5L-3.2 147l-11.7-9.4L29.2 83z"/><circle r="1" fill="#492210" transform="rotate(115.1 -2.8 58.5) scale(5.20762 6.6536)"/><path fill="#8ba6bf" d="M192.3 135l22-24.8-1 28.2-10.1 3.2z"/><path fill="#574537" d="M99 123l-17-18-15 39z"/><path fill="#de9f65" d="M179 48l10 29 5-26z"/><path fill="#938b72" d="M267.7 46.4l-36-1.8.6-11 36 1.8z"/><path fill="#e08d2d" d="M29.4 185l-9.9-10.1 27.6-18.5 61.1-32.4z"/><path fill="#5e909a" d="M144.9 114.1l23.5 61.4-4.9-52.9 70.2.1z"/><path fill="#8f896c" d="M118 32h68v8h-68z"/><path fill="#0c120f" d="M158.2 30.1l-32 .8-12.3 2.6 30.3-18.7z"/><path fill="#9a6339" d="M130 57H88l27 32z"/><path fill="#364f4a" d="M180 185l23-45-58 35z"/><ellipse cx="239" cy="169" fill="#bcbb88" rx="6" ry="11"/><circle r="1" fill="#dfb78a" transform="matrix(-7.94217 -28.51084 2.70511 -.75355 63.8 92.8)"/><path fill="#312310" d="M41.5 37l-25.8-3 .8-7 25.8 3.2z"/><path fill="#a8885e" d="M53.9 40.1l-32.7 1.3-21.8 1.9 35.3 12.8z"/><path fill="#844613" d="M208 99.7l44.3 25.9-12.9-32.2-49.7 27.1z"/><path fill="#291a0e" d="M222.3 46.1l1.9.7-3.6 38.2-4-27.9z"/><path fill="#b7713d" d="M184 125l2-46 24-27z"/><path fill="#df6700" d="M88 160l-19 22h62z"/><path fill="#71abba" d="M170 130l-47 1 68 20z"/><path fill="#cc8f5a" d="M220.1 95.4l14.5-63.9-3.2 62.7-27.1-45.4z"/><circle r="1" fill="#6d4624" transform="matrix(-25.64022 -5.63893 1.24535 -5.66259 208.9 24.4)"/><ellipse cx="147" cy="126" fill="#243356" rx="31" ry="4"/><path fill="#0a2537" d="M145 105l28 5-41 5z"/><path fill="#d7234d" d="M208 138h19v20h-19z"/><path fill="#160e05" d="M99.4 46.9l6 .3-.8 16-6-.4z"/><path d="M255 47l-16 4v-5z"/><path fill="#aca790" d="M35 26l37 20-4-21z"/><path fill="#b4b3a1" d="M14 26l-24-6-6 62z"/><circle r="1" fill="#170900" transform="matrix(.04949 3.27506 -9.03103 .13646 75.8 54)"/><path fill="#3e5372" d="M87.1 140.8l-13.6 14.7 38.9-3.1-22.1-4.1z"/><ellipse cx="160" cy="47" fill="#1a1f16" rx="20" ry="4"/><path fill="#a38a5d" d="M24.1 82.3L7 104.3l-11-8.6 17.2-22z"/><path fill="#4a7eab" d="M124 175l14-41-50 25z"/><path fill="#dcba93" d="M28 80l3 81 39-29z"/><path fill="#d2d114" d="M243.2 133.2l-5.7 11.7-20.7-10.1 5.7-11.7z"/><path fill="#baa774" d="M134.6 107.1l-25 11.7 10 3.4 20.6-12.9z"/><path fill="#b19a6e" d="M51.2 75.3L95 53.1l5.9 11.6L57 86.9z"/><ellipse cx="64" cy="17" fill="#37372b" rx="27" ry="6"/><path fill="#352821" d="M116 101l7-13 7 18z"/><path fill="#366180" d="M129 130l19 17-41 3z"/><path fill="#5f4930" d="M187.3 103.6l-5 .8-11.6-66 5-.8z"/><path fill="#99916f" d="M246 97V50l-13 40z"/><path fill="#a6916a" d="M123 61.8l-24.3 3.8L170.1 94l6.3-41.9z"/><path fill="#89c0d2" d="M153 162l20-13-53 5z"/><path fill="#42310f" d="M232 153h24v7h-24z"/><ellipse cx="246" cy="16" fill="#101510" rx="21" ry="18"/><path fill="#694427" d="M225.6 104.7l17-71-7.4 72.2 22.4-14.1z"/><path fill="#43331e" d="M28.3 32.8l-3.2 10.5-13.4-4 3.2-10.6z"/><circle cx="59" cy="79" r="5" fill="#ffdcae"/><path fill="#331b0e" d="M148.3 45.8l4.4-6.6 8.3-4.3 5.7 12.5z"/><path fill="#040300" d="M59 0h46v5H59z"/><path fill="#936a4a" d="M77.2 132.6L59.6 98.3l2.8 50.9L37 161z"/><path fill="#c5bca9" d="M116.2 86.5l-7 7.7L134 83.8 129.7 72z"/><path fill="#3d394c" d="M185.4 166.2l3-9.6-2.6-28.5 16.9 24z"/><path fill="#402b1b" d="M199.8 49l13.1-11.5-20.1 9.4-.4 37.2z"/><path fill="#7d5331" d="M55 77l-4-42 10 9z"/></g></g></svg>