<svg xmlns="http://www.w3.org/2000/svg" viewBox="0 0 4032 2268"><defs/><filter id="a"><feGaussianBlur stdDeviation="12"/></filter><rect width="100%" height="100%" fill="#685b2e"/><g filter="url(#a)"><g fill-opacity=".5" transform="translate(7.9 7.9) scale(15.75)"><circle cx="196" cy="34" r="236" fill="#c5d6f3"/><ellipse cx="167" cy="73" fill="#0b170f" rx="255" ry="16"/><circle r="1" fill="#e2f5ff" transform="matrix(68.18007 5.96498 -3.4506 39.44057 157.9 24.1)"/><ellipse cx="241" cy="51" fill="#0b0d00" rx="15" ry="42"/><ellipse cx="175" cy="106" fill="#eccfa2" rx="52" ry="27"/><circle r="1" fill="#cfdcee" transform="matrix(69.10607 .24123 -.167 47.84039 30 0)"/><circle r="1" fill="#405762" transform="matrix(-2.2765 -28.2943 130.8553 -10.52837 28.6 79.8)"/><circle r="1" fill="#d4ba91" transform="matrix(153.22056 -29.30518 7.72183 40.37317 137.4 143)"/><path fill="#dde8f6" d="M151 54.2l-2.8-55.5 88 .6-1.5 23z"/><circle r="1" fill="#3c3000" transform="rotate(6.7 -536 2061.2) scale(50.85075 15.31468)"/><ellipse cx="255" cy="2" fill="#d7e9ff" rx="12" ry="25"/><circle r="1" fill="#8a949c" transform="matrix(37.60698 10.49467 -3.25604 11.66781 120 9.3)"/><ellipse cx="70" cy="57" fill="#818b99" rx="138" ry="10"/><path fill="#1e2609" d="M217.4 28.7l39 9.3 14.6 4.3-22.7 29.4z"/><path fill="#27281b" d="M163 60l-62 14 124 8z"/><path fill="#190300" d="M235 109l-6 12 1-20z"/><path fill="#eaf2f1" d="M24 18h86v9H24z"/><path fill="#798880" d="M111 80h48v30h-48z"/><path fill="#e5edef" d="M204 52.1l-96.2-13.4 102.6-9.6 22 28.4z"/><circle r="1" fill="#3e4e4b" transform="matrix(99.94133 -13.16946 1.69607 12.87126 69.4 82)"/><path fill="#a1b1bd" d="M234 33.5l8.6-9.7 7.5 6.7-8.7 9.7z"/><path fill="#272a0b" d="M200.2 83.2l4.8-27.6 66 8.5-13.9-36.8z"/><ellipse cx="173" cy="63" fill="#8591a1" rx="29" ry="4"/><circle r="1" fill="#c5b79d" transform="matrix(-6.7 -30.98877 43.94082 -9.50034 174.2 113)"/><path fill="#292d1d" d="M223 25l17-6 6 45z"/><path fill="#8e98a2" d="M9.6 14.5l40.6 45.9 51.2-30.1L-16 38.7z"/><path fill="#e5e0da" d="M39.2 114.3l26.4-8.3-29.3 4-45.7 9.9z"/><path fill="#b4c1ce" d="M232.7 44.3l-9.5 16.4-26-15 9.6-16.4z"/><path fill="#cbb999" d="M138 110l118 31-232 7z"/><ellipse cx="138" cy="74" fill="#2d2d21" rx="87" ry="6"/><ellipse cx="11" cy="95" fill="#586e6c" rx="40" ry="19"/><circle r="1" fill="#d4dbe2" transform="rotate(34 1.7 31.2) scale(45.69648 12.23914)"/><circle r="1" fill="#9a8c77" transform="matrix(2.81608 9.63023 -79.75163 23.321 30.2 127.1)"/><circle r="1" fill="#c3cedb" transform="matrix(-57.26575 30.06519 -7.83085 -14.91556 217.8 .1)"/><path fill="#a0acb4" d="M60.3 31.1l-4.4-13.9-22.6-29.4 105.4 74.7z"/><path fill="#d4c4a7" d="M174 84h37v20h-37z"/><path fill="#536f6e" d="M0 81h149v14H0z"/><path fill="#d6d5cf" d="M70.3 106l-77.5 16.7 120.1-24.3-35 2.5z"/><circle r="1" fill="#f4f9f4" transform="matrix(-36.1966 -2.38827 .40613 -6.15528 164.4 38.8)"/><path fill="#423d18" d="M204.8 54.2l75.6 29-7.2 18.6-75.6-29z"/><path fill="#0e140c" d="M232.3 10l.7-.6L249.7 28l-.7.6z"/><circle r="1" fill="#9da6ab" transform="matrix(-55.11646 -2.22358 .268 -6.64286 85.6 11.6)"/><path d="M237 8h5v7h-5z"/><path fill="#938366" d="M271 98l-32.4 6.3-3-16.8-11.4 1.8z"/><path fill="#0b1608" d="M248.1 29.4l22.9 4.8v89.5l-22.7-86.9z"/><path fill="#4b535e" d="M13 63h80v11H13z"/><path fill="#a9b5be" d="M237.7 36.5l-2.8-7.5 9.4-3.5 2.8 7.5z"/><path fill="#bbc5cc" d="M162 30l51 6-82-38z"/><circle r="1" fill="#7f766c" transform="matrix(.42454 3.68309 -49.474 5.70274 0 125.1)"/><circle r="1" fill="#4e3d0f" transform="rotate(-89.5 172.8 -59) scale(4.43787 3.37493)"/><path fill="#7d756a" d="M123.3 98.4l1 4.9-73.6 14.3-1-4.9z"/><circle r="1" fill="#d2cdca" transform="matrix(.51034 2.92013 -16.98538 2.96849 2.1 119)"/><circle r="1" fill="#aea085" transform="matrix(.5052 4.97362 -53.57776 5.44223 120.2 110.6)"/><path fill="#848b96" d="M0 30h39v5H0z"/><path fill="#b6bfc5" d="M209 46l-58 3 48 11z"/><path fill="#c5cfdb" d="M224.2 55.1L221.3 29l23.8-35.2-74.4 17.3z"/><path fill="#e7e7e0" d="M48.7 111.6l-.2-1 40.8-10.2.2 1z"/><path fill="#3e453d" d="M225.1 45.7l-2.9-.8 2.7-8.6 2.9.8z"/><path fill="#43431d" d="M230 44h20v44h-20z"/><ellipse cx="33" cy="75" fill="#3b3d3d" rx="90" ry="5"/><path fill="#f3f7ee" d="M29.4 14.7l23-.4.2 9-23 .4z"/><path fill="#b9c5de" d="M263-16l8 55-24-18z"/><path fill="#bbcedd" d="M147.8 52.8l-15.1-2.7 33.6-26.7L82 26.9z"/><path fill="#333216" d="M226.1 86.7l-7.9-32-53.4 26.1 29.3-2.6z"/><path fill="#6f7a82" d="M55 47h55v15H55z"/><ellipse cx="154" cy="90" fill="#9d9f94" rx="22" ry="8"/><path fill="#aaa08b" d="M-13.4 140.1l92.7-6.1 12.1 7.8 5-33z"/><path fill="#b7c0bc" d="M226 41h3v17h-3z"/><path fill="#a9b9c2" d="M125.5 54.5L73.3 24.2l54.1 13.4 15.4 21.2z"/><path fill="#8b959a" d="M141 8H95l56 16z"/><path fill="#363c37" d="M233.8 42.4l13.9-32.3-11-1.6 6.4 1.7z"/><path fill="#c1b094" d="M198.6 87.9l72.4 38.6L68.4 159 271 110.8z"/><ellipse cx="171" fill="#dfe9f3" rx="22" ry="11"/><path fill="#949fad" d="M235 13l3 6-10-3z"/><path fill="#6c767d" d="M140 61h50v7h-50z"/><path fill="#4f6d63" d="M98.5 90.1l-38.4 15-18.2 3.8 20.3-22.1z"/><path fill="#99a0a4" d="M-16 38.9l37.4 18.6 59.4-21.6-72.2 8.8z"/><path fill="#b5bdc5" d="M15.8 28.8L.6 7.8l155.6-5.4L52.3-16z"/><path fill="#373c31" d="M235.7 23l-14.6 6.8L234 40.1l-8.1 23z"/><circle r="1" fill="#c4b79e" transform="matrix(-.39965 2.09579 -21.93485 -4.18282 182.1 84.1)"/><circle r="1" fill="#b5c0c8" transform="rotate(40.6 47.7 315.7) scale(2.52345 13.9986)"/><path fill="#413500" d="M237.4 107.7l.2 2-7 .6-.2-2z"/><circle r="1" fill="#85939c" transform="matrix(-1.52341 4.32597 -26.54773 -9.34893 109.2 51.5)"/><path fill="#b4bed5" d="M244.9 8l25.9 4.7L225.4-16l17.7 29.1z"/><path fill="#191a0d" d="M240.2 7.5l.6 35h-1l-.6-35z"/><path fill="#d6e0e2" d="M76.1 14.7l-5.3 8.5 41.2 6.1 5.2-3.5z"/><path fill="#5a4817" d="M234 105l-3 15-3-14z"/><path fill="#d7d3cc" d="M24 111h20v2H24z"/><path fill="#373a36" d="M108 67h70v5h-70z"/><path fill="#5c6557" d="M242.6 47.5l-2.4.1 7.4 1.6-4.1-15.5z"/><path fill="#fffff3" d="M189.1 39.8l-8.3-6.7-28.5 6.6 15.1 3.4z"/><circle r="1" fill="#9ea7b4" transform="matrix(-10.25566 2.45334 -.65648 -2.74428 254.5 13.6)"/><path fill="#9f8f75" d="M231 115h10v7h-10z"/><ellipse cx="215" cy="106" fill="#c0b195" rx="13" ry="19"/><circle r="1" fill="#caba9d" transform="matrix(13.64732 18.00284 -17.04328 12.91991 113.7 140.1)"/><path fill="#598180" d="M125 82l39-3-32 12z"/><circle r="1" fill="#c0b195" transform="matrix(-69.60402 -2.59937 .45892 -12.28872 192.3 130.5)"/><path fill="#252b13" d="M231 51l20 17-23-45z"/><path fill="#807157" d="M271 97l-29 2 19 4z"/><circle cx="235" cy="31" r="2" fill="#99a6b2"/></g></g></svg>