<svg xmlns="http://www.w3.org/2000/svg" viewBox="0 0 1200 1800"><defs/><filter id="a"><feGaussianBlur stdDeviation="12"/></filter><rect width="100%" height="100%" fill="#624236"/><g filter="url(#a)"><g fill-opacity=".5" transform="translate(3.5 3.5) scale(7.03125)"><circle cx="148" cy="167" r="169" fill="#b1cacb"/><circle r="1" fill="#2b0d00" transform="matrix(-27.4246 -7.76038 17.87502 -63.16899 66.8 98.3)"/><circle r="1" transform="rotate(-74.3 177.7 24.2) scale(54.94835 14.15194)"/><ellipse cx="157" cy="148" fill="#eff7f5" rx="30" ry="68"/><circle r="1" fill="#e3eae8" transform="matrix(29.74352 -1.43275 4.3617 90.548 9 174.3)"/><circle r="1" fill="#e7ece6" transform="rotate(-38 214 -120) scale(21.71796 32.85485)"/><ellipse cx="9" cy="58" fill="#151a1a" rx="47" ry="25"/><ellipse cx="83" cy="176" fill="#edf2ef" rx="11" ry="42"/><circle r="1" fill="#000514" transform="matrix(-26.3005 8.0896 -3.73462 -12.1418 48.3 113.6)"/><circle r="1" fill="#89948c" transform="matrix(-27.44782 -21.13767 29.12318 -37.81722 71.4 6.3)"/><circle r="1" fill="#553e39" transform="matrix(9.6742 -69.083 16.11377 2.25653 56.2 211.6)"/><circle r="1" fill="#cfd4d2" transform="matrix(3.97872 18.60876 -132.06859 28.23746 119.8 253.7)"/><path fill="#f2ae2a" d="M98.6 80.5l-10.7 9-38.5-46 10.7-9z"/><path fill="#241a15" d="M100.3 127.1l52.2 98.8-61.7-51.1 3.5-18.9z"/><circle r="1" fill="#332a26" transform="matrix(11.20167 19.6885 -14.59902 8.30603 96.4 58)"/><path fill="#c4c7c3" d="M-16 188.2l102.5 56.1-15.3 4.4L15 98.3z"/><ellipse cx="104" cy="210" fill="#110300" rx="10" ry="31"/><path fill="#d1d5d1" d="M143 238l-29-12 4-38z"/><ellipse cx="53" cy="238" fill="#080809" rx="16" ry="10"/><path fill="#c7ceca" d="M18.7 125.9l31.6-54.8-31.9 13.6-11.1-.5z"/><path fill="#021016" d="M27 111h54v17H27z"/><path fill="#8897ac" d="M39 134l-1-17 49 20z"/><circle r="1" fill="#201611" transform="matrix(14.02424 -26.26506 10.83376 5.78469 112.8 166.5)"/><circle r="1" fill="#ddddd6" transform="matrix(4.68206 5.98502 -11.45578 8.96181 90 138.6)"/><circle r="1" fill="#727a79" transform="matrix(-6.94958 21.78943 -116.42319 -37.13232 83.1 13)"/><path fill="#000308" d="M60.3 225.8l29.3-3.7 15.2 6.9-31.6-15.6z"/><path fill="#945918" d="M82.9 130.9l-4.7-37.7 17-2 4.6 37.6z"/><path fill="#051c2a" d="M57.2 61.5L68 66.6l-23.3 49.9-10.9-5.1z"/><path fill="#2b2a29" d="M149.3 215.7l-19.4-13.6 5.6 19.5 24.6 2.3z"/><path fill="#d1dde1" d="M23 252l14.2-9.2L47 258l-14.2 9.3z"/><path fill="#bcbebc" d="M92.3 60.9l-2.4 30.8 75.3-12.6-16.5 106.6z"/><path fill="#50362c" d="M69.6 207.8L45.9 204l2.5-15.8 23.7 3.8z"/><path fill="#702225" d="M67.9 180.7l7.1-33.3-20.4-12.5-21.2 4.7z"/><path fill="#c6c9c4" d="M143 237l42-51-11 69z"/><path fill="#1e2323" d="M-16 11l40 1-6 69z"/><path fill="#dde2e3" d="M39 199.5l-4.8-33.7 8.9-1.3 4.7 33.7z"/><path fill="#6f808b" d="M53 90h15v16H53z"/><path fill="#c8bfba" d="M111 149l19-24-21 15z"/><path fill="#777b78" d="M168 0L96 77l85 9z"/><path fill="#2d1f1b" d="M110.5 117.1l-13.1 68.6-3.7-27.4 1.9-6.4z"/><path fill="#eef5f2" d="M57 175h4v21h-4z"/><path fill="#d2d3d0" d="M85 176l4 41 7-41z"/><path fill="#01060e" d="M37.6 150.7l8.2 21.9-3.5-25-10-25.6z"/><path fill="#010b0f" d="M41.8 41.3l25.1 40.4 12.5 6.2-.8-6.4z"/><path fill="#19110d" d="M105 69L93 41l15 7z"/><path fill="#635d5c" d="M56 86.3L15.1 55.8l29.3-5.3 71.1 91.4z"/><path fill="#b3b5b1" d="M129.7 220.1l-11.4-39.2 11.2-8.6-13.2 27.6z"/><path fill="#000204" d="M83.1 122.3l-13.6 10.2L57 115.7l13.6-10.2z"/><circle r="1" fill="#b47402" transform="matrix(-15.67121 -24.685 4.0535 -2.57335 80.9 76.8)"/><path fill="#7f7e7b" d="M70 46L33 23l110-39z"/><circle r="1" fill="#e6f3ef" transform="matrix(2.0164 .39018 -1.22408 6.326 73 138.5)"/><path fill="#1c1512" d="M95 172l35-28-5 35z"/><path fill="#c9ccc6" d="M18 84h18v23H18z"/><path fill="#c0bfba" d="M147 210l38 4-59-27z"/><path fill="#aeb2af" d="M80 224l23 33-44-31z"/><ellipse cx="101" cy="219" fill="#281e17" rx="12" ry="20"/><path fill="#19252c" d="M74.3 80.6L62.2 60 41.3 83.2l.5 11.5z"/><circle cx="52" cy="216" r="11" fill="#a5a7a3"/><circle r="1" fill="#c4c8c6" transform="rotate(-67.5 135.2 -37.9) scale(24.24905 14.41051)"/><circle r="1" fill="#67483b" transform="matrix(-6.3083 -2.5181 8.62531 -21.60809 56.9 167.7)"/><path fill="#3c3430" d="M28.4 85.6l6.2-71.9L-.1 84.2l23.9-2.4z"/><path fill="#735d50" d="M88 78l3-19 36 19z"/><path fill="#3d3b3a" d="M50.4 240l2.6 15.9-19.3-19.2 8.1-22.5z"/><path fill="#bfc0bf" d="M20.2 194l27.8-6-4.1-37.4 6.7 15z"/><path fill="#c3c6c3" d="M76.7 137.8l23.3-4.7-12.5 42.7-14.2 38.3z"/><circle r="1" fill="#a7a8a7" transform="matrix(-11.11464 -23.83237 23.39352 -10.90997 15.1 250)"/><path fill="#050707" d="M26.9 124.8l-4.9-5 15.1-14.6 4.9 5z"/><path fill="#4e352a" d="M64 164h9v62h-9z"/><circle r="1" fill="#a0a19d" transform="matrix(-38.80171 12.08683 -1.5517 -4.98132 120 238.3)"/><path fill="#73726c" d="M16 58l49 15-20-18z"/><path fill="#2b2c29" d="M46 207l19-9-21 3z"/><path fill="#78736a" d="M136.8 76L111 79.6 105.2 38l25.8-3.6z"/><path fill="#2e2d2d" d="M158.8 219l-17.8 6.7-1.8-4.6 17.8-6.8z"/><path fill="#818999" d="M40.8 120.5l-6.1 12 16.9 3.5-5.5-12.9z"/><path fill="#b7bbba" d="M138 81h19v35h-19z"/><path fill="#c6c9c5" d="M114 130l63 34-87-86z"/><path fill="#b5b7b1" d="M34 80l-45 15 49 10z"/><ellipse cx="151" cy="249" fill="#777471" rx="7" ry="5"/><path fill="#92928e" d="M116.5 219.9l-8.8 28-19.7-4.4 67.7-19.5z"/><circle cx="142" cy="173" r="16" fill="#c5c7c4"/><path fill="#7d7e79" d="M117 152l-14-3 2 6z"/><ellipse cx="147" cy="18" fill="#848a8a" rx="19" ry="55"/><path fill="#181b1b" d="M72.6 102.4l-35.4 20.5L40.3 86l44.5 53.9z"/><path fill="#d3a042" d="M74 47l-8 16-21-24z"/><circle r="1" fill="#7d7e7a" transform="rotate(157.6 46.9 14.3) scale(69.44962 16.02159)"/><path fill="#c0c0bc" d="M133.1 209.2l51.9-38.3-49.1 22.1 5.1 15.9z"/><circle r="1" fill="#bec0bd" transform="matrix(-25.79363 6.5268 -13.74886 -54.33495 14.2 163.6)"/><path fill="#392f2a" d="M31 9L16 59l18-9z"/><path fill="#504941" d="M15.4 75.7L-16 62.9l56.3-48.4-48.7 14.8z"/><circle cx="105" cy="166" r="13" fill="#231a17"/><path fill="#ababa7" d="M85.3 215.3l3.4 8.2 7.1-41-22.5 30.4z"/><circle r="1" fill="#655d52" transform="matrix(-3.27122 -17.64993 2.157 -.39978 133.3 72.3)"/><path fill="#cfd1ce" d="M118 192l-2 18 17 1z"/><circle cx="90" cy="52" r="13" fill="#322825"/><path fill="#c2c4c1" d="M72 155l14 51 11-84z"/><path fill="#79563f" d="M97 107l2.8 19.7-16.8 2.4-2.8-19.8z"/><path fill="#332924" d="M86.3 238.4l8.2-50.3 27.1-15.6-12.3 63.8z"/><path fill="#727f7e" d="M23-4l6 16-5 20z"/><path fill="#c7c9c5" d="M93 127l12 4-28 26z"/><path fill="#a7a8a5" d="M50.2 205.6l-38.8 3.3 19.3 45.4 7.4-36.8z"/></g></g></svg>