<svg xmlns="http://www.w3.org/2000/svg" viewBox="0 0 4032 3024"><defs/><filter id="a"><feGaussianBlur stdDeviation="12"/></filter><rect width="100%" height="100%" fill="#5b322d"/><g filter="url(#a)"><g fill-opacity=".5" transform="translate(7.9 7.9) scale(15.75)"><circle cx="97" cy="102" r="189" fill="#c4caad"/><ellipse cx="204" cy="100" fill="#413527" rx="111" ry="31"/><circle r="1" fill="#d8e1d6" transform="matrix(-16.39457 23.67677 -109.79633 -76.02658 19.3 169.3)"/><path fill="#fff" d="M74 12h30v30H74z"/><circle r="1" fill="#fff8ff" transform="matrix(-10.27987 5.68085 -10.69734 -19.35754 127 46)"/><circle r="1" fill="#d5d9d5" transform="rotate(131.9 -8 30.4) scale(17.97273 46.50882)"/><circle r="1" fill="#d66c39" transform="matrix(-23.39537 -42.34355 20.61748 -11.39143 72.1 71.4)"/><circle r="1" fill="#42483d" transform="rotate(-53 137.9 14) scale(16.26115 41.71337)"/><path fill="#c3a77d" d="M267 35l4 128-64 6z"/><circle r="1" fill="#35352e" transform="matrix(-20.54726 38.45684 -16.84833 -9.00196 212 99.2)"/><path fill="#110404" d="M119 108L66 81l63 3z"/><circle r="1" fill="#f78e9e" transform="matrix(7.48859 -5.73069 18.4975 24.17163 131 75.5)"/><path fill="#29070e" d="M69.8 46.5l44.1-6.1-3.9 36.1-1.5-18.4z"/><path fill="#fff" d="M101.3 32l2.3-14.5-24-6.8-12.5 41z"/><path fill="#000003" d="M264.8 12.2l-6.9 32.3-12.7-2.7 6.9-32.3z"/><path fill="#302c29" d="M108 20L74-16l61 23z"/><path fill="#e59c7b" d="M133 102l9 20-60 3z"/><ellipse cx="93" cy="161" fill="#e99e82" rx="10" ry="42"/><circle r="1" fill="#60604d" transform="matrix(-8.21688 16.72019 -59.66854 -29.3232 155.2 166.9)"/><circle r="1" fill="#94aab5" transform="matrix(-4.27488 12.36242 -46.68219 -16.14252 174.2 60.4)"/><circle r="1" fill="#afa496" transform="matrix(-40.953 23.84252 -14.91878 -25.62518 209.6 4.1)"/><circle r="1" fill="#000309" transform="matrix(2.07732 4.1124 -26.4953 13.38374 103.4 110.6)"/><path fill="#fff" d="M148 41l-27-8-9 24z"/><circle r="1" fill="#402603" transform="matrix(-47.03415 -14.86415 1.97162 -6.23872 255 73.1)"/><circle r="1" fill="#b9b8b3" transform="matrix(1.75843 -9.21529 50.32001 9.60187 39.2 0)"/><path fill="#563a13" d="M25 56l18-45 2 48z"/><circle r="1" fill="#000003" transform="rotate(65.9 -71.7 105.9) scale(15.42906 3.74833)"/><path fill="#c86b54" d="M109.5 17.6L97.4 45.1l19.2-.6L137 23.2z"/><path fill="#ff9058" d="M96 80.6l-10.6-24 8.9-1.8L124 80.6z"/><circle r="1" fill="#c3c0b6" transform="matrix(-16.61717 33.64904 -10.51717 -5.19378 10.5 65.5)"/><path fill="#ffd0c2" d="M73 108l19.2-5.6L95 112l-19.2 5.6z"/><path fill="#331f00" d="M18 14.1l1.5-4.8L54 20l-1.4 4.8z"/><path fill="#060a0b" d="M125.7 91.7l44 21.4-3.4 7.2-44-21.4z"/><circle r="1" fill="#b8a68c" transform="matrix(-42.08574 -13.46067 2.96982 -9.28534 198 153.7)"/><path fill="#1f2a2e" d="M42.7 101.1l6.4-1.8 11.4 34.8-11.3-59.3z"/><path fill="#4e2820" d="M64.6 52.2l21.7 40.7L83 104 65.2 76.9z"/><circle r="1" fill="#873f40" transform="rotate(-106.4 95.8 -6) scale(33.66443 4.97746)"/><path fill="#d88a7b" d="M69.4 25.9l11.4 3.5-22 9 43.8 65.3z"/><path fill="#59655f" d="M144 64h56v23h-56z"/><path fill="#6c5c4a" d="M98 185l5-65 26-6z"/><path fill="#918e7e" d="M56 165L42 91 7 136z"/><circle cx="161" cy="10" r="6" fill="#0c2f14"/><path fill="#b5ac97" d="M162.3 24.3l-19.5 7.9-13-32.5 19.4-7.9z"/><path fill="#331814" d="M112 70L99 46l8-23z"/><path fill="#e69558" d="M47.5 80.2L77.1 40 54.5 25.2 42.9 40.6z"/><path fill="#383d34" d="M199 170h12v22h-12z"/><path fill="#f4faff" d="M224 11h12v6h-12z"/><path fill="#290a04" d="M80 121h7v15h-7z"/><circle r="1" fill="#9e9c89" transform="matrix(-49.074 -27.42653 5.7019 -10.20234 99.7 191)"/><path fill="#ec9565" d="M102 89l-28 18 27-1z"/><path fill="#dc8969" d="M82 132h20v20H82z"/><path fill="#e5d8c1" d="M98 8l2-24 25 3z"/><path fill="#af9c81" d="M216 123h15v69h-15z"/><path fill="#d0b4b3" d="M98.2 33.7l-33.7.3 3.8 5.5 44.7 7.1z"/><circle r="1" fill="#655336" transform="rotate(102.7 67.5 88.1) scale(4.054 32.27786)"/><path fill="#eda48c" d="M131.3 15.3l3.6 13.5-22.2 6-3.6-13.6z"/><circle r="1" fill="#111211" transform="matrix(-17.75781 21.01353 -2.68018 -2.26493 111 97.9)"/><path fill="#fff" d="M84 11.7l16.5 4.1L96 34.3l-16.4-4.1z"/><path fill="#4f413d" d="M97.8-12.4l10.7 10.6L131.4 2l8.6 32.4z"/><path fill="#d6a670" d="M246 114V73l-16 56z"/><path fill="#e2997d" d="M106.9 121.1l-20.7 12.5 38.4-31 18 6.3z"/><circle r="1" fill="#48443e" transform="rotate(92.9 48.1 148.8) scale(32.41882 24.81462)"/><path fill="#fff" d="M118 43l13 26 1-38z"/><circle r="1" fill="#cdcac2" transform="matrix(23.2574 52.98182 -14.45963 6.34733 0 167.9)"/><path fill="#403a28" d="M229 123l20-58-41 36z"/><path fill="#efaaa4" d="M149 89.9l-11.1-4.4-12.5 2.7 23.3 13.5z"/><circle r="1" fill="#eca096" transform="matrix(-27.3708 4.0906 -.6283 -4.20404 111 75.7)"/><circle cx="93" cy="63" r="11" fill="#be652c"/><path fill="#55452d" d="M16.1 84.2l1.8-.1-13.8 28.7 29.3-5.5z"/><path fill="#f6c1b1" d="M84 163h11v15H84z"/><path fill="#b1bab8" d="M212.7 68.5l-7.8-14.8-4.2-.3-85.9-19.6z"/><path fill="#54442f" d="M-27.4 48.4l75.1 30.3-.3 1-75.1-30.4z"/><path fill="#a79b88" d="M207 32h41v16h-41z"/><path fill="#5c58a0" d="M74 31l2-13-19 8z"/><path fill="#69483a" d="M89.6 164.1l-3.2-29.8 4-.4 3.2 29.8z"/><circle r="1" fill="#898773" transform="matrix(4.92939 -23.59565 39.76322 8.30697 153.6 191)"/><path fill="#c29966" d="M41.5 94.4L40.2 97-1.5 77.6-.2 75z"/><path fill="#74976f" d="M27 16.4L14.4 39-17 21.6-4.4-1z"/><path fill="#fff" d="M112 56h3v13h-3z"/><ellipse cx="173" cy="128" fill="#b6a88f" rx="2" ry="22"/><path fill="#847662" d="M145 136l-24-23 87 22z"/><path fill="#110d0e" d="M78 47h36v4H78z"/><path fill="#ff695c" d="M226 15.5h8v13h-8z"/><path fill="#5c5e4e" d="M84 157l-24.8 3.8-3.1-19.7 24.7-4z"/><path fill="#68563d" d="M267 139l4-14-37 5z"/><circle r="1" fill="#7e6f5c" transform="rotate(-156.8 117.4 48.7) scale(78.98036 2.80948)"/><circle r="1" fill="#c1975f" transform="rotate(101.9 32.6 184.8) scale(19.09964 10.58275)"/><path fill="#6e6e70" d="M195.3 118l-42.8-13.2.8-2.2 52.5 9.4z"/><circle r="1" fill="#7c5e3e" transform="matrix(-70.53024 -11.1467 .19322 -1.22262 224.7 19.8)"/><path fill="#aeb7af" d="M222-16l48 23-33 2z"/><path fill="#d6d9d8" d="M0 42h18v13H0z"/><path fill="#262727" d="M88 74l6-3-9-7z"/><circle r="1" fill="#625d51" transform="rotate(-153.5 87.7 58) scale(49.65026 6.82458)"/><path fill="#223e24" d="M89 5l8 7v-28z"/><path fill="#5a4022" d="M45.8 14.3l-8.1 42.1 2.9-17.9 15.8-19.8z"/><path fill="#673e2d" d="M111 53.9l7.6-13.2-12.5-9-1.9-29.1z"/><path fill="#43605c" d="M80 98l-4 9-10-9z"/><path fill="#231f1a" d="M102 84l29-4-26 30z"/><path fill="#dd8648" d="M45 31l30 69-25-18z"/><path fill="#fff" d="M82 16h23v11H82z"/></g></g></svg>