<svg xmlns="http://www.w3.org/2000/svg" viewBox="0 0 1200 1800"><defs/><filter id="a"><feGaussianBlur stdDeviation="12"/></filter><rect width="100%" height="100%" fill="#2f3f55"/><g filter="url(#a)"><g fill-opacity=".5" transform="translate(3.5 3.5) scale(7.03125)"><circle r="1" fill="#fff" transform="matrix(-40.16322 60.4505 -140.7637 -93.52318 115.5 51.3)"/><circle r="1" fill="#fff" transform="matrix(-123.24223 -49.07799 20.1739 -50.6597 98.7 32.5)"/><circle cx="78" cy="191" r="105" fill="#73635f"/><circle r="1" fill="#6b8ebc" transform="rotate(130.1 40 108.1) scale(34.23707 80.25869)"/><circle r="1" fill="#906242" transform="matrix(-43.79546 .98016 -.65843 -29.42003 7.3 85)"/><circle r="1" fill="#211216" transform="rotate(104.3 -15.5 91.2) scale(43.31317 14.26934)"/><path fill="#e2c6b6" d="M147 72v30H85V72z"/><ellipse cx="134" cy="113" fill="#4a5c7e" rx="82" ry="11"/><ellipse cx="112" cy="38" fill="#ebefe6" rx="134" ry="25"/><path fill="#40342c" d="M65.6 143.4l-4.3 123-51-1.8 4.4-123z"/><ellipse cx="161" cy="181" fill="#5d799b" rx="26" ry="59"/><path fill="#726259" d="M3 62h48v73H3z"/><path fill="#e2d3c5" d="M48.2 50l28.2 7.1-14.1 52-12-18.4z"/><path fill="#2c221d" d="M80 242h66v14H80z"/><path fill="#191926" d="M91.8 151.6l-2.7-42-39 44.7 1.4 16.6z"/><ellipse cx="97" cy="235" fill="#a49896" rx="29" ry="5"/><path fill="#cdbeb7" d="M87 66h83v36H87z"/><ellipse cx="94" cy="195" fill="#625047" rx="44" ry="36"/><path fill="#5f443b" d="M69.9 106.9L49.5 92.6l1-23.9L-.9 51z"/><ellipse cx="65" cy="1" fill="#c9dde8" rx="169" ry="25"/><circle r="1" fill="#7187a4" transform="rotate(47.6 -99.8 205.1) scale(53.20536 12.64616)"/><ellipse cx="6" cy="196" fill="#7c6f68" rx="5" ry="61"/><circle r="1" fill="#6d493c" transform="matrix(4.12965 17.20123 -8.05203 1.93312 71.4 110)"/><path fill="#dbd0c3" d="M85.4 78.9L60.3 97.3 44.4 58.5l140.6.6z"/><ellipse cx="153" cy="132" fill="#5f7595" rx="65" ry="31"/><ellipse cx="8" cy="66" fill="#7e6354" rx="3" ry="23"/><path fill="#ddded8" d="M81.6 66.6L45 65.4l-28.8-8.9L-7 18.1z"/><path fill="#040814" d="M68.1 163.9l-20.8 2.7 4.9-8.8 12.7-41.6z"/><path fill="#131011" d="M102 240l-29 1 45 12z"/><path fill="#615f63" d="M44.7 167.9l29.4-6.2 5.2 24.4-29.4 6.2z"/><path fill="#766259" d="M65 109l-15 45-29-92z"/><path fill="#8b7969" d="M4 97.1L.1 69.4 18 66.9l3.9 27.7z"/><path fill="#9a8e8f" d="M119 233l25 9-27-2z"/><path fill="#553f32" d="M105 219h32v15h-32z"/><path fill="#26344c" d="M146 225.8L135.1 267l49.9-9.6-28.9-12.3z"/><path fill="#cabfbd" d="M185 93l-82 8-64-41z"/><path fill="#47607f" d="M139 189h31v60h-31z"/><circle r="1" fill="#78869a" transform="matrix(.89437 -15.51116 41.31977 2.38248 169 174.5)"/><path fill="#5c4d45" d="M146 257L20 271l2-37z"/><circle r="1" fill="#dfe5e3" transform="matrix(-2.6049 -17.9286 7.71716 -1.12125 0 33.9)"/><path fill="#3b353b" d="M62.9 146.4l33.6 12.1-5.5-16.9 2-27.1z"/><path fill="#413b3c" d="M20.5 80.4l10.4-1.9L12 142.1l18.2 12.6z"/><path fill="#6b6d77" d="M81 156h21v15H81z"/><circle r="1" fill="#3e3035" transform="matrix(-1.83666 -5.60918 11.26385 -3.6882 75.4 96)"/><path fill="#8d6b65" d="M67 121l15-14-4 20z"/><path fill="#444245" d="M52.2 215.3l-6.8-14.5 64.4-30 6.8 14.4z"/><path fill="#17161c" d="M50 109l1-10 6 15z"/><path fill="#312f30" d="M27 203L8 241l8-62z"/><path fill="#1f1b23" d="M61.5 114l7.5 53.8-4.1-67.6 11.7 7.5z"/><ellipse cx="38" cy="168" fill="#80746e" rx="14" ry="3"/><path fill="#6a6364" d="M11 93l26 44 19-43z"/><path fill="#697c99" d="M156.4 200.4l-20.4-7.6 5.5 26.1 9.8-1.4z"/><circle r="1" fill="#8d817d" transform="rotate(-83.8 119.5 97) scale(38.22583 1)"/><path fill="#473930" d="M-4.7 196.2l11 .6-1.6 31-11-.6z"/><path fill="#798fae" d="M96 132l-10.6-31.3-6 10.5 51.6 20.4z"/><path fill="#5e3f41" d="M-9.1 65.5l65.3 5.7-41.9-14.8L-16 76.2z"/><ellipse cx="110" cy="212" fill="#6c584f" rx="30" ry="13"/><ellipse cx="53" cy="222" fill="#55463f" rx="34" ry="12"/><path fill="#2e2a2e" d="M156.5 251.7l-.5-8.4-17.3-5.9-17.2-10.8z"/><path fill="#a7b3c2" d="M135.9 164.9l-10.3 4-1.5-3.8 10.3-4z"/><circle r="1" fill="#a59893" transform="matrix(-6.2073 -1.29677 .60952 -2.91761 13.7 90.2)"/><path fill="#394963" d="M74.3 129.1l8.8 11.8-7.7 9-6.3 1.7z"/><path fill="#85838a" d="M79 230h31v6H79z"/><ellipse cx="155" cy="109" fill="#506a8f" rx="56" ry="7"/><path fill="#786256" d="M11.2 73L9.4 43.9l-6.3 15 34.9 20z"/><path fill="#cabfbd" d="M87 72h83v30H87z"/><path fill="#56372f" d="M57.6 142.6L45.7 163l5.3-32.3 5.6-21.7z"/><path fill="#1c1c29" d="M82 137.4l-1.4 23.4 8.4-31.1-16.2-4.7z"/><path fill="#80726d" d="M46.3 114.7l21.7-3.5-15.6 9.2-31.7-54.1z"/><path fill="#d1c7c4" d="M50 70h14v23H50z"/><path fill="#575559" d="M21.4 102.5l-1.8 52-25-1 1.8-52z"/><circle r="1" fill="#6a686d" transform="rotate(-99.7 67.7 79) scale(36.26984 9.85938)"/><path fill="#57565c" d="M39.3 198.7l56-33.4-12.9-1.8 9.3 29.4z"/><path fill="#181518" d="M88 241h35v3H88z"/><ellipse cx="167" cy="245" fill="#6380a9" rx="11" ry="3"/><path fill="#152637" d="M153 213h17v2h-17z"/><ellipse cx="89" cy="129" fill="#7e4e36" rx="2" ry="16"/><path fill="#8091a8" d="M123 166l-11-20 39 22z"/><path fill="#21272c" d="M12 228h7v22h-7z"/><path fill="#dcdad0" d="M10 52l46 16V54z"/><path fill="#141623" d="M61.9 160.2l.5-42.7 23.9 23.2-9.3-14.9z"/><path fill="#100b0b" d="M141 248l24 16-32 7z"/><path fill="#0e1012" d="M55 241v-9l9 1z"/><path fill="#3b383c" d="M12 138h25v24H12z"/><circle r="1" fill="#6f504a" transform="matrix(-1.8128 -1.68983 10.25462 -11.00092 77.2 103.1)"/><path fill="#ccc3c0" d="M123.4 68.6l-73.5 7.5 76.8 26.3-44.2-.4z"/><path fill="#50647e" d="M145 164l13-1-14-30z"/><path fill="#2a282d" d="M145 229h4v15h-4z"/><path fill="#6f605c" d="M127 240h11v8h-11z"/><path fill="#2c425b" d="M131.3 173.4l-.5-4 6-.8.4 4z"/><path fill="#7b6958" d="M0 68h51v10H0z"/><path fill="#7d7574" d="M87.2 251.8l8.6.9L81.3 271h7z"/><path fill="#726968" d="M58 92L6 95l42 10z"/><path fill="#6b829e" d="M91 139l41 20-39-45z"/><circle r="1" fill="#e4e4de" transform="matrix(70.54586 1.20158 -.20512 12.04274 104 44.8)"/><path fill="#4f6481" d="M185 167.9l-35.4-41.5 21.5 6.5-1.3-17.6z"/><path fill="#29201c" d="M70 224h12v5H70z"/><path fill="#433b39" d="M121 185h13v14h-13z"/><path fill="#26252d" d="M77 144l-1 12 28-3z"/><path fill="#7c8da6" d="M58 110h6l-2-11z"/></g></g></svg>