<svg xmlns="http://www.w3.org/2000/svg" viewBox="0 0 1800 1012"><defs/><filter id="a"><feGaussianBlur stdDeviation="12"/></filter><rect width="100%" height="100%" fill="#283551"/><g filter="url(#a)"><g fill-opacity=".5" transform="translate(3.5 3.5) scale(7.03125)"><circle r="1" fill="#bedffd" transform="matrix(3.85549 66.92411 -232.50954 13.39484 62.9 61.7)"/><ellipse cx="26" cy="68" fill="#e1edf2" rx="158" ry="20"/><circle r="1" fill="#4d5d6e" transform="rotate(86.6 -1.6 121) scale(32.55965 153.81998)"/><circle r="1" fill="#264d8a" transform="rotate(95.6 86.7 92.5) scale(35.31621 86.8381)"/><circle r="1" fill="#bdd3ee" transform="matrix(18.08392 -50.29292 46.29953 16.64801 13.6 43)"/><ellipse cx="107" cy="37" fill="#6186b5" rx="57" ry="34"/><path fill="#a88b6f" d="M116 81h140v14H116z"/><circle r="1" fill="#6887ac" transform="matrix(1.44852 21.7999 -51.37778 3.41385 11.5 118.9)"/><path fill="#e6ddca" d="M136 66h66v15h-66z"/><ellipse cx="178" cy="115" fill="#415979" rx="144" ry="21"/><circle r="1" fill="#8aa7cc" transform="rotate(129.5 19.3 29.1) scale(28.70777 49.40273)"/><circle r="1" fill="#3b5885" transform="matrix(2.32327 23.8369 -98.3412 9.58485 222 5)"/><path fill="#e0e4de" d="M49 66l4.4 20.6L-19 102l-4.4-20.6z"/><path fill="#011d3c" d="M166 158l65-28-151 11z"/><ellipse cx="85" cy="91" fill="#524842" rx="57" ry="4"/><path fill="#5d83b0" d="M159 38h97v29h-97z"/><path fill="#88a1b9" d="M189 63h67v22h-67z"/><circle r="1" fill="#acc1d6" transform="matrix(-11.46824 15.40544 -37.7034 -28.06747 37.5 57)"/><path fill="#5777a3" d="M71-16l145 64-93 15z"/><path fill="#e3ded3" d="M161.7 70.8l-6.1-12.9-48.5 32.3 66.2-25.5z"/><ellipse cx="56" cy="116" fill="#587293" rx="34" ry="21"/><path fill="#7e797a" d="M136 79h26v42h-26z"/><path fill="#d1d6d5" d="M73.3 87.4L7.4 90.9l80.7-21.5 25.8 9z"/><path fill="#7091bb" d="M78-14l56 91L-3-12z"/><circle r="1" fill="#19304c" transform="matrix(-1.06545 7.21524 -25.78448 -3.80752 196.1 134.5)"/><path fill="#3d5574" d="M253 94l17 56-126-40z"/><path fill="#748ba7" d="M0 95h18v45H0z"/><ellipse cx="222" cy="93" fill="#ab9682" rx="81" ry="3"/><path fill="#68605d" d="M80 86h60v10H80z"/><ellipse cx="102" cy="127" fill="#283e5d" rx="34" ry="4"/><circle r="1" fill="#3b5683" transform="matrix(-1.1016 17.54993 -55.80563 -3.50291 210.5 1)"/><circle r="1" fill="#91aaca" transform="matrix(8.43798 -12.71819 40.23137 26.6918 56.3 41.6)"/><path fill="#4b5a72" d="M205.3 83.2l2.1 53.6L168 98.1l67-8z"/><path fill="#d6dee2" d="M0 66h23v29H0z"/><path fill="#3e5370" d="M147 85l-92.5 63.4 82.3-28.2L124 99.1z"/><circle r="1" fill="#98a4ae" transform="matrix(39.61764 .62236 -.05888 3.748 190.3 76.7)"/><path fill="#6a7685" d="M134 114h57v6h-57z"/><path fill="#213a5c" d="M13 138h101v5H13z"/><path fill="#6983a1" d="M-16 98l77.4-3.5-47.2 31.4 60.1-6.9z"/><path fill="#425978" d="M33 122h42v10H33z"/><path fill="#847a72" d="M100.9 86.5l44.8-7.1-43.3 17.4.2-5.2z"/><path fill="#849eb9" d="M150.2 56.2l-5.7 6.9-76-17.9 53 35.5z"/><path fill="#3d5269" d="M27 92h55v4H27z"/><path fill="#3f597c" d="M192 95h64v15h-64z"/><path fill="#dcddd8" d="M121.7 79.3l38.4-21.9-10.5 23.1-10.1-.5z"/><path fill="#5b616f" d="M177 84h40v5h-40z"/><path fill="#6e8eb1" d="M271 63.8L94.3 44.7l33.3 9.1 125.5 24.8z"/><path fill="#e8e7df" d="M83 71l23 3-29 5z"/><path fill="#beaa93" d="M223 90h23v5h-23z"/><circle r="1" fill="#4c6a97" transform="rotate(111.8 67.2 61.3) scale(13.54013 37.60958)"/><path fill="#545e6e" d="M177.8 135.1l-52.7 3.3 7.4 1.3 24.3-12.8z"/><circle r="1" fill="#1e334f" transform="matrix(28.77122 -1.6998 .11878 2.01045 195 128.6)"/><path fill="#746a65" d="M148 90l35-7-43-3z"/><path fill="#bbbcbc" d="M193.1 87l3.9-15.1-3.4-5.6-20.7 5z"/><circle r="1" fill="#5777a3" transform="matrix(.04224 -9.50929 70.07113 .31128 246.9 45.9)"/><path fill="#2f425c" d="M178 114.8l-20-.7v-5l20 .8z"/><ellipse cx="228" cy="137" fill="#16314e" rx="52" ry="4"/><path fill="#a98c73" d="M146.2 96.6L163 84.4l16.5 6.8-8.3.2z"/><circle r="1" fill="#a9bdd3" transform="matrix(2.8045 -5.77564 38.62274 18.7542 48.7 65)"/><ellipse cx="239" cy="81" fill="#7891ac" rx="21" ry="6"/><path fill="#bcb9b4" d="M120 87v-9l-15 2z"/><circle r="1" fill="#d3d2ca" transform="matrix(-3.73927 4.7578 -3.00884 -2.36472 151 76.7)"/><path fill="#f6f6ee" d="M153.8 63.9l.3 2-15.9 2.2-.3-2z"/><path fill="#727982" d="M132 133h29v2h-29z"/><path fill="#4e6786" d="M25.9 119.2L10 110.9l112 8.4-48.6-8.6z"/><path fill="#7f8d9c" d="M146 95h11v8h-11z"/><path fill="#061d39" d="M153 124h13v2h-13z"/><path fill="#b7a28a" d="M189 89h14v6h-14z"/><ellipse cx="11" cy="87" fill="#d6dddf" rx="21" ry="8"/><path fill="#92a9be" d="M87 69l52-6-7 13z"/><path fill="#1d3555" d="M102 134h31v7h-31z"/><path fill="#4d6483" d="M88.1 94.2l13.5 28.9L127.2 98l25-3z"/><path fill="#627ea1" d="M21 96h87v5H21z"/><path fill="#6b83a0" d="M66.7 103.7l-51.4 21.9 35.1-4.1-10.2-20.4z"/><path fill="#85a1c7" d="M77.2 32.1L69 44.7-49.2-32.1l8.2-12.6z"/><circle r="1" fill="#091f3a" transform="matrix(-.3543 -2.26254 30.61448 -4.7941 140.6 141.9)"/><path fill="#d6d7d4" d="M167.4 76.8l-14.1-16.7-8.3 4.7 51.1 2.5z"/><path fill="#5b6276" d="M220 87h29v2h-29z"/><path fill="#a88e77" d="M142 92l-12-10 14 1z"/><path fill="#57677f" d="M157 95h30v15h-30z"/><circle r="1" fill="#b8cadc" transform="matrix(-20.91693 -20.6269 7.81852 -7.92845 7.4 58)"/><path fill="#5f7fad" d="M107.6 45.7l7-61.7h13.6L65.9-5.4z"/><path fill="#536a88" d="M26 137l21-13-49 10z"/><path fill="#40597b" d="M0 141h46v2H0z"/><path fill="#bbc2c5" d="M105 84l-9-6-9 6z"/><path fill="#667890" d="M56 117h54v4H56z"/><ellipse cx="236" fill="#3a5783" rx="66" ry="12"/><path fill="#4a6382" d="M78.4 130.4l26.2 3.4-64.9.3 56.5 4.2z"/><path fill="#9cb4d0" d="M98 71L20 53l31-14z"/><ellipse cx="108" cy="128" fill="#253b58" rx="34" ry="2"/><path fill="#c6c0b9" d="M210 78l7 4-13-1z"/><path fill="#f5f5f1" d="M150 59h5v10h-5z"/><path fill="#716f71" d="M148 85.7l-15.8-3.2 63 7.5-32.3-10.5z"/><path fill="#3e5571" d="M125 104h64v2h-64z"/><path fill="#2b4260" d="M219 123h35v6h-35z"/><path fill="#7492b2" d="M160 59h54v7h-54z"/><path fill="#203450" d="M204 128.5l-11.5 1.9 33.8 27.6-62.7-27.8z"/><path fill="#3f5164" d="M38 89h33v6H38z"/><path fill="#7790ad" d="M-5 132.3l-11-45.8L24 107l-15.9 3.4z"/><path fill="#3c5372" d="M216.8 132.2l54.2 17.5-36.9-55.1 32.4 63.4z"/></g></g></svg>