<svg xmlns="http://www.w3.org/2000/svg" viewBox="0 0 1800 1200"><defs/><filter id="prefix__a"><feGaussianBlur stdDeviation="12"/></filter><rect width="100%" height="100%" fill="#474149"/><g filter="url(#prefix__a)"><g transform="translate(3.5 3.5) scale(7.03125)"><circle r="1" fill="#fff" fill-opacity=".5" transform="rotate(169.7 54.8 19.6) scale(253.16042 43.29291)"/><circle cx="212" cy="17" r="161" fill="#b5b7ab" fill-opacity=".5"/><ellipse cx="157" cy="15" fill="#fff" fill-opacity=".5" rx="134" ry="17"/><circle r="1" fill="#646059" fill-opacity=".5" transform="matrix(-23.23548 -57.77197 208.29349 -83.77418 125 134.5)"/><circle r="1" fill="#768b96" fill-opacity=".5" transform="matrix(-24.96614 -4.2227 23.30204 -137.76992 -.2 98)"/><path fill="#f2f6f2" fill-opacity=".5" d="M181.3 28.8l79.5-26.5L25-16l13.7 47.9z"/><path fill="#fff" fill-opacity=".5" d="M73 70L45 53l84 5z"/><circle r="1" fill="#5d6161" fill-opacity=".5" transform="matrix(-3.02837 -15.15552 97.6532 -19.51304 74.4 88)"/><path fill="#a4b5c9" fill-opacity=".5" d="M14 184.6l-11.9 1.7L-14 71.4l11.9-1.7z"/><circle r="1" fill="#65584c" fill-opacity=".5" transform="rotate(-42 238 -110.1) scale(45.37615 31.23735)"/><circle r="1" fill="#16242e" fill-opacity=".5" transform="rotate(-12.8 353 -863.8) scale(83.17021 1.8214)"/><ellipse cx="142" cy="40" fill="#8192a2" fill-opacity=".5" rx="113" ry="11"/><path fill="#ccd4db" fill-opacity=".5" d="M210.9 100.7l7.8 27.5-19-32.7 7.5 1.1z"/><path fill="#232932" fill-opacity=".5" d="M5.8 135.5l-.5-48.6 8.1 23.3 8.1 69.5z"/><path fill="#070e18" fill-opacity=".5" d="M78 102L52 89l35 1z"/><path fill="#3e4041" fill-opacity=".5" d="M245 43l26 20-101 5z"/><path fill="#818a91" fill-opacity=".5" d="M23-17.3L39.5 34 11 43.3-5.6-8z"/><path fill="#9dabb3" fill-opacity=".5" d="M35 83h64v4H35z"/><ellipse cx="224" cy="83" fill="#887d70" fill-opacity=".5" rx="117" ry="16"/><path fill="#d8ddd8" fill-opacity=".5" d="M127 51l-79 5 16 17z"/><circle r="1" fill="#818682" fill-opacity=".5" transform="rotate(169.1 40.6 35.5) scale(79.1952 1)"/><circle r="1" fill="#79736f" fill-opacity=".5" transform="rotate(-91 190.5 -21.1) scale(47.43535 59.77173)"/><path fill="#7f8892" fill-opacity=".5" d="M15.9 162.3L72.2 185H25l5.7-36.2z"/><path fill="#34393c" fill-opacity=".5" d="M107.6 167.2L95.8 185H68.4l24.1-55.4z"/><circle r="1" fill="#665d54" fill-opacity=".5" transform="rotate(-62.8 199.5 -32.5) scale(85.45314 20.18691)"/><path fill="#353a44" fill-opacity=".5" d="M225.4 113.1l4.3 12.6-9.8-.7-7.8-27.5z"/><path fill="#968677" fill-opacity=".5" d="M88 111l-4-19h62z"/><path fill="#e7e8e5" fill-opacity=".5" d="M39 6h199v25H39z"/><path fill="#46484a" fill-opacity=".5" d="M16 81l8 32 80-24z"/><ellipse cx="49" cy="84" fill="#6a7987" fill-opacity=".5" rx="24" ry="5"/><path fill="#808892" fill-opacity=".5" d="M23.9 133.9l-22.2 6.8 26.1 2.9-2 .3z"/><circle r="1" fill="#879191" fill-opacity=".5" transform="matrix(-50.63237 2.55597 -.18468 -3.6584 15 0)"/><circle r="1" fill="#7a858b" fill-opacity=".5" transform="rotate(-12 384.4 -544) scale(80.49466 4.25567)"/><path fill="#f2f5f2" fill-opacity=".5" d="M57 53l46 2-49 11z"/><path fill="#ecf2f2" fill-opacity=".5" d="M205 99h5v12h-5z"/><path fill="#1d2126" fill-opacity=".5" d="M105 78l-15 5-9-4z"/><circle cx="22" cy="54" r="29" fill="#8d99a6" fill-opacity=".5"/><circle r="1" fill="#b8c5d0" fill-opacity=".5" transform="matrix(66.13324 -13.93646 .435 2.0642 175 49.9)"/><path fill="#bbb5a8" fill-opacity=".5" d="M154 72l-1-6 15 3z"/><path fill="#b3aca0" fill-opacity=".5" d="M72 87.3l69.8-13.6.1 1-69.7 13.6z"/><ellipse cx="66" cy="125" fill="#57585a" fill-opacity=".5" rx="23" ry="30"/><path fill="#171c20" fill-opacity=".5" d="M110 74h20v4h-20z"/><path fill="#807972" fill-opacity=".5" d="M214 124l-45 42 23-92z"/><path fill="#89959e" fill-opacity=".5" d="M23 32h102v21H23z"/><circle cx="16" cy="149" r="6" fill="#0e161e" fill-opacity=".5"/><ellipse cx="86" cy="90" fill="#151117" fill-opacity=".5" rx="14" ry="2"/><circle cx="14" cy="130" r="6" fill="#28272a" fill-opacity=".5"/><circle r="1" fill="#e3e8e4" fill-opacity=".5" transform="matrix(6.06657 3.72151 -14.57984 23.76712 252 5.7)"/><path fill="#1c1716" fill-opacity=".5" d="M95.8 91.5l-.4-1 14.8-6 .4 1z"/><path fill="#01090f" fill-opacity=".5" d="M214.5 53l.5 1.9-15.5 4.1-.5-1.9z"/><path fill="#dee7e7" fill-opacity=".5" d="M71 84h17v2H71z"/><circle r="1" fill="#6d635c" fill-opacity=".5" transform="rotate(58.8 -58.6 172.9) scale(35.68991 24.05152)"/><path fill="#b2ab9f" fill-opacity=".5" d="M126 77l11-8-6 9z"/><path fill="#212223" fill-opacity=".5" d="M16 108l-10 3 11 6z"/><circle cx="107" cy="80" r="3" fill="#ccc6b8" fill-opacity=".5"/><circle cx="247" cy="88" r="26" fill="#7e7a73" fill-opacity=".5"/><circle r="1" fill="#848d94" fill-opacity=".5" transform="rotate(83.6 -12 16) scale(23.66986 31.00404)"/><circle r="1" fill="#6d6b68" fill-opacity=".5" transform="matrix(35.17385 -20.43028 10.58674 18.2267 241.7 169)"/><path fill="#151d24" fill-opacity=".5" d="M71.3 81.9l.2 1L36.7 92l-.2-1z"/><path fill="#9aa0a2" fill-opacity=".5" d="M214 57l8-2-5-4z"/><circle r="1" fill="#7e847b" fill-opacity=".5" transform="matrix(.21694 .97618 -81.85191 18.19024 242 30.7)"/><path fill="#dce1dd" fill-opacity=".5" d="M247.4-9.5l9.9 38.1-19.6 4.1 32.4 1.8z"/><path fill="#f7f8f3" fill-opacity=".5" d="M123 56h16v3h-16z"/><path fill="#6c6e72" fill-opacity=".5" d="M27.2 125.9l-25.4 1.7 21.9-15.5-2.5 38.4z"/><path fill="#9aa9ae" fill-opacity=".5" d="M290.2 30.5l.2 1-164.6 38-.2-1z"/><path fill="#858990" fill-opacity=".5" d="M9 102h12v6H9z"/><path fill="#8c97a4" fill-opacity=".5" d="M6.1 125.1L-16 157.4 19.5 185l-10-31.7z"/><path fill="#797f82" fill-opacity=".5" d="M164.1 54l95.7-18.5-139.5 34.1-5.8-5.1z"/><path fill="#96968e" fill-opacity=".5" d="M144.2 51.2L84 63.3l-23.1 2.8 7.5 2.3z"/><circle r="1" fill="#18202b" fill-opacity=".5" transform="matrix(13.36417 3.50602 -.67694 2.58033 69.3 93.7)"/><circle r="1" fill="#797671" fill-opacity=".5" transform="matrix(-.23015 -.97315 107.00846 -25.3076 231.4 54.3)"/><path fill="#5e6265" fill-opacity=".5" d="M25.8 84.3l20 11.6-41.6-2.7 6.1-9.2z"/><path fill="#3b3631" fill-opacity=".5" d="M129 179l-.7-.6 36.7-35.5.7.7z"/><path fill="#292b2e" fill-opacity=".5" d="M3.8 99l10.6-2.8 1.8 6.8-10.6 2.8z"/><path fill="#8f9aa2" fill-opacity=".5" d="M-5.5 59.3l10.9 53.1-5.1-10.5 17.9-43.8z"/><path fill="#bdc9d1" fill-opacity=".5" d="M235.4 48.7l3.6 1.7-.4 1-3.6-1.8z"/><path fill="#2a2b2c" fill-opacity=".5" d="M134 68h12v4h-12z"/><circle r="1" fill="#78746f" fill-opacity=".5" transform="rotate(-4.4 2008 -2517) scale(33.17434 31.24807)"/><path fill="#87939c" fill-opacity=".5" d="M39.3 84.1l-3 4.4 23.9-5.4 17.1-4.2z"/><circle r="1" fill="#6d6e69" fill-opacity=".5" transform="matrix(-.21259 -.97714 74.22925 -16.14946 228.8 43.4)"/><circle r="1" fill="#dee1e0" fill-opacity=".5" transform="matrix(-43.74839 8.4005 -.40545 -2.1115 103.4 64)"/><path fill="#4c4948" fill-opacity=".5" d="M257.4 61.4l-81.5 7.2L271 45.9l-38.8 19.3z"/><path fill="#01070d" fill-opacity=".5" d="M181 60h11v2h-11z"/><circle r="1" fill="#b2b5b5" fill-opacity=".5" transform="matrix(10.6732 1.72307 -.15938 .98722 90 87)"/><path fill="#ced0cd" fill-opacity=".5" d="M210 114l9 4-14-12z"/><path fill="#81776c" fill-opacity=".5" d="M91.6 109.8l9.1-15.4 17.9-14.5 39.4 21.7z"/><circle r="1" fill="#767b85" fill-opacity=".5" transform="rotate(162.7 19 49.2) scale(18.15814 1)"/><circle r="1" fill="#7e8895" fill-opacity=".5" transform="matrix(-5.23054 1.95265 -1.25228 -3.35446 21.4 160.7)"/><circle r="1" fill="#343b41" fill-opacity=".5" transform="matrix(6.05966 28.97886 -2.65544 .55527 12.6 146.4)"/><path fill="#778086" fill-opacity=".5" d="M44.2-16L3.1 33.4 17.5 1.2l30.2.3z"/><path fill="#3a3530" fill-opacity=".5" d="M129.2 170.4l41-39.6.6.8-41 39.6z"/><path fill="#45403a" fill-opacity=".5" d="M159.4 128.3l.7.7-35.5 36.7-.7-.7z"/><path fill="#aaa093" fill-opacity=".5" d="M252.8 124.2L206 196.3l-.8-.5 46.8-72.1z"/><path fill="#778796" fill-opacity=".5" d="M9.1 158.2l-7.6-82-7 14.5 9.6 60.7z"/><path fill="#959faa" fill-opacity=".5" d="M39 35l13 27-68 23z"/><circle r="1" fill="#8b979f" fill-opacity=".5" transform="matrix(.20962 .97778 -106.77341 22.89024 141.1 64.8)"/><path fill="#9c9388" fill-opacity=".5" d="M215.3 152.4l19.6-27.5-24.7 36.3-19.4 21.2z"/><path fill="#a0aab1" fill-opacity=".5" d="M194.1 57l6.2 3.1-.4 1-6.2-3.2z"/><path fill="#9c9389" fill-opacity=".5" d="M220.5 185l19-30.9 21.2-33-37.4 55.4z"/><path fill="none" stroke="#9a8c7d" stroke-opacity=".5" stroke-width=".5" d="M184.1 118.2q-44.6 51.1-71.3 66.8"/></g></g></svg>