<svg xmlns="http://www.w3.org/2000/svg" viewBox="0 0 1800 1013"><defs/><filter id="prefix__a"><feGaussianBlur stdDeviation="12"/></filter><rect width="100%" height="100%" fill="#364a67"/><g filter="url(#prefix__a)"><g transform="translate(3.5 3.5) scale(7.03125)"><ellipse cx="122" cy="45" fill="#fff" fill-opacity=".5" rx="255" ry="55"/><circle r="1" fill="#d5e8fe" fill-opacity=".5" transform="matrix(-254.25165 19.52172 -3.85496 -50.20723 150 29.8)"/><ellipse cx="125" cy="96" fill="#2c476b" fill-opacity=".5" rx="77" ry="6"/><ellipse cx="240" cy="83" fill="#cfe1fa" fill-opacity=".5" rx="46" ry="14"/><circle r="1" fill="#cbd8e6" fill-opacity=".5" transform="rotate(-100.7 45 24.5) scale(23.72595 50.2423)"/><ellipse cx="90" cy="108" fill="#2a4d6f" fill-opacity=".5" rx="20" ry="29"/><path fill="#4a4c52" fill-opacity=".5" d="M215.1 111.3l-27.8-34.7-34.8 10.9 40.6 2.4z"/><path fill="#ccdbf4" fill-opacity=".5" d="M119 81h30v15h-30z"/><ellipse cx="19" cy="121" fill="#326691" fill-opacity=".5" rx="58" ry="25"/><ellipse cx="171" cy="123" fill="#234f74" fill-opacity=".5" rx="117" ry="28"/><ellipse cx="17" cy="26" fill="#c4d0df" fill-opacity=".5" rx="73" ry="71"/><circle r="1" fill="#a8b7cd" fill-opacity=".5" transform="rotate(67.5 30 143) scale(25.19099 49.34409)"/><path fill="#6e6b73" fill-opacity=".5" d="M51 88l54-9-34 21z"/><ellipse cx="232" cy="66" fill="#b3c3d7" fill-opacity=".5" rx="47" ry="32"/><ellipse cx="241" cy="116" fill="#365c80" fill-opacity=".5" rx="31" ry="21"/><ellipse cx="62" cy="100" fill="#385a80" fill-opacity=".5" rx="112" ry="4"/><path fill="#857b79" fill-opacity=".5" d="M166 80l42 17-61-6z"/><circle r="1" fill="#b8c6d7" fill-opacity=".5" transform="matrix(10.0877 13.88454 -35.338 25.67456 61.5 66.6)"/><path fill="#414953" fill-opacity=".5" d="M156 85l19 2 9-8z"/><path fill="#a59f9f" fill-opacity=".5" d="M187 94l17-13-51 9z"/><path fill="#3e628b" fill-opacity=".5" d="M102 126h34v15h-34z"/><path fill="#1a3e5a" fill-opacity=".5" d="M0 140h226v3H0z"/><path fill="#b0bfd3" fill-opacity=".5" d="M197 71l-32-81L42 84z"/><ellipse cx="38" cy="96" fill="#7e95b1" fill-opacity=".5" rx="216" ry="1"/><path fill="#274460" fill-opacity=".5" d="M176.5 135l27-41.8-95.9 12 117.2 27z"/><path fill="#334059" fill-opacity=".5" d="M121 90.5l-11.2 10-2.7-3 11.1-10z"/><ellipse cx="24" cy="132" fill="#3f6793" fill-opacity=".5" rx="84" ry="3"/><path fill="#6484a4" fill-opacity=".5" d="M19.6 97.4L8.3 95.9l-13.7 2.3 22.4 8.1z"/><path fill="#adbacf" fill-opacity=".5" d="M184 68l-78 23-9-22z"/><path fill="#c4d0de" fill-opacity=".5" d="M14-16L-16 95l69-1z"/><path fill="#bccadd" fill-opacity=".5" d="M231 4h25v92h-25z"/><path fill="#6d6c74" fill-opacity=".5" d="M75.3 83.2l25 12.5 13.4 2.5L92.3 79z"/><circle cx="70" cy="92" r="3" fill="#d7cdc5" fill-opacity=".5"/><path fill="#204561" fill-opacity=".5" d="M-.8 132l25.9-2.2 12.6-2.7-53.7-11.8z"/><path fill="#aebdd1" fill-opacity=".5" d="M219 94l-41-21 35-25z"/><path fill="#616873" fill-opacity=".5" d="M175.3 80.3l-17.4 2.3L170 89l13 2.2z"/><ellipse cx="203" cy="99" fill="#395a80" fill-opacity=".5" rx="233" ry="3"/><path fill="#b0bed3" fill-opacity=".5" d="M114 39l32 55-24 1z"/><path fill="#294664" fill-opacity=".5" d="M128.1 112.8L116 125l54.4-4.6-8.2-30.5z"/><circle r="1" fill="#1c3c58" fill-opacity=".5" transform="matrix(1.09115 3.6301 -46.75033 14.05243 166 136.9)"/><path fill="#264664" fill-opacity=".5" d="M210.8 137.5l-40.9-41.6 92.8 54.9-40.2-46.9z"/><path fill="#686a7d" fill-opacity=".5" d="M75 84L49 99l5-10z"/><path fill="#396291" fill-opacity=".5" d="M122 134h61v2h-61z"/><path fill="#284d6e" fill-opacity=".5" d="M71 134l24 25-67-27z"/><path fill="#526b84" fill-opacity=".5" d="M239 131l-22 6 4-9z"/><path fill="#434f67" fill-opacity=".5" d="M85 101l19-11-8-11z"/><path fill="#aab9cf" fill-opacity=".5" d="M134 98l64.2-35.4 3.7 25.7L145 52.2z"/><path fill="#2b4867" fill-opacity=".5" d="M56 99h155v10H56z"/><path fill="#0a2b3c" fill-opacity=".5" d="M197 143h46v1h-46z"/><path fill="#b1b7bf" fill-opacity=".5" d="M72.8 92.9L53.5 98l-.3-1 19.3-5z"/><path fill="#3c5f87" fill-opacity=".5" d="M80 123l-26-10-23 27z"/><path fill="#3f6389" fill-opacity=".5" d="M14 97h73v6H14z"/><path fill="#fcfbf1" fill-opacity=".5" d="M98 96.8l5.5-2.5.4 1-5.4 2.4z"/><circle cx="85" cy="91" r="2" fill="#bfc3cb" fill-opacity=".5"/><path fill="#345273" fill-opacity=".5" d="M8.3 110.6l32.2 4.2 47.9-31.2-17 19.9z"/><path fill="#466f99" fill-opacity=".5" d="M42.1 133l-36.3-2.2-10.5 5.2-11.3 3.4z"/><path fill="#365b84" fill-opacity=".5" d="M146 121h31v9h-31z"/><path fill="#50525a" fill-opacity=".5" d="M174.3 82.2l14.8-2.3.6 3.9-14.8 2.3z"/><path fill="#d0c7c0" fill-opacity=".5" d="M178 92h14v2h-14z"/><path fill="#b9c7d7" fill-opacity=".5" d="M13.8 103.3H9.1l6.9-4.9L62-11.5z"/><path fill="#adbbd1" fill-opacity=".5" d="M115.1 96.3l32.6-1.3 2.3-71.4-14.4 52.2z"/><path fill="#b3c2d6" fill-opacity=".5" d="M199 90L164 3l103 94z"/><path fill="#abb9ce" fill-opacity=".5" d="M79.2 75.2l77.9-3.2-10 10.3 1.5 17z"/><path fill="#1f3f5c" fill-opacity=".5" d="M144.8 127.5l35.2-17-38.2 3.5-21.5 1.7z"/><path fill="#a1aab8" fill-opacity=".5" d="M191 95h33v2h-33z"/><ellipse cx="168" cy="92" fill="#cfc5bd" fill-opacity=".5" rx="3" ry="2"/><path fill="#455a72" fill-opacity=".5" d="M167.1 104.7L141 115.1l28.8-6.5 12-38.1z"/><path fill="#1e3e5e" fill-opacity=".5" d="M109 129h26v4h-26z"/><path fill="#2b4c6d" fill-opacity=".5" d="M37 134.1L64.6 151 49 124.6l58.1-12.3z"/><path fill="#3f6c9c" fill-opacity=".5" d="M271 131l-8-11-25 6z"/><path fill="#39689b" fill-opacity=".5" d="M50 142h22v2H50z"/><path fill="#becbdb" fill-opacity=".5" d="M-16 78.3L-1.5 60l82.9-13.2L55 91.3z"/><path fill="none" stroke="#adb9cc" stroke-opacity=".5" stroke-width=".5" d="M207.5-4Q155 60.6 79.5 95.3"/><path fill="#466488" fill-opacity=".5" d="M100 138h39v3h-39z"/><path fill="#45719c" fill-opacity=".5" d="M-16 105l25 2v7z"/><path fill="#4c6e96" fill-opacity=".5" d="M210 97h46v2h-46z"/><path fill="#4b4f65" fill-opacity=".5" d="M194 92h4v5h-4z"/><path fill="#6d7084" fill-opacity=".5" d="M52.4 94.6l-.7-4 8-1.2.6 4z"/><path fill="#517aa7" fill-opacity=".5" d="M0 132h23v4H0z"/><path fill="#34557b" fill-opacity=".5" d="M143.4 107.7L84 116.3l68.5-6-28.7-14.6z"/><path fill="#13354b" fill-opacity=".5" d="M13 130h9v2h-9z"/><path fill="#20425b" fill-opacity=".5" d="M235.1 159l20.2-6-27.9-21.1 8.8-9.3z"/><path fill="#0f2937" fill-opacity=".5" d="M217.7 132.8l-29.6-4.7.2-1 29.6 4.8z"/><ellipse cx="252" cy="136" fill="#305981" fill-opacity=".5" rx="60" ry="2"/><ellipse cx="75" cy="97" fill="#486991" fill-opacity=".5" rx="91" ry="1"/><path fill="#122d3e" fill-opacity=".5" d="M183 140h21v3h-21z"/><circle r="1" fill="#142f45" fill-opacity=".5" transform="matrix(-.02792 -.99961 15.27226 -.4266 159 138.6)"/><ellipse cx="13" cy="32" fill="#c5d1df" fill-opacity=".5" rx="43" ry="22"/><ellipse cx="229" cy="105" fill="#26435f" fill-opacity=".5" rx="16" ry="3"/><path fill="#234259" fill-opacity=".5" d="M44.2 139.6l14.7-6.9L35.7 159l-19.4-16.5z"/><ellipse cx="79" cy="110" fill="#35567c" fill-opacity=".5" rx="23" ry="4"/><path fill="#678ab6" fill-opacity=".5" d="M65 133l-7.6 2.9-.3-1 7.5-2.8z"/><path fill="#39648f" fill-opacity=".5" d="M212 140h15v2h-15z"/><path fill="#b1bfd4" fill-opacity=".5" d="M105.7 92.8L94.1 53.6l57.7-21.8-2.8 23.4z"/><path fill="#3c6593" fill-opacity=".5" d="M241.8 109.4l-31.4 6.1-.2-1 31.4-6z"/><path fill="#213d59" fill-opacity=".5" d="M62 116h90v2H62z"/><path fill="#0b2836" fill-opacity=".5" d="M245 138h10v3h-10z"/><circle r="1" fill="#686e79" fill-opacity=".5" transform="matrix(.69088 -.72297 3.11396 2.97577 193.8 85.4)"/><path fill="#446b96" fill-opacity=".5" d="M52 116l-11 12 5 10z"/><path fill="#aebdd2" fill-opacity=".5" d="M172 62l37 33 29-1z"/></g></g></svg>