<svg xmlns="http://www.w3.org/2000/svg" viewBox="0 0 1200 1800"><defs/><filter id="prefix__a"><feGaussianBlur stdDeviation="12"/></filter><rect width="100%" height="100%" fill="#2e4b4d"/><g filter="url(#prefix__a)"><g transform="translate(3.5 3.5) scale(7.03125)"><circle cx="55" cy="128" r="142" fill="#c7c4d7" fill-opacity=".5"/><circle r="1" fill="#d6dddf" fill-opacity=".5" transform="rotate(-82.7 69.9 -14.5) scale(41.18094 169.00002)"/><circle r="1" fill="#183657" fill-opacity=".5" transform="matrix(1.93914 -34.68411 162.87916 9.10636 30.4 139.8)"/><path fill="#272f00" fill-opacity=".5" d="M93-16L13 0l150 27z"/><ellipse cx="145" cy="245" fill="#706f75" fill-opacity=".5" rx="146" ry="50"/><circle r="1" fill="#7797b3" fill-opacity=".5" transform="matrix(97.2016 4.16731 -1.08466 25.29938 98 91.1)"/><circle r="1" fill="#d6d0c6" fill-opacity=".5" transform="matrix(83.44358 16.21979 -5.92798 30.4968 18.3 34.2)"/><path fill="#152131" fill-opacity=".5" d="M28 164h56v13H28z"/><path fill="#897461" fill-opacity=".5" d="M35.2.1l144.3 28-2.7 13.8-144.3-28z"/><path fill="#d0c9c0" fill-opacity=".5" d="M0 171h29v8H0z"/><path fill="#3f5870" fill-opacity=".5" d="M135 112h35v59h-35z"/><ellipse cx="101" cy="174" fill="#acb0b3" fill-opacity=".5" rx="23" ry="4"/><circle r="1" fill="#16683f" fill-opacity=".5" transform="rotate(95 59.3 54.4) scale(11.52872 77.67785)"/><ellipse cx="113" cy="90" fill="#8aa1b3" fill-opacity=".5" rx="85" ry="22"/><circle r="1" fill="#546b82" fill-opacity=".5" transform="matrix(116.18209 17.36353 -1.44378 9.66055 34.3 110.8)"/><path fill="#0e262a" fill-opacity=".5" d="M148.7 248.6L75 271l76.8-30.7 14.7-5.2z"/><circle r="1" fill="#c6c9c7" fill-opacity=".5" transform="matrix(1.00383 -13.35291 136.69533 10.27628 113 54.4)"/><path fill="#7a705c" fill-opacity=".5" d="M53.5 15.3L21 6.8l-4.7 3.1 16.8 5.8z"/><circle r="1" fill="#6c7988" fill-opacity=".5" transform="matrix(-10.43733 -28.91744 45.36754 -16.37476 142 210)"/><path fill="#41341a" fill-opacity=".5" d="M71.5 19l.2-.9 168.8 32.8-.2 1z"/><circle r="1" fill="#ced8d8" fill-opacity=".5" transform="rotate(-79.3 34.8 -26.5) scale(1.8453 84.55912)"/><circle r="1" fill="#cddfe2" fill-opacity=".5" transform="matrix(-3.44814 .50265 -.78417 -5.37933 169 31)"/><circle r="1" fill="#9f7f53" fill-opacity=".5" transform="rotate(176.3 29.4 125.1) scale(58.58954 2.56821)"/><path fill="#96acc0" fill-opacity=".5" d="M4 74l56 33-76-21z"/><path fill="#8ca2b3" fill-opacity=".5" d="M55.3 61.4l123.9 47.2-78.9 8.9-65.2-24.8z"/><circle cx="11" cy="42" r="31" fill="#cdcdcb" fill-opacity=".5"/><ellipse cx="41" cy="154" fill="#3f5369" fill-opacity=".5" rx="169" ry="13"/><ellipse cx="8" cy="181" fill="#9ea1a8" fill-opacity=".5" rx="21" ry="12"/><circle r="1" fill="#7d6246" fill-opacity=".5" transform="rotate(100 59.7 66) scale(1.86678 147.56063)"/><path fill="none" stroke="#452c10" stroke-opacity=".5" stroke-width=".5" d="M-16 5.3q4-2.7 68.3 11.5"/><path fill="#7a7576" fill-opacity=".5" d="M158 271l11-32-38 14z"/><circle r="1" fill="#1a4029" fill-opacity=".5" transform="matrix(.5071 -2.66675 60.09581 11.42748 125.7 10.8)"/><path fill="#7d8793" fill-opacity=".5" d="M160.7 181.3L32.6 241.9l51.3-71.6 54.1.6z"/><path fill="#59452e" fill-opacity=".5" d="M-5.7 4.3l125.6 24.4-.2 1L-5.9 5.3z"/><path fill="#2e3f50" fill-opacity=".5" d="M27 162h53v16H27z"/><path fill-opacity=".5" d="M168 248l17-9-21 20z"/><circle r="1" fill="#546b81" fill-opacity=".5" transform="matrix(28.6971 .37354 -.21585 16.5824 155.5 127)"/><path fill="#4e667d" fill-opacity=".5" d="M84.1 135l59.9-10.1-155.8-33.7-4.2 29z"/><path fill="#3d7b59" fill-opacity=".5" d="M163.9 13.1L101.7 2 64.9-15.6 185 12.9z"/><path fill="#b6bdc1" fill-opacity=".5" d="M62 19l115 21-99 14z"/><path fill="#6b7175" fill-opacity=".5" d="M161.2 234.5l-71.3 30.4 70.4-59.9 24.7 51.7z"/><path fill="#bdcfd8" fill-opacity=".5" d="M132 27.5l.7-2.9 25.3 5.9-.7 2.9z"/><path fill="#ab977b" fill-opacity=".5" d="M44 243.4l.5 4-88.5 9.2-.5-4z"/><path fill="#405469" fill-opacity=".5" d="M69 159h101v12H69z"/><path fill="#5c5037" fill-opacity=".5" d="M165.9 29l-51.4-8 1.6-10 51.4 8.2z"/><ellipse cx="41" cy="82" fill="#889fb2" fill-opacity=".5" rx="169" ry="9"/><path fill="#151415" fill-opacity=".5" d="M38 167h7v9h-7z"/><circle r="1" fill="#838792" fill-opacity=".5" transform="matrix(-42.47433 19.71593 -8.2284 -17.72657 33 204.1)"/><path fill="#4e5a6e" fill-opacity=".5" d="M26 227l18 .6-15.7 5.7-10.8-.4z"/><path fill="#757e8b" fill-opacity=".5" d="M-16 219l109-31 79 44z"/><ellipse cx="125" cy="236" fill="#1e2b40" fill-opacity=".5" rx="4" ry="2"/><path fill="#17282d" fill-opacity=".5" d="M194.5 218.2l1 1.8-82 41.8-1-1.8z"/><path fill="#8da2b4" fill-opacity=".5" d="M88 62L-6 76l110 39z"/><path fill="#8e99a1" fill-opacity=".5" d="M92 171h56v6H92z"/><path fill="#a98d65" fill-opacity=".5" d="M136 243.3l-47.9 3.4-.1-2 47.9-3.4z"/><path fill="#1a232f" fill-opacity=".5" d="M57 168l1.2-7.8 10.9 1.7-1.3 8z"/><path fill="#64605a" fill-opacity=".5" d="M149 271l19-49 11 11z"/><ellipse cy="35" fill="#b7bdc1" fill-opacity=".5" rx="144" ry="6"/><path fill="#716250" fill-opacity=".5" d="M35.7 255.8l1-6 27.6 4.4-1 6z"/><path fill="#d5d2cd" fill-opacity=".5" d="M-16 21l55-6-55-10z"/><path fill="#455b74" fill-opacity=".5" d="M1 170l-17-96 71 89z"/><path fill="#c5c0b2" fill-opacity=".5" d="M5 171h33v1H5z"/><path fill="#636e7d" fill-opacity=".5" d="M112.5 226.1l7.4-1.7 2.6 17.2-75.1-11z"/><circle r="1" fill="#64503e" fill-opacity=".5" transform="matrix(27.05473 5.41838 -.32113 1.60345 91.5 14.8)"/><path fill="#465369" fill-opacity=".5" d="M137 216h31v3h-31z"/><circle r="1" fill="#a39f9d" fill-opacity=".5" transform="matrix(-.20108 .97958 -130.67493 -26.82371 9.6 1)"/><ellipse cx="154" cy="45" fill="#a8b4ba" fill-opacity=".5" rx="38" ry="7"/><path fill="#665230" fill-opacity=".5" d="M160 25h5v11h-5z"/><path fill="#c6c8c5" fill-opacity=".5" d="M-16 79.8l32.8-9.4L149.3 57 3 36.3z"/><path fill="#89909a" fill-opacity=".5" d="M25 172l24 37-64-16z"/><path fill="#859daf" fill-opacity=".5" d="M172.6 73.9l-56.5-.7 57.6 45.2L185 63.8z"/><path fill="#505a6c" fill-opacity=".5" d="M4 219h26v2H4z"/><path fill="#6e7783" fill-opacity=".5" d="M185 172.7l-22.5 74.1 13.4-3-22-52.4z"/><path fill="#c5cbcb" fill-opacity=".5" d="M153 31.7l-.1 1-218-42.4.2-1z"/><path fill="#9b9ba4" fill-opacity=".5" d="M47.4 232.5l-5.3-4.5-3.4-1.7-1.1 9.5z"/><ellipse cx="157" cy="126" fill="#50687d" fill-opacity=".5" rx="64" ry="12"/><circle r="1" fill="#8aa0b1" fill-opacity=".5" transform="matrix(12.15887 16.92025 -19.46073 13.98445 128.5 88.9)"/><circle r="1" fill="#796a52" fill-opacity=".5" transform="rotate(100.6 65.5 72.3) scale(1 152.7939)"/><path fill="#91a6b8" fill-opacity=".5" d="M-8.4 89.7l-3.8-8.7 87.9 18.4-25.7 6.7z"/><path fill="#485566" fill-opacity=".5" d="M72.5 220.1l-23-1.2v-1l23 1.2z"/><path fill="#878f96" fill-opacity=".5" d="M93.3 244.1l-20 1.8-.6-8 20-1.8z"/><path fill="#305378" fill-opacity=".5" d="M71.2 171l-21.7 4-.7-4 21.7-3.8z"/><path fill="#2b2c2f" fill-opacity=".5" d="M33 158l-1 10 10 2z"/><path fill="#586575" fill-opacity=".5" d="M135 230h13v11h-13z"/><path fill="#576c80" fill-opacity=".5" d="M58.9 104.2l15.7 3.4 45.4 15-97.5-10.8z"/><circle r="1" fill="#234d39" fill-opacity=".5" transform="rotate(-78 69 -71.5) scale(4.21015 19.31043)"/><path fill="#201516" fill-opacity=".5" d="M166 253l15 18-5-43z"/><circle r="1" fill="#8ca2b2" fill-opacity=".5" transform="matrix(31.4522 9.47867 -3.35496 11.13246 120.5 99.2)"/><circle r="1" fill="#826c4f" fill-opacity=".5" transform="rotate(173.2 55.5 126.3) scale(8.9731 2.31328)"/><path fill="#bec4c3" fill-opacity=".5" d="M85.8 41.8L185 82.1V72L84.3 62.9z"/><path fill="#263c5b" fill-opacity=".5" d="M59 254h7v2h-7z"/><path fill="#818992" fill-opacity=".5" d="M31.3 164.7l-8.2 13.6 37.9-1.6-45.4 28.2z"/><path fill="#8f979e" fill-opacity=".5" d="M119 213.7l-29.8 3.6-.1-1 29.7-3.6z"/><path fill="#7d8f8e" fill-opacity=".5" d="M142.7 242.5l21.5-17.6-.5 7.4-6.1 2.9z"/><path fill="#7d7d7c" fill-opacity=".5" d="M152 244l-47 27h33z"/><path fill="#273f57" fill-opacity=".5" d="M78.7 176.9l-16.8-.1-35.5.2 61.2-9.8z"/><ellipse cx="68" cy="245" fill="#9d9180" fill-opacity=".5" rx="23" ry="2"/><path fill="#8e979e" fill-opacity=".5" d="M82 171h23v10H82z"/><path fill="#b6ada4" fill-opacity=".5" d="M1 245.8l.3-1 15.6 3.4-.2 1z"/><ellipse cx="32" cy="240" fill="#737c8a" fill-opacity=".5" rx="52" ry="6"/></g></g></svg>