<svg xmlns="http://www.w3.org/2000/svg" viewBox="0 0 1800 1200"><defs/><filter id="prefix__a"><feGaussianBlur stdDeviation="12"/></filter><rect width="100%" height="100%" fill="#293a44"/><g filter="url(#prefix__a)"><g transform="translate(3.5 3.5) scale(7.03125)"><circle cx="170" r="191" fill="#fffffe" fill-opacity=".5"/><circle r="1" fill="#352e2c" fill-opacity=".5" transform="matrix(-202.78833 7.43591 -1.10055 -30.0137 113.5 134.1)"/><ellipse cx="138" cy="26" fill="#f5f0e9" fill-opacity=".5" rx="155" ry="64"/><circle r="1" fill="#6f6a6a" fill-opacity=".5" transform="matrix(-14.71302 52.70148 -78.668 -21.96227 9.9 147.1)"/><ellipse cx="212" cy="169" fill="#f6e7ce" fill-opacity=".5" rx="99" ry="11"/><ellipse cx="199" cy="89" fill="#b1b1b1" fill-opacity=".5" rx="255" ry="16"/><circle r="1" fill="#dfdfdd" fill-opacity=".5" transform="rotate(-177.6 62.6 -1.3) scale(91.98941 44.44793)"/><path fill="#484d50" fill-opacity=".5" d="M154 105h102v50H154z"/><ellipse cx="40" cy="127" fill="#585a5c" fill-opacity=".5" rx="81" ry="24"/><circle r="1" fill="#a8a9aa" fill-opacity=".5" transform="rotate(-78.2 46.3 28.6) scale(36.52462 37.01161)"/><path fill="#adafab" fill-opacity=".5" d="M270-16l-6 81-104 40z"/><ellipse cx="138" cy="154" fill="#3c4144" fill-opacity=".5" rx="53" ry="6"/><path fill="#28434d" fill-opacity=".5" d="M228 100l8-11-22 16z"/><path fill="#636363" fill-opacity=".5" d="M37 104h64v63H37z"/><ellipse cx="117" cy="169" fill="#ebe2d1" fill-opacity=".5" rx="45" ry="3"/><path fill="#c2baaa" fill-opacity=".5" d="M260 152l1 23-78-17z"/><path fill="#494b4d" fill-opacity=".5" d="M0 104h38v19H0z"/><path fill="#2e4a55" fill-opacity=".5" d="M240 82.3l31-29.4-30.1 33-39 35.9z"/><circle r="1" fill="#babcb9" fill-opacity=".5" transform="matrix(16.23712 -26.29014 23.07598 14.25202 209.8 75.4)"/><ellipse cx="65" cy="70" fill="#b8bbbb" fill-opacity=".5" rx="92" ry="11"/><path fill="#79797a" fill-opacity=".5" d="M89 122h102v6H89z"/><path fill="#909397" fill-opacity=".5" d="M-6.5 104.8l-2.1-27.7 28.9-.9 22.3 26.7z"/><path fill="#61605f" fill-opacity=".5" d="M47 173l-54-67 104 58z"/><circle r="1" fill="#83827c" fill-opacity=".5" transform="rotate(62.7 -94.6 139.1) scale(2.25269 56.44853)"/><path fill="#7a7f79" fill-opacity=".5" d="M208.5 56.1L271-16l-64.8 80.5-26 22.5z"/><ellipse cx="250" cy="129" fill="#48494b" fill-opacity=".5" rx="27" ry="24"/><path fill="#373737" fill-opacity=".5" d="M36.1 185l-11.2-23.2-4.8-17.5-34.2 17.8z"/><ellipse cx="60" cy="137" fill="#1d2126" fill-opacity=".5" rx="19" ry="2"/><path fill="#353538" fill-opacity=".5" d="M119.3 152.6L154 149l-56.5 15.8-3.7-11.3z"/><path fill="#61655d" fill-opacity=".5" d="M154.7 110.2l-.6-.7 51.2-47.7.6.7z"/><path fill="#74777b" fill-opacity=".5" d="M179.6 147.3l-64.9 3.4-.3-6 64.9-3.4z"/><path fill="#3d4045" fill-opacity=".5" d="M57 150h22v8H57z"/><path fill="#727273" fill-opacity=".5" d="M207.5 152.2l26.1-10.6-40 4.6-19.3 3z"/><ellipse cx="110" cy="91" fill="#aaadb1" fill-opacity=".5" rx="61" ry="13"/><path fill="#807f80" fill-opacity=".5" d="M65 120h23v9H65z"/><path fill="#636769" fill-opacity=".5" d="M130.3 153.3l66 .8-57.9 10.5-27.1-25.2z"/><circle r="1" fill="#b2b4b3" fill-opacity=".5" transform="matrix(20.10014 .07754 -.11906 30.86476 0 34.6)"/><path fill="#292a2d" fill-opacity=".5" d="M176 153h54v2h-54z"/><path fill="#bdbfbd" fill-opacity=".5" d="M166 103l56-58-25 59z"/><ellipse cx="128" cy="120" fill="#1b1f24" fill-opacity=".5" rx="9" ry="2"/><ellipse cx="123" cy="47" fill="#c9cccb" fill-opacity=".5" rx="92" ry="19"/><path fill="#abadaf" fill-opacity=".5" d="M16.7 102.7l33 2.1L7.5 58.5l91.3 27.1z"/><path fill="#1d3f4d" fill-opacity=".5" d="M184.6 135.3l32-25.7-32.9 22.4-28.6 24z"/><circle r="1" fill="#dcdedb" fill-opacity=".5" transform="matrix(59.0418 .33707 -.09572 16.76715 125.5 0)"/><circle r="1" fill="#d0cec2" fill-opacity=".5" transform="matrix(-.42817 -5.64277 70.55165 -5.35335 139.2 169)"/><path fill="#153340" fill-opacity=".5" d="M233.9 91.1l31.5-34.9.7.7-31.5 34.9z"/><path fill="#c4c7c4" fill-opacity=".5" d="M247 49l-56 33 77-91z"/><ellipse cx="225" cy="124" fill="#6c6d6f" fill-opacity=".5" rx="27" ry="3"/><path fill="#0b0f12" fill-opacity=".5" d="M204 154.9v1l-22-.8v-1z"/><path fill="#23262b" fill-opacity=".5" d="M119 129.3l.7 3-12.8 2.4-.6-3z"/><ellipse cx="28" cy="126" fill="#6b6b6d" fill-opacity=".5" rx="96" ry="5"/><path fill="#afb0aa" fill-opacity=".5" d="M221 103l40-8 10-33z"/><path fill="#d8d1c4" fill-opacity=".5" d="M66 168l27 17 23-17z"/><path fill="#65615c" fill-opacity=".5" d="M96 161h14v5H96z"/><ellipse cx="38" cy="107" fill="#515458" fill-opacity=".5" rx="120" ry="3"/><path fill="#6d6d6e" fill-opacity=".5" d="M193 121l-73 8 39-25z"/><path fill="#737374" fill-opacity=".5" d="M62 143h43v9H62z"/><path fill="#727374" fill-opacity=".5" d="M139.6 136.3l8.4-11.6-79.3 28.8 119.9-20.7z"/><circle r="1" fill="#cbcdc9" fill-opacity=".5" transform="rotate(111.3 98.7 82.7) scale(25.48443 21.08522)"/><path fill="#5a5a5c" fill-opacity=".5" d="M36 155l-38-4 55 26z"/><path fill="#434a4f" fill-opacity=".5" d="M208 105h48v9h-48z"/><path fill="#163a49" fill-opacity=".5" d="M187 133.4l-41.4 28-.6-.8 41.4-28z"/><circle r="1" fill="#bec0bf" fill-opacity=".5" transform="matrix(11.02814 -9.65374 24.97328 28.52873 36 48.9)"/><path fill="#bab6ab" fill-opacity=".5" d="M219 156h37v14h-37z"/><path fill="#717171" fill-opacity=".5" d="M186.5 136.6l-22.1 28.7 34.3-38.3 26.9 11.6z"/><circle r="1" fill="#cccecc" fill-opacity=".5" transform="matrix(-6.93195 11.29247 -44.25325 -27.1651 60.2 23)"/><path fill="#4c4d50" fill-opacity=".5" d="M72 136h32v7H72z"/><path fill="#7a7e74" fill-opacity=".5" d="M261 2l4-18-18 26z"/><path fill="#b0b3b2" fill-opacity=".5" d="M233 91.2L271 50l-84.9 45.2 50.7-8.3z"/><ellipse cx="32" cy="150" fill="#3c3e41" fill-opacity=".5" rx="37" ry="2"/><path fill="#3a3c3f" fill-opacity=".5" d="M128.5 121l-.1 1-34.9-3 .1-1z"/><path fill="#8c8f92" fill-opacity=".5" d="M27.4 103.6l19.3 1.5-62.7-2.5L3.8 77.8z"/><ellipse cx="133" cy="71" fill="#bec1c1" fill-opacity=".5" rx="58" ry="13"/><path fill="#7a7672" fill-opacity=".5" d="M146.7 158.2l9.8-13.4-19.1 17.1-100.9 11.9z"/><ellipse cy="158" fill="#1b1f21" fill-opacity=".5" rx="19" ry="2"/><path fill="#313436" fill-opacity=".5" d="M225 129h24v4h-24z"/><ellipse cx="168" cy="157" fill="#767471" fill-opacity=".5" rx="14" ry="3"/><path fill="none" stroke="#979489" stroke-opacity=".5" stroke-width=".5" d="M45.4 169.7q37.4-11.2 57-25.8"/><path fill="#a4a7aa" fill-opacity=".5" d="M26 87h132v17H26z"/><circle r="1" fill="#25282d" fill-opacity=".5" transform="matrix(-8.98327 .22866 -.05607 -2.20259 139.6 152.6)"/><ellipse cx="162" cy="131" fill="#404244" fill-opacity=".5" rx="11" ry="3"/><path fill="#3c3c3d" fill-opacity=".5" d="M105 148l33 8-30 6z"/><path fill="#b9bcba" fill-opacity=".5" d="M185.1 78.7l-18.5-17.5-12 50 4.3-8.1z"/><ellipse cx="65" cy="142" fill="#767577" fill-opacity=".5" rx="16" ry="3"/><path fill="#777577" fill-opacity=".5" d="M135.7 150.7l30.4-7.2-23.6-1.1-19.7 9.2z"/><path fill="#5e6063" fill-opacity=".5" d="M180 134l19-16-48-13z"/><path fill="#72766f" fill-opacity=".5" d="M212 54l-.8-.7L252 8l.8.7z"/><path fill="#6b6c6d" fill-opacity=".5" d="M198 134h40v4h-40z"/><ellipse cx="213" cy="139" fill="#37393b" fill-opacity=".5" rx="10" ry="2"/><path fill="#3c3e41" fill-opacity=".5" d="M49 131h28v2H49z"/><path fill="#c7c5b9" fill-opacity=".5" d="M186 158h41v12h-41z"/><circle r="1" fill="#c2c4c0" fill-opacity=".5" transform="rotate(127.8 125.8 66) scale(79.48813 1.54634)"/><path fill="#7f7e7e" fill-opacity=".5" d="M60 125h25v6H60z"/><path fill="#c0c3c0" fill-opacity=".5" d="M243.4 16l-30.7 36.9 2.7 55.5-4-82.5z"/><circle cx="57" cy="136" r="4" fill="#2a2d31" fill-opacity=".5"/><path fill="#68686a" fill-opacity=".5" d="M42.9 146.7l39.5-41.3-43.3 23.2 24.5 36.7z"/><path fill="#494c50" fill-opacity=".5" d="M150 110l-28 4 15 2z"/><path fill="#595a5c" fill-opacity=".5" d="M120.1 137.9l33.3-2.3-48.3-11.2 62.9 6.2z"/><circle r="1" fill="#3f4142" fill-opacity=".5" transform="rotate(178 122.4 77.8) scale(36.62929 1)"/><path fill="#707173" fill-opacity=".5" d="M135.6 132.3l67.6-13.4-22.9 3.1-20.6-4.1z"/></g></g></svg>