<svg xmlns="http://www.w3.org/2000/svg" viewBox="0 0 1800 1200"><defs/><filter id="a"><feGaussianBlur stdDeviation="12"/></filter><rect width="100%" height="100%" fill="#3e4350"/><g filter="url(#a)"><g fill-opacity=".5" transform="translate(3.5 3.5) scale(7.03125)"><ellipse cx="125" cy="89" fill="#b2b4ae" rx="255" ry="51"/><circle r="1" fill="#7c8384" transform="matrix(-73.70484 115.48202 -54.60067 -34.84814 18.9 55)"/><path fill="#47525a" d="M69 0h187v45H69z"/><ellipse cx="94" cy="168" fill="#575750" rx="231" ry="31"/><path fill="#6e7379" d="M271 139l-161-1L256 19z"/><circle r="1" fill="#97928f" transform="matrix(56.07956 16.50948 -5.6221 19.09722 100.6 77.4)"/><circle r="1" fill="#828281" transform="matrix(43.31524 15.74083 -10.52213 28.95456 247.7 68.4)"/><path fill="#49535d" d="M210.6 2L4 49.9l-20-14v-9.6z"/><ellipse cx="216" cy="120" fill="#687078" rx="122" ry="19"/><ellipse cx="26" cy="137" fill="#7c8489" rx="67" ry="3"/><ellipse cx="245" cy="8" fill="#353f47" rx="69" ry="20"/><ellipse cx="24" cy="75" fill="#87888a" rx="63" ry="29"/><ellipse cx="64" cy="41" fill="#777d82" rx="29" ry="7"/><circle r="1" fill="#6f777d" transform="matrix(-50.75445 -.21167 .04083 -9.79128 0 8.5)"/><path fill="#4b545e" d="M145 39l66 10 31-21z"/><path fill="#535a62" d="M125.8 57l-9.4-73 16 78L79 60.2z"/><ellipse cy="156" fill="#525354" rx="159" ry="18"/><ellipse cx="139" cy="31" fill="#3b454f" rx="70" ry="10"/><circle r="1" fill="#585f68" transform="matrix(-1.16886 15.37295 -44.34964 -3.37207 97.2 4.7)"/><path fill="#959089" d="M227 67l-52-10 5 16z"/><path fill="#404243" d="M191.5 167.2l-1-26 72-2.4 1 26z"/><path fill="#908e8b" d="M56.8 69.2l115.8 31.6 3.6-10.8-116-37.7z"/><path fill="#606871" d="M261 74.3l-29.1-10.6 5.1-14 29.1 10.6z"/><ellipse cx="130" cy="72" fill="#6f747a" rx="39" ry="3"/><path fill="#6f7277" d="M89 43h84v19H89z"/><path fill="#616264" d="M21 165h87v5H21z"/><ellipse cx="68" cy="142" fill="#3e4245" rx="255" ry="3"/><ellipse cx="233" cy="78" fill="#8c8b88" rx="19" ry="10"/><ellipse cx="70" cy="124" fill="#747a80" rx="101" ry="15"/><path fill="#9f9993" d="M87 51.5l7.3.4-24.9 18.6-12.5-14.1z"/><path fill="#222527" d="M207.3 166.1l-16.8 1.3 19.5-6.5-6.3 9.3z"/><circle r="1" fill="#70767c" transform="rotate(-5.2 719.4 -397.6) scale(20.7202 4.67405)"/><path fill="#414a54" d="M154.8 42.8l-41.7-24.3 15.3 37.1.8-15.3z"/><path fill="#9b948c" d="M271 47l-38-6 14 10z"/><path fill="#73797e" d="M44 32L33 51l76-8z"/><path fill="#72787f" d="M62 70l28 68 70-1z"/><path fill="#4f5a64" d="M-16 36.6l3.1 10.4L40 45l18-25.9z"/><path fill="#697077" d="M150 108h106v31H150z"/><path fill="#575f68" d="M269.8 22.9l-5.5 15.6-33.9 2.4-75.1 7.9z"/><ellipse cx="113" cy="82" fill="#a29b95" rx="11" ry="6"/><path fill="#939592" d="M28.2 66.5l3 7.5-33.4 13.5-3-7.5z"/><path fill="#444d57" d="M36 28l66-11 26 23z"/><path fill="#9e9289" d="M140.4 50.2l-12.2-4.7 1.4-3.7 12.2 4.7z"/><path fill="#8d8b88" d="M139.8 61.8l8.8-2 5.6 24.4-8.8 2z"/><path fill="#727578" d="M203.1 57.6l-13.3-11 27.2 2.1-4.4 58z"/><path fill="#92928e" d="M-16 63.8l31.2.8 3-16.3-19.7 9.2z"/><path fill="#5e5f60" d="M31.2 152.5l-13.9 27.7 17.5 4.8-24.7-21.7z"/><path fill="#7b8084" d="M0 88h59v51H0z"/><ellipse cx="222" cy="67" fill="#948f89" rx="9" ry="5"/><path fill="#2a2b2c" d="M129.4 170.8l.2-4 11 .4-.2 4z"/><ellipse cx="55" cy="163" fill="#2f3133" rx="28" ry="1"/><path fill="#545b62" d="M128.6 79.3l1.9-4.7.2 12-1.7-69.4z"/><path fill="#5e656d" d="M36 5h80v9H36z"/><circle r="1" fill="#3f4851" transform="rotate(-139.4 89.5 -31.3) scale(51.02118 15.0493)"/><path fill="#444548" d="M88.8 185l9.3-7.3-31.6-26.3 30.2 11.5z"/><path fill="#4b545f" d="M74 139h106v1H74z"/><path fill="#303334" d="M69 154h13v4H69z"/><path fill="#4a4d50" d="M271 150l-72-7-10 21z"/><path fill="#7e8084" d="M99 98h59v10H99z"/><path fill="#595b5d" d="M213 166h38v4h-38z"/><circle r="1" fill="#9e9993" transform="rotate(111.6 13 57) scale(3.44159 13.7783)"/><path fill="#7b7d7f" d="M253.6 105l-65.3 3.5 53.8-15.7 28.9 13.1z"/><path fill="#57585b" d="M140 157v12l34-11z"/><path fill="#88898b" d="M48 101.1l20.9-17.6-9.1 24.7L-16 95.4z"/><path fill="#4c545c" d="M155.5 23.7l-41.9-1.6-30.8-23 68.4-1.4z"/><path fill="#72797e" d="M14-11.9L17.6 11-14 16l-3.6-23z"/><circle r="1" fill="#525456" transform="matrix(1.19054 -3.7081 35.1991 11.3012 57.6 155.8)"/><path fill="#717579" d="M231.6 77.7l6.3-36.4-16.1-4.3 24.7 35.4z"/><ellipse cx="147" cy="154" fill="#3c3e40" rx="81" ry="1"/><ellipse cx="231" cy="135" fill="#6f757b" rx="211" ry="4"/><path fill="#717479" d="M160.9 39.9l-8.4 48.3 53.3-9.3-37.8-1.8z"/><path fill="#747a80" d="M40 97.9l15-3.2-5.8-13-15-5z"/><path fill="#000202" d="M10 169h4v1h-4z"/><path fill="#99948e" d="M127.7 63.6l.4 3-35.8 3.8-.4-3z"/><path fill="#212426" d="M196 163l13-1-20 8z"/><path fill="#5a5b5d" d="M186.5 162.9L142.7 185h63.4l-16.4-21.2z"/><path fill="#787c80" d="M158.8 77.1l-90.5-33 32.4-5.8L112.6 54z"/><path fill="#908c87" d="M187 49.3l-14.6 14.5 26.9 3.7-12.3 5.7z"/><circle r="1" fill="#354048" transform="rotate(-47.2 124.6 -285) scale(19.77051 32.6918)"/><path fill="#787a7d" d="M165.6 78.6L158 42.7l-21.7.3 62.4 34z"/><ellipse cx="241" cy="162" fill="#23262a" rx="20" ry="1"/><path fill="#797e82" d="M56 72h20v13H56z"/><circle r="1" fill="#626c75" transform="matrix(-.28334 -5.07534 38.68585 -2.15972 242 112)"/><ellipse cx="133" cy="56" fill="#676d73" rx="28" ry="4"/><path fill="#898888" d="M105 103.5l42.3-7.9-17.6-34.1 16.9-1.9z"/><path fill="#3c454e" d="M158 18h77v15h-77z"/><path fill="#4b545d" d="M128 25h1v56h-1z"/><circle cx="49" cy="72" r="6" fill="#96948f"/><circle r="1" fill="#575e66" transform="matrix(-.99331 -6.27153 30.08482 -4.76497 97.7 12)"/><ellipse cy="162" fill="#272b2b" rx="9" ry="1"/><circle r="1" fill="#73777b" transform="matrix(-31.58642 5.2291 -.43837 -2.64796 144.6 67.7)"/><circle r="1" fill="#565e68" transform="matrix(.34754 3.81882 -20.70348 1.88416 184.4 42.4)"/><path fill="#5a5c5f" d="M91 153h12v7H91z"/><path fill="#494c4f" d="M271 140l-55 7 14 16z"/><ellipse cx="11" cy="145" fill="#525456" rx="42" ry="5"/><path fill="#70757a" d="M220 102.4l-63.3 5.8 38.2-30.4 47.8 12.7z"/><path fill="#898987" d="M203.5 88l58.3-9.5 9.2-7.4-55.7 10.2z"/><path fill="#6a6f75" d="M211.6 52.4l36.6 14.4-1.8-8.9-28 3.9z"/><path fill="#37393a" d="M46 159.1L28 158v-1l18 1.2z"/><path fill="#626a72" d="M27 1l55 9-83 11z"/></g></g></svg>