<svg xmlns="http://www.w3.org/2000/svg" viewBox="0 0 1800 1200"><defs/><filter id="a"><feGaussianBlur stdDeviation="12"/></filter><rect width="100%" height="100%" fill="#3d4d5e"/><g filter="url(#a)"><g fill-opacity=".5" transform="translate(3.5 3.5) scale(7.03125)"><circle r="1" fill="#b1c8dc" transform="matrix(226.77593 -17.62806 6.0145 77.37348 99.4 49)"/><circle r="1" fill="#e3dcd5" transform="matrix(-55.39797 -17.392 5.03115 -16.02548 109 23.7)"/><circle r="1" fill="#155aa2" transform="matrix(8.70396 -29.11837 89.44735 26.7373 214 17.7)"/><ellipse cx="200" cy="112" fill="#8d7956" rx="224" ry="18"/><ellipse cx="17" cy="80" fill="#cec9c6" rx="32" ry="11"/><ellipse cx="8" fill="#3371b6" rx="29" ry="51"/><circle r="1" fill="#bebdbd" transform="matrix(.48717 -9.49627 44.64244 2.2902 200.4 60.7)"/><path fill="#57543b" d="M114 121L29 99l-42 24z"/><ellipse cx="91" cy="92" fill="#969ba4" rx="88" ry="17"/><path fill="#a1a8a7" d="M117 123h120v6H117z"/><path fill="#084e9d" d="M69-10l44 3-5 21z"/><ellipse cx="39" cy="53" fill="#c9c3c2" rx="31" ry="6"/><path fill="#567ca7" d="M82.6 18.5l74.3 62.9L92 58.9 12.4 35.8z"/><ellipse cx="226" cy="152" fill="#243b47" rx="74" ry="25"/><circle r="1" fill="#dbd8d0" transform="matrix(18.86284 21.6433 -8.73374 7.61174 130 27.6)"/><path fill="#45341f" d="M164 94h41v7h-41z"/><circle r="1" fill="#c7c5c6" transform="rotate(73.6 19.7 41.8) scale(8.58124 23.71589)"/><ellipse cx="172" cy="87" fill="#b4b2ad" rx="41" ry="5"/><path fill="#f0d0ad" d="M68 100h28v6H68z"/><circle r="1" fill="#dcd9d1" transform="matrix(.03202 -5.12875 13.19024 .08234 186.8 54.7)"/><path fill="#4e7ca8" d="M143 62l34-43 27 22z"/><path fill="#426f9c" d="M271-16H167.8l46.3 101.5-24.8-3.7z"/><path fill="#afadaa" d="M83.4 40.7l12.4-25 69 33.7-21.8 1.2z"/><path fill="#f6eacf" d="M246 114h22l3 17z"/><path fill="#a19685" d="M169.9 105.8l45.9-53.2L166 123 38.5 103.7z"/><path fill="#4b5753" d="M113 116h46v8h-46z"/><path fill="#c0bcb6" d="M220 49l-8 16 59 18z"/><path fill="#2f3215" d="M255.5 118.8l-14 9.1-4.5-1.6-9-9.2z"/><path fill="#3e3f34" d="M187 99h56v4h-56z"/><path fill="#f8f9ef" d="M222 123l3-7 3 5z"/><ellipse cx="34" cy="125" fill="#a4a29a" rx="103" ry="2"/><path fill="#668fb5" d="M-16 49.8l38.6 29.5 18.5-14.6-57.1-29z"/><path fill="#d7d9d6" d="M148.1 26.9l-2.4-10.1-26.1-2.2-15 19.5z"/><path fill="#a8a196" d="M194.7 106.6L271 103l-42.8 6.6-15.7-8z"/><circle r="1" fill="#5980a5" transform="rotate(-35 169.9 -167.4) scale(27.14189 13.01844)"/><path fill="#3d4c52" d="M68 126h32v44H68z"/><circle r="1" fill="#638baf" transform="matrix(-3.46889 10.3076 -22.23245 -7.48205 60.3 74.2)"/><path fill="#3a6a9d" d="M75-3l129-13 67 45z"/><path fill="#cecbc6" d="M18 84l-7-16-18-7z"/><path fill="#507aa2" d="M285.6 55L274 77l-71.5-38L214 17z"/><path fill="#376ca6" d="M-16 20L53 0 4-16z"/><ellipse cx="1" cy="99" fill="#8b96aa" rx="23" ry="12"/><path fill="#75889d" d="M189 82l65 21-47-46z"/><path fill="#c7c7c2" d="M52 88.8L32.3 65.3l-1.5 6.2.1 9.7z"/><path fill="#8a94a1" d="M146.5 20.6L162.7 58l-15.2 14.2 41.3.4z"/><path fill="#dad5c1" d="M140 127h62v1h-62z"/><ellipse cx="138" cy="152" fill="#435156" rx="31" ry="26"/><path fill="#515849" d="M194 109h28v16h-28z"/><path fill="#6d8098" d="M164.2 87.9l.9 11.9-22.2 2.6-59.7-.9z"/><path fill="#5d5d44" d="M55.7 123.8l-40.9-17.3 5.3 20.8 14.8-30.7z"/><path fill="#2c4555" d="M33.4 128.5l-.9 52-56-1 1-52z"/><ellipse cx="124" cy="112" fill="#cfcdc6" rx="6" ry="4"/><path fill="#a7a7a7" d="M221.7 89.9l-45-7.4 32.2 12.1 62.1-7.2z"/><path fill="#86674f" d="M120.3 110.6l-19.8 2.8-.8-6 19.8-2.8z"/><path fill="#b6b5aa" d="M164.7 110.6l5 12-6.4 2.8-5-12z"/><path fill="#c8c7c4" d="M81 19.5l-12 4.4 36.3-6.7-67-30.5z"/><circle r="1" fill="#336190" transform="matrix(-3.54659 11.02737 -55.16277 -17.74129 226.5 .7)"/><path fill="#4879ab" d="M160.4 25.3L147 27.6 156.7 2 81.3-15.2z"/><circle r="1" fill="#557ba4" transform="rotate(-100.5 45.4 -9.4) scale(5.59898 36.23555)"/><ellipse cx="49" cy="123" fill="#72787c" rx="212" ry="2"/><path fill="#c4b09a" d="M89.8 95.4l6.8 9-1.2 8.4-19.5-6.7z"/><path fill="#ccb295" d="M58.3 105.5l-20.7-2.9 17.1 5.1-.1 7.9z"/><ellipse cx="231" cy="169" fill="#24343e" rx="30" ry="13"/><path fill="#5e5b4b" d="M82.7 113.7l-.1 21.4-2.6-30.3-12.2 6.4z"/><path fill="#9d8f7f" d="M205 92h5v26h-5z"/><path fill="#9f998e" d="M253 103h3v25h-3z"/><ellipse cx="138" cy="76" fill="#6285a3" rx="84" ry="4"/><path fill="#dcddd9" d="M114 7h14v21h-14z"/><path fill="#4c7aa6" d="M166 17h47v31h-47z"/><path fill="#b6aea0" d="M236.3 106.7l-.2 1-32.4-6.4.2-1z"/><path fill="#d2cbbe" d="M177 99h5v7h-5z"/><path fill="#24221f" d="M62 127h34v1H62z"/><path fill="#c3c3be" d="M200.9 65.9l-18.6-18.3 10.7.6-18.3 11.9z"/><path fill="#b0b5bb" d="M63.4 48.4L8.6 54.7 33 42l28.8 16.7z"/><ellipse cx="237" cy="119" fill="#242b0b" rx="4" ry="6"/><path fill="#7d899b" d="M220.8 98l38.9.2-44.3-30.8 55.6 3.2z"/><path fill="#6e8ca9" d="M53.4 57.9L34.9 68.8 19.2 83.7l-8.6-26z"/><path fill="#9ea0a5" d="M95.6 31.5l18.3-5.7-55.7-13-12.1 6z"/><path fill="#33393a" d="M243.7 100.2l5.2 13.4-9-8.7-25.8-4.9z"/><path fill="#b0b5b2" d="M109 124h13v4h-13z"/><path fill="#4e7aaa" d="M139.8 7.9L79.4 2.2l42.4-11.8 16.6 32.9z"/><ellipse cx="58" cy="105" fill="#decfb3" rx="23" ry="1"/><ellipse cx="233" cy="83" fill="#587b9a" rx="21" ry="5"/><path fill="#364752" d="M180.5 136.9l-93 48.1L189 168.6l-3.6-58.1z"/><path fill="#3b3e28" d="M199 95l-14-1v10z"/><path fill="#597da2" d="M98.5 45.5L56.4 64.1l78.1-3.2 26.6-4.1z"/><path fill="#6a4a2f" d="M90.1 93.4l-5.2 3-1-1.8 5.2-3z"/><circle r="1" fill="#507ca9" transform="matrix(-14.19046 -20.72464 7.77825 -5.32588 28.8 25)"/><path fill="#c4c6c3" d="M214.4 56l5.4-6 17.8 16-5.4 6z"/><path fill="#4d4d42" d="M157 99l19 3-7-6z"/><ellipse cx="246" cy="74" fill="#b1ada9" rx="18" ry="3"/><path fill="#485965" d="M68 137h77v14H68z"/><path fill="#4372a2" d="M97.6 13l18.6-9.9L271 38.8 83.7-16z"/><path fill="#a6a7a2" d="M188 126h41v3h-41z"/><path fill="#c87d00" d="M138 128h11v1h-11z"/><path fill="#474428" d="M48 115l-13-8 17 1z"/><circle cx="201" cy="110" r="4" fill="#3e4436"/><path fill="#bfb8aa" d="M219 102h7v5h-7z"/><path fill="#6f5337" d="M45 99h5v6h-5z"/><path fill="#4a4830" d="M219 105.4l3.1 8.4-13.1 4.8-3.1-8.4z"/></g></g></svg>