<svg xmlns="http://www.w3.org/2000/svg" viewBox="0 0 1800 1013"><defs/><filter id="a"><feGaussianBlur stdDeviation="12"/></filter><rect width="100%" height="100%" fill="#414d6a"/><g filter="url(#a)"><g fill-opacity=".5" transform="translate(3.5 3.5) scale(7.03125)"><circle r="1" fill="#fff" transform="matrix(.02399 -63.99973 235.9791 .08846 125 36)"/><circle r="1" fill="#c8def6" transform="rotate(-95.9 44.8 -23.5) scale(74.94899 217.62737)"/><ellipse cx="244" cy="107" fill="#5a708c" rx="255" ry="14"/><path fill="#a4b9d5" d="M0 47h256v49H0z"/><ellipse cx="132" cy="114" fill="#4d5f79" rx="244" ry="19"/><path fill="#c9d4e2" d="M.5-22.5h255v45H.5z"/><ellipse cx="245" cy="67" fill="#9cb1cc" rx="79" ry="30"/><ellipse cx="94" cy="133" fill="#1e2e41" rx="48" ry="4"/><circle r="1" fill="#11222f" transform="matrix(-.1217 -2.5805 50.58736 -2.38564 225.3 141.9)"/><path fill="#617691" d="M68 137h115v5H68z"/><ellipse cx="13" cy="104" fill="#6a7c9b" rx="116" ry="4"/><ellipse cx="151" cy="99" fill="#3d4f6d" rx="128" ry="3"/><ellipse cx="160" cy="89" fill="#a8bacf" rx="239" ry="7"/><circle r="1" fill="#bbc4d3" transform="matrix(-7.0307 -28.2423 70.69624 -17.59929 178.8 33.4)"/><path fill="#4c5c74" d="M271 101.7l-38 45-20.4-9-41.6-26.4z"/><circle r="1" fill="#a8b8cf" transform="rotate(-88.8 84.7 -8.5) scale(19.71531 103.087)"/><path fill="#2c3b51" d="M0 127h55v6H0z"/><path fill="#526680" d="M50 134l-50-3 79 28z"/><circle r="1" fill="#92a8c7" transform="rotate(149.5 113.3 69.5) scale(40.03949 17.57147)"/><ellipse cx="78" cy="119" fill="#4b5c77" rx="106" ry="12"/><path fill="#041422" d="M196 140h27v3h-27z"/><path fill="#162637" d="M4 140h28v3H4z"/><ellipse cx="58" cy="99" fill="#4e6180" rx="68" ry="4"/><path fill="#192839" d="M200 132h23v3h-23z"/><path fill="#536680" d="M165.7 155.1l-32.1-22.8 17.6 2.8 24.4-11.8z"/><ellipse cx="186" cy="105" fill="#5c6d88" rx="60" ry="3"/><path fill="#4c5c76" d="M232 96h24v42h-24z"/><path fill="#091725" d="M144.4 144.4l-15-1.8.2-1 15 1.8z"/><circle r="1" fill="#c0d0e3" transform="rotate(-8.1 31 -437.4) scale(123.07266 21.99494)"/><circle r="1" fill="#576981" transform="matrix(-.01148 2.17372 -17.65999 -.09326 218.6 137.6)"/><path fill="#041320" d="M240 138h16v4h-16z"/><circle r="1" fill="#b5c2d6" transform="matrix(3.81182 17.06008 -60.2989 13.47289 94.2 37.6)"/><path fill="#2a374d" d="M52 125h40v2H52z"/><path fill="#556684" d="M98 119h27v12H98z"/><ellipse cx="78" cy="113" fill="#3c4a65" rx="17" ry="5"/><path fill="#233146" d="M30 131h86v3H30z"/><path fill="#697e9b" d="M64 139h9v5h-9z"/><path fill="#5d6f8d" d="M0 120h50v3H0z"/><circle r="1" fill="#a8b9d2" transform="matrix(-78.04425 2.99816 -.1055 -2.74635 104.2 29.6)"/><path fill="#596b87" d="M132 103h69v8h-69z"/><circle r="1" fill="#a7b6cc" transform="matrix(-61.14878 10.6862 -1.66337 -9.51816 242 44.7)"/><circle r="1" fill="#3c4c64" transform="matrix(.90733 3.20644 -14.78411 4.18348 65.5 137)"/><path fill="#607592" d="M-16 129l30 4-30 10z"/><ellipse cx="70" cy="139" fill="#5f718f" rx="59" ry="1"/><ellipse cx="227" cy="19" fill="#c4cbd6" rx="36" ry="13"/><path fill="#43536c" d="M93 145.3l43.1-2.1 37.6-44.4-36.8 35.9z"/><path fill="#2d3d51" d="M178 131h21v5h-21z"/><path fill="#43526c" d="M202 106h34v11h-34z"/><path fill="#647490" d="M223 143h18v1h-18z"/><path fill="#53637f" d="M232.3 109.9l-6.6 11.6-28.4 9.4-3-6.7z"/><circle r="1" fill="#586a85" transform="matrix(-.04013 -.9992 78.8345 -3.16632 245 122.7)"/><path fill="#9fb3cc" d="M153 65h78v31h-78z"/><path fill="#35435b" d="M182 126h72v2h-72z"/><path fill="#6a7f9e" d="M42 143h28v1H42z"/><path fill="#455570" d="M116.9 134.3l-4.6-2.2 38.9-29.3-21.3 30.9z"/><path fill="#4f607a" d="M209.4 136.2l-4.6-18.5-43.9 41.3 65.5-51.8z"/><circle r="1" fill="#1f2e42" transform="matrix(-7.94691 -.5557 .23899 -3.41771 108.7 134.6)"/><path fill="#5c6c84" d="M250 130h6v9h-6z"/><path fill="#5e6f8b" d="M0 101h91v9H0z"/><ellipse cx="130" cy="98" fill="#435673" rx="82" ry="2"/><path fill="#152436" d="M100 135h49v1h-49z"/><circle r="1" fill="#acbbd0" transform="matrix(-4.25692 7.93913 -33.09168 -17.7436 12 77.4)"/><path fill="#29374c" d="M32 133l-16-3 9-7z"/><path fill="#bbc7d8" d="M191.4 37.5L87.9 35.2 1.6 38.6l67 15.9z"/><ellipse cx="6" cy="88" fill="#aebdd1" rx="128" ry="7"/><path fill="#546981" d="M210.7 135l.4 2.9-25.8 3.2-.4-3z"/><ellipse cx="50" cy="141" fill="#2f3c53" rx="18" ry="1"/><path fill="#586a87" d="M-7 98.5H7v25H-7z"/><path fill="#4b5b77" d="M11.8 126.4l19.8 1.9 12.1-20.5-12-2.8z"/><path fill="#667798" d="M115 115h13v3h-13z"/><path fill="#a7b9d0" d="M199.1 75.9l-10 2.8L53.2 55.4l76.5 41.8z"/><ellipse cx="145" cy="123" fill="#1b273c" rx="7" ry="1"/><path fill="#29354b" d="M161 137h18v1h-18z"/><path fill="#465672" d="M86.3 102.7l-5.8 13.8-2.8-1.2 5.8-13.8z"/><path fill="#5e718e" d="M82 143l-13-6h34z"/><ellipse cx="120" cy="128" fill="#52627e" rx="65" ry="2"/><path fill="#232f45" d="M86.8 132L71 129l.1-1 15.7 3z"/><circle r="1" fill="#243148" transform="matrix(5.21494 .70509 -.13399 .99098 92 126.1)"/><path fill="#384760" d="M108.2 106.3l.3-1 27.3 6.4-.3 1z"/><path fill="#1f2c41" d="M35 125h8v2h-8z"/><path fill="#475670" d="M148 105h31v3h-31z"/><ellipse cx="125" cy="124" fill="#5a6d8a" rx="35" ry="1"/><path fill="#344159" d="M190 115h23v2h-23z"/><path fill="#5e6f8f" d="M30 114h20v3H30z"/><path fill="#3f4f69" d="M23 133h62v5H23z"/><path fill="#617493" d="M35 137h11v4H35z"/><path fill="#536480" d="M111 110h6v22h-6z"/><path fill="#1a293c" d="M193 131h10v3h-10z"/><path fill="#334158" d="M144 128l-10 9-6-9z"/><path fill="#091c2b" d="M9 140h4v4H9z"/><path fill="#637392" d="M45 125l-1-6 7-6z"/><ellipse cx="201" cy="96" fill="#65799a" rx="23" ry="1"/><circle r="1" fill="#394961" transform="matrix(-41.5091 -2.5388 .06105 -.99813 188.5 133.4)"/><path fill="#334359" d="M154 149l48 8-21-18z"/><path fill="#556783" d="M151.9 136.4l28.8-16 18.8-13.5-43.2 32.5z"/><ellipse cx="236" cy="134" fill="#5a6b85" rx="11" ry="2"/><path fill="#2e3c52" d="M47.5 142l-.2-1 47.2-9 .2 1z"/><path fill="#43536c" d="M-16 147.3l18.6-4.5 33.4-1.1 37.9 11.8z"/><path fill="#5b6c8b" d="M66.1 130.3l-2.2 2-6-6.6 2.2-2z"/><path fill="#36435c" d="M150.4 118l-21-2 .2-2 21 2z"/></g></g></svg>