<svg xmlns="http://www.w3.org/2000/svg" viewBox="0 0 4615 3077"><defs/><filter id="a"><feGaussianBlur stdDeviation="12"/></filter><rect width="100%" height="100%" fill="#4f562e"/><g filter="url(#a)"><g fill-opacity=".5" transform="translate(9 9) scale(18.02734)"><circle r="1" fill="#a5c8ff" transform="rotate(-101.5 82.2 -41) scale(86.86085 254.99999)"/><circle r="1" fill="#e3e2f9" transform="matrix(94.07467 13.57152 -5.0031 34.68034 21.4 85.2)"/><circle r="1" fill="#3073a6" transform="rotate(-179.9 57.3 79.4) scale(239.5471 31.55053)"/><circle r="1" fill="#efecfd" transform="rotate(16.7 -165.4 740.2) scale(53.8939 14.49054)"/><circle r="1" fill="#355dbf" transform="matrix(203.096 -.11307 .02161 38.81568 172.4 21.5)"/><path fill="#716a00" d="M99 130l82-46 86 24z"/><path fill="#bcc7e6" d="M251 54l-137 63-9-41z"/><path fill="#3c62aa" d="M221 0h35v85h-35z"/><circle r="1" fill="#6a83b5" transform="matrix(23.64589 -28.02901 60.77629 51.2722 99.8 35.7)"/><path fill="#797726" d="M180.6 129.7l90.4-19.3-174.4 4.2-58.3 12.3z"/><path fill="#fce9e4" d="M138.2 124.2l12.9 1.6-1.3 10-12.9-1.6z"/><path fill="#525501" d="M150 96.3l64.9-4.5 1 16-64.8 4.4z"/><path fill="#e9e7e1" d="M228 59l-86 7 45 25z"/><path fill="#dadce0" d="M78.5 70l-7.2 27L7.5 80l7.2-27z"/><circle r="1" fill="#5e7b86" transform="matrix(-2.2557 17.60845 -41.5934 -5.32824 38.3 142.9)"/><circle r="1" fill="#929fbe" transform="rotate(28.4 -12.4 123) scale(25.09665 13.68159)"/><path fill="#436aa7" d="M112 0h129v51H112z"/><path fill="#d0d4d7" d="M152.6 100.9L119 82.2l-9.9 16.7 33.8 9.3z"/><path fill="#c1c2c8" d="M55.7 130.8L-16 117.2l64.8-8.4 4.6-1.8z"/><path fill="#617eaa" d="M172.6 56l-17.8 53-38.3-46.9 33.8 13.3z"/><ellipse cx="224" cy="77" fill="#5370a3" rx="24" ry="5"/><path fill="#d7d7d7" d="M271 92.7l-83.2-13 44.1 21.8 38.1-2.4z"/><path fill="#778eb9" d="M86 58l120-3L89 95z"/><circle r="1" fill="#8399ba" transform="matrix(.21542 -6.8548 88.591 2.78408 9 99.8)"/><ellipse cx="182" cy="165" fill="#2b5657" rx="118" ry="15"/><circle cx="105" cy="128" r="4" fill="#adbdf0"/><ellipse cx="112" cy="120" fill="#6a6821" rx="27" ry="6"/><path fill="#a3aec9" d="M114 17l-7-13-38-3z"/><circle r="1" fill="#bdc3d1" transform="matrix(-19.19474 6.19973 -7.16476 -22.18252 31.9 67.8)"/><path fill="#3a5992" d="M-15.6 26.4L-2.5 6.2l36 23.4-13 20.2z"/><path fill="#e3e4e2" d="M145 65h68v8h-68z"/><path fill="#224754" d="M233.8 128.7l40-1.4 2.4 70-40 1.4z"/><ellipse cx="219" cy="114" fill="#696e1e" rx="78" ry="12"/><circle r="1" fill="#537471" transform="matrix(9.45017 14.02013 -17.12797 11.54499 198.1 149.5)"/><path fill="#655f35" d="M10 125h27v5H10z"/><path fill="#5171ac" d="M96 75L56 51l79 20z"/><path fill="#ecece9" d="M184.7 62.8l6.9 26.9 45.7 2.1-31.8-7.7z"/><path fill="#e5e6e6" d="M218.3 59.9l-15.5-.7-34.7 19.2 53.5-4.6z"/><circle r="1" fill="#2e528f" transform="matrix(28.1859 -.67101 .1376 5.7801 19.8 0)"/><path fill="#9bacc2" d="M122.3 115.2L99 85.5l-5.8-5.2-87.6 23.2z"/><path fill="#798db5" d="M111.7 53.4L32.7 26 17.8 13.4 55.9-7.1z"/><ellipse cx="40" cy="129" fill="#68808c" rx="82" ry="2"/><circle r="1" fill="#23331d" transform="matrix(58.6922 -.11018 .00278 1.48145 228 128.3)"/><path fill="#d7d9dd" d="M83.6 98.6l8.7-10.4-26 8.3-6.9 3.2z"/><path fill="#e1e3e3" d="M122.8 87.8l-1.1-3.8 15.4 14.7-23.1 3.7z"/><path fill="#7a7c27" d="M159 99.8l31.6 14.4-133.3 7 41 7.2z"/><path fill="#42514d" d="M142.1 128.8l-7.8-7.7-17.5 3.9-14.5 7.1z"/><path fill="#616520" d="M143 110l115-5-75-17z"/><circle r="1" fill="#5c79b0" transform="rotate(-174 126.8 25.8) scale(27.64442 22.89083)"/><path fill="#83874e" d="M135 109l-1 14 26 3z"/><path fill="#e3e4e4" d="M69 71L25 93l55-11z"/><ellipse cx="160" cy="154" fill="#285658" rx="16" ry="27"/><path fill="#98a5c4" d="M51.6 4.9L24 8.1l52.1 15L62.5 8.9z"/><path fill="#6483b4" d="M138.3 100.9l30.5-7.4-10.3-21.6-8.5 6.5z"/><path fill="#b6b2b5" d="M-16 111.9l28.8 17.6-16.8 2.1 24.9-11.7z"/><path fill="#95a4bd" d="M141 59h42v10h-42z"/><path fill="#d3d5d7" d="M46 108h26v11H46z"/><ellipse cx="106" cy="145" fill="#366674" rx="34" ry="17"/><path fill="#a1abc6" d="M5.3 70.6l-18.5 3.1-1.7-32.6 47.1 9z"/><path fill="#dadce0" d="M16 79l-32 9 48-35z"/><path fill="#b6bdc7" d="M145 105l-20 9-25-10z"/><path fill="#486aa2" d="M147 10L98 36l46 28z"/><path fill="#dadcdd" d="M182.3 72.4l25.9 11.9-33.2 7.4-4.8-24.8z"/><path fill="#5c7baa" d="M94 87h14v7H94z"/><path fill="#ccc2d4" d="M107 124.8l.4 1-10.5 3.4-.3-1z"/><path fill="#4365a0" d="M75.8 6.1l35 18-30.6-4.8-6.5-1.9z"/><circle r="1" fill="#5e7db2" transform="matrix(-2.36027 -12.7327 15.45015 -2.86401 197 50.4)"/><path fill="#7993b8" d="M22 102h115v2H22z"/><path fill="#91a1bb" d="M22 116l23-16-56-15z"/><path fill="#8497bb" d="M234.9 77.2l-8.6-23.5-24.4 7.9 8.2-6.2z"/><path fill="#b7bcc2" d="M133 130l6 4 16-6z"/><path fill="#6f88b2" d="M146.4 62.5l-14.8-15-.6 48.8L147.6 79z"/><path fill="#355d66" d="M214 129h42v8h-42z"/><circle cx="169" cy="127" r="2" fill="#b3c3e3"/><ellipse cx="37" cy="144" fill="#4b707c" rx="52" ry="16"/><path fill="#636043" d="M103 125.3l-46.8-.9L65 130l.9-.8z"/><path fill="#677ea6" d="M200 76h28v5h-28z"/><path fill="#6881b0" d="M86.8 23.5l-52.1-8.3 32.2 47.6 67.8-68.6z"/><ellipse cx="51" cy="146" fill="#5a7d85" rx="26" ry="7"/><path fill="#9babbf" d="M98.6 106.9l14.2 2.5-30.3 10.5-10.6-8.3z"/><path fill="#b7bec7" d="M10.6 121.8l35.7 6.4 11.9-8.1-60.1-11.9z"/><path fill="#b9c0ca" d="M123.4 86.2l-40.9 16.5 24.4-3.2 4.1-18.7z"/><ellipse cx="218" cy="126" fill="#444406" rx="47" ry="2"/><circle cx="161" cy="113" r="15" fill="#6a6e1f"/><path fill="#b8b2b8" d="M75 127h11v3H75z"/><path fill="#b9c1cf" d="M-7 78.1l101.1-.2-49.7-23.2 38.4 8.8z"/><path fill="#afb4c2" d="M234 87h22v12h-22z"/><path fill="#f3f3f0" d="M215 87h16v7h-16z"/><circle r="1" fill="#4a6ca7" transform="matrix(-22.73346 11.08335 -17.91766 -36.75155 241.3 29.6)"/><path fill="#bcc4d0" d="M70.9 64.6L59.1 78.2 7.6 56.7-2.7 44.3z"/><circle r="1" fill="#5170a4" transform="matrix(47.20328 8.00454 -.5315 3.13428 81.7 49.4)"/><path fill="#8093b9" d="M85 28l32 7-17-11z"/><path fill="#8c8620" d="M128 124h40v2h-40z"/><circle cx="120" cy="125" r="4" fill="#2c2a2e"/><path fill="#6c84ad" d="M176 67l15-12-16 7z"/><ellipse cx="3" cy="125" fill="#817840" rx="28" ry="2"/><circle r="1" fill="#626621" transform="matrix(3.25377 -11.12314 24.77848 7.24827 221.9 108.4)"/><path fill="#5b5f2b" d="M117.3 119.4l-19.7 3.1-1-5.9 19.8-3.1z"/><path fill="#a0a7b4" d="M208.4 84.6l.2-3 33 1.8-.2 3z"/><path fill="#6581ac" d="M139.4 84.9l31.2-17.6-10.8 11.5-72.2-13.6z"/></g></g></svg>