<svg xmlns="http://www.w3.org/2000/svg" viewBox="0 0 1800 1200"><defs/><filter id="a"><feGaussianBlur stdDeviation="12"/></filter><rect width="100%" height="100%" fill="#355c67"/><g filter="url(#a)"><g fill-opacity=".5" transform="translate(3.5 3.5) scale(7.03125)"><circle r="1" fill="#b2c3ef" transform="rotate(-57.1 208.7 -168.2) scale(98.92157 86.21655)"/><circle r="1" fill="#5571bf" transform="matrix(-11.39984 -80.09942 165.95823 -23.61935 99.6 26)"/><circle r="1" fill="#bfd1e2" transform="matrix(-106.18694 7.2391 -1.2842 -18.8374 220.7 91.7)"/><path fill="#fffbdb" d="M198 162.6l7.2-25 54.8 15.8-7.2 25z"/><ellipse cx="159" cy="138" fill="#2b5b69" rx="45" ry="29"/><circle r="1" fill="#95b2d4" transform="matrix(2.85733 -18.05842 82.12873 12.995 0 83.7)"/><circle r="1" fill="#325387" transform="matrix(-86.39679 -40.28747 29.42551 -63.10324 121.5 14.9)"/><circle r="1" fill="ivory" transform="matrix(4.06933 -.11367 1.44227 51.63397 211.7 101.8)"/><circle r="1" fill="#456a7d" transform="matrix(133.59355 -1.32578 .26025 26.22477 71.3 129.3)"/><ellipse cx="96" cy="84" fill="#5680b2" rx="78" ry="17"/><circle r="1" fill="#7785a2" transform="rotate(61.8 74.6 137.1) scale(16.52734 25.36177)"/><circle r="1" fill="#fff8da" transform="matrix(15.404 -79.24667 1.06182 .2064 220.5 64.3)"/><path fill="#3c667a" d="M217 114h39v20h-39z"/><circle r="1" fill="#284271" transform="matrix(17.5645 -17.4804 35.92478 36.09763 98.3 13.2)"/><circle r="1" fill="#fbf4f4" transform="matrix(-1.35412 -3.64334 11.25988 -4.18496 177.5 169)"/><path fill="#9daec1" d="M3 105l73-6-92-17z"/><path fill="#5178b3" d="M-13 69L94 97-13 9z"/><ellipse cx="202" cy="23" fill="#486690" rx="24" ry="34"/><ellipse cx="61" cy="108" fill="#665952" rx="89" ry="5"/><path fill="#f5e8e4" d="M232.6 185l38.4-33.8-51.9.5 11.1-17z"/><ellipse cx="161" cy="146" fill="#426b79" rx="47" ry="18"/><ellipse cx="241" cy="44" fill="#4370ab" rx="15" ry="23"/><path fill="#617b84" d="M251.2 131.7l-39.8 16.4 6.1-11.6 53.5 20.6z"/><path fill="#356275" d="M93 113h114v13H93z"/><path fill="#638eb8" d="M56 99.9l74.7 2 82.9-64-18.4 47z"/><path fill="#b3bfcf" d="M213 80h43v33h-43z"/><ellipse cx="209" cy="103" fill="#fff7ea" rx="3" ry="46"/><path fill="#9ba8b5" d="M68.1 111.6l-6.9-14-61.7 5.5 4.9-8.5z"/><path fill="#abc3d4" d="M166 92h39v21h-39z"/><path fill="#3e6d89" d="M79 112h-95v65z"/><path fill="#b0a7a8" d="M180 162h49v8h-49z"/><circle r="1" fill="#2d4d7f" transform="rotate(79.2 65.8 118.5) scale(9.10237 34.33266)"/><path fill="#7d808d" d="M253 165l-13-7h11z"/><path fill="#6994d2" d="M222 59h34v16h-34z"/><path fill="#778890" d="M231 133h13v16h-13z"/><path fill="#487182" d="M214 131h9v14h-9z"/><path fill="#e1d9cc" d="M204.6 154.3l20 21.1-23.2-20.2 3.8-20.5z"/><circle r="1" fill="#3a6096" transform="matrix(-51.11724 11.61355 -3.11735 -13.72107 132.1 63.4)"/><path fill="#486273" d="M183.6 147.8l34 24.7-1.2 1.7-34-24.7z"/><path fill="#5a7296" d="M256.5.1L248 40.2 227.5 36 236-4.2z"/><path fill="#d6cdc2" d="M221 172l11-39-27 27z"/><ellipse cx="92" cy="107" fill="#596161" rx="29" ry="8"/><circle r="1" fill="#3f639e" transform="matrix(55.19936 49.24766 -11.15162 12.49932 30 31.4)"/><path fill="#f5f1ed" d="M271 181.6l-49.2 1.1 28.6-35.7-23.1 5.9z"/><path fill="#988c86" d="M226.7 185l2.7-29-11.1 9.1 5.5-11.4z"/><path fill="#557882" d="M141.8 162.7l28.1 22.3-3.5-36.1 5.1 10.3z"/><path fill="#c8d4df" d="M178.5 165.5l-54.1 15 74.1-14.4-1.8-2.1z"/><circle r="1" fill="#305d6c" transform="matrix(27.2974 14.69026 -21.34452 39.6623 97.9 150.9)"/><path fill="#596e93" d="M148.7 28.7l-30.1-10.4L160.3-16l70.6 23.1z"/><path fill="#547d93" d="M207.8 123.6l-5.4 23.4-28.2-6.6 5.4-23.4z"/><path fill="#89a7c4" d="M154 106l50-27-94 22z"/><circle r="1" fill="#587dad" transform="matrix(2.98751 -6.31843 59.89076 28.31784 31.7 71.7)"/><path fill="#ffecc5" d="M238.5-18.3l1 .2-12 44.4-1-.2z"/><path fill="#4f758b" d="M214 113h42v15h-42z"/><path fill="#8ea6be" d="M215 100h41v9h-41z"/><path fill="#e7e3dc" d="M208 94h5v72h-5z"/><path fill="#f4f3ed" d="M206 60h5v44h-5z"/><circle r="1" fill="#6a7e88" transform="matrix(1.69075 -16.3472 .9947 .10288 205.8 153.4)"/><path fill="#2d394b" d="M-14.5 112.4v-4l45-.8v4z"/><ellipse cx="213" cy="38" fill="#456b9f" rx="10" ry="22"/><path fill="#8da7c3" d="M203 70h3v44h-3z"/><path fill="#2b426d" d="M154-17.8l4.4 13.3-68.5 22.3-4.3-13.3z"/><path fill="#3f6772" d="M136 144h65v16h-65z"/><path fill="#658399" d="M271 124l-40 26 1-30z"/><ellipse cx="198" cy="169" fill="#727779" rx="19" ry="2"/><circle r="1" fill="#305085" transform="rotate(-76 70.2 -43.1) scale(17.4785 51.87235)"/><ellipse cx="253" cy="142" fill="#aaa8ac" rx="27" ry="2"/><path fill="#e9eae4" d="M207.9 110.9l8.1-12.1-.3.6 5.3-38.5z"/><path fill="#52778d" d="M249 137h7v16h-7z"/><path fill="#fcfffc" d="M234.4 156.4l36.6-4.2v-19.3L258.7 159z"/><ellipse cx="21" cy="113" fill="#777f85" rx="63" ry="1"/><path fill="#eee6d5" d="M209.9 120.6l-8.8 41-1-.2 8.8-41z"/><path fill="#efe5df" d="M240 148h12v4h-12z"/><circle r="1" fill="#5c85b4" transform="matrix(56.98794 -9.9196 .91183 5.23846 147.9 84.6)"/><path fill="#4471a7" d="M177.1 61.1L134 67.9l15.1 20.3 67.3-38.4z"/><ellipse cx="150" cy="13" fill="#6c83a6" rx="11" ry="9"/><path fill="#7691be" d="M209.2 52l13.3-6.5-13 1.4-19.8 8.3z"/><ellipse cx="81" cy="130" fill="#38647a" rx="69" ry="17"/><path fill="#6e92c0" d="M-16 62l78 36-62-8z"/><path fill="#b5b5b6" d="M232 158h24v7h-24z"/><path fill="#858789" d="M3 103h75v3H3z"/><ellipse cx="58" cy="110" fill="#3a4649" rx="19" ry="2"/><path fill="#33616e" d="M6 141h59v29H6z"/><path fill="#f3f4f0" d="M249 165l-20-3 15 18z"/><path fill="#587fb4" d="M271-8.8l-49.8 79.1 16.8-7.7 33-4.6z"/><ellipse cx="214" cy="169" fill="#758185" rx="1" ry="30"/><path fill="#6685a9" d="M64 92h68v9H64z"/><path fill="#3b6473" d="M204 150h3v6h-3z"/><path fill="#436e84" d="M182 160.4l14.7-47.7-63.5 14 12 16.9z"/><path fill="#608296" d="M221 144l-5-14 25-12z"/><path fill="#9f9081" d="M223 164h7v6h-7z"/><path fill="#2f5b60" d="M91 143l47 5-89 15z"/><circle r="1" fill="#9ba9ba" transform="rotate(-86.5 120 -18.4) scale(1.48593 25.1001)"/><path fill="#97b1c5" d="M163 111l-1-20 19 22z"/><circle r="1" fill="#ecf0f5" transform="matrix(-10.9503 3.94682 -.33908 -.94076 175.1 169)"/><path fill="#838897" d="M201 164.3l18-1.6v1l-18 1.6z"/><circle r="1" fill="#b1b3a2" transform="rotate(110.7 -9.2 72.4) scale(3.31872 1.86045)"/><path fill="#868791" d="M223 154l-2 4 9-6z"/><path fill="#d9d7cc" d="M230.7 134.8l1 5.3-1.5 5.6-19 17.6z"/><path fill="#657183" d="M119.4 103.9l34.4 10.6 11.1-2.1-6.4-3.6z"/></g></g></svg>