<svg xmlns="http://www.w3.org/2000/svg" viewBox="0 0 4032 3024"><defs/><filter id="a"><feGaussianBlur stdDeviation="12"/></filter><rect width="100%" height="100%" fill="#6d5b37"/><g filter="url(#a)"><g fill-opacity=".5" transform="translate(7.9 7.9) scale(15.75)"><circle cx="57" cy="129" r="237" fill="#b9a898"/><circle r="1" transform="matrix(1.09692 27.31103 -70.2293 2.8207 158.2 81.3)"/><circle cx="24" cy="120" r="48" fill="#ece4d1"/><circle r="1" fill="#c9c1ad" transform="matrix(-125.5369 -12.75157 2.81231 -27.68672 116.7 18)"/><ellipse cx="42" cy="53" fill="#23560d" rx="65" ry="19"/><circle r="1" fill="#fff535" transform="rotate(149.9 92.2 127.2) scale(14.97355 37.20961)"/><circle r="1" fill="#c40b14" transform="matrix(-8.85447 13.62392 -39.38404 -25.5965 255 167)"/><circle cx="231" cy="130" r="10" fill="#00a8ff"/><path fill="#3a1c0e" d="M95 63h142v38H95z"/><circle r="1" fill="#fae6cb" transform="matrix(5.81615 12.67733 -23.12957 10.61147 10.7 172.5)"/><ellipse cx="53" cy="93" fill="#d6c6b8" rx="44" ry="23"/><path fill="#130000" d="M94 107l2 37 14-63z"/><path fill="#000104" d="M271 75.1l-24.1-21.8 3.3-69.3-11.7 88.7z"/><circle r="1" fill="#c0a88c" transform="rotate(-11 623.3 -969) scale(21.03608 6.79262)"/><path fill="#fff099" d="M246.9 78.8l3.2 62-9 .4-3.2-62z"/><circle r="1" fill="#a88d6a" transform="rotate(98.2 -23.3 90.2) scale(37.0327 26.57769)"/><path fill="#1e0200" d="M170.6 145.6l-11.1-67-11.7 53-5.1-46.8z"/><ellipse cx="62" cy="167" fill="#3a3e1f" rx="29" ry="7"/><circle r="1" fill="#372317" transform="matrix(-8.82728 -79.02456 4.13398 -.46178 254.2 117.2)"/><path fill="#a8a08f" d="M178 0h66v58h-66z"/><circle r="1" fill="#f4fcf9" transform="rotate(-114.3 44.5 43.9) scale(6.5648 37.7078)"/><path fill="#252719" d="M68.1 82.5L51.7 94.9l-13.2 8.7L69.4 94z"/><path fill="#604f40" d="M191 91h47v29h-47z"/><circle r="1" fill="#2f2c19" transform="rotate(16.9 -125.1 556.5) scale(31.1888 7.79545)"/><ellipse cx="7" cy="62" fill="#33432b" rx="55" ry="12"/><circle r="1" fill="#cda98c" transform="matrix(-1.73308 9.90638 -52.0787 -9.11094 73.5 144.2)"/><path fill="#ffe951" d="M212 180l59 27-49-49z"/><path fill="#c7a582" d="M250.7 78.6l-2.8 15.8-28.6-5 2.8-15.8z"/><ellipse cx="126" cy="126" fill="#150700" rx="2" ry="44"/><path fill="#ffd7b3" d="M129 106l15-1v24z"/><circle r="1" fill="#140600" transform="matrix(17.56172 -15.702 10.21163 11.42109 164 93.6)"/><path fill="#998971" d="M116.8 56.2l7.5 80.2-2.2-119 72.2 14.1z"/><path fill="#caba9f" d="M105 51L35-5l101 3z"/><path fill="#6c351b" d="M101.7 153.5l7.7-28.3-33.8-58.1 26.5-6.2z"/><path fill="#756e4c" d="M72.1 131.4l-68.6 5.2 58.8-17.8 23.3-4.8z"/><circle r="1" fill="#cdb395" transform="rotate(170.1 13.1 96.5) scale(35.68154 6.75107)"/><ellipse cx="199" cy="153" fill="#e99b7a" rx="22" ry="8"/><path fill="#0080ee" d="M224.8 138l15-.3-.6-23.1-15.6 4.8z"/><ellipse cx="246" cy="17" rx="2" ry="55"/><path fill="#fae1c6" d="M41.7 101.6l49.7-5.2.9 8-49.7 5.2z"/><path fill="#1a1a12" d="M44 178l-25 7 35-22z"/><path fill="#22140c" d="M237 82l-65-16-52 41z"/><circle r="1" fill="#84291a" transform="rotate(129 90 139.4) scale(16.57994 20.26916)"/><path fill="#dcb996" d="M178 97l-16 29 33-30z"/><circle r="1" fill="#b1d5ec" transform="matrix(21.65985 -2.32544 .82148 7.6515 16 91)"/><path fill="#5f4424" d="M70 72.4l51.4-22.3 41.9 61.2-3.2-49.3z"/><path fill="#96805f" d="M-3 162l4-15 48-3z"/><path fill="#fff" d="M125 53h2v11h-2z"/><path fill="#9b6f53" d="M165 114h59v35h-59z"/><path fill="#c29f7f" d="M79 181h74v11H79z"/><ellipse cx="13" cy="45" fill="#688b46" rx="24" ry="17"/><path fill="#ff4446" d="M271 195l-61.6-42.4-1.1-1.9-4.4-14.3z"/><circle r="1" fill="#1b211c" transform="matrix(-18.12956 1.20416 -.32339 -4.86884 237.6 67.7)"/><ellipse cx="86" cy="90" fill="#6d3e22" rx="2" ry="40"/><path fill="#523f2c" d="M170 133l30-14-57 8z"/><path fill="#ebc4a4" d="M62 67L23 78h71z"/><path fill="#c19a79" d="M107 105h17v65h-17z"/><path fill="#160500" d="M120 108l-20-15 17-30z"/><path fill="#a0a092" d="M248 0h8v62h-8z"/><path fill="#493722" d="M92 147l-16 15-10-4z"/><ellipse cx="243" cy="106" fill="#ffcd8c" rx="4" ry="35"/><path fill="#110903" d="M103 125l1 10h10z"/><path fill="#bc9372" d="M130 162l42 11-44-66z"/><path fill="#f8e7cc" d="M7.7 194.3l.7-12.3 13.3-13.2 13.2-1.6z"/><path fill="#dbceb0" d="M39 132l2-34-46 29z"/><path fill="#685435" d="M139.5 178.4l-12.9 19.7 21-31.7-42.7 8.9z"/><path fill="#879c4c" d="M74.5 40.3L53.2 71.1l15.5-.6L47 29.1z"/><path fill="#5f503f" d="M18 102l-21 2-13-8z"/><circle r="1" fill="#a59a87" transform="matrix(37.08595 31.35843 -11.8328 13.99402 204.7 29.8)"/><ellipse cy="135" fill="#857c5a" rx="27" ry="5"/><path fill="#c8bba0" d="M97 10h21v40H97z"/><path fill="#0051aa" d="M253 125.7l.3-8.9 7.8 1.9 8.3 88.3z"/><path fill="#d9c0a9" d="M80.9 139.4l14-8.4-47.1 3.2-63.8 11.4z"/><path fill="#49463f" d="M69.4 80.7l.8 16.3-19 1.2 36.1-21.7z"/><circle r="1" fill="#f8fbf7" transform="matrix(7.08716 2.9501 -1.15905 2.78445 78.7 88.4)"/><circle cx="42" cy="158" r="6" fill="#fff0d0"/><circle r="1" fill="#fc4539" transform="matrix(-3.27503 2.56262 -11.19655 -14.30921 249.6 180)"/><ellipse cx="62" cy="10" fill="#bbad94" rx="69" ry="24"/><path fill="#3d372d" d="M229 99h10v22h-10z"/><path fill="#0e0000" d="M104 103l1 20-9-8z"/><path fill="#b19474" d="M99 118l-2 47 22 7z"/><path fill="#6c6945" d="M-16 158.7l32.5 7.6-10.3-1.2-14.7 30.7z"/><path fill="#ffd0ad" d="M97.4 103.5l-4.2 9-4.6-2 4.2-9z"/><path fill="#edf9ff" d="M28 102l39-23-24 5z"/><circle r="1" fill="#8d6f50" transform="matrix(.69183 13.58821 -34.91162 1.77749 187.8 191)"/><path fill="#3c1201" d="M93 111v24l8 5z"/><ellipse cx="245" cy="4" fill="#010805" rx="2" ry="69"/><path fill="#976f48" d="M23 81h31v3H23z"/><ellipse cx="11" cy="69" fill="#394134" rx="30" ry="6"/><path fill="#1f0e07" d="M144.5 101.2l12.9-18.7-29.4 3.7-5.8 24.6z"/><path fill="#1a3c23" d="M90 55L68 69l15 3z"/><path fill="#180300" d="M149.3 111.4l3 .6-3.6 18.6-3-.6z"/><circle r="1" fill="#a69b89" transform="rotate(-80.8 118.7 -86.2) scale(11.9716 49.33685)"/><path fill="#bf7e41" d="M246 73h4v39h-4z"/><path fill="#ffd450" d="M240.1 174.4l-25.2-20.5 13.4 53.1 35.4-4.5z"/><ellipse cx="72" cy="11" fill="#9f9377" rx="8" ry="29"/><path fill="#030402" d="M160.6 113.6l19.5-14.5-3.6-18.3-12.9 20.3z"/><ellipse cx="121" cy="87" fill="#c29b79" rx="2" ry="18"/><path fill="#2a311d" d="M137.2 50.2l-2 8.9 42.5 1.5-47.9-15.3z"/><path fill="#4e4636" d="M67.9 96.9l6.9-7.1-23.9 7.4-31.8 7.1z"/></g></g></svg>