<svg xmlns="http://www.w3.org/2000/svg" viewBox="0 0 3168 3168"><defs/><filter id="a"><feGaussianBlur stdDeviation="12"/></filter><rect width="100%" height="100%" fill="#465a38"/><g filter="url(#a)"><g fill-opacity=".5" transform="translate(6.2 6.2) scale(12.375)"><circle r="1" fill="#c4c7b4" transform="matrix(42.47615 -69.861 109.32956 66.47342 107.1 39.5)"/><circle r="1" fill="#baca76" transform="matrix(42.38168 -17.90272 41.8416 99.05296 221.3 254.5)"/><ellipse cx="89" cy="248" fill="#9e896b" rx="87" ry="35"/><circle r="1" fill="#b2bcad" transform="rotate(161.8 100 60.4) scale(79.30115 24.7723)"/><circle r="1" fill="#19112f" transform="matrix(-50.57445 45.88837 -19.69662 -21.70803 76 184.7)"/><circle r="1" fill="#e2f1d0" transform="rotate(163.3 36 34) scale(43.87821 14.61706)"/><circle r="1" fill="#7b5c5f" transform="matrix(-60.4667 24.7992 -13.64803 -33.27734 84.6 104.5)"/><circle r="1" fill="#375830" transform="matrix(-23.09892 -48.31682 19.2363 -9.19633 190.3 30.7)"/><path fill="#edebe7" d="M146 86h33v36h-33z"/><path fill="#c7dea7" d="M234.7 246.7l-45.4-91 46.6 50.7 25.8 8.8z"/><path fill="#d4a481" d="M139.6 193.3l8.8 14.6-48 28.8-8.8-14.6z"/><path fill="#f4f1ff" d="M140 123.1l3 10.6-25 7.2-3-10.6z"/><path fill="#3c3a2c" d="M247 111l-13 96-56-110z"/><ellipse cx="86" cy="3" fill="#476d3f" rx="47" ry="20"/><path fill="#fbf7fd" d="M203.3 104.3L172.4 69l8.3-7.2L211.6 97z"/><path fill="#414f2f" d="M91 239l129-62-42 58z"/><path fill="#1c1c35" d="M142 80l24-10 24 18z"/><path fill="#e5e9b3" d="M3 72.7l83.5-45.6-47.9 22.1-33.7 36z"/><circle r="1" fill="#97786d" transform="rotate(-84.5 100.2 39) scale(44.40312 13.86269)"/><circle cx="146" cy="167" r="31" fill="#362b3a"/><ellipse cx="3" cy="183" fill="#b6c590" rx="7" ry="18"/><path fill="#ffc700" d="M175 169l17-13h-26z"/><circle r="1" fill="#313642" transform="matrix(5.58142 7.22151 -14.83377 11.46484 127.8 114.8)"/><circle r="1" fill="#a88e73" transform="matrix(5.04905 22.25413 -47.60896 10.8016 66.3 255)"/><path fill="#98bd8b" d="M152 67L74 47l94-63z"/><path fill="#191d1e" d="M130 188l-43-33-62 92z"/><path fill="#ada299" d="M179.6 119.8l-42.7-5.7 52.7 25.6 20.1-26.5z"/><path fill="#ebf9c3" d="M12.1 48.9l-2-5.7 49.8-18 2 5.6z"/><circle r="1" fill="#192816" transform="matrix(17.97634 -7.15456 2.96197 7.44215 211.6 51.9)"/><path fill="#010" d="M44.7 59.7L25 75l-3.7-4.8L41 55z"/><path fill="#cab09e" d="M34.5 233l-36.7 38 34.3-45 15-12z"/><path fill="#819156" d="M102 162h28v15h-28z"/><path fill="#fff" d="M216 76h7v20h-7z"/><path fill="#03070b" d="M248.9 2.1l-9.1 10.2-41-28.3 7.6 35.7z"/><ellipse cx="130" cy="244" fill="#355320" rx="18" ry="23"/><path fill="#e2f7d7" d="M250.3 214.2l-6.8 5.8-19.3-9.7-21.1-16.9z"/><path fill="#7ca856" d="M169.7 262.8l-21.6-.4 1.8-34.1 37.9-30z"/><path fill="#dce3cc" d="M57 71l83-14-98-11z"/><path fill="#2e4a23" d="M5.6 57.3L77.2 24l1.2 2.8L6.8 60z"/><circle r="1" fill="#fbffff" transform="matrix(14.26528 14.06747 -1.4925 1.51349 150 14.1)"/><path fill="#f4ffee" d="M212 65l-19-2-15 11z"/><circle r="1" fill="#537645" transform="matrix(26.50206 -33.92134 1.34977 1.05455 61.9 72.6)"/><path fill="#242d4f" d="M70 138h129v16H70z"/><path fill="#96936a" d="M25 115h55v18H25z"/><path fill="#f2c2ca" d="M188.2 180.1l1.8 8.4-24 7.6 6.1-7.4z"/><path fill="#1d0817" d="M-17.1 230.2L.4 199.8l20.7 12-17.5 30.4z"/><circle r="1" fill="#d8caaf" transform="matrix(-12.91932 20.9637 -2.36578 -1.45796 58.3 86.3)"/><path fill="#d2f0b3" d="M200.8 188.8l1.2-1.5-9.2-20.2 15.5-13.4z"/><path fill="#9d8575" d="M134.5 185.5l-16 10.4L9.1 260.3l141.7-67.6z"/><path fill="#1c2f15" d="M37 88.6L47.5 69 29.6 81.5l-20.1-.2z"/><circle r="1" fill="#c8c2b0" transform="rotate(-120.7 83.3 121.4) scale(2.05047 74.31727)"/><path fill="#d0ec9c" d="M-12 48.6l-2.3-5.6L44 19.4l2.2 5.6z"/><path fill="#8ab554" d="M194 206h39v28h-39z"/><circle r="1" fill="#2b471b" transform="matrix(2.62714 -.24757 3.04747 32.33837 232.8 92.7)"/><ellipse cy="128" fill="#7a953b" rx="9" ry="56"/><circle r="1" fill="#665345" transform="rotate(165.5 36.3 57.4) scale(25.27214 13.5122)"/><circle r="1" fill="#3c5d1d" transform="rotate(-102.6 18.1 3.6) scale(3.17807 55.71155)"/><path fill="#649152" d="M159 58l31 12-35-65z"/><path fill="#769375" d="M167.2 34.5l95-32.6-22.6 37.7-3.2-19z"/><path fill="#14270f" d="M170.3 27.9l25.6-.4-12.1-6.5-14.5-5.4z"/><path fill="#13141e" d="M153 170l18 38-45-39z"/><path fill="#f1fff1" d="M236 242l-10 6 7 4z"/><path fill="#dbd9c9" d="M87.1 35.4L26.5 104l19.8-17.7-7.9-1.1z"/><circle cx="89" cy="255" r="11" fill="#c8cdb0"/><path fill="#405f3a" d="M210.1 65.2l5-.3 2.8 52-5 .2z"/><path fill="#4c6441" d="M59.3 36.5L-16 59.7l28.6 11.9 3.9-11.1z"/><path fill="#fff" d="M200 3l-21-18-13 7z"/><circle r="1" fill="#405f47" transform="matrix(-3.90177 4.50433 -21.84015 -18.91853 119.8 6.5)"/><circle r="1" fill="#385a2d" transform="matrix(-34.22578 2.82468 -.23773 -2.88045 4.9 7.5)"/><path fill="#dae5aa" d="M158 174l-5-12-8-2z"/><circle r="1" fill="#705838" transform="matrix(13.72954 -19.26725 8.36193 5.95859 77.7 236)"/><path fill="#698445" d="M241.4 80.4l-39.1-14.2 68.7-6.4v193z"/><path fill="#daedce" d="M211.8 212.6l-5.8 5.6 16.3-23.1 8.8 10.2z"/><ellipse cx="227" cy="189" fill="#56702b" rx="23" ry="8"/><circle cx="201" cy="23" r="8" fill="#b0be8d"/><path fill="#cddbba" d="M133.7 35.8l1.7 25.3 59.9 15.7L148.9 58z"/><path fill="#4f4c3c" d="M78 190l-3-49-85-23z"/><path fill="#d1e1dd" d="M156.5 28.5L115.2-9.1l30.9 33.3 12.1 11.4z"/><path fill="#1a2029" d="M112 167h10v42h-10z"/><path fill="#8476a1" d="M29 208l-10 28-21 15z"/><path fill="#c7cea1" d="M188.7 40.8l.6-.8 22 17.2-.6.8z"/><path fill="#1b3401" d="M248.7 250l-3-7.4 15.6-6.6 3 7.4z"/><circle r="1" fill="#b7d183" transform="matrix(-.65647 -3.32501 24.95212 -4.9264 32.8 11.3)"/><path fill="#89a271" d="M79-3l38 65-46-15z"/><path fill="#315925" d="M22 108l44-41-30 48z"/><path fill="#415920" d="M194 249l-17 22 56-31z"/><path fill="#0e1804" d="M196.7 10.9L145.8-16h32l2.6 4.9z"/><path fill="#fff5ec" d="M53.7 68.5L33.1 98l-.8-.5L52.9 68z"/><path fill="#fff" d="M126.8-9.8l28.5 29.5-2.1 2-28.5-29.4z"/><path fill="#d9dedd" d="M154.8 82.2l27.7 18.9-21.8 10.4-20.3-26.4z"/><path fill="#6e883c" d="M233.9 204.1l37.1 10.1-29.7-35.5-40.8 78z"/><path fill="#b47f10" d="M176 155h14v27h-14z"/><path fill="#cbb39e" d="M52 111l2-20-21 34z"/><path fill="#fafff5" d="M243 56h10v5h-10z"/><path fill="#434326" d="M199 170l69 25-16-47z"/><path fill="#a9bc93" d="M24.4 202.7l-27-16.2 10.4-2.3 8.2 21.1z"/><path fill="#131c20" d="M83.5 148.7L67.1 161l85.7-.7 19.4-3.7z"/><path fill="#5e5d5e" d="M178.9 71.8l34.4 65.5-31.9-47.5-22.6-4.3z"/><path fill="#34344a" d="M181 129l-30 7 52 28z"/><path fill="#fafbf3" d="M82.5 62.9L61.5 44l2.8 26.5-20-10.2z"/></g></g></svg>