<svg xmlns="http://www.w3.org/2000/svg" viewBox="0 0 2688 4032"><defs/><filter id="a"><feGaussianBlur stdDeviation="12"/></filter><rect width="100%" height="100%" fill="#575427"/><g filter="url(#a)"><g fill-opacity=".5" transform="translate(7.9 7.9) scale(15.75)"><circle r="1" fill="#fdc7c8" transform="matrix(107.84673 -74.50579 34.44732 49.86231 99 74.3)"/><circle cx="149" cy="14" r="64" fill="#c1f3ff"/><circle r="1" fill="#fb9e6a" transform="rotate(92.8 -56 99.4) scale(76.41584 17.08849)"/><circle cx="46" cy="24" r="41" fill="#341614"/><circle r="1" fill="#dfbcb2" transform="matrix(45.7256 14.48299 -3.81525 12.04549 145.7 155.3)"/><circle r="1" fill="#251218" transform="matrix(20.96652 26.34037 -17.0493 13.57098 143.8 117)"/><circle r="1" fill="#d07e4b" transform="rotate(-151.7 37.3 38.8) scale(71.58431 37.25999)"/><path fill="#e1cdc2" d="M106.1 276.3l-14.5 15-59.7-57.6 14.5-15z"/><circle r="1" fill="#220003" transform="matrix(10.14245 65.26377 -14.27458 2.21837 6 186.8)"/><ellipse cx="101" cy="21" fill="#01101b" rx="4" ry="74"/><circle r="1" fill="#261f0a" transform="rotate(-50.1 273.7 18.2) scale(29.80747 46.34156)"/><circle r="1" fill="#c7a597" transform="matrix(-8.77903 -6.17 41.6481 -59.25926 169 215.2)"/><path fill="#c7e0c8" d="M2.4 121.5l18.1-38.3L5 61.6-12.1-16z"/><circle cx="103" cy="135" r="34" fill="#977648"/><circle r="1" fill="#f9a469" transform="matrix(-15.6977 -2.73785 10.78968 -61.8636 59.6 117.4)"/><circle r="1" fill="#f4ffff" transform="matrix(-24.31137 11.13062 -3.97523 -8.68266 131.9 10.4)"/><circle r="1" fill="#1d1a18" transform="matrix(-43.2118 -10.48038 4.2095 -17.35628 41.6 19.8)"/><ellipse cx="26" cy="124" fill="#af6d45" rx="11" ry="89"/><path fill="#c2c8ca" d="M62.4-1.1l41.1-4.8L90 21.5 56.6-9.4z"/><path fill="#b08e81" d="M163.3 223.6l-14-49.3-59.5-49.6 95.2 36.4z"/><path fill="#f0e3d1" d="M57 253h76v3H57z"/><circle r="1" fill="#cad7d1" transform="matrix(21.22544 -18.13204 13.68979 16.02532 129.4 60.4)"/><ellipse cx="35" cy="207" fill="#caaca1" rx="11" ry="20"/><path fill="#504e54" d="M83 86l-1-55 27 62z"/><path fill="#37575c" d="M19 75L8 122l25-26z"/><path fill="#ff9288" d="M86 197l30 4-3-8z"/><circle r="1" fill="#7f9eb9" transform="rotate(-55.2 175.9 -114) scale(11.62011 32.9467)"/><ellipse cx="94" cy="26" fill="#afcdd7" rx="6" ry="51"/><path fill="#53433b" d="M110 89h45v46h-45z"/><circle r="1" fill="#818aa6" transform="rotate(-97.9 89.9 -56) scale(11.42063 36.51471)"/><path fill="#b3bcc1" d="M141.4 142.5l-4.1 14.4-32.7-9.4 4.1-14.4z"/><ellipse cx="19" cy="20" fill="#36291d" rx="55" ry="29"/><ellipse cx="135" cy="201" fill="#484510" rx="23" ry="39"/><path fill="#231506" d="M12.4 149.8l7.4 17.8-18.4 12.2-6.1-56.9z"/><circle r="1" fill="#a57f61" transform="matrix(-7.88349 -5.73567 29.21888 -40.16036 51.8 166.3)"/><path fill="#d27132" d="M4 131l25 51-13-76z"/><path fill="#7e3410" d="M149.5 125.9l39.3 27.5-10.3 14.7-39.3-27.5z"/><path fill="#fbffff" d="M176.2 13.9l-46.8-5 2.4-22.8 46.8 5z"/><path fill="#e2ffff" d="M158 41l-50 2-2-14z"/><path fill="#b3aa8f" d="M45.6 248.5l78 4.5 29.5-18.8-29.3 36.8z"/><ellipse cx="99" cy="160" fill="#7a9416" rx="34" ry="9"/><path fill="#fcb98d" d="M82.2 102.4l40.2-2-38-14 3.4.3z"/><ellipse cx="102" cy="44" fill="#140f0c" rx="2" ry="49"/><path fill="#a65434" d="M80 110h38v25H80z"/><path fill="#95673f" d="M114.5 214.4l33.7-7.4-16.3-15 1.1 41.7z"/><circle r="1" fill="#ffae76" transform="matrix(8.0785 3.89022 -16.13648 33.5093 65.8 86.8)"/><path fill="#170d0d" d="M62 211l81-17-71 39z"/><path fill="#00030d" d="M174 126.2l-27.1-19 5.2-7.4 27 19z"/><circle r="1" fill="#4a2d20" transform="rotate(-28.7 497.8 105.5) scale(29.99351 55.19179)"/><path fill="#241801" d="M119 216l14 28-33 10z"/><path fill="#725039" d="M89.8 39.8L86 3.7l-8.9 35.1 17.5 49.1z"/><path fill="#3e352a" d="M161 91l-16 7 27-27z"/><path fill="#2c0000" d="M154.3 272.7l-10.7-12 26-23.4 10.8 12z"/><circle r="1" fill="#c7764c" transform="matrix(10.99025 .51074 -1.2615 27.1451 50.5 69.7)"/><path fill="#f3b080" d="M41 198.7l-11.7-6.6 4 40.1-16.1-51z"/><path fill="#ab4f6d" d="M104 173l14 25-26-23z"/><path fill="#ffaa6b" d="M31 128l69-32-65 59z"/><circle cx="97" cy="236" r="3" fill="#ffffb8"/><path fill="#e8dcbc" d="M61 241l26 30 10-16z"/><ellipse cx="130" cy="131" fill="#b49389" rx="5" ry="12"/><path fill="#191e19" d="M135.9 187.4l-8.2 23.3-17-26.2 13.6-2.8z"/><path fill="#5a6816" d="M49.6 179.6L77 150.8l-23.8 71.9-7.6-8.8z"/><path fill="#bc8157" d="M76.4 40.1l12.3 18.7L73 48.6l-40.8 3.5z"/><path fill="#9b6f54" d="M142.3 170.5l19.4-23.4 23.3 19.4-8.3 41z"/><path fill="#181b00" d="M148 207l-7-22-3 47z"/><circle r="1" fill="#401804" transform="matrix(2.1081 7.25394 -12.20669 3.54745 85.3 176)"/><path fill="#ac8a53" d="M127.9 209.1l-4.7 10.3-19.5-4.4-2 9.5z"/><path fill="#c1c7bc" d="M167.3 82.6l-62.2-8.7-1.5-28.3 39.4-4.2z"/><path fill="#c4b494" d="M4 122L-16 12l37 70z"/><path fill="#b96d49" d="M50.8 153.8L77.6 112l30.3-15.2 14.3 9.5z"/><path fill="#98b8be" d="M96.8 53h3l-.6 36h-3z"/><path fill="#171d15" d="M27.2 58.5l10-4.6 1.6 3.6-10 4.6z"/><path fill="#9b8475" d="M36 166h12v71H36z"/><circle r="1" fill="#788626" transform="matrix(27.51168 11.96852 -4.14154 9.52004 119.1 163.6)"/><path fill="#b0b6ac" d="M99 143l43 18 10-12z"/><path fill="#4a6012" d="M47.8 215.8L71 246.3l42.4 10.5 1.8-6.8z"/><path fill="#d5e9f7" d="M185-6.8l-80.8 40.9.1-22.6 71.4-1.4z"/><path fill="#9da8bf" d="M167.3 84.7l-15.1 13.2 32.8 18.7V54.3z"/><path fill="#45150c" d="M96 87l-8-21v23z"/><ellipse cx="127" cy="82" fill="#8f9b99" rx="23" ry="7"/><path fill="#513823" d="M39 33l-55-16 26 39z"/><path fill="#c77f55" d="M48.6 71.1l6.3 24.7-43.2-20.3 5.5-24.9z"/><path fill="#2e1a0f" d="M171.5 115.3l-36.4-5.8 8.8 17.5 41.1 13.7z"/><path fill="#c8a334" d="M127.2 231.6l7.4-11.9 4.2 2.7-7.4 11.9z"/><path fill="#66473a" d="M124.5 138l7.3-18.3-66 23.3 30.4-9.3z"/><path fill="#595342" d="M76.7 34.7L85.1 54l3.5-33.3L58.5-16z"/><path fill="#721915" d="M41.3 86.3l15.9 8.5-.5.9-15.9-8.5z"/><path fill="#d4844e" d="M20 121l1 66 29-91z"/><path fill="#ffc7c5" d="M105 196h9v4h-9z"/><path fill="#b57a56" d="M5.7 120.6l76.9-12.9 1.7-64.2L73 101.2z"/><path fill="#42120b" d="M100 185h5v23h-5z"/><path fill="#a49282" d="M89 137h25v13H89z"/><path fill="#9c5836" d="M13.8 155.7l19.4 49.8 6.2-58.9-14.7 31.1z"/><circle cx="99" cy="177" r="2" fill="#ffd9ff"/><path fill="#febb79" d="M43.1 160l-14.7-8.4 12.5-21.7 14.7 8.5z"/><ellipse cx="100" cy="26" fill="#272421" rx="1" ry="49"/><path fill="#23523d" d="M144.2 194.9l-7.7-8.9-28.8 23.8 27.2-10.6z"/><circle r="1" fill="#331e11" transform="matrix(-16.47696 -20.55547 12.00796 -9.6254 0 165.8)"/><path fill="#915b3f" d="M58.3 74.7l1.4-4-9.1-16.3 25.1-1.6z"/><path fill="#8d9595" d="M105.9 12.6l-2-4.6 20.2-8.6 2 4.6z"/></g></g></svg>