<svg xmlns="http://www.w3.org/2000/svg" viewBox="0 0 1800 1200"><defs/><filter id="a"><feGaussianBlur stdDeviation="12"/></filter><rect width="100%" height="100%" fill="#4b4c45"/><g filter="url(#a)"><g fill-opacity=".5" transform="translate(3.5 3.5) scale(7.03125)"><circle r="1" fill="#c2defe" transform="rotate(-121.3 67 -37.7) scale(103.68683 243.11507)"/><circle cx="160" cy="169" r="117" fill="#5f717b"/><circle r="1" fill="#4e401f" transform="rotate(85.6 39.7 134.3) scale(29.69303 73.19336)"/><ellipse cx="93" cy="152" fill="#2468b0" rx="255" ry="21"/><circle r="1" fill="#9fc1e8" transform="rotate(78.9 12.2 40) scale(58.50124 206.47453)"/><ellipse cx="169" cy="123" fill="#e1c098" rx="157" ry="9"/><circle r="1" fill="#96bbdd" transform="matrix(71.68169 -3.12969 1.00334 22.98026 235.9 36.9)"/><circle r="1" fill="#4b4945" transform="matrix(28.205 -11.60618 5.34247 12.9831 26.5 100)"/><path fill="#e1bc8e" d="M54.5 136.2L36 103l45.5-25.2L100 111z"/><ellipse cx="192" cy="101" fill="#535140" rx="86" ry="23"/><path fill="#948572" d="M155.2 107.2l-.9 13.6-37.4-61.9 116.6 75.6z"/><circle r="1" fill="#4a4b3e" transform="rotate(-153.5 93.2 17.4) scale(30.3402 26.30591)"/><path fill="#44688d" d="M0 131h183v39H0z"/><ellipse cx="222" cy="86" fill="#3e453c" rx="49" ry="28"/><path fill="#d2b89a" d="M98.1 106.1l42.6 6-2.8 19.8-42.6-6z"/><path fill="#897557" d="M88 66h70v19H88z"/><ellipse cx="145" cy="61" fill="#bab2a8" rx="24" ry="3"/><ellipse cx="241" cy="23" fill="#8daac6" rx="98" ry="36"/><path fill="#baa38a" d="M203.3 136.8l-5.3-9.3-20.4-32.1-3.2 15.4z"/><path fill="#c6baa8" d="M35 105l77 24-95-1z"/><path fill="#355877" d="M52 151l-68 2 12-40z"/><path fill="#ddc3a2" d="M123 63l28 17-17-1z"/><ellipse cy="101" fill="#485560" rx="42" ry="11"/><ellipse cx="214" cy="127" fill="#c4b7a5" rx="153" ry="4"/><path fill="#494b44" d="M151 73h26v53h-26z"/><path fill="#68604e" d="M95 65h32v46H95z"/><path fill="#a58d73" d="M185 122l22-29-12-1z"/><path fill="#383e2e" d="M271 76.3l-22.2 50.6-4.1-2.6-13.5-29.9z"/><path fill="#d5b994" d="M113.2 87l-18.7-9.5 2.3-4.5 18.7 9.5z"/><path fill="#cbb28f" d="M82.3 91.7l14.3-22.4-9.9-.3-44.3 50.2z"/><path fill="#38413e" d="M118 77l8-14-34 12z"/><path fill="#343c34" d="M205 67l-62-12 23-7z"/><path fill="#726a5f" d="M40.2 110.3l34.1-33.6-21.7 5.5-4.8 17.7z"/><path fill="#cabaa4" d="M122 125l-36 3 17-26z"/><path fill="#6d6e65" d="M271 54l-39 6 31 28z"/><path fill="#2c587b" d="M215 132h41v38h-41z"/><path fill="#ac967a" d="M102.7 92.2l-14.3 11.5-21.1 24.8 5.1-50.8z"/><path fill="#3d443c" d="M208.2 117.5L193 78.9 129 64l74.4 41.5z"/><path fill="#e1c29e" d="M161 91l6.9 19.8-1 .3-6.8-19.9z"/><circle cx="200" cy="29" r="30" fill="#91abc4"/><path fill="#867a65" d="M131 112l16-1 11-46z"/><path fill="#fff5d5" d="M5 115v6l11-1z"/><path fill="#c6b298" d="M245.4 127.4l-18.5 4-2.3-10.8 18.5-4z"/><circle r="1" fill="#527599" transform="matrix(-.45825 12.27343 -56.90937 -2.12482 73.4 169)"/><path fill="#797d80" d="M-1.8 99.2l32.1-5.8 31.5 12.2-15.5-24.5z"/><path fill="#9f9482" d="M174.8 64.4h-18.3L130.2 50l56.3 16.8z"/><circle r="1" fill="#d5cbbd" transform="rotate(173.4 23.6 59.9) scale(6.87856 14.33319)"/><path fill="#96afcb" d="M37 0h98v64H37z"/><path fill="#484e46" d="M129.3 63.6l73.2 30.3-61.1-30.6L171 46.5z"/><ellipse cx="218" cy="74" fill="#414841" rx="34" ry="16"/><path fill="#353935" d="M11 127l7-5H0z"/><path fill="#5b5742" d="M93.6 97.8l9.3-3.5-3.5 20.6-5.5-16.8z"/><path fill="#454943" d="M104.6 68.5l16.6 23.6 25.6-6.7-2.5 13z"/><path fill="#586266" d="M31.7 143.9L20.5 93.5 14 120l14.1-2.3z"/><circle cx="237" cy="31" r="29" fill="#8ba8c3"/><path fill="#a39787" d="M60 114h43v10H60z"/><path fill="#b39b7e" d="M155 76l-27 9-8-9z"/><path fill="#525c5e" d="M20.1 120.4l17.6-25.3-36.1 26.6-3.2-24z"/><ellipse cx="172" cy="69" fill="#9c8c75" rx="16" ry="2"/><path fill="#40423c" d="M187 110l12 6-17-27z"/><path fill="#7b6f5a" d="M194.7 102.8l19.9-1.5-25.5-14.8 32.8 36.6z"/><path fill="#5c5a49" d="M85.3 84.8l41 16.4-34.5-26.5-1.1 23.7z"/><path fill="#4c4c41" d="M140 114h39v6h-39z"/><path fill="#e0d2be" d="M90 109h6v14h-6z"/><ellipse cx="13" cy="128" fill="#b1a694" rx="69" ry="2"/><path fill="#b2a188" d="M56.9 95.2l53.6.5 16.4 10.4-53.2-21z"/><ellipse cx="11" cy="78" fill="#9cadc2" rx="19" ry="12"/><path fill="#93806b" d="M270.9 81l-29.4-3.9-1.7 2L267 82z"/><path fill="#cfbba0" d="M144 123h13v6h-13z"/><path fill="#b39f84" d="M163 113l8 14-12 2z"/><circle r="1" fill="#94acc5" transform="matrix(15.9993 -7.07122 4.873 11.02563 133 49.8)"/><circle cx="195" cy="104" r="3" fill="#d7b38d"/><path fill="#dcc6a7" d="M88 74l-6 17-2-20z"/><path fill="#525244" d="M114.8 88.6L116 121l8.6-17.5-25.4-21.3z"/><path fill="#a69b8a" d="M115.6 60.3l-.6 6.3-11.1-3.6-3.1 13.7z"/><ellipse cx="50" cy="68" fill="#a0b1c5" rx="33" ry="13"/><circle r="1" fill="#83a3c4" transform="rotate(139.2 5 4.1) scale(133.65401 24.78675)"/><path fill="#bba282" d="M194.5 121.4l-5.8 4-13.2-18.8 5.8-4z"/><path fill="#deba95" d="M153 89l-6 6 1-5z"/><ellipse cx="124" cy="131" fill="#716457" rx="185" ry="1"/><ellipse cx="199" cy="39" fill="#91aac2" rx="18" ry="21"/><path fill="#575a53" d="M48.5 96.7L48 96l29.5-20.6.5.8z"/><path fill="#424639" d="M271 117.4l-48.7-1-1.9 7.6-15.7-51.8z"/><path fill="#46453d" d="M195.6 112.9l-1.3 12.3L208 94.3l-10.7 9.9z"/><path fill="#bba794" d="M259.7 66.8l-.4 5-9-.6.4-5z"/><path fill="#bfaa91" d="M31.8 108.5l-15.1 17.9 22.8-8.2 2.3-14.6z"/><path fill="#3c403c" d="M197.2 101.1l34.8 12.5-38.5-19.7-28.7 8.7z"/><path fill="#ac9474" d="M190 92.1l22.9 9.5-6.7-3.8 3.3-3.6z"/><path fill="#343c3a" d="M171.1 88.8l-28.7-3.6.5-4 28.7 3.6z"/><path fill="#345f85" d="M270 133l-127-2 89 29z"/><path fill="#33352a" d="M183.7 128l-2.4-13.8 1-.2 2.4 13.8z"/><ellipse cx="116" cy="132" fill="#555257" rx="57" ry="1"/><path fill="#beab91" d="M90.7 118.4L94.8 82l-14.1 28.6 33.1 2.1z"/><circle cx="179" cy="105" r="4" fill="#d8be9c"/><circle r="1" fill="#719abb" transform="rotate(56.5 125.1 238.7) scale(51.76278 15.90976)"/><path fill="#40463c" d="M142.4 104.1l19.3-11.9 107.7-5.6-90.6-17.4z"/><path fill="#af9f84" d="M156 114l-12-12 4-2z"/><path fill="#5e666e" d="M89 116.6l-.7 4.7-3.7 4.3 2.7-13.8z"/><path fill="#817667" d="M220.2 134.7l-1.7-8.6-8.5-19.7.2 12z"/><path fill="#497099" d="M0 132h95v14H0z"/></g></g></svg>