<svg xmlns="http://www.w3.org/2000/svg" viewBox="0 0 1200 1800"><defs/><filter id="a"><feGaussianBlur stdDeviation="12"/></filter><rect width="100%" height="100%" fill="#544031"/><g filter="url(#a)"><g fill-opacity=".5" transform="translate(3.5 3.5) scale(7.03125)"><path fill="#f5eace" d="M109.6 180.3l-155-2.7 3.8-218 155 2.8z"/><circle r="1" fill="#5b6d80" transform="rotate(-59.7 193.9 -21.3) scale(169 90.83152)"/><circle r="1" fill="#e6c298" transform="matrix(16.14452 -3.08803 17.27053 90.2921 53.8 72.5)"/><ellipse cy="62" fill="#e7c59b" rx="28" ry="128"/><path fill="#533d2b" d="M25 97h29v37H25z"/><circle r="1" fill="#634c3f" transform="matrix(-11.91367 -.31197 1.27708 -48.76975 83.7 87.1)"/><path fill="#090c17" d="M52.6 219l-30 1-1.2-37 30-1z"/><circle r="1" fill="#4f627e" transform="matrix(-40.19923 73.1323 -26.04686 -14.31739 94.4 195.9)"/><ellipse cx="102" cy="84" fill="#ffd8a2" rx="4" ry="63"/><path fill="#18101b" d="M148 170l-34 45 34 24z"/><circle r="1" fill="#d1b18d" transform="matrix(78.24584 -68.9549 13.43831 15.24898 86.7 11.3)"/><circle r="1" fill="#160e0d" transform="matrix(-5.6965 8.63108 -14.59379 -9.63187 133.7 155)"/><circle r="1" fill="#babdb9" transform="rotate(91.3 -60.1 126.6) scale(59.16289 3.52154)"/><circle r="1" fill="#0e1316" transform="matrix(14.26478 1.34816 -1.2861 13.60824 134 108.5)"/><ellipse cx="121" cy="243" fill="#7286a2" rx="158" ry="4"/><path fill="#263040" d="M86.9 231.4l13.9 12.1 1-108.1L72.1 237z"/><path fill="#22ab91" d="M31 144h22v40H31z"/><circle r="1" fill="#70849a" transform="matrix(-7.47162 -.14346 1.379 -71.81891 109.3 203)"/><path fill="#d8bd9c" d="M72 106l-88-27 88-47z"/><path fill="#3e2815" d="M85 131l9 21 18-7z"/><circle cx="85" cy="56" r="15" fill="#5a402d"/><ellipse cx="144" cy="32" fill="#686263" rx="36" ry="67"/><ellipse cx="129" cy="179" fill="#7e85b3" rx="9" ry="16"/><path fill="#c4b49e" d="M45.7 90.7l53.1 35.4L53 153.9l20.3 8.8z"/><path fill="#382a18" d="M22 123h4v106h-4z"/><path fill="#b69b7b" d="M28 53L-16 1l161-12z"/><path fill="#2a3037" d="M22 227h34v16H22z"/><ellipse cx="12" cy="118" fill="#d9bd9d" rx="22" ry="8"/><path fill="#162129" d="M84 118.4l-6.9-8.8L83 99.4l12.6 7.7z"/><path fill="#d8b691" d="M107 62V1L87 34z"/><circle r="1" fill="#7e5033" transform="matrix(-1.889 -.00974 .25874 -50.19527 97.6 102.7)"/><path fill="#8d7d71" d="M0 167l22 2.3-4 37.7-22-2.3z"/><path fill="#deab7e" d="M25 141l19 4 2-18z"/><path fill="#1261c2" d="M99.4 163.7l-25-.4.2-9 25 .4z"/><path fill="#40252f" d="M137 210l-27-12 3-26z"/><path fill="#27272b" d="M141 105h9v106h-9z"/><path fill="#544f58" d="M147 149h23v107h-23z"/><path fill="#3c4849" d="M62 214v-47l-28.6 18.9-4-26.3z"/><path fill="#667b90" d="M139 110l-35 31 36-3z"/><path fill="#10171a" d="M33 107h16v9H33z"/><path fill="#0b202f" d="M93.9 83.7l-5.6 9.5-11-3.5 2-9.4z"/><path fill="#fffae1" d="M62 148h6v26h-6z"/><path fill="#62c2a4" d="M24 145h33v13H24z"/><path fill="#1e0b00" d="M75 209h14v10H75z"/><path fill="#6a86aa" d="M85 200.4l6.8-38.4L70 143.5l31 68.6z"/><path fill="#6e6a6c" d="M109 64l44-2-46 49z"/><path fill="#3a3825" d="M57 141h3v29h-3z"/><path fill="#012d67" d="M93 167.3l-3-17.4 8.6 4.4-6.6 42.1z"/><path fill="#d5b692" d="M.5 76.3l.7 78.8 18 20.7 4.7-33.4z"/><path fill="#5a524f" d="M131.4 53L185-16l-72.3 50.7-29.2-10.9z"/><path fill="#647389" d="M106 232l-40 19 108-1z"/><path fill="#988e89" d="M75 81l1-15 26-2z"/><path fill="#bca69a" d="M75 103l14-7-13-6z"/><path fill="#4e392c" d="M91.4 127.6l8 19-18-7.6-8.4 24.5z"/><path fill="#ffffe9" d="M58 58h2v41h-2z"/><path fill="#8ca3bc" d="M102.2 227.8l4.7-53.8 3 .2L105 228z"/><path fill="#6d5338" d="M106.5 3.9L42.2-11.9l17 9.6 51.4 9.1z"/><ellipse cx="4" cy="113" fill="#edddbd" rx="2" ry="60"/><path fill="#e2c5a3" d="M101 99l10 19-12 23z"/><path fill="#ede8d4" d="M55 133h18v7H55z"/><path fill="#050c27" d="M26 203l27-2-1-24z"/><path fill="#6f6d5c" d="M36.2 136.7l12.5 4.4L66 120.7 15.9 159z"/><path fill="#6d7b8a" d="M39.7 271h25.1l-42.1-34.3-4.8 14z"/><path fill="#7e654f" d="M45.9 80.1l11.7 10.1-27.9-15 6.8 3.2z"/><path fill="#c68659" d="M95 147l-14-14 3 19z"/><path fill="#252727" d="M152 244h18v6h-18z"/><path fill="#5b5e66" d="M67.1 218.3l.6-56.3 13.6 55.4 8.4 16.9z"/><path fill="#c7cac6" d="M82 160h6v12h-6z"/><ellipse cx="75" cy="121" fill="#8d7b72" rx="3" ry="65"/><path fill="#d2b494" d="M114.9 29.5l-13.4 22.6-20.9-22.9-37 10.1z"/><path fill="#5e6774" d="M51 201l-11 23 37 24z"/><path fill="#6b4a2b" d="M49.7 100l-9.3-4.3-19.5 8.3 27.6-1.3z"/><circle r="1" fill="#a9a581" transform="matrix(-1.5556 -.00677 .1233 -28.32516 28.6 165.6)"/><path fill="#d59c67" d="M56 175l1-16-7-5z"/><path fill="#fff" d="M28 142l3-8 1 6z"/><circle r="1" fill="#d8be9c" transform="matrix(-8.22374 19.85386 -5.18522 -2.14779 24.5 94.2)"/><path fill="#6f758e" d="M106.4 156.7l-2.3-8.9 32.5 50.2-7.1-43.3z"/><path fill="#898e97" d="M52 117H36l22 10z"/><path fill="#327a71" d="M38.2 159.7l-15.4-18.3 16.5 39.9 5.8 5.2z"/><circle r="1" fill="#13100e" transform="matrix(-8.19118 -6.58588 2.08656 -2.59516 130.7 147.4)"/><path fill="#e2d8c0" d="M23.4 116.3l1.3 7.5 6.9 2-7.3-12.7z"/><path fill="#564c4c" d="M26 206h12v25H26z"/><path fill="#4a4642" d="M48 252h96v4H48z"/><path fill="#696466" d="M116 50L96.5 27.7l74.4 48.7-66.9 30.5z"/><path fill="#6b3c18" d="M74.8 44.9l23 1.2-.6 9-23-1.2z"/><path fill="#694526" d="M76 25h15v3H76z"/><path fill="#2f5371" d="M78 56h13v14H78z"/><circle cx="126" cy="111" r="8" fill="#0c1218"/><ellipse cx="161" cy="131" fill="#665f63" rx="10" ry="64"/><path fill="#a37855" d="M19 39h23v7H19z"/><path fill="#3a1317" d="M120 219v-25l26 2z"/><path fill="#5c544b" d="M58 147l-4-27-6 19z"/><path fill="#383f4e" d="M185 241.3l-74.4-6 14.5-10.6-2.6-14.9z"/><path fill="#463e3b" d="M156 34.1l7.1 28.4-21.6-43-33-14.9z"/><path fill="#d2b28e" d="M60 45h12v84H60z"/><path fill="#d6c4a7" d="M14.1 8.7L29.8-8.2l8 7.5-15.6 16.9z"/><path fill="#06040b" d="M77 144h4v7h-4z"/><path fill="#595450" d="M112.7 138l2 3.5L87.2 156l-2-3.5z"/><ellipse cx="73" cy="99" fill="#725c4e" rx="2" ry="27"/><path fill="#6a7279" d="M119.4 116.2l15.7 13.3-23.7 19.5-3.6-60.4z"/></g></g></svg>