<svg xmlns="http://www.w3.org/2000/svg" viewBox="0 0 1800 1200"><defs/><filter id="a"><feGaussianBlur stdDeviation="12"/></filter><rect width="100%" height="100%" fill="#3a4c5c"/><g filter="url(#a)"><g fill-opacity=".5" transform="translate(3.5 3.5) scale(7.03125)"><ellipse cx="51" cy="60" fill="#f8f5f1" rx="188" ry="101"/><circle r="1" fill="#5c7595" transform="matrix(202.03349 155.58673 -30.66481 39.81907 232.5 79.3)"/><circle r="1" fill="#e3dccc" transform="matrix(-.0714 56.08033 -139.56885 -.17769 11 97.3)"/><circle r="1" fill="#bbb9b1" transform="rotate(17.2 -253.3 804.4) scale(100.88185 22.17204)"/><circle r="1" fill="#4e6887" transform="matrix(14.52956 -36.88543 74.7085 29.42846 205.3 47)"/><ellipse cx="189" cy="147" fill="#221a0c" rx="47" ry="15"/><ellipse cx="2" cy="65" fill="#fff9ec" rx="65" ry="17"/><circle cx="96" cy="115" r="48" fill="#aaabaa"/><circle r="1" fill="#001e00" transform="matrix(-6.74456 18.23293 -78.7931 -29.14646 246 0)"/><path d="M68 160l-4-8-19 8z"/><circle r="1" fill="#617897" transform="matrix(-6.65626 25.73784 -216.96514 -56.111 113.1 11.2)"/><path fill="#9ea4ac" d="M239 138h17v23h-17z"/><circle r="1" fill="#7a818b" transform="rotate(96.3 1.4 77.3) scale(6.2896 32.3928)"/><ellipse cx="5" cy="144" fill="#bab2a6" rx="64" ry="17"/><path fill="#404036" d="M150.5 143.5l49.1-22.4-62.2 47-12.3-19.9z"/><circle r="1" fill="#d5d3c9" transform="rotate(-145.3 31 46.8) scale(46.27863 14.81929)"/><circle r="1" fill="#999fa3" transform="matrix(3.24947 12.41623 -64.405 16.85554 210 110.4)"/><circle r="1" fill="#dbd8cd" transform="rotate(16.8 -190.7 346.1) scale(50.82302 8.21614)"/><ellipse cx="214" cy="69" fill="#53667d" rx="29" ry="23"/><path fill="#7a673f" d="M152.5.7l2-4.6 97 45.2-2 4.6z"/><circle cx="104" cy="128" r="33" fill="#afafad"/><path fill="#a7a8a7" d="M176 130l-36-45-43 75z"/><path fill="#212528" d="M271 164.9L229.6 185l9.2-36.6-116.2 9.6z"/><path fill="#bebeb8" d="M113 73h67v24h-67z"/><ellipse cx="57" cy="163" fill="#4d616b" rx="171" ry="4"/><path fill="#7091bb" d="M134-7l63 29-67-9z"/><circle r="1" fill="#c8c3b7" transform="rotate(-73.4 40.9 5.8) scale(8.97936 30.49668)"/><path fill="#2b2826" d="M54.8 158l13.7-7.1.1-1.8.6 10.3z"/><path fill="#cfc2ae" d="M50.9 154.7l-19.6 6.1-47.3-.4v-13.5z"/><path fill="#6891b0" d="M271 36h-33l-23-26z"/><ellipse cx="199" cy="134" fill="#33352d" rx="19" ry="8"/><path fill="#717e8c" d="M271 169l-53-40 47 2z"/><path fill="#7e8899" d="M49-16l21 53 87 15z"/><circle r="1" fill="#486280" transform="matrix(-.57692 8.9994 -18.47663 -1.18447 163.5 32.3)"/><path fill="#bab3a6" d="M70 149h49v12H70z"/><circle r="1" fill="#9fa0a3" transform="matrix(-48.84346 -15.49406 5.49713 -17.32914 40.1 28.8)"/><path fill="#a8a6a3" d="M82.3 51l34.6-8.5 24 10.5-9.3 14.6z"/><circle r="1" fill="#d4d0c0" transform="matrix(36.97828 10.90328 -1.08676 3.68572 80 126.8)"/><circle r="1" fill="#eeeae0" transform="rotate(21.7 -148 35.2) scale(33.39223 13.76819)"/><path fill="#81878d" d="M206.2 81.7l-6.8 9.6-20.9-6.3-75.9-52.4z"/><path fill="#8a949d" d="M178 110h76v16h-76z"/><path fill="#092418" d="M241.7 10.1l-34.1-7.5L254.4-16 271 46.9z"/><ellipse cx="205" cy="99" fill="#a4a9ab" rx="49" ry="9"/><path fill="#b7bab7" d="M54 73L23 99l43 22z"/><circle r="1" fill="#6687a1" transform="rotate(22 66 546.3) scale(55.44418 7.08559)"/><path fill="#57626f" d="M202 87l17-16 52 22z"/><path fill="#3e3e35" d="M196.6 126.3l-56.4 34.5-22.4-3.9 24.3-11.8z"/><circle r="1" fill="#aaacab" transform="matrix(-1.40053 9.48438 -61.02903 -9.01198 33 137.7)"/><path fill="#dad5c7" d="M-16 85l84 42-47-4z"/><path fill="#5a728f" d="M145 45h109v25H145z"/><path fill="#9aa1a9" d="M88 119l43 11 20-26z"/><path fill="#cecfca" d="M0 76h44v14H0z"/><ellipse cx="217" cy="168" fill="#2a4552" rx="47" ry="9"/><path fill="#788496" d="M28.6 7.4l116.6 40.3L22.2-16-16 28.8z"/><path fill="#171513" d="M239 157l-5-6-22 8z"/><ellipse cx="160" cy="162" fill="#405565" rx="76" ry="3"/><path fill="#74818e" d="M271 131.8L245.1 162l-24.2-43.1 5.6 12.4z"/><circle r="1" fill="#5b7ca3" transform="matrix(-2.14712 6.64889 -47.37203 -15.29778 203.8 34)"/><path fill="#dad8cd" d="M88 55L33 69l78 3z"/><path fill="#568157" d="M218.3 13.4l22.4 8.5.9-4L189.9-5z"/><ellipse cx="145" cy="156" fill="#232123" rx="14" ry="4"/><path fill="#525e64" d="M53.9 158.6l60.4 26.4H-5.4l74.5-36.6z"/><ellipse cx="196" cy="138" fill="#343a3a" rx="31" ry="8"/><ellipse cx="92" cy="144" fill="#a5a6a4" rx="47" ry="7"/><circle r="1" fill="#8f979c" transform="rotate(-110.8 139.5 -9.9) scale(8.4818 31.01569)"/><path fill="#888e95" d="M58 88l47 2-8-15z"/><path fill="#bfb9ae" d="M32.7 128.9l13.6 33.7 9.6-12.2-71.9 13.1z"/><circle r="1" fill="#627da3" transform="matrix(33.19365 13.82773 -5.43863 13.0555 115.8 4.7)"/><path fill="#bbbbb4" d="M103.8 49.9L127 63.6l79.8 34.5-102-28.6z"/><path fill="#999d9d" d="M187.7 127.9l-18.8 6.7-25.1 8.4 26.1-41.2z"/><path fill="#6b6246" d="M174.2 9.9l1.3-2.8 152.3 71-1.3 2.8z"/><path fill="#a2a5a5" d="M46.8 93.9l12-24.1 6.9 1.2 25.4 5.3z"/><path fill="#dad3c5" d="M0 120h61v6H0z"/><circle r="1" fill="#acacaa" transform="matrix(-45.3952 -11.99393 1.35174 -5.11615 52.7 40.8)"/><path fill="#25282a" d="M219 161.8l18.3-13.5-19-15.1-23 26.4z"/><path fill="#747e8c" d="M135.1 31.1l-6.8.7L146.9 75l30.2-11.5z"/><path fill="#2f2a24" d="M52 156h8v4h-8z"/><path fill="#cdcabf" d="M133.7 71.2l-31.2-9.9-99.4-25L-16 48z"/><path fill="#537296" d="M255.8 50.6l15.2 17-26.4 9.5-52.2-35.2z"/><path fill="#384d58" d="M81 161h40v9H81z"/><path fill="#b0b5b9" d="M56 92h102v20H56z"/><path fill="#798491" d="M264.8 155.8l-52-37.2 31.3 35.6-9.2 8.9z"/><path fill="#3b4041" d="M174 150l28-26-56 23z"/><path fill="#41403d" d="M65.6 160.7l-17.4-.1-8.4 3.2 30.3-13.7z"/><path fill="#6d7d95" d="M73 16.7l27.3 22.9L51.1-16 54 17.3z"/><ellipse cx="38" cy="168" fill="#495963" rx="25" ry="9"/><circle r="1" fill="#5a77a1" transform="matrix(2.16349 -3.51331 23.29318 14.34387 234.1 27.1)"/><circle r="1" fill="#8190a8" transform="matrix(-22.2139 -18.99823 3.6981 -4.32406 72.6 0)"/><path fill="#c4c5bf" d="M37.4 95.4l17.9-25.2-51.2 27L-.3 116z"/><circle r="1" fill="#647488" transform="matrix(-4.42174 8.02626 -27.13353 -14.94813 172 58.1)"/><path fill="#beb9ae" d="M0 140h48v20H0z"/><circle r="1" fill="#8f959f" transform="rotate(66.2 .5 23.1) scale(5.20363 37.61343)"/><path fill="#a3a6a9" d="M80 145.9l-15.9 16.8 4.8-2.2 8.9-36.8z"/><path fill="#aaaaa4" d="M141 124l-25 36-19-11z"/><path fill="#a8abac" d="M185 78L84.2 124.3l125.7-24.6-64.3-27.9z"/><path fill="#7890b1" d="M151.1 3.6l19.7 6.6-12.6 4.8-23.7-1.6z"/><path fill="#838583" d="M333.6 78.1L160 .8l.4-.9L334 77.2z"/><path fill="#565340" d="M145.1 142.8l25.7-8.3-42.5 26-8.9-1.5z"/><circle r="1" fill="#959ea6" transform="rotate(-86.2 167.2 -62.4) scale(4.93946 51.36576)"/><ellipse cx="119" cy="79" fill="#c4c6bf" rx="16" ry="12"/></g></g></svg>