<svg xmlns="http://www.w3.org/2000/svg" viewBox="0 0 1800 1800"><defs/><filter id="a"><feGaussianBlur stdDeviation="12"/></filter><rect width="100%" height="100%" fill="#4b2e35"/><g filter="url(#a)"><g fill-opacity=".5" transform="translate(3.5 3.5) scale(7.03125)"><circle r="1" fill="#b2dadc" transform="matrix(88.59426 -198.49177 220.00785 98.19769 108.3 72.7)"/><circle r="1" fill="#fff" transform="rotate(173.5 65 3.7) scale(136.6302 53.90821)"/><circle r="1" fill="#373338" transform="rotate(116.3 16.5 147.3) scale(155.53685 60.59436)"/><ellipse cx="130" fill="#fff" rx="132" ry="43"/><circle r="1" fill="#3f3233" transform="matrix(15.7297 -25.06936 67.91868 42.61541 181 232.1)"/><path fill="#e0feff" d="M85 0h74v60H85z"/><ellipse cx="72" cy="122" fill="#5c6b73" rx="255" ry="36"/><circle r="1" fill="#c4e0e3" transform="matrix(1.03494 15.05162 -8.05398 .55379 202.1 197.4)"/><path fill="#2e1f25" d="M181.1 43.7l-20.7 4.8-1.3 13.5 13.1 27.1z"/><path fill="#9eb8be" d="M128 133.7L83 182l-19-17.7 45-48.3z"/><ellipse cx="54" cy="106" fill="#dae1e3" rx="29" ry="5"/><path fill="#273747" d="M148 173l16 55-123-35z"/><path fill="#818174" d="M107 271H-16l138-82z"/><circle r="1" fill="#667178" transform="matrix(45.41943 22.43424 -35.63198 72.13904 247.4 104.5)"/><circle r="1" fill="#8f9ca9" transform="rotate(106.4 12.2 51.5) scale(16.75244 85.13929)"/><path fill="#221f24" d="M157 135h31v22h-31z"/><ellipse cx="62" cy="118" fill="#35464c" rx="77" ry="6"/><circle r="1" fill="#f3ffff" transform="rotate(-105.3 107.5 -81.6) scale(27.45468 87.02227)"/><path fill="#19273d" d="M101 229l45 3 1-76z"/><circle r="1" fill="#d3f5ff" transform="matrix(-4.9215 29.40972 -73.96442 -12.3774 58.3 4.6)"/><path fill="#908488" d="M147.6 120.5l28.5 67.2-28 6.7.9 24.1z"/><path fill="#4a2313" d="M211 179h11v41h-11z"/><path fill="#acd4e3" d="M37 157h62v8H37z"/><path fill="#383f3d" d="M224 48h32v15h-32z"/><path fill="#233045" d="M195.7 71.6L172 107.9l6.6 79 10.9-77.6z"/><path fill="#738b9c" d="M183.9 160.5l17.4 28.2L188.7 96l44.6-26.9z"/><path fill="#000007" d="M110 157.6l11 .8-1 16-11-.8z"/><circle cx="167" cy="200" r="10" fill="#a7091f"/><circle r="1" fill="#664e44" transform="matrix(25.69578 35.62808 -9.95237 7.17788 244.6 120.4)"/><ellipse cx="235" cy="185" fill="#7798a5" rx="15" ry="32"/><circle r="1" fill="#899399" transform="matrix(2.09109 6.7137 -63.80149 19.87195 242 27.8)"/><path fill="#817d72" d="M97 183l-113 46 48 42z"/><path fill="#716d62" d="M189 194l41 77 41-40z"/><path fill="#002a6d" d="M119.8 201.2l4.8-24.6 21.6 4.2-4.8 24.6z"/><path fill="#d0d5d6" d="M13 107h47v5H13z"/><path fill="#5c605f" d="M0 85h30v74H0z"/><path fill="#452619" d="M97 169l22-20-24 55z"/><circle r="1" fill="#878077" transform="matrix(7.97609 14.21398 -7.6379 4.28596 110.4 203)"/><path fill="#9caaae" d="M153.9 157.7l6.8-6.4-19.3-9L162 115z"/><path fill="#4a3b41" d="M113 110.8l44.7 67.3-23.6-66-2.6-4.8z"/><path fill="#dfd1bf" d="M0 98h36v3H0z"/><circle r="1" fill="#6f756b" transform="rotate(110.3 1.5 190.4) scale(10.82776 39.26051)"/><path fill="#2f241c" d="M118 234l60-13-53-16z"/><path fill="#7b8e94" d="M98 116l34 21L9 152z"/><circle r="1" fill="#e0eff9" transform="rotate(-102.4 84 -39.4) scale(22.91577 32.17036)"/><ellipse cx="198" cy="76" fill="#503931" rx="12" ry="17"/><path fill="#8d8078" d="M259.2 113.9l-50.1-39.2 19.8-13.8 25.4 2.1z"/><path fill="#857872" d="M69.3 115.3l20.9-34.7L136 57.1l26.8-1.4z"/><path fill="#a7c9d6" d="M210 197.4l-3.9-19.4-13.6 10.1 3.9 12.7z"/><path fill="#bcafa9" d="M157.2 61.2l7 12.1-23.4 13.5-7-12.1z"/><circle r="1" fill="#999ea6" transform="matrix(-2.37822 -15.78712 8.16775 -1.23041 241.2 33.4)"/><path fill="#021b19" d="M221.5 190.2v-1l37 2.6v1z"/><path fill="#1a1e1a" d="M58.1 192.9l-9.8 5.5 35.6-6.1-12.3-5.7z"/><path fill="#445a5e" d="M55.3 169.9l-.3-3 45.7-4.8.3 3z"/><path fill="#cbe1ed" d="M152 162v8l-6 3z"/><ellipse cx="234" cy="178" fill="#243a42" rx="39" ry="2"/><path fill="#898f8d" d="M145 128.9l-13.2-4.8 11.3-31 13.1 4.8z"/><circle r="1" fill="#8e9599" transform="matrix(47.15777 15.77877 -4.2782 12.7862 63 61.6)"/><path fill="#8a6459" d="M152 209l-12 24 5-30z"/><circle r="1" fill="#607f95" transform="matrix(12.51969 2.04702 -2.83938 17.3658 219.8 161.4)"/><path fill="#4b3840" d="M154.1 145.2l-1.8 29.2 27.6-1.7-50-11.8z"/><path fill="#8a918e" d="M217.3 252.6l-4.1-10.3 57.8-53.4v25z"/><path fill="#514b42" d="M77.9 210.7l17.5 4.2 44.4-21.6-22.7 37.1z"/><path fill="#00000d" d="M101 196l1.7 8.9-15.7 3-1.7-8.8z"/><path fill="#8b8175" d="M178 190l9 28-9 13z"/><circle r="1" fill="#324651" transform="rotate(176.4 32 60.1) scale(106.81768 1.94332)"/><path fill="#423e36" d="M70 266l24 2-49-29z"/><path fill="#533125" d="M193 235l-17-58 21 27z"/><path fill="#595e64" d="M184 41v14l26-20z"/><path fill="#2d484a" d="M234.3 202.4l6.9-3.7 17.7 3.3 4.9 1.3z"/><path fill="#2a191b" d="M194 232.5l-6.7-6.1 2.6-24.7-12.4 48.8z"/><path fill="#606374" d="M140.7 79.5L180 76l4.2-13.4-.9 83.3z"/><path fill="#4a5d69" d="M-16 52l33 13 4-17z"/><path fill="#8b8e8d" d="M118.2 195.6l3.7 2.3-14.1 13.6-44.8 10z"/><path fill="#294f65" d="M194 174l17 6-10-52z"/><circle r="1" fill="#788993" transform="matrix(14.54802 136.12923 -.99434 .10626 55.8 15.1)"/><path fill="#909fb5" d="M142.4 168.1l16.3 5.6-32.3-4.3 1.3-2.9z"/><path fill="#a4cbdd" d="M224 193h32v5h-32z"/><path fill="#d8edf7" d="M79 25h107v21H79z"/><path fill="#534c4b" d="M34.6 65.1L7.6 99-16 126.9l28.6-20.2z"/><circle r="1" fill="#072335" transform="matrix(-2.79053 -.77913 6.72772 -24.09597 182.8 154.6)"/><ellipse cx="101" cy="107" fill="#a5aeb0" rx="51" ry="2"/><ellipse cx="162" cy="186" fill="#938da0" rx="11" ry="7"/><ellipse cx="29" cy="83" fill="#917971" rx="129" ry="6"/><path fill="#4d5b5c" d="M96.8 173.7L81.3 170l-31 10.7 7.5-7.5z"/><circle r="1" fill="#e6f4fa" transform="matrix(.09063 -.99588 13.95319 1.26984 239 174.6)"/><path fill="#b5d4e4" d="M225 180h9v10h-9z"/><path fill="#c1d7e2" d="M233 166h23v3h-23z"/><path fill="#685047" d="M126.6 129.5L112 150.8l37.5-16.5 2.8-13.7z"/><path fill="#9fafc2" d="M131 61l-51 4-20-30z"/><path fill="#aabec6" d="M89.3 181.4l29.4-42.5-42.5 14.3 24.1-2.3z"/><circle r="1" fill="#454448" transform="matrix(-7.69945 9.2465 -8.48928 -7.06892 169.6 57)"/><path fill="#503029" d="M209 191l12 14-14 30z"/><path fill="#c0c6ca" d="M11 108h31v4H11z"/><path fill="#aaa5a2" d="M211.8 52.1l-14.2 6.3-19.8-.5 74.6-33.1z"/><circle r="1" fill="#c4b6b4" transform="matrix(2.22457 -1.45137 2.86694 4.39426 181.5 70.6)"/><path fill="#3d4850" d="M88 99h37v6H88z"/><path fill="#907674" d="M152 149h22v18h-22z"/><path fill="#58676c" d="M82.4 147L69 144.6l52.9-6.4-108.1 2.7z"/><path fill="#3f4d57" d="M242 16l-7 9 8-1z"/></g></g></svg>