<svg xmlns="http://www.w3.org/2000/svg" viewBox="0 0 1800 1012"><defs/><filter id="a"><feGaussianBlur stdDeviation="12"/></filter><rect width="100%" height="100%" fill="#364257"/><g filter="url(#a)"><g fill-opacity=".5" transform="translate(3.5 3.5) scale(7.03125)"><circle r="1" fill="#ece6d5" transform="matrix(-39.17114 199.25075 -114.4981 -22.50943 70.8 56.9)"/><ellipse cx="102" cy="17" rx="33" ry="27"/><circle r="1" fill="#fff" transform="matrix(-18.23518 8.85453 -51.2238 -105.49127 241.2 10.5)"/><circle r="1" fill="#fff" transform="matrix(-39.71886 32.16141 -7.6036 -9.39034 171.5 12.4)"/><ellipse cx="30" cy="13" fill="#f3f4f4" rx="43" ry="28"/><circle cx="200" cy="41" r="33" fill="#30231d"/><circle r="1" fill="#fffffd" transform="rotate(176.3 103.6 3.3) scale(75.78536 7.99069)"/><circle r="1" fill="#8c7b8e" transform="matrix(12.56583 7.852 -39.5008 63.21448 183.8 123.5)"/><ellipse cx="24" cy="97" fill="#eddec1" rx="14" ry="31"/><path fill="#4d4b40" d="M18 28h28v32H18z"/><ellipse cx="239" cy="4" fill="#fffffe" rx="11" ry="32"/><path fill="#f4f8fd" d="M79 45l-22 9-22-70z"/><path fill="#4e413a" d="M3 91.9l32 60-38 20.2-32-60z"/><path fill="#f3f5f3" d="M47 43h117v8H47z"/><path fill="#0e1931" d="M131.5-9.5l9.8 36.7-60.8 16.3-9.8-36.7z"/><path fill="#dfcab7" d="M152 111l-99 40 120 7z"/><ellipse cx="204" cy="28" fill="#1b232c" rx="28" ry="22"/><path fill="#2f455d" d="M97 99l-33 23 70-10z"/><path fill="#f3f3ee" d="M226-4l-72 26-24-23z"/><path fill="#a88374" d="M180.1 36.6l26 10.4-8.2 20.4-26-10.4z"/><path fill="#dcf0ba" d="M78.6 76l-16.7 39.3-14.8-20.5 24-27z"/><path fill="#989eb3" d="M212.6 59.2l7.7 2.5-31 95-7.6-2.4z"/><path fill="#48514f" d="M22.6 18.5l16.1 13-8.5-15L5.5-14.6z"/><circle r="1" fill="#966749" transform="matrix(-38.5202 -4.69414 1.65666 -13.59455 47.4 141.2)"/><path fill="#252e40" d="M101.7 22.7l21.7-7.8 8.9 24.4-21.7 7.8z"/><path fill="#a9b1ba" d="M176 106l17-26-92 9z"/><path fill="#341e3d" d="M162 118h12v20h-12z"/><path fill="#332418" d="M172 68l28 16 13-32z"/><path fill="#e8eaee" d="M-5-16l-11 76 44-38z"/><circle r="1" fill="#787569" transform="rotate(-157.3 128.5 -2.6) scale(8.98897 36.44091)"/><path fill="#edebe7" d="M122.7 50.3l24.9-18.9 21.5 9.9-1.1 8.2z"/><circle r="1" fill="#dfdfd3" transform="matrix(-4.79347 -2.3213 11.19325 -23.1139 242.9 24.3)"/><ellipse cx="192" cy="34" fill="#131c28" rx="35" ry="6"/><ellipse cx="235" cy="103" fill="#4f3a3f" rx="22" ry="46"/><path fill="#6583aa" d="M55 51h104v17H55z"/><path fill="#635c3a" d="M47 95l-7 23-5-49z"/><path fill="#7b8e9d" d="M231 114l11-29 5 33z"/><path fill="#514a3a" d="M232-1.4l2.8-8.6L270 1.4l-2.8 8.6z"/><path fill="#c4bfb1" d="M17.4 64.2l25.4-6.3-38.5 42.6 10.9-87.9z"/><path fill="#313744" d="M143.4 24.4L98.2 48l5.5-49.5 42.7 15.4z"/><path fill="#e1e2e0" d="M102-16l71 41 23-24z"/><path fill="#272e3c" d="M66-15.4L145.1 19 74 44.3l-1.2-25.2z"/><path fill="#333e3d" d="M94.2 116.2l-.4-1 84-37.4.4 1z"/><path fill="#dee1e3" d="M71 48L69-3 3-16z"/><path fill="#e6e7e0" d="M145 7L250.2-5.4l-7.9 28.9-29.4-17.8z"/><path fill="#b2b7ab" d="M37 35l50 46-1 40z"/><path fill="#311821" d="M197 126.8l10.2-21.7 21.7 10.1-10.1 21.7z"/><path fill="#9e9a93" d="M14.7 47.2L11 30.5l36.2-7.7L51 39.5z"/><path fill="#4f4558" d="M197.7 117l-32.5 37.1.2-35.9 36.7-32z"/><path fill="#160f16" d="M240 153.7l31-92.1-28.3 62.4-22 34z"/><path fill="#090805" d="M89 105h9v11h-9z"/><path fill="#282825" d="M27 49h14v10H27z"/><path fill="#787e96" d="M243.8 137l27.2-31.6-24.6 52.6 24.6-2.4z"/><circle cx="21" cy="81" r="3" fill="#13171d"/><path fill="#f1e5ce" d="M40 121l-6-31-14 25z"/><path fill="#685d6c" d="M192 132h37v11h-37z"/><path fill="#485f78" d="M15 141l-31-68 8-75z"/><path fill="#2b1924" d="M219 71h19v19h-19z"/><path fill="#00070c" d="M0 129h15v4H0z"/><path fill="#cac3af" d="M125 115h36v14h-36z"/><path fill="#141818" d="M212 45h26v14h-26z"/><path fill="#868c98" d="M208 65l31-1-18-7z"/><path fill="#a6b1aa" d="M271 69.1l-32.3-19.8-1.6 4.5 3.4 7z"/><path fill="#d3d6d9" d="M60.9-16l-30 17.3 24.8 43.4 18.2-22.4z"/><path fill="#7e90a9" d="M106.8 122.7L74.4 70.6l30.4-20.5 17.3 12.4z"/><path fill="#92a3b4" d="M201 87h15v16h-15z"/><path fill="#9fa2a7" d="M171.7 69.9l18.5 5.4 2.3 14.8-68.1-30.9z"/><path fill="#ceccbd" d="M8 61h32v9H8z"/><path fill="#dcdfd7" d="M95.2 123.3l-74.3 10.4-.1-1 74.3-10.4z"/><path fill="#d9dbd8" d="M181.4 7.5l-46.8 39.7-7.2-22L149 48.3z"/><path fill="#3e4756" d="M198 5.1l-11.8 9.8-29.3 21.6 58.3-26.7z"/><path fill="#3e3e33" d="M7 103h9v6H7z"/><path fill="#cfc6b1" d="M25.7 26.5l9.6 18.6-1 4.1-3.3 2.5z"/><path fill="#718393" d="M41 77l7-44 10 34z"/><path fill="#a7b0c4" d="M182 158l-11-6 26-34z"/><path fill="#588260" d="M51.6 120.5l-5.8-34.2 7.3 21L32 134.7z"/><path fill="#8b6f68" d="M171 38h18v29h-18z"/><path fill="#aaba8a" d="M60 101L39 77l31-5z"/><path fill="#323947" d="M131.8 40.5L111.6 46 100.2 3.5 120.4-2z"/><path fill="#344d68" d="M69.8 120.7l17.3-1 3.1-3.5-28.6-.1z"/><path fill="#faf6e7" d="M90 102.2l-.8.6-49.2-73 .8-.6z"/><path fill="#2e2531" d="M194.7 117.4l-4-.9 10.6-49.9 4 .9z"/><path fill="#c2c3c7" d="M154 90h29v11h-29z"/><path fill="#e2e3e0" d="M138.7 8l21.8-17.6L181.3 16l-21.8 17.6z"/><path fill="#7d7d7c" d="M32.5 35.1l11.7-13.6 5.6 31.7L9.9-16z"/><path fill="#a8b1be" d="M124.9 84.4l11.9 9.7-18.2 8.8L95.7 96z"/><path fill="#404445" d="M25.3 39.6l-1.6 23.2-4.8-9.6 10.7-27z"/><path fill="#d9dcde" d="M-7 31l-1-47 40 45z"/><path fill="#ceb9af" d="M85 129h36v8H85z"/><path fill="#8e918f" d="M5.2 112.3l3.8 2-25-31.1 14.9 67.9z"/><path fill="#323534" d="M46 52l-10 4-1-19z"/><circle r="1" fill="#667d9c" transform="matrix(-18.63842 -9.62 4.1509 -8.0422 80 62.6)"/><path fill="#83829b" d="M187 98l10 19 9-3z"/><path fill="#625b6f" d="M219.6 110.1l-6.8 13.5 20.5-31.8-25.8.9z"/><path fill="#6a7d91" d="M153.9 105.8l-44.6 18.1-9.1-29.8 52.3 22.6z"/><path fill="#393f44" d="M220.5 12.8l12.3 10.8-27.5-.8 28.3-25.3z"/><path fill="#e9dcc7" d="M8 71h3v31H8z"/><path fill="#c9c3b5" d="M32 64.3l-19.3 61.1 11.1 2.6 13.1-38.9z"/><path fill="#4c4039" d="M189.6 73.7L170.3 60l26 28.2 2.8-43.7z"/><path fill="#c7dec5" d="M61.8 116.7l12.3-45.5-15.2 49.1-12.3-37z"/></g></g></svg>