<svg xmlns="http://www.w3.org/2000/svg" viewBox="0 0 3939 2216"><defs/><filter id="a"><feGaussianBlur stdDeviation="12"/></filter><rect width="100%" height="100%" fill="#525530"/><g filter="url(#a)"><g fill-opacity=".5" transform="translate(7.7 7.7) scale(15.38672)"><circle r="1" fill="#e9d9da" transform="matrix(-185.60904 174.85504 -88.13853 -93.55926 136 113.7)"/><circle r="1" fill="#fff" transform="matrix(-3.8632 25.24615 -183.03845 -28.00882 182.2 13)"/><circle r="1" fill="#021009" transform="matrix(-1.10143 12.04325 -123.10517 -11.25872 67.4 36)"/><ellipse cx="227" cy="16" fill="#fff" rx="67" ry="28"/><path fill="#b0cfff" d="M31.8-10.3l4.8 22.5-28.4 6L3.4-4.1z"/><circle r="1" fill="#d6ddd9" transform="matrix(54.1636 12.9036 -4.81266 20.20143 252.8 76)"/><circle r="1" fill="#8e7b5d" transform="rotate(-86.5 82.4 30.1) scale(64.6665 177.76455)"/><circle r="1" fill="#202c1f" transform="rotate(45.6 -4.4 78) scale(28.12362 15.65898)"/><circle r="1" fill="#acc4d7" transform="matrix(5.28934 -27.01466 50.5666 9.9007 107.1 4.3)"/><ellipse cx="62" cy="35" fill="#313620" rx="32" ry="16"/><path fill="#333e46" d="M182.8 43.1l49 1.4 28.3 4.8-71.9.7z"/><path fill="#a29883" d="M115 49h93v48h-93z"/><ellipse cy="63" fill="#938b7a" rx="130" ry="20"/><circle r="1" fill="#c9d0d1" transform="matrix(.68434 9.1014 -26.54168 1.99568 115.3 23.5)"/><ellipse cx="97" cy="42" fill="#2e3426" rx="48" ry="10"/><path fill="#93a3b5" d="M51.4-11.4l36-8.4 7.2 31.2-36 8.4z"/><circle r="1" fill="#ffffed" transform="rotate(83.6 119.5 149.7) scale(31.4274 49.79074)"/><path fill="#44473b" d="M14 15h27v36H14z"/><ellipse cx="4" cy="2" fill="#8597b3" rx="36" ry="14"/><circle r="1" fill="#8c7e64" transform="matrix(-91.28525 -23.81311 9.12875 -34.9942 45.2 123)"/><circle r="1" fill="#d7d8cd" transform="matrix(5.4792 -19.60137 16.97501 4.74505 255 70.1)"/><circle r="1" fill="#dae1de" transform="matrix(-51.72388 -4.18874 2.34342 -28.93724 186.9 11.7)"/><path fill="#a1abab" d="M158 47.1l18.9 3.8 56.6-1.8-17.3 35.3z"/><path fill="#988d77" d="M0 51h178v21H0z"/><circle r="1" fill="#a79577" transform="matrix(36.97575 63.50337 -22.25797 12.96002 247.5 143)"/><path fill="#8b8d86" d="M21 46h68v3H21z"/><path fill="#837e71" d="M98 49h75v10H98z"/><path fill="#22231d" d="M61 50L46 37l28-6z"/><circle r="1" fill="#b6c3cc" transform="matrix(4.38202 9.14599 -62.08078 29.74413 152.3 0)"/><path fill="#475138" d="M31.9 32L12.7 12.4l76.8 12-18 9.4z"/><path fill="#2b312f" d="M56 9L41 23 34 3z"/><path fill="#565a57" d="M161 43h59v6h-59z"/><path fill="#374143" d="M11 9l-21 3-6-22z"/><path fill="#343625" d="M70 17L5 41l73 5z"/><path fill="#787059" d="M184 141h72v3h-72z"/><path fill="#b4bcc3" d="M62.4 19L41.2-13.5l8.4-5.5 21.2 32.7z"/><path fill="#98a8b9" d="M28.9 8.9l74.4-21.2L4.9-16 23 19.8z"/><circle r="1" fill="#777261" transform="matrix(-7.59948 -1.65426 7.00937 -32.20031 18.4 127.4)"/><path fill="#fffff5" d="M271-11.7v49.5l-38-20.4-42.4 3.6z"/><ellipse cx="11" cy="61" fill="#9f937e" rx="89" ry="11"/><path fill="#282d21" d="M113.1 42.3l-24.6 5.3L10 40.2l74.5-6.5z"/><circle r="1" fill="#8e9fad" transform="rotate(-121 41 -20.4) scale(5.42349 30.08283)"/><circle r="1" fill="#c7d0d4" transform="matrix(40.2535 -29.7183 7.1612 9.69986 166.6 0)"/><circle cx="178" cy="128" r="4" fill="#504d42"/><ellipse cx="17" cy="27" fill="#40472d" rx="64" ry="10"/><path fill="#99adc7" d="M2 3L17-9l9 21z"/><path fill="#575e5d" d="M154 36l10 12 37-5z"/><path fill="#c9c6bb" d="M226 22h19v6h-19z"/><path fill="#161a19" d="M166 112.6l8.7 1.9-.6 2.9-8.8-1.9z"/><circle r="1" fill="#555142" transform="rotate(23.6 -205.4 556.4) scale(4.82724 2.70408)"/><path fill="#c4beaf" d="M185.5 57.5l-9 5.1L225 85.1 175.4 53z"/><ellipse cx="196" cy="51" fill="#81929d" rx="52" ry="2"/><path fill="#515857" d="M134.7 38.6l30.1 9.7 6.6-3.1-16.9-12.7z"/><circle r="1" fill="#9b8a6f" transform="matrix(-10.56552 44.45176 -32.1428 -7.63986 113.5 100.7)"/><circle cx="191" cy="21" r="21" fill="#e4e7de"/><circle r="1" fill="#bac4c6" transform="matrix(16.1984 5.99197 -2.70826 7.32139 101 23.6)"/><circle cx="154" cy="98" r="2" fill="#0c1313"/><path fill="#353d32" d="M48.8 4l.8-.7 21.6 28.8-.8.6z"/><ellipse cx="65" cy="50" fill="#3e382a" rx="31" ry="1"/><path fill="#212424" d="M202.3 147.4l-15-8 .4-.8 15 8z"/><path fill="#000200" d="M16.5 16l-.7-.7 3.7-3.3.7.7z"/><path fill="#a8997e" d="M155 50l56 67 60-6z"/><path fill="#363d33" d="M117 45l48 3-46-18z"/><path fill="#9fb4c6" d="M17 0l-4 17-6-1z"/><path fill="#070d0b" d="M204.1 117.7l-.5-.8 4.3-2.6.5.8z"/><path fill="#b0bbc4" d="M72 8h24v14H72z"/><ellipse cx="23" cy="49" fill="#35362e" rx="24" ry="1"/><path fill="#a19479" d="M184 133l48 26-65-68z"/><circle r="1" fill="#3c3d38" transform="matrix(4.65492 2.94207 -.53427 .84532 232.2 143)"/><path fill="#333930" d="M35 6h17v15H35z"/><path fill="#554e3d" d="M194 104l6 3-11 1z"/><path fill="#333c21" d="M99.7 29.7l2.5 17.8-6 .8-2.4-17.8z"/><path fill="#d6d7cf" d="M123.3-16l-6 8.9-13.2 24-16-8.1z"/><path fill="#748290" d="M35.4 17.4l-3.7 1.3-5.1-14 3.7-1.4z"/><path fill="#fffce7" d="M270.7 15.1l-45.8 17 9.1 12.4 24.6 2.4z"/><circle cx="15" cy="118" r="4" fill="#474a4c"/><path fill="#9a8c71" d="M261 147l-61-54 13 42z"/><ellipse cx="251" cy="87" fill="#dcd4c2" rx="6" ry="12"/><path fill="#b9bbb3" d="M241 93l7-39-56-2z"/><path fill="#cdd3d4" d="M174.1 2.1L167.4 24l-42.8 9 4.5-18.6z"/><ellipse cx="232" cy="47" fill="#52544d" rx="72" ry="1"/><path fill="#727f73" d="M15 18h7v3h-7z"/><path fill="#414a39" d="M58.8 25.6L66 16l11.2 8.4L70 34z"/><path fill="#928f86" d="M219.2 75.2l-29.1-10.6.7-1.8 29.1 10.6z"/><circle r="1" fill="#f1efdf" transform="matrix(-4.61466 10.3647 -22.2415 -9.90255 209.6 29.5)"/><path fill="#a1a292" d="M35 46h23v3H35z"/><circle r="1" fill="#af9b77" transform="rotate(-23.3 376.5 -70.4) scale(2.99142 17.69082)"/><path fill="#292c24" d="M64 50L45 39l20-7z"/><path fill="#0b0b08" d="M215 143h7v1h-7z"/><path fill="#a19378" d="M175.5 113.4l-26.1-58.3L182.7 159l-39.9-41.9z"/><path fill="#8b816f" d="M112 49h39v21h-39z"/><path fill="#c6d0da" d="M139-16l66 15-23 9z"/><path fill="#c3c7ca" d="M15.1-16L55.5 6.2 65 4.4 54-4.4z"/><path fill="#acbbc8" d="M111 3.5l47.7-18.2L163-3.5l-47.7 18.2z"/><path fill="#c1c9c9" d="M91 23h30v8H91z"/><path fill="#3c4642" d="M9.8 5.7l.3 3-13.9 1.6-.3-3z"/><path fill="#b7c2c6" d="M88 17h27v12H88z"/><ellipse cx="191" cy="46" fill="#5b615f" rx="21" ry="5"/><path fill="#424a2e" d="M6.6 22.8l47.9 13.5L26.7 6.4l15.6 10.7z"/><path fill="#393530" d="M-8 24l56 20-45-2z"/></g></g></svg>