<svg xmlns="http://www.w3.org/2000/svg" viewBox="0 0 1800 1013"><defs/><filter id="a"><feGaussianBlur stdDeviation="12"/></filter><rect width="100%" height="100%" fill="#56332d"/><g filter="url(#a)"><g fill-opacity=".5" transform="translate(3.5 3.5) scale(7.03125)"><ellipse cx="164" cy="15" fill="#dfa364" rx="126" ry="84"/><ellipse cx="101" cy="123" fill="#003541" rx="255" ry="26"/><circle r="1" fill="#df9d5f" transform="matrix(-87.308 .21553 -.06807 -27.57308 178.5 13.3)"/><circle r="1" fill="#6d5745" transform="matrix(-12.8421 36.26497 -130.52615 -46.22174 31.3 41.5)"/><path fill="#fff" d="M177 85l12 13-24-3z"/><ellipse cx="226" cy="73" fill="#744d39" rx="64" ry="25"/><ellipse cx="42" fill="#a4805b" rx="92" ry="17"/><path fill="#654d3f" d="M-16 27v68l196-33z"/><path fill="#fff" d="M170 91h14v7h-14z"/><circle r="1" fill="#b37249" transform="matrix(44.65477 12.80455 -3.9693 13.8426 104.7 30.2)"/><ellipse cx="166" cy="85" fill="#604739" rx="150" ry="5"/><circle r="1" fill="#ba6c3f" transform="matrix(-57.35772 2.98539 -.22734 -4.3679 155.9 72.7)"/><ellipse cx="241" cy="105" fill="#112428" rx="62" ry="8"/><circle r="1" fill="#cf975f" transform="matrix(-2.75888 -20.95578 37.27277 -4.90705 175.8 6.8)"/><ellipse cx="133" cy="93" fill="#553f36" rx="33" ry="6"/><path fill="#694f40" d="M32 5l4 93 101-2z"/><ellipse cx="17" cy="105" fill="#192527" rx="174" ry="8"/><path fill="#b16f44" d="M212 57l59-35-151 17z"/><path fill="#625144" d="M189 96l81 1 1-36z"/><circle r="1" fill="#564238" transform="matrix(79.4716 3.99434 -.25268 5.02727 90.5 61.5)"/><path fill="#524d43" d="M-13.6 8.4l87.7 14-8.6 2.1L5.3 35.8z"/><path fill="#fff" d="M182.6 89.2L184 95l-16.6 3.8L166 93z"/><circle r="1" fill="#404740" transform="matrix(68.63837 4.16654 -.41184 6.7846 5 90.6)"/><path fill="#855e46" d="M0 33h81v12H0z"/><path fill="#8d573e" d="M66 68h60v14H66z"/><ellipse cx="102" cy="143" fill="#2c3c40" rx="246" ry="26"/><circle r="1" fill="#b57f52" transform="rotate(-127.9 53.5 -21.9) scale(17.98062 32.45259)"/><path fill="#674939" d="M254 77l-82 3 20 17z"/><circle r="1" fill="#945c3e" transform="matrix(1.1181 -7.13045 150.37114 23.57933 209.4 62.8)"/><path fill="#f9f3d4" d="M176.8 89.2l2.1 8.6-16.5 1.3 8.8-8.3z"/><path fill="#987150" d="M-16-9.8l49.9 21.2 31.9 8.3 45.8-10.3z"/><path fill="#a46640" d="M208 66L97 70l51 15z"/><path fill="#513a2f" d="M160.1 93l-13.5 7.2 52.3-2.2-26.1 9.1z"/><circle r="1" fill="#ab7c53" transform="rotate(124.8 123.7 73.9) scale(24.74321 15.20843)"/><ellipse cx="202" cy="107" fill="#252d31" rx="33" ry="10"/><path fill="#87583c" d="M271 78.9L97 76.2l112.9 19.1L171.8 83z"/><ellipse cx="8" cy="61" fill="#644f41" rx="53" ry="22"/><path fill="#9e6644" d="M58.7 25.1l30.4 3.8 107.4 30.4L50.4 34z"/><circle r="1" fill="#79513a" transform="rotate(-78.4 114.5 -64.7) scale(5.09128 29.90429)"/><path fill="#fdfff1" d="M186 97l-18-6h17z"/><ellipse cx="78" cy="113" fill="#233236" rx="89" ry="7"/><path fill="#132428" d="M193 99h63v4h-63z"/><path fill="#c48551" d="M220.3 43.7L133.6 27 66 26.8l65.4-17.7z"/><path fill="#955f41" d="M210 77l61-39-66 10z"/><path fill="#4c433d" d="M-16 51.8l5.4 17.6 50.9-9.9-24.5-2.2z"/><ellipse cx="12" cy="101" fill="#192324" rx="164" ry="3"/><path fill="#7d664d" d="M0-9l-15 26h75z"/><circle r="1" fill="#72503f" transform="matrix(36.20197 9.1367 -1.78385 7.06807 68 75.2)"/><ellipse cx="175" cy="18" fill="#cf9159" rx="41" ry="6"/><path fill="#daa66a" d="M167 98h20v1h-20z"/><path fill="#79503b" d="M116 82h51v10h-51z"/><path fill="#4e453e" d="M0 19h47v12H0z"/><path fill="#4e4139" d="M232.4 83.3l.1 2-48.9 3.4-.1-2z"/><path fill="#b07146" d="M214 40l-54 12-38-19z"/><path fill="#202c30" d="M170.1 149.3l-19.7 7-37.2-27.7-22.9 9z"/><circle r="1" fill="#6e513f" transform="matrix(.10956 -3.9057 24.33734 .68267 208.7 92.7)"/><path fill="#b57245" d="M214 71.3l-96-1.6v-1l96 1.6z"/><path fill="#54453c" d="M79 90l43.7 8.9-68.8-.2L1.3 77.3z"/><path fill="#664839" d="M102 63h63v6h-63z"/><path fill="#324044" d="M271 153v-25l-79 11z"/><path fill="#354345" d="M56.3 143.7l-15.6 15.6-17-17 15.6-15.6z"/><circle r="1" fill="#b9885b" transform="matrix(-1.21856 -12.891 30.60484 -2.893 225.2 3.1)"/><circle r="1" fill="#815942" transform="matrix(15.8117 -14.39654 10.65774 11.70538 253.6 62.9)"/><path fill="#384447" d="M155 118.3l4.6 10 49.8-1.5-63.7-2.7z"/><ellipse cx="134" cy="3" fill="#b98859" rx="23" ry="11"/><path fill="#232525" d="M134 98h30v2h-30z"/><path fill="#54382f" d="M161 99h30v3h-30z"/><circle r="1" fill="#9a623f" transform="rotate(-6.6 735.4 -1670.9) scale(46.10684 3.2372)"/><path fill="#2f3e40" d="M10 109h15v24H10z"/><circle r="1" fill="#8e7355" transform="matrix(-29.88164 -2.66687 .5657 -6.33855 15.6 -.1)"/><path fill="#202b2f" d="M223 122l10 21-17-7z"/><ellipse cx="49" cy="46" fill="#725442" rx="39" ry="6"/><path fill="#212d30" d="M143.6 135.6l-4-13.8 23.3 22.8 9.4-16.5z"/><path fill="#1a2429" d="M182 129h15v5h-15z"/><path fill="#49443d" d="M-3 75l-6 23 49-3z"/><path fill="#f7fcff" d="M177 89l2 8-10-5z"/><path fill="#313334" d="M207.6 104l-49.8-3.1 11.5-3.4-9.4 16z"/><path fill="#b47a4d" d="M230.8 41.3L271 8.7l-16.3 6.7-90.2 28.8z"/><path fill="#384547" d="M184.5 148.1L167.1 118l15.8 15.5-35.6 25.5z"/><path fill="#182428" d="M23 124h15v4H23z"/><path fill="#384649" d="M224 126h32v4h-32z"/><ellipse cx="181" cy="30" fill="#c2834f" rx="35" ry="8"/><ellipse cx="243" cy="90" fill="#72523f" rx="62" ry="3"/><path fill="#aa7b53" d="M33-16h81L98 24z"/><path fill="#253438" d="M190 108l66 2-4 20z"/><circle r="1" fill="#8a5a41" transform="matrix(-24.40677 -3.69118 .89845 -5.9407 107.6 74.3)"/><circle r="1" fill="#f8efc7" transform="matrix(-1.089 -1.0627 2.49584 -2.55758 167.9 94.1)"/><path fill="#5d483c" d="M69.9 65.6l68.3-.8-46.9-11.7-31.2 5.1z"/><ellipse cx="155" cy="65" fill="#694b39" rx="30" ry="3"/><path fill="#1d282c" d="M124 116.7l-53.2-7.1 48.6 1.1 13.9 6.6z"/><path fill="#f8f7ea" d="M166 93h13v5h-13z"/><path fill="#3c494a" d="M50 142h39v2H50z"/><ellipse cx="185" cy="49" fill="#a26742" rx="58" ry="4"/><circle r="1" fill="#aa714a" transform="rotate(-83.2 73.3 -45.7) scale(4.67739 22.59028)"/><circle cx="16" cy="143" r="4" fill="#131f20"/><path fill="#ae6e43" d="M149.7 70.2l58.3-5-26.8 8.7-50.6-.9z"/><path fill="#805842" d="M36 25h21v2H36z"/><ellipse cx="4" cy="131" fill="#374848" rx="27" ry="2"/><path fill="#0a1317" d="M79.2 141.3l-.2-1 7.8-1.6.2 1z"/><path fill="#916043" d="M140 52L72 29l33 25z"/></g></g></svg>