<svg xmlns="http://www.w3.org/2000/svg" viewBox="0 0 1800 1200"><defs/><filter id="a"><feGaussianBlur stdDeviation="12"/></filter><rect width="100%" height="100%" fill="#563937"/><g filter="url(#a)"><g fill-opacity=".5" transform="translate(3.5 3.5) scale(7.03125)"><circle r="1" fill="#bce1e5" transform="rotate(71 14.9 91) scale(82.91276 255)"/><ellipse cx="131" cy="137" fill="#5c7064" rx="255" ry="61"/><ellipse cx="208" cy="33" fill="#a5b1c0" rx="252" ry="45"/><circle r="1" fill="#48372a" transform="rotate(-91.4 82.3 12.7) scale(15.73178 113.16322)"/><ellipse cx="79" cy="121" fill="#ffddb2" rx="58" ry="7"/><circle r="1" fill="#71848a" transform="matrix(.74136 23.4598 -186.68865 5.89961 159.7 162.9)"/><path fill="#031512" d="M136 122h69v25h-69z"/><circle r="1" fill="#8a979c" transform="matrix(-34.60665 -7.79895 3.91813 -17.38612 242.8 137)"/><ellipse cx="217" cy="68" fill="#c19a68" rx="172" ry="12"/><path fill="#ffc84a" d="M136 102l-47 11 47 2z"/><path fill="#2e211e" d="M210.5 73l6.5 10.1-33.5 21.8-6.5-10z"/><path fill="#0070b7" d="M172 121l-38-1 43-12z"/><path fill="#945400" d="M32 112h57v6H32z"/><path fill="#faf5ff" d="M110.7 121.3l24.7-8.9.2 5.8.9 10z"/><circle r="1" fill="#0e422a" transform="rotate(177.5 55.2 67.9) scale(36.77839 6.82779)"/><ellipse cx="86" cy="13" fill="#869eba" rx="213" ry="41"/><path fill="#f0ecdc" d="M234 44h10v32h-10z"/><ellipse cx="58" cy="125" fill="#eeeaf0" rx="23" ry="4"/><path fill="#9f927c" d="M90 141h44v21H90z"/><path fill="#cfc9bf" d="M154 82l33-46-15 48z"/><path fill="#dbc8b2" d="M45 62h21v19H45z"/><path fill="#503d36" d="M124 71h28v28h-28z"/><path fill="#b6a898" d="M113 90l24-15-37-22z"/><ellipse cx="84" cy="96" fill="#554938" rx="8" ry="30"/><ellipse cx="51" cy="133" fill="#575639" rx="40" ry="5"/><path fill="#5b6c7f" d="M37 75l-53 49 31 50z"/><path fill="#3d3d36" d="M236 87l-15-26-1 59z"/><path fill="#d8d7e7" d="M62.5 123.6l74-17.1 1 3.9-74 17.1z"/><path fill="#fffae3" d="M177 50l-28 11 7-9z"/><path fill="#d28800" d="M27 116h37v4H27z"/><path fill="#536064" d="M136 140h73v30h-73z"/><ellipse cx="182" cy="64" fill="#7e6d57" rx="69" ry="2"/><path fill="#c8b18d" d="M231 44l29 42-59-31z"/><path fill="#fffbf1" d="M189 78l-8 11-3-5z"/><path fill="#105481" d="M174.9 103.6l-6.2 23.9 50.5-27.8-30.5 26.2z"/><path fill="#312b28" d="M198 74l-23 25 2 34z"/><path fill="#d3b9a7" d="M168 110l8-11-38 10z"/><path fill="#e7c7a1" d="M230 107h17l-13-6z"/><circle r="1" fill="#8192a9" transform="matrix(-9.86935 -42.4299 35.81749 -8.33128 20.2 40.1)"/><path fill="#4f4a4c" d="M80.8 111l-47.1 5.3 81.2-39.6-14.1-13.5z"/><path fill="#eae4d8" d="M109.1 77.9L117 68l-25.5-6.7 26-3z"/><path fill="#364d4d" d="M33 104l46-18-78-7z"/><path fill="#2f6155" d="M120 122l-17 6 41 13z"/><path fill="#1a1d16" d="M135 120h34v18h-34z"/><path fill="#9b8a77" d="M37 137h43v9H37z"/><path fill="#b27d01" d="M145.5 103.7L92 109.8l-4.1 19.8-2.2-11.7z"/><path fill="#45b192" d="M121 128h13v8h-13z"/><ellipse cx="7" cy="110" fill="#77818f" rx="37" ry="9"/><path fill="#151d20" d="M114 92h31v7h-31z"/><path fill="#832440" d="M118.1 117.5l16.8-6.9-28.4 8.3-35.6 9z"/><path fill="#476a80" d="M224 125.7l-32.6-34.6 36.1 1.9-39.2 27.4z"/><path fill="#dedcd2" d="M200 64h17v6h-17z"/><path fill="#8c785b" d="M105.6 55.7l21.6-1.6-15.8 23.5 35.2-8.1z"/><ellipse cx="248" cy="113" fill="#181c15" rx="41" ry="3"/><path fill="#988269" d="M98.2 80.9l-35.1-1.8 28.5-24.3-9.2 8.8z"/><path fill="#686357" d="M213 69h39v4h-39z"/><path fill="#e5ebf2" d="M46 119h32v3H46z"/><ellipse cx="96" cy="136" fill="#0a0e02" rx="25" ry="2"/><path fill="#907558" d="M172.8 58.2l18.5 6.7-17.1 15.7 33.2 2.3z"/><path fill="#6f899b" d="M27 79h10v19H27z"/><path fill="#0b0e0d" d="M174 123h28v12h-28z"/><path fill="#d4b68d" d="M199.2 79.5l13.9-5.2-11.4-1.9 38.3 3.5z"/><path fill="#0086c4" d="M178.5 114.6l-10.2 6.4-4.8-7.6 10.2-6.4z"/><path fill="#f7f6ee" d="M69 67l-6 12V57z"/><path fill="#4e644b" d="M164 123h11v17h-11z"/><path fill="#005aa4" d="M135.8 114.8l2.3-3.3 8.1 5.7-2.3 3.3z"/><path fill="#2e2a11" d="M251 86v8h-16v-8z"/><ellipse cx="76" cy="86" fill="#3e3d25" rx="22" ry="6"/><ellipse cx="182" cy="56" fill="#decbae" rx="13" ry="6"/><path fill="#807566" d="M207 61h49v4h-49z"/><ellipse cx="67" cy="115" fill="#eea300" rx="13" ry="2"/><path fill="#ede7db" d="M240.5 77l1-28h4l-1 28z"/><path fill="#fff" d="M166 85l2-1-3-7z"/><ellipse cx="235" cy="67" fill="#d9cab2" rx="3" ry="20"/><path fill="#5a5b48" d="M78.5 110.7l3.4 28.1L92.1 113l-8.4 13.5z"/><ellipse cx="9" cy="158" fill="#5a646b" rx="37" ry="28"/><path fill="#767d7f" d="M209 119h47v38h-47z"/><circle r="1" fill="#a43547" transform="matrix(-29.17507 .76398 -.02618 -.99966 83.5 128.7)"/><path fill="#070d00" d="M42 134h23v2H42z"/><path fill="#b26102" d="M143.5 115.6l26.7-8.2.3 1-26.7 8.2z"/><path fill="#cbb397" d="M146.7 59.2l-7.3 18.6 20-15.1 3.8-7.4z"/><path fill="#5a4c3b" d="M148 111l25-20-19-13z"/><path fill="#bfb7aa" d="M85.7 54.9l4.6 28.2 15.8-31-4.6 25.3z"/><circle cx="213" cy="104" r="4" fill="#ada08b"/><path fill="#792533" d="M82.6 126.4l-.2-1 29-7.8.2 1z"/><ellipse cx="77" cy="132" fill="#5eae7b" rx="17" ry="3"/><path fill="#3a3c39" d="M73 112l-5-16-40 4z"/><path fill="#6c4c1e" d="M271 61.2V48.5v1.3l-25.4 3.1z"/><path fill="#05324a" d="M204 98h22v5h-22z"/><path fill="#5d5645" d="M260.5 88.2l10.5 34.6-74.4-40.3 44.8-6.8z"/><path fill="#552606" d="M177.4 113.3l20.1-2.9 6.5-.1-29.5 8.8z"/><path fill="#1e1005" d="M99 78h14v2H99z"/><path fill="#e9eae9" d="M135.4 117.4l.5 3-47.3 8.2-.5-3z"/><path fill="#000919" d="M73 72h11v2H73z"/><path fill="#d9c4a6" d="M212.6 43.9l-15 19.2 36.2-6-11.9 3.4z"/><path fill="#918e90" d="M25 80h30v4H25z"/><ellipse cx="173" cy="68" fill="#f4eee0" rx="15" ry="2"/><path fill="#bb8300" d="M24 116h31v4H24z"/><path fill="#e8d0ac" d="M228 44.4l43 23.2-34.2-15.1 34.2-1.1z"/><path fill="#69000d" d="M108 125h17v2h-17z"/></g></g></svg>