<svg xmlns="http://www.w3.org/2000/svg" viewBox="0 0 1800 1200"><defs/><filter id="a"><feGaussianBlur stdDeviation="12"/></filter><rect width="100%" height="100%" fill="#5c3b32"/><g filter="url(#a)"><g fill-opacity=".5" transform="translate(3.5 3.5) scale(7.03125)"><circle r="1" fill="#f5ffff" transform="matrix(253.57853 26.88734 -9.53319 89.90891 144.2 56.2)"/><ellipse cx="171" cy="11" fill="#f9ffff" rx="254" ry="39"/><circle r="1" fill="#39291f" transform="matrix(42.94648 -1.8 3.2429 77.37328 166.6 108)"/><ellipse cy="72" fill="#ecfafd" rx="33" ry="141"/><ellipse cx="66" cy="80" fill="#3c302a" rx="17" ry="64"/><circle r="1" fill="#e9eff1" transform="matrix(-13.54453 18.30438 -20.94194 -15.49622 235.4 159.1)"/><path fill="#685e5a" d="M21 169L9.6 122.2 159 85l11.6 46.6z"/><circle r="1" fill="#def1f9" transform="matrix(44.4484 67.75837 -35.40866 23.22752 239.6 54.4)"/><circle r="1" fill="#e7d9ce" transform="matrix(9.66137 2.09452 -4.66455 21.51611 88 162.6)"/><circle r="1" fill="#e8f5f9" transform="matrix(-59.73276 63.04188 -14.9423 -14.15797 142.5 20)"/><circle cx="172" cy="39" r="14" fill="#2c221c"/><ellipse cx="120" cy="128" rx="23" ry="6"/><circle r="1" fill="#4e3e2c" transform="matrix(4.21998 -6.48339 42.7955 27.85524 203.6 104.9)"/><circle r="1" fill="#0a1a29" transform="matrix(3.24358 -10.61002 22.45641 6.86513 63.3 96)"/><path fill="#bbbab4" d="M172 103l61 35-107-27z"/><path fill="#e9f1eb" d="M105.3 128.3l-17.6-111-24.3 23.4 60.5 34z"/><path fill="#b2b4b8" d="M31 145l-3-30 65 6z"/><path fill="#f6f9ff" d="M135.1-9.6L61.5-16l82.7 64.7 20.3 26.2z"/><circle r="1" fill="#0a161e" transform="matrix(12.23674 10.18225 -18.81437 22.61057 182.9 157.9)"/><circle r="1" fill="#01070b" transform="rotate(138 2 88.8) scale(31.32931 9.89166)"/><path fill="#3a2319" d="M197 105.4l29.5 10.2-47.7 1.7-39.2 2.7z"/><path fill="#5f6856" d="M71-7.2l4.2-2.6 41.9 67-4.3 2.6z"/><ellipse cx="149" cy="140" fill="#d0aa7c" rx="25" ry="9"/><ellipse cx="66" cy="59" fill="#281c18" rx="19" ry="9"/><path fill="#bec1bb" d="M19.2 23.5l49.2 13.4-45.7 38.9 44.9 13.8z"/><path fill="#20323d" d="M96 132l79 28-48 25z"/><circle r="1" fill="#6a4c42" transform="matrix(-18.113 .42389 -.73343 -31.34003 141 79.7)"/><path fill="#f0e4da" d="M-.3 191.3l-21.4-69.8 22-6.8 21.4 69.8z"/><path fill="#ebf6f7" d="M187 49h14v14h-14z"/><path fill="#858d88" d="M75 37l1-35-50 26z"/><circle r="1" fill="#fff" transform="matrix(30.92292 -.2064 .10467 15.68147 24 6)"/><path fill="#131d27" d="M121 122l72 14-35-18z"/><path fill="#977661" d="M115 118L80 71 36 58z"/><path fill="#94a7ab" d="M262 56l-89-2 69 32z"/><path fill="#39464d" d="M32 36h4v52h-4z"/><path fill="#fffffe" d="M231.8 110.6l-8.3-5.5 29.1-29.5 17.4.1z"/><path fill="#c09f8e" d="M161.7 49.6l1.7 1.3 1.4 44.2-17.7-8.2z"/><ellipse cx="179" cy="121" fill="#cad1cf" rx="31" ry="3"/><path fill="#b9b4af" d="M201.1 155.6l11.2-9.8 22.1-33.6 2.3 54.4z"/><path fill="#52362f" d="M164.8 94.1L126.6 108l54.6-3.1 7.5-72.4z"/><path fill="#2a2227" d="M19.3 159l57 26-58-43.5-2 13.9z"/><path fill="#ececf3" d="M3 0h31v54H3z"/><path fill="#ebffff" d="M142 109h26v5h-26z"/><ellipse cx="191" cy="8" fill="#eef0f5" rx="103" ry="18"/><path fill="#0c0f12" d="M249 131l-6 6-9-16z"/><path fill="#504241" d="M46.8 164.1l40-35.9-29.6 10.9-21.6-33z"/><path fill="#bcaaa0" d="M73 165l28-46-10 46z"/><path fill="#d0dddb" d="M36.7 121.2l-8.1-1.2-44.6 7.7L31.4 65z"/><path fill="#e1d7c9" d="M33 134h7v17h-7z"/><circle r="1" fill="#a4a888" transform="matrix(.24225 -8.6727 32.05902 .89549 255 116.3)"/><path fill="#989886" d="M101.2 74.6l4.3-43.4-8.2 12.1 2.6 40.3z"/><path fill="#f7f8f2" d="M75 32.6l-4 .5-6-47.7 4-.5z"/><path fill="#b9b0b1" d="M34 134l75-29-28 24z"/><path fill="#494445" d="M38 118l-36 9 29 4z"/><path fill="#735848" d="M155.7 71.9l20.7-16.3L202.9 69l22.2 59.4z"/><path fill="#585c55" d="M0 27h39v2H0z"/><path fill="#151c26" d="M44.3 100.9l39.3-5.2 4.1 10.8-17.1 4z"/><path fill="#d6eae4" d="M82 77l45 6-28 11z"/><path fill="#d8c5bf" d="M5.8 173.8l8-17.2 16.4 7.6-8 17.2z"/><circle cx="63" cy="28" r="7" fill="#31373d"/><path fill="#b39685" d="M86 109h66v12H86z"/><path fill="#e6cbb6" d="M60 104l-24-3 11 14z"/><path fill="#edf1f8" d="M78 .8l-.9 35.8L79 53l23.3 1.9z"/><path fill="#d2dddc" d="M47.2 40.3l1.5 43-12 .4-1.4-43z"/><path fill="#171a1d" d="M111.2 124.2l46.2-3-53.1 16-7.7-7.2z"/><path fill="#48342b" d="M171.4 99.1l33.8-5.6-30.1 24.3 56.4 3.3z"/><path fill="#363132" d="M141 72.1l13.5-16-18.3-3.7-11.4 17.7z"/><path fill="#a17c58" d="M146 127l35 19-76-12z"/><path fill="#4c525b" d="M89.3 146l62.5 2.2 14.3 5.1-12.7 12.2z"/><circle r="1" fill="#c0b8b6" transform="matrix(-6.76012 8.00918 -28.16996 -23.77678 237.6 146.8)"/><path fill="#5b3528" d="M115.9 102.4l10.5-10.7 6.4 36.7 12.6 8.4z"/><path fill="#1d1713" d="M137.3 171.5L93.7 154l3-7.4 43.6 17.6z"/><path fill="#23638b" d="M34.9 95.5l-1.5-4.7 19.5-11.5-.7 19.3z"/><ellipse cx="63" cy="84" fill="#a0644c" rx="9" ry="15"/><path fill="#a39a87" d="M3.8 40.8L-16 73.3 8.1 86.8-11.6-16z"/><circle r="1" fill="#6c6259" transform="rotate(71.9 65.6 196.1) scale(1 113.77777)"/><path fill="#af8976" d="M143.4 64.9l-9.5 7.2-4.4.6-22.2 41.7z"/><path fill="#060d13" d="M217.2 144l-12.6-3 .2-1 12.6 3z"/><circle r="1" fill="#e8eaef" transform="matrix(8.7079 -14.79127 26.3482 15.51167 125.6 27.5)"/><circle r="1" fill="#695a53" transform="rotate(-155.1 90.8 1.8) scale(17.16657 14.69887)"/><path fill="#fff" d="M155 71h4l-2-15z"/><path fill="#2f2d2f" d="M207.6 125.7l-36.1 3.4 47.3 38.3-61.5-8.7z"/><circle r="1" fill="#575e6a" transform="matrix(1.35647 .2175 -2.63766 16.45018 36 36.7)"/><path fill="#87919b" d="M179.9 126.9l1.6-3.6 42.6 19.8-1.6 3.6z"/><path fill="#4a6251" d="M245 95h2v24h-2z"/><path fill="#e3fdff" d="M168 106h15v3h-15z"/><path fill="#192432" d="M125 101h25v8h-25z"/><circle r="1" fill="#604a38" transform="matrix(10.76814 13.21944 -1.51223 1.23182 91 91.8)"/><path fill="#282325" d="M85 63l-4 9-20-28z"/><path fill="#793d27" d="M52.5 117l28.8-12.9 10.1 13.7-49.8 1z"/><path fill="#131418" d="M66.7 188.9l-33.2-22.4 11.8-17.4 33.2 22.4z"/><path fill="#ddede7" d="M229.6 110.6l5.4-.3-25-23.5.7 7.4z"/><path fill="#bdb3a4" d="M78.6 75.5l11.7 25.6-20.5-24.6L123 59.6z"/><path fill="#e2ebf0" d="M191 120h17v5h-17z"/><path fill="#ad9386" d="M67 163l37-26-18 26z"/><path fill="#665655" d="M19.2 159l27-2.3-25.7-23.5-9.3 18z"/><path fill="#1e242d" d="M49 103l22 2-27-17z"/><path fill="#cacdcb" d="M201.4 50.3l20.7 20.1-37.6-10-8.8-2.1z"/><path fill="#d2d0c7" d="M48 8l11 32-15 15z"/><path fill="#d5c0b0" d="M53 65h4v25h-4z"/></g></g></svg>