<svg xmlns="http://www.w3.org/2000/svg" viewBox="0 0 1800 1200"><defs/><filter id="a"><feGaussianBlur stdDeviation="12"/></filter><rect width="100%" height="100%" fill="#333036"/><g filter="url(#a)"><g fill-opacity=".5" transform="translate(3.5 3.5) scale(7.03125)"><circle r="1" fill="#ffe57b" transform="rotate(157.5 51.4 72.4) scale(222.37287 162.34058)"/><ellipse cx="158" cy="15" fill="#d7ac00" rx="66" ry="79"/><circle r="1" fill="#c6c8e5" transform="matrix(-107.13875 -39.34857 11.555 -31.4621 47 154.1)"/><path fill="#383453" d="M154.5 228.6L116.5 96l51-14.6 38 132.6z"/><circle r="1" fill="#8e2f23" transform="matrix(23.32675 -22.29153 43.38612 45.40098 239.6 118)"/><path fill="#c6ae92" d="M-16 52L104 8 58 145z"/><ellipse cx="49" cy="21" fill="#e6bc00" rx="20" ry="37"/><ellipse cx="190" cy="136" fill="#adaab5" rx="42" ry="23"/><circle r="1" fill="#b9c1f6" transform="rotate(21.7 -327 677.6) scale(32.76389 14.91227)"/><ellipse cx="170" cy="165" fill="#000936" rx="27" ry="13"/><path fill="#bb9600" d="M159 0h33v103h-33z"/><ellipse cx="88" cy="122" fill="#95685a" rx="69" ry="16"/><ellipse cx="158" cy="108" fill="#000f1f" rx="21" ry="11"/><path fill="#e9d89e" d="M68 32h50v31H68z"/><path fill="#9c3e0e" d="M196.1 135.3L271 91.5v69.7l-55.1-12.9z"/><circle r="1" fill="#75686f" transform="rotate(-153.3 119.7 11.1) scale(35.51771 23.10421)"/><ellipse cx="47" fill="#a57a00" rx="184" ry="14"/><path fill="#a09eb0" d="M1 73h90v25H1z"/><path fill="#0d0a00" d="M28 61h4v50h-4z"/><path fill="#c0d4e6" d="M184 107l27 10-31 32z"/><ellipse cx="232" cy="85" fill="#000c13" rx="8" ry="12"/><path fill="#ab4618" d="M70.8 117l70.5-7.4-6.8 34.3-28.9-59.5z"/><path fill="#834b8e" d="M142 46h16v29h-16z"/><ellipse cx="233" cy="56" fill="#240000" rx="39" ry="2"/><path fill="#afc3e5" d="M61 59h9v67h-9z"/><path fill="#c04c00" d="M271 138l-51-46-52 6z"/><ellipse cx="119" cy="18" fill="#d0b708" rx="23" ry="46"/><circle r="1" fill="#f2bd53" transform="rotate(74.1 25 214.7) scale(12.97863 9.90754)"/><path fill="#3a586b" d="M77.1 142l39.2-12.2-24.9-9-27.7 10.9z"/><path fill="#2a0c26" d="M239 134.8l32 18.5-8 13.9-32-18.5z"/><path fill="#ce6900" d="M41 99h17v20H41z"/><circle cx="102" cy="161" r="27" fill="#b5b9b9"/><ellipse cx="152" cy="143" fill="#32363c" rx="26" ry="5"/><path fill="#b9cacd" d="M242 73h7v31h-7z"/><path fill="#a3706b" d="M69 69l50 35 3-58z"/><circle r="1" fill="#061515" transform="matrix(7.00142 7.03776 -3.32859 3.3114 130.1 95.2)"/><ellipse cx="201" cy="80" fill="#00161d" rx="6" ry="11"/><ellipse cx="18" cy="13" fill="#9b5552" rx="19" ry="30"/><ellipse cx="237" cy="62" fill="#b0aeb9" rx="48" ry="4"/><path fill="#5d69b8" d="M157.8 1.8l-.6 11-13-.6.6-11z"/><path fill="#e0deed" d="M78.3 53l-8.8-6.5 1.2-17.9 25.7 9.8z"/><path fill="#e1cb22" d="M150.9 95l22.6-59.5-16.1-1.4 12.3 62.5z"/><path fill="#cb7800" d="M217 43h39v10h-39z"/><ellipse cx="107" cy="119" fill="#beb2a4" rx="25" ry="5"/><path fill="#b29c78" d="M179 139l-22.5-26.4-29.1 27.5-3.1-3.5z"/><ellipse cx="6" cy="140" fill="#bfc5bd" rx="9" ry="68"/><path fill="#86603d" d="M27.3 83.2l-5.9-14.1 34.7 6.4 14-39.5z"/><path fill="#c03a02" d="M271 108.5l-13.7-39.9-55.1-1.9 37 3.2z"/><path fill="#de7412" d="M75.4 112.3l-9.5-27.6 11.2 11.6 19 4.5z"/><path fill="#aad3ff" d="M147 149h21v5h-21z"/><circle r="1" fill="#cfb700" transform="matrix(6.63526 10.9994 -19.17156 11.56503 55.7 12.2)"/><path fill="#e4c834" d="M135.5 93.9l-17.3-11.3 6.8-54.7L140.8 77z"/><path fill="#dac40c" d="M32 35h27v22H32z"/><path fill="#e6becc" d="M31 90h10v23H31z"/><path fill="#340700" d="M206 124h8v14h-8z"/><path fill="#031019" d="M70 64h35v2H70z"/><path fill="#b68965" d="M214 56.1l-10.2 37.7 67.2 17.3-43.8-16.4z"/><path fill="#bee7ff" d="M209 159.8l-1 .1-5-41.7 1-.1z"/><path fill="#4f6886" d="M157.5 88.4L142 101l-7.5-9.4L150 79z"/><path fill="#bbd1fd" d="M57 34l-11 1 1-11z"/><path fill="#bfa707" d="M159 0h66v45h-66z"/><ellipse cx="179" cy="169" fill="#aab5b2" rx="2" ry="73"/><path fill="#44316e" d="M76.5 8.8l3.3-16.7 15.7 3L92.2 12z"/><path fill="#8d1f18" d="M276.6 12.8l1 4.9-54.2 9.5-1-4.9z"/><ellipse cx="179" cy="42" fill="#966622" rx="8" ry="26"/><path fill="#202a35" d="M96.8 139.1l-6.5-11.3 18.6-5.6 3.8.6z"/><path fill="#8f9ad7" d="M207 28.4v7l-10 .2v-7z"/><path fill="#b75109" d="M224.4 21.2l-8.3 98-3.7-58.6 7.4 9.3z"/><path fill="#d7b416" d="M111 47l2 15-36-16z"/><path fill="#d85c24" d="M127 117h18v18h-18z"/><path fill="#202c37" d="M164.7 152.9l-35.6 9.7 33.1 17.7 18.5-29.1z"/><path fill="#4f3c45" d="M90.1 111.7l23.8-35.1-12.8 10.8 5.9 29.5z"/><path fill="#1f1e16" d="M35.6 55.1l-7.3 42.7 4.1-43.5.2 3.9z"/><path fill="#031023" d="M30 59.6l26-2.2v1l-26 2.2z"/><path fill="#9cb3b9" d="M192 71h4v22h-4z"/><ellipse cx="7" cy="77" fill="#95997a" rx="23" ry="36"/><path fill="#a4a1a8" d="M214.8 151.3l-11.7 16.2-26-18.8 11.8-16.2z"/><path fill="#8b2b49" d="M225 42h31v6h-31z"/><path fill="#9b978c" d="M122.3 117.2l-.3 42.7 44.4 25.1-63.3-49.7z"/><path fill="#b39000" d="M166.8 87.2l16.4 23.8 11.1-45.2-11.5-5.8z"/><path fill="#c06f07" d="M97.8 95.6l13.3 3.5 10.9-9-6.5 29z"/><circle r="1" fill="#ced1cc" transform="rotate(81.3 32.5 183) scale(2.22526 21.28319)"/><path fill="#be9d00" d="M95.1-16l120.1 72.1L75.1 9.8l18.4 1.9z"/><ellipse cx="152" cy="31" fill="#9b4341" rx="9" ry="6"/><ellipse cx="222" cy="83" fill="#a0c1c9" rx="3" ry="10"/><path fill="#7a8589" d="M66.3 92.6l-13.4 27.2 9.1 22.8-3.1-12.1z"/><path fill="#a1aec7" d="M115.6 32.1l-.2 6-11-.2.2-6z"/><path fill="#b0a48e" d="M10 121h56v29H10z"/><path fill="#8b3c20" d="M-9.6-1.3l42.9-10 4.3 18.6-42.9 10z"/><path fill="#151814" d="M182 118l-43-24 12 19z"/><path fill="#b7cdeb" d="M144 10h15v4h-15z"/><path fill="#b2906a" d="M36 46L1 15l32-3z"/><path fill="#b14815" d="M260 101l-9 39-46-37z"/><circle cx="40" cy="62" r="4" fill="#f0eeff"/><path fill="#040a10" d="M200 54h35v2h-35z"/><path fill="#5b5452" d="M130.5 139.7l37.1-2.4-38.2 27.6-2.5-24.1z"/><ellipse cx="63" cy="48" fill="#281108" rx="5" ry="3"/><path fill="#606b74" d="M100 76h17v18h-17z"/><path fill="#b68c8f" d="M114 46h7v35h-7z"/><path fill="#7e808c" d="M161 96l-4 10 12-7z"/></g></g></svg>