<svg xmlns="http://www.w3.org/2000/svg" viewBox="0 0 1800 1800"><defs/><filter id="a"><feGaussianBlur stdDeviation="12"/></filter><rect width="100%" height="100%" fill="#042694"/><g filter="url(#a)"><g fill-opacity=".5" transform="translate(3.5 3.5) scale(7.03125)"><circle r="1" fill="#0575ff" transform="matrix(-27.01258 -79.91792 241.57361 -81.65286 94.8 46.1)"/><path fill="#0c5ad4" d="M96 320.3L-80.3 196.9-7.9 93.7l176 123.4z"/><circle cx="136" cy="133" r="79" fill="#00239b"/><ellipse cx="62" cy="25" fill="#0473fc" rx="133" ry="28"/><circle r="1" fill="#5593f6" transform="matrix(49.94099 11.1197 -2.8912 12.98504 255 74.9)"/><circle r="1" fill="#1a63cd" transform="matrix(6.14173 -24.15274 77.74602 19.76982 28.4 237.6)"/><circle r="1" fill="#0b41a6" transform="matrix(-149.71104 -32.36867 6.28294 -29.05976 196.2 245)"/><ellipse cx="191" cy="142" fill="#028" rx="53" ry="68"/><circle r="1" fill="#0030b1" transform="rotate(-122.7 85.2 51.8) scale(43.16472 80.25055)"/><path fill="#1c70e4" d="M270.4 106.5L97.6 11.8l90.7 19.8L271 93z"/><path fill="#5badff" d="M51 117l-24 7-4 17z"/><ellipse cx="107" cy="241" fill="#3866c0" rx="34" ry="10"/><circle r="1" fill="#0347cb" transform="matrix(-53.03736 17.30758 -7.56674 -23.18751 134 68.3)"/><circle r="1" fill="#0029ae" transform="matrix(32.52685 12.45878 -4.94156 12.90122 245 32.3)"/><path fill="#3986f1" d="M12 215l-3 16 44-25z"/><path fill="#0670ef" d="M27 70l-43-9 64-77z"/><path fill="#0053ca" d="M198.6 271l61.2-46.5-57.9 18 4.8-3.8z"/><path fill="#0043c7" d="M2 68l37 102-46 76z"/><ellipse cx="219" cy="64" fill="#6795f1" rx="30" ry="4"/><path fill="#0036b3" d="M257 61l-32 11 37 5z"/><path fill="#7ba6ff" d="M232 78h24v5h-24z"/><path fill="#4063b0" d="M152 228h57v6h-57z"/><circle cx="220" cy="187" r="45" fill="#002282"/><circle r="1" fill="#0556db" transform="rotate(77.5 2.7 75.5) scale(19.96233 46.63773)"/><path fill="#0030a6" d="M48 186h100v48H48z"/><path fill="#0045d9" d="M220 31.8L94.8 9.8l5.2-29.6 125 22z"/><circle r="1" fill="#0c5bd3" transform="matrix(2.57003 34.57666 -7.44953 .55371 179.5 62.4)"/><ellipse cx="12" cy="147" fill="#88c5ff" rx="2" ry="6"/><path fill="#053aae" d="M144 69h78v22h-78z"/><path fill="#1a7aee" d="M83 49l14 13 52-38z"/><path fill="#00269a" d="M126 96h130v28H126z"/><path fill="#6980cf" d="M118.6 234.5l10.4 13.3 1.4-10 15.8-.7z"/><path fill="#3b9dff" d="M104 101h5v12h-5z"/><circle r="1" fill="#3091ff" transform="matrix(-16.97743 -5.72386 1.21318 -3.5984 245 0)"/><path fill="#3159aa" d="M139 209h55v6h-55z"/><path fill="#0a44ae" d="M99 208h23v48H99z"/><path fill="#2980f0" d="M131 97l10-1-19-12z"/><path fill="#67a9fa" d="M33.2 127.6l-13 12.4 23.1-9.8-14.3-3.7z"/><ellipse cx="51" cy="214" fill="#1c6ddf" rx="11" ry="5"/><path fill="#2480f4" d="M193.1 30.5l-39.7 11.4 49.3-9.3 18.3-6.7z"/><path fill="#0247c1" d="M241 43l-62 11 48 8z"/><path fill="#1184f9" d="M146 40.8L106.6 24l5.4-12.8L151.5 28z"/><circle r="1" fill="#001c82" transform="matrix(14.31743 -45.17015 23.06234 7.31 190 158.4)"/><path fill="#002ca2" d="M220.3 108.8l-96.6 12.3 138.1-35.2-88.9-2.9z"/><path fill="#1866d5" d="M168.8 75.8l-28.3 3.8 62.4-21.7-13.2 18.7z"/><path fill="#3e6bc9" d="M107 228l-32 9 13 10z"/><circle r="1" fill="#003cc1" transform="matrix(2.18177 8.95 -52.52925 12.80525 36.9 93)"/><circle cx="31" cy="133" r="3" fill="#b9e0ff"/><path fill="#1b6ae3" d="M7.3 161l1.9 15.1 27.7-13.2-16 12.7z"/><ellipse cx="168" cy="244" fill="#002491" rx="29" ry="10"/><path fill="#2c98ff" d="M127.5 126.5l-2.8 1.2-4.2-10.2 2.8-1.2z"/><path fill="#0044cd" d="M70 34l48 1L14 79z"/><path fill="#4877d1" d="M-9.2 241.9l22.7 3.6-25.6 25.5 29.9-.8z"/><path fill="#0035ba" d="M120 45h31v44h-31z"/><path fill="#0a6ae7" d="M58.7 117.5l-6.7 3.7-30.4 6 17.2-20.6z"/><path fill="#0038b8" d="M20.4 193.1L68.9 271l-28.2-58.4L74.3 78.5z"/><ellipse cx="146" cy="126" fill="#226ad6" rx="14" ry="2"/><path fill="#002497" d="M156 212l-4-99-32 35z"/><path fill="#004cc1" d="M16 222h15v34H16z"/><path fill="#0029a2" d="M105.9 97.9l40.3-1.5-24.9 21.1 31.1 118.6z"/><path fill="#2c86f5" d="M199 41l-16 12-12-3z"/><path fill="#0c72ed" d="M16 71.9l10.6-22.3 35.6-15.4 34.2-17.7z"/><circle r="1" fill="#5788eb" transform="matrix(-29.4838 -7.96878 .57197 -2.11625 244 80)"/><ellipse cx="253" cy="62" fill="#3a77e7" rx="15" ry="7"/><path fill="#3c81eb" d="M10.5 226.7l3.2-15.1 12.8 2.7-14.4 17.3z"/><circle r="1" fill="#0036b6" transform="rotate(89.5 -41 110.3) scale(29.32192 33.41116)"/><path fill="#0052db" d="M53 11l74-7L-4 55z"/><path fill="#002587" d="M153.5 193.2l34.5-9-28.2 41.6 31.2-4.5z"/><path fill="#0133a5" d="M266 107l-17 37-20-70z"/><path fill="#1f6bd9" d="M28.4 222.4l-.8-8.3 15.6 22-7 18.8z"/><path fill="#003cad" d="M102.8 198.7l-29.8 37-41.1 34.2 49.4-28.3z"/><path fill="#3f95fa" d="M132 29h13v8h-13z"/><path fill="#3070e1" d="M176.9 90.4l4.7 4.6 27.1-13.4-17.6 8.7z"/><path fill="#2875e6" d="M205 185h4v5h-4z"/><path fill="#6ca9ff" d="M107 49h3v8h-3z"/><path fill="#5ca6ff" d="M22 89h-8l9-4z"/><path fill="#147cf2" d="M65.9 2.1L40.4 19.8 4 43.1l-20-1.3z"/><circle r="1" fill="#0143ad" transform="matrix(-5.74285 -4.09382 15.50507 -21.75068 253.2 223.2)"/><path fill="#4065b9" d="M154 259l-15-1-18-18z"/><path fill="#0e68e3" d="M69.2 71.7l24-31.6-20.9 39.2-29.2-4.9z"/><path fill="#001d7a" d="M250.2 275.4l-14.2-9.3 21.8-33.5 14.2 9.3z"/><circle r="1" fill="#1566e0" transform="rotate(143.4 110 87) scale(3.25642 8.41786)"/><path fill="#005ee7" d="M117 12l29 16 30-44z"/><path fill="#003bbb" d="M-16 166.1l31.6-25.2-14.2-23.1-15-10.3z"/><path fill="#3e6dc9" d="M116.7 211.3l7 7.2-4.4 4.2-7-7.2z"/><path fill="#003abb" d="M99.5 106.2l-61.4 9.7 47.2-33.8 13.6-25.5z"/><path fill="#358bfa" d="M146 93.9v1L128 96v-1z"/><path fill="#002ea9" d="M78 112h33v115H78z"/><ellipse cx="211" cy="10" fill="#003ccd" rx="44" ry="7"/><path fill="#568fee" d="M216.1 62.4l.5 3-30.7 4.2-.5-3z"/><path fill="#0043b7" d="M6.6 217.3l17 41.7 16.7-21.8-52.7 9.3z"/><path fill="#093697" d="M213.8 160.5l24.4 14.4 26.2-1.7-35.5-16.2z"/><path fill="#84b6ff" d="M40 214.4l-.6-.7 6.6-6.1.6.7z"/><path fill="#023298" d="M113 220h42v13h-42z"/><path fill="#3059b1" d="M189 224h16v9h-16z"/><path fill="#003db3" d="M220 71l-36 3 19-9z"/><ellipse cx="35" cy="1" fill="#0068f1" rx="69" ry="9"/><path fill="#3592fb" d="M51.4 41.1L33.7 52.6l-1-1.7 17.6-11.5z"/><path fill="#3e66c1" d="M115 244l-5-17-5 2z"/><path fill="#78a9ff" d="M10 223h6v5h-6z"/></g></g></svg>