<svg xmlns="http://www.w3.org/2000/svg" viewBox="0 0 1800 1013"><defs/><filter id="a"><feGaussianBlur stdDeviation="12"/></filter><rect width="100%" height="100%" fill="#445a79"/><g filter="url(#a)"><g fill-opacity=".5" transform="translate(3.5 3.5) scale(7.03125)"><circle r="1" fill="#fffff2" transform="rotate(179.3 63.7 15.5) scale(231.78811 45.69306)"/><circle r="1" fill="#e0dedc" transform="rotate(87 80.7 94.9) scale(28.21551 118.06702)"/><ellipse cx="115" cy="62" fill="#8e9096" rx="255" ry="23"/><path fill="#332614" d="M56 86h139v11H56z"/><circle r="1" fill="#2a485a" transform="rotate(-82.9 74.5 50.1) scale(20.06519 69.65135)"/><path fill="#65707e" d="M48 66l-64 39 145-33z"/><path fill="#bebdb5" d="M127 96h30v6h-30z"/><ellipse cx="221" cy="86" fill="#787b72" rx="41" ry="8"/><circle r="1" fill="#6077a3" transform="matrix(.0757 9.24928 -29.95844 .24517 29.6 0)"/><path fill="#6a7789" d="M137.3 74.4l-72.5-8.2 62.1 27.2 27.6-6.1z"/><ellipse cx="123" cy="51" fill="#6a7488" rx="36" ry="6"/><path fill="#b6b6ba" d="M43 62l-59 21L49-1z"/><path fill="#42341c" d="M182 93h44v7h-44z"/><path fill="#222224" d="M128 97l-74-3 39-14z"/><path fill="#677587" d="M256.9 50.8l-30-.6.2-15 30 .6z"/><ellipse cx="119" cy="30" fill="#b7b8bc" rx="184" ry="11"/><circle r="1" fill="#cacdce" transform="rotate(-148.6 76.2 -21.4) scale(84.051 30.01104)"/><path fill="#18191d" d="M155 81h11v15h-11z"/><ellipse cx="129" cy="136" fill="#203e4f" rx="28" ry="5"/><path fill="#5e7ba4" d="M214 9l8-15-28-10z"/><circle r="1" fill="#6a727c" transform="rotate(-174 14.8 42.8) scale(32.94501 11.07809)"/><path fill="#999da8" d="M43.6 70l4.9-55.8L68.4 16l-4.9 55.8z"/><path fill="#c9c9cf" d="M58 10L34 37 9 13z"/><path fill="#a6acaf" d="M187 24h28v48h-28z"/><path fill="#294859" d="M208.6 127.4l46.8 5.4 15.6-10.9-77.2-3.6z"/><path fill="#dadede" d="M218.9 7.3L134-16l116.5 36.6L271-3.2z"/><path fill="#486076" d="M103 125.2L70.4 94.5l-42.9 12 33.6 17.9z"/><path fill="#718092" d="M159 72l88-3-61 22z"/><path fill="#d5d7d8" d="M193.3 40l-20.5-3.6 5.6-32.6L90.9-4z"/><path fill="#325263" d="M122 101h134v5H122z"/><path fill="#8d949f" d="M6 37h69v11H6z"/><circle cx="68" cy="97" r="3" fill="#bfb6b2"/><path fill="#546e84" d="M152 124.1l58.5 21.1-58-32.7-80 29.5z"/><circle r="1" fill="#213b50" transform="matrix(-41.60283 -2.70967 .1133 -1.73965 71.3 137.7)"/><path fill="#8d98a5" d="M226 27h30v14h-30z"/><path fill="#323337" d="M93.7 101.8l63.6-12.3-13 10.8-15.2-8.9z"/><path fill="#b1b5b7" d="M122 64h90v8h-90z"/><ellipse cx="241" cy="92" fill="#606157" rx="39" ry="5"/><path fill="#687588" d="M83.5 65.8l-33.4 5.7L148 93l-.7-8.3z"/><path fill="#7f95b4" d="M203.6-16L181.8 8.2 176.7 0l4.9-14.3z"/><path fill="#a5a9b0" d="M132.4 12.7l4.5 4.4-49.1 45.7-50.4 11.1z"/><path fill="#193244" d="M3 133h60v4H3z"/><path fill="#193643" d="M192 135h40v3h-40z"/><path fill="#a3aaae" d="M206.8 42.2l-49.3-.9 70.8 27.8 42.7-6.6z"/><path fill="#5c7ba5" d="M185-16l49 19 13-17z"/><path fill="#cbcdd2" d="M89.9 39l-27.5-5.4L134.2-16H48.6z"/><path fill="#627ba2" d="M75-1l6-5 2 14z"/><path fill="#a9aeb3" d="M150 94.9l5.1.2 3.6 4.1-13.4 2.2z"/><path fill="#667487" d="M-16 91.8l55.6-19.2L90.9 68l1.9 16.1z"/><ellipse cx="2" cy="107" fill="#334e67" rx="82" ry="11"/><path fill="#33312f" d="M157 85h23v14h-23z"/><path fill="#132f3b" d="M152 140h30v2h-30z"/><path fill="#8e8977" d="M156 98h28v3h-28z"/><path fill="#1d3b4c" d="M104 114h31v4h-31z"/><path fill="#979da4" d="M82.7 60l-57.8-1L-16 35.5l8.9 42.3z"/><ellipse cx="194" cy="132" fill="#788ba1" rx="19" ry="2"/><ellipse cx="82" cy="143" fill="#546c83" rx="91" ry="4"/><path fill="#303134" d="M110.4 100.8L61.6 90.6l40.9-7 28.2 9.2z"/><path fill="#898681" d="M48 98h57v2H48z"/><circle r="1" fill="#4a6481" transform="matrix(-1.16804 4.16315 -32.29699 -9.06148 60.3 115.1)"/><path fill="#284458" d="M160 121h96v3h-96z"/><path fill="#a4a9ad" d="M128 39l21-10 38 20z"/><ellipse cx="178" cy="77" fill="#717e90" rx="43" ry="5"/><ellipse cx="203" cy="96" fill="#212227" rx="16" ry="2"/><path fill="#7d8695" d="M89 54h79l-57-17z"/><circle r="1" fill="#b1b3b4" transform="matrix(.07512 -2.46676 29.8131 .90793 90 59)"/><path fill="#718296" d="M217 69h39v11h-39z"/><path fill="#88929d" d="M160 57h68v5h-68z"/><path fill="#b4b6bb" d="M30 36.9L-4.3-13.7l37 78.6 8.5-8.2z"/><path fill="#282c34" d="M91.2 96.3l-23.4 1.9 26.1-14.4 14.5 16.4z"/><path fill="#213d4e" d="M59 125h57v2H59z"/><path fill="#6b7685" d="M46.2 97.5l11.1-13.3 33.5.2.3-10.6z"/><circle r="1" fill="#2d4a5d" transform="rotate(5 -1415.8 1824.5) scale(30.00005 1.30828)"/><path fill="#778baa" d="M-1.4.9L31.3-16h5.5l24.8 27z"/><path fill="#646f77" d="M161.2 76l11.9 10.1 60.2-5.5-7.8 18.5z"/><path fill="#1e3b4c" d="M242 140h14v4h-14z"/><path fill="#33363b" d="M196 89l-49 3 23 7z"/><path fill="#e4e5e4" d="M60-7.4l24.3 17.6-2.3 3.2L57.7-4.2z"/><ellipse cx="243" cy="47" fill="#6d7b8a" rx="28" ry="3"/><path fill="#c2c7ca" d="M217.6 6.8l6.3 29.4-23.5 5-6.3-29.4z"/><path fill="#324b5e" d="M46 106.3l9.9-16.1-1 20.8 68.4-3.5z"/><path fill="#b0bdcb" d="M134.4 99l-4.4 2.4-2.4-4.4 4.4-2.4z"/><circle r="1" fill="#4e6b82" transform="matrix(-18.51822 -1.52432 .48108 -5.8444 179.4 115.5)"/><path fill="#8f979f" d="M139.1 90.7l35.4-40.4 33.2-7.6-14.7-6.4z"/><path fill="#61768f" d="M113 118h9v14h-9z"/><path fill="#bfc2ca" d="M41.8 5.8l-11.9 24 41-35.2-5.7 21.9z"/><path fill="#38566a" d="M150.7 107.9l34-8.4 23.2 32.7 12.5-21.6z"/><ellipse cx="14" cy="101" fill="#223c4f" rx="33" ry="2"/><path fill="#aab1b4" d="M257.3 52.6l-22.2 16.8-31.3-3.2 42.6-15.1z"/><ellipse cx="13" cy="114" fill="#182f3c" rx="7" ry="3"/><ellipse cx="49" cy="119" fill="#4a647f" rx="106" ry="2"/><path fill="#607791" d="M139 117h17v10h-17z"/><path fill="#94a5bb" d="M150 1.8L132.3-16l21.7 5.1 37.1 12.7z"/><path fill="#183744" d="M183 143h30v1h-30z"/><path fill="#acb1ba" d="M34 18h63v7H34z"/><circle r="1" fill="#8e95a0" transform="matrix(51.24418 8.1649 -.47277 2.9672 146.4 48)"/><path fill="#587188" d="M271 107.2l-28.5 32.5-18.9 2.3 30.7-6.1z"/><path fill="#707c8b" d="M122 81l12-4-7 16z"/><ellipse cx="2" cy="56" fill="#7f8794" rx="12" ry="4"/><path fill="#dfe2e0" d="M234 2h22v7h-22z"/></g></g></svg>