<svg xmlns="http://www.w3.org/2000/svg" viewBox="0 0 1800 1200"><defs/><filter id="a"><feGaussianBlur stdDeviation="12"/></filter><rect width="100%" height="100%" fill="#2d3a4c"/><g filter="url(#a)"><g fill-opacity=".5" transform="translate(3.5 3.5) scale(7.03125)"><circle r="1" fill="#a1e0ff" transform="rotate(-75.2 119.9 -89) scale(113.46808 191.42461)"/><ellipse cx="246" cy="76" fill="#bddfff" rx="133" ry="38"/><circle r="1" fill="#345c8b" transform="matrix(6.62808 -68.91844 147.47379 14.18297 113.7 169)"/><circle r="1" fill="#947f65" transform="matrix(-4.02557 -30.71485 65.64104 -8.60309 34.2 101.6)"/><ellipse cx="113" cy="19" fill="#558ad9" rx="150" ry="56"/><circle r="1" fill="#143150" transform="matrix(-15.2725 5.75023 -12.77943 -33.94197 99 116.7)"/><ellipse cx="123" fill="#2c5d9f" rx="73" ry="35"/><circle r="1" fill="#9bb5d2" transform="matrix(-9.37198 24.19604 -69.4863 -26.9145 9.6 42.3)"/><circle r="1" fill="#c6dcf5" transform="matrix(-63.60974 7.38663 -2.93977 -25.31575 248.2 86.4)"/><circle r="1" fill="#366393" transform="rotate(-172.4 65.2 67.4) scale(154.00902 20.7286)"/><path fill="#cab08e" d="M41 76h40v34H41z"/><circle r="1" fill="#89b5e8" transform="rotate(58.9 75.2 227.2) scale(23.06596 71.86809)"/><path fill="#22272b" d="M88 91l-13 24 59-4z"/><circle r="1" fill="#87acd5" transform="matrix(-8.34972 14.69816 -25.666 -14.58031 114 78.7)"/><path fill="#303628" d="M-1 68l23 5 1 20z"/><circle r="1" fill="#5e6a7c" transform="rotate(-113.8 69.3 52.3) scale(21.3552 38.35859)"/><circle r="1" fill="#4e82bb" transform="rotate(100.5 55.4 158.5) scale(20.22103 60.0261)"/><circle r="1" fill="#235380" transform="matrix(10.71182 -24.55737 74.7085 32.58754 153.1 169)"/><path fill="#5c442c" d="M28 71l2 24 14-3z"/><path fill="#af9c7a" d="M22 75h10v38H22z"/><path fill="#506d8d" d="M175 107.3L38.4 138.9l110-35.3-8.5-8.2z"/><circle r="1" fill="#588dcb" transform="matrix(-79.89824 31.47275 -7.2761 -18.47148 181 31.6)"/><path fill="#94b7dc" d="M-16.4 39.3l64 16-5.2 21.4-64-16z"/><path fill="#918670" d="M50 70l15 28 22-25z"/><circle r="1" fill="#648ebe" transform="matrix(78.26373 47.00476 -11.0888 18.46304 52.6 28.5)"/><path fill="#c4b8a4" d="M42.8 96.5l.6-24.4 17.1 31.5-4.5 17.8z"/><path fill="#283642" d="M82.4 75.1l2.4 14.5 14.9 4.9-7.4-13.3z"/><path fill="#aabfd4" d="M145 80l92 33-60-1z"/><path fill="#97b0c9" d="M150.7 100.5l-49.1-6.2-3.3-28.5 47.7 45.8z"/><path fill="#40514f" d="M-6 62l31 21-41 55z"/><path fill="#132028" d="M63 106l-4 6 12 2z"/><circle r="1" fill="#34629d" transform="matrix(-46.28671 1.69726 -.56863 -15.50727 126 0)"/><path fill="#386b9d" d="M238 180l-60-66-91 1z"/><circle r="1" fill="#4579b8" transform="matrix(-5.43249 -13.9003 81.81354 -31.97422 174 13.3)"/><path fill="#76a1cf" d="M139 89l118-67L62 69z"/><path fill="#778294" d="M42 115h13v25H42z"/><circle r="1" fill="#274667" transform="matrix(11.14812 -.86226 3.9754 51.39782 90.2 169)"/><path fill="#bdd1e3" d="M271 76.3l-14.8-50.6 14.8 91-107.1-14.6z"/><path fill="#bdb4a3" d="M70 94h9v19h-9z"/><circle r="1" fill="#507cb1" transform="matrix(43.68914 30.36474 -7.69701 11.07455 58.2 10.4)"/><circle r="1" fill="#d6ba95" transform="matrix(-7.58753 3.94038 -2.4188 -4.65759 46 78.6)"/><path fill="#5d5045" d="M38 84l-11 6 17 26z"/><path fill="#beb09a" d="M56.3 105.5l-8.8-12.2L26 103l-2.9-9.5z"/><circle r="1" fill="#677075" transform="rotate(-79.2 122 -22.9) scale(3.032 24.79013)"/><circle cy="80" r="13" fill="#6a6e5c"/><ellipse cx="146" cy="92" fill="#9ebcd7" rx="33" ry="8"/><path fill="#131e2a" d="M82 111h44v3H82z"/><circle r="1" fill="#1f2c34" transform="matrix(10.55012 -4.95276 2.53804 5.4064 0 104.2)"/><circle r="1" fill="#42556d" transform="matrix(-6.05375 -12.6423 33.97107 -16.26699 50.8 158.5)"/><path fill="#9f9377" d="M35.4 112.1l6.7-13-10.9.7 1.1 14.3z"/><path fill="#d2b58f" d="M25 73l5 11-7 8z"/><path fill="#455561" d="M103 100.6l-3.3-11.3-24.4 8.6 3.9 13.9z"/><path fill="#7998ba" d="M173 107h35v8h-35z"/><path fill="#546f8c" d="M137 98l39 17-19-17z"/><path fill="#4c5859" d="M16.5 100.3l16 1-36.7 42 19.1-22z"/><circle r="1" fill="#699ad7" transform="matrix(50.78193 -21.9753 3.98186 9.20155 220.4 28.4)"/><path fill="#326495" d="M251 169.8L157 183l-2-14.8 94-13.2z"/><path fill="#618ec5" d="M230 113h26v22h-26z"/><path fill="#395a7b" d="M-9.2 149.9l-1-37.4 26 3.1 29 53.3z"/><path fill="#404141" d="M47.6 114.2l-2.4-8.6-13.5 10.3-1.6-3.5z"/><ellipse cx="119" cy="131" fill="#386593" rx="28" ry="18"/><circle r="1" fill="#789ec9" transform="matrix(-26.92141 -39.76276 9.65527 -6.5371 20 28.4)"/><path fill="#999b96" d="M149 114l-15-15 14-2z"/><circle r="1" fill="#a6c4dd" transform="matrix(-26.06323 4.77875 -2.3703 -12.9276 184.3 93)"/><circle r="1" fill="#96bce7" transform="matrix(-41.541 10.28036 -2.86965 -11.5957 233.4 61)"/><ellipse cx="203" cy="152" fill="#4c7aa8" rx="45" ry="5"/><circle cx="17" cy="86" r="7" fill="#37404c"/><path fill="#4e7ca9" d="M158.7 131.2L271 147.5l-80.6-29.3-32.6-16.5z"/><path fill="#908c82" d="M72.6 81.3L61 102.7l-13.2-8.3 10.6-27.9z"/><path fill="#586c88" d="M17 115h65v22H17z"/><path fill="#84abd2" d="M214.6 61.8l-108.5 36-15.6-19.7 122.2-21.9z"/><path fill="#b8a88f" d="M64.8 71.1l21.1 4.6-17.3 1.7-4 4.2z"/><path fill="#445f78" d="M123 106l15 6 4-12z"/><path fill="#4c78aa" d="M239 160l-18 14 50-11z"/><ellipse cx="109" cy="108" fill="#283846" rx="15" ry="5"/><path fill="#d9cab0" d="M42 77h8v11h-8z"/><path fill="#7f8472" d="M15.4 106.7l-5.5-2.3 4.7-11.1 5.5 2.3z"/><path fill="#1c4c79" d="M173 165h60v2h-60z"/><ellipse cx="201" cy="161" fill="#00335c" rx="16" ry="1"/><circle r="1" fill="#6190c4" transform="matrix(42.1305 -9.55651 1.39619 6.1552 134.9 54.6)"/><circle r="1" fill="#31414e" transform="matrix(.72209 -11.16623 5.38124 .34799 88 90.2)"/><path fill="#204e7e" d="M199 161v-1l58-1v1z"/><circle r="1" fill="#b0a593" transform="matrix(1.6162 .79878 -6.48128 13.11388 75.6 102.2)"/><path fill="#868070" d="M55.8 85.6L68 86l10.7-2.2 9.3-9.4z"/><path fill="#6d7989" d="M42 114h10v35H42z"/><path fill="#749cc8" d="M127.9 83.2l-45.5-6.9-55-31L94 55.7z"/><path fill="#5584b5" d="M233 142l-38-27 47 1z"/><path fill="#c6b7a0" d="M55 97l-1 14-9-1z"/><path fill="#204970" d="M87 185l-5.3-31.5 15.5-2.1 47 9z"/><path fill="#7b7d71" d="M4 76.7L2.6 92.9-16 108.3l.1-23.7z"/><path fill="#83765d" d="M31 73l12 8-14 8z"/><path fill="#31608d" d="M188.5 149.2l-86.9 10.4 61.6-16.8 58.1-1.3z"/><path fill="#81acdf" d="M268 43l-74 17 67-42z"/><path fill="#323b39" d="M16.5 72.5l1 8-8 1-1-8z"/><path fill="#b4ad9e" d="M61.6 86.9l15.3 30.9-14.8-17.6 1.5-1.6z"/><path fill="#4f7aa8" d="M212 160l29-29 17 19z"/><circle r="1" fill="#293845" transform="matrix(-.79836 .60219 -3.48266 -4.61716 37.6 107.6)"/><path fill="#bad5ed" d="M265.4 95.3l-26.7 11.3-10.1-23.9 26.7-11.3z"/><path fill="#4d4543" d="M29 86h10v10H29z"/><circle r="1" fill="#8aacd1" transform="rotate(130.8 -9 19.8) scale(10.29067 54.74837)"/></g></g></svg>