<svg xmlns="http://www.w3.org/2000/svg" viewBox="0 0 1800 1012"><defs/><filter id="a"><feGaussianBlur stdDeviation="12"/></filter><rect width="100%" height="100%" fill="#303e53"/><g filter="url(#a)"><g fill-opacity=".5" transform="translate(3.5 3.5) scale(7.03125)"><circle r="1" fill="#eef3f1" transform="matrix(-158.8656 -55.29455 48.13928 -138.30795 114.5 67.3)"/><ellipse cx="229" cy="62" fill="#17334f" rx="176" ry="17"/><circle r="1" fill="#d7f2ff" transform="matrix(119.09084 5.29293 -1.16773 26.27381 21.3 23)"/><path fill="#2e0100" d="M73 129.2l2-28 52 3.6-2 28z"/><ellipse cx="149" cy="142" fill="#fff" rx="255" ry="12"/><circle r="1" fill="#fff" transform="matrix(31.42047 -29.41541 6.75162 7.21183 16.6 116.6)"/><circle r="1" fill="#fffeef" transform="matrix(-65.2702 -52.10451 3.57137 -4.47378 220.2 134.7)"/><circle r="1" fill="#627e9b" transform="matrix(-.4646 16.11866 -94.90277 -2.73549 65.4 64)"/><ellipse cx="202" fill="#6987a8" rx="98" ry="49"/><path fill="#66544a" d="M30.3 125.6l31.6-57.4-11.8 31.6 61.4 36.3z"/><path fill="#223349" d="M297.7 73.8l-119.9 6.3-1.5-28L296.2 46z"/><ellipse cx="222" cy="142" fill="#fffff4" rx="123" ry="14"/><circle r="1" fill="#81776b" transform="matrix(34.5833 5.98764 -3.1141 17.98636 151.2 112.8)"/><path fill="#fffffc" d="M16 132h73v11H16z"/><path fill="#433223" d="M80.4 96.7l14.3-.6 11.3 44.5-15.6-2.4z"/><circle r="1" fill="#928475" transform="matrix(-43.92132 7.99656 -4.2575 -23.3844 244.7 98.6)"/><ellipse cx="162" cy="6" fill="#082f1e" rx="3" ry="34"/><circle r="1" fill="#9cb5d0" transform="matrix(11.09539 -19.29547 45.03977 25.89902 109 15.7)"/><circle r="1" fill="#dae3ee" transform="rotate(-81.3 25.3 6) scale(16.08002 54.77255)"/><path fill="#f5efe2" d="M0 107h23v36H0z"/><ellipse cx="101" cy="102" fill="#d7c19b" rx="8" ry="12"/><path fill="#d8d5cd" d="M47.4 74.6L1.5 87.2l22.8 49.9-40.3-13.4z"/><path fill="#5e5851" d="M147.2 81.4l1-5 72.6 14.2-1 5z"/><path fill="#d7cdbc" d="M143 62h7v27h-7z"/><path fill="#fffffa" d="M54 81h88v2H54z"/><path fill="#627a92" d="M55 49h81v31H55z"/><path fill="#162d1f" d="M158 30h3v45h-3z"/><path fill="#fcfdf1" d="M246 74h10v7h-10z"/><path fill="#ab927e" d="M69.8 79.7l16.4 9.5-18 31.1-16.4-9.5z"/><path fill="#432a16" d="M96.8 88l-16.6 13.6-14 30.2 25.3-24.7z"/><path fill="#766e69" d="M170 117h26v13h-26z"/><path fill="#786f68" d="M103 126h39v6h-39z"/><path fill="#4a392a" d="M125.1 98.9l-37.3 33.7 24.1-33.8 16.7 12.1z"/><circle r="1" fill="#687b96" transform="matrix(-48.1552 -7.62703 4.90673 -30.97988 227.4 -.1)"/><path fill="#e9e8e2" d="M271 158L154.1 81.7l58.5 51.3-135-1.2z"/><circle r="1" fill="#718da6" transform="matrix(.88832 -11.66712 38.89399 2.96133 74.3 60.4)"/><path fill="#94a2ad" d="M160 62l31-26-24-39z"/><path fill="#5a544e" d="M36.7 132.4l4-24.4-18.3 23.8 20.4-3.4z"/><path fill="#546674" d="M153 45l76 17-82 6z"/><path fill="#9ba79e" d="M155 20.9l7.1-26.4-4.4 54.8-10.8 9.5z"/><path fill="#40566c" d="M78 72h56v7H78z"/><path fill="#dddad0" d="M49.4 74.4l-32 13.5 7-10 23.7 6.2z"/><path fill="#5f758b" d="M-16 92L7 55l24 19z"/><path fill="#f3eee2" d="M31.4 118.9l-10-4.8 13.2-27 10 4.8z"/><path fill="#514523" d="M152 67h6v18h-6z"/><path fill="#7f7b79" d="M224 93h27v35h-27z"/><circle r="1" fill="#d0cdc3" transform="rotate(-12.9 389.7 -688.8) scale(1 10.77168)"/><path fill="#868283" d="M61 85l-30 46h43z"/><path fill="#aaa49c" d="M153.6 76.9l-7.3-8.4-20.9 29.6 35.4 3.7z"/><path fill="#212221" d="M-6.8 96.6l12.6-3.1 1 3.9-12.6 3.1z"/><path fill="#f1eae6" d="M67 105v9l9-11z"/><path fill="#f8f5ee" d="M44 139h135v4H44z"/><path fill="#85817c" d="M-.4 123.7l49.4 4.8-16.8 2.2 14.3-8.7z"/><path fill="#e7e8df" d="M171 82v-2h28v2z"/><path fill="#bea790" d="M84.2 94.9l-23.1 21.2 23-29.6 18.3 19.9z"/><circle r="1" fill="#96b3d5" transform="rotate(17.8 36.6 232.8) scale(51.43644 17.46503)"/><path fill="#243950" d="M200 49h56v11h-56z"/><path fill="#657383" d="M26.4 89.7L25 84l14.6-3.6L41 86z"/><ellipse cx="93" cy="36" fill="#bbc7ce" rx="49" ry="12"/><path fill="#362820" d="M86 129l32-29-13 31z"/><circle r="1" fill="#224540" transform="rotate(97.5 80.3 74.3) scale(57.00007 2.21063)"/><path fill="#fff" d="M143.3 64.4l8.2 12.6-.8.6-8.2-12.6z"/><path fill="#472716" d="M88 131l-16-5-4-10z"/><path fill="#ebe9e5" d="M-.5 130.5l93.1 2.1L65.4 158-16 138.4z"/><path fill="#3f566e" d="M166 49h35v31h-35z"/><path fill="#9fa3a5" d="M166 46h72v2h-72z"/><circle r="1" fill="#898683" transform="matrix(-27.25115 -13.29127 2.24617 -4.60533 180 115.3)"/><circle r="1" fill="#b1c9e6" transform="matrix(4.21642 -13.18572 54.19341 17.3295 20.8 6.2)"/><circle r="1" fill="#b0b4b1" transform="matrix(-35.27855 9.71733 -.28035 -1.01781 202.2 137.7)"/><path fill="#d3d4cf" d="M0 87h50v5H0z"/><path fill="#b7b5a9" d="M73.3 74.7l15.3-7 10-7.9-25 12.8z"/><path fill="#92908c" d="M200.8 82.5l28.2 37.8 7.8-44.8 27.9 8.3z"/><path fill="#5f656b" d="M13 95l3 7 10-6z"/><path fill="#4b5054" d="M51 90l-27 39 22-18z"/><path fill="#2a2f31" d="M126 109l-14 5 3 10z"/><path fill="#7c7670" d="M66 83.6l.2-2 53.8 4.8-.2 2z"/><path fill="#496889" d="M79 48h67v6H79z"/><circle r="1" fill="#c5d3e9" transform="rotate(-89.9 120 7) scale(1 3.91866)"/><ellipse cx="250" cy="131" fill="#f5f1e8" rx="16" ry="4"/><path fill="#261f1a" d="M80 97h12v16H80z"/><path fill="#968e86" d="M109 84h36v17h-36z"/><path fill="#475767" d="M112 68h34v5h-34z"/><path fill="#7297c1" d="M112-5l38 31 14-36z"/><path fill="#525a63" d="M94 133h13v4H94z"/><path fill="#c1beb8" d="M38.7 102.1l-16 20.6-30.2-48.4 33.4 53z"/><path fill="#fefff5" d="M135 79h10v3h-10z"/><path fill="#e8e7e2" d="M28.4 124.8L-16 112.5l24.4-5.2 14.2-3.9z"/><circle r="1" fill="#848382" transform="matrix(16.6194 2.76444 -1.2875 7.74024 133.7 122)"/><path fill="#7c523f" d="M77.2 107.1l1.2 26 16.8-23.5-29.2 15z"/><path fill="#a39c94" d="M191.1 105.4l67.4 5.1-60.4-19.2-35-5.9z"/><circle r="1" fill="#acb4b9" transform="matrix(.97949 .2015 -9.02863 43.886 153 36.4)"/><path fill="#f6f5ee" d="M108 132h83v7h-83z"/><path fill="#736d6e" d="M247.6 104.2l-27-13.4 41.3 7.7-52.9-4.2z"/><path fill="#dedbd4" d="M6.8 84.8l9.9-3.2 16.7-.4L3 86.7z"/><path fill="#606262" d="M18.5 101l.5 1.9L3.5 107l-.5-1.9z"/><path fill="#6e7377" d="M9.8 51.6l-25.8 48L8.9 85.3l-4.7 1.4z"/><circle cx="67" cy="77" r="5" fill="#546066"/><circle r="1" fill="#b4aea7" transform="rotate(-142.3 108.3 22.9) scale(36.67975 2.12739)"/><circle cx="80" cy="94" r="4" fill="#d2d1bd"/><path fill="#5b5d61" d="M208.6 85.9l-31.8-1.8-31.7-1.3 43.5 5.8z"/></g></g></svg>