<svg xmlns="http://www.w3.org/2000/svg" viewBox="0 0 1800 1200"><defs/><filter id="a"><feGaussianBlur stdDeviation="12"/></filter><rect width="100%" height="100%" fill="#384257"/><g filter="url(#a)"><g fill-opacity=".5" transform="translate(3.5 3.5) scale(7.03125)"><circle r="1" fill="#cad8d9" transform="matrix(4.47204 -62.39197 220.71041 15.81977 140.7 51.4)"/><circle r="1" fill="#48566e" transform="matrix(-1.19662 -31.14897 102.18557 -3.92557 215.5 16.6)"/><circle r="1" fill="#e1c9a5" transform="rotate(4.8 -981.9 2170) scale(60.17551 15.13982)"/><circle r="1" fill="#5f635f" transform="matrix(-142.62776 -2.4821 .6456 -37.0975 70.3 139.5)"/><circle cx="79" cy="64" r="50" fill="#96aab8"/><circle r="1" fill="#554022" transform="matrix(-4.33686 19.27463 -71.9531 -16.18971 0 108.5)"/><ellipse cx="118" cy="122" fill="#524330" rx="255" ry="10"/><path fill="#475e78" d="M207 130L57 185l-73-53z"/><path fill="#968876" d="M170 100h86v16h-86z"/><path fill="#434f68" d="M-17.7 22.6l-3.5-39.8 38.9-3.4 3.5 39.8z"/><path fill="#7996b4" d="M108-3L-16 30l172 57z"/><circle r="1" fill="#a8a499" transform="matrix(-68.3006 -35.1626 4.94904 -9.61312 19.1 79.5)"/><circle r="1" fill="#515d77" transform="matrix(-9.44533 -9.42026 10.1475 -10.1745 56.2 8)"/><circle r="1" fill="#9c9a93" transform="matrix(57.97714 -2.90582 1.00838 20.11928 95.2 92.1)"/><path fill="#e0ceb2" d="M171.6 80.8L164 68.1 155.3 99l52.2-8.8z"/><path fill="#3e3f44" d="M111.6 119l7.2-12.7 79 11.3-55.2 20.4z"/><path fill="#8c6f4f" d="M96 129.3l21.5.5 8.8-2.6-52.7-16.8z"/><circle r="1" fill="#70899d" transform="rotate(179.5 112.4 26.2) scale(72.462 12.72652)"/><ellipse cx="83" cy="61" fill="#899fad" rx="118" ry="16"/><path fill="#988e83" d="M58 99h140v10H58z"/><path fill="#3d5267" d="M234 184.8l-97.2 12-6.8-55.6 97.2-12z"/><ellipse cx="55" cy="129" fill="#1c2029" rx="38" ry="3"/><circle r="1" fill="#5b6677" transform="matrix(102.60076 -29.02834 2.97578 10.51789 236.3 0)"/><path fill="#c3b39d" d="M256 90l-57 18-6-34z"/><path fill="#768ea5" d="M103 30h49v20h-49z"/><path fill="#8a6c4f" d="M214 128h42v4h-42z"/><circle r="1" fill="#534a3e" transform="matrix(-12.36442 16.3487 -24.32476 -18.39667 4.2 109.7)"/><ellipse cx="93" cy="3" fill="#8c9fb9" rx="26" ry="15"/><path fill="#7e7e7d" d="M232 94h24v22h-24z"/><path fill="#3b3d3b" d="M174 114h25v16h-25z"/><path fill="#ac9d89" d="M191 96l-55 6 27 11z"/><path fill="#585f6f" d="M167 24l-65 3 67-23z"/><path fill="#566477" d="M-5 127l56 30 74-11z"/><path fill="#595045" d="M51.3 128.1L6.2 86.6l36.7 19.6 43 8.2z"/><path fill="#1c313a" d="M252 151l-34 14 47 1z"/><ellipse cx="52" cy="81" fill="#9ca6a8" rx="48" ry="16"/><path fill="#7e929d" d="M162.5 71.1l19.3-23L199.5 63l-19.3 23z"/><ellipse cx="111" cy="161" fill="#394b5e" rx="34" ry="12"/><path fill="#171b20" d="M94 118l-6 13-6-7z"/><path fill="#00050d" d="M129 129h15v3h-15z"/><path fill="#6d87a0" d="M247.9 6.4l-8.8 33-19-29.5 11.6 8.4z"/><path fill="#4d5868" d="M271-12l-27 30.9 1 11.6 26 9.5z"/><path fill="#e1d4bb" d="M209.1 78.3l-17.5-.2-2.2 4.8 21.9 2.3z"/><path fill="#6c798c" d="M19 48l-3 13 31-8z"/><circle r="1" fill="#5c606b" transform="matrix(-25.49998 2.90536 -.6623 -5.813 185.4 35)"/><path fill="#414853" d="M179.9 118.5l-97-1.7 38.8-8 16.1.1z"/><path fill="#ad9f8e" d="M192 111h31v4h-31z"/><path fill="#c2baae" d="M133.3 83.1l-13.3.1 1.6 13.2 19.6-9.4z"/><path fill="#192c3d" d="M53 166h21v3H53z"/><path fill="#888c8c" d="M156.9 90.5l-13-2-94.2 18.3 69 2.8z"/><path fill="#819cb7" d="M15 36l21 20 7-72z"/><path fill="#667488" d="M-15.9 65.6l29.4-36.3 2 19.7-27-6.6z"/><path fill="#8b6e50" d="M116.3 134l-14.1-12.5 11.3 2.3 17.6 2.3z"/><path fill="#a49c8e" d="M225 86h31v13h-31z"/><ellipse cx="63" cy="94" fill="#b8ac9c" rx="39" ry="3"/><path fill="#697b8f" d="M190 49l68 5-1-20z"/><path fill="#6a788b" d="M123 0h133v6H123z"/><path fill="#364558" d="M44.5 167.7l-33.8-12.9 36.1-.2-24.5 21.1z"/><path fill="#976d44" d="M-16 120l5 11 27-2z"/><path fill="#deccb1" d="M164.4 100.1l-1.8-28.5 20.5 24.6-36.1 4.4z"/><path fill="#4f5d6f" d="M119 160l70-14-71-7z"/><path fill="#da9d5f" d="M70 125h3v3h-3z"/><ellipse cx="165" cy="85" fill="#a09c96" rx="29" ry="2"/><circle r="1" fill="#646f7c" transform="rotate(90.7 72.6 181.5) scale(5.5362 15.93829)"/><path fill="#465a72" d="M32.4 164.4L22 182.6l-36.3-21L-4 143.4z"/><path fill="#383935" d="M171.1 127.7l71.7-10.7 28.2.1-50.9 13.5z"/><circle r="1" fill="#748eaa" transform="matrix(-53.01136 -7.2061 .5722 -4.20935 94.5 28.2)"/><path fill="#a29381" d="M88 98l-1 21-4-15z"/><path fill="#5a677d" d="M60.7 7L59 16.8 37.3 13 39 3.2z"/><path fill="#5b5349" d="M65 111v11l24-10z"/><path fill="#2f3f4c" d="M195 153h30v11h-30z"/><path fill="#4b4540" d="M18.4 94.3l21.9 6-56.3-2.8 5.4-16.8z"/><path fill="#8a9da8" d="M77 61h71v21H77z"/><path fill="#566273" d="M203-3l48 6-53 15z"/><path fill="#697689" d="M122.7 10.4l14.5 38.4 23.8-6.9-57.3-16.6z"/><path fill="#2a2a2f" d="M100 116h2v17h-2z"/><path fill="#878885" d="M177.4 97.5l18.6 1.1 4.1 8.3-28.2-2.6z"/><path fill="#748b97" d="M224 54h32v32h-32z"/><path fill="#798faa" d="M14.5 6.1l73-22.1-97.3 47 39.3-2.6z"/><path fill="#6c788a" d="M117.2 9.9l75.2 4.8L225.7-16 101.3 12.6z"/><path fill="#111924" d="M47 126h12v5H47z"/><path fill="#a67e55" d="M99 127l-5-5-3 7z"/><ellipse cx="42" cy="131" fill="#383332" rx="130" ry="1"/><path fill="#415162" d="M214 155l-83-23 136-2z"/><path fill="#a39b8f" d="M116 108l-46 4 25-10z"/><path fill="#8094a0" d="M169 54h58v23h-58z"/><path fill="#253644" d="M68 158h39v2H68z"/><path fill="#576578" d="M35.9 128.4l14 42.7 38.5-25.5-37.1 6.6z"/><path fill="#848380" d="M217 105l27 8-44 2z"/><path fill="#4e5d71" d="M24 132h99v7H24z"/><path fill="#536375" d="M109 157l-20 3 20 13z"/><path fill="#7a7e83" d="M71 102h75v3H71z"/><path fill="#29394a" d="M59 143l9 2-17 4z"/><path fill="#d6c1a2" d="M220 100l-23 2 17-12z"/><path fill="#b3a18d" d="M155 111l-23.6-3.2 32.1-8 13.9-7.3z"/><path fill="#898a8b" d="M42.4 103.5l12.2 1.4 20.9-10.1-31.9 4.7z"/><path fill="#213547" d="M123.5 180.3l39.4 4.7-68-9.6 37.8-12.5z"/><ellipse cx="202" cy="131" fill="#7e6c62" rx="29" ry="1"/><path fill="#3b4b5c" d="M0 137h59v3H0z"/><path fill="#21313e" d="M34.6 154.4l.8 1.8-14 5.4-.8-1.8z"/></g></g></svg>