<svg xmlns="http://www.w3.org/2000/svg" viewBox="0 0 4426 2951"><defs/><filter id="a"><feGaussianBlur stdDeviation="12"/></filter><rect width="100%" height="100%" fill="#405034"/><g filter="url(#a)"><g fill-opacity=".5" transform="translate(8.6 8.6) scale(17.28906)"><circle r="1" fill="#ad9f9a" transform="matrix(50.87433 -55.91016 112.1309 102.03127 76.1 118.2)"/><path fill="#c4daf2" d="M82 112l95-27-66 77z"/><circle r="1" fill="#b0b5a5" transform="rotate(22 -100.2 575.1) scale(16.39107 28.33332)"/><path fill="#000018" d="M52 139h45v31H52z"/><circle cx="167" cy="144" r="42" fill="#3c4d2e"/><circle r="1" fill="#d5f99a" transform="matrix(22.07173 11.96143 -23.58185 43.51422 0 20)"/><circle r="1" fill="#d4c2c6" transform="rotate(-109.5 56.1 56) scale(9.18252 30.91964)"/><circle r="1" fill="#373c28" transform="matrix(66.17222 -7.4652 1.92334 17.04865 77.5 42)"/><ellipse cx="113" cy="168" fill="#b8c1e3" rx="13" ry="58"/><path fill="#341913" d="M86 101l37-26-43-5z"/><path fill="#a5ab88" d="M95 91l81 33 4-51z"/><path fill="#98a88e" d="M191.2 52.9l46.4 75.5 19.2-31.6-68.6 5.2z"/><path fill="#38190c" d="M14.8 91.2l7-13.2 35.4 18.8-7 13.2z"/><path fill="#181416" d="M177.8 152.7l5.3-33.6 77 12.2L255 165z"/><circle cx="178" cy="14" r="37" fill="#1e271a"/><circle r="1" fill="#a9b8d4" transform="matrix(22.32207 15.68821 -3.63147 5.16706 89 106.8)"/><path fill="#2b322a" d="M188.5 65.7l68.7-56.5L205 122l19.6-74.2z"/><path fill="#d8aca0" d="M46.2 95.4L26.6 63.8 50.5 58l-2.4 15.1z"/><path fill="#1d0d0a" d="M71.4 70.3l-6-32.2-1 17.2-3.9 44.1z"/><path fill="#5f794e" d="M143 98l34-52-72 5z"/><path fill="#d1e5ff" d="M116 99h21v16h-21z"/><path fill="#f8e1dd" d="M153.9 95l25.9-14.6-17.7 20.6-36.7 2.2z"/><path fill="#93ac5d" d="M199 164h52v6h-52z"/><path fill="#cd9985" d="M84 134.5l-6.8 9.9-21.3-15 6.9-9.8z"/><path fill="#374857" d="M57 172l-25-52 37 19z"/><circle r="1" fill="#eab294" transform="matrix(-5.7808 7.80375 -13.46576 -9.97507 27.4 135.7)"/><path fill="#1f283f" d="M95.1 131.2l-8.5-8.2 12.2 39.8L65 91.7z"/><circle r="1" fill="#607850" transform="matrix(25.80435 -3.42902 3.92166 29.51162 153.7 132.1)"/><circle r="1" fill="#cdb7b2" transform="matrix(.43498 -5.70909 15.2403 1.16117 97.2 64)"/><circle r="1" fill="#283621" transform="matrix(-5.70222 -30.17815 25.69255 -4.85466 123.7 30)"/><path fill="#4e3634" d="M8 195.3l-24.9-21.7L10 142.7l24.9 21.7z"/><path fill="#6d834c" d="M16.8 6.3L-16 1l45.9-5.2 88 81.1z"/><path fill="#afaf98" d="M2.3 96.2l47.8 17.9-20.9 2.1-15.8-2.5z"/><path fill="#88847f" d="M17 24h41v18H17z"/><circle r="1" fill="#dbedb3" transform="matrix(-3.05722 5.50951 -16.45092 -9.1286 14.5 16.3)"/><circle r="1" fill="#170915" transform="rotate(174 89.2 54.6) scale(4.34804 26.55788)"/><path fill="#4c362f" d="M89 103l26 5-36-39z"/><path fill="#191a1f" d="M108 160l-68 22 51-34z"/><circle r="1" fill="#839757" transform="rotate(-162 91.2 14.3) scale(24.73748 5.79319)"/><circle r="1" fill="#b1c090" transform="matrix(-6.11345 6.98334 -3.70399 -3.2426 75.1 48.7)"/><path fill="#959b87" d="M192.8 70.3l17.1-14 .3 54.7-7.1 13.4z"/><circle r="1" fill="#36251c" transform="matrix(2.904 -.2745 2.52588 26.721 25.9 81.2)"/><path fill="#92ae82" d="M215.3 99l8.6-6.8 14.8 18.9-8.6 6.7z"/><path fill="#313928" d="M189 72l-33 20-4-38z"/><path fill="#5f7d55" d="M222 28L208 8l63-1z"/><path fill="#a97459" d="M42 143l-43-9 62 51z"/><path fill="#b6c792" d="M9 79l8-53H-4z"/><circle r="1" fill="#9bafc4" transform="matrix(-7.55705 -24.07012 16.50743 -5.18267 110.3 137.1)"/><path fill="#0f0200" d="M149 183l32-29-6 31z"/><path fill="#ddb7ab" d="M54.1 62.3l9.6-.1-3 6.4-45.4-1.1z"/><path fill="#b48575" d="M48 110h29v21H48z"/><path fill="#d1a89c" d="M44.1 51l-13.8 2.2L26 65.9l9-9.5z"/><path fill="#8b918d" d="M58 136h4v34h-4z"/><circle r="1" fill="#667d5a" transform="matrix(-5.69634 7.9525 -20.3443 -14.57255 140.6 69)"/><path fill="#617452" d="M192 77l46-20 1 31z"/><path fill="#0e0f18" d="M214.7 111l4.8-36.6-14 51.7 6.8 11.9z"/><path fill="#3e5c2f" d="M5.6 117.6L-.3 41.9-16 136l35.3-19.9z"/><path fill="#fed9f3" d="M107 165h19v5h-19z"/><ellipse cx="226" fill="#020303" rx="14" ry="7"/><path fill="#694c3e" d="M71 100.6L57.9 84.7l-34.4 18.5 22.9 13.6z"/><circle r="1" fill="#969b8f" transform="matrix(1.37127 -2.1875 7.1093 4.45658 215 47)"/><path fill="#424f35" d="M135 149l56-38-55 11z"/><path fill="#7b926b" d="M180.5 124.6L138.1 143l20 14.5 1 1.3z"/><path fill="#2d1e25" d="M21 44h46v8H21z"/><path fill="#b4c0cd" d="M84.9 114.2L62 85.2l17.5 10.1 27.1 20.7z"/><circle r="1" fill="#efd3c2" transform="matrix(8.30732 -4.31014 3.31224 6.38397 18.5 128.1)"/><path fill="#5d7450" d="M191 3l-11 17-33 9z"/><path fill="#14202f" d="M82 132h9v25h-9z"/><circle r="1" fill="#141812" transform="rotate(147.9 106.5 60.2) scale(9.86737 6.71943)"/><path fill="#526540" d="M17 5l25 11L92-7z"/><path fill="#2c401f" d="M61 23.7l10.8 18.6 23.3-29.2-25.4 9.5z"/><path fill="#778a75" d="M198 52.7l25.2-36 .8.6-25.2 36z"/><path fill="#4e687b" d="M56.9 142.1l21.5 17.2-38.5-40.1-25.5-6.1z"/><path fill="#8faa82" d="M177.3 104.2l-46.2 23.5L149.3 73l-13 38.6z"/><path fill="#648a43" d="M151 185l-27-23 5-28z"/><path fill="#acafba" d="M197.2 123.7l-1 .3-7.4-21.7 1-.3z"/><path fill="#231f16" d="M56 169v-25l-11 9z"/><path fill="#67625a" d="M206.2 185l-29.7-54 3.8 46 26.3-26.8z"/><path fill="#2b3120" d="M197.2 83.6L150.6 62l-9.2 6.2 8.4-15.7z"/><path fill="#6c7a90" d="M113.5 123.2L90.8 131l.3 8.6-3.9-19z"/><path fill="#5a712e" d="M-16 27l29-3-29-12z"/><path fill="#86996e" d="M117 82h31v17h-31z"/><circle r="1" fill="#d9d1d4" transform="matrix(-32.70205 14.58124 -1.47147 -3.30014 145 102.5)"/><circle r="1" fill="#a7b6c0" transform="matrix(14.08378 10.89972 -1.96956 2.54491 39.8 117.9)"/><path fill="#93ba6a" d="M57.5 30.3l-5.6-14.8 16.8 6.6 3.4-7.6z"/><path fill="#3e4c31" d="M135.1 154.7l-15 10.3 17.7-23 31.6 43z"/><path fill="#060e13" d="M63 152h11v18H63z"/><circle r="1" fill="#dbe4de" transform="matrix(-12.46985 -2.94845 .61569 -2.60392 0 50.4)"/><path fill="#647959" d="M247.2 93.8l-13.1 11.4 1.1 12.9 19.6 3.6z"/><circle r="1" fill="#000600" transform="rotate(16.2 -370.7 964.6) scale(5.64083 14.78992)"/><circle r="1" fill="#b18e76" transform="rotate(149.8 2 91.2) scale(4.88384 20.45403)"/><path fill="#344121" d="M147 112l2 9-22 15z"/><path fill="#100e11" d="M223.9 120.5l-20.3 28.1 4.8 5.3 13.7-47.6z"/><circle r="1" fill="#eff8fb" transform="matrix(-16.09084 -5.57195 .32722 -.94495 113.6 139.1)"/><path fill="#b4957f" d="M69 107.3l-.6 19.8 12.8 18.7-.4-22.7z"/><path fill="#181f17" d="M194.5 52.2l-16.9-17.8 22.7-3.2 24.2-16.6z"/><path fill="#9da1b0" d="M215 108h3v12h-3z"/><circle r="1" fill="#7e9789" transform="rotate(-69.5 52.7 -73.9) scale(26.10752 1)"/><path fill="#2d4120" d="M97.5 57.7l10.6-47 8.6 51.7-9.5-7.9z"/><path fill="#7b9167" d="M164.9 92.4l-21.2 40 33.4-38.9 5.5 42.3z"/></g></g></svg>