<svg xmlns="http://www.w3.org/2000/svg" viewBox="0 0 1800 1200"><defs/><filter id="a"><feGaussianBlur stdDeviation="12"/></filter><rect width="100%" height="100%" fill="#213743"/><g filter="url(#a)"><g fill-opacity=".5" transform="translate(3.5 3.5) scale(7.03125)"><circle r="1" fill="#e3f7ff" transform="matrix(235.56794 -21.85298 5.49888 59.27614 176 77.2)"/><circle r="1" fill="#dce0f4" transform="matrix(16.49809 37.23005 -89.01804 39.44736 204.7 77.8)"/><ellipse cx="28" fill="#355ea8" rx="166" ry="114"/><circle r="1" fill="#61778a" transform="matrix(5.35391 -49.96702 96.16173 10.30363 217.7 169)"/><path fill="#fffff9" d="M251 82L126 42l103-18z"/><circle r="1" fill="#4179d3" transform="rotate(28.6 99.6 436.2) scale(99.42304 22.14591)"/><ellipse cx="19" cy="60" fill="#1a3e71" rx="37" ry="66"/><path fill="#bfc5ce" d="M97 53h32v79H97z"/><path fill="#6284ac" d="M51 69h143v24H51z"/><path fill="#8898b1" d="M-16 139.4l27.2 3.9h56.5l20.9-78.9z"/><path fill="#e2ddda" d="M62.6 26.9l18.7 18-11.9 12.2-18.7-18z"/><ellipse cx="110" cy="16" fill="#214b87" rx="45" ry="34"/><circle r="1" fill="#d9d8dd" transform="rotate(-59.8 213.6 -157.6) scale(12.78731 26.70869)"/><circle r="1" fill="#3767a6" transform="matrix(24.98567 41.85061 -10.36694 6.18927 249.6 32.2)"/><path fill="#faf4e8" d="M135 95h60v19h-60z"/><circle r="1" fill="#416ba8" transform="matrix(31.20041 21.84676 -18.70011 26.70653 184.2 3.8)"/><path fill="#d6d4d2" d="M209 79l-73-33 26-19z"/><circle r="1" fill="#24485f" transform="matrix(1.5509 -17.04151 67.84659 6.17452 103.2 155)"/><path fill="#947751" d="M137 134h119v9H137z"/><path fill="#fdf7f2" d="M220.7 21.4l-30 30.3 40.4 21.7 1.4-49.2z"/><circle r="1" fill="#4b76aa" transform="matrix(-3.4473 8.38526 -42.64746 -17.53297 159.4 67.5)"/><path fill="#dbd7d3" d="M96.5 64.5l9-14.5 28 17.5-9 14.5z"/><ellipse cx="25" cy="110" fill="#47709e" rx="46" ry="15"/><circle r="1" fill="#c9c9ca" transform="matrix(-13.55918 -4.32616 1.88632 -5.91215 80.5 82.6)"/><path fill="#eee8df" d="M50.8 90.1l11.7-2.9L65.2 98l-11.7 2.9z"/><path fill="#bdbfc6" d="M37 123h96v10H37z"/><circle r="1" fill="#26487b" transform="matrix(-4.90972 17.12223 -46.10038 -13.21907 22.5 56.4)"/><circle r="1" fill="#5b6572" transform="matrix(.2007 7.35614 -66.68996 1.8195 219 132.8)"/><circle r="1" fill="#325a90" transform="matrix(-5.44958 -5.06406 16.67076 -17.93987 92 55.8)"/><path fill="#9b7151" d="M38 137h42v6H38z"/><ellipse cx="138" cy="83" fill="#5e83b0" rx="50" ry="8"/><path fill="#eaeaeb" d="M246.8 40.6L146.5 34 271 77.4l-31.3-25z"/><circle r="1" fill="#b6becb" transform="matrix(-10.38549 -6.3892 3.23844 -5.264 66.1 35.5)"/><ellipse cy="130" fill="#ccbfb0" rx="21" ry="7"/><circle r="1" fill="#ebeae8" transform="rotate(-172.7 81.2 14.8) scale(7.15717 11.38123)"/><circle r="1" fill="#335c94" transform="matrix(-2.89796 -12.23727 90.85794 -21.51646 160.6 16.2)"/><path fill="#a5afbc" d="M121 139l-43-32 156 7z"/><ellipse cx="251" cy="5" fill="#416daa" rx="49" ry="21"/><path fill="#87919f" d="M271 83l-32.5-5.1-16.6 9.2 8.6 2.6z"/><circle r="1" fill="#01324f" transform="matrix(-53.43276 4.76875 -1.66276 -18.63087 2.8 161.9)"/><path fill="#366098" d="M147.7 71.3l-36.9-60.7 9.5 51.6 61.1 6.5z"/><path fill="#c3c9cf" d="M92.3 108.9l.5 2.5-1.6-10.7 57.6-15.5z"/><path fill="#7887a2" d="M29 125l19 15-60 2z"/><path fill="#b9bec5" d="M224.6 79L216 92.4 161.4 57l8.7-13.4z"/><circle r="1" fill="#1a3762" transform="matrix(80.57784 -22.49774 4.7213 16.9098 53.2 0)"/><path fill="#aeb5c3" d="M221 31l-12-13-44 26z"/><path fill="#6989b1" d="M117 110l-50-8-14 24z"/><path fill="#210400" d="M80 139h22v4H80z"/><path fill="#1e455f" d="M38 145h134v25H38z"/><path fill="#3b66a0" d="M155 15l75-16-58 38z"/><path fill="#456a99" d="M26.5 137.8L62 71.4l-4.7-45.1-27.1 63.2z"/><path fill="#8b7e60" d="M109 141h30v3h-30z"/><circle r="1" fill="#8f9eb2" transform="matrix(4.11768 6.09914 -14.78853 9.98411 220.8 112.6)"/><path fill="#4672a3" d="M67 89l41-2-30 21z"/><path fill="#ad957e" d="M239 140l7-8-30 5z"/><path fill="#b2b9c5" d="M132.9 49.5l5-12 21.2 9-5 12z"/><path fill="#cdced1" d="M97.8 61.1l-4.9 10.1 28.4-2-7.3-16z"/><circle r="1" fill="#4973a9" transform="rotate(-133.9 130.3 -42.2) scale(9.30561 25.03353)"/><path fill="#576c8b" d="M230 122.2l41 6-32.4 6.6-88.7-2.2z"/><circle r="1" fill="#406179" transform="matrix(-37.84494 16.92886 -9.73227 -21.75675 205 168.8)"/><path fill="#315589" d="M149 39l6-47-92 35z"/><circle r="1" fill="#c8cdd2" transform="matrix(43.77578 16.54149 -3.49893 9.25965 242.3 105.2)"/><path fill="#7487a5" d="M73.7 63.7l9-25.5L60.5 60l39.4-16.6z"/><path fill="#645a3c" d="M200.8 130.2L169 142.4l61-4-10.5 3.5z"/><path fill="#ececea" d="M217 24h11v54h-11z"/><path fill="#cdcfd2" d="M80 73l-17 5 25 5z"/><circle r="1" fill="#ecece7" transform="matrix(15.7956 -11.47618 2.72175 3.74616 153.9 103.5)"/><path fill="#dedfe0" d="M184.2 32.7l18.6 29.7-11 6.9-18.6-29.7z"/><circle r="1" fill="#9aa7bb" transform="rotate(86.3 -14.4 127.4) scale(5.75426 26.15334)"/><path fill="#d3d5d8" d="M55.8 30.1l13.9 1.4 1.9 8-6.7 1.9z"/><circle r="1" fill="#284777" transform="matrix(47.18223 -43.84443 8.74963 9.41572 22.4 48.6)"/><path fill="#c1c6ca" d="M99.5 113.9l50.3 11.3-60.2 2.2-1.8 1.2z"/><path fill="#5579a2" d="M17 100l28 26 53-29z"/><path fill="#5f7aa0" d="M71.2 80.5l-30.9.1L79.7 99l-4.4-15.9z"/><circle r="1" fill="#c9cacd" transform="matrix(1.55252 5.7941 -30.53003 8.1805 250.6 73.5)"/><path fill="#5f8abb" d="M144 77l18 8-20 14z"/><path fill="#406396" d="M93.9 63.2l1.5 16.3-53.2-17 21.2-2z"/><path fill="#e3e4e6" d="M234 43.4l18.8 17.3-1.7 11.9-47.9-1.5z"/><ellipse cx="103" cy="101" fill="#dddcd8" rx="4" ry="8"/><circle r="1" fill="#2a4b7b" transform="matrix(1.92525 26.21696 -25.93903 1.90484 91.4 15.6)"/><ellipse cx="144" cy="75" fill="#8a9bb3" rx="25" ry="4"/><path fill="#98abc1" d="M143.8 51.7l69.1 21.7-26.1 29.6-3.4-31.9z"/><path fill="#c3c2c4" d="M62 115h9v5h-9z"/><path fill="#466ea5" d="M194.4 34l-13.9-.5L208.3-16l-21.7 62.1z"/><path fill="#eeede7" d="M133 94l-11 4 1-10z"/><path fill="#6080a9" d="M108.4 74.8l-22 1.6 17.3 17.7 57.6-8.1z"/><ellipse cx="253" cy="27" fill="#4a77b1" rx="10" ry="31"/><path fill="#b9b9bd" d="M108 82h9v5h-9z"/><path fill="#f3f3ee" d="M217 90h17v5h-17z"/><path fill="#e3e2d7" d="M135.3 129.4l-4.8 3.6-7.8-10.4 4.8-3.6z"/><path fill="#5e89bb" d="M201.2 82.9l-18.4 14.9-4.5-33-47.4 2.8z"/><path fill="#96a0b1" d="M133 102l-34-8 12 10z"/><path fill="#2e516a" d="M95 143h97v15H95z"/><path fill="#567598" d="M9.7 126.8l28.4-4.2v-17.5l-43.5 2.6z"/><path fill="#224b6a" d="M252.2 180.4l-10.5-35.5L271 140l-10.4 45z"/><path fill="#a5b0bc" d="M235.5 117.7l-36.6-13.9 60-4.6-19.6-9z"/><path fill="#4d75a6" d="M132.5 74.2l26-20.3 3 4-26 20.2z"/><path fill="#cac5bb" d="M53.3 133l-11.5 2.6 5.3-10.3 15.1 2.4z"/><path fill="#d4d7d9" d="M99 71l21-13-6-7z"/><path fill="#594b2b" d="M95 140h77v2H95z"/></g></g></svg>