<svg xmlns="http://www.w3.org/2000/svg" viewBox="0 0 3477 2318"><defs/><filter id="a"><feGaussianBlur stdDeviation="12"/></filter><rect width="100%" height="100%" fill="#2e344e"/><g filter="url(#a)"><g fill-opacity=".5" transform="translate(6.8 6.8) scale(13.58203)"><circle r="1" fill="#e1d3ab" transform="matrix(39.54048 -128.38396 187.35813 57.70371 122 92.2)"/><circle r="1" fill="#001445" transform="matrix(22.59847 30.20745 -20.06552 15.0112 58.2 58.4)"/><circle r="1" transform="rotate(-85.9 121.6 -58) scale(12.05471 51.74014)"/><circle r="1" fill="#d8d2c5" transform="matrix(87.18625 8.70234 -1.16404 11.66221 148.5 37)"/><circle r="1" fill="#17150e" transform="rotate(-173.2 41.4 58.9) scale(48.77009 7.53004)"/><path fill="#5a4f40" d="M215 67l-40-27-52 18z"/><ellipse cx="8" cy="82" fill="#ada495" rx="24" ry="168"/><path fill="#eae3d1" d="M121 25l69 10-67 19z"/><path fill="#d3e4fa" d="M88.7 52.3l-37-43.9 33.6 21.1-3.9-24z"/><ellipse cx="235" cy="146" fill="#393734" rx="2" ry="176"/><path fill="#181d27" d="M76.3 46.5L93.1 49l-5.4 38.6L70.9 85z"/><path fill="#e4d9c5" d="M220 35l-4 28-57-34z"/><circle r="1" fill="#625145" transform="matrix(.3963 11.62838 -32.66198 1.11311 113.8 120.3)"/><ellipse cx="106" cy="33" fill="#a19b8e" rx="15" ry="90"/><ellipse cx="106" cy="53" fill="#33383a" rx="2" ry="125"/><path fill="#000a41" d="M55.7 34.7L39.2 8.4l5.1-3.1 16.5 26.3z"/><ellipse cx="236" cy="56" fill="#a79f90" rx="17" ry="52"/><circle r="1" fill="#2f3535" transform="matrix(1.4188 62.52111 -.99974 .02269 15 114.3)"/><ellipse cx="90" cy="152" fill="#a29b90" rx="57" ry="23"/><path fill="#4f6cb3" d="M61.7 63.5l-1 19.9L28.2 33l18.2 4.8z"/><path fill="#020b1e" d="M54.1 53.5l29.3 19.9-36.9-47.7L45.4 36z"/><path fill="#1e1e1c" d="M163.1 87.2L194 71.3l7-2.1-53.5-6.8z"/><ellipse cx="124" cy="140" fill="#393e40" rx="2" ry="85"/><path fill="#181c1b" d="M107.6 129.1l-76-21.8 6.1 10.3 12.5 8.1z"/><path fill="#b3aea1" d="M108 75h35v33h-35z"/><path fill="#7d8dab" d="M79 64L57 36l6-52z"/><path fill="#1a1d21" d="M180 72h2v98h-2z"/><circle r="1" fill="#3d3f3e" transform="matrix(.49514 -198.17113 1 .0025 15.4 48.7)"/><circle r="1" fill="#9f998b" transform="rotate(-175.2 63 1.9) scale(79.5741 21.65394)"/><circle r="1" fill="#9e9788" transform="rotate(-168.4 101.2 45.7) scale(43.23953 31.21768)"/><path fill="#192539" d="M87 0h3v39h-3z"/><path fill="#2e2b1e" d="M69 83v17L49 84z"/><path fill="#3c403e" d="M252 0h3v153h-3z"/><ellipse cx="199" cy="122" fill="#34383a" rx="2" ry="59"/><ellipse cx="172" cy="47" fill="#020000" rx="6" ry="5"/><path fill="#141f26" d="M146 77.5l-3 85h-1l3-85z"/><path fill="#e4cda2" d="M67.4 83L65 87.6 52.6 81l2.4-4.4z"/><ellipse cx="58" cy="106" fill="#202c2e" rx="25" ry="2"/><ellipse cx="87" cy="153" fill="#444333" rx="2" ry="98"/><path fill="#b0a588" d="M95.2 76.8l-6.5 50.4-13.3-41.9 34 35.7z"/><path fill="#252624" d="M124.1 103.1l.4-32.9L226.8 80l-93.9-18.7z"/><path fill="#1c3065" d="M76.1 37.7l10 15-23-21 4.8 24.5z"/><path fill="#343636" d="M161 68h3v102h-3z"/><ellipse cx="33" cy="105" fill="#4b4d51" rx="2" ry="106"/><path fill="#e3f2ff" d="M88.7 40.3l-2.4-8-13.6-8.8 14.6 31.6z"/><path fill="#000a14" d="M181 0h2v29h-2z"/><ellipse cx="236" cy="46" fill="#00131e" rx="1" ry="62"/><ellipse cx="153" cy="122" fill="#a9a091" rx="9" ry="48"/><ellipse cx="217" cy="156" fill="#555148" rx="2" ry="96"/><path fill="#050f16" d="M199 3h2v28h-2z"/><ellipse cx="3" cy="32" fill="#aea89b" rx="11" ry="127"/><path fill="#141d22" d="M68 114h2v56h-2z"/><path fill="#071219" d="M144 0h2v26h-2z"/><path fill="#a6a094" d="M207.8 185l-7.6-61.7 2.3-32.3 16.7 12.1z"/><ellipse cx="235" cy="102" fill="#332f2f" rx="1" ry="104"/><path fill="#6e6156" d="M139 135l-73-21 75-10z"/><path fill="#233037" d="M181 78h2v56h-2z"/><path fill="#6c655b" d="M192.1 53.8l-69.8.3-3.9 4.8 116.2 7.9z"/><path fill="#222723" d="M221-17l-3 54h-1l3-54z"/><path fill="#383934" d="M162 0h3v30h-3z"/><path fill="#a49b8e" d="M239 7h14v106h-14z"/><circle r="1" fill="#a9a195" transform="matrix(-4.36633 -.45297 5.59846 -53.9652 192.2 146)"/><path fill="#00136e" d="M91.9 58h-3L88 36h3z"/><ellipse cx="50" cy="157" fill="#2d2e30" rx="2" ry="13"/><path fill="#000911" d="M126.1-7.5h1l-1.2 35h-1z"/><path fill="#271f08" d="M36.2 59.8l16 20.5-2.4 1.9-16-20.5z"/><circle r="1" fill="#e6d7c2" transform="matrix(3.83758 -.89465 .4769 2.04568 173.1 54.2)"/><path fill="#b4ab9f" d="M109 135h15v27h-15z"/><path fill="#a7a398" d="M34.3 27.5L34 10.8l.2-8.9 16.3 24.4z"/><path fill="#282927" d="M124.2 59.3l-6.3-11.6 4.9 26.3 82.9 4.3z"/><circle cx="132" cy="42" r="13" fill="#d8d6cb"/><path fill="#202830" d="M105 121h2v49h-2z"/><path fill="#a8a294" d="M224 2h11v74h-11z"/><path fill="#afa699" d="M88 70l16 42 1-66z"/><path fill="#ffdd4e" d="M41 107h9v5h-9z"/><path fill="#dec285" d="M42 35l-3 7-4-6z"/><path fill="#292c27" d="M49.3 102.8l.2-33.6 3.1 9.8-1.7 29.6z"/><path fill="#fffb96" d="M67 109h7v7h-7z"/><path fill="#242421" d="M212.3 82.2l.5-9.6-30.8-5.9-48.7-2.6z"/><path fill="#333128" d="M95 54L69 74l15 14z"/><ellipse cx="107" cy="20" fill="#141c21" rx="1" ry="34"/><path fill="#000a15" d="M69.8 20.5h-1l1.4-27h1z"/><ellipse cx="234" cy="156" fill="#312c2a" rx="2" ry="30"/><ellipse cx="134" cy="5" fill="#b2afa4" rx="8" ry="23"/><path fill="#142037" d="M51 0h2v42h-2z"/><path fill="#aa9d89" d="M34 62l15 29-15 16z"/><path fill="#323536" d="M15 0h2v45h-2z"/><path fill="#b8b3a7" d="M85.2 22.2l-14-1.7 3.6-28.7 14 1.7z"/><ellipse cx="252" cy="169" fill="#4a4a49" rx="2" ry="70"/><path fill="#b3ab91" d="M55 95l25 1 13 16z"/><path fill="#9e9b90" d="M253 118h3v52h-3z"/><path fill="#4165be" d="M43.9 43.7l24.6 23.5-15.5-.8-12.4-15z"/><circle cx="73" cy="49" r="3" fill="#e3eeeb"/><ellipse cx="170" cy="149" fill="#a09688" rx="8" ry="66"/><path fill="#141d34" d="M76.5 41.8l-13.1 2.3-18.8-18.4 18.2 28.6z"/><path fill="#a29b8f" d="M34 127h33v29H34z"/><path fill="#d8d1c1" d="M202 34h18v24h-18z"/><path fill="#aea99d" d="M109 0h10v101h-10z"/><path fill="#242526" d="M88 92l-9-6 10-5z"/><path fill="#aea799" d="M184 1h15v31h-15z"/></g></g></svg>