<svg xmlns="http://www.w3.org/2000/svg" viewBox="0 0 1800 1800"><defs/><filter id="a"><feGaussianBlur stdDeviation="12"/></filter><rect width="100%" height="100%" fill="#303d55"/><g filter="url(#a)"><g fill-opacity=".5" transform="translate(3.5 3.5) scale(7.03125)"><circle r="1" fill="#ead7b6" transform="matrix(168.84547 -191.09214 164.16365 145.05195 61.5 89.5)"/><circle r="1" fill="#fff5d2" transform="rotate(-38.2 316.7 57.3) scale(35.77698 76.56146)"/><circle r="1" fill="#080000" transform="matrix(-19.10395 13.39436 -20.43673 -29.14826 123.8 166.5)"/><ellipse cx="218" cy="126" fill="#0f2d52" rx="53" ry="41"/><circle r="1" fill="#37180b" transform="matrix(-12.47175 46.87227 -25.62586 -6.81851 122.2 61.4)"/><circle r="1" fill="#afdaff" transform="matrix(-45.32468 -8.28005 11.48725 -62.88074 65.8 14.1)"/><path fill="#1b2831" d="M67 85l-83-57 54 136z"/><ellipse cx="199" cy="18" fill="#b5dbff" rx="60" ry="30"/><circle r="1" fill="#e4d0a9" transform="matrix(10.11189 20.14908 -76.44803 38.36573 175.8 220.8)"/><circle r="1" fill="#cc8042" transform="rotate(173.9 40.2 96.4) scale(20.30406 71.75584)"/><path fill="#ffffea" d="M23.3 252l20.4-62.7 39 12.6-20.4 62.8z"/><ellipse cx="11" cy="203" fill="#686060" rx="25" ry="23"/><path fill="#050000" d="M59 141h12v34H59z"/><path fill="#0e0e10" d="M17 100h41v33H17z"/><circle cx="242" cy="214" r="17" fill="#29210f"/><circle r="1" fill="#474b4a" transform="rotate(-176.2 92.5 92) scale(34.46588 12.18199)"/><circle r="1" fill="#1c1b1b" transform="rotate(-105.2 77 -29) scale(19.20033 23.73389)"/><path fill="#665d4d" d="M292.3 54.7L156 101.6l-10.4-30.3L282 24.4z"/><path fill="#bdeeff" d="M-16-1l40 15 2 40z"/><ellipse cx="135" cy="115" fill="#c8a382" rx="27" ry="33"/><path fill="#6d7474" d="M280.9 232.6l2 39-109.8 5.8-2-39z"/><ellipse cx="204" cy="219" fill="#fde5bc" rx="24" ry="18"/><path fill="#909ca1" d="M33 6l76 131-77-45z"/><path fill="#ffefc7" d="M255.4 200L211 187.3l5.5-19.3 44.3 12.7z"/><path fill="#35231b" d="M133 133l-34 52 3 59z"/><path fill="#2f2b20" d="M-5.7-16l43.2 26.4.4 8.4L-1.5 1.3z"/><ellipse cy="134" fill="#fff0ce" rx="10" ry="28"/><path fill="#031a3a" d="M252 156l-22 10 41 12z"/><path fill="#a7bfd9" d="M181.5 56.8L207.9-16 31.7 10.5l99.9 4.7z"/><circle r="1" fill="#624f4b" transform="rotate(-151.4 64.6 40.2) scale(40.02397 8.30803)"/><path fill="#181715" d="M110 131l15 65 42-5z"/><circle r="1" fill="#c9d7e2" transform="matrix(-19.54603 -15.3812 11.68139 -14.8444 66.9 60.4)"/><circle r="1" fill="#d6bc9b" transform="rotate(-91.7 148.7 -63.9) scale(4.61345 60.1218)"/><path fill="#313e46" d="M45.5 67.7L43.9 15l-7.3 42.5L-16 103z"/><path fill="#ebe6d8" d="M139.8 78.5l19.8 26.8-1.8 20.4-17.7-18.9z"/><circle r="1" fill="#9b8a7a" transform="matrix(-18.47288 -3.30619 2.57818 -14.4052 41.7 149.5)"/><path fill="#c9b69b" d="M112 199h59v57h-59z"/><path fill="#64615f" d="M174 236l21-50-45 56z"/><circle r="1" fill="#e49c5c" transform="matrix(11.30246 -4.51274 12.21164 30.58486 82.7 156.5)"/><path fill="#b5cfe7" d="M71.5-16L61.1 16.9l39.1 41.9 13.9 17.6z"/><path fill="#051422" d="M5 62h26v25H5z"/><path fill="#3f556c" d="M157.1 82.2l33.6 108.6 13.8-108.1-23.1 6.8z"/><path fill="#ffffe3" d="M90 127l-1-11 23 18z"/><path fill="#a86e49" d="M82 127l35 6-18 76z"/><path fill="#8e9594" d="M61 89l-67-1-10 24z"/><path fill="#284351" d="M84.2 49.9l-50.9-61 24.3 24.6 52.8 63z"/><path fill="#c6b5a4" d="M175 156l-25 7-44-49z"/><path fill="#abc5d8" d="M186 44.6l-30.4 9.9-5.6-17.1 30.4-9.9z"/><path fill="#c09b78" d="M70.8 271l68.7-36.9-40.1-.5-9.5-95.4z"/><path fill="#7e8687" d="M241.8 247.5l29.2-58.8V271l-120-12.7z"/><path fill="#828680" d="M227 164l-50 57 24-70z"/><circle r="1" fill="#8e6653" transform="matrix(4.19126 -35.149 12.28386 1.46476 126.6 75.8)"/><path fill="#455a57" d="M184.2 171.4l68.9 52.6-44.1-24.3.7-12.5z"/><path fill="#c4c2bb" d="M170 178l6 11-18 1z"/><path fill="#283034" d="M59 179.3L54.8 164l18.2-5.2 4.4 15.4z"/><path fill="#444338" d="M41 18l1 18L26 3z"/><path fill="#b1cbe9" d="M-14.7 6.5l49.6 14.2 4 29.8-6.4 10.8z"/><path fill="#a86532" d="M157.1 155.4l4.9-4.7-21.6-23.9 34.7 2.8z"/><path fill="#e7d4b0" d="M254.4 211.9L271 234v-57.8l-21.4 10.5z"/><path fill="#383021" d="M230.7 257.2l2.7 6.2-7.5-44.4 23 13.2z"/><path fill="#6a808b" d="M36.9 64.9l-.5-3.1-42.7.4L4.5 30.1z"/><path fill="#f5e4cf" d="M80 271H25.2l-4.8-39 26.5-43.5z"/><path fill="#ecac6f" d="M109.3 94.6l-9.3 31.7-4.4-21.4 13.5-.1z"/><path fill="#89847a" d="M55 171h28v24H55z"/><path fill="#4a5151" d="M154.5 128.7L133 105.9l5.6-42.2-10.9 22.5z"/><path fill="#24578d" d="M93 84v24L72 90z"/><path fill="#546376" d="M207 262l17-25-59-1z"/><path fill="#efdebc" d="M140 245h33v11h-33z"/><ellipse cx="228" cy="183" fill="#e9d6b6" rx="13" ry="18"/><path fill="#adaeb9" d="M149 124l24 2-3-16z"/><path fill="#625647" d="M158.8 55l-46 38.8 55.5-31.3L271 68.4z"/><path fill="#302b27" d="M126.4 196.2l-27.9-38.7 64.6 25.2-10.3 16z"/><path fill="#c2d5e3" d="M53 59l37 1L39-5z"/><path fill="#d6a97a" d="M128.8 93.1l12.7 30.1-27.3-31.3-7.5-8.8z"/><path fill="#cfab88" d="M176 58l1-12 39 8z"/><circle r="1" fill="#96a9bd" transform="rotate(53.9 106.2 246.7) scale(23.09975 38.83624)"/><path fill="#ecd4ae" d="M177 229h52v7h-52z"/><ellipse cx="247" cy="98" fill="#4c5e73" rx="98" ry="11"/><path fill="#41221b" d="M112 88h5v30h-5z"/><path fill="#332f2f" d="M153.4 36.1l-3.3 30-28.7-38 14.7-8.2z"/><circle r="1" fill="#cdc6ae" transform="matrix(-40.72419 50.1111 -4.2852 -3.48248 145 238.2)"/><path fill="#202324" d="M11.6 135.6l8.7 1.5 43.4-13.6-35.2-4z"/><path fill="#192830" d="M186 184l7-11-9-8z"/><path fill="#d4955d" d="M88.6 202.8L84 271l20.2-59.5-45.3-92.7z"/><ellipse cx="41" cy="138" fill="#c1b39d" rx="18" ry="3"/><path fill="#25282e" d="M154.4 186.3l-34.1-24.6 1.5-30.4 18 18.8z"/><path fill="#92897c" d="M104 200.6l4-12.3 22 7-4 12.4z"/><path fill="#686564" d="M6 108h31v9H6z"/><path fill="#734c37" d="M103.1 184l13.1 33.6-18.6 27.6 2.4 3.1z"/><path fill="#eedcb9" d="M107.4 134.2l-27.3-12 3.8-10 6.8 2.9z"/><path fill="#a6b7c8" d="M243 25L93-16l92 66z"/><path fill="#727f96" d="M183 166l-11-34-11 40z"/><path fill="#9e9688" d="M84.9 119.8l.3-9.4-29.6-13.5 1.9 36z"/><circle r="1" fill="#323531" transform="matrix(-.95278 .30366 -12.31133 -38.62918 114.5 0)"/><path fill="#57423e" d="M98.2 140.5l-15.1-12.1-3.9-3.7 66.1 28.4z"/><path fill="#efdbc2" d="M23.2 161.6l4.3 8.5-10.1 10.7 41.5 22.4z"/><path fill="#6e7da0" d="M146.5 76.7l7.3-3.4 17.7 38-7.3 3.4z"/><path fill="#f4e7cf" d="M156 146l-8 9 13 8z"/><path fill="#40505b" d="M72 191h14v7H72z"/><path fill="#a6c3e0" d="M38.1 42.2L-2.1 31.3-16 10.6l36.3-2.3z"/></g></g></svg>