<svg xmlns="http://www.w3.org/2000/svg" viewBox="0 0 4752 3168"><defs/><filter id="a"><feGaussianBlur stdDeviation="12"/></filter><rect width="100%" height="100%" fill="#223337"/><g filter="url(#a)"><g fill-opacity=".5" transform="translate(9.3 9.3) scale(18.5625)"><ellipse cx="86" cy="54" fill="#d3cdc5" rx="237" ry="104"/><circle r="1" fill="#fff" transform="matrix(-12.03924 -33.99777 104.36499 -36.95758 44.3 1.3)"/><path fill="#4c534d" d="M110.2 16.1l198.3 17.4-14.7 168.4-198.3-17.4z"/><circle r="1" fill="#daecff" transform="matrix(-131.153 -15.86507 2.17037 -17.942 176.6 0)"/><path fill="#2a4963" d="M135.4 125.2l4.8 33.7-141.6 19.9-4.8-33.7z"/><ellipse cx="39" cy="79" fill="#b2b4ab" rx="85" ry="22"/><circle r="1" fill="#eff1f0" transform="matrix(28.57813 -25.01826 23.46434 26.8031 40.1 10)"/><ellipse cx="222" cy="74" fill="#7c99a4" rx="78" ry="13"/><path fill="#f4caa0" d="M99.1 71.1l-25 68.7 62.4-69.6-32.9 35.7z"/><circle r="1" fill="#855c4a" transform="rotate(-98.5 84.3 -24) scale(49.16516 29.1053)"/><circle r="1" fill="#878892" transform="matrix(15.4423 -27.29419 14.6897 8.31103 172 144)"/><circle r="1" fill="#504d34" transform="matrix(-2.23456 19.02188 -69.23415 -8.13314 193.7 41.7)"/><circle r="1" fill="#c98360" transform="matrix(10.55206 -1.84128 3.049 17.47329 75 169)"/><path fill="#d5e6f4" d="M136 14h25v10h-25z"/><path fill="#624932" d="M65.6 31.3l34 32.4L-16 49.2 63.5 46z"/><circle r="1" fill="#066286" transform="matrix(-4.98535 10.96186 -28.84364 -13.11781 97.2 145.3)"/><circle r="1" fill="#5d6d72" transform="rotate(35 -185.3 111.8) scale(28.0431 45.58561)"/><circle r="1" fill="#436062" transform="rotate(-68.8 177.7 -95.4) scale(21.51156 63.10697)"/><path fill="#82a8b6" d="M126 51l23 21 18-12z"/><path fill="#b4c8e0" d="M271 25l-16 9-37-15z"/><path fill="#d7d2c9" d="M90 24l13 17-28-2z"/><path fill="#abb8bf" d="M164 125h42v8h-42z"/><path fill="#d08a61" d="M134.9 157.9l12-5.5 5.8 10.3-4.7-37z"/><path fill="#36323f" d="M68 132l-74 37 66 16z"/><path fill="#a4b2b3" d="M0 58h76v26H0z"/><circle r="1" fill="#a8775e" transform="matrix(-14.3424 34.6054 -9.18572 -3.80707 109.5 97.8)"/><path fill="#e0c29f" d="M90 101.1l-.7 37.7 17.1-61.6L91.3 73z"/><path fill="#9ba8a2" d="M-16 97.4v6.9l31.5 8.1 62.8-20.5z"/><ellipse cx="208" cy="148" fill="#355152" rx="41" ry="13"/><path fill="#e2e5e7" d="M74.7 23.6L-16 2.6 89.8-2.2l17.6 12.6z"/><ellipse cx="21" cy="89" fill="#475e5b" rx="48" ry="3"/><path fill="#554b49" d="M100 29.7l21.5-20.9L150 38.3l-21.5 20.9z"/><circle r="1" fill="#535049" transform="matrix(3.77195 11.13235 -48.12968 16.30769 143.4 115.3)"/><circle r="1" fill="#777264" transform="matrix(3.51366 8.0418 -31.99606 13.97986 193.5 37.3)"/><path fill="#86583d" d="M86.8 17.9l4.8 6.4L65.2 44l-4.8-6.4z"/><path fill="#9fafad" d="M60.1 185l8.9-19.3 28.8-87.8L67.3 153z"/><circle r="1" fill="#815d49" transform="rotate(-123.5 62.1 -1.6) scale(14.22499 19.96557)"/><ellipse cx="9" cy="54" fill="#394435" rx="52" ry="3"/><path fill="#302220" d="M76.7 157.4l18-8.8 12.6 26-18 8.8z"/><path fill="#4a645c" d="M80.9 107.9l10.5-7.9-32.6-1.8L5.9 140z"/><circle r="1" fill="#a8b2c2" transform="matrix(-51.3525 16.48748 -.4747 -1.47854 44.4 127.6)"/><ellipse cx="224" cy="54" fill="#3f4529" rx="64" ry="7"/><circle r="1" fill="#2a4341" transform="matrix(.9024 -3.90934 40.4309 9.33279 223.2 117.4)"/><circle r="1" fill="#88959a" transform="matrix(.66567 -8.09671 49.43516 4.06431 229.5 69.4)"/><circle r="1" fill="#202d3c" transform="matrix(-.32227 -.94665 43.92711 -14.954 37.5 134.8)"/><path fill="#8fa2a5" d="M225 166h18v4h-18z"/><path fill="#364e44" d="M-4.3 123.4L-16 141.3l63.5-15.4-18.9 1.6z"/><path fill="#845744" d="M159 164.4l-9 1.3-13-92.1 9-1.3z"/><path fill="#756f59" d="M140 21l61 1.2-53.2 6.7-17.7 32.2z"/><path fill="#a6937e" d="M133 163l-6-13 21-2z"/><circle r="1" fill="#c8ced2" transform="matrix(30.79064 -3.56638 1.02985 8.89127 208.3 9.3)"/><path fill="#617678" d="M271 80l-33 36-63-32z"/><circle cx="110" cy="149" r="16" fill="#175872"/><path fill="#315a59" d="M159.7 89.6l17.3 8.1-19.7 45.1-5.6 2.2z"/><path fill="#1c242b" d="M27 166.9l39.7-9.9 5.1-22.6-2.2 10.3z"/><circle r="1" fill="#8c8b99" transform="rotate(-19.6 430.9 8.8) scale(49.9089 2.87172)"/><path fill="#9db3cd" d="M135.9 22.4l-5.3-37.6 51.5-7.2 5.3 37.6z"/><path fill="#694b3e" d="M146.4 88.1l-31.9 45.2-18 4.1 37.2-53.1z"/><path fill="#b0b0a5" d="M160 121h19l-16 15z"/><path fill="#bcb7a9" d="M164 158h9v6h-9z"/><path fill="#462b21" d="M168.4 164.5l-8.7-1.2L154 185h74.3z"/><path fill="#c4c1bd" d="M69.8 45l24-22.5-12.6-4.7 15.1 15.1z"/><path fill="#9eaba9" d="M133.3 61.7l34.4-4.2-44.4-1 24.5 8.3z"/><ellipse cx="30" cy="41" fill="#b3b6b4" rx="28" ry="5"/><path fill="#2f3b43" d="M134 151.2l11.4-21.4-22.9 5.6 1 10z"/><path fill="#e8c19a" d="M99.1 85.1l-17.5 30.4-.6 10.2 11.2.4z"/><path fill="#388baa" d="M93.7 146.4l-20-8.2 3.5-18.1 15.3 12.3z"/><path fill="#627185" d="M195.8 136.8l35.7-13-61.9 12.2 20.3 23.8z"/><path fill="#a5a8a5" d="M186 117h18v4h-18z"/><ellipse cx="3" cy="90" fill="#859190" rx="22" ry="20"/><path fill="#2c453e" d="M190.6 138.2l36.5-5.1 43.9 18.8-37.3 16.7z"/><path fill="#939288" d="M138.2 48.5l-5.1 30.6 4-1.5 11.1-32.8z"/><path fill="#514f44" d="M180 16l-26.6 5.2-6.7 26.7L191 37.7z"/><path fill="#5e767d" d="M148 60h38v30h-38z"/><path fill="#6c807c" d="M198.4 160.7l14.8-1.8-10.3-17.9 7.6 8.8z"/><path fill="#9b9e9b" d="M174 42h44v2h-44z"/><path fill="#6f8483" d="M57 85h34v12H57z"/><path fill="#a77e63" d="M110.7 22.7L87.3 28l-2-8.8 23.4-5.4z"/><path fill="#96b0cb" d="M136.5 128.2l-9.8-13.9.8-.5 9.8 13.9z"/><path fill="#6e524f" d="M127 66L91 23l26 1z"/><path fill="#829cba" d="M184.6-.1l-37.9 12.8L138-7l-22.6-9z"/><path fill="#334b40" d="M-11 113h33l-25 7z"/><path fill="#38342e" d="M124.9 29.8l4.8-1 5.4 25.4-4.8 1z"/><path fill="#6d534b" d="M67 185l10-34 14 5z"/><path fill="#060506" d="M182 121l2-6 3 5z"/><circle r="1" fill="#917669" transform="matrix(-21.85685 19.3373 -5.73355 -6.4806 121.6 85)"/><path fill="#b38f80" d="M96 38h24v5H96z"/><path fill="#4f6260" d="M245 142l26-18-74-8z"/><ellipse cx="206" cy="26" fill="#656055" rx="26" ry="5"/><path fill="#5e493e" d="M53.4 52.8l30.4-30.4 2.8 2.8-30.4 30.4z"/><path fill="#747a85" d="M24.2 165L2 175.2l.9-3.3 47.2-19z"/><path fill="#735c49" d="M37.5 47.3l77 24.1-21.8-32.8-38.3 9.3z"/><path fill="#ccd4d7" d="M140 16h26v5h-26z"/><path fill="#a7b3b2" d="M98 73L72 57 54 79z"/><path fill="#463235" d="M162.5 145.8l-.3 11.9-43.7 9.1 19.3 18.2z"/><path fill="#c49172" d="M141.3 147.4l8-.4 4.8 18.2-11.1-15.3z"/><circle r="1" fill="#91a0c0" transform="rotate(72.8 -76 86.8) scale(1.48779 54.83301)"/><path fill="#366d82" d="M106 155h17v11h-17z"/><circle cx="106" cy="53" r="3" fill="#dbb8a2"/><path fill="#4393b4" d="M70 138h10v15H70z"/></g></g></svg>