<svg xmlns="http://www.w3.org/2000/svg" viewBox="0 0 1200 1800"><defs/><filter id="prefix__a"><feGaussianBlur stdDeviation="12"/></filter><rect width="100%" height="100%" fill="#3c4b55"/><g filter="url(#prefix__a)"><g transform="translate(3.5 3.5) scale(7.03125)"><circle r="1" fill="#bae4ff" fill-opacity=".5" transform="matrix(168.67841 10.42082 -7.88149 127.57504 103.7 97.5)"/><circle r="1" fill="#c5cce7" fill-opacity=".5" transform="matrix(-1.8044 -35.61954 168.78355 -8.5502 60.4 177.8)"/><circle r="1" fill="#5c82da" fill-opacity=".5" transform="matrix(168.17567 16.67164 -9.44988 95.32602 93 59.8)"/><ellipse cx="58" cy="238" fill="#5b8098" fill-opacity=".5" rx="140" ry="32"/><path fill="#24302c" fill-opacity=".5" d="M71.5 207.5v25h-37v-25z"/><circle r="1" fill="#486db1" fill-opacity=".5" transform="matrix(31.80688 -37.10972 79.29692 67.96568 147.6 26.9)"/><circle r="1" fill="#8da9d1" fill-opacity=".5" transform="matrix(-6.45169 36.511 -103.71842 -18.3276 71 131.5)"/><path fill="#fae6dc" fill-opacity=".5" d="M173 208l-20.6-10.3-8.2 17.8 40.8 11.2z"/><path fill="#ebe4d9" fill-opacity=".5" d="M60 191h77v16H60z"/><circle r="1" fill="#c9cbcf" fill-opacity=".5" transform="rotate(-84.9 114.2 77.6) scale(13.71868 59.6158)"/><path fill="#9da3a5" fill-opacity=".5" d="M5 238l-1-44 36-2z"/><path fill="#ced3d7" fill-opacity=".5" d="M91.5 65.8l-3.1-41L86.6 94l-1.5 56.2z"/><ellipse cx="67" cy="237" fill="#55768a" fill-opacity=".5" rx="169" ry="10"/><path fill="#35898b" fill-opacity=".5" d="M87 183h29v7H87z"/><path fill="#c4c0c8" fill-opacity=".5" d="M158.8 232.7l-.6-8 21-1.4.6 8z"/><path fill="#acb6c0" fill-opacity=".5" d="M138.9 199.5l-59.6.5-1.1 48.5-7.9-59.3z"/><ellipse cx="61" cy="156" fill="#263a4a" fill-opacity=".5" rx="1" ry="28"/><circle r="1" fill="#0b102f" fill-opacity=".5" transform="matrix(5.944 -3.82666 1.42998 2.22122 114.4 213.6)"/><path fill="#dfe2e2" fill-opacity=".5" d="M82.9 208.4L87 85.5h2l-4.2 123z"/><path fill="#22302f" fill-opacity=".5" d="M49 213h25v16H49z"/><path fill="#d6d5d9" fill-opacity=".5" d="M0 205h19v7H0z"/><path fill="#fdfbf6" fill-opacity=".5" d="M103 198.5l8.6-7.8 9.3 18.2-44.9-5.1z"/><path fill="#627b8f" fill-opacity=".5" d="M18 207h29v14H18z"/><path fill="#66685c" fill-opacity=".5" d="M-1 197l23 1-15 9z"/><circle r="1" fill="#5d83bf" fill-opacity=".5" transform="matrix(21.54765 32.14828 -22.55954 15.12072 58.4 28.2)"/><path fill="#818c9c" fill-opacity=".5" d="M73 190l16 6-26 5z"/><path fill="#e2dfe0" fill-opacity=".5" d="M7.5 186.3l17-5.1-5.2-11.7-35.3 8.9z"/><ellipse cx="153" cy="251" fill="#34556a" fill-opacity=".5" rx="31" ry="15"/><path fill="#fff" fill-opacity=".5" d="M154 209h16v4h-16z"/><path fill="#aeb5bd" fill-opacity=".5" d="M165.7 207.8l-44-1.6.6-18 44 1.6z"/><path fill="#001d1e" fill-opacity=".5" d="M15 224h34v2H15z"/><path fill="#98adce" fill-opacity=".5" d="M71.7 206.4l30.5-.7 6.3 16.5-33.3-4.1z"/><path fill="#397879" fill-opacity=".5" d="M87 179h4v14h-4z"/><path fill="#535b80" fill-opacity=".5" d="M122 207h22v6h-22z"/><circle r="1" fill="#6f93c9" fill-opacity=".5" transform="matrix(56.29888 12.64468 -7.61014 33.88319 30.4 81.9)"/><ellipse cx="75" cy="203" fill="#e9e9ea" fill-opacity=".5" rx="2" ry="18"/><circle cx="95" cy="196" r="3" fill="#565963" fill-opacity=".5"/><path fill="#aebdd2" fill-opacity=".5" d="M139 165l-30 2 23 51z"/><ellipse cx="27" cy="150" fill="#8facd7" fill-opacity=".5" rx="33" ry="23"/><circle r="1" fill="#4f71b0" fill-opacity=".5" transform="rotate(78.8 79 107.3) scale(53.26666 40.65751)"/><circle r="1" fill="#688ac2" fill-opacity=".5" transform="matrix(-11.85244 29.63322 -39.56525 -15.82497 135.8 98)"/><path fill="#e1dbd0" fill-opacity=".5" d="M25 203h51v4H25z"/><path fill="#8f867d" fill-opacity=".5" d="M39.7 200.6l15.9-2.2.7 5-15.9 2.2z"/><path fill="#527484" fill-opacity=".5" d="M85.8 218.5l58.7 52.5-47.3-24.7-43 4.7z"/><ellipse cx="113" cy="227" fill="#284d65" fill-opacity=".5" rx="32" ry="3"/><path fill="#909ebb" fill-opacity=".5" d="M151 209l11 11-49-1z"/><ellipse cx="150" cy="197" fill="#908494" fill-opacity=".5" rx="2" ry="13"/><path fill="#dcd8d7" fill-opacity=".5" d="M149.7 182.4l13.5 39.8-2.3-.6-8-18z"/><circle r="1" fill="#87a0cb" fill-opacity=".5" transform="matrix(-25.68819 -12.59962 6.48342 -13.21843 148.6 153.6)"/><path fill="#0d080f" fill-opacity=".5" d="M51 210h8v6h-8z"/><path fill="#d6e0e2" fill-opacity=".5" d="M108.5 187.1l-28.7 8.1 50.3-6.6-35.8 16z"/><circle r="1" fill="#b9bbbd" fill-opacity=".5" transform="matrix(11.86684 6.63044 -.54353 .97278 10 214.3)"/><circle r="1" fill="#325568" fill-opacity=".5" transform="matrix(-.08459 5.23727 -36.97564 -.59718 30 255)"/><path fill="#77889c" fill-opacity=".5" d="M72 145h2v54h-2z"/><ellipse cx="143" cy="199" fill="#43898a" fill-opacity=".5" rx="3" ry="5"/><path fill="#90b8db" fill-opacity=".5" d="M95.4 223.4v1l-20.8 2.2v-1z"/><path fill="#f1efeb" fill-opacity=".5" d="M58 198l6-19 1 22z"/><circle r="1" fill="#5f83bd" fill-opacity=".5" transform="rotate(-71.3 104.5 -49.1) scale(19.20103 28.46929)"/><path fill="#a7bbd1" fill-opacity=".5" d="M101 142l14 41H91z"/><path fill="#6f8da5" fill-opacity=".5" d="M60.1 104.1l2.2 67.4 3-21.3-4.8-29.4z"/><path fill="#8fa7c9" fill-opacity=".5" d="M86 140.2l64.6 31.6-69.2-57.4-25.3 50.7z"/><path fill="#c4c1cd" fill-opacity=".5" d="M145 197l26 4 14-17z"/><circle cx="136" cy="213" r="3" fill="#243b60" fill-opacity=".5"/><path fill="#7497b6" fill-opacity=".5" d="M67.5 127.4l15.7-19.6-12.8 6.3 12.1 62.7z"/><path fill="#b0b9c7" fill-opacity=".5" d="M7.5 214L7 198.4l-5.5 13.9 65.6-47.5z"/><path fill="#d9dedf" fill-opacity=".5" d="M92 39.7l-3 20.8-1-.2 3-20.8z"/><path fill="#0d4a81" fill-opacity=".5" d="M73.4 197.9l-2 .2-.8-8 2-.2z"/><path fill="#5b7c96" fill-opacity=".5" d="M0 222h18v16H0z"/><path fill-opacity=".5" d="M115 211h4v3h-4z"/><path fill="#647d88" fill-opacity=".5" d="M108 271l-10-38 26-4z"/><path fill="#73818f" fill-opacity=".5" d="M51.5 226.5v-17.1l-9.4-26.5 5.6 25.2z"/><path fill="#7995b7" fill-opacity=".5" d="M108.3 210.4l-2.1 10.8-28.5-5.6 2.1-10.8z"/><path fill="#fefff9" fill-opacity=".5" d="M94 202h26v5H94z"/><path fill="#6287c0" fill-opacity=".5" d="M0 0h101v39H0z"/><circle cx="141" cy="209" r="2" fill="#020000" fill-opacity=".5"/><path fill="#fef5f0" fill-opacity=".5" d="M146 197h2v11h-2z"/><path fill="#71869e" fill-opacity=".5" d="M147 226h23v9h-23z"/><path fill="#a6bcd7" fill-opacity=".5" d="M54.5 165.7l3.1 12.4-72.9-9.1 55.4-10.1z"/><path fill="#576f7f" fill-opacity=".5" d="M33 208l26 12-36-6z"/><path fill="#f1f4ef" fill-opacity=".5" d="M154 201.6l8.9 11.6-10.7-5.9-3.2 9.5z"/><ellipse cx="96" cy="223" fill="#0b688c" fill-opacity=".5" rx="19" ry="1"/><path fill="#8f91a3" fill-opacity=".5" d="M37.6 205.3L25.5 163l1-.3 12 42.3z"/><path fill="#203535" fill-opacity=".5" d="M50 219h25v8H50z"/><path fill="#445e64" fill-opacity=".5" d="M19 226h53v6H19z"/><circle cx="15" cy="199" r="2" fill="#1d233c" fill-opacity=".5"/><circle r="1" fill="#374f62" fill-opacity=".5" transform="matrix(-37.14025 1.81646 -.04885 -.9988 134.3 224.7)"/><path fill="#f5f7f6" fill-opacity=".5" d="M104.7 200l.1 1-49.5 7-.1-1z"/><path fill="#ccd0d4" fill-opacity=".5" d="M88 118l12 4H85z"/><path fill="#2d798b" fill-opacity=".5" d="M96 184h25v2H96z"/><path fill="#e0e1e0" fill-opacity=".5" d="M74.6 218.3l-3.1-15.9 14 3.6-10.2-9.3z"/><path fill="#43667a" fill-opacity=".5" d="M17 229h37v21H17z"/><path fill="#918a87" fill-opacity=".5" d="M60.5 198l-1 6.9-6-.9 1-6.9z"/><path fill="#acb9cc" fill-opacity=".5" d="M108.7 188.4l10.3 2 14.9 12 33.7-31z"/><path fill="#626c7c" fill-opacity=".5" d="M89.6 197.8l-.2-3 11-.6.2 3z"/><path fill="#243033" fill-opacity=".5" d="M74.5 227.4l-5.8-6.3-23.2-6.3 1.1-3.1z"/><path fill="none" stroke="#61818c" stroke-opacity=".5" stroke-width=".5" d="M33.3 249q9-21 26.7-81.7"/><path fill="#b6c1d2" fill-opacity=".5" d="M14 221.2l15-48.7 1 .3-15 48.7z"/><circle r="1" fill="#81a0cf" fill-opacity=".5" transform="matrix(4.46402 17.65542 -35.16567 8.89133 28 131.7)"/><path fill="none" stroke="#a0a9b6" stroke-opacity=".5" stroke-width=".5" d="M75.2 225.2q-21.6-15.5-60.7-73.9"/><ellipse cx="62" cy="144" fill="#4c5f71" fill-opacity=".5" rx="1" ry="14"/></g></g></svg>