<svg xmlns="http://www.w3.org/2000/svg" viewBox="0 0 1800 1200"><defs/><filter id="a"><feGaussianBlur stdDeviation="12"/></filter><rect width="100%" height="100%" fill="#4d3c2c"/><g filter="url(#a)"><g fill-opacity=".5" transform="translate(3.5 3.5) scale(7.03125)"><circle r="1" fill="#cafaff" transform="rotate(96.5 51.6 97) scale(76.24947 254.99999)"/><circle r="1" fill="#1f0000" transform="rotate(-41.9 168.6 -101) scale(36.78718 62.00689)"/><circle r="1" fill="#bae2ff" transform="matrix(34.23251 -43.64386 91.89114 72.07576 213 63)"/><circle r="1" fill="#b7e0ff" transform="matrix(-101.13917 132.96258 -31.64907 -24.07415 27.9 35.2)"/><circle r="1" fill="#503823" transform="matrix(-15.0908 -13.16454 47.57304 -54.534 71.5 82.4)"/><path fill="#4a4a47" d="M27 95h159v75H27z"/><ellipse cx="212" cy="165" fill="#033e74" rx="255" ry="14"/><circle r="1" fill="#92785c" transform="matrix(-7.53671 -22.26398 53.1793 -18.00204 43.7 119.5)"/><ellipse cx="184" cy="6" fill="#8eb8f7" rx="236" ry="23"/><circle r="1" fill="#5e442d" transform="rotate(-132.3 109.5 20.6) scale(38.49707 15.4046)"/><circle r="1" fill="#b4cdf0" transform="matrix(-11.88032 31.05251 -52.31594 -20.01545 190 68.7)"/><path fill="#fcf6e1" d="M73.6 111.8l-2.2-1.7L89.3 91l5 15.7z"/><path fill="#8b8376" d="M155 136h101v12H155z"/><circle cx="87" cy="62" r="31" fill="#3f3932"/><circle r="1" fill="#b3ccf4" transform="matrix(22.99873 -46.19743 21.11347 10.51104 29 61.5)"/><path fill="#212120" d="M147.1 143.4L3.6 147.9l96.3 30 57.5-26.1z"/><circle r="1" fill="#b1bccb" transform="rotate(26.1 -150.3 529.9) scale(39.4417 16.34771)"/><path fill="#7f694e" d="M116 145l-23-42-61 38z"/><path fill="#25221c" d="M141 185L90 90l32 11z"/><path fill="#37312a" d="M107 40l-80 82 57-27z"/><circle r="1" fill="#2b5475" transform="matrix(-1.5199 -20.00275 86.32303 -6.55926 218.1 169)"/><path fill="#62503b" d="M110 66.3l111.7 79-63.1 5.1-61-58.2z"/><path fill="#9ebfe6" d="M136-16L70.8 41.2-4.9 68.4l-11.1-41z"/><path fill="#554943" d="M82.3 26.5l40.6 10.8 20.8 37.3-65.8-40.9z"/><path fill="#4a413a" d="M3.1 126.8l2 13.1-21.1-36.3 34.6 8.7z"/><circle r="1" fill="#a1c1e7" transform="matrix(115.55032 8.26215 -1.59616 22.32305 237.5 48)"/><circle r="1" fill="#5b4e3f" transform="rotate(-119.6 108 13.7) scale(20.72765 30.28652)"/><circle r="1" fill="#9fc3ec" transform="matrix(-20.28646 17.84176 -7.48963 -8.51587 108.6 11.6)"/><ellipse cx="66" cy="72" fill="#68523f" rx="12" ry="27"/><circle r="1" fill="#b0c5d5" transform="rotate(64.2 30.5 212.1) scale(47.4916 30.86771)"/><path fill="#1a1814" d="M89 123l-1-10 18-6z"/><circle r="1" fill="#87add4" transform="matrix(-7.64243 18.14933 -110.27694 -46.43608 253.2 22.4)"/><path fill="#adc8e1" d="M147.6 87.8l7.4-34.3L178.6 39 271 81.4z"/><path fill="#242829" d="M171.3 149.9l13.8-12.4 7.6 13.9-74 6.3z"/><path fill="#77634c" d="M132 51l-16 48 28-21z"/><ellipse cx="7" cy="166" fill="#2c4f6f" rx="56" ry="11"/><circle r="1" fill="#51443e" transform="rotate(-93 72.3 -34.3) scale(10.58095 9.74049)"/><path fill="#fffff7" d="M75 104l14-5-7 9z"/><path fill="#9eacb9" d="M215.5 124.7l23.4-30 31.6 24.6-23.4 30z"/><ellipse cx="5" cy="84" fill="#b5cbdd" rx="32" ry="24"/><path fill="#232527" d="M105.6 35.3l6 22.2-23.8-28.4-8.2 14.5z"/><path fill="#7f6850" d="M90.6 122.7l-75.2 32.2L74.5 50.7 15 117z"/><path fill="#977c60" d="M117.8 135.6l-20.3 12.3 10-14.3.9-3z"/><ellipse cx="211" cy="144" fill="#5f564a" rx="27" ry="8"/><path fill="#212323" d="M80 53h18v31H80z"/><path fill="#1a1a1b" d="M142 152l-38 8 13-31z"/><path fill="#40372f" d="M44.7 155.9l47.5 3.6 34.4-69.8 15.5 27.7z"/><path fill="#625446" d="M109 77l6-48 68 108z"/><path fill="#c0d5ec" d="M21.7 101.2l24.9-19.6 6.3-11.3.6-2.9z"/><path fill="#867052" d="M171.1 134l-25.6-4 18 21 16.3-8.2z"/><path fill="#a5c4e5" d="M179 27L94 5l53 51z"/><path fill="#50473c" d="M61 93h25v8H61z"/><path fill="#171a19" d="M37 156l12-12-40 9z"/><path fill="#b39e7e" d="M4.9 144.1l-10 3.5 15.9-5.7-26.8-6.1z"/><path fill="#345e80" d="M220.5 158.5v13h-35v-13z"/><path fill="#6e5c4c" d="M85 44l27-19-15 22z"/><path fill="#a18a6c" d="M64.6 111.1L91 106l-38 29.9 31.6-10.6z"/><path fill="#594b3b" d="M64.5 112.4L82 83.9l-39.8 28.4L80.3 124z"/><path fill="#605448" d="M-16 160.1l59.9-72.5-22.7 19.6-37.2 17.5z"/><path fill="#1d3246" d="M44 164l127 21-36-32z"/><path fill="#7c654d" d="M190.3 120.4l1 .7 27.9 28.7-26.8-9.7z"/><path fill="#a4c2e4" d="M75.5 31.8L48.7 61.5l-8.2-7.3 26.8-29.7z"/><path fill="#25231e" d="M99.1 117.2l3.3-18.5 12.7 29.4L85.7 110z"/><path fill="#5e5245" d="M147.6 85l30.2 12.8 22.5 48.8-78.6-37.3z"/><circle r="1" fill="#abbecc" transform="rotate(-51.7 227.4 -172.9) scale(27.71356 20.45734)"/><ellipse cx="150" cy="37" fill="#a5c4e2" rx="28" ry="21"/><path fill="#f1e8d2" d="M87 91h3v11h-3z"/><path fill="#443e36" d="M91 84h19v17H91z"/><path fill="#706d6a" d="M267.4 133.7l-13.3 1.2L271 151l-48.3-1.9z"/><circle r="1" fill="#b2cadd" transform="matrix(8.52373 21.10382 -18.29635 7.3898 192.1 86.5)"/><path fill="#0f1110" d="M81 150l11-1 11-12z"/><circle r="1" fill="#20384c" transform="matrix(.26 -3.26191 46.21126 3.68343 242 154.6)"/><circle r="1" fill="#9ebedf" transform="rotate(31.1 -13.9 115.7) scale(22.91346 13.44964)"/><path fill="#bfd9f6" d="M45 72h5v8h-5z"/><path fill="#232627" d="M117 74l-10-39-7 9z"/><path fill="#96b7dd" d="M-16 5l9.8 26.4L199.3 4.8 43.2-16z"/><path fill="#89715c" d="M131 87l1-24 10 9z"/><path fill="#363027" d="M89 106h4v21h-4z"/><path fill="#aec9e2" d="M136.4 52.6l26.7-11.3 14.5 34-26.7 11.4z"/><path fill="#544a3f" d="M146.7 104.4L85.9 37.1l-23 5.9L89 53.2z"/><path fill="#836c51" d="M25 128l-2 26 23-44z"/><path fill="#80684f" d="M40.2 86.9l-20.8 36 35.3-25.8 3.7-22.3z"/><ellipse cy="158" fill="#44688d" rx="27" ry="2"/><path fill="#67584b" d="M116.6 61.2l19.8-2.5-24.7-28-1.3 67.7z"/><circle r="1" fill="#b5cade" transform="rotate(-142.4 30 37.8) scale(7.03869 29.79528)"/><path fill="#7a6750" d="M40.3 104.6l3.3 34.1 25.5 12.2-12.5-19.3z"/><path fill="#252726" d="M130 56v12l-5-7z"/><path fill="#38302c" d="M81 28h7v16h-7z"/><path fill="#0b0d0c" d="M42 143h3v12h-3z"/><path fill="#52483d" d="M56.8 79.8l23.7-1 34.9-13.4-31.7 5.7z"/><path fill="#5e4f43" d="M104 26h11v10h-11z"/><circle r="1" fill="#a8c0d8" transform="matrix(-16.5933 6.53836 -11.22261 -28.48117 239.4 81)"/><path fill="#524c41" d="M27 152l-23-7 27-6z"/><path fill="#232320" d="M176.8 150.2l8 1.5.8 4.1-1.7-21.7z"/><path fill="#152d3f" d="M225 166h31v3h-31z"/><path fill="#2e2923" d="M97.7 157.8l39.5-14.3-42.7-30.8 39.6 13.7z"/><path fill="#594d3e" d="M73 85.1l3.4-18-40.7 48.1 43.6-10.5z"/><path fill="#564b3b" d="M99 142l9 11H85z"/><ellipse cx="6" cy="111" fill="#5b5f68" rx="4" ry="5"/><path fill="#48433d" d="M214 138h17v3h-17z"/></g></g></svg>