<svg xmlns="http://www.w3.org/2000/svg" viewBox="0 0 1800 1200"><defs/><filter id="a"><feGaussianBlur stdDeviation="12"/></filter><rect width="100%" height="100%" fill="#495a33"/><g filter="url(#a)"><g fill-opacity=".5" transform="translate(3.5 3.5) scale(7.03125)"><circle r="1" fill="#ccf5ff" transform="rotate(-110.4 74.4 -25.5) scale(53.31371 129.91163)"/><ellipse cx="98" cy="25" fill="#d5faff" rx="46" ry="57"/><path fill="#46577a" d="M143 8l29 155 99-140z"/><ellipse cx="190" cy="5" fill="#fcffff" rx="58" ry="9"/><path fill="#c5b69f" d="M188.2 129.3l38.1 3.6-12.8-60.5-27.9 35.2z"/><path fill="#463231" d="M-2 34.1L59.9 8 70 32 8.2 58z"/><path fill="#918565" d="M-18.6 81l58.5-7.3 10.7 87.4-58.5 7.2z"/><circle cx="107" cy="37" r="38" fill="#c4e8ff"/><path fill="#002e86" d="M162 13h37v36h-37z"/><ellipse cx="99" cy="89" fill="#697891" rx="139" ry="17"/><path fill="#fff" d="M200 31h15v17h-15z"/><ellipse cx="245" cy="125" fill="#a79b84" rx="129" ry="8"/><ellipse cx="33" cy="67" fill="#cbe1ff" rx="115" ry="7"/><path fill="#e7cbbb" d="M-16 151l29-55-10 80z"/><ellipse cx="177" cy="113" fill="#2c2521" rx="165" ry="5"/><path fill="#223120" d="M199 76l29-64 43 67z"/><ellipse cx="112" cy="143" fill="#71622c" rx="108" ry="26"/><path fill="#b9ddff" d="M64 0h80v74H64z"/><path d="M173.4 91.9v-9.6l27.2 4.5-25.5 26.4z"/><ellipse cx="139" cy="82" fill="#99d6e4" rx="100" ry="3"/><circle r="1" fill="#384d54" transform="rotate(-93.7 60 18.7) scale(5.32393 46.83758)"/><path fill="#235189" d="M144 20h49v50h-49z"/><path fill="#c8e4ff" d="M48 36h96v36H48z"/><ellipse cx="192" cy="5" fill="#d5ffff" rx="50" ry="8"/><path fill="#010100" d="M152 87h16v25h-16z"/><path fill="#ded5d7" d="M169 72h4v70h-4z"/><path fill="#a9abca" d="M216 120l50-14 5 25z"/><path fill="#fdffff" d="M135 69h41v5h-41z"/><path fill="#edd1a7" d="M206 102l2.8-18.2-26.2 25 42.6 2.7z"/><path fill="#ebf8f8" d="M241.8 41.6l-18.6 3.7-1-5 18.6-3.6z"/><path fill="#a1cbff" d="M210-15L87 35 31-16z"/><path fill="#85c3d1" d="M61 78h50v22H61z"/><path fill="#16142e" d="M262 54l9 50-60 12z"/><path fill="#b9aaa9" d="M159.8 56.7l-3.3-37.6-11.8 17.1 2.3 16.1z"/><path fill="#352125" d="M44 100h57v22H44z"/><path fill="#9eced6" d="M172.2 76.1L146.1 88l-8.6 16.2-10.9-25.5z"/><circle r="1" fill="#ffc1c7" transform="matrix(-.16403 -.98646 25.41938 -4.22674 109.2 104.3)"/><circle r="1" fill="#a1975e" transform="matrix(-2.61526 -5.93806 55.22867 -24.324 36.6 144.1)"/><path fill="#cce9ee" d="M206.3 85l-12 8.5 39.7-9.7-54-6.1z"/><path fill="#7b7266" d="M50 58L11-16l9 78z"/><path fill="#221d18" d="M23 56l-33 3-3-75z"/><path fill="#152807" d="M215 66l-36 4-9 15z"/><path fill="#2a4940" d="M201.5 21l25.6 2-2.6-17L191 47.1z"/><path fill="#010003" d="M211.4 96.3l28.3 6.5-1.1 4.9-28.3-6.5z"/><path fill="#4b4723" d="M52 185l166-62 48 62z"/><circle r="1" fill="#fff" transform="matrix(-5.15417 -2.93232 4.52333 -7.95071 206.4 41)"/><path fill="#5b7285" d="M242 2h14v16h-14z"/><path fill="#100e07" d="M174 90h14v27h-14z"/><path fill="#b3d4fc" d="M36 28l14.3 12.8 138.5-56.7L55.3 70z"/><ellipse cx="173" cy="39" fill="#003472" rx="16" ry="11"/><ellipse cx="170" cy="140" fill="#959794" rx="3" ry="94"/><circle r="1" fill="#705a3e" transform="rotate(54.2 -40.1 192) scale(32.26968 10.20099)"/><path fill="#586a28" d="M39.7 116.8L72.5 185-.7 118.5l67.8-17.9z"/><path fill="#19131b" d="M67 109l29 18 49-24z"/><path fill="#3f4f64" d="M0 74h152v3H0z"/><circle r="1" fill="#595a5a" transform="rotate(-114.9 33.8 -7.6) scale(19.94543 6.74662)"/><path fill="#ebffff" d="M59 95h23v5H59z"/><path fill="#778a9d" d="M172.6 25.1l-28.2 15.5 12.4-26.4 62.6 1.1z"/><path fill="#0d0500" d="M220 70h3v29h-3z"/><path fill="#0e1f16" d="M30.3 129.2l42.3-20.6 3 6.2-42.2 20.6z"/><path fill="#e4ffff" d="M241 15l3-23-67 4z"/><path fill="#10417b" d="M144 57h53v12h-53z"/><path fill="#939ca6" d="M201 38l-10 25-3-29z"/><path fill="#dba496" d="M92 93l41 9-25 4z"/><path fill="#f0f5fa" d="M195 118h29v3h-29z"/><path fill="#122e3b" d="M117 86h14v12h-14z"/><circle r="1" fill="#66a3b6" transform="matrix(53.7429 -7.1479 .77232 5.80685 73.4 86)"/><ellipse cx="222" cy="167" fill="#2f3019" rx="77" ry="7"/><path fill="#827e7d" d="M222 93h27v6h-27z"/><path fill="#b3c8ff" d="M-16 66.3l47.9 9.8-4.7-28.7-4.3 13z"/><path fill="#c5b1a6" d="M152.5 55.5v-7h17v7z"/><ellipse cx="145" cy="41" fill="#002e72" rx="2" ry="26"/><path fill="#dbc1a7" d="M14.2 160l-11 5-9.4-21 11-5z"/><path fill="#140d09" d="M18 78h19v6H18z"/><path fill="#7e7347" d="M54 93l12 21-53-16z"/><circle r="1" fill="#736034" transform="matrix(-10.80825 -13.68561 32.80082 -25.90453 108.8 140.7)"/><path fill="#635845" d="M61.1 25L25.3-12l26.3 61.6L56 24.4z"/><path fill="#fc96a1" d="M86.6 102.7l-.2 5-9-.4.2-5z"/><circle r="1" fill="#1d3219" transform="rotate(178.5 106 58.7) scale(29.3657 3.31141)"/><path fill="#263824" d="M201 49h48v29h-48z"/><path fill="#bca144" d="M15.6 14.2L32.4 29 11.7-16l8.4 33.6z"/><path fill="#d3ecdf" d="M212 23h4v25h-4z"/><path fill="#d8f9ff" d="M142-6l2 73-31-1z"/><path fill="#003e7e" d="M167 22h35v12h-35z"/><path fill="#d0f6ff" d="M219.9 81.3L208 78.9l.9 5 9.9 8.3z"/><path fill="#5b642b" d="M172 126h50v36h-50z"/><path fill="#3d4c36" d="M271 30l-20 39-18-57z"/><path fill="#7a8990" d="M154 54h57v5h-57z"/><path fill="#677788" d="M50 56L32 69l-7-38z"/><path fill="#f2d5ae" d="M189 96h16v10h-16z"/><ellipse cx="171" cy="13" fill="#195097" rx="29" ry="2"/><ellipse cx="16" cy="69" fill="#aec9f7" rx="99" ry="5"/><path fill="#445941" d="M225.8 44.6l40.8-11.1-63.4 29.7L225 26z"/><ellipse cx="185" cy="5" fill="#cdf2ff" rx="46" ry="8"/><path fill="#37473c" d="M250.2 2.1L247 58.9l24-2.9-30.6-52.7z"/><path fill="#ffe2b7" d="M84 119l-13 7 13-2z"/><path fill="#846a55" d="M52 93h63v2H52z"/><path fill="#c4d8db" d="M226 1l20 14-17 5z"/><path fill="#413928" d="M10.4 17.4L-16 36.9 6.2-12.3l30.7 71.8z"/><path fill="#9bc0ff" d="M90 28l29-44H30z"/></g></g></svg>