<svg xmlns="http://www.w3.org/2000/svg" viewBox="0 0 1800 1200"><defs/><filter id="a"><feGaussianBlur stdDeviation="12"/></filter><rect width="100%" height="100%" fill="#324255"/><g filter="url(#a)"><g fill-opacity=".5" transform="translate(3.5 3.5) scale(7.03125)"><circle r="1" fill="#8f816a" transform="rotate(-170.6 80.5 13) scale(103.11888 254.99999)"/><ellipse cx="137" cy="118" fill="#bbc8d4" rx="58" ry="17"/><ellipse cx="240" cy="128" fill="#090200" rx="41" ry="24"/><ellipse cx="38" cy="158" fill="#f1ebe4" rx="255" ry="4"/><circle r="1" transform="matrix(.81615 -7.05377 72.1968 8.35345 96.8 144.2)"/><circle r="1" fill="#322917" transform="matrix(-60.3624 17.27633 -14.13583 -49.38968 19.4 94.3)"/><ellipse cx="146" cy="64" fill="#181b1e" rx="49" ry="17"/><circle r="1" fill="#7d8186" transform="rotate(91 51.7 57.6) scale(33.39426 110.25529)"/><path d="M212.9 171.1L223-1.1 235.3-16l-1.5 35.6z"/><path fill="#a99379" d="M47.9 181.7l-51 3.3-12.9-37.9 67.4 6.5z"/><ellipse cx="84" cy="146" fill="#0b0d05" rx="42" ry="8"/><circle r="1" fill="#525354" transform="matrix(69.12586 38.47496 -14.79336 26.57843 41.7 29)"/><circle r="1" fill="#a6a298" transform="matrix(78.55906 -37.80792 .9031 1.8765 51.3 140.8)"/><ellipse cx="255" cy="52" fill="#928169" rx="25" ry="57"/><path fill="#a89b83" d="M201 47h16v51h-16z"/><path fill="#7f725f" d="M200 147h39v23h-39z"/><path fill="#becbd5" d="M79 104h30v9H79z"/><path d="M106 145h71v7h-71z"/><ellipse cx="146" cy="136" fill="#858d93" rx="41" ry="8"/><ellipse cx="177" cy="113" fill="#959fa5" rx="31" ry="9"/><ellipse cx="83" cy="70" fill="#1f2325" rx="94" ry="6"/><ellipse cx="215" cy="128" fill="#282b21" rx="10" ry="33"/><circle r="1" fill="#3d3733" transform="matrix(-12.88647 -7.05514 11.49877 -21.00294 178.3 72.4)"/><circle cx="87" cy="139" r="12" fill="#0a0d08"/><ellipse cx="81" cy="156" fill="#c8cdd3" rx="64" ry="3"/><path fill="#9ea0a4" d="M106 99l-4.3-3.8-9.5 7.8 5.2-46.9z"/><circle r="1" fill="#291c0a" transform="rotate(101.9 -31.3 48.4) scale(13.14495 50.99981)"/><path fill="#0b0000" d="M181 137h12v9h-12z"/><ellipse cx="128" cy="102" fill="#100502" rx="50" ry="1"/><path fill="#1f2629" d="M65.7 130.5l-3.9-9.2 18.5-7.8 3.9 9.2z"/><circle r="1" fill="#80858b" transform="matrix(-6.61226 -35.33228 35.24042 -6.59507 143 .4)"/><ellipse cx="141" cy="59" fill="#62686d" rx="42" ry="4"/><circle r="1" fill="#634e40" transform="rotate(-176.9 68.5 82.7) scale(126.67186 6.15953)"/><path fill="#c6cacc" d="M232 165l-17-4 28 24z"/><path fill="#020000" d="M109 50h55v5h-55z"/><ellipse cx="226" cy="32" fill="#000c06" rx="4" ry="34"/><path fill="#929596" d="M219.2 165.2l-27.7-30.7-41.5-28 43.6 19z"/><ellipse cx="4" cy="166" fill="#bab7af" rx="5" ry="20"/><path fill="#97a0a7" d="M138 136L68 97l30 36z"/><path fill="#b1a99e" d="M242 154h14v9h-14z"/><path fill="#a4a29e" d="M204.5 163.4l-1.3-15.1-29 1.3.5 13.3z"/><circle r="1" fill="#808387" transform="matrix(.95623 14.83144 -5.62528 .36268 136.6 84.9)"/><path fill="#90928b" d="M224.4 102l2.9-.7 10.3 44.8-2.9.6z"/><path fill="#040700" d="M9.8 148.6l6.3-3.2 4 8-6.2 3.2z"/><circle cx="140" cy="33" r="5" fill="#dadfe4"/><ellipse cx="221" cy="82" fill="#00110c" rx="3" ry="40"/><path fill="#1f1908" d="M248.4 106.3l9.7 38.8-18.5 4.6-9.7-38.8z"/><path fill="#454143" d="M104 71h25v24h-25z"/><circle cx="65" cy="24" r="35" fill="#606469"/><circle r="1" fill="#677789" transform="matrix(-4.41204 -15.00182 19.92511 -5.85998 252.9 12.5)"/><path fill="#7d8186" d="M185.3 115.4l-10 19.7 37-25.1-33.4-18.1z"/><circle r="1" fill="#7c838b" transform="matrix(-10.1436 5.00163 -8.96599 -18.18355 208.3 15)"/><ellipse cx="152" cy="158" fill="#ccd0d5" rx="47" ry="2"/><path fill="#45311a" d="M249.4 163.7l-12.8-8.9-2 30.2 36.4-26.2z"/><path fill="#1c1b15" d="M89 128l6 25 39 1z"/><path fill="#3c3f3c" d="M65.2 154.5l-29.3-.5 10-8.4 42.7-21.4z"/><path fill="#221e1b" d="M204 95h9v12h-9z"/><path fill="#8a8f96" d="M144 93l12-8-38 1z"/><ellipse cx="252" cy="84" fill="#756553" rx="27" ry="23"/><path fill="#837663" d="M246 6.1l-12.2 95.2-18.7 15.8 3.2 8.9z"/><path fill="#414643" d="M65 105l-23 48-25-47z"/><path fill="#cac6b9" d="M84.1 125.7L48.7 142l-.8-1.8L83.3 124z"/><path fill="#35393a" d="M66.6 105.1l30.1-43.6 3.9-17.1L73 60.1z"/><path fill="#11110b" d="M196.8 134.4l7.3-10.8 29.5 30.1-3.2-23.2z"/><path fill="#e8ecf0" d="M86.6 79.2l-.1-1 15-1.4v1z"/><ellipse cx="197" cy="90" fill="#282119" rx="6" ry="7"/><ellipse cx="159" cy="168" fill="#524438" rx="34" ry="8"/><path fill="#200a00" d="M158.9 92.8l-2.4 5.5-7.4-3.1 2.4-5.5z"/><path fill="#241c16" d="M181 76l-1 17 15-20z"/><path fill="#998769" d="M194 50h25v18h-25z"/><path fill="#412f2f" d="M184 109h2v30h-2z"/><circle r="1" fill="#a4a8ab" transform="rotate(-79.6 168.8 -62.5) scale(51.76921 1)"/><path fill="#5f646a" d="M143 23h62v28h-62z"/><path fill="#060701" d="M110 66h45v5h-45z"/><path fill="#73736e" d="M54 79h16v10H54z"/><path d="M161 144h13v5h-13z"/><path fill="#c0c0bc" d="M174.4 139.8l6.1 20.1-1 .3-6-20.1z"/><ellipse cx="143" cy="161" fill="#7c7c7b" rx="134" ry="2"/><circle cx="124" cy="92" r="4" fill="#190600"/><path fill="#454849" d="M0 27h48v38H0z"/><path fill="#5d5044" d="M5 181l60-8-55-16z"/><path fill="#9ca4a9" d="M90 103h63v16H90z"/><path fill="#a3a9b0" d="M85 98l-4-13 4-7z"/><path fill="#2a2e29" d="M-16 124.8l30.2 24.3L2 158.2l62.2-27.1z"/><ellipse cx="103" cy="97" fill="#8b868b" rx="17" ry="4"/><path fill="#898c8f" d="M186.6 91l-26.8 6.6-19 36.9-33 5.9z"/><path fill="#686b6f" d="M14-16l86 67 38-23z"/><path fill="#180e0a" d="M97 100l50 1v1l-50-1z"/><path fill="#6f6b56" d="M218 159.6l23.2-8.5-35.7-8 16.7-4z"/><path d="M191 154l-2.9-7.6 1-.3 2.8 7.5z"/><path fill="#b8baba" d="M20 154h53v7H20z"/><path fill="#858988" d="M97.5 111.2v1l-65-3.4v-1z"/><path fill="#29231c" d="M95 86.3L89 93l-6-5.3 6-6.7z"/><path fill="#040f0f" d="M219 111l4-20-25 39z"/><ellipse cx="65" cy="127" fill="#98968e" rx="26" ry="1"/><circle r="1" fill="#3d3030" transform="rotate(-84.1 114.6 -89) scale(51.39609 1)"/><path fill="#988564" d="M230 48h26v21h-26z"/><ellipse cx="251" cy="122" fill="#4e4d47" rx="70" ry="2"/><ellipse cx="44" cy="99" fill="#040500" rx="25" ry="2"/><path fill="#3b2524" d="M186.1 135.7l-7.5 11.1 4.3 8.3-.3-30z"/></g></g></svg>