<svg xmlns="http://www.w3.org/2000/svg" viewBox="0 0 1800 1200"><defs/><filter id="a"><feGaussianBlur stdDeviation="12"/></filter><rect width="100%" height="100%" fill="#3f6590"/><g filter="url(#a)"><g fill-opacity=".5" transform="translate(3.5 3.5) scale(7.03125)"><circle r="1" fill="#c9d0d3" transform="rotate(-6.4 403.2 -1105.9) scale(255 68.21041)"/><circle r="1" fill="#a17542" transform="rotate(88.6 43 151.2) scale(9.4684 109.98551)"/><circle r="1" fill="#e4dcce" transform="matrix(-123.3955 6.03505 -.53964 -11.03382 163.6 56)"/><ellipse cx="132" cy="165" fill="#285473" rx="255" ry="54"/><circle r="1" fill="#5984b2" transform="matrix(-1.65706 29.63871 -175.38668 -9.80564 153.5 11.5)"/><circle r="1" fill="#a59e91" transform="matrix(-52.15728 3.99842 -1.06083 -13.838 249 99.4)"/><path fill="#433a34" d="M168.9 98.2l35.5 4-68.5 12.8-13.9-14.4z"/><ellipse cy="76" fill="#9aa9b9" rx="175" ry="20"/><path fill="#748294" d="M266.1 103.6l-165.7-5.4 12.7-2.3 147.2-19.7z"/><circle r="1" fill="#778191" transform="matrix(.25834 7.25338 -76.91142 2.73934 49 104.6)"/><path fill="#7495b9" d="M0 17h149v31H0z"/><path fill="#c7a774" d="M195 104h61v6h-61z"/><path fill="#6d5943" d="M171.8 85.8l17.4 26.5-28.3 2 7.6-17.9z"/><path fill="#dfddd3" d="M151 44h105v7H151z"/><circle r="1" fill="#8fa1b0" transform="matrix(-1.39089 -9.41257 64.14007 -9.47793 198 69)"/><path fill="#7b5f3c" d="M172 111h84v3h-84z"/><path fill="#dddad3" d="M81.2 47.9l16.9 4.9-26.7 10.6L75 56z"/><path fill="#896a4a" d="M124 100l14 12H90z"/><circle r="1" fill="#6284ad" transform="matrix(-.73442 12.08677 -119.11975 -7.23794 197 7)"/><ellipse cx="23" cy="154" fill="#386188" rx="88" ry="42"/><path fill="#4e4334" d="M78 110h38v4H78z"/><path fill="#dac2a0" d="M118 106h11v4h-11z"/><path fill="#fecc8a" d="M185 96h11v4h-11z"/><ellipse cx="223" cy="92" fill="#718ba8" rx="30" ry="9"/><ellipse cx="207" cy="102" fill="#52463b" rx="12" ry="2"/><circle r="1" fill="#8c7354" transform="rotate(-128.5 150.8 -9.3) scale(5.98633 11.01451)"/><path fill="#dad6ce" d="M-11 60l7 8 20-4z"/><path fill="#4b4543" d="M168.6 100.2l-.2 7-39-1.4.2-7z"/><path fill="#e7e2d6" d="M101 57l23-6-7-6z"/><path fill="#7797b8" d="M41 8h11v58H41z"/><path fill="#2b577b" d="M148 114h108v31H148z"/><path fill="#c6a67d" d="M184 106h32v3h-32z"/><path fill="#103d5a" d="M17 159h32v3H17z"/><path fill="#e7e2d5" d="M145 53.1l4.5-7.7 9.5 5.5-4.5 7.7z"/><circle r="1" fill="#7897b4" transform="matrix(5.4282 9.83317 -9.04777 4.99464 173 35)"/><path fill="#d6a873" d="M167 86h3v14h-3z"/><path fill="#cccdc8" d="M271 43l-.1 11-48-1 .2-11z"/><ellipse cx="134" cy="30" fill="#7291b1" rx="27" ry="20"/><circle cx="97" cy="37" r="15" fill="#7694b4"/><circle r="1" fill="#7d9bbc" transform="matrix(18.53773 24.92126 -20.89736 15.54454 14.8 30)"/><path fill="#8c97a5" d="M69.3 111.3l48.3-32-8.9 29.6 2.6-2z"/><path fill="#1d4a6b" d="M191 160h32v7h-32z"/><path fill="#bec0bf" d="M200 48l64-2-43 13z"/><path fill="#8e9fae" d="M242.5 63.6l-46.1-9.9-1.1 42.9L162.4 83z"/><path fill="#5e5349" d="M113 101h27v6h-27z"/><path fill="#907d64" d="M114 110h72v2h-72z"/><path fill="#456c94" d="M97 153h62v5H97z"/><path fill="#c3c4c4" d="M83 61l-23-9v17z"/><path fill="#b1b6ba" d="M93 56h79v13H93z"/><path fill="#60564e" d="M152.1 107.2l23.2-15.1-4.6 13.6 30.2 8z"/><path fill="#8d9097" d="M0 106h80v6H0z"/><path fill="#a69474" d="M230 102h26v9h-26z"/><path fill="#4d4541" d="M133 103h70v2h-70z"/><ellipse cx="21" cy="100" fill="#748aa5" rx="89" ry="5"/><path fill="#466d91" d="M150 167h76v3h-76z"/><circle r="1" fill="#1d486b" transform="matrix(.15353 -2.45113 26.25705 1.64462 249.3 169)"/><path fill="#154361" d="M125 159h18v4h-18z"/><path fill="#1e4c6d" d="M197.2 141.7l1.3 22.5-7.1-15.3 34.5-4z"/><ellipse cx="8" cy="115" fill="#345b7b" rx="217" ry="3"/><path fill="#1e3033" d="M252 96.1l5.8-1.2.2 1-5.8 1.2z"/><path fill="#2a5579" d="M131 149l-42 5-34-22z"/><ellipse cx="35" cy="152" fill="#3f668d" rx="69" ry="5"/><path fill="#456b93" d="M87 176l-64 9-39-30z"/><path fill="#e9e6da" d="M157.6 49.8l-1.7-4.7 8.5-3 1.7 4.8z"/><ellipse cx="107" cy="81" fill="#899eb2" rx="70" ry="11"/><path fill="#a0b1c1" d="M36.8 62.7l-15.6-.4-37.2 1.6 63.9-9.6z"/><path fill="#486e93" d="M69.6 168.8l74.7-6.6.1 1-74.7 6.6z"/><path fill="#6a4b40" d="M247 100l24 2-5-7z"/><path fill="#7c9ab6" d="M137 35h87v9h-87z"/><path fill="#776046" d="M175.9 88l-1 3.8L168 90l1-3.8z"/><path fill="#7489a1" d="M217 102l54-24-73 7z"/><ellipse cx="178" cy="111" fill="#76644d" rx="39" ry="2"/><path fill="#e2dfd5" d="M76.7 54l10.7-5.5 1.9 3.6-10.7 5.4z"/><path fill="#b49f80" d="M211 104h24v8h-24z"/><ellipse cx="163" cy="139" fill="#154361" rx="8" ry="3"/><path fill="#7996b6" d="M-2 18.4L91.9 25 71.6 56.4 23.4 40.3z"/><path fill="#585855" d="M233.6 114.4l15.1-1.1.3-6.2 2 1.4z"/><path fill="#1e4b6d" d="M162.2 149l-1 5-25.4-5 1-5z"/><path fill="#7e9bb8" d="M0 43h113v7H0z"/><path fill="#ebcba1" d="M168.4 95.8l-1 .2-1.8-9.8 1-.2z"/><path fill="#4f759a" d="M157 154h30v2h-30z"/><path fill="#4b6f87" d="M25 111h46v2H25z"/><ellipse cx="119" cy="109" fill="#b89f80" rx="4" ry="3"/><circle cx="243" cy="59" r="8" fill="#98a7b4"/><path fill="#deddd4" d="M179.4 48l23.6.4-3.5-1.5-8-4.4z"/><path fill="#d4d4ce" d="M105 50h31v4h-31z"/><path fill="#d5a770" d="M109 100h4v5h-4z"/><path fill="#3b6489" d="M187.8 144.6l-31.8 8.8-22.9 11.7 2.3 6.7z"/><ellipse cx="247" cy="154" fill="#1e496b" rx="23" ry="2"/><path fill="#cfcfc9" d="M161 54l-32 5 20-12z"/><path fill="#103e5b" d="M102 168.8v-2l12 .4v2z"/><ellipse cx="78" cy="162" fill="#123f5b" rx="13" ry="1"/><path fill="#768ba3" d="M142 91h20v9h-20z"/><ellipse cx="31" cy="74" fill="#8aa2ba" rx="48" ry="9"/><path fill="#b69f81" d="M195.1 97.5l-4.4 3.4-14.9-5 19.4-.6z"/><circle r="1" fill="#41688e" transform="matrix(-1.20628 4.45036 -17.94354 -4.86364 104.4 160.7)"/><circle r="1" fill="#6b8cb2" transform="rotate(-76.9 56 -63.2) scale(13.76145 78.19729)"/><path fill="#5a534e" d="M194.2 104.7l-17.7-8.1-6.8 15.2L150 99.1z"/><path fill="#c7c7c1" d="M172 53l22-7-11 17z"/><path fill="#b4babe" d="M64 68.8l65.5-20.1 26.7 15.4-63 1.2z"/></g></g></svg>