<svg xmlns="http://www.w3.org/2000/svg" viewBox="0 0 1800 1200"><defs/><filter id="a"><feGaussianBlur stdDeviation="12"/></filter><rect width="100%" height="100%" fill="#6a523b"/><g filter="url(#a)"><g fill-opacity=".5" transform="translate(3.5 3.5) scale(7.03125)"><circle r="1" fill="#a3e2ff" transform="rotate(-110.8 73.7 -32.6) scale(75.08063 188.96711)"/><circle r="1" fill="#d2b589" transform="matrix(28.55162 -43.76803 32.52203 21.21541 168 155.4)"/><ellipse cx="243" cy="72" fill="#f5c579" rx="39" ry="27"/><circle r="1" fill="#a8bbd5" transform="matrix(-.70052 -40.13302 78.1003 -1.36325 78.9 77.5)"/><circle r="1" fill="#09161e" transform="matrix(24.92905 -12.70199 20.3349 39.9095 241.1 141.3)"/><circle cx="62" r="70" fill="#6890ca"/><path fill="#b16e2b" d="M171 51h51v38h-51z"/><ellipse cx="165" cy="7" fill="#6889b7" rx="171" ry="45"/><circle r="1" fill="#81786d" transform="matrix(1.69756 18.102 -80.87127 7.58391 15.5 125.5)"/><path fill="#000209" d="M209 114l-5-45-15-3z"/><path fill="#9eb3c6" d="M0 41h169v46H0z"/><circle r="1" fill="#406899" transform="matrix(48.56448 -7.37822 2.44477 16.0918 169.4 0)"/><circle r="1" fill="#bfa170" transform="matrix(-8.13333 14.79448 -49.60404 -27.27005 252 88.7)"/><path fill="#a58c6b" d="M111 169l112 9-24-81z"/><circle r="1" fill="#836841" transform="matrix(8.89881 13.75113 -36.85432 23.84966 135 121.6)"/><ellipse cx="227" cy="57" fill="#b7945f" rx="57" ry="9"/><ellipse cx="177" cy="89" fill="#6f0002" rx="5" ry="11"/><path fill="#504028" d="M-16 161l91 24 6-60z"/><ellipse cy="121" fill="#5b514b" rx="37" ry="9"/><path fill="#32312e" d="M188 83l44 13-3 53z"/><path fill="#879fb9" d="M271-13L72 49l110 4z"/><path fill="#c79c62" d="M188.2 100.1l7.3-48.7-26.1 5.3-.3.3z"/><path fill="#a7aca4" d="M139 99L10 95l68 28z"/><path fill="#647a95" d="M212.5 25.6l41.7-10.4 7.3 29.2-41.7 10.4z"/><path fill="#373730" d="M203.7 91l-11.8 8.2 3.5 14.4-25.2-17z"/><path fill="#c4b49b" d="M46 137.3l-27.8 3.4-.2-2 27.8-3.4z"/><circle r="1" fill="#7a97b6" transform="matrix(-12.0351 -34.06632 61.19415 -21.61895 13.8 29)"/><circle r="1" transform="matrix(3.91565 -1.86773 1.95442 4.0974 196.4 73.2)"/><circle r="1" fill="#745c3d" transform="matrix(17.97928 15.96275 -21.44755 24.15695 116 136.9)"/><path fill="#dbab6e" d="M170 65v23l11-17z"/><path fill="#946f4a" d="M140 104l34-19-1 22z"/><circle r="1" fill="#1f2221" transform="matrix(6.9471 30.33262 -9.21 2.10937 229.2 167.2)"/><circle r="1" fill="#a5b6c2" transform="matrix(50.78435 -11.81008 3.64792 15.68635 70.6 71)"/><path fill="#9b7a55" d="M198 84l-10-16-8 42z"/><path fill="#adb2a1" d="M194 99h7v8h-7z"/><path fill="#b59565" d="M205 49h51v39h-51z"/><circle r="1" fill="#9fa5aa" transform="rotate(109.8 122 88) scale(12.71833 38.28344)"/><circle r="1" fill="#6386ac" transform="matrix(1.81238 -16.18066 38.18586 4.27717 114.6 12.8)"/><path fill="#9c7037" d="M227.4 53.5l-.5-2 31.7-9 .5 2z"/><ellipse cx="35" cy="102" fill="#c8b9a8" rx="43" ry="3"/><path fill="#977c63" d="M23 123h24v14H23z"/><path fill="#b10014" d="M171 85h12v7h-12z"/><path fill="#957d5f" d="M199 97l24 88-37-26z"/><path fill="#777e84" d="M23.5 102.6l-38.6 8.8 94.3 14.4 12.1-8z"/><path fill="#443c33" d="M271 111.6l-79.3-19.1 51.5 41.6 17.8 8.2z"/><path fill="#9d8f78" d="M-8 157l21-11-22-1z"/><circle r="1" fill="#ac906c" transform="matrix(20.8244 -39.33046 14.42126 7.63566 162.4 144.8)"/><path fill="#93a9bc" d="M205.4 47.3l-38.6-11.4-18.4 22.3 55-8.1z"/><circle r="1" fill="#8ca0b7" transform="matrix(-.148 -7.40222 43.49947 -.86977 15.4 13.4)"/><path fill="#131818" d="M199 99.5l-8.8-2.4 2.9-10.6 8.7 2.4z"/><path fill="#95a9b8" d="M171 46l-2 42-50 18z"/><circle cx="199" cy="75" r="5" fill="#040100"/><circle r="1" fill="#91a9c0" transform="matrix(-1.5529 -14.30726 38.07912 -4.13306 22 60.8)"/><ellipse cx="29" cy="32" fill="#668bb4" rx="30" ry="12"/><path fill="#785e3d" d="M163 113.3l-14.5-16.5-107.7 43.7 100.3-6.1z"/><path fill="#373533" d="M193 105l3 10-13-14z"/><path fill="#937a59" d="M115.8 179.6l-10.4 5.4 17-32.4 40.8-35.4z"/><path fill="#6f8ba9" d="M226.7 11.5L239 45.3l-19.7 7.2L207 18.7z"/><path fill="#4e6d90" d="M143-1l64-15 6 23z"/><circle r="1" fill="#333120" transform="matrix(-.16666 -5.59604 4.6446 -.13832 177.3 99.6)"/><path fill="#353533" d="M213 89l-10 19 9 29z"/><circle cx="4" cy="145" r="4" fill="#443836"/><path fill="#ae987c" d="M11.9 123.9l.2-6 6 .2-.2 6z"/><circle r="1" fill="#bc9b6b" transform="matrix(11.42685 -10.72458 19.92002 21.22444 248.6 82.3)"/><path fill="#789abb" d="M142 55l15-33-88 18z"/><path fill="#ab977c" d="M28.8 145.8v-1.3l13.8-10.4-16.5 2.5z"/><path fill="#655137" d="M42 134h62v32H42z"/><path fill="#6181a7" d="M-16-2.5l40 8.4 7.2 2.2L68.7-1z"/><ellipse cy="135" fill="#3d3732" rx="20" ry="2"/><path fill="#9e8565" d="M165.9 109.4l25.5 67.3 35.1-.3-52.1-75.1z"/><path fill="#434b50" d="M-16 120.4l32.7-2.6-.1 1.5-32.6 9.8z"/><circle r="1" fill="#715c43" transform="matrix(3.44918 -2.52482 3.8581 5.27058 194.5 82.5)"/><path fill="#7e694f" d="M212.4 125.8l-2.2 32.4-14.9-9.4 1.9 5.8z"/><circle cx="196" cy="72" r="6" fill="#2c1c0d"/><path fill="#bb945c" d="M172 78l27-28 18 5z"/><path fill="#9aa9af" d="M-1 98l-15-26 96 27z"/><ellipse cx="11" cy="131" fill="#978773" rx="31" ry="2"/><path fill="#dacfbd" d="M45 101h22v4H45z"/><path fill="#b9925d" d="M183 53h8v39h-8z"/><circle r="1" fill="#9f845d" transform="matrix(.79214 -2.16486 26.98727 9.87492 233.8 96.2)"/><path fill="#614b31" d="M114.5 140.4l25.2-17.3L93.9 185l20.9-22.9z"/><path fill="#261c19" d="M182 90l-8 8 11-3z"/><circle r="1" fill="#20201b" transform="rotate(147.5 96 119.7) scale(3.06269 45.06762)"/><path fill="#51402c" d="M3.3 155l2.2 30 37.3-10.9.9-27.7z"/><path fill="#a58961" d="M5 153l-.4-1L153 95l.4 1z"/><path fill="#94876e" d="M189.9 100.6l17.6 24.6-8.6-23.5 2.9-2.1z"/><path fill="#55544a" d="M35 122h44v2H35z"/><path fill="#626c75" d="M24.6 112.6l18.4 8.9-49.3-3.1-9.7-14.8z"/><path fill="#ae8e60" d="M256 69l1-25-52 12z"/><path fill="#32312b" d="M204.8 112.6l11.4 43 23.7 26.8-40.4-108.8z"/><path fill="#765637" d="M169 88h6v12h-6z"/><path fill="#920013" d="M181.3 81.2l1.3 10.9-6 .7-1.2-10.9z"/><path fill="#7d5b3f" d="M19 124l17 1-17 9z"/><path fill="#b08d5b" d="M226.2 81.1l41 14.5-56.2-5.4-12.5-31.9z"/><path fill="#4a3b2c" d="M21.2 130.5l-14.8-2 .4-3 14.8 2z"/><path fill="#92a7b3" d="M95.7 90.7l69.2-16 3.4 14.6-69.2 16z"/><circle r="1" fill="#7c8da2" transform="matrix(-28.57278 -4.55976 .86323 -5.40927 222.1 13.3)"/><path fill="#91999c" d="M45.4 116.6l45-1.1-59.8-13.6-11.3-.8z"/><path fill="#c5a570" d="M174 79l12-12-15-9z"/><path fill="#3a3637" d="M187.8 89l1.4 5.8-1 .2-1.4-5.8z"/></g></g></svg>