<svg xmlns="http://www.w3.org/2000/svg" viewBox="0 0 1800 1200"><defs/><filter id="a"><feGaussianBlur stdDeviation="12"/></filter><rect width="100%" height="100%" fill="#313c50"/><g filter="url(#a)"><g fill-opacity=".5" transform="translate(3.5 3.5) scale(7.03125)"><circle r="1" fill="#d4e6e0" transform="matrix(-149.82422 -139.88906 94.47973 -101.18983 101.3 83.3)"/><ellipse cx="139" cy="47" fill="#160000" rx="24" ry="55"/><circle r="1" fill="#e1d6ca" transform="matrix(-10.80768 43.34724 -171.74051 -42.81972 100.4 164.4)"/><path fill="#003662" d="M19 21h60v64H19z"/><circle cx="186" cy="30" r="29" fill="#32b1ff"/><path fill="#664f2f" d="M216 0h40v56h-40z"/><circle r="1" fill="#e9d1ba" transform="matrix(-51.77066 -29.93728 9.53327 -16.48592 224.3 106.8)"/><circle r="1" fill="#03101c" transform="matrix(15.39592 -19.2178 22.50222 18.02717 142.2 69)"/><circle r="1" fill="#040000" transform="matrix(6.61797 22.13312 -6.7182 2.00879 195 126.5)"/><circle r="1" fill="#169cef" transform="matrix(-11.53138 29.72968 -15.36708 -5.9605 99 41.2)"/><circle r="1" fill="#fff" transform="rotate(-113.3 5.3 6.5) scale(16.02726 30.78566)"/><path fill="#00294b" d="M124 67l4 61-22-15z"/><path fill="#d2af8e" d="M74.5 7.7l92.2 19.5-28.2 13.6L102.3-16z"/><circle r="1" fill="#b3bfc9" transform="matrix(-27.24542 -8.64276 5.6324 -17.75559 149.7 111.8)"/><path fill="#000300" d="M72 0h6v70h-6z"/><circle cx="138" cy="4" r="22" fill="#86351e"/><path fill="#894f00" d="M212.8 61.6l-3.7 26.7-14-2 3.8-26.6z"/><circle r="1" fill="#b4ada3" transform="matrix(-26.90075 54.94407 -24.35085 -11.92224 240.2 95.9)"/><path fill="#fffcea" d="M6 45h10v37H6z"/><path fill="#b8e1f9" d="M205 0h10v57h-10z"/><path fill="#086a97" d="M70.3 61.4l-48.5 6.8-6.1-43.6 48.5-6.8z"/><circle r="1" fill="#35312c" transform="matrix(19.26195 -13.73941 7.48346 10.49142 236.7 36.5)"/><circle r="1" fill="#75634c" transform="rotate(-112.6 53.1 23.5) scale(13.61587 29.01813)"/><path fill="#161a22" d="M174 93l-22-53-16 47z"/><ellipse cx="171" cy="39" fill="#459acc" rx="13" ry="35"/><ellipse cx="236" cy="2" fill="#8f8774" rx="16" ry="20"/><circle r="1" fill="#6caed6" transform="rotate(-34.5 176.4 -105) scale(27.20142 12.57487)"/><path fill="#fdfdff" d="M205.8 103.4L180.2 95l4-12.4 25.6 8.4z"/><ellipse cy="65" fill="#006299" rx="6" ry="31"/><path fill="#1c80ba" d="M163 3h43v27h-43z"/><circle r="1" fill="#bbbab5" transform="matrix(-47.32169 -8.32448 5.9909 -34.05614 73.1 132.8)"/><ellipse cx="222" cy="163" fill="#a39b93" rx="96" ry="19"/><path fill="#4594bf" d="M17 19h16v65H17z"/><path fill="#cadef7" d="M135 26l18 3-16 12z"/><circle r="1" fill="#a7cae1" transform="rotate(-43.9 154 -225) scale(20.98452 9.91191)"/><path fill="#3a91c8" d="M89 12h26v63H89z"/><path fill="#9d382b" d="M151 2.3l10 .5-2 35-10-.6z"/><circle r="1" fill="#234b5c" transform="rotate(-96.1 47.6 -2.5) scale(36.91456 10.94323)"/><path fill="#a69e96" d="M170.8 94.6l-13.3-64.5 35.9 113.4-56.2 15.7z"/><path fill="#c3d9d5" d="M79 10h6v53h-6z"/><path fill="#075c88" d="M118 98h10v31h-10z"/><path fill="#2b1f1b" d="M194.8 139.4l6.4 4.2 2.9-30.3-23-9.2z"/><path fill="#915043" d="M142.8 15.8l-27 26.8 3.3-11.8-.1-40z"/><path fill="#abaaa6" d="M209 68h47v95h-47z"/><path fill="#6d6a61" d="M247.7 93.8l23.3-9.4-55.3-8 36 17.2z"/><path fill="#bed3e9" d="M129 94h9v63h-9z"/><ellipse cx="162" cy="9" fill="#b8d7e8" rx="2" ry="52"/><path fill="#04070b" d="M158 0l-47-16 11 20z"/><path fill="#4e4c43" d="M227.8 95.6l-1.5 4.7-18.1-5.9 1.5-4.7z"/><path fill="#242227" d="M158.2 35l-37.3 53.5L115 78l4.6-35.2z"/><path fill="#325c74" d="M18.8 97.1L1.9 90.5l1.6-6.8 29 1.9z"/><circle r="1" fill="#c2c3c0" transform="matrix(-2.12057 23.30116 -84.85932 -7.7228 43 154.4)"/><path fill="#52482c" d="M232.7 161.8l38.3 11.5-15-3.4-19.1 8.1z"/><circle r="1" fill="#a2a29e" transform="matrix(64.97374 6.5791 -1.33982 13.2318 46.3 109.6)"/><path fill="#c5c0be" d="M198.1 118.2l-7.7-80.1-8 69.9L271 89.7z"/><path fill="#2a1c2a" d="M207 60l1 17-15-15z"/><path fill="#a2c4d0" d="M114 0h4v47h-4z"/><circle r="1" fill="#e3c28a" transform="rotate(176.3 96 3.1) scale(32.07641 2.78072)"/><path fill="#596c7f" d="M140 91h4v69h-4z"/><path fill="#9ba3a6" d="M122.4 92.8l-13.5-17.9-32.3 2.6-37.4.3z"/><path fill="#c6af82" d="M78.1 3.5l1.3 19.9L144.2-14 11.4 4.9z"/><circle r="1" fill="#aec4db" transform="matrix(-5.75532 -.65574 2.69914 -23.69008 148.8 127.2)"/><path fill="#000002" d="M194 106h4v6h-4z"/><path fill="#edede7" d="M-15.8 25.9l-4-28.8 35.6-5 4 28.8z"/><path fill="#1d212a" d="M122.7 90.9l-1.6-7.8-11.1 27.5 9.3.3z"/><ellipse cx="93" cy="89" fill="#6daed6" rx="25" ry="8"/><path fill="#d2aa6f" d="M195.4 67.6h-32.6l41.5 22.3 2.3-7.4z"/><path fill="#fffdf2" d="M66 0h4v15h-4z"/><path fill="#2b2a30" d="M159.4 51.1l-5.6 28 16.7 20.5.7-11.7z"/><path fill="#2d4852" d="M3 47l-6-5 20-21z"/><path fill="#1b3540" d="M70 0h9v46h-9z"/><path fill="#726a5f" d="M256.5 58.1l13.9-41.5-52.2 48.5 16.7-6.8z"/><path fill="#5aa9dc" d="M165 47h26v19h-26z"/><path fill="#889eb0" d="M124.4 90.5l1.7-18-4.4 26.4 19.2-4z"/><circle r="1" fill="#7f7564" transform="matrix(-.31505 3.21133 -24.47417 -2.40106 243.5 68.2)"/><path fill="#777772" d="M161.5 129.8l18.9 8-29.5 5.9 6.3-15.6z"/><path fill="#5d5246" d="M77.2 54.3L17.6 95.8l3.5-9.8L78 78.4z"/><path fill="#f6fafa" d="M190.5 79.5l14.6 17.8-34.3-11.5 12 2.6z"/><path fill="#c7c2b8" d="M213.2 66.2l56.5 10.9-61.1-2.2 1.1-12.5z"/><circle r="1" fill="#bec0c0" transform="matrix(2.77863 12.32974 -40.5483 9.13795 255 120.8)"/><path fill="#815044" d="M119 3h38v23h-38z"/><path fill="#a5bec8" d="M14.9 33.3L40.5-16l-32 55 10.7 27.6z"/><path fill="#c2c1bb" d="M131 175l72-25-19-12z"/><circle r="1" fill="#222120" transform="matrix(-2.01634 -2.78547 8.56686 -6.20137 225.4 46.7)"/><path fill="#1d2432" d="M145 158l-7.3-3.3 1.3-2.7 7.3 3.3z"/><path fill="#89847d" d="M66 18l-33 3-23-37z"/><path fill="#f2ac10" d="M205.8 88.3l-12-5 2.4-5.6 12 5z"/><path fill="#3083b6" d="M87 14l18 21 16-27z"/><path fill="#1b6790" d="M52.3 71.2l1.1-51.7-33.9 44.1 2.1 16.3z"/><path fill="#ac5845" d="M127.2 82.3l-2 .2-2.4-22.8 2-.2z"/><path fill="#4e96c3" d="M78 47h38v27H78z"/><path fill="#4e6c7e" d="M74.7 101.4l14.2-7.2 59.6 4.9-47.5.7z"/><circle cx="176" cy="73" r="11" fill="#969695"/><path fill="#6fb3e3" d="M19.8 22.6l-7-.5-22.9.2L1.2 33.5z"/><path fill="#c3b9c0" d="M174 82l47 27-38-5z"/><path fill="#bdbeb6" d="M19 0h11v21H19z"/><path fill="#989694" d="M163.7 185l104-36.5-64.4-9.2-3.4 18z"/><path fill="#044d72" d="M38 60.4l24.5.6L65 41.7l2.8-26.1z"/><path fill="#adb6c0" d="M137.3 45.6l-4.5-21.1 16.8 4.3-.6-5z"/><path fill="#bbae9d" d="M160 96h21v32h-21z"/></g></g></svg>