<svg xmlns="http://www.w3.org/2000/svg" viewBox="0 0 1800 1200"><defs/><filter id="prefix__a"><feGaussianBlur stdDeviation="12"/></filter><rect width="100%" height="100%" fill="#304165"/><g filter="url(#prefix__a)"><g transform="translate(3.5 3.5) scale(7.03125)"><circle cx="158" cy="169" r="122" fill="#f5f3de" fill-opacity=".5"/><circle r="1" fill="#304459" fill-opacity=".5" transform="rotate(-95 146.6 .7) scale(117.65111 34.50591)"/><circle r="1" fill="#f9f8f3" fill-opacity=".5" transform="rotate(129.9 97.3 113) scale(25.46953 60.96035)"/><circle r="1" fill="#f0eddc" fill-opacity=".5" transform="matrix(26.64937 -51.3753 15.11533 7.84061 99.4 86.2)"/><circle r="1" fill="#fff" fill-opacity=".5" transform="matrix(-2.59644 -13.59156 21.65098 -4.13606 1 85.5)"/><path fill="#eae9df" fill-opacity=".5" d="M126.6 65l-12.3 140.5-28.9-2.5L97.7 62.5z"/><path fill="#08213c" fill-opacity=".5" d="M266 75L159 50l95-66z"/><circle r="1" fill="#102949" fill-opacity=".5" transform="matrix(9.00532 -1.2496 8.77374 63.22891 140.1 139.2)"/><circle r="1" fill="#b9bbb9" fill-opacity=".5" transform="matrix(49.997 -45.38237 9.45091 10.41192 69 124.4)"/><circle r="1" fill="#565f5d" fill-opacity=".5" transform="matrix(-13.02286 -13.70522 72.23614 -68.63963 51.2 84.4)"/><circle r="1" fill="#bcbfc1" fill-opacity=".5" transform="matrix(11.66114 58.15361 -5.3588 1.07456 150.2 119.3)"/><circle r="1" fill="#42546d" fill-opacity=".5" transform="matrix(6.28883 -4.30527 35.94504 52.50597 225 145.2)"/><circle r="1" fill="#d5dade" fill-opacity=".5" transform="rotate(-27.3 393 -351.4) scale(6.98499 51.04318)"/><path fill="#dbdee2" fill-opacity=".5" d="M261.6 181.2l-37.9-54 14.7-10.4 37.9 54z"/><path fill="#bbc0bf" fill-opacity=".5" d="M147 49.8l11.8.4 89.6 30.3-40.3 23.9z"/><path fill="#bec6cf" fill-opacity=".5" d="M3 78l30-11-49 56z"/><path fill="#eae9de" fill-opacity=".5" d="M111 51l17-24-8 72z"/><circle r="1" fill="#d7d7d3" fill-opacity=".5" transform="matrix(15.9043 -30.8505 8.849 4.5619 71.7 110.8)"/><path fill="#51595f" fill-opacity=".5" d="M15 185L82 64l-94 91z"/><path fill="#8b9094" fill-opacity=".5" d="M101 87l-39 57 38-14z"/><circle r="1" fill="#243a56" fill-opacity=".5" transform="rotate(127.2 89.3 57.1) scale(36.53799 43.57441)"/><path fill="#3b485d" fill-opacity=".5" d="M118.8 167.6l1.1-17.3 3.9-45.5 40 80.2z"/><circle r="1" fill="#4b5e7c" fill-opacity=".5" transform="matrix(-12.93657 -12.9638 8.05702 -8.0401 199.4 28.3)"/><path fill="#4f5a64" fill-opacity=".5" d="M127 19h19v51h-19z"/><ellipse cx="35" cy="23" fill="#3f546e" fill-opacity=".5" rx="52" ry="60"/><path fill="#edece3" fill-opacity=".5" d="M109 95h11v63h-11z"/><path fill="#435268" fill-opacity=".5" d="M192.2 135.5l2.7 34.8 9.4 14.7-9.3-47.9z"/><circle r="1" fill="#acb5bb" fill-opacity=".5" transform="rotate(146.7 76.3 77.6) scale(3.97236 24.20695)"/><path fill="#c9ccce" fill-opacity=".5" d="M269.6 96.8l-8.1 88.2-64-95.6L240 75.7z"/><circle r="1" fill="#b8b9b7" fill-opacity=".5" transform="matrix(19.28082 -24.2021 10.40677 8.29065 93.9 145)"/><circle r="1" fill="#cfd4da" fill-opacity=".5" transform="rotate(-21.7 545.2 -458) scale(3.39662 25.68768)"/><ellipse cx="126" cy="136" fill="#7e807d" fill-opacity=".5" rx="3" ry="73"/><circle r="1" fill="#1f395d" fill-opacity=".5" transform="matrix(12.80759 -.85068 2.43066 36.59528 140 164)"/><path fill="#8a96ad" fill-opacity=".5" d="M30 74l-2 13-44-22z"/><circle r="1" fill="#102643" fill-opacity=".5" transform="matrix(-16.6185 27.76205 -63.06765 -37.75262 255 13.1)"/><ellipse cx="39" cy="159" fill="#8d9298" fill-opacity=".5" rx="10" ry="28"/><circle r="1" fill="#353e47" fill-opacity=".5" transform="rotate(118 -35 63.8) scale(25.64461 17.21539)"/><circle r="1" fill="#1a3250" fill-opacity=".5" transform="matrix(-10.62689 -41.18757 12.95733 -3.34315 149.6 9.3)"/><path fill="#1e3455" fill-opacity=".5" d="M186 30l-33 13 98 32z"/><path fill="#506478" fill-opacity=".5" d="M175 74l16 29 8-6z"/><circle r="1" fill="#b2b6b7" fill-opacity=".5" transform="matrix(2.97163 -.566 11.02185 57.86715 149.9 124)"/><path fill="#cdcfcc" fill-opacity=".5" d="M31.3 185l83.4-145.1 14.2-8.1-2.1 22.3z"/><path fill="#465d80" fill-opacity=".5" d="M83.6 40l36.9-27.3L119-16l18.2 44z"/><ellipse cx="39" cy="102" fill="#454f5c" fill-opacity=".5" rx="18" ry="26"/><path fill="#a4a8a7" fill-opacity=".5" d="M112.4 61.7L125 31.2 97.3 61.1l-42.6 49.5z"/><path fill="#6c737b" fill-opacity=".5" d="M12.8 185l3.9-40.8 25.2 16.7 32.2 2.4z"/><path fill="#36465a" fill-opacity=".5" d="M136.1 66.2l2.9 18.6 5.4 26.9L126.3 45z"/><path fill="#d2d5d8" fill-opacity=".5" d="M9 97L6 81l-22 31z"/><path fill="#717c87" fill-opacity=".5" d="M115.1 131.8l45.3-37.6 4.4 78.4-13.3-65.5z"/><path fill="#3e454c" fill-opacity=".5" d="M128.9 34.7L126 64.6l28.5-33.2-16.1 19.2z"/><path fill="#4d5863" fill-opacity=".5" d="M40.2 120.8l54.2-56.2 14.2-21.5-64.3 26.5z"/><path fill="#8b8f94" fill-opacity=".5" d="M72 126l-20 39 48-46z"/><path fill="#bfc4c9" fill-opacity=".5" d="M194 139l8-21 18 37z"/><path fill="#dfded6" fill-opacity=".5" d="M113.7 185l-12.1-38.6 4.7-7.1 16.1-10.2z"/><path fill="#c5c8c6" fill-opacity=".5" d="M65.1 121.6l46.4-.8 11.7-60.5-38.4 56.6z"/><path fill="#899298" fill-opacity=".5" d="M178 96.3L155.5 70l52.2-9.3-52.2-6.6z"/><path fill="#c8cacc" fill-opacity=".5" d="M206.7 107.7l44 52.7L271 97.5 233 71z"/><path fill="#e8e7e0" fill-opacity=".5" d="M120.6 122.6l-12.5-22.1 15.7-12.7-.2-2.8z"/><path fill="#586378" fill-opacity=".5" d="M210 123l42 50-19 1z"/><path fill="#b0b7bb" fill-opacity=".5" d="M217 65l-11 38-36-35z"/><circle r="1" fill="#546373" fill-opacity=".5" transform="matrix(6.91774 -1.12362 4.35111 26.78838 160.7 99)"/><path fill="#56595a" fill-opacity=".5" d="M93 123h45v1H93z"/><path fill="#1d2c36" fill-opacity=".5" d="M129.8 39.4l11.4 65-1 .2-11.4-65z"/><path fill="#a3a7ac" fill-opacity=".5" d="M55.8 115.8l-6.7 51.7-7.6-1.9-5-24.6z"/><path fill="#172d4c" fill-opacity=".5" d="M264.7 94.3l-25-21.3L205-16l66 53.8z"/><path fill="#7c8080" fill-opacity=".5" d="M153.6 85.8l-22.3-22.6 5.1-11.8 4.3 9.5z"/><path fill="#b8bfca" fill-opacity=".5" d="M-5 80L6 98l23-18z"/><path fill="#4d6285" fill-opacity=".5" d="M139 43l8-13-26-22z"/><circle r="1" fill="#3f4347" fill-opacity=".5" transform="matrix(-20.39127 19.14868 -3.20036 -3.40804 3.6 109)"/><path fill="#aeb1b2" fill-opacity=".5" d="M73.9 133.2l48.5-3.1-20.8 5.7-14.3 45.5z"/><path fill="#d6c7ae" fill-opacity=".5" d="M122 151h1v19h-1z"/><ellipse cx="128" cy="95" fill="#6b7276" fill-opacity=".5" rx="2" ry="37"/><circle r="1" fill="#d5d6d3" fill-opacity=".5" transform="rotate(-146.8 59 36.5) scale(3.35918 75.67647)"/><circle r="1" fill="#414b5a" fill-opacity=".5" transform="matrix(9.31113 18.48412 -28.91821 14.56716 10.2 133.7)"/><ellipse cx="120" cy="169" fill="#1f2a3b" fill-opacity=".5" rx="1" ry="18"/><path fill="none" stroke="#989790" stroke-opacity=".5" stroke-width=".5" d="M142.7 110q-24.8 17.7-24.2 49.4"/><path fill="#1b335e" fill-opacity=".5" d="M131.6 167l-5 16.6 1.7-30.9 2-20.8z"/><path fill="#babcb6" fill-opacity=".5" d="M239 74l-32-13-19 12z"/><path fill="#8d8c86" fill-opacity=".5" d="M104.9 124L69 121l.1-1 35.9 3z"/><path fill="#354651" fill-opacity=".5" d="M143 112l-14 17 21 12z"/><circle r="1" fill="#2d4361" fill-opacity=".5" transform="rotate(128.8 44.3 27.5) scale(30.83997 18.13517)"/><path fill="#676457" fill-opacity=".5" d="M151 102l-6 10 2-10z"/><circle r="1" fill="#485566" fill-opacity=".5" transform="matrix(-19.96254 19.5817 -8.13565 -8.29388 36.4 121)"/><path fill="#b6bdc3" fill-opacity=".5" d="M271 159.2l-73.3-66.4.9 4.5 27.9 32.4z"/><circle r="1" fill="#a4acb3" fill-opacity=".5" transform="matrix(19.55717 23.72474 -1.2696 1.04657 182.7 97.3)"/><path fill="#31435e" fill-opacity=".5" d="M111 7l4 27 14-6z"/><path fill="#5f6e85" fill-opacity=".5" d="M104.4 35.5l4-22.6 8.5 27.6 6.1-6.8z"/><path fill="#5d697c" fill-opacity=".5" d="M206.2 185l-10.9-42.7-9.9-31.7-22.2 49.9z"/><circle r="1" fill="#1e3451" fill-opacity=".5" transform="matrix(2.06079 18.92496 -28.50831 3.10434 158.2 0)"/><path fill="#253a59" fill-opacity=".5" d="M133.9 32.9l75.4 29.9 19.9 6.7-11.1-27.9z"/><path fill="#858b93" fill-opacity=".5" d="M70 185l6-60-39 57z"/><path fill="#a49781" fill-opacity=".5" d="M199 171.1l-1 .5L153 87l1-.5z"/><path fill="#4f5c68" fill-opacity=".5" d="M145.4 71.8l-9.6-22.1 18.6 18.7 27.7 44.1z"/><path fill="#939b9f" fill-opacity=".5" d="M184.9 55.3l3.4 26.1-6.2-2.6L150 50.4z"/><path fill="#485262" fill-opacity=".5" d="M25 129h3v41h-3z"/><path fill="#334769" fill-opacity=".5" d="M76.3 50L20.2 82.2 30.5 73-16 9.3z"/><path fill="#c1c4c5" fill-opacity=".5" d="M142 96l19 81.8-1 .2-19-81.8z"/><circle r="1" fill="#485666" fill-opacity=".5" transform="rotate(132.5 17.5 55.3) scale(22.232 8.16115)"/><path fill="#4c5e7d" fill-opacity=".5" d="M188 20h15v12h-15z"/><path fill="#546686" fill-opacity=".5" d="M6 75.1l6-2.5 14.3 4.2-30.5-15.9z"/></g></g></svg>