<svg xmlns="http://www.w3.org/2000/svg" viewBox="0 0 1200 1800"><defs/><filter id="a"><feGaussianBlur stdDeviation="12"/></filter><rect width="100%" height="100%" fill="#492930"/><g filter="url(#a)"><g fill-opacity=".5" transform="translate(3.5 3.5) scale(7.03125)"><circle r="1" fill="#e5ffff" transform="matrix(-139.50305 -95.39338 51.67192 -75.5649 117.4 75.8)"/><circle r="1" fill="#6f9089" transform="matrix(-154.7862 -66.88407 31.86072 -73.73354 53.2 194.3)"/><circle r="1" fill="#d8dbd3" transform="rotate(-89 103.2 -14.8) scale(30.56681 91.41083)"/><ellipse cx="144" cy="170" fill="#412f24" rx="8" ry="138"/><circle r="1" fill="#9ee1ff" transform="matrix(12.96915 26.31987 -45.17842 22.26172 132.8 5.6)"/><path fill="#856334" d="M108 43L6 75-6-6z"/><circle r="1" fill="#283c27" transform="rotate(7.7 -122.4 574.4) scale(11.485 27.30495)"/><path fill="#a81f29" d="M124.5 65.5L117 42.7l68.4-22.2 7.4 22.8z"/><circle r="1" fill="#ffffbf" transform="rotate(177 78.6 47.4) scale(13.47048 36.67324)"/><circle cx="16" cy="174" r="35" fill="#92917f"/><ellipse cx="59" cy="187" fill="#1e1805" rx="11" ry="31"/><circle r="1" fill="#36270f" transform="matrix(-11.5615 6.16467 -17.74551 -33.2807 145.6 197.5)"/><path fill="#25000f" d="M29.8 85.6l-.6 35-9-.2.6-35z"/><circle cx="47" r="20" fill="#7eceff"/><circle r="1" fill="#99bbd0" transform="matrix(-50.15384 -9.7533 3.8 -19.5405 81.7 118.7)"/><ellipse cx="102" cy="214" fill="#6a747d" rx="30" ry="48"/><circle r="1" fill="#d98a00" transform="matrix(.9531 4.48115 -15.27 3.2478 61.6 173.3)"/><ellipse cx="169" cy="145" fill="#d5bf93" rx="15" ry="47"/><path fill="#caae84" d="M10.7-4.6L5.4 34.5-16 54.1l41.1 8z"/><path fill="#9cbffa" d="M105 46L79-16l106 31z"/><path fill="#ffebc4" d="M147 56h23v51h-23z"/><ellipse cx="118" cy="149" fill="#6a9fc2" rx="17" ry="27"/><circle r="1" fill="#858a9e" transform="matrix(6.78018 9.903 -42.6982 29.23372 154.6 255)"/><path fill="#fffffc" d="M0 42h4v36H0z"/><path fill="#525a56" d="M104.9 138.7L88 198.8l31.7-28-87.2-5z"/><path fill="#1c1308" d="M152 212h18v21h-18z"/><circle r="1" fill="#cc8300" transform="rotate(93.1 -21.5 185) scale(9.58452 3.1229)"/><path fill="#cbc8b4" d="M-11.3 101.6l46.8-36.5-18.1 31.4 13.8-7.1z"/><ellipse cx="147" cy="158" fill="#261209" rx="7" ry="8"/><path fill="#5a554b" d="M15 149L4 90l67 61z"/><circle r="1" fill="#cbcbcc" transform="rotate(176.6 35.7 47.6) scale(30.14973 22.59467)"/><path fill="#776b5f" d="M71 20l46 27-96 23z"/><path fill="#424244" d="M43.2 230.6l56-18.3 5.6 17.1-56 18.3z"/><path fill="#976619" d="M149.2 183.8L137 211.2l14.8 10.6-15.6-43z"/><ellipse cx="161" cy="42" fill="#a1404a" rx="22" ry="15"/><path fill="#a2abb8" d="M111 59h29v63h-29z"/><path fill="#a0b9b1" d="M32.8 165.3l-4.5 5.3-45.1-37.9 4.5-5.3z"/><circle r="1" fill="#8f877b" transform="matrix(.07996 -9.9993 28.44913 .2275 102 200)"/><path fill="#000c21" d="M53 192l15-18-2 39z"/><path fill="#000f37" d="M159 196l-5 24-14-31z"/><path fill="#7aa3b5" d="M81 115l18 51-69-45z"/><path fill="#7f776c" d="M179.3 219.3l-20.6-40.9-2.6-20.7-18 24.1z"/><path fill="#77787a" d="M133 108l7-60 17 33z"/><path fill="#343338" d="M133.5 238.2l2.3-76.3 6.8 97.3-27.1-13z"/><path fill="#7e6f6f" d="M120 2h2v67h-2z"/><path fill="#86b6fc" d="M10.6-20.2L66.3 4.6l-6.9 15.6L3.7-4.6z"/><path fill="#8c6159" d="M48 53h6v24h-6z"/><path fill="#365b4a" d="M90.9 26.1L76.9-16 62.3 15.6l37.9 14.8z"/><path fill="#a3c5f7" d="M166.3 24.9l7 11.6 3.8-50.9-56.4-1.6z"/><circle cx="75" cy="119" r="4" fill="#00376d"/><circle r="1" fill="#6a6d69" transform="matrix(30.9634 -21.5964 8.47788 12.15499 22.9 206.2)"/><ellipse cx="8" cy="71" fill="#635d39" rx="4" ry="16"/><path fill="#5e7087" d="M26 264l106-55 2 32z"/><path fill="#b7bcc3" d="M56 66l85 36-22-56z"/><path fill="#573643" d="M121 41h6v26h-6z"/><path fill="#946c4e" d="M-1 116l37-23-52 5z"/><path fill="#3a4758" d="M141 60h5v117h-5z"/><path fill="#c4b69b" d="M185 181l-37-63 29-27z"/><path fill="#d1a980" d="M47 35l17-14 7 10z"/><path fill="#3c4149" d="M58.2 62.9l5.3-12.8-8.9-7.8-3.7 13z"/><path fill="#2d3034" d="M124 171.5l17.7-9.3 5.2 26.1 5.5-2.4z"/><path fill="#fff1cf" d="M177 111l-34-62 28 13z"/><path fill="#304525" d="M106 149l-12-2-1-12z"/><path fill="#c15553" d="M172 53l-46 1 6-14z"/><path fill="#453146" d="M19 98h13v25H19z"/><path fill="#918c82" d="M64.4 150.1l5.4 4.2-38.5 9.6-12.1-9.7z"/><path fill="#707a8b" d="M146.4 253.8l-64.1-3.4L128 271l12.8-28.9z"/><path fill="#182625" d="M131.4 200.7l15.8-7.5-7.5 15.6-5.1 17.2z"/><path fill="#484847" d="M83.8 189.3l17.3-23.2 38 34.3-27.8-17z"/><path fill="#b4a68c" d="M153 187l7 11 25-30z"/><path fill="#bfc1c2" d="M23.2 84.1l90.4-19.2L143 53.6l-52.1 67.5z"/><path fill="#797a80" d="M140.1 63.2l-23.3 5.4-1-3.8 23.4-5.4z"/><path fill="#756653" d="M42.2 30.7l-17.5 9.5-8.8-15.7 2.2-25.8z"/><circle cx="57" cy="165" r="7" fill="#281818"/><path fill="#565652" d="M45.8 193.1l14.2 8.1-11.5 6-59.5-70.5z"/><path fill="#a0a8b1" d="M69 88l-38 39 3-29z"/><path fill="#accae9" d="M113.9 15.5l7.4 25.1-9.2 2.1-29.4-14.9z"/><path fill="#7fa9df" d="M88-16l1 38 55-24z"/><path fill="#eca200" d="M74 174l-16-1 16-5z"/><path fill="#413734" d="M81 18L64 29l9-23z"/><path fill="#514c45" d="M55.2 138.2l1.1 10.3-43.5 5.4-.2-7.4z"/><path fill="#c1c6c8" d="M43 67l-31 8 53 31z"/><path fill="#ce8f0b" d="M159 218l1-21 4 9z"/><path fill="#757d86" d="M133.4 238.6l-2.4-56.1-2.8 37.8-20.5 12.2z"/><path fill="#7b8788" d="M146 125h7v27h-7z"/><path fill="#6e6d65" d="M69.6 207.3l6.5-42.8 37.3 3.5-47.5 28.5z"/><path fill="#051324" d="M165.3 234.1l-27.9-23.8-.5 10.8 34.4 7.6z"/><circle r="1" fill="#565f70" transform="rotate(85.4 -19.2 171.6) scale(7.22431 5.91932)"/><path fill="#dac197" d="M147 62h5v54h-5z"/><ellipse cx="144" cy="209" fill="#b37500" rx="5" ry="6"/><path fill="#b09470" d="M36 72.5L-16-4.8l19.1-5.6-.3 65.5z"/><path fill="#728388" d="M54.7 124.9l-33 22.1 31.5-9.3-20.5-25z"/><path fill="#000e36" d="M165 210h5v22h-5z"/><path fill="#575753" d="M64 170l-1-24 24 9z"/><path fill="#9f8e76" d="M97.6 36.6l-9.2-14.5 7 5.6-36.9 4.8z"/><path fill="#5b6169" d="M145.1 105.4l-3.6-10.3-8.5 72.4 22.6-31.2z"/><path fill="#686f7d" d="M113 97h22v3h-22z"/><path fill="#7f948b" d="M5.8 153.6l29.8 17.6L56.9 191l-16.4-5.8z"/><path fill="#954651" d="M162 25l-30 14 53 26z"/><path fill="#0f2436" d="M54.4 212.5l5.2-33.5-13.3.9 28 22.7z"/></g></g></svg>