<svg xmlns="http://www.w3.org/2000/svg" viewBox="0 0 3460 2306"><defs/><filter id="a"><feGaussianBlur stdDeviation="12"/></filter><rect width="100%" height="100%" fill="#673e3a"/><g filter="url(#a)"><g fill-opacity=".5" transform="translate(6.8 6.8) scale(13.51563)"><circle r="1" fill="#a5a782" transform="matrix(194.1017 -35.27426 22.83275 125.64052 133 88.4)"/><circle r="1" fill="#fff" transform="matrix(10.3252 -12.48102 23.01117 19.0365 83.9 69.9)"/><ellipse cx="182" cy="86" fill="#ff8458" rx="36" ry="24"/><circle r="1" fill="#e1ebff" transform="matrix(-1.02376 9.38928 -29.85261 -3.25496 99.2 144)"/><circle r="1" fill="#ff7e48" transform="matrix(12.58444 -9.60892 16.06725 21.04268 63.4 77.9)"/><path fill="#fff" d="M74.9 44L105 77.3 93.1 88 63 54.6z"/><circle cx="2" cy="120" r="62" fill="#5a684f"/><circle r="1" fill="#566a4c" transform="matrix(3.60475 30.00562 -83.14555 9.98875 38.3 22.5)"/><circle r="1" fill="#ff9760" transform="rotate(-57.2 172.6 -134.5) scale(19.85994 20.97604)"/><path fill="#44151f" d="M104 39h35v19h-35z"/><path fill="#c92f29" d="M152 95h62v22h-62z"/><path fill="#ff9bb7" d="M150.4 57.7l1 11-41.8 3.6-1-11z"/><circle r="1" fill="#5d6a4c" transform="matrix(3.44796 -190.2148 38.34463 .69506 255 63.8)"/><path fill="#75413c" d="M153.6 83.2l2.6 28.9-53.8 4.7-2.6-28.9z"/><circle r="1" fill="#5d6c4f" transform="matrix(8.4525 -29.67274 68.8914 19.62423 173.3 0)"/><circle r="1" fill="#ffb052" transform="matrix(-1.37851 11.91416 -9.21414 -1.06611 62.2 63)"/><path fill="#f6fdff" d="M90 148l41 1-41-14z"/><ellipse cx="105" cy="169" fill="#5c6753" rx="157" ry="18"/><circle r="1" fill="#ffaf71" transform="matrix(18.89269 19.02722 -7.47507 7.42221 199 80.1)"/><path fill="#fca0a2" d="M116 88l-42 3 42-21z"/><path fill="#def2f7" d="M187.9 40.3l-1.3 1-11.1-7.8 17.3 2.1z"/><circle r="1" fill="#ff694e" transform="matrix(2.4458 -6.3315 27.35798 10.56815 67.3 83)"/><circle r="1" fill="#b593b1" transform="rotate(-83.5 144 -26.2) scale(3.62284 26.15898)"/><path fill="#ff886b" d="M149 75l10 31 41-27z"/><path fill="#fafbff" d="M74.8 66.4l-8.3-24.7 34.9 29.2-12.6 18.7z"/><path fill="#5b483d" d="M145.5 48.2l32.8 24.9-19.8 1.3-5.1-59.7z"/><path fill="#79614d" d="M202 155l-80-20 133-51z"/><path fill="#a85a68" d="M103 69l55-4-4 22z"/><path fill="#edfdff" d="M146 160h9v5h-9z"/><path fill="#a9b2ca" d="M105.5 138l77.6 14.8-19.3.6-34.6-7.6z"/><path fill="#a97d95" d="M113.6 30.9l3.6-8.8 31.9 12-8.3 12.7z"/><path fill="#959194" d="M73 131l20 22-53-15z"/><path fill="#92796e" d="M101 53.6L69.1 36.4 98 67.5l32 13.9z"/><path fill="#fff" d="M81 56h22v2H81z"/><ellipse cx="182" cy="99" fill="#f83f34" rx="34" ry="6"/><circle r="1" fill="#a7615e" transform="matrix(4.93668 -7.74903 21.37201 13.61547 59.6 93)"/><path fill="#d1a0a6" d="M170.7 73.5l-13.4 1.4-26.9-18.3L161.7 89z"/><circle cx="190" cy="90" r="3" fill="#3000aa"/><path fill="#83795f" d="M215 84.5l48.5 35.2-21.6-64.2-47.9.8z"/><path fill="#777f70" d="M168 78l-14-7 37-20z"/><path fill="#ffa360" d="M65 52l29 42-54-28z"/><path fill="#b2d2ed" d="M220 150h-16l10 5z"/><path fill="#fff" d="M195 61l-6-2 6-1z"/><path fill="#858670" d="M30.6 104.7l34.8-10.2-12-1.1-61-19.1z"/><path fill="#717155" d="M-12.5 56.8l31.4 28.1 49.9-39.2L149 3.8z"/><circle r="1" fill="#c06559" transform="matrix(-32.7792 -4.31546 .4201 -3.1909 187.8 140.7)"/><path fill="#914a45" d="M170.1 118.3l42.6 10.9-17.6-11.4-16.6-24z"/><path fill="#e8a0af" d="M124.8 65.7l-4.4 4.2-13.2-13.6 4.4-4.2z"/><path fill="#5f6048" d="M264 119l-6 28-100-17z"/><path fill="#ff7742" d="M174 73l-17 24 35-2z"/><circle r="1" fill="#a47d78" transform="matrix(1.11986 4.59883 -33.32726 8.1155 124.7 130.8)"/><path fill="#ffdd7f" d="M183.9 62.1l1.5-1.3 32.7 35-1.5 1.4z"/><circle r="1" fill="#57171e" transform="matrix(-.0035 1 -14.56196 -.05083 130.3 73.2)"/><ellipse cx="25" cy="136" fill="#a5b0b5" rx="12" ry="2"/><path fill="#eea3b4" d="M114 64l38 1-19-9z"/><path fill="#999aab" d="M123 144h26v7h-26z"/><path fill="#4c3029" d="M136.6 42.6l-43.3 7.9 54.6 5.1-9.6 4.3z"/><path fill="#6e493e" d="M120 77l2 29 43 4z"/><path fill="#fff" d="M87 151l35-6-20-3z"/><path fill="#9a9fa7" d="M170 152h10v11h-10z"/><path fill="#643632" d="M147.6 50.4l-7.2-8.3 12-10.5 7.2 8.3z"/><ellipse cx="140" cy="78" fill="#ce7d88" rx="18" ry="4"/><path fill="#9e7c86" d="M113 28h34v13h-34z"/><path fill="#67674e" d="M17 147h68v23H17z"/><path fill="#b39aa7" d="M135 118h31v6h-31z"/><path fill="#ebeaff" d="M75.8 53.8l20.9 37.9-17.1-14.1-7.3-14.8z"/><path fill="#cd727a" d="M151 52l3 12-20-21z"/><path fill="#9ba89e" d="M163.7 33.8l23.7-.3-18.9 12.3 3.2 2.5z"/><path fill="#826658" d="M72 103l45-21-7 60z"/><path fill="#fff" d="M113 79L77 65l5-12z"/><path fill="#6a6e52" d="M49.1 82.8L3.5-16l-16.2 94.6 52.5 6.5z"/><path fill="#636349" d="M0 105h51v26H0z"/><path fill="#ffa95d" d="M172 80.2l7.1-13.3 16.8 9-7 13.2z"/><circle r="1" fill="#70725c" transform="matrix(15.95383 11.67663 -6.91394 9.44655 86.5 40.5)"/><path fill="#dbe9ff" d="M159.2 149.7l3-2.7 4.6 5.3-3 2.7z"/><path fill="#97514a" d="M125.1 64.2l31.4 4.4-32.3 22.3 31.5-1.6z"/><path fill="#e74849" d="M51.7 83.2L40.3 68.7l29 12.1 5.8 14.6z"/><circle cx="106" cy="162" r="13" fill="#736b58"/><path fill="#a6a3b9" d="M62 139h46v5H62z"/><ellipse cx="29" cy="98" fill="#a5aeb6" rx="7" ry="2"/><path fill="#66423a" d="M107 58l-2-33 17 33z"/><ellipse cx="208" cy="148" fill="#636854" rx="44" ry="4"/><path fill="#3a231f" d="M123 59l-3-13 19-7z"/><path fill="#dfa29b" d="M155.6 101.7l11.9-27.6-13.3 7.9 3.7 26.6z"/><path fill="#bcc0f0" d="M78.6 68.9l3.6-3.5 13.2 13.7-3.6 3.5z"/><path fill="#596047" d="M42.5-10l1.9 22-44.9 4-1.9-22z"/><path fill="#928672" d="M230.2 103.8l-16.8 7.4-8.4-1-3.7-2z"/><path fill="#8b425d" d="M56 77h5v17h-5z"/><path fill="#dfdde9" d="M169 61h10v2h-10z"/><path fill="#ffbe66" d="M64 64l6-23-19 22z"/><path fill="#fff" d="M112 138h5v3h-5z"/><circle r="1" fill="#7b6750" transform="matrix(-9.58835 -5.38073 .80937 -1.44227 101.1 64.6)"/><ellipse cx="113" cy="83" fill="#c18992" rx="6" ry="11"/><path fill="#817a64" d="M79 47.5l31.7 26.2-43.3-37.8-25.3 5.7z"/><path fill="#eff5f8" d="M189.6 41.9l-8.6-8.3 1.4-1.5 8.6 8.3z"/><path fill="#726154" d="M123 142l-12-16 60 15z"/><path fill="#a06e5f" d="M84 91l-12 54-8-49z"/><path fill="#74785a" d="M176 38h51v18h-51z"/><path fill="#666351" d="M130 150h32v9h-32z"/><path fill="#bcc7e9" d="M142 162h15v3h-15z"/></g></g></svg>