<svg xmlns="http://www.w3.org/2000/svg" viewBox="0 0 1800 1200"><defs/><filter id="a"><feGaussianBlur stdDeviation="12"/></filter><rect width="100%" height="100%" fill="#314f63"/><g filter="url(#a)"><g fill-opacity=".5" transform="translate(3.5 3.5) scale(7.03125)"><circle r="1" fill="#dbedff" transform="matrix(-.0276 61.81166 -254.99997 -.1139 131 47.5)"/><ellipse cx="128" cy="93" fill="#ac927d" rx="255" ry="15"/><circle r="1" fill="#5089bd" transform="matrix(-247.9991 1.29853 -.11925 -22.7745 101 7.7)"/><circle r="1" fill="#9fbcca" transform="matrix(213.60002 .15732 -.01472 19.98899 158.8 61.9)"/><path fill="#29527b" d="M33 107h223v55H33z"/><circle r="1" fill="#7da5c6" transform="matrix(-143.10544 .97059 -.1307 -19.27072 148.3 35.2)"/><circle r="1" fill="#bfa084" transform="matrix(-73.82366 -5.42127 .61252 -8.34094 145.3 96.1)"/><ellipse cx="32" cy="95" fill="#7d8b9a" rx="53" ry="12"/><path fill="#bcb7b0" d="M207 103h49v4h-49z"/><circle r="1" fill="#113455" transform="matrix(-32.05545 11.51756 -6.99664 -19.4729 11.5 169)"/><circle r="1" fill="#5986af" transform="matrix(-.31808 -12.00486 253.27036 -6.71065 115.7 0)"/><ellipse cx="123" cy="112" fill="#315577" rx="247" ry="6"/><ellipse cx="52" cy="105" fill="#fffff7" rx="6" ry="2"/><path fill="#0d3354" d="M131.3 157.4l68.5 7.8-59.8.6-25.2-3.1z"/><ellipse cx="89" cy="76" fill="#a5aeaf" rx="210" ry="5"/><path fill="#9ab4c3" d="M271 87L70 65l104-22z"/><circle r="1" fill="#7f8e9b" transform="matrix(-53.49292 -10.78606 1.2749 -6.3228 226.2 91.8)"/><path fill="#d3bea2" d="M155 100h60v6h-60z"/><ellipse cx="113" cy="101" fill="#ae9074" rx="37" ry="5"/><path fill="#224462" d="M82 137h45v33H82z"/><path fill="#42617f" d="M13 160h57v5H13z"/><path fill="#e9e8db" d="M48.5 102.8l9.7-2.4 1.3 4.8-9.7 2.4z"/><circle r="1" fill="#7799b6" transform="matrix(4.20047 14.61947 -58.49923 16.80802 15.5 40)"/><path fill="#8b8b88" d="M0 96h43v11H0z"/><path fill="#002239" d="M13.4 165.4l31.3-1.5-18.1 3.7-42.6 1.9z"/><circle r="1" fill="#7f8a97" transform="rotate(171.6 19.2 48.5) scale(49.34042 7.74568)"/><path fill="#133957" d="M231 157l39 26-6-36z"/><path fill="#40647f" d="M146 151h81v7h-81z"/><path fill="#8b8d92" d="M92 79h60v8H92z"/><path fill="#788693" d="M263.5 88.9l7.5 17.7-30.7 1.7-16.5-8.2z"/><path fill="#214466" d="M-14 142l78-27-80-1z"/><circle r="1" fill="#375a7c" transform="rotate(-103.4 60 67.7) scale(5.97104 50.75603)"/><ellipse cx="165" cy="95" fill="#9b8b7f" rx="17" ry="7"/><path fill="#072c4b" d="M72.5 170v-3l61 1v3z"/><ellipse cx="11" cy="69" fill="#95a8b3" rx="49" ry="15"/><ellipse cx="101" cy="95" fill="#bda48f" rx="19" ry="7"/><path fill="#385877" d="M68.2 161.9l6.7 12.2 24.8-61.4-56.9 56.6z"/><ellipse cx="121" cy="102" fill="#85786c" rx="18" ry="2"/><circle r="1" fill="#7099bb" transform="matrix(96.977 12.42304 -1.12968 8.8185 210.8 22.4)"/><circle r="1" fill="#5d83a8" transform="rotate(157.1 13.5 2.7) scale(68.94863 13.06726)"/><path fill="#2f5474" d="M69 108h187v28H69z"/><path fill="#b6a18d" d="M171.3 89.9l60.5 17.4-16.9-16-5.3 2z"/><path fill="#244a68" d="M172.4 123l-51.9 3.5L262.3 143l-98.5 7.9z"/><ellipse cx="175" cy="46" fill="#89aac2" rx="165" ry="11"/><path fill="#3a5d80" d="M118 166h138v2H118z"/><path fill="#3a5e7c" d="M210.8 147.5l55.7-1.2-68.1 18.8 21.7 2.6z"/><path fill="#aba19d" d="M50 76h49v5H50z"/><path fill="#415d7a" d="M45.6 149l56.2 6.3 47 1.7-58.1-6z"/><path fill="#1d4262" d="M193.7 156.1l44.6 25.7-4.5-30.8-28.7 34z"/><path fill="#bfa993" d="M143.6 85.8l12.3 19.7-6.4.4-20.8-22.5z"/><path fill="#9f8a7e" d="M106.4 83.8l-16.2 7.3 40.5-.7-.8-8.5z"/><path fill="#82929f" d="M218 93.1l-88.5-9.3.5-5 88.5 9.4z"/><ellipse cx="46" cy="97" fill="#7c8791" rx="35" ry="5"/><path fill="#aea59b" d="M3 106h104v1H3z"/><path fill="#3e607c" d="M153 153h37v9h-37z"/><ellipse cx="143" cy="104" fill="#c1ac94" rx="21" ry="2"/><path fill="#f5f2e3" d="M47 103h12v1H47z"/><ellipse cx="59" cy="143" fill="#214360" rx="41" ry="2"/><path fill="#b6a38d" d="M56 105h38v2H56z"/><path fill="#001c3e" d="M40 169h18v1H40z"/><ellipse cx="74" cy="83" fill="#8e9aa6" rx="35" ry="4"/><path fill="#193d59" d="M210 154l-16 9 5-9z"/><circle r="1" fill="#b7ac9b" transform="matrix(.09 2.07392 -7.31458 .31743 222.8 105.4)"/><path fill="#072948" d="M207 169h49v1h-49z"/><path fill="#476680" d="M71 161l-15-6 31 2z"/><circle r="1" fill="#6b90b2" transform="matrix(-2.61394 -11.74031 46.5851 -10.372 2.6 24.8)"/><circle r="1" fill="#9eb3bd" transform="matrix(.3827 -5.61363 79.3055 5.4065 115.6 72.3)"/><path fill="#3b5e7b" d="M209 155.8l59.2 29.2h-12.6l-42.1-23.6z"/><path fill="#355676" d="M36.5 111.1L163 143.2 58.4 105.7l-21.2 4.9z"/><ellipse cx="14" cy="102" fill="#8d8b87" rx="34" ry="5"/><ellipse cx="50" cy="156" fill="#4c6a84" rx="22" ry="1"/><path fill="#355877" d="M198.9 115.9l-50.4 9.6 28.1-18.4 17.2-1.6z"/><circle r="1" fill="#9facb3" transform="matrix(24.75027 -5.39544 1.55818 7.14775 245.7 76.5)"/><path fill="#00263d" d="M228 156.6v-1l50 1.8v1z"/><circle r="1" fill="#87a4ba" transform="rotate(-101.4 36 12) scale(10.80773 43.08905)"/><path fill="#918984" d="M175.3 87.8l-25.4-.2 24.1 9.5 9.9 5.3z"/><ellipse cx="216" cy="8" fill="#6490b6" rx="189" ry="5"/><path fill="#3e5d7d" d="M109 163h26v4h-26z"/><ellipse cx="145" cy="30" fill="#7ca1bf" rx="89" ry="7"/><ellipse cx="172" cy="163" fill="#002743" rx="24" ry="1"/><path fill="#143754" d="M123 133h38v1h-38z"/><path fill="#3b617f" d="M249.7 133.8l-42 4.4 20.8-5.6 32-2.3z"/><path fill="#ae9987" d="M53.9 108.5l49.7-6.6 31.1-19.5-62.2 19.8z"/><path fill="#183f5d" d="M87 141h103v2H87z"/><path fill="#0f3651" d="M223 141.4l26-1.8v1l-26 1.8z"/><path fill="#012942" d="M224.5 144.7v1l-25-.4v-1z"/><ellipse cx="60" cy="107" fill="#46607f" rx="212" ry="1"/><path fill="#315675" d="M193.5 158.7l-50.1-23.1 27.5-7-12.8 28.1z"/><path fill="#93989d" d="M196 89l8-11-43 3z"/><ellipse cx="249" cy="159" fill="#3d637e" rx="54" ry="1"/><ellipse cx="45" cy="152" fill="#04223d" rx="6" ry="1"/><ellipse cx="148" cy="55" fill="#92b0c4" rx="86" ry="7"/><ellipse cx="133" cy="151" fill="#123654" rx="16" ry="1"/><circle cx="79" cy="90" r="6" fill="#78899c"/><circle r="1" fill="#8396a4" transform="matrix(.32617 -2.07769 23.67757 3.71702 255 88.8)"/><path fill="#052a4c" d="M57 165h10v2H57z"/><path fill="#012940" d="M-15.5 159v-1l33-1v1z"/><path fill="#4c6a85" d="M50 162h25v3H50z"/><path fill="#143753" d="M50.5 136l.2-1 18.8 3-.2 1z"/><ellipse cx="104" cy="21" fill="#7497b9" rx="48" ry="7"/></g></g></svg>