<svg xmlns="http://www.w3.org/2000/svg" viewBox="0 0 1800 1200"><defs/><filter id="a"><feGaussianBlur stdDeviation="12"/></filter><rect width="100%" height="100%" fill="#56453d"/><g filter="url(#a)"><g fill-opacity=".5" transform="translate(3.5 3.5) scale(7.03125)"><ellipse cx="140" cy="48" fill="#e9ffff" rx="255" ry="59"/><ellipse cx="94" cy="155" fill="#7192ae" rx="255" ry="26"/><circle r="1" fill="#b2c8dc" transform="matrix(-99.1273 -30.31689 9.76732 -31.93628 212.2 87)"/><circle r="1" fill="#dfe3e2" transform="matrix(1.99028 18.42693 -157.8978 17.05441 69.3 82)"/><ellipse cx="86" cy="116" fill="#3d3521" rx="111" ry="16"/><path fill="#2d415a" d="M178.4 98.3l-.6-9 79.8-5.6.6 9z"/><circle r="1" fill="#7990ad" transform="matrix(-71.01802 18.63123 -5.12873 -19.54955 91.4 42.2)"/><path fill="#637591" d="M270 6l-96 25 87 24z"/><circle r="1" fill="#44515f" transform="matrix(-15.10355 -34.7358 30.1771 -13.12138 234.6 162.8)"/><circle r="1" fill="#a9bbd3" transform="rotate(-126.1 21.1 19.6) scale(15.21908 65.80331)"/><path fill="#6d8295" d="M197.5 84.8l35.9-4.8 2.2 59-50.8-41.3z"/><path fill="#9ea8ae" d="M0 92h67v13H0z"/><path fill="#191e1b" d="M65.4 115.6l149 2.4 1.7 11.5-104.6-.9z"/><path fill="#777d85" d="M76 130h115v33H76z"/><path fill="#d2d1cb" d="M0 66h183v27H0z"/><path fill="#523d27" d="M72.7 120l1.9-22 68.7 6-1.9 22z"/><path fill="#8f9bac" d="M271 1L154 57 88-16z"/><circle r="1" fill="#8c9aaf" transform="matrix(-63.55965 40.02565 -10.52505 -16.7135 30.4 9)"/><path fill="#6b553f" d="M3 105l102-4-48 25z"/><path fill="#798695" d="M35.4 59.8L81.1 27l70.6-6.7-49.8 31.9z"/><ellipse cy="141" fill="#737a84" rx="187" ry="12"/><ellipse cx="218" cy="72" fill="#ced7d9" rx="135" ry="7"/><path fill="#8498aa" d="M219 102h28v27h-28z"/><circle r="1" fill="#667180" transform="rotate(152.9 103.5 25) scale(26.4272 6.43012)"/><path fill="#9eaebc" d="M75 55h64v9H75z"/><circle r="1" fill="#93a6ba" transform="matrix(-60.86771 -7.90534 1.33415 -10.27242 201 53)"/><circle r="1" fill="#a6adb9" transform="rotate(-113 56.8 -36.8) scale(16.55862 53.05606)"/><path fill="#637182" d="M196.9 84l-32.3 11.2 54.2 1.1 13.5-14.5z"/><path fill="#afb0ac" d="M159 84l44 25-70-7z"/><circle r="1" fill="#b1becc" transform="matrix(-2.816 5.4232 -24.14742 -12.53861 21.4 25.9)"/><path fill="#546877" d="M192 129h64v6h-64z"/><path fill="#85939d" d="M76 94h36v6H76z"/><ellipse cx="26" cy="169" fill="#515660" rx="93" ry="10"/><circle r="1" fill="#7a828c" transform="matrix(-2.5004 9.96641 -19.01254 -4.76991 19.3 4)"/><path fill="#cbd4d7" d="M-16 48l35 6-6 30z"/><path fill="#dbd6c8" d="M138 71h30v28h-30z"/><path fill="#818f9b" d="M134.9 97.1l-9.2 5L271 120.4 164.2 99.8z"/><path fill="#95a6b5" d="M-16 31.2l52.4 41.9 48.9-6.7L40 56.9z"/><path fill="#634b37" d="M121.2 102.2l-33.3-2.6 53.3 17.5 58-5.8z"/><path fill="#aabac4" d="M233.2 104.5l-8.8-12.4 27.5-6.4-18.4-17.6z"/><ellipse cx="35" cy="100" fill="#a3adb2" rx="36" ry="4"/><ellipse cx="246" cy="149" fill="#4a525c" rx="30" ry="21"/><ellipse cy="129" fill="#152126" rx="200" ry="1"/><path fill="#6b7682" d="M226 21l-11 17-30-6z"/><path fill="#7b8c9c" d="M198 94l8 24 61 9z"/><ellipse cx="198" cy="126" fill="#0d1516" rx="21" ry="3"/><path fill="#ccd1d1" d="M81 59h23v24H81z"/><ellipse cx="186" cy="95" fill="#4d6277" rx="19" ry="2"/><path fill="#a8aeb5" d="M187-16l-52 54 40-15z"/><ellipse cx="135" cy="118" fill="#28271c" rx="69" ry="3"/><circle r="1" fill="#7c848f" transform="rotate(102.7 122.1 97.7) scale(7.79327 61.00988)"/><path fill="#626972" d="M88.3 150.5l67.1 8.1-96.1-26.9 84.8 4.1z"/><path fill="#3c3428" d="M-16 129.4l80.6-25.8 16.8.2L11 128.3z"/><path fill="#bac9d1" d="M170 74l28-27-41 11z"/><ellipse cx="83" cy="106" fill="#8c6848" rx="9" ry="6"/><path fill="#bec3bd" d="M238 90l13 15-10-1z"/><path fill="#2e2a21" d="M101.2 116l-25.6-.2 13.9-5.2 47 1.1z"/><path fill="#524434" d="M172.7 109.1h19.4l31.9 29.4-5.3-5.9z"/><path fill="#5c6a76" d="M183 129h29v38h-29z"/><ellipse cx="212" cy="91" fill="#516175" rx="18" ry="4"/><path fill="#c6c1b7" d="M0 82h144v12H0z"/><circle r="1" fill="#808fa1" transform="matrix(16.00291 .70896 -.13357 3.0149 9 40.1)"/><circle r="1" fill="#778698" transform="matrix(.83838 2.16482 -42.2588 16.36582 229.1 92.3)"/><ellipse cx="77" cy="153" fill="#555b65" rx="24" ry="3"/><path fill="#677c92" d="M252.8 78.1l1 25.8-27.6 21.9 44.8-19.3z"/><path fill="#927553" d="M49 110.5h4v11h-4z"/><ellipse cx="123" cy="59" fill="#9aa8b5" rx="17" ry="6"/><path fill="#abb0b6" d="M239 10l-23-7-23 18z"/><ellipse cy="99" fill="#929ea8" rx="42" ry="7"/><ellipse cx="150" cy="146" fill="#7d848b" rx="49" ry="4"/><path fill="#7f694f" d="M62 126h34v2H62z"/><ellipse cx="20" cy="144" fill="#797f8b" rx="59" ry="5"/><path fill="#82909f" d="M204.1 45.4l1.8-6.8 30 8-1.8 6.8z"/><ellipse cx="171" cy="43" fill="#919ead" rx="43" ry="7"/><circle r="1" fill="#b4c1ca" transform="matrix(-.81485 -6.8335 20.45293 -2.43886 31.6 69.1)"/><path fill="#757f8e" d="M73.9 45.5l21.4-7.6 16.4-2.8L70 28.7z"/><path fill="#131412" d="M41.8 116.4l3 .2-.6 13-3-.2z"/><path fill="#7a7f84" d="M159.1 161.5l61.3 23.5-102.2-26.7 47.8-4.2z"/><circle r="1" fill="#999fa7" transform="matrix(-6.56308 11.8986 -20.48138 -11.2972 81.3 13.7)"/><path fill="#795d3f" d="M111 114h76v2h-76z"/><path fill="#90a0ac" d="M208.6 77.3l1.5 3.7-28.7 11.7-1.5-3.7z"/><path fill="#4b555f" d="M218.5 180.5l-42.9-13.3-3.8-4.6 97.9 11.7z"/><path fill="#b0b4b7" d="M191.7-16L96.9 20.6l8.2-17.9 67.5-10.6z"/><path fill="#ced9d9" d="M207.1 64.2l-45.7 12.3 30.5 11 11.2-21z"/><path fill="#8597aa" d="M28 47l-9 19 74-13z"/><path fill="#b4b7b2" d="M12 92h84v8H12z"/><path fill="#c6ced5" d="M35.8 46.6l-6.7-4.3 7-11 6.8 4.4z"/><circle r="1" fill="#7a858e" transform="matrix(3.1386 1.96933 -3.56483 5.68141 167.7 101.2)"/><ellipse cx="172" fill="#bec1c5" rx="9" ry="6"/><path fill="#8f969c" d="M117.5 42.7l-7.6-11.8L158.5-.7l7.6 11.8z"/><path fill="#68523f" d="M104 96.4L81.4 113 88 98.7l24.8 19.4z"/><path fill="#acb1b0" d="M227 93h29v9h-29z"/><path fill="#b6b7af" d="M177 97h15v12h-15z"/><circle r="1" fill="#a9b5bd" transform="matrix(.59827 2.9779 -10.51802 2.1131 118.6 97.6)"/><ellipse cx="86" cy="135" fill="#58606b" rx="46" ry="2"/><path fill="#c9c4b8" d="M151 88l21 4-36 11z"/><path fill="#735c40" d="M75 123H44l22-9z"/><ellipse cx="165" cy="131" fill="#6c7781" rx="60" ry="2"/><path fill="#b5c3cb" d="M271 71.1v-1.8l-34.4 17.8L205 58.7z"/><path fill="#64513f" d="M-5.9 105.2l57.8 1.1 6-6.2 5.6 9.2z"/></g></g></svg>