<svg xmlns="http://www.w3.org/2000/svg" viewBox="0 0 1469 1800"><defs/><filter id="a"><feGaussianBlur stdDeviation="12"/></filter><rect width="100%" height="100%" fill="#2c3558"/><g filter="url(#a)"><g fill-opacity=".5" transform="translate(3.5 3.5) scale(7.03125)"><circle r="1" fill="#c1d8e7" transform="matrix(71.57693 118.78198 -178.15458 107.3543 80.9 101.5)"/><circle r="1" fill="#dceafc" transform="rotate(92.9 -47.3 64.4) scale(112.09077 26.83086)"/><circle r="1" fill="#5e4926" transform="matrix(-193.62673 27.22796 -3.87999 -27.59182 131.8 232.8)"/><circle r="1" fill="#49628e" transform="matrix(-86.14622 99.44992 -57.6453 -49.93392 169.5 47.2)"/><circle r="1" fill="#7e9ecd" transform="matrix(13.68292 -29.78448 67.04015 30.7981 200 169.7)"/><ellipse cx="122" cy="115" fill="#443b2c" rx="9" ry="45"/><circle r="1" fill="#88a3cc" transform="rotate(-139.1 24.8 9.5) scale(51.50739 29.01945)"/><ellipse cx="67" cy="145" fill="#483d2b" rx="44" ry="7"/><circle r="1" fill="#050a0c" transform="rotate(-122.7 152.4 78.4) scale(23.38748 37.85725)"/><path fill="#7999c9" d="M89 23h58v45H89z"/><circle r="1" fill="#9f773f" transform="rotate(77.9 -105 192.5) scale(20.79835 31.89307)"/><ellipse cx="55" cy="167" fill="#473a26" rx="35" ry="5"/><path fill="#a5c1e2" d="M90 103h23v34H90z"/><path fill="#a0a1a1" d="M46.2 262.5l-52 1-.4-28 52-1z"/><circle r="1" fill="#33518b" transform="matrix(107.21076 130.70978 -27.03757 22.17675 207.4 28.7)"/><circle r="1" fill="#dfe7e6" transform="matrix(-24.4976 -28.68301 14.65345 -12.51523 3.1 194)"/><path fill="#23222d" d="M130 210l-56 10 32 25z"/><path fill="#504632" d="M122 64L46 76l44 11z"/><ellipse cx="135" cy="192" fill="#98abc0" rx="16" ry="34"/><ellipse cx="47" cy="69" fill="#abc0de" rx="8" ry="45"/><path fill="#524a41" d="M90.9 118.3l-72-6.9 56.3 17.3.9 39.1z"/><circle r="1" fill="#bbced9" transform="matrix(.22527 -25.81366 5.9419 .05185 85.5 192)"/><circle r="1" fill="#54504a" transform="matrix(-4.12921 -2.91284 40.4836 -57.38915 133.2 137.5)"/><path fill="#a3b3c5" d="M103 97l-44 16 2-31z"/><path fill="#483734" d="M127.7 218.1l-19.4-.9 78-24.4 10.8 11.1z"/><path fill="#6985b0" d="M224 139.1L116.7 48.5l85.2 159.7 4.7 62.8z"/><path fill="#524b3c" d="M99 82h44v19H99z"/><circle r="1" fill="#6c86b5" transform="matrix(-2.84498 22.84088 -75.78684 -9.43975 53 11)"/><path fill="#979896" d="M70 270l-74-36 142 27z"/><path fill="#493425" d="M70 218l9-72.4 3 .4-9 72.4z"/><path fill="#bac9d1" d="M42.4 202l13.1-33.4.6 25.3-57.5-44z"/><path fill="#28173d" d="M180.6 94l-1.7 9.8 7.1 3.8 24.8 20.5z"/><path fill="#484040" d="M75.3 233.3l-53.4-20 22.4 21.8 15 12.9z"/><path fill="#fffff9" d="M130.8 220.1l13.7-3.1.7 2.9-13.7 3.1z"/><ellipse cx="149" cy="174" fill="#8aa5c8" rx="29" ry="27"/><circle r="1" fill="#5272a9" transform="matrix(-55.88039 -55.69043 17.14715 -17.20564 170.1 54.5)"/><circle r="1" fill="#b9c7dc" transform="matrix(-31.82105 -4.04708 7.3754 -57.99063 3 121.4)"/><path fill="#412c1a" d="M82 138h83v2H82z"/><path fill="#b3cade" d="M117.3 171.3l-8.6 44.2-4-.8 8.6-44.2z"/><path fill="#6e91c4" d="M175 78l-18-25-32 83z"/><path fill="#97acc1" d="M80 149h22v27H80z"/><path fill="#5a564d" d="M39 117l48-11-34 22z"/><path fill="#9fa9a8" d="M51 175h20v45H51z"/><path fill="#de910c" d="M113 244h21v9h-21z"/><path fill="#a3b5c9" d="M60.5 128.4L-7.8 149l77.9-13.8-1.4-20.7z"/><path fill="#483326" d="M116 171h3v43h-3z"/><path fill="#8ca7cb" d="M194 166h15v35h-15z"/><path fill="#4b433f" d="M126.5 227.8l69.2-36-4.9-10.5-27.1 61z"/><path fill="#554a3b" d="M45 184h5v36h-5z"/><path fill="#565654" d="M40 173l36-7-64-5z"/><circle r="1" fill="#768fb3" transform="matrix(1.5895 -17.17585 34.97828 3.23697 122 64)"/><path fill="#55514c" d="M121.7 138.5l-76.9 7.6 5 36.3 7.3-28.2z"/><circle r="1" fill="#7693bc" transform="matrix(17.09304 5.81895 -1.53759 4.51663 127.3 104.9)"/><path fill="#463a28" d="M100 185l3 24-8-13z"/><path fill="#a0b5d1" d="M49.9 136.6L39 143.7 6.3 115.4l17.7-25z"/><path fill="#45403f" d="M187 67.7l-37 51.1-26.4 25.7 27.2-36.5z"/><path fill="#3b3636" d="M120 68h4v75h-4z"/><ellipse cx="80" cy="111" fill="#4c433f" rx="2" ry="39"/><path fill="#8ea3be" d="M94.7 85.2l6.7 8.2-16.2 29.2-2.1-31.8z"/><path fill="#9aa7b0" d="M80 171l-5 47 18-2z"/><path fill="#797d83" d="M138 232l9-66 7 39z"/><circle r="1" fill="#524b4b" transform="rotate(-167.3 102.6 73) scale(1 41.47163)"/><circle r="1" fill="#5e6874" transform="matrix(-5.85555 -23.48532 2.1831 -.54431 134.4 167)"/><circle r="1" fill="#899ebd" transform="rotate(-47 58.4 -28.2) scale(17.37011 53.90818)"/><path fill="#5d6167" d="M72.1 94.8l23.1-53.9-23 5.7L83.4 76z"/><path fill="#4c3a2f" d="M119.2 149.3l-2.4 46.5 4.7-31.9 5.2-24.9z"/><path fill="#6f91c1" d="M173 136l-31.6.8L159 104l32.5 26.2z"/><path fill="#c1cfdc" d="M43.7 149.5l-42 20.7-17.1-78.5 55.3 74.9z"/><path fill="#9fb7cf" d="M140 203l-16-31-7 40z"/><path fill="#1c283a" d="M18.9 248.2l-28.3-6.5.5-2 28.3 6.6z"/><path fill="#9d774f" d="M61 235l42 1-26 13z"/><path fill="#57534e" d="M92.2 141.6l14 11.8 43.9-15.9-51.4-.4z"/><path fill="#eefaf2" d="M36.6 214.8l5.1-8.6 1.7 1-5.1 8.6z"/><path fill="#a2b5d2" d="M21 77h31v36H21z"/><circle r="1" fill="#3a4f7a" transform="matrix(11.1377 -10.36422 37.8188 40.6412 208 18.3)"/><path fill="#515152" d="M84 88L48 75l66-8z"/><path fill="#a2aeb3" d="M33 172l11 43 4-40z"/><path fill="#3e3434" d="M66.6 241.4l-16.3 2.2L72.7 213l-1.9 6.7z"/><ellipse cx="94" cy="231" fill="#101218" rx="8" ry="5"/><path fill="#b9cad7" d="M57 153h10v10H57z"/><path fill="#3e312f" d="M145 219l24-26 2 40z"/><path fill="#786755" d="M145.2 219.6l-58.5 30.7 49.7-11.1 1.4 3.9z"/><path fill="#5e6063" d="M23 142l32 14 26-18z"/><path fill="#96a8bb" d="M87.9 166.6l-7.1 35.5 20.1-25.2 21.3-32.2z"/><path fill="#5c5a54" d="M198.4 264.2l25.6-26.3-26.6-27.2 10.5-17.3z"/><path fill="#fdead9" d="M125 222l20-5-6 6z"/><path fill="#8198bc" d="M119 41L64 51l48 15z"/><path fill="#343741" d="M139 207l-42 38 16-32z"/><circle r="1" fill="#686864" transform="matrix(-9.99581 35.11057 -1.42291 -.4051 34.9 210.7)"/><circle r="1" fill="#585654" transform="matrix(-5.00644 48.68897 -.99476 -.10229 54.6 122.6)"/><circle cy="194" r="30" fill="#c6d4df"/><path fill="#9daebc" d="M117 187l-16 28 5-41z"/><path fill="#a6b7c8" d="M67.7 170.2l7 .7-2.4 26.9-7-.7z"/><path fill="#9cbedf" d="M204 214l20-47v51z"/><path fill="#7c7a73" d="M39.3 200.5l-5.4 4.4 19.7-8.8L15.7 225z"/><circle r="1" fill="#62686c" transform="matrix(-6.66112 21.04853 -1.92165 -.60813 64 181.7)"/><path fill="#859bb9" d="M122.6 132.3l-26.1 5.9-17.5-2.8 25.6-20.7z"/><path fill="#47494f" d="M81 39h6v47h-6z"/><path fill="#443d38" d="M79.6 168.9l12.3-8.6.5.8-12.3 8.6z"/><path fill="#322b2c" d="M74 120h17v6H74z"/></g></g></svg>