<svg xmlns="http://www.w3.org/2000/svg" viewBox="0 0 1800 1200"><defs/><filter id="a"><feGaussianBlur stdDeviation="12"/></filter><rect width="100%" height="100%" fill="#3f4138"/><g filter="url(#a)"><g fill-opacity=".5" transform="translate(3.5 3.5) scale(7.03125)"><circle r="1" fill="#a2c7ee" transform="rotate(-178.9 61.3 22.3) scale(250.82073 100.7942)"/><ellipse cx="112" cy="145" fill="#085ead" rx="255" ry="32"/><path fill="#7fb4ff" d="M10.4 3L255-31.6l6.6 46.6L17 49.5z"/><circle r="1" fill="#584425" transform="rotate(-97.8 125.5 -75.9) scale(16.87778 126.67477)"/><circle r="1" fill="#b8a686" transform="matrix(-1.80856 -29.29514 172.66541 -10.65965 189.7 83.9)"/><path fill="#624c31" d="M77 50L9 46l-9 74z"/><ellipse cx="197" cy="106" fill="#302d1b" rx="32" ry="5"/><path fill="#c2c2ba" d="M52 90h108v23H52z"/><circle r="1" fill="#2d577f" transform="matrix(.17084 23.86085 -158.94548 1.13805 143.1 148.9)"/><circle r="1" fill="#aec2de" transform="matrix(71.49058 -18.66936 2.26595 8.67701 117.2 24.6)"/><path fill="#3273c7" d="M207.6 23.2l-2.9-27.9 61.7-6.5 2.9 27.9z"/><circle r="1" fill="#807a69" transform="matrix(-4.27605 13.00568 -49.1743 -16.16769 117.2 62.4)"/><circle r="1" fill="#75756b" transform="matrix(-3.12212 15.04343 -76.57048 -15.89145 226.4 60)"/><path fill="#668ec8" d="M-26.8-3.8L60 11.5l-7.1 40.3L-34 36.5z"/><path fill="#3a3b2e" d="M202 21h46v21h-46z"/><path fill="#fff" d="M131.5 26.8l-14.3 8.7 14.1.5 12.3-2.9z"/><ellipse cx="36" cy="85" fill="#9c9b91" rx="202" ry="10"/><circle r="1" fill="#bdc9dc" transform="matrix(.1602 6.64255 -44.92466 1.08349 53 0)"/><ellipse cx="195" cy="119" fill="#3b90bc" rx="162" ry="6"/><path fill="#242622" d="M-.6 48.9l.6-4 26.6 4.2-.6 4z"/><path fill="#656052" d="M121.7 38.4l-21.6 43.7 4.2-48.3 15.6 3.2z"/><circle r="1" fill="#524538" transform="rotate(-112 50.5 4) scale(5.06338 29.91071)"/><path fill="#abbdd4" d="M0 38h73v8H0z"/><path fill="#2c4961" d="M0 112h70v5H0z"/><path fill="#aeaca2" d="M40 111l50 1 11-71z"/><path fill="#262e24" d="M19.3 91.1l-24.9 18.6 30.2-8.4-9.2-5.9z"/><path fill="#aaaea6" d="M172 63h36v37h-36z"/><circle r="1" fill="#517fbe" transform="matrix(.93717 4.60715 -107.69661 21.90734 137.6 4.1)"/><path fill="#6a5e53" d="M40.5 97.8l19.5-46 5.5 2.4-19.5 46z"/><path fill="#3e3d2e" d="M141.6 36.7l-17.6 26 23.8-11.3-15.7-18z"/><path fill="#afa08d" d="M195 108h61v6h-61z"/><circle r="1" fill="#345b7e" transform="matrix(-103.43455 19.54218 -3.26543 -17.28356 173 149.8)"/><circle r="1" fill="#7a6f63" transform="matrix(-40.16679 3.89373 -.78733 -8.12194 110 45.6)"/><path fill="#4b4940" d="M227 104h17v6h-17z"/><path fill="#999c94" d="M206 43.4l33.6.7-27.1 51.1 50.1 6.6z"/><path fill="#4270b1" d="M-16-14.7l54.3 31.6-26.5-5.1-16.2 19.5z"/><path fill="#746e63" d="M231 49h14v35h-14z"/><circle r="1" fill="#20362a" transform="matrix(-43.39838 4.15809 -.17456 -1.82194 228.6 23)"/><path fill="#aa9882" d="M2.2 88.7L-14 83.4l11.8-36.1L14 52.6z"/><path fill="#898d85" d="M120.1 46.7l-7-4.4-5.6 54.8 30.4-14.4z"/><ellipse cx="236" cy="29" fill="#826f65" rx="40" ry="4"/><path fill="#56584f" d="M228.6 68.6l41.3-46.3-59 62 6.1-20.9z"/><path fill="#9cb3d2" d="M74 42.9l-11.1.2-69-10.1 54.8 18.1z"/><circle r="1" fill="#49433d" transform="matrix(-2.2101 14.0839 -4.2519 -.66722 15.2 74)"/><path fill="#5684bf" d="M-14.4 26.4l45.2 14.9 33.6-3.4-18.6-16.1z"/><path fill="#a28f74" d="M53 73l32-3-8-20z"/><path fill="#5183c5" d="M148.4-16l23.3 33.1-23.5-2.3 3.7-3.3z"/><path fill="#2c3628" d="M177 103h23v7h-23z"/><path fill="#c9d4df" d="M97.6 20.1l-18.4 7.5L104 42.9l-9.9-13.3z"/><path fill="#56544c" d="M201.4 54.5l-9.5 10.3-29.3-27.3 9.5-10.3z"/><circle r="1" fill="#255c8c" transform="matrix(107.0576 22.30801 -2.2243 10.67453 30.7 132.9)"/><path fill="#958370" d="M0 105h39v7H0z"/><path fill="#a7aaa2" d="M191.5 103.1l44.8-38.7-10.8 41.3-53.3-17.3z"/><path fill="#3e3a2f" d="M47.5 74.6l-8.8-1.5 3.8-21.7 8.8 1.5z"/><path fill="#aaa69a" d="M181.1 90.6l4.5 5.8-30.7 18-35.2-26.6z"/><path fill="#474137" d="M232.5 66.8l9.5-14.6-7.9-15.5 21.5 4.5z"/><path fill="#4e86c9" d="M152.5-16L200.6-.3l-47.7 33.5 53.8-10.9z"/><circle cy="48" r="5" fill="#343128"/><path fill="#9f948b" d="M148 42.9l2.2-6.6 19.9 6.8-2.3 6.6z"/><ellipse cx="170" cy="113" fill="#9bbdd0" rx="95" ry="1"/><path fill="#343529" d="M18.6 96.2l11.7 14.7-13.6-7.7-12.5-4.6z"/><ellipse cx="140" cy="130" fill="#236597" rx="69" ry="9"/><path fill="#272d21" d="M233 27l27-14-8 12z"/><path fill="#373a2b" d="M161.3 51.2L136 56.6l-1.2-5.8 25.4-5.4z"/><path fill="#b8c8e0" d="M60 24h44v6H60z"/><path fill="#787a71" d="M180 52l-45 11 26 19z"/><path fill="#2b362a" d="M227.4 31.4l-27.5 3.7 1.5 4.5 20.7 3.4z"/><path fill="#fbfffc" d="M136.7 27l1.7 4.6-15 5.5-1.8-4.7z"/><circle r="1" fill="#3e4636" transform="matrix(-1.63525 -2.03384 4.79136 -3.85235 106.4 68.6)"/><path fill="#bdc1bc" d="M88 99h46v12H88z"/><circle cx="140" cy="113" r="4" fill="#485a69"/><path fill="#192815" d="M102 36h17v3h-17z"/><path fill="#9a998e" d="M149.1 49.5L142.7 65l76.6 29.3-49.3-3.9z"/><path fill="#4e4435" d="M186 111l-24-3 11-3z"/><path fill="#374439" d="M227.2 20.4l-36.6 10-67.5 8.7 29.9-7.2z"/><path fill="#8aa4c9" d="M4 15h38v9H4z"/><path fill="#68645b" d="M47 63L13.8 86.6 36 83.2l-3.7-39.9z"/><path fill="#a4bbd9" d="M135 15l-40-1-20 29z"/><path fill="#a69183" d="M209 104l15 5-36 3z"/><path fill="#64665c" d="M124.6 80.7l-7.2 9.6-4-3 7.2-9.6z"/><path fill="#437ca8" d="M0 115h116v12H0z"/><path fill="#929084" d="M173 42h32v3h-32z"/><path fill="#90b0de" d="M211 .5l-22.9 21.4.9-12 1.7-4.1z"/><path fill="#3b453d" d="M211 52l10 3-4-9z"/><path fill="#979189" d="M71.9 94l-86.3-11.4L2.2 71.4l28.6 38z"/><path fill="#a5a9a3" d="M207 48l-10 27 13 19z"/><path fill="#272f2b" d="M108 54l-1 8-7-7z"/><path fill="#565949" d="M85 39h10v11H85z"/><path fill="#598ed1" d="M189.5 23.1l19.9-.2 32.2-12.7-43.5.2z"/><path fill="#a2b6d2" d="M51.6 12l63.6-24.3L42.4-16-3-.4z"/><path fill="#9e9389" d="M39 54L18 64l11-12z"/><path fill="#8d887f" d="M95 40h16v16H95z"/><path fill="#848176" d="M196 96.7l-7.7-4.6 7.7-12.8 7.7 4.6z"/><path fill="#a29f95" d="M37.6 79l61.9-23.2-31.4 51.8-13.7-38.5z"/><ellipse cx="23" cy="113" fill="#35454f" rx="24" ry="2"/><path fill="#373e2d" d="M201 101h13v4h-13z"/><path fill="#4575b4" d="M19.9 6L-16 30.7l39.9 2.7L-16-.5z"/><path fill="#afc3d9" d="M62 46l16-4-30-5z"/><path fill="#6d6b5f" d="M76 59l9-5-3 21z"/><path fill="#938b7f" d="M240.6 66.7l-21.7-4.6 51.7 40.7-26.7-46.4z"/></g></g></svg>