<svg xmlns="http://www.w3.org/2000/svg" viewBox="0 0 3024 3024"><defs/><filter id="a"><feGaussianBlur stdDeviation="12"/></filter><rect width="100%" height="100%" fill="#583b33"/><g filter="url(#a)"><g fill-opacity=".5" transform="translate(6 6) scale(11.8125)"><circle cx="195" cy="150" r="255" fill="#bdd5d2"/><circle r="1" fill="#fff" transform="matrix(65.9119 26.82205 -11.43232 28.09353 222.1 74.1)"/><circle r="1" fill="#481a06" transform="matrix(37.5566 -1.83682 5.41036 110.62291 130.4 128)"/><path fill="#cdd9d6" d="M0 59h97v82H0z"/><circle r="1" fill="#351308" transform="matrix(1.46155 20.30853 -55.1112 3.9662 115.8 213.6)"/><circle r="1" fill="#226379" transform="matrix(-4.97333 -33.4541 252.22809 -37.49657 136 4.2)"/><circle r="1" fill="#fff" transform="rotate(-163.5 120.8 27) scale(71.74913 21.7776)"/><path fill="#cc8969" d="M49 161l140 48-1-79z"/><circle r="1" fill="#101214" transform="rotate(32.6 -57.8 246.3) scale(28.69248 34.55893)"/><ellipse cx="15" cy="68" fill="#fff" rx="82" ry="9"/><path fill="#fffff6" d="M63.2 55.7l11.6-21 28 15.6-11.6 21z"/><ellipse cx="78" cy="248" fill="#b6b9b4" rx="187" ry="13"/><circle r="1" fill="#f0c6a3" transform="matrix(32.6555 1.5328 -.8205 17.48051 68.9 184.1)"/><circle r="1" fill="#8e593e" transform="rotate(91.9 -31.2 189.3) scale(10.73208 50.33085)"/><circle r="1" fill="#969b97" transform="matrix(58.37813 25.1416 -19.66842 45.66955 46 132)"/><path fill="#fff" d="M151 49l69-5-61-13z"/><circle r="1" fill="#c2856b" transform="matrix(-17.1435 29.45547 -8.19944 -4.77219 131.2 116.5)"/><path d="M134 26l16-1 12-41z"/><path fill="#1f4957" d="M58 49.8l4.1 11.1-41.1.4 26.7-27.2z"/><circle r="1" fill="#684332" transform="matrix(-21.45215 -22.02714 5.41944 -5.27797 52.5 208)"/><path fill="#261d17" d="M113.5 188.9l7.7 26.9-32.7 9.3-7.7-26.9z"/><circle r="1" fill="#1c140f" transform="matrix(-6.1765 -18.51176 7.73535 -2.58092 103.3 103.6)"/><path fill="#cf9171" d="M113 227l70 1 27-26z"/><path fill="#b8bbb6" d="M-1 207l-5 29 90-2z"/><path fill="#462b1a" d="M130.4 116.2l36-25.2 13.2 18.8-36 25.2z"/><circle r="1" fill="#fff" transform="matrix(27.911 13.33596 -8.9912 18.81781 228.2 78.8)"/><ellipse cx="172" cy="234" fill="#0d0a05" rx="30" ry="3"/><path fill="#1a1012" d="M115 201h64v11h-64z"/><path fill="#ffabb2" d="M143.9 182.9l3.8 1.5-36.1 1.2 59.3 14.7z"/><path fill="#ecf1f1" d="M111 34h16v6h-16z"/><ellipse cx="40" cy="68" fill="#fff" rx="54" ry="7"/><path fill="#ead7bc" d="M84 184.7l33.4-.4-45.5 20.3-27.8-9.7z"/><circle r="1" fill="#949f9c" transform="matrix(-17.02914 -27.25283 18.03416 -11.2688 208.8 122.3)"/><path fill="#17201a" d="M279 137.3l-.8 1.8L165 88.7l.8-1.8z"/><ellipse cx="239" cy="18" fill="#5f848e" rx="80" ry="24"/><circle r="1" fill="#afa28e" transform="matrix(16.751 11.79805 -4.9817 7.07307 66.8 41.2)"/><ellipse cx="176" cy="153" fill="#b6734e" rx="11" ry="52"/><path fill="#573126" d="M113 195l18-61v47z"/><ellipse cx="130" cy="84" fill="#2b221c" rx="36" ry="13"/><ellipse cy="24" fill="#3b5e6c" rx="35" ry="36"/><path fill="#edeee0" d="M73 163h7v43h-7z"/><path fill="#cf8663" d="M74 195l-49-20 45-5z"/><path fill="#755239" d="M164 87l-11 53 19 46z"/><path fill="#7598a6" d="M115 10h30v12h-30z"/><ellipse cx="65" cy="149" fill="#909d9d" rx="35" ry="25"/><path fill="#eff8f5" d="M99.4 49.5L73.7 33l8.2 19.5 13.2 7.6z"/><path fill="#f8fdfa" d="M159 58h78v14h-78z"/><circle r="1" fill="#b8c2be" transform="matrix(27.36585 12.12688 -1.7504 3.95 240.3 113)"/><path fill="#fff" d="M154 35h27v13h-27z"/><path fill="#f8fcf5" d="M78.7 65.4L20.1 82.2l-2.8-9.6 58.6-16.8z"/><circle cx="126" cy="125" r="9" fill="#dea487"/><path fill="#a2a9a5" d="M225 41l-45 16 91-5z"/><ellipse cx="61" cy="80" rx="7" ry="2"/><path fill="#363837" d="M107.6 57.9l-6.1 27.9 57.4-52-69.1 9.6z"/><path fill="#b8826d" d="M116 107l35-1-22-12z"/><path fill="#cacfca" d="M271 144.7l-32-19.3-6.3-5.7-38.4-10z"/><circle r="1" fill="#97a09c" transform="matrix(35.36333 17.37784 -35.27481 71.78308 0 153.8)"/><path fill="#75807d" d="M271 221l-101-20 70-42z"/><path fill="#301b15" d="M142.9 140.3l-11.4-12.6 15.6-14 11.4 12.6z"/><ellipse cx="166" cy="192" fill="#e49f80" rx="18" ry="7"/><path fill="#636052" d="M238 63h17v4h-17z"/><path fill="#797060" d="M154 56h48v2h-48z"/><path fill="#2c3838" d="M253 15h3v36h-3z"/><path fill="#eaa384" d="M177 208h25v13h-25z"/><ellipse cx="98" cy="17" fill="#45707e" rx="21" ry="29"/><circle r="1" fill="#7d7a6d" transform="matrix(.04228 -.9991 35.3563 1.49613 170.6 49.3)"/><path fill="#827567" d="M93.1 197.8l-15.3-21.7 4.5-8.5 13.2 16.6z"/><path fill="#c4906c" d="M165 177l-18-32-10 35z"/><path fill="#915241" d="M62 225l-6-25 50 24z"/><path fill="#795744" d="M113 225h90v9h-90z"/><circle r="1" fill="#949994" transform="matrix(3.64876 -22.20488 41.06766 6.74834 237.8 243.6)"/><path fill="#222121" d="M114 185l1 34 53-10z"/><circle cx="82" cy="78" r="3" fill="#231f0d"/><path fill="#62322b" d="M168.2 187.6l7.8-10.1-10.2.8-16.8 7.9z"/><path fill="#e5f0f5" d="M232 44.3l5.1-.7 6.6 6-28.1 2.3z"/><path fill="#a1a9ac" d="M170 19l47 11-9 10z"/><ellipse cx="110" cy="161" fill="#a77054" rx="12" ry="29"/><path fill="#32251a" d="M123.7 228.6l-.6 6-48.8-5.2.6-6z"/><path fill="#f5ead5" d="M101.5 192.4l-22-37.8.1 9.6 27.6 25.3z"/><circle r="1" fill="#322d29" transform="matrix(-4.16355 30.00507 -13.45007 -1.86635 109 70.5)"/><path fill="#7b3e30" d="M167 201l21-13-8 21z"/><path fill="#314444" d="M62 210l-31-9v-10z"/><path fill="#eeefde" d="M61.6 54l-1.5 20.5 36.6-.3-12.3-16.3z"/><path fill="#86867a" d="M198 92l-32 9 2-22z"/><path fill="#295666" d="M31 12.2l34.7.8 8.7 12.9-24.1-5.1z"/><path fill="#f1f8f5" d="M221.7 44l-69.2-12.1 16.3 21-7.9-5z"/><path fill="#f2f1e6" d="M178 100l13 8-3-8z"/><path fill="#4d392d" d="M93.7 106.7l1.5-44.2 9.2 75.8 21.5-25.4z"/><path fill="#000706" d="M207 108l-3 5 12-4z"/><ellipse cx="185" cy="53" fill="#fcfffa" rx="28" ry="2"/><path fill="#b2bfba" d="M36.1 44.3L15.8 62.9l15 26-18.3-31.5z"/><path fill="#1a1f22" d="M148.7-1.3l9.5 3-9 27.6-9.4-3z"/><path d="M251.3 130l-7-1 .4-3 7 1z"/><path fill="#f4faf7" d="M257 117l-91-50 98 1z"/><path fill="#5c5649" d="M16 81h29v3H16z"/><path fill="#cea084" d="M184 145l-17-30 20 8z"/><path fill="#3f2621" d="M80.1 199.8l23.7-7.4-12.4 24-15.5-2.3z"/><ellipse cx="179" cy="18" fill="#17454d" rx="12" ry="3"/><path fill="#4d4136" d="M151.8 21.3l-19 52.3 58 46.7-31.9-10.8z"/><path fill="#d8d5cb" d="M27 77v10l12-3z"/></g></g></svg>