<svg xmlns="http://www.w3.org/2000/svg" viewBox="0 0 1200 1800"><defs/><filter id="a"><feGaussianBlur stdDeviation="12"/></filter><rect width="100%" height="100%" fill="#623f33"/><g filter="url(#a)"><g fill-opacity=".5" transform="translate(3.5 3.5) scale(7.03125)"><circle r="1" fill="#ffffd9" transform="matrix(-23.73895 2.0637 -7.4806 -86.04973 154.3 46)"/><circle r="1" fill="#dff1f3" transform="rotate(96.2 -54.6 72.4) scale(126.40923 19.11433)"/><ellipse cx="32" cy="171" fill="#908e86" rx="22" ry="169"/><circle r="1" fill="#1f1a0c" transform="rotate(-173.4 52 81.2) scale(29.35721 78.26917)"/><path fill="#8d7b7e" d="M122 205l8-171 55 235z"/><path fill="#ece6df" d="M47 43L-5 17l31 49z"/><path fill="#8b6344" d="M67.8 7L55.2 41.9-7.8 19 4.8-15.8z"/><circle r="1" fill="#867161" transform="matrix(29.90239 -17.55387 10.21767 17.40543 107.2 67.2)"/><path fill="#d6efff" d="M-7.8 180.2l21-.4.6 34-21 .4z"/><circle r="1" fill="#f0dbc8" transform="matrix(3.08028 62.31334 -3.93098 .19432 15.4 90.4)"/><ellipse cx="164" cy="46" fill="#e4b493" rx="28" ry="83"/><path fill="#2c4e4b" d="M154.9 221.6l-17.1 59.6L79 264.4l17.1-59.6z"/><ellipse cx="50" cy="252" fill="#768b8b" rx="64" ry="4"/><path fill="#253742" d="M-16 62L8 76l3-45z"/><circle r="1" fill="#384244" transform="matrix(-11.90112 -18.2257 39.87543 -26.03808 85.8 30.4)"/><path fill="#665c56" d="M36.6 261.5l-26.8-2.8 15.6-148.2 26.8 2.8z"/><path fill="#6f6f7b" d="M113 146h28v27h-28z"/><ellipse cx="156" cy="238" fill="#99856b" rx="8" ry="95"/><path fill="#aac6e0" d="M13 220l3 51-16-46z"/><path fill="#2b4065" d="M142.6 92.4l-17.7-64.1 9.2 16.3-5.2 50.2z"/><circle r="1" fill="#78766f" transform="matrix(3.43704 -9.22069 42.3739 15.795 92.1 0)"/><circle r="1" fill="#d3ab87" transform="rotate(23.9 -189.6 424.8) scale(11.95022 20.61238)"/><circle r="1" fill="#6a5c4f" transform="matrix(-17.10974 -21.56393 7.23392 -5.7397 34.1 87.3)"/><path fill="#483e39" d="M144 137l-16 63 57-80z"/><path fill="#8a6249" d="M49 42.7L-3.5 13.6 11-12.7l52.5 29.1z"/><path fill="#ccb8aa" d="M49 26.9L14.2 142.8l17.5-91.3-20-3.7z"/><ellipse cx="169" cy="206" fill="#33326d" rx="6" ry="67"/><path fill="#3a2315" d="M54 169h49v78H54z"/><ellipse cx="66" cy="175" fill="#8e5432" rx="3" ry="57"/><circle r="1" fill="#392115" transform="rotate(-55.3 86.6 -51.6) scale(36.65824 8.5879)"/><path fill="#c8c9c6" d="M0 75h16v34H0z"/><path fill="#21140d" d="M125 198l-24-47-24 59z"/><path fill="#bd7067" d="M137 225l8-37-19 12z"/><path fill="#195aac" d="M135 180l-3-20.8 9-1.2 3 20.8z"/><circle r="1" fill="#635e55" transform="matrix(-10.33566 -1.08632 3.7096 -35.2944 49.4 69.4)"/><path fill="#997b5e" d="M41 39.6L32.2 30 79-13.6 87.8-4z"/><ellipse cx="31" cy="182" fill="#1d1e2c" rx="2" ry="42"/><path fill="#414d4f" d="M-.2 256.6L11.7 271-16 172.4V204z"/><ellipse cx="129" cy="252" fill="#13252f" rx="19" ry="11"/><path fill="#603521" d="M72 103h18v80H72z"/><path fill="#6c462f" d="M13.3 25.3L28.5-7l49-3-49.7 43.4z"/><circle r="1" fill="#81685b" transform="matrix(24.24842 25.51851 -6.34396 6.02821 109.9 81.3)"/><path fill="#e2ccba" d="M22 132L9 82l16 15z"/><path fill="#95a0a2" d="M53 246L5 271l89-11z"/><path fill="#535d65" d="M9 48.5l.8-16.3-21.1-13.1L8.5 90.5z"/><path fill="#605b4e" d="M91.2 216.5l-1-7.2 25.4-1.4 49.1 18.3z"/><ellipse cx="129" cy="130" fill="#b76c64" rx="4" ry="28"/><ellipse cx="147" cy="234" fill="#5f4637" rx="4" ry="103"/><path fill="#4e3b30" d="M32 267l-18.8-2.2 2.7-21.9 18.9 2.3z"/><path fill="#061a27" d="M44.6-6.2l3.3 12.1 5.2 5L72.3-16z"/><ellipse cx="132" cy="85" fill="#20599f" rx="5" ry="12"/><path fill="#c1b8b9" d="M13.4 155.1L-16 133.5l36 15.2-6.5 62.6z"/><path fill="#283327" d="M109 213l-46 40 58-19z"/><path fill="#33343b" d="M32 87h2v60h-2z"/><ellipse cx="22" cy="75" fill="#4d443e" rx="5" ry="10"/><path fill="#e5dbcd" d="M12 29h11v35H12z"/><path fill="#737c83" d="M-13.6 131l-.8-23 28-1 .8 23z"/><path fill="#967860" d="M149 151h14v52h-14z"/><path fill="#613821" d="M170 128l-45 8 26 12z"/><ellipse cx="27" cy="131" fill="#633c2a" rx="2" ry="31"/><path fill="#3a393a" d="M73.8 6.5L49 35.4l79.9-9L98.6 5.7z"/><path fill="#716c6b" d="M33 138h20v111H33z"/><path fill="#d9ddd9" d="M29 100h2v29h-2z"/><path fill="#5a5048" d="M124 99l-13-59 19-26z"/><path fill="#c0926b" d="M138.2 82.8L126.8-16l26.5 135.1-7.8 15.7z"/><circle r="1" fill="#636b5a" transform="rotate(156.6 -23.2 112) scale(25.82371 2.40409)"/><circle r="1" fill="#82624f" transform="matrix(-15.03314 26.46897 -3.91277 -2.22227 80.4 91.2)"/><path fill="#c0c7e4" d="M16 175.3l-1.4 36-30.6-33.5 33.7 1.1z"/><circle r="1" fill="#3c291d" transform="matrix(25.03005 -16.05848 14.62935 22.80249 97.7 122.7)"/><path fill="#c7eafa" d="M-14 28l-2-13 32 13z"/><path fill="#c7a489" d="M184 65l1 61-47 5z"/><path fill="#746c66" d="M-16 177.9l44.4-.3 1.7 15.7-46.1-49.1z"/><ellipse cx="74" cy="166" fill="#863e1b" rx="2" ry="44"/><path fill="#496a5e" d="M124.6 227l-39.5 41 31.1-28.6 24.6 7.2z"/><path fill="#1b0f0e" d="M21 85h2v8h-2z"/><path fill="#293832" d="M114 173h8v41h-8z"/><path fill="#516655" d="M101.2 231l-13.9 31 20.9-18.8-24.4-4.4z"/><path fill="#b5a59c" d="M29.5 65.6L27.4 67l-3.8-34.3L52 34.8z"/><path fill="#694d41" d="M80.3 44.7l50 9.7 11.9 55.1-8.8-69z"/><path fill="#5c8298" d="M0 28h11v6H0z"/><path fill="#3d2319" d="M87 22h30v16H87z"/><path fill="#7c685f" d="M127.9 193.5l-12.4-1.1 27.5-13.2-30.2-39.8z"/><path fill="#fff" d="M7 102l-23-4 17 8z"/><path fill="#553725" d="M68.2 95.8L53.5 197.4l4.1-124.3 45.8-45.4z"/><path fill="#151819" d="M95 94h20v14H95z"/><path fill="#a29583" d="M90.1-6.3l17.6 3.8-1.8 8.8-17.6-3.8z"/><path fill="#2f1a10" d="M66.1 253.7l28.6-22.8-12.1-59.1-4.8 12.9z"/><path fill="#a55945" d="M128 159l8-24 8 11z"/><path fill="#5e4029" d="M74 126l32-13-25-13z"/><ellipse cx="36" cy="212" fill="#948f89" rx="1" ry="76"/><ellipse cx="24" cy="193" fill="#846d5f" rx="5" ry="48"/><path d="M71 156h1v79h-1z"/><path fill="#767677" d="M111.5 22.3l9.4-6.2 3.9-25.6-10.9 21.1z"/><path fill="#672522" d="M142 240l3-23h-9z"/><path fill="#938786" d="M127 49h2v51h-2z"/><path fill="#8c9396" d="M16.9 247.7L5 234.2l-.4 23.9-6.1.9z"/><path fill="#776554" d="M36 69h18v86H36z"/><path fill="#b19b9c" d="M140 143l-8 7-5-5z"/><path fill="#5b534e" d="M57 79l-6-48-16 43z"/><path fill="#74706f" d="M-16 94V84l32 18z"/></g></g></svg>