<svg xmlns="http://www.w3.org/2000/svg" viewBox="0 0 1800 1200"><defs/><filter id="a"><feGaussianBlur stdDeviation="12"/></filter><rect width="100%" height="100%" fill="#5f443a"/><g filter="url(#a)"><g fill-opacity=".5" transform="translate(3.5 3.5) scale(7.03125)"><circle r="1" fill="#71c6ff" transform="matrix(254.93437 -5.78527 1.32106 58.21404 105.7 27.6)"/><circle r="1" fill="#e5f2f2" transform="matrix(84.90867 7.88881 -2.19657 23.64206 4.2 32.7)"/><ellipse cx="134" cy="88" fill="#324c5e" rx="154" ry="36"/><circle r="1" fill="#2463a5" transform="rotate(9.8 58.4 1155) scale(102.59767 25.78099)"/><ellipse cx="92" cy="102" fill="#1d291d" rx="12" ry="63"/><path fill="#86a5c0" d="M12 56h31v43H12z"/><circle r="1" fill="#7ea5c9" transform="matrix(124.31012 32.3794 -4.1459 15.91682 72.8 20.5)"/><ellipse cx="96" cy="133" fill="#3c3024" rx="255" ry="20"/><circle r="1" fill="#122449" transform="rotate(-97.1 63.2 16.6) scale(31.45638 8.92997)"/><path fill="#c6c8c5" d="M90.5 65l-27.3 6.3L57.5 47l27.3-6.3z"/><circle r="1" fill="#3a6697" transform="matrix(-44.77836 .1993 -.05525 -12.41278 229.2 84.7)"/><ellipse cx="167" cy="169" fill="#676a6c" rx="81" ry="20"/><circle r="1" fill="#311c02" transform="rotate(-95.4 123.7 -27.2) scale(9.46835 29.85599)"/><ellipse cx="10" cy="47" fill="#e1e4d9" rx="39" ry="12"/><path fill="#57819a" d="M90.9 94.7l31.3-53.6-4 57.5 12.1 8.1z"/><ellipse cx="136" cy="63" fill="#552b16" rx="11" ry="12"/><circle r="1" fill="#04091e" transform="matrix(-8.55102 -9.66323 13.76455 -12.1803 88.5 111.7)"/><path fill="#331108" d="M87.8 41.2l12.6-3 3.8 16.6-12.6 3z"/><path fill="#1f190e" d="M234.5 103.9l32.3-6.9 8.7 41.1-32.3 6.9z"/><path fill="#a6acb1" d="M97 63l48-17-38-11z"/><ellipse cx="194" cy="116" fill="#675648" rx="49" ry="12"/><path fill="#552907" d="M61.3 66l-13.7 2.7L44.7 54l13.7-2.7z"/><path fill="#63829b" d="M57 52l17 51 9-45z"/><circle r="1" fill="#5785b2" transform="rotate(-165 72.3 .2) scale(139.50606 12.58916)"/><circle r="1" fill="#717782" transform="matrix(-2.35307 10.65343 -38.44209 -8.4909 226.7 64.5)"/><path fill="#806a62" d="M44 106l-25 17-20-15z"/><path fill="#093772" d="M67 73.8l-2.1 32-22-1.6 2.2-32z"/><circle r="1" fill="#85a8c4" transform="matrix(-71.27894 -24.6102 2.70664 -7.83927 56.7 20)"/><ellipse cx="7" cy="69" fill="#6a6e72" rx="68" ry="5"/><path fill="#393334" d="M-8 62.9l14-.7 2 39-14 .6z"/><path fill="#6e6568" d="M62 104l-17 38 2-33z"/><ellipse cx="72" cy="155" fill="#372a26" rx="28" ry="10"/><path fill="#597b9e" d="M42.8 99.5L50 63.4 7.3 84.6l19.8 22.2z"/><path fill="#754c3a" d="M93 124h18v25H93z"/><path fill="#6c605a" d="M94.4 164.2l23.3 20.8-88.6-34.5L4.7 185z"/><path fill="#29654b" d="M100 99l3-48-27 28z"/><ellipse cx="245" fill="#2e6094" rx="80" ry="17"/><path fill="#486484" d="M139.9 65l18.5 14.8-53.3 20.2-7.8-15.1z"/><ellipse cx="74" cy="48" fill="#e2e2d6" rx="11" ry="7"/><path fill="#1e1a1b" d="M52 139l40-29-33 2z"/><circle r="1" fill="#49423b" transform="matrix(-2.59363 10.6395 -68.35568 -16.66332 224.3 149.8)"/><path fill="#2b4768" d="M236 77l30-14-22-4z"/><path fill="#939c9f" d="M46 53l-9 14-25-11z"/><circle r="1" fill="#6e7a87" transform="matrix(.26232 -3.77994 32.67878 2.26782 170.7 56.1)"/><path fill="#2f261e" d="M138.3 141.8l-11.1-30.5 69.3-13-57.4-5.6z"/><path fill="#2d527c" d="M174 72l82 8-60 19z"/><path fill="#492514" d="M133 50l-7 6 24 10z"/><path fill="#837986" d="M81 59h34v5H81z"/><path fill="#665243" d="M231 143.3l.5-33.8 17.1 12.2-54.2 23.6z"/><path fill="#2c2016" d="M110 108l2 32 10-29z"/><path fill="#864f3f" d="M77 128h7v26h-7z"/><path fill="#2c292f" d="M-21.4 112.7l-1.4-4.8 44.2-12.6 1.4 4.8z"/><path fill="#653e2a" d="M86.3 85.3L80.2 82l-12.1 60.7 20.7-65z"/><path fill="#6d5646" d="M269.8 106.1l-48.1-10.4 24.2-5.2 25 .5z"/><circle r="1" fill="#abb4b7" transform="matrix(-28.41532 -1.0916 .10327 -2.68822 132.9 48.2)"/><circle r="1" fill="#7294b1" transform="matrix(-36.6004 -5.20966 .86772 -6.09613 221.5 50)"/><path fill="#35343f" d="M68 83l1 39-21-63z"/><path fill="#8b8d9a" d="M200 109h15v3h-15z"/><path fill="#321819" d="M86 51h17v6H86z"/><path fill="#26190f" d="M185 150l17-21-2-13z"/><path fill="#114787" d="M43 75h8v33h-8z"/><path fill="#828489" d="M195.7 54.4l49 18.7-4.5-17.1-44.5 2.1z"/><path fill="#a4c1d3" d="M-7.3-16H-16l14.7 51.6 47.6 9.8z"/><circle r="1" fill="#d1d9d3" transform="matrix(-.06125 3.91246 -53.99665 -.84527 32.8 47)"/><path fill="#5a6572" d="M180 51l-48 25 106-2z"/><path fill="#6082a4" d="M71 68h6v35h-6z"/><path fill="#33261b" d="M.2 118.1l26.3 6-2.7 11.8-26.3-6z"/><path fill="#8e8280" d="M177.9 105l2.4-4.4 7.8 4.4-2.4 4.4z"/><path fill="#30695e" d="M86.8 97.2l11.8 1.9L109.4 54 93.2 73.6z"/><path fill="#695d5b" d="M5 95l26 27 9-15z"/><path fill="#191613" d="M261.1 126.3l-8.7 18-13.5-6.6 8.7-18z"/><path fill="#4b3023" d="M133 56h2v44h-2z"/><path fill="#6e635f" d="M136 157l90 21-4-24z"/><path fill="#62738b" d="M97.8 57.9l31.3 36.9-5-24 3-23.5z"/><path fill="#5a4841" d="M126 185l-6.4-47-24.4 29.3-5.4-24.5z"/><circle cx="67" cy="66" r="9" fill="#728594"/><path fill="#143627" d="M92 93L79 76l14 3z"/><circle r="1" fill="#412c1c" transform="matrix(.6399 -4.612 44.42063 6.16327 33.8 144)"/><ellipse cx="55" cy="140" fill="#75503d" rx="11" ry="4"/><path fill="#3b2a1c" d="M261.6 93.4l9.4.1-49 29.2-3.8-2.9z"/><path fill="#857b7c" d="M117 102h19v3h-19z"/><path fill="#4a4d56" d="M-16 18.7l22.5 83.1 38.4 6.6-31-13.2z"/><path fill="#433832" d="M181.1 145.4l43.8.5 21.1-8.4 15.7 28.1z"/><path fill="#3f4753" d="M126 92.6l-.9-7.5-20.4 17.7-4 14z"/><path fill="#78706e" d="M249.1 92.7l-14.7 8 22.1-31.4-12.6 25.5z"/><path fill="#6a5d56" d="M172.3 100l13.3 29.9 10.1-10.1-30.4-13.8z"/><path fill="#322920" d="M136.6 146l31.9-26.1-25.6 6.9-8.2-4.7z"/><path fill="#6d7c92" d="M46.4 128.9l2.3-21.9 1 .1-2.4 21.9z"/><path fill="#43251f" d="M93 44h6v20h-6z"/><path fill="#0e2e59" d="M53 72h9v35h-9z"/><ellipse cx="10" cy="58" fill="#a1aeb4" rx="31" ry="3"/><path fill="#503e3a" d="M116.6 66.6l20.2-17.5-1 15.9 8.8-8z"/><path fill="#0e1423" d="M81.7 124.8l-16.2-2 34.7-26-1.4 25.2z"/><path fill="#606c77" d="M159.4 98.6l-24.6-32.8 43.6 3.9-35.1-18z"/><circle cx="52" cy="59" r="8" fill="#47362a"/><path fill="#5982a9" d="M98 11l83 36 90-13z"/><path fill="#846751" d="M206.1 137.8l-2.2 4.5-8-4.1 2.2-4.5z"/><path fill="#5d5659" d="M65 82l13 30-16-13z"/><path fill="#89aac3" d="M77.3 45.1L4 15.5 10.7-1 84 28.5z"/><circle r="1" fill="#759bbe" transform="matrix(-7.38958 11.12221 -45.93731 -30.52068 42.4 0)"/></g></g></svg>