<svg xmlns="http://www.w3.org/2000/svg" viewBox="0 0 1800 1200"><defs/><filter id="a"><feGaussianBlur stdDeviation="12"/></filter><rect width="100%" height="100%" fill="#2d3358"/><g filter="url(#a)"><g fill-opacity=".5" transform="translate(3.5 3.5) scale(7.03125)"><circle cx="98" cy="86" r="97" fill="#a19c90"/><circle r="1" fill="#7c98ff" transform="matrix(16.98381 18.18622 -58.93616 55.0395 140.5 108)"/><circle r="1" fill="#221e00" transform="matrix(-35.22046 49.92818 -21.8946 -15.44494 44.1 160.3)"/><ellipse cx="30" cy="25" fill="#73612c" rx="192" ry="42"/><ellipse cx="243" cy="97" fill="#0b0900" rx="27" ry="144"/><path fill="#fffffb" d="M165.6 159.2l-5.6-11.4-38.3 1 35.4 34z"/><circle r="1" fill="#82a8ff" transform="matrix(-6.97313 -32.7635 15.97698 -3.40041 40.4 91.4)"/><path fill="#0c161a" d="M87 113l1-80-44 85z"/><path fill="#403004" d="M35.7 193.1l-28.8 3.5L-13.7 29l28.8-3.5z"/><ellipse cx="94" cy="55" fill="#ffcf9d" rx="6" ry="57"/><path fill="#3a3f3c" d="M180 71h44v99h-44z"/><circle r="1" fill="#8d9eec" transform="matrix(5.05672 -25.53832 36.29702 7.187 141.3 112.3)"/><circle r="1" transform="matrix(-31.29432 22.32202 -7.85472 -11.01191 199.2 16.2)"/><circle r="1" transform="matrix(-29.66767 3.01353 -.68331 -6.7271 112.6 168.9)"/><ellipse cx="52" fill="#c3a278" rx="45" ry="18"/><path fill="#f8f2c5" d="M183.3 185l27.9-34.3 4.6 20.6-21.9 7.6z"/><path d="M147.5 149.3l16.3 1.9-23.9-17.9-12.1 9.5z"/><circle r="1" fill="#000003" transform="matrix(-11.22522 1.5669 -2.298 -16.46275 40.6 32.7)"/><circle r="1" fill="#6878d5" transform="matrix(1.38294 31.6746 -22.14992 .96709 105 130)"/><circle r="1" fill="#c5d5ff" transform="rotate(-179.4 62.6 50.4) scale(24.44103 7.82818)"/><path fill="#938e7c" d="M201 32h17v36h-17z"/><path fill="#cbcdc1" d="M8 113h10v22H8z"/><circle r="1" fill="#4450a3" transform="rotate(52.1 -57.9 195.8) scale(10.87254 30.71595)"/><ellipse cx="46" cy="85" fill="#a0b4fd" rx="17" ry="12"/><ellipse cx="129" cy="33" fill="#fff" rx="4" ry="10"/><circle cx="168" r="10" fill="#8cfec9"/><path fill="#4c492a" d="M131 84l27-82-67 97z"/><path fill="#ffe" d="M162 151.1l3 34-21 1.8-3-34z"/><path fill="#293876" d="M213.7 46.3l-25 108.1-20.4-4.7 25-108.1z"/><path fill="#c1d1f2" d="M166 140l-25-5 22-40z"/><path fill="#9cb0fb" d="M176 49l-52 61 72-45z"/><ellipse cx="2" cy="99" fill="#0d1614" rx="7" ry="104"/><ellipse cx="23" cy="17" fill="#b7a27d" rx="7" ry="29"/><path fill="#ecf9ff" d="M151.8 54.7l-9.9-6.7-3.9 5.8 2.8 5.1z"/><path fill="#1f1f1d" d="M84.8 78.4l-.3 60.7-14-74.5L84.7 7.9z"/><ellipse cx="90" cy="145" fill="#929df0" rx="8" ry="31"/><ellipse cx="116" cy="26" fill="#c28e31" rx="4" ry="64"/><circle cx="48" cy="160" r="33" fill="#353b32"/><path fill="#000204" d="M123.6 157.9l51.7 27.1H56.8l41.8-20.6z"/><ellipse cx="253" cy="77" fill="#181a0d" rx="38" ry="98"/><path fill="#3d4733" d="M157.3 35.4l-41-15.7 10.4-27.1 41 15.7z"/><circle r="1" fill="#8c6022" transform="matrix(-5.83963 .31626 -2.40808 -44.46387 13 39.6)"/><path fill="#805826" d="M15.9 133.4l76.9-25.2L28 137.8 7.7 43.7z"/><path fill="#d4a776" d="M92.7-16L81.8 16.1l16 58.3V62.2z"/><circle r="1" fill="#383521" transform="matrix(-12.32 -7.87897 16.23609 -25.38767 208.3 139.3)"/><path fill="#f8f8d9" d="M128 156l14-10 34 39z"/><path fill="#4556a7" d="M127.2 114.8l-38.9-7.6 13 24.5 1.1 24.9z"/><path fill="#7a8ab4" d="M225 48l-26 12-1 17z"/><path fill="#191e28" d="M213 69l-28-54-24 14z"/><path fill="#6a8bcd" d="M34 117l-9-13 54-1z"/><ellipse cx="93" cy="88" fill="#cd9b65" rx="9" ry="15"/><path fill="#927a5e" d="M85.3-16l-48.6 3.2L77 93.7 54.5 74z"/><circle r="1" fill="#141d30" transform="rotate(-159.1 90.5 58.2) scale(15.44295 5.4704)"/><path fill="#9d958b" d="M220.9 36.2l-32.2.4L222.1 22 219 34.8z"/><path fill="#4b5da8" d="M182.5 154.9l-13.6 3.5-9.8-15.5 16.3-30.5z"/><circle r="1" fill="#1d2677" transform="rotate(97.4 24.3 122) scale(12.79994 3.31944)"/><circle r="1" fill="#7a765c" transform="rotate(132.8 62.4 124) scale(18.28371 5.04117)"/><path fill="#c6d3fc" d="M139.1 103.4l-7.9 14.7-35-20.1 31.8 3.2z"/><circle r="1" fill="#1c274f" transform="matrix(6.55375 -3.5815 9.47664 17.34122 193.5 88)"/><path fill="#232000" d="M181 159l-17-7 4 31z"/><path fill="#52513c" d="M242.4 166.8L227 177.9l-19.4-26.7 15.4-11.1z"/><circle cx="145" cy="64" r="7" fill="#323619"/><circle r="1" fill="#9a8461" transform="matrix(-.40863 -1.9939 55.68523 -11.412 41.5 123.5)"/><path fill="#a7befc" d="M178.9 83.7l-4.5 13-19.2 18.6-3.5-10.6z"/><path fill="#7689d4" d="M51.8 82.2L36.7 53.9l-11.9 6.2-5.3 13.8z"/><path fill="#37455a" d="M103-6l12 62-16-13z"/><path fill="#ffffc6" d="M143 127h11v11h-11z"/><path fill="#3d4ca1" d="M136.7 124.8l54.2-61.2-11.8 14.9-23.5 12.4z"/><path fill="#85ab82" d="M184.3 8.3l-.1-12L166.1-16 156 9.9z"/><path fill="#010605" d="M0 185.3l-21.1-49.7 21.1-9 21.1 49.8z"/><path fill="#afa082" d="M108 0h7v30h-7z"/><path fill="#5d6ebb" d="M197 49l-41 20 22-26z"/><path fill="#d0d9d1" d="M14.4 121l.2 14h-7l-.2-14z"/><path fill="#e2e3d3" d="M212.8 161.4l-46.3 21 43-10 6.6 11z"/><circle r="1" fill="#2a2b23" transform="matrix(1.3669 -.22702 23.26991 140.10663 15.4 117.6)"/><circle r="1" fill="#060300" transform="matrix(4.7403 -3.0511 5.27988 8.20298 206 138.4)"/><path fill="#96adee" d="M175 65h30v6h-30z"/><path fill="#97671e" d="M117 10h5v79h-5z"/><path fill="#3e41a1" d="M89 145h5v25h-5z"/><path fill="#1e201f" d="M156 139.1l-36.6 11.5 21.2-13.4 32.3 24.1z"/><path fill="#21272c" d="M65.7 97.3l24.7-50.2-9.8-31.2L72 72z"/><path fill="#0c0f0f" d="M236.5-16l-60.7 60.3 45-24.9L271 70z"/><path fill="#4058af" d="M42 86l12 25-10 10z"/><ellipse cx="152" cy="32" fill="#2c281c" rx="2" ry="37"/><path fill="#8198e3" d="M161.1 146.7l3.9-13.6 16.8-30-32.3 21.8z"/><path fill="#eee5ee" d="M200.8 41.4l1.6-1.2 4.8 6.4-1.6 1.2z"/><path fill="#2e2e2d" d="M220 44l-30 18 4-15z"/><path fill="#a4b7ee" d="M33.9 90.3l2.8 26.5 9.9-52.4-24.2 25.5z"/><path fill="#fff" d="M159 62l-3 4-3-5z"/><path fill="#383f30" d="M123 85l-1-56 15 50z"/><path fill="#132771" d="M28.4 122.5l11.3.3-.4-3.9-13.7-6.6z"/><path fill="#8b8d88" d="M133.9 157l-2.3-20.8 1.5 5.7-17.5 15.3z"/><path fill="#191d27" d="M30.8 63.5l-10.6-5.9 26.3-40.3-15.3.3z"/><path fill="#7a5826" d="M77.8 114.2l-90.8 26 95.4-16.5 5.5-10.9z"/><path fill="#b5bfc4" d="M128.6 22.4l-1.7 23.1 9.5-17.6 5.2 4.1z"/><path fill="#786041" d="M78.6 13.9l14.2-4.6-13-9.6-22.9 6.9z"/><path fill="#0d1422" d="M105 84h10v10h-10z"/><ellipse cx="106" cy="71" fill="#576168" rx="8" ry="21"/><path fill="#1f2427" d="M72 84l-2-36 20 12z"/><path fill="#314da6" d="M32.9 93.5l2.1 13.8-7.9 1.2L25 94.7z"/></g></g></svg>