<svg xmlns="http://www.w3.org/2000/svg" viewBox="0 0 1800 1200"><defs/><filter id="a"><feGaussianBlur stdDeviation="12"/></filter><rect width="100%" height="100%" fill="#2e3f50"/><g filter="url(#a)"><g fill-opacity=".5" transform="translate(3.5 3.5) scale(7.03125)"><ellipse cx="128" fill="#dde5e4" rx="255" ry="140"/><circle r="1" fill="#001225" transform="rotate(81.3 -21.3 108.5) scale(77.63914 24.9602)"/><ellipse cx="135" cy="152" fill="#2d5e86" rx="249" ry="25"/><circle cx="166" cy="18" r="81" fill="#a7bac7"/><circle r="1" fill="#00020b" transform="matrix(8.33313 -4.6533 20.68708 37.04642 101.5 88.6)"/><ellipse cx="18" cy="57" fill="#adb5b3" rx="46" ry="75"/><circle r="1" fill="#ffffe8" transform="rotate(-177.8 49.7 63.7) scale(39.72836 2.77494)"/><path fill="#1b2931" d="M73.2 12.9l14.6 26.8 38.8 87.6-71.4-12.4z"/><path fill="#e8d4be" d="M194 117h62v12h-62z"/><ellipse cx="11" cy="118" fill="#e6cbaf" rx="44" ry="10"/><circle r="1" fill="#c3b0a4" transform="rotate(-69.2 156.7 -52.7) scale(12.77025 33.59765)"/><path fill="#264968" d="M122 128h134v42H122z"/><ellipse cx="141" fill="#96afbd" rx="227" ry="24"/><circle r="1" fill="#807c79" transform="matrix(37.47603 -6.88325 1.46009 7.94948 148.7 87.2)"/><ellipse cx="21" cy="78" fill="#63686e" rx="40" ry="5"/><ellipse cx="243" cy="42" fill="#95a9b6" rx="154" ry="38"/><ellipse cx="39" cy="150" fill="#30516c" rx="132" ry="21"/><path fill="#6e7377" d="M159 93.1l41.3 17.5 69.9 12.9-1.8-27.4z"/><path fill="#4e575c" d="M0 102h75v6H0z"/><path fill="#24313b" d="M52 123l76-1-35-67z"/><ellipse cx="84" cy="128" fill="#fffff7" rx="37" ry="2"/><path fill="#e2c7ae" d="M14 84h45v14H14z"/><circle r="1" fill="#c8b6a4" transform="matrix(-1.7184 -6.01247 27.15317 -7.76056 201.8 84.6)"/><path fill="#90a8b6" d="M73.9 67.8L-16 38.6 80.9-16 59.5 73.4z"/><path fill="#afa69e" d="M113 91l55-14-69-14z"/><path fill="#cbc0b3" d="M249.8 66.4l11.8 65.8-58.2-17 67.6 4.2z"/><path fill="#808589" d="M261 92l-66-20 44 50z"/><ellipse cx="98" cy="138" fill="#3d6281" rx="197" ry="4"/><path fill="#95918c" d="M12.9 80.6l8 51.2L-10.5 67l82.3 1.2z"/><circle r="1" fill="#737b7d" transform="matrix(-4.57823 -61.5059 .99724 -.07423 82.6 69.5)"/><path fill="#f9eddb" d="M107 126h15v7h-15z"/><path fill="#90a5b0" d="M76.6-11.9l-92.6 73 66.8 10.6L65 65.1z"/><circle r="1" fill="#9c9a92" transform="matrix(32.09153 -.16803 .00524 .99999 48.5 90.6)"/><path fill="#30363e" d="M91.6 134.6l-5.3-4.7-46.8 1.1 39.1 6.5z"/><ellipse cx="245" cy="111" fill="#516578" rx="52" ry="4"/><path fill="#0f1e2b" d="M71 24h7v20h-7z"/><circle cx="175" cy="123" r="4" fill="#fffde5"/><path fill="#c8b6a8" d="M174.7 108.8v-1l122.6-8.6v1z"/><path fill="#e5dac3" d="M-2.5 113.8l10.6-3 4.4 15.4-10.6 3z"/><ellipse cx="109" cy="127" fill="#d8cdbb" rx="80" ry="1"/><path fill="#000918" d="M91.8 55l-1 .4L78.2 27l1-.4z"/><circle r="1" fill="#83888a" transform="rotate(118.1 54 96) scale(23.93619 7.06427)"/><path fill="#e1d0bd" d="M194.9 91.5l-13.5-8.6 43.8 7.6-10.4-3.1z"/><path fill="#6a6f71" d="M83.7 112.4l-1.1-6.5 9.2 13.6-6.9 7z"/><circle r="1" fill="#76818b" transform="matrix(3.3832 15.26066 -6.77205 1.50133 138.1 82.3)"/><ellipse cx="103" cy="99" fill="#b0b6ab" rx="10" ry="1"/><path fill="#7b8582" d="M82 72h19v2H82z"/><path fill="#2a5576" d="M0 129h48v4H0z"/><path fill="#a9a49c" d="M41 108h14v15H41z"/><path fill="#dac0ab" d="M143 93h23v5h-23z"/><path fill="#e0caba" d="M126 115h34v4h-34z"/><path fill="#d5beae" d="M163.6 78.7l-37 2.6-.2-4 37-2.6z"/><ellipse cx="240" cy="59" fill="#94a5b1" rx="143" ry="21"/><path fill="#9badb7" d="M43.6 7l11-21.4L96.3 7l-11 21.4z"/><path fill="#dccdb9" d="M111 81l23 5-22 2z"/><path fill="#52585d" d="M61 90l19 31-27 2z"/><ellipse cx="20" cy="164" fill="#486c8b" rx="87" ry="2"/><path fill="#16222d" d="M123 114l6 10-9 1z"/><path fill="#1f2e3b" d="M118.1 128.1L81.4 103l46.3 5.2-5.3 9z"/><path fill="#061928" d="M97.2 62.4l-9.5-17.5-4.8 16.8 33.5 41.7z"/><path fill="#8c8e89" d="M25 99h27v12H25z"/><path fill="#b3ada2" d="M9 125h63v3H9z"/><circle r="1" fill="#203f5a" transform="matrix(.27266 -4.26125 89.71402 5.74053 203 156)"/><path fill="#dac2a9" d="M240.1 90.2l-1-5.9 13.6 4.6 9.8-15.4z"/><path fill="#395d7d" d="M129 129h127v11H129z"/><path fill="#bfb8ae" d="M271 127.1l-59.5-13.9-2.7 2.2 18 14.2z"/><path fill="#eee1c9" d="M135.5 113.6l-6.1.7-1.4-5.6 6.9-1.4z"/><ellipse cx="154" cy="126" fill="#ddcfbd" rx="31" ry="1"/><ellipse cx="49" cy="70" fill="#9f9b93" rx="34" ry="1"/><path fill="#bea79d" d="M242.8 101.3l1.3 8-9 1.4-1.2-8z"/><path fill="#6d767a" d="M17.7 90.9L15 107 2.4 90.7 3.9 107z"/><path fill="#878d87" d="M66 47h23v2H66z"/><path fill="#60707d" d="M199.7 90.3l21.2 2.2-29.4 21.6 13.7 1.3zM130 81l20 9-14 6z"/><path fill="#485f70" d="M44 114l-1 12h-1l1-12z"/><path fill="#6c7982" d="M236.1 106.1l9.5-6.4L229 79.8l9.1 54z"/><path fill="#cda999" d="M223 76h33v4h-33z"/><path fill="#20415b" d="M30 157l-46-17 92 8z"/><path fill="#8fa3ac" d="M6.5-16l51 52.4 29.4-3.1L-16 54.6z"/><path fill="#091924" d="M87 67l-6-38 13 25z"/><path fill="#6f7981" d="M167.5 100.9l21.6 30.7-16.5 19.5 24.5-28.6z"/><path fill="#5f707e" d="M18 77h40v6H18z"/><circle cx="229" cy="118" r="3" fill="#ffffe3"/><ellipse cx="97" cy="132" fill="#b9ac92" rx="11" ry="1"/><path fill="#586a7a" d="M229 104.3l-5.4 15-4.7-1.6 5.5-15z"/><path fill="#6a7c8a" d="M175.2 70.3l-14.1 14.6 12.5 2.7 7.9-1.7z"/><path fill="#bfb1a6" d="M195.3 77l-.5 28.4h-40.9l40.1 5.8z"/><path fill="#c1b7ac" d="M33.4 97l20.5-12.4-7.5 7.5-14.6 18.4z"/><path fill="#798793" d="M170.1 113.7L150.2 130l40.7-2.1-27.5 2.4z"/><path fill="#5b6c7b" d="M42 106l19-14-7 14z"/><path fill="#7b8287" d="M203 121h11v5h-11z"/><path fill="#dacfc1" d="M175 111l-20 1 11 4z"/><path fill="#7f848d" d="M151 117l24-17-34 12z"/><path fill="#cdc5b7" d="M38 126l20-18-12 19z"/><path fill="#cfbcaf" d="M204.4 87.3l.2-5 13 .4-.2 5z"/><path fill="#a0a09d" d="M102.9 67.1l21.1 45.3-.9.5L102 67.6z"/><path fill="#f1dfcc" d="M213 119.6l-6-3.8 2-3.4 6 3.8z"/><path fill="#bdb0a7" d="M11.5 82.9l5.9-5.8-22.1 1.6-9.5-4.2z"/><circle cx="97" cy="88" r="10" fill="#0c1d2a"/><path fill="#fff3d2" d="M247 122h9v3h-9z"/></g></g></svg>