<svg xmlns="http://www.w3.org/2000/svg" viewBox="0 0 1800 1200"><defs/><filter id="prefix__a"><feGaussianBlur stdDeviation="12"/></filter><rect width="100%" height="100%" fill="#38666e"/><g filter="url(#prefix__a)"><g transform="translate(3.5 3.5) scale(7.03125)"><circle r="1" fill="#fff7ff" fill-opacity=".5" transform="matrix(185.01167 52.5329 -27.09212 95.4137 106.9 16.3)"/><circle r="1" fill="#c5c9e6" fill-opacity=".5" transform="matrix(-64.05387 -3.86706 9.32786 -154.50637 142.5 138.9)"/><ellipse cx="72" cy="40" fill="#4f5462" fill-opacity=".5" rx="12" ry="199"/><ellipse cx="211" cy="139" fill="#4261ad" fill-opacity=".5" rx="68" ry="27"/><circle r="1" fill="#fdfaf0" fill-opacity=".5" transform="matrix(23.47936 .2827 -1.26975 105.455 150 27)"/><path fill="#a5a5c2" fill-opacity=".5" d="M-16 141.4v-29.9l106.6 23.2-9 25.5z"/><circle r="1" fill="#6779a5" fill-opacity=".5" transform="rotate(108.1 106 97.4) scale(79.58634 29.41186)"/><path fill="#002a30" fill-opacity=".5" d="M127.7 140.3l-4 .5-17.4-165.1 4-.5z"/><path fill="#153f50" fill-opacity=".5" d="M0 92h78v22H0z"/><circle r="1" fill="#cac1c2" fill-opacity=".5" transform="matrix(-3.25555 -23.46151 57.395 -7.96421 14.2 70.3)"/><circle r="1" fill="#181c3d" fill-opacity=".5" transform="rotate(-160.8 70.5 75) scale(17.72592 14.56184)"/><ellipse cx="112" cy="126" fill="#4a76b7" fill-opacity=".5" rx="25" ry="14"/><path fill="#d0baa5" fill-opacity=".5" d="M135 157h71v13h-71z"/><path fill="#b4d8fe" fill-opacity=".5" d="M88 18h24v93H88z"/><ellipse cx="74" cy="18" fill="#3d4d53" fill-opacity=".5" rx="5" ry="127"/><circle r="1" fill="#36283d" fill-opacity=".5" transform="matrix(-67.03762 -7.15314 2.13052 -19.96675 20.9 169)"/><path fill="#4f71a0" fill-opacity=".5" d="M231.8 170.2l39.2-59.7-91.7 4.6-72.6 34.5z"/><circle r="1" fill="#c1d0ed" fill-opacity=".5" transform="matrix(39.79307 -4.5792 1.51395 13.15614 255 100.6)"/><path fill="#686f7e" fill-opacity=".5" d="M81.1 60l4.7-3.2L37.7 41 54.5 8z"/><circle r="1" fill="#023344" fill-opacity=".5" transform="matrix(-.45097 2.37904 -41.85524 -7.93416 31.3 141.2)"/><path fill="#c4c4be" fill-opacity=".5" d="M48.9 90.3l17.9-42.9 3.8 29.4-.4 20z"/><circle r="1" fill="#b0bedf" fill-opacity=".5" transform="matrix(-40.19596 -9.9475 1.08714 -4.3929 26.8 129.3)"/><circle r="1" fill="#d1d5d6" fill-opacity=".5" transform="matrix(-8.6607 88.32871 -17.73278 -1.73871 173.2 34.4)"/><path fill="#a89aa5" fill-opacity=".5" d="M39.9 125l-7.7-2.3 8-25.8 7.6 2.4z"/><ellipse cx="203" cy="152" fill="#ebe0c9" fill-opacity=".5" rx="2" ry="44"/><path fill="#83a8e4" fill-opacity=".5" d="M113.2 49.5l-25.9 1.8-4.5-64.8 25.9-1.8z"/><ellipse cx="155" cy="149" fill="#32527e" fill-opacity=".5" rx="30" ry="7"/><path fill="#e6efe9" fill-opacity=".5" d="M85 92h35v21H85z"/><path fill="#234f58" fill-opacity=".5" d="M45 95h34v29H45z"/><path fill="none" stroke="#3f4440" stroke-opacity=".5" stroke-width=".5" d="M168 27.4q18 67.3 41.2 152.8"/><circle cx="172" cy="169" r="7" fill="#fff" fill-opacity=".5"/><ellipse cx="252" cy="14" fill="#528ad8" fill-opacity=".5" rx="6" ry="62"/><path fill="#6183b3" fill-opacity=".5" d="M84 113h50v33H84z"/><path fill="#abafc9" fill-opacity=".5" d="M63 110h10v7H63z"/><ellipse cx="140" cy="9" fill="#eeeff0" fill-opacity=".5" rx="16" ry="54"/><path fill="#d1d6d8" fill-opacity=".5" d="M138 135l-13-60 62 30z"/><path fill="#aeaeb4" fill-opacity=".5" d="M0 0h43v92H0z"/><circle r="1" fill="#81aee2" fill-opacity=".5" transform="rotate(-97.1 81.1 -32.7) scale(44.94214 3.74616)"/><path fill="#4e74ac" fill-opacity=".5" d="M205 113h51v28h-51z"/><ellipse cx="252" cy="169" fill="#0c2978" fill-opacity=".5" rx="37" ry="9"/><path fill="#b8b6b5" fill-opacity=".5" d="M57.9 10.9L71 16.5 62.4-16 16.3 32.6z"/><circle r="1" fill="#3b4e70" fill-opacity=".5" transform="matrix(-2.87123 26.95492 -4.59229 -.48917 81.2 8.4)"/><path fill="#60666b" fill-opacity=".5" d="M173.9 47.4L157.2-7.1l1-.3 16.6 54.5z"/><path fill="#395546" fill-opacity=".5" d="M117.5 81h1l14 100h-1z"/><path fill="#556c82" fill-opacity=".5" d="M190.2 103.9l-6.5-19.4L195.4 185l7.8-39.4z"/><path fill="#747b87" fill-opacity=".5" d="M10 21l24 17-50-13z"/><path fill="#3e4e69" fill-opacity=".5" d="M181 185L59.1 142.3l42.9 10.9-11.8 9.3z"/><path fill="#738ebc" fill-opacity=".5" d="M199 155h57v7h-57z"/><path fill="#9abae8" fill-opacity=".5" d="M254.1 97.3L241.3 95l8.6-48.3 12.8 2.3z"/><path fill="#979db6" fill-opacity=".5" d="M101 169l-64-21h38z"/><path fill="#a2adba" fill-opacity=".5" d="M191 2h14v108h-14z"/><path fill="#728198" fill-opacity=".5" d="M78 27h7v113h-7z"/><path fill="#7d98be" fill-opacity=".5" d="M96.2 132.1l91.4 5.9-86.2 15-32.7-15.2z"/><circle r="1" fill="#285464" fill-opacity=".5" transform="rotate(14.4 -536 185.4) scale(36.13323 2.82825)"/><path fill="#264b86" fill-opacity=".5" d="M206 144l65 19-34-27z"/><path fill="#194f54" fill-opacity=".5" d="M121.3 97.2l-5.1-64-4.7-49.2h-4.1z"/><path fill="#adb2b4" fill-opacity=".5" d="M76.5 95.5L56.2 58.2 17.6 78.4l47.7 18.1z"/><ellipse cx="9" cy="169" fill="#08060d" fill-opacity=".5" rx="10" ry="5"/><circle r="1" fill="#7c7679" fill-opacity=".5" transform="matrix(.64732 -1.22198 27.73226 14.69072 147.5 165.7)"/><path fill="#254b58" fill-opacity=".5" d="M39.8 69l15 51.5L64.5 96l-21.2-.1z"/><path fill="#b1bac4" fill-opacity=".5" d="M74 7h1v62h-1z"/><ellipse cx="76" cy="61" fill="#32353e" fill-opacity=".5" rx="2" ry="34"/><path fill="#c2cede" fill-opacity=".5" d="M268 112l-25-19-49 18z"/><circle r="1" fill="#8694ab" fill-opacity=".5" transform="matrix(11.69446 13.31153 -25.15753 22.10143 221.9 79.1)"/><path fill="#d6c6ab" fill-opacity=".5" d="M197.9 152.4l3.3.8 3.3 22.7-1.7 5.9z"/><path fill="#5d7088" fill-opacity=".5" d="M-3 160.5l.2-4 41.9 3-.3 4z"/><path fill="#d8dfe4" fill-opacity=".5" d="M121.7 87.1l7.4 28.6L156.7-16l21.7 97.6z"/><path fill="#364943" fill-opacity=".5" d="M76 129l-16-21 10 30z"/><path fill="#405d82" fill-opacity=".5" d="M178 140h25v16h-25z"/><path fill="#79a4da" fill-opacity=".5" d="M113.2.1l14.4-15.8-4.4 6-2.6 75.9z"/><circle r="1" fill="#676e6e" fill-opacity=".5" transform="matrix(.43161 -3.13507 45.56962 6.27364 48.8 125.7)"/><circle cx="102" cy="88" r="16" fill="#c8dded" fill-opacity=".5"/><path fill="#3e6897" fill-opacity=".5" d="M174.9 120.5l18.9-11.7-8.3 17.1-36.6 2.8z"/><circle r="1" fill="#5b6f91" fill-opacity=".5" transform="matrix(.57503 18.29778 -.9995 .03141 204.3 110.6)"/><path fill="#134247" fill-opacity=".5" d="M33 117l7-16-56 5z"/><circle r="1" fill="#667da0" fill-opacity=".5" transform="matrix(17.79505 1.36925 -.07672 .99705 28.2 95.7)"/><circle r="1" fill="#7787a2" fill-opacity=".5" transform="matrix(17.40986 1.46195 -1.76812 21.05593 220.4 7)"/><ellipse cx="130" cy="120" fill="#4a6f9a" fill-opacity=".5" rx="5" ry="8"/><path fill="none" stroke="#676a69" stroke-opacity=".5" stroke-width=".5" d="M198.7 137.8q-20-64.7-31.7-114"/><path fill="#8d949c" fill-opacity=".5" d="M70 4.8L48.5 15.4 31.7 45.1l39.5-12.8z"/><ellipse cx="79" cy="130" fill="#b0b3b4" fill-opacity=".5" rx="2" ry="15"/><circle r="1" fill="#415e70" fill-opacity=".5" transform="matrix(-26.30893 -4.0822 .29343 -1.8911 73.4 149)"/><path fill="#6a6d72" fill-opacity=".5" d="M171.4 159.2l2.7.8-5.1 5.9-5.8-7.2z"/><circle r="1" fill="#1f1d1e" fill-opacity=".5" transform="matrix(-37.8851 -5.39185 .16637 -1.16896 15 150.3)"/><circle r="1" fill="#b1b9bd" fill-opacity=".5" transform="matrix(14.59363 16.67017 -24.61673 21.55032 18.6 65.5)"/><path fill="#9bb0d1" fill-opacity=".5" d="M16.6 133.1l34.5 1-64.3-16.6 7.9 9.6z"/><path fill="#2f3b48" fill-opacity=".5" d="M240 55l7-5-3 6z"/><path fill="#87919e" fill-opacity=".5" d="M244 104h2v66h-2z"/><path fill="#3f6397" fill-opacity=".5" d="M204 113h52v9h-52z"/><path fill="#d4dadf" fill-opacity=".5" d="M165 11l13 48 9-75z"/><path fill="#ffffef" fill-opacity=".5" d="M201 99h2v21h-2z"/><path fill="#294c4c" fill-opacity=".5" d="M74 108l-3 26 12-28z"/><path fill="#787f85" fill-opacity=".5" d="M69 75h17v22H69z"/><circle r="1" fill="#386c73" fill-opacity=".5" transform="rotate(-94.7 91.5 -19.5) scale(19.25271 3.06692)"/><path fill="#49555f" fill-opacity=".5" d="M72.3 41.4l4.4 52.7L79.1 59 55 41z"/><path fill="#9ebde1" fill-opacity=".5" d="M84 29h28v37H84z"/><path fill="#8d9197" fill-opacity=".5" d="M173 160l28 11-9-18z"/><path fill="#c4d6e5" fill-opacity=".5" d="M122.2 114.3L116 87.2l-31.1-8-.1 10.4z"/><path fill="#e9ebe6" fill-opacity=".5" d="M149 185l50-14-26-10z"/><path fill="#69748b" fill-opacity=".5" d="M99.4 156.6l46.4-16.7 7.8 5.3-58.5 18.4z"/></g></g></svg>