<svg xmlns="http://www.w3.org/2000/svg" viewBox="0 0 1800 1350"><defs/><filter id="a"><feGaussianBlur stdDeviation="12"/></filter><rect width="100%" height="100%" fill="#374c57"/><g filter="url(#a)"><g fill-opacity=".5" transform="translate(3.5 3.5) scale(7.03125)"><circle r="1" fill="#fffff4" transform="matrix(-134.94213 -77.4816 58.28694 -101.51267 139.8 40.5)"/><circle r="1" fill="#fff" transform="matrix(-156.46225 17.94887 -5.05749 -44.08667 98.5 21)"/><ellipse cx="189" cy="134" fill="#6f675d" rx="255" ry="69"/><ellipse cx="144" cy="174" fill="#9fb1b1" rx="61" ry="34"/><circle r="1" fill="#222525" transform="rotate(-29.7 309.7 -65.2) scale(68.525 19.76874)"/><circle r="1" fill="#f6fafc" transform="matrix(-49.1014 -7.43732 5.5059 -36.35006 64 44)"/><circle r="1" fill="#403635" transform="matrix(-3.06262 6.75152 -73.98666 -33.56184 30 76.3)"/><path fill="#413e2e" d="M271 35l-13 59-81 12z"/><path fill="#5a5342" d="M141.9 82.6l4.7-26.8 57.5-16.7-8.3 19.6z"/><path fill="#cac6bc" d="M112 72h77v29h-77z"/><circle r="1" fill="#cbd5d4" transform="rotate(-103.3 164.1 -15.4) scale(6.30664 64.34129)"/><circle r="1" fill="#756f6b" transform="rotate(93.2 -33.6 69.7) scale(27.68314 86.8489)"/><path fill="#181305" d="M241 23.4l8.5 5.2-14.4 24-8.6-5.2z"/><path fill="#304242" d="M193 148.4l-62.7-21.2-22 22.6L209 111.9z"/><ellipse cx="1" cy="157" fill="#171a19" rx="43" ry="26"/><ellipse cx="114" cy="19" fill="#eaeff3" rx="43" ry="53"/><path fill="#000016" d="M232 148h24v18h-24z"/><path fill="#afbdc7" d="M11 101h36v18H11z"/><circle r="1" fill="#d4d6ca" transform="matrix(73.92965 5.32479 -.16547 2.2974 17 128.6)"/><path fill="#d4ccba" d="M212 56l-54 25 79-10z"/><path fill="#c7cdca" d="M99 147h55v18H99z"/><circle r="1" fill="#333c3f" transform="matrix(5.05832 -6.78626 33.39675 24.89317 76.4 117.4)"/><path fill="#586767" d="M153 168h103v24H153z"/><path fill="#acbcbe" d="M195 131h41v29h-41z"/><path fill="#6f491f" d="M90.6 70.3l28 2.4-1.2 13-28-2.4z"/><circle r="1" fill="#1b2219" transform="rotate(25.6 -26.5 592.1) scale(27.74348 6.64876)"/><path fill="#131519" d="M7.9 115.3l-4.4-12.9-19.5 25 57-9z"/><circle r="1" fill="#f1f9fe" transform="matrix(6.5298 50.7052 -27.22104 3.50552 0 6.7)"/><path fill="#414137" d="M205.3 62l1.2-2.5-11 38.6 24.6 5.6z"/><path fill="#3a4748" d="M186.3 86.3l.3-25.7-6.2-27.6-1.7 22.7z"/><path fill="#cbddf3" d="M164 0h92v23h-92z"/><circle r="1" fill="#767772" transform="matrix(35.2056 -2.27664 .15502 2.3972 27.7 164.2)"/><circle cx="251" cy="43" r="10" fill="#edebe9"/><path fill="#c5c1bb" d="M102 89l42-18-26 48z"/><path fill="#34362d" d="M217.5 38.1l5.4 2.9 46.3-11.8-17.5-.4z"/><path fill="#504d44" d="M165 93l-24-25 9-17z"/><path fill="#c1c8ca" d="M176.1 28.4l-32.4 19.8 15.6 11.6 4.9 14.6z"/><path fill="#303537" d="M42.3 190.6l70.2-44.3 22.3-6.3-51-15.2z"/><path fill="#cad5d7" d="M145.2 147.9l18.5 14.5-10.4-28-4.1-7z"/><path fill="#d8d6ba" d="M166 105h12v17h-12z"/><path fill="#696f69" d="M124 158.5l36.3-75.9-14.5 58.6-52 .3z"/><ellipse cx="3" cy="73" fill="#48484c" rx="28" ry="12"/><path fill="#8f887a" d="M196 64l75 66-22-46z"/><circle cx="64" cy="5" r="72" fill="#e0e7ea"/><path fill="#101317" d="M29 106h6v19h-6z"/><ellipse cx="135" cy="166" fill="#1f343c" rx="3" ry="12"/><path fill="#757b79" d="M193 33.1l27.4 14.8-29.1 5.1-6.2-50.4z"/><path fill="#1e151c" d="M176.8 128.5l17.5 4.4-3.1 12.6-17.5-4.4z"/><path fill="#6e7d7d" d="M205.5 142l17-1.7 6 57.7-17 1.7z"/><path fill="#71584b" d="M174.1 118.7l-18.4-5.9-.6-12.8-65 9.2z"/><path fill="#b0bdbb" d="M83.4 163.4l65.3 4.6-51-20.6 18.3-4.7z"/><path fill="#0f1213" d="M35.2 132.3l.6 18-43 1.4-.6-18z"/><path fill="#c4cfcf" d="M230.9 139.4l-14.2-8.9-.8 40.1-19-41.5z"/><path fill="#252d2c" d="M242 19l-8 11 11 12z"/><path fill="#fff" d="M277 127.3l.6 4-44.7 5.4-.5-4z"/><path fill="#bac2c1" d="M213 63.7l-16.2 20.1-50.5-3.6 30-9.3z"/><path fill="#152029" d="M153 156h19v4h-19z"/><path fill="#27201e" d="M7 97h82v3H7z"/><path fill="#272b2a" d="M25 178l66-4-32-30z"/><path fill="#e2dbc1" d="M212 102h8v20h-8z"/><ellipse cx="23" cy="130" fill="#bfc0b6" rx="55" ry="2"/><path fill="#a48f73" d="M96 130L80 76l16-6z"/><ellipse cx="51" cy="191" fill="#7c8282" rx="63" ry="4"/><path fill="#162016" d="M79.6 86.7L62.4 92l-2-6.7L77.6 80z"/><ellipse cx="253" cy="144" fill="#e1ebe2" rx="17" ry="3"/><path fill="#b5c7d1" d="M143 115h-15l1 15z"/><path fill="#1c3b3f" d="M140 126h27v4h-27z"/><ellipse cx="56" cy="15" fill="#c9d8e4" rx="39" ry="21"/><path fill="#daddd7" d="M124 149h80v6h-80z"/><path fill="#3b413a" d="M192 88l22-16-18 54z"/><path d="M192 57l5-5-3-11z"/><circle r="1" fill="#515b5d" transform="matrix(-.33909 -2.2963 14.27224 -2.10754 240.1 141.5)"/><ellipse cx="192" cy="168" fill="#0b1c25" rx="2" ry="13"/><path fill="#88644a" d="M110.9 78.6l22.3-15 4 5.8-22.4 15z"/><ellipse cx="175" cy="169" fill="#274950" rx="58" ry="2"/><path fill="#63615b" d="M168.8 83.2l32.9 67.1-50.9-11.5 31.4-5z"/><path fill="#e1e5e1" d="M144.3 85.2L105 60.3l16.3-1.4 9.2 31.8z"/><path fill="#555c5b" d="M57.6 119.1l.3 48.5-10.5-68.2 61-15.3z"/><path fill="#dbd5ce" d="M22 87h32v3H22z"/><path fill="#e6f2fe" d="M245 26l6-42 20 30z"/><path fill="#efefea" d="M128.2 29.2L-16 47.9l56.5 25.3 23.7 9.3z"/><path fill="#2a2d31" d="M77 136h25v21H77z"/><path fill="#273a44" d="M182 178l-5 .7-3-20.7 5-.7z"/><path fill="#b8af9e" d="M261.4 43.4l5.1 21.7-47.2-25.5-11.1 32.5z"/><circle r="1" fill="#c0bba8" transform="matrix(.99988 -.0157 .45338 28.86042 232.2 88)"/><circle cx="94" cy="112" r="4" fill="#e7f0fd"/><path fill="#eaf6ff" d="M216 23h19v11h-19z"/><circle r="1" fill="#637776" transform="matrix(-47.59375 -127.29528 .93667 -.3502 180.3 61.3)"/><path fill="#f6ffff" d="M201 135h18v7h-18z"/><ellipse cx="238" cy="122" fill="#3a3e41" rx="17" ry="2"/><path fill="#2f2f26" d="M179 51h7v19h-7z"/><path fill="#606b6e" d="M10.5 160.4l3.2-25.2 6.6 27.6-29.4 9.7z"/><path fill="#aebbbb" d="M168 143.8l-4.2-60.4 5.5 30.9 2.5 33.3z"/><path fill="#81604f" d="M50.2 98.4l101.9-4.7-112.9-1.4-55.2 2z"/><path fill="#1b1513" d="M13.3 102.1l-12.3-1L12.4 124l-28.4-1.6z"/><path fill="#131c1b" d="M154 61l-13 10 9-17z"/><path fill="#848b8a" d="M58.2 114.3l10.1 8.2-31.1 6.9 7.1 22.4z"/><ellipse cx="123" cy="154" fill="#060c0e" rx="4" ry="2"/><path fill="#798986" d="M118.6 113.9l22.2 18.1-52.4-7 22.2 7.2z"/><path fill="#d3d3d2" d="M43 99l6 8-30-3z"/></g></g></svg>