<svg xmlns="http://www.w3.org/2000/svg" viewBox="0 0 1800 1200"><defs/><filter id="a"><feGaussianBlur stdDeviation="12"/></filter><rect width="100%" height="100%" fill="#593f35"/><g filter="url(#a)"><g fill-opacity=".5" transform="translate(3.5 3.5) scale(7.03125)"><circle cx="59" cy="17" r="167" fill="#919492"/><circle r="1" fill="#e5e1e6" transform="matrix(-10.3417 -12.81661 37.89778 -30.57965 152.9 117.9)"/><circle r="1" fill="#2c2220" transform="matrix(-2.23817 -71.21961 29.92252 -.94035 62.5 74.6)"/><path fill="#fae5ca" d="M46.6 144.9l-62.6 4.7L20.8 185l49.7-32.9z"/><ellipse cx="78" cy="18" fill="#3e210d" rx="190" ry="14"/><circle r="1" fill="#8e8379" transform="rotate(-174.9 114.2 32.7) scale(128.90336 47.03309)"/><path fill="#f6eeea" d="M151.9 127.2l33.6-31.8-63.4 20.5 79.4 69.1z"/><circle r="1" fill="#592517" transform="matrix(17.28004 8.69095 -14.81044 29.44728 217.8 88.8)"/><circle r="1" fill="#11232c" transform="rotate(16.4 -405.1 847) scale(54.64961 26.03702)"/><circle r="1" fill="#afbdc5" transform="matrix(4.57644 2.2222 -28.67792 59.05984 16.6 91.9)"/><ellipse cx="255" fill="#88aac4" rx="180" ry="7"/><path fill="#a1a19d" d="M142.3 33.3l2.3 31.9-51 3.5-2.2-31.9z"/><path fill="#91887e" d="M203 172l-85 5 45-28z"/><path fill="#6a3f21" d="M52 155l50 26 71-33z"/><path fill="#313444" d="M16 95h93v28H16z"/><circle r="1" fill="#191614" transform="matrix(2.1938 22.37413 -15.00232 1.47099 66.2 63)"/><circle r="1" fill="#92afc5" transform="matrix(49.10928 -3.18399 .28206 4.35037 32.6 2.2)"/><ellipse cx="31" cy="151" fill="#f3ffff" rx="25" ry="5"/><ellipse cx="129" cy="17" fill="#ba794a" rx="20" ry="10"/><path fill="#f5b064" d="M239 115l30 19-62-19z"/><circle r="1" fill="#e4cfbf" transform="matrix(-26.4502 -4.03939 .51634 -3.38103 12 125.3)"/><path fill="#96a9c3" d="M123 130l-40 21 88-3z"/><path fill="#242423" d="M151 8h75v20h-75z"/><path fill="#7a8d90" d="M271 66V24l-91 8z"/><circle r="1" fill="#422d1f" transform="matrix(35.1523 1.3432 -.5432 14.21598 13.6 23.1)"/><path fill="#51352e" d="M10.6 162.8l42.1-6.1 29.8 2-82.7-1.9z"/><path fill="#7a99ae" d="M208.3 8.6l.5-7 54.9 3.8-.5 7z"/><circle r="1" fill="#a24231" transform="matrix(28.87094 4.935 -1.04635 6.12139 198.2 112.8)"/><circle r="1" fill="#90867f" transform="matrix(8.28777 25.85448 -20.21398 6.47968 128.7 90)"/><circle r="1" fill="#84635a" transform="matrix(-65.16747 5.67396 -.91667 -10.5283 67.8 134)"/><path fill="#d9d9c9" d="M215 64l-24-7 13-10z"/><circle r="1" fill="#878983" transform="matrix(49.24926 -25.16865 3.74003 7.31838 15.7 56.3)"/><circle r="1" fill="#2f332e" transform="rotate(-107.3 140.9 -47.2) scale(25.41168 9.608)"/><path fill="#6b5344" d="M82 42l39-39-105 8z"/><path fill="#b06e40" d="M170 162l-2-41-11 5z"/><path fill="#fff" d="M158 146l-27-27 15-6z"/><path fill="#a56852" d="M201 91.2L222 80l9 16.8-21.2 11.2z"/><path fill="#4c2b2a" d="M84.9 141.2l7.7 14-17.5 9.6-7.7-14z"/><path fill="#49382b" d="M265.5 115.6l-44.3 1.5 13.6-47.8-39.2.5z"/><circle r="1" fill="#94958e" transform="rotate(-67.7 80.4 -48.2) scale(3.29724 30.47613)"/><circle r="1" fill="#d3dfe5" transform="matrix(-7.47229 14.0217 -2.62907 -1.40105 8.7 105.6)"/><circle r="1" fill="#565358" transform="matrix(15.03994 -16.4132 14.74316 13.50962 37 95.7)"/><path fill="#6b645f" d="M181.5 81.9l-2.3 2.3-11.8 17.3-22.4-.3z"/><path fill="#161a29" d="M29 118h33v8H29z"/><path fill="#cbd2db" d="M61.5 164.1l-5.7-1.9-6.5 3.9 3.5 2.1z"/><path fill="#987c70" d="M126 128l-36-10v-14z"/><path fill="#ded7d1" d="M169.4 114.9l-7.8-15.6-41.7 26.6-1.4-7.6z"/><path fill="#140700" d="M201 163l62 13-13-16z"/><circle r="1" fill="#dbad76" transform="rotate(85 -77.1 97) scale(4.09751 43.19014)"/><path fill="#727d7d" d="M240.8 72.9l30.2 9.8-33 27.9-1.2-5.2z"/><path fill="#edc28e" d="M196.6 113.2l.6 4-25.8 3.6-.6-4z"/><path fill="#775a4c" d="M195.1 112.2l-36.5-8.8 31.4 19-9.9-50.8z"/><path fill="#162632" d="M180 23l-32 11 18-31z"/><path fill="#81807a" d="M0 36h40v38H0z"/><path fill="#896549" d="M50 157l59 22 51-22z"/><path fill="#a78962" d="M271 111.7l-31.2 11.8 17.7 14.2-6.8 32.7z"/><path fill="#60484d" d="M151.9 127.7l19.7-5.6 28.3 41.2-30.4-27.6z"/><circle r="1" fill="#d8e6f4" transform="matrix(-.69849 -2.00579 16.44025 -5.7251 46.3 150.7)"/><path fill="#734d2e" d="M169 167h59v3h-59z"/><path fill="#7a8192" d="M178.8 165.3L95.9 185l69.7-25.3-48.6-22.2z"/><circle r="1" fill="#8c847e" transform="matrix(-22.6369 -32.57024 11.8292 -8.2215 118.4 83.9)"/><ellipse cx="106" cy="7" fill="#5c3e2d" rx="69" ry="4"/><circle r="1" fill="#332f2d" transform="matrix(-24.685 -6.4357 3.74241 -14.35454 69.9 55.7)"/><ellipse cy="32" fill="#37261c" rx="54" ry="4"/><path fill="#6d6b73" d="M232 137l12-4-20-6z"/><path fill="#453f47" d="M111.3 117.2L87.4 91.6l7.3-6.8 23.9 25.6z"/><path fill="#131c30" d="M49 167h18v3H49z"/><path fill="#cfb89b" d="M197 69l-10 19 7 4z"/><path fill="#e4dedc" d="M180 118.2l-3 5.1-27-15.5 3-5.1z"/><path fill="#342a2d" d="M64 117l3-42 30 49z"/><path fill="#dcd6d0" d="M15.6 88.1l-25.8 49.2 28.7-12.7L1 126.8z"/><path fill="#918f8a" d="M71.4 33.1l29.2 18.6 55.4 9.8L144.9 39z"/><path fill="#878586" d="M102.6 103.6l.1-58.8-15 38.4 111.5-5z"/><circle r="1" fill="#514850" transform="rotate(-95.1 94.2 58.8) scale(1 85.06012)"/><path fill="#54504a" d="M153 36h3v66h-3z"/><ellipse cx="96" cy="30" fill="#47382f" rx="72" ry="3"/><path fill="#383b3d" d="M195.8 105.6l-21.8 8 62.7 25.3-69.3 3.6z"/><path fill="#665650" d="M64.5 75.2l40.2 57.1-87.3 18.8 74.2-31.4z"/><path fill="#92664d" d="M38 80l25 7-9 11z"/><path fill="#919cab" d="M128 124l32 24-75 3z"/><ellipse cx="29" cy="153" fill="#f8fbfe" rx="22" ry="3"/><path fill="#92898e" d="M155.6 112l3 4-10.2 8-3-4z"/><ellipse cx="199" cy="113" fill="#e80025" rx="3" ry="6"/><path fill="#22191c" d="M73 153h51v2H73z"/><path fill="#3d3934" d="M235.7 82.8l-4.8-29.7-30.1 2.6 21-7.9z"/><path fill="#7e8180" d="M240.4 30.3l-83.5 40.4 6.7 44.9-11.4-85.2z"/><path fill="#99a3ad" d="M49 0h100v4H49z"/><path fill="#5a463c" d="M203.7 74.3l18.3 30.5-18.9-49.7-5.8 31.7z"/><path fill="#6d584e" d="M96.1 87.2l.1-10.1-2.6-21.4-11.9 38.9z"/><path fill="#bca3a5" d="M155.7 123.5l27.8-26 2.8 3-27.8 26z"/><path fill="#82513a" d="M-16 131.6L3.9 150 19 134.7l51.8-3.6z"/><path fill="#1a2125" d="M239 135l30 12-81 17z"/><path fill="#574242" d="M210 135l16 14-49 4z"/><path fill="#5f636c" d="M26 122l-18 1 3-21z"/><path fill="#d7a668" d="M159 133l9 3 5 20z"/><path fill="#d38657" d="M202 115h25v4h-25z"/><path fill="#541518" d="M164.9 118l1.2 14h-1l-1.2-14z"/><path fill="#c7d0e6" d="M159.6 134.7l-1.7 14.2-18.6-12.9 4.7 1.3z"/><path fill="#70000f" d="M211.6 106.7l4.9.8-2 11.8-5-.8z"/><circle r="1" fill="#705749" transform="matrix(-22.68283 18.56163 -4.77362 -5.8335 143.3 166.5)"/></g></g></svg>