<svg xmlns="http://www.w3.org/2000/svg" viewBox="0 0 1800 1012"><defs/><filter id="a"><feGaussianBlur stdDeviation="12"/></filter><rect width="100%" height="100%" fill="#455462"/><g filter="url(#a)"><g fill-opacity=".5" transform="translate(3.5 3.5) scale(7.03125)"><circle r="1" fill="#c2b095" transform="matrix(254.81998 9.58003 -2.55 67.82747 126.7 54.2)"/><ellipse cx="62" cy="108" fill="#c6ebff" rx="109" ry="4"/><path fill="#eaefd9" d="M195 75h61v14h-61z"/><circle r="1" fill="#605656" transform="matrix(43.69673 20.14962 -24.15987 52.3934 13.7 16.6)"/><circle r="1" fill="#496975" transform="matrix(173.92204 5.1021 -.40186 13.69887 169.1 127.2)"/><path fill="#d4f2ff" d="M100 113l41-2-48-13z"/><circle r="1" fill="#a8a492" transform="rotate(-175.1 86 39.6) scale(120.08357 7.3347)"/><path fill="#c5d6e2" d="M41.5 110.7l12.4-8.2 5-27.3 10 39.7z"/><ellipse cx="199" cy="105" fill="#505f6a" rx="83" ry="5"/><ellipse cx="208" cy="25" fill="#796957" rx="62" ry="12"/><path fill="#a6cde8" d="M210 115.8l-69.3-5.5 73.6-.1 56.7 7z"/><circle r="1" fill="#cab79b" transform="matrix(-10.13634 -7.63358 11.08157 -14.71479 181.5 2.3)"/><path fill="#707159" d="M248.8 43.4l-31 60.4-4.2-50.9 18.4-9.1z"/><path fill="#1a5a7b" d="M65 113h139v6H65z"/><path fill="#5b5b44" d="M150.9 69.5l23.4.6 16.7-6.4-66.9-10.8z"/><ellipse cx="151" cy="109" fill="#e8fbff" rx="15" ry="3"/><path fill="#70695c" d="M1 78.9l18 2.5-4 27.7-17.8-2.5z"/><path fill="#a6aeac" d="M18 82h46v13H18z"/><path fill="#e8e2c6" d="M221 73h24v9h-24z"/><path fill="#887869" d="M177 65L-16 83l137-99z"/><path fill="#b8a891" d="M100 33L62 75l33-15z"/><path fill="#aca897" d="M221.3 47.3l-49.6 16.8-11.4-5.1 43.6-20.8z"/><path fill="#53636b" d="M151.8 158h-33l-95-37.7 75.6-11.6z"/><path fill="#56676c" d="M101 117h155v26H101z"/><path fill="#aaada8" d="M161 70.3l.5 5L63 85.7l-.5-5z"/><ellipse cx="16" cy="105" fill="#676e75" rx="34" ry="3"/><circle r="1" fill="#495260" transform="rotate(-5.6 44 0) scale(24.91666 27.68613)"/><path fill="#add5ea" d="M218 78.2l-8.3 6.6-7.9-6-24-12.9z"/><path fill="#545858" d="M127.4 83.8l-10.8-.1-4.7-19.7-22.8 8.8z"/><ellipse cx="236" cy="96" fill="#919388" rx="133" ry="7"/><path fill="#948d86" d="M47-4l7 40-43-52z"/><path fill="#f9ebc0" d="M232 78h24v11h-24z"/><path fill="#5d5a61" d="M80.3-16l-6.2 49.5 31.8 4.5L84 30.2z"/><circle r="1" fill="#4d5d6c" transform="matrix(.0763 -1.98623 125.78204 4.83206 248.2 110.3)"/><path fill="#dfe1d9" d="M112 94l-2-14 7 13z"/><circle r="1" fill="#d9eaf9" transform="matrix(-.01785 3.40993 -7.46153 -.03907 106.4 103.3)"/><ellipse cx="94" cy="95" fill="#606059" rx="8" ry="7"/><circle r="1" fill="#d4dad0" transform="matrix(-.18739 2.48559 -11.3396 -.8549 255.6 100.9)"/><path fill="#b0b7af" d="M176.1 101.8l10-22.5-42.1.4 20.3-9.2z"/><path fill="#464544" d="M218.3 57.7l21.1-13.6-3.8 13.9-12.5-1.5z"/><path fill="#3d5666" d="M0 111h50v30H0z"/><path fill="#6c706c" d="M249.1 93.3l-2.2-8.5-48.3 29.5 22.8-4.7z"/><path fill="#acb7b5" d="M176 68h31v5h-31z"/><circle cx="200" cy="43" r="5" fill="#d8dfd7"/><path fill="#45544b" d="M187 73h8v12h-8z"/><path fill="#ccd9e4" d="M211 113h45v3h-45z"/><circle r="1" fill="#c0d2e0" transform="matrix(2.91974 -5.22243 8.62596 4.82257 63.1 106.4)"/><path fill="#485147" d="M123.3 100.8l24.8-3.5.6 4-24.8 3.4z"/><path fill="#4d5649" d="M140.8 45.9l-10.5 21.4 20.4-10.1-.2 10.3z"/><path fill="#484b4b" d="M179.6 55.6l13 5-21.5 11.7 6.7-12z"/><path fill="#bdcbce" d="M112 94h45v2h-45z"/><path d="M245 75h11v1h-11z"/><path fill="#9f9686" d="M109 39h22v24h-22z"/><path fill="#91897d" d="M235 105l-4-25-52 10z"/><path fill="#b4bebc" d="M95.3 72l4.6 10-17.2 8-4.6-10z"/><path fill="#5b5b63" d="M92-16l12 42 15 2z"/><circle r="1" fill="#c9d9c5" transform="rotate(-76.3 169.8 -128) scale(2.85254 6.5033)"/><path fill="#777671" d="M39.7 107l-15 1-2-5.7 34.8-44.8z"/><path fill="#196886" d="M95 108l6 9-17-6z"/><circle r="1" fill="#817465" transform="rotate(166.6 114.5 24.5) scale(51.27588 15.11725)"/><path fill="#647559" d="M234.7 73.1l-26.4 1.7 13.9-24.1 24 19.8z"/><path fill="#dcbc97" d="M153 86l17 1-27-15z"/><path fill="#342d38" d="M118 86h7v6h-7z"/><path fill="#4496ae" d="M119 112h62v2h-62z"/><path fill="#c8dae9" d="M24 106.8l-9 6.5-3-4 9-6.6z"/><path fill="#b6dff5" d="M198 75h19v10h-19z"/><path fill="#605754" d="M0 46h55v7H0z"/><ellipse cx="44" cy="109" fill="#c6d7e3" rx="44" ry="2"/><path fill="#938c73" d="M216.3 63.5l-36.6 13.6L209 41l34.1 71.3z"/><path fill="#a3947f" d="M5.2 64.6l14.8-8L7.9 71.1l-8.6 1.8z"/><path fill="#a5ce86" d="M226 60l6 13-1-16z"/><path fill="#66676e" d="M110.5-6.3l31.4-6 3.6 18.6-31.4 6z"/><path fill="#626762" d="M77.1 95.4l9.6-9.1-19.6-5.4L77.6 91z"/><path fill="#9f9284" d="M61.4 48.2L48.2 63.8 8.9 91.1 36 63.3z"/><path fill="#566063" d="M161.4 83.8l14.9-20.3 2.8 13.1 1.7-3.1z"/><path fill="#b7b6ad" d="M226.3 34.5l-18.7 19.3 8.9-14.9 7.5-4z"/><path fill="#726551" d="M169.7 51l-2.4-23 9-1 2.4 23z"/><ellipse cx="191" cy="117" fill="#285674" rx="45" ry="2"/><ellipse cx="142" cy="83" fill="#65544c" rx="25" ry="1"/><path fill="#616465" d="M87.5 91.9l50.3 16.6-27.5-14.2-3.6-9.4z"/><path fill="#c7c4b5" d="M181 38l8.4 12.4L187 52l-8.4-12.5z"/><ellipse cx="228" cy="122" fill="#697879" rx="77" ry="3"/><path fill="#a28f7c" d="M175.2 18.6L210.4-16l17.3 18.9-13.8 7.1z"/><path fill="#7d725b" d="M190 33l-7 11 15 12z"/><path fill="#837e7b" d="M1.3 14.7l29.1-6.9L57.6-16 23.9 29.8z"/><circle cx="22" cy="85" r="3" fill="#bbe6ff"/><path fill="#4a616c" d="M161 118h42.7l-41.3 8.8L201.5 98z"/><path fill="#59625b" d="M159 82l-8-25-8 3z"/><path fill="#a9957e" d="M116 63l27 12-18 13z"/><path fill="#42505e" d="M-2.2 104.4l16.7 3.2-.3 2-16.7-3.2z"/><path fill="#c3c3be" d="M51 81h13v10H51z"/><path fill="#e4f0f6" d="M90 104h16v4H90z"/><path fill="#606b4f" d="M156 93l13-1-20-6z"/><path fill="#545d40" d="M134 95h9v7h-9z"/><path fill="#d4e2eb" d="M101 109h73v3h-73z"/><circle cx="166" cy="41" r="2" fill="#fffce7"/><path fill="#9b8f76" d="M228.4 63.2l30.6-9.4-25.9-20 35.4-8.9z"/><ellipse cx="136" cy="82" fill="#523a2d" rx="13" ry="1"/><path fill="#434650" d="M207 39h3v10h-3z"/><ellipse cx="112" cy="121" fill="#616b70" rx="89" ry="4"/></g></g></svg>