<svg xmlns="http://www.w3.org/2000/svg" viewBox="0 0 1200 1800"><defs/><filter id="a"><feGaussianBlur stdDeviation="12"/></filter><rect width="100%" height="100%" fill="#583942"/><g filter="url(#a)"><g fill-opacity=".5" transform="translate(3.5 3.5) scale(7.03125)"><circle r="1" fill="#a19099" transform="matrix(60.89982 149.97816 -125.3158 50.88547 118.8 87.3)"/><circle r="1" fill="#8cc7ff" transform="matrix(-19.96334 4.75594 -19.01483 -79.8159 152.6 21.9)"/><circle r="1" fill="#281613" transform="matrix(-17.46903 39.23607 -32.24101 -14.35462 60.3 150.8)"/><circle r="1" fill="#fff" transform="matrix(-44.50916 -4.74922 .79836 -7.48214 85.2 104)"/><path fill="#dcd9c7" d="M98 150h64v40H98z"/><circle r="1" fill="#071b23" transform="matrix(112.37284 10.98967 -1.35169 13.82145 151.8 129.3)"/><circle r="1" fill="#c7263e" transform="matrix(-5.59374 -123.18363 13.65765 -.62019 28.8 44)"/><circle r="1" fill="#bcdee7" transform="matrix(11.166 -2.455 6.1924 28.16463 82 43.7)"/><path d="M5 100h9v67H5z"/><circle r="1" fill="#4d6b56" transform="rotate(-71.8 211.6 61.4) scale(45.97489 122.20303)"/><path fill="#f3e2ce" d="M24.8 101.4l-12 13.1 5.9 62.4 4.3-13.5z"/><path fill="#bfd0fb" d="M22-12l-37 30 37 15z"/><path fill="#dcf5fa" d="M126.7 105.9L57 93.3 45.8 59.9l-3.9 49.3z"/><path fill="#362031" d="M128 48h21v67h-21z"/><ellipse cx="7" cy="75" fill="#fff" rx="17" ry="7"/><circle r="1" fill="#b83151" transform="matrix(-16.84914 2.3322 -9.71297 -70.17191 110.6 34)"/><path fill="#5c0014" d="M49 17h18v64H49z"/><path fill="#d4eff7" d="M129.3 84.6l-1 7.8 33.7 5.4 23-7.7z"/><path fill="#cbebfd" d="M44 4h5v102h-5z"/><path fill="#c5f6ff" d="M108 17h5v97h-5z"/><circle r="1" fill="#6daafd" transform="matrix(32.81047 -18.18714 13.01397 23.47783 163 23.5)"/><path fill="#b4001a" d="M19 29.5l2 37-40 2-2-37z"/><path fill="#988d83" d="M76 145h44v47H76z"/><path fill="#d9f7fd" d="M59 30h33v12H59z"/><path fill="#500" d="M185 80l-47-1 47 14z"/><ellipse cx="159" cy="196" fill="#1f2b29" rx="169" ry="3"/><path fill="#dbf8fd" d="M99 77l-7 22-2-29z"/><ellipse cx="130" cy="214" fill="#c8cdb4" rx="35" ry="4"/><path fill="#f6ffff" d="M168 132h2v57h-2z"/><circle cx="7" cy="95" r="18" fill="#4f4020"/><path fill="#f2ffff" d="M115.6 18l-.6 3L54.4 8l.6-3z"/><path fill="#e6c9bd" d="M100 134h11v48h-11z"/><ellipse cx="76" cy="46" fill="#0d2b2f" rx="20" ry="3"/><path fill="#e3b8a7" d="M148 48h21v31h-21z"/><path fill="#8a0327" d="M25 134h18v54H25z"/><path fill="#550520" d="M121 59l48-2-30-8z"/><path fill="#d6fffc" d="M70 73l10 17-14-2z"/><path fill="#bdb291" d="M44 131h3v90h-3z"/><path fill="#413f2f" d="M126.8 235.7l58.2-20.5-101.6 8.5-99.4 10.2z"/><path fill="#7e0022" d="M44 8.8L91.8 17l8.1 40.7 10.5-25.5z"/><path fill="#293c41" d="M134 102h35v45h-35z"/><path fill="#8a1d31" d="M111 130h9v54h-9z"/><path fill="#1f70d2" d="M7.8 21L-16 16.5 12-11l1.8 31.8z"/><ellipse cx="30" cy="207" fill="#9e9889" rx="41" ry="5"/><path fill="#79122c" d="M24.4-3.3L27.1-15l96.5 22.3-2.7 11.7z"/><path fill="#b0a699" d="M-16.7 196.7l-.5-7 61.9-4.4.5 7z"/><path fill="#212c28" d="M51 109h19v95H51z"/><path fill="#0e2a31" d="M71 61.4l15.3 25.7-19.5-18.3 30.8-8.4z"/><circle r="1" fill="#3c3d33" transform="matrix(81.36114 -7.36148 .20663 2.2837 98.8 211)"/><path fill="#01140e" d="M95 138h3v48h-3z"/><path fill="#76122c" d="M103.2 16.9L92.5 67.8l9.7 17.7 4.4-31.1z"/><path fill="#31080e" d="M123 144.9l-39.3-33.3 31.2 4.3 14 26.6z"/><ellipse cx="91" cy="219" fill="#b7b098" rx="19" ry="5"/><path fill="#eff" d="M84.8 64.4l5 6.2-8.6 7-5-6.2z"/><path fill="#c3cfc5" d="M185 150l-60 4-1 23z"/><path fill="#707b73" d="M63 146h107v6H63z"/><path fill="#911f39" d="M24 0h19v100H24z"/><ellipse cx="22" cy="49" fill="#f49387" rx="2" ry="52"/><ellipse cy="168" fill="#c2d5c7" rx="24" ry="3"/><path fill="#002e31" d="M57 45l12 23-5-36z"/><path fill="#4f0001" d="M164 70l21 30V46z"/><ellipse cx="121" fill="#ab2c46" rx="8" ry="104"/><path fill="#e8f3df" d="M82.3 150h1l-1.6 44h-1z"/><path fill="#fff" d="M76 149h1v45h-1z"/><circle r="1" fill="#171f1c" transform="rotate(-1 9197.7 -4947.6) scale(1.54938 19.04)"/><path fill="#121b1a" d="M4 109h11v50H4z"/><circle r="1" fill="#d0ffff" transform="matrix(1.45772 5.08048 -2.1507 .6171 106.2 81.1)"/><path fill="#232d1b" d="M0 171h23v14H0z"/><path fill="#72102d" d="M60.7 21.1l24.1-2.8L47.2 7.2l9.1 48.9z"/><path fill="#fffff7" d="M18.4 27.9l-23-.8.2-7 23 .8z"/><path fill="#bfc5ca" d="M129.5 116l-55-6.1 27.7-23.6-14.7-3.9z"/><path fill="#322e2d" d="M64 221.8l-9.1.3 7.7-12.2 45.2-.1z"/><ellipse cx="34" cy="120" fill="#cfffff" rx="2" ry="7"/><path fill="#f1f7f0" d="M40 109l17-30-3 27z"/><path fill="#70746e" d="M57.2 209.5l1.4 16-57.8 5-1.4-16z"/><path fill="#320619" d="M56 90h40v3H56z"/><path fill="#c0d0c2" d="M63 189h67v3H63z"/><path fill="#9d1537" d="M48.8 35.3L48.6 83l2.2-1 17.8-12.6z"/><circle r="1" fill="#5689d4" transform="matrix(-21.08365 -7.59058 9.29217 -25.81 152 0)"/><path fill="#1c3232" d="M163.8 177.1l-2.5-34.5-.2 46.6.3 13.6z"/><path fill="#fff" d="M115 147h1v44h-1z"/><circle r="1" fill="#f3fff9" transform="matrix(9.54019 3.3347 -1.37166 3.92418 7.7 73.3)"/><ellipse cx="17" cy="140" fill="#d6dcd2" rx="3" ry="30"/><ellipse cx="93" cy="177" fill="#f2f9e6" rx="1" ry="31"/><path fill="#c3dee9" d="M176.2 57.4l-46.3-8.7 53.8-2.8-21.8 23.3z"/><ellipse cx="115" cy="204" fill="#9c9f8b" rx="32" ry="4"/><path fill="#1c131d" d="M20.6 106.8L-15 119.9l-1-18.5 45.6 2.2z"/><path fill="#daedf6" d="M64 21l20-1 9 13z"/><path fill="#a0a6a2" d="M21.5 153.4l-37.5-1.9 21.1-25.7L1 146.9z"/><path d="M83.2 186.4l2.6-36.9h1l-2.6 37z"/><path fill="#fdfff7" d="M87 155h2v34h-2z"/><path fill="#defafa" d="M146 78l7-20 10 13z"/><path fill="#242531" d="M-8.7 206l15.9-11.6 60.4 7.9-27.7-.6z"/><path fill="#261421" d="M59 75h8v19h-8z"/><path fill="#000306" d="M78 152h3v33h-3z"/><path fill="#647d95" d="M128 116h7v28h-7z"/><circle r="1" fill="#86414b" transform="matrix(.99998 -.00694 .2149 30.95797 123 167.7)"/><path fill="#312421" d="M114.9 115.4l-80.3 12.4 11.8-19.4 6.1.1z"/><path fill="#18343d" d="M49.1 27.6l2.3.5 18.9-3.3L80 30z"/><path fill="#f1ffff" d="M68 49h6v6h-6z"/></g></g></svg>