<svg xmlns="http://www.w3.org/2000/svg" viewBox="0 0 4752 3168"><defs/><filter id="a"><feGaussianBlur stdDeviation="12"/></filter><rect width="100%" height="100%" fill="#574037"/><g filter="url(#a)"><g fill-opacity=".5" transform="translate(9.3 9.3) scale(18.5625)"><circle r="1" fill="#ffffbf" transform="matrix(-162.30903 40.54871 -27.3776 -109.5875 173.4 92.4)"/><circle cx="152" cy="69" r="71" fill="#f8c9a1"/><ellipse cx="43" cy="102" fill="#fff" rx="23" ry="36"/><path fill="#653617" d="M97 122L7 165l178 20z"/><ellipse cx="45" cy="36" fill="#a87961" rx="54" ry="39"/><circle r="1" fill="#de8e3d" transform="rotate(83.6 56.4 183.4) scale(97.03028 48.09459)"/><circle r="1" fill="#9a7373" transform="rotate(98 -54.2 82.6) scale(19.55831 64.81309)"/><path fill="#768eb8" d="M113 3l35-19-30 130z"/><path fill="#e4cfb4" d="M23 86l218-66-96 111z"/><path fill="#734c4f" d="M94.2 49.2l-29 29-35.4-35.4 29-29z"/><circle r="1" fill="#e9b252" transform="rotate(39.7 -52.6 19) scale(39.9521 14.5942)"/><path fill="#dbe1ff" d="M195.4 185l4.1-21.2-14.1-27.4-20 47.7z"/><path fill="#8d5c2f" d="M271 152l-77-16 9 49z"/><circle r="1" fill="#dea965" transform="rotate(65.3 60.9 180.2) scale(91.81639 29.86485)"/><circle r="1" fill="#ae9385" transform="rotate(-150 35 1.7) scale(51.43106 13.50863)"/><path fill="#b09139" d="M161.8 127.8l8 50.4-37.6 6-8-50.4z"/><path fill="#dde7f4" d="M26 79h38v55H26z"/><path fill="#000006" d="M17 119l-30-5 33 16z"/><path fill="#e4b88d" d="M27.2 133.2L.5 105.7l23.3-27.8-1 35.7z"/><path fill="#7e889b" d="M114 54h21v37h-21z"/><path fill="#b88d2d" d="M64 133l3-38 76 57z"/><path fill="#2b1c08" d="M70 143.3l71.4 41.7-12.1-17.7-35.1-16.5z"/><path fill="#e7e3ca" d="M70.5 69.6L82.8 59l28.5-14.3 4.1 23.3z"/><circle r="1" fill="#8f7468" transform="matrix(-83.198 -8.59768 .5775 -5.58829 166.9 6.6)"/><path fill="#5b2c1b" d="M103 38l3.8 7L75 62l-3.8-7z"/><path fill="#ebb883" d="M66.6 23.4l58.7-38.7-16.2 55-8.6-2.2z"/><path fill="#383433" d="M18 6l35 56-60-51z"/><path fill="#435d5b" d="M-8 117l-6-63 43 13z"/><path fill="#806159" d="M-14 123l129 48L8 185z"/><circle r="1" fill="#c4b6ab" transform="rotate(36.8 -174 133.5) scale(28.77043 10.75847)"/><circle r="1" fill="#e6ccaa" transform="matrix(24.02343 18.3673 -7.47932 9.78254 84.5 100.4)"/><circle r="1" fill="#dbc47a" transform="matrix(-10.86196 -4.2349 13.18797 -33.8254 170 146.4)"/><circle r="1" fill="#e8d7b8" transform="matrix(19.50062 -7.60298 10.63362 27.27384 156.8 69.2)"/><path fill="#7f5843" d="M232.5 10.9l-18.4 5 49.6 7.5L271 8.6z"/><path fill="#8c4f0f" d="M6 45h30v10H6z"/><path fill="#eac284" d="M22 82l14-28 23 17z"/><ellipse cx="228" cy="1" fill="#e4b69c" rx="63" ry="5"/><path fill="#b28f70" d="M17 155.4l-26-6.5 6-24.3 26.2 6.5z"/><circle r="1" fill="#ded9ca" transform="matrix(27.24445 9.54087 -3.52422 10.06359 106.9 101.9)"/><path fill="#d8c2a8" d="M228 163l43 9-79 9z"/><path fill="#b98753" d="M96.1 80l29.3 11.7-10-9.4-.3-14.7z"/><ellipse cx="122" cy="42" fill="#b1c0d5" rx="6" ry="38"/><circle r="1" fill="#827c80" transform="rotate(94.8 47.8 80.2) scale(19.1283 5.54165)"/><path fill="#b68968" d="M142.2 79.1l-9.7 18.8-11.4 8 23-3.7z"/><path fill="#f4fbfe" d="M62 76l-5 27-33-23z"/><circle r="1" fill="#f2ba75" transform="matrix(-24.11648 -7.13182 4.63169 -15.6622 162.8 27.4)"/><path fill="#f0bd6f" d="M9.5 25.9l10.4 21.8 3.9 14.9-28.4-41.5z"/><path fill="#594241" d="M30 159h41v11H30z"/><path fill="#0a0000" d="M124 3L107-9l53-7z"/><circle r="1" fill="#7d645e" transform="rotate(53.7 5.4 38) scale(62.65442 16.09067)"/><path fill="#ebdba3" d="M190 150l-11-86-11 57z"/><path fill="#e0b276" d="M160 13l90 7-58 95z"/><circle r="1" fill="#4d3512" transform="matrix(-4.85002 3.39613 -7.24414 -10.34536 68 1.2)"/><circle cx="248" cy="152" r="16" fill="#9d6d3a"/><path fill="#bfa8a0" d="M56 16l39 20L57 1z"/><path fill="#93533e" d="M49.8 64.1l18.7 18 6.2-31-30.2 3.6z"/><path fill="#586171" d="M122.7 80.2l9.9-6.4-1 7-14 12.3z"/><path fill="#9b7d36" d="M96.1 156.6l-32.3-47.7L116 132l41.9-2.3z"/><path fill="#4f3510" d="M67.8 138l32.9 23.5 11 1.4-40.5-29.7z"/><path fill="#6e4f2f" d="M63.7 1.3l8 1.3v13.5l51.9-25.5z"/><path fill="#915e31" d="M184.5 124.1L207 185h-.8l11.5-19.9z"/><path fill="#dfcca9" d="M72.9 63.5l-6 22.4 20.9-1.6 9.1-28.8z"/><path fill="#994f0b" d="M65.7 91.7l-7 .6-.4-4 7-.6z"/><circle r="1" fill="#ca944e" transform="matrix(-5.21706 11.29075 -27.73684 -12.81622 212.4 137)"/><path fill="#ccbca5" d="M10.7 56.6l25 1.8-.4 5-25-1.8z"/><path fill="#e2d1b8" d="M137 74.8l2.2-51.6L164.3 72l-59.4 37z"/><path fill="#d6aa79" d="M116.1 135.4l-36.3-31.8 45.5 18.9 42-13.9z"/><path fill="#585c55" d="M24 69L8 98l-24-24z"/><path fill="#1e2123" d="M21 128l-37-40v33z"/><path fill="#dab37f" d="M5 98h17v15H5z"/><path fill="#82682b" d="M91 149l66 32-54-49z"/><path fill="#a1774e" d="M80.8 20L99.5 6.7 135.3 1l-34.1 9.7z"/><path fill="#683d11" d="M-9 9l22.7 46.7L11 57l-22.7-46.7z"/><path fill="#9a7c78" d="M38 30l20 19 59-9z"/><circle r="1" fill="#9b7875" transform="rotate(-154.4 57.5 70) scale(40.97721 5.15747)"/><path fill="#f4bf70" d="M83.8 21.1l20-11.5 6.4 11.3-20 11.5z"/><path fill="#795e47" d="M206 7.4l-.2 1-65.7-5.8v-1z"/><path fill="#dcd6cc" d="M154.7 105.9l-25.9 12.9 28.3-36.1 8.7 7.5z"/><path fill="#bbaeb1" d="M122 33l-39 7 1-14z"/><path fill="#e1e5e6" d="M23 83h37v27H23z"/><path fill="#e3b875" d="M6.8 59.4L-8.6 19.3l1.8-.7L8.6 58.7z"/><path fill="#aeb6bc" d="M125.2 10.1l-1.4-3.7 43-16.5 1.4 3.7z"/><path fill="#c8cbdf" d="M193 151l-30 27 24-40z"/><path fill="#c98d46" d="M251.9 20.2l23 7L258 81.9l-23-7z"/><ellipse cx="171" cy="78" fill="#debd8b" rx="10" ry="14"/><path fill="#c6ced2" d="M22.2 102.3l29-.6.6 30-29 .6z"/><path fill="#5e5148" d="M9.8-23.1l28.7 20-18.3 26.2-28.7-20z"/><path fill="#864d18" d="M31.2 47.3l13.2 3.5L25 56.2l-7.7-20.5z"/><path fill="#bea562" d="M159.6 133l-30.3 2.1 37.2 32.9 14.1-16.4z"/><path fill="#e3b174" d="M184.4 28.3l-17-7.2-29.1 19.1 1.4-38.1z"/><path fill="#a88c47" d="M175 185l-73-60 45 17z"/><path fill="#d6ba93" d="M116.2 39L88.5 64.3l-16.4 26 26.4-42.1z"/><circle r="1" fill="#2b1e18" transform="rotate(22.2 -363.8 373.9) scale(24.4217 1.87538)"/><path fill="#c8ac9f" d="M212.8 6.4L271-7.1V5.8l-57.1 5.6z"/><path fill="#a98741" d="M91.6 126.3l61.8 34.5-74.9-51.4L60.6 146z"/><path fill="#414541" d="M-16 55l33 24 11-10z"/><path fill="#f4f7f5" d="M51.7 86.2l15.6-1.7-9.8-11.3-23.4 8.9z"/><path fill="#dbaa69" d="M197.6 125.5l23.3 11.7 11.3-55.1-33.9-73.6z"/><path fill="#474952" d="M118 85h8v6h-8z"/><path fill="#7a7d88" d="M114 22h2v53h-2z"/></g></g></svg>