<svg xmlns="http://www.w3.org/2000/svg" viewBox="0 0 1200 1800"><defs/><filter id="a"><feGaussianBlur stdDeviation="12"/></filter><rect width="100%" height="100%" fill="#5f4331"/><g filter="url(#a)"><g fill-opacity=".5" transform="translate(3.5 3.5) scale(7.03125)"><circle r="1" fill="#fff" transform="matrix(57.45748 -19.56012 9.52477 27.97883 11.8 94.4)"/><ellipse cx="53" cy="225" fill="#d3f2eb" rx="46" ry="24"/><circle r="1" fill="#526b84" transform="matrix(68.21992 -36.8142 80.25872 148.72639 127.9 86.8)"/><circle r="1" fill="#000413" transform="matrix(9.79138 41.22132 -32.29549 7.67121 120.3 194.7)"/><ellipse cy="80" fill="#fff" rx="44" ry="20"/><circle r="1" fill="#b6dcf4" transform="matrix(-17.03963 1.38921 -5.20708 -63.86827 169 229.9)"/><circle cx="51" cy="148" r="41" fill="#002456"/><path fill="#8bb2b8" d="M-16 198l73 3-60-49z"/><path fill="#beb6b4" d="M185 59l-37 93-18-22z"/><path fill="#000d10" d="M-1.4 126.8l145.7 118.3 10.5-34.9L21 182.9z"/><path fill="#8e543c" d="M68 84l-39 8-9 60z"/><ellipse cx="67" cy="75" fill="#fff" rx="8" ry="7"/><circle r="1" fill="#deffff" transform="matrix(4.03347 -29.06767 23.30485 3.23381 4.7 92.8)"/><ellipse cx="23" cy="31" fill="#49565a" rx="168" ry="32"/><circle r="1" fill="#0045a5" transform="matrix(10.22111 12.75803 -15.99537 12.81471 56.5 144.2)"/><circle r="1" fill="#906454" transform="matrix(14.0859 7.01692 -25.07302 50.3321 104 113)"/><circle r="1" fill="#0e171c" transform="matrix(-14.29869 21.55802 -7.78728 -5.16503 3.2 219.7)"/><circle r="1" fill="#b8bdbd" transform="rotate(-21.9 257.2 -370.3) scale(4.28197 14.47742)"/><path fill="#373335" d="M85 102l77-82-78 25z"/><ellipse cx="49" cy="58" fill="#4a1707" rx="13" ry="11"/><path fill="#8c6b5d" d="M18.4 127.2L64.6 52 53.4 96.4l-20.7 52.2z"/><circle r="1" fill="#090c0a" transform="matrix(9.29384 23.60781 -9.92198 3.90605 67 179.5)"/><path fill="#bfcfdc" d="M157.3 201.2l-6.1-31.4 25.5-5 6.1 31.4z"/><path fill="#f4ffff" d="M0 65h38v27H0z"/><path fill="#a68072" d="M113 107.6l-9.2 26-28-25.2-3.3-22.9z"/><ellipse cx="161" cy="157" fill="#00091b" rx="10" ry="9"/><path fill="#abac89" d="M119.4 237.9l-21.3-14.8L42.6 186l-31.2 7.7z"/><path fill="#120800" d="M0 250h75v6H0z"/><circle r="1" fill="#17242b" transform="matrix(-5.35993 -29.18826 33.22612 -6.10141 122.6 200.3)"/><circle r="1" fill="#6b808e" transform="rotate(164.8 64.7 132) scale(14.61341 18.83486)"/><path fill="#7b6a63" d="M102 145l70-80-39 86z"/><path fill="#184388" d="M23 154l48 8 7-73z"/><path fill="#1a160e" d="M32.5 160.6l-16.2 27.7 38.7-2.8 48-21.4z"/><path fill="#112f3f" d="M157 36h13v35h-13z"/><circle r="1" fill="#606667" transform="matrix(-4.49733 -16.10762 159.16655 -44.4401 55.3 30)"/><path fill="#0c1213" d="M87 125h8v23h-8z"/><path fill="#7a9ab8" d="M38.6 122.4l-51.6-9.8 17.9 94.6-3-79.1z"/><path fill="#fff" d="M73 73.9l-7.6 11.7L57 80l7.6-11.7z"/><circle r="1" fill="#614143" transform="matrix(13.48211 -3.1566 8.87484 37.90525 134.4 78.6)"/><path fill="#000002" d="M-2.7 151.1L13.4 141l15.4 1.8-19 19.6z"/><path fill="#302656" d="M33 93h9v17h-9z"/><circle r="1" fill="#c7c8c5" transform="rotate(-141.1 101.8 20.5) scale(4.39954 26.28829)"/><path fill="#5d554c" d="M167 260l-54-34-64 38z"/><path fill="#71736f" d="M40.2 249.8l43.9-4.6-16-5.8-69-2z"/><path fill="#8199b8" d="M-16 179.2v-34.7l37.8 26.8-11.9 9z"/><path fill="#241f1b" d="M11 219l-27 29.5 51.6 3.9-27.3-15.1z"/><path fill="#694730" d="M92 211l-1-60-24 8z"/><path fill="#a36849" d="M25 93h12v40H25z"/><path fill="#c3ccc7" d="M158 75h-8l3-30z"/><path fill="#abb426" d="M28 184l32 7-5 7z"/><path fill="#858f9b" d="M136 140.4l49 2-19.8-12.4-15.9 31.1z"/><path fill="#a26a51" d="M58 64l2 43-23-46z"/><path fill="#a78071" d="M117 87l-21 68-3-41z"/><path fill="#2b2630" d="M138.4 96.7l15-50.3-11 7.3-9.4 37z"/><circle r="1" fill="#bfdef7" transform="rotate(-15.5 435.5 -23) scale(4.44456 7.48812)"/><path fill="#135361" d="M154.8 29.3l-4.9 24.3 25.3-15.3L185 5.7z"/><path fill="#293643" d="M152 201l-36-52 31 6z"/><path fill="#acb5b3" d="M90.3 240.4l-15-36.5 4.5-4.1 20.6 31.9z"/><path fill="#a89585" d="M75.3 91.3l2-4.4 15.1 30.2-20-16.7z"/><path fill="#0a2752" d="M49 106l21 12-34 27z"/><path fill="#595b5b" d="M41 65.7l-44.9-4.4L-16 27l43.5-40.4z"/><ellipse cx="104" cy="54" fill="#004655" rx="12" ry="7"/><path fill="#66524c" d="M84 79h23v29H84z"/><circle r="1" fill="#edfaff" transform="matrix(8.66815 10.40782 -6.2941 5.24204 34.3 79.7)"/><ellipse cy="131" fill="#4f595b" rx="25" ry="7"/><path fill="#34241d" d="M91.5 118l.9 7.9-15.1-8.3-4.3 38.3z"/><path fill="#12181a" d="M44.3 44.8l15.6 3.5-2.3 7.2-19.7.9z"/><path fill="#b5bbad" d="M15.8 212.6l32.8-4 1.6 12.8-32.8 4z"/><path fill="#413736" d="M156.3 142.5l-3.6-20.3.9 3.9L185 94.4z"/><path fill="#8fb9d6" d="M-5.9 154.3l9.3-14.2 2.5 1.6-9.3 14.2z"/><path fill="#ac9396" d="M145 54l-5-12-3 17z"/><path fill="#947c73" d="M65 164l17-5 4-20z"/><circle r="1" fill="#284d91" transform="matrix(-7.11694 -.10003 .37594 -26.74664 69.3 119.4)"/><path fill="#798e9a" d="M147.8 239.1l-2.2 7.6 12.9 6.6-7.1-32.8z"/><path fill="#b6c9d6" d="M162.7 72l13.6 41.8-1 .3-13.6-41.9z"/><ellipse cx="66" cy="186" fill="#051014" rx="7" ry="16"/><circle cy="195" r="10" fill="#748c9d"/><path fill="#11191d" d="M98 190h24v38H98z"/><path fill="#717682" d="M29.5 98l.4.9L4.5 108l-.4-1z"/><path fill="#6d5856" d="M41.8 109.4l15.6-.1 42.8-38.5-22.2.9z"/><path fill="#645b3b" d="M49.1 220.2l.9-6 10.9 1.6-.9 6z"/><circle r="1" fill="#6789a8" transform="matrix(-.99846 .0555 -1.1267 -20.26675 151.3 173.8)"/><path fill="#1f3a6d" d="M34.8 118l3.4-.7 3.7-22-5.3 7.8z"/><path fill="#635750" d="M114.1 228.5L101 222l-7.3 21.6 26.5 11.1z"/><ellipse cx="4" cy="79" fill="#e4f0fd" rx="39" ry="17"/><path fill="#45474d" d="M112 146l25 14H86z"/><path fill="#534541" d="M107.1 59.1l-21.6 50.8-11.7-63.7 23.4 12.3z"/><path fill="#0f1316" d="M17 182l48 8 21-29z"/><circle r="1" fill="#999c91" transform="rotate(-175.7 19 114) scale(18.84557 18.12323)"/><path fill="#6e6b3d" d="M56 197l-21-1-16 11z"/><path fill="#aaa7a5" d="M155 88l2 38 14-35z"/><path fill="#98a9b8" d="M157 202l-5.2 15.4 33.2 1.4-35.8-58.5z"/><path fill="#1d5bb7" d="M25 152l5-8 10 13z"/><ellipse cx="151" cy="141" fill="#c0d1de" rx="2" ry="9"/><path fill="#554d4e" d="M157.5 123.6l-31.4 1 .1-52.8-14.1 49.8z"/><path fill="#483438" d="M174 30l11 87-24-51z"/><path fill="#071621" d="M150.9 233.9l-6.4 10.1-25.4-15.9 6.4-10.1z"/><path fill="#e8fcff" d="M62 71l3 13 11-15z"/><path fill="#5b5553" d="M60 67l12-52 23 58z"/><path fill="#c9dcee" d="M16.4 88.3l1.1 39.9 8.3-30.9-41.8 16.2z"/></g></g></svg>