<svg xmlns="http://www.w3.org/2000/svg" viewBox="0 0 1200 1800"><defs/><filter id="a"><feGaussianBlur stdDeviation="12"/></filter><rect width="100%" height="100%" fill="#493d29"/><g filter="url(#a)"><g fill-opacity=".5" transform="translate(3.5 3.5) scale(7.03125)"><circle r="1" fill="#a2b1c0" transform="rotate(-.8 7684 -4902.5) scale(97.73784 169)"/><circle r="1" fill="#ddedf4" transform="matrix(-40.60926 12.82753 -18.11797 -57.35767 82 85.6)"/><circle r="1" fill="#3e4955" transform="matrix(-86.47256 -11.84527 8.60075 -62.78704 92.5 224.5)"/><ellipse cx="81" cy="81" fill="#0052b0" rx="55" ry="9"/><circle r="1" fill="#5a4e44" transform="matrix(30.69933 -6.9826 27.51257 120.96045 154.6 85.4)"/><path fill="#e6c883" d="M124 183l-1-91-99 2z"/><circle r="1" fill="#58412d" transform="rotate(-28 95.4 -26.7) scale(60.77088 14.43323)"/><ellipse cx="76" cy="57" fill="#cae7ff" rx="37" ry="17"/><path fill="#523820" d="M141 63l4-55-80 3z"/><path fill="#4c5359" d="M80.7 135.6L95.4 271 3.5 130.2l93.7-10.8z"/><path fill="#f4e0c6" d="M30 92h92v24H30z"/><path fill="#fff0c4" d="M-16 3l49-14L1 18z"/><path fill="#2b2f30" d="M76 223.2l-35.7-29L56 174.8l35.7 29z"/><circle r="1" fill="#859257" transform="matrix(-22.20472 -21.44285 9.86106 -10.21143 102.1 162)"/><path fill="#4382c3" d="M38 69L28 95l44-7z"/><path fill="#9e927c" d="M29 112h50v26H29z"/><ellipse cx="137" cy="187" fill="#5d646d" rx="16" ry="155"/><path fill="#59708f" d="M45 220h46v36H45z"/><path fill="#a7b1d7" d="M84.2 200.9L86 190l17.7 3.1L102 204z"/><ellipse cx="15" cy="240" fill="#292c26" rx="45" ry="5"/><circle r="1" fill="#848179" transform="matrix(10.50353 4.39372 -31.24858 74.70213 7.9 204.7)"/><ellipse cx="16" cy="122" fill="#4d4f4b" rx="9" ry="35"/><ellipse cx="98" fill="#afa69c" rx="33" ry="9"/><circle r="1" fill="#756e66" transform="matrix(-16.02095 76.90204 -11.98298 -2.4964 158.8 72.7)"/><circle r="1" fill="#b8d2ee" transform="matrix(-4.18473 -19.84407 22.6443 -4.77525 78 48)"/><path fill="#92979b" d="M29 9h23v17H29z"/><ellipse cx="98" cy="255" fill="#5e626e" rx="169" ry="11"/><path fill="#4c4a48" d="M108 181l-39 19-9-59z"/><path fill="#3b2f1f" d="M116 38l30 24-7 18z"/><circle r="1" fill="#969b4c" transform="matrix(5.18467 29.60787 -7.47852 1.30957 107 163)"/><path fill="#ffeeda" d="M110 131h13v9h-13z"/><ellipse cx="15" cy="94" fill="#47433a" rx="15" ry="5"/><path fill="#544842" d="M31 64l45-53-20-2z"/><path fill="#989688" d="M-16 45l32 42 21-3z"/><circle r="1" fill="#5b6b7c" transform="rotate(135.2 -3.5 82.7) scale(22.28404 13.17988)"/><path fill="#9d7b51" d="M120 129l-26 1 29-9z"/><path fill="#c1ab8a" d="M20.2 163.5l12.8 2.4-49-21 29.6 18.9z"/><circle r="1" fill="#413d3d" transform="rotate(136.1 8.7 130.1) scale(20.36661 6.43971)"/><path fill="#7e7466" d="M145.3 36.6l-27.4-5.2 41.2 49.9 25.9-2z"/><ellipse cx="97" cy="207" fill="#92a3d7" rx="3" ry="10"/><path fill="#4c7db3" d="M32 75h94v15H32z"/><path fill="#afa697" d="M-12.7 162.1l-3.3 65.7L9.4 199l-.3-14.4z"/><path fill="#3b393c" d="M162 142h8v99h-8z"/><path fill="#af9572" d="M10 30l-26 12 43-58z"/><ellipse cx="162" cy="21" fill="#5f4c3a" rx="86" ry="14"/><path fill="#636766" d="M-1.9 176.9l-9.2-8 15.9-6.3 119.8 13.6z"/><path fill="#3c2f23" d="M16 37.2l31.6 12.1-24.4-4.6-36.5-7z"/><path fill="#b1aa99" d="M12 193l18-3-5 9z"/><path fill="#e9dabc" d="M33 117l-2-22 65-6z"/><path fill="#a4b3b2" d="M30 128h6v22h-6z"/><path fill="#899090" d="M-16 109l10-19 35 10z"/><path fill="#5d97d2" d="M46.3 78.3l-.6 18-16-.6.6-18z"/><path fill="#6a7043" d="M107 156l-6-19-17 14z"/><path fill="#454039" d="M18 52h19v9H18z"/><path fill="#b8cbe0" d="M116.4 60.8l5.1 13.9L58 70.1l39.5-35.2z"/><path fill="#69747c" d="M25 143l35 14 24 47z"/><path fill="#60676b" d="M164.9 202.1l-64.5-7.5 46.7-34.4 20.2 23.4z"/><circle r="1" fill="#4e5b71" transform="matrix(-14.00696 23.25707 -22.3779 -13.47747 121.9 240.2)"/><circle r="1" fill="#dec69d" transform="rotate(84.1 -31.7 117.8) scale(6.34379 13.63903)"/><path fill="#7f7462" d="M22.7 45.4l-8 35-25.4-5.8 8-35z"/><path fill="#3e392e" d="M19.5 258.2l11 .9-19-28.1 39.4 14.5z"/><circle r="1" fill="#b49970" transform="matrix(-29.68097 -9.14054 1.57998 -5.13047 71.1 121.4)"/><path fill="#463320" d="M32.4 24.5l1.2 14-12 1-1.2-14z"/><circle r="1" fill="#6b645b" transform="matrix(-9.73526 -13.39944 19.67596 -14.29543 17 217.3)"/><path fill="#615950" d="M-16 175.6l40.2-2.3-22.8-28.2 32.4 5.4z"/><path fill="#363530" d="M64.7 155.7l-.2 14.5 21.5-3.9-11-15.2z"/><path fill="#3b332b" d="M159 130l12-28-8-3z"/><circle cx="2" cy="123" r="5" fill="#d7b983"/><path fill="#5e5851" d="M28.7 62l-3 37.6L32 76.2l6.4-1.5z"/><path fill="#333434" d="M74.6 219.2l-33.5-21.5L51.9 187l49.4 38.4z"/><path fill="#687177" d="M124 79h13v141h-13z"/><ellipse cx="82" cy="77" fill="#5181b6" rx="47" ry="6"/><path fill="#7f8898" d="M109 249h17v7h-17z"/><path fill="#e3d0b3" d="M72 91h46v26H72z"/><ellipse cx="141" cy="10" fill="#696158" rx="15" ry="21"/><path fill="#ded6b9" d="M116 129h6v25h-6z"/><path fill="#624e3d" d="M10 16L26 0l3 11z"/><ellipse cx="109" cy="172" fill="#afb162" rx="4" ry="18"/><circle r="1" fill="#432d17" transform="matrix(.27076 2.14503 -11.54439 1.4572 138.4 13.8)"/><path fill="#bccbdd" d="M39 62h74v10H39z"/><circle r="1" fill="#5a6c82" transform="matrix(14.38313 -13.34131 11.43713 12.33025 66.8 236.2)"/><path fill="#634f3c" d="M30.2 31.4l58.2-25 27.2 10.3L19.3 37z"/><path fill="#b59e83" d="M19.4 172.5l-2.5-10.7 9.7-2.3 2.5 10.7z"/><path fill="#392f2a" d="M94.8 177.7l-17.1 10.6-9.1-1.5 37-2.7z"/><path fill="#3d3633" d="M149 204h21v35h-21z"/><path fill="#382e26" d="M162 3l6 11-22 19z"/><path fill="#917c5a" d="M83 127l-12-12 26 6z"/><path fill="#4a4e50" d="M36.7 192.9l42.3-4.3-81.9-44.7 32.2 8.7z"/><path fill="#847768" d="M32 55h7v21h-7z"/><path fill="#707d8a" d="M34 153.8l10.4 24 6-19 27.9-9.8z"/><ellipse cx="149" cy="68" fill="#a79a8a" rx="4" ry="7"/><path fill="#a2c1e2" d="M60.3 39.4l13-14.1L85 27.4l23.7 20.5z"/><path fill="#d1cab6" d="M14 83l12-6-11-1z"/><path fill="#a69f94" d="M134 8L79-9l28 18z"/><path fill="#46515b" d="M44.1 151.3l10.4-4.1-10.1-14.4-12.1 19.4z"/><path fill="#9c9991" d="M35.2 28.2l19.4-27 7.1 7-23.2.3z"/><ellipse cx="105" cy="100" fill="#c8af87" rx="16" ry="3"/><path fill="#888077" d="M149.5 85.6L185 42.3l-31.5 57.3 13.3-2.1z"/><path fill="#d9c8b3" d="M14.1 9L-16-16l28.7 43.1-18.8-14.4z"/><path fill="#6082aa" d="M43 221h29v6H43z"/></g></g></svg>