<svg xmlns="http://www.w3.org/2000/svg" viewBox="0 0 1800 1200"><defs/><filter id="a"><feGaussianBlur stdDeviation="12"/></filter><rect width="100%" height="100%" fill="#5a5340"/><g filter="url(#a)"><g fill-opacity=".5" transform="translate(3.5 3.5) scale(7.03125)"><circle r="1" fill="#dadbe5" transform="matrix(135.16946 -12.23465 3.46735 38.3076 103.4 155.3)"/><circle r="1" fill="#fff" transform="rotate(33.6 -58 329.7) scale(28.38982 11.65289)"/><circle r="1" fill="#00040f" transform="rotate(-163.5 124.5 8.2) scale(71.96028 58.56115)"/><ellipse cx="33" cy="66" fill="#101b21" rx="120" ry="47"/><circle r="1" fill="azure" transform="rotate(-164.2 33.4 81.5) scale(113.23327 18.66692)"/><path fill="#5d5547" d="M108 161.4l-63 2.2-1-31 63-2.2z"/><path fill="#fff" d="M158 95l-8-46 15-1z"/><circle r="1" fill="#c3bf5a" transform="matrix(15.61897 -16.1497 14.58204 14.10282 64.4 3.2)"/><path fill="#c8bfba" d="M197 120l59 13 2-17z"/><ellipse cx="166" cy="28" fill="#1b2521" rx="85" ry="19"/><ellipse cx="161" cy="111" fill="#25292f" rx="72" ry="9"/><path fill="#ebf9ff" d="M203.7 99.8l-36-29.8-11 15.7 22.7 17.3z"/><path fill="#ebfaff" d="M0 164h130v6H0z"/><ellipse cx="19" cy="151" fill="#e2eefe" rx="42" ry="7"/><path fill="#c5b891" d="M90.8 117.8l-.6 18-47-1.6.6-18z"/><path fill="#6b5d44" d="M0 109h51v29H0z"/><ellipse cx="224" cy="146" fill="#857f71" rx="39" ry="19"/><path fill="#282a35" d="M69 154h53v8H69z"/><circle r="1" fill="#7f7f47" transform="rotate(22.4 88.8 447.5) scale(30.42793 13.26417)"/><path fill="#b7af6e" d="M63 59l18.9-18.2-3.3 12.6-4.5 8.2z"/><circle cy="63" r="55" fill="#252821"/><path fill="#333739" d="M87 13h66v98H87z"/><path fill="#90734e" d="M81 115h106v10H81z"/><path fill="#635f3a" d="M59 46L55-9 34 46z"/><circle r="1" fill="#c4bbaf" transform="rotate(-101.6 102.8 40.2) scale(2.26164 33.40368)"/><path fill="#deeaf9" d="M154 47h8v35h-8z"/><ellipse cx="255" cy="35" fill="#101615" rx="46" ry="32"/><path fill="#b7ae5a" d="M102 0L44-16-8 6z"/><circle r="1" fill="#959658" transform="rotate(-107.5 66.2 -41.4) scale(13.62549 5.40651)"/><path fill="#383a3e" d="M143 43l14 14-44 54z"/><path fill="#2c3338" d="M210.7 109.7l31.2-46.8L160 27.3l6.3 35.4z"/><circle r="1" fill="#535c66" transform="matrix(18.48123 4.71875 -1.64797 6.45435 231.2 136)"/><ellipse cx="166" cy="154" fill="#2b2f3a" rx="19" ry="2"/><path fill="#292d27" d="M201 35l-84-51 57 77z"/><ellipse cx="114" cy="129" fill="#c0bdb0" rx="18" ry="7"/><path fill="#c1c1c4" d="M170.4 142.6L126.7 157l-3.1-9.5 43.7-14.3z"/><path fill="#515158" d="M94 148h24v15H94z"/><path fill="#87844c" d="M151.5-6.3l27.5-9.5-26.4 46.2 14.6-1.8z"/><path fill="#313322" d="M44 26.9l8-16-37.7-8.2L-7.3 47z"/><path fill="#35373d" d="M107.4 136.5l-11.9.1-5.4 4.6 7.1 8.2z"/><path fill="#dad36b" d="M50 23l19-33L80 0z"/><path fill="#282f3b" d="M116.7 93.6l13.2-.9 35.4 1.1 12.5 21.2z"/><ellipse cx="226" cy="106" fill="#202527" rx="28" ry="14"/><path fill="#b1b4b6" d="M203 162l15-23 23 10z"/><path fill="#7f6b32" d="M271 139.8l-53.3 17.4-8.8 27.8 37.8-5z"/><path fill="#d5ddeb" d="M172.5 104l-22.1-32.9 22.7 1.8 18.5 13.7z"/><path fill="#716f74" d="M151.5 142.9l44.8 7.3L114 185l77.4-43.7z"/><path fill="#655635" d="M44 139l10 11 32-18z"/><path fill="#d3def7" d="M96 161l-5 24-87-24z"/><path fill="#565a3e" d="M78 21L61 56l44-28z"/><path fill="#0c1014" d="M195.5 7.5L152.1-16l38.9-.4 16.6.4z"/><path fill="#192134" d="M175 71l-13-2 2-9z"/><path fill="#9f8d64" d="M220 0v15l5-10z"/><path fill="#b6aea7" d="M182 154.8l-13-6.3 73.7-30.1-60.5 6.2z"/><ellipse cx="72" cy="124" fill="#c0bda2" rx="31" ry="4"/><circle r="1" fill="#ced9e7" transform="matrix(25.12004 -9.83243 5.9121 15.1043 21.3 159.7)"/><path fill="#191d20" d="M136.5 23.6L154 47.8l-14.6 10.6L122 34.2z"/><path fill="#eff9ff" d="M95 165h32v5H95z"/><path fill="#767148" d="M14.3 29.8L58 35.2l-.3 3L14 32.8z"/><circle r="1" fill="#8b897b" transform="matrix(-2.67497 -5.004 9.52626 -5.09242 21.5 139.7)"/><path fill="#aca7a1" d="M124.7 146.5l-26.2 18.3 41.9-41.8-36.5 24.5z"/><path fill="#686868" d="M233.5 106.7l30.6 17-40.6-.2-2.5 26.8z"/><path fill="#27282b" d="M54 158h43v3H54z"/><ellipse cy="113" fill="#5b574c" rx="131" ry="6"/><path fill="#cbced5" d="M184 101l-2-18 19 20z"/><path fill="#735f42" d="M10 118h33v17H10z"/><path fill="#1d2122" d="M7.8 71.7L-16 100.4l35.7 5L36.1 5.5z"/><path fill="#a9aaa6" d="M35 136.3l-23.8 14.8 52.6-25-.6 12.9z"/><path fill="#b7b0b0" d="M195.7 145.5l-70 5.5 101.7-4.5-54.1-18.2z"/><path fill="#3d4043" d="M164.9 57.6l32.6 39.2 25.6-27.4-62.7 1.2z"/><path fill="#a8a498" d="M72.6 126.2l6.2 25.1-32.9 16.2 50.2-33z"/><path fill="#424223" d="M60 3L46 21l8-27z"/><path fill="#393d40" d="M201.2 109.7l-22.1 9.8-11.6-4.8 6-15z"/><path fill="#0f1712" d="M199 148h6v4h-6z"/><circle r="1" fill="#c2cad2" transform="rotate(61.7 33.2 154.8) scale(1.95947 8.13761)"/><ellipse cx="149" cy="134" fill="#666977" rx="13" ry="4"/><path fill="#8e8790" d="M129 155l33 13-50-5z"/><path fill="#444343" d="M89.2 142.7l28.8-8.3.8 3-28.8 8.2z"/><path fill="#978764" d="M222.7 180.3l16.1-25.9L191 185l80-74.2z"/><path fill="#363935" d="M156 57l-37 57-40-91z"/><path fill="#aeac69" d="M97.5 10.3l-10.6 2.1-21-28.4L76 2.6z"/><ellipse cx="139" cy="119" fill="#89735a" rx="73" ry="3"/><path fill="#58575d" d="M167.7 167.9l.6-10.1-11.7 2.2 61.1 19.7z"/><path fill="#44474b" d="M155 56l-44 39 31 16z"/><path fill="#605652" d="M169 142h32v3h-32z"/><path fill="#25282c" d="M-12 104h124L52 70z"/><ellipse cx="155" cy="74" fill="#f8f8f2" rx="3" ry="14"/><path fill="#383d42" d="M63 133l8 6 13-5z"/><path fill="#2e3928" d="M116 12.3L84.7 23.4l25.7-20.7L125.9-16z"/><path fill="#e0d7cc" d="M129 126h18v4h-18z"/><path fill="#3c3d3f" d="M96 163l11-14-27 2z"/><path fill="#b6b0ac" d="M238 119l-10 9-20-7z"/><path fill="#b5bac7" d="M178 159h28v5h-28z"/><path fill="#3d412c" d="M182 22l34-1-58-16z"/><path fill="#746a62" d="M191 131h15v5h-15z"/><path fill="#a09c96" d="M177 103h2v30h-2z"/><path fill="#928f55" d="M143.3-1.7l47.5 14.2-18.9-22.6-8.6 1.5z"/><circle cx="31" cy="160" r="2" fill="#1a1b2e"/><path fill="#b8b7c1" d="M153 169l-12 1 3-24z"/><path fill="#87837f" d="M123 132l9 18 14-6z"/></g></g></svg>