<svg xmlns="http://www.w3.org/2000/svg" viewBox="0 0 1800 1200"><defs/><filter id="prefix__a"><feGaussianBlur stdDeviation="12"/></filter><rect width="100%" height="100%" fill="#303a50"/><g filter="url(#prefix__a)"><g transform="translate(3.5 3.5) scale(7.03125)"><ellipse cx="85" cy="63" fill="#faffff" fill-opacity=".5" rx="175" ry="76"/><ellipse cx="180" cy="108" fill="#180000" fill-opacity=".5" rx="30" ry="36"/><path fill="#bec2c1" fill-opacity=".5" d="M188.7 205.9l56-195.2 60.6 17.4-56 195.2z"/><circle r="1" fill="#b7aa97" fill-opacity=".5" transform="matrix(15.8302 -17.22325 35.19382 32.34728 187 169)"/><circle r="1" fill="#ccd7e5" fill-opacity=".5" transform="rotate(-139.8 118.6 -12.3) scale(46.25775 29.76223)"/><circle r="1" fill="#bdc8da" fill-opacity=".5" transform="rotate(55.8 -29 113.7) scale(74.88491 31.70205)"/><path fill="#462c1a" fill-opacity=".5" d="M164 56h19v83h-19z"/><path fill="#5c6573" fill-opacity=".5" d="M-16 161l182-48-47 66z"/><path fill="#050b0a" fill-opacity=".5" d="M191.7 102l21-1.8 3.6 41.8-21 1.8z"/><circle r="1" fill="#0e0a07" fill-opacity=".5" transform="matrix(-2.9724 21.0353 -23.43313 -3.31123 228.7 1.5)"/><circle r="1" fill="#2e394b" fill-opacity=".5" transform="rotate(154.4 100.4 106.2) scale(16.88269 26.06772)"/><path fill="#adb6c8" fill-opacity=".5" d="M-16 134l71 4L3 64z"/><path fill="#a9b7cb" fill-opacity=".5" d="M224-1.4l-66.8.3 72.9 144L202 5z"/><path fill="#412d21" fill-opacity=".5" d="M129 118h19v52h-19z"/><path fill="#b0bdd2" fill-opacity=".5" d="M160 15L93 42l70 48z"/><path fill="#0d100f" fill-opacity=".5" d="M95.8 148.2L-36.6-27.5l.8-.7L96.6 147.5z"/><path fill="#2e2c2e" fill-opacity=".5" d="M111.8 3l53.3 119.6-1 .4L111 3.4z"/><ellipse cx="180" cy="112" fill="#a6836a" fill-opacity=".5" rx="7" ry="27"/><path fill="#505357" fill-opacity=".5" d="M208 104l39-2 20-18z"/><circle r="1" fill="#262621" fill-opacity=".5" transform="matrix(-.8191 .57364 -49.5206 -70.711 17.5 80.4)"/><path fill="#0f0e0f" fill-opacity=".5" d="M201 117l-30-63 35 41z"/><circle cx="255" cy="20" r="10" fill="#dce8f6" fill-opacity=".5"/><circle r="1" fill="#b9bfc7" fill-opacity=".5" transform="matrix(-1.30327 -28.56719 34.23576 -1.56187 107 107.9)"/><path fill="#473933" fill-opacity=".5" d="M183.6 64.9l-13.5 108.2-23.4-99.7 1 40.9z"/><path fill="#c5c9c9" fill-opacity=".5" d="M235 106h11v28h-11z"/><path fill="#1e201e" fill-opacity=".5" d="M186 112h26v35h-26z"/><path fill="#29230f" fill-opacity=".5" d="M113.6 69l3.8-8.2 9 4.2-3.8 8.2z"/><path fill="#869abf" fill-opacity=".5" d="M60-4l149 3L65 58z"/><circle r="1" fill="#475770" fill-opacity=".5" transform="rotate(-87.4 112.9 51.5) scale(25.04017 83.1904)"/><path fill="#9c9f98" fill-opacity=".5" d="M214 141l3 44H114z"/><circle r="1" fill="#c9d0de" fill-opacity=".5" transform="rotate(-155.2 21.3 4.7) scale(20.91576 9.90161)"/><path fill="#c5cace" fill-opacity=".5" d="M271 37.2l-34 45.4-10.5 55.5-11.1-5.6z"/><path fill="#0c0c0c" fill-opacity=".5" d="M237.4 94.9l-6.8 48.5-2-.3 6.8-48.5z"/><path fill="#806b5b" fill-opacity=".5" d="M172 78l-37 23 21 4z"/><path fill="#cacfd7" fill-opacity=".5" d="M142.3 88.2l6.8 10.6-70.6-.1 28.6-21.3z"/><path fill="#acb7c9" fill-opacity=".5" d="M24.5 60.2l47.1 57-4 28-38.2-50.4z"/><circle r="1" fill="#282d33" fill-opacity=".5" transform="matrix(-70.49732 -106.51066 1.88558 -1.24803 250.8 38.5)"/><circle r="1" fill="#583835" fill-opacity=".5" transform="matrix(-12.36992 -72.28917 1.17155 -.20047 161.2 13.2)"/><path fill="#c1c6cc" fill-opacity=".5" d="M185 76l-1-33 77-33z"/><ellipse cx="232" cy="154" fill="#050601" fill-opacity=".5" rx="2" ry="23"/><path fill="#322724" fill-opacity=".5" d="M165.1 73.8l.1-15.5 10.8-3.8 9.4 11.7z"/><circle r="1" fill="#bec5cd" fill-opacity=".5" transform="rotate(-18.2 232.1 -364.2) scale(41.94275 9.91897)"/><ellipse cx="165" cy="119" fill="#3c2f29" fill-opacity=".5" rx="12" ry="25"/><circle r="1" fill="#92a2bc" fill-opacity=".5" transform="matrix(10.76352 -19.49807 22.90347 12.6434 188.4 20.2)"/><path fill="#23272e" fill-opacity=".5" d="M214.9 114.1l3.5 28.9-32.4 5.6 7.5-75.2z"/><path fill="#2d201d" fill-opacity=".5" d="M154 168.4l-11 1.7-7-44.5 11-1.7z"/><path fill="#eca36f" fill-opacity=".5" d="M183 86h7v6h-7z"/><path fill="#11151b" fill-opacity=".5" d="M222.2 21.4l5.3 2.1L265.9-16l-55 31.3z"/><path fill="#c9ccca" fill-opacity=".5" d="M169.2 159.6l-.9.4-29.5-55.6.9-.4z"/><path fill="#9ea6b4" fill-opacity=".5" d="M0 119h31v18H0z"/><path fill="#b9c0c9" fill-opacity=".5" d="M207 41h30v59h-30z"/><path fill="#e0e8f1" fill-opacity=".5" d="M243.2 101.4l4.4 14.3-2.8 1-4.4-14.4z"/><path fill="#2d3035" fill-opacity=".5" d="M247.3 98.3v1l-60.6 6.4v-1z"/><path fill="#6f85b0" fill-opacity=".5" d="M126.4 9.7L17.5 5.1-16 29.9 6.7-16z"/><ellipse cx="130" cy="120" fill="#4d5662" fill-opacity=".5" rx="2" ry="20"/><path fill="#7b7c7d" fill-opacity=".5" d="M247 162l19 1-25-59z"/><path fill="#cfd7e0" fill-opacity=".5" d="M161 80l-13-3 7 15z"/><path fill="#90735f" fill-opacity=".5" d="M194.8 102.6l-8.1 17-7.6 36.5.5-70.5z"/><path fill="#141917" fill-opacity=".5" d="M259 168l-12-7-22 24z"/><path fill="#34383f" fill-opacity=".5" d="M-10.8 6.4L6.6 23.7l4.1 6.5 27.1 40.5z"/><path fill="#141313" fill-opacity=".5" d="M203 145l-14-41-6 40z"/><path fill="#505e76" fill-opacity=".5" d="M88 136h40v34H88z"/><path fill="#463935" fill-opacity=".5" d="M133 99h49v4h-49z"/><path fill="#3a4248" fill-opacity=".5" d="M260.9 44.3L230.2 2.2l13 6.5-8.1 11.5z"/><path fill="#4a515a" fill-opacity=".5" d="M143.4 73.3L125.2 33l18 47.4-11.9.4z"/><path fill="#797f84" fill-opacity=".5" d="M209.1 177.6l-9.4-31.6-48.2 9.4.8 13.3z"/><path fill="#bac3cd" fill-opacity=".5" d="M211 35.4l42.9 63.7-79.7-46-7.7-15.9z"/><path fill="#b6bcc3" fill-opacity=".5" d="M216 108h14v28h-14z"/><path fill="#414141" fill-opacity=".5" d="M237.3 95.1l1-.2 10.4 54-1 .2z"/><path fill="#b6c2ce" fill-opacity=".5" d="M271 65l-24-46 24-33z"/><path fill="#cbc7bd" fill-opacity=".5" d="M214.4 152.5l2.2 17.9-9 1-2.2-17.8z"/><path fill="#999da2" fill-opacity=".5" d="M149.8 145.2l-3.5-39.9 6-.5 3.4 39.9z"/><path fill="none" stroke="#9a9588" stroke-opacity=".5" stroke-width=".5" d="M-7.7 150.4q24.1-4.2 76.1-8.5"/><path fill="#765a4d" fill-opacity=".5" d="M181.6 150.5l-16.4-.9L155 89.7l16.7 44.8z"/><path fill="#3b465a" fill-opacity=".5" d="M5 147h149v9H5z"/><path fill="#4f4e4c" fill-opacity=".5" d="M126 83l-10-18 11-2z"/><circle r="1" fill="#262c35" fill-opacity=".5" transform="rotate(65.9 15.1 146.1) scale(8.9468 1.7273)"/><path fill="#94a2bb" fill-opacity=".5" d="M26 32h93v21H26z"/><circle r="1" fill="#8195b9" fill-opacity=".5" transform="matrix(7.54093 -5.80787 29.02885 37.69105 5.8 44.7)"/><path fill="#21324e" fill-opacity=".5" d="M14.5 166.1l47.5 4.1h-78l21.6-21.5z"/><path fill="#2b3740" fill-opacity=".5" d="M29.5 97.2l-.9.6-34-47 .8-.6z"/><path fill="#5a6984" fill-opacity=".5" d="M218 135h12v35h-12z"/><path fill="#0c0d12" fill-opacity=".5" d="M175.5 130.5l-3.3-22.2-7.7-13.3 4.3 29.5z"/><path fill="#141116" fill-opacity=".5" d="M253.1 13.9l-5.9-12-29.4-.7 31.1 12z"/><path fill="#aab1bd" fill-opacity=".5" d="M87 115h43v21H87z"/><circle r="1" fill="#131318" fill-opacity=".5" transform="matrix(-3.01432 2.33158 -13.76707 -17.7984 203 108.1)"/><path fill="#73635c" fill-opacity=".5" d="M168.5 99.3l7.7-2.7L211 127l-31.8-40.6z"/><path fill="#705c55" fill-opacity=".5" d="M164 87l-2-16 23 2z"/><path fill="#cad3de" fill-opacity=".5" d="M234 117h6v18h-6z"/><path fill="#cfd5dc" fill-opacity=".5" d="M242.1 37.5l25.2 34.2-27.7-45-8.5 12.1z"/><path fill="#8e9097" fill-opacity=".5" d="M247 142h9v21h-9z"/><ellipse cx="245" cy="112" fill="#d1d5da" fill-opacity=".5" rx="2" ry="11"/><path fill="#40516b" fill-opacity=".5" d="M0 137h66v4H0z"/><path fill="#2b2233" fill-opacity=".5" d="M204 2h21v7h-21z"/><circle r="1" fill="#b4bcc9" fill-opacity=".5" transform="matrix(31.4055 .573 -.1859 10.189 54.8 23)"/><circle r="1" fill="#555051" fill-opacity=".5" transform="matrix(1.3132 -17.06664 6.20361 .47734 134.4 136.5)"/><path fill="#afb8c2" fill-opacity=".5" d="M241.9 38.1l-53.8 38.4-2.8-26.4 24.8 54z"/><path fill="#929eb3" fill-opacity=".5" d="M59.2 93l17.2-24.5-47.1-11.9 31.6 42.9z"/><path fill="#a47a5b" fill-opacity=".5" d="M187.1 121.4l-6.1-20.5 11.4-8.2-6.2-8.1z"/><path fill="#3d332e" fill-opacity=".5" d="M151.2 125.4l9.1 17.3 2.7-32.5 16.5-42z"/></g></g></svg>