<svg xmlns="http://www.w3.org/2000/svg" viewBox="0 0 4032 2688"><defs/><filter id="prefix__a"><feGaussianBlur stdDeviation="12"/></filter><rect width="100%" height="100%" fill="#553d37"/><g filter="url(#prefix__a)"><g transform="translate(7.9 7.9) scale(15.75)"><circle cx="152" cy="13" r="157" fill="#abbcc1" fill-opacity=".5"/><circle r="1" fill="#000407" fill-opacity=".5" transform="matrix(-3.18825 49.44265 -61.39787 -3.95916 73.7 122.3)"/><circle r="1" fill="#fff" fill-opacity=".5" transform="rotate(-143.4 23.3 -7.7) scale(60.47969 50.35823)"/><circle r="1" fill="#cef1ff" fill-opacity=".5" transform="matrix(-13.54304 -12.57257 39.98383 -43.07018 152.9 135.9)"/><circle r="1" fill="#d1f0fa" fill-opacity=".5" transform="matrix(32.49006 2.28293 -1.66736 23.72945 176.3 20.8)"/><circle r="1" fill="#543229" fill-opacity=".5" transform="matrix(23.13312 7.11668 -27.55677 89.57468 214.3 96.9)"/><circle r="1" fill="#371906" fill-opacity=".5" transform="matrix(10.62291 -29.66865 23.07372 8.26159 122.5 40.6)"/><path fill="#e2f9ff" fill-opacity=".5" d="M182.3 129.2l-48.4-52 19.8-18.4 48.4 52z"/><circle r="1" fill="#c0e6fe" fill-opacity=".5" transform="matrix(6.36689 12.25784 -17.7457 9.21735 12.8 79.5)"/><circle r="1" fill="#e3edeb" fill-opacity=".5" transform="matrix(-16.0819 -48.8225 27.52563 -9.06681 64.4 24.4)"/><path fill="#ecffff" fill-opacity=".5" d="M-16 162l57 23-48-44z"/><path fill="#000006" fill-opacity=".5" d="M120 116.5l19.2-25.6 16.8 12.6-19.2 25.6z"/><path fill="#ac795d" fill-opacity=".5" d="M92 48h42v61H92z"/><circle cx="249" cy="163" r="33" fill="#8798c5" fill-opacity=".5"/><path fill="#ebdad6" fill-opacity=".5" d="M265.9 70.3l5.1 8.8-.8-78.8-35.7 64.8z"/><circle r="1" fill="#d8f6ff" fill-opacity=".5" transform="matrix(-93.8977 66.88254 -9.31985 -13.08432 8.7 19.7)"/><circle r="1" fill="#2e2926" fill-opacity=".5" transform="rotate(9.5 -396.2 1339.6) scale(31.71368 15.86169)"/><ellipse cx="42" cy="127" fill="#1c292e" fill-opacity=".5" rx="44" ry="42"/><circle r="1" fill="#482710" fill-opacity=".5" transform="rotate(40.8 -137.4 327) scale(19.1487 35.52725)"/><path fill="#c7cfd3" fill-opacity=".5" d="M128.9 72.1L128 70l50.1 49.2 14.7-64.5z"/><path fill="#151b20" fill-opacity=".5" d="M101 120l63-24-75 89z"/><path fill="#ddf6ff" fill-opacity=".5" d="M215.1 12.4l-55.3-23.9L205 32.4 243.5-16z"/><path fill="#e5feff" fill-opacity=".5" d="M172 18l-53-34H51z"/><circle r="1" fill="#27141f" fill-opacity=".5" transform="rotate(-14.5 756 -867) scale(11.18324 15.01322)"/><path fill="#3d5660" fill-opacity=".5" d="M17.4 61.9L30.6 26l-42.4 28.3-4.2 30.1z"/><path fill="#04060c" fill-opacity=".5" d="M71 49h16v6H71z"/><path fill="#4e5245" fill-opacity=".5" d="M188.3 36.9l5.5-17.5L146.3-.2l77.4 50z"/><path fill="#573118" fill-opacity=".5" d="M137 45l39 18-35-1z"/><path fill="#c6b5b5" fill-opacity=".5" d="M241.3 32.4l-21.6 20.3 7.6-23.8-17-18.6z"/><ellipse cx="245" cy="17" fill="#1a2930" fill-opacity=".5" rx="17" ry="12"/><path fill="#dde5d5" fill-opacity=".5" d="M241 101l21 19 1-42z"/><circle r="1" fill="#a6856a" fill-opacity=".5" transform="matrix(4.81868 -1.73926 4.2702 11.83076 89.5 156)"/><path fill="#0a1314" fill-opacity=".5" d="M103 34l42 5-21-25z"/><path fill="#845830" fill-opacity=".5" d="M14.1 42.9l11.6 26.3 7.7 2.8 21.7-16.8z"/><circle r="1" fill="#c9d1cf" fill-opacity=".5" transform="matrix(-5.81833 -9.98674 17.33557 -10.0998 164.4 33.8)"/><circle r="1" fill="#b5cae2" fill-opacity=".5" transform="matrix(-6.8641 -9.51731 34.53426 -24.9069 166.5 123.2)"/><path fill="#3c2923" fill-opacity=".5" d="M204 39l-10 35 48 20z"/><circle r="1" fill="#22201f" fill-opacity=".5" transform="matrix(-17.88886 11.13917 -4.85773 -7.80123 43 85.6)"/><path fill="#7a5653" fill-opacity=".5" d="M194 117l70 18-51-57z"/><path fill="#001e43" fill-opacity=".5" d="M227-3L209 9l-48-25z"/><ellipse cx="72" cy="9" fill="#eaf2ed" fill-opacity=".5" rx="35" ry="13"/><path fill="#c3bfe7" fill-opacity=".5" d="M226.9 179.2l-10.1-25 8.3-3.4 10.1 25z"/><circle r="1" fill="#394447" fill-opacity=".5" transform="rotate(-125.2 52.4 61) scale(57.92294 12.46737)"/><path fill="#1c2c39" fill-opacity=".5" d="M159 100l-17-10-46 49z"/><path fill="#c1d6f8" fill-opacity=".5" d="M243.5 133.3l-11.4 1.2-9.1 13.6 42.7-13.1z"/><ellipse cx="71" cy="65" fill="#e1a986" fill-opacity=".5" rx="27" ry="9"/><path fill="#7d9bb8" fill-opacity=".5" d="M173.9 144.4l-23.2 32.2 14.7-40.1 15.6-12.6z"/><path fill="#8d7f7e" fill-opacity=".5" d="M125.7 155.6l34.7-47.6-28.7 34.7-13.3-28.1z"/><path fill="#0048a2" fill-opacity=".5" d="M244.4 135.4l3.7 7 3.7 4.6-22.8 13.6z"/><path fill="#98b1c2" fill-opacity=".5" d="M42.6 4l8.5 47.6-30.9-11.5 21.4-32z"/><path fill="#a9dcff" fill-opacity=".5" d="M31 177l-47-43v30z"/><path fill="#9cb1c7" fill-opacity=".5" d="M124 175.3l23.4 9.6 47.9-75.7-91.6 59.8z"/><circle r="1" fill="#97725b" fill-opacity=".5" transform="rotate(-137.7 70.8 19) scale(17.06888 21.05567)"/><path fill="#252528" fill-opacity=".5" d="M49 77h36v93H49z"/><path fill="#071b18" fill-opacity=".5" d="M241 82.1l-6.4-.7-8.9 16.9 27.2-10.2z"/><ellipse cx="196" cy="50" fill="#986a50" fill-opacity=".5" rx="46" ry="6"/><path fill="#c1cbcc" fill-opacity=".5" d="M144.5 67l-18.2 8.1 37.4 30.1 24.8-47.7z"/><path fill="#c6bebe" fill-opacity=".5" d="M192 32l34-12 16-36z"/><path fill="#715142" fill-opacity=".5" d="M96 39h35v37H96z"/><circle cx="105" cy="147" r="14" fill="#0e1010" fill-opacity=".5"/><path fill="#3a3e3a" fill-opacity=".5" d="M102 17h49v9h-49z"/><path fill="#4d715d" fill-opacity=".5" d="M143.7 2.9l42.8 20L140.6-16l18.8 18.5z"/><path fill="#968c88" fill-opacity=".5" d="M215 30.6l5.7 27.6 26.4 9.4-6.7 11z"/><path fill="#c7e0f7" fill-opacity=".5" d="M186.9 34.6L88.7-16l77.1 30.6 18.1 7.1z"/><path fill="#a4b7c3" fill-opacity=".5" d="M37.8 77.5L12.9 97.7 2.2 84.5l24.9-20.2z"/><path fill="#755049" fill-opacity=".5" d="M271 124.2l-36.3 9.2-58.1 51.6 62.4-79.6z"/><path fill="#382f2a" fill-opacity=".5" d="M174 173l-29 12 42-61z"/><path fill="#7b92b0" fill-opacity=".5" d="M158 156l3-25 15 15z"/><circle r="1" fill="#795653" fill-opacity=".5" transform="matrix(5.44219 -26.5886 4.995 1.02238 250 26.6)"/><path fill="#443b35" fill-opacity=".5" d="M74.9 50.3l13.8 8 4-4.9-2-.5z"/><path fill="#697065" fill-opacity=".5" d="M222 87l41-15-28-8z"/><path fill="#8e776e" fill-opacity=".5" d="M186 98l-6-27 17-16z"/><path fill="#b8ae9f" fill-opacity=".5" d="M131.5 2.4l37.2 46.5 39.1-16.3-13.4 12z"/><circle r="1" fill="#d6e3ed" fill-opacity=".5" transform="rotate(-3 522.8 -1222.1) scale(16.01978 29.10707)"/><path fill="#2a5b84" fill-opacity=".5" d="M89 96h8v27h-8z"/><path fill="#c9ccf0" fill-opacity=".5" d="M250 4l21 44V17z"/><path fill="#977057" fill-opacity=".5" d="M86 126h7v39h-7z"/><path fill="#c1accb" fill-opacity=".5" d="M254.2 149.4l-8-6 9.6-12.8 8 6z"/><path fill="none" stroke="#252820" stroke-opacity=".5" stroke-width=".5" d="M182.2 122.2q-12.3 20.1-42.9 62.8"/><path fill="none" stroke="#383d37" stroke-opacity=".5" stroke-width=".5" d="M142 181.4q35.8-55.2 42-61.5"/><circle r="1" fill="#7b482d" fill-opacity=".5" transform="matrix(4.11858 -18.12802 9.342 2.12245 245.7 169)"/><circle r="1" fill="#2b2d2d" fill-opacity=".5" transform="matrix(41.11838 -33.4018 11.11694 13.6852 24.8 109.2)"/><circle cx="165" cy="117" r="15" fill="#c2d7eb" fill-opacity=".5"/><path fill="#86706f" fill-opacity=".5" d="M210.3 95.7l.8-8.9 59.9 37.5-52.3-10.4z"/><path fill="#592017" fill-opacity=".5" d="M228.8 8.4l-13 13.9-.6-.7 13-13.9z"/><path fill="#d3f0ff" fill-opacity=".5" d="M196 33l14-23-19 11z"/><path fill="#181d1f" fill-opacity=".5" d="M109 113l15 32-28 34z"/><path fill="#c3d5e2" fill-opacity=".5" d="M136 84l6-23 51 57z"/><circle r="1" fill="#79533c" fill-opacity=".5" transform="matrix(-42.67637 9.72058 -.67045 -2.9435 170 56)"/><path fill="#cdcbca" fill-opacity=".5" d="M263.9 71.3l-10.8-51.7 7.4-1-16.6 43.2z"/><path fill="#1d1d1c" fill-opacity=".5" d="M138 86l-3 14 19-3z"/><path fill="#cda78e" fill-opacity=".5" d="M126.8 81.6l7.3 16.5 5.6-23.7-2-8.7z"/><path fill="#412b29" fill-opacity=".5" d="M211 49l-7 48-21-11z"/><path fill="#a8b9c9" fill-opacity=".5" d="M105.2 171.7l17.7-24.2 25.9 18.8-17.7 24.2z"/><path fill="#9fb0bc" fill-opacity=".5" d="M37 74l-49-10 23 33z"/><path fill="#6c4f41" fill-opacity=".5" d="M197 123.3l37 61.7-20.7-15.6-39.4-18.6z"/><path fill="#baa18f" fill-opacity=".5" d="M103 35h4v19h-4z"/><path fill="#553d36" fill-opacity=".5" d="M199.3 42.2l38.7 25L195.6 91l19.8-65.4z"/><path fill="#555a60" fill-opacity=".5" d="M35.2 151.6l-5.7-7.5 16.9-13.6 5.9 1.5z"/><path fill="#a7a8a3" fill-opacity=".5" d="M163 63l17 37 17-46z"/></g></g></svg>