<svg xmlns="http://www.w3.org/2000/svg" viewBox="0 0 1800 1350"><defs/><filter id="a"><feGaussianBlur stdDeviation="12"/></filter><rect width="100%" height="100%" fill="#2e645d"/><g filter="url(#a)"><g fill-opacity=".5" transform="translate(3.5 3.5) scale(7.03125)"><ellipse cx="115" cy="62" fill="#ffa074" rx="144" ry="255"/><circle r="1" fill="#caf7ff" transform="matrix(-8.38184 -36.01883 146.99958 -34.20787 87.5 10.7)"/><ellipse cx="191" cy="99" fill="#6b3c09" rx="38" ry="91"/><circle r="1" fill="#fff" transform="matrix(-.82836 22.05858 -30.69438 -1.15266 235.4 13)"/><circle r="1" fill="#00001b" transform="matrix(-40.2158 12.0876 -3.64728 -12.13461 148.2 172.6)"/><circle r="1" fill="#683b16" transform="rotate(-160.3 40.4 74.6) scale(23.56806 98.27208)"/><path d="M325.7 52.9l1 15L136.4 81l-1-15z"/><circle r="1" fill="#feffdd" transform="rotate(-178.4 110.5 85.3) scale(22.39441 10.39091)"/><ellipse cx="166" cy="188" fill="#ffffd1" rx="26" ry="12"/><ellipse cx="8" cy="139" fill="#ffdba1" rx="15" ry="45"/><path fill="#512600" d="M77 124.8l55.6-12.9 6.3 27.3-55.5 12.9z"/><path fill="#d9cda1" d="M93 66l119 39-126-2z"/><ellipse cx="255" cy="132" fill="#4f3600" rx="39" ry="31"/><ellipse cx="46" cy="79" fill="#260000" rx="6" ry="27"/><path d="M-16 64v29h47z"/><circle r="1" fill="#d3ccc3" transform="matrix(19.38858 -11.43837 20.46083 34.68208 15.3 52.5)"/><path fill="#0f0000" d="M45.1 56.6l18.2-10.2-3.5-3.2 23 20.4z"/><path fill="#00008a" d="M117 164h22v28h-22z"/><path fill="#a3c5ed" d="M41 0h127v42H41z"/><path fill="#140000" d="M180.4 54.9l2.5 36.4-23-27L186 2.9z"/><circle r="1" fill="#ffb789" transform="matrix(-23.86382 17.78754 -6.47622 -8.68852 86.1 168.6)"/><ellipse cx="240" cy="79" fill="#f5fce0" rx="21" ry="7"/><ellipse cx="62" cy="81" fill="#ff8f6b" rx="14" ry="24"/><circle r="1" fill="#c3731d" transform="matrix(35.34732 -13.56113 6.24358 16.27399 227.4 191)"/><path fill="#ccd8fa" d="M104.2 90.7L67 46.7l19.5 6.7L115.1 83z"/><ellipse cx="193" cy="147" fill="#ffa77c" rx="23" ry="8"/><circle r="1" fill="#3d1200" transform="rotate(-73.1 182.3 -28) scale(24.19746 9.76866)"/><path fill="#fff" d="M114 143l24 6-17 13z"/><circle r="1" fill="#a6884a" transform="matrix(2.79138 16.80567 -77.86171 12.93262 167.7 103.2)"/><path fill="#0e0c00" d="M101 132l-27-19 4-33z"/><path fill="#cfcab5" d="M164.8 90.1l-60.7-12.8L123.7 97l43-26.8z"/><path fill="#cf663a" d="M185 27h19v69h-19z"/><path d="M215 58h41v14h-41z"/><ellipse cx="12" cy="105" fill="#f5eebe" rx="22" ry="11"/><circle r="1" fill="#a49069" transform="matrix(6.17396 -20.06878 30.82996 9.48454 34.7 135.6)"/><circle r="1" fill="#261f03" transform="matrix(-8.60458 2.62995 -7.85765 -25.70844 37.2 181.8)"/><circle r="1" fill="#ffffe6" transform="matrix(16.36953 28.0131 -7.51509 4.39146 214.7 12.7)"/><path fill="#442003" d="M182.4 4l-11.5 15.9 28.6 4.9 24.7 16.8z"/><circle r="1" fill="#ce641e" transform="matrix(7.1894 14.963 -23.2443 11.16837 91.2 191)"/><circle r="1" fill="#1a1100" transform="matrix(22.91096 .4578 -.20676 10.3472 175 167.6)"/><path fill="#562c0b" d="M35.8 80.5l-21.9-8L25.1 65l8.7 11.3z"/><path fill="#714d1d" d="M107 49l4 28 62-18z"/><path fill="#080500" d="M200.3 72.3l-39.8-13 57.2 12.8-12.9 22.8z"/><path fill="#fffbe3" d="M150 8h19v25h-19z"/><circle r="1" fill="#3f0d00" transform="matrix(6.82915 18.16866 -4.51202 1.69596 47.3 97.7)"/><circle r="1" transform="matrix(-.08758 -3.65928 38.28871 -.91637 0 91.4)"/><path fill="#0e0611" d="M89.6 82.6L71.5 77l2.9-9.6L92.5 73z"/><path fill="#3b2819" d="M62.4 145.6l32.6-8.8-13.5 19.7-39.4 13.8z"/><path d="M253 93h3v76h-3z"/><circle r="1" fill="#e0caa3" transform="matrix(60.61546 -33.86763 7.10503 12.7164 41.6 4.3)"/><circle cx="16" cy="191" r="11" fill="#ffc57e"/><path fill="#f4754c" d="M58 96h13v30H58z"/><path fill="#af6a00" d="M156 121l-14 62-3-36z"/><circle r="1" fill="#f3fdff" transform="rotate(-153 21.2 38.6) scale(13.88557 3.62598)"/><path d="M85 40h27v2H85z"/><path fill="#f9c39f" d="M86.1 166.6l28.5-11.7-30.1-2.9-35.8 55z"/><path fill="#c2ddf1" d="M226.6 35.1L218-9l31.4-6.1L258 29z"/><circle r="1" fill="#b9a70f" transform="matrix(5.09775 4.23347 -8.95548 10.78377 163.5 189.9)"/><path fill="#edebca" d="M150 207l-12-28h24z"/><path fill="#391c05" d="M200 10l-41 56 8-34z"/><path fill="#00004d" d="M106.8 159.7l37.8 14.9-26 28.7-6.4-34.6z"/><path fill="#c2bfb6" d="M245 153l6 13-27 22z"/><path fill="#bc6b00" d="M193 182h42v10h-42z"/><path fill="#081111" d="M150 58l-20 25 47-16z"/><circle r="1" fill="#ebfeff" transform="rotate(-67.2 232.7 -67.4) scale(5.57417 8.71905)"/><circle r="1" fill="#4c2f0d" transform="matrix(4.44318 2.64867 -9.51519 15.96188 50.2 61.8)"/><path fill="#d57e4b" d="M216 157l-42-14-30 11z"/><path fill="#bba761" d="M264 57l-17 78-9-44z"/><path fill="#540e1c" d="M105 153l8-13-33-5z"/><path fill="#2e1808" d="M223.8 162.1l4.7 1.5-6.6-31.1 19.1 6.8z"/><path fill="#fe966a" d="M181 45h30v7h-30z"/><path fill="#d0c8ad" d="M114 121L84 86l26-13z"/><path fill="#2d618b" d="M65.8 129.6l-2.1 9.8-23.5-5 2.1-9.8z"/><path d="M146 36h21v2h-21z"/><path fill="#c4cad3" d="M43.4 16.3L47 53.4l-12 21L6.3 48.1z"/><circle r="1" transform="matrix(-1.51049 -13.05479 2.13305 -.2468 213.3 37.6)"/><path fill="#080000" d="M79 58l-18-9 20 20z"/><path fill="#ffde64" d="M57.6 126.6l-8.3 25.7-2.9-1 8.3-25.6z"/><path fill="#955420" d="M91.1 207l-26-24.9 48.4 6.2 6.4-39.8z"/><path fill="#cee9ff" d="M94 62L72 47l14 23z"/><path fill="#e49a74" d="M112.1 183.5l-3.6-13.4 8.8-23.6L70 176.8z"/><path fill="#232609" d="M170.3 119.5l-6.5 8.4 22.6 12.9-36.9 8.8z"/><ellipse cx="126" cy="158" fill="#fbffff" rx="4" ry="7"/><circle r="1" fill="#ad974a" transform="matrix(18.60725 -19.06756 8.05357 7.85915 149.5 124.2)"/><path fill="#1d0000" d="M251 168l-2-33 22 30z"/><path fill="#000f92" d="M123.2 169.7l11.6-11.5 1.2 18.1-5.2 30.7z"/><path fill="#fdd11b" d="M58.8 169.9l-6.9 19.8-4.7-1.6 6.9-19.8z"/><path fill="#1f0b00" d="M195.7 177.3l-49.1-4.4-8.2-21.1 44.5 29.3z"/><path fill="#556c77" d="M183.9 5.1l-77.7 6.8-.1-1 77.7-6.8z"/><path fill="#fff4e3" d="M149.6 6.3l4.4-18.4 77.2 9.8-36.7 5.2z"/><path fill="#4b0715" d="M185.6 118.6l9.9 7.1L209 119l-13-8z"/><path fill="#c3694a" d="M57 74.7l-2.5 43.1 25.2-29-3.1-23.1z"/><circle r="1" fill="#4d2b15" transform="rotate(-176.7 91.4 45.4) scale(2.07287 24.50767)"/><path fill="#e5e5d7" d="M271 69l-24 12-24-6z"/><path fill="#b2ab8d" d="M160.6 16.1l3.3 55.3-14.5-30.1 13.2-1.5z"/><path fill="#baab80" d="M230.4 45.4l-8.1 19.5-6.6-25 51.8-5.5z"/><circle r="1" fill="#4c6788" transform="matrix(-.06337 -.99799 42.69305 -2.7108 71.8 42.3)"/><path d="M7 207h57l-7-21z"/><path fill="#010000" d="M265 68l-36-9-1 14z"/><circle cx="195" cy="30" r="8" fill="#eba064"/></g></g></svg>