<svg xmlns="http://www.w3.org/2000/svg" viewBox="0 0 1800 1350"><defs/><filter id="a"><feGaussianBlur stdDeviation="12"/></filter><rect width="100%" height="100%" fill="#555a41"/><g filter="url(#a)"><g fill-opacity=".5" transform="translate(3.5 3.5) scale(7.03125)"><circle r="1" fill="#87bfff" transform="matrix(-139.4222 144.21784 -127.51818 -123.27786 116 82.4)"/><circle cx="182" cy="16" r="91" fill="#63adff"/><path d="M253.3 89.5l26.8 24-31.4 35-26.8-24z"/><circle r="1" fill="#484f24" transform="matrix(89.95422 17.77832 -8.0276 40.61781 35.7 89)"/><ellipse cx="112" cy="191" fill="#e5b290" rx="255" ry="43"/><circle r="1" fill="#67a2ff" transform="matrix(142.00864 64.71706 -15.29589 33.56376 109.8 30.4)"/><ellipse cx="140" cy="122" fill="#0473b2" rx="92" ry="20"/><path d="M153.3 161.4l32 1.2-.6 14-32-1.2z"/><circle r="1" transform="rotate(-123.9 158.2 -9.6) scale(18.02509 29.91146)"/><circle r="1" fill="#b0cef5" transform="matrix(-.06432 15.72563 -55.869 -.22852 194.5 89.3)"/><circle r="1" fill="#477ee8" transform="matrix(-.33304 35.89024 -138.1514 -1.28197 131.6 7)"/><circle r="1" fill="#907346" transform="matrix(58.20241 12.03517 -4.43974 21.47069 18.3 49.5)"/><ellipse cx="86" cy="86" fill="#74622d" rx="54" ry="13"/><circle r="1" fill="#1f6369" transform="matrix(63.75048 .3836 -.09466 15.73156 23 122.9)"/><path fill="#fff" d="M32 100h17v8H32z"/><circle r="1" fill="#77affc" transform="matrix(107.6413 -37.11938 8.5017 24.65383 240.8 45.1)"/><path fill="#c9ab9a" d="M92 69L66 43H14z"/><ellipse cx="172" cy="171" rx="15" ry="4"/><ellipse cx="96" cy="189" fill="#d4bda5" rx="80" ry="23"/><path fill="#020007" d="M248 71h8v68h-8z"/><ellipse cx="204" cy="154" fill="#a1b0cf" rx="35" ry="12"/><ellipse cx="107" cy="101" fill="#c6bbbf" rx="137" ry="2"/><circle r="1" fill="#0d49a3" transform="rotate(-178.2 102.1 51.7) scale(32.44189 3.46602)"/><path fill="#a3c8fe" d="M228 100l28-16-28-19z"/><circle r="1" fill="#cdd7f3" transform="matrix(-17.86674 14.96248 -4.2447 -5.06861 117.9 0)"/><path fill="#62603a" d="M0 27h25v72H0z"/><circle r="1" fill="#838783" transform="matrix(-64.5266 -1.12632 .16685 -9.55908 59.5 152)"/><path fill="#706866" d="M265.4 167.3l-33.6-12.9 6.8-17.7 33.6 12.9z"/><path fill="#967b65" d="M112.8 81.3l23.2.4 11.7 23.7-56.4-5.1z"/><path fill="#d4cabe" d="M13 65l20 13-4-15z"/><circle cx="245" cy="120" r="17"/><path fill="#515c30" d="M32 65h51v34H32z"/><circle r="1" fill="#4583d2" transform="matrix(-8.24837 -19.05959 58.18095 -25.17882 146.8 17.1)"/><ellipse cx="255" cy="188" fill="#83694e" rx="51" ry="4"/><ellipse cx="146" cy="107" fill="#1c579a" rx="95" ry="6"/><path fill="#000522" d="M151.7 172.5l-2-7.8 12.6-3.2 2 7.8z"/><circle r="1" fill="#66a6fd" transform="matrix(38.5683 26.38366 -5.30801 7.75938 84.7 47.8)"/><circle r="1" fill="#629db1" transform="matrix(.45395 10.39706 -76.98628 3.3613 157.4 141.5)"/><path fill="#d5b99a" d="M174 175h76v11h-76z"/><ellipse cx="3" cy="170" fill="#cac3c5" rx="92" ry="6"/><path fill="#88bdf2" d="M113 67l53 36 105-39z"/><path fill="#9bbdea" d="M145 83h101v20H145z"/><path fill="#1d4c51" d="M-9.5 106.6l31.7-4 3.3 26.8-31.7 4z"/><circle r="1" fill="#5792e6" transform="matrix(-104.7107 15.82015 -2.22605 -14.73385 200.7 32.3)"/><path fill="#467eb8" d="M162.7 116.1l72.7-14.8L228 122l10.3 26.2z"/><ellipse cx="28" cy="132" fill="#43867d" rx="78" ry="10"/><path fill="#6b98f7" d="M-16 8.5l2.4 7.2 76.5 25.2-18.2-22.5z"/><path fill="#475537" d="M-16 50.8V24.6l71.2 55.8 3-2.7z"/><path fill="#969eb1" d="M194.7 152.7l9-4.2-78.9-3.3-9.9 31.6z"/><path fill="#d3cab1" d="M38 75h2v25h-2z"/><circle r="1" fill="#927566" transform="rotate(-59.7 125 -57.4) scale(4.54331 37.00281)"/><path d="M152 169h25v5h-25z"/><path fill="#fff" d="M24 105h25v2H24z"/><path fill="#525216" d="M31 85l8 12-47 1z"/><path fill="#295d8f" d="M218 119l32 22-65-19z"/><path fill="#c0b793" d="M9 99h113v3H9z"/><path fill="#569ecf" d="M142 114h83v7h-83z"/><path fill="#f2f6f0" d="M194 155l1 10-14-8z"/><path fill="#8b8151" d="M13 83.2l35.7 8.4.3 1.4-64.9-36.3z"/><circle r="1" fill="#000007" transform="matrix(3.91032 12.68408 -24.74747 7.62929 255 112.2)"/><path fill="#696964" d="M242 140h14v15h-14z"/><path fill="#83776e" d="M0 154h93v5H0z"/><path fill="#bfd9fb" d="M173.6 48.6l23 .8-.2 6-23-.8z"/><path fill="#204e71" d="M50 103h48v15H50z"/><path fill="#526569" d="M36 100l-8 10 1-8z"/><path fill="#d8e7ff" d="M103.1 1l10.3-11 9.5 9-10.3 11z"/><path fill="#57613f" d="M41 69h62v31H41z"/><path fill="#a6c9ff" d="M246 82h10v5h-10z"/><path fill="#d1d6e1" d="M18 151h20v3H18z"/><path fill="#a79583" d="M127.2 165.4l4.4 1.3-7.4 9.1-56.4-11.4z"/><path fill="#9b947f" d="M66.1 67.6l-42.3-7.5 37.8-2.2-22.2-13.5z"/><ellipse cx="40" cy="42" fill="#ba9376" rx="20" ry="3"/><ellipse cx="128" cy="112" fill="#186da5" rx="50" ry="4"/><path fill="#c39a7d" d="M111 86l22 14-1-10z"/><path fill="#a9c1ed" d="M105 8l-17 2 8 5z"/><circle r="1" fill="#818360" transform="matrix(-4.33727 4.0088 -5.5564 -6.01167 81.3 93)"/><path d="M250 87h3v12h-3z"/><path fill="#cdb997" d="M15 91l-16-5-14 4z"/><circle r="1" fill="#6b6864" transform="rotate(-166.3 17.4 15.6) scale(28.0915 4.11279)"/><path fill="#4a5863" d="M157.2 166.8l-.8-9.9-3.2 5 27.6-2.3z"/><path fill="#70a6f4" d="M271 24L121 77l132-7z"/><path fill="#318daa" d="M149.6 140.8l-74.7-2.1 31.6-16.6 112.6-4.4z"/><path fill="#cbb59e" d="M25.7 183.9l-37.6-8.4L1.4 207l259-34.7z"/><path fill="#505527" d="M17 65L9 87l-15-1z"/><ellipse cx="89" cy="147" fill="#88969a" rx="126" ry="3"/><path fill="#0a0b04" d="M184.4 172.9l-11.5-7.3 13.1-.2-18 10.7z"/><path fill="#8ba8ef" d="M60.4 8.5l5.7-1.7L45.4-16H6z"/><path fill="#80c0f8" d="M102 67l54 23-32-29z"/><path fill="#bab1a2" d="M20 71l-7-12 24 19z"/><circle cx="39" cy="106" r="4" fill="#eff5f9"/><path fill="#3a6370" d="M22 108h50v20H22z"/><circle r="1" fill="#457bd0" transform="matrix(2.31166 6.98981 -50.68509 16.76249 140.2 9.5)"/><path fill="#a8978a" d="M1 176h96v4H1z"/><path fill="#000008" d="M227.1 125.1l43.9 17.1-25-47.3 25-11.2z"/><path fill="#9eabbb" d="M138 151l51-4-8 16z"/><path fill="#93b1e3" d="M240.8 103.4l-79.5-.2 82.8-18.4 4.3 15.8z"/><ellipse cx="225" cy="143" fill="#7391a5" rx="28" ry="4"/><ellipse cx="17" cy="141" fill="#6c8a7e" rx="31" ry="5"/><ellipse cx="109" cy="102" fill="#866b4e" rx="39" ry="1"/><path fill="#c8a58a" d="M90 64l-31-5 5-7z"/></g></g></svg>