<svg xmlns="http://www.w3.org/2000/svg" viewBox="0 0 1800 1200"><defs/><filter id="a"><feGaussianBlur stdDeviation="12"/></filter><rect width="100%" height="100%" fill="#7a6241"/><g filter="url(#a)"><g fill-opacity=".5" transform="translate(3.5 3.5) scale(7.03125)"><circle r="1" fill="#a9ccea" transform="rotate(-87.9 117.9 -24.8) scale(81.49706 132.73081)"/><path fill="#cbc0aa" d="M-4 23l130 92 145-77z"/><ellipse cx="91" cy="161" fill="#265f90" rx="255" ry="15"/><circle r="1" fill="#4b6176" transform="matrix(13.87673 192.21688 -31.9953 2.30984 10.2 74.5)"/><ellipse cx="219" cy="5" fill="#243652" rx="203" ry="18"/><circle r="1" fill="#9db5d1" transform="matrix(-8.59386 -40.78078 14.14345 -2.9805 255.1 21.6)"/><circle r="1" fill="#b0c4de" transform="matrix(2.16792 -35.44512 14.37 .8789 1 11)"/><circle r="1" fill="#616e7d" transform="rotate(-151.7 137.5 30.1) scale(27.8568 44.04637)"/><path fill="#051320" d="M19 162L4 113l-15 54z"/><path fill="#a49987" d="M45 16l72-11-133 105z"/><ellipse cx="135" cy="156" fill="#babcd1" rx="116" ry="4"/><path fill="#002e16" d="M0 162h256v4H0z"/><path fill="#24252a" d="M22 2l30-4L5 56z"/><ellipse cx="136" cy="1" rx="94" ry="3"/><circle r="1" fill="#a1b3c6" transform="matrix(33.2019 20.47938 -11.72093 19.0024 136.6 105)"/><ellipse cx="86" cy="150" fill="#142e64" rx="227" ry="3"/><ellipse cx="122" cy="40" fill="#e3e4d9" rx="105" ry="3"/><path fill="#20252a" d="M244.8 54.4l-6.7-31.7-3.3-19.4-31.4-7.1z"/><ellipse cx="131" cy="16" fill="#736d64" rx="89" ry="11"/><path fill="#a3967b" d="M220.9 24.2l-44.1 47.2 82.8 22.8L244 44.4z"/><circle cx="200" cy="94" r="27" fill="#7999af"/><path fill="#a2a7ab" d="M15 167h241v3H15z"/><path fill="#a58456" d="M104 56l36-12-50 42z"/><circle r="1" fill="#c7b38f" transform="rotate(80 7.4 74.3) scale(9.22313 55.55851)"/><path fill="#728697" d="M24 146l22-82 25 83z"/><circle r="1" fill="#705f55" transform="matrix(-20.00158 -16.6403 7.62897 -9.16999 254.6 114.8)"/><ellipse cx="84" cy="69" fill="#c4bdab" rx="12" ry="30"/><ellipse cx="138" cy="128" fill="#c1d2e4" rx="107" ry="1"/><circle r="1" fill="#5a6670" transform="rotate(62.9 -80.3 60.2) scale(46.77036 17.56383)"/><ellipse cx="231" cy="97" fill="#d6c6af" rx="2" ry="33"/><ellipse cx="153" cy="156" fill="#8f9db2" rx="98" ry="5"/><path fill="#a88551" d="M172 82l41-34-33 11z"/><path fill="#71706b" d="M242 27l17 29-81-44z"/><circle r="1" fill="#8199aa" transform="matrix(27.95202 .0798 -.01385 4.85167 69 158.5)"/><path fill="#b3b3b1" d="M155 60h17v89h-17z"/><circle r="1" fill="#3a5f8d" transform="matrix(2.0678 -17.87154 2.66544 .3084 173.2 137.6)"/><path fill="#5e7389" d="M98 121h51v6H98z"/><path fill="#202732" d="M26.5 2.3l1.9 12.6L-16 13l12.7 12.6z"/><path fill="#aebdd0" d="M17.6 8.9l12-24.9-29 27.7-5-27.7z"/><path fill="#252629" d="M173.3-3.6L195.8-16l55.7 32.6-27.6 5.8z"/><path fill="#c8ad82" d="M237 61l-3 27-51-49z"/><path fill="#fbfffc" d="M91 39h83v2H91z"/><path fill="#a4b1bc" d="M266 36.7l-29-7.8 3-11.6 29 7.8z"/><path fill="#a99779" d="M22.5 31.5l32 24.5-59.7 49 26.5-17z"/><path fill="#6f8798" d="M181 140l87 11-24-30z"/><path fill="#545f6f" d="M28-4l12 36 15-14z"/><path fill="#a5a5a4" d="M80 81h14v68H80z"/><path fill="#9fa9ae" d="M19.4 21.7L-16 77.1 4.2-16l-5 41.1z"/><path fill="#bfb296" d="M157 87l58-47h-98z"/><circle r="1" fill="#828ea3" transform="matrix(40.5208 11.6778 -1.29195 4.48293 235.9 0)"/><path fill="#364255" d="M-16 110l31 2 2 36z"/><path fill="#c0c0b5" d="M222 44l-72-9 21-12z"/><path fill="#c09e69" d="M57.2 66.9l21.2 9.6L71 58.6l-31.2-13z"/><path fill="#dee5dd" d="M186 40h56v2h-56z"/><path fill="#554c3a" d="M12.5 28.3L-3.1 61.1l23.9 6.7-5.7-17.2z"/><path fill="#98a6ac" d="M103 129h67v19h-67z"/><ellipse cx="238" cy="163" fill="#073834" rx="68" ry="3"/><path fill="#94989b" d="M37.6 30.7l14.6-10.6 86.9 6.5L8 42.5z"/><path fill="#928b7e" d="M101.9 36.4l80.2-23L230.2 34l-42-7.5z"/><path fill="#54788d" d="M244.5 153.2l-54.6 8.7 81.1-.8-23.5-6.2z"/><path fill="#b4ae99" d="M37 41h190v10H37z"/><path fill="#00000a" d="M65-1.7v5l-26 .4v-5z"/><path fill="#3c567c" d="M93 130h5v24h-5z"/><path fill="#b0a89b" d="M5 62h2v48H5z"/><path fill="#abbcd0" d="M121 75h20v37h-20z"/><ellipse cx="212" cy="127" fill="#2c5ea6" rx="55" ry="1"/><path fill="#55585b" d="M46 5h165v9H46z"/><path fill="#0d0f17" d="M139 0h83v5h-83z"/><path fill="#1c1a17" d="M223 27l14-2-7-31z"/><path fill="#bda074" d="M126.9 46.9l28.2 16.8-.1 16.6-41.8-30.6z"/><path fill="#717885" d="M218.2-16l46.9 55.7L226.2-16l-5.3 33.2z"/><circle r="1" fill="#5d6b89" transform="rotate(84 -77.6 88.3) scale(1.80701 26.33559)"/><path fill="#847b73" d="M235.4 124.4l7.3-52.5 12 1.7-7.4 52.5z"/><ellipse cx="60" cy="147" fill="#c1bdcf" rx="24" ry="1"/><ellipse cx="139" cy="163" fill="#00544c" rx="55" ry="2"/><path fill="#001d58" d="M79 152h16v2H79z"/><path fill="#cbcaba" d="M159 79l1-30-18-6z"/><ellipse cx="98" cy="102" fill="#60788d" rx="3" ry="15"/><path fill="#c7bfad" d="M103.4 38.6l10.7 9-33.5 39.8-10.7-9z"/><ellipse cx="93" cy="88" fill="#d1ccbc" rx="2" ry="41"/><ellipse cx="44" cy="126" fill="#144596" rx="33" ry="1"/><ellipse cx="96" cy="39" fill="#f6fdfd" rx="68" ry="1"/><path fill="#908d84" d="M80.2 80.2l10-.4 1.6 44-10 .4z"/><ellipse cx="174" cy="99" fill="#747776" rx="3" ry="30"/><path fill="#699add" d="M71 126h80v2H71z"/><path fill="#767266" d="M264.9 60.2l-46.7-33.8L245.5 43l-12.7 10.1z"/><circle r="1" fill="#7b94a4" transform="matrix(-12.52995 12.81024 -17.40286 -17.02209 55.4 87.9)"/><path fill="#667a8b" d="M171 166h85v4h-85z"/><ellipse cx="155" cy="167" fill="#95a2b7" rx="176" ry="1"/><path fill="#cfd3d3" d="M59 35h67v2H59z"/><path fill="#767163" d="M20.6 64.6L12 87.2l-28-27.5 55.8 4z"/><path fill="#012c77" d="M232 126h2v21h-2z"/><path fill="#141618" d="M16.5 152.6L-.8 155-16 168.2 9.5 142z"/><path fill="#1e2126" d="M18 6l16-1-14 26z"/><path fill="#a8aca6" d="M247.6 35.4l-8.5-11.7h19.1l-15.8 62.6z"/><ellipse cx="128" cy="154" fill="#b1bdd1" rx="41" ry="2"/><path fill="#4f4b45" d="M244 40l-15-22-36-9z"/><path fill="#708985" d="M150 90h5v21h-5z"/><path fill="#b3ada1" d="M231 128l-4-33 11 23z"/><ellipse cx="255" cy="153" fill="#00225a" rx="10" ry="3"/></g></g></svg>