<svg xmlns="http://www.w3.org/2000/svg" viewBox="0 0 1800 410"><defs/><filter id="a"><feGaussianBlur stdDeviation="12"/></filter><rect width="100%" height="100%" fill="#483828"/><g filter="url(#a)"><g fill-opacity=".5" transform="translate(3.5 3.5) scale(7.03125)"><ellipse cx="131" cy="46" fill="#b6bcaf" rx="132" ry="217"/><circle r="1" fill="#4f3613" transform="matrix(-1.42654 19.42577 -84.08954 -6.17515 195.8 17.9)"/><circle r="1" fill="#9dbfe9" transform="matrix(33.73578 14.52892 -12.45752 28.92605 45.6 3.5)"/><ellipse cx="209" cy="54" fill="#ddbe93" rx="102" ry="18"/><path fill="#00070a" d="M-11-8.6L23.7 24l-.9 12.7-38.8 7.1z"/><path fill="#120000" d="M166.9 26.1l11 7.7-18.6 8.4-33.6-8.6z"/><path fill="#dae7fd" d="M-6.5-1.7L59.8-16 53.3-.5 19.9 15.6z"/><path fill="#6fa1ba" d="M25.7 32.4l92.8 6.3-90.1 16.4-44.4-3z"/><path fill="#f8ffff" d="M243 7l28-23h-88z"/><circle r="1" fill="#4b5c72" transform="matrix(-22.95975 5.5433 -1.80284 -7.46716 52.8 12.8)"/><circle r="1" fill="#977d56" transform="matrix(47.38638 -30.53844 12.14503 18.8454 156 0)"/><ellipse cx="44" cy="38" fill="#0e6484" rx="57" ry="4"/><ellipse cx="255" cy="21" fill="#3e3a2d" rx="57" ry="18"/><path fill="#dbe7e6" d="M25 23h27v11H25z"/><path fill="#c5b8b6" d="M0 43h39v11H0z"/><circle r="1" fill="#a89878" transform="rotate(7.6 -367.4 912.5) scale(15.80284 36.38179)"/><circle r="1" fill="#7287a5" transform="matrix(-10.91287 -8.86865 14.97458 -18.42621 81.4 0)"/><path fill="#271701" d="M173.3 39.6l-41.7-1.3 21.7-10.4 5.8-5.4z"/><path fill="#62563c" d="M91 20.8l51.5-19.3L227.7 4 95.3-16z"/><path fill="#434133" d="M190.3 22.1l-4.2-26.6 35.6-5.6 4.2 26.6z"/><path fill="#beaa8b" d="M109 37l64 21 48-16z"/><ellipse cx="93" cy="46" fill="#2b2315" rx="8" ry="3"/><circle r="1" fill="#a8a9a2" transform="matrix(22.68294 -2.18986 .2847 2.9489 85 43)"/><path fill="#f3f6f8" d="M234.5 7L232 2.7 249.5-7l2.5 4.3z"/><path fill="#8b7759" d="M193 26l-47-3 13-29z"/><path fill="#9e876b" d="M92.2 47.9l58-11.1L111.5 73 28.1 42.3z"/><path fill="#252c23" d="M22.4 24.3L10.9 11.5-16 37.8l39.3-1.6z"/><path fill="#695d4b" d="M205.6 55l-.1-3 29-1v3z"/><path fill="#acb6b6" d="M77.2 20.9L63.9 34.2l-40.7.9L57.1 27z"/><path fill="#d2def0" d="M16 14L-4-7l36-9z"/><ellipse cx="82" cy="36" fill="#345f6a" rx="38" ry="2"/><path fill="#494738" d="M1-1l12 24-29-9z"/><path fill="#5e6e80" d="M23.5 21.7L52.3 6.5l30.3 5.1-18.1 7z"/><path fill="#a4a18d" d="M122.8 17.1l-7.6 12.4-3.5 25.6 16.8-24.4z"/><path fill="#c1ced3" d="M20.4 21.8l45.7 7.5-34.5-1.1-2.8 7z"/><path fill="#b7a68c" d="M213 38h43v10h-43z"/><ellipse cx="91" cy="46" fill="#11110a" rx="7" ry="2"/><path fill="#241709" d="M171.5 29.6l-1.1 11-20-2.2 1.2-11z"/><path fill="#909eb2" d="M24 5h19v10H24z"/><ellipse cx="228" cy="35" fill="#413921" rx="57" ry="2"/><path fill="#868068" d="M91 33l25-49-2 52z"/><path fill="#7e8da0" d="M77.5 23.2l8-8.1L112.1-16h-71z"/><path fill="#564f41" d="M271-4v28L235 7z"/><path fill="#5c4d35" d="M87 15l7 4 5-18z"/><path fill="#926d41" d="M148 31l-3-23-17 20z"/><path fill="#7b6b50" d="M187 19l-13 14-7-39z"/><path fill="#bfc4c9" d="M86 43.4l-26 2.2v-1l26-2.2z"/><path fill="#b8a485" d="M167.7 73l-44.9-36.9 33.5 4.6 40-1.3z"/><path fill="#6c604d" d="M170 73l-5-22 17 21z"/><path fill="#1a1c0f" d="M9 9.2l9.7 10.1-3.6 3.5-9.8-10.1z"/><path fill="#877555" d="M-4.1 47.2l14.4 7L4 66.8l-14.4-7z"/><path fill="#332313" d="M175.9 30.1l-46.8 4.6 27 5.2-3.7-16.7z"/><path fill="#799295" d="M14 41h33v4H14z"/><path fill="#3a3a31" d="M-11-16l8 50h28z"/><path fill="#8b857c" d="M60.9 42.8L39 48l-10 7.4L84.8 50z"/><path fill="#dddfde" d="M228 1l26 1-28-14z"/><circle cx="103" cy="43" r="5" fill="#b0a490"/><path fill="#736043" d="M138 73l-16-27 5 22z"/><path fill="#615137" d="M186 36h43l-50-52z"/><path fill="#b1b4b6" d="M11 46h18v9H11z"/><path fill="#93856e" d="M209 55l-29-7 36 21z"/><path fill="#ccd9ea" d="M20.3 18.5L1.7 1.8l2-2.3 18.6 16.7z"/><path fill="#938d76" d="M84 23h22v12H84z"/><path fill="#755c3b" d="M115.5 10.7l3.2-25.8 35.8 4.4-3.2 25.8z"/><path fill="#5b6c7e" d="M45.6 19.9L65 15.6l-9.9-8.7L20.7 20z"/><circle r="1" fill="#3d869d" transform="matrix(-.00875 -1.19358 47.22698 -.34612 69 38.3)"/><path fill="#d6e0ef" d="M37.9 9L56-16 2.8.7 36-4.7z"/><path fill="#4c4739" d="M271 26.5l-81.3-10.6L205.4-16l7.2 10.9z"/><path fill="#7b7056" d="M103.6-16l13.9 21.7 4.2 13.4-13.8 8.3z"/><path fill="#160d00" d="M133 33h12v4h-12z"/><ellipse cx="198" cy="36" fill="#827447" rx="28" ry="1"/><path fill="#1b2015" d="M234.6 34.4l30.9 2.2v1l-31-2.2z"/><path fill="#aab8cb" d="M19.8 16.7l6.1-.6L-9.5-16 16.8-5.1z"/><path fill="#b2b8b3" d="M61 34l-22-1 27-7z"/><path fill="#d0dbdd" d="M24 25h19v5H24z"/><path fill="#bdab8d" d="M226 53h30v5h-30z"/><path fill="#b1a085" d="M189 36l26 16 46-14z"/><path fill="#8192a1" d="M26.5 26.4l1.5-2.6L76.2 21 94.4 8.1z"/><circle cx="74" cy="27" r="2" fill="#3f3a22"/><ellipse cx="48" cy="35" fill="#384b5c" rx="36" ry="1"/><path fill="#9e8d73" d="M59.4 51.4l71.5 2.4-46-6.9-2.7-2.1z"/><ellipse cx="59" cy="57" fill="#847259" rx="36" ry="4"/><path fill="#847256" d="M189 29l-36-8 31-6z"/><path fill="#404837" d="M90.5 36.2v-1l29 .6v1z"/><path fill="#d3d5d2" d="M271-7l-79-9 45 21z"/><path fill="#73726e" d="M54 43l-8 8 24-6z"/><ellipse cx="11" cy="38" fill="#1b657b" rx="8" ry="3"/><path fill="#585548" d="M-3-16L-16-1 7 17z"/><circle cx="122" cy="28" r="6" fill="#a6a797"/><path fill="#32342b" d="M2 32l23 2-6-12z"/><path fill="#97acb7" d="M31 29h25v4H31z"/><path fill="#90795c" d="M71 31l20-21-1 12z"/><path fill="#595143" d="M259-1l-18 17-2-8z"/><path fill="#8e724d" d="M138 12.8l-19.4 9.6 37.1-12.1-34.3 38.8z"/><path fill="#b59c76" d="M127 38h19v20h-19z"/><path fill="#768699" d="M102.1-16L58.2 5.1 27.7 21.8l-11.5-2.9z"/><path fill="#635947" d="M184 57h8v1h-8z"/><path fill="#8d7858" d="M152.7 18.7l9 7.8 5.9-1.7L153.9-16z"/><path fill="#bba98d" d="M202 50.2l-14.2-11.1-42 31.8-5-24z"/><circle r="1" fill="#afbfc8" transform="matrix(8.70536 -5.32634 1.21115 1.9795 67 27.4)"/></g></g></svg>