<svg xmlns="http://www.w3.org/2000/svg" viewBox="0 0 1800 1200"><defs/><filter id="a"><feGaussianBlur stdDeviation="12"/></filter><rect width="100%" height="100%" fill="#3e3f51"/><g filter="url(#a)"><g fill-opacity=".5" transform="translate(3.5 3.5) scale(7.03125)"><path fill="#c1c3c6" d="M268 124l-132-2 135 62z"/><circle r="1" fill="#030400" transform="matrix(-251.30787 43.23603 -12.37604 -71.9353 109.4 16)"/><ellipse cx="122" cy="134" fill="#bf946c" rx="86" ry="14"/><path fill="#a79780" d="M98 32L88 146l33-7z"/><circle cx="14" cy="89" r="53" fill="#0f0e0e"/><circle r="1" fill="#626162" transform="matrix(7.94111 -50.13821 26.73323 4.23413 197.4 135.5)"/><path fill="#b3a770" d="M41.9 161l-10.2 24-51.6-22 10.2-24z"/><path fill="#807260" d="M168 137l-30-57 7-74z"/><path fill="#c5d8f2" d="M271 182l-39 3-4-58z"/><circle r="1" fill="#0d1426" transform="matrix(-12.4012 -58.9539 34.2439 -7.20335 237.8 55)"/><path fill="#1c1e0d" d="M37 146h88v24H37z"/><circle r="1" fill="#c2b19e" transform="rotate(-9.2 773.1 -1150.3) scale(3.80627 33.39071)"/><circle r="1" fill="#222626" transform="matrix(-11.73387 -33.6267 19.60399 -6.84072 128.3 80.5)"/><path fill="#363732" d="M35 72h61v55H35z"/><circle r="1" fill="#b7b1b8" transform="rotate(176.3 48.5 14.4) scale(1.22652 126.80956)"/><path fill="#1c2b41" d="M226 170l-11-30-41 11z"/><circle r="1" fill="#0d0d14" transform="rotate(-164.5 15.4 19.4) scale(31.03921 111.08694)"/><ellipse cx="154" cy="113" fill="#dcc39b" rx="4" ry="17"/><path fill="#b8acae" d="M190.3 87l-11.6-65.9 1-.2 11.6 66z"/><path fill="#a69c9e" d="M51.2 125.8l-20.9.6 57.6 20-48.4-1.9z"/><path fill="#c38a5f" d="M184 185l-69-15 88-9z"/><ellipse cx="97" cy="96" fill="#c9c1a9" rx="10" ry="9"/><ellipse cx="150" cy="142" fill="#ff8c43" rx="46" ry="3"/><ellipse cx="174" cy="89" fill="#25282e" rx="15" ry="36"/><path fill="#cfb699" d="M144.8 35l2.4-3.2 7.1 59.6 3.7 43.2z"/><ellipse cx="154" cy="134" fill="#392f34" rx="29" ry="4"/><path fill="#3b322a" d="M108 146h79v21h-79z"/><path fill="#a19589" d="M39.3 165.8l-2.8 6.8 8.5-12.7-61-15.3z"/><path fill="#041526" d="M60 131h18v7H60z"/><circle r="1" fill="#6a6066" transform="matrix(.6767 14.10314 -3.83323 .18393 245.3 164.3)"/><path fill="#2e2923" d="M27.1 129.3l26.9 1.9-50.5 31.5 37-6.1z"/><path fill="#deeafb" d="M224.8 131.7l16.9 48-9.1 5.3 4-46z"/><path fill="#a1a1a8" d="M210.2 141.9l29.5-3.5-55.4-1.3 6.1-30.1z"/><path fill="#fff4c7" d="M104 94.5h1l-3 41h-1z"/><path fill="#22262b" d="M102 37h44v48h-44z"/><path fill="#4d463b" d="M105 98h13v32h-13z"/><path fill="#5c6171" d="M200 109h31v23h-31z"/><path fill="#c5c8a2" d="M7 155h-17l31-15z"/><ellipse cx="69" cy="143" fill="#c3a59d" rx="40" ry="2"/><path fill="#292a33" d="M195 106L145 7l11 90z"/><circle r="1" fill="#151212" transform="matrix(-30.29965 -4.95707 .77936 -4.76377 42.7 151.4)"/><path fill="#343945" d="M186 33l4 46 36 41z"/><path fill="#b8e0ff" d="M241 131l3-10 7 9z"/><path fill="#1f2126" d="M26 45h72v36H26z"/><path fill="#bf9f7c" d="M143 8h3v22h-3z"/><ellipse cx="180" cy="3" fill="#0d0d16" rx="39" ry="20"/><path fill="#aa8670" d="M147 153l25-8-7 8z"/><path fill="#847767" d="M144 98h23v14h-23z"/><path fill="#b1a18d" d="M94.6 125.3l-45.5 6.9-2-8.5 58.4 11.1z"/><path fill="#c2b6b1" d="M75 139l5 5 4-18z"/><path fill="#3b3c47" d="M162 115h29v10h-29z"/><path fill="#815441" d="M84 128l59 21-33-2z"/><path fill="#877576" d="M157 83l6-17-20 13z"/><path fill="#3f3f3b" d="M71 80h23v46H71z"/><path fill="#8f9597" d="M187 161h17v9h-17z"/><path fill="#1f251a" d="M40.1 167l-.2 5-20-1 .2-5z"/><path fill="#2f415c" d="M253 117.9l-18 10.5-14-24.3 18-10.5z"/><path fill="#ccb9a4" d="M200 110l-7-8v31z"/><circle r="1" fill="#0e0e16" transform="matrix(-64.69172 14.62644 -6.27275 -27.74392 19.7 14)"/><path fill="#868385" d="M103 36l-1-8-11 11z"/><path fill="#232628" d="M117 27h26v91h-26z"/><path fill="#8d8480" d="M107 59.1l.4-2.2-13.8 10.4 2 2.5z"/><path fill="#20232e" d="M194 96h8v10h-8z"/><path fill="#dbba9f" d="M114 129h15v4h-15z"/><ellipse cx="100" cy="98" fill="#c0b4a5" rx="2" ry="27"/><path fill="#7b85a0" d="M228.6 147.4l6.6 37.4-9.8 1.8-6.6-37.4z"/><path fill="#eedcbc" d="M28.8 155.2l1-.2 3.4 27.8-1 .2z"/><path fill="#ac9b84" d="M151.5 123.5L93.7 118l8.2 3.3 33.5 3.6z"/><path fill="#8c775c" d="M8 130.9l.8-.4L26.1 173l-1 .4z"/><path fill="#676160" d="M51.2 78.9l-31.5 64.7-1-.5 31.6-64.7z"/><ellipse cx="238" cy="62" fill="#1c2231" rx="37" ry="21"/><ellipse cx="147" cy="140" fill="#d3b0a0" rx="71" ry="1"/><path fill="#3d567f" d="M213 153l55.8-5 .1 1-55.7 5z"/><path fill="#d1723b" d="M127 142h67v4h-67z"/><path fill="#161d25" d="M41 130h6v10h-6z"/><path fill="#c1bab7" d="M49.6 124h-1l-.2-16h1z"/><path fill="#d2c1a5" d="M16.7 174.3l3.6-22.7 1 .1-3.6 22.7z"/><path fill="#8b8486" d="M212 121l8-19-16 15z"/><path fill="#353f50" d="M224 140l-25 23-31-15z"/><path fill="#47352e" d="M135.6 128.5l-.1-1 18.9-2 .1 1z"/><ellipse cx="159" cy="158" fill="#151a24" rx="17" ry="5"/><path fill="#edf0ec" d="M97 94l10-1-6 6z"/><path fill="#eab081" d="M139 154h5v4h-5z"/><path fill="#bfa386" d="M151 57l-1 .2L141 7l1-.2z"/><path fill="#5f584d" d="M84 101h17v11H84z"/><circle cx="24" cy="160" r="4" fill="#3c2a25"/><path fill="#463831" d="M106 133h55v3h-55z"/><path fill="#7f7a7c" d="M191 57.6l.8-.4 27.3 61.2-1 .4z"/><path fill="#2b2b2e" d="M80.1 126.4l21.3 2.8-46.8-53.5L34.5 112z"/><path fill="#bcac9f" d="M9.2 149.3l26 10.5-.4 1-26-10.6z"/><path fill="#b88551" d="M126 166h13v4h-13z"/><path fill="#2a2a2f" d="M129.6 170.3l13-23.8L92.4 185l31.5-46.4z"/><path fill="#b3a08b" d="M36 127h66v3H36z"/><path fill="#6f8ac1" d="M196.8 135.2l-13.6 3.4-2-7.8 13.6-3.4z"/><path fill="#323921" d="M7 158l5 12H3z"/><ellipse cx="117" cy="149" fill="#a17f64" rx="21" ry="1"/><path fill="#fff1dc" d="M193.8 94.3l-4.7-1.8 1.1-2.8 4.7 1.8z"/><path fill="#383634" d="M129 109h24v13h-24z"/><path fill="#cab59e" d="M160 125h36v3h-36z"/><path fill="#ffe7a6" d="M192 165h4v5h-4z"/></g></g></svg>