<svg xmlns="http://www.w3.org/2000/svg" viewBox="0 0 1800 1200"><defs/><filter id="a"><feGaussianBlur stdDeviation="12"/></filter><rect width="100%" height="100%" fill="#345c6c"/><g filter="url(#a)"><g fill-opacity=".5" transform="translate(3.5 3.5) scale(7.03125)"><circle r="1" fill="#d8d1e1" transform="matrix(-1.1617 70.09669 -254.71949 -4.2214 145.8 48.3)"/><ellipse cx="47" cy="92" fill="#a09583" rx="255" ry="25"/><path fill="#e5dfd4" d="M150 97h80v17h-80z"/><ellipse cx="234" cy="88" fill="#6b7272" rx="32" ry="22"/><ellipse cx="127" cy="26" fill="#799bc1" rx="252" ry="40"/><path fill="#7c7e7d" d="M9 64h74v51H9z"/><circle r="1" fill="#5880ad" transform="matrix(-.41823 12.6075 -187.4569 -6.21859 160.8 .8)"/><path fill="#fff" d="M97 93h54v4H97z"/><path fill="#dadbd6" d="M0 94h42v8H0z"/><path fill="#f8f6ef" d="M173.4 80.1l38.1 27.5.1 6.6-20.6-6.9z"/><ellipse cx="162" cy="133" fill="#35686e" rx="231" ry="19"/><path fill="#e8eae3" d="M91.8 112.5L89.5 98 76 117l38.7-3.6z"/><path fill="#73726e" d="M193.1 110.5l-12.6-13.9-10.4.5.4 16.4z"/><path fill="#575555" d="M53.4 96.6l-10.3 16.9L-16 97.7l12.7 11.9z"/><ellipse cx="140" cy="42" fill="#90a3ba" rx="100" ry="25"/><path fill="#fff" d="M153 109l11 6 5-16z"/><path fill="#aca796" d="M232 98.8l39 4.7-5.6 12.3-36.7 2.7z"/><circle cx="127" cy="100" r="5" fill="#f3efe4"/><path fill="#6b7476" d="M38.3 118.7l-24.1-7 17.2-26.1-38.9-11.3z"/><circle r="1" fill="#566970" transform="rotate(55.1 -34.4 192.9) scale(16.73599 5.5313)"/><path fill="#6b7b8b" d="M135 71h121v10H135z"/><ellipse cx="36" cy="114" fill="#aab8b6" rx="48" ry="2"/><path fill="#6080a3" d="M209 0h47v28h-47z"/><path fill="#e7e3d5" d="M47 96h62v2H47z"/><path fill="#5a4c46" d="M97 107l12-7 4 10z"/><ellipse cx="106" cy="90" fill="#5d635c" rx="44" ry="2"/><ellipse cx="106" cy="69" fill="#5f707e" rx="35" ry="3"/><path fill="#4d7980" d="M4 115h252v5H4z"/><path fill="#ced0d0" d="M63.7 72.6l-4-2.9 15.3.2 1.6 8.5z"/><circle r="1" fill="#e8e6de" transform="matrix(3.34643 .60815 -1.20536 6.63265 151.3 100.6)"/><circle r="1" fill="#626e74" transform="matrix(-.00657 2.247 -63.13073 -.1847 8 66.6)"/><path fill="#f7f7f6" d="M82 114l19-1-21-6z"/><path fill="#fffff4" d="M0 94h14v5H0z"/><path fill="#7c6f65" d="M70.9 95.5l-3.2 18.1 17.2-7.7 30.4 6.9z"/><ellipse cx="229" cy="113" fill="#fffff6" rx="28" ry="1"/><path fill="#cbc7c0" d="M174.7 93.7l20-10.2-3.1 8.6 32.6 14.5z"/><path fill="#fff" d="M121 95l7-4-8-1z"/><path fill="#a4adaf" d="M119 73l9 15 33-10z"/><path fill="#d5d5cf" d="M90.4 73.9l17.7 11.4-6-6.9h2.4z"/><path fill="#69777f" d="M50 63.1l15.6 23.5-48.2-20.3L37 86.2z"/><circle r="1" fill="#a0a4b1" transform="matrix(53.1741 -4.65213 .59336 6.78213 251.9 40.5)"/><ellipse cx="121" cy="33" fill="#aab2c0" rx="52" ry="3"/><path fill="#6e675d" d="M48.6 121.8l-4-9.5L65 98.1l-18.2-1z"/><path fill="#acafa8" d="M43.9 92.6L37 90.1l20.7-8 6.2 7.3z"/><path fill="#e9e9e0" d="M31.4 98.7l14.9-7-6.6 2 7 3.5z"/><path fill="#606d72" d="M-16 98.2l30.4-32 16 8.8-13.8-2z"/><ellipse cx="75" cy="92" fill="#5a5c5b" rx="19" ry="2"/><path fill="#abb0ae" d="M13 86l13-18h12z"/><path fill="#d2c9ba" d="M205 99h28v3h-28z"/><path fill="#c8ac8f" d="M69.5 101.1L53.3 104l1.3-3.8-6.6 14.7z"/><path fill="#bca38c" d="M113 103h18v11h-18z"/><path fill="#d1e4e4" d="M129 113h13v2h-13z"/><path fill="#616459" d="M225 98l-15-1 19-9z"/><path fill="#b4a18d" d="M102 106l17-15-31 10z"/><circle cx="200" cy="101" r="6" fill="#e8e8e1"/><ellipse cx="160" cy="56" fill="#839cb5" rx="46" ry="16"/><path fill="#908c80" d="M250.5 95.6l-45.8 12.3 62.2 3.9-20.2-11.2z"/><path fill="#7b8180" d="M-1.8 64.8l7.6 25.8 2 1.6 22.7 14.9z"/><ellipse cx="3" cy="102" fill="#94a7b9" rx="31" ry="2"/><ellipse cx="230" cy="157" fill="#306069" rx="239" ry="25"/><path fill="#e5e7e4" d="M171.4 99.6l-13.5 6.9-15-1.5 23.9 8.9z"/><path fill="#f2e9e1" d="M167 92h25v2h-25z"/><path fill="#fbfbf8" d="M92.4 110.2l-7.6 4.7-3.2-5 7.6-4.8z"/><path fill="#645d5f" d="M135 99h11v12h-11z"/><path fill="#d3d8d5" d="M14.2 97.5l-3.6 6.8 5.6 1.5v-4z"/><path fill="#9baabe" d="M65.9 28.6l-79.6-1.5L155.9 21l11.4 4.1z"/><path fill="#839ab3" d="M171 12h60v57h-60z"/><path fill="#50555b" d="M42.7 101.8l-28.2 3 33.3 8.7-17.3-8.6z"/><path fill="#7093b8" d="M149.9.7l1 14L56 21.3l-1-14z"/><ellipse cx="217" cy="26" fill="#6b8cad" rx="63" ry="3"/><path fill="#e9e7e1" d="M161 101h40v2h-40z"/><path fill="#4b5058" d="M106 102h5v11h-5z"/><path fill="#798183" d="M156 94l-14-25-5 19z"/><path fill="#6f7977" d="M154.5 87.9l62 35.2-17.2-8.3-23.6-19.4z"/><path fill="#727c7f" d="M170.7 119.9l11.7 1.6-52.5-11.5-1.3-7.8z"/><ellipse cy="88" fill="#eaebe0" rx="5" ry="3"/><circle r="1" fill="#6b747b" transform="rotate(16.1 -166.3 930.8) scale(10.79679 15.55239)"/><path fill="#b5b6b0" d="M90 87h10v4H90z"/><ellipse cx="2" cy="113" fill="#d8cac3" rx="9" ry="2"/><path fill="#c3c8c9" d="M37 66l3 7-10-7z"/><path fill="#414a55" d="M17 103h8v7h-8z"/><path fill="#b6c6c8" d="M139 112.5v1l-40 2v-1z"/><ellipse cx="148" cy="115" fill="#6f908e" rx="30" ry="2"/><path fill="#74808b" d="M83 71h68v4H83z"/><circle r="1" fill="#91a2b9" transform="matrix(.12644 4.70013 -68.3536 1.83888 2.5 13.1)"/><circle r="1" fill="#72736c" transform="matrix(15.852 -.53187 .08311 2.47716 210 92.8)"/><ellipse cx="226" cy="84" fill="#7f8b95" rx="37" ry="5"/><circle r="1" fill="#605f62" transform="rotate(132 10 70.5) scale(3.28384 3.64199)"/><ellipse cx="128" cy="101" fill="#fff" rx="5" ry="2"/><path fill="#e4e3da" d="M235 112l-.2 3-29.9-3 .3-3z"/><path fill="#cbccc8" d="M57 71h20v3H57z"/><ellipse cx="236" cy="114" fill="#9bb1a7" rx="79" ry="1"/><ellipse cx="166" cy="120" fill="#3b6b78" rx="123" ry="4"/><ellipse cx="188" cy="88" fill="#c8c7c2" rx="8" ry="3"/><path fill="#bfbdb6" d="M157.2 86.7l1.1 25.4-1.7-1.3-1.9-23.8z"/><path fill="#dbdfda" d="M19.5 81.8v1l-15-.6v-1z"/><path fill="#c2c3be" d="M130 85l9 2-2-12z"/><ellipse cx="148" cy="97" fill="#ddded9" rx="21" ry="1"/><ellipse cx="67" cy="58" fill="#86a0b5" rx="55" ry="7"/><path fill="#6c787d" d="M59.6 77.2l12.3 4-28.7.6L5.6 69.9z"/></g></g></svg>