<svg xmlns="http://www.w3.org/2000/svg" viewBox="0 0 2820 2820"><defs/><filter id="a"><feGaussianBlur stdDeviation="12"/></filter><rect width="100%" height="100%" fill="#4e4332"/><g filter="url(#a)"><g fill-opacity=".5" transform="translate(5.5 5.5) scale(11.01563)"><circle cx="118" cy="121" r="207" fill="#ffe"/><circle r="1" fill="#000703" transform="matrix(-206.00356 7.91386 -.61991 -16.13677 150.6 71.1)"/><circle r="1" fill="#e7ffff" transform="matrix(-159.67252 1.4441 -.27117 -29.98314 112.4 10.8)"/><circle cx="222" cy="132" r="51" fill="#ffe8b3"/><circle r="1" fill="#514500" transform="rotate(-8.6 1171 -971.5) scale(8.82263 84.30321)"/><circle r="1" fill="#ffd2a1" transform="rotate(80.6 -73 125.2) scale(53.26304 75.95629)"/><circle r="1" fill="#4e6a74" transform="matrix(-2.86911 -22.09092 117.97985 -15.3229 28.6 106.7)"/><path fill="#655e00" d="M108 102l63 68-14 32z"/><circle r="1" fill="#efffff" transform="matrix(120.74909 5.0693 -.81661 19.4514 143.7 2.7)"/><ellipse cx="121" cy="44" fill="#8096c1" rx="158" ry="15"/><ellipse cx="253" cy="49" fill="#343400" rx="9" ry="34"/><circle r="1" fill="#ddb58a" transform="matrix(-22.0447 -74.42169 36.39774 -10.7815 212.6 209.4)"/><ellipse cx="180" cy="69" fill="#39341b" rx="100" ry="14"/><path fill="#684905" d="M164 120h8v100h-8z"/><path fill="#ffeec2" d="M144 103l5 49-26-36z"/><ellipse cx="75" cy="225" fill="#cba882" rx="92" ry="52"/><path fill="#77502e" d="M182.2 197.1l-44.4 50.6 58-17.5-28.7-.8z"/><ellipse cx="21" cy="62" fill="#667a9e" rx="73" ry="8"/><circle r="1" fill="#ffd5ad" transform="matrix(-5.83368 -24.20593 65.17279 -15.70677 236.4 113.4)"/><path fill="#fadbb6" d="M120 123l-136 23 55 30z"/><circle r="1" fill="#675800" transform="matrix(-33.8454 -44.51235 2.69827 -2.05166 117.7 116.9)"/><path fill="#364500" d="M155 104l-13-31 7 60z"/><circle cx="107" cy="135" r="16" fill="#ffddb3"/><circle r="1" fill="#616000" transform="matrix(13.44044 82.98378 -4.74428 .7684 152.3 125.5)"/><ellipse cx="120" cy="42" fill="#969fb5" rx="23" ry="21"/><ellipse cx="155" cy="4" fill="#e5f3ff" rx="116" ry="11"/><circle r="1" fill="#597683" transform="rotate(86.4 -54.8 51.5) scale(20.01767 70.97831)"/><circle r="1" fill="#c1ceed" transform="matrix(-4.02495 23.302 -47.94588 -8.2817 45.6 16.8)"/><circle r="1" fill="#c8dafb" transform="matrix(15.66605 14.43542 -20.3373 22.07107 225.7 14)"/><path fill="#afbcd7" d="M65.3 15.9l151.5 8.2 34 16.3 1.7 9.5z"/><circle r="1" fill="#d4bb9a" transform="matrix(-37.40745 1.63272 -1.36544 -31.28365 206.5 179.1)"/><circle r="1" fill="#847a00" transform="matrix(-4.50072 2.30772 -17.02059 -33.19503 142 163.3)"/><path fill="#263500" d="M239 32h32l-6-23z"/><circle r="1" fill="#ffdaa5" transform="rotate(-93.7 138.4 -15) scale(13.59892 3.81502)"/><path fill="#8e9393" d="M208 83.2l-10.6 12.7-40 5.2-6.6-16.4z"/><circle r="1" fill="#8c7e6c" transform="matrix(-74.88106 25.26839 -1.4631 -4.33576 255 204.5)"/><ellipse cx="127" cy="94" fill="#909e9f" rx="16" ry="15"/><path fill="#50481a" d="M271-3.5V26l-56 57.4 39.9.7z"/><circle r="1" fill="#78919a" transform="rotate(-174.2 33.7 47.5) scale(39.17554 13.7616)"/><path fill="#d7b78c" d="M165.9 211.9L139 175.6l-53.1 77.9 45-30.8z"/><ellipse cx="158" cy="255" fill="#b69b7a" rx="68" ry="16"/><ellipse cx="35" cy="174" fill="#d5bd9e" rx="107" ry="25"/><circle r="1" fill="#99a5b9" transform="rotate(8.3 -310 324.2) scale(54.44637 12.85337)"/><ellipse cx="20" cy="14" fill="#9ca5b9" rx="35" ry="5"/><path fill="#e8c9a4" d="M176.2 210.3l-6.3-112.2L271 139.6l-97.7 29.2z"/><path fill="#655e12" d="M182.1 197l-30.6-42.4 6-33.7 19.8 85.8z"/><path fill="#8c6f51" d="M120.6 246.2l24.6 1.6L163 227l-33.5 7.3z"/><path fill="#36352b" d="M21 73h60v11H21z"/><path fill="#edf8ff" d="M71.1 12.8l14.8 24.1L16.3-16 236.7 5.7z"/><path fill="#cd8742" d="M97 164l44-9-30-3z"/><ellipse cx="221" cy="47" fill="#8291a6" rx="27" ry="10"/><path fill="#e4c048" d="M143.1 141l20.7 63.7-1 .3-20.6-63.7z"/><path fill="#ecc695" d="M203 200l-32 17 3 14z"/><path fill="#424b56" d="M-16 60v22.4l73-8-36.9-9.7z"/><circle r="1" fill="#cfb594" transform="matrix(-.95643 -16.70464 58.4715 -3.34782 226.6 179.5)"/><ellipse cx="168" cy="124" fill="#512c27" rx="2" ry="14"/><path fill="#453e34" d="M255.8 67.6L150.4 52.8l-59 35.5 97.9-34.6z"/><circle r="1" fill="#565e55" transform="rotate(172 3.6 59.6) scale(33.76541 4.91113)"/><path fill="#f2caa1" d="M148 133.8l2.7 24.7-25.3-38.4 19.1-5.4z"/><ellipse cx="52" cy="217" fill="#c3ab8e" rx="81" ry="29"/><path fill="#eef9ff" d="M16 18h27v10H16z"/><path fill="#f1d4b7" d="M178 197l-7 4-1 10z"/><circle r="1" fill="#cdae8e" transform="rotate(81.4 -35 105.9) scale(5.63332 38.52557)"/><path fill="#96771b" d="M90 80.1l1.6-2.6-11-2.4 45.4 58.3z"/><path fill="#2e0d00" d="M172.7 216.5L144 244.3l-.7-.8 28.7-27.8z"/><path fill="#a7afc0" d="M85.1 23.9l-14 19.7 86 3.4-71.9-34z"/><circle cx="10" cy="145" r="13" fill="#efcca6"/><path fill="#3c4e00" d="M102.5 99.3l3.2-2.3 31.8 43.7-3.2 2.3z"/><path fill="#696153" d="M91 207h19v3H91z"/><path fill="#605646" d="M172.7 97.1l-20.5 5.1 36.2-6.1-1.2-5.4z"/><path fill="#d7e4f6" d="M253 24l-63-40-10 41z"/><path fill="#cfb28c" d="M214 247l26-35-111 45z"/><circle r="1" fill="#f6d19f" transform="rotate(-99.4 120.7 21.3) scale(13.95513 7.75223)"/><path fill="#464d13" d="M263.8 6.6L258 61.9l-6.6-26.4-12.4 6.4z"/><path fill="#877a5e" d="M59 78h67v3H59z"/><circle r="1" fill="#d5b898" transform="matrix(-.85257 -7.01123 39.11253 -4.75609 195 103)"/><path fill="#605e0c" d="M147.1 127.3l5.1 43.9 8.9-42.3-22.7-82.1z"/><path fill="#333618" d="M191 72h53v11h-53z"/><ellipse cx="210" cy="89" fill="#f2cfac" rx="24" ry="4"/><path fill="#775113" d="M174.1 142.5l-5.4 31.7-2.6-34.5-10 18.5z"/><ellipse cx="105" cy="70" fill="#2d302c" rx="35" ry="6"/><path fill="#798596" d="M-16 57.5l10.3 2.1L23 67l117.2-13.3z"/><path fill="#839399" d="M60 85h30v31H60z"/><path fill="#8d8479" d="M208.2 67.9l4.3-3.6-10.4-4.8-16.2-22.1z"/><path fill="#839092" d="M98 87l30-7 17 32z"/><path fill="#2b0c00" d="M177.3 206.6l-5.8 9.3-.8-.5 5.8-9.3z"/><path fill="#4a5114" d="M167.2 187.2l3.4-35.8-8.3 53.1 14.3-14.5z"/><circle cx="172" cy="76" r="2" fill="#ffe3b8"/><path fill="#a9b2c6" d="M-16-13.8l39.2 61.4 67.1 5.8-91.4-2.2z"/><path fill="#dcc19d" d="M193.6 157.6l-4.4 31.7-20.8-3 4.4-31.6z"/><path fill="#30332e" d="M230 72l-57 1 2-19z"/><path fill="#94a3b8" d="M60.6 26.4l-25-10.1 1.8-4.7 25 10.1z"/><circle r="1" fill="#424032" transform="matrix(1.12732 -7.28382 9.54268 1.47692 111.9 78.6)"/><path fill="#ce997b" d="M171.2 128.2l-3.4 23.8-1-.2 3.4-23.8z"/><path fill="#876a61" d="M228 68h11v6h-11z"/><path fill="#c9b396" d="M167.3 183.5l103.7 1.4-83.2-30.2-17.9 38.1z"/><path fill="#ae9879" d="M167.8 257.9l-9.3-4.8-18.1-5.4 25.4-22.7z"/><path fill="#dcbf99" d="M137 166l-8 26 31 18z"/><path fill="#7f8b9d" d="M123 61l23-11-53-4z"/><path fill="#5b6507" d="M137.8 159.5l4.6-2 13.8 31-4.6 2z"/></g></g></svg>