<svg xmlns="http://www.w3.org/2000/svg" viewBox="0 0 1800 1350"><defs/><filter id="a"><feGaussianBlur stdDeviation="12"/></filter><rect width="100%" height="100%" fill="#354164"/><g filter="url(#a)"><g fill-opacity=".5" transform="translate(3.5 3.5) scale(7.03125)"><ellipse cx="124" fill="#fff" rx="125" ry="18"/><circle r="1" fill="#ede3b8" transform="matrix(-60.77285 -16.77735 21.71101 -78.64412 216.3 181.5)"/><circle r="1" fill="#665a36" transform="matrix(-22.6583 -80.29445 159.64245 -45.0495 115.8 104.2)"/><ellipse cx="121" fill="#fffffb" rx="123" ry="14"/><ellipse cx="54" cy="136" fill="#878577" rx="56" ry="45"/><circle r="1" fill="#dbe0df" transform="matrix(4.1505 25.53375 -63.87248 10.38246 228.6 178.5)"/><circle r="1" fill="#f6fbff" transform="matrix(-1.3143 8.48988 -46.69987 -7.22952 238.6 116.3)"/><circle r="1" fill="#fffffc" transform="matrix(.4442 -4.46396 24.28382 2.41648 157 96.5)"/><circle cx="243" cy="56" r="52" fill="#2b291d"/><ellipse cx="182" cy="136" fill="#382a31" rx="46" ry="21"/><path fill="#3a3a2a" d="M-13 0l202 51-205 65z"/><path fill="#fffff4" d="M126.8 192l37.1-15 5.3 13-37.1 15z"/><ellipse cx="148" cy="4" fill="#ffffe7" rx="87" ry="9"/><path fill="#dadad9" d="M52.3 109.5l120.3 47.3 35.1 18.7-38.9-12.2z"/><circle r="1" fill="#050500" transform="matrix(-.88163 22.94938 -3.64644 -.14008 57.8 0)"/><circle r="1" fill="#3c0513" transform="rotate(-32.1 282 -236.2) scale(52.96369 10.65242)"/><path fill="#081e62" d="M54 62l55 62 54 2z"/><path fill="#989178" d="M112.7 11.9L97 10.2l-50.3 9.3 109 7.1z"/><path fill="#e7e3d6" d="M78.8 124l-26.7-11.7-.1-4 80.9 33z"/><path fill="#282e2d" d="M177 168.4l-52-31.3 3 49.7 20.1-3.2z"/><path fill="#f2e6c9" d="M58 94h24v10H58z"/><path fill="#d2d4d2" d="M236 139l35 5-81 23z"/><path fill="#d2d6cb" d="M130 86l51 9-21 8z"/><path fill="#828a94" d="M33 54h8v45h-8z"/><circle r="1" fill="#565b55" transform="rotate(-100.3 98.3 63.6) scale(29.88301 76.72658)"/><circle r="1" fill="#b8c2c4" transform="matrix(-.4198 -2.3568 18.39207 -3.27613 125.4 93.8)"/><path fill="#ffffcd" d="M49.7 14.2L18 8.7-16-.1 56.3-5z"/><circle cx="12" cy="79" r="23" fill="#202527"/><ellipse cx="127" cy="19" fill="#87867d" rx="66" ry="5"/><path fill="#491a18" d="M130.5 123.4l16.5 15.9-29.4-4.2-32.8-37.2z"/><path fill="#ffffdf" d="M150-16L258 0 120 16z"/><circle r="1" fill="#111b19" transform="matrix(-3.1072 17.9746 -15.22023 -2.63107 234 38.8)"/><ellipse cx="158" cy="54" fill="#a1a5aa" rx="62" ry="1"/><ellipse cy="108" fill="#85929a" rx="34" ry="6"/><path fill="#c2c4c5" d="M257 109l-49 8-5-16z"/><path fill="#2d302a" d="M44 100L56 4l20 66z"/><path fill="#545a4b" d="M271-1l-46.2 8.6L181.2 21l89.8 6.2z"/><path fill="#ffffec" d="M62 0h77v11H62z"/><circle r="1" fill="#4c493a" transform="matrix(3.1243 -20.9052 75.95902 11.35215 32.8 32.7)"/><path fill="#b7a482" d="M78 114l16-5 17 18z"/><circle r="1" fill="#40443c" transform="matrix(28.20888 8.01334 -6.8716 24.18972 177.5 70.4)"/><path fill="#434138" d="M48 124l-49-9 49-7z"/><path fill="#173e7d" d="M144.5 132.3l8.3-21-77.4-18.2 2.4-25.7z"/><path d="M-16 100l13 9 18-2z"/><circle r="1" fill="#2f3835" transform="matrix(21.44428 -8.59675 5.01594 12.51207 119.6 76.2)"/><path fill="#545651" d="M82 22h132v23H82z"/><circle r="1" fill="#52181c" transform="matrix(3.3412 5.30573 -52.99538 33.37297 193 100.7)"/><path d="M243 136l19.8-3 .2 1-19.8 3z"/><path fill="#6c7072" d="M23 32l26 33-9 9z"/><path fill="#424846" d="M214 151l-24 13-38-30z"/><circle r="1" fill="#bbc9d7" transform="rotate(-98.3 48.8 56.4) scale(1.25978 31.67737)"/><path fill="#2e3130" d="M119 143l55 27-21 11z"/><path fill="#bebfbd" d="M232.1 118l18.7-11.7 11 17.8-18.6 11.6z"/><path fill="#b9bcb9" d="M237 191l-110 2 140-64z"/><ellipse cx="192" cy="14" fill="#838379" rx="15" ry="4"/><path fill="#595853" d="M228.9 144.1l19.3-16-47.9-8.1-65.9 20.9z"/><path fill="#b3af9c" d="M218.5 11.7l10.4-3.9-11.2-.4-41.1-14.2z"/><path fill="#767572" d="M117 15h64v12h-64z"/><path fill="#9a8e6e" d="M56 90h14v9H56z"/><path fill="#a9aa9b" d="M202.7 103.5l10-8.1 2.6 3-10 8.2z"/><path fill="#263232" d="M247.9 109.9l-4.5-38.4-29.7 22.9 18.4 11.5z"/><circle r="1" fill="#adb1b6" transform="rotate(-160.9 97.1 64.5) scale(31.03082 2.07287)"/><ellipse cx="186" cy="53" fill="#838a8a" rx="33" ry="1"/><path fill="#828072" d="M133 107l-7-22-9 16z"/><path fill="#ffffde" d="M-10-1l64-4-2 18z"/><ellipse cx="75" cy="100" fill="#e5e3d3" rx="16" ry="2"/><ellipse cx="69" cy="108" fill="#312d21" rx="12" ry="3"/><path fill="#e5e0d4" d="M79.3 152.2l38.1-18.2-63.1-22.4 57 25.3z"/><circle r="1" fill="#575a56" transform="matrix(-1.48722 14.50348 -74.83568 -7.67384 45.2 170)"/><path fill="#8a8373" d="M53.1 133.4l-5.2-4.2 2.3-12.3 47.2 19z"/><path fill="#39372d" d="M17.9 5.1l46.7 44.2L-9.7 7.4 8.1 90.1z"/><path fill="#1b3769" d="M82.2 76.6l11 6 59.3 49.7-75.6-36.1z"/><path fill="#e0e0d9" d="M146.7 96.7l-1 1.7-14.4-9 1-1.8z"/><ellipse cx="161" cy="101" fill="#d9d7d3" rx="9" ry="2"/><path fill="#2d1f26" d="M137.7 148.9l3.4-.9-36.3-30.8 50.7 9.1z"/><path fill="#1c2927" d="M42.1 91.2l3.5 17.2 3.6-18.8L63-16z"/><path fill="#403f39" d="M57.1 116.2l67.3 27.9-.4 3.4-22.3-8.3z"/><path fill="#a4a2a5" d="M140 149l26 12-11-11z"/><path fill="#393d37" d="M181 168l-96 39 60-46z"/><path fill="#3c3831" d="M40 117h7v19h-7z"/><path fill="#706765" d="M69 46l20 9-32-5z"/><path fill="#1f221e" d="M-4.1 121.1l-.3-1L24 111l.3 1z"/><ellipse cx="144" cy="4" fill="#ffffe5" rx="53" ry="9"/><path fill="#5a5e50" d="M125 84h55v5h-55z"/><path fill="#103a87" d="M138 108h21v6h-21z"/><path fill="#4e504e" d="M262.7 124.2l-27.9 19.4-1.1.6 18.4-10.3z"/><path fill="#6c7073" d="M46.4 55.9l1.3 13.5-7.2-11.7-27.2-13.1z"/><path fill="#2e2f2e" d="M41.3 96.4l11.4 2-10.8-26.6-4 5.7z"/><path fill="#4d4837" d="M58 96h15v2H58z"/><circle cx="23" cy="126" r="10" fill="#7f7b6e"/><path fill="#7d807a" d="M19 102l-1-6 6-1z"/><path fill="#ffffe6" d="M132 8h86v3h-86z"/><path fill="#939387" d="M157 89l11 4-23-1z"/><circle r="1" fill="#9e9a91" transform="matrix(-29.71801 -.03044 .00412 -4.0217 89.5 15.6)"/><path fill="#3c5a93" d="M146.1 114.5l-14.3-5.2-53-33.5 33 25.4z"/><path fill="#bbc2be" d="M89 207l120-49-54 48z"/><path fill="#43433e" d="M204 93l-90-31 108-9z"/><path fill="#3d3b37" d="M117.1 55l-13.6 10.4-62 27.4 20.4-32.2z"/><path fill="#dfdbcf" d="M110.6 137.6L59 111.3l.5-1 51.7 26.4z"/><path fill="#ffffe8" d="M224 2l49.5-7 .5 3-49.5 7z"/></g></g></svg>