<svg xmlns="http://www.w3.org/2000/svg" viewBox="0 0 1200 1800"><defs/><filter id="a"><feGaussianBlur stdDeviation="12"/></filter><rect width="100%" height="100%" fill="#593e38"/><g filter="url(#a)"><g fill-opacity=".5" transform="translate(3.5 3.5) scale(7.03125)"><circle r="1" fill="#9ab9c6" transform="matrix(-12.37726 168.54615 -103.304 -7.58617 108.3 142.8)"/><circle r="1" fill="#000428" transform="matrix(5.64386 -23.87415 81.07405 19.16595 115.5 162.4)"/><circle r="1" fill="#dfe0ce" transform="matrix(18.16501 12.08506 -34.72579 52.1962 66.5 43.5)"/><circle r="1" fill="#b5bbd6" transform="matrix(-32.68047 -36.71968 19.9605 -17.76483 111.3 216.8)"/><ellipse cx="146" cy="102" fill="#2b140e" rx="11" ry="69"/><path fill="#e2d7b5" d="M104 68h31v59h-31z"/><ellipse cx="78" cy="255" fill="#9aa2b5" rx="169" ry="20"/><circle r="1" fill="#001736" transform="matrix(-14.18254 31.55758 -13.37127 -6.00929 74.2 162.6)"/><path fill="#001449" d="M73.9 130.7L70 59.8l10-.5 3.8 70.9z"/><ellipse cx="148" cy="29" fill="#917239" rx="55" ry="28"/><circle r="1" fill="#afabbf" transform="matrix(-17.57037 -29.85392 15.88488 -9.34896 35.6 191)"/><path fill="#cfe3f0" d="M51.2 72l20-1 1.6 33-20 1z"/><circle r="1" fill="#47373b" transform="matrix(16.80564 34.15357 -24.86421 12.23471 154.6 176.4)"/><path fill="#234958" d="M61 19.1l-77 67-29-33.2 77-67z"/><path fill="#130000" d="M38 96h8v41h-8z"/><circle r="1" fill="#eae5ca" transform="matrix(27.63481 -9.44892 5.79703 16.95428 87.7 0)"/><path fill="#003f7d" d="M88 130h31v44H88z"/><path fill="#918b78" d="M7.5 122L2.6 52.2l32-2.2 4.8 69.8z"/><path fill="#382e37" d="M23 145l-39 14 37-54z"/><path fill="#bebfb8" d="M137 128l-.1-36.6-53.1 24.7 3.7 13.2z"/><circle r="1" fill="#9ea0b0" transform="rotate(117.9 -4.5 157.2) scale(32.05564 55.98761)"/><path fill="#03121c" d="M64 208l16-71-29 28z"/><path fill="#276193" d="M102.8 98.9l2.3-33.7-9.4-18.5-36.3 74z"/><ellipse cx="2" cy="195" fill="#2b332e" rx="9" ry="46"/><path fill="#d7e2e6" d="M39 64l51-33 13 14z"/><path fill="#6a6e66" d="M98.7 24.9L-9 82.2l-3.7-7L95 17.7z"/><ellipse cx="119" cy="66" fill="#b19764" rx="17" ry="20"/><ellipse cx="169" cy="97" fill="#b4a782" rx="14" ry="49"/><path fill="#b6b1a2" d="M136 142.2l-15.4 1.2L103 62.6l35.1 49z"/><ellipse cx="71" cy="214" fill="#415f85" rx="7" ry="39"/><path fill="#b4b8b1" d="M34 89l4 63-14-23z"/><circle r="1" fill="#848792" transform="matrix(48.2418 -29.91118 12.966 20.91203 20.6 244.6)"/><circle r="1" fill="#101c23" transform="matrix(27.57571 16.37326 -8.51771 14.34547 12 0)"/><path fill="#72839a" d="M54.5 28l12.1-44L39-1l1.2 13.4z"/><path fill="#d4d3c4" d="M34 53.3l-10.1.4 42.3-37.1 51.7-19.2z"/><path fill="#332b2a" d="M136 44h20v33h-20z"/><path fill="#2e5175" d="M121 184l-34-52-10 44z"/><path fill="#94a7b8" d="M63.3 72.9L52.5 133l31.6 3-39.8-15.6z"/><path fill="#002349" d="M43 129h16v27H43z"/><ellipse cx="163" cy="87" fill="#4f5047" rx="2" ry="71"/><path fill="#040f05" d="M73 59h7v22h-7z"/><path fill="#4a4945" d="M36 59l-52-12 44 27z"/><path fill="#8c9898" d="M7 82h9v79H7z"/><path fill="#b1b5b3" d="M65.3 49.7l.6 69.6-14.8-21.7-34.3-18.8z"/><path fill="#352f23" d="M159.3 14.8l.4 6-21.2-16.4L126.7-16z"/><circle r="1" fill="#d1c3a1" transform="rotate(45.7 29.6 142.7) scale(1.65171 25.78814)"/><path fill="#521114" d="M17 98h5v45h-5z"/><path fill="#49414a" d="M185 228l-36-114-32 72z"/><path fill="#9b8559" d="M111.1 40.9l3.8 39.4 9.4-19.9 60.7-49z"/><path fill="#819bbe" d="M58.6 151.3L73 126.2l4.3 2.5L63 153.8z"/><path fill="#a5612e" d="M36.8 156.5l-.6-31h5l.6 31z"/><path fill="#00437b" d="M60.5 110l23 12.8-3.6-31.2-25.3 29.6z"/><circle r="1" fill="#aaafbe" transform="matrix(-24.146 -14.5658 5.15676 -8.54847 102 194.4)"/><path fill="#3e3e3c" d="M140.5 241.3l1.3-2.7 13.7 6-1.3 2.8z"/><ellipse cx="158" cy="65" fill="#c1aa78" rx="3" ry="42"/><path fill="#5b3421" d="M65 116h12v11H65z"/><path fill="#b1b4b2" d="M21 72h6v38h-6z"/><path fill="#ada184" d="M164 6h6v134h-6z"/><path fill="#6b91b9" d="M94.9 79.9l-7.5-26.4-10.3 3.9 17 43.3z"/><circle r="1" fill="#0f1418" transform="rotate(168.9 29.7 81.2) scale(4.89364 19.98788)"/><path fill="#96a7ac" d="M28.5 244.6l10.2 10.7-17.7 8.3-37-19.9z"/><path fill="#a5acae" d="M84 127l-2-47 19 49z"/><path fill="#364857" d="M93 48h10v33H93z"/><path fill="#9c9faf" d="M13.1 145.2l35.5 38.1 23.3 38-28-5z"/><path fill="#083866" d="M80 131h38v29H80z"/><circle r="1" fill="#4f575c" transform="rotate(136.4 -5.8 29.7) scale(57.98864 9.38859)"/><path fill="#282028" d="M165 148h5v62h-5z"/><ellipse cx="41" cy="238" fill="#716e79" rx="35" ry="9"/><path fill="#403c39" d="M-5 182l15-53v49z"/><path fill="#73746c" d="M64.2 75.1l5.9-18 5.7 1.8-5.9 18z"/><path fill="#282f33" d="M56 57h2v13h-2z"/><ellipse cx="67" cy="8" fill="#d7d9d1" rx="7" ry="24"/><path fill="#3b3a36" d="M124.7-2L92.9 33.4l26.2-24.6L145.9-16z"/><path fill="#b2aa9a" d="M137 141.2l-1.1-59.1-16 58.5 35.7 5.9z"/><circle r="1" fill="#9396a2" transform="matrix(30.13282 6.7851 -3.7726 16.75419 113.2 241.3)"/><path fill="#1f1609" d="M42 95h4v65h-4z"/><path fill="#c19591" d="M56 167h5v6h-5z"/><path fill="#866241" d="M16.9 129.7l1.7-71L20.7 95l-9.6-38.2z"/><path fill="#a6b0b6" d="M66.2 133.2L52.7 81.6l-1.9 43.9 13.4-30.6z"/><path fill="#424340" d="M11.7 227.4L-16 268.9l2.3-42.6 25.2-23.7z"/><path fill="#9da4b8" d="M151 236l-21-40 55 41z"/><path fill="#001341" d="M57 112h4v12h-4z"/><path fill="#e1c287" d="M11 84h4v27h-4z"/><path fill="#b1b0a4" d="M68.9-16l34.3 36.8L122.6-.6 82.3 29.1z"/><path fill="#7f7156" d="M114.2 65l5 66.5-1.4-108.1-15.2 11.2z"/><path fill="#9396a7" d="M58.1 189.3L31 199.4l-18.6-48.8 35.5 16z"/><path fill="#3e5773" d="M67.5 170.9l13.4 59.7-6.8 8.2-8-28.1z"/><path fill="#dac89e" d="M145.9-15.5l2.1 2-29.9 31-2.1-2z"/><path fill="#bdccd4" d="M58.7 53.9l5.3 50.6 9.3-20.9-13.9-37z"/><path fill="#4e5666" d="M174.3 199.7l-3.2 8.4-93.4-35.8 3.2-8.4z"/><path fill="#3c3339" d="M143 82h14v61h-14z"/><path fill="#272d27" d="M4 135l1-54-21 25z"/><path fill="#c3cbca" d="M89.6 28.2l-7.5 37.2-17.8-23.8L64 46z"/><path fill="#a7b2bf" d="M128.2 233L115 245.8l-35.7-13.9 10.8 22.7z"/><path fill="#c1bcb0" d="M158 92h4v54h-4z"/><circle r="1" fill="#4b4335" transform="rotate(64.9 64 133.3) scale(14.73227 1.8936)"/><path fill="#ada491" d="M47 96l-33-2 30-42z"/><path fill="#b1b1a8" d="M117.3 91.8l-10.9 34.1-2.4-71-3.2-25.1z"/><ellipse cx="8" cy="90" fill="#bcc9cc" rx="1" ry="22"/><path fill="#352f31" d="M139 47l17-9-7 24z"/></g></g></svg>