<svg xmlns="http://www.w3.org/2000/svg" viewBox="0 0 1800 1350"><defs/><filter id="a"><feGaussianBlur stdDeviation="12"/></filter><rect width="100%" height="100%" fill="#394f5f"/><g filter="url(#a)"><g fill-opacity=".5" transform="translate(3.5 3.5) scale(7.03125)"><circle cx="124" cy="25" r="137" fill="#ebffff"/><circle r="1" fill="#b4f4ff" transform="matrix(-1.40012 52.02792 -135.781 -3.654 121.4 73.5)"/><circle r="1" fill="#9ebbc3" transform="rotate(-81.4 118 41.6) scale(20.49504 44.41068)"/><circle r="1" transform="matrix(41.38167 -16.80335 3.86222 9.5115 232 118.3)"/><path fill="#579ef8" d="M271 92L-16 7l268-23z"/><circle r="1" fill="#7a9baa" transform="matrix(-73.17272 13.9457 -4.90653 -25.74442 165.5 162.3)"/><ellipse cx="3" cy="119" rx="27" ry="21"/><circle r="1" fill="#d4f1ff" transform="rotate(-87.8 104 -10.5) scale(25.86183 104.71551)"/><circle r="1" fill="#8ec7fe" transform="matrix(209.65767 22.75102 -3.15482 29.07264 76.3 54.1)"/><circle r="1" transform="matrix(-.83824 -16.58114 44.28198 -2.23862 255 122)"/><ellipse cx="56" cy="165" fill="#728e9d" rx="43" ry="37"/><circle r="1" fill="#8ea9b2" transform="matrix(-3.38034 -12.04653 36.91704 -10.35919 197.4 149.1)"/><ellipse cx="29" cy="16" fill="#679dd8" rx="255" ry="30"/><path fill="#1e1510" d="M23.6 107L3.1 95-16 122.5l55.5 10.7z"/><path fill="#dfd9cb" d="M32 106h180v17H32z"/><path fill="#020a0a" d="M271 81l-30.3 13.9-.6 32.3 16.7 47.1z"/><ellipse cx="137" cy="179" fill="#416075" rx="111" ry="17"/><path fill="#040e10" d="M221.5 129.1l-40.1 6.2 71.2-39.5 8.8 44.5z"/><circle r="1" fill="#bde3f5" transform="matrix(44.3478 -2.27184 1.10159 21.50375 203.7 88)"/><path fill="#a5babe" d="M75.2 154.6l-46 .8-.4-22 46-.8z"/><ellipse cx="12" cy="82" fill="#b5e3ff" rx="153" ry="14"/><path fill="#495d6c" d="M0 133h25v57H0z"/><ellipse cx="107" cy="155" fill="#77909a" rx="85" ry="11"/><path fill="#8dc0e9" d="M246.3 91.7l24.7-9.4-287-41.1 287-4z"/><path fill="#b7b2b3" d="M160.4 113.1L34.6 125.2l127.4 4.4 59 19z"/><circle r="1" fill="#5b8bc4" transform="rotate(-176.2 94 -3.1) scale(226.47552 15.03555)"/><ellipse cx="211" cy="169" fill="#5f7c8c" rx="34" ry="13"/><path fill="#cfe8ea" d="M31 96h186v21H31z"/><ellipse cx="161" cy="191" fill="#314d62" rx="64" ry="12"/><circle r="1" fill="#b8d9e9" transform="rotate(132.4 99.7 96.8) scale(32.95434 8.47122)"/><path fill="#85a1ad" d="M193.3 168.4l-35-38.5 93.9 6.7-34.2-1.7z"/><circle r="1" fill="#84baee" transform="rotate(98 -11.4 18.4) scale(20.17408 124.19721)"/><path fill="#060f11" d="M261 93l-26 40-45-3z"/><path fill="#c1d7db" d="M191 129.5l21.6-11.5 47.9-38-46.5 26z"/><path fill="#c9e4f1" d="M12.7 79.1L-16 88.7l33.8 12.1 20 20z"/><circle r="1" fill="#7aaede" transform="matrix(1.36396 -14.96077 145.70175 13.28351 145.4 33.8)"/><ellipse cx="87" cy="68" fill="#9dd1f8" rx="165" ry="12"/><ellipse cx="10" cy="111" fill="#242223" rx="13" ry="12"/><path fill="#3f5b69" d="M225 134h16v13h-16z"/><path fill="#9cb5bb" d="M30 133h177v10H30z"/><path fill="#60778f" d="M45 131h147v2H45z"/><path fill="#698cac" d="M-9 158.5l31.7-4 .4 3-31.8 4z"/><path fill="#122121" d="M249.1 159.3l-27.8-4 45.4.4-7.8 5.3z"/><path fill="#161a1c" d="M249.9 90.8l21.1-1.6-50.7 38.8 25.1-35z"/><path fill="#78929f" d="M46 170l-31-1 19-10z"/><path fill="#708a91" d="M180 185h19v4h-19z"/><circle cx="255" cy="182" r="11" fill="#1c3244"/><path fill="#3e4a50" d="M0 134h23v21H0z"/><circle r="1" fill="#1b3751" transform="matrix(28.33654 1.76536 -.21548 3.45873 174.6 191)"/><path fill="#202224" d="M37.8 130.9l-47.8 4.4-5.3-47 35.7 15.2z"/><path d="M1 191l9-3v19z"/><ellipse cy="163" fill="#272c2d" rx="23" ry="3"/><ellipse cx="131" cy="174" fill="#739095" rx="32" ry="2"/><path fill="#091214" d="M271 132l-26-33-56 33z"/><circle r="1" fill="#6da0d6" transform="rotate(93.7 22.6 30.4) scale(11.44364 183.01512)"/><path fill="#476478" d="M40 207l86-26-142-16z"/><path fill="#57768b" d="M271 162.7l-14.2-1.6-179 8.7 132.7.4z"/><path fill="#c6c9c3" d="M46 113h152v12H46z"/><circle r="1" fill="#bde5f8" transform="matrix(113.58322 2.97428 -.18264 6.9747 130 92.8)"/><ellipse cx="161" cy="185" fill="#637b82" rx="24" ry="2"/><path fill="#5887c0" d="M149.1-3.9l2.8-17.7L313 3.9l-2.8 17.7z"/><path fill="#828d87" d="M29 184h34v2H29z"/><circle r="1" fill="#c7e0df" transform="matrix(-3.91925 -4.04673 8.27424 -8.01358 220 106.5)"/><circle r="1" fill="#62879e" transform="rotate(2.3 -3680.2 2171.9) scale(32.25317 1)"/><path fill="#6e8993" d="M80 156h69v7H80z"/><ellipse cx="117" cy="153" fill="#8ca0a4" rx="88" ry="4"/><path fill="#aaa5ac" d="M38 124h116v6H38z"/><path fill="#405a6c" d="M213.1 207l57.9-53.6-49.3 23.5-6.9-10.4z"/><ellipse cx="77" cy="174" fill="#345470" rx="34" ry="2"/><path fill="#84a2af" d="M13 149h56v2H13z"/><path fill="#a2d1ed" d="M271 81l-71-13 43 22z"/><ellipse cy="81" fill="#b1def8" rx="146" ry="8"/><path fill="#283439" d="M29.4 183.5l-45.4 12 42-8.4 3.2-.9z"/><path fill="#161c1f" d="M220.6 130.3l12.6-25.6 37.8-4.3-24.8-7.9z"/><path fill="#90c6f4" d="M-13.1 61.6l192 .4L26.7 42.2 3.3 33.5z"/><ellipse cx="11" cy="152" fill="#31383a" rx="19" ry="2"/><path fill="#4d616c" d="M26 133l-13-1-6 33z"/><path fill="#010d12" d="M246 154h10v6h-10z"/><circle r="1" fill="#5c7a8c" transform="matrix(-.03983 .9992 -91.19595 -3.6352 17.7 167)"/><ellipse cx="153" cy="163" fill="#43657e" rx="27" ry="2"/><path fill="#84899b" d="M130 132v-2l60-2v2z"/><ellipse cx="192" cy="174" fill="#314e64" rx="11" ry="2"/><path fill="#c8d4d0" d="M29.2 112.8L48 106l4.8 13.2L34 126z"/><path fill="#405b6b" d="M224.5 132.3l32.1 21.6-29.5 3.4 27.7 17.1z"/><ellipse cx="116" cy="123" fill="#b4b7b7" rx="84" ry="3"/><ellipse cx="138" cy="171" fill="#294a67" rx="20" ry="2"/><path fill="#15334d" d="M75 190h16v2H75z"/><path fill="#304e68" d="M0 181h190v2H0z"/><path fill="#597782" d="M61 182h56v4H61z"/><path fill="#658290" d="M206 158l12-15 24 5z"/><path fill="#859aa1" d="M29 158h30v9H29z"/><circle r="1" fill="#8fc1e8" transform="matrix(102.65185 11.85245 -1.24421 10.77589 255 63.8)"/><ellipse cx="49" cy="178" fill="#59788b" rx="36" ry="2"/><path fill="#4e6f8f" d="M10.2 161l-.1-1 39.7-5 .1 1z"/><path fill="#7d9395" d="M162.6 169.4l48.9 4.2-.1 1-48.9-4.2z"/><path fill="#cbe9ef" d="M33.3 113.1L156.7 103 30.5 89.8 17 101.6z"/><path fill="#7293a5" d="M146 147h81v5h-81z"/><path fill="#284865" d="M163 164h21v2h-21z"/><path fill="#232425" d="M18 114l24 17-23-3z"/><ellipse cx="204" cy="131" fill="#11151b" rx="18" ry="1"/></g></g></svg>