<svg xmlns="http://www.w3.org/2000/svg" viewBox="0 0 1800 1200"><defs/><filter id="a"><feGaussianBlur stdDeviation="12"/></filter><rect width="100%" height="100%" fill="#353b4c"/><g filter="url(#a)"><g fill-opacity=".5" transform="translate(3.5 3.5) scale(7.03125)"><ellipse cx="98" cy="51" fill="#d9e6dd" rx="137" ry="79"/><ellipse cx="163" cy="141" fill="#402e18" rx="150" ry="31"/><path fill="#ddbf96" d="M147 65l1 74 103-39z"/><path fill="#dccaaa" d="M163 105l-179 24 52-81z"/><path fill="#131311" d="M271 46L163 70l96 24z"/><circle r="1" fill="#2f6396" transform="matrix(3.27713 25.19433 -114.57425 14.90315 52.6 16.3)"/><path fill="#090b18" d="M140 109h80v10h-80z"/><circle r="1" fill="#d4c1ad" transform="rotate(-46.2 133.8 -219.7) scale(15.70159 38.94889)"/><ellipse cx="162" cy="149" fill="#ff963d" rx="52" ry="3"/><ellipse cx="185" cy="99" fill="#f5eacc" rx="56" ry="7"/><path fill="#342721" d="M152.4 86.3l-4 7.3-51.3 7.5L138.2 81z"/><circle r="1" fill="#7ea2c0" transform="rotate(175.5 57.4 22.8) scale(90.03126 20.43087)"/><ellipse cx="164" cy="130" fill="#ffdd9e" rx="29" ry="3"/><circle r="1" fill="#151719" transform="matrix(25.58125 25.11366 -37.5872 38.28703 251.8 137.8)"/><path fill="#20272e" d="M-8 134l15 51 152-76z"/><circle r="1" fill="#eec795" transform="matrix(.02988 -2.44594 22.55899 .27562 202 121.6)"/><path fill="#c2c2bd" d="M112.9 84.5l6.7-14.7-12.5-35.7 57.4 45.1z"/><path fill="#292e36" d="M203.2 69.3l8.5 8.5-17 17-8.4-8.6z"/><path fill="#756555" d="M178-16l64 68-19-68z"/><path fill="#4c4f52" d="M111.3 70.5l2.1 17.4-8.4-2.5-28.3-27.6z"/><ellipse cx="31" cy="121" fill="#a19277" rx="42" ry="7"/><circle r="1" fill="#365875" transform="matrix(-5.6771 -20.41116 49.98249 -13.90198 13.6 4)"/><path fill="#d6c09f" d="M229 84l-23 27 3-29z"/><path fill="#f0cfa8" d="M218 16.4l-8.6 12.8-32.2-8.8 6-14.7z"/><circle r="1" fill="#c4c7c5" transform="matrix(27.54008 12.40137 -5.44689 12.09606 66.6 72.8)"/><path fill="#f1e0c5" d="M153 75h20v33h-20z"/><path fill="#7d776d" d="M38 84.8l27.5 6.5 5.7 15.1 33-12.6z"/><path fill="#f1dcba" d="M86 100h44v12H86z"/><path fill="#453c34" d="M224.2 79.9l10.9-34.8 7.9 52.1-22.5 2.5z"/><ellipse cx="118" cy="156" fill="#1b2021" rx="249" ry="6"/><path fill="#2f2f32" d="M168.5 127.8l15.4-10.9 30.7-1.7-35.1-11.3z"/><path fill="#93adbf" d="M185 67l-85-29 125 8z"/><circle r="1" fill="#312b2e" transform="matrix(.46837 3.76769 -35.47093 4.40949 154.4 137.4)"/><ellipse cx="18" cy="104" fill="#b8b49d" rx="54" ry="17"/><path fill="#555657" d="M210 73l-41 1-36-21z"/><circle r="1" fill="#6585a3" transform="rotate(-175.5 69.2 9.3) scale(60.22275 9.97875)"/><path fill="#d39e65" d="M166.6 121.5l-.2 8-29-1 .2-8z"/><circle r="1" fill="#909fa8" transform="matrix(-8.40388 -16.7781 32.8573 -16.45768 21.7 72.1)"/><path fill="#2d2d30" d="M129.1 93.2l-2-9.7 24.8-.4-15.3 13z"/><path fill="#5c5855" d="M225.7 108.8l-21.6.4 19.1 21.4 23.2-19.1z"/><path fill="#fffff1" d="M141 130h32v2h-32z"/><path fill="#ebd6c0" d="M124 48h14v11h-14z"/><path fill="#675348" d="M160 117l-36 20 10-34z"/><path fill="#b99e81" d="M109 78h17v15h-17z"/><circle r="1" fill="#cb843d" transform="matrix(.12404 -3.39722 19.26367 .70337 153.5 149)"/><ellipse cx="96" cy="149" fill="#935743" rx="38" ry="2"/><path fill="#131923" d="M181 130h75v16h-75z"/><path fill="#434146" d="M79 115h56v17H79z"/><circle r="1" fill="#744332" transform="matrix(.022 -2.27361 33.0393 .3196 229.7 148.5)"/><path fill="#050705" d="M234.1 151.3l39 1.4-1.2 34-39-1.4z"/><path fill="#5e5f60" d="M168.4 74.3l-26.3-25-4.5 15.3 57.7-.3z"/><circle r="1" fill="#6a6159" transform="matrix(33.28365 -2.73006 .44731 5.45342 40.4 124.7)"/><path fill="#ffeac5" d="M38 106h95v2H38z"/><path fill="#aaa092" d="M193 68l22-43 24 23z"/><circle r="1" fill="#68859f" transform="matrix(-74.10713 20.69108 -2.902 -10.39382 57.2 35)"/><path fill="#dbd1ba" d="M167.8 110.8l-45.1-5.9 59.5-27-32.2-2.1z"/><path fill="#4e667e" d="M236-11l3.2 8.3L198 13.1l-3.3-8.4z"/><path fill="#8f8375" d="M28 98h54v7H28z"/><path fill="#4d3929" d="M186 88l14-1-14 6z"/><path fill="#c6aa8d" d="M181 78l-27.5-14.4-22.3 10.2 54.3-.5z"/><path fill="#19222c" d="M194 61.9l77 16.4-31.2 18.3-5.4-33.8z"/><path fill="#2b2f30" d="M161 173L1 125l-11 60z"/><path fill="#65625c" d="M241.6 31.5L255.2 0l-21.7 16.2-24 17.3z"/><path fill="#ffe0a4" d="M190 121h19v2h-19z"/><path fill="#bfc0b1" d="M163 102l63-15-22 20z"/><circle r="1" fill="#ffe6b7" transform="rotate(-167.9 98.7 37.5) scale(15.99889 2.61852)"/><circle r="1" fill="#765f4b" transform="matrix(30.55542 -1.66081 .11984 2.2048 191.5 126.4)"/><path fill="#917358" d="M114 129h30v4h-30z"/><path fill="#8da7b8" d="M146.6 86.3l-29.7-17.2-23.5-6.8 5.4-29.7z"/><path fill="#fcdaa5" d="M165.6 123l-7.8 1.8-1.4-5.8 7.8-1.8z"/><path fill="#788895" d="M239.3 62.2l-23.8-9L206 31l29.5 30.1z"/><path fill="#cfc4b5" d="M199 38h12v19h-12z"/><path fill="#334553" d="M113.7 79l-13.6-12.4 2.8-2.1-14.4 5.1z"/><path fill="#36383a" d="M210.8 79.1l8.5-1.7L269.7-16l-39 106z"/><path fill="#7b5e44" d="M165 91.1l-.3-1L183 85l.3 1z"/><path fill="#b5b3ac" d="M31 48l53 8-44 28z"/><path fill="#ffa643" d="M136 148h39v3h-39z"/><ellipse cx="3" cy="137" fill="#282f3a" rx="137" ry="10"/><path fill="#50443e" d="M139.8 106.1l22.1 15-40.6-1 54.4-5.5z"/><path fill="#edcfaa" d="M231 49l-11-19 4 20z"/><path fill="#bdb29b" d="M196.9 86l30.5 23.2-9.9 2 7.4-25.9z"/><path fill="#bca490" d="M217.6 74.7l-4.7 3.7-2.5-3 4.7-3.8z"/><ellipse cx="207" cy="117" fill="#585048" rx="18" ry="3"/><path fill="#a28f7a" d="M91.2 118.2l-45 5.7 35.1-10.7-4 4.5z"/><path fill="#edd8ba" d="M200 31l-16-20 28 13z"/><path fill="#5c7c93" d="M210.4 64.2l5.7-5.4-34.1 4.8 16.8 3.6z"/><path fill="#908171" d="M122 100.7l-.7 3L94 97.2l.7-3z"/><path fill="#cec4af" d="M86 73h9v40h-9z"/><path fill="#7895ad" d="M188.4 55.4l9.2-26.8L23.1 38.7l192.8 5.9z"/><path fill="#3a4753" d="M217 64l-20 20-25-18z"/><path fill="#443d3b" d="M198.4 132l35.7 10.2-76.2-22.4 68.5 10.1z"/><path fill="#f6dfc2" d="M52 74h24v5H52z"/><path fill="#a78b72" d="M235.3 41.5l-17.7-13.9 2.1-14.8L181.6.6z"/><path fill="#4f6f8d" d="M-16 33l96-49 77 13z"/><path fill="#4d3934" d="M168.5 145l-62.2-27.4 59.9 31.6 44.2-3.1z"/><circle r="1" fill="#e8d3b7" transform="matrix(.05674 -1.6665 13.85542 .47177 150.3 71.5)"/><path fill="#32353b" d="M228 105h13v24h-13z"/><path fill="#7892a1" d="M32 91L20 60l-36 8z"/><ellipse cy="151" fill="#091118" rx="48" ry="3"/><circle r="1" fill="#4c453c" transform="matrix(11.71008 -10.5438 8.25 9.16254 162 168.3)"/></g></g></svg>