<svg xmlns="http://www.w3.org/2000/svg" viewBox="0 0 1800 1200"><defs/><filter id="a"><feGaussianBlur stdDeviation="12"/></filter><rect width="100%" height="100%" fill="#2e4e5c"/><g filter="url(#a)"><g fill-opacity=".5" transform="translate(3.5 3.5) scale(7.03125)"><ellipse cx="101" cy="36" fill="#abbbcf" rx="173" ry="78"/><circle r="1" fill="#070008" transform="matrix(1.279 -24.4049 11.48415 .60186 108.6 55.2)"/><circle r="1" fill="#003934" transform="rotate(71.4 -57.3 153.6) scale(36.7752 93.89567)"/><ellipse cx="144" cy="90" fill="#8a604d" rx="51" ry="17"/><circle cx="251" cy="78" r="45" fill="#6091a6"/><circle r="1" fill="#86a8c5" transform="matrix(134.6129 -1.87967 .42365 30.3394 17.7 7)"/><path fill="#fcecda" d="M118 78h30v13h-30z"/><path fill="#0e2043" d="M189.8 89.9l-23.9-3.3-2.7 1 9.8-41.1z"/><path fill="#1f0000" d="M143.7 52.1l-.4 20-11-.2.4-20z"/><ellipse cx="59" cy="120" fill="#005281" rx="39" ry="11"/><path fill="#380000" d="M61 149l56-20-79 5z"/><ellipse cx="13" cy="117" fill="#416773" rx="19" ry="43"/><path fill="#43170f" d="M149 102l-34-12-36 9z"/><path fill="#baa18b" d="M33 90h72v15H33z"/><ellipse cx="153" cy="68" fill="#fff3df" rx="7" ry="8"/><path fill="#024b4a" d="M165 185l56-96-173 72z"/><ellipse cx="183" cy="29" fill="#6996b3" rx="59" ry="24"/><path fill="#10120e" d="M57 106h21v9H57z"/><path fill="#1c2c2d" d="M13.7 99.6l35.9-24.4L29.3 98l-3.4 7.4z"/><path fill="#ceb9b3" d="M124.1 62.1l13-2.2-21.9 12.3 48 35.2z"/><circle cx="97" cy="77" r="6" fill="#f5ebdb"/><path fill="#f9dec2" d="M217.8 76.7l-14.4 1 17.9 3.4-35.3 14z"/><circle r="1" fill="#266666" transform="matrix(-8.86297 -21.5314 65.87956 -27.118 209.4 148)"/><path fill="#3f414a" d="M149 85l70-21-53 37z"/><ellipse cx="50" cy="81" fill="#447487" rx="50" ry="9"/><ellipse cy="107" fill="#748f9f" rx="32" ry="5"/><path fill="#d5ddda" d="M67.8 87.9l-38.4 8.4 32.1 4.8-23.9-8.7z"/><path fill="#27252a" d="M90.2 67.7l22.8-43 8.5 79.3-5.4-44.1z"/><circle r="1" fill="#6a91a8" transform="matrix(7.66673 21.53068 -56.56154 20.14066 49.3 48)"/><path fill="#8196a2" d="M37.3 137.2l36.1-7.4-28.2.9 2.5-3.6z"/><path fill="#7e6d63" d="M56.8 104.5l69.7-21.1 26.5-4.5-73 28.4z"/><path fill="#acc2cc" d="M185 58l-3 17 19-5z"/><path fill="#437482" d="M210 114.6l7.8-34.1 30.2 7-7.8 34z"/><path fill="#507b9c" d="M304.1 9L184.4 32.3 177.9-1l119.7-23.3z"/><path fill="#578694" d="M203 126l33 11.4-3 8.6-33-11.4z"/><path fill="#1b1921" d="M204.8 77.1l10.4-1.1-2.6-8.5-8.9 5.8z"/><path fill="#453941" d="M142.3 45.3l4.7 28.2-7.9 3.7-2.5-40z"/><ellipse cx="92" cy="122" fill="#004e79" rx="64" ry="7"/><path fill="#fff3df" d="M214.4 87l-.2 1-28.6-5 .2-1z"/><path fill="#538190" d="M27 150h22v7H27z"/><path fill="#6a8ca4" d="M132-16l-19 53 21 21z"/><path fill="#a59d89" d="M94.6 116.5l7.2-15.4 32.1 3.6 72.2-13.6z"/><path fill="#eed9be" d="M102.3 86.6l.1 1-24.7 3.8-.1-1z"/><path fill="#bbbeb8" d="M165.3 105.3l-38.5-38.4-20.5-2.8 7.1 2.3z"/><path fill="#3b3633" d="M53 101.1l-36.2.2 1.8-4-2.3-3.3z"/><path fill="#273d5e" d="M154.4 75.5l10-9.7-15.5 21.8L161 99.9z"/><ellipse cx="23" fill="#92a9c0" rx="61" ry="13"/><path fill="#f8fff9" d="M120 78h25v4h-25z"/><path fill="#bc9e8f" d="M156.2 65.1l11.1-4-38.7 35.6 17.3 2.2z"/><path fill="#c8d2d3" d="M62.4 89.6L44 91.2 29.4 96l15.1 2.6z"/><ellipse cx="211" cy="79" fill="#fff1db" rx="7" ry="2"/><path fill="#1c0211" d="M123 99h26v3h-26z"/><circle r="1" fill="#7798b0" transform="matrix(-2.15725 -26.7231 17.11196 -1.38138 222.8 46.7)"/><path fill="#375f76" d="M184 40h59v3h-59z"/><ellipse cx="169" cy="89" fill="#a29a9d" rx="12" ry="2"/><path fill="#1c0f1b" d="M97 96h33v3H97z"/><path fill="#859ba0" d="M149.9 89.9l6.2 13.5 49.7-6.6-62.2 15.8z"/><path fill="#fff" d="M156.6 64.8l-10.9 1.4-.3-3 10.9-1.4z"/><path fill="#8ba9bd" d="M170 42h36v9h-36z"/><path fill="#578195" d="M13 62h84v11H13z"/><circle r="1" fill="#023b3d" transform="rotate(71.5 -54.3 142.6) scale(13.41024 63.37613)"/><path fill="#3b3f67" d="M113 62h6v26h-6z"/><path fill="#1d2230" d="M200.6 86.7l-41.1-.5 21-8.4 6.9 14z"/><path fill="#074745" d="M231.4 169l39.6-10.2-44.2-13.7 15.3 1.1z"/><path fill="#706669" d="M160.5 80.6l1-14 10 .8-1 14z"/><ellipse cx="37" cy="104" fill="#9cb2b1" rx="11" ry="4"/><circle cx="100" cy="75" r="4" fill="#f0e6e1"/><ellipse cx="87" cy="100" fill="#241c1e" rx="7" ry="2"/><path fill="#005e8c" d="M90 116l-53-6 7 20z"/><ellipse cx="115" cy="104" fill="#ede7db" rx="22" ry="1"/><ellipse cx="133" cy="92" fill="#883e2f" rx="14" ry="2"/><circle cx="185" cy="70" r="3" fill="#fffff4"/><path fill="#295059" d="M54.6 157.4l-66.7-42.5 46.7.4-1.7-1.7z"/><path fill="#c5cac7" d="M109.2 104.9l-22-2.3-48.6-6.2 38.5 7.5z"/><path fill="#4b778a" d="M118 49h9v19h-9z"/><path fill="#4e7387" d="M252.2 82.9l-45.6 14.8-2.8-8.6 45.6-14.8z"/><path fill="#87a6bd" d="M12.9 92.5l9.3-11.6 13.2 2.9-37.6 6.3z"/><path fill="#3d2926" d="M147 113l28-6-6 11z"/><circle r="1" fill="#62575d" transform="rotate(80.5 .8 106.8) scale(1 55.93847)"/><path fill="#400914" d="M41 135l55-6-44 18z"/><path fill="#163847" d="M153.7 58.3l-.1-1 22.7-3.6.1 1z"/><path fill="#40423b" d="M90 106h48v1H90z"/><path fill="#1c191d" d="M103 44h15v19h-15z"/><path fill="#292224" d="M97 54h4v19h-4z"/><path fill="#313232" d="M137 72h12v5h-12z"/><path fill="#efcba5" d="M52.2 99.7L91.3 96l14.1-5.7-6.7 1.1z"/><path fill="#9f627b" d="M132.7 66.8l10.4 8.6-14.9-5.2 6.5-23.6z"/><path fill="#225a72" d="M205.8 59.9l-29.9-2.2 29.8 5.5.2 1.3z"/><path fill="#2c3a45" d="M143 113l-46 2 22 7z"/><path fill="#0d474b" d="M174.8 113.4l3.1 8.6 93.1 10.6-31.4-11.9z"/><path fill="#97aca6" d="M80 108h21v6H80z"/><path fill="#034351" d="M160.8 127.9l-24.9 11.7 86.4-54.2-27.5 30z"/><path fill="#16171b" d="M108.7 26.4l4.9 5-4.3 4.2-4.9-5z"/><path fill="#323961" d="M106 98.2l-4.4-41.3 10.2 16-5 16.2z"/><ellipse cx="147" cy="13" fill="#6e8fa9" rx="47" ry="22"/><path fill="#f2d2ae" d="M177 98l-.4-1 26.5-9 .3 1z"/><path fill="#efdbc2" d="M159 98.3l-13.6 6.3-.4-.9 13.6-6.3z"/><path fill="#a9c2d9" d="M16 47l4 6-19-6z"/><path fill="#f695c5" d="M145 54h2v17h-2z"/><path fill="#535f61" d="M164 100.9l-39.8 6.7 44.4-3.9-13.3-18z"/></g></g></svg>