<svg xmlns="http://www.w3.org/2000/svg" viewBox="0 0 1800 1200"><defs/><filter id="a"><feGaussianBlur stdDeviation="12"/></filter><rect width="100%" height="100%" fill="#453b4c"/><g filter="url(#a)"><g fill-opacity=".5" transform="translate(3.5 3.5) scale(7.03125)"><circle r="1" fill="#ebf8e3" transform="matrix(-152.40204 6.38754 -1.38235 -32.9818 124 36.8)"/><circle r="1" fill="#7c887e" transform="rotate(-28 271.8 -115) scale(255 57.74524)"/><path fill="#fff" d="M105 13l74 28-186 6z"/><ellipse cx="73" cy="147" fill="#b8ac96" rx="36" ry="21"/><ellipse cx="105" fill="#657174" rx="255" ry="16"/><circle r="1" fill="#72797a" transform="matrix(-77.59095 -6.74757 1.4925 -17.1623 43.9 74)"/><circle r="1" fill="#465055" transform="matrix(.75338 42.80445 -85.9854 1.5134 161.8 99.8)"/><circle r="1" fill="#fffff6" transform="matrix(-30.55029 -9.3985 3.1926 -10.37769 76.2 36)"/><ellipse cx="1" cy="16" fill="#495155" rx="37" ry="19"/><circle r="1" fill="#2f2d26" transform="matrix(-11.95824 34.69244 -18.073 -6.22963 3.5 151.4)"/><ellipse cx="196" cy="2" fill="#454d5f" rx="30" ry="24"/><circle r="1" fill="#bebdbc" transform="rotate(67.7 73.6 174.6) scale(12.14617 35.64196)"/><ellipse cx="215" cy="147" fill="#2b3930" rx="78" ry="28"/><circle r="1" fill="#a1a19d" transform="rotate(-150.2 68 -10.5) scale(74.52426 10.98118)"/><ellipse cx="44" cy="122" fill="#232425" rx="91" ry="4"/><circle r="1" fill="#6e7178" transform="matrix(-35.3419 34.16293 -11.1681 -11.55352 116.7 77.4)"/><path fill="#5e6c79" d="M212 57l41 56 18-95z"/><path fill="#f8f5ea" d="M26.5 41.4l-35.8-2.7 50 12.4 95.8-35.9z"/><circle r="1" fill="#65665f" transform="matrix(-51.6522 16.6832 -4.12824 -12.78127 117.7 158.3)"/><ellipse cx="89" cy="54" fill="#bab5a9" rx="38" ry="9"/><path fill="#ada696" d="M72.8 124.7l20.4 21.7-38.1 3.7-15.8-20.3z"/><circle r="1" fill="#757878" transform="matrix(67.31765 14.25357 -2.21755 10.4732 38.2 69)"/><path fill="#949a9b" d="M226 53h30v11h-30z"/><path fill="#606972" d="M162 41h39v7h-39z"/><circle r="1" fill="#6a655a" transform="rotate(10.2 -833.3 258) scale(20.31621 21.7012)"/><path fill="#c8bea9" d="M27.4 47.6l32.1-19.7-75.5 16 62.4 15.2z"/><path fill="#676c6e" d="M114 4L41-10-5 26z"/><path fill="#878077" d="M11.9 185l95.3-59.3 19.8 8.5-35.5 45.2z"/><circle r="1" fill="#e2e3db" transform="matrix(-14.88566 5.41794 -1.52915 -4.2013 147.8 34)"/><ellipse cx="255" cy="99" fill="#455159" rx="83" ry="23"/><path fill="#374150" d="M218 82l-16-24 22-6z"/><path fill="#4b4e52" d="M149 47l-40 76 57 62z"/><path fill="#6d747e" d="M153.1 89l-6.7-18 65.2 6.1-38.9 10.1z"/><path fill="#5e5f5b" d="M0 86h84v36H0z"/><path fill="#b1a38a" d="M1 98l-15 8 39-2z"/><ellipse cx="203" cy="125" rx="22" ry="2"/><path fill="#b5b1a4" d="M115 52l49-36-67 18z"/><ellipse cx="166" fill="#61696e" rx="33" ry="12"/><path fill="#fff" d="M41 37h50v8H41z"/><path fill="#d3d1c9" d="M163 51h50v4h-50z"/><path fill="#d0cfc7" d="M210 24l16 9-39 8z"/><path fill="#dfdbcc" d="M102 15h25v16h-25z"/><path fill="#585f6e" d="M248 0h8v41h-8z"/><circle r="1" fill="#a39e90" transform="rotate(-15.2 91.6 -392.6) scale(55.5712 4.7592)"/><path fill="#efe9d7" d="M66.6 53.4l-.2 3-33-1.8.2-3z"/><path fill="#80807f" d="M30 53l38 8-39 38z"/><path fill="#8b8e92" d="M162.1 12.4l16.3-2.1-8.8 45.7-13.7 8.5z"/><ellipse cx="15" cy="46" fill="#a09f93" rx="65" ry="2"/><circle r="1" fill="#444748" transform="matrix(8.15423 -13.66671 37.83722 22.57553 169.3 147.5)"/><ellipse cx="175" cy="114" fill="#656561" rx="49" ry="7"/><path fill="#72746f" d="M65 52h36v4H65z"/><path fill="#dfdaca" d="M63 54l16 7 10-4z"/><circle r="1" fill="#272d30" transform="rotate(-150 147.9 40.5) scale(36.23564 18.87135)"/><ellipse cx="91" cy="121" fill="#23262c" rx="18" ry="5"/><path fill="#636871" d="M159 19h65v6h-65z"/><path fill="#f5f2eb" d="M38 48l-22-4 52-12z"/><path fill="#6b7075" d="M114.5 111.1l-36-12.4 13-37.8 36 12.4z"/><ellipse cy="8" fill="#4e555f" rx="31" ry="21"/><path fill="#485054" d="M17 60l-33 32 42 5z"/><path fill="#999ca0" d="M224.8 11l20.8 16.5L222 66l22.9-56.2z"/><path fill="#7e8282" d="M123 31l19-1 2-9z"/><path fill="#999385" d="M-10.7 48l-2.2-4.6L58.7 10l2.2 4.6z"/><ellipse cx="139" cy="10" fill="#6b6e6e" rx="32" ry="3"/><path fill="#353636" d="M34.6 160.5l-6.4 4.6-38.9-3.5 28 23.4z"/><path fill="#6c747e" d="M183 59h19v26h-19z"/><ellipse cx="170" cy="102" fill="#3f4550" rx="45" ry="7"/><path fill="#dcd6c7" d="M88.1 45.9l49.2-11.2-53.5.8 34.6 13.4z"/><ellipse cx="200" fill="#535c67" rx="65" ry="10"/><path fill="#9f9a91" d="M7.9 149.3l27-3.5 41.9 12.7 19-23z"/><circle r="1" fill="#4b555f" transform="matrix(11.4975 18.18724 -41.18022 26.03305 254.2 85)"/><path fill="#eaf4ec" d="M67 49h15v3H67z"/><path fill="#232629" d="M-16 146l31-17-20-17z"/><path fill="#595756" d="M60 160h43v3H60z"/><path fill="#5a5a50" d="M105 32h10v2h-10z"/><path fill="#7a8288" d="M271 48.6l-53.5 28.5 5.3-16 48.2-19z"/><path fill="#919494" d="M185 41h47v9h-47z"/><path fill="#817b71" d="M50.6 126.3l-35 20.1 57.5 3.9-25.7 8.5z"/><ellipse cx="65" cy="22" fill="#c7bba6" rx="25" ry="4"/><path fill="#99968e" d="M89.7 53.3L79 47.1l15.7-1.2 34.7 6.7z"/><path fill="#b6b6b2" d="M154 54h9v6h-9z"/><path fill="#4c535e" d="M142.7 107L97.3 80l7.9 24.1 38.1-50z"/><path fill="#fcfdff" d="M58 28h26v17H58z"/><path fill="#adb2af" d="M197.2 42.4l-39-2.8.6-8 39 2.8z"/><path fill="#575857" d="M135 138.5L51.3 84.8 2.8 122.6l140.3-8.3z"/><path fill="#8d8471" d="M38 126h65v5H38z"/><circle r="1" fill="#434241" transform="matrix(-.00299 -1.71239 39.0552 -.06816 14.2 151.4)"/><path fill="#525a66" d="M175.8 78.4L161.2 75l5-21.4 14.6 3.4z"/><path fill="#72787e" d="M186.5 45.7l-49.3 13.8-71.6 36.3 109.6-60.4z"/><path fill="#908f8c" d="M111 45.5l2.4-8.5 14.7 9 33.9 9.4z"/><path fill="#686254" d="M35 49h9v2h-9z"/><path fill="#6f7476" d="M36 12l78-5L77-5z"/><circle r="1" fill="#dee0da" transform="rotate(-179.1 71.5 17.5) scale(13.05807 3.77825)"/><path fill="#696b65" d="M52 46h18v2H52z"/><path fill="#15191e" d="M213 118.8l10-1.4 2 13.8-10 1.4z"/><path fill="#64686b" d="M86.4 89.3L60.1 75.8l8-18.7 37.3 64.9z"/><path fill="#a8aba6" d="M97-10l42 17h-26z"/><path fill="#323337" d="M152 127h76v10h-76z"/><circle r="1" fill="#313439" transform="matrix(53.01091 -.18683 .00798 2.26543 71.1 123.3)"/><path fill="#787368" d="M24.5 110.9l6-13.4-16.3 5.6-30.2 7.7z"/><path fill="#ada89c" d="M45 136l53 4-27 8z"/></g></g></svg>