<svg xmlns="http://www.w3.org/2000/svg" viewBox="0 0 1800 1200"><defs/><filter id="a"><feGaussianBlur stdDeviation="12"/></filter><rect width="100%" height="100%" fill="#544c44"/><g filter="url(#a)"><g fill-opacity=".5" transform="translate(3.5 3.5) scale(7.03125)"><circle r="1" fill="#ffe89f" transform="rotate(12.8 8.3 718.6) scale(255 41.91679)"/><ellipse cx="85" cy="158" fill="#000713" rx="255" ry="29"/><ellipse cx="176" fill="#ffda9e" rx="84" ry="39"/><path fill="#2d242e" d="M118.2 22.7l-6.5 24.1-58-15.5 6.6-24.1z"/><circle r="1" fill="#c59b6f" transform="rotate(-150 13.9 12) scale(29.77238 33.48395)"/><circle r="1" fill="#8a664c" transform="matrix(.57197 -20.90586 98.65124 2.69903 199 62.6)"/><path fill="#ffffd2" d="M179 105l-19-1-2 8z"/><path fill="#fad3a0" d="M228.5-16L67.5-1.4l20.6 19.7 130.2-.7z"/><ellipse cx="207" cy="30" fill="#dba571" rx="90" ry="14"/><path fill="#ddaf78" d="M164.5 83.7l2-28 9 .6-2 28z"/><path fill="#484a48" d="M169 71l-61 36 42-66z"/><circle r="1" fill="#d8b187" transform="rotate(-109.3 27.8 -19.8) scale(15.9089 26.93625)"/><ellipse cx="232" cy="23" fill="#a3805b" rx="43" ry="5"/><circle r="1" fill="#55524a" transform="rotate(148 33.1 39) scale(30.59018 43.53306)"/><ellipse cx="236" cy="135" fill="#192326" rx="98" ry="5"/><ellipse cx="161" cy="14" fill="#ffffd5" rx="32" ry="3"/><path fill="#a28562" d="M47 16v28H7V16z"/><circle r="1" fill="#4e4c46" transform="matrix(-25.45641 -7.96585 9.0822 -29.02394 201.1 96.3)"/><path fill="#72604d" d="M0 43h42v27H0z"/><ellipse cx="208" cy="35" fill="#ffd99b" rx="92" ry="2"/><path fill="#ffffc3" d="M160 107h11v6h-11z"/><path fill="#d69969" d="M122.3 57.5l-13.7-15.9 15-13 13.8 15.8z"/><ellipse cx="255" cy="59" fill="#af8158" rx="47" ry="21"/><ellipse cx="20" cy="108" fill="#464642" rx="116" ry="24"/><ellipse cx="37" cy="169" fill="#0a1417" rx="41" ry="13"/><path fill="#524f48" d="M57 59h105v49H57z"/><ellipse cx="89" cy="162" fill="#474f50" rx="44" ry="2"/><path fill="#4c4944" d="M111.3 132.3l38.8-1 49-23.5L16.7 131z"/><path fill="#cb9766" d="M153 50l21 16-3-24z"/><path fill="#514c46" d="M188.8 63.2L166.9 56l25.8 16.4-49.5 6.2z"/><ellipse cx="255" cy="168" fill="#000003" rx="30" ry="5"/><ellipse cx="19" cy="141" fill="#0a1315" rx="39" ry="5"/><path fill="#d0a273" d="M133 19h-21l29 43z"/><path fill="#b78b60" d="M196 39.2l-9.2 32.4 36.1-22.2.3 28.8z"/><path fill="#091216" d="M131.4 160.5l44-8.7-17.1-8.1-30 11.5z"/><ellipse cx="18" cy="14" fill="#ebc692" rx="34" ry="2"/><circle r="1" fill="#8c6d54" transform="rotate(84.6 38.2 92) scale(3.36027 28.86655)"/><path fill="#ebc58e" d="M123 27h79v8h-79z"/><circle r="1" fill="#8a745a" transform="matrix(.48527 -3.73196 23.75505 3.08892 32.1 23)"/><circle cx="169" cy="80" r="4" fill="#f8c884"/><path fill="#474843" d="M243 86l-16-15-11 12z"/><circle r="1" fill="#5e564b" transform="matrix(-6.81767 -17.85539 13.7862 -5.26394 78.6 29)"/><path fill="#c5a57d" d="M59 15.4l-1.3 8.4L-4.7-16 114.6-2.5z"/><path fill="#000508" d="M217 154.5v-3h44v3z"/><path fill="#534e47" d="M206.1 62l8.3 14.9-52.5 29-8.3-14.8z"/><path fill="#3c474a" d="M170 158h86v3h-86z"/><circle r="1" fill="#293134" transform="rotate(-2.4 3502.5 -5176) scale(57.73186 10.11829)"/><path fill="#3f494d" d="M126.8 164.3l36.9-4-32.8 9.6-8.9 4.5z"/><path fill="#715f4e" d="M176.7 105l-20.4 14.8 34.6-14.9 6.4-.9z"/><ellipse cx="173" cy="7" fill="#d2ab7b" rx="100" ry="2"/><circle r="1" fill="#574e46" transform="rotate(28.2 -40.8 321.4) scale(4.66391 17.005)"/><path fill="#3d494d" d="M173 165h33v5h-33z"/><path fill="#030a0e" d="M68 165h39v4H68z"/><path fill="#fad399" d="M182 12h74v4h-74z"/><ellipse cx="173" cy="12" fill="#ffefbc" rx="21" ry="4"/><path fill="#534e46" d="M177.7 61.5l4.8-4.4 36.3 59.3-44.7-25.7z"/><path fill="#8b6e54" d="M109.4 18.4l10 9.8L111 40 98.9 16.4z"/><path fill="#b78c61" d="M218.8 66.3l2-4.6 64.4 30-2 4.6z"/><path fill="#ebc793" d="M105.5 15.3l90.9 6L86.5 9.9l1.4 8.1z"/><path fill="#ffd98e" d="M168 64h8v4h-8z"/><ellipse cx="248" cy="55" fill="#977656" rx="47" ry="10"/><path fill="#3d454a" d="M22 166h19v4H22z"/><path fill="#7d6653" d="M139 107h19v7h-19z"/><path fill="#aa8f6c" d="M18 17L43 7-16-6z"/><path fill="#01090c" d="M92 153h41v3H92z"/><ellipse cx="240" cy="98" fill="#534d46" rx="8" ry="23"/><path fill="#f4c084" d="M123 27l7 7-18 7z"/><path fill="#a88864" d="M0 27h45v14H0z"/><circle r="1" fill="#5b544a" transform="matrix(-25.21383 -17.00694 10.32439 -15.30654 78.3 44.7)"/><path fill="#b4926b" d="M127.3 21.6l31.8 3.9-.4 3-31.8-4z"/><ellipse cx="164" cy="108" fill="#ffffd1" rx="4" ry="3"/><path fill="#474541" d="M0 119h256v12H0z"/><path fill="#f5b67a" d="M189 63h10v4h-10z"/><path fill="#000001" d="M55 163h17v5H55z"/><ellipse cx="250" cy="23" fill="#ad8960" rx="23" ry="7"/><path fill="#b28860" d="M192.5 50.8l-77.4-14.4h51.1l-.8 29.5z"/><circle r="1" fill="#e3bc89" transform="matrix(2.23172 13.0575 -18.91109 3.23219 218.3 7.4)"/><path fill="#e0aa74" d="M126 40h6v9h-6z"/><path fill="#695a4c" d="M164.8 105.1l-18.4 14.8-16.4-14 66.1-3.6z"/><ellipse cx="152" cy="3" fill="#e1bd8b" rx="103" ry="3"/><path fill="#f8ba7e" d="M162 48l-7 2 2 3z"/><path fill="#836953" d="M12 57h21v10H12z"/><path fill="#3a4246" d="M98 157h30v8H98z"/><path fill="#c9a275" d="M181 19h35v9h-35z"/><path fill="#f4c577" d="M181 108.1l-14-1.2v-1l14 1.2z"/><path fill="#f2cb90" d="M0 12h9v5H0z"/><path fill="#ffffa0" d="M159 111h7v2h-7z"/><path fill="#524d47" d="M178 105l-22 13 17 9z"/><path fill="#10191d" d="M173 162.3l.4-3 45.6 6.4-.4 3z"/><path fill="#e9c491" d="M166.8 17.9L63.7 8l91.7 16.2 19.7 1.9z"/><path fill="#544f48" d="M86 55h50v60H86z"/><circle r="1" fill="#081214" transform="rotate(85 -76 84.2) scale(1 16.46068)"/><ellipse cx="221" cy="41" fill="#c89b6c" rx="68" ry="4"/><path fill="#374145" d="M104 139l20 6-37 2z"/><path fill="#524c45" d="M201 62h4v54h-4z"/><path fill="#a6825b" d="M161 44h85v14h-85z"/><path fill="#384448" d="M25 147h58v2H25z"/><path fill="#5e554a" d="M29.1 52.9l11.1 24.6 8.2-47.6 75.6 2z"/><path fill="#fee6b3" d="M169 13.6l-80 2.8v-2l80-2.8z"/><circle cx="170" cy="77" r="2" fill="#ffe895"/></g></g></svg>