<svg xmlns="http://www.w3.org/2000/svg" viewBox="0 0 1800 1200"><defs/><filter id="prefix__a"><feGaussianBlur stdDeviation="12"/></filter><rect width="100%" height="100%" fill="#383f4b"/><g filter="url(#prefix__a)"><g transform="translate(3.5 3.5) scale(7.03125)"><ellipse cx="129" cy="33" fill="#92caff" fill-opacity=".5" rx="255" ry="120"/><path fill="#8a9aa8" fill-opacity=".5" d="M0 74h256v73H0z"/><ellipse cx="140" cy="160" fill="#1f538d" fill-opacity=".5" rx="255" ry="14"/><circle r="1" fill="#3565a3" fill-opacity=".5" transform="rotate(90.1 63.6 73.5) scale(31.93671 254.99997)"/><path fill="#a58765" fill-opacity=".5" d="M0 136h200v11H0z"/><path fill="#6691bd" fill-opacity=".5" d="M-16 17l16 97 271-32z"/><path fill="#253751" fill-opacity=".5" d="M67 147h130v6H67z"/><circle r="1" fill="#6c7d8f" fill-opacity=".5" transform="matrix(-93.99379 -5.7489 .66615 -10.89139 192.2 135.9)"/><circle r="1" fill="#567dac" fill-opacity=".5" transform="matrix(.45327 -17.30952 182.86142 4.7884 114.7 41.4)"/><circle r="1" fill="#998e93" fill-opacity=".5" transform="rotate(-91 123.5 -46.4) scale(52.54202 5.20834)"/><ellipse cx="71" cy="142" fill="#b0a28f" fill-opacity=".5" rx="67" ry="4"/><path fill="#375678" fill-opacity=".5" d="M82 139.8l9-10L78.9 185l-85.8-16.6z"/><path fill="#5a5339" fill-opacity=".5" d="M139 141h60v3h-60z"/><path fill="#4c4d49" fill-opacity=".5" d="M72 129l-15 8-2-7z"/><path fill="#7b99b5" fill-opacity=".5" d="M-16 115l32-50 182 47z"/><ellipse cx="214" fill="#416a9c" fill-opacity=".5" rx="227" ry="17"/><ellipse cx="12" cy="168" fill="#2e5077" fill-opacity=".5" rx="222" ry="22"/><circle r="1" fill="#668db1" fill-opacity=".5" transform="matrix(43.03816 7.49441 -4.32598 24.84282 219.8 80.7)"/><path fill="#7c4550" fill-opacity=".5" d="M166 37l3-14 6 7z"/><path fill="#a5adac" fill-opacity=".5" d="M168 102.8l13.9 1.5-1.8 16.9-14-1.5z"/><path fill="#decfb7" fill-opacity=".5" d="M122 139h16v4h-16z"/><ellipse cx="140" cy="128" fill="#73869b" fill-opacity=".5" rx="82" ry="11"/><ellipse cx="238" cy="133" fill="#728a9f" fill-opacity=".5" rx="55" ry="14"/><path fill="#ab9a7d" fill-opacity=".5" d="M169 144h51v3h-51z"/><circle cx="171" cy="133" r="14" fill="#817b80" fill-opacity=".5"/><path fill="#a49583" fill-opacity=".5" d="M87.1 147.2l-24.3-1.3.2-14.1 17.6 7.3z"/><path fill="#708297" fill-opacity=".5" d="M0 125h57v11H0z"/><path fill="#a49f96" fill-opacity=".5" d="M11 146l-8-14 35 11z"/><path fill="#304c6d" fill-opacity=".5" d="M146 147h110v23H146z"/><path fill="#bab9b2" fill-opacity=".5" d="M75.7 135.7l.8 2.8-20.2 5.8-.8-2.8z"/><path fill="#646356" fill-opacity=".5" d="M136 140h38v5h-38z"/><ellipse cx="41" cy="74" fill="#6b91b8" fill-opacity=".5" rx="96" ry="12"/><circle r="1" fill="#547cab" fill-opacity=".5" transform="matrix(119.77246 12.13117 -.98255 9.70087 58.6 35.1)"/><path fill="#5f5035" fill-opacity=".5" d="M80 143h8l1-11z"/><path fill="#9cb2bc" fill-opacity=".5" d="M164 86l15 2-6-12z"/><circle cx="40" cy="139" r="2" fill="#fffffe" fill-opacity=".5"/><path fill="#675957" fill-opacity=".5" d="M71 129l-7 6 1 4z"/><path fill="#718aa3" fill-opacity=".5" d="M147 112l-66 22 91 6z"/><path fill="#74788c" fill-opacity=".5" d="M163 90h15v13h-15z"/><path fill="#77685a" fill-opacity=".5" d="M44 146.5v-1h68v1z"/><path fill="#403d2a" fill-opacity=".5" d="M60 136v-8l-3 4z"/><path fill="#58525b" fill-opacity=".5" d="M55 139l-3-4-8 1z"/><path fill="#5b7999" fill-opacity=".5" d="M209 140h47v5h-47z"/><path fill="#848074" fill-opacity=".5" d="M165.7 143.9l-107.3 1-74.4 2.7 47.8.2z"/><path fill="#a37462" fill-opacity=".5" d="M37 141l-11-1 7-6z"/><ellipse cx="172" cy="60" fill="#a1b5bd" fill-opacity=".5" rx="3" ry="6"/><path fill="#6f8298" fill-opacity=".5" d="M85 136.2l-11.3 5.6-.1-15.2 110.3 13.7z"/><path fill="#aaacab" fill-opacity=".5" d="M170 34h4v11h-4z"/><path fill="#375a82" fill-opacity=".5" d="M45 165h76v5H45z"/><path fill="#5982ad" fill-opacity=".5" d="M175 38h81v28h-81z"/><path fill="#6c718c" fill-opacity=".5" d="M170.7 76.7l6.1-7-12.2-3.6 1.3 11.9z"/><circle cx="96" cy="143" r="2" fill="#434e48" fill-opacity=".5"/><path fill="#7393ae" fill-opacity=".5" d="M179 88h77v23h-77z"/><path fill="#99a5aa" fill-opacity=".5" d="M180 118l-14-17-3 17z"/><path fill="#c7bbaa" fill-opacity=".5" d="M118 143l-18 1 12-5z"/><ellipse cx="170" cy="47" fill="#75697f" fill-opacity=".5" rx="4" ry="5"/><ellipse cx="186" cy="148" fill="#3a5576" fill-opacity=".5" rx="219" ry="2"/><path fill="#f5e9d7" fill-opacity=".5" d="M71.2 135.5l1 .2-1.4 4.8-1-.2z"/><circle cx="2" cy="141" r="5" fill="#8a645b" fill-opacity=".5"/><path fill="#868c8d" fill-opacity=".5" d="M158 139h34v3h-34z"/><circle r="1" fill="#735265" fill-opacity=".5" transform="matrix(-.99108 -.13324 1.15066 -8.55897 171.2 27)"/><path fill="#284a6f" fill-opacity=".5" d="M140.5 185L29.4 154.9l128.2-7.4-98.1 29.6z"/><path fill="#d0d0cb" fill-opacity=".5" d="M51 141l-7 1 4-2z"/><ellipse cx="138" cy="139" fill="#2f2d1f" fill-opacity=".5" rx="1" ry="2"/><path fill="#a99d8d" fill-opacity=".5" d="M81.8 138.2l-3.5 7.6 27.9-.1-32.4-3.3z"/><ellipse cx="115" cy="147" fill="#4f5e74" fill-opacity=".5" rx="84" ry="1"/><circle r="1" fill="#a9a090" fill-opacity=".5" transform="rotate(87.1 -65.4 83.4) scale(1 60.91268)"/><path fill="#d6c8b4" fill-opacity=".5" d="M89 139h12v2H89z"/><path fill="#605a45" fill-opacity=".5" d="M194.2 145.3l-16.6-3.6.2-1 16.6 3.6z"/><path fill="#7d97b0" fill-opacity=".5" d="M0 99h90v14H0z"/><path fill="#527aa4" fill-opacity=".5" d="M174 25h82v20h-82z"/><ellipse cx="23" cy="18" fill="#4b75a6" fill-opacity=".5" rx="148" ry="12"/><circle cx="255" cy="165" r="20" fill="#2a4a6e" fill-opacity=".5"/><path fill="#c9bcb0" fill-opacity=".5" d="M33.7 144.5l8-7.7.6.7-8 7.7z"/><path fill="#7591ab" fill-opacity=".5" d="M158 129l-87-13 94-31z"/><path fill="#768fa4" fill-opacity=".5" d="M183 109h73v24h-73z"/><path fill="#eae9db" fill-opacity=".5" d="M196 143.6l4-.2v1l-4 .2z"/><path fill="#778ca2" fill-opacity=".5" d="M68 111l-2 31-6-27z"/><path fill="#64655a" fill-opacity=".5" d="M185 143h13v2h-13z"/><circle r="1" fill="#766e66" fill-opacity=".5" transform="matrix(-4.3511 4.30578 -.7034 -.7108 74.2 140.7)"/><ellipse cx="128" cy="143" fill="#9e9585" fill-opacity=".5" rx="4" ry="3"/><path fill="#57636d" fill-opacity=".5" d="M129.7 149.6l-4.3-4.2 22.3 9.2-36.5-15.6z"/><path fill="#6f7a89" fill-opacity=".5" d="M118.4 129.5l.6.9-19.4 14-.6-.8z"/><circle cx="12" cy="136" r="1" fill="#fff" fill-opacity=".5"/><ellipse cx="175" cy="130" fill="#93959b" fill-opacity=".5" rx="2" ry="16"/><path fill="#7388a0" fill-opacity=".5" d="M36 124h20v13H36z"/><ellipse cx="45" cy="166" fill="#37587e" fill-opacity=".5" rx="140" ry="2"/><circle r="1" fill="#827b78" fill-opacity=".5" transform="matrix(-.3173 -.94832 14.57353 -4.87624 25.3 143.8)"/><path fill="#6488ae" fill-opacity=".5" d="M176.8 69.5l4-20.6 90.4 17.6-4 20.6z"/><path fill="#d6dad0" fill-opacity=".5" d="M63.3 142l-7-1 .4-3 7 1z"/><ellipse cx="65" cy="136" fill="#9d7d6f" fill-opacity=".5" rx="5" ry="2"/><circle cx="123" cy="141" r="2" fill="#dfddd4" fill-opacity=".5"/><circle r="1" fill="#436c99" fill-opacity=".5" transform="matrix(.17002 -7.41233 76.86725 1.7631 198.8 0)"/><ellipse cx="61" cy="57" fill="#6289b5" fill-opacity=".5" rx="66" ry="8"/><path fill="none" stroke="#3d536c" stroke-opacity=".5" stroke-width=".5" d="M68.7 158.4q23-5.3 25.4-18.3"/><path fill="#edebdc" fill-opacity=".5" d="M62.3 143.8l.5-1.9 1 .3-.6 1.9z"/><path fill="#31547d" fill-opacity=".5" d="M48.3 185L-16 159.9l66.7-11.2-51.2-.9z"/><path fill="#7e6b72" fill-opacity=".5" d="M180 122v12l7 7z"/><ellipse cx="235" cy="16" fill="#4b739e" fill-opacity=".5" rx="66" ry="9"/><path fill="#454942" fill-opacity=".5" d="M140 140h4v4h-4z"/></g></g></svg>