<svg xmlns="http://www.w3.org/2000/svg" viewBox="0 0 1800 1200"><defs/><filter id="prefix__a"><feGaussianBlur stdDeviation="12"/></filter><rect width="100%" height="100%" fill="#383f4e"/><g filter="url(#prefix__a)"><g transform="translate(3.5 3.5) scale(7.03125)"><circle r="1" fill="#fff" fill-opacity=".5" transform="rotate(2.6 -798 2766.3) scale(255 51.72324)"/><ellipse cx="104" cy="143" fill="#a4a89e" fill-opacity=".5" rx="255" ry="31"/><circle r="1" fill="#e7e6d1" fill-opacity=".5" transform="matrix(128.69944 -.30919 .07454 31.026 81 55.8)"/><ellipse cx="85" cy="100" fill="#161a16" fill-opacity=".5" rx="172" ry="14"/><ellipse cx="208" cy="76" fill="#cbb885" fill-opacity=".5" rx="68" ry="18"/><circle r="1" fill="#55728c" fill-opacity=".5" transform="matrix(-115.80827 -55.73475 10.0199 -20.81982 228.2 5)"/><path fill="#484d50" fill-opacity=".5" d="M273.1 124l11.2 44.7-149.4 37.2-11.2-44.6z"/><ellipse cx="62" cy="130" fill="#9a9c9a" fill-opacity=".5" rx="91" ry="9"/><circle r="1" fill="#a6b7c9" fill-opacity=".5" transform="matrix(-109.0872 -6.48097 1.18784 -19.99355 90.8 26.7)"/><circle r="1" fill="#ae8d56" fill-opacity=".5" transform="matrix(-.78473 6.48467 -43.03195 -5.20744 248.9 89.4)"/><ellipse cx="96" cy="143" fill="#2b3951" fill-opacity=".5" rx="41" ry="6"/><circle r="1" fill="#dbd5c5" fill-opacity=".5" transform="matrix(-.33054 -23.67161 57.83054 -.80752 81.7 62.6)"/><ellipse cx="249" cy="106" fill="#0b1012" fill-opacity=".5" rx="110" ry="7"/><ellipse cx="107" cy="91" fill="#3b434a" fill-opacity=".5" rx="60" ry="6"/><circle r="1" fill="#909190" fill-opacity=".5" transform="matrix(-.59002 7.84696 -53.15433 -3.9967 70 154.3)"/><ellipse cx="178" cy="152" fill="#8c8f89" fill-opacity=".5" rx="55" ry="4"/><path fill="#000619" fill-opacity=".5" d="M184 166h36v4h-36z"/><circle r="1" fill="#94a4aa" fill-opacity=".5" transform="matrix(-59.90417 -32.97317 12.24908 -22.25358 196.2 32.7)"/><ellipse cx="71" cy="122" fill="#868d8f" fill-opacity=".5" rx="115" ry="10"/><circle r="1" fill="#c1c1b4" fill-opacity=".5" transform="matrix(44.959 -12.89179 4.25426 14.83637 177.3 67.3)"/><path fill="#6b7071" fill-opacity=".5" d="M188 114h68v31h-68z"/><ellipse cx="42" cy="2" fill="#849cb8" fill-opacity=".5" rx="153" ry="11"/><path fill="#c9a56c" fill-opacity=".5" d="M171 85h44v8h-44z"/><ellipse cx="114" cy="80" fill="#d4c29e" fill-opacity=".5" rx="96" ry="6"/><path fill="#9e9880" fill-opacity=".5" d="M238 40h18v55h-18z"/><path fill="#253346" fill-opacity=".5" d="M172 144h40v4h-40z"/><path fill="#2f3b46" fill-opacity=".5" d="M0 84h44v10H0z"/><path fill="#1f2429" fill-opacity=".5" d="M204 112l30-21-30 2z"/><circle r="1" fill="#5c6f84" fill-opacity=".5" transform="matrix(-37.76286 -17.1926 8.95449 -19.66817 255 .4)"/><circle r="1" fill="#364455" fill-opacity=".5" transform="matrix(-.06947 -2.4416 49.4436 -1.40685 174 160.4)"/><path fill="#828682" fill-opacity=".5" d="M180.7 158.3l1 6-42.4 7.4-1-6z"/><path fill="#d6d0bc" fill-opacity=".5" d="M8.2 65L180 67.2 89.2 83.1l6.5 6.6z"/><ellipse cx="29" cy="105" fill="#161e26" fill-opacity=".5" rx="85" ry="8"/><path fill="#344258" fill-opacity=".5" d="M89 127l11 3-24 2z"/><path fill="#8f897c" fill-opacity=".5" d="M37 165h99v5H37z"/><circle r="1" fill="#8091a0" fill-opacity=".5" transform="matrix(-5.80014 10.04168 -108.65582 -62.7603 178.7 0)"/><path fill="#101c2c" fill-opacity=".5" d="M94 143h31v4H94z"/><ellipse cx="83" cy="38" fill="#b8bfc4" fill-opacity=".5" rx="95" ry="19"/><path fill="#334159" fill-opacity=".5" d="M13 144h42v3H13z"/><path fill="#2d353e" fill-opacity=".5" d="M96 86h36v13H96z"/><ellipse cx="62" cy="93" fill="#38404a" fill-opacity=".5" rx="46" ry="7"/><path fill="#d1be9a" fill-opacity=".5" d="M116 82.9l-24.8 4.3-29.5.7 2.3-7z"/><path fill="#c8b690" fill-opacity=".5" d="M128 82h64v5h-64z"/><ellipse cx="190" cy="130" fill="#1a2739" fill-opacity=".5" rx="22" ry="1"/><path fill="#202b3b" fill-opacity=".5" d="M271 129l-18 11-7-6z"/><path fill="#3b495b" fill-opacity=".5" d="M125.2 140.7l31.7 1.4-7.6 7.5 17.8-1.6z"/><path fill="#222a33" fill-opacity=".5" d="M126 89h37v25h-37z"/><circle r="1" fill="#222f41" fill-opacity=".5" transform="rotate(-6.5 1490 -1152.3) scale(27.93261 1)"/><circle r="1" fill="#919087" fill-opacity=".5" transform="rotate(178.7 21.6 77) scale(38.95113 5.79822)"/><path fill="#96948b" fill-opacity=".5" d="M51 134h81v5H51z"/><circle r="1" fill="#acb1ae" fill-opacity=".5" transform="matrix(-4.79441 13.5466 -56.96822 -20.1622 195 49)"/><path fill="#132030" fill-opacity=".5" d="M155.7 171.5v-1l48.6-6v1z"/><path fill="#152642" fill-opacity=".5" d="M106 157h12v2h-12z"/><circle r="1" fill="#7a8083" fill-opacity=".5" transform="matrix(21.6761 14.45616 -4.77019 7.1526 19.9 130.2)"/><path fill="#a7b0bc" fill-opacity=".5" d="M80 16.2L-20 56.6l-6-14.8L74 1.4z"/><ellipse cx="87" cy="116" fill="#909394" fill-opacity=".5" rx="45" ry="3"/><path fill="#a48554" fill-opacity=".5" d="M256.7 89.8l-.4 5.8-52.7-6.1 67.4-4.6z"/><ellipse cx="51" cy="162" fill="#3e4a60" fill-opacity=".5" rx="19" ry="2"/><path fill="#8e8f88" fill-opacity=".5" d="M156 134h54v4h-54z"/><path fill="#505b69" fill-opacity=".5" d="M94 141l15.1-2.5-23.2 13.8L51.3 137z"/><path fill="#353d45" fill-opacity=".5" d="M196 157h60v3h-60z"/><circle r="1" fill="#283343" fill-opacity=".5" transform="matrix(-22.19423 1.51293 -.06801 -.99768 60.4 143)"/><circle r="1" fill="#d0d2cb" fill-opacity=".5" transform="rotate(95.2 15.2 66.3) scale(12.47734 42.75973)"/><ellipse cx="62" cy="124" fill="#a1a199" fill-opacity=".5" rx="47" ry="2"/><circle r="1" fill="#373f44" fill-opacity=".5" transform="rotate(90.1 -31.9 54.3) scale(3.13821 27.05597)"/><path fill="#b9aa8b" fill-opacity=".5" d="M193.7 77.2l43.8 5.6-64.7 9.7-12.9-6z"/><ellipse cx="90" cy="113" fill="#414f56" fill-opacity=".5" rx="143" ry="1"/><path fill="#646c73" fill-opacity=".5" d="M181 114h75v11h-75z"/><path fill="#2f4057" fill-opacity=".5" d="M188.4 133.4l-26.9-1.8v-1l27 1.8z"/><path fill="#848888" fill-opacity=".5" d="M12 115h30v29H12z"/><path fill="#6f7575" fill-opacity=".5" d="M189 166.7l7.4-17.7-76.1 36 18.2-23.3z"/><circle r="1" fill="#a1aebe" fill-opacity=".5" transform="matrix(2.48445 -11.3947 47.93942 10.45248 122 20.1)"/><ellipse cx="135" cy="137" fill="#3c4e64" fill-opacity=".5" rx="23" ry="1"/><path fill="#7c7768" fill-opacity=".5" d="M219 159h21v6h-21z"/><path fill="#57626f" fill-opacity=".5" d="M134 128l1-10-18 2z"/><path fill="#353c44" fill-opacity=".5" d="M64 98l38-14 40 10z"/><ellipse cx="187" cy="110" fill="#1d2227" fill-opacity=".5" rx="255" ry="3"/><path fill="#3f4c5e" fill-opacity=".5" d="M135.1 150.6l-29.9-12.8 26.4 10.5 51.2-3z"/><path fill="#949593" fill-opacity=".5" d="M26 163h32v3H26z"/><path fill="#c9bea2" fill-opacity=".5" d="M-16 56v21l68 6z"/><ellipse cx="205" cy="147" fill="#3a4857" fill-opacity=".5" rx="27" ry="3"/><path fill="#485363" fill-opacity=".5" d="M177 159v1l-92-5v-1z"/><circle r="1" fill="#343e47" fill-opacity=".5" transform="matrix(.07846 .99692 -203.77015 16.03706 202 168.8)"/><path fill="#d8cdb3" fill-opacity=".5" d="M21 69l31 17 27-7z"/><path fill="#898c8b" fill-opacity=".5" d="M94.9 170.9l-1.6-4.8 37.8-13 1.6 4.8z"/><path fill="#8c8e8e" fill-opacity=".5" d="M46 147l41 21 16-9z"/><circle r="1" fill="#8698ac" fill-opacity=".5" transform="matrix(5.31577 9.83676 -34.71701 18.76103 7.3 7)"/><path fill="none" stroke="#0a192f" stroke-opacity=".5" stroke-width=".5" d="M141.5 136.4q1.7.6 15.5.1"/><circle r="1" fill="#3c4145" fill-opacity=".5" transform="matrix(.12428 -2.4325 41.4268 2.1165 156.6 93.3)"/><path fill="#242b34" fill-opacity=".5" d="M1.2 101.2l133.9 10.6L30.9 92.2-16 73.1z"/><path fill="#55616d" fill-opacity=".5" d="M2 133h24v2H2z"/><path fill="#8c8e8b" fill-opacity=".5" d="M95 150h41v6H95z"/><path fill="#3b485f" fill-opacity=".5" d="M7 138.1l.8 6-14.9 1.8-.7-6z"/><ellipse cx="233" cy="144" fill="#7c796e" fill-opacity=".5" rx="27" ry="2"/><path fill="#0f1723" fill-opacity=".5" d="M247 153h9v2h-9z"/><circle r="1" fill="#bfc4bf" fill-opacity=".5" transform="rotate(-167.1 80 18.8) scale(37.24537 15.92471)"/><path fill="#666357" fill-opacity=".5" d="M29 166l-45-6 17 10z"/><path fill="#7b7e7b" fill-opacity=".5" d="M144 151h66v6h-66z"/><path fill="#2f363d" fill-opacity=".5" d="M124 84h-7l8 15z"/><circle r="1" fill="#12171a" fill-opacity=".5" transform="rotate(95.1 78.8 168.3) scale(3.69101 66.20061)"/></g></g></svg>