<svg xmlns="http://www.w3.org/2000/svg" viewBox="0 0 1800 1012"><defs/><filter id="a"><feGaussianBlur stdDeviation="12"/></filter><rect width="100%" height="100%" fill="#573429"/><g filter="url(#a)"><g fill-opacity=".5" transform="translate(3.5 3.5) scale(7.03125)"><circle r="1" fill="#a9bb9d" transform="matrix(-80.05277 -32.79415 18.20952 -44.45068 153.8 44.9)"/><circle r="1" fill="#f2ffff" transform="matrix(13.61302 -28.4377 29.4183 14.08243 127 0)"/><circle r="1" fill="#a39836" transform="rotate(166.3 1.5 34) scale(55.97277 20.11368)"/><path fill="#132b20" d="M0 3h96v41H0z"/><ellipse cx="127" cy="110" fill="#1e2e26" rx="255" ry="26"/><circle r="1" fill="#af9332" transform="rotate(114.7 50.9 83.5) scale(25.3107 29.34995)"/><circle r="1" fill="#625853" transform="rotate(-32.4 155.5 -351.5) scale(61.33597 26.87849)"/><circle r="1" fill="#53433b" transform="matrix(83.64338 -3.74244 .30753 6.87332 108 38.8)"/><path fill="#a38936" d="M80 46h82v32H80z"/><circle r="1" fill="#898d8d" transform="matrix(7.0686 -16.77647 29.05102 12.24035 212.3 69.5)"/><path fill="#b2b7c6" d="M111.5 32.8L100.7 22 71.2-16l111.3 43.2z"/><path fill="#500000" d="M188.2 72.3l-4.3 4.1-18-18.7 4.2-4.1z"/><circle r="1" fill="#1a240e" transform="matrix(3.2263 -11.95151 65.40247 17.65537 36 4)"/><ellipse cx="161" cy="91" fill="#6f7b78" rx="39" ry="8"/><path fill="#0f0c05" d="M0 93h32v35H0z"/><ellipse cx="177" cy="138" fill="#505446" rx="118" ry="10"/><circle r="1" fill="#344d48" transform="rotate(-122.7 96.3 -52.7) scale(6.56424 50.80684)"/><ellipse cx="229" cy="29" fill="#7e755e" rx="21" ry="12"/><ellipse cx="135" cy="2" fill="#dddce5" rx="17" ry="29"/><path fill="#423f3d" d="M56 83l98 7L53 51z"/><path fill="#54473d" d="M11 31h122v15H11z"/><path fill="#47574f" d="M243.4 104.4L118.7 102l91.1-25.3 17.4 15.9z"/><path fill="#a89ea1" d="M158.1 54.5l20-7.8-54.1-3.9 43.2-4.3z"/><path fill="#121d19" d="M160 108h96v15h-96z"/><circle r="1" fill="#5f493b" transform="matrix(-.78955 12.5713 -31.3069 -1.96624 209.1 38.4)"/><path fill="#7d8084" d="M112.7 11.2L93.8 36.6l2.3-35.2 33.3 18.7z"/><path fill="#5e1413" d="M181.5 83.2l1.7-5.2 1.6-26.3-13.4 4.8z"/><path fill="#1f352f" d="M203 21l-17.7-6.8L195-11l17.7 6.8z"/><path fill="#83927b" d="M177 104l-22-30 33 8z"/><path fill="#bdc9cb" d="M192.4 24.7l-18.8 2.5 13-9.5-44.8 15.2z"/><circle r="1" fill="#2a1c14" transform="matrix(-3.593 26.2296 -13.51563 -1.85141 59.9 96.4)"/><path fill="#5e3d19" d="M31 88h22v50H31z"/><ellipse cx="39" cy="55" fill="#8c773b" rx="91" ry="11"/><path fill="#768787" d="M163.7 22L148.5 7.2 210.3-16l-47.7 28.9z"/><circle r="1" fill="#604917" transform="rotate(-102.2 29.6 34) scale(23.38148 12.91494)"/><path fill="#9c8d4a" d="M118 48l-23 5-6 42z"/><path fill="#131e1a" d="M261 113l-33 9 32-73z"/><path fill="#97908c" d="M185 50h48v28h-48z"/><ellipse cx="109" cy="103" fill="#4a111c" rx="12" ry="28"/><path fill="#131b10" d="M3.2 42l-23.8-22.8 51.4-53.3 23.8 23z"/><ellipse cx="169" cy="45" fill="#674734" rx="77" ry="2"/><path fill="#53595a" d="M79.3 34l-8.1.9 4.6-9.2-65.4-1z"/><path fill="#94a6ac" d="M177.6 30.3l9.1-7.3 18-1.9.8 3.6z"/><path fill="#788478" d="M219 49l32 34h-38z"/><path fill="#5a4647" d="M203 61h19v7h-19z"/><path fill="#c9cbd3" d="M100 22h16v9h-16z"/><path fill="#3c433c" d="M80.7 88.4L195.6 113 225 72.1l-41.5 30.6z"/><path fill="#b09a38" d="M167.7 71.4l-10 15-20 1.8L122.3 59z"/><path fill="#9f927f" d="M211 23h45v4h-45z"/><path fill="#620e1b" d="M160 54h21v10h-21z"/><path fill="#0e1519" d="M161 90l2 25 13-11z"/><path fill="#000519" d="M63 49h16v3H63z"/><ellipse cx="121" cy="44" fill="#383542" rx="5" ry="15"/><path fill="#090f14" d="M123 108h19v16h-19z"/><path fill="#a27383" d="M69 104h14v4H69z"/><path fill="#c9ccd0" d="M162 23l-40-39L75-3z"/><path fill="#664e3b" d="M145 98h13v45h-13z"/><ellipse cx="247" cy="60" fill="#4b0e1a" rx="14" ry="11"/><path fill="#535d5f" d="M25 18h10v25H25z"/><circle r="1" fill="#8e782e" transform="matrix(13.3929 -7.39657 9.0964 16.47074 35.5 65.6)"/><circle r="1" fill="#27330a" transform="rotate(97.8 27 99.4) scale(5.82065 4.7136)"/><path fill="#a285a0" d="M159 47h23v7h-23z"/><path fill="#1f1824" d="M84.6 74.1l5 4.7 1.2-13.7L54 76.5z"/><path fill="#93979a" d="M118.4 31.8l11.4-1.1L112.4 9 94.6-.4z"/><path fill="#8a8680" d="M155 83.1l1 12-21 1.8-1-12z"/><path fill="#423e32" d="M157 35l17 3 2-13z"/><path fill="#737912" d="M173 89l5-20 3 21z"/><path fill="#37473f" d="M244.4 6L226.2-6.8l-69.1 33.5 47.5-16.4z"/><ellipse cx="221" cy="95" fill="#2d6b88" rx="9" ry="4"/><ellipse cx="207" cy="47" fill="#5f2122" rx="31" ry="2"/><path fill="#93a3a1" d="M188 68h41v9h-41z"/><path fill="#93836f" d="M198.7 47.5l-.8-2.9 45.4-12.1.8 2.9z"/><path fill="#31352a" d="M230 22.3L151.6-16l54.9 35.3 54.3 1.1z"/><path fill="#443f39" d="M78 71l-29-1 32-29z"/><circle r="1" fill="#123112" transform="rotate(9 -452.5 1282.2) scale(4.06115 4.39091)"/><path fill="#363727" d="M55.6 15.5l-.2-1 47-10 .2 1z"/><path fill="#655f52" d="M112 139h123v4H112z"/><path fill="#b6baad" d="M130 41h34v3h-34z"/><path fill="#5b4b42" d="M104.7 68.3l22.6 38.2 6.9-6.4-21.4-31.5z"/><path fill="#a88a48" d="M81 48h42v12H81z"/><path fill="#5d716d" d="M228.4 15.5l-16-2-5.5-29.5 10.2 21.5z"/><ellipse cx="208" cy="56" fill="#624b43" rx="16" ry="2"/><path fill="#3b3726" d="M73.7-4.5L99 18.2 84.3 34.5 59 11.8z"/><path fill="#4a3520" d="M143 81h2v51h-2z"/><path fill="#151814" d="M15 85h17v35H15z"/><path fill="#b4c1c9" d="M193.2 15.2l.4 1-34.8 12.6-.4-1z"/><path fill="#235b7a" d="M174 99h8v10h-8z"/><path fill="#685e55" d="M93.1 35.5l18.5-26.3L82 37.6 48.2 25.1z"/><path fill="#595f5c" d="M6.9 19.2l-9.6 7.2-4.2-5.6 9.6-7.2z"/><path fill="#323223" d="M31.7 159.3l-32-.6.6-34 32 .6z"/><path fill="#3c4a44" d="M102.5 97.4l-15.3 5.1.3-14.5 10.4-6.2z"/><path fill="#5b625b" d="M194.9 12.1L240.4 7l-49.2 11.9 6.8 23.2z"/><path fill="#474427" d="M271-.6l-9.8 34.9-45 9.6 20.2 2.8z"/><path fill="#2a2f23" d="M226.8-4.3l7.3 12.8-55.8.5 29.9 3.3z"/><path fill="#3b393f" d="M57.4 37.2l63.5 2.2-1.7 29.3-4.3-27z"/><path fill="#3e3c32" d="M227.1 13.9l-56.8 24.3 20.2 5.2-2.3-10z"/><path fill="#3c3529" d="M192.6 121.7l7 15 56.3 3.6 9.5-18.4z"/><path fill="#b09f9e" d="M235.6 58.4l-6.5 8.1-.2 1.8-4.7-18.3z"/><path fill="#5a6359" d="M150 8l8 2 9-8z"/><path fill="#707d65" d="M242 82l-41-3 47-10z"/></g></g></svg>