<svg xmlns="http://www.w3.org/2000/svg" viewBox="0 0 1200 1800"><defs/><filter id="a"><feGaussianBlur stdDeviation="12"/></filter><rect width="100%" height="100%" fill="#634138"/><g filter="url(#a)"><g fill-opacity=".5" transform="translate(3.5 3.5) scale(7.03125)"><circle r="1" fill="#4bbfff" transform="matrix(168.3569 -14.72932 5.07115 57.96356 72.8 54.9)"/><circle r="1" fill="#d4dcc7" transform="matrix(-3.34106 -36.73128 145.75575 -13.25787 89 255)"/><circle r="1" fill="#89b2ff" transform="matrix(-168.58189 11.8805 -2.11193 -29.96778 48 81.4)"/><ellipse cx="65" cy="161" rx="46" ry="36"/><ellipse cx="147" cy="156" fill="#a08e79" rx="41" ry="34"/><circle r="1" fill="#1c4dba" transform="matrix(.72433 -34.57905 166.0445 3.47814 107.4 22.1)"/><circle r="1" fill="#846444" transform="matrix(-1.14937 22.68892 -83.32335 -4.22098 45.2 227)"/><ellipse cx="162" cy="255" fill="#c7d9da" rx="37" ry="38"/><path fill="#000d14" d="M114 226L13 139l92-14z"/><path fill="#d9ac7d" d="M59 39h16v73H59z"/><path fill="#b49168" d="M48.7 242.3l-16.5-29.8 41.1-22.8 16.5 29.8z"/><ellipse cx="60" cy="254" fill="#d5e9e7" rx="81" ry="7"/><ellipse cx="17" cy="146" fill="#abcad0" rx="3" ry="35"/><circle r="1" fill="#a8a6ab" transform="rotate(-5 1284.4 -1783) scale(18.2461 12.41084)"/><path fill="#fef7f3" d="M60.3 74.3l14.7-.4 2.2-19-22.1 2.6z"/><circle r="1" fill="#a59482" transform="matrix(-94.98045 23.26563 -.84243 -3.43918 30.2 131.6)"/><ellipse cx="2" cy="194" fill="#be8859" rx="10" ry="31"/><path fill="#221108" d="M119 131h8v51h-8z"/><circle r="1" fill="#4580d4" transform="matrix(39.10162 -15.61531 8.3214 20.83725 19.7 55)"/><ellipse cx="3" cy="242" rx="46" ry="2"/><path fill="#0b1712" d="M123 189h31v24h-31z"/><ellipse cx="116" cy="194" fill="#bb9679" rx="6" ry="27"/><path fill="#b9b6bf" d="M151.1 179.4l-12.7-23.1-8.5 24 55.1 3.6z"/><path fill="#c2cdc3" d="M129 226l-11-16 56 9z"/><ellipse cx="133" cy="53" fill="#4c84d4" rx="57" ry="20"/><circle r="1" fill="#8bb2db" transform="rotate(160.3 3 54.7) scale(27.62413 15.73869)"/><path fill="#000b14" d="M20 141h23v51H20z"/><ellipse cx="113" fill="#20478d" rx="169" ry="19"/><path fill="#0a0100" d="M98.1 108l-65.4 18.8-.8-2.9 65.4-18.7z"/><path fill="#9f8371" d="M113.1 211.6l-6.7-87.2 24.8-12.6-12.9 23.8z"/><path fill="#715443" d="M72 227.8L36.4 271l79.5-60.1-90.2 40z"/><path fill="#183b5e" d="M75.9 78l-9-5.6-3.2 1.6.8 17.5z"/><path fill="#0e1211" d="M118.4 115.6l66.6 1-53.6 5.7 6.1-26.7z"/><circle r="1" fill="#1a1915" transform="matrix(.83178 3.43815 -55.86997 13.51637 24.8 125)"/><path fill="#927e61" d="M37 202l30-18-54 12z"/><path fill="#152221" d="M25.5 171.3l-8.8 5.1-4.3 53.8 11.9-8.4z"/><circle r="1" fill="#7face9" transform="matrix(50.84789 -16.81633 3.97037 12.00529 129 89)"/><path fill="#816046" d="M91 105h19v23H91z"/><circle r="1" fill="#a48673" transform="rotate(84.8 12.5 158.3) scale(13.88094 34.8603)"/><path fill="#121311" d="M104.3 172.3l10.2 40.5-21.8 4.1-13.3-14.6z"/><path fill="#c7a982" d="M19 212h33v7H19z"/><circle cx="123" cy="236" r="9" fill="#5d4434"/><circle r="1" fill="#001013" transform="rotate(-78.7 206.8 10.7) scale(4.12225 21.78867)"/><ellipse cx="144" cy="150" fill="#080000" rx="16" ry="2"/><path d="M11.2 164l-25.4-11.7 3-6.4 25.4 11.8z"/><path fill="#b6a38f" d="M88 119h2v30h-2z"/><path fill="#dcb79b" d="M71.4 46L30.8 78.8l16.8-9 11.2-8z"/><path fill="#5a3008" d="M57.6 52.7l8.2-14.9 2.6 1.5-8.2 14.9z"/><path fill="#fff" d="M144 175l.3 1-14.2 5-.4-1z"/><path fill="#b7b3a9" d="M106.5 252.1l.7-44.5L121 271l30.9-38.2z"/><path fill="#f1f8f6" d="M14 151h5v14h-5z"/><path fill="#956a47" d="M79.3 111l-76 12-.6-4 76-12z"/><path fill="#6da8cb" d="M142.7 141.7l-9.9-1.6 2.5-15.8 9.9 1.6z"/><path fill="#121519" d="M15.4 136.4L91 121.9l-38.2 68-20.3-15.6z"/><path fill="#190d08" d="M76 110h35v4H76z"/><path fill="#60361f" d="M130 98l14 2-22 9z"/><path fill="#bb8461" d="M128 198l19-1-10 6z"/><path fill="#00111f" d="M12 240.8v6l-24 .4v-6z"/><path fill="#222120" d="M128 130l-11 2 19 27z"/><path fill="#a59285" d="M-10.8 143.6l11-28.3 6 20.3 82.9-22.3z"/><path fill="#745543" d="M84 216h41v16H84z"/><path fill="#73a7e9" d="M73 80h97v18H73z"/><path fill="#f3d0b2" d="M60.6 55.2l35.1 17.4-11.1-10.7-16.3-6.3z"/><path d="M22 224l-6-5-13 12z"/><circle r="1" fill="#000002" transform="matrix(.2521 2.3206 -14.51584 1.57692 19.1 126)"/><path fill="#5286ce" d="M185 60.9L70.8 31.4l1.9 24.1 84.1 27.2z"/><path fill="#413327" d="M10 222l90-3v1l-90 3z"/><path fill="#6c5141" d="M66 192h16v12H66z"/><path fill="#996a47" d="M144 156h13v34h-13z"/><path fill="#d5edeb" d="M138 165.2l1-9 5 .6-1 9z"/><path fill="#926c50" d="M185 114V90l-62 25z"/><path fill="#000e1a" d="M131 116h7v14h-7z"/><path fill="#9d7f6e" d="M116 130l-38-12 22-8z"/><path fill="#83b1f0" d="M185 97.4l-28.7-.8-9.5 10.1-9.4-21z"/><path fill="#655040" d="M123 140h14v25h-14z"/><path fill="#e0e8e3" d="M14 142h5v11h-5z"/><ellipse cx="119" cy="234" rx="2" ry="6"/><path fill="#bf9267" d="M178.8 180.3l-30.4 10-7 .6-1.7-11.7z"/><path fill="#302015" d="M131.7 195.9l53.3-11.2-37.3 5.8-28.4-11z"/><path fill="#c3a478" d="M26 207h51v3H26z"/><path fill="#081012" d="M35.9 204.5l17.4-4.2L78.7 179l.2 1.2z"/><path fill="#8cafdc" d="M151.8 85.9l-2.2 1.6-64.4 15.2 32.2 6.4z"/><circle r="1" fill="#669ee5" transform="matrix(.51187 -14.24785 35.40219 1.27185 21.5 90.2)"/><path fill="#c3c9c3" d="M180.9 234.5l1.3 7-103 20-1.4-7z"/><path fill="#9b7867" d="M130.9 163.3l-16.2-6-3.5-35.8-3.1 56.1z"/><circle r="1" fill="#9a867c" transform="matrix(-.59068 -2.38683 56.13136 -13.8911 14.6 133.2)"/><path fill="#8d7960" d="M0 115h30v8H0z"/><ellipse cx="50" cy="241" fill="#010000" rx="14" ry="1"/><path fill="#9b6a4e" d="M143.4 127.2l41.6 61.6-18.3-91.1-3.6 20.9z"/><path fill="#0a0a0a" d="M22 176h18v17H22z"/><path fill="#62574b" d="M21.3 194.4l-23.5 8.3 40.5-37.2-13.2 4.4z"/><path fill="#464946" d="M47 246h63v2H47z"/><path fill="#b0b4ad" d="M185 234.9L134.1 212l-11.6 2.1 21.8 46.8z"/><path fill="#2d2e25" d="M11 151h4v26h-4z"/><ellipse cx="65" cy="101" fill="#589bec" rx="3" ry="10"/><path fill="#000910" d="M108 111h5v12h-5z"/><path fill="#8e6649" d="M12.4 166.5L-16 150.9v85.7l32.1-14.7z"/><path d="M16 203h17v3H16z"/><path fill="#0b0a0a" d="M121 167h8v9h-8z"/><circle r="1" fill="#8e765e" transform="matrix(1.58823 4.0114 -14.65408 5.80196 121.9 240.2)"/></g></g></svg>