<svg xmlns="http://www.w3.org/2000/svg" viewBox="0 0 1200 1800"><defs/><filter id="a"><feGaussianBlur stdDeviation="12"/></filter><rect width="100%" height="100%" fill="#2e3657"/><g filter="url(#a)"><g fill-opacity=".5" transform="translate(3.5 3.5) scale(7.03125)"><circle cx="169" cy="160" r="162" fill="#b1ac64"/><circle r="1" fill="#e7d2e4" transform="matrix(14.55106 -38.32003 33.60062 12.75898 65.7 97)"/><circle r="1" fill="#c4c0ca" transform="rotate(-9.3 1566.9 -794.6) scale(52.34701 55.02851)"/><circle r="1" fill="#414c00" transform="matrix(5.39484 -35.10058 88.06064 13.53463 49.2 22.3)"/><circle r="1" fill="#283601" transform="matrix(-16.23511 54.0626 -27.96093 -8.39672 129.4 135.1)"/><circle r="1" fill="#434c00" transform="matrix(40.16757 -18.56002 70.88741 153.41441 7.5 173.2)"/><circle r="1" fill="#8ba8c2" transform="matrix(-18.92172 10.72677 -32.68377 -57.65325 146.7 7.3)"/><ellipse cx="62" cy="156" fill="#f4f0ff" rx="34" ry="4"/><circle r="1" fill="#3f4602" transform="matrix(-3.10987 -84.3907 19.8667 -.7321 11.1 64.8)"/><circle r="1" fill="#e0d4e2" transform="matrix(5.03804 .47657 -3.33188 35.22261 35 124.2)"/><ellipse cx="68" cy="140" fill="#9f3e52" rx="34" ry="15"/><path fill="#55291b" d="M121.7 55.7l-86 57.2 65-26.8 5.6 29.4z"/><ellipse cx="38" cy="20" fill="#7c8324" rx="27" ry="20"/><path fill="#fff" d="M29 122l22-27V58z"/><path fill="#d0dbe3" d="M103 103.3l-2 28-36-2.6 2-28z"/><ellipse cx="98" cy="34" fill="#303d2a" rx="42" ry="26"/><circle r="1" fill="#34371a" transform="matrix(36.01542 8.272 -2.321 10.10543 73 225.1)"/><ellipse cx="31" cy="230" fill="#a4b735" rx="6" ry="43"/><path fill="#302511" d="M26.2 160.4l62.8.6-26.2 35.5 1.7-21.8z"/><path fill="#dfe6df" d="M32 57.3l12.7 15.2 10.7 5.9.6-21.5z"/><path fill="#020108" d="M3.3 117.7l20.3-21.5 1.9 98.3 14.6-23.2z"/><path fill="#242229" d="M152 61h14v29h-14z"/><path fill="#aeb8c2" d="M64 59h40v14H64z"/><circle r="1" fill="#677688" transform="matrix(12.87734 4.45918 -12.26753 35.42652 138.7 67.6)"/><path fill="#585049" d="M56 120l-7-27 14-33z"/><path fill="#acbf36" d="M12 149h9v43h-9z"/><path fill="#7e9cb0" d="M152.3 13.8l-29.6 16.4-3.4-18.5L154-16z"/><path fill="#a6a7ab" d="M88 203.9l16.9-22.4 75 56.6-16.8 22.4z"/><circle r="1" fill="#5a6821" transform="matrix(-7.35334 4.64445 -13.00947 -20.59725 25.7 60.5)"/><path fill="#636938" d="M136 135h18v73h-18z"/><path fill="#aca9a5" d="M185 89v177l-54 5z"/><circle r="1" fill="#86970a" transform="matrix(3.7009 -4.0824 17.71825 16.06252 78.2 217.1)"/><path fill="#e5eefc" d="M182 63l-25-20 15-12z"/><path fill="#141500" d="M71 54L29 27l11 30z"/><path fill="#a9c157" d="M41.1 193l-11.2 8.6-6.9.4 26-33.8z"/><path fill="#cfe0e2" d="M56 108l2 17 46-41z"/><circle r="1" fill="#45531d" transform="matrix(-17.73923 -26.39785 30.12684 -20.2451 132 139)"/><path fill="#645c64" d="M46 228l81 1-47 28z"/><path fill="#dfded2" d="M30 100v45l22-56z"/><path fill="#070c0a" d="M45 214h29v15H45z"/><path fill="#18113c" d="M143.7 188.8l-7.4 3.6-15.2-1.1-30.8-20.8z"/><path fill="#925b61" d="M34 126h62v28H34z"/><path fill="#5b636a" d="M56 199l38-42 24 69z"/><path fill="#b0bdcd" d="M175.4 39.3l9.6 58.6-23.6 2.5 2.5-8.5z"/><path fill="#343a18" d="M80.1-16L61.8 27.7l49 40.3 21.9 15.2z"/><circle r="1" fill="#1f1d29" transform="matrix(-3.66257 -3.87306 24.13667 -22.82491 66.2 255.5)"/><path fill="#292b00" d="M15 176l-9 94-20-74z"/><path fill="#1d1d08" d="M61.9 170.7l-7.5 21.4-27.7 17.6L37.3 198z"/><circle r="1" fill="#8c3a44" transform="rotate(149.2 22.7 57.1) scale(37.80051 4.00409)"/><path fill="#c2d4d7" d="M100 71l-29-4-13 25z"/><path fill="#d3feff" d="M43 143v-10l8 9z"/><path fill="#f0f2e7" d="M50.4 55.6l9.6 2.8-14.4 50-9.6-2.8z"/><path fill="#787e31" d="M66.2 52.3l-13.6-5.6L27.8-10l47.9 49.6z"/><path fill="#829229" d="M3.2 132.2l9.8 2-4.2 19.6-9.8-2z"/><path fill="#565a53" d="M133.7 148.3l30.9-123.1-5.1-40.6-1.9 36.3z"/><path fill="#949a3d" d="M139 182l18-36-27 29z"/><ellipse cx="20" cy="76" fill="#4b5321" rx="11" ry="44"/><path fill="#738838" d="M-7.8 201.3l20.3-6.5-.4 24 86.3-10.6z"/><ellipse cx="68" cy="157" fill="#d0dbea" rx="29" ry="3"/><path fill="#181a01" d="M82 28l8 31-21-3z"/><path fill="#bebfbb" d="M38 102l30 26-39-3z"/><path fill="#645d55" d="M62.3 67.1L69.4 18 53.1 130.4 49 100.5z"/><path fill="#515b0b" d="M34 245l-50 26 41-50z"/><ellipse cx="61" cy="178" fill="#cda568" rx="2" ry="21"/><path fill="#545c45" d="M158.1 130.6l-45.8-27.2-14 7.6 3.1-40.1z"/><ellipse cx="82" cy="63" fill="#645656" rx="19" ry="2"/><path fill="#252d0a" d="M113 5.6l6.4 19.6 2.4-41.2L63.4 9z"/><path fill="#b8c6dd" d="M72.6 196.2l1.3-1.5 11.5 11.1-1.3 1.5z"/><ellipse cx="36" cy="81" fill="#49493d" rx="2" ry="18"/><path fill="#c6ced0" d="M92 121l-42 2 53-43z"/><path fill="#e7ecea" d="M88 137h3v13h-3z"/><path fill="#aaa8a7" d="M170.8 266.8l-67.6-73.9 17.3-4 17.1 9.8z"/><circle cx="108" cy="255" r="23" fill="#918c80"/><circle cx="61" cy="73" r="5" fill="#2c3b39"/><path fill="#808287" d="M185 147l-53.4 28.9 31.3-6.8-41.5 89.7z"/><circle r="1" fill="#272f16" transform="matrix(29.87984 -13.3659 2.124 4.74825 8.5 21.3)"/><path fill="#1a1912" d="M50.2 168.4l-39.7-26.1 17-25.6-2.4 61.4z"/><path fill="#b0bed8" d="M26 158l10-8 14 4z"/><path fill="#3b4614" d="M105.3 232.4l-42.5-40.9 13.4-27.8-13.4 35.7z"/><circle r="1" fill="#313b3a" transform="rotate(-125.6 86.3 104.4) scale(34.21617 4.41488)"/><path fill="#646e3e" d="M87 8l30 22-6-28z"/><path fill="#868920" d="M149 135l7 18-25-2z"/><path fill="#908c8b" d="M68 243l4-16h13z"/><path fill="#3d3f36" d="M114 119l55-54-18 70z"/><path fill="#1d1b13" d="M21 102l8 9V75z"/><ellipse cx="4" cy="62" fill="#2a330e" rx="12" ry="43"/><path fill="#828c94" d="M95 190l16 39-27-20z"/><path fill="#001600" d="M149 175h7v8h-7z"/><path fill="#a1aa57" d="M47 3l8 7-22 8z"/><path fill="#1d221e" d="M148 132l30-32 5 12z"/><path fill="#6f7c28" d="M34 36L26-1l-9 70z"/><path fill="#c3ccdc" d="M160 106h7v6h-7z"/><path fill="#b7b4b8" d="M58.8 147l15.7-8.2-.7-.3-15.5 4.6z"/><path fill="#773a40" d="M110.5 68.7L50.8 98l25.4-2.1 9.8-5.3z"/><path fill="#873d38" d="M35 129h39v7H35z"/><path fill="#54521e" d="M140.6 187.8L67.8 139l16.9 14.7 20-20.8z"/><path fill="#8d993f" d="M11 233h6v16h-6z"/><path fill="#738890" d="M141.8 85.1l-24.4-35.3 13.7 2.7L159.6-.6z"/><path fill="#698395" d="M125-16l-8 43 20-7z"/><path fill="#67763f" d="M85.3 43.8l6.3 4.7 7.8-2-13.1-18.8z"/></g></g></svg>