<svg xmlns="http://www.w3.org/2000/svg" viewBox="0 0 3168 4752"><defs/><filter id="a"><feGaussianBlur stdDeviation="12"/></filter><rect width="100%" height="100%" fill="#3b414c"/><g filter="url(#a)"><g fill-opacity=".5" transform="translate(9.3 9.3) scale(18.5625)"><circle r="1" fill="#fff" transform="matrix(-16.0972 -54.8977 90.29154 -26.47545 152.1 3.5)"/><path fill="#c4d3c2" d="M115 182L172 1 62 14z"/><circle r="1" fill="#fff" transform="matrix(54.36458 -4.80564 1.78928 20.2415 122.2 26.5)"/><ellipse cx="138" cy="177" fill="#696a4e" rx="152" ry="127"/><circle r="1" fill="#7e8cae" transform="matrix(-24.8547 12.76532 -8.21869 -16.00219 117.4 191.7)"/><circle cx="153" cy="70" r="31" fill="#4d6d4e"/><circle r="1" fill="#50734b" transform="matrix(-9.98976 9.4435 -34.8828 -36.90061 71.5 52.2)"/><path fill="#9097ae" d="M70.2 137.6L64.7 103l67.1-10.6 5.5 34.6z"/><path fill="#fff" d="M94 17h26v43H94z"/><circle r="1" fill="#3a3429" transform="rotate(-14.3 720.9 -23.3) scale(64.7243 32.62873)"/><ellipse cx="141" cy="242" fill="#978e54" rx="52" ry="11"/><circle r="1" fill="#27231b" transform="matrix(11.0239 15.64965 -33.19102 23.38034 158.5 203)"/><path fill="#978972" d="M107 237H9l-16-32z"/><path fill="#597552" d="M37.1 80.3L69.3 7l-79.7-23L95.9 49.8z"/><path fill="#31483c" d="M118 66L75 80l81 24z"/><ellipse cx="169" cy="57" fill="#fff" rx="12" ry="5"/><circle r="1" fill="#172522" transform="matrix(-.53903 12.34584 -31.9556 -1.39521 29.8 83.5)"/><ellipse cx="76" cy="4" fill="#eff1f8" rx="10" ry="38"/><path fill="#d3e3ff" d="M111.2 141.2l2.6-28.4.7-1.7-13.2.3z"/><path fill="#bdc7dc" d="M106 207l40-16-42 5z"/><path fill="#faf6f8" d="M116 24l19-40 50 58z"/><path fill="#011a32" d="M154-7l13 9-15 8z"/><path fill="#7a9ebb" d="M104 15l49-29L36-4z"/><ellipse cx="75" cy="95" fill="#646856" rx="17" ry="53"/><ellipse cx="86" cy="185" fill="#5b5e64" rx="45" ry="14"/><path fill="#34472b" d="M166 48l-12.6 5.8-5.5-11.7 12.7-6z"/><circle r="1" fill="#4d5a6d" transform="matrix(-27.13455 -31.43487 11.0158 -9.50883 120.8 159.2)"/><circle cy="123" r="32" fill="#696736"/><circle r="1" fill="#789434" transform="matrix(-8.43014 -.30912 .60783 -16.5763 1.2 53.4)"/><path fill="#f3f1f3" d="M87.9 58.8l1.1 6.7 92.8-48.2L185-7.8z"/><path fill="#354c46" d="M123 44l19 14-19 8z"/><circle r="1" fill="#283839" transform="matrix(22.02072 8.54962 -3.08781 7.95307 155.8 111.7)"/><path fill="#e6e5e3" d="M70.3 31.5L53 21.2l42.5 6.7L69.9-3.8z"/><circle r="1" fill="#213835" transform="rotate(-12 110.7 -71) scale(16.33061 34.41249)"/><path fill="#3b352d" d="M-16 189.5l122.4 21.2-18.7 14.6-7.7 5.2z"/><ellipse cx="112" cy="144" fill="#a3b0c8" rx="2" ry="37"/><path fill="#ebeaec" d="M138.4 46l-3 8.6-37.5-34.5 73.2 11.4z"/><path fill="#222424" d="M88.9 137.8l2.7 10.7-71.3 36.9 35.5-25.1z"/><ellipse cx="25" cy="255" fill="#5b4d3a" rx="93" ry="22"/><path fill="#7f787d" d="M123 234.4l-51.9 5.3 31.2 13.2 21-50.9z"/><path fill="#66712f" d="M194.1 256.2l-57-15.3 6.8-25 57 15.2z"/><path fill="#9e917d" d="M50 186.4l28.8-11.6 1.1 2.8-28.7 11.6z"/><path fill="#5a725a" d="M43.4 11L31.5-13l40.8 23.6L29.2 39z"/><path fill="#485f4e" d="M105 58h11v33h-11z"/><path fill="#586c53" d="M136 46h26v54h-26z"/><path fill="#53759e" d="M102.8 14.6L87.7-2.8l13.5-11.8 15.1 17.4z"/><path fill="#cfdbdf" d="M133 110l-20 2 12-6z"/><path fill="#cbcfd1" d="M67 11.8l39.7 11.3L42.4-16l34.2 34.7z"/><path fill="#657972" d="M142 115l-19 19 10 64z"/><circle cx="166" cy="204" r="20" fill="#292a1f"/><path fill="#323f38" d="M6.9 102.4l63.2-32.5-70-2.3 66.3 46.1z"/><path fill="#212015" d="M-10.1 187l30.2 18.9-32.7-6.8 63.2-28.6z"/><path fill="#5e5f64" d="M109.2 193.9l-25.5 18.8-39-.7 48.5-33.5z"/><circle r="1" fill="#6d635e" transform="rotate(19.5 -312.6 269) scale(13.74344 38.13981)"/><path fill="#b4c2c9" d="M136 117l-29-9-18 8z"/><path fill="#f4f3f5" d="M94 44h27v14H94z"/><path fill="#708761" d="M126 85l59-27-12 25z"/><path fill="#495d4e" d="M43 43h50v10H43z"/><circle r="1" fill="#868866" transform="matrix(39.27866 -2.37277 .35169 5.82183 9.8 219.4)"/><path fill="#485156" d="M115 125h10v52h-10z"/><path fill="#8d8664" d="M123 271l1-31 36-2z"/><path fill="#75686b" d="M15 92l-30 74-1-74z"/><path fill="#eeeded" d="M135.7 9.7l49.3-.4-97.9 36.6-25.6-21z"/><path fill="#080b06" d="M118 260.2l-8.8 2.2-3.1-12.6 8.7-2.2z"/><path fill="#434957" d="M88 138h21v42H88z"/><path fill="#888fa0" d="M106.8 216.4l-9.6-12.8 8-6 9.6 12.8z"/><circle r="1" fill="#465e49" transform="matrix(-4.21274 -9.77507 27.17687 -11.71235 40.6 63)"/><path fill="#272521" d="M48 208l33-27-58 25z"/><path fill="#edeffa" d="M164.8 48l-2 12.1 11.3 1.9 10.9 44.7z"/><path fill="#729462" d="M85 59l23 5-36 25z"/><path fill="#9ba9c5" d="M103 92h8v18h-8z"/><path fill="#424247" d="M129 198l17-7-22 49z"/><path fill="#243743" d="M84 78h20v10H84z"/><path fill="#52684e" d="M168.5 47.1l-5-5.4L179.2 29l5.8 48.9z"/><path fill="#2e3f4d" d="M59 6h7v14h-7z"/><path fill="#292b30" d="M88 164l-20 12 18-51z"/><path fill="#809093" d="M95.7 113l15.6-9 16.3 40.9 12.5-34.2z"/><path fill="#373f38" d="M137 150.7l13-14.9 30-61.2 5 47.3z"/><ellipse cx="40" cy="164" fill="#726d66" rx="14" ry="3"/><path fill="#4a483f" d="M-2 208l16 6 28-24z"/><ellipse cx="113" cy="89" fill="#454e49" rx="2" ry="22"/><path fill="#5e794f" d="M-12 28l32-15L8 26z"/><path fill="#1c2525" d="M8 64l33 27-57-1z"/><path fill="#3e3a38" d="M111 226l13-26-34 32z"/><path fill="#3d4126" d="M-14 262.1l8.2-113.5 70.9-14-54.2 26.3z"/><path fill="#515361" d="M71 105h30v7H71z"/><path fill="#7e715f" d="M56 168h7v24h-7z"/><path fill="#666d65" d="M132.4 142.7l3.3 6.2-62 34.4-3.4-6.2z"/><path fill="#474833" d="M28.4 126.4l21.2-4.6L-16 99.3V110z"/><path fill="#42423c" d="M151 189l-20-35 54 22z"/><path fill="#8390a9" d="M129 190l15-3-3 10z"/><path fill="#95a3c0" d="M92 88h4v33h-4z"/><path fill="#adbcd0" d="M115 201l-2-18 7 17z"/><path fill="#2c3e3c" d="M49.3 45.4L-8.2 80.5l37.7-41.2 22.3-21.2z"/><ellipse cx="84" cy="97" fill="#65666f" rx="24" ry="4"/><path fill="#90a4c4" d="M118 212h3v16h-3z"/><path fill="#242628" d="M126.4 223.5l-18.8-1.4 40-9.9 21.2-32.1z"/><path fill="#586b51" d="M155.9 128l-1.8-17.7-29.5 25.6 26.7 4.4z"/><path fill="#000e25" d="M5 49l-21 26V38z"/><path fill="#3d382a" d="M0 245h67v6H0z"/></g></g></svg>