<svg xmlns="http://www.w3.org/2000/svg" viewBox="0 0 1800 1200"><defs/><filter id="prefix__a"><feGaussianBlur stdDeviation="12"/></filter><rect width="100%" height="100%" fill="#4c3d34"/><g filter="url(#prefix__a)"><g transform="translate(3.5 3.5) scale(7.03125)"><circle r="1" fill="#fff" fill-opacity=".5" transform="matrix(198.35503 160.25068 -61.67692 76.34244 169.4 53.5)"/><circle r="1" fill="#fff" fill-opacity=".5" transform="rotate(-81 104.3 -105.2) scale(47.18383 90.58745)"/><ellipse cx="68" cy="32" fill="#f3fcfe" fill-opacity=".5" rx="30" ry="26"/><circle r="1" fill="#5d6f7b" fill-opacity=".5" transform="rotate(139.9 27.2 94.9) scale(16.52388 111.62088)"/><path fill-opacity=".5" d="M56.9 136l-47 1L9 94l47-1z"/><path fill="#3e4d52" fill-opacity=".5" d="M98 109l16-56-51 7z"/><circle r="1" fill="#0d191a" fill-opacity=".5" transform="rotate(-143.6 22.5 .8) scale(5.49717 53.16116)"/><circle r="1" fill="#ccdadc" fill-opacity=".5" transform="rotate(-20.5 287 -372.7) scale(18.87327 41.99662)"/><circle r="1" fill="#000e11" fill-opacity=".5" transform="matrix(2.36768 -.29987 10.80144 85.2846 135.3 138)"/><circle r="1" fill="#bed1dc" fill-opacity=".5" transform="rotate(-100.9 9.2 4.5) scale(23.45575 18.08781)"/><circle r="1" fill="#636e6e" fill-opacity=".5" transform="rotate(117.7 73 157.6) scale(28.50892 57.01025)"/><path fill="#2a3534" fill-opacity=".5" d="M114.1 58.6l-33-60.7L81-16l28.1 38.5z"/><path fill="#071616" fill-opacity=".5" d="M116.2-6.8l10.6 67.1-3 .5-10.6-67.1z"/><path fill="#646f78" fill-opacity=".5" d="M0 139h136v19H0z"/><ellipse cx="218" cy="15" fill="#ecf2f0" fill-opacity=".5" rx="64" ry="39"/><circle r="1" fill="#000507" fill-opacity=".5" transform="matrix(.92805 -.37246 35.75003 89.07693 156 28.4)"/><circle r="1" fill="#f1faf8" fill-opacity=".5" transform="rotate(-48.8 102.2 -25.7) scale(4.04352 37.16607)"/><path fill-opacity=".5" d="M31 159h71v11H31z"/><ellipse cx="15" cy="72" fill="#546873" fill-opacity=".5" rx="32" ry="21"/><path fill="#d2dfe1" fill-opacity=".5" d="M126.6 86.2l-1.2 33.7-18-34.6 8.7-60.5z"/><path fill="#1a1b14" fill-opacity=".5" d="M232 95h3v75h-3z"/><path fill="#e4e8e6" fill-opacity=".5" d="M90 93l-10-7 17-16z"/><circle r="1" fill="#b1c1c5" fill-opacity=".5" transform="rotate(170.7 108.5 43.8) scale(45.61772 13.86329)"/><circle r="1" fill="#676c72" fill-opacity=".5" transform="matrix(22.00055 -5.60787 5.50597 21.6008 78.7 125)"/><path fill="#edf8f7" fill-opacity=".5" d="M121 116l-33-13 44 37z"/><circle r="1" fill="#cedad9" fill-opacity=".5" transform="matrix(-14.60324 -22.6463 4.0966 -2.64164 154.7 162)"/><circle r="1" fill="#6a7472" fill-opacity=".5" transform="matrix(6.3966 -.25346 1.07383 27.10017 149.7 123.5)"/><path fill="#00080a" fill-opacity=".5" d="M218 202.8l-1 .3-39-119.9 1-.3z"/><path fill="#d1d4d3" fill-opacity=".5" d="M21 53l48-69 37 71z"/><path fill="#d0dcd8" fill-opacity=".5" d="M189 184.4l40.4-10.3-31.4-11.5-49.6-28.7z"/><path fill="#4b4d50" fill-opacity=".5" d="M107 119L35 57l7 31z"/><path fill="#2b2a21" fill-opacity=".5" d="M69.3-1L73-8 96.7 5 93 12z"/><path fill="#4b4e4a" fill-opacity=".5" d="M90 103l27-43-12-19z"/><path fill="#333027" fill-opacity=".5" d="M172 169l-24-25 15 7z"/><path fill="#151914" fill-opacity=".5" d="M25.7 1.5l23.6 2.9L75.7-16 24.6-8z"/><path fill="#6c7884" fill-opacity=".5" d="M-2.5 158h31v18h-31z"/><circle r="1" fill="#1c282b" fill-opacity=".5" transform="matrix(4.4051 35.87667 -2.2785 .27976 138.2 146.2)"/><path fill="#e1e5e2" fill-opacity=".5" d="M124 6h22v51h-22z"/><circle r="1" fill="#000d14" fill-opacity=".5" transform="matrix(17.32377 -13.38876 14.53403 18.80564 34 115.1)"/><path fill="#4d5652" fill-opacity=".5" d="M183.4 152.4l-1.9-27.3-4.2 19.7-46.9-32.8z"/><path fill="#606366" fill-opacity=".5" d="M175.8 185l-62.3-58.3L54.3 73l5.6 47.4z"/><path fill="#626e6d" fill-opacity=".5" d="M225.8 98.1l40.5 5-34-11.2-72 10.3z"/><path fill="#b2babf" fill-opacity=".5" d="M4 35l-20-25 60-6z"/><ellipse cx="180" cy="123" fill="#414641" fill-opacity=".5" rx="2" ry="33"/><circle r="1" fill="#4a5259" fill-opacity=".5" transform="matrix(16.32359 6.16194 -2.00367 5.30793 73.4 63.6)"/><path fill="#f0f2f4" fill-opacity=".5" d="M110 69h14v23h-14z"/><ellipse cx="108" cy="95" fill="#535a5a" fill-opacity=".5" rx="33" ry="3"/><path fill="#c7cfd1" fill-opacity=".5" d="M84.1 82.3l.3 4.6-7.8-5.7-31.1-30.6z"/><path fill="#606a62" fill-opacity=".5" d="M251 140l3-62 17 42z"/><path fill="#a1aaab" fill-opacity=".5" d="M203.1 132.7l5.3 51.2-21.2-102 46.4 72.1z"/><path fill="#98a1a2" fill-opacity=".5" d="M173 57h59v13h-59z"/><path fill="#767a79" fill-opacity=".5" d="M83 80l57-22-38-2z"/><path fill="#e7eced" fill-opacity=".5" d="M130 65h10v26h-10z"/><ellipse cx="8" cy="43" fill="#091416" fill-opacity=".5" rx="18" ry="5"/><path fill="#424542" fill-opacity=".5" d="M103.1 83.4l-7 16.2 18.2 19.1L85 95.8z"/><path fill="#080c0d" fill-opacity=".5" d="M140.1 175.5L123 52.7l1-.2 17 122.8z"/><path fill="#26251f" fill-opacity=".5" d="M196 155.1l.4-.8 51.6 28.6-.4.8z"/><circle r="1" fill="#d5d5d3" fill-opacity=".5" transform="matrix(-11.9697 9.93743 -19.9297 -24.00545 78.8 25)"/><path fill="#fff" fill-opacity=".5" d="M103 8l-1-12-23-11z"/><path fill="#b5c1c3" fill-opacity=".5" d="M240 58h13v55h-13z"/><path fill="#acb6b7" fill-opacity=".5" d="M135 105h45l-1 35z"/><ellipse cx="144" cy="104" fill="#6c6e6c" fill-opacity=".5" rx="2" ry="29"/><circle r="1" fill="#7e8483" fill-opacity=".5" transform="rotate(32.5 -77.8 331.4) scale(34.5256 1.46781)"/><path fill="#dee2e1" fill-opacity=".5" d="M139.8 64.3l37.7 21.6-27.7-3-16.5-12.4z"/><path fill="#c3c7c3" fill-opacity=".5" d="M151.6 127.3l58.6 57.7-56.9-37.4 11.9 5.1z"/><path fill-opacity=".5" d="M202 163h2v7h-2z"/><path fill="#aeb1b1" fill-opacity=".5" d="M249 149v32l-12-35z"/><path fill="#cad5d6" fill-opacity=".5" d="M134 98h11v17h-11z"/><path fill="#becbcd" fill-opacity=".5" d="M195 143l-15 3 4-36z"/><ellipse cx="2" cy="108" fill="#464f55" fill-opacity=".5" rx="9" ry="62"/><path fill="#d5d9d7" fill-opacity=".5" d="M95 108l33 13 8 24z"/><path fill="#a3aaae" fill-opacity=".5" d="M18.3 36.5L14.6 41-16 21.2 42 3.7z"/><path fill="#c7c8c6" fill-opacity=".5" d="M31 38h69v19H31z"/><path fill="#dee2e0" fill-opacity=".5" d="M117.6 55.9l-12-56.7 4.8-1 12 56.6z"/><path fill="#82857e" fill-opacity=".5" d="M129.2 123.5l-24.9-34.8 14.1 31.5 15 13.4z"/><path fill="#545048" fill-opacity=".5" d="M171.7 171.4L142.1 134l30.3 31.5L186 185z"/><path fill="#565a57" fill-opacity=".5" d="M166 141l16 4 9 10z"/><path fill="none" stroke="#1d2320" stroke-opacity=".5" stroke-width=".5" d="M173 69.4Q163 47.7 144.4 4"/><circle r="1" fill="#e2e4e2" fill-opacity=".5" transform="matrix(.6738 -.73891 46.07608 42.01575 73 86.8)"/><path fill="#d9dddb" fill-opacity=".5" d="M116.7-7l13-1.6 5.6 45.6-13 1.6z"/><path fill="#555a5c" fill-opacity=".5" d="M-2.9 44.9l51.6 49.5 7.5-20.1-16.6-14.7z"/><path fill="#3d4849" fill-opacity=".5" d="M182.3 98.1l6.9 6L147 8.2l21.9 56.9z"/><path fill="#5f6462" fill-opacity=".5" d="M101 33h12v25h-12z"/><path fill="#96a1a2" fill-opacity=".5" d="M187.8 106.5l1.5 7.2 37.7 22.9 7.3-41.5z"/><path fill="#606463" fill-opacity=".5" d="M139.6 130.5l7.1-26.9 4.9 26.2-1.2-1.9z"/><path fill="#636467" fill-opacity=".5" d="M101 117l36 30-95-3z"/><path fill="#2b2d2a" fill-opacity=".5" d="M88.6 97.5l.7-.8 18 15.8-.6.8z"/><path fill="#262d2d" fill-opacity=".5" d="M170.4 63L120.7-48.6l1-.4 49.6 111.4z"/><circle r="1" fill="#444541" fill-opacity=".5" transform="rotate(125.2 12.4 20) scale(38.40791 4.87653)"/><path fill="#e6e8e4" fill-opacity=".5" d="M75.4 82.8l-4.6 6.3L44 53.4 29 53z"/><path fill="#dadcd9" fill-opacity=".5" d="M141.8-5.3L249 40.3l22 22.3-103.4-13.2z"/><path fill="#43443c" fill-opacity=".5" d="M232 92.5l.4-.9 35.6 15.9-.4.9z"/><ellipse cx="11" cy="148" fill="#262c30" fill-opacity=".5" rx="47" ry="2"/><path fill="#c4c5c3" fill-opacity=".5" d="M205 153.9l-5-11.2 19.9 21.6-12.7-6.2z"/><path fill="#5c5d5b" fill-opacity=".5" d="M212.3 132.6l41.8 1.8-21.7 9.6v-5.3z"/><path fill="#666966" fill-opacity=".5" d="M158.2 87.3l-19.5-10.2 25.6 15.5 20.3 6z"/><path fill="#d4d5cf" fill-opacity=".5" d="M164 174.3l-22.5-26.8 4.5-3.8 22.5 26.8z"/><path fill="#212424" fill-opacity=".5" d="M110-36.4l17 106.7-1 .1-17-106.7z"/><path fill="#c5c9cb" fill-opacity=".5" d="M114.5 88.5l.3-57.8-5.1 65.8 9.2 12.9z"/><path fill="#5f635f" fill-opacity=".5" d="M103.9 78.2l.6 25.5-24.2-11.3 31.5 8.7z"/></g></g></svg>