<svg xmlns="http://www.w3.org/2000/svg" viewBox="0 0 1800 483"><defs/><filter id="a"><feGaussianBlur stdDeviation="12"/></filter><rect width="100%" height="100%" fill="#2d3851"/><g filter="url(#a)"><g fill-opacity=".5" transform="translate(3.5 3.5) scale(7.03125)"><circle r="1" fill="#dfbd9d" transform="rotate(-178.4 31.5 19.3) scale(62.86832 27.2456)"/><circle r="1" fill="#0c0000" transform="rotate(6.4 -280.6 2294.9) scale(90.48407 255.00001)"/><path fill="#f0f4ec" d="M73 48l20-27-81 8z"/><circle r="1" fill="#6b3d28" transform="matrix(57.93939 -7.70017 2.237 16.8321 137 47.4)"/><circle r="1" fill="#4d6785" transform="matrix(2.00142 -12.53474 74.28826 11.86158 78.5 14.7)"/><circle r="1" fill="#594434" transform="matrix(18.06875 12.09598 -15.25313 22.78485 20.1 60.9)"/><path fill="#cb7744" d="M39 40h126v11H39z"/><path fill="#d1cec6" d="M40 47l20-26 53 9z"/><path fill="#100c0a" d="M128 51h128v17H128z"/><path fill="#455977" d="M110-14L-4 24l115-5z"/><circle r="1" fill="#051522" transform="matrix(-64.31064 -4.49704 .9091 -13.00084 191.8 4.9)"/><path fill="#a88773" d="M43 54h38v26H43z"/><path fill="#93adb9" d="M-5 32l41-10-21 21z"/><path fill="#343648" d="M141.5 14.6l65.7 7-2.7 25.8-65.7-7z"/><path fill="#502e26" d="M0 49h85v4H0z"/><circle r="1" fill="#563d38" transform="matrix(-92.49216 27.49126 -2.67202 -8.9898 94.9 67)"/><path fill="#e59755" d="M7 45h53v3H7z"/><path fill="#3e3a44" d="M8 38h45v3H8z"/><path fill="#b4ccd5" d="M88.2 35.9l-91-1.8L60 27l32.7-8.9z"/><path fill="#35303e" d="M91.3 45.2l67.7-6.4 47.2-12.3-98.5 10z"/><path fill="#e8a572" d="M57.6 51.4l27.6-9-.5-7.6-48.8 9.9z"/><path fill="#462938" d="M46.3 18.4l36.8-3.8.6 5-36.8 3.8z"/><circle r="1" fill="#2e3f56" transform="matrix(-17.40485 -14.35325 16.58543 -20.1116 .6 7.9)"/><path fill="#5b5251" d="M57 74L33 43 4 59z"/><circle r="1" fill="#010509" transform="matrix(-55.65209 32.1103 -6.82255 -11.82453 248.8 58.6)"/><path fill="#a6aeb3" d="M76 28h54v4H76z"/><path fill="#1f2f42" d="M104 16l40-17 50 20z"/><path fill="#77819d" d="M73.6 24.1l-18.7 1.7-43.6-9 29.1 13.6z"/><path fill="#362426" d="M203 33l16 16-73 18z"/><path fill="#547899" d="M38 8h45v6H38z"/><path fill="#5e5c68" d="M140.8 30.2L83 27.6l47.4-10.8 24.4 17.5z"/><circle cy="49" r="9" fill="#3e3830"/><path fill="#484a4d" d="M84 51h34v16H84z"/><path fill="#ecdabf" d="M62 41h39v1H62z"/><path fill="#cfa893" d="M39 54h37v3H39z"/><ellipse cx="98" cy="20" fill="#7b8fa5" rx="22" ry="2"/><circle r="1" fill="#ab603e" transform="matrix(-32.5182 2.94405 -.26282 -2.90293 138.2 45.1)"/><path fill="#2d2528" d="M112 52h54v16h-54z"/><path fill="#83746b" d="M42 62h38v6H42z"/><ellipse cx="58" cy="33" fill="#dcebe6" rx="18" ry="4"/><circle r="1" fill="#03090f" transform="matrix(4.11019 -9.42494 52.59932 22.93839 250.2 6.3)"/><path fill="#ae6737" d="M43 47h42v3H43z"/><path fill="#89695f" d="M86 35l39 7-45 5z"/><path fill="#aea792" d="M0 40h27v2H0z"/><path fill="#c08954" d="M93 45h36v5H93z"/><path fill="#f7d7b1" d="M42 42h39v2H42z"/><path fill="#4e3f45" d="M24 38h13v29H24z"/><path fill="#2f4a69" d="M40.3 14.7l-31 6.9V-16l74.8 7.8z"/><path fill="#3c4f61" d="M146.4 13.7l19.1 16.5-3.4.7-48 5.6z"/><path fill="#d29b65" d="M55 48.8L5 46.2v-1l50 2.6z"/><circle r="1" fill="#122e47" transform="rotate(62.6 2.8 4.6) scale(8.45024 59.57121)"/><ellipse cx="94" cy="36" fill="#968a87" rx="17" ry="2"/><path fill="#713a35" d="M155 38h23v13h-23z"/><path fill="#aabbc0" d="M109 34l-25-4 25-4z"/><path fill="#46485f" d="M93.1 14.1l-49.5 2.5-3.1 11.3 16.9-7.4z"/><path fill="#51403c" d="M89.3 52.1l45.4 2.6L80 83l39.3-33.4z"/><path fill="#1c2334" d="M241 26l-58 9-44-44z"/><path fill="#6f5554" d="M36.4 57.6L16.1 33.5 37.5 45l13.4 36.7z"/><ellipse cx="79" cy="37" fill="#cea28f" rx="20" ry="1"/><path fill="#9aabba" d="M56 26.1l16.5-4.7 30.8.6-29.4 9.3z"/><path fill="#66605d" d="M79 46h10v22H79z"/><path fill="#2b3342" d="M89.6 40.6l110-19.3-52.8-1.6 50.1 13.9z"/><path fill="#6b6659" d="M7.8 53.7l6.9 13.8 14.5-15.3-.5 3.8z"/><path fill="#3e3b37" d="M4.6 55.3L12.3 83-16 41.2l33.7 7.9z"/><path fill="#3e3545" d="M95 24h21v2H95z"/><path fill="#74829c" d="M25.8 19.4L9.9 27.7l32 .4L39.2 17z"/><path fill="#39323e" d="M84 16h39v2H84z"/><path fill="#585060" d="M-16 31l41-19-11 16z"/><ellipse cx="96" cy="12" fill="#596f89" rx="9" ry="4"/><path fill="#cd8146" d="M48 44h20v6H48z"/><path fill="#452b2f" d="M168.5 51.8l32.5-1.2-8.2-17.4 19.5 8z"/><path fill="#46383d" d="M-3.8 41.4l33.7 4.2v1L-4 42.4z"/><circle r="1" fill="#cc9680" transform="matrix(19.25788 -1.91869 .09914 .99507 68.9 38.2)"/><path fill="#e1be97" d="M64 46h14V34z"/><ellipse cx="105" cy="43" fill="#785f53" rx="36" ry="1"/><path fill="#13151d" d="M210.5 79.9l58.8-50.6 1.7 5.9-31.5-15.3z"/><path fill="#a5b3b5" d="M18 25L6 35l10 2z"/><path fill="#734640" d="M41.6 55.7l-7.1-13.4 16.9-4-22.6 10.2z"/><path fill="#2f4157" d="M92-9l95 42.2-78.9-17.4 6.1-6.2z"/><ellipse cx="134" cy="48" fill="#904f31" rx="22" ry="2"/><circle cx="6" cy="39" r="2" fill="#654f45"/><path d="M245 47h11v7h-11z"/><path fill="#33252e" d="M121 34h71v4h-71z"/><path fill="#2c485f" d="M20 36h11v3H20z"/><circle r="1" fill="#5d383b" transform="matrix(-.00524 .99999 -64.85618 -.33959 149 39.8)"/><path fill="#768c91" d="M39 35.4l-13.9 1.2-.2-2 14-1.2z"/><ellipse cx="80" cy="47" fill="#745044" rx="20" ry="1"/><path fill="#b2c0c9" d="M50 24h22v7H50z"/><path fill="#656971" d="M109 36l20-11 9 4z"/><ellipse cx="18" cy="52" fill="#25303c" rx="31" ry="1"/><path fill="#967f85" d="M80 27h42v2H80z"/><path fill="#1f1b21" d="M160.1 50.2L133.5 83l71.6-29.3 21-1.3z"/><path fill="#85736b" d="M76.1 80.1l3.7-17.3-41.7-.1 1.7-11.4z"/><path fill="#ab5c43" d="M55 37l.3 1-22.2 9-.4-1z"/><path fill="#1f1a21" d="M190.8 48.2l-9.5-.8-1.2-4.4 22.5.8z"/><path fill="#817978" d="M78 54h19v3H78z"/><path fill="#4c6279" d="M125 17l-24 5 40 3z"/><path fill="#343632" d="M245.9 19.9l6 7 19.1-9.6-.9 4.7z"/><path fill="#8a7a86" d="M1.9 28.3l46 .6 12.2-5.5L82 20.2z"/><circle cx="41" cy="36" r="3" fill="#bfc9bf"/></g></g></svg>