<svg xmlns="http://www.w3.org/2000/svg" viewBox="0 0 3168 3168"><defs/><filter id="a"><feGaussianBlur stdDeviation="12"/></filter><rect width="100%" height="100%" fill="#614138"/><g filter="url(#a)"><g fill-opacity=".5" transform="translate(6.2 6.2) scale(12.375)"><circle r="1" fill="#9ad6e1" transform="matrix(133.13539 13.74433 -8.5048 82.38229 62.6 37.5)"/><path fill="#c1f7fe" d="M237 35h19v170h-19z"/><circle cx="169" cy="178" r="102" fill="#696e5f"/><circle r="1" fill="#bac8da" transform="matrix(5.98956 26.91917 -69.654 15.49812 59.2 34.6)"/><circle r="1" fill="#29403e" transform="matrix(9.26166 50.96248 -59.61442 10.83402 41.9 126.6)"/><ellipse cx="210" cy="54" fill="#d1e3eb" rx="66" ry="9"/><circle r="1" fill="#0d0a05" transform="rotate(100.8 -50.8 103.7) scale(37.03033 24.68385)"/><circle r="1" fill="#17130d" transform="rotate(-16.3 228.8 -693.7) scale(13.84675 27.80798)"/><circle r="1" fill="#bfcab2" transform="rotate(-6.2 1532.2 -1587.6) scale(7.04465 31.01274)"/><circle r="1" fill="#71634f" transform="matrix(-67.83455 69.09092 -13.42403 -13.17992 159.4 15.8)"/><path fill="#aa9a93" d="M146 198h43v38h-43z"/><circle r="1" fill="#060000" transform="rotate(-158.7 90.8 29.7) scale(11.49265 10.33018)"/><path fill="#89b5c1" d="M225 0h13v64h-13z"/><path fill="#1a2d26" d="M198.6 168.1l-13.4-44 40.2-12.2 13.4 44z"/><circle cx="138" cy="184" r="22" fill="#102829"/><path fill="#d7c3a9" d="M145 99l-43 49 28-61z"/><circle r="1" fill="#577b7c" transform="matrix(100.93214 -.16573 .04238 25.81007 9.4 99.1)"/><ellipse cx="93" cy="179" fill="#8e7b68" rx="25" ry="38"/><path fill="#d1d7e0" d="M36 30l4-41 73 31z"/><circle r="1" fill="#fff" transform="matrix(-18.178 -4.93422 2.15594 -7.94264 180.1 53.7)"/><path fill="#31230e" d="M6-5.5h28v19H6z"/><path fill="#e3bb97" d="M37 218h8v38h-8z"/><path fill="#006878" d="M86.6 116L-16 80.5 7.6 63.8l2.4 9.5z"/><ellipse cx="215" fill="#5c5f56" rx="136" ry="11"/><ellipse cx="254" cy="123" fill="#a1b1b2" rx="14" ry="100"/><path fill="#005687" d="M232.8 194.2l1.4 27.3 13.2-2 6.2-18.1z"/><path fill="#00b7cf" d="M148.7 54.7l17.8 19.1 11.8-2.1-13.8-17.1z"/><ellipse cx="51" cy="56" fill="#93a4b1" rx="52" ry="22"/><circle r="1" fill="#5c3124" transform="matrix(-13.35138 -12.5817 24.60967 -26.11514 133.3 149)"/><ellipse cx="239" cy="180" fill="#8d8282" rx="34" ry="20"/><path fill="#151e18" d="M190 157l16-.9 2 39-16 .8z"/><ellipse cx="139" cy="255" fill="#3c2419" rx="42" ry="13"/><circle r="1" fill="#6e4f1f" transform="matrix(-40.21926 -25.43947 15.07884 -23.83933 230.7 249.5)"/><path fill="#101113" d="M114 119l-34 25-34-21z"/><path fill="#000c0f" d="M221 39.6l-28.2-10.3 6.2-16.9 28.2 10.3z"/><ellipse cx="5" cy="197" fill="#7e7a64" rx="8" ry="45"/><path fill="#fff" d="M155 44l11-10h18z"/><circle r="1" fill="#226062" transform="rotate(-29.6 236.6 -184.9) scale(38.6789 5.13587)"/><circle r="1" fill="#8a7975" transform="rotate(91.8 -46.6 65.3) scale(11.34137 38.13007)"/><path fill="#664031" d="M217 27l-37 68 46 33z"/><circle r="1" fill="#556f6a" transform="matrix(-39.74451 -18.76523 7.00515 -14.83681 246.8 17)"/><ellipse cx="109" cy="234" fill="#748ba0" rx="21" ry="7"/><path fill="#a39e99" d="M157.4 251.3l-7.4-59.1 20.4 16.3-20.7 31.9z"/><path fill="#a5936e" d="M141 135l6-33h-36z"/><path fill="#c39077" d="M128.8 213.1L98 189.4l-.2-19.8 25.1 33.7z"/><path fill="#068bb8" d="M239 114h17v11h-17z"/><ellipse cx="250" cy="51" fill="#bbc7d7" rx="29" ry="15"/><path fill="#b4bbbc" d="M-10.5 6.8L-16 48.4l36.6 31-1.1-62.5z"/><path fill="#5aa200" d="M243.5 232h23v26h-23z"/><path fill="#daffff" d="M182 69l-22-17 26 7z"/><path fill="#b5c7cc" d="M187 99h4v25h-4z"/><ellipse cx="104" cy="13" fill="#c1cbd6" rx="34" ry="7"/><path fill="#b0dde6" d="M139.9 73.9l20-17.7-32.6 20.1 23.4-26z"/><ellipse cx="156" cy="161" fill="#a8a792" rx="5" ry="13"/><ellipse cx="170" cy="235" fill="#65382e" rx="3" ry="101"/><circle r="1" fill="#76abbb" transform="matrix(-1.71335 .16498 -1.88065 -19.53129 228 106.7)"/><ellipse cx="211" cy="255" fill="#a36446" rx="34" ry="12"/><path fill="#5c392f" d="M133.5 84l19.7-15.4 7.3 9.4-19.7 15.4z"/><path fill="#9ce3f6" d="M261 81.6l1.9 15.9-23.8 2.9-2-15.9z"/><path fill="#1c262e" d="M249.5 10.8l2-26.8h-22.9l9.1 37.6z"/><ellipse cx="57" cy="44" fill="#869aa8" rx="53" ry="17"/><ellipse cx="220" cy="222" fill="#3b3135" rx="27" ry="12"/><circle r="1" fill="#767366" transform="rotate(-4.8 1087.3 -879) scale(39.68888 9.77086)"/><path fill="#dcccb5" d="M239.4 124.5l32.8 4-1.6 13-32.8-4z"/><circle r="1" fill="#957258" transform="matrix(1.67097 -29.88745 11.27733 .6305 37.2 242.9)"/><path fill="#537273" d="M181 7.9l23.4 1.6-24.6 24.2-11.3-4.3z"/><path fill="#bfb5a8" d="M179.9 123.4l4.7 15.4-12.5 3.8-4.7-15.4z"/><path fill="#ddc3b7" d="M104 143l8-19 17-11z"/><path fill="#00636c" d="M-16 83.9l28.9 4.4 41 19.2-61.7-49.2z"/><path fill="#e2ad8e" d="M100.4 185.8l9.3-48.8-2.7 5.9-7.5 23z"/><path fill="#88938e" d="M248.3 60l-13.1-33.1-22.6-15.6L224.9-16z"/><path fill="#e2cfb0" d="M256.4 155.6l14.6 51.5-29.3-52.6 16.7 3.4z"/><path fill="#3f5569" d="M96 239l-5 29 54-43z"/><circle r="1" fill="#37190c" transform="matrix(59.3281 -11.63971 .90386 4.607 4.2 134.3)"/><path fill="#b9c1c3" d="M151.1 222.4l8.3 8 5.1-9-8.6-15.2z"/><path fill="#bbc2be" d="M131.1 77.5l11.3 39-18.8-38.4 35.1-35.5z"/><path fill="#737d70" d="M274.2 64.8L243.7 84l-8-12.7L266.4 52z"/><path fill="#1f4751" d="M140.4 65.5L163 45.8l.6.7L141 66.2z"/><path fill="#177784" d="M110 107l-53 2 74-23z"/><path fill="#847b7c" d="M54 111h65v9H54z"/><path fill="#8d7b5c" d="M235 138h21v17h-21z"/><path fill="#948665" d="M137 213l14-21 16 10z"/><path fill="#b9dce0" d="M159.3 69.7l18.8 6.8-1.4 3.8-18.8-6.8z"/><path fill="#372a1b" d="M9.6 205.6l47.5-15.4 5.3 16.2-47.5 15.4z"/><path fill="#585555" d="M233.7 39l.4 12.4 7.9-6.2-75.5-1.8z"/><path fill="#00b5ca" d="M180 68l-16-14 1 19z"/><path fill="#e4edf4" d="M175 39l11-4-24-5z"/><path fill="#26413b" d="M211.7 130.4l14.3-8.2 16.3 36.2-44.1 14.3z"/><path fill="#826352" d="M206.7 162.1l-57.9-14.4-.2 17.4 43.6-30.2z"/><circle r="1" fill="#775a39" transform="matrix(3.0576 -5.31733 25.26285 14.52679 136 221)"/><path fill="#563423" d="M141.5 149.4l-2-29 27-1.8 2 29z"/><path fill="#82786e" d="M191 59l-16 56V73z"/><path fill="#2c1509" d="M89 226l-6 14-15-16z"/><path fill="#65483a" d="M222.2 33.5l-37.4 51.4 11.4 43 23.9-1.9z"/><path fill="#6e5342" d="M56-2l74 10 35-24z"/><path fill="#7f7748" d="M136.9 121.6l-15-16.6 75.8 18.5-21.4-1.7z"/><ellipse cx="236" cy="98" fill="#5d4035" rx="2" ry="35"/><path fill="#71706c" d="M3.9 128.6l72.3-9.1L-7.2 83l3.1 47.4z"/><path fill="#221c1a" d="M224.3 34.7L191 45.5l-5.3-16.2L219 18.5z"/><path fill="#938b91" d="M173 211h12v36h-12z"/></g></g></svg>