<svg xmlns="http://www.w3.org/2000/svg" viewBox="0 0 1800 1200"><defs/><filter id="a"><feGaussianBlur stdDeviation="12"/></filter><rect width="100%" height="100%" fill="#4f4a2b"/><g filter="url(#a)"><g fill-opacity=".5" transform="translate(3.5 3.5) scale(7.03125)"><circle r="1" fill="#1f2e3d" transform="rotate(-81.4 134.7 -41.2) scale(119.2116 242.29975)"/><ellipse cx="97" cy="119" fill="#c29784" rx="151" ry="4"/><circle r="1" fill="#6a654f" transform="matrix(8.70987 -19.8726 60.52161 26.52576 113.3 17.1)"/><ellipse cx="240" cy="85" fill="#25231d" rx="245" ry="34"/><circle r="1" fill="#3f6162" transform="matrix(.26991 -14.18305 123.17804 2.34413 113.7 139.3)"/><ellipse cx="186" cy="165" fill="#0b2624" rx="249" ry="12"/><circle r="1" fill="#24291f" transform="rotate(38.1 28.7 368) scale(60.88648 47.89082)"/><ellipse cx="109" cy="12" fill="#565445" rx="80" ry="18"/><ellipse cx="75" cy="131" fill="#4d8eb1" rx="23" ry="3"/><circle r="1" fill="#272821" transform="rotate(176.1 12 24) scale(56.17792 16.14504)"/><path fill="#886d5c" d="M155 118h101v6H155z"/><circle r="1" fill="#363a32" transform="matrix(5.33878 14.74822 -63.22156 22.88589 151 74.4)"/><circle r="1" fill="#566463" transform="matrix(-42.06352 1.16624 -.13189 -4.75688 156.8 145.6)"/><ellipse cx="133" cy="118" fill="#b09681" rx="62" ry="2"/><path fill="#33463b" d="M0 121h52v31H0z"/><ellipse cx="31" cy="118" fill="#c1a795" rx="30" ry="2"/><path fill="#453b39" d="M53.9 112.2l28.7-26.7-23.7-34.2-12.3-3.6z"/><circle r="1" fill="#6e6551" transform="matrix(-34.09312 -14.26146 2.77557 -6.6352 97.3 10.5)"/><path fill="#524b3a" d="M105 121h120v4H105z"/><ellipse cx="146" cy="137" fill="#263532" rx="127" ry="2"/><path fill="#1b78a6" d="M53 128h16v8H53z"/><path fill="#2e2925" d="M53 31l-69 83 66-2z"/><path fill="#282c27" d="M120 117l40-45 29 43z"/><ellipse cx="164" cy="37" fill="#3f4336" rx="15" ry="41"/><path fill="#201f1c" d="M240 86l-28 32 59-1z"/><circle r="1" fill="#2f372a" transform="matrix(-18.17307 -9.37982 12.95923 -25.10804 79.8 50.4)"/><path fill="#192723" d="M213 151h43v19h-43z"/><path fill="#244336" d="M271 157l-94-34 83 3z"/><path fill="#6e674b" d="M67 5L49 17l-14-5z"/><circle r="1" fill="#383e34" transform="matrix(10.20053 -12.15652 20.18648 16.93847 113.3 53.7)"/><path fill="#5d5941" d="M148.3 42.4l-1.5-7.6 28.7 6.9 4.9 13.1z"/><circle r="1" fill="#424734" transform="matrix(6.71065 -.26953 .6449 16.05662 135.9 95)"/><ellipse cx="19" cy="164" fill="#1b2a26" rx="32" ry="14"/><path fill="#4d655a" d="M69 128h105v6H69z"/><path fill="#576669" d="M106 166h17v2h-17z"/><ellipse cx="248" cy="56" fill="#1c2220" rx="32" ry="15"/><path fill="#3f433e" d="M87-10l76 36 52-42z"/><circle cx="239" cy="163" r="2" fill="#91909b"/><path fill="#9e9f9c" d="M60 128h12v2H60z"/><path fill="#304745" d="M57.2 158.1l56.3-3.4L41 127.6 1.9 150.2z"/><path fill="#665841" d="M48 49h15v5H48z"/><circle r="1" fill="#3d382d" transform="matrix(18.36282 -55.20067 6.97287 2.31957 243.8 0)"/><path fill="#4a5d5c" d="M81 140h67v11H81z"/><path fill="#888fa8" d="M94.5 132.1l-23-1.2v-1l23 1.2z"/><ellipse cx="82" cy="120" fill="#8d7f77" rx="14" ry="4"/><path fill="#42443c" d="M16.5 16.1L77.2.8-16-12.5l87.5 48.4z"/><circle r="1" fill="#273934" transform="matrix(29.13839 -7.77133 4.18424 15.68869 143.8 168)"/><ellipse cx="121" cy="119" fill="#b09b8b" rx="86" ry="1"/><path fill="#7c5b49" d="M0 115h115v3H0z"/><path fill="#504a29" d="M26.6 95l3 9.4-14.2 4.7-3-9.5z"/><path fill="#625f4d" d="M96.4 26l-2.2-6.5 97.4-33.6 2.2 6.6z"/><circle r="1" fill="#3a4834" transform="matrix(-16.56218 .4337 -.08355 -3.19052 84.7 126.5)"/><path fill="#343824" d="M221 59l-37 54 54-30z"/><path fill="#4c4443" d="M34.9 67.7l47.3 12.7-1 3.9-47.4-12.7z"/><path fill="#222723" d="M177 59h24v37h-24z"/><path fill="#8e7565" d="M184 120h72v2h-72z"/><path fill="#3e3f35" d="M84 24L33 37 66 7z"/><path fill="#1d2128" d="M109 64l-37 5 43 13z"/><path fill="#3c4b49" d="M176 137h69v14h-69z"/><ellipse cx="72" cy="123" fill="#544d3b" rx="186" ry="1"/><circle r="1" fill="#181c1e" transform="matrix(4.47191 -1.83772 7.18557 17.48535 31.4 87.8)"/><path fill="#514b3c" d="M9.3 26.2L4.2 45.5l-13.5-3.7 5.1-19.3z"/><path fill="#282d29" d="M-16 15.8L93.7 50.9-.9 43.5l26.5-30.7z"/><path fill="#614948" d="M61 110l-12-5 14-3z"/><path fill="#282424" d="M81 111L66 81l-6 31z"/><path fill="#25282b" d="M169 5h26v5h-26z"/><path fill="#414237" d="M224.8-16l-19.7 62.2 2.8-33.5-36-13.1z"/><path fill="#3d362e" d="M27 37L-6 72l25 33z"/><path fill="#4b4e2e" d="M204 49l8 24-15-22z"/><path fill="#384d49" d="M71 130l-3 22 41-13z"/><path fill="#564d3d" d="M93 121h40v4H93z"/><ellipse cx="138" cy="126" fill="#364c39" rx="98" ry="3"/><path fill="#42453f" d="M135.4-4.4L103-15.7l37.7 27.8-55.3-6.5z"/><circle cx="96" cy="128" r="2" fill="#a5749f"/><path fill="#3d4633" d="M112.4 51.6l1 12-31.8 2.8-1-12z"/><path fill="#464628" d="M181 98h25l-5 12z"/><path fill="#424e49" d="M52.2 121.4l15.7.6-23.5 13.8 14.4 9.9z"/><path fill="#232725" d="M49.4 75.1l-2.9-29.3-18 10.6 41.6 16.4z"/><path fill="#624339" d="M77 113h32v3H77z"/><ellipse cx="137" cy="117" fill="#8d6c57" rx="22" ry="1"/><path fill="#7d7057" d="M105 12h28v4h-28z"/><path fill="#2c302c" d="M271-10.3L161.1 36.4l11.7 3.1 19.6 21.2z"/><path fill="#7a828c" d="M66.3 129.7l-14.8-2.4.2-1 14.8 2.4z"/><path fill="#292429" d="M135 113h121v4H135z"/><path fill="#544a48" d="M79.8 89.9l-6-1 2.4-14.8 6 1z"/><path fill="#201f24" d="M102.2 92.7L78.4 76l14.2 25.1.4-13z"/><path fill="#403b33" d="M37 85l39-45-35 23z"/><path fill="#3a4b4a" d="M96.4 135.5L-8.3 151l114.5-7.2-17.5-26.1z"/><path fill="#53513e" d="M165 30l5-21 23 4z"/><path fill="#8d7c70" d="M79 0l-9-10 32 9z"/><path fill="#0f5c72" d="M57.4 137.6l20.8-3.8-22.3-2.7 2.7 1.2z"/><path fill="#24211b" d="M9 95l11 16-19-9z"/><ellipse cx="33" cy="119" fill="#aa9284" rx="19" ry="2"/><path fill="#43433d" d="M68.1 7.4l1.6-10.5L5.8-9.6l7.8 25.1z"/><path fill="#80744e" d="M81 4l-8 3 19 6z"/><path fill="#313b35" d="M166 27l-13-8 5-29z"/><path fill="#48433a" d="M118.1 61.4l10.7 3.9L108 76.5l26.1-4.9z"/><path fill="#2b302c" d="M150 89l-39-42 43 8z"/><path fill="#243734" d="M33 148h35v11H33z"/><path fill="#3e4233" d="M163.4 64.3l-58.9-25.8 76.3 11.3 5.6 4.4z"/></g></g></svg>