<svg xmlns="http://www.w3.org/2000/svg" viewBox="0 0 1800 1200"><defs/><filter id="a"><feGaussianBlur stdDeviation="12"/></filter><rect width="100%" height="100%" fill="#344d65"/><g filter="url(#a)"><g fill-opacity=".5" transform="translate(3.5 3.5) scale(7.03125)"><circle r="1" fill="#e3f3ff" transform="rotate(-173.9 31 17) scale(230.21734 48.99719)"/><ellipse cx="132" cy="141" fill="#280000" rx="32" ry="99"/><circle r="1" fill="#968d81" transform="matrix(-41.60156 84.17437 -69.38458 -34.292 242.8 159)"/><circle r="1" fill="#8796af" transform="matrix(-5.58948 -18.06925 59.81538 -18.5031 58.8 93)"/><circle r="1" fill="#c6dcf7" transform="matrix(-45.60668 -20.089 8.22456 -18.67166 195.4 63.1)"/><circle r="1" fill="#95b9ec" transform="matrix(-77.4424 16.80487 -7.09815 -32.71061 51.8 47.8)"/><ellipse cx="107" cy="116" rx="25" ry="18"/><circle r="1" fill="#494930" transform="matrix(-6.28019 4.32537 -40.91218 -59.40206 203.3 9.5)"/><circle r="1" fill="#af807d" transform="rotate(22.8 -145.9 416) scale(17.3217 26.37952)"/><ellipse cx="163" cy="22" fill="#a0bbdf" rx="18" ry="63"/><path fill="#bdb5a1" d="M226 130l43 30-43 9z"/><circle r="1" fill="#382a1f" transform="matrix(-3.36843 -4.43775 37.46966 -28.44102 242.4 86.3)"/><path fill="#221406" d="M168.6 152.2l-38.9-39.3 80.4 1.3L166 86.1z"/><path fill="#141006" d="M257.9 121.3l-.8 22-19-.6.8-22z"/><circle r="1" fill="#475064" transform="matrix(56.7154 1.11181 -.07063 3.60287 71.6 84.9)"/><path fill="#aec5dc" d="M0 55h118v25H0z"/><ellipse cx="202" cy="147" fill="#274464" rx="21" ry="26"/><ellipse cx="211" fill="#2f4724" rx="38" ry="17"/><circle r="1" fill="#6f96d0" transform="rotate(-100.8 28.3 -23.4) scale(33.86591 149.36578)"/><circle r="1" fill="#030707" transform="matrix(14.85769 -8.71177 36.5682 62.36607 133.6 169)"/><path fill="#b5cae5" d="M249.8 68.1l-31.2-43.6 50.8 4.9-9.5 35.3z"/><ellipse cx="174" cy="169" fill="#ffffef" rx="13" ry="5"/><path fill="#a7a8a4" d="M219 109l41-20-29 49z"/><path fill="#8e9398" d="M239.9 88.3L142 78.1l39.4 16.1-4.1 16.4z"/><path fill="#503132" d="M121 42h23v63h-23z"/><path fill="#663410" d="M101 185l-41-45 10-24z"/><path fill="#6d7989" d="M118.8 82.7l-32.4-6.5-41.6 42.3 27.2 2.2z"/><circle r="1" fill="#a3bbd9" transform="matrix(35.07393 14.31962 -9.82988 24.07695 186.6 46.8)"/><path fill="#657488" d="M96 124l12 45-25-19z"/><path fill="#33424c" d="M271 82l-44-31 42 60z"/><ellipse cx="20" cy="90" fill="#5c6e89" rx="93" ry="9"/><circle r="1" fill="#355240" transform="matrix(-42.87228 -7.31998 1.75033 -10.25147 228.3 14.8)"/><path fill="#291b11" d="M171.8 96.8l-28.2 21.8L261 87.7l-50.6 19.7z"/><path fill="#040000" d="M205.5 175.1l6-48.6 3 .4-6 48.6z"/><path fill="#bbcdda" d="M151.2 74.8l-2.6-8.9 88.2-1.5-59.6 22.4z"/><path fill="#3e2e22" d="M139.1 67.1l-2 .4L121-25.1l2-.4z"/><circle r="1" fill="#587493" transform="matrix(-7.99233 7.8221 -14.41868 -14.73246 186 131.2)"/><circle r="1" fill="#c8d7e4" transform="matrix(-4.49599 -6.05385 6.52106 -4.84297 233.5 82.2)"/><circle r="1" fill="#93aed4" transform="matrix(13.1477 -19.90743 25.55184 16.8755 159.2 22.9)"/><path fill="#452510" d="M73.7 141.3l19-17.8-10.9-13.2-14.2 25.6z"/><path fill="#d7c3b5" d="M141.1 90.5l.3-8.6 2.3 2.6 22.5 8.4z"/><path fill="#adaea4" d="M252 88h4v35h-4z"/><ellipse cx="90" cy="83" fill="#5a512c" rx="6" ry="9"/><path fill="#6f2f42" d="M124 92h34v19h-34z"/><path fill="#617284" d="M194 80.3l14.8 14.1-44.6-5.4-10.8 3.9z"/><path fill="#a6bfd9" d="M122 75L91 40l8 39z"/><path fill="#54243a" d="M134 160l-3-24 36 17z"/><path fill="#142533" d="M177 153h42v5h-42z"/><circle r="1" fill="#446187" transform="rotate(-51 201.7 12.8) scale(8.02814 50.31091)"/><path fill="#000a0f" d="M170 139l-6-38-19 23z"/><path fill="#aea38b" d="M162 158h67v2h-67z"/><circle cx="108" cy="114" r="20" fill="#10181b"/><path fill="#152433" d="M194 165h30v5h-30z"/><path fill="#bcd" d="M205 87l9-53 30 46z"/><path fill="#6d7d97" d="M30 117l49-3 41-35z"/><path fill="#a8a397" d="M244 144l27-5-24 46z"/><path fill="#131413" d="M251.4 105.8l1 .3-7.8 34-1-.2z"/><ellipse cx="110" cy="30" fill="#92add2" rx="20" ry="23"/><ellipse cx="192" cy="112" fill="#6c462d" rx="18" ry="5"/><path fill="#b6b3cc" d="M218 16l13 3v4z"/><path fill="#0a0c09" d="M94.6 170.3l73.2 1.1-21.1-13.6-33.1-1.5z"/><path fill="#9da3ab" d="M206.9 99.7l-3 6.3-20.8-9.7 3-6.3z"/><path fill="#8f949b" d="M203.7 118.7l50.7-28.6-38.3 32.7-29.6-.3z"/><path fill="#165945" d="M261 30l-30.6-5.4L235-2l30.5 5.4z"/><path fill="#c2d0d5" d="M159 68l8 2-1 26z"/><path fill="#526582" d="M0 84h44v34H0z"/><path fill="#544a3d" d="M134.3 89.2l-11.5-44.3 25.3 4.3 5.9 10.3z"/><ellipse cx="38" cy="162" fill="#0c1d2f" rx="24" ry="3"/><path fill="#42473a" d="M154 88l9-2-6-6z"/><path fill="#aea084" d="M171.6 165.4l-1.6-17.5-2.1-5.2-5.6 25.7z"/><circle cx="188" cy="37" r="22" fill="#9bb4d3"/><path fill="#476586" d="M170 124h37v29h-37z"/><ellipse cx="152" cy="49" fill="#a3b0ba" rx="3" ry="38"/><path fill="#743c56" d="M134.8 111.7l-22.7-25.3 11.1-10 22.7 25.2z"/><path fill="#7e8086" d="M170.3 111.1l16.1 6.5-21 3.7 3.8 2.1z"/><path fill="#424b45" d="M151.3-16l74.4 9.3-5.2 19.2-30.9 4.6z"/><circle r="1" fill="#6c93c8" transform="rotate(162.7 4.3 1.1) scale(80.45712 30.20013)"/><path fill="#5d544b" d="M235.3 58.6l7.4 9.8L198.4-16l16.3 52.6z"/><path fill="#b2c7da" d="M0 75h81v6H0z"/><path fill="#3e5260" d="M255 98l11-45-23 28z"/><path fill="#86a4cc" d="M-30.6 81.6L-43.2 49l157.8-60.5L127.2 21z"/><path d="M244.2 171.3l-8.9-1.6.5-3 8.9 1.6z"/><path fill="#1b191b" d="M179.3 91.6l-10.7 19.2-7.9-4.4 10.7-19.2z"/><path fill="#313032" d="M145.2 83.7l-30.5-23.5 13.6-15.7-5.6 36.3z"/><path fill="#3a5c85" d="M50 140l-50-5 72-16z"/><path fill="#97b1d0" d="M-16 57l127.1 16.1L123 47.2l10.3-12.5z"/><path fill="#1d201c" d="M222 134.5l1-5.9 5 .9-1 5.9z"/><ellipse cx="20" cy="169" fill="#46658e" rx="57" ry="4"/><path fill="#4b3a2e" d="M236 87.5l14.7 5.9-30.9 10.2-19.6 8.4z"/><path fill="#5f483b" d="M70.6 155.7l39.9 8.1-6.7 20.1-11.5-5.2z"/><path fill="#abbfd4" d="M209 29l-62 47 95-1z"/><path fill="#2f2f28" d="M207.8 12.7L206.9.1l35.7 19.3-5.6 1.7z"/><path fill="#92add0" d="M148-16l66 51-81 6z"/><path fill="#414b52" d="M245 113l-8-4 11-3z"/><path fill="#122943" d="M50.5 154.6l-66.5-8.8 37.1 10.5-4 .6z"/><path fill="#4b2128" d="M149.3 92.1L164 95l-1.3 6.9L148 99z"/><path fill="#10161a" d="M133.4 152.5l-17.1-61.3-13.3 3.3-24.5 22z"/><path fill="#adbecf" d="M165.2 59.4L145 65.1l30.6 20.3 21.2-9.1z"/><circle r="1" fill="#98978d" transform="matrix(-5.14093 27.3919 -4.68493 -.87927 230.6 141.9)"/><path fill="#e0d3c1" d="M166 167h24v3h-24z"/></g></g></svg>