<svg xmlns="http://www.w3.org/2000/svg" viewBox="0 0 1800 1200"><defs/><filter id="a"><feGaussianBlur stdDeviation="12"/></filter><rect width="100%" height="100%" fill="#4c3533"/><g filter="url(#a)"><g fill-opacity=".5" transform="translate(3.5 3.5) scale(7.03125)"><circle r="1" fill="#e9ecd8" transform="matrix(-52.51782 -40.08464 149.57023 -195.9629 161.1 81.6)"/><circle r="1" fill="#150600" transform="matrix(27.159 -4.72543 5.76534 33.13577 182 72.7)"/><circle r="1" fill="#fff" transform="matrix(-15.15152 -7.94017 33.01634 -63.00217 152.9 30.7)"/><circle r="1" fill="#e9fdfd" transform="matrix(18.25 -17.76716 102.15101 104.92708 239 38.1)"/><circle r="1" fill="#746c69" transform="matrix(25.40155 -21.8282 76.1343 88.59773 57.7 67)"/><circle r="1" fill="#000005" transform="matrix(-9.10138 8.08059 -19.03496 -21.43959 119.8 132.1)"/><ellipse cx="191" cy="123" fill="#765f42" rx="35" ry="50"/><ellipse cx="236" cy="129" fill="#000100" rx="23" ry="40"/><ellipse cx="56" cy="128" fill="#866f63" rx="26" ry="105"/><circle r="1" fill="#f4ddc5" transform="matrix(-18.52437 -14.00987 10.89526 -14.40611 91.6 146.5)"/><path fill="#fffff9" d="M103 65l43-13 20 57z"/><path fill="#f0f6e9" d="M150.5 142.6l51 29.5-10 17.3-51-29.5z"/><path fill="#230d13" d="M45.8 95.8l19.8-11.9 20.6 34.3-19.8 11.9z"/><circle r="1" fill="#0c1305" transform="matrix(-14.7013 7.91526 -23.7536 -44.11843 79.4 22.3)"/><path fill="#7f6749" d="M107 0h31v53h-31z"/><circle r="1" fill="#e6efeb" transform="matrix(-18.48263 14.49224 -18.19135 -23.2003 157.3 13)"/><circle r="1" fill="#c3ccc3" transform="matrix(-6.02507 -.87896 3.28303 -22.50432 70.4 61.1)"/><path fill="#171109" d="M157 52l28-7-11 84z"/><path fill="#c4b098" d="M30 157l4-35 112 41z"/><ellipse cx="3" cy="144" fill="#091713" rx="19" ry="102"/><path fill="#fff" d="M163 83l-31 33 15 7z"/><path fill="#8e847d" d="M6 0h47v41H6z"/><path fill="#6c1603" d="M123 87l26 3-15 11z"/><path fill="#e8d7c7" d="M110 56h15v53h-15z"/><path fill="#111d27" d="M114 117h22v37h-22z"/><ellipse cx="204" cy="133" fill="#897359" rx="12" ry="101"/><path fill="#dcd0bd" d="M183 102.8l4.6-7.4 5.8 39.1-13.8-7.2z"/><ellipse cx="60" cy="21" rx="4" ry="31"/><path fill="#e8f3f4" d="M113 155h30v10h-30z"/><path fill="#724e3c" d="M169 92l-17 24 30 69z"/><circle r="1" fill="#fffffd" transform="matrix(2.47881 -1.53946 5.70613 9.1879 42 3.6)"/><ellipse cx="220" cy="14" fill="#c0cac9" rx="61" ry="21"/><ellipse cx="35" cy="81" fill="#807772" rx="40" ry="11"/><path fill="#402128" d="M34.3 61.9l9.9 15.3 17.4-35-28.7-.8z"/><circle r="1" fill="#8a6950" transform="matrix(-23.95775 11.82005 -7.88946 -15.99095 65.4 167.2)"/><path fill="#fbfef9" d="M156.7 44.9l8.7-60.9-24.6 54.3 6.8 56.6z"/><path fill="#1a1610" d="M105.2 36.3L68.6 75.8l16.3 11.9L104.6-16z"/><path fill="#3e2b2b" d="M1.4-7l43 19.2L38.5 25l-43-19.2z"/><path fill="#605344" d="M163 45l61 4-29-18z"/><path fill="#e4dfdc" d="M103 81L90 68l9 31z"/><path fill="#0b120c" d="M266.9 185l-4.1-70.6L231 69.6l9.1 71.5z"/><path fill="#dfe7da" d="M234.9 169l17.7-2 18.4-10.6-24.3 28.6z"/><path fill="#39473a" d="M97 178l57-20-8 27z"/><path fill="#fffce2" d="M116 28l-6 5 7 9z"/><path fill="#2b2320" d="M-2 115l51 5-65-97z"/><path fill="#c6bdb7" d="M60 83.9l13.8-12.5 14.6-24.9-33.3 33.4z"/><path fill="#4c4b33" d="M221.2 37.8L254-26.3l.9.5L222 38.3z"/><path fill="#e5d8cc" d="M104.4 180.5l3.6-6.1-1-40.5-25.5-7.8z"/><path fill="#e4e4df" d="M151.9 119.2l-3.3 7.4-26.5-11.8 3.3-7.4z"/><ellipse cx="120" cy="127" fill="#16181b" rx="27" ry="4"/><circle r="1" fill="#6e5744" transform="rotate(10.7 -81.7 690.2) scale(7.97362 32.60977)"/><path fill="#18160f" d="M120 53L43-16l12 38z"/><circle cx="133" cy="141" r="7" fill="#828d8f"/><path fill="#14221e" d="M-3 127h34v72H-3z"/><path d="M231 124h25v41h-25z"/><path fill="#9c7b7a" d="M85 92h34v27H85z"/><path fill="#998684" d="M59 49l-6-31-37 6z"/><path fill="#625e55" d="M155.4 50.3L151.1 67l1.9 11.1 24.8-43.4z"/><path fill="#542e25" d="M152 126v-20l25 13z"/><path fill="#d7dbd6" d="M238 30L177 7l94 87z"/><path fill="#534532" d="M207 99l11 84 16-88z"/><path fill="#f5f3e9" d="M150 124l10 7-14 4z"/><path fill="#d7d7cf" d="M102.5 97.9l52.7-63.6-52 40.8 22.6 15.8z"/><path fill="#857760" d="M240.6 91.5l30.4 3.2-32.8-25.2-41.5 44.9z"/><path fill="#b29f89" d="M31 123h23v30H31z"/><path fill="#fff" d="M181 185h54l-54-24z"/><circle r="1" fill="#999b8c" transform="matrix(-8.91094 -9.52075 6.16958 -5.77442 35.2 84.9)"/><path fill="#eaebe3" d="M146.2 124.3l-4.6-6.4 8.9-37.4 10.9-.9z"/><path fill="#0e0909" d="M99.3 101l-.9-.4 8.3-21.5.9.3z"/><path fill="#854c3c" d="M149.9 84.6L121 94.7l12.2 7.7 11.1-10.3z"/><path fill="#a59d9a" d="M66 68l3-29-19 36z"/><path fill="#3d2a29" d="M73.9 116.4L53.6 83.9l2.4 51.8 21.3-50.2z"/><path fill="#020d09" d="M64 57h7v5h-7z"/><circle r="1" fill="#ccb497" transform="matrix(-9.12597 -29.17404 1.96568 -.61489 210.5 65.6)"/><path fill="#816659" d="M112 16L89 75l19-5z"/><path fill="#bec4c0" d="M162 0h37v33h-37z"/><path fill="#262b23" d="M184.2 162.4l-1.4-16 9-.8 1.4 16z"/><path fill="#363133" d="M126.5 156.1l-33.7-34 8.2-1.7 5.9-17.5z"/><ellipse cx="123" cy="44" fill="#f3f9f3" rx="2" ry="5"/><path fill="#6e544d" d="M105 95l-29 34-30 2z"/><path fill="#4f4a48" d="M53.4 90.4l2.4-10-38.5 45 30.1-2z"/><path fill="#3a3125" d="M99-16h26l-2 50z"/><path fill="#2b241b" d="M154 60.4l33-8.8 7 26-33 8.8z"/><path fill="#d9dcd6" d="M165 158.2l-48.1 9.4-1.9-9.8 48.1-9.4z"/><path fill="#90664f" d="M127.6 79.7l-8.7 5-2.5-4.4 8.7-5z"/><path fill="#77745d" d="M243.4 76l-.9-.4 24-51.6 1 .4z"/><path fill="#888e7e" d="M-1.8 21.3l28.1-3.7.6 31.3-16-7.5z"/><path fill="#9a886f" d="M197.6 92.5l-10.1-43.9 4.9-1 10.1 43.8z"/><path fill="#ccb195" d="M132 3h6v46h-6z"/><path fill="#e6e8e4" d="M111.6 50.9l-3 30.9 38.8-14.6L165 109z"/><circle r="1" fill="#372925" transform="rotate(164.8 6.3 20.2) scale(1 42.2804)"/><path fill="#4a3433" d="M0 30h51v3H0z"/><circle r="1" fill="#d7dbd3" transform="rotate(61 -21.7 93.6) scale(4.06426 8.87274)"/><path fill="#8d735e" d="M150 137l31 31-10-51z"/><path fill="#8d7051" d="M212 50h9v24h-9z"/><path fill="#fffff3" d="M130.6 106.5l24.3-15.8.5.8-24.3 15.8z"/><path fill="#8e4b34" d="M148.4 101.2L122 115.7l-.5-.9 26.3-14.5z"/><path fill="#2c3134" d="M146 148l-34 5 6-23z"/><circle r="1" fill="#8a765e" transform="matrix(6.93682 -.66465 3.70685 38.68798 199.9 145.8)"/><path fill="#b59ca6" d="M93 109l1-13-25-17z"/></g></g></svg>