<svg xmlns="http://www.w3.org/2000/svg" viewBox="0 0 1800 1200"><defs/><filter id="a"><feGaussianBlur stdDeviation="12"/></filter><rect width="100%" height="100%" fill="#513f33"/><g filter="url(#a)"><g fill-opacity=".5" transform="translate(3.5 3.5) scale(7.03125)"><circle r="1" fill="#d7be94" transform="rotate(-178.6 63.9 32.3) scale(134.19082 41.7219)"/><circle r="1" fill="#fff6ba" transform="matrix(-1.81096 16.57076 -62.19749 -6.79736 137.7 77.5)"/><ellipse cx="115" cy="156" fill="#000c2c" rx="255" ry="25"/><ellipse cx="189" cy="28" fill="#5e5d63" rx="226" ry="30"/><path fill="#6b5c4e" d="M59 96h186v36H59z"/><circle r="1" fill="#483c39" transform="matrix(-3.11135 9.84784 -57.23494 -18.08296 8 59.5)"/><circle r="1" fill="#fffdee" transform="matrix(20.9129 -.69375 .40498 12.20786 130.2 82.4)"/><path fill="#322e31" d="M110.4 100.3l-36 22-25.7 5.5L77 80.3z"/><path fill="#cfa868" d="M102 115V93l64 19z"/><ellipse cx="90" cy="46" fill="#553315" rx="30" ry="11"/><path fill="#c3a97d" d="M199 69h41v31h-41z"/><path fill="#2e1b12" d="M206 60h27v9h-27z"/><circle r="1" fill="#cc9c64" transform="matrix(19.8079 12.40188 -6.91594 11.04592 77.5 70)"/><path fill="#c0b494" d="M83.5 83.4L17 77.6l-33-1.1 10.2 10.3z"/><ellipse cx="200" cy="108" fill="#443d3c" rx="38" ry="14"/><circle r="1" fill="#57565c" transform="matrix(130.92254 43.14911 -7.62635 23.13977 197.3 21.9)"/><path fill="#a27846" d="M98 45h106v17H98z"/><path fill="#6f635e" d="M7 14l149-4L-4 61z"/><ellipse cx="11" cy="108" fill="#44454f" rx="49" ry="23"/><path fill="#e8c78d" d="M110.7 126.9l5-44-9 17.1 20.3 5z"/><path fill="#d9ab74" d="M219 81l-71-27 1 50z"/><path fill="#081523" d="M183 132h73v20h-73z"/><path fill="#4a3c2f" d="M122 92h8v39h-8z"/><path fill="#0f1925" d="M-6.9 130.1l79 2.8-1.2 35-79-2.8z"/><path fill="#b1a280" d="M36.8 73.8L41 98.4l-9.9 1.8L27 75.6z"/><path fill="#d3a772" d="M24 43l92.3 23.4-7.8 8.3-75.2-23.9z"/><circle r="1" fill="#654b30" transform="rotate(22.8 -62.2 467) scale(20.95429 3.60806)"/><ellipse cy="100" fill="#9b7652" rx="16" ry="7"/><path fill="#c09b70" d="M141.6 56.8l.3-14.5-48.8-14.6 26.5 12.2z"/><path fill="#f9e5c6" d="M109.3 87.7l11.5 9.5-10.5-39.7 58.8 36.1z"/><path fill="#ae9c7b" d="M230 79.1l21.6-14.8-23.8 43.8 13.8-2.2z"/><ellipse cx="250" cy="120" fill="#3c3f4d" rx="63" ry="13"/><circle r="1" fill="#3d4655" transform="rotate(106.8 110 83.3) scale(19.24535 124.39895)"/><path fill="#cca36b" d="M149.6 58.8l27 17.6L208 44.7 200.4 70z"/><circle r="1" fill="#60554d" transform="rotate(118.1 -12.8 27.8) scale(23.04362 27.24709)"/><path fill="#34373d" d="M69 147h96v23H69z"/><ellipse cx="123" cy="100" fill="#43372c" rx="25" ry="2"/><path fill="#b39470" d="M98.5 25.3l-4.6 14.8-32.8-17.4 38.8 10.8z"/><circle r="1" fill="#393d4b" transform="matrix(1.45178 10.9643 -95.29906 12.61855 54.6 0)"/><path fill="#191b24" d="M40 94l12 4-5-11z"/><circle r="1" fill="#3c2c1e" transform="matrix(.54442 3.64281 -10.29548 1.53867 51.6 77.2)"/><path fill="#1e1614" d="M139 103h8v6h-8z"/><path fill="#ad9f7c" d="M28.4 91.8l13.2-11.5 16.9 28 12.3-28.5z"/><path fill="#433c38" d="M104 89l-40 3 9 37z"/><path fill="#957045" d="M234.2 91.2l-111 20.4 52 6.5-26.3-19.5z"/><path fill="#2e2f3e" d="M78 112l-94-8v33z"/><path fill="#b69b76" d="M142.1 46.1l119 34.7-77.6 13.1 19.6-39.3z"/><path fill="#4f4641" d="M245.2 106.7l-7.3 19.1L271 75.2l-34.6 12.2z"/><path fill="#7c5d41" d="M139.8 132.4l-41.6-27.3-.7 27.6 13.6-.2z"/><path fill="#c89b60" d="M148 75l10-19-22 17z"/><circle r="1" fill="#9b7755" transform="rotate(90.8 -22.7 26.7) scale(5.98649 22.17496)"/><circle r="1" fill="#f3d294" transform="matrix(-1.88852 -3.71234 2.82297 -1.43609 136.2 105.6)"/><circle r="1" fill="#686060" transform="matrix(-73.53632 .78655 -.12042 -11.25794 125.1 19.1)"/><path fill="#644d38" d="M107.5 34.5l-23.3 4.8-17.1 17.2 69.7-6.1z"/><path fill="#f2e2c4" d="M131.8 76.8L99 76.5l14.5 8-4.6 19.9z"/><path fill="#e1c58c" d="M113.3 105.8l-7.9-.9 27.4-2.8-12.4 8.8z"/><path fill="#c09559" d="M139.2 107.8l5.1 14.9L153 99l7.8 13.8z"/><path fill="#f9d39b" d="M160.9 61l-45.2 9-.6-3 45.2-8.8z"/><path fill="#bead88" d="M65.1 94.1l18.6-19.8-45.9 14.6 19-1.3z"/><path fill="#a37c4b" d="M113.2 91.2l-.3.9-24.1-4.2L79.5 73z"/><path fill="#43362e" d="M94 45L78 31 61 50z"/><path fill="#49392e" d="M157 102h34v7h-34z"/><path fill="#9d7c5a" d="M57 69H29l36-32z"/><path fill="#453b34" d="M125.2 126.9l9-10.8-6.7-15-7.7 32.9z"/><path fill="#5c4f45" d="M51 111l-38-4 6-24z"/><path fill="#726457" d="M270.7 48.8l.3-8.4-42.5-1.4 3.5 30.8z"/><path fill="#ebc996" d="M87.7 91.8l39.2-17-56.8-17.3 50.3 6.3z"/><circle cx="147" cy="52" r="5" fill="#4f3c2c"/><path fill="#916d43" d="M180 65h17v8h-17z"/><path fill="#9b7b51" d="M162 92h71v6h-71z"/><path fill="#8a673e" d="M95 49h42v12H95z"/><path fill="#f6efdc" d="M118.6 89l42.1-12.5-28-1-4.6-7.1z"/><path fill="#d7b17b" d="M132 69.1l8.1-26.8 2 .6-8.2 26.8z"/><path fill="#514851" d="M8 124h71v8H8z"/><path fill="#d0ad83" d="M138 44h17v4h-17z"/><path fill="#564231" d="M201.4 61.8l13-4.6 13.3 10.5-22.5-.5z"/><path fill="#4e4948" d="M94 185l82-17-48-5z"/><path fill="#fae0aa" d="M100 92h12l-1 6z"/><path fill="#7b644d" d="M54.7 108.3l32.4-15.5-1.4 10.7-35.6-8.4z"/><path fill="#b5936d" d="M71 24h9v10h-9z"/><circle r="1" fill="#5e595a" transform="rotate(-105.3 32.7 -3.6) scale(15.20229 31.74465)"/><circle r="1" fill="#bcaa8a" transform="matrix(-.24686 -3.97728 46.62781 -2.89404 223.8 80.4)"/><path fill="#7c6140" d="M179.2 50.6l-52.1 5.3 4 8.8 6.7-4.7z"/><path fill="#494241" d="M17 65l-33-6 48-7z"/><path fill="#524133" d="M160.4 55l8.5 9.3.5-12.6-21.8 1.6z"/><path fill="#62533d" d="M117.1 104.4l30.2-6.7-20.8 2.6-12-7.5z"/><path fill="#735b51" d="M139 126h83v6h-83z"/><path fill="#746b62" d="M40.8 74.9l-43 2.2-.6-12 43-2.2z"/><path fill="#a47b48" d="M123 112l-16 4 7 14z"/><ellipse cx="213" cy="169" fill="#202a39" rx="70" ry="18"/><path fill="#58402c" d="M63 71l7 9-29-10z"/><path fill="#000108" d="M171 159h20v4h-20z"/><ellipse cx="81" cy="158" fill="#191c28" rx="44" ry="5"/><circle r="1" fill="#504d51" transform="matrix(9.35274 -2.0242 4.41338 20.3918 6.6 28.9)"/><path fill="#b4916a" d="M112.6 30.2l-31.8 4.1 28.1.7 14.2 2.5z"/><ellipse cx="13" cy="135" fill="#0d121b" rx="90" ry="3"/><path fill="#bca176" d="M62.4 105.8l-1.5-3.8 4.7-1.8 1.5 3.8z"/><path fill="#564636" d="M99.8 88.4L67.1 93l38.3 11.4-1.5-5.9z"/><path fill="#d9b98b" d="M73.2 84l-9-11.3 56.3 5.4-6.2-17.7z"/><path fill="#e7cc9e" d="M134.9 79.9l36.8-4.3-34.9 16.6 19.8 7.8z"/></g></g></svg>