<svg xmlns="http://www.w3.org/2000/svg" viewBox="0 0 1800 1200"><defs/><filter id="a"><feGaussianBlur stdDeviation="12"/></filter><rect width="100%" height="100%" fill="#5a3c28"/><g filter="url(#a)"><g fill-opacity=".5" transform="translate(3.5 3.5) scale(7.03125)"><circle r="1" fill="#f6fbff" transform="matrix(-204.55372 -28.95503 7.34032 -51.8559 133 26.4)"/><circle r="1" fill="#7b808e" transform="rotate(-88.3 100 -18) scale(31.54749 254.99996)"/><circle r="1" fill="#0b1219" transform="matrix(.16414 -37.78796 207.8474 .90284 142.6 154.7)"/><circle r="1" fill="#ffe4db" transform="matrix(-135.86798 9.2344 -1.63625 -24.07451 168.2 0)"/><circle r="1" fill="#555c6a" transform="matrix(33.58387 -10.71798 19.67982 61.66503 7.1 56)"/><circle r="1" fill="#e2c3b7" transform="matrix(-19.66905 -8.27313 13.97775 -33.23155 164.1 36.3)"/><circle r="1" fill="#726a6a" transform="rotate(-171.3 80 37.7) scale(130.61867 22.44604)"/><circle r="1" fill="#7e7881" transform="rotate(49 8 140.3) scale(31.29272 21.53537)"/><ellipse cx="64" cy="27" fill="#e7d0c8" rx="21" ry="17"/><ellipse cx="168" cy="98" fill="#9c867b" rx="144" ry="7"/><circle r="1" fill="#897d76" transform="matrix(9.12427 7.17638 -6.85612 8.71708 131.8 166.5)"/><ellipse cx="48" cy="84" fill="#454447" rx="104" ry="7"/><path fill="#fff9d7" d="M124.6 14.7L79.4 5.9l4-20.6 45.2 8.8z"/><path fill="#552900" d="M203 78h4v55h-4z"/><ellipse cx="171" cy="54" fill="#bca49d" rx="36" ry="19"/><ellipse cx="119" cy="116" fill="#b45911" rx="2" ry="34"/><circle r="1" fill="#292321" transform="matrix(-10.70459 -20.56332 25.95982 -13.51383 18.3 134.7)"/><circle r="1" fill="#9d939a" transform="matrix(-13.9886 -29.99863 13.06992 -6.0946 32.7 25)"/><ellipse cx="255" cy="57" fill="#858491" rx="35" ry="33"/><path fill="#7d7475" d="M59 123h31v4H59z"/><ellipse cx="95" cy="79" fill="#615f68" rx="249" ry="6"/><path fill="#736a69" d="M170 122l27 3-24 4z"/><circle r="1" fill="#aca2ac" transform="matrix(-2.20875 -10.62743 44.2309 -9.19273 219.9 25.5)"/><circle r="1" fill="#9f9297" transform="matrix(-6.08914 6.23815 -17.50761 -17.08943 134.7 35)"/><ellipse cx="242" cy="118" fill="#232f3c" rx="35" ry="5"/><ellipse cx="47" cy="96" fill="#5a2800" rx="2" ry="22"/><ellipse cx="49" cy="114" fill="#4b4b50" rx="179" ry="4"/><ellipse cx="107" cy="107" fill="#8a746a" rx="58" ry="5"/><path fill="#e5cdc3" d="M183.2-12.7l-6.3 51.5-18.6 1-34.2-48.1z"/><path fill="#a79894" d="M107.8 62.6l-39.6-.1 31.5-36.1-50-42.4z"/><path fill="#525254" d="M248.5 140.5l-16.9-1.6-2.3 14.6-.8-.3z"/><circle r="1" fill="#797882" transform="matrix(15.73808 1.40459 -4.02423 45.09062 8.3 25.6)"/><path fill="#e8d0c4" d="M38 23L92 4 64 31z"/><path fill="#5e626e" d="M43 53l74 27-133-8z"/><path fill="#281d18" d="M129 134.1l26.4 50.9L271 163.2l-103.6-31.7z"/><ellipse cx="31" cy="120" fill="#28211f" rx="56" ry="4"/><circle r="1" fill="#8f8586" transform="matrix(-2.33133 9.78588 -32.99987 -7.86168 229.3 72.3)"/><path fill="#8b7973" d="M158 108h43v6h-43z"/><path fill="#706462" d="M61 131l6-7-19 6z"/><path fill="#747178" d="M101 39h23v38h-23z"/><ellipse cx="33" cy="88" fill="#3b3525" rx="38" ry="2"/><ellipse cx="48" cy="122" fill="#7e4705" rx="2" ry="22"/><circle r="1" fill="#2c201a" transform="rotate(157.2 28.9 84.5) scale(32.93449 25.70379)"/><path fill="#edc9b7" d="M95 19l26-2 29-33z"/><path fill="#4f3c36" d="M117 88l-23-1 28-12z"/><path fill="#582b00" d="M204 75h2v59h-2z"/><path fill="#b8abab" d="M17.4-16l24.9 37.7L82.8 4.1l-33.5 9.2z"/><circle r="1" fill="#a0999f" transform="matrix(38.2087 -11.02095 4.51898 15.66693 218.2 40.5)"/><path fill="#8d4d00" d="M207.6 119.6l-2.2 30.9h-1l2.2-31z"/><path fill="#907d75" d="M48 93h70v11H48z"/><path fill="#fff5d8" d="M104.2 7.2l64.9-16.4-61.5-6.8L85.4 1.5z"/><path fill="#c9b2a8" d="M206.5-16l-50.7 64.6-37.6-3.5L162.5 63z"/><ellipse cx="120" cy="118" fill="#9a5e31" rx="2" ry="27"/><path fill="#ad9b94" d="M137 36h18v36h-18z"/><path fill="#98857d" d="M145 94h37v10h-37z"/><path fill="#c4aea6" d="M138.8 30.2L64.5 9.9l81.4 8.3 53 46.2z"/><path fill="#8b8489" d="M72.6 37.9l34.6 19.6 37.6-16.3-30.7-9z"/><ellipse cx="179" cy="117" fill="#646262" rx="31" ry="1"/><path fill="#564e4e" d="M168 86l23 2 18-13z"/><path fill="#665b56" d="M0 90h43v20H0z"/><ellipse cx="26" cy="142" fill="#4c3e34" rx="21" ry="3"/><path fill="#c0afac" d="M230.7 11.3l1.5 7.9-58.9 11.5-1.5-7.9z"/><path fill="#756d6f" d="M207 92h49v23h-49z"/><circle r="1" fill="#e1ccc3" transform="matrix(-58.68692 9.2951 -.64662 -4.08259 224.5 6.5)"/><circle r="1" fill="#2f2625" transform="matrix(41.70373 1.56482 -.0375 .9993 85.5 113.9)"/><path fill="#948784" d="M178.5 127.6v-3l11-.2v3z"/><circle r="1" fill="#827c7f" transform="matrix(.28167 -5.31442 28.59715 1.5157 167 75.5)"/><path fill="#211717" d="M4 111h30v2H4z"/><path fill="#29211f" d="M235.1 116.6l-17.5-2.7-.1 34.1 33.9-11.7z"/><circle r="1" fill="#554d47" transform="matrix(.68617 1.5923 -36.43695 15.70173 107.7 169)"/><path fill="#5f5c5b" d="M228 145.4l17.1-5.6 1 2.8-17.2 5.6z"/><path fill="#c1b0ad" d="M46.3 29.5l7.4 17.9 22.4-.1 9.7-16z"/><path fill="#2d211b" d="M109 113h10v35h-10z"/><path fill="#585555" d="M11 121h27v2H11z"/><path fill="#302522" d="M121 118h55v20h-55z"/><path fill="#554947" d="M136 106h36v2h-36z"/><path fill="#4f4d53" d="M246 107h10v15h-10z"/><path fill="#464344" d="M41.5 75.5l25 8.4-62.6 6.5 37.9-12.9z"/><path fill="#dcc7bd" d="M52.3 10.1L28.5 5.3 43.3-6.2l45.2 32.9z"/><path fill="#7f797b" d="M73.4 60.5L20.7 43.4l10-31.3-38.6 44.2z"/><path fill="#4d4341" d="M121 111h38v7h-38z"/><path fill="#585557" d="M218.4 79.9l-12.9 5.8-25.8 2.8 64.9.2z"/><path fill="#a69592" d="M65 59l9-15 34 12z"/><ellipse cx="119" cy="108" fill="#905120" rx="2" ry="30"/><path fill="#534c48" d="M124 125h30v2h-30z"/><path fill="#4e463f" d="M174 152h27v2h-27z"/><path fill="#66676d" d="M55.1 76.9l-10-.7 42.6 10.7 50.2-18z"/><path fill="#98949d" d="M67 11l14-9-16 2z"/><path fill="#a89d9d" d="M40.1 27.6l13.5 11.2-33.1-6.6 29.9-18.7z"/><path fill="#595658" d="M0 114h72v3H0z"/><path fill="#776861" d="M127 159h10v11h-10z"/><circle r="1" fill="#2d211a" transform="rotate(-93.9 96.9 67.7) scale(25.00524 56.2062)"/><circle r="1" fill="#716858" transform="matrix(31.10087 1.18318 -.03802 .99928 69.4 90.7)"/><path fill="#565b69" d="M55.1 73l-27.2 9.1-43.9 9.4 35.5-32.8z"/><path fill="#602f00" d="M46 78h2v30h-2z"/><path fill="#2e2623" d="M203.9 160.7l-17.6-40.4-41.4 8.7 58.8-9.5z"/><path fill="#7f7b81" d="M136 70L94 44l46 13z"/><path fill="#e9d4cb" d="M144.2 3.3L178 8.9l8.4-6.8-71.5-12.5z"/><path fill="#251b18" d="M0 118h119v3H0z"/><path fill="#9c9295" d="M127 22l-42-3 64 25z"/></g></g></svg>