<svg xmlns="http://www.w3.org/2000/svg" viewBox="0 0 1200 1800"><defs/><filter id="a"><feGaussianBlur stdDeviation="12"/></filter><rect width="100%" height="100%" fill="#284f4c"/><g filter="url(#a)"><g fill-opacity=".5" transform="translate(3.5 3.5) scale(7.03125)"><circle r="1" fill="#c3998b" transform="matrix(-38.38574 -164.58291 117.57805 -27.42278 117.9 62.8)"/><ellipse cx="92" cy="4" fill="#e2e2e9" rx="97" ry="28"/><circle r="1" fill="#55473d" transform="matrix(128.8409 40.87074 -24.25183 76.45144 74.2 206.4)"/><circle r="1" fill="#bab7c5" transform="matrix(49.5412 -12.99689 1.67775 6.3952 78.3 246)"/><ellipse cy="211" fill="#0e0501" rx="50" ry="34"/><circle r="1" fill="#001a31" transform="matrix(-17.2911 -23.712 9.5255 -6.94612 70.7 71)"/><path fill="#262c12" d="M1 47h23v63H1z"/><circle r="1" fill="#d9d4d8" transform="matrix(-12.44324 5.9051 -2.90677 -6.12515 26.8 162.4)"/><path fill="#afbb9c" d="M82.9 220.7l-5.4-30.5 27.6-4.9 5.4 30.5z"/><circle r="1" fill="#ababa9" transform="matrix(14.45385 5.63702 -15.86586 40.68153 109.6 51.7)"/><path fill="#000c0e" d="M43.8 188.1l94.6-22.2 5.5 10.7-101.8 23.1z"/><path fill="#8e765e" d="M132 6h38v161h-38z"/><path fill="#aab59d" d="M42.5 181.7l57-35.9-52.4 11.1 58 12.5z"/><path fill="#b7c5c1" d="M28.4 63.4l5.7 29L60 79 39 64.8z"/><path fill="#b3aca8" d="M-7 123l58-16-28 26z"/><path fill="#d6e1ef" d="M-7.3-21.5l19.7-11.9 33 55-19.8 11.8z"/><circle r="1" fill="#1b110f" transform="matrix(-4.96167 -17.38398 54.9993 -15.69769 156.5 252)"/><path fill="#6d695d" d="M127 233l-48-24-36 39z"/><circle r="1" fill="#182423" transform="matrix(.55101 4.24297 -35.35701 4.59165 76.2 119.5)"/><circle r="1" fill="#7b818a" transform="matrix(1.65253 16.34127 -42.28354 4.27597 75.1 33)"/><path fill="#d5d9da" d="M85 19L19-16 185-6z"/><path fill="#000d11" d="M124.2 177.7l31 44.3-3.4 2.3-31-44.3z"/><circle r="1" fill="#09191b" transform="matrix(.9339 4.96647 -27.62141 5.19395 67 145.2)"/><path fill="#0b090e" d="M0 151h15v56H0z"/><path fill="#710506" d="M22.3 62.7L19.8 45l11.9-1.6L34.2 61z"/><path fill="#282d25" d="M108.1 204.1l-.8 11.4-2.3 7.2 53.4-.1z"/><path fill="#a8ac93" d="M153.3 215.3l31.7 1-5.6-8.3-24.4-10.9z"/><circle r="1" fill="#d0d3e3" transform="rotate(168.1 22.2 127.7) scale(47.56468 2.00349)"/><path fill="#9b9f85" d="M40.3 134.5l79.3-16.8 2 9.8-79.2 16.8z"/><path fill="#f7ffff" d="M32.4 84.3L30 90.8l-8.4-3 2.4-6.6z"/><path fill="#39423e" d="M34 112l47-27 26 14z"/><path fill="#2d2e1d" d="M185 210.2l-41.6-21.6 16.9-5.5 7.1-23.8z"/><circle r="1" fill="#7a7875" transform="rotate(-87.7 50 -47.7) scale(18.77386 3.77939)"/><path fill="#16231e" d="M93 146l14.4-13.9 7.6 8-14.4 13.8z"/><circle r="1" fill="#95967d" transform="rotate(-12.4 753.7 -335.6) scale(61.22925 4.48279)"/><path fill="#eaeff2" d="M32 107h7v11h-7z"/><path fill="#5f6162" d="M161 222l-35-3-32 40z"/><path fill="#2a2930" d="M39.1 112.7L20.9 85.2l-25.7 21.7 57.3-4.9z"/><path fill="#7b6b5b" d="M143.9 50.1l9.5 142.8-38.5-128.1-24.3-13.6z"/><path fill="#8d8e8a" d="M-16-11.7l43.2 72.5-26-18.6 35.9-10.7z"/><path fill="#f6feea" d="M78.6 109l.2 1-35.4 7-.2-1z"/><path fill="#dde6d6" d="M39.5 100l34.9-3v1l-34.8 3z"/><path fill="#2e495f" d="M53 73l19-39-27 11z"/><path fill="#3c2d2e" d="M22.2 136L8.7 123.3-16 162.9l52.4-20.3z"/><circle r="1" fill="#6087b5" transform="matrix(-1.30815 2.5674 -31.28274 -15.93935 65.2 48.6)"/><ellipse cx="169" cy="18" fill="#b6baba" rx="18" ry="12"/><ellipse cx="11" cy="21" rx="5" ry="3"/><path fill="#6d6a68" d="M127.5 41.5L145.6 52l9.6-48.1-9.7 3.1z"/><circle r="1" fill="#49453b" transform="rotate(118.6 -44.2 126.2) scale(29.54101 24.13186)"/><path fill="#999b9a" d="M11 180.2l41.5-1.4 52.9-9.6-73.8 4.7z"/><path fill="#2c3b46" d="M46.9 63.8l2.2-20.3L89.5 65l-7 30.3z"/><circle r="1" fill="#a79992" transform="rotate(44.7 -134 68.8) scale(19.22352 2.32127)"/><path fill="#f6fcff" d="M84.6 3.2L91 15.6l-9.7 5.2L75 8.4z"/><path fill="#cac5be" d="M110.3 80.3l-3.5 17.9.7-6.8-19-19.1z"/><path fill="#1c2524" d="M87.7 134.6l19.5 20.1 37.5 55.3-52.2-66.8z"/><path fill="#717b89" d="M68 40l46-32-24 57z"/><path fill="#344d63" d="M26 122h15v25H26z"/><circle r="1" fill="#a29b8f" transform="rotate(29.3 -19.3 255.7) scale(60.38154 5.4211)"/><path fill="#8e9197" d="M38.6 147.4l3.2 19.1-27.6.9 1.9-17.9z"/><path fill="#223951" d="M41 151h5v44h-5z"/><path d="M2 208l-2.1-9.8L38 190l2.1 9.7z"/><circle cx="22" cy="132" r="4" fill="#c2e5ff"/><path fill="#b5b78f" d="M74 105h28v6H74z"/><path fill="#ab9a88" d="M185 106.3l-59.1-38.7 26.3 10.3 24.3 2.7z"/><circle cx="165" cy="145" r="14" fill="#6c5438"/><path fill="#bfc8d4" d="M29.7 10.9L-1.2 21.7 19.8-3l12.5 58z"/><path fill="#6c5843" d="M139 17l-1.2-2.7L169 1l1.1 2.7z"/><path fill="#cecec5" d="M111 43l35-50-31 12z"/><path fill="#8d8072" d="M136 124l25 61-64-66z"/><path fill="#d7d9e9" d="M47.6 253.4l69.9-16-23 2-27.2 12.4z"/><path fill="#2d445b" d="M110.5 54.1l-7 3.5-40.7-18.2 29.4 10z"/><path fill="#393f35" d="M-9.7 179.9l15.8-5.3 125.4-21.5-6.7 6.3z"/><path fill="#0d1210" d="M123 178l9-17 14 12z"/><path fill="#5a5d5f" d="M132.1 234.3l-75.6 20.4 45.4 13.6 16.2-47.6z"/><path fill="#7f6364" d="M41 5v10L65 4z"/><path fill="#b3bac1" d="M61 45h36v3H61z"/><path fill="#686c67" d="M87 241.3l55.6-18-90.3 12.2L-16 271z"/><path fill="#0a0c0c" d="M159 165h11v6h-11z"/><path fill="#dbe2e4" d="M31 76h23v4H31z"/><path fill="#252f38" d="M0 180h67v14H0z"/><path fill="#fffcfc" d="M86 271l18-10-1-11z"/><path fill="#a59fa0" d="M3.8 84l-17.9 29.6H2.4L-16 28.9z"/><path fill="#4b4742" d="M124.1 101.8l-73.7 6.4-.5-6 73.7-6.4z"/><path fill="#d8dada" d="M63.7-16l-18.9.8L16 35.3l-4.7-3z"/><path fill="#364515" d="M11 56l5 27 15-3z"/><path fill="#c8c8c6" d="M105.9 168.7l-53.6 10.5 11-4.2 31-5.5z"/><path fill="#8f947c" d="M67 192h45v15H67z"/><path fill="#a9403e" d="M36.4 55.6L15.6 36.9l4-4.5 20.8 18.7z"/><path fill="#323934" d="M111.9 110.4l-24.1 2.3-.9 19.2-10-5.8z"/><path fill="#27343b" d="M87.6 42.5l-.2-4 21-1 .2 4z"/><path fill="#686059" d="M105.7 75.1l2-35-9.8 33.7 9.2 8.8z"/><path fill="#9f9791" d="M29 111l3-6-21-1z"/><path fill="#9b9286" d="M162 166.9l20.2-9.7h2.8l-48.4 6.5z"/><path fill="#242627" d="M16.4 71.1l-2.6 43.4L-16 82.3l40.7 20.3z"/><path fill="#69635c" d="M139 37h31v23h-31z"/><path fill="#d2d6dc" d="M105.5 238.2l1.2-.2 4.1-4.4 1.7 11z"/><circle r="1" fill="#9e7e56" transform="matrix(7.5206 -25.06519 12.3248 3.69795 164.4 110)"/><path fill="#e5ebe7" d="M81.1 50.2L93.4 57l-.5.8L80.6 51z"/><path fill="#dfe4e5" d="M90.9.3L54.8 20.7l2.7.3 3.1-11.9z"/><path fill="#9b9089" d="M-1.8 46l105.3-24.6-89.4 2.5L62.8 40z"/></g></g></svg>