<svg xmlns="http://www.w3.org/2000/svg" viewBox="0 0 1200 1800"><defs/><filter id="a"><feGaussianBlur stdDeviation="12"/></filter><rect width="100%" height="100%" fill="#4f3d2a"/><g filter="url(#a)"><g fill-opacity=".5" transform="translate(3.5 3.5) scale(7.03125)"><circle r="1" fill="#bdd4ea" transform="rotate(44.5 -195.3 231.3) scale(100.05987 51.95906)"/><circle r="1" fill="#63808c" transform="matrix(148.85364 -80.02247 24.58221 45.72655 39 56.2)"/><circle r="1" fill="#0e3d46" transform="matrix(-62.89448 -40.70805 26.49298 -40.93201 113.7 90.7)"/><circle r="1" fill="#636d72" transform="matrix(-58.07364 -63.59875 34.12035 -31.15616 44 223.4)"/><path fill="#d7e8f6" d="M78.4 158.2l-45-7.7 22.8-23.9 25.2-5.2z"/><path fill="#93a3b1" d="M140 271H3l13-46z"/><path fill="#8f8c83" d="M59 106L-4-16l-10 144z"/><path fill="#8c8c8c" d="M13 13h157v24H13z"/><ellipse cx="111" cy="185" fill="#afb0b0" rx="37" ry="33"/><ellipse cx="141" cy="111" fill="#3e595c" rx="136" ry="19"/><ellipse cx="81" cy="67" fill="#2f362c" rx="35" ry="47"/><circle r="1" fill="#5b5b61" transform="matrix(9.95147 36.37644 -31.683 8.66749 146 254.9)"/><ellipse cx="47" cy="3" fill="#121c14" rx="42" ry="9"/><path fill="#334f59" d="M185 218L156 85l-52 32z"/><path fill="#b7c1d5" d="M157 219.5l-20.8-14 12.9-19 20.7 14z"/><path fill="#4f4b3d" d="M8 99l42 79-6 93z"/><ellipse cx="62" cy="235" fill="#353025" rx="28" ry="7"/><path fill="#1e373d" d="M144 16l-41 91 82-37z"/><circle r="1" fill="#203033" transform="matrix(28.82444 -8.1565 2.32953 8.2324 52.8 119)"/><circle r="1" fill="#bdc8d2" transform="matrix(-18.4195 20.0766 -8.35959 -7.6696 58.1 143.5)"/><path fill="#bcc3c5" d="M68 12L51 9l22 20z"/><path fill="#a2b0be" d="M5.4 241l24.2-14 7 12-24.2 14z"/><path fill="#121b22" d="M-3 271l21-49-34-7z"/><circle r="1" fill="#8d8c8d" transform="matrix(24.52991 -9.0387 6.99726 18.98971 61.9 199.3)"/><circle r="1" fill="#09201d" transform="rotate(-152.1 64.7 55.9) scale(10.37575 4.2333)"/><path fill="#717486" d="M181.4 169.2l-8.9 32.4-20.4-14.7 26.8-31.6z"/><ellipse cx="40" cy="43" fill="#0d120e" rx="20" ry="4"/><path fill="#222f28" d="M165.4 97.9L30 54.6l3.6 9.8 24.3 25.9z"/><path fill="#aba49d" d="M113 8h24v15h-24z"/><path fill="#1f2326" d="M144.4 170.1l13.6 19.5 2.3-84.6 24.7 41.9z"/><path fill="#3c312b" d="M97.8 240.3l-2.6-26.1-13.2-7.4 26.8 38.9z"/><path fill="#d2cfc3" d="M-8 106l21 21-17-48z"/><path fill="#808485" d="M43 138.5L8.7 119.2 2 133.7 59.4 158z"/><circle r="1" fill="#dfedf8" transform="rotate(178.6 32 73) scale(14.0568 8.80487)"/><path fill="#55595f" d="M56.7 163.9l19.9-13.8-39.7 53.3 5.4-27.3z"/><path fill="#404248" d="M147 213l37 38-20 5z"/><path fill="#abadaa" d="M33 45L23 65l23-20z"/><path fill="#45402f" d="M0 155l39 82-14-121z"/><path fill="#a8a4a2" d="M177.1 6.1l-35.9 16.2 37.5.6L185-16z"/><path d="M15 117l-5-14-5 5z"/><path fill="#9ca1a3" d="M32 64l16 50 1-28z"/><path fill="#b0a69a" d="M24.7 79.9l-5.6 29.2 14-6.7L11.3 73z"/><circle cx="38" cy="139" r="9" fill="#aebac4"/><circle r="1" fill="#515b5a" transform="matrix(18.78777 -20.2193 8.55358 7.94798 98.3 42.1)"/><path fill="#878c8b" d="M72 36.1L0 24.7 2 12l72 11.4z"/><path fill="#b7bdc5" d="M57 237l-1 24 9-20z"/><path fill="#3f4548" d="M55.7 117.7l-9.3-22.8-12.4 6.5L31.9 72z"/><path fill="#b4b8bc" d="M63.3 194.7l21.5-29.8 21.2 3.7-59 14.5z"/><path fill="#55504c" d="M31.3 148.7l72.1 84 5.9-.1-4-4.1z"/><path fill="#5f5b54" d="M82 189h16v9H82z"/><path fill="#463b2c" d="M-2.6-16.4L19.6 124l-3 .5L-5.6-16z"/><path fill="#bfc2bd" d="M12 103L9 87l-15-2z"/><path fill="#c1c2c0" d="M89 141h11v21H89z"/><path fill="#496672" d="M132.4 125.1l24.4-22.6-11.4-16.6 39.6 17.8z"/><circle r="1" fill="#a7997e" transform="matrix(1.35122 -.19469 14.374 99.76338 8.6 38.9)"/><path fill="#221d1b" d="M22.6 112l2.5 32.8 6.3-14.6 27.6-4z"/><path fill="#2a3126" d="M14.3-6.4l43.1 16.6-17.9 7.5L3.1-16z"/><path fill="#433525" d="M105 169h10v5h-10z"/><path fill="#97a4b2" d="M27 228l-30 10 36-1z"/><path fill="#6e6258" d="M78 132h8v33h-8z"/><path fill="#41424e" d="M159 207h11v8h-11z"/><path fill="#0b0905" d="M102.3 230L75 200.7l.7-.7 27.3 29.3z"/><circle r="1" fill="#2e2d23" transform="matrix(17.33514 14.979 -3.218 3.72419 88.2 0)"/><path fill="#415259" d="M103 36h67v17h-67z"/><path fill="#a49c97" d="M72.3 25.6L90.1 9.2l23.7 11.9-63.5-6.5z"/><path fill="#a4acae" d="M22.3 65.7l-3.6-9.9 30 31.2-7.6-18.3z"/><path fill="#272523" d="M5.2 176l.6 33.9-11 .2-.6-34z"/><ellipse cx="61" cy="131" fill="#939ea5" rx="22" ry="4"/><path fill="#232728" d="M89.4 27l-30.2 2.6 32.6-9 9.6 7.4z"/><path fill="#1d1e1c" d="M60 233.5l27.3 8.8-29.2-3-12.6-5.4z"/><path fill="#abb9c9" d="M152.9 196.7l-20.3-37.4 5.4 1.7 36 54.3z"/><path fill="#4c4e4c" d="M78.8 76.4L34.6 63.7 7.6 14l12.3 27.1z"/><path fill="#b5b5b5" d="M99.8 224l11.4 7.4 26.1-42.5 1.5 7.6z"/><path fill="#6b645f" d="M116.4 241.4L57.8 222l-11.7-25.1 5.7 32.4z"/><path fill="#342c0d" d="M43.2 242.5l-3.7 6.2-18.7-93.1 8.8 25.8z"/><path fill="#3c3b3f" d="M149.9 212.7l-16 12.2 22.6-21.7-1.1 1.9z"/><path fill="#8c8d91" d="M36.4 170.6l-5.7-3.4-3.4-13.4 3.6-9.3z"/><circle r="1" fill="#223b3c" transform="matrix(13.2751 5.19379 -2.25157 5.75492 128.2 146.7)"/><path fill="#395751" d="M53 97h88v25H53z"/><path fill="#242523" d="M34.9 223.3l-24.8 10.4-20.3-10.7-5.8 4.5z"/><circle r="1" fill="#423f35" transform="matrix(11.86827 3.11857 -.48293 1.83787 24.1 32)"/><path fill="#272423" d="M92 163h13v2H92z"/><path fill="#14161a" d="M6.4 139l3 21.8-15.8 2.2-3-21.8z"/><ellipse cx="132" cy="255" fill="#7d7e82" rx="28" ry="30"/><ellipse cx="16" cy="166" fill="#5f5c57" rx="7" ry="37"/><path fill="#110905" d="M185 111l-31 8 31 16z"/><circle r="1" fill="#223230" transform="rotate(85.1 22.5 104.1) scale(18.07432 61.55768)"/><path fill="#9c9691" d="M91.2 219.6l-31.8 4.2-4.1-6.9 52 20.8z"/><path fill="#9a9285" d="M20 99l4-31 8 51z"/><path fill="#6b6d71" d="M146.4 32.3L127.5-1.9l43.1 35.7L185 47.4z"/><path fill="#a9b4bd" d="M108 142l-2 28 22-16z"/><path fill="#706964" d="M109.2 188.5l-1 2.1L84.3 271l15.3-75.4z"/><path fill="#6c747d" d="M137 163l-10-6-18 20z"/><path fill="#393738" d="M147.7-.6l37.3-.9-31.9 18.2 10.1-21.2z"/><path fill="#b0b3b2" d="M145 214l-65-48 56 19z"/><path fill="#808689" d="M25.8 223.3l-8.7 2-3-12.6 8.8-2z"/><circle r="1" fill="#2d2f28" transform="matrix(-16.95623 -7.72353 1.877 -4.12077 65 6)"/><path fill="#888b90" d="M33.7 186.2l-4.5-56.3 4.9 46.2 46.6 25z"/><path fill="#848b8d" d="M35 48.5l8.2-4.1 8.9 18.1 3.4 4.9z"/><path fill="#435d61" d="M83.5 117.2l40.1-13 48.5 5.5-48 21.1z"/></g></g></svg>