<svg xmlns="http://www.w3.org/2000/svg" viewBox="0 0 1800 1012"><defs/><filter id="a"><feGaussianBlur stdDeviation="12"/></filter><rect width="100%" height="100%" fill="#273d5b"/><g filter="url(#a)"><g fill-opacity=".5" transform="translate(3.5 3.5) scale(7.03125)"><path fill="#b0c3e2" d="M255.3 85L.4 94-3.3-13l254.9-9z"/><ellipse cx="126" cy="87" fill="#442b06" rx="55" ry="14"/><circle cx="237" cy="47" r="50" fill="#6b83a4"/><ellipse cx="82" cy="124" fill="#364f67" rx="148" ry="36"/><ellipse cx="69" cy="26" fill="#748eb3" rx="119" ry="48"/><path fill="#6a7f9d" d="M176 90l81-106 2 111z"/><ellipse cx="21" cy="93" fill="#8aa0c9" rx="27" ry="3"/><path fill="#4a3e34" d="M114 71l-89 29 185-6z"/><path fill="#434233" d="M175.9 76.4l-22.5.5 7.7 22.5 15.8.5z"/><path fill="#3e312b" d="M124 92h100v6H124z"/><path fill="#687fa0" d="M186 0h70v91h-70z"/><circle r="1" fill="#3b402b" transform="matrix(.59115 -4.05216 11.88286 1.73352 127.2 75.5)"/><path fill="#655d56" d="M134.7 75.9l-24.8 23.4 36.4-7.4 4-10.6z"/><path fill="#a6a8b3" d="M113.9 58.3l10.1-3.4 14.5-.7-1 12.4z"/><path fill="#25262d" d="M85 84h23v11H85z"/><circle r="1" fill="#7385a1" transform="matrix(-7.13524 -15.4795 29.09485 -13.4112 166.6 57.6)"/><path fill="#3a557b" d="M-6 142l29 16 75-39z"/><ellipse cx="175" cy="99" fill="#3b5571" rx="170" ry="2"/><ellipse cx="171" cy="142" fill="#1c354c" rx="56" ry="7"/><path fill="#737a89" d="M55.7 83l30.9 8.2L80 73.8 52 96.1z"/><path fill="#242021" d="M61 90h17v7H61z"/><path fill="#010711" d="M124 96h21v3h-21z"/><ellipse cx="199" cy="111" fill="#1f394d" rx="47" ry="5"/><path fill="#6c84a8" d="M0 71h47v24H0z"/><path fill="#344f6f" d="M-15 142l61-48-62 1z"/><path fill="#152e45" d="M18 125l36-2-30 10z"/><ellipse cx="237" cy="121" fill="#2f4968" rx="215" ry="8"/><circle r="1" fill="#7285a2" transform="rotate(-99.4 65.9 -1.2) scale(17.69791 23.09947)"/><path fill="#233c55" d="M147.2 136.2l46.5-9.9-28.3-13.2-21.9.4z"/><ellipse cx="242" cy="73" fill="#697d9b" rx="39" ry="22"/><path fill="#564f44" d="M167.6 73.3l-15.7 19.2 76.8-1.5-41 7.8z"/><path fill="#836e56" d="M121 80l21 5 5-6z"/><path fill="#5b543f" d="M61.5 89.1l43.1-16.4-3.5 10.1-.4 2.1z"/><ellipse cx="75" cy="123" fill="#3d587d" rx="12" ry="8"/><path fill="#6b84a7" d="M224.5 30.6l-64 19.6-15-48.8 64-19.6z"/><path fill="#1a1b27" d="M110 81l17 1-11 3z"/><path fill="#242529" d="M70.4 99l13.5-5.1 6.5-8.9 6.3 10.9z"/><ellipse cx="61" cy="137" fill="#1b354e" rx="28" ry="2"/><ellipse cx="217" cy="97" fill="#312d29" rx="23" ry="2"/><path fill="#6b7f9d" d="M180 87l17-52 71 58z"/><path fill="#484626" d="M154 77h21v8h-21z"/><path fill="#394f65" d="M222 95h34v9h-34z"/><path fill="#213d57" d="M74.1 103.9l90.7 3-54.6 4.8-54.4 6.1z"/><path fill="#4d5f7c" d="M160.4 134.5l-38.7 4-.1-1 38.7-4z"/><path fill="#3a5271" d="M188 132h55v5h-55z"/><path fill="#7384a2" d="M126.7 51.1l50 25.1-45.4-1.7 89-24.1z"/><path fill="#435a71" d="M183.8 97.4l-.4 2.6 35.7 6.6-4-5.5z"/><ellipse cx="73" cy="32" fill="#728aad" rx="66" ry="26"/><path fill="#7284a4" d="M93.3 67.1L55.2 93.9 39.3 64.7l-2-19.3z"/><ellipse cx="27" cy="1" fill="#637eab" rx="126" ry="5"/><circle r="1" fill="#4a4b32" transform="matrix(-21.75998 -5.55266 .38547 -1.5106 140.6 77.4)"/><path fill="#365073" d="M73 141h105v2H73z"/><path fill="#2b2b2e" d="M216.3 90l8 9.1-23.7-1.3 29.3-.6z"/><path fill="#716b66" d="M79.3 87.2l5.4 4.9-7.4 2.5-2.2-13z"/><path fill="#1f364c" d="M203 111h23v9h-23z"/><path fill="#617b9e" d="M238.8 25.4l22.3 93.5-5-134.9-53.4 2.9z"/><ellipse cx="159" cy="92" fill="#4c474b" rx="54" ry="2"/><path fill="#10293b" d="M168 133l10 4-26 1z"/><circle r="1" fill="#53453d" transform="matrix(-3.91593 -.21156 .22719 -4.20525 50.3 93)"/><path fill="#3b5679" d="M19 131h18v11H19z"/><path fill="#6c81a0" d="M120 56l-54 9 50 7z"/><path fill="#38393c" d="M146.7 74.2l7.4 14.7-26-2.4 39.2 12.9z"/><ellipse cx="24" cy="91" fill="#6980a4" rx="24" ry="4"/><path fill="#2c4866" d="M8 99h116v11H8z"/><path fill="#7183a1" d="M134.4 76.3l69.2-58.6-55.7 59.4L119 60.8z"/><path fill="#1b2024" d="M181.1 97l-17.8 2.9-.4-3 17.8-2.8z"/><path fill="#334d6d" d="M128.5 120l33.8-3.3-27.4 16.5-74.8-10.7z"/><path fill="#6a80a1" d="M155 60l35 30 23-4z"/><path fill="#37392f" d="M136 77l-31 1 15-7z"/><path fill="#70829f" d="M130.1 46.5l83.4 28.1-105.8-6.3 56.7 9.8z"/><ellipse cx="130" cy="89" fill="#96989b" rx="3" ry="1"/><path fill="#1b3243" d="M271 134h-34l34 20z"/><path fill="#132d40" d="M188 139h30v4h-30z"/><path fill="#262b34" d="M135 100.2l-16.3-9.7.2-7.7 7.2 11.1z"/><path fill="#b1b4c0" d="M127 56h6v6h-6z"/><path fill="#6d6051" d="M113 77l41 4-24 4z"/><path fill="#364f6d" d="M170 117l36-4 17 15z"/><path fill="#272527" d="M78.5 94.5v3h-33v-3z"/><path fill="#233a55" d="M113.8 134.5l5 10.2 19.7-8.9 46.6-11.5z"/><path fill="#42556f" d="M146.8 135l-11.6-4.7-2.2 8.1 30.8-2.6z"/><path fill="#685d59" d="M82 98h37v1H82z"/><path fill="#7588a7" d="M68.3 48.6l-52.8-5L47.8 97l-15.3-4.4z"/><path fill="#503f31" d="M197 90h9v2h-9z"/><path fill="#677c9b" d="M177 82l81-15-46 24z"/><circle cx="173" cy="57" r="4" fill="#9198ac"/><path fill="#173146" d="M59 112h21v4H59z"/><path fill="#49515c" d="M127 106.6l-.4 1L91 89.3l.4-1z"/><path fill="#413d3d" d="M142.9 90.1l-7 .8-11.3 2.3 21.9-10.5z"/><path fill="#365173" d="M11.5 122.8l73.5-5.3-44.6 4.6-27.1 5z"/><path fill="#695e50" d="M165.3 79.6l14.4 9-1 1.8-14.4-9z"/><circle cx="135" cy="93" r="2" fill="#7c7b7c"/><path fill="#213b53" d="M82 118.5l34.6-4.8-12.9-.1 3.5 6.4z"/><ellipse cx="208" cy="26" fill="#7387a5" rx="50" ry="3"/><path fill="#8e868a" d="M122.3 93.4l.6.8-3.2 2.4-.6-.8z"/><path fill="#695d59" d="M143 85l-5 7 17-7z"/><ellipse cx="13" cy="17" fill="#6d86ae" rx="78" ry="14"/><path fill="#7c89a2" d="M154.6 65.6l-4.4 16.3 9.5-13.4-60.1-8.1z"/><path fill="#58514f" d="M103 90h23v2h-23z"/><circle r="1" fill="#292728" transform="matrix(2.8902 .56703 -.6941 3.53782 220 95)"/><path fill="#314b6a" d="M57.9 124.9l.9-29.6 22.8 8.9-97.6 6.5z"/></g></g></svg>