<svg xmlns="http://www.w3.org/2000/svg" viewBox="0 0 1800 1200"><defs/><filter id="a"><feGaussianBlur stdDeviation="12"/></filter><rect width="100%" height="100%" fill="#412e28"/><g filter="url(#a)"><g fill-opacity=".5" transform="translate(3.5 3.5) scale(7.03125)"><path fill="#e1ffff" d="M232.4 46.4l-7.2 102.8-137.6-9.6 7.2-102.8z"/><path fill="#fff" d="M58 47h167v20H58z"/><circle r="1" fill="#586d7d" transform="matrix(1.64786 -48.73274 133.08992 4.50033 100.6 0)"/><circle r="1" fill="#a8d7ff" transform="matrix(-9.89019 37.36602 -57.88536 -15.32133 170 86.2)"/><ellipse cx="90" cy="129" fill="#342538" rx="29" ry="72"/><circle r="1" fill="#525c73" transform="matrix(-8.06594 24.60104 -54.4405 -17.84941 168.2 152)"/><circle r="1" fill="#a0cbff" transform="rotate(44.6 -62.6 319.9) scale(16.73957 26.78083)"/><path fill="#657689" d="M46 57l29-25-28 108z"/><path fill="#89acdc" d="M107 75h122v46H107z"/><path fill="#f9ffff" d="M72 48h87v12H72z"/><path fill="#250500" d="M148.6 142.1l-7.8 8.8-35.4-12.9 23.3-12.4z"/><path fill="#03051e" d="M157.8 121.4l-10.8 5.7 35.3 1.2-4.1 24.4z"/><ellipse cx="83" cy="82" fill="#1a1819" rx="20" ry="23"/><path fill="#3f3d3e" d="M226.5 132.4l2.3-74.4-53-40.9 65.3-15.6z"/><circle r="1" fill="#260a00" transform="matrix(7.19206 -58.04179 30.26046 3.74962 0 93.5)"/><path fill="#53575f" d="M237 45L31 44l63-60z"/><path fill="#ecf1f6" d="M103 46h111v22H103z"/><circle r="1" fill="#513d4d" transform="matrix(-11.708 -26.9819 36.68352 -15.91773 71 151.5)"/><path fill="#aacbf4" d="M113.7 116.8l30.2 14.3 18.9 9.6L116 90.6z"/><path fill="#211507" d="M229.1 61.7l1.8-100 30 .6-1.8 100z"/><path fill="#a9d3fd" d="M56 65h4v27h-4z"/><path fill="#37475a" d="M43 43l35 4-16 15z"/><path fill="#63625f" d="M142 148h84v20h-84z"/><path fill="#a6cbf7" d="M165.1 141.3L142 127.2l-20.9-10.1 47.9 16.8z"/><path fill="#aba0b8" d="M81 117l22-3 16 14z"/><path fill="#625553" d="M117 75L96 58l-12 72z"/><path fill="#171215" d="M94.8 58.9L77.7 116l-22.4-8.3L63 75.8z"/><path fill="#292b40" d="M182.6 140.7l-40-21.1 35.7 6.6L157 155z"/><ellipse cx="125" cy="39" fill="#595d65" rx="88" ry="8"/><path fill="#d1e7ff" d="M226.9 87.8l-.2-30.4L208 46.1l2 9.5z"/><path fill="#e2f8ff" d="M80.5 46.1L95.4 55l-30.6 8.6 20.1-21.5z"/><path fill="#64768b" d="M220.7 9L152 15l-.7-8L220 1z"/><circle r="1" fill="#2a2017" transform="matrix(.3952 2.82476 -32.96784 4.61239 152.6 20.2)"/><circle r="1" fill="#a3c3e6" transform="matrix(-1.11876 14.53952 -17.57207 -1.3521 204.8 135.8)"/><path fill="#5e5055" d="M22 109l28 31 53 4z"/><path fill="#665876" d="M53.6 142.6l-13.2 8.6L20.3 185l-4.1-18.1z"/><path fill="#58595c" d="M233 61l-5-45-26 16z"/><path fill="#6e849f" d="M37 32.8l-.5-4L160.9 9.3l.6 4z"/><path fill="#584546" d="M69.4 88.8l40.4 34.4 94.2 35.6-87.2-37.1z"/><circle r="1" fill="#0b0004" transform="matrix(-2.48634 5.50663 -18.7063 -8.44622 124.3 169)"/><ellipse cx="106" cy="81" fill="#999c9e" rx="9" ry="6"/><path fill="#2f1f19" d="M46 76.2L11.9 36.6l4.3-5 32.4 8z"/><circle r="1" fill="#322317" transform="matrix(-15.01794 -2.45928 27.25355 -166.42753 255.1 91.8)"/><path fill="#3a2828" d="M111.2 128.4l19.8 5.8 22.3 16.5-24.4 12.8z"/><path fill="#463131" d="M84 89h19v26H84z"/><path fill="#314e6e" d="M191 134.1L178 123l4.6 24.3-7.9.6z"/><path fill="#271e14" d="M242.6 8.8l.4 4-79.6 8.4-.4-4z"/><path fill="#786268" d="M130.9 147l-14.7-5.7-3.3-.2-4.1 11.7z"/><ellipse cx="22" cy="139" fill="#321811" rx="19" ry="17"/><ellipse cx="182" cy="41" fill="#697a8b" rx="39" ry="3"/><ellipse cx="173" cy="56" fill="#dfe9ee" rx="53" ry="11"/><path fill="#95b4d7" d="M228 144l-5-72-45 51z"/><path fill="#6b6667" d="M120.4 128.2l17.1-5.5 16.1 39.4 25.2-9.2z"/><path fill="#a39389" d="M103 122l16-31h-11z"/><circle r="1" fill="#5b5a5a" transform="rotate(93.9 -20.6 55.1) scale(54.37612 1.4312)"/><path fill="#2e1d23" d="M73.9 161.5l6.8-22.9L97.8 156l2.4 22z"/><path fill="#a7bfdf" d="M111 66h115v14H111z"/><path fill="#17111a" d="M174.4 150.4l-6.6-23.1 5.8-1.7 6.6 23.1z"/><path fill="#a4c3e7" d="M145 131h23v6h-23z"/><path fill="#353133" d="M146.7 10.5L145.2.6l70-11 1.6 9.8z"/><path fill="#150e0d" d="M77 88l7 28-29 3z"/><path fill="#3b3c3e" d="M92.2 55.2l15.6 14-14 15.6-15.6-14z"/><ellipse cx="106" cy="44" fill="#5e6e84" rx="38" ry="3"/><path fill="#87a9d0" d="M106 80l89-8-6 56z"/><path fill="#211c33" d="M145.7 124.1l1-2.8 23.6 8.6-1 2.8z"/><path fill="#332a22" d="M117.1 26.6l-46.7 4.7-8-1.6 82.7-10.1z"/><ellipse cx="54" cy="37" fill="#555153" rx="7" ry="35"/><path fill="#576f8c" d="M60.5 68.3l-7.2-.2 18-22.1-12.5 43.9z"/><path fill="#50444a" d="M213 173l15.1-38.2 2.3-108.3 4.2 116.1z"/><path fill="#5a4c4e" d="M39.8 152.8l25.9-13.2L25.3 120l31.1-14z"/><path fill="#e6f4ff" d="M88 47l-15 5-9 16z"/><path fill="#464248" d="M-18.6 18.4l58-58 21.2 21.2-58 58z"/><ellipse cx="189" cy="29" fill="#4b4847" rx="43" ry="10"/><path fill="#0e1f3d" d="M186 148l18.3 5-.3 1-18.3-5z"/><path fill="#373b48" d="M62.8 61.1L82.9 35 63 67.2l-6.5 67z"/><path fill="#7392b2" d="M60.8 56.5l14-11.1-4.1-.9-14.1 38.9z"/><path fill="#98b6d9" d="M123 123.1l22.4 3.2 12.8-28.4-47.8-1.1z"/><path fill="#534f51" d="M37 43l48 4-65-32z"/><path fill="#383545" d="M10.4 184.4l-28.3-17 15.5-25.8 28.3 17z"/><path fill="#7c736f" d="M109.5 84.8l4.9 41.4-14.7-47.1 15.1-7.4z"/><path fill="#d8e6f2" d="M83 48h76v10H83z"/><path fill="#131122" d="M181 144l-21-5 6 7z"/><path fill="#52424f" d="M110 152l-50-20 25-17z"/><path fill="#91b0d6" d="M225.9 142l-46.5 2.3-.1-6.3 3 2.8z"/><ellipse cx="39" cy="76" fill="#202023" rx="5" ry="35"/><path fill="#2e1d1f" d="M146.3 145.8l-42.7-5.5 16.2-12.2.2 5z"/><path fill="#3a1f15" d="M2 40.4L27.4 151l5-118.5 37.4-1.3z"/><path fill="#686465" d="M61 90l-18 28 3-24z"/><path fill="#6c7d8f" d="M299.1-14.9L141.1 16l-.2-1 158-30.8z"/><path fill="#9e9cb1" d="M130.9 127.3l-.2 1-35.6-5.6.2-1z"/><path fill="#230f0c" d="M2 135l-16-96 30-1z"/><circle r="1" fill="#7b8d9c" transform="matrix(-.17243 -2.15122 7.86352 -.6303 185.2 152.5)"/><circle r="1" fill="#565459" transform="rotate(167.7 9.7 14.4) scale(29.54075 6.71923)"/><path fill="#221a1d" d="M88.4 65.7l-14.3-2.4-14.9 24.4-1.7 37z"/><path fill="#59616a" d="M228 38l-42-1 29 10z"/><ellipse cx="135" cy="58" fill="#dee9ef" rx="40" ry="9"/><ellipse cx="96" cy="104" fill="#887f7f" rx="2" ry="7"/><path fill="#565453" d="M36 33h114v8H36z"/><path fill="#3d2218" d="M29 151l-11-33 32 13z"/><circle r="1" fill="#686c70" transform="matrix(-1.86557 2.19981 -6.73675 -5.71318 105.6 68.3)"/></g></g></svg>