<svg xmlns="http://www.w3.org/2000/svg" viewBox="0 0 1800 1013"><defs/><filter id="a"><feGaussianBlur stdDeviation="12"/></filter><rect width="100%" height="100%" fill="#253a4c"/><g filter="url(#a)"><g fill-opacity=".5" transform="translate(3.5 3.5) scale(7.03125)"><circle r="1" fill="#fefaff" transform="matrix(-1.89388 54.2337 -247.19707 -8.63231 177.5 42.6)"/><ellipse cx="7" cy="87" fill="#d9d8e9" rx="24" ry="12"/><ellipse cx="203" cy="22" fill="#b5bbc7" rx="113" ry="40"/><circle r="1" fill="#4a5762" transform="matrix(-6.2693 24.61503 -144.8647 -36.89617 191.2 117.5)"/><ellipse cx="134" cy="87" fill="#a3aabe" rx="32" ry="13"/><ellipse cx="65" cy="89" fill="#312419" rx="42" ry="9"/><path fill="#090607" d="M151 91l26 13 34-11z"/><circle r="1" fill="#e0e3e1" transform="matrix(-6.30154 9.70353 -31.67922 -20.57273 223.8 9.7)"/><ellipse cx="29" cy="13" fill="#687b9f" rx="83" ry="16"/><ellipse cx="235" cy="96" fill="#99a8c0" rx="28" ry="4"/><path fill="#75849e" d="M101 23l103-3-34-36z"/><path fill="#848fa5" d="M71.1 70.1L.1 2.9l-16.1 106 42.8-20.4z"/><ellipse cx="96" cy="71" fill="#8f97a9" rx="49" ry="11"/><path fill="#9099a9" d="M107 48h51v51h-51z"/><ellipse cx="252" cy="142" fill="#4d606f" rx="24" ry="44"/><ellipse cx="93" cy="124" fill="#264253" rx="89" ry="27"/><circle r="1" fill="#caccd0" transform="rotate(-163.7 59.7 -6) scale(18.24636 6.61463)"/><circle cx="116" cy="41" r="14" fill="#bec1c6"/><path fill="#2b2628" d="M26 90h82v11H26z"/><circle r="1" fill="#e8e8e5" transform="matrix(3.59606 3.65682 -4.4231 4.3496 140.7 24.8)"/><path fill="#8894a8" d="M208 61h48v38h-48z"/><path fill="#1c1c1d" d="M157 95h53v6h-53z"/><path fill="#abb0bc" d="M55.8 55.7l-12.5-39 26.5 29.6 36.8 23.1z"/><path fill="#89909d" d="M83 89l13 6-13-2z"/><path fill="#8993a3" d="M116.6 91l81.3-.3-83.8-36.5L76 78.9z"/><path fill="#868e9d" d="M4.3 100.1l88-44.9L-16 88l55.3 12.9z"/><path fill="#62799b" d="M208.3-16h34.6L271 11.3l-29.1-5.8z"/><ellipse cx="59" cy="83" fill="#323126" rx="17" ry="4"/><path fill="#425869" d="M271 136.4l-87.8-7.6 6.2-29.7-25.7 3.7z"/><path fill="#2e3438" d="M26.1 109.8l-2.8-24.1 19.7 26 5.3-36.1z"/><path fill="#aeb0ba" d="M15 45l-31 10 45 5z"/><path fill="#7888a2" d="M96.8 52.8l-8.2 5.9L25.5-1.6 66.4-16z"/><path fill="#677a9b" d="M143.9 6.4L99.7-16l76.6 24.6L188.2-16z"/><ellipse cx="125" cy="128" fill="#2b4354" rx="67" ry="30"/><path fill="#8a94a4" d="M267 45l-38 50-72-8z"/><path fill="#7e899e" d="M61 76.7l3.5-17.3L5.2 33.2l48 50.2z"/><circle r="1" fill="#8d96a4" transform="matrix(-16.21611 -2.22133 .80888 -5.90496 224.2 38.7)"/><path fill="#bbbec0" d="M162 56l47-19 12 14z"/><path fill="#b5bac1" d="M211.4-10.5l-5.5 29.3-60.6 15.8 78.1-3.1z"/><path fill="#818da3" d="M123.6 15.1l13.8-7.2-6.6 22.9L5.3 3.8z"/><path fill="#9199aa" d="M160 92.6l-61.1-6.3-10.5-72.5 20.2 85.7z"/><path fill="#dbdddf" d="M228-16l14 37-25-16z"/><path fill="#8896aa" d="M209 89h47v10h-47z"/><ellipse cx="56" cy="90" fill="#484b4f" rx="34" ry="2"/><path fill="#9aa0ad" d="M121 51l41 28 79-16z"/><path fill="#8792a5" d="M0 60h24v39H0z"/><path fill="#b7bcc4" d="M181.7 15l56.5-29.9 3.1-1.1-62.1 24.3z"/><ellipse cx="175" cy="96" fill="#282b2f" rx="16" ry="6"/><path fill="#3f5567" d="M192 125l29-14-70 2z"/><path fill="#cbcdd0" d="M94.9 36L89 30.6l6.1-6.6 5.9 5.4z"/><path fill="#1b1b21" d="M25 92h39v7H25z"/><path fill="#6c809e" d="M99-3L15-8l-1 25z"/><path fill="#1a1c22" d="M94.9 91.5l4-2.9-.6 10.3-15.8 2.4z"/><path fill="#9097a1" d="M13 119h6v2h-6z"/><path fill="#89909c" d="M28.3 77.6l46.1 3.3 1.7 10.5 9-29.2z"/><ellipse cx="230" cy="106" fill="#314757" rx="103" ry="7"/><path fill="#808da3" d="M159 13l33 9 15-13z"/><path fill="#172e39" d="M74.4 131.1l.3-4 52.9 3.8-.3 4z"/><circle r="1" fill="#8992a2" transform="rotate(39.7 -43.9 226.4) scale(28.56807 10.95858)"/><path fill="#243a45" d="M165 127l57 6-24 7z"/><circle r="1" fill="#3b5363" transform="matrix(.14664 -2.46825 48.44388 2.8781 171.7 139.8)"/><path fill="#acb1ba" d="M104.5 19.1L170 50.4 87.1 41l20.5 12.4z"/><path fill="#8e9aae" d="M271 25.2l-24.8-1.9 7.2-19.4-15.1-.6z"/><path fill="#818ca1" d="M168 48.2l-54.5 20.7-53.8-28.8 69.1 20.3z"/><path fill="#2a4458" d="M53 127l84-22-133-5z"/><path fill="#191e22" d="M72.6 97.5L92.2 96l-9.9 5.5-.3-19.3z"/><circle r="1" fill="#8e95a4" transform="matrix(-17.8674 -2.82543 1.61526 -10.2146 19 77.9)"/><path fill="#7c87a1" d="M-13.3 33L-8 21l49.3 22L36 55z"/><path fill="#8690a1" d="M187.7 89.5l42.3 9.8-82.5-49.6 5 11.5z"/><path fill="#9a9696" d="M83 86l8 1-6 1z"/><path fill="#516475" d="M232 121h24v9h-24z"/><path fill="#b1b2b6" d="M87 53l20 20-10-2z"/><path fill="#959db0" d="M8.1 1.9l14.8 33.3 35.7-7.7-4.3 31.2z"/><ellipse cx="243" cy="119" fill="#122431" rx="11" ry="1"/><path fill="#25282f" d="M108.2 86.8L77 102.7 20.3 90.5l82.9 5.9z"/><circle cx="141" cy="21" r="5" fill="#d0d2d4"/><path fill="#4d4a41" d="M54.7 83l13 9.5-30.1-10.7-10.3 10.3z"/><path fill="#2f2e2c" d="M58.9 77.5l-11.1 19 11.2-5L60.9 79z"/><path fill="#7a88a0" d="M174-15l-12 41 14-5z"/><path fill="#b1b7bf" d="M254.8 37L203.6 7.7l-1.7 21.8 17.8-3.2z"/><path fill="#959daf" d="M86 13l23-2-6-27z"/><path fill="#9ea4b1" d="M131.3 35.6L117.2 57l12.7.9L168.1 12z"/><path fill="#b5babf" d="M58.2 56.5l.8-6 20.8 3-.8 6z"/><circle cx="26" cy="69" r="5" fill="#abadb5"/><path fill="#979fac" d="M216 25.7l55 28.5-79.5-20.6-2.8 13.7z"/><path fill="#213846" d="M242.9 137.2l-103.4-8.3-14.5-6.3 10.6.3z"/><circle r="1" fill="#3d403e" transform="rotate(83.7 -12 79.7) scale(3.22843 9.02985)"/><path fill="#a3a9b2" d="M188 72l-1.3-4.8L236 54l1.3 4.8z"/><path fill="#caccd0" d="M111 7l4-13 16 16z"/><path fill="#8690a2" d="M97 86l44-5-44-8z"/><path fill="#516373" d="M207 127h17v5h-17z"/><path fill="#7a869d" d="M21.4 64.5l-.8 9-22-2 .8-9z"/><path fill="#505f6d" d="M215 99h41v2h-41z"/><path fill="#343338" d="M102 100.8l.1-2 34 2.4-.2 2z"/><path fill="#242b30" d="M94 86.4l-.3 1-17.6-3.8.2-1z"/><path fill="#9da3b2" d="M57.6 40.4l-6.8-4.1-3.4-12L82.8 38z"/><path fill="#494741" d="M10 99h47v2H10z"/><path fill="#8993a7" d="M95.1 27.9l57.6-19.7 19-1.3-64.5 21.6z"/><path fill="#243945" d="M197.5 123.9l30.9-2.7v1l-30.8 2.6z"/><path fill="#8a94a5" d="M107 84h50v14h-50z"/></g></g></svg>