<svg xmlns="http://www.w3.org/2000/svg" viewBox="0 0 3024 3024"><defs/><filter id="a"><feGaussianBlur stdDeviation="12"/></filter><rect width="100%" height="100%" fill="#353d3f"/><g filter="url(#a)"><g fill-opacity=".5" transform="translate(6 6) scale(11.8125)"><circle r="1" fill="#c0fdf7" transform="rotate(140.5 40 74.4) scale(189.47715 209.52028)"/><path fill="#203829" d="M73 127h34v129H73z"/><circle r="1" fill="#89b3ef" transform="rotate(-165.2 67.4 -4.2) scale(197.44545 53.06985)"/><circle r="1" fill="#819062" transform="matrix(236.60518 -10.3304 1.52748 34.98513 175.6 222.2)"/><path fill="#ffdcf8" d="M48 181h29v19H48z"/><ellipse cx="93" cy="185" fill="#006987" rx="15" ry="23"/><circle r="1" fill="#6394ba" transform="matrix(-2.59783 -26.4947 118.22324 -11.59189 28 48)"/><circle r="1" fill="#a0bff2" transform="matrix(1.16002 -17.93835 181.10215 11.71135 109.4 0)"/><path fill="#ffc1d3" d="M132.3 174.5l1.8 15.2-35-6.3 28.3-18.5z"/><circle r="1" fill="#362b27" transform="matrix(-5.40464 23.98227 -15.23466 -3.43328 87.7 152.2)"/><circle r="1" fill="#88b6a8" transform="matrix(-14.1068 -37.13639 54.6597 -20.76327 144.8 103.7)"/><ellipse cx="168" cy="25" fill="#4b678b" rx="254" ry="4"/><circle r="1" fill="#7ca183" transform="rotate(65.5 -39.8 240.8) scale(62.76727 61.99122)"/><circle r="1" fill="#697261" transform="matrix(9.09666 -39.85687 18.70581 4.26929 66.4 231)"/><path fill="#007b8d" d="M112.1 164.1l-15.8 47.2-23.5-44.6-8.2 14.9z"/><circle r="1" fill="#809f81" transform="matrix(-22.59592 -18.3702 64.25082 -79.03052 10.8 188.5)"/><path fill="#ffa391" d="M77.2 199.6l21.2 21.2-3.6 3.6-21.2-21.2z"/><path fill="#8fa98b" d="M141.2 170.3L79.4 163l55.6-19.4 25.5 18.9z"/><path fill="#ff5d70" d="M106 64l18-1-12-7z"/><path fill="#ffbdd6" d="M53 195.4l-5-15.2 17-5.6 5 15.2z"/><path fill="#46311c" d="M119 51l2 8 8-9z"/><ellipse cx="203" cy="80" fill="#7eafb1" rx="73" ry="28"/><path fill="#106a79" d="M67.7 177.4l2.2-18.2 46 26.5 4.7 11z"/><circle r="1" fill="#7fa8bd" transform="matrix(-4.1541 -15.50334 79.79255 -21.38035 94.4 41.4)"/><circle cx="64" cy="68" r="5" fill="#361c0d"/><ellipse cx="91" cy="231" fill="#5c6954" rx="31" ry="14"/><path fill="#fff2ed" d="M131 172l5 16-32-9z"/><path fill="#fff7f5" d="M77.5 177.9l-5.9 10.5-12.4 2.4-3-5.6z"/><circle cx="24" cy="64" r="37" fill="#689db8"/><path fill="#ba7d71" d="M91 216l25-16-3-12z"/><path fill="#c13e7f" d="M121.5 171l-9.6-3.1 1.8 9.5 22.3-7.7z"/><ellipse cx="74" cy="14" fill="#8aabdb" rx="147" ry="9"/><path fill="#3b6493" d="M0 23h63v8H0z"/><circle r="1" fill="#84b0a5" transform="matrix(-18.1795 -6.29958 8.02387 -23.1555 82.1 106.2)"/><path fill="#074b52" d="M96.2 199l14.3-6.4L92.7 213l-13.8-14.3z"/><ellipse cx="239" cy="27" fill="#597c9b" rx="64" ry="6"/><path fill="#90b19a" d="M147.9 107.4l8.2 28.9-50 14.3-8.2-28.9z"/><circle cx="207" cy="255" r="95" fill="#819d84"/><circle r="1" fill="#669495" transform="rotate(82.8 15.4 101.8) scale(6.15698 63.8779)"/><path fill="#2b2b25" d="M74.7 137.8l31.7 12.5-2.8 2.3-32 11.1z"/><path fill="#2e5a86" d="M70 186h4v25h-4z"/><path fill="#007e8d" d="M100.1 199.8l7.9-32 6.3 7.7-38.2 7.5z"/><ellipse cx="222" cy="7" fill="#a3c2e6" rx="64" ry="10"/><path fill="#5a5d48" d="M85.6 252.7L75 206.1l16.6 10.8-.6 24.4z"/><path fill="#a66c5b" d="M82 156l22 2-13 10z"/><path fill="#535b57" d="M119.2 206l-15.7-32.4-12-57.1 14.2 76.7z"/><ellipse cx="84" cy="51" fill="#82adbc" rx="28" ry="18"/><path fill="#be3284" d="M66 181l5-8-24 8z"/><path fill="#b4afa5" d="M45.4 207.6l2.5-12.8 18.7 3.6-2.5 12.8z"/><ellipse cx="172" cy="46" fill="#88b5c5" rx="48" ry="15"/><path fill="#1e181e" d="M124.3 66l1.7-5.7 5.7 1.7-1.7 5.7z"/><path fill="#008ba2" d="M69 170h11v8H69z"/><path fill="#7d957e" d="M-16 235.1L74.2 271l-65-137.7-21.4.3z"/><circle r="1" fill="#fe727c" transform="rotate(-173.7 58.6 28.1) scale(7.50761 2.89693)"/><ellipse cx="198" cy="116" fill="#76a29b" rx="45" ry="23"/><ellipse cx="50" cy="115" fill="#76a29c" rx="34" ry="28"/><path fill="#6d866d" d="M29.2 216.9l42-9 7.6 35.2-42 9z"/><path fill="#798b70" d="M122 215l14 35-62 21z"/><path fill="#6f988a" d="M231 113h25v73h-25z"/><path fill="#ca9681" d="M94.8 215.9l20.8-19-10.9 3.2-14.3 33.1z"/><path fill="#153f41" d="M96 175l-22-5-3-22z"/><path fill="#fff3ff" d="M47 182h29v4H47z"/><path fill="#d6a69b" d="M75 201l1-11 11 25z"/><ellipse cx="206" cy="236" fill="#8ba487" rx="31" ry="20"/><path fill="#055261" d="M76 175l16 36-14-17z"/><path fill="#72967f" d="M195.8 168.5l-57.1 4.7 12.2 23.2 41.5-6.1z"/><path fill="#0299ae" d="M111 171l-6-8-9 19z"/><path fill="#f0b09b" d="M97.1 222.9l-.8.6L81 205.1l.8-.6z"/><ellipse cx="255" cy="23" fill="#446689" rx="68" ry="2"/><path fill="#85a38b" d="M69.6 168.6L-16 204.5l48.3-53.7 42 8.2z"/><path fill="#c2fff9" d="M135 65l1-4-11-4z"/><ellipse cx="170" cy="29" fill="#7694af" rx="124" ry="3"/><path fill="#656b6e" d="M122.9 189.5l-18.6 19.6 11.6 2.1-10.6-26z"/><path fill="#052d33" d="M100 162h3v10h-3z"/><path fill="#7ba7b2" d="M119.5 39l18.9 31.9 11.4 3.6-2.5-31.9z"/><path fill="#fffdff" d="M126.6 175.7l.7 5-14 1.6-.6-5z"/><path fill="#c7b9b4" d="M132 190l-16-5 16-12z"/><path fill="#4f4741" d="M80 131h20v16H80z"/><path fill="#85afaa" d="M129 118l57-21L80 65z"/><path fill="#007d8a" d="M73 168l32 24-16 13z"/><path fill="#0d6c7d" d="M117.3 174.2L79.4 188l14.8-5.4-24.7-12.3z"/><circle r="1" fill="#84a9d8" transform="rotate(169.2 26.4 2.9) scale(62.34046 19.56658)"/><path fill="#537d7e" d="M69 75l-1 8-25 1z"/><path fill="#7f957e" d="M-2 271l75-72-74 19z"/><path fill="#e0ccc8" d="M48.2 205.8l30.6-26.9-25.1 11.2-7.5 11z"/><path fill="#85adb9" d="M90.5 53.7l31.2 7.6-5.4-22.2-12 31.5z"/><path fill="#5f85ab" d="M62.3 26.2l78.9-3.8L15.7 37.5-14 31.4z"/><ellipse cx="54" cy="93" fill="#7ca7a9" rx="80" ry="8"/><path fill="#5393c9" d="M67 189h7v10h-7z"/><path fill="#809276" d="M117 190h20l-31 27z"/><path fill="#779c8e" d="M2 121h107v8H2z"/><path fill="#535643" d="M102 229l5-24-9 9z"/><path fill="#272e2c" d="M75 134h8v32h-8z"/><path fill="#5d5d4b" d="M66.6 196.5L96.8 244l-7.5-26.6L78.1 207z"/><path fill="#f7d979" d="M113 182.4l.6-1.9 9.5 3-.7 2z"/><path fill="#262421" d="M121 51l1.4-1.3 4.7 5.2-1.5 1.4z"/><path fill="#863159" d="M121.7 171.8l.5 3-7.9 1.4-.5-3z"/><ellipse cx="230" cy="48" fill="#84b1c8" rx="48" ry="18"/><circle r="1" fill="#597272" transform="rotate(145.8 -21 72) scale(5.50184 4.38554)"/><path fill="#d69d86" d="M97 212l10-18 3 6z"/></g></g></svg>