<svg xmlns="http://www.w3.org/2000/svg" viewBox="0 0 1800 1200"><defs/><filter id="a"><feGaussianBlur stdDeviation="12"/></filter><rect width="100%" height="100%" fill="#47372a"/><g filter="url(#a)"><g fill-opacity=".5" transform="translate(3.5 3.5) scale(7.03125)"><circle r="1" fill="#e2f6fb" transform="rotate(-1.8 1110 -4355.3) scale(174.5486 77.40634)"/><ellipse cx="67" cy="106" fill="#896b4c" rx="220" ry="39"/><circle r="1" fill="#81afd8" transform="matrix(183.26824 1.1256 -.21147 34.43127 105.2 25)"/><circle r="1" fill="#feca7a" transform="matrix(.11296 11.66992 -75.55544 .73136 185.5 68.7)"/><path fill="#27170a" d="M97 69L74 96l86-6z"/><path fill="#fbb967" d="M0 74h92v17H0z"/><circle r="1" fill="#525358" transform="matrix(7.56457 -43.34302 142.87395 24.9355 82 139.5)"/><path fill="#33221c" d="M33.4 60.5l-2 17.9-26.8-2.9 2-17.9z"/><path fill="#f5c181" d="M161 97h20v26h-20z"/><path fill="#4f3822" d="M217 53l15 49-37 23z"/><ellipse cx="207" fill="#6184a9" rx="254" ry="19"/><path fill="#ffd389" d="M37 59h30v27H37z"/><circle r="1" fill="#b8c3be" transform="matrix(-1.0729 13.2574 -98.3553 -7.95968 86.8 49)"/><ellipse cx="236" cy="147" fill="#1e3245" rx="19" ry="36"/><ellipse cx="234" cy="84" fill="#c48642" rx="93" ry="7"/><path fill="#80644e" d="M91.5 128.4L74.9 49.8 74 96l112.9-13.9z"/><path fill="#070c0f" d="M107 80l18 11 7-19z"/><path fill="#252621" d="M208 75l2 47 12-34z"/><circle r="1" fill="#e3bd80" transform="matrix(26.41014 4.66329 -2.9886 16.92572 188.7 66.2)"/><path fill="#967457" d="M201.5 125.2l-25.5-5 6.5-33.4 25.5 5z"/><path fill="#9f8063" d="M271 114.7l-3.2 54.6-17.3-52.4-44.7-43.6z"/><path fill="#392d22" d="M143.7 163.2l-18 14.8 62.8-47.3-25.6-10.5z"/><path fill="#7b3f1a" d="M195 91l-25-14-11 16z"/><path fill="#9bb0ba" d="M203 42l-60.4-28.2-21.3 7.6-18.7 59.4z"/><path fill="#756961" d="M55 106h110v17H55z"/><ellipse cx="85" cy="68" fill="#664f3c" rx="20" ry="5"/><path fill="#edc588" d="M145 58h20v26h-20z"/><path fill="#886f5b" d="M237.9 84l7.7 4.5-35.5 61.5-7.7-4.5z"/><path fill="#634f40" d="M5 55h19v22H5z"/><path fill="#dbb076" d="M218 66l53-2-34 31z"/><path fill="#f49e3b" d="M4.2 80.3l-10-.7 1.6-24 10 .8z"/><circle r="1" fill="#2c3641" transform="matrix(-62.92457 17.29417 -.9819 -3.57265 25.1 149.6)"/><path fill="#eac291" d="M135 102h15v7h-15z"/><circle r="1" fill="#916c51" transform="matrix(62.65863 -2.30491 .11298 3.07128 53.7 100)"/><circle r="1" fill="#6988a6" transform="matrix(152.41588 65.95624 -7.67737 17.74135 229.8 6.7)"/><path fill="#94a7b0" d="M158 51l113 13V32z"/><path fill="#fff1b0" d="M39 60h27v6H39z"/><path fill="#dcab6d" d="M58.4 76.3l31.2-5.4L61 96.3l-77-16.5z"/><path fill="#8c5b33" d="M230 88l10-13 2 22z"/><path fill="#e6a76c" d="M170 85h7v33h-7z"/><ellipse cx="96" cy="47" fill="#a7b9bf" rx="26" ry="20"/><path fill="#493c32" d="M0 92h59v6H0z"/><path fill="#543a29" d="M115.2 79.9L76 97.2 75.2 76l11 23.6z"/><path fill="#342b21" d="M180.2 123l15 37-7.4 3-15-37z"/><path fill="#9bb1c2" d="M28 62l74-38-118-1z"/><path fill="#876d5a" d="M211.9 62.6l27.6-5.3L205.6 79l16.8-1.9z"/><path fill="#735e4e" d="M163.2 82.4l-1.5 42.6-31.5 30.2 29.6-77.4z"/><path fill="#60422a" d="M40 58h23v2H40z"/><path fill="#c9ab7c" d="M115.5 76.2L89 62.5l-5.9 10.4 35-14.6z"/><path fill="#5b5655" d="M220.7 116.4l-1.5 29-34-1.8 1.6-29z"/><path fill="#32302c" d="M129.8 86.3L87.3 67.9l23.8 25.5 21.9-1.9z"/><path fill="#e9c182" d="M208 94l-22-39-27-1z"/><circle cx="56" cy="69" r="4" fill="#795b43"/><path fill="#826c5a" d="M104 101l15-14-23-6z"/><path fill="#3b3139" d="M67 64l11 8-5-12z"/><path fill="#aa7a45" d="M188 68l19-2 3 6z"/><path fill="#4c392e" d="M175 74l6 12-8-5z"/><path fill="#484342" d="M21.3 89l-.7 9.9-26-1.8.8-10z"/><path fill="#624832" d="M224 76h4v45h-4z"/><path fill="#734d32" d="M39 67h8v7h-8z"/><circle r="1" fill="#585553" transform="matrix(46.65222 -3.42592 1.50778 20.53203 107.2 137.2)"/><path fill="#eabb7a" d="M61 73h12v21H61z"/><path fill="#e6c68e" d="M229.2 82.7l3.5 4.4-.1-11-23.2-20.7z"/><path fill="#625d5b" d="M16 62h20v15H16z"/><path fill="#e9c996" d="M38.7 64.6l-5.9 18.9 27.6-26.1-15.9 27.9z"/><path fill="#634134" d="M87 74h3v13h-3z"/><path fill="#332a1b" d="M144 92l-1-11-6-4z"/><path fill="#b0865a" d="M127 72.7l8.9-3.5-1.3 43.7 7.7-21.8z"/><path fill="#c48f5b" d="M216 89l-3-11 15 9z"/><circle r="1" fill="#3f3f41" transform="matrix(43.16489 7.76659 -4.1716 23.18474 21.7 161.5)"/><circle r="1" fill="#414142" transform="matrix(.14459 1.31031 -80.58371 8.89214 42.8 114.3)"/><path fill="#7f7362" d="M248 71l-1 8-15-6z"/><circle r="1" fill="#f2cd94" transform="rotate(177.7 92 38.8) scale(56.50346 1)"/><path fill="#6e4c33" d="M216.5 54.9l1.5 19.5-15.6 16.4 17.2-28.6z"/><ellipse cx="55" cy="15" fill="#819fbb" rx="65" ry="9"/><circle r="1" fill="#66615c" transform="matrix(7.18159 -5.00994 .57215 .82015 130 12.5)"/><ellipse cx="239" cy="124" fill="#303943" rx="8" ry="20"/><path fill="#b28d6a" d="M255.4 100.1l.2 5-23 .8-.2-5z"/><path fill="#b58456" d="M151 93h48v8h-48z"/><path fill="#3a1c09" d="M241 96h10v4h-10z"/><path fill="#7e6c5d" d="M182 116l17-26 5 28z"/><path fill="#92a9b1" d="M218.7 41.7L271 71.9l-25.5-30.7-24.9 29.3z"/><path fill="#1e1511" d="M216 67h4v3h-4z"/><path fill="#f8d496" d="M202.5 85l-1-28h4l1 28z"/><path fill="#31383d" d="M184.2 157l-1.5-1.3 49-60.6 1.6 1.2z"/><path fill="#8e6c4f" d="M81 98L59 88l-30 14z"/><path fill="#775b44" d="M213 134l19-14-9-31z"/><circle r="1" fill="#839db5" transform="matrix(-.03161 9.05618 -51.82736 -.18091 186.4 19.9)"/><path fill="#9aafbc" d="M121 67l87-21L84 20z"/><ellipse cx="153" cy="88" fill="#5d4738" rx="2" ry="12"/><circle r="1" fill="#e7c28b" transform="matrix(.79527 2.86861 -33.42947 9.26773 156.5 64)"/><path fill="#d8ad6e" d="M163.1 70l25.1 17.9-28.6-30.6 13.2-4.2z"/><path fill="#f5ce92" d="M265 61l-21 5 27 31z"/><path fill="#c9a97c" d="M166 96h13v24h-13z"/><path fill="#ebcf97" d="M185.9 73l-2.1-21.4 13.9 46.1-.4-23.2z"/><ellipse cx="199" cy="91" fill="#88714f" rx="2" ry="19"/><path fill="#1e1e19" d="M106 78h20v9h-20z"/><path fill="#9c3200" d="M236.8 62.2l-6-3.5.4-.9 6 3.5z"/><path fill="#2d2d2e" d="M218.3 150.9l26.9 28.6-76.2-5.1 94.2-27.6z"/><ellipse cx="191" cy="71" fill="#a7814d" rx="2" ry="11"/></g></g></svg>