<svg xmlns="http://www.w3.org/2000/svg" viewBox="0 0 1800 1200"><defs/><filter id="a"><feGaussianBlur stdDeviation="12"/></filter><rect width="100%" height="100%" fill="#2c5257"/><g filter="url(#a)"><g fill-opacity=".5" transform="translate(3.5 3.5) scale(7.03125)"><circle r="1" fill="#fff" transform="matrix(27.50255 -8.94552 16.66659 51.24061 230.6 156.5)"/><ellipse cx="135" cy="109" fill="#cba1a4" rx="24" ry="56"/><circle r="1" fill="#412a03" transform="matrix(-253.05916 -8.83702 1.93998 -55.5538 120 16.7)"/><circle r="1" fill="#8b755d" transform="matrix(14.85902 80.46681 -18.73834 3.46023 178.5 106.8)"/><circle r="1" fill="#efe5e2" transform="rotate(49.3 -41.4 325.3) scale(38.00431 25.1473)"/><circle r="1" fill="#cd644a" transform="matrix(8.60653 -1.2544 5.30248 36.38065 233 73.6)"/><path fill="#b19081" d="M49 71l88 37 78-26z"/><circle r="1" fill="#163e2a" transform="matrix(31.9967 67.08247 -57.69065 27.51703 37.4 139.8)"/><path fill="#26110e" d="M217.8 145.3l15.9.5-13.9 11.3-10.3-3.3z"/><circle r="1" fill="#bd8165" transform="matrix(6.3993 -.30802 1.15853 24.06946 47.2 108.2)"/><path fill="#aaa6bc" d="M105 159l9-34 14 39z"/><ellipse cx="119" cy="64" fill="#65785f" rx="146" ry="6"/><path fill="#cfdcc0" d="M188.4 37.5l-35.9 7.6 2.6-1.6 6.8-12.9z"/><path fill="#00342a" d="M176.5 119.5l-3.1-21.8-17.8 15 3.3 72.3z"/><ellipse cx="26" cy="29" fill="#1f281a" rx="115" ry="30"/><ellipse cx="198" cy="158" fill="#2c0100" rx="4" ry="33"/><path fill="#af9689" d="M197.8 116.9l-13.3 40.9-14.3-4.7 13.3-40.9z"/><ellipse cx="96" cy="71" fill="#065035" rx="25" ry="9"/><circle r="1" fill="#ceb3b3" transform="matrix(-2.53663 .31053 -3.0333 -24.77802 222.7 2.2)"/><path fill="#535752" d="M212.2 76.5L271 86.6l-14.9 42.8-63.2-40.3z"/><circle r="1" fill="#18281d" transform="rotate(65.9 61.7 166.8) scale(9.05853 39.57534)"/><circle r="1" fill="#0a4f37" transform="matrix(-.67065 6.38083 -34.46856 -3.6228 175.4 71.3)"/><path fill="#855257" d="M130.6 46.3L145.8 76l-16.3 17.4L116 54.8z"/><path fill="#003029" d="M195.6 96.8l-15.5 6.6 1.4 10.8h19.3z"/><path fill="#b03710" d="M221 44h18v36h-18z"/><path fill="#0a4234" d="M67 95h47v35H67z"/><circle r="1" fill="#c7937a" transform="matrix(-1.7157 1.97369 -19.9633 -17.35384 67.8 73.7)"/><path fill="#6f8d9c" d="M239.8 119.8l-13.7-37.5 16.6-1.5 1.2 36.8z"/><path fill="#a07058" d="M83 96l25-4-60-28z"/><path fill="#9aacbf" d="M112.6 67.6l22.3 44L155.2 69l-39.9 40z"/><path fill="#fff" d="M178.8 109.6l-3-.3 1.4-11 3 .4z"/><path fill="#cca088" d="M201.7 96.9l-69-25.2 25.1 3 43.6 12z"/><ellipse cx="243" cy="162" fill="#e4e8e6" rx="30" ry="13"/><ellipse cx="213" cy="120" fill="#dbe0e0" rx="12" ry="14"/><circle r="1" fill="#1a2714" transform="rotate(79.7 117.8 146.7) scale(55.19611 16.00967)"/><ellipse cx="224" cy="61" fill="#a38372" rx="147" ry="2"/><path fill="#353b30" d="M231.3 108.7L191 75l26.8-7.2 7.1-4.1z"/><path fill="#4e3b31" d="M147 105l1-16 19-1z"/><path fill="#7f6e5d" d="M50 78l7 27-33 15z"/><circle r="1" fill="#15281e" transform="matrix(-30.82097 -2.0518 1.0951 -16.44991 13.7 54.8)"/><path fill="#514c42" d="M72.1 89.2l82.3-33.6L131.8 98l-4.3-24.9z"/><circle r="1" fill="#0c413d" transform="matrix(-12.43205 -27.25771 40.83893 -18.62635 67.3 152.4)"/><circle r="1" fill="#bf9f8d" transform="matrix(-14.43163 6.21524 -1.09916 -2.55222 106 82.2)"/><path fill="#162731" d="M170.5 159.3l1.6 13-52.6 6.4-1.6-13z"/><ellipse cx="174" cy="157" fill="#a6806c" rx="4" ry="27"/><path fill="#747d8b" d="M113 103h39v61h-39z"/><path fill="#19271c" d="M215.6 67.2l4.8-65.4-80.6-7.9 62.4 29z"/><path fill="#d7dbbe" d="M178 39l-24 1 9-9z"/><path fill="#184432" d="M268 71l-27-2 6 55z"/><path fill="#17261a" d="M177 30h10v29h-10z"/><path fill="#c59188" d="M251 136l4-32 16 31z"/><ellipse cx="242" cy="92" fill="#8c7a6e" rx="76" ry="2"/><path fill="#a6847d" d="M124.6 50.8l5.4-4 26.2 49.3V96z"/><path fill="#414e49" d="M191.4 99.2l32.1-12.3 11.9 25.9 7 2z"/><path fill="#485023" d="M150.2-36.9l17 68-23.4 5.8-17-68z"/><path fill="#835c4b" d="M185 180l-19-4 36-64z"/><path fill="#c39c82" d="M204 80l-28 2-22 20z"/><path fill="#805c51" d="M143 113h15v15h-15z"/><path fill="#302021" d="M216 155l17-8h-20z"/><path fill="#0e423a" d="M161 105h11v65h-11z"/><path fill="#694e3a" d="M51 104.3l9 4.1-13 29.3-9-4.1z"/><path fill="#0f4939" d="M91 82L64 65l55 8z"/><path fill="#a38d82" d="M108 152l-5 23-12 8z"/><path fill="#a4b3c1" d="M171.2 63.4l-3.4-14.6 1-.2 3.4 14.6z"/><path fill="#86929f" d="M116.9 99.7l-10.6 64.1 46.4-72-4.5-3.5z"/><path fill="#23261f" d="M149 44h23l-31 20z"/><ellipse cx="198" cy="76" fill="#84807e" rx="3" ry="16"/><path fill="#ab8c7f" d="M156 123l-11-13 17-15z"/><path fill="#f6fcfd" d="M202.8 130l6.7-21.7-7.6 10.4 14.7 52z"/><circle cx="212" cy="84" r="6" fill="#6f0e16"/><circle r="1" fill="#4d636d" transform="matrix(2.22958 -.22564 3.31492 32.7554 179.8 144.8)"/><path fill="#a29195" d="M223.1 36.3l4.6-6.8-5.2-43.4.8 42.7z"/><path fill="#303529" d="M58.1-16l35.7 82 79.8-39.1-66.6-.4z"/><path fill="#9a7672" d="M47 58h13v14H47z"/><path fill="#9c917d" d="M41.7 110.2l4.8 4.5 2.6-39.4.3-3.7z"/><ellipse cx="136" cy="108" fill="#0d060e" rx="10" ry="1"/><path fill="#1d5342" d="M0 62h46v28H0z"/><path fill="#b3b5c0" d="M146.1 97.8L121 99l32.2-20.7-8.8-2.1z"/><path fill="#adc0d2" d="M117 83l9 1-2-11z"/><ellipse cx="158" cy="158" fill="#12463a" rx="5" ry="34"/><path fill="#3f2a20" d="M193 134h8v36h-8z"/><ellipse cx="193" cy="72" fill="#1f5342" rx="30" ry="8"/><path fill="#a39887" d="M202.6 111.6l-13.5 7.1-9.3-.6 1.1 22.6z"/><circle r="1" fill="#a53c1c" transform="matrix(.63103 -13.38088 7.46333 .35196 230.6 66.2)"/><path fill="#fcfce1" d="M176.6 38.4l-.6.8-10.6-7.6.6-.8z"/><path fill="#afbdbd" d="M258 147.9l-22.7 3.9 5.4-24.4 17.9 5.1z"/><path fill="#d4dbdd" d="M211.6 159.1l2.9-15.9-12.7-31.3-1.4 26.1z"/><path fill="#14403e" d="M49.9 115.1l-1 .5L3.5 185-16 127.7z"/><path fill="#18473e" d="M79 94h34v35H79z"/><path fill="#707177" d="M138 129h15v34h-15z"/><path fill="#c2a37a" d="M238 61h18v3h-18z"/><path fill="#453a34" d="M153 98.2l-1.3-2.7 17.4-7.7 1.2 2.7z"/><path fill="#c3b19c" d="M77.6 81.5L49.7 57.2l.7-.7 27.9 24.3z"/><path fill="#222b25" d="M171 42h29v17h-29z"/><circle r="1" fill="#c6cdcc" transform="matrix(-13.35451 5.97745 -7.61277 -17.00806 221.4 125.5)"/><path fill="#293625" d="M242 39l-49 10-34-30z"/><path fill="#130f15" d="M0 51h50v7H0z"/><path fill="#c0cdd3" d="M240 91h16v1h-16z"/><path fill="#211b23" d="M120 112h20v1h-20z"/><circle r="1" fill="#3c442d" transform="matrix(8.30791 1.66009 -6.58515 32.95546 83.1 21)"/></g></g></svg>