<svg xmlns="http://www.w3.org/2000/svg" viewBox="0 0 1800 1200"><defs/><filter id="prefix__a"><feGaussianBlur stdDeviation="12"/></filter><rect width="100%" height="100%" fill="#242f47"/><g filter="url(#prefix__a)"><g transform="translate(3.5 3.5) scale(7.03125)"><circle r="1" fill="#b1d1e7" fill-opacity=".5" transform="matrix(4.65003 124.93873 -212.02314 7.89118 118.4 65.5)"/><circle r="1" fill="#0b213b" fill-opacity=".5" transform="matrix(4.15184 33.8369 -170.0207 20.86183 52.7 117.8)"/><circle r="1" fill="#fff" fill-opacity=".5" transform="matrix(68.84622 -29.143 10.33346 24.41134 120.5 169)"/><circle r="1" fill="#aacae8" fill-opacity=".5" transform="matrix(5.13966 42.47183 -128.16887 15.51014 206.8 37.2)"/><ellipse cx="254" cy="110" fill="#274261" fill-opacity=".5" rx="96" ry="31"/><circle r="1" fill="#fff" fill-opacity=".5" transform="matrix(-29.23873 24.28988 -12.24764 -14.743 144.2 157.8)"/><ellipse cx="17" cy="101" fill="#04264b" fill-opacity=".5" rx="92" ry="20"/><circle r="1" fill="#497bb6" fill-opacity=".5" transform="rotate(-90.2 39.1 -19.4) scale(37.75019 68.82956)"/><ellipse cx="227" cy="159" fill="#ac8c6b" fill-opacity=".5" rx="57" ry="19"/><path fill="#384250" fill-opacity=".5" d="M121 144l-137 21 5-49z"/><path fill="#f5e7d0" fill-opacity=".5" d="M134.8 123l.4-6 28 2-.4 6z"/><ellipse cx="60" cy="77" fill="#8c755c" fill-opacity=".5" rx="141" ry="6"/><path fill="#e3caaa" fill-opacity=".5" d="M92 175l-51-18-57 12z"/><path fill="#f2f8f8" fill-opacity=".5" d="M229.5 146.3l41.5 2.3-39.3-8.4-93.1-4.7z"/><ellipse cx="83" cy="59" fill="#89a3bc" fill-opacity=".5" rx="53" ry="16"/><path fill="#4b596b" fill-opacity=".5" d="M44.9 170.1l-2.4-4.3 62.3-93.7 42.7 61z"/><circle r="1" fill="#fffff8" fill-opacity=".5" transform="matrix(16.4813 -21.79219 10.36026 7.8354 161.8 149.8)"/><ellipse cx="188" cy="101" fill="#4c6886" fill-opacity=".5" rx="34" ry="22"/><circle r="1" fill="#396090" fill-opacity=".5" transform="matrix(11.78078 19.68425 -56.04016 33.53934 32.2 0)"/><ellipse cx="245" cy="114" fill="#374e68" fill-opacity=".5" rx="65" ry="28"/><ellipse cx="78" cy="168" fill="#f3e6d3" fill-opacity=".5" rx="26" ry="9"/><path fill="#a6bcce" fill-opacity=".5" d="M142 46h114v29H142z"/><circle r="1" fill="#6f93ba" fill-opacity=".5" transform="rotate(64.9 28.9 91.8) scale(16.48016 89.6886)"/><path fill="#50677b" fill-opacity=".5" d="M115 133l38 5-15 6z"/><path fill="#fffff8" fill-opacity=".5" d="M175.2 146.2l-46.8-2.2-20.2 7.5 48 33.5z"/><path fill="#fffeda" fill-opacity=".5" d="M204.9 130.3l29.9-11.5.3 1-29.9 11.4z"/><circle r="1" fill="#8d7259" fill-opacity=".5" transform="matrix(40.09248 2.14816 -.2039 3.80544 29.3 70.7)"/><path fill="#beb6a9" fill-opacity=".5" d="M-70.9 144l153.6-27 .2 1-153.6 27z"/><circle r="1" fill="#869097" fill-opacity=".5" transform="matrix(-.24981 -.9683 36.22355 -9.34549 119.1 108)"/><path fill="#3e4a5b" fill-opacity=".5" d="M85.3 121L31 174.1l66.3-28-113.3 22z"/><path fill="#8a7d70" fill-opacity=".5" d="M180 140l-17 45 108-33z"/><circle r="1" fill="#8799aa" fill-opacity=".5" transform="rotate(177.7 87.4 56.1) scale(18.22575 2.03078)"/><ellipse cx="225" cy="77" fill="#8c919e" fill-opacity=".5" rx="68" ry="6"/><circle cx="106" cy="161" r="4" fill="#434543" fill-opacity=".5"/><ellipse cx="12" cy="104" fill="#183454" fill-opacity=".5" rx="63" ry="22"/><path fill="#fff" fill-opacity=".5" d="M238 143h18v5h-18z"/><path fill="#232f3f" fill-opacity=".5" d="M125.8 183.9l84.4-10.2 49.3-15.7-26.4 27z"/><path fill="#203b58" fill-opacity=".5" d="M182 137l24-15-24 5z"/><ellipse cx="92" cy="95" fill="#234367" fill-opacity=".5" rx="48" ry="14"/><path fill="#6f6555" fill-opacity=".5" d="M107 71h26v9h-26z"/><path fill="#b8a391" fill-opacity=".5" d="M59 172l36-17-21 1z"/><path fill="#2c3f56" fill-opacity=".5" d="M211 137l60 7-28-31z"/><circle r="1" fill="#82878d" fill-opacity=".5" transform="rotate(-17.1 497.3 -239.6) scale(87.06906 1)"/><path fill="#c9c5b8" fill-opacity=".5" d="M167 164l14-26 19-7z"/><path fill="#93928b" fill-opacity=".5" d="M122.8 145l-2.9-.6 7.3-37.3 2.9.5z"/><path fill="#feedd1" fill-opacity=".5" d="M22 168h30v2H22z"/><circle r="1" fill="#8badcf" fill-opacity=".5" transform="matrix(-.0943 39.89151 -51.06965 -.12072 221.4 16.6)"/><path fill="#31475f" fill-opacity=".5" d="M159 121h35v8h-35z"/><ellipse cx="162" cy="143" fill="#848281" fill-opacity=".5" rx="59" ry="1"/><circle r="1" fill="#293c51" fill-opacity=".5" transform="matrix(18.6262 -4.36516 3.3521 14.30343 5 146)"/><circle r="1" fill="#9a938b" fill-opacity=".5" transform="matrix(-19.24759 3.74135 -1.7735 -9.1239 203.3 150.4)"/><path fill="#d2d9d8" fill-opacity=".5" d="M164 126.1l28.7 15.1 10.3-.6-51.4-11.7z"/><path fill="#fff5e1" fill-opacity=".5" d="M160 120.5v1l-22-2v-1z"/><ellipse cx="94" cy="169" fill="#edefe7" fill-opacity=".5" rx="25" ry="6"/><circle r="1" fill="#7a98b7" fill-opacity=".5" transform="matrix(13.38369 -24.34484 16.33644 8.98104 97.1 51.6)"/><ellipse cx="139" cy="5" fill="#7398c3" fill-opacity=".5" rx="31" ry="19"/><path fill="#3e3934" fill-opacity=".5" d="M34.4 162.3l.3 1-21 6.4-.4-1z"/><path fill="#113055" fill-opacity=".5" d="M125 126h9v13h-9z"/><ellipse cx="125" cy="160" fill="#d1d3cd" fill-opacity=".5" rx="17" ry="6"/><path fill="#c1bfb8" fill-opacity=".5" d="M149.4 151.6l3.8-33.3-13.3-.5 11.5 8.5z"/><path fill="#feffff" fill-opacity=".5" d="M223 142h16v4h-16z"/><path fill="#d0ccc2" fill-opacity=".5" d="M32 161.3l13.1-5.6L27 185l24.8-10.7z"/><path fill="#8ba4bd" fill-opacity=".5" d="M97 75l76-33L26 63z"/><path fill="#dadbd6" fill-opacity=".5" d="M71.3 160.8l35.8-4.3L78.8 185 90 152.8z"/><circle cx="137" cy="113" r="6" fill="#113153" fill-opacity=".5"/><path fill="#180700" fill-opacity=".5" d="M111 145h7v2h-7z"/><ellipse cx="130" cy="150" fill="#fff" fill-opacity=".5" rx="17" ry="5"/><path fill="#9eb5c8" fill-opacity=".5" d="M249 72l-86-29-19 32z"/><circle r="1" fill="#a99483" fill-opacity=".5" transform="matrix(-.3875 -.92187 36.17755 -15.20698 97.7 154.7)"/><path fill="#fff" fill-opacity=".5" d="M202.8 141.6l-.2 1-29.4-6.2.2-1z"/><path fill="#8895a1" fill-opacity=".5" d="M215.8 112.8l-.1 1-41.5-6.6.1-1z"/><path fill="#f8f9f1" fill-opacity=".5" d="M27 161.2l19.8-3.4.1 1-19.7 3.4z"/><path fill="#7e7771" fill-opacity=".5" d="M258.7 151.3l2.5 5.8-84.3 27.9 43.1-42z"/><path fill="#cac5bd" fill-opacity=".5" d="M96.7 169.8l10-23.2-13.6 3.6 16.8-6.9z"/><circle r="1" fill="#5e82ab" fill-opacity=".5" transform="rotate(-14.2 191.3 -152.7) scale(66.74169 13.78071)"/><ellipse cx="21" cy="74" fill="#7b7165" fill-opacity=".5" rx="55" ry="7"/><path fill="#eff5f5" fill-opacity=".5" d="M-1.2 169l-.2-1 40.6-11 .2 1z"/><path fill="#3a5572" fill-opacity=".5" d="M159.1 82.4l-13 29.1 18.3 10.5 9.7-35.4z"/><path fill="#66737f" fill-opacity=".5" d="M118.2 109.9l25.5-12.7-29.8 32.2 19.2-7.1z"/><ellipse cx="230" cy="78" fill="#747e93" fill-opacity=".5" rx="33" ry="5"/><path fill="none" stroke="#b5b5af" stroke-opacity=".5" stroke-width=".5" d="M54.4 122.7q-17.8 2.9-70.4 10.6"/><path fill="#bfc1bd" fill-opacity=".5" d="M207 129l-.4-1 26.5-9 .3 1z"/><circle r="1" fill="#5077a3" fill-opacity=".5" transform="rotate(149 18.3 15.7) scale(83.44109 10.84509)"/><ellipse cx="46" cy="164" fill="#263854" fill-opacity=".5" rx="6" ry="3"/><path fill="#182639" fill-opacity=".5" d="M225 138h31v3h-31z"/><ellipse cx="75" cy="100" fill="#24405f" fill-opacity=".5" rx="52" ry="12"/><path fill="#283c52" fill-opacity=".5" d="M223.1 134.1l-.2 5-24-1.2.2-5z"/><path fill="#274261" fill-opacity=".5" d="M126.3 124.8l-1.2 13.1 20-3.3-.7-12.2z"/><circle r="1" fill="#0f2e4e" fill-opacity=".5" transform="matrix(-26.5725 -.88463 .27843 -8.36356 0 120.5)"/><path fill="#3e5e81" fill-opacity=".5" d="M250 82.6l-112.9.9 71.7 16.2 62.2-.9z"/><path fill="#3c444f" fill-opacity=".5" d="M18 135.3l1-.5 31 56-1 .4z"/><path fill="#848078" fill-opacity=".5" d="M124 67l27 13-41 1z"/><path fill="#808488" fill-opacity=".5" d="M127.5 136.2l-63.1 27-26.4 8.1 32.6-13.2z"/><path fill="#f5f6f1" fill-opacity=".5" d="M176 126l4 13-18 2z"/><ellipse cx="107" cy="88" fill="#324e6e" fill-opacity=".5" rx="73" ry="7"/><path fill="#967d6d" fill-opacity=".5" d="M127.1 140.7l.4 1L61 171.2l-.4-1z"/><path fill="#9a8f83" fill-opacity=".5" d="M203 142v16h-22v-16z"/><path fill="none" stroke="#fffff9" stroke-opacity=".5" stroke-width=".5" d="M49 174q13.5-7.2 59.6-25.1"/><path fill="#2f4257" fill-opacity=".5" d="M-16 178.3l14-45.9 32.6-4.8 1.6 2.2z"/><path fill="#9badb8" fill-opacity=".5" d="M148 144l-13-7-15 6z"/></g></g></svg>