<svg xmlns="http://www.w3.org/2000/svg" viewBox="0 0 1800 1200"><defs/><filter id="prefix__a"><feGaussianBlur stdDeviation="12"/></filter><rect width="100%" height="100%" fill="#243753"/><g filter="url(#prefix__a)"><g transform="translate(3.5 3.5) scale(7.03125)"><circle r="1" fill="#e6ffff" fill-opacity=".5" transform="matrix(-1.84131 65.92005 -254.90059 -7.12002 98 50.9)"/><circle r="1" fill="#b4c4cf" fill-opacity=".5" transform="matrix(104.61796 -7.20967 2.34338 34.00421 42 79.8)"/><ellipse cx="89" cy="139" fill="#476581" fill-opacity=".5" rx="160" ry="27"/><path fill="#f3d9b6" fill-opacity=".5" d="M152.8 118.7l51.9 3.1-17.7 5.1-41.5-1.1z"/><path fill="#5683b8" fill-opacity=".5" d="M270-16l1 76L-16-1z"/><path fill="#92a7b7" fill-opacity=".5" d="M271 112.4l-34.6 2.2-139.2-6.9L-12.8-16z"/><circle r="1" fill="#81a4c9" fill-opacity=".5" transform="matrix(168.50436 26.04858 -4.1878 27.09027 37.8 28.3)"/><path fill="#433d39" fill-opacity=".5" d="M170.3 85.8l-.2 31.2 33.3-3.7-19.1.1z"/><path fill="#1f3857" fill-opacity=".5" d="M97 114h55v20H97z"/><circle r="1" fill="#55799d" fill-opacity=".5" transform="matrix(10.64436 -24.48035 114.64887 49.85075 226.9 2)"/><path fill="#d0c4b0" fill-opacity=".5" d="M147.4 122.1l57 4.3-28.9-9.3-24 3.3z"/><path fill="#324e6f" fill-opacity=".5" d="M0 114h153v56H0z"/><path fill="#929993" fill-opacity=".5" d="M176 90h80v23h-80z"/><path fill="#fff8d9" fill-opacity=".5" d="M161 97h6v18h-6z"/><ellipse cx="26" cy="108" fill="#acada9" fill-opacity=".5" rx="128" ry="6"/><path fill="#4f4d49" fill-opacity=".5" d="M170 60h3v56h-3z"/><circle r="1" fill="#2a435b" fill-opacity=".5" transform="rotate(-102.3 168.6 -14.3) scale(26.8162 58.27743)"/><path fill="#48525e" fill-opacity=".5" d="M148.7 144.5l16.5-64.2-18.2 44.3 40.2 1z"/><circle r="1" fill="#9eb5c6" fill-opacity=".5" transform="matrix(-63.62987 -10.19185 4.73578 -29.56646 19.9 62)"/><ellipse cx="60" cy="140" fill="#4a6788" fill-opacity=".5" rx="137" ry="3"/><ellipse cx="11" cy="93" fill="#a7b3b4" fill-opacity=".5" rx="147" ry="20"/><circle r="1" fill="#7796b2" fill-opacity=".5" transform="rotate(-161.6 96.3 6.4) scale(161.96883 12.39325)"/><ellipse cx="184" cy="122" fill="#fffae4" fill-opacity=".5" rx="13" ry="2"/><circle r="1" fill="#15283d" fill-opacity=".5" transform="matrix(.24533 2.90075 -18.21594 1.54059 88.1 162.3)"/><path fill="#c8baa5" fill-opacity=".5" d="M174 79h6v26h-6z"/><circle r="1" fill="#1d344a" fill-opacity=".5" transform="matrix(.3535 5.29489 -48.787 3.25709 160.3 164.8)"/><path fill="#454d56" fill-opacity=".5" d="M168.7 118.5L171 106l15 15.9 1-14.9z"/><path fill="#2b4460" fill-opacity=".5" d="M70 114h79v22H70z"/><path fill="#c7b9a8" fill-opacity=".5" d="M184.4 123.3l13.1-4.9 3.2 8.2-29.2-6.9z"/><path fill="#4c6b8c" fill-opacity=".5" d="M12.5 158.3l5 12-22 9.4-5-12z"/><circle r="1" fill="#7597bd" fill-opacity=".5" transform="matrix(-3.36813 18.71928 -76.35446 -13.73834 50.2 7.6)"/><path fill="#1d354c" fill-opacity=".5" d="M201.3 132.1l8.1-13.3 3-2-14.4 4.6z"/><path fill="#395470" fill-opacity=".5" d="M208 150h48v9h-48z"/><path fill="#3c5067" fill-opacity=".5" d="M145 125h72v14h-72z"/><path fill="#7f949c" fill-opacity=".5" d="M216.9 116.8L269 5.8l.8 108.9-89.2-5.7z"/><circle cx="163" cy="124" r="5" fill="#bbafa0" fill-opacity=".5"/><circle r="1" fill="#0e202d" fill-opacity=".5" transform="rotate(88.8 41.8 214.1) scale(4.16647 31.51762)"/><path fill="#476487" fill-opacity=".5" d="M27 154h80v4H27z"/><path fill="#ffe9d4" fill-opacity=".5" d="M158 114l5 1 2-9z"/><path fill="#314966" fill-opacity=".5" d="M72.2 149.9l36.1 4.4 28.6-30.3-6.4-15.2z"/><path fill="#4e6d93" fill-opacity=".5" d="M0 151h34v4H0z"/><ellipse cx="139" cy="70" fill="#91a8b6" fill-opacity=".5" rx="32" ry="21"/><path fill="#6c8da8" fill-opacity=".5" d="M271 35L153-4l98 71z"/><circle r="1" fill="#89a6c4" fill-opacity=".5" transform="matrix(3.6759 -15.4298 49.08907 11.69467 35 36)"/><path fill="#43617f" fill-opacity=".5" d="M158 169h71v1h-71z"/><path fill="#90a5ae" fill-opacity=".5" d="M186 111l46-36-63-20z"/><path fill="#3f5f80" fill-opacity=".5" d="M54 167h49v3H54z"/><path fill="#d7cebe" fill-opacity=".5" d="M152 121h47v4h-47z"/><ellipse cx="205" cy="116" fill="#314456" fill-opacity=".5" rx="34" ry="3"/><path fill="#223954" fill-opacity=".5" d="M50.6 155.5l-16.9-7.6-12.9-5.5-6.6 5.1z"/><path fill="#395473" fill-opacity=".5" d="M114 141h29v27h-29z"/><path fill="#547294" fill-opacity=".5" d="M77 141.7l-.1 3-46-2.4.2-3z"/><path fill="#515a6a" fill-opacity=".5" d="M157.9 105.7l-1-.3 7.2-27 1 .2z"/><circle r="1" fill="#56799f" fill-opacity=".5" transform="matrix(-5.41586 13.81964 -96.91296 -37.97977 240 0)"/><path fill="#9ca8ac" fill-opacity=".5" d="M152.9 111.9l-26.2-.6-117.2 2.2 155.8-37.3z"/><path fill="#dbcfc1" fill-opacity=".5" d="M155.2 116.3l11.6-1.4-2.7-21.9-4.9 17.6z"/><path fill="#45607f" fill-opacity=".5" d="M166 136h50v4h-50z"/><path fill="#dabf9e" fill-opacity=".5" d="M207 124.4v-1l8 .2v1z"/><path fill="#838787" fill-opacity=".5" d="M166 95.7l5 26.5-1 .1-5-26.5z"/><path fill="#14283b" fill-opacity=".5" d="M8 163h21v3H8z"/><path fill="#243447" fill-opacity=".5" d="M171 111h9v5h-9z"/><path fill="#253e56" fill-opacity=".5" d="M198 114h58v9h-58z"/><path fill="#375273" fill-opacity=".5" d="M0 114h85v19H0z"/><path fill="#273e59" fill-opacity=".5" d="M186.4 166.2l-63.1 3.4 74.1-18.3-56.7-13.1z"/><path fill="#091a29" fill-opacity=".5" d="M192 164h19v3h-19z"/><path fill="#535d68" fill-opacity=".5" d="M169 126.4l-19.6-1.2 12.1-1.9 42.1 15.9z"/><path fill="#213856" fill-opacity=".5" d="M38 136h35v3H38z"/><path fill="#4b5662" fill-opacity=".5" d="M148.8 120.8l24.1-6.5.3 1-24.1 6.4z"/><ellipse cx="5" cy="134" fill="#182d47" fill-opacity=".5" rx="18" ry="2"/><path fill="#233a54" fill-opacity=".5" d="M217.6 143.5l1-9 37.8 4-1 9z"/><path fill="#446183" fill-opacity=".5" d="M55 148l-10-10-30 3z"/><path fill="#3d5775" fill-opacity=".5" d="M156 160l-5-9 35 4z"/><ellipse cx="11" cy="87" fill="#a9b8c0" fill-opacity=".5" rx="41" ry="17"/><path fill="#304864" fill-opacity=".5" d="M151.6 113.3l-33.2 23.4 58.7.8-45.2-24.3z"/><path fill="#5c7b99" fill-opacity=".5" d="M162.5 139.9v1l-45-.8v-1z"/><path fill="#203854" fill-opacity=".5" d="M83.6 139.5l10.7 7.2-3.9 5.8-10.7-7.2z"/><path fill="#263e5a" fill-opacity=".5" d="M87 146.3l10 1.4-35.3.8-22.2 12.4z"/><path fill="#8b9497" fill-opacity=".5" d="M186 104h70v9h-70z"/><path fill="#516e90" fill-opacity=".5" d="M5 162h15v2H5z"/><circle r="1" fill="#95aec2" fill-opacity=".5" transform="rotate(101 4 52.5) scale(11.91201 74.89712)"/><ellipse cx="22" cy="160" fill="#476385" fill-opacity=".5" rx="10" ry="3"/><circle r="1" fill="#3f5c7a" fill-opacity=".5" transform="matrix(-15.136 -.18493 .01222 -.99993 245.2 134.9)"/><path fill="#f9efe0" fill-opacity=".5" d="M168.7 113.8l-.9.5-6.5-10 .9-.6z"/><path fill="#d8c9b3" fill-opacity=".5" d="M175 118h4v3h-4z"/><path fill="#bdb09e" fill-opacity=".5" d="M180.5 107l-2 .4-7-36.4 2-.4z"/><path fill="#3e4e65" fill-opacity=".5" d="M162.4 91.5l-9.9 27.3-1-.3 10-27.3z"/><path fill="#426083" fill-opacity=".5" d="M82 130h37v2H82z"/><ellipse cx="171" cy="84" fill="#575757" fill-opacity=".5" rx="1" ry="21"/><path fill="none" stroke="#d3caba" stroke-opacity=".5" stroke-width=".5" d="M198 124.2q-28.4.8-47.3-4"/><path fill="#415f84" fill-opacity=".5" d="M45 125l19 2-24 10z"/><path fill="#243a53" fill-opacity=".5" d="M109.8 158.2l-11.7-1.6 25.5 28.4h7.8z"/><path fill="#1d344b" fill-opacity=".5" d="M34 165h20v5H34z"/><path fill="#162a3e" fill-opacity=".5" d="M166 159h45v3h-45z"/><circle r="1" fill="#6488af" fill-opacity=".5" transform="matrix(-2.74538 8.92398 -70.2654 -21.61646 151.4 0)"/><circle r="1" fill="#5c646a" fill-opacity=".5" transform="rotate(63.6 4.5 192) scale(12.74754 1)"/><ellipse cx="220" cy="126" fill="#1f354b" fill-opacity=".5" rx="39" ry="1"/><circle r="1" fill="#7d99ad" fill-opacity=".5" transform="matrix(-39.847 -13.44848 6.08052 -18.0162 217.5 57.3)"/><path fill="#446181" fill-opacity=".5" d="M59 153h38v6H59z"/><path fill="#1b3048" fill-opacity=".5" d="M82 160h20v6H82z"/><path fill="#172b43" fill-opacity=".5" d="M8 144h18v2H8z"/></g></g></svg>