<svg xmlns="http://www.w3.org/2000/svg" viewBox="0 0 1800 1200"><defs/><filter id="a"><feGaussianBlur stdDeviation="12"/></filter><rect width="100%" height="100%" fill="#7a5e44"/><g filter="url(#a)"><g fill-opacity=".5" transform="translate(3.5 3.5) scale(7.03125)"><circle r="1" fill="#f9db7a" transform="matrix(-16.27193 113.32447 -206.34292 -29.62817 115 111.4)"/><circle r="1" fill="#c3d8ff" transform="matrix(-.61738 -17.67935 254.27342 -8.87942 172.8 166)"/><circle r="1" fill="#8f5e10" transform="rotate(-90.3 106.8 -26.1) scale(41.62062 57.95241)"/><ellipse cx="171" cy="6" fill="#c2a200" rx="255" ry="17"/><circle r="1" fill="#d3edff" transform="matrix(-74.54044 -.298 .03814 -9.539 113.8 30)"/><ellipse cx="21" cy="89" fill="#9d5700" rx="17" ry="61"/><path fill="#ffe4b7" d="M213 26l9 159 31-141z"/><path fill="#9e5b25" d="M166 59h35v97h-35z"/><circle r="1" fill="#ffd05b" transform="matrix(13.467 -15.78801 25.37408 21.64382 54.8 52)"/><circle r="1" fill="#ffd47e" transform="matrix(10.44956 -36.3262 16.80002 4.83268 68.7 121.7)"/><path fill="#d8ffff" d="M172 24l-3 44 18-27z"/><path fill="#b6cdf8" d="M227.9 163.6l7.9-37.2 28.3 6-7.9 37.2z"/><circle r="1" fill="#b38f00" transform="matrix(1.403 -18.86221 116.04942 8.63196 188 7.8)"/><path fill="#5b5400" d="M271 141.8l-30.5-38.4L271-2.8l-8.2 152.7z"/><path fill="#8a979b" d="M147 41h13v110h-13z"/><path fill="#672f42" d="M19 76h52v16H19z"/><circle r="1" fill="#b05500" transform="matrix(-1.57935 -22.69222 19.07788 -1.3278 110.2 104.2)"/><path fill="#b8a100" d="M77 44h73v18H77z"/><path fill="#132059" d="M103 67h29v12h-29z"/><path fill="#b1d9fe" d="M-9.8 47.3L-15.7 19l44.4 4L9.3 35.8z"/><circle r="1" fill="#c1c4d1" transform="matrix(1.70462 28.4097 -52.2612 3.13574 109 169)"/><ellipse cx="71" cy="4" fill="#b59800" rx="254" ry="18"/><path fill="#7f4c3e" d="M187 55l-46 43 85-9z"/><circle r="1" fill="#87989f" transform="matrix(-17.46995 2.1141 -7.19067 -59.42049 0 139.6)"/><path fill="#edd4ae" d="M194.7 62.8l38.7 25 11.8-58-55 30.8z"/><ellipse cx="193" cy="86" fill="#c4bcbd" rx="12" ry="9"/><circle r="1" fill="#ad7700" transform="matrix(-7.58612 -2.86656 11.87134 -31.4166 198 27.6)"/><path fill="#bdbfc4" d="M165 112.7l-1 15-33-2.4 1-15z"/><path fill="#a17c00" d="M271 70l-63-86 63 9z"/><ellipse cx="127" cy="34" fill="#d2e9ff" rx="59" ry="4"/><path fill="#001a64" d="M244 97h12v12h-12z"/><path fill="#c6d7f2" d="M144 159h95v11h-95z"/><path fill="#d0a365" d="M194 91h30v67h-30z"/><path fill="#b17900" d="M4 39h23v44H4z"/><path fill="#826c77" d="M129 66l-35 7 26-29z"/><path fill="#b87c37" d="M23 92h22v67H23z"/><path fill="#304037" d="M138 77.2l2.8 2.1-.9 15.8 26.5 6.2z"/><path fill="#d19e00" d="M241.4 94l14-40.6 13.2 4.6-14 40.6z"/><ellipse cx="166" cy="82" fill="#bf7900" rx="5" ry="43"/><path fill="#a9caed" d="M6 103l-22-1L1 37z"/><path fill="#b1701a" d="M170 85l-4 60 32 14z"/><path fill="#c4d1e5" d="M171.8 66.6l17.3-43.5-42.4 4.4 21.4-3.3z"/><path fill="#f4c76e" d="M29.3 71.5l57.9 8.3L58 19.5 48.9 21z"/><path fill="#9d8c7b" d="M86 123h80v21H86z"/><path fill="#d3e6ec" d="M11 22h92v3H11z"/><path fill="#962107" d="M215.8 91.9l4.1 1.8-15.7-29.2 3.9 24.7z"/><path fill="#6c280d" d="M170.7 65.6l-8.2 19.3 12.4 7.6 16-30.5z"/><path fill="#001759" d="M-6.9 118.2l-.2-8 14-.4.2 8z"/><ellipse cx="122" cy="7" fill="#bfa000" rx="75" ry="16"/><circle r="1" fill="#b58f00" transform="matrix(-9.27207 -20.21116 5.57765 -2.5588 86 62.2)"/><path fill="#bb6521" d="M76.4 89.6L54.9 74.5l61.8 6.6-50.5 9.8z"/><circle r="1" fill="#d59949" transform="matrix(-6.26963 -.63685 2.98891 -29.42532 132 105)"/><path fill="#a57e00" d="M186 0h14v42h-14z"/><path fill="#868682" d="M260.6 111.8l-5.8 23.3-19.4-4.9 5.8-23.3z"/><path fill="#a48200" d="M271-1v52.8l-57.8-35.5L60.2-16z"/><circle r="1" fill="#dbc1a3" transform="matrix(16.5055 9.26245 -3.23334 5.76175 233.3 36.3)"/><path fill="#7e7d66" d="M90 38h78v4H90z"/><path fill="#470c03" d="M11 89l19-10 5 12z"/><path fill="#eabd6f" d="M43 93h42v57H43z"/><path fill="#bea000" d="M75 43h70v8H75z"/><ellipse cx="29" cy="55" fill="#c79639" rx="11" ry="25"/><path fill="#c29352" d="M33 108h23v51H33z"/><path fill="#bf8d45" d="M203.8 96.2l-42-8 44.6 73.7-1.1-69.8z"/><path fill="#896020" d="M118 122l-32 2 3-49z"/><path fill="#aaaba8" d="M148 39h4v52h-4z"/><path fill="#b5bad1" d="M104 63l-1 11-9-14z"/><ellipse cx="223" cy="124" fill="#e4c17f" rx="13" ry="30"/><path fill="#ac9da9" d="M119 72l5-19-11 5z"/><path fill="#ebc278" d="M223 113l26-33-31-7z"/><path fill="#d2ebff" d="M96 24h91v2H96z"/><path fill="#977980" d="M41 76l45 11-43 6z"/><circle r="1" fill="#e2c699" transform="rotate(15.3 -103.1 869.6) scale(26.36462 22.17812)"/><path fill="#9b6a08" d="M4 40h11v61H4z"/><path fill="#ce9a4e" d="M212.4 22.5L228.5 33l-30.9 23.9-22.5 7.7z"/><circle r="1" fill="#b4b8bc" transform="matrix(-3.4608 13.48199 -46.55225 -11.94985 15.3 167)"/><path fill="#be6f0d" d="M93 80h38v31H93z"/><path fill="#aea9a2" d="M87.7 135.1l91.4 19 31.4 7.2-132.2-8.9z"/><path fill="#b49400" d="M142 53h6v29h-6z"/><ellipse cx="34" cy="1" fill="#bea505" rx="130" ry="20"/><ellipse cx="190" cy="79" fill="#9d8a7a" rx="11" ry="9"/><path fill="#efc875" d="M55.8 97.9l28.4-17 .2-6.6-30.1 36.2z"/><path fill="#97642e" d="M20 150l19 8-4-24z"/><path fill="#b6a800" d="M161 41h8v29h-8z"/><path fill="#684821" d="M120 50l-12 2-2 17z"/><path fill="#a89f67" d="M86 99h8v28h-8z"/><ellipse cx="90" cy="86" fill="#062742" rx="3" ry="5"/><path fill="#dbad58" d="M63.7 26.7L33.3 23l-11.6 7.1L72.5 39z"/><path fill="#4c1b0c" d="M203.8 68.5l-1 2.8-20.6-7.8 1-2.8z"/><path fill="#cbcdce" d="M47 159h113v11H47z"/><path fill="#b6bdc6" d="M271 116.2l-38.3 21.7 3.4 47.1 27.8-17.5z"/><path fill="#cbdbef" d="M70 29h96v7H70z"/><path fill="#b4b9ac" d="M159 25h2v59h-2z"/><path fill="#bb9c00" d="M83 68l-7-21 50-5z"/><circle r="1" fill="#cbdaeb" transform="matrix(4.06316 1.51915 -6.76662 18.09815 178.3 45.1)"/><path fill="#a03f1a" d="M206.3 68.9l18 23.9-11.9-2.4-6.3-1.5z"/><ellipse cx="202" cy="16" fill="#a68300" rx="44" ry="8"/><path fill="#edc771" d="M71.4 71.6l-29.9 2.5L67.3 28l22.3 58.9z"/><path fill="#773f27" d="M133 78l-6-15 11 3z"/><path fill="#817b6b" d="M72 38h46v6H72z"/><path fill="#af4f0b" d="M164.4 80.7l-11.6-.7 14.4 13 24.6-56.2z"/></g></g></svg>