<svg xmlns="http://www.w3.org/2000/svg" viewBox="0 0 1800 1800"><defs/><filter id="a"><feGaussianBlur stdDeviation="12"/></filter><rect width="100%" height="100%" fill="#2a3951"/><g filter="url(#a)"><g fill-opacity=".5" transform="translate(3.5 3.5) scale(7.03125)"><ellipse cx="110" cy="97" fill="#b09589" rx="167" ry="137"/><circle r="1" fill="#aad0ff" transform="matrix(-16.40805 61.28937 -32.49632 -8.69973 154.4 157.6)"/><circle r="1" fill="#624e45" transform="rotate(-170.8 18 87.4) scale(78.95539 167.90158)"/><circle r="1" transform="rotate(7.9 -1637.4 1543) scale(21.12625 41.13122)"/><path fill="#fffacd" d="M1.5-19l33.8 9.1L26.5 23l-33.8-9.1z"/><ellipse cx="150" cy="45" fill="#453f37" rx="103" ry="23"/><circle r="1" fill="#47647e" transform="rotate(135.2 90.1 140) scale(56.46174 81.45881)"/><path fill="#ba7c8d" d="M62 70h70v51H62z"/><circle r="1" fill="#ebc8a2" transform="rotate(-89.1 68 -59.5) scale(8.36824 41.92114)"/><circle r="1" fill="#445d76" transform="matrix(-57.27443 12.19007 -9.12274 -42.86277 104.9 232.1)"/><path fill="#e1b5bb" d="M211 87l7-28-65 24z"/><path fill="#0e0609" d="M52 188h22v49H52z"/><circle r="1" fill="#afcefb" transform="matrix(-6.69388 -24.63756 7.61192 -2.06811 134.7 217.6)"/><path fill="#9f001b" d="M182.2-10.3l43.2-3.6.3 92.8-11.2-45.6z"/><path fill="#d79653" d="M29 159h22v62H29z"/><path fill="#fffff2" d="M129-16L55 12l-4-28z"/><path fill="#e2f1ff" d="M147 100h24v42h-24z"/><path fill="#18253d" d="M129.2 141.1l16.8-9.8 3-13.3-17.8-13.7z"/><ellipse cx="178" cy="32" fill="#bdab78" rx="10" ry="29"/><circle r="1" fill="#b4dfff" transform="matrix(5.14713 2.49931 -8.71962 17.95735 126.7 104)"/><circle r="1" fill="#ac4452" transform="matrix(-24.59444 44.68783 -13.71517 -7.5483 210.7 91.7)"/><path fill="#0f1c23" d="M144 97l-9-83 27 67z"/><circle r="1" fill="#3d627c" transform="matrix(10.4913 94.52704 -21.2317 2.35645 7.4 198)"/><circle r="1" fill="#930016" transform="matrix(29.20957 16.57567 -2.46365 4.34144 95.3 117.6)"/><ellipse cy="59" fill="#3b4d1a" rx="27" ry="47"/><path fill="#3d060d" d="M86 95h32v13H86z"/><circle r="1" fill="#5b6775" transform="matrix(-26.96202 -9.99542 36.60944 -98.75169 244.3 239.7)"/><circle r="1" fill="#406c91" transform="rotate(149.3 25.2 95.4) scale(18.44038 39.38653)"/><circle r="1" fill="#910525" transform="matrix(-18.7473 21.26463 -4.55726 -4.01777 78.7 17.9)"/><path fill="#dff0fd" d="M103 98l-5-19 20-7z"/><path fill="#97b9e1" d="M161 188h11v42h-11z"/><path d="M155 157h8v10h-8z"/><path fill="#ffff68" d="M54 164h10v13H54z"/><path fill="#c9ddf7" d="M141 99l58 3-37 19z"/><circle cx="40" cy="138" r="25" fill="#3f3f34"/><path fill="#964951" d="M24.6 71.8l2.9-46 15.6-41.4 32.5 75.5z"/><path fill="#a7937b" d="M33.3 49.5l33.5 9.4.4 12.8L7.5 56.2z"/><path fill="#b9bbd7" d="M165.6 126.8L129.3 90l54.6 27.2-24.6-54.6z"/><ellipse cx="97" cy="36" fill="#c1c9a7" rx="24" ry="3"/><path fill="#47647f" d="M212 125.2l59 58.4L170.9 208l.9-19.8z"/><circle r="1" fill="#ffff85" transform="matrix(3.86876 -4.69258 2.96781 2.44678 36.4 91.6)"/><circle r="1" fill="#1b2743" transform="rotate(105.1 -9.6 21.3) scale(15.15879 22.90277)"/><path fill="#6a9ed2" d="M233 104.6l8.4-30.4 29.6 84.9-8.5-84.6z"/><path fill="#a1bae6" d="M164.6 165.2l-1.2 33-42-1.4 1.2-33z"/><path fill="#a7afc8" d="M122 123l20-27-21-34z"/><path fill="#101504" d="M231.6 110.1l-7 .7-2.2-25 7-.6z"/><path fill="#243536" d="M87 21h75v12H87z"/><path fill="#dbd8b8" d="M83.1 22.8L79.5 18l39.4-30.8 3.6 4.8z"/><path fill="#43565c" d="M237 0h19v81h-19z"/><path fill="#213635" d="M87 58l92 15-67-32z"/><path fill="#04141b" d="M201.4 59.7l-1.8-33 9-.4 1.8 33z"/><path fill="#7b926c" d="M132.1 77.3l-86.8-3.9 78.4-8.9L138.1-16z"/><path fill="#f4ffff" d="M-3.8-8.4l33.5 6-2 10.8-33.4-6z"/><ellipse cx="104" cy="222" fill="#44596a" rx="23" ry="57"/><path fill="#b5acbb" d="M80.9 78.7l-4.6 20.1 29.7 23.7-20-21.3z"/><path fill="#000b18" d="M53 6.2L35 8.7 33-6.2l17.8-2.5z"/><path fill="#a2001e" d="M223 62l-3 27-22 19z"/><path fill="#b3b2aa" d="M162 74l54-13-6 24z"/><path fill="#a4caf4" d="M106.8 104.3l13.4 25.1 13.3-8.8-.9-1z"/><path fill="#9a508b" d="M24 248h55v7H24z"/><circle r="1" fill="#0c1319" transform="rotate(-151.8 127.5 86) scale(19.54773 22.9001)"/><path fill="#572c40" d="M193.1 103.8l-13.9-19.9-6.5 24.1 33.1-37.5z"/><path fill="#4a4a61" d="M132.9 82.1l9.2 37.3 13.7 1.1-24.8 26.3z"/><path fill="#eaffff" d="M170 225h7v5h-7z"/><path fill="#a2737b" d="M33 130h10v70H33z"/><path fill="#b7cce6" d="M139.7 140.6l21.7-25.2-20 42.5-26.2 1.3z"/><path fill="#570013" d="M78 5L57 29 95 4z"/><circle r="1" fill="#950b2e" transform="matrix(19.47544 22.7967 -2.49562 2.13203 73.8 101.1)"/><circle r="1" fill="#432119" transform="rotate(168.9 3 99.8) scale(2.7235 24.32893)"/><path fill="#707132" d="M44.5 64.6l-17.8 38.1-37.2-17.3L7.3 47.3z"/><circle r="1" fill="#8aa1be" transform="matrix(-11.2208 -10.88268 5.29891 -5.46355 138 233)"/><path fill="#5c3647" d="M183 114h10v39h-10z"/><path fill="#4f5a6a" d="M63.6 188l24.5 33.7 66-40-42.7 12.4z"/><ellipse cx="52" cy="251" fill="#446876" rx="9" ry="33"/><path fill="#b2cac3" d="M169.3 15.7L99.6 2.2l1.1-6 69.7 13.6z"/><path fill="#c19c9a" d="M226 33h4v47h-4z"/><path fill="#701a2e" d="M107.5 107.9l7.1-25.4-1.9-20.5 11.5 33.1z"/><path fill="#cda1a2" d="M227 95.3l-16 1.2 6.3 12.2-18.5 3.6z"/><path fill="#a98a54" d="M179 49.4l-13 .2-1-57 13-.2z"/><circle r="1" fill="#353638" transform="matrix(-15.32155 -31.10609 7.6757 -3.78072 162.8 240.9)"/><path fill="#d30de5" d="M34 167l5 7 9-10z"/><circle r="1" fill="#192c28" transform="matrix(-2.23942 17.35812 -4.36285 -.56286 76.7 45.5)"/><path fill="#141e2f" d="M29 33l10-12 20 5z"/><path fill="#c2756c" d="M8.6 6.1l52.2 14-24 2.4-52.8-6.6z"/><path fill="#6a9ecf" d="M153.9 60.5l1.3-12 8.9 1-1.3 12z"/><circle r="1" fill="#495a75" transform="matrix(1.87549 1.71628 -15.24157 16.65543 146.2 160.8)"/><path fill="#3a3131" d="M79.4 191.6L52 106.2l-3 19.6 4 24.6z"/><path fill="#4f2731" d="M185.7-16l3 33.5 38.7-5.5-2.8-28z"/><path fill="#b38607" d="M202 62h9v13h-9z"/><path fill="#939c2e" d="M29 174h41v12H29z"/><ellipse cx="238" cy="97" fill="#79a3d1" rx="4" ry="21"/><circle cx="124" cy="78" r="5" fill="#e8faff"/><path fill="#27324a" d="M152.7 118.5l.8-.6 11.8 13.6-.8.6z"/><path fill="#3f4c4b" d="M249.1 83.8l-17.9 51.4L271 137l-21.6-15.1z"/><path fill="#ae09af" d="M38.3 200.7l-7-8.4 8.4-7 7 8.4z"/><path fill="#2f252a" d="M52.4 183l42 44.3-42.5-10.7-1.6-68.5z"/><path fill="#6b7b3d" d="M86.4 63.5l39.5-8.3-56.6 30.1-3.6-41z"/><path fill="#2e2e28" d="M29.4 149.4l-4.8 1.3-22-82.1 4.8-1.3z"/><path fill="#7e8f8e" d="M201.8 36.1l-22.6 32.4 9.5-54.2-8.5 19.9z"/><path fill="#210f1e" d="M141.6 115.2l-.8.7-24.4-29.1.8-.7z"/></g></g></svg>