<svg xmlns="http://www.w3.org/2000/svg" viewBox="0 0 1800 1200"><defs/><filter id="a"><feGaussianBlur stdDeviation="12"/></filter><rect width="100%" height="100%" fill="#59383f"/><g filter="url(#a)"><g fill-opacity=".5" transform="translate(3.5 3.5) scale(7.03125)"><circle r="1" fill="#8adfff" transform="matrix(137.07623 -94.80592 91.2629 131.95351 125.5 74.9)"/><circle r="1" fill="#1f427d" transform="matrix(-254.99029 -2.22527 .27444 -31.44813 145.4 143.8)"/><circle r="1" fill="#9db3de" transform="matrix(-254.91262 6.67512 -1.58838 -60.65796 134 45.8)"/><path fill="#4d2010" d="M66 87h24v30H66z"/><circle cx="11" cy="35" r="78" fill="#97adcc"/><ellipse cx="233" cy="142" fill="#3e5b81" rx="86" ry="30"/><circle r="1" fill="#8095b3" transform="rotate(78.6 45.3 165.4) scale(18.906 95.79474)"/><ellipse cx="21" cy="155" fill="#52739f" rx="61" ry="43"/><path fill="#6f4f46" d="M88.7 76.7l-3.6 22.8-13.8-2.2 3.6-22.8z"/><circle r="1" fill="#b0bdd2" transform="matrix(-29.49492 -5.90298 2.28554 -11.41996 70.9 17)"/><circle cx="240" cy="34" r="78" fill="#7c9abc"/><circle r="1" fill="#8a9ab7" transform="matrix(-34.7237 -14.14789 6.37669 -15.65055 36.5 92.8)"/><path fill="#98919a" d="M64 75h27v14H64z"/><path fill="#423036" d="M88.8 88.4l-22.5 2.3 12.6 14.9 1.8-11.1z"/><circle r="1" fill="#95adcc" transform="matrix(39.86391 -10.01708 2.81394 11.19832 128.7 21.7)"/><path fill="#8496b7" d="M88 90h103v23H88z"/><circle r="1" fill="#7199c8" transform="matrix(-.05362 3.8403 -130.80463 -1.8265 79.3 .2)"/><circle cx="255" cy="147" r="35" fill="#3e5b7f"/><ellipse cx="219" cy="94" fill="#8294b2" rx="38" ry="18"/><path fill="#343735" d="M78 112h18v4H78z"/><circle r="1" fill="#88a4c5" transform="rotate(91.2 33 78.9) scale(21.69434 78.13378)"/><ellipse cx="96" cy="169" fill="#335077" rx="26" ry="4"/><circle r="1" fill="#5f4d51" transform="matrix(-3.87567 2.63746 -1.77462 -2.60774 87.5 100)"/><ellipse cx="21" cy="102" fill="#8699ba" rx="46" ry="11"/><circle r="1" fill="#a0b3cd" transform="matrix(-.02232 -14.5974 29.60624 -.04527 61.4 16.1)"/><ellipse cx="26" cy="169" fill="#56769e" rx="29" ry="22"/><circle r="1" fill="#86a6ce" transform="matrix(37.9106 -.51678 .13491 9.89705 17.7 12.6)"/><circle r="1" fill="#7799bd" transform="rotate(77.3 107.4 168) scale(21.47318 32.31351)"/><ellipse cx="46" cy="137" fill="#4d6c95" rx="51" ry="25"/><circle r="1" fill="#45648a" transform="matrix(38.29383 1.33725 -1.10384 31.60986 198.6 143.2)"/><path fill="#74615f" d="M74 112l-2.4 3.2-10.3.8L96 83z"/><path fill="#7b9ec9" d="M133.4 3.6l-2.6 14.7-56.2-9.9 2.6-14.7z"/><circle r="1" fill="#889fbb" transform="matrix(3.07148 18.96443 -65.42608 10.5964 176.4 72.7)"/><path fill="#7e89a9" d="M82 101h3v12h-3z"/><path fill="#46658e" d="M118.3 113.7l40-1.4 1.4 40-40 1.4z"/><path fill="#a6b4c9" d="M136.9 19.3L129 9.5l7.6-.1 34.6-1.8z"/><circle r="1" fill="#284467" transform="rotate(-2.1 4590.5 -6171) scale(29.76962 1)"/><ellipse cx="81" cy="91" fill="#2c2d3a" rx="10" ry="2"/><ellipse cx="19" cy="124" fill="#4a6c98" rx="51" ry="11"/><path fill="#3d5a83" d="M208 113h48v7h-48z"/><path fill="#8fa3be" d="M-8.6 102l82.7-15.1 2.3-34.7-92.4 25z"/><path fill="#3e242a" d="M86.6 100.4l-.4.9-12.8-5.7.4-.9z"/><path fill="#8a7879" d="M72.9 97.5l21.2-6.8-30.6-15.1L94 96.2z"/><path fill="#8095b6" d="M89 100h64v13H89z"/><path fill="#b39592" d="M68 60h2v28h-2z"/><path fill="#b5bdcd" d="M61.3 8L67.6.2 84.7 14l-6.3 7.8z"/><path fill="#313d4e" d="M83.6 119.4l-5-3.4-9.7-7.8 17.7 5.9z"/><path fill="#4e6b93" d="M79.9 167.3L62 178.5l-26.1-64.1 78.1 40.7z"/><ellipse cx="68" cy="105" fill="#bb502c" rx="1" ry="7"/><path fill="#5d4243" d="M84 109L68 95l10-2z"/><circle r="1" fill="#82a0c3" transform="matrix(-5.99535 -15.00756 59.6488 -23.82903 178.6 23.9)"/><ellipse cx="195" cy="158" fill="#4b698e" rx="52" ry="6"/><path fill="#575174" d="M196 108h5v6h-5z"/><ellipse cx="186" cy="169" fill="#3b5a7e" rx="31" ry="5"/><path fill="#527097" d="M170.4 171.5l-54.1-18.1 58.8-3.2-62.1 9.2z"/><path fill="#8da5c3" d="M76 42l17 48 33-39z"/><ellipse cx="27" cy="121" fill="#6180a8" rx="130" ry="1"/><path fill="#3d5c81" d="M198.5 164.3l-28.6-20.1-.2 2.8 47.6-3.2z"/><path fill="#55749b" d="M11 148h66v8H11z"/><circle r="1" fill="#1a3858" transform="rotate(177.3 113 85.5) scale(5.69159 1)"/><circle r="1" fill="#869bb9" transform="matrix(22.18565 -.42599 .20402 10.62557 46.8 104.3)"/><ellipse cx="3" cy="30" fill="#8eaacc" rx="38" ry="23"/><ellipse cx="151" cy="138" fill="#4b6a91" rx="96" ry="4"/><path fill="#7f94b4" d="M94.5 114.5l51-3-57.6-19.6 9.7 8.9z"/><path fill="#325178" d="M44 145h21v2H44z"/><ellipse cx="78" cy="107" fill="#8a615c" rx="9" ry="2"/><path fill="#7d584d" d="M75 82h6v3h-6z"/><path fill="#544d55" d="M101.3 119l-24.6-16.3 15.4 13.1-.6-2.1z"/><path fill="#7d9fc9" d="M29 9.5l-45-6.8h88.7l10.1-13.6z"/><path fill="#1d1f28" d="M78 108.6l1-.1 1 9h-1z"/><path fill="#a5b4cc" d="M24.6 19.8l92.1-5.8-54.9 2.6-2.1 12.2z"/><path fill="#345175" d="M180 151h61v2h-61z"/><ellipse cx="72" cy="64" fill="#8da5c4" rx="3" ry="25"/><path fill="#738aae" d="M202 105h54v8h-54z"/><path fill="#3b5a81" d="M119 162h22v5h-22z"/><path fill="#204066" d="M113 169h18v1h-18z"/><circle r="1" fill="#6e6973" transform="matrix(1.20637 -.33915 1.56282 5.5589 69.4 88.7)"/><path fill="#92736e" d="M77.6 111.4L66.3 99.9l7.6 9.3 4-15.7z"/><circle r="1" fill="#7898c0" transform="matrix(50.49305 18.4201 -2.2133 6.0671 174.5 0)"/><path fill="#8fa7c7" d="M77.7 6l14.5 3.5L191 25.4 101.5 24z"/><circle cx="86" cy="98" r="2" fill="#4a2220"/><circle cx="84" cy="83" r="5" fill="#82828b"/><path fill="#7597c2" d="M125.2 1.6l51.9-11 1.7 7.8-51.9 11z"/><path fill="#3c5b81" d="M129 146h17v7h-17z"/><path fill="#7d93b2" d="M76.4 110.7l135.2-2.1-9.4 4.4L271 89z"/><path fill="#5e4541" d="M67 95h13v4H67z"/><path fill="#5a789d" d="M223 169h33v1h-33z"/><circle cx="68" cy="90" r="2" fill="#4b3b45"/><path fill="#252732" d="M72 90h6v5h-6z"/><ellipse cx="81" cy="117" fill="#424f6d" rx="11" ry="2"/><path fill="#aca6af" d="M70 70l-4 4 2-17z"/><path fill="#6683a8" d="M26 161h32v2H26z"/><path fill="#819ab7" d="M267.4 46l-6.2 43.5-38.6-5.4 6.2-43.6z"/><path fill="#5c5d5e" d="M64.5 117.7l9.8-.1-5.4-11.5-4.7 7.5z"/><path fill="#7394ba" d="M85 111.2l-.2 1-5.8-1.4.2-1z"/><path fill="#54739c" d="M92 166h31v1H92z"/><path fill="#547399" d="M145 169l37-13h-20z"/><ellipse cx="6" cy="114" fill="#476899" rx="18" ry="2"/><ellipse cx="14" cy="138" fill="#3f628d" rx="20" ry="3"/><path fill="#59789f" d="M115 158h26v4h-26z"/></g></g></svg>