<svg xmlns="http://www.w3.org/2000/svg" viewBox="0 0 1800 1012"><defs/><filter id="a"><feGaussianBlur stdDeviation="12"/></filter><rect width="100%" height="100%" fill="#503641"/><g filter="url(#a)"><g fill-opacity=".5" transform="translate(3.5 3.5) scale(7.03125)"><circle r="1" fill="#97b6a8" transform="matrix(-147.12626 -2.65534 1.87506 -103.89285 125.7 0)"/><circle r="1" fill="#65705f" transform="matrix(5.11383 71.34164 -187.78814 13.46082 103.2 112.1)"/><path fill="#fff" d="M131 30h125v8H131z"/><ellipse cx="87" cy="74" fill="#cdc39d" rx="28" ry="14"/><path fill="#eef7fa" d="M189.3 11.5l-34.6 10.3-29.1 15.4 1.9-15.5z"/><path fill="#eccab1" d="M218.9 51.9l-3.6-19.8 41.8-13.5L271 52.9z"/><path fill="#283d54" d="M44 9h83v24H44z"/><ellipse cx="221" cy="58" fill="#201d23" rx="225" ry="4"/><path fill="#fff3e7" d="M13.6 30.1L-16 25.3l48.6-2.7L7.9 50.4z"/><ellipse cx="140" cy="75" fill="#d2c69e" rx="13" ry="16"/><ellipse cx="69" cy="2" fill="#8ab5ec" rx="80" ry="5"/><path fill="#c4b390" d="M170 61h43v18h-43z"/><path fill="#334148" d="M190.1 11.9l-30.6 13.5 40.1 3.9 47.4.4z"/><path fill="#80421b" d="M100 84h34v30h-34z"/><ellipse cx="172" cy="36" fill="#f4dbc3" rx="48" ry="4"/><circle r="1" fill="#bbcacf" transform="matrix(33.37294 10.61956 -1.1518 3.61963 245 24.7)"/><circle r="1" fill="#372a2a" transform="matrix(24.50629 -5.0764 2.08938 10.08648 234 63.4)"/><path fill="#303940" d="M13 70h47v21H13z"/><circle r="1" fill="#333d3a" transform="matrix(63.73663 13.89683 -3.08333 14.14144 255 102.4)"/><path fill="#000c25" d="M166 9.4l-17-.9 1-18 17 1z"/><ellipse cx="235" cy="77" fill="#a09e88" rx="47" ry="4"/><circle r="1" fill="#555545" transform="matrix(17.90218 28.84887 -10.16842 6.31002 171.8 93.5)"/><circle r="1" fill="#72786d" transform="matrix(-28.17099 15.50785 -8.00845 -14.54786 12.4 110.5)"/><path fill="#141920" d="M60 26h67v6H60z"/><ellipse cx="110" cy="48" fill="#495d80" rx="111" ry="8"/><path fill="#373e24" d="M18 34h34v8H18z"/><ellipse cx="21" cy="30" fill="#f9f0e4" rx="12" ry="4"/><path fill="#a7afa1" d="M40 14h3v82h-3z"/><ellipse cx="234" fill="#6890c0" rx="34" ry="9"/><path fill="#47514e" d="M63 5.8l-9.3-4.7-31 26L86.3 9.2z"/><path fill="#4c5b65" d="M252.2 9L143.5 5l106.1 16.4 21.4-2.9z"/><ellipse cx="53" cy="90" fill="#442291" rx="9" ry="14"/><path fill="#e1d1b6" d="M188 90h4v17h-4z"/><ellipse cx="241" cy="41" fill="#ec8e4e" rx="26" ry="5"/><ellipse cx="111" cy="63" fill="#cab79b" rx="57" ry="2"/><path fill="#cc2525" d="M161.7 94.2l-1.4 20-6-.4 1.4-20z"/><path fill="#876b40" d="M61.4 84.4l33 2.3-1.8 25-33-2.4z"/><ellipse cx="20" fill="#8ea8c6" rx="25" ry="12"/><path fill="#586978" d="M201.4 4l-179 12.6L70.5 28l55.1-6z"/><circle r="1" fill="#616865" transform="matrix(.81284 11.86606 -101.86824 6.97809 38.4 132.3)"/><ellipse cy="16" fill="#383d20" rx="15" ry="7"/><circle r="1" fill="#52332e" transform="rotate(168.2 19.3 61.3) scale(6.40126 32.0791)"/><path fill="#dedfe0" d="M14.1 27.5l1.7 16.9-23.3 1.8 14.6-5.5z"/><path fill="#e9d760" d="M117.3 98.5l4.5-2 5 11-4.6 2z"/><path fill="#d5dee1" d="M230 19l37 2 1 23z"/><path fill="#16252f" d="M255.8 83.1l15.2 40.3-37.5-33.8-19 1.3z"/><path fill="#e4ff57" d="M169 93l1-12h5z"/><path fill="#ada88d" d="M60 78h105v5H60z"/><path fill="#a0b2cc" d="M53 26h6v16h-6z"/><path fill="#fb474e" d="M132 110l4-11-6-10z"/><ellipse cx="250" cy="22" fill="#351f1e" rx="1" ry="59"/><path fill="#758ba8" d="M132 28.2l.5 5-70.4 8.6-.6-5z"/><circle r="1" fill="#505c5e" transform="matrix(-2.26906 -19.8114 104.40912 -11.9583 220.2 128.4)"/><path fill="#3e3732" d="M142.7 118.9L96.1 95.6l9.6-8.9 27.7 33.1z"/><path fill="#953e20" d="M61.7 102.4l-17.9 3.3 6.9 13.6 8.5 3z"/><path fill="#314430" d="M113 68h15v8h-15z"/><path fill="#ebf3f4" d="M133 37l1-16 18 16z"/><path fill="#4f5658" d="M166.4 28.4l25.2-18.1 53.9 17.3-30 1.1z"/><path fill="#fd995a" d="M126 38h101v2H126z"/><path fill="#c3cacc" d="M25 21h2v50h-2z"/><path fill="#21171e" d="M221 54h26v10h-26z"/><path fill="#beb39a" d="M165 65h50v5h-50z"/><circle r="1" fill="#3a492c" transform="matrix(-.11672 24.25113 -.99999 -.00481 74 92.3)"/><path fill="#bcb29b" d="M60.1 63.8l75.5-2.2-8 2.1-74.4 5.2z"/><path fill="#7fa5d4" d="M113 4h38v4h-38z"/><path fill="#5c5643" d="M0 60h59v14H0z"/><ellipse cx="190" cy="72" fill="#264231" rx="59" ry="1"/><path fill="#ac8760" d="M228.6 102.6l-.2-13 7-.2.2 13z"/><path fill="#43546a" d="M187 41h29v18h-29z"/><path fill="#5e4129" d="M155.6 89.2l1.6 13.5 11-12.1 6.5-22.7z"/><path fill="#a4a389" d="M146.1 93.3l15.1-11.6L124.4 66l10.2 24.4z"/><path fill="#191d24" d="M98 24h28v7H98z"/><path fill="#ffe367" d="M85 91h6v6h-6z"/><circle r="1" fill="#eaebe5" transform="rotate(-103.4 84 -49.8) scale(1.72789 23.8923)"/><path fill="#b0b0a7" d="M41 0h2v72h-2z"/><path fill="#9e9a91" d="M36 103l-9-11H7z"/><path fill="#523e42" d="M158.6 113.2l27-38.2 10 20.9-1.8-15z"/><path fill="#939684" d="M270.7 79.7l-36.3 5.2-3.1-26-1.4 17.1z"/><path fill="#474b40" d="M202.5 57.5v31h-3v-31z"/><path fill="#444930" d="M43.8 21.8l-5 6.3-12.6-9.9 5-6.3z"/><ellipse cx="82" cy="71" fill="#3f5840" rx="82" ry="1"/><path fill="#120024" d="M86 98h6v6h-6z"/><path fill="#5e6d78" d="M88 6h23v15H88z"/><ellipse cx="251" cy="59" fill="#50534e" rx="1" ry="60"/><circle r="1" fill="#6a481d" transform="matrix(-2.57023 -11.38271 5.35583 -1.20935 209.4 98.6)"/><path fill="#c1d1d3" d="M140 30h110v8H140z"/><path fill="#f3fbf5" d="M2.5 26.5l29-1v2l-29 1z"/><path fill="#29394d" d="M270 12l-43-3 28 10z"/><path fill="#353d38" d="M15 41h38v3H15z"/><path fill="#1a242e" d="M58 30h24v4H58z"/><circle r="1" fill="#838a84" transform="rotate(-95.5 60.8 -37.7) scale(1.85663 29.05677)"/><path fill="#4c4829" d="M25.2 101.2l12 18.8-13.5-.1 12.7-48.6z"/><path fill="#3a4548" d="M186 7l-11-1 26-10z"/><path fill="#636a6d" d="M180 97.8l.3-2.1-16.7 8.8 62.5 14z"/><ellipse cx="156" cy="27" fill="#4b575d" rx="16" ry="3"/><path fill="#6c7689" d="M130 6l-7 30 9 5z"/><path fill="#bbcbd0" d="M183 2l-13-1-9-13z"/><path fill="#3f4940" d="M152 65h19v12h-19z"/><path fill="#353a35" d="M44 13l8-10 15 5z"/><path fill="#aa716b" d="M-16 34.7v22.7l18.4-.2.4-31.5z"/></g></g></svg>