<svg xmlns="http://www.w3.org/2000/svg" viewBox="0 0 1800 1200"><defs/><filter id="a"><feGaussianBlur stdDeviation="12"/></filter><rect width="100%" height="100%" fill="#594032"/><g filter="url(#a)"><g fill-opacity=".5" transform="translate(3.5 3.5) scale(7.03125)"><circle cx="110" cy="7" r="194" fill="#d1b984"/><circle r="1" transform="rotate(121.8 17.9 46.6) scale(33.19265 14.27706)"/><circle r="1" fill="#c7aa83" transform="matrix(2.75529 29.32322 -245.17036 23.03688 93.1 0)"/><path fill="#121417" d="M169.5 151.7l15.8-10.3 18.8 24.9-25.4-3z"/><path fill="#000006" d="M54.8 164.6L35 180l-9.9-12.6L45 152z"/><path fill="#06080e" d="M109 153h23v13h-23z"/><path fill="#00030b" d="M59 148h20v12H59z"/><ellipse cx="114" cy="53" fill="#b2936a" rx="40" ry="31"/><path fill="#000914" d="M36 88l28-53 20 31z"/><path fill="#121113" d="M214 131h17v13h-17z"/><path fill="#f5c788" d="M3.2 160l-1.4 23 35.7-26.1-12.2-5.3z"/><path fill="#bc9a6c" d="M49.1 32.2l-2.3 44-46-2.4 2.4-44z"/><path fill="#1a1614" d="M-8.1 78.4l-7.9-5.3 39.2 3.6 68.9 8.9z"/><path fill="#5b4b3c" d="M59.4 129.6l-27.3 31.8 29.6-52.1L86.3 151z"/><ellipse cx="227" cy="112" fill="#6b5a44" rx="30" ry="14"/><path fill="#524233" d="M42.9 119.5L18 150.4l-34 15.4 51.7-45.7z"/><path fill="#000311" d="M157 137l18 1v-8z"/><path fill="#6c5842" d="M64.2 185l47.3-37.6 17.4-.1L162 93.5z"/><path fill="#272321" d="M187 140l16-3 21 13z"/><path fill="#d7af7d" d="M132.1 136.1l23-6.6L160 146l-23 6.6z"/><path fill="#4e3e2f" d="M172.1 169.5L147.8 185l2.5-37.3-12.3 6.7z"/><path fill="#716246" d="M256 139l-62 40 37 2z"/><path fill="#bca58e" d="M60 74l7 10 34-11z"/><circle r="1" fill="#a68a63" transform="matrix(-79.30252 29.82567 -8.21777 -21.84995 175.4 22.7)"/><path fill="#6f5a40" d="M164.3 83.2l-22.8-9.7L94 114.9l78-40.2z"/><path fill="#cca676" d="M70.7 100.5l-36.1 41.6-5.3-4.6 36.1-41.6z"/><path fill="#3a403f" d="M81 60l-13 8 8 35z"/><path fill="#d7b07f" d="M101.3 142.6l-22.9 32.8-5.7-4 22.9-32.8z"/><path fill="#292624" d="M90 123l17-9-15 1z"/><circle r="1" fill="#a88d68" transform="rotate(-145.2 111.3 10.1) scale(68.40215 7.27707)"/><path fill="#e3bc90" d="M87 84l10-27-22 21z"/><path fill="#282421" d="M143.8 178.7l-21.7-24-9.7 2.2 9 10z"/><path fill="#bc9a6f" d="M-7.2 103.3L-16 68.6l31.4 34.2 14.2 37.6z"/><path fill="#453b32" d="M33.6 151l35.2-28.6-35.1 20.5 25.1 21z"/><path fill="#b6966a" d="M246.5 153.5l24.5 13.7-69.3-28.5 20.7 4.5z"/><path fill="#ba986e" d="M46.5 155.4l63.7 21.4-55.3-24.6 5.4-28z"/><path fill="#322c28" d="M78 177l16-20 9 25z"/><path fill="#463a2c" d="M118.1 90l-20.2 8.6-2-4.6 20.2-8.6z"/><path fill="#cca777" d="M175.9 135.6L145 159l29.7-15.4 36.5-13.9z"/><path d="M221 111h12v5h-12z"/><path fill="#45423a" d="M193.7 115.6l17.1-17.1 3.6 1.8-5.9 18.8z"/><path d="M28 102l-3 5-4-3z"/><circle r="1" fill="#b9976b" transform="matrix(.03302 2.4793 -29.35082 .39092 214 120.2)"/><path fill="#39322a" d="M194 93l-14 18 22-13z"/><path fill="#0e1214" d="M239 100h13v5h-13z"/><path fill="#000003" d="M61 70L46 82l15-46z"/><path fill="#b6946b" d="M104.1 113.6l29.3 6.2-3.5 16.6-29.3-6.2z"/><circle cx="77" cy="49" r="4" fill="#ffbe88"/><path fill="#332b25" d="M226.5 168.6l-5.4-12.8 16.4 2.9-47.4 17.1z"/><path fill="#363029" d="M38.2 131l-21.9 2-.5-6 21.9-2z"/><path fill="#090a0e" d="M31 89h18v3H31z"/><path fill="#d6ae7b" d="M50 111l-26 17-18-3z"/><path fill="#b7986e" d="M203.8 104.5l-4.8 4.3-71.6-23.1 21.1-2.5z"/><path fill="#d6b281" d="M40 122h16v10H40z"/><path fill="#583a24" d="M77.3 27.3l7.3 24.1 17.5-2.3L65.9 37z"/><path fill="#b69266" d="M229.6 144.2l41.4-9.8-78.3 42.5 78.3-70.1z"/><path fill="#101418" d="M124 144l-2-8 12-2z"/><path fill="#c7a377" d="M78 113l14 2 4 36z"/><path fill="#cda674" d="M173 174.9l6.6-7.2-8.7-4.7 16.7-6.1z"/><path fill="#d0aa73" d="M232 185l30-5-35-19z"/><path fill="#ba966a" d="M112.2 157l30.4-17.4-49.4 16.1 8.2 14.6z"/><path fill="#031010" d="M265.6 160.5l1.7 14-24.9 3-1.7-14z"/><path fill="#766246" d="M187 69l20-9-58-11z"/><path fill="#504436" d="M51.9 117.6l36.6-4.1-4.5-8-19.9 25.2z"/><path fill="#4b3e2b" d="M271 83l-6.9 6 6.9 8.2-35.7-17.6z"/><path fill="#c7a373" d="M22.4 87.1l.7 14.1 9.9-4.9 49 13.4z"/><path fill="#2e2e2c" d="M180.1 160.3h-2l-10.1-1.9 32.5-27.8z"/><path fill="#4d4439" d="M159.2 143.5l7.1-19.1-6.6 7.4 37.8-4.3z"/><path fill="#2b2722" d="M143 115h10v7h-10z"/><path fill="#a78963" d="M3 167h88v3H3z"/><path fill="#bc9c6f" d="M164.5 90.1l-13.3 40.8 28.6-66.6-2-16.5z"/><path fill="#cea97b" d="M143 171l-16-11 14-5z"/><ellipse cx="40" fill="#b99e79" rx="78" ry="31"/><path fill="#211f1a" d="M254.2 74l-.4.8-18-8.7.4-1z"/><path fill="#3b342e" d="M16.1 176.4l59.2-17.1-31.1 2.8L6.4 185z"/><circle r="1" fill="#3a332d" transform="rotate(-33.3 250.7 -150) scale(6.5483 3.19379)"/><path fill="#28231e" d="M47 107h8v5h-8z"/><path fill="#e7b87a" d="M-2.8 144.7l15.9-8.4 2.9 8.8-32-1.3z"/><path fill="#302924" d="M143 157l1 5 17 1z"/><path fill="#27221c" d="M101 102h12v5h-12z"/><path fill="#1d211f" d="M-16 73.5l76.7 10.1-27.2-7.1-9.8 5.7z"/><circle r="1" fill="#2b2623" transform="rotate(58.9 -99 131.4) scale(11.17527 1.78137)"/><circle r="1" fill="#202220" transform="matrix(.61615 -2.71199 5.5477 1.2604 147.2 81.2)"/><ellipse cx="156" cy="155" fill="#e3bd89" rx="7" ry="5"/><path fill="#a98d65" d="M181 78l41 12 29-56z"/><circle cx="100" cy="137" r="3" fill="#0a0201"/><circle r="1" fill="#17110e" transform="matrix(-2.24699 -1.0962 1.29867 -2.66201 28.6 114)"/><path fill="#c09d70" d="M59 105l8 13 22-26z"/><path fill="#504132" d="M83 130h-9l11 18z"/><ellipse cx="170" cy="103" fill="#15191c" rx="6" ry="2"/><path fill="#b9986e" d="M191.4 120.8l17.3 24.4-15.8-31.1-82.9-4.6z"/><path fill="#c3a172" d="M181.2 108.1l-29.5.5 24.3-5.3 14.7-26.1z"/><path fill="#c9a677" d="M256 112l-12 11 3 17z"/><ellipse cx="54" cy="86" fill="#b28b5a" rx="23" ry="3"/><path fill="#0f1920" d="M244 109h12v4h-12z"/><path fill="#584a37" d="M184 93.5l-8-1.1 2-13.9 8 1.1z"/><circle cx="46" cy="135" r="4" fill="#1e1f25"/><path fill="#b7996d" d="M145 38h13v41h-13z"/><path fill="#b3966e" d="M0 56h48v19H0z"/><path fill="#5c4832" d="M131 102l17 13-7-17z"/></g></g></svg>