<svg xmlns="http://www.w3.org/2000/svg" viewBox="0 0 4752 3168"><defs/><filter id="a"><feGaussianBlur stdDeviation="12"/></filter><rect width="100%" height="100%" fill="#47403b"/><g filter="url(#a)"><g fill-opacity=".5" transform="translate(9.3 9.3) scale(18.5625)"><circle r="1" fill="#a0cc99" transform="matrix(-97.97248 -42.99362 52.22447 -119.00745 149.4 32.4)"/><circle r="1" fill="#fdffff" transform="matrix(-67.90936 19.86084 -6.62593 -22.65575 145.7 0)"/><ellipse cx="208" cy="101" fill="#537249" rx="54" ry="78"/><circle r="1" fill="#6f6b5f" transform="matrix(-42.75567 -68.95784 31.48616 -19.52225 74.8 124.3)"/><circle cx="28" cy="28" r="40" fill="#2b412d"/><circle r="1" fill="#c3c0a7" transform="rotate(-162 70.2 48.5) scale(57.51288 8.77263)"/><path fill="#77a082" d="M187 93l-70-49 27-60z"/><path fill="#fff" d="M146-2.5l31.2-16 12.7 25-31.1 16z"/><circle r="1" fill="#3d5d3b" transform="matrix(-1.49582 -24.35187 18.50655 -1.13677 110.6 70.4)"/><circle r="1" fill="#f2f0ff" transform="matrix(-28.01904 -13.30442 5.23932 -11.03398 106.3 3.2)"/><circle r="1" fill="#425a36" transform="rotate(77.2 58.3 186.4) scale(16.09671 77.75361)"/><ellipse cx="100" cy="169" fill="#9b8d7f" rx="34" ry="15"/><circle r="1" fill="#473c3b" transform="matrix(-54.38601 -17.77609 5.8385 -17.86294 65.2 135.4)"/><circle r="1" fill="#7e8a6b" transform="rotate(-121.9 143 1.8) scale(15.72414 26.4469)"/><ellipse cy="46" fill="#131b18" rx="19" ry="58"/><path fill="#97b799" d="M81 29L213 6l-66 39z"/><path fill="#8eb082" d="M160 55l31 1 20 35z"/><circle r="1" fill="#638650" transform="rotate(-38.6 104.7 -47.9) scale(39.34103 18.3757)"/><path fill="#374046" d="M72.7 99.5l7.5-11.4-17.8 24.7L41 68.4z"/><path fill="#342837" d="M199 137l-9 19-41-16z"/><path fill="#46654c" d="M152.9 75.2l-15.1-12.4 31.3-14.4L251.4-16z"/><path fill="#a09faa" d="M37.4 110.3l17.2-1.3-2.8-19.6-6.5 2.3z"/><path fill="#646984" d="M111 41L96 19l15-15z"/><circle r="1" fill="#2a5731" transform="matrix(24.98728 -2.95465 .84862 7.17676 255 10)"/><path fill="#a7a488" d="M178 134l-76 1 35-42z"/><circle r="1" fill="#86a95b" transform="rotate(162.8 119 34.1) scale(42.90504 13.66509)"/><path fill="#3b3e3c" d="M56.8 24.9l45-5.9-72.4-1.3L6.6 70.6z"/><path fill="#3d5039" d="M238.5 108.1l-32.9-37.6 30.2-25.8 35.2 67.6z"/><ellipse cx="180" cy="169" fill="#687e5f" rx="41" ry="9"/><circle r="1" fill="#81af75" transform="matrix(9.17645 10.17743 -15.5855 14.05261 75.2 62.1)"/><path fill="#fff" d="M113-16h39l-31 36z"/><path fill="#5a6860" d="M50-4l36 23-74 3z"/><path fill="#1d2e40" d="M208.4 29.7l-15.1 14.6-7.7-8 15.1-14.6z"/><path fill="#182c3c" d="M34.5 76l17.2-5.9-11 13.5-4.6 53.3z"/><circle r="1" fill="#628140" transform="matrix(-7.7216 10.41138 -39.01097 -28.93248 223.4 108.3)"/><path fill="#a6c37d" d="M103.3 118.9l48.9-29-42.3-7.7 41.2 29.5z"/><path fill="#d4dbe5" d="M64.5-16L80.7 2.6l20.1 26-6.5 7.8z"/><circle r="1" fill="#8b8d53" transform="matrix(34.87384 7.96727 -1.37892 6.03571 103.3 98.1)"/><path fill="#688685" d="M154.6 7.2L150 30.8l-20.6-4L134 3.2z"/><path fill="#8dbb6e" d="M166.3 97.5l9.9-6.5-38.1-16.5 29.4-7.6z"/><path fill="#7f6d7a" d="M147.2 153.4l-27.4 9.4-11-32.2 27.4-9.4z"/><path fill="#72767e" d="M184 120l35-4 16 45z"/><path fill="#f7f7fe" d="M201.9-4l-5.1 2.1-36.7 23.8-5.6-15.5z"/><path fill="#242320" d="M71.8 158l21.8-27.5-34.7 21.1 8.5 7.8z"/><path fill="#405340" d="M163.9 83.6l17.4 20.7-19.2 16-17.4-20.6z"/><path fill="#465356" d="M124 39l-8 11-34-14z"/><circle r="1" fill="#535b6e" transform="rotate(49.8 27 114.8) scale(28.07278 1)"/><path fill="#7d8842" d="M235 38h21v34h-21z"/><path fill="#76a45b" d="M240.7 3l-28 29.9-23.4-21.8 28-30z"/><path fill="#3f573d" d="M92.3 77l5 19.8 32.6-29.9 6.5 17.6z"/><path fill="#707780" d="M24 90l-1 19 32 2z"/><path fill="#a4acb0" d="M115.5 44.2l-4.3-46.5-9.7-13.7 2.2 29.8z"/><path fill="#00000a" d="M40.8 120l-11 1-.6-7 11-1z"/><path fill="#fffffe" d="M102-16H74l28 35z"/><path fill="#6d5e5b" d="M76 111l-26 37 58-31z"/><path fill="#867f72" d="M165.9 185l-58.1-33.6-34.7 5.6 35.2 7.7z"/><path fill="#d5ce63" d="M84 93h23v4H84z"/><circle r="1" fill="#848c72" transform="matrix(-32.52633 -4.11976 .66583 -5.25684 194.9 135.4)"/><path fill="#8db67d" d="M222-16l-48 59-10-24z"/><path fill="#c1b2a1" d="M131.8 154.1l-9 6.3-4.6-6.5 9-6.3z"/><path fill="#263f2e" d="M270.5 179.3l-26.3-29-13.5 14.7-43.7-27.3z"/><path fill="#434c48" d="M139 160l43 4 21-33z"/><path fill="#849e84" d="M154.1-3.8l82.4 28.5-34.4-13.2L130.9-16z"/><path fill="#797861" d="M38 23L17-3l11-7z"/><path fill="#252923" d="M0 30h24v50H0z"/><path fill="#819e79" d="M179 50h12v44h-12z"/><path fill="#63676a" d="M103.2 108.1l3.2-1.4 24.5-.7-47.4-10.9z"/><path fill="#776f75" d="M100 133l67 3 4 25z"/><ellipse cx="104" cy="25" fill="#444e51" rx="1" ry="49"/><circle r="1" fill="#1f1f44" transform="matrix(3.63186 4.74984 -3.83433 2.93183 61 102.7)"/><path fill="#bcd0a8" d="M105 107l-17-6-21 8z"/><path fill="#7f9c7e" d="M88 14L69.1 5.8 63 11.2l6 8.4z"/><path fill="#001131" d="M37 94.4l-4.6-7.8 8.7-5 4.5 7.8z"/><path fill="#7e9960" d="M24.2 73.7l8.7 9.3 12-16.3-2.8-5.5z"/><path fill="#52647b" d="M85 18h24v3H85z"/><circle r="1" fill="#759c6e" transform="matrix(-8.2616 -20.4641 4.32437 -1.7458 219.1 54.3)"/><path fill="#251f1b" d="M101.6 125l-3.5 3.6-5.7-5.6 3.5-3.6z"/><circle r="1" fill="#666d52" transform="rotate(-112 27 8) scale(77.32329 1.44637)"/><path fill="#bcceae" d="M112 108h18v12h-18z"/><path fill="#25371c" d="M256 102l-1 14-21-15z"/><path fill="#353f31" d="M35.2-3.6L51 50.5l-28.3-.8 23.2 10.2z"/><path fill="#5e7e50" d="M65.8 70.9l-6.6-16.8 21 52.8L82 70.2z"/><path fill="#95ae83" d="M47 34h12v6H47z"/><path fill="#4d606b" d="M113.5 19.4l39.2 8.3-.2 1-39.2-8.4z"/><path fill="#272122" d="M168 138h9v15h-9z"/><path fill="#63554e" d="M89 181l-48-35-15 39z"/><circle cx="93" cy="27" r="5" fill="#f9f7fb"/><path fill="#74a0ea" d="M63 87h5v7h-5z"/><path fill="#1a2328" d="M86.2-16.7l-43.7 52-.7-.6 43.7-52z"/><path fill="#2e3336" d="M50.2 22.9l38 15.3-.4 1-38-15.4z"/><path fill="#81a778" d="M210 39l18.9-31.7-33.7 40.6 42 2.4z"/><path fill="#3e5544" d="M147 48l10 21 11-5z"/><path fill="#cbd0d3" d="M105 0h5v29h-5z"/><path fill="#e9f0ec" d="M161.9 23.4l7.9-12.7-.7-4.7-17 20.1z"/><path fill="#59504b" d="M119.9 132.2l-2.3-4.6-12.4-8.3 18 23.3z"/><path fill="#beb7a6" d="M163 130l-14 9-14-15z"/><path fill="#66695b" d="M133 115h60v4h-60z"/><path fill="#383e4a" d="M208.3 166.8l-6.7-22 18.1-5.6 6.7 22z"/><path fill="#f5f6f7" d="M162.8 21.8l-23-37.8-26.4 23.3 51-9.4z"/><path fill="#17253f" d="M143 144.6l-4.7-10 2.7-1.2 4.7 10z"/></g></g></svg>