<svg xmlns="http://www.w3.org/2000/svg" viewBox="0 0 1668 1668"><defs/><filter id="a"><feGaussianBlur stdDeviation="12"/></filter><rect width="100%" height="100%" fill="#262f3d"/><g filter="url(#a)"><g fill-opacity=".5" transform="translate(3.3 3.3) scale(6.51563)"><circle cx="99" cy="66" r="255" fill="#d1f6ff"/><circle r="1" fill="#191f29" transform="matrix(-.46336 33.1834 -254.97513 -3.56036 154.8 188.2)"/><circle r="1" fill="#abcffb" transform="matrix(12.42843 91.92267 -252.70073 34.16648 134.1 44.5)"/><circle r="1" fill="#744010" transform="matrix(21.99744 -17.22235 21.88784 27.9565 158.4 114.4)"/><circle r="1" fill="#daa875" transform="matrix(25.0263 30.60567 -31.5843 25.82652 100.6 122.1)"/><path fill="#000d1c" d="M145.8 190l.4 20-120 2-.4-20z"/><circle r="1" fill="#b0d7f7" transform="matrix(48.29752 -23.81714 16.26902 32.99109 237.3 106.2)"/><ellipse cx="69" cy="165" fill="#7a7673" rx="188" ry="21"/><path fill="#344a62" d="M191.3 181l-5.6 106.8-51-2.7 5.6-106.9z"/><circle r="1" fill="#82b9f0" transform="matrix(.884 -56.27204 159.31277 2.50269 126.5 29.5)"/><ellipse cx="54" cy="167" fill="#ddd6c6" rx="6" ry="27"/><ellipse cx="214" cy="243" fill="#5a88bc" rx="52" ry="29"/><path fill="#cfc2b9" d="M166 179l40-39-39 6z"/><path fill="#011419" d="M225.1 207.5l-105.8 1.7 151.7 7.9v-33.9z"/><path fill="#2682c0" d="M245 190l-8-23-76 14z"/><path fill="#594d4b" d="M121.9 152.2L108.7 171 84 153.8 97.3 135z"/><path fill="#776454" d="M138 88h51v61h-51z"/><path fill="#6e6e77" d="M60 215h133v19H60z"/><path fill="#c9b6a0" d="M59 84h77v47H59z"/><ellipse cx="17" cy="253" fill="#5b86b8" rx="50" ry="43"/><circle cx="31" cy="113" r="32" fill="#a0c7e5"/><path fill="#3c313b" d="M175 167l50-4-43-11z"/><path fill="#ff3f1a" d="M188 197h11v9h-11z"/><path fill="#b29b82" d="M190 98l-48-4 54-19z"/><path fill="#7e7362" d="M32 199l57-10-80-13z"/><path fill="#b1825d" d="M205 145h51v11h-51z"/><path fill="#a68f77" d="M60 101l78-5 3-25z"/><path fill="#d2eafd" d="M189 132h14v18h-14z"/><path fill="#091016" d="M173 196h17v20h-17z"/><path fill="#0b1519" d="M13 173l-2 25-19 10z"/><circle r="1" fill="#78a9de" transform="rotate(174.1 62.9 3.2) scale(255 26.05677)"/><circle r="1" fill="#978e92" transform="rotate(-168 72.6 112.1) scale(18.25792 26.00765)"/><path fill="#36322f" d="M141.6 102.7L136.4 69l7 19.5-10.9 5.8z"/><path fill="#9d7e5d" d="M57 76h9v26h-9z"/><path fill="#9ec2e1" d="M193 43h63v101h-63z"/><path fill="#d8cebe" d="M68 108h67v18H68z"/><path fill="#046097" d="M271 168.1l-11.4 29.3-59 1.5 19.9 6.5z"/><path fill="#0b2233" d="M84 187h53v22H84z"/><path fill="#1f4f6d" d="M136.3 192.6l-7.9-39.5 23.3 22.7 39.1 15.9z"/><path fill="#251d1c" d="M41.8 142.8l3.6-5.9-8.1 13.3 6.3 19.9z"/><path fill="#436b87" d="M261.2 251.3l-21.7-1.4 20.6-34.6-57-3.3z"/><path fill="#0f1016" d="M158 152l5 27-10-14z"/><path fill="#191d26" d="M216 155h16v8h-16z"/><path fill="#0b0b0c" d="M-13.2 154.2l30 11.7L2.6 167l-18.6-3.6z"/><ellipse cx="236" cy="187" fill="#e2c9b3" rx="7" ry="3"/><path fill="#eedfcc" d="M21 150l17 4-15 3z"/><circle r="1" fill="#333031" transform="matrix(.33903 6.46978 -4.02317 .21082 99 138.5)"/><path fill="#817f7e" d="M66.1 166.5l15.8 14.3 49.3 14.3-15.4-10.8z"/><ellipse cx="86" cy="68" fill="#9abfde" rx="113" ry="18"/><path fill="#6e5751" d="M0 144h34v8H0z"/><path fill="#1f3847" d="M62 185l9-8-12-27z"/><path fill="#ba9d84" d="M248 168h3v26h-3z"/><ellipse cx="27" cy="205" fill="#162837" rx="16" ry="7"/><path fill="#f0f4f4" d="M187 144h15v7h-15z"/><path fill="#6a9dcc" d="M192 229h43v27h-43z"/><path fill="#869097" d="M174.8 177.3l-11.9 13.3 41-24.5-37.9 9.5z"/><path fill="#004d83" d="M23.2 188.7l-1.4-2.7 25-12.7 1.4 2.7z"/><path fill="#ccd8d6" d="M167 148h6v26h-6z"/><path fill="#cdbfb0" d="M44 142l49-18 1 21z"/><path fill="#a2c8e7" d="M177 87l-32-5 53-18z"/><path fill="#fcf1e3" d="M65 150h11v4H65z"/><path fill="#cbb5a4" d="M203 147.2l6.4 5.3-8.8 14.2-.6-21.6z"/><path fill="#1779ba" d="M195.3 177.8l41.5-6.2L228 182l-23.1 5z"/><path fill="#be8f5c" d="M140 85l-5-17-4 14z"/><path fill="#867067" d="M72 247h34v9H72z"/><path fill="#26455c" d="M58.9 163.7l16.9-9.7 22.5 13.1-23.1-2.2z"/><path fill="#ccbbab" d="M120 93l17 53h-30z"/><path fill="#312d33" d="M206.8 211.2l-24.8.9 48-25-18.3-3.3z"/><path fill="#16232a" d="M139 160l-9 48 14 11z"/><path fill="#b4a898" d="M133 166h20v4h-20z"/><path fill="#393637" d="M143.4 87.3l-4.3-6 7.1 28.1-14.7-16.9z"/><path fill="#352f2d" d="M25 166h24l-10-14z"/><path fill="#6b819a" d="M132 233h58v19h-58z"/><path fill="#4f5352" d="M136 221h48v8h-48z"/><circle r="1" fill="#001d3f" transform="matrix(30.23527 -1.57866 .21666 4.1495 255 200.2)"/><path fill="#46525c" d="M76.2 210.3l6.9 13.4-22.9-3.3-16.8-11.3z"/><path fill="#6d4346" d="M17 161.7l-8.3-10.6 9.8-.2 8.4 10.3z"/><path fill="#665e56" d="M136 130h36v17h-36z"/><path fill="#aaafa7" d="M201 195h28v2h-28z"/><path fill="#23445f" d="M86 173h53v4H86z"/><path fill="#4a2a2e" d="M120 142h7l-1 7z"/><path fill="#010302" d="M81 197h20v10H81z"/><circle r="1" fill="#1d425a" transform="matrix(-9.50769 -9.54093 2.53887 -2.53002 238.5 178.4)"/><path fill="#607c90" d="M70 180h83v5H70z"/><path fill="#8c8879" d="M-26.6 178.4l-.5-6 77.7-6.8.5 6z"/><path fill="#634e40" d="M238.1 155.8l14.5 1.4-2.2 17.1-8.6-.7z"/><path fill="#00416c" d="M191 180l-16 13 37-14z"/><ellipse cx="205" cy="168" fill="#948579" rx="33" ry="3"/><path fill="#587897" d="M0 211h51v14H0z"/><path fill="#786b61" d="M164 141l30-50-55 36z"/><path fill="#a28f7c" d="M68.3 94.8l15.8-.4L59 75.1l3.4 43.3z"/><path fill="#2d373b" d="M67.5 208.9l28.2-12 7.1-21.3-14.2 7.2z"/><path fill="#0e669d" d="M8.9 186.7l4.1-11.1-29 17.5v-8.3z"/><path fill="#d3bca6" d="M253 164l18-30-19 17z"/><path fill="#005ea4" d="M104 192h14l12 7z"/><path fill="#9cbdd7" d="M0 99h62v46H0z"/><path fill="#c5b6a7" d="M238.8 157.4l-4.7 3.7-13-16.5 4.8-3.7z"/><path fill="#5685af" d="M175 215l48 2 28 28z"/><path fill="#836955" d="M59 146h39v5H59z"/><path fill="#cc4539" d="M195.3 202.3l-3.3 12.8 6.1 1.7-10.2-16.7z"/></g></g></svg>