<svg xmlns="http://www.w3.org/2000/svg" viewBox="0 0 3168 4752"><defs/><filter id="prefix__a"><feGaussianBlur stdDeviation="12"/></filter><rect width="100%" height="100%" fill="#595331"/><g filter="url(#prefix__a)"><g transform="translate(9.3 9.3) scale(18.5625)"><circle r="1" fill="#082502" fill-opacity=".5" transform="matrix(164.8707 -.90089 .22759 41.65073 89.7 228.1)"/><circle cx="112" r="59" fill="#8abd67" fill-opacity=".5"/><path fill="#f4a7a4" fill-opacity=".5" d="M80.5 98.2l8.9-4.7L100 17.2l10.3 112.4z"/><path fill="#f8effc" fill-opacity=".5" d="M47 137l-1 34-39 19z"/><ellipse cx="39" cy="100" fill="#112e16" fill-opacity=".5" rx="43" ry="44"/><path fill-opacity=".5" d="M118.2 66l-13 .8-5.4-104.9 13-.7z"/><circle r="1" fill="#9bdc99" fill-opacity=".5" transform="matrix(1.87906 -16.71184 13.04653 1.46694 34.7 31.3)"/><ellipse cx="109" cy="199" fill="#a26859" fill-opacity=".5" rx="19" ry="23"/><path fill="#fff" fill-opacity=".5" d="M155.9 169.6l20.5 20.5-4.3 4.3-20.5-20.5z"/><path fill="#f5ffff" fill-opacity=".5" d="M62 151h13v15H62z"/><path fill="#ffffed" fill-opacity=".5" d="M67 21l42 35-33-15z"/><path fill="#001c03" fill-opacity=".5" d="M129 155l56 7-28-62z"/><circle r="1" fill="#d1f1b6" fill-opacity=".5" transform="matrix(3.5146 4.66087 -26.09437 19.67687 152.3 19.3)"/><circle r="1" fill="#060408" fill-opacity=".5" transform="rotate(-85.5 89 79) scale(12.50715 30.85075)"/><path fill="#fff" fill-opacity=".5" d="M85 64l6 16 17 6z"/><path fill="#a1c2bb" fill-opacity=".5" d="M-11.6 101.4l22.5-39.9-12-77.5 5.5 63.6z"/><path fill="#2d4000" fill-opacity=".5" d="M103.6 34.7L95 43.1 62.4 9.3 71 .9z"/><circle r="1" fill="#17310e" fill-opacity=".5" transform="rotate(-115.6 84.6 83.7) scale(22.85972 40.76579)"/><path fill="#0c270f" fill-opacity=".5" d="M119-5l31 23h-31z"/><path fill="#fff" fill-opacity=".5" d="M93.9 94.4l5.9 10.2-5.3 4.7-14.7-13.1z"/><ellipse cx="119" cy="29" fill="#c1cbf1" fill-opacity=".5" rx="2" ry="51"/><path fill="#e8ffd0" fill-opacity=".5" d="M142-5L127 5l48-4z"/><circle r="1" fill="#375324" fill-opacity=".5" transform="matrix(-10.26157 -24.89643 29.71356 -12.24705 129.8 92)"/><path fill="#18310c" fill-opacity=".5" d="M69 44l-55 5 85 48z"/><path fill="#e78b73" fill-opacity=".5" d="M73.9 122l36.7 11.3-6.8-17.9-12.8 3.2z"/><path fill="#676c4b" fill-opacity=".5" d="M30.3 141.6l-19.6-19.7 25.6-29.8L52 132.6z"/><circle r="1" fill="#82b88d" fill-opacity=".5" transform="matrix(-1.4575 .0451 -4.78615 -154.68971 123.5 164.8)"/><path fill="#161f10" fill-opacity=".5" d="M5 65l-21 143 37-43z"/><path fill="#eddddb" fill-opacity=".5" d="M129 120l4 14-6 11z"/><path fill="#8ccc53" fill-opacity=".5" d="M104.1-.3L93.9 20.6 61.5-16l-34 37.3z"/><path fill="#e5f2b8" fill-opacity=".5" d="M81 75l1-21 10 20z"/><path fill="#133a1c" fill-opacity=".5" d="M110.2-9.8l1.2 181 7.7 76.9 3.4-90.4z"/><path fill="#963e38" fill-opacity=".5" d="M92 123h18v96H92z"/><path fill="#153713" fill-opacity=".5" d="M127 165h25v91h-25z"/><path fill="#fff7ff" fill-opacity=".5" d="M72 34l22 18 12-6z"/><path fill="#faffcf" fill-opacity=".5" d="M135 19l9.7 2.7-5.7 21.2-9.7-2.6z"/><path fill="#fbd5cb" fill-opacity=".5" d="M115.7 189.9l-.3-2.4-10.4.1 3.8-14.6z"/><path fill="#c2d6a9" fill-opacity=".5" d="M66 157l3-12 29 20z"/><ellipse cx="124" cy="19" fill="#304414" fill-opacity=".5" rx="5" ry="50"/><path fill="#1b2e12" fill-opacity=".5" d="M82 136L54 77l1 85z"/><path fill="#c0e8c9" fill-opacity=".5" d="M46.9 35.8l-3.4-15-1.1-7.7-12.9-9.8z"/><circle r="1" fill="#15130a" fill-opacity=".5" transform="matrix(34.79713 9.71789 -5.1078 18.28968 47.9 218.5)"/><path fill="#cfbfc4" fill-opacity=".5" d="M54.3 141.8l-39.2 12.5 11.2-8.7 20 6.3z"/><path fill="#162d03" fill-opacity=".5" d="M125.1 89.3l25.4-17 19.3-22.2L185 78.4z"/><circle r="1" fill="#cefff4" fill-opacity=".5" transform="matrix(.91307 -2.15997 5.434 2.29709 145.6 161.2)"/><ellipse cx="111" cy="216" fill="#ffebf4" fill-opacity=".5" rx="4" ry="5"/><path fill="#d1cccb" fill-opacity=".5" d="M3.6 186.5l6.7 9.2 22.6-23.4.4-4.9z"/><path fill="#573916" fill-opacity=".5" d="M79.2 67l31.7 9-10.4 5.5-1.7-30.8z"/><path fill="#1e361b" fill-opacity=".5" d="M12 38h17v78H12z"/><path fill="#1b4416" fill-opacity=".5" d="M39.3 3.2L81.8 97 39.4-16l-51.7 44.4z"/><path fill="#6e9552" fill-opacity=".5" d="M41 66l-24-4 17-19z"/><circle r="1" fill="#72a53a" fill-opacity=".5" transform="matrix(17.7773 -3.03873 2.4217 14.16748 148 49.3)"/><path fill="#f6ffff" fill-opacity=".5" d="M185 208v-22l-30-11z"/><path fill="#b3ee56" fill-opacity=".5" d="M62 12l19 19v25z"/><path fill="#92bb85" fill-opacity=".5" d="M8.2 22.5l37.1 21.8-.4-23.1L18.8 43z"/><path fill="none" stroke="#fff" stroke-opacity=".5" stroke-width=".5" d="M41.5-16q-3.7 4.7 25.6 52"/><path fill="#31531e" fill-opacity=".5" d="M157 .8l-34.2 12.1 21.4 2.1 20-6.2z"/><circle r="1" fill="#3c6312" fill-opacity=".5" transform="matrix(2.05242 -20.1129 62.29953 6.35734 30.3 255)"/><circle cx="134" cy="95" r="3" fill="#f3ffff" fill-opacity=".5"/><path fill="#243c00" fill-opacity=".5" d="M72.9 34.2l-4.4 2.3L51 3.8l4.4-2.3z"/><path fill="#29411c" fill-opacity=".5" d="M81.9 137.6l-5.1 24.3L64.2 113l36.3 25z"/><path fill="#513e0f" fill-opacity=".5" d="M105.1 145.2l-5.7 56.5-20.8 32.4.6-25z"/><path fill="#e8ff8f" fill-opacity=".5" d="M169 25l-11 4 1-10z"/><path fill="#afff51" fill-opacity=".5" d="M126 156l16 8h-13z"/><circle r="1" fill="#e4b0a5" fill-opacity=".5" transform="matrix(9.2774 -23.16162 .9283 .37183 102.9 196.3)"/><path fill="#0c1a00" fill-opacity=".5" d="M115.6 213.2l.3 20.6-.2 37.2L91 246.9z"/><ellipse cx="89" cy="124" fill="#fff" fill-opacity=".5" rx="3" ry="5"/><path fill="#ccf0c5" fill-opacity=".5" d="M67 22.3L61.9-16l20 23.5-31.1-24.4z"/><path fill="#d49f85" fill-opacity=".5" d="M93 140h4v32h-4z"/><path fill="#99d66d" fill-opacity=".5" d="M168 89.9l-11.5 9.6-4.5-5.4 11.5-9.6z"/><path fill="#e9ffd8" fill-opacity=".5" d="M152 8l3-24-15 12z"/><path fill="#2c4125" fill-opacity=".5" d="M115.5 87.2l3.6-23.1-4.6-80.1L101 56.9z"/><path fill="#938b6f" fill-opacity=".5" d="M27 99h4v44h-4z"/><circle r="1" fill="#413222" fill-opacity=".5" transform="matrix(2.20227 -2.81841 8.47543 6.6226 28.6 162.7)"/><path fill="#e4fffb" fill-opacity=".5" d="M168.9 17.3l16.1 9-29.2-28.5 14.8 5.7z"/><circle r="1" fill="#3c6826" fill-opacity=".5" transform="rotate(63.4 -139 117.2) scale(5.66812 41.41017)"/><path fill="#ccf0fb" fill-opacity=".5" d="M40 137l4-11-4 2z"/><path fill="#8ddb0d" fill-opacity=".5" d="M78.8-17.3l21.6 20.9-13.2 13.7L65.6-3.6z"/><circle r="1" fill="#415124" fill-opacity=".5" transform="rotate(-47.2 256.8 32.1) scale(55.51943 4.16061)"/><path fill="#6fac4c" fill-opacity=".5" d="M79.9 251.5l59.9 19.5-68.5-26.1 3.7 6.5z"/><path fill="#315d22" fill-opacity=".5" d="M33.9 24.1L-16 43.8l37.5-26.1 8 19.5z"/><path fill="#2d7541" fill-opacity=".5" d="M155 157.3l32.6 21.3-6.5 10-32.7-21.2z"/><path fill="#98a17e" fill-opacity=".5" d="M130 133l12-2 1-18z"/><path fill="#265e04" fill-opacity=".5" d="M185 48l-33 1 33-50z"/><path fill="#afd497" fill-opacity=".5" d="M29.4 32.5l29-13.5 2.2 4.5-29 13.5z"/><path fill="#403416" fill-opacity=".5" d="M115 110.2L96.4 140l-3.4-2.1 18.6-29.7z"/><path fill="#ffd2f5" fill-opacity=".5" d="M97.3 5h2l1.4 20h-2z"/><path fill="#ddceda" fill-opacity=".5" d="M73.5 150.1l-1.7-7.1-.4-4.8-5 25.2z"/><path fill="#e0b6a2" fill-opacity=".5" d="M105.9 54.6l-5.5-13.3 7 31.8-8.7-3.8z"/><path fill="#c3fa76" fill-opacity=".5" d="M139.7 57l-7.5-2.7 4-11.3 7.6 2.7z"/><circle r="1" fill="#3c571f" fill-opacity=".5" transform="rotate(155.9 72.5 74) scale(27.81097 18.31446)"/><path fill="#1c2215" fill-opacity=".5" d="M118 155l18-22 49 21z"/><path fill="#141b11" fill-opacity=".5" d="M54 86l9-51 18 62z"/><path fill="#d3cbc1" fill-opacity=".5" d="M35 146h11v27H35z"/><path fill="#5f421a" fill-opacity=".5" d="M64.1 66.7l26.8 11.6 21.7 33.2-45.4-42z"/><path fill="#d9d1da" fill-opacity=".5" d="M123.2 65.3l.6 9-5 .4-.6-9z"/><path fill="#3e710d" fill-opacity=".5" d="M47 4l27 46-26-4z"/><path fill="#fff" fill-opacity=".5" d="M95.2 80.8l-12.6-8.2 2.2-3.4 12.6 8.2z"/><path fill="#20351b" fill-opacity=".5" d="M118.1 36L113-13 100.5-1.2l-.1 23.8z"/><path fill="#521b1b" fill-opacity=".5" d="M95 233l-10-7 31-27z"/></g></g></svg>