<svg xmlns="http://www.w3.org/2000/svg" viewBox="0 0 1800 472"><defs/><filter id="a"><feGaussianBlur stdDeviation="12"/></filter><rect width="100%" height="100%" fill="#273859"/><g filter="url(#a)"><g fill-opacity=".5" transform="translate(3.5 3.5) scale(7.03125)"><circle cx="128" r="118" fill="#badbdc"/><ellipse cx="62" cy="33" fill="#635a1b" rx="135" ry="12"/><ellipse cx="78" cy="58" fill="#ffd6a9" rx="50" ry="16"/><circle r="1" fill="#6aadff" transform="matrix(-22.20239 -5.2104 4.02518 -17.152 20.3 8.6)"/><circle r="1" fill="#78b2f3" transform="rotate(118.1 108.3 77.2) scale(62.92573 20.46082)"/><ellipse cx="120" cy="5" fill="#2658c2" rx="104" ry="19"/><path d="M255.2 20l25.3 21.3-25.7 30.6-25.3-21.2z"/><circle r="1" fill="#242917" transform="matrix(37.20256 -20.70668 4.0313 7.24283 23.8 37.2)"/><ellipse cx="164" cy="41" fill="#a19551" rx="54" ry="7"/><path fill="#040300" d="M13 85.4l-27.6-21.6L5 38.6l27.5 21.6z"/><circle r="1" fill="#85c8b6" transform="matrix(-2.26164 12.1132 -90.02259 -16.80803 189.8 66)"/><path fill="#95cbff" d="M23 27L-7 10 3-14z"/><path fill="#80bdff" d="M231 48l10-20-70-11z"/><path fill="#dec7b5" d="M23 45h99v12H23z"/><path d="M61.7 55.3l16.9 9.2-5.2.1 11.5-1.7zM234 48l33-50 4 67z"/><circle r="1" fill="#649ce5" transform="matrix(-18.09008 -1.3863 .46099 -6.01552 98 20.3)"/><path fill="#b39d72" d="M241 56h9v11h-9z"/><ellipse cx="56" cy="26" fill="#555834" rx="19" ry="12"/><circle r="1" fill="#c4c5e5" transform="matrix(14.74207 -6.87434 3.77293 8.09108 245.8 0)"/><path fill="#828360" d="M151.6 17.7l-36.9 7.2-59.2 20.6 170.3-2.8z"/><path fill="#5ca3ba" d="M172 46h61v21h-61z"/><ellipse cx="206" cy="20" fill="#5787d6" rx="45" ry="7"/><path fill="#2b3a32" d="M-16 11.5l2.1 41.6 41-7.9 9.8-12.4z"/><path fill="#0a0a02" d="M238.1 51.7L269 67.8l-29.4-42.6 31.4-3.1z"/><path fill="#659888" d="M107 48h97v7h-97z"/><path fill="#b4ddff" d="M217 35h17v10h-17z"/><circle r="1" fill="#335ba9" transform="matrix(.2382 12.406 -65.05226 1.24907 143.1 .1)"/><circle r="1" fill="#adb4ae" transform="matrix(-6.01827 12.6314 -24.743 -11.78889 124.7 64.7)"/><ellipse cx="148" cy="27" fill="#53603c" rx="24" ry="5"/><path d="M84.4 62.4l-13-1.8.2-1 13 1.8z"/><path fill="#69656f" d="M14 40h14v7H14z"/><circle r="1" fill="#c9b1a6" transform="matrix(-.58592 2.56221 -8.89422 -2.0339 191.2 31.6)"/><ellipse cx="236" cy="12" fill="#637fbf" rx="19" ry="7"/><ellipse cx="133" cy="46" fill="#edd4c4" rx="56" ry="1"/><circle r="1" fill="#6089ce" transform="rotate(169.3 15 6.6) scale(21.65919 12.81379)"/><path fill="#6099e0" d="M145.4 16.5l.5 3-51.3 8-.5-3z"/><path d="M257.7 28.9l2.7 23.3-26.5 4.9.9-15.2z"/><path fill="#0f161e" d="M22 48v34l-38-65z"/><circle r="1" fill="#393432" transform="rotate(6.2 -592.8 291) scale(4.51876 10.17948)"/><path fill="#7aadf1" d="M-16 2.2l6.1-16.9 40.7 42.9-15.6-3.1z"/><path fill="#68704e" d="M182 36h25v9h-25z"/><path fill="#413d38" d="M59.3 55.8l16.5 2.1 1.9 3.6-6.1.2z"/><path fill="#cbb69f" d="M35 73l-7-30h38z"/><path d="M253.8 57l.8.6L244.2 71l-.8-.6z"/><path fill="#8fc3fa" d="M244 30l-47 3 37 8z"/><path fill="#5a6a2c" d="M32.7 34.6l20.9 10.8-40.2-15.1L-16 6.5z"/><circle r="1" fill="#9e997b" transform="matrix(-.46052 3.3633 -21.7125 -2.97297 135.7 38)"/><path fill="#505946" d="M52 13l42 13-64 4z"/><path fill="#a28c73" d="M83 28h16v12H83z"/><path fill="#ded9ce" d="M29 45h58v3H29z"/><ellipse cx="177" cy="66" fill="#8dbfbe" rx="56" ry="5"/><path fill="#ecf4f8" d="M76 56l-16-8v5z"/><path fill="#537eb6" d="M221.9 55.6l9.2-7.5 4.6 19.2-17-7.2z"/><path fill="#797a7c" d="M3.8 38.6l.2-1 20.2 5.8-.2 1z"/><path fill="#252f1c" d="M25.5 36.1L-16 10.5l38.5 30.8 12.6 2.8z"/><path fill="#6b7448" d="M29.7 25.9l70.7 18.7-10.7-.5-47.5.9z"/><path fill="#343c37" d="M106 41l-3-3 7-12z"/><path fill="#2f3218" d="M256 20.2l-4-.5 2-15.9 4 .5z"/><ellipse cx="103" cy="19" fill="#5888ca" rx="32" ry="5"/><path fill="#5775ae" d="M201 16l15-21 20 21z"/><ellipse cx="153" cy="44" fill="#868b56" rx="66" ry="2"/><path fill="#507e93" d="M152 47h57v4h-57z"/><path fill="#c9d4f0" d="M224.6-6.8l10.5 10.9 21.7-3-3.6-.9z"/><path fill="#9f8c6b" d="M148 19l14 7 14-2z"/><path fill="#70a1e5" d="M198.1 15.4l-6.4 11.7 31.8 9.6 19.4-13.3z"/><path fill="#4575be" d="M81 11h110v8H81z"/><circle cx="244" cy="26" r="4" fill="#3b3c25"/><path fill="#aaa8a3" d="M151 75l-37-27-28 5z"/><path fill="#b9a38c" d="M37 64L25 50l27-1z"/><path fill="#cfb9a1" d="M67.6 79.4L58.8 37l4.6 8-36.7 27.6z"/><path fill="#d0b59f" d="M241.8 63.9l-4.7 1.9L254.7 82l-11.5-17.6z"/><path fill="#010505" d="M259.9 32l-27.6 13.6 4 14.9.8 2.3z"/><path fill="#b29889" d="M220 44l-12-6-8 8z"/><path fill="#769acf" d="M245 5h5v19h-5z"/><path fill="#a9a07c" d="M135 39h36v4h-36z"/><path fill="#5c6847" d="M179 31l-35-12 13 15z"/><path fill="#737e57" d="M143 47l22-2-6-9z"/><ellipse cx="2" cy="59" fill="#111616" rx="30" ry="2"/><circle r="1" fill="#5084cc" transform="matrix(-18.62488 -1.09941 .307 -5.20092 187.2 21.2)"/><path fill="#857d6c" d="M238 73l15-20-8 2z"/><ellipse cx="115" cy="46" fill="#e3dad3" rx="11" ry="2"/><path fill="#8eaea0" d="M178.1 35.5l6.5 29.8-6.7-17.6 6.3-11.1z"/><path fill="#5278ba" d="M40 11.4l-56-22.3L111.9 17l-75.5-4.1z"/><path fill="#0b0e0d" d="M248 57.6l23 2.8-10.5-5-23-8.1z"/><path fill="#4d5543" d="M85.2 27l-27.8-4-1.8-9.8 11.9 4.1z"/><ellipse cx="224" cy="42" fill="#aacdf2" rx="8" ry="4"/><path fill="#6ab5a9" d="M128 52l71 3-30 11z"/><path fill="#152024" d="M-11.5 28.9L15.2 25l.3 2-26.7 3.8z"/><path fill="#aec1dc" d="M216 17h8l-13 7z"/><path fill="#5699d2" d="M201 47h32v5h-32z"/><path fill="#b9c4cf" d="M71.7 57l2.3-5.5 8.3 3.5-2.3 5.5z"/><path fill="#6da4ec" d="M244 30l-15-10-38 11z"/><path fill="#938c6d" d="M89.7 33.3L82.6 46 72.5 30.2 69 37.4z"/><path fill="#060b08" d="M251 18l20-11-20 21z"/><path fill="#ab937c" d="M206.9 39.7l-26.3-14.5.5-1 26.3 14.6z"/><path fill="#808d39" d="M-2 20.1L7.9 19l.1 1-9.9 1.2z"/><path fill="#66704f" d="M175.2 27.4l-47.1-5.3 2 21.6L145 33.2z"/><circle r="1" fill="#76afea" transform="matrix(6.59442 -.88754 .33766 2.50882 23 24.1)"/><path fill="#4e4833" d="M255 55l16-17-20 44z"/></g></g></svg>