<svg xmlns="http://www.w3.org/2000/svg" viewBox="0 0 1800 1013"><defs/><filter id="prefix__a"><feGaussianBlur stdDeviation="12"/></filter><rect width="100%" height="100%" fill="#415674"/><g filter="url(#prefix__a)"><g transform="translate(3.5 3.5) scale(7.03125)"><circle r="1" fill="#a2b9c8" fill-opacity=".5" transform="matrix(-201.19036 12.29086 -4.25482 -69.64764 121.6 49)"/><circle r="1" fill="#64707b" fill-opacity=".5" transform="matrix(179.65098 -20.01222 3.73488 33.5283 166 101.9)"/><circle r="1" fill="#8ca5be" fill-opacity=".5" transform="matrix(137.91801 -8.31322 1.592 26.41158 87.9 55.3)"/><ellipse cx="168" cy="93" fill="#ffe7bd" fill-opacity=".5" rx="109" ry="2"/><circle r="1" fill="#806a50" fill-opacity=".5" transform="matrix(.85893 11.75533 -88.99347 6.50248 202.6 79.5)"/><ellipse cx="133" cy="116" fill="#4a6b91" fill-opacity=".5" rx="255" ry="21"/><circle r="1" fill="#5b84b2" fill-opacity=".5" transform="matrix(.95267 24.12121 -203.94175 8.05466 94.7 17.2)"/><ellipse cx="79" cy="95" fill="#e0d0b4" fill-opacity=".5" rx="131" ry="1"/><path fill="#7a6b5f" fill-opacity=".5" d="M27 83h112v10H27z"/><path fill="#e6cfa2" fill-opacity=".5" d="M271 67.7v23.8l-34.6 2.4L271 68.5z"/><circle r="1" fill="#98a4b0" fill-opacity=".5" transform="matrix(-.38022 -9.8975 79.29051 -3.04603 105.4 69.2)"/><ellipse cx="170" cy="37" fill="#7592ae" fill-opacity=".5" rx="255" ry="17"/><ellipse cx="209" cy="92" fill="#c9c3ae" fill-opacity=".5" rx="62" ry="2"/><path fill="#dfdac5" fill-opacity=".5" d="M126 84h12v5h-12z"/><path fill="#4e545d" fill-opacity=".5" d="M235.4 81.1l-95-.8 62.3-13 25.5 22.1z"/><path fill="#53513b" fill-opacity=".5" d="M235 70l-24 20h18z"/><path fill="#695f50" fill-opacity=".5" d="M18 92h36v4H18z"/><path fill="#f0deb3" fill-opacity=".5" d="M211.2 83.7l-.4 5-6-.4.4-5z"/><path fill="#fff8d8" fill-opacity=".5" d="M170 45h1v43h-1z"/><path fill="#555142" fill-opacity=".5" d="M89 88h59v4H89z"/><ellipse cx="231" cy="116" fill="#536a80" fill-opacity=".5" rx="79" ry="22"/><circle r="1" fill="#3f5f83" fill-opacity=".5" transform="matrix(-187.94378 -29.96951 3.76779 -23.62841 20.8 143)"/><ellipse cx="33" cy="103" fill="#3b5c82" fill-opacity=".5" rx="87" ry="3"/><path fill="#ffe8ac" fill-opacity=".5" d="M231 87h7v3h-7z"/><ellipse cx="107" cy="96" fill="#b9b2a3" fill-opacity=".5" rx="40" ry="1"/><path fill="#5e7794" fill-opacity=".5" d="M37 105h138v22H37z"/><path fill="#fff8dc" fill-opacity=".5" d="M247 85h9v4h-9z"/><path fill="#8c7f6e" fill-opacity=".5" d="M242.6 81.3l-20.9 2.5-55.3 7.3 92-25.8z"/><ellipse cx="162" fill="#587ca4" fill-opacity=".5" rx="251" ry="11"/><path fill="#6b6861" fill-opacity=".5" d="M216.8 61.4L237 76.9l11.3 16.5-.6-20z"/><ellipse cx="211" cy="98" fill="#325378" fill-opacity=".5" rx="68" ry="2"/><path fill="#3b3f32" fill-opacity=".5" d="M186.8 91.7l-1.5-7.9 7.9-1.5 1.5 7.9z"/><path fill="#879dae" fill-opacity=".5" d="M270 62h-78l78-23z"/><path fill="#bababa" fill-opacity=".5" d="M71 78l-9-13 16-11z"/><path fill="#d4cebe" fill-opacity=".5" d="M67 94h62v2H67z"/><ellipse cx="140" cy="100" fill="#70849b" fill-opacity=".5" rx="140" ry="2"/><path fill="#615f5e" fill-opacity=".5" d="M201 64h55v3h-55z"/><path fill="#af9b88" fill-opacity=".5" d="M149 82h11v8h-11z"/><circle r="1" fill="#879ab0" fill-opacity=".5" transform="matrix(-2.23103 16.08569 -34.69028 -4.81143 17.3 69.3)"/><path fill="#938580" fill-opacity=".5" d="M20 87h29v6H20z"/><path fill="#4c6889" fill-opacity=".5" d="M9.6 126.2l-22.6-27 46.8-.9-49.8-6.2z"/><ellipse cx="233" cy="85" fill="#383b2e" fill-opacity=".5" rx="13" ry="2"/><circle cx="177" cy="91" r="4" fill="#c6bfa3" fill-opacity=".5"/><path fill="#88807f" fill-opacity=".5" d="M97.4 92.4l-12.1.2 10.8-9.7 12.6-1.3z"/><path fill="#c4c0b4" fill-opacity=".5" d="M120 92h51v4h-51z"/><path fill="#d1ba99" fill-opacity=".5" d="M221 82l-24 1v-1l24-1z"/><path fill="#aca897" fill-opacity=".5" d="M231.4 87.8l11.9 7.6-39.5.5 18.3-2.1z"/><path fill="#525a66" fill-opacity=".5" d="M157.4 76.2l-9.8-.8-7.3 4.2 2 10.3z"/><path fill="#4a5360" fill-opacity=".5" d="M53.4 93.8l.2-8 9 .4-.2 8z"/><path fill="#dbd2c1" fill-opacity=".5" d="M136 83l-3 3-6-5z"/><ellipse cx="255" cy="78" fill="#43483e" fill-opacity=".5" rx="16" ry="2"/><path fill="#999fa3" fill-opacity=".5" d="M-19 95.3v-1l66 2.4v1z"/><ellipse cx="233" cy="98" fill="#385678" fill-opacity=".5" rx="63" ry="2"/><path fill="#7791a9" fill-opacity=".5" d="M250.1 33.4l-125.7 3 111.2 28.2 14.2 1.6z"/><ellipse cx="171" cy="92" fill="#8c8883" fill-opacity=".5" rx="1" ry="45"/><ellipse cx="23" cy="98" fill="#365882" fill-opacity=".5" rx="119" ry="1"/><path fill="#545740" fill-opacity=".5" d="M199 84l-15 6h23z"/><ellipse cx="84" cy="97" fill="#416085" fill-opacity=".5" rx="101" ry="1"/><path fill="#857c70" fill-opacity=".5" d="M256 61l-24 13 7 17z"/><path fill="#877e51" fill-opacity=".5" d="M227 89h29v2h-29z"/><path fill="#3a5778" fill-opacity=".5" d="M-5.3 146.7l-5-28.5 27.6-5 5 28.6z"/><path fill="#e0cca7" fill-opacity=".5" d="M230 88h14v2h-14z"/><path fill="#b5b1a5" fill-opacity=".5" d="M59 93h43v4H59z"/><path fill="#7c7b7c" fill-opacity=".5" d="M194 65.6l-.7 33.2-2.6-24.5-24.3-5z"/><circle r="1" fill="#495262" fill-opacity=".5" transform="matrix(-9.58001 3.54375 -1.1941 -3.22808 182 78)"/><circle r="1" fill="#647d9b" fill-opacity=".5" transform="matrix(-.10841 -2.5866 77.65855 -3.25486 62.6 108.8)"/><path fill="#879baf" fill-opacity=".5" d="M77 50h90v25H77z"/><path fill="#acafb3" fill-opacity=".5" d="M132 61h21v6h-21z"/><path fill="#4b4a3b" fill-opacity=".5" d="M110 87h16v5h-16z"/><ellipse cx="217" cy="68" fill="#a28b83" fill-opacity=".5" rx="6" ry="3"/><path fill="#4d698a" fill-opacity=".5" d="M44 133l70-14-99-8z"/><ellipse cx="230" cy="92" fill="#bab7a8" fill-opacity=".5" rx="36" ry="2"/><circle cx="225" cy="87" r="3" fill="#192224" fill-opacity=".5"/><path fill="#5b5f6c" fill-opacity=".5" d="M75 83h14v10H75z"/><path fill="#325575" fill-opacity=".5" d="M124.5 136.5h163v3h-163z"/><path fill="#456181" fill-opacity=".5" d="M240.3 118.2l-49.2-14.3 40.7-.6 39.2 4.6z"/><ellipse cx="42" cy="102" fill="#426084" fill-opacity=".5" rx="98" ry="2"/><path fill="#5a5639" fill-opacity=".5" d="M241 82h7v6h-7z"/><path fill="#7f756a" fill-opacity=".5" d="M134 86h33v3h-33z"/><ellipse cx="236" cy="102" fill="#6c7c8d" fill-opacity=".5" rx="33" ry="2"/><path fill="#7f7c78" fill-opacity=".5" d="M67.8 91.4l-5.6 3.3L45 85.5l18.2 13.2z"/><path fill="#728ca7" fill-opacity=".5" d="M64.2 81.2l-66.5 10L-16 81l72.7-2.4z"/><path fill="#686a6f" fill-opacity=".5" d="M121.2 83.3l-35.1 8.5 39.1-4.5 7.8-7.4z"/><ellipse cx="108" cy="100" fill="#7f91a6" fill-opacity=".5" rx="63" ry="1"/><path fill="#46607a" fill-opacity=".5" d="M179 128h48v14h-48z"/><path fill="#635d57" fill-opacity=".5" d="M16 94h16l-16-5z"/><ellipse cx="242" cy="81" fill="#a0927a" fill-opacity=".5" rx="40" ry="1"/><path fill="#b0a78d" fill-opacity=".5" d="M218.3 82l1 .3-1.6 5.7-1-.3z"/><path fill="#908885" fill-opacity=".5" d="M51 84.1l.7 5L13 93.9l-.7-5z"/><path fill="#f7e4ce" fill-opacity=".5" d="M248 84h8v4h-8z"/><ellipse cx="39" cy="15" fill="#6486ad" fill-opacity=".5" rx="142" ry="10"/><path fill="#56697c" fill-opacity=".5" d="M271 108.4L253.5 159l-2.6-25.4-58.2 1.6z"/><path fill="#889aad" fill-opacity=".5" d="M69.5 72.4l-17.7 4.2 51.6-24 29.4 31.1z"/><path fill="#3f495b" fill-opacity=".5" d="M165.5 79.1l3.2 5-4.2 2.8-3.2-5z"/><path fill="#f6f0d0" fill-opacity=".5" d="M205 86h6v2h-6z"/><path fill="#62636a" fill-opacity=".5" d="M185.8 67.1l2.2 16.1 3.9 2.6 18.9-20.2z"/><ellipse cx="210" cy="96" fill="#4e6682" fill-opacity=".5" rx="78" ry="1"/><circle cx="213" cy="88" r="2" fill="#233724" fill-opacity=".5"/><path fill="none" stroke="#9a9e9f" stroke-opacity=".5" stroke-width=".5" d="M170.3 118.6q1.6-28.3-3.1-64.5"/><ellipse cx="120" cy="143" fill="#466482" fill-opacity=".5" rx="68" ry="4"/></g></g></svg>