<svg xmlns="http://www.w3.org/2000/svg" viewBox="0 0 1800 1200"><defs/><filter id="a"><feGaussianBlur stdDeviation="12"/></filter><rect width="100%" height="100%" fill="#414e2d"/><g filter="url(#a)"><g fill-opacity=".5" transform="translate(3.5 3.5) scale(7.03125)"><circle r="1" fill="#b7cdff" transform="rotate(-179.3 89.5 5) scale(103.35991 31.37762)"/><path fill="#ffe2db" d="M57.6 101.1l-17.4 32.7-61.8-32.9 17.4-32.7z"/><path fill="#bfa37d" d="M169 87l-51 1 52 97z"/><circle r="1" fill="#767ac4" transform="rotate(73 -45.1 140) scale(36.57333 14.04894)"/><path fill="#020042" d="M13.2 174.2l40.2-66.9 57.4 34.5-40.2 66.9z"/><circle cx="211" cy="16" r="33" fill="#b3bbce"/><circle r="1" fill="#272821" transform="rotate(-58.5 131.8 -104.4) scale(38.54387 25.64648)"/><path fill="#fff2e3" d="M105 28l25 11-9 15z"/><circle r="1" fill="#fff" transform="matrix(5.3237 -1.91665 8.03589 22.32053 0 161.6)"/><path fill="#02090d" d="M16 43h41v37H16z"/><circle r="1" fill="#e4cfb1" transform="matrix(-17.61056 16.53741 -4.37693 -4.66095 99.9 166.4)"/><path fill="#3a52b8" d="M61 106h38v27H61z"/><path fill="#ffdaac" d="M144.5 120l13.2-4.6 7.8 22.7-13.2 4.5z"/><path fill="#090d0c" d="M193 85l77 18-67 28z"/><ellipse cx="109" cy="11" fill="#234d8c" rx="39" ry="9"/><path fill="#8f9c73" d="M172.8 76.4L141 105.7l64.4-12.2-32.9 23.3z"/><path fill="#ebbeae" d="M196 177l-68 1 42-20z"/><path fill="#caae7a" d="M114 158.5l13.6 10.1L98.4 125l22 1.3z"/><ellipse cx="134" cy="150" fill="#20000d" rx="13" ry="29"/><path fill="#ffbf8d" d="M96.6 84.4l-28.3 28.8 10 .6 5.6-12.6z"/><path fill="#c9ab91" d="M43.1 133.2l.8-11.4-52-31.2 47.3 54.3z"/><path fill="#00000a" d="M84 92L70 66l-17 48z"/><path fill="#878577" d="M254.5 88.1L169 30.5l4.4-6.6L259 81.5z"/><ellipse cx="241" cy="147" fill="#817e3e" rx="39" ry="12"/><path fill="#242f17" d="M165 97l-14 8 29 45z"/><circle r="1" fill="#52543d" transform="matrix(26.10262 3.71495 -1.04064 7.31195 127.4 31.7)"/><path fill="#f5f2dc" d="M192.3 45.1l26.6-18.6-1.9 8-32.4-17.6z"/><path fill="#8b7650" d="M72 65l35 4-6 44z"/><ellipse cx="231" cy="4" fill="#7797c4" rx="101" ry="17"/><path fill="#242233" d="M226 32h30v26h-30z"/><path fill="#3e2f38" d="M10.9 181.4l75.4 3.6-69.9-64.9-26.5-21.8z"/><circle r="1" fill="#fff" transform="matrix(4.02583 -1.50975 4.04329 10.7816 2.1 163.7)"/><path fill="#000409" d="M57.5 165.5L36 160.2l10.4-41.7 21.4 5.3z"/><ellipse cx="88" cy="21" fill="#bfc8ce" rx="14" ry="4"/><path fill="#bec29a" d="M181.3 90.4l8.6-1.7 2.9 15.7-1.9 7.5z"/><ellipse cx="7" cy="7" fill="#232432" rx="72" ry="16"/><path d="M96.2 175.7l16.2-11.7 11.3 1.3 13.6 19.7z"/><path fill="#d2eaa5" d="M119.5 87.2l2.5-1.5 14.5 25.1-2.5 1.5z"/><path fill="#6f852b" d="M268.4 163.9l-4.1-28.2-28.4-27.3-13 1.6z"/><circle cx="101" cy="165" r="6" fill="#fff"/><path fill="#080b25" d="M74 185l40.4-39.5-65.7-9 19.9 25.8z"/><ellipse cx="175" fill="#e1fdff" rx="101" ry="2"/><path fill="#c6c0b0" d="M121 57.7l-2-28.9 8-.5 2 28.9z"/><path fill="#272e27" d="M168.4 29.8L126.2 40l99.1 80.2-43.5-49.7z"/><path fill="#466ec6" d="M110.4 143.4L89.3 109l8.9 51.1 4.4-20.1z"/><path fill="#564e2c" d="M206.5 169.4l-24.6-75.8-11.7 15.9-5.9 52.1z"/><path fill="#6a6a5b" d="M172 44l46-6-27 35z"/><path fill="#d2c193" d="M172 129l13 7 6-4z"/><path fill="#431105" d="M86.1 127l-1 5-1.2 32.8-8.3-51.7z"/><path fill="#beaf9b" d="M206 24h22v22h-22z"/><path fill="#e09f85" d="M78 78l17 1-10-9z"/><path fill="#adadbb" d="M222 58l18 1-19 6z"/><path fill="#babcbc" d="M139 29l6-14 36 9z"/><path fill="#a87050" d="M132.2 122.7l-5.2-15.4 33.3 55.6 6.6-23z"/><path fill="#686e58" d="M29.5 11.7L16.1 32.8l48-48.8H21.7z"/><path fill="#010310" d="M220 99.2l31.1 6.2 17.5-33.3 2.4 61.7z"/><path fill="#fbcf9f" d="M155 121l-14 12 27 3z"/><circle r="1" fill="#232524" transform="rotate(7.2 -580.9 1670.4) scale(13.24316 26.85947)"/><path fill="#5c5941" d="M142 78l13-17-23-32z"/><path fill="#afbfcf" d="M271 5.8l-44.3 14.6 6 13.5 13.8-5.5z"/><ellipse cx="178" cy="9" fill="#657d9d" rx="48" ry="8"/><ellipse cx="169" cy="84" fill="#eaf6c1" rx="3" ry="6"/><path fill="#2c3a2e" d="M116 18l10 8-31 5z"/><path fill="#313628" d="M104 71L50 58 65-2z"/><path fill="#4b443d" d="M41.5 159.9l39.8.6L34.2 185-16 84.4z"/><path fill="#324017" d="M101.3 98.3l-1.3 27.1 34.4-12.6-9.7-15.3z"/><path fill="#1a0c15" d="M57 74h17v35H57z"/><path fill="#141714" d="M167.5 63.1l-5.8 42.8 6-16.6-25.7-7.8z"/><circle r="1" fill="#cceaa9" transform="matrix(-3.04637 3.81613 -1.52933 -1.22085 140.5 96.2)"/><path fill="#cbb59e" d="M-16 64l41 40 17-12z"/><path fill="#50769e" d="M132.4 25.6l-54.5-8.2L66.7-16H41.5z"/><path fill="#314028" d="M150.8 84.6l4.8 21.3-41-40.7 17.2 37.9z"/><path fill="#000c3e" d="M52 107l-8 14 26-21z"/><path fill="#c4a783" d="M105.8 127.6l4.7-1.5 11.7 38.3-4.7 1.5z"/><path fill="#a9bb7f" d="M166.5 90.5l-24.4 24.4 13.8-24.7 25.8 12.4z"/><path fill="#000001" d="M81 112v-6l15 4z"/><circle r="1" fill="#2a2f2d" transform="rotate(125.3 94.5 95.8) scale(6.40916 18.77459)"/><path fill="#696f38" d="M54.4 73l5.8 28.4L9.1 77l42.8 5z"/><path fill="#ffd29d" d="M81 105.6l-1 8-9-1.2 1-8z"/><path fill="#3b70d8" d="M61 117l15 2 3 13z"/><path fill="#375026" d="M142.7 97.3l-7 9.7 6.4 8.4 7.7-30.6z"/><path fill="#171e13" d="M221 136l-33-46 59 47z"/><circle r="1" fill="#040e17" transform="matrix(7.80382 4.81974 -7.47388 12.10125 60 2.8)"/><circle cx="100" cy="24" r="4" fill="#ffffe7"/><path fill="#c6f2ff" d="M48 1l3-17-33 9z"/><path fill="#74422d" d="M158.8 142l.8 19.1-11.1 10-5.1-31.8z"/><path fill="#333e23" d="M152 112.4l-5.4 6.2 5.1-17.7 67.2 42.5z"/><path fill="#00072c" d="M64 112l16 2 6 14z"/><path fill="#6c7634" d="M198 120.6l31.9 22.3 21.1 33.3-33.2-21.9z"/><path fill="#6a6d5e" d="M271 26.6l-36.3 5.1-6.6 12.9L271 28.8z"/><path fill="#fffcff" d="M-16 134.2L2 185l5.4-15.6-6.2-18.1z"/><path fill="#2b2824" d="M163.2 151.7l8.8-30.8 4.8 1.4-8.8 30.8z"/><ellipse cx="37" cy="127" fill="#c7ae8f" rx="6" ry="11"/><path fill="#ba9175" d="M168.3 159.8l-7.6-19.6-5.3 26.5 50.9 16z"/><path fill="#625e4b" d="M213.9 68.3l-11.8-47.5L228.6 89l-7.7 15.1z"/><path fill="#d5b39c" d="M136 117h26v4h-26z"/><path fill="#dbe4aa" d="M194 98l-9-6 2 11z"/><path fill="#e7eae2" d="M187 26l22-6-11 22z"/><path fill="#8e8c6f" d="M173 109h11v8h-11z"/><path fill="#3f462c" d="M105 27l-22-1 14 81z"/></g></g></svg>