<svg xmlns="http://www.w3.org/2000/svg" viewBox="0 0 1800 1200"><defs/><filter id="a"><feGaussianBlur stdDeviation="12"/></filter><rect width="100%" height="100%" fill="#4d3b2d"/><g filter="url(#a)"><g fill-opacity=".5" transform="translate(3.5 3.5) scale(7.03125)"><circle cx="240" r="87" fill="#fae6d1"/><ellipse cx="118" cy="135" fill="#9d8d80" rx="137" ry="30"/><circle r="1" fill="#b3ffff" transform="matrix(.09553 -7.20739 117.01516 1.551 48.7 0)"/><path fill="#ffffe1" d="M175 11h21v77h-21z"/><circle r="1" fill="#4a2e2c" transform="matrix(16.0724 3.22049 -16.7167 83.42768 207.6 74.2)"/><path fill="#ffc9c3" d="M102 126h27v44h-27z"/><ellipse cx="236" cy="39" fill="#fff" rx="7" ry="49"/><path fill="#537282" d="M107 58L-16 12 190-3z"/><circle r="1" fill="#c61100" transform="rotate(80.7 -8 178.2) scale(18.94734 21.58954)"/><path fill="#e8f5f5" d="M250.8 140.6l-11.6-3.8-2.3-6.4L271 98.7z"/><circle cx="66" cy="134" r="17" fill="#dac38f"/><ellipse cx="60" fill="#b0f2ff" rx="60" ry="7"/><path fill="#8c201d" d="M252-16l-13 134 32-20z"/><ellipse cx="141" cy="161" fill="#000d00" rx="11" ry="21"/><ellipse cx="68" cy="104" fill="#57736e" rx="47" ry="17"/><circle r="1" fill="#ff9490" transform="matrix(-13.912 1.01862 -.3774 -5.15437 105.8 84)"/><circle r="1" fill="#110300" transform="matrix(4.04516 -23.419 18.1619 3.1371 84.5 71.3)"/><circle r="1" fill="#6c2415" transform="rotate(136.7 87.7 83.7) scale(15.02166 30.01583)"/><path fill="#000125" d="M140 97l-54.7 37 40.1-54.7 27.4 11z"/><circle r="1" fill="#293f5b" transform="matrix(-2.80214 -13.02697 47.68843 -10.25793 239.6 153)"/><path fill="#e5d3bc" d="M66 45v15l-20 8z"/><path fill="#fff0eb" d="M137 79h26v5h-26z"/><path d="M14.2 108l-9.7 25.2-18.7-7.2 9.7-25.2z"/><path fill="#ffffdc" d="M236.6-33l15 1.4-10.2 116.5-15-1.3z"/><path fill="#6bff00" d="M35 136h19v16H35z"/><circle r="1" fill="#90a97e" transform="rotate(-23.6 225.7 -322.2) scale(15.42191 7.85718)"/><path fill="#81a1b6" d="M225.8 114.5l.6 19.5-14.5 13.8-19.3-29.1z"/><path fill="#5c0000" d="M147 131.2l-9.4-7.5 31.5-38.9 9.3 7.5z"/><path fill="#dab881" d="M123 106h20v37h-20z"/><path fill="#ff7e79" d="M22 156l1-17-39-8z"/><ellipse cx="25" cy="128" fill="#281a13" rx="14" ry="13"/><circle r="1" fill="#905f62" transform="matrix(26.9452 7.6888 -5.14753 18.03938 92.8 151)"/><ellipse cx="181" cy="135" fill="#262735" rx="26" ry="12"/><circle r="1" fill="#8e050e" transform="matrix(7.66206 -12.26186 21.66091 13.53524 234.4 101.3)"/><path fill="#041211" d="M77.3 160.7l-1.9 18-50.7-5.4 1.9-18z"/><path fill="#edf0d8" d="M197.9 1.3l-28.1 56.3 6.2 14L196.3 45z"/><circle r="1" fill="#80bbff" transform="matrix(-1.70007 5.3747 -22.7394 -7.1927 145 2.1)"/><ellipse cy="84" fill="#950000" rx="21" ry="15"/><circle r="1" fill="#3a4c55" transform="matrix(-20.6708 27.94466 -29.03062 -21.47409 20.6 39.6)"/><path fill="#ff969c" d="M105 48l9 5-11 18z"/><path fill="#fcb27f" d="M178.8 87.1l4.7 4 1.1-45.2 7.9 53z"/><circle r="1" fill="#f3b98e" transform="matrix(-11.12197 18.93645 -1.48055 -.86957 15 117)"/><path fill="#aec5c2" d="M182.9 109.5l6 13.7-11.8 5.3-6-13.7z"/><path fill="#295256" d="M80 104h43v22H80z"/><circle r="1" fill="#365c7f" transform="rotate(166 -4.8 83) scale(41.82922 6.794)"/><path fill="#464743" d="M104 23h70v35h-70z"/><path fill="#0c2227" d="M214.8 124.6l-45-18.4 42-9.9 10.8 7.2z"/><path fill="#8e715e" d="M202.8-7.5l30.9 3.3-6.5 61.7-30.9-3.3z"/><path fill="#ff7461" d="M240 76h16v12h-16z"/><path fill="#080916" d="M102.2 141l-9 .9-1.4-17 9-.8z"/><path fill="#120009" d="M125 106l46-24-72 6z"/><path fill="#fff" d="M81.2 136.6l8.9-4.5 2.7 5.3-8.9 4.5z"/><path fill="#94c6ff" d="M115 2L-2-16 54 9z"/><path fill="#ded8c7" d="M97 121l28 9 3 29z"/><path fill="#012f1f" d="M99 5h42v6H99z"/><path fill="#080504" d="M-10.7 73.9l35.9-47.1-13.3 39.5-26.2 3.8z"/><path fill="#defff5" d="M31 107h8v6h-8z"/><circle r="1" fill="#d08f88" transform="rotate(-176.4 54.3 81.1) scale(22.73939 11.53988)"/><path fill="#ff6f4c" d="M152 160.4l.3-7.9 19.4-9-4.2 16.1z"/><circle r="1" fill="#455675" transform="matrix(10.3804 8.5378 -35.38255 43.0187 241.7 165.2)"/><path fill="#242125" d="M183.8 77.6L118.4 80l58.6-.1-18.2-31.4z"/><ellipse cx="154" cy="59" fill="#fff98b" rx="3" ry="8"/><path fill="#1f524b" d="M80 101l-49 15 10 15z"/><path fill="#7b4b2f" d="M99.3 78.7l-5.1-3.1-29.3 15.6 23.3 19.3z"/><path fill="#88a09b" d="M69.8 87.1l-22 59 17.8-47.6-25-5.1z"/><path d="M6 135l1-40-23 28z"/><path fill="#2c321c" d="M191 61h21v21h-21z"/><path fill="#64040b" d="M144 86h23v25h-23z"/><path fill="#735342" d="M131 119h38v25h-38z"/><path fill="#b2bec2" d="M231 122l-7-9-24 29z"/><circle r="1" fill="#160009" transform="matrix(-2.51202 -19.37201 2.40513 -.31188 119.5 108.8)"/><path fill="#d6defb" d="M30.5 84.3l.5.9-13.5 8.5-.5-.9z"/><path fill="#92654b" d="M190 77h16v23h-16z"/><path fill="#5b6161" d="M33 49L9 4l125 8z"/><ellipse cx="28" cy="79" rx="13" ry="4"/><path fill="#e7cfae" d="M54 122h13v18H54z"/><path fill="#f8fffb" d="M212 14l-4 8 7-2z"/><path fill="#fb756d" d="M9 133l-25 13 50 7z"/><path fill="#535b5b" d="M153.9 56.8l-29 12.7-1.7-85.5 32.1 70.6z"/><path fill="#362619" d="M222.8 151.1L187.7 185l4.3-51.9 9.7 20.7z"/><path fill="#244f7c" d="M208.2 121.7l-49.4 4.8 54.6 11-.7 2.4z"/><path fill="#e6d0ca" d="M130 80h46v2h-46z"/><path fill="#fff" d="M124.7-11.5l1 .1-2.4 22.9-1-.1z"/><path fill="#506c71" d="M120.6 118.3l-14.5-28.2L68.7 111l14-1z"/><path fill="#000003" d="M173.4 62l-8 4.3L154.6 46l8-4.3z"/><circle cx="35" cy="95" r="3" fill="#ffecc8"/><path fill="#410000" d="M53 161l28-6-18 30z"/><path fill="#940313" d="M111 70h26v10h-26z"/><circle cx="146" cy="139" r="3" fill="#fff"/><path fill="#fff5c4" d="M124 109h3v58h-3z"/><circle r="1" fill="#f2e6d2" transform="matrix(-.2602 -2.21503 7.7772 -.91361 178 83.6)"/><path fill="#3c3130" d="M208.1-15.8L169.9 9.7 152-16h14.7z"/><path fill="#383f43" d="M89.9 139.3l29.8 20-40.6-38.9 25-.1z"/><path fill="#d3b7a3" d="M21 106.9l-37 59.7L-3.5 153l21-49.8z"/><path fill="#eaecd4" d="M188.7 16l43.1-26.7-54.2 26.2-4 37.4z"/><path fill="#03435e" d="M22 143l18 10-12-22z"/><path fill="#d4330c" d="M187 174l-24.8-3.1L165 148l24.8 3z"/><path fill="#626859" d="M248 0h8v76h-8z"/><path fill="#ffada4" d="M99 80h20v8H99z"/><path fill="#00001c" d="M124.3 80.7l-7.5 26.3 27.2-3.2 3.8-17.8z"/></g></g></svg>