<svg xmlns="http://www.w3.org/2000/svg" viewBox="0 0 3853 2753"><defs/><filter id="a"><feGaussianBlur stdDeviation="12"/></filter><rect width="100%" height="100%" fill="#3e2c20"/><g filter="url(#a)"><g fill-opacity=".5" transform="translate(7.5 7.5) scale(15.05078)"><ellipse cx="164" cy="134" fill="#ffe0ba" rx="214" ry="255"/><circle r="1" fill="#fdfff7" transform="matrix(-42.45779 -12.73521 8.72377 -29.08407 137.6 168.2)"/><path d="M52 28h86v20H52z"/><path fill="#ffe" d="M224.4 199.5l4.3-61.9 41 3-4.4 61.8z"/><ellipse cx="138" cy="60" fill="#0d0000" rx="22" ry="14"/><ellipse cx="75" cy="9" fill="#bfd6e0" rx="255" ry="18"/><ellipse cx="202" cy="92" fill="#a14418" rx="20" ry="68"/><circle r="1" fill="#6b371f" transform="matrix(21.17783 -14.53165 16.53342 24.09513 39.7 69.6)"/><circle r="1" fill="#a15335" transform="rotate(164.6 44.8 66.9) scale(53.94392 29.60907)"/><path fill="#000411" d="M21.5 49.7l-30 1.6-1-21 30-1.6z"/><path fill="#edb282" d="M175 145l22-104-59 44z"/><path fill="#460f00" d="M11 158l8-25 59-5z"/><path fill="#552704" d="M185.2 48.4l-55.8-16.5 107.9 4-30.2-17.8z"/><path fill="#cdefff" d="M-15.6 173.8l13-28 18.2 8.4-13 28z"/><path fill="#e0e7e1" d="M36 144h37v10H36z"/><ellipse cx="70" cy="30" fill="#1e1e1c" rx="51" ry="4"/><path fill="#fffffc" d="M134.5 192.1l-9-13.3 34-22.9 9 13.3z"/><path fill="#c6b89d" d="M114 27l82 9 39-52z"/><circle r="1" fill="#e5feff" transform="rotate(35.2 -262.8 148.4) scale(21.26243 4.26427)"/><path fill="#d19355" d="M170 153h61v29h-61z"/><ellipse cx="251" cy="46" fill="#cfc1a5" rx="9" ry="78"/><path fill="#622205" d="M122 84l-5-53 44 44z"/><path fill="#ffeec8" d="M25 33l41 20-24-23z"/><path fill="#571700" d="M104.6 140.4l-42.3 44-3-2.8 42.4-44z"/><path fill="#481602" d="M148.2 126.8l21.1 20.4-60.8-28.2 8.9 18.2z"/><ellipse cx="18" cy="141" fill="#724d2d" rx="7" ry="110"/><path fill="#dbc9ad" d="M163 45h35v21h-35z"/><path fill="#5e2e0a" d="M221.4 138.7l-41 4.5 12.2 23.6-22.4 2.1z"/><path fill="#0a1719" d="M60 34h38v16H60z"/><path fill="#fff6c7" d="M247.3 194.5l-25.8-13.2 17.2-33.8 25.8 13.2z"/><path fill="#d2e4eb" d="M71.6 161.3l4 3.7-7.2 8.8-37.5 15.5z"/><path fill="#c78d7e" d="M33 54h17v70H33z"/><circle r="1" fill="#051145" transform="matrix(5.57212 1.19736 -.91127 4.24072 61.7 16.4)"/><path fill="#924828" d="M180 58l2 30 61 1z"/><path fill="#bc9673" d="M129.2 64L55.1 49.1l52.6 98 2.2-25.9z"/><path fill="#2b210c" d="M25.1 60.1l4.9 60.2-12.5-74.2 30.1 2.5z"/><circle r="1" fill="#d49061" transform="matrix(14.2639 4.06707 -11.75297 41.21962 231.3 91.7)"/><path fill="#d4d6d0" d="M106 136h45v12h-45z"/><circle r="1" fill="#865034" transform="matrix(-10.49597 5.4406 -22.58413 -43.5692 71.8 120.5)"/><path fill="#662f0c" d="M221.8 166.8l-4.8 9.7-41.8-14.2 57.5 8.6z"/><path fill="#7f4b2b" d="M217.3 18.6l-20.8 14.9L234.6 57l6.2-18.1z"/><path fill="#432a0d" d="M25 106L15 51l21 36z"/><path fill="#b9b6a3" d="M25.3 111.5L-16 47.2l31.7 13.9-3.9 53.4z"/><path fill="#503525" d="M61.7 157.7L44 168.2l-2.3 6.1 14.6-1.1z"/><path fill="#f4a370" d="M170.6 111.2l-24-41.8-1.9 41.8 12.8 27.4z"/><path fill="#e2b28f" d="M173.2 163.5L148.9 197l-87.4-.6L232 183.5z"/><path fill="#a2c3d0" d="M42.7 26.8l-63.9 3.4-1.5-29 63.9-3.4z"/><path fill="#6c3f26" d="M109.2 27.7l77.2 8-84.2 10 2.7-35.4z"/><path fill="#b15436" d="M123.5 109l8.4-43.2 16.6 3.2-8.4 43.2z"/><path fill="#6d3515" d="M13 165l-21 31 59 1z"/><path fill="#241a09" d="M140.8 68.3l16.6-.6L125 37.5l-6.9 27.2z"/><path fill="#a45f37" d="M201.8 92.4l42.9-22.8 6.9 6.8-74.5 64.5z"/><path fill="#c6b69b" d="M99 47h17v26H99z"/><path fill="#4d1a00" d="M160 37h33v8h-33z"/><path fill="#def1f8" d="M43 174l4-15-17 20z"/><path fill="#e3be96" d="M223.9 80.4l1.9-.1 23.6-33.7-29 15.4z"/><path fill="#6c5e58" d="M130.3 16.2l-6.1-6.4-5.1-1.3 23.6 49.2z"/><path fill="#b1a8a0" d="M135.3 153.3l-37.2-34 16.8 60.2 46.4-31.6z"/><path fill="#190000" d="M42 197l-11-10 39-13z"/><path fill="#35698e" d="M232 135l16-10-17-8z"/><circle cx="43" cy="108" r="18" fill="#bc907e"/><circle r="1" fill="#c7c3ae" transform="rotate(-163.2 128.7 -10.7) scale(49.68872 19.90696)"/><path fill="#ddac96" d="M34 82l-9-19 7-7z"/><path fill="#32322d" d="M35.8 27.5l76 4.4-62.1 26 9.5-16.6z"/><path fill="#683520" d="M114.1 138.3l-4.7-15.9 6.1-26.8 4.8 41z"/><path fill="#f4c2a0" d="M124.8 95.8l6 3.5-20.1-21.4 2.7 18.2z"/><path fill="#ffefad" d="M171 130l-11-14V90z"/><circle r="1" fill="#ced1c6" transform="matrix(-.9794 -16.01295 4.47014 -.2734 65 158)"/><path fill="#683f19" d="M23.2 142.2L72 119l-2 31.2 4.9-8.7z"/><path fill="#daa179" d="M235.3 105.7l-41.2-30.9 41.5 42-16.6 8z"/><path fill="#e58b61" d="M223.3 65.4l2.9 5.2.2-41.4-14.7 35.3z"/><path fill="#ab643c" d="M155.3 118.5l13.2 11.1 7.7-28-8.1 55.9z"/><path fill="#6f3a16" d="M202 173.3l-27.8-23.5-.5 10.2 50.3 10.3z"/><path fill="#1c3539" d="M29.7 27.9L-16 34l29.7 15.6-26.2 10.6z"/><path fill="#d89869" d="M87 152l-25 45h37z"/><path fill="#ffecb6" d="M258.3 193.5l-21.5-54.6 22.9-9.4-37.6 12.3z"/><path fill="#58280b" d="M85.3 144.2l25.9-3.9-31.1 17.3-1-.7z"/><ellipse cx="154" cy="28" fill="#c4bfba" rx="44" ry="2"/><path fill="#cac6b9" d="M24 181.2l-1.6-17.8L67 138.9l-32.5 10.6z"/><ellipse cx="105" cy="20" fill="#301f90" rx="4" ry="6"/><path fill="#d9b474" d="M226.8 143.7l4.3 27.9-43.5-12.7 47.2-4.7z"/><ellipse cx="254" fill="#d0ffff" rx="19" ry="4"/><circle r="1" fill="#ab956d" transform="matrix(42.68633 6.9317 -.42263 2.6026 215.4 6)"/><path fill="#c0ab79" d="M136.2 53.3l7-3.1 6.3-47.9L167.2-16z"/><path fill="#69341e" d="M201 74l25 22-10-30z"/><path fill="#bb6a44" d="M99 96h57v16H99z"/><path fill="#3f0000" d="M166 176l-21 21 20-7z"/><path fill="#0e0000" d="M96 175l7 7-8 2z"/><path fill="#5a2b0f" d="M20 163L8 148l18 7z"/><path fill="#dca189" d="M70 120l15 23-13-8z"/><path fill="#fff5cd" d="M147.2 85.2l17.6 8.4-7.3-9.3-9.5 7.3z"/><path fill="#deaf81" d="M66 76l-10 6 25 12z"/><path fill="#feffdb" d="M159 197h-53l58-48z"/><path fill="#dcccb1" d="M174.5 121l-5 29.5-13.5 31.9 27.5-54.3z"/><path fill="#4e3323" d="M63 160l-21 13 9 3z"/><path fill="#fffee1" d="M135 134l8 19 6-15z"/><path fill="#bfa98e" d="M215.9 120.3l55.1 22.1-10.1 18.9-29.3-20.6z"/><path fill="#95724c" d="M121 77l-66 2 23-14z"/><path fill="#4e2c19" d="M112 129h35v6h-35z"/><path fill="#bbae91" d="M115 67l1-20-52 5z"/></g></g></svg>