<svg xmlns="http://www.w3.org/2000/svg" viewBox="0 0 1800 1350"><defs/><filter id="a"><feGaussianBlur stdDeviation="12"/></filter><rect width="100%" height="100%" fill="#54332f"/><g filter="url(#a)"><g fill-opacity=".5" transform="translate(3.5 3.5) scale(7.03125)"><ellipse cx="141" cy="5" fill="#fff" rx="115" ry="41"/><path fill="#59766b" d="M0 30h256v162H0z"/><circle r="1" fill="#fff" transform="matrix(67.61604 9.74362 -4.70027 32.61762 101 .6)"/><circle r="1" fill="#000a13" transform="matrix(-1.55462 -63.61117 20.35957 -.49758 56.8 155.6)"/><circle r="1" fill="#adaea2" transform="matrix(12.7541 -1.90611 7.02426 47.00039 91.7 143.1)"/><circle cx="3" cy="53" r="56" fill="#827e6d"/><circle r="1" fill="#262825" transform="rotate(-76.7 209.8 -71.3) scale(81.48635 31.1696)"/><path fill="#efe6c3" d="M0 179h38v13H0z"/><ellipse cx="232" cy="22" fill="#5b6d6c" rx="89" ry="14"/><path fill="#edffff" d="M30 0h201v10H30z"/><ellipse cy="156" fill="#aba286" rx="14" ry="67"/><path fill="#faffff" d="M145-13v55L93 23z"/><path fill="#bbbeb7" d="M189 62h67v5h-67z"/><ellipse cx="179" cy="127" fill="#c2b59a" rx="26" ry="5"/><circle r="1" fill="#afafa4" transform="matrix(12.36563 6.42587 -9.48646 18.2553 89.6 127.2)"/><path fill="#61625b" d="M-16 40l155 20L-4-9z"/><path fill="#b29f97" d="M156 45l-46 16 7-19z"/><ellipse cx="21" cy="54" fill="#a49287" rx="28" ry="13"/><path fill="#171915" d="M211 168l-67 36 122-14z"/><circle r="1" fill="#313634" transform="matrix(-4.06175 -14.35716 42.6456 -12.06476 199.2 88.4)"/><path fill="#616868" d="M169.3 83L271 19.4l-.8-25.5-55.9 20.9z"/><path fill="#676763" d="M193.6 2.6L196 9l-47.7 18.3L146 21z"/><ellipse cx="189" fill="#f1ffff" rx="61" ry="7"/><ellipse cx="69" cy="170" fill="#26394a" rx="19" ry="24"/><path fill="#c5cac2" d="M109 167l3-24-9 3z"/><path fill="#2f251d" d="M135.5 73.2l-66.3 33.4-46.3-15.3 21.9 51.9z"/><path fill="#463528" d="M57 53h42v39H57z"/><path fill="#a8ada6" d="M167.7 156.2l1.6.6-21.7-1.3 43.5 16.1z"/><path fill="#343932" d="M96 169l32-30-11 68z"/><path fill="#bfb7b1" d="M188 36l-1-29 30 3z"/><path fill="#a08269" d="M106 102l-24 7-5-23z"/><path fill="#e5d9bb" d="M12 77h19v7H12z"/><path fill="#a29c88" d="M104.8 175.1L52 207h62.6l-10.1-21.9z"/><path fill="#4d4032" d="M20 84h22v92H20z"/><path fill="#788278" d="M132 85l-5 65 25-60z"/><path fill="#636565" d="M146 24h40v28h-40z"/><circle r="1" fill="#cadadf" transform="matrix(-49.20179 -14.78416 2.6999 -8.98529 69.2 11.6)"/><circle r="1" fill="#abb2a8" transform="matrix(-5.70647 -6.10249 2.03103 -1.89922 162.2 183.1)"/><path fill="#8d8175" d="M68 38.2l52.2 3.3-56.9 13.1-18.5 15.5z"/><path fill="#7f7d6d" d="M183.9 155.9l40.6 14.3 46.5 20.6-37.9-12.3z"/><circle r="1" fill="#57574d" transform="rotate(109.2 -.4 16.4) scale(20.28177 46.64889)"/><circle r="1" fill="#141716" transform="rotate(146.7 10.1 74.6) scale(13.43255 26.7279)"/><path fill="#292f2d" d="M139.6 179.9l6.7-42 8 37.3-44 26.9z"/><path fill="#42463f" d="M84.3 131.9L37.8 160l55.7-32.7 4.9 13.6z"/><path fill="#f3ead0" d="M16 182h18v8H16z"/><path fill="#666457" d="M209.6 9l-28.1 63.1 17.7-35.2 23.7-45.8z"/><path fill="#8d8872" d="M16 200l-32-6 30-60z"/><path fill="#f1fcff" d="M217.4 14.1L134.8-8.4l88.9 18.7L242.4-16z"/><path fill="#57524c" d="M181.7 7.3l1.1-2.8 21.5 8.2-1.1 2.8z"/><path fill="#666458" d="M211.8 102.9l-55.5 7.3 8.9 17.5 64.6-4.6z"/><path fill="#191f19" d="M175 167l-17 4 17 25z"/><path fill="#483529" d="M0 70h57v6H0z"/><path fill="#eaf4f2" d="M147 35.3l-1.2 7.8-19.8-4.8L136.8-16z"/><path fill="#262c27" d="M117 122h9v47h-9z"/><circle r="1" fill="#2a3032" transform="matrix(-7.2195 -3.44137 7.38749 -15.49788 149.4 71.4)"/><circle r="1" fill="#706e60" transform="matrix(-47.05064 108.50268 -2.31754 -1.00497 223.4 24.3)"/><path fill="#635041" d="M31.7 115.3l-25.9-6.2 29.9-28.6 24.7 13.8z"/><path fill="#acaa9e" d="M232 59h24v6h-24z"/><ellipse cx="22" cy="159" fill="#111912" rx="2" ry="26"/><path fill="#d7e0e3" d="M56 24L43-8l120 19z"/><path fill="#a69177" d="M119 189h40v3h-40z"/><path fill="#172325" d="M99 98l1-17 30-2z"/><path fill="#b9ad9a" d="M181 125h31v5h-31z"/><path fill="#a59d93" d="M23.8 51.2L19.9 56-8.8 45.1-16 83.3z"/><path fill="#494842" d="M271 176l-104-36 85-26z"/><path fill="#101510" d="M102 135h4v11h-4z"/><circle r="1" fill="#303e46" transform="matrix(5.84272 18.40153 -24.47512 7.77116 62 176.6)"/><path fill="#6e8a8d" d="M118.9 106.8l-7-15.5 9.2-4.1 7 15.5z"/><path fill="#6c6965" d="M101.1 79.2l-27.2.6 26.4-43.3-46.2-14z"/><path fill="#6b523a" d="M35.3 149l17.9-9.9-60.8-20.5 22.7-.1z"/><path fill="#584a3d" d="M36.8 102.6L2 90.4l-9.6-13.8 102 22.3z"/><circle r="1" fill="#1d1c16" transform="matrix(-2.73154 -.2122 2.38219 -30.66498 60.2 83.2)"/><path fill="#8c908d" d="M208 64h3v37h-3z"/><path fill="#e4d9c6" d="M159 110h18v2h-18z"/><path fill="#181c1d" d="M42 168l14-70 25 14z"/><path fill="#c2cbca" d="M164 160l7 9 2-11z"/><path fill="#c5bfb6" d="M47 75l6 4H35z"/><path fill="#bdafa7" d="M212.5 35l.8.5-1.7-19.2-5.3 12z"/><path fill="#918077" d="M102 43h36v16h-36z"/><circle r="1" fill="#aaa99e" transform="rotate(158.6 35 68.5) scale(12.07716 11.70571)"/><path fill="#6a6c68" d="M186 37h24v33h-24z"/><path fill="#142a1e" d="M15 5l6-21L-6 5z"/><circle r="1" fill="#939690" transform="rotate(-94.1 131.6 -58.9) scale(1 48.46441)"/><path fill="#828884" d="M169.4 145.5l28.2 10.2-1 2.8-28.2-10.2z"/><path fill="#fef2d2" d="M0 84h9v2H0z"/><path fill="#f5ffff" d="M208 12l11-28-65 5z"/><path fill="#d3d0bd" d="M12.1 101.8l-6.2-6.5L3 91.4l-19-3.9z"/><path fill="#4f4d42" d="M156.5 124.2l74.6-24.2-98.9 21.7 58-61.1z"/><path fill="#3d3a37" d="M85 60h45v13H85z"/><path fill="#3e3b36" d="M236.1 9l-.4-2L274-1l.4 2z"/><path fill="#1b2021" d="M192 103l15-2-1-29z"/><path fill="#8c8a7f" d="M30 99l-14-4 6 14z"/><path fill="#91886d" d="M177.4 171.2l-.9 18.7-2.6 17.1 8.7-2.2z"/><path fill="#ebf5fa" d="M191 1l-63 22 14-39z"/><path fill="#f9ffff" d="M230 5l-18 8 15-29z"/><path fill="#111817" d="M189 174l-10 5 7 28z"/><path fill="#a1aaab" d="M155 164.8l-2.9-6.9-2.8-8.2 6.8 5.2z"/><path fill="#babbac" d="M74 121h3v13h-3z"/><path fill="#403f33" d="M124 121l3-13-45-11z"/><path fill="#2f3131" d="M212 72h44v34h-44z"/></g></g></svg>