<svg xmlns="http://www.w3.org/2000/svg" viewBox="0 0 1800 1200"><defs/><filter id="a"><feGaussianBlur stdDeviation="12"/></filter><rect width="100%" height="100%" fill="#493936"/><g filter="url(#a)"><g fill-opacity=".5" transform="translate(3.5 3.5) scale(7.03125)"><circle r="1" fill="#fdffff" transform="matrix(6.63986 22.89186 -98.04073 28.43704 53.6 36.9)"/><circle r="1" fill="#72837a" transform="matrix(15.62974 -129.33463 62.89591 7.6008 194 55.5)"/><ellipse cx="18" cy="36" fill="#f8ffff" rx="51" ry="15"/><circle r="1" fill="#897f72" transform="matrix(151.0264 42.20407 -6.60544 23.63744 43.7 155.5)"/><path fill="#275370" d="M-3-10l33 35 111-35z"/><circle r="1" fill="#636d66" transform="matrix(132.6557 -48.69349 5.38425 14.66832 120.3 38.1)"/><path fill="#effff8" d="M140-9L4 36l71-2z"/><path fill="#fff5eb" d="M74.9 141.8L59.6 139l-12.7 39.6-5 6.4z"/><ellipse cx="200" cy="169" fill="#f6fff7" rx="18" ry="10"/><path fill="#342a1e" d="M236 95l35 28-136 50z"/><ellipse cx="76" cy="70" fill="#16191e" rx="20" ry="19"/><ellipse cx="95" cy="43" fill="#e8e3dc" rx="16" ry="5"/><circle r="1" fill="#717061" transform="matrix(-13.79237 -12.63837 55.97588 -61.08696 19.3 93.3)"/><circle r="1" fill="#001a24" transform="rotate(127.9 90.8 137.4) scale(64.09149 21.09713)"/><circle r="1" fill="#7f6a5a" transform="matrix(-19.0017 46.79555 -20.34835 -8.2626 140.7 147.8)"/><path fill="#fbfff9" d="M-16 43.4l69.3-23.2 19.6 3.6L-9 64.2z"/><path fill="#736264" d="M77.6 83.9l40.8 23.5-12 20.7-40.8-23.5z"/><path fill="#c0d4d2" d="M141.3 0l-22.5 27L86.7-.1l22.5-26.8z"/><path fill="#3b3132" d="M94.7 119.3l25.4 83.2-26.8 8.2L68 127.5z"/><circle r="1" fill="#656d64" transform="matrix(6.5442 -5.05597 25.3775 32.84743 121.5 46.6)"/><path fill="#00070a" d="M97.5 70.5l17-13.8 12 14.8-17 13.8z"/><path fill="#565a54" d="M89.2 38.3l75.3-30.2 19.8 85.6-110-75.1z"/><path fill="#2d343d" d="M44 23.3L-3.7-.5l46.3 15.4L95.5 2.1z"/><path fill="#e7d7cb" d="M79.5 160.7L64 150.9l-10.7 3.2 8.7-19z"/><path fill="#a3aa99" d="M41 39l38 6-95 37z"/><path fill="#302317" d="M131.2 88.9l-18.6 27 13.8 26.1 13.9-6.8z"/><path fill="#42372b" d="M49 176l-29-65 34 32z"/><path fill="#ab9983" d="M150.8 127.2l-2.7 5.8-13.1-7.6 9-30.3z"/><path fill="#95aebf" d="M12 23.4l-28-3L3 38.8l49.3-20z"/><path fill="#453a2f" d="M182 93l17 41-45 51z"/><path fill="#656e70" d="M183 55h73v31h-73z"/><path fill="#241c12" d="M83 149L59 86l36 49z"/><circle r="1" fill="#5f6c74" transform="matrix(7.21116 -24.99483 64.88883 18.72082 192.7 0)"/><path fill="#615352" d="M90.3 139.6l4.5-63.4 26.6 8.1 4.8 16.2z"/><path fill="#727166" d="M218.3 155.7L185 166.5l-5.3-16.2 33.3-10.8z"/><path fill="#5b7389" d="M65.2-12.8l-.4 26-22-.4.4-26z"/><path fill="#676962" d="M127 73l38-18-44-46z"/><path fill="#444d61" d="M144-12L95 6l7-22z"/><ellipse cx="249" cy="137" fill="#13110b" rx="64" ry="3"/><ellipse cx="53" cy="127" fill="#7c6a50" rx="9" ry="12"/><circle r="1" fill="#867968" transform="rotate(-132.7 49.1 78.2) scale(12.63584 22.95048)"/><circle r="1" fill="#58534b" transform="matrix(17.57095 12.69817 -41.77574 57.80672 7.3 117.2)"/><path fill="#555c63" d="M-16-4L0 22l27-1z"/><path fill="#908484" d="M69 93l16 2-20-13z"/><circle r="1" fill="#57544e" transform="matrix(-69.31488 32.67735 -6.9794 -14.80463 228.2 101)"/><path fill="#151312" d="M60 56h6v52h-6z"/><circle r="1" fill="#584d4d" transform="matrix(-28.73051 24.53817 -7.75668 -9.0819 110.4 150)"/><path fill="#200c0a" d="M138 162h8v8h-8z"/><circle r="1" fill="#9d998f" transform="matrix(-.02484 -3.43804 50.0599 -.3617 71.6 49)"/><path fill="#fefffe" d="M110 9l15 12L85 9z"/><path fill="#7d857e" d="M210 156l12-14-3 38z"/><path fill="#e3e5e0" d="M70 13L37 43l-8-16z"/><path fill="#cfdbd3" d="M143 8l-23-24-2 26z"/><path fill="#889ea2" d="M74 11l32.5 5.1-.4 3-32.6-5.2z"/><path fill="#937f7c" d="M75 145l-18 9-5 17z"/><path fill="#ccd4c9" d="M211.7 166.7l-13.2 10.7-8.2-10.1 13.2-10.7z"/><path fill="#403931" d="M102.4 92.8l2 15.1-61.6-3.4-29 39.9z"/><path fill="#090d11" d="M66.9 75.6l30.6-7 .5 2.2-8.9 16.6z"/><path fill="#dee7da" d="M63.2 13.8l34.5 7.1 2.7 8.2-8.2-.9z"/><circle cx="98" cy="81" r="4" fill="#aca19e"/><path fill="#534b4a" d="M63 52l64-6-31 24z"/><ellipse cx="42" cy="16" fill="#131c21" rx="12" ry="3"/><path fill="#f6eddf" d="M54.7 150l2.8-9.6 5.8 1.6-2.8 9.6z"/><path fill="#2c2117" d="M126 83l13 25-25 18z"/><path fill="#3e3d37" d="M165.5 51.1l-2.2-42.9 19.3 90-20.9-56.1z"/><path fill="#655340" d="M72 133l-19 7-6-70z"/><path fill="#647885" d="M38.3 22.2l.3 1L1.7 35.7l-.3-1z"/><path fill="#322d24" d="M157 171l32-45 7 13z"/><path fill="#0b1319" d="M9.4 15.6l-.8-25 6-.2.8 25z"/><path fill="#847968" d="M130 85.4l15.9 35.4 4.1-20.4-24.2-30.6z"/><circle r="1" fill="#d6d7d5" transform="matrix(-.1545 -1.15574 16.84282 -2.25154 95.7 45.2)"/><circle cx="64" cy="144" r="6" fill="#eae6dd"/><path fill="#7f8fa3" d="M79-6l31 14H90z"/><path fill="#aaa596" d="M91.8 18.8l-6.3 5.1-17.3 10.3-28 42.1z"/><path fill="#53494c" d="M72 185l65-48-81 26z"/><path fill="#000100" d="M250 170l-11-10 17-2z"/><path fill="#c9d9e7" d="M39 20l-15 6 6-7z"/><path fill="#282321" d="M126.7 74.5l-15.3 11-10.2-29.4 14.7-3.6z"/><path fill="#afb9a9" d="M82.9 33.6l-64.4 30-3.4-7.2 64.4-30z"/><path fill="#71837f" d="M85 29l3-4-17-5z"/><circle r="1" fill="#8e7766" transform="rotate(-169.8 74.2 73.6) scale(3.50203 17.78469)"/><path fill="#2c3544" d="M85 5L41 21 69 1z"/><ellipse cx="78" cy="14" fill="#91a1a6" rx="20" ry="2"/><path fill="#737d7a" d="M131.5 1L74.4-16 197.5-.4 187 11.2z"/><path fill="#554e46" d="M22.4 59.4L7.6 87.5l49.5-12.8L19.2 137z"/><path fill="#daecf6" d="M24 27.2l12.9-5.7L-16 36.6-3 29z"/><path fill="#767366" d="M199 157.6l-23 19.3-7-8.5 23-19.3z"/><path fill="#8fa097" d="M116.3 30.6l1.9-20.3 27.5-2.1-29 23.1z"/><path fill="#674a37" d="M66.6 121.9l-.1-2.7 5.7 32.3 6.2-22.9z"/><path fill="#62574a" d="M52 52L20 83l37 10z"/><circle r="1" fill="#706456" transform="matrix(10.24102 6.67246 -11.28107 17.3144 162.3 143.7)"/><circle r="1" fill="#eef3f0" transform="matrix(-26.9317 5.87206 -2.15515 -9.88442 0 47)"/><circle r="1" fill="#7e685f" transform="rotate(133.3 32.6 78.4) scale(16.75651 2.81223)"/><path fill="#94816e" d="M49 127h5v19h-5z"/><circle r="1" fill="#767470" transform="matrix(.76713 3.60906 -14.89819 3.1667 82.4 40.3)"/><path fill="#33414c" d="M257 182l-30-32-6 12z"/><circle r="1" fill="#dee4da" transform="matrix(-.86272 -2.57402 24.79001 -8.30877 52.9 35.5)"/><path fill="#947252" d="M-6.8-16L6.5 19.2-16 9.6 28.7-16z"/><path fill="#26241c" d="M43.4 125.6l-7-2.6 6.9-16.7 10.2-4.5z"/><path fill="#463123" d="M46.5 141.5l6.7.6-4.6 41.7-3.2-46.6z"/></g></g></svg>