<svg xmlns="http://www.w3.org/2000/svg" viewBox="0 0 4752 3168"><defs/><filter id="a"><feGaussianBlur stdDeviation="12"/></filter><rect width="100%" height="100%" fill="#4f3c3d"/><g filter="url(#a)"><g fill-opacity=".5" transform="translate(9.3 9.3) scale(18.5625)"><circle r="1" fill="#e9b47b" transform="matrix(-107.3542 -5.94463 1.8957 -34.2344 142.7 85.3)"/><ellipse cx="21" cy="128" rx="255" ry="13"/><circle r="1" transform="matrix(-49.84816 -31.87923 19.97745 -31.23787 12.8 142.3)"/><ellipse cx="150" cy="42" fill="#7b6163" rx="72" ry="21"/><ellipse cx="137" cy="103" fill="#ffd482" rx="51" ry="6"/><circle r="1" fill="#57666e" transform="matrix(41.63966 12.01796 -4.776 16.54781 42.8 93.2)"/><circle r="1" fill="#141005" transform="rotate(106.3 61.1 166.6) scale(48.78599 25.51411)"/><ellipse cx="127" cy="145" fill="#855d38" rx="95" ry="10"/><circle r="1" fill="#1c1d24" transform="matrix(76.16327 -80.71555 26.76112 25.25182 29.7 0)"/><circle r="1" fill="#feb468" transform="matrix(-.56738 4.93186 -66.10887 -7.60544 138 74.3)"/><circle r="1" fill="#2a3d5a" transform="rotate(23.6 60.7 531.4) scale(77.15922 30.53294)"/><circle r="1" fill="#825d52" transform="rotate(26.1 -37.9 449.2) scale(86.04494 18.81763)"/><path d="M119 135H-16l14-38z"/><ellipse cx="114" cy="111" fill="#b9a67e" rx="50" ry="5"/><path fill="#966042" d="M35 42h50v31H35z"/><path fill="#a8abb3" d="M52 77h44v11H52z"/><path fill="#706e82" d="M80.7 43.6l156.8-9.4.9-11-7.8-4.3z"/><path fill="#2f2d2a" d="M15 136h67v34H15z"/><circle r="1" fill="#79512d" transform="matrix(49.38643 -1.4463 .5922 20.22136 131.1 156.5)"/><path fill="#6a594c" d="M14 91h67v17H14z"/><circle r="1" fill="#262430" transform="matrix(.57737 -12.42474 80.17756 3.72582 82.8 0)"/><ellipse cx="141" cy="128" fill="#030602" rx="255" ry="7"/><path fill="#b69c6d" d="M223 100l-20 20-42-3z"/><path fill="#715849" d="M99 85h33v16H99z"/><circle r="1" fill="#4a3421" transform="matrix(35.96444 -17.2874 6.60536 13.74168 200 158)"/><path fill="#513e3f" d="M181 62l-51-21-56 8z"/><circle cx="150" cy="122" r="8" fill="#050705"/><path fill="#ffee9b" d="M90 103h69v4H90z"/><path fill="#d39863" d="M62 64h64v16H62z"/><path fill="#91683f" d="M-11.4 82.1l3.7 10 35.5 17 8.3-7.9z"/><path fill="#c79072" d="M178 50l-35 3 12-9z"/><circle r="1" fill="#181b26" transform="matrix(-21.58608 -6.43957 3.915 -13.12346 236.5 0)"/><circle r="1" fill="#ac6d4e" transform="matrix(-.8254 -4.46595 19.42667 -3.59044 116.1 37.6)"/><path fill="#8d684d" d="M157.8 116.2l69.9-47.1L260.2 84l-89.7 33.2z"/><path fill="#515763" d="M2.5 82.9l46-17.7-10.1 39.7 60.2-11.1z"/><path fill="#303039" d="M255 30l16 40-90-31z"/><path fill="#493638" d="M82 45L59 2 1 32z"/><path fill="#28262d" d="M-16 54.9L3.9-16l17.4 57.5 53.9 16.6z"/><path fill="#b78351" d="M115 94h74v8h-74z"/><path fill="#c8874f" d="M27.5 62.9L8.8 58.1l124 19.5-92.6-18.9z"/><ellipse cx="109" cy="60" fill="#be6c38" rx="29" ry="5"/><ellipse cx="103" cy="79" fill="#b99985" rx="43" ry="5"/><path fill="#8e654f" d="M160 38l111 52-39 19z"/><ellipse cx="140" cy="141" fill="#71503d" rx="87" ry="6"/><ellipse cx="159" cy="58" fill="#654c4a" rx="25" ry="6"/><circle r="1" fill="#503a39" transform="rotate(73.7 42.7 88.7) scale(10.21971 29.46358)"/><path fill="#5d6f85" d="M46.1 75.4l-23.3.2 19 20.3 25.7-7.7z"/><path fill="#945f47" d="M101.9 56L39.8 39.4 61.9 53l66.9 9.5z"/><path fill="#040705" d="M78.2 126.1L-16 95.7l14.3 84.6 39.5-73z"/><circle r="1" fill="#4f6485" transform="matrix(-.71521 -3.85656 32.77264 -6.07781 193.2 34.5)"/><path fill="#6b5a48" d="M176.9 118.9l-13.8-3.8-2.5-3.2 14-8.6z"/><path fill="#d2b789" d="M133.6 111.2L161 106l1.3 6.9L135 118z"/><path fill="#8f6459" d="M145.9 32.4l21.8-20-30 12.1 17.6 29.9z"/><path fill="#493b37" d="M243 117l28-15.5-63.9 12-19 11.4z"/><ellipse cx="158" cy="67" fill="#cd7c45" rx="18" ry="4"/><ellipse cx="139" cy="168" fill="#3a2919" rx="94" ry="3"/><path fill="#14120f" d="M70 119h77v18H70z"/><path fill="#7b6b5c" d="M104 110l-41-7-9 12z"/><path fill="#393030" d="M37 136h37v28H37z"/><ellipse cx="163" cy="33" fill="#927a82" rx="25" ry="3"/><ellipse cx="15" cy="160" fill="#1f1e1c" rx="33" ry="25"/><path fill="#f0b977" d="M125.3 77.6l-9.6-2.5 2.8-2.4 61.2 9z"/><path fill="#947366" d="M67.3 70.9l-5.5 4.8 52.1 5.7-.7-4.5z"/><path fill="#c8a470" d="M168.5 109.3l29.2 6.3 4.1-13.8 22.9 7.1z"/><path fill="#724d41" d="M32.6 73.9l81.7-26.1-21.4-27.3-39.7 55.6z"/><path fill="#815a3f" d="M89 138h75v14H89z"/><circle r="1" fill="#554b55" transform="matrix(-27.59778 6.11828 -1.65099 -7.44712 139.5 45)"/><ellipse cx="195" cy="146" fill="#5b4232" rx="26" ry="11"/><circle cx="87" r="21" fill="#2a2732"/><path fill="#29272e" d="M54.6 29l26.9 5.9-21.6 5.6L8.6 26.1z"/><circle r="1" fill="#181511" transform="matrix(-12.84063 -1.47825 1.29967 -11.28939 150.6 126.4)"/><path fill="#504236" d="M267.3 98l.3 3-34.9 3-.3-3z"/><path fill="#988467" d="M133 117l5-11-38 3z"/><ellipse cx="98" cy="113" fill="#dab17a" rx="21" ry="2"/><path fill="#60433f" d="M22 16l40 1 29 21z"/><path fill="#40464c" d="M0 69h26v24H0z"/><path fill="#b8845c" d="M258.4 94.2l-97-3.4.2-3 97 3.4z"/><path fill="#16130f" d="M105 115h16v20h-16z"/><path fill="#634d4a" d="M243.2 48l-35.9 26 34.6-5.7-46.1-22.9z"/><path fill="#ffc061" d="M131 68.3l-.1 1L51 63.7v-1z"/><circle r="1" fill="#c8915d" transform="rotate(.4 -14117 26284.5) scale(53.4532 1)"/><path fill="#40363e" d="M142.1 42.8L90.4-16l96.5 32.5-54.5 1z"/><circle r="1" fill="#191410" transform="matrix(5.12122 8.6595 -33.13686 19.59709 254.9 161.4)"/><path fill="#625047" d="M178 95h66v2h-66z"/><path fill="#ffc688" d="M160 81h17v2h-17z"/><path fill="#383f53" d="M203 27l-32 2 59-39z"/><path fill="#956656" d="M160.1 29.4L77.9 45.1l16.6-9.7-20.4 6.8z"/><path fill="#d9894b" d="M27.1 60.2L49 62.8l-.1 1L27 61.2z"/><path fill="#bd7f56" d="M213.7 75l3.2 6.7-28.6-20.2 15.8 6.7z"/><path fill="#766056" d="M111 98l47-18-64 6z"/><path fill="#c2b68e" d="M164 119l-6-4h8z"/><path d="M16.8 125.3l-24-16.2 8.4-12.4 24 16.2z"/><path fill="#796159" d="M238 77l23 16-67-11z"/><path fill="#b08256" d="M37.1 103.1l-.6 2-23.6-8.2.6-2z"/><path fill="#38363f" d="M248.4 50.9l9.7 30.9-17.4-7.9-12-57.1z"/><path fill="#503d33" d="M99 176l-53-39 37-2z"/><path fill="#99684f" d="M240.6 62.9l-57.2-18.7 34 60.7-28.2-55.4z"/><path fill="#32292e" d="M271 96l-8 31-43-9z"/><circle r="1" fill="#3b5474" transform="rotate(-10.7 280.3 -1261.8) scale(45.04273 2.24904)"/><path fill="#c08361" d="M198.3 60l-20.9 9.7-1.7-3.7 20.9-9.7z"/></g></g></svg>