<svg xmlns="http://www.w3.org/2000/svg" viewBox="0 0 1800 1200"><defs/><filter id="a"><feGaussianBlur stdDeviation="12"/></filter><rect width="100%" height="100%" fill="#46332b"/><g filter="url(#a)"><g fill-opacity=".5" transform="translate(3.5 3.5) scale(7.03125)"><circle r="1" fill="#ffbf51" transform="matrix(-1.46955 -66.66342 149.40812 -3.2936 131.5 18)"/><circle r="1" fill="#ffa03d" transform="matrix(118.54634 -9.53747 3.56402 44.29913 129.9 12.6)"/><circle cx="139" cy="169" r="119" fill="#656165"/><ellipse cx="85" cy="39" fill="#fff" rx="15" ry="14"/><circle r="1" fill="#7a544e" transform="matrix(-1.05134 -27.88116 205.50355 -7.74912 121 85)"/><circle r="1" fill="#fff" transform="matrix(1.89451 11.69706 -12.9187 2.09237 86.3 42.8)"/><circle r="1" fill="#c65814" transform="matrix(-11.07315 26.88677 -55.60639 -22.90115 11.5 27.6)"/><path fill="#c55e34" d="M56 64l207-7-5-58z"/><ellipse cx="94" fill="#f4a42a" rx="94" ry="29"/><circle r="1" fill="#3b4341" transform="matrix(71.5359 19.83866 -10.2503 36.9614 25.1 139)"/><circle r="1" fill="#484745" transform="rotate(114 87.3 144.6) scale(83.51073 67.85188)"/><circle r="1" fill="#79534b" transform="matrix(-3.56571 12.19378 -89.88633 -26.2846 74.3 78.3)"/><circle r="1" fill="#a1573f" transform="matrix(-52.81117 5.19874 -1.77745 -18.05612 225.8 52.2)"/><path fill="#fff" d="M77.7 27.9L72 44.2l26.4 5-1.6-20z"/><circle r="1" fill="#d77535" transform="matrix(-4.96019 -12.78353 36.52483 -14.17214 124 49.6)"/><circle r="1" fill="#585653" transform="matrix(-27.03515 -24.78658 48.08405 -52.4461 151.4 125.8)"/><circle r="1" fill="#c8791e" transform="matrix(-34.83368 -.55831 .23178 -14.4611 28.6 17.8)"/><circle r="1" fill="#e09139" transform="matrix(-2.1038 -22.05182 88.44262 -8.43765 173.2 13.8)"/><ellipse cx="71" cy="148" fill="#010610" rx="27" ry="2"/><circle cx="86" cy="40" r="13" fill="#f9ffff"/><path fill="#eca02c" d="M33.6 26.6L170.5-16 71.4 33.5l.4 5.6z"/><path fill="#2d3536" d="M226 115h30v24h-30z"/><path fill="#766b5f" d="M35 158h107v5H35z"/><circle r="1" fill="#af5632" transform="matrix(3.22632 -10.18022 98.9392 31.35583 0 39)"/><circle r="1" fill="#775952" transform="rotate(68.6 8.2 147.8) scale(26.13631 35.30278)"/><path fill="#0b1920" d="M224 164h31v4h-31z"/><circle r="1" fill="#c37539" transform="matrix(5.0449 11.75582 -79.72282 34.21228 222.2 23.4)"/><path fill="#383e42" d="M87 140h85v9H87z"/><circle r="1" fill="#5e4b43" transform="matrix(-36.08253 -19.6308 10.9943 -20.20818 33.7 87.6)"/><path fill="#1e282c" d="M190 150h37v4h-37z"/><path fill="#1f272a" d="M1 145l-17-14 60 2z"/><circle r="1" fill="#624d49" transform="matrix(35.66365 -7.05743 3.10993 15.71558 201.1 84.6)"/><path fill="#ffbe1f" d="M107.3 33.6l-34-9.7L70.6 35l19.1-12.8z"/><circle r="1" fill="#112129" transform="matrix(.03141 .9995 -20.58606 .64694 173.2 164.3)"/><circle r="1" fill="#f1ae3c" transform="matrix(-.1785 6.01431 -80.02681 -2.37514 91.2 0)"/><ellipse cx="112" cy="69" fill="#945c48" rx="39" ry="8"/><circle cx="80" cy="39" r="9" fill="#f8fdff"/><path fill="#887f70" d="M157 135h30v3h-30z"/><path fill="#1c242a" d="M149.5 131.8l22.9-1 3.7-.4-11.9-4z"/><circle r="1" fill="#65655f" transform="matrix(.67506 3.64231 -60.29224 11.1745 162 152)"/><path fill="#d37c24" d="M69.8 41.3l9.7 18.9L-16-5.2l91 31.5z"/><circle r="1" fill="#1c2329" transform="rotate(-101.1 143.5 14.7) scale(1 12.48809)"/><ellipse cx="194" cy="159" fill="#666860" rx="26" ry="3"/><path fill="#8c806b" d="M49 168h25v2H49z"/><path fill="#e07432" d="M61.7 51l45.3 7-.8 5L61 55.9z"/><path fill="#434542" d="M8 136l10 47 40-39z"/><ellipse cx="178" cy="168" fill="#676e65" rx="22" ry="3"/><path fill="#e5892a" d="M101.1 44.8l-3.8-13.4 35.6-10.2 3.8 13.4z"/><path fill="#625f5a" d="M63 124h46v6H63z"/><circle r="1" fill="#030a10" transform="rotate(-82.6 92.7 76.3) scale(1 17.75355)"/><path fill="#635c53" d="M79 154l3 14-42-11z"/><path fill="#bb6a40" d="M183 63l-59-15 115-20z"/><path fill="#755145" d="M41 62h32v27H41z"/><path fill="#686254" d="M0 164h21v4H0z"/><circle r="1" fill="#e49c42" transform="rotate(-93.8 78 -68) scale(10.58128 51.76756)"/><path fill="#413c3c" d="M86.4 153.9l-2 7.1-29 1.2 16.7-13.6z"/><circle r="1" fill="#8d5543" transform="matrix(-2.43839 -6.19509 24.2275 -9.53596 211.4 60.1)"/><path fill="#5a5856" d="M69 138h53v7H69z"/><path fill="#9a4f2c" d="M18.8 53.4L-16 4.3l.9 48.1 69.1 16z"/><path fill="#716c64" d="M129 160l19-9-29-4z"/><path fill="#282f32" d="M209.3 147.4l-3.8-7.4 17.1 10.1-19.2 9.9z"/><path fill="#bb691e" d="M-16 27.9l57.9 18L17.1 8.2-16 1.9z"/><ellipse cx="25" cy="153" fill="#2c2e2f" rx="7" ry="6"/><path fill="#68675a" d="M214 160h29v4h-29z"/><path fill="#2c3338" d="M166 139h21v5h-21z"/><ellipse cx="129" cy="101" fill="#685754" rx="55" ry="13"/><path fill="#16161c" d="M56 146h24v3H56z"/><ellipse cy="94" fill="#4f413c" rx="23" ry="20"/><ellipse cx="57" fill="#ffc025" rx="28" ry="3"/><circle r="1" fill="#d07937" transform="matrix(-37.47074 12.53754 -4.4654 -13.3457 132.4 44.4)"/><path fill="#474342" d="M271 63v53l-74 19z"/><path fill="#4d504d" d="M201.2 112.6l9.2 36.9-15.6 3.9-9.2-36.9z"/><path fill="#1f2d37" d="M138.4 166.4l-24.9-1.8v-1l25 1.8z"/><path fill="#1b1f26" d="M63.6 154.4l-.1-1 35-1.8v1z"/><circle r="1" fill="#c96b2f" transform="matrix(-19.32636 -4.65689 2.49014 -10.33425 52.5 47.3)"/><path fill="#262b2f" d="M60.5 166.2l-9.3-4.2-13.1 1.5 6.4 2.6z"/><path fill="#121d28" d="M105.5 155.2v-2l13-.4v2z"/><circle r="1" fill="#f8fafb" transform="matrix(6.18544 8.03196 -10.0101 7.70881 83.4 40.5)"/><path fill="#0f1519" d="M97 169h20v1H97z"/><path fill="#29282c" d="M85 132.9l-5 .8 17.3 17.7-11.1-1.4z"/><path fill="#5e5f55" d="M213 167h34v3h-34z"/><circle r="1" fill="#d48738" transform="matrix(-58.0305 20.16057 -2.61165 -7.51743 217 12)"/><path fill="#2e3031" d="M36 128h14v8H36z"/><circle r="1" fill="#6e4838" transform="rotate(14.8 -242.5 77.6) scale(32.09244 7.36711)"/><path fill="#eca131" d="M100.6 34.7L82.2 21 95.4 3.3 113.8 17z"/><path fill="#615c54" d="M28 145h34v3H28z"/><ellipse cx="160" cy="147" fill="#6b6963" rx="5" ry="4"/><path fill="#3f4542" d="M216.4 152.5l44.8-5.8 3.6 15.5-30.8-1.3z"/><path fill="#53504b" d="M29.1 136.7l41.4-3.2-57.4 11.4 3.4-6.9z"/><path fill="#e0902b" d="M36.1 22.2l36.7 12.6-.7-32.2L46 6.3z"/><path fill="#0b1114" d="M205 168h8v2h-8z"/><path fill="#53554f" d="M243.1 134.6l-.2 15-14-.2.2-15z"/><ellipse cx="26" cy="125" fill="#51514d" rx="18" ry="3"/><path fill="#febe09" d="M78 25h19v3H78z"/><path fill="#5d5d5a" d="M103 135h60v5h-60z"/><ellipse cx="121" cy="151" fill="#71685f" rx="63" ry="1"/><path fill="#34373c" d="M95 149.7l16.9 1.3 5.8-8.8 19.9-2.6z"/><ellipse cx="198" cy="115" fill="#3d3d3d" rx="46" ry="2"/><ellipse cx="124" cy="157" fill="#817567" rx="17" ry="2"/><circle r="1" fill="#f9f9f4" transform="matrix(-6.90845 -1.25548 1.43423 -7.89204 80.5 36.9)"/></g></g></svg>