<svg xmlns="http://www.w3.org/2000/svg" viewBox="0 0 1800 1200"><defs/><filter id="a"><feGaussianBlur stdDeviation="12"/></filter><rect width="100%" height="100%" fill="#2e3f55"/><g filter="url(#a)"><g fill-opacity=".5" transform="translate(3.5 3.5) scale(7.03125)"><circle r="1" fill="#faffff" transform="matrix(-254.51158 -15.77524 5.21419 -84.12366 153.6 65.2)"/><circle r="1" fill="#bfe5ff" transform="rotate(-76.7 124.9 -77.9) scale(35.6628 255.00004)"/><ellipse cx="82" cy="136" fill="#6a6963" rx="113" ry="57"/><circle r="1" fill="#547394" transform="rotate(92.6 30.2 168.3) scale(24.21192 234.76966)"/><ellipse cx="33" cy="98" fill="#9a794d" rx="108" ry="28"/><circle r="1" fill="#73a4ed" transform="matrix(-211.613 -2.21609 .25825 -24.65972 136.9 19.7)"/><circle r="1" fill="#e3eaf2" transform="matrix(-2.80378 26.18433 -83.58711 -8.95037 196.8 80.2)"/><path fill="#e1cfb6" d="M51.5 126.6l-30-11.5 23-59.7 30 11.5z"/><path fill="#24291f" d="M146.3 98.5l-32.1 14.6-40.1-28.7-7.4-12.1z"/><ellipse cx="77" cy="48" fill="#a6c5eb" rx="255" ry="21"/><circle r="1" fill="#3b3933" transform="matrix(.36985 6.78464 -31.28775 1.70558 9.8 74.8)"/><ellipse cx="36" cy="94" fill="#3e3e2a" rx="101" ry="4"/><circle r="1" fill="#3f556b" transform="matrix(-33.18865 21.55296 -17.71267 -27.27512 97 151.7)"/><circle r="1" fill="#85a4c4" transform="matrix(-40.11027 1.12867 -.27555 -9.79252 174.4 125.6)"/><path fill="#d8bd9c" d="M120 115L71 95l4 19z"/><path fill="#e9c89b" d="M69.7 83.6l-45.8 34-1.2-17 63.9-12.4z"/><circle r="1" fill="#9c8d86" transform="matrix(-13.11055 -4.3359 7.4782 -22.612 44.8 131.6)"/><circle r="1" fill="#54748e" transform="matrix(.76314 11.48963 -69.29163 4.60235 209.1 149)"/><ellipse cx="103" fill="#81a5d5" rx="255" ry="35"/><path fill="#434232" d="M109 71l-10 43 27-16z"/><ellipse cx="98" cy="66" fill="#cbdcee" rx="72" ry="8"/><path fill="#635446" d="M111.5 83l38.8 27.6L67.9 126l109.9-11.4z"/><path fill="#1f1d26" d="M54 95l9 15 16 1z"/><path fill="#d5dcdc" d="M271 78.1l-56.1 36-35.1-8.2L132.4 91z"/><path fill="#deb17a" d="M136.9 110.4l.9 6.4-23.6-.6 18.8-14z"/><circle r="1" fill="#efd5ba" transform="matrix(.32002 3.35847 -12.12879 1.15574 7.6 103.3)"/><path fill="#fffacd" d="M50 94.8l3.5 11.5-9.5 2.9-3.5-11.5z"/><ellipse cy="111" fill="#272d24" rx="20" ry="3"/><path fill="#f7d3a1" d="M68 100h32v6H68z"/><path fill="#e2cebb" d="M19 85h11v8H19z"/><path fill="#494239" d="M36 87L13 72l11-9z"/><path fill="#b2cdec" d="M-4.6 70.4l129.4-17.6-112 1.9-27.9-14.6z"/><ellipse cx="135" cy="35" fill="#98b8de" rx="202" ry="15"/><path fill="#5d5137" d="M62 91l-15 11 36-5z"/><path fill="#d6b08a" d="M8.5 78.2l-15.1-2.7-8.7 29 15.1-7z"/><path fill="#64728b" d="M0 119h34v20H0z"/><circle r="1" fill="#759ace" transform="matrix(-.0657 -9.40984 252.2042 -1.76075 93.5 3)"/><path fill="#3a3725" d="M6 92h39v5H6z"/><path fill="#708ba7" d="M227.9 111.8l-108.6 37.3 139.6-14.9 1.1-15.1z"/><path fill="#facd91" d="M57 82l12-13v23z"/><path fill="#d8c8b1" d="M65 113h56v3H65z"/><path fill="#865e36" d="M197 114h39v2h-39z"/><path fill="#d8e6f4" d="M102 79l-1-9-28-1z"/><circle r="1" fill="#f0d4aa" transform="matrix(-2.811 -4.84927 9.27563 -5.37686 44.6 82.7)"/><path fill="#95785a" d="M52 93h15L51 80z"/><ellipse cx="104" cy="92" fill="#323431" rx="3" ry="17"/><ellipse cx="46" cy="105" fill="#f9d3a9" rx="15" ry="4"/><circle r="1" fill="#6c6e78" transform="matrix(7.09767 9.48806 -26.33143 19.69757 61.5 140.6)"/><path fill="#3b383c" d="M127 111.7l-66-2.4v-1l66 2.4z"/><path fill="#7c6246" d="M29 85h6v16h-6z"/><path fill="#b19b7a" d="M90.5 84.2l55.3 4.6-16.8-6.5 3.7 9.5z"/><ellipse cx="86" cy="167" fill="#37526a" rx="131" ry="10"/><path fill="#c7cbcd" d="M221.9 113.9l-50.1-10.6 99.2-9.5v19.5z"/><path fill="#6a6147" d="M90 99l1-23-23-6z"/><path fill="#2b2d25" d="M136 93.1l16.9 17-2.8 2.8-17-17z"/><path fill="#e1b882" d="M142.4 111.3l-15-.6.2-8 15 .6z"/><circle r="1" fill="#5a738c" transform="rotate(-40.3 286.6 -116.9) scale(11.75987 47.19162)"/><ellipse cx="39" cy="114" fill="#bca07f" rx="23" ry="6"/><path fill="#6a6b6f" d="M145.7 106.1l59.5 10-55.4-19.9-9.5 21.1z"/><path fill="#adc8e7" d="M55 76l74-38L-1 54z"/><path fill="#cbb091" d="M15 76.5h6v17h-6z"/><ellipse cx="160" cy="84" fill="#d2dfe7" rx="24" ry="14"/><path fill="#49443a" d="M13.1 83.5l-25-23.7 6.4 6.1L19 77.5z"/><path fill="#83613d" d="M135.1 109l26 1-.2 7-26-1z"/><path fill="#3e403c" d="M32.6 70.7l-3.9 7-11.3-6.4 3.9-7z"/><path fill="#d5dfe8" d="M165 68l-78-2 38 12z"/><path fill="#edd1ab" d="M43 95h9v18h-9z"/><ellipse cx="241" cy="150" fill="#587189" rx="116" ry="8"/><circle r="1" fill="#b2cbe5" transform="matrix(-.41636 7.66053 -139.50705 -7.58243 226.9 63.7)"/><ellipse cx="188" cy="113" fill="#a49f98" rx="27" ry="2"/><path fill="#433835" d="M22 106l1-10-11-7z"/><path fill="#505e71" d="M0 136h36v22H0z"/><ellipse cx="114" cy="107" fill="#474640" rx="14" ry="5"/><path fill="#a99574" d="M38.1 114.6l45.9-3.8-40.9-27.5 37.7 32.4z"/><path fill="#7f96ae" d="M129 118h93v16h-93z"/><path fill="#5f504f" d="M45 73h3v6h-3z"/><ellipse cx="15" cy="115" fill="#d6cab6" rx="68" ry="1"/><path fill="#423d34" d="M-5.2 102.3l19.9-13.4.5.8-19.9 13.4z"/><path fill="#948d8d" d="M48.4 124.1l5.1 17.9-23.7-7.7-5.6-24.9z"/><ellipse cx="130" cy="16" fill="#89abd9" rx="83" ry="11"/><path fill="#cebeaa" d="M0 100h15v8H0z"/><circle r="1" fill="#e0c6a1" transform="matrix(-.50595 -2.57267 14.58243 -2.8678 42.2 83.4)"/><circle r="1" fill="#2d2f3c" transform="rotate(30 -112 177.3) scale(1.17299 7.77741)"/><path fill="#443f2b" d="M111 76h4v9h-4z"/><path fill="#3c4a5c" d="M0 108h22v3H0z"/><path fill="#cfdde9" d="M216 85l-23-26-75 23z"/><path fill="#c6cfd5" d="M97.5 84.6l6.5-4.8-16.5-2.6 16.1-14.5z"/><path fill="#b4cee6" d="M-16 68l40-11-9 11z"/><circle cx="80" cy="76" r="2" fill="#ffd8a2"/><path fill="#93825f" d="M47.7 93.4l21.2-1.6-2.5 12-10.7-21.5z"/><path fill="#434638" d="M53 95h91v4H53z"/><path fill="#636048" d="M95 92l-17 4 9-23z"/><path fill="#81755c" d="M135.3 80.1L133 93.9l-64.8 9.4 68.7-9.2z"/><path fill="#1a2321" d="M101.7 105.8l4.4-18.2 3.3 20.4-7.2-.6z"/><path fill="#40586e" d="M102 116l-3 53 22-53z"/><circle cx="134" cy="132" r="13" fill="#6e8096"/><circle cx="59" cy="77" r="3" fill="#8f7763"/><ellipse cx="1" cy="92" fill="#edf1f1" rx="1" ry="3"/><path fill="#92acc6" d="M146 119.4l166-5.8v1l-166 5.8z"/><path fill="#c3a17f" d="M30.6 78.1L16 88.7l-.6-.8L30 77.3z"/></g></g></svg>