<svg xmlns="http://www.w3.org/2000/svg" viewBox="0 0 1800 1200"><defs/><filter id="prefix__a"><feGaussianBlur stdDeviation="12"/></filter><rect width="100%" height="100%" fill="#333c57"/><g filter="url(#prefix__a)"><g transform="translate(3.5 3.5) scale(7.03125)"><circle r="1" fill="#e7a17a" fill-opacity=".5" transform="rotate(-3.2 1608.6 -2970.1) scale(238.59185 51.60585)"/><circle r="1" fill="#5a6481" fill-opacity=".5" transform="rotate(171.5 92.5 21.3) scale(255 40.39721)"/><circle r="1" fill="#ec9252" fill-opacity=".5" transform="matrix(121.70961 -20.53016 3.59832 21.33203 241.7 106.6)"/><ellipse cx="108" cy="157" fill="#3a1c0d" fill-opacity=".5" rx="255" ry="24"/><circle r="1" fill="#bf5926" fill-opacity=".5" transform="matrix(.38818 -12.57785 148.29505 4.5767 85.3 123.7)"/><ellipse cx="200" cy="83" fill="#9e8e91" fill-opacity=".5" rx="151" ry="21"/><path fill="#000015" fill-opacity=".5" d="M69 99l31 13-53-1z"/><circle r="1" fill="#000214" fill-opacity=".5" transform="matrix(23.5436 1.88266 -.34533 4.31854 134.6 108)"/><path fill="#0a0000" fill-opacity=".5" d="M270 143.2L148.7 141l46.1-3.3 72.9-12.6z"/><path fill="#343444" fill-opacity=".5" d="M211.6 117.4l22.2-5.4-16.8 13-60.5-2.8z"/><ellipse cx="155" cy="131" fill="#f37d31" fill-opacity=".5" rx="69" ry="5"/><path fill="#585b70" fill-opacity=".5" d="M136 3l135 34-287 29z"/><path fill="#132037" fill-opacity=".5" d="M72 120h37v5H72z"/><circle r="1" fill="#ce9a7a" fill-opacity=".5" transform="matrix(-1.5495 9.19246 -79.8587 -13.46109 214.2 106.4)"/><circle r="1" fill="#bc4c28" fill-opacity=".5" transform="matrix(.029 4.89568 -76.69519 .45442 30.4 131)"/><circle r="1" fill="#7c737f" fill-opacity=".5" transform="matrix(1.26206 12.33889 -221.48275 22.654 185.7 66.2)"/><path fill="#d49367" fill-opacity=".5" d="M101 113h88v7h-88z"/><circle r="1" fill="#494d61" fill-opacity=".5" transform="rotate(158.9 -1 22.6) scale(255 24.14076)"/><circle r="1" fill="#ee8f36" fill-opacity=".5" transform="matrix(47.06067 -3.56595 .26072 3.44075 216.4 128)"/><ellipse cx="128" cy="106" fill="#201e28" fill-opacity=".5" rx="19" ry="5"/><path fill="#2b2a39" fill-opacity=".5" d="M187 120h27v5h-27z"/><circle r="1" fill="#443b41" fill-opacity=".5" transform="matrix(60.39085 2.9536 -.9931 20.30544 162.1 168)"/><path fill="#a27d70" fill-opacity=".5" d="M31 89h123v13H31z"/><circle r="1" fill="#7d3f34" fill-opacity=".5" transform="matrix(-32.23978 -6.46015 1.97052 -9.83402 0 127)"/><path fill="#b57b5d" fill-opacity=".5" d="M74 119l-65 2 16-20z"/><path fill="#a74139" fill-opacity=".5" d="M98 134h119v2H98z"/><path fill="#242832" fill-opacity=".5" d="M84 103l-30 9 36 3z"/><path fill="#050909" fill-opacity=".5" d="M223.5 146.5l-2.7-10.6 41.7-10.4 2.7 10.6z"/><circle r="1" fill="#5f5e70" fill-opacity=".5" transform="rotate(-13 255.6 -208.5) scale(106.87616 13.73173)"/><circle r="1" fill="#a18b86" fill-opacity=".5" transform="matrix(-72.69097 -5.89933 .77075 -9.49708 200.7 86.3)"/><path fill="#5b474c" fill-opacity=".5" d="M159 127.2l-3.7-1 10.1-9.4 8.3 3.5z"/><circle r="1" fill="#d4844e" fill-opacity=".5" transform="matrix(13.24195 6.86398 -5.2955 10.21606 136.6 122.2)"/><circle r="1" fill="#5d6276" fill-opacity=".5" transform="matrix(-66.40692 -4.70555 1.09813 -15.49734 215.3 36.6)"/><path fill="#23242b" fill-opacity=".5" d="M44.9 183l-56.1 2-4.8-43.6 76.1.2z"/><path fill="#e99c55" fill-opacity=".5" d="M225.9 128.7l-2.1-10.8 34.3-6.6 2.1 10.8z"/><path fill="#da9770" fill-opacity=".5" d="M180 121l-30-15h31z"/><ellipse cx="99" cy="129" fill="#d77539" fill-opacity=".5" rx="56" ry="4"/><circle r="1" fill="#767382" fill-opacity=".5" transform="matrix(-4.85008 12.06496 -75.18162 -30.22282 255 73)"/><path fill="#6c4843" fill-opacity=".5" d="M154.3 117.9l-1.3-7.8-63.5-1.6 51.1 5.7z"/><circle r="1" fill="#3b455e" fill-opacity=".5" transform="rotate(70.7 42 59.3) scale(14.83186 112.53313)"/><path fill="#a06a54" fill-opacity=".5" d="M48.3 128.4l67-24.5-59.9-6.8 58.8 14.7z"/><path fill="#39323e" fill-opacity=".5" d="M0 123h52v1H0z"/><path fill="#25242c" fill-opacity=".5" d="M67 101l34 8-35 3z"/><ellipse cx="224" cy="128" fill="#e38339" fill-opacity=".5" rx="18" ry="4"/><path fill="#673636" fill-opacity=".5" d="M51.8 140.1l36.7-4.9 13.6-1.8 36.4 8.4z"/><path fill="#212226" fill-opacity=".5" d="M271 149.8l-10-7.7-62.3-6.2-82.3 6z"/><ellipse cx="172" cy="128" fill="#e89143" fill-opacity=".5" rx="51" ry="3"/><ellipse cx="230" cy="136" fill="#100d10" fill-opacity=".5" rx="15" ry="5"/><path fill="#8f7976" fill-opacity=".5" d="M63 107L11 92l55-19z"/><circle r="1" fill="#a17561" fill-opacity=".5" transform="matrix(-1.00967 -6.2311 34.8969 -5.6546 26.5 107)"/><path fill="#d7a07b" fill-opacity=".5" d="M224.5 111.2l-23 7-4-13.4 23-7z"/><circle r="1" fill="#ca5727" fill-opacity=".5" transform="rotate(173.6 102.1 73.4) scale(3.88 1.79431)"/><circle cx="110" cy="121" r="3" fill="#2f2e40" fill-opacity=".5"/><path fill="#b18d7e" fill-opacity=".5" d="M207 83l55 26-117-18z"/><ellipse cx="221" cy="3" fill="#414a63" fill-opacity=".5" rx="159" ry="10"/><circle r="1" fill="#726a7c" fill-opacity=".5" transform="matrix(-76.60913 12.52501 -1.86965 -11.43571 113 59.5)"/><ellipse cx="194" cy="140" fill="#292328" fill-opacity=".5" rx="13" ry="6"/><path fill="#664d49" fill-opacity=".5" d="M142 169h109v1H142z"/><path fill="#a7433e" fill-opacity=".5" d="M104 135h61v3h-61z"/><ellipse cx="25" cy="136" fill="#5c3336" fill-opacity=".5" rx="39" ry="2"/><path fill="#918384" fill-opacity=".5" d="M175.4 66.3l135 16.5-1.8 15-135-16.6z"/><path fill="#6e6369" fill-opacity=".5" d="M-12.7 84.6l29.5-24 12 14.8-29.6 24z"/><circle r="1" fill="#4f3b3b" fill-opacity=".5" transform="matrix(-.1891 -.98196 14.25974 -2.746 217.9 118.3)"/><path fill="#634a4d" fill-opacity=".5" d="M187.7 114.5l-.2-1 12.8-2 .2 1z"/><path fill="#956e5b" fill-opacity=".5" d="M255.8 135.9l1.4-27.3-24.3-2.7 38.1-7.6z"/><path fill="#b97f65" fill-opacity=".5" d="M134.3 98.5l40.3.5-39.3 30.8 20.8-22z"/><path fill="#0a0e17" fill-opacity=".5" d="M181.5 164.9v1l-23 1.2v-1z"/><circle r="1" fill="#dd8245" fill-opacity=".5" transform="matrix(-.01178 -1.88735 18.5418 -.11572 124.2 125.8)"/><path fill="#bc8369" fill-opacity=".5" d="M109.3 100.5l-3 9.5-7.6-2.5 3-9.5z"/><circle r="1" fill="#50566b" fill-opacity=".5" transform="rotate(13.8 16.8 956) scale(61.28543 9.882)"/><path fill="#6e4c48" fill-opacity=".5" d="M161 118h9v9h-9z"/><circle r="1" fill="#2f2c34" fill-opacity=".5" transform="matrix(-3.92695 -26.66985 46.41408 -6.83415 60 169)"/><ellipse cx="165" cy="122" fill="#8b5c50" fill-opacity=".5" rx="34" ry="1"/><path fill="#38323b" fill-opacity=".5" d="M75 119h11v2H75z"/><path fill="#b9613d" fill-opacity=".5" d="M21 130l54-15 2 18z"/><ellipse cx="63" cy="109" fill="#202029" fill-opacity=".5" rx="17" ry="2"/><path fill="#dd945e" fill-opacity=".5" d="M206.6 109.9l-19.7 8.8 15.5.1 17.9-6.9z"/><path fill="#463a3e" fill-opacity=".5" d="M139 156h88v8h-88z"/><path fill="none" stroke="#c67e55" stroke-opacity=".5" stroke-width=".5" d="M159.8 115q-69.8 6.9-76.1 5.2"/><path fill="#202229" fill-opacity=".5" d="M211 163h37v5h-37z"/><path fill="#e18f4e" fill-opacity=".5" d="M216 121h40v2h-40z"/><path fill="#9f6a56" fill-opacity=".5" d="M44 112h14v4H44z"/><path fill="#837681" fill-opacity=".5" d="M214.1 56.5L158 59l-54.2 6.1L271 77.5z"/><path fill="none" stroke="#df874b" stroke-opacity=".5" stroke-width=".5" d="M121.5 126q26.8-3 57.7-1.7"/><path fill="#d6804a" fill-opacity=".5" d="M150 124.2l28-1.4v1l-28 1.4z"/><path fill="#39323b" fill-opacity=".5" d="M106 122.1v1l-44 .8v-1z"/><circle cx="211" cy="119" r="4" fill="#4c383b" fill-opacity=".5"/><path fill="#d38d62" fill-opacity=".5" d="M173.4 108l18.9-8-60.1 27.5 52.5-15.1z"/><path fill="#9a7164" fill-opacity=".5" d="M89.7 101.7l-46.2-1.4 103.4-2.9-30.6 6.5z"/><circle cx="148" cy="109" r="5" fill="#51434b" fill-opacity=".5"/><path fill="#ca5b2e" fill-opacity=".5" d="M141 133h77v2h-77z"/><circle cy="118" r="2" fill="#0e2a3c" fill-opacity=".5"/><path fill="#57444b" fill-opacity=".5" d="M154 121h28v2h-28z"/><circle r="1" fill="#8f7b7c" fill-opacity=".5" transform="matrix(-81.53749 11.07273 -.94838 -6.98367 107.8 82.2)"/><circle r="1" fill="#807177" fill-opacity=".5" transform="rotate(-10.5 452.9 -297.2) scale(56.71151 6.69567)"/><path fill="#38313a" fill-opacity=".5" d="M190 119h30v2h-30z"/><circle r="1" fill="#525466" fill-opacity=".5" transform="matrix(2.60511 6.97126 -63.9912 23.9131 20.3 47.4)"/><path fill="#4b3c43" fill-opacity=".5" d="M38 122h13v2H38z"/><path fill="#14161f" fill-opacity=".5" d="M189 160h19v2h-19z"/><path fill="#ac7353" fill-opacity=".5" d="M222.9 120l-1.3-4.9 11.5-3 1.3 4.8z"/></g></g></svg>