<svg xmlns="http://www.w3.org/2000/svg" viewBox="0 0 1800 1200"><defs/><filter id="a"><feGaussianBlur stdDeviation="12"/></filter><rect width="100%" height="100%" fill="#2f4a57"/><g filter="url(#a)"><g fill-opacity=".5" transform="translate(3.5 3.5) scale(7.03125)"><circle r="1" fill="#fff" transform="matrix(151.71216 42.80343 -21.92341 77.70518 123.2 66.1)"/><circle r="1" fill="#fef5ec" transform="matrix(-21.15198 .59557 -3.09061 -109.76482 142 71.3)"/><circle r="1" fill="#7c8084" transform="rotate(16.1 -505.3 73.4) scale(161.88765 53.48522)"/><ellipse cx="241" cy="44" fill="#173a88" rx="24" ry="47"/><ellipse cx="94" cy="36" fill="#304a7b" rx="22" ry="65"/><path fill="#12393b" d="M40 111h51v42H40z"/><ellipse cx="28" cy="42" fill="#d7d2cf" rx="29" ry="50"/><path fill="#d5d6de" d="M91.5 95h43v54h-43z"/><circle r="1" fill="#bab7b6" transform="rotate(77.3 64.6 137.2) scale(68.10522 34.79093)"/><ellipse cx="199" cy="160" fill="#3d5475" rx="55" ry="14"/><circle cx="48" cy="82" r="26" fill="#d6d2cd"/><circle r="1" fill="#7a7587" transform="rotate(-114.6 67 63.7) scale(85.32236 13.07217)"/><circle cx="242" cy="118" r="34" fill="#a19fad"/><circle r="1" fill="#3b5787" transform="rotate(159.8 119.6 33) scale(28.85211 70.81269)"/><path fill="#587aae" d="M90.7 103l-5.1-41.6 35.7-4.4 5.1 41.6z"/><path fill="#aeb2c1" d="M90.7 185l-53.6-32.6 74 15.9 15.9 1.2z"/><path fill="#fff" d="M217.7 46.2l-2.8-13.5-3 45.7 8.5 22.4z"/><circle r="1" fill="#edece6" transform="matrix(-7.82047 -70.7263 10.20685 -1.1286 128.6 34)"/><ellipse cx="82" cy="55" fill="#706d5e" rx="8" ry="60"/><path fill="#ccc3bd" d="M236.3 141l6-.7 5.4 44.7-6 .7z"/><path fill="#aeaebb" d="M39.9 153.7l-1 10-50.8-5.4 1-10z"/><circle r="1" fill="#c1b3b0" transform="matrix(3.36126 -1.24138 9.04142 24.48131 26.5 145.2)"/><ellipse cx="193" cy="154" fill="#1f3d59" rx="39" ry="5"/><path fill="#4d6175" d="M69 133l-85-74 47 71z"/><path fill="#1c422f" d="M5.2 152.1l-17.5-36 17-8.2 17.6 36z"/><ellipse cx="149" cy="109" fill="#dad9d3" rx="23" ry="36"/><ellipse cx="181" cy="9" fill="#979ea4" rx="27" ry="50"/><path fill="#9da0a1" d="M42 0h36v63H42z"/><path fill="#60696e" d="M4 11h76v4H4z"/><path fill="#50677a" d="M162.5 133.6l7.5 21.1 62.7 30.3-96.8-9z"/><path fill="#c4c1b9" d="M153 151l-22 34 4-43z"/><path fill="#1b2426" d="M81 41h2v84h-2z"/><ellipse cx="51" cy="113" fill="#9a9b9c" rx="4" ry="22"/><circle r="1" fill="#506e9d" transform="matrix(-13.60377 4.5486 -16.0037 -47.86324 101.1 39.9)"/><path fill="#949ba0" d="M126.1 100l8.7 49.2-5 .9-8.6-49.3z"/><path fill="#9d97a0" d="M22.7 110.6l-9.9 6.9-15.5-22.1 9.9-6.9z"/><path fill="#696959" d="M269 216.5L192 44l1-.4L269.8 216z"/><path fill="#9599a5" d="M156 133h100v16H156z"/><path fill="#c1c3c2" d="M29 65h38v45H29z"/><path fill="#cacdd2" d="M96 100h23v50H96z"/><path fill="#14424b" d="M90 120l-27-10-11 25z"/><circle r="1" fill="#3b5682" transform="matrix(-29.20091 -51.61244 25.1075 -14.20514 245.7 24.5)"/><ellipse cx="3" cy="8" fill="#c2c2c3" rx="10" ry="65"/><path fill="#150500" d="M0 162h26v3H0z"/><path fill="#777b72" d="M207 120l-49 28 17-20z"/><path fill="#23455d" d="M133 177l13 4 20-38z"/><path fill="#3d463f" d="M115.2 168.3l-71.9-35.2 4.6 32.1-18.7-16.6z"/><path fill="#415e8a" d="M233.6 81.1L271 43.2 215.1 6.7l8.1 89z"/><path fill="#44536f" d="M-11 56l10 33 42 28z"/><path fill="#6f89aa" d="M125 88L88 99l-3-61z"/><path fill="#100800" d="M86 171l-20 8-16-13z"/><path fill="#2b5052" d="M32.6 110.5l9.1 22.4 3-9.8 10.9-14z"/><path fill="#eee9e4" d="M121.5 45.4l-1.4-9.4-9.6-52 12.9 2z"/><path fill="#707278" d="M82 86h10v29H82z"/><path fill="#4a4632" d="M81 1h3v42h-3z"/><path fill="#fffffc" d="M211 72l6-27 3 25z"/><circle r="1" fill="#cbcccc" transform="rotate(147 2 44.4) scale(12.24316 25.94273)"/><path fill="#8c959c" d="M193.6-2.8l-3.3 37.9-26-2.3 3.4-37.9z"/><circle r="1" fill="#566166" transform="rotate(-173.2 1 4.8) scale(50.98208 1)"/><circle r="1" fill="#b9bbb7" transform="rotate(-100.3 111.5 -74) scale(45.00316 5.71911)"/><path fill="#afa8a6" d="M4.6 99.5l17.7 24.8 14 60.7L24 143.6z"/><path fill="#909799" d="M63 21h18v51H63z"/><circle r="1" fill="#acaba9" transform="matrix(28.19482 -29.57463 3.43184 3.27173 160.3 142)"/><path fill="#8f9eb7" d="M76 127h12v6H76z"/><ellipse cx="89" cy="75" fill="#3f444e" rx="1" ry="53"/><path fill="#2f4a63" d="M164 150h74v17h-74z"/><circle r="1" fill="#72768d" transform="matrix(21.4256 28.48687 -3.21514 2.41818 19.9 109.2)"/><path fill="#808a9d" d="M131.4 171.8L102 185l16.8-24.2-32.7-7.4z"/><path fill="#bbbfc1" d="M76 18l-83-7-5 66z"/><path fill="#4c689b" d="M119.5 45.7l-15.6 3.6-17.4-75 15.6-3.6z"/><path fill="#d1d4d1" d="M136 55h31v81h-31z"/><circle r="1" fill="#405c81" transform="matrix(-6.87177 4.169 -3.76616 -6.20777 125.4 155.7)"/><path fill="#9397a8" d="M74.5 131.2l-.7.7-18.3-17 .7-.8z"/><path fill="#e9e8da" d="M215 78h6v21h-6z"/><path fill="#b3b3af" d="M63 65h11v47H63z"/><path fill="#696756" d="M172.9-7.6L208 75.2l-.9.4L172-7.2z"/><circle r="1" fill="#524752" transform="matrix(1.14854 -.58774 27.02317 52.8079 36.3 149.2)"/><path fill="#1f4443" d="M48.8 148.9l-8.7-16.6L84 150.2l5.6-20.7z"/><path fill="#968793" d="M25 130l6 43h14z"/><path fill="#a4a5a7" d="M174 136l34-19-46-82z"/><path fill="#0b2747" d="M244 149h12v3h-12z"/><path fill="#a7afb6" d="M156.9 151.8l-67.7-4.9 5.8-30.4 2.3 16.1z"/><path fill="#7a8aa0" d="M85.2 80.4L164.7 31l-37.9 25.3-4.3 4z"/><path fill="#9aa0a3" d="M-8.7 36.1l73.6 21.6-5.5 3.5-65.6-20.1z"/><path fill="#949aa7" d="M122.7 185h34.8l-72.3-23.3-46.8-1.2z"/><circle r="1" fill="#737c8c" transform="rotate(152.8 109.4 95.3) scale(1 35.23871)"/><path fill="#42544d" d="M-7.2 172.5l15.8-62.6 14.8 40.6-30.9 2.3z"/><path fill="#fffff7" d="M214 33h3v30h-3z"/><path fill="#606262" d="M50 87.7l5 18.3-1 .3L49 88z"/><path fill="#184841" d="M-4 95l6 26 15 6z"/><path fill="#7b8ca8" d="M248.5 81.2L220 93.5l37.6-3.3L271 62.7z"/><path fill="#78828b" d="M30.5 111.5l17.4 4.2-1.5 16.5 15.8-18.6z"/><path fill="#656d71" d="M76.1 150.5l17.4 8.5-13.7-30.6 15.3 21z"/><ellipse cx="43" cy="3" fill="#b8bcc0" rx="36" ry="9"/><ellipse cx="87" cy="28" fill="#8a9193" rx="2" ry="91"/><path fill="#c5c8c8" d="M-11 59l64 50-19-58z"/><ellipse cx="137" cy="137" fill="#dbdad3" rx="4" ry="26"/><path fill="#a1a5a9" d="M241 169.5l10.4 15.5-8.4-36-14-65z"/><path fill="#727993" d="M55.8 178.8L47.4 166 11.5 90.2l36 61z"/><path fill="#656a70" d="M28 118.3l58.5 36.6-.5.8-58.5-36.6z"/></g></g></svg>