<svg xmlns="http://www.w3.org/2000/svg" viewBox="0 0 1800 1200"><defs/><filter id="prefix__a"><feGaussianBlur stdDeviation="12"/></filter><rect width="100%" height="100%" fill="#37394f"/><g filter="url(#prefix__a)"><g transform="translate(3.5 3.5) scale(7.03125)"><ellipse cx="170" cy="95" fill="#b46e5f" fill-opacity=".5" rx="252" ry="17"/><ellipse cx="213" cy="7" fill="#556d7d" fill-opacity=".5" rx="194" ry="73"/><ellipse cx="86" cy="156" fill="#0d160c" fill-opacity=".5" rx="255" ry="44"/><circle r="1" fill-opacity=".5" transform="matrix(-5.09523 -.21355 3.69315 -88.11581 224.2 28.1)"/><path fill="#949590" fill-opacity=".5" d="M231 38h25v69h-25z"/><path fill="#627484" fill-opacity=".5" d="M70.5 150.6l37.4-6.6 7.6 43.4-37.4 6.6z"/><path fill="#b9675d" fill-opacity=".5" d="M150 89h56v24h-56z"/><circle r="1" fill="#383549" fill-opacity=".5" transform="rotate(101.6 23.7 80) scale(19.08508 54.57966)"/><path fill="#784a60" fill-opacity=".5" d="M-12 40l108 9L44 4z"/><path fill="#b0716b" fill-opacity=".5" d="M31.5 92.9l69.5 4-65.9-19.5-45.7-.6z"/><ellipse cx="225" fill="#000300" fill-opacity=".5" rx="6" ry="54"/><ellipse cx="11" cy="134" fill="#1f1b1e" fill-opacity=".5" rx="38" ry="37"/><ellipse cx="76" cy="20" fill="#5c7591" fill-opacity=".5" rx="17" ry="16"/><path fill="#000600" fill-opacity=".5" d="M220 61h4v102h-4z"/><ellipse cx="160" cy="169" fill="#130e07" fill-opacity=".5" rx="56" ry="12"/><path fill="#c08b71" fill-opacity=".5" d="M263.8 100.7l-37.1 7.7-1.4-18.8 6-3.5z"/><ellipse cx="192" cy="76" fill="#484757" fill-opacity=".5" rx="58" ry="11"/><path fill="#c39d86" fill-opacity=".5" d="M100.6 95.2l-41.8-4.4.6-6 41.8 4.4z"/><path fill="#573f4a" fill-opacity=".5" d="M132.3 98.3l-147.1-5.8 5.9 20.6 134 .4z"/><path fill="#3f5365" fill-opacity=".5" d="M138 154h69v5h-69z"/><circle r="1" fill="#3f5b73" fill-opacity=".5" transform="matrix(-28.38761 45.60264 -68.35882 -42.55332 143.3 0)"/><path fill="#384044" fill-opacity=".5" d="M214 8h7v91h-7z"/><path fill="#52626e" fill-opacity=".5" d="M67.7 185l37.4-39.4 21.6 5.4-17.6 9.7z"/><ellipse cx="83" cy="70" fill="#323749" fill-opacity=".5" rx="42" ry="15"/><ellipse cx="215" cy="124" fill="#222e35" fill-opacity=".5" rx="76" ry="12"/><path fill="#596f7f" fill-opacity=".5" d="M186 39h30v21h-30z"/><path fill="#cd5b4e" fill-opacity=".5" d="M93 105h92v2H93z"/><path fill="#000700" fill-opacity=".5" d="M222 50h5v34h-5z"/><path fill="#7c97a1" fill-opacity=".5" d="M243 36h13v23h-13z"/><path fill="#7a7164" fill-opacity=".5" d="M224 113l6-13 41 13z"/><path fill="#333d47" fill-opacity=".5" d="M90 158.5l-54.8 33-7.2-12 54.8-33z"/><circle r="1" fill="#4e3f51" fill-opacity=".5" transform="rotate(-70.9 24.1 .5) scale(29.43904 19.31165)"/><path fill="#182629" fill-opacity=".5" d="M209 138.8l-1-.2 9-63.4 1 .2z"/><ellipse cx="255" cy="161" fill="#58748e" fill-opacity=".5" rx="19" ry="2"/><path fill="#181b20" fill-opacity=".5" d="M-16 131l165-13-106 45z"/><path fill="#ff9f8d" fill-opacity=".5" d="M218 88h1v16h-1z"/><path fill="#1e1c18" fill-opacity=".5" d="M170.6 160.2l7.7-1.1-64.1-6.5L98.4 185z"/><path fill="#121a18" fill-opacity=".5" d="M212 106.3l9-102.6h1l-9 102.6z"/><path fill="#545867" fill-opacity=".5" d="M172 92h38v4h-38z"/><path fill="#76434e" fill-opacity=".5" d="M118 84h39v29h-39z"/><path fill="#3b495c" fill-opacity=".5" d="M35.2 42.9l156.4 21.4-200.9-3.9-6.7-25.3z"/><path fill="#34475e" fill-opacity=".5" d="M194 36l-77-9-28-39z"/><circle r="1" fill="#060f0b" fill-opacity=".5" transform="matrix(7.31395 -102.97308 2.00773 .1426 218.5 155.2)"/><path fill="none" stroke="#53708c" stroke-opacity=".5" stroke-width=".5" d="M203.8 159.2q-69.1-7.3-85-8.4"/><path fill="#56667a" fill-opacity=".5" d="M111 30l-10 19 74 2z"/><path fill="#ec5c53" fill-opacity=".5" d="M154 95l8-7 14 10z"/><ellipse cx="168" cy="147" fill="#0b1419" fill-opacity=".5" rx="39" ry="5"/><circle r="1" fill="#486883" fill-opacity=".5" transform="matrix(-1.11324 -10.4168 30.32907 -3.24124 165 2.5)"/><path fill="#b27c6e" fill-opacity=".5" d="M184 96h27v8h-27z"/><ellipse cx="248" cy="99" fill="#e5b58c" fill-opacity=".5" rx="24" ry="2"/><path fill="#49627b" fill-opacity=".5" d="M126.6 152.1l.2-2 40.6 5.8-.2 2z"/><path fill="#4f5d6c" fill-opacity=".5" d="M230 43l-4 38 25-9z"/><path fill="#a57162" fill-opacity=".5" d="M216 89h4v18h-4z"/><ellipse cx="141" cy="96" fill="#d35656" fill-opacity=".5" rx="10" ry="2"/><path fill="#000e0b" fill-opacity=".5" d="M224 0h8v31h-8z"/><path fill="#0b0a05" fill-opacity=".5" d="M249.4 165l-20.8-2.7 17.8 22.7 24.6-19.5z"/><path fill="#29343a" fill-opacity=".5" d="M225.6 125.2l38.5 32.7L271 126l-60.1-19.4z"/><path fill="#744b5f" fill-opacity=".5" d="M46 18L15 35l68 13z"/><path fill="#80676b" fill-opacity=".5" d="M231 85l3 16 37-41z"/><path fill="#634d5f" fill-opacity=".5" d="M146.2 70.3l4.7 17.7 33.3-2-3.5-10.8z"/><path fill="#ae384c" fill-opacity=".5" d="M112 83l17 1-5 5z"/><path fill="#64404b" fill-opacity=".5" d="M-5.7 74.9l-10.3-2 3.2 23.3L37 76.8z"/><path fill="#2e2d40" fill-opacity=".5" d="M93 72l-42 6 64 9z"/><path fill="#33495d" fill-opacity=".5" d="M257 7l.9 23-27 1-.8-23z"/><ellipse cx="89" cy="156" fill="#546675" fill-opacity=".5" rx="26" ry="2"/><ellipse cx="79" cy="105" fill="#8f4b4e" fill-opacity=".5" rx="47" ry="3"/><path fill="#ae867b" fill-opacity=".5" d="M63 87.6l31.5 2.1-64.8-9.6-20.5.7z"/><circle r="1" fill="#5e768f" fill-opacity=".5" transform="rotate(162.7 36.8 15.3) scale(8.03545 11.59021)"/><path fill="#554454" fill-opacity=".5" d="M145.2 80.7l-33.8 25.8 4.2-14.5 43.5 4.3z"/><path fill="#626878" fill-opacity=".5" d="M216.7 87.4l3.6-40.9 1 .1-3.6 40.9z"/><path fill="#b05d5b" fill-opacity=".5" d="M-2 92l29-1-13-4z"/><path fill="#1e242b" fill-opacity=".5" d="M73 162.2l1.4-.6 14.5-3.7-11.2 10.7z"/><path fill="#6c6566" fill-opacity=".5" d="M87 96l37 2-22-12z"/><ellipse cx="164" cy="99" fill="#5a4754" fill-opacity=".5" rx="17" ry="2"/><path fill="#546e7f" fill-opacity=".5" d="M230 43h26v6h-26z"/><circle r="1" fill="#4a4b42" fill-opacity=".5" transform="matrix(15.10344 -.60662 .04013 .9992 17 144.6)"/><path fill="#485d69" fill-opacity=".5" d="M221.6 164.6l2-2.3 12.8 11.1-2 2.3z"/><path fill="#030e0c" fill-opacity=".5" d="M220 68h3v67h-3z"/><path fill="#4c5668" fill-opacity=".5" d="M185 55h28v33h-28z"/><ellipse cx="71" cy="110" fill="#473f46" fill-opacity=".5" rx="45" ry="3"/><path fill="#293038" fill-opacity=".5" d="M201.3 113.5l18.3-6.3-6.7 45-56.4-39.4z"/><circle r="1" fill="#594651" fill-opacity=".5" transform="rotate(74 -50.6 70.9) scale(5.10475 34.29101)"/><circle r="1" fill="#4a5a77" fill-opacity=".5" transform="rotate(-32 29.3 -102.3) scale(17.23594 19.16344)"/><path fill="#3f4354" fill-opacity=".5" d="M104 63h48v17h-48z"/><circle r="1" fill="#161e24" fill-opacity=".5" transform="rotate(100.7 12 132) scale(3.6408 57.95544)"/><circle r="1" fill="#c46b61" fill-opacity=".5" transform="matrix(-4.41184 -.28083 .29018 -4.55886 229.5 90.2)"/><path fill="#080904" fill-opacity=".5" d="M225.6 139.3l5.4 6-12.6 11.4-5.4-6z"/><path fill="#525f69" fill-opacity=".5" d="M99.2 178.9L53 183.3l58.3-35.4 2.8 4.4z"/><path fill="#242b31" fill-opacity=".5" d="M67 153h67v2H67z"/><path fill="#2e353e" fill-opacity=".5" d="M23.8 166l33.5-10.2 5 16.2-33.6 10.2z"/><ellipse cx="191" cy="157" fill="#49637c" fill-opacity=".5" rx="12" ry="2"/><path fill="#364647" fill-opacity=".5" d="M221 0h1v43h-1z"/><path fill="#95a1a2" fill-opacity=".5" d="M238 52l33 4V44z"/><path fill="#1e252f" fill-opacity=".5" d="M59 113h107v24H59z"/><path fill="#0c1616" fill-opacity=".5" d="M221 44h4v56h-4z"/><path fill="#3a5067" fill-opacity=".5" d="M219 2l-4 39-20-41z"/><circle r="1" fill="#333544" fill-opacity=".5" transform="matrix(.72275 -4.9555 55.94452 8.1594 29 73.1)"/><path fill="#e1775b" fill-opacity=".5" d="M169 102h20v2h-20z"/><ellipse cx="107" cy="101" fill="#4f4953" fill-opacity=".5" rx="39" ry="3"/><path fill="#bc665b" fill-opacity=".5" d="M67 91h24v4H67z"/></g></g></svg>