<svg xmlns="http://www.w3.org/2000/svg" viewBox="0 0 1200 1800"><defs/><filter id="a"><feGaussianBlur stdDeviation="12"/></filter><rect width="100%" height="100%" fill="#474142"/><g filter="url(#a)"><g fill-opacity=".5" transform="translate(3.5 3.5) scale(7.03125)"><circle r="1" fill="#e2e5db" transform="matrix(142.28263 -44.1038 46.27161 149.27618 94 109)"/><circle r="1" fill="#160f11" transform="matrix(-1.46769 -83.84572 41.26708 -.72237 89.6 158.8)"/><ellipse cx="46" cy="22" fill="#ecf1ea" rx="169" ry="18"/><ellipse cx="7" cy="141" fill="#e5e4db" rx="43" ry="81"/><circle r="1" fill="#d3d7db" transform="matrix(-26.26487 -1.02347 3.13449 -80.43905 152.4 143.2)"/><circle r="1" fill="#706347" transform="rotate(89.3 -87 161) scale(24.49446 159.70326)"/><circle r="1" fill="#edf1ea" transform="matrix(40.41826 -7.83408 2.4216 12.49371 79.7 67.3)"/><ellipse cx="83" cy="218" fill="#e4e2d9" rx="69" ry="5"/><path fill="#4c493e" d="M22.1 112.3l-4-2.3 4.2-72.5L44 41.1z"/><path fill="#e9edeb" d="M148.4 91.2l-19 14.7-25.8-33 19-14.8z"/><path fill="#51514e" d="M154 42l-25-4 25 79z"/><path fill="#363233" d="M47 150h82v64H47z"/><ellipse cx="169" cy="31" fill="#d4d8da" rx="16" ry="114"/><ellipse fill="#d8dad2" rx="21" ry="153"/><path fill="#dbdcd5" d="M15 161l22-88 46-30z"/><path fill="#7d7d74" d="M11 28l28 33 103-35z"/><circle r="1" fill="#484343" transform="rotate(21.9 -251.3 253.2) scale(24.73648 39.18701)"/><ellipse cx="45" cy="240" fill="#776e5e" rx="169" ry="19"/><path fill="#e4e7e4" d="M50 27l91-7L46 2z"/><path fill="#413e3a" d="M151 93h4v43h-4z"/><path fill="#cbcbc5" d="M27 94h19v121H27z"/><path fill="#7a776e" d="M128 27h32v8h-32z"/><path fill="#2c2725" d="M121.9 201l-64.4-10.8-9.2-7.5-1.2 27.6z"/><circle r="1" fill="#5d5950" transform="matrix(-1.85976 29.8442 -2.72655 -.1699 21.5 106.5)"/><path fill="#c5c7c6" d="M124.1 142.1l8.1-68.1 15.3 20.1 13 124.6z"/><path fill="#545257" d="M89.8 194.7L72.4 175l35.5-95 19.6 28.9z"/><path fill="#5e5647" d="M71.5 271l6.6-29.6 3.1-44.4 22.2 46.1z"/><ellipse cx="75" cy="36" fill="#c2c4be" rx="102" ry="4"/><path fill="#6f6e6c" d="M151.1 101l-14.5-29-42.3-31 57.1.8z"/><path fill="#d6d9d8" d="M77 23.6l90-16.7-87.5-1.7 20.6-18.9z"/><path fill="#d4d7d1" d="M59 55l35-9 35 42z"/><path fill="#6e6b65" d="M80 41.6l-56.9-1.3L26 99.6l12.5-29.2z"/><path fill="#39555b" d="M44.5 6h-21V-6h21z"/><path fill="#d0d3d4" d="M126.2 5.5l52.7 18.4-70.9 3.2L123.3-16z"/><ellipse cx="134" cy="174" fill="#bdbfc0" rx="7" ry="46"/><path fill="#575041" d="M108.5 249.7l-20.3-1.3-39.5-12.1 77.7 2.3z"/><path fill="#4365a7" d="M96 193l-17-4 7-19z"/><circle r="1" fill="#5d5859" transform="rotate(175.5 53 58.7) scale(16.7771 27.88398)"/><path fill="#b0ada9" d="M99 211h61v13H99z"/><path fill="#c8cac7" d="M152.5 110.6l-24 6.9-7-24 24-7z"/><path fill="#353635" d="M84 191h45v23H84z"/><path fill="#425c6c" d="M126 0h25v6h-25z"/><path fill="#d8dbd3" d="M55.9 1.8L24.1-16l42.3 33.1L-16 35z"/><path fill="#d8dad2" d="M-7.5 27.3L-16 55.7l36 4.5V46.4z"/><path fill="#4c6770" d="M56 0h27v6H56z"/><path fill="#423d3c" d="M60.9 89.5l13.2-6.9-25.5 46.7.4-15.7z"/><path fill="#b3b0a8" d="M74.9 225.3l-44-8.7 36.1-5.4 14.1 2.7z"/><ellipse cx="90" cy="44" fill="#707271" rx="60" ry="4"/><path fill="#cacbc4" d="M57 57l-33 54 84-61z"/><path fill="#928376" d="M59 226h60v6H59z"/><path fill="#4e4643" d="M48 145h80v28H48z"/><circle cx="169" cy="52" r="17" fill="#ccd0d0"/><path fill="#cac9c4" d="M53.7 140l-39.8 54.5-12.5-55.1 47-8.3z"/><ellipse cx="103" cy="3" fill="#426270" rx="13" ry="3"/><path fill="#d3d5d3" d="M122 138l8-12 2 16z"/><path fill="#ffd08f" d="M91 177l-8-1v-3z"/><path fill="#e2e5e0" d="M82 27l14-42-14-1z"/><circle r="1" fill="#87837b" transform="matrix(3.91881 -7.15785 28.45337 15.57776 146.1 248.2)"/><circle r="1" fill="#4b4948" transform="matrix(-5.93562 -8.53437 11.74106 -8.16586 85.3 84.7)"/><path fill="#77746c" d="M30.5 86.5L61 43.7l-36.4-1.9-4.4 35.1z"/><path fill="#dfe1dd" d="M56 84.8l-10.4 30.3-5.6-2L50.4 83z"/><circle r="1" fill="#bdbab5" transform="rotate(-14.3 786.7 17.2) scale(23.13369 27.4716)"/><ellipse cx="154" cy="126" fill="#4d5252" rx="2" ry="12"/><path fill="#504635" d="M26 238h28v4H26z"/><path fill="#9c977d" d="M23.6 253l-.2 5-29-1 .2-5z"/><path fill="#a89f89" d="M71 244l-23-2 24 11z"/><ellipse cx="100" cy="212" fill="#746b61" rx="37" ry="2"/><path fill="#c3c7c7" d="M146.6 20.9l13-48.3 31.8 8.5-13 48.3z"/><ellipse cx="67" cy="29" fill="#878175" rx="55" ry="2"/><path fill="#d3d5d2" d="M22 36h96v2H22z"/><circle r="1" fill="#b5b2a8" transform="matrix(3.46348 -16.7081 3.80298 .78833 36.2 113.8)"/><ellipse cx="87" cy="58" fill="#c5c7c0" rx="24" ry="10"/><path fill="#ced1cb" d="M-21.4 49.8L-5.6-9l27 7.3L5.6 57z"/><path fill="#202020" d="M87 76l-12 6 32 1z"/><path fill="#979382" d="M133 258.5l-19 6.2-5-15.2 19-6.2z"/><path fill="#bab9b5" d="M92 216h69v7H92z"/><circle r="1" fill="#555153" transform="matrix(20.17602 22.6147 -19.10544 17.04518 97.9 110.9)"/><ellipse cx="169" cy="126" fill="#bcbec0" rx="13" ry="83"/><path fill="#9d9a8d" d="M18.6 28.4l52.6-.9-59.4 15.8 2.1-15.4z"/><path fill="#91938d" d="M46 171h2v35h-2z"/><circle r="1" fill="#c6c9c8" transform="matrix(12.12477 20.09946 -3.99753 2.41147 137.9 85)"/><ellipse cx="20" cy="122" fill="#555149" rx="2" ry="17"/><path fill="#b5b6b9" d="M128 190h33v22h-33z"/><path fill="#6a5d5b" d="M185 244l-78-20 56-1z"/><path fill="#2b313c" d="M75.9 188.4l27.3 13.8-10.7-24.4-10.9 49.4z"/><path fill="#c5c3bc" d="M7.3 178l11.2-66 2.1-17.5L-16 72.6z"/><circle cx="51" r="5" fill="#e7eded"/><path fill="#d7d9d5" d="M102.3 62.8L62.7 73.2l-27.1 42.1 24.6-30.9z"/><path fill="#747471" d="M119 40l36 58-4-59z"/><ellipse cx="115" cy="164" fill="#4a494a" rx="13" ry="31"/><path fill="#8f8e83" d="M87 73.8l.6 2L63 84.1l-.6-2z"/><path fill="#c9cbc9" d="M121 5h32v22h-32z"/><path fill="#918c7b" d="M0 59h12v4H0z"/><path fill="#483b36" d="M48 170h21v41H48z"/><path fill="#737e7f" d="M18.9 6.4L51.8-16 47.4-5.3 46.2 6.8z"/><ellipse cx="35" cy="19" fill="#d3d5d0" rx="116" ry="8"/><path fill="#8b867a" d="M85.4 72.7L113 84.4l-.4 1L85 73.5z"/><path fill="#696464" d="M95.1 108.5l11-1 2.8 32-11 1z"/><path fill="#d0d2cd" d="M23.5 123L58 57.8 52.3 61 29.9 89.8z"/><path fill="#d8dcdd" d="M116-16l11 7-7 34z"/></g></g></svg>