<svg xmlns="http://www.w3.org/2000/svg" viewBox="0 0 1200 1800"><defs/><filter id="a"><feGaussianBlur stdDeviation="12"/></filter><rect width="100%" height="100%" fill="#313b4e"/><g filter="url(#a)"><g fill-opacity=".5" transform="translate(3.5 3.5) scale(7.03125)"><ellipse cx="41" cy="139" fill="#e9dbbc" rx="62" ry="169"/><circle r="1" fill="#a0b0c3" transform="rotate(120.5 71.8 70.5) scale(46.0223 168.99999)"/><ellipse cx="150" cy="233" fill="#aeaa94" rx="144" ry="45"/><path d="M130 154.3l-52-15 24-83.6 52 15z"/><path fill="#ebd8bc" d="M8 50l32 58 73-53z"/><path d="M123 166l15 69-41 12z"/><ellipse cx="160" cy="152" fill="#a99b82" rx="11" ry="147"/><ellipse cx="26" cy="177" fill="#5c4d3a" rx="169" ry="13"/><ellipse cx="62" cy="7" fill="#5e7daa" rx="169" ry="44"/><path fill="#e2cdb0" d="M185 92.9l-15.2-41.3-31.3.6 19.7 43.7z"/><path fill="#211c13" d="M82 134l79-19-45-94z"/><path fill="#a6a59b" d="M134 191h36v65h-36z"/><path fill="#40432d" d="M94 262l-60-21-20 30z"/><circle r="1" fill="#a99271" transform="matrix(40.36609 39.98482 -24.26111 24.49245 35 130.2)"/><path fill="#c9beac" d="M10.6 81L-16 102l109-8.8-80.5-42.1z"/><circle r="1" fill="#b99682" transform="rotate(-33.9 137.6 -148.4) scale(17.1697 9.23782)"/><path fill="#b1aea2" d="M87 238l19-67 4 40z"/><path fill="#141819" d="M129 53l27 96-73-22z"/><path fill="#b3ae9d" d="M82.1 236.6l47 17-7.2 19.8-47-17z"/><path fill="#192229" d="M5 54l4 28-25 2z"/><circle r="1" fill="#544a42" transform="matrix(-9.61997 9.72017 -21.95074 -21.72446 5.3 165.3)"/><circle r="1" fill="#484037" transform="matrix(-5.7081 20.17201 -69.43546 -19.64825 166.6 168)"/><path fill="#7e7061" d="M115 196.5l-61.8-14.6 39.9-51.7 2-1.1z"/><path fill="#452817" d="M105 28h18v17h-18z"/><path fill="#9ea6a4" d="M-.3 188.4l82.9 4.3-2.3 43-82.9-4.4z"/><path fill="#c1b8a8" d="M-16 93.7l116.9-45.6-12 50.4-5.2-1z"/><path fill="#161a1d" d="M137.3 240.5l-39.4.7-3.5-7.5 33.7-28.7z"/><path fill="#222526" d="M96.3 70.3l-12.2 47.8-11.4-21 87.8 54.9z"/><ellipse cx="27" cy="12" fill="#798fac" rx="111" ry="26"/><path fill="#c4baa6" d="M159 77l-34-27 35 1z"/><path fill="#8a635b" d="M112 36h12v30h-12z"/><circle r="1" fill="#61615c" transform="matrix(-37.10246 6.87653 -.7721 -4.16592 157.3 238.3)"/><path fill="#9c998e" d="M185 243.5l-20.1-50.9-29.9 49.6-5.7-73.9z"/><path fill="#181a18" d="M121.5 195.4l9.3-137.1 17.9 10.6 2 40z"/><circle r="1" fill="#8f7e65" transform="rotate(169.5 14.7 58.7) scale(50.75755 15.53918)"/><path fill="#536d8a" d="M126 31h44v20h-44z"/><path fill="#916b66" d="M135 146h16v10h-16z"/><path fill="#baab98" d="M150 69h8v27h-8z"/><ellipse cx="77" cy="53" fill="#c9c5b6" rx="33" ry="3"/><path fill="#627790" d="M-16 37.3l40.7-7.2-13.8 29.7-4.4 6.6z"/><path fill="#665c4d" d="M185 202.3l-3-97.9-24.2-8-9.8 37.3z"/><ellipse cx="93" cy="153" fill="#9e9077" rx="6" ry="21"/><path fill="#12181a" d="M98 65.3L92.6 86l21 74.3-15.2-18.5z"/><circle r="1" fill="#747d82" transform="matrix(-51.09587 5.19013 -.40832 -4.01983 27.3 202.8)"/><path fill="#aaa899" d="M123.4 248.1l28.7-4 2.5 17.8-28.7 4z"/><path fill="#787b78" d="M-16 270l93 1-88-45z"/><path fill="#66798e" d="M104.3 52.2l-25-.4.4-20 25 .4z"/><path fill="#161918" d="M121 74h28v73h-28z"/><path fill="#1a1a18" d="M105.1 38.3l18.1-2.9 2.2-3.5-16.3-4.1z"/><ellipse cx="95" cy="185" fill="#5d564e" rx="70" ry="6"/><path fill="#060e12" d="M91.6 131.6l-4.5 7.8-8.7-5 4.5-7.8z"/><path fill="#9ea2a0" d="M72 191h39v21H72z"/><path fill="#b5a791" d="M7.2 102l4.2-51.5 11.8 7.6 27.4.2z"/><path fill="#9c8f7b" d="M86 111.1l-90.2 33.1 75.7 50.3-4.1-17.1z"/><path fill="#bcb2a2" d="M105.3 53.1l-75.5-1.9 31.9 50.2 48.2-45.1z"/><ellipse cx="32" cy="140" fill="#a99e8c" rx="53" ry="6"/><path fill="#3a4653" d="M124.5 177l1.4-32.1-9.4 7.3-7.3 68.5z"/><path fill="#22282b" d="M134.2 118.5L78.5 97.8l9.1 8.9L100 62.9z"/><path fill="#564e4b" d="M69.3 146.5l-21.7.7 89.3 4-26.7-4.8z"/><path fill="#25292e" d="M112 245l11-86 9 57z"/><circle r="1" fill="#b2bec6" transform="matrix(-19.99487 -5.86052 .28127 -.95963 48.7 11.2)"/><path fill="#514f34" d="M33 245h20v7H33z"/><path fill="#a1a29c" d="M132 190h38v24h-38z"/><path fill="#9a978b" d="M110 251l-36-34-26 35z"/><path fill="#5c5247" d="M12.1 146.9L.9 191.4-16 122.2l13.5 25.4z"/><path fill="#adaea7" d="M17.2 226.3L11 238.6l66.7-.3-26.4-7.6z"/><path fill="#1b1c1b" d="M131.8 75L118 58l6.2-5L138 70z"/><path fill="#6981a0" d="M185 15L63-16l73 56z"/><path fill="#8a7758" d="M47 125h17v13H47z"/><path fill="#181816" d="M133 221l2 18-31 3z"/><path fill="#666057" d="M185 125.2l-50.3 52.4-7.2-13.8L185 173z"/><path fill="#b3aca0" d="M181.3 83.2l1.3-17.2-58.5-17.1 30.6 27.7z"/><path fill="#8b8673" d="M36 242l40 12-12-16z"/><path fill="#7e605c" d="M115.5 37l11.2 27.8-10.2 4.2-11.2-27.8z"/><path fill="#5d5a51" d="M153 97l17 1-22 44z"/><path fill="#262d30" d="M119.4 125l-19.1 27 9 21.8 17.4-54.3z"/><circle r="1" fill="#23231f" transform="rotate(-5.7 2455.4 -973.5) scale(6.8125 8.2949)"/><path fill="#080b0a" d="M143 133l-1 12 14 2z"/><path fill="#dad4c7" d="M10.5 91.6l-4.3 5.5-8.7-6.7 4.3-5.5z"/><path fill="#beb5a7" d="M89 95L34 84l60-6z"/><path fill="#151e2b" d="M146 183l1-21-8 21z"/><ellipse cx="27" cy="44" fill="#627893" rx="80" ry="6"/><path fill="#515a30" d="M52.7 262.1l.9-8.2 15.4-2.7 7.1 19.8z"/><path fill="#9b8a72" d="M-8.7 94.2l.2 18.3L79 132.7l9-17.2z"/><path fill="#1c2024" d="M97.9 64.6l45.9 5.6-18.6-19.4 5.6 98.7z"/><path fill="#353c10" d="M-5.2 238l-.4-2 10.8-2 .4 2z"/><circle cx="138" cy="148" r="3" fill="#af888d"/><circle r="1" fill="#a7a9a3" transform="rotate(-96.4 110.5 93.2) scale(5.47136 70.75708)"/><ellipse cx="84" cy="176" fill="#70695e" rx="24" ry="11"/><circle r="1" fill="#7d6c55" transform="matrix(13.0432 -2.36001 .76067 4.20403 6.6 129)"/><circle r="1" fill="#5b7291" transform="rotate(-163.1 86.3 -.7) scale(15.78969 29.94624)"/><path fill="#9b9d96" d="M74 194l19 42 18-39z"/><path fill="#625a53" d="M58 187l-74 1 37-27z"/><path fill="#171c1d" d="M102.1 83.3l-11.4 18.6-5.2 19.5 3 21.5z"/><circle r="1" fill="#919dad" transform="matrix(-36.62065 -2.625 .13759 -1.91942 31.2 28.5)"/><path fill="#4a3d39" d="M126.3 38.7l-3.4-5.8-.8.1-2.5 35z"/><path fill="#000308" d="M98.2 142.9l5.3-.4 5-11.9-6.7 2.4z"/><path fill="#65645c" d="M87 112l3-17-19 6z"/><ellipse cx="40" fill="#6882a3" rx="113" ry="7"/><path fill="#aa9d89" d="M90 141l3-12 2 14z"/></g></g></svg>