<svg xmlns="http://www.w3.org/2000/svg" viewBox="0 0 1800 1200"><defs/><filter id="a"><feGaussianBlur stdDeviation="12"/></filter><rect width="100%" height="100%" fill="#343f4b"/><g filter="url(#a)"><g fill-opacity=".5" transform="translate(3.5 3.5) scale(7.03125)"><circle cx="135" r="155" fill="#fff"/><circle r="1" fill="#faf9f4" transform="matrix(-199.74484 -68.43598 22.85569 -66.70914 104.4 17.4)"/><circle r="1" fill="#70736f" transform="matrix(-.87474 45.55697 -254.953 -4.89535 124 152)"/><circle r="1" fill="#dbd5c5" transform="rotate(72.6 -21.3 93) scale(24.59317 104.70357)"/><path fill="#fff" d="M223 202.8l39.1-92.1 24.9 10.5-39.1 92.1z"/><path fill="#58636e" d="M104.5 243.7L79.4 114.1l102-19.8 25.2 129.6z"/><circle r="1" fill="#6c6b59" transform="matrix(4.57612 -47.2159 20.58321 1.9949 8 97.5)"/><path fill="#222216" d="M262.4 40.3l-150.8 96.3 44.8-26.6L271 39.9z"/><path fill="#303a45" d="M129 164l-66-25 143-1z"/><path fill="#bcb59f" d="M55.2 202l-38.1-78.2 11.7-5.7 38.1 78.1z"/><circle r="1" fill="#ccc2ae" transform="rotate(-96.2 150.9 17.1) scale(7.22848 41.97905)"/><circle r="1" fill="#dfdbd1" transform="rotate(125.6 7.5 58.9) scale(34.06828 30.51189)"/><ellipse cx="17" cy="156" fill="#000c05" rx="7" ry="30"/><ellipse cx="84" cy="20" fill="#e1e4e7" rx="96" ry="28"/><ellipse cx="249" cy="102" fill="#b4b1a5" rx="77" ry="17"/><ellipse cx="171" cy="131" fill="#87919d" rx="148" ry="7"/><path fill="#444b50" d="M75 106h76v11H75z"/><path fill="#4e4b42" d="M25 45h3v75h-3z"/><ellipse cx="5" cy="149" fill="#b8ad95" rx="3" ry="70"/><path fill="#cac6bd" d="M95 71h64v36H95z"/><circle r="1" fill="#615f58" transform="rotate(104.9 59.5 145.1) scale(9.01215 32.16232)"/><circle r="1" fill="#9bacbd" transform="rotate(-172.7 103.7 -6.7) scale(91.99031 7.60821)"/><path fill="#666159" d="M29 119h68l-52 19z"/><path fill="#f4e2b9" d="M268 95.2L252.9 185h1l-19.3-6.4z"/><path fill="#000b16" d="M70 170l-4 15-26-43z"/><circle r="1" fill="#404036" transform="rotate(-121.2 100.9 24.3) scale(1.64782 101.11065)"/><path d="M271 122l-15-20-4 12z"/><path fill="#888880" d="M-15 98l67 36-62-96z"/><path fill="#d7d7d4" d="M228.1 33.8L25.8 101.9l9.4-96.4 1 22.6z"/><path fill="#71787b" d="M15 39h11v10H15z"/><ellipse cy="156" fill="#000600" rx="3" ry="29"/><path fill="#1d3123" d="M11.4 134.2l1.8 50.8-5.7-.2 45.1-1.3z"/><path fill="#ebe9e6" d="M17 45h5v22h-5z"/><path fill="#00212a" d="M12 137l8-5-9-19z"/><ellipse cx="24" cy="79" fill="#534f48" rx="3" ry="23"/><circle r="1" fill="#bcc9d8" transform="matrix(35.92318 -34.81199 16.02768 16.53928 250.5 20)"/><path fill="#615f5a" d="M193.3 3l.1-1 77.3 11-.1 1z"/><path fill="#99adc5" d="M122 134h64v5h-64z"/><path fill="#8c99a5" d="M109.5 138.8l-42.7-22.6 40.1-27.3-47.3 47.7z"/><path fill="#9ab4ce" d="M168.2 109.2l-.4 12-10-.4.4-12z"/><path fill="#b6b2a8" d="M106 166h41v4h-41z"/><path fill="#bbbcb7" d="M239.2 61.6l13.8 59.1 18 11.8-83-39.4z"/><circle r="1" fill="#525045" transform="matrix(.76604 -.64279 25.90404 30.87124 49.4 129.2)"/><path fill="#a5a697" d="M167 160l19-4 7 25z"/><path fill="#817d6c" d="M5 81h6v89H5z"/><circle r="1" fill="#424f5e" transform="rotate(-91.3 172.4 -24.7) scale(10.24481 42.48571)"/><path fill="#c9c7c0" d="M179.2 114.2l59.2-30.7-54.1 9.5-12.7 7.6z"/><path fill="#767368" d="M0 52h16v45H0z"/><path fill="#38352f" d="M148.7 104.1l.6-5 6 .8-.6 5z"/><path fill="#4f4e4c" d="M42.6 121.3l43 1.5L35.3 133l22 10.4z"/><ellipse cx="133" cy="156" fill="#4d5761" rx="33" ry="9"/><path fill="#0d1e32" d="M41.8 143l18.7 11-7.7 21.1 6.8 6.9z"/><ellipse cx="238" cy="124" fill="#6f6a5d" rx="40" ry="7"/><circle r="1" fill="#c8c5be" transform="rotate(-89.8 108.4 -19.1) scale(15.08597 48.04886)"/><path fill="#393b3c" d="M99 113h59v5H99z"/><path fill="#c6d0db" d="M141-1l119 12-116 59z"/><path fill="#9aadc4" d="M87 127h21v11H87z"/><circle r="1" fill="#e2e0de" transform="rotate(131.6 -1.2 7) scale(49.47295 31.91691)"/><ellipse cx="108" cy="111" fill="#9fb2c6" rx="33" ry="1"/><path fill="#b9b5ad" d="M29 109l-2 17 20 3z"/><path fill="#869bb2" d="M163 126h47v11h-47z"/><path fill="#d0cbc3" d="M119.8 46.4L36.3 99.2 18.1 94l35.7 28.8z"/><path fill="#333a3a" d="M80 104.9l14 .2v4l-14-.2z"/><circle r="1" fill="#484a46" transform="matrix(-51.74168 31.33587 -.51803 -.85536 235.6 60.2)"/><path fill="#303740" d="M167 114h34v3h-34z"/><path fill="#b3ad9f" d="M5.5 109.8L3.2 91.4l-3.7 16 6 38.8z"/><path fill="#2d2c1f" d="M66 167h36v3H66z"/><path fill="#3b4247" d="M52 138h59v2H52z"/><path fill="#484740" d="M28 121h50v2H28z"/><path fill="#9ea9b1" d="M17 63h4v42h-4z"/><path fill="#8b8c86" d="M12.7 62.8l-6.4 53.8-.5-56.9 18.1-22.8z"/><path fill="#464040" d="M138 132l-15-3 20-14z"/><ellipse cx="242" cy="2" fill="#c2d1e2" rx="46" ry="3"/><path fill="#89a0ba" d="M75 117h50v2H75z"/><path fill="#797670" d="M171-8l-15 6 33 5z"/><path fill="#1c1d13" d="M70.6 163.8l-.5-.8 81.3-52.8.5.8z"/><path fill="#dbdbd9" d="M1.1 13.4l-4.3-29.1L16 8.8l-1.1 52.6z"/><path fill="#d0cec3" d="M103 167h7v3h-7z"/><path fill="#283e45" d="M24 114l6 2-7-13z"/><path fill="#dddcd9" d="M29 79l4-75 52 21z"/><path fill="#5c6566" d="M67.5 161.3l54.3-9.3-70.4 19.5 33.5-30.3z"/><circle r="1" fill="#8b959e" transform="rotate(179.2 104.8 59.8) scale(69.25899 1)"/><ellipse cx="153" cy="153" fill="#262e33" rx="18" ry="2"/><path fill="#5d5b59" d="M86 120h41v5H86z"/><path fill="#e5e2da" d="M20.7 100.8l.8-.7 13.8 17.1-.8.7z"/><path fill="#b6b7b4" d="M218 112l53-66-23 70z"/><path fill="#717f8d" d="M90.2 103.2l15 .9 20.5 8.4-29.4-2.3z"/><path fill="#c3c1b9" d="M146.9 101l23.3-2.1L242 52.7 87.9 105.1z"/><path fill="#4f4e47" d="M255 123l-7 13-12-4z"/><path fill="#8fa0af" d="M73 120l16 1-21-8z"/><path fill="#6b767d" d="M86.3 95.8l9.8.9L85.8 122l6-20.9z"/><path fill="#7e7a70" d="M227 126l-12-13 52 9z"/><path fill="#beb9aa" d="M3 104h2v59H3z"/><circle r="1" fill="#58544a" transform="matrix(-.22147 -12.99886 1.98471 -.03382 13.2 78.1)"/><path fill="#666259" d="M28 52l-5 15 5-7z"/><path fill="#d1ccc1" d="M39 111l-9-52 51 53z"/><path fill="#333e47" d="M213.6 145l24.1-1.4-5.3 3.4-68.6 10.3z"/><ellipse cx="110" cy="156" fill="#646c76" rx="26" ry="3"/><path fill="#0b3f37" d="M184 156h1v14h-1z"/><path fill="#818279" d="M38 135l-17-2-7-35z"/></g></g></svg>