<svg xmlns="http://www.w3.org/2000/svg" viewBox="0 0 1800 414"><defs/><filter id="a"><feGaussianBlur stdDeviation="12"/></filter><rect width="100%" height="100%" fill="#284856"/><g filter="url(#a)"><g fill-opacity=".5" transform="translate(3.5 3.5) scale(7.03125)"><circle r="1" fill="#d4e8ff" transform="matrix(133.43995 6.34427 -.9509 20.00035 210 0)"/><circle r="1" fill="#d3d0db" transform="matrix(-15.5018 -98.83389 24.45842 -3.83623 8.4 10)"/><ellipse cx="107" cy="36" fill="#082507" rx="103" ry="23"/><ellipse cx="46" fill="#5e8bef" rx="68" ry="17"/><circle r="1" fill="#fff7e2" transform="matrix(16.25465 -2.45092 2.67954 17.7709 27.9 57)"/><circle r="1" fill="#e9f3ff" transform="matrix(3.81408 8.02808 -41.332 19.6365 255 2)"/><path fill="#02302b" d="M39 60l144-49 86 62z"/><path fill="#b2cee9" d="M-16 4l37 33L9-11z"/><path fill="#144baf" d="M101.7 11l1.8-14.8L126.3-1l-1.8 14.8z"/><path fill="#f1efff" d="M192.4 8l-70.1-24 65.6 3.4 50.3-3.4z"/><ellipse cx="114" cy="25" fill="#2e2e0e" rx="93" ry="11"/><path fill="#5a83d0" d="M241-3l-71 13 40 13z"/><circle r="1" fill="#273130" transform="matrix(-7.5248 -10.3951 7.85163 -5.68363 0 33)"/><path fill="#fff8dd" d="M33.7 63.3L.1 50.3l2.2-5.6 33.6 13z"/><ellipse cx="249" cy="35" fill="#4b6971" rx="55" ry="7"/><path fill="#ebeeff" d="M142.7 9.9l-11.5-14-6.9-4 8.9 21.1z"/><path fill="#e6eefb" d="M273.5 0l1 18-38 2-1-18z"/><circle r="1" fill="#5877aa" transform="matrix(-5.21667 8.61375 -18.3705 -11.12557 33 6.2)"/><path fill="#003339" d="M266.7 57.7L122 31.9l-86.4-.3 12.6 32.1z"/><path fill="#234ca7" d="M176.5 18.9L159 5.2 42.7-16h116z"/><path fill="#aabed0" d="M209.7 9.2l-9.4 14.6 17.4-1.9 25.1-9.5z"/><path fill="#feefe1" d="M33 49l1-15-10 8z"/><path fill="#0f150e" d="M91 16h99v6H91z"/><path fill="#f1f4ff" d="M149 6h13v6h-13z"/><circle r="1" fill="#3863ad" transform="matrix(2.40496 4.52371 -33.7237 17.92865 220.5 0)"/><path fill="#5e6467" d="M4.1 24.9l19.6 25.7-25.4-5.8 43.9-7.6z"/><ellipse cx="119" cy="29" fill="#444e1b" rx="55" ry="4"/><path fill="#224b9d" d="M127.2-16l45.9 2.2-31.6 28.4 6.8.4z"/><path fill="#3f4139" d="M234.3 34.2l19.4-12.9-23.7-1.5-18.8 9.3z"/><path fill="#7296c4" d="M11 4l40 13-45 2z"/><path fill="#040500" d="M102.1 10.4l8.9 4.1-19.3 3.3 2.5-6z"/><path fill="#7292d0" d="M237.3 2.5l14.5 4.2 2.3-22.7-67 12.9z"/><path fill="#3260ad" d="M15.6-16l101.7 30.9L136.4-16 80.2 16.4z"/><circle cx="230" cy="10" r="4" fill="#5d718e"/><path fill="#12191c" d="M15 39l14-20 5 8z"/><ellipse cx="34" cy="32" fill="#bbbdb6" rx="1" ry="13"/><path fill="#757e88" d="M256.5 43.6L242.4 16l7.1-3.6L263.6 40z"/><path fill="#a5c2df" d="M10.5 32.4L3.3-5.1-14 22.6l38.8-3.1z"/><path fill="#15444f" d="M184.2 46.6l.7-14 53 2.8-.8 14z"/><ellipse cx="237" cy="26" fill="#2d3427" rx="48" ry="4"/><ellipse cx="136" cy="18" fill="#121b17" rx="25" ry="5"/><path fill="#fffae5" d="M18 31.7l-5.8 1.6-.2-1 5.8-1.6z"/><path fill="#95885d" d="M115 31h41v1h-41z"/><path fill="#dcd7c6" d="M0 46h13v8H0z"/><path fill="#7793c1" d="M131 1.8l6.9 11.6-33.2-1.2 11.3-1.8z"/><path fill="#dbe3f6" d="M133.5 3.1l9.5 8.5-14.9-17-3 11.8z"/><path fill="#e6f1f8" d="M245.9 14.1L271 9.2l-32.4-5.4-10.3.5z"/><path fill="#0e423b" d="M40 32h158v8H40z"/><path fill="#bdc2d1" d="M177.4 11.5l-2.5-12.7 11.7-2.3 2.5 12.7z"/><path fill="#3d62a5" d="M22.4 5.3l12-21.3 79.2 24-86.4 1.2z"/><path fill="#6d6d72" d="M5.2 32l1.9-6.5 9.4 21.9 31.7 11.7z"/><path fill="#afc7da" d="M196 19l13-4 15 7z"/><ellipse cy="26" fill="#002323" rx="9" ry="2"/><circle r="1" fill="#e4e2e8" transform="rotate(2.8 -95.8 51.3) scale(5.7563 3.13818)"/><path fill="#9fcad2" d="M22 29L2 19l11 10z"/><path fill="#393c41" d="M-5 33l22 9 15-6z"/><path fill="#547ab4" d="M235.2 14.3l-73.4.7 4.6-13.7 7.7 8.8z"/><path fill="#746a50" d="M0 55h14v3H0z"/><path fill="#477ac1" d="M44 9h43v7H44z"/><path fill="#547699" d="M184.7 1.5l23.8 21.4 62.5 1-75.8-2z"/><path fill="#232b15" d="M150 29l64 2-33-18z"/><path fill="#00262b" d="M46 45h76v13H46z"/><path fill="#b7b5a8" d="M6.7 46l-.8.7-12.6-16.8.8-.6z"/><path fill="#303b12" d="M72 21h100v10H72z"/><circle r="1" fill="#ced9e1" transform="matrix(-.13305 .9911 -32.18568 -4.32085 255 20)"/><path fill="#e4eaf6" d="M192.4 3.1L128-10.3l73.5-5.7 3.4 19.2z"/><path fill="#7d9ec8" d="M-1 7l37 9-21 10z"/><path fill="#b9b8b9" d="M126.3-11.4L53.2-16l48.6 20 9.6-9.4z"/><path fill="#f8f1df" d="M20 52h16v6H20z"/><path fill="#0d1518" d="M36 19h16v13H36z"/><path fill="#4a6771" d="M204 30h48v5h-48z"/><path fill="#47555f" d="M226.3 20.6l7.1-.9 11 .4L271 32.6z"/><path fill="#0a3843" d="M81.1 32.4l-46.2 2.2 14.9 33.1-3.2-9.3z"/><path fill="#49361a" d="M43 73h-7l2-21z"/><path fill="#394239" d="M25.4 32.2l-.2 1-14.6-3.4.2-1z"/><path fill="#6f839e" d="M32.2-16l1 44.5 1.4 8.7.5-19.7z"/><path fill="#ccd7ef" d="M141.9 12.6l-10-11.2 2.2-2 10 11.2z"/><path fill="#888c8b" d="M29.3 40.4L1.4 47.8-16 53.3 30 37z"/><path fill="#eee7d6" d="M17.2 34.3l-.6.7-3.8-3.3.6-.7z"/><path fill="#c8c7bc" d="M17.2 57.3l9.7-2.3-6.6-6.7-36.3 4.9z"/><path fill="#0f1914" d="M28 20h5v8h-5z"/><path fill="#b6b1a7" d="M48.7 79.7l-16.4-45 1-.4 16.4 45z"/><path fill="#101a1c" d="M130.5 14.8L87 12.5l62.7 8.4-2.1-7.4z"/><path fill="#ffffec" d="M32.8 42.1l1.8 6.7-7.8-6 6.2-1.5z"/><path fill="#e1edf3" d="M245.2 7.1L224 22.7l.6-7.8 13.3 2.8z"/><path fill="#3e66a2" d="M133.4-16L95 7.2l44.2 8.4-16.4-6.3z"/><path fill="#d0dbe9" d="M211 9h5v5h-5z"/><path fill="#4d73ad" d="M165.6 17.2l51.2-7.8-44.8 2L155.4-16z"/><path fill="#eef4ff" d="M154 5h6v4h-6z"/><path fill="#013131" d="M91.8 73l-58-29.3 18.1-1.6 56.6-8.8z"/><path fill="#1f2a30" d="M3 36h2v9H3z"/><path fill="#6186bf" d="M210.8 20.8l12-7.8 7-8.5 3-20.5z"/><circle cx="30" cy="36" r="2" fill="#01120b"/><circle cx="208" cy="18" r="3" fill="#e5ecf0"/><path fill="#142512" d="M107 10L89 41V13z"/><path fill="#172222" d="M56 15l-15 7 24-3z"/><path fill="#000b0b" d="M177 24h9v8h-9z"/><path fill="#4c75b4" d="M43.3 20.7l19.9-7.2L51.1-5 36.3 13.3z"/><path fill="#e5ecf1" d="M251.9 10.5L271 67.8 256.4-16 254.5.2z"/><path fill="#052f30" d="M228.3 49.2l23.4 1.4L211.1 73l-99.2-16.1z"/></g></g></svg>