<svg xmlns="http://www.w3.org/2000/svg" viewBox="0 0 1800 1200"><defs/><filter id="a"><feGaussianBlur stdDeviation="12"/></filter><rect width="100%" height="100%" fill="#2b3852"/><g filter="url(#a)"><g fill-opacity=".5" transform="translate(3.5 3.5) scale(7.03125)"><circle r="1" fill="#d2e3ee" transform="matrix(-1.43842 66.26554 -215.83534 -4.68513 120.6 47)"/><ellipse cx="176" cy="138" fill="#8d623a" rx="43" ry="115"/><path fill="#a8b5bd" d="M109 149l83 21L59-16z"/><path fill="#2f211c" d="M168 8l-12 86 88 36z"/><ellipse cx="72" cy="121" fill="#4b1e00" rx="23" ry="49"/><circle cx="42" cy="22" r="61" fill="#75a8e3"/><ellipse cx="255" cy="111" fill="#f6d5a4" rx="7" ry="82"/><circle r="1" fill="#707679" transform="rotate(47.9 -131.9 89.2) scale(27.43624 38.52377)"/><circle r="1" fill="#91b5d7" transform="rotate(85.8 36.9 94.3) scale(54.90573 28.87348)"/><circle r="1" fill="#fffad6" transform="matrix(-19.84085 -32.63247 4.48327 -2.72587 239.3 22.6)"/><path fill="#323131" d="M140.8 184l-11-79-71 5.4L19.7 185z"/><path fill="#efc28d" d="M125 88l33 77 20-12z"/><circle r="1" fill="#82a7d5" transform="rotate(20.6 -11.5 617.8) scale(35.53271 22.8195)"/><ellipse cx="36" cy="69" fill="#acc2cc" rx="25" ry="30"/><path fill="#ef9869" d="M62 83h12v35H62z"/><path fill="#8f6c5c" d="M165 17l42 43-74-9z"/><path fill="#b7bbb1" d="M89 63h71v41H89z"/><circle r="1" fill="#5884bf" transform="matrix(113.26148 -7.1258 1.14793 18.24585 75.7 11.5)"/><circle r="1" fill="#887862" transform="rotate(-47 248.6 -230.1) scale(11.84235 47.5412)"/><path fill="#301f16" d="M154 119h92v12h-92z"/><circle r="1" fill="#1c1815" transform="matrix(23.2484 -12.78096 16.47246 29.9632 71 148.1)"/><path fill="#463936" d="M150 74l52-37 5 77z"/><path fill="#8d8076" d="M41.3 173.5l-16 .9-2.6-52 16-.8z"/><path fill="#91b3cc" d="M223 76.5l38.4-19.7L233 36.6l-42.6 46.7z"/><path fill="#32200d" d="M241 134l-23 51-2-107z"/><path fill="#e99b5c" d="M179.7 105l31 11.4-2.4 6.5-31-11.3z"/><path fill="#6b96ca" d="M242.8 33.2L211.5-16h-28.9l-1.5 63.6z"/><path fill="#636c72" d="M271 113.9l-26.3-19.1 9.1 90.2-26.7-29.9z"/><circle r="1" fill="#4a6789" transform="rotate(-41.4 243 -95) scale(11.87496 46.436)"/><circle r="1" fill="#935f3a" transform="matrix(-.34785 18.11618 -9.74747 -.18716 109.4 162.5)"/><path fill="#bd7e4b" d="M135 105h14v47h-14z"/><path fill="#b8b4b0" d="M165.8 33.2l8 10.2-19.6 15.4-8-10.2z"/><path fill="#5c585d" d="M0 100h62v22H0z"/><path fill="#615648" d="M223 92l25-26-51 22z"/><path fill="#914a30" d="M201 91l5-35-14-31z"/><path fill="#d99e61" d="M167 112l-15-59-7 48z"/><path fill="#44312b" d="M77 166.2l14.4-77-10.6-15-7-.2z"/><circle r="1" fill="#8eb1d4" transform="matrix(1.30233 -19.85977 39.77324 2.60818 109 61)"/><path fill="#726c64" d="M152 162h57v8h-57z"/><path fill="#2a2829" d="M230.5 130.5l3.9-26.2-62.8.3-19.7-28.5z"/><path fill="#a5afac" d="M246.6 113.5l-21.9-11.2 7.5-23L249 91.5z"/><ellipse cx="168" cy="27" fill="#694228" rx="12" ry="14"/><path fill="#ebd3ad" d="M179 161l-19-34-1 34z"/><path fill="#325780" d="M21.6 109.2l-37.6-2v54.5l42.8-4.3z"/><path fill="#38230d" d="M26.8 100l-.7.6L-3 66l.8-.7z"/><path fill="#a36940" d="M77.6 83.5l-52.5 58.3L73.8 106l-14.2 9.5z"/><path fill="#3c3030" d="M191 112l-39 4 70 57z"/><path fill="#feeccc" d="M271 111.8V75.4l-19.8-18.7-.9 35.3z"/><path fill="#bd7e53" d="M155 35l18-2v29z"/><path fill="#b8c9c5" d="M-16 72l7.5-10.1 28.2 33.4-4.3 4.7z"/><path fill="#4e83c3" d="M251.3 23.5l13.3 37.9-1.5-71.6-39.8-5.8z"/><path fill="#ffb771" d="M183.8-30l11.3 64h-1L183-30z"/><path fill="#769bc9" d="M126 51l58-59-200 62z"/><path fill="#fadcb3" d="M242.4 14.3L214.3-16l36.3 62.9 1.1-14.8z"/><ellipse cx="122" cy="163" fill="#2d190b" rx="6" ry="17"/><path fill="#0c0d0e" d="M8.6 185l86.7-.5 9.3-47.1-9.2 14.3z"/><path fill="#64a0db" d="M152 56l10-12-14-17z"/><path fill="#434240" d="M210.1 106l-43.7-16.8-13.3-23.1 29.1-17.5z"/><path fill="#cb8a55" d="M160.8 102.9l56.7 14.9-39-4.3-14.3-.5z"/><path fill="#feedc8" d="M194 163h4v7h-4z"/><path fill="#555051" d="M144 73l1.6 3.6L132 83l-1.6-3.6z"/><path fill="#bcad89" d="M197 69h4v21h-4z"/><ellipse cx="58" cy="58" fill="#91adca" rx="85" ry="15"/><path fill="#351b0c" d="M61 83l18-10-13 1z"/><path fill="#6a4631" d="M233 106h14v31h-14z"/><path fill="#54402f" d="M147.9 104.1l26.3 33.1-19.7-11 3.7-23z"/><path fill="#3f6187" d="M132.8 135.3l-27 .4-.6-29 27-.4z"/><path fill="#8aabc8" d="M246.1 66.1l19.2-16.7-63.9-10.2 5 39.4z"/><path fill="#4c3413" d="M151.4 43.5l-7.4 6.7-3.4-3.7 7.4-6.7z"/><path fill="#ff5916" d="M190 47l8 7-3-10z"/><path fill="#afb2aa" d="M142.4 106.9l14.2 37.2-14.3-65.8-51.4 25.9z"/><ellipse cx="145" cy="138" fill="#995931" rx="4" ry="14"/><path fill="#2a2424" d="M212.3 126.1l21.5-52.5-27.2 39.5 11.7 2.2z"/><path fill="#312827" d="M157.3 132.9l25.1-19.6 43.6 16-75.7-11.6z"/><circle r="1" fill="#46373d" transform="matrix(-2.87674 .1149 -.95654 -23.95049 203 71.9)"/><path fill="#1f2835" d="M176 25h6v26h-6z"/><path fill="#676256" d="M240.3 72.1l8.4 39.1-14.5-41.7 24-3.6z"/><circle r="1" fill="#81a3c7" transform="matrix(-6.20814 -.44334 .98493 -13.79211 187.6 36.3)"/><path fill="#354e6b" d="M151.6 154.6l2.3 30.4-12.8-19.8-1.9-23.2z"/><path fill="#f3b98f" d="M63.2 101l-2.9-1 6.5-21 2.9 1z"/><path fill="#4a4645" d="M162 163h29v7h-29z"/><path fill="#4d3223" d="M56.3 109.8l-3.1-16.2 16.4 26.1 51.2 65.3z"/><path fill="#fff091" d="M135 42.2l8.2-4 1.7 3.6-8 4z"/><path fill="#6f5544" d="M75 109h5v37h-5z"/><path fill="#d49966" d="M172 23l-8 6-9-7z"/><ellipse cx="66" cy="1" fill="#648aba" rx="122" ry="19"/><path fill="#726555" d="M3.6 90.2L37.5 133 58 165.3l-71.8-93z"/><path fill="#f6ebd5" d="M155.4 167.7l-9.7-61.2 1-.2 9.6 61.2z"/><circle r="1" fill="#cdb7a9" transform="matrix(-.91652 -8.7651 .99458 -.104 24.6 132)"/><path fill="#56382f" d="M67 90.9l23.7 3-16.5-22.2-5.4 36.5z"/><path fill="#a2b5bb" d="M90 82h42v25H90z"/><path fill="#a8b7bb" d="M29.4 98.2L2.6 70.1 63 72.5l-8.4 23.2z"/><circle r="1" fill="#615a57" transform="rotate(145.4 118.2 41) scale(1 123.62328)"/><path fill="#495768" d="M34.7 128.2l17.9-28.6-44.7-1.8 17.9 22.7z"/><path fill="#8e7c64" d="M198.4 165.1l3.3-17.2-25.2 19.9-6-24z"/><path fill="#df9d6f" d="M233 109h12v4h-12z"/><path fill="#546476" d="M132 161h30v8h-30z"/><path fill="#342c27" d="M271 178.3l-73.8-19 52.9-37.1-22.3 44.1z"/><path fill="#6993c6" d="M166.8 10l23.5 24.6-2-50.6h6.8z"/><path fill="#201b1d" d="M204.6 106.3l-16.9-28.6 31.7 39.2-32.2-11.9z"/></g></g></svg>