<svg xmlns="http://www.w3.org/2000/svg" viewBox="0 0 1800 1200"><defs/><filter id="a"><feGaussianBlur stdDeviation="12"/></filter><rect width="100%" height="100%" fill="#202d3a"/><g filter="url(#a)"><g fill-opacity=".5" transform="translate(3.5 3.5) scale(7.03125)"><circle cx="127" cy="5" r="165" fill="#bad5f9"/><ellipse cx="159" cy="141" fill="#243e59" rx="174" ry="44"/><circle r="1" fill="#b5c0ce" transform="matrix(-69.40614 -43.01872 20.50272 -33.07897 170.8 46.4)"/><circle r="1" fill="#b7cbdb" transform="rotate(-1 4811.6 -2488) scale(119.37512 25.2189)"/><ellipse cx="215" cy="141" fill="#3e546d" rx="255" ry="44"/><path fill="#dfe0e3" d="M93-16l2 30 97-12z"/><circle r="1" fill="#5c91d7" transform="rotate(-130.9 135.2 -41.3) scale(245.04967 34.87334)"/><circle r="1" fill="#425778" transform="rotate(10.7 -176.7 284.4) scale(55.98285 16.12049)"/><circle r="1" fill="#cdcbc5" transform="matrix(75.48047 -10.74246 1.90843 13.40935 19.5 97)"/><ellipse cx="164" cy="105" fill="#433a2a" rx="76" ry="9"/><path fill="#ebe9e7" d="M211 33l-42-5 45 37z"/><ellipse cx="152" cy="62" fill="#586a85" rx="43" ry="9"/><circle cx="231" cy="169" r="57" fill="#2c5986"/><ellipse cx="7" cy="72" fill="#5a87b9" rx="78" ry="13"/><circle r="1" fill="#9fb3c6" transform="matrix(4.4907 -23.76635 21.469 4.05661 253.8 74.3)"/><circle r="1" fill="#8fa6c8" transform="matrix(-1.65534 8.13626 -43.61204 -8.87297 73.7 10.6)"/><ellipse cx="20" cy="169" fill="#3c526c" rx="77" ry="57"/><ellipse cx="136" cy="155" fill="#5d6f85" rx="46" ry="17"/><path fill="#5d718f" d="M243 79l-3.9 10.2L171 63.1l3.9-10.3z"/><path fill="#9eb5c2" d="M148 94l8-32 66 37z"/><ellipse cx="108" cy="76" fill="#6792be" rx="31" ry="12"/><path fill="#d7d4d1" d="M68.2 65.4l56.3-2.7-61.9-5.8-55.3-6.3z"/><circle r="1" fill="#4070b0" transform="matrix(33.37534 12.53037 -7.32991 19.52363 224.2 0)"/><ellipse cx="78" cy="110" fill="#413a33" rx="37" ry="4"/><path fill="#8e9bac" d="M30 108l-2-18 58 13z"/><path fill="#566a8a" d="M103 45h28v11h-28z"/><ellipse cx="41" cy="88" fill="#dedbd1" rx="58" ry="4"/><ellipse cx="246" cy="105" fill="#4f4b44" rx="45" ry="8"/><path fill="#b2bac4" d="M114.2 33.4l73.9-29.2L143.3-16l-6.5 68.3z"/><circle r="1" fill="#1f486f" transform="matrix(59.38586 3.34583 -.50578 8.97723 228.7 121.1)"/><path fill="#6386b3" d="M-17.4 71l27-31 21.8 19-27 31z"/><ellipse cx="155" cy="86" fill="#82a2be" rx="49" ry="10"/><path fill="#a9b5bb" d="M202 85h54v12h-54z"/><path fill="#b9bab5" d="M101.4 96.6l19.4-8 4.9 14.9 8.5-3.5z"/><path fill="#93a0b1" d="M63 93h43v11H63z"/><circle r="1" fill="#6f83a0" transform="rotate(-153.7 89.4 3.6) scale(26.61489 6.03887)"/><path fill="#1b354e" d="M40.7 137.5l-29.9 6.6 66.5-5.2-33.4-7.5z"/><ellipse cx="188" cy="16" fill="#6f8ab2" rx="20" ry="12"/><path fill="#e4e1d7" d="M65 59l31-2-5 11z"/><circle r="1" fill="#577098" transform="rotate(-72.3 10 1) scale(12.91326 51.03472)"/><path fill="#202721" d="M187 107.6l12.2-5 18.5 1.1-61.5-8.3z"/><path fill="#f4f2ee" d="M90.8-7l7-5.6L113.3 7l-7 5.5z"/><path fill="#f1e3d1" d="M150 71h17v7h-17z"/><path fill="#697d98" d="M196.9 48.4l-77 20.3 32-1.5 55.5-13.7z"/><path fill="#647b9e" d="M76 20l33 40 8-41z"/><circle r="1" fill="#425a75" transform="matrix(-14.53054 23.65865 -30.11687 -18.49701 184 140.2)"/><path fill="#00081b" d="M113 136h22v2h-22z"/><path fill="#7286a4" d="M239 40.4l10.4 12.4-31.9-8.1 6.9 42z"/><path fill="#222423" d="M143 104l-13-12 3 16z"/><ellipse cx="69" cy="165" fill="#526780" rx="160" ry="3"/><path fill="#69778b" d="M154 77.7l68.4-5.6-2 4.4-33.4 1.4z"/><ellipse cx="8" cy="107" fill="#929eae" rx="34" ry="6"/><circle r="1" fill="#4b5b73" transform="rotate(-173.5 11 18.2) scale(31.86392 7.45945)"/><path fill="#cad1d8" d="M217.8 46.1l-17.7 17.5-5.9-2.5 15.7-32.3z"/><path fill="#5f738d" d="M206.8 152.9l23.2-10-131.2 12.4 81.3-.6z"/><path fill="#91a1b3" d="M161 100l-6-3 2 8z"/><circle r="1" fill="#142f44" transform="matrix(-19.57221 -.13664 .01114 -1.59596 79.6 160.7)"/><path fill="#a0abbc" d="M95 13l63 18 7-31z"/><circle r="1" fill="#a9b7cb" transform="matrix(10.95711 11.98067 -4.33431 3.96401 49.5 0)"/><path fill="#dad4c6" d="M-16 97.1l34.7-13.5 2.9 17.7-37.6 1.2z"/><path fill="#324a62" d="M99.4 151l9.3-5.9 15.1 16.4-6.3 7.6z"/><path fill="#667891" d="M59 153h45v5H59z"/><path fill="#11334d" d="M191 153.5l-16.2 8.9 27.4.6 39.1 20.7z"/><path fill="#f1ecdc" d="M55 81l6 9 14-8z"/><path fill="#808ea2" d="M193.1 104.6l17.9 1.8-.1 1-17.9-1.8z"/><path fill="#577cab" d="M231 167h25v3h-25z"/><path fill="#51667d" d="M107 113h55v21h-55z"/><path fill="#252d37" d="M68 111h63v3H68z"/><path fill="#305882" d="M209.5 128.5l46.8 4-1.8 21-46.8-4z"/><path fill="#7198c8" d="M244.7 50.7l4.8 17.5L271 29.5l-66.7 4z"/><ellipse cx="168" cy="139" fill="#334c66" rx="28" ry="7"/><path fill="#c1bfc1" d="M230 58h12v9h-12z"/><path fill="#dfdedd" d="M169 4l-35-20 86 6z"/><path fill="#7796b9" d="M66.1 58.9l-51 7.1L-16 95l77.8-28z"/><path fill="#8e9cb3" d="M12.7 57.4l44.8-2.2-6.3-3.6-36.9-3.9z"/><path fill="#a7abb3" d="M126 101h-9l-8-9z"/><path fill="#384c66" d="M-7.6 112.2l55.8 4.8-4.6 52.8-55.8-4.8z"/><path fill="#67788f" d="M131 143.4l16.7 7-18.8 44.2-16.6-7z"/><path fill="#1e2421" d="M179 110l-18-8-7 5z"/><path fill="#04263c" d="M127.3 139.8l-36.7-4.6.1-1 36.7 4.6z"/><path fill="#7d7978" d="M267.2 104.1l.1 1-48.5 6.8-.1-1z"/><path fill="#243f58" d="M95.2 151.7l20.1 1.7 13.6-4.4-21.9-1.3z"/><circle r="1" fill="#2e3329" transform="matrix(-.34264 -1.53286 9.30427 -2.07975 223.6 100)"/><path fill="#132d41" d="M26.9 155.9l27.1 2.2-21 2.8-18.9-6.8z"/><path fill="#d8d0c2" d="M182 78h24v3h-24z"/><path fill="#c7ccd1" d="M138 37l-3 8.5-19-6.5 3-8.5z"/><path fill="#aaaeb2" d="M120 56l-13 5 25 3z"/><path fill="#b7bac0" d="M252 103l19 8-10-14z"/><path fill="#bebebd" d="M153.7 78.7l46.8-7.8-38.7-.6-22.2-1.1z"/><path fill="#b6bdc5" d="M179.3 42.6l-11.2-13.9 33.5 20.5-16.9 2.4z"/><path fill="#1a3e5f" d="M158 121h75v4h-75z"/><path fill="#768eb1" d="M10.9.3l96.3 24.6L90.3-9.9 80 26.9z"/><path fill="#4f6585" d="M45 26h50v24H45z"/><path fill="#103551" d="M209.1 156l18 1.8-1.8-8.4-15.6 2.5z"/><path fill="#768eb0" d="M215 39l-4 20 60-10z"/><path fill="#7e9ec0" d="M45 71l52-6-52 21z"/><ellipse cx="229" cy="103" fill="#6e7889" rx="6" ry="3"/><circle r="1" fill="#a4b2ca" transform="rotate(174.1 98.6 20.3) scale(11.33606 4.69416)"/><path fill="#7186a4" d="M244.2 43.7l-29.9 40.5 35.3-.8-32.4-32.7z"/><path fill="#597fb1" d="M.4 66.7l24.7-6.8L1 44.2l-15.9-5.9z"/></g></g></svg>