<svg xmlns="http://www.w3.org/2000/svg" viewBox="0 0 1800 1200"><defs/><filter id="a"><feGaussianBlur stdDeviation="12"/></filter><rect width="100%" height="100%" fill="#41414f"/><g filter="url(#a)"><g fill-opacity=".5" transform="translate(3.5 3.5) scale(7.03125)"><circle r="1" fill="#ecf6f3" transform="rotate(-97.6 65.7 -15.8) scale(73.06637 240.4763)"/><circle r="1" fill="#b6c3be" transform="matrix(-1.10507 -10.07272 30.00871 -3.29222 120 120.1)"/><ellipse cx="200" cy="118" fill="#353123" rx="43" ry="27"/><ellipse cx="115" cy="12" fill="#babec1" rx="80" ry="56"/><circle cx="241" cy="58" r="40" fill="#7a8695"/><ellipse cx="61" cy="125" fill="#6d7c83" rx="78" ry="14"/><ellipse cx="160" cy="163" fill="#566065" rx="131" ry="24"/><ellipse cx="252" cy="89" fill="#bdbcb2" rx="36" ry="8"/><circle r="1" fill="#747988" transform="matrix(-9.64859 21.2702 -49.03753 -22.2444 0 45.6)"/><path fill="#393f4c" d="M5 143l62-29 29 17z"/><ellipse cx="112" cy="101" fill="#979a9a" rx="44" ry="28"/><ellipse cx="202" cy="113" fill="#3e3b39" rx="34" ry="23"/><circle r="1" fill="#7b8493" transform="matrix(-9.40344 20.84708 -44.71868 -20.17113 214.7 54.4)"/><circle r="1" fill="#aaafb7" transform="matrix(9.35566 -24.45217 26.2186 10.0315 213 5.2)"/><circle r="1" fill="#6e7b87" transform="rotate(-99.2 47.8 52.5) scale(7.77575 32.21714)"/><circle r="1" fill="#b7babe" transform="rotate(16.8 8.9 211.1) scale(48.368 21.15619)"/><path fill="#393223" d="M239 100h17v40h-17z"/><circle r="1" fill="#524940" transform="rotate(-119.8 116.6 13.3) scale(13.26839 21.34655)"/><circle r="1" fill="#a4a9ad" transform="matrix(27.65552 -30.93036 29.61102 26.47587 147 38)"/><path fill="#94999a" d="M2.8 112.4l171.1-40.1 1.3 30.1-61.4 18.1z"/><ellipse cx="204" cy="138" fill="#0c1218" rx="48" ry="2"/><path fill="#64544b" d="M207 135l23-12 41 10z"/><circle r="1" fill="#8e9197" transform="rotate(-155.8 37.6 29.3) scale(31.30654 23.28668)"/><circle r="1" fill="#b8b4a9" transform="matrix(.14696 -4.75662 24.39555 .7537 25.7 87)"/><path fill="#798391" d="M223.7 57.9l-48.4 14.6L271 85.4l-1.5-97.2z"/><circle r="1" fill="#989c9d" transform="matrix(-23.44257 -2.78046 .65523 -5.52437 108.6 124.6)"/><path fill="#717e8e" d="M18 137l-34-8v10z"/><path fill="#a9abb0" d="M99.5 135v1l-21 1v-1z"/><path fill="#4a4644" d="M149.7 119.7l-2.4-4.8 53.9-25.4 49.6 19.5z"/><circle r="1" fill="#404548" transform="rotate(-45.9 192.2 28.2) scale(14.24377 20.2627)"/><path fill="#2c2e31" d="M227.1 140.5l-32.4-44.3 8 1.7-45.5 41.1z"/><path fill="#96a2a4" d="M18.9 128.5l-13.3-7.3 43.5.7 51.3-18.9z"/><path fill="#60646c" d="M106.4 156.7l80.9-10.2-40.4 12-48.4 3.6z"/><circle r="1" fill="#758994" transform="rotate(-5.2 1313 -1273.4) scale(35.61699 2.73804)"/><path fill="#515862" d="M84.6 120.2l-20.7 56.2L46 128.1l10.2-10.9z"/><ellipse cx="189" cy="163" fill="#5e646d" rx="50" ry="3"/><path fill="#12151a" d="M72 168h23v2H72z"/><path fill="#171e24" d="M138 159h27v3h-27z"/><path fill="#303337" d="M249 98h7v70h-7z"/><ellipse cx="225" cy="130" fill="#564b45" rx="36" ry="4"/><circle r="1" fill="#858b94" transform="matrix(43.6364 .47664 -.06316 5.78227 87.9 84.2)"/><ellipse cx="240" cy="87" fill="#989b99" rx="44" ry="7"/><ellipse cx="128" cy="98" fill="#a1a19e" rx="46" ry="10"/><path fill="#1e222b" d="M32.5 158.8v-4l19 .4v4z"/><circle r="1" fill="#9ca0a8" transform="matrix(22.4734 23.544 -9.83088 9.38385 31.5 25)"/><circle r="1" fill="#4b5156" transform="matrix(1.18525 6.04127 -39.63051 7.7752 33.7 151.8)"/><path fill="#a9abaa" d="M72.3 77L61 69.8l68.5 2.3-25.7-34.8z"/><path fill="#45423d" d="M125.2 140l2.2 15.6 40.4-40.5-58.5 22.4z"/><path fill="#646a73" d="M168 145l10 15-27-10z"/><path fill="#2d3237" d="M61 163h47v2H61z"/><circle r="1" fill="#707985" transform="rotate(7 -521.8 32) scale(26.12594 6.22193)"/><path fill="#474543" d="M214.8 91.5l18.4 4.6 21 17.4-69.5 1.6z"/><path fill="#1b2324" d="M0 168h33v2H0z"/><path fill="#b4b7b9" d="M119.3 34.4L90.6 45.3l-31.7.7L71.1-9.2z"/><path fill="#111721" d="M164 134h33v5h-33z"/><path fill="#656870" d="M63 182.3l61.6-8.3 54.2-11.3-44.6 3.4z"/><ellipse cx="65" cy="114" fill="#788f9c" rx="64" ry="3"/><path fill="#494748" d="M165.4 145.3l40.1 6.4-83.9-7.7 42.4-39.8z"/><path fill="#8e9295" d="M139.9 84.9l89.3-18.7-29.9 24.4-27.2 6.6z"/><circle r="1" fill="#9299a2" transform="matrix(39.82186 -3.05526 .69903 9.11112 196.3 31.5)"/><path fill="#242429" d="M50 138l-11-7-5 7z"/><path fill="#40454b" d="M241.6 123.7L198.7 168l.6-8.8 24.5-.2z"/><ellipse cx="84" cy="158" fill="#2d3137" rx="14" ry="2"/><path fill="#b0aca2" d="M34 108h86v3H34z"/><circle r="1" fill="#a6acb3" transform="rotate(168.3 89.8 13.8) scale(94.9317 16.31405)"/><path fill="#2b2d2a" d="M197 113h30v15h-30z"/><path fill="#97a0ad" d="M141.9 14.8l-4.2-16.5 52.4-13 4.2 16.4z"/><ellipse cx="28" cy="104" fill="#7f8790" rx="31" ry="5"/><ellipse cx="127" cy="137" fill="#332f2e" rx="27" ry="2"/><path fill="#4f5664" d="M75.1 121.2l46.4 14.3-88.4-5.2L64.5 117z"/><path fill="#aaa59b" d="M111 123h24v6h-24z"/><path fill="#1d2527" d="M17 158l13 4-17 2z"/><path fill="#2f3742" d="M208.9 152.6l30.6.3 13-6.3-14.3 2.9z"/><path fill="#83969d" d="M67 111.1l-74.9 5.7 49.4 8.9 5.4.4z"/><path fill="#676e79" d="M244 160l-42 3v-1l42-3z"/><path fill="#515863" d="M239.2 149.9L208.4 185l-3.2-45.2-24.4 45.2z"/><ellipse cx="65" cy="142" fill="#424c56" rx="231" ry="3"/><path fill="#9aa09f" d="M233 96h13v2h-13z"/><ellipse cx="129" cy="157" fill="#878990" rx="4" ry="3"/><circle r="1" fill="#63656b" transform="rotate(104 -13.6 125.5) scale(1 65.92186)"/><ellipse cx="222" cy="67" fill="#768190" rx="37" ry="6"/><path fill="#404b61" d="M-16 138l26-13-26-3z"/><path fill="#363230" d="M153.5 130.8l-.9 2.4-3.9-11.6 19.3-4.5z"/><path fill="#3e3c3d" d="M196.1 101l-29.2 7.2L186 92.5l61.5 8.2z"/><path fill="#594f49" d="M128 128h38v7h-38z"/><path fill="#b2b4b1" d="M114.3 58.7l60.7-5.3.7 8-60.7 5.2z"/><circle r="1" fill="#767f8c" transform="matrix(-.12202 1.67208 -21.18078 -1.5457 122 121.3)"/><path fill="#0b0e12" d="M247.3 135l15.9 2-.5 4-15.9-2z"/><path fill="#2c333a" d="M165 166h12v4h-12z"/><path fill="#625751" d="M139.7 130.6l27-21.6-4.3-.8.9-5.5z"/><path fill="#5e636a" d="M10 158h29v2H10z"/><path fill="#78797e" d="M83 134h20v5H83z"/><path fill="#969b9a" d="M88.2 118.3l35.6 14.6 72.1-56-67.9 50.9z"/><path fill="#85969e" d="M54.2 113.6l20.3 5.8 53.7-1.2-83-8.5z"/><ellipse cx="62" cy="138" fill="#8c8072" rx="15" ry="1"/><path fill="#363635" d="M83 138h15v2H83z"/><path fill="#595f6c" d="M79.9 142.9l-32.7-21.2-1 13.8-16.4-14.3z"/><path fill="#5b626c" d="M213.9 151.3l-43 6.9-15.1-19.9 29.7 18.7z"/><path fill="#0d161f" d="M121 150h9v2h-9z"/><path fill="#585b64" d="M37.5 155.2l-27-.4v-4l27 .4z"/></g></g></svg>