<svg xmlns="http://www.w3.org/2000/svg" viewBox="0 0 1800 1200"><defs/><filter id="a"><feGaussianBlur stdDeviation="12"/></filter><rect width="100%" height="100%" fill="#343a4c"/><g filter="url(#a)"><g fill-opacity=".5" transform="translate(3.5 3.5) scale(7.03125)"><circle r="1" fill="#e0edf4" transform="matrix(239.88183 -39.28216 11.13631 68.0054 123 38)"/><ellipse cx="190" cy="98" fill="#6a6765" rx="139" ry="28"/><ellipse cx="133" cy="11" fill="#a4aebd" rx="80" ry="74"/><circle r="1" fill="#6b6a6c" transform="matrix(132.21626 -11.43997 1.66414 19.23312 186.5 96.8)"/><path fill="#4e5a64" d="M-16 157l287-56-19 84z"/><circle r="1" fill="#3c495e" transform="matrix(23.1215 31.59151 -20.29659 14.85485 98.6 108.5)"/><path fill="#c5c2ba" d="M136 166h60v4h-60z"/><circle r="1" fill="#9eaec4" transform="matrix(-28.59546 16.9152 -26.49998 -44.7987 24.8 28.4)"/><path fill="#6b655c" d="M169 82l85 58-22-81z"/><path fill="#a19793" d="M137 83h25v33h-25z"/><path fill="#aa9d75" d="M231.5 68.2L266.3 183l-11.1-10.5-3.5-11.1z"/><circle r="1" fill="#4f3d17" transform="rotate(-104.7 115.9 -75.6) scale(59.14363 2.82159)"/><circle r="1" fill="#ceccc8" transform="rotate(-99.2 88.2 -75) scale(19.15893 32.23462)"/><ellipse cx="29" cy="144" fill="#475466" rx="70" ry="30"/><path fill="#293649" d="M107 116h137l-18 34z"/><path fill="#887d77" d="M222 81l-2 34-64 1z"/><circle r="1" fill="#8694a6" transform="matrix(53.19613 -.7748 .32733 22.47363 139.1 66)"/><path fill="#8998ae" d="M36 70h26v47H36z"/><path fill="#9fadb6" d="M235 39h21v39h-21z"/><path fill="#273141" d="M123.6 162.6l-53.3 3.9 95-21 30.3 15.4z"/><path fill="#545c6a" d="M111 77l-63 44 95-18z"/><circle r="1" fill="#565458" transform="matrix(-17.75121 17.36416 -9.44802 -9.65862 188.9 89.2)"/><path fill="#3d4146" d="M220 72h14v23h-14z"/><path fill="#adb0b7" d="M254.4 10.4l-30.6 9.3-6.2-20 30.6-9.4z"/><path fill="#b6b8be" d="M83 7l28 15 49-18z"/><circle r="1" fill="#9f968c" transform="matrix(-2.62192 -17.3366 4.06127 -.6142 213 84.6)"/><path fill="#9dabb5" d="M203 61.3l26.8 7.4L217 34.9l-11.8 1.8z"/><path fill="#8b98a9" d="M137 94l83-36-156-8z"/><path fill="#746a64" d="M175 116l-22.6-4.7 6.7-31.3 22.5 4.7z"/><path fill="#606269" d="M155 164h43v4h-43z"/><path fill="#8a93a0" d="M123 22h95v16h-95z"/><path fill="#8492a6" d="M0 68h69v29H0z"/><path fill="#5b6270" d="M65 95h76v23H65z"/><path fill="#908279" d="M130 101h38v15h-38z"/><circle r="1" fill="#404548" transform="rotate(-46.3 230.8 -249) scale(4.58486 18.60639)"/><circle r="1" fill="#9caaba" transform="matrix(.77922 -11.23265 99.61918 6.91065 52.7 38.4)"/><path fill="#26303d" d="M83 126l-60 7 23 8z"/><path fill="#48535e" d="M68 90l50 15-33-33z"/><path fill="#8392aa" d="M121-16L-16 1l81 14z"/><path fill="#8492a5" d="M0 83h63v33H0z"/><path fill="#bfc3c9" d="M141 166h16v3h-16z"/><path fill="#929390" d="M175.9 167.7l27.2 2.1-32.3 15.2-9.1-27z"/><path fill="#8c8773" d="M242.8 110.1l5.6 2.4-13.9-38.6 5 26.4z"/><path fill="#8591a5" d="M51 36.2l82.7 51.4L71.9 69l-14.5-9.7z"/><path fill="#4a566b" d="M99 165h41v5H99z"/><path fill="#232d38" d="M69 126.9l46-.8v5l-46 .8z"/><path fill="#475264" d="M0 116h69v14H0z"/><circle r="1" fill="#4b4d53" transform="matrix(-3.11072 1.4664 -11.36258 -24.10388 226.8 88.2)"/><path fill="#948d77" d="M255.5 183.6l2.4-24.2L233 75.2l10.9 25.8z"/><ellipse cx="202" cy="105" fill="#a29080" rx="4" ry="9"/><path fill="#505b6f" d="M101 145h50v8h-50z"/><path fill="#3c4451" d="M205.8 121.8l4.7-28.5 9.1 51.3-17.6 17.7z"/><path fill="#353f4e" d="M107 121h137v22H107z"/><circle r="1" fill="#535e70" transform="matrix(-.06132 .99812 -251.6728 -15.46096 62.7 169)"/><path fill="#a9acaf" d="M211-2l-44 23 49-6z"/><path fill="#5a616e" d="M126 165h85v2h-85z"/><circle r="1" fill="#1b2632" transform="matrix(-32.95896 -.8284 .04342 -1.72734 8.6 137)"/><circle r="1" fill="#908f93" transform="matrix(-2.23977 1.37634 -6.67912 -10.86917 68.9 93.8)"/><path fill="#8192a8" d="M144 96l26-27-50 15z"/><path fill="#9ea6b0" d="M119 53l24 17-48 9z"/><path fill="#5b5037" d="M223 25.8l11 43.7-3 .7-10.8-43.7z"/><path fill="#7a7673" d="M225 109l-22-13 25-8z"/><path fill="#434f62" d="M63 98h8v26h-8z"/><path fill="#7c7573" d="M192 74.4l-26 48.8 16.3-15.5-5.3-15.1z"/><path fill="#061019" d="M214 127h21v2h-21z"/><path fill="#384352" d="M210 163.7l-66.8-8.3 9.1 3.7 33.2 8.6z"/><path fill="#151f2c" d="M131 159.6l-1.4-4.8 15.4-4.4 1.4 4.8z"/><path fill="#4f596c" d="M45 133l24 19 34-9z"/><path fill="#000b13" d="M0 168h12v2H0z"/><path fill="#c3c4c7" d="M159.7 24.5l21.4-19.7L139.7-16l28.7 37.6z"/><path fill="#364051" d="M91.5 164l-74-11.7 42.2 14.3 43 17.3z"/><path fill="#4f5157" d="M192.4 74l-9.3 36 24.2-19.8-.8-16.1z"/><path fill="#303948" d="M65 153.5l-56.4-8 .4-3 56.4 8z"/><path fill="#67686c" d="M110.9 79.8l33.3 20 22.3-20.6-46.1 36.9z"/><path fill="#6a6765" d="M158 81h18v19h-18z"/><ellipse cx="114" cy="120" fill="#3c495a" rx="84" ry="4"/><path fill="#485260" d="M239 144l-38-1 31-9z"/><ellipse cx="189" cy="130" fill="#212a37" rx="31" ry="2"/><path fill="#3e4348" d="M250 87l-10-5 5 25z"/><path fill="#8b98a9" d="M56 105.6L36.7 93.1 58 60.4l19.3 12.5z"/><ellipse cx="213" cy="147" fill="#050e17" rx="5" ry="2"/><path fill="#a48f7f" d="M156 116l-14-2 9-22z"/><path fill="#353b47" d="M229 81h4v27h-4z"/><path fill="#9ea9b2" d="M271 48.6v-2.8l-36.9 16.9-5.5-21.8z"/><path fill="#303b4b" d="M258 159l9-41-18-3z"/><path fill="#574d38" d="M211.5-15.2l17 68-2 .4-17-68z"/><path fill="#515b67" d="M75 109l6-37 35 15z"/><path fill="#555f72" d="M-16 158.4l20.2 9.1 24.9-22.2-2.9 12.4z"/><path fill="#adb0ad" d="M165 168h30v2h-30z"/><ellipse cx="255" cy="69" fill="#8b98a5" rx="20" ry="10"/><path fill="#4d5869" d="M-6 134l28-9 23 9z"/><path fill="#374151" d="M233 103l-8 14-15 7z"/><path fill="#9d9186" d="M205.4 87.4l4.4-14.3 4.8 1.5-4.4 14.3z"/><path fill="#6c686c" d="M187.1 76.6l12.8 41.7-77-1.1 82.9-2.9z"/><ellipse cx="237" cy="147" fill="#212b36" rx="12" ry="2"/><path fill="#4e5a6b" d="M242 153l-9-8-20 9z"/><path fill="#817864" d="M246.5 120.9l10.5 57.4-18.7-70.2 15.6.6z"/><ellipse cx="143" cy="139" fill="#4a5567" rx="37" ry="2"/><path fill="#a3a8b0" d="M187.5 16.3l-66.7-2L146.2-1l15 28.5z"/><ellipse cx="115" fill="#818fa4" rx="25" ry="4"/></g></g></svg>