<svg xmlns="http://www.w3.org/2000/svg" viewBox="0 0 1800 1200"><defs/><filter id="a"><feGaussianBlur stdDeviation="12"/></filter><rect width="100%" height="100%" fill="#2c3740"/><g filter="url(#a)"><g fill-opacity=".5" transform="translate(3.5 3.5) scale(7.03125)"><circle r="1" fill="#717b7e" transform="matrix(251.57903 -41.62924 6.28231 37.96605 136.8 16.1)"/><circle r="1" fill="#230800" transform="matrix(-179.29626 19.6238 -5.46012 -49.88728 214 95.3)"/><path fill="#140800" d="M68 139l56-90-38-4z"/><circle r="1" fill="#576268" transform="matrix(-37.5823 19.5641 -12.93366 -24.84532 40.8 75.2)"/><circle cx="243" cy="106" r="67" fill="#181300"/><path fill="#5e3d1c" d="M87 104h123v26H87z"/><circle r="1" fill="#787778" transform="matrix(-15.98534 -30.5085 22.14307 -11.60216 128.2 27.2)"/><ellipse cx="14" cy="124" fill="#221803" rx="96" ry="16"/><ellipse cx="163" cy="86" fill="#1d1300" rx="102" ry="22"/><circle cx="127" cy="48" r="5" fill="#ffffe0"/><path fill="#685d4a" d="M113.8 154.2l-3.1-11.4L95.4 131l-22.8 21.9z"/><ellipse cx="245" cy="12" fill="#30444c" rx="25" ry="37"/><path fill="#151200" d="M250.2 30.1l-85.5 59-12.1-43.5 40.1 7.8z"/><ellipse cx="172" cy="156" fill="#242c2d" rx="67" ry="23"/><path fill="#482e19" d="M151 83h40v50h-40z"/><path fill="#43515a" d="M7-16l-23 125 81-8z"/><path fill="#211901" d="M82 51h45v28H82z"/><circle r="1" fill="#0c0a01" transform="matrix(-39.99736 -15.38865 12.1312 -31.53075 243.5 85.9)"/><path fill="#6d4e34" d="M107 120.6l-1.7-15.9 31.8-3.3 1.6 15.9z"/><circle r="1" fill="#5a646d" transform="matrix(67.8719 -8.41115 3.32843 26.858 124 16.7)"/><circle r="1" fill="#1d2422" transform="matrix(44.78934 -36.56132 17.91377 21.9452 10.5 145.4)"/><path fill="#90796a" d="M83 146h22v8H83z"/><ellipse cx="59" cy="61" fill="#535d64" rx="26" ry="19"/><path fill="#887468" d="M198 143l7 5 12-1z"/><path fill="#342513" d="M187 113l-49 28 133-13z"/><path fill="#455159" d="M-16 107l84-7L4-16z"/><path fill="#4e3622" d="M97.7 123.9L68 128l-1.7-11.9L96 112z"/><path fill="#111004" d="M66 79h26v32H66z"/><path fill="#20343b" d="M0 139h81v31H0z"/><path fill="#43555f" d="M210-16l-24 34 78 27z"/><path fill="#5f6669" d="M192.4 51.3l-61-11.5-15.3 16.7 8.6-72.5z"/><path fill="#69614e" d="M127 56h17v7h-17z"/><circle cx="131" cy="48" r="3" fill="#ffebd6"/><path fill="#0f1600" d="M67 132h103v3H67z"/><path fill="#4b5b63" d="M197.1 9.7l30.4 10-8.6 26.6-30.4-10z"/><path fill="#6a4d33" d="M161 117.1l4.2-10 13.9 5.8-4.3 10z"/><circle r="1" fill="#201a0e" transform="matrix(-109.75546 -11.0496 .67269 -6.68177 14 122.3)"/><ellipse cx="94" cy="142" fill="#1c2927" rx="32" ry="4"/><path fill="#29210a" d="M84.2 57.9l55.2 7.9-45.9-22-14.3 10.8z"/><path fill="#2c363a" d="M160.5 185h-55.2l-7.2-39 53.4-3.3z"/><path fill="#472f1b" d="M191.5 119.5l-1.1-11.4 50.4 12.8-3.5 12z"/><path fill="#1f1606" d="M152.1 106.4l-9.2 11.1-20.7-48L190 47.3z"/><path fill="#10181a" d="M215 136h41v17h-41z"/><path fill="#505c64" d="M80 77H27l41-93z"/><path fill="#181407" d="M177 63l57-27-15 86z"/><path fill="#93642f" d="M87 135h16v3H87z"/><path fill="#3e2308" d="M81 153h17v4H81z"/><ellipse cx="77" cy="84" fill="#191607" rx="19" ry="5"/><path fill="#664930" d="M109.2 116.6l.9-7 46.7 5.8-.9 7z"/><ellipse cx="160" cy="54" fill="#1f1901" rx="6" ry="9"/><path fill="#37484f" d="M246.1-16l24.1 38.5.8 8.9-35.5 17.3z"/><path fill="#382516" d="M188 75.9l-42.3 37.3 46.3-7.3-17.9 47z"/><path fill="#907f6f" d="M82 150h29v3H82z"/><circle r="1" fill="#6c6965" transform="matrix(-5.02908 1.75075 -4.67885 -13.44016 117.4 42.7)"/><path fill="#32271c" d="M18.3 133.5l-6.8-1L32 145.1l89.9-27.6z"/><path fill="#706f6c" d="M130 58l6-24 21 11z"/><ellipse cx="218" cy="136" fill="#322e24" rx="114" ry="2"/><ellipse cx="104" cy="23" fill="#5d646a" rx="21" ry="25"/><path fill="#505f67" d="M198.7 49.2l9.2-7L190.3-16l-83.8 8.6z"/><path fill="#201a0c" d="M150.2 64.9L86 52.3 75.7 97.1l46.6 9.1z"/><circle r="1" fill="#3c4f59" transform="matrix(35.13814 -16.77709 6.25138 13.09297 23 0)"/><circle r="1" fill="#20292d" transform="matrix(-46.37926 -8.91322 2.31692 -12.05593 205.3 160.1)"/><path fill="#4e575f" d="M25 58l43 38-19 5z"/><path fill="#492e18" d="M156 91v17l40-24z"/><path fill="#e9d5c3" d="M124.5 52l1-9 8 1-1 9z"/><path fill="#b8ada1" d="M101.5 147v1l-19-1v-1z"/><path fill="#765b4f" d="M206 135h2v13h-2z"/><path fill="#221c0f" d="M191.9 135.2l-5.2-44.8-6.9 30.4 74.1 15.3z"/><path fill="#79654d" d="M108.5 137.3l-22.9 2.4v-1l22.8-2.4z"/><path fill="#78736e" d="M121 36h19v9h-19z"/><path fill="#5a6268" d="M171.9 55.3L137.4-16l9.5 73.8L175 25.6z"/><path fill="#2d2212" d="M92 100l12 43 18-13z"/><path fill="#191506" d="M105 48h9v53h-9z"/><path fill="#29291e" d="M25.1 110l23-7 24.7-2.2-15.5 26z"/><path fill="#261c0b" d="M143 56h12v57h-12z"/><path fill="#0d0b07" d="M163 52.1l19.3 25.8-33.2-6.5 11-13.5z"/><path fill="#4f3a33" d="M122 54h8v9h-8z"/><path fill="#211e13" d="M173.7 144.9l-68.1-4.5 67.1-4.5 21.3-17.3z"/><path fill="#2a1a0b" d="M185 76l-24 27 2-26z"/><path fill="#4b331c" d="M125 118h42v13h-42z"/><path fill="#10100b" d="M223.4 39.7l13-2.4.2 5.5-22.8 10.7z"/><path fill="#4e4641" d="M109 139l-12 15h12z"/><circle r="1" fill="#110b04" transform="matrix(-2.66787 -32.5669 6.09803 -.49955 249.4 74.9)"/><path fill="#573f28" d="M194.7 106.3l12.1 16.9-10-7.6-8.9-2.1z"/><ellipse cx="100" cy="155" fill="#080000" rx="9" ry="1"/><path fill="#857d6d" d="M182 140h4v2h-4z"/><path fill="#47301d" d="M122.3 112.8l14.6-5.5.2-8.1-12.6 1.6z"/><path fill="#434e53" d="M230.7 49l.7-11.6-48.9-26 55.9 35.1z"/><circle cx="57" cy="161" r="26" fill="#28363c"/><ellipse cx="209" cy="75" fill="#191406" rx="16" ry="32"/><path fill="#72726e" d="M135 53.7l-3.2 1.2 10.2 5.3-19.1-40.6z"/><path fill="#393a29" d="M191 53l-1-9h13z"/><path fill="#685e58" d="M213.5 149l-.8 1.8-16.2-7.8.8-1.8z"/><ellipse cx="140" cy="148" fill="#1b262c" rx="45" ry="1"/><circle r="1" fill="#16150a" transform="matrix(2.70845 .93789 -2.0923 6.0422 232.9 40.6)"/><path fill="#120b02" d="M213 97l50 9-49 14z"/><path fill="#645040" d="M30 135l7-2-8-1z"/><path fill="#495860" d="M218 46l14-29-78-33z"/><path fill="#010804" d="M90 134v-8l10 1z"/><circle r="1" fill="#4a565f" transform="matrix(-17.38388 2.33605 -7.167 -53.33365 38.2 48.5)"/></g></g></svg>