<svg xmlns="http://www.w3.org/2000/svg" viewBox="0 0 1800 1200"><defs/><filter id="prefix__a"><feGaussianBlur stdDeviation="12"/></filter><rect width="100%" height="100%" fill="#355176"/><g filter="url(#prefix__a)"><g transform="translate(3.5 3.5) scale(7.03125)"><circle r="1" fill="#b0daff" fill-opacity=".5" transform="matrix(235.85007 1.23492 -.30448 58.15028 218 56.4)"/><path fill="#ffffeb" fill-opacity=".5" d="M95.7 173.3L40.2 186l-5.9-25.4L89.8 148z"/><circle r="1" fill="#c0d2e0" fill-opacity=".5" transform="matrix(-2.5974 -21.85726 132.9699 -15.80141 190 55.8)"/><circle r="1" fill="#3b73b7" fill-opacity=".5" transform="matrix(2.9728 23.86705 -205.31503 25.57334 81.8 14.5)"/><circle r="1" fill="#47739c" fill-opacity=".5" transform="rotate(-83.7 130.7 -23.5) scale(21.85763 158.40633)"/><ellipse cx="31" cy="169" fill="#ebdcc7" fill-opacity=".5" rx="56" ry="9"/><circle r="1" fill="#a78e70" fill-opacity=".5" transform="rotate(174.6 116.4 41.6) scale(55.33892 13.27584)"/><circle r="1" fill="#002b4e" fill-opacity=".5" transform="matrix(-62.47765 -.1018 .02174 -13.34374 159 162.8)"/><path fill="#434649" fill-opacity=".5" d="M0 165h50v5H0z"/><circle r="1" fill="#6c9dd4" fill-opacity=".5" transform="rotate(166.2 82 27.3) scale(109.20837 14.20563)"/><circle r="1" fill="#baccd9" fill-opacity=".5" transform="matrix(4.19028 13.5305 -42.82251 13.26175 193.7 62.5)"/><ellipse cx="43" cy="6" fill="#4471a7" fill-opacity=".5" rx="117" ry="24"/><ellipse cx="35" cy="69" fill="#92b0c9" fill-opacity=".5" rx="96" ry="14"/><circle r="1" fill="#627f9c" fill-opacity=".5" transform="matrix(2.50217 22.8523 -91.83314 10.05512 234.8 97.5)"/><ellipse cx="43" cy="101" fill="#476e96" fill-opacity=".5" rx="101" ry="20"/><path fill="#fffffa" fill-opacity=".5" d="M11 160h29v4H11z"/><path fill="#f4f5f5" fill-opacity=".5" d="M228.2 27.7l-.5 11.9 13.6 2.2 4.9-12.2z"/><path fill="#f2efe9" fill-opacity=".5" d="M50.1 159.3l28.4-6 5.4 25.4-28.4 6z"/><ellipse cx="73" cy="161" fill="#5a6066" fill-opacity=".5" rx="22" ry="2"/><path fill="#273845" fill-opacity=".5" d="M56 176l-15-11-5-15z"/><circle r="1" fill="#153c61" fill-opacity=".5" transform="matrix(-12.198 21.98103 -28.40928 -15.76526 120.5 157.7)"/><path fill="#8b857d" fill-opacity=".5" d="M63 144h24v10H63z"/><path fill="#032a4a" fill-opacity=".5" d="M218.8 158l55.8 5-1.4 17-55.8-5z"/><path fill="#2a3e50" fill-opacity=".5" d="M-5.2 137.2L-16 162.8l37-2 47.2-10.4z"/><path fill="#6a91b7" fill-opacity=".5" d="M99 83h142v16H99z"/><ellipse cx="241" cy="77" fill="#857357" fill-opacity=".5" rx="24" ry="5"/><ellipse cx="136" cy="132" fill="#5b8ab3" fill-opacity=".5" rx="34" ry="2"/><path fill="#0e3057" fill-opacity=".5" d="M62.4 149.5l-6 11.3-7.2-9.4 3.2-4.8z"/><path fill="#898c90" fill-opacity=".5" d="M266 55l-34 20-14-18z"/><path fill="#d6d2c6" fill-opacity=".5" d="M41 153l12 11 6-5z"/><ellipse cx="134" cy="169" fill="#00213c" fill-opacity=".5" rx="38" ry="6"/><circle r="1" fill="#4875aa" fill-opacity=".5" transform="matrix(-171.3267 26.74908 -1.51747 -9.71935 60.6 18)"/><circle r="1" fill="#96bde3" fill-opacity=".5" transform="matrix(-68.77152 7.22818 -.8305 -7.9017 205.4 48.8)"/><path fill="#fff" fill-opacity=".5" d="M49 166h31v4H49z"/><path fill="#9a8f80" fill-opacity=".5" d="M118 80h98v3h-98z"/><ellipse cx="85" cy="147" fill="#747e87" fill-opacity=".5" rx="3" ry="10"/><path fill="#b4ac9e" fill-opacity=".5" d="M14 167h30v3H14z"/><path fill="#254f79" fill-opacity=".5" d="M25 121h152v9H25z"/><path fill="#4978a5" fill-opacity=".5" d="M125.2 121.5l-.4-20 54-1 .4 20z"/><circle r="1" fill="#4c6d93" fill-opacity=".5" transform="rotate(-14.3 577 -919.8) scale(73.43788 15.60099)"/><path fill="#4d606c" fill-opacity=".5" d="M58.3 185l-28.4-36.7L1 95.9.5 85.6z"/><ellipse cx="115" cy="85" fill="#4b76a3" fill-opacity=".5" rx="114" ry="3"/><path fill="#c5baad" fill-opacity=".5" d="M165 80.1l54.9-24.2 7.9 14.9-45.3 10z"/><path fill="#5b87b6" fill-opacity=".5" d="M-16 55V20l128 19z"/><circle r="1" fill="#f9f1e3" fill-opacity=".5" transform="matrix(9.17828 1.3544 -.35514 2.4067 77.5 156.8)"/><circle r="1" fill="#a8c5db" fill-opacity=".5" transform="rotate(-6.4 695.2 -1256) scale(39.0624 11.63865)"/><path fill="#dde1de" fill-opacity=".5" d="M21.4 164.1l3.2-3.4-40.6 3.2 31.1.8z"/><path fill="#7a7f82" fill-opacity=".5" d="M-45 127.8l110.2 19.4-.1 1-110.3-19.4z"/><path fill="#55779d" fill-opacity=".5" d="M-16 80l62-1-4 22z"/><circle cx="82" cy="163" r="4" fill="#52595e" fill-opacity=".5"/><path fill="#78818d" fill-opacity=".5" d="M-31.4 149.7l120.8-6.4v1l-120.8 6.4z"/><path fill="#f3e2c5" fill-opacity=".5" d="M97.4 199.3l-1 .2-11.8-60.8 1-.2z"/><path fill="#546574" fill-opacity=".5" d="M52 161.8L23.2 185 57 161.8l72.7 3.5z"/><path fill="#8ba3bb" fill-opacity=".5" d="M136 89h120v3H136z"/><path fill="#20466d" fill-opacity=".5" d="M95 165l82-15-92-19z"/><circle r="1" fill="#33608b" fill-opacity=".5" transform="matrix(-.01163 3.33211 -72.09264 -.25165 198.2 144.3)"/><path fill="#0e2e4c" fill-opacity=".5" d="M50 138h30v4H50z"/><path fill="#214970" fill-opacity=".5" d="M180 146h44v22h-44z"/><path fill="#81a9d7" fill-opacity=".5" d="M241.4 21.3l-12.1 11.9L205.5 48l-59-10.7z"/><path fill="#dfe5e9" fill-opacity=".5" d="M238.8 23.7L227.3 38l-5.9 3.6 23.5-6.3z"/><path fill="none" stroke="#868c8d" stroke-opacity=".5" stroke-width=".5" d="M-8.4 128.7q39.3 12.2 48.2 7"/><path fill="#7da7db" fill-opacity=".5" d="M271 17.8l-21.2 19 12.6-2.1-40.6-9.8z"/><path fill="#90afcb" fill-opacity=".5" d="M82 82l76-35L-4 73z"/><path fill="#05233d" fill-opacity=".5" d="M-13.3 142l40.9 3-.3 3-40.9-3z"/><path fill="#4e6274" fill-opacity=".5" d="M83.5 157.2l-3.3-25.7 4.9-4 1.7 29.4z"/><path fill="#628fc3" fill-opacity=".5" d="M263 4.3L190 10-14.3 64.2 257 13.8z"/><path fill="#bbb0a0" fill-opacity=".5" d="M225 81h31v2h-31z"/><circle r="1" fill="#4c545f" fill-opacity=".5" transform="rotate(-2.4 3980.3 -294.2) scale(36.34013 1)"/><path fill="#cac3b5" fill-opacity=".5" d="M67 153l6-4h-7z"/><path fill="#fffcf5" fill-opacity=".5" d="M77.4 158.2l-32.7 4.6-.1-1 32.7-4.6z"/><ellipse cx="109" cy="111" fill="#1b416b" fill-opacity=".5" rx="40" ry="1"/><path fill="#2e4c6d" fill-opacity=".5" d="M41 153.9l18 4.8.1-1.7 11-10.1z"/><path fill="#526f8b" fill-opacity=".5" d="M61.7 131l35.9.5-33.7 3.6-35.7 3.1z"/><ellipse cx="116" cy="153" fill="#0d2e4d" fill-opacity=".5" rx="26" ry="3"/><ellipse cx="190" cy="122" fill="#184472" fill-opacity=".5" rx="16" ry="2"/><circle r="1" fill="#47709a" fill-opacity=".5" transform="rotate(96.3 -3.8 88.3) scale(4.7447 71.31298)"/><path fill="#032845" fill-opacity=".5" d="M96 168h143v2H96z"/><path fill="#103054" fill-opacity=".5" d="M245 129h11v4h-11z"/><path fill="#182e4a" fill-opacity=".5" d="M38 148h48v2H38z"/><ellipse cx="56" cy="115" fill="#254b74" fill-opacity=".5" rx="104" ry="1"/><circle r="1" fill="#0f385c" fill-opacity=".5" transform="rotate(-87.1 136 1.8) scale(1 60.48259)"/><path fill="#2a4e74" fill-opacity=".5" d="M225.3 164.2l-78 .1 48.9 6.4-15.4-9.5z"/><ellipse cx="35" cy="160" fill="#d9ded4" fill-opacity=".5" rx="4" ry="2"/><path fill="#738ca9" fill-opacity=".5" d="M252.8 84.5l-20 36.7-5.9-21.1-58.2-.7z"/><path fill="#305179" fill-opacity=".5" d="M116 163l25-5-39-5z"/><path fill="#677485" fill-opacity=".5" d="M14 157l-30-15 2 10z"/><path fill="#b5cddf" fill-opacity=".5" d="M174 77l-25-9 66-13z"/><path fill="#f6f5ef" fill-opacity=".5" d="M6 162h29v2H6z"/><circle r="1" fill="#719bc6" fill-opacity=".5" transform="rotate(82.6 12.2 70.2) scale(7.11753 89.29218)"/><path fill="#abc7df" fill-opacity=".5" d="M178.7 60.4l77.6-4.2 14.7-7.6-22.3-2z"/><path fill="#7397ba" fill-opacity=".5" d="M170 83h35v18h-35z"/><path fill="#64747d" fill-opacity=".5" d="M52 161h28v2H52z"/><path fill="#5e86ad" fill-opacity=".5" d="M190.2 87.1L7.4 93.2l-8-5.5 68.7-1.6z"/><path fill="#f5f5f0" fill-opacity=".5" d="M34 185l41-22 49 22z"/><ellipse cx="202" cy="80" fill="#8a8173" fill-opacity=".5" rx="31" ry="2"/><path fill="#ddcdb0" fill-opacity=".5" d="M88 162h4v8h-4z"/><path fill="#4f79a3" fill-opacity=".5" d="M96 125h77v1H96z"/><path fill="none" stroke="#989c98" stroke-opacity=".5" stroke-width=".5" d="M35.5 185q-21.9-32.3-39-35"/><path fill="#d0c6b8" fill-opacity=".5" d="M68 147h13v1H68z"/><path fill="#698fb3" fill-opacity=".5" d="M93 112.5h108v1H93z"/></g></g></svg>