<svg xmlns="http://www.w3.org/2000/svg" viewBox="0 0 1800 1200"><defs/><filter id="a"><feGaussianBlur stdDeviation="12"/></filter><rect width="100%" height="100%" fill="#4f3e3a"/><g filter="url(#a)"><g fill-opacity=".5" transform="translate(3.5 3.5) scale(7.03125)"><circle r="1" fill="#c9763f" transform="matrix(-217.72686 45.89795 -19.70838 -93.49096 110.6 61.4)"/><circle r="1" fill="#d1d9cb" transform="rotate(59.7 45.6 225) scale(40.95134 31.4946)"/><circle r="1" fill="#b3c4bf" transform="matrix(16.68254 -12.80096 27.4247 35.74058 243.9 143.6)"/><path fill="#9bc8d9" d="M97 145L41 64l92 78z"/><circle r="1" fill="#773008" transform="matrix(8.57279 -38.66935 60.9559 13.5136 140.2 92.1)"/><path fill="#fff" d="M195-12.7l91.8 14.5-1.7 11-91.9-14.6z"/><circle r="1" fill="#8d3600" transform="matrix(32.00117 -46.40033 91.49986 63.1052 27.6 154.9)"/><ellipse cx="202" cy="59" fill="#f5d5ad" rx="26" ry="20"/><ellipse cx="114" cy="20" fill="#833d1f" rx="75" ry="67"/><path fill="#020e24" d="M251.2 76.3l-15.4 70.6 17.2-27.5 18-86.5z"/><path fill="#749298" d="M93 107L12 3l24 61z"/><path fill="#0e0e0b" d="M191 150L86 169l185 16z"/><circle r="1" fill="#537284" transform="matrix(10.77271 -6.79198 13.59022 21.55537 219.7 104.6)"/><path fill="#5c7579" d="M97 150l82 5 19-35z"/><circle r="1" fill="#0c1c24" transform="rotate(-37.5 118.5 -58) scale(3.76742 81.72149)"/><path fill="#544444" d="M224.1 65.7l3.4-10.2 24.2-14.7-7.1 35z"/><path fill="#e9dfcd" d="M258.9 100.1l12.1-4.5-39.2 58.5 39.2-11.4z"/><circle r="1" fill="#bb621e" transform="matrix(19.45997 -23.36246 41.45081 34.52682 0 61.8)"/><path fill="#75391c" d="M190.8 64.6l-5.6-.4-5.6 29.9 46 90.9z"/><path fill="#5b2517" d="M108 129l51 10 31-39z"/><circle r="1" fill="#d7c7b3" transform="rotate(71.1 82.2 210.7) scale(3.63196 60.47211)"/><path fill="#ecefe5" d="M231 163h40l-3 21z"/><path fill="#def8ff" d="M244.3-14L200.8 1.3 245.3 6l25.7 4.1z"/><path fill="#cee1ed" d="M94.5 134.4L70.3 92.5l2.9 18.2 27.9 4.4z"/><path fill="#7e3e2a" d="M158-16l113 46-170 12z"/><path fill="#bdc0b2" d="M173.3 124.6l9.3 23.8 5.9-19.4-14.7.4z"/><ellipse cx="92" cy="169" fill="#29170a" rx="80" ry="7"/><circle r="1" fill="#9a531f" transform="matrix(42.13012 24.24917 -10.64496 18.49438 110.7 76.7)"/><path fill="#909697" d="M27.7 45.6L6-16l18.2 37.2L2.5 9.1z"/><path fill="#efddbe" d="M218.2 40.3l-40.3 24.2-4.1-6.8 40.3-24.2z"/><path fill="#ab4e1f" d="M206.1 115.2l3.7 23.7-17.8 20.4 32.7-8.6z"/><path fill="#394244" d="M265.5 172.9l-23.3-22.3-7.1 7.1 35.9 15.8z"/><path fill="#403f45" d="M257.1 115.5l-22.8-58.1 10.3 7.4 5.5 55.7z"/><path fill="#c9dce5" d="M79.5 99l-6 3.5-9-15.5 6-3.5z"/><path fill="#a95519" d="M80.2 156.1L30.1 70.2l1.4-16.5 57.3 84.1z"/><path fill="#1a110b" d="M217.5 183.9l32.1-72.2 1 .4-32.2 72.2z"/><ellipse cx="28" cy="151" fill="#904507" rx="79" ry="15"/><circle r="1" fill="#b1a18d" transform="rotate(-114.4 144 -9) scale(54.37841 1.81946)"/><path fill="#373d3a" d="M153.3 144.5L74.2 94.1l49.2 39.1-8.1 2.9z"/><path fill="#918268" d="M98.7 140.7l12.3-17 24.3 17.6-12.3 17z"/><path fill="#e9c9aa" d="M193 70h48v11h-48z"/><path fill="#9a582e" d="M160.1 67l30-2 1.8 26-30 2z"/><path fill="#c29c76" d="M234.7 142.7l-2.4 10.3 8.6-73.9 5 24.7z"/><path fill="#8d4d2f" d="M216.1 34.8l-17.2 1.5-23.6 19.4-5.7-60.6z"/><path fill="#6a372b" d="M44.5 119.5l-25.4-17.6 40.2-3.6-6.1 21z"/><circle r="1" fill="#f9e6ca" transform="matrix(3.16206 -1.34873 1.76333 4.13406 250.7 65.4)"/><circle cx="226" cy="145" r="7" fill="#d2a882"/><circle r="1" fill="#4e5b62" transform="rotate(-33.8 177.6 -55) scale(1 48.19405)"/><path fill="#312319" d="M199.7 134.7l-8.1-25.2 17.7 27.4-49.7 48.1z"/><path fill="#26333b" d="M15.3 11.7L7 27.3l4.3-8.3L6 2.9z"/><path fill="#c0cad2" d="M87 119l10-7 16 14z"/><path fill="#6d7d7b" d="M192.5 142.9l-7.5-20.7 8.5-3 7.5 20.6z"/><path fill="#40241b" d="M191 155h40v15h-40z"/><circle r="1" fill="#2a1f15" transform="rotate(-37.1 135.9 -65.2) scale(2.7929 61.13668)"/><path fill="#5f504e" d="M250.5 70.4L271 95.1l-28.2-14.4 2.7 15.7z"/><path fill="#223849" d="M80 101l12 9-12-23z"/><path fill="#464c4d" d="M185.2 154.3l-59.7 7.8 59.9-42.8-15.9 14.3z"/><path fill="#783a2e" d="M261 22l10 54-49-48z"/><path fill="#8a4b29" d="M157 94L40 24l147 11z"/><path fill="#424942" d="M192 70.5l-3.4 11.6-4-16.9-3.2-5.3z"/><path fill="#975335" d="M52 28.7l-64.3-42.6L97.8 6.5 61 55z"/><circle r="1" fill="#67352b" transform="matrix(7.74523 -1.94842 5.36658 21.33291 133 26)"/><path fill="#ca9f72" d="M179 54l-8 4 21 26z"/><path fill="#703e28" d="M161 80l-30-12 49-17z"/><path fill="#788284" d="M196.5 78.2l24.8 58.4 22.7-31.3L208.8 82z"/><path fill="#702f0c" d="M134 163l-32-14-36 12z"/><path fill="#d6a978" d="M243 107l1-24-24 1z"/><path fill="#9d8f80" d="M76.7 89.4L5.1 17.6-8.1-16 33 56.6z"/><path fill="#d8d5cd" d="M247.8 149.2l15.7-20.9-13.8 47.6 21.3-18.3z"/><path fill="#7b3d26" d="M219.6 31.4l20.8 8.2-7.8-23-58.4 30.1z"/><path fill="#e3cfb2" d="M174.3 59l22.3-20 12.6-3.7 12.6 16.2z"/><path fill="#302f36" d="M241.4 117.6l16.4-28.9 13.2 19.8-33.4 25.7z"/><circle r="1" fill="#bca184" transform="rotate(42.1 54 317.6) scale(10.1526 8.05097)"/><ellipse cx="149" cy="116" fill="#7a3619" rx="25" ry="21"/><path fill="#3f382d" d="M189 76.7l-6.3-10.4 8.6 4.1 1 14.5z"/><path fill="#353f46" d="M237 157l13 1-9 7z"/><path fill="#73321b" d="M170 111l33-8 12 28z"/><ellipse cx="74" cy="135" fill="#ae6328" rx="13" ry="11"/><path fill="#412613" d="M116 120.5L86.2 94.2l26.9 32.9 24.1 8.4z"/><path fill="#676966" d="M56 84l19 2-28-16z"/><path fill="#954e2d" d="M-5 31l9-19 37 53z"/><path fill="#706359" d="M226 53h21v17h-21z"/><path fill="#fff9ea" d="M251 125l13 20 5-35z"/><path fill="#aeb5b8" d="M271 174l-38.6-8.2-3.2-11.2 28 23.3z"/><path fill="#b2a396" d="M109.8 144l-26.9-12.1 3.9 1.5 6.2-17z"/><ellipse cx="189" cy="134" fill="#455555" rx="5" ry="10"/><path fill="#bccecf" d="M79 112l16 3-24-17z"/><circle r="1" fill="#a95c1b" transform="matrix(22.48684 -11.90617 3.20188 6.04729 7.5 145.4)"/><path fill="#182b39" d="M141.5 168.1l-1.5-9.8 40.5-6.4 1.5 9.8z"/><path fill="#322b35" d="M249 74h3v48h-3z"/><path fill="#bcb7b2" d="M23 39l.9-.6 57 84.6-.8.6z"/><path fill="#2c2c35" d="M250 92l-6 24 7 14z"/><path fill="#84857d" d="M115 154l-15-11 40 11z"/><path fill="#241d18" d="M202.6 136.2l-13.3 24.5-5.6-15.6 28.2-.7z"/><path fill="#c48454" d="M221 152l6 4 9-21z"/><path fill="#04121a" d="M10.7 3.7l.2 2.3 5.7 11.4L9.4 10z"/><path fill="#8e4922" d="M224.3 154.8l-13.7-10.6-35.7-67 39.8 53.7z"/><ellipse cx="213" cy="95" fill="#656c6e" rx="10" ry="8"/><circle cx="180" cy="130" r="6" fill="#aca799"/><ellipse cx="223" cy="81" fill="#727071" rx="11" ry="2"/></g></g></svg>