<svg xmlns="http://www.w3.org/2000/svg" viewBox="0 0 1800 1800"><defs/><filter id="a"><feGaussianBlur stdDeviation="12"/></filter><rect width="100%" height="100%" fill="#513c28"/><g filter="url(#a)"><g fill-opacity=".5" transform="translate(3.5 3.5) scale(7.03125)"><circle cx="137" cy="43" r="255" fill="#fff8e9"/><circle r="1" transform="rotate(-3.6 2459.4 -2313.6) scale(175.6341 30.75103)"/><circle cx="187" cy="8" r="110" fill="#ebecf9"/><circle r="1" fill="#ffdc97" transform="rotate(-82.8 191.1 74) scale(53.29105 172.18339)"/><path fill="#e2e7f4" d="M-42 113.9L3-42.8l73 21-45 156.6z"/><circle r="1" fill="#656a6e" transform="matrix(185.36618 -3.23558 .2339 13.4 147 190.4)"/><circle r="1" fill="#1d1500" transform="rotate(86.3 -2.4 151.6) scale(23.27788 79.02586)"/><circle r="1" fill="#d66d36" transform="rotate(-177.4 34 56.8) scale(15.89744 90.29063)"/><ellipse cx="76" cy="88" fill="#ffbe97" rx="38" ry="29"/><circle cx="70" cy="41" r="15" fill="#370300"/><path fill="#00040b" d="M52 119h39v13H52z"/><circle cx="232" cy="215" r="26" fill="#ffc584"/><circle r="1" fill="#545c5e" transform="matrix(1.62157 -10.31929 63.31315 9.949 146 197)"/><ellipse cx="88" cy="237" fill="#f8be92" rx="153" ry="26"/><path fill="#c1c3c2" d="M100 69h77v51h-77z"/><path fill="#191d07" d="M95 133h161v21H95z"/><path fill="#0f1000" d="M27.2 161.9l8.3-31 19.3 5.2-8.3 31z"/><ellipse cx="108" cy="9" fill="#d2d1d6" rx="112" ry="18"/><ellipse cx="5" cy="182" fill="#5c6a72" rx="48" ry="15"/><ellipse cx="184" cy="160" fill="#81613c" rx="99" ry="5"/><ellipse cx="159" cy="176" fill="#828a8c" rx="88" ry="7"/><path fill="#d7ad82" d="M-1 138l27 9 42-67z"/><path fill="#e96525" d="M88 107h9v27h-9z"/><path fill="#1f2e2a" d="M46.3 126.7l46.4 14-14.4-19-22.8-8.7z"/><circle r="1" fill="#ea7d3f" transform="rotate(-90.7 110.8 49.4) scale(30.55061 11.1883)"/><path fill="#bebeba" d="M101 79h155v35H101z"/><path fill="#1f200e" d="M154.5 169.3l-2-54.1-11.7 2-47.9 10.3z"/><path fill="#1a1600" d="M-36.1 165.8l-.7-13 86.9-4.6.7 13z"/><path fill="#423c22" d="M191 114h65v55h-65z"/><path fill="#a15e19" d="M142.9 247.3l1.5 7.8-39.3 7.6-1.5-7.8z"/><circle r="1" fill="#f0c39a" transform="matrix(43.56147 26.02856 -11.55744 19.34257 68.8 223.5)"/><path fill="#ffab7a" d="M78 44l31 78-52-43z"/><path fill="#86431a" d="M75 39.3l-1 24-15-.6 1-24z"/><path fill="#af8453" d="M241.9 207.1l23-1.2 3.2 63-23 1.2z"/><path fill="#504116" d="M0 126h5v32H0z"/><path fill="#896a4b" d="M166 155h90v8h-90z"/><path fill="#573b26" d="M92.5 109l-1.5 7-21.4-5 1.6-6.8z"/><path fill="#b2b3b0" d="M30 135l29-86-75 68z"/><path fill="#1e1507" d="M57.3 44.1l7.4-17.4 11.9.4 1.7 13.5z"/><path fill="#6a7172" d="M101 180h100v24H101z"/><path fill="#888b8c" d="M0 169h52v10H0z"/><path fill="#bfbdb9" d="M101 86h155v29H101z"/><ellipse cx="242" cy="179" fill="#5e686e" rx="50" ry="12"/><path fill="#d2c8c8" d="M-16 12l48.4 53.2 30 2-7.1-43.3z"/><path fill="#735122" d="M8.5 144.9l42.3-22.6 4.7 8.8-42.3 22.6z"/><path fill="#ff9e67" d="M43 85h7v46h-7z"/><path fill="#9f7c5b" d="M212 219l-53-5 42-21z"/><path fill="#de8e5a" d="M95.6 202.2l-40.4-1.6 7.9-82.2L52 176.6z"/><path fill="#292615" d="M93.8 105.8l-20.7 58.5 72.3-40.3-82 14.5z"/><circle cx="73" cy="51" r="8" fill="#dd7843"/><path fill="#bdc5c4" d="M120.4 120.8l-19.8 2.4-1-8 19.8-2.4z"/><path fill="#cfc5c2" d="M214.9 3.7l-139.8 54 127.8 57-48.2 7.5z"/><circle r="1" fill="#d1c9cb" transform="matrix(-12.15682 6.19421 -24.14392 -47.38512 82.5 8.8)"/><path fill="#7d6246" d="M202.4 154.5l-17.3-10-3.1 8.3-48.1 13.6z"/><path fill="#50595c" d="M29.6 193.3L6.8 177.4l-22.8 17 33.5 4.6z"/><path fill="#f0c395" d="M204 194h52v9h-52z"/><path fill="#fbcb9c" d="M56 205h81v23H56z"/><path fill="#a45931" d="M51.3 153.4l40.9-33.7-2.3-1.7-19.3 46.8z"/><path fill="#1d1e0d" d="M171.4 127l49.1-3.5 3.2 24.4-15.2 11.3z"/><path fill="#ff8f55" d="M89 125h9v6h-9z"/><path fill="#13130c" d="M128.8 149.1l34-1.2.4 11-34 1.2z"/><path fill="#e9af6e" d="M244 252l-89 19-24-29z"/><ellipse cx="246" cy="166" fill="#1e1206" rx="118" ry="2"/><path fill="#5f6048" d="M188.8 122.2l-30.1 7.5-1.5-5.9 30.1-7.5z"/><path fill="#e3c187" d="M29 133l-14-9-16 19z"/><path fill="#b6b7b5" d="M3 70h39v58H3z"/><circle r="1" fill="#1d1e0c" transform="matrix(-10.72273 13.64726 -5.77153 -4.53473 85.6 150.9)"/><path fill="#c9ae98" d="M70 110h16v9H70z"/><path fill="#2e3f3e" d="M67.6 129l-18.5-9.8 3.3-6.2 18.5 9.8z"/><circle r="1" fill="#b9ad9e" transform="matrix(1.26208 12.34985 -11.70002 1.19567 244.9 14.7)"/><path fill="#312108" d="M43 122h3v29h-3z"/><path fill="#775c3e" d="M143.8 166.4l-64.9-1.8 33.9-10.7-.2 4.5z"/><circle cx="14" cy="228" r="31" fill="#d7b18b"/><circle r="1" fill="#f6aa80" transform="matrix(-6.39652 18.0632 -26.22967 -9.28841 71.8 84.6)"/><ellipse cx="48" cy="164" fill="#b27848" rx="24" ry="2"/><path fill="#73777b" d="M113.8 167.1l.4 21-42 .8-.4-21z"/><path fill="#84847d" d="M157 171h46v36h-46z"/><path fill="#5d5741" d="M222 114h19v27h-19z"/><circle r="1" fill="#f6c694" transform="matrix(7.24944 12.90699 -7.2197 4.05508 97.7 210.8)"/><path fill="#efc398" d="M115.5 242l5.1-39.3 10.1.5 81.7 50.1z"/><circle r="1" fill="#d0ccce" transform="matrix(28.49893 3.83957 -3.38781 25.14579 54.9 3)"/><path fill="#d0825a" d="M47.4 130.9l13.4-46.8-3.4-15.5-5.9 29.6z"/><path fill="#6a6a65" d="M138 207l10-24 27 30z"/><path fill="#8a481f" d="M83.8 40.6l-9.9-13.5 7.8 32.6 5.9-12.6z"/><path fill="#2f3531" d="M52.3 123.9l-.9-8.8 35.8 5.7-1.9 20.1z"/><path fill="#ccc5c6" d="M121.8-16l114.7 28.1-135.1 76.4-19-35.1z"/><path fill="#000500" d="M6.2 126l1.4 4.9-3.8 1-1.4-4.8z"/><ellipse cx="63" cy="169" fill="#6b3f24" rx="2" ry="18"/><ellipse cx="215" cy="236" fill="#e9c4a0" rx="23" ry="17"/><path fill="#5f6466" d="M17 171.3l41.9 27.9-7.3-19.4-33.7 17.8z"/><path fill="#885130" d="M63.7 179.4l-.5-64.4 8 27.4-11.4 17.7z"/><path fill="#20220d" d="M117 161l-19-38 15-2z"/><path fill="#805d2f" d="M252 264.2l-5.3-14 11.2-4.4 5.4 14z"/><ellipse cx="11" cy="143" fill="#1c1c00" rx="7" ry="2"/><path fill="#af8a70" d="M65.5 108.2l18.8.9 8.4 9.6-43.5-5.3z"/><path fill="#61686c" d="M88 185l59 10-42 9z"/><path fill="#854e2e" d="M70.7 58.9L54.5 44.5l12.1 20.1 20.7-13.2z"/><circle cx="175" cy="73" r="4" fill="#fff"/><path fill="#bfbcb7" d="M157 119L91 66l174 40z"/><path fill="#1e1e0c" d="M206 143h50v9h-50z"/></g></g></svg>