<svg xmlns="http://www.w3.org/2000/svg" viewBox="0 0 2688 4032"><defs/><filter id="a"><feGaussianBlur stdDeviation="12"/></filter><rect width="100%" height="100%" fill="#3b4837"/><g filter="url(#a)"><g fill-opacity=".5" transform="translate(7.9 7.9) scale(15.75)"><circle r="1" fill="#bfd58f" transform="matrix(8.6087 94.80186 -148.01009 13.4404 97 209.2)"/><circle r="1" fill="#daf9c9" transform="matrix(5.18996 -46.26954 58.87326 6.6037 115 0)"/><circle r="1" fill="#fff" transform="matrix(-3.42152 -22.01076 8.27185 -1.28584 7.8 26.3)"/><circle r="1" fill="#828f64" transform="matrix(49.23783 28.70592 -14.22997 24.40796 29.6 79.3)"/><ellipse cx="111" cy="177" fill="#fffeff" rx="12" ry="17"/><path fill="#677b5b" d="M185 131L93 5l39 253z"/><circle r="1" fill="#fff" transform="matrix(-28.28521 11.6124 -5.14933 -12.54262 91.7 0)"/><circle r="1" fill="#92b17a" transform="matrix(-6.08446 23.66818 -22.86335 -5.87756 137.3 108.9)"/><ellipse cx="152" cy="28" fill="#758d64" rx="145" ry="15"/><path fill="#fff" d="M-16 12.4l32.3 12.5L-4.8-16-16-13.2z"/><ellipse cx="158" cy="174" fill="#5b644b" rx="35" ry="50"/><path fill="#ffc2d3" d="M107 220l9-22 2 38z"/><path fill="#def8a9" d="M137 120l-50-7 22 14z"/><circle r="1" fill="#64844b" transform="rotate(-42.2 117.1 -177.9) scale(53.18634 14.47713)"/><circle r="1" fill="#73a54f" transform="rotate(26.5 -368.1 146.2) scale(46.80524 60.2891)"/><circle r="1" fill="#977382" transform="matrix(3.65372 96.70274 -14.09332 .53249 92 215)"/><path fill="#99b16b" d="M27 102l18-28 45-12z"/><path fill="#2b4727" d="M21 140l-9-75 33 81z"/><path fill="#e6e5ff" d="M103 163h17v29h-17z"/><path fill="#a6847f" d="M4.7 89.6L15 139.5l9.3 15.9-12.4-67.3z"/><ellipse cy="104" fill="#000400" rx="6" ry="31"/><path fill="#282b21" d="M118 109h29v10h-29z"/><path fill="#fefffe" d="M65 7l9 16 38-33z"/><path fill="#94ad95" d="M79.6 54.6l-15.7-35L155.5-16 124.4 9.8z"/><path fill="#001012" d="M82 85h25v26H82z"/><path fill="#3b4941" d="M35 38h75v37H35z"/><path fill="#1d3226" d="M136 58L99 97l64-32z"/><path fill="#7f8772" d="M16 13l24 89L9 61z"/><ellipse cx="152" cy="115" fill="#dcbdca" rx="6" ry="9"/><path fill="#fff" d="M3 35h9v6H3z"/><path fill="#8d916f" d="M32 138l2-42 13 52z"/><path fill="#29353e" d="M-16 9.2l83.5-7.7 9.9 6.4L65.3-16z"/><path fill="#736f5b" d="M55 192h58v30H55z"/><path fill="#dfb8c9" d="M80 197l10-18-7-11z"/><path fill="#c1b17f" d="M136.4 105.3l-55 16.4-5.7 38.8L92.5 128z"/><path fill="#111826" d="M35.8-8.4l11 15.6-24.6 17.2-11-15.6z"/><circle r="1" fill="#3f5724" transform="matrix(.71216 -3.16313 20.45915 4.60626 0 25.5)"/><path fill="#fff" d="M3 32h11v8H3z"/><path fill="#39b3fc" d="M103 193l15 4 2-6z"/><path fill="#a8e493" d="M135 88l18 9-34-4z"/><path fill="#3c4831" d="M159 101l23 85-25-31z"/><ellipse cy="16" fill="#fff" rx="15" ry="5"/><circle r="1" fill="#303331" transform="rotate(6 -447.4 538) scale(14.32794 21.96225)"/><circle r="1" fill="#95b068" transform="matrix(11.3316 -7.30272 19.40539 30.11126 148.8 255)"/><path fill="#692929" d="M114 163l5 4-2-18z"/><circle cx="54" cy="80" r="6" fill="#d0ef67"/><path fill="#88b55f" d="M74.5 100.9l18.1 20.2-92 118.6 83.1-132.5z"/><circle r="1" fill="#a6d483" transform="matrix(3.53527 6.14993 -18.03509 10.36742 0 148.4)"/><path fill="#344e66" d="M145.5-14.5l5.6 4.2-18.6 24.8-5.6-4.2z"/><circle r="1" fill="#7e5f70" transform="matrix(5.42266 -4.89837 33.0965 36.63897 151.2 165.3)"/><path fill="#312333" d="M3.2 54.5L-2.2 24l3-.5L6.2 54z"/><path fill="#94bc85" d="M81.7 90.6l-10.6-6.2 1.4-19-.6 34.3z"/><ellipse cx="27" cy="50" fill="#3a3a38" rx="13" ry="8"/><path fill="#7e9e7d" d="M89.6 67.3l-.3 5-29-1.6.4-5z"/><path fill="#1a3619" d="M62 93l14 8-5 16z"/><circle cx="112" cy="209" r="6" fill="#ffaa91"/><circle r="1" fill="#83a558" transform="matrix(9.25032 20.89215 -34.89309 15.44945 28.7 231.7)"/><path fill="#a9d6a3" d="M151 90l3-8 4 8z"/><path fill="#ff0067" d="M93.5 130.5h-5v-9h5z"/><path fill="#a9c7c2" d="M103.7 23.5l16.1-34 11.7 33.2L104 1.2z"/><path fill="#283d21" d="M151 96l34-54-21 75z"/><path fill="#c5a59b" d="M-2 43.7L13 108l-1 .3L-3 44z"/><path fill="#b4c281" d="M71 54h10v4H71z"/><path fill="#537c38" d="M19.1 210.7l5.9-22.1-3.2.9-37.8 26.4z"/><ellipse cx="95" fill="#fff" rx="10" ry="6"/><path fill="#bfd5ba" d="M26 23l5 8-3 3z"/><path fill="#e9e9ff" d="M120 166h4v7h-4z"/><path fill="#26491f" d="M51 119l-7-33-4 38z"/><path fill="#6c8554" d="M185 198l-66-27-1 76z"/><path fill="#374c39" d="M68.3 9.4L40.8 29.8 9.8-5.1l-21.1 8.9z"/><path fill="#fff" d="M166 125l19-23-8 24z"/><circle r="1" fill="#5b8346" transform="matrix(-3.98704 8.39861 -20.0752 -9.53024 149.8 138.8)"/><path fill="#acc68f" d="M98 118h61v8H98z"/><path fill="#6f8c5b" d="M103 73.1l40.8-32.3-48.5 6.5L136 53z"/><ellipse cx="93" cy="249" fill="#8e857a" rx="31" ry="26"/><path fill="#e1d9e1" d="M105.6 224.9l9.3-7.7.7-8.5 1.2 21.3z"/><path fill="#6e8563" d="M42.7 21l48.4 33.2 1.6-14.8-41.4-20.6z"/><path fill="#18271a" d="M3 86l-17 48 29 1z"/><path fill="#405847" d="M91 92l12-32 18 41z"/><ellipse cx="155" cy="13" fill="#4b644d" rx="23" ry="3"/><circle r="1" fill="#fff" transform="matrix(1.68638 2.13202 -5.97384 4.72518 4.1 11.1)"/><path fill="#314928" d="M4 72l22 12 8 31z"/><path fill="#d3e2ff" d="M117.2 172.5l-7.8-10.1-7.9 35.4 19.6-11.8z"/><path fill="#5c7048" d="M70 174h10v38H70z"/><path fill="#b4b7b7" d="M11.6 23.3l10.3-6.1-3.3 10.6-6.3-3.1z"/><path fill="#fff" d="M87 4L61 6l17 10z"/><path fill="#97a38b" d="M17 59l-4 11 25-10z"/><path fill="#2c2c29" d="M123.4 115l.2-5 25 1-.2 5z"/><path fill="#73665c" d="M90.3 181.5l37.7 38-5.4-22.5-43.2 12.4z"/><path fill="#567f43" d="M63.5 140.9l-75.8 24.7 48.1-10.4 1.4-20.4z"/><path fill="#647952" d="M110.1 125.1l42.3 50.9-14.2 6.3-52.4-50.6z"/><path fill="#ef967c" d="M80 184h6v18h-6z"/><path fill="#bba08e" d="M19.2 141.7L6.3 85.8l9.7 64.6 3.2 3.8z"/><path fill="#b8cd74" d="M137 31l-14-2 7-14z"/><path fill="#80ad5e" d="M55.2 191.9l-70.5-2.2 45-26.1 56.2-53.1z"/><path fill="#8c7b70" d="M33.6 115.5L46.2 146 33.9 89.3 18.5 17.6z"/><path fill="#93b96e" d="M142 81l-16 27-4-16z"/><path fill="#232332" d="M6.5 17.8l10.7-11L24 39.3 28.4-16z"/><path fill="#849b76" d="M97.8 6.2l16.3 25.2-15.9 10.4-16.3-25.2z"/><path fill="#77a15a" d="M164.4 106.1l-5.9 1.4-2.9-11.6 5.9-1.4z"/></g></g></svg>