<svg xmlns="http://www.w3.org/2000/svg" viewBox="0 0 1800 1200"><defs/><filter id="a"><feGaussianBlur stdDeviation="12"/></filter><rect width="100%" height="100%" fill="#3c4648"/><g filter="url(#a)"><g fill-opacity=".5" transform="translate(3.5 3.5) scale(7.03125)"><ellipse cx="80" cy="44" fill="#bddeff" rx="253" ry="70"/><circle r="1" fill="#31578c" transform="matrix(-12.71696 -68.74362 138.37508 -25.59816 127.7 133.2)"/><circle r="1" fill="#857e68" transform="matrix(.63796 -26.82197 178.16708 4.2377 102 86.1)"/><circle r="1" fill="#8bb5e1" transform="matrix(-222.21454 -4.52136 .67681 -33.26368 149.3 25.5)"/><circle r="1" fill="#cfc5b7" transform="matrix(.0325 -9.86614 112.77548 .3714 38.3 101.5)"/><ellipse cx="30" cy="70" fill="#415865" rx="184" ry="13"/><ellipse cx="140" cy="147" fill="#0d4288" rx="255" ry="35"/><path fill="#d1c8bb" d="M194.2 77.2l29.2 11.4h-9.9l-28.6 26.1z"/><circle r="1" fill="#183459" transform="matrix(21.72655 17.59382 -10.9302 13.49767 236.5 112.2)"/><path fill="#dccfbb" d="M116.2 83.6l-6.5 16.8-15.9-6 6.5-16.8z"/><path fill="#313a37" d="M58 66h28v24H58z"/><path fill="#a7adac" d="M194.4 78.3l-23.8 11.1 5.6-46.3-11.3 30.2z"/><path fill="#3e4330" d="M-8.4 87.7l7.5-28 17.3 4.6-7.5 28z"/><circle r="1" fill="#8da9c8" transform="rotate(149.7 47 32.5) scale(43.35086 24.57501)"/><path fill="#b5b1a6" d="M60.3 68.5L21.7 111l-37.7 4.8v-14.4z"/><path fill="#354e56" d="M199 77l58-1 12 21z"/><path fill="#8fb6db" d="M257 77l-69-18 83-3z"/><path fill="#53594b" d="M124 77l11 33 10-27z"/><path fill="#aba7a1" d="M155 108l50 4-1-19z"/><path fill="#4e6d97" d="M21 53h53v14H21z"/><path fill="#a29e9c" d="M156.5 95.5l-2.7 13.7-34.3-6.7 2.7-13.7z"/><circle r="1" fill="#7194b7" transform="matrix(-14.85378 19.91846 -95.35911 -71.11206 238.3 9)"/><circle r="1" fill="#74787a" transform="matrix(2.98375 16.67259 -6.24081 1.11686 115.6 96.3)"/><ellipse cx="85" cy="101" fill="#c1c0b9" rx="26" ry="6"/><path fill="#1c416f" d="M149 97l-8 43 38 17z"/><path fill="#656e6f" d="M52 67h8v41h-8z"/><path fill="#071c3d" d="M183.5 78.3l1.8.9-6.8 14.5-1.8-.9z"/><path fill="#1c2d4e" d="M101.8 114.6l-4-.2.4-11 4 .2z"/><circle r="1" fill="#4e657a" transform="matrix(-8.0416 5.73198 -13.10625 -18.38721 143.2 75.5)"/><path fill="#dedbd0" d="M17 82L7 97l6 8z"/><path fill="#63664e" d="M8.4 60.9L38.1 71 24.7 90.9l-39.4-46.1z"/><path fill="#131f30" d="M244.3 113l-11 1-1.6-19 11-1z"/><path fill="#4d5d5b" d="M183.5 56.3l49.1 22.8-14 .8-40.1-3.7z"/><path fill="#dfd6cd" d="M252 97h3v9h-3z"/><path fill="#abada8" d="M177.2 72.7l-2.2 35-1.8-22.5-4.6-23.9z"/><path fill="#90adcb" d="M84 15L32 54l-44-1z"/><path fill="#525838" d="M157 88l-53-14 32 19z"/><path fill="#294e81" d="M88.3 114.8l-101.1-3.7 44.4 45.2 14.5-1.9z"/><path fill="#394e6c" d="M163.6 100.6l2.4 7.2 2.6-35.3-17.4 57.5z"/><path fill="#ddd4c5" d="M227.8 94.6l-.6-7 3-.2.6 7z"/><path fill="#93aeca" d="M44 33l55 29 67-14z"/><path fill="#3b474b" d="M82 92L57 69l37 14z"/><circle r="1" fill="#3c4554" transform="rotate(-81.4 72.3 40.3) scale(2.28159 3.44993)"/><path fill="#aeaba3" d="M88 97l48-3-33-17z"/><path fill="#9ea1a2" d="M166.1 76.1l6.4-14.2-11.1 31.3-6.8-20z"/><ellipse cx="31" cy="111" fill="#76726e" rx="119" ry="2"/><path fill="#193e6b" d="M213.4 135.4l.4-36.9-16.3 19.1-43.9 38.5z"/><path fill="#9ea9b3" d="M52.1 98.7l24.3 3 4.9 14-18.6-3.2z"/><path fill="#c3b7a4" d="M140 92h8v19h-8z"/><path fill="#616863" d="M88.4 60.3l-39 31.4-17.6 11.2 25.9-31.2z"/><path fill="#34598d" d="M158 185l61-35-67 8z"/><path fill="#e5e3d9" d="M1 87l3 11-15 15z"/><ellipse cx="12" cy="160" fill="#00274f" rx="49" ry="2"/><path fill="#002246" d="M209 159h32v3h-32z"/><path fill="#414b63" d="M133 96l6 1-4 14z"/><ellipse cx="133" cy="67" fill="#506881" rx="24" ry="11"/><path fill="#595d44" d="M197.9 68.7l-37.2 4.1 52.7 7.3-19.8-13.8z"/><path fill="#c3c3bb" d="M46 109l3-9-35-2z"/><path fill="#eaf5f3" d="M170 59h2v14h-2z"/><path fill="#274d80" d="M99 153.3L77.8 185l76-30.1-39.6-48.6z"/><path fill="#546881" d="M235 101l-30-10 13 19z"/><path fill="#536a80" d="M162.1 75.1l-3.6 12.2-92.7-23.6 106.8-5.1z"/><path fill="#4f687e" d="M261 98l10-18-73-16z"/><path fill="#445168" d="M190 85l-14 9 7 7z"/><path fill="#d9cfc2" d="M177 101l6 1-4-6z"/><ellipse cx="155" cy="100" fill="#b7b6b2" rx="2" ry="9"/><circle r="1" fill="#163c6b" transform="matrix(-15.16272 -1.86175 8.44667 -68.7926 255 162)"/><path fill="#c2bdb2" d="M202 109l1-26-9-6z"/><path fill="#d5cabb" d="M94.1 103.9l-2.5-1.7 16.3-24 2.5 1.6z"/><path fill="#384862" d="M144 108h17v7h-17z"/><circle r="1" fill="#999a96" transform="matrix(1.62397 -.5348 4.3926 13.33875 187 88.1)"/><path fill="#7e8284" d="M109.2 80.8l-2.1 4.6 5.2 20.4L124 94.9z"/><path fill="#3a516f" d="M62.9 87.7l1 .3L49 126.3l-1-.3z"/><path fill="#a5a5a1" d="M166 96l8-26 3 17z"/><path fill="#c3beb5" d="M163.9 91.7l-4.6 2-3.2-7.4 4.6-2z"/><path fill="#b7b5ac" d="M19.9 77L.5 104.2l3.4 9.6L17 100.2z"/><path fill="#b1b1ae" d="M194.2 100.5l.4 3-32.8 4-.4-3z"/><path fill="#9a9990" d="M29.8 78.5L54 73.6l1.7 2.8L25 86.1z"/><path fill="#002b56" d="M167 145h51v3h-51z"/><path fill="#8ca8c5" d="M-6.3 49.4l176 9.2 54.5 3.7-50-41.6z"/><path fill="#555c4b" d="M166.7 97.4l-75-27.5-25.9-4.1 18.5 7z"/><path fill="#315489" d="M19 161h35v9H19z"/><circle r="1" fill="#547295" transform="matrix(-1.58279 -7.51458 20.78506 -4.37793 50.3 63.1)"/><path fill="#b1b6b7" d="M243 92l9 8 8-1z"/><ellipse cy="82" fill="#444e4f" rx="14" ry="7"/><path fill="#1b355d" d="M149.3 101.2l6.5-16.8.9.4-6.5 16.8z"/><path fill="#768697" d="M62 51h13v14H62z"/><path fill="#355072" d="M82.1 109.2L78 97.7l2.5 16.2-12.9 47.4z"/><path fill="#545e6c" d="M49.6 112.4l30.7-3.8.1 1-30.7 3.8z"/><path fill="#c8c1b6" d="M94 86l-6 28 9-11z"/><path fill="#6a6f6b" d="M80.4 84l30.6-7.4-24.7.4 1.9 31.9z"/><ellipse cx="119" cy="97" fill="#535f71" rx="2" ry="12"/><ellipse cx="186" cy="111" fill="#676868" rx="18" ry="2"/><ellipse cx="137" cy="73" fill="#afaeaa" rx="4" ry="2"/><path fill="#d2bea8" d="M128 103l2 9 2-5z"/><circle r="1" fill="#7799bf" transform="matrix(-83.24898 19.2751 -3.83346 -16.55666 0 2.9)"/><path fill="#29313d" d="M204 108h52v5h-52z"/><path fill="#364760" d="M244 107.2l-12.7-17.4 17.7 7.1 6.4 17.1z"/><path fill="#535d44" d="M35.3 71.1L8.4 59l-5.5.6L28.4 80z"/><path fill="#254c7d" d="M184 112l42 12 24-12z"/></g></g></svg>