<svg xmlns="http://www.w3.org/2000/svg" viewBox="0 0 1800 1200"><defs/><filter id="prefix__a"><feGaussianBlur stdDeviation="12"/></filter><rect width="100%" height="100%" fill="#533134"/><g filter="url(#prefix__a)"><g transform="translate(3.5 3.5) scale(7.03125)"><circle r="1" fill="#ff892c" fill-opacity=".5" transform="matrix(126.72837 -.51938 .06612 16.13448 177.5 98.2)"/><ellipse cx="135" cy="143" fill="#000217" fill-opacity=".5" rx="255" ry="31"/><circle r="1" fill="#0c1b2f" fill-opacity=".5" transform="rotate(-11.2 174.6 -375) scale(246.99326 44.37617)"/><path fill="#ffb944" fill-opacity=".5" d="M137 90l108 5-76 20z"/><ellipse cx="88" cy="143" fill="#001926" fill-opacity=".5" rx="255" ry="30"/><circle r="1" fill="#88412e" fill-opacity=".5" transform="matrix(-2.77785 -13.9018 110.4341 -22.06691 117.4 87.3)"/><path fill="#ffffcf" fill-opacity=".5" d="M164 100h15v12h-15z"/><path fill="#492f31" fill-opacity=".5" d="M120 92l-136-3 235-79z"/><circle r="1" fill="#7e4132" fill-opacity=".5" transform="matrix(78.6756 10.64592 -.90313 6.67432 217.3 82.6)"/><ellipse cx="33" cy="102" fill="#9a4830" fill-opacity=".5" rx="108" ry="11"/><circle r="1" fill="#2a2735" fill-opacity=".5" transform="rotate(131.7 107.6 61.5) scale(30.30439 45.024)"/><path fill="#e77c26" fill-opacity=".5" d="M148.5 103.9l-34.4-2.9 47.8-16.1 48.8 6.7z"/><path fill="#dc5d1c" fill-opacity=".5" d="M255.8 113.7l-48.1-12.2-49.2 4.2 43.3 7z"/><path fill="#fffc9e" fill-opacity=".5" d="M171.7 97.6l-3.3 2.3 25 3.6-45.9.5z"/><circle r="1" fill="#1c2030" fill-opacity=".5" transform="matrix(-17.53387 -38.72608 173.05071 -78.35157 44.9 0)"/><path fill="#db541f" fill-opacity=".5" d="M72 108h91v5H72z"/><path fill="#0e1926" fill-opacity=".5" d="M200 113h56v57h-56z"/><path fill="#712318" fill-opacity=".5" d="M185 112h-32l17 12z"/><ellipse cx="146" cy="106" fill="#712016" fill-opacity=".5" rx="24" ry="2"/><ellipse cx="249" cy="105" fill="#873226" fill-opacity=".5" rx="46" ry="4"/><ellipse cx="229" cy="98" fill="#fd972d" fill-opacity=".5" rx="75" ry="3"/><circle r="1" fill="#974b2e" fill-opacity=".5" transform="matrix(.14242 -5.9084 54.02628 1.30226 168.6 82.9)"/><circle r="1" fill="#4d2f30" fill-opacity=".5" transform="rotate(99.4 75.5 109.4) scale(16.08839 69.74931)"/><ellipse cx="193" cy="110" fill="#ff9121" fill-opacity=".5" rx="19" ry="3"/><circle r="1" fill="#0b1927" fill-opacity=".5" transform="matrix(76.71314 -1.19958 .3971 25.39473 16 137.9)"/><circle r="1" fill="#643934" fill-opacity=".5" transform="rotate(-163.5 105.9 20.1) scale(69.13499 11.8977)"/><circle r="1" fill="#392c33" fill-opacity=".5" transform="matrix(40.3448 7.47747 -3.03217 16.36012 56.5 75.7)"/><path fill="#923a28" fill-opacity=".5" d="M74 104h51v10H74z"/><circle r="1" fill="#c8662d" fill-opacity=".5" transform="matrix(-68.30026 -6.05917 .3675 -4.14262 214.4 94.4)"/><ellipse cx="171" cy="101" fill="#ffffef" fill-opacity=".5" rx="10" ry="2"/><path fill="#ffbc32" fill-opacity=".5" d="M156.9 105.1l-15.2-4 56.7-.2-44.6-3.6z"/><path fill="#714439" fill-opacity=".5" d="M86 86l-102 4 36 22z"/><path fill="#fffff4" fill-opacity=".5" d="M174 110l1-6-10 7z"/><circle r="1" fill="#c95525" fill-opacity=".5" transform="matrix(-.17903 3.10493 -51.3804 -2.96258 236.3 109)"/><path fill="#fa7e24" fill-opacity=".5" d="M125.2 108.2l41.8 3.6-.2 2-41.8-3.6z"/><path fill="#cd602c" fill-opacity=".5" d="M117 99l-29-5 3 10z"/><path fill="#442d32" fill-opacity=".5" d="M273.8 106.8l-37.9-2.6.3-3 37.9 2.6z"/><circle r="1" fill="#392832" fill-opacity=".5" transform="matrix(-1.04504 14.579 -131.7667 -9.44515 238.4 36.7)"/><path fill="#a84c29" fill-opacity=".5" d="M159 94l-37 5-6-13z"/><path fill="#ffaf34" fill-opacity=".5" d="M138 99h17v4h-17z"/><path fill="#502727" fill-opacity=".5" d="M113.7 107.1l-.2-1 22.8-3.2.2 1z"/><path fill="#291a22" fill-opacity=".5" d="M169 136l-20-17 59-4z"/><ellipse cx="31" cy="76" fill="#332932" fill-opacity=".5" rx="46" ry="8"/><path fill="#ec7f13" fill-opacity=".5" d="M157 104h24v3h-24z"/><path fill="#653832" fill-opacity=".5" d="M131.8 61.2l47.2 3.3-37.2 14.2L81 94.6z"/><path fill="#4e3032" fill-opacity=".5" d="M115 46h107v17H115z"/><path fill="#ee7120" fill-opacity=".5" d="M172 111h41v2h-41z"/><path fill="#834432" fill-opacity=".5" d="M191.7 69.2l50.4 16.3 3.5 13.4-91.3-32.2z"/><path fill="#8f4531" fill-opacity=".5" d="M40 94h38v19H40z"/><path fill="#151b28" fill-opacity=".5" d="M291.7 114.9l-.5 28-99-1.8.6-28z"/><path fill="none" stroke="#af4d22" stroke-opacity=".5" stroke-width=".5" d="M229.2 112.7q-80.5.8-104.8.6"/><path fill="#ffb536" fill-opacity=".5" d="M178 96h22v6h-22z"/><ellipse cx="5" cy="93" fill="#8b523b" fill-opacity=".5" rx="25" ry="3"/><path fill="#dc7530" fill-opacity=".5" d="M243 94l-27 6 21 2z"/><path fill="#fff" fill-opacity=".5" d="M169.2 103.4l-.2-1 9.8-1.8.2 1z"/><path fill="#cd5227" fill-opacity=".5" d="M118 108h19v5h-19z"/><path fill="#86422f" fill-opacity=".5" d="M107.6 89.6l14.8 29.1-10-19.3 50-25.1z"/><circle r="1" fill="#fffca5" fill-opacity=".5" transform="matrix(.68535 2.11871 -3.6493 1.18046 177.8 102.6)"/><path fill="#ffa030" fill-opacity=".5" d="M179 107h19v4h-19z"/><ellipse cx="217" fill="#252635" fill-opacity=".5" rx="95" ry="15"/><circle cx="171" cy="109" r="2" fill="#fff" fill-opacity=".5"/><circle r="1" fill="#2c2330" fill-opacity=".5" transform="matrix(-78.57223 28.66935 -6.09502 -16.70421 80 32.2)"/><ellipse cx="166" cy="81" fill="#9f502f" fill-opacity=".5" rx="20" ry="3"/><circle r="1" fill="#39272f" fill-opacity=".5" transform="matrix(2.634 8.46922 -57.41102 17.8553 116.2 41.9)"/><path fill="#fa8825" fill-opacity=".5" d="M142.6 108.1l22.9 2.8-.1 1-22.9-2.8z"/><circle r="1" fill="#be5e2b" fill-opacity=".5" transform="rotate(171.6 69.4 50.3) scale(14.01575 3.06666)"/><circle r="1" fill="#e3752b" fill-opacity=".5" transform="rotate(173.8 62.4 53.8) scale(15.13074 1)"/><ellipse cx="15" cy="131" fill="#0f1926" fill-opacity=".5" rx="118" ry="18"/><circle r="1" fill="#9e452a" fill-opacity=".5" transform="matrix(-.36391 -4.0715 28.54433 -2.5513 90.7 106.5)"/><path fill="#1e1a25" fill-opacity=".5" d="M137 114h25v18h-25z"/><ellipse cx="166" cy="92" fill="#db7e2a" fill-opacity=".5" rx="21" ry="3"/><path fill="#7a2b1b" fill-opacity=".5" d="M166 114h12v4h-12z"/><circle cx="132" cy="104" r="3" fill="#41272d" fill-opacity=".5"/><circle r="1" fill="#4a2e31" fill-opacity=".5" transform="matrix(45.84503 -24.42927 5.13634 9.63908 111.7 65.2)"/><circle cx="175" cy="108" r="1" fill="#fff" fill-opacity=".5"/><path fill="#08111b" fill-opacity=".5" d="M215.2 166l16.9-1.8-44.4-5.4 7.4 26.2z"/><circle r="1" fill="#1f2434" fill-opacity=".5" transform="matrix(64.1497 -40.08518 13.24658 21.19896 22 0)"/><ellipse cx="114" cy="105" fill="#61322b" fill-opacity=".5" rx="6" ry="2"/><path fill="#623734" fill-opacity=".5" d="M0 111h50v2H0z"/><circle r="1" fill="#101a27" fill-opacity=".5" transform="matrix(74.90894 27.85838 -18.02163 48.4587 76 168.6)"/><path fill="#b85f34" fill-opacity=".5" d="M93 92h12v3H93z"/><ellipse cx="169" cy="109" fill="#fff" fill-opacity=".5" rx="3" ry="1"/><ellipse cx="204" cy="103" fill="#cc5e22" fill-opacity=".5" rx="15" ry="3"/><path fill="#794030" fill-opacity=".5" d="M101 94h25v3h-25z"/><ellipse cx="255" cy="31" fill="#312b39" fill-opacity=".5" rx="27" ry="12"/><path fill="#673a34" fill-opacity=".5" d="M191.6 63L271 86.9l-28.8 1.4-93-30z"/><circle r="1" fill="#c46730" fill-opacity=".5" transform="matrix(.23335 -2.56411 49.62105 4.51587 216.2 93.5)"/><path fill="#5f3633" fill-opacity=".5" d="M95 92l-20-9 49-8z"/><ellipse cx="139" cy="103" fill="#ff9323" fill-opacity=".5" rx="2" ry="1"/><circle r="1" fill="#803c2a" fill-opacity=".5" transform="matrix(-12.88334 .1824 -.01416 -.9999 225.2 104.4)"/><path fill="#f18f2e" fill-opacity=".5" d="M190 95h29v7h-29z"/><path fill="#fe7a13" fill-opacity=".5" d="M159 107h10v1h-10z"/><path fill="#593836" fill-opacity=".5" d="M28 86h32v8H28z"/><path fill="#cc682a" fill-opacity=".5" d="M149.3 98.9l-31.4 7.2 15.3-7.8-14.1 4.7z"/><path fill="#081018" fill-opacity=".5" d="M129 162l28-1-40-11z"/><path fill="#dc6928" fill-opacity=".5" d="M199 107h24v5h-24z"/><circle r="1" fill="#452a2e" fill-opacity=".5" transform="matrix(-49.20408 -12.45055 1.55527 -6.14636 237.4 56)"/><path fill="#a84f2e" fill-opacity=".5" d="M81 94h16v14H81z"/><path fill="#af4429" fill-opacity=".5" d="M231 107h25v6h-25z"/><ellipse cx="68" cy="113" fill="#462828" fill-opacity=".5" rx="45" ry="1"/></g></g></svg>