<svg xmlns="http://www.w3.org/2000/svg" viewBox="0 0 1800 1200"><defs/><filter id="a"><feGaussianBlur stdDeviation="12"/></filter><rect width="100%" height="100%" fill="#4f4b3f"/><g filter="url(#a)"><g fill-opacity=".5" transform="translate(3.5 3.5) scale(7.03125)"><circle r="1" fill="#eae0d0" transform="matrix(251.48994 34.44984 -17.7517 129.5905 74.4 60)"/><circle r="1" fill="#1b2421" transform="matrix(-13.70624 -63.93391 53.5996 -11.49076 160.3 40)"/><circle r="1" fill="#e8e0cf" transform="matrix(-42.89781 74.08344 -49.2633 -28.52578 41.9 43.1)"/><circle r="1" fill="#dcd5c6" transform="matrix(-3.63264 -45.14943 31.97036 -2.57227 238.3 42.5)"/><path fill="#393850" d="M58.5 171.5v-105h15v105z"/><circle r="1" fill="#3b423a" transform="matrix(-2.73755 -58.04954 24.2983 -1.14588 185.1 50.2)"/><ellipse cx="159" cy="125" fill="#d1b791" rx="168" ry="21"/><circle r="1" fill="#192f5c" transform="rotate(21.6 -328.6 233) scale(6.70417 24.33289)"/><path fill="#585651" d="M106 54h110v49H106z"/><ellipse cx="157" cy="45" fill="#aca494" rx="6" ry="114"/><path fill="#a59c9d" d="M138.1 30.9l-31.8 7.5 58.6 92.7-25.8-46.9z"/><ellipse cx="146" cy="57" fill="#0b1911" rx="7" ry="38"/><path fill="#ceceea" d="M183.7 77.6l12.3 8.6-5.7 8.2-12.3-8.6z"/><path fill="#cdc9be" d="M75 0h27v113H75z"/><ellipse cx="36" cy="89" fill="#a48654" rx="59" ry="4"/><path fill="#2b3525" d="M164 17h37v60h-37z"/><circle r="1" fill="#4b5068" transform="matrix(5.31955 -1.59075 11.8114 39.498 66.7 127.8)"/><circle r="1" fill="#cdccc2" transform="rotate(164.8 12.4 15.7) scale(53.00417 53.18101)"/><path fill="#010100" d="M156 14h2v89h-2z"/><path fill="#a9bacb" d="M131 101h46v10h-46z"/><path fill="#040100" d="M107 0h2v92h-2z"/><ellipse cx="209" cy="40" fill="#afada6" rx="3" ry="96"/><path fill="#191720" d="M170 84v23l26-1z"/><path fill="#c5a77a" d="M215 85h41v69h-41z"/><path fill="#837c7f" d="M0 143h68v27H0z"/><path fill="#c4af8c" d="M-16 106l17.7 33.2 80-55.8-53.3-3.1z"/><path fill="#9d988c" d="M96.6 19.4l72.5-1.3L271 4.1 168.9 12z"/><circle r="1" fill="#373c2e" transform="matrix(7.31185 21.35616 -14.83112 5.07783 136 12.2)"/><path fill="#633a11" d="M59.3 80.6l9-14.5 8.4 5.3-9 14.5z"/><ellipse cx="111" cy="27" fill="#baac94" rx="2" ry="114"/><path d="M212.5 102V20h1v82z"/><path fill="#5b5950" d="M144 105l-30-70-8 61z"/><ellipse cx="205" cy="12" rx="1" ry="91"/><path fill="#a3a3b2" d="M132.4 34.5L140 39l-16.5 28.5L116 63z"/><path fill="#c4d8f1" d="M215 0h2v111h-2z"/><ellipse cx="179" cy="166" fill="#888791" rx="172" ry="15"/><circle r="1" fill="#c6b498" transform="matrix(-5.5962 20.74047 -38.25042 -10.32076 108 121.9)"/><path fill="#c4d7f5" d="M194 104h22v8h-22z"/><ellipse cx="114" cy="53" fill="#020000" rx="1" ry="48"/><path fill="#3a443a" d="M140.8 8.2l73.8-1.7-1-17.4-51.4 21.3z"/><path fill="#1d335c" d="M72.5 127.9l-27.1 31.9 20.7-37.7 7.8 62.9z"/><path fill="#886837" d="M8 87h50v3H8z"/><path fill="#634b27" d="M196 88h60v4h-60z"/><ellipse cx="162" cy="24" fill="#beb5a7" rx="2" ry="98"/><path fill="#9ca1b3" d="M204.4 112.9l-10.8-12.5-.1-17.8-18.4.5z"/><path fill="#becdde" d="M97 100h23v9H97z"/><path fill="#eee0c9" d="M216 83h40v4h-40z"/><path fill="#4b4037" d="M119 46h4v63h-4z"/><circle r="1" fill="#bca57f" transform="rotate(-176.3 101 63.6) scale(66.18205 19.82241)"/><path fill="#423627" d="M164 68h37v14h-37z"/><path fill="#968e85" d="M123.9 94.7l-6.7-82.1-2 59.9L131.8 49z"/><path fill="#a6b2c0" d="M94 0h13v49H94z"/><path fill="#d7e2f3" d="M92 106.2l.1-1 65.9 4.6-.1 1z"/><path fill="#9f9583" d="M120.4 23.2l-.5-11.6-4.4 23.6L117-16z"/><path fill="#c1c1bb" d="M153 0h3v47h-3z"/><path fill="#3d301f" d="M84.3 158.5l.3 4-15 1-.2-4z"/><ellipse cx="203" cy="42" fill="#a1a497" rx="1" ry="45"/><ellipse cx="157" cy="5" fill="#101413" rx="1" ry="92"/><path fill="#b7b1a9" d="M131 15h18v4h-18z"/><path fill="#0f1416" d="M214 48l-8-5h9z"/><path fill="#363c38" d="M212.5 21.3l.8 5-15.8 2.4-.8-5z"/><path fill="#c6b59c" d="M-16 130.4l73-19.3 4.3 14-7 16.8z"/><path fill="#bbb6bf" d="M169 84h18v4h-18z"/><ellipse cx="140" cy="97" fill="#707b7b" rx="8" ry="11"/><path fill="#c88e73" d="M189 74l-8 5 1-7z"/><path fill="#9ea0a2" d="M60 163h95v7H60z"/><path fill="#2d3632" d="M205.2 108.2l-1.1-12.5-28.4-50.9 32.2 41.8z"/><path fill="#bfaa8c" d="M65 137l-8 11 9 2z"/><path fill="#3e3125" d="M161 26l-43 9 3-16z"/><path fill="#6d605c" d="M243.7 161.5l8.9-2.7 12.9 26.2h-28.1z"/><path fill="#b39e87" d="M180 103h4v16h-4z"/><ellipse cx="172" cy="1" fill="#000002" rx="1" ry="84"/><path fill="#c8c9c9" d="M152 94.6l-4.3 14.6 86.5 2.1-69.2-.5z"/><ellipse cx="120" cy="80" fill="#000501" rx="2" ry="11"/><path fill="#1e2129" d="M53 148l3 6 5-19z"/><ellipse cx="142" cy="9" fill="#0c0c0c" rx="1" ry="93"/><circle r="1" fill="#c7c2ba" transform="rotate(29.7 -121.1 125.4) scale(28.10824 5.09264)"/><path fill="#ceccc1" d="M75 54h22v32H75z"/><path fill="#1d1917" d="M164 14h2v85h-2z"/><path fill="#1e2d37" d="M213 40h2v57h-2z"/><path fill="#000916" d="M185 87l-15 4 5 8z"/><path fill="#c2ab87" d="M74 90l21 1-19 63z"/><path fill="#7d7065" d="M179 169l35-14-1 13z"/><path fill="#454c4f" d="M212 25l-1-.1L214-3l1 .1z"/><path fill="#001929" d="M123 100h6v4h-6z"/><ellipse cx="247" cy="81" fill="#a67523" rx="29" ry="1"/><path fill="#9196a1" d="M60.7 104l2 8.2 7.1 6 12.7-4.2z"/><circle cx="244" cy="9" r="31" fill="#c6bfb0"/><path fill="#80553f" d="M135 44h6v28h-6z"/><path fill="#c0c6cd" d="M135 107l-2-11-9 13z"/><path fill="#192418" d="M129 69h3v15h-3z"/><path fill="#0a0d0f" d="M189.3-20.5h1l-1.6 89h-1z"/><ellipse cx="197" cy="31" fill="#1c2221" rx="2" ry="60"/><path fill="#e7ddc7" d="M-2.5 83l57-1v3l-57 1z"/><path fill="#333028" d="M106 44h3v58h-3z"/><path fill="#9ca8bd" d="M116.6 47.4l6.7-10.8 16.5 6.9-.2-5.3z"/><path fill="#9b9489" d="M160 108l23-1-16-8z"/><circle r="1" fill="#b4a892" transform="matrix(-71.3179 6.62973 -.1739 -1.87062 33 54.8)"/><path fill="#c4af8c" d="M226 134l36-32-47-16z"/><path fill="#0f1213" d="M180 0h2v52h-2z"/></g></g></svg>