<svg xmlns="http://www.w3.org/2000/svg" viewBox="0 0 3168 4752"><defs/><filter id="a"><feGaussianBlur stdDeviation="12"/></filter><rect width="100%" height="100%" fill="#4c3d36"/><g filter="url(#a)"><g fill-opacity=".5" transform="translate(9.3 9.3) scale(18.5625)"><circle r="1" fill="#85958c" transform="matrix(-87.90322 144.33996 -99.8605 -60.81517 29 82.7)"/><circle r="1" fill="#8a8e85" transform="matrix(-48.71978 -15.54846 8.5859 -26.90317 114 235.1)"/><circle r="1" fill="#85a4bd" transform="matrix(6.21 -40.96546 63.73773 9.66207 66 11)"/><path fill="#231408" d="M103 206L80 31l37 70z"/><path fill="#4c413a" d="M86 232L8 271 42 39z"/><path fill="#899da3" d="M68 71v-87L-11 84z"/><circle r="1" fill="#252318" transform="matrix(-7.93526 151.15165 -2.3991 -.12595 39.6 40)"/><circle r="1" fill="#8d8880" transform="matrix(14.5083 6.19677 -22.05227 51.63025 127.7 241.4)"/><path fill="#191d1a" d="M135.6 220.8l-32-.6.8-47 32 .6z"/><ellipse cx="139" cy="142" fill="#676656" rx="22" ry="46"/><path fill="#94969a" d="M19.5 235.2l-3.4-17.7 34.4-6.7 3.4 17.7z"/><path fill="#2e161a" d="M152.5 34.8l-1 18-30-1.6 1-18z"/><circle r="1" fill="#979f6d" transform="matrix(-14.29348 10.44398 -16.82714 -23.02938 117.7 59.7)"/><path fill="#1c1d16" d="M185 179.8l-34.3 72.9-1.9-10.6 20.5-136.5z"/><path fill="#9ebae0" d="M72 20L60 61 43-16z"/><path fill="#280d01" d="M64.1 127.7l-3.4-3.7 51.2-47.7 3.4 3.7z"/><path fill="#474741" d="M74 20h15v48H74z"/><path fill="#9b978b" d="M-16 181.2l38.8-6.1 7.4 20.9-24.7 6.7z"/><path fill="#572c2d" d="M-1 145l56 75 32-18z"/><path fill="#8e9170" d="M64.4 122.4L55 71.6l38.7 3.5-6.5 18.2z"/><circle r="1" fill="#9e9e98" transform="matrix(-8.16269 7.1459 -20.67079 -23.61205 127.3 246.6)"/><path fill="#8e997a" d="M-10.4 126l46.2 52.7-20.4-51.8L-16 11.3z"/><path fill="#2a302c" d="M33.2 242.7l-14.7 20.2-51.7-37.6 14.7-20.2z"/><path fill="#9dacb0" d="M90 23h66v10H90z"/><ellipse cx="169" cy="63" fill="#626561" rx="12" ry="42"/><path fill="#151721" d="M3 16h4v66H3z"/><path fill="#9cacaa" d="M8 53h17v35H8z"/><path fill="#b0747a" d="M55.6 201.6l-30.1 26.2 16.6-25.1 5.7-17.6z"/><path fill="#80706a" d="M73 196l50 18-67-48z"/><path fill="#0c1619" d="M55.2 90l-15.8 2.8L36.8 78l15.8-2.8z"/><path fill="#313229" d="M23.1 229.1l24.8-38.8-6.3 14.8-.8-57.6z"/><path fill="#3a352a" d="M109 137l-38-32 77 28z"/><path fill="#171b15" d="M54 225l23 30-44-19z"/><path fill="#16110c" d="M101 232l-4 14h16z"/><ellipse cx="119" cy="88" fill="#707051" rx="8" ry="42"/><path fill="#212736" d="M6.9 62.4l15.3-109 1 .2-15.4 109z"/><path fill="#454647" d="M82 35l21-51-16 4z"/><path fill="#87907c" d="M75.7 32.1l50.9 8.1-19.8 24.6-66.5-42.6z"/><path fill="#8f8c69" d="M64 131l5 30 29-52z"/><path fill="#191818" d="M81 199l62-31-14 28z"/><path fill="#2e2c24" d="M15.6 42.3l.1-1.4 22.1 23.5 7.2 17z"/><path fill="#2d261d" d="M79.8 46.7L91.2 71l-9 4.2L70.8 51z"/><path fill="#9ea790" d="M10.6 91.3l7 29.3 9.2 2.2L7.6 58.7z"/><path fill="#26251c" d="M32.2 152.8l-.9.5-33.5-58 .9-.6z"/><path fill="#0c0000" d="M66 191h6v25h-6z"/><path fill="#f3fefa" d="M58.6 38l12.6 3.3-1.8 6.8-12.6-3.4z"/><path fill="#a9bdbe" d="M103.2 39l4.7 1 25.3-18.4L120.9 11z"/><path fill="#777576" d="M82.4 185l-15.5 53.7-9.1-18.8 22.6-5.3z"/><path fill="#6e6a62" d="M134.7 157l25.6-6.2-7.9 25.7-48.5-12.1z"/><circle r="1" fill="#0e1420" transform="rotate(176.4 .6 .3) scale(2.46273 17.98225)"/><path fill="#251711" d="M94 86l18-3-4 49z"/><path fill="#403532" d="M113.9 72.9l-7.5-1.6 44.8-42.6-29.5 12.7z"/><circle r="1" fill="#a69694" transform="matrix(-4.54094 29.44205 -2.21543 -.3417 154 59.6)"/><path fill="#5a4e46" d="M80 180h24v35H80z"/><circle r="1" fill="#55553f" transform="rotate(158.8 3.9 56.4) scale(3.43502 40.71451)"/><path fill="#342a22" d="M152.6 245.2l-11.4-2.1 16.3-27.2 6.9 24.8z"/><path fill="#96948b" d="M124 245h46v7h-46z"/><path fill="#949893" d="M104.5 217.6l-18.5-10 10.3 17.1 28.6 10.5z"/><path fill="#909991" d="M31 163l3 21-11-21z"/><path fill="#3b3b39" d="M44.9-3.4l-4.4 41L19.9-3.1l18.5 23.6z"/><path fill="#959778" d="M117.8 54.9l21.3 32.6-30 24.3 35.7-56.3z"/><path fill="#cbd3d1" d="M62.3 85.8l-9.7 20.8-1-.4 9.8-20.8z"/><path fill="#a08c7c" d="M84.8 166.3L75 190.7 58.1 183h.8z"/><path fill="#32333a" d="M122.5-16l8.4 37.5-1.5 3.6L144.2-16z"/><path fill="#5a564b" d="M96.8 108.6l2.1 89.6-3.8-43.1-31.6 23.8z"/><path fill="#010000" d="M141 129h4v18h-4z"/><path fill="#878e70" d="M33.2 106.9l4.1-35.8-18.8 20.5L-16 53.4z"/><path fill="#6b6d64" d="M-16 244.6l42.7 2.1-6.9-7.9-20.5 15.7z"/><ellipse cx="54" cy="9" fill="#7aa1e7" rx="8" ry="20"/><path fill="#868c8c" d="M135.1 71.6l19.8-39.7L159.3.6l-16.4 49.2z"/><path fill="#363736" d="M158.8 34.9l26.2 8.9L162.1-16l-5.3 33z"/><path fill="#2b362e" d="M50.3 226.3L16 153l-14.5-2.6 16.4 17.5z"/><path fill="#9fa87f" d="M54.5 79.2l-4.9-34.7 12-1.7 4.8 34.7z"/><path fill="#85807c" d="M162 23h3v42h-3z"/><path fill="#97a289" d="M149.8 8.2L98.1 34.5 113 56.2 81.3 63z"/><circle r="1" fill="#b2b7b3" transform="rotate(7.7 -1454.1 795.9) scale(9.32362 1)"/><path fill="#6d88aa" d="M6 25.5l20.3 25.6L3.7-7.5l-2.6-7.8z"/><path fill="#675f54" d="M94 210l46-6-8 15z"/><path fill="#565f5e" d="M47.4 45.5l-4.7-30.9 6.9 5.8-.1 27.5z"/><path fill="#b0c6b8" d="M0 180h19v6H0z"/><path fill="#7b6f5d" d="M131 108l32 6-30 26z"/><path fill="#5f433b" d="M146.4 85.4l9.4-56.1-19.5 55.1 10.6 51.3z"/><path fill="#303233" d="M55.2 106.9l16.7-46 1 .2-16.8 46z"/><path fill="#b7ccd4" d="M18 55h7v22h-7z"/><path fill="#bdbab7" d="M135.8 236.4l9 19.2-14.2-5.6-1.3-12.3z"/><path fill="#28291c" d="M51 160l4-11-12-19z"/><path fill="#2d2824" d="M35.2 76.2L41.9-.5l3 .3L38 76.5z"/><path fill="#fbffff" d="M60 228h7v2h-7z"/><circle r="1" fill="#33342c" transform="matrix(7.19947 26.32446 -1.99729 .54624 12 104.8)"/><ellipse cx="167" cy="227" fill="#a19587" rx="2" ry="9"/><path fill="#60564d" d="M119.5 228.2l3.4 24.2 10.4-34.4 13.7 27z"/><path fill="#747f6e" d="M139.8 4.3L166-16l-15.7 46.4-23.9-2z"/><path fill="#5b2d2c" d="M80.3 203.3L42 214.8l23.8-24.7 82 55.5z"/><path fill="#6b615a" d="M154 227l1-59-19 15z"/><path fill="#56504a" d="M4.5 164.5l17.9 52-2.9 1-17.9-52z"/><path fill="#52533d" d="M-15.3 71.8L18.1 66l-2.7-6.2L-16 73.6z"/><circle r="1" fill="#6e6963" transform="matrix(9.54208 -53.56892 1.8315 .32624 160.9 124.2)"/><path fill="#95a79d" d="M6 104l-22-57 18 4z"/><path fill="#a7b197" d="M126 52h9v23h-9z"/><circle r="1" fill="#a49d7d" transform="matrix(-6.52265 .62806 -.44154 -4.58554 118.3 147)"/></g></g></svg>