<svg xmlns="http://www.w3.org/2000/svg" viewBox="0 0 1800 1350"><defs/><filter id="a"><feGaussianBlur stdDeviation="12"/></filter><rect width="100%" height="100%" fill="#404546"/><g filter="url(#a)"><g fill-opacity=".5" transform="translate(3.5 3.5) scale(7.03125)"><circle r="1" fill="#fff" transform="rotate(80.3 54.8 65) scale(38.27423 249.02973)"/><circle r="1" fill="#b4bdc2" transform="matrix(59.11032 -222.15291 54.90269 14.60848 74.4 11)"/><circle r="1" fill="#fff" transform="matrix(-.43265 -30.9844 94.77752 -1.32343 87 1.5)"/><ellipse cx="180" cy="4" fill="#fff" rx="255" ry="7"/><circle cx="26" cy="64" r="36" fill="#484e54"/><circle r="1" fill="#7f8e93" transform="matrix(36.71139 20.23521 -12.19254 22.1201 234 153.4)"/><circle r="1" fill="#291e1c" transform="rotate(62.8 -51.4 200.2) scale(94.5936 38.1346)"/><circle r="1" fill="#5e5951" transform="matrix(-3.0616 -33.37899 62.74053 -5.7547 42.7 158.9)"/><path fill="#b8d1e0" d="M20 104l70-17 10 46z"/><circle r="1" fill="#606161" transform="matrix(-6.8 -21.96726 101.5782 -31.4437 141.3 49)"/><ellipse cx="86" cy="8" fill="#f1ffff" rx="56" ry="31"/><circle r="1" fill="#1a0000" transform="matrix(-16.47627 3.13957 -5.40648 -28.37287 174 95)"/><path fill="#6a666b" d="M120 94h37v25h-37z"/><ellipse cx="188" cy="20" fill="#273138" rx="22" ry="8"/><ellipse cx="143" cy="167" fill="#0b0f0e" rx="39" ry="17"/><ellipse cx="17" cy="73" fill="#c6d0d3" rx="30" ry="4"/><path fill="#8c8d8f" d="M177.7 50l46.4-15.7-25.8-9.6-62.4 45.9z"/><circle r="1" fill="#7d7c78" transform="matrix(-11.33036 54.23535 -13.20837 -2.75937 83.3 191.1)"/><circle r="1" fill="#0d1113" transform="rotate(67.6 -74.8 119.7) scale(3.55853 20.64941)"/><ellipse cx="173" cy="1" fill="#ecffff" rx="77" ry="13"/><ellipse cx="17" cy="82" fill="#1b282c" rx="47" ry="5"/><path fill="#6c6c6c" d="M228.1 41.5l26.1 29-22.3 20-26.1-29z"/><path fill="#bfd5e0" d="M35 118h59v7H35z"/><path fill="#929198" d="M120.8 45.3L65 62.1l94.6-40.6 5 10.8z"/><circle r="1" fill="#7d8592" transform="matrix(2.69833 -13.75348 48.76788 9.56788 23.1 37.7)"/><circle r="1" fill="#655d54" transform="rotate(-85.7 223.2 -34.1) scale(26.76709 41.07271)"/><path fill="#4d5155" d="M69 48l65 46-81-11z"/><path fill="#effcff" d="M92 19.6l76.5-23.4 5.5 18.2-76.5 23.4z"/><path fill="#81806f" d="M140 48l31 25-44-5z"/><circle r="1" fill="#5b6263" transform="rotate(77.7 -73.2 64.6) scale(7.1457 46.11789)"/><path fill="#3d3534" d="M96 75h34v53H96z"/><path fill="#9eaeb7" d="M54 89h43v21H54z"/><path fill="#384148" d="M177.2 9.6l16.4 10.2-34.4 4.8 15.7 30.5z"/><path fill="#e6f7ff" d="M70 0h30v41H70z"/><path fill="#333534" d="M236 10h20v49h-20z"/><path fill="#6f7479" d="M212 10h44v11h-44z"/><path fill="#8b9193" d="M271 164l-73-27 28 24z"/><path fill="#879cab" d="M1 97h52v16H1z"/><ellipse cx="1" cy="49" fill="#615f5f" rx="21" ry="22"/><path fill="#3c292a" d="M187 48h11v114h-11z"/><path fill="#dcf2ff" d="M-13 10l122 28-54-54z"/><path fill="#9ca259" d="M116.5 77.9l-10.4-9.4 9.4-10.4 10.4 9.4z"/><path fill="#40444c" d="M136 30l-32 15 16-15z"/><path fill="#7e7173" d="M191.4 75.2l-8.7-5.3-10.8-16.5 16.9 1.6z"/><path fill="#624740" d="M158.8 143.3l-25.9-29.4-4.3 68.9 15.5-72.7z"/><path fill="#93979e" d="M176 46l5-12 30 7z"/><path fill="#83786e" d="M227 53.2l15.9-1.8L230 30.8l-6 21.8z"/><circle r="1" fill="#191413" transform="matrix(9.04007 -3.6794 2.70213 6.639 105.1 162.9)"/><circle cx="245" cy="101" r="14" fill="#1e282b"/><path fill="#343a3d" d="M189 11.4l82 31.5-18.1-1.5-78.4-28z"/><path fill="#484c4d" d="M7 97L3 37l-19 66z"/><path fill="#95aabf" d="M2 15.8l60.6 20.8-2.6 7.6L-.6 23.4z"/><path fill="#2e3231" d="M240.9 50.9l-12-37.1L243 9l12 37.1z"/><path fill="#ebf8ff" d="M241-1l-50 16-5-31z"/><path fill="#182326" d="M174.3 48l46.8-4 .6 6-46.8 4z"/><path fill="#43353c" d="M130.6 46.9l-.7 49.7L117.4 44l-10.2-13.4z"/><ellipse cx="90" cy="191" fill="#605e59" rx="102" ry="6"/><path fill="#637c8c" d="M208 131h48v14h-48z"/><circle r="1" fill="#9d9b9b" transform="matrix(28.7426 -9.8963 .9188 2.66853 104.7 46.7)"/><path fill="#1e2d30" d="M268.4 146.7l-30.9-10 2.2-1.1 16 2.3z"/><path fill="#a7b1ba" d="M212 19l15-9-1 10z"/><path fill="#231012" d="M161 58h18v7h-18z"/><circle r="1" fill="#5b5954" transform="matrix(-10.22453 11.71704 -22.5874 -19.71024 221.9 173)"/><path fill="#33444b" d="M10 113h52v3H10z"/><path fill="#7a858b" d="M47.6 94.6l51 1.5 4.2-13.5-27.4-1.3z"/><path fill="#7b7d7a" d="M229 62h27v9h-27z"/><circle r="1" fill="#1a0813" transform="matrix(10.35771 1.10692 -2.28518 21.38299 178.3 106.9)"/><path fill="#adbcc2" d="M65.3 125.3l31.6-34-1.3 32.9-5.1 7.8z"/><path fill="#7d848b" d="M130.7 24.9L164.9 43l-11.3-24.4-45.9 36.9z"/><path fill="#0b1718" d="M191.6 189.8l5.9-49.5-3.7 4.8-10.8 34.2z"/><ellipse cx="224" cy="130" fill="#1d2c30" rx="17" ry="2"/><path fill="#56595b" d="M66 66.6l70.2 29.7L19 65.2l71.3-25.5z"/><path fill="#8c9660" d="M137 82l-7-27 9 5z"/><ellipse cx="152" cy="162" fill="#837878" rx="3" ry="6"/><path fill="#89837f" d="M146 48h25v9h-25z"/><circle r="1" fill="#858f97" transform="rotate(176.5 13.4 3) scale(1 50.99169)"/><path fill="#54646b" d="M226.3 112.2l-27.6-.8 1.6 11.2-18.7 32.3z"/><path fill="#726e6e" d="M130.8 168.4l-1.5-9.9 5.9-1 1.5 10z"/><ellipse cx="52" cy="175" fill="#676662" rx="41" ry="26"/><path fill="#776b63" d="M115 158l7 4-7-19z"/><path fill="#51453e" d="M168.5 127.4l.5 9.2 21.4 24.1-4.4-37.2z"/><path fill="#242422" d="M232 164l-10 38-13 1z"/><path fill="#0a0e10" d="M139.8 127.1l-4.4 63.4 50.9-35.4-39 13.7z"/><path fill="#0c1c1f" d="M247.6 150.5l-.2 1-49-14 .2-1z"/><path fill="#201f1f" d="M85.3 207l31-27.7 12-84.3-2.2 82.3z"/><path fill="#000009" d="M82 134h23v2H82z"/><ellipse cx="12" cy="74" fill="#9ba3a9" rx="78" ry="2"/><circle r="1" fill="#69787e" transform="matrix(3.00642 15.76308 -2.38579 .45503 154 104)"/><circle r="1" fill="#1e282a" transform="rotate(-93.1 69.3 11.2) scale(1 91.69473)"/><path fill="#7e7f7e" d="M18 151l46-17-50-19z"/><path fill="#3c3b34" d="M8.3 192.3l59-27.5.4 1-59 27.4z"/><path fill="#3b4042" d="M145.6 56.1l-2.1-3.4L206.4 12l2.1 3.4z"/><path fill="#3a3a34" d="M92.3 163.8l-72 43.3-.6-.9 72-43.3z"/><path fill="#809db1" d="M214 152l5-8-25-3z"/><path fill="#54484a" d="M166.4 80.4l20.3-17.1-35.8-1.5 2.5-20.4z"/><path fill="#3b464d" d="M44 69h46v5H44z"/><path fill="#7b8ea9" d="M100 111h12v3h-12z"/><path fill="#878183" d="M45.8 55.1l-8.2-10.7 37.1 25.9-12.2-29z"/><path fill="#5d5860" d="M141 122l8-20-36-13z"/><path fill="#3f4042" d="M281.5-9.8L215 36.6l-.6-.8L281-10.6z"/></g></g></svg>