<svg xmlns="http://www.w3.org/2000/svg" viewBox="0 0 1800 1200"><defs/><filter id="a"><feGaussianBlur stdDeviation="12"/></filter><rect width="100%" height="100%" fill="#4b3421"/><g filter="url(#a)"><g fill-opacity=".5" transform="translate(3.5 3.5) scale(7.03125)"><circle r="1" fill="#e1e8db" transform="matrix(-234.12402 58.77163 -28.45444 -113.35177 118.9 14)"/><ellipse cx="126" cy="83" fill="#f2f2e2" rx="51" ry="40"/><path fill="#561c00" d="M75.3 44l3.4 96-56 2-3.4-96z"/><ellipse cx="142" cy="28" fill="#612800" rx="64" ry="20"/><circle r="1" fill="#415459" transform="rotate(100.4 80 140.5) scale(79.39729 38.32975)"/><ellipse cx="36" cy="4" fill="#dbf3ef" rx="54" ry="27"/><ellipse cx="189" cy="1" fill="#deffff" rx="126" ry="10"/><circle r="1" fill="#909db3" transform="matrix(-4.5935 -17.37793 26.00192 -6.87308 66.7 143)"/><path fill="#d6d5c3" d="M159 48h38v75h-38z"/><circle r="1" fill="#c6f4f1" transform="matrix(2.80162 76.40423 -10.77662 .39516 5.8 50)"/><path fill="#2d1100" d="M88 124h67v14H88z"/><path fill="#f2f2e7" d="M52.9 46L271 55.6 83.4 72.8 80 44.2z"/><path fill="#080c10" d="M247.7 80.2L244 64.3l-48.5 5.5.5 16.2z"/><ellipse cx="202" cy="92" fill="#777767" rx="116" ry="5"/><path fill="#81512b" d="M21 109l61-17L14 4z"/><ellipse cx="255" cy="30" fill="#92ccc5" rx="7" ry="92"/><path fill="#bee0e1" d="M201.8 30.5L199.6-6 238-1l-41.1 41.1z"/><path fill="#212b42" d="M224 13h26v33h-26z"/><path fill="#d8d1c0" d="M79 95h42v30H79z"/><path fill="#696a5e" d="M109 71h74v7h-74z"/><path fill="#78532c" d="M83 10h120v38H83z"/><path fill="#5e504b" d="M195 94h43v55h-43z"/><circle r="1" fill="#795b2f" transform="matrix(64.59657 1.36221 -.03163 1.49992 77.5 9)"/><ellipse cx="144" fill="#c6f4f4" rx="142" ry="8"/><path fill="#bbaf98" d="M193 49h42v17h-42z"/><path fill="#d5b2ad" d="M44 158l39-18-38-4z"/><path fill="#000900" d="M237.4 149.5l5.5-28.5 17.7 3.5-5.5 28.5z"/><path fill="#eaede1" d="M77 48h52v24H77z"/><path fill="#0d0602" d="M64 149h15v12H64z"/><circle r="1" fill="#514932" transform="matrix(-4.29585 -16.52446 37.36863 -9.71468 5.6 154)"/><path fill="#63619e" d="M26 49.3l50.5-.8-41.9-19-5.8-10.7z"/><path fill="#3a708d" d="M40 125h56v9H40z"/><circle r="1" fill="#5f887a" transform="matrix(8.71264 1.47363 -6.5152 38.5202 253.6 82.5)"/><path fill="#6d441f" d="M21 70h57v55H21z"/><path fill="#7d6e68" d="M218.1 129.3l1.5 27 28.7-38-42.2 1.1z"/><path fill="#43280d" d="M103 125h92v29h-92z"/><path fill="#0b0000" d="M196 85h3v44h-3z"/><path fill="#b7c3c4" d="M201 5.8l7.6-5.8.4 64.9-9.9-28.5z"/><path fill="#ccc6b4" d="M97 95h95v25H97z"/><ellipse cx="133" cy="50" fill="#5c5b4e" rx="62" ry="1"/><circle r="1" fill="#cec8d0" transform="matrix(-3.35512 7.50048 -28.24357 -12.63396 57.2 25.6)"/><path fill="#89b1aa" d="M0 83h20v49H0z"/><path fill="#a47036" d="M18 73.7L14.8 6.2l52.8.1-41.1.8z"/><path fill="#414656" d="M210 25h35v24h-35z"/><path fill="#a8b2b2" d="M211.1-8.8l21 46.6-20.2-16.7L271-16z"/><path fill="#edf5e6" d="M24 10h31v11H24z"/><path fill="#5f4128" d="M168 11h31v37h-31z"/><path fill="#abd0cb" d="M247.1 41.5L271 26.8 218.6-3.1l37.8-8.1z"/><path fill="#63707e" d="M81 123h15v32H81z"/><path fill="#aaa696" d="M221 70l-45-21 82-1z"/><ellipse cy="16" fill="#dcf3f4" rx="7" ry="54"/><path fill="#edebdc" d="M83 104l-2-57 22-1z"/><circle r="1" fill="#a38ca6" transform="rotate(-167.9 29.1 13.9) scale(30.40938 7.89375)"/><path fill="#19221c" d="M242.7 111.2l-10.7-2.6 9.8-20.9 5.3-44.4z"/><path fill="#e4e0d2" d="M121 52h72v18h-72z"/><ellipse cx="241" cy="165" fill="#473e29" rx="201" ry="17"/><ellipse cy="142" fill="#03191f" rx="23" ry="6"/><path fill="#8c6238" d="M19 48h47v42H19z"/><ellipse cx="32" cy="139" fill="#683d1b" rx="11" ry="24"/><path fill="#6f6d51" d="M22.5 149.3l1 13-34 2.4-1-13z"/><path fill="#865f37" d="M85 10h70v37H85z"/><path fill="#1a2025" d="M216.3 79.1l14.5 5.7 15-3.3-1.7-22.1z"/><path fill="#676557" d="M80 63l3 42h-1l-3-42z"/><path fill="#9b9588" d="M246 83l-47 2 1 14z"/><path fill="#8b8774" d="M194 51h3v38h-3z"/><ellipse cx="151" cy="122" fill="#9f9d89" rx="42" ry="2"/><path fill="#1f1918" d="M212 101.2l-1 11-15-1.4 1-11z"/><path fill="#3c3c63" d="M35 48l33-7-38-3z"/><path fill="#7f7b6d" d="M89 89h51v7H89z"/><path fill="#d7cfbd" d="M82 98h18v28H82z"/><path fill="#3a4f74" d="M75 27l9 8 2-20z"/><path fill="#151819" d="M198 55l-1 37 6-17z"/><ellipse cx="189" cy="73" fill="#d6d3c2" rx="5" ry="23"/><ellipse cx="148" cy="133" fill="#50331a" rx="53" ry="10"/><path fill="#395572" d="M219.3 22.8l-18.1 13 11.2.4 5 11z"/><path fill="#f2eddd" d="M130 48h59v2h-59z"/><path fill="#c5e6e2" d="M117.1 7.5L-13.7 2.3 265.1-16l-67.9 27.6z"/><path fill="#e0dccb" d="M118.1 88L133 67.9l-2.4 13.6-41.4-4.3z"/><path fill="#aacec9" d="M251.7 12.7l-3.8 37.7L267.1-15l-81.2 25.1z"/><path fill="#767263" d="M144 89h42v6h-42z"/><path fill="#04122a" d="M241 15h6v15h-6z"/><path fill="#705b3f" d="M0 84h33v3H0z"/><ellipse cx="81" cy="111" fill="#3f3a2b" rx="1" ry="14"/><ellipse cx="78" cy="78" fill="#fffde7" rx="1" ry="31"/><path fill="#311f0e" d="M92 146h104v7H92z"/><path fill="#847471" d="M218 137h18v11h-18z"/><circle cx="99" cy="74" r="5" fill="#838476"/><ellipse cx="92" cy="49" fill="#73756a" rx="13" ry="1"/><path fill="#5b3e1c" d="M202 47h48v2h-48z"/><path fill="#e2fbfc" d="M-3.6 101.2l3.4-83.8L46.4-16H-6z"/><path fill="#59594a" d="M118.5 121.9v-1l43-.8v1z"/><path fill="#6c4525" d="M26.4 130l52.2-13.7-2.3-62.2L37 119.6z"/><path fill="#896238" d="M15 7h74v2H15z"/><path fill="#83b5bc" d="M54 11l29-3 1 14z"/><path fill="#9c848a" d="M231.8 17.5L226.3 43l-4.9-23.8-1.7 21.1z"/><path fill="#67867a" d="M245 54h9v55h-9z"/><path fill="#250e00" d="M242.5 115.8l-32.9 3.4v-1l32.8-3.4z"/><path fill="#a7b09a" d="M14.6 12.1l1.1 20.1-5.6-4.2-8.5-2.3z"/><ellipse cx="117" cy="83" fill="#dfdac7" rx="34" ry="5"/><path fill="#5d4d33" d="M190.4 185l-29.9-31.5-35.9.9 28 30.6z"/></g></g></svg>