<svg xmlns="http://www.w3.org/2000/svg" viewBox="0 0 4568 3045"><defs/><filter id="a"><feGaussianBlur stdDeviation="12"/></filter><rect width="100%" height="100%" fill="#4e4c35"/><g filter="url(#a)"><g fill-opacity=".5" transform="translate(9 9) scale(17.84375)"><circle r="1" fill="#f2feff" transform="matrix(29.0332 3.66775 -6.60577 52.29008 78 123)"/><circle r="1" fill="#dae1ff" transform="rotate(-51.8 155.6 -37.7) scale(44.2173 14.45873)"/><ellipse cx="117" cy="157" fill="#71815d" rx="74" ry="19"/><circle r="1" fill="#88a585" transform="matrix(35.71735 24.00107 -15.02827 22.36443 174.7 10.6)"/><circle r="1" fill="#d4dbf4" transform="matrix(-16.95204 13.67215 -18.4178 -22.83614 73 111.7)"/><ellipse cx="83" cy="67" fill="#584e5c" rx="15" ry="26"/><path fill="#b2de83" d="M1 81l33 10-47-49z"/><circle r="1" fill="#6f8c58" transform="matrix(5.87782 18.75615 -57.28643 17.95248 241 110)"/><circle r="1" fill="#707c6f" transform="matrix(-38.68214 -10.54924 6.21392 -22.78532 96.8 4.3)"/><circle r="1" fill="#767e6f" transform="rotate(-61.2 197.9 -46.1) scale(18.40709 42.44939)"/><path fill="#2c3729" d="M103 97h97v15h-97z"/><circle r="1" fill="#777c4c" transform="rotate(172.1 34 87.2) scale(33.75965 25.8198)"/><path fill="#303830" d="M4.1 185L-16 116.9l56.4-39.3 14 59.2z"/><path fill="#d4dae9" d="M100.5 95.5L57 94.6l22 48.1 27.7-6.3z"/><ellipse cx="43" cy="29" fill="#323f32" rx="27" ry="74"/><circle r="1" fill="#acabae" transform="matrix(11.41807 1.1847 -.57065 5.49986 81.3 53)"/><path fill="#98b08b" d="M166.4 43.5l19.5 8.6-3.2-40.7-5.6 1.3z"/><path fill="#909a7d" d="M203.5 131.8l31.3 53.2-25-3.4-.8-88.7z"/><path fill="#c79f99" d="M76.9 16.9L61.2 0l13.9-13L90.8 4z"/><path fill="#4b4e43" d="M60 19l33 80-57-47z"/><circle r="1" fill="#141917" transform="matrix(24.06926 .56363 -.31374 13.39785 254.2 148)"/><ellipse cx="50" cy="161" fill="#c4cced" rx="3" ry="10"/><path fill="#646555" d="M107 108l21-56 24 37z"/><circle r="1" fill="#cbd0d9" transform="matrix(6.54403 5.86758 -7.789 8.68695 107.5 85.6)"/><path fill="#d7ead9" d="M152 165h14v5h-14z"/><circle r="1" fill="#3c4a40" transform="matrix(-19.53181 -14.29463 23.68013 -32.35591 124.8 40.2)"/><path fill="#1d2621" d="M189 126l-24 33 29-1z"/><circle r="1" fill="#293125" transform="matrix(24.76696 41.05666 -7.57237 4.56795 177 82.2)"/><path fill="#20221e" d="M147 128l-13-15-4 42z"/><path fill="#412237" d="M80 160l6-13 24-3z"/><path fill="#a2a472" d="M104 172l-25 2 50-48z"/><path fill="#2e362e" d="M121.3 157l-8.6-13.4-5.7 36 29.1-15.2z"/><circle r="1" fill="#212a0f" transform="rotate(105 107 109.9) scale(6.89654 23.75208)"/><path fill="#474b41" d="M115.5 100.6l-13.1-7.1 3.4 35.2 47.2-17.9z"/><path fill="#879882" d="M135.5 20.9l-12.3-6.6 11.3-21.2 12.3 6.6z"/><path fill="#ced29f" d="M248 116l23-28-1 46z"/><path fill="#95a788" d="M222.3 37.5l-13.5-11.1-60-3.6 3.2-7.4z"/><path fill="#6f846a" d="M154 115l-23 44 49-42z"/><path fill="#8eb679" d="M195 166l-18-11 3 30z"/><path fill="#648129" d="M58.6 143.4l15.2-.2L61.6 185H45.1z"/><ellipse cx="44" cy="85" fill="#ab9490" rx="17" ry="2"/><path fill="#465a42" d="M181.1 42.5L194.5 20l21.2 64.7-19.8 8.2z"/><path fill="#647136" d="M246.7 38.7l9 62.4L234.1 74l-18.9-18.3z"/><circle r="1" fill="#2b3229" transform="matrix(1.73424 15.0348 -5.25482 .60614 87.8 22.6)"/><path fill="#7e9472" d="M192.3 148.3l6.2 4 11-17-7.1-6.5z"/><path fill="#967483" d="M88 145l49-12-8-11z"/><path fill="#6c6c51" d="M47.3 111.2l-29.6 10.9-1.3-9 13.4-12.7z"/><path fill="#131a16" d="M12.2 131.7L45 128l-61-10.7 2.7 58.8z"/><path fill="#acb8c6" d="M84.8 185l-21.2-20.2 35.2 17.1-28.2-28.2z"/><path fill="#354028" d="M244.6 17.7l-7.4-29-35.7 34.2L196.3-8z"/><path fill="#383e24" d="M170 0l-21 10 26 5z"/><path fill="#24321d" d="M38 4.4l-50.1 13.1-3.9 14.2 81.9-13.6z"/><circle r="1" fill="#303926" transform="matrix(6.26227 -1.1439 3.04042 16.64475 218.4 132.5)"/><path fill="#aeb0a4" d="M133 1.8l-4.2-.9L142.2-16l18.4 23.8z"/><path fill="#7d9956" d="M4.8 42.4L-15.6-1.8l31.8 90.6-32.2-5.9z"/><circle r="1" fill="#adc09f" transform="matrix(10.4782 -3.87725 1.41457 3.82285 184.3 19)"/><path fill="#5f5358" d="M70 80.1l-7.6-12.4 41.9-.1-18.4 30z"/><path fill="#a6caa3" d="M95.4 5.4l13.8-13.6-5.1 18.7L93.9-8.3z"/><circle r="1" fill="#6e6355" transform="rotate(125.7 66.6 60.7) scale(48.80324 4.42026)"/><path fill="#353f2e" d="M204 48l-33 53-31-47z"/><path fill="#bac0ca" d="M105.7 111.8l-60.2 30.1 70.7-57.4-21.8-13.1z"/><path fill="#2d3528" d="M138.8 22.6l-21.6 54 47.2-56.7-2.9 10.4z"/><path fill="#181a1b" d="M219.9 44.9l9.8-21.5.1 12.8v22z"/><path fill="#727c6b" d="M135.7 34.8l-25.5-5.9 17.5 14.2 2.5-31.5z"/><path fill="#3f4732" d="M121.4 1.5l1.8-4.5 31.2 18.1-7.4 8.2z"/><circle r="1" fill="#687b6b" transform="matrix(16.12052 5.8069 -1.26637 3.51557 195.8 77.5)"/><circle r="1" fill="#222313" transform="rotate(-179.3 2.8 84.5) scale(32.80969 10.48554)"/><path fill="#9a9780" d="M86.8 27l-15.3-5.7-.8-37.3 8.9 52.1z"/><path fill="#cfd5e2" d="M66.1 140.9l37.2-2.4-2.2-29.3-37.4-30.6z"/><path fill="#c7c9be" d="M147.3 24l20.6-8.8-11.1 9.1-1.4.6z"/><path fill="#4a593a" d="M151.5 152.8l47.1-47.1-52.9 64.2 39.1-18.5z"/><circle r="1" fill="#7c915f" transform="matrix(4.33927 -40.33477 1.97969 .21298 243 95.6)"/><path fill="#657655" d="M188.1 113l-18.8-12.9 9.8 33.4 20.4-7.6z"/><path fill="#2e3b1f" d="M246 86l-38 11 19-33z"/><path fill="#474d39" d="M169 17l8 8-15 22z"/><path fill="#90a86b" d="M-7.8 79.2l22.4 13.5-14-34.8 30.7 32z"/><path fill="#848482" d="M96.3 56.9l-.3 5.7-35.8-4.3 27.5-9.9z"/><path fill="#5e5f47" d="M30.8 133.7l-13.6-6-18.3 32.8 27.5-20.2z"/><path fill="#6b7e5f" d="M142 89l6 26 4-37z"/><path fill="#688542" d="M19 13.1l-35-14V31l47-47z"/><path fill="#9d7667" d="M79-6L69-16 59 13z"/><path fill="#19231a" d="M26.5 50.1l5.4-13.6-27.3 4.2L7.2 45z"/><path fill="#758959" d="M210 116l-8-20 42 1z"/><path fill="#26322d" d="M111.5 74.6l10.4-4.1-37.5-27.4 3.2-24.4z"/><path fill="#8a9973" d="M177.8 149.3l-1.2-8.8-32.2 20.3 14.7-6.8z"/><path fill="#817f87" d="M65.6 135.8l-.6 1.7-15.2-15.1 18 31z"/><path fill="#a7b195" d="M151.1 133.1l-11.3.2 14.1 8.3 4.1 3.9z"/><path fill="#465238" d="M239 143l-38-19 63-3z"/><path fill="#95b8a2" d="M186 7.1l1-15 11 .8-1 15z"/><path fill="#6a7285" d="M252 0l-9 1 1 14z"/><path fill="#737802" d="M248 53.5l23-10.8-37.8 2.2 1.8 3.8z"/><path fill="#848a70" d="M128.4 96l10.2-13.1-14.7 32.3 1.5-8.2z"/><path fill="#acb1c6" d="M49.1 156.9l-3.7 19 10.8-23.4-6.7-12.2z"/><path fill="#3f4d3c" d="M90.5 25.3L142.8-16l-32.6 39.4L87.5-3.9z"/><path fill="#404838" d="M80.9 41.4L68.7.4l-9.6 22-13.2 63.7z"/><path fill="#596e3e" d="M210.1 67.9L223 22.8l30.4-5.9-38.7-6.4z"/><path fill="#7d8b82" d="M104.8 16.2l-10.4 1.4-2 15.4 5-3.2z"/><path fill="#96c59c" d="M153.6 36.1l11-8.6 1.8 2.4-11 8.6z"/><path fill="#272b20" d="M152 109l35 8-43-26z"/><circle cx="171" cy="44" r="4" fill="#a4c3b0"/></g></g></svg>