<svg xmlns="http://www.w3.org/2000/svg" viewBox="0 0 1800 1200"><defs/><filter id="a"><feGaussianBlur stdDeviation="12"/></filter><rect width="100%" height="100%" fill="#2f4754"/><g filter="url(#a)"><g fill-opacity=".5" transform="translate(3.5 3.5) scale(7.03125)"><circle r="1" fill="#fff" transform="rotate(89.9 53.4 88) scale(83.32025 194.77799)"/><circle r="1" fill="#d6e0fa" transform="matrix(162.17001 -23.82415 5.32841 36.27028 184.4 60.7)"/><ellipse cx="153" cy="160" fill="#81a3a5" rx="255" ry="19"/><path fill="#4e76c7" d="M-16.6 47.8l-2.6-51 163.8-8.6 2.6 51z"/><circle r="1" fill="#7f6d23" transform="rotate(-91.7 145 -14.6) scale(12.30216 112.62377)"/><ellipse cx="13" cy="124" fill="#3f340d" rx="99" ry="20"/><ellipse cx="161" cy="96" fill="#9db2d5" rx="70" ry="23"/><circle r="1" fill="#a3b1d4" transform="rotate(154.8 1.3 38) scale(36.84728 31.72219)"/><ellipse cx="196" cy="145" fill="#b5cdbb" rx="140" ry="3"/><ellipse cx="202" cy="10" fill="#a1b7e4" rx="67" ry="18"/><circle r="1" fill="#e9eaea" transform="matrix(53.03655 4.6401 -1.32725 15.17057 234.3 60.9)"/><circle r="1" fill="#3f5763" transform="matrix(89.15036 -9.7383 2.40229 21.99203 11 166)"/><path fill="#4f4529" d="M211.4 128l-4.4-14.3L258.6 98l4.4 14.4z"/><path fill="#5f7baf" d="M-16 74l38 18L9-16z"/><circle r="1" fill="#9fb0cf" transform="matrix(2.26547 9.97367 -110.18575 25.02816 113.3 38.7)"/><path fill="#8ba1c4" d="M132 76l139 4-40 26z"/><path fill="#fffff5" d="M139.9 83.2l-.9 29.5-23.4-3.4L155 92.1z"/><ellipse cx="41" cy="110" fill="#55543f" rx="22" ry="10"/><circle cx="69" cy="95" r="15" fill="#94a4bb"/><ellipse cx="89" cy="127" fill="#474c31" rx="44" ry="16"/><path fill="#a59d8f" d="M217 119l19 14-30-7z"/><path fill="#5170a6" d="M63 17l-5 22.2L-21 21l5.2-22.4z"/><path fill="#d5d7d7" d="M87 69l-53 33-6-45z"/><path fill="#837b51" d="M174 119.3l-1.2 14-52.8-4.6 1.2-14z"/><path fill="#f1f2ef" d="M22.6 5.8l4.7 3.5L31.7-16l-40.3 4.5z"/><ellipse cx="210" cy="143" fill="#e1cbb3" rx="32" ry="2"/><path fill="#21241a" d="M32.5 111.6l-41.2 31.3 126-.8L37 131.3z"/><path fill="#90a4c4" d="M115.5 111.2l29.2-12.8-69.1-1.1 10.2 18.8z"/><ellipse cx="31" cy="144" fill="#8b8d7d" rx="76" ry="2"/><path fill="#e8e7e1" d="M5 83l-4 7 24 13z"/><ellipse cx="136" cy="56" fill="#ccd4de" rx="51" ry="12"/><ellipse cx="168" cy="110" fill="#8eabd6" rx="28" ry="9"/><path fill="#2c4957" d="M-17.5 147.3l35.8-4.4 3.2 25.8-35.8 4.4z"/><circle r="1" fill="#dcdddd" transform="rotate(-76.1 106.3 -27.7) scale(5.01222 57.28632)"/><path fill="#3a330b" d="M256.1 127l13.6 15.5-56-2 35.2-6.4z"/><path fill="#858670" d="M263 115l5 16-38-7z"/><path fill="#7189b0" d="M20 103l10-29H11z"/><path fill="#5c5a46" d="M75.8 110.3l-91.8-9 115.2 21-22-16.3z"/><ellipse cx="172" cy="147" fill="#669fa4" rx="83" ry="3"/><path fill="#99a8bd" d="M81 96.2l-8.7 15.7-25.3-14L55.7 82z"/><ellipse cx="160" cy="142" fill="#1e0f0d" rx="24" ry="1"/><ellipse cx="201" cy="93" fill="#718eb9" rx="29" ry="4"/><circle r="1" fill="#cbd3dc" transform="matrix(14.11682 -2.05436 .55731 3.82964 218.2 100.5)"/><path fill="#68654b" d="M269.2 90l4 8.2-32.4 15.7-4-8z"/><path fill="#bbc7d9" d="M215.2 59l-57.7-39.1 54.8-12.3L162.8-16z"/><circle r="1" fill="#718dbe" transform="rotate(28.3 75.6 302) scale(22.41599 6.72134)"/><path fill="#61682f" d="M145 143l-59-11 110-9z"/><path fill="#1a251c" d="M56 121h41v7H56z"/><path fill="#32362b" d="M254 114l-74 15 44-22z"/><path fill="#94a7c2" d="M204.3 96.2L138.7 86l30-20.2 17.3 4.8z"/><path fill="#d3ad93" d="M111 141h24v4h-24z"/><path fill="#95a7c9" d="M-13 41l119 1-94 25z"/><path fill="#ebeae8" d="M66 102h8v7h-8z"/><path fill="#527580" d="M51 145h50v18H51z"/><path fill="#e8e8e6" d="M51.3 74.6L67.5 72l-35 20.6 15.9 9.1z"/><ellipse cx="16" cy="101" fill="#9ea1a3" rx="19" ry="3"/><path fill="#1e0006" d="M271 156l-18-5 14-37z"/><ellipse cx="145" cy="169" fill="#456673" rx="107" ry="9"/><path fill="#f0efe8" d="M150 99l20-9-37 3z"/><path fill="#393b2f" d="M133 136h18v8h-18z"/><path fill="#c1cce0" d="M66.9 6.9l5-22.9h12.9-53.9z"/><path fill="#d7dae0" d="M211.4 60.8l18-30 47.2 28.4-18 30z"/><path fill="#c2cad3" d="M191.6 85.2l2-18.9 22.8 2.5-2 18.9z"/><path fill="#99a6be" d="M19 86l-5-17 52 15z"/><path fill="#746d51" d="M10 94l-26-6v32z"/><path fill="#c1c6cb" d="M83 80h28v21H83z"/><path fill="#50503a" d="M82.6 113.1l10 10.5 1.9 19.9 37.2-26.9z"/><path fill="#839ac2" d="M86 21h74v12H86z"/><path fill="#9a8b97" d="M221 120l-15 10 6-12z"/><circle cx="204" cy="118" r="6" fill="#393622"/><ellipse cx="211" cy="139" fill="#39372c" rx="15" ry="4"/><path fill="#a2b0c5" d="M109.5 69l40.2.3-20 36.8-8.3-29.2z"/><path fill="#899cbc" d="M230 8l37 15-47-3z"/><path fill="#8aa2c4" d="M218.2 110.3l27.4-11-84.6 11.3 51.2 2.8z"/><path fill="#6c89b9" d="M44 5h49v39H44z"/><circle r="1" fill="#6c703a" transform="matrix(-.15031 -3.31008 64.8419 -2.94445 214.5 130.5)"/><path fill="#353726" d="M2 132l56-9-74-29z"/><path fill="#d3d7d9" d="M10.6 84.8L-.9 97.2l-1.4 19-13.7-21z"/><path fill="#a2b1cb" d="M84.6 64.3l-52.8-4.6 1.6-18 52.8 4.6z"/><path fill="#97abc7" d="M174.1 68.1L156.6 123l22.4-7.5 16.2-40.3z"/><ellipse cx="171" cy="144" fill="#c8c0b1" rx="65" ry="1"/><path fill="#3e432b" d="M174 119l8 21 9-24z"/><path fill="#6783b3" d="M0 76h26v10H0z"/><path fill="#7d7846" d="M152.7 117.4l23.2 7.4-43.8 9.8 14.1-16.3z"/><path fill="#7a98d0" d="M233 101l-5-12 42 3z"/><path fill="#f5f3ef" d="M129 103h11v9h-11z"/><path fill="#85a0c9" d="M85 102h37v11H85z"/><path fill="#a9bedb" d="M124 111h13v6h-13z"/><path fill="#8da3c2" d="M200.7 114.2l-7.9 4.5-.9-.6-69-23.3z"/><path fill="#59605e" d="M38 102h23v7H38z"/><path fill="#afa186" d="M31 141.8l16 1.4v1l-16-1.4z"/><path fill="#5e5b40" d="M136.4 128.9l-46.1-11.2 14.3-5.9 18.3 33.9z"/><path fill="#161c18" d="M13 131l-28 12 66-4z"/><circle cx="243" cy="107" r="3" fill="#999284"/><path fill="#bbc6d6" d="M154.2 58.9l89.1-13.8-72.3-.6-42.1-14.1z"/><path fill="#b1bccc" d="M208 69.2l11.2-1.1 37.2 11.3 1.5 14.7z"/><path fill="#524f40" d="M81.8 110.9l-1.9-5.3-19 19.2 3.9.5z"/><path fill="#5a7d8d" d="M122 150h97v10h-97z"/><ellipse cx="237" cy="59" fill="#e0e3e6" rx="64" ry="6"/><path fill="#8ea0bd" d="M51 98l17 8-17-26z"/></g></g></svg>