<svg xmlns="http://www.w3.org/2000/svg" viewBox="0 0 1800 1200"><defs/><filter id="a"><feGaussianBlur stdDeviation="12"/></filter><rect width="100%" height="100%" fill="#46334d"/><g filter="url(#a)"><g fill-opacity=".5" transform="translate(3.5 3.5) scale(7.03125)"><circle r="1" fill="#d1cec4" transform="rotate(-25.1 158.8 -155.2) scale(207.79034 105.13806)"/><circle r="1" fill="#d8ccd5" transform="matrix(-7.24891 -32.0171 178.00984 -40.30276 75 20.6)"/><ellipse cx="170" cy="141" fill="#665e57" rx="255" ry="74"/><ellipse cx="204" cy="79" fill="#44433a" rx="86" ry="11"/><path d="M232 121l-20 4 5-61z"/><circle cx="255" cy="55" r="48" fill="#6d6d75"/><path fill="#968f9f" d="M74 30h111v41H74z"/><circle r="1" fill="#7e7178" transform="rotate(-35.7 315 -119) scale(52.50935 93.05361)"/><ellipse cx="159" cy="107" rx="4" ry="17"/><ellipse cx="182" cy="125" rx="5" ry="19"/><path fill="#110c15" d="M47 105h8v43h-8z"/><path fill="#b48f98" d="M0 102h46v26H0z"/><circle r="1" fill="#525f77" transform="matrix(49.43163 -9.94887 2.08416 10.35532 211.8 34.1)"/><ellipse cx="134" cy="61" fill="#b2999e" rx="255" ry="7"/><path fill="#8d8187" d="M207 127l-54-42 60 2z"/><circle r="1" fill="#656e82" transform="matrix(-.3648 9.512 -23.9513 -.91858 108.8 39)"/><circle r="1" fill="#605464" transform="matrix(2.73681 24.39922 -71.54837 8.02544 41.7 165.3)"/><ellipse cx="203" cy="81" fill="#211f0d" rx="85" ry="2"/><path fill="#141512" d="M37.3 97l-8.5 3-6.1-17 8.5-3z"/><path fill="#23231b" d="M76.7 90.8L41 86.4l34.9-6.2-1.7 3.5z"/><path fill="#83787a" d="M230 85h26v32h-26z"/><circle r="1" fill="#c9b9bd" transform="matrix(3.23094 12.6071 -142.7749 36.59025 38.7 31.4)"/><path fill="#938187" d="M58.1 139l93.4-52.2-83.3 2.3-20.5 42.3z"/><path fill="#ffffef" d="M54 77h30v2H54z"/><path fill="#3f3936" d="M261 69l-70-3 47 15z"/><path fill="#000602" d="M212 97h16v28h-16z"/><path fill="#c3b1b2" d="M150 49L99.7 63.1l16.4-3.5 66-75.6z"/><ellipse cx="8" cy="52" fill="#c1a3a2" rx="76" ry="21"/><path fill="#04090e" d="M48 121.8l9.3-11.7-2.1-6.8L44 113.7z"/><path fill="#635b56" d="M37.6 75.6l31.6-2.1-48.3 10.2-36.9-3z"/><path fill="#5d5656" d="M161.9 113.3l-12.8 8.6 25.6 63.1 5.7-72.8z"/><path fill="#8b7d83" d="M139.6 76.6l-9.6 30.1 16 20.3 14.8-39.4z"/><path d="M43 95l-6 3.4-2-3.5 6-3.3z"/><circle r="1" fill="#8c93ac" transform="matrix(-32.42461 -4.9939 1.2391 -8.04528 43.4 6.4)"/><circle r="1" fill="#5c5b50" transform="rotate(-89.1 200.8 -40.9) scale(34.40405 66.31786)"/><path fill="#72696e" d="M243.8 77.3l27.2 31.9-48.1 4.7 9.9-14.8z"/><circle r="1" fill="#939aac" transform="rotate(-114 117.3 -76.1) scale(8.18267 75.23578)"/><path fill="#151815" d="M178 109h10v39h-10z"/><path fill="#827581" d="M162 132l10 7 12-41z"/><circle r="1" fill="#bab6c3" transform="matrix(-55.54628 -8.00434 2.94445 -20.43304 127 4.1)"/><ellipse cx="206" cy="93" fill="#8c7e7d" rx="9" ry="12"/><path fill="#6f676e" d="M186.2 137.1l2.8-25.4 4.2-30.5 18.3 45.8z"/><ellipse cx="121" cy="74" fill="#39383f" rx="47" ry="2"/><circle cx="196" cy="82" r="4" fill="#000200"/><path fill="#927e85" d="M7 146l19-68-42 14z"/><path fill="#1d1518" d="M163.1 107.8l-8.8 14.3 1.8-25 8 2.5z"/><ellipse cx="239" cy="49" fill="#7e8094" rx="62" ry="7"/><path fill="#cec1c7" d="M7 9h29v13H7z"/><ellipse cx="8" cy="65" fill="#9b8f9b" rx="196" ry="9"/><path fill="#887f7f" d="M42.9 91.3L22.2 94l36.2-18.3-6.8 18.8z"/><path fill="#a58b94" d="M55 100l11 24 16-23z"/><circle r="1" fill="#6f6371" transform="matrix(-20.31954 -22.24975 15.87435 -14.49722 114.8 134.3)"/><path fill="#9e8e88" d="M148 76h29v3h-29z"/><circle r="1" fill="#534b54" transform="matrix(-29.88585 2.66724 -.35972 -4.03057 45 158)"/><path fill="#1f201b" d="M66.5 84l2-3.5 13 7.5-2 3.5z"/><ellipse cx="190" cy="149" fill="#524b47" rx="49" ry="7"/><path fill="#938588" d="M169 82h11v26h-11z"/><path fill="#3b3838" d="M183 88l-15-19h26z"/><path fill="#252f39" d="M219 124h5v31h-5z"/><ellipse cx="133" cy="79" fill="#21201f" rx="4" ry="7"/><path fill="#927e72" d="M208 75h30v3h-30z"/><path fill="#947b8a" d="M11 135h31v10H11z"/><ellipse cx="147" cy="169" fill="#6d645c" rx="60" ry="19"/><path fill="#857b75" d="M228.3 83.4l4.2-.9 15.7-1.8-4 19.2z"/><circle r="1" fill="#d3b6ad" transform="matrix(1.619 12.46554 -22.95643 2.98152 43 39)"/><path fill="#9b918b" d="M126.4 77.8l-15.7-25.3L134.5 91l-17.5-.6z"/><circle r="1" fill="#636574" transform="rotate(-15.7 224.4 -865.7) scale(36.38587 11.99283)"/><path fill="#91818d" d="M157 95l-13 20-46-14z"/><path fill="#6c6462" d="M238.2 154.6l-1.4-26 25-1.2 1.4 26z"/><path fill="#15150f" d="M231.7 105.2l-12.6 2.4 2.7-12.5-5.2-18.2z"/><path fill="#171718" d="M46 109l5-11 6 31z"/><path fill="#8891ad" d="M35 4l-47 5 34-25z"/><path fill="#00060e" d="M26 95h21v2H26z"/><path fill="#8e7b87" d="M66.7 129.5l6.9 13.2 35.3-6-27.3-11.1z"/><path fill="#8c7a81" d="M128 129h28v12h-28z"/><path fill="#6f7488" d="M96 35h25v17H96z"/><ellipse cx="247" cy="79" fill="#221f12" rx="29" ry="1"/><circle r="1" fill="#6a5e51" transform="matrix(141.51503 -6.27078 .04427 .99902 139.5 92.7)"/><path fill="#615a5f" d="M208.2 123.1l31.5 1.1-50.4 3.1 26-30z"/><ellipse cy="79" fill="#4d4646" rx="27" ry="2"/><path fill="#bc9797" d="M50 120h2v9h-2z"/><path fill="#000302" d="M231 122.5h-20v-7h20z"/><path fill="#9797a3" d="M90 26h47v7H90z"/><path fill="#474444" d="M87 72h14v4H87z"/><ellipse cx="158" cy="17" fill="#c8b4b2" rx="28" ry="8"/><path fill="#100e02" d="M24 89l9-2-4-6z"/><path fill="#6d6461" d="M215.9 97.8l-31.1-16.6 37.3 12.2 22.2-13.1z"/><path fill="#484045" d="M165.3 155.9L152.4 120l7.8-2.7 1.2 12.8z"/><circle r="1" fill="#a09096" transform="matrix(-1.52666 -4.46912 17.61224 -6.01639 214.1 55)"/><path fill="#967f83" d="M21 98h25v33H21z"/><path fill="#685a68" d="M21.6 160.8L-10 106.5l25.3 27.2-31.3 21.4z"/><path fill="#b5a99d" d="M53 77h58v3H53z"/><circle r="1" fill="#7d8296" transform="rotate(-120.5 95.1 -27.2) scale(3.86582 44.24987)"/><circle r="1" fill="#8c7d78" transform="rotate(-104.3 119.6 -32.2) scale(1 14.13384)"/><path fill="#34351d" d="M99 81h54v1H99z"/><ellipse cx="177" cy="101" fill="#e9d9e8" rx="1" ry="7"/><ellipse cy="51" fill="#c6a5a0" rx="78" ry="10"/><ellipse cx="87" cy="148" fill="#766b75" rx="61" ry="4"/><path fill="#34343c" d="M194 68h33v3h-33z"/><ellipse cx="183" cy="84" rx="2" ry="3"/></g></g></svg>