<svg xmlns="http://www.w3.org/2000/svg" viewBox="0 0 1350 1800"><defs/><filter id="a"><feGaussianBlur stdDeviation="12"/></filter><rect width="100%" height="100%" fill="#5d3b2d"/><g filter="url(#a)"><g fill-opacity=".5" transform="translate(3.5 3.5) scale(7.03125)"><circle r="1" fill="#fffff3" transform="matrix(45.90282 12.38553 -49.75636 184.40526 35.2 47.3)"/><circle r="1" fill="#f5e6ce" transform="matrix(-167.643 -81.46574 11.91481 -24.51871 165.3 13.7)"/><ellipse cx="90" cy="85" fill="#312e27" rx="155" ry="25"/><circle r="1" fill="#fffff9" transform="matrix(9.07027 -27.59307 46.58385 15.31283 17 31)"/><circle r="1" fill="#000b07" transform="matrix(38.88377 166.5584 -35.71019 8.3367 153.8 189.3)"/><circle r="1" fill="#ffffa5" transform="matrix(2.2729 -37.58858 10.22449 .61825 13.4 193.8)"/><circle r="1" fill="#00110f" transform="matrix(25.1879 8.49563 -14.16202 41.98762 72.7 232.4)"/><ellipse cx="50" cy="119" fill="#b09984" rx="29" ry="39"/><circle r="1" fill="#27160d" transform="matrix(20.62995 -13.25205 8.69704 13.539 89.2 45)"/><ellipse cx="174" cy="122" fill="#afa999" rx="9" ry="30"/><path fill="#fae0b1" d="M-7 118l64 29-54 50z"/><path fill="#d5b296" d="M11 0h106v23H11z"/><path fill="#484645" d="M33.7 111.6l46.1-26.2-19.7 46.3-37.3 2.9z"/><circle r="1" fill="#ecddcc" transform="rotate(54.1 -91.5 77.8) scale(7.31926 47.24332)"/><circle r="1" fill="#fff" transform="matrix(37.36244 11.79553 -6.29996 19.95517 0 36.7)"/><circle r="1" fill="#04120f" transform="rotate(41.3 16.2 206) scale(23.54236 12.57443)"/><path fill="#cab397" d="M163.7 59.7l-4.8-22.5 23.4-5 4.8 22.6z"/><circle r="1" fill="#0f2b25" transform="matrix(-9.08422 34.141 -7.97066 -2.12083 35.8 193)"/><circle r="1" fill="#6a3a2b" transform="matrix(21.47847 41.32949 -25.38904 13.1944 96.2 85.8)"/><ellipse cx="13" cy="75" fill="#353a43" rx="38" ry="15"/><circle r="1" fill="#02120f" transform="matrix(19.48905 7.04708 -16.98382 46.9696 171 205.2)"/><path fill="#ffffb7" d="M14.2 223.5l-7.4-9.9-22.8 6.7 46.5-39.6z"/><path fill="#e9c4a0" d="M35 21h31v45H35z"/><circle r="1" fill="#3a2215" transform="rotate(85 -22.4 129.5) scale(71.47701 21.47024)"/><path fill="#b06d5d" d="M2.2 242.5l20.3 11.1 1.4-1.4-18.2-41.8z"/><path fill="#838786" d="M205 160l-29-10-10-78z"/><path fill="#8a6746" d="M67 94L36 231l53-90z"/><path fill="#c9a38d" d="M84.5 73.4L72.7 51.7l-7 43.5-38.3 14.7z"/><path fill="#c6c6cb" d="M-14 130.9l56.8-5.5 14.7-10.6L-.3 111z"/><circle r="1" fill="#0c3b77" transform="rotate(76.2 3.5 194) scale(6.92117 23.3409)"/><circle r="1" fill="#16201b" transform="rotate(-21.7 137 -241) scale(29.44923 5.98002)"/><ellipse cx="2" cy="43" fill="#fff" rx="31" ry="15"/><path fill="#561900" d="M12.6 213.8L-11 247.4l-1.7-1.2L11 212.6z"/><path fill="#000508" d="M38 128l-16 4-4-6z"/><path fill="#c3a892" d="M166-16L67 37l-81-53z"/><path fill="#ecdbb6" d="M27 136h28v20H27z"/><path fill="#cbb8a0" d="M65 69l-7 28-60 27z"/><path fill="#996c54" d="M103 210l25 61h-22z"/><path fill="#2d3539" d="M32 91.4L8.5 106.7 2 96.6l23.5-15.3z"/><path fill="#1b2e2d" d="M204 48l-4 102-34-86z"/><path fill="#1a1a12" d="M173.5 122l-12.8-29-17.2-66.8L126.4 184z"/><ellipse cx="73" cy="230" fill="#151f19" rx="17" ry="54"/><path fill="#ff1d6b" d="M2.4 189.2L-16 155.8l3.9 54 17.7-6.9z"/><path fill="#ffff93" d="M26.8 178.1L18 218.7l-7.3 8.5L5 185z"/><path fill="#fff" d="M-4.7 205.2L-16 236l16-14.8 16.4-15.4z"/><path fill="#3e3c33" d="M71.4 90.1l-21.4 26-43.9-14 29.9 9.8z"/><ellipse cx="86" cy="70" fill="#814d3b" rx="12" ry="25"/><path fill="#34382c" d="M17.9 212.3l2.7 31.7 18-1.7.2-79.1z"/><ellipse cx="129" cy="231" fill="#552e1b" rx="13" ry="34"/><path fill="#c3a488" d="M12.1 162.6l-9.3 18.9 22.1 2.2-9.7-49z"/><path fill="#b08f6b" d="M167 106l27 33-25-61z"/><path fill="#6f696b" d="M-16 81l64-17-45-6z"/><path fill="#ffc97e" d="M10 219l10 8v-7z"/><circle r="1" fill="#b09885" transform="matrix(-10.66108 24.29483 -21.78726 -9.5607 180.6 30.6)"/><ellipse cx="130" cy="8" fill="#b49b88" rx="68" ry="14"/><circle cx="110" cy="114" r="28" fill="#3b211a"/><ellipse cx="2" cy="131" fill="#4b4344" rx="42" ry="2"/><path fill="#32322d" d="M29.1 114.3l32.6-2.8-3.7-11.4-1.2-.7z"/><circle r="1" fill="#464642" transform="matrix(-2.28044 -9.81426 18.49686 -4.29792 38.8 74.5)"/><ellipse cx="6" cy="118" fill="#d9cecb" rx="19" ry="12"/><path fill="#7f4939" d="M68 101h14v65H68z"/><circle cx="127" cy="46" r="22" fill="#181b18"/><path fill="#ede3d0" d="M37 113h24v2H37z"/><path fill="#e6cab1" d="M4.5 17.8l71.3-.2-49.5 40.6 40.2 11.7z"/><ellipse cx="96" cy="237" fill="#353525" rx="7" ry="42"/><circle r="1" fill="#3a3222" transform="matrix(-8.75168 4.5339 -13.12716 -25.33902 154.5 56)"/><path fill="#e4d0ad" d="M14 127l28 28-16 30z"/><path fill="#3d3122" d="M150 118.3l6-47.1 20.4 61 7.1 1.1z"/><path fill="#fff" d="M1.3 60l61.9-40.3-33.6 27.5-45.6-45z"/><path fill="#b87b6a" d="M12.6 233.4L0 256l-2.6-1.5L10 232z"/><circle r="1" fill="#282923" transform="matrix(6.1336 8.25954 -13.71024 10.18131 96.7 34.5)"/><circle r="1" fill="#4a432a" transform="rotate(22.8 -499.7 237.7) scale(5.64117 40.97376)"/><circle r="1" fill="#5f3427" transform="matrix(-13.45888 7.03774 -8.40206 -16.068 100.6 75.6)"/><path fill="#403119" d="M64 71h4v23h-4z"/><ellipse cx="186" cy="228" fill="#101613" rx="44" ry="23"/><path fill="#b08377" d="M69 60h10v26H69z"/><path fill="#582f10" d="M0 249l9-28-25 4z"/><path fill="#31281d" d="M64.2 71.7l7.3-26.6 19.8-17.5-17.7 27.9z"/><path fill="#797250" d="M54 157l-10 56 25-49z"/><path fill="#867a70" d="M71 130l-40-15 31-1z"/><circle r="1" fill="#ffff95" transform="rotate(-106.1 80.5 91.7) scale(14.23495 9.03556)"/><path fill="#ae6e52" d="M30 242h5v14h-5z"/><circle r="1" fill="#dfd0ba" transform="matrix(.60256 .79808 -24.20422 18.27443 32.9 94.3)"/><path fill="#454644" d="M14.1 105.8l10.5-7.7 18.2-13.2L-7 79.2z"/><path fill="#101710" d="M107.5 204.5l-10.2.6 17-10.6 36-3.4z"/><path fill="#2b2622" d="M29.1 204.3l-13.3 33.6 29.8 9.9-12.9-12.7z"/><path fill="#181d19" d="M34.6 271l13.6-38.6 4.5-11.8 48.9 24.8z"/><path fill="#10140d" d="M139 208l-13-52 22-57z"/><circle r="1" fill="#dfc7ae" transform="rotate(67.9 29.1 66.8) scale(1.54239 58.17584)"/><path fill="#6f5f41" d="M14 133h2v21h-2z"/><path fill="#6d422a" d="M99.9 141.6l-8 10.2L72 136.4l8-10.2z"/><path fill="#42483c" d="M60 152l-18 52 2-44z"/><circle r="1" fill="#b1a292" transform="rotate(163.4 6.5 55.4) scale(12.41331 6.23017)"/><circle r="1" fill="#804a29" transform="matrix(-9.84126 16.745 -2.47177 -1.4527 1.6 230.3)"/><path fill="#f1d5be" d="M201.6 35.9l.2 1-41.4 7.2-.2-1z"/><path fill="#fffc9f" d="M3 197l14 19 10-35z"/><circle r="1" fill="#e4d2bc" transform="matrix(.55955 .8288 -24.82996 16.76357 37.6 91.3)"/><path fill="#63442e" d="M69 175l-10-31 50 56z"/><path fill="#452a18" d="M82 163l37 25 15-67z"/><path fill="#745e48" d="M172.7 94.6l-7-12.6 5.9-13.9-14.6-32z"/></g></g></svg>