<svg xmlns="http://www.w3.org/2000/svg" viewBox="0 0 1800 1200"><defs/><filter id="a"><feGaussianBlur stdDeviation="12"/></filter><rect width="100%" height="100%" fill="#3a4459"/><g filter="url(#a)"><g fill-opacity=".5" transform="translate(3.5 3.5) scale(7.03125)"><path fill="#e5dabb" d="M287.8 106.7l-244.5 52L8.2-6.8l244.5-52z"/><circle cx="74" cy="130" r="86" fill="#755c52"/><circle r="1" fill="#b7c8c3" transform="rotate(6.8 -134.4 906.1) scale(132.68224 31.09938)"/><circle r="1" fill="#897f7c" transform="matrix(81.54065 28.69758 -18.25086 51.85756 172.5 169)"/><circle r="1" fill="#806046" transform="rotate(98 -21.2 47) scale(38.23976 68.12035)"/><path fill="#3b383e" d="M112.4 54.7L48.5 80.3l69.9 1.1 51.6 9.4z"/><path fill="#c9a88e" d="M51 62l-67 18 80 9z"/><circle r="1" fill="#afb7b3" transform="rotate(-49.7 106.8 -137.3) scale(28.90133 87.37581)"/><ellipse cx="55" cy="117" fill="#aaa3a6" rx="41" ry="8"/><circle r="1" fill="#092a37" transform="matrix(44.898 -12.53575 .79674 2.85362 60.4 131.6)"/><path fill="#a4aeb0" d="M70 133l44 12 75-49z"/><circle r="1" fill="#291b1b" transform="matrix(26.6552 -11.42166 3.40286 7.9414 12.5 102.2)"/><circle r="1" fill="#433833" transform="matrix(43.85934 -7.5115 1.9768 11.54248 214.3 140.7)"/><path fill="#262f3e" d="M104 103h46v9h-46z"/><circle cx="84" cy="40" r="19" fill="#bac4c0"/><path fill="#223735" d="M-16 50V27l80 21z"/><ellipse cx="205" cy="48" fill="#96a09a" rx="38" ry="80"/><path fill="#04151c" d="M26 128l-42 11 51 6z"/><ellipse cx="247" cy="118" fill="#80746e" rx="48" ry="10"/><path fill="#4e3b40" d="M150 103l21-6-46-16z"/><path fill="#3f4152" d="M163 154L47 142l5 30z"/><path fill="#424357" d="M138.2 165.5l17.6-13.2-6.8-21.2 35-14.6z"/><path fill="#2a1f10" d="M57.7 81.7l10.7-20.1 10.5 23.1-13.5-1z"/><path fill="#aa856f" d="M75 71h27v43H75z"/><path fill="#90968f" d="M51-8l-60-8 57 95z"/><path fill="#a18f86" d="M202 185l-33-27-48 4z"/><path fill="#724d41" d="M7.7 48.3L65 119.5l-44.7-14.6 32.9-13.5z"/><path fill="#999586" d="M-16 70.4l29.9-8.2 40-9.3H3.3z"/><path fill="#b2b7b6" d="M66.3 118.6l-29.4 8.5 42.1 1.4-11.3 20.4z"/><path fill="#363d4b" d="M97 53h29v25H97z"/><path fill="#988d80" d="M237 150l17 17-61-14z"/><path fill="#000519" d="M69 119h6v9h-6z"/><path fill="#807f85" d="M51.8 138.3L35 158.9l40.9-23.7 25.3 32.8z"/><circle cx="39" cy="46" r="7" fill="#373523"/><ellipse cx="149" cy="147" fill="#aa9694" rx="26" ry="3"/><path fill="#d9b196" d="M53.5 88.4L34.8 65l57.6-6.8-34.5 5.5z"/><circle cx="205" cy="165" r="5" fill="#030110"/><path fill="#f6e3d6" d="M23 111h25v3H23z"/><path fill="#854526" d="M14.8 108.9L-.3 114-16 126.9l49.5-10.3z"/><path fill="#111e37" d="M47 122l-29 1-4 11z"/><path fill="#ab9588" d="M25.1 91.2l-8.3 1.1L.6 69.8l24 8.2z"/><path fill="#a6b9c1" d="M81 105h16v15H81z"/><path fill="#afb6b1" d="M128.9 68.4l-3.3 3.3 58.8-3.5-64.6-74.8z"/><circle r="1" fill="#7e8c87" transform="rotate(-5.2 571 -2675.4) scale(19.85853 80.1934)"/><path fill="#382f22" d="M64 56l2-15-18 18z"/><circle r="1" fill="#24292d" transform="matrix(-.39751 -2.79307 30.92745 -4.40163 157.6 155.1)"/><path fill="#f0e4d7" d="M118 90l-9-4 8-5z"/><path fill="#4b453d" d="M86.5 87.1L55.9 75.6l2.9 3.2 62.8-2.6z"/><path fill="#000c19" d="M120.5 108.1L173.3 97l.2 1-52.8 11.2z"/><path fill="#a3a39e" d="M209.6 106.5l-33.3 30.4 15.3-.8-45.2-86.3z"/><path fill="#6b5c68" d="M143.3 70.4l23.4 10.2.4 8-54.4 6.3z"/><path fill="#464248" d="M35 70L8 74l16-21z"/><ellipse cx="168" cy="135" fill="#bcafbe" rx="11" ry="2"/><path fill="#503d4a" d="M70.3 143.9l37-6.7-28.8.2 64.1 47.6z"/><path fill="#949b9c" d="M110.1 113.7l-24.5 2 72.8 14.8 33.7-31.6z"/><path fill="#927b71" d="M212.9 144.5l-.6-6 28.8-3 .6 6z"/><path fill="#e3ddd5" d="M37 118h27v3H37z"/><path fill="#081219" d="M238.5 146.8l-38.6 5.4-.4-3 38.6-5.4z"/><path fill="#bea290" d="M7 97L-7 81l-9 36z"/><path fill="#000112" d="M174 120l9-2-11-3z"/><path fill="#47323c" d="M102 92h37v4h-37z"/><path fill="#232636" d="M147 129h34v4h-34z"/><path fill="#252631" d="M153.8 145.8l-24.5-4.7 1-5 24.4 4.8z"/><path fill="#a5a5ab" d="M93 85.5l-2-.1 2-31 2 .2z"/><path fill="#40332e" d="M41.7 77.4L34.3 76l-23.1 37.8 18.8-7.9z"/><path fill="#1e2c3c" d="M101 109h20v6h-20z"/><ellipse cx="76" cy="98" fill="#af7152" rx="37" ry="8"/><path fill="#0f130a" d="M258 166.9l-21.6.6 20.5 17.5 2.1-45.1z"/><path fill="#e6dae1" d="M133 99l4-4-14 3z"/><path fill="#7c696d" d="M137 138l8 16-55-2z"/><path fill="#cbbfb4" d="M113.6 142.6l10.6 4-10.5-14.5-19.1-5.3z"/><path fill="#253338" d="M39.2 145l-42.7-1.6 59-12.5 13.7-4.5z"/><path fill="#051421" d="M59.4 167.8L85.8 157l2.8 7.4-31.3-7.4z"/><path fill="#817571" d="M205.1 159.9L170.2 185l20.8-37.1 55.2 18.3z"/><path fill="#2e3039" d="M173 139h11v27h-11z"/><path fill="#252f26" d="M1 84l8-6 10 32z"/><ellipse cx="145" cy="92" fill="#999399" rx="2" ry="19"/><circle r="1" fill="#0d101a" transform="matrix(-20.88225 .14579 -.00698 -.99998 213.7 136.3)"/><path fill="#eadbcb" d="M39.1 128.2l-.5-2 28.3-6.4.5 2z"/><path fill="#2f2d32" d="M102 67l-18 4-3-10z"/><path fill="#969ca4" d="M139 185l-52-31 14 23z"/><path fill="#5e453b" d="M14 115h30v4H14z"/><path fill="#282f33" d="M20.2 50.9L-11.4 53-16 40.1l41.2-6z"/><path fill="#877869" d="M236 148h20v6h-20z"/><path fill="#a8ada8" d="M29 50h16v10H29z"/><path fill="#b6bdb9" d="M142 43L123 3 66 55z"/><path fill="#141628" d="M111 73h30v3h-30z"/><path fill="#282830" d="M240 122.5l-14.7-7.5 23.2 5.2-48.1 20.3z"/><ellipse cx="79" cy="70" fill="#a4a19d" rx="2" ry="49"/><path fill="#485770" d="M160 66h4v20h-4z"/><circle r="1" fill="#474451" transform="rotate(86.8 -20.5 124.4) scale(1 10.38046)"/><circle cx="12" cy="6" r="28" fill="#949b94"/><circle r="1" fill="#6f4239" transform="matrix(-.41176 -2.43447 36.14792 -6.11396 56.2 101)"/><path fill="#999096" d="M130 185l-18-31 28 22z"/><path fill="#48181b" d="M62 65h16v6H62z"/><path fill="#e0ad72" d="M50.8 96.2l7-13.2 5.4 2.8-7 13.2z"/><path fill="#d39567" d="M175.6 92l-26.5 1.9 15.2-8.5 4 5.3z"/><path fill="#cdc1bb" d="M231 155h13v4h-13z"/><path fill="#26241d" d="M266.4 127.2l-20 56.6 22.2-37.3-35.3.5z"/><path fill="#9c827d" d="M177 141h34v3h-34z"/></g></g></svg>