<svg xmlns="http://www.w3.org/2000/svg" viewBox="0 0 4634 3089"><defs/><filter id="prefix__a"><feGaussianBlur stdDeviation="12"/></filter><rect width="100%" height="100%" fill="#283d4b"/><g filter="url(#prefix__a)"><g transform="translate(9 9) scale(18.10156)"><circle r="1" fill="#c9c7d1" fill-opacity=".5" transform="matrix(-242.84902 24.23956 -8.2468 -82.6223 125.3 58.4)"/><circle r="1" fill="#d5dbd6" fill-opacity=".5" transform="matrix(109.43643 -6.58856 1.24554 20.68857 54.8 112.8)"/><circle r="1" fill="#435b7e" fill-opacity=".5" transform="matrix(42.10773 -9.94486 17.47168 73.97722 231 49.2)"/><circle r="1" fill="#4c4d54" fill-opacity=".5" transform="matrix(-49.49712 -16.07048 9.56047 -29.44627 26.3 54.7)"/><circle cx="237" cy="160" r="39" fill="#201915" fill-opacity=".5"/><circle cx="198" cy="109" r="18" fill="#444c4f" fill-opacity=".5"/><path fill="#636365" fill-opacity=".5" d="M95.9 119.9l67.6-1-60.6-12.5-16.7 11z"/><ellipse cx="137" fill="#bcbdc6" fill-opacity=".5" rx="26" ry="17"/><circle r="1" fill="#c0bab6" fill-opacity=".5" transform="matrix(2.09902 -10.55426 21.6325 4.30225 88.3 39.6)"/><path fill="#505c6c" fill-opacity=".5" d="M151 89l-43-40 121 13z"/><circle r="1" fill="#6182ae" fill-opacity=".5" transform="matrix(-11.21022 -21.46237 54.43797 -28.43403 191.5 28.7)"/><ellipse cx="33" cy="164" fill="#4a4741" fill-opacity=".5" rx="157" ry="23"/><path fill="#c4d3db" fill-opacity=".5" d="M0 95h85v25H0z"/><ellipse cx="126" cy="128" fill="#a4aca3" fill-opacity=".5" rx="87" ry="7"/><path fill="#a1a3a3" fill-opacity=".5" d="M226 81L86 87l78 18z"/><circle r="1" fill="#b0b3ba" fill-opacity=".5" transform="rotate(-60.4 113 -113.2) scale(6.94837 25.22625)"/><circle r="1" fill="#2f3434" fill-opacity=".5" transform="matrix(-65.35334 3.10507 -1.10567 -23.27138 177.7 157.1)"/><path fill="#545d6f" fill-opacity=".5" d="M96-3.1l-5.1 25.7L127.2 39l1.3-21.9z"/><circle r="1" fill="#414246" fill-opacity=".5" transform="matrix(-1.9994 -10.47776 19.367 -3.69567 255 76.4)"/><circle r="1" fill="#8c8c8f" fill-opacity=".5" transform="rotate(-162.7 25.6 28.3) scale(133.23234 5.04849)"/><ellipse cx="17" cy="135" fill="#9d9381" fill-opacity=".5" rx="54" ry="7"/><circle r="1" fill="#110d0a" fill-opacity=".5" transform="matrix(40.36955 -3.67392 .47782 5.25031 220.5 136)"/><path fill="#515968" fill-opacity=".5" d="M29 15h34v45H29z"/><path fill="#4c545d" fill-opacity=".5" d="M169.9 89.4l-27-1.9 1.2-17 27 2z"/><circle r="1" fill="#4b6a92" fill-opacity=".5" transform="rotate(-113.7 101 -59.2) scale(13.54177 42.18662)"/><path fill="#505861" fill-opacity=".5" d="M-16 67.6l82.7 3.3 9.3-1.2 10.4 17z"/><circle r="1" fill="#a0a1ad" fill-opacity=".5" transform="matrix(-4.57278 9.8512 -25.9346 -12.03844 59.3 .2)"/><circle cx="26" cy="12" r="22" fill="#717584" fill-opacity=".5"/><path fill="#505c71" fill-opacity=".5" d="M208 24.5L262.7 37 258 57.5 203.4 45z"/><path fill="#5e6a6b" fill-opacity=".5" d="M167 117h89v7h-89z"/><path fill="#5e646a" fill-opacity=".5" d="M136.4 122l-1.7-11.9 14.9-2 1.7 11.8z"/><path fill="#8d8984" fill-opacity=".5" d="M0 87h86v9H0z"/><circle r="1" fill="#8ea2ba" fill-opacity=".5" transform="matrix(37.73103 7.07372 -.87674 4.6765 173 48.7)"/><path fill="#737479" fill-opacity=".5" d="M154 87l-21-44-79 21z"/><path fill="#9ea1a2" fill-opacity=".5" d="M203.7 72.6l-19.2 4.5-38.1 42.6 53.5-31z"/><ellipse cx="108" cy="103" fill="#a1bedb" fill-opacity=".5" rx="46" ry="5"/><path fill="#404b51" fill-opacity=".5" d="M59 144h107v20H59z"/><path fill="#aaa8a7" fill-opacity=".5" d="M83 95l14-18 49 26z"/><path fill-opacity=".5" d="M26 147h12v5H26z"/><path fill="#4e5258" fill-opacity=".5" d="M60 91l-71-21 27-9z"/><path fill="#4f4f4d" fill-opacity=".5" d="M-16 164l51-33-22 44z"/><path fill="#a3a3a5" fill-opacity=".5" d="M82 20L70 48l41 17z"/><path fill="#56595f" fill-opacity=".5" d="M94 112h19v6H94z"/><path fill="#616c76" fill-opacity=".5" d="M271 84l-44 42-43-34z"/><path fill="#acb2ab" fill-opacity=".5" d="M132 121h28v12h-28z"/><path fill="#6c8ea1" fill-opacity=".5" d="M233 120.5l11.1-7.4 26.9 10.4-12.6-.4z"/><path fill="#9aa1ac" fill-opacity=".5" d="M162.2 66.1l9.5-20.4-35.3-.3-.8-54z"/><path fill="#767a83" fill-opacity=".5" d="M245 70l-7-28-32 65z"/><circle r="1" fill="#101217" fill-opacity=".5" transform="rotate(88.3 53.3 188.3) scale(7.05674 14.03861)"/><path fill="#7d9da3" fill-opacity=".5" d="M226.2 124.5l-16.1 5.6-2.3-6.6 16.1-5.6z"/><path fill="#474f5b" fill-opacity=".5" d="M40 35h26v22H40z"/><path fill="#474e59" fill-opacity=".5" d="M19.1 38.4l.7 9.2L-16 30V4.7z"/><path fill="#2a2a28" fill-opacity=".5" d="M188.4 139.2l-13.3-3.1-24.1.7 60 48.2z"/><path fill="#bfb7a7" fill-opacity=".5" d="M-16 134l13.4-17.6 85.2 9.5-90.3 5.9z"/><path fill="#858e92" fill-opacity=".5" d="M122.8 144.5L87 140.8l41.3-29.4 16.1-1.5z"/><path fill="#507db3" fill-opacity=".5" d="M190 50l-10-27-21 13z"/><circle r="1" fill="#515d6e" fill-opacity=".5" transform="rotate(24.5 -47.2 527.3) scale(14.16665 12.83354)"/><ellipse cx="245" cy="146" fill="#383e42" fill-opacity=".5" rx="159" ry="5"/><path fill="#9a9389" fill-opacity=".5" d="M26.2 141.2l-51.8 4.6-.6-7 51.8-4.6z"/><path fill="#6b717f" fill-opacity=".5" d="M109.9 38.4l-9.6-7L97.9-16 84.8 30.2z"/><path fill="#b9b7b6" fill-opacity=".5" d="M107.4 40.4l-13.1 6.3L69.2 37 62 31.5z"/><circle r="1" fill="#bfb6a7" fill-opacity=".5" transform="matrix(-54.26776 -3.31916 .23307 -3.81066 19.6 97.8)"/><path fill="#595d60" fill-opacity=".5" d="M196.6 126.1l21.4-7-22-17.1-28 22.2z"/><path fill="none" stroke="#494f50" stroke-opacity=".5" stroke-width=".5" d="M28.3 163q3.9-40.6 4.5-54.2"/><path fill="#798884" fill-opacity=".5" d="M155.9 122.7l43.8.4-45.7 13.8 48-3.5z"/><circle r="1" fill="#8399b6" fill-opacity=".5" transform="matrix(-6.45505 .55106 -.45577 -5.33884 188.6 30)"/><path fill="#2a2a2d" fill-opacity=".5" d="M12 140h7v3h-7z"/><path fill="#6a81a8" fill-opacity=".5" d="M216.4 31.5l33.3-5.5-21.5-17.6 41.9-14.9z"/><path fill="#404b52" fill-opacity=".5" d="M90 142H39l17 43z"/><path fill="#737375" fill-opacity=".5" d="M-25 72.2l83.6 14.7-1.5 9L-26.6 81z"/><circle cx="151" cy="99" r="13" fill="#9da7b0" fill-opacity=".5"/><path fill="#84868d" fill-opacity=".5" d="M77.8 41.9l47 20.4-53.5-.1-3.6-24z"/><path fill="#707788" fill-opacity=".5" d="M15 12h58v20H15z"/><path fill="#6b7483" fill-opacity=".5" d="M121 40l59 21-78 13z"/><circle r="1" fill="#6a7c88" fill-opacity=".5" transform="rotate(.2 -40170 38710.5) scale(24.52311 2.13172)"/><path fill="#9d9d97" fill-opacity=".5" d="M152.4 109.1l25.7-4 1.5 9.8-25.7 4z"/><path fill="#6b7381" fill-opacity=".5" d="M202.8 59.3l-12.2-23 10.6-5.6 12.2 23z"/><path fill="#4b6e9b" fill-opacity=".5" d="M222 29l20-45-67 38z"/><ellipse cx="54" cy="105" fill="#96b6d2" fill-opacity=".5" rx="33" ry="3"/><circle r="1" fill="#727780" fill-opacity=".5" transform="matrix(-2.21806 2.72932 -26.81682 -21.79344 38.4 66.5)"/><path fill="#566071" fill-opacity=".5" d="M119.9 22.6l-25-2.2 1.2-13 25 2.2z"/><circle r="1" fill="#646b7a" fill-opacity=".5" transform="matrix(3.6062 -5.83895 34.07671 21.0462 10.1 0)"/><path fill="#7a9ac1" fill-opacity=".5" d="M159.8 61.4L157 50.8l23.2-6.2 2.8 10.6z"/><path fill="#728199" fill-opacity=".5" d="M145.8 17.8L156.1 41l7.5 2.3 24.2-58.6z"/><ellipse cy="52" fill="#81828a" fill-opacity=".5" rx="15" ry="10"/><ellipse cx="216" cy="86" fill="#7a8089" fill-opacity=".5" rx="20" ry="8"/><path fill="#4c5c6b" fill-opacity=".5" d="M221 107h33v8h-33z"/><path fill="#888789" fill-opacity=".5" d="M4.2 4.4l20.1 20.9-6.5 6.3-20.1-20.9z"/><path fill="#9d9e9e" fill-opacity=".5" d="M112.3 82.5L88.2 76l11.6 20.9 27.4.8z"/><path fill="#b6c8d1" fill-opacity=".5" d="M53.7 110.2l38.4-5.8-7.1 13.9-56.9 5.3z"/><path fill="#919392" fill-opacity=".5" d="M37 134h29v9H37z"/><path fill="#b3b3af" fill-opacity=".5" d="M124.1 123.7l-58.5-1.5-6-3.6 74.7.2z"/><path fill="#627791" fill-opacity=".5" d="M166.6 50l12.1 38.5 8.1 7.1-22.4-6.8z"/><path fill="#9299a6" fill-opacity=".5" d="M122.9-16l47.3 21.5-10.9 9.2-14 4z"/><path fill="#262b2d" fill-opacity=".5" d="M184.6 127.9l-2.7 19 45.4-.1-62 12.2z"/><path fill="#aaacb1" fill-opacity=".5" d="M143.2 19.4L130.4 4.2l-10.8 14.5 10.8-2.2z"/><path fill="#1e1f22" fill-opacity=".5" d="M149 137h34v6h-34z"/><path fill="#525861" fill-opacity=".5" d="M162.9 67.5l-26.6 8.6 4 2.1 27.9 11.2z"/><path fill="#8ea9a8" fill-opacity=".5" d="M158.6 133.5l-8.4.5 26.5-11.2 23.5 7.3z"/><circle r="1" fill="#c4cfcf" fill-opacity=".5" transform="rotate(113.9 -31.3 58.6) scale(7.72676 22.71961)"/></g></g></svg>