<svg xmlns="http://www.w3.org/2000/svg" viewBox="0 0 1800 1200"><defs/><filter id="a"><feGaussianBlur stdDeviation="12"/></filter><rect width="100%" height="100%" fill="#6b4733"/><g filter="url(#a)"><g fill-opacity=".5" transform="translate(3.5 3.5) scale(7.03125)"><circle r="1" fill="#ffd066" transform="matrix(13.57287 -67.9256 141.33998 28.24252 149.1 40.3)"/><ellipse cx="92" cy="145" fill="#001c38" rx="255" ry="32"/><circle cx="162" cy="57" r="57" fill="#ffbd66"/><path fill="#944d22" d="M-27 33.2l164.3 23.1-8.2 58.5-164.4-23.1z"/><ellipse cx="230" cy="17" fill="#ffd797" rx="142" ry="10"/><ellipse cx="255" cy="89" fill="#530500" rx="57" ry="8"/><path fill="#ffbe68" d="M73 34L-9 45l-7-23z"/><circle r="1" fill="#96552b" transform="matrix(.76193 11.4714 -49.53979 3.29043 220.9 44.8)"/><circle r="1" fill="#3a372c" transform="matrix(.42332 -6.3734 56.156 3.72988 34.8 51.1)"/><path fill="#ffffaf" d="M152 105l5-22 50 14z"/><circle r="1" fill="#472e2c" transform="matrix(51.61597 2.81519 -.391 7.16883 80 0)"/><ellipse cx="211" cy="71" fill="#ffb453" rx="130" ry="8"/><ellipse cx="218" cy="114" fill="#4a2a29" rx="48" ry="8"/><path fill="#101c20" d="M-16 158l119-42-116-6z"/><ellipse cx="47" cy="24" fill="#594032" rx="71" ry="3"/><path fill="#f4b060" d="M220 70l-81-43L32 40z"/><circle r="1" fill="#f37825" transform="matrix(-1.35064 7.56164 -27.67062 -4.94246 134.6 106)"/><circle r="1" fill="#fb771d" transform="matrix(1.07783 5.21614 -27.03713 5.58676 201.7 103.3)"/><ellipse cy="9" fill="#a57145" rx="48" ry="15"/><circle r="1" fill="#d3691f" transform="matrix(-1.20354 -5.47402 36.35963 -7.99418 225.3 81.5)"/><path fill="#a2482b" d="M271 105.2l-21.5-10.7-78.9 20.2 77.9-1.1z"/><circle r="1" fill="#976d4e" transform="matrix(89.22716 5.4171 -.4025 6.6298 185.2 0)"/><circle r="1" fill="#ab592c" transform="rotate(85.9 -9.1 91) scale(12.87061 42.67426)"/><path fill="#e37d25" d="M97 74h52v16H97z"/><path fill="#ffe6a1" d="M170 19h84v7h-84z"/><circle r="1" fill="#5a452e" transform="rotate(106.6 -16.2 41) scale(11.12664 57.46446)"/><path fill="#ffe885" d="M141 102l48 4-2-35z"/><ellipse cx="249" cy="137" fill="#2d3438" rx="217" ry="24"/><path fill="#b57c45" d="M0 12h152v5H0z"/><path fill="#754f35" d="M234 31h22v23h-22z"/><path fill="#391a12" d="M148.8 61.2l.2 2-33.8 3.6-.2-2z"/><ellipse cx="227" cy="65" fill="#fdd48d" rx="87" ry="3"/><path fill="#e39743" d="M84 56h77v7H84z"/><path fill="#664136" d="M189.7 128.7l-21-21.6 60.9 4.6-110.6 5.1z"/><path fill="#c06a1e" d="M180 65h31v5h-31z"/><circle r="1" fill="#c89153" transform="matrix(2.16842 9.78384 -23.69485 5.25155 251.7 10.3)"/><circle r="1" fill="#fdcc81" transform="matrix(-.70691 -4.24124 33.84075 -5.64043 154.2 37.7)"/><path fill="#ffa43a" d="M224.6 100.2l-63.1-30.6 21.9 21.7 16.7 9.5z"/><ellipse cx="105" cy="93" fill="#452019" rx="18" ry="3"/><path fill="#cb7f39" d="M250.7 64.6l-41.6-1.7-68.3-20.2L271 56.3z"/><path fill="#c0682e" d="M110.9 109.8l-18.2-6.3 53.5-10.2 16.7-1.9z"/><ellipse cx="91" cy="54" fill="#543823" rx="38" ry="2"/><path fill="#5e3527" d="M271 70l-54 22 43 6z"/><path fill="#aa3500" d="M178 97l-14 4v-4z"/><ellipse cx="111" cy="28" fill="#a57347" rx="75" ry="4"/><path fill="#ffe070" d="M107 99h38v2h-38z"/><path fill="#c77433" d="M84.8 60.1l-.6 19-35-1.2.6-19z"/><path fill="#424a51" d="M80 153h74v12H80z"/><path fill="#444d52" d="M190 156h66v11h-66z"/><path fill="#ffb95b" d="M219 62h12v23h-12z"/><ellipse cx="185" cy="64" fill="#ffffc9" rx="19" ry="2"/><path fill="#fffffb" d="M157 95.5v-1l38 2v1z"/><path fill="#41322d" d="M4 98l33-3-53-11z"/><path fill="#efb974" d="M151.8 16l-61.6.8L59 18.7l53.4 5.7z"/><ellipse cx="168" cy="53" fill="#ffe088" rx="25" ry="2"/><ellipse cx="59" cy="83" fill="#4d3122" rx="29" ry="3"/><path fill="#01070a" d="M70.7 143.8l-12.1-2.9-65-2.2-8.7 5.1z"/><path fill="#ffdc74" d="M109.9 98.9l80.9-22.6L206 75l-30.9 13.6z"/><circle r="1" fill="#bf6b34" transform="matrix(-.13401 -2.49296 26.80842 -1.44113 52.8 89.8)"/><ellipse cx="197" cy="40" fill="#d5964e" rx="45" ry="4"/><path fill="#54442d" d="M78.1 53.4l-66.4-7.9L-16 91.6l31.1-29z"/><path fill="#112026" d="M0 165h109v5H0z"/><ellipse cx="234" cy="49" fill="#6f482b" rx="30" ry="3"/><path fill="#e2ad63" d="M-11 23l63 7-44 8z"/><path fill="#fbc67b" d="M158 29h35v7h-35z"/><ellipse cx="152" cy="107" fill="#d65e0f" rx="29" ry="2"/><circle r="1" fill="#974c19" transform="matrix(-10.34062 2.75143 -.3997 -1.50215 143.8 94.6)"/><circle r="1" fill="#4f4d53" transform="matrix(20.94486 -3.36507 .60096 3.74052 136.6 134)"/><ellipse cx="150" cy="77" fill="#f6a845" rx="26" ry="9"/><ellipse cx="232" cy="24" fill="#ffcd85" rx="25" ry="5"/><circle r="1" fill="#735035" transform="matrix(-1.4577 -11.2493 23.81415 -3.08586 93 0)"/><path fill="#894d23" d="M112 62h12v8h-12z"/><path fill="#ffc549" d="M99 97h12v2H99z"/><circle r="1" fill="#743c1e" transform="matrix(.3307 -2.6817 23.86196 2.94256 218.8 88.4)"/><path fill="#884a1f" d="M159.9 94l-41.7 5-.1-1 41.7-5z"/><path fill="#856341" d="M188 1h62v5h-62z"/><ellipse cx="141" cy="36" fill="#ffdc93" rx="22" ry="3"/><path fill="#eec181" d="M120.9 12.1l1.7-4.4 70.2-.5-17.8 9.2z"/><path fill="#e7efc3" d="M131 65h35v2h-35z"/><path fill="#1b2024" d="M159 143h23v24h-23z"/><path fill="#ffe07a" d="M165.5 113.1l8.9-1.2.1 1-8.9 1.2z"/><path fill="#97400e" d="M130 86h18v3h-18z"/><path fill="#da9b50" d="M208.9 34.6l-78.7 24.1-7.1-38.4L70 51.4z"/><path fill="#b16830" d="M202 57h54v5h-54z"/><path fill="#9b7244" d="M3.5 7.7L-16 .9l71.3-12L-16 39.2z"/><circle r="1" fill="#cf8a43" transform="matrix(-44.37486 .22752 -.00936 -1.82509 66.8 61.9)"/><path fill="#ec8936" d="M226 101.7l-49.3-11.1 14-.4 64.4 10.2z"/><ellipse cx="104" cy="146" fill="#13181d" rx="29" ry="4"/><circle r="1" fill="#ad5b28" transform="matrix(-6.42062 -6.28816 12.03196 -12.2854 90 86.5)"/><ellipse cx="41" cy="158" fill="#19242a" rx="101" ry="2"/><path fill="#fcedb3" d="M206 62h29v1h-29z"/><path fill="#6a4226" d="M93 64h49v2H93z"/><path fill="#fff" d="M159 103h24v1h-24z"/><ellipse cx="49" cy="38" fill="#cd914d" rx="54" ry="6"/><circle r="1" fill="#b8642c" transform="matrix(-1.03818 -4.4969 22.0569 -5.0922 244.1 80)"/><path fill="#df9949" d="M97 70.4l65.2-28.7-86.5 24 52.5-5.7z"/><circle r="1" fill="#14191e" transform="matrix(20.40427 -3.00788 .4255 2.8864 224.6 147.2)"/><path fill="#554731" d="M75 24h34v3H75z"/><path fill="#303c41" d="M40.7 171.9L-16 143.8l104.9 4.1L1.3 166z"/><path fill="#ad7645" d="M211.4 46.5L271 45l-85.7-17.9 75.6 1.8z"/></g></g></svg>