<svg xmlns="http://www.w3.org/2000/svg" viewBox="0 0 1800 1800"><defs/><filter id="a"><feGaussianBlur stdDeviation="12"/></filter><rect width="100%" height="100%" fill="#2f3d40"/><g filter="url(#a)"><g fill-opacity=".5" transform="translate(3.5 3.5) scale(7.03125)"><circle r="1" fill="#fff" transform="rotate(-179.8 74.6 19.5) scale(246.78898 44.06745)"/><circle r="1" fill="#a9b3c7" transform="matrix(76.88942 67.88358 -82.2977 93.21581 11.6 240)"/><circle r="1" fill="#d6edff" transform="matrix(-3.63951 -35.83034 156.6621 -15.91316 181.3 41.8)"/><circle r="1" fill="#7c737a" transform="matrix(31.77054 -22.7958 76.4274 106.51699 231.2 158)"/><circle r="1" fill="#fffff5" transform="rotate(170.8 -5.6 119.2) scale(16.96846 95.97152)"/><ellipse cx="172" cy="221" rx="50" ry="47"/><path fill="#230000" d="M151 56h43v29h-43z"/><ellipse cx="243" cy="195" fill="#87a9cd" rx="23" ry="70"/><circle r="1" fill="#f2ffff" transform="matrix(11.66957 -31.67248 40.0431 14.7537 227.8 49.8)"/><ellipse cx="114" cy="145" fill="#86a3d0" rx="28" ry="19"/><ellipse cx="120" cy="174" rx="29" ry="11"/><circle r="1" fill="#030507" transform="matrix(-50.32165 47.58682 -7.38628 -7.81077 177.8 128.2)"/><path fill="#ed8662" d="M179 60l-30 47 40 4z"/><path fill="#232c2b" d="M53.9 98l-45-9.6L14.1 64l45 9.6z"/><ellipse cx="96" cy="60" fill="#ebfeff" rx="54" ry="21"/><circle r="1" fill="#758db0" transform="matrix(-1.06046 -21.68275 132.92781 -6.50125 107.4 13.9)"/><path fill="#dee8df" d="M-20.3 85L7.5 42.1 24.3 53-3.5 95.8z"/><path d="M27 164l-15-2-25 34z"/><circle r="1" fill="#cde5ff" transform="matrix(1.1724 8.28406 -11.89262 1.6831 220 255)"/><circle r="1" fill="#5a553e" transform="rotate(114.1 10.7 7) scale(18.28846 36.26564)"/><path fill="#7c90a1" d="M203 127h53v56h-53z"/><circle r="1" fill="#000005" transform="matrix(19.39596 28.7557 -40.2475 27.14728 179 218.4)"/><ellipse cx="96" cy="235" fill="#fff" rx="30" ry="2"/><ellipse cx="21" cy="185" rx="3" ry="26"/><path fill="#171709" d="M180.1 67.6l35.5 33.8L177 48.6l-32.3 26.2z"/><path fill="#f3ffff" d="M198 44h58v38h-58z"/><ellipse cx="231" cy="102" fill="#20383d" rx="39" ry="22"/><circle r="1" fill="#fff" transform="rotate(-146.3 32.2 99.6) scale(13.019 16.08884)"/><path fill="#475f75" d="M140 188L34 261l-3-83z"/><path fill="#4e698b" d="M10 128h101v35H10z"/><path fill="#ff2929" d="M116.2 248l8.3-19.4 8.5-3.9-20.1 42z"/><path d="M12.5 256l-10-1 1-9 10 1z"/><ellipse cx="50" cy="171" fill="#fffff4" rx="21" ry="2"/><path fill="#e5eaec" d="M260.3 234.5l-8.8-47.7-16.1-18.5 29.1 22z"/><path fill="#424a48" d="M26 64l66 20-108 36z"/><ellipse cx="132" cy="175" fill="#04080c" rx="39" ry="12"/><path fill="#fffadb" d="M4 227.4l22.6-4-1.1 23.7-41.5-1z"/><ellipse cx="122" cy="43" fill="#cce0f4" rx="185" ry="8"/><path fill="#a9bedc" d="M225.6 37.6l-48.1.7-45.1-4.1 138.6-49z"/><circle r="1" fill="#9eabb0" transform="matrix(12.05087 -26.0819 17.30147 7.99397 10.5 33)"/><path fill="#5b7088" d="M119.6 169l35.6-40.9-22.7-2.1-148.5 5.3z"/><circle r="1" fill="#e1976f" transform="matrix(14.64768 -2.39865 .8648 5.28103 82 168.6)"/><path fill="#392e14" d="M47 212.9l5 41.6-5 .6-5-41.6z"/><path fill="#e59f84" d="M170.5 71.1l11.6-3.2 2.8 6.1-1.5 43.9z"/><path fill="#4e382e" d="M147 120l4-71 18 32z"/><path fill="#a2abab" d="M185.1 137.2l36.9 8.9-25-25.9 2.2 1.3z"/><path fill="#2e3e4c" d="M248.8 226.3l5.8-32.7-13.5 23.4-35.5.9z"/><ellipse cx="119" cy="76" fill="#e6f7ff" rx="33" ry="6"/><ellipse cx="240" cy="121" fill="#182628" rx="65" ry="6"/><ellipse cx="183" cy="168" fill="#494c47" rx="26" ry="16"/><path fill="#ffffef" d="M16 177l-15 9 20 46z"/><path fill="#ccdde9" d="M-16 75.8l139.3-39.7L23.1 46-16 124.8z"/><path fill="#080b0e" d="M201.7 264.3l23.2-83.6-100.5 64.9-25.2 19.7z"/><path fill="#fff" d="M-16 188l1-51 26 31z"/><ellipse cx="64" cy="236" fill="#efe4c3" rx="50" ry="2"/><circle r="1" fill="#905545" transform="matrix(-12.51866 -16.918 9.52131 -7.0454 165.2 103.6)"/><path fill="#ff4c40" d="M136 242l4-11-5 4z"/><path fill="#373130" d="M133 81h44v5h-44z"/><path fill="#070300" d="M18 4L0 0l-16 9z"/><path fill="#101216" d="M187.8 128.4L122 219.3l19-72.9 58-45.3z"/><ellipse cx="83" cy="211" fill="#e6dbb9" rx="2" ry="27"/><ellipse cx="34" cy="7" fill="#544f35" rx="7" ry="21"/><path fill="#181f1b" d="M5.5 183.2l-2.7 5.5L22.3 155l-30.4 35z"/><path fill="#22180c" d="M192 89l-13-34 18 10z"/><path fill="#4c6b8b" d="M85 189h40v45H85z"/><path fill="#ebeadd" d="M256.8 191l-8.6 54.2-1-.1 8.6-54.3z"/><path fill="#61758c" d="M224 256l-2-94 43 109z"/><path fill="#af5c2a" d="M6 224l10 1-12-14z"/><ellipse cx="251" cy="46" fill="#d9ecff" rx="21" ry="37"/><circle cx="212" cy="253" r="3" fill="#fff"/><path fill="#475359" d="M34 237h80v7H34z"/><path fill="#4d5c6f" d="M-16 126l83-2-57 40z"/><ellipse cx="12" cy="103" fill="#5d5e57" rx="66" ry="6"/><path fill="#b8725b" d="M184 113.9l-19.8-.8h-10l44.5-23.5z"/><path fill="#f2edd7" d="M25 181h1v73h-1z"/><path fill="#687e97" d="M154.6 126.7l-21.5 32.2-27.2 8.3-72.6-8.1z"/><path fill="#7b735f" d="M30 172h61v9H30z"/><circle r="1" fill="#f49b71" transform="matrix(-1.59507 -4.26621 5.87629 -2.19705 59.4 252.8)"/><path fill="#c6e1ea" d="M155 50h10v9h-10z"/><path fill="#d2e3f4" d="M7.5 60.4l92.1 22.7 13.7.9 47-46.8z"/><path fill="#898d86" d="M194 177h30v7h-30z"/><path fill="#f4f3e3" d="M0 195h4v61H0z"/><path fill="#201c10" d="M224 177.3l-9-27.6 3-1 9 27.6z"/><path fill="#a2a594" d="M24.3 51.3L5.6 82.8l7.6-47.7 38.7-19.7z"/><path fill="#4a2e21" d="M201.4 90.5l-16.9 5.2 3.2-46.6-7.2 1.8z"/><path fill="#324145" d="M205 82h46v46h-46z"/><path fill="#c6bba2" d="M27 252.5l8.3-11.3 6.3-21.9-9 14.5z"/><path fill="#323e3f" d="M82.3 82.2l-87 19.3L16.8 65l13.4 2.8z"/><path fill="#16150c" d="M252 217h-3l-1-24h3z"/><path fill="#626050" d="M19.3 159.5l25.3 29.6L57.1 271l-23.6-82.1z"/><path fill="#54423a" d="M215.4 108.2l-60.4 6.7 9.4 16.1 33.1-32.2z"/><path fill="#657e98" d="M129 189l-45-12 38 32z"/><path fill="#272d26" d="M25.4 196.8l-8.9-19-1 2.4 5.5 39.7z"/><path fill="#e7f7ff" d="M201 46h55v35h-55z"/><path fill="#f09487" d="M158.3 93l5-11 6.4 3-5 11z"/><path fill="#7a8fa7" d="M210.1 176l40.8 2.2-29.4-46.3 3.2 58.3z"/><path fill="#282723" d="M186.1 68.8L173.4 49l-22.3 20.2 16.1-3.4z"/><path d="M207 118l1 14 6-12z"/><path fill="#849abb" d="M48.5 33.3L44.2 8.7l113.3-20 4.3 24.6z"/><path fill="#61392c" d="M183 110l-11-5-6-24z"/></g></g></svg>