<svg xmlns="http://www.w3.org/2000/svg" viewBox="0 0 1800 1200"><defs/><filter id="a"><feGaussianBlur stdDeviation="12"/></filter><rect width="100%" height="100%" fill="#424a5a"/><g filter="url(#a)"><g fill-opacity=".5" transform="translate(3.5 3.5) scale(7.03125)"><circle r="1" fill="#98d5ff" transform="rotate(-177.2 67.6 6.3) scale(255 65.36014)"/><circle r="1" fill="#807f74" transform="rotate(3.5 -1418.6 1653.7) scale(166.62447 30.1849)"/><ellipse cx="142" cy="150" fill="#275e9d" rx="255" ry="36"/><circle r="1" fill="#75a4dd" transform="matrix(-114.68943 1.87491 -.48652 -29.76039 202.5 41)"/><circle r="1" fill="#bdb09b" transform="matrix(12.22556 -17.59027 14.09062 9.79324 66.3 82.1)"/><path fill="#464747" d="M87 69h108v22H87z"/><ellipse cx="187" cy="98" fill="#a8a69e" rx="54" ry="6"/><circle r="1" fill="#ccd8e0" transform="matrix(-22.80132 1.356 -.19449 -3.27033 71 112.2)"/><path fill="#5c8ecd" d="M2 65l-18-81L271 1z"/><ellipse cx="129" cy="90" fill="#15272e" rx="22" ry="9"/><ellipse cx="8" cy="79" fill="#87807c" rx="188" ry="6"/><path fill="#f8fffc" d="M68 85h8v17h-8z"/><path fill="#4d545b" d="M59.9 62.3l65.4 88.6-87-101.6 107.4 26.4z"/><ellipse cx="45" cy="95" fill="#cec3b4" rx="14" ry="5"/><path fill="#d7c8b6" d="M225 113l-12 3 15-25z"/><circle r="1" fill="#233038" transform="matrix(-.71861 -5.17877 24.81006 -3.44268 27.8 108.2)"/><path fill="#c5b9af" d="M271 101l-44-4 43 16z"/><circle r="1" fill="#85a7c8" transform="matrix(-63.54627 -14.20428 4.67321 -20.90674 246 61)"/><path fill="#202a36" d="M-10 78l7 26 24-19z"/><path fill="#7fa0c6" d="M57.4 24.3l8.8 25.5L8.6 69.7-.2 44.2z"/><path fill="#263b42" d="M111 107h145v5H111z"/><path fill="#384347" d="M85.4 79.2l-36 10.7-26.5 5.3L46 81.7z"/><circle r="1" fill="#e9d3b4" transform="matrix(-1.20678 2.13112 -12.10435 -6.85425 75 74.8)"/><path fill="#bfbaa9" d="M18.4 84.7l-23.3-9 2.5-6.4 23.3 9z"/><ellipse cx="91" cy="111" fill="#c4c5c3" rx="26" ry="2"/><ellipse cx="234" cy="114" fill="#687e97" rx="125" ry="4"/><path fill="#354352" d="M92 66h52v6H92z"/><path fill="#394851" d="M67.8 147.6l-4.5-41 82 1.8-88-10.3z"/><ellipse cx="143" cy="76" fill="#ffffe0" rx="7" ry="2"/><path fill="#827c7b" d="M211 70l-39 11 63 7z"/><path fill="#253547" d="M74 102.5l2.2-13.8L94 91.5l-2.2 13.8z"/><path fill="#fefaea" d="M54 84l-5 16 8-4z"/><path fill="#7e7164" d="M28 81l-7-17 67-11z"/><path fill="#dac5a8" d="M46 65l1-14-10 9z"/><ellipse cx="134" cy="118" fill="#30507c" rx="119" ry="4"/><path fill="#374250" d="M160 72h55v6h-55z"/><path fill="#c7c1b3" d="M196 68h4v19h-4z"/><ellipse cx="146" cy="8" fill="#5a89bd" rx="219" ry="15"/><path fill="#4f5455" d="M32.7 64.9l10.1 30.3 9.6 12.9-.6-16.8z"/><path fill="#a1a49f" d="M163.3 91.7l27-1.4.4 10-27 1.4z"/><path fill="#3f4c5c" d="M175.8 111.9l29.6 1.2-29.8-17.8 34.5.7z"/><ellipse cx="225" cy="91" fill="#3a4837" rx="20" ry="3"/><path fill="#3a4351" d="M72 56h14v7H72z"/><path fill="#cacfd3" d="M32 112h52v2H32z"/><path fill="#c1b4a0" d="M87 68l-15-9-14 7z"/><ellipse cx="200" cy="59" fill="#80a4c9" rx="65" ry="12"/><path fill="#384449" d="M110 79h40v20h-40z"/><path fill="#807f7f" d="M103.5 92.5l-20.4 3.8 21.8 6 22.8-3.2z"/><ellipse cx="114" cy="39" fill="#7098c4" rx="195" ry="15"/><ellipse cx="42" cy="141" fill="#395277" rx="71" ry="29"/><path fill="#af9e8d" d="M37 93l-9-10 6-17z"/><path fill="#f1d3b7" d="M104 80l1-7 3 10z"/><path fill="#29373e" d="M271 85.8l-27.9 18.5 1-3.2 7.7-9z"/><path fill="#4f535a" d="M.4 63.7l20 6.5L-.7 83.8l15.2 8.1z"/><path fill="#2b3938" d="M167 100l25 11-25-1z"/><path fill="#4c555d" d="M70 65.2l-23-2.4 1-10 23 2.4z"/><circle cx="222" cy="104" r="4" fill="#ffe4ba"/><ellipse cx="156" cy="113" fill="#a3acb1" rx="43" ry="1"/><path fill="#a59b91" d="M102.6 67.7l5.2-16.3-29.3 13.5 16.4-.9z"/><path fill="#222d3e" d="M102 79l-14-4 11 12z"/><path fill="#a8aeab" d="M86 80h5v10h-5z"/><path fill="#fffff5" d="M68 93l6 5V84z"/><path fill="#ffedc0" d="M176 98h5v6h-5z"/><ellipse cx="232" cy="136" fill="#365c88" rx="82" ry="21"/><path fill="#c4b6a6" d="M225 88l-6-12 12 11z"/><path fill="#e1c8a6" d="M213 113h24v2h-24z"/><path fill="#9a9189" d="M147.6 78.1l-21.8 3.6 14.6.8-35.4-4.9z"/><path fill="#e2e8df" d="M246 89.4l.2-1 9.8 2.2-.2 1z"/><circle r="1" fill="#1c3759" transform="matrix(26.40352 4.2945 -.92746 5.70225 20.2 169)"/><path fill="#172a31" d="M249 87l-8-6-14 2z"/><path fill="#2b3d55" d="M20 76h6v15h-6z"/><path fill="#454d4b" d="M195.3 113.3l15.4-1.6 9.6-13.6-47 15.1z"/><circle cx="66" cy="80" r="6" fill="#364348"/><circle cx="74" cy="111" r="5" fill="#d2d5cf"/><path fill="#c4b59f" d="M15 93h10v4H15z"/><circle cx="53" cy="75" r="4" fill="#ddd0b7"/><path fill="#505654" d="M133.5 78.5l-41.8-7.4-9.8 12.3 5.4-19.5z"/><path fill="#b8b4b1" d="M122 63h12v5h-12z"/><path fill="#3e494c" d="M138 75h-17l18-12z"/><path fill="#fff0d1" d="M69 72l13 7v-6z"/><path fill="#f1d8c9" d="M242 101l1-5h-11z"/><path fill="#b1a796" d="M48 64l28 12-7-13z"/><circle cx="153" cy="98" r="4" fill="#cac2a8"/><path fill="#2a373b" d="M169 85l-74 2 38 10z"/><path fill="#3f4850" d="M0 103h69v8H0z"/><circle cx="244" cy="111" r="4" fill="#1c2829"/><circle r="1" fill="#16242b" transform="matrix(-7.10074 -1.65237 .6195 -2.66221 42.4 86.7)"/><circle r="1" fill="#b0a790" transform="matrix(15.07379 -4.62832 .53247 1.73419 251 103)"/><path fill="#aaa38f" d="M60.6 100.9l-16.2 2.5 11.1-8.2L53.2 69z"/><path fill="#7b6b53" d="M248 77h8v5h-8z"/><path fill="#415263" d="M205 72l4 8 16-3z"/><path fill="#394645" d="M140.3 103.7l-37 13 10.4-12.5 29.9 7.7z"/><path fill="#f2e5ce" d="M101 93h2v6h-2z"/><path fill="#cab7a7" d="M140.6 77.7l2.4-6.5 8.4 3-2.4 6.6z"/><path fill="#ece7de" d="M113.9 113.1l2-2.2 2.2 2-2 2.2z"/><path fill="#4e5967" d="M101.2 57.1l29.7 12.1-45.3-1.1 24.9-3.1z"/><path fill="#152426" d="M6.8 97.4l-15.7 3.4 1.1-6.3 15.5-4.6z"/><path fill="#475e81" d="M63 115h16v49H63z"/><path fill="#84acda" d="M16 62h8v7h-8z"/><path fill="#726e62" d="M25.2 62.4l18.7 11.8L63 71.5l-24-9.3z"/></g></g></svg>