<svg xmlns="http://www.w3.org/2000/svg" viewBox="0 0 1800 1200"><defs/><filter id="a"><feGaussianBlur stdDeviation="12"/></filter><rect width="100%" height="100%" fill="#51403f"/><g filter="url(#a)"><g fill-opacity=".5" transform="translate(3.5 3.5) scale(7.03125)"><circle cy="148" r="226" fill="#bcc8c4"/><circle r="1" fill="#160d08" transform="matrix(5.15267 50.72708 -177.5152 18.03134 207.7 81.2)"/><circle r="1" fill="#d6d9d5" transform="matrix(150.049 4.14163 -1.59466 57.77383 124 169)"/><circle r="1" fill="#d6deda" transform="matrix(7.40036 36.05173 -167.36244 34.35458 42.7 25.7)"/><circle r="1" fill="#0f0a0a" transform="matrix(12.72492 -14.0359 20.63953 18.71175 75.3 118.4)"/><circle r="1" fill="#151514" transform="matrix(29.39018 -7.99507 12.36514 45.45471 198.5 89.6)"/><path fill="#c2dced" d="M-8.5 139.9L3.7 40.6l28.8 3.5-12.2 99.3z"/><ellipse cx="85" cy="162" fill="#dedfdb" rx="187" ry="14"/><circle r="1" fill="#494742" transform="rotate(-3.9 2007 -2229.1) scale(77.84231 5.94459)"/><path fill="#48352f" d="M100 25l-2 93 96-47z"/><path fill="#ece5d0" d="M180-16l-4 56 19-11z"/><path fill="#858b8f" d="M230.6 97.3l-28.3-2.7 59.2-13.8-14.8 8z"/><ellipse cx="106" cy="60" fill="#725c55" rx="60" ry="14"/><ellipse cx="174" cy="80" fill="#141310" rx="49" ry="15"/><circle r="1" fill="#201a1b" transform="rotate(-157 27.8 49.9) scale(17.91941 6.59959)"/><circle r="1" fill="#1d1614" transform="matrix(11.12455 7.48618 -16.28032 24.19275 91.1 107)"/><path fill="#bbc2c5" d="M34.6 31.4L-16 96.8 36.3 77l20.2 12.5z"/><circle r="1" fill="#909794" transform="matrix(-3.76358 10.4434 -41.08013 -14.80443 243.2 143.5)"/><ellipse cx="29" cy="124" fill="#cbdeee" rx="29" ry="9"/><ellipse cx="147" cy="119" fill="#bcb9b5" rx="41" ry="8"/><path fill="#4f4846" d="M145 133l-11 12-12-52z"/><path fill="#000404" d="M256 12.3l16 23-32 22.4-16-23z"/><circle cx="107" cy="33" r="7" fill="#16060c"/><path fill="#9c9b96" d="M98.9 136.5l-39.9-7-72.8 34.3 161-27.9z"/><path fill="#322c2d" d="M56.9 95.9L25.9 82l17.7-9.7-15.8 49.4z"/><path fill="#d0aa93" d="M110.2 56.2l9-2.4-8.5-11.2L96.4 56z"/><path fill="#cfdde3" d="M105.2 45.8l-8.6-14.4L122 11 44.9 45.5z"/><path fill="#a89b8c" d="M95.5 114.1l-.8-2.9L164.5 90l.8 2.9z"/><ellipse cx="167" cy="51" fill="#4b3830" rx="9" ry="31"/><path fill="#e9e6dc" d="M131 125l-38-1 26-13z"/><path fill="#42312e" d="M41.9 65.6l-2.1 1.7 20.9 7.6 49.6-17.7z"/><path fill="#735949" d="M225 33L205-9l-13 55z"/><circle r="1" fill="#8d9397" transform="matrix(-29.67419 4.22326 -.30398 -2.1359 242.7 88.8)"/><circle r="1" fill="#d5d6d1" transform="matrix(2.13773 27.38834 -67.24332 5.2485 108.5 169)"/><path fill="#3f333b" d="M86 40L66 50l20-2z"/><path fill="#bfb6a5" d="M148-3l39 44 9-57z"/><path fill="#44606d" d="M-16 108.6l25.5-4.4 18.1 7.6-28.5.2z"/><path fill="#1a1918" d="M189.9 32.2l-27 61-35.9 20.4 84-24.1z"/><path fill="#34302d" d="M176.1 124.9L193 130l-17.6 1.6-80.8 1.3z"/><path fill="#534a4a" d="M104 70l15-23 21 89z"/><circle r="1" fill="#464951" transform="matrix(-7.30368 -22.74831 .95213 -.3057 33 130.7)"/><path fill="#dbd9d7" d="M45.1 114.8l-10.2 21.9 5.7 3.5 25-6.7z"/><path fill="#8e7a6a" d="M143.9-6.3l-14.1 48.9-3.5-19 16.1 9.6z"/><ellipse cx="11" cy="115" fill="#5bbaf2" rx="19" ry="5"/><path fill="#95817a" d="M124 70l5 41-14-33z"/><path fill="#c2cbcd" d="M32 62.9l19.4 9.6-3 7.4.7 7.1z"/><path fill="#c2baae" d="M178 44l-4-13 24-6z"/><path fill="#979a96" d="M238.1 121.9l-19.8 19-27.1-10.6L271 185z"/><path fill="#b6b4b2" d="M77 54.4l-34.9-1.8 25.5 10.9 25.3-9.7z"/><path fill="#60473f" d="M44.2 85.2l12.9-19 30.7 20.6-12.9 19z"/><path fill="#d6d7cc" d="M187.1 17.5l.4-13 13.5-10L220.9-16z"/><path fill="#1e1a1a" d="M71.4 92.5L87 86l13.5 33.4L85 126z"/><ellipse cx="211" cy="135" fill="#83837e" rx="37" ry="6"/><circle r="1" fill="#cbe2f1" transform="rotate(166.5 32.3 25.8) scale(19.57633 4.05826)"/><circle r="1" fill="#282724" transform="matrix(3.20819 21.21316 -54.36972 8.22265 241.4 66.6)"/><circle r="1" fill="#59686e" transform="matrix(6.86724 4.0972 -14.54375 24.37655 0 0)"/><path fill="#c6c3c1" d="M89.5 174.7l-18-9.3 1.6-35.8-9.8-7.7z"/><path fill="#45322e" d="M116 41l-15 4 4-16z"/><ellipse cx="10" cy="51" fill="#b3bfc5" rx="27" ry="41"/><path fill="#756357" d="M55.5 58l6.2 26.6 18.4 32.3-20.5-22.7z"/><path fill="#aeb6ba" d="M36 99.9l-3.7 1.5L18 66l3.7-1.5z"/><ellipse cx="239" cy="111" fill="#353431" rx="38" ry="18"/><path fill="#d6d0cd" d="M34 139l-40 9 31-33z"/><path fill="#c7c4bb" d="M119 45.3l17.2-40-93.4 20.8 66.4-5.1z"/><path fill="#969596" d="M196.7 98.7l-35.2 7.5-.2-1 35.2-7.4z"/><path fill="#6e6c67" d="M96.4 121.8l9.7 6.8 11.4 8.4-65.2 8z"/><path fill="#a3a19d" d="M-17.2 167.1l7.5-26 26.9 7.8-7.5 26z"/><circle r="1" fill="#76635f" transform="rotate(72.6 7.8 117.4) scale(2.08794 54.61151)"/><path fill="#372e2d" d="M130.6 56.3l-28.7 16.4-.4-21.4-25.1 9.2z"/><path fill="#cecdc4" d="M137 113h18v12h-18z"/><path fill="#222122" d="M86.8 105.3l4.2 26.6-17.8 2.8-4.2-26.6z"/><path fill="#604942" d="M159 66l18-40-41 18z"/><path fill="#c4b9a8" d="M151.7 10l15.6-5-6.9 27.9-23.5 8.2z"/><path fill="#1d1715" d="M124.2 86.6l7.2 15.1 16.4-33.1-20.2 6.6z"/><path fill="#2f2b2b" d="M57.9 126.7l-5.6-9.5-27.6-38.8 41.4 20.9z"/><path fill="#403b35" d="M182 105l-27-1 50 21z"/><path fill="#757474" d="M150.9 125l68.2 3-32.1-8.8-46 9.4z"/><path fill="#6f5449" d="M165 37l10 20 4-19z"/><path fill="#53443c" d="M191 15l29-31-22 46z"/><path fill="#b9bcb7" d="M200.2 185l-25-44.7 51.7 12 29.6-13.2z"/><path fill="#dfe9eb" d="M89 31h10v17H89z"/><path fill="#19181c" d="M124 110l-14-1 4 3z"/><circle r="1" fill="#2b211f" transform="matrix(-2.22555 -4.93259 7.82158 -3.52904 125.8 47.5)"/><path fill="#413934" d="M94 130h30v5H94z"/><path fill="#5d4943" d="M118.4 72.2l-50.2-4-17.1-14.5 2 37.3z"/><circle r="1" fill="#171717" transform="matrix(20.41743 3.2562 -4.71924 29.59113 250.7 47.8)"/><circle r="1" fill="#39302b" transform="matrix(-5.2199 -10.33364 19.92676 -10.06573 100.6 97.3)"/><path fill="#3b3332" d="M59.9 97.1l-43.8 2.5-3 1.2 31.7 13z"/><path fill="#1c1b1a" d="M134.5 104.4l31.3-6.6 1.7 7.8-31.3 6.6z"/><circle r="1" fill="#3f3837" transform="matrix(-2.62456 .47223 -2.16272 -12.0199 137.2 132.6)"/><path fill="#846b61" d="M142.2 62.6l-25.4 7.2 31-17.5 11.9 4.5z"/><path fill="#8e8073" d="M148.1 99.7l-23.6 8.4-17.8 4.3-16.8.3z"/><path fill="#151315" d="M72.1 102.4l-2.4-6.6L98 85.6l2.4 6.6z"/><path fill="#caaa98" d="M101 51l2 7 15-13z"/><path fill="#1e1b19" d="M199.1 39.9L162.4 68l-9.1 19.5 58.9-23.9z"/><ellipse cx="248" fill="#3f2c1d" rx="11" ry="19"/><path fill="#ccd1d2" d="M46 84l-5-13 10 2z"/><path fill="#69797f" d="M21 37l6-11-15 14z"/><path fill="#342d28" d="M229.7 28l-58.3 58.4 52.7-24.8L209.2-16z"/><path fill="#151517" d="M45 113l11-25 9 28z"/></g></g></svg>