<svg xmlns="http://www.w3.org/2000/svg" viewBox="0 0 1800 1200"><defs/><filter id="a"><feGaussianBlur stdDeviation="12"/></filter><rect width="100%" height="100%" fill="#34545e"/><g filter="url(#a)"><g fill-opacity=".5" transform="translate(3.5 3.5) scale(7.03125)"><circle r="1" fill="#ffe5da" transform="matrix(-1.68126 -57.4582 205.09955 -6.00133 187.8 43.7)"/><circle r="1" fill="#52342c" transform="rotate(85.8 -16.2 139.8) scale(59.54911 141.33426)"/><ellipse cx="242" cy="103" fill="#8b8279" rx="219" ry="23"/><circle r="1" fill="#cad0ca" transform="rotate(-179.5 115 25.4) scale(81.57027 38.78474)"/><circle r="1" fill="#788092" transform="matrix(-71.1331 -36.959 40.72 -78.3717 29.7 13)"/><path fill="#1c1f26" d="M157.4 164.9l-201.5 14-3.3-47.8 201.5-14z"/><circle r="1" fill="#91abc2" transform="rotate(-.7 3580 -7253.2) scale(120.42927 14.47785)"/><path fill="#806d5c" d="M130 23.9l-80.9-2.4-65.1-1.3L109.9-16z"/><ellipse cx="213" cy="150" fill="#393834" rx="158" ry="24"/><ellipse cx="44" cy="107" fill="#4e5264" rx="78" ry="20"/><circle r="1" fill="#78777a" transform="rotate(28.8 -133.5 72.2) scale(50.75029 17.13085)"/><circle r="1" fill="#bc9f82" transform="rotate(170.6 107 8.8) scale(41.69847 21.47719)"/><circle r="1" fill="#c19c77" transform="matrix(-14.76877 -6.67164 9.9834 -22.09988 131.9 9.6)"/><circle r="1" fill="#cac8b8" transform="matrix(2.74301 -24.42627 55.2414 6.20348 255 68.8)"/><path fill="#618ebb" d="M38.7 29.8L25.6 55.6-4.7 40.2 8.4 14.4z"/><path fill="#b8b6a9" d="M213 75l-109 7 28-39z"/><ellipse cx="89" cy="92" fill="#757c85" rx="45" ry="11"/><circle r="1" fill="#a48d72" transform="matrix(27.56409 6.6239 -2.39065 9.94821 242.6 98.4)"/><path fill="#514e58" d="M48 6.5L44 22l-32-8.5L16.2-2z"/><ellipse cx="7" cy="148" fill="#131e29" rx="29" ry="22"/><ellipse cx="83" cy="125" rx="12" ry="3"/><circle r="1" fill="#9a9a94" transform="rotate(-15.4 287 -248.8) scale(59.61426 11.32407)"/><circle r="1" fill="#161818" transform="matrix(-.19074 2.92985 -32.81652 -2.13638 196.4 162.3)"/><circle r="1" fill="#494849" transform="rotate(-178.5 55.7 58) scale(48.37218 5.62929)"/><circle r="1" fill="#acb5bb" transform="matrix(-7.85015 -25.35974 89.204 -27.61325 249 30)"/><ellipse cx="127" cy="165" fill="#404142" rx="57" ry="27"/><path fill="#706b60" d="M171 80l-71 25 171 9z"/><path fill="#8d887d" d="M234 147h22v4h-22z"/><path fill="#66635a" d="M229.1 156.3l-19.5 4.1-2.7-12.7 19.5-4.1z"/><path fill="#21201c" d="M205 136h46v9h-46z"/><ellipse cx="130" cy="124" fill="#070300" rx="27" ry="2"/><path fill="#6c6360" d="M-14.1 81.3l-2.6-20.8 30.8-3.8 2.6 20.8z"/><path fill="#c4b193" d="M228 76l-54 2 45 17z"/><circle r="1" fill="#a0aab4" transform="matrix(79.70377 -9.94049 1.49654 11.99944 161 34.2)"/><path fill="#87a4be" d="M21.5 31.4l46.8 3.3-1.8 26-46.8-3.4z"/><circle r="1" fill="#9e8c79" transform="matrix(-2.32424 15.8007 -22.49438 -3.30886 109.8 16.6)"/><ellipse cx="27" cy="116" fill="#3e434e" rx="41" ry="12"/><circle r="1" fill="#898984" transform="matrix(-30.53105 .70941 -.18726 -8.05917 133.1 87.6)"/><ellipse cx="112" cy="77" fill="#b1b8b2" rx="57" ry="4"/><circle r="1" fill="#8e7e6a" transform="matrix(.84654 5.5975 -15.05233 2.27645 209.7 2.6)"/><path fill="#8b7d6b" d="M236 167h20v3h-20z"/><ellipse cx="128" cy="126" rx="29" ry="1"/><path fill="#756a5e" d="M159 102h97v25h-97z"/><path fill="#3c434e" d="M53 156l-43 8 77 21z"/><path fill="#9a9087" d="M84 50h37v21H84z"/><circle r="1" fill="#161c23" transform="matrix(-28.9372 -6.47723 .7308 -3.26487 58.8 152)"/><path fill="#303234" d="M148 127h51v23h-51z"/><circle r="1" fill="#555d6e" transform="matrix(.46835 -7.67585 52.26012 3.18872 34 99.4)"/><path fill="#7a6d61" d="M104.4 13.5l14.5-3.7 2.7 10.7-14.5 3.7z"/><circle r="1" fill="#62605c" transform="rotate(110.4 41.5 109) scale(12.72814 32.39679)"/><path fill="#605c59" d="M131 151l16-8-17-1z"/><path fill="#212222" d="M150 160l-32-10-4 9z"/><path fill="#9b9083" d="M120 80h81v4h-81z"/><path d="M189 144h18v2h-18z"/><path fill="#131412" d="M246 157l-15-8-3 7z"/><path fill="#c6b095" d="M251 9l-41 4 51-29z"/><path fill="#92a7b3" d="M76 54L59 84l-7-16z"/><path fill="#757d8f" d="M40.2 1.1L42 8.8l12.2-.6L86.6-16z"/><ellipse cx="117" cy="159" fill="#050809" rx="30" ry="1"/><path fill="#8d95a1" d="M54.6 16.5l32.2 4 22.1-.1-76.5 20.3z"/><path fill="#444343" d="M95 140h41v18H95z"/><path fill="#c9c1ab" d="M271 56.5l-67.7 29.6 42 3.8 17.3 8.6z"/><path fill="#8a9cb3" d="M181.7 26.5l-9.7 5.1-27.7-52 9.7-5.2z"/><ellipse cx="116" cy="136" fill="#16191b" rx="30" ry="2"/><path fill="#363d49" d="M7 140h75v5H7z"/><path fill="#768495" d="M8.8 37.9l7.7 15-27.2-9.2L3.4 16.8z"/><circle r="1" fill="#b1a79e" transform="matrix(25.03205 32.9785 -6.7008 5.08618 140.4 0)"/><path fill="#1e252e" d="M77 128l-32 19-50-20z"/><path fill="#a99e91" d="M156 50l-32 18 32-1z"/><path fill="#868d92" d="M65 45h18v29H65z"/><path fill="#4c4a4a" d="M91 116h47v7H91z"/><path fill="#080805" d="M77 124h55v3H77z"/><path fill="#494b4b" d="M158 136h43v7h-43z"/><path fill="#a08a70" d="M181.1 3.5l8.8 8.8-15.4.9-4.2-25.6z"/><path fill="#1a1c1b" d="M199.2 185l-16.9-29.4 50.5 11.3-34-4.2z"/><path fill="#9e8f81" d="M54.4 19l-7.3.7-12.9-2.5 9 19.5z"/><path fill="#6c675d" d="M252 149h-12l15 8z"/><path fill="#555757" d="M136.3 185l20.5-24.4 25.5-7.7-26.6 2.3z"/><path fill="#272829" d="M169.9 136.6l-21.3-6.6 33.7 1.8-17.8 21.2z"/><path fill="#91a0a9" d="M53 82L17 71l4 10z"/><path fill="#656e81" d="M0 83h51v7H0z"/><ellipse cx="34" cy="65" fill="#958473" rx="7" ry="10"/><path fill="#5b5955" d="M128 162h18v4h-18z"/><path fill="#bea589" d="M197.1 20.7l-14 6-4.3-42.7 12.1 4z"/><ellipse cx="197" cy="169" fill="#1c1c19" rx="30" ry="1"/><path fill="#171715" d="M218 150h17v2h-17z"/><path fill="#68655e" d="M221 162l-20-15h11z"/><circle r="1" fill="#897f71" transform="matrix(1.96624 -5.13308 18.58694 7.11976 241.4 99)"/><path fill="#27282a" d="M119.3 165.7l-45.6-18 59.7 19.2-33.3 3.3z"/><path fill="#50504d" d="M194.8 162l9.4-1.3-24-12.3 10.6 2.2z"/><path fill="#514d47" d="M214 144h24v7h-24z"/><path fill="#babeb4" d="M271 51.7L158.9 62.2l-19 13.8 14.8 5.1z"/><path fill="#565c69" d="M30 165h27v2H30z"/><path fill="#14181d" d="M74 144h28v3H74z"/><path fill="#201b19" d="M146 115h4v9h-4z"/><circle r="1" fill="#302e28" transform="matrix(2.57023 -7.2581 15.93934 5.64442 243.6 137.1)"/><path fill="#03090b" d="M40.5 145.5v3h-25v-3z"/><path fill="#8ba5bc" d="M57.7 25.1L37.6 64.2l33.3-19.3 44.3 5.1z"/><path fill="#888581" d="M104.5 91.7l-40.9-2.4 8.6-11.8L82 80z"/><circle r="1" fill="#51729f" transform="matrix(-34.66744 8.56025 -.91292 -3.69716 9.5 0)"/></g></g></svg>