<svg xmlns="http://www.w3.org/2000/svg" viewBox="0 0 1200 1800"><defs/><filter id="a"><feGaussianBlur stdDeviation="12"/></filter><rect width="100%" height="100%" fill="#533d37"/><g filter="url(#a)"><g fill-opacity=".5" transform="translate(3.5 3.5) scale(7.03125)"><circle cy="192" r="135" fill="#e3e5e6"/><circle r="1" fill="#fff" transform="rotate(-60.9 5.8 -9.9) scale(113.238 28.17598)"/><circle r="1" fill="#201f2d" transform="rotate(-51 233.6 19.5) scale(51.87512 20.17716)"/><circle r="1" fill="#edf9ff" transform="matrix(-17.37762 -4.13993 10.7929 -45.30383 116 204.4)"/><circle r="1" fill="#e3c9b9" transform="rotate(-75 111 -3.4) scale(61.00242 15.77729)"/><path fill="#26271f" d="M20 24h72v56H20z"/><path fill="#390d00" d="M28.6 276.9l-6.7-25.1L91.4 233l6.7 25.1z"/><path d="M116 129l49 82 1-68z"/><circle r="1" fill="#eaeff3" transform="matrix(-5.80214 -10.00296 46.01795 -26.69238 71.7 144.8)"/><circle cx="169" cy="75" r="66" fill="#365869"/><path fill="#f0f4f4" d="M76 183l48 65 9-54z"/><circle r="1" fill="#091816" transform="matrix(-5.6335 -19.26508 72.2488 -21.12703 97 9.9)"/><circle r="1" fill="#b4c7be" transform="matrix(-19.38942 -2.89438 12.36084 -82.8053 1.2 43.7)"/><path fill="#e2d3c9" d="M48 247l-25-84-4 72z"/><path fill="#9e7b66" d="M185 239l-16.5-27.3-34.8-20.1-5.7 30.5z"/><path fill="#9ea5aa" d="M130 108h21v27h-21z"/><path fill="#534b54" d="M60 184l57 2-18-49z"/><circle r="1" fill="#cae5ff" transform="matrix(6.10875 2.49348 -14.94388 36.61093 8 155.3)"/><circle r="1" fill="#462d23" transform="matrix(-11.15416 4.03775 -6.84084 -18.89762 28.2 75)"/><path fill="#191a1f" d="M87.1 203.4l-41.6 30-10-45.9 11.4 17.6z"/><circle r="1" fill="#ecf7ff" transform="matrix(14.51057 31.86152 -3.2466 1.47859 117 136.8)"/><circle r="1" fill="#151410" transform="matrix(-8.2735 8.57638 -20.68115 -19.95076 141 81.2)"/><circle r="1" fill="#b58f7a" transform="matrix(-13.86324 -26.27846 35.82459 -18.89932 63 108)"/><ellipse cx="9" cy="236" fill="#8f674a" rx="12" ry="58"/><path fill="#5f7793" d="M153 77l-35-57 37 3z"/><circle r="1" fill="#886d57" transform="matrix(-14.5986 12.29316 -17.9552 -21.32248 98.3 59)"/><path fill="#bcbdc1" d="M130 259.2l-31.1-61.8-37.1 39 25.8-1.2z"/><path fill="#19232b" d="M48 172l-1 14 31-26z"/><path fill="#000108" d="M126 142l39-15-18 72z"/><circle cx="25" cy="3" r="18" fill="#d5dcc7"/><path fill="#ebe5df" d="M29 167h16v23H29z"/><circle r="1" fill="#11191b" transform="matrix(3.8304 -.12468 2.89972 89.0865 158.9 49.3)"/><ellipse cx="169" fill="#aec2c5" rx="2" ry="75"/><circle r="1" fill="#f7dfca" transform="matrix(-3.017 14.84609 -4.66043 -.94708 97.8 87.3)"/><path fill="#e7ebec" d="M132.5 192.6l5.3 6-15.9-43.8 17.2 21.8z"/><circle r="1" fill="#3d1803" transform="matrix(4.4534 -9.1542 25.26538 12.29127 151.9 241.5)"/><circle r="1" fill="#0e0f11" transform="matrix(4.5222 -.71625 1.60937 10.16115 82.3 203.1)"/><path fill="#ad9399" d="M49 171.7l21.9 24.7-5 30.9 10.9-35.8z"/><circle r="1" fill="#997d66" transform="rotate(20.1 -456.3 141.8) scale(9.24915 65.21689)"/><path fill="#ebf4fc" d="M70.7 158.9l18.8-6.6L48.3 138l-3.3 9.5z"/><path fill="#2d2d34" d="M82 122h17v4H82z"/><path fill="#7b3e15" d="M91 251l56-2-6 22z"/><path fill="#92a0a4" d="M16.5 115.7l-21.2 58.2L-16 23.8l37.3 17.4z"/><path fill="#91736b" d="M54.3 52.5l9.9 93.4L80 78.6 23.8 97.8z"/><path fill="#cec9cc" d="M90.3 172.4l-11.8 19.4 17.8-16.1 30.6 95.3z"/><path fill="#b4bdd2" d="M103.9 143.5L90.8 133l28.4-5.1 6.5 73.3z"/><path fill="#21221d" d="M18 39l17 47-5-72z"/><circle r="1" fill="#111919" transform="matrix(32.5626 -2.67397 1.08852 13.25556 133.3 8)"/><path fill="#595042" d="M101 46L66-10l55 49z"/><ellipse cx="98" cy="192" fill="#faffff" rx="15" ry="4"/><path fill="#3b333b" d="M35.1 192.9l13.3-1 29.4 38.3-40.9-15.1z"/><ellipse cx="55" cy="115" fill="#e5cab2" rx="5" ry="14"/><path fill="#bfaeba" d="M60.6 197.5l6.3-2.1-7.7-14.7 7.4-12.9z"/><path fill="#cead91" d="M37 145L21 257l-9-54z"/><path fill="#70564c" d="M159 229l-32 1 7-35z"/><path fill="#0e2129" d="M118 125l-7-15 21 16z"/><path fill="#363339" d="M45 179.8l14.8 62.3L72.4 179l-2.9 24.2z"/><path fill="#684952" d="M65 158l-7 4-3-11z"/><path fill="#292b29" d="M167 112.8l-44.5-42.9L102.9 2l24 40.4z"/><path fill="#726a78" d="M79 153.4l30.5 31.3 33.3-8.6-17.1 12.4z"/><path fill="#161a21" d="M79 173.5l3-21.7 5 .7-3 21.7z"/><path fill="#797d82" d="M126 105h28v20h-28z"/><path fill="#9ba8ab" d="M30 103l-16 32-24-106z"/><path fill="#a0a2aa" d="M96 250l17-10-30-50z"/><path fill="#405a77" d="M118 115l-19-13 21-35z"/><path fill="#d197a6" d="M70.6 191.3l.4 1-29.6 14.4-.4-1z"/><path fill="#0e181c" d="M116 118l20 53 3-32z"/><path fill="#17272d" d="M167 211v-52l-33 27z"/><path fill="#4c434a" d="M98 151h12v37H98z"/><path fill="#59575e" d="M37.4 180.5l22 6.4-1.8-24.1-25.9 30.7z"/><path fill="#33353b" d="M93.8 140l10 1.2-1.6 12.9-10-1.3z"/><ellipse cx="169" cy="130" fill="#506165" rx="5" ry="81"/><circle r="1" fill="#d8d8db" transform="matrix(5.28242 -10.0657 4.63506 2.43245 79.3 225)"/><path fill="#e3ebf3" d="M66.5 164.4l-28.8 4.4 43.4-10-5-25.3z"/><path fill="#e1c7b8" d="M81 75l-3 43 13 2z"/><path fill="#e2e9ee" d="M47 150l-12 8 7 31z"/><path fill="#e2d6c9" d="M27 176h7v54h-7z"/><path fill="#9eafd2" d="M29.6 246.8l3.2-46.9 16.7 48.2 2.2-18z"/><path fill="#eef3f9" d="M119 129l-20 1 9-21z"/><path fill="#485142" d="M27 0h3v15h-3z"/><path fill="#c2c0b1" d="M29.2 20.5L-3.6 66.2 21.9 56-7.5-16z"/><circle r="1" fill="#684e45" transform="rotate(85.9 -135 129.5) scale(27.63469 6.13262)"/><path fill="#9d909b" d="M121 177l-26-7-7-14z"/><path fill="#e3c7ac" d="M132 194l11 6-12-18z"/><path fill="#5f453e" d="M74.2 255.7l5-21.4-58.8 21.1-4.2 8.3z"/><path fill="#fcebf7" d="M45 185l-9 9 13-6z"/><path fill="#65473f" d="M89 67l11 13-50-6z"/><path fill="#252d35" d="M160.5 81l-27.4 27.3L106.4 96l45.5-25.9z"/><path fill="#2d150d" d="M129 226l-3 14h52z"/><path fill="#b39681" d="M106 45.7l-23.9 57.1 27.7-50 .2-8.8z"/><path fill="#dbdede" d="M110 188h12v62h-12z"/><path fill="#393431" d="M29 28L17 69l71-7z"/><path fill="#e4e3e9" d="M107 150l5-13-13-2z"/><circle r="1" fill="#6c5148" transform="matrix(7.3402 -4.20377 8.7186 15.22353 28.3 82.2)"/><path fill="#7d7b7f" d="M93 121h7v14h-7z"/><path fill="#110f14" d="M76 188h6v24h-6z"/><path fill="#6e5f64" d="M109.7 181.7l-25.4 9.6 1.3-3.5 19.7-29z"/><path fill="#c9aa99" d="M34.9 98.9l29-15.5-4.5 15.4-26.1 10.3z"/><path fill="#7f4e57" d="M56 103h33v3H56z"/><path fill="#262520" d="M60.9 75.6l12.3-3.5L41.1-1.6 80 5.2z"/></g></g></svg>