<svg xmlns="http://www.w3.org/2000/svg" viewBox="0 0 1800 1200"><defs/><filter id="prefix__a"><feGaussianBlur stdDeviation="12"/></filter><rect width="100%" height="100%" fill="#31505d"/><g filter="url(#prefix__a)"><g transform="translate(3.5 3.5) scale(7.03125)"><circle r="1" fill="#fff" fill-opacity=".5" transform="matrix(-238.54467 -15.4109 4.01146 -62.09322 145.6 49)"/><ellipse cx="105" cy="118" fill="#948f83" fill-opacity=".5" rx="255" ry="27"/><circle r="1" fill="#c9dafe" fill-opacity=".5" transform="matrix(243.0871 4.82435 -.72576 36.56905 124.7 56.9)"/><circle r="1" fill="#8da9bb" fill-opacity=".5" transform="rotate(34.6 -89.9 450.4) scale(32.83457 23.91382)"/><path fill="#84a4e2" fill-opacity=".5" d="M271 9L-3 56l6-72z"/><circle r="1" fill="#1e2d24" fill-opacity=".5" transform="rotate(73.5 -59 113.6) scale(36.19311 21.09347)"/><ellipse cx="134" cy="135" fill="#fce3cf" fill-opacity=".5" rx="42" ry="5"/><circle r="1" fill="#29332b" fill-opacity=".5" transform="matrix(14.65007 -26.02556 14.64046 8.24127 187 130.4)"/><ellipse cx="5" cy="121" fill="#7f99a9" fill-opacity=".5" rx="40" ry="32"/><path fill="#7b9edd" fill-opacity=".5" d="M146.7 44.4l7.1-81.6 123.5 10.8-7.1 81.6z"/><ellipse cx="195" cy="86" fill="#fffff3" fill-opacity=".5" rx="213" ry="5"/><path fill="#eaebda" fill-opacity=".5" d="M120 0h13v59h-13z"/><ellipse cx="134" cy="129" fill="#a09381" fill-opacity=".5" rx="79" ry="6"/><path fill="#4e605a" fill-opacity=".5" d="M67 102h116v21H67z"/><circle r="1" fill="#273f32" fill-opacity=".5" transform="matrix(54.3956 -15.57972 6.29223 21.96892 45.4 163)"/><path fill="#655139" fill-opacity=".5" d="M148.6 69.7l14.7 2.8-1.9 9.8-14.7-2.8z"/><ellipse cx="129" cy="161" fill="#5d604e" fill-opacity=".5" rx="45" ry="20"/><path fill="#4a2e17" fill-opacity=".5" d="M97 74h9v8h-9z"/><path fill="#e3e6e4" fill-opacity=".5" d="M162 73h94v20h-94z"/><path fill="#faddbe" fill-opacity=".5" d="M96 123h24v5H96z"/><circle r="1" fill="#2b3c2d" fill-opacity=".5" transform="matrix(-26.88543 -5.01403 3.17883 -17.04498 192.7 155.3)"/><path fill="#888e87" fill-opacity=".5" d="M80 92h66v21H80z"/><path fill="#31382f" fill-opacity=".5" d="M123.7 130.9l16.5-7.5 41.7-1.7-62.2-9.3z"/><ellipse cx="43" cy="66" fill="#fffff2" fill-opacity=".5" rx="4" ry="23"/><path fill="#141e28" fill-opacity=".5" d="M209.2 126.2l-14.2 4.6-6.2-19 14.2-4.6z"/><path fill="#fff" fill-opacity=".5" d="M82 72h13v18H82z"/><path fill="#fffff8" fill-opacity=".5" d="M210 47h7v36h-7z"/><path fill="#798d97" fill-opacity=".5" d="M210 93h46v56h-46z"/><path fill="#6e6049" fill-opacity=".5" d="M132.8 65.2l-.6 12-7-.4.6-12z"/><path fill="#679f92" fill-opacity=".5" d="M143 51l-3 21-9-41z"/><path fill="#b1bac2" fill-opacity=".5" d="M182 78h64v9h-64z"/><circle r="1" fill="#5c7a89" fill-opacity=".5" transform="rotate(-28.4 289.8 -4) scale(23.77765 7.91564)"/><path fill="#f0eada" fill-opacity=".5" d="M112 70l29.4 9.6L138 90l-29.4-9.6z"/><path fill="#7f8885" fill-opacity=".5" d="M107.8 115.2l15.5-30.8 21.7 28.2 9.7-33.8z"/><path fill="#eee5df" fill-opacity=".5" d="M135.6 85.3l-4.1 23.8-.1 1.5-3.4-1.7z"/><path fill="#36312d" fill-opacity=".5" d="M120 16l-6 5-3-8z"/><path fill="#ffe2c3" fill-opacity=".5" d="M150 123l15 6 3-6z"/><path fill="#55574e" fill-opacity=".5" d="M9.8 93.9l2.9-3.2 6.8 1.2 42.3 10.6z"/><path fill="#3f5758" fill-opacity=".5" d="M167.1 136.8l22.5-30 17.2 48.3 41.2-6.4z"/><ellipse cx="188" cy="98" fill="#e4c7aa" fill-opacity=".5" rx="26" ry="3"/><path fill="#212d32" fill-opacity=".5" d="M107 121l-63 3 6-17z"/><ellipse cx="31" cy="8" fill="#8ca6d1" fill-opacity=".5" rx="84" ry="34"/><ellipse cx="105" cy="135" fill="#cac4bf" fill-opacity=".5" rx="14" ry="5"/><circle r="1" fill="#fffffd" fill-opacity=".5" transform="matrix(81.06788 -1.0546 .03167 2.4347 226.9 89)"/><path fill="#bfa993" fill-opacity=".5" d="M58 105l40-10-52-1z"/><path fill="#899cab" fill-opacity=".5" d="M268.1 126.9l-5 25.5L226 145l5-25.5z"/><path fill="#0f4e52" fill-opacity=".5" d="M-5.3 148.7l-10.1 2.5L48 137.9l-36.1 11.5z"/><path fill="#53605f" fill-opacity=".5" d="M94.9 154.4L78.8 98.6l-19.7 36.3 119.2 15.7z"/><circle r="1" fill="#7e9dd3" fill-opacity=".5" transform="rotate(8.3 32.3 1652.5) scale(51.56207 23.98162)"/><path fill="#f9f7f1" fill-opacity=".5" d="M-1.4 88.2L134.3 86l-82.5 4.5-7.7-15.7z"/><path fill="#a9b9cd" fill-opacity=".5" d="M110 16L-7 51l146-4z"/><path fill="#afb8ba" fill-opacity=".5" d="M-14.9 131.6l18.5-2.1 62.8-47.9-82.4 58z"/><circle r="1" fill="#788689" fill-opacity=".5" transform="matrix(22.08904 -.89808 .48853 12.0159 225.8 108)"/><path fill="#253c33" fill-opacity=".5" d="M198.2 144.6l72.8 20.6V185l-95.3-42.8z"/><path fill="#f8f4e5" fill-opacity=".5" d="M125 58l14 15-6-22z"/><path fill="#63564d" fill-opacity=".5" d="M93 80l15-1 1-5z"/><path fill="#9eb1cf" fill-opacity=".5" d="M132 11h67v34h-67z"/><path fill="#6a7f7c" fill-opacity=".5" d="M142 105h46v13h-46z"/><circle r="1" fill="#617881" fill-opacity=".5" transform="matrix(-.9634 .26809 -6.2331 -22.39905 202.4 125.5)"/><path fill="none" stroke="#00373a" stroke-opacity=".5" stroke-width=".5" d="M184.8 137.2q50 12.1 84.6 19"/><ellipse cx="66" cy="92" fill="#657d7c" fill-opacity=".5" rx="38" ry="2"/><path fill="#cac6c1" fill-opacity=".5" d="M144 133l-12 9-27-8z"/><circle cx="190" cy="66" r="21" fill="#acc1db" fill-opacity=".5"/><circle r="1" fill="#0e464d" fill-opacity=".5" transform="rotate(169.4 -6.9 74.5) scale(72.96515 1)"/><circle cx="141" cy="126" r="3" fill="#fddcbb" fill-opacity=".5"/><ellipse cx="164" cy="94" fill="#627b7b" fill-opacity=".5" rx="30" ry="2"/><path fill="#fffffa" fill-opacity=".5" d="M184 87l-13 3-10-22z"/><path fill="#6c7171" fill-opacity=".5" d="M107.8 137.3l32.9 4.1-53.8 6.3 63 6.5z"/><path fill="#004146" fill-opacity=".5" d="M292.6 160.4l-.2 1-93-19.8.2-1z"/><path fill="#778996" fill-opacity=".5" d="M52.6 138.3l.6-14.5-65.1 2.4-4.1 22.5z"/><path fill="#b7a692" fill-opacity=".5" d="M192 96.9l5.7 10.8-60-10.1 6.8-1.9z"/><path fill="#1b1b21" fill-opacity=".5" d="M41.6 123.9l15.3-26.4-5.4 20 4.3 4.1z"/><path fill="#3a4b45" fill-opacity=".5" d="M121.4 114.8l-67.2 8.6 55.9-1.7 28 10.7z"/><ellipse cx="68" cy="158" fill="#273e39" fill-opacity=".5" rx="28" ry="21"/><path fill="#fffffd" fill-opacity=".5" d="M18 85h97v4H18z"/><circle r="1" fill="#08070b" fill-opacity=".5" transform="matrix(-1.72867 -.46835 3.21108 -11.8519 49.8 113)"/><path fill="#c4d0d8" fill-opacity=".5" d="M80 85.1l-96-2.3 157-27-52.5 14.5z"/><path fill="#c9c9c6" fill-opacity=".5" d="M108.5 85.9l21.7-11.6 8.5-10.7 16.2 30.7z"/><path fill="#6b8490" fill-opacity=".5" d="M197.4 122.4l43.9 16.4-23.9 10.6 17.1 4.9z"/><path fill="#e5eae6" fill-opacity=".5" d="M130.1 41l1.5-38-21.9 73.7 12.6-57.1z"/><path fill="#002327" fill-opacity=".5" d="M32 149l-51.8 15-.3-1 52-15z"/><circle r="1" fill="#cbd0d3" fill-opacity=".5" transform="matrix(6.9054 -1.79256 .98466 3.79315 119.2 9.2)"/><path fill="#687a77" fill-opacity=".5" d="M127 124l-82-24 64 1z"/><path fill="#7b6c5b" fill-opacity=".5" d="M84 129h95v3H84z"/><path fill="#a1badf" fill-opacity=".5" d="M256.3 45.2l-16.4 35.6-45-53-37.6 28.9z"/><path fill="#0d0506" fill-opacity=".5" d="M207.8 124.4l-3.8 1.3-5.8-18.1 3.8-1.3z"/><path fill="#f9f9f5" fill-opacity=".5" d="M191.8 89.3l-39 3-2.3-7-2.4-3.8z"/><path fill="#554b3f" fill-opacity=".5" d="M120.5 73.8l-1 .2-2-9.8 1-.2z"/><circle r="1" fill="#75898f" fill-opacity=".5" transform="rotate(14.9 -475.2 1021.2) scale(46.50612 1)"/><path fill="#3c514d" fill-opacity=".5" d="M111.7 152.9l-37.1 4.4-28.3 23.9L168 149.7z"/><path fill="#b6bcbc" fill-opacity=".5" d="M213.8 104.6l29 26-.6.8-29-26z"/><path fill="#7d7872" fill-opacity=".5" d="M96 75l13-2-1 6z"/><ellipse cx="130" cy="8" fill="#eeece7" fill-opacity=".5" rx="2" ry="54"/><path fill="#465955" fill-opacity=".5" d="M147 113l-2.3-10.5-12.8 10.4 63 18.4z"/><path fill="#eeede6" fill-opacity=".5" d="M81.3 79.3l-5.7 8.5L95.9 80l13.7-3.1z"/><path fill="#6f8493" fill-opacity=".5" d="M-1 154.8l61.8-16.6.2 1-61.8 16.6z"/><path fill="#e2e5e4" fill-opacity=".5" d="M203.1 60.9l9.8 12.2-1.9 14.7 26.8-9z"/><path fill="#2d423d" fill-opacity=".5" d="M76.1 116.1l-2.9 11.8L-16 185l104.4-59.5z"/><path fill="#bfcfe3" fill-opacity=".5" d="M145 64h62v7h-62z"/><path fill="#54615d" fill-opacity=".5" d="M200.6 103.5l2.1-3.4 6.7 4.4-2.1 3.4z"/></g></g></svg>