<svg xmlns="http://www.w3.org/2000/svg" viewBox="0 0 2857 2832"><defs/><filter id="a"><feGaussianBlur stdDeviation="12"/></filter><rect width="100%" height="100%" fill="#59462b"/><g filter="url(#a)"><g fill-opacity=".5" transform="translate(5.6 5.6) scale(11.16016)"><circle r="1" fill="#c1f8c6" transform="rotate(169.7 68 67.8) scale(255 167.2914)"/><circle r="1" fill="#443b1a" transform="matrix(23.06604 43.58952 -51.1229 27.05244 110.6 137)"/><circle r="1" fill="#d7e2d7" transform="matrix(14.23663 64.21012 -25.88346 5.73887 255 189.2)"/><circle r="1" fill="#361902" transform="rotate(-137 87.7 49.3) scale(50.37615 12.04525)"/><circle r="1" fill="#acc29b" transform="matrix(30.33583 69.1628 -44.47483 19.50732 227.2 60.2)"/><path fill="#4b2810" d="M150.7 137.1l-27-16.2 43.6-11.3 17.6 8z"/><circle r="1" fill="#b8d1a0" transform="matrix(16.38662 7.24893 -3.72714 8.42542 140 101.3)"/><circle r="1" fill="#aec89c" transform="matrix(-10.18225 48.75215 -16.82504 -3.51403 28.2 127.6)"/><ellipse cx="63" cy="165" fill="#6a8f66" rx="20" ry="44"/><ellipse cx="128" cy="233" fill="#b4c395" rx="15" ry="64"/><path fill="#afc496" d="M147 134h18v31h-18z"/><path fill="#fff" d="M235.5 195l-8.7-2 9.7-42 8.7 2z"/><circle r="1" fill="#38250b" transform="matrix(5.55465 1.94893 -17.59861 50.15792 100.8 131.3)"/><path fill="#93b080" d="M4 0h102v107H4z"/><ellipse cx="123" cy="29" fill="#c4d9aa" rx="8" ry="48"/><ellipse cx="112" cy="178" fill="#88a67f" rx="7" ry="38"/><path fill="#292205" d="M67 114h33v18H67z"/><circle r="1" fill="#769166" transform="matrix(-17.30842 -15.86999 22.94577 -25.02553 87.7 85.6)"/><path fill="#e8eec1" d="M198.2 67.5l6.4-12.9 7.9 15.1-18 22.7z"/><path fill="#9dae8e" d="M174.6 269l-11.4-59 98.2-19 11.4 59z"/><circle r="1" fill="#86a276" transform="matrix(-16.30537 14.76369 -8.91638 -9.84747 71.7 152.8)"/><path fill="#6c875c" d="M102 259l15-33-68-81z"/><path fill="#d8e6bd" d="M31.1 108.1l8.6-2.6L51 142l-8.6 2.6z"/><circle r="1" fill="#b5ca9f" transform="matrix(5.78174 -7.0362 16.20367 13.31477 65.7 69)"/><path fill="#c2d5ac" d="M25 48l-3-59L7 37z"/><path fill="#e8e9c4" d="M122.5 181.6l-.9.4-18.1-35.6.9-.4z"/><path fill="#fdffd2" d="M118 223h6v24h-6z"/><path fill="#c9d8cb" d="M192.8 153.7l18.5 16.3 28 37.6 1.7-23.1z"/><path fill="#748f69" d="M209.1-8.9l14.5 29.7-20.7 10-14.5-29.6z"/><path fill="#556d4e" d="M54 207l65-36-59 1z"/><path fill="#a4ba90" d="M161 85l-28-39 138-32z"/><path fill="#30321a" d="M113 134l47 54-42-24z"/><path fill="#c2d1a8" d="M72.3 67.4l-11-53.3 4.4 7.5L47.2-2.9z"/><ellipse cx="250" cy="94" fill="#859a78" rx="13" ry="45"/><path fill="#748e79" d="M249 167h7v33h-7z"/><path fill="#52643d" d="M131 84l-31-14 4 18z"/><circle cx="132" cy="103" r="6" fill="#dce0b3"/><path fill="#7d9569" d="M79 37l64 70 64 10z"/><path fill="#7a9469" d="M54 79l-69-55 46 76z"/><ellipse cx="146" cy="121" fill="#583c21" rx="28" ry="10"/><circle r="1" fill="#728c66" transform="matrix(5.64457 -4.71178 16.96985 20.32935 138.8 187.8)"/><ellipse cx="1" cy="126" fill="#7c9c71" rx="27" ry="25"/><path fill="#b5c59b" d="M-6.5 160.4l18.3 4.1 17.3-18.1-4.4 51.5z"/><path fill="#acb68b" d="M161.9 187l-8-49-18.7-.3 13.2 12.1z"/><circle r="1" fill="#97ad8a" transform="matrix(18.02242 -18.53315 19.13455 18.60725 213.6 144.2)"/><path fill="#b7c89e" d="M77 31l-9-47 23 26z"/><path fill="#c5d3a8" d="M43 118L12 99 5 70z"/><path fill="#bacead" d="M227.8 9.7l54 18.5-5.6 16.1-54-18.5z"/><path fill="#c6d2a7" d="M118 180.7l21.7 25.1 12.5 32.9-31.1-52.3z"/><path fill="#feffdb" d="M122.5 17.7l1-.3 12 32.9-1 .3z"/><path fill="#829a74" d="M69 185h54v26H69z"/><circle r="1" fill="#788f61" transform="rotate(103.2 -71.8 148.4) scale(14.50225 37.92777)"/><path fill="#3f371e" d="M77 188l18-54 7 34z"/><path fill="#acbd8e" d="M47 202.6L65.4 248l-8.4 3.4L38.6 206z"/><circle r="1" fill="#638159" transform="matrix(9.39075 -.50858 .68897 12.72156 69.8 137.5)"/><circle cx="51" cy="158" r="19" fill="#8ba179"/><path fill="#7c9969" d="M140 8h17v46h-17z"/><path fill="#583e24" d="M147.6 150.4l-10.4-11.5-29.3-11.6 47.4 65.2z"/><path fill="#97ae81" d="M96 112l-9-15 27-14z"/><path fill="#abbca0" d="M246.3 132l-37 74.8-5.8-27.4 11.3-5.5z"/><circle r="1" fill="#95a77f" transform="matrix(-10.50347 -5.30568 50.35442 -99.6848 153.5 208.6)"/><path fill="#77936c" d="M70 52l35-29-1 56z"/><path fill="#f2f3db" d="M227 181.8l14.3-27 3.2-17.9 7.1 17.9z"/><path fill="#533e20" d="M103 158l-19-33 39-38z"/><path fill="#a19f75" d="M144 105.8l.5-5.2-30.8 15.6-.7 5.7z"/><path fill="#869b72" d="M216.1 73.4L271 96.1l-39-35.3-3.5-21.1z"/><circle r="1" fill="#859f76" transform="matrix(-8.0986 26.82383 -12.80018 -3.8646 178 77.5)"/><path fill="#b0be96" d="M220.5 114.4l-28.3-23.8 19.3-23 28.3 23.8z"/><path fill="#80976d" d="M33 46l-1-62 33 66z"/><path fill="#3a3517" d="M113.8 104.3l-19.4 34.5-36.7-20.2 54.5-9.9z"/><path fill="#80966a" d="M96 142.5l-50.3-33.9-5.6 16.3 77.5 23.8z"/><path fill="#678459" d="M71.7 80.9l-13.5 40.3 7.6-6 26.4-2.1z"/><path fill="#829a6f" d="M172 112l-55-90 17 78z"/><path fill="#969d73" d="M137 135l-23-16 2 10z"/><path fill="#f8ffff" d="M235.5 200h-4l1-28h4z"/><circle r="1" fill="#c2d8ad" transform="matrix(1.60911 -1.64978 22.451 21.89748 106.4 0)"/><path fill="#74956e" d="M23 168h23v27H23z"/><path fill="#634a2c" d="M131.3 133.8l2.6-18.8 22.8 3.2-2.6 18.8z"/><path fill="#b6c398" d="M151 217l-36.2 13.5 6.1-24.1 24.3 29.2z"/><path fill="#c5d3ae" d="M195.2 23.1L172.1 47l27.1 2.2-18-11.8z"/><path fill="#c1d0a6" d="M121 7h4v73h-4z"/><circle r="1" fill="#809264" transform="rotate(-171.5 84.4 120.4) scale(24.02526 7.17387)"/><path fill="#7f956c" d="M153.4 137.4l51.9-39.3-30.5 29.4-9.9 34.5z"/><path fill="#6f6641" d="M110.9 69.9l17.5 18.8-25.5 73 15.7-47z"/><path fill="#c8dab1" d="M48.3 101.6L40.4 116l12 26-24.5-36z"/><path fill="#88a088" d="M213.1 228.7l-14.3-37.4 26.1-10 14.3 37.4z"/><path fill="#8ba377" d="M23.3 97.2l72.9-15.9L1.3 85l-2.8 1.1z"/><path fill="#738e6b" d="M86.8 194.9l17.9-2.5 25.8 11.4-28.8-37.2z"/><circle r="1" fill="#dee7b9" transform="matrix(8.5989 -18.76385 1.64718 .75485 201.5 71.8)"/><path fill="#786544" d="M96.9 141.4l16.1-11.8 3.4 23.4 1.1 9.3z"/><path fill="#6f8663" d="M144.4 191.6l-4 15.8 20.7-20.4-6.5-7.3z"/><circle r="1" fill="#b0b997" transform="matrix(-14.91989 41.68766 -15.39011 -5.50807 252 252)"/><circle r="1" fill="#b5c7a0" transform="matrix(4.95869 15.56516 -4.43182 1.41187 24.4 145)"/><path fill="#92a885" d="M212 51.4l-24.6-11L198 16.6l24.6 11z"/><circle r="1" fill="#97aa7d" transform="matrix(-6.72198 -3.5639 10.87247 -20.50694 76.9 219.9)"/><path fill="#b4c09a" d="M204.6 114.8l-.2 25.1 7.5-34.7 33.1 26.4z"/><path fill="#9fb182" d="M104 63.3l-6.5-4.6 22.4-32 6.6 4.6z"/><path fill="#798f69" d="M149 90l51 42-27-52z"/><path fill="#9fb386" d="M175 26l-4 48-24-44z"/><path fill="#99ab87" d="M153.7 173.5l-7.8-26.4 92.4 89.5-59.8-43.7z"/></g></g></svg>