<svg xmlns="http://www.w3.org/2000/svg" viewBox="0 0 1800 1200"><defs/><filter id="a"><feGaussianBlur stdDeviation="12"/></filter><rect width="100%" height="100%" fill="#5d403a"/><g filter="url(#a)"><g fill-opacity=".5" transform="translate(3.5 3.5) scale(7.03125)"><circle r="1" fill="#dbfbff" transform="matrix(79.69109 184.13567 -147.77208 63.95349 124.8 63.5)"/><circle r="1" fill="#fff" transform="matrix(189.69582 -13.93039 4.11633 56.05377 119 0)"/><circle r="1" fill="#4a4847" transform="matrix(8.64288 -24.27203 64.53635 22.98036 199.8 108)"/><circle r="1" fill="#675c55" transform="matrix(-186.74898 -58.16583 9.33112 -29.95876 76.3 138.8)"/><circle r="1" fill="#2f0000" transform="rotate(42.3 68.6 267.1) scale(50.44138 5.03955)"/><path fill="#0d0000" d="M159 73h18v49h-18z"/><path fill="#fde8cd" d="M89.2 131.5l-.4-28 62-1 .4 28z"/><circle r="1" fill="#647d99" transform="matrix(1.41633 23.84219 -91.45586 5.43288 74.4 80)"/><circle r="1" fill="#18120e" transform="matrix(47.48594 5.67388 -.60244 5.04194 197.7 122)"/><path fill="#400d00" d="M218.8 48.6L271 76.1l-15.9-19-62.7-30.7z"/><circle r="1" fill="#8496a4" transform="matrix(8.29718 -22.92072 42.61546 15.42658 221.5 96.5)"/><circle r="1" fill="#c7dbe8" transform="matrix(-9.25222 16.4051 -42.55578 -24.00078 230 20.8)"/><ellipse cx="39" cy="24" fill="#e1e9ec" rx="146" ry="33"/><circle r="1" fill="#816237" transform="matrix(-46.77386 23.29714 -2.76014 -5.54155 208.6 156.5)"/><path fill="#fff7dd" d="M185 108l-7 10 38-5z"/><path fill="#47494f" d="M20 142l81 12-6-30z"/><path fill="#d7dddf" d="M183.8 30.8L168-14.7l-22 70.2 87.8 1.3z"/><path fill="#f3d8ba" d="M-16 121.9v24.8l34.9 15.9 32.2 22.2z"/><path fill="#3c3029" d="M181.9 117.7l66 13.2-100-9.4 20.5-62.2z"/><path fill="#a5907c" d="M231 178l-130-28-17-48z"/><path fill="#beb09b" d="M226.7 133.2l-53.1-11.1 33.7 31.9 47.9-27.6z"/><circle r="1" fill="#788a9c" transform="matrix(-4.4549 19.15271 -72.97973 -16.97499 244.9 81.9)"/><path fill="#ffffe1" d="M212 115h20v5h-20z"/><path fill="#ffedc7" d="M124 78h41v3h-41z"/><path fill="#562511" d="M203 35l-27-48 5 28z"/><circle r="1" fill="#ffecce" transform="rotate(-80 188.5 -79.2) scale(2.12651 20.84022)"/><ellipse cx="208" cy="123" rx="12" ry="6"/><circle r="1" fill="#6c7e8e" transform="matrix(6.10593 -24.15745 62.6515 15.83553 19.9 86)"/><ellipse cx="216" cy="159" fill="#756c60" rx="139" ry="5"/><circle r="1" fill="#866241" transform="matrix(25.47454 10.34484 -2.40543 5.92346 2.7 162.8)"/><path fill="#f3edde" d="M91.3 98.3l66.8 27-3.4 8.4-66.8-27z"/><path fill="#cab29a" d="M173.1 133.2L171 98.5l9.4 44.2-54-34.3z"/><ellipse cx="253" cy="109" fill="#4e5c6e" rx="39" ry="9"/><circle r="1" fill="#736655" transform="matrix(-87.08362 -30.01313 .40644 -1.17929 205.4 151.3)"/><path fill="#a6a7a3" d="M175 86h55v10h-55z"/><path fill="#6a5234" d="M176.1 185l48.9-42.3 46-12.8-37.6 17.6z"/><path fill="#c8d2d6" d="M255-13l-42 45 43 24z"/><path fill="#8091a3" d="M108.9 56.6l48 36.9-26.3 9.1L-16 57z"/><path fill="#502b1b" d="M271 61.6v5.8l-17.3-1.2-42-23.4z"/><path fill="#181a21" d="M167.6 111l-13.5 6.7-.7-25.1 22.8.4z"/><path fill="#585b62" d="M-10.4 116l9-9.5L34.3 140l-9 9.5z"/><path fill="#8f9097" d="M24.1 110.9l43.5 33.4 3.2 3.1-45.3-12z"/><ellipse cx="79" cy="116" fill="#9e9285" rx="28" ry="10"/><circle r="1" fill="#455059" transform="matrix(-22.14889 -16.32957 1.98983 -2.69895 56.8 131.3)"/><path fill="#8293a2" d="M160.7 71.5l106.1 1.8-138.2-20.9 36.1 42.3z"/><circle r="1" fill="#676560" transform="matrix(50.5229 23.29674 -.41874 .9081 46.6 90.3)"/><path fill="#4e2f20" d="M189.4 12.5l33 30.7-20.1-4.7 2.1-1.4z"/><path fill="#b0ab97" d="M222 128h34v2h-34z"/><path fill="#b9b2a4" d="M204.4 148.1L186.1 123l37.8 9.8-79.8-4z"/><path fill="#cbd7de" d="M-13.2-10l241.7 64.9-32.6-23.1-34.8-42.9z"/><path fill="#897a6f" d="M1.4 185l18.7-42 57 42-56.5-28.7z"/><path fill="#0b0a0a" d="M175 121h57v4h-57z"/><path fill="#2c464f" d="M30.6 107l-28-41.4.8-.6 28 41.4z"/><path fill="#b8a596" d="M96 128.9l-4.1-13.7 46.7 46.4-34.3-10.7z"/><circle r="1" fill="#6b6a6d" transform="rotate(-8.4 1199 -565.8) scale(42.01364 12.71986)"/><path fill="#d3d3d1" d="M162 12l69 43h-69z"/><path fill="#46271e" d="M203 29.8l-2.3 1.9L173-3.8l2.3-1.9z"/><path fill="#4c5865" d="M49 97h39v5H49z"/><circle r="1" fill="#e8d0b3" transform="matrix(-.14733 .98909 -73.1457 -10.89561 255 121.6)"/><path fill="#b7ab95" d="M167.4 188.9l-2-2.3 57.2-51.5 2 2.3z"/><path fill="#cabcac" d="M248 157h8v13h-8z"/><path fill="#d0c5b6" d="M149 122.3l-35.3-11.7-24.8-13.4 62.8 5.6z"/><path fill="#5a4f3e" d="M163.3 137l55.7 19-.4 1-55.8-19.2z"/><path fill="#4d4947" d="M42 122l-.2-1 46.2-9 .2 1z"/><path fill="#816047" d="M155.6 112.8l-11.1 31.4 20.4-61.1-2.3-13.9z"/><path fill="#6b757f" d="M102.4 97.2l-6.1-12.7 2.5 3 57.2 17z"/><path fill="#4d5c6c" d="M42 102L4 117l-20-15z"/><path fill="#292922" d="M238 127l26-8-12 8z"/><circle r="1" fill="#c0b6ab" transform="matrix(17.92204 4.76869 -.6345 2.38463 231.5 165.9)"/><path fill="#939da8" d="M40 105h34v9H40z"/><circle r="1" fill="#c1d0d9" transform="matrix(-1.9145 -17.74637 30.51248 -3.29172 232 17)"/><circle r="1" fill="#95796f" transform="matrix(.6225 -.95492 19.6611 12.81691 219.1 47.6)"/><path fill="#4b5055" d="M111.2 158.4l-27.8-19.8-24.9 4.7L92 155.6z"/><path fill="#100f09" d="M181 83l-15-2 7-9z"/><path fill="#6c7a87" d="M271 101.7l-80.9-8.2-25.2-6.6 46.3 27.5z"/><path fill="#97a0a5" d="M202 95l-40-31 51 21z"/><path fill="#131516" d="M203 114l26 10-16 6z"/><path fill="#e1dbd3" d="M0 37h131v19H0z"/><path fill="#ebdbc3" d="M240.3 124.8l-10.8-8.9 19.2 4.7 10.9.9z"/><path fill="#9c9086" d="M68 163l-20 22-25-38z"/><path fill="#fffff7" d="M138.6 123.6l-1 2.8-26.2-10 1-2.8z"/><path fill="#615b55" d="M235.9 156.6l-11 1.2 40.3 9-24.7-8.2z"/><path fill="#5b4e44" d="M232 179l-43-1 17-18z"/><ellipse cy="121" fill="#9a9896" rx="25" ry="4"/><path fill="#d8ccba" d="M12 154.6l-28-.7 10.1-23.1 21.7 18.9z"/><path fill="#77675e" d="M189.4 124.6l-26-1.8 19.1-9.7-8.5 16z"/><path fill="#728394" d="M226 67h30v23h-30z"/><path fill="#8294a7" d="M18 56h144v22H18z"/><path fill="#505054" d="M18 124h3v35h-3z"/><path fill="#afaca4" d="M131.5 83.5l3.9.8-5.2-14.6 25.1 20.9z"/><circle r="1" fill="#403029" transform="matrix(.3688 10.05774 -2.1534 .07896 178.9 107.3)"/><path fill="#0a0f14" d="M163 91h8v28h-8z"/><circle cx="184" cy="113" r="4" fill="#eadcc9"/><ellipse cx="219" cy="58" fill="#5f7ea3" rx="17" ry="3"/><path fill="#757573" d="M133 107V82l-9 2z"/><path fill="#aeaca8" d="M233 135l-25 11-44-21z"/><circle r="1" fill="#c6d2da" transform="rotate(126.8 102.5 58) scale(14.75346 33.19806)"/><path fill="#4c6072" d="M43.6 119.1L17.3 93.7l34.1 1.4-31.2 4.4z"/><path fill="#b7a998" d="M132.9 105.3l36.4 24.6-41.9 2.4 36.6-7.9z"/><path fill="#c18b67" d="M172 105h3v17h-3z"/></g></g></svg>