<svg xmlns="http://www.w3.org/2000/svg" viewBox="0 0 1800 1200"><defs/><filter id="prefix__a"><feGaussianBlur stdDeviation="12"/></filter><rect width="100%" height="100%" fill="#233c4d"/><g filter="url(#prefix__a)"><g transform="translate(3.5 3.5) scale(7.03125)"><circle r="1" fill="#90a5ce" fill-opacity=".5" transform="rotate(-101.2 95.4 -21.3) scale(78.33825 185.24089)"/><circle r="1" fill="#ffffef" fill-opacity=".5" transform="matrix(1.34243 11.96804 -34.5602 3.87655 88 145.7)"/><circle r="1" fill="#1f427b" fill-opacity=".5" transform="matrix(32.80313 70.34654 -188.66495 87.97591 48.9 0)"/><circle r="1" fill="#94abc3" fill-opacity=".5" transform="matrix(-1.87213 -26.65131 124.51085 -8.74631 248.8 90.4)"/><circle r="1" fill="#261300" fill-opacity=".5" transform="matrix(2.32757 10.2996 -50.43875 11.39846 177 131.3)"/><ellipse cx="29" cy="127" fill="#7b6139" fill-opacity=".5" rx="36" ry="25"/><path fill="#ccb99d" fill-opacity=".5" d="M170 120l-92 31-85-27z"/><circle r="1" fill="#4d77b1" fill-opacity=".5" transform="rotate(-23.8 190.4 -431) scale(95.57636 44.93812)"/><ellipse cy="117" fill="#2d2814" fill-opacity=".5" rx="87" ry="6"/><path fill="#111109" fill-opacity=".5" d="M-16 164l74 12-8-35z"/><path fill="#343527" fill-opacity=".5" d="M165.1 147.9l-53.3-33.3-13.4 1.4 49.3 49.4z"/><path fill="#0d0400" fill-opacity=".5" d="M198 118h58v14h-58z"/><ellipse cx="69" cy="73" fill="#959da1" fill-opacity=".5" rx="3" ry="92"/><ellipse cx="4" cy="15" fill="#29416b" fill-opacity=".5" rx="66" ry="59"/><ellipse cx="99" cy="144" fill="#e6e8e1" fill-opacity=".5" rx="30" ry="8"/><ellipse cx="128" cy="127" fill="#a59b88" fill-opacity=".5" rx="75" ry="5"/><circle cx="243" cy="76" r="42" fill="#7e99b9" fill-opacity=".5"/><path fill="#6c7166" fill-opacity=".5" d="M54 154h55v12H54z"/><circle r="1" fill="#050000" fill-opacity=".5" transform="rotate(61.9 -122 78.7) scale(7.08549 11.56339)"/><path fill="#aecfc4" fill-opacity=".5" d="M70 119h28v12H70z"/><path fill="#dbe3e1" fill-opacity=".5" d="M53 141h27v15H53z"/><circle r="1" fill="#3d6091" fill-opacity=".5" transform="rotate(-130.5 75.5 -19) scale(31.11944 84.97771)"/><ellipse cx="216" cy="110" fill="#959b9f" fill-opacity=".5" rx="129" ry="8"/><path fill="#3f382b" fill-opacity=".5" d="M198.2 125.1l-21.8 18.2-18-21.4 37.3-6.9z"/><path fill="#323438" fill-opacity=".5" d="M60 131h33v4H60z"/><circle cx="38" cy="87" r="28" fill="#4a6485" fill-opacity=".5"/><path fill="#efedea" fill-opacity=".5" d="M46 121h7v16h-7z"/><path fill="#382c24" fill-opacity=".5" d="M-16 128.8l42.6 5.9 2.3-8.6-23.7 8z"/><path fill="#122a2f" fill-opacity=".5" d="M200 132l-83 5 35 21z"/><path fill="#d0cdc7" fill-opacity=".5" d="M65.9 97.5l5.9-80-3.5 80-4.1 63.8z"/><path fill="#fff" fill-opacity=".5" d="M100 144l-10 4 4-31z"/><path fill="#060e0f" fill-opacity=".5" d="M42 143h12v16H42z"/><path fill="#7c6c5a" fill-opacity=".5" d="M117.3 112.9l1.5 43-10.8-3.5 37.5-33.6z"/><ellipse cx="109" cy="135" fill="#2c3535" fill-opacity=".5" rx="2" ry="6"/><circle r="1" fill="#6481a5" fill-opacity=".5" transform="rotate(-21.1 284.2 -472.6) scale(103.08236 21.60749)"/><path fill="#ccc7c4" fill-opacity=".5" d="M71 0h3v26h-3z"/><path fill-opacity=".5" d="M88 143.3l.4 1-6.5 2.4-.3-1z"/><path fill="#94938e" fill-opacity=".5" d="M13.7 153.9l42.3-22-34.6 5.6 9.3 15z"/><path fill="#352803" fill-opacity=".5" d="M109 122.5l-3.3-5.1 9.4-5.9 3.2 5.1z"/><path fill="#22383b" fill-opacity=".5" d="M68 121l-1 12h6z"/><path fill="#48391e" fill-opacity=".5" d="M96 115h21v8H96z"/><path fill="#95887b" fill-opacity=".5" d="M128 126h71v4h-71z"/><path fill="#2d4d7d" fill-opacity=".5" d="M73 0h39v33H73z"/><path fill="#93939a" fill-opacity=".5" d="M18 137h69v5H18z"/><path fill="#2d2311" fill-opacity=".5" d="M29 127l-33-13h27z"/><path fill="#606b66" fill-opacity=".5" d="M32.7 158.2l85-7.6 17.7-3.6-22.4 12z"/><path fill="#7a6856" fill-opacity=".5" d="M117 131h33v7h-33z"/><path fill="#17343d" fill-opacity=".5" d="M127 138h62v32h-62z"/><path fill="#ceb2a1" fill-opacity=".5" d="M28.5 140.5h-1v-67h1z"/><circle cx="121" cy="144" r="4" fill="#fffffd" fill-opacity=".5"/><path fill="#cdd5cd" fill-opacity=".5" d="M91 123h24v5H91z"/><ellipse cx="8" cy="91" fill="#425876" fill-opacity=".5" rx="19" ry="23"/><ellipse cx="255" cy="106" fill="#94a3b4" fill-opacity=".5" rx="67" ry="10"/><ellipse cx="184" cy="120" fill="#413d39" fill-opacity=".5" rx="5" ry="7"/><path fill="#7c9890" fill-opacity=".5" d="M100 112l-28 15h14z"/><path fill="#d0c2ad" fill-opacity=".5" d="M137 120h20v6h-20z"/><ellipse cx="78" cy="116" fill="#3e391d" fill-opacity=".5" rx="10" ry="4"/><path fill="#e9ebe8" fill-opacity=".5" d="M63 146h51v5H63z"/><path fill="#222c2f" fill-opacity=".5" d="M42.1 142.1l.6 42.9-8.7-38.7-50-3.2z"/><path fill="#6e7d8f" fill-opacity=".5" d="M61 113l101-36-55 38z"/><ellipse cx="135" cy="119" fill="#2a2927" fill-opacity=".5" rx="11" ry="2"/><path fill="#35527c" fill-opacity=".5" d="M67 66L9 79 71-4z"/><ellipse cx="43" cy="131" fill="#4e4a46" fill-opacity=".5" rx="6" ry="2"/><path fill="#b6a797" fill-opacity=".5" d="M20.2 121.8l-31.5 10.3 27.3-2.6 6.2-1.8z"/><circle r="1" fill="#2b4570" fill-opacity=".5" transform="matrix(-38.78435 27.56243 -8.7451 -12.30562 31.8 25.7)"/><path fill="#335483" fill-opacity=".5" d="M70 55h2v57h-2z"/><circle r="1" fill="#597daf" fill-opacity=".5" transform="matrix(-8.23344 -14.08935 58.09444 -33.94884 238.1 33.7)"/><path fill="#fff" fill-opacity=".5" d="M77 128h11v2H77z"/><path fill="#676567" fill-opacity=".5" d="M58 130h31v6H58z"/><path fill="#c9a377" fill-opacity=".5" d="M27 140.4l12.5-14.3 8.1.6-18-5.4z"/><ellipse cx="135" cy="136" fill="#020000" fill-opacity=".5" rx="2" ry="6"/><path fill="#eeedeb" fill-opacity=".5" d="M105 133l-21 7 24 6z"/><circle cx="46" cy="120" r="3" fill="#3a2c0c" fill-opacity=".5"/><path fill="#627790" fill-opacity=".5" d="M26 103h29v12H26z"/><circle r="1" fill="#294b5d" fill-opacity=".5" transform="matrix(1.546 9.17867 -33.40791 5.62702 237.9 151.2)"/><path fill="#55473a" fill-opacity=".5" d="M22 139v-22h6v22z"/><path fill="#070500" fill-opacity=".5" d="M11 157l-21-1 24-14z"/><path fill="#374848" fill-opacity=".5" d="M51 161h61v9H51z"/><path fill="#5d473a" fill-opacity=".5" d="M130.4 118.6l-12.1 1.4-.3 13.4-1.4.8z"/><path fill="#d0cfcc" fill-opacity=".5" d="M70.5 24.4l-3.1 60.7 3.2-35.3 2.9-61.3z"/><ellipse cx="161" cy="108" fill="#7f8c9c" fill-opacity=".5" rx="23" ry="13"/><path fill="#231b05" fill-opacity=".5" d="M196 130.8l.5 3-52.5 7.4-.5-3z"/><circle r="1" fill="#496d9f" fill-opacity=".5" transform="matrix(15.64992 12.49316 -53.37352 66.85986 197.2 5.3)"/><path fill="none" stroke="#b9e5d9" stroke-opacity=".5" stroke-width=".5" d="M68 116.8q3.7 8.2 30.4.6"/><path fill="#ccd0cb" fill-opacity=".5" d="M97.2 118l.6.7-43 37.4-.6-.8z"/><path fill="#372f19" fill-opacity=".5" d="M61 110l-15 5 15 7z"/><path fill="#fff" fill-opacity=".5" d="M51 137h-1l1-16h1z"/><path fill="#3c506d" fill-opacity=".5" d="M48 137h9v4h-9z"/><path fill="#3c3028" fill-opacity=".5" d="M161 121h38v5h-38z"/><path fill="#c9c9c2" fill-opacity=".5" d="M74 136l-9-5 2 5z"/><path fill="#405457" fill-opacity=".5" d="M109.6 185l-21.7-24.3 31.7-5.5-3.6-15z"/><path fill="#6c7675" fill-opacity=".5" d="M32 147l-18-2v8z"/><circle r="1" fill="#fff" fill-opacity=".5" transform="rotate(49.6 -92.2 196) scale(1.17955 2.30714)"/><path fill="#514a43" fill-opacity=".5" d="M224 117h32v2h-32z"/><ellipse cx="5" cy="119" fill="#28271b" fill-opacity=".5" rx="25" ry="4"/><path fill="#020504" fill-opacity=".5" d="M206 127h50v4h-50z"/><ellipse cx="87" cy="143" fill="#2d2024" fill-opacity=".5" rx="2" ry="1"/><path fill="#0e1414" fill-opacity=".5" d="M35 148h17v12H35z"/><path fill="#8892a2" fill-opacity=".5" d="M28 55h2v60h-2z"/><circle r="1" fill="#6f8caf" fill-opacity=".5" transform="matrix(-78.79354 25.7537 -3.47155 -10.6212 232.4 71.8)"/></g></g></svg>