<svg xmlns="http://www.w3.org/2000/svg" viewBox="0 0 1800 1200"><defs/><filter id="a"><feGaussianBlur stdDeviation="12"/></filter><rect width="100%" height="100%" fill="#2b3f50"/><g filter="url(#a)"><g fill-opacity=".5" transform="translate(3.5 3.5) scale(7.03125)"><circle r="1" fill="#fff" transform="matrix(252.76106 -33.71715 12.57165 94.24353 151.7 39.5)"/><circle r="1" fill="#9fcbff" transform="rotate(84.9 20.3 77.2) scale(49.34154 254.99998)"/><circle cx="176" cy="169" r="90" fill="#66716f"/><circle r="1" fill="#fff" transform="matrix(5.20113 75.63921 -11.4873 .7899 0 122.7)"/><circle r="1" fill="#5b676e" transform="matrix(9.55145 22.242 -73.95075 31.7569 86.4 136.3)"/><ellipse cx="226" cy="112" fill="#977d5f" rx="158" ry="25"/><circle r="1" fill="#c5d2d9" transform="matrix(-27.85104 22.08803 -20.7248 -26.13212 42.9 102.6)"/><ellipse cx="142" cy="74" fill="#b6cce0" rx="119" ry="16"/><circle r="1" fill="#29608b" transform="matrix(2.2878 -21.9958 105.54985 10.97833 111.4 161.4)"/><path fill="#c4b199" d="M228 103h28v34h-28z"/><path fill="#cdc0af" d="M161 104h52v18h-52z"/><ellipse cx="79" fill="#7b9ecc" rx="255" ry="37"/><ellipse cx="3" cy="153" fill="#ffffef" rx="4" ry="84"/><path fill="#645f56" d="M80 99h85v35H80z"/><path fill="#b5cde4" d="M103.7 81.7l103.7-2.3-70.3 21.7 7.4 1.1z"/><circle r="1" fill="#696253" transform="matrix(.26668 6.94179 -62.22631 2.3905 229.6 91.8)"/><path fill="#255377" d="M271.8 139l-.6 31-169-3 .6-31z"/><path fill="#caa98b" d="M46 125h50v11H46z"/><circle r="1" fill="#4a6d88" transform="matrix(11.61902 -14.31313 33.87255 27.49683 41.8 165.8)"/><circle cx="111" cy="106" r="12" fill="#a89484"/><path fill="#cfc6b7" d="M163.7 106.1l-4.6 13.2 34.7-24.2 12.2 15.6z"/><path fill="#6f6a5b" d="M210 94h25v36h-25z"/><ellipse cx="230" cy="134" fill="#9b8d79" rx="126" ry="3"/><circle r="1" fill="#63645b" transform="matrix(-2.23842 -7.44003 25.49757 -7.67123 170.6 97.2)"/><circle r="1" fill="#aebcd1" transform="matrix(-67.78061 19.30782 -3.3398 -11.72443 32.4 0)"/><path fill="#a8bdd0" d="M7 67h44v70H7z"/><path fill="#283747" d="M94 145l18-21-9-11z"/><path fill="#a8bfd8" d="M15 54h147v42H15z"/><ellipse cx="168" cy="6" fill="#779ac9" rx="104" ry="10"/><path fill="#79715e" d="M14.2 173.6l-15.3-57 1-.2 15.2 57z"/><path fill="#fff9e3" d="M13.5 179.7l-13-47.4-2.1 52.7L9 156.2z"/><path fill="#69695c" d="M201 110l-17 24-56 3z"/><path fill="#675f54" d="M54.1 135.1l44.3-37.8-3.9 26.5-42.1-1z"/><path fill="#e6be94" d="M82 98l-32 26 20-5z"/><ellipse cx="205" cy="59" fill="#a3beda" rx="81" ry="28"/><path fill="#2b4869" d="M18 137h168v6H18z"/><path fill="#70685a" d="M209.6 104l60.2-18.5 2.6 8.6-60.2 18.4z"/><path fill="#fffff3" d="M0 72h7v41H0z"/><ellipse cx="217" cy="36" fill="#92b0d5" rx="255" ry="12"/><circle r="1" fill="#b8cbd8" transform="rotate(-108.6 70.8 25.3) scale(4.41286 44.26234)"/><path fill="#b4a38f" d="M173 114h43v10h-43z"/><path fill="#a3978d" d="M146.7 123.9l32.6-20.6-8.4 16.1-42.8-9.2z"/><path fill="#515753" d="M158.3 104.2l-1.8 12.3L122.1 97l9.9-1.4z"/><circle r="1" fill="#3e637e" transform="rotate(10.2 -828.4 553.4) scale(76.97033 7.58577)"/><path fill="#a39584" d="M250.8 98.4l-6.1-8.2-12.3-2.1-5.8 44.4z"/><path fill="#0f3139" d="M73 165h25v5H73z"/><path fill="#555345" d="M219.4 115.7l-26.9-2.4v-1l27 2.4z"/><path fill="#9eb8d7" d="M229.3 41.3L-16 52.3v18.3l70.8 8.6z"/><path fill="#555754" d="M83 103h14v24H83z"/><ellipse cx="215" cy="135" fill="#a99b8c" rx="38" ry="2"/><path fill="#84796f" d="M112 95h21v27h-21z"/><path fill="#608aaf" d="M12 164h12v6H12z"/><path fill="#545851" d="M124.7 112.9l37.6 25.2 24-12.1-11.8 9z"/><path fill="#595a52" d="M150.4 137.1l-44.4-5.7-6.8-6.9 29.4.5z"/><path fill="#90918d" d="M7 91h2v79H7z"/><ellipse cx="216" cy="156" fill="#31566f" rx="91" ry="20"/><path fill="#ada9a3" d="M9 130h83v7H9z"/><path fill="#3d617d" d="M12 162l93-7-97-20z"/><path fill="#d7d3c9" d="M170 104h35v5h-35z"/><path fill="#aec3d7" d="M7 73h153v22H7z"/><circle r="1" fill="#666051" transform="matrix(33.11162 -3.0134 .22277 2.44782 240.4 99.4)"/><path fill="#ac9e8f" d="M118.7 123.1l-8.9-43.4 4.9 24.1-7.2 14.7z"/><path fill="#b8aea0" d="M238.5 113.7l-18.6 21.7 36.3-32.1-25.9 8.6z"/><path fill="#bda68d" d="M244 117l-3 14 30 7z"/><path fill="#a5907b" d="M207 97l-14-5 1 13z"/><path fill="#5e5f48" d="M214 120l-16 15 37-17z"/><path fill="#646155" d="M152 107.3l-3-8.5 35-12 3 8.4z"/><path fill="#001d24" d="M105 169h23v1h-23z"/><circle r="1" fill="#b0c4d8" transform="rotate(-97.5 147.4 -62.3) scale(9.36231 54.84422)"/><path fill="#5a5951" d="M196 90h32v5h-32z"/><path fill="#837b62" d="M178 117l48 13-42 3z"/><path fill="#d0c3b1" d="M211.3 123.4l-.4.9-32.2-13.7.4-.9z"/><path fill="#9a8774" d="M70 134l3-17-17 14z"/><path fill="#ab9a88" d="M106.2 105.2l-14.6 28.5-1.8-.9 14.6-28.5z"/><ellipse cx="245" cy="114" fill="#877e6e" rx="58" ry="2"/><path fill="#192843" d="M95 129h7v5h-7z"/><path fill="#a0b3c3" d="M34.3 136.7l-27-.4.4-21 27 .4z"/><path fill="#696255" d="M271 103l-12-20-23 1z"/><path fill="#b2c4d3" d="M14 97l28 35 54-52z"/><path fill="#d3c8bc" d="M248.1 106.4l-15.5 15.1 9.4-5.8-2.5-8.8z"/><path fill="#8ea8cb" d="M-8 20.5L113.3-16 6.6 50.7-.3 74.8z"/><path fill="#928573" d="M226 92h4v44h-4z"/><path fill="#abc2d6" d="M135.5 99l9-.9L232 70.3l-108 4.9z"/><path fill="#b4a799" d="M148 133h9v4h-9z"/><circle cx="159" cy="124" r="3" fill="#bbad9b"/><path fill="#c1b5a4" d="M249.6 116.5l-2.7-14.8-2.6 1.9 19.4 17.2z"/><path fill="#c3b3a0" d="M188 121l1 3 11-4z"/><path fill="#bfaf99" d="M214.1 115.3l-27.5 2.6 24.7 3 4.6 2.2z"/><path fill="#355371" d="M8 137h111v7H8z"/><ellipse cx="139" cy="136" fill="#958d8b" rx="120" ry="1"/><path fill="#3d617d" d="M188.5 147l55.3 17.5 24.8 20.5-8.1-25.3z"/><path fill="#4c4f52" d="M110.5 114.4l-13.9 22.9 14.4-1.8-6.9-22.6z"/><path fill="#4d718d" d="M42.3 161.5l18.4-16.3-38.2 14.6-8.5-18.5z"/><path fill="#204050" d="M16 159h15v4H16z"/><path fill="#3e637e" d="M92 153h73v13H92z"/><ellipse cx="157" cy="112" fill="#495149" rx="2" ry="11"/><path fill="#656255" d="M183 139.1l.7-3.6-12.6-.9 11.9-18.3z"/><ellipse cx="125" cy="99" fill="#6b6459" rx="14" ry="3"/><circle r="1" fill="#d2bd96" transform="rotate(75.9 -81.1 64) scale(249.3464 1)"/><path fill="#ccc6b7" d="M243 119h11v3h-11z"/></g></g></svg>