<svg xmlns="http://www.w3.org/2000/svg" viewBox="0 0 1200 1800"><defs/><filter id="a"><feGaussianBlur stdDeviation="12"/></filter><rect width="100%" height="100%" fill="#4d3d3a"/><g filter="url(#a)"><g fill-opacity=".5" transform="translate(3.5 3.5) scale(7.03125)"><circle r="1" fill="#b3c1bd" transform="matrix(-44.44966 -121.4644 158.70693 -58.07849 88 95)"/><ellipse cx="83" cy="193" fill="#3b3b32" rx="31" ry="107"/><circle r="1" fill="#d8dee7" transform="rotate(-71.6 101 -86.4) scale(56.99531 34.19186)"/><circle r="1" fill="#b0c6e2" transform="rotate(83.7 -38.2 199.2) scale(91.50549 16.22901)"/><ellipse cx="30" cy="154" fill="#3a261d" rx="15" ry="74"/><ellipse cx="62" cy="155" fill="#c6ccce" rx="161" ry="7"/><path fill="#3d312f" d="M137.9 22.4L85.2 17 69.3 29 181 36.2z"/><circle r="1" fill="#c0c1b8" transform="matrix(5.5126 96.49608 -12.98607 .74186 3.1 114)"/><circle r="1" fill="#fff" transform="matrix(-5.64319 14.0918 -43.35147 -17.36049 161 9.3)"/><ellipse cx="66" cy="119" fill="#2d1a18" rx="15" ry="33"/><path fill="#ccccc6" d="M-16 80l90.1-8.4 10.5 56.9 12.8-48.4z"/><circle r="1" fill="#88948c" transform="rotate(34.3 -367.7 231.7) scale(52.57353 11.94049)"/><path fill="#1d1312" d="M54 163h26v55H54z"/><path fill="#3b2a27" d="M141.2 53.8l8.9 22L-16 53.3l136.2 28.6z"/><circle r="1" fill="#ccc8a9" transform="matrix(-97.44338 -16.57764 1.20058 -7.05703 40.7 43.7)"/><ellipse cx="114" cy="117" fill="#b9b9b5" rx="6" ry="94"/><path fill="#253a33" d="M134 227.6l-13.4-74.1-.5 57L-10.2 271z"/><circle cx="136" cy="122" r="13" fill="#442313"/><ellipse cx="85" cy="182" fill="#c5c5c4" rx="4" ry="26"/><circle r="1" fill="#382625" transform="rotate(-3.1 2273.3 -1783) scale(10.24255 32.13441)"/><path fill="#9ab1d0" d="M129.3 207.5l7.8 40.7 1.2-15.2-3.3-104.9z"/><path fill="#2c1513" d="M106 204.6l-15.9-1.4 3.8-43.8 16 1.4z"/><circle r="1" fill="#c2c0b2" transform="matrix(-58.05703 -8.79503 1.2094 -7.98338 46.5 77)"/><path fill="#d8dadd" d="M185 36.3l-35.6 49 4.2 72.2 11-126z"/><path fill="#352826" d="M16 173h27v45H16z"/><path fill="#3b4045" d="M160 66h8v67h-8z"/><circle r="1" fill="#a4abbc" transform="rotate(-70.2 186.3 -20.5) scale(16.43963 35.67653)"/><path fill="#22282c" d="M138 177h10v37h-10z"/><path fill="#a5b7cf" d="M148 198h15v47h-15z"/><path fill="#95968d" d="M135 271l-34-27-69 13z"/><path fill="#38241f" d="M12.7 55.6L5 61.9l14.5 2.2L119.9 75z"/><circle r="1" fill="#a4a6aa" transform="matrix(.69639 44.32966 -3.9198 .06158 86 151.6)"/><ellipse cx="49" cy="152" fill="#b5babc" rx="4" ry="87"/><circle r="1" fill="#18381b" transform="matrix(-17.04762 30.62853 -10.13758 -5.6425 -.2 245.7)"/><path fill="#454c57" d="M185 199l-20 72-3-80z"/><circle r="1" fill="#9ea19b" transform="rotate(173.3 19.3 79.6) scale(42.38041 6.71409)"/><path fill="#53583f" d="M139 14L92 44l-40-9z"/><ellipse cx="30" cy="103" fill="#56443a" rx="14" ry="25"/><path fill="#6b6a69" d="M107 66h43v15h-43z"/><path fill="#a9a698" d="M30.5-16H-1.6L-16 29.9 68.3 1z"/><path fill="#c6c8c8" d="M120 31h13v60h-13z"/><path fill="#a9aba7" d="M18.1 228.3l8.5-7.1 20.7-6.2 8.9 22.3z"/><path fill="#fcffff" d="M185 57.1l-25.3-.5L181.1-16l-27.7 27.4z"/><path fill="#101a28" d="M131 229l-3-57-8 35z"/><path fill="#a2a19e" d="M112.5 211.8l-10.7 1.6 15.8-50.4 2.6 61z"/><path fill="#bebdb2" d="M124 79l-38-6 32 27z"/><path fill="#2f4107" d="M7 29l25-3-14-8z"/><path fill="#150200" d="M120.5 100l.1-2 29 2-.2 2z"/><path fill="#354c33" d="M65.9 211.3l24.6-5.3 94.5 63.1-117.9-34.6z"/><path fill="#bcb7b1" d="M123 108l38 8-1-17z"/><path fill="#213123" d="M-16 250l47-21 25 14z"/><path fill="#bcbfbc" d="M87 58.7l25.4-29 7.7-1.8 36.7 29.3z"/><path fill="#3c2723" d="M105 72h19v7h-19z"/><path fill="#bac4c4" d="M7 52.8l.6-3 109.3 19.4-.5 3z"/><path fill="#4f3f37" d="M16 107h30v44H16z"/><circle r="1" fill="#83909d" transform="rotate(-158.9 51.7 -8.5) scale(12.46513 31.75783)"/><circle r="1" fill="#5e4646" transform="matrix(-1.71027 4.1908 -21.89622 -8.93588 140.2 28.1)"/><path fill="#c6c9c4" d="M14 93l10-19-26-14z"/><circle r="1" fill="#566562" transform="rotate(79.7 -139.8 143) scale(8.05861 31.9898)"/><path fill="#0f0e0e" d="M62 180h15v28H62z"/><path fill="#2c3328" d="M161 118h9v17h-9z"/><ellipse cx="79" cy="12" fill="#414d5c" rx="7" ry="16"/><path fill="#8a959e" d="M128.6 10.2l-45-13 14.9 17.3 75.4 19z"/><circle r="1" fill="#a0a29e" transform="matrix(2.17394 -32.73017 13.3769 .8885 4.6 184)"/><path fill="#3d383d" d="M134 59h10v20h-10z"/><path fill="#494c44" d="M-7 111l-9-37 22 4z"/><path fill="#a3aaa1" d="M45.9 33.8l-5.7-34-2-15.8-4.6 61.8z"/><path fill="#372529" d="M110 16l15 5-29 16z"/><path fill="#50584d" d="M82.1 62L-16 45v20.3L11.1 44z"/><path fill="#463832" d="M52 105h30v41H52z"/><path fill="#a5a6a3" d="M111 100h13v61h-13z"/><circle cx="66" cy="98" r="13" fill="#4e4745"/><ellipse cx="45" cy="178" fill="#a5a49c" rx="2" ry="45"/><path fill="#b4b3aa" d="M45.5 88.3L-3.6 60 65 79.7l-21.4 24.4z"/><circle r="1" fill="#dbedff" transform="matrix(-12.22941 19.19633 -34.6858 -22.0973 159.5 .5)"/><path fill="#6d81aa" d="M52.3 197.7l9-.4.4 7-9 .4z"/><path fill="#53605a" d="M112.1 63.6l20.2 6.6-7.6.3-74.4-16.7z"/><path fill="#9da4ac" d="M118.9 163.6l-32.7-13.7 51.7-4.1 15.1 36.6z"/><path fill="#8797a9" d="M129.6 232.1l6.5-36.5 2.8 59.8-2.5-19.9z"/><path fill="#bebdae" d="M44.9 50.3L41 39.9l24.3 3.8 59 21.9z"/><path fill="#bcbcb5" d="M-3.8 89.1l22 6.7-6.4 21-22-6.6z"/><path fill="#a39c7f" d="M71.1 44.4L-16 38.3l8.4-13.5 48.9 8.4z"/><path fill="#a9adb0" d="M144.9 57.7l40.6 5.7-2.4 16.9-40.6-5.7z"/><path fill="#301c10" d="M4 55h8v6H4z"/><path fill="#5d5b56" d="M152.2 94.2l-1.7 7.4-18.9 7.9-9.4-20.3z"/><path fill="#f1f3f3" d="M168 30.5l14 9.8-12 17.2-14-9.8z"/><path fill="#9aa0aa" d="M158.6 204.3l2.4-80.5-17.4 86.5-4-21.9z"/><path fill="#535a36" d="M23.3 42.3l-3.5-6.5 17.7-11.7-22.2-3.2z"/><path fill="#272d1f" d="M80 227l11 31-3-39z"/><path fill="#adb7c0" d="M83 82h4v71h-4z"/><path fill="#352e30" d="M88.5 204.6l2-22.9 19 1.7-2 22.9z"/><path fill="#121117" d="M127 121v-9l13 1z"/><path fill="#999792" d="M107.7 169.9l10.1-43.5 1.8 101.1-11.3-23.2z"/><path fill="#46342d" d="M88 107h22v18H88z"/><path fill="#2c3239" d="M164 194h6v11h-6z"/><path fill="#979494" d="M163 153l-16-33 38 29z"/><path fill="#9b9a94" d="M47 135h8v41h-8z"/><path fill="#a4a5ac" d="M64 224v6l-14 7z"/><path fill="#473e3b" d="M54 107h29v43H54z"/><path fill="#8e8a71" d="M88 45h27v7H88z"/></g></g></svg>