<svg xmlns="http://www.w3.org/2000/svg" viewBox="0 0 1800 1200"><defs/><filter id="a"><feGaussianBlur stdDeviation="12"/></filter><rect width="100%" height="100%" fill="#2e384c"/><g filter="url(#a)"><g fill-opacity=".5" transform="translate(3.5 3.5) scale(7.03125)"><circle r="1" fill="#ffffdc" transform="matrix(-130.64132 -20.70431 5.70776 -36.01514 207.9 39.2)"/><circle r="1" fill="#ceb18a" transform="rotate(172.2 98.7 42.7) scale(124.9848 22.56153)"/><circle r="1" fill="#101628" transform="matrix(-8.96357 14.94426 -26.54232 -15.9201 128.4 59.5)"/><circle r="1" fill="#080c09" transform="matrix(-153.12648 -9.7375 1.80231 -28.34215 118.2 161.2)"/><ellipse cx="219" cy="46" fill="#f9ecd2" rx="54" ry="23"/><circle r="1" fill="#5e6975" transform="matrix(60.45547 -34.13863 10.04084 17.78114 111.3 4)"/><circle r="1" fill="#705e4e" transform="matrix(-8.3602 -27.21706 61.96387 -19.03328 215 103)"/><circle r="1" fill="#54606e" transform="matrix(-2.47583 -13.23371 52.81597 -9.88108 226.1 5)"/><circle r="1" fill="#c1b7a7" transform="matrix(-18.96526 -1.89298 1.19287 -11.95103 89.3 29.4)"/><circle r="1" fill="#333237" transform="matrix(77.13852 -6.16523 1.637 20.48198 115.7 113.5)"/><path fill="#c5a884" d="M144 84h92v10h-92z"/><circle r="1" fill="#141e29" transform="rotate(-94.6 52.7 42.5) scale(115.59911 26.1155)"/><path fill="#38393f" d="M47 59h116v23H47z"/><ellipse cx="94" fill="#273c52" rx="44" ry="16"/><path fill="#beab89" d="M244.3 91.9L70.9 83.2 70 99l22.6-8.5z"/><path fill="#fffada" d="M231.9 62.4L271 50.5l-82.9.1-15.5 14.2z"/><path fill="#c6ccc6" d="M158.9 21.6l-22 7.3-6.4 17.5 68.7-8.6z"/><circle r="1" fill="#2b2f34" transform="matrix(1.64725 21.33422 -72.93378 5.63133 198.3 154)"/><circle r="1" fill="#af8e6d" transform="rotate(81.3 67.5 134.7) scale(5.14848 57.20668)"/><circle r="1" fill="#d9915d" transform="rotate(-178.4 85.4 62.4) scale(37.79756 1)"/><path fill="#3d424a" d="M176.9 76.4l-60.5-35.7-74.9-3.6 101.6 47.5z"/><ellipse cx="94" cy="102" fill="#3d4047" rx="152" ry="7"/><path fill="#525b64" d="M271-16l-38 36.2-33.1-9.1-9.7-5.4z"/><ellipse cx="25" cy="159" fill="#0b121a" rx="103" ry="25"/><path fill="#796657" d="M134 46h47v6h-47z"/><path fill="#5c5b5b" d="M257.5 66.6l8.8 30.8-27.8 8-8.8-30.8z"/><path fill="#616c75" d="M44 15h30v15H44z"/><circle cx="161" cy="106" r="17" fill="#3b3c45"/><path fill="#7b827f" d="M231.2 43.6l-22.9-6.3 32.7-.7-1.7 11.5z"/><path fill="#7b909f" d="M118 13l84 15-24-44z"/><ellipse cx="167" cy="127" fill="#ffc77d" rx="11" ry="2"/><circle r="1" fill="#232e3e" transform="rotate(143 54 51) scale(10.92257 19.78637)"/><path fill="#b5c4c5" d="M209.4 22.8l-.8 10.8L271 44.7l-22-25.8z"/><path fill="#1a2d40" d="M88.4 14.5L71.4-16-16 12.9l64.2-.5z"/><path fill="#717171" d="M61 12.3L92.9 48 140 28.8 69.3 47z"/><circle r="1" fill="#424146" transform="matrix(-4.5263 15.31223 -34.85505 -10.30317 224 116.9)"/><path fill="#c0b69a" d="M114.4 90.2L87 92.7l-9.9-3.8 31.8-6.6z"/><ellipse cx="194" cy="60" fill="#f8e2c1" rx="25" ry="9"/><ellipse cx="207" cy="141" fill="#1a2027" rx="143" ry="7"/><circle r="1" fill="#dfd6c2" transform="matrix(.03247 -2.73723 27.89372 .33092 192.4 42.4)"/><path fill="#4b4747" d="M34 78h38v27H34z"/><circle r="1" fill="#2f363e" transform="matrix(-11.16976 -14.50423 26.87424 -20.69595 173.7 161.5)"/><ellipse cx="109" fill="#5e6a77" rx="24" ry="20"/><path fill="#bba181" d="M252.6 77.1l-41.9 17.2 3.9-10.7 26.2-3.5z"/><circle r="1" fill="#97a2a3" transform="rotate(146 125.3 46.2) scale(24.1468 8.02728)"/><path fill="#898e8e" d="M131 12.9l3.5 22.4 19.2 26.2-49.4-36.6z"/><path fill="#242f3f" d="M12.4 94.7L23 27.5l36.6 5.8L49 100.5z"/><path fill="#c5a37c" d="M166.3 64.5l14.4-20.4 65.7 3.3L137 54.6z"/><path fill="#72655a" d="M193.7 90.2l-37.4 2.7 57-6.6-90-41z"/><path fill="#b5ab96" d="M271 69.5l-89.7 6.1-7.4-9.5 88.5-1.8z"/><path fill="#b6b3a8" d="M75 26h37v9H75z"/><path fill="#2f333e" d="M18 102h135v33H18z"/><path fill="#4a484c" d="M86.8 84.5l-45.1 8.7 4.4-14.8 58.7 1.1z"/><path fill="#656159" d="M58 90l13.3-4 .2 14.5 24.8-4.9z"/><path fill="#463d41" d="M98 128h71v6H98z"/><path fill="#615d5a" d="M183.9 77.6l59.7-5.2.5 6-59.7 5.2z"/><ellipse cx="255" cy="33" fill="#ecebdf" rx="23" ry="3"/><path fill="#879ba7" d="M211.7-.3l-17.3 2-64.7 20.2 35.4-24.8z"/><circle r="1" fill="#fff6db" transform="matrix(40.56665 -.29977 .01883 2.54755 219.8 55.2)"/><ellipse cx="200" cy="90" fill="#e7bd8c" rx="16" ry="2"/><path fill="#4b4a4e" d="M108.3 93.7l-61.9 10.4-6 2.8-54.7-5.3z"/><path fill="#534848" d="M206 126h50v9h-50z"/><ellipse cx="192" cy="128" fill="#f39555" rx="15" ry="1"/><path fill="#655f59" d="M200 93h36v6h-36z"/><path fill="#8f8776" d="M129.9 81.8l21.7 2.7-7.5 7.7-53.3-12.6z"/><path fill="#756255" d="M166.9 60.4l-15.6-3.7-1.4 13.7 17.5-5.7z"/><circle r="1" fill="#1f344a" transform="matrix(-8.91698 5.52655 -19.42553 -31.34273 14.4 12.2)"/><path fill="#a58d72" d="M172 80l27 6-23 11z"/><path fill="#a3aca9" d="M242.8 22.9l-72.4 12.3-4.1-16.1-55.5 8.3z"/><path fill="#586b7a" d="M93 0h54v7H93z"/><path fill="#222b35" d="M180 168l-88-13 56-18z"/><path fill="#ccccbf" d="M175.5 45.1l-46.2-14.7 83 4-16.1 12.5z"/><ellipse cx="226" cy="4" fill="#535e67" rx="32" ry="6"/><path fill="#baa992" d="M220 44h36v4h-36z"/><path fill="#3d4450" d="M64.3 57l99.7-7-91.6-7.3-41.3-32.1z"/><path fill="#92918e" d="M83 20.1l6.4 20.4-22.1-19.9 6.3-3.3z"/><path fill="#616c73" d="M129.2 34.5l-3 8.4-9.4-3.4 3-8.4z"/><ellipse cx="181" cy="165" fill="#0f161e" rx="39" ry="2"/><circle r="1" fill="#12263a" transform="matrix(-27.87427 -22.59834 10.93394 -13.48664 1.5 38.5)"/><path fill="#726459" d="M138.2 93.8l35.4 1-47.9-7.7-.7 6z"/><path fill="#b1a186" d="M67 88h39v4H67z"/><circle r="1" fill="#e1c298" transform="matrix(49.97327 -4.80994 .0958 .9954 193.4 51.6)"/><path fill="#c18f6a" d="M258.4 114.3l-11-.6.2-2 11 .6z"/><path fill="#383942" d="M113 95h37v33h-37z"/><path fill="#a9a292" d="M136 42h35v5h-35z"/><circle r="1" fill="#232d3d" transform="matrix(-.7389 -10.56678 40.73459 -2.84844 57.3 118)"/><ellipse cx="216" cy="38" fill="#7c7d76" rx="10" ry="2"/><path fill="#5b5d5f" d="M150 169h40v1h-40z"/><path fill="#343a45" d="M114.2 42.8l31.1 9.4-23 18-55.1 9.6z"/><path fill="#736a62" d="M232 74l30-7-26 30z"/><path fill="#40434b" d="M147 159h42v4h-42z"/><path fill="#3d3e46" d="M145 103h93v22h-93z"/><path fill="#939080" d="M235.3 70.4l-50.8 4 20.9 2.9 23.6-5.6z"/><path fill="#c6c9ba" d="M225 59h31v8h-31z"/><path fill="#3d4858" d="M40 27h34v3H40z"/><path fill="#2d343b" d="M264 165l-79-11 54-7z"/><ellipse cx="170" cy="127" fill="ivory" rx="5" ry="1"/><path fill="#192027" d="M240.6 168.8l9.5-33.6 14.4 23-78.6 5.5z"/><path fill="#e6be8f" d="M164 88h12v3h-12z"/><path fill="#b4a695" d="M85.2 27.8l-1.6 10.6 20.2 1.2 13.4.2z"/></g></g></svg>