<svg xmlns="http://www.w3.org/2000/svg" viewBox="0 0 1800 1800"><defs/><filter id="a"><feGaussianBlur stdDeviation="12"/></filter><rect width="100%" height="100%" fill="#53342e"/><g filter="url(#a)"><g fill-opacity=".5" transform="translate(3.5 3.5) scale(7.03125)"><circle r="1" fill="#fff" transform="rotate(-102 45.2 49.3) scale(46.82908 110.02731)"/><circle cx="190" cy="230" r="194" fill="#627888"/><circle r="1" fill="#fff" transform="rotate(67 -62 59.7) scale(31.46196 50.95742)"/><ellipse cx="77" cy="255" fill="#edf3cd" rx="58" ry="29"/><circle cx="180" cy="236" r="47" fill="#00000c"/><path fill="#001c63" d="M26 199l93 29-9-145z"/><path fill="#dcffff" d="M236.5 262l-10.1-44 35-8 10.2 43.8z"/><circle cx="80" r="71" fill="#5b6b70"/><circle r="1" fill="#c1bbba" transform="rotate(-66.9 220 -108.9) scale(61.48528 12.56974)"/><ellipse cx="68" cy="113" fill="#9a4229" rx="32" ry="16"/><ellipse cx="16" cy="100" fill="#daffff" rx="27" ry="45"/><circle r="1" fill="#255a6c" transform="matrix(-11.33324 -34.19598 104.38958 -34.5968 232.2 0)"/><circle r="1" fill="#9e6c5f" transform="matrix(47.28774 34.7363 -21.18771 28.84358 165 132.8)"/><path fill="#fff" d="M116 68H88l7 27z"/><circle r="1" fill="#00337b" transform="rotate(-53.2 215.8 -.9) scale(44.05283 27.20421)"/><circle r="1" fill="#ccd087" transform="rotate(-3 4214.7 -748.8) scale(34.10489 7.77289)"/><ellipse cy="199" fill="#87afc4" rx="24" ry="28"/><path fill="#1c0800" d="M160 209l-90-6 26 28z"/><ellipse cx="46" cy="140" fill="#c3643b" rx="11" ry="39"/><path fill="#e1ede8" d="M227 43h9v36h-9z"/><circle r="1" fill="#050000" transform="rotate(142.7 -35.5 122.3) scale(23.89813 9.56231)"/><path fill="#000218" d="M229 189h27v24h-27z"/><ellipse cx="15" cy="34" fill="#5f6c6f" rx="47" ry="24"/><circle r="1" fill="#142d33" transform="matrix(24.32952 -1.78665 2.02736 27.60744 151.7 53.7)"/><circle r="1" fill="#f4ffff" transform="matrix(32.559 7.90039 -4.9614 20.44684 34.4 81)"/><path d="M32.5 187.8L2.4 170l34.6-2.5 6.2 16.7z"/><path fill="#9b533f" d="M39.8 53.8l86 57.1-65.1-11.5 47-46.5z"/><ellipse cx="200" cy="69" fill="#703b3e" rx="25" ry="58"/><path fill="#9bc4e1" d="M-16 159l64-15-64-62z"/><path fill="#3c1d14" d="M115 144h26v42h-26z"/><path fill="#28100c" d="M55.1 59.4L93.5 52l2.9-9.7-29.2-15.9z"/><path fill="#cb836e" d="M178 94l-31 99-10-53z"/><circle r="1" fill="#00509d" transform="rotate(-171.3 56.7 69.8) scale(13.66755 37.74207)"/><path fill="#a3b4c7" d="M234.5 157l-14.7 29.7.7 7.3 6.9 15.9z"/><path fill="#fff" d="M100.9 90.2l-12-5 8.2-19.4 12 5z"/><path fill="#94605f" d="M137 109l83-84-21 65z"/><ellipse cx="247" cy="17" fill="#0f4357" rx="17" ry="54"/><path fill="#0e2669" d="M54 105h9v31h-9z"/><path fill="#a97660" d="M123 206l12-48-34 50z"/><circle r="1" fill="#562c24" transform="matrix(-5.47332 28.29853 -8.6666 -1.67624 135.1 91.3)"/><circle r="1" fill="#9d9900" transform="matrix(.59539 -3.14016 28.31275 5.3682 67.6 213.6)"/><path fill="#a79e98" d="M231 71h18v68h-18z"/><circle r="1" fill="#5b6264" transform="matrix(-103.08099 8.65595 -2.70755 -32.24338 98.2 -.1)"/><ellipse cx="79" cy="144" fill="#002151" rx="14" ry="20"/><ellipse cx="128" cy="228" fill="#903e0b" rx="14" ry="10"/><circle cx="183" cy="255" r="46" fill="#09202a"/><circle r="1" fill="#212224" transform="rotate(-64.5 238.5 -123.7) scale(26.38518 5.93485)"/><circle r="1" fill="#272832" transform="matrix(7.34918 1.90063 -10.0277 38.77426 213.8 72.7)"/><circle r="1" fill="#a8867e" transform="matrix(-5.58724 3.66539 -17.12837 -26.10918 118.5 113)"/><path fill="#0d1714" d="M-12.5 203.3l91.2 6.2 33.3 26.6-36.7-36.4z"/><path fill="#e7f5ff" d="M0 59h56v42H0z"/><ellipse cx="73" cy="189" fill="#00408c" rx="36" ry="14"/><path fill="#554c4e" d="M206.8 112l-33 70.6-22.6-10.5 33-70.7z"/><path fill="#9c6045" d="M40.8 156.5l8-32 20.4 5-8 32z"/><path fill="#739bb3" d="M-15.6 199.3l50.2-9.1-29.4-15.3L3.6 135z"/><path fill="#ac6e57" d="M60.3 67.8l20.9 61.3 21-17.7-34-65.7z"/><circle r="1" fill="#cacbc8" transform="matrix(-3.38887 -2.99148 26.31058 -29.80572 252.7 115.6)"/><path fill="#384150" d="M148 187h73v21h-73z"/><path fill="#5a4543" d="M165 98l-21-46-57 47z"/><path fill="#959898" d="M271 169.6l-14.8 8-13.5-5.8 5.2-20.8z"/><path fill="#7e6258" d="M248.7 90.5l-30.4 59.7-17-8.7 30.4-59.7z"/><path fill="#32607d" d="M217 217.1l11.8-2.3 10.1 52-11.7 2.4z"/><circle r="1" fill="#81858d" transform="matrix(51.62541 -21.73102 .67696 1.60823 0 128)"/><path fill="#a7c0db" d="M267 206l-28 65-7-54z"/><path fill="#004c96" d="M101.2 91l18.7 42-7.9 3.8-16.6-45.5z"/><path fill="#00000f" d="M141 178l-3-22-13 32z"/><circle r="1" fill="#7b6b4d" transform="matrix(11.52859 8.15529 -5.0236 7.10153 83 254.7)"/><path fill="#241802" d="M34.8 228.2l23.7 8-42.9-15.4-1.2 21.7z"/><path fill="#b4b3b8" d="M210 30l-2 18 10-7z"/><path fill="#47262c" d="M271 135V10l-31 39z"/><circle r="1" fill="#8c8a88" transform="matrix(2.72867 5.27993 -15.03402 7.76959 155.1 180.8)"/><path fill="#006375" d="M271 10l-39 27-5-16z"/><circle r="1" fill="#635c5c" transform="matrix(-49.41488 -12.6271 2.36775 -9.26596 18.5 45)"/><path fill="#808684" d="M235.4 48l-13.9-35.3 3.8 10.6-8.3 7.4z"/><path fill="#e9ddd4" d="M127.3 129.8l6.2-3.3 5.2 9.7-6.2 3.3z"/><path fill="#1a1219" d="M201.1-6.2l9.5 5.9-18.8 13.1 31.4 7.8z"/><path fill="#004350" d="M180 31l-5 21-44-10z"/><path fill="#a19d43" d="M86.2 211.5l-21.7 11.9-30.3 3.6 38.1 4.5z"/><path fill="#717379" d="M179 148h44v43h-44z"/><path fill="#1a0f0c" d="M38 177l-39.2-14.1L28.2 186l1.7 15.7z"/><path fill="#a2aaa7" d="M248.4 77.3l-11.4-10-7.4-35.7-8.4 42.3z"/><path fill="#070705" d="M106 230l23-26-47 15z"/><path fill="#001836" d="M83 152l-30 28 20-51z"/><path fill="#b8684d" d="M59 100l-22 69 2-64z"/><path fill="#003771" d="M72 126h32v79H72z"/><path fill="#cde7f8" d="M25.6 141.5l12.3 1.8-4.3-36.7-13.8 28.5z"/><path fill="#151617" d="M81.6 28.2l-22.1 14 35.5 6 3.1 20.2z"/><path fill="#0f356a" d="M62 125l-2-20-11 43z"/><path fill="#d79f7c" d="M57 140l13-21-3-13z"/><circle r="1" fill="#0052a3" transform="matrix(-5.03789 26.18034 -8.52347 -1.64017 103.2 170.8)"/><ellipse cx="17" cy="160" fill="#434644" rx="16" ry="12"/><path fill="#b1b5a5" d="M114 230l-22-2 48 36z"/><path fill="#a6bbc8" d="M246.7 70.3l2.9 49.4 18.1-10.3-13.1-13.2z"/><circle r="1" fill="#574c4d" transform="matrix(25.29764 16.30322 -10.39774 16.13413 124.3 55.1)"/><path fill="#111204" d="M37 205.3l-17.3 2.9 22.7-12 46.8 17.7z"/><path fill="#953c2d" d="M64.1 66.4l-2.8-14.8 20.6-4 2.8 14.8z"/><path fill="#1a1d19" d="M114.8 141.2l-.4 21.7 6.1-2.1-10.5 44.1z"/><path fill="#7c5d57" d="M124.9 205.4l-24 10.6 31-59.7-4.9 46.1z"/><path fill="#052130" d="M251.1 209.7l-32-13 51.9 4.2v37.9z"/><path fill="#595001" d="M35 235l21-8-23 1z"/></g></g></svg>