<svg xmlns="http://www.w3.org/2000/svg" viewBox="0 0 1800 1200"><defs/><filter id="prefix__a"><feGaussianBlur stdDeviation="12"/></filter><rect width="100%" height="100%" fill="#343f4e"/><g filter="url(#prefix__a)"><g transform="translate(3.5 3.5) scale(7.03125)"><circle r="1" fill="#f5ffff" fill-opacity=".5" transform="matrix(-17.92008 -82.2041 249.14871 -54.31316 112.2 34.5)"/><ellipse cx="57" cy="37" fill="#8eabd0" fill-opacity=".5" rx="134" ry="191"/><circle r="1" fill="#223e5d" fill-opacity=".5" transform="rotate(176 52 61.7) scale(67.35462 38.06193)"/><circle r="1" fill="#c1d7f7" fill-opacity=".5" transform="matrix(187.3081 -9.1609 1.73326 35.43906 156.8 46.4)"/><ellipse cx="30" cy="117" fill="#f5ead4" fill-opacity=".5" rx="19" ry="36"/><circle r="1" fill="#a2b4cf" fill-opacity=".5" transform="matrix(8.31643 1.85894 -6.79559 30.4017 230.8 99.2)"/><path fill-opacity=".5" d="M-8-14l104-2L7 11z"/><path fill="#c5bfb1" fill-opacity=".5" d="M31 155h92v15H31z"/><ellipse cx="174" cy="91" fill="#4d6b93" fill-opacity=".5" rx="129" ry="9"/><ellipse cx="253" cy="63" fill="#bfcbda" fill-opacity=".5" rx="254" ry="21"/><path fill="#fff" fill-opacity=".5" d="M26 84.5l9.8 10-25.9 25-9.7-10z"/><path fill="#79a1d9" fill-opacity=".5" d="M-16 53L271 3 63-16z"/><path fill="#202425" fill-opacity=".5" d="M245 161l-48-74-52 69z"/><path fill="#17211f" fill-opacity=".5" d="M4 130h15v29H4z"/><circle r="1" fill="#a9aeb1" fill-opacity=".5" transform="matrix(-10.46043 -1.71296 4.9165 -30.02325 255 163.1)"/><path fill="#6a8098" fill-opacity=".5" d="M133.6 131.6l61.1-50.4-23.7 50.1 17 8.1z"/><circle r="1" fill="#2c465f" fill-opacity=".5" transform="matrix(-6.38384 18.3319 -39.50878 -13.75841 86.5 135.7)"/><path fill="#f9ffff" fill-opacity=".5" d="M153 185l4-20 51 7z"/><path fill="#3e4f6e" fill-opacity=".5" d="M19.2 85L5.9 102.3-16 174.8V74z"/><path fill="#6b7d8f" fill-opacity=".5" d="M119 101v54l60-122z"/><path fill="#a3a6a7" fill-opacity=".5" d="M25 105h22v65H25z"/><path fill="#97b3dd" fill-opacity=".5" d="M252.9-16l17.8 109.2-27 1-35.8-56.5z"/><circle r="1" fill="#375985" fill-opacity=".5" transform="rotate(-87 76.4 10.4) scale(2.72343 31.65295)"/><path fill="#fffae5" fill-opacity=".5" d="M-16 144l32.2-17.3-13.6-22.6 28.3-13.6z"/><path fill="#475664" fill-opacity=".5" d="M174 140.5l40.9.5-89.1-23.1.6 67.1z"/><path fill="#949999" fill-opacity=".5" d="M199 162h24v7h-24z"/><path fill="#c7c4bd" fill-opacity=".5" d="M20 136l7 18 48 2z"/><path fill="#2d292d" fill-opacity=".5" d="M233 93h19v47h-19z"/><path fill="#fffffb" fill-opacity=".5" d="M22 89h27v15H22z"/><circle r="1" fill="#dbe0e5" fill-opacity=".5" transform="matrix(-40.80553 5.81183 -1.49933 -10.52698 121 57)"/><path fill="#ededed" fill-opacity=".5" d="M185 32l27-23 9 18z"/><path fill="#a2acb3" fill-opacity=".5" d="M218 116h14v15h-14z"/><path fill="#2d323e" fill-opacity=".5" d="M216 92l1 31-29 1-1-31z"/><path fill="#a38e96" fill-opacity=".5" d="M21 45l-3 45 15-6z"/><path fill="#9ea5a8" fill-opacity=".5" d="M175 115l-7 30-3-32z"/><ellipse cx="208" cy="89" fill="#627ea1" fill-opacity=".5" rx="164" ry="5"/><path fill="#121c28" fill-opacity=".5" d="M191.2 93.8l-22.5 39.8 51.6 2.7-36.4-35.7z"/><path fill="#b4c7db" fill-opacity=".5" d="M145 124h7v12h-7z"/><circle r="1" fill="#808a8f" fill-opacity=".5" transform="matrix(-35.26648 46.76046 -2.54515 -1.91954 193.2 19.4)"/><path fill="#7b8693" fill-opacity=".5" d="M253.8 141.7l-67.8-6.9-12.8 2.8 97.8 8.9z"/><path fill="#b7c0c8" fill-opacity=".5" d="M74.3 155.5l49 7.1 3.7 19.2-54.9-17.1z"/><circle r="1" fill="#141818" fill-opacity=".5" transform="rotate(89.5 30.2 183.5) scale(8.44969 35.42515)"/><path fill="#496282" fill-opacity=".5" d="M31 106l86-2-4 29z"/><path fill="#8c8c8a" fill-opacity=".5" d="M93 151l-109 13 41 21z"/><path fill="#58553d" fill-opacity=".5" d="M-2 24.4l-2.6-3L18 1.5l2.6 3z"/><ellipse cx="104" cy="148" fill="#001a39" fill-opacity=".5" rx="8" ry="9"/><path fill="#070000" fill-opacity=".5" d="M0 157h15v4H0z"/><circle r="1" fill="#8d9298" fill-opacity=".5" transform="rotate(-84.6 116 6.7) scale(27.73445 1.57583)"/><path fill="#b4c7dc" fill-opacity=".5" d="M173 42l-37 43 135-34z"/><path fill="#72767d" fill-opacity=".5" d="M154 107.5l117 2-29.4 5.7 29.4.2z"/><path fill="#131c25" fill-opacity=".5" d="M221 124h8v38h-8z"/><path fill="#2f3b43" fill-opacity=".5" d="M173 122.8l-24.1 43.5 3.2-38.7.1 1z"/><circle r="1" fill="#aaa7a3" fill-opacity=".5" transform="matrix(2.22308 -21.51228 .9947 .1028 122 135.3)"/><path fill="#325073" fill-opacity=".5" d="M50 84h7v64h-7z"/><path fill="#bfc5cd" fill-opacity=".5" d="M230 92h2v48h-2z"/><path fill="#7195c9" fill-opacity=".5" d="M31.8 20.3L271-12.6 48.6 5.7l-55 .1z"/><path fill="#929ba4" fill-opacity=".5" d="M235.2 105l-12 21.1 2.7-44.4-12 67.3z"/><path fill="#444c50" fill-opacity=".5" d="M-26.5 98.3l3.9-3.2 49 60.6-3.8 3.2z"/><path fill="#344e6d" fill-opacity=".5" d="M142.5 169.3l3.8-45-17.6-13-8.5 41.4z"/><ellipse cx="224" cy="120" fill="#fff" fill-opacity=".5" rx="4" ry="3"/><path fill="#efe3cd" fill-opacity=".5" d="M16 123L0 133l4-28z"/><ellipse cx="9" fill="#2f3526" fill-opacity=".5" rx="25" ry="7"/><path fill="#fdf5e9" fill-opacity=".5" d="M179.5 30.3l7-7-13.5 1.6-4.5 12.4z"/><path fill="#14334d" fill-opacity=".5" d="M92 141l-12 13-35-12z"/><path fill="#8d918e" fill-opacity=".5" d="M165.2 151.2L147 185l17.1-46.3 4.9.6z"/><ellipse cx="217" cy="92" fill="#c0c6cb" fill-opacity=".5" rx="30" ry="1"/><path fill="#5d7899" fill-opacity=".5" d="M118 83h64v29h-64z"/><path fill="#838979" fill-opacity=".5" d="M13 113h29v4H13z"/><path fill="#979da2" fill-opacity=".5" d="M240.7 164.5l18.1 3.9-8.5 15.1-13.7 1.5z"/><path fill="#0e1520" fill-opacity=".5" d="M231 127h24v11h-24z"/><path fill="#54606e" fill-opacity=".5" d="M113.5 106.7l52.9-56.2-64.5 74.9 27 51.1z"/><path fill="#e9d8c9" fill-opacity=".5" d="M229 93h27v1h-27z"/><path fill="#6c6b6a" fill-opacity=".5" d="M-16 137.5v26.6L25.3 147l.2 12.9z"/><path fill="#d7d4bf" fill-opacity=".5" d="M8 8l-24 26V-2z"/><path fill="#cfd3d2" fill-opacity=".5" d="M48.3 112l2.2-15.8-6.9-11.9-1.3 30.4z"/><ellipse cx="22" cy="76" fill="#a2aec2" fill-opacity=".5" rx="48" ry="6"/><circle r="1" fill="#a2bbd8" fill-opacity=".5" transform="matrix(-94.26722 10.7404 -.9873 -8.66548 50.6 39.5)"/><path fill="#535652" fill-opacity=".5" d="M36 167h23v3H36z"/><path fill="#7f828b" fill-opacity=".5" d="M242 96h2v26h-2z"/><path fill="#41424a" fill-opacity=".5" d="M205 94h15v28h-15z"/><path fill="#43648b" fill-opacity=".5" d="M62 83h27v35H62z"/><path fill="#d1ddc8" fill-opacity=".5" d="M151.6 166.3l.8-9 4 .4-.8 9z"/><circle r="1" fill="#8eabd5" fill-opacity=".5" transform="matrix(-11.59389 14.55042 -45.35959 -36.14289 251.2 14.2)"/><path fill="#b56263" fill-opacity=".5" d="M20 55h3v23h-3z"/><ellipse cx="224" cy="85" fill="#5779a5" fill-opacity=".5" rx="56" ry="3"/><path fill="#314c6b" fill-opacity=".5" d="M87.8 141.2l-42.4 6 26.1-47.1 5.7 55.1z"/><path fill="#101b22" fill-opacity=".5" d="M152 143h8v14h-8z"/><path fill="#1b2637" fill-opacity=".5" d="M189 93h21v11h-21z"/><path fill="#3c331f" fill-opacity=".5" d="M136 156h5v14h-5z"/><path fill="#c3d0de" fill-opacity=".5" d="M42 81h95v2H42z"/><path fill="#565851" fill-opacity=".5" d="M20.5 4.7L-4-12.1 8.6 13.1-16 38.4z"/><path fill="#283440" fill-opacity=".5" d="M194.3 152.2l8-1.1 3.4 24.7-8 1.1z"/><path fill="#666a68" fill-opacity=".5" d="M219.8 147.7l27 4.9-85-10 29.3 3z"/><path fill="#b6c4da" fill-opacity=".5" d="M178 17l-5-13h26z"/><path fill="#4f6e93" fill-opacity=".5" d="M121.3 103l3.8 3.3 50.7 15.5-34.3 6.5z"/><path fill="none" stroke="#a8aaab" stroke-opacity=".5" stroke-width=".5" d="M70.4 54.6q-15.6 44.8-15 114.2"/><circle r="1" fill="#6a7987" fill-opacity=".5" transform="rotate(-141.2 61.5 73.3) scale(1 113.66727)"/><path fill="#fffcf9" fill-opacity=".5" d="M22.5 90.2l-21 18.5 27.6 4.7-7.4-7z"/><path fill="#567091" fill-opacity=".5" d="M146 140l6 12-34 4z"/><path fill="#bbc7d7" fill-opacity=".5" d="M17.6 102.6l8.5-53.7L104.9 69 16.6 81.9z"/></g></g></svg>