<svg xmlns="http://www.w3.org/2000/svg" viewBox="0 0 1800 1200"><defs/><filter id="a"><feGaussianBlur stdDeviation="12"/></filter><rect width="100%" height="100%" fill="#6c4940"/><g filter="url(#a)"><g fill-opacity=".5" transform="translate(3.5 3.5) scale(7.03125)"><circle r="1" fill="#ff9c4e" transform="rotate(-97 61.9 -54.7) scale(73.37147 139.24307)"/><circle cx="187" cy="169" r="83" fill="#163338"/><circle r="1" fill="#092b30" transform="matrix(82.13044 1.5102 -.60322 32.80498 39.3 142.2)"/><ellipse cx="85" cy="105" fill="#ffffbc" rx="17" ry="9"/><circle r="1" fill="#fd9b55" transform="matrix(-4.83572 -24.87763 78.63225 -15.28456 110.6 19.4)"/><circle r="1" fill="#995640" transform="rotate(98.3 16.4 81.2) scale(22.10549 128.67675)"/><circle r="1" fill="#935641" transform="rotate(65.5 83.4 195) scale(22.3878 116.76885)"/><path fill="#ffffc2" d="M71 96h20v13H71z"/><path fill="#3c4243" d="M74.8 191.8l1.4-79 83 1.4-1.4 79z"/><path fill="#292e2d" d="M186 122l64 63 21-111z"/><path fill="#dc7247" d="M61 82h56v8H61z"/><path fill="#1e2225" d="M0 114h256v14H0z"/><path fill="#fff158" d="M68 113v-9l28 4z"/><path fill="#ff9b5a" d="M80.5 59.6l-2 1.6 90.6-10.7L78.9 55z"/><ellipse cx="198" cy="100" fill="#61493f" rx="104" ry="13"/><circle cx="18" cy="81" r="33" fill="#6d4130"/><circle r="1" fill="#4b4c4b" transform="rotate(3.5 -2466.1 2099.3) scale(61.61016 19.23398)"/><path fill="#aa522d" d="M-5.5-27.7L36-5.7 5.5 51.7l-41.5-22z"/><ellipse cx="120" cy="36" fill="#f79d5a" rx="69" ry="5"/><circle r="1" fill="#94533b" transform="matrix(19.9098 24.41183 -15.07589 12.2956 53.4 76.7)"/><circle r="1" fill="#d0713c" transform="matrix(24.3534 -23.16313 11.82596 12.43365 35.6 23.7)"/><path fill="#ff8a33" d="M69 110h33v3H69z"/><path fill="#8f553d" d="M228 66l38-65-82 47z"/><path fill="#be6e48" d="M152 8h50v33h-50z"/><path fill="#ffffef" d="M72 107.4l-1.2-2.7 17.2-8 1.2 2.6z"/><path fill="#822b0d" d="M83.6 102.5l.2-1 18.6 4-.2 1z"/><ellipse cx="179" cy="55" fill="#d0754c" rx="47" ry="3"/><circle r="1" fill="#875949" transform="matrix(-44.05927 6.74683 -2.58778 -16.89913 149.5 78.6)"/><path fill="#573c32" d="M-5.3 63.1l21 32.3 58.2 19-82.7-2.8z"/><ellipse cx="201" cy="149" fill="#394041" rx="42" ry="26"/><path fill="#ef7e4c" d="M70 86h28v4H70z"/><path fill="#f7955a" d="M112 50h42v5h-42z"/><path fill="#fff88f" d="M80 100l-9 9 29-1z"/><path fill="#de9456" d="M81 8l139-3-85-21z"/><circle r="1" fill="#5c453b" transform="matrix(58.40576 -19.5712 3.5384 10.55953 221.8 90.1)"/><circle r="1" fill="#704e41" transform="rotate(67.5 40.2 191) scale(12.35914 76.35402)"/><path fill="#303030" d="M93 111l-68 19h102z"/><ellipse cx="228" cy="44" fill="#825040" rx="89" ry="5"/><path fill="#242626" d="M0 113h54v19H0z"/><path fill="#6a463a" d="M-3 90l64 21 17-17z"/><circle r="1" fill="#f08e4c" transform="matrix(-.02106 -1.55457 39.51413 -.53543 55 45.3)"/><ellipse cx="71" cy="71" fill="#ce6b45" rx="32" ry="2"/><ellipse cx="107" cy="46" fill="#cb6f47" rx="22" ry="6"/><path fill="#874d38" d="M-16 47l32 18 58-12z"/><circle r="1" fill="#8e5235" transform="matrix(-.30045 -7.0991 21.53528 -.91142 0 3)"/><path fill="#4e4e4b" d="M101 147h89v12h-89z"/><ellipse cx="102" cy="34" fill="#f4a35a" rx="35" ry="5"/><ellipse cx="92" cy="100" fill="#ffd495" rx="4" ry="3"/><path fill="#181e1f" d="M243 186.8l-9.4-15.5 33.5-20 9.3 15.4z"/><path fill="#ffffcd" d="M69 104l19 2-7-10z"/><circle r="1" fill="#ca7c4b" transform="matrix(5.83634 11.3257 -51.31338 26.44273 185.3 6)"/><path fill="#ffc761" d="M101.9 110l-1.4 2.6L88 106l1.4-2.6z"/><path fill="#ffa259" d="M113 54.8l-40 3.4v-1l39.8-3.4z"/><path fill="#b06144" d="M110.1 87.1l-36.6 11 17.6-2.7-42.8-4.6z"/><circle r="1" fill="#d58147" transform="rotate(-126.7 32 -3.7) scale(11.53157 31.50213)"/><ellipse cx="45" cy="141" fill="#54534e" rx="34" ry="2"/><path fill="#41342f" d="M265 81l6 32-44-1z"/><circle r="1" fill="#aa623f" transform="matrix(-53.83826 19.97308 -3.02663 -8.1584 237.1 11.8)"/><circle r="1" fill="#b76446" transform="matrix(-.05118 -4.8869 38.25114 -.40058 113.1 62)"/><path fill="#313435" d="M107 113h87v20h-87z"/><path fill="#5b473f" d="M134.4 114.4l124.7-18.3-173 9.6 14.3-4.5z"/><path fill="#393a39" d="M75 132.5l22.2 24.9 16.5-.4-49.2 4.8z"/><path fill="#fff9e4" d="M75.8 104.8l-.3-.9 16.7-6.7.3.9z"/><ellipse cx="105" cy="77" fill="#925843" rx="34" ry="6"/><path fill="#f8a04c" d="M68.9 109.3l-3.6 3.1 20.6 1.7 8.8-5.2z"/><ellipse cx="227" cy="53" fill="#9e5a3f" rx="28" ry="3"/><path fill="#7f5242" d="M80.8 92.6l26.9-4.4-3.6 25.3L99 101z"/><path fill="#e69354" d="M61 18h97v6H61z"/><path fill="#ba623a" d="M27.2 52.8L12.9 16.4-2.8 48.6l86.4-1.5z"/><path fill="#73493b" d="M67.5 76L46 86.1l-7.7 12.7-53.6-26.1z"/><ellipse cx="169" cy="116" fill="#050606" rx="7" ry="2"/><ellipse cx="125" cy="6" fill="#e99b58" rx="56" ry="3"/><ellipse cx="134" fill="#c17646" rx="84" ry="2"/><ellipse cx="155" cy="44" fill="#ae6146" rx="28" ry="5"/><path fill="#744b38" d="M238 63.4l-2.7-24.9 36.8-3.9 2.6 24.9z"/><ellipse cx="138" cy="26" fill="#bf6f46" rx="38" ry="2"/><path fill="#f8b46f" d="M84 100h13v3H84z"/><path fill="#2a2e2c" d="M22.5 153l3.6 9.4-32.6 12.5-3.6-9.3z"/><path fill="#8e3423" d="M69 113h25v1H69z"/><path fill="#54524e" d="M80 133h36v5H80z"/><path fill="#dd8751" d="M136.5 29.5l-20.1 10.7 35.5.9 30.3-7.9z"/><path fill="#ffe777" d="M69 105h17v7H69z"/><path fill="#a64e34" d="M96.4 112.4l-25.1 2.3 24.9-3.9 1.7 1.1z"/><path fill="#96553c" d="M21 59h33v14H21z"/><circle r="1" fill="#905944" transform="matrix(-.95478 -5.1829 39.24654 -7.2299 177.8 65)"/><path fill="#726c64" d="M126 149h39v1h-39z"/><path fill="#585a53" d="M19 146l-14 5 19-1z"/><path fill="#272a2a" d="M208.6 164.6l5.5 20.4h11.5l-16.3-30.6z"/><path fill="#543c33" d="M2 98l-18 14 68-1z"/><path fill="#fffd9f" d="M79.5 105.8l21 .4v2l-21-.4z"/><ellipse cx="48" cy="150" fill="#444746" rx="14" ry="5"/><circle r="1" fill="#3a3b3b" transform="matrix(26.5281 -9.52655 .87375 2.43309 143.6 158.7)"/><ellipse cx="82" cy="101" fill="#ffffeb" rx="10" ry="1"/><circle r="1" fill="#7c5345" transform="matrix(-36.39846 13.89922 -3.73286 -9.7754 183.2 79.4)"/><path fill="#9a5f3e" d="M88.4 92.6L79.1 90l-17.8 26.3 13.8-17.4z"/><path fill="#313434" d="M173.5 158.4l50-5.1-48.8 8.7 82.2 23z"/><path fill="#654c42" d="M107 113L95 97h67z"/><path fill="#b4673d" d="M41.5 6.7l25.2-4.9-45.4-11.9L4.4 33.2z"/><path fill="#f19a56" d="M49 44h59v2H49z"/><ellipse cx="71" cy="165" fill="#333636" rx="35" ry="4"/></g></g></svg>