<svg xmlns="http://www.w3.org/2000/svg" viewBox="0 0 1800 1200"><defs/><filter id="a"><feGaussianBlur stdDeviation="12"/></filter><rect width="100%" height="100%" fill="#344a67"/><g filter="url(#a)"><g fill-opacity=".5" transform="translate(3.5 3.5) scale(7.03125)"><circle r="1" fill="#cefcff" transform="rotate(91.6 36.2 83.3) scale(65.40584 250.09542)"/><circle r="1" fill="#9ec1e8" transform="matrix(-4.57336 30.97115 -180.08767 -26.59265 145.1 72.9)"/><circle r="1" fill="#87644a" transform="matrix(-66.98225 -5.154 1.1333 -14.72861 46 101.8)"/><circle r="1" fill="#5c91d2" transform="rotate(86 76.5 86) scale(45.17937 240.38985)"/><ellipse cx="96" cy="109" fill="#a3957e" rx="235" ry="5"/><ellipse cx="121" cy="149" fill="#1b4e6a" rx="255" ry="36"/><ellipse cx="198" cy="75" fill="#97bad3" rx="134" ry="35"/><circle r="1" fill="#80a9cf" transform="matrix(-.06494 -18.603 195.54847 -.6826 152.1 45.2)"/><path fill="#766a66" d="M31 85h31v24H31z"/><circle r="1" fill="#335978" transform="matrix(-3.67006 14.39823 -66.397 -16.92438 220.8 135.4)"/><ellipse cx="83" cy="5" fill="#5988bb" rx="236" ry="10"/><path fill="#a0c0de" d="M-11 72l5 21 52-18z"/><ellipse cx="19" cy="142" fill="#1e405c" rx="62" ry="28"/><ellipse cx="87" cy="169" fill="#3c6283" rx="53" ry="9"/><path fill="#5c5a5f" d="M2.3 90.5L30 85.6l1.8 9.9L4 100.4z"/><path fill="#0c2e40" d="M195.8 150.5L168.7 185l-20.1-20.2 89.2-7.2z"/><path fill="#6c686f" d="M84 109L53 85l77 23z"/><ellipse cx="111" cy="144" fill="#315776" rx="80" ry="10"/><path fill="#0a2c3f" d="M148.7 160.1l-54.9-14.6 21.1 8.5-62.8.4z"/><ellipse cx="11" cy="110" fill="#998a71" rx="177" ry="4"/><circle r="1" fill="#a3bdcd" transform="matrix(-75.30162 -1.97184 .44756 -17.09158 152.4 88)"/><path fill="#8fabbd" d="M271 114.4l-8.6-27.6-123.2 19.4 43 2.6z"/><circle r="1" fill="#496983" transform="matrix(.12528 2.38622 -50.04814 2.62758 236.7 163.4)"/><path fill="#284d6b" d="M91 114h165v11H91z"/><path fill="#5c84a6" d="M206 150h50v2h-50z"/><path fill="#244966" d="M21 114l50-1 40 63z"/><ellipse cx="41" cy="79" fill="#9bbcd4" rx="188" ry="7"/><ellipse cx="186" cy="112" fill="#a08e76" rx="191" ry="2"/><path fill="#163a51" d="M72.1 159.2l-3 9.5-55.2-18 3-9.4z"/><circle r="1" fill="#769ec4" transform="rotate(160.6 -4.2 24.7) scale(71.89896 14.8769)"/><ellipse cx="104" cy="141" fill="#3d6689" rx="26" ry="3"/><path fill="#baceda" d="M213 111h43v1h-43z"/><path fill="#133549" d="M201.6 157.8l22.9 27.2-15.2-30.3-60.2-3.6z"/><path fill="#4f687b" d="M257.6 146.8l-36.7 32.3 4-22.4-3.7 12.4z"/><path fill="#0d3247" d="M159 142l-4-9 24 1z"/><path fill="#365e80" d="M180 163l-78-32 47 6z"/><ellipse cx="17" cy="104" fill="#998d77" rx="47" ry="3"/><ellipse cx="109" cy="128" fill="#183b54" rx="25" ry="5"/><ellipse cx="203" cy="46" fill="#82aace" rx="195" ry="9"/><circle r="1" fill="#8aadcb" transform="matrix(28.71792 -25.14064 8.72656 9.96826 0 77.9)"/><ellipse cx="48" cy="111" fill="#af9e84" rx="86" ry="2"/><path fill="#14364c" d="M68 145h37v5H68z"/><circle r="1" fill="#497396" transform="matrix(.04809 .99884 -13.38128 .64425 96 151.1)"/><path fill="#3d6586" d="M111.9 170l-.6-7 34.8-3 .6 7z"/><ellipse cx="76" cy="113" fill="#726c62" rx="122" ry="1"/><path fill="#6e6c6d" d="M123 108h36v3h-36z"/><path fill="#376081" d="M226.3 130.5l-35 3.9 79.7 6.3-49.4 9.7z"/><ellipse cx="35" cy="94" fill="#736e6d" rx="34" ry="9"/><path fill="#87a6be" d="M168 103h88v7h-88z"/><path fill="#00161e" d="M9 167l-16.8 6.8-1.1-2.8 16.7-6.8z"/><path fill="#315677" d="M9 153h23v8H9z"/><circle r="1" fill="#5e8bba" transform="matrix(-5.70022 -14.904 56.32415 -21.54187 18.9 6)"/><path fill="#092c3e" d="M133 155l-23-5-4 10z"/><ellipse cx="144" cy="13" fill="#6996c3" rx="142" ry="7"/><circle r="1" fill="#75a0ca" transform="matrix(-102.50075 -12.39893 1.41955 -11.73532 210.2 34.2)"/><ellipse cx="204" cy="143" fill="#0d3145" rx="13" ry="2"/><path fill="#436c92" d="M76 159h23v3H76z"/><ellipse cx="169" cy="100" fill="#99b3c6" rx="60" ry="8"/><path fill="#223c4d" d="M252.1 177.9L239 161.8l-21 16 51.4-15.2z"/><path fill="#658ba8" d="M160 160h10v2h-10z"/><path fill="#0b2b3b" d="M165 166l29 2-22-8z"/><ellipse cx="68" cy="151" fill="#52799d" rx="16" ry="1"/><ellipse cx="13" cy="166" fill="#042536" rx="35" ry="1"/><path fill="#305676" d="M43.6 137.5l15.1-.7 58.9-1.2-97.2-6.8z"/><ellipse cx="109" cy="119" fill="#2b4e6d" rx="69" ry="6"/><ellipse cx="119" cy="65" fill="#93b8d4" rx="93" ry="9"/><circle r="1" fill="#8a8071" transform="rotate(-177.4 5.3 52.8) scale(28.53505 7.89282)"/><path fill="#183a53" d="M28.8 140.5L-16 157.1l33.7-26.9 29.1 9.1z"/><ellipse cx="218" cy="156" fill="#0e2c39" rx="37" ry="1"/><path fill="#466c8c" d="M223 160h30v4h-30z"/><path fill="#355f80" d="M156.1 144.6l29.6 7.1 6.4-1.6-4.3-10.4z"/><path fill="#50799d" d="M99.9 164l.5-2.9L116 164l-.5 3z"/><path fill="#74746f" d="M153.6 109.2l.1-1 36.7 4.6-.1 1z"/><path fill="#4a6f91" d="M28 168h21v2H28z"/><ellipse cx="81" cy="166" fill="#395e7e" rx="30" ry="2"/><path fill="#052637" d="M61 146h10v3H61z"/><ellipse cx="145" cy="137" fill="#3a6387" rx="20" ry="2"/><path fill="#667f99" d="M244.2 157.3l-.6-.8 16.2-11.8.6.8z"/><path fill="#22445b" d="M162 163.3v6l-30-.6v-6z"/><path fill="#052636" d="M30 157h28v2H30z"/><path fill="#1a3a4f" d="M92 137l23 3-10-5z"/><circle cx="119" cy="158" r="5" fill="#11344a"/><path fill="#1e3d54" d="M52 169h67v1H52z"/><circle r="1" fill="#88b0d0" transform="matrix(-61.13875 -4.93212 .69804 -8.65294 247.3 63.3)"/><path fill="#13374f" d="M122 148h26v2h-26z"/><path fill="#042836" d="M173 152h33v2h-33z"/><path fill="#4f7c9e" d="M172.2 148.3l-8 4.3-.4-1 8-4.2z"/><path fill="#001922" d="M84 154v3h6z"/><circle r="1" fill="#5c8dbb" transform="matrix(73.8948 24.90238 -3.4017 10.09415 239.6 5.6)"/><path fill="#042636" d="M53 154h27v2H53z"/><path fill="#2b516f" d="M183.3 152.2l6.1-9.1-7.2-.2 38.2 31.4z"/><ellipse cx="121" cy="144" fill="#12354a" rx="10" ry="2"/><path fill="#746f71" d="M76 105l-29.4-9.6L50 85l29.4 9.6z"/><path fill="#2a4e6c" d="M30.4 158.7l-13 7.2-18.4-9.4 50.4-2.4z"/><path fill="#93b2ca" d="M-13.8 69.4L-3 95.1l27-13.8 36-5z"/><path fill="#446a89" d="M210 151h14v4h-14z"/><path fill="#183e57" d="M197.4 137.6l-54.7 5.8-.1-1 54.7-5.8z"/><path fill="#345d80" d="M129 157l16 6 15-4z"/><path fill="#3b6486" d="M209.5 147v1l-31-1v-1z"/><path fill="#446c8e" d="M119 164h15v6h-15z"/></g></g></svg>