<svg xmlns="http://www.w3.org/2000/svg" viewBox="0 0 1350 1800"><defs/><filter id="a"><feGaussianBlur stdDeviation="12"/></filter><rect width="100%" height="100%" fill="#523d29"/><g filter="url(#a)"><g fill-opacity=".5" transform="translate(3.5 3.5) scale(7.03125)"><circle r="1" fill="#d6a749" transform="matrix(-98.23158 30.18798 -21.41317 -69.67838 79.4 228.3)"/><path fill="#fff" d="M23 242h96v14H23z"/><circle r="1" fill="#ac5600" transform="matrix(57.05753 54.11982 -29.10262 30.68236 138.8 200.8)"/><circle r="1" fill="#a6b8d0" transform="matrix(-60.79308 15.49596 -5.21803 -20.47114 8.8 197.5)"/><circle r="1" fill="#25272c" transform="matrix(-3.58373 -20.18794 59.25382 -10.51863 78.8 221.2)"/><circle r="1" fill="#9a7f51" transform="rotate(-146.9 50.9 -3.3) scale(40.82745 47.78671)"/><circle r="1" fill="#160c00" transform="matrix(5.92504 -43.25384 49.79844 6.82154 123.1 101.1)"/><path fill="#ff0" d="M127.4 150.4l-22.9 12.3L63 192.5l25.7 12.1z"/><circle cx="10" cy="104" r="71" fill="#331c00"/><path fill="#dba100" d="M131.9 145.3L170.6 246l-22.5 8.6L109.4 154z"/><circle r="1" fill="#e10003" transform="matrix(6.6028 -19.6839 12.94131 4.34105 94.4 149.5)"/><path fill="#c9c79e" d="M83 142l-15 13-7-35z"/><circle cx="175" cy="24" r="43" fill="#806947"/><path fill="#00112c" d="M133.5 222.8l10.2 31.4-15.2 5-10.2-31.4z"/><circle r="1" fill="#693900" transform="rotate(-91.2 173.7 -5.6) scale(78.73914 24.58133)"/><path fill="#aab7c2" d="M1.5 172.9l26.4 59.5 30.8-12.2-74.7-7.1z"/><path fill="#046cad" d="M16.1 206.7l24.5-22-30.2-3.1 2.8 25.4z"/><path fill="#4d250d" d="M127 172l-3 66-64-18z"/><path fill="#0e0d08" d="M16.1 174.5L-16 159l87-3.4-14.4 15.6z"/><path fill="#fff" d="M76 240h39v10H76z"/><path fill="#e0ac8e" d="M80 156l-17 56-12-36z"/><ellipse cx="45" cy="255" fill="#252623" rx="5" ry="31"/><circle r="1" fill="#fffff5" transform="matrix(.6277 .77845 -11.63643 9.38303 58.3 233.1)"/><circle r="1" fill="#53494b" transform="matrix(-6.59904 -4.41767 24.55139 -36.67443 13.1 238)"/><path fill="#947a53" d="M100.3 74.6l-33-2.3 2.4-33 33 2.4z"/><circle r="1" fill="#c58800" transform="matrix(-20.13416 5.50808 -10.50936 -38.41575 152 216.6)"/><ellipse cx="166" cy="151" fill="#673b00" rx="38" ry="22"/><path fill="#ff0" d="M71.4 200.3l31.8-19.9 3.9-17.9-30.3 19.2z"/><path fill="#fffffc" d="M42.9 247.4l-13.7 14-45.2-3.1 38.7-8.3z"/><circle r="1" fill="#754602" transform="matrix(-9.36882 .13082 -.69042 -49.44471 55.2 111.2)"/><circle r="1" fill="#000e00" transform="matrix(-9.59438 2.55287 -7.15347 -26.88472 161.8 107.2)"/><ellipse cx="66" cy="248" fill="#fff" rx="17" ry="5"/><path fill="#e20010" d="M107 139.7l-14 30.8-18.4 2.9 19.6-44.5z"/><path fill="#b5b8b5" d="M-16 216l18-44 15 59z"/><path fill="#ffd35a" d="M-8.2 175.3l38-2.6.4 6-38 2.6z"/><circle r="1" fill="#141001" transform="matrix(.32055 -9.8579 44.80816 1.45701 23.7 57)"/><path fill="#fdc900" d="M135.6 220.4l-5.8-6.6-4-47.7 13 29.7z"/><path fill="#4f5b4e" d="M80.8 159.5l11.9-28-28.3 26.7 9 8.4z"/><path fill="#998f79" d="M115.8 214.4l13.6 19.7-17.5 6.2 7.2 12.3z"/><circle r="1" fill="#1a2c2b" transform="matrix(-13.56423 -.89863 2.10667 -31.79898 78 104.4)"/><path fill="#f09858" d="M27 194h41v12H27z"/><circle r="1" fill="#715a3f" transform="matrix(-.23294 -1.7937 54.36328 -7.05988 44.4 244.6)"/><path fill="#250c00" d="M-13 213l-3 39 29-3z"/><path fill="#643311" d="M123.2 128.6L92 100.5l20.8-23 31.2 28z"/><path fill="#ffd3ae" d="M82 163l-34 27 4-14z"/><path fill="#0e1a1d" d="M46.1 239.6l28.2-29.1-54.9 31.4 25.3-3.4z"/><path fill="#fffbeb" d="M96 245l13-7 30 33z"/><ellipse cx="188" cy="238" fill="#5d3800" rx="17" ry="148"/><path fill="#2c1900" d="M57 192l-12-1 18-5z"/><ellipse cx="17" cy="111" fill="#442300" rx="31" ry="48"/><circle r="1" fill="#171a04" transform="matrix(16.10549 -20.04796 10.01241 8.04345 128.1 73)"/><path fill="#840001" d="M69.5 188.9l-2.1-8 35.1-15.3 7-28.6z"/><path fill="#fff" d="M25 173h20v4H25z"/><ellipse cx="160" cy="196" fill="#945300" rx="4" ry="65"/><path fill="#c77c00" d="M122 141l15 27-50 33z"/><path fill="#6d0000" d="M109.3 179.2l13.9 2-4.5 31.6-13.9-2z"/><path fill="#d6cbae" d="M64 131h7v16h-7z"/><path fill="#3286c3" d="M37 181h11v13H37z"/><path fill="#211c04" d="M134 109l18.7 58.2L87 103.4l28 49.7z"/><path fill="#2f3020" d="M34 211l45-5 22 31z"/><path fill="#2b2e18" d="M139.2 204.4l2.6-50.9h1l-2.6 51z"/><circle r="1" fill="#a9afc3" transform="matrix(-3.7589 -2.8018 5.43556 -7.29236 39.2 224.2)"/><path fill="#995c32" d="M42 197l37 12-58-3z"/><path fill="#816844" d="M49 31h127v19H49z"/><path fill="#ffff03" d="M104 168l-30 32-5-12z"/><path fill="#93816b" d="M23.9 241.1L-3.8 212l22.1 55 6.1-22.3z"/><circle r="1" fill="#ac751c" transform="matrix(1.47504 3.93494 -9.97378 3.73874 12.5 179.5)"/><path fill="#858b90" d="M0 223l24-4-15-34z"/><path fill="#d2cbbd" d="M59.2 229.6L15.4 271l54-45.2-3.2-.4z"/><path fill="#000802" d="M202 90l-28-6 19 15z"/><path fill="#1d1104" d="M140 240h-21l28 31z"/><path fill="#6d3d00" d="M92.2 190.8l36.7 11.9-6.4-15.7-23.4 42.4z"/><circle r="1" fill="#764300" transform="matrix(-6.6669 -11.65866 20.02956 -11.45373 161.5 145.4)"/><path fill="#091b0d" d="M146 157h3v30h-3z"/><path fill="#985000" d="M207 105.6l-35.2.7-2.6-17.5 32 14.1z"/><path fill="#192340" d="M68 190l-3 6 15 15z"/><path fill="#12120d" d="M28.6 241.5l-7 .9-2.2-18 7-.8z"/><circle r="1" fill="#604d37" transform="matrix(1.8567 23.7651 -45.26966 3.5368 142.4 4.5)"/><path fill="#fe1138" d="M74.6 167.9l24.7-28.1-22.8 35-6.7-9z"/><path fill="#80ffff" d="M13.5 189l34.9-3v1l-34.8 3z"/><ellipse cx="42" cy="195" fill="#fff5c9" rx="16" ry="2"/><path fill="#ea0000" d="M89 124h5v43h-5z"/><path fill="#393532" d="M65.1 210.6l-44 9.3 12.4-14.8 16.3 15.2z"/><ellipse cx="45" cy="164" fill="#23190d" rx="20" ry="7"/><path fill="#cf9900" d="M169 177l7 3-8 19z"/><path fill="#fff7cd" d="M3 177l-1 24-18-38z"/><path fill="#cc9100" d="M150 166h8v70h-8z"/><ellipse cx="32" cy="223" fill="#bfbec6" rx="16" ry="2"/><path fill="#67502e" d="M207 79.7l-40.9-3.1-11.8 7.3-7.9-44.1z"/><path fill="#331c10" d="M115 125l-33 13-26-19z"/><circle r="1" fill="#4a401e" transform="matrix(7.27296 -26.58548 31.91189 8.7301 23.2 20.4)"/><path fill="#aa8865" d="M95 221.5l40.5 49.5-17.1-33.3-17.3 4.1z"/><path fill="#fffcf2" d="M28 249.4l-12.8-.4 30.6-1.5L4.7 271z"/><path fill="#8c693c" d="M55 108l-4-.1 2-36 4 .2z"/><path fill="#fff" d="M23 174h5v6h-5z"/><path fill="#4e504f" d="M45.4 178.7l.6 3-29.4 5.6-.6-3z"/><path fill="#d9caa2" d="M42.6 194.2l17.9.8 11.2-45.1-6.3 46.1z"/><circle cx="32" cy="240" r="2" fill="#fff"/><path fill="#904a00" d="M151 242l16-21-15 50z"/><path fill="#4a4d34" d="M121 180h6v47h-6z"/></g></g></svg>