<svg xmlns="http://www.w3.org/2000/svg" viewBox="0 0 1800 1200"><defs/><filter id="a"><feGaussianBlur stdDeviation="12"/></filter><rect width="100%" height="100%" fill="#374156"/><g filter="url(#a)"><g fill-opacity=".5" transform="translate(3.5 3.5) scale(7.03125)"><path fill="#c8e5ff" d="M240.3 82.3L.8 18.1 27.7-82.3l239.5 64.2z"/><circle r="1" fill="#9e9960" transform="matrix(117.03973 -21.5202 8.10222 44.06473 199.8 84)"/><circle cx="12" cy="97" r="67" fill="#232800"/><circle r="1" fill="#fff" transform="matrix(.021 3.00824 -88.80207 .61997 175.4 109.4)"/><path fill="#a8cbff" d="M203-42.7l37.5 48.1L157 70.7l-37.5-48.1z"/><circle r="1" fill="#736d48" transform="rotate(145.7 107.9 60.6) scale(89.6094 27.76684)"/><circle r="1" fill="#7795bb" transform="matrix(1.10314 14.47605 -50.86522 3.87615 139.3 169)"/><circle r="1" fill="#686b60" transform="matrix(54.53476 10.1338 -3.65361 19.6618 105.2 57.2)"/><ellipse cx="57" cy="109" fill="#dbced7" rx="42" ry="3"/><ellipse cx="77" fill="#5880d7" rx="88" ry="30"/><circle r="1" fill="#40441a" transform="rotate(-154.7 49.5 31.5) scale(47.13579 17.73749)"/><ellipse cx="216" cy="133" fill="#485343" rx="150" ry="20"/><ellipse cx="38" cy="142" fill="#13262a" rx="73" ry="20"/><circle r="1" fill="#94b2f0" transform="matrix(1.93943 22.1678 -65.04804 5.69097 159.9 19.3)"/><path fill="#e4d2c7" d="M117.2 163.7l-1.5-5-13.3 3.5L88.7 185z"/><circle r="1" fill="#bbb6b0" transform="matrix(10.16247 1.66417 -2.52058 15.39224 253.6 99.2)"/><circle r="1" fill="#191e10" transform="matrix(-15.64872 1.31406 -4.36114 -51.93538 7.8 67.5)"/><ellipse cx="164" cy="108" fill="#dfdeef" rx="94" ry="2"/><circle r="1" fill="#4e6a9e" transform="matrix(-1.69709 21.67065 -33.74392 -2.64258 26.7 3.4)"/><path fill="#b4ccfb" d="M160.6 61l-15-24.9 31.8-19 15 24.8z"/><circle r="1" fill="#61686a" transform="rotate(23 -82.3 303.5) scale(28.68223 15.22038)"/><path fill="#7a7c6e" d="M126 50l80 12-40 31z"/><path fill="#3f4a47" d="M83 114h61v46H83z"/><circle r="1" fill="#9b999b" transform="matrix(2.94507 -2.268 15.93711 20.69476 132.6 167.8)"/><path fill="#c0b6b0" d="M220 31l15-7.8 5 9.8-15 7.8z"/><path fill="#616462" d="M66.3 35.5l-15.7-8.6-36.7-1.1 34.5 21.5z"/><path fill="#3b3f23" d="M25 58h58v50H25z"/><ellipse cx="217" cy="63" fill="#74745e" rx="42" ry="26"/><circle r="1" fill="#908c7e" transform="matrix(-3.25053 -4.4537 34.8671 -25.44773 224.5 59.2)"/><path fill="#3a5d8c" d="M204.3 174.3l-23.9 25.6-38.7-36.2 23.9-25.6z"/><path fill="#363e32" d="M167 152l104-7-13 31z"/><path fill="#596059" d="M121 114h135v23H121z"/><circle r="1" fill="#a9a8a3" transform="matrix(6.11976 -.76479 .5774 4.62022 93.3 49.4)"/><circle r="1" fill="#7b9ad2" transform="matrix(86.59728 -20.85262 2.77453 11.52216 136.3 11.3)"/><circle r="1" fill="#4a6e93" transform="matrix(-14.0238 -49.89124 .9627 -.2706 12.7 153)"/><path fill="#cdcbd3" d="M129 106h127v6H129z"/><path fill="#6d6f3f" d="M263 42.9l-74.5 62.2 82.5-3.3-29.3 4.7z"/><path fill="#746c54" d="M224.9 24.9l44.1-6.2-18.1-29.6 14.8-5.1z"/><ellipse cx="38" cy="169" fill="#0e2223" rx="33" ry="5"/><path fill="#93b2f4" d="M203 7l17 16 51-39z"/><path fill="#938fb3" d="M-15 177l23-20-14 28z"/><path fill="#9b9e8d" d="M89.2 104l-.4 22h-6l.4-22z"/><path fill="#3b4536" d="M61 112h49v22H61z"/><path fill="#4e512e" d="M67 100l85 3-75-40z"/><ellipse cx="80" cy="109" fill="#b9b1b5" rx="43" ry="2"/><ellipse cx="92" cy="161" fill="#b6b3b1" rx="18" ry="1"/><path fill="#6f839b" d="M207.9 110.9l-53.6 1.1-23.7 1.8 40.9 4.3z"/><path fill="#101e21" d="M29.2 110.8l-25.7 6.5 9.1 27.4 32.1 8.6z"/><path fill="#b9b6b6" d="M201 39h9v9h-9z"/><path fill="#878665" d="M156 103h77v4h-77z"/><path fill="#73706e" d="M41 105h38v2H41z"/><path fill="#63694f" d="M150 72.9l90.9-31.2-24.7-5.7 1 6.8z"/><path fill="#fff" d="M98 168h14v2H98z"/><path fill="#a5bfec" d="M180.1 50.1l57.4-38.7-67.8 14.7-59.6 12.1z"/><path fill="#2b3958" d="M116.5 43.9L107.6 56l-8-5.9 8.8-12.1z"/><ellipse cx="78" cy="162" fill="#898989" rx="63" ry="1"/><path fill="#444646" d="M131 171.5l-22.6-4 .5-3 22.7 4z"/><path fill="#b0aaac" d="M132.8 180.9l-2.9.9-8.7-26.7 2.9-.9z"/><path fill="#b2b08d" d="M139.8 84.3l-10.8 18-.8-.6 10.8-18z"/><path fill="#6d6c73" d="M8 110h53v2H8z"/><path fill="#273d52" d="M142 165l-26-21 40 2z"/><circle r="1" fill="#2c321b" transform="matrix(-16.69954 5.29958 -11.96013 -37.6876 29.6 67)"/><path fill="#101b27" d="M51 41h6v18h-6z"/><path fill="#a19c98" d="M106 72l8 1v10z"/><path fill="#828586" d="M114 85.8l29-16.6-.6-20.4 32.4 14.1z"/><circle cx="115" cy="63" r="4" fill="#a5a2a0"/><circle r="1" fill="#bcc4d8" transform="rotate(-164.8 87.1 16.7) scale(10.18162 5.64365)"/><path fill="#6c6e45" d="M107.4 107.9l46.2-26.6 25.4-26-17.3 48z"/><path fill="#4e5758" d="M145 125h38v29h-38z"/><circle r="1" fill="#495156" transform="matrix(19.27596 18.91995 -6.44762 6.56894 75.8 53.1)"/><path fill="#8fa7d8" d="M62.7 26.5l11.6 15 9.9-8.5 145.9-14.1z"/><path fill="#a09b8d" d="M224 74l6-29-16 16z"/><path fill="#686c58" d="M86 52h19v21H86z"/><path fill="#60624b" d="M244 44l13-14-26 7z"/><path fill="#1c2c3c" d="M116.7 148l1-.3 11.6 40.3-1 .3z"/><path fill="#4c535d" d="M92.5 34.7l-7.2-3.6-9.1 33.7-24-14z"/><path fill="#6f7243" d="M190 100h66v6h-66z"/><path fill="#6583ba" d="M31.2 28.1L2.9 17.6 106.5-8.9 55 27.7z"/><circle cx="86" cy="107" r="3" fill="#ededf9"/><path fill="#1c2c2b" d="M40 131h44v30H40z"/><path fill="#595f6a" d="M45.8 156v-1l72.4-9v1z"/><ellipse cx="50" cy="163" fill="#9e918a" rx="13" ry="1"/><path fill="#c1b9ac" d="M172 82l8 1-16 5z"/><path fill="#7d8695" d="M52.6 45.4l-8.6-4-8.5-15.2-8.9-5.1z"/><path fill="#9f9da2" d="M129 157l17 12v10z"/><path fill="#6b6570" d="M-6 154v-1l50 1v1z"/><path fill="#709ec3" d="M9 138.1l17 55.5-1 .3-17-55.5z"/><circle r="1" fill="#98937e" transform="matrix(-.62069 -1.6601 9.54261 -3.56784 204.2 87)"/><path fill="#e5e9f0" d="M135 108h46v3h-46z"/><circle r="1" fill="#90ade2" transform="matrix(40.433 -5.42 1.42637 10.64064 146 27)"/><path fill="#98989f" d="M96.3 104.5l-18.2 7.2 19.7 1.4 18.5-1.4z"/><ellipse cx="1" cy="91" fill="#101612" rx="18" ry="14"/><path fill="#12181e" d="M-16 9.9l29.8 13.5 8.1 7.5-7.2 2.4z"/><path fill="#313b3d" d="M80 45l11.6 35.8L66 47.9l2.8 13.8z"/><path fill="#535d5c" d="M143.4 78.7l-13.6-3.2-16-18.3 12.1-15.8z"/><path fill="#666a55" d="M200 60l-1-23-42 39z"/><path fill="#9b9487" d="M240.1 35.8l-22.3-10 37.1-4.6L271 14z"/><path fill="#50699e" d="M-2.7 9l34.4-32 13 14-34.4 32z"/><path fill="#727476" d="M110.9 34.7l-8 8.8L172.2 84 79.1 32.8z"/><path fill="#50554a" d="M137 135l95 6 39-33z"/></g></g></svg>