<svg xmlns="http://www.w3.org/2000/svg" viewBox="0 0 1800 1200"><defs/><filter id="a"><feGaussianBlur stdDeviation="12"/></filter><rect width="100%" height="100%" fill="#3c424c"/><g filter="url(#a)"><g fill-opacity=".5" transform="translate(3.5 3.5) scale(7.03125)"><circle r="1" fill="#e7f6fc" transform="matrix(12.29716 90.95175 -225.9527 30.55 124.3 46.6)"/><circle r="1" fill="#8f7355" transform="matrix(232.43509 -6.46751 .70148 25.21042 125 125)"/><circle r="1" fill="#cccfc3" transform="matrix(-2.10705 32.67285 -160.31734 -10.33878 59.6 71.6)"/><circle r="1" fill="#4984c4" transform="rotate(-171.3 83.7 -.8) scale(253.60893 31.17275)"/><ellipse cx="99" cy="44" fill="#8eaccd" rx="122" ry="25"/><ellipse cx="17" cy="96" fill="#c8ab87" rx="232" ry="12"/><circle r="1" fill="#757169" transform="matrix(-181.95048 22.548 -1.70843 -13.78616 141.2 128.4)"/><circle r="1" fill="#4875a5" transform="rotate(103.1 102.2 83.8) scale(18.35589 140.31761)"/><circle r="1" fill="#c2c5bc" transform="matrix(1.53402 -19.66489 93.15859 7.2671 65 75.8)"/><ellipse cx="165" cy="148" fill="#495a5e" rx="112" ry="11"/><circle r="1" fill="#b88f6e" transform="matrix(-2.68215 15.55154 -54.2627 -9.3586 22.6 114.7)"/><circle r="1" fill="#88a8bf" transform="matrix(-96.71002 -12.38884 2.17423 -16.97251 203.3 58)"/><circle r="1" fill="#7d99bb" transform="matrix(195.77853 22.95915 -1.46604 12.5013 40.4 18.5)"/><circle r="1" fill="#79736e" transform="rotate(-103.7 155.5 -26) scale(19.78524 65.6651)"/><circle r="1" fill="#a7ab98" transform="matrix(-72.26018 9.51323 -1.59444 -12.111 233.3 86.7)"/><path fill="#273539" d="M260.4 177.8l-170.9.4 181.5-32-3.2 38.8z"/><path fill="#917e76" d="M59 107l152.8-8 1.2 24-152.8 8z"/><ellipse cx="143" cy="153" fill="#454d52" rx="119" ry="9"/><circle r="1" fill="#877963" transform="matrix(.89944 -8.31506 83.90613 9.07611 16.9 133.5)"/><circle r="1" fill="#698eb3" transform="matrix(162.09859 48.7507 -4.66885 15.52418 234.4 38.8)"/><path fill="#a3b7be" d="M231.5 84.5L71 70.5l1.4-17 160.4 14z"/><path fill="#655f72" d="M68 107h36v6H68z"/><path fill="#6b6370" d="M60 110h196v3H60z"/><ellipse cx="44" cy="99" fill="#c6aa8c" rx="71" ry="7"/><circle r="1" fill="#6f7067" transform="matrix(-66.18669 4.39611 -.2926 -4.4054 105.2 139.1)"/><ellipse cx="97" cy="119" fill="#a08d77" rx="60" ry="6"/><circle r="1" fill="#8da5c1" transform="matrix(-1.66713 12.47571 -69.35001 -9.26722 66.6 31.5)"/><circle r="1" fill="#49739f" transform="rotate(101.7 120.9 104) scale(8.36437 41.97345)"/><circle r="1" fill="#c9bfab" transform="matrix(67.22518 6.11797 -.97167 10.67684 21.3 84.9)"/><path fill="#4d565a" d="M206 148l-80-11-13 26z"/><path fill="#a99988" d="M131 97h114v7H131z"/><circle r="1" fill="#7f9eb7" transform="rotate(-78.7 147.8 -115.3) scale(9.38493 75.145)"/><ellipse cx="223" cy="140" fill="#57605c" rx="70" ry="7"/><circle r="1" fill="#384149" transform="matrix(28.54203 -7.51823 4.27073 16.21331 61.7 164.7)"/><circle r="1" fill="#5e605d" transform="matrix(33.09534 -7.88442 1.52579 6.4046 13.2 150.8)"/><path fill="#726c66" d="M198 107h58v28h-58z"/><circle r="1" fill="#b1b8ab" transform="rotate(173.9 79 47.6) scale(38.90948 8.59016)"/><circle r="1" fill="#7c96b7" transform="matrix(1.28567 -9.28222 94.11775 13.03611 58.5 15)"/><ellipse cx="29" cy="127" fill="#96846e" rx="93" ry="7"/><path fill="#b29683" d="M45 102h104v6H45z"/><circle r="1" fill="#212f37" transform="rotate(174.7 123.6 90.4) scale(54.49775 8.99333)"/><path fill="#b0bbc2" d="M136.4 82.7L-52.8 56.1l2.4-16.8 189.2 26.6z"/><path fill="#a09582" d="M211 96l60-10v17z"/><path fill="#32383e" d="M51 157L0 179l-8-19z"/><circle r="1" fill="#9dacad" transform="matrix(.37116 -8.8046 34.97153 1.47425 218.9 76.3)"/><path fill="#7a776a" d="M244.9 114.3l-65.1 4.8-54 20.5 78.7-5.5z"/><path fill="#344655" d="M129.8 148.4l.6-5 39.8 4.2-.6 5z"/><path fill="#565753" d="M113 151.5h48v9h-48z"/><path fill="#957d63" d="M36.1 128L-16 145.6l31.6-2.6L-7 131.1z"/><ellipse cx="100" cy="95" fill="#bdb29d" rx="70" ry="5"/><circle r="1" fill="#91abbb" transform="rotate(96.9 72.6 120) scale(7.97472 31.56727)"/><path fill="#374246" d="M271 143.5L101.7 185l-49.4-15.1L217 153.5z"/><path fill="#6c6e69" d="M95 136h19v11H95z"/><circle r="1" fill="#6289b1" transform="rotate(-166.8 93.5 -1.6) scale(171.99987 4.22999)"/><circle r="1" fill="#97a9bf" transform="rotate(-175 10.7 17) scale(87.888 7.94754)"/><path fill="#b08e78" d="M-25.5 117l1.2-16 85.8 6-1.2 16z"/><path fill="#464c4f" d="M269 143l-56-3 58 19z"/><circle r="1" fill="#bcc2be" transform="rotate(93 -8.4 61.7) scale(8.30613 45.76514)"/><ellipse cx="83" cy="57" fill="#a3b5c3" rx="58" ry="6"/><ellipse cx="219" cy="86" fill="#aaafa0" rx="26" ry="6"/><ellipse cx="252" cy="110" fill="#665a67" rx="28" ry="3"/><path fill="#3f4a55" d="M114 162l-66-12 49-5z"/><path fill="#4e5860" d="M136.9 142.7l16-1.1-22 14.4-54.8-10.9z"/><path fill="#7a7163" d="M63.5 144.6L27 150.4l-.5-3 36.5-5.8z"/><path fill="#887e70" d="M185.4 114.1L-2.4 137.7l165.1-8.4 67.2-15.9z"/><ellipse cx="145" cy="110" fill="#83787c" rx="49" ry="2"/><path fill="#7a7176" d="M98 112l-28-5 22-2z"/><path fill="#6d716a" d="M163.9 143.3l-25.8-7.9 2-6.7 25.8 7.9z"/><circle r="1" fill="#a08b81" transform="rotate(-2.4 2587.2 -3770.3) scale(68.0461 1.3125)"/><circle r="1" fill="#7a90ae" transform="matrix(.64214 -11.91557 27.2997 1.4712 11.4 0)"/><path fill="#7194b9" d="M188.3 36.6L73.8 12.2l2-8.8 114.4 24.4z"/><circle r="1" fill="#65665d" transform="matrix(2.21384 7.30004 -25.89517 7.85309 245.5 129.4)"/><path fill="#585b53" d="M177 146l33 4-21 3z"/><path fill="#c5ac8f" d="M-16 100.8l115.5 2.8-92-12.1-23.5-.1z"/><circle r="1" fill="#849bb9" transform="rotate(-85.3 25.8 -9) scale(7.43687 52.5002)"/><ellipse cx="134" cy="160" fill="#484e50" rx="33" ry="4"/><path fill="#98887a" d="M113 114h68v4h-68z"/><path fill="#887672" d="M223 101h33v5h-33z"/><path fill="#a28277" d="M0 110h60v4H0z"/><path fill="#7a7568" d="M72 133h32v12H72z"/><ellipse cx="82" cy="82" fill="#bfc2b6" rx="41" ry="6"/><path fill="#323b44" d="M160.8 166.5l-26.7.4-23.4-5.5-31.6 9.6z"/><circle r="1" fill="#a9a290" transform="matrix(.47293 3.1128 -62.30586 9.4662 209 95.3)"/><circle r="1" fill="#535855" transform="matrix(.65215 -2.7092 23.88954 5.7506 220.9 145.2)"/><path fill="#585e62" d="M-9 148l43.5-7 .5 3-43.5 7z"/><path fill="#a58c70" d="M-1 129l55-9-70-7z"/><circle r="1" fill="#557fa9" transform="matrix(98.6171 31.85246 -1.4693 4.54905 197.5 0)"/><path fill="#4e514c" d="M232.5 156.2l-.1 2-27-2.4.2-2z"/><circle r="1" fill="#a3b7c1" transform="rotate(-80.4 102.5 -42.6) scale(3.65912 47.19024)"/><path fill="#8f7559" d="M3.2 142.6l-.1-1 39.7-4.2.1 1z"/><path fill="#505151" d="M0 152h29v5H0z"/><circle r="1" fill="#7495b0" transform="rotate(106.9 109.3 119) scale(5.95829 50.8776)"/><circle r="1" fill="#93a6ae" transform="rotate(-76.1 169.1 -119) scale(5.41929 29.97547)"/><circle r="1" fill="#bc997e" transform="matrix(-41.12155 -2.37105 .15678 -2.71904 25.4 105.5)"/><circle r="1" fill="#99aec2" transform="matrix(-.87557 4.63974 -67.98317 -12.82923 98 49.2)"/><circle r="1" fill="#958777" transform="matrix(-53.0911 4.45733 -.14158 -1.6863 68.5 124.6)"/><circle r="1" fill="#4a585f" transform="matrix(-.08375 .99649 -38.94862 -3.27334 206.5 140.7)"/><path fill="#a5b0bc" d="M-15 30v21l61-1z"/><circle r="1" fill="#b3bbbf" transform="matrix(-95.22036 -13.65394 .71065 -4.95598 0 56.6)"/><path fill="#404e5b" d="M140 150l2-11-22 5z"/></g></g></svg>