<svg xmlns="http://www.w3.org/2000/svg" viewBox="0 0 1800 1200"><defs/><filter id="a"><feGaussianBlur stdDeviation="12"/></filter><rect width="100%" height="100%" fill="#3f2725"/><g filter="url(#a)"><g fill-opacity=".5" transform="translate(3.5 3.5) scale(7.03125)"><ellipse cx="144" cy="3" fill="#6f6d7f" rx="208" ry="26"/><ellipse cx="31" cy="118" fill="#001312" rx="105" ry="95"/><circle r="1" fill="#6d5f61" transform="matrix(17.85573 26.2739 -58.43103 39.70968 213.8 153.2)"/><ellipse cx="187" cy="71" fill="#1d201c" rx="31" ry="62"/><circle r="1" fill="#463c3d" transform="matrix(.20926 14.2412 -105.14473 1.545 75.7 64.4)"/><circle r="1" fill="#b94928" transform="matrix(9.06355 1.2911 -2.72018 19.09584 145.7 73.7)"/><circle r="1" fill="#060905" transform="rotate(84.8 -85.2 80.8) scale(34.50901 109.77806)"/><ellipse cx="115" fill="#746570" rx="63" ry="27"/><path fill="#47434f" d="M187 0h69v37h-69z"/><path fill="#0b0d03" d="M0 31h138v20H0z"/><path fill="#0a1919" d="M232 36h24v70h-24z"/><path fill="#6b4d4b" d="M113 160h143v10H113z"/><circle r="1" fill="#515253" transform="matrix(5.46513 -42.66201 6.62798 .84906 226.3 61.2)"/><path fill="#4c1e12" d="M169 99V10l24 4z"/><path fill="#5d5362" d="M161.1-7.1l50.5 8.7-31.9 35 40.9-1.3z"/><path fill="#2e2e30" d="M54 47h78v56H54z"/><ellipse cx="174" cy="118" fill="#231c14" rx="13" ry="33"/><path fill="#3d343a" d="M5.2 4.4l46.3 21.3-53.2 1.6L-.2-16z"/><path fill="#7b3928" d="M157.2 58.6l-36.7 42.6 20.6-44.9-1-36.7z"/><path fill="#3d363b" d="M271 5.5l-4.6 37.4-52.2-24.3L235.3-16z"/><path fill="#090f13" d="M192.6 27.6L168 11.8l-19.1 3.6 40.7-6.1z"/><path fill="#181711" d="M166.8 49.4l6.9-13.2-29.9-11.5 23.7 53.9z"/><path fill="#070100" d="M253 134h3v24h-3z"/><path fill="#131207" d="M190 36h31v16h-31z"/><path fill="#5c4c51" d="M229.3 110.6l-63.8 30.5.1-5 62.9 1.1z"/><path fill="#13140c" d="M96.9 54.7L94.3 30l24.8-2.6 2.6 24.8z"/><path fill="#020a06" d="M152 122l3 14-14 7z"/><circle r="1" fill="#1c1915" transform="matrix(-19.03364 -10.8566 14.7658 -25.8872 115.2 138)"/><path fill="#58525d" d="M175 37l-47-24 31-2z"/><path fill="#67555a" d="M204.7 185l-85.1-9.4 35.6-25.2-7.9 13.5z"/><ellipse cx="196" cy="87" fill="#1d2424" rx="21" ry="34"/><circle r="1" fill="#1f2224" transform="matrix(-70.10664 -24.96385 6.16838 -17.32283 25.3 81.4)"/><circle r="1" fill="#0d0b06" transform="rotate(-77.2 30.2 12.4) scale(13.868 25.94994)"/><path fill="#76493a" d="M180 185l72-42 4 25z"/><path fill="#643326" d="M175 32.8l11.5 3.5-7.6 24.9-11.4-3.5z"/><circle cx="80" r="30" fill="#6b5a60"/><path fill="#3e3a3d" d="M70.6 49l-13.9 3.5 11.8 12.6 71.2-7.2z"/><path fill="#3d433f" d="M147 94h13v25h-13z"/><path fill="#723525" d="M159 67l-22 13 1 34z"/><path fill="#482722" d="M184 123l-72 35 70-10z"/><path fill="#121c17" d="M173.4 129.6l7.7-60.4-21.5 54.8 6 11.4z"/><path fill="#534851" d="M177.1-16l12.7 32 34.9 25.1 22.7-8.2z"/><circle r="1" fill="#0a0a07" transform="rotate(8.5 -1142.3 93) scale(69.76372 28.999)"/><path fill="#100a01" d="M239 38h17v14h-17z"/><path fill="#53362d" d="M1 123.6l128.4-30 6.9-19.6-10.4 17.4z"/><circle r="1" fill="#584a52" transform="matrix(.85223 8.39 -33.3403 3.38658 48.7 18)"/><circle r="1" fill="#554447" transform="rotate(-34.4 317.3 -164) scale(12.34329 1.92184)"/><circle r="1" fill="#080200" transform="matrix(-3.4038 3.26413 -5.4583 -5.69187 184 18)"/><circle r="1" fill="#5a3426" transform="rotate(-73.1 138 -116.5) scale(59.09053 1)"/><circle r="1" fill="#281f1b" transform="matrix(-52.1738 19.29967 -.54991 -1.4866 69.7 154.5)"/><path fill="#121817" d="M101 95l-117-3 6 31z"/><path fill="#432e2c" d="M62.6 176.3l82.3-49.5.5 1-82.3 49.4z"/><path fill="#705e66" d="M96 18l114-34-226 4z"/><path fill="#5a525e" d="M169 17l20-33-72 50z"/><path fill="#412a2b" d="M115 158l-8 27-23-12z"/><path fill="#272a2b" d="M138.1 56.5l-4.3 24.4-46.2 2.6 82.7-52.7z"/><circle r="1" fill="#974935" transform="matrix(1.19627 -16.68888 3.46793 .24858 141 70.8)"/><path fill="#503b35" d="M190.2 60.2l-69.8-11.6-2.3 4.7 45.1-.9z"/><path fill="#1b110c" d="M176.2 36.1l-21.6 8.4 2.5-15.7-17.4-1.4z"/><path fill="#2f2927" d="M199 114l72-10-4-32z"/><path fill="#441f17" d="M175.4 108.5l-1.1 2 1.3 41.2 14.3-38.6z"/><path fill="#1d1912" d="M33 30h103v19H33z"/><circle r="1" fill="#594a4d" transform="matrix(4.21291 7.41607 -26.25899 14.91718 209.7 127.2)"/><circle r="1" fill="#4d4045" transform="matrix(-37.42635 43.51215 -6.48727 -5.57993 230.4 138.3)"/><ellipse cx="172" cy="24" fill="#733326" rx="6" ry="7"/><path fill="#544a59" d="M205 35l-23 2 34-53z"/><path fill="#604f55" d="M130 158l-25 27H77z"/><ellipse cx="64" cy="126" fill="#141715" rx="49" ry="13"/><path fill="#4c4140" d="M229.5 101.8l-7.5-75-1.8 43.9-5.8 43.6z"/><path fill="#612111" d="M139 118h5v25h-5z"/><path fill="#2f1c1e" d="M141 158l5-17-29 31z"/><path fill="#132128" d="M209 51l11 1-3 26z"/><path fill="#39150f" d="M161 146l-3 16-9 1z"/><path fill="#7e3929" d="M139 32h9v14h-9z"/><path fill="#1e1e1b" d="M136 146l1-53-20 4z"/><path fill="#202021" d="M228.7 113l20.4-75.7L227 99.8l-7.2 12.2z"/><path fill="#130c09" d="M170 13h16v5h-16z"/><path fill="#3c343a" d="M-14.9 23l-1.1-5.1L-2.7-2.8l27.1 30.4z"/><path fill="#393543" d="M259-16l9 46-35 7z"/><path fill="#2d201a" d="M124 35.2L153 24l1 2.8L125 38z"/><path fill="#5b2518" d="M160.9 132l-10.2-17.1 7 38.7 3.1-15.1z"/><path fill="#6e2c22" d="M122 90h8v8h-8z"/><path fill="#272e37" d="M187 53h16v16h-16z"/><path fill="#281e1b" d="M139.9 108.1l.7 13.4 9.6-21 2.3-10.6z"/><path fill="#1d1a19" d="M210 79l5 29-33 21z"/><path fill="#4e261b" d="M184 73.1l-18-2.5 4-27.7 17.8 2.5z"/><path fill="#2a2a2c" d="M0 53h67v31H0z"/><path fill="#5a515c" d="M167 31l-26-11 30-12z"/><path fill="#0c110b" d="M170 73.4l-3 17.7-3-.5 3-17.7z"/><ellipse cx="71" cy="51" fill="#997367" rx="5" ry="1"/><path fill="#503834" d="M158 137.9l.4.9L90 172l-.5-.9z"/><path fill="#5a494b" d="M162 153h42v17h-42z"/><path fill="#605861" d="M119 10h21v20h-21z"/><path fill="#251715" d="M140.3 147.6l13.6-5.4 3.1.8-39.7 18.8z"/><path fill="#0c0606" d="M112 166.2l-22.1 8.9 34.7-19-22.2 17.7z"/><path fill="#343438" d="M117 73L38 56l108-6z"/><path fill="#13120f" d="M105.2 163.4l-39.9 20 72.1-52.5-4 17.6z"/><circle r="1" fill="#1b1713" transform="matrix(.04256 6.39082 -36.55137 .24344 44.6 33.6)"/><path fill="#201a13" d="M120.4 49.1l-29.2 2.6-29.9-25.5 86.9 24.2z"/><path fill="#000e0b" d="M146 123.3l5-.6 1 8-5 .6z"/></g></g></svg>