<svg xmlns="http://www.w3.org/2000/svg" viewBox="0 0 1800 1200"><defs/><filter id="a"><feGaussianBlur stdDeviation="12"/></filter><rect width="100%" height="100%" fill="#403732"/><g filter="url(#a)"><g fill-opacity=".5" transform="translate(3.5 3.5) scale(7.03125)"><circle r="1" fill="#ebffff" transform="rotate(93.5 44.4 85.3) scale(77.82237 210.71099)"/><path fill="#100" d="M49 11h20v104H49z"/><circle r="1" fill="#b4c1d9" transform="matrix(-79.24885 18.87974 -16.21306 -68.0553 149.5 39.8)"/><circle r="1" fill="#696c6c" transform="rotate(-176 81.5 62.5) scale(173.80248 24.14546)"/><circle r="1" fill="#746756" transform="matrix(-37.96576 -17.79173 11.87036 -25.33017 89.8 142.7)"/><path fill="#10130e" d="M0 126h44v44H0z"/><circle r="1" fill="#bec5d0" transform="matrix(-131.23454 15.60692 -1.8408 -15.47885 202.8 42.3)"/><circle cx="4" cy="65" r="44" fill="#9da8c0"/><circle r="1" fill="#8c9bab" transform="matrix(-.12522 -4.7008 28.53265 -.76004 23 120.9)"/><path fill="#2f2d24" d="M260 181.1l-73-12.8 7-39.4 73 12.8z"/><ellipse cx="210" cy="120" fill="#58687d" rx="140" ry="8"/><ellipse cx="189" cy="89" fill="#9ba9ba" rx="122" ry="25"/><circle r="1" fill="#909eb3" transform="matrix(-92.2203 13.61791 -3.02914 -20.51331 213.8 16.9)"/><path fill="#3f3119" d="M72 12L57 87 46 13z"/><ellipse cx="25" cy="110" fill="#0c181f" rx="29" ry="4"/><ellipse cx="142" cy="139" fill="#877560" rx="61" ry="7"/><ellipse cx="219" cy="122" fill="#626e7b" rx="57" ry="10"/><path fill="#a1a8b0" d="M70 63h65v49H70z"/><path fill="#95a3bd" d="M50.7 50.9L3.9 55.8-2.7-7l46.8-4.9z"/><ellipse cx="167" cy="63" fill="#c2c8cc" rx="43" ry="13"/><path fill="#565248" d="M165 173l66-21-133-10z"/><path fill="#382c16" d="M72 126h96v6H72z"/><circle r="1" fill="#697d9c" transform="matrix(1.71652 -8.7765 33.13679 6.48093 248.6 66)"/><circle r="1" fill="#a3adc2" transform="rotate(92.1 39.4 42) scale(9.19805 49.42516)"/><circle r="1" fill="#d1d3d3" transform="rotate(-6.7 488 -926.3) scale(33.86145 9.11337)"/><path fill="#79899b" d="M157 82l-35 3-29-22z"/><path fill="#7b6b57" d="M74 158l-6-77-16 74z"/><path fill="#000106" d="M247.1 185l-15-18.4-18.2-5.6-21.6 11.9z"/><path fill="#483e31" d="M59.3 185L53.5 7.3 47 119.7l-9.6 35.1z"/><ellipse cx="114" cy="115" fill="#535f6d" rx="184" ry="2"/><path fill="#868d97" d="M70 116h44v7H70z"/><path fill="#1a1812" d="M44.8 13.5l4.4-4 8 9-4.4 4z"/><path fill="#070f01" d="M166 122l-8 5 16 4z"/><path fill="#2e3a49" d="M112 110l-16 3 23 2z"/><path fill="#767f88" d="M170 123h58v7h-58z"/><ellipse cx="14" cy="128" fill="#564b3d" rx="25" ry="5"/><path fill="#6c6156" d="M48.5 168.8l65.7-10.1-80.6-10.4L179.5 185z"/><path fill="#8b9299" d="M0 85h29v19H0z"/><path fill="#767f8a" d="M26.8 113.7l24.6 2.4-39.3 11.5-23.6-9.7z"/><path fill="#7a6c5d" d="M171 150l-1 13-22-8z"/><path fill="#6c5c45" d="M57 47h12v80H57z"/><path fill="#adb2b5" d="M129.4 94.7l-64.9 18.1 12.3-26 24.1-13.5z"/><circle r="1" fill="#98a4b2" transform="matrix(-75.6401 7.58204 -1.63582 -16.31927 216 91.2)"/><path fill="#4d5b6b" d="M-4 105.4l-1.1-1.7-10.9 10.9 61.5-8.6z"/><circle r="1" fill="#8491a4" transform="rotate(112.3 26.5 45.8) scale(9.38051 10.3917)"/><circle cx="77" cy="128" r="7" fill="#3a2b1e"/><ellipse cx="180" cy="16" fill="#9aa4b4" rx="80" ry="21"/><path fill="#251f20" d="M46 158h29v7H46z"/><path fill="#99a2ad" d="M0 31h50v34H0z"/><path fill="#caced0" d="M167 44.6l51.9-11 2 9.8-51.8 11z"/><path fill="#202425" d="M175 153h17v8h-17z"/><path fill="#a7acb3" d="M28.6 89.4L2.7 75.2l46-34.3-2.2 67.7z"/><ellipse cx="255" cy="136" fill="#453b30" rx="75" ry="5"/><path fill="#302a20" d="M50 125l-33-2 24 25z"/><ellipse cx="147" cy="149" fill="#494032" rx="67" ry="3"/><path fill="#353a38" d="M99 163l36-9 42 17z"/><path fill="#726557" d="M156 152l-68-24 78 3z"/><path fill="#94a0b0" d="M192 8l-49 46L271 3z"/><path fill="#454444" d="M52.4 113.3l31-1.6.2 3-31 1.6z"/><path fill="#3d3429" d="M50 10h6v72h-6z"/><path fill="#130d09" d="M244.7 151.3l-1 3.8-16.4-4.4 1-3.8z"/><path fill="#8b7c6a" d="M66 104h5v52h-5z"/><path fill="#a5b0bf" d="M11.7-16L142.5-2.7 45.3 9.1l3.5 22.3z"/><path fill="#302414" d="M206 133.6l-4 4.3-8-7.5 4-4.3z"/><path fill="#b3bdcc" d="M220 37.2l1.3 10.5 39.9 5.6 2.4-21z"/><path fill="#909fac" d="M99.7 100.3l15.5 13.2 79.6-1.4-10.8-15z"/><path fill="#6d6359" d="M209.7 157.3l-6.9-6.1 3.6-1.2 30.6 8.7z"/><path fill="#6e6255" d="M116 151h59v6h-59z"/><ellipse cx="37" cy="109" fill="#212523" rx="11" ry="3"/><path fill="#aaafb5" d="M137 101L68 56l1 28z"/><circle r="1" fill="#8693a2" transform="matrix(-.16952 -4.15663 17.25113 -.70355 107 68.7)"/><path fill="#5c4d3d" d="M60 102l-7-53 18-29z"/><path fill="#838d95" d="M176 126h16v6h-16z"/><circle r="1" fill="#1a1c1c" transform="rotate(-5.1 1787.6 -99.7) scale(25.92757 16.22839)"/><path fill="#98a5b2" d="M104.8 101.2l-2 12.9-33.6-5.3 2-12.9z"/><path fill="#7f8790" d="M88 123h38v2H88z"/><path fill="#808ea4" d="M49 40l-26 3 24-19z"/><path fill="#7c8a9d" d="M207.4 63.6L271 72l-44.8-19.9 3.4-2.4z"/><path fill="#362d24" d="M50 39l4-28 17 4z"/><path fill="#5b6573" d="M224 133.7l47-5.5-24.2-16.5-41.3 19.4z"/><circle r="1" fill="#a1aab8" transform="rotate(-28.2 88.2 -157) scale(14.75827 14.1768)"/><path fill="#a69b90" d="M139 145h16v2h-16z"/><ellipse cy="1" fill="#8a96a7" rx="17" ry="46"/><path fill="#7f94a7" d="M118 109h138v5H118z"/><path fill="#aeb6c3" d="M153 35L83 14l15 31z"/><path fill="#0c1607" d="M106 128l-.3 1-13.7-3 .3-1z"/><path fill="#5f5549" d="M53.2 117.5l-5.4 41.8 15.1 1 4.3-110.6z"/><path fill="#646d76" d="M159 113h50v12h-50z"/><ellipse cx="102" cy="151" fill="#3b3326" rx="20" ry="2"/><path fill="#83776a" d="M70 134h83v2H70z"/><circle cx="44" cy="120" r="4" fill="#8c939e"/><path fill="#5f584d" d="M168 153l14 8-46 5z"/><circle r="1" fill="#acb6c3" transform="matrix(-1.26008 -3.36302 20.11849 -7.53815 234 26.4)"/><path fill="#171b11" d="M159 125h11v7h-11z"/><path fill="#4f5968" d="M212 114l59-2v17z"/><path fill="#6a5c4c" d="M129.9 124.5l17.6 7.5 17.7.1-20-7.5z"/><path fill="#9da8b3" d="M175.5 98.7l-41.9-23.5 40.9-4.1L264.6 97z"/><ellipse cx="155" cy="134" fill="#928d84" rx="9" ry="2"/><path fill="#7c8fac" d="M226-16l34 13-33 14z"/><path fill="#7d8c9e" d="M111 71h19v12h-19z"/></g></g></svg>