<svg xmlns="http://www.w3.org/2000/svg" viewBox="0 0 1800 1200"><defs/><filter id="a"><feGaussianBlur stdDeviation="12"/></filter><rect width="100%" height="100%" fill="#353b54"/><g filter="url(#a)"><g fill-opacity=".5" transform="translate(3.5 3.5) scale(7.03125)"><circle r="1" fill="#b7dde3" transform="rotate(75.9 28.8 101) scale(170.81451 212.93114)"/><circle r="1" fill="#fff" transform="matrix(-191.92151 -9.98366 1.12011 -21.53253 155.2 7)"/><circle r="1" fill="#406a86" transform="matrix(-254.9965 -1.33517 .35168 -67.1647 131.5 125.5)"/><circle r="1" fill="#957b68" transform="matrix(-167.7856 -7.32568 .97455 -22.32095 105.7 51.7)"/><circle r="1" fill="#d5d7d0" transform="matrix(40.5101 -1.62632 .35192 8.766 163 129.5)"/><circle r="1" fill="#e8f6ff" transform="matrix(-.6901 22.45087 -186.76263 -5.74073 146.2 2)"/><path fill="#13293e" d="M132 75h73l-14-16z"/><circle r="1" fill="#4d4234" transform="matrix(.3196 -8.77796 45.9882 1.67438 17 68)"/><path fill="#0a2e33" d="M116 144h97v8h-97z"/><circle r="1" fill="#a9a7a9" transform="matrix(-.24834 10.66005 -127.41942 -2.96835 165.6 36.5)"/><circle r="1" fill="#5d83aa" transform="rotate(173.8 52.3 55.8) scale(106.86521 27.12731)"/><path fill="#fffff8" d="M172.8 134l1.4-13 9 1-1.4 13z"/><ellipse cx="141" cy="133" fill="#e7dad0" rx="27" ry="3"/><ellipse cx="36" cy="161" fill="#40788a" rx="130" ry="20"/><ellipse cx="124" cy="56" fill="#938e87" rx="70" ry="14"/><path fill="#fff5df" d="M149 126l5-13-1 19z"/><ellipse cx="29" cy="30" fill="#938883" rx="57" ry="14"/><path fill="#3f3f3b" d="M18.2 57L9.6 78.3-18.2 67l8.6-21.3z"/><circle cx="213" cy="105" r="30" fill="#577da4"/><ellipse cx="230" cy="157" fill="#436f80" rx="92" ry="9"/><circle r="1" fill="#807b79" transform="matrix(14.05623 -17.62789 25.04458 19.97019 18.7 39.2)"/><path fill="#283a31" d="M127.8 136.8l.4 10-14 .4-.4-10z"/><path fill="#2b3e52" d="M175 63h34v14h-34z"/><circle r="1" fill="#486c94" transform="rotate(-4.8 1153.2 -149) scale(42.25808 20.23029)"/><path fill="#67696a" d="M208 59h48v16h-48z"/><path fill="#81959b" d="M154 29h5v101h-5z"/><path fill="#658499" d="M145 135h49v10h-49z"/><path fill="#6588a1" d="M52 114h95v19H52z"/><ellipse cx="141" cy="73" fill="#3e4852" rx="20" ry="4"/><path fill="#dcebf1" d="M271 34l-56-11 46-4z"/><circle r="1" fill="#7c7e7f" transform="matrix(-3.901 18.26392 -17.77055 -3.79563 158.2 53.2)"/><circle r="1" fill="#d9e3e9" transform="matrix(28.5289 -1.32218 .70942 15.30712 99.8 11)"/><circle r="1" fill="#8a8474" transform="matrix(-22.89355 .07745 -.00786 -2.32291 41 73.8)"/><path fill="#959696" d="M108.8 43.3L132.3 20l-70 39.1-6.4 23.5z"/><path fill="#a2a6ae" d="M214 22l-37 11 82 16z"/><path fill="#f5eee5" d="M160 125h7v9h-7z"/><path fill="#4e748e" d="M262.1 185l8.9-54.1-95.7-2.8 24.6-8.8z"/><circle r="1" fill="#57889a" transform="rotate(11.2 -810.9 596) scale(52.666 18.46385)"/><ellipse cx="9" cy="154" fill="#3e697a" rx="22" ry="12"/><ellipse cx="159" cy="147" fill="#163134" rx="42" ry="2"/><ellipse cx="182" cy="132" fill="#eae4d6" rx="15" ry="2"/><path fill="#9b9b9c" d="M89.5 25.9l49 32.9 9.9-28.8-16.9-6.6z"/><path fill="#6d8698" d="M160 20l-5 28 8-7z"/><path fill="#a29078" d="M14 59l7-4 12 19z"/><ellipse cx="44" cy="67" fill="#30414f" rx="16" ry="4"/><path fill="#e2f4f1" d="M188 120l-10 1 15 4z"/><path fill="#949292" d="M15 22h74v17H15z"/><path fill="#a6b2b1" d="M191 133l4-6 13 12z"/><path fill="#6b9095" d="M218.1 118.9l-58.3 2.8-9.6 16.9 8.9-25.6z"/><path d="M158 138h5v2h-5z"/><path fill="#93b0c1" d="M154.6 116l-1-.1 5.8-81.8h1z"/><ellipse cx="255" cy="85" fill="#496e93" rx="97" ry="5"/><circle r="1" fill="#587ca1" transform="rotate(176.8 38 45.2) scale(51.31375 14.17677)"/><circle r="1" fill="#c0cfdb" transform="matrix(-.64801 -7.27893 25.27446 -2.25008 7.7 5.9)"/><path fill="#787472" d="M74.4 51.1l-50.2-9.9L10 58.6l33.4 6.2z"/><path fill="#d9e5eb" d="M87.2 8.8l73.6 22.7-5-4 16.7-29z"/><path fill="#aeb5b5" d="M78 64l-25-2 13-6z"/><path fill="#dee0dc" d="M153.9 129l-19.3 6.9 12.7.6-3.1 3.8z"/><circle r="1" fill="#7d7b77" transform="matrix(0 -5.58427 78.88961 0 207.3 57.9)"/><path fill="#809eb5" d="M71 74h40v3H71z"/><path fill="#1a2c3c" d="M-16 83.3l27.8-9.4L-16 53.2l10.1.4z"/><ellipse cx="76" cy="139" fill="#4d738e" rx="43" ry="10"/><circle r="1" fill="#426578" transform="matrix(.25574 3.1445 -72.70072 5.91264 202.9 149.9)"/><path fill="#89817a" d="M66.3 57.6l31.4-9.1 74.1 15.8-62 13.2z"/><path fill="#cddbe7" d="M128 0L-16-16l52 34z"/><ellipse cx="74" cy="95" fill="#476a8c" rx="77" ry="2"/><path fill="#5b5e66" d="M198.1 139.8L201 124l1 .2-3 15.8z"/><path fill="#355b62" d="M126.3 128.2l18.5-50.7.9.3-18.5 50.7z"/><path fill="#527794" d="M128 122h21v7h-21z"/><path fill="#54799e" d="M205 75l44 60 22-61z"/><circle cx="158" cy="138" r="2"/><circle cx="157" cy="121" r="3" fill="#306754"/><path fill="#a8abb3" d="M161 28h58v6h-58z"/><path fill="#3d4951" d="M185 135h10v3h-10z"/><circle r="1" fill="#9aa2ab" transform="matrix(-30.64858 -8.0977 1.35388 -5.12422 239.6 35.3)"/><path fill="#454b4e" d="M36 61l9 14-19-12z"/><circle r="1" fill="#d7e4eb" transform="rotate(120.4 88.5 58) scale(13.55324 24.06288)"/><path fill="#51595f" d="M163 66h8v11h-8z"/><path fill="#a4b7b5" d="M169.6 118.9l-16 7.4 12.5 17.3-6.9-26.4z"/><path fill="#678daa" d="M167 123h4v20h-4z"/><path fill="#6082a0" d="M179 86.9l54.5 5.2-51.5 38.1 39.1-5.5z"/><ellipse cx="49" cy="145" fill="#42657b" rx="64" ry="2"/><path fill="#a6a3a3" d="M17.5 15.6l102.2 11.8-58.5 4 26.3-1.3z"/><circle cx="151" cy="121" r="3" fill="#e9e9dd"/><path fill="#7f9eb5" d="M198 134l-1 8 13-3z"/><path fill="#5f899f" d="M129 139h25v7h-25z"/><ellipse cx="228" cy="152" fill="#547b93" rx="30" ry="5"/><path fill="#7c7d7d" d="M219 67.9l-35.3-28.7 25.2 7.2-21.3 17z"/><circle r="1" fill="#83868b" transform="rotate(104.7 60.5 80.4) scale(8.92555 16.3713)"/><path fill="#343f4a" d="M158 74h45v3h-45z"/><path fill="#35424f" d="M125 71h25v5h-25z"/><path fill="#eae7dc" d="M171 125h3v10h-3z"/><circle r="1" fill="#c8d8e1" transform="matrix(21.04576 31.91758 -15.7106 10.35923 247.4 1.8)"/><ellipse cx="160" cy="150" fill="#374e5c" rx="38" ry="3"/><circle r="1" fill="#0a2e35" transform="matrix(-.09237 -.99572 7.32712 -.67972 117.5 144.3)"/><path fill="#b4b0a6" d="M131 42l17 6-24-1z"/><path fill="#fffff3" d="M150 121h2v10h-2z"/><ellipse cx="241" cy="72" fill="#8a8a85" rx="30" ry="2"/><path fill="#898788" d="M15.8 13.6L69.6 25l-5.4 25.4L10.4 39z"/><path fill="#525d69" d="M246 64v8l-27-8z"/></g></g></svg>