<svg xmlns="http://www.w3.org/2000/svg" viewBox="0 0 1800 450"><defs/><filter id="a"><feGaussianBlur stdDeviation="12"/></filter><rect width="100%" height="100%" fill="#333f4a"/><g filter="url(#a)"><g fill-opacity=".5" transform="translate(3.5 3.5) scale(7.03125)"><circle cx="183" cy="32" r="191" fill="#f5f9f9"/><circle r="1" fill="#fff" transform="matrix(-3.60928 30.89165 -130.24906 -15.21788 212.8 6.4)"/><ellipse cx="86" cy="43" fill="#202a2c" rx="73" ry="28"/><circle r="1" fill="#eff" transform="matrix(95.5391 -52.82816 8.44239 15.26796 12.6 12.6)"/><ellipse cx="220" cy="15" fill="#fff" rx="50" ry="28"/><ellipse cx="205" cy="51" fill="#403435" rx="98" ry="7"/><circle r="1" fill="#5b6b79" transform="matrix(7.72158 -23.25503 27.40003 9.09788 159.2 43.6)"/><ellipse cx="68" cy="24" fill="#393e4d" rx="21" ry="20"/><path fill="#ebf5fe" d="M114 25.6l-16-8.7L271 13 36.5-16z"/><path fill="#232e40" d="M25.2 49.8l-6.4-24.1 28-7.5 6.4 24.1z"/><ellipse cx="209" cy="61" fill="#bdddd7" rx="110" ry="3"/><circle r="1" fill="#636d74" transform="matrix(-8.5113 -23.27782 36.74187 -13.43431 142.8 47)"/><path fill="#d3dff2" d="M-16 .7L20.1.6l-4.4 41.5L-16 61.5z"/><path fill="#f6d8c2" d="M0 53h42v3H0z"/><ellipse cx="217" cy="55" fill="#1f303e" rx="54" ry="3"/><path fill="#367e7b" d="M120 59l-130-4 79 24z"/><circle r="1" fill="#f3f6f5" transform="rotate(45.8 82.7 259.3) scale(20.55538 26.84742)"/><path fill="#3f444b" d="M70 42L4 53l29-35z"/><path fill="#93807c" d="M90 44h162v5H90z"/><path fill="#d4e1f6" d="M18 7h33v11H18z"/><ellipse cx="131" cy="2" fill="#e3e8ec" rx="24" ry="20"/><path fill="#272b32" d="M247 40l22 9-23 4z"/><circle r="1" fill="#666" transform="rotate(138.1 34.9 32.3) scale(18.63402 35.70805)"/><path fill="#f8f8f7" d="M273.8-12.7l6 48.6-55.6 6.8-6-48.6z"/><path fill="#465d74" d="M105 43l87-1-41-21z"/><ellipse cx="53" cy="63" fill="#26353f" rx="35" ry="2"/><ellipse cx="64" cy="24" fill="#424c5c" rx="15" ry="21"/><path fill="#607791" d="M104 15l67 14-52 5z"/><path fill="#cdd8e5" d="M126.9 21.3l6.7-15.7-40.9 14.1L94.2-16z"/><path fill="#9c8f81" d="M121.7 45.8l-44.5 1.7 43 13.4-39.6-7.7z"/><path fill="#76777b" d="M219.9 39.5L192 49.1l64.5 5-36.9-14.4z"/><ellipse cx="238" cy="63" fill="#d0d6d7" rx="57" ry="5"/><path fill="#896853" d="M3 49h73v4H3z"/><path fill="#86aea7" d="M94 58h89v4H94z"/><path fill="#e4eaed" d="M120 19l151-5-122-30z"/><path fill="#59463a" d="M110 49h28v9h-28z"/><circle r="1" fill="#bdcee6" transform="matrix(-18.3403 -13.22744 8.99877 -12.4771 33.8 .5)"/><path fill="#f7f8f5" d="M192 36h42v5h-42z"/><path fill="#aaa09c" d="M132 43h33v4h-33z"/><path fill="#eff1f0" d="M255 40.9l-88.1-25 15.9 18.8L258.4-16z"/><path fill="#c4d5e9" d="M59 0l46 10 5-17z"/><path fill="#ffd1a3" d="M76.8 49.6l-5 .7-.6-4 5-.6z"/><path fill="#a59286" d="M164.4 58l-.2 1-30.6-5 .2-1z"/><ellipse cx="107" cy="41" fill="#4a5051" rx="32" ry="4"/><path fill="#3f4240" d="M51.5 53.8l34.8.3-61.5-8.7L64 27.9z"/><path fill="#6c6e77" d="M70.4 16.1l34.7 28.3 5.8-4.1L76.1 2.9z"/><path fill="#645a5b" d="M152 48.2l-11.2-19.1 25.7 30 41.1-10.7z"/><path fill="#8fa2af" d="M2.1 79L-9.5 60.1l20.3-2.9 18.7-8.4z"/><path fill="#3d3523" d="M88 50h31v3H88z"/><path fill="#fde8d7" d="M81.2 51.5l7.8 2-.2 1-7.8-2z"/><path fill="#4f5b6e" d="M52.2 17L27.3 41.5l-12.7-1.2 5.7-14.7z"/><path fill="#c8d3dc" d="M16.1 37.8L7.9 49.2-16 32.9 25.3 8.4z"/><ellipse cx="21" cy="55" fill="#8c7c74" rx="146" ry="1"/><path fill="#68798c" d="M112.4 16.9l106.5 35.3-65.2-30.5-74.3 1.1z"/><path fill="#c7d3df" d="M44.1 19.2L32.4-9.3l-4.9 36-21.2-6.5z"/><path fill="#787b85" d="M235 40l23 1-33 13z"/><path fill="#5d857c" d="M144 79L77 56l47 2z"/><circle cx="204" cy="47" r="4" fill="#899fb1"/><ellipse cx="15" cy="53" fill="#ddccba" rx="19" ry="1"/><path fill="#cbd8e6" d="M81.2 10.9l6-26.3 19.6 4.5-6 26.3z"/><path fill="#3a434e" d="M31 45L0 51l53-27z"/><ellipse cx="79" cy="50" fill="#5a4f3e" rx="4" ry="8"/><path fill="#9b908b" d="M185 47h5v8h-5z"/><circle r="1" fill="#6c5d4f" transform="matrix(-19.44038 10.32636 -1.95853 -3.68712 65.3 45.3)"/><path fill="#635858" d="M230.7 43.7l-1.5 6.7-10.6.7-12.4-1.3z"/><path fill="#423d40" d="M172 54h-14l3-6z"/><path fill="#bd9d82" d="M57 46h4v5h-4z"/><path fill="#538892" d="M22 55l-10 9 37-6z"/><path fill="#515e6d" d="M71.6 9.9l56.8 42-2.6-10.6 37.9 3.2z"/><ellipse cx="137" cy="11" fill="#dde3e7" rx="26" ry="10"/><path fill="#e1e7eb" d="M170.9-16h63.5l-52.5 49.2-2.5-.3z"/><ellipse cx="25" cy="54" fill="#e2c8b6" rx="19" ry="1"/><path fill="#342c2d" d="M155 45l-6 2 3 2z"/><path fill="#293b42" d="M154 57h15v1h-15z"/><path fill="#c0b2ab" d="M155.2 44l13.9 2.1-.3 2-13.9-2.2z"/><path fill="#45505f" d="M12.4 48.7l43.3-22.1-6.5-7.8-29.3 7.6z"/><path fill="#394144" d="M53.4 50.2L25 47l50.7-18.3-26.2 19.8z"/><circle cx="143" cy="44" r="2" fill="#e6dcd1"/><ellipse cx="235" cy="55" fill="#383c45" rx="64" ry="2"/><circle r="1" fill="#535c6b" transform="matrix(14.61033 -10.58016 3.90093 5.38687 65.4 17.2)"/><ellipse cx="160" cy="24" fill="#688197" rx="12" ry="5"/><path fill="#306b5d" d="M51 56h32v6H51z"/><ellipse cx="108" cy="54" fill="#9a877f" rx="25" ry="1"/><path fill="#b0c1c5" d="M176.6 58.8l4 20.2 50.2-17.7-41.4-4z"/><path fill="#736e71" d="M102 39L78 18l14-5z"/><path fill="#3c3f46" d="M244.3 53.4L271 26.9V61v-6.2z"/><circle r="1" fill="#ebedee" transform="matrix(-16.43703 -15.73062 22.03979 -23.02952 212.4 15.2)"/><circle cx="217" cy="51" r="2" fill="#bbbab8"/><path fill="#475466" d="M57.2 19l9.6-2.3L30 20.5 20.4 38z"/><path fill="#3a3a3c" d="M112 48h8v9h-8z"/><path fill="#5c5e64" d="M191.5 54.1l-8-12.1 5.5-2.6 21.2 16.8z"/><path fill="#83675d" d="M125 43l8 9-19-6z"/><path fill="#ccd7e2" d="M94 17l18-15-24-18z"/><circle r="1" fill="#968a86" transform="rotate(-157.9 17.7 22.5) scale(3.55102 1.6619)"/><path fill="#514435" d="M70.8 54.2l4.4-4.8h7.5l-3.4 2.9z"/><path fill="#968479" d="M69.6 58.3l15.2-9.1L71.5 47l19.1 1.7z"/><path fill="#b7cae1" d="M69.1 3.1L-12.1 8l27.7-24 102.6 31.8z"/><path fill="#535c6c" d="M90 13l-42 6L62 2z"/><path fill="#484036" d="M93.8 54.1l.2 1-17.8 2.8-.2-1z"/><path fill="#eff0f0" d="M234.8 46.1l3.9-33.1-1.6-29-30.2 35.9z"/></g></g></svg>