<svg xmlns="http://www.w3.org/2000/svg" viewBox="0 0 1800 1200"><defs/><filter id="a"><feGaussianBlur stdDeviation="12"/></filter><rect width="100%" height="100%" fill="#50392b"/><g filter="url(#a)"><g fill-opacity=".5" transform="translate(3.5 3.5) scale(7.03125)"><circle r="1" fill="#96a1c9" transform="matrix(-5.49425 65.42933 -254.10568 -21.33785 181.2 49.8)"/><ellipse cx="86" cy="155" fill="#e1a270" rx="96" ry="12"/><path fill="#7e8596" d="M251.4 115.7l19.6 21.1-35.2-.7-67.4-28.2z"/><path fill="#fbcda1" d="M59 46h9v52h-9z"/><circle r="1" fill="#181809" transform="matrix(55.319 6.40063 -1.66694 14.40697 20.7 130.8)"/><ellipse cx="236" cy="148" fill="#262413" rx="68" ry="13"/><ellipse cx="22" cy="72" fill="#676676" rx="39" ry="25"/><circle r="1" fill="#5a4128" transform="matrix(.5783 -4.45264 87.31113 11.33974 109.2 107)"/><path fill="#ad7c59" d="M88 143h82v27H88z"/><circle r="1" fill="#61606d" transform="matrix(27.53831 1.92567 -5.00415 71.56261 241.6 64.1)"/><ellipse cx="131" cy="42" fill="#7c7687" rx="65" ry="61"/><ellipse cx="53" cy="92" fill="#efc192" rx="9" ry="5"/><path fill="#fff4c2" d="M218 113l-12-6 4 9z"/><path fill="#141408" d="M3.3 108.5l-.8 70.6-18.5-23.5 38.2-19.4z"/><circle r="1" fill="#6a6373" transform="matrix(18.40046 57.31073 -43.99924 14.12661 13.2 35.5)"/><path fill="#473526" d="M60.6 144.4L17.4 97.5 125 144.1 82.3 147z"/><path fill="#664a34" d="M128 166l-85 19-39-25z"/><path fill="#604631" d="M209.9 148.2l-62.3 5.7 53.7 11.2 15.4-35.7z"/><path fill="#dab79a" d="M59.9 96.4l7.6-57.9-9.1-1 8.9 31.1z"/><path fill="#523d2c" d="M169.6 112.5l-5.7 32.5-99.5-17.5L70.1 95z"/><path fill="#b48059" d="M2 146h164v4H2z"/><ellipse cx="173" cy="117" fill="#6d574b" rx="25" ry="5"/><ellipse cx="141" cy="137" fill="#392c1d" rx="80" ry="5"/><path fill="#624837" d="M52.5 135.4l26.9-37.2-35.5 14 33.7 22.9z"/><path fill="#6a676f" d="M210.3 121.7l26.3-33.6 34.1 19.1-48.2 30.9z"/><path fill="#b47f56" d="M34 155h122v9H34z"/><path fill="#493120" d="M10 150h6v18h-6z"/><path fill="#706d7b" d="M158.1 103l45.3 19.7L241 40l-19.4-56z"/><path fill="#633f2b" d="M117 161h11v9h-11z"/><path fill="#352d1c" d="M161 153l27 1 29-29z"/><path fill="#251e12" d="M0 137h86v8H0z"/><circle cx="212" cy="111" r="3" fill="#fff6ce"/><path fill="#84614a" d="M178 154h7v16h-7z"/><path fill="#6e5343" d="M115.4 104.8l.7 5-53.5 7.4-.7-5z"/><path fill="#a67755" d="M151 146h19v21h-19z"/><circle r="1" fill="#655f6d" transform="matrix(17.39584 -.38696 1.53048 68.80264 0 26.3)"/><path fill="#331813" d="M108 169h44v1h-44z"/><path fill="#746c70" d="M-16 81.7l67 12.8-14.9 10.3-.1-9z"/><ellipse cy="139" fill="#0a0d01" rx="3" ry="15"/><path fill="#a16d54" d="M196 150h8v6h-8z"/><path fill="#c69870" d="M83 149h86v2H83z"/><path fill="#83634b" d="M12 168h64v2H12z"/><path fill="#8d6346" d="M3 145h52v14H3z"/><path fill="#82614f" d="M92 142h56v5H92z"/><path fill="#74737f" d="M162.1 104.8l-18.5-76.6 62.5 98.1 38.3.6z"/><path fill="#372a1d" d="M119 105l35 6-19 10z"/><path fill="#746d7c" d="M34 0h26v85H34z"/><path fill="#966c53" d="M214 168h20v2h-20z"/><path fill="#272118" d="M52 166h19v3H52z"/><path fill="#2c1c18" d="M93 161h2v9h-2z"/><path fill="#6e4e36" d="M28 95l-13 6-19-8z"/><path fill="#9d7054" d="M70 102h15v3H70z"/><path fill="#433423" d="M152 126h63v19h-63z"/><path fill="#787582" d="M144.2 108.2l16.1 2.7-3.5-99.1-91 84.6z"/><path fill="#5e4333" d="M69 152h18v3H69z"/><path fill="#463225" d="M131.2 139.8L27.4 121.7l72.8-6.3-44.7 32.2z"/><path fill="#17170b" d="M8.6 161l3 1.4-27.6 20 39 2.6z"/><path fill="#604735" d="M90 114.4l10-17.3 18 10.5-10 17.3z"/><path fill="#b17f5b" d="M30.3 154.5l-1 11.4-6.3.3 2.2-20.9z"/><path fill="#150f0f" d="M85 161l1 .1-1 6-1-.2z"/><path fill="#ce9f78" d="M128 149h10v9h-10z"/><path fill="#bb845b" d="M119.5 149h5v28h-5z"/><path fill="#35221b" d="M161 161h3v6h-3z"/><circle cx="221" cy="133" r="5" fill="#845839"/><path fill="#292416" d="M216 137h38v14h-38z"/><ellipse cx="255" cy="36" fill="#605e6c" rx="11" ry="101"/><path fill="#47331e" d="M22.8 164.8l-5.3 14.4 5.7-28.9-2 .5z"/><path fill="#d4b7a1" d="M62 42h5v45h-5z"/><path fill="#b88660" d="M72 149h4v21h-4z"/><path fill="#725643" d="M196.5 129.2l-9.7-11.7-30.2-4 42.4 15.6z"/><ellipse cx="31" cy="169" fill="#2b2216" rx="1" ry="20"/><path fill="#c39473" d="M177 169h13v1h-13z"/><path fill="#a8724d" d="M8 156h36v5H8z"/><path fill="#2a2414" d="M78 170l-1-8 20 15z"/><ellipse cx="59" cy="106" fill="#372b1d" rx="19" ry="3"/><path fill="#221" d="M90 139h39v3H90z"/><path fill="#17150c" d="M54.7 157.6l-1 .4-2.4-7.6 1-.4z"/><path fill="#42352a" d="M1.6 97.6l18-13-35.6 37.3 43.6-6.5z"/><path fill="#1e1d0f" d="M29 100l6 11-15-10z"/><path fill="#382d1c" d="M196.4 179.5l7.7-21.4-34.3-2.9 13.5-22.6z"/><path fill="#696976" d="M12 59h34v35H12z"/><path fill="#fffed6" d="M211 114h4v3h-4z"/><path fill="#513c2e" d="M158.4 120l31.8-11.2-38.2 20.9 30.3 25.2z"/><path fill="#7b5338" d="M-5.9 188.3l-1-.3L8 149.7l1 .3z"/><path fill="#5a4331" d="M45.4 165l-1-.1 2.2-17.9 1 .1z"/><path fill="#5f4732" d="M60 95l-21 14-12-11z"/><path fill="#b37f55" d="M25 156h143v5H25z"/><path fill="#704b37" d="M120 166h52v4h-52z"/><path fill="#453625" d="M60 137h2v18h-2z"/><ellipse cx="58" cy="149" fill="#b17e56" rx="41" ry="2"/><path fill="#6d4e37" d="M204 162h41v3h-41z"/><ellipse cx="134" cy="21" fill="#7b6f80" rx="71" ry="33"/><path fill="#ac8c75" d="M45 95l23 2 2-8z"/><path fill="#543c2d" d="M129.2 116.2l26.2 12.4-21.3 16.7-53.3-46.2z"/><path fill="#9d7056" d="M103 107h16v2h-16z"/><path fill="#231f0f" d="M26.2 130.4L-16 100.7l5.4 47.1 73.2-12.6z"/><path fill="#272316" d="M196 146l-8 7-28-18z"/><path fill="#3e2e20" d="M-16 115.5l28.5-20.6L8.2 90l-2.5 30.5z"/><path fill="#7c5841" d="M194 152h14v4h-14z"/><path fill="#b98965" d="M48 150h4v16h-4z"/></g></g></svg>