<svg xmlns="http://www.w3.org/2000/svg" viewBox="0 0 1799 1800"><defs/><filter id="a"><feGaussianBlur stdDeviation="12"/></filter><rect width="100%" height="100%" fill="#5d3f2a"/><g filter="url(#a)"><g fill-opacity=".5" transform="translate(3.5 3.5) scale(7.03125)"><circle r="1" fill="#e0ffff" transform="matrix(6.73032 -65.60716 253.66872 26.02266 151.3 24.1)"/><circle r="1" fill="#205c71" transform="matrix(-193.84434 -67.47726 37.71055 -108.33245 90.4 153.9)"/><circle r="1" fill="#fff" transform="matrix(-139.01664 -13.8729 3.59624 -36.03695 102.8 0)"/><circle r="1" fill="#000428" transform="rotate(101.2 -77.8 149.6) scale(107.7577 58.78586)"/><ellipse cx="47" cy="89" fill="#727262" rx="139" ry="63"/><circle r="1" fill="#829199" transform="matrix(101.15836 -24.65975 5.57564 22.8722 244.3 102.7)"/><circle r="1" fill="#f7ffff" transform="matrix(56.38787 41.43087 -13.66056 18.59218 132.2 11.4)"/><circle cx="208" cy="67" r="27" fill="#b2d4f0"/><path fill="#b0d4dc" d="M46 141L8 172l-10 43z"/><ellipse cx="109" cy="166" fill="#a2cce1" rx="10" ry="17"/><ellipse cx="18" cy="103" fill="#8bb0bf" rx="49" ry="11"/><circle r="1" fill="#6a8282" transform="matrix(-29.69502 20.18072 -15.22177 -22.39815 199.8 185.1)"/><ellipse cx="67" cy="177" fill="#002d4f" rx="36" ry="38"/><path d="M126.3 59.6l-1.3-1.5 68.7-59.7L195-.1z"/><circle r="1" fill="#413625" transform="matrix(-11.7566 7.81107 -20.14917 -30.32694 176.9 93.6)"/><ellipse cx="72" cy="5" fill="azure" rx="72" ry="23"/><ellipse cx="248" cy="67" fill="#68858f" rx="15" ry="114"/><circle r="1" fill="#001e2f" transform="matrix(-30.43888 70.52226 -47.8499 -20.65301 46.4 241.2)"/><path fill="#0c1411" d="M189 143l-40 11-3 75z"/><path fill="#c5ccaf" d="M93 108l-22 2 4 26z"/><path fill="#001f3d" d="M235.5 134.2l-1.1 22-46-2.4 1.2-22z"/><path fill="#9897b2" d="M156 103h17v45h-17z"/><circle r="1" fill="#253839" transform="matrix(7.00454 -46.84657 9.42946 1.4099 10.4 137.2)"/><path fill="#dcf5ff" d="M185 6h50v26h-50z"/><circle r="1" fill="#7d786b" transform="rotate(6.1 -496.1 850.9) scale(57.85374 29.82373)"/><path fill="#3c3f33" d="M116 119l90-53-45 4z"/><path fill="#000f2f" d="M121 154l-6 41 31-38z"/><circle cx="209" cy="118" r="8" fill="#b9e0f1"/><path fill="#e2e0e4" d="M202 79.2l-4.9 10-17-8.4 4.8-10z"/><ellipse cx="33" cy="104" fill="#c3deea" rx="6" ry="13"/><path fill="#274a36" d="M62.5 108V92h97v16z"/><path fill="#587c83" d="M203.2 31.4l-24.1 7.7 12.2 7.2 27.5-9.9z"/><path fill="#ffe7e7" d="M95 87l9 4 11-5z"/><ellipse cx="216" cy="107" fill="#000b01" rx="21" ry="3"/><path fill="#688186" d="M271 159l-91-4-16 29z"/><path fill="#292113" d="M39 76l12 44 1-44z"/><circle r="1" fill="#b4a99a" transform="matrix(-1.12112 4.96995 -30.48017 -6.87572 59.6 72.6)"/><path fill="#e6fbff" d="M156.3 49.5l6.2-17 27.2 10-6.2 17z"/><path fill="#f1fafa" d="M137 39l74-55L73 19z"/><circle r="1" fill="#3f4b41" transform="matrix(19.32967 -17.58864 10.59109 11.63946 48.1 133.8)"/><circle r="1" fill="#a8d4ee" transform="matrix(4.41198 -10.1633 6.55059 2.84367 2 105.5)"/><circle r="1" fill="#c8def5" transform="matrix(3.41815 -12.16044 26.71554 7.5094 46.2 16.5)"/><circle cx="4" cy="53" r="36" fill="#5e6961"/><path fill="#b3bbb0" d="M20 109l7 28-14-25z"/><path fill="#003761" d="M51 145h44v38H51z"/><circle r="1" fill="#2b3b34" transform="rotate(73.3 -28.8 273) scale(46.70105 17.56683)"/><path fill="#3e4b3c" d="M94 271h135l-121-78z"/><circle r="1" fill="#6a391e" transform="rotate(-160.1 107.3 29.4) scale(26.4862 2.62328)"/><path fill="#566a68" d="M155 146l-17 75-27-16z"/><circle r="1" fill="#825a51" transform="rotate(103 33.5 96.7) scale(8.10169 49.77975)"/><circle r="1" fill="#95c6d9" transform="rotate(-77.9 93.2 15.8) scale(12.01419 3.99231)"/><path fill="#002246" d="M21.8 159.2L-1.5 188l-16.3-13.2L5.5 146z"/><path fill="#3a605b" d="M89 101h43v50H89z"/><circle r="1" fill="#526c6b" transform="matrix(22.07882 7.96246 -2.9689 8.23238 99.3 38.2)"/><circle r="1" fill="#002235" transform="rotate(151.8 -10.6 118.7) scale(79.40141 31.36526)"/><path fill="#f5ffff" d="M206.2 7.6l-24.7 27.5-9.7-8.7 24.7-27.5z"/><circle r="1" fill="#4b5d56" transform="matrix(16.13159 39.97963 -28.07525 11.32823 191.5 214.4)"/><path fill="#85989f" d="M39.6 94.1L38 42.5l-5.6 24.9-8.7 34.6z"/><circle r="1" fill="#838c85" transform="rotate(69.3 29.5 137.5) scale(12.98798 16.48328)"/><circle r="1" fill="#2a3f3f" transform="matrix(-27.5902 -65.22224 3.36408 -1.42307 26.5 117)"/><path fill="#b3c6c8" d="M209 102h22v4h-22z"/><path fill="#b3d2e1" d="M245.3 43.4l-42.4 1.4-20.1 30.4-8.7-13.2z"/><circle r="1" fill="#96b4b6" transform="matrix(16.48457 1.08346 -.17522 2.66588 200.9 128.7)"/><path fill="#95b0ba" d="M12.8 185.3l27.5-30.5-21.9.5 8.8-13.5z"/><path fill="#86a9bf" d="M98 151h22v8H98z"/><path fill="#363123" d="M51 82l-12.1 37.2-3.8-1.3 12-37z"/><path fill="#1b0500" d="M85.1 83.3l-3.9 4.2-17.7-3.7-3.2-2.6z"/><path fill="#434b3f" d="M113.9 67.8L96.8 80.7l39-24.3 46.3-48.3z"/><path fill="#a3c0d4" d="M202 67h33v24h-33z"/><path fill="#6b696e" d="M184.6 100.9l1.1 40.3-46.8 12.6-3.5-2.4z"/><path fill="#894341" d="M214 91l7 10 22-8z"/><path fill="#fddbcb" d="M210.6 90.3l-26.1-9.1.8 3.1 25.2 11.1z"/><path fill="#387c64" d="M67 112l39-7-25-10z"/><path fill="#272f29" d="M128.6 229.2l26.1 2.5 20.4 33.9-14.6 5.4z"/><path fill="#9eb5c1" d="M159.2 126.2l4.6-11.3-36.5 10.5 14.4-7.3z"/><path fill="#637676" d="M146.4 55.3l-6.4-12 11.1 5.7 47.4 16.5z"/><path fill="#c3a394" d="M57.1 72.6l26.8 7.5L48 81l16.7 8.5z"/><path fill="#2d2617" d="M86 91h41v6H86z"/><circle r="1" fill="#101f1e" transform="rotate(44.7 -116.7 288.2) scale(5.52409 32.22536)"/><path d="M201 68l-13.7 3-.3-1 13.7-3z"/><path fill="#54675f" d="M67 73.7l-48-39 10-12.4 48.2 39z"/><path fill="#aba590" d="M98.7 55.9l18.7-3.6 1.9 9.8-18.7 3.6z"/><path fill="#bed8df" d="M194 42h42v8h-42z"/><path fill="#37342a" d="M115.2 71.2L79.3 97.4 103 74.6l-.2-10.6z"/><path fill="#9ab6bf" d="M210.9 137.3l-.7-20.5-24.8-6.7 16 .5z"/><path fill="#1e3936" d="M228 106h7v54h-7z"/><path fill="#dbeafd" d="M164 29l37 31-56-15z"/><circle r="1" fill="#575a4d" transform="matrix(.53946 -12.69681 33.90901 1.44072 13 144.4)"/><path fill="#7b8e84" d="M29.6 124.6l20-6.1-5.8-18.1L68 88.2z"/><path fill="#9eadad" d="M218.6 18l-19.7 4.1 21.6-18-13-2.1z"/><path fill="#dde6f0" d="M78 16l71 5-9 22z"/><path fill="#2d1f1a" d="M115.6 87.6l4.6-7.2 15 24.5 22.5-.1z"/><path fill="#b1b5b3" d="M8 74h66v2H8z"/><path fill="#26281d" d="M158 68h21v14h-21z"/><path fill="#504b38" d="M-16 180.9l47.7-104 .5-13.4-5.4-2.8z"/><circle r="1" fill="#092a34" transform="matrix(4.01577 1.12985 -18.46782 65.6393 .3 184.1)"/><circle cx="56" cy="190" r="35" fill="#002a43"/><path fill="#e2d6cb" d="M74 87h14v2H74z"/><path fill="#ffa997" d="M232 127.1l-1.5 1.3-6.5-7.5 1.5-1.3z"/><path fill="#a8a796" d="M103.4 128.6l-8.4 3.8-10.1-21.9-12.7 2.9z"/></g></g></svg>