<svg xmlns="http://www.w3.org/2000/svg" viewBox="0 0 4752 3168"><defs/><filter id="a"><feGaussianBlur stdDeviation="12"/></filter><rect width="100%" height="100%" fill="#37484f"/><g filter="url(#a)"><g fill-opacity=".5" transform="translate(9.3 9.3) scale(18.5625)"><circle r="1" fill="#9ca983" transform="matrix(55.18358 -126.8758 104.96585 45.65403 132.9 47.9)"/><circle r="1" fill="#a3a8ad" transform="matrix(-43.84508 13.32115 -20.63098 -67.90454 130.5 50.2)"/><circle r="1" fill="#614a34" transform="matrix(33.19729 34.3768 -112.33271 108.47844 222.8 125.1)"/><circle r="1" fill="#375c59" transform="matrix(-9.10981 55.65064 -41.53962 -6.79989 54.5 104.8)"/><circle r="1" fill="#357543" transform="matrix(14.75313 11.74298 -22.46328 28.22143 139.1 12)"/><circle r="1" fill="#b6d1a5" transform="matrix(82.688 83.98391 -7.51677 7.40078 63.8 0)"/><path fill="#2b4c12" d="M183 7h42v36h-42z"/><circle r="1" fill="#a14986" transform="matrix(-10.93174 9.80849 -49.38636 -55.042 131.8 95.1)"/><circle r="1" fill="#cdb186" transform="rotate(113.3 -38 90.2) scale(29.35168 6.26342)"/><path fill="#619044" d="M-22-6.7l58-29.5 34 66.9-58 29.5z"/><path fill="#dfcca8" d="M236 152l-27-10-14-35z"/><circle r="1" fill="#1c201a" transform="matrix(-9.5021 -23.05383 10.1797 -4.19577 102.2 162.2)"/><ellipse cx="166" cy="57" fill="#c1d1bb" rx="6" ry="66"/><path fill="#ba0268" d="M133.2 124.8l38.9 3.4-1.3 15-38.9-3.4z"/><path fill="#233844" d="M42 162l15-87 41-20z"/><path fill="#a7c38c" d="M22 100h28v15H22z"/><circle r="1" fill="#abb2c4" transform="matrix(5.8371 -7.7461 27.40468 20.6509 119.6 101)"/><path fill="#a0da60" d="M253 38l-5-54 23 54z"/><path fill="#96c3b3" d="M226.3 92.8l-36.3-1-78.9-18.5 39.8-9.9z"/><circle r="1" fill="#27644c" transform="rotate(67.4 -3.5 167) scale(20.65125 7.50811)"/><path fill="#92bf52" d="M182.4 30.2l-32.6 5.1-6.2-39.5 32.6-5.1z"/><circle r="1" fill="#5d9184" transform="rotate(58.7 -55.4 142.3) scale(29.70883 23.46339)"/><circle r="1" fill="#482334" transform="matrix(31.35106 -34.3623 9.58194 8.74225 10.4 146.3)"/><path fill="#433b2d" d="M180 185h62l-68-91z"/><circle r="1" fill="#b1d489" transform="matrix(-43.35246 -11.18822 3.18685 -12.3485 74.7 0)"/><circle r="1" fill="#1e2d46" transform="matrix(2.47013 5.48948 -24.53875 11.0418 194 37.3)"/><ellipse cx="155" cy="53" fill="#274157" rx="6" ry="13"/><circle r="1" fill="#2d4d1c" transform="matrix(11.2276 11.1495 -22.62047 22.77894 254 61.8)"/><circle r="1" fill="#a62880" transform="rotate(131.3 40.3 62.5) scale(8.26189 26.14945)"/><path fill="#547911" d="M262.2-.3L223.7 33l-5.9-6.8L256.3-7z"/><path fill="#bf3f86" d="M132.1 108.8l15 26-11.2 6.4-15-26z"/><path fill="#261e0a" d="M275.3 158l-38.2 41-20.4-19 38.2-41z"/><ellipse cx="64" cy="44" fill="#83a397" rx="70" ry="6"/><path fill="#dcf4f1" d="M242.4 44.7l-2.1 4.5-12.7-5.9 2.1-4.5z"/><path fill="#ffffce" d="M28 61l-7-9 16 5z"/><path fill="#79852e" d="M26.3 144.1l-14.1 17.1 8.6 23.8 12.6-39.9z"/><path fill="#615f62" d="M164 88l4 33 68-14z"/><path fill="#64a58e" d="M159.2 170.7l-12 14.8-22.4-18.2 12-14.8z"/><circle r="1" fill="#4b6a4a" transform="matrix(-15.17958 -11.52193 31.64198 -41.68677 .8 107)"/><path fill="#98bfb4" d="M159 133l-21-39 1 30z"/><circle r="1" fill="#56866f" transform="rotate(-70.2 151.7 -104.7) scale(20.3569 30.12235)"/><path fill="#cc8d66" d="M192 4l20-20 22 26z"/><path fill="#e3ecff" d="M31 93l-5 4 2 13z"/><path fill="#264a6e" d="M96 13h7v19h-7z"/><path fill="#5b6d55" d="M141 76.1l-6.6 3.9 1.3 22.8 23.4-16.3z"/><path fill="#364e42" d="M243.7 63.7L169.1 57l21.5 13.4 77.6 10.3z"/><path fill="#b4cdc8" d="M122 66h68v8h-68z"/><circle r="1" fill="#568056" transform="rotate(-138.3 66.6 65.3) scale(15.62132 45.47716)"/><circle r="1" fill="#313f2f" transform="matrix(-13.93283 -12.11516 4.13128 -4.7511 146.9 149)"/><path fill="#5b8b27" d="M187.9-16L174 18l-7.1 8.2 39-.6z"/><path fill="#cfd1d8" d="M170 59l1-30-15-12z"/><path fill="#f41e88" d="M164.4 121.6l17 6.1-1.8 4.7-17-6.1z"/><path fill="#f5f6f6" d="M97.4 8l-5.2 4.9L92-4l21.5-8.9z"/><path fill="#b7ad8f" d="M225.4 128l-16.8 2.6-3.5-2.2-21.8-19.7z"/><ellipse cx="12" cy="71" fill="#392a3b" rx="31" ry="7"/><path fill="#9ccf8c" d="M156 50h44v6h-44z"/><circle r="1" fill="#5c7d46" transform="rotate(16.7 -61 133.5) scale(49.31156 19.67296)"/><path fill="#98b583" d="M58.9 45.4L37.2 21.2l40.7 27.7-33.1 4.4z"/><path fill="#fffcf1" d="M155.2 70.7l8.6 45.1 1.4-18.6-6.7-8.9z"/><path fill="#58795b" d="M152.2 68.1l14.9-71.2-46.4 39.7 47.8-28.2z"/><path fill="#3f5f5d" d="M130.1 64.2l15.5 1.8 17.3.6-11.6-12.8z"/><path fill="#beff46" d="M146 30h8v13h-8z"/><path fill="#8f834d" d="M240.3 149.2l-6.8 12.3-15.8-8.7 6.8-12.3z"/><circle r="1" fill="#bace56" transform="matrix(21.56793 7.55976 -.33078 .9437 27.1 20.2)"/><path fill="#43707a" d="M80.8 68.3l-33.4 17 2-4.4-30.9-44.4z"/><path fill="#8aa2a6" d="M162.3 98.3l-14.8-6.6-38.4 36.6L112 108z"/><path fill="#7c8756" d="M271 95.9l-7.9-4.2-6.1 15.5-40-26.5z"/><path fill="#fdff00" d="M252.7 1.8l7 8.5-2.4 2-7-8.6z"/><path fill="#6197a5" d="M258 28l-3-15-30 10z"/><path fill="#ffff87" d="M37-16h47L62 9z"/><path fill="#7a9368" d="M95.4 28.7L71.5 6.4 59.3-16l23.6 1z"/><path fill="#9fb1c4" d="M111.2 57.8L90.4 29.3l42.4 20.1-11.5 19.4z"/><path fill="#89ac74" d="M68.1 183.7l7.6-66.3 2.2-39.8-9.2 69.2z"/><path fill="#4f5238" d="M197.8 185l-.7-14.3 20.7-43.3 6.4-2.9z"/><path fill="#2b2d14" d="M226 135l-12 50 13-22z"/><path fill="#6c366f" d="M80 69L69 40l47 40z"/><path fill="#1f3373" d="M128.6 37.7L118 43.2l-4.5-9 10.7-5.4z"/><circle r="1" fill="#395148" transform="matrix(-9.17775 -29.28624 9.33706 -2.92606 54.6 141.3)"/><path fill="#342f38" d="M101.3 142.9l31 42.1H95l3.9-87.2z"/><circle r="1" fill="#c1e7d2" transform="matrix(2.6855 -2.941 7.57657 6.91836 106.7 89.4)"/><path fill="#504c48" d="M195 92h40v27h-40z"/><path fill="#477b3e" d="M142-14L125 3l35 40z"/><path fill="#e0ff78" d="M196 2l1-8 15 16z"/><path fill="#466133" d="M262 35.6l-55-21.2 6.3-22.9L229.9 32z"/><path fill="#bfb4b9" d="M41 137l-2 11-14-3z"/><path fill="#e3d5df" d="M32 157l-4 28-11-1z"/><path fill="#2b311e" d="M266 144.2l3.7-24.6-37.8-27.4-1.8 5.6z"/><path fill="#89013f" d="M174 140l-24 1 15-19z"/><path fill="#243737" d="M193.5 53.1L179.8 44l23.7-18.2 7.7 2.3z"/><path fill="#718c4d" d="M241.5 61.3l14.5.7-32.1-23.1-41.6 12.5z"/><path fill="#aba385" d="M170 97h4v31h-4z"/><path fill="#4c670c" d="M250.3 6.1l-3 6.3L225.7 2l3-6.3z"/><path fill="#84ad93" d="M216.8 44.5L219 48l-57.8 37.6L159 82z"/><path fill="#343a1b" d="M35 143l-10 8 2 7z"/><path fill="#3a83a1" d="M175 91h18v9h-18z"/><path fill="#12364a" d="M94 85l-4-19-12 6z"/><path fill="#b4d3cc" d="M160 68l-33 1 55 21z"/><path fill="#dbd7b5" d="M226 48h6v6h-6z"/><path fill="#638856" d="M30.3 80L-16 84.9 27.3 99 16.7 71.2z"/><path fill="#e2e98e" d="M143.2 86.7l4.4-.3 2.8-15.1.3.8z"/></g></g></svg>