<svg xmlns="http://www.w3.org/2000/svg" viewBox="0 0 4752 3168"><defs/><filter id="a"><feGaussianBlur stdDeviation="12"/></filter><rect width="100%" height="100%" fill="#505530"/><g filter="url(#a)"><g fill-opacity=".5" transform="translate(9.3 9.3) scale(18.5625)"><circle r="1" fill="#629eff" transform="matrix(253.52807 24.41198 -6.07816 63.1241 149.7 35.3)"/><circle cx="145" cy="169" r="139" fill="#7a87a2"/><ellipse cy="143" fill="#e4e3ef" rx="184" ry="6"/><circle r="1" fill="#645620" transform="matrix(112.47492 19.02371 -3.66905 21.69274 115.2 111.1)"/><circle r="1" fill="#6996de" transform="matrix(-1.73033 31.72443 -113.32594 -6.18107 195 67.4)"/><circle r="1" fill="#1c3d5c" transform="matrix(-121.5536 7.43454 -1.38504 -22.64513 195 169)"/><circle r="1" fill="#2352a9" transform="rotate(3.3 -204.8 4182) scale(76.11058 33.99681)"/><circle r="1" fill="#4865a8" transform="matrix(46.5321 54.28993 -74.71471 64.03825 60.4 0)"/><circle r="1" fill="#282917" transform="matrix(-29.85453 1.82121 -.56248 -9.22062 147 132.4)"/><circle r="1" fill="#bfc4c9" transform="rotate(-87.1 64.4 13.1) scale(72.02609 1.47616)"/><circle r="1" fill="#665231" transform="matrix(3.03328 -10.93766 49.87278 13.83095 229.8 116)"/><path fill="#3f4630" d="M112.6 126l-20.9 7 6.9 23-.9 20.8z"/><path fill="#4f5200" d="M13 108h14v25H13z"/><ellipse cx="30" cy="142" fill="#b8b6be" rx="68" ry="8"/><ellipse cx="251" cy="137" fill="#cdb29e" rx="27" ry="6"/><path fill="#314460" d="M10.6 131.6l-.3 53.4-26.3-30.3v4.6z"/><ellipse cx="43" cy="169" fill="#304954" rx="80" ry="8"/><ellipse cx="241" cy="88" fill="#86a5cb" rx="124" ry="11"/><path fill="#b0b4bd" d="M11 153h85v3H11z"/><circle r="1" fill="#000002" transform="matrix(-.07682 -.99705 18.4426 -1.42092 110.7 149)"/><circle r="1" fill="#90a3c4" transform="matrix(39.86035 9.12924 -1.8501 8.078 151.8 47.2)"/><path fill="#e7ddd6" d="M181 148l3-8-29 2z"/><circle r="1" fill="#2e508b" transform="matrix(-30.93998 -15.6289 6.52332 -12.91399 79.2 -.1)"/><circle r="1" fill="#a5adb5" transform="rotate(-88.1 54 21.5) scale(75.7066 1)"/><path fill="#808144" d="M23 117h77l-60 22z"/><path fill="#38568c" d="M-38.4 30.2l34.9-53.7L38.4 3.8 3.5 57.5z"/><path fill="#39444c" d="M52.5 143.3l28.6 7.3-51 1.2 36.7 5.8z"/><ellipse cx="98" cy="56" fill="#4f75ae" rx="26" ry="25"/><circle r="1" fill="#5176b3" transform="matrix(-84.74775 -44.74731 6.601 -12.50174 169.5 24.6)"/><path fill="#d9dbee" d="M34.7 130.6L77 118.5l.3 1-42.3 12z"/><path fill="#7c754d" d="M104 110l33-23 95 38z"/><path fill="#decec8" d="M14 148.8l26.8 2.9-6.7-9 1-10.7z"/><path fill="#cad4ed" d="M46 95h2v44h-2z"/><circle r="1" fill="#2e5694" transform="matrix(-5.85798 -17.2199 43.9208 -14.94126 217.5 7.4)"/><path fill="#4b2f1e" d="M186 145h70v4h-70z"/><path fill="#d9dbd7" d="M70.5 149.3l9-15.5L63 138l1.4 8.8z"/><path fill="#111218" d="M136 132h36v7h-36z"/><path fill="#c7c6b1" d="M97.4 130.3L80 127.4l-10.6.3 16.7 3.1z"/><path fill="#caffff" d="M112 140h17v5h-17z"/><path d="M98 146h6v5h-6z"/><path fill="#4d463c" d="M194 144l32-37 36-1z"/><path fill="#8e9296" d="M8.7 149.4l46.4 6 7.6-28.3-14.3 39.7z"/><path fill="#889fc3" d="M110 73h36v18h-36z"/><path fill="#514c38" d="M71.1 94.1l39.3 13.5 9.9-12.7-28.2-12.5z"/><path fill="#505e62" d="M152.6 143.9L90.5 185l-3.7-30.9 113.6 5.8z"/><path fill="#515366" d="M35 136h18v4H35z"/><path fill="#5b5a3b" d="M0 79h27v57H0z"/><path fill="#c5c3bf" d="M148 151l-19-3 13-4z"/><circle r="1" fill="#5483c1" transform="rotate(-111.6 134.4 -46.7) scale(14.94733 58.83334)"/><path fill="#4c511d" d="M53 125h21v10H53z"/><path fill="#5b5e2b" d="M142.4 99.8l-36.1 43.7-13-21.9 78.1 5.3z"/><path fill="#030201" d="M22 151h32v2H22z"/><circle r="1" fill="#6e6256" transform="matrix(13.00278 -4.2153 8.49688 26.21004 211 124)"/><path fill="#babdc5" d="M12 153l10-3-14-17z"/><ellipse cx="69" cy="151" fill="#11161a" rx="33" ry="1"/><path fill="#90abce" d="M171 91l-1 12 36-12z"/><path fill="#6784b2" d="M-7.4 72.3l3.9 4.9 33.1 3.1.2-20.9z"/><path fill="#3c3733" d="M210 126h46v5h-46z"/><path fill="#c4bcb8" d="M161 139h13v9h-13z"/><path d="M-14 131l23 22-11-1z"/><circle r="1" fill="#858d9a" transform="rotate(70 -96.8 67.8) scale(14.66482 4.25081)"/><path fill="#726c46" d="M45.6 119.7l-16 10.8 5.9-48L46.9 76z"/><path fill="#7f3434" d="M24.1 145.6v-1l17.8-2.2v1z"/><path fill="#3b372a" d="M72 107.3l1 9-23 2.4-1-9z"/><ellipse cx="51" cy="43" fill="#738bb2" rx="32" ry="5"/><path fill="#36536a" d="M183 185l-2-44 90 31z"/><ellipse cx="58" cy="143" fill="#182b40" rx="4" ry="2"/><path fill="#99bdda" d="M120 146l-20-7 4 7z"/><ellipse cx="121" cy="63" fill="#4f76af" rx="40" ry="7"/><path fill="#5f5e56" d="M75.4 66.6l37.2 63.4-24.3-37.1-32.2-52.8z"/><path fill="#071517" d="M128.5 147.3v3l-19 .4v-3z"/><path fill="#797870" d="M127 142l9 2-9-17z"/><path fill="#767147" d="M28 91l-2 20-27-15z"/><circle r="1" fill="#617fb8" transform="matrix(-21.6403 -11.2424 5.20966 -10.028 148.6 30.6)"/><path fill="#736d45" d="M66.1 111.3l82.3-17.9-49.3 49.9 28.1-6.8z"/><path fill="#dfd4cf" d="M34.8 132.5l4.1 6.8-13.7 8.2-4.1-6.8z"/><path fill="#4b4239" d="M170.7 139.6l-.4-25 9-.2.4 25z"/><path fill="#ebe1e1" d="M40 141h14v7H40z"/><path fill="#4c534f" d="M22 144h4v26h-4z"/><path fill="#17211d" d="M68 148h12v3H68z"/><path fill="#abb3bb" d="M32 17h2v31h-2z"/><path fill="#6b81a9" d="M18 13h32v10H18z"/><path fill="#827a61" d="M193.1 97.4l-58.7 15.9 38.1-2 40-13.6z"/><path fill="#9b8f92" d="M184 133l12 5-20 5z"/><circle r="1" fill="#575926" transform="matrix(-6.61488 .37644 -.91337 -16.0499 17.8 123.5)"/><path fill="#cbcecf" d="M49 8h2v32h-2z"/><path fill="#3c3e24" d="M9.2 77.9L25 90.2l-6.2 7.9L3 85.8z"/><path fill="#7f8b93" d="M95.3 151.4l-32.9 12-1.7-4.8 32.9-12z"/><path fill="#9c8b81" d="M239.1 128L211 149.7l6.2-1.2 22.3-11.5z"/><path fill="#97958e" d="M68.2 94.6l1-.3 6.6 25.1-1 .3z"/><path fill="#cad1d8" d="M65 142h32v5H65z"/><path fill="#f4f8f6" d="M23 145l-7-6 4 9z"/><path fill="#7e7c38" d="M116.3 91.4l17 1.2-1.6 22-17-1.2z"/><path fill="#203734" d="M32 94l13-9-13 2z"/><path fill="#55592b" d="M185.5 120.5L85.1 134.7l10.9 7.7 8.7-18.8z"/><path fill="#47616f" d="M140 150h50v18h-50z"/><path fill="#e5ebeb" d="M10 140h37v2H10z"/><path fill="#7b9dce" d="M271 79.5v27.1L164.7 85.2z"/><ellipse cx="254" cy="147" fill="#3b3837" rx="38" ry="4"/><path fill="#000a0a" d="M97 143v6l11-1z"/></g></g></svg>