<svg xmlns="http://www.w3.org/2000/svg" viewBox="0 0 1800 1200"><defs/><filter id="a"><feGaussianBlur stdDeviation="12"/></filter><rect width="100%" height="100%" fill="#473c38"/><g filter="url(#a)"><g fill-opacity=".5" transform="translate(3.5 3.5) scale(7.03125)"><circle r="1" fill="#bbcdd9" transform="rotate(-15.4 150.3 -219.3) scale(255 63.54529)"/><circle r="1" fill="#ccccc9" transform="matrix(-43.22874 -73.97712 35.938 -21.00047 1.4 2.8)"/><path fill="#00141e" d="M245 185L10 160l254-40z"/><circle r="1" fill="#5c646f" transform="matrix(17.2227 -37.61763 87.83158 40.21244 141 6.9)"/><circle r="1" fill="#1d1e18" transform="matrix(-3.05196 -17.64427 35.95937 -6.21996 138.3 85)"/><circle r="1" fill="#5c6974" transform="matrix(64.3303 -25.34038 6.01862 15.27915 35.4 115.3)"/><circle r="1" fill="#0e1e29" transform="matrix(3.5333 24.51942 -93.74697 13.50915 43.2 166.9)"/><path fill="#81878c" d="M213-16l18 65-59 15z"/><circle r="1" fill="#9a9b9a" transform="matrix(-12.30913 8.58697 -28.34364 -40.62966 69 56.9)"/><ellipse cx="136" cy="126" fill="#574e42" rx="125" ry="14"/><circle r="1" fill="#dcdedc" transform="matrix(-11.61053 -8.16001 13.72939 -19.53494 5.6 10.8)"/><circle cx="255" cy="86" r="48" fill="#2f2d22"/><path fill="#60666d" d="M163-37l29.2 72.4L119 65 89.8-7.4z"/><ellipse cx="158" cy="80" fill="#33302a" rx="41" ry="17"/><circle r="1" fill="#a8a8a6" transform="matrix(39.0513 -8.37187 1.06882 4.98559 0 110)"/><path fill="#8b8e91" d="M24 21h105v22H24z"/><path fill="#75695e" d="M89.9 130.7l24.2-20 15.1.9-7 16.7z"/><ellipse cx="43" cy="74" fill="#999a99" rx="50" ry="10"/><path fill="#7f6e5e" d="M139 142l3-38 15 1z"/><ellipse cx="238" cy="82" fill="#897967" rx="7" ry="5"/><path fill="#797d82" d="M214 57l-67 7 107-49z"/><path fill="#3a3632" d="M194 59l-86 17-34 53z"/><path fill="#b4b5b2" d="M-9.7 71.5L86 56.7l3.8-5.8-58.1-6.5z"/><path fill="#5d616a" d="M-2 88l69 18-8-19z"/><path fill="#8e98a1" d="M271 22l-28-38-2 46z"/><path fill="#474849" d="M79.8 138.1l-.7-1.3-95.1 9.9 121.4-59.5z"/><path fill="#252117" d="M271 91l-85 25 40-26z"/><path fill="#20272c" d="M30.8 167.4l-43.1-22.2 138.2-10.1-1.2 46.4z"/><ellipse cx="149" cy="12" fill="#59636e" rx="43" ry="16"/><ellipse cx="192" cy="169" fill="#1e2429" rx="69" ry="37"/><path fill="#a8aaa7" d="M15 106l-27 18 2-38z"/><path fill="#959899" d="M51 69.4l10.7-83.1L30.9-1l69.4 96.1z"/><path fill="#c0c0bf" d="M108.5 126.6l-7.3 5.3-1.7-2.5 7.3-5.3z"/><circle r="1" fill="#594f42" transform="rotate(63.7 38.4 222.8) scale(3.22081 78.7259)"/><circle r="1" fill="#2e2b25" transform="matrix(27.79474 -27.21862 7.23033 7.38337 233.4 56.9)"/><ellipse cx="251" cy="123" fill="#473e33" rx="54" ry="16"/><path fill="#7d8186" d="M58.4 50.3L47.9 36.1 85.3 5.9l-6.2 38.4z"/><circle r="1" fill="#70767e" transform="rotate(170.6 100.6 24) scale(61.56114 8.25026)"/><path fill="#919398" d="M31.2 44L10 62.3 2.8 54 24 35.7z"/><path fill="#574a3f" d="M130 111.8l6.7 13.3-61.2-11.4-8.6 31.7z"/><path fill="#71604c" d="M177.3 103.1l24-7.1-33.3 6.3-6 9.2z"/><path fill="#42382c" d="M187 139.4l-24.9-32.5-9.6 30 28.8 5.4z"/><circle cx="110" cy="117" r="2" fill="#c8c9c8"/><path fill="#79797c" d="M101 32h21v43h-21z"/><path fill="#808185" d="M-16 89.1L26.6 70l67.7 26.5 8.2-9.8z"/><circle r="1" fill="#939595" transform="rotate(109 30 53.4) scale(23.72899 8.85627)"/><ellipse cx="189" cy="100" fill="#896d56" rx="7" ry="3"/><path fill="#34312c" d="M185 70l-79 7.8-13.9 33.9 74.6-7.1z"/><path fill="#aeb1b3" d="M9.7-13.2L20.9 3.6-6.6 37l57.3-17.3z"/><path fill="#bcbebb" d="M55 54l-19.6 7.8-6.3-15.7 19.5-8z"/><path fill="#33322f" d="M111 127h18v12h-18z"/><path fill="#433f38" d="M66.3 124l82.5 16-1.1 6-82.5-16z"/><path fill="#695e4f" d="M193.5 64.9l-3.7 7.5 6.9.9 5.2-6.3z"/><circle r="1" fill="#44484e" transform="rotate(69.2 -61.5 93.7) scale(8.78301 54.82651)"/><path fill="#322d22" d="M179 118l65-10-32-8z"/><circle r="1" fill="#7d8185" transform="matrix(.01357 -5.45189 15.03071 .0374 205.4 52.5)"/><path fill="#3f3835" d="M127.5 99l-26 1.9-1-16 26-1.8z"/><path fill="#686c6f" d="M109 47h55v11h-55z"/><ellipse cx="209" cy="141" fill="#1d160e" rx="59" ry="2"/><path fill="#a1a099" d="M139 57h12v8h-12z"/><path fill="#8a8174" d="M120 109h6v6h-6z"/><path fill="#2e2c26" d="M121.9 113.1l68.7-43.4-10.9 51.1 1.6-34.3z"/><path fill="#7f7367" d="M143.8 124.2l2.5 5.7-2.1 9.7-6.4-15.3z"/><path fill="#4c4e53" d="M14 110h20v33H14z"/><path fill="#545d67" d="M102.1 96l-26.5-3.3-34.6 8-4.7 4.9z"/><path fill="#654e33" d="M187 119l38 7-53 5z"/><path fill="#4a433c" d="M210.2 128.9l-59.2-64 22.6-2.7-9.3 15.9z"/><path fill="#4f4136" d="M245 79l-16-33 22 15z"/><ellipse cx="133" cy="121" fill="#5b4c3f" rx="68" ry="3"/><circle r="1" fill="#726556" transform="matrix(1.752 3.26817 -6.33784 3.39758 242.4 81.4)"/><path fill="#1b1f1b" d="M108 114.1l-1.3 4.9-12.6-3.1 1.2-4.9z"/><path fill="#2e2c26" d="M216.8 56.5l-13.6 32 20.6-3.2-14.5-26.7z"/><ellipse cx="97" cy="142" fill="#18140f" rx="25" ry="2"/><path fill="#d5d5d3" d="M14.3.5l-24.9 40.3 8-50.1 69.7-3.9z"/><path fill="#65645e" d="M250 105h5v7h-5z"/><path fill="#5a4e40" d="M167 98l-22 15-7-7z"/><ellipse cx="43" cy="74" fill="#9a9a9b" rx="44" ry="7"/><path fill="#838383" d="M83 58l50 7-38 17z"/><circle r="1" fill="#8b929a" transform="matrix(-9.6443 13.03137 -28.81269 -21.32378 250.2 5.1)"/><path fill="#64564a" d="M89.5 115.8l-39.9 11.5 44.7-6.2-16.4 20.4z"/><path fill="#20272c" d="M73.2 174.7l-7.1-49 5.5.3L21 185z"/><path fill="#322c25" d="M194.3 89.1l-18.2 4.3 20.9 1 28.1-31.9z"/><path fill="#57524c" d="M126 124h14v17h-14z"/><circle r="1" fill="#242a30" transform="matrix(61.58226 13.08971 -2.06782 9.72834 238.7 158.6)"/><ellipse cx="7" cy="165" fill="#353f48" rx="23" ry="3"/><ellipse cx="42" cy="15" fill="#9fa3a6" rx="13" ry="14"/><path fill="#7b7b7d" d="M72 92l37-20-11 18z"/><ellipse cx="193" cy="63" fill="#292821" rx="9" ry="3"/><path fill="#808285" d="M85.4 44.9L114.9 18l21.5 20.5 8.9 5.7z"/><path fill="#212221" d="M88 149l-2.7-13.8L96 133l2.6 13.7z"/><path fill="#594d41" d="M236.5 127.2l-4.3 7.3-11.4-2.4 10.8-8.7z"/><circle r="1" fill="#757b83" transform="matrix(-17.96173 11.29877 -11.9283 -18.9625 213.1 28.2)"/><path fill="#7b7e81" d="M174 38h34v22h-34z"/><path fill="#9b8170" d="M141 114h10v3h-10z"/><path fill="#6a7074" d="M134 40l67 19-31 3z"/><path fill="#39342f" d="M161 137h51v4h-51z"/><path fill="#3f3932" d="M87 106h35v7H87z"/><path fill="#363127" d="M149 109l-13 4 1-5z"/><ellipse cx="255" cy="60" fill="#2e2b26" rx="5" ry="33"/><circle r="1" fill="#93928d" transform="matrix(-.22616 -3.85852 6.08285 -.35654 131.7 64.4)"/></g></g></svg>