<svg xmlns="http://www.w3.org/2000/svg" viewBox="0 0 1800 1200"><defs/><filter id="a"><feGaussianBlur stdDeviation="12"/></filter><rect width="100%" height="100%" fill="#532830"/><g filter="url(#a)"><g fill-opacity=".5" transform="translate(3.5 3.5) scale(7.03125)"><circle r="1" fill="#92d6dc" transform="matrix(-143.12106 -128.86678 93.3615 -103.68846 170.8 79.8)"/><circle r="1" fill="#000500" transform="rotate(5.5 -956.4 559.6) scale(56.24127 23.98928)"/><circle r="1" fill="#6a9cfe" transform="matrix(-254.9996 .45013 -.03673 -20.80732 123.9 18)"/><circle r="1" fill="#b8c5cf" transform="rotate(156.1 7.1 86.9) scale(98.68697 22.30947)"/><circle r="1" fill="#282d2a" transform="rotate(84.3 16.8 190.8) scale(12.13385 122.0881)"/><circle cx="220" cy="85" r="55" fill="#b4ad8b"/><ellipse cx="47" cy="153" fill="#0f171a" rx="29" ry="8"/><circle cx="144" cy="71" r="50" fill="#7d7e53"/><circle r="1" fill="#94bdff" transform="matrix(1.38272 -20.10256 48.6839 3.34865 248.6 30.4)"/><path fill="#ffb380" d="M239 116h17v38h-17z"/><path fill="#324639" d="M0 56h48v86H0z"/><ellipse cx="16" cy="169" fill="#f8fef3" rx="73" ry="6"/><circle r="1" fill="#091320" transform="matrix(5.6031 -5.7417 14.71753 14.36223 149 101)"/><path fill="#707248" d="M101 15L10 76h94z"/><path fill="#fff" d="M108.3 133.7l-25.4 29.7-2.1-40.6-9.7 17.7z"/><ellipse cx="18" cy="36" fill="#83abf9" rx="38" ry="11"/><path fill="#08141c" d="M184 146h52v15h-52z"/><path fill="#b1c9f8" d="M115 135h31v16h-31z"/><ellipse cx="107" cy="58" fill="#e1e6fe" rx="2" ry="60"/><ellipse cx="123" cy="105" fill="#3e4542" rx="71" ry="10"/><circle r="1" fill="#6d795b" transform="matrix(-51.04173 16.683 -4.5755 -13.99876 243.2 67.9)"/><ellipse cx="225" cy="117" fill="#d9d5dc" rx="79" ry="3"/><circle cx="174" cy="61" r="36" fill="#919776"/><circle r="1" fill="#d0d5ce" transform="rotate(-157.7 22.1 83.4) scale(26.80763 10.35544)"/><path fill="#d3cbcf" d="M39 151l10-21 45 4z"/><circle r="1" fill="#616446" transform="matrix(3.95343 -15.0696 20.98218 5.50457 168.4 139.3)"/><ellipse cx="133" cy="1" fill="#5983d2" rx="135" ry="25"/><circle r="1" fill="#323430" transform="matrix(-22.02999 12.7432 -6.80937 -11.7718 27.9 140.9)"/><path fill="#bbbdc2" d="M221.5 138L197 154.3l2.3-50.2-25.2 13.6z"/><path fill="#151f25" d="M-7.4 104l3.7-23.8 75.1 11.9-3.7 23.7z"/><path fill="#1d1d24" d="M237 128l-36 44 39-20z"/><circle r="1" fill="#3e669a" transform="matrix(41.53994 -19.54721 3.95187 8.39815 109.4 169.3)"/><ellipse cx="133" cy="119" fill="#a6a9ab" rx="113" ry="4"/><path fill="#8e8e7a" d="M4.5 72.1L-16 48l61.4-2.8-5 7.9z"/><path fill="#f1eff2" d="M94.1 150.7l-19.2 12.1-2.3-5.2 33.8-35.3z"/><circle cx="248" cy="169" r="16" fill="#6d452a"/><path fill="#d1d3d8" d="M103.2-.4l1-.2 26.6 115-1 .2z"/><path fill="#172627" d="M68 163l-15-10 27-9z"/><path fill="#3e595f" d="M87 120l36 13-5-13z"/><ellipse cx="7" cy="123" fill="#40505b" rx="52" ry="13"/><path fill="#485351" d="M127.2 52.1l11-18.8L111 23.1l8.9 15.8z"/><path fill="#656950" d="M0 64l43 26 66-60z"/><path fill="#b7ac96" d="M70.8 22.9l-9.9 21.7 14.9-7.7 12.8-14.8z"/><path fill="#222a2c" d="M110 88h9v27h-9z"/><path fill="#4f5d55" d="M211.8 72.5L230.7 83l2.1-7.4-6.8-27.2z"/><path fill="#89a4cb" d="M102 160.5l27.3-6.4 8.5-5.1-44.5-30.4z"/><path fill="#beb298" d="M189 122.4l-27.5-46.5 81.8 27.2-62.4-7.9z"/><path fill="#9dbdfd" d="M268.9 25.2l-63.4 12.5 21.4 5L271 53.4z"/><path fill="#e5e3e0" d="M201 106l-8 24-10-18z"/><path fill="#4d4748" d="M89 139l6-9-10-5z"/><path fill="#7e8274" d="M76.7 25.7l27.1 76.7 2.2-73.3-28.9-11.3z"/><path fill="#9c9e72" d="M141.7 98.3l6.9 27.7-7.7-8.3-25.6-23z"/><path fill="#737467" d="M206 120l-6 20-4-43z"/><path fill="#302c30" d="M34.3 125.5l10.1 40-16.4-2.3 2.4-11.7z"/><path fill="#0b152c" d="M108 143h6v5h-6z"/><path fill="#fff" d="M215 133.6l-1.6 3.7-6.4-2.9 1.6-3.7z"/><circle r="1" fill="#5075be" transform="rotate(88.9 60.4 61.6) scale(14.40654 71.95199)"/><path fill="#626e8c" d="M59 131.2l22.9 12.3-2.8 5.3-23-12.3z"/><ellipse cx="115" cy="137" fill="#d4d4d8" rx="33" ry="4"/><path fill="#465140" d="M131 127h32v5h-32z"/><path fill="#a4977e" d="M234 61h22v76h-22z"/><path fill="#d1e4ff" d="M107 96h2v23h-2z"/><path fill="#6b7672" d="M157.3 39.3l5.8-15 47.6 18.4-5.8 15z"/><path fill="#b1aea6" d="M104.6 17.7l2.3 33.3-22.1-3.3 34.7-6.8z"/><circle r="1" fill="#7799d4" transform="matrix(-6.25671 21.2585 -36.53402 -10.75255 14 25.4)"/><path fill="#7b9edd" d="M135 24L271-6l-38 39z"/><path fill="#ffe1e9" d="M224 114h8v13h-8z"/><path fill="#384e88" d="M220 100h3v35h-3z"/><path fill="#6b7451" d="M114.8 46.6l41.9 15.9L136.9 90l-3.9 32z"/><circle r="1" fill="#f3f4f6" transform="matrix(-11.77549 2.89234 -.49263 -2.00562 54 142.7)"/><path fill="#b5b6bc" d="M75.8 167.9l6.7.7-20.3-8.8-23.4-.8z"/><path fill="#273033" d="M104 97L3 119l62-49z"/><path fill="#ebeaeb" d="M97 139.2l-.7 9.9-21.7 3L64.3 185z"/><path fill="#000e10" d="M-16 125l33 28-17 2z"/><path fill="#fffff6" d="M80.7 142l-7-9.8 5.6-4.1 7 9.7z"/><path fill="#b4b4a8" d="M186 63h22v11h-22z"/><path fill="#4f4d89" d="M226.7 131l-19 1-.4-7 19-1z"/><path fill="#1a2c2d" d="M179 179.7l22.5 5.3-2.3-41.3 15.4 11.9z"/><path fill="#c78c62" d="M240 133h16v23h-16z"/><path fill="#685046" d="M35.3 132.7l-31.2-2.8L35 160.6l-30.1.2z"/><path fill="#6b7779" d="M196.6 185l3.5-21.1 39.4 4.6-.5-14.1z"/><path fill="#969994" d="M3.5 115.4l102.4 15-37.1-13.6-22.3 2.9z"/><path fill="#454b48" d="M146 119h29v2h-29z"/><path fill="#ddd7d7" d="M50 129h10v16H50z"/><path fill="#172426" d="M-16 61.1l43 21-9.7 38.6L3.2 87.8z"/><path fill="#baaf93" d="M244 103.5h-54v-13h54z"/><path fill="#373d3f" d="M30.7 89l64-13.5 10.1 35-5 5.2z"/><path fill="#c7c6c7" d="M191 141l5-3-4 11z"/><path fill="#d2d4e2" d="M215 109.4l-5.4 12.4.1-11.4 10.5 18.9z"/><circle r="1" fill="#405b79" transform="matrix(-24.2168 -4.69311 1.38997 -7.17235 106 169)"/><path fill="#9b9e8b" d="M162.1 48.2l24.7-2.7L146 62l-5.3-40.9z"/><path fill="#90a9d7" d="M75.3 164.6l65.8-16.1-34.2-1.8-6.9-1.2z"/><path fill="#515e4c" d="M185.4 121.8l-15.9-1-17.2 64.2-4.5-52.9z"/><path fill="#c2b0a9" d="M25 45h14v9H25z"/><path fill="#b7a283" d="M-16 52.2L7.2 73.6l7.4-6.8-23.7 1.1z"/><path fill="#7a8362" d="M207.7 77.9l-12.1 16.3L175.5 64l44.3 19.3z"/><path fill="#747a94" d="M231.7 135.7l6.1-10.6-3.6-3.3-32.5 27.1z"/><path fill="#a5a9ad" d="M113.7 27.6l44.7-.1-57-6.2 15.5 34.8z"/><path fill="#ccc9d0" d="M213.5 132l15.9.3-21.6 7.6 6.5-16.4z"/><path fill="#2d779b" d="M78 119h31v5H78z"/></g></g></svg>