<svg xmlns="http://www.w3.org/2000/svg" viewBox="0 0 1800 1013"><defs/><filter id="a"><feGaussianBlur stdDeviation="12"/></filter><rect width="100%" height="100%" fill="#5b322c"/><g filter="url(#a)"><g fill-opacity=".5" transform="translate(3.5 3.5) scale(7.03125)"><circle r="1" fill="#c9a689" transform="matrix(-21.18939 51.5715 -235.8668 -96.91156 63.8 97)"/><circle r="1" fill="#e60019" transform="rotate(-146.1 116.5 19) scale(32.23703 38.27414)"/><ellipse fill="#ff9320" rx="21" ry="168"/><path fill="#cad0c7" d="M56.2 159.9l-19 1-7.4-142.8 19-1z"/><path fill="#dcfef4" d="M205.6 171l-13.2-27 80-39 13.2 27z"/><circle r="1" fill="#2d2216" transform="rotate(-108.4 105.2 -10.5) scale(22.07054 36.58891)"/><circle r="1" fill="#a46721" transform="matrix(25.7496 2.0087 -3.23464 41.46492 194.3 22.9)"/><circle r="1" fill="#6cabac" transform="matrix(36.01618 21.92877 -11.40633 18.73395 154 136.4)"/><circle r="1" fill="#de9b38" transform="matrix(33.55536 .52713 -.199 12.66796 107.7 0)"/><path fill="#011315" d="M85 123h32v21H85z"/><circle cx="82" cy="74" r="16" fill="#ffbd93"/><circle r="1" fill="#000300" transform="matrix(-21.5839 7.31449 -5.56624 -16.42509 243.7 14.7)"/><circle r="1" fill="#863308" transform="matrix(-9.41167 -.31565 3.22353 -96.11424 20.1 117.7)"/><path fill="#482908" d="M50 12h124v42H50z"/><ellipse cx="16" cy="15" fill="#c99c6c" rx="32" ry="19"/><path fill="#bac4ce" d="M31 86h41v25H31z"/><ellipse cx="208" cy="102" fill="#bb132b" rx="34" ry="31"/><path fill="#4e6f88" d="M136 121l-80 7 3-35z"/><path fill="#5f493b" d="M21 80l21 5-4-55z"/><path fill="#3a2313" d="M102 31l76 97-13-83z"/><path fill="#989783" d="M142 76l-50-6 15 40z"/><path fill="#553c2e" d="M22 115h21v29H22z"/><circle r="1" fill="#de3944" transform="matrix(22.37055 -4.40898 2.85723 14.49718 203 81.8)"/><circle r="1" fill="#b47233" transform="rotate(115.1 53.7 38.2) scale(32.21875 11.27719)"/><path fill="#e39438" d="M201.3 12.4l.1-4.2-.5-24.2-28.6 27.5z"/><path fill="#f7b17c" d="M69 129h17v15H69z"/><circle r="1" fill="#662c00" transform="matrix(18.76647 -19.98426 23.20274 21.78882 255.2 64.1)"/><path fill="#36231d" d="M64 46.8l38.9-24.4-51.7 8.7 14.5 64.5z"/><path fill="#fdae55" d="M-16-1l27-15v99z"/><path fill="#ddd3c7" d="M41 17h7v66h-7z"/><path fill="#3b2314" d="M210.6 34.8l-71.1-5.4 76-7.4-5-38z"/><path fill="#dbd9ca" d="M169 140h56v4h-56z"/><path fill="#181a17" d="M151.9 84.8l-36.3 18 26.4 5.7 17.8-16.7z"/><path fill="#8f674a" d="M169 54l80-21-73-1z"/><path fill="#8e8d7a" d="M240.4 117.8l-3.6-2.6L271 105l-46.1 28.2z"/><ellipse cx="148" cy="14" fill="#784017" rx="24" ry="31"/><path fill="#940b1f" d="M235.6 123.2l-48.8 17.4-6.4-14.5 43.4-39.4z"/><ellipse cx="20" cy="18" fill="#974f28" rx="9" ry="247"/><path fill="#fffffb" d="M57.3 89.4l-10.6 2.9-2-7.7 10.6-2.9z"/><path fill="#63533a" d="M96.2 97.1L48 77.5l72.4 47.9-20.9-22.5z"/><path fill="#d19a75" d="M88 53l-14 60-7-66z"/><path fill="#101613" d="M99 60l35-20-35 2z"/><ellipse cx="42" cy="104" fill="#614739" rx="2" ry="22"/><path fill="#b14c00" d="M180.1 26.1L164.2 7.9l47.4 20.4-10-23.2z"/><circle r="1" fill="#34425f" transform="matrix(3.1937 .33567 -4.76564 45.34202 58.2 143.8)"/><path fill="#9d765c" d="M138.7 92.4l-13.4-1.8 23.3-34.3 3.2-4.6z"/><path fill="#e2d3c7" d="M51.6 118.6l-1.8-5.2-9.7 18.5 6.6 27.1z"/><path fill="#6888b9" d="M61 85l15 27-13 26z"/><ellipse cx="34" cy="108" fill="#dfd3c1" rx="3" ry="21"/><path fill="#fcffff" d="M37 21h6v9h-6z"/><path fill="#413f3f" d="M35 11v23L27 9z"/><ellipse cx="60" cy="16" fill="#452a1b" rx="14" ry="35"/><path fill="#d06618" d="M-10.3 154.6l-3.4-66 24-1.2 3.4 66z"/><path fill="#765e48" d="M90.8 86.9l22.5-7.8-26.8-9.2 28.6-19.6z"/><path fill="#b7815a" d="M54 38l-10 3 15 24z"/><path fill="#3d3a33" d="M121 117.5l12-19.7 10.2 9.9L113.8 80z"/><path fill="#636f67" d="M145 159l30-24-5-32z"/><path fill="#c73239" d="M157.8 84l21.6 2 30.3-24.4-13.4 45z"/><path fill="#5e3b29" d="M78.7 110.2l7.3-3.6 5.5-14.4-15.4 3z"/><path fill="#582d0e" d="M270 127L184 13l87 61z"/><path fill="#80583b" d="M68 87l2-38-20 27z"/><path fill="#83a29b" d="M128.2 145.7l42.8-12-82.8-11.9 37.7-6.7z"/><path fill="#98a0a0" d="M49 20l-10 1L26-5z"/><path fill="#382d25" d="M74.3 122.6l40.6 26.5 12.1.2-23-25.1z"/><circle r="1" fill="#211712" transform="matrix(1.79276 -.19421 1.19768 11.05582 31.1 123.6)"/><path fill="#2a1f1a" d="M35 47h6v9h-6z"/><path fill="#bc9864" d="M271 23l-8 10h-24z"/><path fill="#fffff5" d="M34 46l-4 .8-2-8.7 4-1z"/><path fill="#8e8573" d="M110.5 85.7L98.6 61.5l19-9.2 11.8 24.2z"/><path fill="#7c4015" d="M139 23L53-7l38 29z"/><circle r="1" fill="#161610" transform="rotate(-141.2 123.3 -37.4) scale(10.90414 30.54428)"/><path fill="#db8a60" d="M122 129l-8 4 19 16z"/><path fill="#ab7558" d="M141 113l7-13 23 12z"/><circle cx="104" cy="29" r="3" fill="#f4e4b1"/><ellipse cx="159" cy="68" fill="#442914" rx="31" ry="12"/><path fill="#d49f4f" d="M99 4h27v7H99z"/><path fill="#67564e" d="M43.9 107.9l23.3 6.8-41.6 1.8 19.5 9.1z"/><path fill="#c2c5b8" d="M271 124l-70 12-1 22z"/><path fill="#482718" d="M231.8 127.1l19.5-28.2-27.7 22.8 9.2-19.9z"/><path fill="#18110c" d="M171 37l-29 9 28 8z"/><path fill="#9c9680" d="M98.5 98.3l-5.4-11.7 29 7.3-6.1 19.6z"/><path fill="#452d1d" d="M29-16l92.2 57.1L42.6 6.9l.7 13z"/><ellipse cx="119" cy="39" fill="#1f1b14" rx="12" ry="15"/><path fill="#eadcc9" d="M55 108.1l-2-23.9 4-.3 2 23.9z"/><path fill="#e7d7c6" d="M30.1 110.1l5.1-26.5 6 5.5-2.6 27.2z"/><path fill="#345252" d="M152.2 129.2l-16.7-8.6-.5 6.9 8.4 1.1z"/><path fill="#684c42" d="M57.2 88.7L49 71.3l42.9 32.3L62.7 87z"/><path fill="#905d42" d="M186.6 61.9l-10.3-2.6-8.4-13.4 59.7-8.5z"/><path fill="#351f1f" d="M172.1 113.9l7.8-10.7-33.7-8.8 24.9 16.8z"/><path fill="#2a1915" d="M71.7 45.7l-13.1 3.8-8.2-15.7 31.4-.4z"/><path fill="#d78956" d="M67.5 92.7l4.5-2 10.5 22.6-4.5 2z"/><path fill="#a11f29" d="M192.2 68.9l-15.1 11.2-7.2 22.2 3.6 21.6z"/><path fill="#e2cbb7" d="M47.8 108.1l4.7-.6L42.3 66l5.4 93z"/><path fill="#a26049" d="M91.3 82l-.7 3-36-9 .8-3z"/><path fill="#928678" d="M123 78h20v13h-20z"/><path fill="#476f74" d="M271 96v34l-26 22z"/><path fill="#e1d6c9" d="M49.4 55.2L38.5 34.1 44.2 74l2.6 2.1z"/><path fill="#edc3a7" d="M89.4 62.4l-16-5.6 15.8 14.3-21 6.5z"/><path fill="#632228" d="M185.5 127.7L207 97l-19.7 36.3-27-9.4z"/><ellipse cx="16" cy="28" fill="#be7442" rx="4" ry="53"/></g></g></svg>