<svg xmlns="http://www.w3.org/2000/svg" viewBox="0 0 1800 1200"><defs/><filter id="a"><feGaussianBlur stdDeviation="12"/></filter><rect width="100%" height="100%" fill="#3a4552"/><g filter="url(#a)"><g fill-opacity=".5" transform="translate(3.5 3.5) scale(7.03125)"><circle r="1" fill="#f8f0da" transform="matrix(-5.41083 -50.38245 241.0594 -25.8886 132.5 27.2)"/><path fill="#857c6b" d="M-16 33l238 152 49-161z"/><ellipse cx="102" fill="#e7f9ff" rx="173" ry="28"/><circle r="1" fill="#728184" transform="matrix(-47.42246 .25318 -.55988 -104.86826 27.1 128.1)"/><circle r="1" fill="#2c1106" transform="rotate(142.2 53.8 46.7) scale(15.97001 24.04106)"/><path fill="#fffeba" d="M46 55h72v10H46z"/><circle r="1" fill="#afa59c" transform="matrix(4.32294 13.19635 -39.78249 13.03218 207.5 132.2)"/><circle r="1" fill="#c9baac" transform="matrix(-3.0134 -7.45711 36.86171 -14.8957 25 149)"/><ellipse cx="212" cy="169" fill="#b69c7b" rx="51" ry="13"/><circle r="1" fill="#161924" transform="matrix(-35.001 61.8072 -6.7743 -3.83624 108.8 128.4)"/><circle r="1" fill="#3d3b2d" transform="matrix(-.70398 7.053 -37.72357 -3.76531 26.9 34)"/><path fill="#fdb479" d="M189 143l-61-34 26 29z"/><ellipse cx="203" cy="77" fill="#54778a" rx="69" ry="25"/><circle r="1" fill="#1a3943" transform="matrix(7.71464 14.32764 -47.59294 25.62616 4.3 131.7)"/><path fill="#726a6e" d="M64 66h39v53H64z"/><path fill="#ffdbb1" d="M41.8 66.7l67.2-1.2-63.3-17.9-.2 8.7z"/><circle cx="118" cy="169" r="12" fill="#d4895e"/><circle r="1" fill="#4c6f86" transform="matrix(-59.22203 -5.18126 1.84847 -21.12807 27.3 88.2)"/><circle r="1" fill="#716b42" transform="matrix(87.88243 -9.21554 .89275 8.51352 255 29.7)"/><path fill="#c78057" d="M125.8 56.9L93 49.7l15.3 38.7 15.3 7.4z"/><circle r="1" fill="#bca78e" transform="matrix(-.87632 2.7625 -92.95508 -29.48709 241.2 162.9)"/><circle r="1" fill="#272a34" transform="matrix(-14.47357 6.1447 -18.717 -44.08712 126.9 134.4)"/><path fill="#feb57b" d="M149 115l-13-23-1 23z"/><path fill="#263438" d="M217 139h17v31h-17z"/><path fill="#4a5e67" d="M127 70l76 98-27-103z"/><path fill="#1c1c24" d="M68.6 146.6l2.8-20.5 30.6-9-1.4 67.9z"/><circle r="1" fill="#c1d3e8" transform="rotate(5.6 -15.2 666.9) scale(32.8788 30.50804)"/><path fill="#bdc2be" d="M183 133l62-24-21 21z"/><path fill="#8b7874" d="M60.9 110.2l20.5 59.9-23.3 4.9-8.9-37.9z"/><path fill="#a49f8e" d="M271 84L149 45l122-6z"/><path fill="#602c15" d="M59 67h67v4H59z"/><path fill="#46352b" d="M144 64l-20-33-33 22z"/><path fill="#392b22" d="M193.8 134.8l-9.2 42.1-12.1-35.6 10.5 7.6z"/><ellipse cx="152" cy="28" fill="#a9b0b5" rx="47" ry="5"/><path fill="#ffc584" d="M85 73h11v12H85z"/><path fill="#8aa6c2" d="M43.8 64.4l4.8 3.9-64.6-6.8L49.4 46z"/><path fill="#122d2f" d="M271 166l-15-38-38 22z"/><circle r="1" fill="#f5c296" transform="matrix(-3.00767 1.65538 -6.50255 -11.81453 107.5 77.8)"/><path fill="#5c5f6e" d="M110 118l-49 2 39-47z"/><path fill="#b28b6c" d="M192.1 145.5l-5.1 28.4 33.1-30.8-6.8 41.9z"/><path fill="#585961" d="M127.4 160.6l-22-.7-19.2-25.1 23.8 1.8z"/><path fill="#b7b9b6" d="M51.9 134.5l10.9-17.9-.7 6.1 11 2.6z"/><path fill="#3c3434" d="M20 161h39v9H20z"/><path fill="#261e21" d="M97.4 65.9l.5 14.1 26.2 43.7-21.2-45.3z"/><path fill="#6a6249" d="M167.2 35.4l-28.9-4.2-58.2 4.5 88.2 11.5z"/><path fill="#43575f" d="M266 96l-121 28 5-34z"/><ellipse cy="8" fill="#b9d4f0" rx="37" ry="19"/><circle r="1" fill="#bdb8a6" transform="matrix(1.42372 -2.95978 19.174 9.22313 242.6 164.9)"/><path fill="#0b0c08" d="M131 149h14v21h-14z"/><path fill="#342926" d="M137 37l6 23-21 28z"/><path fill="#c3c0bc" d="M6.9 151.6l21-13.4 16.5 1.7L-6.7 160z"/><ellipse cx="221" cy="50" fill="#d2b895" rx="81" ry="3"/><path fill="#677176" d="M193.7 149.4l16.1-38.1-72.8-9.7 96.8 38.8z"/><path fill="#fff" d="M221 120h3v17h-3z"/><path fill="#636b76" d="M128.2 98l-14 21.8-94.7-45.2 94.2 33.3z"/><path fill="#ffe5b6" d="M89 56H45l5 14z"/><path fill="#697a85" d="M209 54h47v28h-47z"/><circle r="1" fill="#afb1b0" transform="matrix(-.72548 -4.64722 98.65207 -15.4007 238 16.5)"/><path fill="#c1a98f" d="M55 47h39v10H55z"/><ellipse cx="71" cy="138" fill="#3e4251" rx="7" ry="23"/><path fill="#877063" d="M170 185l-8-27 13-16z"/><circle r="1" fill="#ddaa7e" transform="matrix(-19.81339 -3.88723 .8961 -4.56744 165.6 135.7)"/><circle r="1" fill="#f4cda9" transform="matrix(-.14852 -2.94725 20.17444 -1.01662 103.1 63)"/><path fill="#69613d" d="M241 54.7l-15.8-18.1 3.8-3.3 15.8 18.1z"/><path fill="#cac5b7" d="M217 155l4-7-24 1z"/><path fill="#080b0b" d="M114 185H81l3-44z"/><path fill="#939591" d="M247.8 121.6L229 129l-4.9-25.3 21.9 8z"/><path fill="#47494f" d="M140.5 110l18.9 21.1 41.5-9.3-12.6 10.3z"/><path fill="#535252" d="M49 144l-25 8 23-15z"/><path fill="#212728" d="M9 155l-25 5v16z"/><circle cx="12" cy="158" r="4" fill="#ffebc9"/><path fill="#8197a8" d="M142 55h86v8h-86z"/><ellipse cx="100" cy="4" fill="#c9d8e8" rx="38" ry="19"/><path fill="#9a7159" d="M145 99l11.7 38.4-14.3-4.9-5.7-67z"/><path fill="#3d545c" d="M12.2 143.9l71.1-47-96.7 9.6 69.9 21z"/><path fill="#ffeeab" d="M170.5 151.5l-2-10.8 1-.2 2 10.8z"/><path fill="#b3b6b6" d="M63 22h43v9H63z"/><path fill="#8e7962" d="M87.8 58.6l13.3-3-7.5-24.9 29.4-5.2z"/><path fill="#3a4848" d="M209.4 103.4l61.6 9-38.2 37L263 86.1z"/><path fill="#c9c8b8" d="M47 123h20v3H47z"/><ellipse cx="115" cy="73" fill="#fec998" rx="10" ry="3"/><path fill="#b97752" d="M78.8 175.7l-17.5 4-4-17.4 17.4-4z"/><path fill="#333431" d="M193 165l9-12 4 9z"/><ellipse cx="81" cy="102" fill="#7a7b87" rx="9" ry="12"/><path fill="#262b30" d="M196.7 144.6l.2.9-15.1-18.3 8.7 20.8z"/><path fill="#eeedd6" d="M190 167h10v3h-10z"/><path fill="#c68349" d="M87 77.2l-34.5-5.5.5-3 34.5 5.6z"/><path fill="#34515c" d="M184.7 102.5l6.9 25.6 5.9-4.9 9.9-24.1z"/><path fill="#aeaeae" d="M202 113l5.4 2.6L196 139l-5.4-2.6z"/><path fill="#32383b" d="M140 130l28 15-14 36z"/><path fill="#161a24" d="M109 117.8l26.8-16.5-33.1 35.3-30.2-5.7z"/><path fill="#646151" d="M37 25.6L-8.2 42.8l106.6 2.1-9.2 4.3z"/><path fill="#918c67" d="M221 46l-45.3-12.8-5 20.9 47.5-23.9z"/><path fill="#647b87" d="M177.3 114.7l-15.2-3.3 20.7 23.1 11.7-20.5z"/><path fill="#77472d" d="M60 70l25-7 16 9z"/><path fill="#4c4d52" d="M212.7 185l17-55.3 9.3-4.3-30.2 45.9z"/><path fill="#5f463e" d="M103 65h24v5h-24z"/><path fill="#a9aeaf" d="M164 11l-19 22 60-7z"/><path fill="#7c8990" d="M137 115l-11-1 7-9z"/><path fill="#aeb1b0" d="M60 157l-8-26-1 16z"/></g></g></svg>