<svg xmlns="http://www.w3.org/2000/svg" viewBox="0 0 1800 1200"><defs/><filter id="a"><feGaussianBlur stdDeviation="12"/></filter><rect width="100%" height="100%" fill="#232f42"/><g filter="url(#a)"><g fill-opacity=".5" transform="translate(3.5 3.5) scale(7.03125)"><circle r="1" fill="azure" transform="matrix(6.95213 -97.88336 254.35925 18.06577 124.8 18.5)"/><circle r="1" fill="#abcee6" transform="rotate(178.1 91.8 32.6) scale(225.74136 32.38671)"/><ellipse cx="90" cy="139" fill="#50595c" rx="254" ry="39"/><path fill="#598fc9" d="M-2.4-33.3l254.6-13.3 4.2 79.9L1.8 46.6z"/><ellipse cx="146" cy="115" fill="#7e6d5c" rx="252" ry="10"/><ellipse cx="150" cy="91" fill="#bfbaa9" rx="86" ry="18"/><path fill="#847a6d" d="M97 96h82v19H97z"/><circle r="1" fill="#87a7c2" transform="matrix(-107.35235 48.15755 -10.50358 -23.41449 0 75.7)"/><ellipse cx="74" cy="144" fill="#1f3851" rx="95" ry="21"/><circle r="1" fill="#12273a" transform="matrix(23.10261 -12.38751 15.37271 28.66998 248.4 169)"/><ellipse cx="50" cy="99" fill="#7b6652" rx="18" ry="9"/><circle r="1" fill="#687784" transform="matrix(58.77324 -2.8747 .52585 10.75102 255 109.7)"/><path fill="#577ca7" d="M91.6 1.4l-149 42.7-10.2-35.5 149-42.7z"/><ellipse cx="26" cy="115" fill="#563e31" rx="51" ry="10"/><path fill="#a9bdc1" d="M65.3 85.4l-3.5-23.2L-16 96l36.2 5.9z"/><path fill="#000a12" d="M77 157h39v6H77z"/><circle r="1" fill="#87a6c3" transform="matrix(-112.63433 -16.32717 2.72948 -18.82953 218.4 42)"/><path fill="#acc0cf" d="M67 42h113v50H67z"/><path fill="#706e68" d="M120.2 118.7l-37 2.6-1.4-20 37-2.6z"/><path fill="#dcd4c0" d="M62 87h111v6H62z"/><ellipse cx="38" cy="58" fill="#84a5c3" rx="87" ry="12"/><ellipse cx="160" cy="151" fill="#394f65" rx="78" ry="9"/><path fill="#a8c4d0" d="M203 101l62-23-89-9z"/><path fill="#cfbba3" d="M137 106.3l53.5-7.5.4 3-53.4 7.4z"/><path fill="#969c9c" d="M181.5 104.8l43.3-3.3 2.4 12.5-17.8-2.3z"/><path fill="#192e41" d="M91 161h154v7H91z"/><circle r="1" fill="#5e85ad" transform="matrix(-1.31667 12.12013 -79.23753 -8.60795 195.4 0)"/><path fill="#456585" d="M1.4 160.9l5.9-1 32.8 5-22.1 3z"/><path fill="#57697d" d="M218.1 109.6L271 90.8l-24.1 14.4 24.1 16.4z"/><path fill="#253d52" d="M271 126.6l-101.4-.7 17.8 59.1 25.4-35.5z"/><path fill="#92938d" d="M159.5 110.3l45.7-18.4-28.3-.3 2.1 24.6z"/><path fill="#6c8397" d="M151 155h25v4h-25z"/><ellipse cx="168" cy="120" fill="#52585a" rx="49" ry="6"/><circle r="1" fill="#cbd1d3" transform="matrix(1.7794 -5.30197 16.42247 5.5116 131.6 49)"/><circle r="1" fill="#7b7674" transform="rotate(-158.5 81.1 37.1) scale(16.58081 3.59822)"/><path fill="#a09b91" d="M132 82l-25-5 44-3z"/><path fill="#553a22" d="M-16 88l26 14-26 14z"/><circle r="1" fill="#7699bb" transform="matrix(-4.56985 -14.02827 51.7354 -16.85333 25.6 41)"/><circle r="1" fill="#4c6171" transform="matrix(.46067 -2.3565 11.9842 2.34278 187.4 108.7)"/><path fill="#e7d5b9" d="M158 78h24v6h-24z"/><ellipse cx="141" cy="123" fill="#756f69" rx="65" ry="2"/><path fill="#798185" d="M271 100l-14-12-36 5z"/><path fill="#e9dcc6" d="M136 89h27v6h-27z"/><path fill="#77736e" d="M74.2 107.9l44.9-15.7-16.2 28.2-21.7-4.3z"/><ellipse cx="255" cy="156" fill="#060f15" rx="26" ry="3"/><path fill="#445f77" d="M213 168h43v2h-43z"/><circle r="1" fill="#413f3e" transform="matrix(-27.0375 -8.50945 1.1605 -3.6873 59 113.1)"/><path fill="#8a8b8a" d="M62 92h24v3H62z"/><path fill="#49647b" d="M204 163.6l5.1-9.8 15.9-2.3-10.2 10.6z"/><path fill="#495f75" d="M152 166l8-6-27 3z"/><path fill="#c1d1cd" d="M94 90l-15 12-5-4z"/><path fill="#6a5447" d="M17.3 111.6l-21.9 10.8 86.2 2.6-34.9-14.4z"/><circle r="1" fill="#89a5bf" transform="matrix(83.04686 -10.72679 .9625 7.45162 231.2 34.1)"/><ellipse cx="206" cy="121" fill="#42494c" rx="111" ry="2"/><path fill="#172838" d="M45.2 139.7L35.3 150l55.9 3.1-88.3-12z"/><ellipse cx="132" cy="64" fill="#94b3cb" rx="110" ry="8"/><path fill="#50515a" d="M143.5 100.7l-14 5.4-1-2.8 14-5.4z"/><path fill="#39546e" d="M13 163h67v6H13z"/><path fill="#000006" d="M20 169h23v1H20z"/><path fill="#3f3b36" d="M7.6 107.7l33.6 4.8-14.3-8.4-42.2-7.8z"/><path fill="#ae9b85" d="M118.9 105.5l10.1 5 46.4-.4-34.2-3.5z"/><path fill="#887f76" d="M56.6 87.4L24 103.5l10.1-1.3 43.9 5.6z"/><ellipse cx="11" cy="157" fill="#0c1c2a" rx="28" ry="2"/><path fill="#aea08f" d="M126.9 102.5l-42.3-9.4 40.3-1.5 11.4 27z"/><circle r="1" fill="#cac3b3" transform="matrix(17.10267 -.11712 .01707 2.4926 197.2 101.5)"/><path fill="#9bb4c8" d="M243.5 43.1L183 56.8l-26.2-23.5-49.7 6.6z"/><path fill="#3f5367" d="M146 133l-35 1 8 9z"/><path fill="#020e16" d="M159 162h28v2h-28z"/><path fill="#c2bcad" d="M160 96.3l-2.8-8.6 24.8-8 2.8 8.6z"/><ellipse cx="157" cy="98" fill="#6e828f" rx="25" ry="3"/><ellipse cx="36" cy="154" fill="#3a536a" rx="21" ry="3"/><ellipse cx="156" cy="17" fill="#6f93b9" rx="144" ry="8"/><ellipse cx="116" cy="162" fill="#0d1821" rx="14" ry="2"/><path fill="#17222c" d="M130 153h19v3h-19z"/><path fill="#1a2a38" d="M77 141h39v5H77z"/><path fill="#4e647b" d="M67 147h37v2H67z"/><path fill="#526374" d="M122 152l16 1-16-10z"/><path fill="#3f576e" d="M256.5 144.6v1l-33 1.8v-1z"/><path fill="#536a7f" d="M166 154h28v4h-28z"/><path fill="#5a5f5f" d="M100 106l-18 6 41 2z"/><path fill="#adaba3" d="M185.2 97.4l-36-17.6 53.4 12.1-58.2 4z"/><ellipse cx="198" cy="136" fill="#3d556b" rx="15" ry="4"/><path fill="#a2bbc8" d="M93.5 77.9l-65.7-1.3 85.1 13.1 65.9-2.9z"/><path fill="#15212c" d="M175 158h17v5h-17z"/><path fill="#1f3245" d="M16 146l11-23-43 2z"/><path fill="#496884" d="M120 169h46v1h-46z"/><path fill="#202d38" d="M199 152.2l9.9 5.3 2.7.9-17.1 2.1z"/><path fill="#415a73" d="M0 148h20v4H0z"/><path fill="#a5a399" d="M219 94l25 4-29 9z"/><path fill="#5d6d7d" d="M263.8 102.5l-3.9-11.9-29.6 25.9-8.7-12.8z"/><path fill="#b6c1ca" d="M62 50l9-10 24 1z"/><path fill="#959a99" d="M236.2 103.5l-35.9 8.4-3.9-23.5-3 24.3z"/><path fill="#413d3a" d="M9.5 101h13v8h-13z"/><ellipse cx="171" cy="145" fill="#556b80" rx="20" ry="1"/><path fill="#435a70" d="M185.6 164.6l-42.7 10.7-.5-2 42.7-10.6z"/><path fill="#394143" d="M228 118h15v6h-15z"/><path fill="#415463" d="M186.8 111.3l-12.5-3.8 1-2.8 12.4 3.8z"/><path fill="#a9b7b4" d="M48.2 88.8L-2.3 96l14.3 5.3 62.3-17.8z"/><path fill="#101a21" d="M213 163h43v2h-43z"/><ellipse cx="186" cy="34" fill="#7c9fbf" rx="30" ry="9"/></g></g></svg>