<svg xmlns="http://www.w3.org/2000/svg" viewBox="0 0 1800 1200"><defs/><filter id="a"><feGaussianBlur stdDeviation="12"/></filter><rect width="100%" height="100%" fill="#403151"/><g filter="url(#a)"><g fill-opacity=".5" transform="translate(3.5 3.5) scale(7.03125)"><circle r="1" fill="#bfdbc4" transform="rotate(-161.8 63.3 50.2) scale(255 120.65188)"/><circle r="1" fill="#2f2512" transform="matrix(-29.05173 -20.5592 58.6246 -82.8411 164.6 76)"/><path fill="#e9ffff" d="M157 0l.9 45-169 3-.8-45z"/><circle cx="255" cy="106" r="65" fill="#fff1d2"/><circle r="1" transform="matrix(2.46978 14.1512 -26.75648 4.66975 18 127.5)"/><circle r="1" fill="#120e03" transform="matrix(25.36982 -17.24131 18.97537 27.92141 187.7 32.3)"/><ellipse cx="5" cy="63" fill="#00305f" rx="52" ry="19"/><path fill="#5c3d1f" d="M213.6 179.8l-59.5-22.6 1.3-42.4 61.7 26z"/><circle r="1" fill="#afd1f4" transform="rotate(16.6 -511.2 337.2) scale(49.93432 15.40079)"/><circle r="1" fill="#002356" transform="matrix(-23.1903 -.10774 .07109 -15.3022 111.4 60.8)"/><circle r="1" fill="#b6b072" transform="matrix(14.32655 -42.23354 20.04797 6.80071 255 10)"/><path fill="#001e3d" d="M14.2 138.1L10 88.3 37.8 86l4.3 49.8z"/><circle r="1" fill="#ede8db" transform="rotate(84.7 -17.5 56.3) scale(61.00558 2.55359)"/><circle r="1" fill="#907156" transform="matrix(5.1424 -33.21794 14.92313 2.31022 187.3 96.1)"/><ellipse cx="70" cy="91" fill="#002c5e" rx="9" ry="19"/><circle r="1" transform="matrix(20.0444 24.93122 -5.52568 4.44258 6.1 166)"/><circle r="1" fill="#6991ad" transform="rotate(-134.4 84.7 3) scale(12.03 31.04945)"/><path fill="#766e60" d="M239.1 146.7l-20.5-4.3 8.3-39.1 20.5 4.3z"/><ellipse cx="96" cy="120" fill="#404b4d" rx="23" ry="24"/><path fill="#b0c7ec" d="M189-7L36 49-5 0z"/><circle r="1" fill="#efeeeb" transform="matrix(8.96038 -2.19739 12.67187 51.67271 243 108.7)"/><path fill="ivory" d="M-16 114l28 1-8-30z"/><ellipse cx="49" cy="78" fill="#043562" rx="6" ry="33"/><path fill="#9d7252" d="M180.7 107l-27.4-41.7 72.9 9.5 8.5-51.7z"/><circle r="1" fill="#fff" transform="matrix(20.6452 14.51379 -2.33582 3.3226 236 155.2)"/><path fill="#fdf6e1" d="M65.1 62.7l38 44.6L40.4 24l-33-38z"/><path fill="#faf9f5" d="M200.8 133.3l5-35.8 11.3-19.1 26.7-20.9z"/><path fill="#202727" d="M196.2 106.4l-12.6 17.5-24.7 24.6-11.2-16.7z"/><path fill="#080200" d="M-3.2 141l-3-18.8 45.4-7.2 3 18.8z"/><path fill="#d0d8d2" d="M87 98l-7-45 26 35z"/><path fill="#d3c3ac" d="M197.2 140.3l25.7 24.6-43.9-29.6 40.9-39.7z"/><path fill="#fff" d="M128 117h10v7h-10z"/><circle r="1" fill="#94b3ce" transform="matrix(-8.79147 -8.29346 25.20868 -26.72241 39.8 149.9)"/><path fill="#fff6d6" d="M57 47h4v68h-4z"/><path fill="#fff" d="M271 131l-26-87h26z"/><path fill="#807361" d="M244.7 91.4l-7.6 37.8-53.6 17.6 63-13.9z"/><path fill="#28281e" d="M170.8-16l-12.9 48 69 16.3 10.3-41z"/><path fill="#adcae6" d="M139.2 167.7l-22.4-13.1 7.5 30.4 65.5-24.5z"/><path fill="#380001" d="M34 166h24v4H34z"/><path fill="#514b3d" d="M239.5 31.5l14 52.2-3 .8-14-52.2z"/><circle r="1" fill="#c7d2e0" transform="matrix(-90.7016 -9.37455 1.5274 -14.77802 63 29.6)"/><path fill="#a5c0e0" d="M115-8l53-8-26 74z"/><circle r="1" fill="#723407" transform="rotate(109.8 51 161.8) scale(5.24735 26.91345)"/><path fill="#001d4d" d="M83.5 66.5l-4.6 3.9-16.4-18.9 4.6-3.9z"/><path fill="#adb2ba" d="M138 159l2-22 19 12z"/><path fill="#8eaac1" d="M-1.9 145.7l27.6 27.9 69.2-40.5-71.9 5z"/><path fill="#0a0600" d="M99.8 129.8l4.9 7.1-14.1 7.9-4.4-4.7z"/><path fill="#39526a" d="M89 83l11-2 7 28z"/><path fill="#f5c796" d="M185 88l30-25-5 26z"/><path fill="#1f4d6f" d="M87 48h70v18H87z"/><path fill="#5c6665" d="M187 130l14-43-38 19z"/><ellipse cx="159" cy="55" fill="#bab0a6" rx="4" ry="17"/><path fill="#4f6986" d="M14.6 107.3L0 81.6l52 34.6L3.8 118z"/><path fill="#eceae6" d="M253.7 175.1L211.1 158l5.2-13 42.6 17.2z"/><path fill="#dbdbbc" d="M248.9 18.8l13-34.8-26.5 17.4L271 3.7z"/><path fill="#6a8793" d="M72 101l42 19-42 23z"/><ellipse cx="71" cy="7" fill="#9db7d7" rx="90" ry="14"/><path fill="#2b4339" d="M107.9 185l83.4-22.3 21.6-9.1-11.6 17.8z"/><path fill="#d4d6d1" d="M35.6 9.4L76 53.1l11.7 32.6-4.9-56.9z"/><path fill="#372720" d="M85.4 101.2l25.2 19-21.9 22.5 34.1-31.9z"/><path fill="#193d5e" d="M-1.7 49.3l35.9-2.5 1.5 22-35.9 2.4z"/><path fill="#6b6151" d="M213.8 124l-3.5-2 16-30 3.4 2z"/><path fill="#b7cadb" d="M159.5 49.1l-40-61.4L147.9 68 130 41z"/><path fill="#765a45" d="M153.5 167.7l64.8-27.2-9.9-5.9-39 4.4z"/><path fill="#24221f" d="M165.4-16h43.7l-17.2 91.4-25.1-16.8z"/><path fill="#9e724f" d="M159.2 88.7l72.9-29.6-6.1-15.6-11.1 9.3z"/><path fill="#f2f2f0" d="M267.5 185l-13.1-48.5-5-62-5.2 63.8z"/><path fill="#e4e2d4" d="M36 82l5-20 6 46z"/><path fill="#2d5374" d="M63.8 59.1l13.4 24.3 14.1 21.8-30.6-31.6z"/><ellipse cx="102" cy="78" fill="#f0e7ce" rx="22" ry="2"/><path fill="#786f5f" d="M231 147l-11-13 30 9z"/><path fill="#ffebb4" d="M234.7 2.1L208-16 242.4.9l-4 5.3z"/><path fill="#22476b" d="M48 49h8v62h-8z"/><path fill="#8b6957" d="M111 125h38v14h-38z"/><circle r="1" fill="#fffff9" transform="matrix(4.84538 -12.89092 .93606 .35184 235.8 124.6)"/><path fill="#f7f0e8" d="M241 45l-14-4 16 16z"/><path fill="#4f4a3e" d="M260.2 42.2l-23.4-4.9 14.8-35-6.1 42.5z"/><path fill="#fff2cc" d="M32.3 81.1l.1 1L-6.3 87l-.1-1z"/><circle r="1" fill="#19405d" transform="matrix(-1.10932 -4.76895 18.4786 -4.29836 118 71.4)"/><path fill="#2f5a83" d="M38.9 84.2l2.1 25-29.9 2.6-2.1-25z"/><path fill="#2e3131" d="M179.3 138l-15.6-27.3.2 40.4-39.5-52.5z"/><path fill="#cea583" d="M189 157l21-15v12z"/><path fill="#45412e" d="M244.4 67.6l1.7-1 19.5 33.8-1.7 1z"/><path fill="#84675b" d="M43 111h19v12H43z"/><path fill="#f7f9f8" d="M246 90l-43 6 18-20z"/><path fill="#b5c6df" d="M0 18h29v29H0z"/><path fill="#493c30" d="M144.8 167.9l-13.9-28.1-45.7 1.7 67.3 19.4z"/><ellipse cx="152" cy="90" fill="#505958" rx="25" ry="20"/><path fill="#cfccc1" d="M45.2 113.2l-3 .2L32.8 6.8l3-.2z"/><path fill="#9ab0c6" d="M64.2 145.9L4 152.2l53.7 15.7 61-15.3z"/><circle r="1" fill="#362324" transform="matrix(-4.32717 4.65807 -14.80367 -13.75205 3.5 161.7)"/><path fill="#002c58" d="M103 80h13v4h-13z"/><path fill="#fff" d="M248 53h8v14h-8z"/><path fill="#e9e7e0" d="M217.4 137l5.4-5.7-2.9-17.9-6.8 23.7z"/><path fill="#f4eddb" d="M107.5 89.9l-9.2-6.3-41.4-56.5L74.2 49z"/><path fill="#7a9aac" d="M152 67.4L129.6 58l17.2-1.3-22.7 23.9z"/><path fill="#707774" d="M167 96h33v19h-33z"/><path fill="#e2b589" d="M176.8 82.4l4.7-12.2 3.7 1.4-4.7 12.2z"/><path fill="#4a473f" d="M243 24h3v41h-3z"/><ellipse cx="119" cy="32" fill="#fffff6" rx="24" ry="2"/></g></g></svg>