<svg xmlns="http://www.w3.org/2000/svg" viewBox="0 0 3168 4752"><defs/><filter id="a"><feGaussianBlur stdDeviation="12"/></filter><rect width="100%" height="100%" fill="#5b6836"/><g filter="url(#a)"><g fill-opacity=".5" transform="translate(9.3 9.3) scale(18.5625)"><circle r="1" fill="#8c8db1" transform="matrix(-64.3289 -20.15946 29.57777 -94.38277 78.9 90.9)"/><circle r="1" fill="#a9aa94" transform="matrix(22.5442 -29.80878 13.00191 9.83327 112.6 213)"/><circle r="1" fill="#b09cab" transform="matrix(17.08626 -42.67377 14.14093 5.66192 27.7 191.7)"/><circle r="1" fill="#524c40" transform="rotate(161.1 6.2 54.4) scale(73.47989 23.39906)"/><circle r="1" fill="#00062f" transform="rotate(-115 3.4 5.3) scale(17.8213 83.01597)"/><ellipse cx="145" cy="179" fill="#7d994d" rx="98" ry="23"/><path fill="#1d243f" d="M187.4-1.3l2.2 61-47 1.6-2.2-61z"/><circle r="1" fill="#8796bb" transform="rotate(155.7 43 76.7) scale(39.74354 17.66971)"/><circle r="1" fill="#8ea6aa" transform="matrix(-29.84278 14.77807 -10.5375 -21.27938 108.8 37.3)"/><circle r="1" fill="#22301b" transform="matrix(10.63425 21.71256 -77.90031 38.15355 129.4 255)"/><path fill="#a58bab" d="M30 242l1-27 41 36z"/><circle r="1" fill="#635d5c" transform="matrix(20.5192 -121.12303 31.79466 5.38627 0 141)"/><path fill="#e4f6ff" d="M40.1 148.4l4.2 8.2.9 22.7-14.7-.1z"/><path fill="#dacfe3" d="M86.1 246l.1-8.1 28-16.7 14.3.6z"/><circle r="1" fill="#312941" transform="rotate(60.9 -42.8 193.2) scale(8.85115 37.08494)"/><path fill="#69636a" d="M140 56h30v61h-30z"/><circle r="1" fill="#a29385" transform="rotate(-177 29.9 26.2) scale(14.03727 30.36481)"/><path fill="#c5d3e2" d="M108.5 130.3l-24 22.1 12.5-2.3 30.9-15z"/><path fill="#c3d0e0" d="M96 31h11v30H96z"/><circle r="1" fill="#585d33" transform="rotate(-119.3 101.8 76.8) scale(31.63502 23.30174)"/><path fill="#54405a" d="M81.1 266l-21 35.2-95.2-57.2 21-35.2z"/><path fill="#667560" d="M12 18l114-34-8 49z"/><circle r="1" fill="#82a151" transform="rotate(110.4 -43.7 120.6) scale(15.77215 9.60194)"/><path fill="#5b584e" d="M112.2 159.3l-70.6-14 32.6-79.6-27.3 101.2z"/><path fill="#4b6623" d="M107.7 221.2l48-19.1-5-14.7-43.5 27.9z"/><circle r="1" fill="#434232" transform="matrix(40.12667 -25.76086 3.28884 5.12289 36.5 107.8)"/><path fill="#a8a7a2" d="M165 196l-29-19 43 14z"/><ellipse cx="104" cy="4" fill="#49674d" rx="74" ry="5"/><path fill="#534d41" d="M12 136h15v54H12z"/><circle r="1" fill="#71726a" transform="rotate(42.4 -60.3 50.6) scale(15.90442 58.08746)"/><circle r="1" fill="#7f9099" transform="matrix(-8.10322 1.54577 -11.54297 -60.51035 130 76.9)"/><path fill="#383e29" d="M122 192.9l21.5-1.5-59.5 11-41.6 36.8z"/><circle r="1" fill="#919d70" transform="rotate(139.6 56.2 108) scale(95.68347 5.07875)"/><path fill="#bdac97" d="M41 111h9v19h-9z"/><circle r="1" fill="#9e9d90" transform="matrix(.50712 2.89233 -22.96837 4.02711 96.1 196)"/><path fill="#97a8bc" d="M102 79h7v52h-7z"/><circle r="1" fill="#978870" transform="rotate(52.6 -194.5 120.8) scale(25.5428 11.88669)"/><ellipse cx="111" cy="45" fill="#576758" rx="3" ry="88"/><circle r="1" fill="#7b706a" transform="matrix(28.73077 -20.56045 3.988 5.57276 64.2 242.3)"/><path fill="#8c886e" d="M147.1 76.4L185 49.2v36.3l-30.1 5.9z"/><path fill="#e9f4fb" d="M38 230l-3 6 10 1z"/><path fill="#a0999a" d="M80.2 150L70 128.4l-47.1 33.8 11-15.2z"/><path fill="#95a79d" d="M82 8l32 3-33 19z"/><path fill="#281e27" d="M67 244h17v12H67z"/><path fill="#404141" d="M149 153l22-20-25-67z"/><path fill="#5c7ca8" d="M31.5 174.6l1.9 21.7 16.8-4.3 3.5-2.7z"/><circle r="1" fill="#1a1e0e" transform="matrix(.29888 4.8794 -26.62788 1.63103 152.1 231.2)"/><path fill="#abc1c9" d="M43 154h7v28h-7z"/><path fill="#475c42" d="M138 44l-28 6 18-11z"/><path fill="#99a5b5" d="M137 12v26h-16V12z"/><path fill="#3c3c30" d="M137.5 154.4l-12.9-16.6 7.9-6.2 12.9 16.6z"/><path fill="#918c7d" d="M-11.6 109.7l71.9-8.1 10.6-1.5-86.9 15.7z"/><path fill="#4d5057" d="M77.7 116.6l24.5-13.9-10.4 14.6L45 141.6z"/><path fill="#5b823a" d="M161 238l-95 33h69z"/><path fill="#f6feff" d="M95 44l-1.8-8 9.8-2 1.6 7.8z"/><path fill="#4c3336" d="M53.8 239.2l-19.5-47 13.7 7.2-12 18.1z"/><path fill="#acbad1" d="M89.8 156.2l9.3-15.5 5.1 3.1-9.3 15.5z"/><ellipse cx="38" cy="71" fill="#7b7a6c" rx="16" ry="27"/><path fill="#aeb8d5" d="M78 39l8-6-4 29z"/><path fill="#585d7d" d="M116 173l-21-12 18-19z"/><circle r="1" fill="#78993e" transform="rotate(161.5 23.5 92.6) scale(25.33982 10.40591)"/><path fill="#1c241e" d="M19.8 92.6l.9 1.5-14.4-6.7 11.4-4z"/><path fill="#697688" d="M143.9 132.7l10.6-13.5-84 27.7 77.2-51.7z"/><path fill="#afbdd1" d="M113.5 147l-6 22.2-1-.2 6-22.2z"/><path fill="#2d2b2a" d="M37 251.4l-1.4 12-38.7-4.8 1.5-12z"/><path fill="#675b56" d="M16 221h18v33H16z"/><path fill="#252727" d="M28 187.7l-37.7 4.6-.3-2 37.7-4.6z"/><path fill="#b9b2bd" d="M102.1 230.7l25.3-5.2-19.9 11.6-23.7-1.1z"/><path fill="#809e48" d="M149.9 176.2l-16.1 18.7-35.7-21.2 45.7-20.9z"/><path fill="#4d6028" d="M167.1 190.2l17.9-24.9-35.7 3 7.9 10z"/><path fill="#414750" d="M62.5-3.7L14 40.6l6 6.3L6.5 20.1z"/><path fill="#526153" d="M87 0h4v43h-4z"/><path fill="#7a8b39" d="M12.2 53.2l.4 14.8-25.3 12.9-3.3-54.7z"/><path fill="#c3a794" d="M-16 200.9l50.9-11.3-8.2-30.1 3.2 29.6z"/><path fill="#727f67" d="M158.1-16l-31.8 36.7L119-16 98.9 28.2z"/><path fill="#50642c" d="M82.1 195.2l-44.4 34.7 39.7-50.5 39.5-1z"/><circle r="1" fill="#494634" transform="matrix(-1.32123 -3.73105 11.04987 -3.91296 63.1 163.4)"/><path fill="#77829a" d="M70 44h30v21H70z"/><path fill="#828c96" d="M92 132l-21-15-4 39z"/><path fill="#141915" d="M103 201l-18 1 4 10z"/><circle r="1" fill="#5c5753" transform="matrix(-11.7799 21.02346 -16.03195 -8.98305 10.4 155.7)"/><path fill="#4c545b" d="M136 25l-1-26 18 31z"/><path fill="#28281e" d="M155.2 136.7l-23.6 23.8L185 94.2V112z"/><path fill="#ac917f" d="M57 125l-31 37 20-43z"/><path fill="#453e3c" d="M36 132h22v5H36z"/><path fill="#b9c7d9" d="M120.4 130.7l19.7.3-2.4-3.5-47 22.9z"/><ellipse cx="69" cy="236" fill="#ada59e" rx="4" ry="5"/><path fill="#4d5f48" d="M147.5 85.3l-5.1-11.4-11-25 22.7 2.4z"/><path fill="#929ca3" d="M129 58h7v59h-7z"/><path fill="#40581f" d="M145.4 236.9l-.6-22.3 12.3-12.3 27.9-11z"/><circle r="1" fill="#2c3d51" transform="matrix(2.68962 1.39954 -2.63366 5.06133 46.6 186.3)"/><path fill="#aeafab" d="M176.5 185l2 4.6-21 9.4-2-4.6z"/><circle r="1" fill="#162021" transform="matrix(9.36516 13.76927 -25.7427 17.50889 0 7.8)"/><path fill="#546e22" d="M130.9 173.7l53.2 17.1-58.6-25.3-1 11.6z"/><path fill="#c5c3d5" d="M105.7 202.1L124 197l.3 1-18.3 5z"/><path fill="#534e42" d="M90.2 109.4h-6l-26.4-1.8-14.9 13.5z"/><ellipse cx="32" cy="37" fill="#636467" rx="11" ry="26"/><path fill="#b09689" d="M31 220.5l5.5-22.9-1.5 37.8 15-3.5z"/><path fill="#c2d3d3" d="M117 45l11-9-2-9z"/><path fill="#938a7d" d="M74.9 8.5L57.6 90.8l-7.5-60.9.6-17.3z"/></g></g></svg>