<svg xmlns="http://www.w3.org/2000/svg" viewBox="0 0 4441 2961"><defs/><filter id="a"><feGaussianBlur stdDeviation="12"/></filter><rect width="100%" height="100%" fill="#484031"/><g filter="url(#a)"><g fill-opacity=".5" transform="translate(8.7 8.7) scale(17.34766)"><circle r="1" fill="#e6eefe" transform="matrix(136.86897 -9.93996 5.44951 75.03741 123.4 33.8)"/><circle r="1" fill="#503626" transform="rotate(22.2 -107.9 453.3) scale(83.49449 25.54468)"/><ellipse cx="203" cy="19" fill="#f1f9fe" rx="83" ry="28"/><circle r="1" fill="#6e7672" transform="matrix(46.69379 67.39558 -68.50574 47.46295 59.9 141.9)"/><circle r="1" fill="#cdd8e2" transform="matrix(-55.05804 -13.38958 10.63331 -43.72424 37.4 11.8)"/><path fill="#3e1e18" d="M93 24h31v75H93z"/><path fill="#d7dddd" d="M135 125l24-139-39 84z"/><path fill="#fff" d="M59.7 155.9l-35.1 3.2-40.6-14.2 61.4 5z"/><circle r="1" fill="#bec7ca" transform="matrix(-18.68676 15.51405 -13.48801 -16.24639 75.4 105.8)"/><path fill="#000007" d="M148.5 195v-60h61v60z"/><circle r="1" fill="#393e0a" transform="matrix(-19.16369 -13.67253 22.60147 -31.67868 24.7 114.2)"/><circle r="1" fill="#66664f" transform="matrix(-4.36246 -55.4303 32.7165 -2.57484 236.4 116)"/><ellipse cx="175" cy="73" fill="#462515" rx="22" ry="29"/><path fill="#abbac8" d="M192 37h64v25h-64z"/><path fill="#fffffa" d="M86.4 81.8l5.1 15.5-35 1.7 17.9-17.7z"/><circle r="1" fill="#b97c65" transform="matrix(7.83577 -2.11215 7.06057 26.19372 220.4 128.2)"/><circle r="1" fill="#8d9cad" transform="matrix(-9.9373 19.25628 -41.8847 -21.6148 54 50.4)"/><circle r="1" fill="#e2e2e3" transform="rotate(-82.9 12.3 -4.4) scale(10.02578 88.46205)"/><ellipse cx="108" cy="164" fill="#7d838c" rx="44" ry="9"/><circle r="1" fill="#454d49" transform="matrix(33.98497 -4.4263 1.52399 11.70113 39.6 85.2)"/><ellipse cx="147" cy="28" fill="#b9c0c5" rx="20" ry="26"/><circle r="1" fill="#7d5a4b" transform="matrix(-19.20354 -5.10967 9.79818 -36.82427 183.4 99.8)"/><path fill="#492210" d="M-16 151l93 14-60 20z"/><circle cx="69" cy="118" r="21" fill="#808382"/><ellipse cx="107" cy="38" fill="#3c2d27" rx="20" ry="19"/><circle r="1" fill="#2a3950" transform="matrix(-12.62846 23.44135 -19.28647 -10.39011 108.4 135)"/><circle r="1" fill="#533a34" transform="rotate(-169.1 38.7 69.8) scale(8.07997 48.21362)"/><ellipse cx="241" cy="86" fill="#445752" rx="37" ry="26"/><circle r="1" fill="#f3e4d4" transform="matrix(30.4131 2.92845 -.4447 4.61833 3.3 150.6)"/><path fill="#98958c" d="M143 124.1l-9 20 1.9-38 35-24.1z"/><path fill="#1c1711" d="M184 60h10v49h-10z"/><circle r="1" fill="#e7e9ea" transform="matrix(2.54791 -24.51778 41.3852 4.3008 191.3 0)"/><path fill="#acb0b0" d="M184.2 45l20.4 43.7 3-57.3L-.3-16z"/><ellipse cx="116" cy="138" fill="#9a9ea0" rx="5" ry="16"/><circle r="1" fill="#060b14" transform="rotate(-100.8 138.7 6.4) scale(27.09954 11.7486)"/><path fill="#3d2510" d="M142 77l11 21 7-49z"/><ellipse cx="200" cy="161" fill="#0f131d" rx="13" ry="49"/><path fill="#fff4e5" d="M32 151h20v8H32z"/><path fill="#be816b" d="M221.7 174.3l-1.2-25.6 17.4 16 9.2 20.3z"/><path fill="#9199a1" d="M77 103h9v67h-9z"/><path fill="#42421a" d="M-16 78l87 73-76-7z"/><circle r="1" fill="#3a4116" transform="matrix(-4.27008 -25.15342 19.6653 -3.3384 250 143.1)"/><path fill="#64747d" d="M123.3 87.4l4.5 19.5-33.1 7.7L90.2 95z"/><path fill="#969ea4" d="M151.8-5.2L146.6 19 67 7.1 45.8-12.3z"/><path fill="#ffe0b8" d="M209 109l12 1-11-7z"/><path fill="#4f5331" d="M32.3 127L-16 97.4l95.8-15.8-2.2-7.5z"/><path fill="#5a6668" d="M52 82l-68 13L3 68z"/><path fill="#d2d3d0" d="M51 107l9-14-8 30z"/><path fill="#9ea8b2" d="M0 26h88v38H0z"/><path fill="#997552" d="M144.8 93.5l-8.9 2.9 9.7-44.7 6.3 71z"/><path fill="#957d5b" d="M206.2 107l-6.3-34.6-8.6 57.3 9.9-26z"/><path fill="#7e584b" d="M160.3 72.2l4.5 55.2 12.4 8.5L187.5 71z"/><path fill="#7a4e3e" d="M227 128l-5 57-16-74z"/><path fill="#b5baae" d="M157.5 99.8l-16.2 8.9 25.4-3.4-14.8-17.9z"/><path fill="#fff9eb" d="M152 161.7l-1 5.9-7-1.3 1-5.9z"/><path fill="#c4c8cc" d="M173.2 17.8l-34.3-.3-27.7-4.9 36.1 47.6z"/><path fill="#abb5c0" d="M245.5 53.8l9.7-69.8 10.3 75.4-18.3 2.1z"/><path fill="#929187" d="M45 133l8-25 11 24z"/><path fill="#e6e5dd" d="M61.2 94.1l35.9-18.6-19.2 5 19.4 11.3z"/><path fill="#ddd5c1" d="M138 94.5l8.4 6.2-17.3 8.4-1.8-38.4z"/><circle r="1" fill="#dfdfe0" transform="matrix(25.83246 7.9471 -2.97117 9.65793 8.4 11.4)"/><circle r="1" fill="#8e959c" transform="matrix(-10.72303 18.27048 -2.87035 -1.68462 122.5 162.2)"/><path fill="#67413a" d="M119 90l-28-5 35-58z"/><path fill="#2d2f31" d="M148 170l38-24.8-66.5 37.8 21.2-30.4z"/><path fill="#1c2028" d="M206 145l-38 13 39-56z"/><path fill="#b4b8b8" d="M89.4 123.8l4.3-59.3 2.2 12.4-20.5 39.9z"/><path fill="#687270" d="M88 105l-11-8-30 28z"/><path fill="#8d9397" d="M52 41L8 27l46-9z"/><path fill="#2b2624" d="M169.2 64l-21.3-3.7 47.5-6.7-11.1 8.5z"/><circle r="1" fill="#6e5c52" transform="matrix(-36.0667 -3.70559 .21684 -2.11055 25 159)"/><ellipse cx="185" cy="169" fill="#0a0c0e" rx="30" ry="21"/><path fill="#4e312c" d="M68.8 160l9.5-41.2-26.2 41.7L79.3 185z"/><path fill="#be9b7f" d="M216.6 111.8l8 9.4.5-10.8-15.9-10z"/><circle r="1" fill="#d9b4a1" transform="matrix(-1.73704 -8.93251 2.73429 -.53172 234 169)"/><path fill="#7d848b" d="M74.5 178.9l-4.6-23.6 21.6-4.2 4.6 23.6z"/><path fill="#7d8fa5" d="M0 59h94v16H0z"/><path fill="#a9afb3" d="M92 28l26.9-21.2-48.5 18.8L76 70.2z"/><path fill="#362f2f" d="M90 36h38v17H90z"/><ellipse cx="248" cy="84" fill="#51584f" rx="48" ry="24"/><circle cx="138" cy="52" r="12" fill="#9dacbe"/><path fill="#99a5b3" d="M208 68l-27-25 90 4z"/><path fill="#a5b0b7" d="M137.4 110.8l3 14.7-7.8 1.7-3-14.7z"/><path fill="#242b33" d="M86 137l12 23-2-42z"/><path fill="#1f1410" d="M179 94l5 11 9-31z"/><path fill="#866c66" d="M94 44h6v20h-6z"/><path fill="#66717a" d="M119 103L95 87l-4 30z"/><circle cx="169" cy="49" r="7" fill="#846a55"/><path fill="#3c230b" d="M48 168l-34 17-30-28z"/><path fill="#2c3844" d="M119.9 145.1l5.8-36.8 7.1 30.9-16 22.5z"/><ellipse cx="121" cy="46" fill="#826860" rx="3" ry="10"/><circle r="1" fill="#838379" transform="matrix(-2.71377 -.98112 2.83733 -7.848 113 154.1)"/><circle r="1" fill="#c9cdcf" transform="matrix(-45.18392 29.56753 -9.66693 -14.77261 235 10)"/><path fill="#14161a" d="M149.6 153.8l2.7-31.3 9.2-14.8-4.3 77.3z"/><path fill="#8a919d" d="M125 65h25v7h-25z"/><path fill="#cbd2d1" d="M54.4 113.2l-4.2-2.8 11.4-17.6 4.2 2.8z"/><circle r="1" fill="#36373a" transform="rotate(106.5 46.3 141.7) scale(16.08501 5.23549)"/><path fill="#8e6b52" d="M181 67h6v20h-6z"/><path fill="#77604f" d="M126.4 29l-27.9 7.5 7.7-14.3 5.3-4.8z"/><path fill="#eff5f2" d="M62 90h32v5H62z"/><path fill="#9ba2a6" d="M59 5l85-21-4 33z"/></g></g></svg>