<svg xmlns="http://www.w3.org/2000/svg" viewBox="0 0 1800 1200"><defs/><filter id="a"><feGaussianBlur stdDeviation="12"/></filter><rect width="100%" height="100%" fill="#4a372a"/><g filter="url(#a)"><g fill-opacity=".5" transform="translate(3.5 3.5) scale(7.03125)"><circle r="1" fill="#fffec6" transform="matrix(89.50248 -47.1893 28.69637 54.42752 210.2 15.4)"/><circle r="1" fill="#837b71" transform="rotate(-63.7 127.6 -5.1) scale(102.01158 165.78481)"/><path fill="#f2f8f3" d="M81 185L25 88l57 57z"/><ellipse cx="196" cy="28" fill="#ffd4a3" rx="58" ry="33"/><path fill="#fff" d="M7.9 182.8l-4.6-32.7 20.8-2.9 4.6 32.7z"/><path d="M60 185l-35-30 56-45z"/><circle r="1" fill="#ffffdf" transform="matrix(27.53832 -31.08985 6.11481 5.41629 0 123.7)"/><path fill="#fffff3" d="M60.5 148.5h-13v-45h13z"/><path fill="#fff" d="M109.3 166.7l-8.6-21.2-6 10.2 4.8 29.3z"/><ellipse cx="20" fill="#fff" rx="16" ry="12"/><path fill="#040f1f" d="M122 48L84 149l52-11z"/><path fill="#ffb880" d="M220 133.8l-26.9 2.3-3.1-35.9 26.9-2.3z"/><path fill="#00001e" d="M150.7 55.3l8.8 2-14.2 61.4-8.8-2z"/><path d="M46.2 163.2l1.1-29.4-35.2-25.7L-15 75.4z"/><circle r="1" fill="#845136" transform="matrix(-.57704 40.58344 -29.74843 -.42298 115.2 29.1)"/><circle r="1" fill="#fff" transform="matrix(-7.5253 -6.30578 4.61914 -5.51247 65.3 .7)"/><path fill="#e1dfcc" d="M129.4 64.5l-2.4 42.7 8.3-1.5 9.7-22.1z"/><path fill="#fff" d="M72.1 132.1l10.6 14.3-5.3 38.6-9-13.6z"/><path d="M57 94l23 47-14-91zm125-10h65v13h-65z"/><circle r="1" fill="#fff" transform="matrix(2.86696 -.24579 2.15413 25.12678 122.6 167)"/><ellipse cx="225" cy="63" fill="#0b0000" rx="43" ry="3"/><path fill="#dabd8f" d="M52.4 76.5l-2.9-22.6-50.8 30.2-.7-19.6z"/><path fill="#fff" d="M29 183l-4-44-29 38z"/><path fill="#030000" d="M236 106h20v64h-20z"/><path fill="#969088" d="M89.7 134.7L74.2 87.2l18.1-6 15.5 47.6z"/><path fill="#b7a58a" d="M66 9.7l41.9 66.8 12.4-14.1-50.6-13.1z"/><path fill="#000d1e" d="M118.7 158.3l-46.8-35.1 19.3 49L115 95.9z"/><circle r="1" fill="#dadcd8" transform="matrix(3.93126 4.66852 -6.45054 5.43186 155.6 104.3)"/><path fill="#3b3924" d="M-16 7l89 30-58 40z"/><path fill="#45301c" d="M175.1 62l-4.8-3.3-1.8 99.3L200 86.5z"/><path fill="#bcffff" d="M249 87h7v15h-7z"/><path fill="#00000c" d="M62 114h9v43h-9z"/><path fill="#fff" d="M116 185H94l4-39z"/><path fill="#000007" d="M44 124l-23-16 13 77z"/><path fill="#fff" d="M17 109l-1-16 15 4zm25 1h19v14H42z"/><path fill="#110d00" d="M92 18l-41-8 76-8z"/><path fill="#eaa493" d="M201 157l1-16 33 13z"/><path fill="#fffffc" d="M139 155h6v15h-6z"/><path fill="#9a7545" d="M149.4 93.9L271 54.8l-21.9 18.1-25.8 11.4z"/><path fill="#271200" d="M35.2 91.8l30.1-22.9L-3 90.7l-7 6z"/><circle r="1" fill="#000526" transform="matrix(3.76306 -1.04359 6.4235 23.16237 149.8 71.1)"/><path d="M132 123l7 20 7-36z"/><circle r="1" fill="#aa7b03" transform="matrix(16.30234 .9901 -.48653 8.01085 49.8 103)"/><ellipse cx="218" cy="2" fill="#dcbd91" rx="78" ry="58"/><path fill="#ffd48c" d="M-16 119l42 23-24-38z"/><path fill="#fff" d="M42 17l7 7 2-9z"/><circle r="1" fill="#fff4e2" transform="matrix(.98634 8.19943 -2.5342 .30485 14 52.6)"/><path fill="#071217" d="M45.2 185L85 111.9 52 65.4l17.3 52z"/><path fill="#fffaab" d="M121 62l-23-1 3 10z"/><path fill="#402c21" d="M67.4 139.3l12.3-54 64.6-62L86.8 50z"/><path fill="#000c1c" d="M116 114l-10 48 15 23z"/><path fill="#110400" d="M67 10L22-16l21 27z"/><path fill="#ffa172" d="M130 3l-8 25-8-16z"/><path fill="#250e13" d="M191 159h36v11h-36z"/><circle r="1" fill="#8facf1" transform="matrix(.62688 -5.2881 9.61715 1.14006 73.4 50.6)"/><path fill="#0c1b36" d="M124.9 87.3l3.5-25.1-35.7 20.9 31.1 40.2z"/><path fill="#2c1e10" d="M-16 116.6v56.1l37.8-33.2L3 133.9z"/><circle cx="66" r="9" fill="#fff"/><path fill="#fbb4cf" d="M175.7 161.2l-10.3 19.4-7.1-3.8 10.3-19.4z"/><path fill="#ffebc1" d="M7 0h27v12H7z"/><path fill="#e6c19b" d="M33 53l17 8 8 26z"/><path fill="#f6fdf2" d="M117.1 150.2l7.6 26.6 1.4-19.3-7.3-13.8z"/><circle r="1" fill="#fff" transform="matrix(-4.2699 25.5631 -5.63303 -.9409 74 169)"/><ellipse cx="168" cy="83" fill="#da8a6e" rx="11" ry="14"/><circle cx="22" cy="78" r="4" fill="#fff"/><circle r="1" fill="#ffd08f" transform="matrix(-.12226 -2.18684 32.0241 -1.79043 219 68.4)"/><path fill="#ffeab8" d="M210 95.5l2.1 4.5-18.1 8.5-2.1-4.5z"/><path fill="#d1b488" d="M271 57l-86 5 62-78z"/><path fill="#010700" d="M125 167l13 18-1-32z"/><path fill="#fe650a" d="M126 91h2v43h-2z"/><path fill="#8e958e" d="M168 136l-31 9 9-24z"/><circle r="1" fill="#fff" transform="matrix(6.26704 2.24393 -4.19337 11.71164 52.2 119.1)"/><path fill="#241204" d="M258.9 61.6h-45l-36 5.4 37.1-.4z"/><path fill="#1c2221" d="M168.5 111.9l21.7 10.7-16.2 25.8-11.3 11z"/><path fill="#8f6349" d="M178 138l70-3-18-24z"/><circle r="1" fill="#fff" transform="rotate(-77.5 68.2 54.8) scale(5.42926 8.25089)"/><path fill="#cd7d2e" d="M-16 131.9l31.8 6-31.8-22.7 36.5 1.2z"/><path fill="#372007" d="M11.8 59.5l-3-21.3L4.6-16-16 74.7z"/><path fill="#00000f" d="M139 100l6-23 15 16z"/><path fill="#edd4ad" d="M0 66h11v18H0z"/><path fill="#ffffc0" d="M56.7 60l5.3.3-4.8 7.1-5.1-5.2z"/><path d="M224.9 97.2l-56-3.3 81.4-13.3-20.8 25.1z"/><path fill="#3e3625" d="M37 23h30v36H37z"/><path fill="#ab8f61" d="M88.9 6.3L153-16 106.9 5.7l-11.4 4.8z"/><path fill="#0c0000" d="M141.9 3.2L117 5.8l-.9-9L141-5.8z"/><path fill="#1a1c1d" d="M28.2 63.4L7.9 56.5l-1.3-17 8.9 46.4z"/><path fill="#d49363" d="M85 33h15v13H85z"/><path fill="#ffffe3" d="M3.3 155.5l20.8-2.9 2.6 17.9-20.8 2.9z"/><path fill="#b8ffff" d="M15 127.6l8-.2v3l-8 .2z"/><path fill="#34220c" d="M71-16l11 59 5-41z"/><ellipse cx="88" cy="163" fill="#09182e" rx="6" ry="40"/><path fill="#0b1616" d="M34 150h34v20H34z"/><path fill="#acbbde" d="M153.4 44.8l2.7 6.3 1 5.6-10 5z"/><ellipse cx="100" cy="168" fill="#fff" rx="4" ry="23"/><path fill="#210e0d" d="M198.6 136.6l-9.4 47.7 12.9-44.9 41.4 10.4z"/><path fill="#d79e96" d="M179 140l19.8-18.4 4.1 4.4-19.7 18.4z"/><path fill="#644538" d="M139 10l10 30-24-32z"/><path fill="#3e362c" d="M96.4 85.7L59.9 73.3 41.2 48.4l20.4 44.7z"/></g></g></svg>