<svg xmlns="http://www.w3.org/2000/svg" viewBox="0 0 1800 1200"><defs/><filter id="a"><feGaussianBlur stdDeviation="12"/></filter><rect width="100%" height="100%" fill="#514639"/><g filter="url(#a)"><g fill-opacity=".5" transform="translate(3.5 3.5) scale(7.03125)"><circle r="1" fill="#b9d0e5" transform="matrix(-147.701 -79.22636 55.1473 -102.81062 120.6 117)"/><path d="M31 122h121v17H31z"/><circle r="1" fill="#adbac7" transform="matrix(21.33152 -28.51444 126.84978 94.89576 221.6 148.4)"/><circle r="1" fill="#6c6c64" transform="matrix(-4.31471 35.14052 -71.05304 -8.72422 201 47)"/><circle r="1" fill="#eeebe7" transform="matrix(26.75646 .52375 -.27408 14.00158 118.7 12.2)"/><circle r="1" fill="#151706" transform="matrix(63.6667 -1.59238 .14802 5.91833 217.3 62.9)"/><path fill="#b5bed3" d="M196.4 141.7l3.5 39.9-168.3 14.7-3.5-39.9z"/><ellipse cx="78" cy="40" fill="#2c1a05" rx="88" ry="3"/><ellipse cx="185" cy="29" fill="#a69f9d" rx="76" ry="9"/><path fill="#162321" d="M105 128l57 12 7-27z"/><path fill="#484127" d="M80 93.3l1.9-33.7-11.7 18.9-7.5 37.9z"/><circle r="1" fill="#fbfdff" transform="matrix(.92582 5.02858 -22.897 4.2156 135.4 107.9)"/><path fill="#1b252f" d="M39 119h62v24H39z"/><path fill="#394133" d="M-8 0L93 10l-5-26z"/><circle r="1" fill="#c1c0bd" transform="rotate(52.7 -18 152) scale(11.23004 45.10529)"/><path fill="#151c0a" d="M145 3h111v9H145z"/><circle r="1" fill="#3b4040" transform="matrix(-3.24284 -.21001 2.02315 -31.2401 207.6 103)"/><circle r="1" fill="#b6bece" transform="rotate(-44.4 252.7 -224.2) scale(19.19513 22.33566)"/><path fill="#aaa8a4" d="M172 12h44v16h-44z"/><path fill="#acc3d4" d="M197.9 146.9l-27-2 5.2-73.8 27 2z"/><path fill="#42433a" d="M228.4 101.3l22.8-37.8-53.1 14.9 32-27.9z"/><ellipse cx="154" cy="6" fill="#fff" rx="2" ry="20"/><path fill="#655a51" d="M39 32h108v17H39z"/><path fill="#656159" d="M134 103l1-22-36 18z"/><ellipse cx="27" cy="108" fill="#657b88" rx="38" ry="22"/><path fill="#0b0300" d="M215 14h41v8h-41z"/><path fill="#000502" d="M41 126h89v7H41z"/><ellipse cx="36" cy="2" fill="#d2d4d7" rx="2" ry="95"/><ellipse cx="221" cy="39" fill="#291d0f" rx="63" ry="2"/><path fill="#474d53" d="M253 66h3v104h-3z"/><path fill="#d9d5d5" d="M44.7 113l-.4 7-21-1 .4-7z"/><circle r="1" fill="#6c7282" transform="rotate(88.1 -5.5 116.7) scale(5.23523 52.6022)"/><path fill="#588fa0" d="M158 69h48v19h-48z"/><ellipse cx="201" cy="48" fill="#8d8884" rx="134" ry="7"/><path fill="#080100" d="M147 2h4v19h-4z"/><path fill="#e28600" d="M64 104h16v7H64z"/><path fill="#dae6f1" d="M153 52h3v56h-3z"/><path fill="#bbbec0" d="M134 54l-39 3-13 59z"/><path fill="#a9a7a1" d="M97.3 26.4L49.1 15.2l38.2 20.1-12.4 44.1z"/><circle r="1" fill="#606a77" transform="rotate(84.7 -24.2 127) scale(3.78397 49.89315)"/><path fill="#3c433f" d="M94 5L67.7-16 42.5 21.9 34.3-6.7z"/><circle r="1" fill="#a9a49b" transform="matrix(-49.72807 -14.17353 3.17443 -11.13755 6.2 16.2)"/><ellipse cx="149" cy="63" fill="#1e2515" rx="3" ry="9"/><ellipse cx="89" cy="2" fill="#262923" rx="4" ry="21"/><path fill="#a1a49c" d="M84.3 31.3l-35-.6.4-26 35 .6z"/><path fill="#2b3832" d="M157 56h16v16h-16z"/><ellipse cx="222" cy="91" fill="#bcc6d0" rx="5" ry="19"/><path fill="#d7d9de" d="M145.4 25l-6-.1 1.2-34 6 .2z"/><path fill="#303229" d="M221 59l-9 33-6-28z"/><path fill="#192014" d="M157 2h8v19h-8z"/><ellipse cx="246" cy="162" fill="#8c94a1" rx="9" ry="95"/><ellipse cx="50" cy="40" fill="#1d190f" rx="40" ry="2"/><path fill="#424440" d="M205 110l6 17-11 2z"/><circle r="1" fill="#95a0af" transform="matrix(-11.3113 10.5086 -31.72096 -34.14395 49.4 169)"/><path fill="#465f6e" d="M0 120h37v11H0z"/><path fill="#b5b6c0" d="M206 141l-57-16 42-12z"/><path fill="#2a3633" d="M83 70.9l-2.5 24.6 2.4-10.6-17.3 1.8z"/><path fill="#e7ecf6" d="M144 108l-26-4-10 10z"/><path fill="#b7b6b2" d="M41 79.6L29.7 52.9 38.3-16l-3.4 66.3z"/><path fill="#383939" d="M222.4 34.8l-.3-2 35.5-5.6.3 2z"/><path fill="#646573" d="M66.8 149l42.2-15.7-.3 30.2-34.6-29z"/><path fill="#bbc6cb" d="M144 102l18 3-23-59z"/><ellipse cx="104" cy="100" fill="#461e10" rx="4" ry="6"/><path fill="#2c2311" d="M-4 36l6-2 2 17z"/><path fill="#9a938d" d="M121.9 31l-2.4 20.4L159.2 21 48 25.3z"/><path fill="#3e423c" d="M86 55h6v15h-6z"/><path fill="#63696a" d="M157 106h13v21h-13z"/><path fill="#a3abb9" d="M110 140h94v30h-94z"/><path fill="#cbcfd3" d="M93 2h34v19H93z"/><path fill="#3a596b" d="M20 97h59v4H20z"/><path fill="#7195b2" d="M23 78h44v18H23z"/><path fill="#818c95" d="M108.6 125.5l-9.6-2.6 62.2-16.6 19.6 8z"/><circle r="1" fill="#a3aab3" transform="rotate(104.9 79.8 147.2) scale(38.66355 5.00542)"/><ellipse cx="121" fill="#8e8c82" rx="26" ry="4"/><path fill="#76776e" d="M-16 8.2l21 27L-6.3-16l42 24.9z"/><path fill="#adadac" d="M217.9 32.8l11.7-7.1-9.8-3-10.1 2.8z"/><path fill="#9a9894" d="M103.8 49l20.9 52.5-34.5 5.5L115 95.4z"/><path fill="#0c1a1c" d="M128 123h22v11h-22z"/><path fill="#342b24" d="M187 35h5v11h-5z"/><path fill="#4e544e" d="M49.4 70l-10-1 1.2-11 10 1z"/><path fill="#bfc5ce" d="M174 96h23v30h-23z"/><path fill="#1a171a" d="M70 121h22v14H70z"/><path fill="#7b8592" d="M160 151l-38-6 53-17z"/><path fill="#25261d" d="M254 91h2v26h-2z"/><path fill="#a5aeb7" d="M73 114l24-9 14-50z"/><ellipse cx="67" cy="12" fill="#c3c9cf" rx="67" ry="1"/><path fill="#5f5246" d="M183.2 35l-10.5-3.3 2-6.7 10.6 3.3z"/><path fill="#c2bdba" d="M148 23h48v4h-48z"/><path fill="#959ca3" d="M207 89h7v33h-7z"/><path fill="#91a0b7" d="M90 118.9L30.1 124l-.1-1 59.7-5.2z"/><ellipse cx="205" cy="105" fill="#373b37" rx="2" ry="16"/><ellipse cx="132" cy="40" fill="#504d47" rx="3" ry="13"/><path fill="#624c61" d="M86.3 109.1l13-.2.4 18-13 .2z"/><path fill="#5c5852" d="M107.3 55.5l15.4-32.1-1.3 25.3-28.2-9.5z"/><circle cx="7" cy="157" r="20" fill="#6e8091"/><path fill="#345b62" d="M160 90l2 11 2-9z"/><path fill="#565e60" d="M33.3 125.3l20.5 22.2-28.7-18.4 9.3-18.1z"/><path fill="#2e2f1b" d="M152 15l-7 4 6-26z"/><path fill="#706963" d="M163 10l8 17-4 22z"/><path fill="#9b978c" d="M30.1 61.3L10.9 91.4-2.2 51.2l170.3-1.3z"/></g></g></svg>