<svg xmlns="http://www.w3.org/2000/svg" viewBox="0 0 4432 2493"><defs/><filter id="a"><feGaussianBlur stdDeviation="12"/></filter><rect width="100%" height="100%" fill="#333b5a"/><g filter="url(#a)"><g fill-opacity=".5" transform="translate(8.7 8.7) scale(17.3125)"><circle r="1" fill="#aadbff" transform="rotate(-178.9 57.5 21.1) scale(253.79124 58.0645)"/><circle r="1" fill="#76866f" transform="rotate(90.8 -2 111.1) scale(20.93371 175.94225)"/><circle r="1" fill="#b6c8dc" transform="matrix(-173.2101 -5.01056 .57233 -19.78498 114.8 72.6)"/><circle r="1" fill="#18438a" transform="matrix(-102.79345 .71765 -.15682 -22.4627 176.4 13.6)"/><circle r="1" fill="#978a5c" transform="matrix(1.2952 -13.20947 57.47778 5.63575 91.3 125.4)"/><ellipse cx="186" cy="143" fill="#2c2b00" rx="73" ry="13"/><circle r="1" fill="#312f00" transform="matrix(-3.39729 18.99688 -34.97386 -6.25451 32.3 143)"/><ellipse cx="162" cy="103" fill="#255390" rx="133" ry="10"/><path fill="#99877a" d="M207 113h49v16h-49z"/><circle r="1" fill="#517eba" transform="matrix(-133.89512 -9.5624 1.16384 -16.29645 212.2 41)"/><ellipse cx="115" fill="#435d8a" rx="166" ry="17"/><circle r="1" fill="#779cc5" transform="matrix(-15.35191 17.55368 -33.2869 -29.11171 223.4 66)"/><circle r="1" fill="#826f34" transform="rotate(85.6 -56.7 62) scale(12.39548 31.49455)"/><ellipse cx="93" cy="71" fill="#b5c1ce" rx="74" ry="10"/><path fill="#a09c90" d="M134.6 124.5l45.8.2-66.7 12.1-22.2-8.9z"/><path fill="#4d472e" d="M156.4 124.7l-55.9-1.4 12-7 38.3.6z"/><path fill="#92a1bc" d="M58 13l62 75-98-57z"/><path fill="#8295ae" d="M67 88l-83 19 5-37z"/><path fill="#4e4c1b" d="M57 135l35 24 53-19z"/><path fill="#c5bebc" d="M195.2 41.3l.6-8 21 1.4-.6 8z"/><path fill="#325880" d="M225 98l-39 27-80-30z"/><ellipse cx="206" cy="136" fill="#37391f" rx="75" ry="8"/><ellipse cx="58" cy="98" fill="#4b6386" rx="77" ry="5"/><path fill="#8f846c" d="M0 135.1l18.4-13.2 16.2.8-28.2-7.5z"/><circle r="1" fill="#2a2f11" transform="matrix(18.3139 2.46784 -2.67716 19.86726 33.7 143)"/><path fill="#436ea9" d="M220 20h36v27h-36z"/><path fill="#958f76" d="M182.5 126.6l-15.6 6.1-19.9-5.5 21.1-5.9z"/><path fill="#8a8360" d="M41.1 116.5l50.3 28.1-3.2-25.3-7.2-2.6z"/><ellipse cx="99" cy="54" fill="#839fc7" rx="101" ry="6"/><ellipse cx="255" cy="126" fill="#847c7a" rx="54" ry="6"/><path fill="#9ca7ae" d="M122 129h11v9h-11z"/><path fill="#385b87" d="M271 93l-24 24-38-24z"/><circle r="1" fill="#496fa3" transform="matrix(-49.14276 -6.81912 1.5042 -10.84013 126.3 30.3)"/><ellipse cx="10" cy="17" fill="#6f82a6" rx="24" ry="42"/><path fill="#5a5a30" d="M51.2 113l-35.7 4.6-31.5-14.9 53.5 2.7z"/><path fill="#8e97a6" d="M73.7 5.3l-7.6 5.8-4.4-18.7 72.8-7.1z"/><path fill="#6b83a7" d="M165.7-10.5L158 15.8l23-12-69.3-6.4z"/><path fill="#3e5a72" d="M63 98h65v18H63z"/><ellipse cx="61" cy="90" fill="#7d9aba" rx="255" ry="5"/><path fill="#b4a69a" d="M73.2 131.7L70 119l-15.4 1.5L69 126z"/><path fill="#bab4a3" d="M95 119l4 19 5-8z"/><path fill="#1f2914" d="M129 137h75v7h-75z"/><path fill="#716e48" d="M68 137l-16-8 47-3z"/><path fill="#514e4f" d="M195 129h61v5h-61z"/><path fill="#3d3f2c" d="M174 131l-35-2-28 21z"/><path fill="#3a5664" d="M127 139l-15-7 5-3z"/><ellipse cx="225" fill="#315791" rx="50" ry="17"/><path fill="#4e79af" d="M202.7 29.4L195 49.5l-89.4-18.8 147.7 2.7z"/><path fill="#526c98" d="M53 5h35v16H53z"/><circle r="1" fill="#9fb6cb" transform="matrix(-.10524 -4.7252 82.6056 -1.83985 163.5 81.5)"/><path fill="#25476e" d="M238 104h18v11h-18z"/><path fill="#49422e" d="M136 117h25v8h-25z"/><path fill="#384118" d="M-8.3 152.8L.4 126l21.9 7.1-8.7 26.7z"/><path fill="#aeb0b9" d="M78 25l-21 2 18-8z"/><path fill="#d8cdc2" d="M92 129h19v2H92z"/><path fill="#c2ada1" d="M222.1 120.3l.1-1 61.7 6.4-.1 1z"/><path fill="#68664a" d="M137.5 158l-35.3-26.4-13.9 11.5L78.2 120z"/><path fill="#6a644c" d="M209 116h43v5h-43z"/><path fill="#adbbcc" d="M45 57h48v20H45z"/><path fill="#7d765d" d="M-16 107.3l68.3-6.2-24.3.1-21.6-4.7z"/><ellipse cx="237" cy="129" fill="#51504e" rx="15" ry="3"/><ellipse cx="7" cy="42" fill="#5479ad" rx="18" ry="8"/><ellipse cx="202" cy="125" fill="#9c9790" rx="13" ry="2"/><ellipse cx="255" cy="62" fill="#7196c6" rx="39" ry="10"/><path fill="#365b74" d="M220.5 122.1l-20.3 2.6-20-.5-61.9-21.8z"/><circle r="1" fill="#86a2c7" transform="matrix(-25.68183 -5.30786 2.15133 -10.40913 113 56.7)"/><path fill="#e7b8a1" d="M203.2 117.3l5-3.4.6.8-5 3.4z"/><path fill="#312f22" d="M173.7 135.3l26.3-9.6.3 1-26.3 9.6z"/><path fill="#b0b1b6" d="M88 137l2 2-7-1z"/><path fill="#8d8b81" d="M250 127h6v7h-6z"/><path fill="#4e6c93" d="M87.1 94.2L-10 92.8 47.1 103l93.3-8.4z"/><path fill="#86a6c9" d="M157 72l42-18 67 31z"/><path fill="#ccbec3" d="M3 119h6v2H3z"/><path fill="#8190ab" d="M82 28l-98-13 52 25z"/><ellipse cx="60" cy="86" fill="#8fa4ba" rx="51" ry="7"/><path fill="#919eb3" d="M33.1 56.7l27.2 10.1-76.3-5 72-12.3z"/><path fill="#365687" d="M179.4 3.3l-49-.5-36.2-9.2 8.4 16.6z"/><path fill="#939173" d="M188.7 125.9l-27.2-4.8-1.7-2.2 1.7 6.6z"/><ellipse cx="222" cy="47" fill="#5f87ba" rx="127" ry="6"/><path fill="#a69a8a" d="M141.8 131.2l-.2-1 34.6-5.4.2 1z"/><path fill="#c5bbac" d="M54.8 115.5l.4.9-8 4-.4-.8z"/><path fill="#aca089" d="M107.3 127l-.3 1-34.3-11 .3-1z"/><path fill="#6e6d4b" d="M106.6 128l-28.7-6.1 23.4 13.5-37.4-2.1z"/><path fill="#a6987c" d="M68 136l8-4H63z"/><path fill="#2c311f" d="M0 140h138v3H0z"/><path fill="#babec6" d="M207 32h6v8h-6z"/><path fill="#948b9c" d="M101 142h5v2h-5z"/><path fill="#3f679f" d="M125 25l66-20 74 20z"/><circle r="1" fill="#a4b0c1" transform="matrix(19.66738 7.23619 -2.57966 7.01132 20.2 72)"/><ellipse cx="79" cy="116" fill="#776d48" rx="24" ry="3"/><ellipse cx="219" cy="99" fill="#43638d" rx="60" ry="3"/><path fill="#6c87b2" d="M75 25L58 37l51 10z"/><path fill="#88816d" d="M-15.7 120l7.9 6.7 45.3-9.2-29.4 10.2z"/><path fill="#a9a08b" d="M84 113h9v2h-9z"/><path fill="#667999" d="M14.2-23.8L55-4.8 39.8 27.8-1 8.8z"/><path fill="#5f583f" d="M11 112h35v7H11z"/><path fill="#837c69" d="M124 121l-12 3 15-10z"/><path fill="#a49886" d="M203 125.7l19.3-.4 3.5-1.4-3.7 5.2z"/><path fill="#5d7882" d="M112 119.9l9.5-7.5-23.6-.1 35.1 18.5z"/><path fill="#adbfd1" d="M100.8 73.2l44.8 7.4 36.6-.4-61.7-14.6z"/></g></g></svg>