<svg xmlns="http://www.w3.org/2000/svg" viewBox="0 0 1200 1800"><defs/><filter id="a"><feGaussianBlur stdDeviation="12"/></filter><rect width="100%" height="100%" fill="#3e4d61"/><g filter="url(#a)"><g fill-opacity=".5" transform="translate(3.5 3.5) scale(7.03125)"><circle r="1" fill="#fff" transform="matrix(102.94074 1.97292 -1.12367 58.62946 77 0)"/><circle r="1" fill="#b3b1a7" transform="matrix(-.84018 54.4865 -138.37853 -2.13379 108.3 148.6)"/><ellipse cx="120" cy="7" fill="#fff" rx="164" ry="30"/><circle r="1" fill="#778388" transform="matrix(-7.77593 28.15041 -59.08592 -16.32119 88.5 60)"/><circle r="1" fill="#fff" transform="matrix(-156.17678 64.5741 -13.08172 -31.63902 42 0)"/><circle cx="120" cy="231" r="59" fill="#76736f"/><path fill="#142022" d="M13 45h35v53H13z"/><ellipse cx="119" cy="14" fill="#fffaf9" rx="51" ry="25"/><path fill="#140900" d="M74.5 189.1l-12.2 38.2-34.2-25.9 12.6-.6z"/><path fill="#949daa" d="M50 62.4L131.8 48l4.2 23.6L54.2 86z"/><circle r="1" fill="#8e9599" transform="rotate(-100.4 99.4 31) scale(38.10466 54.19766)"/><circle r="1" fill="#6b665e" transform="matrix(19.7225 -2.66659 8.1019 59.9229 16.5 203.3)"/><path fill="#3f3e31" d="M188.3 23l-42.7 80.4-16-8.5 42.8-80.3z"/><path fill="#898c7f" d="M16 33l37-3-58 28z"/><path fill="#4f646b" d="M56 28h22v30H56z"/><path fill="#a29988" d="M136 7h4v68h-4z"/><path fill="#2e3838" d="M142 38h15v59h-15z"/><ellipse cy="63" fill="#b6b4a8" rx="8" ry="36"/><circle r="1" fill="#fffaff" transform="matrix(.97737 16.82008 -84.64936 4.91877 61.4 6.6)"/><circle r="1" fill="#585a5d" transform="matrix(-1.45747 -10.26876 38.33937 -5.4416 52.5 189.3)"/><circle r="1" fill="#29456a" transform="matrix(-38.11528 5.44823 -1.1801 -8.25588 116.9 80.9)"/><ellipse cx="51" cy="243" fill="#585554" rx="57" ry="27"/><path fill="#6c7471" d="M74 43h48v21H74z"/><path fill="#334654" d="M14.2 106.4l8.7-73L48.8 55l-62 27.5z"/><circle r="1" fill="#6a6e73" transform="rotate(169 43.4 112.4) scale(49.40974 20.97409)"/><path fill="#b9b8b3" d="M111 155l-49 19 2-15z"/><circle r="1" fill="#62625d" transform="matrix(17.3824 6.34243 -10.28537 28.18866 169 52.7)"/><path fill="#9cacd4" d="M61.7 54.9l32 25.4-42.9-27.5-2 17.8z"/><path fill="#97a3a0" d="M86.7 24.3l7.8-.3 17.2 60.6-10.7-5.1z"/><path fill="#fffce7" d="M12 47L-16 7v40z"/><path fill="#a3a6a5" d="M86.5 115l-100.6 36.6-2.4-6.6 100.6-36.6z"/><path fill="#6b757d" d="M31.4 111.3l16.2-22.6 17.3 21.7L87 80.5z"/><circle r="1" fill="#fdefec" transform="matrix(5.8752 31.1996 -3.71167 .69894 154 10.9)"/><path fill="#0f1b1f" d="M141 81h19v17h-19z"/><circle r="1" fill="#757a7e" transform="matrix(-59.7558 32.17519 -10.51193 -19.52278 31.5 163)"/><path fill="#758189" d="M98 90h39v27H98z"/><path fill="#3d3851" d="M43 72h35v5H43z"/><path fill="#cfc9b0" d="M116.2 70l10-26.1 5.6 2.1-10 26.1z"/><path fill="#101110" d="M27 202l44-7-15 23z"/><path fill="#fff8fe" d="M96 0h24v38H96z"/><path fill="#b3bbb2" d="M55 28L38 40l20 15z"/><path fill="#83806d" d="M134 15h12v4h-12z"/><circle cx="83" cy="179" r="14" fill="#64686f"/><path fill="#fff8fb" d="M80 6h5v33h-5z"/><circle r="1" fill="#545757" transform="matrix(-2.5613 -8.12626 21.03725 -6.63066 16.6 104.3)"/><path fill="#646c75" d="M143.1 198.5l41.9-70.4-15.6 83.7-108.6 3.5z"/><path fill="#626057" d="M171 10l10 5-22-4z"/><path fill="#012e52" d="M13 46h34v4H13z"/><path fill="#303739" d="M-16 48.9l80 52.6-1.9-12.6-36.6-21.6z"/><path fill="#394f5f" d="M69 43h33v4H69z"/><path fill="#999287" d="M132 39h9v35h-9z"/><path fill="#b6b7b6" d="M106.1 156.7l12.3-7.2 1.9 12.8-48 .1z"/><circle r="1" fill="#3556ac" transform="matrix(-10.7354 -3.46744 1.73784 -5.38047 119 75.1)"/><path fill="#b6afa3" d="M22.1 42.6l60-2.4-70.5-5.1-5.8 15.2z"/><circle cx="85" cy="77" r="4" fill="#bad2f8"/><path fill="#717160" d="M85 35l9-5-9 1z"/><path fill="#444648" d="M141 38h11v37h-11z"/><path fill="#f9fffd" d="M52.5 70.4l10.9-1.8.1 1-10.9 1.8z"/><path fill="#384759" d="M75.8 74l24.6 15.6L90 98.7 68.9 72.9z"/><path fill="#2f2b1f" d="M138 15h1v15h-1z"/><circle cx="58" cy="84" r="4" fill="#97afdb"/><path fill="#636569" d="M61 199l-63-5 69-13z"/><path fill="#787f86" d="M55.9 28.6L53 42.8l26.5-11.9-25.8-5.6z"/><path fill="#16171a" d="M73.5 190.2l-8.6 21.4-8.6-1.8 12.4-22.7z"/><path fill="#333644" d="M153 63l12-38 9 11z"/><ellipse cx="4" cy="80" fill="#90a4bc" rx="2" ry="12"/><path fill="#005b9e" d="M25 43h17v3H25z"/><path fill="#626f77" d="M178 96.2v9l-38 .6v-9z"/><path fill="#858c91" d="M42.1 153.3l47.3-83.5-22.8 22.8 43.1 66z"/><path fill="#ded6d0" d="M168 25l-29 7 3-19z"/><ellipse cx="139" cy="10" fill="#8a907d" rx="9" ry="2"/><ellipse cx="142" cy="134" fill="#7a858d" rx="35" ry="33"/><path fill="#b4b8f9" d="M62.6 59.3l14 9.8-1.2 1.6-14-9.8z"/><path fill="#c4cac6" d="M59.8 125.9l-.1-1 48.5-6.8.1 1z"/><path fill="#69655e" d="M130.7 68.3L123 62l10.3-12.2L141 56z"/><path fill="#f5ece2" d="M81 35h80v3H81z"/><path fill="#303c42" d="M9.8 83L6.4 51.2 46.2 47l3.4 31.8z"/><ellipse cx="61" cy="11" fill="#fff3f9" rx="66" ry="14"/><path fill="#fffdff" d="M175.6 12.8l-31.8-7 34.6-3.9-16.1 14.5z"/><path fill="#b3b5ae" d="M98 64h27v6H98z"/><path fill="#a5adb1" d="M127 97.3l22.4 6.2 18.1 7 5.7 3.9z"/><circle r="1" fill="#4a596a" transform="matrix(-1.90142 22.17905 -1.70083 -.14581 110.2 69.9)"/><path fill="#dadad1" d="M53.8 125.6l.4 1-52 17.8-.4-1z"/><path fill="#3f4540" d="M162.6-.7l3.6 1.6-.8 1.8-3.6-1.6z"/><circle r="1" fill="#4b4f53" transform="rotate(-132.8 138.5 91.3) scale(18.85139 30.16512)"/><path fill="#252e38" d="M128.7 82.8L146.1 99l11.6-12.1-20.3-9.9z"/><path fill="#857f7e" d="M118.3 38.2l23.2 1.7-30 6.9-5.9-8.7z"/><path fill="#616161" d="M10 186l47 39-73-14z"/><path fill="#1c1b1b" d="M84 83h5v13h-5z"/><path fill="#22515f" d="M113 87l-7 6-18-22z"/><path fill="#a2ab96" d="M79 37h25v5H79z"/><path fill="#777b7d" d="M-6 143l43-15-53-29z"/><path fill="#a7c0e4" d="M69.8 75.8l.4 1-14 5.4-.4-1z"/><path fill="#563504" d="M-5.5 68.4l11 .2v3l-11-.2z"/><ellipse cx="167" cy="50" fill="#ba9771" rx="6" ry="2"/><path fill="#f3e7e1" d="M40.7 18.5l9.7 12.4-21.6 3.2L-16 21.2z"/><circle r="1" fill="#484a4e" transform="matrix(39.73086 -11.99545 2.7147 8.99149 28.8 241)"/><path fill="#91a1a2" d="M106.9 53.9L86.4 71.5l17.9-35.2 5.9 14.9z"/><ellipse cx="155" cy="70" fill="#916a4f" rx="14" ry="2"/><ellipse cx="23" cy="35" fill="#6b6654" rx="6" ry="2"/></g></g></svg>