<svg xmlns="http://www.w3.org/2000/svg" viewBox="0 0 1800 1012"><defs/><filter id="prefix__a"><feGaussianBlur stdDeviation="12"/></filter><rect width="100%" height="100%" fill="#495f84"/><g filter="url(#prefix__a)"><g transform="translate(3.5 3.5) scale(7.03125)"><ellipse cx="142" cy="37" fill="#d4dfd7" fill-opacity=".5" rx="255" ry="61"/><circle r="1" fill="#9f8b6c" fill-opacity=".5" transform="rotate(-4.9 870.2 -1634.2) scale(206.13257 21.17147)"/><circle r="1" fill="#7eb1e9" fill-opacity=".5" transform="matrix(178.86738 -24.8199 4.94622 35.64548 151 11)"/><path fill="#d7d1bc" fill-opacity=".5" d="M90 74h108v21H90z"/><circle r="1" fill="#817d6e" fill-opacity=".5" transform="matrix(-59.28482 -2.87794 1.11013 -22.86849 225.6 63.5)"/><ellipse cx="253" cy="91" fill="#e3d2ae" fill-opacity=".5" rx="110" ry="5"/><ellipse cx="39" cy="82" fill="#5d5f55" fill-opacity=".5" rx="34" ry="5"/><path fill="#2c5685" fill-opacity=".5" d="M14 158l-30-62 185-1z"/><circle r="1" fill="#6a92c2" fill-opacity=".5" transform="matrix(-4.46969 -19.34545 165.99127 -38.3516 0 14.6)"/><path fill="#50574a" fill-opacity=".5" d="M175.4 62.1l-31.5 1.4-.4-3.7 59.6-10.4z"/><ellipse cx="168" cy="121" fill="#3a628d" fill-opacity=".5" rx="155" ry="26"/><path fill="#b4aa9d" fill-opacity=".5" d="M213 39l49 53-85-48z"/><path fill="#46565d" fill-opacity=".5" d="M225 40h31v13h-31z"/><path fill="#6c8bb0" fill-opacity=".5" d="M80 106h176v4H80z"/><circle r="1" fill="#4b5547" fill-opacity=".5" transform="matrix(-1.14323 4.27087 -20.94455 -5.60646 214.9 79.8)"/><path fill="#94b5d6" fill-opacity=".5" d="M105 18h151v21H105z"/><path fill="#e2e3d7" fill-opacity=".5" d="M0 93h60v2H0z"/><circle r="1" fill="#2e4d73" fill-opacity=".5" transform="matrix(-1.02995 14.65588 -90.40064 -6.35295 74 142)"/><path fill="#8c837b" fill-opacity=".5" d="M7.6 86.7l122-30.5-33 25.6L-16 54.5z"/><ellipse cx="100" cy="44" fill="#9bb1c8" fill-opacity=".5" rx="70" ry="10"/><circle r="1" fill="#b8b8b0" fill-opacity=".5" transform="rotate(167.3 51.5 47.6) scale(44.07397 7.90783)"/><path fill="#707369" fill-opacity=".5" d="M271 42.1l-75.1 16.7-45.5-8.1 27.7 2.9z"/><path fill="#c1c2b8" fill-opacity=".5" d="M156 72h35v23h-35z"/><ellipse cx="37" cy="101" fill="#214067" fill-opacity=".5" rx="51" ry="3"/><path fill="#e1dbc6" fill-opacity=".5" d="M240 88h16v8h-16z"/><path fill="#32402e" fill-opacity=".5" d="M27.4 84.7l-.4-.9 21.6-10.5.4.9z"/><path fill="#696d62" fill-opacity=".5" d="M71.2 87.4l-3.1-17.5L72.2 93l-38.4-.6z"/><path fill="#fffff8" fill-opacity=".5" d="M29 88h10v3H29z"/><path fill="#90928e" fill-opacity=".5" d="M128 81l8 15 20-18z"/><path fill="#797868" fill-opacity=".5" d="M270.8 59.5L211.5 95l44-15.5 3.6 53.9z"/><path fill="#fff" fill-opacity=".5" d="M214 78h3v4h-3z"/><path fill="#a29b91" fill-opacity=".5" d="M243.2 50.1L271 70.8 165.8 63l97.7-10.5z"/><ellipse cx="11" cy="38" fill="#84a2c4" fill-opacity=".5" rx="46" ry="22"/><path fill="#e3e1d4" fill-opacity=".5" d="M102.3 82.9l5.1-4.8 10.3 11-5.1 4.8z"/><circle r="1" fill="#c1b7a4" fill-opacity=".5" transform="matrix(-.15571 3.55943 -11.45501 -.50111 231.2 73.6)"/><path fill="#a39c93" fill-opacity=".5" d="M101.5 98.4l-.7-1.5 24.3-51.1-36 10.8z"/><path fill="#90918c" fill-opacity=".5" d="M170 67l8 26 1-24z"/><path fill="#aeb6b2" fill-opacity=".5" d="M-16 70v23l27-2z"/><path fill="#ddd9c9" fill-opacity=".5" d="M148 83h25v8h-25z"/><path fill="#b1a79f" fill-opacity=".5" d="M224 41.6l-4.6-5.5-2.4 9.1.2 16.2z"/><path fill="#c6c5b9" fill-opacity=".5" d="M136 58h6v19h-6z"/><ellipse cx="82" cy="93" fill="#c8c3b3" fill-opacity=".5" rx="33" ry="2"/><path fill="#575866" fill-opacity=".5" d="M5 70h16v4H5z"/><circle r="1" fill="#6991c0" fill-opacity=".5" transform="matrix(4.8104 11.16961 -76.13354 32.78828 0 13.2)"/><ellipse cx="161" cy="98" fill="#456490" fill-opacity=".5" rx="113" ry="3"/><path fill="#8d8d94" fill-opacity=".5" d="M60.5 84.2L40.6 55l53.7-1.8-56 29.3z"/><path fill="#4a554a" fill-opacity=".5" d="M143 58h29v5h-29z"/><path fill="#3e5c85" fill-opacity=".5" d="M23 109h107v29H23z"/><path fill="#163a61" fill-opacity=".5" d="M32 141h78v2H32z"/><path fill="#e8e3d0" fill-opacity=".5" d="M50.3 89.4L48.6 92l-5-3.3 1.8-2.5z"/><path fill="#8fb5d9" fill-opacity=".5" d="M214 34l40 6 4-14z"/><path fill="#928a77" fill-opacity=".5" d="M115 75.1l-35.8 4.2 65.3-28.8 2.5 1.3z"/><ellipse cx="203" cy="44" fill="#b4a59b" fill-opacity=".5" rx="17" ry="6"/><ellipse cx="51" cy="91" fill="#676a64" fill-opacity=".5" rx="21" ry="2"/><path fill="#7da3cf" fill-opacity=".5" d="M123-16L26 24 236 2z"/><path fill="#8d8c91" fill-opacity=".5" d="M6 87.6l82.2-35.9-82.8 9 12.4 12.6z"/><path fill="#b2aea4" fill-opacity=".5" d="M94.6 80.3l-35.3-2.4 17.6-10.1-2.2 22.8z"/><ellipse cx="129" cy="95" fill="#8e8c88" fill-opacity=".5" rx="85" ry="1"/><path fill="#535a4c" fill-opacity=".5" d="M48.5 85.8l24.2-6.5.8 3-24.2 6.4z"/><path fill="#4f5952" fill-opacity=".5" d="M250 70h6v9h-6z"/><path fill="#888882" fill-opacity=".5" d="M173.7 57.2l-27.1 21.4-4.1 22.7 22.8-53.1z"/><circle r="1" fill="#64696c" fill-opacity=".5" transform="matrix(-.99961 -.02792 .1723 -6.16811 118 89.6)"/><circle r="1" fill="#a4a3a3" fill-opacity=".5" transform="matrix(1.0205 5.44144 -29.3112 5.49708 119.8 53.5)"/><path fill="#686c64" fill-opacity=".5" d="M24.7 93.8l-9.4-7.6 7.5-2.7 5.3-9.7z"/><path fill="#2a3833" fill-opacity=".5" d="M155 60h18v2h-18z"/><path fill="#fff" fill-opacity=".5" d="M141.1 59.6l.4.9-4.6 2-.4-1z"/><path fill="#323d3c" fill-opacity=".5" d="M201 67h11v2h-11z"/><path fill="#bbb9ac" fill-opacity=".5" d="M249.1 84.2l-25.6 12.2 47.5.2v.5z"/><path fill="#475340" fill-opacity=".5" d="M217.3 76.9l14 1.2-.6 7-14-1.2z"/><path fill="#98958c" fill-opacity=".5" d="M191.1 84l-9-21.9 26.6 39.7-6-18.1z"/><path fill="#93b1cf" fill-opacity=".5" d="M159.7 48.5L49.5 32.3 239 27.8l-55.5 15.4z"/><path fill="#414a3d" fill-opacity=".5" d="M163.5 53.5l.1-1 16.9 2-.1 1z"/><ellipse cx="92" cy="106" fill="#5977a0" fill-opacity=".5" rx="72" ry="2"/><path fill="#696a56" fill-opacity=".5" d="M119 59h16v4h-16z"/><path fill="#a59b94" fill-opacity=".5" d="M207.8 48.5l38.3 1.9-49.9-10.8-35 12.7z"/><path fill="#2a4971" fill-opacity=".5" d="M0 107h59v5H0z"/><path fill="#bbbcb2" fill-opacity=".5" d="M155.1 74l-.4 23.5 7.6-26.8 37.5 11.2z"/><path fill="#cfd1c6" fill-opacity=".5" d="M124 71h23v3h-23z"/><path fill="#b0aea3" fill-opacity=".5" d="M77 93.8l10.9-12.1-36 4.9 39.2 5.9z"/><path fill="#959792" fill-opacity=".5" d="M176.5 87.9l-5.8-12.8 14.7 16.8 3.7 9.1z"/><ellipse cx="99" cy="116" fill="#466891" fill-opacity=".5" rx="128" ry="3"/><path fill="#8a8479" fill-opacity=".5" d="M150 61l25 8-45-1z"/><path fill="#94948c" fill-opacity=".5" d="M162 78h2v18h-2z"/><path fill="#464f46" fill-opacity=".5" d="M206 74l4 12v-8z"/><path fill="#204267" fill-opacity=".5" d="M211 143.5l-38-2v-1l38 2z"/><path fill="#c0b9a6" fill-opacity=".5" d="M222.4 96l-9.5-8.9 4.7-5 9.5 8.8z"/><path fill="#c4c2ba" fill-opacity=".5" d="M33.3 86.4L19 90.5l-.2-1 14.4-4z"/><path fill="#747164" fill-opacity=".5" d="M68.5 67.1L61.1 74l-41 3.6 21.6.2z"/><path fill="#d5ccc8" fill-opacity=".5" d="M235 67l-3-3-8 2z"/><path fill="#949086" fill-opacity=".5" d="M83.1 93.1L86.5 83l16.5 6.8 1-7.7z"/><ellipse cx="138" cy="98" fill="#597ba7" fill-opacity=".5" rx="60" ry="1"/><ellipse cx="253" cy="103" fill="#385d8a" fill-opacity=".5" rx="126" ry="4"/><path fill="#c7c2b4" fill-opacity=".5" d="M241.5 75.7l8.2-10 .8.6-8.2 10z"/><path fill="#dedbca" fill-opacity=".5" d="M194.5 91.1l-5.8 5-10.2-16.2 3.5-2.7z"/><path fill="#afa190" fill-opacity=".5" d="M2.1 79.4l-.1-1 111.9-15.8.1 1z"/><ellipse cx="248" cy="109" fill="#607ea3" fill-opacity=".5" rx="90" ry="2"/><path fill="#8a857e" fill-opacity=".5" d="M188 72l-12-1-3-14z"/><path fill="#b2a997" fill-opacity=".5" d="M204 50l-6 10-10 3z"/><path fill="none" stroke="#6e7d8e" stroke-opacity=".5" stroke-width=".5" d="M118.2 45.9q10 40.8 5.6 81.6"/><path fill="#d2cdbb" fill-opacity=".5" d="M136 83h5v12h-5z"/></g></g></svg>