<svg xmlns="http://www.w3.org/2000/svg" viewBox="0 0 4400 2933"><defs/><filter id="a"><feGaussianBlur stdDeviation="12"/></filter><rect width="100%" height="100%" fill="#504f39"/><g filter="url(#a)"><g fill-opacity=".5" transform="translate(8.6 8.6) scale(17.1875)"><circle r="1" fill="#fff" transform="matrix(15.70182 104.78301 -231.01858 34.61832 104.5 0)"/><circle r="1" fill="#accfff" transform="matrix(11.33177 49.47708 -209.58276 48.00086 160 42.5)"/><path fill="#b3c1d5" d="M47 131h31v39H47z"/><circle r="1" fill="#b4c0ce" transform="rotate(95.3 27.4 149.5) scale(6.57776 76.65116)"/><circle r="1" fill="#84a3d7" transform="matrix(-129.38456 26.81842 -6.5205 -31.45797 68.5 12.6)"/><path fill="#b8c7dd" d="M110 133h11v37h-11z"/><ellipse cx="76" cy="169" fill="#6a8191" rx="98" ry="12"/><path fill="#c5cdd2" d="M157 132l-49 7 26-25z"/><ellipse cx="63" cy="83" fill="#c6d4e6" rx="67" ry="28"/><path fill="#041100" d="M171 128h9v42h-9z"/><path fill="#222d00" d="M1 126h42v29H1z"/><circle r="1" fill="#b9cceb" transform="matrix(-.63993 -16.6956 36.24849 -1.38938 20.6 12.3)"/><path fill="#232f10" d="M77 125h35v37H77z"/><path fill="#d5d4d0" d="M77.3 137.9l-6.8 13.3-17.8-9 6.8-13.4z"/><ellipse cx="255" cy="34" fill="#ced7e3" rx="116" ry="13"/><path fill="#091618" d="M156.6 137.3l-46.8 10.9 27.7 6.1 22.9-.1z"/><path fill="#4b5c6b" d="M181 182l90-48-136 23z"/><path fill="#868c88" d="M206 4h4v135h-4z"/><path fill="#576132" d="M195.4 87.4l-65.5 13.1L15 126l102.2 5.1z"/><circle r="1" fill="#869cbd" transform="rotate(158 65 12.7) scale(109.18641 19.88063)"/><path fill="#9aa3ab" d="M197.9 145.9l-15.8-2.9 6.3-22 28.7 22.8z"/><circle r="1" fill="#95a0a7" transform="matrix(-1.22911 -.05899 11.3613 -236.72663 250 24.4)"/><ellipse cx="59" cy="73" fill="#8b8e8d" rx="2" ry="65"/><circle r="1" fill="#555c19" transform="matrix(-26.6522 19.79366 -7.49668 -10.09429 0 129.8)"/><path fill="#d7d7e7" d="M137 98h2v30h-2z"/><circle r="1" fill="#21322e" transform="matrix(-84.03537 6.02119 -.4126 -5.75855 207 169)"/><path fill="#eae4de" d="M110 133h54v3h-54z"/><path fill="#a5acac" d="M172.1 176.8l-3 .2-3.2-45.8 3-.2z"/><path fill="#576061" d="M50.7 169.1L39 167.3l8.6-22.3 36.1 22.8z"/><circle r="1" fill="#9ab2d4" transform="matrix(6.71067 -18.53802 59.27881 21.45863 119.3 60.1)"/><ellipse cx="113" cy="169" fill="#7b8a95" rx="34" ry="8"/><ellipse cx="17" cy="169" fill="#9bb1cd" rx="38" ry="2"/><path fill="#9ba19d" d="M191.2 59.5h1l-1.4 77h-1z"/><ellipse cx="234" cy="137" fill="#9cacbb" rx="45" ry="2"/><path fill="#c8d3e2" d="M213 22l52-38-36 88z"/><path fill="#5d632c" d="M23 110h37v28H23z"/><path fill="#1f292d" d="M138 146h118v4H138z"/><path fill="#6e7b82" d="M183 150h38v10h-38z"/><ellipse cx="176" cy="150" fill="#363c1a" rx="6" ry="60"/><path fill="#04111f" d="M248 140h8v12h-8z"/><path fill="#adbed5" d="M-16 124.4l31.8-19.1 17 7.2L-4.8 2.7z"/><path fill="#b9b8b1" d="M59 132h12v29H59z"/><path fill="#d1dce8" d="M64 74h38v26H64z"/><path fill="#abadae" d="M118 149l-2-24-9 12z"/><ellipse cx="55" cy="138" fill="#a0a7b2" rx="12" ry="9"/><path fill="#454a1e" d="M61.6 128.8L74 110.3l36.9 21.1-35.3 6.3z"/><ellipse cx="210" cy="25" fill="#7e7c73" rx="2" ry="19"/><path fill="#474c28" d="M145 96l46-1-17 45z"/><circle r="1" fill="#657074" transform="rotate(-115.7 73.2 65) scale(2.32775 32.84881)"/><path fill="#3a432b" d="M227 73h14v59h-14z"/><path fill="#c5c7c1" d="M206 78h2v43h-2z"/><path fill="#c4cfdb" d="M209 56h47v13h-47z"/><path fill="#748290" d="M237 137h11v20h-11z"/><circle r="1" fill="#2c372a" transform="matrix(-71.22905 3.71153 -.05204 -.99865 39.5 149.5)"/><path fill="#616c4b" d="M159.5 127.4l66.9-18.5 5.9 4.9-2.5 11z"/><path fill="#a1b3bb" d="M121 123h30v5h-30z"/><path fill="#31391a" d="M247 92h9v45h-9z"/><path fill="#475045" d="M75 152l22 14H70z"/><path fill="#a4aaa1" d="M161 115h2v24h-2z"/><ellipse cx="61" cy="51" fill="#90a8cd" rx="30" ry="9"/><path fill="#41492f" d="M209.3 78.3l34.4 25.4-28.2 5.8-8 24z"/><path fill="#212f29" d="M241.7 155l-5 29.6-7.2.4-8.5-34.1z"/><path fill="#56585b" d="M122 137h45v3h-45z"/><path fill="#9ca7af" d="M244.2 129.4h-1l6.6-124.8h1z"/><path fill="#4c511f" d="M24 120.3l15.9-10.4L54 131.7l-15.9 10.4z"/><path fill="#999b99" d="M59 70h3v66h-3z"/><path fill="#98acc4" d="M48.5 161.6v1l-51 1.8v-1z"/><path fill="#262f1e" d="M0 141h29v21H0z"/><path fill="#1d2315" d="M160.5 145.7l-11.1 7.9-18.5-15-16.4 10.5z"/><circle r="1" fill="#7994bf" transform="rotate(-70.5 52.4 -67.3) scale(10.21218 33.78332)"/><circle r="1" fill="#b9b9b9" transform="rotate(89.7 14 155.4) scale(6.68439 1.99775)"/><path fill="#edede4" d="M57.6 138.3l13 .4-.2 5-13-.4z"/><ellipse cx="111" cy="169" fill="#687173" rx="3" ry="53"/><path fill="#484e4b" d="M219.8 169.1l8.1-45-10.6 26L249 147z"/><path fill="#282d13" d="M79 133h29v20H79z"/><path fill="#f4f0e7" d="M119.6 133.7l-1.2 11-4-.4 1.2-11z"/><path fill="#98a4ae" d="M195 140l22-10v14z"/><path fill="#666851" d="M246 81l-3-12-14 15z"/><path fill="#92a8cb" d="M-12-3l56 45-60 10z"/><path fill="#aabfda" d="M155 97l-14-63 63 14z"/><ellipse cx="202" cy="19" fill="#b8c7dc" rx="6" ry="51"/><circle r="1" fill="#8b928c" transform="matrix(-1.07089 .27761 -5.47122 -21.10515 217.2 150.8)"/><path fill="#80827c" d="M158 159l-18 8-9-9z"/><path fill="#c1cfe0" d="M58.5 67.8l.1 46.7-30.6-18-1.3-45.7z"/><path fill="#376479" d="M126 119h12v5h-12z"/><path fill="#363c27" d="M161 94h27v13h-27z"/><path fill="#7f807c" d="M207 33h3v45h-3z"/><ellipse cx="164" cy="143" fill="#758496" rx="5" ry="4"/><path fill="#00346b" d="M196.5 126.3l3.7 1.9 12.6-6.9-19.1 4.5z"/><path fill="#1f281a" d="M243 128l-18 8 10-15z"/><path fill="#909488" d="M218.2 82.5l1-.2 8.6 49.2-1 .2z"/><ellipse cx="95" cy="169" fill="#879fbc" rx="39" ry="1"/><ellipse cx="141" cy="72" fill="#a1b1c4" rx="7" ry="29"/><circle r="1" fill="#18252e" transform="matrix(-.40047 2.40517 -17.70413 -2.94779 198.5 147.9)"/><path fill="#afbfd6" d="M-3.5 11.9L50.6-16 61 37.1l16.8-11.9z"/><path fill="#91a4b3" d="M83 163h35v2H83z"/><path fill="#bbc1bc" d="M194.2 127.4l5.4 2.2-1 .7-13.7-.8z"/><path fill="#a6aaa7" d="M119.8 156.7l-5.9 26.3 1.2-33 1.3 2.2z"/><ellipse cx="168" fill="#9daec7" rx="43" ry="22"/><path fill="#6b7680" d="M249.6 41.1l1 .2-4.2 21.6-1-.2z"/></g></g></svg>