<svg xmlns="http://www.w3.org/2000/svg" viewBox="0 0 1800 1013"><defs/><filter id="a"><feGaussianBlur stdDeviation="12"/></filter><rect width="100%" height="100%" fill="#4e4132"/><g filter="url(#a)"><g fill-opacity=".5" transform="translate(3.5 3.5) scale(7.03125)"><circle r="1" fill="#fff" transform="rotate(18.9 -6.7 450) scale(193.90044 74.04322)"/><circle r="1" fill="#feffff" transform="matrix(2.99316 -46.28562 178.0361 11.51308 179.4 28.3)"/><circle r="1" fill="#5b7391" transform="matrix(2.5097 -23.34001 196.2056 21.0975 163.9 95.1)"/><circle r="1" fill="#72717a" transform="rotate(120.9 5.6 54) scale(21.80374 60.70857)"/><circle r="1" fill="#e0e7ea" transform="rotate(164.9 89.1 26) scale(113.94148 39.44679)"/><ellipse cx="37" cy="80" fill="#fdefcf" rx="9" ry="18"/><circle r="1" fill="#5c6f87" transform="matrix(72.48282 -3.80788 1.32806 25.2795 205.6 100)"/><ellipse cx="14" cy="102" fill="#322c1b" rx="17" ry="62"/><path fill="#393335" d="M68.9 62.5L14.6 40.3l18.5 21.8 78.1 22.8z"/><path fill="#b7cbdd" d="M98.6 64.8L-16 32.9-5.6-16 145.6-3.8z"/><path fill="#88a4cb" d="M62.6 74.9l43.6 17.6-6.8 16.6-43.6-17.6z"/><ellipse cx="131" cy="143" fill="#232836" rx="200" ry="21"/><path fill="#546176" d="M222 78L50 72l59 33z"/><path fill="#6e5c33" d="M54 101l-70-35 47 46z"/><path fill="#aab4c0" d="M136.3 99.4l108.2 13.3-.8 6-108.2-13.4z"/><ellipse cx="122" cy="122" fill="#343026" rx="18" ry="28"/><circle r="1" fill="#eae8e4" transform="rotate(-7.2 392 -1953.6) scale(65.53854 39.65093)"/><path fill="#23241a" d="M46 98l37 4-50 24z"/><ellipse cx="147" cy="57" fill="#d8d3cb" rx="81" ry="18"/><path fill="#bdb6a8" d="M44.8 58.6L29 90.8l-2.8-12.2 20.4 21.7z"/><path fill="#57525a" d="M-13.4 111.3L4.4 64.8l68.1-6.4L-16 33.5z"/><ellipse cx="244" cy="137" fill="#2c2a28" rx="16" ry="19"/><path fill="#4e5866" d="M201 78h55v8h-55z"/><path fill="#808492" d="M153.4 105.9l-12.5 36.9 4.3-26.3 39.7 5.5z"/><ellipse cx="15" fill="#b0c3d6" rx="45" ry="38"/><path fill="#554941" d="M65.4 59l-23-8.9 3.9 29.2 37.6-2.6z"/><path fill="#ad9a8d" d="M106 126h6v9h-6z"/><path fill="#c9b19e" d="M9 52h4v12H9z"/><path fill="#201f2b" d="M3 65l19 24 8-29z"/><path fill="#7286a7" d="M56 78h68v14H56z"/><path fill="#c3c2b6" d="M30 64h15v27H30z"/><path fill="#3f3f44" d="M26.2 66.7L2.1 72.8l38.3 3.9-3 8.2z"/><path fill="#807c76" d="M149 110l-35-4 22-8z"/><path fill="#292928" d="M107.8 126.5l-7.1-29.8 46.9 39.1 4.8 23.2z"/><path fill="#a38b78" d="M34 88l26 6-42 2z"/><ellipse cx="85" cy="75" fill="#5a4d44" rx="25" ry="3"/><path fill="#524840" d="M69 129L51 93l55 18z"/><path fill="#252415" d="M35 133l-51-19L3 83z"/><path fill="#786452" d="M39.1 125.4l7-7.2 10.8 10.4-7 7.2z"/><path fill="#8c7971" d="M16 130h4v14h-4z"/><ellipse cx="205" cy="98" fill="#5b6d84" rx="59" ry="8"/><path fill="#735433" d="M156 119l-17-12 5 21z"/><circle cx="97" cy="106" r="4" fill="#ced0db"/><circle cx="53" cy="114" r="9" fill="#111513"/><path fill="#392c28" d="M78 90h14v3H78z"/><path fill="#c5c4c2" d="M141.3 78.3l-36.6-3.7-40.8-17.4 57-6.6z"/><path fill="#8d7f75" d="M169.3 138.4l-2-11 7.3 7.7-2.9 2z"/><circle r="1" fill="#d0d8e0" transform="rotate(164.1 61.6 16.6) scale(60.51987 23.38789)"/><path fill="#7d90aa" d="M67 93h44v8H67z"/><path fill="#d1cfca" d="M43.8 37.4l21.1 21.3 87.4 16.7 106.3-.3z"/><path fill="#746963" d="M204 144l-14-20-1 10z"/><path fill="#574235" d="M50 74h5v31h-5z"/><ellipse cx="231" cy="113" fill="#8c96a4" rx="26" ry="6"/><path fill="#4f4b52" d="M45.1 51.6L3.3 37.2l-6.3.5-6.3 22z"/><path fill="#4f617c" d="M162.7 81l-.6 6.9-54.8-4.8.6-7z"/><path fill="#fff2e3" d="M28 80h3v8h-3z"/><path fill="#28282a" d="M98 141l-25-27h34z"/><path fill="#1a1a1b" d="M113 128l27 6-9-24z"/><path fill="#6d7f9a" d="M123 86.4l-1.4-2.7 26.8 4.6 4.4 31.6z"/><path fill="#5d542f" d="M48 124l-10-17-35-2z"/><path fill="#18191c" d="M-5 63l-4-9 21-1z"/><path fill="#2d2c31" d="M58 110.9L15.9 82.4l17.7 8.1 11.9 25.8z"/><path fill="#e1ddc8" d="M34.4 84.7l12-9 1.2 1.6-12 9z"/><path fill="#3e3a2b" d="M99 110h43v14H99z"/><path fill="#cdccca" d="M153.1 104.7l24 1.6-.2 3-24-1.6z"/><path fill="#333134" d="M195.4 135.3l-49.5-16.4 16.1.8 43 6.4z"/><path fill="#6c5b44" d="M75 110l-5 24-9-31z"/><path fill="#7b8db2" d="M202.2 123.8l-.2 1-48.2-8.6.2-1z"/><circle r="1" fill="#393734" transform="matrix(4.78846 8.07506 -22.83977 13.54383 226.9 134.3)"/><path fill="#c5a686" d="M50 89v5l-10 3z"/><path fill="#c7cccf" d="M-16 27l62 23 63-19z"/><circle r="1" fill="#e3e2dc" transform="matrix(55.64314 2.07504 -.77175 20.6949 208 49)"/><path fill="#514640" d="M103 111.7L74.6 99.9l-32.4 38.5 41.5-16.5z"/><circle r="1" fill="#aab5ca" transform="matrix(1.013 -2.3873 8.01971 3.40298 91.6 103.7)"/><path fill="#524e51" d="M26 53h33v11H26z"/><path fill="#544a49" d="M26.8 136.9L71.1 159l19.8-24.9 27.2 24.9z"/><path fill="#0b090b" d="M-14.1 130.1l3-4L14.1 146l-3 4z"/><path fill="#212229" d="M202.1 159l-25.7-39.4 1.2 39.4-28.6-37z"/><path fill="#191b22" d="M25.7 61l-2.6 4.2-6.8-4.2 2.6-4.2z"/><circle r="1" fill="#dae0e6" transform="matrix(-5.6021 -16.6309 55.00617 -18.52878 207.4 8.6)"/><path fill="#8294b3" d="M60 79l-7 14 21 1z"/><path fill="#bfbbba" d="M133 77h24v1h-24z"/><circle r="1" fill="#b1c1d1" transform="rotate(9 -37 65) scale(20.5646 31.52136)"/><path fill="#6e5f30" d="M-7.5 57.6L-16 75.9l54.7 27-.9 13z"/><path fill="#665549" d="M135.5 122.9l1.3-5.4 18.1-1.1-8.2 18.4z"/><ellipse cx="3" cy="133" fill="#645337" rx="7" ry="4"/><path fill="#8090a6" d="M134 103h68v3h-68z"/><path fill="#c8caca" d="M97.1 35.2l-5.4 38.9-11.2-4.2-16.1-20.2z"/><path fill="#585850" d="M126.5 109.7l-33-8.7 13.8-3.4-.6 14.2z"/><path fill="#172225" d="M39 67.9v1l-6-.8v-1z"/><ellipse cx="191" cy="91" fill="#68798f" rx="79" ry="8"/><path fill="#554e3e" d="M119.8 104.3L130.6 94l5.6 5.8-10.8 10.4z"/><path fill="#2d2a1f" d="M30.9 159L3.6 117.2l40.1 8.7L-2 99.5z"/><ellipse cx="36" cy="95" fill="#9b836e" rx="15" ry="3"/><path fill="#9d9495" d="M51 78h37v2H51z"/><path fill="#8490ad" d="M166 120l-10-5 24 3z"/><path fill="#1c1b20" d="M63.3 135.5l41.4 23.5-51.4-20.9-7.5-.5z"/><path fill="#ac9886" d="M0 63h18v1H0z"/><path fill="#7b8da8" d="M86 86h33v5H86z"/><path fill="#584a47" d="M45 82.6L57.6 67l5.4 4.4L50.4 87z"/></g></g></svg>