<svg xmlns="http://www.w3.org/2000/svg" viewBox="0 0 1800 1200"><defs/><filter id="a"><feGaussianBlur stdDeviation="12"/></filter><rect width="100%" height="100%" fill="#5a5d39"/><g filter="url(#a)"><g fill-opacity=".5" transform="translate(3.5 3.5) scale(7.03125)"><circle r="1" fill="#fff" transform="rotate(-99.4 53.7 -45.5) scale(39.9965 198.36904)"/><circle r="1" fill="#95b2f0" transform="matrix(-1.06003 19.3323 -206.19733 -11.3062 57.3 160.2)"/><circle r="1" fill="#fcffff" transform="matrix(-4.20197 -27.3024 215.38655 -33.14901 134.4 1)"/><circle r="1" fill="#5f5f73" transform="matrix(-94.90848 -52.11626 30.5462 -55.62743 155.9 105.9)"/><path fill="#201d13" d="M184 119.2l88.4-9.3 3.7 34.9-88.5 9.3z"/><path fill="#c7c5c1" d="M209 82h29v31h-29z"/><ellipse cx="228" cy="49" fill="#3b425a" rx="68" ry="38"/><circle r="1" fill="#a58d7a" transform="matrix(-30.72277 -11.53255 6.74265 -17.96244 133 122.8)"/><path fill="#f1f5ff" d="M-16 39l79 7 88-62z"/><ellipse cx="12" cy="81" fill="#464f6b" rx="64" ry="38"/><path fill="#a5a3a1" d="M149 85h87v16h-87z"/><path fill="#94a6b9" d="M6 140h110v30H6z"/><ellipse cx="143" cy="150" fill="#1a1303" rx="28" ry="5"/><circle r="1" fill="#7193b4" transform="matrix(1.42156 -9.5119 21.1572 3.16197 247.3 154.6)"/><path fill="#696f78" d="M73 81l118-56-113 9z"/><path fill="#20210f" d="M161.2 113l8-12.6 29.6 18.5-8 12.7z"/><ellipse cx="19" cy="112" fill="#50494b" rx="82" ry="30"/><ellipse cx="108" cy="15" fill="#dfe5f1" rx="83" ry="14"/><path fill="#8e7c71" d="M32 100h16v39H32z"/><ellipse cx="188" cy="69" fill="#3d433e" rx="84" ry="14"/><ellipse cx="118" cy="167" fill="#8098a5" rx="72" ry="15"/><path fill="#b09c92" d="M112.2 45.9l5.2 1.3 28.4-8.7-30 25.2z"/><path fill="#677376" d="M254.4 19.6L271 3.9l-52.1 7.9L115.3 39z"/><ellipse cx="171" cy="137" fill="#907f71" rx="41" ry="6"/><path fill="#717267" d="M193 82h31v34h-31z"/><circle r="1" fill="#364037" transform="matrix(-16.18666 12.33093 -11.08313 -14.54868 85.8 104.8)"/><path fill="#eeeff1" d="M30 44.3l19.7 5.9 8.1-3.2 115.5-63z"/><path fill="#323a37" d="M63 118L0 89l-10 25z"/><path fill="#c6d0e1" d="M153-16l-24 48L271-2z"/><path fill="#c5c0ae" d="M224 81h13v27h-13z"/><path fill="#202919" d="M241 103h15v42h-15z"/><path fill="#59646c" d="M27 93.8l61.8-64.9L52 52.7 4.9 40.8z"/><path fill="#7e665a" d="M143 126.5l-78.4 12.8L63 84.5 50.9 118z"/><path fill="#4b4e37" d="M78.6 86.8l67.9-6.9 1 24.8-45.2-1.9z"/><circle r="1" fill="#edeeed" transform="matrix(26.07048 8.47081 -7.68389 23.64858 94.5 8.3)"/><circle r="1" fill="#cbd1dc" transform="matrix(-15.60151 39.94463 -48.2689 -18.8528 19.7 0)"/><ellipse cx="168" cy="48" fill="#515559" rx="39" ry="22"/><path fill="#1a1a1c" d="M180 151l40 2-19-15z"/><path fill="#bfc5c5" d="M118.4 104.1l-21.5.2 18.6 3.9 8.7-4.9z"/><circle r="1" fill="#373b3c" transform="matrix(-9.15485 -34.78162 22.87796 -6.0217 249.4 59)"/><path fill="#c2c1d2" d="M249 95h7v4h-7z"/><path fill="#b8ab91" d="M35.5 100v.4l31.8-.8-32 8z"/><path fill="#5a6461" d="M103.1 53.6l28.3-25-21.5.1-69.4 85.9z"/><ellipse cx="77" cy="142" fill="#b8c4d3" rx="11" ry="3"/><path fill="#22242c" d="M23.2 136.1l13.5 2.1L7 141.6l-23-1z"/><path fill="#838484" d="M178 82h40v22h-40z"/><path fill="#544d48" d="M102 119h22v20h-22z"/><path fill="#282521" d="M155 156l-33-10 25-4z"/><path fill="#5f7784" d="M227.2 144.8l43.8 6.3-18.8 33.9h-47.4z"/><path fill="#7d6e5f" d="M181 125l-17 23-19-55z"/><circle r="1" fill="#2e2b2a" transform="matrix(-.4163 3.598 -31.4928 -3.64384 195 147.7)"/><path fill="#d4cfca" d="M148 86h4v11h-4z"/><path fill="#2d3320" d="M169.1 120.3l57.4-7.2-51.8-8.6 96.3 27.9z"/><circle r="1" fill="#625348" transform="matrix(-.45824 -8.5594 29.41744 -1.5749 195.8 135.6)"/><circle r="1" fill="#dce2e5" transform="matrix(4.93295 18.67048 -17.41859 4.60219 134.8 13)"/><circle r="1" fill="#b1b8c7" transform="rotate(169.2 1.9 1.2) scale(42.05294 13.85625)"/><path fill="#cbdef0" d="M106 138h7v4h-7z"/><path fill="#b2afa3" d="M208.2 109.2l19-2.1 14.1 7.5-32.7-4.1z"/><path fill="#b2a593" d="M152 104l-7 8-16-7z"/><path fill="#76665f" d="M56.7 135.5l-45.3-10.9 26.9-24.1-2.2 15.3z"/><path fill="#b7c0d2" d="M205 0h51v8h-51z"/><path fill="#718c97" d="M182 173l-33-18 86-1z"/><path fill="#908374" d="M182 129l-40 11-52-21z"/><path fill="#61686c" d="M14.9 42.2L-9.8 68.1l109.8-35 25.2 51.2z"/><path fill="#616767" d="M228.7 97.2l-7 12.1-4.4-2.5 7-12.1z"/><path fill="#ccd3d8" d="M131 7h72v11h-72z"/><path fill="#e0e2e5" d="M-16 23L65 9 1 44z"/><circle r="1" fill="#4d5651" transform="rotate(11.8 -366.6 226.7) scale(76.34342 14.31296)"/><path fill="#2b323b" d="M93 144l-1.2-2.7 23.2-9.4 1.2 2.8z"/><path fill="#81929f" d="M230 154l24-6-29-3z"/><path fill="#232821" d="M229.5 134.1L190 121.7l-36.9-12.5 80.8 13.6z"/><path fill="#363e3e" d="M32.7 107.7l-38.6 25 25.4-37.4 23.7-6.8z"/><path fill="#39323a" d="M50 122h12v19H50z"/><path fill="#f5f8fb" d="M108 105h13v2h-13z"/><path fill="#8d827e" d="M104.1 63.9L153 40.2l-28.7-.3L78.9 80z"/><circle r="1" fill="#454b44" transform="rotate(113.2 12.5 80.4) scale(30.28336 14.52726)"/><path fill="#a1866b" d="M102.3 125.4l-15.1 8.8 1.5-6 10.8-10.3z"/><path fill="#948171" d="M52.3 134.5l-9.6 4.4-6.5-10.5 20 .3z"/><circle r="1" fill="#90a0b0" transform="rotate(-179.4 26.1 73.7) scale(67.7344 5.99761)"/><path fill="#928578" d="M164.6 125.6l-18 5.9 37.8 25.1-53.8-44.6z"/><path fill="#66604e" d="M142 119l30-26 10 7z"/><path fill="#506570" d="M239.3 159.9L187.7 185H271v-23.3z"/><path fill="#857e73" d="M186.7 140l-56.3-1.8 69.5 7 .4-11.1z"/><path fill="#1f201e" d="M227 153.2l-38 .6v-5l38-.6z"/><path fill="#444a47" d="M220 67h3v31h-3z"/><path fill="#5c5d36" d="M204 114h46v5h-46z"/><path fill="#796e67" d="M145 146h19v3h-19z"/><ellipse cx="80" cy="27" fill="#eff0ee" rx="31" ry="6"/><path fill="#352c29" d="M193 135l11-5-29-6z"/><path fill="#c2b5a4" d="M149 139l1-5-14 1z"/><path fill="#7f90a0" d="M90.3 185l-10.7-28.4 57.6-4.3 36.9 32.7z"/><path fill="#3d4439" d="M162 83.9l84.8-8.1 6 26.3-31.6-37z"/><path fill="#9c9897" d="M243 96h13v4h-13z"/><path fill="#737246" d="M106.4 89.3l7.1 7.5-4.1-23.9L138 83.2z"/><path fill="#e6e8e9" d="M62.8 47.5L96.4-16h132.2l-195 61.9z"/><path fill="#676962" d="M30.4 78L8.7 75l13.9 17.2-25.3-4.8z"/><path fill="#b3a495" d="M121.5 62.8l-8.3-3.7 5.3-11.9 8.3 3.7z"/><path fill="#4f5354" d="M169.2 28.8l-64.1 43.5 81.6.4L271 15z"/><path fill="#4c4d3e" d="M122.2 84.4l2.1 27.8 35.6-35-31.1 10.7z"/><path fill="#566370" d="M125.1 146.6l-52.4-8.3.2-1 52.4 8.4z"/></g></g></svg>