<svg xmlns="http://www.w3.org/2000/svg" viewBox="0 0 1800 1200"><defs/><filter id="a"><feGaussianBlur stdDeviation="12"/></filter><rect width="100%" height="100%" fill="#58433e"/><g filter="url(#a)"><g fill-opacity=".5" transform="translate(3.5 3.5) scale(7.03125)"><circle r="1" fill="#eedecc" transform="matrix(.76272 48.55203 -248.664 3.90633 110.5 42)"/><circle r="1" fill="#caaa94" transform="matrix(-15.07001 -56.45593 28.65646 -7.64939 255 132.2)"/><circle r="1" fill="#d6c1b5" transform="rotate(23.2 -360.1 132.6) scale(30.03516 17.8196)"/><circle r="1" fill="#fdf1ec" transform="matrix(103.77255 20.92422 -1.43487 7.11616 71.8 14.2)"/><ellipse cx="83" cy="93" fill="#7d695b" rx="113" ry="17"/><circle r="1" fill="#c5a290" transform="matrix(19.17757 2.8595 -2.59426 17.3987 99.8 165.6)"/><path fill="#fffbfc" d="M206.9 37.8l-6.7-1.3-61.8-8.1 97.9-2.7z"/><circle r="1" fill="#ac7344" transform="rotate(-169.9 69.5 -2.4) scale(65.65652 16.73587)"/><path fill="#e2dadc" d="M144 65h81v12h-81z"/><path fill="#aca7ac" d="M57 57h18v62H57z"/><ellipse cx="255" cy="39" fill="#8d644b" rx="20" ry="67"/><path fill="#a3001a" d="M47 148h34v22H47z"/><circle r="1" fill="#132c5b" transform="matrix(7.2069 -18.7416 26.21308 10.08 204.8 156.2)"/><ellipse cx="194" cy="50" fill="#806f60" rx="85" ry="14"/><path fill="#dee5eb" d="M259.3 145.7l-6.7 2-11.9-41.4 6.7-2z"/><path fill="#ced1d5" d="M166 94l16 3 18-32z"/><path fill="#4d3527" d="M116 157l59-85-163 61z"/><ellipse cx="21" cy="54" fill="#99a1ab" rx="104" ry="23"/><path fill="#574b46" d="M34.7 31.3L-16 20.7l17.9-5.2 41.7 8.3z"/><path fill="#785f4e" d="M27 87l98-18 8 29z"/><path fill="#493e3d" d="M78.9 28.4l-26.2-3.5-1.1 8.7 24.7 3.1z"/><path fill="#7a6b62" d="M195.5 117.7l10.7-52.5-32 49.3-81.4 49z"/><path fill="#927063" d="M6 99h23v37H6z"/><path fill="#1f1d15" d="M162 148.8l-2.1 42-30-1.6 2.2-42z"/><path fill="#d5cac6" d="M109 31L-16 10l53-22z"/><path fill="#636260" d="M85 29h18v28H85z"/><path fill="#ab9b8e" d="M-16 129.5l7.3 12.1 49 31.2L53 142.9z"/><path fill="#7c543e" d="M211 78l28 97 5-58z"/><path fill="#cf9259" d="M226.5 26.7l-38-1.4 1-26 38 1.4z"/><path fill="#2d4a57" d="M32 42h9v20h-9z"/><path fill="#594d47" d="M211 64.8l1-28 13 .4-1 28z"/><circle r="1" fill="#afa0a1" transform="matrix(-72.54578 18.22224 -3.27703 -13.04639 9.3 78)"/><path fill="#2c2a2d" d="M29 89h14v37H29z"/><path fill="#c3af9f" d="M226 0h10v62h-10z"/><path fill="#7a695a" d="M159 62l-55-30 64 7z"/><path fill="#160400" d="M17 163h7v7h-7z"/><path fill="#9a7d6c" d="M262 14l5 81-53-5z"/><path fill="#fffeff" d="M20.1 0l44.5 9.1 8.2 7.4L-16-5.7z"/><path fill="#7f88ae" d="M177 124l22-16-15-3z"/><path fill="#654c39" d="M192.8 104.7l4.4-41.8 4 .4-4.4 41.8z"/><path fill="#c28869" d="M45 86h5v34h-5z"/><path fill="#2f2c2b" d="M209.7 73.8l-7.1 63.5-21.9-12.3 37-20.9z"/><ellipse cx="144" cy="138" fill="#867268" rx="15" ry="9"/><path fill="#aea3a5" d="M67 85h9v32h-9z"/><path fill="#a87550" d="M91 128l20-2-9 15z"/><path fill="#846956" d="M167 79.3l17 18.2-25 23.2-17-18.2z"/><path fill="#977052" d="M151.1 23l-93-34 120 17.6 66.6-5.4z"/><path fill="#2a1c1f" d="M135.7 106.4l-13.4 51.5-10.8-19.7 43.5-23.3z"/><path fill="#cfbeb3" d="M44 0h6v58h-6z"/><circle r="1" fill="#a8a3a3" transform="matrix(2.33391 9.72182 -13.36617 3.2088 94.3 169)"/><circle r="1" fill="#fffeff" transform="matrix(-56.757 -13.64871 .23381 -.97228 99.4 19.8)"/><path fill="#342f2d" d="M111.9 123l25.4-20.7-60.9 7.9-16.1 24.5z"/><ellipse cx="186" cy="30" fill="#fbf3ff" rx="43" ry="2"/><path fill="#6d7777" d="M54 44h25v13H54z"/><path fill="#a69a8d" d="M166 32h46v20h-46z"/><path fill="#aea29b" d="M20 20l47-4-83-20z"/><path fill="#867773" d="M49.5 96.5l26.9-26.1-20.9 52.1 20.4 1.5z"/><path fill="#635142" d="M55.9 116.9l110.7-23.3 13.6-15.1-48.1 5.8z"/><path fill="#524134" d="M227.7 123.1l-16-48-43.8 37.4 28.2-9.2z"/><path fill="#e2ddce" d="M136 67h4v20h-4z"/><path fill="#d8d2d2" d="M185 2.5h-24v-5h24z"/><path fill="#d5c6af" d="M119.3 7.2l.2 2-40.8 3.6-.2-2z"/><path fill="#e3cfda" d="M149 64h28v11h-28z"/><path fill="#9c887b" d="M108.4 85.3l-.6 15.3 24-18.7 17.5-44.6z"/><path fill="#22180d" d="M171 126l-2 25h-13z"/><ellipse cx="217" cy="131" fill="#896e62" rx="23" ry="3"/><circle r="1" fill="#d2d7cc" transform="matrix(1.12732 -5.30218 10.94064 2.32614 216.5 74.5)"/><path fill="#664e3b" d="M146 60h3v43h-3z"/><path fill="#a28169" d="M164.7 66.9l34.6-17.4.1 8.1 59.5 7.1z"/><path fill="#b7afaa" d="M160.2 96.7l11.5-7.1 3 13.4 31-32.8z"/><ellipse cx="183" cy="25" fill="#e0b38b" rx="49" ry="2"/><ellipse cx="230" cy="103" fill="#a57f68" rx="5" ry="38"/><ellipse cx="81" cy="63" fill="#b6adae" rx="39" ry="8"/><path fill="#816353" d="M49.8 55.1l4.6 79.6 4.2 19.1-9 1.6z"/><path fill="#614e43" d="M103 125L87 78l15-5z"/><path fill="#92878a" d="M242 171l29 8-26-52z"/><path fill="#6d4a37" d="M152.5 105.9l3.2-40.7 2.8 19.4 1.3 73.6z"/><path fill="#fffcfd" d="M199 26h26v5h-26z"/><path fill="#b1bcc2" d="M12 48l-23-23 25 5z"/><circle r="1" fill="#635e64" transform="matrix(-.73 -25.39484 1.67524 -.04816 0 50.6)"/><path fill="#8f1028" d="M90 143l-42 17 15 25z"/><path fill="#b8aaa8" d="M69.5 23.7l1.2-5.8 63.8 12.4-1.2 5.8z"/><path fill="#918b88" d="M24 143.9L12.4 185l-7.9-26.5 49.9 15.7z"/><path fill="#736e75" d="M107 35h25v20h-25z"/><path fill="#2a2625" d="M57 123h13v27H57z"/><path fill="#4d3c32" d="M227 132l-38-21 37-1z"/><path fill="#c3afa5" d="M120 28h4v35h-4z"/><path fill="#44332f" d="M-4 94.2l-12 16.9 36.2-12.4-4.5-6.2z"/><path fill="#afa69f" d="M89.4 50.2l-5.8-25.5-11.8 20.4 40.2-6.4z"/><path fill="#d5cdbe" d="M129 68h3v19h-3z"/><path fill="#3f4564" d="M193.8 185l-15-48.7 23.3-6.5-6.7 12.1z"/><path fill="#745549" d="M175 37h51v3h-51z"/><circle r="1" fill="#bbbbc5" transform="matrix(-115.06474 9.07973 -.1139 -1.44352 16 64.8)"/><path fill="#beb7b6" d="M187.7 78.8l-38 31.9L175.8 84l12.9 4z"/><path fill="#939199" d="M137 129l-5 21-2-11z"/><path fill="#86563a" d="M163.4 164l7.1 14.9-.7-29.3-17 12.7z"/><path fill="#986744" d="M72 144.6l-1.8-2.4L96 123.4l1.7 2.4z"/><path fill="#76655a" d="M171 60h2v44h-2z"/><path fill="#3b2525" d="M128.1 136.3l-7.8-10.4 21.6-16.2 7.8 10.4z"/><path fill="#1f170e" d="M8 178.7l-11.8 2.2-4.2-21.6 11.8-2.2z"/></g></g></svg>