<svg xmlns="http://www.w3.org/2000/svg" viewBox="0 0 1800 1200"><defs/><filter id="a"><feGaussianBlur stdDeviation="12"/></filter><rect width="100%" height="100%" fill="#374156"/><g filter="url(#a)"><g fill-opacity=".5" transform="translate(3.5 3.5) scale(7.03125)"><circle r="1" fill="#fff" transform="matrix(31.07744 78.09417 -154.24796 61.38272 113.7 15.5)"/><ellipse cx="95" cy="42" fill="#e4f1fa" rx="99" ry="65"/><circle r="1" fill="#92a0ad" transform="matrix(1.0872 -25.9398 143.03407 5.9949 228 138.1)"/><path fill="#425368" d="M213 180L89 88l-103 97z"/><path fill="#0f1822" d="M165.5 100.7L157 91l75.5-65.6L241 35z"/><circle r="1" fill="#d8e5f0" transform="matrix(114.01878 -48.3981 15.47961 36.46768 206.2 0)"/><path fill="#000002" d="M83.7 98.1l-9.8 15.1 28.9-5-17.5-26.7z"/><circle r="1" fill="#d9dcdb" transform="matrix(-2.77867 -23.6537 60.97001 -7.16233 31 84.2)"/><path fill="#a7acb5" d="M256 145l-115-32h120z"/><ellipse cx="29" cy="114" fill="#4c5868" rx="106" ry="7"/><ellipse cx="150" cy="78" fill="#efeee9" rx="10" ry="23"/><path fill="#fffffb" d="M40.5 10.3L-31 29.4l-9.5-35.7L31-25.4z"/><circle r="1" fill="#292c2d" transform="matrix(-44.53245 -1.1194 .589 -23.43193 209 89.5)"/><circle r="1" fill="#98acc7" transform="matrix(-63.7051 47.6575 -11.61728 -15.52914 45.5 32.9)"/><ellipse cx="115" cy="85" fill="#e5e3df" rx="20" ry="25"/><circle r="1" fill="#9bafc9" transform="matrix(-62.59197 -33.28074 8.07095 -15.17925 131.2 0)"/><circle r="1" fill="#3d4752" transform="matrix(-6.59675 -11.63366 32.3716 -18.35599 221.5 51)"/><ellipse cx="237" cy="169" fill="#8b97a4" rx="29" ry="6"/><circle cx="137" cy="100" r="6" fill="#0d0e13"/><circle r="1" fill="#536175" transform="matrix(-16.08835 20.37138 -58.52779 -46.22246 150 156.8)"/><path fill="#f3f0eb" d="M154 26L66 10l65 48z"/><circle r="1" fill="#c9d7e4" transform="matrix(-39.44159 -10.37663 6.24909 -23.7528 218.9 4.7)"/><path fill="#cbced1" d="M0 72h82v35H0z"/><path fill="#dbdcdc" d="M194.1 62.6l-77.4 42-17.6 4.4.3-32.7z"/><path fill="#11141c" d="M98 110l-29 1 28-20z"/><circle r="1" fill="#46556a" transform="rotate(-69.1 148.3 -4.8) scale(13.90129 68.87895)"/><path fill="#b8c7d5" d="M137 67l86-31-48-34z"/><path fill="#303237" d="M156.2 89.3l26 .4-.4 23-26-.4z"/><path fill="#63758b" d="M179 154l-73 3 34 17z"/><ellipse cx="191" cy="163" fill="#27333e" rx="19" ry="6"/><path fill="#39404c" d="M236.3 28.5l-7.2-.4 26.1 55.5-92.6 1.9z"/><path fill="#292c2f" d="M125 104h131v9H125z"/><ellipse cx="132" cy="114" fill="#87909f" rx="71" ry="2"/><path fill="#e0e1e0" d="M140 62l19 40-43-17z"/><ellipse cx="169" cy="133" fill="#637185" rx="33" ry="18"/><path fill="#bebec0" d="M241.2 114.6l29.8-1.4-22.9 12.1-18.5-1.9z"/><path fill="#a6b6cb" d="M-16 49l91 14L85-3z"/><path fill="#f1ece7" d="M16.5 30.9l7 9.5-30.4-7.2L4.5 22z"/><path fill="#eeece9" d="M49.5 72.1l-18-14.4 111 18.2-100.3-4.8z"/><path fill="#bdc4cb" d="M59 37.1l-75 72 38.6 5-23.6-.4z"/><path fill="#3c4551" d="M271 57l-57-19-25 22z"/><path fill="#f4f2ed" d="M257.7-3.7l-.4 11-45-1.6.4-11z"/><path fill="#273749" d="M2.6 154.7l-7.6-9.2 45.7-4.7L65.8 159z"/><path fill="#546884" d="M85.7 168.4l-75.1 3 21.9.2 36.8-13.1z"/><path fill="#495360" d="M263 46l3-39-48 46z"/><path fill="#eaebec" d="M73.1 24.3L70 13.7l19.3 5.2-14 7.4z"/><path fill="#4c5a6e" d="M223 136h28v4h-28z"/><path fill="#2d323d" d="M87.4 85.6l5 3.5 4 3.9-17 19.2z"/><path fill="#c5cbd0" d="M178.3 39.2L-16 110.5l98.9-5.1-.3-18.1z"/><path fill="#bbc9d8" d="M194.3 23.1L206.9 46l-27.2 15-12.6-23z"/><ellipse cx="103" fill="#9eb2ce" rx="58" ry="12"/><path fill="#2a3746" d="M117 140l-26-9 30-1z"/><path fill="#9cabbe" d="M16.3 75.8l17-31.5-48.8-11.4-.5 26.2z"/><path fill="#606e82" d="M207.4 117.5l28.3 9.7-14.5 2.1-17.6-1.4z"/><ellipse cx="185" cy="98" fill="#2f3540" rx="30" ry="15"/><path fill="#e4e5e4" d="M98 29h60v26H98z"/><ellipse cx="213" cy="132" fill="#bcbcc0" rx="15" ry="2"/><path fill="#62738a" d="M73 147h50v4H73z"/><path fill="#3c4150" d="M7 110h66v2H7z"/><path fill="#b6c6d6" d="M235.9 24.5l4-23.5-97.3 50.9 76.3-13z"/><path fill="#a9a9b2" d="M225.4 147.3l12.6-1.2 33-7.5-30.7 2.4z"/><path fill="#f8f9f3" d="M207 16.5l-16.9-2 .9-7 16.9 2z"/><path fill="#49586a" d="M205 153l-6 19 32-11z"/><path fill="#242f3e" d="M186.5 152.3l-67 2.4v-1l67-2.4z"/><path fill="#171f23" d="M148 168h24v2h-24z"/><path fill="#cdd1d3" d="M138.4 87.7L82.8 70.2l21.9 37 44.1-16.7z"/><path fill="#233141" d="M89.4 148.6l41.5 7.9-13.2-4.4-55 2.9z"/><path fill="#2b313a" d="M186 77h70v36h-70z"/><circle r="1" fill="#bcc5d1" transform="matrix(1.01529 -6.63169 35.4874 5.433 22.8 21.2)"/><path fill="#abbdd1" d="M73 25h23v16H73z"/><path fill="#262c37" d="M136.1 94.3l13.2 7.3-3.4 6.1-13.2-7.3z"/><path fill="#ced6db" d="M155 92l29-33-52-31z"/><path fill="#373e4a" d="M179 79l19-29 73 33z"/><path fill="#eeeeed" d="M115.1 54.8L93.5 17.3l30.4-7.1-12.3 14z"/><path fill="#637c9c" d="M32 129h23v3H32z"/><path fill="#6e788a" d="M136.5 139.3L150 136l3.4 14.6L140 154z"/><path fill="#b6c1cd" d="M39.7 67.9l-53.9 3.9 43.1 3.4 82.7 10z"/><path fill="#36475a" d="M-8.3 74.2l-7.7 78.2 90.9-38-75.2-.8z"/><path fill="#b4c3d5" d="M147.2-16l109.1 33-95.1 17.1 89.9-6.4z"/><path fill="#c2bbb9" d="M213 167h8v3h-8z"/><ellipse cx="202" cy="115" fill="#a4aab3" rx="35" ry="2"/><path fill="#1d252d" d="M61 144h47v2H61z"/><path fill="#3a4656" d="M231.7 32.3l8.5-3.6 8.1 6.7-17.9-6.2z"/><ellipse cx="122" cy="62" fill="#b8c5d3" rx="46" ry="6"/><path fill="#e2e3e5" d="M39-14v28h-52v-28z"/><path fill="#727d8e" d="M116.7 151.2l50.1-23.3L183 140l45-25.1z"/><path fill="#353942" d="M105.2 113l38.6-13.4-11.4-4.2 50.5 14.7z"/><ellipse cx="9" cy="160" fill="#4b5d72" rx="20" ry="5"/><path fill="#9495a1" d="M94 116l6-9 7 1z"/><path fill="#546378" d="M136.1 130.4l107.9 25-56.3-19.1-17.3 22.5z"/><path fill="#5d7089" d="M59 163h61v2H59z"/><path fill="#2f3d4e" d="M58.6 172.7l70.1-10.5 1.1 22.8 31.4-10.2z"/><path fill="#f3f2ed" d="M95.4 47.7l-17.8-6.5 1-2.9 17.8 6.5z"/><path fill="#0f1a26" d="M24 161h21v2H24z"/><ellipse cx="176" fill="#f0f3f3" rx="7" ry="5"/><path fill="#d9e0e2" d="M201 44l-19 24-6-8z"/><path fill="#767e8c" d="M203 154l-9 7-16-23z"/><ellipse cx="95" cy="117" fill="#56657d" rx="36" ry="4"/><path fill="#dadcdc" d="M153.2 100.8l-13.5-3.9 9.1-31.7 13.5 3.9z"/><path fill="#3a4250" d="M212 39l-60 66 100-62z"/></g></g></svg>