<svg xmlns="http://www.w3.org/2000/svg" viewBox="0 0 1800 1200"><defs/><filter id="a"><feGaussianBlur stdDeviation="12"/></filter><rect width="100%" height="100%" fill="#2b4054"/><g filter="url(#a)"><g fill-opacity=".5" transform="translate(3.5 3.5) scale(7.03125)"><ellipse cx="67" cy="35" fill="#f4e9d8" rx="255" ry="70"/><ellipse cx="115" cy="108" fill="#908c84" rx="143" ry="82"/><path fill="#f6f2e3" d="M-16 72l171 1-120 32z"/><circle r="1" fill="#4f5d6d" transform="matrix(7.16345 -38.23904 113.68562 21.29713 243.7 49.6)"/><circle r="1" fill="#2a343b" transform="matrix(58.23957 -15.96072 5.74587 20.96629 97.5 112.4)"/><ellipse cx="35" cy="2" fill="#fff" rx="255" ry="4"/><path fill="#d4cbb7" d="M114.7 151L78 186.2 61.3 169 98 133.7z"/><path fill="#cccfca" d="M57.8 113.8l48.6-15.1-77.3 15.1-45.1 30.7z"/><circle r="1" fill="#c0c4c0" transform="matrix(1.66375 12.6374 -77.6907 10.22817 0 65.2)"/><circle r="1" fill="#010400" transform="matrix(-10.79813 -14.75128 27.50936 -20.1372 241.5 165.4)"/><circle r="1" fill="#3d464f" transform="matrix(-75.2563 -11.11288 2.92935 -19.83751 202.4 120.3)"/><circle r="1" fill="#a3988a" transform="matrix(25.71375 3.10404 -2.1271 17.62086 192.3 158.3)"/><path fill="#354a5c" d="M14.8 49.5l31.4-10.9 46.2-6.4 15.7 10.9z"/><ellipse cx="186" cy="27" fill="#0c1d28" rx="45" ry="3"/><path fill="#c2c8c6" d="M11 16h62v21H11z"/><path fill="#6e7376" d="M-16 48.4v19l64.7 2.8L3 84.5z"/><circle r="1" fill="#323b41" transform="rotate(63.1 -80.7 117.3) scale(19.92826 35.12752)"/><path fill="#c5c4bb" d="M139.2 41.5l15 6.2-83.1 12.5 92-31.6z"/><path fill="#898883" d="M70.9 136.7L-16 159.9l92.2-32.4 84.9 23.8z"/><circle r="1" fill="#1e282f" transform="rotate(166.3 59 66) scale(50.92288 6.51699)"/><ellipse cx="58" fill="#fbf7f0" rx="93" ry="7"/><path fill="#999b98" d="M165.8 110.3l10.5 3.8L54 170.7l67.3-37z"/><circle r="1" fill="#505f6b" transform="matrix(-20.66025 -16.0175 27.867 -35.94441 238.3 93)"/><path fill="#d3d0c8" d="M119 73l56-3-52 23z"/><path fill="#1b2832" d="M78 98l41-19-13 15z"/><path fill="#979a9c" d="M240.7 48.5l-97.3 12-2-17 97.2-12z"/><path fill="#a8b1b1" d="M-7.9 133.5l60-45.1-16.4 47.5 9.4-18z"/><ellipse cx="125" cy="166" fill="#26221c" rx="19" ry="7"/><circle r="1" fill="#929da1" transform="matrix(7.46972 6.44255 -11.64136 13.4974 0 159)"/><path fill="#3c464e" d="M21 54h27v5H21z"/><path fill="#d5d2c6" d="M70.7 101.2L-16 89.5l90.3-16.8 74.8-5.5z"/><path fill="#dfe2e0" d="M205.8 164.7l3.2 14.6 7.6-20.3 12.6-12.9z"/><path fill="#2e3940" d="M76.9 99.7l-55 66.8-12.5.3L53.9 104z"/><path fill="#0e1d29" d="M74.5 117.5l1.2 3.8-82.2 25.2-1.2-3.8z"/><path fill="#40515f" d="M-16 89.9L1.6 69.1-16 120.2l57.5-15z"/><path fill="#b6b3af" d="M97 15h30v32H97z"/><path fill="#cfcec5" d="M100.8 64l51.4-13.2-88.1 38.6 65.6-7.1z"/><path fill="#323a42" d="M125 27l19-12 32 12z"/><path fill="#a7b5c3" d="M108 91l17 3-36 6z"/><path fill="#060f12" d="M91 141l-32 12 16-16z"/><path fill="#878f91" d="M75.6 128l5 5-22.2 23-5-5z"/><path fill="#847d71" d="M163 142L60 180l54-39z"/><path fill="#cbc9be" d="M23 60.6l49.4 49.2-42.6-27 48.8-30.7z"/><path fill="#a8aaac" d="M219 95l-82-5 29-19z"/><path fill="#d6d0bf" d="M97.4 142.4l-2.7-.2L53.6 185l46.7-33z"/><path fill="#333538" d="M172.8 127.6L160.4 140l24.4-.1 25.4-42z"/><path fill="#979fa4" d="M48 110l45-8-18 11z"/><path fill="#eeeee1" d="M46 115l-33 17 22-20z"/><path fill="#cdd3ce" d="M.4 62l10.9-27.3-27.3 5.2 47.6 14.6z"/><ellipse cx="123" cy="70" fill="#000712" rx="5" ry="2"/><path fill="#5b5d5f" d="M91.7 63.1l-37 4.9 78.2-18.1 32.3-.2z"/><path fill="#2d4354" d="M12.6 44.2l-.6-3 25.4-5.4.6 3z"/><path fill="#aba296" d="M160.5 132.4l1.6-8.8 13.6-3 3.4 1.4z"/><path fill="#313e47" d="M93.9 35.5l8.8 3.6-49.6 5.3L90 29.1z"/><circle r="1" fill="#84909f" transform="matrix(-.61753 -6.78554 70.90105 -6.4525 213.4 8.3)"/><path fill="#37434e" d="M184.9 60.3l11 1.4 31.2-.7-28.9-7.1z"/><path fill="#2b3540" d="M92 89h30v6H92z"/><path fill="#20282d" d="M107.3 104.5l38.9 24 1.7-9.1-10.2-14.7z"/><ellipse cx="245" cy="30" fill="#364856" rx="52" ry="3"/><path fill="#5b6973" d="M206.5 85.1l-28.6 2L271 49.8v37.6z"/><path fill="#929fa7" d="M44.3 127.8l-17.4 13-41.2 18.1L6.3 148z"/><circle r="1" fill="#8c99ad" transform="rotate(-72.3 107.3 69.4) scale(1.16387 122.95705)"/><path fill="#ced1c8" d="M66 55l34 7-5-9z"/><path fill="#1c2730" d="M154 36h22v4h-22z"/><path fill="#9a968b" d="M161.1 185l32.2-16.9-10.3-25.5 26.9-10.4z"/><path fill="#dde0db" d="M-3.6 38.6l-12.3-26.4 1 36.2 50-14.2z"/><path fill="#4c4d4c" d="M266.6 125.8l-110.7 39.6 27.2-1.5 23.8-27.9z"/><ellipse cx="74" cy="67" fill="#656867" rx="18" ry="7"/><path fill="#e4decf" d="M124.8 104.1l-.2-1 16.6-3.2.2 1z"/><path fill="#364655" d="M148.9 128.5l39.3-29.7 82.8-5.6-66.2 11.3z"/><path fill="#11181b" d="M45 117h33v10H45z"/><path fill="#beb8b1" d="M104.2 39v-1l65.6-7v1z"/><path fill="#c5c9c5" d="M53 56.8l-3 7.4 43.6-19.3-50.7 6.7z"/><path fill="#070f15" d="M22.9 156.7l2.3 4.4-16 8.2-2.4-4.4z"/><path fill="#7a8389" d="M30.7 90.2l17.6 19.5-64.3 19.6L2.9 141z"/><path fill="#5f6d76" d="M-7 37l35-6-28-3z"/><path fill="#706d6c" d="M215.3 140.1l-24.1 27.1 33.3-16.5 46.5-17.8z"/><ellipse cx="43" cy="8" fill="#a6aeb0" rx="77" ry="3"/><path fill="#404d54" d="M22 68.2l10.6 4.6L45 77l-22.7-4.1z"/><path fill="#494e55" d="M79 21h27v3H79z"/><path fill="#e6f4ff" d="M158.1 115.7l-8.9 8-1.3-1.4 8.9-8z"/><path fill="#677785" d="M196 6h60v21h-60z"/><path fill="#616264" d="M150.5 56l1.9-9.5 14.7-5.6 10.7 7.9z"/><path fill="#47545b" d="M3.9 73.1l13.3 5.3-33.2-2.8v2.5z"/><circle r="1" fill="#938c80" transform="matrix(.22077 1.40979 -39.77418 6.22847 112.8 132)"/><path fill="#415667" d="M35 40l-40 8 20-10z"/><path fill="#78899b" d="M160 107l-1-31 13 22z"/><path fill="#475157" d="M152 98l-10 16-9-31z"/><path fill="#aaaaa7" d="M114 37L75 25l71 1z"/><path fill="#ebe6d7" d="M71 91l5-18-56 16z"/><path fill="#34434d" d="M70.8 157.8L39 162l5.2-5 9.2-27.6z"/><path fill="#e5ecea" d="M0 20l15 2 4-5z"/><circle r="1" fill="#a2a5a8" transform="matrix(-61.5712 -2.25865 .03666 -.99933 189.7 35)"/><path fill="#dcdace" d="M-11.2 42.9l-4.8 9.9 49.6 17.3L7.9 52.5z"/><path fill="#716e6f" d="M124.5 68.6l41.3-1.8 23-21.2L150 62.5z"/><path fill="#6f7b85" d="M256 120l-16-18-26 2z"/><path fill="#27363e" d="M179 20l20 1-21 8z"/><path fill="#e2dccd" d="M81.4 94.4l.3 2-47 9.2-.4-2z"/><path fill="#2a3642" d="M102 154.4l-27.5 20-.5-.8 27.5-20z"/><path fill="#babdb9" d="M82.1 31.2l-25.9 6.4-2.9-29.3.3-1.8z"/></g></g></svg>