<svg xmlns="http://www.w3.org/2000/svg" viewBox="0 0 1800 1200"><defs/><filter id="prefix__a"><feGaussianBlur stdDeviation="12"/></filter><rect width="100%" height="100%" fill="#3b546b"/><g filter="url(#prefix__a)"><g transform="translate(3.5 3.5) scale(7.03125)"><circle r="1" fill="#9ba8c4" fill-opacity=".5" transform="matrix(254.88776 -7.5649 2.74663 92.54362 127.3 68.5)"/><circle r="1" fill="#5c6d7f" fill-opacity=".5" transform="rotate(-90.7 129.3 28) scale(38.37416 253.56228)"/><ellipse cx="83" cy="72" fill="#818fa6" fill-opacity=".5" rx="255" ry="33"/><ellipse cx="11" cy="104" fill="#977549" fill-opacity=".5" rx="61" ry="5"/><circle r="1" fill="#5876a2" fill-opacity=".5" transform="matrix(224.60775 -5.55328 .64335 26.0207 112.2 8)"/><ellipse cx="173" cy="155" fill="#576b80" fill-opacity=".5" rx="240" ry="16"/><ellipse cx="139" cy="35" fill="#6983a5" fill-opacity=".5" rx="193" ry="12"/><ellipse cx="33" cy="106" fill="#37322f" fill-opacity=".5" rx="34" ry="1"/><ellipse cx="3" cy="118" fill="#6d7c8e" fill-opacity=".5" rx="255" ry="11"/><ellipse cx="20" cy="99" fill="#8e8d85" fill-opacity=".5" rx="42" ry="5"/><path fill="#425247" fill-opacity=".5" d="M17 95h3v20h-3z"/><ellipse cx="202" cy="101" fill="#727f92" fill-opacity=".5" rx="138" ry="10"/><ellipse cx="52" cy="101" fill="#d9c09f" fill-opacity=".5" rx="8" ry="2"/><ellipse cx="221" cy="152" fill="#5a6d82" fill-opacity=".5" rx="119" ry="12"/><circle r="1" fill="#858fa9" fill-opacity=".5" transform="matrix(61.67763 1.53579 -.1679 6.7428 4.7 50)"/><path fill="#fff8d3" fill-opacity=".5" d="M10 98h6v3h-6z"/><path fill="#5e6f84" fill-opacity=".5" d="M0 141h51v22H0z"/><circle r="1" fill="#5b7399" fill-opacity=".5" transform="matrix(-198.09767 -1.1534 .03739 -6.42169 145.8 4.9)"/><ellipse cx="228" cy="166" fill="#3f576c" fill-opacity=".5" rx="105" ry="2"/><ellipse cx="124" cy="64" fill="#7588a5" fill-opacity=".5" rx="105" ry="18"/><path fill="#675649" fill-opacity=".5" d="M5 104.5h70v1H5z"/><path fill="#9b9694" fill-opacity=".5" d="M15.7 106.8l-1.4 13-6-.6 1.4-13z"/><path fill="#796d66" fill-opacity=".5" d="M-1.7 95.5l12 1-.6 6-12-1z"/><ellipse cx="45" cy="90" fill="#72829b" fill-opacity=".5" rx="32" ry="10"/><ellipse cx="18" cy="104" fill="#a48e7a" fill-opacity=".5" rx="12" ry="2"/><ellipse cx="229" cy="119" fill="#697b91" fill-opacity=".5" rx="171" ry="9"/><ellipse cx="84" cy="165" fill="#4c637a" fill-opacity=".5" rx="62" ry="8"/><path fill="#3f566c" fill-opacity=".5" d="M200 154h56v2h-56z"/><path fill="#5c6f83" fill-opacity=".5" d="M95 167h124v3H95z"/><ellipse cx="108" cy="149" fill="#546a80" fill-opacity=".5" rx="71" ry="4"/><circle r="1" fill="#7286a1" fill-opacity=".5" transform="matrix(1.6011 19.2648 -37.3328 3.10274 255 48.5)"/><path fill="#747d8a" fill-opacity=".5" d="M2.8 128l73.4-21.9-77.6 3.4-2.9-44.1z"/><ellipse cx="241" cy="91" fill="#7b8799" fill-opacity=".5" rx="83" ry="11"/><path fill="#5e7084" fill-opacity=".5" d="M151 135h105v18H151z"/><circle r="1" fill="#657c9a" fill-opacity=".5" transform="matrix(-69.43672 7.66589 -1.32062 -11.96205 208 23)"/><path fill="#6e7f98" fill-opacity=".5" d="M58.4 92.8l49.9 3.5-.7 9-49.9-3.6z"/><path fill="#647585" fill-opacity=".5" d="M164 156h92v2h-92z"/><ellipse cx="36" cy="103" fill="#b09a81" fill-opacity=".5" rx="36" ry="1"/><path fill="#5c5854" fill-opacity=".5" d="M5 96h3v6H5z"/><path fill="#75685b" fill-opacity=".5" d="M43.8 107.1l-1.1-.1 19.8-4.8-18.2.4z"/><ellipse cx="63" cy="162" fill="#627488" fill-opacity=".5" rx="46" ry="1"/><path fill="#7b8491" fill-opacity=".5" d="M45.2 90.3L11.6 92-16 78.1.4 99.6z"/><path fill="#61748c" fill-opacity=".5" d="M43 126h114v17H43z"/><path fill="#9c9da1" fill-opacity=".5" d="M2 88h4v8H2z"/><path fill="#6d83a1" fill-opacity=".5" d="M190.3 50l58.5-1.6-56-16.5L90.4 54.6z"/><path fill="#738599" fill-opacity=".5" d="M20 89h23v12H20z"/><path fill="#969595" fill-opacity=".5" d="M8 108h8v6H8z"/><path fill="#657c9f" fill-opacity=".5" d="M1.5 17.5h151v13H1.5z"/><ellipse cx="7" cy="102" fill="#7b6754" fill-opacity=".5" rx="21" ry="1"/><path fill="#637384" fill-opacity=".5" d="M12.5 130.1L-16 156.6l39.9-3.2-3.3-47.1z"/><path fill="#ae9c86" fill-opacity=".5" d="M26 102h40v1H26z"/><path fill="#6d7e96" fill-opacity=".5" d="M77 101h116v15H77z"/><circle r="1" fill="#6a7a8c" fill-opacity=".5" transform="matrix(1.74922 10.23337 -55.9597 9.56537 255 116)"/><ellipse cx="89" cy="159" fill="#40586f" fill-opacity=".5" rx="30" ry="1"/><ellipse cx="31" cy="50" fill="#838ea6" fill-opacity=".5" rx="68" ry="3"/><path fill="#7d8ba4" fill-opacity=".5" d="M200.3 53l-18.8 7.2-56.9-1.9 46.5-6.7z"/><circle r="1" fill="#607897" fill-opacity=".5" transform="matrix(79.7263 -1.91097 .19997 8.34285 238.8 8.4)"/><path fill="#657589" fill-opacity=".5" d="M0 157h65v2H0z"/><path fill="#475f75" fill-opacity=".5" d="M45 164h140v4H45z"/><ellipse cx="243" cy="167" fill="#3f5568" fill-opacity=".5" rx="17" ry="2"/><ellipse cx="9" cy="100" fill="#c2baa6" fill-opacity=".5" rx="1" ry="3"/><ellipse cx="135" cy="83" fill="#78879f" fill-opacity=".5" rx="105" ry="11"/><path fill="#495954" fill-opacity=".5" d="M18.1 96h1L18 110h-1z"/><path fill="#475e73" fill-opacity=".5" d="M258.5 149l-57 1v-1l57-1z"/><path fill="#54697f" fill-opacity=".5" d="M133.9 158.5l26.2 4.1-13.9-12.6-35.7 4.6z"/><path fill="#8d7662" fill-opacity=".5" d="M13 102.2l1.1-2.8 1 .4-1.2 2.8z"/><path fill="#7487a4" fill-opacity=".5" d="M70 45h55v29H70z"/><path fill="#c6b197" fill-opacity=".5" d="M38.4 104.1l-.3-1 9.5-3.2.3 1z"/><path fill="#607387" fill-opacity=".5" d="M131 137h83v11h-83z"/><path fill="none" stroke="#bbae9b" stroke-opacity=".5" stroke-width=".5" d="M14.8 99.6Q-5 107.8-16 93"/><path fill="#7385a1" fill-opacity=".5" d="M9.6 90.2L-16 91.5V57.1l92.1 4.4z"/><ellipse cx="213" cy="107" fill="#707f93" fill-opacity=".5" rx="54" ry="9"/><circle cx="44" cy="104" r="1" fill="#3d3834" fill-opacity=".5"/><circle cx="45" cy="105" r="1" fill="#27262f" fill-opacity=".5"/><ellipse cx="99" cy="36" fill="#6980a1" fill-opacity=".5" rx="106" ry="7"/><path fill="#556a82" fill-opacity=".5" d="M0 145h47v4H0z"/><path fill="#7f8ba0" fill-opacity=".5" d="M238 33l12-4 17 7z"/><path fill="#5c554e" fill-opacity=".5" d="M5 96l3 3-4 3z"/><path fill="#aa9781" fill-opacity=".5" d="M-7 103v-1l28 1v1z"/><path fill="#6c7889" fill-opacity=".5" d="M15 144l-31-24 25-10z"/><path fill="#615549" fill-opacity=".5" d="M49.5 104.3l.4-1 6.6 2.4-.4 1z"/><path fill="#657686" fill-opacity=".5" d="M208 151h48v2h-48z"/><ellipse cx="26" cy="105" fill="#5e5751" fill-opacity=".5" rx="7" ry="1"/><path fill="#8e8987" fill-opacity=".5" d="M8 95l-24 16 10-14z"/><ellipse cx="2" cy="162" fill="#596c80" fill-opacity=".5" rx="36" ry="5"/><circle r="1" fill="#74839b" fill-opacity=".5" transform="matrix(-.1474 5.09268 -94.73355 -2.74187 101.2 94.5)"/><path fill="#798393" fill-opacity=".5" d="M24 108h36v4H24z"/><path fill="#5c6f81" fill-opacity=".5" d="M231.9 165.3l30.2.2-13.6-2.3-125-12.7z"/><path fill="#7c7e82" fill-opacity=".5" d="M-10.5 138.7l25.8-38.2-6.7 7.8-24.6-5.5z"/><path fill="#65768d" fill-opacity=".5" d="M.3 125.2l-16.3 9.6 54.1 1.7 109.5-7.3z"/><ellipse cx="72" cy="152" fill="#617389" fill-opacity=".5" rx="74" ry="1"/><ellipse cx="80" cy="149" fill="#627389" fill-opacity=".5" rx="63" ry="1"/><path fill="#65737c" fill-opacity=".5" d="M15.1 98l-.6-.8 8.4-7.1.6.7z"/><path fill="#796d60" fill-opacity=".5" d="M4 102h24v1H4z"/><circle cx="34" cy="103" r="2" fill="#b9a58f" fill-opacity=".5"/><path fill="none" stroke="#7b7879" stroke-opacity=".5" stroke-width=".5" d="M58.9 116.4q4.1-14.8-14.5-14"/><ellipse cx="109" cy="136" fill="#546b82" fill-opacity=".5" rx="19" ry="1"/><path fill="#5e7183" fill-opacity=".5" d="M109 168h61v2h-61z"/><path fill="none" stroke="#7f756d" stroke-opacity=".5" stroke-width=".5" d="M60.1 105.9q-24.7-6.2-32.2-4.6"/><path fill="#50657a" fill-opacity=".5" d="M222 145h34v2h-34z"/></g></g></svg>