<svg xmlns="http://www.w3.org/2000/svg" viewBox="0 0 1800 1200"><defs/><filter id="a"><feGaussianBlur stdDeviation="12"/></filter><rect width="100%" height="100%" fill="#2f425f"/><g filter="url(#a)"><g fill-opacity=".5" transform="translate(3.5 3.5) scale(7.03125)"><circle r="1" fill="#9db9c9" transform="matrix(254.98848 2.42392 -.60666 63.81879 125.2 49)"/><circle r="1" fill="#ba9566" transform="matrix(2.13736 -19.64016 115.08662 12.52442 6.5 87.9)"/><ellipse cx="98" cy="112" fill="#462d0b" rx="73" ry="5"/><circle r="1" fill="#4973a3" transform="rotate(91.1 95 107.6) scale(31.53147 247.98003)"/><path fill="#697988" d="M169.8 113.8l.5-28 142 2.4-.6 28z"/><circle r="1" fill="#3f5871" transform="rotate(83.4 -61 94.4) scale(27.16369 96.64188)"/><circle r="1" fill="#6786a4" transform="rotate(-90.1 79.6 -29.6) scale(31.62927 106.51112)"/><circle r="1" fill="#5f5448" transform="matrix(-52.6238 -5.59774 .45852 -4.31049 0 72.4)"/><ellipse cx="29" cy="98" fill="#a99d8d" rx="54" ry="12"/><path fill="#564730" d="M-12.7 109.9l38.6-2.8 40 10.5-69.4-.1z"/><path fill="#a39684" d="M73 75l65 27-28 7z"/><circle r="1" fill="#627588" transform="matrix(2.65726 13.54416 -66.82975 13.11148 242.6 96.2)"/><circle r="1" fill="#4a6d91" transform="matrix(171.166 37.30135 -4.12805 18.94254 196.2 0)"/><ellipse cx="113" cy="107" fill="#6b6155" rx="55" ry="2"/><ellipse cx="132" cy="154" fill="#304b66" rx="77" ry="39"/><path fill="#b0ac9d" d="M89 66.7l-7.6 9-5.9 5.5L87.6 84z"/><path fill="#172c46" d="M101 143h81v4h-81z"/><path fill="#647589" d="M165 96h91v17h-91z"/><path fill="#465870" d="M51.4 157.1l4.3-41H-16L36.9 132z"/><ellipse cx="255" cy="168" fill="#223b52" rx="81" ry="16"/><circle r="1" fill="#393226" transform="matrix(-78.82634 .6879 -.02064 -2.36562 77.3 113.7)"/><circle r="1" fill="#57799a" transform="rotate(-76 119.8 -108) scale(20.43092 126.19586)"/><ellipse cx="99" cy="159" fill="#243a56" rx="47" ry="5"/><path fill="#76695a" d="M0 66h17v17H0z"/><path fill="#6e8498" d="M94 64h104v26H94z"/><path fill="#6483a3" d="M-16 13l6 51 181-8z"/><path fill="#3b5571" d="M140 150h79v8h-79z"/><path fill="#948a7c" d="M85 98h58v9H85z"/><path fill="#9e978a" d="M62.3 104.2l10.8 3.2-37.2 4.1-23.2-34.8z"/><path fill="#484542" d="M74.6 105.1l33.1 3.9-45.8 9.6 8.3-3.1z"/><ellipse cx="88" cy="168" fill="#485d76" rx="27" ry="3"/><ellipse cx="56" cy="117" fill="#525862" rx="71" ry="2"/><path fill="#2b465f" d="M192 114h64v44h-64z"/><path fill="#4e473d" d="M139.2 107.4l19.8 1.1 18.6 9.9-63.1-13.2z"/><path fill="#384f6c" d="M-7 118l198-2-138 43z"/><path fill="#817e75" d="M0 102h31v7H0z"/><path fill="#687789" d="M124 95l44-7 3 24z"/><path fill="#a79d8d" d="M3.8 81.7l-11.2-3.6L15 102.3l47.1 4.4z"/><path fill="#6b6863" d="M68.7 109.4l-7.6-7.4-7 10.6-37.3-3.8z"/><path fill="#989488" d="M109.1 92.5l-3.9 18.4 22.1-8.2 3.8-4.9z"/><path fill="#92887a" d="M36.2 90.6l-.7-9.4-15.1-17 39.4 33.6z"/><path fill="#3f3934" d="M50 110h84v2H50z"/><path fill="#504a3c" d="M24.5 71.5v3h-15v-3z"/><ellipse cy="113" fill="#2f2b26" rx="87" ry="2"/><path fill="#6f869c" d="M-2.6 53.7l134.5 2.8-69.1 22-67.1-16.1z"/><path fill="#3e526d" d="M15 146h92v10H15z"/><circle r="1" fill="#64819c" transform="matrix(-59.86399 -10.63317 3.12901 -17.6161 175.4 54.8)"/><path fill="#37506d" d="M143 137h87v5h-87z"/><path fill="#bdac91" d="M84 71h4v10h-4z"/><path fill="#1f3753" d="M177.5 129l-85 3v-1l85-3z"/><path fill="#35332e" d="M164.8 118l-.1-6.4-9.4-3.1-4.8 3.4z"/><circle r="1" fill="#5b7ca0" transform="matrix(1.40777 14.10404 -65.91162 6.57885 31 27)"/><path fill="#696154" d="M36 79h14v2H36z"/><path fill="#3c5572" d="M76 149h102v4H76z"/><ellipse cx="48" cy="120" fill="#4b5e75" rx="29" ry="2"/><ellipse cx="239" cy="104" fill="#5f7386" rx="36" ry="10"/><path fill="#ada395" d="M42 82.5v5h-8v-5z"/><path fill="#978d7e" d="M14 67h15v4H14z"/><path fill="#4d5c70" d="M7.1 164.1L69.3 185H23.6L-16 154.9z"/><path fill="#354c66" d="M192 168h64v2h-64z"/><path fill="#1c324f" d="M6 144h24v2H6z"/><circle cx="103" cy="98" r="4" fill="#7c766c"/><path fill="#6e8193" d="M153 105.6L83.2 82.1l8.9 1.7-8.7-21.3z"/><path fill="#9a8e7e" d="M95.5 91.1L89.3 111l12.1-12.6-87.5-19.8z"/><ellipse cx="46" cy="92" fill="#6d6659" rx="3" ry="2"/><path fill="#a09686" d="M6 79v28l28-13z"/><circle r="1" fill="#80766a" transform="matrix(.2706 -.9627 22.34521 6.28096 56.3 81.6)"/><ellipse cx="63" cy="100" fill="#9a9182" rx="5" ry="10"/><ellipse cx="241" cy="126" fill="#1e344e" rx="21" ry="2"/><circle r="1" fill="#4a6c90" transform="matrix(39.57487 6.48063 -2.3351 14.25957 239.3 .1)"/><ellipse cx="152" cy="133" fill="#3b5573" rx="40" ry="2"/><path fill="#1b304a" d="M171 164h69v2h-69z"/><ellipse cx="79" fill="#51749b" rx="106" ry="12"/><path fill="#445c76" d="M88 169h90v1H88z"/><path fill="#3b536f" d="M243 169.7l-.3 1-41.7-10.4.3-1z"/><path fill="#1c314a" d="M240.8 151.7l-12.9 1.8 16.2 8.2-11.8 1.8z"/><path fill="#938675" d="M131.6 105.6l17 1.8-.2 1-17-1.8z"/><path fill="#696356" d="M16 83l-4-8-2 9z"/><path fill="#304965" d="M178 114h36v31h-36z"/><path fill="#9e948a" d="M4.3 73l.4-3 7 1-.4 3z"/><ellipse cy="113" fill="#363127" rx="39" ry="3"/><path fill="#39526e" d="M100 157h57v2h-57z"/><ellipse cx="233" cy="159" fill="#142940" rx="29" ry="1"/><path fill="#293e59" d="M0 158h51v2H0z"/><path fill="#585755" d="M74 140.2l41.8-35.9 8.6 11-6.6-12.7z"/><path fill="#756c62" d="M103 111l4-2 3 1z"/><path fill="#11263e" d="M117 167h10v2h-10z"/><path fill="#182d47" d="M140 160h13v3h-13z"/><ellipse cy="148" fill="#4c5d72" rx="34" ry="2"/><path fill="#433e34" d="M88 115l11-9 10 9z"/><circle r="1" fill="#8b7e6c" transform="matrix(-23.29392 -3.92026 .20365 -1.21007 16.2 69)"/><path fill="#47617e" d="M188 156l-14-4h22z"/><circle r="1" fill="#534a41" transform="matrix(.16523 1.92738 -12.00235 1.02896 123 109.6)"/><ellipse cx="79" cy="80" fill="#a0a9ab" rx="5" ry="3"/><path fill="#aba597" d="M58 86.4l2.2 2L48 101.6l-2.2-2z"/><path fill="#6c869d" d="M3 63l79 15 1-21z"/><path fill="#1f3550" d="M85 144h19v2H85z"/><path fill="#1f3650" d="M187 134h44v2h-44z"/><path fill="#6e6b62" d="M13.4 103l4.9 1.2-1.7 6.8-4.9-1.2z"/><ellipse cy="122" fill="#4e5f74" rx="28" ry="2"/></g></g></svg>