<svg xmlns="http://www.w3.org/2000/svg" viewBox="0 0 1800 1200"><defs/><filter id="a"><feGaussianBlur stdDeviation="12"/></filter><rect width="100%" height="100%" fill="#544238"/><g filter="url(#a)"><g fill-opacity=".5" transform="translate(3.5 3.5) scale(7.03125)"><circle r="1" fill="#c7b2b3" transform="matrix(44.98021 114.18892 -225.82113 88.9533 139 112.2)"/><circle r="1" fill="#ffdbc8" transform="matrix(33.30973 -9.93006 68.44152 229.58251 243.2 101.6)"/><circle r="1" fill="#ff0813" transform="matrix(-28.89142 -40.93167 26.00586 -18.35611 190 80.3)"/><path fill="#003078" d="M93.2 126l-61.6 7.5L22.8 62l61.6-7.5z"/><circle r="1" fill="#144561" transform="matrix(-8.32998 74.26345 -17.91548 -2.00954 126 54.3)"/><circle r="1" fill="#776631" transform="matrix(11.6701 27.62699 -86.96541 36.73563 107.3 139.4)"/><circle r="1" fill="#3376b4" transform="matrix(11.73305 13.98643 -27.22686 22.84029 200 149)"/><ellipse cx="223" cy="27" fill="#d9ffff" rx="44" ry="11"/><circle r="1" fill="#dce3d9" transform="matrix(-27.73497 -5.90754 2.47438 -11.61682 7.4 102.1)"/><circle r="1" fill="#f5fbd4" transform="rotate(28.6 -204.5 550.6) scale(21.98524 63.90955)"/><path fill="#001528" d="M9 65h20v30H9z"/><path fill="#c3cdc9" d="M5 46.5L-1.8-16l1.3 84.3 135.4-33.7z"/><path fill="#3c3c2f" d="M221-2l-89 24 21 21z"/><circle r="1" fill="#5a4b51" transform="rotate(-83.4 28.1 -19.5) scale(31.82466 44.85202)"/><path fill="#e1ffd5" d="M165.5 9.5L141.1 12l19.2-28 34.6 29.4z"/><path fill="#416c82" d="M216.7 41.3l24.3-6.9 28.1 69.5-45.5-54.7z"/><circle r="1" fill="#bea64b" transform="matrix(4.03094 -17.88667 47.63038 10.73397 118.4 153.7)"/><ellipse cx="210" fill="#a1ae59" rx="32" ry="26"/><circle r="1" fill="#ff6a6c" transform="rotate(46.7 31.5 254.8) scale(32.45281 16.10235)"/><circle r="1" fill="#dabf8a" transform="matrix(-2.39064 80.549 -5.77217 -.17131 95.2 38.2)"/><path fill="#bb1d23" d="M148 52h42v48h-42z"/><circle r="1" fill="#f6ffff" transform="rotate(-21.4 239.6 -547.8) scale(6.46825 27.02217)"/><circle r="1" fill="#393c5a" transform="matrix(-43.78438 -15.21435 3.77954 -10.8769 153.7 118)"/><path fill="#2b578e" d="M13 120l73-38-62 103z"/><path fill="#fff" d="M237 102l-5-18h39z"/><path fill="#efffff" d="M244 52l26 28-11-57z"/><path fill="#ff4b52" d="M242 107l-72-84 35 104z"/><circle r="1" fill="#0f509a" transform="matrix(11.1491 1.66625 -4.17689 27.9482 119 81.6)"/><ellipse cy="124" fill="#c6b086" rx="12" ry="61"/><path fill="#bdd6d6" d="M149 72l-12 38-6-17z"/><path fill="#edffff" d="M144.7 43.8l6.7-2.3-.2.6-5.6 35.4z"/><ellipse cx="29" cy="5" fill="#af6a79" rx="8" ry="37"/><ellipse cx="177" cy="141" fill="#4e5c69" rx="19" ry="21"/><path fill="#6695c4" d="M203 185l47-86-56 47z"/><path fill="#1c63a8" d="M82.5 71.4l-8.4 32.7-27.8 14.7-15.1-43.7z"/><path fill="#232a24" d="M28 42L5 44 0 2z"/><path fill="#734b31" d="M123.2 155.7l-8-41.2 21.6-4.2 8 41.2z"/><path fill="#aeab98" d="M160 124.5l-4.2 34-20.4-35.8 40.4 16.6z"/><circle r="1" fill="#66778c" transform="matrix(-29.53759 13.46105 -1.4157 -3.10647 242.6 35)"/><circle r="1" fill="#6a6b60" transform="matrix(-17.92946 -3.64796 8.42957 -41.43075 125 22.3)"/><path fill="#ff7876" d="M242 114l-35-73-41-12z"/><path fill="#615756" d="M79.7-3.6L84 38.2l-51.8 5.4L28 1.8z"/><ellipse cx="193" cy="28" fill="#feffff" rx="15" ry="6"/><path fill="#2c3944" d="M138.7 42L171 26.6l-8.2-18.3-14.5 6.7z"/><path fill="#e2ffed" d="M145 15l21-9-18-10z"/><path fill="#3d3c30" d="M80 53h9v72h-9z"/><path fill="#ffffc8" d="M219 10l13-7-14 30z"/><path fill="#f7e485" d="M87 152.4l-6.8-11.1 12.9-7.7 6.7 11.1z"/><path fill="#e7ac5e" d="M105 124h12v34h-12z"/><path fill="#6c5535" d="M82.4 185l10.4-37.2 57.1-1.2-50.1-8.8z"/><path fill="#b81f2f" d="M171 133l32-43-27 8z"/><circle r="1" fill="#767e4f" transform="matrix(6.69778 -23.20502 41.30528 11.92216 56 162.5)"/><path fill="#657767" d="M271 85l-15-23-32 15z"/><path fill="#edc996" d="M100 17L88-7l2 44z"/><path fill="#3c3c3f" d="M11 64.2L87.4 55 89 67.8 12.6 77z"/><ellipse cx="205" cy="1" fill="#938f73" rx="16" ry="26"/><path fill="#fff" d="M222 37l39-15-25-1z"/><path fill="#b8c7e0" d="M15 97h15v25H15z"/><path fill="#b2b9bd" d="M26 61l69-11-21-11z"/><path fill="#596060" d="M231.9 59.9H227l-4.8-19.4 19.8 5.4z"/><path fill="#f43739" d="M165 29h13v35h-13z"/><path fill="#0f2033" d="M100 119l30-8-2-16z"/><path fill="#fff5ad" d="M169 161l-26-15 14 3z"/><path fill="#b5cbda" d="M159 121h18v3h-18z"/><path fill="#92985d" d="M243.6 10.8L163 .3 249-16l22 70.6z"/><path fill="#b45f6d" d="M26 8h37v8H26z"/><path fill="#988364" d="M98 0h11v117H98z"/><path fill="#ffffd9" d="M243 102l-21-21 33 3z"/><circle r="1" fill="#6d3b33" transform="matrix(23.19273 -22.82761 5.00326 5.08328 152.8 105.3)"/><path fill="#e9f8f5" d="M218.7 41.1L232 70.4l-40.3-40.5.2-16.6z"/><path fill="#3b557e" d="M231 127l-29 44 7-25z"/><path fill="#97a3ad" d="M164 99l-5 13 16-5z"/><path fill="#0f257e" d="M11.2 119.8l-.2-1 29.8-8.6.2 1z"/><ellipse cx="156" cy="73" fill="#ba2e2e" rx="10" ry="27"/><circle r="1" fill="#8fb8e3" transform="rotate(-107.7 157.2 -20) scale(3.86862 22.99173)"/><ellipse cx="159" cy="117" fill="#211b17" rx="19" ry="3"/><path fill="#283662" d="M11.9 139.2L46 126 35.9 91.2l-2.4 49.3z"/><circle r="1" fill="#fa4a53" transform="matrix(28.08423 -5.27106 1.52724 8.13716 216 109)"/><path fill="#f5d4ab" d="M5.2 56l-6 .7-4.4-42.8 6-.6z"/><ellipse cx="255" cy="158" fill="#f9edce" rx="10" ry="57"/><path fill="#edf2ac" d="M259.8 11.9l-51.6 6.7L235.7-.2l-8.4 21.6z"/><path fill="#465d76" d="M173 185l34-60-30-5z"/><path fill="#433a1f" d="M83 0h4v37h-4z"/><path fill="#606637" d="M99.9 162.6L62.1 185l1.4-29.7 43.7.1z"/><circle r="1" fill="#918d75" transform="matrix(-2.0814 -2.40284 15.93158 -13.80036 251.5 98.7)"/><path fill="#8cabcc" d="M199.8 168.8L186.2 185l19.6-42.5 18.3-21.6z"/><path fill="#293b38" d="M141 73l3 12-8-1z"/><path fill="#906e47" d="M108 140.3l-33.4-25.7 14 17.9-1.8-54.8z"/><path fill="#795c27" d="M151 144l-26 41 8-27z"/><path fill="#ffdf8e" d="M111.8 144.7l5.7 7-9.3 7.6-5.7-7z"/><path fill="#d7b76b" d="M160 185l-8.6-32.4-21.1 32.4 47.1-23.1z"/><path fill="#1a281c" d="M35 33h13v9H35z"/><path fill="#cef9f7" d="M152.7 45.9l-6.5-7.4.3 2.9-2.6 25.1z"/><path fill="#c07083" d="M25 17h8v29h-8z"/><path fill="#625750" d="M148.1 185l22.1-37.5 8.7 16.7-9.5-2.2z"/><path fill="#274052" d="M23 62l21 49L5 65z"/><path fill="#faffff" d="M251 32h5v30h-5z"/><path fill="#c0cb9e" d="M178.4-6.1l-6.5 22.4-27.5-25.8 56.9 30.7z"/><path fill="#ddbd65" d="M128.4 149.4l6 5.3-10.8 12-6-5.4z"/><path fill="#d3c49e" d="M244 106l-27 55 50-57z"/></g></g></svg>