<svg xmlns="http://www.w3.org/2000/svg" viewBox="0 0 1800 1200"><defs/><filter id="a"><feGaussianBlur stdDeviation="12"/></filter><rect width="100%" height="100%" fill="#4f382c"/><g filter="url(#a)"><g fill-opacity=".5" transform="translate(3.5 3.5) scale(7.03125)"><circle r="1" fill="#e7ffff" transform="matrix(1.98505 -65.5749 245.1691 7.42163 156 51.5)"/><circle r="1" fill="#520" transform="matrix(-17.06684 38.71085 -57.94701 -25.54767 151.5 84.5)"/><circle r="1" fill="#c7e4ff" transform="matrix(68.10216 13.55339 -40.11923 201.5884 17.7 80.7)"/><circle r="1" fill="#4a5662" transform="matrix(226.24796 1.99562 -.32278 36.59434 93.6 137.3)"/><circle r="1" fill="#8dc1fb" transform="rotate(-128.8 132.8 -26) scale(92.59084 35.63129)"/><circle cx="31" cy="60" r="42" fill="#f7fafc"/><ellipse cx="127" cy="17" fill="#97c8ff" rx="47" ry="26"/><circle r="1" fill="#e49341" transform="rotate(-85 119.3 -5) scale(16.29123 37.30568)"/><ellipse cx="40" cy="114" fill="#322d27" rx="47" ry="14"/><ellipse cx="173" cy="118" fill="#3d3329" rx="25" ry="87"/><circle r="1" fill="#bf7d37" transform="matrix(-12.41988 -18.41688 8.79767 -5.93293 218.5 110.5)"/><circle r="1" fill="#6a839f" transform="matrix(50.668 -12.44525 8.38718 34.14647 43.4 158.7)"/><circle r="1" fill="#a5713b" transform="matrix(18.37144 -8.10704 10.82993 24.5418 162.5 61)"/><circle r="1" fill="#6c97cf" transform="matrix(-86.92955 -12.45195 3.8471 -26.85742 227.7 15)"/><ellipse cx="228" cy="161" fill="#243957" rx="148" ry="33"/><circle r="1" fill="#d4d3c3" transform="matrix(-17.1204 6.76698 -9.95234 -25.17933 240.2 92)"/><circle cx="40" cy="49" r="53" fill="#d1dde9"/><path fill="#a8713e" d="M133.3 75.7l-3.7 51.9-46.9-3.3 3.7-51.9z"/><path fill="#c59460" d="M176 125l-51-17-57 19z"/><circle r="1" fill="#393530" transform="matrix(-7.62107 3.68417 -17.32437 -35.83717 186 67.6)"/><path fill="#f1b061" d="M202.6 105.4l26.6 12.5 5.8 6.4-12.6 5.2z"/><path fill="#3a3939" d="M223.5 101.5l-32.2-30.9 1.4 11.4 54.5 54.8z"/><circle r="1" fill="#afc5e2" transform="matrix(-56.62193 3.84563 -1.65436 -24.35834 71.4 24.1)"/><path fill="#e8eadf" d="M87.1 68.3l-3.6 34.8-70.6-7.4 3.6-34.8z"/><path fill="#7e5734" d="M178.9 52.4l-87.5-7.7-.7 9 20.4 71z"/><path fill="#b08250" d="M154.8 72.4l18.2 24 5.2-36.6 2.2-5.4z"/><path fill="#98b4d6" d="M62-16l118 4-42 63z"/><ellipse cx="193" cy="34" fill="#91b2d6" rx="16" ry="17"/><path fill="#3c343b" d="M101 128h85v42h-85z"/><circle cx="216" cy="64" r="21" fill="#a2bdd7"/><circle r="1" fill="#332c22" transform="rotate(115.8 58.2 118.4) scale(14.87198 23.69063)"/><ellipse cx="17" cy="141" fill="#8595a9" rx="33" ry="14"/><circle r="1" fill="#365067" transform="matrix(16.25082 14.98342 -30.89904 33.51269 238.4 152)"/><path fill="#493928" d="M152.1 116.6l6.8 29.8 11.4-55-30.5-32.1z"/><path fill="#6d4c2e" d="M39.6 128.9l34.8-.9 20.1-31.6L67.3 117z"/><path fill="#414a50" d="M22 99.4l-7.3-.4-25.9 38.4L52.4 111z"/><path fill="#fbf5e4" d="M-12 88.5L1.5 64 26 77.5 12.5 102z"/><path fill="#4d3f32" d="M125.7 42.8l.4-2.8-9.2-.8-17.5 60.3z"/><path fill="#0b1e35" d="M48 166h18v4H48z"/><ellipse cx="210" cy="85" fill="#d9e4e4" rx="2" ry="10"/><path fill="#0b0b0a" d="M165 30h11v5h-11z"/><ellipse cx="110" cy="92" fill="#da9c5a" rx="3" ry="18"/><circle r="1" fill="#c7d6e5" transform="rotate(-56.6 23.6 -5.4) scale(16.65775 94.88883)"/><path fill="#272725" d="M188 80h14v33h-14z"/><path fill="#250c0b" d="M211.3 99.1l5.3 17.2-2 .6-5.2-17.2z"/><path fill="#ffffd6" d="M26.5 116h2l1 14h-2z"/><path fill="#6a92c4" d="M275 42.2l-88.1-43L207-42.2l88.1 43z"/><path fill="#946b41" d="M130.3 48.1l45.2 31.8 10.7-9.1-19-36.6z"/><path fill="#ca9a67" d="M84 123h67v5H84z"/><path fill="#b9814a" d="M92 47h7v77h-7z"/><path fill="#c0996b" d="M215 121h41v4h-41z"/><path fill="#464a5b" d="M103 185l36-57H84z"/><circle r="1" fill="#8eadce" transform="rotate(127.9 94.5 74.5) scale(15.21207 57.46118)"/><path fill="#574235" d="M91 51h15l-8-10z"/><path fill="#c7c9c1" d="M200 75l56 42 15-31z"/><path fill="#343f4c" d="M55 102.1l17-1.2 1 13-17 1.2z"/><path fill="#292724" d="M168.4 99.8l-22.8-13-.9 7.4 13.6 17z"/><path fill="#354760" d="M-4 167l-12-13 42 9z"/><path fill="#e2e2d9" d="M-4.5 93.5l79.1 8.3 9.8 7.1-7.8-30.3z"/><path fill="#976d44" d="M149.7 128.7l-12.9-1.6 3.5-27.8 12.9 1.6z"/><path fill="#926d47" d="M122 38l-15 27V42z"/><path fill="#564136" d="M115.2 73.5l8.6 21.4-8.6 24.9.4-3.1z"/><path fill="#e09b50" d="M235 126l-17-7-4-19z"/><path fill="#8f6c44" d="M156 121l22-24-19 12z"/><path fill="#966b45" d="M100.3 84l2.2-13.2-15.6 5.5-2.4 46.5z"/><path fill="#c5d9ee" d="M93.9 41.3l2.9-8.5 11.3 3.9-2.9 8.5z"/><path fill="#3d3c3a" d="M239 117h17v5h-17z"/><path fill="#5b4b3b" d="M187 132l-15-55 19-7z"/><path fill="#7b8da1" d="M9 142h75v10H9z"/><path fill="#b5bfb5" d="M233.1 116.4l-14.3-23.9 41.9 12.8-2.6 12.5z"/><path fill="#ac804e" d="M167.7 86.9l-11.3-24.8 21.8 29.1-7.9 8.2z"/><path fill="#0f191e" d="M203 80h5v14h-5z"/><circle r="1" fill="#c5d4e1" transform="matrix(25.74374 -.45202 .27464 15.64173 67 66.2)"/><path fill="#352b22" d="M127 54l-1 22-4-11z"/><path fill="#a1bcd9" d="M150.3 37l-21 9.9-18.1-32 50.3 22.2z"/><circle r="1" fill="#1e2f43" transform="rotate(-176 98.4 75.9) scale(12.60801 31.90346)"/><path fill="#55463d" d="M32 125h51v4H32z"/><path fill="#51647b" d="M97 151H29l39 18z"/><path fill="#f9b45e" d="M202.7 99.9l5.6 13.9-1 .3-5.6-13.9z"/><path fill="#493f3a" d="M101 51h5v31h-5z"/><path fill="#675039" d="M161.5 41.5L147.6 33l28 27.1-.1-25.7z"/><path fill="#996a3e" d="M145.1 76.5l-12.2-18.8 2.5 55.9 33.9-92.5z"/><path fill="#dfa55b" d="M159.8 57.1l-3-.3 1.4-15.9 3 .3z"/><ellipse cx="172" cy="130" fill="#2f2727" rx="67" ry="3"/><path fill="#324a66" d="M200 131h56v26h-56z"/><path fill="#b2c1ca" d="M224.7 100.3L221 61.1l-18.1 21.1-7.5-14.9z"/><circle r="1" fill="#aac1db" transform="matrix(-52.27644 -31.73247 8.30363 -13.6795 65.6 5.9)"/><path fill="#5e636b" d="M0 102h77v4H0z"/><path fill="#cc9b68" d="M86 126l-1-15 17-8z"/><path fill="#919eab" d="M40 164.4l-20 2.8-22 2.4L49.6 185z"/><path fill="#8c98a6" d="M63.4 144.9l-73.5 4.1-5.9 13.5 26.6-4.8z"/><path fill="#1c2228" d="M170 36l16 14-13-22z"/><path fill="#192b3e" d="M232.4 158l-25.8 3.6 15.2 5.7 17.6 17.7z"/><path fill="#8fafd4" d="M146.8 15.6L166.5 31l-7.3 9.4L139.5 25z"/><path fill="#91b0d1" d="M207 65l-27-23 8-25z"/><circle r="1" fill="#cf9557" transform="matrix(-7.45145 -5.62932 1.78695 -2.36536 227.3 123.7)"/><path fill="#b88851" d="M148 43l-25 7 25 1z"/><path fill="#42321f" d="M147 76l-3-16-9-3z"/><circle r="1" fill="#dbe0dc" transform="rotate(164.1 29 50.7) scale(17.95401 7.0375)"/><path fill="#6a4e33" d="M162.2 79.9l-17 35.1.6-14.2 29.6-22.2z"/></g></g></svg>