<svg xmlns="http://www.w3.org/2000/svg" viewBox="0 0 1800 1200"><defs/><filter id="a"><feGaussianBlur stdDeviation="12"/></filter><rect width="100%" height="100%" fill="#2d425a"/><g filter="url(#a)"><g fill-opacity=".5" transform="translate(3.5 3.5) scale(7.03125)"><circle r="1" fill="#8eaaa3" transform="matrix(-173.60765 8.00414 -6.653 -144.30165 123 95.2)"/><circle r="1" fill="#2b4345" transform="rotate(-80.6 95.1 -5) scale(24.05664 63.90028)"/><ellipse cx="197" cy="142" fill="#5e89b6" rx="255" ry="30"/><circle r="1" fill="#ddb186" transform="rotate(-162.3 106.4 36) scale(46.46682 12.34411)"/><ellipse cx="86" cy="5" fill="#a39d8a" rx="44" ry="31"/><circle r="1" fill="#3f6164" transform="matrix(-6.86891 -23.95475 90.86017 -26.05373 167.2 33.2)"/><path fill="#192d30" d="M271 75.1v25.7l-46.1-.1-19.1-15.5z"/><path fill="#1a2f3d" d="M137.3 77.3l-37.1 5.9-3.8 28.7 41.6 3.8z"/><ellipse cx="247" cy="110" fill="#c5ac8f" rx="89" ry="6"/><ellipse cx="201" cy="69" fill="#707662" rx="107" ry="14"/><circle cy="65" r="49" fill="#4f6962"/><ellipse cx="223" cy="124" fill="#89a1b7" rx="249" ry="5"/><path fill="#c9a482" d="M214.9 76.9l-18.1 3.5-9.2 4.1-8.2 31.5z"/><circle r="1" fill="#446b88" transform="matrix(105.7151 8.33626 -1.16569 14.78254 43.2 146)"/><path fill="#c8b49b" d="M233 72.9l-6.6 2.3 44.6 2.5-20.5-14.5z"/><circle cx="149" cy="101" r="17" fill="#796c5a"/><circle r="1" fill="#aca180" transform="matrix(-39.85276 -5.18928 .60723 -4.66344 0 61.4)"/><path fill="#9a9275" d="M42.6 34.7l22.2-9.3-3 45.5-15.3-15.5z"/><path fill="#3471a8" d="M201 115h39v6h-39z"/><path fill="#516a6d" d="M103.4 83.2l101.1-17.1-172.2-5 38.1 70.2z"/><path fill="#cbb092" d="M84.3 19l17.8 13-6.4 9-17.8-13z"/><ellipse cx="43" cy="169" fill="#719cbb" rx="72" ry="6"/><path fill="#8b8e74" d="M191 49l52-1-52 33z"/><path fill="#e9bf8d" d="M180.8 111.4l-22.3-25.3 7.6-4.2 11.4 9.7z"/><path fill="#3e4e4e" d="M226 98l8 8-25-6z"/><path fill="#425e69" d="M121 55L93 9l87 44z"/><circle r="1" fill="#aca68d" transform="rotate(32.9 -16 7.7) scale(5.61577 40.79058)"/><path fill="#486067" d="M154.6 66l33.8 19.4-5 8.7-33.8-19.5z"/><circle r="1" fill="#537577" transform="matrix(-74.38955 -23.11363 12.93726 -41.63765 247 20)"/><path fill="#192f3e" d="M66 110h49v4H66z"/><path fill="#416269" d="M14 71l-23 41L93 99z"/><path fill="#909179" d="M-16.2 85.6l40.5-29.3 5.9 8-40.5 29.4z"/><path fill="#bca085" d="M178.7 90.6l36.7 19.5-14.1-24.3L207 77z"/><circle r="1" fill="#47666c" transform="rotate(-40.3 65.7 -23.1) scale(31.73488 13.00543)"/><path fill="#87928e" d="M114 20l53-27L15-6z"/><path fill="#cda374" d="M141 74h6v13h-6z"/><ellipse cx="105" cy="138" fill="#4a6a87" rx="114" ry="5"/><path fill="#d1b17e" d="M32 110h23v3H32z"/><ellipse cx="248" cy="114" fill="#ccc8b3" rx="79" ry="2"/><path fill="#52769d" d="M0 114h161v8H0z"/><path fill="#455f5c" d="M194.6 76.4l43.3-3-1.6-17.4-55.1 31.2z"/><ellipse cx="188" cy="94" fill="#958472" rx="34" ry="3"/><circle r="1" fill="#32484f" transform="matrix(.12563 5.35365 -32.90315 .7721 235.8 85.7)"/><path fill="#435f76" d="M50 124.9l-30.2 9.9 43.9.4-3-1.7z"/><path fill="#fdd09e" d="M158 84h15v7h-15z"/><path fill="#6e6a5c" d="M134 74l40 32-20 8z"/><circle r="1" fill="#6c7975" transform="rotate(138.9 22.8 63) scale(29.65192 3.48011)"/><path fill="#687766" d="M80 19l4 43-34 7z"/><path fill="#26404d" d="M146 114l-54-2 18-37z"/><path fill="#a4a9ab" d="M78.9 134.5l-28.4-6 .6-3 28.4 6z"/><ellipse cx="202" cy="126" fill="#849fb6" rx="85" ry="4"/><circle r="1" fill="#a0978b" transform="rotate(130.4 37.3 26.7) scale(7.08712 27.97073)"/><path fill="#335669" d="M148 76.4l28.2-6.6 1.8 7.8-28.2 6.6z"/><path fill="#2e4750" d="M242.6 79.6l18.5 20.5 7.6 16.9-37.8-22.9z"/><path fill="#eed0a0" d="M257.9 72l-2.5 5.4L248 74l2.5-5.4z"/><path fill="#b3a08b" d="M246 72.3l-45.6 11.4-.4-2 45.6-11.4z"/><path fill="#999277" d="M107 52l19 6-8-8z"/><circle r="1" fill="#998d7d" transform="matrix(28.09464 -2.46506 .31785 3.62257 185.2 111.7)"/><ellipse cx="242" cy="50" fill="#999980" rx="36" ry="2"/><circle cx="52" cy="41" r="4" fill="#d4b89d"/><path fill="#9c9584" d="M133 92h6v8h-6z"/><circle r="1" fill="#647c7d" transform="matrix(-5.51124 -3.40381 16.32024 -26.42472 200.5 23)"/><path fill="#b8a280" d="M156 81h5v24h-5z"/><path fill="#6c7e7b" d="M70 14L38 54v-70z"/><path fill="#667873" d="M25 91l31 18 31-4z"/><path fill="#435f69" d="M78 38h101v15H78z"/><path fill="#56727d" d="M98.2 6.1l21.9 34.3-30.2-25.9-11.1-26.9z"/><path fill="#4e6b6e" d="M176 50l95-45v38z"/><path fill="#757873" d="M233 94l-21 11-3-10z"/><ellipse cx="151" cy="149" fill="#5881a0" rx="86" ry="6"/><ellipse cx="29" cy="122" fill="#6e8da7" rx="160" ry="3"/><path fill="#253b45" d="M99.4 96.7l43.3-22.8-4.6 11.3.1 7.1z"/><path fill="#3a5b67" d="M46.8 109.1l-8.3-28.8 32.7-9.4 8.3 28.8z"/><ellipse cx="251" cy="58" fill="#4f6a63" rx="23" ry="8"/><path fill="#e3be92" d="M205.1 91.1l-2.7 2.9-11.5-11.1 2.7-2.9z"/><path fill="#1d3c4c" d="M150.7 104l-2.7-1.3 5.3-10.8 2.7 1.4z"/><circle cx="216" cy="96" r="4" fill="#b6b2a5"/><circle cx="192" cy="89" r="3" fill="#5d6264"/><path fill="#42636f" d="M158.3-5.7l1.2 63.5 37.4-42.6L113.7 53z"/><path fill="#426067" d="M50.1 48.8l-14 20.1-7.3-10.2L-16 40.6z"/><path fill="#dfc19e" d="M249 110l6-5h-10z"/><path fill="#fce1b1" d="M89 32h12v3H89z"/><circle r="1" fill="#77806b" transform="matrix(1.10882 4.61313 -22.06265 5.30302 53.6 62.5)"/><path fill="#526163" d="M251.3 60.3l-36 41.2 27 8.7-13.7 2.6z"/><path fill="#2b454f" d="M207.6 90.7l13.5 4.1 29.3 2.5-6.5-19.9z"/><ellipse cx="192" cy="118" fill="#496c8e" rx="219" ry="2"/><path fill="#477593" d="M251.9 152.5l-48.6-3.7L271 185l-80.1-12.8z"/><path fill="#5e6a66" d="M215.6 82.5l-11.2-10.9 8.2 30.2-3.9-7.4z"/><path fill="#998c79" d="M152 102l-4 9-5-26z"/><path fill="#cfb193" d="M184.4 115.4l-8.2-14 19.6 6.6-2.3-13.6z"/><path fill="#446169" d="M17 55.5L7.6 75.1l34.3-6.7L14.3 112z"/><path fill="#46564a" d="M161 101.4l1.5-2.6 10.5 5.8-1.5 2.6z"/><path fill="#9d9984" d="M-4.6 59.6L11.9 50 1.3 62.7l37.9-1.2z"/><path fill="#949278" d="M163 60h75v2h-75z"/><path fill="#172c3c" d="M48 133h15v2H48z"/><path fill="#3d6786" d="M132 164.3l-19.6-16.8 5.3 16.6 45.1-8.7z"/><path fill="#235058" d="M217 110h4v3h-4z"/><path fill="#6c93ad" d="M171 158h85v5h-85z"/><path fill="#8c8a7d" d="M61 12l38 15-35 10z"/><path fill="#caaa8c" d="M213.8 103.7l-25.8.2 16.8-9.8-11.4-14.7z"/></g></g></svg>