<svg xmlns="http://www.w3.org/2000/svg" viewBox="0 0 1800 1800"><defs/><filter id="a"><feGaussianBlur stdDeviation="12"/></filter><rect width="100%" height="100%" fill="#554e39"/><g filter="url(#a)"><g fill-opacity=".5" transform="translate(3.5 3.5) scale(7.03125)"><path fill="#adbfcd" d="M276.5 239.4l-254 22.3-21-239.1L255.5.3z"/><circle r="1" fill="#ddf0ff" transform="matrix(-105.59373 29.51629 -7.93627 -28.3918 186.3 74.7)"/><circle r="1" fill="#162929" transform="matrix(46.37832 -17.0639 9.67247 26.289 112.7 22.2)"/><ellipse cx="222" cy="243" fill="#6a5126" rx="56" ry="77"/><ellipse cx="73" cy="143" fill="#554e4d" rx="127" ry="23"/><path fill="#d5dde3" d="M-16 30L67 8l-8 50z"/><circle r="1" fill="#b7c8cb" transform="rotate(161.4 -7.6 46.2) scale(9.5629 57.02932)"/><circle r="1" fill="#56453a" transform="matrix(45.89278 -30.93357 14.42959 21.40762 20.3 175.4)"/><path fill="#2c3e42" d="M154 0h25v62h-25z"/><circle r="1" fill="#c7d6eb" transform="matrix(-32.66075 53.7175 -34.94278 -21.24554 255 67)"/><circle r="1" fill="#3d5351" transform="matrix(-23.07855 -6.75933 10.52098 -35.92207 218 10.3)"/><path fill="#b5b3ad" d="M151 153l33 62-77 56z"/><path fill="#f5feff" d="M205.2 51L190 62.6 170.8 37 186 25.5z"/><path fill="#093f66" d="M27 259l-12-29 82 24z"/><path fill="#344447" d="M246.3 16.9L19.3-16l43.1 92.3L48.2 8.7z"/><ellipse cx="94" cy="107" fill="#b4c1c1" rx="7" ry="55"/><ellipse cx="210" cy="74" fill="#e5ebf8" rx="75" ry="12"/><path fill="#53545c" d="M193 196l15-78-103-6z"/><ellipse cx="204" cy="102" fill="#81959e" rx="65" ry="18"/><path fill="#213228" d="M91.5 56.2l-9.4 6.6-33.7-8.1 31.1-12.3z"/><path fill="#fff" d="M52 8h11v31H52z"/><path fill="#b0b8b0" d="M34 91h18v60H34z"/><path fill="#fff" d="M127 46l23 10-14 17z"/><path fill="#cbd7cd" d="M176 106h8v58h-8z"/><path fill="#acc1cc" d="M4 90h89v12H4z"/><circle r="1" fill="#70654b" transform="rotate(140.6 60.6 165.5) scale(85.24584 50.90248)"/><path fill="#182633" d="M14-14l-30 28 35 16z"/><circle r="1" fill="#5e736b" transform="matrix(-83.92372 -10.60203 2.71125 -21.46177 4.4 67.3)"/><path fill="#fff" d="M20.9 32l19.9 2L39 50l-19.9-2z"/><path fill="#0a1a27" d="M80 104l-19 17-11-9z"/><path fill="#333e3f" d="M65 0h125v25H65z"/><path fill="#99978d" d="M132 140L10 223l133 44z"/><path fill="#5c1300" d="M209 89.9l-2 22.9-8-.7 2-22.9z"/><path fill="#14202a" d="M99 126h9v38h-9z"/><path fill="#475a4a" d="M109 42h20v29h-20z"/><circle r="1" fill="#4a493c" transform="matrix(2.3687 -43.81482 11.91505 .64414 20.1 171.5)"/><circle r="1" fill="#273a4a" transform="matrix(11.07933 -.34342 .44345 14.30665 168.3 128)"/><ellipse cx="109" cy="85" fill="#5c656b" rx="32" ry="4"/><path fill="#cad4e5" d="M121 103l-13-38-26-1z"/><path fill="#b2a798" d="M240.7 141.9l-42.8-4.2.1 21.5 42.1 14.5z"/><path fill="#394d41" d="M174.3 66.2l-14.6-10.6 10-13.8 14.6 10.6z"/><path fill="#d6deed" d="M160 29l46 12-34 2z"/><path fill="#d2dae8" d="M208.7 60l61.7-71 31 27-61.8 71z"/><path fill="#54615c" d="M154 40l-5 35-7-32z"/><path fill="#414b40" d="M45.5 55.1l6.7-67.2 4.4 20.3-18 22.9z"/><path fill="#0b5590" d="M146 259l31-35-72 47z"/><path fill="#514a44" d="M241 130h8v64h-8z"/><path fill="#726241" d="M4 271l-20-49 121 49z"/><path fill="#495d51" d="M217 50.9l-16.3-1.7L267.3-16h-59z"/><path fill="#bdc2b8" d="M107.4 43.9L95.1 59.2l2.3-9.9-3.7-7.6z"/><path fill="#c3c9d2" d="M133.8 9.8l20.5-19.9-2.5-5.9-18.9 18.2z"/><path fill="#b3c0bc" d="M112 78h4v88h-4z"/><path fill="#462425" d="M203.5 135.5v-55h3v55z"/><path fill="#6c6148" d="M174 169h82v27h-82z"/><path fill="#aeb5ab" d="M7.7 133.2l-23.7 48 47.3-77.1-35.4 6.9z"/><path fill="#3f2814" d="M40 119h4v29h-4z"/><path fill="#2d1d30" d="M65.5 124l3.9 24.6-8.9 1.5-3.9-24.7z"/><circle r="1" fill="#1967a6" transform="matrix(158.16886 67.09729 -1.31047 3.08917 7 226)"/><circle r="1" fill="#776748" transform="matrix(-17.66775 -30.15484 99.30144 -58.18081 203.3 255)"/><ellipse cx="4" cy="206" fill="#656452" rx="9" ry="62"/><path fill="#e2e7f1" d="M38 16L9 38l27 10z"/><path fill="#b3b5b7" d="M119.4 23.5l11.8 5.5-2.6 5.5-11.8-5.5z"/><path fill="#384f37" d="M108 116.4l-15 19.5 34.4 3.3-1.5 24.6z"/><path fill="#bbb7ac" d="M96 115l4 39-15 11z"/><path fill="#d3dade" d="M167.3 66.2l-55.2-14.6 37.8 1.4 5.6 5z"/><ellipse cx="190" cy="134" fill="#3a4162" rx="7" ry="23"/><path fill="#a9bdbe" d="M227.3 115.3l-77.4-3.2-7.9 13.1L78 88z"/><circle r="1" fill="#dae3f0" transform="matrix(5.99816 11.229 -26.0979 13.94062 192.6 68.8)"/><path fill="#d0d1c0" d="M134 157l-10-30 10 15z"/><path fill="#5f3936" d="M54.2 175l5.6-32.2-34.9 32 .5 23.4z"/><path fill="#d9d7ca" d="M68 132h4v21h-4z"/><path fill="#444f47" d="M63 52l5-34 44 43z"/><path fill="#142835" d="M142 144h14v15h-14z"/><path fill="#54615d" d="M121 42h59v9h-59z"/><path fill="#212f37" d="M73 115h6v36h-6z"/><path fill="#3d3927" d="M83.1 165l-.1-3 55.9-3 .1 3z"/><path fill="#ccd9f4" d="M261 18.7l10.9-31-27.2-1.2 6.1 23.9z"/><ellipse cx="127" cy="82" fill="#5b6264" rx="10" ry="4"/><path fill="#afc2c4" d="M73 114l45-24-21 38z"/><path fill="#3e3c3b" d="M19 121l13-5v41z"/><ellipse cx="1" cy="40" fill="#292724" rx="7" ry="5"/><path fill="#bec6d5" d="M189 16.4L180.5 60l6 18.8 11-69z"/><circle r="1" fill="#9fa19b" transform="matrix(-24.5923 9.9859 -13.4786 -33.19379 150.7 197.4)"/><path fill="#e6ebf9" d="M-14 14l11 18 34 10z"/><path fill="#b5bdbd" d="M250 166l21 17-18-68z"/><path fill="#11436a" d="M160 92h24v3h-24z"/><path fill="#015fae" d="M124 256l-55-8 18 19z"/><path fill="#f7ffff" d="M54 13.8l2.4 30.7L66 29.6l-3.1-13.3z"/><path fill="#434a4b" d="M149.9 260.8l33-52.7-1.9 39.1-25.8-3.9z"/><path fill="#3f4451" d="M96.7 163.3L55 175.4l5.6-66.7-.1 58.5z"/><path fill="#94a7ac" d="M207 86.2l42-1.3-25.5 23.5-13.7 57.9z"/><path fill="#5b6e6e" d="M1 101h47v5H1z"/><path fill="#4a564a" d="M149.7 70.7l-7.3-5.3 5.9-8 7.3 5.2z"/><path fill="#0a182b" d="M154 110l-6 2 2 7z"/><path fill="#715446" d="M171.2 189.4l14.6-27.8-3.1-36.6 22.6 46.4z"/><path fill="#2f2f2d" d="M207 113h1v57h-1z"/><path fill="#a5babf" d="M108.1 85.9l54.7 30.3-18.5 2.9 57.8-13.6z"/><path fill="#9a9b95" d="M15 219l70-52-41 13z"/><path fill="#566163" d="M107.5 88.5L4.4 89.9l83.1-6-1.3-8.4z"/><path fill="#72767a" d="M49.5-5.1l-14 33.5-15.2-9.6 13.4 13.5z"/></g></g></svg>