<svg xmlns="http://www.w3.org/2000/svg" viewBox="0 0 1800 1013"><defs/><filter id="a"><feGaussianBlur stdDeviation="12"/></filter><rect width="100%" height="100%" fill="#2c3b59"/><g filter="url(#a)"><g fill-opacity=".5" transform="translate(3.5 3.5) scale(7.03125)"><ellipse cx="145" cy="42" fill="#def8ff" rx="255" ry="56"/><circle r="1" fill="#a8bbdf" transform="matrix(-13.29454 53.73323 -67.78323 -16.77076 125.3 28.5)"/><ellipse cx="79" cy="101" fill="#2b3f57" rx="44" ry="24"/><circle r="1" fill="#7690b4" transform="matrix(3.4422 -17.70856 37.39537 7.26892 9.2 79.1)"/><ellipse cx="174" cy="117" fill="#1f3d57" rx="47" ry="28"/><circle r="1" fill="#05273a" transform="rotate(6.6 -1173 161.4) scale(70.30069 33.42328)"/><circle r="1" fill="#6781a8" transform="matrix(-34.79726 -4.3921 7.22744 -57.26077 247.3 41.5)"/><circle r="1" fill="#6d84a4" transform="rotate(162.1 -3.2 20.4) scale(34.84743 58.04413)"/><path fill="#0f293c" d="M261 104l10 55-159-4z"/><ellipse cx="134" cy="105" fill="#344f70" rx="59" ry="11"/><ellipse cx="61" cy="93" fill="#3c475e" rx="17" ry="12"/><path fill="#9baecc" d="M119 0h41v96h-41z"/><circle r="1" fill="#879dbe" transform="matrix(-10.30758 49.32394 -30.48114 -6.36986 191.5 41.6)"/><path fill="#869bbb" d="M37.8 95.1l40.3-35.2L66.6-16-2.6 97z"/><circle r="1" fill="#1b3a58" transform="matrix(54.77632 15.7279 -7.94574 27.67301 92.4 135.6)"/><path fill="#7991b2" d="M201.7 52.8l8.5-11L271 97.9l-73-3z"/><path fill="#897f84" d="M81 75l35 10-27 11z"/><path fill="#7990ab" d="M44.9 96.8l-29.2-1.5-23.3-4.5 46.1-67.4z"/><ellipse cx="5" cy="35" fill="#69809a" rx="8" ry="55"/><circle r="1" fill="#9baec9" transform="matrix(-46.18009 32.3106 -26.74625 -38.22722 111 30.8)"/><ellipse cx="93" cy="97" fill="#3f546c" rx="183" ry="2"/><ellipse cx="255" cy="42" fill="#69819e" rx="16" ry="55"/><circle r="1" fill="#635962" transform="rotate(91.8 45.7 134) scale(2.96795 20.10005)"/><path fill="#323d55" d="M46 89h53v3H46z"/><path fill="#8a9fc1" d="M81.5 70.7l104.2-4.1 15.4 4.6-52.8 26.2z"/><path fill="#8ca1bd" d="M49 0h34v79H49z"/><circle r="1" fill="#0d2538" transform="matrix(13.03271 -14.53129 75.54582 67.75498 0 132.7)"/><path fill="#504c51" d="M62 80h26v6H62z"/><path fill="#a3b5ce" d="M89.3-15l37.6-5.3 9.8 69.3L99 54.3z"/><path fill="#aaa29e" d="M85 85h5v7h-5z"/><ellipse cx="254" cy="109" fill="#21374b" rx="43" ry="13"/><path fill="#697186" d="M40 95h80v2H40z"/><path fill="#0d2a43" d="M228 133l-78 26-19-22z"/><circle r="1" fill="#5a5766" transform="rotate(-22.9 277.7 -233.3) scale(6.88464 4.03604)"/><ellipse cx="138" cy="100" fill="#344c6c" rx="100" ry="4"/><ellipse cx="122" cy="94" fill="#7e7981" rx="12" ry="2"/><path fill="#294362" d="M107.5 159l-.7-67.3-9.6 1 35.3 25.2z"/><path fill="#8ca1bb" d="M199.3 13l-77.6 5 3.4 3.4 73.8 14.1z"/><path fill="#233a56" d="M167 132l-3-30 85 32z"/><path fill="#243c56" d="M-5 106l-1.8-11L49 99.7l14.7 17.9z"/><path fill="#203753" d="M59.5 88.5l-15.2-1 32.3 27.8L58.1 159z"/><path fill="#2a4260" d="M186 137.2l-53.5 1.4 7.7-14.6 21.7-33.9z"/><path fill="#98acc6" d="M64.1 20.3l49.4 9.6-20.3 57.8-10.5-41.1z"/><circle r="1" fill="#7e93b0" transform="matrix(1.75933 -73.09244 11.92994 .28715 219.8 24)"/><path fill="#2f4868" d="M135.9 123.1l-59.8 12.4 72.8 23.5-61.8-29.5z"/><path fill="#5b6777" d="M221.5 117.7l-.2 1-16.8-2.4.2-1z"/><ellipse cx="54" cy="103" fill="#87979f" rx="4" ry="1"/><path fill="#31445f" d="M188 141h49v3h-49z"/><path fill="#102437" d="M240.2 136.1l12.9 2.3 17.9-7.8-37.3-9.3z"/><path fill="#9ca7b7" d="M102 81.4l-4.6-16.2 7.5 27.7-4.5-6.3z"/><path fill="#7f96b3" d="M63 79.5L18.9-16 44.7 93.8-10.4 97z"/><path fill="#758cab" d="M262.3 132.7L242 9.6l-29.6 86.9 58.6-1z"/><circle cx="166" cy="96" r="8" fill="#44526d"/><path fill="#4e576a" d="M78.6 81.5L62.3 77l29.6 24.4-13.3-2.2z"/><path fill="#9eb1cc" d="M92 34h80v21H92z"/><path fill="#203751" d="M232 141l-22-26-49 1z"/><path fill="#5d5b65" d="M103 81h7v4h-7z"/><path fill="#7b8fab" d="M216.7 95.6l21 .6-14.4-12-36.4 13.1z"/><path fill="#2f4666" d="M101 129.7v1l-68-2.4v-1z"/><path fill="#5e616b" d="M64.1 91.6l-3-8.4 18.8-6.8 3 8.4z"/><circle r="1" fill="#869cba" transform="matrix(10.92116 3.22863 -10.90855 36.89922 195.3 53.9)"/><path fill="#778ca7" d="M39-16L8 3l3 89z"/><path fill="#8ca1bd" d="M70.1 81.8L102 58.5l-50.2-5.9 8-68.6z"/><path fill="#061f32" d="M0 133h48v3H0z"/><path fill="#2a4463" d="M56 98h41v10H56z"/><path fill="#96aac2" d="M234.1-14.5L157.2-16l15 78 8.9-52.1z"/><path fill="#a19a95" d="M82.6 87.3l-.1-1 23-1.6v1z"/><path fill="#33445a" d="M178.7 111.2l31.5-7.2-14.4-13.9 1 6.8z"/><path fill="#0c273e" d="M71 141h20v3H71z"/><path fill="#001e30" d="M192 133h19v4h-19z"/><path fill="#3f506b" d="M96.3 83.8l16.5 33.2-19.2-30.1L92 99.1z"/><circle r="1" fill="#4e5663" transform="matrix(.40643 2.11058 -16.1486 3.10973 76.7 83.1)"/><path fill="#385276" d="M151 123h35v2h-35z"/><path fill="#122c44" d="M63.2 113.1l-26.1 14.3 22.6-7.1 19.7 2.7z"/><path fill="#494e5f" d="M44 85h6v10h-6z"/><path fill="#aabcd4" d="M103 90.7l-.4.9-5.6-2.3.4-.9z"/><path fill="#1e344e" d="M20.7 133.6l27.7-2.1-48.2-3.6 54.2-21.3z"/><path fill="#1b3551" d="M141.8 124.7L67.3 135l87.9-5.2 24.4 7.7z"/><circle cx="109" cy="89" r="3" fill="#354563"/><ellipse cx="137" cy="4" fill="#a3b5cc" rx="31" ry="8"/><circle r="1" fill="#122b43" transform="matrix(-42.64195 4.22249 -.20575 -2.0778 43.4 136.8)"/><path fill="#1b3148" d="M220.5 109.3l19.5 3-58.5-4.4 21.4-1.8z"/><path fill="#8196b2" d="M27 0h17v95H27z"/><path fill="#04253e" d="M85 125h22v2H85z"/><path fill="#747276" d="M176.6 88.9l-10 3.4 4.9.4-11.5-3.1z"/><path fill="#1c3754" d="M123.3 137.2l14.2 21.8-7.1-46.2 19.4-3.2z"/><path fill="#0d263a" d="M13.6 110.4l11 .2-.2 13-11-.2z"/><path fill="#ddcdb8" d="M92 84.3l-4 .4v-1l4-.4z"/><path fill="#2f496a" d="M93 135.4v-1l64 2.2v1z"/><path fill="#94a8c5" d="M119.2 65.1L77 81l12.2-16-18.9-34.6z"/><path fill="#384e6e" d="M158 116.5L72.7 89.8l19.9 14.7 12.5-7.9z"/><ellipse cx="192" cy="96" fill="#586980" rx="142" ry="1"/><path fill="#283f59" d="M69 113.6L7.8 102.7l29.6-7.9-16.1 14.6z"/><path fill="#8da2c1" d="M152 95l-10-24 17 21z"/><ellipse cx="88" cy="95" fill="#6c6e7b" rx="54" ry="1"/><path fill="#283c56" d="M238.6 127.2l-59.3 4.5 53.5 5.3-11.7-1.9z"/><path fill="#667c93" d="M12 14L-13-1l-3 32z"/><ellipse cx="211" cy="122" fill="#0c263b" rx="13" ry="2"/><path fill="#021c2f" d="M32 139.4L-16 159v-25.7L60.4 159z"/><ellipse cx="211" cy="73" fill="#7f96b5" rx="20" ry="23"/></g></g></svg>