<svg xmlns="http://www.w3.org/2000/svg" viewBox="0 0 1800 1200"><defs/><filter id="a"><feGaussianBlur stdDeviation="12"/></filter><rect width="100%" height="100%" fill="#3c4e69"/><g filter="url(#a)"><g fill-opacity=".5" transform="translate(3.5 3.5) scale(7.03125)"><ellipse cx="171" cy="54" fill="#d6b681" rx="255" ry="61"/><ellipse cx="128" cy="83" fill="#f5ffff" rx="52" ry="25"/><ellipse cx="128" cy="150" fill="#0b2437" rx="255" ry="39"/><ellipse cx="232" cy="63" fill="#5b4b3a" rx="54" ry="46"/><circle r="1" fill="#6f5b45" transform="matrix(10.46617 -32.99354 89.35515 28.34512 28.3 30)"/><path fill="#ddeff7" d="M122 99l85 13-90-65z"/><ellipse cx="34" cy="105" fill="#9ec5d1" rx="161" ry="3"/><ellipse cx="254" cy="104" fill="#021121" rx="64" ry="4"/><path fill="#cbb192" d="M71.1 48.4l12.7-21-2.9 3.5 72.5 13.4z"/><path fill="#ced8d9" d="M143 50L69 89l122 19z"/><circle r="1" fill="#4f473d" transform="matrix(-85.1099 -1.28791 .08973 -5.92952 33 61)"/><ellipse cx="236" cy="70" fill="#30302d" rx="47" ry="7"/><circle r="1" fill="#877460" transform="matrix(18.2563 31.6826 -57.71298 33.25564 200.7 17.8)"/><ellipse cx="151" cy="110" fill="#6d9aae" rx="78" ry="5"/><path fill="#11222f" d="M0 107h28v63H0z"/><ellipse cx="218" cy="88" fill="#95816a" rx="46" ry="11"/><circle r="1" fill="#2d4764" transform="matrix(4.1718 -17.28512 74.52147 17.98594 119.3 131.7)"/><ellipse cx="214" cy="169" fill="#132232" rx="132" ry="14"/><path fill="#9db4bc" d="M69.2 92.7L79.5 83l54.3 16.3-51.9 9.5z"/><circle r="1" fill="#ced4d6" transform="matrix(-2.9711 11.6054 -19.05107 -4.87726 131.5 64.8)"/><path fill="#c8deea" d="M188 109h58v3h-58z"/><ellipse cx="33" cy="100" fill="#625f57" rx="39" ry="4"/><path fill="#716758" d="M125 28l-16 45-12-6z"/><ellipse cx="33" cy="82" fill="#9e8364" rx="43" ry="18"/><path fill="#8a7966" d="M3 33l77-49 191 60z"/><ellipse cx="32" cy="104" fill="#c4cecf" rx="47" ry="2"/><circle r="1" fill="#5a5142" transform="matrix(-5.97696 -11.83873 50.03313 -25.25996 3.8 12.5)"/><path fill="#1b3247" d="M131 114l-147 30 6-39z"/><ellipse cx="176" cy="75" fill="#bfcbd2" rx="5" ry="10"/><circle r="1" fill="#6b6255" transform="matrix(-2.374 -13.6024 9.47049 -1.65286 168.5 55.6)"/><path fill="#62584d" d="M232 15.2l6.1-24.3L278 1l-6 24z"/><path fill="#e1e6e5" d="M174 90l-5 14 29 5z"/><path fill="#304a65" d="M271 114.5l-89.3-3L30 185l181.4-68.2z"/><circle cx="66" cy="38" r="7" fill="#3f402d"/><circle r="1" fill="#514a3d" transform="matrix(32.88238 1.66575 -.38403 7.5808 8.9 57.1)"/><path fill="#464340" d="M188 87l-11 8 1-13z"/><circle r="1" fill="#5b5448" transform="matrix(1.30685 10.34477 -66.29766 8.37534 248 57.7)"/><path fill="#c0a37a" d="M11.7 33.6l-1.6 11.9-21.8-3 1.6-12z"/><path fill="#384d6a" d="M118.8 155.6l86.4 13.5-64.5-15.6 11.3-35.8z"/><path fill="#303436" d="M234.1 98.3L221 96.9l20.3 14.4 29.7-10z"/><ellipse cx="114" cy="164" fill="#071c2c" rx="54" ry="4"/><ellipse cx="248" cy="145" fill="#1b2a39" rx="20" ry="34"/><path fill="#6f888c" d="M104.2 102.6l-21.9 10 98 1.9-15.2 3.3z"/><path fill="#a79274" d="M32 37h24v11H32z"/><ellipse cx="234" cy="111" fill="#98bdcb" rx="62" ry="2"/><path fill="#6b5b4c" d="M116 47h37v5h-37z"/><ellipse cx="115" cy="169" fill="#3a506c" rx="47" ry="3"/><path fill="#6f9092" d="M156 115l4-14-33 8z"/><path fill="#d2dbdd" d="M110.9 93.5L89.7 75l74.4-13.5-31.2-6.6z"/><path fill="#b09b86" d="M156.8-11l1.4 20-29 2-1.4-20z"/><path fill="#00050d" d="M201 148h24v4h-24z"/><path fill="#6c6558" d="M-16 79.8v26.9l20.1-5 49.6 3.2z"/><path fill="#8f7e6a" d="M265.7 84.3l-76.6 23.6 9.6-39.2-19.5 12.9z"/><path fill="#c2ab8f" d="M87 39h70v4H87z"/><path fill="#bbc4c5" d="M160 69h18v28h-18z"/><path fill="#334966" d="M99 133l-27 21 76 6z"/><circle r="1" fill="#918372" transform="matrix(-7.19953 -27.63944 19.22277 -5.00716 205 17.6)"/><path fill="#879fb6" d="M219 107h16v3h-16z"/><path fill="#ab977c" d="M58 78L26 91l-5-27z"/><ellipse cx="45" cy="107" fill="#a7bdc6" rx="9" ry="2"/><path fill="#b0c1bf" d="M0 102h29v3H0z"/><ellipse cx="50" cy="67" fill="#8b7e69" rx="69" ry="3"/><path fill="#051c2e" d="M128 136.8l-1.8 5.7-16.2-5.3 1.8-5.7z"/><path fill="#3c6165" d="M93 109.7v-3l24-.4v3z"/><circle cx="185" cy="98" r="4" fill="#cfe0ea"/><circle r="1" fill="#7c7263" transform="matrix(36.92274 -9.82879 5.12295 19.24482 56.9 18.2)"/><path fill="#46443c" d="M49 69l-13-9 21 1z"/><path fill="#4e678b" d="M152 128l11-5-28-1z"/><path fill="#bccac9" d="M112 106l5-52 22 51z"/><ellipse cx="79" cy="108" fill="#426f81" rx="8" ry="4"/><path fill="#655b51" d="M271 92.6l-66.3 8.3-22.2-13.3 13 17.7z"/><path fill="#bac5cb" d="M76.4 95l-5.5-10.6 10.7-5.5 5.5 10.7z"/><path fill="#5f6463" d="M17 99h53v5H17z"/><path fill="#0f263a" d="M169 117h79v4h-79z"/><path fill="#2f4258" d="M7 135h74v9H7z"/><path fill="#6a5f4c" d="M24 84L8 76v10z"/><path fill="#226780" d="M232 112h24v2h-24z"/><path fill="#000306" d="M225 168h30v2h-30z"/><path fill="#2b3f57" d="M181.4 112.4l74.2 29.3-45.4 5.5.7-33.9z"/><path fill="#e0e9e9" d="M104.2 77.4l-2.2 2-8.2-8.8 2.2-2z"/><path fill="#685d50" d="M219 78l-26-5 17 18z"/><path fill="#000710" d="M118 160h17v6h-17z"/><path fill="#bac4c2" d="M140.5 111v1l-25 1v-1z"/><path fill="#807261" d="M94.1 61.5L124 44.3 79.9 21.5l45.8 3.7z"/><ellipse cx="14" cy="112" fill="#112838" rx="39" ry="4"/><path fill="#3f4c5d" d="M200 166h31v3h-31z"/><path fill="#a89278" d="M231 95l-13-1 1-13 13 1z"/><path fill="#4a4537" d="M14 63h-28L2 44z"/><path fill="#bac3c6" d="M180.7 102.4l23.9 5.4 21.8 3-29.8 1.4z"/><path fill="#d8ddda" d="M125 97l31 6-1-48z"/><ellipse cx="193" cy="143" fill="#001525" rx="17" ry="2"/><path fill="#a59786" d="M182 11h34v5h-34z"/><path fill="#798b9e" d="M158 114h31v2h-31z"/><ellipse cx="35" cy="125" fill="#2a3f56" rx="41" ry="5"/><path fill="#897c6c" d="M45 7l50 4-20 30z"/><path fill="#98876f" d="M146 38h70v6h-70z"/><circle r="1" fill="#817666" transform="matrix(4.55161 4.91143 -3.52808 3.2696 183.5 74.3)"/><path fill="#c7cecc" d="M157 72l22-6-16 41z"/><path fill="#736657" d="M16 47h72v12H16z"/><path fill="#e5e8e6" d="M196.4 109.6l-21-2.8-7.5-4.9-25.4-13.7z"/></g></g></svg>