<svg xmlns="http://www.w3.org/2000/svg" viewBox="0 0 1800 1200"><defs/><filter id="a"><feGaussianBlur stdDeviation="12"/></filter><rect width="100%" height="100%" fill="#33444f"/><g filter="url(#a)"><g fill-opacity=".5" transform="translate(3.5 3.5) scale(7.03125)"><circle r="1" fill="#9d7557" transform="rotate(90.9 28.2 95.2) scale(51.9855 183.15614)"/><circle r="1" fill="#ca6517" transform="matrix(79.26008 .77214 -.17776 18.24668 130.8 103.5)"/><ellipse cx="114" cy="150" fill="#221313" rx="255" ry="32"/><circle r="1" fill="#536b7f" transform="matrix(-169.7379 16.01028 -4.11218 -43.59652 129.4 26.8)"/><circle r="1" fill="#27211f" transform="matrix(1.8074 -15.4849 44.10833 5.14832 215 76.4)"/><path fill="#050204" d="M-1 37l22 135-37-57z"/><circle r="1" fill="#ff8d09" transform="rotate(88.5 8.4 122.7) scale(9.60641 20.47415)"/><circle r="1" fill="#8b8276" transform="matrix(-18.30326 18.17593 -25.65496 -25.83469 136 65)"/><circle r="1" fill="#632d13" transform="rotate(88 54 172.5) scale(9.68308 57.75892)"/><path fill="#200704" d="M63.6 85.6l34-15.7 12.3 3.7-4.2 11z"/><ellipse cx="39" cy="112" fill="#823a15" rx="72" ry="8"/><ellipse cx="255" cy="55" fill="#000008" rx="17" ry="7"/><path fill="#645a56" d="M38.3 155.7l83.8 14.1L60.2 185l-30.7-21.5z"/><ellipse cx="196" cy="69" fill="#10070d" rx="39" ry="5"/><path fill="#111618" d="M229 131l-19 49 7-91z"/><path fill="#0a0b08" d="M196 12.6l-9.9-26.9 23.4 89.6-.4-16z"/><path fill="#0e0604" d="M77.5 55.5v7h-21v-7z"/><path fill="#9a856d" d="M126 75h68v8h-68z"/><path fill="#16191d" d="M-32 58l23.8-7.7L32 174l-23.8 7.7z"/><path fill="#0d0204" d="M41 77h17v7H41z"/><circle r="1" fill="#60717d" transform="matrix(-.59954 -14.90615 80.02831 -3.2188 115 42.6)"/><path fill="#7c5b3d" d="M223 80h33v37h-33z"/><path fill="#927250" d="M38 90h175v13H38z"/><path fill="#973912" d="M173.7 108.3l-45.3 23.3 5.8-1-18.2-6.4z"/><ellipse cx="206" cy="87" fill="#341a15" rx="43" ry="3"/><path fill="#7b7c6a" d="M20 63h59v16H20z"/><ellipse cx="230" cy="134" fill="#1d222a" rx="64" ry="17"/><circle cx="129" cy="116" r="3" fill="#ffffbe"/><circle r="1" fill="#435162" transform="rotate(-17.4 67.4 -63) scale(156.64776 23.5531)"/><path fill="#a27053" d="M62 173.8l-2.4 3.1-25.7-20.7 2.5-3.1z"/><path fill="#765235" d="M10 88h57v31H10z"/><circle r="1" fill="#5f6f6f" transform="matrix(2.7588 -4.15722 20.56582 13.6478 239 64.2)"/><path fill="#37353c" d="M99.1 142l48.6-23.7 23.2 47.7-48.6 23.7z"/><path fill="#482319" d="M93.6 85.7l25.5 4.7-16.4-22.5-27.1 24.9z"/><path fill="#dd7310" d="M100 106h59v10h-59z"/><circle r="1" fill="#747471" transform="matrix(-20.9198 7.57286 -4.59788 -12.70152 165.3 55)"/><path fill="#222022" d="M4.3 82.1l23 10.7-43.3-4.2L26.9 185z"/><path fill="#767a6c" d="M216 81h40v5h-40z"/><path fill="#bf7438" d="M106.1 90.7l30.3.4 11.8 14.4-36.5 2z"/><path fill="#944822" d="M148 107h63v12h-63z"/><path fill="#3e4854" d="M171 149l20 13 24-15z"/><ellipse cx="109" cy="24" fill="#506074" rx="84" ry="14"/><path fill="#452720" d="M141.5 59.7l-10-1 10.3-4.2 6.7 1z"/><path fill="#7b5f44" d="M177 89h34v21h-34z"/><ellipse cx="7" cy="148" fill="#404147" rx="55" ry="3"/><path fill="#111012" d="M31.6 178.9L-16 159.8l28-2.2 12.7-21.4z"/><circle r="1" fill="#3d3935" transform="matrix(30.43806 -3.16381 .2425 2.33304 81.9 60)"/><circle r="1" fill="#211f22" transform="matrix(.33237 -3.21632 28.4291 2.93786 253.9 79.5)"/><path fill="#7f7c6e" d="M109.4 63.5L87.2 75.1l-20.1 4.6-19.6-13.3z"/><path fill="#151b20" d="M217 126.8l-6.5-21 8.6-2.6 6.4 21z"/><path fill="#836e53" d="M106 94l-33 14-54-22z"/><path fill="#394552" d="M275.6 25L191.2 4l7.2-29 84.4 21z"/><path fill="#f39a1f" d="M122.9 105.5l-2.8 10 16.8 2 6.9-13.7z"/><path fill="#b14c22" d="M210 108h2v25h-2z"/><path fill="#1d242d" d="M0 119h76v12H0z"/><path fill="#462116" d="M48 87h38v3H48z"/><path fill="#101010" d="M154 167h71v3h-71z"/><circle cx="49" cy="79" r="5" fill="#1e1215"/><circle r="1" fill="#4d5c69" transform="rotate(21.7 30.8 617.6) scale(33.64265 14.42133)"/><path fill="#111114" d="M196.8 134.3l-64.4 10.3 22.3-1.2 60-4.7z"/><path fill="#46251a" d="M155 71h33v3h-33z"/><path fill="#1d1b20" d="M233 62l-24 12-27-11z"/><path fill="#a44010" d="M62.1 118.2l40.6-7.2 17.6 6.9 10.2 1.5z"/><path fill="#6e7168" d="M34.6 89.2l-18.5-6.5 24.8-35 23 4.1z"/><path fill="#182126" d="M248.8 48.8L271 72.5l-35.6-21.4 12.2-3.2z"/><path fill="#917259" d="M117 63l-4 22 79 14z"/><path fill="#070d10" d="M232 152l3 11 22-4z"/><path fill="#474f58" d="M62 160h45v3H62z"/><path fill="#7c7b73" d="M146.2 72.9l35.1-9.6L218 60l-113.7.6z"/><circle r="1" fill="#161512" transform="rotate(-105.1 140.5 -38.7) scale(254.35575 1)"/><path fill="#070200" d="M40 150h8v8h-8z"/><circle cx="206" cy="81" r="6" fill="#6d6457"/><circle cx="240" cy="71" r="4" fill="#7c8275"/><path fill="#292832" d="M137 119h72v17h-72z"/><path fill="#5b696f" d="M209 34h29v28h-29z"/><path fill="#2b1816" d="M202.7 82l-.4 7-19-1 .4-7z"/><path fill="#6f7678" d="M74 57l47-12-66-1z"/><path fill="#414752" d="M29.9 154.1l8.2-.4 20 31.3-27.2-8.9z"/><path fill="#363a42" d="M84.1 149.1l23-6.4 38.5 1.8-6.2 24.5z"/><path fill="#32302d" d="M185 57h17v2h-17z"/><path fill="#7b7e7c" d="M106 55.5l26.2-6.5 3.8 15.5-26.2 6.5z"/><path fill="#232222" d="M214 102h10v68h-10z"/><circle cx="69" cy="81" r="3" fill="#191213"/><path fill="#4c1c0c" d="M127.9 86l-8-1 .2-1 8 1z"/><path fill="#48322e" d="M113 70h9v4h-9z"/><path fill="#3d4953" d="M225 149h31v5h-31z"/><path fill="#656a61" d="M223.1 61.5l27.3 10.6 3.2 9.3 6.5-15.6z"/><path fill="#826d55" d="M59.3 96.3l-15.2-7.7 29.1 10.3-17.5-24.6z"/><ellipse cx="6" cy="31" fill="#454f57" rx="7" ry="35"/><path fill="#39434d" d="M29 141h33v8H29z"/><path fill="#0d0e11" d="M7.2 96l-1 .1-9.4-48 1-.2z"/><path fill="#14191f" d="M157 146h43v4h-43z"/><path fill="#101115" d="M126.3 138.1l.3 3-39 2.8-.2-3z"/><path fill="#bb7b47" d="M130.9 83l-17 23.4 25.6-21.8-1.9-.1z"/><path fill="#cd7e4b" d="M56 169.3l-.6.8-9.4-7.4.6-.8z"/><path fill="#837767" d="M116 76h80v7h-80z"/><path fill="#72422d" d="M269.7 108.4l-22 9.8-23.1 1-1.6-10.6z"/><path fill="#292121" d="M100 68L79 81l30-3z"/><path fill="#7e603e" d="M219.9 99.3l3.1 6 48-1.7-54.2-14.3z"/><path fill="#9e714f" d="M80 83l15 14 38-2z"/></g></g></svg>