<svg xmlns="http://www.w3.org/2000/svg" viewBox="0 0 1200 1800"><defs/><filter id="a"><feGaussianBlur stdDeviation="12"/></filter><rect width="100%" height="100%" fill="#4d472a"/><g filter="url(#a)"><g fill-opacity=".5" transform="translate(3.5 3.5) scale(7.03125)"><circle cx="72" cy="122" r="169" fill="#b0b1c0"/><circle r="1" fill="#f2ffff" transform="matrix(11.6177 37.2207 -60.78747 18.97362 45.6 18.8)"/><circle r="1" fill="#1c211f" transform="rotate(55.4 7.2 147.5) scale(41.0681 35.2376)"/><ellipse cx="32" cy="79" fill="#2d291d" rx="72" ry="21"/><path fill="#e5f8ff" d="M77.6-25.2L202.2 8.2l-7.8 29L69.8 3.8z"/><circle cx="56" cy="237" r="67" fill="#605547"/><circle r="1" fill="#ceddea" transform="matrix(-17.00902 -23.15497 20.0567 -14.7331 69.2 33.2)"/><path fill="#4d4337" d="M132 120l53-89-6 162z"/><circle r="1" fill="#a9a093" transform="matrix(-49.3549 -37.63123 17.45342 -22.89088 95.5 134)"/><circle r="1" fill="#322f24" transform="rotate(54.3 -106 57.1) scale(22.8453 44.02004)"/><path fill="#9db5c8" d="M116 53h54v10h-54z"/><path fill="#272e2b" d="M100.5 15.6l53 10.3-6 30.5-53-10.3z"/><circle r="1" fill="#969084" transform="matrix(-50.00844 -14.05674 4.03952 -14.37104 37.5 206.8)"/><circle r="1" fill="#a69f91" transform="matrix(-21.26409 33.0951 -17.5588 -11.28179 21.3 154.9)"/><path fill="#cae1f8" d="M183 45l-13.4 8.7L155 31l13.5-8.7z"/><ellipse cx="78" cy="62" fill="#0a1603" rx="51" ry="3"/><path fill="#2e2f28" d="M156 60h14v57h-14z"/><path fill="#312c22" d="M50 125h20v11H50z"/><ellipse cx="37" cy="241" fill="#564e44" rx="76" ry="16"/><path fill="#c0c9da" d="M88.5-15.3l76.9-.7-.8 31.6-32.3 10.7z"/><path fill="#a8a49b" d="M143 108l-24-9 61-8z"/><path fill="#413c2f" d="M28 171h26v20H28z"/><path fill="#949085" d="M17 76.5v-6l62 1v6z"/><path fill="#a8b8c2" d="M0 34h87v26H0z"/><path fill="#282a22" d="M102.1 42.9L95 24.2l29-11 7.2 18.6z"/><circle r="1" fill="#d1d7df" transform="matrix(3.53742 11.7972 -52.8315 15.84166 68.6 16.7)"/><path fill="#343027" d="M39 80h64v12H39z"/><path fill="#6f6454" d="M117.9 88l48.8 78.5-80.6-88.8 2.2-22.1z"/><path fill="#9ba7b0" d="M132 39l-10 3-8 14z"/><circle cx="157" cy="47" r="7" fill="#1a2624"/><circle r="1" fill="#908477" transform="matrix(-40.81512 68.29602 -14.38231 -8.59517 154.4 181.8)"/><circle r="1" fill="#a49d91" transform="rotate(145.9 2.6 85.5) scale(25.46925 10.98484)"/><circle r="1" fill="#889db6" transform="matrix(-4.28035 -16.43212 21.38366 -5.57016 0 23.2)"/><path fill="#cdd2d3" d="M59 25l25 18 18-9z"/><circle r="1" fill="#a09b91" transform="rotate(-179.1 47.5 66.8) scale(21.87143 41.45325)"/><path fill="#40392c" d="M70.5 107v6h-19v-6z"/><path fill="#2d2f2b" d="M72.6 68.6L93 66.8l58.6-42.5-23.5 2.6z"/><path fill="#9b9890" d="M67.3 184.5L60.9 222l-1.5-38.6 8.4-6.8z"/><circle cx="4" cy="121" r="6" fill="#18190e"/><path fill="#0a1000" d="M159.9 70.4l25.1-.5-24.1-7.8-6-.2z"/><circle r="1" fill="#625b50" transform="rotate(-9.1 1345 -487.4) scale(33.57806 7.51402)"/><path fill="#2c2e2d" d="M92 38l29 13-29 6z"/><path fill="#b9c5cd" d="M141 57l-1 7-20-6z"/><path fill="#bdc5cf" d="M139.1-10.3l15.3 15.8L133 26.3l-15.3-15.8z"/><path fill="#9e9788" d="M32.4 119.3l-4.7-10 40-18.6 4.6 10z"/><path fill="#4c5357" d="M169.1 47.6l-18.7-1.7-26.1 5.3 20 10.3z"/><path fill="#a6a196" d="M40 114h65v12H40z"/><path fill="#97acc0" d="M148 52h22v9h-22z"/><path fill="#c9d3df" d="M105.9 14.2L-31.4-.3l1.5-13.9L107.4.3z"/><path fill="#4d4639" d="M67.3 173.4l7.8 14.6-1.9-26.7-38.4 20.9z"/><path fill="#848f96" d="M118.8 49.5l12.7-4.4 2.8-4.2-21.8 5.2z"/><circle r="1" fill="#2d281d" transform="matrix(.71064 -5.78769 8.00578 .98299 159 111.9)"/><path fill="#413a2e" d="M108 72l49 2-51 17z"/><path fill="#837b72" d="M141 163l-8 45-39-44z"/><circle r="1" fill="#5b5951" transform="matrix(-32.84167 16.73367 -2.77567 -5.44756 30.2 89)"/><path fill="#aab4c2" d="M156.3 38.2l26.4 26.4-1.5-56.4L148.4.7z"/><path fill="#22251f" d="M121.2 34.3l15.2-5.4 20.4 11.8 8.2 11.8z"/><path fill="#070d06" d="M40 64h51v2H40z"/><path fill="#9f9a8e" d="M24 72h78v2H24z"/><path fill="#6b6055" d="M184.1 215.4L156 113.1l14.8 109-53.7-13.1z"/><circle r="1" fill="#afc3cf" transform="matrix(-10.11721 -.66283 .07727 -1.17946 157.3 35.5)"/><path fill="#8f877c" d="M151 117l23 30-10-30z"/><path fill="#7a8b9c" d="M18.7 40.3L-8 36.6l1.3-9L20 31.5z"/><circle r="1" fill="#c8ccca" transform="matrix(.14098 7.70302 -24.89731 .45568 23.8 43.1)"/><path fill="#878176" d="M0 195h75v25H0z"/><path fill="#979288" d="M161 104l-40-15-5 11z"/><path fill="#a09a91" d="M167 95h3v14h-3z"/><circle r="1" fill="#9fb2c7" transform="matrix(-4.42324 -9.48496 18.76999 -8.75324 34.1 7.8)"/><path fill="#b9c3ca" d="M90.8 51.3l1-67.3 35 16.9-62.7 47.5z"/><path fill="#a69f94" d="M2.8 137.9l10.2-8.8 40.3-7.5-69.3 33.5z"/><ellipse cx="73" cy="99" fill="#949085" rx="32" ry="8"/><ellipse cx="9" cy="154" fill="#7f7b72" rx="42" ry="7"/><path fill="#2d2d28" d="M-5.7 119.5L-16 104l1.7 3.7 43.8-3.9z"/><path fill="#a8b6be" d="M95 46L56 59l-8-26z"/><path fill="#2d3129" d="M128 59.8l25.6-35.2-9.3-1.5-4 3z"/><path fill="#8a837b" d="M96 219l18 10 41-46z"/><path fill="#bbc2c4" d="M120 59l7-5-14-1z"/><circle cx="47" cy="133" r="3" fill="#362f25"/><path fill="#8e8476" d="M131.3 76.2l-.5-.9 20-11.5.4.9z"/><path fill="#1f2d1b" d="M51 57.6l1.7 6.8-7.7 2-1.7-6.8z"/><path fill="#91877a" d="M103 68.4l1 19-5 .2-1-19z"/><path fill="#504a42" d="M95.4 223.5l28.5 47.5-29.3-31.5-31.7-8.4z"/><path fill="#a0978d" d="M149 179.1l-7.9-21.9 30.5 30.6-34.6-2.4z"/><path fill="#726a5e" d="M23 210h25v29H23z"/><path fill="#504a3f" d="M92.3 85.3l79.2 9.2L80 92.2l91.1-15z"/><path fill="#71797c" d="M103 56l4-6 6 12z"/><path fill="#161914" d="M129 30h27v3h-27z"/><path fill="#e4e7e5" d="M54 23.4L65.8 5.3l25.7-2.8-12.1 18.1z"/><path fill="#949084" d="M0 135l8-10-11 2z"/><path fill="#9f9993" d="M140 246h30v6h-30z"/><path fill="#454039" d="M146.2 70.1l38.8 64.7-28.8-34.5L185 69.6z"/><ellipse cx="82" cy="86" fill="#2d271d" rx="16" ry="5"/><path fill="#2a251b" d="M153 119.3l1 5.9-9 1.5-1-5.9z"/><path fill="#1d1d18" d="M29 98l13-1 2-12z"/><path fill="#888278" d="M65.2 143.3l35-4.5-29 28.4-9.7-.9z"/><path fill="#bcbdb4" d="M40.9 72.6l.1 1-17.9 1.8-.1-1z"/><path fill="#9b958c" d="M77 199l-32 9-8-11z"/><path fill="#514c41" d="M31.6 115.1l-5.8 10.5-12.1 1.3-20.6 1.1z"/><path fill="#a39a90" d="M157.8 234.2l5.3-10.8 17 8.4-5.2 10.8z"/><path fill="#a5b9cc" d="M174.8 62.2l-11 .6-.6-13 11-.6z"/></g></g></svg>