<svg xmlns="http://www.w3.org/2000/svg" viewBox="0 0 4032 3024"><defs/><filter id="a"><feGaussianBlur stdDeviation="12"/></filter><rect width="100%" height="100%" fill="#52392c"/><g filter="url(#a)"><g fill-opacity=".5" transform="translate(7.9 7.9) scale(15.75)"><circle cx="81" r="200" fill="#a99c79"/><circle r="1" fill="#232e1c" transform="matrix(-73.65434 -49.86774 29.8404 -44.0741 123.7 138)"/><circle r="1" fill="#f8b191" transform="matrix(60.02656 6.29428 -3.45922 32.98946 200.1 93.5)"/><path fill="#ebc9a4" d="M107.6 30L-38.3 69l-15.3-57L92.3-27z"/><circle r="1" fill="#66bcff" transform="matrix(18.0588 -11.99824 10.03617 15.10565 37.2 72.7)"/><ellipse cx="42" cy="191" fill="#e3fff8" rx="29" ry="17"/><path fill="#ffc68f" d="M39 148L1 124l30-44z"/><circle r="1" fill="#407140" transform="matrix(-86.82252 68.67766 -42.66738 -53.94023 236.8 191)"/><path fill="#041d11" d="M43.5 173.1l13.8-19.5-73.3-26.1v37.7z"/><circle r="1" fill="#cddbcd" transform="matrix(.09133 10.38392 -23.81913 .2095 236.2 191)"/><circle r="1" fill="#b75f25" transform="matrix(-4.49477 34.11723 -45.5955 -6.00697 226.6 45.5)"/><circle r="1" fill="#191d0d" transform="matrix(11.72022 .01294 -.05835 52.83506 137.2 112)"/><path fill="#000417" d="M56 61h26v45H56z"/><path fill="#fff" d="M206 98.7l-1 25-13-.4 1-25z"/><ellipse cx="173" cy="146" fill="#2b391d" rx="38" ry="33"/><path fill="#dfaf7a" d="M213-13L96 25l74 1z"/><path fill="#fff" d="M144 71h20v18h-20z"/><circle r="1" fill="#a26652" transform="matrix(-5.70934 20.31162 -38.88078 -10.9289 78.5 129.5)"/><circle r="1" fill="#392721" transform="matrix(9.32601 11.16763 -24.62164 20.56138 157.6 45.6)"/><path fill="#3e1d1a" d="M194 68l45-84-5 62z"/><path fill="#000006" d="M65.7 164.5l20.5 4.4-3.9 18.6-20.5-4.4z"/><ellipse cx="201" cy="8" rx="7" ry="15"/><path fill="#ffbd5e" d="M254 42.8l20 6.5-20 61.9-20-6.5z"/><path fill="#ffdcb9" d="M228.5-3.7l-8.9 24.5-14-5.1 8.8-24.5z"/><path fill="#071319" d="M13.1 58.5l6.8 33.6-24.5-2.4-9.5-27.8z"/><path fill="#12201b" d="M92 91h72v18H92z"/><path fill="#f6f6f4" d="M144.3 91.9l3.7 4.9.4 16.3 15.7 3.3z"/><path fill="#ffa346" d="M258 39l13-31-56 16z"/><path fill="#2f0600" d="M100 130l-64 9 40-26z"/><path fill="#928372" d="M80 51h50v40H80z"/><path fill="#291e05" d="M131.4 15.9l-40.6 4.2 48.5-32.6-17.6-3.5z"/><circle r="1" fill="#96d9ea" transform="rotate(-153.6 64 63.9) scale(3.7632 14.68012)"/><path fill="#ffbe72" d="M166 60h32v24h-32z"/><path fill="#f6a046" d="M217 49h18v42h-18z"/><path fill="#343d46" d="M221.5 126.6l8.1-23.7 19 6.5-8.2 23.7z"/><path fill="#301318" d="M30 26l-6 35 13-9z"/><path fill="#f3bb91" d="M50.5 131.1l29-30.1-52 45.8-28.3-30.9z"/><path fill="#49a0ff" d="M20 86l33 1-39-29z"/><circle r="1" fill="#060b08" transform="matrix(15.36 -46.96766 3.91527 1.28043 115.9 171.2)"/><circle r="1" fill="#522920" transform="rotate(85.4 12.2 38.6) scale(30.19061 2.34942)"/><path fill="#910561" d="M222 103l-16-2 3 33z"/><path fill="#f79c53" d="M189.5 75.7l4.4-41.1 32.5-5.9-43.9-8.9z"/><path fill="#23241d" d="M189 19l-32 32h-50z"/><path fill="#ddd4b4" d="M25 28l-39 20L4-16z"/><path fill="#fcd6ff" d="M216.1 122.7l13.5-28.3-8.1 30.9-17.1 4.9z"/><path fill="#2d3f1e" d="M127 130h129v23H127z"/><path fill="#b6734b" d="M1 88h50v27H1z"/><circle r="1" fill="#39321a" transform="matrix(-13.64215 -6.04632 12.73896 -28.74257 129.9 103.6)"/><path fill="#fff" d="M193 116l11-26 3 38z"/><path fill="#a8cebb" d="M55.7 156.5l9.2 3.7-8.6 21.3-9.2-3.7z"/><path fill="#462c23" d="M195 39l7 41 23-55z"/><path fill="#ffc29a" d="M191.8 10.1l-21.4 16.5L187.8-16l-.5 9.7z"/><path fill="#948362" d="M71 42l91-7 27-51z"/><circle r="1" fill="#ffbf94" transform="matrix(1.94146 39.06771 -5.98764 .29755 38.2 11)"/><path fill="#2a3630" d="M267.3 3.1l-8.1 8-45.1 14.1 17.3-21.8z"/><circle r="1" fill="#385a36" transform="rotate(-10 830 73) scale(9.70215 46.68992)"/><path fill="#2d0100" d="M193 99l-10-7 14-3z"/><path fill="#95adca" d="M49 70L1 79l67-40z"/><path fill="#d1f0fa" d="M170 103V87l-12 28z"/><path fill="#d0e2c6" d="M22.2 169.2l1.6 37.8 26.7-28-20.3-4.5z"/><circle cx="236" cy="120" r="5" fill="#ddc5da"/><circle r="1" fill="#4f261d" transform="matrix(8.9211 15.89265 -4.59949 2.58186 239.2 43.3)"/><path fill="#173f8c" d="M54.6 48.2l.6 5.7 6.1 8-28.8-11z"/><path fill="#b17457" d="M101.7 113.3l23 28.8-50.8-43-33.8 28.4z"/><circle cx="172" cy="42" r="5" fill="#ff9596"/><path fill="#0d0e0d" d="M156.8 42.8l22.4-9.3L218.5-16 198.8 3.8z"/><path fill="#b0a98b" d="M101 53h34v15h-34z"/><path fill="#fff" d="M161.8 73.4l-19.7-1.7 11.2 18.1 4.6-1.6z"/><path fill="#bfa588" d="M131 84h23v8h-23z"/><path fill="#393d35" d="M247.5 34.1v24.4l-7 19-7.7-.8z"/><circle r="1" fill="#6e422b" transform="matrix(-11.16481 -47.48704 2.2105 -.51972 24.7 9)"/><circle r="1" fill="#222919" transform="matrix(-6.04385 11.36683 -42.07174 -22.36994 130.7 114.3)"/><path fill="#fffffa" d="M234 180l-15 7h14z"/><path fill="#635143" d="M64.9 27.3l50.5-15.9L88.9 18l-2.6-9.4z"/><circle r="1" fill="#5b7440" transform="matrix(.49463 -6.42825 74.56005 5.73708 248.4 179.5)"/><path fill="#c4e6f4" d="M34.4 75.1l-2.3 8.7-1.3-21.6L49.3 68z"/><path fill="#331d1b" d="M28.3 167.3l-6.6-9.7 19.9-22.7 14.1 24.3z"/><path fill="#81a27f" d="M7.4 177.8l16.2-8 7 14.4-16.2 8z"/><path fill="#345509" d="M53 181.3l1 6-9 1.4-1-6z"/><ellipse cx="4" cy="105" fill="#ffc79a" rx="3" ry="14"/><path fill="#4e443c" d="M198.2 45.8l-26.1 2.4-107.7-7.9 103.2 21.2z"/><path fill="#c9c8a8" d="M55 16h10v34H55z"/><circle r="1" fill="#f8a57f" transform="matrix(-4.9927 5.03096 -19.15678 -19.01107 199.6 85)"/><ellipse cx="83" fill="#b7ba9b" rx="30" ry="11"/><path fill="#384a22" d="M226 141l6-33-51 63z"/><path fill="#8e5a3b" d="M199.3 63l27.4 30.6-6 5.3-27.4-30.5z"/><path fill="#2a2720" d="M20 86l-6 15-22-44z"/><path fill="#ce8a6e" d="M96 111l26 30-15-1z"/><path fill="#557244" d="M106 189l8-48-52 66z"/><path fill="#c5834d" d="M200.7 45.4l7.4-7.4 22.3 29.7-43.1-42z"/><path fill="#f39f58" d="M251.4 10.8L271 116.9l-49.1-20.3L248.2 70z"/><path fill="#050d11" d="M203.1 17.2l13.7-31.4-26 33.4 24.2 5.9z"/><ellipse cx="87" cy="93" fill="#cf9891" rx="3" ry="11"/><path fill="#eef2ff" d="M242 186h10v6h-10z"/><path fill="#d06861" d="M67 153l-6 12 25-8z"/><path fill="#fff" d="M148.5 106.8l12.8 10.1-9.8-13.9-4.3.1z"/><path fill="#774c42" d="M198 122.1l-9.7-12.4-26 4.3 2.3 14.4z"/><path fill="#1f1e17" d="M90 84h10v33H90z"/><path fill="#ffce98" d="M16 19h5v36h-5z"/><circle r="1" fill="#475835" transform="matrix(51.56862 -7.10177 4.19898 30.4904 176.2 173.3)"/></g></g></svg>