<svg xmlns="http://www.w3.org/2000/svg" viewBox="0 0 1200 1800"><defs/><filter id="a"><feGaussianBlur stdDeviation="12"/></filter><rect width="100%" height="100%" fill="#443732"/><g filter="url(#a)"><g fill-opacity=".5" transform="translate(3.5 3.5) scale(7.03125)"><path fill="#f6e8d2" d="M77 70.9L102.9 43 135 73l-25.9 27.8z"/><path d="M-82.1 15L48.6-3.5 84.1 249l-130.7 18.3z"/><circle r="1" transform="matrix(43.1757 8.84537 -33.91841 165.5613 157 144.2)"/><ellipse cx="100" cy="5" rx="169" ry="24"/><circle r="1" fill="#fdc059" transform="rotate(-95 140.4 64.8) scale(22.72827 6.03705)"/><path fill="#796e6d" d="M52 44h50v61H52z"/><path fill="#ffecc5" d="M82 145h8v25h-8z"/><path fill="#c5b8a5" d="M93 63h46v27H93z"/><circle cx="153" cy="243" r="59" fill="#000501"/><circle r="1" fill="#0b0e08" transform="matrix(-80.55735 14.1211 -3.43933 -19.6205 41.2 137.7)"/><path fill="#5c4f44" d="M112 16l45 89-78-76z"/><circle r="1" fill="#000205" transform="matrix(-7.88378 -26.70321 52.68301 -15.55399 26 243.8)"/><path fill="#dbd4c8" d="M89.3 71.6l18.1 16 11.7-6.1 13.1-15.3z"/><circle r="1" fill="#050705" transform="matrix(-9.0297 103.21 -31.71292 -2.77452 .5 73.2)"/><path fill="#4f5148" d="M100 86h42v24h-42z"/><path fill="#0c0f0b" d="M116 46l14-62 52 56z"/><path fill="#736551" d="M77.8 142.1l19.1-8-13.2 38.7 38.7 6.3z"/><path fill="#453d3b" d="M63.9 123.8L27.6 63.5l54.7-14.4-14.1-17.6z"/><path fill="#645a33" d="M73 172l-17-2 10 50z"/><ellipse cx="14" cy="213" fill="#6d6337" rx="4" ry="21"/><ellipse cx="156" cy="151" fill="#0d120d" rx="53" ry="32"/><path fill="#f9ca71" d="M84 193h6v26h-6z"/><circle r="1" fill="#0e0f0c" transform="matrix(76.66573 -58.0077 13.25374 17.51677 47.3 20.8)"/><path fill="#0e0f07" d="M85.2 145.4l-4.9 23.9-12 .8-77.7-1.8z"/><path fill="#a48c79" d="M96.9 147l-5.7 13.7-16.7-27.3 5.2 6.2z"/><path fill="#333129" d="M137.5 59.4l-13.7 64.3 36.9-26.2-28.6-73.8z"/><path fill="#3f2f15" d="M93 256l-29 7 51-72z"/><path fill="#69605c" d="M98.4 70.9l-48.9-9.5 55.9 53-15.8-39.1z"/><ellipse cx="67" cy="181" fill="#342f1b" rx="46" ry="9"/><circle r="1" fill="#efe7d9" transform="matrix(1.75753 .66445 -3.2061 8.4805 86.8 154)"/><path fill="#71605b" d="M129 50.6L81.1 34l-.2 22.1 29.2 5.4z"/><path fill="#d4d3cc" d="M124.9 78l-9.1 6.1 3.6-29.4-13.9 35.1z"/><path fill="#8b622e" d="M90 191h7v40h-7z"/><path fill="#201d19" d="M54.6 62.3L21.1 12.7l40.4 43.7 21.7 4z"/><path fill="#8c7558" d="M125.5 70.2l3.8 15.8-17.8 12.7 38.1-46.5z"/><path fill="#000101" d="M0 181h10v75H0z"/><circle r="1" fill="#23231e" transform="matrix(51.47448 -17.03167 4.40253 13.3057 123 118)"/><path fill="#936a34" d="M85.3 185.2l-4.7 53.5 16.7 4.2-16.2 4.1z"/><path fill="#1f1f19" d="M87.1 165.1l84.1-93.7-39.6 105.4L87.3 161z"/><path fill="#9e7e54" d="M71 173l10 3 2-9z"/><path fill="#918149" d="M64 190h3v28h-3z"/><path fill="#14140f" d="M59 232h82v8H59z"/><path fill="#493f3e" d="M82 18h35v23H82z"/><path fill="#c49453" d="M82 187l-3 6 20 2z"/><circle r="1" fill="#38352f" transform="matrix(-1.67307 16.77305 -9.0877 -.90647 81.3 108)"/><path fill="#88756f" d="M67.5 101.6l6.8 14.9-8.6-39.6 10.6-6.3z"/><path fill="#07090d" d="M22 197h37v53H22z"/><path fill="#898a80" d="M89 107l6-9 10 11z"/><circle r="1" fill="#141311" transform="matrix(-60.53284 -33.48622 12.38092 -22.38091 150.6 16.4)"/><path fill="#89776c" d="M80.3 41.8L103 58.7l13.4-21.5-24.5 16.3z"/><path fill="#161513" d="M74 248h37v8H74z"/><path fill="#876c52" d="M80 135h2v38h-2z"/><path fill="#9c8b95" d="M57.4 101.4l6.2-19 1 .2-6.2 19z"/><path fill="#26241e" d="M121.4 53.7l-3 .8 64.3-24.1-64.8 35.2z"/><circle r="1" fill="#2b291e" transform="matrix(-10.68414 27.4034 -9.7495 -3.80117 111.6 201.3)"/><path fill="#c6b8a7" d="M96 80l14 13-11-43z"/><path fill="#4c4339" d="M141.9 84.5L140 88l-15.9-8.5L126 76z"/><path fill="#10100c" d="M-16 78.9l27.5 73.4 56-62.6-24.8 15.1z"/><path fill="#7c7362" d="M100 158h5v8h-5z"/><path fill="#a2742f" d="M80 221h7v10h-7z"/><path fill="#655645" d="M44.8 72.4L31.6 99.3l18.1-23.2L31 69.5z"/><path fill="#23201b" d="M124.2 40.7l-12 22.5 7.1-59.8 45 48.6z"/><ellipse cx="42" cy="171" fill="#494026" rx="34" ry="2"/><path fill="#111308" d="M22.2 174.5L3.4 198l37.8 1.9-12.1 3.2z"/><path fill="#534b2c" d="M17.1 246.8L10 198.1l9.9.9-6.1 44.3z"/><path fill="#bc9b77" d="M32 70h11v2H32z"/><path fill="#282220" d="M87.2 27.9l-9 1-13.1 40.9 25.7-52z"/><path fill="#0c0c09" d="M19 137h40v34H19z"/><path fill="#534f4e" d="M73 58l17 12-38 3z"/><path fill="#141210" d="M67-16l-5.4 57.4 31.6-.3-80.4-15.4z"/><ellipse cx="90" cy="36" fill="#7a6c74" rx="2" ry="17"/><path fill="#beae9c" d="M107.9 76.1l-23.1-19 22.3 7.6 30.9 8.1z"/><circle r="1" fill="#050508" transform="matrix(9.53572 -35.22082 19.39535 5.25112 155.2 243.5)"/><path fill="#1f1d17" d="M42.3 108l89.9 29.5L91.8 117l-28.5 53.6z"/><path fill="#927c69" d="M124.3 49.2l-21.5 6.7 11.6-9.9-14 21z"/><path fill="#64615d" d="M68.9 71.8L66 42l8.1-6.9-12.4 24.5z"/><path fill="#ac9e98" d="M81.2 64.3l-.9-.4 4.5-12.2.9.4z"/><circle r="1" fill="#191813" transform="rotate(-125 28.9 16.5) scale(16.81842 26.45259)"/><path fill="#dbe0e3" d="M120.3 77.5l-8.7-9.9-1.8 14.5 6.1 2z"/><ellipse cx="72" cy="216" fill="#18180c" rx="7" ry="26"/><circle r="1" fill="#433428" transform="rotate(-168.1 54.3 14.3) scale(1 20.81293)"/><path fill="#08090b" d="M23.9 254.9L7.6 203.4l-15.3 38.5 40.1-25.4z"/><path fill="#342d20" d="M44 175h76v14H44z"/><path fill="#141411" d="M185 173l-88 64 87-198z"/><path fill="#74645a" d="M110 45l-2-19 7-9z"/><path fill="#554f49" d="M128 84h15v8h-15z"/><path fill="#363129" d="M83.4 87.3l23.8 16.6-.6.8-23.8-16.6z"/><path fill="#1f140e" d="M85 227.4l.2-1 9.8 2.2-.2 1z"/><path fill="#bca597" d="M66 77h9v3h-9z"/><path fill="#36322a" d="M42.2 116.8l47.9-9.7 42.5 12.1-88.6-.6z"/><path fill="#ac9e98" d="M60.2 75.9l-5.6-4.2 1.2-1.6 5.6 4.2z"/><circle r="1" fill="#8e838d" transform="matrix(1.44596 1.89006 -4.56537 3.49265 92.4 47)"/><path fill="#c5bdb0" d="M109.4 59.6l-8.3 11.7 18.5 18.1-5.6-.4z"/><path fill="#2c2722" d="M14.7 97l49.9-25.4L26 106.4l25.4-16.7z"/><path fill="#292528" d="M58 115l11-8-6-15z"/><path fill="#2e261f" d="M105.8 63.4l7.7-16.2 46.9-48.5-31.2 30.9z"/><path fill="#322d2f" d="M58.8 77.7L43.4 59l35.2 20.1-61.8-23z"/><path fill="#45413b" d="M134 103.2l-3.2-9.4 24.7-27.9-51.4 38.4z"/><path fill="#504028" d="M93 220l-1-28 19-5z"/><path fill="#332c2c" d="M107.1 33.3l-17 9.5 47.1-5.4-44.7-2.5z"/></g></g></svg>