<svg xmlns="http://www.w3.org/2000/svg" viewBox="0 0 1800 1200"><defs/><filter id="a"><feGaussianBlur stdDeviation="12"/></filter><rect width="100%" height="100%" fill="#49402a"/><g filter="url(#a)"><g fill-opacity=".5" transform="translate(3.5 3.5) scale(7.03125)"><circle cx="176" r="91" fill="#7bc5ff"/><path fill="#fff" d="M100.3 88l45 48.2L59.7 216l-45-48.2z"/><circle r="1" fill="#7aa9f3" transform="matrix(5.79087 -22.6592 186.20385 47.58698 152.3 33.3)"/><circle r="1" fill="#fff" transform="rotate(37.8 -145.6 188.4) scale(15.92741 35.7324)"/><circle r="1" fill="#907056" transform="matrix(-76.04131 58.48866 -34.36409 -44.67687 7.7 102)"/><circle r="1" fill="#251a00" transform="matrix(-3.65468 14.35738 -45.51803 -11.58663 151.8 74.2)"/><circle r="1" fill="#8a755b" transform="matrix(42.75155 26.05689 -22.5458 36.9909 135.8 161.4)"/><ellipse cx="229" cy="73" fill="#7e7d7a" rx="65" ry="22"/><path fill="#e975b5" d="M0 65h49v20H0z"/><ellipse cx="136" cy="4" fill="#356fc8" rx="90" ry="27"/><path fill="#18191d" d="M37 163h100v7H37z"/><path fill="#fff" d="M52.7 136.2l34-24.7 14.6 20.3-34 24.7zM21.8-2.8L21 19.3 35.5 7.6 31-16zM250 68h6v24h-6z"/><ellipse cx="192" cy="62" rx="15" ry="5"/><ellipse cx="225" cy="128" fill="#1b352b" rx="32" ry="59"/><ellipse cx="59" cy="68" fill="#061109" rx="8" ry="26"/><path fill="#887d68" d="M182.1 167.6l-69.3-3 4.7-66 61.5 52.1z"/><path fill="#ffffe4" d="M200 65.9l3.2-2.5.4 17.6 23.2-16.7z"/><ellipse cx="227" cy="36" fill="#7da6d3" rx="139" ry="23"/><circle r="1" fill="#fffbe0" transform="matrix(-2.45384 -6.0283 34.20076 -13.92157 96.7 116)"/><path fill="#cddcda" d="M180.3 61.3l-6.1 13.2-4.7 10.3-7.1-40.1z"/><path fill="#ffffec" d="M71 108h17v54H71z"/><circle r="1" fill="#293915" transform="matrix(3.54507 18.3312 -33.67755 6.5129 133 73)"/><ellipse cx="12" cy="29" fill="#ab648b" rx="29" ry="7"/><path fill="#22312b" d="M118 108h66v18h-66z"/><path fill="#e3d6cd" d="M138 103l12-15-12 2z"/><path fill="#66611f" d="M97.3 96.4l-62 53.8-48.9-50 121.1-26.3z"/><path fill="#ff9ad4" d="M4.4 98.3l7.8-12.5-1.8-5.7L-16 97.5z"/><circle r="1" fill="#031a03" transform="rotate(-132.6 19.4 12.8) scale(19.1908 4.41854)"/><path fill="#162943" d="M55 148l-14 14 20-1z"/><path fill="#5b9ce2" d="M66-9.8L39.5.5l151.9 44.9L69 36.5z"/><path fill="#454e4a" d="M156 117l25-52 68 37z"/><path fill="#131107" d="M102 133l16 1-17-14z"/><path fill="#292613" d="M11.5 117.2l-27.5 4.1 37.4-39 20.9 8.5z"/><path fill="#f9f5e5" d="M105 90l-83 71 92-42z"/><path fill="#a1c6d7" d="M106 47h116v9H106z"/><path fill="#96636b" d="M87.3 52.6L40.4 21.5l39.8 55.4 13.9 26.8z"/><ellipse cx="157" fill="#4772b4" rx="104" ry="27"/><circle r="1" fill="#817b44" transform="matrix(4.284 -22.47305 33.99276 6.48 2.7 141.5)"/><path fill="#faf6f2" d="M5.1 175.2l22.3-16.8 7 12.8-48.8 13.8z"/><path fill="#303526" d="M57.9 77.6L28.5 6.1 55.9 47l24.4-11.6z"/><path fill="#0f1c10" d="M194.9 108.4l76.1 14.4-7 23-73.3-16z"/><path fill="#27381c" d="M96.8 89.2l11-26.5 38.8-13.4-12.6 51z"/><path fill="#a6c3d6" d="M163.3 47.3l-21.9 24.5 8.4-29.4L165 58.8z"/><path fill="#fff9e7" d="M62.1 170.3l14.1-65.9 25.1 22.9-20.6 28.2z"/><path fill="ivory" d="M29.3 17.4l7.6-21.3L21.2-16l.1 25.9z"/><circle r="1" fill="#7f94b5" transform="matrix(-13.30155 20.77778 -26.42238 -16.91512 208.9 28.3)"/><path fill="#081607" d="M82.3 80.2l-2 5.6-40.6-14 2-5.6z"/><path fill="#8b7b63" d="M120.3 164.5l9.5-53 61.3 60.5-77.3-11.9z"/><path fill="#525562" d="M216 70h34v29h-34z"/><path fill="#fff" d="M252.2 73.5l16-24.5 2.8 46.1-22.4-5.2z"/><path fill="#ffffe2" d="M222.5 67l-41 3v-1l41-3z"/><path fill="#353c23" d="M-8.9-16l28.5 53.7-35.6-.4 60.6 20.9z"/><path fill="#a68b69" d="M162.6 127.7L60 168.3l86.6-13.2-4.6-33.7z"/><path fill="#1e2122" d="M114.2 134.4L177 79l14.1 6.1-64.3 22.3z"/><path fill="#605446" d="M39 5l28 9-51 12z"/><circle r="1" fill="#b06791" transform="matrix(13.8188 -1.19308 .49172 5.69532 59.8 38)"/><path fill="#cc7298" d="M11 36.7l4-.3-8.3-15.9-22.1 1.1z"/><path fill="#303f36" d="M195.6 153.7l-.3-77-14.5 52.6-29.9 9.3z"/><circle r="1" fill="#a1844d" transform="matrix(6.02194 -18.5342 4.55202 1.479 88.2 91.3)"/><path fill="#aea284" d="M21 139l-24 27 24-11z"/><path fill="#ceb995" d="M95.8 122.8l-27.5 13.3 53-25.2-3.3 21.3z"/><path fill="#74b3e6" d="M65.3 15l45.6 40.7 79.2-8.3-86.5-10.7z"/><path fill="#444e2c" d="M96.8 44l-2.1-8.6-12.5 39.1 63.1 19.9z"/><path fill="#d2789e" d="M16.2 40.6L31.5 22l8.1 12.3-25.1.9z"/><path fill="#c87594" d="M82 73l2-29-12 15z"/><path fill="#011800" d="M110 86h3v20h-3z"/><path fill="#766832" d="M19 76.8l4.1 19.7 56.6 7.1-54.6 56.9z"/><path fill="#636663" d="M190.1 98.3l23.7-25.1 6 34.1L150 98z"/><path fill="#fff" d="M168 72h5v11h-5z"/><path fill="#a7b6cf" d="M209 43l60 10-13-24z"/><path fill="#3b3f13" d="M191.4 60.9l39.5 3.3-51 1.7 2.1-13.1z"/><path fill="#fff" d="M99 90h6v25h-6z"/><path fill="#e1c7a8" d="M222 65h26v4h-26z"/><path fill="#34322c" d="M62 166h102v4H62z"/><circle r="1" fill="#514d30" transform="matrix(1.2902 1.5376 -39.30803 32.98335 28.8 153.3)"/><circle r="1" fill="#74534b" transform="matrix(-17.51649 -10.52497 4.28623 -7.1335 1.3 7)"/><path fill="#5c6978" d="M-16 182l84.2-7.6-15.5-37.5-8 29.2z"/><path fill="#343e27" d="M11.6 42.3L44 63.4 5 61.7l63.9-40.2z"/><path fill="#283424" d="M149.2 87.1l57.7 81.8-75-72.8 5.2 47.5z"/><path fill="#745b41" d="M130 168.8L97.2 159l-6.7-18.9-3.8 21.9z"/><path fill="#ab6786" d="M53.3 62.6l-7.7 32.9L46.9 51 29.5 34.2z"/><path fill="#b2a183" d="M187.1 157.1L170.6 144l-10.6 2 5.3 4.5z"/><path fill="#121f16" d="M108 80L93 95l2-13z"/><path fill="#524936" d="M4.2 59.6L32.3 72 11.4 52.3l89.9-.2z"/><path fill="#2f2f22" d="M15 59.5l-31-12.3L4.8 28.6l-17.6 48.9z"/><path fill="#2c351a" d="M115 66l12 39 20-56z"/><path fill="#376cae" d="M171-15L81 2l125 25z"/><path fill="#232d26" d="M203 150l-34 8 57 22z"/><path fill="#9ba19c" d="M246.9 99.2l8.3-11.7 1.3 22.5 3.5-11.6z"/><path fill="#fff" d="M204 69l17-3-17 12z"/><path fill="#a3768f" d="M19 53L5.9 57.5 3 49l13.3-4.5z"/><path fill="#ce7a95" d="M20.5 84.5L-16 98.6l47.9-36.3L-16 74.7z"/><path fill="#191f0f" d="M47.5 70.9l7 15.1 21.3-5.9 6-6.2z"/><path fill="#222628" d="M102.6 115.5l1.8 16.9-1 .1-1.8-16.9z"/><path fill="#343c41" d="M172 77.8l-1.3-3.7 11.3-4 1.3 3.8z"/><path fill="#212b11" d="M40.4 50.3l-28.5 1.1 7 14.1 2.3-34z"/><path fill="#8095b4" d="M204 43h52v20h-52z"/><ellipse cx="235" cy="22" fill="#6087c2" rx="46" ry="10"/></g></g></svg>