<svg xmlns="http://www.w3.org/2000/svg" viewBox="0 0 1800 1200"><defs/><filter id="prefix__a"><feGaussianBlur stdDeviation="12"/></filter><rect width="100%" height="100%" fill="#3c4c68"/><g filter="url(#prefix__a)"><g transform="translate(3.5 3.5) scale(7.03125)"><ellipse cx="134" cy="11" fill="#cbdfef" fill-opacity=".5" rx="255" ry="57"/><path fill="#ebe4cd" fill-opacity=".5" d="M200 122.3l9.6-68.3 54.4 7.7-9.6 68.3z"/><path fill="#dfcdae" fill-opacity=".5" d="M60 185l145-29-124-12z"/><circle r="1" fill="#2b4771" fill-opacity=".5" transform="matrix(41.10836 -15.99774 23.68353 60.85803 173.2 0)"/><circle r="1" fill="#0b1517" fill-opacity=".5" transform="matrix(-9.22461 -27.60541 51.18086 -17.10257 133.7 119.7)"/><path fill="#d1e0ef" fill-opacity=".5" d="M78 64.1L-34.3 32-20-18 92.4 14z"/><path fill="#b6a589" fill-opacity=".5" d="M294.8 173.4l-131 2.2-.6-31 131-2.2z"/><circle r="1" fill="#0f181a" fill-opacity=".5" transform="matrix(16.65682 22.10435 -51.78656 39.02397 34.5 157.6)"/><circle r="1" fill="#637484" fill-opacity=".5" transform="rotate(-65.1 72.4 10) scale(20.59434 41.50964)"/><circle r="1" fill="#efe6d0" fill-opacity=".5" transform="rotate(105.2 103.4 101) scale(72.91278 8.93459)"/><circle r="1" fill="#000501" fill-opacity=".5" transform="rotate(-106.9 170.2 -25.6) scale(5.65919 48.40444)"/><path fill="#fffffe" fill-opacity=".5" d="M76.3 154.8l22.6-4.9-8.1 35.1h-7.1z"/><path fill="#1f303f" fill-opacity=".5" d="M108 67h93v45h-93z"/><circle r="1" fill="#e9dcbe" fill-opacity=".5" transform="matrix(-2.3268 -.62596 9.4461 -35.1128 197.5 32.8)"/><path fill="#9b988a" fill-opacity=".5" d="M184 110l13 21 73-11z"/><path fill="#cac6bc" fill-opacity=".5" d="M179 153l48 20-62-48z"/><path fill="#fefcf5" fill-opacity=".5" d="M10 5h58v12H10z"/><circle r="1" fill="#5e7ca3" fill-opacity=".5" transform="matrix(62.591 49.60901 -11.17551 14.09999 130 18.5)"/><ellipse cx="153" cy="166" fill="#6f6c6a" fill-opacity=".5" rx="52" ry="13"/><circle r="1" fill="#2b3a4e" fill-opacity=".5" transform="matrix(-6.45746 -1.23267 14.27682 -74.79038 206.9 48)"/><path fill="#292b2e" fill-opacity=".5" d="M182.6 148.6l1.3-4.8 43.5 11.6-1.3 4.8z"/><ellipse cx="14" cy="73" fill="#5c6c80" fill-opacity=".5" rx="43" ry="26"/><circle r="1" fill="#91a9c1" fill-opacity=".5" transform="rotate(117.7 26.5 44.3) scale(17.97718 44.4483)"/><path fill="#1f282f" fill-opacity=".5" d="M137 108l43 34-51 10z"/><circle r="1" fill="#ccc3b2" fill-opacity=".5" transform="matrix(-.9627 -.2706 9.10117 -32.37844 181.9 87.9)"/><path fill="#c3c2c0" fill-opacity=".5" d="M110 165.4L88 145l4-4.4 22 20.4z"/><path fill="#d8d8cf" fill-opacity=".5" d="M166 152l16-3 3-23z"/><path fill="#324e7a" fill-opacity=".5" d="M206-20.2l-13 56.5-35-8 13-56.6z"/><path fill="#aaa194" fill-opacity=".5" d="M81 185l-11-18 9-31z"/><circle r="1" fill="#a5a5a2" fill-opacity=".5" transform="matrix(22.60979 -69.58577 11.2911 3.6687 244.6 28.9)"/><path fill="#171923" fill-opacity=".5" d="M259.2 163.2l-45-9.5.6-3 45 9.6z"/><path fill="#fcf5dd" fill-opacity=".5" d="M183 129l7-9-4-7z"/><path fill="#e0e4de" fill-opacity=".5" d="M140 150h36v3h-36z"/><path fill="#e0d4b9" fill-opacity=".5" d="M271 139l-34 5 29-16z"/><path fill="#101617" fill-opacity=".5" d="M194 133h58v8h-58z"/><circle r="1" fill="#838382" fill-opacity=".5" transform="matrix(17.08597 -9.3931 .48175 .8763 135.5 140.7)"/><path fill="#384a5d" fill-opacity=".5" d="M156.1 89.8l-19.7 16.1-150.5 28.8 118-69.3z"/><path fill="#b3b5ad" fill-opacity=".5" d="M213.9 100.6l-24.8 45.1 17.4-64.3L248.9 9z"/><path fill="#b5bfc3" fill-opacity=".5" d="M57 51h48v16H57z"/><path fill="#0f1c2c" fill-opacity=".5" d="M74.9 132.3l-1.6-22 95.8-6.6 1.6 22z"/><path fill="#0f1c2b" fill-opacity=".5" d="M187 74h13v37h-13z"/><path fill="#0f1824" fill-opacity=".5" d="M1 161l66 24 5-42z"/><path fill="#ecedea" fill-opacity=".5" d="M196.1 152.8l53.3 32.2-44.4-21.6-1.9-1.9z"/><path fill="#4e4b41" fill-opacity=".5" d="M165 116.6l19.9 19 13.7 2-9.8 15.8z"/><path fill="#717983" fill-opacity=".5" d="M211 67l-19-1 28-42z"/><path fill="#425169" fill-opacity=".5" d="M120 160.7v7l-22-.4v-7z"/><path fill="#0f1a21" fill-opacity=".5" d="M166 138l3 10-33 2z"/><path fill="#586a7f" fill-opacity=".5" d="M-16 108L3 48l88 24z"/><ellipse cx="24" cy="141" fill="#2d3a4b" fill-opacity=".5" rx="41" ry="14"/><ellipse cx="255" cy="61" fill="#848b94" fill-opacity=".5" rx="12" ry="63"/><path fill="#fefffd" fill-opacity=".5" d="M128 152h17v2h-17z"/><circle r="1" fill="#e4dfd9" fill-opacity=".5" transform="matrix(1.171 -1.03366 4.39557 4.97959 168.6 129)"/><path fill="#6c6c6d" fill-opacity=".5" d="M77.1 143.9l27.1 8.8-8-13.3L68 166.7z"/><circle r="1" fill="#d7d7d0" fill-opacity=".5" transform="rotate(15.1 -34.7 858.2) scale(4.60699 57.34509)"/><path fill="#5a77a1" fill-opacity=".5" d="M82-6.4L98.3-29 180 30.4 163.6 53z"/><path fill="#808483" fill-opacity=".5" d="M196.2 124l-1.8 11.1 68.1-16.1-10-7.6z"/><circle r="1" fill="#bcc3c3" fill-opacity=".5" transform="matrix(-31.88466 4.1411 -.1288 -.99167 232.3 144.2)"/><path fill="#d3dfe7" fill-opacity=".5" d="M121.6 185l.2-16.5-1.7-1.3-33.3 4.7z"/><circle r="1" fill="#31476e" fill-opacity=".5" transform="rotate(23.9 96.2 511.2) scale(7.26442 27.3098)"/><path fill="#7996bc" fill-opacity=".5" d="M61 24h59v16H61z"/><path fill="#17222f" fill-opacity=".5" d="M124.7 140L108 154.2 89.3 132l16.8-14.2z"/><path fill="#7f878e" fill-opacity=".5" d="M145 32l8 35h54z"/><path fill="#1a262f" fill-opacity=".5" d="M196 133l75-12-45 22z"/><path fill="#212931" fill-opacity=".5" d="M147.7 98.1l28.3 22.1 11.9-35.7-5.7 57.3z"/><path fill="#bfbdb9" fill-opacity=".5" d="M181 130h3v39h-3z"/><path fill="#132336" fill-opacity=".5" d="M180.6 68.7l-.3 17-27-.4.4-17z"/><path fill="#dfe0d5" fill-opacity=".5" d="M187 65.3l-1-.2 35-130.4 1 .2z"/><path fill="#d7d3cc" fill-opacity=".5" d="M113.5 151.7l-45.2 20.2 6.4-9.7 36.6-3z"/><path fill="#192636" fill-opacity=".5" d="M207 67l-12 53-9-27z"/><path fill="#e0e3e5" fill-opacity=".5" d="M92.4 20.9L84.6 8.4l9.3 5.6-81.6-8z"/><path fill="#7491b8" fill-opacity=".5" d="M16 6l-30-3 59-19z"/><path fill="#000917" fill-opacity=".5" d="M203 141h16v4h-16z"/><path fill="#4e6278" fill-opacity=".5" d="M45 67h51v33H45z"/><path fill="#bbcad9" fill-opacity=".5" d="M18.1 33.4L-16 31.5l17.4 15 35.4-.9z"/><path fill="#6e8fbc" fill-opacity=".5" d="M109.6 7.5L52.9 17l21.7-4.3L23.2-16z"/><path fill="#7c7873" fill-opacity=".5" d="M176.4 151.4l30.1-14.3-64.6 47.9-30.8-28.4z"/><ellipse cx="8" cy="145" fill="#020e1a" fill-opacity=".5" rx="11" ry="4"/><path fill="#2d3d51" fill-opacity=".5" d="M133 100l-68-1 10 25z"/><path fill="none" stroke="#f2f3ed" stroke-opacity=".5" stroke-width=".5" d="M166.4 129q20 11.9 13.6 30.3"/><ellipse cx="188" cy="129" fill="#161813" fill-opacity=".5" rx="3" ry="7"/><ellipse cx="85" cy="141" fill="#5f656f" fill-opacity=".5" rx="49" ry="1"/><path fill="#f3efe7" fill-opacity=".5" d="M80 156h16v9H80z"/><path fill="#343a42" fill-opacity=".5" d="M178 140l-12-10-18 9z"/><path fill="#95acc7" fill-opacity=".5" d="M93 50L-16 14l77 2z"/><path fill="#2c3b49" fill-opacity=".5" d="M-14 106.5l46.6-8.8L13 167.2l8-58.5z"/><path fill="#95958e" fill-opacity=".5" d="M188 111h5v11h-5z"/><path fill="#afa99d" fill-opacity=".5" d="M202.4 9.9l-24.6 95.4 4.2-12.9 13.1-40.3z"/><path fill="#6b615f" fill-opacity=".5" d="M242 165l17-8-46-1z"/><path fill="#989994" fill-opacity=".5" d="M199 105l2 25 28-5z"/><path fill="#f3f3f0" fill-opacity=".5" d="M6 8h58v5H6z"/><path fill="#918b85" fill-opacity=".5" d="M80 143h14v7H80z"/><path fill="#d6d5d2" fill-opacity=".5" d="M178 151h-7l1-10z"/><path fill="#242e3a" fill-opacity=".5" d="M79 129h18v15H79z"/><circle r="1" fill="#a8a59f" fill-opacity=".5" transform="rotate(-26.4 368.6 -215.7) scale(9.03837 1)"/><path fill="#0c1722" fill-opacity=".5" d="M76.2 131.8l14-6-32.2-4.6-10.1 7.2z"/><path fill="#000a1b" fill-opacity=".5" d="M175 145.2l-3-.5 1-6 3 .6z"/><path fill="#88a0bf" fill-opacity=".5" d="M47.8 8.6L30.8 0l1.4-2.6 17 8.6z"/><path fill="#515a68" fill-opacity=".5" d="M4 55h31v12H4z"/><circle r="1" fill="#364e72" fill-opacity=".5" transform="rotate(74.9 94.2 122.8) scale(18.771 12.76834)"/><ellipse cx="16" cy="70" fill="#647690" fill-opacity=".5" rx="55" ry="4"/></g></g></svg>