<svg xmlns="http://www.w3.org/2000/svg" viewBox="0 0 4032 2688"><defs/><filter id="a"><feGaussianBlur stdDeviation="12"/></filter><rect width="100%" height="100%" fill="#563e2a"/><g filter="url(#a)"><g fill-opacity=".5" transform="translate(7.9 7.9) scale(15.75)"><circle cx="70" r="105" fill="#c2ead9"/><circle r="1" fill="#577a7a" transform="matrix(-33.24261 23.43758 -90.69986 -128.64382 248.2 107.4)"/><circle cx="136" cy="147" r="86" fill="#2f3842"/><circle r="1" fill="#626262" transform="matrix(32.79612 -29.84218 76.50295 84.07565 48.2 142.7)"/><circle r="1" fill="#f6ebeb" transform="matrix(3.838 8.68912 -46.89764 20.7148 96 55.5)"/><ellipse cx="176" cy="142" fill="#000911" rx="43" ry="24"/><circle r="1" fill="#887063" transform="rotate(63.8 .7 138.8) scale(27.51956 61.78493)"/><ellipse cx="25" cy="63" fill="#565058" rx="12" ry="53"/><ellipse cx="130" cy="7" fill="#9ad896" rx="39" ry="43"/><path fill="#eefbf7" d="M40.4 35.8l-4.8 63.9 13.1-84.6-6.8 9.7z"/><ellipse cx="9" cy="42" fill="#e8ffdf" rx="5" ry="24"/><ellipse cx="242" fill="#072e3d" rx="70" ry="22"/><circle r="1" fill="#f7d4cf" transform="rotate(-145.5 46.4 28.3) scale(5.5862 33.99702)"/><path fill="#8d857a" d="M208 68h48v34h-48z"/><ellipse cx="22" cy="109" fill="#d6e2c9" rx="2" ry="37"/><path fill="#232f32" d="M9 63h10v90H9z"/><path fill="#ac9792" d="M71.4 66.9L147 92l-24.2-21.7 31.8-36.7z"/><path fill="#9e8676" d="M57.1 93.5l12-26.2-33.6 13.3-1.6 44z"/><circle r="1" fill="#7ec17b" transform="matrix(8.52897 -4.86484 15.91975 27.9103 159.4 30.5)"/><path fill="#c7d9c9" d="M45 125h6v21h-6z"/><ellipse cx="76" fill="#9bd9a3" rx="23" ry="20"/><path fill="#2f4036" d="M211 64l-62-12 4 24z"/><path fill="#d2b09d" d="M245 156.6l26-2.3-26.8 20.7 6.3 6z"/><path fill="#d0baa7" d="M111 143l-4.2-13.3-.6 5.3-3.8 22.8z"/><path fill="#e4e9e6" d="M129.9 32l26.9 10.3-4.4 3-43.4-3.2z"/><path fill="#453c38" d="M94 89h128v32H94z"/><path fill="#d0e0c5" d="M3.8 93l-.6-38h5l.6 38z"/><path fill="#bce2ba" d="M3 27l-19-9 46-34z"/><path fill="#5c6058" d="M45 8h7v73h-7z"/><path fill="#202829" d="M148 185l17-84-86 84z"/><path fill="#222b28" d="M21.8 150.1l45.6-13.8-50.8 45.8 3.1-22.8z"/><path fill="#afac8b" d="M21 140l-8 40-2-25z"/><circle r="1" fill="#272d32" transform="rotate(95.6 -58.9 71.3) scale(59.07501 6.15308)"/><path fill="#fff" d="M48 71l36-9 10-17z"/><path fill="#a1a591" d="M162 99l-3-12 20 13z"/><ellipse cx="53" cy="73" fill="#effcda" rx="2" ry="30"/><path fill="#3d5d5d" d="M148.6-10.5l-5.5 21.2 52.6-9.1-4.6 42z"/><path fill="#7f6963" d="M88.8 22.8l29 12.2-47.5 20.4-.4-26.8z"/><path fill="#212427" d="M271 124.6l-71.9-21.1 71.9-1.4-87.8 8.5z"/><path fill="#6b4846" d="M96.2 70.1l48.9 43.4-70.8-22.4-9-3.1z"/><path fill="#565b6c" d="M38 59L28 14l14-6z"/><path fill="#c0e5cf" d="M159.8 10.7l-9.4 10.5-50.8-35.4L161.3 14z"/><path fill="#8e7567" d="M43 155l-14 30 60-36z"/><path fill="#def1e4" d="M92.1.2l-7.2 2.9-3.3 7 17.5-3.8z"/><path fill="#795e58" d="M45.9 127.2l14.8-60.1 7.8 7.2-15 20.3z"/><path fill="#5f6867" d="M3.7 38.4L-16-4.9 1.2 139.3l3.4-57.6z"/><path fill="#e8efdd" d="M36 63h4v32h-4z"/><path fill="#394141" d="M265.5 9.5v57h-35v-57z"/><path fill="#ccd29f" d="M62.5 118.5l2.8.8-5.8 20.2-2.8-.8z"/><path fill="#639a61" d="M124 13h21v21h-21z"/><circle r="1" fill="#7a8a69" transform="rotate(-147.5 105.2 30) scale(20.69308 1.73576)"/><path fill="#686460" d="M221.6 182.9l9.6 2.1 31.9-50-36.4-22.5z"/><path fill="#242b1e" d="M50 133h21v17H50z"/><path fill="#eff9f1" d="M30.2 19l1 .2L27.8 43l-1-.2z"/><path fill="#293d35" d="M175.2 92.4l-8.9 13.1L179 47l21.3-45.6z"/><path fill="#4c4442" d="M27.8 166.7l9.7-106.8.1-31.3-12.8 31.7z"/><ellipse cx="87" cy="11" fill="#6f9176" rx="29" ry="5"/><path fill="#96c078" d="M163.7 78L128 93.8l25.2-14.5-7.2-6.7z"/><path fill="#426b60" d="M107.4 16.6L104.6-16l11.7 37.4-11.2-7.2z"/><path fill="#b8bbbb" d="M27.1 41.1L21.8 117h-1l5.5-76z"/><path fill="#a08e77" d="M70 123h5v31h-5z"/><path fill="#081317" d="M160 124h55v26h-55z"/><path fill="#664643" d="M48 97l-3-38-7 36z"/><path fill="#252325" d="M74 141.8l56.9-18.8 4.6-15-73.4 37.2z"/><circle r="1" fill="#e8fffa" transform="matrix(-.77447 -.63261 4.55412 -5.57535 144.1 62)"/><circle r="1" fill="#28282c" transform="rotate(99.7 -39.7 86.7) scale(32.36683 4.05731)"/><path fill="#162223" d="M197.8 93.8l-9.7 22.4-22.9-40.4 28.2 15.1z"/><path fill="#61717a" d="M58 25.5L27 8.1l44.4 6.2-11.6 35.3z"/><circle r="1" fill="#f0fdef" transform="rotate(8 -618 1299.4) scale(4.11696 1)"/><path fill="#f3ffff" d="M177.3 27.6l-.7-.6 6.1-6.6.7.6z"/><path fill="#99756b" d="M130.3 97.8L71.2 62.9l15.1 18.4 48.7-26z"/><path fill="#99b79d" d="M173.2 60.9L115.4-9.3 167 50.8l13-9.2z"/><path fill="#b7b7a7" d="M6.5 94.3l-11 32.1-2-.7 11-32.1z"/><path fill="#77c149" d="M147 32l12 10 4-35z"/><path fill="#d5ddd4" d="M56.9 22.5l2 .2L55 53.5l-2-.2z"/><path fill="#504535" d="M137 69l26-18-34 47z"/><path fill="#d5d1bb" d="M215 96h41v1h-41z"/><circle r="1" fill="#968e8a" transform="rotate(6.8 -1035.9 361.2) scale(1.28062 108.68729)"/><path fill="#a0eb83" d="M132.9 2.5l-30.3-16.1L86.1-16l43.3 36z"/><path fill="#d8e4d0" d="M43 144l5-14-1 15z"/><path fill="#b9a797" d="M199 75h57v2h-57z"/><path fill="#fff" d="M75.8 77.8L68 79.1l-1.7-11L74 67z"/><path fill="#fffedf" d="M163 91h6v4h-6z"/><path fill="#fff" d="M162.8 75l1 .4-2.6 7.6-1-.4z"/><path fill="#fffff8" d="M-16 21l26-5-11 10z"/><path fill="#4a4d49" d="M12 53h10v54H12z"/><path fill="#effeff" d="M139.3 10.3l8.5-26.3L119 4.6 130.5-16z"/><ellipse cx="227" cy="78" fill="#181e1d" rx="36" ry="1"/><path fill="#addda4" d="M65 25h5v34h-5z"/><path fill="#fdc9aa" d="M67 85l-12 15-18 2z"/><ellipse cx="205" cy="101" fill="#ddb48a" rx="16" ry="1"/><path fill="#191c1c" d="M158 94h29v4h-29z"/><path fill="#292b2c" d="M37.3 185h4l-19.1-22.8-25.9-17.8z"/><path fill="#283335" d="M241 167l-31-19-69 19z"/><circle r="1" fill="#0f1d22" transform="matrix(2.33084 -9.77606 18.8561 4.49574 245 6.2)"/><path fill="#bfcfbc" d="M123.8 62.5l14.2-22-30.7-15.1 17.2-2.8z"/><path fill="#4a815b" d="M142.1 13.7L185.7-16 134.2 2.3l9.7-18.3z"/><ellipse cx="134" cy="50" fill="#70776c" rx="20" ry="5"/><ellipse cx="11" cy="38" fill="#fffff7" rx="2" ry="12"/><path fill="#5a5550" d="M123 125.9l21 59.1-15.3-64.9 14.5-11.3z"/></g></g></svg>