<svg xmlns="http://www.w3.org/2000/svg" viewBox="0 0 1800 1200"><defs/><filter id="a"><feGaussianBlur stdDeviation="12"/></filter><rect width="100%" height="100%" fill="#574238"/><g filter="url(#a)"><g fill-opacity=".5" transform="translate(3.5 3.5) scale(7.03125)"><circle r="1" fill="#eb861a" transform="matrix(-186.35992 1.30106 -.5051 -72.34949 152.1 34.7)"/><ellipse cx="109" cy="143" fill="#000b1b" rx="255" ry="31"/><path fill="#fff" d="M155 82h31v20h-31z"/><circle r="1" fill="#7e451d" transform="matrix(89.73211 42.126 -21.70068 46.22437 27.8 52.5)"/><circle r="1" fill="#c9822a" transform="matrix(-24.2336 44.08074 -40.99287 -22.53602 169.5 44.4)"/><path fill="ivory" d="M190 102h-21V75z"/><path fill="#6d370d" d="M43 88h132v6H43z"/><circle r="1" fill="#8e4a11" transform="matrix(46.01073 -10.86028 2.30004 9.74436 224.3 98.6)"/><circle r="1" fill="#fff" transform="matrix(-.39072 3.55419 -13.48466 -1.4824 164.5 97.8)"/><path fill="#d07e23" d="M146 95L55 75l53-3z"/><path fill="#fff" d="M160 84l22 3-5-7z"/><circle r="1" fill="#7a4320" transform="matrix(-54.34913 -7.92868 3.11456 -21.34953 20.5 86.7)"/><circle r="1" fill="#6d3a16" transform="matrix(39.01145 1.8918 -.27577 5.68668 148.6 108.3)"/><ellipse cx="30" cy="143" fill="#18262b" rx="133" ry="31"/><path fill="#d98f25" d="M141 71h81v11h-81z"/><ellipse cx="194" cy="36" fill="#cb842d" rx="52" ry="14"/><path fill="#000609" d="M213.6 183.2l-2.8-22.8 45.6-5.6 2.8 22.8z"/><ellipse cx="105" cy="56" fill="#ffbb3c" rx="22" ry="2"/><path fill="#6a3e1d" d="M130.6 66.3l-63.1 8.9 74.4-21.6.6 13.4z"/><path fill="#162125" d="M212 114h44v34h-44z"/><path fill="#293035" d="M204 173L28 149l215-28z"/><path fill="#814717" d="M127 87l32-7-11 26z"/><path fill="#874a12" d="M181 81h42v9h-42z"/><circle r="1" fill="#8d592c" transform="matrix(218.42675 -9.1548 .44118 10.52626 151.8 1.2)"/><path fill="#fff" d="M174.2 97.4l2-7.7 11.6 2.9-2 7.7z"/><circle r="1" fill="#b06d29" transform="matrix(-36.15929 24.6662 -12.20491 -17.89174 115 24.9)"/><circle r="1" fill="#442d1f" transform="matrix(.1527 -2.66962 33.4068 1.91094 65.3 87.4)"/><path fill="#080c0e" d="M-12 134l-4 30h66z"/><path fill="#ffcb4f" d="M190.4 45.1l.2-5 23 .8-.2 5z"/><circle r="1" fill="#8f4f22" transform="matrix(.35746 -5.39393 62.55778 4.14578 45.7 99)"/><ellipse cx="146" cy="168" fill="#060e12" rx="58" ry="3"/><path fill="#ffffea" d="M157 102l26-9h-29z"/><path fill="#1a1919" d="M159 145.5l1.1-16 43 3-1.2 16z"/><path fill="#fff" d="M170 78l-10 8h7z"/><path fill="#d89029" d="M165 67l23 19-49-19z"/><path fill="#75421b" d="M250.6 78.8l2.6-7.5 10 39.7-37.7 2.4z"/><path fill="#ffaa2b" d="M232 69h24v3h-24z"/><circle r="1" fill="#583821" transform="matrix(-32.52659 1.97494 -.30283 -4.98744 26.6 108.6)"/><path fill="#050505" d="M62.4 130.3l-20.6 4.9 26.4 5.8-29.1 1.6z"/><path fill="#522e18" d="M111 74h31v3h-31z"/><ellipse cx="140" cy="80" fill="#d18624" rx="34" ry="3"/><circle r="1" fill="#995d28" transform="matrix(3.18321 -27.37716 29.97032 3.48473 70.1 32.2)"/><circle r="1" fill="#a36120" transform="rotate(109.5 57.6 86.2) scale(5.05696 41.38215)"/><ellipse cx="135" cy="107" fill="#623b21" rx="189" ry="3"/><path fill="#a54c00" d="M155 88h21v5h-21z"/><circle cx="173" cy="101" r="3" fill="#fff"/><path fill="#c8851e" d="M142 96h22v2h-22z"/><circle r="1" fill="#a05c1c" transform="matrix(6.42256 13.5642 -31.58654 14.95603 239 52.5)"/><path fill="#e1920a" d="M166 88h19v3h-19z"/><path fill="#9b561e" d="M58 92h96v10H58z"/><circle r="1" fill="#7d502b" transform="matrix(65.25823 -34.391 9.3923 17.82225 12.7 8)"/><path fill="#2d353c" d="M37 143h62v18H37z"/><path fill="#ac641c" d="M242.5 75.3l-45.9 5.5-13.6 26 82.3-28.9z"/><ellipse cx="181" cy="152" fill="#2e373c" rx="75" ry="7"/><path fill="#141516" d="M122 133l-62 5 36-23z"/><ellipse cx="176" cy="128" fill="#313031" rx="69" ry="7"/><path fill="#492b1f" d="M151 87l14 4-21 1z"/><path fill="#3d4851" d="M60.5 165.7l24.8 2.8 17.2 3.5-62.4 13z"/><path fill="#af6c2a" d="M151-7l87 28-34 21z"/><path fill="#ca7f27" d="M91.4 81.2l-18.6-4.3 21.1-4 23.4-2.5z"/><path fill="#674227" d="M9 110h247v4H9z"/><path fill="#1e1d1c" d="M198 114h58v10h-58z"/><circle r="1" fill="#141619" transform="matrix(25.87674 -.41471 .0508 3.1698 116.4 158.4)"/><path fill="#fff" d="M180.4 89.8L172 87l1.7-4.7L182 85z"/><circle r="1" fill="#da9030" transform="matrix(.2547 -2.30696 17.2388 1.90318 228.7 33.4)"/><path fill="#f0ab39" d="M120 68h36v2h-36z"/><path fill="#7b4923" d="M2.4 66.5l-5.6-7.7 141.1 5-77.1 11.8z"/><path fill="#3f4a50" d="M12 131l15-6 8 9z"/><circle r="1" fill="#9b5b1f" transform="matrix(33.26671 -12.63234 2.47245 6.51109 124.7 94.2)"/><path fill="#201f1d" d="M28.3 127.7l8.4-2.9 118.4-10.7-171.1-.3z"/><path fill="#854d1e" d="M228.9 90.1l-11 1.4-39.6-2.2 35.1-5.3z"/><path fill="#603d20" d="M92 63h26v8H92z"/><path fill="#e9a73b" d="M156.7 70.7l37.2 5.1-47.5-2 16.9 6z"/><path fill="#f8ffff" d="M174 100l2.7-7.5L186 96l-2.8 7.5z"/><path fill="#b56821" d="M83.5 85.8L70.3 74l-19.4 4.9L-10.8 66z"/><circle r="1" fill="#3b4249" transform="rotate(18.9 -386.6 370.6) scale(17.09662 2.5967)"/><path fill="#161a1e" d="M224.8 144.3l-25.1 8.3 23.3.6-3.9 31.8z"/><path fill="#9d5d20" d="M153 60h22v10h-22z"/><path fill="#fff" d="M159 85h12v2h-12z"/><path fill="#0a0c0e" d="M7 136h19v7H7z"/><ellipse cx="19" cy="162" fill="#040506" rx="42" ry="2"/><circle r="1" fill="#6e4021" transform="rotate(85.7 -38.3 54.2) scale(5.91584 48.67377)"/><path fill="#13171a" d="M248.6 184.4l-63.6-10 35.7-18.6 36.1-3z"/><path fill="#2f3940" d="M8.2 153.4l35.8 3.2-.2 2L8 155.4z"/><path fill="#bc782c" d="M110 19h88v21h-88z"/><circle r="1" fill="#383e43" transform="matrix(42.85866 -2.87463 .147 2.19166 188.5 157.1)"/><path fill="#ac6114" d="M196 103l-1.7 1L180 81l1.7-1z"/><path fill="#e09433" d="M129 56.2v2l-44-2.4v-2z"/><path fill="#050708" d="M234.8 143.4l2.9 4.3 28.6 1.3 4.7-1.2z"/><path fill="#d48727" d="M214 76h20v4h-20z"/><path fill="#3c454c" d="M63.9 147.7l11.9-4.4-14.2 17.3 11.8 1.7z"/><ellipse cx="197" cy="70" fill="#ffc746" rx="3" ry="2"/><path fill="#f7fcfd" d="M154 98h31v4h-31z"/><ellipse cx="215" cy="136" fill="#1a1818" rx="89" ry="2"/><path fill="#0a0b0c" d="M58.8 144.9l16.3-7.1 12.2-1.9-46.7 3z"/><path fill="#31383e" d="M76.6 121.6L63.7 124l20.5 6.6 3.3-4.9z"/><path fill="#010204" d="M70 151h10v3H70z"/><path fill="#f9b340" d="M194 44h23v3h-23z"/><ellipse cx="81" cy="89" fill="#452e1f" rx="24" ry="2"/><path fill="#a15e22" d="M79 57h68v3H79z"/></g></g></svg>