<svg xmlns="http://www.w3.org/2000/svg" viewBox="0 0 3024 3024"><defs/><filter id="a"><feGaussianBlur stdDeviation="12"/></filter><rect width="100%" height="100%" fill="#35634a"/><g filter="url(#a)"><g fill-opacity=".5" transform="translate(6 6) scale(11.8125)"><circle r="1" fill="#dca585" transform="rotate(178.3 86 19.8) scale(146.29842 71.84481)"/><circle cx="206" cy="226" r="201" fill="#6f4438"/><path fill="#fff4d8" d="M7 4l8 133-31-31z"/><circle r="1" fill="#eee0ee" transform="matrix(16.4893 -1.81598 5.33182 48.41342 243 255)"/><circle r="1" fill="#e7e7d3" transform="matrix(-1.56855 -18.35285 112.84486 -9.64445 147 5.4)"/><circle r="1" fill="#b1bb8c" transform="matrix(-17.55863 5.4353 -20.48073 -66.16255 230.9 113)"/><circle r="1" fill="#050e03" transform="matrix(-16.17764 19.77373 -45.0694 -36.873 104.2 145.5)"/><ellipse cx="116" cy="54" fill="#cbc694" rx="32" ry="47"/><path fill="#1c1b21" d="M199 11l-55 25 25 119z"/><circle r="1" fill="#030000" transform="matrix(-1.52846 -15.76108 32.0127 -3.10449 128.6 202.5)"/><circle r="1" fill="#261d0d" transform="matrix(5.33981 25.47431 -48.9192 10.25423 36 228.4)"/><path fill="#f2f1da" d="M227.3 7.1l-1.8 55.4L192.2-8l37.5-8z"/><ellipse cx="250" cy="71" fill="#141f10" rx="9" ry="61"/><path fill="#f58860" d="M164 156l-9 21 80 31z"/><circle cx="47" cy="72" r="44" fill="#545935"/><path fill="#fbfdc8" d="M161 106l-24-38 2 37z"/><path fill="#ffffd2" d="M137 213h14v16h-14z"/><ellipse cy="98" fill="#fff" rx="6" ry="41"/><path fill="#c8a992" d="M247.4 151.7L236 223.2l-8.9-97.6 31.6 4.9z"/><circle r="1" fill="#a28a67" transform="rotate(103.1 60.7 64.5) scale(59.1459 19.9655)"/><path fill="#787c7f" d="M183 222h49v34h-49z"/><path fill="#f6f8dc" d="M160 21l-21 25-1-34z"/><path fill="#262c21" d="M130 192L15 109l173-5z"/><circle r="1" fill="#ffdb9d" transform="matrix(14.44645 11.00201 -4.53776 5.95841 207.6 95.9)"/><path fill="#b7a984" d="M36.1 65.2l27.7 44.7-5.2-34.7-20.7-32.9z"/><circle r="1" fill="#3fa96e" transform="matrix(-8.24118 53.23476 -7.30674 -1.13114 235.4 58.8)"/><path fill="#232d3d" d="M165 17h39v30h-39z"/><path fill="#eff9e4" d="M95 69l13 11-23 20z"/><path fill="#26411e" d="M242 157h14v66h-14z"/><path fill="#dae0ab" d="M66 42L35-5l33-11z"/><path fill="#efedf7" d="M166 0h41v16h-41z"/><path fill="#0d0c00" d="M124 238l-55-14-36 26z"/><ellipse cx="238" cy="6" fill="#d7ffff" rx="4" ry="20"/><ellipse cx="158" cy="70" fill="#322c22" rx="13" ry="32"/><path fill="#746a4a" d="M77 157h27v75H77z"/><path fill="#ae9793" d="M192 140h15v31h-15z"/><path fill="#fffffd" d="M101 19h6v35h-6z"/><path fill="#131b1f" d="M199 271l-44-77 3 75z"/><circle r="1" fill="#f7cb57" transform="matrix(-6.66887 -1.24805 1.88683 -10.0822 240 82.3)"/><path fill="#b05e3b" d="M219 155h23v55h-23z"/><path fill="#d8d3d7" d="M271 143l-50-34 8 20z"/><circle cx="242" cy="117" r="10" fill="#243116"/><ellipse cx="79" cy="11" fill="#192c16" rx="2" ry="57"/><path fill="#181709" d="M61 151.6l4.7 58.9 17.6 35.6-40.2-37.2z"/><path fill="#25463a" d="M8 115h30v49H8z"/><ellipse cx="19" cy="19" fill="#457153" rx="22" ry="48"/><path fill="#80747e" d="M98 271l-79-17 99-14z"/><path fill="#626046" d="M-3 218l72 20-58-68z"/><path fill="#00291c" d="M56 108h72v26H56z"/><path fill="#2a0f04" d="M210 162h16v26h-16z"/><path fill="#181206" d="M135 174l28 31-93 9z"/><circle r="1" fill="#9e7d81" transform="matrix(2.57332 6.06237 -20.10112 8.53242 9.8 126.4)"/><ellipse cx="118" cy="16" fill="#51412f" rx="2" ry="100"/><path fill="#57542d" d="M83.3-6.5l.3-1.4-26.7 29.5.2 4z"/><ellipse cx="127" cy="46" fill="#4d3529" rx="2" ry="64"/><path fill="#fff" d="M3 61l-19-42 15-3z"/><ellipse cx="134" cy="60" fill="#735e46" rx="4" ry="74"/><path fill="#ba7c5d" d="M187 48h39v45h-39z"/><path fill="#cd8d6c" d="M158 159h23v26h-23z"/><path fill="#fff" d="M110 79h8v12h-8z"/><ellipse cx="113" cy="24" fill="#fffffa" rx="3" ry="17"/><circle r="1" fill="#241c0a" transform="matrix(2.90803 6.60402 -18.54793 8.16743 118 231.7)"/><path fill="#f3ead3" d="M6 88l7 7-3-25z"/><ellipse cx="94" cy="19" fill="#f8ffc3" rx="4" ry="35"/><path fill="#46332b" d="M56 159.2l-41.7-46.9 14.6-48.1 6-27.3z"/><path fill="#3c3720" d="M.4 17.3l2-.1 11.2 127.5-2 .1z"/><path fill="#e9d6bb" d="M2 7h6v18H2z"/><path fill="#fcffe6" d="M145 79l-6-27-2 37z"/><path fill="#fff" d="M14 106l-18 18-12-25z"/><ellipse cx="90" cy="67" fill="#58502a" rx="2" ry="49"/><path fill="#3b2f0f" d="M98 34.5l5 68.9h-1l-5-68.8z"/><ellipse cx="233" cy="4" fill="#51b08a" rx="4" ry="54"/><path fill="#815240" d="M201.1 80.7l-31.5-19.8-9.2 53.5-6.9-17z"/><ellipse cx="102" cy="142" fill="#6f5540" rx="23" ry="7"/><path fill="#beb5bf" d="M267 218l14.3 37.3L243 270l-14.3-37.3z"/><path fill="#404247" d="M218.8 45l-27.6-30.9-15.5 1.4-27.4 18.1z"/><circle r="1" fill="#f7f9ff" transform="rotate(134.4 84.3 40.4) scale(20.46402 3.74051)"/><circle r="1" fill="#9c583c" transform="matrix(-2.7463 9.14052 -31.96347 -9.60353 205.5 193)"/><path fill="#886d59" d="M137 23l51-30-40 11z"/><ellipse cx="56" cy="49" fill="#ffffb5" rx="3" ry="5"/><ellipse cx="109" cy="92" fill="#393c24" rx="2" ry="50"/><path fill="#d4d0a7" d="M95.7 104.3l27.6 2.3 13.6-13.3 22.4 14.1z"/><path fill="#5f6b32" d="M48.4 72.4l25.7-26.5 51.6-53-73.3 86.5z"/><path fill="#323923" d="M99.2-7.9L19.6 80.6l-.8-.7L98.4-8.6z"/><path fill="#1a1716" d="M169 211.7l-5-15.2 19-6.2 5 15.2z"/><path fill="#717559" d="M99.1 157.5l20.4 41.4-39.7-47.7L31.1 169z"/><path fill="#fff" d="M254 41l16 21-1-53z"/><path fill="#764824" d="M143 165h14v31h-14z"/><path fill="#3c4d2b" d="M49 10l-9 47 14-14z"/><ellipse cx="86" cy="18" fill="#eefaab" rx="2" ry="44"/><path fill="#dacd9b" d="M56 70h4v34h-4z"/><path fill="#fff" d="M66.1 91.8l3-8.5 2.8 1-3 8.4z"/><path fill="#fdffe4" d="M73 5h6v23h-6z"/><circle r="1" fill="#265c44" transform="matrix(6.2727 -28.94247 6.03643 1.30827 241.2 46.9)"/><path fill="#677637" d="M94 12L68 37l-1 20z"/><ellipse cx="201" cy="235" fill="#00030b" rx="20" ry="2"/><path fill="#ffffda" d="M4.5 22.3v-12l2.3 19.9 1.1 30.9z"/><path fill="#004615" d="M238 123l-8-12 2-14z"/><circle r="1" fill="#655f65" transform="matrix(8.53723 -4.62186 14.39098 26.58216 217 128.7)"/><path fill="#a6936d" d="M72 214l22 18-1-19z"/></g></g></svg>