<svg xmlns="http://www.w3.org/2000/svg" viewBox="0 0 1800 1200"><defs/><filter id="a"><feGaussianBlur stdDeviation="12"/></filter><rect width="100%" height="100%" fill="#4d3d34"/><g filter="url(#a)"><g fill-opacity=".5" transform="translate(3.5 3.5) scale(7.03125)"><circle r="1" fill="#a7bcc3" transform="matrix(-184.04886 176.4965 -85.801 -89.47247 146.8 14.4)"/><circle r="1" fill="#574f4c" transform="rotate(-26.5 395 -371.3) scale(53.91168 59.70829)"/><ellipse cx="85" cy="141" fill="#e8e4da" rx="20" ry="15"/><circle r="1" fill="#aeb6b9" transform="matrix(-24.26172 35.1947 -17.59715 -12.13072 148 52.6)"/><circle r="1" fill="#324035" transform="matrix(60.98992 -4.99388 .95464 11.65895 123.7 7.2)"/><circle r="1" fill="#eadcc7" transform="matrix(-.20171 14.44581 -30.36168 -.42396 141.4 169)"/><path fill="#acac9e" d="M271 11l-7 96-118-91z"/><circle r="1" fill="#2c2429" transform="matrix(19.92753 1.33282 -1.02793 15.36907 103.6 82.8)"/><path fill="#253245" d="M5 76h36v37H5z"/><path fill="#7d90a1" d="M195 147l57-22 8 29z"/><circle r="1" fill="#3a251d" transform="rotate(156.5 84.5 84) scale(35.4479 10.99506)"/><path fill="#3f362f" d="M211 44h19v19h-19z"/><path fill="#222926" d="M33.6 137.8l13.7-16.6 11.1-5.4-4 29.4z"/><path fill="#cbbaa7" d="M167.7 129.8l-22.1 11.1L74.4 185l58.1-3.7z"/><path fill="#4d574a" d="M149 69l40-1-41 52z"/><path fill="#a6b4c3" d="M79 29L36 70h34z"/><ellipse cx="114" cy="119" fill="#aca29b" rx="56" ry="7"/><path fill="#c6d4e4" d="M128.8 84.4l40.1-26.1-46.2 5.7L102 38.4z"/><path fill="#2d3036" d="M-16 144L7 99l3 56z"/><path fill="#b6b2ae" d="M226.7 90.6L189 69.7 271 59l-40.3 14.4z"/><circle r="1" fill="#515659" transform="matrix(-.66176 5.31294 -17.56826 -2.18824 137.4 55.9)"/><circle r="1" fill="#736151" transform="matrix(-2.4598 -6.57904 60.46493 -22.60691 87 158.3)"/><ellipse cy="1" fill="#00040f" rx="23" ry="4"/><path fill="#493833" d="M252.6 159.8l-73.1-29.9 30.6-62.1-2.7 50.6z"/><path fill="#484d59" d="M11 66L64 9v33z"/><circle r="1" fill="#949aa8" transform="matrix(-1.58147 -7.56618 37.49547 -7.83724 38.3 152)"/><path fill="#85a0b6" d="M25.3 18L97.4 7.3 41.2-16 35.5 3.9z"/><ellipse cx="200" cy="8" fill="#656c41" rx="27" ry="9"/><path fill="#5a574f" d="M153 143h43v23h-43z"/><path fill="#b7bfbb" d="M199.7 14.8l52 8.5L233.2 52l-9.4-26.6z"/><path fill="#8a959b" d="M72 20h81v31H72z"/><path fill="#4b3930" d="M200 84l71 40-12-30z"/><path fill="#092c4b" d="M53.5 178.3l10.6-11.5-8.3-13 17.5 1.3z"/><path fill="#2b302c" d="M95 0h24v19H95z"/><path fill="#c1dcff" d="M47.8 99.3l2.3 11.8-7.9 1.6-2.3-11.8z"/><path fill="#635b52" d="M95.3 91.8l-28 30-14.6-13.6 28-30z"/><circle r="1" fill="#a5a59a" transform="rotate(-39.3 215.8 -116) scale(21.11014 14.0692)"/><path fill="#9e9e9d" d="M174.9 97.8L208 74.1l-16.6-34.5-.9 60.2z"/><circle r="1" fill="#98b4d3" transform="matrix(-.18773 -3.20851 23.46524 -1.37292 14.3 71.7)"/><path fill="#93959c" d="M228.7 104.2l-13.1-3.6-9.5-4.8 5.2 22.2z"/><circle r="1" fill="#385c82" transform="matrix(16.10847 4.37657 -2.41778 8.8989 98.8 61.1)"/><path fill="#9d9da2" d="M194 152l-19 3-3-12z"/><circle r="1" fill="#6f89a5" transform="matrix(17.70717 -10.969 2.91674 4.70847 226 140.9)"/><path fill="#5f594e" d="M95.2 122.9l-9 2L82 120l36.5-37.6z"/><path fill="#67605b" d="M116.4 136.1l41-24.5-36.6 51.6-30.2-46z"/><path fill="#7b726b" d="M204.6 67.5L154.9 54l7.8-25.2 9-2.2z"/><path fill="#3a3023" d="M206.4 135l34.4 15.7-58.5 19.6 79.1 14.7z"/><path fill="#e0d2bd" d="M141 138h12v18h-12z"/><circle r="1" fill="#989da4" transform="rotate(83.6 -56.6 68) scale(3.1064 31.26171)"/><path fill="#8ca4bf" d="M37 96l43 2-18-12z"/><path fill="#bdd8f1" d="M76 68l17 4-3-7z"/><path fill="#322f2b" d="M193 185l12-13-53-35z"/><path fill="#979ea7" d="M30.5 145.4l-3.1-10.8-33.1.2 5.3 4.9z"/><ellipse cx="161" cy="19" fill="#acb3b6" rx="29" ry="5"/><path fill="#796d5e" d="M258.5 69.2l-31.1 2.5 4.7 8.5 17.2 5.4z"/><circle r="1" fill="#5e6064" transform="matrix(-2.26613 -5.62044 35.75196 -14.415 28.7 27.6)"/><path fill="#a78b66" d="M56 111l12-6v40z"/><path fill="#92a2ab" d="M-14 59l23 3 36-31z"/><path fill="#9aadbc" d="M88 17l-14-1-16 14z"/><path fill="#5b6777" d="M22 74h33v17H22z"/><path fill="#96abba" d="M132 6l21-22-37 7z"/><path fill="#d6d3cb" d="M70 132.8l18.6-3.3 3.5 19.7-18.7 3.3z"/><circle r="1" fill="#ae9c89" transform="matrix(-1.76527 -5.84687 3.86066 -1.1656 7 89.8)"/><path fill="#c6c2b8" d="M86 167h87v3H86z"/><path fill="#9c9d9a" d="M162.7 61.2l11.8 9.1-28.8 14.1 56.8-20.9z"/><path fill="#383331" d="M138 140l-32-3 7 9z"/><path fill="#b1bfca" d="M120.8 65l26.8 3.2-2.4 18.9-26.8-3.3z"/><path fill="#332f27" d="M183 127l-20 3 46 25z"/><path fill="#25363b" d="M166 74v19l15-14z"/><path fill="#444440" d="M19 88l-32 26 73-29z"/><path fill="#444c51" d="M53.7 150.5l-5-52 21.1 2.3-31.5 18.7z"/><circle r="1" fill="#d3d8dd" transform="matrix(18.5973 5.1 -.37053 1.35116 212.7 72.6)"/><path fill="#c9c5b1" d="M232 46h21v10h-21z"/><path fill="#92897c" d="M181 125v-21l-47 31z"/><path fill="#bccede" d="M260 85l-17 3 3 4z"/><path fill="#4e6b81" d="M206.2 142.5l-6.4-12-6.3.8-10.9 1.5z"/><path fill="#888e8f" d="M232.4 141l6.3-14.6 24.9 10.5-6.3 14.7z"/><path fill="#788da8" d="M101 120l19 18 20-20z"/><path fill="#4e332d" d="M230.6 121.9l40.4 18.8-15.7-49.8-50.2 47.7z"/><ellipse cx="237" cy="59" fill="#76695d" rx="73" ry="3"/><path fill="#343b3c" d="M72 16l35-2-42-9z"/><path fill="#373932" d="M95.1 86.1l34.9 2.8-23.2-14.8 2 32z"/><path fill="#847362" d="M148 128l-10 25-52 14z"/><path fill="#333834" d="M60 136l-25 6-1-12z"/><path fill="#929390" d="M140.8 112.8l-8.5 3.1 26.2-23.3 11.1.6z"/><path fill="#a8afb0" d="M102.6 112.6l-27.2 43.9 35.6-6.1-12.9-24.5z"/><path fill="#2271ae" d="M7 75h22v5H7z"/><path fill="#ecece2" d="M162 19l-5 8 11 2z"/><path fill="#9ea8b2" d="M38 54.1l24 6.5 5.1 11.9-8.6 5.1z"/><path fill="#8f9aa5" d="M16 125h17v23H16z"/><path fill="#474d4e" d="M0 127.7l-5.8-3.1L7.5 118l36.2.8z"/><path fill="#49504f" d="M163.1 82.6l6.7 52.3 5.7-25.8-7.2-9.9z"/><path fill="#5c6154" d="M259 44l-16-5-16 6z"/><path fill="#65534f" d="M205.8 64.8l8.9-28.2 5.5 5.2-2.1 13.1z"/><path fill="#5b5f66" d="M73.9 44.9l46.3-8.1-28.6-7.4L114 42.2z"/><circle r="1" fill="#a9c2dd" transform="matrix(-7.51933 -.79031 .32856 -3.126 40.4 10.7)"/><path fill="#8cb1d6" d="M0 31l15-4-31-11z"/><path fill="#52535a" d="M45.9 15.9l17-20.7-14.6 31.6L80.1 34z"/><path fill="#afb3a9" d="M216.3 31.8l37 .4L206.9-16H252z"/><path fill="#25211e" d="M7 138l4 12-21 5z"/></g></g></svg>