<svg xmlns="http://www.w3.org/2000/svg" viewBox="0 0 1800 1200"><defs/><filter id="a"><feGaussianBlur stdDeviation="12"/></filter><rect width="100%" height="100%" fill="#445b94"/><g filter="url(#a)"><g fill-opacity=".5" transform="translate(3.5 3.5) scale(7.03125)"><circle r="1" fill="#f7ffff" transform="matrix(-254.9787 -3.29588 .81746 -63.24104 148.4 51.1)"/><circle r="1" fill="#000f2e" transform="rotate(5.1 -1831 1704.6) scale(169.32757 36.95222)"/><circle r="1" fill="#d1edff" transform="rotate(177.9 96.7 32) scale(212.81362 30.61687)"/><circle r="1" fill="#5791e2" transform="matrix(1.8642 25.96778 -254.34543 18.25928 121.7 1)"/><circle r="1" fill="#6392be" transform="rotate(1.8 -3440 3671.8) scale(219.65567 10.66822)"/><circle r="1" fill="#00264f" transform="rotate(94.4 -18.2 140.2) scale(28.35491 128.02295)"/><circle r="1" fill="#93bbf1" transform="matrix(-242.268 16.05835 -1.11193 -16.77532 162.7 31.5)"/><circle r="1" fill="#174b7a" transform="matrix(142.64375 5.45575 -.54718 14.30638 163 138.9)"/><circle r="1" fill="#d5e3f2" transform="matrix(.14444 11.82217 -134.39527 1.64203 165.9 67)"/><circle r="1" fill="#002b55" transform="matrix(1.64704 -27.7446 127.25908 7.55464 123.8 167.7)"/><circle r="1" fill="#5b85c3" transform="matrix(-.66906 -10.62337 162.73022 -10.24878 66.3 1.3)"/><ellipse cx="119" cy="111" fill="#6587b6" rx="229" ry="6"/><path fill="#365889" d="M271 165l-65-48-80-7z"/><ellipse cx="157" cy="92" fill="#a7bed9" rx="139" ry="11"/><path fill="#81a1c8" d="M266.9 135.4l3.1-2.1-59.1-32.2-82.6-7.1z"/><ellipse cy="102" fill="#869fc4" rx="137" ry="8"/><path fill="#30598d" d="M92.9 113L-16 144.8l123.4-13.4 33.9-10.8z"/><ellipse cx="60" cy="169" fill="#002148" rx="177" ry="11"/><ellipse cx="41" cy="115" fill="#577ead" rx="27" ry="13"/><circle r="1" fill="#093d6d" transform="matrix(-53.62025 -4.09509 .79396 -10.39593 87 147)"/><ellipse cx="213" cy="51" fill="#b8d5f5" rx="139" ry="10"/><path fill="#557cae" d="M54.9 106.9l79.2 2.7 43.5.7-14.2 16.4z"/><circle r="1" fill="#acbdd7" transform="matrix(-72.73204 -8.4081 .845 -7.30938 24.5 82.5)"/><path fill="#31507f" d="M219.3 124.6l50.7 34.2-76.5-16.4-28.8-23.4z"/><circle r="1" fill="#88a8d9" transform="matrix(-140.76991 14.86889 -.84978 -8.0452 30.9 30)"/><path fill="#94accc" d="M117 98h83v10h-83z"/><path fill="#4e76a9" d="M271 123.7l-1.7 11.5-50-7.8-26.3-15.8z"/><circle r="1" fill="#93b8e7" transform="rotate(174.8 70.2 18.1) scale(133.10745 7.04342)"/><circle r="1" fill="#416a99" transform="matrix(22.51582 5.5721 -2.57192 10.39266 11.6 121.2)"/><path fill="#a4c0e4" d="M-16 61.1l42.5-.7 75.4-26.7L-13.9 47z"/><ellipse cx="175" cy="89" fill="#b3c5db" rx="90" ry="7"/><path fill="#1b3b67" d="M261.8 159.4l-3 11.6-98.6-26.4 3-11.6z"/><path fill="#274572" d="M201.5 142.8l69.5 7.1-70.6-18.4 70.6 44.3z"/><path fill="#7392bc" d="M51.9 102.7l-30.5 7.4 57 4.6 2.2-9.2z"/><ellipse cx="184" cy="80" fill="#c0cde2" rx="149" ry="6"/><path fill="#6a8cbd" d="M255.6 121.9l11.3-5.9-47.9-14.1-18.9 1.6z"/><path fill="#2a5280" d="M-16 119v29l40-8z"/><path fill="#00315c" d="M115 162l-72 2-24-25z"/><ellipse cx="220" cy="14" fill="#86a8dc" rx="68" ry="8"/><path fill="#5e85c2" d="M95.7 2.8L-5 8.1l-.6-11L95-8z"/><ellipse cx="114" cy="132" fill="#1d4578" rx="33" ry="6"/><circle r="1" fill="#22477a" transform="matrix(-.26719 1.71441 -40.78107 -6.35558 212.2 127.6)"/><path fill="#416295" d="M233 148l38 13-7-13z"/><path fill="#3d659a" d="M170.5 119.2l37.5 14.3-45-6.8-12-7.9z"/><path fill="#93b0d3" d="M255.5 97.8l-1.4 10-39.6-5.6 1.4-10z"/><path fill="#92abcc" d="M110.2 91.6l90.6 13.3 25.6 11.6-27.7-3.4z"/><path fill="#18406f" d="M70 149h32v7H70z"/><path fill="#8da4c6" d="M0 100h62v5H0z"/><path fill="#b7d1ee" d="M36.4 60.9l.2-11 69 1.2-.2 11z"/><ellipse cx="160" cy="64" fill="#ccdff0" rx="71" ry="8"/><path fill="#013560" d="M24 141l14 15-54-4z"/><path fill="#7090b7" d="M85.4 107.3l67.5 14.4-.3 1-67.5-14.4z"/><circle r="1" fill="#7297d0" transform="rotate(-94.7 33.3 -19) scale(5.45185 90.17546)"/><path fill="#7097d4" d="M179-16l66 17-136 8z"/><ellipse cx="176" cy="169" fill="#00244b" rx="52" ry="13"/><path fill="#98b1cf" d="M31.3 102.1l53-.2 32.8-4.5-30.9-4.9z"/><path fill="#0e2e58" d="M227.1 156.6l-.7 1.8-49.5-19 .7-1.8z"/><circle r="1" fill="#3b6195" transform="matrix(21.65222 -5.23757 1.3693 5.6607 101.1 122.8)"/><path fill="#acc9ec" d="M219.3 34.8l36.7 4.7 15 6.4-231.8 5.4z"/><circle r="1" fill="#002248" transform="matrix(-40.51099 13.63375 -2.6169 -7.7758 10.3 169)"/><circle r="1" fill="#4c73a3" transform="matrix(65.44688 -12.6984 .31587 1.62798 40.3 124.6)"/><path fill="#4f72a4" d="M47.6 130.1l-24.4-15.8 31.2-6.4-27.2 20.4z"/><ellipse cx="235" cy="29" fill="#9cbce9" rx="45" ry="5"/><path fill="#365990" d="M240 127l31 10-4-10z"/><path fill="#a5bad4" d="M156.4 90.4l-92.8-2.9 55.2 8.9 76.7 3.1z"/><ellipse cx="38" cy="71" fill="#bdcde1" rx="17" ry="8"/><circle r="1" fill="#002c57" transform="matrix(47.82945 -1.31644 .13944 5.06604 152.3 157.5)"/><ellipse cx="138" cy="107" fill="#7a97be" rx="22" ry="3"/><path fill="#33568b" d="M54.3 134.3l16.9-5.3-2-10.4-23.5 7.3z"/><ellipse cx="21" cy="88" fill="#9db6d3" rx="23" ry="7"/><ellipse cx="47" cy="136" fill="#224374" rx="34" ry="6"/><circle r="1" fill="#8fa8cc" transform="matrix(-11.45412 -3.65987 1.8692 -5.84991 255 104.8)"/><ellipse cy="122" fill="#395d91" rx="33" ry="5"/><circle r="1" fill="#557aac" transform="matrix(.58093 3.19874 -14.02585 2.54728 99.9 111)"/><ellipse cx="244" cy="120" fill="#5c80b1" rx="27" ry="6"/><path fill="#395b8d" d="M201 141l6-12-45-8z"/><path fill="#0c396b" d="M136 134h23v11h-23z"/><ellipse cx="188" cy="107" fill="#84a1c7" rx="37" ry="2"/><path fill="#9bb0cb" d="M123 94l7 11-21-2z"/><ellipse cx="102" cy="74" fill="#c8d3e2" rx="63" ry="4"/><path fill="#5174a7" d="M14.4 118.2l-30.4-1.1 31.6-9.5 27.2 13.5z"/><circle r="1" fill="#6488b7" transform="matrix(.27316 -1.50046 34.34704 6.253 211.6 117.7)"/><path fill="#83a3d5" d="M101.6 21.3l-117.6 2v16.9l71.7-14.4z"/><path fill="#557daf" d="M155.4 117l-31-1 .2-5 31 1z"/><ellipse cx="211" cy="56" fill="#c1d8f1" rx="64" ry="6"/><path fill="#33507e" d="M241.5 150l-.5 2-80.5-20 .5-2z"/><path fill="#00315f" d="M59 141h36v7H59z"/><path fill="#b4c3db" d="M-11.2 21.2L-16 63.9l145.9 27.3-145.9-10z"/><path fill="#6b8fbd" d="M84 101h14v4H84z"/><path fill="#456ca0" d="M26 124.2l-.1-1 72-11.4.2 1z"/><path fill="#1d4270" d="M234 158.8l37-5.8-22.5 30.1 3.8-6.6z"/><ellipse cx="183" cy="122" fill="#295186" rx="17" ry="3"/><path fill="#a9bfdb" d="M271 75.2l-112.5 25.7 27.4-5.8 58.6 2.9z"/><path fill="#204577" d="M150 130l35 18-13-18z"/><circle r="1" fill="#4a6fa6" transform="matrix(.16505 -.98629 11.3089 1.89246 240.9 119.3)"/><path fill="#23487b" d="M93 126h35v11H93z"/><ellipse cx="183" cy="74" fill="#cbd7e7" rx="75" ry="4"/><path fill="#123c6c" d="M72.2 133.2l48 14.8-19.9 7.3-1.6-23.7z"/><path fill="#002b54" d="M56.3 148.9l-57.7 12.8-14.5-12.4L108.8 185z"/><ellipse cx="86" cy="49" fill="#acc8e8" rx="43" ry="5"/></g></g></svg>