<svg xmlns="http://www.w3.org/2000/svg" viewBox="0 0 1799 1800"><defs/><filter id="a"><feGaussianBlur stdDeviation="12"/></filter><rect width="100%" height="100%" fill="#5a3b27"/><g filter="url(#a)"><g fill-opacity=".5" transform="translate(3.5 3.5) scale(7.03125)"><circle cx="125" cy="136" r="112" fill="#fff"/><circle r="1" fill="#f3d1ca" transform="matrix(21.62717 -70.73928 37.48102 11.4591 109.6 .1)"/><circle r="1" fill="#3b3512" transform="matrix(-28.6428 8.47203 -7.09806 -23.99759 125.7 124.7)"/><ellipse cx="201" cy="140" fill="#d5e0c4" rx="39" ry="67"/><path fill="#8fb099" d="M264.7 213L225 255.4 205.3 237l39.6-42.4z"/><ellipse cx="36" cy="137" fill="#f4fddb" rx="16" ry="53"/><path fill="#d3dbc2" d="M83 150h98v79H83z"/><path fill="#694f3d" d="M35.9 76L10.6 42.3 64.1 2l25.3 33.5z"/><path fill="#f9fffe" d="M33 83l43-38 5 47z"/><path fill="#ede7c2" d="M153.6 106.6l-24.2-14 33-57.2 24.2 14z"/><path fill="#2c271c" d="M193.7.6l-52.9 26.9 65.2 31 65-60.3z"/><circle r="1" fill="#8d6042" transform="rotate(116.1 -23.2 52.2) scale(68.59333 15.02099)"/><path fill="#271e10" d="M20.5 240.7l133.9 4.6-.9 24-133.9-4.6z"/><path fill="#444a41" d="M173 232l37 9 17-66z"/><circle r="1" fill="#cea3a3" transform="matrix(-43.74008 -55.05523 20.72748 -16.4675 93.3 0)"/><path fill="#e4ece2" d="M195.6 97.2l30.3-10.1-13.3-16.8-40.5-32.4z"/><circle r="1" fill="#f3ecd7" transform="matrix(6.86634 7.42618 -28.2776 26.14584 154 149.6)"/><circle r="1" fill="#deddc1" transform="matrix(29.93798 32.46272 -8.62507 7.95427 91.8 146.4)"/><path fill="#7b5944" d="M139 0h41v33h-41z"/><path fill="#54351d" d="M228 81l43-53-103 2z"/><path fill="#44656e" d="M189.4 125l14.1 19.5-8.9 6.4-14.1-19.4z"/><circle r="1" fill="#effee5" transform="matrix(-5.14042 -9.70856 21.69974 -11.48942 88.5 52.7)"/><path fill="#d9d3a8" d="M53.2 208l-31.5-37.6L50.8 146l31.5 37.6z"/><path fill="#d26a5f" d="M118 20h13v51h-13z"/><path fill="#352312" d="M113.7 247.3L226.6 271l-35.3-38.1-47.7 12.1z"/><ellipse cx="6" cy="175" fill="#825530" rx="9" ry="123"/><path fill="#ccc7a1" d="M65.7 90.4l56.6-27.6 14 28.8-56.6 27.6z"/><path fill="#78523b" d="M-16 67.4l133.4-46L53.8 61l-55.3 63.5z"/><circle r="1" fill="#a3a486" transform="rotate(131.5 17.8 126.4) scale(18.75296 24.50312)"/><circle r="1" fill="#11688b" transform="matrix(-8.41904 4.00549 -1.61089 -3.38589 56 127.6)"/><circle r="1" fill="#a5aa98" transform="matrix(-14.64438 18.1127 -16.08231 -13.00279 200 194.7)"/><path fill="#1385c8" d="M98.2 178.9l18.8 1.4-8.8 10.5-6.8-8.2z"/><path fill="#65686a" d="M58 77l17 29H57z"/><circle r="1" fill="#8d9683" transform="matrix(-4.4863 14.22872 -9.52047 -3.0018 4 2.2)"/><circle r="1" fill="#0a130c" transform="matrix(31.0752 -8.0366 2.41119 9.32338 242.8 12.3)"/><path fill="#45321e" d="M11.4 207.1L4.3 271l117.5-23.3-25.3-4.5z"/><path fill="#734c2c" d="M240 80h16v125h-16z"/><ellipse cx="164" cy="98" fill="#c3ac81" rx="18" ry="24"/><path fill="#e3d5b7" d="M155 111h79v23h-79z"/><path fill="#828d77" d="M214 230l-4 41 61-68z"/><path fill="#e4dbce" d="M106 153h48v31h-48z"/><path fill="#748c83" d="M106 233h50v13h-50z"/><path fill="#67639f" d="M155.9 175.7l3.3 2.2 3.5-5.4-6.9-22.3z"/><circle r="1" fill="#b3a4a1" transform="matrix(-24.05624 -5.31274 7.31236 -33.11058 96.7 4.6)"/><path fill="#b47448" d="M138.2 58.4l3.7-26.7 14 2-3.8 26.6z"/><circle r="1" fill="#3799cb" transform="rotate(93.5 49.5 147.6) scale(4.80399 7.10676)"/><path fill="#e7f0de" d="M20.4 107.6l40.1-29.8 9.9 5.3 2.7-38.7z"/><path fill="#351e0b" d="M210.3 212.9l-21.7 18.8 12.4 28.6 28.2-66.6z"/><path fill="#f6fbf2" d="M130 57l4-31 6 14z"/><path fill="#3891a7" d="M77.3 71.5l12.8-1.7 5.8 3.9-14.1 7.2z"/><circle r="1" fill="#cad1ce" transform="rotate(35.2 -1.3 313.5) scale(36.35214 10.42376)"/><path fill="#586c65" d="M63 150h14v13H63z"/><path fill="#413123" d="M228.6 83.4l-13.3-22.8-27.1-17.4 13.3 17.9z"/><ellipse cx="54" cy="102" fill="#c9b271" rx="10" ry="16"/><path fill="#f5fcff" d="M124 12l19 8-29-3z"/><path fill="#6c93b4" d="M186.2 68.1l-5.7 4.6 5.4-28.5 5.6 2.9z"/><path fill="#ccd3cb" d="M235 109l7 32-48-6z"/><circle r="1" fill="#1b1913" transform="matrix(39.5015 44.1201 -1.22812 1.09956 36.6 8.9)"/><path fill="#c3ac80" d="M77 49l17 31 75 6z"/><path fill="#838e93" d="M237.4 138l4.7 1.4-15.5 50.7-4.7-1.5z"/><path fill="#4f2300" d="M125 176h8v3h-8z"/><circle cx="125" cy="125" r="27" fill="#6e634e"/><path fill="#ac564d" d="M100.5 18.3l2.8 8.1-3.5 6.7 14.4 9.6z"/><path fill="#554031" d="M242.6 77.9l-56.7-64.4-35.8-5.7-23.5 4.9z"/><path fill="#b6c2b7" d="M224.1 172.9l-116.5 62.3 62-3.5 49-44.9z"/><path fill="#b79161" d="M181 124l23-5-23 27z"/><path fill="#623d25" d="M259.4 70.7l13.9 31.1-34.7 15.5-13.9-31.1z"/><path fill="#a19256" d="M84 185l-29 15 28 9z"/><circle r="1" fill="#cccfbd" transform="matrix(6.13497 -38.866 9.95824 1.5719 25.7 130.2)"/><path fill="#75492c" d="M35.7 74.4l-22.4 48-19-8.8 22.4-48z"/><path fill="#c11016" d="M133.2 20.2l11 10.2-1.4 1.4-11-10.2z"/><path fill="#d1d1a8" d="M39 174l53 58-41-26z"/><circle r="1" fill="#d3c083" transform="matrix(-3.1314 9.30477 -14.99135 -5.04515 69 141.8)"/><path fill="#e3e7d7" d="M36.9 80.3l50.4-6.8L68.8 52 52.5 62.9z"/><path fill="#8f9881" d="M25 188l-2-26 19 48z"/><path fill="#788874" d="M45.8 214.2l42.3 14.9 2.4 11-14.1-5.8z"/><path fill="#d06d63" d="M129.6 60.1l-8.4 7.1-12.8-15.3 8.4-7.1z"/><path fill="#9e7f6b" d="M128.2 12.6l-6.8 2.7L151.5-16l14.2 23.1z"/><path fill="#005b92" d="M110 191.8l-1.8-.8 5.7-12.8 1.9.8z"/><circle r="1" fill="#5f6562" transform="rotate(-134.2 145 61.7) scale(4.1174 16.28383)"/><path fill="#6b766b" d="M185.5 230.1l-52.7 5.3-1.2 4.5 28.3-1.2z"/><circle r="1" fill="#43382b" transform="matrix(-11.68417 5.0562 -5.90587 -13.64766 241.6 191.4)"/><ellipse cx="188" cy="175" fill="#cbb07e" rx="17" ry="14"/><path fill="#e8e5de" d="M200 116l5 15-12 13z"/><path fill="#3f220c" d="M0 16h19v27H0z"/><path fill="#d8d8c9" d="M201.1 104.9l32.5-1.8-4.2 61.7-29.2-105.2z"/><path fill="#909693" d="M200 219.4l5.2-1.2 17.7-21.8 16.9-50.6z"/><path fill="#af7b5a" d="M143.8 42.9l-16.1 20.2 27.7-11.5 2.1-13.2z"/><path fill="#796051" d="M37 71L20 14l42 39z"/><path fill="#ebefe9" d="M106.6 41.8l6.9 23.4-26.8-17.3 12-14z"/><path fill="#f0d7c0" d="M174.2 78.5l-12.8-22.6-15.8 32.7 38.1-27.9z"/><path fill="#929e99" d="M186.9 231.9l-41.9 14 36.4-14.9 33.1-22.7z"/><path fill="#5b5338" d="M140.4 110l-45.6 14.8-.7-11L132 99.5z"/><path fill="#1a618b" d="M160 166l-6-13 7 5z"/><path fill="#ebdbb8" d="M182.2 167.1l-20.9 23.8 35.8-18.2 6.5-6.4z"/><ellipse cx="130" cy="40" fill="#ca3734" rx="2" ry="13"/><path fill="#433529" d="M41.5 37.1L70.7 9.9 66.2-3.6l-52 5z"/><path fill="#c41017" d="M109.1 25.5l-.3-1 20.1-6 .3 1z"/><path fill="#006aa9" d="M78 72h4v6h-4z"/><circle r="1" fill="#827865" transform="matrix(3.22717 8.953 -23.46277 8.45733 130.5 139.7)"/></g></g></svg>