<svg xmlns="http://www.w3.org/2000/svg" viewBox="0 0 1800 1200"><defs/><filter id="a"><feGaussianBlur stdDeviation="12"/></filter><rect width="100%" height="100%" fill="#252f46"/><g filter="url(#a)"><g fill-opacity=".5" transform="translate(3.5 3.5) scale(7.03125)"><ellipse cx="80" cy="25" fill="#e7f7ef" rx="255" ry="89"/><path fill="#c0b9a7" d="M68 185l188-17 15-77z"/><circle r="1" fill="#0070dc" transform="matrix(78.82177 -2.90524 .6443 17.48019 154.4 99.7)"/><circle r="1" fill="#f5ece3" transform="matrix(-8.31395 34.51202 -49.67539 -11.9668 77 39.7)"/><circle r="1" fill="#1c0600" transform="matrix(45.1816 7.12864 -2.42366 15.36124 188.7 13.9)"/><circle r="1" fill="#9d8e6f" transform="rotate(-60.1 167.5 47.2) scale(36.71485 179.83719)"/><circle r="1" fill="#223131" transform="matrix(-39.5258 -9.85489 7.09898 -28.47246 63.2 123.8)"/><ellipse cx="129" cy="106" fill="#1b0000" rx="15" ry="10"/><circle r="1" fill="#b9b8b2" transform="matrix(-36.13597 2.08359 -3.64664 -63.24432 254.9 66)"/><path fill="#050904" d="M166.2 141.4l-26.5-4.8 84.8-20.9-7.8 16.3z"/><path fill="#4d434f" d="M217 87l-99-27 99-6z"/><circle r="1" fill="#0090ea" transform="rotate(103.5 44.8 114) scale(13.62052 45.15365)"/><circle r="1" fill="#5a7986" transform="matrix(-3.52443 -19.58794 15.40209 -2.77127 125 129.5)"/><path fill="#a69e91" d="M53.1 80L7-7.2l-20.2 81.3 16 75z"/><circle r="1" fill="#e7eef3" transform="matrix(51.72707 6.07854 -1.25065 10.64272 74.3 51)"/><path fill="#888583" d="M19 157h181v13H19z"/><path fill="#36322a" d="M171-16L130 2l125 33z"/><circle r="1" fill="#9d846b" transform="matrix(46.2939 15.66962 -5.96763 17.63061 173.7 36.5)"/><ellipse cx="49" cy="75" fill="#a3a4a0" rx="95" ry="14"/><path fill="#dfe7ee" d="M218.9 79.6l19.4 4.8L271 48.7l-51.1 20.8z"/><circle cx="81" cy="107" r="10" fill="#b8a682"/><ellipse cx="69" cy="140" fill="#231a10" rx="46" ry="12"/><circle r="1" fill="#0f94ee" transform="matrix(-6.79508 -6.68493 17.97789 -18.27411 105.6 99.6)"/><path fill="#5e6d72" d="M223 83h33v30h-33z"/><circle r="1" fill="#bdb5a8" transform="matrix(38.87093 3.26408 -1.51965 18.09705 131 39.7)"/><path fill="#007fd3" d="M146 97h34v21h-34z"/><circle r="1" fill="#b8b4b1" transform="matrix(3.83813 30.3819 -20.68754 2.61344 51.8 7.9)"/><path fill="#0077ce" d="M191 86h39v14h-39z"/><path fill="#6c6c65" d="M235.2 40.9L230.9 68l-4.5-43.1 44.6-2.5z"/><path fill="#332d21" d="M148 115l-15-21-39 27z"/><path fill="#f9ffff" d="M223 28h5v47h-5z"/><path fill="#c8d0de" d="M129.9 151.7l-3.5-2 9.7-17.4 3.5 2z"/><ellipse cx="82" cy="92" fill="#499ee9" rx="50" ry="5"/><path fill="#3c739e" d="M151 58h36v25h-36z"/><path fill="#8c867c" d="M7 0h23v72H7z"/><path fill="#263238" d="M219.4 93.4l-35.7 41.7 42.8-6.7-1.1.1z"/><ellipse cx="192" cy="67" fill="#fff" rx="6" ry="3"/><path fill="#435d72" d="M27 96h47v21H27z"/><path fill="#5f6059" d="M150.7 130.3l-1.1-11 53.7-5.6 1.1 11z"/><path fill="#9a9b99" d="M12.7 95l-11-44.8 95.8 16.1 110.8 7.9z"/><path fill="#dfe1d9" d="M271 23.4L224.3-16h7.8l8.1 38z"/><path fill="#844a3c" d="M195 55h22v28h-22z"/><path fill="#968873" d="M62.9 0L136-16l29.1 44.2L100.6 14z"/><circle r="1" fill="#e5eef5" transform="rotate(-175.7 28.6 4.8) scale(2.8837 44.09345)"/><path fill="#2a2818" d="M131 66l23-3-9 9z"/><path fill="#767a72" d="M229 62l14 7-4-51z"/><path fill="#88898b" d="M270 112l-136 46 63 12z"/><path fill="#514a44" d="M234.4 18.3l-67.3-33.6 36.2-.7-.2 61.5z"/><path fill="#6e2b2d" d="M171 41h10v17h-10z"/><ellipse cx="34" cy="14" fill="#e4f1fa" rx="3" ry="42"/><ellipse cx="140" cy="85" fill="#6db9fd" rx="50" ry="3"/><path fill="#007ad1" d="M91.4 115.6l.4-7.9 36.9-22.5-21.7 32.3z"/><ellipse cx="52" cy="113" fill="#0078ea" rx="18" ry="2"/><path fill="#7f7b68" d="M72 94h19v21H72z"/><ellipse cx="87" cy="126" fill="#044f82" rx="49" ry="3"/><path fill="#afa48f" d="M250-12l-39 23-5-12z"/><path fill="#cad1c9" d="M106 71h33v9h-33z"/><path fill="#158fdf" d="M162.6 46.6l-8.3 73.7H146l3.8-25.4z"/><path fill="#c9d3dc" d="M243 34h13v36h-13z"/><ellipse cx="108" cy="43" fill="#edf6fd" rx="3" ry="25"/><path fill="#2b0f0e" d="M192 53l15 1-16-6z"/><path fill="#9b9793" d="M36 8h17v29H36z"/><path fill="#b7bab2" d="M237.1 61.6l-63-26.1 14.7 23.7 3.3-10.4z"/><path fill="#d8dde0" d="M129.5 18.3l-9 8.9L7.6-16l125.7 40.5z"/><path fill="#a8a29c" d="M63.3 4.2l27.2 50.5-1.6-41.4-29.4 30.5z"/><circle r="1" fill="#b6afa6" transform="rotate(-104.1 162 -33.6) scale(6.01343 8.8118)"/><path fill="#dee5f0" d="M249 85l-4-16-18 10z"/><path fill="#2e2e2f" d="M170.1 21.9l43.7-15-61.6-9.4 11.3 30.8z"/><circle r="1" fill="#453f30" transform="matrix(30.12444 -10.66762 1.38707 3.91697 142.5 148.1)"/><path fill="#084370" d="M136.6 125.8l-5.8 20.3-22.1-8.3 17.5-14.9z"/><path fill="#2ea7f7" d="M177.4 61.4l10.4 36.1-3-28.1 2.3 2z"/><path fill="#aeb1ae" d="M5.6 16.8L4.4 123.7l17.9-10-38.3-9.6z"/><path fill="#4f5857" d="M248 70h6v17h-6z"/><path fill="#4d3d2f" d="M40 98h29v10H40z"/><path fill="#716a61" d="M84.5 149.5l4.4 1.3 46.1 14.7-8.6 19.5z"/><circle r="1" fill="#e2e8eb" transform="matrix(-2.0303 9.00914 -30.33934 -6.83727 86 54.5)"/><path fill="#695e54" d="M62.8 137.1l-5.6 25.5-5.9-40.3L1.7 94.5z"/><path fill="#0070bc" d="M145 98h66v13h-66z"/><path fill="#757671" d="M78.1 85.9l14.7-6.4 18.8-14.8-9.8 17.1z"/><path fill="#291b10" d="M210.6 109.6l-1.2-10 10-1.2 1.2 10z"/><path fill="#656060" d="M105 132l12-25 21 6z"/><path fill="#02050b" d="M52 126H30l23 12z"/><circle r="1" fill="#a2bde8" transform="rotate(-13 432 -296.3) scale(14.73524 2.81915)"/><path fill="#f7ffff" d="M73 20h5v25h-5z"/><circle r="1" fill="#080d14" transform="matrix(-11.83738 -1.4674 .55094 -4.44433 128.2 104.4)"/><circle r="1" fill="#1c98eb" transform="rotate(-179.7 74.6 45.5) scale(60.97988 6.31029)"/><circle r="1" fill="#1b6db2" transform="matrix(-32.00575 2.96908 -.14063 -1.51595 69.4 95.2)"/><path fill="#6c6a66" d="M271 29.9l-26.4 5.5-8.5-20.8-7.9 3.1z"/><path fill="#a8a79e" d="M122.7 22.8L102.3-16l35.3 32.9-11.8 72.3z"/><path fill="#f5fdff" d="M91 17h4v40h-4z"/><circle r="1" fill="#68635e" transform="matrix(.17198 30.6106 -18.64682 .10477 19.2 150.8)"/><path fill="#8c8a83" d="M31-16l-1 84-46-84z"/><path fill="#c5c8c7" d="M10.3 17.7l17 5.9-1.6 4.7-17-5.9z"/><path fill="#2f2b21" d="M119 156l-34-4 25-38z"/><path fill="#6a6256" d="M163 16l-31-1 3-31z"/><ellipse cx="44" cy="108" fill="#6d6d6c" rx="39" ry="4"/><path fill="#344b63" d="M168.6 55.2l-4.3 22.6-5-1 4.4-22.6z"/><path fill="#c1c4c0" d="M247.7 12.3L221 29.2l34.8-10.7-13.2-25.4z"/><path fill="#a0b0c0" d="M148 83h74v2h-74z"/><path fill="#276290" d="M225.2 96.3l7.6 4.9-18.2 26.9-1.4-3.2z"/></g></g></svg>