<svg xmlns="http://www.w3.org/2000/svg" viewBox="0 0 4752 3168"><defs/><filter id="a"><feGaussianBlur stdDeviation="12"/></filter><rect width="100%" height="100%" fill="#474f2e"/><g filter="url(#a)"><g fill-opacity=".5" transform="translate(9.3 9.3) scale(18.5625)"><circle cx="152" cy="116" r="161" fill="#9a93a2"/><circle r="1" fill="#e0dccb" transform="matrix(2.77488 23.62144 -102.31911 12.01973 37.9 136.8)"/><circle r="1" fill="#7dc3ff" transform="matrix(-84.91434 -2.14878 .43847 -17.32727 192.6 9.4)"/><circle r="1" fill="#060f00" transform="matrix(-2.39723 -24.00555 47.40713 -4.73414 229.7 74)"/><ellipse cx="18" cy="70" fill="#403a12" rx="130" ry="35"/><circle r="1" fill="#1a1932" transform="matrix(-14.03603 -26.81093 23.8491 -12.48545 170.1 130.3)"/><circle r="1" fill="#d49c83" transform="rotate(-105.3 178.7 -5.2) scale(72.61109 16.33395)"/><circle r="1" fill="#669dd6" transform="matrix(9.3566 23.34466 -32.4405 13.00222 71.2 0)"/><path fill="#0f0d17" d="M170.3 30.2l6.2 17-34.8 12.6-6.2-17z"/><circle r="1" fill="#545f25" transform="matrix(-27.29016 -10.74017 9.82697 -24.96978 237.1 49)"/><path fill="#e79d93" d="M159.4 51.4l24 16.2-12.8 19-24-16.2z"/><circle r="1" fill="#777757" transform="matrix(-28.94556 11.11116 -6.91259 -18.0079 70.6 105)"/><path fill="#2d2625" d="M120 141h98v14h-98z"/><ellipse cx="185" fill="#87b7ff" rx="43" ry="19"/><path fill="#d2d6bb" d="M80 120h55v25H80z"/><circle r="1" fill="#3e771a" transform="matrix(4.6435 -1.2393 4.03141 15.1051 121 142.9)"/><path fill="#0a0609" d="M132 91l28 8-21-27z"/><circle cx="22" cy="142" r="35" fill="#bbad9e"/><path fill="#697c99" d="M61 136l-9 32 66-9z"/><path fill="#28291a" d="M186 90l-16-53 101 59z"/><path fill="#9e9c8d" d="M148.7 117.8l-51-3.6 1.6-22 51 3.6z"/><path fill="#33191e" d="M.2 88.9l-.4-27 42-.8.4 27z"/><path fill="#6e7547" d="M0 30h131v31H0z"/><path fill="#b4715f" d="M121 157h94v13h-94z"/><path fill="#e1b7a7" d="M249 164l-29-40 15 61z"/><path fill="#a193a2" d="M148 131l14 19-3-28z"/><path fill="#628194" d="M103 7h50v32h-50z"/><path fill="#534648" d="M157.9 90.1l27.6 5.6-69.1 23 20.5 3z"/><ellipse cx="252" cy="128" fill="#94725c" rx="64" ry="20"/><path fill="#717055" d="M14 119h74v6H14z"/><path fill="#1d261f" d="M93 74h34v14H93z"/><path fill="#b38c7f" d="M176.8 84.1l26.6-41.9-15.2 24.2-36.3-21.1z"/><path fill="#6d645a" d="M25.2 185l-14.8-30.9-20.3 18.2 48.4-20.8z"/><circle r="1" fill="#5e603c" transform="matrix(-25.09223 10.34227 -5.43457 -13.18527 198.2 53.4)"/><path fill="#a6caff" d="M249 25L239 2l32 16z"/><path fill="#969b97" d="M228.3 114.3l-45.5-16.6 57.1-1.7 9.1-26.2z"/><path fill="#38362b" d="M62.1 49.3l18.2 22.3-5 11.1-53-41.2z"/><circle r="1" fill="#323b40" transform="rotate(140 4.3 6.1) scale(15.62099 26.48445)"/><path fill="#d2c5b5" d="M90.5 112.2l17.9 51.3-16.2-1.8 25.9-16.7z"/><path fill="#17132a" d="M94 165h25v5H94z"/><circle cx="72" cy="13" r="9" fill="#83b5f6"/><circle r="1" fill="#2a312c" transform="matrix(-1.84803 -1.23248 20.91058 -31.35409 94.5 21.6)"/><ellipse cx="223" cy="15" fill="#4e667b" rx="13" ry="7"/><path fill="#c7c5ba" d="M103 128l-119 34 2-33z"/><path fill="#d2a290" d="M234 137l-23-18-22 11z"/><path fill="#272e40" d="M144.8 154.1l52.5 2.5-66.4-8.6 11.7-31.9z"/><path fill="#4a545a" d="M242 125l-29-15-25 5z"/><path fill="#74968a" d="M223 30l-68-15 25 27z"/><path fill="#7f5e50" d="M47 131l-14 14-4 22z"/><path fill="#e6b9ad" d="M120 159h12v11h-12z"/><circle cx="27" cy="85" r="7" fill="#ba2d51"/><circle r="1" fill="#ffc9b0" transform="matrix(-1.52143 -1.74405 7.14449 -6.23254 74.8 169)"/><path fill="#dacaba" d="M131 77h2v21h-2z"/><path fill="#a0c0e9" d="M189 20.8l-6.6-6.9L210.3 9l5 21.4z"/><path fill="#694438" d="M144.2 193.5l-6.7-11.2 76.3-45.8 6.7 11.2z"/><circle r="1" fill="#7da8e7" transform="matrix(-10.96552 28.71586 -5.43245 -2.07445 136 1)"/><path fill="#8b916d" d="M83 129L70 87l-30 25z"/><path fill="#161f29" d="M158.9 96.2l36.7 53.5-23.5 5L166 98z"/><path fill="#777d56" d="M36 38l40 21-55-75z"/><path fill="#ae6f69" d="M150 75h31v18h-31z"/><path fill="#88b2de" d="M58.1 26.2l-4-11.8L24.4-16l31.7 45.8z"/><path fill="#3a5165" d="M81 7l54-14-100-9z"/><path fill="#372626" d="M134 78h30v6h-30z"/><ellipse cx="6" cy="112" fill="#babcae" rx="45" ry="3"/><path fill="#0a1005" d="M249 69h7v29h-7z"/><path fill="#9a7d78" d="M46.1 54.9l2.7 39.2-2.6 4.1-5-1.5z"/><path fill="#403b42" d="M93 111l-10 4-15-9z"/><ellipse cx="245" cy="48" fill="#5b623b" rx="47" ry="17"/><path fill="#1e1821" d="M-16 60.6L27.9 102l6.4-22.2 3.6 21.5z"/><path fill="#19190b" d="M181 76h12v14h-12z"/><path fill="#dec2b6" d="M162 54h8v25h-8z"/><path fill="#424645" d="M132.1 10.7l24.3 25.4-41.4 3.2 101.9 28.6z"/><path fill="#d6a790" d="M39.3 142.1l13.8 2.5-8.4 47.3-13.8-2.5z"/><circle r="1" fill="#83b5fe" transform="rotate(-58.7 93.2 -130) scale(9.72118 4.77164)"/><path fill="#4c474c" d="M118 185l-28-9-18-34z"/><path fill="#4b5b83" d="M223.3-16l4.3 21.2L240 2.4l31 16.2z"/><path fill="#1e211e" d="M227 74l19-13-13 45z"/><path fill="#d2cfc2" d="M87 116h28v31H87z"/><path fill="#505a49" d="M81.6 29.4L125.7 7 91.4 35.9l-12.1-38z"/><path fill="#647f03" d="M73 95l-9-11-21 16z"/><path fill="#a7a7a3" d="M238 101h18v8h-18z"/><path fill="#94878c" d="M252 57l-9 14v16z"/><path fill="#405e00" d="M246 169l25-32-4 31z"/><path fill="#8b8865" d="M131 27L80 55l24-32z"/><path fill="#41402c" d="M148.6 68.8l-29.7 14.3 3.5-21.8 46.3 4.9z"/><path fill="#69751c" d="M21.3 57.8l8.6-18.2-34.7-17.2-9.2 35.4z"/><path fill="#454c47" d="M122.9 147l56.2-2.1-54.9 12.9-30.5 14.3z"/><circle r="1" fill="#b58872" transform="matrix(-12.08892 9.8244 -12.89328 -15.86518 220 169)"/><path fill="#a8b4cf" d="M11 95l6-5 2 7z"/><path fill="#c79588" d="M167.3 81.3l.5-24.6 11.5 30.4 8.2-29.1z"/><circle r="1" fill="#b8c1b4" transform="matrix(.86396 -3.74223 10.54026 2.43341 211.4 106)"/><path fill="#506250" d="M135 21l15-13-5 23z"/><circle r="1" fill="#6f7054" transform="matrix(-.88475 1.81983 -35.86701 -17.43748 10 67.5)"/><path fill="#428010" d="M116 134h7v24h-7z"/><path fill="#6c7b7b" d="M77 37L57-16l-4 31z"/><path fill="#8a8996" d="M30 60l13-8-32 6z"/><path fill="#1e1918" d="M47.8 77.2l9.6 8.6 7.3-.7-5.7-8.5z"/><path fill="#c0c4b9" d="M11.2 138.2L34 152.9l-7.1 10.9L4 149.1z"/><path fill="#6990c1" d="M131 25l15 16 7-11z"/><path fill="#35410e" d="M107.7 63.5l-11.8-3.7-8.7 10.3 6.7 22.7z"/></g></g></svg>