<svg xmlns="http://www.w3.org/2000/svg" viewBox="0 0 1800 1013"><defs/><filter id="a"><feGaussianBlur stdDeviation="12"/></filter><rect width="100%" height="100%" fill="#31343d"/><g filter="url(#a)"><g fill-opacity=".5" transform="translate(3.5 3.5) scale(7.03125)"><circle r="1" fill="#fff" transform="matrix(.38462 -55.09198 239.98923 1.67547 126.1 31.6)"/><circle r="1" fill="#b1b9bf" transform="matrix(-45.91607 -104.82198 188.95796 -82.77088 84.7 89)"/><ellipse cx="113" cy="84" fill="#2e4055" rx="137" ry="17"/><ellipse cx="121" cy="28" fill="#dfe0db" rx="255" ry="38"/><ellipse cx="144" cy="124" fill="#4f515a" rx="142" ry="46"/><path fill="#6e8bad" d="M134 76L-16 61l32 35z"/><ellipse cx="150" cy="88" fill="#2f2c24" rx="52" ry="11"/><circle r="1" fill="#7b97b5" transform="matrix(-2.01656 8.4389 -63.45823 -15.164 217.5 81.8)"/><ellipse cx="50" cy="103" fill="#858893" rx="157" ry="6"/><circle r="1" fill="#909caf" transform="matrix(-69.37683 20.81405 -1.8585 -6.19468 64.4 16.5)"/><path fill="#eee4d0" d="M26 50h47v19H26z"/><path d="M185 94h44v4h-44z"/><circle r="1" fill="#4b5561" transform="matrix(-8.1986 -21.20277 57.71838 -22.31828 225.8 126.8)"/><path fill="#d8d6cd" d="M101 41.4l32.6-29.5 29.5 32.7-32.7 29.5z"/><circle r="1" fill="#5a6a81" transform="matrix(-16.87 18.02768 -16.04954 -15.0189 4.8 84)"/><path fill="#bebebb" d="M259-16l-67 81 65 11z"/><ellipse cx="127" cy="96" fill="#111315" rx="106" ry="2"/><circle cx="141" cy="71" r="6" fill="#423124"/><path fill="#7c92ac" d="M80 89L2 68l128-1z"/><ellipse cx="118" cy="115" fill="#737782" rx="58" ry="16"/><path fill="#444750" d="M26.4 164.3l-33-1.7 2.2-41 33 1.8z"/><ellipse cx="15" cy="123" fill="#131d23" rx="26" ry="2"/><path fill="#ced0cf" d="M124.9 12.2l25.2 63.4L203 24.9l-26.6-38.4z"/><ellipse cx="150" cy="83" fill="#484844" rx="28" ry="9"/><path fill="#514f47" d="M169.5 74.5l-45.7 22-97.4-1.8 75.4-9.6z"/><path fill="#76889e" d="M202.9 90.2l-1.8-2.4 21.8-24.7 16.7 34.4z"/><path fill="#a1aab9" d="M187 13l84-11-70-18z"/><path fill="#777980" d="M64.7 97.2l-80.7 5.6v21.4l194.4-17.9z"/><path fill="#c0bfb8" d="M120 60l144 12-5-40z"/><path fill="#262e37" d="M122 154l2-12 31-10z"/><path fill="#68809a" d="M93.8 63.5L96 79.4l-21.8 3L72 66.7z"/><path fill="#9fa9b8" d="M45 4h59v15H45z"/><path fill="#d8d3c8" d="M63.8 72.7l-79.8-19 125.6-8.3-46.5 28.2z"/><circle r="1" fill="#d3d5d6" transform="rotate(-26.7 27.1 -25.3) scale(86.4028 9.17612)"/><path fill="#677e97" d="M160.8 63.8l50.5 8.3 55.6 10-1.4 17z"/><path fill="#c8c5bd" d="M190.8 51.1l47.1 28.2 33.1-7.6-48.5-16.5z"/><path fill="#767781" d="M82 145l9-21 52 9z"/><path fill="#373c3e" d="M200 83l-14 15-46-26z"/><path fill="#535a66" d="M160 114l59 43 46-61z"/><path fill="#444952" d="M0 137h88v4H0z"/><path fill="#6a737f" d="M135 98h69v14h-69z"/><ellipse cx="254" cy="46" fill="#aab0b8" rx="39" ry="9"/><path fill="#74747e" d="M14 128h33v9H14z"/><path fill="#758ca3" d="M153 73.1L249 94l-50.5-25.7-32.7-.8z"/><path fill="#2f3841" d="M90 123h33v2H90z"/><circle r="1" fill="#615d5a" transform="rotate(-137.8 84.6 16.1) scale(6.73263 13.59428)"/><ellipse cx="36" cy="97" fill="#494a4e" rx="24" ry="3"/><path fill="#cdd1d3" d="M201.8 16.8l-70.5-4.5-92.7 21.5 94.8-.8z"/><path fill="#182126" d="M228.5 135.6l22.7-3.2.3 2-22.7 3.2z"/><ellipse cx="65" cy="78" fill="#71869e" rx="49" ry="9"/><path fill="#4c637c" d="M-16 90.1l14.1-22.2 13.5 7 40.6 14.6z"/><path fill="#464d56" d="M214.2 135l-35.4-12.3 45.3 19.9-138.3-1.2z"/><circle r="1" fill="#33372e" transform="matrix(.73465 2.45083 -20.22926 6.0638 93 89.5)"/><path fill="#c0beb6" d="M134.1 77.8l2.2-11.6 74.4.8-104.8-16.9z"/><path fill="#293039" d="M60 128h20v3H60z"/><path fill="#303842" d="M79 115h21v2H79z"/><ellipse cx="73" cy="101" fill="#878a90" rx="83" ry="2"/><path fill="#151818" d="M198 93h25v4h-25z"/><ellipse cx="254" cy="80" fill="#5b7592" rx="40" ry="3"/><path fill="#72859f" d="M111.4 67.7l-5.6 15.5 29.4-7.6 1.6-3.9z"/><path fill="#626772" d="M130 126h94v6h-94z"/><circle cx="101" cy="54" r="14" fill="#cfccc3"/><path fill="#cacdce" d="M129 24h124v15H129z"/><path fill="#6b8099" d="M227 71v20h-16V71z"/><path fill="#bdc1c6" d="M2.1 18.4l47.3 6.1-5-17.5-29.7 1.6z"/><path fill="#6f7582" d="M188 111h42v3h-42z"/><path fill="#454d57" d="M204 131.9l-5.6 5.7-22.3-21.5 5.5-5.7z"/><path fill="#b1b7c1" d="M168.6.7l-.7 10.2-19.3 3.7 2.2-8.4z"/><path fill="#dbd6cc" d="M-.5 52.2l22.8 13.4 16.8 1.9 50.1-16.9z"/><path fill="#4e545d" d="M29.8 127.6l14-1.2 33.9-3.5-48.3-4z"/><circle r="1" fill="#b7babb" transform="matrix(-39.06314 -3.08172 .30944 -3.92235 57.3 44)"/><path fill="#5b575b" d="M91 91h36v5H91z"/><path fill="#10151c" d="M133 94h39v3h-39z"/><ellipse cx="18" cy="110" fill="#686972" rx="23" ry="8"/><path fill="#c9c8c0" d="M128 53.9l58.9 9.4 25.7 10.1-12.7-38.8z"/><path fill="#7f91a5" d="M227.3 91.3l-1 2.9-53.6-19.5 1-2.9z"/><path fill="#313942" d="M78 139l4 17-24-12z"/><path fill="#4f565e" d="M118 115.5l5.4 10.2 11.4-2.6-33.4-8.6z"/><ellipse cx="181" cy="91" fill="#41454f" rx="25" ry="4"/><path fill="#7589a1" d="M58.5 70.9l-16.7-4.4 6.4 21.9 69.1-21.8z"/><path fill="#101315" d="M223.5 95.2l.3-1 8.7 2.6-.3 1z"/><path fill="#6f859d" d="M113 75L87 63 39 81z"/><path fill="#7a8ea2" d="M145.5 76.9l29-3.6-10.5-6.7-14.5 4.3z"/><path fill="#6d717b" d="M134.8 132.4l52 2.9-55.6 1.1L151 159z"/><path fill="#353a3c" d="M180.8 79.3l22.9 6.8-58 .9 9.2-7.3z"/><path fill="#29343d" d="M183 137h30v2h-30z"/><circle r="1" fill="#6f859f" transform="matrix(2.6081 -6.78612 17.60018 6.76425 20.4 72)"/><path fill="#424954" d="M256.7 149.7l-16.6-44-20.8 10.1 51.7 11z"/><path fill="#424348" d="M160.6 90.2l2.6 2-27.8-25.1 8.7.7z"/><ellipse cx="119" cy="119" fill="#81838d" rx="22" ry="2"/><path fill="#787982" d="M66 121l-37-8 22-7z"/><circle r="1" fill="#6d6f79" transform="rotate(8.1 -902.8 416.6) scale(63.33087 1)"/><circle r="1" fill="#a3aab6" transform="matrix(40.30289 -5.6642 .38764 2.75823 26.2 26.7)"/><circle r="1" fill="#b1b8c0" transform="matrix(-.90809 -4.15441 30.6974 -6.70995 92.3 16.2)"/><path fill="#5d636c" d="M221.9 130.3l-4.1 20 14.6-15.2 8.5-7.2z"/><path fill="#6a635c" d="M132 79l5-10 15 12z"/><path fill="#343e49" d="M122 113h20v2h-20z"/><ellipse cx="87" cy="97" fill="#1d262c" rx="74" ry="1"/><path fill="#84858d" d="M113.6 132l15-4.4-1.4-2.3-23.8 3.4z"/><path fill="#0a1318" d="M126 142h10v2h-10z"/></g></g></svg>