<svg xmlns="http://www.w3.org/2000/svg" viewBox="0 0 1800 1012"><defs/><filter id="a"><feGaussianBlur stdDeviation="12"/></filter><rect width="100%" height="100%" fill="#3c4451"/><g filter="url(#a)"><g fill-opacity=".5" transform="translate(3.5 3.5) scale(7.03125)"><path fill="#dde4e7" d="M271 101L231-16-16 65z"/><circle r="1" fill="#fffff7" transform="rotate(-72.3 77.7 49.6) scale(58.15424 31.38653)"/><circle r="1" fill="#adada1" transform="rotate(-98.1 109.8 -13.2) scale(30.94751 68.21463)"/><circle r="1" fill="#1a1d0d" transform="rotate(88.5 .8 57.2) scale(116.73571 13.51057)"/><path fill="#b3c0cc" d="M144-16L112 94l114-28z"/><circle r="1" fill="#1e211d" transform="matrix(25.44276 -60.63078 4.31098 1.80904 114.5 55.7)"/><circle r="1" fill="#607ea6" transform="matrix(-87.82417 -20.99727 10.34648 -43.27569 219.2 6)"/><circle r="1" fill="#0a270f" transform="rotate(-15.9 77.7 -97.4) scale(107.60899 28.32582)"/><circle r="1" fill="#fff" transform="matrix(-12.04508 22.0055 -9.94244 -5.44216 5.8 112.2)"/><ellipse cx="213" cy="110" fill="#5e656b" rx="165" ry="23"/><path fill="#9e9b95" d="M73 144l44-71-12 71z"/><path fill="#93856b" d="M43 61l-27 91 27-3z"/><path fill="#1f291c" d="M106.1-16L132.9-.6l-6.7 52.8-15.5-26.7z"/><circle r="1" fill="#b5aea2" transform="rotate(24.3 -65.2 245.3) scale(17.07195 26.78716)"/><path fill="#2d2a2f" d="M44 43.7l6.8 29.8 48.7 25.1-.7-8z"/><path fill="#f5eada" d="M40.1 49.3l5.2 19.3L-.1 80.7l-5.2-19.3z"/><path fill="#1b3645" d="M175 98l-45.4-2.9 19.4-11-5.5-4.1z"/><circle r="1" fill="#566c8d" transform="rotate(122.7 105.3 59.6) scale(16.68907 104.03775)"/><path fill="#cec1ae" d="M72 88h9v33h-9z"/><circle r="1" fill="#20201b" transform="matrix(-8.42494 -2.50923 6.061 -20.35023 138.8 130.4)"/><circle r="1" fill="#bcc0b8" transform="matrix(.2862 -14.90545 35.55118 .68262 198.4 75.5)"/><path fill="#d9cdb8" d="M107.6 86.2l25.2-31 15.6 12.6-25.2 31z"/><path fill="#5b5b58" d="M49.8 40.5l53.6-5.3L130 25.1 74.8 33z"/><ellipse cx="54" cy="86" fill="#45484a" rx="17" ry="28"/><path fill="#363d42" d="M72 122l25 11 41-12z"/><path fill="#343f4e" d="M271 132.1l-34.2 17.4-6.9-57.4 26.8-2.7z"/><path fill="#c2b198" d="M15 67h24v64H15z"/><ellipse cx="187" cy="111" fill="#74828e" rx="40" ry="9"/><path fill="#8d9bac" d="M136-16l-9 65 62-58z"/><path fill="#40302a" d="M95.6 92.2l-14.5-8.5 45.3 12.7-1.6 7.8z"/><path fill="#fff" d="M22 95l-34-4-4 45z"/><path fill="#292e30" d="M69.1 135.2l24.5-24.3-.3-18.5-15.1 24.4z"/><ellipse cx="174" cy="91" fill="#202e40" rx="10" ry="6"/><path fill="#313633" d="M44 9h24v52H44z"/><path fill="#9c9d98" d="M73.3 139.8l15.5-2.6 34.3 2.2-.7 5z"/><path fill="#3e4142" d="M87.8 101l34.5-66.8 6.2 5.1L113.9 76z"/><path fill="#a2a4a3" d="M120.3 115.1l1-10.9-17.9-9.5-19.3 29.2z"/><ellipse cy="84" fill="#b49472" rx="33" ry="10"/><path fill="#120d01" d="M151.6 131.8l2.9-3.5 7.4 29.7 3.1-31.6z"/><path fill="#c1b4a4" d="M69 56l4-22 27 42z"/><circle r="1" fill="#90a0b0" transform="matrix(-76.67178 -36.48643 6.33572 -13.31374 208.3 51.8)"/><path fill="#57544f" d="M10.8 156.6l-5.3-10.8 37.7-18.4 5.3 10.8z"/><circle r="1" fill="#94836b" transform="matrix(-27.65896 7.93108 -.61184 -2.13373 25.2 51.5)"/><path fill="#010000" d="M138 149.2l-14.5-13.6 19.8-4.1L138 158z"/><path fill="#e5e3dc" d="M5 126h24v6H5z"/><path fill="#cebda5" d="M72 85.5l17.3 7.7-3.2 7.3-17.4-7.7z"/><path fill="#8d96a0" d="M131 99h29v10h-29z"/><path fill="#8b877e" d="M49 149L38 96l-19 9z"/><path fill="#788ba3" d="M261.5 73.4l-33.1-20.6 20.1-32.2 33.1 20.6z"/><path fill="#5e6062" d="M155.7 114.7l28.9 5.9-67-3.9 37.8 28.2z"/><path fill="#262826" d="M71.6 39.7L122 23.3l.4 1L72 40.7z"/><circle r="1" fill="#16110c" transform="matrix(5.62195 3.62703 -10.28289 15.93862 59.3 134)"/><path fill="#a7a095" d="M72 54l16-27-17 8z"/><ellipse cx="31" cy="120" fill="#646056" rx="21" ry="2"/><path fill="#bbbcb6" d="M105.6 88.3l29.6-53.8 67.6 61.8-26.9-13z"/><ellipse cy="6" fill="#162d25" rx="97" ry="24"/><path fill="#2d3e47" d="M164.1 93.9l2.4-4.7-42.1 12.4L136 87.4z"/><path fill="#bdb7ac" d="M74 68.3l16.2-24L110 57.7l-16.3 24z"/><path fill="#ebeeef" d="M19 76L8 58l34-10z"/><ellipse cx="23" cy="70" fill="#d3cec3" rx="17" ry="9"/><circle r="1" fill="#52524f" transform="matrix(-5.18262 -3.41508 13.47816 -20.45404 76.5 129)"/><path fill="#4a2d34" d="M59.9 56.5L81 89.8 62.7 38 42.3 61.6z"/><path fill="#c1c1c4" d="M103.2 25l.9-4 8.7 2-.9 4z"/><circle r="1" fill="#526886" transform="matrix(6.69128 -11.13615 54.4063 32.6906 222.9 0)"/><path fill="#2a3e35" d="M55-16l35 43L6 55z"/><path fill="#162a25" d="M119 24L86-16l52 22z"/><path fill="#6b6762" d="M106.8 11L89.4-10l-.9 1.9L111.1 21z"/><path fill="#9f9f9b" d="M73.1 102.1l14-2.6L69 134.3l5.4-20.2z"/><path fill="#3d4242" d="M67 65.7l-20.7 9.5 29.3 12.1 38.1 9.7z"/><path fill="#120e04" d="M107 134h28v4h-28z"/><path fill="#7a8486" d="M171 127h34v5h-34z"/><ellipse cx="236" cy="99" fill="#3a4a5c" rx="49" ry="5"/><ellipse cx="50" cy="133" fill="#2e2e2c" rx="23" ry="3"/><path fill="#a1a4a7" d="M118.8 31l-7.6-2-44.5 26.3 42.8 2.5z"/><path fill="#938779" d="M-7.7 131.9l-8.3 15.8 38.2-18.2-13.5 1.6z"/><path fill="#716c60" d="M11 104h41v3H11z"/><path fill="#434445" d="M39 90h33v30H39z"/><path fill="#ebece4" d="M-7 109l33 1-42 14z"/><path fill="#5b5a54" d="M124 111l-11 20 15 6z"/><path fill="#232e36" d="M135 106v12l14 2z"/><path fill="#b4ad9f" d="M42 125l-4-10-31 25z"/><path fill="#515f6f" d="M207 102h49v11h-49z"/><path fill="#191813" d="M87.1-12.1l17.3 27.9L90 24.9 58-11.9z"/><path fill="#cdc1ad" d="M155 74l-33 20-19-7z"/><path fill="#3a3f3f" d="M174.7 155.5l-12.4-35.6 18 15.1 90.7-12.7z"/><circle r="1" fill="#fbfcf8" transform="rotate(-175.4 8.4 48) scale(12.148 3.07836)"/><path fill="#a0978a" d="M135 105.4l-1 12-9-.8 1-12z"/><path fill="#a5a296" d="M271 71.3l-92.5 15.9 10.9 8.5 81.1-18.5z"/><path fill="#b2a89c" d="M96.3 86.2l-8.4-41.3-20.2 8.9 7.7 16.9z"/><path fill="#fff" d="M7 140.5l-.1 1-13.9-2 .1-1z"/><circle r="1" fill="#3b3226" transform="matrix(-7.8803 3.21504 -3.14725 -7.71414 63.3 43.6)"/><path fill="#7a7b7b" d="M257.2 91.6l-53.7 4.7-.7-8 53.7-4.6z"/><path fill="#dbd9d0" d="M-16 117.8l41.2 10.4L8 120.8l28.3-6.8z"/><path fill="#283d44" d="M152.1 94.6l-9.2-3.8 3-7.4 9.2 3.8z"/><path fill="#263530" d="M140.1 13.7L72.9-16l59 18.1 8.5 10.1z"/><path fill="#4d4444" d="M99.5 75.3l-6.7 18 42 5.4-16.1 5.6z"/><path fill="#fff" d="M23 126.2l.3 1L7 131.7l-.3-1z"/><path fill="#4b5242" d="M22.2 48.1l-25 10.1-3.4-8.3 25-10.1z"/><path fill="#979a9f" d="M66.9 38.7l37.3-16.6 12.9 3.6-11.4 2z"/><path fill="#5d5145" d="M65.7 158l-51.9-20.9-29.8-2.9 30.7 4.7z"/></g></g></svg>