<svg xmlns="http://www.w3.org/2000/svg" viewBox="0 0 1000 667"><defs/><filter id="a"><feGaussianBlur stdDeviation="12"/></filter><rect width="100%" height="100%" fill="#303a50"/><g filter="url(#a)"><g fill-opacity=".5" transform="translate(2 2) scale(3.90625)"><circle cx="172" r="141" fill="#fbffff"/><ellipse cx="81" cy="122" fill="#668fb8" rx="181" ry="27"/><circle r="1" fill="#3a3534" transform="matrix(8.79698 -30.44888 38.0082 10.98093 56.5 54.9)"/><circle r="1" fill="#fdffff" transform="matrix(-1.78301 27.38363 -137.14002 -8.9295 152.9 7)"/><circle r="1" fill="#a5bcd2" transform="matrix(-74.95831 29.07441 -7.26075 -18.71932 87.2 100.3)"/><circle r="1" fill="#414f5f" transform="matrix(79.4998 7.09517 -2.12771 23.84054 186.4 138.3)"/><circle r="1" fill="#615e5e" transform="matrix(-9.62705 32.63088 -75.45369 -22.26102 24.6 43.4)"/><circle r="1" fill="#527598" transform="matrix(128.87557 -4.20332 .81765 25.0695 18.5 139.1)"/><ellipse cx="104" cy="14" fill="#d3e5f5" rx="41" ry="21"/><path fill="#36363b" d="M34.7 96.9l-45.9 32.5-4.8-73.9L74.8 74z"/><path fill="#a9bbc8" d="M81 63h175v32H81z"/><ellipse cx="255" cy="117" fill="#6685a9" rx="192" ry="17"/><path fill="#877a69" d="M88 43h123v16H88z"/><ellipse cx="192" cy="168" fill="#3c3225" rx="55" ry="28"/><circle r="1" fill="#625c59" transform="matrix(1.21983 -22.05247 47.1918 2.61042 28.3 36)"/><circle r="1" fill="#bdd3e6" transform="rotate(-159.5 14.1 .1) scale(56.38916 4.1785)"/><circle r="1" fill="#5a7da5" transform="matrix(.13218 -5.4366 61.34726 1.4915 220 59.4)"/><ellipse cx="159" cy="18" fill="#d2e0ea" rx="98" ry="17"/><path fill="#b29a7b" d="M160 39h96v14h-96z"/><circle r="1" fill="#9aafca" transform="matrix(37.46443 -14.69426 3.21543 8.19804 66.9 108)"/><path fill="#8f8786" d="M247.3 152.9l23.7.9-25.8 31.2 2.6-1.4z"/><path fill="#606775" d="M71 91l-57 23 94-75z"/><ellipse cx="77" cy="154" fill="#33526e" rx="56" ry="11"/><circle r="1" fill="#67656d" transform="rotate(-90.3 181.5 -30.7) scale(4.88235 23.53157)"/><path fill="#5e5959" d="M26 8l-42 54 145-6z"/><path fill="#201812" d="M213.4 143.8l1.7-6.3 9.9-5.6 14.5 11.7z"/><path fill="#7793b6" d="M82.7 60.1l-36.5 7.5 33.5 2 119.7-17.3z"/><path fill="#b9cee6" d="M271 7.7L63.4 17.1.4-.7 271-4.9z"/><path fill="#5e7a9f" d="M233 118.6l24.4-5.6 5.6 24.4-24.4 5.6z"/><circle r="1" fill="#887672" transform="matrix(-3.41917 -5.61608 13.21672 -8.0466 19.5 28.7)"/><circle r="1" fill="#151918" transform="matrix(-.64522 7.24898 -33.19145 -2.95433 170 169)"/><ellipse cx="185" cy="101" fill="#86a0b9" rx="80" ry="10"/><path fill="#456183" d="M202 129l-58 26 13-30z"/><path fill="#3b404c" d="M-16 123l96-51-52-17z"/><ellipse cx="170" cy="63" fill="#decdb7" rx="2" ry="31"/><path fill="#373e48" d="M36 25.7l59.5 25.4L20 34.7l1.4 18.1z"/><path fill="#2b2116" d="M147 144.7l-1 12-15-1.4 1-12z"/><path fill="#6984a6" d="M127 130l-143 11 38-33z"/><ellipse cx="235" cy="51" fill="#e8c6a0" rx="70" ry="2"/><path fill="#a18164" d="M62.8 24.8l35.4 27.3 9.6 8 8.5-5.1z"/><ellipse cx="37" cy="55" fill="#757174" rx="56" ry="4"/><ellipse cx="41" cy="60" fill="#2b374a" rx="33" ry="3"/><path fill="#7791ae" d="M161.3 66.6l-.7-13.2-44.9.3 38.4 20.8z"/><ellipse cy="96" fill="#23272e" rx="11" ry="21"/><ellipse cx="143" cy="80" fill="#b4bec4" rx="55" ry="9"/><path fill="#afb3bd" d="M88 33l61 1-43 11z"/><path fill="#dcdfde" d="M233 28h23v7h-23z"/><ellipse cx="39" cy="66" fill="#4d5e7b" rx="28" ry="4"/><circle r="1" fill="#d7dfe4" transform="matrix(72.26337 -2.20437 .41312 13.54279 153.6 20.5)"/><path fill="#080a0a" d="M221.3 172.3l18.8-13.2 4.6 6.6-18.8 13.2z"/><path fill="#cba987" d="M117 52h101v2H117z"/><ellipse cx="131" cy="125" fill="#516e91" rx="84" ry="4"/><path fill="#95928e" d="M215 55.1l-94.4-13.7 70.2-1.5 38.8-10.1z"/><path fill="#2c2523" d="M251 155l7-18-16 5z"/><path fill="#587395" d="M204 141.1l-8.9 6.8 14.4-34.7 61.5 2.7z"/><path fill="#89796b" d="M163.3 66.5l19 3.7-20.3.2 1.9-.2z"/><path fill="#b1b5ba" d="M101.6 46.5l2 13.3L86 61.7l43.9 26.2z"/><path fill="#313136" d="M152.4 165.1l38.7-22.7 11.9-6.2-47.1 11.7z"/><path fill="#828e9e" d="M11.1 130.6l56.4-43.4 22.6-16.8 7.9 5.4z"/><ellipse cx="213" cy="36" fill="#acb0b8" rx="125" ry="3"/><ellipse cx="148" cy="151" fill="#7b7270" rx="5" ry="6"/><path fill="#8599af" d="M178 63h78v9h-78z"/><path fill="#3c5772" d="M131 143.5v17H1v-17z"/><path fill="#fff1ce" d="M162 64h15v3h-15z"/><path fill="#73869f" d="M5.1 101l33.9 3-.1 1L5 102z"/><path fill="#353942" d="M.6 55.2L-8 42.9l11.4-8L12 47z"/><path fill="#41484c" d="M11.5 4.3l59.9 30.1L2.7 10.2 4.9-16z"/><circle cx="95" cy="55" r="5" fill="#363137"/><path fill="#1f3d56" d="M132 163l-76 22-72-26z"/><path fill="#908980" d="M177 40h79v9h-79z"/><circle cx="87" cy="55" r="3" fill="#dead80"/><path fill="#56555c" d="M219 175l-11 10-18-40z"/><path fill="#627b99" d="M211 54h45v8h-45z"/><path fill="#d9d8d4" d="M80 27h55v7H80z"/><path fill="#0f0b07" d="M232 135h5v10h-5z"/><path fill="#7994b6" d="M8 118h86v6H8z"/><ellipse cx="47" fill="#afc3dc" rx="35" ry="9"/><circle cx="74" cy="32" r="5" fill="#9a836b"/><path fill="#6b696f" d="M227.4 155l-14.7 2.8-2.1-10.8 14.7-2.8z"/><path fill="#4f4e51" d="M70 60l23-23-41 4z"/><circle r="1" fill="#748ca6" transform="matrix(-.53612 9.22202 -41.86395 -2.43374 228.6 113.2)"/><path fill="#a2b5c8" d="M116.5 89.1L58 97.7l.9 12.2 10.1.5z"/><path fill="#2f3440" d="M88 58.8l-50 3.4v-1l49.8-3.4z"/><path fill="#4f698b" d="M241 136.7l-8.5 13.3 25.2-16-88.3-13.8z"/><path fill="#415c7c" d="M213.3 140l-44.2-.9 45.6-9.5-11.9 21z"/><circle cx="191" cy="141" r="4" fill="#26201c"/><path fill="#8ea4b9" d="M265.1 85.9l-87.2 21.7-62.3 1.5 16.9-16.7z"/><circle cx="2" r="4" fill="#8a8a8a"/><path fill="#202124" d="M187.6 149.6l7.1 17.9-32.3 17.5 9.2-22.9z"/><circle r="1" fill="#3f3a39" transform="matrix(15.90881 5.15378 -.42045 1.29785 155.6 146.7)"/><path fill="#5b6673" d="M80.5 85.5l-42.6 3.9-6.5 5.9 16-3.7z"/><path fill="#647184" d="M13 107.6l-1.4 9.7 21.6-6.7 28.2-10.1z"/><ellipse cx="153" cy="51" fill="#8a7659" rx="14" ry="2"/><ellipse cy="164" fill="#37506e" rx="29" ry="7"/><path fill="#474b53" d="M155.6 181.7l-2.3-2 27-33.4 2.4 2z"/><path fill="#736665" d="M9.1 46.1L32.4 5 16.1 28-16-3.4z"/><path fill="#3e434a" d="M64.9 31.5l-57.2 11L42 30.4 63.6 25z"/><path fill="#131414" d="M157.8 163.2L113.1 185l52.5-23.6.9-12.1z"/><path fill="#557294" d="M37.4 126.4l77.8-8.2 62.2 3.4-85.2 11.5z"/><path fill="#8f959d" d="M53 33h13v2H53z"/></g></g></svg>