<svg xmlns="http://www.w3.org/2000/svg" viewBox="0 0 1800 1200"><defs/><filter id="a"><feGaussianBlur stdDeviation="12"/></filter><rect width="100%" height="100%" fill="#303949"/><g filter="url(#a)"><g fill-opacity=".5" transform="translate(3.5 3.5) scale(7.03125)"><circle r="1" fill="#d8cda4" transform="matrix(122.47236 53.61098 -23.78002 54.3246 84.9 33.3)"/><circle r="1" fill="#607589" transform="rotate(-124.9 106.6 44.8) scale(42.96534 122.67665)"/><circle r="1" fill="#b3eeff" transform="matrix(-7.27156 16.82842 -30.21893 -13.0576 130.8 0)"/><circle r="1" fill="#52594c" transform="rotate(67.7 86.7 164) scale(63.02959 44.61745)"/><circle r="1" fill="#c7b193" transform="rotate(117.8 41.1 65.3) scale(27.61528 53.83316)"/><circle r="1" fill="#5c664c" transform="matrix(-16.65449 24.05214 -71.2418 -49.33017 42.8 71.8)"/><ellipse cx="4" cy="82" fill="#3d5b7c" rx="20" ry="62"/><path fill="#000a4e" d="M167.6 93.6l14 1-3.2 43.8-14-1z"/><path fill="#384432" d="M70 90h63v27H70z"/><path fill="#fff" d="M95.5 82.4l1.2-10 25.8 3.2-1.2 10z"/><circle r="1" fill="#373a24" transform="rotate(154.6 88.8 47.6) scale(21.80919 13.24892)"/><path fill="#8ea0ad" d="M249-15l-33 51 55-47z"/><path fill="#eaeef0" d="M24 57h16v13H24z"/><circle r="1" fill="#807737" transform="rotate(176.3 31.9 39.4) scale(17.44167 33.62187)"/><circle cx="192" cy="97" r="13" fill="#a2b1c0"/><circle r="1" fill="#637d97" transform="matrix(14.3669 14.34334 -17.95392 17.9834 116 156)"/><path fill="#000515" d="M190 112h11v26h-11z"/><circle r="1" fill="#4b6376" transform="rotate(131.5 81.4 136.7) scale(16.14256 50.01333)"/><ellipse cx="217" cy="91" fill="#93a4bf" rx="3" ry="38"/><path fill="#004291" d="M24 95h24v26H24z"/><path fill="#dcd0b8" d="M137 97h13v18h-13z"/><path fill="#183014" d="M74.7 79.1L54.2 67.5l-10.8-4.8-8.7 10.2z"/><ellipse cx="134" fill="#a5c8ff" rx="25" ry="18"/><ellipse cx="225" cy="113" fill="#492716" rx="6" ry="31"/><path fill="#b7a288" d="M55 37L-16 9l44-25z"/><path fill="#c5b092" d="M191.6 68.1l15.1 9.2-16.7 4.5-74.2-17z"/><circle r="1" fill="#3f4557" transform="matrix(-3.6001 5.7343 -14.55174 -9.13586 143 28.7)"/><circle r="1" fill="#484d53" transform="rotate(-112.6 86.4 34.7) scale(24.24666 54.42051)"/><path fill="#394146" d="M210 75.2l3.1 61.9-18.3-107.3L271 63.9z"/><circle r="1" fill="#003496" transform="rotate(136.1 63.7 90.8) scale(10.55024 9.9027)"/><circle r="1" fill="#aca052" transform="matrix(16.42686 11.8039 -5.75659 8.01114 79.9 73.6)"/><path fill="#636251" d="M124 55h8v33h-8z"/><path fill="#4f5953" d="M162 1h69v34h-69z"/><path fill="#a1937b" d="M70.2 103.9l-6.9 12.3L56 98l55.7 3.9z"/><path fill="#5e5657" d="M93.4 30l1.8-21L66.6-4.5 58 0z"/><path fill="#3f424e" d="M46 8l10 33 3-32z"/><path fill="#a99b8f" d="M24.7 8.2l-3 45.7 35.5-23-17.6 35.8z"/><path fill="#0b0b05" d="M138 139l8-16-7-11z"/><path fill="#2d3c30" d="M46 89h62v10H46z"/><ellipse cx="153" cy="126" fill="#577891" rx="7" ry="46"/><path fill="#2b291e" d="M167 122h12v41h-12z"/><circle r="1" fill="#888e95" transform="matrix(-11.1189 -1.3058 .40463 -3.4454 212.1 26.1)"/><path fill="#4a4e57" d="M47 47L19 20l19 5z"/><circle r="1" fill="#c5ab91" transform="rotate(66.4 15 75.4) scale(16.01413 8.00268)"/><path fill="#3b4a5d" d="M-7 9.6l-9 74.8 46-46.5-18.7-4.8z"/><path fill="#5b7c9b" d="M150.3 1.2l8.7 14.9L202.1-16 183 13z"/><path fill="#b7a640" d="M44.5 75.2l21.5 5-2.5 10.6-21.5-5z"/><path fill="#323b35" d="M210 16.6l-51.3-3 19.7 17.7L234.9-16z"/><path fill="#3a4430" d="M77.8 48.2l.4 9-20 .6-.4-9z"/><path fill="#9dbfee" d="M144.3-16L76.5-6.9l74.2 29.2 11.8 2z"/><path fill="#1f1d34" d="M67 105h29v12H67z"/><path fill="#fffff3" d="M90 74l23 1 12 12z"/><circle r="1" fill="#3b4957" transform="rotate(-50.4 268 -122.9) scale(18.08724 30.1468)"/><path fill="#373e45" d="M203 69h8v54h-8z"/><path fill="#84a0c1" d="M215 84h4v56h-4z"/><path fill="#4a5d70" d="M-5.1 185l100.7-47.5 6 47.5H-16z"/><path fill="#908364" d="M114.4 78.3l-6.6-16.5L66.9 48l69.9 37.3z"/><path fill="#6c7076" d="M172 56l22-30-48 36z"/><path fill="#101f33" d="M48 124l12-30-12-6z"/><circle r="1" fill="#3a3e24" transform="matrix(5.41951 -13.24546 9.14214 3.7406 197 43.4)"/><path fill="#8e7f6a" d="M188.8 60.3l19 13-11.4 4-36.7-13.6z"/><path fill="#454d28" d="M29 69h16v26H29z"/><circle r="1" fill="#232c39" transform="matrix(12.79051 -16.29462 8.39412 6.58899 248.3 25)"/><path fill="#485c6f" d="M22 14l-38 74 37 56z"/><path fill="#eae5cd" d="M131 95l3 6 15-2z"/><ellipse cx="229" cy="83" fill="#9f8d80" rx="2" ry="14"/><path fill="#d9c49f" d="M84 65h37v6H84z"/><ellipse cx="162" cy="89" fill="#9cafca" rx="20" ry="3"/><ellipse cx="162" cy="76" fill="#bfb395" rx="41" ry="4"/><path fill="#69624e" d="M203 53l43-59-33 17z"/><path fill="#6b6962" d="M178.1 85.4l-33.6 2.7 22.2-16.3-.3 30.3z"/><path fill="#ccb69d" d="M38 27l17 12L35 5z"/><path fill="#2484b3" d="M148.5 102.8l3.3-6.9 8.1 5.1-6.5 14.5z"/><path fill="#536477" d="M194 142l-40-13-54 56z"/><path fill="#978070" d="M114 10L94 28l60 21z"/><circle r="1" fill="#7e852e" transform="matrix(-7.2922 -3.89368 1.25536 -2.35109 136.3 72.3)"/><path fill="#d9a5a2" d="M218 72l9 1-6 2z"/><path fill="#000707" d="M164 122h14v10h-14z"/><path fill="#93865a" d="M132.8 93.4l-13.2 1.5 11.3-14.3 30 1.4z"/><path fill="#5d757d" d="M13.5 87.3l30.1-24.6L15.4 71 9 87.5z"/><path fill="#b7ad57" d="M50 42l9 23-10-5z"/><path fill="#878072" d="M183 98l16 6-14 14z"/><path fill="#92b0ce" d="M178 91h25v10h-25z"/><path fill="#6f7f30" d="M88 90L77 75l48 17z"/><path fill="#7795a9" d="M184.3 34.4l-2.3-3.8-2.1-3.6 15.2 6.2z"/><path fill="#a6c1e6" d="M232 15l7 1 2-10z"/><path fill="#403f3e" d="M154.1 114.4l2 8.6-11.2.3-59.6 17.3z"/><path fill="#1c2b32" d="M-16 101.9L4.3 185l27.3-29-15.1.8z"/><path fill="#2a2a2d" d="M109.2 138.1L30 110.3l26.9 11.2L98 140.2z"/><path fill="#373f40" d="M284.1 68.2l-10.7 76.3-47.5-6.7 10.7-76.3z"/><path fill="#8d8278" d="M163 60H73l40-15z"/><path fill="#a3907a" d="M74.9-16L61.3 15.8 51.1 5.2-16 24.1z"/><path fill="#00276c" d="M175 116.7l4.5-15 4.1 8.5-1.4 15.1z"/><path fill="#747a69" d="M55 97h45v9H55z"/><path fill="#5e738a" d="M121 163l14-36-56 24z"/><path fill="#1b252f" d="M191 108h7v44h-7z"/><path fill="#7495b1" d="M230.3 23.6l.6.7-31.2 28.1-.6-.7z"/><path fill="#a99777" d="M152.5 118.2l-14.9-20.6 10.9 23.8-18.9-1.4z"/><path fill="#ccb198" d="M31 47l-4-15 14 15z"/><path fill="#817166" d="M76.8-12.9l43.4 27.1-5.7 3.1-9 19.4z"/></g></g></svg>