<svg xmlns="http://www.w3.org/2000/svg" viewBox="0 0 1800 1200"><defs/><filter id="prefix__a"><feGaussianBlur stdDeviation="12"/></filter><rect width="100%" height="100%" fill="#2e3c5c"/><g filter="url(#prefix__a)"><g transform="translate(3.5 3.5) scale(7.03125)"><ellipse cx="125" cy="55" fill="#b5daed" fill-opacity=".5" rx="255" ry="101"/><ellipse cx="206" cy="77" fill="#bbdefd" fill-opacity=".5" rx="113" ry="38"/><circle r="1" fill="#080000" fill-opacity=".5" transform="matrix(32.18276 -9.90107 5.21707 16.95773 58 95.4)"/><ellipse cx="139" cy="141" fill="#826335" fill-opacity=".5" rx="253" ry="27"/><circle r="1" fill="#286dbb" fill-opacity=".5" transform="matrix(-7.84102 54.14386 -132.88902 -19.24477 46.9 16.9)"/><circle r="1" fill="#82acd8" fill-opacity=".5" transform="matrix(-120.1663 107.29973 -31.92729 -35.75577 220 5.2)"/><path fill="#17150b" fill-opacity=".5" d="M77 108l-59 4 34-52z"/><path fill="#141515" fill-opacity=".5" d="M164 122h80v8h-80z"/><ellipse cx="233" cy="93" fill="#c7d5dd" fill-opacity=".5" rx="86" ry="21"/><circle r="1" fill="#235696" fill-opacity=".5" transform="rotate(-102.2 21.5 -6.9) scale(23.31539 88.43147)"/><ellipse cx="48" cy="130" fill="#9a8b79" fill-opacity=".5" rx="126" ry="19"/><path fill="#8d7046" fill-opacity=".5" d="M96.7 113.1l-22 .8-1.4-39 22-.8z"/><ellipse cx="55" cy="168" fill="#32382c" fill-opacity=".5" rx="233" ry="11"/><ellipse cx="143" cy="105" fill="#c2c9c9" fill-opacity=".5" rx="47" ry="10"/><path fill="#689cd3" fill-opacity=".5" d="M0 64h36v33H0z"/><circle r="1" fill="#6191c4" fill-opacity=".5" transform="rotate(-28 147.7 -293) scale(80.62731 33.17775)"/><circle r="1" fill="#8cb0d5" fill-opacity=".5" transform="matrix(81.73236 -46.74787 13.6072 23.79036 204.5 52)"/><circle r="1" fill="#8a8379" fill-opacity=".5" transform="matrix(-94.97807 -13.68655 1.61473 -11.20548 239.8 145)"/><ellipse cx="150" cy="123" fill="#403e36" fill-opacity=".5" rx="39" ry="4"/><path fill="#97b3ce" fill-opacity=".5" d="M-16 90l49-1-23 24z"/><path fill="#21211f" fill-opacity=".5" d="M37 77h35v35H37z"/><circle r="1" fill="#4478b3" fill-opacity=".5" transform="matrix(103.59968 -26.33388 4.33076 17.03757 98.3 23.2)"/><circle r="1" fill="#1d5591" fill-opacity=".5" transform="matrix(-.51585 3.32013 -26.49266 -4.11616 247.6 119.5)"/><ellipse cx="208" cy="147" fill="#756f66" fill-opacity=".5" rx="114" ry="12"/><path fill="#a29888" fill-opacity=".5" d="M33.9 152.2l-40-1.4.2-7 40 1.4z"/><path fill="#9a9283" fill-opacity=".5" d="M0 112h105v17H0z"/><ellipse cx="98" cy="68" fill="#7b9cbd" fill-opacity=".5" rx="43" ry="9"/><circle r="1" fill="#9fc1e1" fill-opacity=".5" transform="matrix(-52.46872 37.54642 -12.01285 -16.78719 255 48.3)"/><path fill="#5785b8" fill-opacity=".5" d="M0 52h49v23H0z"/><ellipse cx="140" cy="153" fill="#5a554f" fill-opacity=".5" rx="71" ry="3"/><path fill="#c7d5da" fill-opacity=".5" d="M271 82l-16 31-100-1z"/><path fill="#594f41" fill-opacity=".5" d="M72.7 90.9l14 8.1 4.3 12.6-28.1-2.9z"/><path fill="#0c1014" fill-opacity=".5" d="M217 127h39v3h-39z"/><ellipse cx="38" cy="162" fill="#3c403c" fill-opacity=".5" rx="103" ry="9"/><circle r="1" fill="#769fcb" fill-opacity=".5" transform="rotate(-28.4 176.7 -328.6) scale(95.85706 14.14111)"/><path fill="#a9bac9" fill-opacity=".5" d="M97 90h91v24H97z"/><path fill="#262e31" fill-opacity=".5" d="M18.9 110.6l-1.3-2.7L39 97.4l1.3 2.7z"/><path fill="#857c6e" fill-opacity=".5" d="M73 114h93v9H73z"/><path fill="#20211c" fill-opacity=".5" d="M38 77h56v3H38z"/><ellipse cx="167" cy="133" fill="#958c80" fill-opacity=".5" rx="51" ry="6"/><circle r="1" fill="#295893" fill-opacity=".5" transform="rotate(75.1 11.3 14.7) scale(16.75037 63.72839)"/><path fill="#6b8fb5" fill-opacity=".5" d="M49.6 75.2L-16 89.8l51.7 9.4-4.8-47.7z"/><circle cx="52" cy="65" r="5" fill="#30312b" fill-opacity=".5"/><path fill="#88a4c2" fill-opacity=".5" d="M98 108l97-51L93 76z"/><ellipse cx="65" cy="150" fill="#7d7469" fill-opacity=".5" rx="33" ry="5"/><path fill="#121719" fill-opacity=".5" d="M217 128l6-8 16 6z"/><path fill="#817562" fill-opacity=".5" d="M77 81h17v23H77z"/><circle r="1" fill="#6597ce" fill-opacity=".5" transform="rotate(61.9 101.9 177.2) scale(18.5611 52.8153)"/><path fill="#7a7671" fill-opacity=".5" d="M233 122l11 5 16-6z"/><path fill="#6790bb" fill-opacity=".5" d="M56 47h71v29H56z"/><circle r="1" fill="#82abd9" fill-opacity=".5" transform="matrix(-7.89347 -12.37472 65.05588 -41.49724 254.1 18)"/><path fill="#0f1416" fill-opacity=".5" d="M55 76h15v13H55z"/><path fill="#35352f" fill-opacity=".5" d="M135 126h90v2h-90z"/><ellipse cx="215" cy="168" fill="#40413c" fill-opacity=".5" rx="246" ry="9"/><path fill="#252927" fill-opacity=".5" d="M18 107h20v6H18z"/><circle cx="189" cy="123" r="7" fill="#7e7566" fill-opacity=".5"/><path fill="#b4a791" fill-opacity=".5" d="M96 112h34v3H96z"/><path fill="#000002" fill-opacity=".5" d="M175.4 125.6l-7-.2.2-5 7 .2z"/><path fill="#958d80" fill-opacity=".5" d="M74.7 134.9l-86.5-18.6 105.6-6.6 34.9 25.5z"/><path fill="#2d2f30" fill-opacity=".5" d="M50 63l8 45-12-8z"/><path fill="#969383" fill-opacity=".5" d="M15.7 120.9l9.8-16.3.8.5-9.8 16.3z"/><circle r="1" fill="#5989bd" fill-opacity=".5" transform="rotate(-27.3 132.1 -272.5) scale(89.46188 10.45774)"/><circle cx="201" cy="124" r="4" fill="#070f18" fill-opacity=".5"/><path fill="#736d61" fill-opacity=".5" d="M150.3 126.1l27.8-12.1-48.9 2.6-27.9 4.2z"/><path fill="#6f6a63" fill-opacity=".5" d="M190 124l36-11-70 2z"/><path fill="#7e7268" fill-opacity=".5" d="M-16 125.4v24.7l59.8-20.9 26.2-.8z"/><ellipse cx="99" cy="144" fill="#8f8478" fill-opacity=".5" rx="90" ry="3"/><path fill="#868177" fill-opacity=".5" d="M226 131h30v20h-30z"/><path fill="#9d9f9b" fill-opacity=".5" d="M95.5 70.7l-31.9 4.9 44.1 3.1-31.5-4.9z"/><path fill="#67645c" fill-opacity=".5" d="M160 151h96v9h-96z"/><path fill="#9bb3c9" fill-opacity=".5" d="M0 101h15v11H0z"/><circle r="1" fill="#97b2cb" fill-opacity=".5" transform="matrix(-2.87467 -7.95947 51.64795 -18.6534 156.6 85.1)"/><path fill="#b4ac9b" fill-opacity=".5" d="M57 115v1l-82 3v-1z"/><circle r="1" fill="#3e6fa8" fill-opacity=".5" transform="matrix(-4.48437 -9.93178 70.81825 -31.97567 84 14.8)"/><ellipse cx="71" cy="96" fill="#3d3b33" fill-opacity=".5" rx="6" ry="15"/><ellipse cx="52" cy="66" fill="#6490bd" fill-opacity=".5" rx="1" ry="6"/><path fill="#a79c89" fill-opacity=".5" d="M177 119h21v2h-21z"/><circle r="1" fill="#aec9e0" fill-opacity=".5" transform="matrix(33.5415 -24.28 8.67243 11.9805 250.9 74.4)"/><path fill="#eacea4" fill-opacity=".5" d="M61 75h29v1H61z"/><path fill="#2a5989" fill-opacity=".5" d="M238 115h18v6h-18z"/><path fill="#7e9ebf" fill-opacity=".5" d="M-16 82.5l51.2 3.8-1.1 9.2-29 12.6z"/><circle r="1" fill="#b6c1c5" fill-opacity=".5" transform="rotate(-1.1 5828.3 -7287.7) scale(62.02363 1)"/><path fill="#8b7f71" fill-opacity=".5" d="M199 157h39v2h-39z"/><path fill="#303336" fill-opacity=".5" d="M34 98.2l23.8-6.5-7.2-15.8-12.7 1.5z"/><path fill="#7b6e59" fill-opacity=".5" d="M86 99h11v12H86z"/><path fill="#1d2021" fill-opacity=".5" d="M212 119l10 9-1-5z"/><circle r="1" fill="#5382b6" fill-opacity=".5" transform="matrix(95.87621 -24.18019 1.758 6.97061 51.8 54)"/><path fill="#27343f" fill-opacity=".5" d="M-16 113l21-1-21-6z"/><path fill="none" stroke="#6a8fb6" stroke-opacity=".5" stroke-width=".5" d="M-16 73.1q54.7 6.5 49.3 33.3"/><path fill="#b5c8d5" fill-opacity=".5" d="M137.1 116.1l130.1-40.6-71 39.5-79.4-6.6z"/><ellipse cx="45" cy="164" fill="#3f413d" fill-opacity=".5" rx="109" ry="10"/><path fill="#777169" fill-opacity=".5" d="M204.6 149.4l25.6-8.7-69.4-5.2-32.7 2.9z"/><path fill="none" stroke="#060e14" stroke-opacity=".5" stroke-width=".5" d="M20.8 110.2q-.5-6.4 5-7.6"/><circle r="1" fill="#645d53" fill-opacity=".5" transform="matrix(43.67193 5.28488 -.14258 1.1782 213 120)"/><path fill="#958f85" fill-opacity=".5" d="M189.2 129.8l75.5 5.1-79.9 3.6 28.8-55.9z"/><path fill="#5d564b" fill-opacity=".5" d="M72.9 112.1l-4.8-7.6 17-10.6 4.8 7.6z"/><path fill="#42403b" fill-opacity=".5" d="M112 121l3 4 6-6z"/><path fill="#5c88b8" fill-opacity=".5" d="M5 62h43v12H5z"/><path fill="#666159" fill-opacity=".5" d="M117 150h57v9h-57z"/><circle r="1" fill="#a3bed5" fill-opacity=".5" transform="matrix(-4.49984 -9.60614 37.7364 -17.67702 198 83.5)"/></g></g></svg>