<svg xmlns="http://www.w3.org/2000/svg" viewBox="0 0 1800 1200"><defs/><filter id="a"><feGaussianBlur stdDeviation="12"/></filter><rect width="100%" height="100%" fill="#3e4150"/><g filter="url(#a)"><g fill-opacity=".5" transform="translate(3.5 3.5) scale(7.03125)"><circle r="1" fill="#fff" transform="matrix(-18.75046 181.4444 -149.23358 -15.4218 127.4 62)"/><ellipse cx="121" cy="50" fill="#fff" rx="255" ry="64"/><ellipse cx="102" cy="144" fill="#405e80" rx="255" ry="32"/><path fill="#1f0900" d="M38 135h75v14H38z"/><circle cx="76" cy="26" r="87" fill="#e6e9e7"/><path fill="#eaefed" d="M234.6-36l60.5 124-73.7 36L160.9 0z"/><path fill="#8591a4" d="M157.2 55.5l72 83.2L172.9 39l-4.5-15.7z"/><ellipse cx="171" cy="123" fill="#000611" rx="33" ry="2"/><ellipse cx="51" cy="104" fill="#dbdddd" rx="143" ry="9"/><path fill="#7086a1" d="M212 114h44v56h-44z"/><path fill="#291008" d="M111 141h18v8h-18z"/><path fill="#8896ac" d="M211 163l-84-50-26 25z"/><path fill="#8ea0bb" d="M75 149l17 36 99-18z"/><path fill="#e9ecec" d="M207 103h49v11h-49z"/><path fill="#909392" d="M168.7 106.9l-21.8 16.4 10.7-64.4-2.7 50.5z"/><path fill="#eceae9" d="M166.3 56.2l33.8 61.9-34.3-10.1.4-34.5z"/><path fill="#0b131f" d="M195 120l17-1-2 6z"/><path fill="#121c34" d="M101 125h7v10h-7z"/><path fill="#241e1c" d="M76.8 141.2l.4 8-32 1.6-.4-8z"/><ellipse cx="59" cy="122" fill="#7990aa" rx="56" ry="10"/><path fill="#2c3b4e" d="M45 166h20v4H45z"/><path fill="#8a93a7" d="M204.4 90.2l-32.5-53.1-8.8-7.1L177 63.2z"/><path fill="#e6c09c" d="M103 137h24v3h-24z"/><path fill="#2f3846" d="M147 120h69v4h-69z"/><path fill="#7f91a4" d="M178 114h78v7h-78z"/><path fill="#d5d7d8" d="M-16 113l47.7.1 74.3.3L.5-7.1z"/><path fill="#8496ad" d="M-37.5 139.5L41 154.8l-3.5 17.7-78.5-15.3z"/><path fill="#423837" d="M76 140h56v8H76z"/><path fill="#343e3d" d="M171 42l-2-14 3 7z"/><path fill="#818ea2" d="M35 129h30v8H35z"/><path fill="#7186a0" d="M161.6 116.4l-81-2.1-4.5 30.3 34.7-19.4z"/><path fill="#e1e3e4" d="M155.5 50l34-53.8L109.4-16 88.2 61.1z"/><ellipse cx="181" cy="148" fill="#7588a1" rx="56" ry="24"/><path fill="#4a586c" d="M240.6 154.2l30.4 3.1-46.6 2 21.2 7.6z"/><path fill="#b8c5d1" d="M116 123h25v3h-25z"/><path fill="#d0cfc9" d="M186.1 121l-.8-1.8L222 103l.8 1.8z"/><path fill="#222f3f" d="M86.8 130l13.8 8.5-21.6 9.3 10.1.2z"/><path fill="#afbed4" d="M52 163h79v2H52z"/><path fill="#b0c0d3" d="M121 167h30v3h-30z"/><path fill="#95a5bd" d="M20 153h57v3H20z"/><path fill="#937562" d="M55 136h10v7H55z"/><path fill="#270a0c" d="M166 115h4v5h-4z"/><path fill="#e0e1e3" d="M148 107l-34 5 42-54z"/><path fill="#9fa8bc" d="M209.1 107.6l-6.1 13-41.8-82.8 31.1 29.6z"/><path fill="#7588a0" d="M271 116.1l-53.7-3.4-17.5 70.3 46.3-31.6z"/><path fill="#dbddde" d="M207 65h49v48h-49z"/><path fill="#080e12" d="M78 145l-12-8 4-4z"/><ellipse cx="159" cy="110" fill="#40464a" rx="9" ry="1"/><path fill="#53637b" d="M201 158.6l-2.8-13.5-15.4-.1 42.4 11.7z"/><path fill="#8e8381" d="M99 134h11v8H99z"/><ellipse cy="142" fill="#506379" rx="13" ry="7"/><path fill="#3d4e6a" d="M70 165h18v3H70z"/><ellipse cx="201" cy="32" fill="#e1e2e2" rx="29" ry="28"/><path fill="#394658" d="M174 160h21v2h-21z"/><path fill="#667790" d="M141.7 163.9l-64.5-6.3 90.9 4.1 20.2 9.4z"/><path fill="#5e6f87" d="M258.3 124.6l.8 5-49.4 7.8-.8-5z"/><path fill="#91a1b8" d="M237 156l-18-14 25 7z"/><path fill="#2f3c51" d="M40 158l3-3 10 2z"/><ellipse cx="104" cy="129" fill="#18253f" rx="3" ry="6"/><path fill="#8a9bb2" d="M173 166h65v4h-65z"/><ellipse cx="143" cy="126" fill="#788ba3" rx="104" ry="2"/><path fill="#898c92" d="M165.4 53.4l13.2-1.1L168.5 36l-1.1 31z"/><path fill="#d7d9db" d="M0 77h146v36H0z"/><path fill="#3d4f65" d="M159 131h20v2h-20z"/><path fill="#8a8c90" d="M154.5 119.6V74.1l-4.4 43.9 32.7 3z"/><circle cx="76" cy="133" r="2" fill="#300300"/><circle cx="42" cy="143" r="7" fill="#373232"/><path fill="#f0e4d8" d="M178.8 116.3l8.7 2.5-.3 1-8.7-2.6z"/><path fill="#6d839b" d="M0 113h42v23H0z"/><path fill="#4e5d73" d="M12 161h28v2H12z"/><path fill="#28364a" d="M183 121h27v4h-27z"/><path fill="#e4e2e2" d="M161 90l9-35 16 55z"/><path fill="#3b3741" d="M159.4 112.7l2 7.8-2.8.8-2-7.8z"/><path fill="#4b5b72" d="M220.4 162.7l-20.7 3.6-.1-1 20.7-3.6z"/><path fill="#8594ab" d="M111.7 133.3l68.1 33.2-19.6-22.1-12.4.5z"/><ellipse cx="196" cy="112" fill="#e1e4e3" rx="74" ry="1"/><path fill="#798aa1" d="M0 145h40v8H0z"/><circle cx="164" cy="107" r="3" fill="#969291"/><path fill="#7e8fa7" d="M168 123.5l36.6 4.4-25.8 16.6h22.9z"/><path fill="#1e2731" d="M239 169h10v1h-10z"/><path fill="#2f3e53" d="M232 156h3v7h-3z"/><path fill="#c3bdb0" d="M156.4 71.4l1.8-20.2 8.6-10.5-13.1 69.8z"/><ellipse cx="30" cy="151" fill="#273345" rx="6" ry="1"/><ellipse cx="90" cy="137" fill="#0a1f3a" rx="2" ry="7"/><path fill="#7c828b" d="M204 105h4v7h-4z"/><ellipse cx="135" cy="118" fill="#7a90ab" rx="15" ry="5"/><ellipse cx="112" cy="147" fill="#252628" rx="21" ry="1"/><path fill="#dbdddd" d="M153.7 65.3l10.9 13.4-87.5-8.4 74 38z"/><path fill="#5f6f88" d="M81.3 154.2l11.7 8.3-4.8 1.2-19.8-7z"/><path fill="#646e75" d="M167 30h4v8h-4z"/><path fill="#6f819a" d="M132.5 139.6l25.2 8.7-51.2-15.4 3.9-18.7z"/><path fill="#e5e4e5" d="M158.8 115l6.1-1.3 13.5-27.1 10.2 15.7z"/><circle r="1" fill="#98a8bf" transform="matrix(.10902 -.99404 31.97608 3.50688 100.4 165.3)"/><path fill="#4a5971" d="M217.5 137.6l-21 1.8v-1l21-1.8z"/><path fill="#7c8ea6" d="M80.3 118.5l-9.5 3.3 8.7 14.8 38.7-23.3z"/><ellipse cx="66" cy="113" fill="#9daab2" rx="128" ry="1"/><path fill="#889ab6" d="M33 162h14v5H33z"/><path fill="#a2b1c6" d="M27 149.5l-1.2-1.6 7.2-5.4 1.2 1.6z"/><path fill="#959eaf" d="M164 124h6v6h-6z"/><path fill="#b2baca" d="M176.3 76.2l11.6-2.8 18.2 45.8-25.7-37.7z"/></g></g></svg>