<svg xmlns="http://www.w3.org/2000/svg" viewBox="0 0 1800 1013"><defs/><filter id="a"><feGaussianBlur stdDeviation="12"/></filter><rect width="100%" height="100%" fill="#473252"/><g filter="url(#a)"><g fill-opacity=".5" transform="translate(3.5 3.5) scale(7.03125)"><circle r="1" fill="#eed0b2" transform="matrix(-1.82692 54.1516 -147.08256 -4.96215 191.4 71)"/><circle r="1" fill="#fed9b3" transform="matrix(112.08397 -4.62402 .84003 20.36188 197 69)"/><circle r="1" fill="#6d7190" transform="matrix(-222.19956 56.63796 -7.9101 -31.03256 159.1 24.8)"/><circle r="1" fill="#72523e" transform="matrix(-195.65175 -7.40612 1.08065 -28.54814 206.7 115)"/><circle r="1" fill="#352b1e" transform="matrix(52.54767 -21.26455 10.90916 26.95807 30.6 116.6)"/><ellipse cx="142" cy="86" fill="#fd8635" rx="121" ry="6"/><ellipse cx="243" cy="92" fill="#000001" rx="51" ry="4"/><circle r="1" fill="#8d6541" transform="rotate(8.2 -522.8 122) scale(64.35555 14.7034)"/><circle r="1" fill="#b4abb8" transform="matrix(-119.90448 12.17945 -1.52687 -15.03177 182.3 57)"/><path fill="#484d6f" d="M218 20L67-16l-83 73z"/><ellipse cx="159" cy="111" fill="#877276" rx="90" ry="17"/><path fill="#01000d" d="M73.2 96.6l-9.9-25.8 5.7 37.4-41.8-4z"/><ellipse cx="193" cy="74" fill="#edd0a9" rx="71" ry="10"/><ellipse cx="145" cy="92" fill="#fc4523" rx="44" ry="3"/><circle r="1" fill="#6b6064" transform="matrix(-2.31418 -23.41683 74.3955 -7.35216 232.4 143)"/><path fill="#a08676" d="M25 57h75v26H25z"/><circle r="1" fill="#222321" transform="rotate(85.2 -51.6 96.2) scale(7.05728 63.0636)"/><circle r="1" fill="#5f4d51" transform="matrix(25.83125 -2.8518 2.48303 22.491 95.3 112.3)"/><path fill="#ff9745" d="M183 90l27-10 23 8z"/><circle r="1" fill="#303d51" transform="rotate(-39.8 21 -34) scale(75.21129 25.7523)"/><path fill="#6e648d" d="M97 40l85-33 89 16z"/><ellipse cx="220" cy="42" fill="#9387a8" rx="89" ry="11"/><circle r="1" fill="#6c657b" transform="matrix(-36.25975 16.9082 -6.02082 -12.91169 55.8 50.6)"/><path fill="#1e0e29" d="M226.4 90.8l-60.7 5.4-.1-1 60.7-5.4z"/><path fill="#eeb477" d="M204 87.7l-81.1-.7-18.5-8.8L271 79.4z"/><path fill="#997f7b" d="M172 121l92-21-126-6z"/><path fill="#050616" d="M66.4 123.5l-1.8-49h1l1.8 49z"/><circle r="1" fill="#793b36" transform="matrix(129.53465 8.02073 -.218 3.52085 0 87.5)"/><ellipse cx="223" cy="93" fill="#0b071f" rx="37" ry="2"/><path fill="#2d3349" d="M90 129h107v4H90z"/><path fill="#c5a48b" d="M150 82.2L110.7 85l-58.9-9.7 55.5-9.4z"/><path fill="#0b050e" d="M38.9 104.9l.3-5.1 27-7.3 7.6 12z"/><circle r="1" fill="#cfc2bc" transform="matrix(.1636 8.5205 -52.51599 1.00836 207.7 67.2)"/><ellipse cx="170" cy="89" fill="#ff803d" rx="28" ry="5"/><ellipse cx="248" cy="91" fill="#13061b" rx="11" ry="4"/><circle r="1" fill="#423d47" transform="matrix(3.84282 -9.62613 34.52733 13.78355 42.5 115.4)"/><path fill="#6e5b4c" d="M82 139h119v4H82z"/><path fill="#bc5b41" d="M70 87h46v7H70z"/><circle r="1" fill="#544f5c" transform="rotate(-131.2 14 30.8) scale(13.71327 61.91186)"/><path fill="#ec7736" d="M165.5 92.5l82.2-9.7 23.3-5.5v9.9z"/><path fill="#312827" d="M16.5 89.4L-16 154.8l41.5-17.6L-16 83.6z"/><circle r="1" fill="#6e6685" transform="matrix(30.78274 7.675 -2.99199 12.00021 246.1 25.9)"/><path fill="#6c5a60" d="M194.5 157.9l19.6-38.4-92.5 19.5 51.5 2.2z"/><circle r="1" fill="#92829d" transform="rotate(81.5 26.7 91.3) scale(5.37789 52.63868)"/><circle r="1" fill="#786d91" transform="rotate(78.2 35.7 93.5) scale(6.65101 64.00654)"/><circle r="1" fill="#424462" transform="matrix(-106.44705 33.88743 -3.26936 -10.2697 92 7.5)"/><ellipse cx="208" cy="95" fill="#4b4354" rx="49" ry="1"/><path fill="#1a182a" d="M138 142h33v2h-33z"/><circle r="1" fill="#b1a4af" transform="matrix(-.0606 7.37664 -49.7906 -.40909 207.2 53.3)"/><path fill="#845940" d="M0 78h52v9H0z"/><path fill="#786263" d="M137.7 95.2l1.6 30-33 1.6-1.6-30z"/><path fill="#221d25" d="M64 80h4v57h-4z"/><ellipse cx="251" cy="131" fill="#3e3745" rx="207" ry="2"/><path fill="#edb272" d="M271 86l-74.1.5-48.7.1L271 73.4z"/><circle r="1" fill="#5d577a" transform="matrix(56.50123 -10.40804 .97111 5.27178 135.9 19.6)"/><path fill="#7c6b6a" d="M15 54h38v26H15z"/><circle r="1" fill="#474868" transform="matrix(91.99493 1.17363 -.06933 5.43473 188.6 1)"/><path fill="#393849" d="M115 127h41v8h-41z"/><path fill="#7c6564" d="M203 118l44 10-34 2z"/><circle r="1" fill="#2b2e48" transform="matrix(-4.8262 -17.17883 52.58196 -14.77231 0 0)"/><path fill="#251b27" d="M27.3 139.8l-43.3 5 12.9-12.3 76.1 1z"/><ellipse cx="135" cy="66" fill="#bcadaa" rx="29" ry="7"/><path fill="#936453" d="M176.5 142.6l-30.3-3.8 41.2 1.8 56.7 18.4z"/><path fill="#3a3544" d="M203 141h52v2h-52z"/><path fill="#615358" d="M73 96h23v30H73z"/><circle r="1" fill="#887b97" transform="rotate(93.5 97.7 125.3) scale(6.45571 54.99914)"/><path fill="#5f3e35" d="M20.3 96.7l22.1-3.9L-13.4 75l-2.4 11.9z"/><ellipse cx="123" cy="87" fill="#e38c53" rx="24" ry="3"/><path fill="#eb6335" d="M227 87h10v4h-10z"/><path fill="#4a383f" d="M52 56.5l-1 25h-1l1-25z"/><path fill="#ebc59f" d="M245.6 71l-25.8 12.7-64.3-4.8 36.6-5.6z"/><path fill="#a8979e" d="M94.5 74.2l-18.9-5.1 5.6-6.8 88.7-15.9z"/><ellipse cx="189" cy="94" fill="#161120" rx="14" ry="1"/><path fill="#9f735b" d="M40 72l-9 10 34 1z"/><path fill="#947167" d="M146 114h91v9h-91z"/><path fill="#6b5d66" d="M199 111h57v2h-57z"/><ellipse cx="192" cy="103" fill="#9f837d" rx="27" ry="4"/><path fill="#735c5a" d="M227.5 137.9l-2.8 9.7 46.3-8.5-93.7-10z"/><path fill="#483d40" d="M85 126L19 95l4 32z"/><path fill="#625b69" d="M55 33L17 71 5 57z"/><path fill="#c69873" d="M71 77h37v7H71z"/><path fill="#e75237" d="M137 91h42v3h-42z"/><path fill="#0f050a" d="M58.1 96.7L71 98.3l-1.1 9-12.9-1.6z"/><path fill="#4b4258" d="M206.6 121.9l46.9 3.2v1l-47-3.2z"/><path fill="#534741" d="M69 141h52v3H69z"/><path fill="#6b6482" d="M48.8 43.9l116.4-24.7L50.7 57.5 27 63.3z"/><path fill="#524856" d="M174.9 141.7l-10.8-17.2-19.3 6.8-24.4-3.6z"/><ellipse cx="138" cy="112" fill="#49475a" rx="14" ry="1"/><circle r="1" fill="#232030" transform="matrix(-18.03427 -1.5203 .084 -.99647 122.5 131.8)"/><path fill="#77686d" d="M271 130.9l-16.1 8.6L271 95.4l-43 .5z"/><path fill="#907e78" d="M88.7 73.2l-56.2 1.6L42.3 59l10 17.1z"/><ellipse cx="50" cy="109" fill="#2b2027" rx="1" ry="30"/><path fill="#ba5a45" d="M153.1 96.2l-22.5-7.8-53.9 2.3 52.9 4.8z"/><ellipse cx="81" cy="135" fill="#1b1422" rx="16" ry="2"/><ellipse cx="204" cy="15" fill="#605b79" rx="77" ry="6"/><path fill="#342225" d="M37.2 100.6L48 70l-10 31.2 30.9-.3z"/><path fill="#372a38" d="M193 91h18v5h-18z"/><path fill="#8c6a56" d="M203 139h51v1h-51z"/><path fill="#150f16" d="M66.9 100.7l.2-18.9 4.1 21.7-38.4 3.1z"/><circle r="1" fill="#595577" transform="matrix(49.7186 -14.73665 1.87326 6.32 92 27.8)"/></g></g></svg>