<svg xmlns="http://www.w3.org/2000/svg" viewBox="0 0 1800 1350"><defs/><filter id="a"><feGaussianBlur stdDeviation="12"/></filter><rect width="100%" height="100%" fill="#40332b"/><g filter="url(#a)"><g fill-opacity=".5" transform="translate(3.5 3.5) scale(7.03125)"><circle r="1" fill="#f2ffff" transform="matrix(23.49054 -45.70765 172.0957 88.44518 201 25.4)"/><path fill="#7494b0" d="M148 41.6l152 24-16 100.8-152-24z"/><circle r="1" fill="#d9feff" transform="matrix(-5.5848 36.92777 -125.10009 -18.9196 155.7 0)"/><path fill="#d7bfa7" d="M0 112h38v21H0z"/><path fill="#33434e" d="M31 149L56 6l152 58z"/><circle r="1" fill="#ba9569" transform="matrix(75.6506 9.69107 -1.50308 11.7334 200.9 140.7)"/><circle cx="218" cy="80" r="47" fill="#5c78a4"/><path fill="#000112" d="M101 90h29v102h-29z"/><ellipse cx="193" cy="11" fill="#c5d8ff" rx="98" ry="30"/><path fill="#f4ffff" d="M97 57h16v10H97z"/><path fill="#53606f" d="M32 46.6l78.7-20.7-15.8-2.5-30.6-37.8z"/><ellipse cx="122" cy="172" fill="#1c1d1b" rx="161" ry="22"/><path fill="#947968" d="M95.7 150l3.2-57.5-33.3 39.4 4.2-10.6z"/><path fill="#9ea1c6" d="M59.4 77.9l-24.3 40.9-1.2 1.5 7.8-25.7z"/><ellipse cx="18" cy="60" fill="#081e1e" rx="80" ry="13"/><path fill="#7592be" d="M160 37h96v31h-96z"/><path fill="#292a23" d="M170 71l-57-46 16 74z"/><path fill="#91b3dc" d="M7.9 42.4l.2-10-19.8-11-2.6 27.2z"/><circle r="1" fill="#735838" transform="matrix(25.02086 14.96431 -9.5961 16.045 13.5 93)"/><circle r="1" fill="#667e9b" transform="matrix(8.60641 -14.09957 46.78949 28.56042 197.4 72.3)"/><path fill="#8a898c" d="M33 29h29v11H33z"/><circle r="1" fill="#976853" transform="matrix(9.11454 -22.15714 2.55248 1.04998 64.2 155)"/><path fill="#143225" d="M38.5-14l15.7 38.9L11.5 42-4.2 3z"/><path fill="#291d12" d="M77 85h101v7H77z"/><ellipse cx="80" cy="165" fill="#190e06" rx="14" ry="26"/><circle r="1" fill="#142014" transform="matrix(18.27735 11.94836 -5.68557 8.69718 82.2 45.7)"/><path fill="#4e5681" d="M33.5 121.2L55 79.1l18.8 11.8-20.6 29.6z"/><path fill="#a7ccee" d="M153.3 45.5L131.8 36 98.1 19.7l110.6 16.7z"/><path fill="#191c18" d="M56.4-1.8l16.8 8.1L67.9-16 58 17.3z"/><path fill="#1d3a61" d="M127 136l18 71-22-26z"/><path fill="#97856a" d="M131 123h26v23h-26z"/><path fill="#415b86" d="M48.5 58.1l14.4-20.9-14.1 7.1 34.8 18.2z"/><path fill="#2b1f0d" d="M67 89l51-28-14 27z"/><path fill="#110b0b" d="M44 122h26v15H44z"/><circle r="1" fill="#576f83" transform="matrix(67.99647 -4.09087 1.43844 23.90913 228.7 104.8)"/><path fill="#29595f" d="M176.5 125.2l-15.7-27.1-25.3 5.2-4.2 20.2z"/><path fill="#2e445e" d="M99.3 151.3l12.5 3.6-9.1 31.8-12.5-3.6z"/><path fill="#c6d3d7" d="M95 72l16-11-15 4z"/><path fill="#a08c78" d="M42.3 135.1l2.8-.7-21.4-16.9-5.9 16.8z"/><ellipse cx="134" fill="#d8e4ef" rx="61" ry="13"/><path fill="#92614d" d="M114 64h8v25h-8z"/><path fill="#c29984" d="M135 81h31v2h-31z"/><path fill="#071118" d="M99 100l18 89 22-108z"/><path fill="#343733" d="M149.8 86.3L117.5 55l16.7-17.3L166.5 69z"/><path fill="#332917" d="M36.9 76.1l68.1-20-20.7 9.8 52.2 26.6z"/><path fill="#d9e5f8" d="M49.7 9.7l14.6-20.2-13.9-2-5.9 9.8z"/><path fill="#6d8eb1" d="M143 41l44 52 15-53z"/><path fill="#948574" d="M178 127l72 9-98 15z"/><path fill="#a27764" d="M97.3 118l1.1 7.9-29.7 4.1-1.1-7.9z"/><path fill="#ae7f66" d="M156.4 85.4l-10.7 2.7-1.2-6.6 22 2.7z"/><path fill="#86a4ae" d="M191.7 90.8l-17.4-17.1 7.2 25.8-29.8-4.7z"/><ellipse cx="15" cy="152" fill="#2a2219" rx="29" ry="19"/><path fill="#4a5045" d="M97.4 20.8l20.3 41.4 25.7-18.1 4.5-1.8z"/><path fill="#0e1112" d="M133 147h17v45h-17z"/><path fill="#24232c" d="M54.3 115.9l-5.9-19.1L63.7 92l5.9 19.1z"/><circle r="1" fill="#707d95" transform="matrix(3.91627 -17.96615 53.40506 11.64124 230.7 73.2)"/><path fill="#08120f" d="M93.3 69.9L103 47 80.5 69.6l16.4 12.9z"/><circle r="1" fill="#aca59f" transform="rotate(3 -2490.4 4233) scale(16.2175 3.43957)"/><path fill="#080100" d="M57 159l16-31-22 23z"/><path fill="#405533" d="M51 79L8 6l41 38z"/><path fill="#212829" d="M146 59l35 36-12-24z"/><path fill="#070e21" d="M52 59l25-7-41 45z"/><path fill="#68789f" d="M69 7h21v11H69z"/><ellipse cx="104" cy="40" fill="#1e2a1f" rx="37" ry="4"/><circle cx="94" cy="144" r="3" fill="#d9bfb0"/><path fill="#967c62" d="M236 133h20v26h-20z"/><path fill="#20311a" d="M38.2 70.4L51.8 30l.8 26.5L-16 .7z"/><circle r="1" fill="#665859" transform="rotate(-103.4 94.4 -7.2) scale(1.90409 20.21049)"/><path fill="#7985aa" d="M46 91.1l24.6.4-12.3-6.8-4.2-5.4z"/><path fill="#879dc9" d="M248.7 48.7l-39.3-7.6 2-9.8 39.2 7.6z"/><path fill="#654637" d="M96.1 148.7l8.7-2.6-37.7-13 40.2-16.8z"/><path fill="#76523f" d="M76.7 69.3l-9.8 13.8-5.4-5.7 10-12.4z"/><path fill="#b0c1cc" d="M97 59h17v6H97z"/><path fill="#bb9485" d="M50 139h6v4h-6z"/><path fill="#b1cee7" d="M138 39.3l66.2 1.7-58.6-30.2L120 32.3z"/><path fill="#4c2f20" d="M75.7 99.3l-11 16.5 20 5.2 5 .1z"/><path fill="#334358" d="M122 144h10v29h-10z"/><path fill="#13180d" d="M40.2 78.9L29.9 62.8-16 39.9l4.3 23.3z"/><circle r="1" fill="#1f2617" transform="matrix(-1.6012 -13.99083 4.74443 -.54298 74.9 89.8)"/><circle r="1" fill="#485069" transform="matrix(19.70583 4.61905 -1.27254 5.42894 53.4 116.7)"/><path fill="#867561" d="M130 127h38v19h-38z"/><path fill="#40441d" d="M41 55l13 20-12 20z"/><path fill="#535553" d="M92 109l-35-4 49-15z"/><path fill="#a3beca" d="M152 93h27v3h-27z"/><circle cx="59" cy="41" r="3" fill="#89a4c6"/><path fill="#100d07" d="M68 134l-25-8-1 13z"/><path fill="#72604a" d="M185.8 128.6l-20.7 23-14.1-6.2 51.4-7.7z"/><circle r="1" fill="#404f2e" transform="rotate(-162.9 13.3 16.3) scale(7.30638 23.66572)"/><path fill="#234aac" d="M51 54h15v5H51z"/><path fill="#60574c" d="M118.9 55.4l16.3 7.5 6.2-3.6L121.3 44z"/><path fill="#121b23" d="M53.4 23.6l-15.8-37L8.5 26.9 18.8 8.7z"/><path fill="#5b2f24" d="M100 79l17-20-3 29z"/><ellipse cx="92" cy="121" fill="#c5af97" rx="5" ry="3"/><circle cx="53" cy="9" r="3" fill="#789bc6"/><path fill="#c9dff9" d="M87.1-5.5l15 26-5.2 3-15-26z"/><path fill="#bcada1" d="M-16 115l28 1-9-6z"/><path fill="#121b19" d="M113.9 57.9l15.8 14.4-.8 14.5-14.5-47.7z"/><path fill="#3f596f" d="M183 120h42v9h-42z"/><path fill="#0d1012" d="M125.7 126l-29.6-9.1 8.2-26.8 29.6 9z"/><path fill="#4c575d" d="M97 33l-32-1 23-17z"/></g></g></svg>