<svg xmlns="http://www.w3.org/2000/svg" viewBox="0 0 1200 1800"><defs/><filter id="a"><feGaussianBlur stdDeviation="12"/></filter><rect width="100%" height="100%" fill="#52473c"/><g filter="url(#a)"><g fill-opacity=".5" transform="translate(3.5 3.5) scale(7.03125)"><ellipse cx="73" cy="40" fill="#8cbae6" rx="169" ry="71"/><path fill="#d5d1c4" d="M69.2 200l2.8-40 86.8 6-2.8 40z"/><circle r="1" fill="#2c1400" transform="rotate(-162.9 48 35.5) scale(13.19411 88.39013)"/><ellipse cx="156" cy="43" fill="#9cc3f7" rx="36" ry="50"/><circle cx="49" cy="11" r="43" fill="#478ef3"/><path fill="#90948e" d="M0 183h38v64H0z"/><path fill="#525956" d="M63 104l76-24-30 133z"/><circle r="1" fill="#fffccd" transform="matrix(-57.06444 -11.92138 1.8824 -9.01051 158.8 81)"/><path fill="#cdccb4" d="M66 52l1 50-80 17z"/><ellipse cx="153" cy="184" fill="#c4bcb1" rx="40" ry="15"/><path fill="#4e5a4c" d="M33 50L-16-3v182z"/><path fill="#0e1215" d="M77 55l-27 72 50-25z"/><path fill="#503b00" d="M100.6 61.7l-.1-6.7 49 6 31.3 11.8z"/><circle r="1" fill="#735334" transform="matrix(12.94889 7.21975 -29.39654 52.72377 113 11)"/><path fill="#aaa59a" d="M81 117h14v101H81z"/><path fill="#ffffde" d="M114.5 66.8l6.2 6.6-21.2 19.8-6.2-6.6z"/><circle r="1" fill="#45566e" transform="rotate(17.9 -744 543.1) scale(69.85559 38.74754)"/><path fill="#535d49" d="M102.5 100.4l21.1-35.5 22.2 35.6 26.9 114.3z"/><path fill="#00113d" d="M115.2 92l-23.4 35.5-3.7.9 20.4 39.6z"/><path fill="#decaac" d="M122.3 157.1l-3.4-17.1-26.1 34.2 1.2-15z"/><path fill="#081727" d="M83.6 273.2L26 253.4l8.5-24.6L92 248.6z"/><path fill="#70746f" d="M32.5 150.8l-40-34.2L80.9 130l-39.5 44z"/><circle r="1" fill="#5891e2" transform="matrix(-17.42698 -16.5132 29.01305 -30.61852 152 22.5)"/><path fill="#ffebc7" d="M36 204l-1-25-11 9z"/><ellipse cx="58" cy="189" fill="#131a21" rx="11" ry="28"/><path d="M77 161h3v39h-3z"/><path fill="#c0b17a" d="M111.8 80.4l6-10.3 30.3 38L185 95.4z"/><circle r="1" fill="#343a48" transform="rotate(-70.6 179 4.6) scale(9.50689 14.12162)"/><ellipse cx="49" cy="117" fill="#070d15" rx="37" ry="7"/><path fill="#fff3e3" d="M100 65h22v15h-22z"/><path fill="#b0a584" d="M116 116h8v38h-8z"/><ellipse cx="20" cy="188" fill="#1b222a" rx="4" ry="40"/><path fill="#3e2716" d="M141-13l-17.1 35.1L105 13l17.1-35z"/><path fill="#c9c6b4" d="M100.6 19.6l6.6-2.2 6.2 19-6.6 2.2z"/><path fill="#8d908a" d="M64.2 242l4.7-44.8 9 .9-4.8 44.7z"/><ellipse cx="137" cy="231" fill="#787976" rx="69" ry="6"/><path fill="#393810" d="M23 37L2 92l4-47z"/><path fill="#1c2b0b" d="M142.3 117l18.2-12.3 35.2 52.3-18.2 12.3z"/><path fill="#848c87" d="M17 49l38 11-69 84z"/><path fill="#d7c2a6" d="M5.6 198.5l-8.4-12.4 5.5.1L23 191z"/><path fill="#dac3a4" d="M102 271l83-6v-24z"/><circle r="1" fill="#363342" transform="matrix(3.91148 12.33055 -40.01288 12.69283 160.4 210.3)"/><path fill="#dca48b" d="M97.1 218.5L90 183.6l6.4.9 10.9 22.4z"/><path fill="#dfccb1" d="M156 178l-57 27 46-40z"/><path fill="#10161f" d="M87 147h3v52h-3z"/><path fill="#c4c7ba" d="M65 107l1-53-25 29z"/><path fill="#735c3f" d="M66.2 55.5l3.5 13.3 33.7 3.6 8.9-33.8z"/><path fill="#192738" d="M91 238h76v11H91z"/><path fill="#fff4d7" d="M161.7 175l8.5-3 6.1 17-8.5 3z"/><path fill="#02141a" d="M0 133h17v18H0z"/><path fill="#c5ad8d" d="M63 154.3l-2.7 8.6-17.2-5.2 2.6-8.6z"/><path fill="#191817" d="M54.6 110.3l3.3 45.3 5.7-5.9-4.3-50z"/><circle r="1" fill="#b9b08c" transform="matrix(4.80054 5.05871 -4.7997 4.55475 91.8 118.5)"/><circle r="1" fill="#60552c" transform="matrix(-22.1423 12.92394 -5.32239 -9.11872 112 96)"/><path fill="#e3d0ad" d="M18 123h4v22h-4z"/><path fill="#dbc7ad" d="M112 162l-4-16 12 11z"/><path fill="#3c5785" d="M151.3 138.2L106.5 13.7 155.9 179l17.1 49.5z"/><path fill="#1e2126" d="M67 70h30v30H67z"/><path d="M79 180h17v3H79z"/><circle r="1" fill="#323e32" transform="rotate(44.5 -34.8 14.2) scale(6.95629 16.46708)"/><path fill="#fff8e3" d="M129 71h39v8h-39z"/><path fill="#4575b8" d="M28.9 42.2l-33.1 3.1L65.9-16-16-4.2z"/><path fill="#4e5258" d="M0 212h46v21H0z"/><path fill="#fffde2" d="M87 168l-6 12 2-25z"/><path fill="#503636" d="M144.5 187.3l-44 28.8-5.4 26.1-7.4-26.8z"/><path fill="#c7d0cc" d="M41.4 107l.2 5-31 1-.2-5z"/><path fill="#e9d6bc" d="M93 157.5h10v13H93z"/><path fill="#4e5125" d="M145.4 144.5l-22.8-24.3-3 37.8 31.2 12.8z"/><path fill="#697986" d="M50.5 106.3l19-30.4-.2 37.2-53-19.1z"/><path fill="#58511b" d="M164.1 66.9l-27.5-5.3 7.8 9.1H161z"/><path fill="#37353a" d="M116.5 153.2l29 86.4-11.9-20.9-27.7-99.9z"/><path fill="#d2c7b1" d="M96 144l-15 1 2-18z"/><path fill="#fff0d1" d="M69.1 201.5l4.8 1.8-.3-2.9 1.3-28.8z"/><path fill="#12151b" d="M71 74l14 53-16 1z"/><path fill="#424952" d="M82 167.2l-89.4-23.8-8.6 45.9 52.2-6.6z"/><path fill="#998e77" d="M42.3 123.2l16.2 15.2-34.7-12.9L37.1 140z"/><path fill="#601f00" d="M74 54.9L14.1 60l-.1-1 59.8-5z"/><path fill="#0a1f40" d="M89.8 130.8l8.9 21.2 17.3-13.5 2-25.2z"/><path fill="#ded9d6" d="M115.2 45.6l1-.2 8.6 37-1 .2z"/><circle cx="108" cy="102" r="7" fill="#1c0e1a"/><circle r="1" fill="#1c2228" transform="matrix(-1.74074 37.04694 -3.01335 -.14159 23.4 163)"/><path fill="#393c3e" d="M88 102h2v70h-2z"/><path fill="#6996d3" d="M79 51l-58 4 82-67z"/><ellipse cx="41" cy="157" fill="#191e24" rx="2" ry="31"/><path fill="#6b4f34" d="M168 70h2v25h-2z"/><path fill="#e1cfb4" d="M120 200.1l-10.6-2.8 4.6-17.4 10.6 2.8z"/><path fill="#928955" d="M130 96l9 33-23-30z"/><circle r="1" fill="#425675" transform="matrix(43.59444 97.91472 -1.30633 .58162 116.4 223.6)"/><path fill="#bdbeb4" d="M30 59.6L12.1 76.7l.8-14.1L51.8 61z"/><path fill="#707138" d="M3 71h8v42H3z"/><path fill="#fffbdd" d="M99 77h4v18h-4z"/><circle r="1" fill="#b29d82" transform="matrix(-.18226 -3.59784 10.65095 -.53955 10 245.5)"/><path fill="#310518" d="M116 206h45v8h-45z"/><ellipse cx="133" cy="204" fill="#78775a" rx="64" ry="2"/><path fill="#627d98" d="M24 125.8L-7.8 135l13.4-28.3-21.6.8z"/><ellipse cx="141" cy="195" fill="#f6e1bf" rx="10" ry="4"/><path fill="#192622" d="M15 39l15 8-28 4z"/><path fill="#9f7d52" d="M90 22v17L74 59z"/><circle cx="121" cy="121" r="4" fill="#dfd6bf"/><path fill="#41483c" d="M124 67.3l39.2 124.8-17.9-105.9-5 15.4z"/></g></g></svg>