<svg xmlns="http://www.w3.org/2000/svg" viewBox="0 0 1800 1350"><defs/><filter id="a"><feGaussianBlur stdDeviation="12"/></filter><rect width="100%" height="100%" fill="#50453a"/><g filter="url(#a)"><g fill-opacity=".5" transform="translate(3.5 3.5) scale(7.03125)"><circle r="1" fill="#e5b891" transform="matrix(66.44903 9.69144 -36.49835 250.24977 195 0)"/><circle r="1" fill="#fffffa" transform="matrix(58.59706 -24.07935 11.71487 28.50813 34.4 3.9)"/><circle r="1" fill="#bce9ff" transform="matrix(-74.02522 18.25788 -5.5296 -22.41934 204.6 11)"/><circle r="1" fill="#ffc273" transform="matrix(-1.00521 -18.55302 80.34335 -4.35305 211 158.5)"/><ellipse cx="144" cy="70" rx="34" ry="10"/><path fill="#fff" d="M49.6-32L74-4 32.4 32 8 4z"/><ellipse cx="131" cy="187" fill="#a75e20" rx="49" ry="96"/><ellipse cx="12" cy="112" fill="#ddbd74" rx="17" ry="30"/><circle cx="243" cy="78" r="31" fill="#3c3225"/><path fill="#3f2b11" d="M135 109l-113-6L-10-2z"/><path fill="#290400" d="M241 207l-134-12 141-26z"/><circle r="1" fill="#311400" transform="matrix(19.465 17.38667 -25.22201 28.23695 66.6 142.2)"/><circle r="1" transform="rotate(-173.7 86.5 -4.7) scale(38.36987 4.1436)"/><circle r="1" fill="#e1ffff" transform="matrix(7.55852 8.1869 -35.28726 32.5788 229.6 9.7)"/><path fill="#dfb98d" d="M143 152l-48 7 2-43z"/><path fill="#8a6e4f" d="M19 52L57 8l129 16z"/><path d="M35 46h65v24H35z"/><circle r="1" fill="#632400" transform="rotate(-171.1 82.6 59.7) scale(40.44355 11.63748)"/><path fill="#0e0c13" d="M212 6l-44 24 30-3z"/><path fill="#fff" d="M134 37l2-53h15z"/><path fill="#b86918" d="M84 163l-100 26 129 18z"/><ellipse cx="170" cy="161" fill="#ffb781" rx="35" ry="18"/><path fill="#fff" d="M156 6h42v17h-42zM45.6-3.7l2.7 37.9-22 1.5-2.6-37.9z"/><path fill="#ffb74e" d="M50.5 140.7l-39.7 5.4 16.8-10.7L38 129z"/><path fill="#9ee9ff" d="M271 23.3l-42.4 23.3 37.6 3.6 4.8-33.5z"/><path fill="#ffdc9b" d="M271 173.2l-74.6-50.5.5 29 21.9 2.9z"/><path fill="#22180b" d="M184 65l-64 27-87-37z"/><path fill="#180e01" d="M8 146h39v34H8z"/><circle r="1" fill="#5d5544" transform="matrix(5.56029 7.82409 -44.04466 31.3009 242.2 27.7)"/><circle r="1" fill="#753c09" transform="matrix(12.52536 -3.48998 5.5097 19.774 62 27.5)"/><path fill="#92b3d1" d="M66.4 43.5l10.3-2.4L70.3-14l22.8 45.5z"/><path fill="#dffeff" d="M134 30h76v7h-76z"/><path fill="#ffebaf" d="M146.8 97.7l22.9-10-3.8 10.4-14.1-24.5z"/><path fill="#ffeca8" d="M210 100.9l11.7-2.3 4.4 22.5-11.8 2.3z"/><path fill="#000001" d="M143 23h54v4h-54z"/><path fill="#fff59d" d="M-4 126l-3.3-13.6 25.2-6.3 3.4 13.5z"/><path fill="#170200" d="M116 15L97-16 83 22z"/><path fill="#371e05" d="M245.2 200.1l-37.6-43.9 39 17-102.1 25z"/><path fill="#62180e" d="M231.5 139.7l-1-59 20-.4 1 59z"/><path fill="#947d50" d="M-16-16l41 74.5 25-14.4-7.5-4.7z"/><path fill="#c0ae91" d="M255.3 65.1l11.3 26.7-12 5-11.2-26.6z"/><path fill="#887455" d="M79.2 71.1L-16 86.3l52.5 31.6-.6-27.9z"/><path fill="#998f62" d="M133.3-4.4L125.5 51l-18.8-2.6L114.5-7z"/><circle r="1" transform="matrix(-3.103 -4.79979 19.91417 -12.8742 19 71)"/><path fill="#d2f6ff" d="M232.7 20.9L271-9.2l-50.3 2.1-28 47z"/><path d="M188 14l6 3-10 13z"/><path fill="#ffb235" d="M137 138l9 17 13-23z"/><path fill="#200d00" d="M23 118l45-5-50 24z"/><path fill="#2c0100" d="M144 146l-18-2-10-26z"/><ellipse cx="32" fill="#fff" rx="26" ry="16"/><path fill="#132200" d="M112.4 154.4l-11.5 31.9 14.6-13.6 14.9-9.1z"/><path fill="#352c1c" d="M216.6 131.4l-2.2-10.8-61.7-.3 35.1-3.7z"/><circle r="1" fill="#957d58" transform="rotate(-92.5 136.1 -54.6) scale(12.75041 34.15075)"/><path d="M140.8 27l6.4-30.4 2 .4-6.4 30.4z"/><path fill="#fff" d="M135 0h7v34h-7z"/><circle r="1" fill="#724733" transform="matrix(5.00143 -3.86555 39.01093 50.47425 130 83.2)"/><path fill="#fff" d="M148 5h39v9h-39z"/><path fill="#eda684" d="M148.3 183l45.9-34.5 29.9 26.4-31.8 6.2z"/><path fill="#ee801b" d="M220.6 129.8l-31.5-7 45.2 24.5L236 137z"/><path fill="#ee912b" d="M16.9 167.8l-22 39.2 7.7-21 9 18.1z"/><path fill="#b6fbcb" d="M160 112h35v6h-35z"/><path fill="#ffffa8" d="M9.8 145.6l-25.8 1.8L.1 170.1l-16.1-3.9z"/><path fill="#dbb38e" d="M108.6 112.9l25.1 51.6-32.4-55.9-37.7-9.2z"/><circle r="1" fill="#0d171d" transform="rotate(91.4 -62.4 125.5) scale(6.35523 15.5028)"/><path fill="#4f5238" d="M74.5 33.5l32.2 44.1 13.4-47.3 38.1 8.9z"/><path fill="#c8a79b" d="M82 100.5v9H72v-9z"/><path fill="#3f4a4f" d="M212 48h44v24h-44z"/><path fill="#fff" d="M75.5-3.8l-6.6 1.2 20.1-5-5.2 21.2z"/><path fill="#1e1406" d="M50.6 114.6l37.5-6.6 7.3 41.4-37.5 6.6z"/><path fill="#1f1106" d="M148 0h52v4h-52z"/><path fill="#7b4631" d="M122.8 130.6l93.2-21.3-53.5 45.2 39-14.8z"/><ellipse cx="133" cy="189" fill="#bd6017" rx="10" ry="45"/><path fill="#8e531b" d="M94.4 207l16-62.6-21.1 17-35.1-11.8z"/><path fill="#ffdfa1" d="M112 151l7-14 19 21z"/><path fill="#1f0f09" d="M37 90l56-9-54 31z"/><path d="M151 15h5v12h-5z"/><path fill="#a99984" d="M216.2 78.5l4.5 24.5-10.4-36.1 46.9 10.8z"/><path d="M113.6 181.7l26.2 25.3H83.4l28.5-20.2z"/><path fill="#9b7b58" d="M120 75h15v40h-15z"/><path d="M113 78h6v34h-6z"/><path fill="#ffffc6" d="M212.7 160.5L216 175l-10.7 2.4L202 163z"/><path fill="#fffbcb" d="M167.2 99.6l-12-9.7-11.3-.1 17-7z"/><path fill="#823733" d="M264 149l7-57-51 38z"/><path fill="#a58462" d="M46.5 108.1l1.1 9.6L94 104.9 55.1 112z"/><path fill="#e2f4ff" d="M178.3 31l-.7 7.9-43.9-3.8.7-8z"/><path fill="#faf3c4" d="M172 148h57v7h-57z"/><path fill="#ffcc7b" d="M224 130l12-22-26 11z"/><path fill="#eb6b0d" d="M44 67h8v9h-8z"/><path fill="#f3fafd" d="M35 36L11-11l40 44z"/><path fill="#96592e" d="M200 185.3l34.8-26.9 36.2 21.5-16.1-5.2z"/><path fill="#000200" d="M31.3 64.4L9.1 39.2 16.4 67l80.5 3z"/><path fill="#de9658" d="M13 41L7 27l-23 24z"/><path fill="#3b1e08" d="M57 14h15v15H57z"/><path fill="#d0a14e" d="M60.3 174.6l-51 27.3 61.3-25-6.6-5.6z"/><path fill="#bdae85" d="M91 155l10-19 7 25z"/><circle cx="207" cy="6" r="4" fill="#0d0401"/><path fill="#b3d3ff" d="M242 12l-33 27-27-1z"/><path fill="#080201" d="M161 141.5l33.8-3 .2 2-33.8 3z"/><path fill="#451400" d="M110 152l-9 5 9-19z"/></g></g></svg>