<svg xmlns="http://www.w3.org/2000/svg" viewBox="0 0 1200 1800"><defs/><filter id="a"><feGaussianBlur stdDeviation="12"/></filter><rect width="100%" height="100%" fill="#384150"/><g filter="url(#a)"><g fill-opacity=".5" transform="translate(3.5 3.5) scale(7.03125)"><ellipse cx="97" cy="59" fill="#d1f8ff" rx="169" ry="71"/><circle r="1" fill="#92aad5" transform="matrix(-10.04337 92.36126 -108.89935 -11.84173 158.8 89.6)"/><path fill="#b29b80" d="M8.5 232.3L-16 205.7l48-24.5 36.3 3.2z"/><circle r="1" fill="#4870bd" transform="rotate(-36 53.7 -47.5) scale(127.55685 42.91153)"/><circle r="1" fill="#465f76" transform="matrix(-5.24457 35.38796 -154.40445 -22.88308 127.4 159.7)"/><circle r="1" fill="#c6d1dd" transform="rotate(80 22.7 131) scale(29.69317 75.80453)"/><circle r="1" fill="#211405" transform="matrix(25.68672 25.33055 -38.72148 39.26594 44.6 254.8)"/><ellipse cx="123" cy="252" fill="#2086cb" rx="32" ry="7"/><circle cx="109" cy="239" r="5" fill="#e2edf6"/><path fill="#bab2aa" d="M23.3 183.2h28l1.6 11.7-37.9-.4z"/><circle r="1" fill="#4e647d" transform="matrix(-90.19476 -2.8392 .91099 -28.93983 126.5 148)"/><circle r="1" fill="#879fc7" transform="matrix(23.2498 28.07238 -117.46196 97.28308 116.6 27.5)"/><circle r="1" fill="#476ca3" transform="rotate(40.5 -5.7 21) scale(28.90548 89.92923)"/><circle r="1" fill="#31383f" transform="rotate(48.6 -192.2 191.4) scale(32.18565 25.25751)"/><path fill="#625344" d="M19 237h-35l70-54z"/><path fill="#142737" d="M114 243l71 2-76-42z"/><circle r="1" fill="#99b3d8" transform="matrix(15.09423 21.0824 -61.59168 44.09738 165.1 36.1)"/><circle r="1" fill="#acb3ba" transform="matrix(.65598 -15.02437 60.48518 2.64084 87.2 108.3)"/><path fill="#b88867" d="M24 250.9l30.6 4.3-.5 4-30.7-4.4z"/><path fill="#160c00" d="M-13 266l29 5 36-69z"/><path fill="#1b7cbd" d="M134 237l-29-6-15 9z"/><path fill="#07233e" d="M79 251l67 20 32-18z"/><circle r="1" fill="#c5d0d8" transform="rotate(82.4 30.2 144) scale(11.95788 75.98842)"/><circle r="1" fill="#4b5661" transform="matrix(85.82872 6.4535 -1.1496 15.28923 132.6 185)"/><circle r="1" fill="#4391ca" transform="matrix(23.74626 .79254 -.10058 3.01375 122.2 249)"/><circle r="1" fill="#7090ba" transform="matrix(-12.84083 -15.75558 70.93333 -57.8108 69 40)"/><ellipse cx="29" cy="138" fill="#3d5474" rx="78" ry="15"/><circle r="1" fill="#7b889f" transform="matrix(-.07628 4.37034 -150.4815 -2.62666 16.7 118.4)"/><circle r="1" fill="#5e7794" transform="rotate(75.2 -10 177) scale(18.8457 33.93765)"/><path fill="#22608c" d="M93.4 243.5l-8.2 6.2 26.7-25.7-15.8 47z"/><path fill="#32373e" d="M38 213l89-14 58 40z"/><path fill="#000006" d="M113 240h19v6h-19z"/><path fill="#605346" d="M-16 229l3 31 68-63z"/><ellipse cx="13" cy="111" fill="#beb6b0" rx="96" ry="3"/><circle r="1" fill="#819fcc" transform="matrix(-50.22846 42.59683 -11.52632 -13.59138 130.6 16.3)"/><circle r="1" fill="#012d55" transform="matrix(25.52495 14.60841 -1.05889 1.85017 138.8 239.9)"/><path fill="#4e6174" d="M125.9 188.2l-78-39.3L74 138.4l109.6 51.7z"/><path fill="#ddc3b7" d="M114 236l-4.8 6.4-3.2-2.4 4.8-6.4z"/><path fill="#99897c" d="M-16 228l20-27 13 10z"/><path fill="#3a4754" d="M53 175h43v23H53z"/><ellipse cx="23" cy="118" fill="#718096" rx="22" ry="7"/><circle r="1" fill="#498bb9" transform="rotate(22.1 -566.9 500.4) scale(7.06041 3.40955)"/><path fill="#3f4d58" d="M20.8 182.9L1.4 155.1l169.9 53.1-104.1-25.5z"/><circle cx="169" cy="95" r="23" fill="#bfcbd8"/><circle r="1" fill="#6182b1" transform="rotate(135.4 11 25.5) scale(41.94383 19.75725)"/><path fill="#1f1911" d="M42 249l-35 3 37-46z"/><circle r="1" fill="#4c6381" transform="matrix(-38.00496 6.7013 -2.84082 -16.11109 103.2 141.6)"/><path fill="#9b938c" d="M46 186h6v13h-6z"/><path fill="#021b33" d="M114 238l32 7-14-8z"/><circle r="1" fill="#302c29" transform="matrix(13.94069 11.8362 -3.95063 4.65305 169 247.7)"/><ellipse cx="79" cy="218" fill="#2e333c" rx="32" ry="19"/><path fill="#aea7a1" d="M28 184l-21 8 38-2z"/><path fill="#0062a0" d="M124 237l-15-9-4 4z"/><path fill="#00112d" d="M103 255h49v1h-49z"/><circle r="1" fill="#a7bdd8" transform="matrix(-13.64194 29.11978 -13.47025 -6.3105 160.4 65.2)"/><circle r="1" fill="#1c86c4" transform="matrix(-.78043 -.62524 4.5482 -5.67708 97.5 241.8)"/><path fill="#3b2e21" d="M-16 267.2l4.3-18.5 20.6-11.6 13.4-.7z"/><path fill="#427dad" d="M99 245h17v8H99z"/><ellipse cx="102" cy="238" fill="#003661" rx="3" ry="7"/><circle r="1" fill="#8192aa" transform="matrix(-8.16823 -10.75709 17.156 -13.02715 5.9 94.9)"/><circle r="1" fill="#496ca2" transform="matrix(28.5173 -33.02659 9.80913 8.46984 13.9 0)"/><path fill="#001330" d="M119 227l10 6-20 1z"/><ellipse cx="135" cy="115" fill="#9ba9b8" rx="106" ry="3"/><path fill="#353b4a" d="M100 251l-22 1 18-6z"/><path fill="#ada298" d="M34 187.3l-.6.8-9.4-7.4.6-.8z"/><path fill="#53595f" d="M25.6 183.6l38.6-7.5-23.9 10-11.2-10.8z"/><circle r="1" fill="#9aafc7" transform="rotate(151.9 37.6 52.5) scale(48.45249 13.17486)"/><path fill="#a6a59e" d="M137 245h5v2h-5z"/><circle r="1" fill="#5c667b" transform="matrix(78.01856 1.13217 -.03643 2.51036 17 125.8)"/><path fill="#362e21" d="M51.2 223l3.1-27.3-26.4 30.6 29.6-.2z"/><circle r="1" fill="#222121" transform="matrix(40.63711 13.04715 -2.04876 6.38115 72.6 255)"/><path fill="#8f725f" d="M22 255h36v1H22z"/><path fill="#8d9db2" d="M181 129.1l-53.1-9.3-38.7-5 95.8 3.4z"/><path fill="#334961" d="M-1 129.5l22 1.1-2 40-22-1.2z"/><path fill="#08090e" d="M114 241h33v4h-33z"/><path fill="#307cad" d="M116 236h23v2h-23z"/><path fill="#4b86ad" d="M95.3 249.5l-3.7-1.6 3.1-7.4 3.7 1.6z"/><path fill="#1c395b" d="M133.6 224.9l-3 15 30.5 9.8-31.8-25.5z"/><path fill="#2e8bbf" d="M153 254h4v2h-4z"/><circle r="1" fill="#343b45" transform="matrix(-3.90805 11.74284 -50.18009 -16.7001 120.9 216.3)"/><path fill="#121e31" d="M97 245.8l4.9 10-1 .4-4.8-10z"/><path fill="#b2bcc5" d="M69.7 117.3l-12.6-9.8 72-14.6-10.5 13z"/><path fill="#645a53" d="M-5.6 235.4l24.6-1.9-1.8-3.3L57 195.7z"/><path fill="#8d9db2" d="M14.7 107.7l91.3 13.1-76-2 22-36.7z"/><path fill="#333d3f" d="M17.3 184.3L-6.4 177l-9.6 10.6 4.9 23.8z"/><circle r="1" fill="#6a8aba" transform="matrix(-10.54502 -7.4387 31.66585 -44.8892 79.4 5.6)"/><ellipse cx="46" cy="194" fill="#9d958d" rx="2" ry="12"/><path fill="#727c91" d="M134 123h36v6h-36z"/><path fill="#d0d1d0" d="M181.8 112.7l-39-6.8-7.3-1.9 46.4-2.3z"/><ellipse cx="117" cy="245" fill="#004678" rx="8" ry="1"/><circle r="1" fill="#0b2238" transform="matrix(-4.58305 -4.7818 1.33356 -1.27813 155.8 250.6)"/><path fill="#353c46" d="M53 186h24v25H53z"/><path fill="#514c46" d="M35 203l-16 14 3-11z"/><path fill="#99b1d2" d="M185 8l-30 55-40 8z"/><path fill="#556778" d="M187.9 204.9l-56.4-38 10.6-15.8 56.4 38z"/><path fill="#2d2f36" d="M45.5 238.1L98 217.3l18.3 1.1-24.4 23.2z"/><path fill="#544c47" d="M14 241L1 218l10 3z"/><path fill="#8da7cb" d="M65.3 88.1l51.4-18.8L185-11.8l-41 23.9z"/><path fill="#18130f" d="M11.5 268l34.1-56.6L-5.8 271l15-33.8z"/><path fill="#827469" d="M36 194l-21 20 2-21z"/></g></g></svg>