<svg xmlns="http://www.w3.org/2000/svg" viewBox="0 0 1800 1200"><defs/><filter id="a"><feGaussianBlur stdDeviation="12"/></filter><rect width="100%" height="100%" fill="#593d2d"/><g filter="url(#a)"><g fill-opacity=".5" transform="translate(3.5 3.5) scale(7.03125)"><circle r="1" fill="#bbc4e8" transform="matrix(199.5559 15.3057 -2.74377 35.77332 165.6 13.8)"/><circle r="1" fill="#120e04" transform="matrix(-218.24929 -47.0375 17.39378 -80.70538 126.7 126.4)"/><circle r="1" fill="#fff" transform="matrix(-38.959 8.70837 -2.07273 -9.27287 213.9 6)"/><circle r="1" fill="#5c5b63" transform="matrix(70.7277 -4.79511 1.24204 18.32007 92 27.5)"/><circle r="1" fill="#5b4231" transform="matrix(-52.16832 -16.5019 9.46425 -29.91983 177.5 169)"/><ellipse cx="221" cy="54" fill="#666a73" rx="61" ry="10"/><circle r="1" fill="#714b37" transform="matrix(-22.17002 -8.5645 5.72532 -14.82053 145.3 91.5)"/><circle r="1" fill="#1d1104" transform="rotate(-31.5 219 61.7) scale(85.67252 42.65392)"/><path fill="#191412" d="M214 66h42v91h-42z"/><path fill="#a597a5" d="M254 28L128 50l40-45z"/><path fill="#fff" d="M232.3-13L236 5.6 197.7 13 194-5.6z"/><circle r="1" fill="#a7928c" transform="matrix(-8.76676 -26.93573 29.0671 -9.46045 27 4)"/><path fill="#000b00" d="M34.3 42.3l-7.5 15.2-61-29.8 7.4-15.2z"/><ellipse cx="117" cy="123" fill="#472f1d" rx="28" ry="87"/><path fill="#6c676a" d="M132 39h54v13h-54z"/><path fill="#a56841" d="M33 46h20v7H33z"/><path fill="#605e6a" d="M90 51l54-45-84 22z"/><ellipse cx="246" cy="59" fill="#918386" rx="67" ry="3"/><path fill="#0f0b08" d="M161 108l104 40 1 37z"/><ellipse cx="208" cy="54" fill="#1d2211" rx="148" ry="2"/><path fill="#0a1200" d="M56.5 51.7L58.7 36l16.8 2.4L73.3 54z"/><path fill="#e3c8d0" d="M190 27l23 4 12-9z"/><path fill="#7b727a" d="M212.3-16L24.5 17.5-16 24.1l59.8 13.2z"/><path fill="#ab9ab1" d="M159.4-2L198-18.2 206.6 2 168 18.3z"/><path fill="#121607" d="M-6.6-2.8L4.6 21.1-16 59l22.4-2.9z"/><path fill="#0c1a09" d="M100 41h31v12h-31z"/><ellipse cx="3" cy="129" fill="#110b06" rx="38" ry="23"/><circle r="1" fill="#fff6fb" transform="matrix(42.5128 -13.94019 1.53469 4.68028 226.8 0)"/><circle r="1" fill="#ae9ab2" transform="matrix(-46.7303 15.32771 -1.2621 -3.8478 246.8 4.5)"/><ellipse cx="206" cy="88" fill="#2c1e16" rx="41" ry="27"/><ellipse cx="234" cy="118" fill="#433328" rx="24" ry="7"/><ellipse cx="27" fill="#b0999a" rx="42" ry="13"/><circle r="1" fill="#351b0e" transform="matrix(-18.91633 -25.3782 22.176 -16.52948 58.3 118.9)"/><path fill="#483818" d="M123.2 80L59 52.4-.7 50.1l29 10.2z"/><path fill="#6c6979" d="M207.6 34.5l52.6 31.9-31.5-1.8 33.7-27.4z"/><circle r="1" fill="#7a7381" transform="rotate(-85.8 82.3 -62) scale(29.3678 11.17315)"/><path fill="#634432" d="M143 83l59 24-80-10z"/><path fill="#523622" d="M32.7 90.6l40.4 16.3 19.9 2.9 27-3.4z"/><circle r="1" fill="#483022" transform="matrix(-44.95792 12.99203 -5.7739 -19.98011 93.9 162)"/><circle r="1" fill="#322418" transform="matrix(3.4698 -16.41408 14.35282 3.03406 150.1 64.7)"/><path fill="#553f2e" d="M160 127l68 35-72 3z"/><path fill="#76778e" d="M150 20h106v4H150z"/><path fill="#9f8580" d="M167 57h38v2h-38z"/><path fill="#2b1e16" d="M264.1 68.7L191.9 61l-40.7-3.4 86.9 71.3z"/><path fill="#6d4923" d="M96 73h30v6H96z"/><path fill="#241810" d="M148.1 132.9l-51.2-1 43.7 9.3 9.6 43.8z"/><path fill="#625f6b" d="M82.6 48.8L62.7 33.2l40-21.6 43.2 8.6z"/><circle r="1" fill="#0d1306" transform="matrix(-9.73012 9.01019 -7.35574 -7.94348 13.5 42.1)"/><path fill="#16100a" d="M206 118l-14 24 46 7z"/><path fill="#ad9494" d="M135 34h55v6h-55z"/><circle r="1" fill="#2c1a0a" transform="matrix(-6.55847 11.35136 -20.68457 -11.95092 88.6 86.4)"/><path fill="#1a1b06" d="M80 49h55v8H80z"/><path fill="#251a13" d="M224.1 156.4l-75.7-37.1 14.4-16.4 18.4 10.1z"/><circle cx="194" cy="101" r="4" fill="#705544"/><path fill="#382810" d="M9 51h21v56H9z"/><path fill="#a697a9" d="M240.7 5l-57.8 13.7 88.1-4.4-25.9-22.4z"/><path fill="#49341e" d="M237.7 72.1l-42-1.1-33-14.9-24.8-.6z"/><path fill="#1b150f" d="M195.2 164.4l-17.7 2.1 15 14.5 24.3 4z"/><circle r="1" fill="#5f4c3c" transform="matrix(.10255 -.99473 26.23189 2.70425 205.4 119)"/><path fill="#5e4433" d="M144 115l12-9-33 5z"/><path fill="#988986" d="M46 33L21 17 2 26z"/><path fill="#322d1c" d="M31.4 45l30.4-6 .8 4-30.4 6z"/><path fill="#65626d" d="M128.1 43.5l-42.4-9.4 13.9 20-3.8-48.5z"/><ellipse cx="199" cy="31" fill="#a79ba5" rx="45" ry="3"/><path fill="#635c5f" d="M37 20h20v8H37z"/><path fill="#765749" d="M93.6 142l15.9-5-5.8 2.3-.1 4.4z"/><path fill="#807b8c" d="M160 31.6l10.5-1.1-9.3-43.3L75.4-16z"/><path fill="#211811" d="M215.8 118.3l-13.6-1.9-43.2-2 92.7-17.9z"/><path fill="#28140a" d="M63.5 133.1l13.6-20.2 34.1 17.7 5.1-4.3z"/><path fill="#bd6c43" d="M38 48h14v3H38z"/><path fill="#837679" d="M78.8 33.6l-24.9 2.6-2.7-25.8 24.9-2.6z"/><path fill="#6f4b37" d="M169 87l-33-8 13 19z"/><path fill="#503f31" d="M218.6 153.3l33.1 25.9-4.3 5.5-33.1-25.9z"/><path fill="#130d05" d="M-7.3 115.2l23.7 39.4-24.6-62.8 30.2.9z"/><ellipse cx="254" cy="54" fill="#464140" rx="32" ry="3"/><path fill="#281a13" d="M139.7 76.6l36.6 13.6 17 13 27-29.4z"/><path fill="#4e4131" d="M46 53h32v5H46z"/><path fill="#603b1a" d="M105.2 74.4l20.7-15.1-30.2 3.6 25.7 10.8z"/><circle r="1" fill="#7d747c" transform="matrix(-2.89028 7.26295 -9.07979 -3.61329 163.3 43.8)"/><path fill="#3d3320" d="M161 54l12-4 10 3z"/><path fill="#342c16" d="M49.5 58.4L32.1 47.8l30 27.1-11.2-31.3z"/><path fill="#553626" d="M115 106l-11-13 35-1z"/><path fill="#30251c" d="M191 130l54 7 26-18z"/><path fill="#938082" d="M103 34h35v4h-35z"/><circle r="1" fill="#160c04" transform="matrix(11.16845 14.98363 -2.45872 1.83267 51.4 122.8)"/><ellipse cx="210" cy="26" fill="#e5c6cc" rx="8" ry="3"/><ellipse cx="243" cy="28" fill="#9792a5" rx="30" ry="6"/><path fill="#542d19" d="M45.5 129.7L59.2 110l3.3 2.3L48.8 132z"/><path fill="#635f67" d="M46 38l-24-5 34-2z"/><circle r="1" fill="#292219" transform="matrix(2.3145 -8.23412 2.71496 .76314 0 23.6)"/><path fill="#726566" d="M205 60h51v3h-51z"/><path fill="#3a2618" d="M1 185l17-35 105-7z"/><path fill="#fefffc" d="M236 6l-29-3 14-10z"/><path fill="#9f7e78" d="M97.1 138.8l8.3 5.6-.5.8-8.3-5.6z"/><path fill="#3c2613" d="M26 74.3L8 105.7l49.9.8L-16 78.6z"/><path fill="#998179" d="M141 42l9 2-15 9z"/><path fill="#7f7e94" d="M237.7 10.7L271 23.2l-114.1 1.3 36.5 4.2z"/><path fill="#ab9dad" d="M177.1 10.4l-15 12.9L202.9-.4l-35.5-1.9z"/><path fill="#20160f" d="M131 129h13v15h-13z"/><circle r="1" fill="#161800" transform="rotate(62.5 -1 79.3) scale(4.09207 4.81503)"/></g></g></svg>