<svg xmlns="http://www.w3.org/2000/svg" viewBox="0 0 4752 3168"><defs/><filter id="prefix__a"><feGaussianBlur stdDeviation="12"/></filter><rect width="100%" height="100%" fill="#314752"/><g filter="url(#prefix__a)"><g transform="translate(9.3 9.3) scale(18.5625)"><ellipse cx="144" cy="37" fill="#edebf9" fill-opacity=".5" rx="255" ry="62"/><circle r="1" fill="#425473" fill-opacity=".5" transform="rotate(-37.6 74.2 .9) scale(31.95867 66.78871)"/><ellipse cx="238" cy="33" fill="#caced0" fill-opacity=".5" rx="106" ry="38"/><ellipse cx="197" cy="139" fill="#5f6462" fill-opacity=".5" rx="150" ry="54"/><ellipse cx="37" cy="107" fill="#332e0f" fill-opacity=".5" rx="251" ry="9"/><circle r="1" fill="#c0beb9" fill-opacity=".5" transform="matrix(-.46922 -44.80563 3.19187 -.03343 104.1 130.4)"/><ellipse cx="74" cy="74" fill="#788492" fill-opacity=".5" rx="56" ry="28"/><ellipse cx="92" cy="30" fill="#cacccc" fill-opacity=".5" rx="17" ry="23"/><ellipse cx="245" cy="50" fill="#d1d4d5" fill-opacity=".5" rx="42" ry="28"/><circle r="1" fill="#697c88" fill-opacity=".5" transform="matrix(51.98816 16.81438 -4.24903 13.13753 242.1 136.6)"/><path fill="#85919f" fill-opacity=".5" d="M214.6 38.3L139 31.6l2.5-27.9 75.7 6.7z"/><circle r="1" fill="#d3d4d6" fill-opacity=".5" transform="matrix(-16.81528 -9.48311 6.44365 -11.42576 48.9 8.7)"/><circle r="1" fill="#91979c" fill-opacity=".5" transform="matrix(-2.43018 18.21334 -72.8657 -9.72236 201.7 82.8)"/><path fill="#0b1010" fill-opacity=".5" d="M220 106h36v13h-36z"/><ellipse cy="40" fill="#425776" fill-opacity=".5" rx="18" ry="49"/><circle r="1" fill="#eaebeb" fill-opacity=".5" transform="matrix(6.40255 -4.08972 15.98014 25.01725 224 5.3)"/><path fill="#cebeac" fill-opacity=".5" d="M62.6 172.2l-.2-6 27-.4.2 6z"/><circle r="1" fill="#2a3129" fill-opacity=".5" transform="rotate(151.8 -16.3 65) scale(28.06656 68.94649)"/><ellipse cx="123" fill="#5d749d" fill-opacity=".5" rx="61" ry="9"/><path fill="#2d301e" fill-opacity=".5" d="M154.5 99.7l-.2 2-62.8-5.4.2-2z"/><circle r="1" fill="#253c44" fill-opacity=".5" transform="matrix(30.99432 4.41691 -2.3579 16.5458 139.2 165.7)"/><path fill="#667982" fill-opacity=".5" d="M130 116h86v12h-86z"/><path fill="#c1c7d0" fill-opacity=".5" d="M130.3 14.2l27.2-9.1 1.5 12-34.1 12.4z"/><circle r="1" fill="#868e95" fill-opacity=".5" transform="matrix(17.44212 9.98172 -11.89653 20.78807 189 80.1)"/><circle r="1" fill="#758090" fill-opacity=".5" transform="rotate(-25 204.8 -120.8) scale(15.83918 31.77586)"/><circle r="1" fill="#6e7b8e" fill-opacity=".5" transform="rotate(-142 21.3 33.3) scale(26.35779 20.54219)"/><ellipse cx="14" cy="105" fill="#303209" fill-opacity=".5" rx="41" ry="11"/><path fill="#31434b" fill-opacity=".5" d="M88 138l-104-27 71 63z"/><path fill="#c6cad1" fill-opacity=".5" d="M75.2 14l39.9 23.2 3.2-8.7L88.6 5.3z"/><path fill="#96a0ab" fill-opacity=".5" d="M87 79l59-46 32 59z"/><path fill="#9198a2" fill-opacity=".5" d="M143 45L17 6l32 41z"/><path fill="#686c73" fill-opacity=".5" d="M75 46l4-62H62z"/><path fill="#8b7c60" fill-opacity=".5" d="M103.6 176.2L88.8 112l-1.5-12.1 8.5 22.8z"/><path fill="#78818b" fill-opacity=".5" d="M271 116.6v9.8h-30.6l-17.5-5.9z"/><path fill="#7587a3" fill-opacity=".5" d="M124-16l10 87-26-7z"/><path fill="#8b97b0" fill-opacity=".5" d="M252.6-29l21.5 44-28.7 14-21.5-44z"/><circle r="1" fill="#354950" fill-opacity=".5" transform="matrix(3.94038 -19.0139 79.51158 16.47772 187.7 169.7)"/><path fill="#8e969e" fill-opacity=".5" d="M141 33l80 1 1-26z"/><circle r="1" fill="#807153" fill-opacity=".5" transform="rotate(-102.8 79 10.8) scale(195.28688 1)"/><ellipse cx="213" cy="104" fill="#3f454c" fill-opacity=".5" rx="23" ry="5"/><path fill="#7b7670" fill-opacity=".5" d="M85.5 157.7l-20.7 2.6 11.4 5L98.6 185z"/><circle r="1" fill="#4b616c" fill-opacity=".5" transform="matrix(1.8428 -8.97738 78.02508 16.01625 189.5 136.1)"/><path fill="#c0c7cf" fill-opacity=".5" d="M159.5 21.1l8.8 3.6L189.5-16h71.1z"/><path fill="#818c99" fill-opacity=".5" d="M45 70h34v29H45z"/><path fill="#6d80a2" fill-opacity=".5" d="M105.7 8.3L91.7-16l13.2 35.7 47-11.4z"/><ellipse cx="106" cy="147" fill="#b7b8b6" fill-opacity=".5" rx="1" ry="58"/><path fill="#cccfd0" fill-opacity=".5" d="M234 74l-27-40-18 15z"/><ellipse cx="50" cy="107" fill="#30351f" fill-opacity=".5" rx="27" ry="9"/><path fill="#323426" fill-opacity=".5" d="M93 98l11-9-9 20z"/><path fill="#7d858f" fill-opacity=".5" d="M90 87h73v9H90z"/><path fill="#a1a8b1" fill-opacity=".5" d="M84 6.4l15.7-3.3-29.3 16.3 8.3 27.2z"/><ellipse cx="244" cy="114" fill="#1a1e20" fill-opacity=".5" rx="40" ry="4"/><path fill="#22373e" fill-opacity=".5" d="M84 150l18 35-4-32z"/><path fill="#44597a" fill-opacity=".5" d="M-16 38l6-54 44 59z"/><ellipse cx="103" cy="155" fill="#959693" fill-opacity=".5" rx="3" ry="80"/><path fill="#495b65" fill-opacity=".5" d="M16 117h73v9H16z"/><path fill="#c1c5c7" fill-opacity=".5" d="M132 51h38v6h-38z"/><path fill="#d9dcde" fill-opacity=".5" d="M225.4 1.6l5.6 2.1 15.1 30.6-11.9 25.4z"/><circle r="1" fill="#bdc2c7" fill-opacity=".5" transform="matrix(-9.97706 -16.10496 7.6354 -4.73015 56.3 10)"/><circle cx="166" cy="2" r="11" fill="#6c809f" fill-opacity=".5"/><circle r="1" fill="#6c7f9e" fill-opacity=".5" transform="matrix(18.9482 1.8822 -1.38864 13.9795 58 57.3)"/><path fill="#798492" fill-opacity=".5" d="M25.6 85.8l52.6 17.9 6.6-3.3-38.2-34.9z"/><ellipse cx="196" cy="96" fill="#747a87" fill-opacity=".5" rx="79" ry="2"/><path fill="#879096" fill-opacity=".5" d="M185 51l-18 15 54 22z"/><path fill="#d6cec7" fill-opacity=".5" d="M94 182l-81 3 59-19z"/><path fill="#a2aab2" fill-opacity=".5" d="M200.3 31.6l2.1-34.7 26.1 15.3-16.9 31.1z"/><ellipse cx="28" cy="91" fill="#777f8c" fill-opacity=".5" rx="17" ry="4"/><path fill="#697791" fill-opacity=".5" d="M5.2 13.7l2.1-.6L25 30l2.7-46z"/><path fill="#9fa6a8" fill-opacity=".5" d="M188.6 71.5l31-12.7L155.1 91l49-7.1z"/><path fill="#e0e3e4" fill-opacity=".5" d="M189.4 6.3L172.7-16l29 23.6-16.1-1.8z"/><circle r="1" fill="#b9bdc1" fill-opacity=".5" transform="rotate(111 101.9 119.1) scale(14.4378 25.41317)"/><path fill="#3d535f" fill-opacity=".5" d="M108 125h47v28h-47z"/><path fill="#cacdd1" fill-opacity=".5" d="M88 25l30 6L91 5z"/><path fill="#898b89" fill-opacity=".5" d="M82 115l8-1-2 5z"/><path fill="#303730" fill-opacity=".5" d="M110 98h48v16h-48z"/><path fill="#383d1c" fill-opacity=".5" d="M12.9 93.2L47.8 109l-44.8.9-19-30.4z"/><path fill="#2e3d42" fill-opacity=".5" d="M110 166h146v4H110z"/><path fill="#68778f" fill-opacity=".5" d="M35.2 27.6l14.3-.5-23.3 67-34-9z"/><path fill="#687b9c" fill-opacity=".5" d="M121 27l-17-9 3-8z"/><path fill="#86919c" fill-opacity=".5" d="M165.3 34.4l37.1-5.4-8.5-5.3-54.2-2.2z"/><path fill="#1b2122" fill-opacity=".5" d="M53 160l-34 12 5-12z"/><ellipse cx="75" cy="6" fill="#627aa4" fill-opacity=".5" rx="7" ry="11"/><path fill="#a5acaf" fill-opacity=".5" d="M161.8 59.9l11.5 2.7-10.5 22.9-14.9 1.2z"/><path fill="#66737a" fill-opacity=".5" d="M258.8 123.6l-20.3 14.3-23.3-22.6-107.3 4.2z"/><path fill="#7a776c" fill-opacity=".5" d="M84 154l-9 30 24 1z"/><path fill="#a7aeb3" fill-opacity=".5" d="M120 34L74 21l27 30z"/><path fill="#3c4f6e" fill-opacity=".5" d="M2.6 9.1l2.8 27.7L-16-4.3 43.5-16z"/><path fill="#0b2434" fill-opacity=".5" d="M84.2 174.9l-1 .1-1.4-11.9 1-.1z"/><path fill="#3d443d" fill-opacity=".5" d="M262.7 92.6L271 104l-63.8-2.5 33.8 13.8z"/><path fill="#746c54" fill-opacity=".5" d="M85.2 81.9l-3.9 5 10.9 23.7L79.8 73z"/><path fill="#b1b5b9" fill-opacity=".5" d="M49.1 41.5l6.7-8.6 18.5 11.2-3.4-9.8z"/><path fill="#e5e6e6" fill-opacity=".5" d="M271.5 50l-.7 2.9-32.3-6.9.7-2.9z"/><path fill="#31434a" fill-opacity=".5" d="M22 138h57v21H22z"/><path fill="#a9afba" fill-opacity=".5" d="M239 36h17v8h-17z"/><path fill="#c0bdb4" fill-opacity=".5" d="M178 114h2v3h-2z"/><path fill="#7d8ca2" fill-opacity=".5" d="M116.1 34.7l37.6 20.6L143 39.5l-39.1 30.6z"/><path fill="#3b4e56" fill-opacity=".5" d="M44 123h44v31H44z"/><path fill="none" stroke="#4e4a3a" stroke-opacity=".5" stroke-width=".5" d="M87.4 135.2q7-11.4-11.5-85.7"/><circle cx="93" cy="99" r="3" fill="#1f2419" fill-opacity=".5"/><path fill="#91857f" fill-opacity=".5" d="M52 168h6v2h-6z"/></g></g></svg>