<svg xmlns="http://www.w3.org/2000/svg" viewBox="0 0 4752 3168"><defs/><filter id="a"><feGaussianBlur stdDeviation="12"/></filter><rect width="100%" height="100%" fill="#1c293b"/><g filter="url(#a)"><g fill-opacity=".5" transform="translate(9.3 9.3) scale(18.5625)"><ellipse cx="117" cy="96" fill="#c0b79d" rx="154" ry="116"/><circle r="1" fill="#0073ff" transform="rotate(23.3 -178.8 148.8) scale(26.47997 41.38163)"/><ellipse cx="55" cy="161" fill="#ead0b9" rx="62" ry="61"/><circle r="1" fill="#473019" transform="matrix(-36.08031 17.14837 -41.59589 -87.51807 232.5 164.6)"/><ellipse cx="109" cy="4" fill="#393620" rx="50" ry="23"/><path fill="#fff" d="M112.5 28.8l-9.7-.6-6.7 31.9 11.1 1.4z"/><path fill="#0057c7" d="M20 59h59v43H20z"/><path fill="#35342a" d="M84.2 108.1l56-22.1-8.2-5.8-9.4-58.5z"/><path fill="#fba65f" d="M169.1 84.9l-12.6 17.4 3.8 43.9 15.3-29.7z"/><circle r="1" fill="#575d44" transform="matrix(-74.21264 33.0416 -13.54905 -30.43167 226 28)"/><path fill="#bdeaff" d="M47.4 49.6l6.3-14.5 8.8 3L-16 41z"/><path fill="#dfd3b6" d="M16.7 89.8l-9.3 34.8-24.1-6.4 9.3-34.8z"/><path fill="#ebc1b0" d="M40.8 93.5l94.8 45.4 10.3 2.1-11.7 11.7z"/><circle r="1" fill="#212a27" transform="matrix(9.11693 14.84114 -22.49848 13.82083 0 69.4)"/><circle r="1" fill="#754f30" transform="rotate(-147.9 105 47.3) scale(48.90052 18.57245)"/><path fill="#364d6b" d="M24.4 96.2L14.6 122l75.2 6.6-22.2 15.9z"/><path fill="#ffeddc" d="M84.3 113.6l-34.7 9.3-4-14.5 34.8-9.3z"/><path fill="#28180f" d="M58 46l22.8-10.2 20.1-3.1-9.6-19.8z"/><path fill="#006cd0" d="M11 103l69-6-27-72z"/><path fill="#02143a" d="M63.2 62.1L74 82l12.1-22.1-33.7-13.8z"/><circle r="1" fill="#939985" transform="matrix(-21.8733 -12.84704 5.88823 -10.02527 198.5 22.5)"/><path fill="#dfdcc9" d="M81.3 193l-1.6-47 29-1 1.6 47z"/><ellipse cx="190" cy="169" fill="#826951" rx="71" ry="26"/><path fill="#969c7e" d="M119.3 31.8l41.9-23-3.1 29.1-17.3 29z"/><path fill="#58adf9" d="M30.3 68.3l20.6-2.1.7-32.2-26 29.6z"/><path fill="#232629" d="M225.4 106.9l-28.4 20-29.1 13.4 29.2-43.6z"/><circle r="1" fill="#3d332b" transform="matrix(4.5704 42.40224 -16.76684 1.80724 255 145)"/><path fill="#a78274" d="M112.7 23.9L88.8-16l13.7 61.7-43.7 8z"/><path fill="#003d93" d="M41.2 101l-24 18.1-3.6-18.8 47.8-10.8z"/><path fill="#c0c9bc" d="M48 40L16 20l34 10z"/><path fill="#ffaf16" d="M158 123h9v17h-9z"/><path fill="#d5bab2" d="M179.3 121.6l-15.7-18.1 25.7-7.1-29 21.7z"/><path fill="#3d3734" d="M153 147l7-48-32 25z"/><circle r="1" fill="#2a3d38" transform="matrix(38.42255 13.53072 -1.44097 4.09185 19.9 16.4)"/><path fill="#a2957c" d="M102 147l51-56-36 3z"/><path fill="#313832" d="M225 41l-23 53-14-20z"/><path fill="#2f331e" d="M205-16L85-9l63 23z"/><path fill="#836546" d="M53 130l26-9 1 42z"/><path fill="#898d75" d="M271 70l-56 31 7-52z"/><path fill="#273333" d="M47 35l-17 5L9 23z"/><path fill="#6a6051" d="M33 150l7-30 9 36z"/><ellipse cx="168" cy="34" fill="#354239" rx="7" ry="22"/><path fill="#b4b8a3" d="M190.8 59.8l-.6-11 13-.6.6 11z"/><path fill="#ebe4d9" d="M92.8 59.5l20-2.6-2.1 2.6.5-30.4z"/><path fill="#b2c2c3" d="M-5.9 61.5l8.7-43.8-18.8 3.9 26 17.7z"/><path fill="#935f4f" d="M117.3 85.3l-.2-4.8-55-58 .7 26.6z"/><path fill="#3f4643" d="M19.8 78.6l14.1-30.7-49.9-6.7 7.8-22.6z"/><path fill="#685c4b" d="M123 142l-29-10 54 53z"/><ellipse cx="39" cy="113" fill="#719ddf" rx="9" ry="12"/><path fill="#929b8c" d="M135 77.1l29.6 9.8-36 17 71.8-35.4z"/><path fill="#0077d9" d="M61.8 100.6l4-24.2-8.9-46.1L33.1 77z"/><circle r="1" fill="#9da397" transform="matrix(7.62907 12.93763 -5.74148 3.38564 57.9 15.5)"/><circle r="1" fill="#33342c" transform="matrix(-2.1911 -30.89317 5.30146 -.376 119.4 45.8)"/><circle r="1" fill="#454c44" transform="rotate(172.5 85.7 38.8) scale(42.88354 5.48721)"/><path fill="#f7dbc5" d="M51 99h9v29h-9z"/><path fill="#c6bfaa" d="M8.1 144.5l-.2 19.9-23.6 14.3 110.6.2z"/><path fill="#4c453d" d="M76.5 91.6L90 84.8l30.9 22.3-27.3 7.2z"/><circle r="1" fill="#eedbd5" transform="matrix(-2.95381 1.93292 -4.0051 -6.12043 129.6 145.6)"/><path fill="#454535" d="M182 40h66v10h-66z"/><path fill="#033b84" d="M38.8 78.4l16.8 18.4-50 15.7 19.8-8.1z"/><path fill="#09181a" d="M63 13L59-1l27-15z"/><path fill="#172a33" d="M78.5 157.4l-6 13.7-1-.5 6-13.7z"/><path fill="#ae977c" d="M188 172l-41 13-4-29z"/><ellipse cx="31" cy="43" fill="#f3f0ef" rx="10" ry="4"/><path fill="#d6bdb3" d="M176 119l-4-26-11 20z"/><path fill="#d4ae9d" d="M80 107l-20 11 70 21z"/><circle r="1" fill="#003b9d" transform="matrix(-7.85232 -26.17313 5.89388 -1.76825 66.4 71.6)"/><path fill="#d2dad1" d="M13 22h17v4H13z"/><path fill="#a89c81" d="M43 138l-59-51 16 45z"/><path fill="#988f7e" d="M116.1 146l-6.9-18.1 23.1 53.7-54.8-57.3z"/><path fill="#a5877d" d="M81 62l16 18-21 9z"/><path fill="#536064" d="M52 163l9-10 19-1z"/><path fill="#d9c4ba" d="M54 147h30l-41-13z"/><path fill="#9db8bf" d="M13.2 92.4l12.9-15.1L-16 97.4l4-6.1z"/><path fill="#342f1f" d="M9 18l36-34-61 29z"/><circle r="1" fill="#565a4e" transform="matrix(53.25653 55.4113 -6.20209 5.9609 232.9 24)"/><path fill="#b16b65" d="M78 34h21v22H78z"/><path fill="#a49479" d="M106.5 80.8L104.8 57l8.8-23.8-6.4 46.4z"/><path fill="#252217" d="M240 25V-2l29 27z"/><path fill="#c78e68" d="M49.5 122.9l-1.9 13.4h11.1l16.2-16.5z"/><ellipse cx="28" cy="5" fill="#95a7a6" rx="3" ry="16"/><path fill="#383a33" d="M122.9 74.7l15.8-25.4-24 12-22.4.8z"/><path fill="#ad9887" d="M114.3 140.7l-.5-.9 45.9-26.5.5.9z"/><path fill="#616152" d="M222.5 49.6l3.4 29.6 20.4 40.7-47.8-25.6z"/><path fill="#108dee" d="M15.1 92.7l10.3-28.2 7.5 2.8-10.3 28.2z"/><path fill="#2c2f2a" d="M190.1 66.9l-4.5-27.2-1.2 17.3-14.9 6z"/><path fill="#bcc6be" d="M38.8 26l-39.9-7.4 57.5 18-14.1-6.1z"/><path fill="#7c8577" d="M92.7 8.4L73 6.5l25.5 15.3 6.3-37.8z"/><path fill="#182121" d="M95.8 25.5l-27.1 15 16.8-19.7 9.3-6.9z"/><circle r="1" fill="#ffac3c" transform="matrix(-2.51987 .35626 -1.2811 -9.06134 162.4 123)"/><path fill="#a2a48e" d="M158.4 16.3l-13 48-7.9 4.8-3.5-2.7z"/><path fill="#343a36" d="M48.9 13.5L38.1 25.2 52 33.5l-1.4-18z"/><circle r="1" fill="#95a7c7" transform="matrix(11.28194 -3.62154 1.38478 4.3139 44.2 104.4)"/><path fill="#62a3ed" d="M26 71.3L48.1 52l8.7-19.4-4.2-.2z"/><path fill="#3e3425" d="M65 138l-7-5 17-4z"/><path fill="#533a32" d="M151 156l16-12-24-19z"/><path fill="#968679" d="M103.5 68.5l-6-.9 9.6 11.3 5.5-24.6z"/><path fill="#9d8165" d="M58 26l16 8 6-20z"/><path fill="#c4d1d0" d="M52 162h18v8H52z"/><circle r="1" fill="#565651" transform="matrix(5.46855 -1.75134 1.11547 3.48304 40 127)"/></g></g></svg>