<svg xmlns="http://www.w3.org/2000/svg" viewBox="0 0 1800 1200"><defs/><filter id="a"><feGaussianBlur stdDeviation="12"/></filter><rect width="100%" height="100%" fill="#404144"/><g filter="url(#a)"><g fill-opacity=".5" transform="translate(3.5 3.5) scale(7.03125)"><ellipse cx="95" cy="52" fill="#b8bdb8" rx="176" ry="140"/><circle r="1" fill="#fff" transform="matrix(4.4088 -33.94595 137.47887 17.85539 125 0)"/><path fill="#20211f" d="M149 184.3l-99.8 5.3-4.2-80 99.8-5.2z"/><circle r="1" fill="#3d3e3e" transform="matrix(-3.38581 31.16694 -104.12391 -11.31148 29.2 46.8)"/><circle r="1" fill="#fffffe" transform="rotate(18.2 18 362.7) scale(73.33708 23.63553)"/><circle r="1" fill="#3c4b5a" transform="rotate(98.5 81.9 121.6) scale(26.78195 46.8594)"/><ellipse cx="229" cy="169" fill="#515c5c" rx="86" ry="54"/><circle r="1" fill="#d5c5b5" transform="rotate(-60.7 124.2 61.2) scale(32.40201 20.39604)"/><ellipse cx="127" cy="93" fill="#b7b7ad" rx="87" ry="16"/><ellipse cx="151" cy="59" fill="#202729" rx="28" ry="9"/><path fill="#b0b0a8" d="M108 128h43v14h-43z"/><path fill="#0b0c0f" d="M69 111l36 2-10 51z"/><ellipse cx="48" cy="135" fill="#a5a198" rx="31" ry="10"/><path fill="#3a3734" d="M32 103h15v67H32z"/><circle r="1" fill="#97a8bb" transform="rotate(121.4 124.3 77.3) scale(34.87493 35.09695)"/><path fill="#fff" d="M-5.9 3.1L82.4-16l36.1 38.1L46 14.6z"/><circle r="1" fill="#3f3832" transform="matrix(-3.96131 -10.26384 29.3977 -11.34598 0 95.5)"/><ellipse cx="250" cy="83" fill="#0e0400" rx="8" ry="9"/><path fill="#979aa3" d="M13 73H-3V33h16z"/><path fill="#bbb6ad" d="M-15.9 135.8l35.2-27 37.1 31.7-19.7 3.2z"/><ellipse cx="37" cy="34" fill="#4a4d4b" rx="35" ry="21"/><circle r="1" fill="#d3d8d5" transform="rotate(103.2 68.2 84.2) scale(11.20569 15.02452)"/><ellipse cx="82" cy="117" fill="#2d2d31" rx="53" ry="12"/><path fill="#a09f98" d="M31 58l22 19 23-16z"/><path fill="#4d5151" d="M79 44h74v33H79z"/><ellipse cx="48" cy="98" fill="#bfb9ad" rx="37" ry="5"/><path fill="#3c3732" d="M41 81h21v10H41z"/><circle r="1" fill="#545c5e" transform="matrix(58.24926 -27.16208 7.62996 16.3625 233.2 140.3)"/><path fill="#9ea19c" d="M145 77h45v47h-45z"/><path fill="#393d3a" d="M23.5 153.4l6.9 10.7 122.9-11.5-105.5-11.1z"/><path fill="#acaba1" d="M114 82l-27 31-27-38z"/><path fill="#27282e" d="M115.4 127.9l16.4 2.5 12.1-22.1-6.3-9.2z"/><circle r="1" fill="#95a3b2" transform="matrix(58.1138 13.20313 -1.7413 7.66434 244.9 31.4)"/><ellipse cx="85" cy="169" fill="#696c69" rx="45" ry="13"/><circle cx="32" cy="105" r="5" fill="#171314"/><path fill="#0a0b0b" d="M79 128h22v21H79z"/><path fill="#b2b6b3" d="M86-12l100 35-57-39z"/><path fill="#818482" d="M269.8 51l-127.1 72.4-13.8 14.4 21.7 25.1z"/><path fill="#4f5961" d="M257.7 76.6l-76.9-2.5 32.1-44.6 16.3 4z"/><path fill="#414341" d="M14 39h84v20H14z"/><circle r="1" fill="#b4b1a7" transform="matrix(-14.00889 -3.87993 1.70839 -6.1683 51.7 101.3)"/><path fill="#5f6363" d="M43.4 14.5L-16 .8v28.4l164.7 16.3z"/><path fill="#908b83" d="M7.7 169.1L66.3 126l-53.9 5.5-8.3 31.6z"/><path fill="#6c7d8c" d="M220.2 63.3l-29-1.6-26.1-8.6 37.3-21.9z"/><path fill="#81827e" d="M38 66h130v6H38z"/><ellipse cx="185" cy="77" fill="#b9b9b3" rx="34" ry="2"/><path fill="#888983" d="M197.9 140.3l-96.1-10.6-.3 9.9 6.7 4z"/><circle r="1" fill="#9da8b5" transform="matrix(-17.62923 22.21883 -16.65387 -13.21378 255 19.1)"/><path fill="#c5beb3" d="M-16 143l40-11 2-37z"/><circle r="1" fill="#f3efe8" transform="matrix(-23.58318 -7.96613 3.82717 -11.33006 110.5 22.4)"/><ellipse cx="196" cy="64" fill="#414744" rx="54" ry="5"/><ellipse cx="255" cy="117" fill="#6e777d" rx="77" ry="12"/><path fill="#8e8f89" d="M49 127h29v16H49z"/><path fill="#f0f4f1" d="M73.5 21.2L27.1-16-16-1.8 11.2 6z"/><path fill="#949794" d="M130.7 105l110.9-14.9-125.1-3-.4 27.8z"/><path fill="#1a1d24" d="M193 84.4v-1l52-1.8v1z"/><path fill="#2f3032" d="M51 126h85l-30-23z"/><path fill="#cfd2cf" d="M172.1 49l-41-11.3 49.4-13.9 9.8 4.8z"/><path fill="#acacab" d="M11 36l2 7-21-10z"/><path fill="#4b5b6e" d="M270 62l-81-29 37-2z"/><path fill="#323134" d="M65 117.2l-6 11.5-30-16 6-11.4z"/><path fill="#312f2b" d="M-3.1 105.7L-16 95.8l56.2-5-56 13.3z"/><path fill="#777872" d="M146 180l25-2-27-70z"/><path fill="#d5d6d2" d="M195-15l39 30L122-5z"/><ellipse cx="59" cy="76" fill="#4c4b4c" rx="28" ry="3"/><path fill="#353434" d="M191.2 73.3l.4 3.1 24.3-.5 18.5-2.8z"/><path fill="#49504f" d="M222 143l-36 6 34 36z"/><path fill="#adaea6" d="M81 78h87v11H81z"/><path fill="#91918d" d="M242 79l-17-2 39-21z"/><path fill="#53585b" d="M156.1 45.3l5.3 18.3L-16 30.7l135.8 7.7z"/><path fill="#a39f96" d="M38.4 133l-15.3-32.7-11.5 2 7.6 40.8z"/><path fill="#919faf" d="M192 33l75-9-3-21z"/><path fill="#a8a79f" d="M79 80l-27 30-14-13z"/><path fill="#121b1e" d="M108 66h7v6h-7z"/><path fill="#36373a" d="M97.7 118.4L74.8 123l-26 5.9 22.1-26.7z"/><ellipse cx="252" cy="74" fill="#484849" rx="178" ry="2"/><path fill="#969691" d="M189.7 110.6l-35.2 10.8-23.7-25.6 83.4 23.9z"/><path fill="#9d9c94" d="M69 93l59-8-41 26z"/><path fill="#6b7984" d="M220 67.2L197.7 61l-38.4-9.7 32.8-11.7z"/><path fill="#3a403b" d="M117.9 138.7l15.7 3.9 7.4 26.1-13-2.1z"/><path fill="#b2b7bb" d="M251.7 46.6L229.5 36l-7.9-11.2 49.4 16z"/><path fill="#83817c" d="M47.4 173.8l.2-10 25 .4-.2 10z"/><path fill="#84837f" d="M53.5 55.8l-11.8 1.9 23 24.9-11-36.8z"/><path fill="#252629" d="M92 122l54-7-11 13z"/><path fill="#e0d8cf" d="M19 138.3l-5.2-10.7-23.6 28.1-4.9-33.6z"/><path fill="#828b92" d="M195 85h49v18h-49z"/><path fill="#3a3f3d" d="M33 149h109v10H33z"/><circle cx="108" cy="132" r="6" fill="#93938c"/><path fill="#e5d4c7" d="M6.8 170.3l-5.9 1.2-1.7-7.8 5.9-1.2z"/><path fill="#565e61" d="M246 125l-72 2 95 32z"/><path fill="#383c36" d="M259 54l-11 9-17-2z"/><path fill="#787d83" d="M125 50l6-10-2-9z"/><path fill="#6f6960" d="M-16 127.2L44.4 185 30 151l-9.7 16.5z"/><path fill="#efece7" d="M85 10h76v16H85z"/><path fill="#4d4643" d="M15 88.7l31-7.2 1 3.8-31.2 7.2z"/><path fill="#6e6b66" d="M-14.9 94.8l34.8-28.2-35.9 59.1 35.4-14.3z"/><path fill="#b0aba0" d="M14.2 100l-2.8-.9 32.1-8.2-20.9 18.6z"/><path fill="#e6e7e4" d="M19.9-16l108.9 54.1-10-1.5-55.2-16.7z"/><path fill="#646665" d="M-16-1l38 24 47-1z"/><path fill="#5a5f59" d="M126.1 141.1l48.8 10.1-29.4 1.2-28.8-8.4z"/></g></g></svg>