<svg xmlns="http://www.w3.org/2000/svg" viewBox="0 0 1800 1200"><defs/><filter id="a"><feGaussianBlur stdDeviation="12"/></filter><rect width="100%" height="100%" fill="#485266"/><g filter="url(#a)"><g fill-opacity=".5" transform="translate(3.5 3.5) scale(7.03125)"><circle r="1" fill="#f7f5e5" transform="matrix(-167.21922 87.06852 -37.1655 -71.3781 137.5 151.2)"/><ellipse cx="162" cy="53" fill="#c1c5c4" rx="58" ry="123"/><circle r="1" fill="#fff" transform="matrix(-1.84784 22.50935 -48.22735 -3.9591 176.3 108)"/><path fill="#6f7b85" d="M70-16l-86 190L271 23z"/><circle r="1" fill="#5a6a7a" transform="matrix(24.50317 -21.2253 118.11361 136.35408 221.4 41.8)"/><ellipse cx="87" cy="168" fill="#6d6c6b" rx="61" ry="18"/><circle r="1" fill="#fff" transform="matrix(-20.66349 3.7306 -4.93265 -27.32158 176 99)"/><circle r="1" fill="#5f6971" transform="matrix(1.93218 10.82834 -30.83095 5.50138 229.9 154.7)"/><circle r="1" fill="#526070" transform="matrix(5.22475 15.17379 -51.4474 17.71476 66.7 97.7)"/><ellipse cx="22" cy="140" fill="#a5a39c" rx="162" ry="15"/><circle r="1" fill="#cdccc8" transform="matrix(8.14623 9.91738 -49.53684 40.69002 138.7 99.1)"/><path fill="#abada8" d="M64.1 10.3l89.3 34.2-29.1-41.2-70 18.9z"/><circle r="1" fill="#fffaf3" transform="matrix(-4.6519 -2.8111 14.8882 -24.63736 202.3 129.4)"/><path fill="#fff" d="M125 101h95v16h-95z"/><circle r="1" fill="#5c6a79" transform="matrix(-48.8759 -58.0704 26.25684 -22.0995 253 33.6)"/><path fill="#9da3a8" d="M214.7 99.1l-20.6 5.8L182 34.7l76.6 63z"/><circle r="1" fill="#95948f" transform="matrix(5.25994 15.39471 -31.28892 10.69055 140.8 141.2)"/><ellipse cx="226" cy="169" fill="#606d79" rx="8" ry="52"/><path fill="#6b7985" d="M61 10h51v71H61z"/><circle cx="5" cy="169" r="14" fill="#545860"/><path fill="#606b76" d="M112 74l-63 58-56-2z"/><circle r="1" fill="#536271" transform="matrix(-3.37982 -25.52634 24.66104 -3.26525 156.2 0)"/><circle r="1" fill="#6c7781" transform="rotate(-97.6 170.3 -47.6) scale(5.00812 25.90711)"/><circle r="1" fill="#cdc7bd" transform="matrix(-18.55125 -9.17884 17.66897 -35.71057 177.6 159.9)"/><path fill="#a3a7a8" d="M133.8 100.1l21.2-.2 31.6-73.4L66.1 144.8z"/><path fill="#adb0ab" d="M140 42l-27.7-4.3L116 14l27.7 4.3z"/><path fill="#fdf8f1" d="M230.4 95.9l2 6.6-24.8 7.6-2-6.6z"/><circle cx="40" cy="71" r="41" fill="#4f5f6e"/><path fill="#27292a" d="M85 94l10-7-24-3z"/><path fill="#959a9a" d="M67.9 40.4L55.7 20.9l8.4-5.3 12.2 19.5z"/><path fill="#d4cfc6" d="M119 89h20l-18 45z"/><path fill="#abacaa" d="M-16 133H93l-19 26z"/><path fill="#7c838a" d="M107 116l-44 17 43-56z"/><path fill="#fdfdfc" d="M159 122l40-40-31-2z"/><path fill="#b7b4ac" d="M140 158h76v12h-76z"/><path fill="#b0afa8" d="M262.8 174.9l-29.5-12.5 4-9.3 29.4 12.5z"/><path fill="#727e8a" d="M227.9 102.7L271 91l-34.5 38.6-7.9-19.7z"/><path fill="#acaba6" d="M242 147l18-35-45 23z"/><path fill="#929292" d="M9.6 166.3l7.5-12.4 63.8-5.6L14.7 185z"/><path fill="#526171" d="M228.7 162.6l28.5-20.3 13.8 13.3-55.7-4.2z"/><circle r="1" fill="#667584" transform="matrix(-30.51933 22.61853 -5.9565 -8.03714 106 63.2)"/><path fill="#b7bab5" d="M228.9 97.8l38.4-18.4 3.7-1-19.9 16.8z"/><path fill="#d0cdc8" d="M179.1 157.4l7.1-4.5-34.8 11.6 94.5-65z"/><path fill="#808993" d="M218 41l-39-13-78 50z"/><path fill="#797a7d" d="M99.1 148.9l66.4 36.1H28.6l49.6-31.3z"/><path fill="#babdc1" d="M209.8 84l-6.6 10.1-31-20.1 6.6-10.1z"/><path fill="#8c9294" d="M106 3l19 28-38-17z"/><path fill="#767d83" d="M203 140l4-9 22 21z"/><path fill="#b1b5b7" d="M164.9 102l-33.5-4.1 42.7-19.4-52.2-1.9z"/><circle r="1" fill="#919497" transform="matrix(1.03577 4.71775 -21.95332 4.8198 69.3 115.9)"/><path fill="#fefefe" d="M133.8 108.9l11.1-9.7 44.9 23.9-25.5-2z"/><path fill="#c5c2bb" d="M99.2 103.2l49 14.3-42.7 24.3L122 89z"/><path fill="#8f979c" d="M204 83h27v15h-27z"/><circle r="1" fill="#414f5c" transform="rotate(-12.6 8.1 -73.5) scale(73.1941 23.87456)"/><path fill="#616d7d" d="M23 135l67-42-35-10z"/><path fill="#5c6a79" d="M53.4 57.6l67.8-36.9-14 21.5 16.2 16.3z"/><path fill="#4e5c6b" d="M66-14l-82 125 38 10z"/><path fill="#939391" d="M105 134l46 27-67-16z"/><path fill="#ababa8" d="M182.1 126.6l-70.2-1.9 41.6-.4 11 30.8z"/><circle r="1" fill="#5d6b7a" transform="rotate(-136.7 133.4 -27.7) scale(89.08125 11.66895)"/><path fill="#606b76" d="M63.9 118.9l30.5.7-24.5 6.1-3.2-9.9z"/><path fill="#5d6873" d="M207 171.8l24-10.2 2 4.6-24 10.2z"/><path fill="#b1b1ac" d="M79 123h22v20H79z"/><path fill="#858c93" d="M110.4 73l27.5 16.3-26.8 2.6-21.7 48.2z"/><path fill="#f7f8f8" d="M194.6 114.1l19.1-20.2-19 52.8 19.3-30.8z"/><path fill="#dedcd8" d="M189 148l-14 4 10-27z"/><path fill="#d9d0c6" d="M193.4 110.5l15 18.9 5.9-11.2 5 23.7z"/><path fill="#65717d" d="M95.9 15.2L203.7-16l-49.5 55.6-33.4-50.5z"/><path fill="#68747e" d="M222.6 149.4l8.9 33.8-5.6-46.2-31.6 31.1z"/><circle r="1" fill="#79838f" transform="matrix(17.10202 20.6244 -10.0579 8.34013 228.4 67)"/><path fill="#999fa4" d="M231.5 81.6l-39.8-25.2-31.6-10 10.4 17.3z"/><path fill="#798087" d="M24.2 117.7l-33.5 33.6-3.3-22.2 57.4 6z"/><path fill="#919799" d="M233.9 114.5l-6.9 30.8-12.3-27.9 31.7-25.6z"/><path fill="#939596" d="M201.6 136.9l69.4 14.6-29.1-29 2 28.6z"/><path fill="#dbd9d4" d="M173.2 124.8l-54.8-4.3-8 6.6 7.9-17.7z"/><path fill="#d3cec4" d="M208 124.7l20.4-28.2 7.4 2.2-22.4 22.3z"/><path fill="#46525e" d="M26.7 177.4l-39.4 2.4L10.4 158l-26.4.1z"/><path fill="#acaeac" d="M122.6 7.8l-14.7 11.9 39.2 11.7-23.5-20.9z"/><ellipse cx="135" cy="98" fill="#9fa2a4" rx="28" ry="2"/><circle r="1" fill="#889093" transform="matrix(-.2512 -3.0845 8.10003 -.65967 78.8 37.1)"/><path fill="#6e7b87" d="M216.8 50.6L271 101l-42.9-74.3-86.6-5.3z"/><path fill="#8e8e8c" d="M134.9 124.8l19.7 3.3-8.6 4.3-19.5 6.6z"/><path fill="#c7cbce" d="M154 80h9v23h-9z"/><path fill="#6e7b88" d="M238 101l33 3-49 21z"/><path fill="#babdbf" d="M194 75h10v31h-10z"/><path fill="#9e9e98" d="M222.8 135l-26.6 19.6-.5 10.5h3.3z"/><path fill="#f8f8f8" d="M179.5 80.4L159 90.1l46.3 36.1-23.4-44z"/><path fill="#717a80" d="M91.4 23.8L63.1-16 97 9.7l-43.9 8.1z"/><path fill="#6c767f" d="M103 104l-7 17-9-4z"/><path fill="#747e88" d="M219.6 130.8l4.2-4.2 10.6 10.6-4.2 4.2z"/><path fill="#121111" d="M78 88h11v2H78z"/><path fill="#aeaeab" d="M72.9 127.1l-38 23.3 3.1 5.4-17.2-12.1z"/><path fill="#a0a39f" d="M193.3 7.8l1.5-4.5-46.3-13.9 33.6 7.4z"/><path fill="#979898" d="M50.5 176.9L-16 125.6l48.4 25.2-30.3 15.3z"/><path fill="#727e8b" d="M126 44L86 85l35 2z"/><path fill="#19191d" d="M73.1 87l-.9.4L69 79l.9-.4z"/><path fill="#5e6b7c" d="M82.7 80.6l24.2-60.7-56 54.7 1.1 9.8z"/><path fill="#b4b6b5" d="M194 119v15l-9-6z"/><path fill="#5d6873" d="M41.7 36.8L54.3 8.7l16.2.4 28-25.1z"/><path fill="#b3b2af" d="M128.1 124.4l-82 6.6 13.2-7 29.6 14.7z"/></g></g></svg>