<svg xmlns="http://www.w3.org/2000/svg" viewBox="0 0 1800 1200"><defs/><filter id="prefix__a"><feGaussianBlur stdDeviation="12"/></filter><rect width="100%" height="100%" fill="#5e2b40"/><g filter="url(#prefix__a)"><g transform="translate(3.5 3.5) scale(7.03125)"><path fill="#fff" fill-opacity=".5" d="M226-1H-16l14 108z"/><circle r="1" fill="#eaffff" fill-opacity=".5" transform="matrix(179.71166 -101.29587 22.69646 40.26639 35.9 35)"/><circle r="1" fill="#487f64" fill-opacity=".5" transform="matrix(-161.01534 84.24404 -20.89573 -39.93793 121.1 89.2)"/><circle r="1" fill="#0e4528" fill-opacity=".5" transform="matrix(90.27908 -28.31645 20.91653 66.6865 203.4 149.7)"/><circle r="1" fill="#b9c6cf" fill-opacity=".5" transform="matrix(2.96054 15.06157 -32.87987 6.46294 67.3 138)"/><circle r="1" fill="#d8f6ff" fill-opacity=".5" transform="rotate(-48.8 67.7 -26.6) scale(54.54118 35.00476)"/><path fill="#b7e2ff" fill-opacity=".5" d="M259 0L92 32 44-16z"/><ellipse cx="50" cy="169" fill="#0b2219" fill-opacity=".5" rx="255" ry="15"/><circle r="1" fill="#efffff" fill-opacity=".5" transform="matrix(-20.16953 18.48197 -11.3314 -12.36606 7.7 88.6)"/><path fill="#5a564f" fill-opacity=".5" d="M118 38.2L23.9 98.1l199.3 29.6L182.1 13z"/><circle r="1" fill="#9cb4bc" fill-opacity=".5" transform="matrix(-14.75708 -1.39163 .67658 -7.1746 102.7 143.6)"/><circle cx="255" cy="55" r="51" fill="#384644" fill-opacity=".5"/><circle r="1" fill="#c4d8ee" fill-opacity=".5" transform="rotate(175.8 .8 10.7) scale(164.17108 31.66562)"/><circle r="1" fill="#3a3d31" fill-opacity=".5" transform="rotate(72.8 -68.2 82.7) scale(11.12458 59.53697)"/><path fill="#bdc1c0" fill-opacity=".5" d="M42 135l-17 13-21 2z"/><circle r="1" fill="#3e4541" fill-opacity=".5" transform="rotate(108.6 23.4 107.3) scale(23.2893 53.92442)"/><circle cx="175" cy="44" r="29" fill="#6c685e" fill-opacity=".5"/><circle r="1" fill="#1e2820" fill-opacity=".5" transform="matrix(-112.78334 31.27891 -6.30464 -22.73284 255 137.3)"/><ellipse cx="85" cy="37" fill="#d2e6f7" fill-opacity=".5" rx="31" ry="14"/><circle r="1" fill="#e1eaf7" fill-opacity=".5" transform="matrix(4.36292 23.025 -43.90054 8.31855 28.2 63)"/><path fill="#666662" fill-opacity=".5" d="M64 107l32-61 2 50z"/><path fill="#414944" fill-opacity=".5" d="M96 71l175 6-82 65z"/><circle r="1" fill="#283133" fill-opacity=".5" transform="rotate(154.9 -3.3 80.6) scale(15.25789 8.67533)"/><path fill="#605b55" fill-opacity=".5" d="M90 58l60-31 8 56z"/><ellipse cx="175" cy="2" fill="#b5d0e9" fill-opacity=".5" rx="39" ry="13"/><path fill="#5d5a40" fill-opacity=".5" d="M153 175l-15-40-23 7z"/><path fill="#1d261d" fill-opacity=".5" d="M20.5 130.6l3.6 10.4-24.6 8.4-3.6-10.4z"/><path fill="#424749" fill-opacity=".5" d="M210 7h15v85h-15z"/><path fill="#5b5f5c" fill-opacity=".5" d="M235.3 75.8l25.2-27.6-66.1 14.4 12.3 31.1z"/><ellipse cx="226" cy="1" fill="#a7c4e3" fill-opacity=".5" rx="33" ry="4"/><path fill="#9dabb5" fill-opacity=".5" d="M60.2 126.1l22.6-9.2 24.4 25.8-30.9-14.3z"/><path fill="#2b483a" fill-opacity=".5" d="M65.6 185H5.1l96.6-36.9 18.1 4.2z"/><circle r="1" fill="#bfd0e2" fill-opacity=".5" transform="matrix(-3.33905 31.868 -62.81622 -6.58173 102.8 0)"/><ellipse cx="8" cy="83" fill="#e5eff8" fill-opacity=".5" rx="13" ry="23"/><path fill="#959ea5" fill-opacity=".5" d="M56.5 159.6l.7-26.5-36.2 9.8 15.5 4.2z"/><path fill="#363d35" fill-opacity=".5" d="M234 22h22v65h-22z"/><path fill="#605d4f" fill-opacity=".5" d="M-16 122.8l21.8-17.1 30.8 7 4.6 10.9z"/><path fill="#5d676c" fill-opacity=".5" d="M177 17l62-14-51 30z"/><path fill="#8b949c" fill-opacity=".5" d="M205 118h16v4h-16z"/><path fill="#6c7478" fill-opacity=".5" d="M184 120l-10-4 29-10z"/><path fill="#585f66" fill-opacity=".5" d="M271 93l-44 10 8-15z"/><circle r="1" fill="#65605b" fill-opacity=".5" transform="matrix(-13.66632 14.2511 -11.18886 -10.72973 130.3 49.4)"/><path fill="#313932" fill-opacity=".5" d="M174 71.9l-3.1 8.6 38.2 36.4 31-6.4z"/><path fill="#3f4c4d" fill-opacity=".5" d="M86 135l-3.7 21.9-1.9-12.9 12.7 14.5z"/><path fill="#edcca9" fill-opacity=".5" d="M66 130l-1-6-17 5z"/><path fill="#d2e6f7" fill-opacity=".5" d="M123 31l-19-12-41 48z"/><path fill="#dbbf9a" fill-opacity=".5" d="M19 146l-10 7v-8z"/><path fill="#616163" fill-opacity=".5" d="M61.8 148.6l5.7-21.5-23.5 6 19.3 1.3z"/><path fill="#827764" fill-opacity=".5" d="M173.9 47.7l13 11-14.8 17.6-13-11z"/><path fill="#2d382e" fill-opacity=".5" d="M105.3 119.7l-10.1 16.2 16.3-4.5 10.2-2.2z"/><ellipse cx="95" cy="70" fill="#444c4b" fill-opacity=".5" rx="5" ry="22"/><path fill="#8f6d55" fill-opacity=".5" d="M31.4 136.1l5.3 3.1 23.4-15.8-21.2 8.2z"/><circle r="1" fill="#676256" fill-opacity=".5" transform="rotate(-122.3 49.6 31.7) scale(8.80689 24.87281)"/><path fill="#83786c" fill-opacity=".5" d="M108.9 67.3l8.3 8 44.7-48.8-9.4 22.5z"/><circle cx="83" cy="70" r="12" fill="#706861" fill-opacity=".5"/><ellipse cx="173" cy="156" fill="#161c1a" fill-opacity=".5" rx="21" ry="14"/><path fill="#5a6362" fill-opacity=".5" d="M266.2 46l3.8 15.5-26.2 6.5-3.8-15.5z"/><path fill="#a6c3df" fill-opacity=".5" d="M229.1-13l3 .3-3.2 25.8-3-.4z"/><path fill="#6c6f64" fill-opacity=".5" d="M174.8 128.5l19.3-.1 1.4-.7-24.8 10z"/><path fill="#3d4735" fill-opacity=".5" d="M214 164l27-7-60-18z"/><path fill="#232d22" fill-opacity=".5" d="M243.9 78.8l-26.5 13.7L271 78.1l-23.7-14.5z"/><path fill="#74706b" fill-opacity=".5" d="M207.9 76.2l1.7-19.4-11.7 8.5.8 19z"/><path fill="#4f4f49" fill-opacity=".5" d="M172 18l8 25-54 46z"/><circle r="1" fill="#b9cce1" fill-opacity=".5" transform="matrix(1.08435 -13.27421 111.98144 9.14759 94.5 0)"/><path fill="#2a2b2c" fill-opacity=".5" d="M22 185l-38-37 23-6z"/><path fill="#52504e" fill-opacity=".5" d="M143.8 38.1L141 61l-24.8-3 2.8-23z"/><path fill="#a8b3bb" fill-opacity=".5" d="M46.7 136.7l2.5 17.8-6 .8-2.4-17.8z"/><path fill="#4e5353" fill-opacity=".5" d="M233.7 3.2l8.8 4.7-12.2 23-8.8-4.8z"/><path fill="#3f4033" fill-opacity=".5" d="M163.1 72.3l39.8 2.4-13.8 2.7-47.2 19.9z"/><path fill="#d9e6f0" fill-opacity=".5" d="M2 14l-18 133 43-98z"/><path fill="#2d3235" fill-opacity=".5" d="M260.2 25l-47.6 17.5 7.5-24.3 12.3 29.7z"/><circle r="1" fill="#44484a" fill-opacity=".5" transform="rotate(-158.9 52.2 77.7) scale(40.49636 5.58093)"/><path fill="#636460" fill-opacity=".5" d="M105.1 112.5l-1.8-13.7-13.4-16.1 28.1 2z"/><path fill="#232d27" fill-opacity=".5" d="M75 154h63v16H75z"/><path fill="#394144" fill-opacity=".5" d="M65.5 148.8l-1.8.8-3.2-8.4 1.8-.8z"/><path fill="#eaf4fa" fill-opacity=".5" d="M30 87l-19 17-27-17z"/><path fill="#867738" fill-opacity=".5" d="M136 135l-7 17 7 1z"/><path fill="#4b5050" fill-opacity=".5" d="M211.5 22.5l25.7 2.9-14.3-20.5-14.5 4.7z"/><path fill="#53564a" fill-opacity=".5" d="M-2 114.4l7.8-12.5 5.8 32.7-27.6 26.2z"/><path fill="#2a2e31" fill-opacity=".5" d="M28.9 150.3l14.7-2.7-2.3 33.6L2 179.4z"/><path fill="#e0eaf4" fill-opacity=".5" d="M90 52L6 103l-8-43z"/><path fill="#323c48" fill-opacity=".5" d="M79.9 132.1l.5-.8 7.7 4.6-.5.8z"/><path fill="#91a0ab" fill-opacity=".5" d="M68 145l13 8-7-29z"/><circle cx="172" cy="87" r="3" fill="#a08665" fill-opacity=".5"/><circle r="1" fill="#e0e8f2" fill-opacity=".5" transform="rotate(97.3 -4.3 59.7) scale(4.53197 9.60533)"/><path fill="#bcd3e2" fill-opacity=".5" d="M116 146h2v4h-2z"/><path fill="none" stroke="#4d4f48" stroke-opacity=".5" stroke-width=".5" d="M16.5 100.1Q125.5 36 139.3 170"/><path fill="#343c37" fill-opacity=".5" d="M192.3 123.9l-52 12.8-.8-21.5 70.5 3z"/><ellipse cx="47" cy="18" fill="#c7d7e8" fill-opacity=".5" rx="112" ry="14"/><path fill="#242e27" fill-opacity=".5" d="M220 105h36v52h-36z"/><path fill="#20292a" fill-opacity=".5" d="M248.8 9.5l11.8 5.3L271 2.5l-18.5.1z"/><path fill="#9aa7b5" fill-opacity=".5" d="M91 132l23 9-22 2z"/><path fill="#676b67" fill-opacity=".5" d="M186 14h9v44h-9z"/><path fill="#8f7e69" fill-opacity=".5" d="M149.1 44.1l-3.8-.2-5.7 12 6.9 5.4z"/><path fill="#3b4243" fill-opacity=".5" d="M236.8 3.2l-37.3 56.7 33 .7-37-17z"/><path fill="#6e6859" fill-opacity=".5" d="M157.1 53.8L152 85.2l11-9.7 23.1-28.2z"/><path fill="#2e373a" fill-opacity=".5" d="M107 49h3v29h-3z"/><path fill="#87929d" fill-opacity=".5" d="M162 107l4 2-3 4z"/><path fill="#373d38" fill-opacity=".5" d="M119 87.7l-7.2 1 1.5-8.6 31.7-8.3z"/><path fill="#d1dfed" fill-opacity=".5" d="M1 27h107v21H1z"/></g></g></svg>