<svg xmlns="http://www.w3.org/2000/svg" viewBox="0 0 1800 1200"><defs/><filter id="a"><feGaussianBlur stdDeviation="12"/></filter><rect width="100%" height="100%" fill="#46494e"/><g filter="url(#a)"><g fill-opacity=".5" transform="translate(3.5 3.5) scale(7.03125)"><circle r="1" fill="#f3f2ee" transform="rotate(106.1 55.4 58.2) scale(147.32481 126.82598)"/><circle cx="120" cy="8" r="68" fill="#fffffd"/><circle r="1" fill="#565b5f" transform="matrix(-24.46214 -45.14916 77.84836 -42.1788 218.5 107.6)"/><circle r="1" fill="#606365" transform="matrix(-32.62861 31.6606 -59.8986 -61.73 43.6 129.9)"/><circle r="1" fill="#bfc0b7" transform="matrix(-40.1065 4.41687 -2.02666 -18.40272 124.5 169)"/><circle r="1" fill="#fff" transform="rotate(-17.5 204.7 -388.5) scale(22.98988 24.2744)"/><path fill="#bcbdbc" d="M3 29l127 64L54-15z"/><path fill="#606468" d="M286 85.8l-115.1 89.8-30.8-39.4 115-89.8z"/><circle r="1" fill="#636568" transform="rotate(-48.4 169.3 19.2) scale(28.51654 82.12711)"/><circle r="1" fill="#afafae" transform="rotate(29.5 20.6 377.4) scale(27.53397 59.01985)"/><circle r="1" fill="#828489" transform="matrix(10.62698 18.63108 -129.605 73.9254 255.2 40)"/><path fill="#d2d5d2" d="M126.1 181.4l-15.6-33.6 15.4-7.2 15.6 33.6z"/><circle r="1" fill="#86878c" transform="matrix(-5.64182 17.78527 -65.90396 -20.90597 30.6 81.2)"/><circle r="1" fill="#636669" transform="rotate(46.8 -34.2 294.3) scale(13.88657 87.15698)"/><circle r="1" fill="#c4c3c1" transform="matrix(-26.35843 -9.07594 9.24234 -26.8417 191 6)"/><circle r="1" fill="#c0c1c0" transform="matrix(-28.07551 24.66494 -14.68685 -16.71769 61 16)"/><path fill="#acaeab" d="M52.5 55.6l8-15 75 39.8-8 15z"/><circle r="1" fill="#636668" transform="matrix(-12.84885 13.39866 -41.77042 -40.05639 44 131)"/><circle r="1" fill="#787d83" transform="matrix(12.56996 1.21035 -4.38068 45.49505 248.1 40.4)"/><ellipse cx="127" cy="46" fill="#fff" rx="14" ry="16"/><circle cx="121" cy="121" r="9" fill="#cbcfc8"/><path fill="#7c7e7d" d="M162.3 136.2l-48.2 12.6 2.6 5.9 28.6-51.1z"/><circle r="1" fill="#bdbeb9" transform="matrix(-2.6462 -7.35011 28.90156 -10.4052 128.5 79)"/><circle r="1" fill="#373a3d" transform="matrix(-16.30226 -13.42627 25.41275 -30.85632 255 153.7)"/><path fill="#e5e1dd" d="M104 3.4l-3.9 28 53.8 5.4 5.3-23.6z"/><path fill="#5c5f60" d="M127 158h22v3h-22z"/><path fill="#8f908c" d="M82 83l12 90 27-3z"/><path fill="#a7a8a6" d="M229 31l-61-3-18 60z"/><path fill="#747679" d="M152 125l-40-20 132-25z"/><ellipse cx="130" cy="169" fill="#b7b8b2" rx="19" ry="6"/><path fill="#f1f3ef" d="M114 152h29v3h-29z"/><path fill="#98999c" d="M0 60h95v13H0z"/><circle r="1" fill="#5b5e5e" transform="matrix(-25.53765 32.36133 -14.20925 -11.2131 193.2 144.6)"/><circle r="1" fill="#a7aaaf" transform="rotate(-94.2 21.3 -19.8) scale(13.12346 48.2196)"/><path fill="#74767b" d="M-3.3 65.2l73.6 35.2-3.7 16.2-82.6-14z"/><circle r="1" fill="#929397" transform="matrix(8.45654 6.26724 -56.45013 76.16949 255 1.4)"/><path fill="#787a76" d="M180.1 158.2L167.3 185l-17.5-42.6-50.6-6.5z"/><path fill="#a6a6a0" d="M136 153.9l2.9-9.6L158 150l-2.9 9.6z"/><path fill="#dedcd7" d="M125 69L99 23 87 46z"/><circle r="1" fill="#a7aaab" transform="rotate(31.4 -65.2 71.8) scale(35.74889 8.61156)"/><path fill="#5c5f60" d="M84.2 161.5l-91.2 1 34.1-46.1L59.8 133z"/><circle r="1" fill="#8a8b8c" transform="matrix(3.32929 9.54118 -30.92904 10.79234 142.4 100)"/><path fill="#8a8a86" d="M98 160.3l25.5 2.9L98.8 185l-19.9-19.5z"/><path fill="#cdcfcc" d="M113 143h15v7h-15z"/><ellipse cx="129" cy="45" fill="#fff" rx="9" ry="17"/><path fill="#a6a7a3" d="M106 82h11v76h-11z"/><path fill="#cbcbc9" d="M44 18h43v22H44z"/><circle r="1" fill="#656a72" transform="matrix(11.586 10.42198 -22.2496 24.73464 247 77.1)"/><path fill="#dadddb" d="M116 123h21v2h-21z"/><circle r="1" fill="#747675" transform="matrix(8.09443 -3.75197 11.00587 23.74384 83.6 139.8)"/><path fill="#666969" d="M183 147l2-42-51 39z"/><ellipse cx="113" cy="159" fill="#6b6e6d" rx="36" ry="1"/><circle r="1" fill="#d6d8d4" transform="matrix(14.24032 -5.12683 .93547 2.59836 128.2 155.7)"/><ellipse cx="4" cy="8" fill="#969a9f" rx="13" ry="25"/><circle r="1" fill="#8b8c8f" transform="matrix(-22.44206 -23.89836 8.52982 -8.01004 72.2 90.6)"/><circle r="1" fill="#4b4e53" transform="matrix(5.51677 10.68855 -28.94435 14.9393 235 132.1)"/><circle r="1" fill="#adaeae" transform="matrix(-47.4611 44.72762 -4.61706 -4.89922 208.3 21)"/><path fill="#7f8281" d="M159 131l-56 7 28 6z"/><path fill="#eef5f6" d="M113 160h20v1h-20z"/><path fill="#cacbc8" d="M153 70.9l-30.8-7.6L84 45.9l32.3 36z"/><path fill="#f1f6f6" d="M118 169h11v1h-11z"/><path fill="#84878a" d="M265-16l-47 78 53-34z"/><path fill="#929292" d="M125.9 112.8l-36-.6.2-11 36 .6z"/><path fill="#bebfbb" d="M153 41l43-20 12-37z"/><path fill="#d4d1cc" d="M144.1 43.8L167.5-16l2 37-30 56.1z"/><path fill="#adaeac" d="M100.8 103.2l33.1-17.9-77.4-43 33.3 30.8z"/><path fill="#abaeaa" d="M126.4 128.2l8.7.2-8.5 13.5L103 108z"/><ellipse cx="144" cy="136" fill="#868885" rx="33" ry="2"/><path fill="#999b9b" d="M182 44l36 1-56 42z"/><path fill="#5d6060" d="M186.4 172.7l-32.9-33.4 74 10.1-71 20.7z"/><path fill="#505253" d="M4 160h58v7H4z"/><path fill="#73777c" d="M243 77l-43 18 69-82z"/><path fill="#6e706f" d="M172.8 140.8l-38 8.9 45.1 1.4-41.4 33.9z"/><path fill="#898986" d="M118 164h44v1h-44z"/><circle r="1" fill="#bebdbd" transform="matrix(3.07915 6.88352 -28.17298 12.60238 58 14)"/><path fill="#b8b8b8" d="M24.8 13.7l5.1-4.3 64.6 54-70-31.1z"/><path fill="#959692" d="M89.8 118.7l12.7 28 3 2.9 7.2-25.5z"/><ellipse cx="51" cy="144" fill="#6e6f70" rx="27" ry="3"/><path fill="#8d8f8b" d="M88 142l16 9 20-1z"/><path fill="#88898d" d="M31 79l-46-53-1 45z"/><path fill="#6d6f71" d="M151 109h20v26h-20z"/><path fill="#474a4c" d="M244 157l-56 26 61-59z"/><path fill="#b7b8b5" d="M168.8 60.2l-38 12.6-24.4 13.7 50.8-11.6z"/><path fill="#32363a" d="M242.1 165.9l-30.3 12.4 45.6-8.5 13.6-36.1z"/><path fill="#aaaca9" d="M124 157l20 12-7-9z"/><path fill="#808283" d="M136.9 134l15.5-39.5-32.1 18.2 38 11.6z"/><path fill="#818380" d="M125.3 185l-39.1-45.9-10.4 11.6 24.1.4z"/><circle r="1" fill="#cbcecc" transform="matrix(7.564 .5953 -.17964 2.28258 125.4 147)"/><circle r="1" fill="#535658" transform="rotate(91.2 -71.3 72.8) scale(20.83138 21.49547)"/><path fill="#686965" d="M143 161h23v2h-23z"/><path fill="#64676b" d="M19 99l54 41-89-35z"/><path fill="#a1a4a0" d="M149.5 123l-16.8 3-.2-1 16.8-3z"/><path fill="#d1cfce" d="M123-16L64 28l28 15z"/><path fill="#a4a5a3" d="M172.1 70.2l-70 34.1-2.2-4.5 70-34.1z"/><path fill="#e0e0dc" d="M146.3 66.6l-2-.2 4-12.8-20 16.2z"/><path fill="#d2d4d1" d="M117 127h8v3h-8z"/><circle r="1" fill="#5a5e64" transform="matrix(-3.99147 -5.89538 40.52026 -27.43428 226.5 110)"/><circle r="1" fill="#b4b4b2" transform="matrix(-27.05608 16.75124 -4.23343 -6.8377 187 28.7)"/><path fill="#9a9c9c" d="M98 110L69 71l21-6z"/><path fill="#63666a" d="M271 64l-104.2 88.2-15.4-5.3 50.6-37.4z"/></g></g></svg>