<svg xmlns="http://www.w3.org/2000/svg" viewBox="0 0 1800 1800"><defs/><filter id="a"><feGaussianBlur stdDeviation="12"/></filter><rect width="100%" height="100%" fill="#2c4760"/><g filter="url(#a)"><g fill-opacity=".5" transform="translate(3.5 3.5) scale(7.03125)"><circle cx="175" cy="12" r="203" fill="#8ba9bc"/><circle r="1" fill="#ffe2b6" transform="rotate(123.8 13 92.8) scale(12.02676 53.11605)"/><circle r="1" fill="#062b3d" transform="matrix(33.30909 -6.11336 3.3297 18.14215 205.5 137)"/><circle r="1" fill="#34576b" transform="rotate(-70.5 162.3 36.2) scale(33.34814 145.07442)"/><path fill="#7297b7" d="M20.4-76.5l142.9 54.8-47.7 124.2-142.9-54.8z"/><circle r="1" fill="#97bcda" transform="matrix(105.33084 14.42853 -1.10423 8.0611 202.8 8.2)"/><circle r="1" fill="#6c6054" transform="matrix(20.79307 -9.00001 17.6018 40.6661 155.6 147.1)"/><circle r="1" fill="#062c38" transform="matrix(-3.46808 -29.20555 112.6333 -13.37488 175.6 255)"/><path fill="#779bb7" d="M-9.2 237.2l55.4 5L12.1 271l-26.7-38.7z"/><circle r="1" fill="#ffeedb" transform="matrix(1.5073 -3.784 35.29632 14.0597 69 119.2)"/><circle r="1" fill="#5f83a1" transform="matrix(2.46905 -7.2752 56.991 19.3416 44.1 183)"/><path fill="#03273a" d="M56 136l46 35-86-31z"/><path fill="#3d688b" d="M74 32l153-19 44 87z"/><ellipse cx="195" cy="169" fill="#f3dfc7" rx="22" ry="4"/><circle r="1" fill="#335266" transform="matrix(-31.90248 21.5185 -8.07253 -11.96801 238.9 175)"/><circle r="1" fill="#ad9b83" transform="rotate(-167.8 64.5 71.9) scale(42.04992 9.14218)"/><ellipse cx="162" cy="117" fill="#1a4c6e" rx="30" ry="11"/><path fill="#91b2ce" d="M189.1 32.2l44.8 2.7-103.8-13.4 69.4 22.6z"/><path fill="#274f6e" d="M135 20l39-8L89 1z"/><path fill="#4e7691" d="M80 236l-84-44-5 25z"/><circle r="1" fill="#234d6f" transform="rotate(-175.6 9 45.4) scale(43.11718 10.04896)"/><path fill="#94b1cb" d="M-3-8l110 20-50 11z"/><circle r="1" fill="#9bbed8" transform="matrix(-33.38426 -9.3839 .72388 -2.57529 157 85.8)"/><path fill="#173546" d="M158 172h24v17h-24z"/><path fill="#8c8c90" d="M147 116l-51 9-49-35z"/><path fill="#345774" d="M157.7 74.9l-23.4-11.7L46.1 68 10 43.6z"/><circle r="1" fill="#7f9bb0" transform="rotate(129.4 75 148.1) scale(4.04575 40.91245)"/><path fill="#8eacc6" d="M182.1 62.9l-99.9-4.2-44.8-19.1 124.9 17.9z"/><path fill="#e6dcc8" d="M132.4 164.3l-35.3-18.8L60.6 119l-14.8-18.2z"/><path fill="#17425b" d="M191 126h65v15h-65z"/><path fill="#c8ad91" d="M169 127l-1 20-26-13z"/><circle r="1" fill="#183d55" transform="rotate(4.4 -203.6 2652) scale(30.71839 4.02866)"/><path fill="#5c85a5" d="M184 67l-19 41 73 30z"/><path fill="#173e57" d="M167 64h45v9h-45z"/><path fill="#12394b" d="M27 198l28 30 81-21z"/><path fill="#5b4e4a" d="M147 136l-31-24 2 26z"/><path fill="#bac1c5" d="M21 117l17 6 34-22z"/><path fill="#ab9370" d="M43.8 100.6l6.9 9.9 35.7 30.6-14.3 2.4z"/><path fill="#223d4d" d="M135 173l-65-20 33 21z"/><path fill="#1a4767" d="M224.7 102.2l36 8.5-3.5-9.6-64.9-8.8z"/><path fill="#567c9d" d="M124 222.1l-.4 4L64 220l.4-4z"/><path fill="#b2c9d8" d="M62 0h101v3H62z"/><path fill="#244153" d="M69.9 36l.6-4.9 55.6 6.8-.6 5z"/><circle r="1" fill="#365a76" transform="rotate(1.3 -4044.6 6488.3) scale(37.67648 4.69243)"/><path fill="#779ab7" d="M269.9 68.9l-63.4-15.4-13.2 7.2-8.5 2.5z"/><path fill="#113a55" d="M220 184l31 12-22 5z"/><path fill="#9c9086" d="M123 155l-39-52 90 68z"/><circle r="1" fill="#0f313e" transform="matrix(8.62154 9.38095 -11.11458 10.21484 193 137.6)"/><path fill="#325671" d="M65.5 18.8l21.4 5.1 105.7 20.8-85.7-24.4z"/><path fill="#9dbcd5" d="M140.9 22.9l1.3-3.5-51.6-5.5 30.5 10.5z"/><path fill="#375d7e" d="M-16 27.3L2.4 9.7l62.4 4.5L-16-.8z"/><path fill="#d7e6f0" d="M-34.2-5l68.7 6-.3 4-68.7-6z"/><path fill="#2e4c5f" d="M61.2 124.5l3.8 40.8 15.9-16.8-50-26.9z"/><path fill="#112e3e" d="M233 169.5l2-8.7 42 9.7-2 8.7z"/><path fill="#c9baaa" d="M194.2 171.9l-26-5.5 19 9-13.2-32.8z"/><path fill="#547692" d="M129 181h33v37h-33z"/><path fill="#67675c" d="M101.1 158.7l22.7 9.1-15.4-16.2-40.5-21.7z"/><path fill="#295372" d="M186.9 83l15.6-3 33.1-1.9 35.4 19z"/><path fill="#406485" d="M16.3 26.9l51.2 2.3-29.4 9.7 41 14z"/><path fill="#214760" d="M-2 202l90-3-62-21z"/><circle r="1" fill="#6b92b2" transform="rotate(109.9 85.2 149.8) scale(7.9993 63.18217)"/><path fill="#7c96a9" d="M6 253h43v3H6z"/><ellipse cx="15" cy="153" fill="#5c86ab" rx="36" ry="3"/><path fill="#93b1cb" d="M98.6 63.9l64.2 26.5 19 1.5-62.5-23.2z"/><path fill="#7999b4" d="M107.2 116.1l73.4 7.1-89-15.3 31.2-2.3z"/><path fill="#a0c4df" d="M205 92h41v3h-41z"/><path fill="#62829e" d="M40.1 169.8l44.7 26-41.4-11.6-59.4-13.4z"/><path fill="#6a86a0" d="M91.7 192.6l-1.2 7.1-10.7 4.3 50.5 2z"/><circle r="1" fill="#bebcb4" transform="matrix(-.20587 -.97858 31.7641 -6.68243 201.6 165.4)"/><circle r="1" fill="#9cb6cd" transform="matrix(24.3733 6.34877 -.57452 2.20561 41.6 69.1)"/><path fill="#5d84a5" d="M238 233h18v4h-18z"/><ellipse cx="7" cy="208" fill="#86a4bb" rx="23" ry="2"/><path fill="#103c50" d="M198 208h58v10h-58z"/><path fill="#8fb3c9" d="M224 148h32v5h-32z"/><path fill="#32546b" d="M161 100l-9 30 53-13z"/><path fill="#0f3449" d="M72.2 178.4l-43.6-21.1-22.4-5.7 53.9 25.7z"/><path fill="#517895" d="M50.7 245.3l38.5-6.6-59.1 20.6 14.7 2.5z"/><path fill="#0f3445" d="M36.2 217.3l-48.8 6.5 34.8 10.6L7 210.1z"/><ellipse cx="10" cy="115" fill="#6a94b9" rx="32" ry="4"/><path fill="#1e4259" d="M48.1 138.1l47 38.4L-16 111.6l39.8 15.8z"/><path fill="#b3cadd" d="M11.9 41.7l100.4 17.7-.2 1L11.7 42.5z"/><path fill="#213845" d="M127 170l30-1 13 11z"/><path fill="#67869f" d="M37.5 224.5l42.8 10.4H65.8l-49.1-11.8z"/><ellipse cx="247" fill="#07375a" rx="20" ry="3"/><circle r="1" fill="#3f6178" transform="matrix(1.28043 8.99679 -51.16274 7.28154 187.7 193.7)"/><path fill="#072b37" d="M15 232h44v7H15z"/><circle r="1" fill="#92b0cc" transform="matrix(.24746 -2.5412 66.12967 6.43956 0 14.1)"/><ellipse cx="149" cy="105" fill="#7ba5c7" rx="13" ry="3"/><path fill="#8db0ce" d="M215 132h41v2h-41z"/><ellipse cx="154" cy="231" fill="#15394b" rx="74" ry="8"/><path fill="#6f6156" d="M188.4 118l-24.2 23.9-33 8.5 37.2 13.8z"/><path fill="#235175" d="M237.8 27.7l33.2 7.8-33.8 2.8L271 77.8z"/><path fill="#0a2e3d" d="M148 129l-12-11 36 7z"/><path fill="#6a7377" d="M194.7 169.1l46.7 1.5-19.1-8.4-15.2 18.5z"/><path fill="#275076" d="M215.9 11.5l-78-18 .2-1 78 18z"/><ellipse cx="207" cy="30" fill="#6c93b5" rx="26" ry="4"/><circle r="1" fill="#41617a" transform="matrix(133.10997 17.68991 -.17848 1.34296 115.5 95.5)"/><circle r="1" fill="#6286a4" transform="rotate(-83.4 164 -48.9) scale(1 98.24761)"/><path fill="#a3bed5" d="M94.9 27.9l-.7 3-41-8.8.6-3z"/><path fill="#88a8c5" d="M117 42l-57-5 38 14z"/></g></g></svg>