<svg xmlns="http://www.w3.org/2000/svg" viewBox="0 0 1800 1200"><defs/><filter id="a"><feGaussianBlur stdDeviation="12"/></filter><rect width="100%" height="100%" fill="#373e4f"/><g filter="url(#a)"><g fill-opacity=".5" transform="translate(3.5 3.5) scale(7.03125)"><circle r="1" fill="#fddcb0" transform="matrix(-4.19886 89.03653 -254.7169 -12.01214 164.6 71.7)"/><path fill="#5d2700" d="M266 46L62 93l128 92z"/><ellipse cx="141" cy="11" fill="#dae8ef" rx="117" ry="56"/><circle r="1" fill="#fff" transform="matrix(-44.33343 -15.74085 5.4196 -15.26408 28.5 104)"/><ellipse cx="17" cy="45" fill="#1e2d29" rx="30" ry="25"/><ellipse cx="37" fill="#fff" rx="39" ry="18"/><path fill="#74400c" d="M203 66h42v91h-42z"/><path fill="#0b0914" d="M129 101h33v58h-33z"/><path fill="#3f1d00" d="M174 7h12v45h-12z"/><ellipse cx="252" cy="113" fill="#e4fcff" rx="7" ry="45"/><ellipse cx="158" cy="12" fill="#fff" rx="12" ry="57"/><path fill="#302c24" d="M223 1.5l-8.8 17.3-13.6 3.1-1.1-37.9z"/><circle r="1" fill="#faffff" transform="matrix(12.2075 1.2957 -3.28544 30.95413 106 50.9)"/><path fill="#daa168" d="M79 142l-5.5-38.6L127 96l5.5 38.7z"/><ellipse cx="133" cy="50" fill="#766758" rx="14" ry="39"/><path fill="#d5e4ed" d="M218 10l-29 30 62 27z"/><path fill="#7e7c74" d="M10 81L88-6l71-10z"/><path fill="#426a8f" d="M-8.3 120.9l10.2 28.6 54.9.1-16.9-28.1z"/><path fill="#ed9e58" d="M182.1 160.9l13.2-5.7-3.6-30.1-38.6 1.7z"/><path fill="#07150c" d="M32 74h19v14H32z"/><path fill="#fff" d="M10.2 103.1l8.1-23.3L51 123.4l-29.9-4.5z"/><path fill="#675e52" d="M100 180l169-11-155-36z"/><path fill="#fff" d="M45 25L-1 0l67-6z"/><circle r="1" fill="#000500" transform="matrix(42.4209 .63894 -.1347 8.94364 9 158.9)"/><path fill="#e5ebe7" d="M64 28L42 72l16-3z"/><circle r="1" fill="#d97a31" transform="rotate(83.4 49.1 156) scale(6.24374 51.82975)"/><path fill="#182000" d="M101 99h6v31h-6z"/><circle r="1" fill="#4a2912" transform="matrix(105.26914 -19.31555 .81314 4.43161 134.5 85.5)"/><path fill="#f4fbff" d="M108.7 32.3l.2.2L168.2-16 42.5 59.3z"/><path fill="#8cd5ff" d="M11 145l-9-9 37-2z"/><path fill="#c2d4e2" d="M78.6 65.9l57.9-.6-64.7-14.5.3 52.5z"/><path fill="#6c6f69" d="M246 0h10v74h-10z"/><path fill="#433737" d="M9 65h3v52H9z"/><path fill="#bda895" d="M206.3 151.8l-31.8-1.2-17.3 2.1 85.5 12.9z"/><circle r="1" fill="#edf6fc" transform="matrix(32.76974 -8.2312 1.4764 5.8778 194 54)"/><circle r="1" fill="#6f6251" transform="matrix(-4.28635 15.66825 -27.8074 -7.60724 77.5 163)"/><path fill="#dd7a2d" d="M237 77h8v81h-8z"/><path fill="#000307" d="M141 141.9l-11.5 11 9.7-51.2 18.5-2.8z"/><path fill="#5e5134" d="M195 94h41v58h-41z"/><circle r="1" fill="#4e4c49" transform="rotate(55 1 107.5) scale(4.12391 9.47072)"/><ellipse cx="210" cy="122" fill="#ffa34b" rx="2" ry="34"/><path fill="#414443" d="M62 51h10v32H62z"/><path fill="#c0cace" d="M261.5 113.8l-23-49-81.3-77.2 84.5 57.3z"/><ellipse cx="77" cy="122" fill="#141300" rx="2" ry="17"/><path fill="#9f9b8e" d="M26.2 44.3l9.1 37.4L73.8 107l-45-.6z"/><path fill="#816b6a" d="M180.9 97.5l-74.4 84.8 69.3-60.5 20.1-6.3z"/><path fill="#372c25" d="M124 19.5l23-9.8 1 2.8-23 9.8z"/><circle r="1" fill="#060308" transform="matrix(4.47833 5.2994 -8.86952 7.49533 155.6 150.1)"/><path fill="#e3b28c" d="M83.9 112.2l-5.5 32.1 24.8 7.3-3.2-45.9z"/><path fill="#1a1714" d="M6 122h12v11H6z"/><path fill="#fff" d="M-16 101.3l44.5 13.2-.8-28.7-21 1.4z"/><path fill="#502d10" d="M246.8 77.9l-12.7-21-4.2 1.3-83.7 28z"/><path fill="#eff8fe" d="M221.9 6.3l1.9-18.2 17 4.5 8.9 28.5z"/><path fill="#1f160c" d="M73 36l20-13-9 11z"/><path fill="#832c2c" d="M154 99h11v43h-11z"/><ellipse cx="200" cy="121" fill="#fea241" rx="2" ry="35"/><path fill="#4a4e48" d="M0 33h57v15H0z"/><path fill="#dfebf6" d="M95 28h19v53H95z"/><path fill="#4f4b44" d="M160.1-16L122.8 9.8 111 14.3 135.2-16z"/><path fill="#cedbe6" d="M134 20h7v29h-7z"/><circle r="1" fill="#433939" transform="rotate(97.3 -39.3 54.3) scale(49.75257 1.37712)"/><path fill="#57371c" d="M112 133h23v18h-23z"/><path fill="#080e0e" d="M77.4 86.4l-.9-2.9 18-5.9 1 2.9z"/><circle r="1" fill="#787d73" transform="matrix(13.10094 4.97658 -4.25519 11.20186 9.8 18.6)"/><path fill="#b6b5ad" d="M61.1 2.5L48 127.6l20.5-92.7L97.8 22z"/><circle r="1" fill="#f2f6f3" transform="rotate(-107.2 88.2 -17) scale(1.71078 12.24083)"/><circle r="1" fill="#e8f5ff" transform="rotate(75.6 -23.2 87.5) scale(3.35684 7.42522)"/><circle r="1" fill="#cfdbe0" transform="matrix(-.25207 -.9677 86.5947 -22.55623 146.6 69.9)"/><path fill="#f6fdff" d="M166-11l-28 6 27 48z"/><ellipse cx="195" cy="123" fill="#1e2213" rx="3" ry="30"/><path fill="#69635b" d="M98.4 27.2L77.9 39.4l13.3-15.3L77.4-16z"/><path fill="#292f2f" d="M134 71l12-9-34 8z"/><ellipse cx="121" cy="117" fill="#e5a775" rx="7" ry="19"/><ellipse cx="107" cy="98" fill="#be6d3b" rx="33" ry="5"/><path fill="#fff" d="M41 23L67 0l-83-6z"/><path fill="#000014" d="M204 94h4v54h-4z"/><path fill="#3e3f34" d="M10.5 80.9l-24-4.3 21.2-70-9 80.9z"/><ellipse cx="120" cy="54" fill="#7f6b5a" rx="6" ry="10"/><path fill="#424339" d="M30 70h7v22h-7z"/><path fill="#e5ded2" d="M69.9 124.6l-57.9-4 62-20.3.9 33.7z"/><circle r="1" fill="#76614c" transform="rotate(-96.1 198.5 -31.7) scale(7.12447 21.34137)"/><path fill="#ced5e3" d="M246 80h5v76h-5z"/><path fill="#83c9ff" d="M43 135.5v5H15v-5z"/><path fill="#736a69" d="M209.2-7.5l19.4 17.1-.7 4.5 18.3 11.6z"/><path fill="#433121" d="M232 89h5v69h-5z"/><path fill="#49484e" d="M21 135l16-15 9 15z"/><path fill="#d0a140" d="M190 88h4v48h-4z"/><path fill="#f1f3ee" d="M51 54l-14 3 19 4z"/><path fill="#2b2529" d="M33.3 165l19.5-14.9 5.4 16.9-10-31.4z"/><circle r="1" fill="#6b6858" transform="rotate(-105.5 120.5 -41.3) scale(2.72684 27.41266)"/><path fill="#cdd0cb" d="M104 11l42-27L87-4z"/><path fill="#3f3021" d="M102.5 106.8l24.9-20.3-17.9-2.7-.8 44.9z"/><path fill="#d6873f" d="M165 125h26v26h-26z"/><circle r="1" fill="#c3cdd2" transform="rotate(99.7 27.1 77.2) scale(6.40533 17.23941)"/><path fill="#4f463b" d="M232.1-16l-26.8 31.9-6.9-2.6 4.8-18.7z"/><path fill="#b5c0c9" d="M244 68l-20-19 20-22z"/><path fill="#aca99e" d="M102 20l-64 7L62 6z"/><path fill="#7c7368" d="M146 13h2v63h-2z"/><path fill="#edaa78" d="M108 130l4 15-47-5z"/><path fill="#256f99" d="M52 152.8v1l-48 3.4v-1z"/></g></g></svg>