<svg xmlns="http://www.w3.org/2000/svg" viewBox="0 0 4752 3168"><defs/><filter id="a"><feGaussianBlur stdDeviation="12"/></filter><rect width="100%" height="100%" fill="#4f5637"/><g filter="url(#a)"><g fill-opacity=".5" transform="translate(9.3 9.3) scale(18.5625)"><circle r="1" fill="#fff" transform="matrix(-2.29584 -59.76236 194.70155 -7.47968 133.1 12.1)"/><path fill="#b4bfdb" d="M111 118L33-16l238 36z"/><path fill="#93a2c0" d="M-14-16l164 84L28 85z"/><circle r="1" fill="#dedddf" transform="matrix(-111.57885 8.6741 -1.95852 -25.19334 217.3 5.3)"/><circle r="1" fill="#141e18" transform="rotate(80.4 46.8 174.2) scale(21.99757 51.57105)"/><circle r="1" fill="#6a7c8a" transform="matrix(41.90563 10.13804 -4.6814 19.35057 129.5 86.6)"/><circle r="1" fill="#181e0d" transform="rotate(80.3 -46.5 82) scale(13.8802 55.63973)"/><path fill="#706753" d="M271 167l-168-54-119 65z"/><ellipse cx="111" cy="70" fill="#455e66" rx="115" ry="4"/><path fill="#141d04" d="M11.1 59.5l-20.4 4.8 24.5-21.8-27 5.4z"/><path fill="#adb4ba" d="M144 108L94 96l76-5z"/><circle cx="52" cy="21" r="47" fill="#a8b1c2"/><path fill="#b9bbbb" d="M233.9 63.5l11-5.3L271 24.3 88.1 22.6z"/><circle r="1" fill="#7c8995" transform="matrix(-45.10809 -.4252 .04948 -5.24953 27.5 74.8)"/><path fill="#30391b" d="M52 85h47v34H52z"/><path fill="#22291e" d="M120 107h20v19h-20z"/><ellipse cx="99" cy="122" fill="#979aa1" rx="14" ry="5"/><ellipse cx="105" cy="75" fill="#586e7c" rx="77" ry="8"/><path fill="#253131" d="M239 86l32-79-13 123z"/><path fill="#8e989b" d="M147 110l34-34-86 22z"/><circle r="1" fill="#393038" transform="matrix(-.92915 6.8607 -29.742 -4.028 224.6 147.3)"/><ellipse cx="39" cy="128" fill="#8b8690" rx="7" ry="4"/><circle r="1" fill="#d3d6db" transform="rotate(-175.3 113.2 -4.7) scale(65.80951 15.5213)"/><ellipse cx="189" cy="132" fill="#67634e" rx="23" ry="14"/><path fill="#3f4632" d="M-1 58l-15-13 32-2z"/><path fill="#42422e" d="M42.9 138.4l50.2-12.6L13.6 185l57.9-4.9z"/><circle r="1" fill="#2e2c22" transform="matrix(28.08263 2.72494 -1.97678 20.37226 3.2 120.8)"/><path fill="#2a3125" d="M168.1 89l82.1-10.8-73.5 37.9-27.5.6z"/><path fill="#847d57" d="M58 149l58 3-15 14z"/><path fill="#7b7650" d="M159 160h80v10h-80z"/><path fill="#394025" d="M210 145.8l5.4 4.9 14.8-94.1-25.2 15z"/><path fill="#252c19" d="M-16 135.9l89.2-36.3 22.3 25.1 11.1-17.3z"/><path fill="#555630" d="M20.9 75l-.4 37.6 12.8 2.9L49.2 90z"/><path fill="#a2aebb" d="M126.6-16l52.8 27.6-21 6.2-17.3-11.3z"/><path fill="#b5b9ba" d="M240 26L-7 39l126 29z"/><path fill="#838d82" d="M234.6 62.9l-37-10.6 20.1 6.8-50.1 15.7z"/><path fill="#808c93" d="M72 83l-39-8 54-4z"/><ellipse cx="255" cy="131" fill="#555250" rx="47" ry="15"/><circle cx="83" cy="95" r="15" fill="#48522a"/><circle r="1" fill="#8a98b2" transform="matrix(14.60429 14.25237 -8.15938 8.36085 6.2 29.5)"/><circle r="1" fill="#96a5bc" transform="matrix(-30.79584 -.36452 .26962 -22.77865 63.7 0)"/><ellipse cx="9" cy="65" fill="#4b5545" rx="15" ry="4"/><path fill="#818f9b" d="M42 65l11 25-29-24z"/><path fill="#445035" d="M191.7 70.2l-12.8 6.9-22.1 29.3 21.9 5.9z"/><path fill="#696d5a" d="M139.4 141.6l-21.5-12.7-29.5-38.2 25.2 18.8z"/><path fill="#c1c1c4" d="M34 5L10 4l31 37z"/><path fill="#9d9c9b" d="M101.3 125.6l-36.6 1 49.8-5-7.6-6.8z"/><path fill="#1d211a" d="M199 108l30-26-46-3z"/><path fill="#929cad" d="M-13.5 88.8l24.2-25.3L26-7 3.3 77.3z"/><path fill="#474a31" d="M197.1 141.7l-1.2 21.8-7.7-3.7-29.9-3.2z"/><path fill="#788592" d="M8.2 91.5l7.5 6.5-3.9 4.5L4.3 96z"/><ellipse cx="125" cy="109" fill="#3c481a" rx="7" ry="4"/><path fill="#465227" d="M196 61.1l6.5 6.5-17.8 14.2 49.7-4.3z"/><path fill="#a8aeae" d="M250.1 32.7l-54.9 39.9L170 67l-104.2.8z"/><path fill="#4b6070" d="M75 71h79v5H75z"/><ellipse cx="131" cy="143" fill="#4a4c3a" rx="33" ry="5"/><path fill="#abafb6" d="M219 42l15 20 37-27z"/><path fill="#121813" d="M63.3 117.8l-28.6-13.7 9.8 11.4L38 123z"/><path fill="#464f29" d="M42.8 80.7l58.2 16 4.5-2-9.2-5.5z"/><path fill="#d6d7d5" d="M140.7 10.7l-11.7 15-23.7-18.4 11.7-15z"/><path fill="#424b27" d="M5.7 97.6l88.4 10.5 20.7 2.6-44-18.1z"/><circle r="1" fill="#605b3f" transform="matrix(-1.8387 -9.96599 30.17776 -5.5677 30.5 156.5)"/><path fill="#5c5a43" d="M200.1 159.2l-27.2-12.7 52.7 1.2.8 21.8z"/><path fill="#323d31" d="M250 51h6v59h-6z"/><path fill="#979fa3" d="M133 102l14 8 27-32z"/><path fill="#8e989e" d="M127 84l-11 32-15-29z"/><path fill="#434e5b" d="M145 83h12v3h-12z"/><path fill="#5c6d22" d="M207 100h11v7h-11z"/><path fill="#5a5741" d="M112.7 118.5l-25.8 38.3 31.9-12.5-1.5-28.2z"/><path fill="#15171d" d="M230 146h12v7h-12z"/><circle r="1" fill="#364129" transform="rotate(99.7 40.5 130.6) scale(6.12942 27.78071)"/><circle r="1" fill="#9ca6be" transform="matrix(17.11527 7.76383 -.73455 1.6193 16.2 58.9)"/><path fill="#919ea7" d="M50 79l-24 5 10-7z"/><ellipse cx="64" cy="127" fill="#787572" rx="12" ry="2"/><path fill="#1c2319" d="M85 119l-27-12 39 1z"/><path fill="#4a492c" d="M38 137L11.4 94.3.3 86.4l16.5-13.3z"/><circle r="1" fill="#cbccc8" transform="matrix(22.70224 3.06946 -2.05167 15.17448 219 20.7)"/><path fill="#4a5634" d="M248 80.6l.3-21-37 30.3 7.2-30.9z"/><path fill="#222720" d="M206.5 125.5l32.3-19.3 32.2 6.5-37.8-18.6z"/><path fill="#515447" d="M233 106.3l38 11.1v44.3l-21.6.1z"/><path fill="#5f6a4b" d="M242 55h5v10h-5z"/><path fill="#2d3302" d="M0 64l5-8-13-3z"/><path fill="#484f36" d="M91.1 93.8L78.6 101l-23.7-8L46 78.9z"/><path fill="#484531" d="M-16 162.2l46.9-20.9-27.2-8.5-2-21.3z"/><path fill="#78754e" d="M91 153h42v13H91z"/><path fill="#1c161c" d="M223 147l-10-8-8 6z"/><path fill="#66644e" d="M174.6 138.1l-19.9-10.2 34.8-1.8 48.2 11.7z"/><ellipse cx="69" cy="138" fill="#39392c" rx="25" ry="3"/><path fill="#b7b8ba" d="M108.7 123.8l-1.6 1.3-5.8-6.9 1.6-1.3z"/><path fill="#596e79" d="M28 68h93v7H28z"/><path fill="#38421f" d="M67.7 96.8l-38.4 1.9 81.5 13.8-4.7 5.6z"/><path fill="#ccd1da" d="M49.5 91.7l-1-2.8 2-.6 1 2.8z"/><path fill="#586737" d="M230 85l-13 8 19-3z"/><path fill="#1f2621" d="M118 107l11 14 6-4z"/><path fill="#a0a7b4" d="M27.4 46.1l9.9-39.4L5.9 62.1l-.6 5.1z"/><path fill="#72797f" d="M169.7 108.5l-.8-.6 5.4-8.4.8.6z"/><circle r="1" fill="#a0aab6" transform="matrix(32.9328 -5.25938 .94616 5.9246 57 60.1)"/><path fill="#43482e" d="M0 45h14v6H0z"/><path fill="#858e94" d="M155.5 91.6l-48.3 8.4 52.2-15.5 14.8 13.3z"/><path fill="#6d7e7f" d="M136 67h61v5h-61z"/></g></g></svg>