<svg xmlns="http://www.w3.org/2000/svg" viewBox="0 0 1800 1200"><defs/><filter id="prefix__a"><feGaussianBlur stdDeviation="12"/></filter><rect width="100%" height="100%" fill="#324644"/><g filter="url(#prefix__a)"><g transform="translate(3.5 3.5) scale(7.03125)"><circle r="1" fill="#fff" fill-opacity=".5" transform="matrix(-187.1558 -12.8971 5.42812 -78.76994 130 41.3)"/><circle r="1" fill="#fffaf0" fill-opacity=".5" transform="rotate(.7 -2600.7 10767.6) scale(219.65324 50.88147)"/><circle r="1" fill="#7a6c68" fill-opacity=".5" transform="matrix(-212.75514 -14.87729 2.04068 -29.18314 124.4 115.3)"/><path fill="#d3c9c1" fill-opacity=".5" d="M241.2 133.5l-9.5 10.1-19 41.4 19.5-72.9z"/><circle r="1" fill="#7e705f" fill-opacity=".5" transform="matrix(-19.35044 82.15477 -3.88377 -.91477 237.4 24.8)"/><ellipse cx="131" cy="17" fill="#e5e1dd" fill-opacity=".5" rx="103" ry="38"/><circle r="1" fill="#2a2122" fill-opacity=".5" transform="rotate(84.4 -13.5 169.7) scale(32.21155 51.75987)"/><circle r="1" fill="#decac4" fill-opacity=".5" transform="rotate(-32.8 377.8 -282.4) scale(2.79711 24.45047)"/><path fill="#6e6e6a" fill-opacity=".5" d="M224.1 134.1l-244-21.3 1.8-21 244 21.4z"/><circle r="1" fill="#b6b2af" fill-opacity=".5" transform="matrix(8.24912 -20.73138 95.95359 38.18043 3.3 52.3)"/><path fill="#143730" fill-opacity=".5" d="M237.8 158l13.3-45L271-16v176z"/><path fill="#dfd7c2" fill-opacity=".5" d="M95 185l60-27-32 27z"/><path fill="#d8b9a8" fill-opacity=".5" d="M52 167h37v3H52z"/><path fill="#c4bdb5" fill-opacity=".5" d="M271 87.3V68.1L30 78l157.3 9.4z"/><ellipse cx="83" cy="157" fill="#2d2122" fill-opacity=".5" rx="40" ry="11"/><circle r="1" fill="#806b64" fill-opacity=".5" transform="matrix(3.08482 2.95824 -24.17593 25.21043 32.1 169)"/><path fill="#a19f97" fill-opacity=".5" d="M225 128l13-21 3 43z"/><path fill="#282422" fill-opacity=".5" d="M220 159l-20-31 24 9z"/><ellipse cx="31" cy="138" fill="#554c4e" fill-opacity=".5" rx="67" ry="11"/><path fill="#8c776f" fill-opacity=".5" d="M229 162l-10 23 30-25z"/><path fill="#c7c5c2" fill-opacity=".5" d="M51-16L-9 81l89-2z"/><circle r="1" fill="#a09d95" fill-opacity=".5" transform="matrix(97.56198 2.4767 -.18573 7.31639 135.7 88.8)"/><path fill="#767060" fill-opacity=".5" d="M229.4 50l20.4-62.8 2.8.9-20.4 62.7z"/><path fill="#22181b" fill-opacity=".5" d="M227 145h10v14h-10z"/><path fill="#0e1211" fill-opacity=".5" d="M182.3 163.2l1.5-12.3-59.2 23.4 53.4-14.6z"/><circle r="1" fill="#2d1f22" fill-opacity=".5" transform="matrix(3.37264 7.71966 -25.3798 11.08816 15.8 162.3)"/><path fill="#1b0b0f" fill-opacity=".5" d="M247.6 178.6l-2.1-30 17-1.2 2 30z"/><path fill="#b3ada4" fill-opacity=".5" d="M213.3 88.3l-2 43.5L235 57l2.8 33.8z"/><circle r="1" fill="#7c7871" fill-opacity=".5" transform="rotate(-127.6 138 23.3) scale(1 40.59994)"/><path fill="#7d7c78" fill-opacity=".5" d="M244.7 127.8l-21.8-10-4.1-22 36.2-2z"/><path fill-opacity=".5" d="M91 167h39v3H91z"/><circle r="1" fill="#6f6f6d" fill-opacity=".5" transform="matrix(-47.13483 -9.52731 2.6885 -13.30094 69.5 113.1)"/><path fill="#848582" fill-opacity=".5" d="M0 82h73v16H0z"/><circle r="1" fill="#898982" fill-opacity=".5" transform="matrix(-.41978 10.01566 -60.238 -2.52472 132.8 106.6)"/><circle r="1" fill="#c3c1bd" fill-opacity=".5" transform="matrix(1.1198 .1813 -4.96612 30.6729 225.8 141.3)"/><ellipse cx="232" cy="118" fill="#555455" fill-opacity=".5" rx="15" ry="5"/><path fill="#e2e0d8" fill-opacity=".5" d="M232 124l-4 11-1-13z"/><path fill="#191316" fill-opacity=".5" d="M56 185l-18-15 7-16z"/><path fill="#bdb9b4" fill-opacity=".5" d="M196.3 130.4l18 35.9 15.5 18.7-31.5-50.8z"/><ellipse cx="106" cy="159" fill="#161c1c" fill-opacity=".5" rx="57" ry="3"/><circle r="1" fill="#575957" fill-opacity=".5" transform="matrix(-23.2216 2.39972 -.55136 -5.33545 189 119.7)"/><path fill="#dddcd6" fill-opacity=".5" d="M101 0h127v57H101z"/><path fill="#9c8a7c" fill-opacity=".5" d="M50.7 177l-4-4.5L59.3 161l4 4.4z"/><circle r="1" fill="#b2b4b1" fill-opacity=".5" transform="rotate(-83.6 32.8 28.7) scale(17.47602 36.73679)"/><path fill="#181b1c" fill-opacity=".5" d="M223 179l-67 5 46-34z"/><path fill="#3b3e3e" fill-opacity=".5" d="M82 138h116v15H82z"/><path fill="#5b5c5c" fill-opacity=".5" d="M-9 95l20 14 48-12z"/><path fill="#75766f" fill-opacity=".5" d="M139 96h61v8h-61z"/><path fill="#bbaa95" fill-opacity=".5" d="M28 185l10-7 3-22z"/><circle r="1" fill="#1b4a41" fill-opacity=".5" transform="matrix(-3.12212 -.55613 4.23033 -23.74892 255 104.5)"/><circle r="1" fill="#d0cdc6" fill-opacity=".5" transform="rotate(-94.5 87.8 -24.8) scale(18.04032 68.98299)"/><path fill="#a8a499" fill-opacity=".5" d="M237 123l3 19-12 2z"/><path fill="#7c8077" fill-opacity=".5" d="M237.4 155.7l1.5-3.5 9.5 32.8-4-27.5z"/><path fill="#474740" fill-opacity=".5" d="M231 130h5v5h-5z"/><path fill="none" stroke="#a69d92" stroke-opacity=".5" stroke-width=".5" d="M53 147.3q-19.4 14-41.3 37.7"/><path fill="#60605f" fill-opacity=".5" d="M166 134l-65 5 10-17z"/><path fill="#454346" fill-opacity=".5" d="M-12.8 156.7l.6-38 39 .6-.6 38z"/><path fill="#cdc9c9" fill-opacity=".5" d="M234 55h22v27h-22z"/><path fill="#393b39" fill-opacity=".5" d="M148.2 153.1l78.1-23.4-7.5 37.4-12.5-33.3z"/><path fill="#7d786b" fill-opacity=".5" d="M249-5l-9 19-2-20z"/><ellipse cx="85" cy="164" fill="#7f766c" fill-opacity=".5" rx="12" ry="1"/><ellipse cx="226" cy="166" fill="#2d2424" fill-opacity=".5" rx="2" ry="17"/><path fill="none" stroke="#a9998c" stroke-opacity=".5" stroke-width=".5" d="M202.9 149.1q6.2-2 25.5 10.5"/><path fill="none" stroke="#989790" stroke-opacity=".5" stroke-width=".5" d="M223.2 185q22.8-70 0-121"/><path fill="#848274" fill-opacity=".5" d="M155.6 160l-.4-1 43.2-21 .4 1z"/><path fill="#536059" fill-opacity=".5" d="M271 134l-35.2 20.2 4.5 14.4 15.6-49.7z"/><ellipse cx="233" cy="76" fill="#898981" fill-opacity=".5" rx="1" ry="49"/><path fill="#9b9382" fill-opacity=".5" d="M234.1 38.4l3.9 1-20.1 70.2-3.9-1z"/><ellipse cx="133" cy="156" fill="#7d796c" fill-opacity=".5" rx="16" ry="1"/><path fill="#161b1b" fill-opacity=".5" d="M144.5 166.6L100.3 185l53-16.8 47-18.9z"/><ellipse cx="161" cy="165" fill="#79786d" fill-opacity=".5" rx="17" ry="1"/><ellipse cx="58" cy="156" fill="#303130" fill-opacity=".5" rx="14" ry="7"/><path fill="none" stroke="#e1e2d3" stroke-opacity=".5" stroke-width=".5" d="M148.6 162.3Q146 164 110.1 179"/><path fill="#97938f" fill-opacity=".5" d="M248.9 113.9l-40-17.8 17.7-2.4 30.2-11.9z"/><path fill="#989893" fill-opacity=".5" d="M97 89h51v12H97z"/><path fill="#545555" fill-opacity=".5" d="M36 115h25v32H36z"/><path fill="#64635d" fill-opacity=".5" d="M72.6 150.9l.1-1 42.7 5.2-.1 1z"/><ellipse cx="119" cy="165" fill="#62665f" fill-opacity=".5" rx="20" ry="1"/><path fill="none" stroke="#ae9786" stroke-opacity=".5" stroke-width=".5" d="M198 152.7q7-9.2 19 0"/><path fill="none" stroke="#a29d8e" stroke-opacity=".5" stroke-width=".5" d="M188.2 159.9q10.6-10 16.5-14.2"/><path fill="#dcdcd5" fill-opacity=".5" d="M210.2 154.4l-.9.5-9.5-15.3.9-.5z"/><circle r="1" fill="#d3d3cf" fill-opacity=".5" transform="rotate(137.8 22.2 8.6) scale(21.97007 74.72334)"/><path fill="#545554" fill-opacity=".5" d="M211 131.2l-34.5 5.5-1.6-9.9 34.6-5.5z"/><path fill="#2d2e2e" fill-opacity=".5" d="M74 149l-30 9-12 22z"/><path fill="#c8c6c0" fill-opacity=".5" d="M23 64h198v17H23z"/><path fill="#aba395" fill-opacity=".5" d="M210.1 126.6l-.8-.5 12.6-22.7.8.5z"/><path fill="#c1c0be" fill-opacity=".5" d="M52 81L-9 26l7-35z"/><path fill="#a4a19b" fill-opacity=".5" d="M265.8 76.2l-1.4 7.9-109.8 5.8 61.2 10.1z"/><circle r="1" fill="#1d1b15" fill-opacity=".5" transform="matrix(1.08464 -.52383 .96844 2.00523 82.5 169)"/><path fill="#0e1216" fill-opacity=".5" d="M209.8 158l-.8.6-6.8-8.6.8-.6z"/><circle cx="86" cy="169" r="3" fill="#c1bfb4" fill-opacity=".5"/><circle r="1" fill="#292e2f" fill-opacity=".5" transform="matrix(-.5055 -1.58689 20.6385 -6.57446 188.5 139.2)"/><circle r="1" fill="#1b2222" fill-opacity=".5" transform="rotate(1.9 -4217 5805) scale(9.82818 1.40068)"/><path fill="#484c48" fill-opacity=".5" d="M186.5 98.3v1l-27 .4v-1z"/><path fill="#a9a89a" fill-opacity=".5" d="M98.4 185l48.6-22.7 9.5-4.1-4.2 3.8z"/><path fill="#1b2122" fill-opacity=".5" d="M66.2 150.1l59.5 15.8-32.2 14.5 51.3-17z"/><path fill="#3e4243" fill-opacity=".5" d="M81 121h28v2H81z"/><path fill="none" stroke="#cec2be" stroke-opacity=".5" stroke-width=".5" d="M210.8 185q11 0 18.4-57.4"/><path fill="#2f3535" fill-opacity=".5" d="M44 128h17v4H44z"/><path fill="#e3d5c8" fill-opacity=".5" d="M242 161h1v5h-1z"/></g></g></svg>