<svg xmlns="http://www.w3.org/2000/svg" viewBox="0 0 1552 1552"><defs/><filter id="a"><feGaussianBlur stdDeviation="12"/></filter><rect width="100%" height="100%" fill="#424c5e"/><g filter="url(#a)"><g fill-opacity=".5" transform="translate(3 3) scale(6.0625)"><circle r="1" fill="#f5ffff" transform="matrix(-148.48423 -120.66986 136.9396 -168.50414 138 133)"/><circle r="1" fill="#9dcfff" transform="rotate(132.1 54.6 114.5) scale(255 129.16971)"/><circle r="1" fill="#8e9b09" transform="matrix(15.84576 -1.0723 5.71279 84.41925 85.3 25.4)"/><ellipse cx="33" cy="3" fill="#adbc07" rx="77" ry="21"/><circle cx="10" cy="113" r="78" fill="#91b4e0"/><circle r="1" fill="#9dbeff" transform="matrix(-26.09387 -123.3238 79.03932 -16.7238 182.4 89.2)"/><path fill="#365339" d="M19 82h72v8H19z"/><path fill="#707489" d="M131 73h44v25h-44z"/><circle r="1" fill="#a2c0ff" transform="rotate(-80.6 171.7 55.6) scale(42.95293 177.73501)"/><circle r="1" fill="#aaaf00" transform="matrix(2.51675 10.7477 -15.59148 3.651 0 149.4)"/><path fill="#2a505f" d="M58.8 54.3l-34.6 4.3 92.6-1.1-55.7-11.3z"/><path fill="#a5d2ff" d="M55 22L17 73l-5-45z"/><path fill="#1e5b6c" d="M127 224h66v4h-66z"/><path fill="#2a311f" d="M31.6 120.7l-.1-3 46.9-2.4.1 3z"/><ellipse cx="240" cy="76" fill="#0a131d" rx="28" ry="2"/><path fill="#516f6e" d="M82 159h31v14H82z"/><path fill="#556583" d="M65.4 184.2l39.5-1.5-38-3.2-64.7 3.1z"/><path fill="#b8b900" d="M-13 17l-3 49 32-42z"/><ellipse cx="80" cy="1" fill="#a5b247" rx="29" ry="42"/><path fill="#5b7d8c" d="M271 104.6l-12.7 3.1-45.3-1 16.2-16.2z"/><path fill="#a9d3ff" d="M28.8 89.6l13.9 13-33.5 35.8-13.9-13z"/><path fill="#264441" d="M218 147h35v4h-35z"/><path fill="#211e33" d="M110 166h27v4h-27z"/><path fill="#0f1a36" d="M17 252h34v3H17z"/><circle r="1" fill="#395d78" transform="rotate(-178.6 89 81) scale(28.35892 1.67749)"/><circle r="1" fill="#a01a0f" transform="rotate(115.1 48 88.8) scale(8.65977 3.35509)"/><path fill="#578383" d="M133.8 77.2l-6.9-19.6 39.8-1.2-24 6.8z"/><ellipse cx="238" fill="#a5c6fd" rx="130" ry="51"/><ellipse cx="189" cy="214" fill="#5c7882" rx="29" ry="3"/><path fill="#1e2e3e" d="M147 45h34v3h-34z"/><path fill="#909a93" d="M48.1 108.8l34.8-52.6.2 45.9-59.3-10.8z"/><ellipse cx="34" cy="154" fill="#4c5560" rx="44" ry="2"/><path fill="#354459" d="M105 112l23 1-9 5z"/><path fill="#6ea8ee" d="M48.5 41.4l2.3-7.6 28.7 8.8-2.3 7.6z"/><path fill="#839c25" d="M7.5 90.3l2.3-24.8 8.3 31.1 8.7-22.3z"/><circle r="1" fill="#a7c6ff" transform="matrix(-6.10056 -19.46692 28.9615 -9.07599 110.7 138)"/><path fill="#adb50b" d="M-10.3 86.7l-5.7 38.1 21.3-8.7 4.7-1.6z"/><ellipse cx="229" cy="187" fill="#a7c4fd" rx="55" ry="30"/><path fill="#a4c3f1" d="M40.2 60.1l53.6 25.7-22.1-.6 17.6-28z"/><path fill="#213825" d="M62 87h43v3H62z"/><path fill="#3f5642" d="M75.4 60.6L60 50.9l51.6.5-3.3 3.1z"/><path fill="#a2c7ff" d="M18.8 61.1l33.7-29.3-24.1-9L-16 60z"/><path fill="#a9ccff" d="M152 79h104v8H152z"/><ellipse cx="60" cy="74" fill="#1d304b" rx="13" ry="2"/><path fill="#a2c3f8" d="M108 169h45v87h-45z"/><path fill="#a8917a" d="M51.8 174.1L50 111.8l28.5 15.8-35.4-21.9z"/><path fill="#478066" d="M20.1 57.4l11.8 11.7 20-1.8-2.5 9.3z"/><ellipse cx="146" cy="223" fill="#19a032" rx="6" ry="3"/><path fill="#003320" d="M4 62h3v10H4z"/><path fill="#3c5c5e" d="M49.5 41.6l-10.6-1 15.8-3.9 30.1 1.4z"/><path fill="#2ca600" d="M208 73l11-9-5 8z"/><ellipse cx="144" cy="38" fill="#378845" rx="3" ry="7"/><path fill="#aac3ff" d="M20 124l59-7 4 23z"/><path fill="#5e9078" d="M94.6 166.4l-6.7 1.2-11-20.7-1.9-6.8z"/><path fill="#9fa233" d="M99.9 70.5l3.8-59.4-15.1 68.7 6.6 31.5z"/><path fill="#439136" d="M23 251l-10-4-11 4z"/><path fill="#319b00" d="M157 153l-1 9-4-2z"/><path fill="#0f2738" d="M157 76h18v3h-18z"/><path fill="#9ec6ff" d="M49.4 111.5L.8 92.3l21 54.1-37.1-18.7z"/><path fill="#a4c5fa" d="M144.7-28L127 84.6 97.3 80 115-32.6z"/><path fill="#1e723e" d="M40 55l-11 1-3-7z"/><ellipse cx="157" cy="92" fill="#c0e6ff" rx="22" ry="2"/><ellipse cx="183" cy="125" fill="#a7c5f9" rx="52" ry="29"/><circle cx="182" cy="211" r="3" fill="#3baa00"/><path fill="#228103" d="M105.8 108.7l-23 19.3-.6-.7 23-19.3z"/><circle r="1" fill="#91732f" transform="matrix(8.35326 22.51459 -.93755 .34785 38.5 95.8)"/><path fill="#a5c6fd" d="M138 62h59v14h-59z"/><path fill="#ca9807" d="M245 217h11v4h-11z"/><path fill="#4fa71c" d="M222 147l1-6-6 2z"/><path fill="#000600" d="M234.5 91v6h-3v-6z"/><path fill="#a4af51" d="M57 0h38v33H57z"/><path fill="#555f3c" d="M59.6 56.1L84 53.2 69.3 33l36.1 26.7z"/><ellipse cx="34" cy="218" fill="#a5c2f9" rx="83" ry="31"/><path fill="#52616f" d="M127 58h38v4h-38z"/><path fill="#44374a" d="M160 225h34v3h-34z"/><path fill="#a6cbff" d="M39 54l23-2-42-22z"/><path fill="#4e2028" d="M137 76h20v3h-20z"/><path fill="#7a9376" d="M13 128.1l36.6 5.8-.6 4-36.6-5.8z"/><path fill="#505b73" d="M79 180h20v4H79z"/><path fill="#a6c4f5" d="M12 153l39 7-67 56z"/><path fill="#a4c2fa" d="M103 57l38 23-38 30z"/><path fill="#787721" d="M54 115.3l-.7.6-33.4-41.2.8-.6z"/><path fill="#585e6a" d="M38 115h43v4H38z"/><path fill="#5a6700" d="M82.2 97.2l-1.5 1.3-10.9-11.7 1.5-1.3z"/><path fill="#acc5fc" d="M41.5 151.7l-41.6-57 12.4-2.4 15.6 21.9z"/><path fill="#1a7929" d="M57 47l-6-9-8 1z"/><ellipse cx="147" cy="204" fill="#00b0ff" rx="17" ry="1"/><path fill="#aebeff" d="M92 163l-45 3 24-12z"/><path fill="#b9d4f7" d="M64.3 40.3l21.5 2.4-13.4 4.4-17.7-1.2z"/><path fill="#d8a315" d="M9 67h4v18H9z"/><ellipse cx="51" cy="84" fill="#232552" rx="15" ry="2"/><path fill="#97b6f3" d="M54.2 95.1l-19.5-2.4 40.6-13-11.5-4.5z"/><circle r="1" fill="#454151" transform="matrix(18.80628 -.25344 .01348 .9999 174.3 165)"/><path fill="#26b7ff" d="M129 244h42v2h-42z"/><path fill="#65bcf4" d="M104.9 11.5l31.8-14.7 70.5 11.5-71.3-6.7z"/><path fill="#745e00" d="M69 96h4v6h-4z"/><path fill="#a9c0fc" d="M20 83L2 42l23-18z"/><path fill="#564800" d="M145.4 78.3l3 2.6-5.8 6.8-3-2.6z"/><path fill="#afcafc" d="M227.4 100.1L208.8 98l10.5-15.4 17.6 21.1z"/><path fill="#538c00" d="M46.7 70.7L42.9 72l-1.6-4.7 3.8-1.3z"/></g></g></svg>