<svg xmlns="http://www.w3.org/2000/svg" viewBox="0 0 1646 1646"><defs/><filter id="a"><feGaussianBlur stdDeviation="12"/></filter><rect width="100%" height="100%" fill="#977048"/><g filter="url(#a)"><g fill-opacity=".5" transform="translate(3.2 3.2) scale(6.42969)"><circle r="1" fill="#a6ffff" transform="rotate(62.4 -40.8 120.6) scale(128.54492 255.00001)"/><circle cx="55" r="207" fill="#a0bbff"/><circle r="1" fill="#9ec635" transform="matrix(-25.78697 -66.56418 85.21045 -33.01054 179.7 223.6)"/><circle r="1" fill="#a3beff" transform="matrix(-60.18142 -17.82004 48.7317 -164.57553 63 106.8)"/><circle r="1" fill="#a8caff" transform="matrix(2.24432 36.69433 -70.58298 4.31704 225.5 120)"/><path fill="#75731c" d="M175.6 140l24.6 26.2-87.8 81.9-24.6-26.3z"/><circle r="1" fill="#aec259" transform="matrix(-42.81716 -41.86537 52.24254 -53.43025 227.2 222.3)"/><path d="M136 181h26v13h-26z"/><circle r="1" fill="#9eb8f5" transform="matrix(-69.41033 50.46405 -63.43897 -87.25657 189.8 58.8)"/><ellipse cx="126" cy="241" fill="#adbe4f" rx="59" ry="21"/><circle r="1" fill="#a7c7ff" transform="matrix(40.93112 6.36837 -12.51678 80.44848 24.3 222.7)"/><path fill="#9fbef9" d="M170 109L-16 247l131-47z"/><path fill="#141906" d="M79 213h61v7H79z"/><path fill="#a3a73b" d="M167 145h25v56h-25z"/><circle r="1" fill="#869cbc" transform="matrix(22.4837 -23.2633 15.27472 14.76282 169.7 82.5)"/><path fill="#1f2b34" d="M72 149h36v4H72z"/><ellipse cx="172" cy="14" fill="#1a1924" rx="25" ry="2"/><path fill="#49786f" d="M66.2 16l55.9 4-.3 4-55.9-4z"/><path fill="#1c2e32" d="M102 176h30v3h-30z"/><ellipse cx="40" cy="58" fill="#3b4d5b" rx="28" ry="2"/><path fill="#527d65" d="M240.7 20.4l19.5 4.5-3 12.7-19.4-4.5z"/><path fill="#aac7fc" d="M179.8 79.9l12 80 8.5 4.3L271 90.1z"/><path fill="#a2c0f9" d="M-16 5L9 198 39-16z"/><path fill="#21242f" d="M3 41h36v3H3z"/><path fill="#597a80" d="M119 129l-37 5 4-12z"/><path fill="#101324" d="M28 138h25v3H28z"/><path fill="#b00e16" d="M116 146l16-11-11 1z"/><path fill="#1f2c40" d="M223 75h33v3h-33z"/><path fill="#4c924e" d="M91.1 174.7l1.2 37.4-9.6 8.9 15-51.9z"/><path fill="#11121b" d="M150 105h19v3h-19z"/><path fill="#87a134" d="M93 250l-41 2 37-31z"/><path fill="#aabf46" d="M250.3 164.7l-8.4 3.1-8.2-22.5 8.4-3.1z"/><path fill="#304f6b" d="M175 30h21v4h-21z"/><path fill="#a4ac4a" d="M183 146l65 85-112-69z"/><path fill="#287f1a" d="M112.1 27.4l-2.7-.7 34.2-16.3-35.5 14.9z"/><ellipse cx="169" cy="189" fill="#4c552d" rx="21" ry="5"/><path fill="#5c9063" d="M1.3 61.1l9.7-4.3 30-4.9L-16 67z"/><path fill="#a6c2fa" d="M73.4 216.3L-16 198.1 36.3 271l53.1-52.4z"/><path fill="#227e0b" d="M216.6 74.5l-.3-1 35.1-8 .3 1z"/><path fill="#abc5fe" d="M194 0h47v59h-47z"/><circle r="1" fill="#698e74" transform="rotate(-105.6 65.5 57.2) scale(1 29.94409)"/><path fill="#b5b84c" d="M161 225l26-20-94-4z"/><path fill="#abcaff" d="M112 143h44v15h-44z"/><path fill="#527e59" d="M141 56.3L188.3 9l.7.7L141.7 57z"/><path fill="#a4c4ff" d="M92.3 191.1l3.6-10.6 33.4 5.4-38 24.8z"/><path fill="#206f1a" d="M228.2 59l.2 1-44.6 11-.2-1z"/><path fill="#4a3e73" d="M149 84h31v4h-31z"/><path fill="#70b288" d="M233.1 208.8l-29.7 27.1 13.7-5.5 34.5-66.9z"/><path fill="#6eb99a" d="M102 231h52v4h-52z"/><path fill="#206708" d="M86.4 148l1 .3-3.8 19.6-1-.2z"/><path fill="#abbdf7" d="M31 118l48-86 95 38z"/><path fill="#353658" d="M93 128h33v3H93z"/><path fill="#568440" d="M140.8 189l3.4-25.6-26.3 41.5 33-2.9z"/><path fill="#668287" d="M204 77l-29-2-17-18z"/><path fill="#468b3d" d="M255.1 6l-18.8 25L271 17.3l-29 12.6z"/><circle r="1" fill="#619171" transform="rotate(-16.9 414 -468) scale(28.88864 1)"/><path fill="#4a5125" d="M151 166h37v4h-37z"/><path fill="#449f28" d="M68.5 139.2l3.9 1-2.9 10.6-3.9-1z"/><path fill="#a4af4e" d="M212 152l-91 109 120-77z"/><path fill="#acb5f5" d="M91 79h53v49H91z"/><path fill="#5f8c5f" d="M136.2 163.9l-.7 26.1-40.4-15.3 51.1 6.7z"/><path fill="#378915" d="M63.5 22.8l24.6-8.5.4 1-24.6 8.4z"/><path fill="#418833" d="M86 123h2v31h-2z"/><circle r="1" fill="#acc2fa" transform="rotate(92 21.3 20.6) scale(22.86879 50.91896)"/><path fill="#5aa84e" d="M137 8h10v6h-10z"/><path fill="#205827" d="M95 252H64l-3 19z"/><path fill="#a7c5f8" d="M150 160l66-60-99 15z"/><path fill="#b8bbff" d="M184 88l-70-2 36 12z"/><circle r="1" fill="#93c35b" transform="matrix(5.65606 2.70098 -8.70785 18.23494 255 156.4)"/><path fill="#a3c3f6" d="M162 100l109-25-18 69z"/><path fill="#449541" d="M160.6 61.5l34.6-10 .2 1-34.6 10z"/><path fill="#2cbdfb" d="M249 116h2v43h-2z"/><path fill="#adc3f8" d="M156.5 50.4L271 54l-81.5 11.5-5.4-33.9z"/><path fill="#9fc5fd" d="M98 167l37 12-1-28z"/><path fill="#38afbd" d="M217.3 160.1l1 .4-13.6 33.4-1-.4z"/><path d="M142 182h28v3h-28z"/><path fill="#6caf89" d="M210.3 230.8l23.2-25-26.2 31.8-56.1 33.4z"/><path fill="#34b1c6" d="M172.7 221l-25 12.8-.4-.9 25-12.7z"/><ellipse cx="168" cy="255" fill="#60652c" rx="90" ry="1"/><path fill="#4a451b" d="M141 200h31v3h-31z"/><path fill="#62b8e3" d="M82.3 222.2l19.2 9.8-21.6-7.6-26.3-19.6z"/><path fill="#a1c6ff" d="M145 16h50v10h-50z"/><path fill="#43b7d8" d="M32 224.8L59.1 248l43.5 23L45 236.5z"/><path fill="#52bbfa" d="M-.7 137.7l6.5-40.2L-6 137.6l13.5 51.2z"/><path fill="#36471f" d="M96.4 220.3l-1.9-5-8.2-7.3 50.3 12.5z"/><path fill="#50aea2" d="M169.9 192.6l18.6-39.5-.6-15.3-1 14z"/><path fill="#379b47" d="M9 40h-23l-2-15z"/><circle cx="146" cy="166" r="9" fill="#869237"/><path fill="#26240f" d="M70 245h23v2H70z"/><path fill="#b4ccff" d="M183.4 71.3l41.6-5-51.2 9.7 4.6 5.8z"/><path fill="#209dc8" d="M113 201h28v2h-28z"/><path fill="#b2c5fb" d="M71 109h15v39H71z"/><path fill="#cfddff" d="M245 29h11v4h-11z"/><path fill="#44a439" d="M21 55l7-3 4 6z"/><path fill="#3fbdfa" d="M112 44.2l.3 1L74 59.7l-.3-1z"/><path fill="#54a05e" d="M238.6 33.3l-.8-.6 21.6-36 .8.6z"/><path fill="#a5c2f4" d="M223.5 161.4l-.5-2.5-80.9-26.1L271 108.6z"/><path fill="#489e5a" d="M21.5 135.1l2.4-.9 20.5-2.7-19.1 7.1z"/><path fill="#43b2f1" d="M209.5 94.4l8.3 28.9-.5-9.8-22.5-38.2z"/><path fill="#338c96" d="M137.9 202.3l17.5-6.4 3.9-1.3 6.3-6.6z"/></g></g></svg>