<svg xmlns="http://www.w3.org/2000/svg" viewBox="0 0 1800 1200"><defs/><filter id="a"><feGaussianBlur stdDeviation="12"/></filter><rect width="100%" height="100%" fill="#5a433f"/><g filter="url(#a)"><g fill-opacity=".5" transform="translate(3.5 3.5) scale(7.03125)"><circle r="1" fill="#54f3ff" transform="matrix(-6.19398 -58.93177 170.05966 -17.874 191.6 62.2)"/><circle r="1" transform="matrix(-4.69832 41.45909 -207.8289 -23.55207 106.3 156.5)"/><circle r="1" fill="#b1ffff" transform="matrix(34.37035 -18.27504 13.2225 24.86791 118.9 87)"/><ellipse cx="36" cy="13" fill="#003755" rx="125" ry="42"/><circle r="1" fill="#8df4ff" transform="matrix(20.46399 -35.16065 25.2773 14.71174 231 30.7)"/><circle r="1" fill="#28282f" transform="matrix(-29.51893 29.37963 -16.48714 -16.56531 184.6 93.1)"/><path fill="#47cae9" d="M131 119L-16 28 9 89z"/><circle r="1" fill="#71dce2" transform="matrix(53.48605 -3.43344 .71497 11.13782 220.9 119)"/><circle r="1" fill="#000600" transform="matrix(-254.38291 -17.72946 2.17515 -31.20918 112.9 153.1)"/><circle r="1" fill="#b6ebfa" transform="matrix(-37.77835 -10.63728 3.16666 -11.2464 148.6 84.6)"/><circle r="1" fill="#000e0a" transform="rotate(131.3 -5.7 80.8) scale(23.57715 74.48735)"/><circle r="1" fill="#00171b" transform="matrix(-9.03807 -23.43642 171.88974 -66.28794 51.5 0)"/><circle cx="98" cy="60" r="29" fill="#4faad8"/><circle r="1" fill="#112020" transform="matrix(9.24013 -.2683 .97286 33.50549 189.3 88.5)"/><path fill="#d1ffff" d="M143 69l-16 40-53-14z"/><ellipse cx="22" cy="61" fill="#347f93" rx="39" ry="22"/><path fill="#50ace2" d="M223 11l-66 76-38-56z"/><circle r="1" fill="#96f9ff" transform="matrix(-12.07308 -11.1127 36.00581 -39.11753 244.1 6.2)"/><path fill="#1d4a60" d="M194 21.1L207-16-14.6 52.6 160.9 9.7z"/><circle r="1" transform="matrix(25.81542 2.7445 -.42466 3.99447 165.2 106)"/><path fill="#93daf9" d="M186 135l23-42 35 8z"/><path fill="#a4c3c4" d="M166 102l49-15-40-3z"/><path fill="#fdfff3" d="M200 122h-29l-5-11z"/><path fill="#00202e" d="M217.8 71.6l-32.5-19.1-8.4 21.4 40.7 17.8z"/><path fill="#000b07" d="M158 113l87 71-261-17z"/><path fill="#043d5a" d="M205.3 79.4l-12.5-41.2 24.2 10-57.1 30.5z"/><path fill="#076c5f" d="M144 125L23 97l56 31z"/><ellipse cx="239" cy="138" fill="#004032" rx="63" ry="14"/><circle r="1" fill="#4776a3" transform="matrix(8.57 28.96411 -17.1438 5.07256 246.7 74)"/><path fill="#8ae3f7" d="M72 63l-14 40-27-10z"/><circle r="1" fill="#31596b" transform="matrix(-8.15247 -9.64633 29.46796 -24.90447 57 50.2)"/><path fill="#70bee7" d="M221 77.1l8.5-25.2-48.8.2 18 5.8z"/><path fill="#181e15" d="M184 119l25-25-37 1z"/><path fill="#1d687c" d="M81 91l-33-3 49-11z"/><circle cx="12" cy="130" r="34" fill="#000e08"/><path fill="#6dddfa" d="M185.3 61l-12.9 13.3-14-33.7 4.7-13.1z"/><circle r="1" fill="#50b7c3" transform="matrix(20.95 25.24497 -6.82683 5.66537 9.7 71.7)"/><circle r="1" fill="#4a7897" transform="matrix(37.4639 -20.29563 5.46462 10.0872 135.6 34)"/><path fill="#003c5c" d="M140 92l27 21-31-9z"/><path fill="#39b1c6" d="M69 115l66 2-50-20z"/><circle r="1" fill="#459a9b" transform="rotate(166.2 109.7 75.1) scale(26.45337 10.48367)"/><circle r="1" fill="#001812" transform="matrix(-7.33268 24.83405 -99.8167 -29.47262 207.2 161.5)"/><circle r="1" fill="#001526" transform="matrix(-11.35606 -3.2749 .80039 -2.77542 179.8 9.2)"/><path fill="#6fb0cb" d="M271 101.6l-63.3 3.4-13.1-24.8 50.8 28.6z"/><path fill="#c6ffff" d="M124 83l-31 22 48 6z"/><path fill="#000411" d="M201.4 99.8l-.5-.9 31.7-14.7.5.9z"/><path fill="#96e9ff" d="M183.2 44.8L196 22.2l25.3 38.2 13.8-44z"/><path fill="#5ab7d3" d="M85 29h13v62H85z"/><path fill="#062b1c" d="M174 165l69 6-65-51z"/><path fill="#001b1a" d="M61.9 133.5l95.2 3.4 16.2-56.5-17.7 37.7z"/><path fill="#060e0e" d="M180.9 109.9l15.1-37-6.4 28.5-41.5 8.6z"/><path fill="#b7d2d5" d="M156 95h20v7h-20z"/><path fill="#2b739c" d="M157 88l7-39-16-5z"/><path fill="#035448" d="M-16 67.1l32.1 22 53.3 26.5L-16 91.5z"/><path fill="#72d9f5" d="M93 78l17 18 39-45z"/><circle r="1" fill="#4487b2" transform="matrix(-.62612 11.19893 -30.4761 -1.70388 201.2 0)"/><path fill="#e2fffd" d="M193 115h12v9h-12z"/><path fill="#a3c6cc" d="M169 93l21 3-8-20z"/><path fill="#03191c" d="M180 72h33v10h-33z"/><path fill="#000100" d="M-16 167l163 18 54-53z"/><path fill="#1875a1" d="M175.5 35.3l-4.3 14.5 39-11.5-16.4 7.6z"/><circle r="1" fill="#319565" transform="matrix(8.97063 -2.6402 .46121 1.56706 199 146.8)"/><path fill="#5f9793" d="M209.3 124.9l51.1-32.4-48.8 40-24.8-1.4z"/><path fill="#226d8f" d="M163 76h22v10h-22z"/><path fill="#4e94a7" d="M40.8 32.3l-3.3 45 43-8.6-62.8-1.5z"/><path fill="#78daff" d="M271 51l-68-40 57-20z"/><path fill="#05344b" d="M159.8 80.6l1 .4-12.6 28.4-1-.4z"/><circle r="1" fill="#c2fcfa" transform="matrix(-29.25502 38.92044 -2.61728 -1.96731 247.6 0)"/><ellipse cx="130" cy="116" fill="#36a7bf" rx="21" ry="4"/><circle r="1" fill="#15404a" transform="matrix(-2.16533 -7.0894 100.6885 -30.75355 47.8 27.4)"/><path fill="#cce6e7" d="M135 89l32-21-18 24z"/><path fill="#5cb4d1" d="M117.2 92.1l-14.1-25.7-61.3 5.5L67.1 82z"/><path fill="#002a18" d="M172.5 115.1l.4 2-27.4 5.8-.4-2z"/><path fill="#86dfed" d="M29.1 88.4L80 82l-32.7-9.2 7.6 35.2z"/><circle r="1" fill="#04161a" transform="rotate(57.5 11.4 20.8) scale(17.00225 70.95284)"/><path fill="#65bacd" d="M8.1 71.3l-22 22.8 2.6-30.6 57.4 1.1z"/><path fill="#bafbf6" d="M123.7 110.8L152 61.7l-26.6 6.2-17.6 38.9z"/><path fill="#255362" d="M203.8 102.4l-7.7-14.2-32-11.7 56.5 29.8z"/><path fill="#1a6b79" d="M51 86L31 68l-18 4z"/><path fill="#2b92bf" d="M154.2 54.3l6.5 32.4-15.5-12.3 29.5-12.5z"/><path fill="#d2f8ef" d="M203 83l-3 1 2 9z"/><ellipse cx="188" cy="113" fill="#495745" rx="10" ry="5"/><ellipse cx="173" cy="120" fill="#fff" rx="3" ry="6"/><path fill="#5caad7" d="M225.5 46.4l13.2-18.9 45.8 32.1-13.2 18.9z"/><circle r="1" fill="#1f0e0f" transform="matrix(-.99488 -.10106 .8644 -8.50995 166.8 101.9)"/><path fill="#003652" d="M194 42h10v9h-10z"/><path fill="#2e5a6c" d="M45.1 48.3l7.4-17.5L83 43.7l-7.4 17.5z"/><path fill="#88dcf8" d="M202 49l27 22-23-9z"/><path fill="#123035" d="M216.2 68l-.5 25.7-34.1-41.5 1.6 33.7z"/><path fill="#2a4956" d="M142.8 23.2l11.1 14.4-24-22.1L55 24.6z"/><path fill="#229dc2" d="M88 96l18 14-25-3z"/><circle cx="227" cy="84" r="3" fill="#05122b"/><circle r="1" fill="#447485" transform="matrix(-20.53947 8.91964 -3.77062 -8.6827 113.8 37)"/><path fill="#60a6c3" d="M235 96h20v25h-20z"/><path fill="#287284" d="M85.6 77.7L62.4 89.6l6.6 1.7L90.3 88z"/><path fill="#cad7d4" d="M165 113h18v3h-18z"/><path fill="#000e0b" d="M0 118h78v44H0z"/><path fill="#96eafd" d="M43 94h40v5H43z"/><path fill="#a2ffff" d="M181 58l-14 1 9 6z"/><path fill="#dcfdfa" d="M138.3 84.6l-46.4 20.3 8.3-15.7 12.9 20.9z"/></g></g></svg>