<svg xmlns="http://www.w3.org/2000/svg" viewBox="0 0 1800 1012"><defs/><filter id="prefix__a"><feGaussianBlur stdDeviation="12"/></filter><rect width="100%" height="100%" fill="#3d5352"/><g filter="url(#prefix__a)"><g transform="translate(3.5 3.5) scale(7.03125)"><circle cx="127" cy="64" r="150" fill="#ffffd2" fill-opacity=".5"/><circle r="1" fill="#ffff93" fill-opacity=".5" transform="matrix(-34.61687 -119.9031 184.43403 -53.2474 89.4 74.8)"/><circle r="1" fill="#e6f594" fill-opacity=".5" transform="matrix(-107.35773 -182.25726 62.65216 -36.90494 58.6 75.9)"/><circle cx="142" cy="69" r="10" fill="#07bff8" fill-opacity=".5"/><circle r="1" fill="#e6ea92" fill-opacity=".5" transform="rotate(50.6 49.6 282.6) scale(36.95282 147.9174)"/><path fill="#91ca8a" fill-opacity=".5" d="M159.3 68.8l-14-12.2 93-67-19.5 34z"/><path fill="#b1a500" fill-opacity=".5" d="M0 137h52v3H0z"/><path fill="#a5ac49" fill-opacity=".5" d="M217 10l18 24-43-13z"/><circle r="1" fill="#e3e594" fill-opacity=".5" transform="rotate(-20.2 71.8 -358) scale(120.89155 30.3468)"/><path fill="#90c470" fill-opacity=".5" d="M230.9 138.5l-.8-22 27-1 .8 22z"/><ellipse cx="105" cy="132" fill="#c2c56a" fill-opacity=".5" rx="134" ry="2"/><path fill="#3a3e20" fill-opacity=".5" d="M0 142h33v1H0z"/><path fill="#a6eec3" fill-opacity=".5" d="M156.7 61.6l-3.5-4.8 50.1-36.4 3.5 4.8z"/><path fill="#ffffa5" fill-opacity=".5" d="M229 158l40-38-1 21z"/><path fill="#5fbcae" fill-opacity=".5" d="M226 147l25-14-6-11z"/><path fill="#b49e03" fill-opacity=".5" d="M258 45.2l-9.6-2.6 1.5-5.8 9.7 2.6z"/><path fill="#bbe199" fill-opacity=".5" d="M130.9 70L145 84l-21.9 22L109 91.8z"/><path fill="#d8f4a4" fill-opacity=".5" d="M247 42h9v76h-9z"/><path fill="#808a51" fill-opacity=".5" d="M107.9 91.2l-33.3 18.4-.5-.8 33.3-18.4z"/><ellipse cx="114" cy="8" fill="#c8c96f" fill-opacity=".5" rx="154" ry="2"/><path fill="#c3c463" fill-opacity=".5" d="M111 107h145v2H111z"/><path fill="#dbde8d" fill-opacity=".5" d="M137-16l38 48-68 54z"/><ellipse cx="109" cy="119" fill="#ccd17b" fill-opacity=".5" rx="178" ry="3"/><path fill="#c5c461" fill-opacity=".5" d="M2 33h182v2H2z"/><path fill="#e0f0a5" fill-opacity=".5" d="M128 30h6v113h-6z"/><circle cx="124" cy="6" r="3" fill="#68623d" fill-opacity=".5"/><path fill="#cab35e" fill-opacity=".5" d="M154 70h97v2h-97z"/><ellipse cx="239" cy="78" fill="#e7f3a3" fill-opacity=".5" rx="5" ry="46"/><path fill="#caca72" fill-opacity=".5" d="M39 44h128v4H39z"/><path fill="#eaeba7" fill-opacity=".5" d="M199 53h8v90h-8z"/><ellipse cx="25" cy="138" fill="#857a00" fill-opacity=".5" rx="24" ry="1"/><ellipse cx="118" cy="36" fill="#e1f0a6" fill-opacity=".5" rx="4" ry="142"/><ellipse cx="85" cy="58" fill="#c9cb6f" fill-opacity=".5" rx="188" ry="2"/><ellipse cx="230" cy="1" fill="#e7f1a6" fill-opacity=".5" rx="255" ry="2"/><ellipse cx="82" cy="65" fill="#e3f2a7" fill-opacity=".5" rx="4" ry="101"/><ellipse cx="155" cy="119" fill="#e8f3a8" fill-opacity=".5" rx="4" ry="47"/><ellipse cx="190" cy="99" fill="#e9eca7" fill-opacity=".5" rx="4" ry="61"/><path fill="#a6923b" fill-opacity=".5" d="M217 28h17v5h-17z"/><ellipse cx="72" cy="20" fill="#cec972" fill-opacity=".5" rx="134" ry="2"/><path fill="#96a264" fill-opacity=".5" d="M110.5 121l-.7-.7L157.5 69l.7.6z"/><path fill="#dbf5a3" fill-opacity=".5" d="M154.4 68.5L239 4.7l.6.8L155 69.3z"/><ellipse cx="10" cy="20" fill="#eaf3a8" fill-opacity=".5" rx="4" ry="117"/><ellipse cx="23" cy="22" fill="#e8f2a7" fill-opacity=".5" rx="4" ry="116"/><ellipse cx="34" cy="33" fill="#e8f3a8" fill-opacity=".5" rx="4" ry="103"/><ellipse cx="46" cy="24" fill="#e6f1a7" fill-opacity=".5" rx="3" ry="113"/><ellipse cx="70" cy="41" fill="#e4f1a6" fill-opacity=".5" rx="4" ry="140"/><path fill="#b0842f" fill-opacity=".5" d="M232 117h3v18h-3z"/><path fill="#e3f0a5" fill-opacity=".5" d="M55 0h7v143h-7z"/><path fill="#c8d579" fill-opacity=".5" d="M0 105h127v5H0z"/><ellipse cx="42" cy="83" fill="#cbcf6e" fill-opacity=".5" rx="237" ry="2"/><ellipse cx="94" cy="42" fill="#e4f2a8" fill-opacity=".5" rx="4" ry="136"/><circle cx="172" cy="44" r="4" fill="#4c9989" fill-opacity=".5"/><ellipse cx="178" cy="95" fill="#c7ce6f" fill-opacity=".5" rx="217" ry="2"/><path fill="#e5f3a8" fill-opacity=".5" d="M103 2h7v116h-7z"/><path fill="#a6b15c" fill-opacity=".5" d="M63 132h53v3H63z"/><path fill="#ebefab" fill-opacity=".5" d="M176 67h6v69h-6z"/><circle r="1" fill="#44bccd" fill-opacity=".5" transform="matrix(4.32798 -.0744 .08476 4.93078 149.6 69.6)"/><ellipse cx="143" cy="130" fill="#e6f3a9" fill-opacity=".5" rx="4" ry="45"/><path fill="#e0eaa1" fill-opacity=".5" d="M224 24h6v80h-6z"/><circle r="1" fill="#9db67d" fill-opacity=".5" transform="rotate(140.7 52.7 59.3) scale(42.68268 1)"/><circle r="1" fill="#66812c" fill-opacity=".5" transform="matrix(9.73134 .35683 -.03664 .99933 210.6 17.4)"/><path fill="#aaad69" fill-opacity=".5" d="M206.3 96.6L234.9 45l.8.4L207.1 97z"/><path fill="#91b483" fill-opacity=".5" d="M240.2 9.3l-29.6.4 24.8-5.3L210-16z"/><path fill="none" stroke="#9a985b" stroke-opacity=".5" stroke-width=".5" d="M159.1 131.5q25.6-10 10.6-37.5"/><circle cx="248" cy="123" r="5" fill="#8cb33c" fill-opacity=".5"/><path fill="#b7c474" fill-opacity=".5" d="M39 107l9 5 19-20z"/><path fill="#e4f19a" fill-opacity=".5" d="M168 61.8l-71.8 85.3 96.4-104-2.9 4.2z"/><ellipse cx="72" cy="70" fill="#d3d377" fill-opacity=".5" rx="59" ry="3"/><path fill="#899154" fill-opacity=".5" d="M75.8 106.9l-.7.7-13-12.5.8-.7z"/><path fill="#a1f1c4" fill-opacity=".5" d="M248 106l12 25 2-27z"/><path fill="#bdc16d" fill-opacity=".5" d="M237.5 3.7l-10.1 26.2 6.7 30.7-.8-34z"/><path fill="#c9ca82" fill-opacity=".5" d="M167 22l57 13-27-21z"/><path fill="#e6e6a3" fill-opacity=".5" d="M127.3-16l32 49.3L170.2-16l-1.6 52.9z"/><path fill="#afb163" fill-opacity=".5" d="M177.8 59.8l33.7-28.3.7.7-33.7 28.3z"/><path fill="#87904c" fill-opacity=".5" d="M249 92.8l1 .3-7 28-1-.2z"/><path fill="#e3e7a5" fill-opacity=".5" d="M212 31h6v91h-6z"/><path fill="#eaf2a9" fill-opacity=".5" d="M169.8 95.6l1.5 21.9-7.8 16.4.4-47z"/><circle cx="135" cy="57" r="3" fill="#918c45" fill-opacity=".5"/><path fill="#79a760" fill-opacity=".5" d="M204.3 18.3l3 8.2-15.4 13.8L222 14.8z"/><path fill="#e5f49f" fill-opacity=".5" d="M235 12h21v21h-21z"/><path fill="#9f9262" fill-opacity=".5" d="M226 134l-13-2 8-8z"/><path fill="#e2eca4" fill-opacity=".5" d="M139 7h7v48h-7z"/><path fill="#c6c55b" fill-opacity=".5" d="M2 45h42v2H2z"/><path fill="#b4b266" fill-opacity=".5" d="M129 31h24v4h-24z"/><circle r="1" fill="#c2f4b2" fill-opacity=".5" transform="rotate(-132.9 80.9 19.2) scale(2.80352 24.7582)"/><path fill="#a3ad65" fill-opacity=".5" d="M65.3 114.2l1.9.7-6.5 18.9-1.9-.7z"/><ellipse cx="123" cy="44" fill="#aba962" fill-opacity=".5" rx="5" ry="4"/><ellipse cy="124" fill="#ecf6a6" fill-opacity=".5" rx="2" ry="162"/><ellipse cx="47" cy="40" fill="#e3eea2" fill-opacity=".5" rx="3" ry="96"/><circle r="1" fill="#e5efa0" fill-opacity=".5" transform="matrix(-.40938 40.94079 -3.87602 -.03876 22.3 95.2)"/><ellipse cx="11" cy="139" fill="#f1eb02" fill-opacity=".5" rx="39" ry="1"/><ellipse cx="245" cy="22" fill="#c5c565" fill-opacity=".5" rx="1" ry="75"/><path fill="#b5a658" fill-opacity=".5" d="M173.4 16.4l2.2 20.9-3 .3-2.2-20.9z"/><path fill="#bdca7f" fill-opacity=".5" d="M115.7 132.2l.4-7.9-15.4 7.4-3.5-20.2z"/><path fill="#88885f" fill-opacity=".5" d="M122 5h17v2h-17z"/><path fill="#a3b682" fill-opacity=".5" d="M173.8 26.2l17.4-3.8-45.6 47.5L191.2 17z"/><path fill="#acb06a" fill-opacity=".5" d="M240.9 110.5l-14.5-2.3-14.9-12 8.8 12.3z"/><path fill="#b9bb74" fill-opacity=".5" d="M172.5 92.8l-14.4-16L169.6 95l7.6 23.7z"/><path fill="#e1f0a2" fill-opacity=".5" d="M80 134h86v7H80z"/><ellipse cx="34" cy="64" fill="#e3eda0" fill-opacity=".5" rx="4" ry="73"/></g></g></svg>