<svg xmlns="http://www.w3.org/2000/svg" viewBox="0 0 2700 900"><defs/><filter id="prefix__a"><feGaussianBlur stdDeviation="12"/></filter><rect width="100%" height="100%" fill="#2e2a31"/><g filter="url(#prefix__a)"><g transform="translate(5.3 5.3) scale(10.54688)"><circle cx="40" cy="61" r="230" fill="#bcffff" fill-opacity=".5"/><ellipse cx="142" cy="46" fill="#75aee4" fill-opacity=".5" rx="146" ry="180"/><circle r="1" fill="#f0c8ad" fill-opacity=".5" transform="matrix(-6.694 19.00477 -30.7095 -10.81671 104.6 80.3)"/><ellipse cx="153" cy="62" fill="#983e54" fill-opacity=".5" rx="26" ry="10"/><circle cx="24" cy="3" r="41" fill="#c0b299" fill-opacity=".5"/><path fill="#e4c0a8" fill-opacity=".5" d="M267.3 88.4L240 54.8l-3.4-29.2L271-9.7z"/><ellipse cx="154" cy="19" fill="#539fd2" fill-opacity=".5" rx="87" ry="34"/><path fill="#868c6d" fill-opacity=".5" d="M61.4 27.4L16.3 20 35.9-6.9l40.3 37.5z"/><ellipse cx="7" fill="#daccca" fill-opacity=".5" rx="13" ry="38"/><circle cx="213" cy="75" r="35" fill="#519dce" fill-opacity=".5"/><circle cx="30" cy="30" r="9" fill="#3297de" fill-opacity=".5"/><circle r="1" fill="#911419" fill-opacity=".5" transform="matrix(-4.94496 -.77979 .897 -5.68824 175.6 63.1)"/><path fill="#d1baaa" fill-opacity=".5" d="M24.3 41.7l13.6-5.6L55.5 49 58 60.5z"/><circle r="1" fill="#59a1cf" fill-opacity=".5" transform="matrix(-10.19161 21.63316 -43.41236 -20.45203 26.3 71.6)"/><path fill="#a45500" fill-opacity=".5" d="M56 17h7v10h-7z"/><path fill="#4d9ac7" fill-opacity=".5" d="M144 70h36v15h-36z"/><path fill="#dcbeaa" fill-opacity=".5" d="M127 89.1l4.5-16.4 15.4 4.2-4.4 16.4z"/><circle r="1" fill="#5f9ec6" fill-opacity=".5" transform="rotate(106.2 22.6 50.7) scale(11.07732 52.96375)"/><ellipse cx="24" cy="75" fill="#a2cade" fill-opacity=".5" rx="18" ry="5"/><path fill="#309ae8" fill-opacity=".5" d="M57.9 6.8l-1.5 4.8-14.3-4.4 1.5-4.8z"/><path fill="#467490" fill-opacity=".5" d="M8 82h64v3H8z"/><path fill="#50b7e7" fill-opacity=".5" d="M151 70l-13 2-12-8z"/><path fill="#b03f4f" fill-opacity=".5" d="M131 53h23v3h-23z"/><path fill="#484946" fill-opacity=".5" d="M91 81h7v4h-7z"/><path fill="#c5c1c0" fill-opacity=".5" d="M-4.6 32.5l27.2 13.4 3.8-5.1L-7.3-16z"/><path fill="#ccc3c3" fill-opacity=".5" d="M22.1 6.8L41 2.7 118.6-6-16-16z"/><circle cx="121" cy="84" r="4" fill="#444542" fill-opacity=".5"/><path fill="#9fa19d" fill-opacity=".5" d="M69.1 21.7l20.8 19.7 10.7-6.6-26.4-1.3z"/><path fill="#e6c8b4" fill-opacity=".5" d="M39 31l8-2-6 17z"/><path fill="#4a7693" fill-opacity=".5" d="M145 82h99v2h-99z"/><path fill="#4798d2" fill-opacity=".5" d="M22 32l6-11-9-4z"/><path fill="#858785" fill-opacity=".5" d="M244.6 44.2l.1 22.2-7.2-13.8 20.1-5.4z"/><path fill="#609fc8" fill-opacity=".5" d="M50.8 89.7L-2.6 34.6 77 73.1 40.6 100z"/><path fill="#2e2d29" fill-opacity=".5" d="M247.3 20.6l-.3-1 7.7-2.2.3 1z"/><path fill="#134158" fill-opacity=".5" d="M249 73h7v3h-7z"/><path fill="#c9c6c4" fill-opacity=".5" d="M241 21h15v25h-15z"/><path fill="#b70000" fill-opacity=".5" d="M174 68l5-6-6-1z"/><path fill="#62a2cc" fill-opacity=".5" d="M179 100l2-116 59 54z"/><circle r="1" fill="#cdc6c1" fill-opacity=".5" transform="matrix(11.18392 -4.1135 1.3372 3.63565 82.2 80.6)"/><path fill="#519ccc" fill-opacity=".5" d="M257.6 3.8l-16 12-13.2-17.6 16-12z"/><path fill="#a69970" fill-opacity=".5" d="M60 27.9L11.5 15.7 28.7 4.8l-5.1 10.5z"/><path fill="#837a95" fill-opacity=".5" d="M129 55h43v11h-43z"/><path fill="#5ba0cc" fill-opacity=".5" d="M63 61L45 25l67 26z"/><path fill="#2c4c5c" fill-opacity=".5" d="M9 81h11v3H9z"/><path fill="#2c4b59" fill-opacity=".5" d="M232.3 80.2l1.2 5.9-7.8 1.7-1.2-5.9z"/><path fill="#65a8d3" fill-opacity=".5" d="M169 69h-30l35 31z"/><path fill="#72baea" fill-opacity=".5" d="M18 82h18v3H18z"/><path fill="#454641" fill-opacity=".5" d="M145 81h7v4h-7z"/><circle r="1" fill="#88979b" fill-opacity=".5" transform="rotate(-139.8 39.8 20.6) scale(13.41036 2.43777)"/><path fill="#436a7d" fill-opacity=".5" d="M42.6 78.7l4.3 21.3L77 77.8 18.1 100z"/><path fill="#c4323c" fill-opacity=".5" d="M146 68h23v2h-23z"/><path fill="#608faa" fill-opacity=".5" d="M39-1.9L55 8.5l12.6 15.4-10.4-19z"/><path fill="none" stroke="#d28f25" stroke-opacity=".5" stroke-width=".5" d="M31.2 5.8q11.6.3 30.9 11"/><path fill="#284451" fill-opacity=".5" d="M197.8 86.8l1.6-6.8 4.8 1.2-1.6 6.8z"/><circle r="1" fill="#5e98bd" fill-opacity=".5" transform="matrix(6.73843 18.64985 -7.98105 2.88366 74 12.5)"/><path fill="#d1bbac" fill-opacity=".5" d="M56.9 53.3l-8-4.1 2.2-4.5 8 4.1z"/><ellipse cx="174" cy="84" fill="#365a6c" fill-opacity=".5" rx="5" ry="4"/><path fill="#5c98bd" fill-opacity=".5" d="M49 25l-5 21 20-21z"/><path fill="#c4c1bf" fill-opacity=".5" d="M72 84h76v1H72z"/><path fill="#bcbcbb" fill-opacity=".5" d="M76.5 81.8l5.9-25.7 37.5 6.9-2.9 18.3z"/><path fill="#63a0c9" fill-opacity=".5" d="M226 65.8l14.5-29.6L221.9-16l-84.4 65.1z"/><path fill="#34779c" fill-opacity=".5" d="M89 57h2v7h-2z"/><path fill="#223d49" fill-opacity=".5" d="M37 81h6v3h-6z"/><path fill="#d2c3bb" fill-opacity=".5" d="M47-14l20 30-7-21z"/><path fill="#5b9bc1" fill-opacity=".5" d="M120 32l-11 22 22 18z"/><path fill="#5fa5d3" fill-opacity=".5" d="M255 100l-25-22 24-3z"/><ellipse cx="253" cy="47" fill="#565553" fill-opacity=".5" rx="6" ry="2"/><path fill="#b53847" fill-opacity=".5" d="M128.9 59l1.3-4.8 2.9.8-1.3 4.8z"/><path fill="#bd3843" fill-opacity=".5" d="M174.3 57.6l-26.7-4.2.1-1 26.7 4.2z"/><path fill="#b5414e" fill-opacity=".5" d="M132.7 63.6l17 5.9-.4.9-17-5.9z"/><path fill="#b7babc" fill-opacity=".5" d="M254 11h2v65h-2z"/><path fill="#7d817e" fill-opacity=".5" d="M116 57l-6 2 12 6z"/><path fill="#bab9b7" fill-opacity=".5" d="M237 52.4l8.9-41.6 3.1 56 22-22.1z"/><path fill="#64a2ca" fill-opacity=".5" d="M262.9 76.2l-81.1-29.4 33.7 48.4 26.4-33.1z"/><path fill="#c2bbb8" fill-opacity=".5" d="M84.3 35.1l-21-9.3.4-1 21 9.4z"/><path fill="#c4c0be" fill-opacity=".5" d="M52 51L34 37l-16 1z"/><path fill="#c2790b" fill-opacity=".5" d="M26.3 6.9l-5.8 6.9-.8-.7 5.8-6.9z"/><circle r="1" fill="#ac6800" fill-opacity=".5" transform="matrix(1.99215 2.51346 -1.84858 1.46517 59.3 21.2)"/><ellipse cx="150" cy="59" fill="#7f7d99" fill-opacity=".5" rx="27" ry="3"/><ellipse cx="42" cy="17" fill="#809e97" fill-opacity=".5" rx="20" ry="3"/><path fill="#5f94b3" fill-opacity=".5" d="M99.4 37.8l-30.2-27 19.3 39.7-1.7-25.3z"/><path fill="#bdbdbe" fill-opacity=".5" d="M-16 26.9l41.1 19.8-7.4-18.9 2.8-19.6z"/><path fill="#807c97" fill-opacity=".5" d="M147 65l-6-12 29 3z"/><path fill="#63a2cb" fill-opacity=".5" d="M38.2 80.7L70.1 91l-42-44.9 1.1 9.1z"/><path fill="#244f73" fill-opacity=".5" d="M40.6 6.6L42.5 3l.9.4L41.5 7z"/><path fill="#669cc2" fill-opacity=".5" d="M171.4 81.7L177 100l-46.6-32.2 24.5 2.1z"/><path fill="#999b9b" fill-opacity=".5" d="M-8 5l-4-8 27 9z"/><path fill="#64a3cd" fill-opacity=".5" d="M149 84h107v1H149z"/><path fill="#345361" fill-opacity=".5" d="M63 81h8v4h-8z"/><path fill="#61a3cf" fill-opacity=".5" d="M21 16l1 15 19-4z"/><path fill="#68aad3" fill-opacity=".5" d="M36 84h34v1H36z"/><path fill="#5397c5" fill-opacity=".5" d="M64 19l-1 5 19-1z"/><path fill="#62a2cc" fill-opacity=".5" d="M124.7 60.8l3.1-67.5 6.6 60.5-27.6 3.2z"/><path fill="#707e83" fill-opacity=".5" d="M246.3 61.9l1.6 4.5-11.6-21 .2 9.2z"/><path fill="#e28e15" fill-opacity=".5" d="M20.6 14l7.4 5.2-.6.8-7.4-5.2z"/><path fill="#60a0ca" fill-opacity=".5" d="M35 35l9-10-23-7z"/><path fill="#b0afae" fill-opacity=".5" d="M126 72h15v13h-15z"/><path fill="#5b9abf" fill-opacity=".5" d="M74.5 73.8v1l-83 1.4v-1z"/><circle cx="92" cy="36" r="2" fill="#f4d7c1" fill-opacity=".5"/><path fill="#63a1c8" fill-opacity=".5" d="M176.8 52.4L232.3-16l7.7 59.9-51.8 40.3z"/></g></g></svg>