<svg xmlns="http://www.w3.org/2000/svg" viewBox="0 0 1200 1200"><defs/><filter id="a"><feGaussianBlur stdDeviation="12"/></filter><rect width="100%" height="100%" fill="#4b402e"/><g filter="url(#a)"><g fill-opacity=".5" transform="translate(2.3 2.3) scale(4.6875)"><circle r="1" fill="#199993" transform="matrix(-1.55572 -81.56725 254.95363 -4.86268 129.3 193)"/><circle r="1" fill="#ffd5d1" transform="rotate(99.8 -12.8 149.7) scale(13.71675 59.16176)"/><circle r="1" fill="#004943" transform="rotate(65.7 -147.9 130.4) scale(99.25271 62.98708)"/><ellipse cx="193" cy="116" fill="#d39b5a" rx="238" ry="5"/><path fill="#232106" d="M4 109L-16-14l279 126z"/><path fill="#c7a6aa" d="M165 221l-18-56-86 20z"/><ellipse cx="65" cy="231" fill="#004849" rx="95" ry="28"/><circle r="1" fill="#00674a" transform="matrix(.12167 27.68504 -90.95312 .39973 40.5 143.2)"/><circle r="1" fill="#558379" transform="matrix(7.08513 -89.54054 27.11822 2.1458 235 208)"/><circle r="1" fill="#706b40" transform="rotate(-84.1 105.5 -48.3) scale(14.80171 34.78162)"/><path fill="#949491" d="M114.1 163l-5 37.8-35-22.9 21.2-20.4z"/><path fill="#fffffe" d="M109 187h37v7h-37z"/><ellipse cx="19" cy="198" fill="#005d52" rx="48" ry="74"/><path fill="#665e18" d="M67.7 95.3L10.8 64.1l34.1-12.7L27.6 3.7z"/><path fill="#aeaac7" d="M132 42h3v127h-3z"/><path fill="#615946" d="M271-1L91-16l85 57z"/><path fill="#00332c" d="M58.8 188.8l43.7 32.1 69 8.7-18.2-8.6z"/><ellipse cx="155" cy="122" fill="#546c40" rx="87" ry="5"/><ellipse cx="241" cy="117" fill="#e3b090" rx="64" ry="3"/><circle r="1" fill="#c58761" transform="matrix(-.08222 2.67264 -57.56998 -1.7711 144.4 114.1)"/><path fill="#080600" d="M13 79h28v33H13z"/><path fill="#510000" d="M157 177l6 6-2 10z"/><path fill="#5b6b7f" d="M172.8 227.1l-87.2-29.8-.9-12.8 40.6 12.9z"/><path fill="#d4b6a6" d="M158 209l25-22-70 7z"/><path fill="#221d12" d="M200.2 68.8l32.2 7.4-8.6 37-32.2-7.4z"/><path fill="#cdb9ad" d="M78.4 179.5l-2.6-5.4 19.8-9.6 2.6 5.4z"/><path fill="#160c0c" d="M247 66h9v47h-9z"/><circle r="1" fill="#0f6152" transform="rotate(82.4 -38.8 209.7) scale(18.79553 13.45019)"/><ellipse cx="134" cy="147" fill="#c7a9a4" rx="2" ry="32"/><path fill="#21200e" d="M61 67h72v43H61z"/><path fill="#606d60" d="M125.5 174.8l99.9 27.9-88.2-33.8-16.3-2.2z"/><circle cx="72" cy="149" r="24" fill="#006556"/><path fill="#423e1c" d="M131.8 41.8L94.5 65.2l-24.3-39 37.3-23.4z"/><path fill="#ebb9a2" d="M141 163h4v33h-4z"/><circle r="1" fill="#2f726b" transform="matrix(23.05965 6.61225 -21.90723 76.39958 205.5 221.4)"/><path fill="#666871" d="M122.1 181l-9.4 4.2-6.1 14.8-.8-21.1z"/><path fill="#967d6b" d="M138 191h25v8h-25z"/><path fill="#e5cfc0" d="M80.4 179.7l22.4 2.9 5.6 6-5.5 2.2z"/><path fill="#ede5d7" d="M135 195.6l-3.8-13.6-10.4 16.5 44.5 7.8z"/><path fill="#416e3f" d="M0 116h123v8H0z"/><circle r="1" fill="#867355" transform="rotate(-105 124.3 -95.4) scale(7.07585 27.78614)"/><ellipse cx="245" cy="119" fill="#fff" rx="21" ry="1"/><path fill="#5e7755" d="M264 121l7 45-80-48z"/><path fill="#231b14" d="M212 106l-72-39 30 45z"/><circle r="1" fill="#765b4b" transform="matrix(-2.23986 -2.44729 3.9824 -3.64486 98 177.6)"/><circle r="1" fill="#fdead9" transform="matrix(-19.858 .97122 -.11024 -2.25409 139.6 187.2)"/><path fill="#222113" d="M19.9 37.5L31.6-1.4l58.6 67.6-23.5-55z"/><path fill="#bf8f58" d="M51 111h71v5H51z"/><ellipse cy="53" fill="#554e1c" rx="15" ry="23"/><ellipse cx="20" cy="174" fill="#005f51" rx="47" ry="44"/><path fill="#605d2c" d="M147.6 108.7l46.8-63L173.8 22l-22.5 80.1z"/><path d="M115.3 198.6l6.3 3-.9 1.8-6.3-3z"/><path fill="#8b7628" d="M51 61l8 15-22-6z"/><ellipse cx="157" cy="252" fill="#1a6762" rx="41" ry="18"/><circle r="1" fill="#faecde" transform="matrix(2.90361 -1.47915 2.57345 5.05174 115 174.7)"/><path fill="#15150b" d="M61.8 76.3l39.7 12.6-42.3-29.4-18.7-8.9z"/><path fill="#695433" d="M244.3 73.8l4.3 34.8-13 1.6-4.2-34.8z"/><path fill="#6f5e48" d="M227.3 49.4l17.5-36.9-22.7 14.8 18.7 12.5z"/><path fill="#1a6958" d="M136 137h62v24h-62z"/><ellipse cx="245" cy="230" fill="#51847f" rx="12" ry="37"/><path fill="#a9beb8" d="M89.4 159.3l.3-1 28.9 8.4-.3 1z"/><path fill="#897b74" d="M106.6 166.8l27.9 16.9 14.1 2.7-22.2-1.2z"/><path fill="#101712" d="M145 73l16 5-26 31z"/><path fill="#294c4d" d="M120.3 239.5l-52.3-20 5.7-15 52.3 20z"/><path fill="#5b4f22" d="M79.7 28.1l53.2 49.6L97 27.6l-7.7 35.6z"/><path fill="#574d27" d="M38 27l22 16-48 1z"/><path fill="#6d6132" d="M239.5 66.4l-31.1-18.8 4.9 15.1-17.4 5.6z"/><path fill="#cabcb7" d="M187.2 196.1l-5.6-8.3-13.9 16.8-26.2 2.1z"/><path fill="#135f58" d="M116 157l15-8v27z"/><path fill="#5a5318" d="M49 68l-3 21 47 3z"/><path fill="#201d0f" d="M10.6-16L30 57.1l.1 39.8 9.8-47.3z"/><path fill="#003236" d="M112 166l-12-1 9 4z"/><path fill="#1d1716" d="M115.8 52.4l-9.6-18.7 8-4.1 9.6 18.7z"/><path fill="#376c60" d="M147.4 161.7l-8.7 27.3 2.4-16.2 59.5-17.9z"/><path fill="#4b4528" d="M135 84l7-77 40 5z"/><circle r="1" fill="#005654" transform="matrix(-9.15262 20.70223 -80.79525 -35.7202 81.3 255)"/><path fill="#39332b" d="M180.5 9.6l8.9 7.2 73.3 72.8-51.4-71.8z"/><path fill="#728794" d="M132 33h3v58h-3z"/><ellipse cx="217" cy="114" fill="#d8a47d" rx="42" ry="1"/><path fill="#bec7bd" d="M84.4 172l36.4 2.8-3 6.8-21.5-16.8z"/><path fill="#0c060a" d="M77 60h11v21H77z"/><path fill="#7e6a64" d="M82 170l4 10 7-9z"/><ellipse cx="252" cy="181" fill="#688a85" rx="27" ry="5"/><circle r="1" fill="#4e826f" transform="rotate(-81 199 -70.7) scale(7.24775 55.44033)"/><ellipse cx="150" cy="116" fill="#d7c0af" rx="28" ry="1"/><path fill="#005248" d="M150.1 213.1l12.8 19.6-49.4-8 32.8-3.7z"/><path fill="#12110b" d="M20 42L3 6l-19 4z"/><ellipse cx="233" cy="123" fill="#546032" rx="50" ry="3"/><path fill="#1c1908" d="M22.8 65.8L-8.4 99l-7.6.3 41.3-7z"/><path fill="#29202f" d="M243 32l-3-19 31 35z"/><circle cx="88" cy="105" r="4" fill="#806032"/><path fill="#1e6d4d" d="M33 120h91v13H33z"/><path fill="#545d67" d="M132 75h4v44h-4z"/><circle r="1" fill="#5b5630" transform="matrix(-2.3859 5.8669 -27.81692 -11.31233 65.2 7.8)"/><path fill="#a1855b" d="M-16 118l29-7-29-1z"/><path fill="#655f2e" d="M245.9 40.3l25.1 6.5-46.6 25.5L251.7 49z"/><path fill="#766f6a" d="M178.3 202.2l-5.3 7 11.3-15.7 5.4 14z"/><path fill="#fff" d="M111.3 174.8l9.9 1.4-.5 3-9.9-1.4z"/><path fill="#646570" d="M71 189.6l31.2-2.4 4 9.6-16.8-11.2z"/><path fill="#fef6ea" d="M127 197l-14-9 30-2z"/></g></g></svg>