<svg xmlns="http://www.w3.org/2000/svg" viewBox="0 0 1440 2160"><defs/><filter id="a"><feGaussianBlur stdDeviation="12"/></filter><rect width="100%" height="100%" fill="#505735"/><g filter="url(#a)"><g fill-opacity=".5" transform="translate(4.2 4.2) scale(8.4375)"><circle r="1" fill="#e8bec8" transform="matrix(-68.02288 96.44743 -75.39707 -53.17638 98.4 206.1)"/><circle r="1" fill="#f2f6e6" transform="matrix(-8.07015 92.24223 -17.3366 -1.51676 130.2 183.5)"/><circle r="1" fill="#8a7d64" transform="matrix(58.06718 -22.01789 29.5859 78.02611 119 16.4)"/><circle r="1" fill="#7f4a3d" transform="rotate(42.6 -134.8 146.8) scale(33.64309 99.80794)"/><circle r="1" fill="#b8d7e0" transform="matrix(12.83676 -23.3313 30.97953 17.04477 110 242)"/><ellipse cx="164" cy="219" fill="#615449" rx="17" ry="157"/><ellipse cx="94" cy="162" fill="#8b675b" rx="38" ry="54"/><circle r="1" fill="#b3c59f" transform="matrix(51.4344 -5.58756 .98055 9.0261 154.5 0)"/><circle r="1" fill="#bb8778" transform="rotate(70.9 -107.8 84.6) scale(16.91782 17.98479)"/><ellipse cx="164" cy="184" fill="#e0c2ac" rx="14" ry="15"/><circle r="1" fill="#283c5c" transform="rotate(164.7 19 132.3) scale(9.6658 26.74123)"/><path fill="#a4c2c1" d="M92 132l48 28H79z"/><ellipse cx="92" cy="47" fill="#3b3d31" rx="36" ry="16"/><circle r="1" fill="#413628" transform="matrix(60.16544 -16.55238 7.65603 27.82854 26.4 99.7)"/><ellipse cx="140" cy="138" fill="#f5f8e7" rx="11" ry="36"/><circle r="1" fill="#bdab9b" transform="matrix(43.6907 -43.28109 13.8366 13.96756 29.4 238)"/><path fill="#2f426a" d="M74 182h18v33H74z"/><path fill="#ffaa9a" d="M138 101l-22-9 1-20z"/><path fill="#ffcca6" d="M68.3 125.9l-7.3 2.7.8-12.6 23.5-.5z"/><path fill="#473e30" d="M105.8 116.8l18-15-16.7 39.7L41 80.8z"/><path fill="#7f4d45" d="M148 176l8 84-16-37z"/><path fill="#fea47f" d="M96.8 169.5l34.7 27L91.1 184l-15.5-33.7z"/><path fill="#41493e" d="M144 62l9 78 22-1z"/><path fill="#fcfde7" d="M144.3 199.3l-24.8-14.6L140 255l1.2-96.6z"/><circle r="1" fill="#2d1b16" transform="matrix(21.16676 -67.3604 6.10399 1.91807 16.4 71)"/><path fill="#8c442a" d="M52 150l15-19 38 74z"/><path fill="#c86262" d="M90 58l38 16-44 9z"/><circle r="1" fill="#ff984f" transform="matrix(7.1764 -10.22584 3.82835 2.6867 109.4 105.8)"/><path fill="#9bafba" d="M70.4 242.3l26.8-39.7 22.4 15-26.8 39.8z"/><circle r="1" fill="#75724a" transform="matrix(20.31356 -59.6707 24.78445 8.43732 0 15.4)"/><ellipse cx="121" cy="130" fill="#a2b2b0" rx="7" ry="24"/><path fill="#d16b50" d="M111.8 158.6L129 164l-10.8 33.3L101 192z"/><circle r="1" fill="#5d6537" transform="rotate(-48 93.7 -33.6) scale(57.24677 17.45701)"/><path fill="#3f3c3b" d="M155.1 224.7l29.9-1.2-16.9-26.9-13.1 10.2z"/><circle r="1" fill="#79895b" transform="matrix(-112.5987 -12.30816 1.2818 -11.72626 160.4 19.8)"/><path fill="#fffbe8" d="M131.6 243.7l9.3 27.3h4l-4.6-41.2z"/><path fill="#747a78" d="M95 130h15v43H95z"/><path fill="#4f2f2a" d="M119.7 84.4l-29.2-5.2 11.3 12.2-46.9 59.5z"/><path fill="#f4f6ed" d="M151.3 115.8l-11.1 32.1-11.5-55.8 4.5 3.9z"/><circle r="1" fill="#86725f" transform="matrix(57.9358 -1.70866 .84725 28.7279 13.2 174)"/><path fill="#cba695" d="M89.9 103.3l8.8-9.6 7.8-5.8-20.4 9.5z"/><circle r="1" fill="#566244" transform="rotate(-48.4 176.6 -141.2) scale(30.63824 38.43352)"/><path fill="#fff" d="M147 0h13v4h-13z"/><path fill="#898e80" d="M113.8 198.1l6.6-2.3 11.8 34-6.6 2.4z"/><circle r="1" fill="#96aab8" transform="rotate(-107.2 120 84.3) scale(26.53988 5.7445)"/><path fill="#a84a2d" d="M108.6 114.2l-22.8 1.9-19.2 33.7 8.6-10.3z"/><ellipse cx="169" cy="148" fill="#e2ccb1" rx="23" ry="3"/><path fill="#171212" d="M127.2 97.2L112.4 116l-1.6-1.3L125.6 96z"/><path fill="#343949" d="M154.1 153.4l-2.3 14.2 17.2-7.9 12.9-4.5z"/><path fill="#39332e" d="M111.3 43.8l-1 20.7-16.8-25.6-36.7 53.3z"/><path fill="#cfa997" d="M109.7 188.6l-32-26.6 1.7-10.4 5.6-10.2z"/><path fill="#a14645" d="M152 194l-12 25 8-48z"/><path fill="#716b61" d="M138.3 212.6l12.8-1.8 4.6 32.6-12.8 1.8z"/><path fill="#313849" d="M44 270l25-28 24 19z"/><path fill="#381f1d" d="M18 145l-20-13 19-29z"/><path fill="#a4afbb" d="M141 89.5l10.9 31.3-8.7-21.8-16.6-3.4z"/><path fill="#b78676" d="M25 72.3l-2 19.9-4-.5 2-19.9z"/><path fill="#716649" d="M36 28l23-18-22 82z"/><path fill="#cc6f64" d="M87 77l41-13-4 16z"/><ellipse cx="43" cy="153" fill="#7c4531" rx="33" ry="4"/><path fill="#f48b5b" d="M122.3 86.7l7 7.4-32 13.1 4.4 14.8z"/><path fill="#b7715a" d="M-16 146.1l65.5 6.7 9.4-30.5 20 22z"/><circle r="1" fill="#1e201e" transform="matrix(-1.631 -1.67414 9.18337 -8.94674 103.3 122.2)"/><path fill="#ffaea0" d="M8 139l-12 9-3 14z"/><path fill="#1d3050" d="M78 208h13v9H78z"/><path fill="#3c392d" d="M32 111h10v31H32z"/><ellipse cx="161" cy="132" fill="#b4abaa" rx="2" ry="9"/><path fill="#4d442e" d="M81 124h8v19h-8z"/><path fill="#372628" d="M61-12l-19-4-8 49z"/><path fill="#bbbea7" d="M137 185l-17 7 23-46z"/><path fill="#9d8d7a" d="M142 246l38-1-29 25z"/><path fill="#afbc9c" d="M85.6 135.5l3-7.4 15.8 6.4-3 7.4z"/><path fill="#ffbd9e" d="M60 115h15v9H60z"/><circle r="1" fill="#e5ebea" transform="rotate(-2.8 2329 -2694) scale(10.38981 9.69764)"/><path fill="#59633e" d="M185 88.9L79 11.8l49.1 26.8-1.5 53z"/><path fill="#4a2c25" d="M118.7 86.2l-20.2 21.9L111 79.7l-42.6 2.8z"/><path fill="#50352e" d="M114.9 96.8l15.1 3.3-36.4 29 20.2-13.5z"/><path fill="#918680" d="M62 220.3L46 230l7.5 40.5 16.2-48z"/><circle cx="161" cy="240" r="4" fill="#211c16"/><path fill="#9bacb4" d="M76 219l43-16-46 41z"/><path fill="#a3b9bb" d="M81 158l13 10-1-36z"/><path fill="#22160c" d="M4.7 151.6l-.6-.8 33.2-22.4.6.8z"/><circle r="1" fill="#a05a40" transform="rotate(115.1 -11.5 129) scale(5.8519 17.57648)"/><path fill="#d6613e" d="M70 153l14-1-8-21z"/><path fill="#9a796b" d="M93.5 73.8l.6.9-33.6 23.5-.6-.9z"/><path fill="#6b6862" d="M102.3 154.2l12.3-11.5 4.2-33.1-18.2 18.5z"/><path fill="#22190a" d="M.5 101l14.8-31.8 8.2 3.8-14.8 31.8z"/><path fill="#826b55" d="M23.4 67.2L48.6 2.3 30.7 55l-12.5 63.1z"/><path fill="#6e594a" d="M123 165h13v4h-13z"/><path fill="#424236" d="M101.5 116.3l2.6 2.2-49.6-43.1 53.8 55.2z"/><path fill="#6e713e" d="M22 11L1 55l9 26z"/><circle r="1" fill="#bf765e" transform="rotate(163 4.1 76.2) scale(26.89913 3.14869)"/><path fill="#a58f7a" d="M93.3 93.2l6 8.1-8.7.2-14.7 5.8z"/><path fill="#422620" d="M89 67h13v4H89z"/><circle cx="70" cy="155" r="4" fill="#2f1b17"/><ellipse cx="72" cy="132" fill="#3a2f29" rx="3" ry="9"/><circle r="1" fill="#ab9882" transform="matrix(20.80312 3.48125 -.4458 2.66397 167 234.6)"/><path fill="#eb9776" d="M124.7 183.1l-21.1 3.8-29.2-29 30.6 19.5z"/><ellipse cx="15" cy="167" fill="#927f6f" rx="46" ry="9"/><path fill="#4f4347" d="M96 33l36 14-18 25z"/></g></g></svg>