<svg xmlns="http://www.w3.org/2000/svg" viewBox="0 0 1800 1013"><defs/><filter id="prefix__a"><feGaussianBlur stdDeviation="12"/></filter><rect width="100%" height="100%" fill="#503a3c"/><g filter="url(#prefix__a)"><g transform="translate(3.5 3.5) scale(7.03125)"><circle r="1" fill="#fff" fill-opacity=".5" transform="matrix(4.62119 -42.59494 187.802 20.37492 129 23.7)"/><circle r="1" fill="#9faeaf" fill-opacity=".5" transform="matrix(-203.16868 -43.45306 15.34263 -71.73585 126.7 29.4)"/><circle r="1" fill="#e0e0e6" fill-opacity=".5" transform="matrix(-11.9048 44.78527 -70.84283 -18.8314 160.5 11.2)"/><path fill="#270000" fill-opacity=".5" d="M236 63l-2-40 21 48z"/><circle r="1" fill="#565e58" fill-opacity=".5" transform="rotate(-170 66.6 38.6) scale(163.78805 31.28278)"/><circle r="1" fill="#010600" fill-opacity=".5" transform="matrix(-13.26034 -.77728 2.50764 -42.77995 35.9 128.4)"/><circle r="1" fill="#020000" fill-opacity=".5" transform="matrix(-89.38105 18.50993 -2.23464 -10.79067 216.7 143)"/><path fill="#6a6864" fill-opacity=".5" d="M260 43L56 125l125 14z"/><path fill="#0c130f" fill-opacity=".5" d="M93.7 110.8l19.4-27.9-66 24.5 2.6 12.1z"/><path fill="#f2f3f7" fill-opacity=".5" d="M244 50l-8-40 29 34z"/><circle r="1" fill="#5a5d5e" fill-opacity=".5" transform="rotate(-36.2 126.9 10.4) scale(51.0643 21.28919)"/><circle r="1" fill="#b6b8c2" fill-opacity=".5" transform="rotate(31.3 15.1 88.7) scale(58.5686 30.25454)"/><path fill="#44423f" fill-opacity=".5" d="M271 61.5L225.5-16h-16.2l43.4 35.1z"/><ellipse cx="11" cy="78" fill="#85878b" fill-opacity=".5" rx="94" ry="6"/><circle r="1" fill="#585447" fill-opacity=".5" transform="matrix(-21.96823 30.57202 -13.1233 -9.43004 244 90.5)"/><path fill="#120900" fill-opacity=".5" d="M248 4l-5-13 28 16z"/><path fill="#888c8e" fill-opacity=".5" d="M222.7 45.6l-30.5 33.9-42.7-6-62.7-2.2z"/><path fill="#e6e3e1" fill-opacity=".5" d="M219 21h15v28h-15z"/><path fill="#452b20" fill-opacity=".5" d="M243.1 74.5L230 28.2 248.1 58l-5.9 32.9z"/><circle cx="207" cy="33" r="3" fill="#170e00" fill-opacity=".5"/><circle r="1" fill="#4a3c38" fill-opacity=".5" transform="matrix(59.66682 -2.67744 .16808 3.7456 38.5 69.3)"/><path fill="#00110e" fill-opacity=".5" d="M16.7 110.6L-16 126.8l38.7-6.4-12.9-20.3z"/><path fill="#b2c7bd" fill-opacity=".5" d="M0 124h17v4H0z"/><ellipse cx="74" cy="90" fill="#535856" fill-opacity=".5" rx="36" ry="10"/><circle r="1" fill="#5c5857" fill-opacity=".5" transform="matrix(-44.85034 18.02972 -9.98993 -24.85072 143.9 120.4)"/><path fill="#a4a4ab" fill-opacity=".5" d="M30.3 41.2l136.7 27L-13.6 5 2 54.5z"/><circle r="1" fill="#b1afa9" fill-opacity=".5" transform="matrix(-33.65964 -10.87177 2.5349 -7.84818 209.5 57.6)"/><path fill="#7c7f81" fill-opacity=".5" d="M116 109L95 54l52 8z"/><path fill="#462f20" fill-opacity=".5" d="M201 62h7v23h-7z"/><circle r="1" fill="#434340" fill-opacity=".5" transform="rotate(-92.1 151.5 -97.1) scale(1 37.85437)"/><path fill-opacity=".5" d="M238 105l-10-7-5 6z"/><ellipse cx="171" cy="34" fill="#d9d9d7" fill-opacity=".5" rx="33" ry="13"/><path fill="#918c81" fill-opacity=".5" d="M222 91l4.3 9.4-19.2 1.4 9.4-71.7z"/><path fill="#868784" fill-opacity=".5" d="M56-6l47 42L84 6z"/><path fill="#0e0a09" fill-opacity=".5" d="M88.8 113.3L60.9 116 23.4 96.1l2.9-4.5z"/><path fill="#4f4a41" fill-opacity=".5" d="M247.1 12.2L230.9-6.6 218.6-16l14.2 20.5z"/><path fill="#4a4942" fill-opacity=".5" d="M103.1 32.7l.7-.8 89 77.4-.6.8z"/><path fill="#5c544e" fill-opacity=".5" d="M41 116l80 2-56 41z"/><path fill="#040402" fill-opacity=".5" d="M9 130l51 22-18-23z"/><path fill="#2d1609" fill-opacity=".5" d="M230 73l-2-6-11 4z"/><path fill="#282622" fill-opacity=".5" d="M226.8 99.2l9.6-14.2-10.1 3.9-3-5.4z"/><path fill="#8c8374" fill-opacity=".5" d="M236 86h9v24h-9z"/><path fill="#393c30" fill-opacity=".5" d="M27 159l1-74-22 74z"/><path fill="#860f00" fill-opacity=".5" d="M241 39l-6-18v17z"/><path fill="#a6a6a9" fill-opacity=".5" d="M66 72h26v4H66z"/><path fill="#686464" fill-opacity=".5" d="M95 62L33 42l-8 27z"/><path fill="#c6c7ce" fill-opacity=".5" d="M78.9-5.6L105.2 19l-6.1 6.6L72.8 1z"/><path fill="#6f6260" fill-opacity=".5" d="M107 113l95-10 3 32z"/><path fill="#413d3a" fill-opacity=".5" d="M270.8 40.9l-34.5 22.6 11-8.1 6-7.4z"/><path fill="#bbbcc0" fill-opacity=".5" d="M107.8 58L54 29.8 43.1-16l73.5 67.9z"/><path fill="#180700" fill-opacity=".5" d="M204 156.5l-3.6-15.6 49.6-11.4 3.6 15.6z"/><path fill="#191c1c" fill-opacity=".5" d="M129 110l-9-1 7-14z"/><circle r="1" fill="#c6cad0" fill-opacity=".5" transform="rotate(140.1 123 48.8) scale(2.23964 30.69335)"/><path fill="#3f251e" fill-opacity=".5" d="M234 56l16 16-16-40z"/><path fill="#bfc0c2" fill-opacity=".5" d="M131 44h69v13h-69z"/><path fill="#39332d" fill-opacity=".5" d="M226.3 53l-18.8-3 .2-1 18.8 3z"/><path fill="#dfdfe0" fill-opacity=".5" d="M213 23h22v10h-22z"/><path fill="#8e8f8b" fill-opacity=".5" d="M109.7 98.8l8.6-15 6 22.1-7.9 1z"/><path fill="#7a7b77" fill-opacity=".5" d="M118.6 134l-16-32.4-4.7-13.3 8.8 11.4z"/><path fill="#302d27" fill-opacity=".5" d="M242 51h3v44h-3z"/><path fill="#7d7c74" fill-opacity=".5" d="M216.1 96.3l-24.9-26.2 8.3 39.7 18.2 5.2z"/><path fill="#d0d2d1" fill-opacity=".5" d="M271 41.5l-32 10.2 7.1-19 24.9 9.9z"/><path fill="#090c0c" fill-opacity=".5" d="M53.5 115.7l22.5.5 26.6-13.2-3.2-3.7z"/><path fill="#7b7b75" fill-opacity=".5" d="M263.4 47.2l7.6 20.6L249.7 93l-6.1-24.3z"/><path fill="#484f4e" fill-opacity=".5" d="M-9.4 115.1l47.6-66.9-28 2.1 9 61.9z"/><path fill="none" stroke="#5d5b58" stroke-opacity=".5" stroke-width=".5" d="M57-16q.8 14.6 199 175"/><path fill="#ababa7" fill-opacity=".5" d="M209.6 74.3l-3.3-8.8-10.4-20.6L231.6 60z"/><path fill="#777770" fill-opacity=".5" d="M216.2 40.2l-8 .6-.4-5 8-.6z"/><path fill="#65696b" fill-opacity=".5" d="M94.9 84.6l-47.8 18.8 2.6-14.5 26.1-5.1z"/><path fill="#413326" fill-opacity=".5" d="M236 49l14 4-2 17z"/><path fill="#a09d92" fill-opacity=".5" d="M241 74l-24-10 26-1z"/><path fill="#4a5151" fill-opacity=".5" d="M177.3 102.1l.7 3.7-50 2.8 31.5-20.7z"/><path fill="#a02415" fill-opacity=".5" d="M233 31h7v13h-7z"/><path fill="#69332d" fill-opacity=".5" d="M230.2-5.7l1-.1 6.6 41.5-1 .1z"/><path fill="#5f6554" fill-opacity=".5" d="M252.8 151.9l1.4-28 3 .2-1.4 28z"/><path fill="none" stroke="#000" stroke-opacity=".5" stroke-width=".5" d="M242.4 73.5q3 21.6 8 23.6"/><path fill="#454741" fill-opacity=".5" d="M76.7 7.2L110 36l-.6.7L76 8z"/><path fill="none" stroke="#5d5d59" stroke-opacity=".5" stroke-width=".5" d="M117.2 49.6Q83.1 20 46.1-15.8"/><path fill="#5c4b41" fill-opacity=".5" d="M48 99l7 17 1-9z"/><path fill="#70777b" fill-opacity=".5" d="M199.1 83.7L172 95.2l-3.7-22.3 37.7-14z"/><path fill="#7c776b" fill-opacity=".5" d="M227.4 77L198 105.6l41.4-27.8 14.4 33.8z"/><path fill="#3e3f3b" fill-opacity=".5" d="M99.9 101.8l-5.5-25.7-6 12.5-31.1 13.9z"/><path fill="#141c13" fill-opacity=".5" d="M113.6 107.6L99.2 87.4l7.2 5.9 4.7 14.6z"/><path fill="#686160" fill-opacity=".5" d="M123.8 128.7l-19.4-28.5-3.7 8.6-37.8 10.6z"/><path fill="#cfd0d6" fill-opacity=".5" d="M268 52L234 5l4 27z"/><ellipse cx="85" cy="49" fill="#a2a1a2" fill-opacity=".5" rx="23" ry="5"/><path fill="#61605b" fill-opacity=".5" d="M129.5 60.2L233.2 159 111.9 46.4 71.3 9z"/><path fill="#6b8072" fill-opacity=".5" d="M10.9 134.9l-25.1 4.3-1.6 7 8.8-18.1z"/><path fill="#cecfd2" fill-opacity=".5" d="M215 14h18v27h-18z"/><path fill="#c5c6c7" fill-opacity=".5" d="M217.5 52.5l-7 7.7-42.2-32.1 37.6 22.5z"/><path fill="#35342f" fill-opacity=".5" d="M24 71l-35 3 33-12z"/><path fill="#c9cbcd" fill-opacity=".5" d="M136.7 63.7l-.7.8L71.3 6.3l.7-.8z"/><path fill="#767171" fill-opacity=".5" d="M31.9 66.9L90 51.2l20.7 10L48 68.7z"/><path fill="#bcbfc7" fill-opacity=".5" d="M92 2h140v16H92z"/><path fill-opacity=".5" d="M-7 120l21 2 3-7z"/><ellipse cx="31" cy="119" fill="#170807" fill-opacity=".5" rx="3" ry="30"/><path fill="#030504" fill-opacity=".5" d="M235.3 106.5l-17-2 .4-3 17 2z"/><path fill="#595853" fill-opacity=".5" d="M202 49h21v2h-21z"/><ellipse cy="42" fill="#999aa1" fill-opacity=".5" rx="41" ry="6"/><path fill="#302e1c" fill-opacity=".5" d="M212.7 31.4l-7 4-.4-.8 7-4z"/></g></g></svg>