<svg xmlns="http://www.w3.org/2000/svg" viewBox="0 0 1800 1013"><defs/><filter id="prefix__a"><feGaussianBlur stdDeviation="12"/></filter><rect width="100%" height="100%" fill="#2b434e"/><g filter="url(#prefix__a)"><g transform="translate(3.5 3.5) scale(7.03125)"><circle r="1" fill="#f0deda" fill-opacity=".5" transform="matrix(22.27404 102.6834 -177.4093 38.48354 102.2 41.8)"/><ellipse cx="38" cy="38" fill="#dfddde" fill-opacity=".5" rx="155" ry="34"/><circle r="1" fill="#525f6b" fill-opacity=".5" transform="matrix(3.87305 34.79525 -164.82449 18.34655 123.4 115)"/><circle r="1" fill="#433429" fill-opacity=".5" transform="matrix(-245.3154 -13.77963 .83264 -14.82327 212 0)"/><path fill="#525456" fill-opacity=".5" d="M58.3-8.9l15 10L39.6 51l-15-10z"/><circle r="1" fill="#00383e" fill-opacity=".5" transform="matrix(38.4735 3.90308 -.83713 8.25174 210 94.2)"/><circle r="1" fill="#97969f" fill-opacity=".5" transform="matrix(-47.40177 -4.3242 .83398 -9.14205 202.7 116.4)"/><circle r="1" fill="#e6e6e9" fill-opacity=".5" transform="matrix(-20.2178 -57.41154 20.08508 -7.07307 0 7.4)"/><circle r="1" fill="#888c96" fill-opacity=".5" transform="rotate(65 -20.1 116.6) scale(33.5376 70.02965)"/><circle r="1" fill="#e0e2e5" fill-opacity=".5" transform="matrix(-3.1228 -14.69162 46.60493 -9.90618 94.6 27)"/><ellipse cx="217" cy="143" fill="#0e0f1c" fill-opacity=".5" rx="46" ry="16"/><ellipse cx="178" cy="47" fill="#b5aea0" fill-opacity=".5" rx="43" ry="26"/><path fill="#626467" fill-opacity=".5" d="M90.6 32.8L65.2 2.7l67.7 62.9-20.7-14.3z"/><circle r="1" fill="#555967" fill-opacity=".5" transform="matrix(2.23257 19.1242 -63.42485 7.40425 114.7 134)"/><circle r="1" fill="#375c62" fill-opacity=".5" transform="matrix(48.62894 25.57693 -2.38822 4.54068 178.7 87)"/><path fill="#a0949d" fill-opacity=".5" d="M271 135l-37-10 36-4z"/><path fill="#938c87" fill-opacity=".5" d="M255 91l16-82-120 1z"/><path fill="#d4d5d6" fill-opacity=".5" d="M135.2 11.8l21.7 1.4 3.5 26.6L54.3 2.3z"/><path fill="#8c8d8e" fill-opacity=".5" d="M48 46V1L16 33z"/><path fill="#2c2a2d" fill-opacity=".5" d="M54 9l1 18 9-20z"/><ellipse cx="24" cy="91" fill="#808692" fill-opacity=".5" rx="137" ry="23"/><path fill="#d4d6d9" fill-opacity=".5" d="M107 54l-53-2 9-42z"/><path fill="#181715" fill-opacity=".5" d="M231.5 93.8l-.8 3-58.2-14.6.8-3z"/><path fill="#505966" fill-opacity=".5" d="M0 93h89v5H0z"/><path fill="#c3c4ca" fill-opacity=".5" d="M0 48h92v20H0z"/><path fill="#a9a9a6" fill-opacity=".5" d="M56 16L18-16l17 45z"/><path fill="#1f464d" fill-opacity=".5" d="M271 88l-89 9 89 22z"/><path fill="#a0a2a7" fill-opacity=".5" d="M207.3 122.6l31.9-.3-84.1-7.3 35.7 9.6z"/><path fill="#464b55" fill-opacity=".5" d="M33 40h17v8H33z"/><path fill="#b3aea2" fill-opacity=".5" d="M157 44h73v29h-73z"/><path fill="#a5a98c" fill-opacity=".5" d="M250.5 91.5l-85.7-15 .7-4 85.7 15z"/><path fill="#504a48" fill-opacity=".5" d="M188.2 84l-29.3-6.4-61.8-39.9 32 26.9z"/><ellipse cx="209" fill="#624c3a" fill-opacity=".5" rx="90" ry="8"/><path fill="#45474c" fill-opacity=".5" d="M75 11l2-6-19 5z"/><path fill="#336a76" fill-opacity=".5" d="M165.7 81.4l103.7 23-94-6.9-21.8-11.7z"/><path fill="none" stroke="#007569" stroke-opacity=".5" stroke-width=".5" d="M237.2 81.3q-58.7-5.6-76.3-10.8"/><path fill="#d9d9d9" fill-opacity=".5" d="M70.5 33.2L51.1 47.3l-7.6-10.5 19.4-14.1z"/><path fill="#7b7877" fill-opacity=".5" d="M269 8l2 37-84-37z"/><path fill="#d7d7d8" fill-opacity=".5" d="M-2.9-25.5l38.2 8.1-10.4 49-38.2-8.2z"/><path fill="#a9acad" fill-opacity=".5" d="M57 59l105 19-62-32z"/><path fill="#6e7072" fill-opacity=".5" d="M82.1-6.5L38 22.1 9.9-16l34.4 39z"/><circle r="1" fill="#dadbdf" fill-opacity=".5" transform="rotate(-137.6 58.4 -6.3) scale(17.16172 10.16027)"/><path fill="#226c61" fill-opacity=".5" d="M257 81l-42-4 20 8z"/><path fill="#838a93" fill-opacity=".5" d="M157.1 89.6l-31.6-31.1 12.4 50.9 56.5-6.2z"/><circle r="1" fill="#2c2825" fill-opacity=".5" transform="rotate(-84 172.8 -88) scale(2.9542 23.90383)"/><ellipse cx="242" cy="69" fill="#a19b91" fill-opacity=".5" rx="43" ry="10"/><circle r="1" fill="#1a7e74" fill-opacity=".5" transform="matrix(.12418 -.99226 36.31648 4.54484 196.4 76.5)"/><ellipse cx="24" cy="33" fill="#636a75" fill-opacity=".5" rx="8" ry="3"/><circle r="1" fill="#6d737d" fill-opacity=".5" transform="matrix(-.83316 5.8673 -46.04296 -6.53814 218 115.1)"/><ellipse cx="8" cy="125" fill="#8d8a96" fill-opacity=".5" rx="50" ry="5"/><path fill="#dedfdf" fill-opacity=".5" d="M62 13l13-3-14 23z"/><path fill="#3d3f40" fill-opacity=".5" d="M55-5l5 19L44-4z"/><circle r="1" fill="#a89a89" fill-opacity=".5" transform="rotate(95.4 67.8 138.2) scale(2.12595 28.52484)"/><path fill="#383330" fill-opacity=".5" d="M146.9 70.1l-1.9.1 30.8 13.2-14.6-9.8z"/><ellipse cx="40" cy="80" fill="#8c919b" fill-opacity=".5" rx="86" ry="11"/><path fill="#9a9ea2" fill-opacity=".5" d="M159 74.9l-10.2-46.2-20.6 7.1 14.7 29.8z"/><path fill="#c7c3bb" fill-opacity=".5" d="M163.7 35.5l7.3 34.3-12.7 2.7-7.3-34.3z"/><path fill="#54585c" fill-opacity=".5" d="M47.6 28.3L58 16.9 54.9 28l-20.6 9.9z"/><path fill="#555f68" fill-opacity=".5" d="M110.4 8.9l56.9 5.6 20.6.2L2.2-11.7z"/><path fill="#434b55" fill-opacity=".5" d="M156 122h27v22h-27z"/><path fill="#696f7a" fill-opacity=".5" d="M163 108l-24 42-43-39z"/><circle r="1" fill="#6d6f75" fill-opacity=".5" transform="matrix(22.66855 26.77728 -.76323 .64612 78.6 15.1)"/><circle r="1" fill="#9e9b99" fill-opacity=".5" transform="rotate(121.8 89.5 78.3) scale(15.31024 40.66738)"/><path fill="#dbdddf" fill-opacity=".5" d="M74.7 6.4L114 8.3l-.8 6.7L88 23.4z"/><path fill="#838891" fill-opacity=".5" d="M53.7 112.5l70.4 12.7-38.8-56.7 67.7 4.7z"/><path fill="#d4d4d8" fill-opacity=".5" d="M-15 22.4l-1 40.3 51.7-4.9-6.9-17.7z"/><circle r="1" fill="#898a94" fill-opacity=".5" transform="rotate(104.1 -38 48.7) scale(7.04342 45.10116)"/><path fill="#60626e" fill-opacity=".5" d="M32.6 115.4l-65.6-6.9.4-4 65.6 7z"/><path fill="#f1f4f4" fill-opacity=".5" d="M62.4 6l-3.9.8-1-4.9 4-.7z"/><path fill="#b9bab8" fill-opacity=".5" d="M30.1 14.5l-2 6.4-5.6 11.2 21.8-4.5z"/><path fill="#d0d1d3" fill-opacity=".5" d="M158.8 17.5L125 38.1l-16.7 6.6-22.2-22.6z"/><ellipse cx="90" cy="143" fill="#545b67" fill-opacity=".5" rx="28" ry="14"/><path fill="#909191" fill-opacity=".5" d="M62.9 26.8l32 14.6L62 23.5 38.3-16z"/><path fill="#2d3a42" fill-opacity=".5" d="M277.5 4l-68.9 5V8l68.8-5z"/><path fill="#d3d3d4" fill-opacity=".5" d="M24.9 36.6l12.9 22.6 12.9-7.4-63.2-17.4z"/><ellipse cx="67" cy="96" fill="#58626d" fill-opacity=".5" rx="16" ry="5"/><path fill="#5f6670" fill-opacity=".5" d="M144 124h48v9h-48z"/><path fill="#363b47" fill-opacity=".5" d="M46.1 30l10.7-7.5 1.1 1.6-10.7 7.4z"/><path fill="#2b3541" fill-opacity=".5" d="M162 134h37v10h-37z"/><path fill="#565b64" fill-opacity=".5" d="M26 35l24 10-14 2z"/><ellipse cx="76" cy="64" fill="#aeb0b3" fill-opacity=".5" rx="42" ry="6"/><path fill="#2b8d87" fill-opacity=".5" d="M189.8 75.3l-29.7-3.6v-1l29.8 3.6z"/><path fill="#b9babc" fill-opacity=".5" d="M189 120h21v2h-21z"/><path fill="#3e7d87" fill-opacity=".5" d="M160 79.8l28 10.8-2 5.6-28-10.8z"/><path fill="#dadbde" fill-opacity=".5" d="M74 11l-14 2 37 26z"/><path fill="#5a5d62" fill-opacity=".5" d="M84.8 24.5l20.1 16.2 28 22.8-29.1-19.8z"/><path fill="#7c7a85" fill-opacity=".5" d="M20.4 148.8l61.8-39.9L63 138l-51.3 21z"/><ellipse cx="78" cy="1" fill="#50575e" fill-opacity=".5" rx="34" ry="2"/><path fill="#6e847a" fill-opacity=".5" d="M275.8 92l-82-13 .4-3 82 13z"/><path fill="#b4b5b5" fill-opacity=".5" d="M133.4 31.1l-20.1 17.8 17.2 4.8 38.2-30.6z"/><path fill="#6b6d73" fill-opacity=".5" d="M9.7-13L37 16.3l-.7.7L9-12.3z"/><path fill="#1d2f37" fill-opacity=".5" d="M260.6 109l10.4 6.8v4.2l-40.9-10.1z"/><path fill="#959290" fill-opacity=".5" d="M253.7 81.9l-23.1-4.2-33.8-67L271 78z"/><circle r="1" fill="#6a727f" fill-opacity=".5" transform="rotate(-83.4 60 23) scale(1 19.95515)"/><path fill="#333e4d" fill-opacity=".5" d="M91 2h15v4H91z"/><path fill="#2b525b" fill-opacity=".5" d="M211 95h45v12h-45z"/><path fill="#d7d9d9" fill-opacity=".5" d="M69.4 4l-2.2 2.8.4-.5 27.9 2.3z"/><circle r="1" fill="#a4a696" fill-opacity=".5" transform="rotate(-166.9 98.9 29.2) scale(32.201 1)"/><path fill="#6f6f6e" fill-opacity=".5" d="M72.3 3.9L46.2 2.2l3.5 31.2.4-33.9z"/><path fill="#3a3a39" fill-opacity=".5" d="M174.8 83.6l-32-16.3.4-1 32 16.4z"/></g></g></svg>