<svg xmlns="http://www.w3.org/2000/svg" viewBox="0 0 1920 1080"><defs/><filter id="a"><feGaussianBlur stdDeviation="12"/></filter><rect width="100%" height="100%" fill="#49362c"/><g filter="url(#a)"><g fill-opacity=".5" transform="matrix(7.5 0 0 7.5 3.8 3.8)"><circle r="1" fill="#fff" transform="rotate(94.4 65.5 64.5) scale(25.41676 146.16078)"/><path fill="#bcc7b3" d="M82.8 147.3l-91-1.6 1.4-79 91 1.6z"/><circle r="1" fill="#f6ffff" transform="matrix(1.0902 -14.5931 93.2527 6.96658 109.2 8.5)"/><circle r="1" fill="#b2c5b7" transform="rotate(-139.4 108 5) scale(35.63996 16.27898)"/><circle r="1" transform="matrix(6.6812 -4.85693 35.63697 49.02226 207.6 10)"/><path fill="#c8dae1" d="M60 66l55 45 45-1z"/><path fill="#162a27" d="M34 7l45 15-46 107z"/><path fill="#c1ccc4" d="M96 35h15v62H96z"/><circle r="1" fill="#868d7a" transform="rotate(105.9 70 165.2) scale(21.02508 77.28166)"/><circle r="1" fill="#c7f0ff" transform="rotate(101 70.5 68.5) scale(20.67855 54.27971)"/><ellipse cx="148" cy="54" fill="#6a868f" rx="52" ry="10"/><path fill="#d3d1ba" d="M210.8 74.9l-17.3 46.8-7.8-39.7-57.1-9.5z"/><path fill="#00090a" d="M191 114l-6-34-76 13z"/><ellipse cx="67" cy="87" fill="#aeb4a4" rx="13" ry="42"/><ellipse cx="115" cy="140" fill="#1e180c" rx="58" ry="30"/><path fill="#d8edff" d="M122.5 113.2l-.8-9 39.8-3.4.8 9z"/><path fill="#11100a" d="M271 38l-68 37 6-60z"/><ellipse cx="41" cy="72" rx="11" ry="20"/><path fill="#edffff" d="M75-16L-16 6l157 8z"/><path fill="#a7c1a4" d="M271 133.7l-22.5-46.9-4.2-19.2 18-6.4z"/><path fill="#9da697" d="M28 38l9 93-53-39z"/><path fill="#0a0812" d="M209.9 118l4-85.5 9.3 89 1.7 37.5z"/><circle r="1" fill="#b9e3ff" transform="matrix(-15.20789 -8.73011 4.43837 -7.73166 230.2 14)"/><ellipse cx="215" fill="#010d10" rx="25" ry="8"/><path fill="#26241e" d="M128 33l12 46-43 36z"/><circle r="1" fill="#03090e" transform="matrix(5.69834 -.20922 .88288 24.0458 88.5 71.4)"/><circle r="1" transform="matrix(-6.9888 2.11004 -8.1623 -27.03486 242 90.9)"/><path fill="#ddecff" d="M152.1 110.3l-38.8-11.9-1.4 3.7-2 7z"/><ellipse cx="20" cy="33" fill="#2d483c" rx="55" ry="24"/><path d="M212 3l22 42-44-46z"/><ellipse cx="100" cy="29" fill="#154337" rx="23" ry="7"/><path fill="#0e2124" d="M211.2-16l50.7 33.3-6.8 64.9.3-64.6z"/><path fill="#000a00" d="M207 25h49v6h-49z"/><path fill="#73675b" d="M87.2 108.8L91 76.7l-36.9 66 46.5-5.9z"/><circle r="1" fill="#020509" transform="matrix(14.83279 -21.9593 10.1224 6.83734 169 104.5)"/><path fill="#a2a38b" d="M225 124h31v19h-31z"/><path fill="#375147" d="M171 29l37 48-89-41z"/><path fill="#cdcabd" d="M156.6 66.3l7.9 20.3 17.2-5.4 14.7 1.1z"/><path fill="#b0afac" d="M117 45l6 23-36-37z"/><path fill="#afd2ef" d="M214.3 28.3L98.6 12.9l28.1 18.2 8.5 1.8z"/><path fill="#a6b9b2" d="M232 97l1-25h-9z"/><path fill="#ebddbd" d="M98 71h12v18H98z"/><path fill="#444f59" d="M112.4 43.3L94.9 59.8l-36.6 1.5-67.9-19.6z"/><path fill="#cbe6fb" d="M249.5 12.2l4.5 11.2-29.6 1.8 12.8-20.6z"/><circle r="1" fill="#ada693" transform="matrix(10.58826 5.1831 -10.82916 22.12228 57.6 94)"/><path fill="#dcecfc" d="M208.5-16L93 24.8 31.4 8.7-5.5 6.6z"/><path fill="#31352e" d="M162 71l4 34-62-8z"/><path fill="#97afb3" d="M132 43l6 17 33 12z"/><path fill="#918a72" d="M206.8 91.8l2.3 33-20 1.4-2.2-33z"/><path fill="#b99b7f" d="M87.2 88.9l-5.6 13.5L122.9 56l-25.7 50.4z"/><path fill="#718a8e" d="M169 47h29v14h-29z"/><path fill="#cbe0f7" d="M216 10l1-17 11 29z"/><path fill="#1f0d0c" d="M32.8 74.9L19.4 87.1l38-23.8-17.9 46.1z"/><path fill="#674943" d="M228 36l-26 9 37 13z"/><path fill="#2c1f1a" d="M103.1 70.3l30.8-28.1-47.8 33.7L81 93.3z"/><path fill="#152b31" d="M0 63h37v5H0z"/><path fill="#0c0a0b" d="M73 113h89v9H73z"/><circle r="1" fill="#21432b" transform="matrix(1.63217 -5.76798 29.58054 8.37045 186.3 41.7)"/><path fill="#d4e7ff" d="M141 73h16v4h-16z"/><path fill="#111" d="M89.7 68.1l17.6-21.7-30.5 15 17.4 34.7z"/><path fill="#bcbbaf" d="M175.7 76.8l32.6-2.5-.8 1.8L223.1 87z"/><circle cx="39" cy="117" r="6" fill="#361303"/><path fill="#27382f" d="M78.7 23.6l51.5 30.6L118 26.4l-9.4-2.1z"/><path fill="#0b120d" d="M234 115l-36.2-62.4 36.3 46.9 36.9-1.9z"/><path fill="#cccab8" d="M0 68h29v10H0z"/><circle r="1" fill="#bfd7ed" transform="matrix(.42587 10.16098 -21.59264 .905 185.5 23.7)"/><path fill="#30372c" d="M66.1 51.8L-16 17.5V7.9l47.3.7z"/><circle cx="99" cy="43" r="6" fill="#b2c2ca"/><path fill="#504720" d="M171 67h32v7h-32z"/><path fill="#000907" d="M138 78h19v21h-19z"/><path fill="#acaa99" d="M78.6 63.8l-7.1 52.9 18.1-4.8-36.7-43.5z"/><path fill="#574f44" d="M183.8 147.4l-7.8-1.5-7.3-33.6 34-8.6z"/><path fill="#648382" d="M243 49h7v25h-7z"/><path fill="#1e1a06" d="M240 61l-10.8 13.8 41.8-1.4-23.2 8.8z"/><ellipse cx="91" cy="124" fill="#726757" rx="12" ry="7"/><circle r="1" fill="#a6c0e3" transform="matrix(-10.04966 -2.74997 .99812 -3.64757 151.6 107.2)"/><path fill="#6a7375" d="M205.1 86.3l22.5-16.7 8.8 32.3-14.8-16.4z"/><path fill="#1c1009" d="M128.1 112.4l-32.2-5.2-10.9 6.5 77.8 23.6z"/><path fill="#d6cfb8" d="M271 87l-4 31-20-37z"/><ellipse cx="23" cy="46" fill="#aab8c9" rx="7" ry="3"/><path fill="#6d513e" d="M125 99h38v5h-38z"/><path fill="#fff" d="M22.5 59.6l-.2 1-12.8-2.2.2-1z"/><path fill="#97927d" d="M0 82h35v42H0z"/><path fill="#979481" d="M56.4 138.9l16-14-7.6-41.8-17.4-4.6z"/><path fill="#839aa2" d="M66.7 67.6L79.4 70l-8.2-24.7L82 44z"/><path fill="#010106" d="M38 66h11v28H38z"/><path fill="#c3bba3" d="M188 79h21v24h-21z"/><path fill="#c6ddf0" d="M230.9 13.3L228.2 4l11.2 2.7L271 33z"/><circle r="1" fill="#5c2a12" transform="matrix(1.49335 -10.372 2.76863 .39862 161 53.5)"/><path fill="#00000b" d="M270.3 46.5L238.8-8l.9-.5L271.2 46z"/><path fill="#b4deff" d="M267 29l-8-33-18-4z"/><path d="M184.3 107.1l-21.6-11.8 18.4-16.7 7.1 8.8z"/><path fill="#2d2b26" d="M124.2 58.9l-38.7 80.9L124.3 84l27.5-14.7z"/><path fill="#c8bfb1" d="M153 64l21 19-4-19z"/><path fill="#8a8d97" d="M138 84l-5 4-14-7z"/><path fill="#a2b5c7" d="M96 68l8-20 14-3z"/><ellipse cx="159" cy="98" fill="#747e87" rx="2" ry="14"/><path fill="#231509" d="M45 142h104v2H45z"/><path fill="#101927" d="M210 86h14v38h-14z"/><path fill="#dae8fb" d="M113 108l1-11 24 15z"/></g></g></svg>