<svg xmlns="http://www.w3.org/2000/svg" viewBox="0 0 1800 1013"><defs/><filter id="a"><feGaussianBlur stdDeviation="12"/></filter><rect width="100%" height="100%" fill="#314657"/><g filter="url(#a)"><g fill-opacity=".5" transform="translate(3.5 3.5) scale(7.03125)"><circle r="1" fill="#d2c8ba" transform="rotate(.2 -16341.7 39709) scale(173.32282 126.23087)"/><ellipse cy="84" fill="#cfbfbe" rx="68" ry="29"/><circle r="1" fill="#4c8686" transform="matrix(-.59264 -33.29924 149.32041 -2.6575 124 0)"/><circle r="1" fill="#706065" transform="matrix(15.90016 28.01747 -123.53415 70.1067 185.5 140.3)"/><path fill="#a19492" d="M105 46h97v78h-97z"/><circle r="1" fill="#80686b" transform="matrix(26.14315 15.39949 -22.3899 38.0105 38 143)"/><path fill="#9ea9a5" d="M158 42h49v35h-49z"/><circle r="1" fill="#5a4c52" transform="rotate(100.4 17.4 135.6) scale(13.8064 26.54646)"/><circle cx="101" cy="104" r="45" fill="#917f81"/><path fill="#4c4448" d="M59 159H27l49-40z"/><path fill="#759c92" d="M263 31.2l-75 27.3-13-35.7 75-27.3z"/><path fill="#343239" d="M210.2 125.2l1.6 23-10 .6-1.6-23z"/><path fill="#bcb0b1" d="M40.5 124.1l17 9.9-21.7 5.5L60.6 86z"/><ellipse cx="132" cy="12" fill="#537477" rx="47" ry="15"/><path fill="#090511" d="M103 137l8 5 3-6z"/><path fill="#cec2c4" d="M0 94h27v20H0z"/><path fill="#ada2ac" d="M183.4 134.4l-17.2-2.6 46 27.2 4-9.1z"/><circle r="1" fill="#7f8e92" transform="matrix(74.87326 16.15394 -5.16963 23.96118 48.4 41.7)"/><path fill="#c3afb4" d="M120 123h9v21h-9z"/><path fill="#504a4d" d="M190.9 127.2l-7.7 9.1-16.1-13.5 7.7-9.1z"/><path fill="#b6b1a6" d="M216 88h10v12h-10z"/><circle cx="53" cy="93" r="21" fill="#9c9394"/><path fill="#575b5d" d="M227.9 91.9l43.1 2.5-33.6-12.6L247 159z"/><circle r="1" fill="#708987" transform="rotate(108.5 49.5 67.4) scale(14.45386 36.17714)"/><path fill="#a3a39d" d="M186.6 58.5l88.3 17.2-1.5 7.8-88.3-17.2z"/><path fill="#5b5455" d="M42.3 126.8l13.1-12.4 12.5 1.4-13.7 16.3z"/><circle r="1" fill="#605356" transform="rotate(146.1 -19.2 62.8) scale(17.70284 4.5898)"/><ellipse cx="219" cy="51" fill="#5b6a64" rx="21" ry="4"/><path fill="#5c525a" d="M124.5 159l3.8-28-43.6 19.1 57.8-26.9z"/><path fill="#b5a3a5" d="M110.6 157.4l-18.2-17.1L91 97.7l5.9 29.2z"/><path fill="#3c383b" d="M97 117v6l13-4z"/><path fill="#c2b5ae" d="M180 120l23 4-24-13z"/><path fill="#a89ea3" d="M203.7 124.2l33.9 8.6-10.1 8.7-8.9-21.2z"/><path fill="#b2a9a9" d="M155 80.9l6.7 10.7 15.7 4.3-16.2-37.8z"/><path fill="#807677" d="M211 95l-67 33 46-51z"/><path fill="#d9d2d2" d="M35 84L4 89l31-14z"/><path fill="#ead3bf" d="M134.8 120.3l.4-4 14 1.4-.4 4z"/><path fill="#c0b3b5" d="M40.8 133.5l21.5-3.7-22.5 9.7-20.5.8z"/><path fill="#322e34" d="M168 159l-5-26 44 26z"/><path fill="#3f3b43" d="M39.1 159l-.2-16.3-5.7-4.1L.2 159z"/><path fill="#989798" d="M249 128l-6-36 10 5z"/><path fill="#6e666b" d="M157 98l-3-9-33 12z"/><path fill="#4e484c" d="M193 117h27v4h-27z"/><path fill="#5f605d" d="M136 90l-21-10-17 3z"/><path fill="#645c5e" d="M151 113l-26 4 7-10z"/><path fill="#b7afae" d="M132 82h11v13h-11z"/><circle r="1" fill="#5c5d67" transform="matrix(-21.4142 -5.12408 .81986 -3.4263 210.2 103.6)"/><path fill="#978c8f" d="M138.4 159l27.5-34.2 13.5-71-4.4 67.6z"/><path fill="#a59da0" d="M42.3 111.7l-10.9 16.7 6.5.9 26.2-36.5z"/><circle r="1" fill="#7f7577" transform="rotate(24.5 -232.8 146.8) scale(18.08893 2.77654)"/><path fill="#6d6a6c" d="M73.7 85.9L65 54.8 67.4 66l21.2 3.8z"/><circle r="1" fill="#d1c4ca" transform="rotate(-143 83.4 41.9) scale(5.69849 3.6542)"/><path fill="#a6989a" d="M87.3 117.5l15.4-15.6 16.7 14.1-41.9 5z"/><path fill="#979190" d="M53.2 60.5l24.7 15.1-15.1 9.3-30.7 7.8z"/><path fill="#b29fa7" d="M53 159l13.3-17 7.4-2.1 37.1-18.4z"/><path fill="#cdcbcb" d="M6.5 73.3v-5l27 .4v5z"/><path fill="#504442" d="M30 126l-4 9 12-2z"/><path fill="#95999c" d="M2 30l-4 27 37 12z"/><path fill="#6e5d66" d="M132 131l-27 5 1-10z"/><path fill="#706a6c" d="M114 82l-20 20-21-3z"/><circle r="1" fill="#7d9894" transform="matrix(-43.95419 5.84871 -1.17206 -8.80822 177.4 35.1)"/><path fill="#b1a8b4" d="M211 115l-15-4-3-12z"/><path fill="#9f9198" d="M202 137h25v3h-25z"/><path fill="#96908e" d="M214.6 92.2l17.9-3.5-21 44.9 15-14.7z"/><path fill="#5d4d50" d="M0 145l-8-7 31-3z"/><path fill="#31333b" d="M237 114l4 6-13-7z"/><path fill="#4c484b" d="M211.9 139.6l.8 19.4-20.8-24.9 51.9 24.9z"/><path fill="#ada5a0" d="M109 76l11 13-26-14z"/><path fill="#94aea2" d="M250.8 41.2l20.2 7.7-4.2-25.5L232.6 42z"/><path fill="#a5a19d" d="M21 141l7-8-6-9z"/><path fill="#999390" d="M204 83l27 9-58 3z"/><path fill="#221e1e" d="M143 133l6-3v8z"/><path fill="#73847d" d="M221.8 28.3l5 37.3 39.5-7.6L247 46.3z"/><path fill="#413740" d="M89 119l-1 7h-9z"/><path fill="#71615f" d="M152 108h33v4h-33z"/><path fill="#a9a0a0" d="M80.7 78.4l11.6 13.9-73.3 6 67.6-19z"/><circle r="1" fill="#948d98" transform="matrix(-1.52063 -1.62454 12.91861 -12.09225 195 131.2)"/><path fill="#6d6473" d="M87 152.4l-6.7-7.4L93 133.6l6.7 7.4z"/><path fill="#392f32" d="M38.5 149.2l38.7-13.3.3.9-38.7 13.3z"/><ellipse cx="211" cy="1" fill="#5c918f" rx="54" ry="14"/><path fill="#7e7c7f" d="M114.2 59.9l-47.7-9.6L59.9 78l-28.5 1.6z"/><path fill="#4b4a52" d="M234 127l13 5-1 15z"/><path fill="#777178" d="M147.4 103l-22.4.9 23.9-16.5-14.1 2.5z"/><path fill="#ab9a99" d="M144.3 99.6l35.2 15.3-18.3-12 13.1-4.4z"/><path fill="#bda59f" d="M141 126h10v4h-10z"/><path fill="#c8bbb7" d="M119 112.8l-.4-1 22.4-8.6.4 1z"/><path fill="#837b7a" d="M153.1 104L48.8 96.9l60.1-25.3L67.6 94z"/><path fill="#b5adaa" d="M70.2 85.7l-13.7-.9L4.8 66.6 66.2 94z"/><path fill="#81858a" d="M9 75h10v10H9z"/><path fill="#787578" d="M246.2 104.4l-62.5 8.7 56.7 1.1 30.6 4.3z"/><path fill="#afa0a3" d="M101.8 126.8L96.6 159h26.7l-40-37.3z"/><path fill="#b0a7ac" d="M169.2 137l1.1-4.8 20.5 4.7-1.1 4.9z"/><circle r="1" fill="#494042" transform="matrix(-2.4667 3.79838 -2.7777 -1.80386 189 128.2)"/><path fill="#455053" d="M248 86h8v11h-8z"/><path fill="#c5bbb2" d="M86 105l2-4-12 5z"/><path fill="#beb7ab" d="M141 79l-11-13 20 13z"/><ellipse cx="136" cy="131" fill="#8a7a7c" rx="2" ry="17"/><path fill="#b19f9c" d="M65 127h35v3H65z"/><path fill="#949f9f" d="M80 44.4l-5 8.8-21-11.6 5-8.8z"/><path fill="#b4b2b0" d="M181 65h30v6h-30z"/></g></g></svg>