<svg xmlns="http://www.w3.org/2000/svg" viewBox="0 0 1800 990"><defs/><filter id="prefix__a"><feGaussianBlur stdDeviation="12"/></filter><rect width="100%" height="100%" fill="#3f5e75"/><g filter="url(#prefix__a)"><g transform="translate(3.5 3.5) scale(7.03125)"><ellipse cx="175" cy="22" fill="#f9ffff" fill-opacity=".5" rx="255" ry="37"/><ellipse cx="190" cy="121" fill-opacity=".5" rx="132" ry="57"/><ellipse cx="166" cy="20" fill="#b2e3ff" fill-opacity=".5" rx="126" ry="29"/><path fill="#140600" fill-opacity=".5" d="M190 46h62v94h-62z"/><circle r="1" fill="#4a534c" fill-opacity=".5" transform="matrix(5.27252 -23.02103 45.85187 10.50148 129.8 75.9)"/><path fill="#becdce" fill-opacity=".5" d="M169 55h82v7h-82z"/><ellipse cx="110" cy="97" fill="#00181b" fill-opacity=".5" rx="27" ry="44"/><circle r="1" fill="#778388" fill-opacity=".5" transform="matrix(-17.72008 -6.9058 7.87594 -20.20942 148.5 77.5)"/><circle r="1" fill="#153b4c" fill-opacity=".5" transform="matrix(77.22684 8.66238 -2.99197 26.67404 30 125.2)"/><ellipse cx="50" cy="27" fill="#8cb9d6" fill-opacity=".5" rx="102" ry="30"/><path fill="#27201c" fill-opacity=".5" d="M217.3 45.2l53.4 6.1-125.6 9.1 23.6-3.8z"/><ellipse cx="236" cy="20" fill="#d9edff" fill-opacity=".5" rx="31" ry="25"/><path fill="#b2c9d6" fill-opacity=".5" d="M204.5 66.6L140.7-16l66.4 60.8-36.8 26.1z"/><circle r="1" fill="#c0dff3" fill-opacity=".5" transform="matrix(29.39259 5.0561 -4.38773 25.50714 161.5 32.7)"/><circle r="1" fill="#0b0b0b" fill-opacity=".5" transform="matrix(31.47658 -46.48463 37.032 25.07583 214.3 113.3)"/><path fill="#94b7dc" fill-opacity=".5" d="M249.1 76.3L241.2 49l18.5 21.8L271 91.7z"/><path fill="#aeaf99" fill-opacity=".5" d="M53.4 100.2l23.1-4.5 5.8-13.9-23.2.3z"/><path fill="#5d716e" fill-opacity=".5" d="M125 0h8v78h-8z"/><path fill="#000f0a" fill-opacity=".5" d="M92 54h47v5H92z"/><circle r="1" fill="#2e3d43" fill-opacity=".5" transform="matrix(-.71997 6.00853 -41.21844 -4.93895 218.7 111.2)"/><path fill="#b5cfd4" fill-opacity=".5" d="M90.2 48.4l62.3-11.8-101.2-2L95.2 69z"/><path fill="#edffff" fill-opacity=".5" d="M218 55h32v4h-32z"/><path fill="#3d403e" fill-opacity=".5" d="M203 0h2v66h-2z"/><path fill="#3b3c3a" fill-opacity=".5" d="M116 82l21-14-23-28z"/><circle r="1" fill="#000505" fill-opacity=".5" transform="matrix(-11.43481 13.27214 -8.77168 -7.55737 91.9 91.4)"/><path fill="#000136" fill-opacity=".5" d="M258.9 40.8l-.8 9-7-.6.8-9z"/><ellipse cx="228" cy="73" fill="#080000" fill-opacity=".5" rx="21" ry="14"/><ellipse cx="42" cy="73" fill="#4a7b9b" fill-opacity=".5" rx="26" ry="14"/><circle r="1" fill="#191410" fill-opacity=".5" transform="matrix(-26.21736 4.29173 -.39004 -2.3827 200.3 52.3)"/><path fill="#cce1e5" fill-opacity=".5" d="M124 46h50v9h-50z"/><circle r="1" fill="#7eacd5" fill-opacity=".5" transform="matrix(94.18759 -11.56478 3.0275 24.65701 43.2 0)"/><path fill="#515556" fill-opacity=".5" d="M78.3 83.5l44-28.4-55.2 8.8v31.8z"/><path fill="#aeccd8" fill-opacity=".5" d="M37 30h78v23H37z"/><ellipse cx="237" cy="82" fill="#54524e" fill-opacity=".5" rx="2" ry="33"/><path fill="#707c82" fill-opacity=".5" d="M141.2 56.4l55.7 1.4-18.3 23.7 1.9-15.8z"/><ellipse cx="121" cy="83" fill="#060d17" fill-opacity=".5" rx="37" ry="4"/><path fill="#6d7273" fill-opacity=".5" d="M148.2 104.1L122 67.3l41.9 27.5-13.1 9.1z"/><path fill="#869296" fill-opacity=".5" d="M180.2 135l17.4-14.3 4.9-3.2.3 2z"/><ellipse cx="223" cy="139" fill-opacity=".5" rx="47" ry="13"/><path fill="#5f6265" fill-opacity=".5" d="M189.1 42.2L196-.3l1 .1-6.8 42.5z"/><path fill="#376a73" fill-opacity=".5" d="M144 88l-21 8-26-11z"/><path fill="#9c9fa5" fill-opacity=".5" d="M112 74h30v3h-30z"/><path fill="#fff" fill-opacity=".5" d="M59 91l-1.7-4.7L61 85l1.7 4.7z"/><path fill="#001417" fill-opacity=".5" d="M153 126l34-2-24-41z"/><path fill="#7c848d" fill-opacity=".5" d="M16 52h59v7H16z"/><path fill="#c9dee6" fill-opacity=".5" d="M182.2 51.2l-2.2-18 19.8-2.4 2.2 18z"/><path fill="#fff" fill-opacity=".5" d="M250 67h6v4h-6z"/><path fill="#1a100e" fill-opacity=".5" d="M244.6 103.6L239 107l14.9-66.5-.9 8.1z"/><path fill="#2c2930" fill-opacity=".5" d="M73 83.6L76.8 59l-23.9 5.1 11.5-7.5z"/><path fill="#6b8088" fill-opacity=".5" d="M74.2 64.9l14-12.2 12.4 9.5L85.2 74z"/><ellipse cx="131" cy="55" fill="#1c393d" fill-opacity=".5" rx="1" ry="33"/><path fill="#d2e8ff" fill-opacity=".5" d="M240.6.8l24.5 8.9-13.7 37.5-24.5-8.9z"/><path fill="#2d4d63" fill-opacity=".5" d="M69.8 99.8l-4.9 34.7-30.7-4.3 4.9-34.7z"/><path fill="#a2a79e" fill-opacity=".5" d="M157 73h4v23h-4z"/><path fill="#a9b8ba" fill-opacity=".5" d="M127.9 155h24.3l12.9-25.9-20 25.9z"/><path fill="#9fcdeb" fill-opacity=".5" d="M132 0h61v30h-61z"/><circle r="1" fill="#7a8285" fill-opacity=".5" transform="matrix(-25.65068 17.62922 -.5664 -.82413 175.1 137.6)"/><path fill="#99b6c3" fill-opacity=".5" d="M156.1 53.1l-5.7 8.8-23.8-2.5 9.2 2.8z"/><ellipse cx="8" cy="58" fill="#64513d" fill-opacity=".5" rx="30" ry="4"/><path fill="#cbe4ea" fill-opacity=".5" d="M207 56h20v4h-20z"/><path fill="#3f3b3d" fill-opacity=".5" d="M160.3 98.6l.1-20.8 40.6.9 2.7 3.6z"/><ellipse cx="130" cy="9" fill="#003449" fill-opacity=".5" rx="1" ry="32"/><path fill="#001617" fill-opacity=".5" d="M74.9 93.5l19.5 27.2 48.6-11.1-15.5-15.1z"/><path fill="#f2f3df" fill-opacity=".5" d="M75 83h6v5h-6z"/><path fill="#003bb2" fill-opacity=".5" d="M250 57h6v9h-6z"/><path fill="#1f2730" fill-opacity=".5" d="M66.2 86.8l-2.1-5.3 72.1-15.6-8.2-2.4z"/><path fill="#c2b7af" fill-opacity=".5" d="M173.8 88l-.6-3.9v-5.7l1.9-1.2z"/><path fill="#c2d6e3" fill-opacity=".5" d="M159.5 56l11.3 6.8 11.9-30.1-52.3 11.4z"/><ellipse cx="7" cy="136" fill="#193a4c" fill-opacity=".5" rx="82" ry="9"/><path fill="#646f77" fill-opacity=".5" d="M202 45h27v4h-27z"/><path fill="#aebcc5" fill-opacity=".5" d="M190 61h13v6h-13z"/><path fill="#2d1f12" fill-opacity=".5" d="M223 47h30v6h-30z"/><path fill="#050000" fill-opacity=".5" d="M186 67h4v18h-4z"/><path fill="#072d3a" fill-opacity=".5" d="M89 116h69v24H89z"/><path fill="#3d494e" fill-opacity=".5" d="M154 56h5v28h-5z"/><path fill="#dbebeb" fill-opacity=".5" d="M89 56h3v9h-3z"/><path fill="#3680cc" fill-opacity=".5" d="M249 71h7v9h-7z"/><path fill="#263236" fill-opacity=".5" d="M114 46h6v23h-6z"/><circle r="1" fill="#b7d6f9" fill-opacity=".5" transform="matrix(21.61881 -31.06796 11.27448 7.84541 229 13.2)"/><path fill="#375d75" fill-opacity=".5" d="M57.6 111.6l-53.9 2.8-1.3-26 53.9-2.8z"/><path fill="none" stroke="#555759" stroke-opacity=".5" stroke-width=".5" d="M201.6-12.5l-6.2 57.7"/><path fill="#1d1614" fill-opacity=".5" d="M177.7 81.8l-15.6-24.3 17.5 19 91.4 48.4z"/><path fill="#fbf3f1" fill-opacity=".5" d="M183 72.2l-1 3.9-1-.3 1-3.9z"/><path fill="#66767c" fill-opacity=".5" d="M100.8 60.2L110 68H76.9l45.8-8.7z"/><circle r="1" fill="#759da5" fill-opacity=".5" transform="matrix(3.21743 2.55882 -3.06352 3.85203 164 74.8)"/><path fill="#afcedb" fill-opacity=".5" d="M127 0h3v46h-3z"/><path fill="#b3b8a6" fill-opacity=".5" d="M58 95h14v4H58z"/><path fill="#000306" fill-opacity=".5" d="M162 142l32-21-20-10z"/><path fill="#432f2d" fill-opacity=".5" d="M171 64h8v13h-8z"/><path fill-opacity=".5" d="M238 61h6v34h-6z"/><path fill="#bcd4d9" fill-opacity=".5" d="M75 53l46-17-12 16z"/><path fill-opacity=".5" d="M203 76h31v19h-31z"/><ellipse cx="255" cy="111" fill="#0c0503" fill-opacity=".5" rx="6" ry="33"/><path fill="#7a7c7c" fill-opacity=".5" d="M138 75l4 28 8-39z"/><circle r="1" fill="#94bad0" fill-opacity=".5" transform="rotate(157.8 9 19.8) scale(65.40901 11.8335)"/><path fill="#060d1a" fill-opacity=".5" d="M118.5 77.6l-17.4-7.8-11.6 15.5 48.1 2.1z"/><path fill="#293440" fill-opacity=".5" d="M132.7 79.5l14-.3-3.9 7.1-78.1-19.4z"/><ellipse cy="118" fill="#143344" fill-opacity=".5" rx="36" ry="4"/><path fill="#222830" fill-opacity=".5" d="M87 59.5v1l-38 2v-1z"/><circle r="1" fill="#9bb8d2" fill-opacity=".5" transform="rotate(-13.4 169.4 -932.4) scale(1 35.5145)"/></g></g></svg>