<svg xmlns="http://www.w3.org/2000/svg" viewBox="0 0 1920 1080"><defs/><filter id="a"><feGaussianBlur stdDeviation="12"/></filter><rect width="100%" height="100%" fill="#57443c"/><g filter="url(#a)"><g fill-opacity=".5" transform="matrix(7.5 0 0 7.5 3.8 3.8)"><circle r="1" fill="#ccd1be" transform="rotate(-76 131.4 -40.5) scale(63.87951 138.15023)"/><circle r="1" fill="#fff" transform="matrix(-25.5121 3.99509 -3.12358 -19.94678 70 64.2)"/><ellipse cx="206" cy="46" fill="#f0eaf0" rx="17" ry="36"/><circle cx="25" cy="86" r="18" fill="#03000c"/><circle r="1" fill="#416830" transform="matrix(-18.76722 7.46839 -29.64074 -74.48388 157 27)"/><circle r="1" fill="#d8dad9" transform="rotate(19.6 -341.3 340) scale(29.14837 36.72318)"/><ellipse cx="238" cy="102" fill="#584434" rx="40" ry="36"/><ellipse cx="16" cy="53" fill="#fff" rx="9" ry="18"/><circle cx="109" cy="82" r="14" fill="#03162d"/><path fill="#150814" d="M31 45l20 16-37 29z"/><path fill="#fff9e6" d="M126.9 71.3l-15.2-11.4L129 36.7l15.2 11.4z"/><path fill="#5e7c51" d="M13-16l210 5-42 73z"/><circle r="1" fill="#55272e" transform="matrix(-11.25881 10.8346 -14.24827 -14.80614 49.3 116.8)"/><circle r="1" fill="#bcb4aa" transform="matrix(-2.53183 27.85542 -67.38413 -6.12467 167 143)"/><path fill="#fffff6" d="M58 77L40 40l67 24z"/><path fill="#37592b" d="M232.6-16L271 32.7l-77.8 5.9 23.3 16.6z"/><path fill="#e4f8ff" d="M220 15.4l2.8 16.3-11.8 7.8-6.6-27.5z"/><path fill="#d9c2af" d="M264 83l-48 9 49 18z"/><path fill="#cdfbff" d="M103 23h13v15h-13z"/><path fill="#f7eff0" d="M195.2 37.3l-5.5 39.6 21.7.2 12.1 1z"/><circle r="1" fill="#b7c072" transform="matrix(54.08825 -4.16186 .6264 8.1409 4.5 41)"/><path fill="#2e3c2e" d="M225.1 41l44.3 40.1-75.6 14.7 27.3-20.7z"/><path fill="#3d462f" d="M194 33l-8 39-75-50z"/><path fill="#8aa570" d="M121.1 14.3l-64-11.1L-16 8.8 87.1-16z"/><path fill="#384940" d="M55.4 28.8l4 17.3 41-33.8L-9-10.4z"/><path fill="#da8e86" d="M28.5 159l4.3-9.8-.1-58.3-7.4 18.9z"/><circle r="1" fill="#fffffa" transform="matrix(4.81093 5.89554 -10.92188 8.91258 54.5 71.4)"/><ellipse cx="147" cy="85" fill="#6b6552" rx="101" ry="9"/><path fill="#622820" d="M108 95h6v27h-6z"/><circle r="1" fill="#a9aaa4" transform="matrix(14.47904 33.5381 -3.31467 1.431 0 97)"/><path fill="#745157" d="M200.8 40.4l-20.4-4.8 8.8-38 20.4 4.8z"/><path fill="#ebddbe" d="M120.4 78l-1.6-10.8 22.8-3.2 1.6 10.8z"/><path fill="#4f3a27" d="M262.4 153.1L225 131.6l8.5-14.7 37.3 21.5z"/><path fill="#8f7464" d="M211.3 112.1l-3.1 14.1-85-67.2 35.5-7.2z"/><circle cx="7" cy="13" r="31" fill="#4e605d"/><circle r="1" fill="#a38078" transform="matrix(4.24024 -26.59185 8.77634 1.39944 0 81)"/><path fill="#d3908c" d="M195.6 23.4l-14.8 27.8-2.5-8.1 9.6-14.2z"/><path fill="#000415" d="M9 111l15 21v-23z"/><path fill="#4f1e18" d="M206.5 40.1l-32.3-14.6 36.9 25.4 7.7-5.9z"/><path fill="#c6c4bb" d="M95 132l-43-29 53-5z"/><circle cx="222" cy="119" r="9" fill="#ada89d"/><path fill="#456a3b" d="M222 0h34v58h-34z"/><path fill="#3d393e" d="M42 79l-5-34-51 81z"/><circle r="1" fill="#524144" transform="matrix(-4.5603 3.93375 -24.34797 -28.22599 196 87.8)"/><path fill="#dd9280" d="M48 91l-16 1 2 13z"/><path fill="#faf3ec" d="M5.6 43.4l7.6 32.2 12.3-20.5-7.4-1.3z"/><path fill="#f7efda" d="M47 45h41v31H47z"/><path fill="#d2cbc9" d="M201 52h22v26h-22z"/><path fill="#c0d8d4" d="M112 69.9l34.9-27.2-28.4 6.7-22.4 19.3z"/><path fill="#ccad88" d="M61.3 153.5l-2.9 1-11.7-34 2.9-1z"/><path fill="#cedce8" d="M117.2 33.5l-28 2-.4-7 28-2z"/><path fill="#adafaa" d="M127 99h36v45h-36z"/><path fill="#293041" d="M95 67l7 23 27 9z"/><circle r="1" fill="#55554d" transform="matrix(-2.56812 -2.85793 22.59323 -20.30216 120.8 40.8)"/><path fill="#cfff58" d="M38 45.7l-3.1-5.1L52 30.3l3.1 5.1z"/><path fill="#5d844e" d="M95-16l52.6 68 5.1-39.9L271 1.6z"/><path fill="#faffff" d="M191 40h5v34h-5z"/><path fill="#ffe0a9" d="M87.4 8.8L50.4.2l.2-1 37 8.6z"/><circle r="1" fill="#fff" transform="matrix(-2.2814 -2.72851 1.56905 -1.31193 10.2 120.3)"/><path fill="#0d090e" d="M59 41h20v3H59z"/><ellipse cx="73" cy="90" fill="#85956d" rx="28" ry="13"/><path fill="#e7e7d1" d="M85 52h10v29H85z"/><path fill="#362325" d="M35.8 123.2l6.5 35.8 11.5-51.9 12 24.1z"/><path fill="#8c837f" d="M119.5 129.8l-20.9-9.6 59.9-17.7-10.9 17.3z"/><path fill="#3f2915" d="M236 114l-12-13 32 10z"/><path fill="#323e2b" d="M161 34l30 48-2-26z"/><ellipse cx="211" cy="22" fill="#edf8ff" rx="6" ry="10"/><path fill="#27322e" d="M122 35l-9-18 27 13z"/><circle cx="35" cy="57" r="11" fill="#4f3632"/><path fill="#eb89af" d="M23 132h11v6H23z"/><path fill="#7f8081" d="M113.7 32.3l4.9 32.4-13.1-8.4-22.4-4.9z"/><path fill="#403e43" d="M24.1 121.5l9.3-77.3 7.4 9.2-26.9 18.7z"/><path fill="#806448" d="M216.2 155.5l-48-32.5 1.6-2.5 48 32.5z"/><circle r="1" fill="#a49d90" transform="rotate(88.6 -1.1 8.4) scale(59.24571 1)"/><path fill="#d2e0e5" d="M6 145.9l-12 .2v-6l12-.2z"/><path fill="#ebe2da" d="M19.3 48.5L-7.2 42l32.5 17.4-22.6 8z"/><path fill="#ecdfc8" d="M120.8 40.4l-2.3 21.4 24.6-7.8 2.9-6.6z"/><path fill="#3f392e" d="M232.9 66.7l-25 23-5.2 4 51.1-8.5z"/><path fill="#425c31" d="M145 33h17v31h-17z"/><path fill="#311c1e" d="M195 28l2 12 9-22z"/><path fill="#ead8be" d="M93.4 27.6l5.5 16.9-2.9.3-6.2-6.3z"/><path fill="#ce8283" d="M200.6 11.6L187.4 16l-2-5.7L198.6 6z"/><path fill="#858a88" d="M247.1 107.3l23.9 24-16.3-10.1-18.8 7.8z"/><path fill="#f8f6ec" d="M41.9 70L60 64.6 64.1 78 46 83.5z"/><path fill="#222d35" d="M39.5 1.4L9.8 8.5l20 15 6.8-28.1z"/><path fill="#c4ae9c" d="M81 13h2v25h-2z"/><path fill="#553238" d="M52 91l10 7-34 10z"/><path fill="#773931" d="M119 103l3-13 7 31z"/><path fill="#fff" d="M3.5 116.5l.6-.8 10.4 7.8-.6.8z"/><path fill="#5d1d22" d="M210 36h5v15h-5z"/><path fill="#946e55" d="M61.4 32l32.5 15.1L85.8 28l-22.3 2.4z"/><path fill="#3e4e43" d="M41 11l63 14-74 6z"/><path fill="#8b785b" d="M29 23l25 6-41 14z"/><path fill="#c2c6c0" d="M93.1 132.5l-22.3-24.1-2.5 15.1L57.5 159z"/><path fill="#0a1927" d="M42.2 71.2l-1.8 13.7-15.3-17.6L27 81.8z"/><path fill="#8d796f" d="M33 81l-9-1-5 12z"/><circle cx="102" cy="56" r="5" fill="#1c446e"/><path fill="#c4a188" d="M168.8 82.7l10.1.9-10-10.6-8.8 10.8z"/><path fill="#436136" d="M216.4-4.7l23.3 19-10 12.4-23.4-19z"/><path fill="#834c3b" d="M33 59h14v11H33z"/></g></g></svg>