<svg xmlns="http://www.w3.org/2000/svg" viewBox="0 0 1440 2160"><defs/><filter id="a"><feGaussianBlur stdDeviation="12"/></filter><rect width="100%" height="100%" fill="#345332"/><g filter="url(#a)"><g fill-opacity=".5" transform="translate(4.2 4.2) scale(8.4375)"><circle r="1" fill="#ffdde5" transform="matrix(-76.35292 -28.23588 46.67456 -126.21312 95 207)"/><circle r="1" fill="#72725a" transform="matrix(20.38032 -47.55086 134.32418 57.57142 51.6 33)"/><circle r="1" fill="#ffe5cf" transform="matrix(-76.93328 -47.4876 15.2249 -24.66543 118.6 241.5)"/><path fill="#190000" d="M14 180l24-41 4 132z"/><circle r="1" fill="#ff918b" transform="matrix(-8.4468 8.0995 -19.92097 -20.77517 12 150.3)"/><circle r="1" fill="#38302c" transform="matrix(27.89227 -26.74772 18.23376 19.014 135.5 77)"/><path fill="#e6dad6" d="M40 134h67v33H40z"/><circle r="1" fill="#78a374" transform="matrix(-70.56022 78.09054 -15.9845 -14.4431 .8 57.2)"/><circle r="1" fill="#e79273" transform="matrix(-6.60566 -34.53969 24.8474 -4.75203 134 139)"/><circle r="1" fill="#ca7b6e" transform="matrix(27.72307 20.909 -7.00471 9.28749 70.4 72)"/><path fill="#bfc9d1" d="M5.4 207.8l6.7-24.4 20.5 62-18 25.6z"/><path fill="#2d6639" d="M111.7 210.8l-21 6.6.6-8.2 10.5-22.7z"/><ellipse cx="33" cy="101" fill="#2b1b47" rx="35" ry="28"/><circle r="1" fill="#ffdcaf" transform="matrix(37.34743 -33.43787 15.71217 17.54924 91.4 252.8)"/><path fill="#dee6e1" d="M159 130h11v63h-11z"/><circle r="1" fill="#8a4138" transform="rotate(17.9 -530.7 265.1) scale(33.43491 7.45321)"/><ellipse cx="126" cy="186" fill="#84655f" rx="20" ry="30"/><path fill="#e1f1f8" d="M87 167h20v22H87z"/><ellipse cx="89" cy="111" fill="#bcac97" rx="24" ry="29"/><path fill="#3f3851" d="M126 242h13v14h-13z"/><path fill="#6764a2" d="M-16 47l51 2-51 90z"/><path fill="#070626" d="M-16 155.4l47.4 47.8 6.4-15.6L19 167.3z"/><circle r="1" fill="#48843b" transform="matrix(-83.97018 5.24064 -1.082 -17.3367 99.8 15.4)"/><ellipse cx="1" cy="246" fill="#662933" rx="10" ry="31"/><path fill="#767a81" d="M17.7 271h19.9l38.2-38.2-18.3-22.6z"/><path fill="#482b2b" d="M76 147l-17-30 7-13z"/><circle r="1" fill="#ffddc2" transform="matrix(10.92081 20.03019 -15.07395 8.21858 158.5 254.8)"/><ellipse cx="82" cy="104" fill="#a4836e" rx="9" ry="53"/><circle r="1" fill="#ffcfb0" transform="matrix(8.03868 7.99303 -10.6349 10.69564 141 131.8)"/><path fill="#abc0ce" d="M39 185h52v36H39z"/><ellipse cx="117" cy="43" fill="#305033" rx="35" ry="30"/><circle cx="57" cy="151" r="17" fill="#d8e7df"/><path fill="#e7f3f3" d="M146 175h16v13h-16z"/><path fill="#e4dfca" d="M0 50h14v9H0z"/><path fill="#d68979" d="M-13 159.9l35.8-5.1-6.8-24-32 3.9z"/><path fill="#633930" d="M38 197l-15 23 28 51z"/><ellipse cx="27" cy="101" fill="#2a2f42" rx="22" ry="47"/><path fill="#20252b" d="M28 152l49-71-58 10z"/><path fill="#5a4b3a" d="M126.1 97.9l-7.1 30.8 14.8-2.8-58.4-61z"/><ellipse cx="116" cy="231" fill="#ffddc3" rx="30" ry="16"/><path fill="#8b554f" d="M83 162l2 30-49-14z"/><path fill="#94b5dc" d="M103 177h9v27h-9z"/><path fill="#efedf3" d="M7.7 218l-2.9-.8 5.5-19.2 2.9.8z"/><path fill="#cfc9ae" d="M72 154l-13-41-14 18z"/><path fill="#363751" d="M50.6 42.2l30.8-13.4 6.1 7-17.1 34.4z"/><path fill="#fff" d="M66 96h5v8h-5z"/><path fill="#f4b47a" d="M98.3 248.3l-22-18.9-19.6 28-17.1 10.2z"/><ellipse cx="154" cy="207" fill="#917a6c" rx="28" ry="17"/><path fill="#c56e5b" d="M42.3 60.7l14.2-7.3 13.2 25.9-14.2 7.3z"/><ellipse cx="1" cy="194" fill="#04002a" rx="8" ry="14"/><path fill="#10060c" d="M146.9 93.6l-7.2 12-8.6-5.2 7.2-12z"/><path fill="#d9c79a" d="M77 84h25v12H77z"/><path fill="#f5ffff" d="M75.4 146.8l-8.8-55.3 2-.3 8.8 55.3z"/><path fill="#2e6b30" d="M96 187h6v28h-6z"/><circle r="1" fill="#638c4a" transform="rotate(-16.8 85 -99.2) scale(83.58237 22.31118)"/><path fill="#c7bfb7" d="M81 118h38v18H81z"/><path fill="#a46257" d="M114 140l-15 27 9-47z"/><path fill="#3f6139" d="M102.8 87.7L79.1-16l49.8 77.1L72 74.3z"/><path fill="#a2694f" d="M109 164h48v11h-48z"/><path fill="#2c2026" d="M59 77h14v19H59z"/><circle r="1" fill="#3d495c" transform="matrix(-8.33806 -5.13844 40.04917 -64.98712 6 106)"/><circle r="1" fill="#61463e" transform="rotate(-18 733.9 116.6) scale(6.96645 35.8251)"/><path fill="#b6bfb4" d="M23 203L6 220l6-37z"/><path fill="#cc9c7c" d="M128.9 166.8l-17.7.7 10.1 14.8 20.8-2.2z"/><path fill="#cfdad9" d="M37 183l37 6-24 20z"/><circle cx="80" cy="60" r="6" fill="#ec8277"/><circle r="1" fill="#95a2a4" transform="matrix(-8.33671 -6.92127 13.71378 -16.51832 60.7 233)"/><path fill="#6f7480" d="M116 74h24v12h-24z"/><circle cx="157" cy="107" r="16" fill="#988a77"/><path fill="#c9d2cd" d="M104 116l-21 44 6 54z"/><path fill="#3163a4" d="M119 187l-9 9-2-22z"/><path fill="#996552" d="M33 177l15-15-64-15z"/><path fill="#645b6c" d="M135.8 240.2l-1.1 1.4 6.6 4.7-36.7 24.7z"/><path fill="#212329" d="M33.6 202.5l-20.2-29.3 49.4 14.4-22.9-11.9z"/><path fill="#866760" d="M76.9 145.2l12.2-2.5L81 159l-1.6-69z"/><path fill="#ce8c75" d="M21 132l-37 4 24 15z"/><path fill="#8d8770" d="M77.2 128.4l-8.3-32.8 44.6 22.3-5.2-42.9z"/><ellipse cx="118" cy="97" fill="#201c22" rx="7" ry="8"/><circle r="1" fill="#e7e2f0" transform="matrix(.94322 .33216 -7.9207 22.49203 112.1 151.7)"/><path fill="#5e6d97" d="M3 58L1 83l41-39z"/><path fill="#385739" d="M59.6 29.3L.5 15.2l2.6 6.5L72 16z"/><path fill="#a9817b" d="M54.7 175.9l34.6-20.7 1.8 4.1-24.6 25.1z"/><path fill="#111728" d="M40 159l-19-16 13-16z"/><path fill="#638f6d" d="M88 16l5 18-41 2z"/><path fill="#f8d4a5" d="M78.4 236l44.3-21.9-22.8-.3L77.6 224z"/><path fill="#af6d52" d="M152.8 96.3l-27.9 21.1.6 10.8 7.9-3.9z"/><path fill="#908973" d="M6.9-8.3l-17 59.8 31-.6L2.2 17.8z"/><path fill="#ae9f90" d="M109 213l28-2-35-19z"/><path fill="#937a75" d="M82.6 177.7l13-4.9-33.9-1.5 27.1 36.1z"/><path fill="#c8896b" d="M144 137h16v31h-16z"/><path fill="#848986" d="M36 246l-14-24-16-2z"/><circle r="1" fill="#775447" transform="matrix(-19.42301 -8.89255 .82722 -1.8068 134.8 166.8)"/><path fill="#1d282c" d="M25 82l44 29-4-19z"/><path fill="#78b95b" d="M49-11L30 11l36-3z"/><path fill="#6d6c6a" d="M62.5 228.6l-2.7-7 9.7 3.9-.2 16.1z"/><path fill="#5c8439" d="M140 18l-12 15 29 14z"/><path fill="#475465" d="M52 33l37-7-42 30z"/><path fill="#b8b4a1" d="M148 99l12 4-18 16z"/><path fill="#343c35" d="M123 45h45v23h-45z"/><path fill="#2d271f" d="M8 229l2 21-5-6z"/></g></g></svg>