<svg xmlns:dc="http://purl.org/dc/elements/1.1/" xmlns:cc="http://creativecommons.org/ns#" xmlns:rdf="http://www.w3.org/1999/02/22-rdf-syntax-ns#" xmlns:svg="http://www.w3.org/2000/svg" xmlns="http://www.w3.org/2000/svg" xmlns:xlink="http://www.w3.org/1999/xlink" id="svg38511" viewBox="167 400 690 130" version="1.1">
  <metadata id="metadata38517">
    <rdf:rdf>
      <cc:work rdf:about="">
        <dc:format>image/svg+xml</dc:format>
        <dc:type rdf:resource="http://purl.org/dc/dcmitype/StillImage"></dc:type>
      </cc:work>
    </rdf:rdf>
  </metadata>
  <g id="logo-group">
    <g id="title" style="fill: white" aria-label="Vite &amp; Rêves">
      <path d="m 358.49937,6.264 q -2.52,0 -4.752,-1.44 -2.16,-1.44 -2.16,-4.968 0,-2.016 0.72,-4.68 0.72,-2.736 2.304,-7.704 2.664,-8.208 4.104,-14.616 1.512,-6.408 1.512,-13.104 0,-4.176 -0.93599,-6.336 -0.93601,-2.232 -3.45601,-2.232 -2.30399,0 -3.88799,1.8 -1.512,1.728 -2.30401,4.32 -0.71999,2.52 -0.71999,4.896 0,2.592 1.07999,4.68 -3.384,0 -5.04,-1.584 -1.656,-1.584 -1.656,-4.176 0,-2.952 1.872,-5.976 1.944,-3.024 5.11201,-4.968 3.24,-2.016 6.98399,-2.016 4.824,0 7.344,3.528 2.592,3.528 2.592,9.792 0,4.824 -1.296,10.08 -1.296,5.256 -3.816,13.392 -2.016,6.336 -2.87999,9.72 -0.86401,3.312 -0.86401,5.904 0,1.296 0.36,1.872 0.36,0.576 1.368,0.576 4.032,0 10.08,-7.128 6.048,-7.128 10.51201,-16.92 4.53599,-9.792 4.53599,-17.136 0,-6.984 -4.82399,-8.568 0.93599,-2.016 2.37599,-3.024 1.44,-1.08 2.736,-1.08 1.296,0 2.52001,1.152 1.296,1.152 2.08799,3.312 0.79201,2.088 0.79201,4.896 0,7.632 -5.54401,19.152 -5.472,11.52 -13.176,20.088 -7.632,8.496 -13.68,8.496 z" transform="translate(0 410.4557820182865) translate(167.19958271738523 -2.4837497601545664) scale(2.0124180123486606) translate(-343.30737 51.84)"></path>
      <path d="m 401.80287,-30.312 q -1.51199,0 -2.592,-0.72 -1.008,-0.72 -1.008,-2.088 0,-1.656 1.80001,-2.88 1.87199,-1.296 3.95999,-1.296 3.096,0 3.096,2.664 0,1.512 -1.656,2.952 -1.656,1.368 -3.6,1.368 z m -8.496,32.472 q -3.024,0 -4.68,-1.8 -1.656,-1.8 -1.656,-4.608 0,-2.88 1.584,-7.776 1.656,-4.968 4.10401,-8.712 2.51999,-3.744 5.03999,-3.744 0.93601,0 1.512,0.576 0.648,0.504 0.648,1.512 0,0.648 -0.576,1.8 -0.57599,1.08 -1.872,3.168 -2.304,3.816 -3.672,6.768 -1.29599,2.88 -1.29599,5.472 0,2.232 0.79199,3.024 0.79201,0.792 2.44801,0.792 5.68799,0 11.30399,-11.016 l 1.08,1.152 q -2.52,6.336 -6.40799,9.864 -3.88801,3.528 -8.35201,3.528 z" transform="translate(0 410.4557820182865) translate(255.06879659957096 26.784857811444354) scale(2.0124180123486606) translate(-386.97087 37.296)"></path>
      <path d="m 411.677,3.312 q -3.312,0 -5.184,-1.944 -1.872,-1.872 -1.872,-5.616 0,-2.808 1.08,-7.128 1.08,-4.392 2.88,-9.288 -1.872,-0.36 -2.52,-0.648 v -2.232 q 1.728,0.216 3.456,0.36 3.24,-8.136 6.912,-13.968 3.744,-5.832 6.048,-5.832 0.792,0 1.368,0.576 0.648,0.576 0.648,1.512 0,1.152 -1.008,3.096 -1.008,1.944 -3.312,5.904 -3.168,5.328 -4.968,8.928 8.28,0 13.176,-0.504 v 2.376 q -8.496,0.864 -14.472,0.864 -3.744,8.856 -3.744,14.472 0,2.952 0.936,4.176 0.936,1.224 2.952,1.224 3.6,0 7.344,-3.24 3.816,-3.312 6.624,-8.928 l 1.008,0.72 q -2.952,6.696 -7.632,10.944 -4.68,4.176 -9.72,4.176 z" transform="translate(0 410.4557820182865) translate(290.5882361318664 15.338224157205175) scale(2.0124180123486606) translate(-404.621 42.984)"></path>
      <path d="m 434.14887,3.168 q -4.536,0 -7.056,-2.448 -2.52,-2.448 -2.52,-6.264 0,-4.176 2.808,-9 2.808,-4.896 7.2,-8.136 4.392,-3.312 8.64,-3.312 2.232,0 3.744,1.152 1.512,1.08 1.512,3.672 0,3.456 -2.66399,6.552 -2.66401,3.024 -6.91201,4.968 -4.176,1.944 -8.568,2.448 -0.144,0.72 -0.144,1.656 0,1.872 1.008,3.744 1.08001,1.872 4.536,1.872 4.392,0 8.928,-3.528 4.608,-3.6 7.416,-8.928 l 1.44001,1.152 q -2.88,6.48 -8.28001,10.44 -5.32799,3.96 -11.088,3.96 z m -3.024,-13.032 q 2.59201,-0.288 5.76001,-2.088 3.23999,-1.8 5.47199,-4.392 2.23201,-2.664 2.23201,-5.184 0,-0.792 -0.288,-1.08 -0.28801,-0.288 -0.93601,-0.288 -2.08799,0 -4.608,2.016 -2.448,1.944 -4.536,4.968 -2.08799,3.024 -3.096,6.048 z" transform="translate(0 410.4557820182865) translate(330.7397386999053 49.533231023033615) scale(2.0124180123486606) translate(-424.57287 25.992)"></path>
      <path d="m 485.74137,6.264 q -4.536,0 -8.064,-1.8 -3.45599,-1.8 -5.4,-4.824 -1.944,-3.096 -1.944,-6.768 0,-4.32 2.37601,-8.352 2.37599,-4.032 6.55199,-6.84 4.248,-2.808 9.432,-3.528 -2.51999,-2.232 -3.88799,-5.04 -1.29601,-2.88 -1.29601,-5.76 0,-3.888 1.944,-7.344 2.01601,-3.528 5.616,-5.616 3.6,-2.16 8.136,-2.16 4.32,0 6.55201,2.088 2.30399,2.016 2.30399,5.904 0,2.664 -0.93599,5.328 -0.86401,2.664 -2.30401,4.392 -1.368,1.656 -2.736,1.656 -1.8,0 -3.456,-2.952 6.192,-5.04 6.192,-9.432 0,-2.088 -1.224,-3.312 -1.224,-1.224 -3.6,-1.224 -4.68,0 -7.344,3.888 -2.664,3.816 -2.664,9.36 0,3.24 1.08,6.264 1.08001,2.952 4.17601,5.4 -5.04001,0.792 -8.928,3.528 -3.81601,2.664 -5.97601,6.408 -2.088,3.672 -2.088,7.344 0,3.888 2.304,6.912 2.376,3.024 7.05601,3.024 4.96799,0 9.57599,-3.024 4.608,-3.096 7.704,-7.992 3.096,-4.968 3.74401,-10.368 -1.72801,0.072 -3.60001,0.36 -1.872,0.288 -4.392,0.792 -1.15199,0.144 -1.8,0.288 0.072,-3.384 2.23201,-4.752 2.15999,-1.368 5.904,-1.368 2.30399,0 6.04799,0.576 3.528,0.648 6.264,0.648 -1.00799,2.16 -1.872,2.736 -0.864,0.576 -1.94399,0.576 l -4.032,0.072 q -0.64801,6.48 -4.392,12.24 -3.74401,5.688 -9.43201,9.144 -5.61599,3.528 -11.88,3.528 z" transform="translate(0 410.4557820182865) translate(422.8289931539861 -2.3388556632654627) scale(2.0124180123486606) translate(-470.33337 51.768)"></path>
      <path d="m 572.82875,8.712 q -2.664,0 -6.624,-4.536 -3.96,-4.464 -7.92,-10.8 -3.96,-6.336 -6.768,-12.024 -1.296,4.464 -4.32,15.264 l -2.736,9.72 q -2.232,0 -4.032,-1.224 -1.728,-1.152 -1.728,-2.952 0,-0.864 0.432,-2.232 0.432,-1.368 0.576,-1.728 5.544,-16.848 8.64,-25.272 3.168,-8.496 9,-21.816 -3.888,0.792 -8.208,3.096 -0.432,0.144 -1.08,0.504 -0.648,0.288 -0.936,0.288 -0.648,0 -1.8,-1.008 -1.08,-1.008 -1.08,-1.8 4.32,-1.728 8.568,-2.88 4.248,-1.152 8.784,-1.152 4.752,0 9.216,1.512 4.536,1.44 7.488,4.608 2.952,3.096 2.952,7.776 0,6.192 -4.968,9.648 -4.896,3.456 -11.088,4.68 -6.12,1.224 -11.232,1.368 l 1.872,2.952 q 3.456,5.544 6.048,9.216 2.592,3.672 6.336,7.704 3.816,3.96 9,7.92 -0.288,1.368 -1.728,2.232 -1.368,0.936 -2.664,0.936 z m -19.656,-33.12 q 9.144,-0.648 15.624,-4.392 6.48,-3.816 6.48,-10.584 0,-5.112 -3.672,-7.416 -3.672,-2.376 -9.216,-2.52 -4.032,8.064 -9.216,24.912 z" transform="translate(0 410.4557820182865) translate(560.4127401230717 -2.4837497601545664) scale(2.0124180123486606) translate(-538.70075 51.84)"></path>
      <path d="m 587.43012,3.168 q -4.53599,0 -7.05599,-2.448 -2.52001,-2.448 -2.52001,-6.264 0,-4.176 2.808,-9 2.80801,-4.896 7.2,-8.136 4.39201,-3.312 8.64,-3.312 2.232,0 3.744,1.152 1.512,1.08 1.512,3.672 0,3.456 -2.664,6.552 -2.664,3.024 -6.91199,4.968 -4.17601,1.944 -8.56801,2.448 -0.14399,0.72 -0.14399,1.656 0,1.872 1.00799,3.744 1.08001,1.872 4.53601,1.872 4.39199,0 8.928,-3.528 4.60799,-3.6 7.41599,-8.928 l 1.44001,1.152 q -2.88,6.48 -8.28,10.44 -5.32801,3.96 -11.08801,3.96 z m -3.024,-13.032 q 2.592,-0.288 5.76,-2.088 3.24,-1.8 5.472,-4.392 2.23201,-2.664 2.23201,-5.184 0,-0.792 -0.288,-1.08 -0.28801,-0.288 -0.93601,-0.288 -2.08799,0 -4.60799,2.016 -2.44801,1.944 -4.53601,4.968 -2.08799,3.024 -3.096,6.048 z m 21.816,-19.728 q -1.008,-1.8 -2.23199,-3.096 -1.15201,-1.296 -2.952,-2.88 -3.312,1.08 -7.34401,3.744 -0.504,-0.288 -0.72,-0.864 -0.216,-0.648 -0.216,-1.152 0,-1.296 1.584,-2.736 1.584,-1.44 3.60001,-2.448 2.08799,-1.008 3.168,-1.008 1.15199,0 2.808,1.296 1.65599,1.296 2.88,3.096 1.22399,1.8 1.22399,3.24 0,0.792 -0.432,1.584 -0.43199,0.792 -1.368,1.224 z" transform="translate(0 410.4557820182865) translate(639.2056871552234 21.278882129658427) scale(2.0124180123486606) translate(-577.85412 40.032)"></path>
      <path d="m 609.0155,2.808 q -2.592,0 -3.672,-2.304 -1.08,-2.232 -1.08,-6.336 0,-2.016 0.288,-8.568 0.072,-2.304 0.504,-3.024 0.432,-0.72 2.232,-0.72 1.656,0 2.016,0.648 0.36,0.576 0.36,2.808 0,1.368 -0.144,4.536 -0.216,2.376 -0.216,4.824 0,2.448 0.216,3.384 0.288,0.936 1.08,0.936 2.304,0 5.544,-4.536 3.312,-4.608 5.76,-10.152 0.144,-4.608 1.08,-6.408 0.936,-1.8 2.664,-1.8 1.584,0 2.304,1.008 0.792,1.008 0.792,2.16 0,0.72 -0.36,1.368 -0.288,0.648 -0.36,0.864 -0.72,1.224 -1.152,2.736 -0.432,1.44 -0.432,3.96 0,5.04 3.096,5.04 1.44,0 2.808,-1.224 1.368,-1.224 2.808,-4.104 l 0.792,0.648 q -1.584,3.744 -3.6,5.472 -1.944,1.656 -4.032,1.656 -2.232,0 -3.816,-1.8 -1.512,-1.8 -2.304,-4.896 -3.168,5.904 -6.624,9.864 -3.384,3.96 -6.552,3.96 z" transform="translate(0 410.4557820182865) translate(692.3523991621839 53.73515983281762) scale(2.0124180123486606) translate(-604.2635 23.904)"></path>
      <path d="m 641.57075,3.168 q -4.536,0 -7.056,-2.448 -2.52,-2.448 -2.52,-6.264 0,-4.176 2.808,-9 2.808,-4.896 7.2,-8.136 4.392,-3.312 8.64,-3.312 2.232,0 3.744,1.152 1.512,1.08 1.512,3.672 0,3.456 -2.664,6.552 -2.664,3.024 -6.912,4.968 -4.176,1.944 -8.568,2.448 -0.144,0.72 -0.144,1.656 0,1.872 1.008,3.744 1.08,1.872 4.536,1.872 4.392,0 8.928,-3.528 4.608,-3.6 7.416,-8.928 l 1.44,1.152 q -2.88,6.48 -8.28,10.44 -5.328,3.96 -11.088,3.96 z m -3.024,-13.032 q 2.592,-0.288 5.76,-2.088 3.24,-1.8 5.472,-4.392 2.232,-2.664 2.232,-5.184 0,-0.792 -0.288,-1.08 -0.288,-0.288 -0.936,-0.288 -2.088,0 -4.608,2.016 -2.448,1.944 -4.536,4.968 -2.088,3.024 -3.096,6.048 z" transform="translate(0 410.4557820182865) translate(748.1592661671276 49.533231023033615) scale(2.0124180123486606) translate(-631.99475 25.992)"></path>
      <path d="m 666.25212,3.672 q -5.03999,0 -7.48799,-2.952 -2.37601,-2.88 -2.37601,-6.912 0,-2.808 1.008,-3.888 1.00801,-1.152 2.232,-1.728 1.296,-0.576 1.512,-0.792 4.608,-4.752 6.98401,-9.864 v -0.72 q 0,-2.664 0.86399,-3.96 0.936,-1.296 2.376,-1.296 1.584,0 1.728,1.44 0,0.36 -0.216,1.08 -0.144,0.72 -0.144,1.512 0,1.368 0.43201,2.88 0.432,1.512 1.36799,4.104 1.152,3.168 1.72801,5.472 0.648,2.304 0.648,4.68 0,1.224 -0.288,2.952 4.89599,-1.224 8.49599,-8.136 l 0.86401,0.648 q -1.44001,4.104 -4.03201,6.624 -2.51999,2.52 -5.976,3.024 -1.152,2.88 -3.744,4.32 -2.592,1.512 -5.976,1.512 z m 4.68001,-8.136 q 0.216,-0.648 0.216,-2.232 -0.072,-2.304 -0.504,-4.536 -0.432,-2.232 -1.29601,-5.76 l -0.648,-2.592 q -3.52799,6.12 -6.264,9 1.224,2.088 3.456,3.816 2.23201,1.656 5.04001,2.304 z m -5.18401,4.968 q 1.44001,0 2.664,-0.72 1.296,-0.72 1.94401,-2.088 -2.808,-0.576 -5.184,-2.16 -2.37601,-1.656 -3.816,-3.528 -1.00801,0.216 -1.00801,1.944 0,2.592 1.44001,4.608 1.43999,1.944 3.95999,1.944 z" transform="translate(0 410.4557820182865) translate(797.2489233370131 44.606831728804096) scale(2.0124180123486606) translate(-656.38812 28.44)"></path>
    </g>
  </g>
</svg>
