<svg xmlns="http://www.w3.org/2000/svg" viewBox="0 0 1193 1193"><defs/><filter id="a"><feGaussianBlur stdDeviation="12"/></filter><rect width="100%" height="100%" fill="#315849"/><g filter="url(#a)"><g fill-opacity=".5" transform="translate(2.3 2.3) scale(4.66016)"><circle cx="174" cy="29" r="237" fill="#6df2ff"/><ellipse cx="231" cy="207" fill="#fff" rx="179" ry="48"/><circle r="1" fill="#0083ce" transform="matrix(-249.42764 53.01748 -16.35668 -76.95213 107.7 38.7)"/><ellipse cx="58" cy="197" fill="#d9e7d9" rx="255" ry="24"/><circle r="1" fill="#09221b" transform="rotate(17.1 -489.9 328) scale(55.70601 15.15977)"/><circle r="1" fill="#055150" transform="matrix(-38.02677 11.91687 -14.7064 -46.92817 183.1 105.2)"/><ellipse cx="33" cy="251" fill="#120000" rx="88" ry="23"/><circle r="1" fill="#44d2ff" transform="matrix(128.13061 162.2415 -29.25682 23.10565 208.2 0)"/><circle r="1" fill="#008cb7" transform="matrix(-10.61327 -73.4898 140.99465 -20.36221 34.9 55)"/><circle cx="213" cy="213" r="58" fill="#e3f4ef"/><path fill="#b9e0d5" d="M98.3 154.4l-45.7-19.1 79.4-2.4 30.2 10.6z"/><path fill="#03515a" d="M160 31h41v76h-41z"/><circle r="1" fill="#b0e1d2" transform="matrix(-52.8412 -25.8421 1.91166 -3.90891 175.5 118)"/><circle r="1" fill="#7d583d" transform="matrix(41.0066 8.7803 -2.60429 12.1628 146.3 255)"/><ellipse cx="113" cy="8" fill="#00a2d6" rx="49" ry="98"/><path fill="#00adde" d="M243 54h13v107h-13z"/><circle r="1" fill="#007fa6" transform="matrix(-82.32562 4.48035 -3.68777 -67.76221 17.5 63.3)"/><ellipse cx="138" cy="162" fill="#757760" rx="30" ry="13"/><circle r="1" fill="#a2bdb3" transform="matrix(3.30148 -26.5059 64.59607 8.04587 37 195.6)"/><path fill="#123432" d="M55.8 138.9l18.3 35.8-70.7-13.5-19.4 19.4z"/><path fill="#afd4ca" d="M188.8 8.8l14.8 21.9-17.1 2.5-27.2-18.7z"/><path fill="#165853" d="M125.7 119.8l53.9-.1-38.6 15.1-47.5-9.5z"/><path fill="#c8e9e1" d="M175 152l96 11-149 81z"/><path fill="#83b694" d="M92 117l98 2-59-19z"/><circle r="1" fill="#6b6157" transform="matrix(1.21466 -4.69676 96.14783 24.86552 66 233.7)"/><path fill="#00080c" d="M-13.2 243.2l17.4-26.9 47 30.5-17.4 26.9z"/><circle r="1" fill="#dadbcd" transform="matrix(-57.94801 -1.6967 .30218 -10.32036 124.9 229.1)"/><circle r="1" fill="#4caaa8" transform="matrix(26.12863 23.85872 -7.14233 7.82184 221.4 89)"/><path fill="#005056" d="M160.5 150.5l10.3-7.4-8.4-24.5 67.3 37.6z"/><path fill="#0098c1" d="M51 129L30-16l142 88z"/><path fill="#006f93" d="M-16 153L1-16l36 91z"/><path fill="#00b3eb" d="M194 61l77 33-8-49z"/><path fill="#92c0b0" d="M139.8 170.6l-30-2.4-81.5 56 177.2-66.8z"/><path fill="#74c8c0" d="M1 152h35l-13-13z"/><circle r="1" fill="#7bcac3" transform="rotate(100.4 -9.4 101.3) scale(6.16069 29.98393)"/><circle r="1" fill="#004c5f" transform="rotate(-101.4 130 -28.5) scale(26.19949 17.00386)"/><circle r="1" fill="#50b8fb" transform="matrix(-16.67089 26.9248 -34.39125 -21.29385 221.6 0)"/><circle r="1" fill="#00afc8" transform="matrix(-13.91271 -5.64027 10.98939 -27.10722 255 134.2)"/><path fill="#9ed6d4" d="M178 116.3l45.8 24.4-3.7 7-46-24.4z"/><path fill="#1a4e50" d="M140.1 175.6L4.2 119.7l96.9 59.6 21.6-20.4z"/><circle r="1" fill="#00afe5" transform="matrix(-33.65533 -.06459 .05038 -26.25045 135.1 4.7)"/><path fill="#a8dfd6" d="M118.3 154.3l52.3-16.6-13.5 3-52-14.6z"/><path fill="#1d7a7e" d="M204.7 114.2l11.8-12.2 28.8 27.8-11.8 12.2z"/><circle r="1" fill="#24636c" transform="rotate(21.8 -304.1 245.9) scale(26.01583 2.15541)"/><circle r="1" fill="#30898e" transform="matrix(-5.01873 9.01687 -24.74692 -13.77396 182.2 34.3)"/><path fill="#43402f" d="M90.3 271L58 245.4l-2.2-26.7 4.5-.2z"/><circle r="1" fill="#cfd9d3" transform="rotate(82.5 -31.6 257.3) scale(34.43208 48.35171)"/><path fill="#367f72" d="M106.9 179.6l22.4.4-41.6-13.6-71-11.9z"/><path fill="#d3bda0" d="M113 246l44-7-52-7z"/><circle r="1" fill="#96c0b9" transform="rotate(157.3 -8 94.7) scale(20.16127 21.83636)"/><path fill="#78cac0" d="M250 105l-46-39 43 20z"/><path fill="#126b7a" d="M155.3 29.6l5.4 27.1 46.6 19.1-41.9-55.1z"/><path fill="#115759" d="M169 113l-10 17 52 25z"/><circle r="1" fill="#b0ded5" transform="matrix(.4049 -4.59762 28.59835 2.51863 191.9 157.9)"/><path fill="#bfd6c2" d="M157 103l12 11-34-9z"/><circle r="1" fill="#b7b4a9" transform="matrix(-59.10178 -18.86178 2.02893 -6.35747 29 212.1)"/><path fill="#2c3328" d="M101 264l-47-22 98 14z"/><circle r="1" fill="#00a7d3" transform="matrix(13.06395 21.04962 -10.16662 6.30967 148.2 57)"/><circle r="1" fill="#214d4c" transform="rotate(15.3 -537.1 418.1) scale(18.25299 9.48209)"/><path fill="#3e9498" d="M237.1 156.7l14.8-57.5-96.6-62.4 66.5 58.3z"/><path fill="#003437" d="M106 165l-80-27 34 25z"/><path fill="#3f6054" d="M135 147h14v10h-14z"/><circle r="1" fill="#99b19a" transform="matrix(-5.2448 -7.79077 5.79948 -3.90425 135.7 158.6)"/><path fill="#00a1bf" d="M58.8 98.2l-6.3 12.9 41.2 15.4 48.2-57.2z"/><path fill="#00bbca" d="M161.2 133.9l4.7-1.6 6.9 19.8-4.7 1.6z"/><circle r="1" fill="#00080a" transform="matrix(.86713 -7.85436 43.70976 4.8256 22.3 250.9)"/><path fill="#a0dfef" d="M190.9 12.1l10.3 9.9-2.7 4.8-36.1-18.5z"/><path fill="#89c7c6" d="M65 131l-27-2 29 14z"/><circle r="1" fill="#005c67" transform="matrix(-6.00093 13.46882 -27.34822 -12.18479 179.8 100.7)"/><circle cx="23" cy="101" r="31" fill="#0087a4"/><path fill="#7aa8a4" d="M69.3 240.4l60.2 1.2-49-12.3 9.2 1z"/><ellipse cx="230" cy="43" fill="#2cb3ee" rx="26" ry="24"/><circle r="1" fill="#323330" transform="matrix(-37.59676 -8.81824 2.0234 -8.62684 12.7 228.9)"/><path fill="#2a8785" d="M247.1 161.2l-32.8-5.7-32.8-29 29 13z"/><path fill="#00adcf" d="M258 55l-19 104 32-2z"/><path fill="#d5f3f4" d="M257 162l12 63-75-15z"/><path fill="#489989" d="M133 95l-16 13 42 13z"/><path fill="#c5dfdd" d="M157 209h47v41h-47z"/><ellipse cx="64" cy="195" fill="#729f8d" rx="8" ry="5"/><path fill="#afd5c7" d="M165.3 146.9l-32-8 1.4-5.8 32 8z"/><path fill="#23a9a0" d="M0 134h26v14H0z"/><path fill="#3f585b" d="M83.5 153.8l-17.8-3.5-40.6-8 9.9-13.6z"/><path fill="#5dc0b5" d="M112.2 120.7l-14.9-1.2 14.9-17.1 21.9 16.7z"/><path fill="#a6dad2" d="M53 193l56-12-79-12z"/><path fill="#698879" d="M161 141l12 20-46 14z"/><path fill="#438887" d="M99 131l-23 4 35 6z"/><path fill="#798076" d="M17 150.4l-33 13.5 35.3.8-13.2-17.5z"/><ellipse cx="79" cy="126" fill="#96e1d9" rx="13" ry="4"/><path fill="#254f4f" d="M116 157h17v11h-17z"/><circle r="1" fill="#009ace" transform="matrix(-8.77028 19.87643 -50.71652 -22.37817 104.1 18.7)"/><circle r="1" fill="#0c6461" transform="matrix(.26513 4.74223 -15.86781 .88715 124.3 125.1)"/><path fill="#6dafa8" d="M227 108h17v16h-17z"/><path fill="#41959b" d="M185 41l20.2 39.8-9.8-45.9-37.3-18z"/><circle r="1" fill="#aca58a" transform="matrix(-4.06495 .06386 -.07845 -4.99381 112.6 155.1)"/><path fill="#6f512d" d="M130 253l10-6-16-4z"/><path fill="#a0d8cb" d="M150 138h3v24h-3z"/><path fill="#006a6c" d="M162.2 84.7l-2.6 18.8-15.8-2.2 2.6-18.8z"/><path fill="#cdf0e6" d="M196.5 126.7l-1 2.8-18-6.2 1-2.8z"/><path fill="#909b98" d="M10 215.4l29.4 6.6-9.4-26.3-1.2 30z"/><path fill="#3d574c" d="M59.1 173.6l-34-8.4 1.8-6.8 34 8.4z"/></g></g></svg>