<svg xmlns="http://www.w3.org/2000/svg" viewBox="0 0 1345 1345"><defs/><filter id="a"><feGaussianBlur stdDeviation="12"/></filter><rect width="100%" height="100%" fill="#573633"/><g filter="url(#a)"><g fill-opacity=".5" transform="translate(2.6 2.6) scale(5.2539)"><circle r="1" fill="#e1e3dc" transform="matrix(121.10484 224.40726 -130.22797 70.27953 123 54)"/><circle r="1" fill="#fff" transform="matrix(-37.02187 -44.2993 136.95809 -114.45882 26.5 35.6)"/><circle r="1" fill="#1e0b0d" transform="matrix(-51.11848 33.19673 -37.01727 -57.0016 97.7 174.5)"/><ellipse cx="83" cy="1" fill="#fff" rx="222" ry="14"/><path fill="#f4f0d9" d="M0 156h21v67H0z"/><circle r="1" fill="#492c2a" transform="matrix(40.5337 -41.39165 17.68703 17.32042 185.6 58)"/><ellipse cx="32" cy="27" fill="#fff" rx="65" ry="30"/><circle r="1" fill="#ffebda" transform="matrix(9.3389 -24.02136 28.23638 10.9776 197 229)"/><circle r="1" fill="#dbf8f7" transform="matrix(-24.71187 -4.75876 11.79197 -61.23485 255 76.7)"/><path fill="#603d2a" d="M115.7 126.8l22.6-29.3L15.8 75.1l38.5-36z"/><path fill="#fff" d="M-16 43.8l173.1 9.9-69.4 41.6L53.9-16z"/><ellipse cx="125" cy="254" fill="#f9fefd" rx="49" ry="11"/><circle r="1" fill="#ffbdaa" transform="matrix(19.0521 -6.12328 4.19388 13.04894 96 155.6)"/><path fill="#3f3637" d="M162 186h94v22h-94z"/><circle r="1" fill="#0a252e" transform="matrix(40.33387 -55.10925 23.0311 16.85621 34.1 215.9)"/><circle r="1" fill="#a4665d" transform="matrix(.99356 -64.97731 27.95426 .42745 194.4 114.9)"/><circle r="1" fill="#546164" transform="rotate(-69.1 84 -64.3) scale(24.62993 16.3878)"/><ellipse cx="122" cy="184" fill="#040f2c" rx="23" ry="32"/><circle r="1" fill="#e3ab89" transform="matrix(-5.27887 -4.33611 24.94383 -30.36712 69.8 223)"/><path fill="#b3bcc0" d="M23.2 203.8L37.7 230l-14.9 8.2L8.3 212z"/><circle r="1" fill="#552e0f" transform="matrix(-7.10395 -4.01922 14.88102 -26.3021 237 235)"/><ellipse cx="193" cy="200" fill="#ffe8dc" rx="8" ry="22"/><ellipse cx="3" cy="71" fill="#fff" rx="15" ry="61"/><path fill="#fdb9a0" d="M132 115h24v33h-24z"/><circle r="1" fill="#825c56" transform="matrix(-7.77683 -18.41032 32.63613 -13.78604 127.7 225.1)"/><path fill="#fed2c3" d="M26 68h29v48H26z"/><ellipse cx="84" cy="1" fill="#fff" rx="205" ry="11"/><path fill="#f5c6a8" d="M20 125l26 29-55 54z"/><path fill="#583733" d="M154 99l61 72-63-138z"/><circle r="1" fill="#00040d" transform="matrix(3.18732 9.25995 -33.48702 11.5264 80 190.1)"/><circle r="1" fill="#ffe6d3" transform="matrix(-4.69705 3.22217 -16.23156 -23.66126 164 217)"/><circle r="1" fill="#d09695" transform="matrix(12.11336 13.35917 -16.35337 14.82833 189.8 72.6)"/><circle r="1" fill="#fff" transform="matrix(16.78446 51.05022 -10.70087 3.51827 76 30.8)"/><path fill="#3d3939" d="M72 92h63v18H72z"/><path fill="#989ca1" d="M62 172l-19 31-8-25z"/><path fill="#e1cfbe" d="M117 42h35v45h-35z"/><path d="M94 217l-17 41-43 13z"/><path fill="#181014" d="M212.9 180.2l-15.6 14.4 12.3 18 17.7-7.2z"/><circle r="1" fill="#2b2925" transform="rotate(-109 106.7 -42.5) scale(10.01152 31.81531)"/><circle r="1" fill="#35211e" transform="rotate(-116.2 143.4 40.7) scale(23.67044 8.75049)"/><circle r="1" fill="#bb8275" transform="rotate(142.1 13.7 128.5) scale(9.4211 34.09873)"/><circle r="1" fill="#0d122b" transform="rotate(-13.2 694.6 -963) scale(19.7606 2.41602)"/><path fill="#7e807e" d="M95 13h12v99H95z"/><path fill="#263f50" d="M127 13h15v31h-15z"/><path fill="#3e291c" d="M70.4 153.5L2.1 211.6 81.5 88.7l-5.1 18z"/><path fill="#fff" d="M134 241h24v15h-24zm99-85h23v5h-23z"/><path fill="#f5cabd" d="M202 271l-45-62 82 3z"/><ellipse cx="255" cy="40" fill="#fff" rx="5" ry="79"/><circle r="1" fill="#090204" transform="rotate(-109 106.7 22.1) scale(24.89874 6.21291)"/><ellipse cx="24" cy="132" fill="#753b2a" rx="5" ry="20"/><path fill="#f6fcff" d="M214.1 146.8l23.1-30.5-27.7 21.2 40.2-2.1z"/><path fill="#fff" d="M143 1h4v66h-4z"/><circle r="1" fill="#2d2d49" transform="rotate(55.4 -49.4 229.3) scale(3.14994 34.15194)"/><path fill="#00000a" d="M238 161h18v6h-18z"/><circle r="1" fill="#fff" transform="matrix(-.27064 -2.567 13.06056 -1.37697 244 147.2)"/><circle r="1" fill="#627c82" transform="rotate(-6.2 268 -1727.3) scale(40.27536 8.80287)"/><path fill="#725a4b" d="M209.8 271l-58.7-50.6 15 50.6.8-26.3z"/><path fill="#412b1b" d="M125 244l28-35 8 18z"/><path d="M18 187l13 29 40-8z"/><path fill="#f4fbf2" d="M229.7 253.8l23.7-10.6 5 11-23.8 10.6z"/><path fill="#ddaea1" d="M91 175l4-27-25-6z"/><path d="M11.3 267l-19.6-31.4 17-10.6 19.6 31.4z"/><path fill="#d8e4d6" d="M236.3 129.8l-6-32.8-27.7.8 47.1-31.5z"/><circle r="1" fill="#b5916f" transform="matrix(5.72471 -2.53684 21.70237 48.97418 240.8 193.3)"/><path fill="#fff" d="M0 0h96v48H0z"/><circle r="1" fill="#5b504d" transform="rotate(172.7 100.2 41.2) scale(37.93154 4.24624)"/><path fill="#fff" d="M158 123l12-10-2 14z"/><circle r="1" fill="#9a6c4c" transform="matrix(4.5912 2.58666 -8.55749 15.18917 23.2 74.9)"/><path d="M241 175l22-4-15 8z"/><circle r="1" fill="#20282a" transform="matrix(-.50745 -9.7656 13.46453 -.69966 155.3 92.5)"/><path fill="#623423" d="M74.6 57.3L84 86l-8.5 2.8L66 60z"/><path fill="#000724" d="M236 149h20v6h-20z"/><path fill="#2e444a" d="M200 21l13 54 17-57z"/><path fill="#9fb0ad" d="M256 32l-43 14 22 37z"/><circle r="1" fill="#f5c9c5" transform="matrix(.53067 -1.95318 15.88033 4.31459 118.3 229.3)"/><path fill="#1d1b26" d="M141 232.1l-47.2-57 51.2 51.2-55.3-8.4z"/><path fill="#a16566" d="M174 223h42v6h-42z"/><path fill="#fff" d="M239 169h17v5h-17z"/><circle r="1" fill="#bb8778" transform="matrix(7.87796 -20.67433 11.70388 4.45977 100.6 154.6)"/><circle cx="147" cy="72" r="13" fill="#c29273"/><path fill="#adacae" d="M149.7 183.3l24.4-3.6 6.5-1-30.4 16.6z"/><path fill="#9dbccb" d="M90.6 235l18.2 14.2L93.4 269l-18.2-14.1z"/><path d="M26 113l-15 9 5-10z"/><path fill="#fffffb" d="M-16 104L47.6-16 13.1 90.5l41.4 29.2z"/><path fill="#3d505d" d="M173.4 15.5l-66.2 12.2L145 17.2l3.5 26.1z"/><path fill="#d08d7c" d="M79 86l-17 33-33-26z"/><circle r="1" fill="#000407" transform="matrix(33.68784 -33.48943 5.52705 5.5598 27.1 255)"/><path fill="#bb8262" d="M47 129l-36 67 32-34z"/><path fill="#888c90" d="M20 196.6l-36 41v-3.1l46.1-16.9z"/><path fill="#ffe0ce" d="M18 163l4-37-12 5z"/><ellipse cx="180" cy="197" fill="#000005" rx="8" ry="7"/><ellipse cx="238" cy="4" fill="#f2ffff" rx="190" ry="6"/><path fill="#a6a59e" d="M200-3l-46 37 41-11z"/><path fill="#00001f" d="M238 139h18v4h-18z"/><path fill="#58516a" d="M244.7 119.9l24.9-2.2-36.7 9.7 38.1-23.5z"/><path fill="#6d2a22" d="M208 98h14v15h-14z"/><path fill="#b68a71" d="M88.3 218.9l-25.6 26.6-30.8 20.9 56.2-75.1z"/><path fill="#865a47" d="M56.4 55.9l7.7 7.7-20.5 20.5-7.7-7.7z"/><path fill="#d7a199" d="M133.7 224.3l-29-5.8-18-8.8 37.6 6.2z"/></g></g></svg>