<svg xmlns="http://www.w3.org/2000/svg" viewBox="0 0 1024 682"><defs/><filter id="a"><feGaussianBlur stdDeviation="12"/></filter><rect width="100%" height="100%" fill="#523636"/><g filter="url(#a)"><g fill-opacity=".5" transform="matrix(4 0 0 4 2 2)"><circle r="1" fill="#fff" transform="matrix(178.0959 182.50165 -80.0262 78.0943 155.6 56.4)"/><circle r="1" fill="#fbffff" transform="matrix(-139.96076 -49.19093 21.56447 -61.35642 134.4 42.6)"/><ellipse cx="73" cy="122" fill="#38463a" rx="15" ry="95"/><circle r="1" fill="#1e6e61" transform="matrix(-16.75137 18.4785 -30.0257 -27.21928 234.6 143)"/><circle cx="134" cy="67" r="55" fill="#feffff"/><circle r="1" fill="#869f9d" transform="matrix(-76.074 -22.9304 5.13876 -17.04836 26.4 69.7)"/><circle r="1" fill="#c4f3df" transform="matrix(-56.80003 15.83823 -5.34297 -19.1613 130.8 158.7)"/><path fill="#352e23" d="M38 87l97 45-140 36z"/><circle r="1" fill="#78b5ec" transform="matrix(20.21099 -13.89056 48.82773 71.0451 246.4 22.8)"/><circle r="1" fill="#caeafb" transform="rotate(18.4 -225.5 48.3) scale(51.0121 5.92462)"/><circle cx="26" cy="9" r="39" fill="#f1fdff"/><circle r="1" fill="#02130d" transform="matrix(39.3541 .53705 -.0504 3.69308 217.7 125.7)"/><path fill="#fff" d="M102 42h19v87h-19z"/><circle r="1" fill="#3f595f" transform="matrix(20.47187 12.58452 -6.03819 9.82262 22.2 61.4)"/><path fill="#6c9578" d="M97.9 183.2l-51.2 9-6.6-37.4 51.2-9z"/><path fill="#9e9c7b" d="M37.1 132.3l87-2.8-84.8 9.1-55.3-.2z"/><path fill="#854c57" d="M104 120L84 73 5 113z"/><circle r="1" fill="#428770" transform="rotate(177.7 88.2 86.3) scale(84.64505 5.94806)"/><circle r="1" fill="#1c3525" transform="matrix(-51.8799 9.14783 -.6218 -3.52642 130.7 132)"/><path fill="#dedbd1" d="M81.5 71.9L43.2 89.7 39 72.1l25-14z"/><path fill="#003553" d="M91 36l-21-8-13 7z"/><circle r="1" fill="#e2eded" transform="matrix(-14.56835 70.97146 -18.08663 -3.71265 190.1 51.1)"/><path d="M13 134L5 82l-21 46z"/><circle r="1" fill="#000d00" transform="matrix(.83366 5.03574 -83.93427 13.89523 22 152.1)"/><ellipse cx="248" cy="99" fill="#c4d7dd" rx="42" ry="23"/><ellipse cx="180" cy="145" fill="#aecdbe" rx="50" ry="16"/><path fill="#4e5e3e" d="M58 80h41v8H58z"/><circle r="1" fill="#a0c1e0" transform="rotate(-107.1 79.4 -57.3) scale(15.82026 49.29675)"/><circle r="1" fill="#f5faf7" transform="matrix(-26.79475 -15.40766 13.39019 -23.28625 110.3 51.4)"/><path fill="#3a5648" d="M128.4 128.8l-6 .3-.8-16 6-.2z"/><circle r="1" fill="#994a6c" transform="matrix(9.55988 -8.1649 8.11649 9.50319 21.6 98.3)"/><path fill="#e1e6df" d="M97 140h50v13H97z"/><ellipse cx="90" cy="11" fill="#d6e6f4" rx="26" ry="24"/><ellipse cx="210" cy="84" fill="#788781" rx="2" ry="82"/><path fill="#f7fcf0" d="M127 68h18v59h-18z"/><path fill="#5e6f71" d="M-9 67l69-2-66-25z"/><circle r="1" fill="#5b918a" transform="matrix(-7.86598 -16.30376 38.46038 -18.55575 232.1 151.7)"/><path fill="#eaeae0" d="M143.2 95.4l-9.9-3.5-40.2-5.3-9.6 15.2z"/><path fill="#b7d1b6" d="M96 123h69v5H96z"/><path fill="#183436" d="M207 122h49v10h-49z"/><path fill="#537a82" d="M69 23.6l16.9 12.8L51 56.5l34.8.5z"/><ellipse cx="73" cy="127" fill="#150102" rx="22" ry="3"/><path fill="#fff" d="M56 25l-35 4 40 22zm2 31h5v19h-5z"/><path fill="#e7e8e3" d="M169 43h38v79h-38z"/><path fill="#967675" d="M75.8 113.4l27.5 12.6-5.8-62.2 4.2 27.8z"/><path d="M-16 116l57 16H3z"/><path fill="#416020" d="M102 119h12v5h-12z"/><path fill="#719b9a" d="M271 123l-38.5 5.3-32 20.5 42.6-2.9z"/><path fill="#cecfb5" d="M56 68l6 26-16-4z"/><path fill="#596f73" d="M-18.8 11.6l.5-.9 97.1 51.7-.5.9z"/><circle r="1" fill="#c6d9e3" transform="rotate(145.5 104 62.8) scale(15.72303 41.48386)"/><path fill="#ada38c" d="M196 132l11-26 20-4z"/><path fill="#a1b4a8" d="M98.2 170.6l-2.4-10.8 79.4 24.2-17.9-26.7z"/><path fill="#c6dfe5" d="M65 40h18v5H65z"/><path fill="#314e41" d="M163 122h31v7h-31z"/><path fill="#859a9c" d="M75 53h7v44h-7z"/><path fill="#0d5a76" d="M74.1 42.7l3.9 8.1-2.9-.7-15.4-3.5z"/><path fill="#1e5641" d="M271 169l-78-4 53 20z"/><path fill="#151810" d="M228 130l-11-15-9 14z"/><path fill="#d3dcd2" d="M85.2 146.3L98.4 163l63.3-9.2-47 11.4z"/><path fill="#fffff6" d="M102.1 57.9l4.1 57.5 14.2 11.1 5-49.1z"/><path fill="#3b4d33" d="M140 123l15-6 3 5z"/><path fill="#eff6ef" d="M-16 23.8L9 43.5l29.9 12.3L58 51.9z"/><path fill="#3f4447" d="M38 68l-26-7 26 17z"/><path fill="#52554e" d="M62 87l1-11 37 8z"/><path fill="#d9dcd5" d="M170 130l-49 24 6-19z"/><path fill="#eaeded" d="M219 5L113 22 84 77z"/><ellipse cx="51" cy="107" fill="#6d3847" rx="40" ry="12"/><path fill="#647a64" d="M85 154l-1 31-56-24z"/><ellipse cx="30" cy="76" fill="#bacfd6" rx="2" ry="12"/><ellipse cx="67" cy="124" fill="#351f1a" rx="29" ry="5"/><path fill="#bbcdcc" d="M20 59l-4 10-1-10z"/><path fill="#7e938c" d="M148 156l17-6h-33z"/><path fill="#2e5764" d="M60 32h23v7H60z"/><path fill="#6b8992" d="M12 44L-8 75l6-37z"/><circle r="1" fill="#1f4322" transform="matrix(-31.37084 -4.36133 .9577 -6.88865 21.3 169)"/><path fill="#8aaace" d="M241.1-16l-35.4 45.5 62.6 13.4L249.9-16z"/><circle r="1" fill="#283a35" transform="matrix(-.17546 -1.24721 38.94385 -5.47885 138.2 132)"/><path fill="#d4dbde" d="M230 68h21v54h-21z"/><circle r="1" fill="#a6bed4" transform="matrix(-7.21856 -9.9687 25.64986 -18.57364 242.8 51.8)"/><circle r="1" fill="#1a5368" transform="rotate(-16.5 138 -236.7) scale(1 7.65946)"/><path fill="#b2ccdb" d="M43.3 88L7.9 78.9l9.5-15.3.4 10.5z"/><path fill="#769589" d="M126.8 180.1l23.2-8.6-14.7-9.8 21.9-3.5z"/><path fill="#c5d0db" d="M196 30l-9-27-28 65z"/><ellipse cx="95" cy="137" fill="#29342a" rx="13" ry="5"/><path fill="#9fc2af" d="M187 126h17v36h-17z"/><path fill="#f5f0e8" d="M219.3 34.6l-45 25.3 19.2 6.2 38.7-25.4z"/><path fill="#4e5756" d="M206 111h24v2h-24z"/><ellipse cx="184" cy="166" fill="#3b775c" rx="26" ry="2"/><path fill="#fefefb" d="M3.7 36.4l-19.7-11 30.9-10.1L-16-16z"/><path fill="#e8e8ea" d="M70 13l54 15-47 3z"/><path fill="#9db4d2" d="M126.5-12.8l45.8 28.7 9.7-2.4 12.6-14.9z"/><ellipse cx="112" cy="61" fill="#fbfbf7" rx="31" ry="12"/><path fill="#f3f0eb" d="M152.7 59.6l-13.3 60.5L87 89l52.5-5.6z"/><path fill="#040c02" d="M0 148h48v8H0z"/><path fill="#dcfffd" d="M119.5 124l-22.9 3v-1l22.8-2.8z"/><path fill="#b2bba9" d="M28 117h1v16h-1z"/><path fill="#8d6973" d="M41 92h2v48h-2z"/><path fill="#42574d" d="M116 136.6l-64.5 14 88.6 23.6L67 156.5z"/></g></g></svg>