<svg xmlns="http://www.w3.org/2000/svg" viewBox="0 0 1800 1234"><defs/><filter id="a"><feGaussianBlur stdDeviation="12"/></filter><rect width="100%" height="100%" fill="#5f5238"/><g filter="url(#a)"><g fill-opacity=".5" transform="translate(3.5 3.5) scale(7.03125)"><circle cx="125" cy="88" r="161" fill="#73c7ed"/><circle r="1" fill="#f0fff3" transform="rotate(-127.8 154.9 20) scale(33.45424 193.18872)"/><circle r="1" fill="#4c2e03" transform="matrix(-7.2282 -26.91115 67.65304 -18.17128 148.2 134.4)"/><circle r="1" fill="#e1ffff" transform="matrix(-36.35642 -125.52015 36.54249 -10.58439 5.3 161.5)"/><ellipse cx="34" cy="20" fill="#00569e" rx="186" ry="37"/><circle r="1" fill="#daecd2" transform="matrix(-10.70208 25.83012 -43.80382 -18.14905 129.5 85.3)"/><circle r="1" fill="#061a29" transform="rotate(132 89.6 76.9) scale(22.26055 30.39481)"/><circle r="1" fill="#dffce8" transform="rotate(12.6 -761.9 338.6) scale(129.11801 18.3029)"/><circle r="1" fill="#6bacff" transform="matrix(8.71086 -26.73918 199.46171 64.97896 243.3 7.4)"/><path fill="#5d5f3e" d="M29 110h100v40H29z"/><path fill="#385750" d="M37 34L22 98l130-78z"/><path fill="#542e15" d="M132 78l-24 54 38-40z"/><circle r="1" fill="#4d3926" transform="matrix(-16.46313 -8.57017 21.64476 -41.5792 187.9 111.6)"/><ellipse cx="67" cy="107" fill="#b4dbbf" rx="9" ry="33"/><path fill="#c2e9ce" d="M84.6 127.1l9 24.4-17.2 2.8-3.3-17.8z"/><path fill="#a8e2dd" d="M227 86h29v89h-29z"/><path fill="#a6a98d" d="M193 98l-10 38-13-35z"/><circle r="1" fill="#0f6fbc" transform="matrix(129.4128 -96.07513 16.3617 22.03915 52.2 0)"/><path fill="#6d3f1d" d="M101 93L86 80l-15 47z"/><ellipse cx="127" cy="50" fill="#60a19a" rx="40" ry="12"/><path fill="#16455b" d="M185 24l-66 3 131 44z"/><circle r="1" fill="#c4eae1" transform="matrix(-46.5473 1.5868 -.25208 -7.39466 116.9 74.8)"/><ellipse cx="174" cy="173" fill="#cee2bb" rx="64" ry="8"/><circle r="1" fill="#417ba8" transform="rotate(-62.1 152.4 -172.3) scale(15.63381 80.96027)"/><path fill="#8cdce5" d="M-7 181L27 47l-43 28z"/><path fill="#2f3e30" d="M21.8 102.7L51.9 142l19.9 9.1-22-33.1z"/><path fill="#35493f" d="M52.5 110.8l-2.8-17.2 21.8-29.8-35 16.7z"/><path fill="#301e13" d="M106.5 157l15.3-34.2-20-14.4 3.4 49.9z"/><ellipse cx="58" cy="166" fill="#dcf5e4" rx="17" ry="14"/><circle r="1" fill="#c7f0e8" transform="rotate(-135.2 97.4 12) scale(10.05744 18.12017)"/><path fill="#f5dcb9" d="M217.4 67.5l5.6 10.6-4.4 2.4-5.6-10.6z"/><path fill="#9bbba5" d="M74 142l-31-36 32-37z"/><path fill="#bcebec" d="M-15 126.6L16.7 112 37 155.4 5.3 170z"/><path fill="#bef0ef" d="M99 80l19 40-2-44z"/><path fill="#b6b795" d="M147.7 135.2l-8-1.8 7.2-41.9 8.7 61.5z"/><circle r="1" fill="#f3dec9" transform="matrix(-7.59095 -6.09167 1.98421 -2.47256 188 81.8)"/><path fill="#f2e7c8" d="M12 76l14 3 9-10z"/><circle r="1" fill="#403828" transform="rotate(-83.9 155.8 -28.1) scale(22.39757 14.29245)"/><path fill="#7b9379" d="M72 146l4 22 56 3z"/><path fill="#221612" d="M203 91l-26 58 31-31z"/><path fill="#555044" d="M226 37l9 45-18 34z"/><circle r="1" fill="#85bcff" transform="matrix(-7.27961 15.0586 -79.71368 -38.5351 241.5 -.1)"/><path fill="#96c1aa" d="M202 148l38-77 3 56z"/><path fill="#ccc29c" d="M203.6 98l12.9 8.3 3.4-22.1L206 99.7z"/><path fill="#3e7e84" d="M155.7 60l16.4-19 24.2 21-16.4 19z"/><path fill="#b6d9b9" d="M120.5 141.7l-10.7-6.4L118 152l4-5.5z"/><path fill="#b4d1c5" d="M92.9 113.7L131 89.1l.3-32.1L86 107.9z"/><path fill="#7d775e" d="M39.6 77l45.1-.8-71.9 1.6 36.3 50.6z"/><path fill="#4c2313" d="M190 95l-13-17 2 30z"/><path fill="#092037" d="M205.9 32.5l-4.3 18.4L241 64.1 195 70z"/><path fill="#d7eaba" d="M163 157h42v9h-42z"/><path fill="#2d372a" d="M145 160l-59-30 18 32z"/><circle r="1" fill="#3e7bc2" transform="matrix(-.3464 7.46216 -102.38228 -4.7527 77.7 1.8)"/><path fill="#a7b49c" d="M197 80l-15 33 11-2z"/><path fill="#706346" d="M120.5 134.2L72.2 87.5l41.8 19.4-53 16z"/><path fill="#282b18" d="M135.8 137.9l1.9 24 26.2-21.5-3.4 20.3z"/><path fill="#9cc6b8" d="M83.4 91.8l-.2-47L71 118.9l-10.1-10.7z"/><path fill="#d2d9c3" d="M29 86l5 12 7-9z"/><path fill="#5f9791" d="M40.5 141.9l-15.4-37.5 6.6 52.8 27.8-3.5z"/><path fill="#473d32" d="M133.7 147.6l-21.8-13.8 2.4-4.8 6.7-36.2z"/><path fill="#74afb8" d="M271 110.4l-26.3-8-20.4-40.2L271 97.8z"/><ellipse cx="46" cy="74" fill="#374747" rx="10" ry="20"/><path fill="#505d4c" d="M191.7 67.9l18.8 36.2 11.5-1-17.1 42.3z"/><path fill="#d9c7a2" d="M159.4 89.5l-9.1 24.4L126 117l2-10.9z"/><path fill="#8caa7f" d="M221 122l-52 37 37-13z"/><path fill="#a2d9dc" d="M142.3 71.8l31.5 40.7-15.9-47.7-67.1-5.1z"/><circle r="1" fill="#0a659b" transform="rotate(80.3 -5.3 28.7) scale(9.66831 59.44725)"/><path fill="#372420" d="M186.9 124.9l12.9-36.1-2.2.1 15 20.5z"/><path fill="#302d2b" d="M33.1 64l-12.4 1.2 1.3 3.1.6 5.9z"/><path fill="#290e01" d="M106.1 109.7l6.2 40.7-10.8-33.8-.8-8.3z"/><path fill="#3d3a2b" d="M33.5 97l2.5-1.5L56.5 131l-2.5 1.5z"/><circle r="1" fill="#377690" transform="matrix(-2.41606 -7.11118 75.39456 -25.61568 45.5 39.8)"/><path fill="#9fb890" d="M137.3 134.4l-3.3 19.3-3.8 4.3.3-5.1z"/><path fill="#a98f6b" d="M129.2 79.2l2.4-5.9 18.3 9-9.2 8.8z"/><path fill="#61aec1" d="M-14.1 84.8L-16 97l51.2-41.7-27.5-5.6z"/><path fill="#445a50" d="M80.7 166.6l-4.4-2.4 9-16.8 4.4 2.4z"/><path fill="#746a60" d="M176 94l12 10-53 24z"/><path fill="#361602" d="M130 93h12v5h-12z"/><path fill="#33443b" d="M50 121l22 19H38z"/><path fill="#4480ab" d="M180.9 11.8L271 48l-1.1 70.1-37-66.7z"/><path fill="#60999a" d="M151 58l-78 4 82-27z"/><path fill="#a0dbdc" d="M98 60h32v32H98z"/><circle r="1" fill="#1d5b75" transform="rotate(9.1 -118.2 813.4) scale(29.79078 9.91202)"/><path fill="#2f2726" d="M219 78.4l-21-8.2 11.7 20.2 25.5-17.5z"/><path fill="#353122" d="M153.5 156l15.9-33.5-36.7-3.8 62.4 24.6z"/><path fill="#98a38e" d="M207.1 125.3l5.8-21.7 9.5-32.3-8.8 45z"/><path fill="#554835" d="M74 100l4 20 17-28z"/><path fill="#cfc2a2" d="M105.8 93.5l12 19.2-11.4-8.4-20.8 10z"/><path fill="#8ea782" d="M101 143l2 8 7-1z"/><path fill="#85afab" d="M235.8 98.9L220 80.8l24.6 60.8-2.5-20.4z"/><path fill="#87b1a8" d="M56.7 71.7l-.2-13.4 18.7 43.1 10.5-12.7z"/><path fill="#abcab9" d="M79.5 99.2l-32.2 12 26.1 10.3 3.9-34.2z"/><path fill="#accdba" d="M87 143l-6-27-3 35z"/><path fill="#b1ceac" d="M115 140h7v10h-7z"/><path fill="#93c8c4" d="M165 76l-9 42 21-40z"/><path fill="#5e7766" d="M55.1 105.7l50 45.4-19.3-17.5-27.3-13.7z"/><path fill="#27535d" d="M62 73l-2-18 41-26z"/><ellipse cx="135" cy="166" fill="#7f916b" rx="25" ry="3"/><path fill="#63775d" d="M146.5 159.5l5 8 15-49.5-22.7 27.4z"/><circle cx="211" cy="70" r="4" fill="#bbaa94"/></g></g></svg>