<svg xmlns="http://www.w3.org/2000/svg" viewBox="0 0 1800 1189"><defs/><filter id="a"><feGaussianBlur stdDeviation="12"/></filter><rect width="100%" height="100%" fill="#415876"/><g filter="url(#a)"><g fill-opacity=".5" transform="translate(3.5 3.5) scale(7.03125)"><circle cx="144" r="140" fill="#b4bdbc"/><circle r="1" fill="#b09769" transform="matrix(37.9158 77.05508 -47.35575 23.30192 178.2 168)"/><circle r="1" fill="#98bbed" transform="matrix(-220.35681 -11.36769 1.43408 -27.79899 107.9 6)"/><circle r="1" fill="#005662" transform="rotate(-173.2 12.7 67.5) scale(83.28458 47.65258)"/><ellipse cx="82" cy="62" fill="#5d6c78" rx="169" ry="32"/><circle r="1" fill="#005e82" transform="rotate(-107.4 164.4 -35.2) scale(20.04312 39.97526)"/><path fill="#bf9f86" d="M31 170l29-48 22-1z"/><circle r="1" fill="#534815" transform="rotate(-92.4 199.2 -46) scale(18.44534 52.25648)"/><ellipse cx="20" cy="119" fill="#006787" rx="41" ry="35"/><path fill="#345d97" d="M136 40L24 58l-40-35z"/><path fill="#002235" d="M33.3 198.3l-14.5-18 70-56.6 14.4 18z"/><circle r="1" fill="#002845" transform="matrix(20.09854 -4.0891 8.83236 43.41246 14.4 168.2)"/><circle r="1" fill="#a49998" transform="matrix(22.68246 11.00157 -4.3255 8.91807 12.5 70)"/><path fill="#9e9e99" d="M124 59l103 80-81 8z"/><circle r="1" fill="#8c8c7a" transform="matrix(-24.07417 -32.91454 25.58603 -18.714 107.9 98)"/><ellipse cx="184" cy="150" fill="#363819" rx="34" ry="5"/><path fill="#b6a393" d="M194.7 115.8l-18.1-28.1 77.3-16.6-12 21.6z"/><path fill="#444735" d="M211 76l-36 9-36-11z"/><path fill="#baaca1" d="M86 152h28v6H86z"/><path fill="#6a6768" d="M216.1 89.8l-60.9 38.3 23.9-55.8-12.1 61.8z"/><ellipse cx="210" cy="35" fill="#6288ba" rx="172" ry="8"/><ellipse cx="198" cy="64" fill="#8b817d" rx="84" ry="13"/><circle r="1" fill="#004d75" transform="rotate(-163.7 131.6 43) scale(27.13609 15.11148)"/><ellipse cx="218" cy="44" fill="#345180" rx="45" ry="4"/><circle r="1" fill="#1b8096" transform="matrix(4.18021 -9.31636 52.65512 23.62613 27.4 97)"/><path fill="#46676e" d="M115.1 163.7l-30.9-40.4 27 10.5 38.8-3.9z"/><path fill="#ac9a91" d="M75.9 130.7l58.4-15.3-24.3-8.7-56.8 24.4z"/><path fill="#747771" d="M133.8 94.7L21.4 81.9l51.9 28.2 76.4 7.6z"/><path fill="#b4a496" d="M191 132l-58-1-9 29z"/><path fill="#d6af8d" d="M217.1 166.7l4.6-7.7 17.2 10.3-4.6 7.7z"/><path fill="#e7c7a1" d="M199.2 156.4l-37.6 10.1-.8-2.9 37.6-10.1z"/><ellipse cx="118" cy="86" fill="#7eb4a9" rx="44" ry="6"/><ellipse cx="71" cy="52" fill="#506276" rx="69" ry="8"/><path fill="#d0c4b9" d="M95 170l5-7-19 1z"/><path fill="#cdc0b2" d="M132.7 89.3l42.4 28.2-18.7-34.4-2.5 34.1z"/><path fill="#be9a8a" d="M31.8 164.6l-2-2.3 26.4-23 2 2.4z"/><ellipse cx="126" cy="1" fill="#adbfd6" rx="65" ry="8"/><path fill="#42421d" d="M144 154l-11 24 33-31z"/><path fill="#39360e" d="M161.8 184H180l10.3-22.4-26.1 6.8z"/><path fill="#01354b" d="M93.4 126l21.9 11.6-50 1 1.1-4.1z"/><path fill="#00243a" d="M0 163h81v6H0z"/><circle r="1" fill="#005d74" transform="rotate(104.1 -35 75.8) scale(24.86959 29.06495)"/><ellipse cx="89" cy="161" fill="#0d3e44" rx="30" ry="4"/><path fill="#bab2aa" d="M168 147l-3-16 44-14z"/><path fill="#bebcb7" d="M120 124l-23-9 14-10z"/><path fill="#daced1" d="M108 147h17v2h-17z"/><path fill="#445756" d="M104 75h77v5h-77z"/><path fill="#69614a" d="M198.8 140.9l9-15.7-27.9 21.6 38.5 22.3z"/><circle r="1" fill="#91a4c0" transform="matrix(30.8633 -8.65157 2.8131 10.03537 10.5 17)"/><path fill="#aca8a1" d="M220.6 106.8l-43.5-11 14.5 33.2 42.1-60.1z"/><path fill="#6e717e" d="M271 63l-6-29-94 36z"/><path fill="#3a4a5a" d="M145 112l5 14-5 10z"/><path fill="#2f5181" d="M59.4 39.2L-16 49.8l37-23.5-1 4.7z"/><path fill="#554d53" d="M115 117.8L111 89l6-.9 4 28.7z"/><path fill="#b1a996" d="M25 82.2l-41-12.5L39.9 80l-7.5 7.4z"/><path fill="#107693" d="M226 132l45-56-68 44z"/><path fill="#434e51" d="M177 111h8v13h-8z"/><path fill="#6b707a" d="M18.1 72.6l11.3-31 54.5 19.8-11.3 31z"/><path fill="#4a5c5b" d="M148 86h6v15h-6z"/><path fill="#7d7c76" d="M146 156l-40 28 41-52z"/><path fill="#99989b" d="M96.4 155.7l-11.1-5.3 14.3 1 23.7 6.6z"/><path fill="#1e7b82" d="M42.4 138.7l1.3-41.1-13.2-6 57.6 15.7z"/><path fill="#ccb28c" d="M152 166l20 18-13-27z"/><path fill="#a29378" d="M202.6 184h-45.4l56.9-25.7-10.9-10.3z"/><path fill="#605539" d="M182.8 144.3L154 157.1l6.8.5-12.9 22z"/><path fill="#052e57" d="M251.8 107.8l17.4 7.7-11 24.7-17.4-7.7z"/><path fill="#908f95" d="M166.9 51.7l-1.2 22.2-18.6-1.4 109.5-27.8z"/><circle r="1" fill="#49462c" transform="matrix(10.18924 -6.00192 9.68784 16.4467 237 150.7)"/><path fill="#d8e1e2" d="M147.5 96.5l-5.1 8.9-.3-11.8 1.1-6.5z"/><circle r="1" fill="#c1b3a2" transform="rotate(162.2 116 62.8) scale(27.71024 2.23091)"/><path fill="#92acc9" d="M63 24L50-16l135 54z"/><path fill="#acaaa4" d="M100.9 87.9l9.1 16.2 31.2 25.9-41.6-31.5z"/><path fill="#5a646e" d="M215 92l-9 8-18-8z"/><path fill="#7791b6" d="M271 3.8l-38.5 12.6-73.8 30.8L271 31.6z"/><path fill="#aea9a3" d="M113.7 133.6l20.4-12.9 1-24.9 5.3 28.4z"/><path fill="#e3d4bf" d="M173 159h29v2h-29z"/><path fill="#b8baac" d="M109 163l35 21h-36z"/><ellipse cx="115" cy="151" fill="#003043" rx="13" ry="2"/><path fill="#343a1b" d="M186 162h19v3h-19z"/><path fill="#0f2727" d="M119 120h7v3h-7z"/><path fill="#7f8990" d="M127.1 145.9l-.4 4-35.8-3.8.4-4z"/><path fill="#484f53" d="M180 81.7l1 .4-17 36.2-1-.4z"/><path fill="#134861" d="M114 137h13v7h-13z"/><path fill="#002f43" d="M61 151l-31 14 63-8z"/><path fill="#978378" d="M222.4 150.3l-5.3-22.8 12 12.9-57.2-10.7z"/><path fill="#cdaa8c" d="M78 124.7l-21.6 4.6-.4-2 21.6-4.6z"/><path fill="#313b46" d="M159.8 116.5l3.1 9.5-4.7 1.5-3.1-9.5z"/><path fill="#bd9e8d" d="M44 158l-14 4 18-17z"/><path fill="#00384d" d="M62.9 131.2L37.4 150l-53.4-.4L6.7 184z"/><path fill="#272f34" d="M211.6 78.8l-9.8 5-1.4-2.6 9.8-5z"/><path fill="#614a4b" d="M120 100l-21 2 3 8z"/><path fill="#86867d" d="M190.6 74.9l-16.8 16 21.9-4.2 1-28.8z"/><path fill="#cfc1b7" d="M118.7 112l-1-.3 7.6-21.7 1 .3z"/><path fill="#c1bab2" d="M171 121l-23 29-2-15z"/><path fill="#5b4341" d="M169 119h5v11h-5z"/><path fill="#9b9e9c" d="M121.1 153.9l-2.5.1-11.8.2 2.9 6.1z"/><path fill="#5585bf" d="M33 29h35v5H33z"/><path fill="#1d2810" d="M212 161h8v5h-8z"/><path fill="#4e4f3a" d="M256.2 147l-97.4 10.1 5.2-20.9 6.3 14.2z"/><path fill="#aba399" d="M76 75h49v2H76z"/></g></g></svg>