<svg xmlns="http://www.w3.org/2000/svg" viewBox="0 0 1800 1200"><defs/><filter id="prefix__a"><feGaussianBlur stdDeviation="12"/></filter><rect width="100%" height="100%" fill="#534d2d"/><g filter="url(#prefix__a)"><g transform="translate(3.5 3.5) scale(7.03125)"><circle r="1" fill="#34828b" fill-opacity=".5" transform="matrix(0 52.83823 -255 0 139.4 126.2)"/><circle r="1" fill="#fed0cd" fill-opacity=".5" transform="matrix(36.55981 6.68448 -1.90805 10.4358 169.5 125)"/><ellipse cx="109" cy="42" fill="#2a281b" fill-opacity=".5" rx="255" ry="32"/><circle r="1" fill="#164c49" fill-opacity=".5" transform="matrix(-20.73536 62.80203 -98.01996 -32.36327 63.8 153.6)"/><circle r="1" fill="#6b8479" fill-opacity=".5" transform="rotate(60.6 14 283.8) scale(61.4706 45.94594)"/><circle r="1" fill="#5a5444" fill-opacity=".5" transform="matrix(65.23635 -8.58565 3.58041 27.20508 215.2 22)"/><path fill="#c8925c" fill-opacity=".5" d="M127.9 77.5l16.7-4.2 106.5 3.1-54.6 5z"/><ellipse cx="62" cy="6" fill="#262518" fill-opacity=".5" rx="46" ry="27"/><path fill="#aea4a8" fill-opacity=".5" d="M166.6 93.4l15.5 21.1-64.8 8.1 73.4 24.3z"/><ellipse cx="108" cy="66" fill="#262216" fill-opacity=".5" rx="255" ry="8"/><ellipse cx="170" cy="92" fill="#93949b" fill-opacity=".5" rx="2" ry="69"/><circle r="1" fill="#31474c" fill-opacity=".5" transform="matrix(5.44973 -9.77322 27.57874 15.37843 156.3 141.5)"/><path fill="#fff" fill-opacity=".5" d="M170.9 130.3l-16-.6.2-6 16 .6z"/><path fill="#edb990" fill-opacity=".5" d="M221 76h35v4h-35z"/><path fill="#8f9293" fill-opacity=".5" d="M127.3 127.1l42.1 13.2-23-37.7-17.9 17.3z"/><ellipse cx="97" cy="78" fill="#73743a" fill-opacity=".5" rx="64" ry="5"/><circle r="1" fill="#55501f" fill-opacity=".5" transform="rotate(-49.4 55.4 -1.8) scale(16.0636 42.4637)"/><path fill="#4b6e5c" fill-opacity=".5" d="M186 79h48v46h-48z"/><ellipse cx="77" cy="92" fill="#32654c" fill-opacity=".5" rx="93" ry="14"/><path fill="#150e13" fill-opacity=".5" d="M0 60l52 15h-68z"/><path fill="#15140b" fill-opacity=".5" d="M89 51h21v24H89z"/><path fill="#25251a" fill-opacity=".5" d="M122 51L103 0l85 68z"/><path fill="#736a23" fill-opacity=".5" d="M121.4 50.3L109 33.4l-3.8 16.5 14.5 9.3z"/><path fill="#fffff4" fill-opacity=".5" d="M156 124h23v4h-23z"/><path fill="#b08558" fill-opacity=".5" d="M55 74.5l112 2v1l-112-2z"/><path fill="#1b4038" fill-opacity=".5" d="M144 147.1l-16-20.9 56.3 21.3 10.7 3.3z"/><circle r="1" fill="#6d5a45" fill-opacity=".5" transform="matrix(-1.24829 -8.35248 6.15916 -.9205 241.6 62)"/><path fill="#62592a" fill-opacity=".5" d="M81.4 31.6l10-5.1-22.8-14.4-6.3-.4z"/><circle r="1" fill="#3f6458" fill-opacity=".5" transform="matrix(29.74367 -.2416 .15309 18.84674 12.1 95)"/><path fill="#436e66" fill-opacity=".5" d="M191 135h31v35h-31z"/><path fill="#6b6937" fill-opacity=".5" d="M215.8 23.6l-24.7 29.6-10.9-17.6 19.4-2z"/><path fill="#747b72" fill-opacity=".5" d="M135.7 106.1l32.4 2.4L198 117l6.8 11z"/><circle r="1" fill="#43402a" fill-opacity=".5" transform="matrix(15.54566 .31362 -.50363 24.964 149.7 17.4)"/><ellipse cx="223" cy="76" fill="#b2906b" fill-opacity=".5" rx="70" ry="2"/><path fill="#857923" fill-opacity=".5" d="M14.4 48.6L2.7 30.5 7 32.3l9 3.2z"/><ellipse cx="43" cy="60" fill="#5b5a21" fill-opacity=".5" rx="33" ry="4"/><ellipse cx="219" cy="83" fill="#61724a" fill-opacity=".5" rx="46" ry="4"/><path fill="#c4b7ae" fill-opacity=".5" d="M206.9 125.3l-.8 9-17-1.6.8-9z"/><ellipse cx="67" cy="169" fill="#1c5451" fill-opacity=".5" rx="49" ry="27"/><path fill="#592126" fill-opacity=".5" d="M187 119h3v10h-3z"/><path fill="#2e2533" fill-opacity=".5" d="M243 9h13v19h-13z"/><path fill="#9d7b45" fill-opacity=".5" d="M-9.4 17.7l19 .6-.2 6-19-.6z"/><path fill="#618480" fill-opacity=".5" d="M243.8 129.9l28 10.7-13.6 35.5-28-10.7z"/><path fill="#cfbeb3" fill-opacity=".5" d="M169.3 89.6l1-.1 2.4 45h-1z"/><path fill="#28201f" fill-opacity=".5" d="M195 74l-20-22 79 22z"/><path fill="#e6dccd" fill-opacity=".5" d="M167.7 133.9l-14.4-10 35 13.9 7.7-4.8z"/><path fill="#bfcdbc" fill-opacity=".5" d="M140 110h9v4h-9z"/><circle r="1" fill="#2d6256" fill-opacity=".5" transform="rotate(45.5 -81.5 191.5) scale(15.6427 31.84577)"/><path fill="#625b21" fill-opacity=".5" d="M47.9 23.2l5.4-.1 11.4 29.3-9.1-6.3z"/><path fill="#5e5650" fill-opacity=".5" d="M234.8 22.5l36.2-38L144.5 2.9l81.1-.6z"/><path fill="#03030c" fill-opacity=".5" d="M16 29h5v11h-5z"/><path fill="#3d4859" fill-opacity=".5" d="M179.8 137.4l-.3 1-23.3-5.8.3-1z"/><path fill="#4b6e68" fill-opacity=".5" d="M261.3 125.6l-86.2-8.1 76-20.2-62.1 42.3z"/><circle r="1" fill="#93b1a6" fill-opacity=".5" transform="matrix(.22155 -.97515 7.61666 1.73046 153.3 108.6)"/><path fill="#645c5b" fill-opacity=".5" d="M152 120h19v2h-19z"/><path fill="#261e21" fill-opacity=".5" d="M246 44h10v31h-10z"/><ellipse cx="248" cy="79" fill="#e3d9d2" fill-opacity=".5" rx="19" ry="1"/><circle r="1" fill="#47423a" fill-opacity=".5" transform="matrix(.16613 -6.34419 76.80922 2.01132 180 8.8)"/><path fill="#2c2b17" fill-opacity=".5" d="M76.8 51.4l-39.6-9.8 6.3 19.3 38.4-34z"/><path fill="#474225" fill-opacity=".5" d="M94.8 35l53.8 6.8L104.1 16 101 61.3z"/><circle cx="180" cy="124" r="6" fill="#d6bda6" fill-opacity=".5"/><path fill="#1f1816" fill-opacity=".5" d="M0 70h69v5H0z"/><path fill="#e7dbd5" fill-opacity=".5" d="M172.7 131.5l.4-.9 16.2 7.9-.4.9z"/><path fill="#b68856" fill-opacity=".5" d="M117 74h24v3h-24z"/><path fill="#5e5834" fill-opacity=".5" d="M177.6 4.4l69.6 47-2.8 4.2-69.6-47z"/><path fill="#375252" fill-opacity=".5" d="M104 132l60 53 9-36z"/><path fill="#496656" fill-opacity=".5" d="M165 78h5v38h-5z"/><path fill="#201a11" fill-opacity=".5" d="M16 52L1 38l8 22z"/><path fill="#295e50" fill-opacity=".5" d="M144 108L42 149l27-71z"/><path fill="#778195" fill-opacity=".5" d="M163.9 133.8l23.8 7.7-1.6 4.7-23.8-7.7z"/><path fill="#eedccb" fill-opacity=".5" d="M140 120h12v4h-12z"/><path fill="#16170f" fill-opacity=".5" d="M144 71.9l-4.9-29.5-23.8 2.9 33.4 14.3z"/><path fill="#29261e" fill-opacity=".5" d="M77.1 6.5L91 24.1 82.5-16 13.3 6z"/><path fill="#7a6d51" fill-opacity=".5" d="M271-.8l-43.6 8.3 12.7-18.7 4.6 2.3z"/><path fill="#476f55" fill-opacity=".5" d="M128.1 80l33.4-2.2 12 31.6 7.4-2.4z"/><path fill="#a28e7c" fill-opacity=".5" d="M171 128l22 7-6-12z"/><circle r="1" fill="#e3d9ce" fill-opacity=".5" transform="rotate(-5.8 1246.3 -1531) scale(5.65287 1.05191)"/><path fill="#365c4a" fill-opacity=".5" d="M206.9 138.6l-19.3 14.1 3.9-17.2 20.3.3z"/><path fill="#413c2a" fill-opacity=".5" d="M244 31l-21-15-51 58z"/><path fill="#212115" fill-opacity=".5" d="M40 0l-8 34 14 4z"/><path fill="#5b542a" fill-opacity=".5" d="M59 54.6L30.4 34.2l9.3 46.4-2.8-51.1z"/><path fill="#7b796f" fill-opacity=".5" d="M137.4 111.6l-18.1-8 43.3 17.8-24.7-1.9z"/><path fill="#43401d" fill-opacity=".5" d="M19.8 44.6l3-14.9 10 36.7L7 68.2z"/><path fill="#514d2c" fill-opacity=".5" d="M23-2l18 28-15-8z"/><circle r="1" fill="#222019" fill-opacity=".5" transform="matrix(2.71664 -2.3334 4.78693 5.57313 156 25.5)"/><path fill="#58724b" fill-opacity=".5" d="M0 77h39v6H0z"/><ellipse cx="170" cy="57" fill="#75849b" fill-opacity=".5" rx="1" ry="34"/><path fill="#6b663f" fill-opacity=".5" d="M179.8 29.3l24.1 13.4-36.5 7.4 21.7-9.2z"/><path fill="#4c736c" fill-opacity=".5" d="M227.4 113.6L242 185l-48.1-17.4 25.1-64.1z"/><path fill="none" stroke="#63746f" stroke-opacity=".5" stroke-width=".5" d="M168.7 21.2q4 32.2 30 114.7"/><path fill="#5f806d" fill-opacity=".5" d="M270.7 100.3L156.5 80.9l91.3 5 23.2-2.2z"/><path fill="#0c0c0e" fill-opacity=".5" d="M101.2 28.2L108 34l-3.3 3.8L98 32z"/><circle r="1" fill="#6f8a88" fill-opacity=".5" transform="matrix(-.18524 2.3882 -20.39176 -1.5817 249.4 121)"/><path fill="#251e1d" fill-opacity=".5" d="M3 69h31v8H3z"/><path fill="#e3d8cf" fill-opacity=".5" d="M191 125l-10-4-10 2z"/><path fill="#222119" fill-opacity=".5" d="M153 51h17v22h-17z"/><path fill="#171510" fill-opacity=".5" d="M56.6 30.6l14.7-9 9.2 15-1-4.9z"/><path fill="#1f1f11" fill-opacity=".5" d="M84.9 56.4l20.8 15.5-1.6-12.7-11.8-17.3z"/><ellipse cx="92" cy="42" fill="#736d25" fill-opacity=".5" rx="11" ry="2"/><path fill="#42695c" fill-opacity=".5" d="M206.5 109.6l-17.3-10.5 27.3-11.6 27.9 23.9z"/></g></g></svg>