<svg xmlns="http://www.w3.org/2000/svg" viewBox="0 0 1200 1800"><defs/><filter id="a"><feGaussianBlur stdDeviation="12"/></filter><rect width="100%" height="100%" fill="#3c4650"/><g filter="url(#a)"><g fill-opacity=".5" transform="translate(3.5 3.5) scale(7.03125)"><circle r="1" fill="#faf9fb" transform="rotate(-156.2 49.7 22.5) scale(101.92396 142.38546)"/><path fill="#7a7460" d="M192 250.3l-140.7 35L16 143.8l140.7-35z"/><circle cx="77" cy="58" r="78" fill="#b9c2d3"/><circle r="1" fill="#00000a" transform="matrix(-10.79795 -.155 .4513 -31.43904 143.4 123.4)"/><path fill="#9f9a8d" d="M177 271l-62-16-24-96z"/><ellipse cy="152" fill="#797160" rx="70" ry="45"/><path fill="#bec5d2" d="M185 182l-37-82L167-6z"/><path fill="#050c00" d="M57 202l-33 26-40-19z"/><circle r="1" fill="#2f3211" transform="matrix(4.31353 -.97096 5.63744 25.04468 56.6 145)"/><circle r="1" fill="#bcc5d3" transform="matrix(14.74918 -2.2306 2.96621 19.61316 33 121.4)"/><ellipse cx="97" cy="255" fill="#000a09" rx="7" ry="40"/><circle r="1" fill="#babbbc" transform="matrix(-33.85846 4.39745 -2.53806 -19.54197 94.9 131.5)"/><circle r="1" fill="#7c7360" transform="matrix(14.61715 -18.98526 31.39913 24.17485 113.9 169.2)"/><path fill="#dbd5c2" d="M-3.9 160l29.7 10.5L50 210.9l-25.9-27.3z"/><path fill="#252725" d="M132 161l37-9-39-28z"/><path fill="#352e22" d="M5.6 103.9l10 17.3-31.6 15.6 9.3-47z"/><path fill="#7d8484" d="M61 219l118-30-125-13z"/><circle r="1" fill="#8a9ab5" transform="rotate(-174.1 24.4 3.6) scale(53.81351 30.36447)"/><circle r="1" fill="#483e2d" transform="matrix(-.25438 1.95114 -103.356 -13.47509 11.5 158.7)"/><circle r="1" fill="#b3bbc7" transform="matrix(-25.4386 -23.24224 73.20224 -80.11976 140.6 35)"/><path fill="#b6aea6" d="M172.9 116.5l-26.5 51 38.6-61.3-71.3-4.2z"/><circle r="1" fill="#201e15" transform="rotate(-117.4 146 84.5) scale(29.86161 2.78563)"/><path fill="#4b3419" d="M67 119l-22 6 9 13z"/><path fill="#373423" d="M21.2 145.1l-7.3-1.4 3.4-15.5 11.8 18.6z"/><path fill="#1d1f01" d="M102 150h18v6h-18z"/><path fill="#2a2a2b" d="M150.8 182.8l-48.6-1.4 39.9 5.7-.7-106.6z"/><path fill="#c8c6b0" d="M60.8 127.8l2.3 13.8 28.1 7-14.4 18z"/><ellipse cx="28" cy="148" fill="#fae9d5" rx="23" ry="2"/><path fill="#a39f92" d="M148 161h22v10h-22z"/><circle r="1" fill="#bbbfc3" transform="matrix(70.23238 13.27055 -3.78785 20.0466 68.9 92)"/><path fill="#b4bac1" d="M62 115l21-47-99 77z"/><path fill="#67573d" d="M152 137h18v29h-18z"/><path fill="#aeaea8" d="M133.7 253l-7.1 3.6-22.3-43.6 7.1-3.6z"/><circle r="1" fill="#867c6d" transform="matrix(-3.34702 15.71256 -26.24168 -5.58989 156.4 229.4)"/><ellipse cx="32" cy="159" fill="#3a3c33" rx="25" ry="4"/><path fill="#445456" d="M11 220l29 51 64-30z"/><path fill="#9b9488" d="M115.8 149.2l20 6.5-2.4-25.3-8.9 41z"/><circle r="1" fill="#7a8c96" transform="matrix(12.52318 21.95548 -14.455 8.24498 70.7 190.2)"/><path fill="#5a5d5a" d="M103.8 187.4l33.5-16-42.9 6.8-6.1 79.2z"/><path fill="#231200" d="M138 93h12v8h-12z"/><circle r="1" fill="#faf5dd" transform="matrix(-5.18638 -.77083 .3318 -2.2325 90.2 164.7)"/><circle r="1" fill="#322e23" transform="matrix(14.4305 26.10841 -.87521 .48374 115.1 209.8)"/><path fill="#adb6c0" d="M100.3 138.8l7-33.2 26.4 5.6-7 33.2z"/><path fill="#242d1f" d="M20 195l36 12-72 36z"/><path fill="#aeafaa" d="M133 218l-19-17 24 41z"/><ellipse cx="154" cy="190" fill="#93826c" rx="57" ry="7"/><path fill="#21334e" d="M134 110h21v21h-21z"/><path fill="#3c3d20" d="M63.9 144.7L76 173.9 51.5 129l3.3 22.4z"/><path fill="#d4cfc1" d="M37 196L8 167l29 14z"/><path fill="#3a3d36" d="M14.6 105.6l7.8 110.7-1 .1-7.8-110.7z"/><path fill="#b57b66" d="M-6.5 152.8l-9.5-26.1 42 31.9 14.6 3.8z"/><circle r="1" fill="#5d6c73" transform="matrix(33.99191 -2.20894 .49986 7.69204 63.4 224.6)"/><path fill="#564b39" d="M137.1 144.8l-1.7-5.5-12.8 4.6-42 16.1z"/><ellipse cx="64" cy="9" fill="#9aa5b9" rx="115" ry="23"/><path fill="#566478" d="M143 127l8-15 5 39z"/><path d="M0 209h44v4H0z"/><path fill="#abb3be" d="M156 59h14v77h-14z"/><path fill="#664b31" d="M65.8 119.2l2.6-2.1-2.8-4-13.5 27.5z"/><path fill="#312f2a" d="M105 181h65v3h-65z"/><ellipse cx="65" cy="255" fill="#232f30" rx="47" ry="4"/><path fill="#aab0b9" d="M-16 73l67.3 67.1-18.3-1.4 25.7-27.3z"/><path fill="#49504d" d="M85.2 214.3l8.4-20.5 9.9 39-8.4-61.4z"/><path fill="#ded9cc" d="M10 145h7v9h-7z"/><path fill="#ffbe8b" d="M151 154v8l4-6z"/><path fill="#b9bfbe" d="M120 149h5v19h-5z"/><path fill="#b5bbc4" d="M141.1 106.9L-16 11.4l72.1 118 18.5-31.2z"/><path fill="#0d2030" d="M137.7 151.1l-2.8-15.1 2.1-27.8 15.3 46.6z"/><path fill="#56534d" d="M174 197l-44 15-15-14z"/><ellipse cx="148" cy="218" fill="#a49d8f" rx="25" ry="2"/><path fill="#514c41" d="M140 222h30v8h-30z"/><path fill="#6c5b46" d="M82 142h22v5H82z"/><path fill="#6b6e63" d="M2 166l-18 31 51-1z"/><path fill="#cbc8b9" d="M42 193h14v5H42z"/><path fill="#b5b8bd" d="M154.8 101.5l3 10.5-8.6 2.5-3-10.5z"/><circle cy="121" r="6" fill="#1a211c"/><path fill="#584a32" d="M57 161l-7-2-11 21z"/><path fill="#0e1b15" d="M106 263.8l-18.9-12.2 19-9.8-1.4-.9z"/><path fill="#384139" d="M-14 230l63.3-20.7 16.9-13.6-75.7 69.6z"/><path fill="#2a1e0d" d="M23.9 139.3l-17.5 4.4-.3-1 17.5-4.4z"/><path fill="#bda681" d="M45 170l-19-7h23z"/><path fill="#8797a0" d="M44 173h50v8H44z"/><path fill="#261708" d="M49 123.3l2.3 1.9-4.3 5.5-2.3-1.9z"/><path fill="#2a3342" d="M132 112h24v13h-24z"/><path fill="#8e8f87" d="M139 154l-4 15 10 4z"/><circle r="1" fill="#b9ad90" transform="matrix(-.92527 -.37932 9.92578 -24.21192 2.9 136.3)"/><path fill="#5a6261" d="M61.5 242.7l-33.4-14.8-4.9 28.7L57 235.3z"/><path fill="#677b86" d="M46 193l11-8-37-19z"/><path fill="#c5c9bc" d="M19 147.4l3 .3-1 11-3-.4z"/><path fill="#1a150d" d="M143 183l10-6-5-8z"/><ellipse cx="18" cy="205" fill="#595139" rx="23" ry="3"/><path fill="#acb1bb" d="M48 144l-28.5-19L9.1 81.8l28.5-7.6z"/><path fill="#989487" d="M118 170.8l-18 2.2-2-15.8 18-2.2z"/><path fill="#8998b0" d="M56.2 22.2l-6.6 13.5-81.8-39.9 6.6-13.5z"/><path fill="#373a2c" d="M30 151h24v2H30z"/><path fill="#c2bdaa" d="M53 157.8l-7 1.3-1-4.9 7-1.3z"/><path fill="#4d5a60" d="M96 243l-29 28 22-68z"/><path fill="#494e4a" d="M125 155h8v11h-8z"/><path fill="#002c2a" d="M-8.5 201.2v-1l39-1.4v1z"/><path fill="#fdf8e7" d="M26.7 182.3L44.1 203l-.8.7L25.9 183z"/><path fill="#544e47" d="M81.7 171.2L80 159.9l3.2-4.1 2.8 19.4z"/></g></g></svg>