<svg xmlns="http://www.w3.org/2000/svg" viewBox="0 0 1800 1800"><defs/><filter id="a"><feGaussianBlur stdDeviation="12"/></filter><rect width="100%" height="100%" fill="#5b4d3f"/><g filter="url(#a)"><g fill-opacity=".5" transform="translate(3.5 3.5) scale(7.03125)"><circle r="1" fill="#e1ceaf" transform="matrix(153.6998 65.91754 -40.24948 93.84964 84 86.5)"/><circle r="1" fill="#f3f9eb" transform="matrix(40.35866 -13.8277 29.93447 87.36918 100.8 22.1)"/><ellipse cx="36" cy="53" rx="34" ry="26"/><path fill="#f1d9b4" d="M8.8 273.2l-31.3-6.7L-.8 164.8l31.3 6.7z"/><circle r="1" fill="#fdfeec" transform="matrix(.87221 25.93648 -126.5306 4.25508 39 2.1)"/><circle cx="190" cy="233" r="80" fill="#362916"/><ellipse cx="112" cy="211" fill="#a4a794" rx="49" ry="14"/><path fill="#2c1f0d" d="M58 40l-36.4 65.5L-10 88.1l36.3-65.6z"/><path fill="#c7a58c" d="M201 128l-18 69 44-1z"/><circle r="1" fill="#392910" transform="matrix(-12.91213 17.57774 -12.22905 -8.98313 165.9 23.8)"/><ellipse cx="19" cy="150" fill="#564332" rx="59" ry="12"/><ellipse cy="236" fill="#e6ffff" rx="16" ry="24"/><path fill="#ad8563" d="M181 131h75v37h-75z"/><path fill="#7f674d" d="M41 51l82 99-34 74z"/><circle r="1" fill="#262114" transform="matrix(32.59169 15.2639 -5.71137 12.195 239.9 74)"/><circle r="1" fill="#442908" transform="matrix(-46.93448 -26.77095 11.72297 -20.55255 62.5 242.6)"/><ellipse cx="236" cy="228" fill="#311900" rx="92" ry="28"/><circle cx="108" cy="85" r="41" fill="#bbb39f"/><ellipse cx="234" cy="6" fill="#b1b092" rx="13" ry="25"/><path fill="#faf8e4" d="M-6.3 66.4l-21.2-13.2 39.8-63.6L33.5 2.8z"/><ellipse cx="251" cy="104" fill="#000300" rx="10" ry="28"/><path fill="#dcaf93" d="M16.9 80.7l7.4 15.5 22.7-7 1.3-15.3z"/><path fill="#e5cb9c" d="M142 128.3l14.2 18.1-32.3 25.3-14.1-18.1z"/><circle r="1" fill="#8c653a" transform="matrix(11.2409 30.3179 -17.62029 6.53303 18.1 195.8)"/><circle r="1" fill="#d4bfa0" transform="matrix(-17.97557 -54.48539 6.68406 -2.20518 4.2 122.5)"/><path fill="#3a3c38" d="M179.7 195l-2.1-47.1-13.8 2.6-26 14z"/><path fill="#131507" d="M215 30.6L206.9-14l-21.6 3.1L163.5 4z"/><path fill="#100f07" d="M67.7 90.9l.1-44.8-51.5-14.7 41.4 26.9z"/><path d="M0 145h9v19H0z"/><path fill="#041013" d="M225 173h31v28h-31z"/><path fill="#b78d70" d="M169 157l-49-61 106-69z"/><circle cx="95" cy="23" r="38" fill="#d3d0bf"/><path fill="#caa781" d="M19.8 183.9L60 154.6l41.9-10.1-38.5 33.6z"/><path fill="#836348" d="M194.8 135.6l5.8-23.3 48.6 12.1-5.8 23.3z"/><path fill="#3f372c" d="M87 164l39 16-20-29z"/><path fill="#c2a17c" d="M230.7 159.2l14.5-28.5 16 8.1-14.4 28.5z"/><ellipse cx="246" cy="38" fill="#101914" rx="25" ry="8"/><path fill="#2f2211" d="M25.7 101.7l-9.1 12.6-9-40.6 4.5-13.8z"/><path fill="#39291d" d="M73 120l2 36 11-27z"/><circle r="1" fill="#937b51" transform="rotate(-150.3 11.4 22.6) scale(6.01055 28.27125)"/><path fill="#bfbba9" d="M112.7 134l-45-57.4 31.6-24.7 45 57.5z"/><path fill="#2e2111" d="M158 231l43 40-136-32z"/><path fill="#676d6a" d="M169 213l-17-49-27 70z"/><circle r="1" fill="#98765c" transform="rotate(29.9 -173.3 191) scale(35.81534 14.95653)"/><path fill="#c9cdbe" d="M20.3 111.9L-16 83.4l9.9 87.1 16.9-58z"/><circle r="1" fill="#4b3626" transform="rotate(-124.6 55 64.1) scale(18.11285 5.18487)"/><path fill="#e7e5d5" d="M85-4l-96 4L0 35z"/><path fill="#606257" d="M48 180h40v30H48z"/><path fill="#a79782" d="M202 197l6-37 21 42z"/><path fill="#c19f85" d="M158.9 96.8l80.8-5.6 1.4 20-80.8 5.6z"/><path fill="#919596" d="M77 211h29v18H77z"/><path fill="#282831" d="M107 213.1l12.9-2 3 19.8-12.8 2z"/><circle r="1" fill="#a49b78" transform="rotate(126.9 10.2 132.8) scale(9.01784 21.10329)"/><path fill="#83603c" d="M137.8 132.5L79.4 175l44.1-47.5 11.3-7.3z"/><path fill="#cec8b4" d="M66 90l32 13-19-67z"/><path fill="#5c3e1e" d="M45.7 266.6l4.6-87.6-18.7 4.1L6.2 271z"/><path fill="#cfcdbc" d="M87.6 37.2l39.9-89.5 42.9 19-39.9 89.6z"/><path fill="#836a3b" d="M27 25h24v7H27z"/><path fill="#28170a" d="M210 201l-39-8-11 49z"/><path fill="#c9bf9b" d="M120 146l29-25-26 75z"/><path fill="#b9a084" d="M85.5 103.4l3.5 17.7-28.5 5.5-3.5-17.7z"/><path fill="#0d0600" d="M65 55h4v25h-4z"/><path fill="#9b8868" d="M199 48h33v10h-33z"/><circle r="1" fill="#c0bcaa" transform="matrix(-26.52633 3.40704 -3.18717 -24.81444 131.2 58.3)"/><path fill="#111511" d="M52 36l-6 31-29-39z"/><path fill="#a4967d" d="M55 185.8L92.3 131l7.4 69.8-21.1-23.2z"/><path fill="#ddd9c7" d="M68 47L32-11l91 5z"/><path fill="#ac8367" d="M131.8 113.9l48.1-95.5 22 25.2 6 38.1z"/><path fill="#fff6bc" d="M253.3 147.4l-2.9-9.3 20.6-15.8v27.1z"/><path fill="#674d3c" d="M195 137l20-31 3 21z"/><path fill="#3e392e" d="M147 158l-16 19 46-26z"/><path fill="#281b0b" d="M-9.9 95L8.4 68.1l11.5 12.4 23.5-15.6z"/><path fill="#79674c" d="M20 76L9 36l18 18z"/><circle r="1" fill="#735442" transform="matrix(24.2984 3.32847 -.51255 3.7417 61.8 97.2)"/><path d="M-9.2 148.3l13.7-3.1 4.7 20.5-13.7 3.1z"/><path fill="#7c6452" d="M141.7 150.8l6.9-12.4 45.2 60.2 1.8-47.9z"/><path fill="#c6a07b" d="M9 163h67v15H9z"/><path fill="#362f24" d="M216 70l36 27 19-63z"/><path fill="#8f7252" d="M1 166l19 78 12-68z"/><circle r="1" fill="#453626" transform="rotate(152.3 24 76.4) scale(3.99989 11.92671)"/><path fill="#c5ad8a" d="M153 160l6-26-37-40z"/><path fill="#64543d" d="M100.4 169.9l-12.9-14.4 27.1-13.5-11.8 66.3z"/><circle r="1" fill="#3e2d1a" transform="matrix(-14.16856 -17.12685 30.93365 -25.59054 51.7 254.3)"/><path fill="#c09c83" d="M31.2 100.7l16.2-23.2-34.3 6.1 7.3 5.8z"/><path fill="#8a7358" d="M207 137l-55-6-8-20z"/><path fill="#3b321f" d="M193.7 34.5l15.5-22.1 13.1 9.1-15.5 22.1z"/><path fill="#3f3b38" d="M177 208l-53 46-39-16z"/><circle r="1" fill="#b6b29f" transform="matrix(16.69464 11.89609 -18.08758 25.38362 117.7 94.6)"/><path fill="#75593b" d="M100 134l21 8-38-36z"/><path fill="#25241a" d="M168.9 22.7l-12.1-7.8 23-30.9 48.7 6z"/><path fill="#393119" d="M251.3 174.6l-14.6 10.6-12.3 7.6-3.9-28.9z"/><path fill="#9a967c" d="M222 16l-1-32 50 13z"/><path fill="#3b3d2d" d="M126.7 191.2l2.6-4.2 22 13.8-2.6 4.2z"/><path fill="#1c170e" d="M22 104L11 84l17 17z"/><path fill="#5d6664" d="M120 172h6v16h-6z"/><path fill="#9a7659" d="M205 64l-30 22 63 3z"/><path fill="#7e6149" d="M47 54h12v25H47z"/><path fill="#715d41" d="M146.4 28.9l25.3 13 39.2-31.4L161 21z"/><path fill="#a58a78" d="M34 112h33v33H34z"/><path fill="#b6a088" d="M50.6 173.7l21.9 13.2 9.2-38.9-12.6 49.5z"/></g></g></svg>