<svg xmlns="http://www.w3.org/2000/svg" viewBox="0 0 1200 1800"><defs/><filter id="a"><feGaussianBlur stdDeviation="12"/></filter><rect width="100%" height="100%" fill="#514533"/><g filter="url(#a)"><g fill-opacity=".5" transform="translate(3.5 3.5) scale(7.03125)"><ellipse cx="73" cy="151" fill="#dec8a5" rx="82" ry="63"/><circle cx="128" cy="186" r="26" fill="#ffc315"/><circle r="1" fill="#9b8d7e" transform="matrix(-5.30857 -144.77262 21.44648 -.7864 35 99.6)"/><path fill="#0a1822" d="M59 171l3 55 43-18z"/><circle r="1" fill="#6b6962" transform="matrix(-19.21451 107.86967 -52.84682 -9.41345 114.9 36.2)"/><ellipse cx="8" cy="145" fill="#e0ffff" rx="17" ry="12"/><circle r="1" transform="matrix(2.9061 -60.42504 5.42041 .2607 160.3 135.9)"/><circle r="1" fill="#e0ecf8" transform="matrix(15.24286 9.3722 -6.06625 9.86608 133.6 145)"/><path fill="#00171b" d="M6.4 131.5l-22.4-8.6L-9.3 4.5l29.5 126z"/><circle r="1" fill="#364a5c" transform="rotate(6.5 -2016.5 538) scale(131.54009 31.88983)"/><path fill="#000310" d="M164 239l-1-60-49 92z"/><circle r="1" fill="#f9914f" transform="matrix(24.28846 .05738 -.04627 19.5856 47.6 147)"/><path fill="#fffff7" d="M66 208h4v48h-4z"/><ellipse cy="185" fill="#bbbeb2" rx="57" ry="12"/><ellipse cx="112" cy="98" fill="#474237" rx="26" ry="23"/><path fill="#d6efff" d="M79.1 156.6l-10.6-14.8 16.8-8.3 4.4 22.8z"/><ellipse cx="143" cy="115" fill="#8b8c7f" rx="11" ry="28"/><circle r="1" fill="#a9afab" transform="matrix(9.0211 -8.84141 7.56994 7.72379 46 217.4)"/><circle r="1" fill="#b5b3a8" transform="rotate(-137.4 82.8 65.5) scale(10.81015 34.94942)"/><path fill="#e0d8be" d="M87 244.5l-1.5-4.6v-46.2L93 258z"/><path fill="#36392f" d="M63.6 158.5l17.9 2.2-3 24.8-18-2.2z"/><path fill="#171206" d="M81.1 229.5l-19.2-30.2 49.6 29.5-15.9-37.9z"/><circle r="1" fill="#f6a633" transform="matrix(3.9996 -18.34383 20.78454 4.53176 116 191.1)"/><path fill="#dcd7ca" d="M120 121h14v38h-14z"/><circle cx="43" cy="27" r="47" fill="#5c564d"/><circle r="1" fill="#e6e1d4" transform="matrix(-4.69824 -31.06569 1.8077 -.27339 93.5 142.6)"/><path d="M167 131h3v109h-3z"/><ellipse cx="158" cy="137" rx="5" ry="64"/><circle r="1" fill="#a9a692" transform="rotate(-120.1 47.5 39.2) scale(26.52371 14.59945)"/><path fill="#0c0d0b" d="M119 127l-26-3 12 12z"/><path fill="#c4bfa7" d="M57 186h23v8H57z"/><circle r="1" fill="#7a6e62" transform="matrix(-15.1749 -21.43227 29.96198 -21.21426 130.2 19)"/><ellipse cx="4" cy="160" fill="#0f160f" rx="18" ry="4"/><path fill="#322d22" d="M113 120l15-61 33-23z"/><path fill="#303026" d="M73 100l-2 28 19 5z"/><path fill="#c7c8c8" d="M173 231l-19 40 22-17z"/><ellipse cx="90" cy="155" rx="2" ry="17"/><circle r="1" fill="#28333f" transform="rotate(-137.3 107.9 95.6) scale(15.49143 44.39517)"/><path fill="#a39f8b" d="M155.3 90.1l4-28.2-12.9 30.7 5.8 64z"/><ellipse cx="169" cy="85" fill="#071c1e" rx="12" ry="31"/><path fill="#926b36" d="M62.3 180.3l14-7.4-49 6 30.9-29.4z"/><path fill="#df9735" d="M113.7 159l41.2 6.9-2.4 35.1-26.9 14z"/><path fill="#795d44" d="M89 193l29 23-2-21z"/><path fill="#181711" d="M69 194h16v33H69z"/><path fill="#666154" d="M4.6 57.2l10.9-1.1 6 56.7-11 1.1z"/><circle r="1" fill="#bbcded" transform="matrix(3.8955 8.68745 -18.94468 8.4949 7.6 145.5)"/><path fill="#4e4f45" d="M136 115h13v22h-13z"/><ellipse cx="165" cy="202" fill="#99998b" rx="2" ry="26"/><path fill="#010205" d="M163.9 202.3l-3.1-63.8-11 75.3 5.6 57.2z"/><path fill="#b0aa99" d="M0 162h27v32H0z"/><ellipse cx="86" cy="196" fill="#e3dec8" rx="2" ry="40"/><path fill="#5e6261" d="M0 193h40v37H0z"/><path fill="#4b4d4b" d="M115 129l2 25-17-9z"/><path fill="#bdb097" d="M124.7 123.6l34.6-49.3-29.4 57.5L86 117.3z"/><path fill="#ada084" d="M165.8 233.6l-.4-20.3-1.8 17.6-7.4 40.1z"/><path fill="#8e4e37" d="M37.4 141.4l23.7-3.7 1.5 8.9-23.7 3.7z"/><path fill="#39392f" d="M57 22h7v72h-7z"/><path fill="#ebdfc9" d="M94 166h8v22h-8z"/><path fill="#353c40" d="M157.6 258.7L92 254.2l-6.1-40 74.4 27.5z"/><ellipse cx="82" cy="159" fill="#1b1f18" rx="11" ry="3"/><path fill="#6f6556" d="M73 82.4l11.4-25.6L131 77.6l-11.4 25.6z"/><path fill="#081919" d="M-1 27l13 97-28-2z"/><ellipse cx="67" cy="254" fill="#fff" rx="1" ry="48"/><ellipse cx="5" cy="189" fill="#61542e" rx="77" ry="1"/><ellipse cx="70" cy="26" fill="#766c5f" rx="9" ry="36"/><path fill="#cdc0a6" d="M81 99l7-10-31 13z"/><path fill="#d1a471" d="M55.4 170.9l14-49.1 4.8 24.7-12.9 27.8z"/><path fill="#f8d16a" d="M58 160l-14 8-8-14 14-8z"/><path fill="#ffca45" d="M127 160.1l6.6 7.6L99 197.9l-6.5-7.6z"/><path fill="#141513" d="M88 193v34l11-29z"/><path fill="#fcb283" d="M33 129h23v13H33z"/><path d="M78 184.6l-12-.2v-5l12 .2z"/><path fill="#474539" d="M85 45L72 97l-20-8z"/><path d="M166.3 166.4l6 .2-.6 19-6-.2z"/><path fill="#969996" d="M61.3 197.1l-15.7 32.7-14.7-19.9 31 7.7z"/><path fill="#d5e8f9" d="M100 149h7v9h-7z"/><ellipse cx="64" cy="214" fill="#1d180d" rx="3" ry="22"/><path fill="#0a0a07" d="M99 140.5l-1 .3-5-15.3 1-.3z"/><path fill="#b3782d" d="M157.7 173.6l-22.4 40.3 4.2-57.6 15.2 15z"/><path fill="#463f34" d="M100 157h8v5h-8z"/><path fill="#1e201c" d="M119.3 82.6L134 47.1l2.3 15.4-5.7 10.2z"/><circle r="1" fill="#513931" transform="matrix(12.41106 -3.98476 .7841 2.44221 40.8 172.1)"/><path fill="#bec5c3" d="M85.1 138l-7.3 2.2L56 124.4l33.7 38.2z"/><ellipse cx="22" cy="129" fill="#cab9a0" rx="3" ry="31"/><ellipse cx="91" cy="159" fill="#0b100e" rx="2" ry="9"/><path fill="#c66b57" d="M37 142l5 37-17-21z"/><path fill="#b5b1a0" d="M42 88h10v43H42z"/><path fill="#d6c6a8" d="M92.6 123l-.9.5L73.4 89l.9-.5z"/><circle r="1" fill="#7e353a" transform="matrix(-4.82017 -4.56309 2.05972 -2.17576 53 148)"/><path fill="#48463d" d="M130.7 111.1l-5.7-4 18.3-26.2 5.7 4z"/><ellipse cx="129" cy="235" fill="#465f73" rx="21" ry="3"/><path fill="#747260" d="M166 96h2v52h-2z"/><path fill="#463f30" d="M117-16L92-4 76 53z"/><path fill="#53544d" d="M83.7 193.4L-16 212.6l77-21.1 7.9 19.6z"/><path fill="#7d572f" d="M141 191.6l-11.2 3.2 18.9 27-9.9-14.2z"/><ellipse cx="25" cy="18" fill="#473e2f" rx="3" ry="52"/><path fill="#ffe251" d="M128 208.8l-8.8-4.9 4.9-8.7 8.7 4.9z"/><path fill="#968c7b" d="M113 121h8v41h-8z"/><path d="M154 122h10v31h-10z"/><path fill="#000007" d="M168 118h2v118h-2z"/></g></g></svg>