<svg xmlns="http://www.w3.org/2000/svg" viewBox="0 0 1200 1800"><defs/><filter id="a"><feGaussianBlur stdDeviation="12"/></filter><rect width="100%" height="100%" fill="#353b3a"/><g filter="url(#a)"><g fill-opacity=".5" transform="translate(3.5 3.5) scale(7.03125)"><circle r="1" fill="#fff" transform="rotate(148.3 35.4 48) scale(133.23503 151.53394)"/><ellipse cx="77" cy="211" fill="#717164" rx="169" ry="69"/><circle r="1" fill="#cdd9f0" transform="rotate(-164.9 59 24.8) scale(111.24594 79.4733)"/><circle r="1" fill="#b3aba0" transform="rotate(-152.8 109.2 103.1) scale(51.13085 24.77729)"/><path fill="#373127" d="M10.5 163.3l71.2 8.7-8.8-84.6-9.1 67.7z"/><circle r="1" fill="#191000" transform="matrix(.6185 8.72044 -30.62652 2.17217 0 124.3)"/><circle r="1" fill="#17241c" transform="matrix(4.86095 12.80603 -49.38196 18.74455 19.4 225.4)"/><circle cx="169" cy="185" r="45" fill="#665d50"/><circle r="1" fill="#9aa09b" transform="matrix(1.57001 -17.42053 85.57784 7.71263 16.3 183.2)"/><path fill="#c5cad2" d="M5 37l68 105-33 5z"/><path fill="#212734" d="M85 147.3l-9.5 3.3-12.4-36 9.4-3.2z"/><circle r="1" fill="#cbd0d3" transform="matrix(3.62834 -20.30114 65.75676 11.75242 96.5 95.7)"/><circle r="1" fill="#60727d" transform="rotate(-29.7 461.8 -31.7) scale(45.70329 15.69558)"/><circle r="1" fill="#9babc4" transform="matrix(14.18225 -42.1417 66.44926 22.36265 41.7 0)"/><path fill="#161304" d="M12 81L1 70l-17 4z"/><path fill="#161300" d="M114 155h15v7h-15z"/><circle r="1" fill="#2f3d38" transform="matrix(-37.26382 33.29212 -18.4434 -20.64366 9.2 231.5)"/><path fill="#aeaea7" d="M130 254.4l-15.5-46 56.3 62.6-31.4-55.5z"/><path fill="#cec2b0" d="M-6 156l43 17 23 35z"/><path fill="#554d3a" d="M29 176l-1-50 13 44z"/><path fill="#35362e" d="M119.4 199.8l15.5 39.7-2.7-3.6 27.7 35.1z"/><path fill="#292d26" d="M107 271h21l-20-77z"/><path fill="#bdc4c2" d="M89 109l12 69-18-28z"/><path fill="#fff" d="M154 149h3v25h-3z"/><path fill="#454034" d="M111.3 178.5L72 172.7l12.2-28-36.5 5.3z"/><path fill="#c1c6cd" d="M154 109l-167-4 49-56z"/><ellipse cx="41" cy="154" fill="#f2e2cc" rx="22" ry="2"/><path fill="#4a402f" d="M156.7 143l22-1.9 2.6 29.9-22 1.9z"/><path fill="#040a00" d="M-10.3 219l-.3-6 78.9-4 .3 6z"/><ellipse cx="166" cy="186" fill="#262521" rx="61" ry="2"/><path fill="#43392f" d="M20 132l-29-8 31-18z"/><circle r="1" fill="#97836b" transform="rotate(-174.7 33.3 79.4) scale(99.40534 3.22513)"/><path fill="#996a43" d="M60 122l-5-9 28 10z"/><ellipse cx="13" cy="189" fill="#767365" rx="23" ry="13"/><path fill="#7c756a" d="M138 271l-28-67 9 67z"/><circle r="1" fill="#0f212a" transform="matrix(5.84998 3.74122 -4.62744 7.23572 74 151.9)"/><path fill="#cfd8d8" d="M135 153l2 21-6-6z"/><path fill="#5b5244" d="M173 228l-27-6 39 40z"/><path fill="#4f5e66" d="M47 216l69 29L6 271z"/><path fill="#b0b0a9" d="M138.1 242.5l11.8 28.5-13.6-11-33-82.8z"/><path fill="#5a5c58" d="M106.4 172.4l12.2 37.2-4.2-31.8L98 220.7z"/><path fill="#313020" d="M23.5 148l4.9-10 8 4-4.8 10z"/><path fill="#a3604c" d="M21 152l-5 13-32-31z"/><path fill="#8b7a6f" d="M10.9 102.3l19.6 3.8-3.4 17.6L7.5 120z"/><path fill="#b1b7bf" d="M72.3 140l-2.4 6.5-81.5-12 79.9-7.1z"/><ellipse cx="119" cy="126" fill="#bbbfc3" rx="44" ry="23"/><path fill="#83949d" d="M70 177h30v41H70z"/><circle r="1" fill="#f3e9cb" transform="rotate(143.8 -14.3 51.4) scale(4.93596 8.52189)"/><path fill="#bab3a4" d="M135 221h35v3h-35z"/><path fill="#62543e" d="M102.6 165.3L185 138l-43.6 8.8-57.8 23.4z"/><path fill="#9b8f7c" d="M115 189h55v13h-55z"/><circle r="1" fill="#b8bfca" transform="rotate(-117.7 21 22.8) scale(90.33343 15.41194)"/><circle r="1" fill="#e0dace" transform="matrix(-5.73494 -3.95137 1.84866 -2.68311 25.8 174.3)"/><ellipse cx="108" cy="150" fill="#937d60" rx="18" ry="5"/><path fill="#b1b8b6" d="M96 168h8v21h-8z"/><path fill="#b6b7b2" d="M163.9 271l-26-52.2-25.2-33.8 48.4 86z"/><circle r="1" fill="#f9dccd" transform="matrix(-2.49 -.93887 1.47943 -3.92365 23.5 153.9)"/><circle r="1" fill="#cec8bb" transform="rotate(-139.4 54.5 85.7) scale(21.55081 3.42887)"/><path fill="#c5ccd5" d="M114.6 86l22.6-61L185 47.7l-92.9-7.3z"/><ellipse cx="51" cy="166" fill="#4b4636" rx="30" ry="4"/><path fill="#c4bfa3" d="M85.2 168.6l17.4-14.6-25.7 7.6L98 172.1z"/><path fill="#b8a79a" d="M18 159h45v3H18z"/><path fill="#e9dabb" d="M19.7 141.3L9.2 165.1l-1-.4 10.6-23.8z"/><path fill="#4a4c4e" d="M136 202h34v10h-34z"/><path fill="#646f73" d="M116.9 231.1l-31.2 14.2 22.7-33.2-74.7 22.1z"/><circle r="1" fill="#36342b" transform="rotate(-28 517 -151.3) scale(1 40.87382)"/><path fill="#a8b1bb" d="M-11 149l18-20 21 11z"/><circle r="1" fill="#69543d" transform="matrix(39.72132 3.87673 -.17464 1.78938 41.4 150.3)"/><path fill="#001211" d="M121.8 271H93.3l19.8-27.4z"/><path fill="#003037" d="M0 202h32v3H0z"/><path fill="#060805" d="M34.9 164.6l-.2 1-23.6-4.2.2-1z"/><path fill="#484c4e" d="M-5.3 149.6l-.6-.8 25.2-16.4.6.8z"/><path fill="#2e3c41" d="M83.7 241.2L60 244.3l65.6 26.7H89.3z"/><path fill="#666a48" d="M108 169l-17-5 20-6z"/><path fill="#aaa996" d="M57 152h6v15h-6z"/><path fill="#4d524b" d="M32 158h2v55h-2z"/><path fill="#daab6a" d="M38 170h23v3H38z"/><path fill="#eeecdf" d="M58.5 209.1l-13.7-15.8-15-14.2-7.3-5.5z"/><path fill="#b7b5b0" d="M9.1 146.8l16.9-2-1.2-26.9-4.7 15.5z"/><circle r="1" fill="#3a4548" transform="rotate(140.3 42.4 107.9) scale(7.97229 3.9112)"/><circle r="1" fill="#f9ca69" transform="matrix(1.77489 -2.0346 2.8539 2.48961 117.7 152.5)"/><ellipse cx="92" cy="176" fill="#392e1d" rx="3" ry="5"/><circle r="1" fill="#74756a" transform="rotate(-134.9 62.7 90.3) scale(13.18226 2.96731)"/><path fill="#9aa8be" d="M-16-16l83 47-48 2z"/><path fill="#391f05" d="M69 120l6-8-11 3z"/><circle r="1" fill="#3b3a32" transform="matrix(7.27333 19.18533 -1.35478 .51361 142.9 247.7)"/><ellipse cx="39" cy="123" fill="#b9bfc7" rx="10" ry="22"/><path fill="#5b472c" d="M96.8 180.6l-25.3-25.3-3.9 16.1-9-22.6z"/><path fill="#131101" d="M163 157h7v5h-7z"/><path fill="#f6eddd" d="M-10.1 159.4l-3.3-7.3 17.9 7.7 6.4 3.1z"/><ellipse cx="147" cy="174" fill="#949286" rx="22" ry="3"/><path fill="#57544a" d="M90.6 172.5l23.4 4.9-5.1-3.4-9.3-1.3z"/><path fill="#fff5cd" d="M129 155h11v2h-11z"/><circle r="1" fill="#bdc1c5" transform="matrix(-3.73533 -1.61642 12.00585 -27.74388 95.4 132.5)"/><path fill="#5e563f" d="M59.3 205.2l.3 5-49 2.6-.2-5z"/><ellipse cx="126" cy="143" fill="#b0b7bf" rx="12" ry="7"/><path fill="#83959d" d="M50 175h41v23H50z"/><path fill="#c6c0a0" d="M90.8 157.2l3.4 6.8 4.7-11.5 17.7 3.7z"/><circle r="1" fill="#494535" transform="matrix(3.13033 -2.54902 6.11135 7.50506 0 77.5)"/><circle cx="64" cy="199" r="3" fill="#f5efe1"/></g></g></svg>