<svg xmlns="http://www.w3.org/2000/svg" viewBox="0 0 1800 1200"><defs/><filter id="prefix__a"><feGaussianBlur stdDeviation="12"/></filter><rect width="100%" height="100%" fill="#46452f"/><g filter="url(#prefix__a)"><g transform="translate(3.5 3.5) scale(7.03125)"><circle r="1" fill="#fff" fill-opacity=".5" transform="matrix(-6.0525 43.14317 -119.22556 -16.72602 172.9 0)"/><ellipse cx="232" cy="149" fill="#c2bfb8" fill-opacity=".5" rx="135" ry="52"/><circle r="1" fill="#ebf2f6" fill-opacity=".5" transform="matrix(-2.72199 24.65545 -125.51469 -13.85695 169 5.5)"/><circle r="1" fill="#07180e" fill-opacity=".5" transform="matrix(-105.17522 11.42568 -5.024 -46.24675 24 82.7)"/><path fill="#fff" fill-opacity=".5" d="M209 156.2l36.6-5.2 3.5 24.8-36.7 5.2z"/><ellipse cx="226" cy="60" fill="#666a61" fill-opacity=".5" rx="97" ry="26"/><path fill="#3c453c" fill-opacity=".5" d="M121 56l22-64-1 54z"/><circle r="1" fill="#805c45" fill-opacity=".5" transform="rotate(167.7 86.3 66) scale(12.46824 65.19251)"/><circle r="1" fill="#47635d" fill-opacity=".5" transform="matrix(16.8655 13.09346 -29.77637 38.35454 99.5 143.8)"/><path fill="#d3d4cd" fill-opacity=".5" d="M136 33h7v42h-7z"/><circle r="1" fill="#e3e6e7" fill-opacity=".5" transform="rotate(88.6 63.8 101.7) scale(9.19121 23.96156)"/><ellipse cx="172" cy="169" fill="#d5d5c7" fill-opacity=".5" rx="9" ry="55"/><path fill="#deb59d" fill-opacity=".5" d="M186.3 83.8l11.1 14.1-15.7 12.3-11.1-14.1z"/><ellipse cx="151" cy="150" fill="#604629" fill-opacity=".5" rx="11" ry="28"/><path fill="#f1f2ea" fill-opacity=".5" d="M123 146l-20 39h29z"/><path fill="#5f6e64" fill-opacity=".5" d="M271 156l-42-37 29-131z"/><circle r="1" fill="#272515" fill-opacity=".5" transform="matrix(-6.08042 10.30582 -30.52606 -18.01034 201.7 79.2)"/><path fill="#3b4125" fill-opacity=".5" d="M41 47l91-22 5 78z"/><circle r="1" fill="#2c4e4b" fill-opacity=".5" transform="rotate(-27.4 320.6 -19.8) scale(66.23176 24.26903)"/><path fill="#bcb9ae" fill-opacity=".5" d="M131.7 103.1l3.6 59.6 6.3-47.4 44.2 15.5z"/><circle r="1" fill="#534c3e" fill-opacity=".5" transform="matrix(-9.42756 1.07582 -6.1934 -54.27345 191.8 156)"/><path fill="#40381f" fill-opacity=".5" d="M173.1.8l-20.5 106.6 18.1-55.5-12-1.1z"/><ellipse cx="233" cy="48" fill="#667166" fill-opacity=".5" rx="68" ry="13"/><path fill="#fdfdf9" fill-opacity=".5" d="M144 0h19v38h-19z"/><path fill="#14231c" fill-opacity=".5" d="M-13-16l75 157-59 11z"/><path fill="#6d7d76" fill-opacity=".5" d="M24 164l63-17 26 19z"/><path fill="#f2f1e9" fill-opacity=".5" d="M106 0h31v24h-31z"/><path fill="#f5f6ec" fill-opacity=".5" d="M209 154h25v16h-25z"/><path fill="#fdffff" fill-opacity=".5" d="M204 141h39v3h-39z"/><path fill="#4e5a3c" fill-opacity=".5" d="M85.4 51.1L-6.9-16 73 9.4l57.3 29.7z"/><path fill="#3b220d" fill-opacity=".5" d="M142 62l34 50-32-9z"/><path fill="#121f12" fill-opacity=".5" d="M250 145l21-46-13-44z"/><ellipse cx="139" cy="14" fill="#45473f" fill-opacity=".5" rx="4" ry="27"/><path fill="#e0c0a4" fill-opacity=".5" d="M147 116.7l10-8.2 12 14.8-10 8.2z"/><path fill="#86999a" fill-opacity=".5" d="M221.7 185l46.5-58.3-16.7-8.6 19.5 53.8z"/><path fill="#08251d" fill-opacity=".5" d="M41 164h51v6H41z"/><path fill="#9fa8a1" fill-opacity=".5" d="M242.1 132.5L271 55.2 228 141l28.3 5.2z"/><path fill="#4e5848" fill-opacity=".5" d="M74 110h57v38H74z"/><path fill="#142a1e" fill-opacity=".5" d="M113.2 152.1l-63.6 14.3 54.2-7.8 11.1-4.4z"/><path fill="#1a1814" fill-opacity=".5" d="M7 81l82 29 71-21z"/><path fill="#39331f" fill-opacity=".5" d="M143 46h10v66h-10z"/><ellipse cx="40" cy="155" fill="#798780" fill-opacity=".5" rx="67" ry="2"/><path fill="#422f09" fill-opacity=".5" d="M167.2 28.2l-1-.2 8.6-44.2 1 .2z"/><path fill="#a37d62" fill-opacity=".5" d="M166.2 59.6l-2 20.4 38.1 42.1 1.5-16.1z"/><path fill="#556562" fill-opacity=".5" d="M215.1 104.5l-15.7 11.7 50.1-1.9-50.9 25z"/><path fill="#356068" fill-opacity=".5" d="M185 145h18v25h-18z"/><path fill="#c8d6d2" fill-opacity=".5" d="M0 168h19v2H0z"/><path fill="#a2a491" fill-opacity=".5" d="M243 66l3-32 16-16z"/><ellipse cx="48" cy="163" fill="#a7b1aa" fill-opacity=".5" rx="16" ry="2"/><path fill="#c0a97e" fill-opacity=".5" d="M165 24.3l1 .2-9 51.2-1-.2z"/><ellipse cx="71" cy="159" fill="#0c2417" fill-opacity=".5" rx="37" ry="2"/><path fill="#001d18" fill-opacity=".5" d="M5 155l-9 12 35-14z"/><path fill="#bec6b8" fill-opacity=".5" d="M-15 161l28-8-27-1z"/><path fill="#705031" fill-opacity=".5" d="M134 94l24 10-15 12z"/><path fill="#cccdcc" fill-opacity=".5" d="M95.6-14.3l6.2 42.5 24.5-1.7-7.7-11.6z"/><circle r="1" fill="#57625b" fill-opacity=".5" transform="matrix(16.42883 -11.34194 5.73859 8.31236 230.5 46.3)"/><path fill="#99a095" fill-opacity=".5" d="M73 143h66v2H73z"/><circle r="1" fill="#d8e0e1" fill-opacity=".5" transform="rotate(-27.1 114.2 -473.5) scale(21.48903 30.97735)"/><circle r="1" fill="#313a21" fill-opacity=".5" transform="matrix(-2.05903 13.61471 -112.6058 -17.03003 0 30.4)"/><path fill="#6e7869" fill-opacity=".5" d="M128.9 125.7l7.4 1.4-40.2-22.2 9.5 25.9z"/><path fill="#afb7a7" fill-opacity=".5" d="M49 158.9l54-4.9v1l-53.9 5z"/><path fill="#8e6142" fill-opacity=".5" d="M198.4 141.1L180.8 155l-4.6-51.3 32.9 10.2z"/><path fill="#0a1e14" fill-opacity=".5" d="M99.6 139.6l-42.8 3.8-.4-5 42.8-3.8z"/><path fill="#112819" fill-opacity=".5" d="M75 144h34v4H75z"/><ellipse cx="180" cy="33" fill="#d6dadb" fill-opacity=".5" rx="15" ry="6"/><ellipse cx="164" cy="161" fill="#938a76" fill-opacity=".5" rx="8" ry="20"/><ellipse cx="97" cy="152" fill="#d1d1c7" fill-opacity=".5" rx="21" ry="1"/><path fill="#5e5f48" fill-opacity=".5" d="M252.6 32.5l-3-.5 5.8-32.5 3 .5z"/><path fill="#a2956e" fill-opacity=".5" d="M198 57l-1 13-6-19z"/><path fill="#162e23" fill-opacity=".5" d="M65.4 137.6l-20.9 19.6 30.7-3.6-11.6.8z"/><path fill="#c5d2d0" fill-opacity=".5" d="M203.8 126.4l18.7 3.3-.3 2-18.7-3.4z"/><ellipse cx="126" cy="33" fill="#2e352f" fill-opacity=".5" rx="10" ry="5"/><path fill="#aebab1" fill-opacity=".5" d="M27 164h11v3H27z"/><path fill="#443622" fill-opacity=".5" d="M160.5 95.7l51.2-12.2-98.1 6.8 69.1 19.7z"/><path fill="#263026" fill-opacity=".5" d="M228 95.2l-9.8 4.3-20.2-.4 6.1-38.1z"/><path fill="#49605e" fill-opacity=".5" d="M204 131h27v9h-27z"/><path fill="#55402d" fill-opacity=".5" d="M146.4 173l10.1-15.5 7.5-28.4-20 24.3z"/><path fill="#a1a59b" fill-opacity=".5" d="M244 93h9v16h-9z"/><ellipse cx="100" cy="164" fill="#a1a89c" fill-opacity=".5" rx="7" ry="4"/><path fill="#9baaa1" fill-opacity=".5" d="M31.8 150.5l-.2-1 22.6-4 .2 1z"/><path fill="#aaaea7" fill-opacity=".5" d="M135 37h7v35h-7z"/><ellipse cx="150" cy="56" fill="#263424" fill-opacity=".5" rx="7" ry="15"/><path fill="#3d442b" fill-opacity=".5" d="M100.5 69.5L51.3 35.3l43.8-16.6 18.9 21z"/><path fill="#535e19" fill-opacity=".5" d="M34.6 69.5l13.3 10.8L24 84.6l2.9.4z"/><path fill="#668c8e" fill-opacity=".5" d="M197 150l7-14 5 43z"/><circle r="1" fill="#20372d" fill-opacity=".5" transform="matrix(42.73972 -7.76712 4.27328 23.51436 23.2 126.7)"/><path fill="none" stroke="#bbb7a0" stroke-opacity=".5" stroke-width=".5" d="M261.5 8.4q-15.9 39.8-24 101"/><circle r="1" fill="#a0a99c" fill-opacity=".5" transform="matrix(5.38702 .08463 -.0157 .99988 27 130.7)"/><path fill="#696c48" fill-opacity=".5" d="M43 20L34 1l31 4z"/><path fill="#444f41" fill-opacity=".5" d="M243.5 88.6l9.4-52.1 2.5-2 13.6 66.4z"/><path fill="#c0c2bf" fill-opacity=".5" d="M84.9 15.5l47.6 12.8L104 9.4l-22.4 15z"/><path fill="#88978d" fill-opacity=".5" d="M-2 152l10-5-10-1z"/><path fill="#a8b3ad" fill-opacity=".5" d="M15.3 154l-.3-1 13.7-3 .3 1z"/><path fill="#dddfd7" fill-opacity=".5" d="M248.6 152.7l-41.6 4.1 6.2 28.2 57.8-51z"/><path fill="#e3e3db" fill-opacity=".5" d="M133.6-16L64.4.7l74.3 12.2-26.3 21.3z"/><circle r="1" fill="#bdbfb3" fill-opacity=".5" transform="rotate(-97.3 162.2 3.5) scale(47.46244 3.41262)"/><path fill="#99a095" fill-opacity=".5" d="M107 143l-15-4 15-2z"/><path fill="#697668" fill-opacity=".5" d="M103.3 129.8l-30.1 8.3-15.8-4.8 10.9-1.1z"/><path fill="#1e3323" fill-opacity=".5" d="M52 164h56v2H52z"/><circle r="1" fill="#b49885" fill-opacity=".5" transform="matrix(-4.578 8.53318 -5.28752 -2.83672 183 101.2)"/></g></g></svg>