<svg xmlns="http://www.w3.org/2000/svg" viewBox="0 0 1200 1800"><defs/><filter id="a"><feGaussianBlur stdDeviation="12"/></filter><rect width="100%" height="100%" fill="#50473f"/><g filter="url(#a)"><g fill-opacity=".5" transform="translate(3.5 3.5) scale(7.03125)"><circle r="1" fill="#f6f3de" transform="rotate(-124.4 47.4 22.8) scale(104.9562 160.00053)"/><circle r="1" fill="#060100" transform="rotate(-178.9 29.4 76.1) scale(13.28322 57.29787)"/><path fill="#3e2d05" d="M40.9-18.2L99-9 89 54.2 31 45z"/><circle r="1" fill="#cfd1cd" transform="matrix(28.30591 -60.07038 34.34957 16.18594 133.3 57.6)"/><path fill="#aea693" d="M76.4 135.5l71.7-14 11.5 59-71.7 14z"/><ellipse cx="14" cy="109" fill="#d0c9b9" rx="25" ry="102"/><path fill="#29251b" d="M185 83l-30 96 1-98z"/><path fill="#322d24" d="M37.8 141.6l8.2-27 35.4 56.2-14.9 80.1z"/><path fill="#daceb2" d="M39 50h16v64H39z"/><circle r="1" fill="#412e0c" transform="matrix(.23276 -25.57825 3.16975 .02884 106.8 143)"/><circle r="1" fill="#d3ccbe" transform="rotate(-61.2 162.2 -55) scale(36.47395 16.88225)"/><path fill="#b3ac9f" d="M63 112h33v49H63z"/><path fill="#0c0000" d="M55.4 111.9L60 93.5 70.6 96 66 114.5z"/><ellipse cx="29" cy="177" fill="#c8bea8" rx="17" ry="30"/><path fill="#393621" d="M65.8 50.9l-34.7-5.5 2.7-17 33.8-10.1z"/><path fill="#b0a184" d="M78 177h18v20H78z"/><path fill="#141411" d="M74.1 196.2l-1-.1L84 119.8l1 .1z"/><circle r="1" fill="#32382e" transform="matrix(134.6813 5.21747 -.97159 25.08014 71.1 255)"/><ellipse cx="41" cy="139" fill="#100500" rx="4" ry="12"/><path fill="#060605" d="M44 224l3-55 12 12z"/><circle r="1" fill="#716448" transform="matrix(36.33381 -.5869 .1286 7.96145 21.2 205.8)"/><path fill="#91856d" d="M38.6 53.7L27.4-16 138.7 9.8 28 21.7z"/><ellipse cx="91" cy="119" fill="#cac1ad" rx="8" ry="63"/><path fill="#5f4c2a" d="M90 23h6v33h-6z"/><circle r="1" fill="#5e5340" transform="matrix(-6.505 7.81177 -11.25687 -9.3738 111.3 167.5)"/><path fill="#d8caab" d="M71.9 93.3l-17 .3-.8-41 17-.2z"/><path fill="#aac0db" d="M155 0h15v83h-15z"/><circle r="1" fill="#ae9d7a" transform="matrix(.8282 3.61286 -23.13801 5.30412 156.4 176)"/><path fill="#6d5e43" d="M102 114h8v66h-8z"/><path fill="#bcbcb4" d="M95 0h14v49H95z"/><ellipse cx="79" cy="109" fill="#827c71" rx="6" ry="59"/><path fill="#818286" d="M110.7 159.7l40-34.7 4.6 5.3-40 34.7z"/><path fill="#332b1c" d="M171 169.6l14-70.9-33.5 70.1-53 12.5z"/><circle r="1" fill="#c3bbaa" transform="matrix(17.13488 13.7768 -12.38598 15.40506 26.2 166.8)"/><ellipse cx="5" cy="21" fill="#acada4" rx="27" ry="67"/><path fill="#cbc3b2" d="M61 116l12-8 2 32z"/><path fill="#756e59" d="M63 198h10v28H63z"/><path fill="#626665" d="M116 9h54v2h-54z"/><path fill="#c0b9a8" d="M83 59h71v54H83z"/><path fill="#918e86" d="M185 118.9l-26.2.9 16.6-18.2-14-36.4z"/><path fill="#494a48" d="M81.9 162.8l-25.1 29.6 7.1-60.7 2.6 31z"/><ellipse cx="120" cy="31" fill="#8f8a7d" rx="2" ry="74"/><path fill="#02090b" d="M70 194l2-13-5-10z"/><circle r="1" fill="#c3bcac" transform="matrix(-12.11215 22.9288 -14.92844 -7.88596 23.8 126)"/><path fill="#7f7f80" d="M154 154l1-35-45 44z"/><circle r="1" fill="#bdb8ac" transform="rotate(-60.4 101.5 21.3) scale(14.3247 24.97847)"/><path fill="#505144" d="M67.6 251.2l22.4-64 72.4 39.5L68 254.6z"/><path fill="#c8c2b4" d="M108.4 150.2l2.5-44.5 46.6 12.8-40 33.6z"/><path fill="#453d2e" d="M100 178l26-19-9 19z"/><path fill="#070700" d="M74 206.3l-.9-.1 6.8-48.5 1 .1z"/><path fill="#97876b" d="M149 181l-73 16 3-22z"/><path fill="#7c6f58" d="M-13 221l14-21 43-7z"/><path fill="#1c170f" d="M56.9 222.2l-2.8 20.6-34.9-4.6 57.2-4.1z"/><path fill="#3a3530" d="M54.3 114.5l17.8 19.4-31.8-14.8 22 67.3z"/><path fill="#7a6a4d" d="M67.5 54.5v-83h27v83z"/><path fill="#d2a586" d="M46.3 142.6l1-.3 6.4 21-1 .4z"/><path fill="#1c2119" d="M60 27h6v23h-6z"/><path fill="#392d21" d="M54.7 122.7L74 100.3l-15.9-6.1-4.8 21.5z"/><path fill="#171717" d="M45 177h5v35h-5z"/><path fill="#272318" d="M117 23l3-2 3 4z"/><ellipse cx="34" cy="12" fill="#816f46" rx="3" ry="35"/><path fill="#ccc4b2" d="M69 107h4v44h-4z"/><circle r="1" fill="#a59063" transform="rotate(178.3 23 19.8) scale(1.29795 15.53725)"/><path fill="#8c7f63" d="M75.4 190.1l-3 12.7-3.8-1 3-12.6z"/><path fill="#5e605a" d="M66.6 142.4l-7.8 43.4-4 26.9L67 171.3z"/><path fill="#c3c5bf" d="M89-16l36 23 36-7z"/><ellipse cx="40" cy="76" fill="#bcb39e" rx="24" ry="29"/><path fill="#a39c91" d="M108 151l11 5-11 17z"/><path fill="#90856c" d="M34 194h12v11H34z"/><path fill="#c3bbaa" d="M38.7 190.1l9.6-29.9-64.3 43.9 25.5-4.6z"/><path fill="#767469" d="M129.5 8.9l-34.8 8.3-35.9 30.6 53.4-43.5z"/><path fill="#94835e" d="M56 .7l-1.6 10.4 1.8 41.7 3.9 12.1z"/><path fill="#5b4f37" d="M103 116h5v29h-5z"/><ellipse cx="74" cy="178" fill="#b7b0a6" rx="2" ry="8"/><path fill="#565550" d="M154 87h2v80h-2z"/><path fill="#98958a" d="M68 96l16 14 5-27z"/><ellipse cx="41" cy="34" fill="#2b2d22" rx="4" ry="11"/><path fill="#272725" d="M61.2 184.8l.9 25.3 3.9-23.3 9.3-31.9z"/><path fill="#cdbfa0" d="M83 55h11v29H83z"/><path fill="#302a1b" d="M156 121h12v47h-12z"/><path fill="#8a8785" d="M121.8 179.9l7.5-33.3 5.4-9.7 10.9 24.1z"/><path fill="#bfb8aa" d="M-16 112l67-23-16 55z"/><ellipse cx="15" cy="26" fill="#b1aea2" rx="17" ry="66"/><path fill="#45483d" d="M123.9 204.7l21.9 30.4 39.2 27-27.9-87z"/><circle r="1" fill="#8b6c56" transform="matrix(-1.6635 -.65192 3.90986 -9.9768 64.6 111)"/><path fill="#bcb9ad" d="M113 9h27L96 30z"/><path fill="#7c766d" d="M50 126l1-7 14 9z"/><path fill="#c2beb2" d="M154 121l-5-109-40 144z"/><path fill="#5a5756" d="M147 142h7v32h-7z"/><path fill="#210f08" d="M77 173v-7l-5-7z"/><path fill="#9f9072" d="M61 158h2v18h-2z"/><path fill="#a0947f" d="M103.2 156.5l-4.4-32.7.6 53.9-22.2 11.8z"/><path fill="#a88562" d="M54.3 203l.9.5-5.5 9.5-.9-.5z"/><path fill="#b19e81" d="M79.3 189.3l-.4-2 139.8-24.6.4 2z"/><path fill="#beb39a" d="M74 102L31 47l40 5z"/><circle r="1" fill="#8a816e" transform="matrix(4.26872 -.0396 .20757 22.3719 76.2 73)"/><path fill="#080c0b" d="M39 148l1-11 4 19z"/><path fill="#3c352f" d="M55.9 164.5l12-8.2L56 126.6l-14.5-.7z"/><path d="M66 233l-15-2 17-3z"/><ellipse cx="89" cy="136" fill="#c8c2b5" rx="4" ry="39"/></g></g></svg>