<svg xmlns="http://www.w3.org/2000/svg" viewBox="0 0 1800 1200"><defs/><filter id="a"><feGaussianBlur stdDeviation="12"/></filter><rect width="100%" height="100%" fill="#324050"/><g filter="url(#a)"><g fill-opacity=".5" transform="translate(3.5 3.5) scale(7.03125)"><circle cx="95" cy="93" r="186" fill="#ae966c"/><circle r="1" transform="matrix(21.60014 22.44587 -35.75592 34.4087 193.5 83.5)"/><path fill="#e9e6e1" d="M287.1 130.2L243 203.9l-60-36L227 94z"/><ellipse cx="62" cy="74" fill="#fadb9b" rx="35" ry="41"/><ellipse cx="114" cy="138" fill="#000001" rx="70" ry="17"/><ellipse cx="235" fill="#fffff7" rx="54" ry="17"/><circle r="1" transform="rotate(129.6 28.6 13.4) scale(37.21499 31.43906)"/><circle r="1" fill="#c7c4c5" transform="matrix(130.42999 70.3098 -16.53759 30.67847 34.3 169)"/><circle r="1" transform="rotate(115.9 50.3 77.4) scale(16.36855 47.00783)"/><circle r="1" fill="#e1be80" transform="rotate(-79.5 116.5 -19.2) scale(25.26717 37.10879)"/><path fill="#01121c" d="M183 60h73v45h-73z"/><circle r="1" fill="#dfc28a" transform="rotate(-72.2 107.7 -90.7) scale(12.49955 48.20476)"/><circle r="1" fill="#0f1515" transform="matrix(-43.67817 -42.47516 7.73802 -7.95718 35.1 105.7)"/><circle r="1" fill="#edcb91" transform="matrix(36.15299 -9.2825 2.48354 9.67276 93 37.8)"/><path fill="#f7fbfd" d="M208 27l56 14-26 11z"/><circle r="1" fill="#000006" transform="rotate(-18 234 -348.1) scale(28.34656 13.33485)"/><circle r="1" fill="#1b262f" transform="matrix(6.3326 -13.13091 28.33558 13.66531 178.6 15.7)"/><circle r="1" fill="#b8afa5" transform="matrix(116.7705 -12.70138 1.92361 17.6848 194.2 166.3)"/><circle r="1" fill="#030e13" transform="matrix(-17.1881 21.68597 -6.70142 -5.31148 16 59)"/><circle r="1" fill="#0d1a26" transform="rotate(-23.9 381.9 -308.7) scale(64.23874 17.66726)"/><path fill="#fff3bd" d="M260-2l-53-3 56 39z"/><ellipse cx="52" fill="#0a0c0d" rx="44" ry="20"/><path fill="#c7ac79" d="M150 27h31v36h-31z"/><path fill="#6c8b9d" d="M236 52l-14 43 24-18z"/><path fill="#484432" d="M170 58l55-22-93 102z"/><path fill="#999492" d="M32.2 148.7l-75.8-68.3 15.4-17 75.8 68.2z"/><path d="M209 41h17v49h-17z"/><path fill="#a49e96" d="M235 185H134l100-84z"/><circle r="1" fill="#000005" transform="matrix(.09 -11.82672 18.95485 .14424 255 94.4)"/><path fill="#0f1620" d="M104 159l69-11-158-45z"/><circle r="1" fill="#c3b086" transform="matrix(-26.60567 1.6818 -1.91124 -30.23528 49.6 72.2)"/><path fill="#3c566a" d="M199.8 108.6l45.3-25.9-45.9 44-65.6 7.6z"/><circle r="1" fill="#f4e2b9" transform="matrix(.4564 -10.93334 30.64951 1.27942 208 0)"/><path fill="#a5886b" d="M49.9 26L-16 60l.9-41.6 60 6.6z"/><circle r="1" fill="#08151b" transform="matrix(-15.7204 7.18723 -2.16809 -4.74218 41 35.9)"/><ellipse cx="106" cy="17" fill="#13252e" rx="55" ry="3"/><path fill="#759dc0" d="M224.8 30.1l-36 27.1 19.5-24-43-16.6z"/><path fill="#171215" d="M256.4 35.2l-38.1-21.8 30.4 9.7-27.9 7.9z"/><path fill="#887452" d="M92 118h55v8H92z"/><circle r="1" fill="#908883" transform="rotate(15.8 -546.5 368.8) scale(36.77267 11.97934)"/><path fill="#0b375a" d="M268.8 77.9L249.5 83l-8.3-30.9 19.3-5.1z"/><path fill="#000616" d="M161-16l14 19-30 10z"/><circle r="1" fill="#14130a" transform="matrix(37.87994 9.23994 -.7238 2.96727 173.3 25.2)"/><circle r="1" fill="#825e2b" transform="matrix(-29.17578 9.68318 -3.09292 -9.31909 17.6 .5)"/><circle r="1" fill="#bcbab5" transform="rotate(69.5 31.7 232.2) scale(23.60483 12.19144)"/><path fill="#35331e" d="M-16 81.9v26.8l33.8-51.5 13 27.8z"/><circle r="1" fill="#bbb8b2" transform="matrix(17.77588 31.80619 -18.17294 10.15651 12.6 167.8)"/><path fill="#161b15" d="M176.6 75.6l-13-7.1-42.6.8 31.6 25.5z"/><ellipse cx="197" cy="34" rx="7" ry="4"/><path fill="#c2af8b" d="M80.7 75.5l44.2 8.6-5.6 28.4-44.2-8.6z"/><path fill="#937c4e" d="M13 80.3l91.3 44.9-33.2-4.5L37.4 108z"/><circle r="1" fill="#110f05" transform="rotate(47.2 .8 275.2) scale(13.51047 40.2953)"/><path fill="#645b3e" d="M180.2 98.1L169.5 110l-24.1-4.8 35-31.6z"/><path fill="#22384d" d="M239.9 22l26.7 3-61-1.5 15.6-11.1z"/><path fill="#99c9f3" d="M214 18l-14 23 12-11z"/><path d="M143 112h29v8h-29z"/><path fill="#232427" d="M177.1 127.1l30.2-8.3-3.4 10.6-55.8 25z"/><path fill="#c6b084" d="M60.2 32.5l-.6 3.3-38.2 47 101.2-55.1z"/><path fill="#dae1db" d="M207 19l-8-2 21-11z"/><ellipse cx="123" cy="64" fill="#51758c" rx="14" ry="3"/><path fill="#8e7379" d="M180.5-10.9L77.1 20.9l12-14.5 31.1 8z"/><path d="M107 43h33v17h-33z"/><path fill="#ad9a84" d="M8 31.3l8 3.7-24 51.6-8.2-3.8z"/><ellipse cx="195" cy="69" fill="#504935" rx="5" ry="20"/><path fill="#b19a75" d="M140.6 61.4l41.2-34.7-68.3-3.8 34.2 26.5z"/><path fill="#94cbf2" d="M211.6 104.1l16.1-15 .7.8-16.1 15z"/><path fill="#a9d3f3" d="M128.9 11.5l50.4 8-.2 1-50.4-8z"/><ellipse cx="255" cy="26" fill="#ceedff" rx="9" ry="4"/><path fill="#28363a" d="M136 59h15v27h-15z"/><path fill="#c6a87a" d="M143 124.1l-7.8-32.7 23.6 3-29.6 30.1z"/><path fill="#4e7fab" d="M111.8 134l-.1 1-43.5-7 .1-1z"/><path fill="#262829" d="M58.6 149.4l-15.8-27L54 105.1l7.9 9z"/><path fill="#00101c" d="M200 17L186 7l17 3z"/><path fill="#c6c6bb" d="M248.4 185l-15.3-38.1L271 95.6l-4.5 62.9z"/><circle r="1" fill="#c3b28f" transform="rotate(38.4 -90.8 133.2) scale(9.71836 29.94693)"/><path fill="#c3c4c2" d="M228 35l12 27 4-22z"/><path fill="#aad2ec" d="M235.2 63l1 .2-3.4 19.7-1-.1z"/><ellipse cx="147" cy="144" fill="#1c1d1e" rx="30" ry="10"/><path fill="#14232f" d="M1 71l33 35-23-6z"/><path fill="#315166" d="M221.1 42.3L271 82.1l-35.9 5.1 13.3.7z"/><path fill="#84817e" d="M32.6 114.3l32.2 41.8-31.4-13.7L-16 97.7z"/><path fill="#94abbb" d="M214.4 113.5l-38.5 14-.3-1 38.5-14z"/><path fill="#a4906a" d="M94.5 74.5L62.7 105l33.7-12 10.8-26z"/><path fill="#686970" d="M176.8 15l38.5 6.8-19.8-6-53.3-12.7z"/><path fill="#0a1216" d="M217 37l-11.2 9.5 17.7 37.4 7.9-36.1z"/><path fill="#bfa57a" d="M131 41l24-16-70-2z"/><ellipse cx="53" cy="11" fill="#020b10" rx="27" ry="9"/><path fill="#10110e" d="M145.9 92.1l47-9.7-7.1 31.2-18-54.9z"/><path fill="#5a91b1" d="M206 108.6l-37.6 13.7-.4-1 37.6-13.6z"/><path fill="#eaeadf" d="M180 4l10 4v-24z"/><path fill="#2e3837" d="M105.2 17.3L76 29.5l-54.7 9.9 44.5-17.2z"/><path fill="#191f1c" d="M14 57l21-21L9 95z"/><path fill="#575041" d="M-16 7.1L32.5 27l-6.7-11.5 5.9-16z"/><path fill="#a68f62" d="M88 74l7-27-36 10z"/><circle r="1" fill="#868470" transform="matrix(-28.58126 .3492 -.03617 -2.96038 122.7 22.5)"/><path fill="#111f23" d="M93 67l28 4-24-24z"/><path fill="#7f734b" d="M151 55h37v10h-37z"/><path fill="#c6b68f" d="M179 26l-26 31 27-7z"/><path fill="#6b542b" d="M131 104l-7.8-20.6 3.7-1.4 8 20.6z"/><circle r="1" fill="#513a2b" transform="matrix(-18.4605 -5.04566 .91375 -3.34313 242 32.1)"/></g></g></svg>