<svg xmlns="http://www.w3.org/2000/svg" viewBox="0 0 1800 1200"><defs/><filter id="a"><feGaussianBlur stdDeviation="12"/></filter><rect width="100%" height="100%" fill="#5b453a"/><g filter="url(#a)"><g fill-opacity=".5" transform="translate(3.5 3.5) scale(7.03125)"><circle r="1" fill="#cbffff" transform="matrix(32.08675 81.52682 -215.35456 84.75771 121.9 0)"/><circle r="1" fill="#c5eaff" transform="matrix(17.28917 0 0 114.78113 90.7 117.6)"/><circle r="1" transform="matrix(32.35812 -7.1144 5.2463 23.86153 141.4 73.4)"/><circle r="1" fill="#bbcfcd" transform="matrix(18.08972 5.39278 -19.20565 64.42407 182.6 103.5)"/><circle r="1" fill="#cbe5ff" transform="matrix(-28.50528 -29.62137 40.50314 -38.97704 31.3 53.3)"/><ellipse cx="219" cy="24" fill="#190001" rx="15" ry="17"/><path fill="#b7d5fc" d="M153-16l67 116-40-14z"/><circle cx="246" cy="76" r="46" fill="#747165"/><circle r="1" fill="#5d5753" transform="matrix(24.72155 24.15605 -34.68535 35.49735 40.5 138.6)"/><path fill="#aec6ea" d="M-16 9L179-2-3 119z"/><path fill="#23100e" d="M140 18h18v69h-18z"/><path fill="#e3fcff" d="M87 100h18v59H87z"/><path fill="#caebff" d="M233 0h23v33h-23z"/><path fill="#c4edfb" d="M120 185l25-26-9-13z"/><circle r="1" fill="#112c2f" transform="matrix(12.10147 -32.28087 18.9036 7.0866 126.7 128.2)"/><circle r="1" fill="#394241" transform="matrix(-14.452 -33.80182 16.131 -6.89682 201.4 127.6)"/><path fill="#73351e" d="M71.3 103.3l-19.8-9.7 9.2-18.9 19.8 9.7z"/><circle r="1" fill="#ffdaab" transform="matrix(-14.03575 -4.53342 .98212 -3.04069 19 148.2)"/><path fill="#b6cbed" d="M231 51l-85 3 53-35z"/><circle r="1" fill="#94998e" transform="matrix(-4.99159 .18303 -2.17578 -59.33677 120.5 95)"/><ellipse cx="28" cy="122" fill="#2f3942" rx="20" ry="23"/><circle r="1" fill="#f0bd9f" transform="rotate(-125.1 56.2 63) scale(5.04143 17.55303)"/><path fill="#2b2018" d="M196 73l75 5-62-25z"/><path fill="#ab9c71" d="M151 90h32v57h-32z"/><path fill="#0f1620" d="M170 100l6-38-50-14z"/><path fill="#121919" d="M0 164h91v6H0z"/><path fill="#ebfbff" d="M71 141l26-2-18 23z"/><circle r="1" fill="#a19175" transform="rotate(-57.3 201.6 -172.1) scale(10.48662 29.72266)"/><path fill="#9cb1ca" d="M88 85.2L95.2-16l16.9 130.6-50.5-3.7z"/><path fill="#3b1e00" d="M217.4 132.5l56.5 13-9.3 40-56.5-13z"/><path fill="#121719" d="M114.5 164.7l48.3-45.5-40-35.2 47.3-28.4z"/><path fill="#9fbad8" d="M126.4 50.6l19.5-2.8-9.2-57.7-147 73.7z"/><circle r="1" fill="#36473a" transform="matrix(78.70588 -2.84565 .14087 3.89615 67.5 0)"/><circle r="1" fill="#001014" transform="matrix(6.78004 -3.16329 12.98399 27.82926 154.3 166.8)"/><path fill="#505251" d="M181 96h65v36h-65z"/><circle r="1" fill="#3d3833" transform="matrix(-1.6538 1.51136 -26.91074 -29.44693 114.3 68.4)"/><path fill="#fcc69e" d="M21 144l-1 41 7-23z"/><path fill="#c79777" d="M72.5 144.9L54.7 111 44.6 96.7l18.1-8.3z"/><path fill="#3d2525" d="M212.8 6.7l-3.7 18 36.9 9.2-18.5 12.6z"/><path fill="#b3cde5" d="M201 79L171-6l6 100z"/><ellipse cx="112" cy="91" fill="#333c3d" rx="4" ry="43"/><path fill="#9d9488" d="M233 46.2L248.5 68l-12.8-.3-29.2-31.3z"/><path fill="#33261b" d="M74 112h10v23H74z"/><path fill="#c2d3d9" d="M113.7 185h-6.4l4.1-26.3-35.6-58.2z"/><path fill="#444a53" d="M185.1 12.9l-.7-3 20.8-16.7-23.7 39.1z"/><path fill="#b5d4ff" d="M199 3l19-19 50 28z"/><path fill="#19272c" d="M130.5 163.5L105.1 118l6.9 57.7 36.7-12z"/><path fill="#607589" d="M180.4 180.3l-13-9.4 24.2-33.2 13 9.4z"/><path fill="#cfecff" d="M197 71l-1 24 13 1z"/><circle r="1" fill="#bebeac" transform="matrix(5.09279 3.17966 -11.27599 18.06049 161.6 127.3)"/><path fill="#7a4f37" d="M170 76l11 26-22 16z"/><path fill="#0d0f16" d="M28 159h38v11H28z"/><path fill="#baccdb" d="M0 6h49v95H0z"/><circle cx="151" cy="29" r="11" fill="#533627"/><path fill="#e3e6e6" d="M188 120l-2-12 7-5z"/><circle r="1" fill="#072845" transform="rotate(-161.2 126.6 32.8) scale(10.94738 6.94756)"/><path fill="#1d1f22" d="M47 129l-6-12 27-13z"/><path fill="#0f1e25" d="M22.8 154.2L6 148.8l-22 29.8 32.2-14.9z"/><path fill="#a08067" d="M211 107l-11 13 34 13z"/><path fill="#1b2025" d="M128 111l50-39-46-25z"/><ellipse cx="120" cy="48" fill="#a9cff9" rx="5" ry="15"/><ellipse cx="88" cy="163" fill="#74705c" rx="7" ry="9"/><path fill="#e09f71" d="M166 90l-11 22-4-19z"/><path fill="#4d4236" d="M193.1 71l22.1-24.6L225 55l-22.1 24.5z"/><path fill="#b9ad99" d="M245 92l16-4-16 29z"/><path fill="#a2bdda" d="M137.8 34.7L157.1-16 95.4 32.7l53.7 21.4z"/><path fill="#c7c1b1" d="M177.8 163.9l7.3-27.2-19.1 17 .3 7.3z"/><path fill="#a7bed5" d="M78.1 4.9l27.8 77.7L53.8 77l-57-31.4z"/><path fill="#e2f2f6" d="M129 159l11-10 3 14z"/><path fill="#081421" d="M229.2 19l-17 2-1.4-12 17-2z"/><path fill="#041822" d="M206.5 185.4l-4.7-29.7 19.7-3 4.7 29.6z"/><path fill="#686451" d="M153.3 149l10.2-16.2 11.9 3.9-12.9 26.4z"/><path fill="#b9ccdb" d="M74.5 108.4l11.4 8 10.7-45.8-31.5 39.6z"/><circle cx="190" cy="94" r="6" fill="#6e4f20"/><path fill="#645d4a" d="M48.9 132.2l-.7-.7 71-61.7.6.7z"/><ellipse cx="184" cy="43" fill="#a9c5e4" rx="26" ry="16"/><path fill="#857b66" d="M159.6 37.5l43.4-35L171.9 25l-.6-9z"/><path fill="#061019" d="M-13.1 121.1l9.9 11 26.5-7.4-5.7 15.2z"/><path fill="#dea885" d="M10.2 139.8l18.9 8.3-17.3 1.7-8.9-5.2z"/><path fill="#d5f2ff" d="M179 85h4v16h-4z"/><circle r="1" fill="#ac7750" transform="rotate(30.5 -43.6 429.8) scale(9.01464 9.90724)"/><path fill="#d1e3ef" d="M.5 122.6l-6.9-4 14-23.2 6.8 4z"/><path fill="#82634b" d="M156.9 34.5l-18.5-12.4 5.4 25.4 10.9 14.4z"/><path fill="#2e2d2d" d="M38 127l12-28-15 5z"/><path fill="#d79872" d="M61.8 81l8.7 7.9-5.4 13.9-17.3 9z"/><path fill="#3c423c" d="M208.8 91.5l62.2 45.8-61.3-16.9 30.7-22.7z"/><path fill="#3c373b" d="M80.6 81.7L38.4 133l38.5-39.3-10.5-16.1z"/><path fill="#273a4a" d="M185 129l15-22 3 45z"/><circle r="1" fill="#7d7a7c" transform="matrix(14.86902 32.41205 -3.96545 1.81915 206.5 24.2)"/><path fill="#a5bed6" d="M208.8 3.1l-53.1 53.3 47.8-2.5-16.1 39.5z"/><circle r="1" fill="#acc8e8" transform="matrix(-5.4222 15.2273 -12.46172 -4.43742 163.8 2.8)"/><path fill="#58413f" d="M36.7 158.1l80.7 26.9-75.8-39.6-13.9 7.8z"/><path fill="#2e393d" d="M108 156.5l17.6-15-18.8-33.3-2.2 27z"/><path fill="#83807f" d="M35 124l-2-15-10 32z"/><path fill="#665137" d="M108 64h25v17h-25z"/><path fill="#cdd5b4" d="M179 122l-17 3 12-20z"/><path fill="#dcb69f" d="M52.8 135l-9.6-.7-21.3 17 29.4-13.2z"/><path fill="#101620" d="M145.6 61.5l-4.7 8.8-18.5-9.8 4.7-8.8z"/><path fill="#7f8682" d="M77.2 120.9l19.2-30.3-9.7 15.7 44.9-44.1z"/><path fill="#b6cbe0" d="M171.2 76.8l9.1 25.8 8.6-25.7L215 97.1z"/></g></g></svg>