<svg xmlns="http://www.w3.org/2000/svg" viewBox="0 0 1800 1200"><defs/><filter id="a"><feGaussianBlur stdDeviation="12"/></filter><rect width="100%" height="100%" fill="#334c64"/><g filter="url(#a)"><g fill-opacity=".5" transform="translate(3.5 3.5) scale(7.03125)"><ellipse cx="82" cy="73" fill="#fff" rx="183" ry="75"/><circle r="1" fill="#e4ffff" transform="rotate(174 44 35.3) scale(116.55104 74.47567)"/><circle r="1" fill="#f4ffff" transform="rotate(-112.4 154.6 -31.2) scale(56.34569 21.36591)"/><path d="M271 7.9L181.2-16l-1 31 68.7 44.9z"/><circle r="1" fill="#955f23" transform="matrix(29.93202 -38.57474 18.5821 14.41876 191.8 138.5)"/><circle r="1" fill="#516b74" transform="matrix(-116.28989 12.1507 -2.74636 -26.28445 45.9 169)"/><circle r="1" fill="#94c5ee" transform="matrix(111.55766 23.91589 -8.77945 40.95249 79.9 12)"/><path fill="#ffe5a1" d="M224.6 130.5l34.8-12.2L271 94.9l-112.2 52.9z"/><path fill="#3b2812" d="M188 177l-4-94 38 85z"/><ellipse cx="55" cy="101" fill="#eaf1e5" rx="89" ry="40"/><circle r="1" fill="#cdeffe" transform="rotate(95.4 67.4 128.2) scale(41.01978 11.95516)"/><path fill="#e4ddbe" d="M0 114h170v27H0z"/><path fill="#1b332a" d="M171.3 7.4L271-12.4l-8.5 94.1-30-36z"/><path fill="#2d2631" d="M205 95h17v26h-17z"/><circle r="1" fill="#58392e" transform="matrix(1.80507 -.36397 10.14449 50.31105 177.8 54)"/><circle r="1" fill="#1c3d56" transform="matrix(-100.96933 -2.9967 .11952 -4.02709 46 145.5)"/><path fill="#ddb881" d="M184.4 185l-22.6-50-13.9 34.5 27.1-20.8z"/><ellipse cx="228" cy="150" fill="#201d19" rx="54" ry="9"/><path fill="#757566" d="M152.9 115.6L167 92.8l6.4 29.6-37.1-37.6z"/><path fill="#d2e8e7" d="M238.4 144.3l30-70.2-76.9 28.1 14.2-47z"/><circle r="1" fill="#c7e4f5" transform="rotate(-91.2 81.7 -14) scale(30.83466 81.94313)"/><circle r="1" fill="#676051" transform="matrix(-1.0397 -4.26558 30.36432 -7.401 240.4 130)"/><circle r="1" fill="#b3a27b" transform="matrix(1.38908 -4.16692 43.77578 14.59304 39 169)"/><ellipse cx="119" cy="142" fill="#1f3f55" rx="42" ry="2"/><path fill="#9ec8e6" d="M-16-14L-2 89 127-16z"/><path fill="#effef6" d="M159 85l21 7 7 35z"/><circle r="1" fill="#5f6660" transform="rotate(64.7 5.4 178.2) scale(79.36646 1)"/><path fill="#141b26" d="M161.3 124.3l23.9 2.5-.5 5-23.9-2.6z"/><path fill="#402e0b" d="M147.2 103.8l-6.6-4.5 6.2-9.1 6.6 4.5z"/><path fill="#d2a55f" d="M158.4 153.5l-4.2-10.2 71.4-28.8 4.2 10.2z"/><circle r="1" fill="#2b2e27" transform="matrix(10.68798 23.2382 -.90851 .41785 172.1 117.8)"/><circle cx="188" cy="104" r="6" fill="#800700"/><ellipse cx="211" cy="60" fill="#aed6ed" rx="31" ry="18"/><circle cx="229" cy="19" r="25" fill="#182e2f"/><path fill="#81807a" d="M173.8 179.5l-2.2-15.8 36.6-5.2 2.2 15.8z"/><path fill="#54000a" d="M186.6 145.8l-1.3 12.8L194 185l-23.3-43.6z"/><path fill="#d1ecfa" d="M249.6 57.4l14.1-8.5-11.7 72.4 19-48.1z"/><path fill="#111410" d="M243 131h3v39h-3z"/><path fill="#48677e" d="M66 142h91v24H66z"/><path fill="#b1bdc3" d="M174.2 135.6l-16.1-8.1 29.5 43.9-15.9 2.8z"/><path fill="#ffae00" d="M161 146h5v17h-5z"/><path fill="#615d4f" d="M215 105l-36 19 18 17z"/><path fill="#cee3e7" d="M182.2 43.1l12.8 66.8 19.9-18.4 56.1 45.8z"/><path fill="#4a382c" d="M179.3 59.2l-3.5-35.7-5.1-11-.5 2.7z"/><ellipse cx="62" cy="7" fill="#99c1e0" rx="109" ry="19"/><circle r="1" fill="#252718" transform="matrix(-16.77618 -8.35722 5.53673 -11.11436 218.1 153.3)"/><path fill="#291509" d="M161 185l13-4-5-41z"/><circle cx="179" cy="116" r="6" fill="#fafff4"/><path fill="#536a78" d="M246.6 185l-2.6-32.7-27.6-13.1 45.6 3.5z"/><circle r="1" fill="#e8edde" transform="rotate(137.9 44.8 85) scale(15.20604 24.64468)"/><ellipse cx="77" cy="135" fill="#cccab9" rx="108" ry="6"/><ellipse cx="45" cy="146" fill="#2e4b60" rx="102" ry="5"/><circle r="1" fill="#bcdaea" transform="matrix(9.52429 22.3963 -73.84689 31.40423 47.4 57)"/><path fill="#cccbbc" d="M241.4 143.3l3.2-11.8L234 130l2.6 11.9z"/><path fill="#262925" d="M226-16l-4 56-53-37z"/><path fill="#658eac" d="M49.9 185l-15.7-8.1 17.7-9.5-42.8-19z"/><circle r="1" fill="#12100f" transform="matrix(-28.53431 -25.2594 2.3672 -2.67412 222 21.4)"/><circle r="1" fill="#a0c7e2" transform="matrix(-17.45852 -22.39561 7.71082 -6.01098 192 35.5)"/><circle cx="190" cy="113" r="5" fill="#760600"/><path fill="#0e1518" d="M247 122.2l16.8 2.7-.8 4.9-16.8-2.7z"/><path fill="#edf9f3" d="M155 107l-2-25 12 22z"/><circle cx="181" cy="139" r="4" fill="#fffe6f"/><circle r="1" fill="#213f41" transform="matrix(13.79406 -11.37095 43.24794 52.46394 232.9 0)"/><path fill="#68707c" d="M242 46h10v12h-10z"/><path fill="#18180f" d="M205 105l6-10 11 2z"/><path fill="#f9c674" d="M211 119h20v11h-20z"/><path fill="#cae3ee" d="M187 98l-23-5 6-70z"/><circle r="1" fill="#cde0de" transform="rotate(-120.9 150.9 -17) scale(16.62796 21.02732)"/><path fill="#e9f0e0" d="M169 125l-2-16-29 4z"/><circle r="1" fill="#ddebea" transform="rotate(162.8 43.8 56.4) scale(43.04991 22.51555)"/><path fill="#5e594a" d="M152-16l43 24-17 2z"/><path fill="#283238" d="M166.6 106.2l.2 1-17.4 4.6-.2-1z"/><path fill="#b7d9e9" d="M271 86l-85-7 25-43z"/><ellipse cx="197" cy="107" fill="#e6f7f1" rx="3" ry="9"/><path fill="#2f3c41" d="M20.7 175.1l68.6 9.9 39-22.2-71.5 5.4z"/><path fill="#353a34" d="M203.1 134.5l-5.5-10.9 33.7 33.1-50.6-9.2z"/><path fill="#3f3429" d="M171.3 16.2l7.3 27-2 .6-7.2-27z"/><path fill="#5a7688" d="M159 171l-16-20-58 6z"/><path fill="#b87e26" d="M46.3 185l2.2-11.3-53.8-18.4-6.4-12.3z"/><path fill="#687f84" d="M211 167h31v3h-31z"/><path fill="#867e6f" d="M155 124h3v46h-3z"/><path fill="#ffffe2" d="M248 129h4v12h-4z"/><path fill="#0b1018" d="M181.5 134.5l-.9.4-20.1-41.4.9-.4z"/><path fill="#e47900" d="M167 158l-6 6 5-22z"/><path fill="#586476" d="M185.5 125.1l18.7-17.5 23.7 11.3-6-9.8z"/><path fill="#232d34" d="M235 127h21v2h-21z"/><path fill="#4c464f" d="M156 126h33v2h-33z"/><circle r="1" fill="#557d94" transform="matrix(-4.38916 1.49204 -1.94053 -5.7085 237 165.1)"/><path fill="#575a5b" d="M210 129l38 19-24-3z"/><path fill="#517692" d="M.5 153.7l22.8-2 25.9 9-18.6 5.2z"/><circle r="1" fill="#1a2e2f" transform="rotate(-45.8 130.2 -228.7) scale(5.14831 22.06967)"/><path fill="#accfe3" d="M232 45l39 47-75-52z"/><path fill="#bfa069" d="M212.8 119.5l26.6-7.1-56.2 19.6 1.8-3.8z"/><path fill="#2e4140" d="M186.8 1.2l83.4 84.2-60.4-76.5-6.7 1.6z"/><path d="M230 155l4-8 6 6z"/><ellipse cx="243" cy="160" fill="#0b0a05" rx="2" ry="23"/><path fill="#3d0817" d="M178 156.4l-3.4-15.6 23.3 44.2-13.1-15.9z"/><path fill="#9ac3e2" d="M174 12l-16-28L97 4z"/><path fill="#40617c" d="M168 162v17h20z"/><path fill="#cbdede" d="M201.4 64l15.7 28.7 25.7 35.6 28.2-27z"/></g></g></svg>