<svg xmlns="http://www.w3.org/2000/svg" viewBox="0 0 1800 1200"><defs/><filter id="a"><feGaussianBlur stdDeviation="12"/></filter><rect width="100%" height="100%" fill="#4a382d"/><g filter="url(#a)"><g fill-opacity=".5" transform="translate(3.5 3.5) scale(7.03125)"><circle cx="134" cy="49" r="184" fill="#c3cbb4"/><ellipse cx="31" cy="105" fill="#50482b" rx="129" ry="42"/><circle r="1" fill="#d0d2d2" transform="matrix(21.62347 59.61106 -14.6421 5.31131 197.5 35.5)"/><circle r="1" fill="#d6d2d3" transform="matrix(4.05877 39.27593 -23.02022 2.3789 14.6 12.6)"/><ellipse cx="99" cy="22" fill="#eac9c7" rx="15" ry="53"/><ellipse cx="155" fill="#e3b9b8" rx="15" ry="80"/><circle r="1" fill="#54612c" transform="matrix(21.22433 -1.03804 3.12473 63.8897 59.8 0)"/><path fill="#b1b3b6" d="M89 146l134 7-146 32z"/><path fill="#4f320b" d="M209.3 125.1l.4 19-43 .8-.4-19z"/><circle r="1" fill="#99aab6" transform="matrix(21.60646 -5.61183 14.57232 56.10576 235.6 169)"/><ellipse cx="64" cy="151" fill="#383646" rx="9" ry="110"/><path fill="#5b812a" d="M168 23h23v44h-23z"/><ellipse cx="128" cy="21" fill="#4f803c" rx="14" ry="110"/><circle r="1" fill="#aea6c4" transform="matrix(13.2937 -.68997 2.46732 47.53775 255 63)"/><circle r="1" fill="#d2d2d9" transform="matrix(42.9598 13.07792 -2.87598 9.44733 149 0)"/><circle r="1" fill="#96a4b3" transform="matrix(11.2534 -20.21836 28.51886 15.8734 16.2 169)"/><path fill="#bfb2b8" d="M203.9 89.1l37.4-77.5L229.4 5l-50.3 78.3z"/><circle r="1" fill="#5c738b" transform="matrix(14.01177 -10.3548 26.31686 35.61112 237.6 111.8)"/><path fill="#e7f0fb" d="M67 7l4 12-17-9z"/><ellipse cx="176" cy="107" fill="#89734a" rx="33" ry="26"/><circle r="1" fill="#957d5a" transform="rotate(-78.6 104.8 -8.6) scale(32.73386 22.31275)"/><path fill="#55604c" d="M227 36h14v75h-14z"/><path fill="#462529" d="M114 116h38v13h-38z"/><circle r="1" fill="#bc9877" transform="matrix(-9.02149 10.05388 -22.80562 -20.4638 159.4 63)"/><path fill="#201c0b" d="M113.4 7.7l1-4.8 32.2 7.4-1 4.8z"/><path fill="#afa899" d="M195 146h61v24h-61z"/><path fill="#b68879" d="M16 34l50 23-82-2z"/><circle r="1" fill="#847f93" transform="rotate(23.3 56 572.8) scale(26.25499 18.00431)"/><path fill="#b19f92" d="M110 130h44v8h-44z"/><circle r="1" fill="#7c6e56" transform="matrix(-25.76104 19.27264 -7.7192 -10.31798 162.3 132.9)"/><path fill="#d3ddd6" d="M193 46h22v25h-22z"/><path fill="#713820" d="M215.3-10.4l52 25.4-2.6 5.4-52-25.4z"/><path fill="#bdd2da" d="M11 38l-27-15 28-39z"/><path fill="#cc9f91" d="M113 71L68 61l45-23z"/><path fill="#7f9fb8" d="M210.4 134.8l32.7-7.2-20.4-11.1-13.8-44z"/><circle r="1" fill="#5f4c31" transform="matrix(-44.25613 -12.69024 4.68614 -16.3425 0 122)"/><path fill="#3b2201" d="M177 134h27v9h-27z"/><path fill="#809b56" d="M125 18h17v69h-17z"/><path fill="#b9c0c3" d="M107 54l-22-7 15-63z"/><path fill="#756750" d="M-4 54l67 8-32 72z"/><path fill="#817968" d="M197 166l-54-57 34 76z"/><circle r="1" fill="#d49d94" transform="matrix(-24.40983 -5.27754 1.06141 -4.90927 179.7 78.6)"/><path fill="#768a51" d="M167 25h25v51h-25z"/><circle r="1" fill="#5b592c" transform="rotate(138.5 23.7 20.8) scale(8.01589 17.58197)"/><path fill="#488049" d="M115 80h31v36h-31z"/><path fill="#5d6157" d="M271 31.2l-20 2.9-54.8-37.5 17.4 25z"/><circle r="1" fill="#827c6d" transform="matrix(-3.52867 8.77783 -14.43866 -5.8043 224.2 147.7)"/><path fill="#90889a" d="M215 22h10v96h-10z"/><ellipse cx="110" cy="16" fill="#ba8a6f" rx="4" ry="85"/><path fill="#b9c5e8" d="M154 30h11v16h-11z"/><path fill="#bfbebd" d="M71 30l-7 11-5-3z"/><circle r="1" fill="#adb2b3" transform="matrix(1.49171 12.50987 -24.43165 2.9133 120.3 167.9)"/><path fill="#c3b8b4" d="M207 28l-30-44-65 14z"/><path fill="#59453b" d="M53 41h18v23H53z"/><path fill="#7a6a4d" d="M70 76h39v72H70z"/><path fill="#5e5a6b" d="M69.1 55.8l-21.2 83.5 1.7-82.9 13-3.1z"/><path fill="#476771" d="M241 117h15v27h-15z"/><path fill="#a693a9" d="M224.6 18.6l17.6 5 28.8-.1-63.9-28.9z"/><path fill="#b58d6e" d="M139 41.6l34-32.1-6.3 17.6-23-20.8z"/><path fill="#bd9089" d="M143.7 8.4l2.1 70 59.8 1.1-36.8-9.2z"/><path fill="#ad9fa2" d="M251.9 125.5l7-89.5-37.5-14.4 22 25.5z"/><path fill="#d9c498" d="M265.3 11.7l-5 4.9-21.6-22.3 5-4.9z"/><path fill="#a5a7a6" d="M162 147h39v7h-39z"/><path fill="#3f5d3f" d="M115 .5h4v113h-4z"/><path fill="#608846" d="M38 0h12v48H38z"/><ellipse cx="168" fill="#999e66" rx="2" ry="71"/><path fill="#86998b" d="M140 25l-13 7-10-20z"/><path fill="#739348" d="M83.5 56.9l-14.4-7.3 11.4-35.5 4.4-24.7z"/><path fill="#666662" d="M16-3.4h1l-5 56.8h-1z"/><ellipse cx="50" cy="169" fill="#6a7872" rx="7" ry="35"/><path fill="#817356" d="M152 129l-9-52 26 4z"/><path fill="#b9ad9c" d="M32.5 64.1l7.4-69.5L26.1-15 21.4 7.4z"/><path fill="#565b3f" d="M230 68l-9-37 10 14z"/><path fill="#655137" d="M73 139h95v3H73z"/><path fill="#aecee3" d="M143.4 9.2l5.8-23.3 19.4 4.9-5.8 23.3z"/><ellipse cx="180" cy="50" fill="#aabc71" rx="2" ry="23"/><ellipse cx="65" cy="124" fill="#3b3a40" rx="5" ry="34"/><path fill="#a69d9c" d="M119.4 131.2l.4-4 40.8 3.6-.4 4z"/><path fill="#525e3c" d="M182 28h7v31h-7z"/><path fill="#c5c5c1" d="M193 28h21v44h-21z"/><circle r="1" fill="#4a5328" transform="matrix(-8.43284 -.3286 .40279 -10.33685 72.9 0)"/><path fill="#575751" d="M194.6 167.6l-12 12-9.2-9.2 12-12z"/><circle r="1" fill="#867d55" transform="matrix(-35.67464 -13.1711 .34635 -.9381 109 18.3)"/><path fill="#768f4a" d="M136 44l13 40-14 28z"/><path fill="#545334" d="M43 22l36 12-2-17z"/><path fill="#535356" d="M51 89l-7 50 23-15z"/><path fill="#4d88ac" d="M225.4 18.1l.8-1.8L274.6 38l-.8 1.8z"/><circle r="1" fill="#bac2b7" transform="matrix(-.48663 1.91851 -9.51996 -2.41471 60.9 10.3)"/><path fill="#c3a28f" d="M209.4 74.1l-5.1-49.5-.1 65.3-38.8-15.3z"/><path fill="#827557" d="M71 70h43v53H71zm76 46h62v15h-62z"/><path fill="#6b4d20" d="M52.1 38.1l-.2-14 12-.2.2 14z"/><path fill="#afada3" d="M202.8 179.3l-6.4-21 24.8-7.6 6.4 21z"/><circle r="1" fill="#57503f" transform="matrix(-14.80412 55.29664 -5.37507 -1.43902 0 124.5)"/><path fill="#bdc3c0" d="M103.7 64.7l-26.2-6.5.8-3 26.2 6.6z"/><path fill="#7f8489" d="M123 185l-44-36-17 35z"/><path fill="#c38c7e" d="M10 52l40-4-2 13z"/><path fill="#91a3a8" d="M211 114l40 9-36 18z"/><path fill="#8c8577" d="M52.8 141.2l.3 5-37.9 2.6-.3-5z"/><path fill="#626c72" d="M18 163l-8-9 19 4z"/></g></g></svg>