<svg xmlns="http://www.w3.org/2000/svg" viewBox="0 0 1800 1200"><defs/><filter id="a"><feGaussianBlur stdDeviation="12"/></filter><rect width="100%" height="100%" fill="#324867"/><g filter="url(#a)"><g fill-opacity=".5" transform="translate(3.5 3.5) scale(7.03125)"><ellipse cx="124" cy="20" fill="#fff" rx="255" ry="33"/><circle r="1" fill="#ffffdf" transform="matrix(-137.45944 -10.33563 2.56566 -34.12216 137.3 168.8)"/><circle r="1" fill="#ebece9" transform="rotate(-6.2 183.6 -575.6) scale(107.68933 36.0175)"/><circle r="1" fill="#280d0d" transform="matrix(16.34925 17.96099 -7.9835 7.2671 173.6 34.5)"/><circle cx="46" cy="104" r="55" fill="#5a6f87"/><circle r="1" fill="#e6d1bf" transform="rotate(21.2 -331.1 529) scale(57.48215 20.82084)"/><ellipse cx="188" cy="103" fill="#1b1000" rx="47" ry="16"/><path fill="#84807b" d="M114.5 81l3.5-33.8 93.5 9.8-3.5 33.8z"/><circle r="1" fill="#c9d2d6" transform="matrix(-11.64465 25.06654 -47.19411 -21.924 221.7 19.8)"/><path fill="#6f6054" d="M162.2 149.5l-20.5 2.1 30.4-43.7 45.1 5.8z"/><circle r="1" fill="#40546c" transform="matrix(2.18263 19.9151 -80.15538 8.78477 60.6 125.8)"/><path fill="#e2e0da" d="M145 154h100v16H145z"/><path fill="#d8d4d6" d="M40.6 157.2l100-13.5-80.1 2.7L-16 149z"/><path fill="#efb8ae" d="M176 31l-13 45-3-35z"/><ellipse cx="148" cy="77" fill="#fabe93" rx="16" ry="4"/><path d="M184.7 31.1l-33.3.8 12.3-13.3 20.8 7.6z"/><circle r="1" fill="#191306" transform="matrix(-14.03333 23.9908 -10.52535 -6.15677 164 100.5)"/><path fill="#52595c" d="M229.9 81.7l47.8 14.6-19.6 64-47.8-14.6z"/><path fill="#37567a" d="M60 52h103v24H60z"/><path fill="#ccd5da" d="M85 51l77-2-14-18z"/><ellipse cx="55" cy="143" fill="#15253e" rx="34" ry="3"/><path fill="#c9946b" d="M144.6 129.3l14.1-3.7 16-7.1-7.1 19.1z"/><path fill="#888a84" d="M146.8 111l-56.4-8 .8-6 56.4 8z"/><ellipse cx="19" cy="73" fill="#4b6684" rx="96" ry="22"/><path fill="#cacfd1" d="M167.2-1.1l82.2 22.9-74.6-5L113 29.4z"/><circle r="1" fill="#f8f8f2" transform="matrix(33.69903 14.10723 -1.84916 4.41724 163.2 164.5)"/><path fill="#59606a" d="M221 66.3l30.8 15.8-87.4-4.1 8.5-46.7z"/><path fill="#f0efe5" d="M124 124l12 30-20-10z"/><path fill="#0a1214" d="M243 109l-74-7 50-17z"/><path fill="#af9d92" d="M185 181l-93-48-15 40z"/><path fill="#8e897a" d="M247.3 125.8l-5.8-23.7 14.3 23.9-13.5 38z"/><path fill="#2f4663" d="M95.1 127.7l17.1 17 8.4-32.9L39 101.5z"/><path fill="#5d4438" d="M140 144h25v7h-25z"/><circle r="1" fill="#dcdede" transform="matrix(-3.13118 -13.09991 57.12848 -13.65501 28.3 11)"/><circle r="1" fill="#74787d" transform="rotate(-171.6 114.1 70.6) scale(62.69582 1.26468)"/><path fill="#3a5067" d="M179 112h63v31h-63z"/><path fill="#173351" d="M122 121l32 11-19-1z"/><path fill="#e5ae82" d="M151.4 83.4l-15.6-3.7-3.9-8.3 30.1 9.2z"/><path fill="#a3b2bf" d="M199 36h57v16h-57z"/><ellipse cx="75" cy="103" fill="#aaa9a1" rx="70" ry="1"/><path fill="#4f6580" d="M-8 148l14-38 115 21z"/><path fill="#c8a69f" d="M167.5 74.3l-14.3-37 47.4-6.6-30.1 3z"/><circle r="1" fill="#c0ada2" transform="rotate(-3.7 2587 -515) scale(69.24709 7.69232)"/><circle r="1" fill="#818685" transform="rotate(-83.2 58 36.5) scale(1.48629 81.28659)"/><path fill="#4f5251" d="M185.5 83.6l-12.1-37.3-4.7 30.9L53 113.8z"/><path fill="#bfc8cf" d="M199.5 50.6l-16.7-18.5 9.7-8.7 16.7 18.5z"/><path fill="#bdc5cc" d="M157.5 22.9L189 .2 36.5 7l111.1 39.8z"/><path fill="#24241b" d="M156.6 23.2l12.8-5.4 13.5 9-31 11.6z"/><circle r="1" fill="#686d74" transform="matrix(5.72506 10.8919 -12.87781 6.7689 201.3 80.2)"/><path fill="#0e0f0b" d="M174.7 108.7l1.8 12.1L154 114l-.2 12.2z"/><path fill="#385372" d="M61 51h99v14H61z"/><ellipse cx="92" cy="154" fill="#6a6565" rx="31" ry="2"/><path fill="#dab08c" d="M163 116h4v22h-4z"/><path fill="#77747a" d="M39.1 162l-48.7-5 .5-5 48.7 5z"/><path fill="#2f4865" d="M231 57.6l-40.6-7.2L235 93.1l-17.3 32.2z"/><path fill="#9d9e94" d="M176 113h4v44h-4z"/><ellipse cx="21" cy="149" fill="#e2e2e0" rx="43" ry="2"/><path fill="#73523f" d="M166 150l-18-5 12-17z"/><path fill="#b2afa1" d="M47 80h74v1H47z"/><path fill="#8f8e83" d="M186.1 113.2l20 1.8-10-2.8-36.2-6.4z"/><path fill="#454548" d="M43 173l-46 12-7-22z"/><path fill="#b4a79e" d="M117 122l32 20-10 9z"/><path fill="#fef2e2" d="M231 156.8l-26.4-5.6.4-2 26.4 5.6z"/><path fill="#1d2d43" d="M246 138l-5 15-29-9z"/><path fill="#a33f51" d="M160.6 52.3l14-19.8 14.8 4.6-24.7 2.2z"/><path fill="#858785" d="M271 129.6l-53.6-8.1 53.1 2.5-54-9.3z"/><path fill="#4a6179" d="M128.4 73.7l24.8 17.9-3.6 7.1-53-5.6z"/><path fill="#2c425f" d="M187 114l41 33-48-8z"/><path fill="#111f2a" d="M20 101l-29.8 3-.3-3 29.9-3z"/><path fill="#86a2be" d="M175.8-11.4l56.7 12-2.3 10.8-56.7-12z"/><path fill="#344760" d="M46.5 146.2l-44.2 2.1 78.3-16.4 5.3 4.6z"/><path fill="#b6bfc7" d="M29 36h125v16H29z"/><path fill="#102845" d="M77 100h35v3H77z"/><ellipse cx="14" cy="134" fill="#768ba7" rx="47" ry="2"/><path fill="#bed1c9" d="M169 44l1 17-11 18z"/><path fill="#acaa9a" d="M214 71h15l-4 4z"/><path fill="#838f9d" d="M15.9 157.6l-31.9-3.7 39.4-14.5-39.4.6z"/><path fill="#e9e3da" d="M221 162h35v4h-35z"/><path fill="#55667c" d="M198.1 48.4l21.3 37.1-51.2-33.9 8-12.2z"/><circle r="1" fill="#253d59" transform="matrix(.19864 4.438 -14.32337 .64109 47.4 86)"/><path fill="#0b0d0e" d="M165 85l28.7 8.7L189 109l-28.7-8.7z"/><path fill="#1b2f48" d="M23 128h34v4H23z"/><path fill="#be8475" d="M183 46l-14-13-18 1z"/><path fill="#0d1111" d="M152 90h11v35h-11z"/><path fill="#1e334b" d="M42.6 105.8l24.9 4.6 38 5.8 10.9-8.2z"/><path fill="#090f16" d="M169.5 17.7l14.8 13.2-21.1 1.2.7-13.1z"/><path fill="#253c53" d="M230 52h26v25h-26z"/><path fill="#918779" d="M103.4 150.8l-27-23.2 26.9 8.1-6.3 10.1z"/><path fill="#eeede6" d="M114 136l26 5-8 8z"/><path fill="#6b7e93" d="M81.1 87.5l5.7 10.1 41.2 6.2-72.5-13.5z"/><path fill="#b4b0ab" d="M149.6 144.7l36.4-3.1 40.1 7.5-37.5-3.5z"/><path fill="#bdb69e" d="M269.5 86l-.3.9-28.7-8.8.3-1z"/><circle r="1" fill="#7a7e7c" transform="rotate(-175.3 24.1 49.1) scale(104.6764 1)"/><path fill="#766f68" d="M136.6 72.1l63.3 22.3-12.7-38.1-10.4 26.2z"/><circle r="1" fill="#bdc3c8" transform="matrix(-60.85551 18.95899 -3.90192 -12.5246 244.8 14.2)"/><path fill="#767a7b" d="M135 139l-11-4 16-1z"/><path fill="#2d2e2d" d="M176.9 52.1l2.4 48.1V79.8l-6.2-.7z"/><path fill="#958266" d="M144 97l2-26 5 25z"/><path fill="#3c3d39" d="M148.6 89l-13.7 44.8-8.6-9.2L176.7 77z"/><path fill="#b5ad9f" d="M240.5 179.6l8-57.4 1 .2-8 57.4z"/></g></g></svg>