<svg xmlns="http://www.w3.org/2000/svg" viewBox="0 0 1440 1440"><defs/><filter id="a"><feGaussianBlur stdDeviation="12"/></filter><rect width="100%" height="100%" fill="#493d27"/><g filter="url(#a)"><g fill-opacity=".5" transform="translate(2.8 2.8) scale(5.625)"><ellipse cx="165" cy="56" fill="#bed6d7" rx="104" ry="145"/><path fill="#eacbba" d="M12 162l48 96 85-159z"/><path fill="#fff" d="M30 9h105v36H30z"/><circle r="1" fill="#070500" transform="matrix(-78.84855 -30.1569 5.92101 -15.48114 86.2 71.2)"/><circle r="1" fill="#fff" transform="rotate(-5.6 650.7 -2061.1) scale(51.96659 15.54429)"/><circle r="1" fill="#a1b9c6" transform="matrix(31.66052 -30.58637 12.58105 13.02288 178.4 239.8)"/><path fill="#0f1404" d="M134 6h85v33h-85z"/><circle r="1" fill="#fff" transform="matrix(-22.74879 -14.37024 16.22259 -25.68115 109.3 37)"/><circle r="1" fill="#455332" transform="rotate(108.1 53 161.7) scale(42.48112 41.95552)"/><path fill="#000600" d="M165 25l-51 55 24 32z"/><path fill="#050b02" d="M187.1 78.1L271 58.8 231 14l40 70.3z"/><circle r="1" fill="#e0ecee" transform="rotate(-36 223.6 -108.5) scale(18.54003 28.29494)"/><circle cx="124" cy="194" r="40" fill="#3b5d6b"/><ellipse cx="189" cy="93" fill="#dee4e6" rx="13" ry="58"/><path fill="#e8eade" d="M155.8 32.3l2-22.8 27.6 4.6 3.2 11.2z"/><circle r="1" fill="#bec1b4" transform="rotate(-138.8 18.4 44.2) scale(22.21651 16.35135)"/><ellipse cx="51" cy="69" fill="#221004" rx="41" ry="32"/><circle r="1" fill="#cb734c" transform="rotate(-31.1 321 37.1) scale(22.26932 56.59098)"/><circle r="1" fill="#fff" transform="rotate(14.2 -85.5 950.6) scale(25.92615 14.66534)"/><ellipse cx="205" cy="10" rx="9" ry="39"/><circle r="1" fill="#000001" transform="rotate(134.1 -6 145.4) scale(19.09186 39.75531)"/><ellipse cx="252" cy="127" fill="#fff" rx="4" ry="29"/><path fill="#b8b2a1" d="M69 136l-26 79 65-5z"/><path fill="#fffed1" d="M191 161l-18 28-25-30z"/><path fill="#091100" d="M73.3 27.2l-6-23.1 5.6-11.3 9.2 27.5z"/><circle r="1" fill="#495339" transform="matrix(-51.86426 -20.0783 8.54819 -22.08082 215.2 166.2)"/><path fill="#fff" d="M246.9 18.9l-21-8.9-13.8 57.3 19.3-39z"/><path fill="#ebf8ed" d="M38.4-14.5l19.1 47.3-13.9 5.7L24.5-8.8z"/><circle r="1" fill="#798238" transform="matrix(.9061 -64.49666 16.39866 .23038 24.1 0)"/><path fill="#120f08" d="M131.7 12.9l17.3 44 8.1-37.2L138.5-16z"/><circle r="1" fill="#000003" transform="rotate(-127.5 67 118) scale(56.28927 17.3125)"/><path fill="#fffffc" d="M98.2-33.2l18.2-5.3 23.4 81.7-18.2 5.3z"/><path fill="#eef6f3" d="M175.7 250.7l-28-1.4.6-10 28 1.4z"/><path d="M161 88h25v6h-25z"/><circle r="1" fill="#467083" transform="rotate(28.7 -300 461.7) scale(16.46712 41.77832)"/><path fill="#412219" d="M62 177l-17-3 7-49z"/><path fill="#8b4b39" d="M99 83l-32 43-18-42z"/><path fill="#adc1c5" d="M224.6 217.4l-33.4-12.3 66.4 10.8-16.3-1.1z"/><path fill="#bdcad1" d="M214 82h42v21h-42z"/><circle r="1" fill="#dfe4e3" transform="rotate(-141.5 110.2 26.8) scale(16.49453 10.5874)"/><circle r="1" fill="#242226" transform="matrix(-.52743 4.40765 -44.41402 -5.31473 66.4 131.6)"/><circle r="1" fill="#122526" transform="matrix(-42.66764 21.08766 -6.23684 -12.61928 222.8 238.8)"/><path fill="#242f1b" d="M172.1 79.3l8.4-43.5 65.2-5.9-75.7-3.1z"/><path fill="#d8dcdd" d="M84.5 138.6l-12.9-19 29.9-20.2 12.9 19z"/><path fill="#3f687e" d="M246 148h10v108h-10z"/><path fill="#1c240e" d="M267-3l-62.5 25.9L233.2-.7 262 22.8z"/><path fill="#aebbbc" d="M64.2 167l-8.7-22.5-6.2-10 59.9 11.4z"/><ellipse cx="188" cy="55" fill="#fff" rx="13" ry="20"/><path fill="#fbffff" d="M88.2 56.8l7.7-31 37.9 9.4-7.7 31z"/><circle r="1" fill="#1d3941" transform="rotate(21 -512.6 495) scale(19.29128 44.82231)"/><ellipse cx="220" cy="177" fill="#442e00" rx="13" ry="32"/><path fill="#fff" d="M207.3 78.1l-1.4-30.3 32.8-8.8 9.3 3z"/><path fill="#364131" d="M89.9-7.7L51.6-.1 60.8 63l4.5-50.7z"/><path fill="#465955" d="M151.3 66.7l27.8 90.8-12.4 3.8-27.8-90.8z"/><ellipse cx="250" cy="73" fill="#0e150f" rx="38" ry="9"/><path d="M206.5 32.4L172.6 5.9l5-6.3 33.8 26.5z"/><path fill="#9db6b3" d="M119.2 216.9l-8.4 13.5 7.2 11-24-18z"/><path fill="#4c686d" d="M46 175l139 33-43-54z"/><circle r="1" fill="#592a19" transform="matrix(12.15791 -8.73635 17.47796 24.32316 1 154)"/><path fill="#e9eeef" d="M29.8 43.3l27.4-11.6-6.4-28-8.8 9.6z"/><path fill="#52533c" d="M205 42l6 57-12-22z"/><circle r="1" fill="#3a1811" transform="matrix(51.16815 -14.2864 3.0615 10.96509 34.2 114.8)"/><path fill="#171c07" d="M233.6 30l3.2-6.2L272.4 42l-3.2 6.2z"/><circle r="1" fill="#f4a87a" transform="matrix(-4.8448 -33.62058 7.66179 -1.10408 52.8 203.7)"/><path fill="#c8cfcc" d="M137 106L73 89l56 62z"/><path fill="#c0c2c2" d="M2.9 87.1l-4.7-35.9L19 103.4 7.7 83.6z"/><path fill="#363228" d="M95 212l85 28 4-36z"/><path fill="#0e4540" d="M130 136l20 6-11-28z"/><path fill="#b3b4ad" d="M169 92h-21l-11 14z"/><path fill="#9a8a42" d="M80-9h27l9 34z"/><path fill="#edf0de" d="M215.6-16h-7.3l9.2 25.8 16.9-7.4z"/><path fill="#9f9987" d="M68.3 237.1l42.2-47.1-41.1-25.3 13.9-6.4z"/><path fill="#afb4ae" d="M205.3 206l11 6.6-26 17.4-9.2-16z"/><path fill="#000001" d="M127 289.4l-55.7-51.8 17.8-19 55.6 51.8z"/><path fill="#fff" d="M221.6 17.5l16.5-7 4.3 10-16.5 7z"/><circle r="1" fill="#a19d8c" transform="rotate(4.1 -2040.6 1758) scale(41.05175 12.55502)"/><path fill="#fff" d="M188 96h17v12h-17z"/><circle r="1" fill="#0c0f09" transform="matrix(15.66736 -23.40362 13.17609 8.82062 45.8 61.2)"/><circle r="1" fill="#889192" transform="rotate(165 83.5 79.5) scale(34.30931 7.75911)"/><path fill="#d9aea3" d="M59 117l14-10 10 20z"/><path fill="#434622" d="M-16 99.3L43.2-5l10.4-11-24.2 51.8z"/><path fill="#0e0e0a" d="M41.9 77.1l-30.6 6.4L.1 56.6l85.6 8z"/><path fill="#272b1f" d="M136 91.6L143.7-16l16.5 83.5-2.5-33.1z"/><path fill="#afb1a4" d="M69 43L86-3l5 50z"/><path fill="#c5c8ad" d="M168.1 4.3l71.6-10.1-105.1-3.9 32.8 22.6z"/><path fill="#fffffd" d="M226 26l39 37-56-3z"/><path fill="#e5e9e1" d="M161 19l21-5 10 13z"/><path fill="#fec6a5" d="M53 154l-29 15 12 5z"/><path fill="#cbcbac" d="M151.5 157.4l18.9 34.7 36.6-37.5-11.9 8.1z"/><path fill="#bec4be" d="M149 60l21 24-2-49z"/><path fill="#6db2c8" d="M97 170h62v6H97z"/><path fill="#748975" d="M123 100l-19-25-18 19z"/><path fill="#061000" d="M112 73h28v23h-28z"/><path fill="#c2c3b0" d="M250.4-13.3l-2.8 35.6 23.4 9.9-33.2-4.4z"/><path fill="#916043" d="M34.9 242.5l-1.7-52.7 17.4 33.6-10.9 16.1z"/><circle r="1" fill="#060c05" transform="matrix(129.62399 -11.56863 .12431 1.3929 215.4 203.8)"/><path d="M59 126h19v12H59z"/><path fill="#a26346" d="M51.1 150.1L5.8 128.2l14.1-2.3-12.1 55.9z"/><path fill="#233631" d="M222 72h3v51h-3z"/><path fill="#a4852b" d="M231.5 193.1l-2.8-17.7 15.8-2.5 2.8 17.7z"/></g></g></svg>