<svg xmlns="http://www.w3.org/2000/svg" viewBox="0 0 1800 1200"><defs/><filter id="a"><feGaussianBlur stdDeviation="12"/></filter><rect width="100%" height="100%" fill="#394d61"/><g filter="url(#a)"><g fill-opacity=".5" transform="translate(3.5 3.5) scale(7.03125)"><circle cx="156" r="196" fill="#c7b9a7"/><ellipse cx="193" cy="26" fill="#d2ebfb" rx="155" ry="31"/><ellipse cx="43" cy="84" rx="20" ry="37"/><circle r="1" fill="#2e1c0b" transform="rotate(-91.7 134 16.3) scale(13.97795 93.34147)"/><path fill="#0f0f11" d="M198 162l19-102-47 65z"/><ellipse cx="105" cy="69" fill="#224667" rx="255" ry="13"/><circle r="1" fill="#b68c5c" transform="matrix(144.8036 -22.81161 2.83407 17.99012 37.1 134)"/><ellipse cx="8" cy="53" rx="28" ry="8"/><circle r="1" fill="#d9b488" transform="matrix(40.48863 31.93015 -20.23165 25.65449 255 157.6)"/><circle r="1" fill="#7a93ae" transform="matrix(80.99322 -17.32837 7.62021 35.61705 73.9 9.6)"/><circle r="1" fill="#4a341e" transform="matrix(-24.88395 1.12997 -.56772 -12.50207 20.1 120.7)"/><circle r="1" fill="#cab399" transform="rotate(93.5 8.6 107.7) scale(9.22171 58.77316)"/><ellipse cx="171" cy="153" fill="#2d211b" rx="47" ry="9"/><circle r="1" transform="rotate(-48.1 114.7 -4.6) scale(20.53445 10.15249)"/><ellipse cx="233" cy="36" fill="#d3d8d2" rx="80" ry="21"/><circle r="1" fill="#24221f" transform="matrix(-1.98736 7.52762 -50.26688 -13.27089 141.8 145.9)"/><ellipse cx="100" cy="47" fill="#bdbdb5" rx="51" ry="10"/><path fill="#a28a70" d="M18 149l95-2-51-64z"/><path fill="#b98e5c" d="M0 164h222v6H0z"/><path fill="#caa882" d="M145.5 126.4l29.3-12.3-6.3 29.3-35.9-9.1z"/><path fill="#302a22" d="M0 152h68v12H0z"/><circle r="1" fill="#587c99" transform="matrix(37.0787 18.10153 -8.67382 17.76722 241.3 81.8)"/><path fill="#d7ad7a" d="M23.6 88.4l.1 15.6-39.7 9V80.3z"/><path fill="#c0a788" d="M90 152h51v4H90z"/><path fill="#654f38" d="M27 120l75 1-40-12z"/><path fill="#292924" d="M170.6 119.4l20.5-20.1 37.6 23.1-54.4-4.3z"/><ellipse cx="29" cy="112" fill="#1b1516" rx="20" ry="6"/><path fill="#282424" d="M14 156l60 16-24 13z"/><circle r="1" fill="#c0a787" transform="rotate(-84.6 86 58.6) scale(4.20825 72.40433)"/><path fill="#614d40" d="M181.1 160.9L204 114l5.4 33.1 10 14.7z"/><ellipse cx="144" cy="73" fill="#47657e" rx="78" ry="15"/><path fill="#1f201f" d="M86 142l37-2-1-12z"/><path fill="#baa98d" d="M238.4 129.6l32.6 10.3-70.6-34.3 8-10.1z"/><circle r="1" fill="#00040e" transform="matrix(-5.76826 -18.94461 3.39646 -1.03415 49.2 86.8)"/><path fill="#010101" d="M204 97l-11-13h22z"/><circle r="1" fill="#3d1800" transform="matrix(-6.2086 -.11918 .15128 -7.88075 58.4 64.4)"/><ellipse cx="40" cy="8" fill="#7188a1" rx="49" ry="24"/><circle r="1" fill="#5a6168" transform="matrix(-10.36183 12.47612 -10.45727 -8.6851 25.1 69.5)"/><path fill="#e2af74" d="M11 158h6v12h-6z"/><path fill="#b59c7b" d="M15 124l23-6-36-2z"/><path fill="#1f1b21" d="M71.3 104.2l-11.2 3.5-18.2-13.9-9.1-11.5z"/><path fill="#979495" d="M62.2 100.1L121 88.4l-67.7 6.2 16.5-31.9z"/><path fill="#baa48b" d="M183 143l-57-12 29-11z"/><path fill="#292826" d="M207 135l-48 32-13-16z"/><ellipse cx="61" cy="38" fill="#9ca3a6" rx="51" ry="11"/><circle r="1" fill="#39546a" transform="matrix(22.27538 -3.4841 .91904 5.87582 252.8 83)"/><circle r="1" fill="#a7bbc9" transform="rotate(-12.1 168.5 -878.2) scale(93.2987 20.20152)"/><path fill="#d1b99b" d="M56 110L46 96l2 14z"/><path fill="#b8a488" d="M33 123h82v10H33z"/><ellipse cx="177" cy="52" fill="#d0ccbf" rx="98" ry="5"/><path fill="#464542" d="M85.3 132.3l19.8-1.8-37.7 32.8 27.3-3.9z"/><ellipse cx="7" cy="52" fill="#1d1d22" rx="50" ry="4"/><ellipse cx="177" cy="87" fill="#5f7791" rx="20" ry="16"/><path fill="#344b5d" d="M69.2 75.4l-.4-18 44-.8.4 18z"/><path fill="#bfa17b" d="M165 162h57v8h-57z"/><ellipse cx="255" cy="106" fill="#3c4857" rx="26" ry="3"/><path fill="#956b4c" d="M70 71.4L54.7 84.3l9.8-21.1 5.8-6.5z"/><path fill="#7e95af" d="M216 91h40v13h-40z"/><path fill="#887b76" d="M0 76h30v10H0z"/><path fill="#232527" d="M158 97l50.2 9-.2 1-50.2-9z"/><path fill="#796a55" d="M199.6 98l-3-7.1 21.1 51.9-2.5-28.9z"/><path fill="#b6a289" d="M182 115.6l-89.4-1.8-37.1.1 20.7-23.2z"/><path fill="#d3cfbe" d="M220.9 146.4l-3.4 2.1-14.4-22.9 3.4-2.1z"/><ellipse cx="128" cy="116" fill="#816e5a" rx="53" ry="3"/><path fill="#323f4d" d="M50 155h108v7H50z"/><path fill="#b29c80" d="M47 131h31v19H47z"/><path fill="#383839" d="M45 178l-3-35-27 15z"/><path fill="#85909f" d="M61 87h133v12H61z"/><path fill="#32261b" d="M69.2 121l-8.9 1.8-1.5-7.9 8.9-1.7z"/><path fill="#587489" d="M261 56l-107 5 81 29z"/><path fill="#4e4642" d="M171 129l10 15 28-3z"/><path fill="#27211b" d="M14 154l-27-16-2 37z"/><circle r="1" fill="#3e515f" transform="rotate(-6.7 567.6 -64.7) scale(42.19075 9.35664)"/><path fill="#d2c1a0" d="M212 98l-7 4 17 13z"/><circle r="1" fill="#424a5a" transform="matrix(.19626 -4.00344 20.63715 1.0117 71 80.5)"/><path fill="#6d5f51" d="M47.9 165.4l-15.8 13 16.8 6.6 47.4-14.6z"/><path fill="#9e886e" d="M124.9 154.5l3.5.5-18.4-12.8-57.1-1.4z"/><circle r="1" fill="#5f7590" transform="matrix(-60.03049 37.29742 -7.23948 -11.652 0 10.5)"/><path fill="#302920" d="M4.6 129.9l-20.6 7.5 23.8-15.1 9.3 2.3z"/><path fill="#060b14" d="M28 83h26v15H28z"/><ellipse cx="194" cy="159" fill="#2f190c" rx="22" ry="2"/><path fill="#a38766" d="M16 122.3l22.4 2-54 20.9 19.5-3.7z"/><path fill="#b7a287" d="M118 163h37v7h-37z"/><path fill="#894f28" d="M211 85h4v16h-4z"/><circle r="1" fill="#8699ac" transform="matrix(49.3224 -20.66553 6.25924 14.93893 76.8 10.5)"/><circle r="1" fill="#172229" transform="matrix(8.81786 -1.30007 1.5239 10.33594 195.4 110.1)"/><path fill="#a58b6c" d="M25.3 99l-33.7 8.4 37.4 1.2 2.2 2.8z"/><path fill="#b1a089" d="M74 163h16v4H74z"/><path fill="#0e0c09" d="M198.1 92.4l2-10.9 11.8 2.1-2 10.9z"/><circle r="1" fill="#9aaab6" transform="matrix(-66.38436 36.47104 -7.52386 -13.69488 123.8 17.3)"/><path fill="#171614" d="M94.9 153.7l-16.6-3.5.8-4 16.6 3.6z"/><circle r="1" fill="#c4cfd2" transform="rotate(49.3 92.5 288.6) scale(24.26261 30.97192)"/><path fill="#262422" d="M94 136h20v6H94z"/><path fill="#b6ab9d" d="M145 104h33v12h-33z"/><path fill="#574534" d="M37.7 169.6l-11.1-14.7-32-15.8 26 7.1z"/><path fill="#675e51" d="M209 123.4l24.7-2.3-28-9.7-13.9 56z"/><circle r="1" fill="#5b6e86" transform="matrix(-56.40333 -5.33168 .46809 -4.95185 129.8 81.3)"/><path fill="#574938" d="M152 117h22v3h-22z"/><ellipse cx="7" cy="114" fill="#1c1a19" rx="28" ry="2"/><circle r="1" fill="#946944" transform="matrix(-2.66139 3.5193 -4.09971 -3.1003 66.4 106.4)"/></g></g></svg>