<svg xmlns="http://www.w3.org/2000/svg" viewBox="0 0 1800 1013"><defs/><filter id="a"><feGaussianBlur stdDeviation="12"/></filter><rect width="100%" height="100%" fill="#594b38"/><g filter="url(#a)"><g fill-opacity=".5" transform="translate(3.5 3.5) scale(7.03125)"><circle r="1" fill="#c1fbff" transform="matrix(-224.16939 23.88128 -6.85519 -64.34848 107 24)"/><ellipse cx="80" cy="62" fill="#e4eeff" rx="134" ry="18"/><circle r="1" fill="#678edd" transform="rotate(1.4 66.7 5371.5) scale(190.81038 59.73667)"/><ellipse cx="207" cy="140" fill="#9e8b7c" rx="71" ry="13"/><path fill="#a6b9e1" d="M30.8 151.5l-57.6-6 2-19 57.6 6z"/><path fill="#bdb3a7" d="M261.2 73.3l-126.1 2.3 35 11.7L271 77.6z"/><circle r="1" fill="#6f614a" transform="matrix(-5.4372 -12.04278 74.15081 -33.47837 231.7 69.4)"/><ellipse cx="79" cy="85" fill="#5b4d53" rx="110" ry="5"/><circle r="1" fill="#5176a9" transform="matrix(3.13593 -37.63878 91.74443 7.64382 217 0)"/><path fill="#2c2b1e" d="M-14 115l223-6-139 44z"/><ellipse cx="31" cy="56" fill="#ced7e3" rx="56" ry="23"/><circle r="1" fill="#93a8c8" transform="matrix(-54.84984 -5.86176 4.20374 -39.3354 46.4 17.9)"/><path fill="#a8c2d4" d="M70.6 48.9l161.1-7.7-47.9 41.3-13.2 2.5z"/><path fill="#dbc4ab" d="M201 129h27v8h-27z"/><circle r="1" fill="#ede6da" transform="rotate(-175.6 15 34.1) scale(101.30798 9.40574)"/><path fill="#43361c" d="M247 93l-95 42 84-12z"/><path fill="#3c2f25" d="M220.9 62.6l38.7-9.6-39.5.1 36.2 50.2z"/><path fill="#645a40" d="M144 125L63 86l168-2z"/><circle r="1" fill="#628bbb" transform="rotate(-174.5 57 11.4) scale(78.8086 8.68822)"/><path fill="#897970" d="M76 140h72v4H76z"/><path fill="#bea793" d="M245.8 64.6l25.2-8-29.6 2-16.3 2.8z"/><path fill="#1a1916" d="M121.1 130.7l8.9 4.5-88 9-18.8-5.2z"/><path fill="#392f1e" d="M177 105.8l8.8-2.2 19.1 76.6-8.7 2.2z"/><path fill="#e6caac" d="M246 107l19-10 6 12z"/><path fill="#4b3f35" d="M242.5 139.3l-53.4 15.4 58.1-26.9 23.8 12z"/><path fill="#86abd1" d="M104 41h152v12H104z"/><path fill="#d8d7cf" d="M197.4 72.7L52.7 68.8l115.1 12.6 3.6 3z"/><ellipse cx="255" cy="76" fill="#bfaa91" rx="18" ry="5"/><path fill="#090d11" d="M53.6 124.2L42 128l-36 3.4 56.8-17z"/><path fill="#868a96" d="M14.3 133.7l24.3-5.4L14.5 159-16 119.5z"/><circle r="1" fill="#a8b5cd" transform="rotate(-61.3 11 5.1) scale(161.48728 18.99329)"/><path fill="#9b846e" d="M237 136l-61.5 5.7 91.8-22.9 3.7 3.3z"/><path fill="#656976" d="M113 80h50v7h-50z"/><path fill="#9cb8d1" d="M68 51h153v12H68z"/><path fill="#4a432c" d="M182 79.5l20.3-9.6 52-3.6-63.4 12.8z"/><path fill="#6b5f45" d="M44.2 117.7l-5.1-1.4-14.3-12L8.6 124z"/><path fill="#d9d2ce" d="M56 91h22v2H56z"/><path fill="#bbaea4" d="M218 144l16 15 27-21z"/><circle r="1" fill="#1c1911" transform="matrix(-29.614 4.53158 -.30374 -1.98493 158 123.8)"/><ellipse cx="224" cy="81" fill="#4c432c" rx="3" ry="29"/><path fill="#3f311c" d="M243 129.9l28-25.9-44.4 15.6-1.7-19.1z"/><path fill="#b49f8c" d="M182.4 131.8l-20.6 11.1 9.5-2.2 9.9 1z"/><circle r="1" fill="#7194be" transform="matrix(80.54026 23.12963 -2.59888 9.04963 189 28)"/><ellipse cx="5" cy="83" fill="#6f6564" rx="34" ry="5"/><path fill="#5f594a" d="M179.6 87.1l-104-.8-11.1 31.9 66.3-17.4z"/><circle r="1" fill="#5878a5" transform="matrix(63.45594 5.58756 -1.15353 13.10026 195.9 0)"/><path fill="#c4b7b2" d="M0 88h49v4H0z"/><path fill="#cbb08e" d="M212 74h9v8h-9z"/><circle r="1" fill="#829fc3" transform="matrix(-52.58586 -18.5184 4.41882 -12.54793 51.6 29.4)"/><path fill="#caac8a" d="M137 141l19-7 5 5z"/><path fill="#1f1a16" d="M148 141h11v3h-11z"/><path fill="#332d34" d="M264.2 51.8L238.8 61l-1-2.8 25.4-9.2z"/><path fill="#a7aec5" d="M-16 1l71-17 58 29z"/><path fill="#705d3c" d="M106 117h46v5h-46z"/><path fill="#463e2d" d="M215.5 107.4l-68.1-1.9 51.5 25.4-57.5 5.2z"/><path fill="#b6a089" d="M204.5 132.9l9.9 7-5.5-12.6 42.7.1z"/><path fill="#10171b" d="M1.4 115.1l12.8-5.7 2.4 5.5-12.8 5.7z"/><path fill="#6e5e3d" d="M255 102l-71-19-10 21z"/><path fill="#908a8b" d="M55 80h36v5H55z"/><ellipse cx="210" cy="59" fill="#a7b9cd" rx="10" ry="8"/><path fill="#080a06" d="M56 126h19v4H56z"/><path fill="#323521" d="M271 67l-19 23 6-36z"/><path fill="#232118" d="M88.6 125.3l21.1-10 20.4-1.2-32.4-3.9z"/><path fill="#141415" d="M249 130l22 1-17 7z"/><path fill="#4f4b4c" d="M180.9 125.9l-38.3 12.4-33.1 8.3 20.8-18.5z"/><path fill="#b6c9db" d="M9.6 62.5l-23-26.9 154 34.4-68.2-7.5z"/><path fill="#414144" d="M54 87h60v3H54z"/><path fill="#f2f6ee" d="M229 77.8l-1 .2-1-5.8 1-.2z"/><path fill="#61553c" d="M107.4 107l-39.6 26.1 35.1-7.7L14.3 100z"/><path fill="#242823" d="M13 100h72v2H13z"/><path fill="#c2c7c2" d="M244.6 61.2l.5.8-7.7 4.8-.5-.8z"/><ellipse cx="31" cy="93" fill="#73695c" rx="63" ry="2"/><path fill="#020506" d="M43.4 123l-.4-3 31.6-5 .4 3z"/><path fill="#3c3826" d="M218 65l10-3 17 9z"/><path fill="#a38c74" d="M53 143h21v1H53z"/><ellipse cx="40" cy="73" fill="#eae8de" rx="49" ry="6"/><path fill="#38312b" d="M227 131h10v4h-10z"/><path fill="#272115" d="M181 107h27v6h-27z"/><path fill="#88786c" d="M88 137l11 10 1-10z"/><path fill="#d6d9d0" d="M228 73h2v9h-2z"/><circle r="1" fill="#131312" transform="rotate(-118.4 102.2 26.4) scale(2.23097 11.71186)"/><path fill="#63543b" d="M190.7 117.6l-45.5 26.9 47.6-34.3 42.4 13.9z"/><ellipse cx="122" cy="71" fill="#cbd4d4" rx="71" ry="8"/><path fill="#bfa890" d="M207 127l12 4-22 12z"/><path fill="#2e321e" d="M246 76l1 14-8 6z"/><path fill="#918166" d="M245.6 104.4l10.9 5.6-8.8-12.6-5.2 7.2z"/><path fill="#d4cbc5" d="M76.5 91.8l-.1 1-24.9-2.6.1-1z"/><path fill="#b8a794" d="M213 137l-16-6 25-2z"/><path fill="#2e292c" d="M179 141h18v3h-18z"/><path fill="#2b2928" d="M248 138l-13 3 2-6z"/><path fill="#5e532f" d="M220.6 113.7l-13.7-3.1 6.5-28.3 13.7 3.1z"/><path fill="#5e523e" d="M33.2 129.5l4.4 27.5-17.9-14 54.6-24.3z"/><path fill="#5f4f3f" d="M210.2 137l-46.6-12 103 34-49.2-5.3z"/><path fill="#c6a782" d="M244.3 73l-4.3-9.2h-11.1l6.9-6.5z"/><circle r="1" fill="#d9b28c" transform="rotate(-178.6 110.9 27.7) scale(1 7.9325)"/><path fill="#827f80" d="M118 78l13 4-31 4z"/><path fill="#c3a994" d="M184 141h3v3h-3z"/><path fill="#2d2b25" d="M9 122h11v10H9z"/><path fill="#aac0d9" d="M202.7 44.2l-38.1 6.7-39.5 1.2 54.7-8.6z"/><path fill="#0c0d0e" d="M74 135h51v2H74z"/></g></g></svg>