<svg xmlns="http://www.w3.org/2000/svg" viewBox="0 0 3024 3024"><defs/><filter id="a"><feGaussianBlur stdDeviation="12"/></filter><rect width="100%" height="100%" fill="#3a434c"/><g filter="url(#a)"><g fill-opacity=".5" transform="translate(6 6) scale(11.8125)"><circle r="1" fill="#fff" transform="matrix(24.74878 -70.68132 240.67292 84.27067 160.9 35.7)"/><ellipse cx="210" cy="40" fill="#ffffe1" rx="242" ry="38"/><circle r="1" fill="#747869" transform="matrix(-6.62919 52.84272 -175.15175 -21.97302 162.6 128.6)"/><circle r="1" fill="#000b00" transform="matrix(19.70094 -58.54016 142.67255 48.01462 103.3 250.1)"/><circle r="1" fill="#ffffe2" transform="matrix(-104.81913 29.66082 -10.73996 -37.95423 241.7 23.5)"/><circle r="1" fill="#969d92" transform="rotate(98.9 63 179) scale(42.76312 81.0268)"/><circle r="1" fill="#342c27" transform="matrix(-17.24561 -51.37968 21.04138 -7.06255 138.6 126)"/><path d="M0 73h106v6H0z"/><path fill="#91b4c8" d="M209.7 6L-1.6 50.7-13.6-6l211.2-45z"/><ellipse cx="186" cy="64" fill="#ffd88c" rx="132" ry="14"/><ellipse cx="61" cy="98" fill="#5b7075" rx="143" ry="21"/><circle r="1" fill="#b26a5e" transform="matrix(-3.61645 10.80446 -31.11377 -10.41435 127.8 171.6)"/><path fill="#ebe6db" d="M173.7 196l5.2-4.8 13.4 14.9-5.2 4.7z"/><path fill="#1d0c04" d="M123 117l16-38-7 72z"/><ellipse cx="195" cy="83" fill="#5a6566" rx="177" ry="7"/><path fill="#243331" d="M90 144l19 82-125-61z"/><path fill="#1c1b11" d="M42 66.3l-58 3L93.1 81.4 35.4 63.1z"/><circle r="1" fill="#fcffec" transform="rotate(68.7 99 187.9) scale(25.34345 64.78327)"/><path fill="#201d17" d="M146.1 99.6l5.1 55.9-17.2 5.6 46.2 26.1z"/><circle r="1" fill="#0c1509" transform="matrix(-30.5164 -2.78204 .74503 -8.17224 231 236.6)"/><circle r="1" fill="#d2e2de" transform="matrix(86.9335 -34.19968 7.95572 20.22297 167.2 23)"/><path fill="#919a85" d="M224.7 203.6l30.9-7.2-27.3.4-35.6 4.3z"/><circle cx="29" cy="41" r="27" fill="#b4bba9"/><path fill="#182217" d="M163 220l90 1-52-21z"/><path fill="#000108" d="M255 154l-22-2 32 13z"/><circle r="1" fill="#818881" transform="matrix(8.70939 -15.18184 54.22224 31.10574 189.2 116.7)"/><path fill="#617282" d="M185 200l-12 13-51-21z"/><path fill="#e9e3c5" d="M271 196.2l-24.9-14.5-13-12.4 19 6.9z"/><path fill="#6c7b7c" d="M116 120l24-43L9 123z"/><path fill="#0c1513" d="M197 235L78 162l48 74z"/><path fill="#8993a5" d="M97.2 167.6l-10.1-7.3 26.5-10.2-.1 16.1z"/><path fill="#c1c7a2" d="M256.8 252.9l-.7 6-16.9-1.8.7-6z"/><path fill="#9da093" d="M222.4 152.5l-4.6-65.9 43.8-3 4.6 65.8z"/><path fill="#281e1b" d="M123 115l6 28-16 29z"/><ellipse cx="255" cy="226" fill="#828a75" rx="32" ry="5"/><path fill="#303e3c" d="M42 141.2l-5.5 85.7-48.6-34.2-2.9-33z"/><path d="M67 76h58v2H67z"/><circle r="1" fill="#6c7671" transform="matrix(15.97998 -7.7304 18.48215 38.20557 192.6 148.6)"/><path d="M144.3 107.7l9-.4.4 9-9 .4z"/><circle r="1" fill="#39484c" transform="rotate(15.5 -519.8 879.3) scale(26.88654 3.34898)"/><ellipse cx="6" cy="248" fill="#0f1b16" rx="151" ry="29"/><path fill="#6d665b" d="M142 146.4l40 31.4-53.2-29.7 11.4-40.4z"/><path fill="#bdaa85" d="M48.6 67.3l14.3 6 40.7-3.2-117.8-20.9z"/><circle r="1" fill="#cbcbb6" transform="rotate(18.2 -376.8 794.7) scale(21.62342 1.90476)"/><circle r="1" fill="#2b251d" transform="rotate(107.1 10.2 139.3) scale(28.59943 3.17106)"/><path fill="#121f19" d="M191 196l14-7-40-18z"/><path fill="#8ca5b7" d="M-1 27L133 6-2-9z"/><path fill="#bfa795" d="M170.1 186.6l22.3 21.5-15.5-19.1-28.4-18.2z"/><ellipse cx="216" cy="72" fill="#f4c087" rx="114" ry="6"/><circle r="1" fill="#989c86" transform="matrix(1.08427 -1.20833 17.41968 15.63115 214.3 196.3)"/><path fill="#949a8f" d="M175.8 156.5l26.9-7.2-13.4-1.3 65.3 31.6z"/><path fill="#b25e4b" d="M129.6 188.8l-17.5-16.4 12.3-13.2 17.5 16.4z"/><path fill="#acaea0" d="M173 131l-20-12 35 5z"/><ellipse cx="242" cy="50" fill="#f9f7c8" rx="137" ry="12"/><path fill="#282b2a" d="M79 142h55v7H79z"/><path fill="#3b443d" d="M179 242h55v12h-55z"/><path fill="#a4b0a5" d="M247 214l12-3-16-4z"/><path fill="#4c6163" d="M0 77h30v74H0z"/><path fill="#0c1a23" d="M189.6 143l.7-1.8 24.1 9.7-.7 1.9z"/><ellipse cx="249" cy="150" fill="#e7dfbd" rx="28" ry="2"/><path fill="#171913" d="M2.7 77.7L-16 62l28.9.3 26 15.2z"/><path fill="#9fa295" d="M240.5 133.1l-63-.2 44.4 15.6-16.5-12.8z"/><circle r="1" fill="#5e6564" transform="rotate(-6.7 1278.6 -2046.2) scale(34.2249 2.42562)"/><path fill="#a5ab98" d="M207 181h34v4h-34z"/><path fill="#2e201a" d="M120 117l13-26 11 31z"/><path fill="#24211b" d="M153.1 150.3l-18.6 11.5-23.1-8.9 72 4.6z"/><circle r="1" fill="#2a3132" transform="matrix(.28067 -.9598 32.08546 9.38244 177.7 148)"/><path fill="#511703" d="M133 143h3v44h-3z"/><path fill="#a2b5ac" d="M144 147h6v6h-6z"/><path fill="#bacbd0" d="M30 47L212 9l-62-25z"/><ellipse cx="2" cy="49" fill="#b8c0aa" rx="15" ry="13"/><path fill="#505e5c" d="M56 185h21v7H56z"/><path fill="#a1ab9d" d="M264.5 200l-1.6 3.7-17.4-7.7 1.6-3.7z"/><path fill="#141f16" d="M209 188l54-2v4l-54 2z"/><path fill="#757e73" d="M202.3 221.6l-32.5-35.3 40.1 44.8 9.4-6.1z"/><path fill="#565e60" d="M207 104h26v5h-26z"/><path fill="#808c85" d="M175 157l22 21-31-16z"/><path fill="#d4d1ba" d="M237 110h19v6h-19z"/><path fill="#3a261c" d="M173 138l-32-3 8-22z"/><path fill="#637273" d="M78.3 130.4L-16 95.3l287-10.9-114.5-5.3z"/><path fill="#52595b" d="M235.2 147.6l-.3-5 31.9-2.2.3 5z"/><path fill="#cccbb1" d="M193 158h30v3h-30z"/><ellipse cx="220" cy="166" fill="#3e4a4e" rx="26" ry="2"/><path fill="#c5c1ad" d="M266.1 142.4l-39.3-2.7 44.2-3.6-31.2-15.7z"/><path fill="#111e23" d="M199.3 165.3l-.3 1-26.3-9.6.3-1z"/><path fill="#abae9c" d="M192.3 158.4l-23.3-5.8.7-3 23.3 5.8z"/><path fill="#0e1714" d="M151 147h30v4h-30z"/><path fill="#0e180e" d="M243 199h13v8h-13z"/><ellipse cx="137" cy="128" fill="#707e7b" rx="4" ry="12"/><ellipse cx="252" cy="65" fill="#ffe6a2" rx="122" ry="6"/><path fill="#1f2b35" d="M244 170l27 12-15-13z"/><path fill="#b1b5aa" d="M232.2 160.6l1.8-4.7 29.8 11.5-1.8 4.7z"/><path fill="#fdffe9" d="M261 11l2 33-110-5z"/><path fill="#6d726c" d="M123.5 145.4l-.9 4.5 10.6 6.4-7.5-18.6z"/><path fill="#3a4549" d="M218 137h13v7h-13z"/><path fill="#4c5954" d="M14.6 192.7l-8.4 4.8 23.8 9.9-6.9-10.8z"/><path fill="#1e2a31" d="M178 118h9v5h-9z"/><path fill="#3a4946" d="M36.6 210.4l39.5 6.3-.7 4.9-39.5-6.3z"/><circle r="1" fill="#d6d2ad" transform="matrix(.1986 -9.48114 40.48635 .84807 88.8 58.5)"/><path fill="#08181d" d="M0 135h33v2H0z"/></g></g></svg>