<svg xmlns="http://www.w3.org/2000/svg" viewBox="0 0 4752 3168"><defs/><filter id="a"><feGaussianBlur stdDeviation="12"/></filter><rect width="100%" height="100%" fill="#363a60"/><g filter="url(#a)"><g fill-opacity=".5" transform="translate(9.3 9.3) scale(18.5625)"><circle r="1" fill="#a6b081" transform="rotate(-59.3 168.5 -48.5) scale(104.52075 147.10737)"/><circle r="1" fill="#b6b7bc" transform="rotate(-28.1 287 -98.7) scale(69.30873 35.24684)"/><circle cx="225" cy="22" r="49" fill="#324a00"/><path fill="#273a1b" d="M156-12L56 59l85 10z"/><circle r="1" fill="#2b2b31" transform="matrix(35.2562 -50.53858 19.97956 13.93793 160 161.7)"/><circle cx="40" cy="22" r="87" fill="#596c4f"/><circle r="1" fill="#afafac" transform="matrix(3.44866 16.95073 -34.34359 6.98728 234.1 127.4)"/><path fill="#c0d1fb" d="M148 29h19v28h-19z"/><ellipse cx="63" cy="116" fill="#aeb3b7" rx="11" ry="43"/><circle r="1" fill="#baccd3" transform="matrix(-2.75971 -25.40356 7.76533 -.84359 115.9 82)"/><path fill="#2c292c" d="M25 112l-41-53 7 84z"/><path fill="#4c494c" d="M71.8 130l-1.7 55 182.7-33.8-150 1.5z"/><path fill="#ebecfc" d="M51.9 134L35 131.8l3-21.8 16.8 2.4z"/><ellipse cx="174" cy="76" fill="#8f8c8f" rx="33" ry="26"/><path fill="#59625c" d="M213 69h43v38h-43z"/><path fill="#0896c9" d="M86 100l-28 2-2 22z"/><circle r="1" fill="#798a83" transform="matrix(54.17228 -38.5221 9.26494 13.02896 88 7)"/><circle r="1" fill="#414c33" transform="matrix(14.12215 -10.59797 40.89139 54.48914 176.4 12.6)"/><path fill="#31312f" d="M130.5 93.3l5.1-7.4 64 44.8-5.2 7.4z"/><circle r="1" fill="#3f562a" transform="rotate(41.9 -18.5 24.7) scale(19.99837 114.96127)"/><path fill="#353836" d="M87 100l-10-9 33-24z"/><circle r="1" fill="#2b392f" transform="rotate(151.2 55.9 34.8) scale(32.19655 14.0177)"/><circle r="1" fill="#655f64" transform="matrix(-10.59157 -3.56446 5.21226 -15.48793 114.9 121.8)"/><path fill="#e5c7b5" d="M144.4 100.1l3.4 1.1-27.4 43.2 15.3-44.9z"/><path fill="#a8dfec" d="M108 80h24v18h-24z"/><path fill="#dac7cf" d="M100.4 117.6l-34.3 9.9 21.7-23.7 8.9.6z"/><circle r="1" fill="#b3b1af" transform="rotate(9.4 -908.9 349.9) scale(15.85178 32.85219)"/><path fill="#a28b77" d="M150 13h16v19h-16z"/><circle r="1" fill="#6f6f5d" transform="rotate(-170.9 8 79) scale(19.73421 22.74545)"/><circle r="1" fill="#2f3234" transform="matrix(-21.0062 25.81578 -4.96768 -4.04218 191.3 128.6)"/><circle r="1" fill="#494948" transform="matrix(-18.54842 19.09288 -7.41216 -7.2008 38.8 99.4)"/><circle r="1" fill="#e9d3cc" transform="matrix(3.95822 8.51195 -3.15132 1.46543 126.5 135)"/><circle r="1" fill="#727d85" transform="matrix(15.551 -1.30585 .622 7.40725 165.5 129)"/><path fill="#9e775f" d="M49 151l14-25 43-5z"/><path fill="#e8d1c8" d="M58 76h18v6H58z"/><path fill="#495049" d="M155 42l-21 47-8-19z"/><circle r="1" fill="#676e6c" transform="matrix(-15.83518 -19.96434 13.86162 -10.99466 255 95)"/><path fill="#555451" d="M254 185l-9-54-16 5z"/><ellipse cx="169" cy="2" fill="#4a5838" rx="57" ry="13"/><path fill="#525b55" d="M77 27h17v78H77z"/><path fill="#f0eadd" d="M98 145l-15-9 20 1z"/><path fill="#947a6a" d="M125.5 68.2l-6.9 15.2-16.8-10.5 6.1-22.3z"/><path fill="#e0dbd3" d="M41.2 175.6l5.4-7.9 25.8-15.9-17.6-.8z"/><path fill="#949690" d="M198 132l-7 20 45-8z"/><circle r="1" fill="#303638" transform="matrix(-2.15505 -6.47832 51.25244 -17.04942 122.8 169)"/><path fill="#a8c0e2" d="M147 31h19v18h-19z"/><path fill="#989b9e" d="M232.7 151.2l4.9 21.9-8.5-9.9-29.2 5.9z"/><circle cx="168" cy="97" r="12" fill="#959d9d"/><path fill="#78906a" d="M5 60h29v30H5z"/><path fill="#425538" d="M179 46l70-2-84-22z"/><path fill="#b1c8da" d="M56.9 102.9l11.4-19.8-10.5 34-27.3 14.1z"/><ellipse cx="193" cy="89" fill="#747c82" rx="23" ry="29"/><path fill="#875d58" d="M68 123l-16 10 8-18z"/><path fill="#6b8369" d="M-4 35.9v-9l44-.8v9z"/><path fill="#21291f" d="M210 32l34-48 27 38z"/><path fill="#464c52" d="M244 88l-53 18 7 19z"/><path fill="#a4a5a6" d="M219 108h25v21h-25z"/><path fill="#d0e9e9" d="M97.5 91.6L108.8 79l3.7 3.4L101.2 95z"/><path fill="#c59e86" d="M159.5 58l-3.5-7.5 30-1.5-5.2 7.5z"/><path fill="#595551" d="M184.5 59.5v7h-35v-7z"/><path fill="#c3a38c" d="M103.1 93.1l-11.5-5.7 10.3 49.8 6-5.6z"/><path fill="#82898e" d="M4 127l29 58-4-70z"/><circle r="1" fill="#686e75" transform="rotate(-102.6 105.7 47.7) scale(6.00782 32.16217)"/><path fill="#c59992" d="M77.1 86.7l-17.3 2.9 9.9 14.6 8.7-8.6z"/><path fill="#384c2b" d="M212 73l32-49 22 45z"/><path fill="#7c6c63" d="M93.7 136.1L74.5 114l7.5 19.3 16.7-21.8z"/><path fill="#45534a" d="M79 103l29-24-13-31z"/><path fill="#292c2e" d="M176 116l-20 1-10-17z"/><path fill="#d4b6a2" d="M66.8 156.2l12-32.4-4.2-11.5-5.7 2.3z"/><circle r="1" fill="#2b69a4" transform="matrix(1.52102 15.37887 -.99514 .09842 153.3 53.1)"/><path fill="#829a78" d="M63 65.2l.5-10.7-19.9 11.2 3.1 10.1z"/><path fill="#36b8db" d="M55 104h26v8H55z"/><path fill="#9fa6a5" d="M181 94l-27 2 34-23z"/><path fill="#404b3f" d="M132.7 45l-13 35.4 8-8.9 11.7 23.1z"/><path fill="#b6bbc6" d="M265.4 129.2l-27.6-19.1-3.8-6.1 23.6 14.3z"/><path fill="#615d59" d="M156 83l-21 9-11 17z"/><circle r="1" fill="#606264" transform="matrix(-58.4891 15.65067 -2.05196 -7.66852 173.6 165.7)"/><path fill="#2f3a33" d="M199 40l-15.7 14.3L271 76l-21-9.2z"/><path fill="#434744" d="M-6 53l21 59-15 38z"/><path fill="#e8c5b5" d="M162.5 67.3l3.5 7.2-4.5 2.2-3.5-7.2z"/><path fill="#f3e8d9" d="M144 98l-12 6v11z"/><path fill="#bbcbce" d="M203 99l4-3-7-5z"/><path fill="#6d6968" d="M92.6 80.9L54.3 94.5l35-28.2 27.9 50.9z"/><path fill="#8faade" d="M161.2 32l13.1 12.9-6-13.6L166 29z"/><path fill="#3f4a40" d="M44.6 105.5L40 88.9l17.2-3-6.2 24.7z"/><path fill="#333f37" d="M40.3 18.7L23 26.6-.2 15.4 56.4 7z"/><path fill="#fdffff" d="M38 111h4v14h-4z"/><path fill="#7d7d7f" d="M121 156.7l-76.8-13.2 84.6 3.1-43-24.6z"/><path fill="#dacfd7" d="M80 108l29 10-19-15z"/><circle r="1" fill="#58655a" transform="matrix(-4.36078 -6.75459 76.2996 -49.25929 99.9 23.5)"/><path fill="#2b4d94" d="M110 105h11l-10 15z"/><circle r="1" fill="#666564" transform="rotate(-32.6 175 9.8) scale(16.92796 13.67482)"/><circle r="1" fill="#505761" transform="matrix(5.48725 26.79557 -5.55114 1.13677 229.4 90.8)"/><path fill="#96c1cc" d="M132.8 88.1l-3.4 16.1-21.7.6 15.2-29.1z"/><path fill="#454044" d="M79 133l-9 14 5 9z"/><path fill="#31372f" d="M217 33l-48-11-26-38z"/><path fill="#48632e" d="M-10 72l30-2-11-7z"/><path fill="#57694b" d="M176.5 14.5l-6.5-20 27.5-9 6.5 20z"/><path fill="#dadeeb" d="M51 131.4l10 .2v5l-10-.2z"/><path fill="#75807f" d="M246.4 67.1l-5.3 8.4 5.9 7.4 22 18.1z"/></g></g></svg>