<svg xmlns="http://www.w3.org/2000/svg" viewBox="0 0 1200 1800"><defs/><filter id="a"><feGaussianBlur stdDeviation="12"/></filter><rect width="100%" height="100%" fill="#2f405c"/><g filter="url(#a)"><g fill-opacity=".5" transform="translate(3.5 3.5) scale(7.03125)"><circle cx="162" cy="109" r="169" fill="#adb6b9"/><circle r="1" fill="#caccca" transform="matrix(-2.3892 -105.28296 27.0068 -.61287 45.5 85.9)"/><circle r="1" fill="#000615" transform="rotate(97.8 -57.3 143.3) scale(18.46242 64.2727)"/><ellipse cx="152" cy="39" fill="#132d47" rx="14" ry="119"/><circle r="1" fill="#fff3da" transform="matrix(-7.14802 -15.45257 35.46427 -16.405 149.5 244.7)"/><path fill="#0d2045" d="M14 172l-30-69 36-92z"/><circle r="1" fill="#021a2e" transform="rotate(159.5 52.8 120.3) scale(62.8764 8.8752)"/><ellipse cx="67" cy="255" fill="#d5c2a2" rx="35" ry="17"/><circle r="1" fill="#001119" transform="rotate(119.3 -61 120.5) scale(36.37654 23.94588)"/><path fill="#fff" d="M182.5 38l-13.7 2.7L155.5-28l13.7-2.7z"/><circle r="1" fill="#a3a7ad" transform="rotate(24.3 20.6 149.6) scale(36.5137 65.66241)"/><ellipse cx="48" cy="238" fill="#acafab" rx="4" ry="169"/><path fill="#587090" d="M0 117h26v83H0z"/><circle r="1" fill="#365075" transform="matrix(-10.633 54.70208 -17.65674 -3.43212 157.7 106)"/><path fill="#162b3d" d="M111.1 261.8l21.5-41.1-82.5-24.5-34.2-39.7z"/><ellipse cx="129" cy="91" fill="#8997ad" rx="9" ry="75"/><path fill="#010306" d="M163 237h7v7h-7z"/><path fill="#fffcf3" d="M152 265l-93 4 29-21z"/><path fill="#5f5b50" d="M37 235h30v21H37z"/><circle r="1" fill="#818c98" transform="matrix(15.72365 -103.9215 7.99158 1.20915 68.8 103)"/><path fill="#14293f" d="M134 200h30v16h-30z"/><path fill="#657a95" d="M56.7 197.8L185 118.9l-59.4 104 7.4-3.6z"/><path fill="#f5efe9" d="M171.3 229.9l2.4-6-21 2.8-4.1 44.3z"/><circle r="1" fill="#393b4e" transform="matrix(8.00678 86.3105 -7.8492 .72815 158.4 30.2)"/><path fill="#e2dfd6" d="M83 235l20 18-33-15z"/><path fill="#5f5953" d="M149.5 243.1l34.2-13.1 1.3 25.8-41.9-25.2z"/><path fill="#506887" d="M49 195l-62-95-3 101z"/><ellipse cx="110" cy="30" fill="#768499" rx="30" ry="107"/><ellipse cx="38" cy="115" fill="#aeb4b9" rx="18" ry="56"/><path fill="#0b2338" d="M50 236l8-36 48 14z"/><path fill="#e0e0d3" d="M159.8.7l15.3 15.8-2.9 2.8-15.3-15.8z"/><path fill="#1f2d46" d="M17.8 57.8l-.6 33-29-.6.6-33z"/><circle r="1" fill="#b6b1a2" transform="matrix(22.15467 -11.19113 1.50911 2.98753 148.7 228)"/><path fill="#948f84" d="M70.9 233.6l2.6-12.6-33.7 38.9 5.5-9.7z"/><path fill="#468f71" d="M145 34h3v158h-3z"/><path fill="#fffcf0" d="M168 16h2v38h-2z"/><circle r="1" fill="#193048" transform="rotate(-113.4 83.4 96.4) scale(11.32419 20.79911)"/><path fill="#607bab" d="M150 132h20v68h-20z"/><path fill="#799c92" d="M143 199h3v38h-3z"/><circle r="1" fill="#a49d88" transform="matrix(-46.0056 160.4699 -.96128 -.2756 56.2 180.5)"/><circle r="1" fill="#293142" transform="matrix(10.82261 27.21706 -18.39773 7.31569 1.4 5.1)"/><path fill="#163631" d="M147 106h2v71h-2z"/><ellipse cx="22" cy="84" fill="#909698" rx="5" ry="62"/><path fill="#828f9a" d="M1 203.4l-7.7-25.9-9.3 56.8 32.1-85.6z"/><path fill="#fffef4" d="M162.4 251l-15.8 15.2-7-7.2 15.8-15.2z"/><path fill="#202c43" d="M147.5 41.3l3.1-31.4 22.2 76.7-9.5-71.8z"/><circle r="1" fill="#081b25" transform="matrix(.80648 8.32537 -37.9313 3.6744 6.3 246.3)"/><circle r="1" fill="#304a6f" transform="matrix(2.22075 -6.5234 24.6538 8.39284 0 146.5)"/><ellipse cx="141" cy="104" fill="#2f446c" rx="4" ry="35"/><circle cx="51" cy="10" r="28" fill="#9fa4a9"/><path fill="#a2a095" d="M45 214h6v30h-6z"/><path fill="#abaaa2" d="M47 187l1 22 15-30z"/><path fill="#473c28" d="M180.4 217.8l-30.6 9.4-.2-1 30.6-9.4z"/><path fill="#ecebe5" d="M160.3 220.3l-11.5 14.1 36.2-1.8-42.1-10.9z"/><path fill="#585f6d" d="M-8 64l-8-36 34 1z"/><path fill="#3d342f" d="M101 242h10v12h-10z"/><path fill="#213147" d="M156 196l-13 26 41-11z"/><path fill="#6f788a" d="M92 0h49v25H92z"/><path fill="#6d7d91" d="M67 138l17-58-18-6z"/><path fill="#40312c" d="M169 0h1v13h-1z"/><path fill="#16293c" d="M0 200h46v18H0z"/><path fill="#b3afae" d="M139 0h1v48h-1z"/><path fill="#716f6c" d="M85.9 244l-67.5 15.1 43.8-20.9L74.8 255z"/><ellipse cx="143" cy="19" fill="#232636" rx="3" ry="19"/><circle r="1" fill="#abaaa6" transform="rotate(-29.3 542 -123) scale(22.25178 7.78381)"/><ellipse cx="91" cy="158" fill="#64768c" rx="25" ry="47"/><path fill="#717c8c" d="M56 196l76-40 3 60z"/><path fill="#707b8d" d="M53 187.8l-56.4-8.2-12.6 22 64.8-9.2z"/><path fill="#224250" d="M146 154h2v60h-2z"/><path fill="#333d4d" d="M128.7 214.2l14.5-8.1.3 10.5L91.8 240z"/><circle r="1" fill="#303940" transform="rotate(92.3 -90.6 145.5) scale(21.6772 1)"/><path fill="#485a85" d="M150 101h20v45h-20z"/><path fill="#a8a59c" d="M44 232h5v24h-5z"/><path fill="#767678" d="M147.5 244.2l30.7-7.8-10.2-.6-22.6 7.4z"/><path fill="#465670" d="M17.7 103.8l-28.8 18 27.7 21.5 7.1 16.4z"/><path fill="#192e43" d="M126 238l-76-37 89 16z"/><ellipse cx="145" cy="114" fill="#59908a" rx="2" ry="49"/><path fill="#7186a1" d="M148 167h22v33h-22z"/><path fill="#c7c8c2" d="M155 2h15v4h-15z"/><path fill="#fff8e4" d="M147 222l6-1-10 6z"/><path fill="#4a5858" d="M164 3.8l-23.8 6.4 5.9-1.8 17.8 8.9z"/><path fill="#6d7885" d="M21 49.6l11.1-32.2 2.9 1-11.1 32.2z"/><path fill="#f5f1e9" d="M165 0h3v23h-3z"/><path fill="#2d3d4e" d="M148 17h7v85h-7z"/><path fill="#77879c" d="M108 153l9-107 28 152z"/><circle r="1" fill="#8d98a3" transform="rotate(-79 63 -20.9) scale(60.52362 8.10618)"/><path fill="#cbcfce" d="M137 60h1v39h-1z"/><path fill="#5c676e" d="M78 238h34v3H78z"/><path fill="#d7d2ca" d="M70 240h16v6H70z"/><ellipse cx="146" cy="40" fill="#64a596" rx="1" ry="47"/><path fill="#182c41" d="M52 226l72-11-70-16z"/><circle r="1" fill="#f1efeb" transform="matrix(5.1317 10.61544 -3.01562 1.4578 96.7 254.8)"/><path fill="#f3f0eb" d="M149.4 235.4l-1.8-5.8 23-7 1.8 5.8z"/><path fill="#969fa7" d="M49.1 174.6l10.9 27 7.4-12.7-16-107.7z"/><path fill="#1a2d42" d="M139.2 230.6l-4.8-31.6 10.4 1.4-9.5 21z"/><ellipse cx="41" cy="72" fill="#a6adb3" rx="19" ry="49"/><path fill="#36332f" d="M58 248l22 22 9-7z"/><path fill="#777979" d="M84 246h5v6h-5z"/><path fill="#3a464d" d="M68 241.1l26.7-12.3 13.3 5.7-31.3-5.9z"/><ellipse cx="142" cy="57" fill="#373d59" rx="3" ry="47"/></g></g></svg>