<svg xmlns="http://www.w3.org/2000/svg" viewBox="0 0 1800 1200"><defs/><filter id="prefix__a"><feGaussianBlur stdDeviation="12"/></filter><rect width="100%" height="100%" fill="#2c4565"/><g filter="url(#prefix__a)"><g transform="translate(3.5 3.5) scale(7.03125)"><circle r="1" fill="#c2d2e6" fill-opacity=".5" transform="rotate(-12.3 530 -111.6) scale(255 67.88037)"/><circle r="1" fill="#e7e8e3" fill-opacity=".5" transform="matrix(.33119 -16.52312 219.80846 4.4058 99 91.8)"/><circle r="1" fill="#1c3c56" fill-opacity=".5" transform="matrix(-146.45307 -9.23886 1.17719 -18.6606 135.6 135.9)"/><circle cx="140" r="83" fill="#466aaa" fill-opacity=".5"/><path fill="#fff2cd" fill-opacity=".5" d="M-12.7 156L85 140.5l5.6 35.5L-7 191.5z"/><ellipse cx="169" cy="16" fill="#4667a0" fill-opacity=".5" rx="255" ry="50"/><path fill="#999f9b" fill-opacity=".5" d="M0 104h256v14H0z"/><circle r="1" fill="#244661" fill-opacity=".5" transform="matrix(-2.28446 -31.86985 75.91246 -5.44147 170.2 146.3)"/><ellipse cx="116" cy="81" fill="#c9d1d6" fill-opacity=".5" rx="81" ry="13"/><circle r="1" fill="#cfc3b1" fill-opacity=".5" transform="rotate(-10.6 878.4 -408) scale(3.93401 70.33008)"/><path fill="#fff" fill-opacity=".5" d="M42.3 191L21 169.6 43.6 147 65 168.3z"/><ellipse cx="35" cy="40" fill="#5075b1" fill-opacity=".5" rx="40" ry="24"/><ellipse cx="204" cy="29" fill="#415e8e" fill-opacity=".5" rx="138" ry="21"/><circle r="1" fill="#aba094" fill-opacity=".5" transform="matrix(-5.6176 8.05784 -26.86954 -18.7324 77 155.5)"/><ellipse cx="90" cy="65" fill="#7492c1" fill-opacity=".5" rx="154" ry="9"/><ellipse cx="15" cy="133" fill="#355174" fill-opacity=".5" rx="34" ry="17"/><circle r="1" fill="#5d7db1" fill-opacity=".5" transform="matrix(-51.92197 -19.85342 4.46587 -11.67943 245.4 78.4)"/><path fill="#02283d" fill-opacity=".5" d="M204.5 147.3l68 2.4-1 27-68-2.4z"/><ellipse cx="176" cy="111" fill="#828a8b" fill-opacity=".5" rx="89" ry="7"/><ellipse cx="84" cy="136" fill="#ebe3d1" fill-opacity=".5" rx="3" ry="66"/><path fill="#917e73" fill-opacity=".5" d="M26 166l5-16-47 11z"/><path fill="none" stroke="#fff4b4" stroke-opacity=".5" stroke-width=".5" d="M55-7.5q6 28.8 28.1 120.9"/><path fill="#34516f" fill-opacity=".5" d="M163 117h69v32h-69z"/><ellipse cx="22" cy="102" fill="#9db2cb" fill-opacity=".5" rx="103" ry="11"/><path fill="#23446a" fill-opacity=".5" d="M0 117h80v12H0z"/><path fill="#cccec8" fill-opacity=".5" d="M218 81l53 30-99-13z"/><path fill="#9a948b" fill-opacity=".5" d="M91.4 185l7.9-22.7 17.9 22.7-60.1-59.8z"/><path fill="#89909e" fill-opacity=".5" d="M-16 131.5l39.1 8.4 63.5 2.1-67-8.1z"/><path fill="#5d7eac" fill-opacity=".5" d="M100 56.5l5.7 24.3L94 83.5l-5.7-24.3z"/><path fill="#6685b1" fill-opacity=".5" d="M121 73h58v7h-58z"/><path fill="#fef9f5" fill-opacity=".5" d="M66 159l-79 10 75 16z"/><path fill="#dbdcda" fill-opacity=".5" d="M59.4 97L10.2 82.5 66 73.1l16.9-.4z"/><path fill="#2b4765" fill-opacity=".5" d="M92 117h164v11H92z"/><path fill="#afb9c3" fill-opacity=".5" d="M141.9 66.1l8-1.8-4.4 12.3-48.8-1.7z"/><path fill="#ecece4" fill-opacity=".5" d="M190 75l4 19-37-11z"/><ellipse cx="39" cy="151" fill="#efeae2" fill-opacity=".5" rx="34" ry="2"/><path fill="#829ab3" fill-opacity=".5" d="M88 96h56v8H88z"/><ellipse cx="109" cy="59" fill="#ced0d0" fill-opacity=".5" rx="4" ry="5"/><path fill="#476282" fill-opacity=".5" d="M87 136h63v20H87z"/><path fill="#f0d6ad" fill-opacity=".5" d="M89.5 141.2l-1 .2-38-164.6 1-.2z"/><ellipse cx="167" cy="115" fill="#9e9f93" fill-opacity=".5" rx="184" ry="2"/><ellipse cx="80" cy="129" fill="#385474" fill-opacity=".5" rx="2" ry="21"/><ellipse cx="47" cy="157" fill="#8e8b86" fill-opacity=".5" rx="6" ry="4"/><circle r="1" fill="#39527d" fill-opacity=".5" transform="rotate(87.6 56 62.3) scale(15.13421 54.74272)"/><path fill="#6084bc" fill-opacity=".5" d="M22.9 81.1l-6.4-1.2-6.1-13 48.9-14.4z"/><path fill="#728db6" fill-opacity=".5" d="M238 77l-48 5 31-38z"/><path fill="#6b87af" fill-opacity=".5" d="M122.1 61.7l16.9 8-24.5 13.9 31.2-2.6z"/><path fill="#e5e4da" fill-opacity=".5" d="M85.1 117.1l-5.6-42 7.9-4.1-.6 33.9z"/><circle r="1" fill="#446090" fill-opacity=".5" transform="matrix(20.58666 -28.64936 86.49772 62.15492 255.2 28.5)"/><path fill="#bec4d2" fill-opacity=".5" d="M-15.7 51.3l25 6.9 5.7 5.6-21.5-1.6z"/><ellipse cx="193" cy="166" fill="#173a52" fill-opacity=".5" rx="82" ry="8"/><circle r="1" fill="#153855" fill-opacity=".5" transform="matrix(-26.04712 .81767 -.07252 -2.3101 147.3 144.5)"/><path fill="#45607c" fill-opacity=".5" d="M200 135l-16 16 54-10z"/><path fill="#918882" fill-opacity=".5" d="M37.9 151.3L22.3 167l-4.2-4.2L33.7 147z"/><path fill="#e8eaea" fill-opacity=".5" d="M10 83l-25-8 30 1z"/><path fill="#e6e4e0" fill-opacity=".5" d="M-16 155.2l67.9-6.9-63.8 4.2 9.7-7.3z"/><path fill="#7d91ac" fill-opacity=".5" d="M101 94.3L98.2 89l10.8-5.2 2.6 5.4z"/><ellipse cx="172" cy="110" fill="#7b8891" fill-opacity=".5" rx="81" ry="5"/><path fill="#dcdfdc" fill-opacity=".5" d="M210 88h30v7h-30z"/><path fill="#dddfdc" fill-opacity=".5" d="M134 80h29v8h-29z"/><ellipse cx="162" cy="52" fill="#5475a5" fill-opacity=".5" rx="54" ry="12"/><circle r="1" fill="#60676e" fill-opacity=".5" transform="matrix(-.95886 -16.65679 2.0139 -.11593 79.8 147.8)"/><path fill="#39578f" fill-opacity=".5" d="M56 5v24H-2V5z"/><path fill="#f2f2e8" fill-opacity=".5" d="M108 77l16-6-10 8z"/><path fill="#1c3f5b" fill-opacity=".5" d="M125 165l-25-3 27-12z"/><path fill="#718eb9" fill-opacity=".5" d="M148.1 71.1l30.8-8.7 92.1 28L202.3 79z"/><path fill="#d3d2cf" fill-opacity=".5" d="M55.5 145.3l-12.7 5-2.9 12 9.2-20.7z"/><path fill="#3b5875" fill-opacity=".5" d="M185.3 157.5l51.7 9.8-75.4-26.8 37.6 18z"/><path fill="#cac3b5" fill-opacity=".5" d="M63 135.6l3.8-1.4 4.1 10.2-3.7 1.4z"/><path fill="#f5f1eb" fill-opacity=".5" d="M46 153l12-2-26-6z"/><path fill="#2d4d6f" fill-opacity=".5" d="M137.3 118l-43.7 21.7L87 131l1-11.5z"/><path fill="#395573" fill-opacity=".5" d="M50 125.5l-37.8 13.1 24.7 10.3-38.3-4.1z"/><path fill="#b2b8b6" fill-opacity=".5" d="M182.9 85l-.5 21.2-46-7.3 40.3-14.2z"/><path fill="#6a798e" fill-opacity=".5" d="M24 150.3l23.6-19.1-55.3 10.3 90 .2z"/><path fill="#6082b9" fill-opacity=".5" d="M52 76l-7-29 21 21z"/><ellipse cx="28" cy="43" fill="#4a6ea5" fill-opacity=".5" rx="37" ry="9"/><path fill="#97a4bc" fill-opacity=".5" d="M215.9 61.5l-4-7.3 12.8-4.9.4 5.1z"/><path fill="none" stroke="#e6cfae" stroke-opacity=".5" stroke-width=".5" d="M88.2 135.5q.9 9.8 13 49.5"/><path fill="#a1b1c5" fill-opacity=".5" d="M-9.6 115.7l69.4-4.5-1.3-26 26.7-2.1z"/><path fill="#c1c7c9" fill-opacity=".5" d="M176.7 83.8l40.9 17.1-2.4-29.9-6.6 15.2z"/><path fill="#cccfce" fill-opacity=".5" d="M148 72l-13 3 8-10z"/><circle r="1" fill="#5d7baa" fill-opacity=".5" transform="matrix(54.01887 -.43012 .04967 6.23748 234.8 65.5)"/><path fill="#adb8c9" fill-opacity=".5" d="M66.1 67.6l9.3 16.2-14.4-27 18.3 8.9z"/><path fill="#e1e3e2" fill-opacity=".5" d="M31 77h63v4H31z"/><path fill="#03263b" fill-opacity=".5" d="M220 153h36v9h-36z"/><circle r="1" fill="#415c8a" fill-opacity=".5" transform="matrix(68.4246 -5.92413 1.4296 16.512 177 13.9)"/><path fill="#728db3" fill-opacity=".5" d="M85.4 82.7l14.6 2.5-3.1-39.5 15.6 27.2z"/><path fill="#ded9ce" fill-opacity=".5" d="M64 148l12 7 2 12z"/><ellipse cx="242" cy="101" fill="#b3babe" fill-opacity=".5" rx="36" ry="7"/><ellipse cx="47" cy="139" fill="#b4b0ae" fill-opacity=".5" rx="22" ry="1"/><path fill="#8a918c" fill-opacity=".5" d="M164 112h69v6h-69z"/><path fill="#708bb2" fill-opacity=".5" d="M143.4 82.8l39.2-26.5-58.8 28.3-7.8-6.8z"/><path fill="#ffffea" fill-opacity=".5" d="M56 145.3l-8 .4v-1l8-.4z"/><ellipse cx="52" cy="148" fill="#7a7881" fill-opacity=".5" rx="4" ry="2"/><path fill="#193c57" fill-opacity=".5" d="M159.6 134.7l22.2 7.2L213 139l-40.9-2.5z"/><path fill="#6e849f" fill-opacity=".5" d="M165.4 139.5l.1 1-18.9 2-.1-1z"/><path fill="#405f7d" fill-opacity=".5" d="M180.3 165.2l-70.7-7.4.1-1 70.7 7.4z"/><path fill="#a69e95" fill-opacity=".5" d="M16.6 166l-20.2-.4-8.4-10.4 44.6-4.1z"/><ellipse cx="85" cy="166" fill="#c8c8c0" fill-opacity=".5" rx="2" ry="67"/><path fill="#5e80b1" fill-opacity=".5" d="M93.2 68.6l-17.5 5.1-6.8-24.9 47.5 2.5z"/></g></g></svg>