<svg xmlns="http://www.w3.org/2000/svg" viewBox="0 0 1800 1200"><defs/><filter id="a"><feGaussianBlur stdDeviation="12"/></filter><rect width="100%" height="100%" fill="#424041"/><g filter="url(#a)"><g fill-opacity=".5" transform="translate(3.5 3.5) scale(7.03125)"><circle r="1" fill="#cedcdf" transform="matrix(-29.72824 86.33497 -241.10661 -83.02169 176 51.1)"/><circle r="1" fill="#3b3c31" transform="rotate(51.3 -60.6 207.3) scale(84.531 51.0334)"/><circle r="1" fill="#d1ddea" transform="matrix(175.7739 -1.82254 .32143 30.9998 145 22.5)"/><circle r="1" fill="#80857b" transform="rotate(-121.7 43.7 40.6) scale(106.77354 23.66161)"/><circle r="1" fill="#36352b" transform="matrix(1.6987 81.09466 -17.65392 .3698 151.8 99.3)"/><circle r="1" fill="#c5bfb4" transform="matrix(37.805 -4.0461 1.45151 13.56227 205.6 169)"/><circle r="1" fill="#938f87" transform="matrix(-12.92988 -10.28489 27.28365 -34.30024 119.5 162.3)"/><path fill="#3c4961" d="M214.2 54.4l46 3.2-2.4 34-46-3.2z"/><path fill="#b2aa98" d="M178.2 128.5l.6-38 55 1-.6 38z"/><ellipse cy="59" fill="#454641" rx="17" ry="38"/><circle r="1" fill="#ebe7de" transform="matrix(-20.81312 -27.21295 11.38373 -8.70655 227 26.4)"/><path fill="#162117" d="M187 60.6l-42.8 20.5-15.5 39.8 57.8-45.2z"/><path fill="#e1e2de" d="M18 33h117v18H18z"/><path fill="#272527" d="M87 51h19v50H87z"/><circle r="1" fill="#7d8385" transform="matrix(27.20954 -33.2909 20.68729 16.90827 47.4 103.4)"/><path fill="#1a1413" d="M211 124l-73 45 63-15z"/><path fill="#838f8c" d="M108 46h17v99h-17z"/><path fill="#43618e" d="M33 54h55v21H33z"/><ellipse cx="67" fill="#759acc" rx="112" ry="14"/><path fill="#7e857f" d="M165-9l-17 87-22-14z"/><path fill="#37362b" d="M10 150h73v20H10z"/><path fill="#e3e1da" d="M159 10h34v24h-34z"/><path fill="#453f34" d="M244 132h12v18h-12z"/><path fill="#f0f0ec" d="M140 47l-27-24 22-10z"/><path fill="#4a6981" d="M75.3 40.4l19 15-61.5-39.6L-16-16z"/><path fill="#93989b" d="M82 148l-21-20-24 14z"/><path fill="#a8a69e" d="M28.5 94.4l4.7 39.3L44.9 92 25.5 59.2z"/><circle r="1" fill="#afab9d" transform="matrix(13.25065 -39.2065 8.56679 2.89532 197 97.5)"/><path fill="#65584b" d="M219 122l-89 23 78 1z"/><path fill="#b2b0a5" d="M159 53l112-1-114-30z"/><path fill="#898d84" d="M172 43h7v52h-7z"/><path fill="#4b4844" d="M147.9 44l13.3-59.3-11.5 148.6 2.4-100.9z"/><circle r="1" fill="#302a24" transform="matrix(.40712 2.7375 -34.48552 5.12872 113.8 151.5)"/><circle cx="71" cy="93" r="7" fill="#d9d1c1"/><path fill="#e5e1d9" d="M228 95l29 2 2 9z"/><path fill="#353a37" d="M64.8 100.2l9.8 35.7 43.3-10.3-43.6-27z"/><path fill="#7b7975" d="M200.1 156.3l3.2 12.6-51.4 12.8-3.2-12.6z"/><path fill="#0c0c10" d="M193 145l-53 24-2-15z"/><ellipse cx="140" cy="134" fill="#9c9a92" rx="20" ry="4"/><path fill="#2f301f" d="M181.4 119.7l-31.2-17.6-24.8 17.5L159 57.7z"/><path fill="#a9a69e" d="M150 78V44l-9 24z"/><circle r="1" fill="#737167" transform="matrix(7.50466 55.58315 -8.22341 1.1103 17.6 94.1)"/><path fill="#1b120f" d="M109.6 62.2l-18.1-6.4-2.7 13.6 17.7 4.9z"/><path fill="#d8d6d3" d="M79.7-9.3l5.1 16.4 9.7 18.2L43.4-16z"/><path fill="#494b3f" d="M-13.7 152.7l45 5.6 23.3-55.9 8.7 24.4z"/><path fill="#a1a7aa" d="M171.8-16L158 7.3l-33.3 71.5 11.2-61.7z"/><path fill="#605f60" d="M182.4 86.9l-6.7-38.8-21.2 22.3 38.9 6.8z"/><ellipse cx="117" cy="93" fill="#a1aa8a" rx="5" ry="23"/><path fill="#9d978e" d="M182 181l47-49 34 27z"/><circle r="1" fill="#898071" transform="rotate(-61.5 223.5 -142.6) scale(20.23013 15.52742)"/><path fill="#1d241d" d="M132.7 121.8l8.4-53.6-23.4 7 44.1 9z"/><path fill="#d9dbd8" d="M160.4 13.5l14.3 25 5.3 21.2 15.8-40.6z"/><ellipse cx="214" cy="5" fill="#fcfbf7" rx="6" ry="23"/><ellipse cx="71" cy="23" fill="#828ea1" rx="19" ry="6"/><circle r="1" fill="#767165" transform="matrix(-.973 4.45037 -12.20581 -2.66861 210.3 104.5)"/><path fill="#9ebde2" d="M34.3 17.7l24.1 15.4-54.1-7.9L-16-12.4z"/><ellipse cx="104" cy="48" fill="#a0a8af" rx="32" ry="6"/><path fill="#12171e" d="M108.5 147.7L98.3 154l-14.8-23.8 10.2-6.4z"/><path fill="#82847f" d="M155 22l19 10-2 12z"/><path fill="#827f7b" d="M68 181l54-29 41 33z"/><path fill="#49483c" d="M131.3 128.2l38.5 6.8-22.7-110 36.8 91.7z"/><path fill="#d8dbdc" d="M16 36h35v16H16z"/><path fill="#927d75" d="M199.8 5.1l-9.5 33 1.4 11.2 4.4-10.3z"/><path fill="#161314" d="M198 141l3 11-44-1z"/><circle r="1" fill="#2e4b48" transform="matrix(1.91656 .60797 -6.95886 21.9371 137.3 68.5)"/><path fill="#4d5254" d="M65.7 118l48.8-20-11.4-21.4L91.5 71z"/><path fill="#424c48" d="M0 48l-16 134 31-43z"/><path fill="#7d7570" d="M125.5 157.8l-.5-2 93.5-21.6.5 2z"/><path fill="#6a6f6f" d="M224.8 51.6l-3-.2 1.4-21 3 .2z"/><path fill="#556b84" d="M118.1 66.3l-10.4 18.9-.2-31.9 32.5-.8z"/><ellipse cx="183" cy="79" fill="#121515" rx="8" ry="2"/><path fill="#788d71" d="M137.4 88l-26.5-17.2-14 5.5 41.3 19.3z"/><path fill="#d4d5d5" d="M177.8-11.4l25.9 1.8-1.5 21-25.9-1.8z"/><path fill="#7892b7" d="M40.8 86.4l1.6-.9L32 73.3l51.2 4.5z"/><path fill="#a1a3a1" d="M16.2 41l18.1 65.6-1.9-13.9 14.9.7z"/><path fill="#646e7b" d="M223 55h33v39h-33z"/><path fill="#272d3d" d="M5.7 26.9L10 38.4l4.6-.9-6.3-14.1z"/><path fill="#54574e" d="M158 14.9L176.2-16l-17.8 3.8 5.6-1z"/><path fill="#22343b" d="M227 135.3l28.2 6.5-.2 1-28.2-6.6z"/><ellipse cx="65" cy="144" fill="#848888" rx="23" ry="5"/><path fill="#646360" d="M128 129l-26 1 23 18z"/><path fill="#07293a" d="M227 153h14v2h-14z"/><path fill="#d0d1cd" d="M271 43.6L211.2 37l10.4 20.7 2-51.8z"/><path fill="#57564b" d="M139 16h2v23h-2z"/><path fill="#817c70" d="M204 125h15v32h-15z"/><path fill="#2f2926" d="M153.4 127.4l18.4 6.1-23.4 14.5 23.3-5.8z"/><path fill="#a6a498" d="M184 112l44-22-55-10z"/><path fill="#dadcd9" d="M74 30h64v11H74z"/><circle r="1" fill="#79777b" transform="matrix(.7732 -1.83145 28.95758 12.2254 169.8 119.4)"/><path fill="#808a95" d="M78.8 42.3L93.7 53l-3.1 1.7-9.1 26.1z"/><path fill="#6f7068" d="M3 59l14 82 8-80z"/><path fill="#ababa0" d="M61.5 113.3l.8-28.3 18.8 11.9-25.7 9.1z"/><path fill="#4b4431" d="M165.1 55.4l-28.2 34.8-18.7-21.3 46.1 18.8z"/><path fill="#3f4443" d="M174 43h2v28h-2z"/><path fill="#131716" d="M11 185l14-3-9-43z"/><path fill="#969f9c" d="M164.8 34l14.7 42.1-8.9 2.2 4.6-14.2z"/><circle cx="83" cy="169" r="16" fill="#615d58"/><path fill="#edece7" d="M56 31L39 42l38 2z"/><path fill="#f1f1ee" d="M158 15l8-7 10 27z"/><path fill="#b5b4a5" d="M60.8 119.8l7-3.8 3.4 6.2-7 3.8z"/></g></g></svg>