<svg xmlns="http://www.w3.org/2000/svg" viewBox="0 0 1800 1200"><defs/><filter id="a"><feGaussianBlur stdDeviation="12"/></filter><rect width="100%" height="100%" fill="#333b4a"/><g filter="url(#a)"><g fill-opacity=".5" transform="translate(3.5 3.5) scale(7.03125)"><circle r="1" fill="#f3fafd" transform="matrix(60.60353 87.52262 -209.64673 145.16628 87.7 41.1)"/><circle r="1" fill="#1e2229" transform="matrix(-95.7609 5.94375 -1.09084 -17.57478 132 113.4)"/><circle r="1" fill="#ffe" transform="rotate(148.1 -3.7 43) scale(63.55814 39.38087)"/><path fill="#6d86ad" d="M101 51l152-67 18 146z"/><circle r="1" fill="#8b938b" transform="rotate(-19.6 511.5 -253) scale(57.0194 19.69351)"/><circle r="1" fill="#cacecf" transform="rotate(63.1 6.8 90.3) scale(55.07297 26.90054)"/><ellipse cx="245" cy="71" fill="#6a7891" rx="82" ry="42"/><path fill="#f1fcff" d="M146 0h37v22h-37z"/><circle r="1" fill="#313847" transform="matrix(-6.64718 13.87374 -37.74553 -18.08463 94.6 107.4)"/><path fill="#d5d1c2" d="M67 75l88 35-16-51z"/><path fill="#ddd2b6" d="M0 131h54v33H0z"/><circle r="1" fill="#3f4b53" transform="matrix(42.3559 -3.88075 2.46908 26.9484 179.5 118.6)"/><ellipse cx="120" cy="46" fill="#717d8d" rx="43" ry="17"/><circle r="1" fill="#f6f1eb" transform="rotate(74.1 -46.8 43.3) scale(26.05424 40.53322)"/><path fill="#808c9c" d="M18.9-6.6l28.7 86 8.1 2.1-.1-88.8z"/><circle r="1" fill="#9fa09f" transform="matrix(4.43015 19.1891 -30.40837 7.02032 148.3 82.5)"/><circle r="1" fill="#6a7e9e" transform="rotate(-148.4 137.8 .3) scale(77.10502 40.54976)"/><ellipse cx="44" cy="127" fill="#2e3331" rx="145" ry="3"/><circle r="1" fill="#808482" transform="matrix(-88.1504 36.95771 -5.6317 -13.43255 74.1 169)"/><path fill="#bcb5a2" d="M51 131h52v24H51z"/><path fill="#807e84" d="M49.3 97.9L24.9 134l57.3-31.2L77 79.1z"/><path fill="#cdc8bf" d="M271 106l-52-3 36 12z"/><circle r="1" fill="#aeb4bb" transform="matrix(-24.9722 -13.7434 9.5703 -17.38953 8.8 31.5)"/><path fill="#202830" d="M130 108l-64 14 117 8z"/><path fill="#495f81" d="M186 59l49-27 30 28z"/><path fill="#fffff8" d="M98 89L56 70l47 5z"/><circle r="1" fill="#556773" transform="matrix(.04118 5.05 -72.70508 .59284 236.4 131.2)"/><path fill="#93a1b9" d="M219.1 88l-1.7-14 65.5-8 1.7 14z"/><circle r="1" fill="#e0e8ed" transform="matrix(-8.60489 5.93611 -12.18355 -17.66107 66.8 0)"/><path fill="#eeece5" d="M-16 18l44 101.7-40.7-15.7 27.2-64.7z"/><circle r="1" fill="#6c7583" transform="matrix(54.18842 2.02377 -.25248 6.7605 176.6 84)"/><path fill="#29303d" d="M222.9 126.9l47.5-1.5-97.7-37.9-.8 12.2z"/><path fill="#90897d" d="M22 95h20v9H22z"/><circle r="1" fill="#bac0c5" transform="matrix(11.98348 16.60497 -17.3989 12.55644 63.8 39.8)"/><path fill="#89877e" d="M42 145h37v25H42z"/><circle r="1" fill="#8a9bb3" transform="matrix(-9.20643 -9.5003 51.87199 -50.26745 120.9 17.8)"/><ellipse cx="233" cy="6" fill="#a3bbdf" rx="7" ry="19"/><path fill="#818d9e" d="M15-16L9.8 36 12 56.2l47.6-45.6z"/><path fill="#9cb0cf" d="M200-11l-48 35 39 2z"/><ellipse cx="213" cy="169" fill="#152e36" rx="35" ry="21"/><circle r="1" fill="#a5a7a1" transform="rotate(-23.7 207.2 2.6) scale(8.66421 4.36853)"/><path fill="#f6f1e7" d="M32 80l31-1-16 22z"/><path fill="#d8ccbb" d="M19.7 127l-35.7-2 21.6-13.3 43.3-.5z"/><path fill="#c3c5c0" d="M120.9 58.2L68.1 75.5l93.8-.7-.5-5.3z"/><path fill="#f6f8f8" d="M177.4-6.9l-9.8 24.1-21-3 2.7-1.1z"/><path fill="#6380ad" d="M209 48.4l-18.8-61.2 24.9-7.6 18.7 61.2z"/><path fill="#dad8c5" d="M132 95h21v7h-21z"/><ellipse cx="156" cy="110" fill="#494e58" rx="52" ry="8"/><path fill="#475a64" d="M134.1 185l56.1-54.1-33 2.5-32.6 42.8z"/><path fill="#f9faf5" d="M30 43l22 56-32-36z"/><ellipse cx="253" cy="99" fill="#646c7e" rx="53" ry="8"/><path fill="#9a9c9c" d="M128 74h34v25h-34z"/><path fill="#61656f" d="M52.5 92.1l91.5 19.2-23.3-15.5-19.2-3.2z"/><circle r="1" fill="#69798e" transform="matrix(-.4628 -10.23914 29.74258 -1.34434 151.8 46.2)"/><circle r="1" fill="#959ca3" transform="rotate(-174.4 85.5 28.6) scale(42.21677 7.15411)"/><path fill="#d8d4c9" d="M17 130l8 17 25-16z"/><path fill="#a2a3a1" d="M22.7 76.9l19-13 11.8 16.3L64 41.4z"/><path fill="#757c82" d="M121 126l-32 52 58-42z"/><circle r="1" fill="#85858a" transform="matrix(17.83714 -22.98063 3.04143 2.3607 55.1 101.3)"/><path fill="#f4eee1" d="M22.4 106.1l27.6-9 1.6 4.8-27.6 9z"/><path fill="#b0ada3" d="M66.4 143.6l-82.4 6.7 9.7 18.9 51.9 1z"/><path fill="#676764" d="M51 164h35v6H51z"/><path fill="#adaea8" d="M78 130h34v18H78z"/><path fill="#535a66" d="M58 102h31v29H58z"/><path fill="#919698" d="M99 17.5L74.4 70.9l47.1-15.5-27.1-11.8z"/><path fill="#fff" d="M78.3 76l-16.7 6.7-1.9-4.6 16.7-6.8z"/><path fill="#b3c3d8" d="M141-9l5 42 11-11z"/><ellipse cx="223" cy="132" fill="#798693" rx="114" ry="1"/><circle r="1" fill="#2f3742" transform="rotate(16 -304.7 892.1) scale(50.74078 8.12763)"/><path fill="#627088" d="M218.2 87.2l-10 16-26.4-16.4 10-16z"/><path fill="#272e2f" d="M123 123h58v8h-58z"/><path fill="#8093af" d="M175 55l-17-39 52 18z"/><path fill="#6c7d94" d="M53.6 10L41.8 26 22.4 12 34.2-4.2z"/><path fill="#c2c1b9" d="M-16 56.3L3.1 76.2l47.5-10.8-26.3 9.7z"/><path fill="#a7adb4" d="M45.2 34.2l-1.6 4.5-13.4 11L-3.9-.9z"/><path fill="#6780ac" d="M272.4 17.6l-20.7 31.9-20.1-13.1 20.7-31.9z"/><circle r="1" fill="#8298b9" transform="rotate(56.6 54.3 122.2) scale(33.12424 13.4184)"/><path fill="#bec2c3" d="M54 16l32 25-21 31z"/><path fill="#a4a6a1" d="M109 176l-35-30 24-11z"/><ellipse cx="43" cy="91" fill="#bcb8ad" rx="4" ry="9"/><path fill="#eef0ed" d="M1.7 35.9l11.2 36.9L-16 35.7 5.9 23.5z"/><circle r="1" fill="#dddfdc" transform="matrix(8.99427 .2041 -.05307 2.3386 252 110.3)"/><circle r="1" fill="#cdcabb" transform="matrix(-.93838 2.288 -23.55234 -9.65952 117.6 92.1)"/><path fill="#304b5d" d="M184.2 132.2l102 3.6-.4 12-102-3.6z"/><path fill="#989ea2" d="M52.8 65.7l-13.7 2.9-1.4-6.2 21.2-9.6z"/><path fill="#9aa6b7" d="M78-13l27 61 13-52z"/><path fill="#b8bcbd" d="M17.2 67.4l-5-28.9L-10-16l22.3 82.2z"/><path fill="#adafb6" d="M220 106h21v2h-21z"/><path fill="#566469" d="M153.5 185l-45.7-33.6 14.2-9.8 46.3 43.1z"/><path fill="#494e56" d="M152 99h32v26h-32z"/><path fill="#454d60" d="M243 101h13v5h-13z"/><path fill="#1e252b" d="M205 121h51v5h-51z"/><ellipse cx="81" cy="124" fill="#374147" rx="28" ry="4"/><path fill="#b8b5a6" d="M125 95h39v3h-39z"/><path fill="#edeae1" d="M103.6 92.5L86.1 86l-10.9-8.1 20.3-6.2z"/><path fill="#7e8087" d="M69 82l-46.6 49.2 61.1-37.3 30.1 1.6z"/><path fill="#394b52" d="M165 138l18 11-40 17z"/><ellipse cx="36" cy="128" fill="#545758" rx="48" ry="2"/><path fill="#fff" d="M20 63h17v6H20z"/><path fill="#839abe" d="M236 6.1l15.4-16.4-3.2 34.1-30.7 2.1z"/></g></g></svg>