<svg xmlns="http://www.w3.org/2000/svg" viewBox="0 0 1800 1200"><defs/><filter id="a"><feGaussianBlur stdDeviation="12"/></filter><rect width="100%" height="100%" fill="#2e3b4e"/><g filter="url(#a)"><g fill-opacity=".5" transform="translate(3.5 3.5) scale(7.03125)"><circle r="1" fill="#fff" transform="matrix(-254.78927 -10.36476 2.80438 -68.93811 109.9 48.8)"/><ellipse cx="147" cy="134" fill="#717d8b" rx="255" ry="64"/><circle r="1" fill="#d2dde5" transform="matrix(252.97613 -29.16097 4.26576 37.00616 135 10.7)"/><circle r="1" fill="#7f8187" transform="matrix(9.92598 -53.91815 46.59252 8.57738 21.1 125.1)"/><ellipse cx="179" cy="85" fill="#51617d" rx="185" ry="10"/><circle r="1" fill="#6f86a7" transform="matrix(1.58831 -15.63664 48.7069 4.94747 101.2 0)"/><path fill="#d2d6d7" d="M0 0h39v71H0z"/><circle r="1" fill="#42576c" transform="matrix(.30965 -23.15105 86.16942 1.15255 126.3 135)"/><path fill="#9d9c9a" d="M4 185l27-83-40 2z"/><ellipse cx="117" cy="56" fill="#95a6b9" rx="88" ry="21"/><path fill="#c5ced4" d="M166.8-44.5L277-30.9l-9.8 79.4L157 34.9z"/><ellipse cx="191" cy="107" fill="#b39d87" rx="129" ry="7"/><ellipse cx="222" cy="155" fill="#516a83" rx="66" ry="42"/><path fill="#5c677b" d="M127 80h69v25h-69z"/><ellipse cx="90" cy="98" fill="#a49285" rx="37" ry="14"/><path fill="#566170" d="M3.4 154.1l43.8-7.5 117.6-29.1-125.3-13.2z"/><path fill="#d2c6b5" d="M155 105h52v9h-52z"/><path fill="#253747" d="M62.1 144.2l9.8 1.8 120.5-10.4-82.1-2.3z"/><ellipse cx="194" cy="55" fill="#93a3b6" rx="152" ry="17"/><path fill="#566078" d="M58 94L26 69l-3 33z"/><circle r="1" fill="#55749a" transform="matrix(-.48264 -7.09484 55.01393 -3.74246 231.3 76.7)"/><path fill="#878f9a" d="M-16 154l11 22 83-32z"/><path fill="#465a70" d="M81 114h132v18H81z"/><path fill="#d3d4d4" d="M46 19h75v15H46z"/><path fill="#6c7b8e" d="M111 157l-57 1 74 19z"/><path fill="#a49e96" d="M239 88h17v27h-17z"/><circle r="1" fill="#b5bbc2" transform="rotate(6.1 -618.5 470.6) scale(43.52728 5.14875)"/><ellipse cx="73" cy="37" fill="#afb7bf" rx="245" ry="6"/><path fill="#666c78" d="M250 84l-37 20 16 6z"/><ellipse cx="13" cy="52" fill="#e8e3da" rx="15" ry="9"/><path fill="#aea094" d="M68 94h35v20H68z"/><path fill="#707680" d="M59 95l-67 40 58-2z"/><path fill="#0c202d" d="M203 143h21v3h-21z"/><path fill="#6a7c93" d="M222.2 134.3l48.8 28.3-22.2-61.5 22.2 34.2z"/><path fill="#c6ab94" d="M53 100.7l-35.6 3.1-24.5 12.3 46.8-11.2z"/><path fill="#7f7f84" d="M177 87h19v24h-19z"/><path fill="#827c7c" d="M146.2 113l44.4-17.8-39.5-3-95.6 21z"/><circle r="1" fill="#394758" transform="rotate(93.3 -63 95) scale(1 19.31351)"/><path fill="#8696ab" d="M61 44h90v11H61z"/><circle r="1" fill="#d2d4d5" transform="matrix(-19.92812 10.05804 -5.00175 -9.91002 175 23.5)"/><path fill="#737685" d="M7.8 108.8l36.3-35.4-60.1 2.4v38z"/><ellipse cx="162" cy="84" fill="#556b8a" rx="69" ry="7"/><path fill="#969ea5" d="M33 127l-49-17 23 19z"/><path fill="#2a3b49" d="M31 140h42v4H31z"/><ellipse cx="241" cy="112" fill="#cdc3b6" rx="101" ry="2"/><path fill="#a0aebd" d="M231.5 13L201 65.1l44-44.9 26-2.4z"/><ellipse cx="32" cy="131" fill="#475666" rx="80" ry="2"/><circle r="1" fill="#b8ac9f" transform="matrix(22.01123 -9.83596 1.17936 2.6392 206.2 102.5)"/><path fill="#69798e" d="M180 142h26v9h-26z"/><path fill="#c4b9ad" d="M119 92H99l22 6z"/><path fill="#8294af" d="M101.4 17.4l30.4-5.8-21-24.1L75.3 3.2z"/><path fill="#7e8894" d="M4 168h105v2H4z"/><path fill="#c1b4a4" d="M81.9 96.6l8.4-1 16.4 16.6-7.5-1.5z"/><path fill="#9cabba" d="M12 38l52-1-2 14z"/><path fill="#b3aca2" d="M263.5 98.8l-3.8-21.9 11.3 9.5-59.5 25.6z"/><path fill="#a1aebe" d="M169 3l-52 18 40-37z"/><circle r="1" fill="#e8ded0" transform="rotate(-21.2 373.5 -381) scale(14.33858 1)"/><path fill="#4b5967" d="M16 143l-23 12 43-9z"/><path fill="#a5a8aa" d="M7.7 167.1l-7 .7-2.4-27 7-.6z"/><circle r="1" fill="#787a88" transform="matrix(46.43927 6.43255 -.89028 6.42727 65.5 84.7)"/><path fill="#5b6777" d="M47.8 106.6l59.1 21.2-81.5 12.7 31-37.5z"/><circle r="1" fill="#a5b1c0" transform="matrix(3.0497 -6.81633 36.35339 16.26488 49.7 0)"/><path fill="#828284" d="M241.3 102.4l-6.1 8.5 20.2 3.8 15.6-10.2z"/><path fill="#405368" d="M174 183l74-37-17 39z"/><path fill="#5e7088" d="M248 136l-64 27 46-3z"/><path fill="#45566a" d="M104.9 112.5l63.7 10.3-36.4-13.7 10.8 18.3z"/><path fill="#273a4b" d="M124.7 140.9l38.6 1.6-26.8-8.2 46.6 3.5z"/><path fill="#a6adb5" d="M117 56h75v13h-75z"/><ellipse cx="216" cy="105" fill="#3f4e66" rx="4" ry="3"/><path fill="#c7d0d7" d="M241.5 34.3l21.4 13.8-8.7-26.8-22.7 4.4z"/><ellipse cx="100" cy="76" fill="#778ca7" rx="39" ry="3"/><circle r="1" fill="#253a4b" transform="matrix(-.00524 .99999 -17.5976 -.09214 127.3 163.4)"/><path fill="#acafb1" d="M129.8 128.2l-.8 2.9-4.8-1.3.8-2.9z"/><path fill="#bcc0c4" d="M62 60l-1 11-38-7z"/><path fill="#586c88" d="M151.8 90l20.3-14.7-39.3 3.4 24.6 38.6z"/><path fill="#49596c" d="M48 151h36v9H48z"/><circle cx="30" cy="96" r="6" fill="#4c5669"/><circle r="1" fill="#4d6179" transform="matrix(24.90737 14.72655 -4.15002 7.01902 137.4 153.9)"/><path fill="#717b87" d="M10.2 113.7l42.4-.2-17.7 20.4-33.4-19z"/><path fill="#23394d" d="M239 131h17v3h-17z"/><path fill="#9399a2" d="M6 153h38v4H6z"/><path fill="#667281" d="M44.3 132.3l-10 17.7 33.2-16.4 16.9-1.3z"/><path fill="#495d73" d="M138 115h95v17h-95z"/><path fill="#25394a" d="M177 163h15v3h-15z"/><path fill="#7c8799" d="M41 159h26v3H41z"/><path fill="#56697f" d="M271 133.8l-77.9-11-8.4-9.1 28.5-.5z"/><path fill="#2e4050" d="M41 142l-12-2 4-7z"/><path fill="#39495a" d="M111.2 156.6l-54.6-30 26.9 9.6.2-7.9z"/><circle cx="144" cy="110" r="4" fill="#c3af99"/><path fill="#576276" d="M32.7 84.4l-.9 18.2-16.2-18.3L-8 101.8z"/><path fill="#746d6e" d="M33 107h59v5H33z"/><path fill="#d8dadd" d="M-16-6.8v26.6l34.4-6.7-8-24.1z"/><path fill="#30404f" d="M-4 139.9v-1l14 1.2v1z"/><path fill="#605d64" d="M195 95h18v2h-18z"/><ellipse cx="235" cy="154" fill="#314558" rx="7" ry="4"/><ellipse cx="103" cy="25" fill="#d5d5d4" rx="16" ry="8"/><path fill="#d0d0ce" d="M48.2 49.5l-14.9-2.7-17.1-5.2 5.9 17.6z"/><path fill="#8d8a94" d="M19.7 84.2l-10-10.5-7.8 16.4L27 75.7z"/><path fill="#f7eedd" d="M164 107.2l13.7-3.4.2 1-13.6 3.4z"/><path fill="#16252a" d="M228 168h10v2h-10z"/></g></g></svg>