<svg xmlns="http://www.w3.org/2000/svg" viewBox="0 0 4634 3089"><defs/><filter id="a"><feGaussianBlur stdDeviation="12"/></filter><rect width="100%" height="100%" fill="#283d4b"/><g filter="url(#a)"><g fill-opacity=".5" transform="translate(9 9) scale(18.10156)"><circle r="1" fill="#c9c7d1" transform="matrix(228.2951 -12.76368 4.4376 79.37216 109.2 62.3)"/><circle r="1" fill="#d8dfda" transform="matrix(1.0962 19.56243 -109.31888 6.12578 50.5 112.6)"/><ellipse cx="219" cy="52" fill="#486081" rx="52" ry="75"/><circle r="1" fill="#4b4c53" transform="matrix(-44.1156 -14.07908 9.54668 -29.9137 28.2 55.4)"/><circle r="1" fill="#979b9c" transform="matrix(-65.97405 28.14032 -6.41439 -15.03832 138.6 108.9)"/><ellipse cx="217" cy="159" fill="#2f2a24" rx="107" ry="28"/><circle r="1" fill="#c3bcb7" transform="matrix(-2.23464 8.83122 -23.49151 -5.94427 88.7 40.5)"/><circle r="1" fill="#889dbb" transform="rotate(-50.8 108.7 -154) scale(22.57146 41.07531)"/><circle r="1" fill="#525a66" transform="matrix(-31.64322 -18.93808 6.07278 -10.14687 140 66.9)"/><ellipse cx="30" cy="107" fill="#c0cfd6" rx="64" ry="14"/><path fill="#afa695" d="M-16 116.7l2.8 27 21.6-.4 110.9-13.2z"/><ellipse cx="61" cy="164" fill="#4b4c49" rx="124" ry="23"/><path fill="#626464" d="M93 111h140v8H93z"/><ellipse cx="253" cy="133" fill="#0e0604" rx="45" ry="10"/><circle r="1" fill="#5274a2" transform="rotate(-14 173.1 -805.2) scale(49.91424 20.04196)"/><path fill="#a8b3be" d="M182 115L72 103l28-27z"/><circle cx="247" cy="76" r="48" fill="#5c6471"/><path fill="#a5bbb1" d="M132 126h67v8h-67z"/><ellipse cx="136" fill="#b7b3b5" rx="26" ry="16"/><path fill="#555e70" d="M86.4 14l11-17.8L135.7 20l-11 17.8z"/><circle r="1" fill="#565856" transform="matrix(-11.47066 -10.80455 11.18598 -11.8756 194.1 111.3)"/><path fill="#a3a4a4" d="M229.5 86.2l-40.6-11.7-56.5 59.2 61.3-43.6z"/><path fill="#a0adbc" d="M139.9 34.3l-6.6 6.5L186 56.6l23-.3z"/><path fill="#505868" d="M31 14h32v43H31z"/><ellipse cx="95" cy="66" fill="#76777d" rx="64" ry="11"/><circle r="1" fill="#84868e" transform="rotate(-72.2 45.6 16.7) scale(5.91087 44.6886)"/><path fill="#9fa0aa" d="M16.8-12.3L83.3-16l3.5 81-13.7-45.6z"/><path fill="#4e555e" d="M43.9 77.8l54.3 10.4-8.3-1.8-17.1-15.6z"/><path fill="#535d6b" d="M141.1 67.9l86-12.9-65.9 35.1-12.2-4.3z"/><circle r="1" fill="#393d44" transform="matrix(14.07359 -2.05311 1.01583 6.96325 251.5 78.8)"/><circle r="1" fill="#717584" transform="matrix(-3.70438 14.12027 -41.01442 -10.75993 22.7 14.4)"/><path fill="#827d78" d="M20.8 96.1L-16 76.8l37.7 4.1 41.8 14.9z"/><ellipse cx="106" cy="112" fill="#62656c" rx="10" ry="6"/><ellipse cx="108" cy="104" fill="#a1bdd6" rx="61" ry="4"/><path fill="#151312" d="M150 137h81v5h-81z"/><ellipse cx="116" cy="91" fill="#9d9b9a" rx="59" ry="6"/><path fill="#0d0e0d" d="M36.1 143.4l2.3 8.5 12 .9-29.1-.5z"/><path fill="#484c54" d="M49 84l-65-12 30-11z"/><path fill="#3e494f" d="M52 143h117v20H52z"/><path fill="#6b665e" d="M35 124l-4 18-14 7z"/><path fill="#a8aba8" d="M57 121h105v11H57z"/><path fill="#698fa3" d="M269.3 127.9l-30.5-6 2-9.8 30.4 6z"/><circle r="1" fill="#6d86ae" transform="rotate(27.7 92.7 488.9) scale(8.1317 17.31848)"/><ellipse cx="186" cy="120" fill="#5b5b53" rx="28" ry="3"/><path fill="#647287" d="M146 21l65-34-47 47z"/><path fill="#79808d" d="M242 41l-12 53-19 1z"/><path fill="#5483b8" d="M170 28l31 19-20 9z"/><path fill="#8aaeab" d="M207 130l19-12-36 10z"/><path fill="#454d56" d="M67.6 47L58 63.5 36.4 51 46 34.5z"/><path fill="#434a57" d="M2 19l-18 18 35 3z"/><path fill="#1b1d1e" d="M271 129.8l-34.7-8.5-11.8 6.4-68.6 15z"/><path fill="#989796" d="M80.2 79.9l108.1 38.5-37.8-26.7-67.4-21.1z"/><path fill="#889396" d="M121 109l-26 33 26 1z"/><path fill="#b8cdd9" d="M41 108h46v12H41z"/><path fill="#848785" d="M101 141l-71 1 36-12z"/><circle r="1" fill="#242f36" transform="matrix(67.08902 -18.24344 6.77663 24.92062 213.1 169)"/><circle r="1" fill="#879fbc" transform="matrix(-.87888 -3.40395 8.76402 -2.2628 188 30.7)"/><path fill="#959598" d="M68.3 47.8l3.5-7.2 36 17.6-3.6 7.2z"/><path fill="#aba8a7" d="M137.4 20.9l-17.3-36.7 38.6 62.2-17.2-2.8z"/><path fill="#64686a" d="M137 120h20l-17-12z"/><ellipse cx="225" cy="39" fill="#53637c" rx="43" ry="8"/><path fill="#bbb9b7" d="M95.4 36.2l9.4 8.8-33.9-5.9 4.6-8z"/><path fill="#65778f" d="M147 46.3l42.2 25.6-52.2-4.8-20.4-22.7z"/><ellipse cx="11" cy="135" fill="#979187" rx="17" ry="6"/><circle r="1" fill="#5b6372" transform="matrix(-1.4506 -10.4826 13.28508 -1.8384 104 17.6)"/><path fill="#8690a1" d="M193 48h24v6h-24z"/><path fill="#656970" d="M128.2 70.4L26.7 74.5l26.7 18.8 26.8-33.8z"/><path fill="#717886" d="M14 34.3L5.1 3.4l71.2 11.3 12.2 6.6z"/><path fill="#adb1ae" d="M152 90h5v43h-5z"/><circle r="1" fill="#7d7c7e" transform="rotate(-23.3 222 -242.1) scale(8.71426 25.5938)"/><ellipse cx="33" cy="98" fill="#c2b6a7" rx="32" ry="4"/><path fill="#44546b" d="M199 59h28v10h-28z"/><circle r="1" fill="#476d9c" transform="rotate(63.6 95.8 173.3) scale(7.36493 36.17202)"/><path fill="#c4c4b8" d="M50.4 131.7l-101.2-12.4.4-3 101.2 12.4z"/><path fill="#c9d3d2" d="M-13 105l42 3-2 15z"/><path fill="#acafb6" d="M144.2 14.4l-21.6 2.8 6-33.2-18.1 23.7z"/><path fill="#4c5a72" d="M251.3 87.6l.2-49.5-6.3-26.4L271 4.4z"/><path fill="#2f3b3f" d="M174.9 149.8l-99.2 19.8L184 185l-.2-59.8z"/><path fill="#778182" d="M31 107h2v30h-2z"/><ellipse cx="182" cy="144" fill="#444547" rx="174" ry="2"/><path fill="#72888d" d="M139 133h37v3h-37z"/><path fill="#948d80" d="M13.9 93.7l-4.4 5.5-23.4-19 4.4-5.4z"/><path fill="#9da1a2" d="M114 110h22v13h-22z"/><path fill="#494946" d="M29 185l-14-46-31 24z"/><path fill="#888986" d="M153.3 118.6l22.3-17.4 6 10.1-19.4 15.3z"/><path fill="#555c63" d="M217.7 93.2l-44.8 28.6 43.9-1.5L190 93.8z"/><path fill="#b4b7b5" d="M152 106.3l21.4-12.9 2.6 4.3-21.4 12.9z"/><circle r="1" fill="#4e545b" transform="matrix(13.0063 5.4736 -1.94878 4.63066 156.2 79.4)"/><path fill="#818286" d="M9-6.3l-25 40.4 34.1 14.5L-16 81.1z"/><circle r="1" fill="#646d7e" transform="matrix(31.14999 20.94854 -3.35253 4.98513 38.4 20.5)"/><ellipse cx="249" cy="110" fill="#455c71" rx="18" ry="5"/><path fill="#7898c0" d="M199 50l-36 10-13-13z"/><path fill="#7f8388" d="M192.4 73.5l27.3 22.8-26.1-7.1 16.3-17z"/><path fill="#737d88" d="M224.3 105.9l40.4-22-7.4 10.6-45.8 20.5z"/><path fill="#c8c8c5" d="M31.5 97.8l56.6-3.1-1.2 1.2-9.7 5.4z"/><circle cx="35" cy="149" r="3"/><path fill="#717375" d="M86 112h30v6H86z"/><path fill="#808591" d="M143.9 12.7L93.1 59.4l90.4-54.9 1.6.4z"/><path fill="#717c84" d="M74 134h37v8H74z"/><path fill="#c4beb4" d="M118 100l25-6-9 9z"/></g></g></svg>