<svg xmlns="http://www.w3.org/2000/svg" viewBox="0 0 1800 1200"><defs/><filter id="a"><feGaussianBlur stdDeviation="12"/></filter><rect width="100%" height="100%" fill="#543a32"/><g filter="url(#a)"><g fill-opacity=".5" transform="translate(3.5 3.5) scale(7.03125)"><circle r="1" fill="#001722" transform="rotate(-95 118.8 13.3) scale(66.85892 254.99999)"/><circle r="1" fill="#5e6050" transform="matrix(169.554 -7.4835 1.33256 30.19192 123.8 4.2)"/><circle r="1" fill="#412926" transform="matrix(1.07926 18.35143 -221.38978 13.02007 101.5 67)"/><circle r="1" fill="#11181d" transform="matrix(-122.95768 6.19736 -.8603 -17.06854 215.3 97.3)"/><path fill="#ff683d" d="M84 97l-4 6 14 1z"/><circle r="1" fill="#532d28" transform="matrix(2.509 13.51704 -46.16327 8.56868 101 71)"/><ellipse cx="60" cy="148" fill="#293433" rx="134" ry="34"/><circle r="1" fill="#202126" transform="matrix(-63.80217 -21.67166 7.29823 -21.48627 22.4 94.2)"/><circle r="1" fill="#4f4234" transform="matrix(-.94748 -17.02319 153.66606 -8.55279 141.4 37)"/><circle r="1" fill="#615b4f" transform="matrix(107.07335 0 0 14.21609 87.6 1.3)"/><circle r="1" fill="#372e29" transform="matrix(-3.8504 -14.36989 53.3183 -14.2866 246 50.8)"/><ellipse cx="104" cy="155" fill="#050b10" rx="26" ry="3"/><circle r="1" fill="#3f2c2a" transform="matrix(-6.41771 15.11918 -46.98365 -19.94338 23.4 63.5)"/><ellipse cx="90" cy="169" fill="#363836" rx="110" ry="8"/><path fill="#1f2227" d="M89 88h69v28H89z"/><ellipse cx="228" cy="139" fill="#1f2a2a" rx="54" ry="27"/><path fill="#682a26" d="M102 67L92 86l-20-3z"/><path fill="#4c493f" d="M201.7 32.9L198.4-14l69.9-4.9 3.3 46.9z"/><ellipse cx="74" cy="31" fill="#5a4638" rx="127" ry="10"/><ellipse cx="255" cy="107" fill="#10171b" rx="85" ry="7"/><circle r="1" fill="#252226" transform="matrix(-2.24025 -10.4667 97.0616 -20.7747 186 85.2)"/><ellipse cx="63" cy="95" fill="#1f2025" rx="28" ry="6"/><path fill="#070e13" d="M27.4 159.4l14.5-3.7.7 3-14.5 3.6z"/><ellipse cx="74" cy="141" fill="#2d3132" rx="146" ry="9"/><ellipse cx="42" cy="106" fill="#1a1f23" rx="44" ry="7"/><path fill="#ff7d46" d="M83 99l-1 4h9z"/><path fill="#262d2e" d="M0 113h207v19H0z"/><circle r="1" fill="#47382f" transform="matrix(-77.13923 23.54303 -3.16953 -10.38503 222.3 43)"/><path fill="#212126" d="M90 85h51l-52 30z"/><circle r="1" fill="#4a352c" transform="matrix(.94171 -9.24205 70.44927 7.17839 64.5 55)"/><circle r="1" fill="#0e1418" transform="matrix(-11.48713 .1203 -.01047 -.99995 58.6 153.5)"/><path fill="#1b2324" d="M161 160h57v6h-57z"/><path fill="#343636" d="M80 156h30v14H80z"/><ellipse cx="243" cy="160" fill="#060c0f" rx="45" ry="1"/><ellipse cx="109" cy="19" fill="#5d4e41" rx="68" ry="9"/><path fill="#242327" d="M68.7 110.5l-47.6-8.9 75.3-16.9-9.3 12.6z"/><path fill="#171d20" d="M127 167h22v3h-22z"/><ellipse cx="77" fill="#605b4f" rx="80" ry="6"/><circle r="1" fill="#3a2728" transform="matrix(.74843 6.08628 -79.02234 9.71736 181.8 70.6)"/><circle r="1" fill="#4f4138" transform="rotate(-92.3 16.1 16.3) scale(14.56092 30.30654)"/><circle r="1" fill="#462e29" transform="rotate(173 62.5 36) scale(70.14189 6.86371)"/><path fill="#2a2f2e" d="M271 157.7l-19.2-2.6-45.8-14.9-2.3 19z"/><path fill="#171e20" d="M150.5 151.4l-33-1.8v-1l33 1.8z"/><path fill="#2e3431" d="M211 163h45v5h-45z"/><circle r="1" fill="#555146" transform="matrix(57.82804 -7.6311 .81399 6.16836 205.6 2.6)"/><circle r="1" fill="#53382e" transform="matrix(37.80863 -2.06628 .39584 7.24308 94 51.4)"/><path fill="#ff7c49" d="M85 99h2v6h-2z"/><circle cx="91" cy="137" r="17" fill="#2d3232"/><ellipse cx="93" cy="155" fill="#0c1216" rx="18" ry="2"/><ellipse cx="39" cy="84" fill="#33242a" rx="34" ry="7"/><path fill="#171d20" d="M66 157h19v3H66z"/><path fill="#622b26" d="M89 66v20H77z"/><ellipse cx="14" cy="154" fill="#323535" rx="35" ry="3"/><path fill="#2f3433" d="M97.9 147.8L75.4 185l16.2-47.3 42.8 18.2z"/><path fill="#0c1316" d="M150 156.8l30-.6v1l-30 .6z"/><ellipse cx="91" cy="32" fill="#5d4637" rx="44" ry="7"/><ellipse cx="133" cy="144" fill="#1d2425" rx="20" ry="2"/><circle r="1" fill="#50443a" transform="matrix(-62.67553 12.18289 -2.12297 -10.92172 241.5 21.7)"/><path fill="#1b2123" d="M222.1 142l39.1 2.7-45 .7-42.2-3.1z"/><ellipse cx="104" cy="169" fill="#433f39" rx="16" ry="3"/><circle cx="86" cy="101" r="3" fill="#ff6f41"/><path fill="#232227" d="M96 108l39-7-50-6z"/><path fill="#181e22" d="M53 107h151v6H53z"/><path fill="#0f1519" d="M160 149h16v2h-16z"/><path fill="#0b1114" d="M187 132h18v2h-18z"/><path fill="#192022" d="M23 149h33v2H23z"/><ellipse cx="208" cy="159" fill="#0c1215" rx="20" ry="1"/><circle r="1" fill="#332a29" transform="matrix(2.11614 8.93183 -12.31215 2.91701 255 54.1)"/><path fill="#303433" d="M138 163l9-25 28 6z"/><path fill="#161a1c" d="M10 169h22v1H10z"/><ellipse cx="116" cy="137" fill="#1f2627" rx="58" ry="1"/><path fill="#363937" d="M92.8 151l-99.7-7v-1l99.8 7z"/><ellipse cx="120" cy="81" fill="#3f2327" rx="27" ry="4"/><path fill="#050c0f" d="M108 152l10 1v1l-10-1z"/><path fill="#1f2627" d="M180 113h76v10h-76z"/><ellipse cx="177" cy="81" fill="#2c2429" rx="38" ry="5"/><path fill="#502a28" d="M83.5 81.3l-25.4 5.6 58.1-20.3 4.5 3.4z"/><circle r="1" fill="#544b40" transform="matrix(-1.08668 -7.29373 54.91346 -8.18149 208.7 14.3)"/><path fill="#1a2021" d="M175 140h8v5h-8z"/><path fill="#12181c" d="M119.4 160.4l-.3-1 13.5-3.8.3 1z"/><path fill="#161d20" d="M34.1 156.1l20.3 5.4-31.3-.4 9.3-4.8z"/><path fill="#2d3131" d="M200 138l29 28-17-30z"/><path fill="#0d181a" d="M222 166l-30 11 42 8z"/><path fill="#343736" d="M134.1 134.6l-4.3 7.3-14.7 5.9 18.4.5z"/><ellipse cx="190" cy="102" fill="#1a1f23" rx="53" ry="6"/><ellipse cx="247" cy="161" fill="#0d1417" rx="19" ry="1"/><path fill="#171d20" d="M58 151h23v2H58z"/><path fill="#080e12" d="M4 161l-20 4v-8z"/><ellipse cx="228" cy="137" fill="#2b302f" rx="21" ry="4"/><ellipse cx="46" cy="122" fill="#2a3030" rx="25" ry="6"/><path fill="#393b3a" d="M68 160l20 1v9z"/><ellipse cx="149" cy="160" fill="#2f3333" rx="27" ry="2"/><path fill="#3f2828" d="M67.5 75.1l-49.8-9.7 1.2 12.3 90.7 1.8z"/><path fill="#2d3332" d="M150.7 132.1l29.9.9-5-12.5-12.5 25.7z"/><path fill="#232327" d="M111.6 107.3l-54-16.6L-16 117 99.3 84.7z"/><path fill="#3f2e29" d="M165 68l73-6-42-11z"/><path fill="#13181c" d="M185 154h17v3h-17z"/><path fill="#49372e" d="M247.3 38l1.1 8-127.7 18-1.1-8z"/><path fill="#29302f" d="M188.1 160.1l9.7 9.7 50.3-4.5-83.5 2.9z"/><path fill="#13191d" d="M142 164h10v2h-10z"/></g></g></svg>