<svg xmlns="http://www.w3.org/2000/svg" viewBox="0 0 1800 1200"><defs/><filter id="a"><feGaussianBlur stdDeviation="12"/></filter><rect width="100%" height="100%" fill="#4c3728"/><g filter="url(#a)"><g fill-opacity=".5" transform="translate(3.5 3.5) scale(7.03125)"><circle r="1" fill="#98d1ff" transform="rotate(-90.4 91.5 -61.8) scale(88.97225 146.22299)"/><circle r="1" fill="#9dd5ff" transform="matrix(74.40472 -18.4133 8.79362 35.53337 200.7 21.5)"/><circle r="1" fill="#e9c07c" transform="matrix(36.28478 -.52337 .28928 20.05579 129.3 153)"/><circle r="1" fill="#19364a" transform="rotate(91.7 -41.9 66.9) scale(129.28135 54.71408)"/><circle r="1" fill="#f0a954" transform="rotate(3 -1856.5 2353.4) scale(62.9037 10.85313)"/><circle cx="208" cy="128" r="57" fill="#2c4153"/><ellipse cx="22" cy="21" fill="#51739c" rx="119" ry="36"/><ellipse cx="7" cy="118" fill="#000c08" rx="52" ry="42"/><circle r="1" fill="#f5ffff" transform="rotate(-179.8 89.4 7.5) scale(27.57688 10.98148)"/><ellipse cx="79" cy="70" fill="#816a5e" rx="51" ry="29"/><circle r="1" fill="#061515" transform="rotate(1.9 -3602 6769) scale(91.42002 13.43031)"/><circle r="1" fill="#4e80b7" transform="matrix(-2.9245 26.07256 -51.38087 -5.76329 220.4 60.9)"/><path fill="#fff497" d="M107 114h50l-19-20z"/><ellipse cx="83" cy="169" fill="#595b5d" rx="32" ry="34"/><path fill="#ffc864" d="M155 134l-51 10 46 13z"/><ellipse cx="191" cy="102" fill="#9f806c" rx="55" ry="9"/><path fill="#376ca5" d="M282-.6l-7.2 25L192 .5l7.1-25z"/><ellipse cx="190" cy="164" fill="#5d5b5d" rx="38" ry="26"/><path fill="#595a69" d="M118.7 87.1l61.5 17.3 88.4.1-83.1-33.9z"/><ellipse cx="112" cy="125" fill="#1f353e" rx="66" ry="11"/><path fill="#fcc982" d="M104 108h87v5h-87z"/><circle r="1" fill="#d8ecff" transform="matrix(13.4751 8.66199 -2.95598 4.5985 226.8 19)"/><circle r="1" fill="#555f6d" transform="matrix(.6868 -21.85215 38.24685 1.20209 35 56.8)"/><circle r="1" fill="#6fa5d8" transform="matrix(-9.80872 14.0681 -22.02751 -15.35828 131.4 0)"/><circle r="1" fill="#9abce2" transform="matrix(41.86606 -20.34378 5.80748 11.9514 160.3 41.3)"/><circle cx="54" cy="7" r="55" fill="#506d8b"/><path fill="#0b1716" d="M28 110h77v14H28z"/><path fill="#8e745f" d="M51 77h93v17H51z"/><path fill="#e6c289" d="M112 137h15v19h-15z"/><circle r="1" fill="#778ead" transform="matrix(33.81441 16.77903 -7.02085 14.14897 133.2 57.5)"/><circle r="1" fill="#2b425b" transform="matrix(-39.21497 15.1318 -8.99015 -23.29853 229.5 168.9)"/><path fill="#9ec3ea" d="M236.6 55.5L271 40 195.4 5.2 238 36.7z"/><path fill="#f9ffff" d="M162 21V3l37 14z"/><path fill="#f5bd58" d="M137.8 135.2l14-1.3 2.4 29-14 1.2z"/><path fill="#876442" d="M125.7 125.3l.6 59.7 28.6-24.3 4.8 24.3z"/><circle r="1" fill="#111d24" transform="matrix(-52.96592 -3.42515 .76201 -11.78365 234.5 121.4)"/><path fill="#886a51" d="M168.5 140.7l18.6-4 4.4 20.6-18.6 4z"/><path fill="#625950" d="M73 136h36v30H73z"/><circle cx="165" cy="126" r="16" fill="#2e2e26"/><ellipse cx="233" cy="92" fill="#576882" rx="41" ry="14"/><circle r="1" fill="#172a34" transform="matrix(11.03213 12.03946 -32.9856 30.22573 24.6 159.2)"/><path fill="#8f8578" d="M49.3 89.6l17.9 14.3 17.9 8.8 21.6-15.3z"/><path fill="#f7c47d" d="M155 109l-24-17-24 23z"/><path fill="#78a3cf" d="M193.5 12.8L219-16l-92 31.3 4.9-23z"/><path fill="#ffffe3" d="M138 111h15v5h-15z"/><circle cx="134" cy="126" r="13" fill="#43413c"/><circle r="1" fill="#5888b7" transform="rotate(76.6 81.2 154.6) scale(17.09992 12.22477)"/><ellipse cx="50" cy="69" fill="#5a585b" rx="42" ry="10"/><path fill="#b99369" d="M157 109l29 4 2-17z"/><path fill="#a6c7e6" d="M219 13l-83 16 5 25z"/><path fill="#9a867a" d="M97.2 81.7l21.6-28.5 13.3 10.2 10.2 37.5z"/><path fill="#746f6a" d="M69.6 98.9L-5.9 64.3l109.5 26.4-16.8 6.7z"/><path fill="#544f54" d="M145 83h29v14h-29z"/><path fill="#18201a" d="M-5.6 109.3l106.4 17.6L57 96.5l-69.1-34.1z"/><path fill="#fbf1d7" d="M107.5 114.5v-5h19v5z"/><circle cx="249" cy="127" r="22" fill="#142128"/><path fill="#3b4a5d" d="M-7 62.2l65.5 7.9-38.1-20.9-36.4.7z"/><path fill="#d5a568" d="M97.8 109.1l12.4 4 45.3-8.7-22.2-13.7z"/><ellipse cx="58" cy="13" fill="#4b7297" rx="62" ry="15"/><circle r="1" fill="#6c6f7a" transform="matrix(-4.4897 17.07728 -31.71908 -8.3391 82.5 50)"/><path fill="#739fca" d="M206 50.9L199.4 19l-39.1 54-27.8-20.1z"/><circle r="1" fill="#5a82aa" transform="rotate(15 -124.3 910.8) scale(35.86804 19.248)"/><ellipse cx="110" cy="130" fill="#33424c" rx="70" ry="5"/><ellipse cx="201" cy="106" fill="#9a8472" rx="38" ry="4"/><ellipse cx="131" cy="116" fill="#805831" rx="19" ry="2"/><path fill="#655141" d="M101 163h41v7h-41z"/><path fill="#3f6d99" d="M265 .4L253.2 12l-9.8-3L226-16z"/><circle r="1" fill="#0d181a" transform="matrix(.94015 -66.43467 12.52835 .1773 1.4 136.2)"/><path fill="#688eb5" d="M122 53l-8-69 38 32z"/><path fill="#2d3022" d="M33.5 100.9l-45.8-38.2 50.2 22.1 24 13.9z"/><ellipse cx="229" cy="22" fill="#fff" rx="3" ry="6"/><path fill="#abc9e6" d="M166.2 23.4L119.3-16H192l-39.4 35.2z"/><circle r="1" fill="#4a6a8c" transform="matrix(-.69761 7.95931 -23.31113 -2.04316 181.8 76.5)"/><path fill="#4d4743" d="M158 138h16v32h-16z"/><path fill="#384856" d="M0 129h70v2H0z"/><circle r="1" fill="#f6c760" transform="matrix(4.3497 -.26572 .70369 11.51893 146.4 144)"/><path fill="#54677e" d="M0 21h89v24H0z"/><path fill="#1a231e" d="M170.7 111.8l76.8 16.9-80.6 3.5-6.4-19.4z"/><path fill="#d8eaf8" d="M183.4 23.8l-2.9-7.5 26.1-10 2.9 7.4z"/><circle r="1" fill="#283237" transform="rotate(161.6 34 70.3) scale(25.52877 11.33451)"/><circle r="1" fill="#a27b53" transform="matrix(-6.96477 -14.47173 4.91616 -2.36599 112.7 154.4)"/><path fill="#a0c1e3" d="M244.5 21.7L214.7 2.8 271 57.9v-2.4z"/><circle r="1" fill="#4e596c" transform="matrix(.15336 -5.85651 41.62855 1.09008 231.3 96.2)"/><path fill="#75a1d0" d="M271 48l-71-32 37 37z"/><path fill="#3c4951" d="M176 131h80v2h-80z"/><path fill="#645a52" d="M69.3 137l31 2.1-1.6 22-31-2.2z"/><ellipse cx="21" cy="124" fill="#070908" rx="35" ry="4"/><circle r="1" fill="#bb8c4f" transform="matrix(-1.40722 12.7627 -2.55967 -.28223 153.9 149)"/><path fill="#2a363d" d="M42 193.9l-18.3-41.2L52 140.1l18.3 41.2z"/><path fill="#b98545" d="M126.9 137.5l22.4-3.1-22.2 22.8 23.3 9.2z"/><path fill="#5483af" d="M41 2l58-18 22 22z"/><path fill="#6995c2" d="M250.6 4.8l3.4 8.9-41.3-11.9L267.2 34z"/><path fill="#d5b379" d="M114 136h13v21h-13z"/><path fill="#ffdb70" d="M151 107l-15 5V99z"/><path fill="#192945" d="M200 109h15v6h-15z"/><path fill="#6f6862" d="M49.5 87.8l31.8 6 16.6-20.3-8.9-5.9z"/><path fill="#7a6e6c" d="M125 80.1l10.4-5.4 33 35.8L146.2 95z"/><path fill="#3c3427" d="M130 112.2l23.4 18.4 12.7-20-44.6 15.2z"/><circle r="1" fill="#7687a1" transform="matrix(-9.99062 -17.66316 11.19013 -6.32935 121.1 50.8)"/><ellipse cx="130" cy="127" fill="#4d5863" rx="13" ry="3"/></g></g></svg>