<svg xmlns="http://www.w3.org/2000/svg" viewBox="0 0 1800 1200"><defs/><filter id="a"><feGaussianBlur stdDeviation="12"/></filter><rect width="100%" height="100%" fill="#2a4e54"/><g filter="url(#a)"><g fill-opacity=".5" transform="translate(3.5 3.5) scale(7.03125)"><circle r="1" fill="#e0a16d" transform="matrix(-254.97776 -3.36783 .35755 -27.0704 94.4 72)"/><path fill="#f6cb84" d="M30 97l147-3-89-39z"/><ellipse cx="110" cy="145" fill="#422416" rx="254" ry="48"/><circle r="1" fill="#69574e" transform="matrix(-7.07973 50.46096 -252.5267 -35.42977 166.5 27.7)"/><circle r="1" fill="#1e2a27" transform="matrix(-12.24018 70.85235 -8.32698 -1.43854 191.4 73.4)"/><path fill="#ffffef" d="M77 71.5l-3.4 20.8-1.1-2.8L111 72.9z"/><circle r="1" fill="#5b6468" transform="rotate(157.1 -16.3 80.4) scale(54.88504 19.68839)"/><path fill="#141e16" d="M206.6-16L255-.8l-61.2 46.3 1.1-4.6z"/><circle r="1" fill="#675e55" transform="matrix(-15.77413 -39.43813 28.26523 -11.30529 19.7 44.5)"/><circle r="1" fill="#151410" transform="matrix(86.94766 3.3402 -.42981 11.18837 187 163.4)"/><circle r="1" fill="#747674" transform="rotate(139.5 116.8 61.2) scale(60.67751 17.46192)"/><path fill="#605e51" d="M60.2 142.9l72 8.2-32.2-24.2 15.6-12.6z"/><path fill="#9f9175" d="M56 43.6l6 15.1 62.5 23.6 19.3-22z"/><circle r="1" fill="#63645e" transform="rotate(159.7 74.2 42.3) scale(38.23147 21.25375)"/><circle r="1" fill="#525558" transform="rotate(-169.9 130.6 24.2) scale(20.32492 49.73234)"/><path fill="#454038" d="M58.5 40.1l61.7 14.2 60.9-41.1-69.6 7.6z"/><path fill="#6b818d" d="M124 146h48v4h-48z"/><path fill="#b59367" d="M138.5 98.4l-2.9-13.7 51.9-11 2.9 13.6z"/><ellipse cx="13" cy="113" fill="#262621" rx="48" ry="16"/><path fill="#607078" d="M189.1 163.2l28.2 21.8-12.8-18.3-7.6-9.3z"/><path fill="#000603" d="M204 25l-17 120.8-5-.7 17-120.9z"/><path fill="#596c78" d="M210.7 155.1l29-1.3 22.5-1.1-70.1-4.8z"/><path fill="#ab8254" d="M4 78l50 19h-70z"/><ellipse cx="117" cy="78" fill="#806a4e" rx="14" ry="5"/><path fill="#7f5e34" d="M77 151h25v8H77z"/><path fill="#735e47" d="M9 76h58v7H9z"/><path fill="#5c5d58" d="M122.3 43l74.9-20.8-6 59.5-13.6 1.4z"/><path fill="#fff" d="M76 75l27-3-20 10z"/><path fill="#241f16" d="M52.7 142.5l30.5 5.8-19.3 17.3-38.8 17z"/><ellipse cx="98" cy="87" fill="#e2bd78" rx="50" ry="5"/><path fill="#af884f" d="M89 91h89v7H89z"/><path fill="#9a7341" d="M77 166h24v4H77z"/><ellipse cx="121" cy="138" fill="#28261f" rx="49" ry="4"/><path fill="#95774a" d="M79.6 137l-5.1-1 15.6-6.7 23.3 5z"/><path fill="#222624" d="M21.8 150l-37.8 3.2v23.2l27-15.9z"/><circle cx="255" cy="11" r="9" fill="#918f85"/><ellipse cx="240" cy="117" fill="#363e41" rx="67" ry="21"/><path fill="#a99473" d="M74 48l27 9-46 20z"/><path fill="#5d6363" d="M-16 175l35 10 39-52z"/><path fill="#857f72" d="M201.6 50.5l25.6 4.6-6.8 38.4-25.6-4.6z"/><circle r="1" fill="#59564d" transform="rotate(55.9 33 62) scale(46.86414 47.43314)"/><path fill="#171b15" d="M184 154l-5-31.5 12.2-19.8 3.3 39.9z"/><path fill="#27241c" d="M173 155.2l-44.2-6-26-1.9 6.4 37.7z"/><path fill="#968670" d="M139.4 44.7l6 5.3-22.8 25.3-6-5.3z"/><path fill="#4e4839" d="M138.7 60.6l.7.7-82 82-.8-.6z"/><path fill="#caa971" d="M13 91.8l-20 .4v-10l20-.4z"/><path fill="#716d65" d="M218 47h31v51h-31z"/><circle r="1" fill="#464a44" transform="matrix(-1.64507 -.16733 4.83418 -47.5257 182.1 85)"/><path fill="#465252" d="M158 136h21v18h-21z"/><path fill="#3e4240" d="M203.5 14.7l-14.9 23.6-34.7-13.6L231.5-6z"/><path fill="#5c523c" d="M117.4 130.4l-39.7-.9 3.8-20 25.4 28.1z"/><circle r="1" fill="#706960" transform="matrix(-2.79043 16.40118 -34.96388 -5.94862 28.5 54.6)"/><path fill="#2a2d2b" d="M97 142l83-43-11 41z"/><path fill="#ddbd80" d="M68.4 73l1.3 22.9 17.8-32.8 28 12.4z"/><path fill="#84796b" d="M194 52l-10 18 3 21z"/><path fill="#927653" d="M66.1 80.9L-16 96.4l62.6 1.4 4.5-31.5z"/><path fill="#161b18" d="M0 124h44v8H0z"/><path fill="#5c717e" d="M49.6 141.2l.2-2 86.6 7.6-.2 2z"/><circle r="1" fill="#5b5d5b" transform="matrix(-21.64602 6.7953 -3.88391 -12.37197 223 39.2)"/><circle r="1" fill="#c7a572" transform="matrix(25.66039 2.16543 -.69863 8.27876 144.8 86)"/><path fill="#161917" d="M199.9 160.4l27.6 17.9 34.3-21.2-94.7-3.5z"/><circle r="1" fill="#31342d" transform="matrix(11.43171 -72.17697 .98769 .15643 188.2 43.6)"/><path fill="#5c6e7a" d="M235 151h21v4h-21z"/><path fill="#433f39" d="M27 98h227v5H27z"/><path fill="#0d140f" d="M199.9 20.1l6.3-3 6 12.8-6.4 3z"/><path fill="#1d1d18" d="M153.6 157L50 146l.3-3L154 154z"/><circle r="1" fill="#535c5c" transform="matrix(-1.36786 -12.7938 68.7012 -7.34523 133.8 0)"/><path fill="#393c3b" d="M101 40l29-23 47 7z"/><path fill="#a2804c" d="M94.3 98.3l-20.8-4.9-41 4.3 41.1 1.6z"/><path fill="#2e281e" d="M42.4 165.6l72.3-10.1 1 6.9-72.4 10.1z"/><path fill="#53595a" d="M271 73.5L245.5 7.6l1.1 46.7-21.8 15z"/><path fill="#4f524f" d="M142 45h43v8h-43z"/><path fill="#535b58" d="M186.6 108.9l-6.3.3-9.8 35 12.4-58.4z"/><path fill="#6b614f" d="M134 126h13v3h-13z"/><path fill="#626869" d="M271-16v6.9l-53.4 35.7 18.5 11.7z"/><path fill="#3c4542" d="M203.1-4.7l1.5-5.9 66.4-.2-48.3 28z"/><path fill="#8b7961" d="M150.8 51L147 81l-46.2-4.5 16.7 7z"/><path fill="#59656b" d="M237.6 184.8l-33.4-16.6-15.4-11.1 12.6 21.1z"/><path fill="#e2c082" d="M109.4 83.1l14.2.5 21.2-4.4-16.6 12.5z"/><path fill="#5b6264" d="M200.5-1l-8 50.4-3-.4 8-50.4z"/><path fill="#262a25" d="M48 138.3l-35.8 4.4-.1-1 35.7-4.4z"/><path fill="#a48762" d="M152 84h26v13h-26z"/><path fill="#9a8367" d="M196 84h45v6h-45z"/><path fill="#fdfbed" d="M110.2 73.9l-18.6 3.8L80 85.3l.1-9.9z"/><path fill="#7f776a" d="M45 43h22v20H45z"/><path fill="#e9cf94" d="M80.6 81.3l2 3 25.7 3.7-44.4-.2z"/><ellipse cx="80" cy="33" fill="#4d4a41" rx="34" ry="11"/><circle r="1" fill="#d9b169" transform="rotate(89.4 -11.3 82.8) scale(2.73586 21.01053)"/><path fill="#1a2722" d="M197.2 21.4l18-19.4-20.8 66.1-2.9 1.3z"/><path fill="#c2a268" d="M105.4 86.6L41.9 97.3l62.1-1.9L89.3 76z"/><path fill="#816c48" d="M85 131h15v7H85z"/><path fill="#58686f" d="M113.7 144l54.9 4-.3 4-54.9-4z"/><circle r="1" fill="#071a19" transform="rotate(-172.7 99.3 37.1) scale(1.78718 35.83544)"/><path fill="#696c6b" d="M186.8 42.8l-26.7-3.7 1-8L188 35z"/><path fill="#6e6b61" d="M117.2 62.2l34.6-19-22.1-.5-23.3 24.8z"/><path fill="#313532" d="M70.1 122.9l98.3-.6 30.8 5.9L163 97.5z"/><path fill="#010200" d="M179 131l16 2-5 6z"/><path fill="#ad8c5e" d="M34.5 85.7l7.6 12.9 24.8-29.4 5.7 12.6z"/><path fill="#c1b39f" d="M271-4l-18 19 8 9z"/><path fill="#282c29" d="M10.6 156.3l54.3-27.6-36.8 16.9-44.1 23.1z"/></g></g></svg>