<svg xmlns="http://www.w3.org/2000/svg" viewBox="0 0 1800 1200"><defs/><filter id="a"><feGaussianBlur stdDeviation="12"/></filter><rect width="100%" height="100%" fill="#32485e"/><g filter="url(#a)"><g fill-opacity=".5" transform="translate(3.5 3.5) scale(7.03125)"><circle r="1" fill="#b7d1f0" transform="matrix(-33.60038 -83.58358 236.59824 -95.11188 76.7 64.4)"/><ellipse cx="183" cy="127" fill="#4c3613" rx="114" ry="32"/><circle r="1" fill="#c9e0f3" transform="matrix(-83.81287 15.13219 -8.3725 -46.3729 19.6 89)"/><circle r="1" fill="#355c93" transform="matrix(-122.88968 -36.65505 12.8378 -43.03999 168.7 .7)"/><path fill="#a1bbd5" d="M271 60l-1 33-64-4z"/><path fill="#5e5d5e" d="M75 107l189 56-198 22z"/><ellipse cx="170" cy="112" fill="#554e3e" rx="38" ry="25"/><path fill="#a0acb3" d="M-16 116l19 61 114-13z"/><ellipse cx="67" cy="38" fill="#6e98cc" rx="75" ry="39"/><ellipse cx="118" cy="83" fill="#90b2d2" rx="35" ry="20"/><path fill="#ccd5d6" d="M0 88h67v43H0z"/><ellipse cx="69" cy="135" fill="#80643d" rx="54" ry="6"/><path fill="#8f7d60" d="M188 94h24v23h-24z"/><circle r="1" fill="#172417" transform="matrix(4.84056 -12.96724 35.71804 13.33325 243 131.2)"/><ellipse cx="102" cy="158" fill="#546980" rx="34" ry="14"/><path fill="#9db7d1" d="M128 98l-85 23L-16 8z"/><path fill="#3f4341" d="M118 103h51v33h-51z"/><path fill="#a98e6c" d="M180 126l-7-17-10 30z"/><path fill="#5b7ea7" d="M227 92L5-9l266 42z"/><path fill="#3d4448" d="M65.8 138l17-29.5 23.4 13.5-17 29.5z"/><circle r="1" fill="#456389" transform="rotate(-178.6 103.2 -1.3) scale(66.7429 32.68818)"/><path fill="#a8947a" d="M98.9 136.5l14.5-9.1-.9 48-9.1-34.4z"/><circle r="1" fill="#7fa0c7" transform="matrix(-78.74427 -52.53386 9.63132 -14.43662 56.9 46.7)"/><path fill="#273645" d="M217 144h50v50h-50z"/><path fill="#544623" d="M225.9 92l45.1 1.9-1.3 11-68.3-9.8z"/><path fill="#3b413e" d="M149 90l-17 33 53-34z"/><path fill="#d7b080" d="M16 133h38v5H16z"/><circle r="1" fill="#7295b8" transform="matrix(-61.25243 -17.6796 3.09897 -10.73663 168.7 73)"/><circle r="1" fill="#bdc8cb" transform="matrix(26.47151 6.06279 -4.02293 17.56505 46.2 114.5)"/><circle r="1" fill="#718ba7" transform="matrix(42.27025 -9.23315 4.81912 22.06239 240.9 68.7)"/><circle r="1" fill="#99adbf" transform="matrix(-59.64427 3.53001 -.57662 -9.7428 13 151)"/><path fill="#766c62" d="M196.3 117.5l-6.9 67.5 15.2-19.6-15.8-63.3z"/><circle r="1" fill="#313a46" transform="matrix(-.07929 -15.70438 13.12448 -.06626 154.7 154.4)"/><ellipse cx="106" cy="89" fill="#93adc3" rx="25" ry="16"/><path fill="#748fac" d="M0 164h76v6H0z"/><path fill="#404949" d="M75 115.2l20.7 4.1 12.7-14.2-31.6 7.5z"/><circle r="1" fill="#596a7e" transform="rotate(120.6 5.5 110.5) scale(10.25796 33.31151)"/><circle r="1" fill="#a9c3da" transform="rotate(-159.6 16.6 40.3) scale(69.98902 16.94432)"/><path fill="#b29569" d="M139 135l-10 2 16 3z"/><ellipse cx="186" cy="147" fill="#373839" rx="5" ry="45"/><path fill="#71604e" d="M179.5 161.7L178 177l-16.5-44.3 18.5-12z"/><path fill="#7c766b" d="M158 99l11-9-8 19z"/><circle r="1" fill="#3e4141" transform="rotate(-15.5 533.6 -141) scale(11.02839 1)"/><path fill="#222d1b" d="M252.6 112.3l9.6 7.7-14.9 12.7-60.6-3.8z"/><ellipse cx="224" cy="133" fill="#565240" rx="14" ry="6"/><path fill="#688ebf" d="M113 39L25-16-15 8z"/><path fill="#b4b7ba" d="M70 128.9l-6.3 1.5-71.2.1 81-13.7z"/><path fill="#a18866" d="M203.7 113.3l-.8-3.3 2.2-10.6 9.8-.2z"/><circle r="1" fill="#b89e72" transform="rotate(-25.1 358.3 -181.4) scale(4.83993 5.01696)"/><path fill="#4a4a48" d="M271 88.9l-78 26.3 52.3.7 5.7-23.6z"/><path fill="#464b49" d="M142.2 97.6l4.3 6.7-58.7 38.1-4.3-6.7z"/><path fill="#cfae80" d="M193 93l7 3-2 5z"/><circle r="1" fill="#5174a0" transform="matrix(3.84824 -11.42786 91.12533 30.68576 119.8 8.2)"/><path fill="#585247" d="M120 120.3l17.2 8-7.2 15.4-17.2-8z"/><ellipse cx="103" cy="136" fill="#d1c09d" rx="6" ry="2"/><path fill="#415266" d="M145.9 150.2l6.1 6.2-13.8 28.6-23.7-37.1z"/><path fill="#554d3d" d="M43 132h62v2H43z"/><circle r="1" fill="#48423e" transform="matrix(.09864 -2.35341 31.71727 1.32935 99.1 141.8)"/><ellipse cx="232" cy="82" fill="#7a92ab" rx="68" ry="10"/><circle r="1" fill="#c3cfd3" transform="matrix(-47.08129 -3.43127 .94594 -12.97945 8.6 113.1)"/><circle r="1" fill="#444233" transform="matrix(-27.53152 .48123 -.04654 -2.66284 227 96.7)"/><path fill="#a9906f" d="M116 138h12v3h-12z"/><circle r="1" fill="#4a4a45" transform="matrix(2.92939 .08623 -.60952 20.7072 182.8 106.9)"/><circle r="1" fill="#706a5e" transform="matrix(4.45405 -.27195 .54512 8.92823 88.7 123.6)"/><path fill="#7b9bbd" d="M134 95l45-15L41 29z"/><path fill="#6c6457" d="M110.5 127.9l31.1-4.1 10.6 11.3-41.1-9z"/><circle r="1" fill="#6081a8" transform="rotate(102.7 75.7 103.7) scale(9.81071 70.84145)"/><ellipse cx="20" cy="138" fill="#b08f6d" rx="15" ry="2"/><path fill="#232a26" d="M211 132l-1-24-13 36z"/><path fill="#99b5d4" d="M-9 35l92 62-99-34z"/><path fill="#6d6557" d="M190.4 91.7l-8.2 35-13.4-17.1 36.6 16.3z"/><circle r="1" fill="#5c7799" transform="matrix(49.43119 -4.10096 1.43258 17.26776 235 36)"/><path fill="#3c4243" d="M125.6 124.1L151 93.8l16.4-5-23.2 28.4z"/><path fill="#3e4339" d="M131.9 104.3l43.4-13-22.6-1.6-1 4.4z"/><path fill="#adb3bb" d="M-16 134.1l19.3 13.8 22.1-17.2-29.4-5.8z"/><ellipse cx="209" fill="#456289" rx="51" ry="11"/><circle cx="109" cy="138" r="6" fill="#a08762"/><path fill="#edc58b" d="M112 128l-5.1 8.5-.9-.5 5.1-8.5z"/><ellipse cx="192" cy="109" fill="#9d8869" rx="2" ry="11"/><path fill="#b0a995" d="M165 83h9v6h-9z"/><path fill="#777d7f" d="M130.4 111.3l4.7-3.7 2.5 3.1-4.7 3.7z"/><ellipse cx="107" cy="115" fill="#867d6f" rx="6" ry="5"/><path fill="#bda781" d="M159 137h5v2h-5z"/><path fill="#7f97ae" d="M73.3 164.2l.1-21.5-37.7 39.2 14.9 3.1z"/><path fill="#2f3634" d="M120 115h24v6h-24z"/><path fill="#606058" d="M201.8 135.6l-5.9-6.5-11.4 14 9.4-4.2z"/><path fill="#363c38" d="M201 99h4v9h-4z"/><path fill="#1f2426" d="M174 136.9l9.3-3.6.7 1.8-9.3 3.6z"/><path fill="#42403e" d="M133.8 140.4l-7.2-8.7 1.6 17.3-20.5-8.5z"/><path fill="#2d3d3e" d="M122 102h15v5h-15z"/><path fill="#1d1f1f" d="M226.2 146.4l-6.7-2.5 51.5-10.3-4.4 11z"/><path fill="#6f737c" d="M114.5 147.8L101 146l2.2 39 8.2-8.9z"/><circle r="1" fill="#82a2cb" transform="matrix(-42.03689 -6.22104 2.005 -13.54826 18 38.8)"/><path fill="#ad9874" d="M190 91l-4 6V86z"/><path fill="#a3b5be" d="M71 100.4l68.2-.7-54.1 9.5-22.6 8.6z"/><path fill="#384452" d="M212 151h44v19h-44z"/><circle r="1" fill="#698db5" transform="matrix(-35.82748 -16.51195 4.9586 -10.75911 148.6 59.2)"/><circle r="1" fill="#7f6f59" transform="rotate(-3.7 2202.3 -2585.3) scale(1 33.88473)"/><circle cx="214" cy="135" r="3" fill="#8e795f"/><circle r="1" fill="#38342f" transform="rotate(-23.4 416.5 -301.6) scale(4.19036 7.0274)"/></g></g></svg>