<svg xmlns="http://www.w3.org/2000/svg" viewBox="0 0 1200 1800"><defs/><filter id="a"><feGaussianBlur stdDeviation="12"/></filter><rect width="100%" height="100%" fill="#323e49"/><g filter="url(#a)"><g fill-opacity=".5" transform="translate(3.5 3.5) scale(7.03125)"><circle r="1" fill="#c0cad7" transform="rotate(111.6 9.8 91.2) scale(146.70364 169)"/><circle r="1" fill="#fff7e2" transform="rotate(-93.6 131.7 65.3) scale(106.27817 18.15754)"/><ellipse cx="41" cy="161" fill="#13120b" rx="14" ry="109"/><circle r="1" fill="#ffe" transform="matrix(.85996 62.12652 -31.08427 .43027 169 200.6)"/><circle r="1" fill="#488af8" transform="matrix(-111.56257 -17.77295 6.61918 -41.54925 106.5 27)"/><circle r="1" fill="#574b2c" transform="matrix(11.07931 53.98324 -32.75899 6.72333 117.4 121.7)"/><path fill="#1a2028" d="M-22.9 148l27.6-31.7L68.9 172l-27.6 31.7z"/><circle r="1" fill="#30341f" transform="matrix(58.09313 29.4391 -7.35133 14.50663 28.8 64.4)"/><circle r="1" fill="#2d1e10" transform="matrix(12.24171 10.7101 -17.41344 19.90367 115.6 218.3)"/><ellipse cx="61" cy="211" fill="#fbf7ed" rx="13" ry="29"/><path fill="#f3f1e5" d="M-1.1 123.2l-12.6-22.7L29 76.8l12.6 22.7z"/><circle r="1" fill="#e0dacb" transform="rotate(53.5 -200 113.8) scale(37.85361 17.23922)"/><ellipse cx="124" cy="252" fill="#f5ecdb" rx="32" ry="14"/><path fill="#fffffa" d="M127 179l-1 24 59-44z"/><circle r="1" fill="#5c5c46" transform="matrix(-96.98057 -17.44956 3.50172 -19.46175 145 94.3)"/><path fill="#e0ded9" d="M140 150l23 52 3-87z"/><path fill="#100500" d="M103.6 216.1l66.1 5.1 15.3 43.7-8-48.5z"/><circle r="1" fill="#83aadb" transform="matrix(1.69274 -18.32497 86.35745 7.97712 143.6 57.7)"/><path fill="#d9d7d0" d="M81 96l-31 1 25 115z"/><path fill="#070605" d="M64.6 246.2l-44.4 4.6 28.9-27.6 5.6 17.3z"/><circle cy="60" r="28" fill="#394138"/><path fill="#edeadb" d="M51.5 247.1l10.7-1.1 4.4 25-36.3-4.7z"/><path fill="#ccc6bf" d="M77.7 145.1l38.3 82.2-10.3-51.7L54.4 271z"/><path fill="#2f2f2d" d="M38 143h63v5H38z"/><path fill="#000001" d="M101 206h10v34h-10z"/><circle r="1" fill="#281d14" transform="matrix(3.01466 -1.60968 11.65046 21.81938 118.2 196.2)"/><path fill="#2c3431" d="M130.6 181.6l-21.2-16.7 16-20.5 21.2 16.7z"/><path fill="#1b222e" d="M61.2 177.3l-10.9-71.2L25.5 192l32.7-2.6z"/><path fill="#797262" d="M102 82h59v64h-59z"/><ellipse cx="129" fill="#4169b2" rx="168" ry="22"/><path fill="#777a7b" d="M3 120l36-27-2 65z"/><path fill="#665747" d="M155 228l-76 19 39-25z"/><path fill="#e7e8e2" d="M50.9 232.1l-2.3-28.8.9-6.4 32.9-38.7z"/><path fill="#ceb594" d="M124.5 220.4l16-.8 1 20-16 .8z"/><path fill="#050a0d" d="M46.8 201.4l.6 3.8 2 32.3L17.2 141z"/><circle cx="80" cy="222" r="20" fill="#bdbeb9"/><path fill="#ede7dd" d="M156 208l-36-24 65-32z"/><path fill="#475440" d="M119.3 75l-42.6-9.9-21.5-43.4 31.7 92.1z"/><path fill="#21232a" d="M116 236h4v20h-4z"/><path fill="#2b2620" d="M131 221.8l3.2-29.5 1.8 18.1 11.7 8z"/><path fill="#131114" d="M-16 240l37 31-19-52z"/><circle r="1" fill="#474d52" transform="rotate(-53.3 136.3 32.2) scale(42.77605 6.40754)"/><path fill="#e4e4db" d="M49.1 100.4l17.2-3.6-9.2 66.2-1.1-55.6z"/><circle r="1" fill="#6b6f75" transform="matrix(-11.52214 -38.54115 5.2612 -1.57287 30 200.1)"/><path fill="#88b8b4" d="M58.8 67.5h9L80.5 53 45 42z"/><path fill="#77604a" d="M107.1 186.8l9.7-11.1-39.9-7.1 4.7 2.5z"/><path fill="#fff7f2" d="M111.7 202l-8.7 2.4-4.7-16.3 8.7-2.5z"/><path fill="#bec1bf" d="M23.8 108.3l-13.2 18.9-16.4-11.5L7.4 96.8z"/><circle cx="65" cy="86" r="7" fill="#bba094"/><path fill="#575e51" d="M62 72L40 51l-56 38z"/><path fill="#4e4d46" d="M96 135h43v31H96z"/><path fill="#bdbab2" d="M80.2 148l65.1 58.6-30.5-36.2-62.4-9.5z"/><path fill="#10151c" d="M89 244l20-6-7-12z"/><path fill="#fff" d="M161 118h4v44h-4z"/><path fill="#d0cfc5" d="M25 242L3 186l3 43z"/><path fill="#1a1c1f" d="M39 229l-44 42 66-28z"/><path fill="#c4c2c0" d="M116.1 225.2l12.3 45.8-10.5-38.2L99.2 271z"/><path fill="#441500" d="M60 36h7v8h-7z"/><path fill="#dce0dd" d="M70.7 215.5l-6.5-42.9 9.7-4.4L95.1 199z"/><path fill="#282726" d="M115 188h10v37h-10z"/><path fill="#cbcac3" d="M123.8 201l8.3-19.5-2.1-2 .5 36.6z"/><path fill="#b5b8b7" d="M93.3 148L55 96l11.3.4 13.5 2.3z"/><circle r="1" fill="#4a534b" transform="matrix(-30.97456 -10.814 1.4057 -4.02635 150.2 81.9)"/><path fill="#143a74" d="M151.6 160.8l1.6 4.8-4.8 1.6-1.6-4.8z"/><path fill="#9e8c79" d="M145.1 129.2L107.8 99l5-6.2 37.4 30.2z"/><path fill="#ebf1f3" d="M141.6 153l3.5-6 17.3 10-3.5 6z"/><circle r="1" fill="#b9b8b1" transform="matrix(8.12081 13.30529 -16.03088 9.78437 69.2 227.5)"/><path fill="#8bafe7" d="M162 79l23-15-77-3z"/><path fill="#61533b" d="M166 91h3v57h-3z"/><path fill="#4b5157" d="M26.3 181.9l10.4-77.7-52.7 68 40.9 9.1z"/><circle r="1" fill="#262a2e" transform="matrix(-4.78621 21.19957 -6.29223 -1.4206 46.8 126.8)"/><path fill="#3e4642" d="M113 79.1l-1.2 4.3-78.5-2.3 45.1-17.8z"/><path fill="#a7a69f" d="M33.8 135.9l3.5-8.8 3.7 12.8-9.5 3.9z"/><path fill="#543019" d="M94 184h15v3H94z"/><path fill="#64503d" d="M136.8 242.3l-2.9-2.8 15.3-15.8 2.9 2.8z"/><path fill="#ded8d2" d="M163 221l-39 29 61-18z"/><path fill="#9b938f" d="M117.6 86.3l1.1-8.3 18.8 6.3 23.6 9.3z"/><path fill="#434444" d="M127.8 207.3l6-13.6 10.9 26.3-46.9-10.7z"/><path fill="#d0ad9e" d="M110 219l8 7-9-17z"/><path fill="#d8d9d5" d="M29 94.5l-42.4 18-5.5-13 42.3-18z"/><path fill="#8a7566" d="M152 248h18v4h-18z"/><path fill="#848787" d="M10.3 168l23.8 73.6 10.1-10.8L33 208.3z"/><path fill="#a1a7a8" d="M-10.8 125.1l42.9-39.7 10 6.6-17.5 25.5z"/><ellipse cx="99" cy="216" fill="#635c59" rx="3" ry="26"/><path fill="#3d4858" d="M63.7 165.2l-.2 16.4-19.8 19.5 15-39.4z"/><path fill="#5f604d" d="M130 91h40v26h-40z"/><path fill="#dcdad4" d="M140.5 216.9l-3.8-17.4-15.5-17.7 60.8-13.1z"/><path fill="#80a6de" d="M151 61l-44 11.7-36.7-14.3 32.1-3.9z"/><path fill="#2c372e" d="M42 95l8-35 8 35z"/><path fill="#d7d8d1" d="M90 244h24l13 27z"/><circle r="1" fill="#5c85c9" transform="matrix(1.56804 -11.59747 101.30426 13.69687 110.2 32.5)"/><path fill="#d1d0c9" d="M117 244l11.4 14.3 7.8-25.8-7.3 1.2z"/><path fill="#7d8475" d="M28.5 158.4l8.8 1.7-6.4-32.2 1.1 3.7z"/><path fill="#4a4e55" d="M5.1 249l-1.7-7.5-18.8-43.5 23.2 27.6z"/><path fill="#13191e" d="M43.7 175.4l5.6-68.8-18.5 69.2L50 245.1z"/><path fill="#5a5951" d="M147 136h13v7h-13z"/><circle r="1" fill="#171718" transform="matrix(1.67413 7.64825 -3.37433 .7386 110.7 227)"/><path fill="#0f1621" d="M116.5 240l8 25.8-1 .3-8-25.9z"/><path fill="#c3c3be" d="M68 146l6 32 9-32z"/><path fill="#d9dad3" d="M55 96h14v39H55z"/></g></g></svg>