<svg xmlns="http://www.w3.org/2000/svg" viewBox="0 0 4617 3078"><defs/><filter id="a"><feGaussianBlur stdDeviation="12"/></filter><rect width="100%" height="100%" fill="#3f414a"/><g filter="url(#a)"><g fill-opacity=".5" transform="translate(9 9) scale(18.03516)"><circle r="1" fill="#b0ae97" transform="matrix(21.83846 -82.65527 246.53997 65.13867 185.4 68.2)"/><ellipse cx="71" cy="52" fill="#c8b6a7" rx="121" ry="14"/><ellipse cx="190" cy="18" fill="#2e3320" rx="255" ry="9"/><ellipse cx="116" cy="157" fill="#484b52" rx="94" ry="43"/><ellipse cx="93" cy="57" fill="#c4c6c0" rx="20" ry="29"/><circle r="1" fill="#d7c2ad" transform="rotate(95.1 52.3 107.8) scale(53.08168 9.21212)"/><ellipse cx="32" fill="#88b6f1" rx="109" ry="10"/><ellipse cx="134" cy="48" fill="#453830" rx="7" ry="188"/><path fill="#a09f98" d="M37 77h33v45H37z"/><circle r="1" fill="#434646" transform="matrix(3.16128 8.63602 -41.31852 15.12494 47.9 70.2)"/><circle r="1" fill="#b2b1a1" transform="matrix(-.81799 -13.00795 33.09137 -2.0809 220 69)"/><circle r="1" fill="#484d53" transform="matrix(35.41344 -17.04334 9.69262 20.13977 218.2 108.2)"/><circle r="1" fill="#939897" transform="matrix(23.91383 16.9223 -16.54692 23.38335 235.7 154)"/><path fill="#d8ece9" d="M237 5h19v10h-19z"/><ellipse cx="229" cy="34" fill="#60552a" rx="59" ry="18"/><circle r="1" fill="#63686f" transform="matrix(13.51634 -58.56968 17.78666 4.1047 68.2 143.7)"/><circle r="1" fill="#bfb6a3" transform="rotate(-124.4 106.6 18.2) scale(23.34988 5.92059)"/><path fill="#b8c0bd" d="M61.7 54.8l-9-23.3 21.6-8.3 9 23.3z"/><path fill="#32363c" d="M204 143L80 121l103 49z"/><path fill="#d8d1d5" d="M131 56L83 66l9 18z"/><path fill="#a6bbb8" d="M172 99h8v44h-8z"/><ellipse cx="213" cy="9" fill="#3e3b31" rx="24" ry="20"/><path fill="#d7bdb5" d="M114 107h6v29h-6z"/><path fill="#1c7da4" d="M186 111l-35-11 36-7z"/><path fill="#355272" d="M55.9 5.7L-16 13 5.4 34.4 96.2 10z"/><path fill="#63645b" d="M9.6 47.8L-16 94.1v-48l98.6-15.7z"/><path fill="#626a37" d="M164 45l-3-46-53 9z"/><path fill="#bbbba6" d="M236.7 77.9l-56-36.8L213.3 55 267 76.7z"/><ellipse cx="104" cy="131" fill="#2d2e36" rx="8" ry="29"/><path fill="#c19b86" d="M168 31l-34-3 53-18z"/><path fill="#b1ae9f" d="M210.8 82.7l5.3 11.9 1 22-13.9-36.9z"/><path fill="#b2a79f" d="M116 99l12-21-52 22z"/><path fill="#616b73" d="M24.1 144.6L2.9 131l-18.9-3.2 57.5-21.7z"/><path fill="#cbc3b5" d="M153 83.7l1.6 13.7 23.3-32.3-10.7-25.4z"/><path fill="#e9dbc0" d="M225 94l-1 13 8-15z"/><path fill="#3b2c27" d="M185 92l3-29-10 2z"/><path fill="#8a8150" d="M182 44l54 17-47-52z"/><ellipse cx="232" cy="18" fill="#121721" rx="35" ry="4"/><path fill="#433b2e" d="M143 2l44 5-1 14z"/><path fill="#ae9a87" d="M126.3 102.1l-11.6-29.6-63.1-14.4L132 38.2z"/><path fill="#3c242f" d="M115 92l25 25-15 3z"/><path fill="#404449" d="M68 64L50 53 10 93z"/><path fill="#49511a" d="M247 45h9v21h-9z"/><path fill="#33353e" d="M89.2 121.2l-13.1-6.7 13.3-12.6 4.9 15.2z"/><path fill="#40474f" d="M247.1 121l-64.6 17.4 40-29.7 31 1.3z"/><circle r="1" fill="#7896ba" transform="matrix(24.38206 4.56298 -1.35956 7.26477 70.3 5.5)"/><path fill="#a9ae9c" d="M222 31l26 4 1-9z"/><path fill="#9f9990" d="M60.2 93.9l17.4-35.2 20.7 65.1.6-38.9z"/><ellipse cx="148" fill="#a3c3e4" rx="25" ry="2"/><path fill="#35201a" d="M135 50l7-12-19-8z"/><ellipse cx="237" cy="166" fill="#757a7c" rx="48" ry="24"/><path fill="#a49e90" d="M136 98l29 23-20 9z"/><path fill="#4a5133" d="M163 28L151-1l-40 11z"/><path fill="#bec5d4" d="M40.8 38l-1.7-1.5 32.5-12.3-1.9 6z"/><path fill="#bbb4a2" d="M188 73h6v29h-6z"/><path fill="#80857e" d="M19.1 49.1l50.2 16.4 38.4-12.6-20.3-4.5z"/><ellipse cx="99" cy="100" fill="#4e4956" rx="3" ry="18"/><path fill="#cad8e1" d="M97 63L87 75l7 28z"/><circle r="1" fill="#7a7364" transform="rotate(107.7 106.3 86.8) scale(3.48157 23.42542)"/><path fill="#41596c" d="M92 25l-13-4-22 17z"/><circle r="1" fill="#587da1" transform="matrix(.3128 4.45262 -37.63378 2.6438 23.2 30.5)"/><path fill="#5c3c4b" d="M140.2 59l-6.4 6.7 21.2 45.2 1.1-7.6z"/><path fill="#173541" d="M189.4 87.7l-2.8 40.9-4-.3 2.8-40.9z"/><path fill="#969993" d="M206 142l61-34-47 58z"/><path fill="#071217" d="M35.2 106.8L-16 117.3l18.1-12.2-9.9.9z"/><path fill="#737777" d="M88.4 108.4L-1.1 91.9l22.9 13.8 34.4-9.4z"/><path fill="#b3b4a9" d="M254.9 56.6l-19.3-6 2.1 25.7-14.2-5z"/><path fill="#c9b7b1" d="M133 62l17-22 13 8z"/><path fill="#674959" d="M94.6 89.4l20.5-5.5 7.5-14.3-19.7 7.7z"/><path fill="#bdb6a7" d="M43.9 90.7l-7.6 25.2 6.6-4.4 13.7-25.1z"/><path fill="#c5b2af" d="M113 81l3 38-10-28z"/><ellipse cx="105" cy="151" fill="#34383f" rx="24" ry="21"/><path fill="#a99d8d" d="M171.6 146l19.7-22.6 3 2.6-19.6 22.6z"/><circle r="1" fill="#2d343b" transform="matrix(15.27984 -12.17967 1.962 2.4614 197 144)"/><path fill="#3d3e3e" d="M172.1 125.2l-3-16.2-13.6 62.4 20.3 13.6z"/><circle r="1" fill="#304317" transform="rotate(-97.4 70.6 -41) scale(4.22499 13.87671)"/><circle r="1" fill="#9eada6" transform="matrix(-49.25506 2.89684 -.05871 -.99827 129.5 29)"/><path fill="#b1ab9c" d="M153.5 60.6l-2.4-.6-10.2 28.9 9.9-12.8z"/><path fill="#3d4249" d="M243 152l11-6-16-6z"/><path fill="#33393a" d="M-16 12l37 13 46-13z"/><path fill="#4a5564" d="M214 79h42v10h-42z"/><path fill="#4e4b45" d="M183.6 88.9l29.8 7.9-7.6 21.3-14.1-23.2z"/><path fill="#575c62" d="M225.3 91l-16.4-11.1 1.2-19-12.8 3.5z"/><path fill="#0f151e" d="M243 18l10-4 12 28z"/><circle r="1" fill="#bebba9" transform="rotate(172.3 9 30.1) scale(14.72543 7.02907)"/><path fill="#656972" d="M83 86.4l-15.5 67.7 49.6 30.9H47.6z"/><path fill="#b0a99a" d="M148.1 86l45.1-49.1-22.5 55 14.7 8.7z"/><path fill="#616b36" d="M213 53.8l14-25.4 14 7.8-14 25.4z"/><circle cx="194" cy="27" r="4" fill="#f74167"/><path fill="#d7d2c5" d="M32.5 31.3l.2 1-65.2 10.4-.2-1z"/><circle r="1" fill="#5c5140" transform="matrix(-15.979 5.47149 -1.22643 -3.5817 25.6 38.7)"/><path fill="#c68e7a" d="M158 13l15 3 3 43z"/><path fill="#b7b8ae" d="M81.1 30.9L28.8 47.1l85.3-2.6-24.2-11.6z"/><path fill="#513d30" d="M155 60l3 9-9 12z"/><path fill="#79814d" d="M98.7 35.8l21.4 5L134.9 25 86.6 37z"/><path fill="#d4e6f5" d="M173-16l18 22-1-22z"/><ellipse cx="75" cy="95" fill="#373d44" rx="7" ry="6"/><path fill="#868788" d="M237.7 83.2l31.7 19-5.1 8.6-31.7-19z"/><path fill="#a5b3a7" d="M238 0h18v14h-18z"/><path fill="#594034" d="M185.8 34.4l.4-49.9-10.7 71.1.1-28.9z"/></g></g></svg>