<svg xmlns="http://www.w3.org/2000/svg" viewBox="0 0 1800 1200"><defs/><filter id="a"><feGaussianBlur stdDeviation="12"/></filter><rect width="100%" height="100%" fill="#414857"/><g filter="url(#a)"><g fill-opacity=".5" transform="translate(3.5 3.5) scale(7.03125)"><circle r="1" fill="#bdd2e5" transform="rotate(93.3 39.6 106.8) scale(53.78422 255.00002)"/><circle r="1" fill="#376090" transform="matrix(-15.36183 -23.90028 60.13885 -38.65405 198 35.8)"/><path fill="#b6b9bd" d="M17 14l137 20-136 91z"/><ellipse cx="67" cy="129" fill="#71757a" rx="190" ry="22"/><ellipse cx="83" fill="#376194" rx="255" ry="23"/><path fill="#c4cbcf" d="M225.9 51.2l45.1-8.9-4.5-4.8-12-27.6z"/><path fill="#cbccc9" d="M53 20l49 48 53-19z"/><ellipse cx="168" cy="54" fill="#3d5b7f" rx="34" ry="27"/><ellipse cx="7" cy="97" fill="#748195" rx="57" ry="24"/><path fill="#c8c8c2" d="M195 82l-83-2 49 21z"/><circle r="1" fill="#b2b8be" transform="matrix(-10.7999 6.93915 -5.87011 -9.13608 197.3 29.8)"/><circle r="1" fill="#2d5388" transform="matrix(28.2791 1.49051 -.4934 9.36131 3.1 46)"/><path fill="#4f6d90" d="M122 74l-15 26-54-45z"/><path fill="#d4d3cd" d="M8.8 59.6l7.5-9.3 25 20.1-7.6 9.3z"/><ellipse cx="193" cy="148" fill="#3d5468" rx="255" ry="11"/><ellipse cx="89" cy="128" fill="#6d5e57" rx="67" ry="8"/><path fill="#7e8b95" d="M160 96h96v37h-96z"/><circle cx="212" cy="46" r="15" fill="#37567f"/><path fill="#2a486f" d="M110 11h46v14h-46z"/><path fill="#9fa8b1" d="M30 109l65 8-17-48z"/><circle r="1" fill="#535b67" transform="matrix(41.40726 17.23618 -18.23135 43.79802 51.2 159.6)"/><path fill="#c1c5c7" d="M205 63h20v13h-20z"/><path fill="#a0b2c7" d="M127 9.7L115 .5l8-10.2 12 9.2z"/><path fill="#9aa4b0" d="M153.2 47.6l-14.4 24-12-7.2 14.4-24z"/><path fill="#6c7e9d" d="M8 10L-9 37l68-19z"/><ellipse cx="255" cy="92" fill="#c3c4c1" rx="26" ry="6"/><path fill="#b8bbbe" d="M71.3 57l13.1-40.2-26.9 13.9-50.1-.5z"/><path fill="#4b6386" d="M-16 77.6l41.1 31.6L7.5 62.7 7.8-16z"/><path fill="#587092" d="M61.3 60.1L35.4 48.4 5.9 42.3l37.8 19.8z"/><path fill="#897465" d="M31 127h99v10H31z"/><path fill="#98a1a6" d="M136.1 85.2l51.4 26.6-60.5 9.7-14.2-21.4z"/><path fill="#394250" d="M159.8 131.6l-13.1-9.1-46.2.9 21.2 7.1z"/><circle r="1" fill="#dddcd5" transform="matrix(.12522 5.05784 -14.34844 .35522 47.9 69)"/><path fill="#40628b" d="M82.5 78.5l71.7-13.9 1.3 6.9-71.7 13.9z"/><path fill="#9ca1a7" d="M65 77l15-34 52 23z"/><path fill="#3e434f" d="M64 111.9l-80 22.9v35.1l25.1-25.6z"/><path fill="#959ead" d="M159.5 23.3l27.2-6.3 1.8 7.7-27.2 6.3z"/><path fill="#4f6887" d="M270-16l-71 33 34 23z"/><path fill="#414446" d="M151 134h103v10H151z"/><path fill="#54769c" d="M105.1 71.7l15.7-1.7-22 47-19.6-7.8z"/><circle r="1" fill="#5a6b7e" transform="rotate(170.9 109.2 64.1) scale(39.95386 3.84989)"/><path fill="#aab1b5" d="M96.8 100l98.4-7.3 2.2-15.2-9.9.8z"/><path fill="#596a7e" d="M271 58l-19 23-29-4z"/><path fill="#bec1c3" d="M130.4 40.7l21 8.8-41.8 8.3 1.1-38.3z"/><circle r="1" fill="#7c8797" transform="rotate(31.8 -171.8 78.7) scale(15.33581 25.92457)"/><circle r="1" fill="#284975" transform="matrix(3.30373 -10.62496 59.79913 18.594 59.2 0)"/><path fill="#a7b0b9" d="M231 56l40-70v63z"/><path fill="#3b5a80" d="M139 7l22 58 43 8z"/><circle r="1" fill="#536272" transform="rotate(-141 91.1 55.8) scale(12.67652 16.76828)"/><path fill="#7d8ea5" d="M219.3 21.8l-10.2 4.9L186 45l12.7 1.5z"/><path fill="#677b95" d="M31 94l39 2-9-11z"/><path fill="#a2a9af" d="M178.4 106.1l42.1-8.3 50.5-7.1-81.6 18.9z"/><path fill="#afb1b3" d="M80 74l4 22-52-11z"/><path fill="#937659" d="M125 132h58v3h-58z"/><ellipse cx="224" cy="14" fill="#3a577b" rx="7" ry="44"/><path fill="#a6b0bb" d="M214.5 14.7l-19.8 23-7.7-1.9 1.1-7.8z"/><path fill="#324658" d="M178.4 170.4l1.2-33 64 2.2-1.2 33z"/><path fill="#98a1ad" d="M138.3 47.5L87.4 19.9l40.5 8.8 15.2-8z"/><path fill="#c9cccc" d="M40.2 34.8l-16-3.9 19.6 17.6 13.2-4z"/><path fill="#998062" d="M193 136h52v2h-52z"/><path fill="#9aa1aa" d="M65 21l-1 39-23-44z"/><path fill="#244775" d="M-26 0l4.1-19.6L70.1 0l-4.2 19.6z"/><ellipse cx="127" cy="114" fill="#7c8a99" rx="35" ry="9"/><path fill="#60778d" d="M205.8 82.1l17.8 6.3-62.8 18.9 21.1 1.6z"/><path fill="#494f60" d="M97.4 122.2L10 130.9l24.9-14 20.7-3.3z"/><path fill="#998370" d="M61.5 130v1l-85 3v-1z"/><path fill="#3e3a35" d="M0 135h74v2H0z"/><path fill="#47678b" d="M134 60h61v17h-61z"/><path fill="#37557c" d="M114.8 8.6L93.6 31.8l5.5-11.6-89.5-11z"/><circle r="1" fill="#b8bcbf" transform="rotate(118.2 -5.3 40.1) scale(8.32076 19.31746)"/><path fill="#898f95" d="M171.7 112.2L140 122.6l24.7 7.5 32.7 3.1z"/><path fill="#cdcece" d="M226.4 59.3l-1 5-7.8-1.6 1-5z"/><path fill="#304c6c" d="M150 0h71v13h-71z"/><path fill="#547396" d="M83.7 93.5l16.1-17.1 33 18.2h9.6z"/><path fill="#bbbcbb" d="M110 96h22v7h-22z"/><path fill="#6d839f" d="M260.1 2.3l-35.8 53-2.4-1.6 35.8-53z"/><path fill="#8d95a2" d="M97 23l-3 8.5L75 25l3-8.5z"/><path fill="#2d578b" d="M14 48l-25-22-5 52z"/><path fill="#c2c5c7" d="M132.7 68l-30.8-27.5 8-11.6 20.6 13.7z"/><path fill="#78879a" d="M89 110L49 89l9-8z"/><circle r="1" fill="#959fad" transform="rotate(136.9 3.1 21.6) scale(3.04984 19.61243)"/><circle r="1" fill="#7889a2" transform="rotate(116.5 -5.3 21.3) scale(4.69818 13.81584)"/><path fill="#c2c5c7" d="M79.5 41.2l-8.3 4-21.7-23.5 85.7 26.1z"/><path fill="#566d8d" d="M22.8 28.2L17 7.2l34 21.5-59-15z"/><path fill="#7f7779" d="M83.9 132.1l-26.5-13.6h38.3l-55.4 11.7z"/><path fill="#8c94a1" d="M-9 58l22 23.8-7.3-26 45.5 34.9z"/><path fill="#a6abaf" d="M96 117l-17 1-6-8z"/><circle r="1" fill="#848f9c" transform="rotate(118.9 16.6 52.8) scale(8.39401 21.39634)"/><path fill="#bdc1c4" d="M128 32l1.5-5.8L144 30l-1.5 5.8z"/><path fill="#abb2bc" d="M158 21h17v6h-17z"/><path fill="#39557a" d="M177 30l9 12-47-1z"/><path fill="#75808c" d="M172 123h84v10h-84z"/><path fill="#5a708e" d="M172.7 15l17-1.8 1.6 15.9-17 1.7z"/><path fill="#334f74" d="M105 8h53v14h-53z"/><path fill="#7e8b9d" d="M2.3 120.9l83.8-15-44.9 2.5L-16 89.8z"/><path fill="#484c55" d="M94 125l17-4-35-2z"/><path fill="#b2b1af" d="M-1 92l-8 15 17-9z"/><path fill="#b7baba" d="M214 103l-2-6 21-1z"/><path fill="#4e6c93" d="M24.1 52.2L37.8 56l-4.4-7.4-30.2 4.8z"/><path fill="#919dac" d="M113 79h55v3h-55z"/></g></g></svg>