<svg xmlns="http://www.w3.org/2000/svg" viewBox="0 0 1800 1200"><defs/><filter id="a"><feGaussianBlur stdDeviation="12"/></filter><rect width="100%" height="100%" fill="#4b3e40"/><g filter="url(#a)"><g fill-opacity=".5" transform="translate(3.5 3.5) scale(7.03125)"><circle r="1" fill="#d4faff" transform="matrix(-25.20932 71.7905 -240.5974 -84.48606 181.9 54.7)"/><path fill="#d9f0ff" d="M16.3 163.6l-41.2-8L3.7 8.4l41.2 8z"/><ellipse cx="129" cy="46" fill="#e0faff" rx="38" ry="47"/><ellipse cx="190" cy="81" fill="#211c21" rx="20" ry="62"/><circle r="1" fill="#19191e" transform="rotate(-73.6 87 3.6) scale(86.09537 19.86131)"/><circle r="1" fill="#d1eaff" transform="matrix(-9.18448 63.99686 -29.57792 -4.24486 241.2 31.6)"/><path fill="#574c43" d="M201.5 121l-15.2 32.6-69.8-32.6 15.2-32.6z"/><path fill="#bfcbec" d="M210 126l41 59 20-55z"/><ellipse cx="173" cy="3" fill="#93bbfa" rx="97" ry="22"/><circle r="1" fill="#edf5ff" transform="matrix(7.12088 -18.26411 30.77043 11.99689 149.4 71.5)"/><circle cx="55" cy="105" r="40" fill="#373835"/><ellipse cx="187" cy="42" fill="#0c1029" rx="23" ry="17"/><path fill="#c3d8f3" d="M33 3l30 47-79 43z"/><path fill="#a2c4f0" d="M50.9 141.7l-20.2-1.9-8-4.4-13.6 29z"/><path fill="#f1f7ff" d="M88 81L77 51l107 20z"/><circle r="1" fill="#3c2c31" transform="matrix(12.18259 -18.75172 17.39285 11.29975 73.2 27.7)"/><path fill="#001d13" d="M4-16l3 28 78-27z"/><ellipse cx="255" cy="119" fill="#585149" rx="195" ry="7"/><path fill="#a6cfff" d="M100 1L68-16 6 23z"/><path fill="#31385e" d="M244.4 51.1L235.1-16 229.3-.9l12.9 62.3z"/><path fill="#c1b8a6" d="M-5 119.3l25.9-79.9L37 44.7l-26 79.9z"/><path fill="#9091b2" d="M99.9 163.1l63.2 4.3L74.9 185l27.1-43.7z"/><path fill="#d6e2f2" d="M220.2 52.8l-30.4 28.6 73.7-1.4-75.3-81.9z"/><circle cx="40" cy="115" r="25" fill="#171d20"/><circle r="1" fill="#180a02" transform="matrix(-1.24859 8.45542 -47.22825 -6.97406 180.4 160.3)"/><ellipse cx="147" cy="87" fill="#7a8896" rx="66" ry="8"/><ellipse cx="82" cy="121" fill="#98918e" rx="16" ry="9"/><ellipse cx="182" cy="131" fill="#5d5650" rx="33" ry="23"/><path fill="#4d5052" d="M26 81l6 43 63-88z"/><path fill="#46324d" d="M238.4 45.3l14.1 49.2 18.5 37-11.2-30.3z"/><path fill="#a0aebb" d="M95 94.2l36.7-22.3-17.8 66.4 18.1 3.3z"/><path fill="#180a01" d="M31 148h42v22H31z"/><ellipse cx="21" cy="57" fill="#5f6068" rx="5" ry="16"/><path d="M-.4 148.8l-5.8-1.4 6.6-26.2 5.8 1.4z"/><path fill="#563a35" d="M69.4 84.6l22.2-8.2 8.8 25.7-38.2 27.3z"/><circle r="1" fill="#b0cef6" transform="matrix(56.78127 -43.65924 8.16516 10.61924 180.3 9.3)"/><path fill="#b8d2f1" d="M-15 63L46 0l11 55z"/><path fill="#c3dbfb" d="M219 101h37v10h-37z"/><path fill="#36323b" d="M168 36h30v33h-30z"/><path fill="#778ca5" d="M118 48l61-64h-27z"/><path fill="#c1ccd1" d="M156.7 106.7L171 65l12.3 4.2L169 111z"/><path fill="#2c1919" d="M188 99l-54 29 37-3z"/><path fill="#71716a" d="M221 125l-49-41 38-22z"/><path fill="#9ea5ca" d="M132 157l-30 28h51z"/><path fill="#9daab9" d="M6.9 121.1l-9.8 30.8 23.1 14.6 11.3-20z"/><circle cx="179" cy="131" r="9" fill="#8b9e9f"/><circle r="1" fill="#889cc6" transform="matrix(32.19978 12.17121 -2.3142 6.12238 242.3 152.7)"/><path fill="#000008" d="M31.3 132l22.2-29.5L68.7 114l-22.2 29.6z"/><path fill="#d2e6f7" d="M15 70L-4-9l-12 98z"/><circle r="1" fill="#e7f0f8" transform="matrix(-5.64996 -15.1923 29.09385 -10.8199 135.6 61.3)"/><path fill="#cde5ff" d="M258 101l13-62-32-22z"/><path fill="#4d4239" d="M21 37l-1 15 9 14z"/><circle r="1" fill="#f1f9fd" transform="rotate(28 -17.6 494.5) scale(14.73996 12.86078)"/><ellipse cx="101" cy="26" fill="#adc7e9" rx="9" ry="70"/><circle r="1" fill="#645f59" transform="rotate(-137.9 88.3 34.6) scale(15.28559 36.31368)"/><path fill="#ced5d8" d="M13.4 81.4l33.4-41.1 7.8 6.3-33.4 41.1z"/><path fill="#cec1a9" d="M24.7 83.5l-26.5 17.9 31.6 41.2-23-8.3z"/><path fill="#daebf7" d="M105 40L93 74 77 61z"/><path fill="#4b4144" d="M60 10.4l-.3 66.1L95.8 43 75.5 8.1z"/><path fill="#9dbbe4" d="M0 11h53v25H0z"/><path fill="#a19b97" d="M168 107l-9 11-37-7z"/><path fill="#f1f7fd" d="M214 89h39v4h-39z"/><ellipse cx="128" cy="82" fill="#4b77a2" rx="59" ry="2"/><path fill="#788cb9" d="M221.6 183l26.7-41 20.1 13-26.7 41z"/><path fill="#2e3f4d" d="M-1.3 183.8L-16 152.3l34.7 11.5 85.2 21.2z"/><ellipse cx="135" cy="87" fill="#dee9f1" rx="37" ry="2"/><path fill="#36271d" d="M109 170.7l-7.6-8 33.7-31.4 7.5 8z"/><path fill="#474b4e" d="M51 105L26 81l63-56z"/><path fill="#716961" d="M260.3 102.2l-35.8-3.1-7.8-7.5 54.3 5.6z"/><path fill="#e7f4fc" d="M89 116l-11 6 6-10z"/><path fill="#3a3d40" d="M87 73l-12 35-35-47z"/><circle r="1" fill="#30384a" transform="matrix(-17.3721 6.66852 -6.7859 -17.67785 192.4 43)"/><path fill="#271a17" d="M162 155h72v11h-72z"/><path fill="#4d4c4b" d="M199.6 30l-31.8 79.8 50.4 50.7-32.3-73.6z"/><circle r="1" fill="#2d3338" transform="matrix(-12.04864 9.2787 -5.01487 -6.51194 65 20.2)"/><path fill="#84756b" d="M131 122l-7 22-37 13z"/><path fill="#c8dbe4" d="M126 99l-10-7-7 21z"/><path fill="#5f6585" d="M231.4 16.8l16.3 62.1-8.5-60-11.3-25.6z"/><path fill="#5b4d46" d="M61 122l-23 29 75-33z"/><circle r="1" fill="#a5c4ea" transform="matrix(-24.34192 -38.20917 13.43498 -8.55903 207.9 6)"/><path fill="#9ab8e2" d="M68-9l51 51 44-58z"/><ellipse cx="220" cy="82" fill="#6c7f8f" rx="36" ry="2"/><path fill="#d8c9ae" d="M268.8 131.4l-.8 10-54.8-4.8.8-10z"/><path fill="#72787b" d="M117 57.2l8.4-23.9-65.9 69.3 63.2-63.5z"/><circle r="1" fill="#736a54" transform="matrix(-1.30393 -2.18736 8.94883 -5.33458 6 144.2)"/><path fill="#cde3f8" d="M22 40l23 21 15-14z"/><path fill="#88746b" d="M163 125l-23 6 29 10z"/><path fill="#060d14" d="M35.1 141l16.8-2.7 21.7-54.8-51.3 50.1z"/><path fill="#e4eef4" d="M180.7 85.3L117 54l-11.1 23.9 53.8-28z"/><path fill="#424649" d="M151 112.4l3.1-2.5-26-19 2.9 16.7z"/><path fill="#51534b" d="M235.3 128.7l35.7-9.1-15.2 1.3-30.9-4.7z"/><path fill="#87a3d1" d="M44 142L8 159l10-18z"/><path fill="#433634" d="M111.8 128.4l12.1 3.7-22.1-31.6-64.2-30.6z"/><path fill="#2e201e" d="M162 116l-27 3 37 11z"/><path fill="#5c574e" d="M62.9 111.8l-.8-.7 89-98.9.8.7z"/><path fill="#72797a" d="M175.7 139.7l9.3.5 32-10.2-3.6-24.1z"/><circle r="1" fill="#1c1212" transform="matrix(26.46922 5.04927 -.9885 5.1819 156 153.3)"/><path fill="#4c4d4a" d="M27.5 83.8l-14.9 41.6 16.6 2.4 27.5-35.9z"/><path fill="#8c9192" d="M202.3 66l16.1 19-10.7 9-16.1-19z"/><path fill="#494539" d="M171.2-15.8l.7.7-51.1 54.9-.7-.7z"/></g></g></svg>