<svg xmlns="http://www.w3.org/2000/svg" viewBox="0 0 1800 1200"><defs/><filter id="a"><feGaussianBlur stdDeviation="12"/></filter><rect width="100%" height="100%" fill="#2f4463"/><g filter="url(#a)"><g fill-opacity=".5" transform="translate(3.5 3.5) scale(7.03125)"><ellipse cx="114" cy="16" fill="#b4c2c2" rx="144" ry="113"/><ellipse cx="165" cy="20" fill="#acc0d6" rx="253" ry="23"/><circle r="1" fill="#2a4760" transform="matrix(-136.03831 4.9883 -1.07916 -29.43032 32.3 81)"/><circle r="1" fill="#303216" transform="matrix(161.10068 0 0 19.89396 76.9 157.6)"/><path fill="#58585d" d="M257 41l-13 98-61-96z"/><path fill="#9cb2b5" d="M35 112h53v19H35z"/><path fill="#071516" d="M0 61h80v13H0z"/><ellipse cx="186" cy="28" fill="#ffdfb5" rx="18" ry="16"/><circle r="1" fill="#5c778e" transform="rotate(9.7 -524.8 1223) scale(149.63317 17.20349)"/><ellipse cx="18" fill="#6096d4" rx="255" ry="18"/><path fill="#3c292a" d="M216 60h40v30h-40z"/><path fill="#5f645c" d="M27 21h62v12H27z"/><circle r="1" fill="#4e5453" transform="matrix(15.84041 -12.75123 16.28801 20.23403 112 57.8)"/><path fill="#d0bca4" d="M110 16l67 18-143 6z"/><circle r="1" fill="#4c739a" transform="matrix(89.6627 .04955 -.01013 18.3342 31.8 99.3)"/><path fill="#ab9f97" d="M184.2 55.7l49.1 23.8-35.6 1.4-54.9 9.9z"/><path fill="#d4c2ab" d="M84.3 69.2L60.1 32.4l19.1 19.2 15.9 9.3z"/><path fill="#172e4f" d="M129.4 117.5l.2 4-57 3-.2-4z"/><circle r="1" fill="#153359" transform="matrix(17.29338 -3.04929 .68251 3.87072 154.1 114.5)"/><ellipse cx="173" cy="131" fill="#3e5154" rx="65" ry="10"/><path fill="#c8d6de" d="M240 57l31-12-5 18z"/><ellipse cx="9" cy="33" fill="#fff5e1" rx="16" ry="4"/><ellipse cx="75" cy="128" fill="#e7dbcc" rx="24" ry="2"/><path fill="#00243c" d="M100 62h21v15h-21z"/><path fill="#4c524b" d="M130 73l34 1 20-34z"/><path fill="#82694d" d="M170 8l-12 10 5 27z"/><path fill="#b1b79e" d="M77.2 110.3l-3.1 10.3 69.6-8.5 40.4-7.7z"/><path fill="#202413" d="M197.3 151.5l13.9-18-60.8 8.3-62.6.8z"/><ellipse cx="53" cy="123" fill="#1f426b" rx="41" ry="3"/><path fill="#7e7a74" d="M159 105l-36-65 4 66z"/><path fill="#c6c6c7" d="M39 106h10v15H39z"/><path fill="#d6c6b7" d="M161.4 62.6L160 19.8l-17.5 19.7 12.5 4.8z"/><ellipse cx="107" cy="133" fill="#434d65" rx="35" ry="7"/><path fill="#5d5241" d="M101 28h12v14h-12z"/><path fill="#8a8f8d" d="M176.9 131.5l-12.3-1.8 26.3-7.9 12.9-6.3z"/><path fill="#eae4cd" d="M139.8 121.8l44.2-8.6.2 1-44.2 8.6z"/><path fill="#2a272d" d="M139.4 36l6.4 2.8-3.2 7.3-6.4-2.9z"/><circle r="1" fill="#21354b" transform="rotate(65.1 8 193.9) scale(2.79896 18.98948)"/><path fill="#4d8bba" d="M93 48h21v12H93z"/><ellipse cx="72" cy="35" fill="#edece6" rx="28" ry="3"/><path fill="#2578ad" d="M198.9 65.2l21.9 7.1-52.4 32.2 46.3-38.3z"/><path fill="#c8b9a9" d="M242 55l1-16-27-11z"/><path fill="#455d6e" d="M73 15l19.2 8.6L89 31l-19.2-8.5z"/><path fill="#1b4a6b" d="M3 48l-19 15h71z"/><path fill="#7a705e" d="M211.4 30.4l-2.7 30.7h-11.4L167.6 63z"/><path fill="#fff" d="M134 33l-15-1 8 9z"/><path fill="#7ca3cb" d="M86 6h72v18H86z"/><path fill="#41678f" d="M206 95h41v36h-41z"/><ellipse cx="28" cy="39" fill="#b2a391" rx="73" ry="4"/><path fill="#4e5653" d="M30.7 156.6l103.5 9.1L57 147l-21.7.4z"/><path fill="#945e68" d="M249.6 88.2v23.7l1.4-31.1-40.4-7.9z"/><path fill="#f0ead9" d="M36 128h27v3H36z"/><ellipse cx="238" cy="65" fill="#031d2d" rx="10" ry="5"/><path fill="#e7d8c0" d="M91.3 128.3l-.2-2 53.6-6.6.2 2z"/><ellipse cx="54" cy="27" fill="#3e4a4d" rx="10" ry="5"/><ellipse cx="236" cy="17" fill="#78a4d2" rx="32" ry="13"/><path fill="#433632" d="M96.4 39.4l-4.4 10-6.4-2.8 4.4-10z"/><path fill="#c9baae" d="M168.4 37.5l1-40.6 11 41.8-36.5 25.4z"/><path fill="#6f89a3" d="M110.3 86.6L83.5 67.4 70.2 93.2l33-6.5z"/><path fill="#b0a99b" d="M168 61h32v20h-32z"/><ellipse cx="241" cy="150" fill="#2f4858" rx="36" ry="24"/><path fill="#7ba0c6" d="M77.8-12.6L-16 26.5l80.7-3.6 5 29.7z"/><path fill="#91cea5" d="M194.5 134l-.5-2 15.5-4 .5 2z"/><path fill="#62605e" d="M0 42h86v5H0z"/><path fill="#001b3f" d="M179 131l30-9-2-9z"/><path fill="#c8b094" d="M141 48l-4 13-10-22z"/><path fill="#d7c9b4" d="M32 118h39v3H32z"/><path fill="#87888b" d="M184.5 88.1l-35.9-15.9-1.6.6-27.9 10.6z"/><path fill="#f9fcf7" d="M144 32h14v8h-14z"/><path fill="#0c2642" d="M190.2 120.1l-2.4-3.2 20-15 2.4 3.2z"/><ellipse cx="197" cy="57" fill="#403f3a" rx="29" ry="2"/><path fill="#303f54" d="M113 40h6v66h-6z"/><circle cx="218" cy="85" r="5" fill="#091625"/><path fill="#455a55" d="M142.7 79.6l-17.2-13.1 28-17.1-12.6 2.5z"/><path fill="#939792" d="M211 96l-26 20 25-45z"/><circle r="1" fill="#37557a" transform="rotate(-1.7 3477.1 -2014.3) scale(17.95113 6.3348)"/><path fill="#21385d" d="M174.5 118.7l1.4 9-48.4 7.6-1.4-9z"/><circle r="1" fill="#4a5a6c" transform="rotate(86.1 3.8 129.9) scale(1.79884 71.6635)"/><path fill="#e2e4e4" d="M69.2 32.3L57.1 43.9l16.6-2.3-15.9-7.5z"/><path fill="#deddd8" d="M168 37h34v5h-34z"/><path fill="#847c76" d="M162 40l23 25 1-22z"/><circle r="1" fill="#1f3041" transform="rotate(-10.2 954.8 30.2) scale(28.82688 40.62695)"/><path fill="#8c9089" d="M201.6 117.2l-8.7 4.8-28.7 13.4 48.8-29z"/><path fill="#222421" d="M30.3 137.8l11.8 8.3-11.6 3.1 102-7.4z"/><path fill="#1e3741" d="M57 75H10l2-18z"/><path fill="#4c504d" d="M58 12l-2 11 9 10z"/><path fill="#e9dbb8" d="M175.4 104.5l-.5-.8 13.7-8.2.5.8z"/><path fill="#5f532d" d="M36 21l5 6-17 2z"/><path fill="#eaf0ec" d="M87.5 127l-28.9 3v-1l28.8-3z"/><circle r="1" fill="#455f7e" transform="rotate(-98.4 100 1.1) scale(6.4049 33.31764)"/><path fill="#c3b5a5" d="M145.8 112.4l-41.9 5.3-76 2.8 74-6.1z"/><path fill="#b6a799" d="M17 47h146v2H17z"/><path fill="#0e75b0" d="M181.6 98.4l-4.9-.3-3.5-3.6 41-19.5z"/><path fill="#213c56" d="M43 116l-11-2 7-5z"/><ellipse cx="243" cy="45" fill="#4e5966" rx="49" ry="3"/><path fill="#d05d66" d="M221 74l9 12 2-13z"/><path fill="#b1a190" d="M95 23h74v10H95z"/><path fill="#a59d9a" d="M0 30h46v2H0z"/><path fill="#9c9584" d="M227.9 29.9l21.4 7.6-51.1-4.5 29.4 17.8z"/><path fill="#d1d5d7" d="M63.7 21.7l12.9 7.8-12.5 9.4 4.7-17.8z"/></g></g></svg>