<svg xmlns="http://www.w3.org/2000/svg" viewBox="0 0 4544 3029"><defs/><filter id="a"><feGaussianBlur stdDeviation="12"/></filter><rect width="100%" height="100%" fill="#2a3648"/><g filter="url(#a)"><g fill-opacity=".5" transform="translate(8.9 8.9) scale(17.75)"><circle r="1" fill="#8ac8ee" transform="matrix(-184.2757 175.68927 -85.2926 -89.46108 137.3 37.6)"/><circle r="1" fill="#000a1a" transform="rotate(126.1 27 85) scale(46.14986 37.01543)"/><circle r="1" fill="#80b1ed" transform="matrix(-29.47737 55.67306 -73.29586 -38.80816 184.6 20.9)"/><circle r="1" fill="#186c6d" transform="matrix(27.37136 -36.83207 47.69666 35.44527 220.8 135.7)"/><circle cx="48" cy="34" r="53" fill="#5693df"/><circle r="1" fill="#254a41" transform="rotate(63.7 -83.3 117.8) scale(23.45293 32.43712)"/><path fill="#783819" d="M117 82l16-55-41 6z"/><path fill="#ffffed" d="M82 23l38-10 24 24z"/><path fill="#fffff8" d="M11.4 184.9l-12.9 1.6-10-81.4 13-1.6z"/><circle r="1" fill="#d7a78a" transform="rotate(149.2 58.2 90.8) scale(12.26581 31.27967)"/><circle r="1" fill="#8ab1ab" transform="matrix(1.74632 34.47278 -47.41648 2.40202 41.6 83.3)"/><path fill="#d37d48" d="M63.5 190.7l-5.7-14 92.7-37.4 5.7 14z"/><path fill="#f8ffff" d="M175.1 149.2l1.7-6-12.5 41.8 1.9-56.7z"/><circle r="1" fill="#2765b2" transform="matrix(121.30675 -22.21831 3.47957 18.99765 50 7)"/><path fill="#9fbed5" d="M156 67h100v20H156z"/><circle r="1" fill="#22596c" transform="rotate(41.2 -87.5 364.7) scale(45.42335 47.44723)"/><path fill="#ce9268" d="M5.7 110L11 97l47.3 19-5.3 13z"/><ellipse cx="38" cy="88" fill="#194e4c" rx="60" ry="3"/><path fill="#004a54" d="M70 156l-40-7-7-41z"/><ellipse cx="220" cy="95" fill="#69c798" rx="65" ry="5"/><ellipse cx="197" cy="169" fill="#dcc7b9" rx="3" ry="28"/><path fill="#fff2d7" d="M-11 183l26-39-2 39z"/><ellipse cx="10" cy="126" fill="#4d5547" rx="7" ry="23"/><circle r="1" fill="#254536" transform="matrix(3.61059 41.86021 -3.98875 .34404 22.9 169)"/><ellipse cx="222" cy="1" fill="#3a77bd" rx="88" ry="13"/><path fill="#112541" d="M139 139l-28-77-4 97z"/><circle r="1" fill="#74584a" transform="matrix(6.38923 10.52607 -19.27476 11.69961 73.9 117.4)"/><circle r="1" fill="#205261" transform="matrix(20.36916 21.2757 -9.32286 8.92562 175.4 124.2)"/><ellipse cx="68" cy="67" fill="#78a2d6" rx="36" ry="19"/><path fill="#edc7b9" d="M65 164h33v6H65z"/><path fill="#cfd3d1" d="M9 157h65v2H9z"/><path fill="#35577c" d="M126.8 164.5l15.3 20.5 18.8-54.7 7.7 24.3z"/><path fill="#9eb8d8" d="M134 8l51 20 52-11z"/><path fill="#d5d8db" d="M97.5 41.6l-10.4-15 30.2-18-18.7 23.1z"/><path fill="#224e8a" d="M133 66l18 20-58 14z"/><circle r="1" fill="#c0b690" transform="matrix(3.05843 -.77824 7.2856 28.63181 22.1 126.5)"/><path fill="#9e6140" d="M156.6 107.8l-4.4 27.7-16.7 10.4 7.6-30.1z"/><path fill="#f9eee1" d="M105.2 13.8l37.7 26.8-10.9 1.6-14.3-27.3z"/><path fill="#8e929a" d="M197 112h6v39h-6z"/><path fill="#63b78a" d="M72.8 111.9l5.4-6.4 8.6-15.2L-16 89.1z"/><path fill="#fff" d="M162 166l4 19 6-35z"/><path fill="#523f3d" d="M133 36.4l-14.6 33-17.4-7.8 14.6-33z"/><ellipse cx="200" cy="88" fill="#0d455d" rx="85" ry="2"/><path fill="#1e6d7e" d="M77 121h19v32H77z"/><circle r="1" fill="#5188c7" transform="rotate(-126.3 34.1 9.4) scale(11.46804 91.30746)"/><ellipse cx="242" cy="121" fill="#1e5b6c" rx="39" ry="27"/><circle r="1" fill="#558fca" transform="matrix(1.9386 13.31799 -85.16367 12.39658 213.4 39.4)"/><path fill="#816a68" d="M96.9 27l29.5 5.2-3.3 18.8-29.5-5.2z"/><path fill="#d9d7c1" d="M15 122h3v22h-3z"/><ellipse cx="7" cy="71" fill="#779dc7" rx="92" ry="16"/><path fill="#fff" d="M173 154l-3-17-10-10z"/><path fill="#cdb7b0" d="M17 106h58v4H17z"/><path fill="#c5ccbb" d="M72.8 156.9l-4.5-25.6 1-.2 4.4 25.6z"/><path fill="#eceeea" d="M84.4 155.7l.1 1-23 1.6v-1z"/><ellipse cx="106" cy="101" fill="#19375d" rx="18" ry="30"/><path fill="#4882c3" d="M109.8 10.4l3.2-7.3 67.2 28.5-3.2 7.3z"/><path fill="#d19f7d" d="M157 141l-1-27-21 37z"/><path fill="#131c31" d="M133.9 176.6l-5-8.7 11.2-6.5 5 8.7z"/><path fill="#2f6a5c" d="M91 106.6l-62-2.2v-3l62 2.2z"/><ellipse cx="20" cy="165" fill="#33585b" rx="6" ry="32"/><ellipse cy="129" fill="#fffbea" rx="4" ry="16"/><ellipse cx="16" cy="10" fill="#3c74b3" rx="79" ry="31"/><path fill="#c6ceb5" d="M-16 89.9l3.1 3.3 32.3 5.2 41.2 22.1z"/><path fill="#135464" d="M32 133h35v24H32z"/><circle r="1" fill="#8f6b58" transform="matrix(43.445 -18.40261 2.68222 6.3322 109.6 169)"/><path fill="#35629b" d="M128.7 64.6l-25.5 50 39.4-47.4 19.8 40.9z"/><path fill="#1a2b40" d="M136 134l-44 21 41-74z"/><path fill="#d8d7d5" d="M148.5 37.1L110.1 9.5l23.8 28.2-4 7.5z"/><path fill="#1a5763" d="M170 185l27-42-23-12z"/><path fill="#d3e2f7" d="M200 109l4 13.4-2 .6-4-13.4z"/><path fill="#cec8bf" d="M-9.4 162.1l7.7-3 44-1.1 4.3 1.3z"/><path fill="#7dcab3" d="M181 92h60v4h-60z"/><path fill="#53403f" d="M75.4 131l19.5-18.6-30.2 2.3-13.2 7.1z"/><path fill="#292827" d="M6 114h3v35H6z"/><path fill="#936b5d" d="M112.5 77.7l-4.8-6.5 17.8-12.9 4.8 6.5z"/><path fill="#6081a1" d="M157.9 176.1l7.9-13.5 1.4-19.6-24.4 17z"/><ellipse cx="243" cy="66" fill="#74a3cd" rx="111" ry="10"/><ellipse cx="58" cy="162" fill="#374f6b" rx="27" ry="4"/><path fill="#1f2c3d" d="M129.5 39.3l-6.2 17.3L96 86.8l34.4-49.7z"/><path fill="#598269" d="M0 89h82v5H0z"/><path fill="#7bd1b6" d="M0 95h74v7H0z"/><path fill="#659aca" d="M99 62l-39 1 37-29z"/><ellipse cx="211" cy="82" fill="#a0b8cc" rx="56" ry="4"/><path fill="#a59f89" d="M20.3 106.2L35.4 185l24.2-25.5-32.1 12z"/><path fill="#d6d7d9" d="M91.3 17l41.2 14.3L89 28.7l3.8-15.6z"/><path fill="#1f596d" d="M165.4 115.8l35.1 5.3-8.2 30-38-28.2z"/><path fill="#438e7b" d="M150 98h106v5H150z"/><path fill="#8a6551" d="M30 117l-12-13 34 17z"/><path fill="#1d5965" d="M69.3 140L34 158.6l-9.7-42.9.6-1.2z"/><path fill="#989697" d="M157 111h43v2h-43z"/><path fill="#7e8d9c" d="M87 164l28-6-27-5z"/><path fill="#6e5a54" d="M139.3 114.4l23.1-9.8-5.6 8.2-19.3 30.3z"/><path fill="#ffedd1" d="M46 115h9v3h-9z"/><path fill="#575d54" d="M49.3 112.4l-1.6-5.5 13 3.8 14.5 10z"/><path fill="#bdd3d3" d="M194 155h2v15h-2z"/><path fill="#1e3a5c" d="M98 76h21v62H98z"/><path fill="#396bb1" d="M148 71.7l2.2 17.6.8 21.4 9.2-19z"/><path fill="#31343d" d="M67.4 172.4L50.7 161l5 7.6 45 16.4z"/><path fill="#ffcaad" d="M4 107.3l-.6-.8L16 96.7l.6.8z"/><circle r="1" fill="#192a3f" transform="matrix(-.30978 12.67547 -14.72123 -.35978 112.1 143)"/></g></g></svg>