<svg xmlns="http://www.w3.org/2000/svg" viewBox="0 0 1800 1200"><defs/><filter id="a"><feGaussianBlur stdDeviation="12"/></filter><rect width="100%" height="100%" fill="#4c2c34"/><g filter="url(#a)"><g fill-opacity=".5" transform="translate(3.5 3.5) scale(7.03125)"><circle r="1" fill="#ff991e" transform="matrix(-171.92181 22.48039 -10.73146 -82.07028 123.5 30.2)"/><circle r="1" fill="#ffffd2" transform="matrix(17.8048 2.56605 -5.1451 35.6998 86.3 48.8)"/><circle r="1" fill="#ff8920" transform="rotate(1 -1018.5 5826) scale(124.87502 23.57974)"/><circle r="1" fill="#983113" transform="rotate(-96.2 126.9 -33) scale(29.69606 168.55449)"/><ellipse cx="83" cy="56" fill="#fff" rx="18" ry="15"/><ellipse cx="253" cy="140" fill="#291a02" rx="255" ry="28"/><ellipse cx="83" cy="80" fill="#ff7522" rx="60" ry="10"/><path fill="#dc6e0f" d="M107.9 185l45.7-16.9-79-8.5-19.9 4.9z"/><ellipse cx="90" cy="26" fill="#ffcc3c" rx="60" ry="10"/><circle r="1" fill="#e66214" transform="matrix(3.49226 -13.62995 33.44984 8.57051 129.2 48.6)"/><ellipse cx="85" cy="54" fill="#fff" rx="16" ry="13"/><circle r="1" fill="#c34610" transform="matrix(-46.8756 10.33156 -6.52627 -29.6105 21 63.8)"/><circle r="1" fill="#ca5922" transform="matrix(97.52366 -40.2245 11.71164 28.39468 198.8 29.3)"/><ellipse cx="72" cy="149" fill="#aa5727" rx="59" ry="3"/><circle r="1" fill="#7d3822" transform="matrix(-187.94887 61.0693 -5.20897 -16.03128 233.4 73.9)"/><path fill="#3c2714" d="M-13 179.8l1-67 79 1.4-1 67z"/><path fill="#ed7b1f" d="M89.5 35.7L70.3 48.2 58.8 99.3l-7.1-58.7z"/><circle r="1" fill="#a44719" transform="matrix(-.14462 11.21887 -55.20698 -.71167 9.3 1.6)"/><ellipse cx="82" cy="79" fill="#ff8a2f" rx="32" ry="7"/><ellipse cx="213" cy="155" fill="#09090d" rx="159" ry="6"/><path fill="#83381f" d="M-1 114l-13-33 118 26z"/><circle r="1" fill="#ab5224" transform="rotate(91 82.8 90.9) scale(5.40791 66.73553)"/><circle cx="84" cy="58" r="14" fill="#f6ffff"/><path fill="#f6902c" d="M131.7 34.6L177 36l3.7-13.9L35.3 5z"/><path fill="#c76b25" d="M158.6 180.3l-29.2 4.7-47.6-24.8-49.1 4.3z"/><circle r="1" fill="#a8431c" transform="matrix(91.16591 -36.42196 5.03771 12.60964 176 72.4)"/><path fill="#f27a22" d="M55.4 52.2l12.3 23.9 73.4-14.5-50.6 19.7z"/><path fill="#7b4125" d="M0 131h202v3H0z"/><ellipse cx="161" cy="169" fill="#934615" rx="50" ry="4"/><circle r="1" fill="#ffd84b" transform="rotate(.5 -3058 9509.3) scale(30.11977 6.70942)"/><path fill="#fc8f2c" d="M127 45.5l28.8 2-.7 11-29-2z"/><circle r="1" fill="#a95218" transform="matrix(.20445 5.19003 -41.84804 1.64854 143.8 40.6)"/><ellipse cx="106" cy="148" fill="#814425" rx="87" ry="3"/><ellipse cx="107" cy="126" fill="#131114" rx="174" ry="2"/><path fill="#35241e" d="M101 113h104v19H101z"/><path fill="#ffe781" d="M72.6 167.3l.2-1 22.6 4.4-.2 1z"/><ellipse cx="32" cy="139" fill="#161219" rx="53" ry="5"/><circle r="1" fill="#fa902c" transform="rotate(-14.8 99.9 -219.4) scale(37.19152 7.61154)"/><path fill="#a74518" d="M10 62h57v15H10z"/><ellipse cx="80" cy="122" fill="#824726" rx="77" ry="2"/><circle r="1" fill="#ff9334" transform="rotate(70.8 -4.8 105.2) scale(6.06379 16.24758)"/><path fill="#ff8920" d="M102 46l1 27 6-22z"/><ellipse cx="13" cy="166" fill="#6f361a" rx="76" ry="2"/><path fill="#773c24" d="M195 74h61v40h-61z"/><ellipse cx="75" cy="150" fill="#fa8928" rx="26" ry="1"/><ellipse cx="11" cy="131" fill="#723e23" rx="89" ry="4"/><circle r="1" fill="#3a261d" transform="rotate(-96 77.6 39.4) scale(7.35484 31.62242)"/><circle cx="242" cy="169" r="33" fill="#241913"/><ellipse cx="92" cy="91" fill="#b04819" rx="126" ry="5"/><ellipse cx="112" cy="14" fill="#bf5c1a" rx="49" ry="2"/><circle r="1" fill="#b95e2d" transform="matrix(-68.2907 -17.43098 4.28426 -16.78478 223.4 10.3)"/><path fill="#df781a" d="M117.3 58.3L75.5 32.8 35.2 61l64.2-27.7z"/><path fill="#b54914" d="M107.9 59.7l-6.7 8.9 38.6 6.5 35.9-18.3z"/><path fill="#2f1a15" d="M0 152h107v9H0z"/><circle cx="83" cy="56" r="15" fill="#f4f6fd"/><path fill="#d3691c" d="M95.4 132.9l-.3 1-22.5-4.8.3-1z"/><path fill="#ef8225" d="M76 122h18v2H76z"/><path fill="#ee7a29" d="M51.2 90.4l30.9-9.5-29.3-41.5 21.1 52.2z"/><path fill="#823c22" d="M180.7 95.5L271 83.2l-77.1 31.2-179.7-4.6z"/><path fill="#be5e1c" d="M-16 29.4l64.2 30.2 27.9-24.2-27.9-2.1z"/><path fill="#5e301d" d="M136 161h-34l-5 20z"/><circle r="1" fill="#221817" transform="rotate(-178.8 78 69.4) scale(33.83331 6.28189)"/><ellipse cx="77" cy="78" fill="#ffab3f" rx="22" ry="3"/><ellipse cx="66" cy="161" fill="#894018" rx="34" ry="2"/><path fill="#804328" d="M224 163h32v2h-32z"/><path fill="#803d23" d="M-10 114L5 88l44 18z"/><ellipse cx="45" cy="126" fill="#251817" rx="255" ry="3"/><path fill="#e08229" d="M68 118h33v1H68z"/><ellipse cx="174" cy="51" fill="#cd5d1e" rx="25" ry="11"/><ellipse cx="63" cy="164" fill="#cf7023" rx="43" ry="1"/><path fill="#683925" d="M-16 146.4l101.3 7.4-61.6-9.7-18.9 8.4z"/><circle r="1" fill="#f5f4f4" transform="matrix(10.0198 8.50019 -8.16565 9.62544 89 56.3)"/><ellipse cx="238" cy="146" fill="#583223" rx="63" ry="2"/><path fill="#4a2b20" d="M36 142h81v6H36z"/><ellipse cx="204" cy="30" fill="#d8732d" rx="37" ry="6"/><circle r="1" fill="#5c3424" transform="matrix(.05255 -2.36823 20.09387 .44588 234.4 133.9)"/><path fill="#1a1515" d="M227 118h28v14h-28z"/><path fill="#ffa42c" d="M63.4 47l5.9 1.3L66.6 61l-5.9-1.3z"/><path fill="#ffa533" d="M73 41l72-13-31-7z"/><path fill="#ea6a28" d="M79.2 88.4l50.7-6.6-36-11.8 26.5-21.3z"/><path fill="#0f0908" d="M12 169h61v1H12z"/><path fill="#fff357" d="M100.9 33l-26-1 .2-5 26 1z"/><path fill="#6e3c25" d="M153 142h52v2h-52z"/><circle r="1" fill="#e48026" transform="matrix(-24.10422 13.25517 -7.31807 -13.30774 109.2 0)"/><path fill="#9b411b" d="M132.5 71l79.1 26.6-22.8-32.8-77.6 2.1z"/><path fill="#241716" d="M70 139l-5-15-9 12z"/><path fill="#9b4625" d="M204.1 78.7L271 53.1l-45.7-6.9-6.9-13.2z"/><ellipse cx="146" cy="158" fill="#170f0f" rx="47" ry="4"/><ellipse cx="53" cy="79" fill="#f26d2e" rx="11" ry="4"/><path fill="#b4591d" d="M78 4L12-16l-28 28z"/><path fill="#2d1f1a" d="M37 150l29 9-61 3z"/><path fill="#e9882c" d="M124 16h36v20h-36z"/><path fill="#d45a21" d="M96 94.9l20.5-26.1L145 91l-15.5-4z"/><ellipse cx="72" cy="116" fill="#1d1613" rx="55" ry="1"/><path fill="#974117" d="M51.7 83l1.3 2.6-10.7 5.5-1.3-2.7z"/><path fill="#ca631c" d="M67 133h30v1H67z"/><ellipse cx="139" cy="148" fill="#291c19" rx="26" ry="1"/><circle cx="89" cy="59" r="11" fill="#f3f4f5"/><path fill="#eb842a" d="M20 16h29v18H20z"/><circle r="1" fill="#683a24" transform="rotate(-95 95.4 54.2) scale(1 24.4552)"/></g></g></svg>