<svg xmlns="http://www.w3.org/2000/svg" viewBox="0 0 3024 3024"><defs/><filter id="a"><feGaussianBlur stdDeviation="12"/></filter><rect width="100%" height="100%" fill="#3c2f29"/><g filter="url(#a)"><g fill-opacity=".5" transform="translate(6 6) scale(11.8125)"><circle r="1" fill="#ffffef" transform="rotate(116.4 25.3 87) scale(190.45186 225.77509)"/><circle r="1" fill="#230d05" transform="matrix(21.6018 66.09077 -28.57975 9.3413 58.7 158)"/><circle r="1" fill="#020000" transform="rotate(178.4 81 42.2) scale(16.93498 58.83293)"/><path fill="#e9e5d2" d="M-24.7 59.1l40-116.3L166.8-5l-40 116.3z"/><ellipse cx="236" cy="23" fill="#e5d8c1" rx="55" ry="211"/><path fill="#eee0cd" d="M76 96l34 34-63 45z"/><path fill="#4e3731" d="M18.7 176.6l14.4-34 148.2 62.8-14.4 34z"/><ellipse cx="49" cy="113" fill="#0a0700" rx="21" ry="25"/><path fill="#1f0b09" d="M138.5 93.3l-4.6 27.9L188.8 89l-12.2-34.1z"/><circle r="1" fill="#632f1f" transform="matrix(19.82174 -13.76497 6.34518 9.13715 166.6 163)"/><ellipse cx="7" cy="109" fill="#cdc8b9" rx="19" ry="73"/><path fill="#ffdffe" d="M173 211l35-40-36 10z"/><path fill="#ffd4bc" d="M51 139h10v33H51z"/><circle r="1" fill="#dedccb" transform="rotate(109.4 104.4 74) scale(36.23756 112.68776)"/><path fill="#a9a79a" d="M116.6 205.3L85.8 271l-12.4-74.3 19.8-1.5z"/><path fill="#442b27" d="M22 136h30v68H22z"/><path fill="#cd9378" d="M230 166l-18 40-68-94z"/><ellipse cx="87" cy="119" fill="#bab5a6" rx="22" ry="39"/><path fill="#2a2017" d="M100.7 170.2l5.2 18.2-60.6 17.4-5.2-18.2z"/><circle r="1" fill="#b0afa6" transform="matrix(-15.71968 28.45854 -54.1793 -29.92708 69.4 253.7)"/><path fill="#93644f" d="M196 99l-51 9 36 76z"/><path fill="#8b101d" d="M146 174l-17 23-13-15z"/><circle r="1" fill="#ceb0a3" transform="matrix(9.94017 8.3408 -22.92179 27.31712 133.3 156.3)"/><path fill="#ded5bf" d="M109 48h39v33h-39z"/><circle r="1" fill="#9f9c8c" transform="matrix(-5.82583 -23.89852 21.90507 -5.33988 223.2 153.7)"/><ellipse cx="156" cy="56" fill="#271e1a" rx="10" ry="27"/><path fill="#bbb9a9" d="M173 21h47v37h-47z"/><circle r="1" fill="#000d0f" transform="matrix(8.71627 8.2709 -8.09899 8.5351 36.4 107.5)"/><path fill="#543c2a" d="M208 227l-22 6 14-24z"/><path fill="#ffcfb1" d="M182 143h16v22h-16z"/><circle r="1" fill="#eb9f8f" transform="matrix(28.57262 -23.22572 3.86405 4.7536 195.4 211.7)"/><path fill="#525348" d="M230 74.9l-20.3-8.2 2.2-5.6 20.4 8.2z"/><path fill="#574d47" d="M174.7 244.6l-16.5-71.2-7.8 23.3 5.7 47.7z"/><path fill="#1b1e1c" d="M145 84l18 26-31-3z"/><path fill="#928b7a" d="M124 87l-37 74 61-42z"/><path fill="#e0caba" d="M48.6 145.3l28.7-20 8 11.4-28.6 20z"/><path fill="#ccc8ba" d="M24 11h60v79H24z"/><circle r="1" fill="#fae0f1" transform="rotate(98.2 12.8 175.5) scale(15.13531 6.73232)"/><path fill="#bfb9a9" d="M150.5 55.1l-13.7-26.2-60.5 5.2 18.8 111z"/><ellipse cx="21" cy="198" fill="#7f7574" rx="25" ry="16"/><path fill="#c0b4b1" d="M34.8 173.7l-.5-.5-31.4-19.4-18.9 32.8z"/><circle r="1" fill="#9c9789" transform="matrix(1.95703 5.71602 -41.86702 14.33429 8.8 55.3)"/><ellipse cx="79" cy="165" fill="#634942" rx="19" ry="13"/><path fill="#89857b" d="M91 191l-24 39 101 12z"/><path fill="#c6a8d1" d="M195 196l-29 11 3-36z"/><path fill="#7a5640" d="M63.5 138.7l-9.5-3 10.5-34.4 9.5 3z"/><path fill="#dcd6c3" d="M158.8 29.5l-34.9 4.6L222-10.4 179.8-16z"/><ellipse cx="123" cy="53" fill="#eee8d8" rx="27" ry="7"/><path fill="#787362" d="M47 4h28v6H47z"/><circle r="1" fill="#c4afa0" transform="matrix(51.0024 19.36135 -5.26604 13.872 249 223)"/><path fill="#ada286" d="M218 131l-45-21 10-22z"/><path fill="#aca798" d="M109 112L54 62 22 77z"/><path fill="#653e39" d="M172 147l12 30-42-14z"/><path fill="#8b5748" d="M201.5 201.3l-55.2 16.6 23.1-18.2 1.8 26.7z"/><path fill="#4f4c41" d="M87 36h11v6H87z"/><path fill="#cdcbbc" d="M-1 82l23 56 9-15z"/><path fill="#0e0f0a" d="M51 184l-27-13 5 12z"/><path fill="#241811" d="M43 190l37 21-9 8z"/><path fill="#b17164" d="M51.7 216.6l-.3-70.5-21.7-18L54.8 159z"/><path fill="#3d312a" d="M153.3 33l2.4 102.1 28.9-62.3v-6.2z"/><path fill="#aba391" d="M161 109l-94 43 64-3z"/><path fill="#e3dcc2" d="M231.8 240.6l7.4 3-11 25.8-7.4-3z"/><path fill="#26231e" d="M30.4 120.6l33.7-31.9-44.8 71.1 31.3 24.4z"/><path fill="#999589" d="M259.6 98.5l2.8 39.9-16 1.1-2.8-39.9z"/><path fill="#757265" d="M139.9 42.8l-1.5 3.7-24.3-9.3 1.5-3.7z"/><path fill="#eeb394" d="M181 143l5-12-23 1z"/><path fill="#76766c" d="M193 70l11 10-3-19z"/><path fill="#a5948e" d="M149.8 190.1l31.6-23.6-38.2 14.2-20.2 42.8z"/><ellipse cx="209" cy="194" fill="#ffb6ae" rx="5" ry="23"/><path fill="#352d21" d="M155 109l21 23-4-20z"/><path fill="#dcd9ca" d="M29 14h59v23H29z"/><circle r="1" fill="#aba595" transform="rotate(-165.8 82.5 -1.6) scale(31.97432 4.59946)"/><path fill="#e1838e" d="M28 187l9 11 3-15z"/><path fill="#171e1e" d="M163.7 21.4l7.7 4.6-5.1 8.6-7.7-4.6z"/><path fill="#bbb7ab" d="M-4.6 251.1l149.2 5.3-65.9-20-19.2 29.8z"/><path fill="#ffc7b0" d="M50 169.1l3.1 8.9 6.5-18.1-.7-3.9z"/><path fill="#e4dfd0" d="M264.8 26.4L236.4-16H185l38.8 37.2z"/><circle cx="203" cy="152" r="7" fill="#747267"/><path fill="#716d5f" d="M227 262l-17-19 11-16z"/><path fill="#1a1e1c" d="M37 89h11v32H37z"/><path fill="#838b87" d="M27.2 201.6l32.8 4.9 12 16.3-80.4-17.3z"/><path fill="#777c77" d="M31 249L4 221l8-18z"/><path fill="#a89a8e" d="M27.6 186.6l-12-57.5-31.6 3.8 49.9 64.5z"/><path fill="#faf9e9" d="M247.6 80.2l9.2 2.3 13.1 8-27.7-1.3z"/><path fill="#f7e2e4" d="M203.3 125l1.3 12.8-11.9 1.3-1.3-13z"/><path fill="#78766d" d="M206 43h14v8h-14z"/><path fill="#6b6b62" d="M156 119l-34-20v18z"/><path fill="#5c3c2b" d="M50.7 132.3l14-35.3 2.9 34-15.4 13.3z"/><path fill="#a59d8d" d="M100.2 33.1L71.7 47.5l67.4 54.2-53.8-28.8z"/><path fill="#beb49a" d="M187 232h25v24h-25z"/><circle cx="255" cy="219" r="4" fill="#353b35"/><circle r="1" fill="#d5bfb0" transform="matrix(-4.05264 6.9933 -22.86303 -13.2492 203.8 88.9)"/><path fill="#b6725d" d="M195 174h7v41h-7z"/><path fill="#ebe6da" d="M42 83l14-3v12z"/><circle r="1" fill="#c1a6c2" transform="matrix(5.35018 20.10746 -8.33221 2.21703 173.4 191)"/><path fill="#e3e0d5" d="M246.2 211.4l-7.3-12.6-3.1-12.3 35.2 24.4z"/><path fill="#d87677" d="M35.4 172.7l-1.5 2.6-17.3-10 1.5-2.6z"/><path fill="#f8c59d" d="M192.6 209.2l4.8 3.6-18 24-4.8-3.6z"/><path fill="#89212f" d="M178 180l11-9-17-2z"/><path fill="#bcb49f" d="M149.5 71l-1.5 9.5-20.2 20.5 5-46.8z"/></g></g></svg>