<svg xmlns="http://www.w3.org/2000/svg" viewBox="0 0 1800 1200"><defs/><filter id="a"><feGaussianBlur stdDeviation="12"/></filter><rect width="100%" height="100%" fill="#3f3f4e"/><g filter="url(#a)"><g fill-opacity=".5" transform="translate(3.5 3.5) scale(7.03125)"><circle r="1" fill="#c4faff" transform="matrix(35.3883 -72.55677 192.53303 93.90463 168.6 35.1)"/><ellipse cx="196" cy="88" fill="#456583" rx="247" ry="29"/><circle r="1" fill="#b5d9ff" transform="matrix(-3.95048 35.59488 -113.04217 -12.54592 151 26.8)"/><circle r="1" fill="#9b8266" transform="matrix(-123.75984 -31.77613 6.13979 -23.91288 197.3 129.3)"/><circle r="1" fill="#827460" transform="rotate(-60 57.7 4) scale(31.83724 55.92129)"/><circle r="1" fill="#074f93" transform="matrix(-11.32124 19.5198 -46.92006 -27.21304 234.8 94)"/><path fill="#c2d5e8" d="M64 25h188v35H64z"/><path fill="#f3c690" d="M223 142l-82-49 77 13z"/><circle r="1" fill="#73a5ea" transform="matrix(-.2492 20.39679 -204.78144 -2.502 121 0)"/><path fill="#f3d1a9" d="M120.1 90.6l-77-25.4-9.8-8.9 152.9 50.1z"/><path fill="#2d6eb6" d="M107 60h149v23H107z"/><path fill="#0c0800" d="M-5.9 83.5l41 9.4-3.2 13.6-41-9.4z"/><ellipse cx="20" cy="48" fill="#555551" rx="43" ry="24"/><ellipse cx="158" cy="138" fill="#50575d" rx="40" ry="18"/><path fill="#213131" d="M195 138h28v32h-28z"/><circle r="1" fill="#b38c65" transform="matrix(22.80769 -7.19255 4.3468 13.7838 238.4 140)"/><path fill="#121804" d="M47 128h36v20H47z"/><circle r="1" fill="#25689c" transform="matrix(-2.62421 12.90605 -31.41922 -6.38853 171.2 86)"/><circle r="1" fill="#5a6563" transform="rotate(-37.4 210.5 29.6) scale(17.35746 36.58871)"/><path fill="#d8b88d" d="M-16 32l29 10-24-58z"/><circle r="1" fill="#5d656c" transform="matrix(4.85276 -16.81277 68.48038 19.76585 85.6 98.6)"/><path fill="#33381e" d="M220 133h25v7h-25z"/><path fill="#636660" d="M43 151h58v19H43z"/><path fill="#3a3637" d="M184 138l5-19-56 10z"/><path fill="#b4a494" d="M56 88l42-11-36-17z"/><path fill="#7e8b95" d="M139 152l-23-2 48-17z"/><circle r="1" fill="#caad92" transform="matrix(2.0987 -.8995 11.08635 25.8664 42.6 38.4)"/><path fill="#8b8f94" d="M181 136h14v21h-14z"/><path fill="#2e3533" d="M105 157h151v13H105z"/><path fill="#a8bccc" d="M113.3 92.5l3.1 12.6-9.7 2.4-3.1-12.6z"/><path fill="#e8d1b5" d="M248 151.6l-13.5 2.5 15.4-18.5-.1 7.3z"/><path fill="#99bde8" d="M0-16l-1 29 102 13z"/><path fill="#23556e" d="M255 126l-40.2-17.8 8.2-18.3 40.2 18z"/><path fill="#14232c" d="M114.4 103.4l1.5-7.9 15.7 3.1-1.5 7.9z"/><path fill="#8fa6c6" d="M152 116h18v9h-18z"/><ellipse cy="56" fill="#32414c" rx="45" ry="12"/><path fill="#9ebbd9" d="M205 14.2l90.9 1.6-.8 46-91-1.6z"/><path fill="#595c5a" d="M116 114L37 93l-26 26z"/><path fill="#c0a17a" d="M194 130l64 2-69-35z"/><path fill="#40454b" d="M16.7 22.1l18 61.9 5.7-46.3-13-9.3z"/><path fill="#85796b" d="M3 12.6l45.5 13.5-48 .7 59.6 66.8z"/><path fill="#474d56" d="M154.4 96.3L134 112.4l5.7 7.4 9.3 35.6z"/><circle r="1" fill="#3c7cc0" transform="matrix(-.27376 6.1379 -27.16156 -1.21147 99.6 65.6)"/><path fill="#dac1a4" d="M147.5 92.9l33.9 32.3-3.9-8.5 20.5.3z"/><path fill="#7e8387" d="M-16 66.6l40.3 23.5 27.2-11.3-6.7 18.5z"/><circle r="1" fill="#6d9cd2" transform="matrix(-142.7442 -2.74083 .18035 -9.39265 137.4 0)"/><path fill="#c0d1e0" d="M65 41h58v19H65z"/><path fill="#2f3631" d="M36.6 133.1l-4.3-55-5.7-1.5.6 37.2z"/><circle r="1" fill="#413635" transform="matrix(18.24717 20.07604 -10.52758 9.56855 94.1 133.7)"/><circle cx="125" cy="112" r="5" fill="#a5b3c0"/><path fill="#fde0b9" d="M73.6 66.9l37.7 18.4-.9 1.8-37.7-18.4z"/><path fill="#464c4b" d="M58.7 101.2l46.4-14.5-90.5-8.9 46.5-3.2z"/><ellipse cx="192" cy="75" fill="#3e73a5" rx="92" ry="15"/><circle r="1" fill="#ceb58d" transform="matrix(-.13956 1.44938 -20.68221 -1.99147 51 65.6)"/><path fill="#e1daca" d="M193 131l29 2-12-8z"/><path fill="#69717d" d="M-16 102.5l42.9 17.9 11.5-6-21.3-10.2z"/><path fill="#8c97a6" d="M0 75h21v7H0z"/><path fill="#857944" d="M222.6 112.8l-28.9-.1-4.3 17.9-12-11.2z"/><path fill="#1b2028" d="M204 153l-19-10 23-1z"/><path fill="#3d4240" d="M48.5 98.5L22.9 185l10-87.3 42.6 40.9z"/><path fill="#343749" d="M56.2 63.6l-1.4-10 9-1.2 1.4 10z"/><path fill="#9dbde5" d="M135 100l-3 7 16-6z"/><ellipse cx="219" cy="23" fill="#97bce2" rx="178" ry="9"/><path fill="#7d7f80" d="M168.8 157.4l26.5-11.4-9.1 13.5 2.6 1z"/><path fill="#c2a682" d="M47.6 35.8l8.8 38-2 .4-8.8-38z"/><path fill="#56636c" d="M61 97h11v35H61z"/><path fill="#626977" d="M122.3 132.6l48.1-19.4-10.7-.6-55 7.1z"/><circle r="1" fill="#c59874" transform="matrix(6.59524 -4.5095 4.2957 6.28255 232.5 145.4)"/><path fill="#326896" d="M150.5 90.5l65.3 14.2 55.2-1.1-3.1-43.9z"/><path fill="#414a57" d="M126.6 100l24.8 46.8-15.7-40.3 3.2-12.9z"/><circle cx="33" cy="70" r="4" fill="#061412"/><path fill="#636880" d="M211 149.8l1-2.8 71 27.2-1 2.8z"/><path fill="#dec7a3" d="M188 99h7v24h-7z"/><path fill="#83817e" d="M150.3 140.7l10.9 11.2-10-26.5-5.8-37.6z"/><circle cx="244" cy="128" r="4" fill="#ede1ce"/><path fill="#473f44" d="M148 117l21 10-52 16z"/><path fill="#6e747d" d="M55 74h27v15H55z"/><path fill="#27322f" d="M45.4 67.2l7.8 4.1 2.3 6.4-3.6 4.9z"/><circle cx="197" cy="111" r="4" fill="#64682a"/><path fill="#5d574c" d="M233 111l14 30-13-6z"/><path fill="#252a31" d="M130 152h27v18h-27z"/><path fill="#5a5e64" d="M14.6 161.4l1.2-31.2 15.7 36.4 23 17.7z"/><path fill="#69737f" d="M88.7 96.4l32.2 10.1-31.1 3.6-35-3.3z"/><path fill="#161a11" d="M71.3 129.1l5.6 18.2-18.2 5.6-5.6-18.2z"/><path fill="#95a1aa" d="M155 121l-8-6 13-10z"/><path fill="#2d372a" d="M34 67.6l-50-8.1 30.3 11.9 13.5-11z"/><path fill="#fdecd0" d="M148.5 96.2L91.2 78.7l.3-1 57.3 17.6z"/><path fill="#495159" d="M26.1 50l4.1 13.1 20.6-2.4L9.1 18.2z"/><path fill="#a38762" d="M-9.7 6.9l44.3 24-6.5-15.5-16.7 9.9z"/><path fill="#e9c6a2" d="M200 111h16l-11-9z"/><ellipse cx="202" cy="158" fill="#5f626a" rx="7" ry="4"/><path fill="#907e69" d="M107.9 83.7l9.7 10.3 17.2 5.6-65.2-24.4z"/><path fill="#020703" d="M48 105h7v6h-7z"/><path fill="#9d6543" d="M189 124h16v5h-16z"/><path fill="#262e20" d="M179 163h56v7h-56z"/><circle r="1" fill="#1f2527" transform="matrix(1.99659 -1.4347 4.16386 5.79463 65.9 93.9)"/><path fill="#355f73" d="M218.5 116.4l-5.5-5.8 58 17.9-59.2-30.6z"/><path fill="#82aad7" d="M140.4 5.7L271 8l-4.9 21.2-19.6-.9z"/><path fill="#898c90" d="M18 74l5-8 9 9z"/><ellipse cx="208" cy="51" fill="#b6c7d3" rx="143" ry="9"/></g></g></svg>