<svg xmlns="http://www.w3.org/2000/svg" viewBox="0 0 4752 3168"><defs/><filter id="a"><feGaussianBlur stdDeviation="12"/></filter><rect width="100%" height="100%" fill="#425635"/><g filter="url(#a)"><g fill-opacity=".5" transform="translate(9.3 9.3) scale(18.5625)"><circle r="1" fill="#cfb7b7" transform="matrix(11.14174 -60.11543 143.77643 26.64739 215.4 84.5)"/><path fill="#f5eedf" d="M244.7 168.3L174.9 37.9l4.7-30.1 49.8 46.1z"/><path fill="#36451b" d="M0 12h174v39H0z"/><ellipse cx="127" cy="106" fill="#2f350f" rx="36" ry="21"/><path fill="#333c22" d="M224.2 18l41-8.8 20.6 96.9-41 8.7z"/><circle r="1" fill="#877169" transform="rotate(112.9 2.5 71.3) scale(47.86363 31.00777)"/><circle r="1" fill="#ccb9d5" transform="matrix(-4.02654 11.83432 -39.62584 -13.48239 135.7 65.1)"/><path fill="#454227" d="M205 9h7v137h-7z"/><path fill="#b0a8a4" d="M215 98l-49-24-14 96z"/><ellipse cx="191" cy="37" fill="#fef6e8" rx="17" ry="22"/><path fill="#dbdada" d="M218 117h35v33h-35z"/><circle r="1" fill="#4e4e35" transform="matrix(-30.23494 -10.41073 2.51347 -7.29965 183.4 63.1)"/><path fill="#4b4423" d="M206 102h23v17h-23z"/><ellipse cx="4" cy="45" fill="#222112" rx="34" ry="46"/><circle r="1" fill="#d2dcc9" transform="matrix(-3.67006 -1.22905 11.88233 -35.48169 221.7 30)"/><path fill="#fff" d="M216 53h13v47h-13z"/><circle r="1" fill="#457e50" transform="matrix(-58.3979 -10.47424 3.58876 -20.00869 189.6 157.6)"/><ellipse cy="143" fill="#94a58e" rx="13" ry="22"/><circle r="1" fill="#5d7440" transform="matrix(46.25257 -12.60231 5.97362 21.92418 82.3 36)"/><circle r="1" fill="#c6a8ca" transform="matrix(7.94267 1.77123 -2.6719 11.98151 70.9 65.6)"/><path fill="#614f46" d="M177.1 96.2l-64.5-28.3 58.8 51.9 23.4-51.6z"/><circle r="1" fill="#3c432f" transform="matrix(-30.51098 -36.10487 13.23753 -11.18658 138.5 21.7)"/><path fill="#8ea38c" d="M78.5 122.3l-81.2 46.3 39.1-33.3 36-17.6z"/><ellipse cx="249" cy="143" fill="#8d7f8a" rx="18" ry="14"/><path fill="#c69dc7" d="M43.1 107.7L26.4 96.4l21.2-2.8 8.6-8.1z"/><circle r="1" fill="#3c4128" transform="matrix(3.14587 8.95404 -32.28267 11.34204 249.4 36.6)"/><path fill="#181005" d="M7 115h36v15H7z"/><path fill="#4a5c36" d="M75 95h80v75H75z"/><path fill="#e9dbde" d="M201 79l5 33-19-15z"/><path fill="#b899b2" d="M108.7 81.6l23 10.4-37-48.5-6.3 43.3z"/><path fill="#41472a" d="M271 118.9L236 17.5l35 66.3-48 15.4z"/><path fill="#2c4a10" d="M92 26L76 71l16-6z"/><path fill="#c2efb1" d="M95.8 157.6l-2-5.6 10.4-3.6 2 5.6z"/><path fill="#f5e8c6" d="M157 115h12v20h-12z"/><path fill="#ded8c4" d="M227.5 40.9l6.4 14.5 3.2 18.3-27.7 34.7z"/><ellipse cx="113" cy="169" fill="#5ca791" rx="31" ry="5"/><path fill="#ece7ed" d="M196.6 70.4l-42.8 8.5 35.1-3.4 10.6-42.6z"/><path fill="#605940" d="M224.3 131.8l-32-20.2L230.9 97l-30.5 40.2z"/><path fill="#a7aa99" d="M253.1 66.6l-11.9-21.9 3.4 21.4 6.7 26.1z"/><path fill="#6e6c55" d="M161 4l-31 14 73-3z"/><path fill="#fffff5" d="M230 84l-22 18 34-11z"/><path fill="#504e3c" d="M211 41l-15-31 40-26z"/><path fill="#c0b1ba" d="M77.3 132.3l2 7.8-16.7-21.5 9.1-3.9z"/><ellipse cx="206" cy="80" fill="#4d492e" rx="4" ry="22"/><path fill="#f8f6e5" d="M219 142l16-44 2 37z"/><path fill="#3b351f" d="M176.3 178.5l-37-32.9-52.1-3.7-23.1-2.9z"/><circle r="1" fill="#5c9b62" transform="matrix(-25.78957 -8.97918 3.00308 -8.6253 144.7 140.7)"/><path fill="#433d23" d="M51.6 172.3l22.3-20.8-11.3-45.1-6.7 1.3z"/><path fill="#d7dced" d="M126 60h32v8h-32z"/><path fill="#959771" d="M251 6h5v27h-5z"/><path fill="#ceba9e" d="M173 23l-1 26 16 14z"/><path fill="#333b18" d="M52.8 58.8L38 95.7 8.2 17.8 71 110.9z"/><path fill="#9c8489" d="M111.6 47.6l58.7 47-57.2-24.7 28.6-28.6z"/><path fill="#9c9c67" d="M107 15l11-3-3-28z"/><path fill="#fff1bd" d="M158 142h10v7h-10z"/><circle cx="200" cy="50" r="8" fill="#fff"/><ellipse cx="170" cy="131" fill="#5c5e45" rx="3" ry="54"/><path fill="#6c7d62" d="M245.9 79.4l-24.2 10 6.1-8.3 37.6-33z"/><path fill="#749f61" d="M68 58l8-57 6 26z"/><path fill="#baadbe" d="M207.3 136.6l-18.4-12.9-31.4-.6 37.3 14.3z"/><path fill="#ece0ff" d="M165 93h4v10h-4z"/><path fill="#878c62" d="M40.6 14.4l12.6 73.8 7.8 4.2-14.3 15.4z"/><path fill="#817c6f" d="M222.3 99.5l40.5 68-28.6-12.9 6.5-13.5z"/><path fill="#c6bad1" d="M209 122.1l-3.2 5.1-29.9-22.6 31.7 16.8z"/><circle r="1" fill="#373f26" transform="matrix(-13.1736 16.8996 -9.0651 -7.06645 153 34.9)"/><ellipse cx="191" cy="39" fill="#645838" rx="7" ry="2"/><path fill="#fff" d="M218 27h6v10h-6z"/><path fill="#6c6149" d="M127 109l-44 21 15-47z"/><path fill="#3e5426" d="M78 100l-28 23 34-62z"/><path fill="#3d442a" d="M129 87h23v42h-23z"/><path fill="#474326" d="M239 88h9v26h-9z"/><path fill="#fcf7e9" d="M227 138l11-4-21-24z"/><path fill="#c7c8ce" d="M156 58h4v42h-4z"/><path fill="#4c5a44" d="M157.3 34.1l-40.1 32.1L149.9-16l-27.5 81z"/><circle r="1" fill="#366a49" transform="matrix(39.95746 15.39375 -2.7155 7.04862 207 151.5)"/><path fill="#3a402c" d="M234 21l-14 26 40 3z"/><path fill="#7e9374" d="M235-16l-19 39 14 6z"/><path fill="#3b3d1d" d="M100 112l-1-20-34 12z"/><path fill="#dfd8ff" d="M173 90h26v4h-26z"/><circle r="1" fill="#3a2d20" transform="matrix(30.92964 -.71743 .19002 8.19228 62.6 152)"/><path fill="#33391c" d="M12.4 107.6L-16 171.9l4-93.2 52.7 27.9z"/><path fill="#cddddf" d="M239.9 128l-9.4-17.7 22.5 11.6-8 18.5z"/><path fill="#d9e9ff" d="M159 67h18v3h-18z"/><path fill="#d4cfe0" d="M193.6 117.9l-11.6-3.1 2.4-8.7 11.6 3.1z"/><path fill="#1e1a17" d="M99 159l41 7-9-12z"/><path fill="#4e652c" d="M72-7l47 35-16 28z"/><path fill="#3e422c" d="M165.5 46l-37.6-61.4 40.4 80.5 24.7 8.5z"/><path fill="#9aab97" d="M52.4 135.2l-1.3 5.6 2.4-17L29 143.3z"/><path fill="#303622" d="M42.9 18.8l29.1 19-12.6 35.4-1.1-31.3z"/><path fill="#845f63" d="M97.3 94.9l42.4-1 9.1-29-7.8 5.7z"/><path fill="#9a747f" d="M114 64.3l-71.4 51.8 6.5-31.6 17.8 18.9z"/><path fill="#414123" d="M195.6 84.4L184 80.2l13.5-5.6h-1.1z"/><path fill="#e4eaff" d="M131.7 53l-3.8-1.4 2.4-6.6 3.8 1.4z"/><path fill="#4b4724" d="M214 145l3-24-15 10z"/><path fill="#aa95a9" d="M76 47l-9 46-5-30z"/><path fill="#65a11d" d="M99.6 40.8l-13.5-1.4 27.7-7.5 23.7 5.9z"/><path fill="#f5f2e7" d="M176.1 36.1l27.2-1.9-10.9-15.4-16.7 2.6z"/><path fill="#91696f" d="M84.3 118.8L75 106.1l21.3 10.4 1 12.9z"/><path fill="#f4f1e4" d="M235 65l-19 32-3-50z"/><circle r="1" fill="#736c53" transform="matrix(-2.20677 .80325 -5.50368 -15.12027 189.4 65)"/></g></g></svg>