<svg xmlns="http://www.w3.org/2000/svg" viewBox="0 0 1800 1200"><defs/><filter id="a"><feGaussianBlur stdDeviation="12"/></filter><rect width="100%" height="100%" fill="#44464d"/><g filter="url(#a)"><g fill-opacity=".5" transform="translate(3.5 3.5) scale(7.03125)"><path fill="#b8bcb0" d="M44-107.4L261.4 8.1 182 157.4-35.3 41.9z"/><circle r="1" fill="#fffffe" transform="matrix(-29.1211 43.8339 -17.44707 -11.59098 16.4 13.1)"/><circle r="1" fill="#616465" transform="rotate(-120.8 116.3 19.8) scale(70.1068 99.00835)"/><circle r="1" fill="#ecebdb" transform="matrix(-62.19407 1.12605 -.1757 -9.70461 108.6 49)"/><path fill="#39423d" d="M271 70l-62 19 2-105z"/><ellipse cx="171" cy="5" fill="#2d393c" rx="49" ry="10"/><ellipse cx="66" cy="20" fill="#b8bbae" rx="33" ry="22"/><circle r="1" fill="#68625f" transform="matrix(-50.73985 -12.5603 7.3586 -29.72657 62.4 83)"/><circle cx="108" cy="137" r="27" fill="#838688"/><path fill="#cbd6d7" d="M236 19l16-35 19 52z"/><path fill="#4d4d49" d="M211 84l-80-34-7 34z"/><path fill="#eeede6" d="M143.9 42.7L79.3 67.5 85.1 50l-11.3-2.9z"/><circle r="1" fill="#fff" transform="matrix(6.1181 2.83993 -2.95033 6.35594 74.8 3)"/><path fill="#f1edde" d="M24 63.6l-39.4-27.2L-16 17l39.2 36.3z"/><path fill="#858c90" d="M162 137h50v17h-50z"/><path fill="#adb4b0" d="M182.5 19.2l-45.3 30.4 78.4-23.2-13.4-11z"/><circle r="1" fill="#60655d" transform="matrix(-19.36073 -12.0537 3.00239 -4.82245 64.6 18.4)"/><ellipse cx="176" cy="135" fill="#484b4d" rx="144" ry="4"/><path fill="#ebba75" d="M246 161h10v9h-10z"/><path fill="#b8bcb3" d="M156.1 37.4l15.8 2.2 5.7 13.8 1.1 20.3z"/><path fill="#505755" d="M102 27h84v8h-84z"/><path fill="#eceae1" d="M38-9l-54 2 58 36z"/><path fill="#e8e6db" d="M77.3 35.4L72.7 43l-24-14.5 4.6-7.7z"/><path fill="#6e7165" d="M14 29l26 34 17-35z"/><path fill="#9a9398" d="M89 84h44v18H89z"/><ellipse cx="18" cy="79" fill="#60605d" rx="65" ry="20"/><path fill="#9aa09c" d="M219 52l-15-3 40-37z"/><path fill="#49484c" d="M161.3 72l1.4 39-28 1-1.4-39z"/><circle r="1" fill="#333435" transform="matrix(-59.66146 -16.65778 12.8168 -45.90463 0 169)"/><path fill="#363f40" d="M206.1 38.1l19.3-29.8-6.6-11.1 22.6 12.1z"/><path fill="#8c9397" d="M126 111.5h60v19h-60z"/><path fill="#787c74" d="M105.8 43.1l-22.4-.7.2 5.9L37.9-16z"/><path fill="#3f423f" d="M219 54h21v109h-21z"/><path fill="#a29c9f" d="M195 86h21v16h-21z"/><path fill="#585a61" d="M208 101l-29 2 2 69z"/><path fill="#a7aeac" d="M209.8 43l-52.6-31.2 12.3 31.9L186.8 12z"/><path fill="#78756b" d="M238 110h18v29h-18z"/><path fill="#cdd0d3" d="M82 140h3v19h-3z"/><path fill="#5a5155" d="M108.1 118.5l-7.5-10.1-.9-42.9 15.8 31.7z"/><circle r="1" fill="#4d4b4e" transform="rotate(153.6 28.7 71) scale(5.01889 39.69701)"/><path fill="#959d9f" d="M194 108l10 21-16 1z"/><path fill="#979699" d="M93 113h19v20H93z"/><path fill="#cad1cc" d="M163.7 46.6l-2.4 26.9h-1l2.4-27z"/><path fill="#b5b5b7" d="M173.1 90.6l-10.8 12.2L176 82.2l2.7 21.4z"/><path fill="#80806e" d="M11 16h13v7H11z"/><circle r="1" fill="#ebe9e2" transform="matrix(-6.54255 20.82994 -6.02304 -1.8918 1.6 25.6)"/><path fill="#a3aaac" d="M191 136h21v4h-21z"/><path fill="#4f5758" d="M196.8 17.9L171-16l-28.2 62.9 7-38.7z"/><ellipse cx="176" cy="106" fill="#525254" rx="133" ry="5"/><path fill="#333a34" d="M174 35h6v14h-6z"/><path fill="#d4d8dc" d="M78 87l4-3 1 17z"/><path fill="#fff" d="M77 9.1l-7.5-2.9L73-3l7.4 2.9z"/><path fill="#828689" d="M142.6 150.5l11.2-2.7-42.6-4.9-6.7 18z"/><path fill="#e5e5e0" d="M101.5 42.8l10.7 28 .3-35.6 4.5 6.4z"/><path fill="#3f443d" d="M271 120l-70-43 67-37z"/><path fill="#494d53" d="M57 157h95v13H57z"/><path fill="#696763" d="M76.3 51.9l-77.7 10 80 62.4 3.2-76.1z"/><path fill="#ecefee" d="M141 95h14v2h-14z"/><path fill="#43464a" d="M126 131h45l-41 21z"/><path fill="#9aa2a1" d="M92.2 32.1l45.9-19.2-37.5-1 3.4 4.8z"/><path fill="#626760" d="M60.4-3.3l1.9 7.7-15.5 23.7-2.2-7.4z"/><path fill="#b7bfbf" d="M195 51h43v2h-43z"/><ellipse cx="136" cy="130" fill="#d4d8d9" rx="27" ry="1"/><path fill="#9aa3a2" d="M250.1 44.1L236.6-1.4 271-9.8l-7.1 1.3z"/><path fill="#9ca1a3" d="M83.8 157.9l-1.6-19 10-.8 1.6 19z"/><path fill="#bdb9aa" d="M18 30.4l-28.4 36.8 6.4-6.1 30.3-1.9z"/><path fill="#adb7ac" d="M168 71h29v3h-29z"/><circle r="1" fill="#45494c" transform="rotate(88.5 2.7 134.8) scale(1 152.25297)"/><path fill="#acaea5" d="M113 40l13 26 4-34z"/><path fill="#f3f3ef" d="M90 36l-8 18 16 6z"/><path fill="#4d4548" d="M185 64l-1 22 16 13z"/><ellipse cx="124" cy="131" fill="#bdbfc2" rx="32" ry="1"/><path fill="#979a90" d="M182 51l-50 8 37-18z"/><path fill="#454c47" d="M181 52h35v6h-35z"/><path fill="#474a4c" d="M13.7 89.4l63.9 25 45.7 52.1-7.8-9.8z"/><path fill="#d4d3ca" d="M49.8 41.6l9-1.1 1.4 12-9 1z"/><circle r="1" fill="#ccd1d3" transform="matrix(.8334 10.1223 -.99663 .08205 163.6 146.4)"/><path fill="#c8c8bf" d="M40-16l-.4 50.4L1 .1l47.2 13.2z"/><ellipse cx="89" cy="93" fill="#e0e4e5" rx="2" ry="6"/><ellipse cx="99" cy="78" fill="#5f5a54" rx="34" ry="6"/><path fill="#dcdad0" d="M152 39h8v17h-8z"/><path fill="#ebecec" d="M188.2 27.1l8.5-5.3 3.1 5-8.5 5.4z"/><path fill="#3a3d45" d="M180 150l-13-2-3-12z"/><path fill="#c0c7c0" d="M93.7 70.8l-7.2-20.7 5.7 23.5-13.7-1.2z"/><path fill="#dadbdc" d="M161.5 101.2l21-1.4v1l-21 1.4z"/><path fill="#a8b2b0" d="M149.6 69.4l-2.3-3.4-10 .2-3.8 2.3z"/><path fill="#71705e" d="M9 23.5l4.9-1 1.1 6-4.9 1z"/><ellipse cx="179" cy="129" fill="#dce2e3" rx="21" ry="1"/><path fill="#cad4d5" d="M207 60h2v15h-2z"/><path fill="#dfe0d8" d="M99 30l-6-8-14-2z"/><path fill="#4d5658" d="M183.5-16l64.6 26.4-38.5 2.3-19.6 5.7z"/><path fill="#404d4d" d="M142 94l-9 25-7-14z"/><path fill="#3e3b3f" d="M98 115h5v11h-5z"/><path fill="#aba7aa" d="M162.4 87l.3-4 21 2-.4 4z"/><path fill="#ebf1f4" d="M126 142h2v12h-2z"/><path fill="#e3e3de" d="M18.2 59.6l2.5 3.7L-16 23.8l36.8 29.5z"/><path fill="#5a5958" d="M178.3 81.5l-11.7-1.2-5.5-35.7 12.6 48.9z"/><path fill="#d3d8da" d="M137 148h14v2h-14z"/><path fill="#404447" d="M204 134l67 22-75-53z"/><path fill="#e2e7e4" d="M203.2 148.9l-1 .1-1.4-9.9 1-.1z"/></g></g></svg>