<svg xmlns="http://www.w3.org/2000/svg" viewBox="0 0 1800 1200"><defs/><filter id="a"><feGaussianBlur stdDeviation="12"/></filter><rect width="100%" height="100%" fill="#4b393c"/><g filter="url(#a)"><g fill-opacity=".5" transform="translate(3.5 3.5) scale(7.03125)"><circle r="1" fill="#d6f9ff" transform="rotate(62.7 13.2 106) scale(88.36139 255)"/><circle r="1" fill="#bae4ff" transform="rotate(-56.3 30.3 -44.8) scale(170.32064 72.01619)"/><circle r="1" fill="#747066" transform="rotate(-27.1 282.4 -325.3) scale(154.26317 81.15459)"/><circle r="1" fill="#403e3a" transform="matrix(93.18526 -23.6396 2.54426 10.02925 103.2 128.5)"/><path fill="#413e42" d="M55 89l31-32-10-42z"/><ellipse cx="27" cy="99" fill="#d0e7ff" rx="25" ry="44"/><path fill="#a3a39e" d="M241 10l-63 80 93 1z"/><circle r="1" fill="#cce6ff" transform="matrix(-19.69805 -6.05456 11.83838 -38.51522 104.5 23.8)"/><ellipse cx="195" cy="130" rx="6" ry="26"/><circle r="1" fill="#88b7fd" transform="matrix(39.59233 31.3805 -68.19296 86.0381 12.7 22.2)"/><path fill="#222b32" d="M232.7 58l-.2 42.8 6 78.4-20-131.5z"/><path fill="#687078" d="M41 124l207 38-215 22z"/><path fill="#b4a594" d="M54 68h68v33H54z"/><circle r="1" fill="#564432" transform="matrix(64.02873 -19.0878 1.61212 5.40774 169.5 45.7)"/><circle r="1" fill="#c2beb9" transform="matrix(5.87147 8.17102 -23.36964 16.79279 166.5 15.6)"/><path fill="#2a2624" d="M177 106l-63 6 6 19z"/><ellipse cx="19" cy="147" fill="#1c1c18" rx="5" ry="10"/><circle r="1" fill="#c1e1ff" transform="matrix(-10.42212 -3.89733 15.74602 -42.10751 49.1 61.9)"/><circle r="1" fill="#6995d2" transform="matrix(65.37525 -109.2341 25.62494 15.33621 0 3.8)"/><path fill="#dbe2e7" d="M-3.8 140.5l2.7-40 43 3-2.8 40z"/><path fill="#636970" d="M149-2l-48 55 37-10z"/><path fill="#928581" d="M54 77h49v79H54z"/><path fill="#b4c6d1" d="M45 133.7l-14.7-2.8 7.9 41.2-26.4 1.7z"/><path fill="#2b3032" d="M32.5 162l13-17.8 8 5.8-13 17.8z"/><path fill="#bddeff" d="M84 0h44v34H84z"/><ellipse cx="200" cy="3" fill="#1f344d" rx="12" ry="6"/><path d="M158 114h5v34h-5z"/><path fill="#3f4446" d="M75 127h24v18H75z"/><path fill="#f5fbf1" d="M201 70l-14 10 19-2z"/><path fill="#6f665a" d="M229 0h27v32h-27z"/><path fill="#9d8c78" d="M123.8 66l-18 1-1.6-31 18-1z"/><ellipse cx="239" cy="151" fill="#354147" rx="22" ry="38"/><path fill="#6e5c49" d="M217 52l-56 13 44 3z"/><path fill="#a8a7a3" d="M271 66.6l-41.6 21.2 25-58.9-69 20.3z"/><path fill="#47433f" d="M105 105h27v47h-27z"/><path fill="#4b5158" d="M30.2 146.8l-6.2-8.2 2.8-11.7-19.9 36.5z"/><ellipse cx="134" cy="104" fill="#938d86" rx="3" ry="50"/><path fill="#b2b3af" d="M185.4 84.3l-52.8 5.5 13.6 13.3 20-27.9z"/><circle r="1" fill="#b1aca5" transform="matrix(-.91576 15.8822 -3.38288 -.19506 87.4 124.1)"/><path fill="#cddfeb" d="M11 158l4-12-31 3z"/><path fill="#77859d" d="M71.3 154.6l5.2 19.3-35.8 9.5-5.2-19.3z"/><path fill="#aca79a" d="M178 9h71v10h-71z"/><path fill="#363c1d" d="M51 123l1 28-8-24z"/><path fill="#696458" d="M216 108l-71-8 86-13z"/><path fill="#080a0d" d="M199.7 109.6L192 149l8.3-17.6-26.6-28z"/><path fill="#530526" d="M87 105l-12-7v10z"/><path fill="#7e91a2" d="M40.8 98.4l9.7 10.1-9.3 9-9.7-10z"/><path fill="#b0b0ae" d="M127 80l-40 40 28-59z"/><path fill="#445f7f" d="M134.5 36.6l12.2-17.7.7-34.9-19.8 39.2z"/><path fill="#010000" d="M144.3 150.5l-.6-31h4l.6 31z"/><path fill="#bcdaff" d="M113.4 21.3L164.1-16l-90.4 1.2 16.5 82.9z"/><ellipse cx="207" cy="120" fill="#090c0d" rx="2" ry="21"/><path fill="#c1c1bb" d="M65.8 95.2l-1.7 16.7 13.7 3.8-4.3-16.5z"/><path fill="#324965" d="M21.9 158.7l6.8-2.4-44.7 16.2 38.2-22.4z"/><circle r="1" fill="#484238" transform="matrix(-.7772 -2.44546 46.44945 -14.76225 183.5 37.6)"/><circle r="1" fill="#5b4935" transform="matrix(35.31432 -12.60313 .51183 1.43415 175 29.1)"/><ellipse cx="76" cy="39" fill="#55636f" rx="6" ry="22"/><path fill="#002880" d="M88 98h7v9h-7z"/><path fill="#252c34" d="M219 61.1l7.1-3.6 11 21.4-7.2 3.6z"/><ellipse cx="165" cy="125" fill="#83898c" rx="3" ry="24"/><path d="M169 110h2v40h-2z"/><path fill="#736557" d="M189.7 75.1l-42-28.9 7.3 49.9 6.6-23.3z"/><path fill="#7b7166" d="M-13 143l33-4-22 9z"/><path fill="#313331" d="M271 67.5l-4.2-17.3-12.2-43.5L241.7-16z"/><circle r="1" fill="#adcdf2" transform="rotate(121.6 20.9 28.6) scale(115.51063 12.60486)"/><path fill="#e2eff6" d="M41.2 139.7l-1.4-16.3 18.3-7.7-43.8-5.4z"/><path fill="#a19f9a" d="M194.5 92.7L218 62.6l7.2 15.7 5.6 5.4z"/><path fill="#6a7b90" d="M55 75.7l31.7-29.4-.8 28.1L67 44.8z"/><path fill="#4d4842" d="M130.4 100.5l-4.7-41 81.6-28.9L131 51.3z"/><path fill="#adaea9" d="M105.9 80.5l20-16.4-50.7 12.8L67.6 93z"/><path fill="#4a4948" d="M75 119h6v39h-6z"/><path fill="#14161b" d="M228.2 149.4l11.5-3.9-3-7-3-25z"/><path fill="#b1b2ae" d="M209.9 3.8l23.9-7.3 2.3 7.7-23.9 7.3z"/><ellipse cx="140" cy="122" fill="#93908a" rx="2" ry="29"/><ellipse cx="114" cy="120" fill="#837f7e" rx="3" ry="26"/><path fill="#bddeff" d="M126.1 40.3l3.2-45 12.5-.6-18 33.3z"/><path fill="#999690" d="M99 166.3l-4.2-91.2L90.3 95l14.3 21.5z"/><ellipse cx="73" cy="44" fill="#a9c5df" rx="13" ry="3"/><path fill="#667079" d="M210 120l16 43-7-79z"/><path fill="#6a6c71" d="M125 151h92v19h-92z"/><ellipse cx="142" cy="89" fill="#b7bab6" rx="5" ry="12"/><path fill="#92999e" d="M254.9 116.2l-6.4-58.8 22.5 79.5-9.3 48.1z"/><path fill="#69144b" d="M57 115l7-5-10-6z"/><path fill="#737a7d" d="M199 96.2l5-.3 3 56-5 .2z"/><path fill="#a39b8f" d="M181 31l-2 19-23 15z"/><path fill="#4b4949" d="M71.5 72v112h-1V72z"/><path fill="#a2a09c" d="M105 48l2-12 36 1z"/><circle r="1" fill="#d6ecfe" transform="matrix(-4.4345 -6.4731 6.2367 -4.27255 94.9 56.6)"/><path fill="#5f5343" d="M245 4l.8 2.9-36.9 9.2-.7-3z"/><path fill="#bdb9af" d="M213.3 50.7V24.9l19 30.5-1.2-19z"/><path fill="#b5b3ac" d="M198.3 20l-56.4-34 11.9 40.4 25-42.4z"/><path fill="#84827a" d="M34.1 128.4l-10.6 30.9-3.3-25.9 17.6 20.3z"/><circle r="1" fill="#6f6457" transform="matrix(3.1636 -.31414 3.41694 34.41065 185 67)"/><circle r="1" fill="#f2f1e0" transform="matrix(4.5709 -1.83038 .76443 1.90897 223 15.3)"/><ellipse cx="176" cy="129" fill="#7d8279" rx="5" ry="13"/><path fill="#222320" d="M124.4 128.5l-.9-17.5 7.2 3.7-7.1 43.9z"/><path fill="#959696" d="M253 90l-21.2 5.8 4.2-34.5 10.4-56.6z"/><path fill="#0f0d0c" d="M137 118h2v34h-2z"/><path fill="#c0d5e9" d="M57.5 181.8L16.9 185l13.8-38.5.6 19.6z"/><circle r="1" fill="#8b9097" transform="matrix(-.99819 .0602 -3.57597 -59.295 220.5 98)"/></g></g></svg>