<svg xmlns="http://www.w3.org/2000/svg" viewBox="0 0 1800 1200"><defs/><filter id="a"><feGaussianBlur stdDeviation="12"/></filter><rect width="100%" height="100%" fill="#4e483d"/><g filter="url(#a)"><g fill-opacity=".5" transform="translate(3.5 3.5) scale(7.03125)"><circle cx="212" cy="67" r="142" fill="#9fabaf"/><path fill="#fff" d="M261.4-8.3l5.6 45.7-72.4 8.9L189 .6z"/><ellipse cx="126" cy="6" fill="#fff" rx="34" ry="19"/><ellipse cx="172" cy="82" fill="#4d4f42" rx="29" ry="84"/><path fill="#10231e" d="M64.8 21.8l10.3-16 62.1 40.4-10.3 16z"/><ellipse cx="125" cy="7" fill="#fff" rx="31" ry="15"/><circle r="1" fill="#daf1ff" transform="matrix(-9.42909 21.25446 -32.00087 -14.1965 216.2 11.1)"/><circle r="1" fill="#3f393f" transform="matrix(-2.41717 -47.77378 18.33124 -.92749 232.3 162.5)"/><circle r="1" fill="#646662" transform="matrix(24.85805 -22.22567 92.24413 103.16944 93.5 103.5)"/><path fill="#2b3620" d="M210.8 70.1l1.5-22 52.9 3.8-1.5 22z"/><ellipse cx="41" cy="145" fill="#1c211f" rx="18" ry="78"/><circle r="1" fill="#8c95b1" transform="matrix(57.26926 10.15757 -2.62105 14.77773 229.7 91.3)"/><path fill="#60697d" d="M24 18l-1 150-39-85z"/><circle r="1" fill="#34301b" transform="rotate(-18.4 596 -370.2) scale(9.04999 33.68752)"/><circle r="1" fill="#888078" transform="matrix(-61.36936 -51.495 11.8377 -14.10763 151.6 120.4)"/><path fill="#253d33" d="M190 27.6l-57.9 22.3L185.7-16l-13.9 3.2z"/><circle r="1" fill="#8c896f" transform="rotate(68.2 -5.6 107) scale(12.86995 54.04425)"/><path fill="#b3d3f4" d="M267 53l-39-16 22-52z"/><path fill="#131a1f" d="M32.8 20.6l19.8 19.8L20.7-16l12.2 99.2z"/><path fill="#a7a8ba" d="M91 121l-13 9 52 24z"/><circle r="1" fill="#53573f" transform="matrix(56.57516 -18.60097 3.67926 11.19055 174.7 62.8)"/><path fill="#40493f" d="M62 66l84-18-5-28z"/><circle r="1" fill="#93979f" transform="matrix(-3.30287 -8.5586 10.85074 -4.18745 69.7 169)"/><circle r="1" fill="#434043" transform="matrix(-27.50977 -20.17226 7.28228 -9.93116 181 104.1)"/><path fill="#8b926d" d="M51.9 45l4-18.5L86 32.9l-4 18.6z"/><path fill="#0f1214" d="M1 122l11 1.2L7 172l-11-1.1z"/><path fill="#adb6cc" d="M229.7 86.6l8.8-10.5-2.4-3-41.7-1.7z"/><circle r="1" fill="#2d2925" transform="matrix(30.66003 18.86218 -1.28649 2.09116 112 131)"/><path fill="#383d3e" d="M21.6 25.8L63.7 117-3.4 99.1l43.5-50z"/><circle r="1" fill="#42434a" transform="matrix(-4.35304 8.58849 -57.61541 -29.20216 115.4 162.3)"/><path fill="#f2f5f7" d="M157.5 13.6l-38.6 8.7.4 13.6L89.8-16z"/><circle r="1" fill="#656872" transform="matrix(8.93485 -13.93789 53.76591 34.4665 231.3 119.9)"/><path fill="#c0bfcf" d="M216 136.1l-5.2-10.4-9.7 1.3 4.5 11.7z"/><path fill="#72785a" d="M85.6 102.2L68.1 19.9 59 56.1l-17.3 58.7z"/><path fill="#9b9981" d="M161.1 40l3.7 4.1-9.2 11.7L86.5 77z"/><path fill="#4c4745" d="M196 156h60v14h-60z"/><ellipse cx="72" cy="2" fill="#233c3d" rx="17" ry="26"/><path fill="#aaacb5" d="M163.4 126.7l-49-19.8 2.2-5.6 49 19.8z"/><path fill="#949eaf" d="M4 101h8v19H4z"/><circle r="1" fill="#23221a" transform="matrix(-16.68772 -21.926 11.2155 -8.53603 46.5 139)"/><path fill="#3e4647" d="M240.9 46.3l-14.1.7 25.4 39.6-11.4 1.4z"/><path fill="#737683" d="M3 0l27 51-16 29z"/><path fill="#4f493f" d="M111.3 107.5L171 133l-2.4 5.6L109 113z"/><path fill="#bec5d5" d="M254.2 99.3l16.8-1.6-31.5 8.4 1.3-17.3z"/><ellipse cx="201" cy="20" fill="#e6ecef" rx="5" ry="27"/><path fill="#73847e" d="M204 35h14v29h-14z"/><path fill="#454431" d="M148.6 150.8L119.8 185l45-40.5-72.3-17.6z"/><path fill="#615945" d="M107 89l-39 30 43 5z"/><path fill="#798e8e" d="M107.9-16L84.7 25.3l30.4-3.2-28.7-11.3z"/><path fill="#4a4b3a" d="M196.8 48.8l-51.3 12.1-9.3 18.9 12.2 14.4z"/><path fill="#504c3c" d="M37.2 64.4L73.6 49l33.7 24.3-36.8-11.1z"/><path fill="#afb3c3" d="M133 125.9l-1.8 3.6L109 118l1.8-3.6z"/><path fill="#b0b0ba" d="M89 57l13 9 16-3z"/><circle r="1" fill="#81a8bb" transform="matrix(-21.54724 3.17347 -.4047 -2.74783 138.2 22.8)"/><path fill="#979391" d="M166.8 141.2l31.7-17.7-16.1 22-14.5 5.7z"/><path fill="#949aa5" d="M183.5 77.7l9.6 2.8-34.8-5 28.9 19.3z"/><path fill="#fff" d="M91 9l11 8 11-16z"/><path fill="#777d7d" d="M50.8 45.8l-6.3 17.5L39 43l44-14.4z"/><path fill="#172026" d="M95 28h9v20h-9z"/><path fill="#1c2115" d="M243.8 72.6l-.6-12 23-1.2.6 12z"/><path fill="#4c493f" d="M183.4 157.7l-20.2-28.5 20.2-8.7-11.1 16z"/><ellipse cx="211" cy="153" fill="#aeaebb" rx="7" ry="4"/><path fill="#f8f9fb" d="M104-15l46 21 1 18z"/><path fill="#90929c" d="M123.1 139.9l11.3 11.2-30.8-3.6-11.3-17.4z"/><path fill="#6f7484" d="M62 125l16-2 23 20z"/><path fill="#818670" d="M101 110L56 63l17 47z"/><path fill="#4d4b4a" d="M217 114l23-17-6 29z"/><path fill="#475c50" d="M188.3 29l-1-.4 6.4-13.6 1 .4z"/><path fill="#727479" d="M225.8 138.6l34.9 28-6.1-24.9-38-28.2z"/><path fill="#978c8a" d="M167 156h20v12h-20z"/><path fill="#8e8a89" d="M75.2 64l18.1 24.8 32.4 7.2 8.7-6.3z"/><path fill="#484343" d="M207.1 135.8l-13.7 2.9 48.7 13.6-7.7 24.6z"/><path fill="#2b323b" d="M13.6-11.6L10.8 14l22.5 3.5 5.9-15.3z"/><circle r="1" fill="#536761" transform="rotate(-149.7 24.8 -6.6) scale(11.97113 17.03164)"/><path fill="#b1c8df" d="M239 23l23-39-8 67z"/><path fill="#1f332d" d="M50.9 25.4l5-13 11.2 4.2-5 13z"/><ellipse cx="171" cy="108" fill="#342f24" rx="8" ry="6"/><path fill="#242717" d="M116.8 185l-59.3-34.3 43.3 16.5 37.2 11.2z"/><path fill="#556d63" d="M149.2 28.4L179.5-7 155 4.1l5.9 36.4z"/><path fill="#67635d" d="M43.7 160l12.6-2.8 2 8.7-12.6 3z"/><circle r="1" fill="#72757b" transform="matrix(1.4623 -4.90045 8.26955 2.46764 163.4 74.8)"/><path fill="#6b7260" d="M195 46h31v25h-31z"/><path fill="#2d3b33" d="M181.7 37.3l2.5-5.8-7.7-17-19.8 16.8z"/><path fill="#908b93" d="M36 26h5v18h-5z"/><path fill="#454741" d="M24.5 119.1l20.3-32.5 3.5-33.9 12.6 39.2z"/><path fill="#42424f" d="M246 107h10v9h-10z"/><path fill="#3b3c3d" d="M71 119.2L85.2 105l7.8 7.8L78.8 127z"/><path fill="#555248" d="M95 101l17-6-42-6z"/><path fill="#748057" d="M155 35h40v12h-40z"/><path fill="#8f9776" d="M63 26.6l32.9 12.2-5.1.8 7 15.4z"/><path fill="#3b443f" d="M134.8 32.4l24.9 7.3-36.9 13.1-33.5-10.9z"/><path fill="#5c706b" d="M112.4 43.5l10.1-6.6-17.7-20.4.1 12.6z"/><path fill="#d8e1e8" d="M233.7-29.7L256 1l-47.7 34.7L186 5z"/><path fill="#5e616b" d="M6 152l15-41-3 56z"/><path fill="#4d4a30" d="M146.3 111l-4 3-6.6-9 4-3z"/><path fill="#433f3b" d="M231.9 148.3l-18.6-1 7.9 7.5-8.2-34.6z"/><path fill="#3e4139" d="M181.7 48.6l-7.2 17.6 28 12.9-48.2-13.4z"/><path fill="#70857b" d="M250.4 47.6l-23.6-9.2-26.3 16.4L246 40.5z"/><path fill="#8e8c89" d="M168.8 144.9l51.6-16.9-58.8 8.2-79.3-28.3z"/><path fill="#666049" d="M158 180l8-23-27-25z"/></g></g></svg>