<svg xmlns="http://www.w3.org/2000/svg" viewBox="0 0 1800 1200"><defs/><filter id="a"><feGaussianBlur stdDeviation="12"/></filter><rect width="100%" height="100%" fill="#3e424a"/><g filter="url(#a)"><g fill-opacity=".5" transform="translate(3.5 3.5) scale(7.03125)"><circle cx="99" cy="40" r="223" fill="#d1d8d6"/><circle r="1" fill="#fff" transform="matrix(245.24901 -32.49053 3.37877 25.50403 103.4 12.4)"/><ellipse cx="188" cy="68" fill="#292629" rx="200" ry="24"/><path fill="#000818" d="M32 127h102v21H32z"/><circle r="1" fill="#aeb9b5" transform="rotate(-170 113.6 52.3) scale(98.84789 28.63014)"/><circle r="1" fill="#93929c" transform="rotate(171.5 50.4 24.3) scale(70.69419 9.28379)"/><circle r="1" fill="#a6b5bf" transform="matrix(1.22796 17.65247 -85.29094 5.93311 35.4 105.4)"/><ellipse cx="246" cy="65" fill="#535050" rx="152" ry="28"/><path fill="#494757" d="M80 22h15v18H80z"/><path fill="#e1e2ea" d="M263-16L84 4l142 22z"/><path fill="#2b4346" d="M141.6 151.2l-87-1.3 34.7-45.8-2.7 19.2z"/><path fill="#cfced7" d="M0 0h79v51H0z"/><ellipse cx="204" cy="81" fill="#aea19d" rx="157" ry="2"/><path fill="#545861" d="M110.8 85.2l-82.3 3.2-28.9-3.8 13.8-40.4z"/><path fill="#67656c" d="M115.4 39.2l70.2-13.3-60.1 4.4L91.8 35z"/><path fill="#031c24" d="M137 132l-41 15-46-9z"/><ellipse cx="38" cy="159" fill="#72827b" rx="118" ry="16"/><path fill="#444957" d="M162 19h7v24h-7z"/><path fill="#808e94" d="M36.6 134.9l12-6.1-64.6.3 56.8 52.1z"/><path fill="#e19d86" d="M181 69h71v2h-71z"/><path fill="#516679" d="M43 125h96v9H43z"/><ellipse cx="168" cy="144" fill="#97a29b" rx="39" ry="17"/><path fill="#162439" d="M80.9 113.2l14.3 4.2-10.9 8.7-6.9 7.6z"/><path fill="#c3c3c7" d="M2.6-16L-16 79.6l31.2-31.8 48.6 6.8z"/><ellipse cx="73" cy="85" fill="#34363a" rx="216" ry="2"/><path fill="#7b7e88" d="M24.1 84.7l2.6-34.1-39.9 13 68.7 13.7z"/><ellipse cx="15" cy="99" fill="#a3adb4" rx="65" ry="14"/><path fill="#3d1901" d="M118 128l3-13 5 9z"/><path fill="#4c5054" d="M152 40h104v25H152z"/><path fill="#93a0a6" d="M87 89h31v40H87z"/><ellipse cx="127" cy="6" fill="#cfd3de" rx="45" ry="24"/><path fill="#454e53" d="M55.6 77.9l-33.9-9 50.7-21.6 96.2 31.2z"/><ellipse cx="217" cy="87" fill="#2c3132" rx="79" ry="3"/><path fill="#0d2330" d="M39 135h80v8H39z"/><ellipse cx="207" cy="108" fill="#a5abaa" rx="63" ry="18"/><path fill="#173247" d="M138 121l-12 16 14-10z"/><path fill="#1d3957" d="M112 90h29v3h-29z"/><path fill="#a88f8f" d="M207 63h15v7h-15z"/><circle cx="92" cy="116" r="4" fill="#363c45"/><path fill="#929da0" d="M86 101l-11 26-91-18z"/><path fill="#6c6f7e" d="M79 23h7v30h-7z"/><ellipse cx="255" cy="169" fill="#899588" rx="68" ry="30"/><path fill="#322e2f" d="M0 82h33v3H0z"/><path fill="#515964" d="M30.7 45.4l9 11 45.5 1.3L21.6 73z"/><circle r="1" fill="#717f94" transform="rotate(94.3 -24 101.7) scale(1 32.38164)"/><circle r="1" fill="#e0dfe2" transform="matrix(64.06719 58.9128 -5.7405 6.24274 249 1.7)"/><path fill="#4b5448" d="M99 143.2l-22.8-.6-2.8-10.8 6.8 30.4z"/><path fill="#52555e" d="M131.8 34.7l-20-1.4.4-4 20 1.4z"/><path fill="#474a50" d="M228 37h28v30h-28z"/><path fill="#706766" d="M197 71h52v10h-52z"/><path fill="#514b53" d="M247 27.3l1-13 5 .4-1 13z"/><path fill="#3e4345" d="M179.2 65.3l-6.9 11.3-58.9 1.6L167.3 57z"/><path fill="#ccc8c7" d="M62.2 51.5l19-13-9.3-2.2-70.5 11z"/><ellipse cx="66" cy="81" fill="#b0a59e" rx="200" ry="1"/><path fill="#06263c" d="M126 143l4-8-32-8z"/><path fill="#dadadb" d="M262 1l-55 28 14-45z"/><path fill="#8c909b" d="M131.6 44.6l-6.2-9.1-37.9-1-7.3 18.9z"/><path fill="#818189" d="M245.5 34.2l-47.7-10 68.3 2.2L271-1.3z"/><ellipse cx="119" cy="102" fill="#9da7ae" rx="66" ry="10"/><circle r="1" fill="#959e9a" transform="rotate(-67.8 195.8 -57.8) scale(19.0483 40.77429)"/><path fill="#929ea0" d="M-16 121l41-19 14 40z"/><path fill="#8497a5" d="M77 88h51v3H77z"/><path fill="#9597a3" d="M162 30h30v11h-30z"/><path fill="#656165" d="M119 45h137v5H119z"/><path fill="#5c5d62" d="M165 19h4v42h-4z"/><path fill="#002a57" d="M50 128h26v3H50z"/><ellipse cx="166" cy="79" fill="#6b6a68" rx="97" ry="2"/><path fill="#cc7d6c" d="M220 68h28v3h-28z"/><path fill="#97a0a2" d="M91.3 99.3l179.7 6-129.3-16.6-1.8 36.9z"/><path fill="#696462" d="M0 77h60v6H0z"/><path fill="#697366" d="M109 146h31v10h-31z"/><path fill="#caced8" d="M105.4 33.2l5.6.2L193.3-16H37.5z"/><path fill="#dad6d1" d="M146 32h17v2h-17z"/><path fill="#6c7a6d" d="M225.5 164.3l33.8 20.7h-24l35.7-22.3z"/><path fill="#0f2d4f" d="M70 129h38v3H70z"/><path fill="#3f4140" d="M220.6 86.3L271 98.8l-25.6-18.7-21.1 12.5z"/><circle r="1" fill="#252c2b" transform="matrix(-3.99908 .76961 -1.69683 -8.81715 53.4 136)"/><path fill="#616160" d="M141 55l16-20 25 27z"/><path fill="#455769" d="M94.3 116.4l.7-.7 16.7 20-.7.6z"/><path fill="#3b422e" d="M60.9 142.1l30.6 5.9 40.7-4.2-33.7-2.5z"/><path fill="#7f8ba3" d="M81.3 135.9L42.6 131l.1-1 38.7 4.8z"/><path fill="#2a303e" d="M84 112h7v7h-7z"/><path fill="#51555c" d="M71.1 60.6l37.1-15.5-15.4-2.2L115.9 81z"/><path fill="#3f434a" d="M271 63.5L225 52l1.9-2.7-8.8 19z"/><path fill="#231512" d="M117.3 116.6l1.7-1.1 3.7 6-1.7 1z"/><path fill="#99a4aa" d="M151 97L78 87l13 28z"/><path fill="#6f7a7f" d="M34.7 139.3l-.5 8-37-2.6.6-8z"/><ellipse cy="73" fill="#313a47" rx="24" ry="3"/><path fill="#0a283c" d="M37.7 130.8l16.3 4.7-1.7 5.7-16.3-4.7z"/><path fill="#465453" d="M37 142h22v7H37z"/><path fill="#d9d9db" d="M177.3 4.1l19.6 4.2-4.2 19.6-19.6-4.2z"/><path fill="#a8948c" d="M62 74h11v2H62z"/><path fill="#767b7f" d="M142 129.8l-51.8 5.4-.1-1 51.7-5.4z"/><circle r="1" fill="#a0a9b2" transform="matrix(29.22108 5.96948 -1.25494 6.14301 24.5 93.9)"/><path fill="#6b5e6c" d="M151 28h35v2h-35z"/><ellipse cx="68" cy="136" fill="#0f4070" rx="14" ry="2"/><path fill="#c4c4ca" d="M2-16l-18 83 38-26z"/><path fill="#858f93" d="M72 153l-85-5 98 37z"/><path fill="#9d9fa7" d="M169 24h6v18h-6z"/><path fill="#191f26" d="M111 129l-3 6 14-6z"/></g></g></svg>