<svg xmlns="http://www.w3.org/2000/svg" viewBox="0 0 1800 1200"><defs/><filter id="a"><feGaussianBlur stdDeviation="12"/></filter><rect width="100%" height="100%" fill="#4e473e"/><g filter="url(#a)"><g fill-opacity=".5" transform="translate(3.5 3.5) scale(7.03125)"><circle cx="131" cy="44" r="192" fill="#a9b2b0"/><circle r="1" fill="#0b0c00" transform="matrix(-.96784 -22.16724 150.08468 -6.55284 187.1 56.7)"/><path fill="#d4e7f9" d="M-1.6-6.8L253-20l2.6 48.9L1 42z"/><circle r="1" fill="#3c3935" transform="matrix(158.10946 16.78237 -1.27262 11.98952 119 166.3)"/><path fill="#e8d1ba" d="M89 124l14 28 92-10z"/><path fill="#fff4d7" d="M50 119.9l15.6-10.2-28.9-6.5L-16 119z"/><circle r="1" fill="#f3e5d5" transform="rotate(-80.7 173.7 -72.3) scale(5.85925 92.10444)"/><path fill="#3f2c22" d="M142.4 126.2L172.8 99l8.8 19.1 21.2 15.5z"/><path fill="#3f3822" d="M16.9 97.1l-41.2-8L-17 51l41.2 8z"/><circle r="1" fill="#dfe5f0" transform="matrix(82.2361 19.895 -.80023 3.30775 214.1 156.9)"/><path fill="#473128" d="M65 132l17-89 10 108z"/><ellipse cx="17" cy="29" fill="#939ea2" rx="54" ry="25"/><ellipse cx="180" cy="77" fill="#9ba198" rx="85" ry="3"/><circle r="1" fill="#282a15" transform="matrix(137.28828 7.19497 -.71252 13.59561 234.3 64)"/><circle r="1" fill="#bfc8cf" transform="matrix(-29.9738 -16.0718 10.8738 -20.27956 94 17.4)"/><circle cx="167" cy="50" r="24" fill="#45442a"/><ellipse cx="82" cy="78" fill="#180901" rx="17" ry="7"/><path fill="#c1ad98" d="M80 101l21 24 49-29z"/><path fill="#c1c8bd" d="M22.2 35.1l5.9 38.6 4.7-3 12.3-3z"/><path fill="#5a5e5c" d="M60 185l211-10-140-34z"/><path fill="#f3e3c4" d="M105.9 135.2l6.2-8.6 6.5 25.8-16.3 8.2z"/><path fill="#514f57" d="M262 163l-67-15 65-17z"/><path fill="#4f6b54" d="M55 100L51 1 37 63z"/><circle cx="69" cy="26" r="20" fill="#d1cbbb"/><circle cx="252" cy="54" r="25" fill="#1e221e"/><path fill="#ad8663" d="M175.1 108.5l16.6-9.2 11.2 20.2-16.6 9.2z"/><ellipse cx="212" cy="1" fill="#b4c0ca" rx="82" ry="31"/><path fill="#977b66" d="M147.4 109.4l-55.9-.7-26.6-45.3 26.4 77.8z"/><path fill="#7f8990" d="M67.3 37.3L-16-8.5l9.1 22.8 56.3 36.6z"/><path fill="#afa496" d="M149 132h54v13h-54z"/><path fill="#1c2124" d="M25 156l47 2-3 15z"/><path fill="#d6c8b4" d="M-.1 108.5l64.3 13.4 8.5-21.1-.2 4.7z"/><ellipse cx="190" cy="92" fill="#5d7072" rx="50" ry="8"/><path fill="#e4ddd2" d="M194 109h54v8h-54z"/><path fill="#e9e9da" d="M133.9 98.1l-41.1 8.7-.7-2.9 41.1-8.7z"/><path fill="#3d4846" d="M23 93h46v7H23z"/><path fill="#a8b8cc" d="M-16 26l13.2-2.4 41.2 29-54.4 2.6z"/><ellipse cx="15" cy="133" fill="#a79483" rx="50" ry="10"/><circle r="1" fill="#110f08" transform="rotate(-70.4 170.6 -57.6) scale(5.49481 7.5731)"/><path fill="#032e57" d="M73.6 136.3l-9.8-11.4 10.6-9.2 9.8 11.4z"/><circle r="1" fill="#9fb2c3" transform="matrix(27.41087 14.80547 -11.81541 21.87508 111.2 16.4)"/><path fill="#b5a68f" d="M95 75h78v3H95z"/><circle r="1" fill="#99ae8b" transform="matrix(5.72696 -36.84286 1.74586 .27138 40.2 80)"/><circle r="1" fill="#d7d6d3" transform="rotate(-167.2 97.7 65) scale(32.48055 3.07719)"/><path fill="#4b4221" d="M0 54h25v19H0z"/><path fill="#d7cec0" d="M44 25l9-40-58-1z"/><path fill="#717269" d="M218.4 125.7l-70.1-38.6L159 69.5l30.7 35.3z"/><path fill="#4b472a" d="M46 48h101v27H46z"/><path fill="#3c675a" d="M46.1 45.8l3.4-44.1L62.1-16 34.5 65.3z"/><path fill="#919294" d="M-16 75.3l42.3-.4-5.3 38.9L18.2 88z"/><path fill="#4e3c31" d="M86.1 144.3l6.6-5.8 14.4 42.4-26.7-15.2z"/><path fill="#947d68" d="M43 140h40v16H43z"/><path fill="#d2c9bd" d="M162.5 97.6l4.9 17.8 6.5-4.8-51-13z"/><path fill="#dcded8" d="M111.5 134.8l40.9 11.6 42.5 5.1-83.1-20.2z"/><path fill="#545342" d="M149.2 32.8l13.8-8.6 6.9 18L85.3 50z"/><path fill="#453f3b" d="M46.4 140.6l-8.3 29.9-13.8-8.7 9.4-21.6z"/><path fill="#424743" d="M25 96.4l3-25.9 9 1.1-3.2 25.9z"/><ellipse cx="242" cy="89" fill="#6a787b" rx="106" ry="14"/><path fill="#e1dbcc" d="M49 106.8l17.2 3.3-24.2 4 2.5-23.4z"/><ellipse cx="124" cy="94" fill="#37444a" rx="3" ry="9"/><path fill="#d7d7d2" d="M84.4 15.8l24.4 17.5-43.6-10L48.6-15z"/><path fill="#aaada6" d="M54.3 26.7L139 37.6l-26.6-1.4-69.8 13.5z"/><path fill="#494936" d="M154.9 30.8l64 24.3 27.1-30 25 12.4z"/><path fill="#bfc8ce" d="M173.8-15l-81-1 91.5 43.4-15.2 7.3z"/><path fill="#4e5f62" d="M49 89h24v17H49z"/><path fill="#a2afb7" d="M227 35l44-23-90 5z"/><circle r="1" fill="#47381c" transform="matrix(2.7227 .19736 -.1791 2.47073 32 60.2)"/><path fill="#555e6a" d="M21.6 83.9l-2.3 19.3L-16 82.4l38.9-5z"/><path fill="#ccced1" d="M257 110l-36 7 44 7z"/><circle r="1" fill="#394239" transform="rotate(-106.6 61.2 -8.3) scale(6.39596 13.10422)"/><path fill="#504e38" d="M198 34.3l12-7 6 10.4-12 7z"/><path fill="#a3998c" d="M210 134l-72-1 53 16z"/><circle cx="133" cy="169" r="25" fill="#61665f"/><circle cx="86" cy="96" r="5" fill="#d0a98b"/><path fill="#fffee3" d="M21 106h11v10H21z"/><path fill="#7f8680" d="M237.3 91.7l.8-13.9-79.4-5.7 13.8 17.3z"/><path fill="#49423c" d="M189.8 133.2l-62.1-14.6 56.1 5.8 21.6-4.5z"/><path fill="#fff8e2" d="M116.7 147.2l-7.3 3.3-6.1-13.7 7.3-3.3z"/><ellipse cx="71" cy="114" fill="#7d614d" rx="23" ry="3"/><path fill="#3a2e26" d="M59 73l29 17 14-25z"/><path fill="#c1825e" d="M78.1 165.1l3.8-6.2-11.5 7.4 46.2 18.7z"/><circle r="1" fill="#637a83" transform="matrix(23.75495 -8.28225 3.58419 10.28008 112.4 88.6)"/><circle cx="116" cy="97" r="3" fill="#fff6d6"/><circle cx="29" cy="65" r="4" fill="#fff4e3"/><path fill="#99743a" d="M36.6 116.2l-2 .3-3.2-20.7 2-.3z"/><path fill="#5b676a" d="M270 100.4l-1.4 12-54.6-6.8 1.4-12z"/><path fill="#9e765e" d="M83.4 131l2.3-8.7-9.8-41.7 26.2 74.1z"/><circle cx="31" cy="52" r="5" fill="#ebe0cf"/><path fill="#78726f" d="M0 118h49v5H0z"/><path fill="#a89476" d="M0 75h65v3H0z"/><path fill="#282b26" d="M222 35h34v41h-34z"/><circle r="1" fill="#010000" transform="rotate(-140.7 112.1 20.4) scale(2.78505 1.58693)"/><path fill="#89847c" d="M134.6 101.6l-24.4 2.4L93 125.9l49.8 11.9z"/><path fill="#d5d1c1" d="M130.5 97.2l51 9.8v-4.1l-9-3.2z"/><path fill="#e0d9cb" d="M215 104l-25 8 51 1z"/><circle r="1" fill="#7b5a48" transform="matrix(12.20128 17.6065 -1.9379 1.34296 85.9 111)"/><path fill="#575452" d="M27.4 56.3L8.1 61.5l-1.5-5.8 19.3-5.2z"/><path fill="#655c56" d="M109.3 119.2l46.1-4.2-3.7 12.5-35.6-6.9z"/><path fill="#a8a0a0" d="M10 102h13v10H10z"/><path fill="#bac3c7" d="M151 32l-46 6 90-52z"/></g></g></svg>