<svg xmlns="http://www.w3.org/2000/svg" viewBox="0 0 1800 1200"><defs/><filter id="a"><feGaussianBlur stdDeviation="12"/></filter><rect width="100%" height="100%" fill="#334554"/><g filter="url(#a)"><g fill-opacity=".5" transform="translate(3.5 3.5) scale(7.03125)"><circle r="1" fill="#a4b8d7" transform="rotate(-5 527.4 -1334.8) scale(202.19688 90.58482)"/><ellipse cx="114" cy="107" fill="#84786c" rx="248" ry="25"/><path fill="#1a1511" d="M171 109h85v9h-85z"/><ellipse cx="156" fill="#4272ab" rx="255" ry="45"/><path fill="#bdbab4" d="M129.9 87.1l-8.5 42.1 29.8.4 41.5.8z"/><circle r="1" fill="#8196ac" transform="rotate(-89.5 95.2 -32.7) scale(27.08374 141.35901)"/><path fill="#333438" d="M117 100l-60-6 3 16z"/><ellipse cx="78" cy="151" fill="#364240" rx="185" ry="24"/><path fill="#a3a19b" d="M84 121h172v7H84z"/><circle r="1" fill="#62656c" transform="matrix(-.23108 -10.183 90.07534 -2.0441 223.2 101)"/><path fill="#999694" d="M72 121l-78 8 56-33z"/><ellipse cy="105" fill="#504948" rx="13" ry="17"/><path fill="#446898" d="M208.6 4L-29.1 28.8-32.6-4l237.7-25z"/><path fill="#24211e" d="M186.1 121.9l2-12.9 19.8 3.1-2 12.9z"/><path fill="#bab8b4" d="M163.2 123.6l30.1.1-72-17.7 5.7 16.7z"/><circle r="1" fill="#5f82a7" transform="matrix(.32602 -14.36644 126.34508 2.86717 151.7 37.2)"/><path fill="#5d6574" d="M29 97l110 10-35-26z"/><ellipse cx="86" cy="62" fill="#8896a8" rx="63" ry="17"/><path fill="#bfbcb4" d="M88 123l20-10 6 11z"/><path fill="#848688" d="M205.1 118.3l62.7-2.5 1.3 10.1-65 1.7z"/><path fill="#415057" d="M57.3 123.3l17.8 28.1 188.8 1.1-190.6-30.8z"/><path fill="#93989f" d="M150.7 116.8l21.6-12.9-46.2 13.7 24.1-66.4z"/><path fill="#9e9999" d="M25.3 96.7l22.4 4 19.4 21.7-59.7-21.7z"/><ellipse cx="61" cy="82" fill="#778390" rx="223" ry="10"/><path fill="#c7c5bd" d="M156 121l5-20 12 21z"/><circle r="1" fill="#868381" transform="matrix(-53.08838 -.92666 .01745 -.99985 142.9 129.2)"/><path fill="#766963" d="M143 105h113v5H143z"/><path fill="#9f9fa5" d="M107.5 117.9l-22.6-9.2 8.2-2.6 21.4 2.4z"/><path fill="#292627" d="M115 101l7 4-10 2z"/><path fill="#334142" d="M224 127h32v43h-32z"/><path fill="#7c7675" d="M-16 98.1L16.7 116l4.3 12.2 16.5-22.1z"/><path fill="#39383b" d="M87.9 114l-24-7 2.7-12.7 12.9 24.1z"/><path fill="#a8a6a6" d="M63 109h8v14h-8z"/><path fill="#2d393f" d="M12.4 120.6L-16 94.4l38.6 90.4-36.7-66.9z"/><circle r="1" fill="#6485aa" transform="matrix(49.73888 8.01182 -1.93504 12.01307 148 49.1)"/><ellipse cx="174" cy="169" fill="#293735" rx="128" ry="5"/><path fill="#80807e" d="M118 126h83v5h-83z"/><path fill="#181614" d="M61 105h28v2H61z"/><path fill="#243233" d="M-13.1 147.6l8.3 15.4 90.7-6.7-6.4 3.8z"/><path fill="#312e35" d="M-16 96l28 1-17 6z"/><path fill="#494f50" d="M231 120h25v3h-25z"/><path fill="#afaca4" d="M72 120h20v3H72z"/><path fill="#9098a3" d="M140.4 75l-98.3-4.9 123.8-6.5-38.9 56.7z"/><path fill="#989897" d="M207 117h16v10h-16z"/><path fill="#262421" d="M175.6 113l19.6 4.1-.8 4-19.6-4.2z"/><path fill="#9c938a" d="M165 104h38v3h-38z"/><path fill="#2d2726" d="M40 119l1-4 4 2z"/><ellipse cx="228" cy="95" fill="#626e7f" rx="90" ry="8"/><ellipse cx="130" cy="162" fill="#485c6a" rx="36" ry="2"/><path fill="#b4b2ac" d="M179 117l16 6-14-1z"/><path fill="#6f6f73" d="M19.5 131.2L25 103l9.8 3.3-3.5 25.3z"/><path fill="#262a2d" d="M207 112h35v6h-35z"/><path fill="#605c5c" d="M188.2 101.5l78.1-1.4-101.5 8.9 85.6 2.1z"/><path fill="#dfcdb9" d="M73 101h4v3h-4z"/><path fill="#324044" d="M65 131l56-2-6 31z"/><circle r="1" fill="#8999ab" transform="matrix(.50354 -4.13191 47.45508 5.78322 237 56.2)"/><path fill="#cdc3b3" d="M6 102.7v3l-12-.4v-3z"/><path fill="#515255" d="M156 112.5l-5.9-1.2 2-9.8 5.8 1.2z"/><path fill="#aba9a8" d="M131 128l31-5-27-23z"/><path fill="#464447" d="M202 120l-9-14-10-3z"/><path fill="#3a4b52" d="M198 129h34v24h-34z"/><circle r="1" fill="#2d3c3c" transform="rotate(-88.6 174.4 -18.6) scale(3.46195 81.82271)"/><path fill="#8a8a8a" d="M25 129.4l-5.5-38.8-8.1 39.2 77.1-11.7z"/><circle cx="160" cy="113" r="6" fill="#c6c6c3"/><ellipse cx="38" cy="38" fill="#6080a5" rx="255" ry="6"/><path fill="#423e3b" d="M163.7 106.1l40.5 15 .3 3.6-32.6-8.9z"/><path fill="#5f5e61" d="M132.6 106.1l-.2-6.5-26.6 2.6 4.2-7.7z"/><ellipse cx="56" cy="117" fill="#c2c2bf" rx="7" ry="2"/><path fill="#4f4c4d" d="M71.1 101.6L56 104.7l4 11.8L67.6 88z"/><circle r="1" fill="#444449" transform="matrix(-.32528 -1.9864 30.08187 -4.9261 88.6 103.6)"/><path fill="#9b9899" d="M17 100h39v7H17z"/><path fill="#6a7789" d="M0 69h17v27H0z"/><path fill="#7788a0" d="M232.1 4.2L191.5-16l74.3 13.6-4.1 8.5z"/><path fill="#45535d" d="M123 133h40v11h-40z"/><circle r="1" fill="#6987a1" transform="rotate(3.7 -895 3497.7) scale(57.96331 6.16631)"/><ellipse cx="231" cy="124" fill="#a3a5a7" rx="45" ry="1"/><path fill="#53565f" d="M77.7 103.1l-2.2 9.3 21.3 6.7-20.7-.9z"/><ellipse cx="220" cy="87" fill="#707c88" rx="66" ry="7"/><circle r="1" fill="#456893" transform="rotate(78.9 6.4 7.7) scale(14.40234 90.00604)"/><circle cx="12" cy="104" r="2" fill="#24262b"/><path fill="#a9aaae" d="M45.8 110l.4 5-10 1-.4-5z"/><path fill="#848c9a" d="M157.6 91.8l-41.7 10.4 20.2-26.7L-16 62.1z"/><ellipse cx="11" cy="124" fill="#727372" rx="30" ry="2"/><path fill="#a19f9a" d="M-8.5 123.3l52.9-3.6v1l-52.8 3.6z"/><circle r="1" fill="#acaaa7" transform="matrix(-4.68673 .84072 -1.2488 -6.9616 168.4 118.3)"/><path fill="#7b7e82" d="M245 122l3-9 6 5z"/><path fill="#606169" d="M102.5 105.9l26.7-5.3-1.5 8.2-30.5-15.2z"/><path fill="#3f4950" d="M-6.9 126.6l81.6 15L55 128.5l-71 3.3z"/><path fill="#8b9aa9" d="M148.6 70.9L97.2 55.6l80.1 12.3 17.9 4.5z"/><ellipse cx="179" cy="149" fill="#3c505d" rx="149" ry="2"/><circle cx="73" cy="119" r="2" fill="#353028"/><path fill="#76818c" d="M264.4 110.2l-27.2-9.8-44.3-51.6 50.5 57.7z"/><path fill="#636d7e" d="M65 96L49 85 26 99z"/><path fill="#888788" d="M94.8 127.6L14 91.3l96.6 39.5 42.2-11.7z"/><ellipse cx="234" cy="40" fill="#5f80a2" rx="41" ry="12"/><path fill="#9e9ea2" d="M137.2 99.7l14.4 13.9-40.8-2.5 16.4-4.4z"/><path fill="#54769f" d="M18.3 38.3L-16 21.4 158.3.9l-13.1 15.7z"/><circle cx="85" cy="102" r="4" fill="#34373e"/><path fill="#727175" d="M30.3 112.2l-12.7 19.3 6.7-28 5.4-8.2z"/><path fill="#848183" d="M65.8 128.5L78 124l-16.7-12.8 18.8 17.5z"/></g></g></svg>