<svg xmlns="http://www.w3.org/2000/svg" viewBox="0 0 3841 2561"><defs/><filter id="a"><feGaussianBlur stdDeviation="12"/></filter><rect width="100%" height="100%" fill="#573c30"/><g filter="url(#a)"><g fill-opacity=".5" transform="translate(7.5 7.5) scale(15.0039)"><circle r="1" fill="#eacca1" transform="rotate(-163.6 43.2 36.3) scale(79.03801 255.00001)"/><path fill="#0c0000" d="M104 45l93 139L60 71z"/><circle r="1" fill="#ffffc3" transform="matrix(6.9361 -9.94268 64.10386 44.71947 242.7 132.6)"/><circle r="1" fill="#ffefd1" transform="matrix(-25.2486 4.11574 -8.51877 -52.25961 18.5 113.6)"/><ellipse cx="235" cy="23" fill="#ffedb8" rx="15" ry="31"/><path fill="#fff" d="M113 3.6l-5.2 48.7L71 48.4 76.2-.3z"/><path fill="#454e4e" d="M109 0h84v37h-84z"/><circle r="1" fill="#260700" transform="matrix(-9.87054 12.58769 -75.00526 -58.81481 142.4 107.2)"/><ellipse cx="173" cy="75" fill="#d38f61" rx="53" ry="17"/><circle r="1" fill="#f7e4c0" transform="matrix(13.04648 5.80867 -14.10495 31.68023 46.6 62)"/><circle r="1" fill="#541702" transform="matrix(-8.30278 -47.6924 7.296 -1.27016 14.6 37)"/><path fill="#200" d="M77.9 117.9l6 43.7 21.5-27.3 1.5 3z"/><path fill="#fddeb0" d="M84.3 77.1l-3.2 22.7 39.6 70.3-17.8-79.8z"/><path fill="#ffe1b9" d="M81 97l-6 56-27-45z"/><path d="M123 18l52 26-10-20z"/><path fill="#fff4d2" d="M258.9 152.1l-3.1-29-37.7-15.9-8.7 2.4z"/><path fill="#160000" d="M236.5 20.2l28.3-17 8.7 14.6-28.3 17z"/><path fill="#f8eecf" d="M50-3L15-4l34 39z"/><path fill="#301100" d="M162 66l88 119-101-49z"/><path fill="#81a8ca" d="M182 7l9 30-58-28z"/><ellipse cx="192" cy="169" fill="#ffffc3" rx="8" ry="10"/><circle r="1" fill="#d49279" transform="matrix(11.14323 13.89227 -26.37456 21.15549 149.4 63.3)"/><path fill="#4e1e00" d="M69 163l-28-40 29 11z"/><path fill="#3d0d00" d="M69 44l9-26-10-34z"/><path fill="#fffedf" d="M235.4 26.5l9.4-18.1-26.6 2.3L264 55.6z"/><path fill="#421f00" d="M125.6 27.5l7.3 3.3-34.5 77.7-7.3-3.3z"/><path fill="#422200" d="M45.2 92.2l-6 3.1 4.1 20.3 19.8-28.8z"/><circle r="1" fill="#331a00" transform="rotate(109.4 81.8 134.2) scale(10.78403 37.3907)"/><path d="M217 185l-65-37-23 37z"/><circle r="1" fill="#fff" transform="matrix(4.45412 -25.37503 8.20417 1.44009 89.2 6.5)"/><path fill="#dbbe92" d="M271 25.4l-49.6 12.5 8.1-42.8L249 54.5z"/><path fill="#fffffd" d="M79 44l32-8 4 17z"/><path fill="#501800" d="M53 4h5v49h-5z"/><circle r="1" fill="#7b4c3a" transform="rotate(-50.7 42.3 -5.9) scale(28.51457 21.31228)"/><path fill="#fffae7" d="M39.4 102.8l1.1 22-47.9 2.4-1.1-22z"/><path fill="#d1c18b" d="M137.7 140.9l9.3 9-16.7 17.2-9.3-9z"/><path fill="#8c6d4e" d="M62 185L8 118l36 24z"/><path fill="#5d1600" d="M97 12h3v30h-3z"/><path fill="#ffbc9b" d="M142 103h12v8h-12z"/><path fill="#a28b57" d="M178.3 60l34.9 38.7 2.6-91.4-23.1 92.2z"/><ellipse cx="227" cy="58" fill="#641" rx="60" ry="12"/><path fill="#834f01" d="M243.6 177.1l27.4 1.7-17.1-27.6-84.4-63.4z"/><path fill="#7a552a" d="M91.7 43L145-16l-20.3 70.3-26.8-34.6z"/><path fill="#1a0b00" d="M78.6 54.5l13.7-5.4 36.4 24.8-59 2.9z"/><path fill="#321800" d="M90.8 129.6l13.3-.8L85.3 157l-5.4-49z"/><path fill="#e0a98f" d="M154.6 88.4L136.9 25l-15.2 41 5.2 22.4z"/><path fill="#0d0000" d="M116 90h56v7h-56z"/><path fill="#f5e9cf" d="M85 124l31 9-17-33z"/><path fill="#ffeacd" d="M3.6 153.9l16.7 26.9-36.3-1.3 10.6-36.9z"/><path fill="#fdfae7" d="M103.4 12l-3.7 11.7-23.9 4.4 47-7.7z"/><path fill="#fff" d="M26.7 21.1l13.4-4 1.2 3.8-13.4 4z"/><circle r="1" fill="#533a23" transform="matrix(.77647 -.63015 146.33946 180.31813 9.6 120.5)"/><ellipse cx="62" cy="97" fill="#e7bb90" rx="5" ry="45"/><path fill="#fff" d="M63 13h4v19h-4z"/><path fill="#77582b" d="M129.5 141l-13.4 17.9 2.1-40.1 38.7-10.2z"/><path fill="#360f00" d="M57 133l-10 6-1-32z"/><path fill="#4d1f00" d="M50.6-18.8L80 12.7l-6.6 6L44-12.6z"/><ellipse cx="60" cy="117" fill="#fffde8" rx="10" ry="9"/><path fill="#0c0000" d="M122.9 84.2V73.3L89 50.6l43.5 64.5z"/><path fill="#975c2b" d="M53 76h47v14H53z"/><path fill="#cfa68c" d="M133.6 28.8l22.1 29.7-.5-22.7L94.3 4.3z"/><path fill="#e4d6c1" d="M254.6 10.5L224.8 19l-3.4-11.5L251.2-1z"/><circle r="1" fill="#532603" transform="matrix(-.6342 -1.93933 6.78028 -2.2173 12 102)"/><ellipse cy="80" fill="#f2dbbe" rx="14" ry="27"/><path fill="#995b37" d="M135 114l29-77 21 13z"/><path fill="#856749" d="M12.2 95.7L.7 82.9l23.4 21L38.5 123z"/><path fill="#e6d5b9" d="M25 57h25v35H25z"/><circle r="1" fill="#956c39" transform="rotate(-151 119.8 8.2) scale(22.61823 14.60904)"/><path fill="#8c580c" d="M189.1 185h4l-28.9-42.5 25.6 13.1z"/><path fill="ivory" d="M34.6 2.7l.7-18.7 14.1 62.1-2.7-47.9z"/><circle r="1" fill="#3d1d00" transform="matrix(-5.07844 6.03267 -73.53224 -61.90116 222.4 151.8)"/><path fill="#f8e6c7" d="M118.6 182.3l-4.1-49.5-22.3-21.1 12.3 17.4z"/><path fill="#1b1b09" d="M193 14h13v40h-13z"/><path fill="#4f2900" d="M216.6 4.6l.2-1 40.6 5.8-.2 1z"/><circle r="1" fill="#e5c58d" transform="matrix(26.01893 18.92954 -2.39427 3.29096 200.8 103.8)"/><ellipse cx="211" cy="25" fill="#79ab73" rx="4" ry="24"/><path fill="#fffae1" d="M56.6 40.3l7.5 16.5.1-46.2 5.5 8.7z"/><path fill="#1f1000" d="M228 90.9l39.2 20L260 125l-39.2-20z"/><circle r="1" fill="#270f00" transform="matrix(-23.24306 -34.50587 .82939 -.55867 15.6 169)"/><path fill="#291805" d="M127.8 18.4l38.4 25 16.3-6.6-30.4-17.5z"/><ellipse cx="83" cy="56" fill="#392103" rx="26" ry="4"/><path fill="#eecc9e" d="M233 185l-39-4-6-25z"/><path fill="#d5b897" d="M27.2 185L2.1 143.8-16 105.6 65.3 185z"/><path fill="#726a34" d="M100 135h8v25h-8z"/><path fill="#3a250b" d="M56 101V81l-17 23z"/><path fill="#c09b74" d="M36.5 150.8l47.2-18-30.7-8.9L65.7 185z"/><path fill="#c98355" d="M97.4 179.1l-17.3-43.6 4.1-64.8-16.6 105.4z"/><circle r="1" fill="#846130" transform="matrix(-36.2299 -6.18235 .41567 -2.43594 242.8 39.2)"/><path fill="#fff1d8" d="M-14 88l45 53 2-22z"/><path fill="#f4efdc" d="M21.6 10.2L56.8-16 44.9 7.1 5.7-16z"/><path fill="#381e01" d="M100.6 130.6L77 127.5l8.4-18.6 4.5 42.6z"/><path fill="#9b5d0d" d="M201 113l-29-1 4-24z"/><path fill="#8d5235" d="M144.8 45.1l5.8 7-15.4 12.8-5.8-7z"/><path fill="#573709" d="M231 50h25v46h-25z"/><path fill="#533b15" d="M243 24.5l1 18.1L271-2l-5-14z"/><path fill="#adbebd" d="M144 8l15 5-31 5z"/><path fill="#230e00" d="M179 184l-31-15 24-100z"/><path fill="#dba88b" d="M136 50l39-9-49-9z"/><path fill="#47280d" d="M120 139.4l6 26.3-4 .9-6-26.3z"/><path fill="#ceaf85" d="M50.3 72.9l-20-14.6 20-33.1 9.9 48.5z"/></g></g></svg>