<svg xmlns="http://www.w3.org/2000/svg" viewBox="0 0 1800 1200"><defs/><filter id="a"><feGaussianBlur stdDeviation="12"/></filter><rect width="100%" height="100%" fill="#473021"/><g filter="url(#a)"><g fill-opacity=".5" transform="translate(3.5 3.5) scale(7.03125)"><circle r="1" fill="#b08058" transform="matrix(180.93322 73.22103 -34.75267 85.87577 154.9 8.2)"/><circle r="1" fill="#cfc690" transform="rotate(87 65.8 69.3) scale(23.40707 109.87848)"/><circle r="1" fill="#8ab7bd" transform="matrix(2.12106 46.70936 -9.27923 .42137 68.6 79)"/><circle r="1" fill="#161105" transform="matrix(-14.25588 .19906 -.83478 -59.78271 144.8 89.8)"/><circle r="1" fill="#070a07" transform="matrix(-12.06294 40.7238 -99.22291 -29.39117 65.2 163.7)"/><ellipse cx="29" cy="69" fill="#ba7c5e" rx="13" ry="45"/><path fill="#000603" d="M230 35h17v61h-17z"/><path fill="#0d1c15" d="M59.3 14.9l-15.6-2.2.5 126.1 16.1-55.5z"/><ellipse cx="255" cy="153" fill="#1a170f" rx="168" ry="29"/><path d="M180 101h26v17h-26z"/><path fill="#00110c" d="M77 29h10v78H77z"/><path fill="#fff9cf" d="M122.8 23.9L197.3 0l-104 22.5L38.1 2.8z"/><ellipse cx="88" fill="#4a4b2d" rx="53" ry="7"/><path fill="#b9ad93" d="M207 91h7v52h-7z"/><ellipse cx="4" cy="66" fill="#03180e" rx="14" ry="57"/><ellipse cx="195" cy="34" fill="#a94c2a" rx="38" ry="21"/><path fill="#c8a585" d="M168.7 88.3l35.3 2.5 16.4 11.1-46.8-6z"/><circle r="1" fill="#311e0c" transform="matrix(10.53909 6.35759 -21.09012 34.9615 135.7 70.2)"/><path fill="#8c4826" d="M88 28h44v65H88z"/><path fill="#93b8c1" d="M60 71h5v48h-5z"/><path fill="#301907" d="M186 53h16v32h-16z"/><path fill="#baa98e" d="M175 84h5v45h-5z"/><path fill="#884820" d="M100 134l60-14-79-9z"/><ellipse cx="216" cy="69" fill="#be593b" rx="11" ry="32"/><path fill="#e4cc95" d="M83 13l57 11-32 6z"/><path fill="#2b1609" d="M172.8 68.7l-19 .6-.6-18 19-.6z"/><path fill="#8c4127" d="M16 9h28v42H16z"/><path fill="#e0ba74" d="M-16-4l60 15-27-27z"/><ellipse cx="67" cy="78" fill="#503822" rx="3" ry="47"/><path fill="#a3bcbf" d="M70 39h6v75h-6z"/><path fill="#4f4e40" d="M242 33h14v91h-14z"/><path fill="#000300" d="M217 134l2.7-13.7L259 128l-2.7 13.8z"/><path fill="#fff4c2" d="M158.4 7.6l-16.2 6.8L182 9.5l1.4-8.4z"/><ellipse cx="231" cy="21" fill="#9f472b" rx="47" ry="13"/><path fill="#64776d" d="M210.2 103.9l4.2 15.6 46.2 6.2 5.3-16.2z"/><path fill="#0e1d16" d="M129 88.6l-7 2.1-9.2 21.6-47.3-6z"/><path fill="#2b2214" d="M218.4 35.9l8.5-4-.5 63.2 29.7-60.6z"/><ellipse cx="31" cy="105" fill="#658776" rx="13" ry="7"/><path fill="#b45e3f" d="M182 89l-1-30-36 41z"/><path fill="#87a5b4" d="M70 100l15 25-15-7z"/><path fill="#080d07" d="M146.4 161.8l5.5-37.3-4-15 25.8 7.9z"/><path fill="#4f4f41" d="M175 104.1l-42.6-23-.6 31.3 37.4.7z"/><ellipse cx="60" cy="20" fill="#875533" rx="36" ry="5"/><ellipse cx="63" cy="70" fill="#fff" rx="1" ry="18"/><ellipse cx="30" cy="70" fill="#8d8c76" rx="5" ry="20"/><path fill="#98886c" d="M221 131l-28-2 16-7z"/><circle r="1" fill="#26241d" transform="matrix(51.10672 12.37518 -2.36562 9.76947 210.6 142.3)"/><path fill="#150e05" d="M133 33l-1 42 20 7z"/><path fill="#182218" d="M48 25.4l-2.8 9.8-3.6 80.2 20-86.7z"/><path fill="#a25532" d="M157 30.9l-38.5 8.9 51.1-25-12.1 71.7z"/><ellipse cx="240" cy="98" fill="#b24a34" rx="21" ry="5"/><circle r="1" fill="#ded8bb" transform="matrix(.44084 -1.78136 71.99453 17.81684 55.2 7.7)"/><path fill="#432615" d="M82 144h80v19H82z"/><path fill="#c2a17d" d="M253-11.2L255.7.4 209 11.2 206.3-.4z"/><path fill="#5f5831" d="M81.6 5.4L78.4-16l-5.2 26.3 33 3.7z"/><path fill="#ac5223" d="M226.3-16l-6.2 11.3-56.4 16.5 44-7.3z"/><path fill="#8c7a58" d="M245 49h8v34h-8z"/><path fill="#213224" d="M76 54h12v53H76z"/><path fill="#100a00" d="M240 89h16v6h-16z"/><path fill="#2d2a1c" d="M179 99h26v29h-26z"/><path fill="#bacbcb" d="M62 31h3v41h-3z"/><path fill="#1d2d28" d="M224.1 105.6l46.9 3.1-39.3-7.2-19.7.3z"/><circle r="1" fill="#b16249" transform="matrix(.06927 -.9976 48.86487 3.39322 137.8 90.7)"/><ellipse cx="30" cy="149" fill="#3f352c" rx="10" ry="22"/><path fill="#0a241e" d="M44.6 98.3l-27 2.4-.2-3 27-2.4z"/><circle r="1" fill="#081512" transform="matrix(-33.58774 33.02343 -6.50973 -6.62097 3.1 144.3)"/><path fill="#7c6f57" d="M197 129.1l-30.6-4.3.5-4 30.7 4.4z"/><path fill="#7e7948" d="M146-5l-28 23 37-11z"/><path fill="#9c6c39" d="M141.1 35.5l12.6-2.5-12.6-15.9-43.8 12.1z"/><circle r="1" fill="#020705" transform="rotate(-175.7 67.8 48.2) scale(27.85041 1.99937)"/><path fill="#866b49" d="M34.7 5l28.4 14.2-60.6-3.9L-16 .8z"/><path fill="#584f3b" d="M97 44h13v41H97z"/><path fill="#975841" d="M89 64h15v30H89z"/><circle r="1" fill="#eaae64" transform="matrix(.40591 1.52352 -28.91799 7.70462 155.5 15.1)"/><path fill="#161b11" d="M16.2 17.7l-2.7 18.8-29.7-4.2 2.7-18.8z"/><ellipse cx="255" cy="52" fill="#232820" rx="4" ry="20"/><path fill="#000301" d="M118 78l1-8 6 12z"/><path fill="#0e0804" d="M37 170.9l16.4-26.3L83 163l-16.5 26.3z"/><path fill="#a45034" d="M17 28h6v52h-6z"/><path fill="#0d0a04" d="M204.6 131.6l-2.6 14.8-22.6-4 2.6-14.8z"/><ellipse cx="235" cy="66" fill="#10160d" rx="5" ry="26"/><path fill="#6f7968" d="M157 100h13v12h-13z"/><path fill="#c5c397" d="M135 97h13v2h-13z"/><path fill="#4d3414" d="M153 53l7-22-37 7z"/><path fill="#7a6d45" d="M0-7l107 23-58-32z"/><ellipse cx="73" cy="69" fill="#565545" rx="1" ry="49"/><path fill="#afb480" d="M128.8 18.6L74.9 3.8l58.4 3.4-27.8 13.7z"/><path fill="#66321d" d="M62.9 28.9L-16 6.3l66.5 13.2 76.4 15.1z"/><circle r="1" fill="#1f1911" transform="matrix(-.60191 3.66072 -24.34738 -4.0033 115.5 111)"/><path fill="#fffffa" d="M140 15.2l-27.7 8.5-.3-1 27.7-8.4z"/><path fill="#70552f" d="M201.7 54.3l-6.1-20.1L180 55.9l7.6 16.4z"/><path fill="#5a6e6c" d="M60 50h3v56h-3z"/><path fill="#824a25" d="M88 196.9l-7-65.7h1l7 65.6z"/><path fill="#ded2a5" d="M68.7 9L55.6-16l11.5 29.3-40.4-9.6z"/><circle r="1" fill="#844a22" transform="matrix(8.44282 2.59632 -.37654 1.22443 139.5 138.5)"/><path fill="#7e704d" d="M114.7 32.7L60.3 19.2l1-4 54.4 13.6z"/><path fill="#837560" d="M174 114h4v27h-4z"/><path fill="#171f1c" d="M-16 153l35-59 1 90z"/><path fill="#211a13" d="M184 103h19v23h-19z"/><path fill="#a05636" d="M184.5 42.8l63.1-9.3-99-7.3 32.6 35.5z"/></g></g></svg>