<svg xmlns="http://www.w3.org/2000/svg" viewBox="0 0 1800 1200"><defs/><filter id="a"><feGaussianBlur stdDeviation="12"/></filter><rect width="100%" height="100%" fill="#3c4352"/><g filter="url(#a)"><g fill-opacity=".5" transform="translate(3.5 3.5) scale(7.03125)"><circle r="1" fill="#a3c0d6" transform="rotate(-101.2 74.8 -23.1) scale(78.88685 255.00001)"/><circle cx="139" cy="116" r="81" fill="#82765b"/><circle r="1" fill="#a7ccf5" transform="matrix(10.15218 33.41474 -50.27996 15.27622 19.6 54.6)"/><ellipse cx="96" cy="88" fill="#fff1c2" rx="27" ry="15"/><circle r="1" fill="#5287c9" transform="matrix(62.1173 211.05647 -28.25038 8.31454 243.9 70.4)"/><circle r="1" fill="#3269b9" transform="matrix(-125.63475 12.95491 -4.29922 -41.69318 147.6 0)"/><path fill="#3c5776" d="M-16 167l263 18L48 80z"/><circle r="1" fill="#9dbdde" transform="matrix(-12.81504 18.73747 -39.7792 -27.20601 255 72.7)"/><circle r="1" fill="#c9ad7b" transform="rotate(34.2 -44.7 306.6) scale(34.91632 17.6666)"/><ellipse cx="219" cy="124" fill="#38506c" rx="26" ry="52"/><path fill="#534321" d="M62.9 103.7l-3.7-15.8L-6.6 90l-9.4 13.2z"/><path fill="#705a22" d="M115 83l51-49-99 27z"/><path fill="#4e4840" d="M162.7 104l-18.9-30.5-56.5 83.3 18.3 2.4z"/><path fill="#7aa0cb" d="M30 75l-46-91 143 56z"/><circle r="1" fill="#7ca1c9" transform="rotate(-97.5 124.3 40.5) scale(8.42744 38.95614)"/><path fill="#3b3110" d="M154.3 43.9l10.8 17.8 19.4-7.4L160 36z"/><circle r="1" fill="#202e3e" transform="matrix(-50.30347 -19.81506 3.99915 -10.15243 168.3 167.1)"/><circle r="1" fill="#3a3428" transform="matrix(27.05287 -2.78134 .83377 8.10977 220.3 98.4)"/><circle r="1" fill="#4e7098" transform="rotate(35.2 -208.7 97.4) scale(26.21737 42.01227)"/><path fill="#cfba99" d="M132.7 54.8l-2.7 50-71.7-18.4 143.6-21.5z"/><ellipse cx="170" cy="79" fill="#5c5343" rx="6" ry="39"/><path fill="#335a93" d="M47-16L271-3 142 26z"/><circle r="1" fill="#a99267" transform="matrix(-19.14198 -8.9219 8.24473 -17.6891 194 67.7)"/><ellipse cx="11" cy="68" fill="#b3c4cf" rx="39" ry="20"/><path fill="#51441b" d="M110.4 50.4L41.8 85.6 66 105 52.7 72.8z"/><path fill="#e1ceb0" d="M82 71h20v35H82z"/><path fill="#776f67" d="M224 109l-72 31-99-41z"/><path fill="#061e2d" d="M87 167l4-21 27 6z"/><circle r="1" fill="#395c86" transform="matrix(-30.9894 -37.50681 16.85043 -13.9224 242.5 146.5)"/><path fill="#abaea6" d="M8.8 87.9l38.6 3.5-18.9 17.8 12.4-29.7z"/><path fill="#201a09" d="M137.7 98.8l5.6-8.5-2.4-8.1-12.7-1.5z"/><circle r="1" fill="#5285c2" transform="matrix(69.75837 8.74615 -1.17503 9.37191 211.7 38.7)"/><path fill="#e4cead" d="M161 93h27v8h-27z"/><circle r="1" fill="#797c7c" transform="rotate(-70.8 133.2 -8.4) scale(55.76569 4.04071)"/><ellipse cx="103" cy="55" fill="#37381f" rx="14" ry="6"/><path fill="#9c8652" d="M61.3 88.3l-8.4-12.5 29.8-20 8.4 12.4z"/><path fill="#616564" d="M207.5 54.9l6.2 4.7 27.5 43.3-50.9-13.5z"/><path fill="#3b424a" d="M183.7 164.4l-20.5-80.3 11.3 1.1-13.7 78.5z"/><circle r="1" fill="#393d37" transform="matrix(-2.37157 -6.88753 12.986 -4.47144 16.3 96.3)"/><path fill="#9eb4c9" d="M222 73.3l14.7-17.6 51.4 43-14.8 17.6z"/><circle cx="143" cy="99" r="4" fill="#ffe4bb"/><path fill="#131513" d="M213 100h43v4h-43z"/><path fill="#b9a783" d="M201 48l12 44-27-43z"/><path fill="#595a5a" d="M91 145l12-52 60 54z"/><path fill="#f7f0da" d="M153 60h6v15h-6z"/><circle r="1" fill="#d6c5a4" transform="matrix(-1.41989 -2.29504 28.2028 -17.44845 127.1 79.8)"/><ellipse cx="183" cy="84" fill="#d5c6a4" rx="6" ry="14"/><path fill="#002346" d="M149.5 185l39-27.2-8.2 1.2-15.8-2.7z"/><path fill="#584d2d" d="M153.9 59.8l28.7-16.6 13.2.3-20.1 12.1z"/><path fill="#82796d" d="M154.5 141.2l-2-36.8 37.9 37.7 8.8-51.8z"/><path fill="#514c3b" d="M148 70l8 23-34-4z"/><circle r="1" fill="#7f9bb8" transform="matrix(5.0365 -26.35628 2.3278 .44483 83.7 162.2)"/><ellipse cx="255" cy="115" fill="#537aa7" rx="33" ry="12"/><ellipse cx="235" cy="155" fill="#2b4567" rx="45" ry="11"/><ellipse cx="41" cy="161" fill="#2f4866" rx="41" ry="15"/><circle r="1" fill="#cebfa7" transform="rotate(67.7 10.7 167.2) scale(7.67122 6.05604)"/><path fill="#0f141d" d="M150 92l6 4-3 12z"/><circle r="1" fill="#435b7a" transform="matrix(14.99627 4.9886 -8.89817 26.7489 60.2 128.9)"/><path fill="#5880b1" d="M167.3 38.2L-3-14.5l108.4 65.7 35.2-10.8z"/><path fill="#7d9dc4" d="M116 159h19v11h-19z"/><path fill="#6a7482" d="M109 144l-26-35-20 33z"/><path fill="#d5c9b0" d="M73.5 103.9l23.5-1.5 8.6-31.5-10.9 9.7z"/><circle r="1" fill="#6d90bc" transform="rotate(122.6 14.6 21.1) scale(18.82306 62.19081)"/><path fill="#afc3cb" d="M182.6 161.4l.6.7-9.8 8.5-.6-.7z"/><path fill="#706559" d="M118 153h73v4h-73z"/><path fill="#2e312c" d="M55.3 91.1l-.1-16-15.9 14 25.1 10.7z"/><path fill="#6a95c9" d="M241 68l-49-25 75-23z"/><path fill="#6f87a1" d="M63 185l24-30 30 15z"/><path fill="#8e7c5c" d="M129 78l-27 4 35-24z"/><path fill="#3b434d" d="M213 107l-11-29-9 13z"/><path fill="#c8b99f" d="M56.1 77.4l9.5.4.3 8.5 5 8.3z"/><path fill="#988e7b" d="M163.5 105v20h-13v-20z"/><path fill="#95aabd" d="M271 88.8l-20.7 13.5-17.5-39.4-5.7 22.5z"/><circle r="1" fill="#5a799b" transform="matrix(30.4723 -17.48467 10.9831 19.14135 3.3 128.4)"/><path fill="#61593e" d="M147.2 45l-8.3 15.5L173.5 42l18 20.9z"/><path fill="#d4c7ae" d="M134.3 104.3l-3.3-1.9-69.5-13.5L98 78.8z"/><circle r="1" fill="#6680a4" transform="matrix(-.11032 .9939 -28.58166 -3.17243 211.3 164.6)"/><path fill="#fff6db" d="M204.2 56.2l-3 .5-1.4-9 3-.4z"/><path fill="#132730" d="M88 147h28v11H88z"/><path fill="#8aa6c8" d="M-16 25.2L5.4 10.5l73.3 47.4-36 22.7z"/><circle r="1" fill="#675d32" transform="matrix(-10.56073 10.85983 -2.72048 -2.64555 74.9 68.8)"/><path fill="#cbb18e" d="M26 102l14-12-2 12z"/><path fill="#827559" d="M191.2 65.9l14.5-6.4 3.2 13.4-22.3 12.7z"/><path fill="#b6c3c7" d="M33 70l-49 7L9 91z"/><path fill="#0e2b47" d="M194.1 176.8l-36.2-.1 32-17.9-57.3-1.4z"/><path fill="#5e542f" d="M118 69l2-21-33 24z"/><circle r="1" fill="#a79578" transform="matrix(5.40993 -8.68668 2.20529 1.37342 138.6 48.3)"/><path fill="#d9caab" d="M126.9 74.2l21.4-4.5-12.6 6.2-22 22.9z"/><path fill="#545d62" d="M231.9 86.3L212.3 61l6.5 25.8-45.8 28.6z"/><path fill="#c7b99c" d="M83 63h6v41h-6z"/><path fill="#5b5137" d="M157 78.7l15.7 12.4-10.8-2.3-2.6-14z"/><path fill="#d2c5a5" d="M158 75l-5-22 17 30z"/><circle cx="177" cy="78" r="4" fill="#e6d2b1"/><path fill="#353638" d="M184.3 100.1l7.8 7.9 28.1-12.5 31.5 8z"/><ellipse cx="122" cy="65" fill="#b7a379" rx="2" ry="13"/><ellipse cx="179" cy="143" fill="#223755" rx="19" ry="3"/><path fill="#e7c687" d="M154 49l7 4-5 1z"/><circle r="1" fill="#4c77b0" transform="matrix(-59.04777 13.52374 -3.49464 -15.2584 217.1 20.5)"/><path fill="#525357" d="M184 134l-17 4-2-37z"/><path fill="#94836b" d="M197.5 108.4l-26.3-11.3 16.2 35.4 8.5-40.7z"/></g></g></svg>