<svg xmlns="http://www.w3.org/2000/svg" viewBox="0 0 1800 1200"><defs/><filter id="a"><feGaussianBlur stdDeviation="12"/></filter><rect width="100%" height="100%" fill="#565134"/><g filter="url(#a)"><g fill-opacity=".5" transform="translate(3.5 3.5) scale(7.03125)"><circle r="1" fill="#f1ffff" transform="matrix(-2.93366 -39.06797 222.0789 -16.67619 178.5 0)"/><ellipse cx="233" fill="#e2f5ff" rx="220" ry="25"/><ellipse cx="118" cy="86" fill="#2a344a" rx="68" ry="73"/><circle r="1" fill="#6f727a" transform="matrix(75.83871 23.91185 -13.20003 41.86513 17.4 59)"/><circle r="1" fill="#798699" transform="rotate(-80 122 -97) scale(19.93007 94.23826)"/><circle r="1" fill="#161b28" transform="matrix(-12.49451 -33.833 66.90218 -24.70695 162.8 102.2)"/><ellipse cx="226" cy="5" fill="#fff" rx="64" ry="19"/><path fill="#6c7692" d="M190 126h63v29h-63z"/><path fill="#3e4551" d="M223.2 21.2L271 148.8 150.2 84.7l47.4-55.5z"/><circle r="1" fill="#ecf1f4" transform="rotate(95 73 95.4) scale(6.68437 15.59027)"/><path fill="#f4ffff" d="M102 19h54v5h-54z"/><circle r="1" fill="#292f2a" transform="matrix(.3842 36.68732 -90.47274 .94746 5.6 169)"/><circle cx="62" cy="3" r="33" fill="#a0bce8"/><path fill="#889671" d="M74.3 89.9l15.4-4.4 10 34.6-15.4 4.4z"/><path fill="#515264" d="M131.2 13.7l57.1 13.6-8.1-10.4-.9-.5z"/><circle r="1" fill="#7e8184" transform="matrix(-2.57952 14.02134 -44.57446 -8.20041 43.2 38.8)"/><ellipse cx="124" cy="26" fill="#231c27" rx="38" ry="3"/><ellipse cx="68" cy="83" fill="#29301e" rx="12" ry="21"/><path fill="#140c13" d="M178 23h3v43h-3z"/><path fill="#80897d" d="M148.7 28.4L171 79.6l8.3-35.5-103 4z"/><path fill="#f3f8fe" d="M200.5 2.2l11.3 11.3-18.3 18.3-11.3-11.3z"/><path fill="#000009" d="M97 110l-4-30 23 28z"/><circle r="1" fill="#616d71" transform="matrix(-27.74365 -23.94768 10.89776 -12.62518 232 50.3)"/><ellipse cx="120" cy="3" fill="#bed5f7" rx="88" ry="12"/><circle r="1" fill="#5d615a" transform="matrix(-32.15545 -21.90246 18.3271 -26.90638 27.1 99.7)"/><ellipse cx="221" cy="162" fill="#404150" rx="116" ry="11"/><path fill="#8995a3" d="M194.3 138.1l21.4-15 2.9 7.1-16.5 19.5z"/><path fill="#bcc8c3" d="M117 30l39-2-6 11z"/><circle r="1" fill="#f3f1f3" transform="matrix(19.68028 6.73807 -7.64551 22.3307 244.6 7.2)"/><path fill="#1c1d1a" d="M81.3 74.4l63.8 43.8 25.6 8.9-42.3 21.8z"/><ellipse cx="141" cy="16" fill="#2b1c26" rx="36" ry="2"/><circle r="1" fill="#808d91" transform="matrix(-7.13378 -.7426 1.2278 -11.79462 189 46.8)"/><ellipse cx="96" cy="38" fill="#434049" rx="10" ry="23"/><path fill="#a29094" d="M93.2 111.1L73.7 95.6l8.8 9.8 42.3 36.5z"/><path fill="#b2c0ca" d="M101 18h72v7h-72z"/><circle r="1" fill="#2b2e31" transform="matrix(-23.17655 14.27386 -17.42087 -28.28637 194 93.7)"/><path fill="#909a9f" d="M26 22h59v13H26z"/><path fill="#383d4b" d="M179 17l-13-2-11 13z"/><circle r="1" fill="#706968" transform="matrix(17.52439 -16.34148 35.59417 38.17072 0 42.3)"/><circle r="1" fill="#eaf5f8" transform="matrix(-1.7313 -3.56549 8.83053 -4.28787 168.9 27.3)"/><path fill="#b2927f" d="M89.6 59l2.7 16.8-8 1.2-2.6-16.8z"/><circle r="1" fill="#4a4c2c" transform="matrix(-39.98248 -17.92291 10.61381 -23.67732 79.8 153)"/><path fill="#2f273b" d="M178 17.6l.7-.7L208 48.4l-.7.7z"/><path fill="#6f9892" d="M114 55h19v5h-19z"/><path fill="#363e34" d="M167 115h27v34h-27z"/><circle r="1" fill="#434d51" transform="matrix(-27.12946 3.28303 -3.84005 -31.73246 245.7 101)"/><path fill="#5b5f52" d="M160 52h18v23h-18z"/><circle r="1" fill="#938c9a" transform="matrix(24.6279 29.24656 -8.2081 6.91186 19 15.4)"/><path fill="#6eabf2" d="M87 124h6v5h-6z"/><path fill="#31362b" d="M88 112l-5 47-25-66z"/><path fill="#b4cbe8" d="M42 22L13-16 116 8z"/><ellipse cx="197" cy="13" fill="#e6eaed" rx="15" ry="14"/><path fill="#8a9388" d="M99 30.4l26.5.8-20 15.2-4.8-12.8z"/><path fill="#49404c" d="M98 14h27v4H98z"/><ellipse cx="173" cy="30" fill="#faffff" rx="5" ry="7"/><path fill="#44474d" d="M153 23h6v32h-6z"/><path fill="#222025" d="M86 28h5v23h-5z"/><path fill="#151219" d="M94 52l18 19-25-13z"/><path fill="#060608" d="M115.1 129.1l47 .5-34.9 13.4-10.9-16.7z"/><path fill="#939795" d="M178 40l-20-6 10 17z"/><path fill="#57544b" d="M117 145h67v14h-67z"/><path fill="#e3f8ff" d="M131 19h40v2h-40z"/><circle r="1" fill="#312d30" transform="matrix(-12.55118 7.3063 -34.59884 -59.43587 2.8 145.7)"/><path fill="#020011" d="M253 140h3v16h-3z"/><path fill="#636d70" d="M86.5 41.8l-2.4 26.1-39.6-20.1 22.1-17.3z"/><path fill="#1a1c26" d="M160.8 57.8L154.1 81l-12.3-9.2L153.6 52z"/><path fill="#111e24" d="M166.7 107.3l-30.7 4.3-2.7-18.9 30.7-4.3z"/><path fill="#d3e0ec" d="M242-16L109 10l79 6z"/><path fill="#101312" d="M117.6 146.5l-14.7-15.3 4.2-4.6 16 16.8z"/><ellipse cx="125" cy="27" fill="#211b23" rx="17" ry="3"/><path fill="#5a5933" d="M65.8 162.9l-26.6-54.3 5.5-8.1 22.8 6.9z"/><ellipse cx="255" cy="54" fill="#5a6872" rx="24" ry="25"/><path fill="#22201d" d="M161.6 159.3L137.7 185l65.9-11-19.7 11z"/><path fill="#1f2029" d="M122 28h2v28h-2z"/><path fill="#151b1e" d="M95.7 116l-4.5-35.5 34 57.5-36.1-29.1z"/><path fill="#8d9294" d="M93.7 15.6l4.3 14 9.7-12.3L-8.6 57.4z"/><path fill="#739663" d="M88.5 84l-11.1-3.6 17.5 35.4L90.8 84z"/><path fill="#4a4d38" d="M154.2 108.9l35.4 44.9 20.3 28.5-43.9-76.5z"/><path fill="#3c3c44" d="M154 89l-65-4 13-38z"/><path fill="#3c3632" d="M238 141h6v29h-6z"/><path fill="#b08e7b" d="M89.7 78.6l-4.5.2 5-15.6 3.4 4.2z"/><path fill="#4a5d43" d="M199 136l12-22h-14z"/><path fill="#797d80" d="M199.5 125.2l17.8-1.8-27.4 33.3 35.8-16.8z"/><path fill="#4a4a3d" d="M67.6 80l17.9-9.5-.9-3.6-51.9-8.7z"/><path fill="#4f504d" d="M151.2 185L138 152.8l-34.1-26.3 44.2 25z"/><path fill="#888083" d="M32 7l-48 1 30 25z"/><path fill="#3d3f41" d="M121.1 112.4l10.7-66.9 22.5 1-45.4 27z"/><path fill="#221f2d" d="M93 18l3 11-7-1z"/><path fill="#656e35" d="M110 144l-27-7 4-9z"/><path fill="#c4d2d6" d="M139 30h15v5h-15z"/><path fill="#757050" d="M226.3 22.7l-15.8 3.1-15.1 2.5 32.6 5.1z"/><path fill="#7f848e" d="M35.2 105L3 112l-.2-1 32.2-7z"/><path fill="#6b6e66" d="M28.9 126.4l-19.2 6.8L51 92.5 27.2 95z"/><path fill="#605f5a" d="M263.3 135l-31-13.9 4.4-10 31 13.8z"/><path fill="#f2f3f3" d="M271 39l-16.2-4.7 10.5-31.5-29.5 14.5z"/><path fill="#3c404f" d="M179.8 18L149 29.8l-.8-1.8L179 16.2z"/><path fill="#919ca3" d="M79.1 37.2l4.4-1.3 6.6-16-29.2.7z"/><path fill="#d0dee9" d="M128 18h30v6h-30z"/><path fill="#ac8b82" d="M81.2 100l18.3 15.9L79 103.1l-4.6-7.5z"/><path fill="#191917" d="M193.6 120.2l-60.9 20.4 31.2-7.5 34.7-7.4z"/></g></g></svg>