<svg xmlns="http://www.w3.org/2000/svg" viewBox="0 0 1800 1200"><defs/><filter id="a"><feGaussianBlur stdDeviation="12"/></filter><rect width="100%" height="100%" fill="#354160"/><g filter="url(#a)"><g fill-opacity=".5" transform="translate(3.5 3.5) scale(7.03125)"><circle r="1" fill="#e9ffff" transform="matrix(.79746 -59.2051 254.97687 3.4344 113.5 39.5)"/><circle cx="202" cy="169" r="112" fill="#a39f8d"/><path fill="#d1e5fe" d="M212 64L35 20l-51 72z"/><circle r="1" fill="#7f959e" transform="rotate(46.4 -167.3 128.8) scale(173.25047 35.42547)"/><circle r="1" fill="#487dd0" transform="matrix(-162.77581 11.57495 -2.85524 -40.1526 162.6 0)"/><path fill="#0e1520" d="M12.3 130.9l118.7 2.4-74.7 15.4-43.2.9z"/><path fill="#455562" d="M7 96h217v16H7z"/><path fill="#ede2cf" d="M26.1 123.2l.8-4.7-42.9 9.9v28.4z"/><ellipse cx="217" cy="153" fill="#9dacad" rx="94" ry="9"/><path fill="#283139" d="M214.6 129.7l-.2 14-75-1.4.2-14z"/><ellipse cx="197" cy="169" fill="#352c3a" rx="63" ry="9"/><ellipse cx="216" fill="#3f6095" rx="73" ry="18"/><path fill="#cfcbbf" d="M211.5 89.9L33.1 57.7l.9 80.8 6.9-54.1z"/><ellipse cx="83" cy="37" fill="#8ab1e3" rx="99" ry="15"/><path fill="#a5b0a5" d="M147 117h98v12h-98z"/><path fill="#a2b8d9" d="M14 156h85v6H14z"/><path fill="#a6cbe6" d="M-5.8 80.5l19.6 3.8-8 41.2-19.6-3.8z"/><ellipse cx="117" cy="152" fill="#543b3b" rx="12" ry="37"/><path fill="#475560" d="M264.3 119.8l-49.1-51 .5 20.5-11.7 26.5z"/><path fill="#bebbc7" d="M210 15l60 80-71-50z"/><path fill="#748a9a" d="M142 116l-72-2 4-25z"/><circle r="1" fill="#959696" transform="matrix(15.3888 -12.17971 6.80389 8.59657 244.1 98.6)"/><ellipse cx="28" cy="62" fill="#c8daea" rx="134" ry="13"/><path fill="#333f4a" d="M106.3 97l38.4-.7 4.3-10.4 5.8 36.2z"/><path fill="#888389" d="M111 137.3l-8.6-18.1L84.2 185l39.7-45z"/><ellipse cx="89" cy="80" fill="#988770" rx="25" ry="5"/><path fill="#c7c3c0" d="M148 87l33-45 41 46z"/><path fill="#8ab7f4" d="M29.6 10.3L.8 43.5l-20.4-17.8L9.2-7.5z"/><path fill="#8a989e" d="M190.7 131l2.6-37 14 1-2.6 37z"/><path fill="#a8abb3" d="M153 166l-27-52 8 46z"/><ellipse cx="242" cy="45" fill="#eff2f4" rx="2" ry="29"/><path fill="#0f1727" d="M20.1 99.7l-1.2 23-7-.4 1.2-23z"/><path fill="#d0cdb6" d="M178 100h5v27h-5z"/><path fill="#94b2b7" d="M229.3 141.1l-.2-6.8-14.2-14.2-5.2 41.2z"/><circle r="1" fill="#e0e0d5" transform="rotate(-179.4 109.4 4.4) scale(1 61.99776)"/><path fill="#0b182a" d="M176 137l-12-12 5 26z"/><path fill="#2d3b4c" d="M54 97.6l1 10.3 29.5 46.8-58.3 3.2z"/><path fill="#d9cfbf" d="M271 156.1l-53-10.4 23.7 4.4-3.2 9.7z"/><path fill="#81898d" d="M49.2 104.8L12 76.6l23.8 5.9.4 61.3z"/><path fill="#a1b9db" d="M40 167h38v3H40z"/><path fill="#8297b0" d="M22 86h4v65h-4z"/><circle r="1" fill="#6f757c" transform="matrix(-119.23452 -90.39302 .60413 -.79689 172.8 28.3)"/><path fill="#405367" d="M63.5-15.9L25.7 28.9 52.2-16 27.5 17.2z"/><path fill="#363b49" d="M-.4 50l-.8-.7 29.6-35.2.8.6z"/><path fill="#605f5f" d="M189.7 125.1l43.2 59.9-52.4-52.7 13.4-77.8z"/><path fill="#162e2a" d="M257.4 127.6l-14.1-12.8 9.3-10.4 14.1 12.8z"/><path fill="#1b1e29" d="M23.9 100.5l5-.7 3.2 23.7-5 .7z"/><path fill="#d9dede" d="M239 0h3v30h-3z"/><path fill="#ffefd3" d="M17 89l16-12-35 10z"/><circle r="1" fill="#82a7d8" transform="matrix(69.94228 17.05009 -3.14957 12.92006 111.2 33.8)"/><circle r="1" fill="#ebdecd" transform="matrix(-.03534 1.746 -35.97207 -.728 73.2 84.9)"/><path fill="#1e2448" d="M212 78h24v3h-24z"/><path fill="#545b63" d="M206.7 97.3l-31.6 6.1-36.3-16 35.4 6.3z"/><path fill="#454749" d="M234.8 106.3l-7.4-18.9 12.7 12.6-1.8 25z"/><path fill="#1b2230" d="M146.1 114l-10.4-18.3 1.3 33.7-4.7-12.7z"/><ellipse cx="70" cy="139" fill="#182025" rx="26" ry="8"/><path fill="#495566" d="M-16 78.9L50.1-2.6 14 44.9l-30 35.6z"/><ellipse cx="32" cy="95" fill="#7492ac" rx="156" ry="2"/><ellipse cx="196" cy="160" fill="#5f6f5e" rx="37" ry="4"/><circle r="1" fill="#4878be" transform="rotate(-71.5 50.2 -68.8) scale(11.85749 40.39973)"/><path fill="#968b86" d="M160.2 77.9l17-11.3-38.5 6.2.7 12z"/><path fill="#6685b8" d="M220 19h36v22h-36z"/><path fill="#e0ded1" d="M142 8h2v60h-2z"/><path fill="#a1adb8" d="M190.8 159.4l6.1-25.4-23.3 23.1 56.9-14.9z"/><path fill="#283f56" d="M220 126l6-22-21-10z"/><path fill="#2a2e38" d="M173 92h4v32h-4z"/><path fill="#a69b89" d="M33.8 88.1l-20.3-3.7-26.7-1.3L40.6 76z"/><path fill="#5f5e5c" d="M271 127.2l-39.9-34.7L271 81.8l-45.3 4.1z"/><path fill="#fffff8" d="M133 83h7v9h-7z"/><path fill="#3a3d40" d="M78 116.8l-1.9-21 8-.6 1.8 21z"/><path fill="#22313a" d="M109 119h15v17h-15z"/><path fill="#e1e1cf" d="M156 119l3-5 12 1z"/><path fill="#4d504f" d="M228 135h8v24h-8z"/><path fill="#adbeca" d="M22 106l-8 23 12-10z"/><path fill="#fefff6" d="M159 79l2 15 3-3z"/><path fill="#ced1d2" d="M194 93.2l22.4-6.7L139.1 55l54 7.1z"/><path fill="#a4a8a6" d="M240.1 96.1l-.5 21.2L271 74.7l-43.3 30.6z"/><path fill="#31535b" d="M248 136h8v15h-8z"/><circle r="1" fill="#456fad" transform="matrix(10.12138 -21.98168 31.13425 14.33565 181 0)"/><path fill="#97b5cf" d="M32 104h6v26h-6z"/><ellipse cx="61" cy="108" fill="#85a4be" rx="2" ry="12"/><path fill="#4c4651" d="M147.3 130l-5.3 21.2-7.1-21.5-.2-20.2z"/><path fill="#7fb1ca" d="M9 148l-14-1 16-13z"/><path fill="#414756" d="M11 96h45v9H11z"/><path fill="#cfdfe6" d="M231.4 97.7l-1.8 15-3-.4 1.8-15z"/><path fill="#adb9c0" d="M125.2 111.2l-19.7 3.5-.7-4 19.7-3.4z"/><path fill="#c5cacf" d="M201 126l9-9 14 10z"/><path fill="#9ca1a2" d="M123 108l6 23 8-6z"/><path fill="#8fa0b5" d="M69 154l33 1-11 10z"/><path fill="#8c918c" d="M164 136.7l-2-.3 10-57.1 2 .3z"/><path fill="#342b2a" d="M185 96h6v25h-6z"/><path fill="#482b2b" d="M102 144l15 28 2-16z"/><circle r="1" fill="#abb6c3" transform="rotate(-51.5 113.4 -157) scale(1 76.77943)"/><ellipse cx="181" cy="136" fill="#040e18" rx="3" ry="7"/><path fill="#b1a199" d="M216 82l-32-11 23-11z"/><path fill="#a16e63" d="M245 57h6v21h-6z"/><path fill="#274753" d="M197 134h25v9h-25z"/><path fill="#98b0d1" d="M0 169h81v1H0z"/><path fill="#bbbeb7" d="M221.2 143l-23.6 11.3 32.7 1.6-20-11z"/><path fill="#8a8b88" d="M166.4 114.5L148 137.2l10.7-41.8 2.1 48.3z"/></g></g></svg>