<svg xmlns="http://www.w3.org/2000/svg" viewBox="0 0 3996 2664"><defs/><filter id="a"><feGaussianBlur stdDeviation="12"/></filter><rect width="100%" height="100%" fill="#543c2e"/><g filter="url(#a)"><g fill-opacity=".5" transform="translate(7.8 7.8) scale(15.60938)"><circle r="1" fill="#fff" transform="matrix(2.4053 -49.17977 227.90708 11.14652 105.8 23.5)"/><circle r="1" fill="#d0e7fb" transform="matrix(-250.31493 48.6563 -8.09435 -41.6418 171.4 -.1)"/><path fill="#6d6a61" d="M96 185l175-76L150 6z"/><circle r="1" fill="#e8f9ff" transform="matrix(-35.65736 14.18992 -8.55786 -21.50475 231.8 37.6)"/><circle r="1" fill="#321a0f" transform="matrix(-6.48926 -31.89572 15.32793 -3.1185 187 65)"/><ellipse cx="96" cy="51" fill="#d2e0e4" rx="51" ry="29"/><path fill="#adaec0" d="M138.5 136.3l27.9-2.5 3.1 36-27.9 2.4z"/><ellipse cx="58" cy="8" fill="#4068a7" rx="32" ry="13"/><path fill="#2c1411" d="M140 19l12 59 8-51z"/><circle r="1" fill="#001006" transform="matrix(3.3747 10.81423 -73.21407 22.84728 48.2 149.7)"/><circle r="1" fill="#acb3a4" transform="matrix(-.28803 -2.79574 104.0738 -10.72222 87.4 93.5)"/><ellipse cx="236" cy="94" fill="#fff" rx="28" ry="2"/><circle cx="144" cy="86" r="28" fill="#6b757a"/><path fill="#eeeeec" d="M95-3l110-13L91 52z"/><circle r="1" fill="#1f1800" transform="matrix(33.90711 4.88609 -1.26138 8.7534 237.3 110.3)"/><path fill="#fff" d="M114 135l4 14-13-6z"/><path fill="#9ea9ac" d="M271 65l-76-19 8 38z"/><path fill="#eaab80" d="M186 120l27-29-3-17z"/><circle r="1" fill="#ecedee" transform="matrix(8.11717 -13.43493 40.70583 24.59382 11.8 22)"/><circle r="1" fill="#fdfff3" transform="rotate(172.4 26 49.2) scale(39.96696 1)"/><path fill="#c09a85" d="M167 119l16 29 20-12z"/><circle r="1" fill="#030e06" transform="matrix(28.06135 -.55684 .16213 8.17029 97 169)"/><path fill="#395714" d="M0 64h47v31H0z"/><path fill="#32363a" d="M143 66h59v21h-59z"/><ellipse cx="164" cy="20" fill="#d1d1c9" rx="5" ry="51"/><path fill="#fffff7" d="M130 94.2l-40-1.4v-3l40 1.4z"/><path fill="#596e6f" d="M141.2 81.3l-1.7 8.8-68.7-13.4 1.7-8.8z"/><path fill="#406daf" d="M239-2.7l16.1-5.6 5.9 17-16.1 5.6z"/><path fill="#d2d6d9" d="M193 9h63v49h-63z"/><path fill="#36331e" d="M72 94h36v53H72z"/><path fill="#f3cdc6" d="M130.3 143.6l1.8-6.8 13.6 3.6-1.8 6.8z"/><path fill="#516c52" d="M211 71h45v22h-45z"/><circle r="1" fill="#f8f0e4" transform="rotate(82.6 -47.4 61.8) scale(1 33.66939)"/><path fill="#ae7759" d="M122 129l13-40-28 35z"/><circle r="1" fill="#553e2f" transform="matrix(5.36575 6.15087 -10.48383 9.14563 180 40.1)"/><circle r="1" fill="#3d211e" transform="matrix(11.87754 .48323 -.55067 13.53502 139 121)"/><path fill="#495d27" d="M48 67L16 89l111-1z"/><circle r="1" fill="#7e8788" transform="rotate(12.9 -356.4 744.3) scale(12.35307 18.21583)"/><ellipse cx="239" cy="141" fill="#4d5724" rx="32" ry="31"/><path fill="#fcf8e6" d="M214 95.4v-4l68 1.2v4z"/><path fill="#000005" d="M182.7 109.4l-6.3-12.2-10.4 13h12z"/><circle r="1" fill="#efeeee" transform="rotate(-44.2 68 -61.8) scale(9.41463 15.26141)"/><path fill="#422927" d="M125.9 132l19.6 30.1.9 10.1-23.9-16.1z"/><circle r="1" fill="#102f06" transform="matrix(-33.32803 8.77308 -1.4972 -5.68774 11 126.6)"/><ellipse cx="128" cy="47" fill="#d2d5d3" rx="19" ry="15"/><path fill="#000502" d="M40.5 144.7L2.6 185l-10.9-20.5-4.8-11.9z"/><circle r="1" fill="#a4acae" transform="matrix(2.08853 -9.4469 25.9089 5.72798 183.2 24.2)"/><path fill="#724c3e" d="M176 144l20-25-15-70z"/><path fill="#665e3d" d="M79.9 117.6l-95.9 3.7 75.6-21.6-75.6 60.1z"/><circle r="1" fill="#bd8055" transform="matrix(2.51822 17.11965 -6.02557 .88633 206.1 75)"/><path fill="#ffe0c1" d="M172 119l-7-3 12 17z"/><path fill="#e2b17f" d="M125 93h16v7h-16z"/><path fill="#000102" d="M238 161l20 24h-73z"/><path fill="#e1a887" d="M185 132h25v6h-25z"/><circle r="1" fill="#7690b7" transform="matrix(18.1189 11.56992 -9.5571 14.96675 70 5.4)"/><ellipse cx="196" cy="79" fill="#0a0e14" rx="5" ry="21"/><path fill="#201513" d="M215.4 98.8l-7-6.5-3.3 17.5 36.8.7z"/><path fill="#472d27" d="M147.2 42l-8.6-11 14.2-11 8.6 11z"/><ellipse cx="237" cy="62" fill="#94aec9" rx="29" ry="8"/><path fill="#b9c1c5" d="M39 47h106v20H39z"/><path fill="#342622" d="M197 127l4-15 40 35z"/><path fill="#e3e3e2" d="M107 14l4 36-79-13z"/><path fill="#4f5326" d="M47 66L13 86l5-25z"/><ellipse cy="91" fill="#213012" rx="27" ry="10"/><path fill="#86573b" d="M168 111l-59-20 43 38z"/><path fill="#dadfe1" d="M175.6 34.1l-15.9 8 4-40.6-55.2-5.4z"/><path fill="#c17d57" d="M136 138l2 34 5-17z"/><path fill="#8597a0" d="M50.4 71.4l75.6-6.1 34.3-13.4-23.1 25.6z"/><path fill="#978b83" d="M265 133.3l-16.5-3.2-17.2.2 17.3 3.4z"/><path fill="#584942" d="M171 132h15v38h-15z"/><circle r="1" fill="#ebecea" transform="matrix(34.01 7.04087 -1.94882 9.41352 240.8 28)"/><path fill="#82806e" d="M73.2 155.7L-3.7 185l78.5-32.5-1.1.3z"/><path fill="#4f433e" d="M125 88.6l25.2 8.9-8.1 21.3-.9-44.2z"/><path fill="#152315" d="M85 104h32v11H85z"/><path fill="#0e1426" d="M127 111l12 29 4-14z"/><path fill="#d3aa89" d="M189.4 119.3l-3.3-2.1 18.5-28.5 3.3 2.1z"/><path fill="#1f2319" d="M91.5 147.9l34.4 37.1-56.3-38.2-59 29.4z"/><circle r="1" fill="#a2a389" transform="matrix(-4.27852 -4.94696 1.38293 -1.19607 207.4 114.7)"/><path fill="#4b3527" d="M193.5 80.7l.7-41.7-9.4-4v27.5z"/><path fill="#504847" d="M157.2 87.6L150.7 36l4.2-17.6 8.9 57.1z"/><path fill="#6f7d81" d="M115 86l24-14H67z"/><ellipse cy="54" fill="#a3abb0" rx="37" ry="10"/><path fill="#5f4d34" d="M96 91l-46 26-26-16z"/><path fill="#81644c" d="M162.7 53.9l6.7-10.1 26 74.4-10.3-49.6z"/><path fill="#8e875b" d="M92 144h30v6H92z"/><path fill="#e4e5d9" d="M79 89h18v3H79z"/><path fill="#6783af" d="M72.6 4L44.2-9.3l6.1 35.4-19-7.5z"/><path fill="#878389" d="M140.8 135.6l32.8-5.3-20.9 54.7-10.3-40.1z"/><path fill="#819abd" d="M234.9 17.5L245-16l26 17.8-31.8 17.3z"/><path fill="#53473f" d="M131 63h6v29h-6z"/><path fill="#ada292" d="M243.2 132.9l-24.6-4.8.2-1 24.6 4.8z"/><path fill="#5d4f3b" d="M129 122l-21 16-14-26z"/><path fill="#828986" d="M193.8 144.9l3.3 8.8-12.9-7.7-2.1-8.1z"/><path fill="#c7cbdf" d="M109 140l11-11-7 18z"/><path fill="#9b8d88" d="M167 185l-42-2 1-23z"/><path fill="#1b232c" d="M124.9 146.8l-9.5 3.4 21 13.2-6.4-23.6z"/><path fill="#321f15" d="M174.9 91.2l3.8 4.2 6.8-15.3-13.3 6.7z"/><path fill="#93907a" d="M58.1 121l.3 1-100.5 27-.3-1z"/><path fill="#697121" d="M215 142l4 23 27-11z"/><path fill="#5c5f2c" d="M210 113h46v16h-46z"/></g></g></svg>