<svg xmlns="http://www.w3.org/2000/svg" viewBox="0 0 1800 1200"><defs/><filter id="a"><feGaussianBlur stdDeviation="12"/></filter><rect width="100%" height="100%" fill="#3c5574"/><g filter="url(#a)"><g fill-opacity=".5" transform="translate(3.5 3.5) scale(7.03125)"><circle r="1" fill="#b4babd" transform="rotate(-89.8 87.3 -54.7) scale(43.87932 254.99999)"/><circle r="1" fill="#5f6261" transform="rotate(176.5 76.6 58.4) scale(191.72485 72.69056)"/><circle r="1" fill="#b2b8bd" transform="matrix(52.75535 23.04825 -14.73435 33.7256 42.4 0)"/><circle r="1" fill="#2e3440" transform="rotate(-89.2 110 -8.9) scale(13.56367 99.22004)"/><circle r="1" fill="#b9bfc2" transform="matrix(-.34607 12.38936 -90.87048 -2.53824 168.6 0)"/><ellipse cx="224" cy="61" fill="#8da2b6" rx="95" ry="9"/><circle r="1" fill="#5e7999" transform="matrix(-76.2473 3.25517 -.70157 -16.43323 51.2 69.4)"/><path fill="#6d6a60" d="M335.7 86.5l-110 106.3-51.4-53.3 110-106.3z"/><path fill="#382c29" d="M142.6 74.4l-18.1-6.8-14.1 6.6 20.3 34.7z"/><circle r="1" fill="#4f667f" transform="matrix(49.97516 1.616 -.20241 6.25957 147.7 19.5)"/><path fill="#3e5c7f" d="M200.2 50.3L63.5 69.5l-1.7-11.8 136.7-19.2z"/><ellipse cx="184" cy="137" fill="#616c73" rx="82" ry="24"/><ellipse cx="25" cy="99" fill="#234f79" rx="35" ry="15"/><circle r="1" fill="#42698e" transform="matrix(-2.27453 -14.50678 42.91574 -6.7288 190 85.4)"/><ellipse cx="211" cy="108" fill="#4c3f36" rx="157" ry="6"/><circle r="1" fill="#526783" transform="matrix(1.11334 5.57173 -26.15195 5.22568 21.3 30.9)"/><ellipse cx="238" cy="20" fill="#445f7d" rx="28" ry="6"/><path fill="#a8afb5" d="M59.8 51.7l26-67.7-24.5 31.5L25.8 50z"/><circle r="1" fill="#4e5559" transform="matrix(-2.135 -25.03944 81.39474 -6.94015 74.3 158.2)"/><path fill="#775f41" d="M252.7 115.5l-25.2-24.3 27.8-28.7 25.2 24.3z"/><circle r="1" fill="#96a2af" transform="matrix(-3.87875 -5.838 22.554 -14.98484 104.2 40.7)"/><ellipse cx="201" cy="44" fill="#526e8d" rx="101" ry="8"/><circle r="1" fill="#708398" transform="matrix(18.66832 -13.1338 5.71088 8.11743 231.1 71.2)"/><path fill="#79889a" d="M107.8 82.2l-68-19.5 47.6 8.6 35.6-9.4z"/><circle r="1" fill="#acb3bb" transform="matrix(-96.08324 56.52206 -6.5619 -11.15472 20 0)"/><ellipse cx="91" cy="103" fill="#2d292f" rx="14" ry="10"/><path fill="#9fa9b2" d="M228 51l1.3 6.8-41.4 7.3-1.2-6.9z"/><circle r="1" fill="#6a7d94" transform="rotate(-111 42.3 19) scale(9.55899 52.35928)"/><path fill="#3b5e80" d="M0 83h108v11H0z"/><ellipse cx="179" fill="#b8bec1" rx="55" ry="5"/><path fill="#677e99" d="M141.4 80.2l26.1.2 52.2-15.3-78.8 3z"/><circle r="1" fill="#5b636a" transform="rotate(104.1 19.3 123.5) scale(24.60853 53.77909)"/><circle cx="127" cy="93" r="20" fill="#4a4140"/><ellipse cx="170" cy="97" fill="#2b5071" rx="12" ry="11"/><ellipse cx="24" cy="125" fill="#596166" rx="102" ry="13"/><path fill="#8e897d" d="M255 82.4l-20.2-8.5 12.3-10.3 23.9 41.8z"/><path fill="#6f8296" d="M144 33h68v11h-68z"/><ellipse cx="200" cy="48" fill="#455e78" rx="49" ry="4"/><path fill="#5f6c75" d="M271 113l-133 51 22-49z"/><path fill="#96856a" d="M203 108h20v4h-20z"/><ellipse cx="240" cy="104" fill="#534c40" rx="27" ry="10"/><path fill="#10181d" d="M69 169h40v1H69z"/><path fill="#808d9c" d="M76.9 43.8l49.7-1.2-88.9 15.6L133-11.6z"/><path fill="#3f546d" d="M87 67l-35-5 61-8z"/><path fill="#556b82" d="M138 32h22v28h-22z"/><circle r="1" fill="#505b64" transform="matrix(62.0843 1.8501 -.3754 12.59713 198 164.8)"/><ellipse cx="169" cy="11" fill="#84919f" rx="84" ry="4"/><circle r="1" fill="#8994a0" transform="rotate(176.1 58.4 35.7) scale(44.83939 1.52657)"/><path fill="#8b9baa" d="M228 39l29-10-54-7z"/><path fill="#787267" d="M229 101l42 17-13-16z"/><path fill="#8998a6" d="M176.3 42.6l-8.7-12.2-24.1-6.4 48 5z"/><path fill="#8d7961" d="M266.1 88.4l4.9 6.8-46.7-2.5 9-4.4z"/><ellipse cx="209" cy="20" fill="#586e86" rx="116" ry="4"/><path fill="#36526d" d="M220.5 90.8l-84.1-11 21.8 23.6 57.6-4.5z"/><circle r="1" fill="#443c35" transform="rotate(84.2 74.4 175) scale(3.03506 7.17107)"/><path fill="#8997a5" d="M130 70l13-13-21 5z"/><path fill="#71879d" d="M223 52l37-5-28 35z"/><path fill="#232d30" d="M144.9 97.3l17.6 7-3.4 8.4-17.6-7z"/><path fill="#666d79" d="M12 165h37v5H12z"/><path fill="#a6aeb2" d="M110 26h20v8h-20z"/><path fill="#363a40" d="M143 88l-23-4 17-16z"/><path fill="#433b3f" d="M58 99h28v15H58z"/><path fill="#939da7" d="M159 58h71v6h-71z"/><path fill="#3c454c" d="M131.5 161.6l-57-8.9 15.6-1.1 12.5-1.1z"/><path fill="#617891" d="M109 72v12l-42-6z"/><path fill="#7d8fa1" d="M269-16l-5 24-55 10z"/><path fill="#97a0aa" d="M86.2 24.9l-29.4 1.5L111.2-16l21.7 7.8z"/><ellipse cx="138" cy="148" fill="#3c4750" rx="14" ry="3"/><path fill="#2e4a67" d="M0 97h59v16H0z"/><path fill="#5b6d84" d="M109 10h17v15h-17z"/><path fill="#2b3031" d="M231 109h19v5h-19z"/><path fill="#2e302e" d="M188 108l-18 1 24-13z"/><path fill="#48535a" d="M168 134h18v9h-18z"/><path fill="#4e647c" d="M120 65l31-29-57 25z"/><path fill="#283132" d="M156 164h22v2h-22z"/><path fill="#8a96a4" d="M-6 28L50 4l4 21z"/><path fill="#786958" d="M243.4 111.1l-20-19.2-9.7 8.6 32 5.8z"/><path fill="#4a555d" d="M60 119h101v5H60z"/><path fill="#645654" d="M144.4 95.4l-2.9 14.7-7.9-1.5 2.9-14.7z"/><path fill="#586e87" d="M21 58h47v7H21z"/><path fill="#3c444d" d="M21.4 163.5l22-.1-25.2-9.9-14.9.1z"/><path fill="#a8b0b7" d="M43.1 49.4L69.3-8l22 31.3-20.1-12.1z"/><path fill="#616975" d="M37.5 146.5l20 2-1 9-20-2z"/><circle r="1" fill="#8795a4" transform="matrix(.97158 3.70343 -23.02292 6.03995 22.9 39.7)"/><path fill="#464245" d="M95.5 121.6l18.4-48.1 10.5-5.5 6.8 8.9z"/><path fill="#546d87" d="M168.2 83.5l-26 1-.4-12 26-1z"/><path fill="#33516e" d="M63.3 94l11.2 7.7 25.4-16.2L23.6 89z"/><ellipse cx="187" cy="20" fill="#63788e" rx="18" ry="7"/><path fill="#666f78" d="M152 152l39 11h-26z"/><path fill="#4f657f" d="M29.8 28.2l1 4.9-24.6 4.7-1-4.9z"/><path fill="#b5bcbf" d="M159.9-4.3l20-.4.2 13-20 .4z"/><path fill="#64707a" d="M222 151l-50-4 29-19z"/><path fill="#384148" d="M71 154.7l-13.5-12.3-4.6 1.8 28.8 8.6z"/><path fill="#68727c" d="M174 138l-49.5 7-.5-3 49.5-7z"/><path fill="#3e362d" d="M230 86.6v-1l26-2.2v1z"/><path fill="#554a44" d="M201 114l-13.6-3.4L191 96l13.6 3.4z"/><path fill="#6f8194" d="M21.8 38.5L-16 82l44.6-5.7-18.2 10.1z"/><path fill="#576c82" d="M170 55.6l18.2-14.3-27.7.6-22.6 25z"/><path fill="#56636e" d="M202 130l66 55 3-57z"/><circle r="1" fill="#b7bdc2" transform="rotate(131.2 12 5.4) scale(8.6853 7.988)"/></g></g></svg>