<svg xmlns="http://www.w3.org/2000/svg" viewBox="0 0 1800 1800"><defs/><filter id="a"><feGaussianBlur stdDeviation="12"/></filter><rect width="100%" height="100%" fill="#08908b"/><g filter="url(#a)"><g fill-opacity=".5" transform="translate(3.5 3.5) scale(7.03125)"><circle r="1" fill="#42f6ea" transform="rotate(163.7 55.5 72.3) scale(234.99034 171.75052)"/><path fill="#c3f6dc" d="M259 75.7l-29.5-39.1L251 20.3l29.5 39.1z"/><circle r="1" fill="#4ad2d5" transform="matrix(32.56341 -32.11189 35.58477 36.08513 31.3 218.3)"/><circle cx="133" cy="101" r="82" fill="#0bbab2"/><circle r="1" fill="#6be1cc" transform="matrix(-12.1166 13.43597 -37.9416 -34.21586 243.2 157.9)"/><circle r="1" fill="#91ecd4" transform="matrix(8.23834 -30.8806 5.24247 1.39859 215.8 16.5)"/><circle r="1" fill="#98dcc7" transform="matrix(-.34025 -11.6659 6.2317 -.18175 226 64.2)"/><circle r="1" fill="#27a7a0" transform="matrix(48.78444 -12.72585 4.6041 17.64981 229.7 207.1)"/><path fill="#16e6d4" d="M127 106l43-52-106 59z"/><path fill="#fff" d="M6 151l-22-17 15-2z"/><ellipse cx="188" cy="83" fill="#1db5aa" rx="32" ry="65"/><circle r="1" fill="#94f3da" transform="matrix(5.8036 7.92934 -10.89619 7.97507 248.3 163)"/><path fill="#9eebd6" d="M230.7 89.3l2.7 1.1-28 66.3-2.8-1.1z"/><circle r="1" fill="#14aba7" transform="rotate(123.5 43.4 128.7) scale(18.89576 37.52136)"/><ellipse cy="114" fill="#81ebf7" rx="8" ry="11"/><circle r="1" fill="#49dfde" transform="matrix(-6.5459 8.07287 -24.27824 -19.68605 67.3 221)"/><path fill="#19e0d1" d="M90 33L40 22 28 73z"/><circle cx="75" cy="158" r="50" fill="#19cac2"/><circle r="1" fill="#43c1b4" transform="rotate(-158.3 147 88.3) scale(16.59808 69.00401)"/><ellipse cx="240" cy="114" fill="#2fc0b1" rx="16" ry="47"/><path fill="#fdffff" d="M209 169h2v16h-2z"/><path fill="#b9f1fc" d="M33 228.3l3-.4 3 23.8-3 .4z"/><circle r="1" fill="#46c3b1" transform="rotate(-58.7 126.9 -212.4) scale(32.1766 17.74013)"/><path fill="#a0f4ea" d="M-11 216.4l-5-34.8 23.1 4.2L-8 221.3z"/><circle r="1" fill="#10aba7" transform="matrix(38.61355 -28.23673 8.5683 11.7171 165 95.4)"/><circle r="1" fill="#0eb6b2" transform="matrix(-5.11506 12.2921 -28.2522 -11.75648 105 220.5)"/><path fill="#43beb1" d="M271 92l-38-54-5 52z"/><path fill="#24b1b4" d="M72 271l-30-46 70 23z"/><path fill="#7ed3cf" d="M177.4 181.2l1.9 15.5-3.4 3-6.2 3.3z"/><path fill="#09c0b7" d="M212 136.6l10 .9-2 23.9-10-.9z"/><circle r="1" fill="#1cccbe" transform="rotate(62 56.2 145.5) scale(41.30095 30.37167)"/><ellipse cx="39" cy="116" fill="#12bab5" rx="29" ry="22"/><circle r="1" fill="#14bbb3" transform="matrix(43.45029 35.81408 -20.5087 24.88152 103.2 44)"/><path fill="#8be4d2" d="M222 109l-9 8 13 25z"/><circle r="1" fill="#2cc9c5" transform="rotate(-34.8 296 39.6) scale(28.19703 36.5361)"/><path fill="#89eed9" d="M201.1 35.9l23.7-40.6-11.6 43.5-2.7-24.4z"/><circle cx="198" cy="201" r="23" fill="#1cb2ab"/><path fill="#a1ffe9" d="M170.4 12.7l4.5 2.4-3.3 6.2-4.5-2.4z"/><path fill="#94ebd7" d="M244.2 231.6l14.9 13.3-1.3 1.5-14.9-13.3z"/><circle r="1" fill="#82dee8" transform="matrix(-2.60201 1.07247 -4.65165 -11.28575 50.9 248)"/><path fill="#83e4d2" d="M251 19h5v67h-5z"/><circle r="1" fill="#28d5c9" transform="rotate(-105.2 167 74.4) scale(25.72505 29.16027)"/><path fill="#94f8e6" d="M236 153h6v11h-6z"/><circle r="1" fill="#19d0c5" transform="rotate(-86.1 164.3 34.2) scale(12.06278 53.04738)"/><path fill="#1ec2b6" d="M252.8 146.7l-23.5 7-5-47.1 13.7-5.2z"/><path fill="#8ad4c7" d="M231 240l16 31h14z"/><path fill="#24b4a9" d="M249 59l-29-25 19 44z"/><path fill="#4adbda" d="M62 188l-13 36 35 8z"/><path fill="#2bc3b2" d="M213.7 11.8l-.6 3.2-56.6 1.2 67.2-23.3z"/><path fill="#3acfce" d="M132.8 180.5l6.8-19.7h9.6l-11.8 36.3z"/><path fill="#fff" d="M-.9 199.5l.8-11h1l-.8 11z"/><path fill="#1eb3b2" d="M91.9 176.5l-23.2-10.6-32.4 17.5 37.9 2.7z"/><path fill="#d8fcfc" d="M3.5 155.5v-10.1l-13.3-17.8-6.2-39.8z"/><ellipse cx="202" cy="21" fill="#3ecdbc" rx="5" ry="23"/><circle r="1" fill="#25b7ab" transform="rotate(-128.1 128.2 -4.4) scale(13.07077 27.45044)"/><path fill="#30cbc7" d="M61 125l40 53-39-22z"/><path fill="#20afa5" d="M225.1 52.8l-13.3 23.9-31.9 5.4 47.9-58z"/><circle r="1" fill="#30d4ca" transform="matrix(-13.52949 -5.38404 7.53186 -18.92673 0 23.8)"/><path fill="#1fe4d5" d="M118.7 106.9H73l13.1-.5 44.3-24.5z"/><path fill="#45ccc0" d="M203 135h6v49h-6z"/><path fill="#99ead9" d="M223 131h4v22h-4z"/><path fill="#13c8bd" d="M230 144l1 30-7-12z"/><circle r="1" fill="#18decb" transform="matrix(5.64093 -11.35352 9.4239 4.6822 66 38.2)"/><circle r="1" fill="#3ec2c2" transform="matrix(27.90622 22.598 -17.90007 22.10475 2 236.1)"/><ellipse cx="98" cy="63" fill="#14b3af" rx="33" ry="19"/><path fill="#20cfc5" d="M109.2 59.1l-26.7 13 29.3-27.3 39.4-46.5z"/><circle r="1" fill="#53dadf" transform="matrix(-6.90799 -11.02502 2.13694 -1.33895 115.9 250.2)"/><path fill="#14b2ad" d="M120.7 199.3l30.4-60.1 67.5 9.4-101.7 2.4z"/><path fill="#47d0d3" d="M-9.2 48.8l21.4 57.3L-16 173V65z"/><ellipse cx="42" cy="213" fill="#20c0bb" rx="6" ry="19"/><path fill="#1ea9a5" d="M198 226l38-10-34-38z"/><path fill="#2edcd2" d="M14.8 164.5l21.6-7.8 6.8 18.8-21.6 7.8z"/><path fill="#7addcc" d="M240 17.5l17.5 43.1-22.4-14-2.1-11.4z"/><path fill="#13d2c5" d="M90 154l16-23 52 7z"/><path fill="#84dfcf" d="M221 58h10v14h-10z"/><path fill="#5fd8de" d="M57.7 271l-26.1-58.1 2.2 37 9.6-16.9z"/><circle r="1" fill="#10cfc0" transform="matrix(30.47712 -10.53354 3.26388 9.44353 138.3 77.9)"/><path fill="#35c8ca" d="M9.8 108.9l-19 47.9 33-73.1 15.9-1.5z"/><path fill="#75dbcb" d="M239 77h6v7h-6z"/><path fill="#87e3cf" d="M231 9.2l7-1.3 1 4.9-7 1.3z"/><circle r="1" fill="#2cc4b6" transform="matrix(46.42925 -21.0105 5.80682 12.83198 206 243.3)"/><path fill="#91e1d2" d="M198 102.5l.8.6-4.7 6.4-.9-.6z"/><path fill="#12bbb3" d="M73 118h28v33H73z"/><path fill="#19c8c2" d="M22 56l25 48 28-27z"/><ellipse cx="175" cy="149" fill="#14a8a5" rx="21" ry="9"/><path fill="#1ea9a2" d="M245.5 92.5L229 111.4l-4.6-4L241 88.7z"/><path fill="#86e7d5" d="M210 19l11 3-7 14z"/><circle r="1" fill="#82e5d4" transform="rotate(112.5 73.9 130.2) scale(24.44509 1)"/><path fill="#25bbb0" d="M218.5 32l17.7-15.6.4-22.1L271 5.7z"/><circle r="1" fill="#81ecd8" transform="matrix(-.85748 -4.05144 25.24615 -5.34331 255 164.8)"/><path fill="#faf9f4" d="M177.4 186.7l-1.8 6.8-1-.2 1.8-6.8z"/><path fill="#60cfc8" d="M173 187h3v34h-3z"/><path fill="#1fbfb1" d="M185.6-16l6.6 61.7L228.1-16l-57.4 68.8z"/><path fill="#18beb7" d="M93.2 198.4l112.1 31.2-70.9-3.6-10.2 30.7z"/><path fill="#31d9d0" d="M61.4 217.1l-9.7-10 20.9-20.2 9.7 10z"/><path fill="#54d7d8" d="M6 216l16 20-16-4z"/><path fill="#7be6eb" d="M75.2 220.8l-3.9.4-3.1-12.7 6.3 6z"/><path fill="#0eb2ad" d="M167.4 53.2l-58.1 29.2-16.7 21.7 1.1-30.3z"/><path fill="#1dc1b8" d="M217.4 107.6l-14 50.9-60.9-51.9 55 21.7z"/><path fill="#51dcda" d="M137 179h4v19h-4z"/></g></g></svg>