<svg xmlns="http://www.w3.org/2000/svg" viewBox="0 0 1800 1200"><defs/><filter id="a"><feGaussianBlur stdDeviation="12"/></filter><rect width="100%" height="100%" fill="#3b4553"/><g filter="url(#a)"><g fill-opacity=".5" transform="translate(3.5 3.5) scale(7.03125)"><circle cx="92" cy="16" r="231" fill="#cdccca"/><circle r="1" fill="#fff" transform="matrix(-1.53517 24.74363 -243.35106 -15.09824 135.2 13.4)"/><ellipse cx="141" cy="103" fill="#353d4f" rx="144" ry="52"/><ellipse cx="134" cy="168" fill="#f4f7ee" rx="255" ry="8"/><ellipse cx="83" cy="8" fill="ivory" rx="255" ry="20"/><path fill="#faffff" d="M222.5 125.4l1 14-46 3.2-1-14z"/><ellipse cx="125" cy="59" fill="#555665" rx="38" ry="34"/><ellipse cx="54" cy="115" fill="#3d3f44" rx="160" ry="15"/><ellipse cx="247" cy="157" fill="#221900" rx="63" ry="5"/><path fill="#eaede6" d="M0 151h70v14H0z"/><ellipse cx="168" cy="130" fill="#b2c0c8" rx="53" ry="5"/><circle r="1" fill="#132121" transform="rotate(2.5 -3333.5 425.2) scale(14.87261 6.9472)"/><ellipse cx="56" cy="133" fill="#c0caca" rx="42" ry="4"/><ellipse cx="118" cy="142" fill="#222f38" rx="51" ry="8"/><circle r="1" fill="#767e92" transform="rotate(-56.4 191.6 -174.7) scale(21.93602 67.6712)"/><path fill="#113049" d="M229 151.9l-13.6-17.3L239 116l13.6 17.3z"/><ellipse cx="238" cy="18" fill="#e7e6db" rx="103" ry="26"/><circle r="1" fill="#e8e5d9" transform="matrix(-49.45699 0 0 -10.30259 69.2 26)"/><ellipse cx="25" cy="169" fill="#736f6f" rx="78" ry="4"/><path fill="#e6ede8" d="M30 132l-2 9 30 1z"/><circle r="1" fill="#71727c" transform="rotate(-108.4 58.7 5.8) scale(24.34562 78.05497)"/><path fill="#c0b3af" d="M124 113h105v2H124z"/><path fill="#727b8f" d="M229 93l-35 6 19-80z"/><ellipse cx="115" cy="123" fill="#282e3a" rx="52" ry="7"/><circle r="1" fill="#969faa" transform="matrix(-10.68296 11.45607 -24.39836 -22.75184 34.3 50.5)"/><path fill="#3b464d" d="M47 135h30v16H47z"/><path fill="#4a505c" d="M62 80h129v28H62z"/><path fill="#b2adae" d="M0 116h84v2H0z"/><path fill="#b3b3b8" d="M139 151h56v3h-56z"/><path fill="#e0d6c8" d="M176.2 106.2l.4 3-20.8 2.6-.4-3z"/><circle r="1" fill="#7b96b4" transform="matrix(52.83335 -7.82385 .99491 6.7185 255 84.1)"/><ellipse cx="179" cy="51" fill="#6f717e" rx="25" ry="13"/><ellipse cx="190" cy="163" fill="#c7cbca" rx="237" ry="4"/><path fill="#a8adae" d="M88.8 143.3l8.8-13.9H73.8l3.5 7.1z"/><ellipse cx="234" cy="157" fill="#403e23" rx="60" ry="4"/><path fill="#595d6b" d="M116 27h28v84h-28z"/><path fill="#ede8dd" d="M147 20h59v18h-59z"/><path fill="#adb4b7" d="M57.4 147l9.9-6.5H52.5l-38.3-5.3z"/><circle r="1" fill="#6d6460" transform="rotate(-172.1 4.9 26.1) scale(24.89704 7.63392)"/><path fill="#bbc3c7" d="M217.5 132.2l-61.5-1.4 82.5 19.7-12.6 3.8z"/><path fill="#dfeffb" d="M240 125h16v2h-16z"/><path fill="#e9eae0" d="M231.1-11.8l39.9 59-36.8-10.7-20.4 15.4z"/><path fill="#384252" d="M151 114h105v11H151z"/><circle r="1" fill="#333b41" transform="matrix(-57.92978 3.67281 -.26767 -4.2218 17.8 126.4)"/><ellipse cy="148" fill="#505158" rx="188" ry="3"/><circle r="1" fill="#5d6272" transform="matrix(-26.4179 7.22712 -2.1672 -7.92197 144.9 151.1)"/><ellipse cx="46" cy="7" fill="#ebede5" rx="31" ry="27"/><path fill="#00273f" d="M149.7 132.2l2.6 9.3 21.3-2.6-26.1-6.7z"/><path fill="#e1dfd8" d="M91.7-16L79.4 41.2 55.2 26.7l63.6 5.5z"/><path fill="#807c85" d="M53 31h19v11H53z"/><path fill="#71727e" d="M271 71L137 60l52-22z"/><path fill="#3d3f2f" d="M39 59h11v5H39z"/><path fill="#102230" d="M96.2 125.2l16.1 20.1-19 .7 4.3-11.3z"/><path fill="#dedfd8" d="M212 45L91 11l75-27z"/><circle r="1" fill="#6b6864" transform="rotate(23.2 -205.8 86.7) scale(38.30527 12.26292)"/><path fill="#343747" d="M195 101h24v9h-24z"/><circle r="1" fill="#a0a6b1" transform="matrix(1.83878 -5.07904 46.8346 16.95563 12 39.9)"/><path fill="#ced0cd" d="M24 155h74v2H24z"/><ellipse cx="249" cy="112" fill="#a79d9d" rx="46" ry="2"/><circle cx="4" cy="137" r="4" fill="#d4d4c0"/><path fill="#535e6d" d="M229 80h12v48h-12z"/><path fill="#cdbdb1" d="M156.5 114.1l-30.9 2.7v-1l30.8-2.6z"/><ellipse cx="188" cy="143" fill="#707785" rx="33" ry="3"/><path fill="#878182" d="M208 30h9v28h-9z"/><path fill="#4c4e5a" d="M209.9 74.8l-42-15.2L141 98.3l-5.3 6.6z"/><ellipse cx="165" cy="132" fill="#c2cfd7" rx="31" ry="2"/><path fill="#000c1c" d="M127 138h22v4h-22z"/><path fill="#6f788d" d="M81 33h66v11H81z"/><path fill="#dedfd7" d="M148.1 35.3l17.7 8.8L200.2-16h-88.4z"/><ellipse cx="175" cy="165" fill="#c7ccca" rx="40" ry="7"/><ellipse cx="120" cy="102" fill="#808591" rx="10" ry="5"/><path fill="#969da8" d="M15.5 42.7L7.9 76l44.5-37.2-26.2 33.3z"/><path fill="#004776" d="M222 128.7l.5-3 31.5 5.6-.5 3z"/><path fill="#577196" d="M151.8 92.1l32 14.2 17-29.8-1.8 25.1z"/><path fill="#313e4f" d="M246.9 143.9l-22.3 7.4-1.2-16.9 17.6-12.6z"/><path fill="#9198a1" d="M223.3 89.2l-4.6 37.9-93.5 2.1 98.5 2.4z"/><path fill="#d4e7f2" d="M247.9 138.6l.3-3 14 1.8-.4 3z"/><path fill="#798ba7" d="M191 53.3l-49.1 6.6h62.2l-9.8-20z"/><path fill="#74737a" d="M75 38h29v26H75z"/><path fill="#444b4b" d="M47.9 96.5l-13.1-4.8 106.7-1.1-72.2-5.4z"/><path fill="#4f4e4d" d="M119.1 63.3L105.7 50l9.2-9.2L128.3 54z"/><path fill="#727880" d="M105 127h34v5h-34z"/><ellipse cx="73" cy="163" fill="#e1e6e7" rx="53" ry="2"/><path fill="#0d1c29" d="M80 143l-11-9-1 15z"/><path fill="#1e2f37" d="M22.5 138.7l.6 5-45.6 5.6-.6-5z"/><path fill="#71717e" d="M257.5 43.9l-33.9-2.2 4.6.2-34 36.7z"/><ellipse cx="26" cy="134" fill="#c6cecc" rx="19" ry="2"/><path fill="#e3e3dc" d="M66-16l3.4 56-8.6-15.4 53.2 8z"/><path fill="#a5a4a6" d="M63 151.6L54.9 185 30 175.4l63.2-24.2z"/><path fill="#637793" d="M270 155l-12-17-22 1z"/><path fill="#8da6c5" d="M235 92l28-14h-20z"/><path fill="#676e80" d="M172 40l-44 39 24 1z"/><path fill="#948e99" d="M91 114h17v3H91z"/><path fill="#353f44" d="M87 126l23 14 16-6z"/><path fill="#696a6e" d="M115.9 158l-3.1-17.7-4.1-13.9 21.4 32.1z"/><path fill="#c1bcb2" d="M0 117h22v2H0z"/><path fill="#b0c5d1" d="M261.9 121l7.1 13.8-20.7-7.8 22.7-8.4z"/><path fill="#e4e3db" d="M216.9-16l-11.6 62.2-8.6-2.3L181.9 26z"/><path fill="#938977" d="M66 134l4 14-8-1z"/><path fill="#eae6da" d="M72 20h13v18H72z"/></g></g></svg>