<svg xmlns="http://www.w3.org/2000/svg" viewBox="0 0 3168 3168"><defs/><filter id="a"><feGaussianBlur stdDeviation="12"/></filter><rect width="100%" height="100%" fill="#333267"/><g filter="url(#a)"><g fill-opacity=".5" transform="translate(6.2 6.2) scale(12.375)"><ellipse cx="189" cy="195" fill="#d0d09c" rx="101" ry="201"/><circle r="1" fill="#6d6b32" transform="matrix(-59.99635 247.84156 -72.68849 -17.5961 44 116.2)"/><circle r="1" fill="#959590" transform="rotate(-79.9 152.8 80) scale(32.03396 63.52309)"/><circle r="1" fill="#100800" transform="rotate(-87.2 202.9 55) scale(17.98904 55.10899)"/><circle r="1" fill="#b1bec1" transform="matrix(48.99721 65.49593 -25.31371 18.93708 173.5 0)"/><path fill="#1d1b10" d="M143 8l42 73-62-50z"/><ellipse cx="161" cy="130" fill="#9791a1" rx="66" ry="65"/><path fill="#ffaf3f" d="M141 108l53 1-51 53z"/><ellipse cx="17" cy="216" fill="#272924" rx="60" ry="14"/><circle r="1" fill="#393d34" transform="matrix(-6.89886 -8.11544 33.6751 -28.6269 218.4 199.5)"/><circle cx="55" cy="48" r="68" fill="#353733"/><path fill="#433a0b" d="M255.5-16l13.8 104.6-44.8-83.2-4.7-15.7z"/><path fill="#bbb5ab" d="M76 218l29 22-103 4z"/><path fill="#b4bac9" d="M35 194h92v11H35z"/><path fill="#242725" d="M152 76l-35-3L74 5z"/><circle r="1" fill="#493a28" transform="rotate(-125.7 44.2 62.6) scale(70.81847 19.96137)"/><circle r="1" fill="#aeb2b9" transform="matrix(-1.7137 7.14708 -42.0225 -10.07598 9.4 186.5)"/><circle r="1" fill="#ebf2f8" transform="rotate(38.9 -10.2 227) scale(24.13796 3.31945)"/><path fill="#bdc7c6" d="M241.9 135.7l29.1 55-6.4-80.8-21.8-17.2z"/><path fill="#a39881" d="M102.6 177.3l-36.7-11.5-7.9-20.6 107.5 39.4z"/><circle r="1" fill="#a19887" transform="matrix(12.11765 28.52332 -35.54972 15.1027 236.3 228.6)"/><path fill="#2b3035" d="M34.5 182.2l78.3-.9-4.7 9.6-18.6 6.4z"/><path fill="#505956" d="M195 231l-86-43 43 1z"/><circle r="1" fill="#4d5a52" transform="rotate(72.8 27 225.3) scale(42.51803 6.77443)"/><circle r="1" fill="#b6ac9d" transform="matrix(-2.08807 6.3985 -38.51122 -12.56768 178.8 231.4)"/><path fill="#37352d" d="M72 205l-50 28 77-19z"/><circle r="1" fill="#6a6cc2" transform="matrix(-28.78485 28.01809 -5.65481 -5.80957 180.7 134.8)"/><circle r="1" fill="#5d5ca7" transform="matrix(2.62871 -8.58123 29.91081 9.16265 173.9 90)"/><path fill="#484d4c" d="M237 181l-69 19 74 13z"/><path fill="#3c3930" d="M74.1 250.9l67.7-22.3 16.7 16.1-44.9 26.3z"/><path fill="#444641" d="M102 159l-118-42 87-81z"/><path fill="#6766c7" d="M161.5 67.2l-44 50.3 22.9 56.7-4.2-60.3z"/><path fill="#e0a250" d="M147 96l15-3-27 40z"/><path fill="#8f8f7d" d="M212.5-5.9l12.4 7.3 36.4 90.2-91.2-103.4z"/><circle r="1" fill="#4d3c2b" transform="matrix(-6.21409 -29.22152 17.9462 -3.81634 15.3 157.6)"/><path fill="#a09e9a" d="M39 241.6l35.1-17.1 8.8 18-35 17z"/><circle r="1" fill="#a6b1bd" transform="matrix(-13.64923 -11.06052 14.9009 -18.38844 187.7 37.9)"/><circle r="1" fill="#68523c" transform="rotate(-150.3 43.9 72.5) scale(30.89459 20.77899)"/><path fill="#2c2d28" d="M-16 23L7-16l76 52z"/><path fill="#5a5a56" d="M29 22L0 38l102 67z"/><circle r="1" fill="#c7cccf" transform="matrix(2.31858 -2.17321 17.82216 19.01434 255 230.2)"/><circle r="1" fill="#8e96a0" transform="matrix(7.5749 -20.6994 25.07918 9.17768 125.3 170.5)"/><path fill="#aaa8a4" d="M131.5 232v-30h13v30z"/><path fill="#21221f" d="M-16 96l49-11-46-37z"/><ellipse cx="14" cy="215" fill="#4d4e4a" rx="42" ry="19"/><path fill="#cbcece" d="M149.2 56.4l-21.8-16.5 14.7 25 17 2.4z"/><path fill="#7c8d94" d="M106.1 87.4l-13.5 44.4 28.1 37.4 2-94.9z"/><path fill="#414138" d="M135.5 41.2l10.1-25.7L127-16l-7 60.3z"/><path fill="#666c63" d="M128 37L92 0l18-16z"/><ellipse cx="201" cy="70" fill="#848f8c" rx="34" ry="14"/><path fill="#969ea5" d="M191 84l-4-64-60-36z"/><ellipse cx="161" cy="187" fill="#8d9e9d" rx="16" ry="18"/><path fill="#99918b" d="M202 224l37-24-22-1z"/><path fill="#796c54" d="M145.4 212.6l-16.5.4-38.6 7 28.8 8.3z"/><path fill="#353431" d="M175.8 214.6l-2 4.6-27.6-11.8 2-4.6z"/><path fill="#3e3633" d="M232.7 17L249 9.1 271.3 55 255 62.9z"/><path fill="#3f3c36" d="M21.7 280.3l-4.3-17.5 132.9-33.1 4.3 17.5z"/><circle r="1" fill="#3e2f23" transform="matrix(-2.22197 9.54836 -36.7214 -8.54534 24.2 150.2)"/><path fill="#adafb0" d="M158.8 217.5l-47 13.4-31.5-11.5 28.9 19.1z"/><path fill="#827a72" d="M170 242l-17-34 2 45z"/><path fill="#252522" d="M25 258l24-4-38-13z"/><path fill="#776d61" d="M224 271l-58-31 105 17z"/><ellipse cx="82" cy="68" fill="#4d4d48" rx="37" ry="22"/><path fill="#352c26" d="M144.7 33l8.6-5 18 31-8.6 5z"/><ellipse cx="15" cy="233" fill="#ded7cd" rx="4" ry="3"/><path fill="#696c6c" d="M11.8 89.2l16 19.2-7.6 6.4-16-19.2z"/><ellipse cx="187" cy="184" fill="#6d7f7e" rx="14" ry="23"/><path fill="#2b2b25" d="M136 188h7v12h-7z"/><circle r="1" fill="#836d55" transform="matrix(19.89136 5.74178 -.89157 3.08867 30.7 169.7)"/><path fill="#575d5b" d="M-3.3 268.6l13.8-69.2 39.4 23.3-28.2-2.9z"/><path fill="#8a7a63" d="M29 136l11-5 24 21z"/><path fill="#b9bac1" d="M-7 188.2l1-4.8 49 10.4-1 4.8z"/><path fill="#647571" d="M203 129l13-36 20 16z"/><path fill="#676ab7" d="M169 116l6-37-16 26z"/><path fill="#cb9c61" d="M140 107l1 47 22-68z"/><circle r="1" fill="#95a4a0" transform="matrix(31.87962 2.05833 -.43685 6.76603 202 158.2)"/><circle r="1" fill="#474944" transform="rotate(158.1 97.5 117.2) scale(21.65405 8.95531)"/><path fill="#a9afb3" d="M236.3 55.2l-16.4 21.3 4.4 2.7-42.6-58.9z"/><path fill="#757b7e" d="M194 55.2l19.9 7.7 13-2.5-109.3 26.5z"/><path fill="#b0b9c1" d="M148-11l65 59-40-63z"/><circle r="1" fill="#353536" transform="matrix(5.30543 -1.96254 7.47245 20.20065 89.7 133.9)"/><path fill="#635f59" d="M50.5 241.8l10.3 15.5-12.7 11.6 15-31.4z"/><path fill="#8d857c" d="M145.2 206.5l-128.5-7.6 78.6 13.6 30.4 10.7z"/><path fill="#aeb4b4" d="M224.1 6.9L220.6-14l-22.9 60.8 3.1-37.1z"/><path fill="#453d36" d="M223 206l19 8-6-10z"/><path fill="#7673c3" d="M108.8 113.7l45.1 58.6 20-16.1-34.8 9.7z"/><path fill="#8f9191" d="M121.8 132.8L91.2 128l3-18.8 30.6 4.8z"/><path fill="#2a2625" d="M168 246l44 11-64 14z"/><path fill="#cf9d5d" d="M171 107l29-2-25 25z"/><ellipse cx="116" cy="202" fill="#b7bdc5" rx="19" ry="4"/><path fill="#383636" d="M95 176l-49 12 62 2z"/><path fill="#50504a" d="M76 140l28-41L70 2z"/><path fill="#afaba2" d="M67.4 228.1l24-13.2-5 16.2-57.6 4.4z"/><path fill="#454441" d="M114.3 229.8L113 226l22.7-7.8 1.3 3.8z"/><path fill="#788083" d="M16.8 180.4L-16 162.2l13.3 17.1 88.5 21.4z"/><path fill="#42433d" d="M201.5 197.4l8.7-.9 15.1-4.4-37.8 42.3z"/><path fill="#afb0b1" d="M153.5 217.7l-4.6-9.3-29.4 28.3 16.1-11.5z"/><path fill="#a4aab5" d="M51 198.9l25.5-8.3 24.3 13.8-33.7-2.6z"/><path fill="#6d6855" d="M232.1 84l13.7-33.9-21 26.1 24.8 1.7z"/><path fill="#b0a699" d="M149.4 228.6l32.1-8.1-.6 14.1-16.4 1.5z"/></g></g></svg>