<svg xmlns="http://www.w3.org/2000/svg" viewBox="0 0 1800 1012"><defs/><filter id="a"><feGaussianBlur stdDeviation="12"/></filter><rect width="100%" height="100%" fill="#3c4857"/><g filter="url(#a)"><g fill-opacity=".5" transform="translate(3.5 3.5) scale(7.03125)"><circle r="1" fill="#af8874" transform="rotate(169.4 71.9 60.4) scale(245.37618 43.13734)"/><ellipse cx="58" cy="24" fill="#0b0500" rx="112" ry="25"/><path fill="#e7ae7b" d="M14 158L26 42l-42 5z"/><path fill="#fffffc" d="M149 86L98 97l51 13z"/><circle r="1" fill="#441718" transform="matrix(28.465 35.40333 -26.1746 21.04492 181.1 61.1)"/><circle r="1" fill="#0a141b" transform="rotate(-154.2 37.1 37.5) scale(32.06388 16.26853)"/><circle r="1" fill="#5e9984" transform="matrix(101.77778 5.69044 -1.22304 21.875 188 0)"/><path fill="#bdc1c0" d="M129 122L20 147l131 11z"/><path fill="#df0025" d="M186 69h21v33h-21z"/><path fill="#917867" d="M123 23l22 39-88 79z"/><ellipse cx="184" cy="37" fill="#091101" rx="54" ry="12"/><circle r="1" fill="#e6ac81" transform="matrix(6.77054 .70962 -1.41807 13.52983 47.5 56.6)"/><path fill="#ad988d" d="M254.4 20.8L269 33l-35.4 42.2L219 63z"/><path fill="#312519" d="M62 100l28 46 11-25z"/><circle r="1" fill="#466279" transform="rotate(-111.1 155.2 -20.5) scale(22.89404 74.33234)"/><ellipse cx="20" cy="18" fill="#0e1006" rx="92" ry="21"/><path fill="#b4bda5" d="M83 89h82v19H83z"/><path fill="#0c0e0b" d="M132 118h54v8h-54z"/><path fill="#4a515a" d="M156 48l46 60L99 70z"/><path fill="#baa187" d="M183 52h11v28h-11z"/><path fill="#919aa7" d="M237.2 107.3l3.3 8.8-43.1 22.1-17.6-14.4z"/><path fill="#fff1e2" d="M141 84h10v33h-10z"/><circle r="1" fill="#372d24" transform="matrix(12.31506 -42.94772 18.82518 5.39803 74.2 62.5)"/><ellipse cx="81" cy="54" fill="#e3a786" rx="6" ry="9"/><circle r="1" fill="#aab4af" transform="matrix(17.2308 25.93443 -1.61843 1.07528 124.5 31)"/><path fill="#040700" d="M126.5 37.3L100.6 56 89.5 40.7 115.4 22z"/><path fill="#d1ae97" d="M66.8 119.6L49.4 118l-.3 40h44z"/><circle cy="109" r="36" fill="#a28667"/><path fill="#e9f4f4" d="M112 119h8v24h-8z"/><ellipse cx="121" cy="77" fill="#88373b" rx="19" ry="17"/><path fill="#a0e8c1" d="M185 113l2-19-10-11z"/><circle r="1" fill="#142a3a" transform="rotate(177.1 84.8 42) scale(6.76654 36.13762)"/><path fill="#3b2121" d="M268.9 43.6l-69.3-12.2 45.5 30.2-3.2-25.2z"/><path fill="#b98268" d="M148.9 49l-1.8 7.3 9.5 19.6 6.4-21.2z"/><path fill="#a99284" d="M205 53l7 10.5 41.2 19.8-44.1-40.2z"/><path fill="#9f825f" d="M82 102h58v14H82z"/><path fill="#95aca6" d="M117.9 95.3l-41.1 4 15.1-21.4 25.6 14.7z"/><path fill="#2e2e2d" d="M13.1 112.4l96.9 5.7 1.1 15.5L35 111.9z"/><path fill="#20211d" d="M102.2 51.7L5.8-2l.9 63.5-22.7-21z"/><path fill="#debfb0" d="M240.7 62.6L226 53.9l5 28.3 4.8-7.3z"/><path fill="#a7aba7" d="M148 125h16v18h-16z"/><path fill="#b9937d" d="M19.1 38.8l-8.9 5.5-26.2 82.2 43.9-68.7z"/><path fill="#213a53" d="M178 97.6l.6-39.6-41.4 30.7-4.4-34.6z"/><ellipse cx="232" cy="12" fill="#5c7f76" rx="53" ry="17"/><path fill="#432b31" d="M215.1 112.4l6.9-5.1-22.5-8.3-18.3 21z"/><path fill="#0d0f09" d="M55 37h17v30H55z"/><path fill="#131410" d="M21 80l27-96h32z"/><path fill="#67676b" d="M71 133.3l44.6 5.6-6.2-16.2L7.9 143z"/><path fill="#2a1f10" d="M110.2 79.2l-6.8 1.5-9.6-41.9 6.8-1.5z"/><path fill="#ac0220" d="M211.6 69.2l-2 13.9-23 24.3 13.2-43.2z"/><path fill="#899884" d="M107.1 98.4L97 119l1.6-64.6L80.9 106z"/><path fill="#bacdd4" d="M123.9 81.8l3.4 2-.4 23.2-4.8-26.5z"/><path fill="#e3ae9a" d="M191.6 158l15.4-29.8-12.7-8 12.4 37.8z"/><path fill="#243136" d="M37 134l-53 20 88 4z"/><path fill="#da8339" d="M93 115h91v2H93z"/><path fill="#4c2913" d="M26 106l5 11h31z"/><path fill="#a99589" d="M238.2 31.7L258.6-16l-8.5 21.2L271-10.4z"/><path fill="#433b2f" d="M218 37h6v40h-6z"/><path fill="#848c8d" d="M146.6 57.4l-26.3-7.8L131.7 35l9.2 36.1z"/><path fill="#ba917a" d="M52 67l4-12-24-1z"/><path fill="#10140f" d="M122 14l29 3-4 43z"/><path fill="#fbf0eb" d="M103 87h6v12h-6z"/><path fill="#80837d" d="M-6-14.3l37 64-1 .6-37-64z"/><path fill="#9f8776" d="M0 118h61v17H0z"/><path fill="#624b45" d="M122.2 114l22.8 7.2-11.8-24.6-11.9 47.2z"/><path fill="#f3c3a2" d="M64 115l-1-9-7 3z"/><path fill="#181f1a" d="M120.1 12.9l46.7 44.9 5.4 5L214.9 29z"/><path fill="#242d39" d="M78.5 92.1l10.8-14.3-56.6 13.1 50.8 22.5z"/><path fill="#465869" d="M240.4 65.3L246 48l-15.6 110L271 86.3z"/><ellipse cx="250" cy="58" fill="#8aa0a5" rx="4" ry="18"/><path fill="#b48d75" d="M108 54.3l5.2-2.9L124 71.7l-5.2 2.9z"/><path fill="#0c0a04" d="M192.5 114.8l.6 4-25.6 4.4-.6-4z"/><path fill="#afc6ba" d="M90.8 96.6l-8.9 14.2 2.4 4.4 6.4-.8z"/><path fill="#575748" d="M92 91h6v19h-6z"/><path fill="#64483b" d="M78.7 5.4l17 79.3L79.9-16l-.7 25.8z"/><path fill="#55514c" d="M239.7 119l13.5 23.4-39 22.5-13.4-23.3z"/><path fill="#3c2f28" d="M128.5 69.7l-18.1-42.3-3.3 8.4 24.5 56.9z"/><path fill="#b1836c" d="M87 43L75 53l2 15z"/><path fill="#20201b" d="M76 117h35v7H76z"/><path fill="#6d4a2f" d="M150 84h1v35h-1z"/><path fill="#4f5e6c" d="M222 149l-68-15 26-13z"/><path fill="#152a49" d="M141.5 67.6l23.1 14-4 6.8-23.2-14z"/><path fill="#a9aeb1" d="M68.6 150.1l64.5 7.9-3.7-39.1 8.7 10.8z"/><path fill="#8a9492" d="M133.6 67.3l-7.4-7.7L136 34l-4 23.4z"/><circle r="1" fill="#66615d" transform="matrix(-.86153 .50771 -20.95929 -35.56559 33.1 34)"/><path fill="#948468" d="M60 29h7v5h-7z"/><path fill="#102014" d="M198 46h7v17h-7z"/><path fill="#4d6572" d="M212 64h7v68h-7z"/><circle r="1" fill="#af8021" transform="matrix(3.96727 9.21189 -3.02503 1.30278 107.1 107.6)"/><path fill="#a47a57" d="M20 85l17 29h34z"/><path fill="#afd9c4" d="M163 86h3v23h-3z"/><path fill="#928780" d="M106 125l-20 4 6 17z"/><path fill="#ab0625" d="M186 82.9l-4.1 8.3 19.4 13.4 6.1-5.1z"/><path fill="#3e625f" d="M156-16L94 4l107 21z"/><path fill="#1f312b" d="M240.4 39l28.4-6 .8 4-28.4 6z"/><path fill="#582b1c" d="M177 105l-21 9h24z"/><path fill="#bfead5" d="M99 90h2v26h-2z"/><path fill="#111614" d="M83 24l35 25 4-20z"/><path d="M2 61l-18 38V30z"/><path fill="#e6e8e5" d="M159.2 100L135 90.2l10.7 25.4 2.1-14.1z"/></g></g></svg>