<svg xmlns="http://www.w3.org/2000/svg" viewBox="0 0 3168 4752"><defs/><filter id="a"><feGaussianBlur stdDeviation="12"/></filter><rect width="100%" height="100%" fill="#3a4829"/><g filter="url(#a)"><g fill-opacity=".5" transform="translate(9.3 9.3) scale(18.5625)"><circle r="1" fill="#999c9c" transform="matrix(125.37413 31.25928 -26.57224 106.57543 143.9 146.7)"/><circle r="1" fill="#abc7ab" transform="matrix(68.76684 -28.7658 9.2736 22.16925 125.3 118.2)"/><circle r="1" fill="#495165" transform="matrix(-46.73862 39.04395 -104.60312 -125.21802 23 199.4)"/><circle r="1" fill="#4f5b3e" transform="rotate(71.1 17.3 99.8) scale(34.41524 144.78889)"/><ellipse cx="59" cy="95" fill="#bcb9c1" rx="7" ry="31"/><path fill="#9abae1" d="M98 189.1l-16.8 20.8-41.3 2.4 30.8-15.2z"/><path fill="#2e303e" d="M88 271l64-136L30 271z"/><path fill="#beeeff" d="M76 120h14v32H76z"/><path fill="#cad1ff" d="M124.3 136.6l4.5-42.8 15 1.6-4.6 42.8z"/><path fill="#979097" d="M185.6 169l9.4 21-78.6 35-9.4-21z"/><ellipse cx="63" cy="112" fill="#b4a69b" rx="29" ry="11"/><circle r="1" fill="#5e8b35" transform="rotate(109.1 45 103) scale(18.89361 13.20867)"/><path fill="#717a55" d="M138 29L15 78l20-39z"/><circle r="1" fill="#30452c" transform="rotate(-41.6 151.8 -74.7) scale(27.34358 15.92858)"/><circle cx="107" cy="112" r="18" fill="#70aa3c"/><path fill="#454c27" d="M182 153l-43-17 6 57z"/><ellipse cx="14" cy="146" fill="#6d7257" rx="61" ry="32"/><circle r="1" fill="#314631" transform="matrix(12.46264 14.3834 -31.37215 27.18271 19.6 100.8)"/><path fill="#5b5843" d="M103 110L81 215l30-57z"/><circle r="1" fill="#b59493" transform="matrix(-11.73594 8.76112 -7.3265 -9.8142 151 242.2)"/><path fill="#3a3d15" d="M185 209.9l-28.8 22.2-16.9-6.3-10.4-3.1z"/><circle r="1" fill="#505a42" transform="matrix(-161.44204 49.97466 -6.9272 -22.3782 58.2 0)"/><ellipse cx="117" cy="156" fill="#c7b59f" rx="5" ry="18"/><path fill="#a18d84" d="M78 151l36 47-30-10z"/><circle r="1" fill="#3d4b66" transform="matrix(-18.61577 -23.49044 28.61728 -22.6787 43 240)"/><path fill="#daaca9" d="M137 157h4v28h-4z"/><path fill="#d0c9c5" d="M161.4 201.4l-31.7 9-1.1-3.8 31.7-9z"/><path fill="#293138" d="M29 248.8L132.1 197v-13l-11.1 4.7z"/><circle r="1" fill="#88a073" transform="rotate(71.1 4.9 141.3) scale(7.57627 33.42548)"/><path fill="#b7b299" d="M3.1 139.2l-19.1-2.5 35.5-2.7-2.8 4.4z"/><path fill="#4e543d" d="M100-10l37 102 18-50z"/><path fill="#eff3ff" d="M93 124l-22 1 6-7z"/><path fill="#202c58" d="M140 159l-8-19-16-4z"/><path fill="#4a5747" d="M36 208l-37-56 96 32z"/><path fill="#97a880" d="M84 99l-47 30 96-28z"/><path fill="#393536" d="M63 232h75v9H63z"/><path fill="#4e712e" d="M62 70L16 34l-32 45z"/><path fill="#9e8e94" d="M130 120l29-11 6 38z"/><path fill="#9e998b" d="M68 133l-43 19 42-1z"/><ellipse cx="24" cy="255" fill="#6386b5" rx="19" ry="4"/><path fill="#c8bbcf" d="M63.1 82.1l-9.6-2.9L53 77l17.1-9.6z"/><path fill="#252522" d="M27 247h17l-20-42z"/><path fill="#cac6d1" d="M110 220h12v6h-12z"/><path fill="#1b2427" d="M74 75h50v7H74z"/><path fill="#252026" d="M127.2 10.7L61.2 31l-2.4-7.6 66-20.2z"/><path fill="#71655f" d="M148.4-5.8l-14.8 28.7L182-10.7l-36.2 38z"/><path fill="#46beff" d="M77 144h14v9H77z"/><path fill="#a1bee2" d="M58 202h27v7H58z"/><path fill="#555d3d" d="M118.7 156.2l-6.5 15.9L87.7 187l5.2-27z"/><path fill="#606a7a" d="M110.2 220.5l41.5-31-15.1-3.8-49.5 43z"/><path fill="#aea99c" d="M133.5 192.4l25.9 14.8-17.6 9.6-4.2-43.7z"/><path fill="#334b2f" d="M55 86l-15 14 17-2z"/><path fill="#878c65" d="M141 158l33 10-34 6z"/><path fill="#242829" d="M103 211.8l-14.8 5.5 2-26.9 21.8 12.5z"/><path fill="#8299bc" d="M38 204l11.1 6.9-3.2 5-11-6.8z"/><path fill="#c5d8ef" d="M137.3 104.7l1.1-12.5-13.7 19.6 2 22.7z"/><path fill="#49413e" d="M118 177.8l6.2-29.2 30.7 18.5-5.6-37.3z"/><path fill="#4d2833" d="M74 112h13l-3-6z"/><path fill="#939274" d="M104 123h19v38h-19z"/><path fill="#b49088" d="M80 154h10v26H80z"/><path fill="#ceddff" d="M77 126h7v24h-7z"/><path fill="#4a7027" d="M182 99l-19-4-22 18z"/><path fill="#9e9593" d="M35.2 109.2l50.2-5.7L47.2 133l-14.4-18.4z"/><path fill="#839e71" d="M116.1 99.1l12.5-28.3L152.8 93l5.1-29.8z"/><path fill="#4a5d2d" d="M72 60h77v16H72z"/><path fill="#4e5948" d="M43 119l-14 28-22-34z"/><circle r="1" fill="#2c2908" transform="matrix(5.45779 1.6622 -1.21746 3.9975 169 252)"/><circle r="1" fill="#f5d7d8" transform="rotate(113.3 .4 124.7) scale(6.74122 1)"/><path fill="#686855" d="M93.1 32.7l34.3 33.7-99.7-10.7L131.8 8.1z"/><path fill="#5c7797" d="M72.6 219.1L32.1 211l55.2 1 4.3-23.7z"/><path fill="#c19eac" d="M136 124h5v23h-5z"/><path fill="#b4a1b0" d="M152 112l30.5-9.4 3.6 11.5-30.6 9.3z"/><circle r="1" fill="#707358" transform="matrix(-26.9964 -15.99829 6.34177 -10.70145 51.8 165)"/><path fill="#65625c" d="M17.4 218.8l-29.9-16 34.1 35.7 10-4.9z"/><path fill="#4b664a" d="M68 104l48-26v15z"/><circle r="1" fill="#372830" transform="matrix(-3.24408 -8.91304 20.69813 -7.5335 167.8 21.1)"/><path fill="#383e32" d="M-1-14l26 82-38-16z"/><path fill="#c1cdf4" d="M73 119h21v9H73z"/><path fill="#56594b" d="M60 122l14 5-33 15z"/><path fill="#15131a" d="M-16 223l26 17-13 16z"/><path fill="#6e9c3f" d="M115 104l-30 7 14 18z"/><path fill="#513346" d="M127 98l8-20 4 7z"/><path fill="#4e6469" d="M107.6 142.2l-23.7 2.9 7.8-6.5-.8 12.6z"/><path fill="#262e1d" d="M167.6 164.1l-10.2-16.2 27.6 13.2v26.5z"/><path fill="#ccbcc1" d="M58 136l3 5 14-12z"/><path fill="#d0aeb5" d="M130 86l-7 4 21 11z"/><path fill="#808785" d="M122 199l8 19-24-29z"/><ellipse cx="82" fill="#5c7142" rx="42" ry="7"/><path fill="#394332" d="M131.3 204.8l3.3-3.3 12.4-29.1 6.4 2.9z"/><path fill="#394b2e" d="M54.2 83.4L-16 86.7l64.9-17.6 8.4-7.7z"/><path fill="#5a5441" d="M119.3 236.6l-8.1-12.5-16.4 25.3 37.1 21.6z"/><path fill="#2f3946" d="M40 213l77 17-51 10z"/><path fill="#b1aeaa" d="M116.6 178.4l-28.8 9.7 28.4-13.6 13.5-77.8z"/><path fill="#575e4f" d="M82.5 174l-1.3-2.6-12.4-37.7-1.3 45.9z"/><path fill="#6d7742" d="M143 208l-25 6 34 13z"/><path fill="#b0c1d2" d="M56 75h5v22h-5z"/><path fill="#6686a8" d="M48 229l-5-4-10 8z"/><path fill="#895f5a" d="M139 118h5v21h-5z"/><path fill="#222527" d="M131.7 156.4l12.6-11.9-2.5 14.4 22.4-4.5z"/><path fill="#373d27" d="M146.1 221.6l-7.2 11.9 44.9-18.2 1.2.7z"/></g></g></svg>