<svg xmlns="http://www.w3.org/2000/svg" viewBox="0 0 1800 1200"><defs/><filter id="prefix__a"><feGaussianBlur stdDeviation="12"/></filter><rect width="100%" height="100%" fill="#252745"/><g filter="url(#prefix__a)"><g transform="translate(3.5 3.5) scale(7.03125)"><circle r="1" fill="#ded5c8" fill-opacity=".5" transform="matrix(-254.14253 -20.89432 6.98698 -84.98433 103.1 103.8)"/><ellipse cx="235" cy="80" fill="#c89252" fill-opacity=".5" rx="35" ry="255"/><ellipse cx="17" cy="68" fill="#cfa270" fill-opacity=".5" rx="27" ry="255"/><path fill="#00093c" fill-opacity=".5" d="M202 107l-1-84-31 6z"/><path fill="#212e5b" fill-opacity=".5" d="M54.7 60.7l-23.4-26 46-41.4 23.4 26z"/><circle r="1" fill="#6f87b5" fill-opacity=".5" transform="matrix(23.81076 -59.61552 76.85309 30.69554 119 121.2)"/><path fill="#0c297e" fill-opacity=".5" d="M44 19h12v148H44z"/><circle r="1" fill="#53515a" fill-opacity=".5" transform="matrix(83.82337 15.25487 -6.16101 33.85391 121 6)"/><path fill="#0a2c78" fill-opacity=".5" d="M188 73h13v94h-13z"/><circle r="1" fill="#906b47" fill-opacity=".5" transform="matrix(-9.6709 -62.19807 30.6145 -4.76011 233.1 41.6)"/><path fill="#b1a7a1" fill-opacity=".5" d="M200 126h55v44h-55z"/><circle r="1" fill="#97714d" fill-opacity=".5" transform="matrix(-23.7387 9.73595 -11.85802 -28.91285 20.7 14.5)"/><path fill="#0b1866" fill-opacity=".5" d="M55 162h132v4H55z"/><path fill="#152047" fill-opacity=".5" d="M180.7 39.2l-64.5-26.1 48.5-2.3 14.3 5.5z"/><path fill="#00298e" fill-opacity=".5" d="M56 146l-3-48 10 24z"/><path fill="#8da0c7" fill-opacity=".5" d="M50 163l23-71 21 67z"/><circle r="1" fill="#8f94a4" fill-opacity=".5" transform="matrix(62.43222 20.64748 -9.66299 29.21818 117.7 108)"/><path fill="#c28847" fill-opacity=".5" d="M40 2l38-17 59 15z"/><circle r="1" fill="#7d838d" fill-opacity=".5" transform="matrix(8.3643 46.94924 -53.58004 9.54563 119.8 67.1)"/><path fill="#a1a8d2" fill-opacity=".5" d="M70 155h120v8H70z"/><ellipse cx="120" cy="169" fill="#ac8355" fill-opacity=".5" rx="79" ry="4"/><path fill="#001a7e" fill-opacity=".5" d="M181 126l8-23v38z"/><path fill="#384370" fill-opacity=".5" d="M72 23L44 0l9 88z"/><circle r="1" fill="#8a6039" fill-opacity=".5" transform="matrix(55.20947 .31918 -.0121 2.09287 178.5 1.7)"/><path fill="#b29a87" fill-opacity=".5" d="M26 27h18v94H26z"/><circle r="1" fill="#8f97ae" fill-opacity=".5" transform="matrix(11.17462 5.35398 -15.13531 31.58983 74 64.7)"/><path fill="#8c9ac0" fill-opacity=".5" d="M164.1 152.1l8.2-41 24.7 52-7.3-7.3z"/><path fill="none" stroke="#cbd1c9" stroke-opacity=".5" stroke-width=".5" d="M188.3 95q.2-26.5-11.8-48"/><path fill="#f2f7ef" fill-opacity=".5" d="M186 76h2v29h-2z"/><ellipse cx="93" cy="159" fill="#33408f" fill-opacity=".5" rx="84" ry="1"/><path fill="#aa988c" fill-opacity=".5" d="M41.7 108.3L-16 72.2 8.2 172 46 185z"/><path fill="#2b3454" fill-opacity=".5" d="M153 24l37-15v49z"/><path fill="#6f7776" fill-opacity=".5" d="M85 34h85v23H85z"/><path fill="#00104e" fill-opacity=".5" d="M179.4 62.6l-11.7-18.7.9-.5 11.7 18.7z"/><path fill="#2b315a" fill-opacity=".5" d="M151 30.8l19.8 15.8-17.1-12-40.1-17.2z"/><path fill="#2c3761" fill-opacity=".5" d="M54 44l63-30-61-2z"/><path fill="#cac8c6" fill-opacity=".5" d="M0 168h68v2H0z"/><ellipse cx="236" cy="40" fill="#8f6e4d" fill-opacity=".5" rx="35" ry="27"/><ellipse cx="107" cy="164" fill="#373e6a" fill-opacity=".5" rx="67" ry="3"/><path fill="#1a2996" fill-opacity=".5" d="M68 154h105v1H68z"/><circle r="1" fill="#a4a7ce" fill-opacity=".5" transform="matrix(-2.95896 .67706 -5.03962 -22.02471 61.4 106.5)"/><path fill="#9d7f66" fill-opacity=".5" d="M201 66h55v48h-55z"/><path fill="#1e4191" fill-opacity=".5" d="M64 129L54 95l-1 54z"/><path fill="#e7e8dc" fill-opacity=".5" d="M79.7 39L61.1 63.6l-.8-.6 18.6-24.8z"/><path fill="#62432b" fill-opacity=".5" d="M0 134h37v2H0z"/><ellipse cx="52" cy="36" fill="#71758b" fill-opacity=".5" rx="2" ry="125"/><circle cx="97" cy="148" r="7" fill="#aa864a" fill-opacity=".5"/><path fill="#2f4678" fill-opacity=".5" d="M201.5 149l-1.8-90.1-.5-10.3-18.3 87.9z"/><ellipse cx="141" cy="161" fill="#f1f5eb" fill-opacity=".5" rx="42" ry="1"/><path fill="none" stroke="#0d1373" stroke-opacity=".5" stroke-width=".5" d="M61.3 101.8q-3.7-22.8 6-43.2"/><path fill="#001179" fill-opacity=".5" d="M184 75.5h1l-1 29h-1z"/><circle r="1" fill="#937854" fill-opacity=".5" transform="rotate(-148.2 94.4 53.3) scale(7.68672 6.91799)"/><path fill="#eef3f4" fill-opacity=".5" d="M55 144h3v19h-3z"/><ellipse cx="150" fill="#816044" fill-opacity=".5" rx="143" ry="3"/><circle cx="122" cy="90" r="4" fill="#684803" fill-opacity=".5"/><ellipse cx="193" cy="130" fill="#696b79" fill-opacity=".5" rx="2" ry="126"/><path fill="#8a8db1" fill-opacity=".5" d="M87 65L70 97l59 62z"/><path fill="#fffff4" fill-opacity=".5" d="M187.5 141l2 24h-1l-2-24z"/><path fill="#e2e4df" fill-opacity=".5" d="M180.2 120.8l8.6-29.8 1 .2-8.6 29.8z"/><path fill="#17358a" fill-opacity=".5" d="M45 52h5v112h-5z"/><path fill="#1e2181" fill-opacity=".5" d="M69.6 126.6l-1 .3-10.2-33.5 1-.3z"/><ellipse cx="154" cy="5" fill="#201f38" fill-opacity=".5" rx="47" ry="3"/><path fill="#7a614e" fill-opacity=".5" d="M0 149h39v3H0z"/><path fill="#5c87a2" fill-opacity=".5" d="M77 120h15v33H77z"/><path fill="#dfe1d0" fill-opacity=".5" d="M180.2 56.2l8.6 21.3-1 .3-8.6-21.3z"/><path fill="#d0c5b9" fill-opacity=".5" d="M112 169h144v1H112z"/><ellipse cx="6" cy="155" fill="#755c4b" fill-opacity=".5" rx="37" ry="2"/><path fill="#314382" fill-opacity=".5" d="M56 74l17-41-22 3z"/><ellipse cx="120" cy="20" fill="#c2b8a4" fill-opacity=".5" rx="9" ry="2"/><path fill="#fdfef4" fill-opacity=".5" d="M64 120h2v20h-2z"/><path fill="#866b54" fill-opacity=".5" d="M202 150h54v3h-54z"/><ellipse cy="66" fill="#cec5bc" fill-opacity=".5" rx="35" ry="2"/><path fill="#00056e" fill-opacity=".5" d="M175 122h2v17h-2z"/><ellipse cx="5" cy="121" fill="#d6c7ba" fill-opacity=".5" rx="36" ry="2"/><path fill="#d0c8b4" fill-opacity=".5" d="M89.8 30.4l-.4-1 30.8-11.8.4 1z"/><path fill="#bfb4ab" fill-opacity=".5" d="M205 153h24v13h-24z"/><path fill="#dcdfe0" fill-opacity=".5" d="M56.2 86.9l1 11.9 4.3-32.9-4.3 10.6z"/><path fill="#e1e5e5" fill-opacity=".5" d="M178.9 138.5l-2-.2 2.2-20.8 2 .2z"/><path fill="#d0d4d9" fill-opacity=".5" d="M67 160h42v2H67z"/><path fill="#edf4ec" fill-opacity=".5" d="M64.5 125l-8-25.8 1-.3 8 25.9z"/><path fill="#3c416d" fill-opacity=".5" d="M64.3 63.3l13.6-17.4 44.3-38.8-47.4 39.4z"/><ellipse cx="16" cy="107" fill="#896952" fill-opacity=".5" rx="28" ry="2"/><ellipse cx="23" cy="118" fill="#714123" fill-opacity=".5" rx="17" ry="1"/><path fill="#6e6d8e" fill-opacity=".5" d="M76 67l97 1-53-21z"/><ellipse cx="3" cy="158" fill="#cdc5b5" fill-opacity=".5" rx="40" ry="2"/><path fill="#000041" fill-opacity=".5" d="M127.2 25l-12.6-3 .2-1 12.6 3z"/><ellipse cx="13" cy="104" fill="#d3bfb4" fill-opacity=".5" rx="31" ry="2"/><ellipse cx="9" cy="96" fill="#81614f" fill-opacity=".5" rx="33" ry="2"/><circle cx="121" cy="90" r="16" fill="#91a384" fill-opacity=".5"/><circle r="1" fill="#c1b6a4" fill-opacity=".5" transform="matrix(12.82237 8.07467 -.53288 .8462 156.6 32.7)"/><path fill="#1b2784" fill-opacity=".5" d="M59 145h2v19h-2z"/><path fill="#4f7c9d" fill-opacity=".5" d="M153 120h15v16h-15z"/><path fill="#1a2071" fill-opacity=".5" d="M60.2 96l-2-.1 1.6-18 2 .2z"/><path fill="#d9cac4" fill-opacity=".5" d="M44 86.6v1l-50 1.8v-1z"/><ellipse cx="23" cy="139" fill="#7b624e" fill-opacity=".5" rx="16" ry="2"/><path fill="#172b6c" fill-opacity=".5" d="M176.2 56.7l8.5 18.2-1 .4-8.4-18.2z"/><path fill="#cec6c0" fill-opacity=".5" d="M8 152h36v3H8z"/><ellipse cx="22" cy="147" fill="#cac3ba" fill-opacity=".5" rx="22" ry="2"/><ellipse cx="64" cy="35" fill="#80766e" fill-opacity=".5" rx="2" ry="17"/><path fill="#a5afc0" fill-opacity=".5" d="M63.2 108.6l-2.6-30.5 19.3 43.2-6.7-24.4z"/></g></g></svg>