<svg xmlns="http://www.w3.org/2000/svg" viewBox="0 0 4752 3168"><defs/><filter id="a"><feGaussianBlur stdDeviation="12"/></filter><rect width="100%" height="100%" fill="#40444a"/><g filter="url(#a)"><g fill-opacity=".5" transform="translate(9.3 9.3) scale(18.5625)"><circle r="1" fill="#a0ab92" transform="matrix(-147.18714 29.20916 -24.64147 -124.17024 100 44)"/><circle r="1" fill="#d3d8f0" transform="matrix(8.0492 -24.95533 10.83902 3.49606 32.3 71.4)"/><circle r="1" fill="#d5c9cd" transform="matrix(27.14577 -8.9852 4.13427 12.4903 101.3 151.2)"/><circle r="1" fill="#bdbcc3" transform="matrix(1.49534 6.0995 -93.73397 22.97964 213.4 72.4)"/><ellipse cx="45" cy="134" fill="#494451" rx="42" ry="32"/><circle r="1" fill="#000606" transform="rotate(126.3 62.2 133.8) scale(36.88806 18.29177)"/><circle cx="73" cy="74" r="15" fill="#0c1e21"/><ellipse cx="246" cy="59" fill="#5a5e47" rx="21" ry="100"/><path fill="#9eba78" d="M100 83L63 9l80 28z"/><circle r="1" fill="#0d0e17" transform="rotate(142.6 46.2 95.5) scale(6.14964 24.28262)"/><circle r="1" fill="#dacbb3" transform="matrix(-8.3782 16.03407 -7.37738 -3.85486 146.8 102.2)"/><path fill="#a8c1e7" d="M220 67.6l13.1 64.7 2-33.2-41-23z"/><ellipse cx="177" cy="7" fill="#485040" rx="52" ry="17"/><path fill="#b6b5b3" d="M61 151H4l44-17z"/><circle r="1" fill="#21291c" transform="matrix(12.88262 18.9562 -9.30227 6.32181 241.2 83.6)"/><path fill="#355234" d="M174 47l-64 7 11 30z"/><path fill="#e298d2" d="M93 60h18v24H93z"/><path fill="#b8bac8" d="M80 108h27v17H80z"/><circle r="1" fill="#4c4d39" transform="matrix(20.60319 -13.84477 17.64781 26.26272 0 23.6)"/><path fill="#323743" d="M77.3 144.8l-88.2-26.6 87.6 11.3 79.2-8.1z"/><path fill="#2c2e55" d="M111 117l25-18-49-18z"/><circle r="1" fill="#232739" transform="matrix(-4.9728 4.3687 -18.74683 -21.33906 7.7 92.7)"/><path fill="#9e979c" d="M116.8 190.2l-17-28.3 33.4-20 17 28.2z"/><path fill="#001" d="M193.5 94.4l-8.1-.1-8.1 6 18.9 8.1z"/><path fill="#1e2019" d="M227 37h29v15h-29z"/><path fill="#dbebf7" d="M30 58l17 36-28-19z"/><path fill="#c4a7a2" d="M169.9 67.2l2.9-11.7-35.3 10.8 56.2 26.4z"/><path fill="#c0bbbc" d="M155.3 80.1l-45.9 19.4 6.8-17.7 59.1 10.7z"/><path fill="#748e54" d="M167 39l19 41 85-72z"/><path fill="#353c3f" d="M151 185l81-55-85 16z"/><path fill="#a5a39f" d="M196 108h-53l43 28z"/><ellipse cx="213" cy="84" fill="#87aad0" rx="12" ry="22"/><path fill="#81a86d" d="M127 6L32 23l107 42z"/><path fill="#363937" d="M203.9-16l-2.6 42.1-60.5 38.3 26.5-6.7z"/><circle r="1" fill="#a3a68d" transform="matrix(16.73516 -3.52665 2.43225 11.54188 162.1 33.8)"/><circle r="1" fill="#98a789" transform="matrix(2.11074 -4.30857 71.99584 35.2704 255.2 69.7)"/><path fill="#321a2c" d="M201 53h22v10h-22z"/><path fill="#6f7785" d="M-16 169.1l89 4.6-67.1-13.2-.6-62.8z"/><path fill="#8d8788" d="M41 100l33 4L25 8z"/><path fill="#9a8e85" d="M271 131.2l-39.3 8 17 7.7 21.2 14.4z"/><path fill="#35433f" d="M66.9 78.7l12.7 34L88.4 80l-2.1-30.9z"/><path fill="#313e33" d="M114 61l30 14v19z"/><path fill="#c7aeac" d="M87.5 100.4l30.8 20.3L156 88.5l-47.7 34z"/><circle r="1" fill="#5279a9" transform="matrix(4.3765 -8.617 12.07067 6.1306 31 95)"/><path fill="#4a5460" d="M196 104h29v25h-29z"/><path fill="#aaa6a3" d="M71.8 153.9l-14.2 22.6 78.7-22.5-38.5-17.4z"/><circle r="1" fill="#a3a3aa" transform="matrix(31.43224 6.1098 -.82197 4.22864 59.1 29.3)"/><ellipse cx="188" cy="70" fill="#244517" rx="9" ry="6"/><path fill="#5e8048" d="M102 14h43v21h-43z"/><path fill="#22332d" d="M220 92l10 15-19-16z"/><path fill="#b19d98" d="M25 49l47 1-31 16z"/><path fill="#57595b" d="M41.7 77.7l23.1 38.7-14.9-40.6L28.7 50z"/><circle r="1" fill="#c8aea7" transform="rotate(70 27 169.7) scale(7.36059 18.39695)"/><path fill="#373338" d="M58.8 169.3l18.4-21.7-37.6 11.2-48.5-1.7z"/><path fill="#ababab" d="M22.7 51.5l32 60 23.8 10.6-22.6-1.7z"/><path fill="#040e1c" d="M71.6 116.1l6.5-5.3-31.5-5.2 4.3 1.4z"/><circle r="1" fill="#b7bbbc" transform="rotate(138.1 15.8 58.6) scale(1.87705 17.62054)"/><path fill="#626365" d="M82.8 77.8L69.5 40.6 51.9 28.3 38.4 49.4z"/><path fill="#1c262d" d="M142 49h16v14h-16z"/><ellipse cx="153" cy="131" fill="#5d5c5c" rx="15" ry="16"/><ellipse cx="230" cy="17" fill="#7e8772" rx="30" ry="11"/><path fill="#fffee9" d="M146 99l-12 10-4-3z"/><path fill="#7b7775" d="M75 159h73v11H75z"/><path fill="#89b165" d="M196 30l-42 32 67-17z"/><path fill="#7c863c" d="M6 22.1l-22-.5L23.9-16 38 0z"/><path fill="#7f635a" d="M152 71.4l-18.3 24.2 37.9-37.7-4.4 28.8z"/><path fill="#8da96f" d="M129.7 64.8l13.4 3.7-8.3-28.7L164 10.9z"/><path fill="#96b0cc" d="M222.7 68.9l10.7 31.5-41.6-25.6 29.3-11.7z"/><path fill="#5d6c4f" d="M89.3 47.5l50.3 8.7H104L52.2 68.5z"/><path fill="#1a2529" d="M119 111l-2-12 25-4z"/><path fill="#4e645d" d="M70.8 9.5L22.1 2.2l86.2-.7-49.1 22.9z"/><path fill="#aeb0b2" d="M146.7 110.7l-4.3-.5-21.9 13.9 65.4-14.7z"/><path fill="#14181b" d="M166.2 174.3l-11.6-1.7-29.4-44.1 11.1 7.3z"/><path fill="#b2a6a5" d="M141.1 84l-58-6.9L137.7 88l25.6-6.3z"/><circle r="1" fill="#40414d" transform="rotate(-58.7 33.3 17) scale(10.12064 28.50338)"/><path fill="#58524b" d="M2 119l4 41 36-61z"/><path fill="#00160c" d="M237-6l7-7 19 19-7 7z"/><path fill="#d3c1b7" d="M47 67.7l12.8-15.9v-2.7L44.6 62z"/><circle cx="107" cy="61" r="5" fill="#eac4e1"/><path fill="#687ea3" d="M193 80l10 24 18-26z"/><circle r="1" fill="#b6907d" transform="matrix(-1.99316 .62462 -4.70474 -15.01285 232.2 118.9)"/><path fill="#93a2c2" d="M1 98l12 12-29 14z"/><path fill="#dbcfd5" d="M199.7 87l-16.2-10-.2 14-15.4-18.2z"/><path fill="#939584" d="M246 51h10v26h-10z"/><path fill="#393a47" d="M120.5 130.1l-62.9 21.3 70-37.3-12.4 20.4z"/><path fill="#11171a" d="M172 171l54 10 10-52z"/><path fill="#4d5881" d="M92 85h24v21H92z"/><path fill="#7d5e54" d="M161 66l18 23-10 3z"/><path fill="#494c3e" d="M244.2 62.8l7.3-12.7-35.4-17.8-6.6 3.3z"/><path fill="#4d5e4c" d="M120.9 29.6l-5.7 5.1 21.6 3.9 11.6-18.9z"/><path fill="#d7e4ed" d="M38.2 85.4l-16.8-3 2.4-13.8 16.8 3z"/><path fill="#969792" d="M189 117l5 13-46 17z"/><path fill="#b1b0b4" d="M28 142l7 7-30 4z"/><path fill="#b1a29e" d="M27 48.7l-4.6 32.8-13-.4 36.2-39.4z"/><path fill="#222d3d" d="M35.7 78.6l41.1-.3 3.6 23.8-22.5-25.4z"/><path fill="#aab8c9" d="M31.8 119.7l9.2-4.1 1.2 2.7-9.2 4.1z"/><path fill="#a6abab" d="M40 34l-1-11-18 14z"/><path fill="#9ec0e2" d="M29 96h8v9h-8z"/><path fill="#cdcbcd" d="M6 53h11v4H6z"/><path fill="#babfd5" d="M187.8 77.9l12.6-2.7 31-6.6-20.5-4.2z"/></g></g></svg>