<svg xmlns="http://www.w3.org/2000/svg" viewBox="0 0 2540 2540"><defs/><filter id="a"><feGaussianBlur stdDeviation="12"/></filter><rect width="100%" height="100%" fill="#494139"/><g filter="url(#a)"><g fill-opacity=".5" transform="translate(5 5) scale(9.92188)"><circle cx="120" cy="198" r="246" fill="#c5d8d6"/><ellipse cx="94" cy="244" fill="#fff" rx="255" ry="27"/><circle r="1" fill="#23302f" transform="matrix(-1.06942 35.0628 -176.87795 -5.39481 184 63.2)"/><circle r="1" fill="#fff" transform="matrix(58.03763 -14.90153 7.5875 29.55136 46.2 11.5)"/><circle cx="178" cy="153" r="68" fill="#5e5544"/><ellipse cx="192" cy="9" fill="#effaff" rx="82" ry="17"/><circle r="1" fill="#fff" transform="matrix(-76.15236 61.11548 -4.2438 -5.28794 45.7 198.2)"/><circle r="1" fill="#fffffc" transform="rotate(-87.2 193.2 55) scale(25.74972 121.46532)"/><path fill="#403628" d="M-16 224.8L95.3 124.2l-36.6-18.1 19.1 55.4z"/><ellipse cx="118" cy="193" fill="#4f5d54" rx="51" ry="26"/><circle r="1" fill="#516058" transform="matrix(-22.28866 -6.94215 10.2997 -33.0685 227.9 201.9)"/><circle r="1" fill="#676053" transform="matrix(-71.89946 28.43988 -8.61903 -21.78995 19.9 171)"/><path fill="#00040c" d="M116.1 33.9L107.8-16l-3.4 30 10.4 75.6z"/><path fill="#363e3c" d="M0 48h111v32H0z"/><path fill="#fff" d="M190 132h66v5h-66z"/><ellipse cx="55" cy="8" fill="#e7f2ff" rx="49" ry="22"/><ellipse cx="115" cy="104" fill="#6e8583" rx="44" ry="26"/><path fill="#fff" d="M0 131h67v5H0z"/><circle r="1" fill="#517c84" transform="matrix(-6.12558 25.82706 -42.58763 -10.10079 229.2 104.3)"/><circle r="1" fill="#26281d" transform="matrix(7.46022 -1.3692 3.01262 16.41446 118.8 115.3)"/><path fill="#472714" d="M76 148.7l5.8-21.7 1.9-61.2-20.5 54.9z"/><ellipse cx="169" cy="93" fill="#4f2614" rx="17" ry="22"/><path fill="#fff" d="M236 221h20v35h-20zM2.2 222.2L80 165.7l5.9 8.1L8 230.3z"/><path fill="#95b4c1" d="M-29.7 85.6L68 80.5l1.6 30-97.8 5z"/><path fill="#000e3a" d="M161 152h45l-37 12z"/><path fill="#4a524e" d="M167 23h56v57h-56z"/><path fill="#babeba" d="M126.6 139l12.5-3.6-4.6-22.9L124 62.9z"/><circle r="1" fill="#ac7151" transform="matrix(-14.73294 13.6519 -15.40756 -16.62763 183.6 129.6)"/><ellipse cx="223" cy="228" fill="#2d333c" rx="15" ry="6"/><ellipse cx="48" cy="54" fill="#576160" rx="37" ry="18"/><ellipse cx="253" cy="179" fill="#5a6052" rx="12" ry="42"/><path fill="#859998" d="M169 93l-41 26-11-47z"/><path fill="#fbfaef" d="M67 220h172v4H67z"/><circle r="1" fill="#68685c" transform="matrix(-8.55394 -10.89848 54.67803 -42.91541 107.2 173)"/><path fill="#e6edf7" d="M109.5-15.1l28.8-3.5 4.2 33.7-28.8 3.5z"/><path fill="#46504f" d="M42 42l76-26 107 45z"/><ellipse cy="19" fill="#d5deea" rx="47" ry="27"/><path fill="#7b9999" d="M185 82h71v12h-71z"/><path fill="#646b61" d="M271 221.7l-164.4-68.3-42.4 64 98.6 2.3z"/><path fill="#a26342" d="M162 165h28v31h-28z"/><path fill="#001613" d="M113 69h5v29h-5z"/><path fill="#88785b" d="M45.4 214.5L1 246.8l-2.3-3.3L43 211.2z"/><path fill="#98a4a0" d="M115 104L41 81l68-1z"/><path fill="#b7becc" d="M195 23l76 5-38-44z"/><path fill="#0e120c" d="M206 95h13v9h-13z"/><circle r="1" fill="#6f736a" transform="rotate(135.2 -27 99.6) scale(58.40956 11.25198)"/><ellipse cx="131" cy="135" fill="#bfa892" rx="43" ry="4"/><ellipse cx="82" cy="249" fill="#f1efe3" rx="170" ry="27"/><path fill="#afb8b1" d="M116 57h13v11h-13z"/><path fill="#00090d" d="M65 117l17 5-10 15z"/><ellipse cx="153" cy="12" fill="#ced5e0" rx="20" ry="16"/><path fill="#1f1c15" d="M155 68l28 8v29z"/><ellipse cx="45" cy="133" fill="#fff" rx="22" ry="2"/><ellipse cx="227" cy="76" fill="#34362c" rx="96" ry="4"/><ellipse cx="15" cy="72" fill="#373e3a" rx="108" ry="7"/><circle r="1" fill="#edf5f3" transform="rotate(53.6 -104.4 176.4) scale(2.9373 27.88408)"/><path fill="#00161e" d="M105 0h7v30h-7z"/><path fill="#56321f" d="M94 73L80 94l-5-28z"/><path fill="#f1f2e9" d="M214.3 219.5l56.7 5-24.8 46.5 5.7-38z"/><ellipse cx="20" cy="154" fill="#726f63" rx="68" ry="18"/><path fill="#61311d" d="M140 135l25-12-11 13z"/><path fill="#7d7b7e" d="M87.3 36.4l-3 .1-1.6-47h3z"/><path fill="#f5f2e6" d="M92 122h4v14h-4z"/><circle r="1" fill="#636b6e" transform="matrix(-.86863 8.85898 -65.07115 -6.38028 230.3 35.2)"/><path fill="#f1faff" d="M82.8 169L2.9 223.8l-15.4 17.7 44.5-21z"/><path fill="#2f3632" d="M126 126l-16.5-7.4L116 104l16.5 7.4z"/><ellipse cx="230" cy="119" fill="#536e71" rx="34" ry="13"/><path fill="#8c6652" d="M158.2 84l15.7 9-13.6 24.7-7.4-13.9z"/><path fill="#778078" d="M194.1 74.3l22.6-11.5-36 2.4-11.7 5.1z"/><path fill="#dfe7ec" d="M79.5 17.1L-6.3 1.4 94.8-16l11.6 36.7z"/><path fill="#a19172" d="M9 232l19-5-31 20z"/><path fill="#64726b" d="M81 173h80v46H81z"/><circle cx="233" cy="230" r="4" fill="#2b353b"/><path fill="#d8e4e3" d="M209 132h46v6h-46z"/><circle r="1" fill="#748c94" transform="rotate(-26.2 264.4 -44.9) scale(23.49818 17.57916)"/><path fill="#715033" d="M169.2 160l-6-14.9 17.6-7 6 14.8z"/><circle r="1" fill="#504744" transform="rotate(-98.5 80.6 .6) scale(46.28415 1)"/><ellipse cx="5" cy="132" fill="#f4feff" rx="28" ry="3"/><path fill="#0a2151" d="M175.8 157.6l19.2-8.5 3.2 7.3-19.2 8.5z"/><path fill="#7c9e9f" d="M121.4 86.8l26.5-7.6 3.5 18.5-33.1 8.1z"/><circle r="1" fill="#727668" transform="matrix(48.21857 11.48728 -6.52308 27.38103 244.3 166)"/><path fill="#f2f1e9" d="M32.6 227.8l9.3-10.5 29.3 1.5 20.1.8z"/><circle cx="131" cy="121" r="4" fill="#e9f4f5"/><path fill="#75756d" d="M-11 231l30-95 44 40z"/><path fill="#f1f1e9" d="M233.3 237l-40.1 5.2 17.6-21.5-51.6-.2z"/><path fill="#37190c" d="M70.5 147l2.8 1-5.8 15-2.8-1z"/><path fill="#7e7e73" d="M106 153l5 5-59 57-5-5z"/><path fill="#363f44" d="M210 223h15v8h-15z"/><circle cx="161" cy="135" r="3" fill="#f2ffff"/><path fill="#d6dcd9" d="M134.5 119.3l-14-60.4 1-.2 14 60.4z"/><path fill="#3e3526" d="M155 98l-6-24 12-16z"/><ellipse cx="5" cy="84" fill="#9db4bb" rx="72" ry="4"/><path fill="#784d36" d="M165.2 199l20.6-26.8-10 44.9-3.2-2.6z"/><path fill="#8f5b41" d="M67.3 96l24.8 42.1L73.4 115l7-30.9z"/><path fill="#525b5e" d="M47.4 82.6L17.6 41-16 80.8V55.1z"/><path fill="#c8d1d8" d="M32.1 44l-19.5-5.2-3.8-25.7 52.3 7.1z"/><path fill="#40493f" d="M128 79l-4-25 22 26z"/><path fill="#475758" d="M133.8 104.1l21.1 10-30.6-8.6 5.6 7.4z"/><path fill="#626867" d="M101.5 29.7L33.6 40.5l53.6 29.3-6.1-13.1z"/></g></g></svg>