<svg xmlns="http://www.w3.org/2000/svg" viewBox="0 0 3630 2420"><defs/><filter id="a"><feGaussianBlur stdDeviation="12"/></filter><rect width="100%" height="100%" fill="#4e4b45"/><g filter="url(#a)"><g fill-opacity=".5" transform="translate(7 7) scale(14.17969)"><circle cx="79" cy="119" r="218" fill="#f8f9f3"/><circle r="1" fill="#6d6057" transform="rotate(39.9 -19.9 251.9) scale(59.76156 81.57125)"/><circle r="1" fill="#ebeff0" transform="matrix(-17.24875 -98.83087 38.0299 -6.63728 26.8 143.5)"/><ellipse cx="231" cy="129" fill="#f0efeb" rx="25" ry="96"/><ellipse cx="76" cy="104" fill="#354a68" rx="54" ry="14"/><path fill="#bdbcc3" d="M192 37l-72 44 47 25z"/><path fill="#241d2f" d="M91 79h35v34H91z"/><circle r="1" fill="#fdf8f6" transform="matrix(-5.70642 22.06507 -117.28662 -30.33238 48.8 169)"/><circle r="1" fill="#675561" transform="matrix(-16.20804 -8.11945 17.20684 -34.3483 150 144.4)"/><ellipse cx="24" fill="#faffff" rx="68" ry="9"/><path fill="#6c7a3c" d="M-8 15l53 23L98 5z"/><circle r="1" fill="#b6e5de" transform="rotate(60.1 .7 77.3) scale(12.19111 47.65601)"/><path fill="#fff" d="M9.6 88l-1-16 55.8-4 1 16z"/><ellipse cx="205" cy="61" fill="#8a8571" rx="22" ry="57"/><path fill="#307fce" d="M85.2 113.2L67.4 99.8l-5.2-33.5 26.9-.2z"/><circle r="1" fill="#9f9e9c" transform="matrix(-29.46403 7.77415 -6.85442 -25.97827 43.7 113.6)"/><ellipse cx="107" cy="138" fill="#dfd9d5" rx="8" ry="30"/><path fill="#788650" d="M132.4-3.2l182.2 25.6-3 20.8-182.2-25.6z"/><ellipse cx="239" cy="77" fill="#f6f5f0" rx="11" ry="44"/><circle r="1" fill="#dcedfe" transform="matrix(72.86867 22.55662 -2.42562 7.8359 241.9 3.2)"/><path fill="#f5f4f0" d="M202 141l33-39 27 59z"/><path fill="#dbe0e5" d="M219.8 57.4l-7 30.2-12.6-3 7-30.2z"/><ellipse cx="116" cy="52" fill="#674463" rx="8" ry="47"/><path fill="#8d8c9a" d="M254.7 176.5l5.6-14.7-71.1-20.5-15.1 16.2z"/><path fill="#71827a" d="M20.7 38.6l30.8 20-67.3 9.6 62.2.8z"/><path fill="#697151" d="M260.2 29l-1.4 76h-9l1.4-76z"/><path fill="#f6e5da" d="M93.1 158.4L71 135.5l.5 21.1 21.8-25.5z"/><path fill="#05131e" d="M148.2 122l2-9.8 17.6 3.8-2 9.8z"/><path fill="#727b2f" d="M10 45.2l-22-1.5 2-27 22 1.6z"/><path fill="#204677" d="M129 135h20v20h-20z"/><path fill="#a7957e" d="M136 37h14v101h-14z"/><path fill="#d0d9de" d="M128.9 24.8l-4.4 5.3-5.8-3.7L129-9z"/><path fill="#8a5e56" d="M78.3 67.9l-6.8-25.6 16.9 4.3 21.5-25.2z"/><path fill="#b6e0da" d="M72 66L61 39 7 29z"/><path fill="#bfbcbe" d="M140.6 154.8l3.7 14.8-17.8 13.1 15.8-45.8z"/><circle r="1" fill="#564f5d" transform="matrix(8.32513 .814 -1.85327 18.95416 189 88.5)"/><path fill="#846056" d="M176 149h19v21h-19z"/><circle r="1" fill="#b2afad" transform="matrix(-7.19137 -9.35357 31.15512 -23.95319 198 121)"/><path fill="#ced5db" d="M188 177l15-32 11 40z"/><path fill="#874b32" d="M100.5 157.1l-5 .6-4-38.8 5-.6z"/><path fill="#3e2143" d="M140 55l-15-8V31z"/><path fill="#e4eef9" d="M-13 8l32 5-3-29z"/><path fill="#a7a7b8" d="M179.2 97.8l-9.8 33.9 11-76.4-50.8 68.9z"/><path fill="#fffffb" d="M-16 84l36 60-36-126z"/><path fill="#eae9e2" d="M27.8 67.3l37.6 34.4-4.8-29.6-18.2-3.9z"/><circle r="1" fill="#898c60" transform="matrix(-31.30163 25.87854 -20.1688 -24.39537 168.4 21.4)"/><path fill="#cfcbba" d="M143.6 61.8l31.7 11.6-27.1-37.2 10.2 20.5z"/><path fill="#9a735d" d="M168.8 125.4l-4.6 52.8-19-1.6 4.6-52.8z"/><path fill="#797948" d="M220 13h5v70h-5z"/><path fill="#e7e7e4" d="M239 34h11v28h-11z"/><path fill="#766264" d="M144 71h9v31h-9z"/><ellipse cx="81" cy="129" fill="#8e533a" rx="3" ry="14"/><path fill="#c4e0dc" d="M87 44l-35-8 57-33z"/><path fill="#926a5d" d="M67 110h5v50h-5z"/><path fill="#736976" d="M149.9 51.6L17.4 124.5 98.1 66l9.1 24z"/><path fill="#c5c6cb" d="M138 74l-13 4 5 29z"/><path fill="#767856" d="M263 28L237 7l-9 29z"/><path fill="#edeef6" d="M226 6h3v30h-3z"/><path fill="#814e3a" d="M116 113h5v42h-5z"/><circle r="1" fill="#aa94a1" transform="rotate(-69.7 157.2 -33.6) scale(7.98769 17.88287)"/><path fill="#e2dbd4" d="M65 183l19 2-8-71z"/><ellipse cx="167" cy="114" fill="#0d1b2b" rx="3" ry="10"/><path fill="#ad7a98" d="M90.1 35.7l9.8-10.3 10.2 52.3L97.7 67z"/><path fill="#f4f5f1" d="M-12 93l70-25-55 2z"/><path fill="#caccc9" d="M65 131l3-21-26 3z"/><path fill="#586747" d="M173.2 23l-39.5-12.6 17.7-1.6-21.2 22.8z"/><path fill="#bfbec1" d="M190 149.7l-7.2-28-12.4 61.7-5.5-45.3z"/><path fill="#b7ac98" d="M200.5-10l12.2 114.1-.1-70.3-13.4 7.9z"/><circle cx="213" r="7" fill="#e7f5ff"/><path fill="#7e8762" d="M108 2L59 30 52 7z"/><path fill="#373d44" d="M123.5 82.8L86.8 104l38.8 12.7 1.9-18.8z"/><path fill="#494862" d="M207.7 53.3l-15.2-1-1.1 7.5 9.5 7.4z"/><path fill="#458dc9" d="M67 87h22v18H67z"/><path fill="#694942" d="M188 174l10-28-8-2z"/><circle r="1" fill="#bdb5ba" transform="matrix(2.83658 -9.45482 2.81176 .84357 125.5 59.5)"/><path fill="#a5acb0" d="M9 87h21v25H9z"/><path fill="#b5b7bb" d="M124.7 159l2 11.9-51.4 8-2-11.8z"/><path fill="#b9cdde" d="M82.4 79.1l-3.4 2L65.6 59l3.4-2z"/><path fill="#e9e4da" d="M86 119h5v32h-5z"/><path fill="#6c6f77" d="M35 112L23 94l45 14z"/><path fill="#635153" d="M82.3 59.2l-6-10.5 19.2-3.3 1.2-15.9z"/><path fill="#c1ba95" d="M170 46l8-10 16 34z"/><ellipse cx="28" cy="65" fill="#858878" rx="45" ry="3"/><path fill="#6b595a" d="M166.1 32.3l29.3 13.8.2-17.3 8.5 4z"/><path fill="#725670" d="M88.2 81.5l39.1 6.2-27.2-43.3 43.2-13.5z"/><path fill="#77aaa2" d="M68.8 56l-44.4-7 .8-5 44.4 7z"/><path fill="#bc9f9d" d="M88 66l26-35 3-47z"/><path fill="#80786c" d="M227.1 72.3l-24 24.1 18.6-1.5-9.9 11.7z"/><ellipse cx="186" cy="165" fill="#b9bbbd" rx="2" ry="62"/><path fill="#c1ccd2" d="M155 137h2v27h-2z"/><path fill="#a49f6c" d="M140.6 26L174 53.1l-24.1 6.7-12.3 15.4z"/><path fill="#5e6f82" d="M69.4 123.9l22.4-5-5.4-11-19.8 3.2z"/><path fill="#87817f" d="M45 164l-23 21h39z"/><path fill="#eac09c" d="M164 110l-6 2-4-17z"/><path fill="#88665f" d="M185 119l6 7 11-29z"/><path fill="#dfdad0" d="M208.9 132.8l5.6-26.6 32.6 25-44.6 1.2z"/><path fill="#e3e2dd" d="M228 36h19v92h-19z"/><path fill="#cfe7dc" d="M55 60l-71-19 12 20z"/><path fill="#bedcd5" d="M23.7 42.8l-6.8-8.6-9.4-10.3 47.3 21z"/><path fill="#97a5b5" d="M169.1 68.8l-26.6-7.7 13.9 33.8 42.5-36.7z"/></g></g></svg>