<svg xmlns="http://www.w3.org/2000/svg" viewBox="0 0 1800 1200"><defs/><filter id="a"><feGaussianBlur stdDeviation="12"/></filter><rect width="100%" height="100%" fill="#3e4c36"/><g filter="url(#a)"><g fill-opacity=".5" transform="translate(3.5 3.5) scale(7.03125)"><circle r="1" fill="#bab7be" transform="matrix(-25.02192 253.7694 -100.74627 -9.93368 166.2 87.7)"/><circle r="1" fill="#fff" transform="matrix(-4.85905 25.1159 -49.2072 -9.51986 115.5 0)"/><circle r="1" fill="#feffff" transform="rotate(-171.2 123.7 -4.7) scale(28.08165 32.84742)"/><circle r="1" fill="#1f2e10" transform="matrix(69.18198 11.5771 -2.60633 15.57482 197 55.5)"/><ellipse cx="73" cy="150" fill="#958a92" rx="103" ry="34"/><path fill="#445647" d="M84.7 84.1l-46.1-30L71.3 4l46.1 30z"/><ellipse cx="225" cy="148" fill="#444649" rx="38" ry="20"/><ellipse cx="59" cy="122" fill="#5d5852" rx="48" ry="28"/><path fill="#f2fcff" d="M141 33L26-16l117 5z"/><circle r="1" fill="#dad5d8" transform="matrix(61.47528 4.8382 -.35497 4.51031 141.2 160.3)"/><circle r="1" fill="#232a21" transform="rotate(-78.3 54.8 16.5) scale(31.33185 53.10372)"/><path fill="#4a5540" d="M234 5L125 67l64 10z"/><circle r="1" fill="#cce5fa" transform="matrix(-13.66952 -6.35074 12.61805 -27.15947 240.5 15.5)"/><path fill="#526046" d="M137 18.3l134 35.1-130.6 21.9 28.5-70.8z"/><path fill="#c4c5d1" d="M219.9 83.2l-100-3.4.2-5 100 3.4z"/><path fill="#fafcfd" d="M146.1 38.7l-21.8-17.9 74.6-31.5-86-5.3z"/><circle r="1" fill="#7a7e9e" transform="rotate(172.7 12 83.1) scale(30.14783 19.60422)"/><path fill="#5d6c5f" d="M184 73L54 18l69 5z"/><path fill="#b8b9d1" d="M232 154l17 2-7 29z"/><ellipse cx="164" cy="122" fill="#a0998a" rx="71" ry="13"/><circle r="1" fill="#242f29" transform="matrix(59.10448 .33822 -.05233 9.14463 234.3 62.3)"/><path fill="#6a6953" d="M191.2 130.5l-55.5 28.3-29.1-1.6 7.8-11.5z"/><path fill="#596959" d="M52 4h32v63H52z"/><path fill="#363742" d="M242.4 138.7l-14.3 26.9-33.5 6.7 3.4-7.5z"/><path fill="#625859" d="M204 92h52v22h-52z"/><path fill="#8a9fcd" d="M26 70h3v34h-3z"/><circle r="1" fill="#9b968b" transform="matrix(-27.0565 -5.25513 .85798 -4.41739 150 58.6)"/><path fill="#414726" d="M89.4 145.8l-39-.6.2-13 39 .6z"/><circle r="1" fill="#000501" transform="matrix(15.1515 7.7868 -3.777 7.34923 9.9 74.7)"/><circle r="1" fill="#506750" transform="matrix(-19.82566 11.35757 -5.29747 -9.24721 209.9 24.3)"/><path fill="#c1c9e6" d="M82 88l19 11 1-11z"/><circle r="1" fill="#908f8f" transform="matrix(-29.2052 -15.59412 4.7988 -8.98735 106.1 62.6)"/><path fill="#d2e3f4" d="M230 23l1-39 40 78z"/><path fill="#cbcad1" d="M127.7 163.3l50.6 7.7 17.1-13.9h-32.6z"/><circle r="1" fill="#777a6d" transform="rotate(166.5 77.6 83.3) scale(50.43431 8.91609)"/><path fill="#c3dcda" d="M194 13l33-29h-29z"/><ellipse cx="91" cy="154" fill="#bfbab7" rx="23" ry="5"/><path fill="#3a4e43" d="M114.6 43.7l18.9-1.3-4.6-16.5-18.2 4.9z"/><path fill="#95a987" d="M185-9l-40 25-10 39z"/><path fill="#81899b" d="M28.5 83.7l6.9 86.4 3.4-25.1-12.1-5.6z"/><path fill="#b9c1d4" d="M-.7 126.7l16 1.6-.6 5-16-1.6z"/><path fill="#e2f8ff" d="M215.1 8.8l1.9-2.7-5-22.1 21.5 14.9z"/><path fill="#3c3b41" d="M267 170l-32-21 4-21z"/><path fill="#9099a8" d="M165.4 95.6l-27.3-23.1L182 83l-14 65.2z"/><path fill="#c1d3e3" d="M271 37l-58 2 58-52z"/><path fill="#51505b" d="M157 82l1 14-46 8z"/><circle r="1" fill="#344133" transform="matrix(15.2086 -9.89216 40.11265 61.67076 32.7 38)"/><path fill="#382932" d="M2 87.7l26 2.8-4 37.8-26-2.8z"/><ellipse cx="243" cy="75" fill="#5d5c53" rx="49" ry="4"/><path fill="#989bac" d="M144.2 101.2L95.3 90.7l5.1 15.5L113 83.4z"/><path fill="#7e7a6d" d="M163 117l-78 23-46-25z"/><path fill="#1f1d21" d="M59 111h22v4H59z"/><path fill="#52554c" d="M179 153.6l13-8.2-20.9-8.6-.4 18.5z"/><path fill="#e9dccf" d="M26 145h16v4H26z"/><path fill="#707892" d="M33 161h87v9H33z"/><path fill="#3e3e39" d="M21 142l-35 12-2-26z"/><path fill="#dde2e6" d="M87.7 150.3l-.7 4-14.7-2.6.7-4z"/><path fill="#d1cdcb" d="M140 154h20v13h-20z"/><path fill="#5a6748" d="M230.2 52.2l-24.5-19.6 7.6-12.2-92.6 24.2z"/><path fill="#505340" d="M60 156l-22-4 58-23z"/><path fill="#9aa0a7" d="M92.1 103.2l10.5.5-51 22.3 18.6-.4z"/><path fill="#b4aca1" d="M131 144l-16-12 51-9z"/><path fill="#818595" d="M68.6 102.3l17.6-12.7-28.9 13.7 27.5 18z"/><path fill="#292c41" d="M157 63l-23-4 18 15z"/><path fill="#43523e" d="M96.6 82.4l-9.2 2.1-35.9-15.8L28.4-5.8z"/><circle r="1" fill="#8096ae" transform="matrix(-.6934 .72055 -27.1386 -26.11605 195.7 138.3)"/><path fill="#344646" d="M87 21h14v18H87z"/><path fill="#b2b8c1" d="M117 76h49v6h-49z"/><path fill="#141713" d="M28 74h25v12H28z"/><path fill="#f1eff1" d="M98 18l52-21-14 26z"/><path fill="#4d6042" d="M208.1 49.5l3.5 8.7 59.4 1.6-35.9-21.7z"/><ellipse cx="211" cy="19" fill="#4e6149" rx="7" ry="19"/><path fill="#4f4850" d="M122.4 86.6l-6.9 25.4-2.5-15.4 14.3-7.5z"/><path fill="#738875" d="M193.4 11.9L135 25.7l86.3-5.6 7.8-15.5z"/><path fill="#5a5d72" d="M-16 167l3-27 63 14z"/><path fill="#93928e" d="M152.1 87.4l66.1-10.1 2.2-9.3 24.9 18.3z"/><path fill="#c0d4e8" d="M82 7h31v7H82z"/><circle r="1" fill="#97a8a0" transform="matrix(-11.27617 -6.61052 2.86893 -4.8938 149.7 26.7)"/><path fill="#708061" d="M140.3 15l1.3-1 38.8 7.6 3.1 25.1z"/><path fill="#9b9288" d="M17.2 121.7l-6.4-2.8 2-4.6 6.4 2.8z"/><path fill="#6a7f7f" d="M96.9 22.2l28.2 18.5-32.4-27.9L59.3 28z"/><path fill="#dfe6e7" d="M220.1 24.1l30.2-10.6L232.5-16l-3.8 59.1z"/><ellipse cx="126" cy="111" fill="#998b88" rx="29" ry="8"/><path fill="#8b99a3" d="M244.1 100.1l14.5 37.6-8.4-31.5-1.8-16.7z"/><path fill="#5a565d" d="M29 135l-2-36-9 3z"/><path fill="#aeaa92" d="M130 56.7l-4.6 5.4-15.3-12.8 4.5-5.4z"/><path fill="#55675b" d="M39-12l12 35L68 4z"/><path fill="#585245" d="M113.4 54.7l-4.1 4.9 13.6 7.3.2-4.1z"/><path fill="#888174" d="M161 69l37 7-30-17z"/><ellipse cx="145" cy="1" fill="#dce3e7" rx="25" ry="8"/><path fill="#32402b" d="M136 144l8-4 3 9z"/><path fill="#8e91a8" d="M87.3 82.9l-8.9.9-3.2 7.9L62 93.8z"/><path fill="#a8b7a7" d="M157.1 10.8l13.5-3.7-23.9-.2 34.9 27.4z"/><path fill="#3f4737" d="M167 42l19 17-39-4z"/><path fill="#afb29d" d="M173 112h25v9h-25z"/><path fill="#5c4d44" d="M183.2 84.6l11.6 3-2 7.8-11.6-3z"/><path fill="#adaa99" d="M133.5 54.7l31.5 5.6-.5 3-31.5-5.6z"/><path fill="#494344" d="M95 105h21v3H95z"/><path fill="#576e45" d="M176.4 10.1l7.8-14.4-14.9-2.5 2.5 13.7z"/><circle r="1" fill="#989993" transform="matrix(-12.49084 -1.94776 .93212 -5.97763 133.3 73)"/></g></g></svg>