<svg xmlns="http://www.w3.org/2000/svg" viewBox="0 0 4752 3168"><defs/><filter id="a"><feGaussianBlur stdDeviation="12"/></filter><rect width="100%" height="100%" fill="#4f2828"/><g filter="url(#a)"><g fill-opacity=".5" transform="translate(9.3 9.3) scale(18.5625)"><ellipse cx="138" fill="#b3c6c5" rx="136" ry="243"/><circle r="1" fill="#e1ffff" transform="matrix(-1.2233 16.41733 -93.30367 -6.95235 186.7 22.8)"/><ellipse cx="232" cy="150" fill="#30394a" rx="80" ry="47"/><path fill="#bfab99" d="M81 53h175v42H81z"/><circle r="1" fill="#774e4c" transform="matrix(-2.92944 72.57297 -113.49959 -4.58147 115.9 161)"/><ellipse cx="31" cy="19" fill="#3e5269" rx="75" ry="51"/><ellipse cx="203" cy="2" fill="#38b2bf" rx="58" ry="17"/><circle r="1" fill="#005486" transform="rotate(-129.1 166.1 20.5) scale(45.60966 20.60659)"/><ellipse cx="152" cy="27" fill="#eddccd" rx="46" ry="15"/><ellipse cx="139" cy="42" fill="#8a6043" rx="106" ry="8"/><ellipse cx="5" cy="100" rx="11" ry="34"/><path fill="#ffb896" d="M157 58l22 41.5-16 8.5-22-41.5z"/><circle r="1" fill="#2488c1" transform="matrix(-2.9599 -22.18341 24.59667 -3.2819 9.5 11.7)"/><path fill="#f6ddce" d="M132-9l61 21 78-25z"/><circle r="1" fill="#a3490b" transform="matrix(3.30434 -13.97833 49.45953 11.69174 133.7 169)"/><path fill="#31a5cb" d="M60-16l95 12-90 21z"/><ellipse cx="48" cy="47" fill="#8a4e48" rx="15" ry="83"/><path fill="#edd9bc" d="M275.3 72.2l-23.4 11.4-27.2-55.8 23.4-11.4z"/><path fill="#0a1019" d="M38.3 55.6l-26.6-4.7.8-7.8 23-8z"/><path d="M62 57l43-10-32-4z"/><circle r="1" fill="#685450" transform="rotate(135 72.6 71.4) scale(8.31893 31.7923)"/><path fill="#feab86" d="M114.4 9.6L70.9 21.2l-1.3-4.8 43.5-11.6z"/><circle r="1" fill="#3c323a" transform="rotate(3.2 -2400 1846.6) scale(12.05916 27.57689)"/><circle r="1" fill="#006b85" transform="matrix(49.6594 -19.75543 2.98918 7.51393 253 0)"/><circle r="1" fill="#686383" transform="matrix(-26.46725 -4.81372 3.05348 -16.7889 24.6 149.1)"/><path fill="#af9b9c" d="M116 155l44-48-8 49z"/><path fill="#9a8889" d="M25 54l125 9-57 51z"/><circle r="1" fill="#978085" transform="matrix(-9.8468 1.13616 -3.1774 -27.53768 183.5 151.9)"/><path fill="#8a432c" d="M219 99l-12 25-88-19z"/><path fill="#1c364e" d="M208 123l-20 11 52 51z"/><path fill="#db8446" d="M161.6 33.2l1.7 8.9-55 10.7-1.6-8.9z"/><path fill="#000004" d="M21.1 129.6l-21.6 7.9-10.6-29.1 21.6-7.9z"/><ellipse cx="202" cy="45" fill="#55696c" rx="31" ry="9"/><path fill="#ecf7f5" d="M135.4 8.2l30.7 3.3 31.7 22.4-31.3-1.4z"/><path fill="#cbdbe4" d="M143 33l-32 3-10-22z"/><circle r="1" fill="#6f737c" transform="rotate(-60.4 202.3 -143.8) scale(15.41067 50.21552)"/><circle r="1" fill="#be7865" transform="rotate(7.3 -678 1290.8) scale(52.33111 9.84978)"/><ellipse cx="107" fill="#007e94" rx="53" ry="5"/><path fill="#4b3128" d="M35 0h27v22H35z"/><path fill="#9b6e70" d="M27 121L49-16l11 81z"/><path fill="#dee5e3" d="M202.9 34.9l60.4 6.5 5.8-13.3-54.1-9.6z"/><path fill="#6f4d44" d="M76 77l-9 108-33-93z"/><path fill="#cf8146" d="M231 40h25v15h-25z"/><path fill="#f39f93" d="M66 74l-12-2 15 27z"/><path fill="#8581a7" d="M66.9 138.4l33.9-31.3-34 11.4 23.3 21z"/><path fill="#3c77ab" d="M81.4 38.5l1.3-18-13.8 5L62 51.9z"/><path fill="#a4afaa" d="M188 55h58v19h-58z"/><path fill="#81523e" d="M134.4 67.5l1.5-10 20.1-9.3L139.9 78z"/><path fill="#483029" d="M160.8 144.4l-9.7-2.3 14 37.8 11.6-63.2z"/><path fill="#005884" d="M222 131h34v23h-34z"/><path fill="#bcbebe" d="M97 15l15 19 34-39z"/><path fill="#f3c5ac" d="M167.6 55.5l-9 3.6-15 2.1L155.5 85z"/><path fill="#bad2da" d="M87 36l16 1-5-8z"/><path fill="#99a4a0" d="M179.4 49.6l-32.2-4.3 25.2-8.7 31.3 6.5z"/><path fill="#24181d" d="M80.7 53.1l23-16-33.1 6.7-4.3-1z"/><path fill="#7b868e" d="M219.7 14.9L271 6l-5.3 13.6-94.8-.2z"/><path fill="#008fa6" d="M167 8l-28-5 6-12z"/><path fill="#a3818d" d="M170.4 122.7l-65.9 5.6 61 12.5-12.6-32.3z"/><path fill="#008bc3" d="M27.3 24.3L24.9 32l-40.2-12.3 2.4-7.7z"/><path fill="#58514e" d="M19 32L2 87l-18-56z"/><circle r="1" fill="#9c9b91" transform="matrix(15.73682 15.79202 -22.73308 22.65362 110 77.2)"/><path fill="#7a4638" d="M139 34h44v3h-44z"/><path fill="#6d6060" d="M111.1 89.3l3.7 82.7-10.4-51.7 5.1-84.1z"/><path fill="#2f3236" d="M93.8 45.4L85 47.1l-4.8-24.5 8.8-1.7z"/><path fill="#0060b0" d="M204.5 132.5l-10-5.1-6.1 5.1 18.3 6.7z"/><path fill="#4a515b" d="M-16-8l48.7 29.7-.4 5-47.7-16.5z"/><path fill="#904924" d="M102.7 50.5l-14 1.3 6.1-12.7 36.4-2.7z"/><circle r="1" fill="#6d7071" transform="matrix(-1.2995 -40.37663 12.02977 -.38717 27.4 95.3)"/><circle r="1" fill="#5c3831" transform="rotate(6.2 -938.3 1348.2) scale(45.04276 3.71311)"/><path fill="#ffc1a2" d="M163 85h13v13h-13z"/><path fill="#463f42" d="M214 185l56-16-52-22z"/><circle r="1" fill="#484e70" transform="matrix(-19.98704 -2.52495 .92435 -7.317 97.8 130)"/><circle r="1" fill="#773d20" transform="matrix(11.61336 2.36277 -3.56433 17.51925 97 161.3)"/><path fill="#0093aa" d="M262-16l-54 29 63-12z"/><circle cx="74" cy="9" r="8" fill="#8798cb"/><path fill="#ae8366" d="M209 37h6v32h-6z"/><path fill="#82584f" d="M19.1 31.2L-16 61.3l13.4-2.2L52 19.6z"/><path fill="#c1a795" d="M224 115h16v5h-16z"/><path fill="#625450" d="M96 107L54 85l-21 42z"/><path fill="#888884" d="M55 96h10v20H55z"/><path fill="#1e3d50" d="M13.5 64.5l29.8-16.2L17 57.2l-33 2.5z"/><path fill="#aca197" d="M74.7 12l70.4-10.9-6.9 3.7-57.9 16.8z"/><path fill="#7a8ead" d="M39 55L-2 66h32z"/><path fill="#382d31" d="M-13 174l22 3 7-45z"/><path fill="#b9bfb9" d="M139.5 57h-31v-6h31z"/><path fill="#6b5269" d="M112 132h39v13h-39z"/><path fill="#ecf3ed" d="M162 21h37v14h-37z"/><path fill="#00a4bf" d="M180 12h37v2h-37z"/><path fill="#474c4e" d="M173 78l14 2-9-21z"/><ellipse cx="155" cy="118" fill="#ddb7b4" rx="2" ry="11"/><path fill="#91b7e6" d="M-15 21l9 10 21-3z"/><path fill="#8b7696" d="M80.7 136l9.2 4.2-10.6 23.7-9.2-4z"/><path fill="#42484e" d="M215 38h15v14h-15z"/><path fill="#868e91" d="M208.9 62.1l6.6 34.4 6.9 2 45.3 1.2z"/><path fill="#cf7e47" d="M113.7 159.7l-7.4-10.3 32.8 8.3-23.5 3.6z"/><path fill="#452e29" d="M64.6-10.6L52.7-4.4l16.6 25.3-21.5-5.4z"/><path fill="#006e7a" d="M117.7-3l-1.9 10.8L88.3 3l1.9-10.8z"/><path fill="#8e5b52" d="M155.4 108.3l-30.4-6 3.6-18.6 30.4 6z"/><ellipse cx="141" cy="40" fill="#e4a26b" rx="25" ry="3"/><ellipse cx="27" cy="48" fill="#041a2a" rx="12" ry="5"/></g></g></svg>