<svg xmlns="http://www.w3.org/2000/svg" viewBox="0 0 4752 3168"><defs/><filter id="a"><feGaussianBlur stdDeviation="12"/></filter><rect width="100%" height="100%" fill="#4c2840"/><g filter="url(#a)"><g fill-opacity=".5" transform="translate(9.3 9.3) scale(18.5625)"><circle r="1" fill="#b8dbb5" transform="rotate(-140.6 79.3 -5) scale(255 110.66328)"/><circle r="1" fill="#412341" transform="matrix(14.98784 -79.95575 24.65298 4.62124 217.7 113)"/><circle r="1" fill="#c3bdb0" transform="rotate(123.3 31.1 72.8) scale(19.86442 123.52902)"/><ellipse cx="229" fill="#eaffff" rx="46" ry="12"/><circle r="1" fill="#4b6364" transform="matrix(42.63097 -39.20641 88.63663 96.37878 45.6 149.6)"/><path fill="#d9eff2" d="M179 37h21v40h-21z"/><circle r="1" fill="#74a032" transform="matrix(.9997 -20.17243 112.88782 5.59443 82.1 6.3)"/><path fill="#f1f4ed" d="M68 47.3l43.7-5.4 2.3 18.8-43.7 5.4z"/><path fill="#e8f5fe" d="M160.1 46.9l-28.4-1.6 2 18.9 6.6.6z"/><circle r="1" fill="#a1cff9" transform="rotate(-112.3 123.5 -82.8) scale(46.08948 22.65496)"/><ellipse cx="88" cy="28" fill="#44503a" rx="27" ry="16"/><circle r="1" fill="#3c1b37" transform="matrix(-7.29362 37.60622 -15.7055 -3.04604 228.3 93.3)"/><path fill="#695557" d="M93 185L43 93.8l22.1-39.9 39.3 90.3z"/><circle r="1" fill="#62656c" transform="matrix(-65.11949 -4.09697 1.5145 -24.07241 180.4 158)"/><path fill="#514d50" d="M134 91l-8-51-23 24z"/><path fill="#edf9ff" d="M107 119l-10-17 5 36z"/><path fill="#403148" d="M195.8 32.3l20.4-23.6 11 10.5 8.5 21.3z"/><circle r="1" fill="#d9bfaa" transform="matrix(18.78373 22.47814 -10.78435 9.01188 136 110.5)"/><path fill="#92a99c" d="M216 11l-80 19 31 37z"/><path fill="#002332" d="M188.8 156l31 7.7-4.6 18.4-31-7.8z"/><path fill="#45343a" d="M154 76h23v19h-23z"/><path fill="#929085" d="M159 118h55v33h-55z"/><path fill="#edeae0" d="M30 58h29v10H30z"/><path fill="#2b314a" d="M14 95h46v62H14z"/><path fill="#384131" d="M63.4 23.4L-16-16l12.4 7.3 22.2 24.9z"/><circle r="1" fill="#1f2836" transform="matrix(-14.31467 -28.96353 5.89677 -2.91437 228.6 130.8)"/><circle r="1" fill="#b6c1a1" transform="rotate(17.3 -91.3 126.3) scale(51.56 10.90939)"/><path fill="#b689a7" d="M208.2 53.5l10.2 16.7L234 38.5l37-16.6z"/><circle r="1" fill="#94af65" transform="matrix(-65.2058 -12.07853 3.54182 -19.12044 135.7 11)"/><path fill="#b0b0a0" d="M221 143h10v27h-10z"/><circle r="1" fill="#587f9d" transform="matrix(-17.75351 5.24773 -3.1394 -10.62085 93.8 78.9)"/><path fill="#5b5f5c" d="M87.3 48.1l-27.2 7-35.2 5.4-40.9-8.2z"/><circle r="1" fill="#8e787a" transform="matrix(-6.73763 2.31995 -13.34475 -38.75596 76.8 120.7)"/><path fill="#bb6a55" d="M108.7 98.9l-32.5.7 47.5-7.5 17.8 17.7z"/><path fill="#b9ddf6" d="M228.4-4.2l-27 25.2-15.8-16.8 27-25.2z"/><path fill="#cbcbdb" d="M252 32h4v53h-4z"/><ellipse cx="108" cy="105" fill="#e4d2ca" rx="14" ry="7"/><path fill="#373b3b" d="M124.8 148.7l-57.9-3.4-3.8 39.7 29.1-54.8z"/><path fill="#133581" d="M177 46.5h-10v-15h10z"/><path fill="#849283" d="M21 102l-37 19 29 2z"/><path fill="#585e74" d="M271 104.2V70.4l-44.5 36.3 11.1 25.5z"/><path fill="#7990a6" d="M117.1 149.3l31-1.5 1.9 8.8-32.1 25z"/><path fill="#8d4e59" d="M114.8 105.4l31.7 37.6-14.6 7.3-12.5-8.6z"/><path fill="#7d577d" d="M50 156l-3-52-11 47z"/><path fill="#a8b2e6" d="M160 45l-33-18 39 6z"/><path fill="#d4cab3" d="M120.8 138.5l36-20.5-4.4-12.3-11.3-6.1z"/><path fill="#9886a6" d="M18.4 77.7l22.7 15.7-7.5-23.7.6-14z"/><path fill="#6b5e67" d="M187.8 81.6l20.6-36.3L224.7 72 192 134.2z"/><path fill="#924778" d="M257.1 48l-6.6 30.6L231 45.8l6.6-15.9z"/><path fill="#6d7864" d="M123 110l-13 7 45 12z"/><ellipse cx="1" cy="70" fill="#576e61" rx="11" ry="36"/><path fill="#213046" d="M98 28l26 18-8-17z"/><ellipse cx="55" cy="125" fill="#331440" rx="25" ry="7"/><path fill="#1c283a" d="M209.1 107.4l18.2-4.7-12.8 82.3 1.4-63.4z"/><path fill="#5d5656" d="M66.5 38.3l4.9 65.6 7-32.1-31.8 36.1z"/><ellipse cx="236" cy="13" fill="#517790" rx="38" ry="3"/><path fill="#d8d6cd" d="M99.2 58.6L74.8 48.2l-8.7 28.2 5.3.3z"/><path fill="#213a57" d="M153 38l-5 5-19-7z"/><circle cx="168" cy="115" r="5" fill="#fbf7eb"/><circle r="1" fill="#532e20" transform="rotate(-109.8 172 -6.3) scale(28.042 2.66331)"/><ellipse cx="13" cy="99" fill="#192722" rx="47" ry="4"/><path fill="#636d64" d="M-1.4 135.7l27 43.1-41.6-16.4 57.2-48.7z"/><path fill="#f9fbfa" d="M151.9 48.1L131.4 46l1 10.3 22.6-8.1z"/><path fill="#9f9494" d="M243 112.7l35 14.8-11 25.8-35-14.8z"/><circle r="1" fill="#9bb660" transform="rotate(-169 95 4.4) scale(7.49525 22.97187)"/><path fill="#c4bebc" d="M153 77l-2-21 10 20z"/><circle r="1" fill="#69823c" transform="matrix(-39.05161 22.27465 -2.48287 -4.35294 83.5 11.8)"/><path fill="#eefaff" d="M101 43h13v10h-13z"/><path fill="#f1f7ff" d="M180 64h13v10h-13z"/><path fill="#002790" d="M241 126l-2-15-10 14z"/><path fill="#9a7868" d="M155.8 112.5l-.1 12.2 11.7-12.5L149.3 58z"/><path fill="#575e55" d="M132 20l9 9 34-10z"/><path fill="#cac9c5" d="M41.1 43.3l26.7 34.3L52.9 54l8-15.6z"/><path fill="#877b79" d="M61.2 137.9l6.7 13.7 31.4-31.5-7.7-1z"/><path fill="#00140d" d="M109 154h6v16h-6z"/><path fill="#617268" d="M109.2 182.5L70.9 180l12.9-44.4 20.9 19.1z"/><circle cx="47" cy="67" r="10" fill="#c7c6bf"/><path fill="#837b71" d="M148.4 72.1l-31.7-4.8-30.1-22.7L110.2 56z"/><circle cx="225" cy="84" r="15" fill="#732d42"/><path fill="#63453e" d="M229.9 98.4l-1.6 19 36.2-27.3 4 38.2z"/><path fill="#1e393c" d="M48.6 168l-7.3 2.7-23.9-19.3-5.3-36.7z"/><path fill="#c3b8b2" d="M196.7 52.6l7.9-13.1-26.4 14.4 47.8 19z"/><path fill="#d2d6ce" d="M160.1 134.2l-8.4-29.4 1.8-7.1-21.7 12.6z"/><path fill="#b3afc6" d="M136.3 31.5l-16.1-11.8-2.4 10.8 20.2-6.1z"/><path fill="#49a1a8" d="M51 147l-1 10-14-8z"/><path fill="#0f1a2d" d="M157 84l9 1 8-12z"/><path fill="#cac1d1" d="M162.1 57.9l5.7-11.7 8 4-5.6 11.6z"/><path fill="#6c626e" d="M173.4 41.8l-11 7.5-20.1 19.3 13-24.2z"/><path fill="#613354" d="M126.4 146.2l-6.2-6.4 22.1-7.4-5.8 24.8z"/><path fill="#87566c" d="M62 129l27-15-35-1z"/><path fill="#a2a29e" d="M178 73h7v43h-7z"/><path fill="#5d6484" d="M169.1 71.3l4.5-22.8L159.1 24l25.1 21.5z"/><path fill="#514d5b" d="M205.2 37.9l24.7-30.2-30 42 14.3 12.2z"/><path fill="#b6cbe1" d="M144 142l15-15-12 2z"/><path fill="#163a49" d="M198.1 185l-13.3-31.3 3-3.4 48.5 34.7z"/><path fill="#c7a18c" d="M166 83h5v28h-5z"/><path fill="#bdb5d3" d="M180 38l-5-13h-13z"/><path fill="#615652" d="M77.2 84l-15.5 1.8L-16 33.4l109.9 78.2z"/><path fill="#959791" d="M212.4 116l-24.2 25.7-17.6-5.3 44.2 11.6z"/><path fill="#c8d9d7" d="M249.8 83.8l6.9-16.8-3.4-18.5.1 40.7z"/></g></g></svg>