<svg xmlns="http://www.w3.org/2000/svg" viewBox="0 0 1800 1200"><defs/><filter id="a"><feGaussianBlur stdDeviation="12"/></filter><rect width="100%" height="100%" fill="#4a505e"/><g filter="url(#a)"><g fill-opacity=".5" transform="translate(3.5 3.5) scale(7.03125)"><circle r="1" fill="#fff" transform="matrix(14.32447 79.61205 -242.68936 43.6667 97 58.4)"/><circle r="1" fill="#6e7b84" transform="matrix(253.99825 -22.58069 3.1926 35.9118 107.2 143)"/><ellipse cx="113" cy="27" fill="#bfcbd3" rx="229" ry="80"/><circle r="1" fill="#747c85" transform="matrix(-153.1897 37.59232 -5.7703 -23.51413 84.6 145.3)"/><circle r="1" fill="#cfd1d3" transform="matrix(.4329 41.337 -88.73696 .92929 81 6)"/><ellipse cx="255" cy="18" fill="#9aacbc" rx="70" ry="84"/><circle r="1" fill="#516579" transform="matrix(-92.25455 -2.80677 .30452 -10.00906 215.2 115.7)"/><ellipse cx="22" cy="138" fill="#84888d" rx="105" ry="30"/><path fill="#43515d" d="M261.9 123.5l11.3 39.5-47.1 13.5-11.3-39.5z"/><ellipse cx="190" cy="81" fill="#a8afb8" rx="255" ry="19"/><ellipse cx="129" cy="124" fill="#757f8a" rx="59" ry="18"/><path fill="#95a7bb" d="M115 19l-43 2 28-17z"/><ellipse cx="90" cy="111" fill="#456283" rx="169" ry="2"/><ellipse cx="18" cy="87" fill="#acb3bc" rx="240" ry="22"/><circle r="1" fill="#d0d3d5" transform="matrix(-92.82365 7.5535 -1.31175 -16.11981 46.5 0)"/><circle r="1" fill="#b5babf" transform="rotate(4.7 -576.4 1430) scale(125.68544 21.91237)"/><ellipse cx="236" cy="104" fill="#56718b" rx="47" ry="4"/><path fill="#96999d" d="M0 113h50v28H0z"/><path fill="#54575c" d="M59.8 165.3l54.8-1.8-25-5.5 6.1 24.2z"/><circle r="1" fill="#98acc0" transform="matrix(-78.82791 -45.87894 12.44894 -21.38942 221.7 -.2)"/><path fill="#cfd1d2" d="M186.8 8.1l-58.1 24.1L115.5-16l39 25.4z"/><path fill="#3c4045" d="M92 160h53v3H92z"/><path fill="#747981" d="M92.9 182.7l18.4-33 28.3 35.3 4-22.5z"/><ellipse cx="168" cy="75" fill="#a9b2b9" rx="35" ry="31"/><ellipse cx="152" cy="153" fill="#798189" rx="38" ry="3"/><path fill="#c5c6c9" d="M64 53l7-33-87 26z"/><path fill="#536f8f" d="M69 108h125v2H69z"/><ellipse cx="60" cy="145" fill="#6b6f76" rx="31" ry="5"/><path fill="#969699" d="M0 168h35v2H0z"/><circle r="1" fill="#56626e" transform="matrix(31.22518 -53.8538 15.59406 9.04165 213 159.7)"/><ellipse cx="83" cy="114" fill="#959ea9" rx="101" ry="2"/><path fill="#c7c9c9" d="M127.9 30.2l54 10.8 24.2-8.5-107-6.4z"/><path fill="#b4bcc6" d="M1.7 109.7L-16 124l11.3-28.1 76.8 12z"/><path fill="#515962" d="M168 151l26-9-47 1z"/><path fill="#81868d" d="M168.4 131.8L94 144.5l-40.3-30.7 113.9 18.3z"/><path fill="#46596c" d="M186 108h70v5h-70z"/><path fill="#a9b4c1" d="M81.1 2.3l30.6 8.8-28.2 25.1 20.1.7z"/><path fill="#a6b2b9" d="M182 57h74v43h-74z"/><path fill="#6a717a" d="M114 165l-23-21 47-4z"/><circle r="1" fill="#a9b7c5" transform="rotate(-90.5 88 -82.7) scale(4.83344 23.08367)"/><path fill="#a9b2bb" d="M50 99h112v8H50z"/><ellipse cx="134" cy="161" fill="#070d11" rx="8" ry="1"/><path fill="#9eaebd" d="M68 30h41v4H68z"/><path fill="#b9bec1" d="M240 56.3l-69.5-1.1L252 41.6 235.1 56z"/><path fill="#bcc2c8" d="M225 4h19v8h-19z"/><path fill="#8c8f93" d="M18.9 166.3l-24.7-35.2 5-3.4 24.6 35.2z"/><ellipse cx="172" cy="157" fill="#4a5259" rx="21" ry="2"/><path fill="#2e373d" d="M244 165l27-12-10 16z"/><path fill="#c2c7ca" d="M190.9 5.5l-88.1 23.3 89-5.8-20.5-3.1z"/><path fill="#6f7780" d="M24.9 118.4l218.6-6-106.8 20.8 25.8-14.3z"/><path fill="#8a8e93" d="M-17 152.6l-2.3-8.7L87 115.4l2.3 8.7z"/><path fill="#6f7780" d="M96 167h102v3H96z"/><circle r="1" fill="#b8bec5" transform="matrix(.92194 12.2829 -23.25587 1.74556 22.4 28.8)"/><path fill="#aab5c2" d="M89.6 34.4l35.8-11L68.2 9l46.6 18.3z"/><ellipse cx="216" cy="161" fill="#49535d" rx="40" ry="2"/><path fill="#3e454d" d="M226 154h25v3h-25z"/><path fill="#adb5be" d="M3 54h98v55H3z"/><ellipse cx="93" cy="39" fill="#c9c9c9" rx="39" ry="4"/><ellipse cx="60" cy="110" fill="#69819b" rx="53" ry="2"/><path fill="#95a7b9" d="M250.8-16l16 7.5-28.9 31.1 25.4 28.1z"/><path fill="#606b77" d="M169.2 137.2l42.2 12.2-40-22 59.1 57.6z"/><circle r="1" fill="#626d79" transform="matrix(26.74072 5.83044 -1.544 7.0814 200.3 126.1)"/><path fill="#757a82" d="M56.6 140l-38.5-15.4 104.6 52.9-50.5-16.8z"/><path fill="#7f8188" d="M69 170l-34-5 9-26z"/><path fill="#babfc7" d="M110.6 5l-.8 5-44.4-7 .8-5z"/><path fill="#d4d5d6" d="M0 6h75v6H0z"/><path fill="#a1b1c3" d="M208.5-9l36.7 30-74.3 10.5 10.7-17.9z"/><path fill="#d3d5d6" d="M145.6 9.2l-23.8-4.7-37.1-3L160.6-16z"/><ellipse cx="149" cy="136" fill="#383c3f" rx="7" ry="1"/><ellipse cx="126" cy="65" fill="#b2b7bd" rx="46" ry="21"/><path fill="#727982" d="M151.9 127.6l35.1 9.3-18.4-19.2-82.4 14.5z"/><path fill="#7c848e" d="M106 162h17v3h-17z"/><path fill="#65798e" d="M229 100h27v5h-27z"/><path fill="#4f5459" d="M148.4 167.8l-30.9-2.7.1-1 30.9 2.8z"/><path fill="#95a9be" d="M161.3-.7l1.2-5.9L196.7.7l-1.2 5.9z"/><ellipse cx="29" cy="157" fill="#6f7075" rx="16" ry="3"/><ellipse cx="82" cy="158" fill="#4d5158" rx="7" ry="1"/><path fill="#4d545c" d="M105 152h11v2h-11z"/><path fill="#737a84" d="M147 147h17v9h-17z"/><path fill="#72889e" d="M187.6 107.7l36.9-10.5-47.2 8-29.1 3.4z"/><path fill="#a6b2be" d="M157.2 36.4l2.3-2-27.9 2.8-33.9-6.7z"/><path fill="#808892" d="M85 157h30v2H85z"/><path fill="#585e65" d="M116 141h12v3h-12z"/><path fill="#5b636c" d="M76 147l17-8-9 10z"/><path fill="#47515c" d="M195 139h61v2h-61z"/><path fill="#313033" d="M38 169h6v1h-6z"/><path fill="#515e6d" d="M271 129.8l-27.1-24.5 16.4 2-27.3 28.3z"/><path fill="#a6b4c0" d="M223 45l-66 6 41-18z"/><path fill="#454f5b" d="M250.4 135.4L219.5 185l27.4-41.7-13.5-4.6z"/><ellipse cx="241" cy="94" fill="#a6afb6" rx="82" ry="6"/><path fill="#747c86" d="M93 134h108v2H93z"/><circle r="1" fill="#93a6ba" transform="matrix(20.4702 1.39552 -.29378 4.30927 236 .2)"/><path fill="#5b646e" d="M201.4 177.3l-42.6-34.9 46.7-12.4-50 16.5z"/><path fill="#8f939a" d="M41 166.5v1l-22-2v-1z"/><path fill="#464e57" d="M128 109h2v8h-2z"/><path fill="#c8c9c9" d="M131 31h80v2h-80z"/><path fill="#808992" d="M164.5 136.4l8.3-.1-38.7-10.2-1.3 7.1z"/><ellipse cx="179" cy="165" fill="#4d555c" rx="32" ry="1"/><ellipse cx="28" cy="148" fill="#707278" rx="18" ry="2"/><path fill="#cfd0d0" d="M57 23h46v4H57z"/></g></g></svg>