<svg xmlns="http://www.w3.org/2000/svg" viewBox="0 0 1800 1200"><defs/><filter id="a"><feGaussianBlur stdDeviation="12"/></filter><rect width="100%" height="100%" fill="#383e45"/><g filter="url(#a)"><g fill-opacity=".5" transform="translate(3.5 3.5) scale(7.03125)"><circle r="1" fill="#dbffff" transform="matrix(1.30688 44.03328 -189.28465 5.61784 109.4 28)"/><circle r="1" fill="#807f81" transform="matrix(251.50283 -42.08714 12.34079 73.74563 130.7 125.4)"/><circle r="1" fill="#6db6e8" transform="matrix(.58693 -40.8423 194.41349 2.79385 131.9 .8)"/><circle r="1" fill="#fedca8" transform="matrix(88.05085 5.15175 -.69242 11.83449 67 52)"/><circle r="1" fill="#292629" transform="matrix(.93166 16.6585 -105.29243 5.88868 125.4 133.4)"/><path fill="#adc3d4" d="M0 97h65v18H0z"/><circle r="1" fill="#2a1e24" transform="matrix(11.01448 -27.02268 11.499 4.687 165 68.8)"/><path fill="#ebd5b1" d="M185.5 77.1l-5.1-22.4 34-7.8 5.2 22.4z"/><circle r="1" fill="#74828e" transform="matrix(98.7498 -64.40969 16.00293 24.5349 221.1 162.2)"/><path fill="#2b2626" d="M243.9 54.4l18.7 11.9 5.3-42.6-40.6 33.1z"/><ellipse cx="103" cy="168" fill="#798999" rx="107" ry="13"/><path fill="#97999b" d="M134.3 82.1l-14.4 29.3 64.8-2.8-28.7-6.1z"/><circle r="1" fill="#496489" transform="matrix(-3.20765 29.17995 -14.45581 -1.58908 76.4 87.8)"/><ellipse cx="59" cy="45" fill="#f1dcb7" rx="36" ry="10"/><circle cx="160" cy="88" r="14" fill="#0e182d"/><path fill="#8f9ca1" d="M210 115l4-47 20 50z"/><path fill="#43403a" d="M0 113h31v38H0z"/><circle r="1" fill="#1b4348" transform="matrix(-10.64755 3.03304 -5.8258 -20.45163 110.2 102)"/><path fill="#86b2d1" d="M0 0h41v44H0z"/><ellipse cx="42" cy="67" fill="#7d7a7c" rx="87" ry="8"/><path fill="#70747c" d="M193 69.3l69.4-49.4-73.5 96.1-7.8-51.8z"/><path fill="#61a0af" d="M98 31h140v17H98z"/><path fill="#2a2227" d="M82 116h36v26H82z"/><path fill="#a2a2ae" d="M180.3 104.4l-1.7 2.2-17.8 1.2 32.6-21.2z"/><path fill="#beaf37" d="M87.1 57.4l-20-12.6-1 6.8 15 10z"/><path fill="#9a9086" d="M150.4 40.4L177 61.6l-5.4-8.3-10.1 25.6z"/><ellipse cx="255" cy="94" fill="#564e3b" rx="37" ry="18"/><path fill="#336eb3" d="M88.1 81.9l-25.3.1-5.1 10.2 38.7 3.9z"/><path fill="#ffda9f" d="M183 53h26v11h-26z"/><path fill="#96827c" d="M141 62h6v90h-6z"/><path fill="#8f989c" d="M87.1 113.3l-.3-2.5 8.8-27.9 2 22.2z"/><path fill="#796e5f" d="M42.2 74.6L110 61.2l-9.9-20.8L93 82.2z"/><path fill="#3a3332" d="M157 111l-36 28 120-8z"/><path fill="#8798a2" d="M214 102l57 16-21 7z"/><circle r="1" fill="#677d8a" transform="matrix(-11.82926 -5.41586 6.24651 -13.64357 133.2 109)"/><ellipse cx="127" cy="57" fill="#d9c3a5" rx="32" ry="8"/><path fill="#89aedd" d="M103.2 71.9l1.6-11.9-4.2.1L127 64z"/><path fill="#3e3b40" d="M204.7 79.8l-35.6-18.5-10 53-5-22.2z"/><circle r="1" fill="#4e4f4f" transform="matrix(-.261 -10.14003 35.82507 -.92213 21.8 80.5)"/><path fill="#173152" d="M107 135h31v16h-31z"/><path fill="#c2d1e5" d="M144 107l6-5-16-1z"/><path fill="#575b61" d="M132 173l122-31-65-1z"/><ellipse cx="63" cy="168" fill="#757f8d" rx="18" ry="22"/><path fill="#51474a" d="M96.8 74.2l17.1-5.8 50.6 6.5 22-11.1z"/><path fill="#1f3653" d="M93.8 73.7l2.6 1.4-26.2 47.2-2.6-1.4z"/><path fill="#886e6c" d="M75.6 118.2l44.3-16.4-19.5 21.4-9.9-28.3z"/><ellipse cx="166" cy="151" fill="#7a767a" rx="12" ry="10"/><path fill="#6893a9" d="M55 42l27-13-30-1z"/><path fill="#ffe8bd" d="M65 37h18v10H65z"/><path fill="#869496" d="M238.9 68.7l-30.6-10.5-1.5-4.3 8.5 30.8z"/><path fill="#414243" d="M215 95.3l-9.4 5.5-1.3 1 3.4-31.7z"/><circle r="1" fill="#bdaa8b" transform="matrix(-76.97824 -.13435 .00575 -3.2933 37 60)"/><path fill="#8e9eab" d="M47.1 116.9l7.2-16.8-40.6-4.4-15 16.1z"/><path fill="#3f424a" d="M110.6 166.3l45.1-24.1 5.4 7.7-23.3 8.4z"/><path fill="#45464b" d="M53 153l-18 32 13-55z"/><path fill="#ffeed0" d="M19 60l22-18-17 3z"/><path fill="#296768" d="M121 86l-38-4 47 28z"/><ellipse cx="49" cy="43" fill="#fff4dd" rx="4" ry="11"/><path fill="#9badbc" d="M254.1 160.3l-4.7-1.8 6.5-16.8 4.7 1.8z"/><path fill="#6da4b7" d="M75 20l12 23 85-22z"/><path fill="#554d43" d="M239 56l32-53-20 80z"/><path fill="#848f98" d="M202.3 95.6l22.7 25.5-19.7-7 2 .3z"/><path fill="#5f728a" d="M88.4 171.3l66.7-39.6-31 11 8 13.4z"/><path fill="#302d30" d="M148 145l38-42-2 27z"/><path fill="#30282c" d="M176.7 42.7l-11.9 5.1 16.9 6.8-16.7 46z"/><path fill="#7ca6bc" d="M36 17l-52 5 60 24z"/><path fill="#8d736d" d="M74.5 115.2l2.7 26.1 3.3-27 6.9-10.2z"/><ellipse cx="54" fill="#85afd3" rx="192" ry="18"/><path fill="#6ca0ae" d="M112 46l41 5 22-27z"/><path fill="#272422" d="M64 123l9-11 2 20z"/><path fill="#66594b" d="M71 65l5 17 10-25z"/><circle r="1" fill="#6ea7c7" transform="rotate(157.8 109.2 36) scale(46.14272 13.02537)"/><circle cx="103" cy="81" r="5" fill="#429da4"/><path fill="#6a7788" d="M60 103l-16 4 15 14z"/><ellipse cx="242" cy="74" fill="#6a6860" rx="23" ry="13"/><path fill="#786757" d="M140.4 102.5l14.5-44-28.3 30.3-2.2 6z"/><path fill="#423f3b" d="M235 111h31l4-45z"/><ellipse cx="32" cy="152" fill="#7f8997" rx="8" ry="5"/><path fill="#8a93a5" d="M208 131l2.7 7.6-6.6 2.4-2.8-7.6z"/><path fill="#505d66" d="M271 133.9v18.8l-65.5-30.5 5.8-4.6z"/><path fill="#eed0aa" d="M135 52l-14 15-16-22z"/><path fill="#fffffb" d="M53 49h12v6H53z"/><path fill="#e2c69d" d="M179.2 59.5l13.6 6.7 23.5-13.6-19.4-6.4z"/><path fill="#a49686" d="M119.9 52.8l7.6-9.4-4.1 13.6-42.1 10.6z"/><path fill="#a59556" d="M95 47h13v8H95z"/><path fill="#89858e" d="M14 49h7v16h-7z"/><path fill="#572e35" d="M179 107h25v5h-25z"/><path fill="#858b94" d="M203.8 154.6l15.9 1.3 51.3 22.3-11.2 2.7z"/><circle cx="74" cy="94" r="7" fill="#708ca3"/><path fill="#44444b" d="M74.8 146.4l-11-37L89.2 150l-64.5 12.1z"/><path fill="#242835" d="M180.9 95.5l-37.5-2.4 12.1-31.6 4.6 39z"/><path fill="#b0beca" d="M47 165h9v5h-9z"/><path fill="#a9a191" d="M144.1 41.8L128 67.3l21.1-10.5-8.2 31.1z"/><path fill="#a4a09f" d="M158 107l22-2-16-5z"/><path fill="#0f1334" d="M113 120l7-11-13 1z"/><circle r="1" fill="#5f6361" transform="matrix(-2.26123 12.78962 -5.9983 -1.06051 0 97.5)"/><path fill="#6a5448" d="M183 112l-36 16-9-15z"/><path fill="#213d47" d="M111.8 106.2L97.3 82l6.4.3-7.2 27.5z"/><path fill="#7f7f7d" d="M187.7 74.3l-3 20.6-4-27.5 11.2-7.7z"/><circle r="1" fill="#a59796" transform="rotate(-173.1 77 48.2) scale(4.05243 10.56695)"/></g></g></svg>