<svg xmlns="http://www.w3.org/2000/svg" viewBox="0 0 3869 2579"><defs/><filter id="a"><feGaussianBlur stdDeviation="12"/></filter><rect width="100%" height="100%" fill="#4f3731"/><g filter="url(#a)"><g fill-opacity=".5" transform="translate(7.6 7.6) scale(15.11328)"><circle r="1" fill="#d4f3ff" transform="rotate(-171.9 55.3 13.9) scale(220.93093 75.33414)"/><circle r="1" fill="#5c5759" transform="matrix(-2.30446 -59.46646 106.69853 -4.13481 124.4 107.2)"/><path fill="#e4ebf3" d="M5-15l-20 98L163-2z"/><circle r="1" fill="#f4fdff" transform="rotate(-131.1 134.4 -24.7) scale(43.20462 23.8507)"/><path fill="#492b20" d="M66 78h92v43H66z"/><path fill="#6699e1" d="M271 8L151-16l-37 77z"/><circle r="1" fill="#afa6aa" transform="matrix(3.45376 -25.52081 14.8375 2.00797 132.1 148.5)"/><path fill="#b6c3c3" d="M-12-1.1l47 122.6-13.8 13.6 49.3-3.2z"/><circle cx="202" cy="62" r="15" fill="#401600"/><ellipse cx="108" cy="39" fill="#bec3c7" rx="29" ry="40"/><path fill="#755f59" d="M39 42h78v71H39z"/><circle r="1" fill="#fff" transform="matrix(-5.262 -17.28153 5.86486 -1.78578 156 57.1)"/><path fill="#fff" d="M179 39l41-13-46 39z"/><path fill="#051a2f" d="M143 141l68-21 33 65z"/><path fill="#010102" d="M151 51l-4 64-21-11z"/><ellipse cx="42" cy="34" fill="#320300" rx="3" ry="24"/><path fill="#381b12" d="M175 34h-20l20 38z"/><circle r="1" fill="#d3e0e4" transform="matrix(9.2546 -.47195 .93472 18.32893 95.2 65.2)"/><circle r="1" fill="#8a95b2" transform="matrix(30.8285 6.38428 -3.59957 17.38167 187.2 105.9)"/><path fill="#0d0d0f" d="M64 125h38v28H64z"/><path fill="#516162" d="M219 107h37v38h-37z"/><path fill="#52342a" d="M53 51h31v27H53z"/><path fill="#dde1e1" d="M115.7 21.7l-32 2.9 42.6 22.1 36.8 8.4z"/><circle r="1" fill="#361713" transform="matrix(2.00571 12.40147 -5.5003 .88957 110.7 56.7)"/><circle r="1" fill="#5e88c4" transform="rotate(10.5 67 1200.5) scale(82.20463 21.82163)"/><path fill="#fff" d="M22 8.5l4.8-24.6L66-8.5l-4.8 24.6z"/><path fill="#bac5c1" d="M33.7 130.1L49.9 120l-4.3 20.5 5.8-78.3z"/><path fill="#9fadb6" d="M104.5 55l-17-71-22.2 49-23.9 14.2z"/><path fill="#030716" d="M221.4 98.5l-8.5-26.3-2.9 9.4 17.2 44.1z"/><path fill="#ccd0d6" d="M3 0h33v88H3z"/><path fill="#d4dad3" d="M117 80.2l3.5 6.1 7.6-16.9-8.8-31.6z"/><path fill="#d9b18c" d="M141 124l4 11 6-28z"/><circle r="1" fill="#633a1f" transform="rotate(36.9 -18 241.6) scale(7.27622 10.72133)"/><path fill="#f9fafa" d="M206 27h22v18h-22z"/><path fill="#dbe3ce" d="M0 97h32v2H0z"/><path fill="#726157" d="M156.8 108.5L86.9 185l-1.4-69-7.4 44.7z"/><path fill="#435332" d="M-16 114.5L15.5 185l23.9-81.8.3-6.5z"/><path fill="#c6ced6" d="M239.2 105.2l31.8 5.6-21.9-80.9-42.6 9.5z"/><path fill="#4b2d2a" d="M52 105l39-31-42 57z"/><path fill="#8e8e97" d="M166.3 123.8l-16-55.6 27.4-7.1 18.7-16z"/><path fill="#c9957a" d="M73.9 99l27.4-2.6-16.6 24 2.2-27.9z"/><path fill="#9ba1b0" d="M118.4 146.6l-5.8-13.9 39.7 8.4-9.9 2.3z"/><path fill="#5f3b22" d="M43 13h3v54h-3z"/><path fill="#4e3f3d" d="M213.3 66.5l-27.4 28-5-7.1 13.3-44.2z"/><path fill="#d5dcdf" d="M107.8 60.6l-2.1 9.8-23.5-5 2.1-9.8z"/><path fill="#888d9e" d="M158 113h77v7h-77z"/><path fill="#1c3146" d="M148 119h35v19h-35z"/><path fill="#040e17" d="M126.3 105l3.8-21.7 21.6 3.8-3.8 21.6z"/><ellipse cx="125" cy="91" fill="#9b9790" rx="3" ry="23"/><path fill="#81888a" d="M75.1 71.2L22 121.7 54.2 140l-31-5.5z"/><circle r="1" fill="#c2c7ca" transform="matrix(6.44159 -20.88495 5.49963 1.69626 53.7 41.5)"/><circle r="1" fill="#c7c4c2" transform="matrix(-3.46375 -3.76957 9.09327 -8.35555 157.8 65)"/><path fill="#98969f" d="M149.1 123.5l-23.4 21.3-10.5 31.7 9.7 8.5z"/><path fill="#5e4635" d="M47.2 67.8l-6.7 27.4-4.2-11.6L42 31.9z"/><path fill="#a7afb7" d="M107-16L71-8l-5 69z"/><path fill="#654b3d" d="M144 115l-8 21-50-34z"/><path fill="#eef2f6" d="M110.5 7.5v-15h33v15z"/><path fill="#3f2617" d="M243 124l28-17h-35z"/><ellipse cx="71" cy="156" fill="#262116" rx="11" ry="31"/><path fill="#e8e8e4" d="M133.7 54.3l22.8-16.1 6.1 22.4-36.1-31.1z"/><path fill="#514e4f" d="M118.1 104.8l-51.6-45 34.9 20.6 6.3-29.9z"/><path fill="#e2e3df" d="M194 39l-15 35-1-30z"/><path fill="#785746" d="M150.5 78l-18.8 12.2 12.9-30.5 4.8-11.8z"/><path fill="#687b6d" d="M229.2 142.9l.6-17 35 1.2-.6 17z"/><circle r="1" fill="#1c2e16" transform="rotate(59.3 -145.1 89.6) scale(13.97379 26.55365)"/><path fill="#2c332a" d="M219.1 167.6l49.4 10.8-51.8-53 12.7-17.7z"/><path fill="#413130" d="M167.1 62.1l4.2-29.5-13.1 7.1 5.1 16.4z"/><path fill="#da6c5b" d="M72.8 104.8l4.9-14.2 7.5 2.6-4.9 14.2z"/><path fill="#b6bcc1" d="M28.2 94.7l7.6 7.1 5.9-83.3L-16 81.4z"/><circle r="1" fill="#6e91c1" transform="matrix(-21.59148 11.33578 -8.00467 -15.24666 152.3 20.8)"/><path fill="#5a472e" d="M144 142l83 33-85 9z"/><path fill="#969e8c" d="M64 135l-16 5 21-23z"/><path d="M156 102l1 14-8 7z"/><path fill="#210a0c" d="M18 102l16-2-3 10z"/><path fill="#817873" d="M105 159l-22-9 11 35z"/><path fill="#b58560" d="M151 77h4v28h-4z"/><path fill="#dcd2c0" d="M138 77.2l-21.4-8.7 1.5-3.7 21.3 8.7z"/><path fill="#6b7799" d="M191 81h20v29h-20z"/><path fill="#46352d" d="M116.3 167.5l-2.9-.1-17-21.8 28.1 4.4z"/><path fill="#756a60" d="M121 119l-15-11-1 49z"/><path fill="#522a2f" d="M76.6 48.6l10.8 40.2-21.7 9.7L72 71.8z"/><path fill="#563c2f" d="M129 64.6l27.1 23.5 1.7-.2-17.1-34.3z"/><path fill="#dcdfe1" d="M0 19h39v15H0z"/><path fill="#7599c9" d="M173 20h26v19h-26z"/><path fill="#cacfd7" d="M157.1 88.6L161 69l2 .4-4 19.6z"/><path fill="#a8b2bb" d="M85.6 61L71 11.6l62.2 47.8-13-49z"/><path fill="#dde0e1" d="M177 38h79v8h-79z"/><path fill="#181a29" d="M210 122l-24 3 1 53z"/><path fill="#698bbd" d="M271 0l-35 35-49-43z"/><path fill="#1c1613" d="M131 135l11-10 4-18z"/><path fill="#2f221f" d="M85.6 126.9L65 90.8l4.4 25.7L56.5 185z"/><ellipse cx="110" cy="50" fill="#42312e" rx="8" ry="7"/><path fill="#d1a886" d="M140.6 134.4L151.5 99l1.9.6-10.9 35.4z"/><path fill="#babbb9" d="M218 76l43 23-55-61z"/><ellipse cx="230" cy="107" fill="#70738b" rx="4" ry="24"/><path fill="#161d29" d="M109.9 150.7l-16 1.2 7.5-35.3-13.1 4.4z"/><path fill="#7d9044" d="M31 141l-25 8 2-7z"/><path fill="#bd9a8f" d="M86 101h4v21h-4z"/><ellipse cx="53" cy="116" fill="#556461" rx="5" ry="22"/><path fill="#caac8b" d="M127 110h9v5h-9z"/></g></g></svg>