<svg xmlns="http://www.w3.org/2000/svg" viewBox="0 0 1800 1200"><defs/><filter id="a"><feGaussianBlur stdDeviation="12"/></filter><rect width="100%" height="100%" fill="#523439"/><g filter="url(#a)"><g fill-opacity=".5" transform="translate(3.5 3.5) scale(7.03125)"><circle r="1" fill="#fdffff" transform="matrix(-201.698 36.2912 -12.91946 -71.80334 132.8 27.1)"/><path fill="#d7cfc1" d="M219.7 3.3l55.8-5 14.8 168.4-55.8 5z"/><circle r="1" fill="#c7edff" transform="matrix(-1.80507 22.76553 -204.67614 -16.22866 134.4 11.2)"/><path fill="#606d73" d="M9.5 58.2l164 31.8-23 117.8-164-31.8z"/><ellipse cx="201" cy="129" fill="#8f1f34" rx="35" ry="74"/><ellipse cx="119" cy="93" fill="#b09772" rx="49" ry="29"/><circle r="1" fill="#1a263a" transform="matrix(-21.23625 -12.91184 17.286 -28.43047 51.6 121.3)"/><circle r="1" fill="#002975" transform="rotate(-75.8 170 -24.9) scale(34.1595 20.09231)"/><circle r="1" fill="#a1906c" transform="rotate(-163.5 12 63.1) scale(20.10776 95.09668)"/><circle r="1" fill="#718268" transform="matrix(2.79512 21.88573 -56.7189 7.24381 222.7 71.7)"/><path fill="#fd293b" d="M226 174.6l-1-67 13-.2 1 67z"/><ellipse cx="39" cy="73" fill="#968264" rx="76" ry="25"/><path fill="#2f2528" d="M130 107l14-26 15 23z"/><ellipse cx="47" cy="36" fill="#c1c6b7" rx="189" ry="14"/><path fill="#c2a1a9" d="M87 142l6 20-36-17z"/><path fill="#c3c9c0" d="M240 129h16v41h-16z"/><path fill="#162635" d="M198.5 79.8L179.3 69l8.2-14.9L206.7 65z"/><path fill="#bebcb1" d="M189.4 92.8l-33.3-51.4 42.3 58.3L250.9-16z"/><path fill="#0b1426" d="M203.4 97.6l5.2-21.4 17.1 7.6 5.6 21.9z"/><path fill="#c5b2a3" d="M93 105h43v14H93z"/><circle r="1" fill="#1d1923" transform="rotate(-106.7 74.8 52.8) scale(61.92884 6.28666)"/><path fill="#36537b" d="M37 105l54 3 45 71z"/><ellipse cx="39" cy="51" fill="#685b45" rx="83" ry="3"/><path fill="#00000a" d="M35 132l-16 42 11 11z"/><path fill="#856860" d="M60.6 109l-13.2 15.9-6.1-24.9-5.7-53.5z"/><path fill="#97142e" d="M220 108l19 70-87-72z"/><path fill="#0b212c" d="M137.8 147.6l59.2 21.6-4.8 13.2-59.2-21.6z"/><path fill="#d1cab0" d="M106 83L49 59l39-3z"/><path fill="#8ba4c3" d="M-2-2l3 29 98 5z"/><path fill="#d0c5b3" d="M68 68l32 56-2-26z"/><path fill="#00171d" d="M196 100l-21-22 20 38z"/><path fill="#c5b49a" d="M26.5 131.5L17.6 68l10.9 37.2L-16 67.8z"/><path fill="#bdb094" d="M235 37l-47 4 44 49z"/><path fill="#31518e" d="M74 120h92l3 36z"/><path fill="#756050" d="M97.1 62.5l12-.9 3.8 54-12 .8z"/><ellipse cx="202" cy="10" fill="#c3d1df" rx="124" ry="25"/><path fill="#2d182b" d="M71.9 179.5l-31-7.7 5.2-21.3 31 7.7z"/><path fill="#151e32" d="M70 123l-48-19 16 38z"/><path fill="#302120" d="M61.3 100l-3-4 18.4-14 3 4z"/><path fill="#b27f89" d="M32.1 182.5l3.5-35.2 10.3 15.8-2.2-3.5z"/><path fill="#cfbfb1" d="M66 92.2l-8.8 2L52 71.8l8.8-2z"/><path fill="#ada280" d="M115 50h67v37h-67z"/><path fill="#b68ca3" d="M95.7 143.7l-12.1 11.4-7.5 19.4 13.3-11.4z"/><path fill="#352c28" d="M15 48l33 19-14-14z"/><path fill="#7380a3" d="M71.5 156.8l-13.2-25.4-13.2 7.4 8.9.3z"/><path fill="#4b5851" d="M271 138V79l-30 43z"/><path fill="#c0b39c" d="M44 74L-8 29l-1 24z"/><path fill="#132638" d="M52.4 128l10.7-31.3 4.2 48.5 28.1-10.8z"/><path fill="#523524" d="M228.6 63.2l1.8-1 17 30.6-1.8 1z"/><circle r="1" fill="#42acfb" transform="rotate(-143.8 63.3 48.4) scale(2.04452 11.29575)"/><path fill="#122443" d="M117.7 157.9l-1.2 27.1-22.6-32.1-11.3 25.8z"/><path fill="#0a1d2b" d="M170 95l12-13 8 12z"/><path fill="#685546" d="M9.4 85.6l27.9-39.1L13.1 66l23.8 18.1z"/><path fill="#d9ceb3" d="M90 38h45v13H90z"/><path fill="#b5a992" d="M157.1 120.2l17.6-45.1-9.4-43.4-8 75.6z"/><ellipse cx="144" cy="72" fill="#5b483b" rx="20" ry="2"/><path fill="#c0273a" d="M202.6 184.5l36-57.5 3.1 22.3-13 35.7z"/><path fill="#634d3a" d="M85 77h10v15H85z"/><ellipse cx="6" cy="139" fill="#727371" rx="22" ry="26"/><path fill="#9a84a7" d="M103.1 166.7l13-27.1-5.6-2.1-13 47.5z"/><path fill="#b6a887" d="M236.1 129.4L258.2 84l-29 18.1 12.5 27.3z"/><path fill="#c8b197" d="M130.4 123.1l-24.9-20.9 9.5-4.4 22.7 24.5z"/><ellipse cx="70" cy="109" fill="#61aae3" rx="2" ry="13"/><path fill="#7e725c" d="M84.8 33.3L105.5 71 79.9 48.9l6.6 17.8z"/><path fill="#d3c2a7" d="M22 33h44v17H22z"/><path fill="#d6c7a5" d="M93.3 62.3l2.9-1 10.5 32.4-2.9 1z"/><ellipse cx="176" cy="52" fill="#847865" rx="108" ry="2"/><path fill="#27292e" d="M74 113l-1 25 18-32z"/><circle r="1" fill="#6d5943" transform="matrix(-1.68555 1.32226 -16.59027 -21.14834 118.2 94.5)"/><path fill="#1d2542" d="M112 157l42-20 6 21z"/><path fill="#725e47" d="M29.9 92.4l-43.2 7.4 53.4-3.5 6.8-32.4z"/><path fill="#d6c4a8" d="M130 80l-7.8 16.6 13.5 12-19.1-51.5z"/><path fill="#440519" d="M191.5 143l40 23.4-57.7-21.9-11.2 24.1z"/><path fill="#d9d2b4" d="M149 44h60v6h-60z"/><path fill="#a88677" d="M132.5 163.4l2.1-6.4-14.1 3-.8 7.7z"/><path fill="#d2c6aa" d="M0 68h16v11H0z"/><path fill="#a48a87" d="M46 105l12 3-8 15z"/><path fill="#a6283d" d="M177 100h11v62h-11z"/><path fill="#aaa49a" d="M8.8 133.7l-24.8-3.4L25.9 120-9 147z"/><path fill="#afa592" d="M244 71l27-32-79-3z"/><path fill="#e0d4be" d="M17 92l2-19 6 15z"/><path fill="#291020" d="M162 110l15 39 1-23z"/><path fill="#ccb99d" d="M25 66h15v12H25z"/><path fill="#3d2f22" d="M51 51l11 5 9-2z"/><path fill="#bb9989" d="M102 132l15-13 1-28z"/><ellipse cx="241" fill="#aabdd0" rx="88" ry="14"/><path fill="#4d001b" d="M221.2 110.6l-8.4 59.4-4-.6 8.4-59.4z"/><path fill="#1d304b" d="M121.5 116.4l4.6 4-23.6 27.2-4.6-4z"/><path fill="#bec0ac" d="M245.1 179.4l-11.5-3.5 5.3-17.3 11.5 3.5z"/><path fill="#16333c" d="M217 88h14v15h-14z"/><path fill="#5d4d3d" d="M62 80.3l-2.6-15.4 14.2 15.5-4.2-2.9z"/><path fill="#4a3627" d="M0 80h24v3H0z"/><path fill="#091d2f" d="M86 130l8 7 1-20z"/><path fill="#e0444e" d="M242.3 142.4l-17.4-14.8-2.5-15 8.4-11.4z"/><circle r="1" fill="#8d1e33" transform="rotate(-70.2 186.2 -83.2) scale(30.15471 9.22072)"/><path fill="#82546a" d="M47 171l8 14 10-48z"/><ellipse cx="146" cy="87" fill="#755f4c" rx="22" ry="2"/><path fill="#e6ccb0" d="M80 77h3v31h-3z"/><path fill="#5f463d" d="M77.4 90.2L26.1 85l32.1 5 12.2 15.5z"/><path fill="#c2baa3" d="M31.2 53.2l30 21.4-14.3-.2 12.3-18z"/></g></g></svg>