<svg xmlns="http://www.w3.org/2000/svg" viewBox="0 0 1200 1800"><defs/><filter id="a"><feGaussianBlur stdDeviation="12"/></filter><rect width="100%" height="100%" fill="#403f4b"/><g filter="url(#a)"><g fill-opacity=".5" transform="translate(3.5 3.5) scale(7.03125)"><ellipse cx="70" cy="45" fill="#ffc362" rx="117" ry="80"/><circle r="1" fill="#ffba64" transform="matrix(111.4558 -2.91857 .81031 30.94464 58 53.8)"/><ellipse cx="91" cy="232" fill="#938362" rx="169" ry="28"/><circle cx="85" cy="49" r="13" fill="#fff"/><path fill="#76585d" d="M183.7 81.2l5 71.8-254.4 17.8-5-71.8z"/><circle r="1" fill="#fff" transform="matrix(-14.29488 -1.69555 1.4911 -12.57112 86.4 47.9)"/><ellipse cx="129" cy="8" fill="#804540" rx="49" ry="23"/><ellipse cx="44" cy="26" fill="#ee9147" rx="29" ry="63"/><ellipse cx="84" cy="226" fill="#91735f" rx="37" ry="23"/><circle r="1" fill="#ab603a" transform="rotate(-38.4 34.2 12) scale(64.06478 21.81128)"/><circle r="1" fill="#3a4743" transform="rotate(-135.4 62.6 123.3) scale(88.94395 18.78432)"/><ellipse cx="104" cy="119" fill="#725d5c" rx="111" ry="21"/><circle r="1" fill="#ef8e4d" transform="matrix(-38.21147 8.61133 -5.22558 -23.18773 135.1 55)"/><path fill="#f4af55" d="M-5 25l61 43 26-40z"/><ellipse cx="55" cy="85" fill="#c76e4c" rx="79" ry="8"/><path fill="#1a1c1f" d="M69 187l-23 14 71 2z"/><path fill="#dc9052" d="M154 7l-29 6-31-29z"/><ellipse cx="85" cy="50" fill="#fff" rx="14" ry="12"/><circle r="1" fill="#45504d" transform="rotate(-38.7 411 -105.4) scale(31.49802 17.89104)"/><path fill="#895750" d="M153.4 103.4l-27.2-34.8 58.8 3.2-2.6 30.3z"/><path fill="#564b4d" d="M110.3 1.6l1.3-17.6L79.7 3.5l56.1 25.7z"/><path fill="#fdb24d" d="M98 34h32v25H98z"/><ellipse cx="74" cy="70" fill="#f59e50" rx="46" ry="10"/><path fill="#e88e48" d="M77 34l59 5L67 9z"/><circle r="1" fill="#d17c46" transform="matrix(-1.63866 -33.49172 15.05016 -.73636 8.8 54.3)"/><circle r="1" fill="#4e4b52" transform="rotate(78.2 -33 150.5) scale(18.2207 109.06428)"/><circle r="1" fill="#926052" transform="matrix(57.47657 4.54288 -.92217 11.66734 40 102.2)"/><ellipse cx="20" cy="17" fill="#945a40" rx="43" ry="4"/><path fill="#6e4c42" d="M138 26l36 6-40-26z"/><ellipse cx="160" cy="189" fill="#313840" rx="72" ry="15"/><circle r="1" fill="#b06943" transform="matrix(5.3195 -4.22739 33.78618 42.51458 169 28.2)"/><path fill="#746d65" d="M105 204h65v10h-65z"/><path fill="#bf7c4d" d="M28 0h56v28H28z"/><path fill="#c2764e" d="M123.9 85L185 66.4l-56.1-41.8 54.7 10.5z"/><path fill="#bb8860" d="M94 251h17v5H94z"/><circle r="1" fill="#705d5c" transform="matrix(4.40493 12.9394 -83.0119 28.25955 114.3 115.2)"/><path fill="#febb50" d="M36.6 46.6l48.2 23.5-16.3-22 17.7-19.6z"/><circle r="1" fill="#393c40" transform="rotate(67.1 -130 92.3) scale(30.22715 22.78014)"/><path fill="#636058" d="M71 217l-5 54-82-70z"/><path fill="#8f7263" d="M37 205h82v10H37z"/><path fill="#5f5f59" d="M185 199.9l-85.8 23 2.3 15 50.5-3.7z"/><path fill="#f0a44b" d="M51.2 100.4L108 55.1 81.5 25l36.9 11z"/><path fill="#8f5b3d" d="M1.1-6.7L-16 26.9 22.7 5.7l13-2.2z"/><path fill="#94765b" d="M83 251l25-20-59 21z"/><path fill="#de9658" d="M15 85l70 2-69-58z"/><path fill="#43444e" d="M57 193l73 1 55-63z"/><path fill="#fcffff" d="M94 58.9l-12.3 4L74 39.1l12.3-4z"/><circle r="1" fill="#9a6856" transform="matrix(1.25109 6.33965 -76.80465 15.15689 103.4 92)"/><path fill="#b88661" d="M93 242h22v4H93z"/><path fill="#72564d" d="M102.9-13.8L96.3-16l39.1 44.3L77 13.6z"/><path fill="#27282d" d="M37 196h78v9H37z"/><path fill="#2c3535" d="M-16 241l25-2 21 11z"/><circle r="1" fill="#655859" transform="matrix(65.99978 8.3793 -1.79804 14.16232 60.5 135)"/><path fill="#ae7046" d="M9 99.8L-4.1 46.3 38.6 43-16 35.2z"/><path fill="#785a51" d="M63.2 137.8L-16 110.5l60-17.6-60-3.3z"/><path fill="#e7a05c" d="M133.6 26.6l15.5 26.8-20.7 12-15.5-26.8z"/><path fill="#e69e55" d="M87.5 69.6L-16 52.5 93.4 25.4 8.3 27.5z"/><path fill="#80725f" d="M56.2 248.1l-36.4-3.4 4.5-2.4 28.8.7z"/><path fill="#e19f67" d="M73 241h11v3H73z"/><path fill="#413e39" d="M63 244h26v2H63z"/><ellipse cx="16" cy="157" fill="#524c52" rx="126" ry="14"/><path fill="#ae6e4d" d="M73.5 12.5l-1.4-.3 28.5 17.4 38.9 3.6z"/><path fill="#5f605a" d="M0 205h50v21H0z"/><path fill="#3c403d" d="M175 228l10 16-41-2z"/><path fill="#4c4640" d="M87 247h14v6H87z"/><path fill="#9e7b63" d="M84 208h9v25h-9z"/><path fill="#dd925c" d="M101.5 80.9l21.9-1.2 19.8-1.2-35.8-13.6z"/><path fill="#cf8351" d="M85.4 91.4l9.9-14.2-10.9-1.8-77 8z"/><circle r="1" fill="#413c3e" transform="rotate(12.8 -952.8 433.5) scale(6.64485 1)"/><circle r="1" fill="#86635b" transform="matrix(-60.44033 22.13984 -2.40279 -6.55945 112.2 101.9)"/><path fill="#ab7c5c" d="M40 255h69v1H40z"/><path fill="#ffbc48" d="M88 30.7l12.3 9.4L78.1 33 50 56.6z"/><circle r="1" fill="#ba7254" transform="rotate(-92.4 58.2 43.7) scale(1 25.62169)"/><path fill="#272f30" d="M27 250h18v3H27z"/><ellipse cy="195" fill="#343940" rx="48" ry="11"/><path fill="#985e42" d="M160 0h10v34h-10z"/><path fill="#343d3f" d="M56 253h27v2H56z"/><path fill="#2f2a22" d="M115 254h11v2h-11z"/><circle r="1" fill="#fbfeff" transform="matrix(5.67468 -8.3253 9.84327 6.70935 87.6 46.8)"/><path fill="#ce864c" d="M56 23l-46-2 29 12z"/><path fill="#c78554" d="M94.4-16l45.4 25.6-15.7 3.4-28.3-23.7z"/><ellipse cx="130" cy="235" fill="#52504a" rx="46" ry="2"/><path fill="#f5a248" d="M68 74V61l43 1z"/><path fill="#2d282b" d="M81.9 157.5l1.2 37h-1l-1.2-37z"/><path fill="#755f5e" d="M146 114l-83 21-66-26z"/><path fill="#cb8953" d="M48.4 17.8L72.5-4.5 83.3 6.6l-27.6 8z"/><circle cx="85" cy="54" r="8" fill="#fafcff"/><path fill="#f1b056" d="M71 33v24L8 50z"/><path fill="#5b4e48" d="M139.8 11.7l13.9 9.7-3.5 5-13.9-9.8z"/><path fill="#a26a4f" d="M118.3 71l46.9 10.1 8.6-8.7-18.9-1.5z"/><path fill="#89745d" d="M29 248h50v3H29z"/><ellipse cx="32" cy="17" fill="#986142" rx="22" ry="3"/><path fill="#e29a5b" d="M172 41l-1.2 18-28.9-2 1.3-18z"/><circle r="1" fill="#5b6156" transform="rotate(97.4 -68.8 150.2) scale(1 28.81498)"/><circle cx="83" cy="49" r="12" fill="#fafbfc"/><path fill="#b48968" d="M79.5 238.4l25-1.8v1l-25 1.8z"/><path fill="#6c695c" d="M15 250l32 4-20 17z"/><ellipse cx="126" cy="33" fill="#d58952" rx="19" ry="4"/><path fill="#f9ae45" d="M86.3 67.6l20.6-20.3-18.5-21.5 18.8 35.6z"/><circle r="1" fill="#48444b" transform="rotate(19.6 -319.9 559.9) scale(15.63053 21.78073)"/></g></g></svg>