<svg xmlns="http://www.w3.org/2000/svg" viewBox="0 0 2489 2489"><defs/><filter id="prefix__a"><feGaussianBlur stdDeviation="12"/></filter><rect width="100%" height="100%" fill="#242c3c"/><g filter="url(#prefix__a)"><g transform="translate(4.9 4.9) scale(9.72266)"><circle r="1" fill="#ffffdb" fill-opacity=".5" transform="matrix(-2.4958 -16.6711 24.97154 -3.73843 85.2 84.3)"/><ellipse cx="225" cy="218" fill="#16201c" fill-opacity=".5" rx="80" ry="255"/><path fill="#dbc6b4" fill-opacity=".5" d="M93.2 67.6L58.7 81.7l51.8 9.5 1.8-10.5z"/><path fill="#6a6861" fill-opacity=".5" d="M94.6 105.9l-31.9-.5-4.6-10.3 63.4-4.7z"/><circle r="1" fill="#182326" fill-opacity=".5" transform="matrix(1.7038 -40.15477 254.77076 10.81011 108.7 239.9)"/><path fill="#283a41" fill-opacity=".5" d="M22 57l66-19-29 55z"/><circle r="1" fill="#22323d" fill-opacity=".5" transform="rotate(25.8 -211.6 383.2) scale(48.50472 102.35645)"/><circle r="1" fill="#342718" fill-opacity=".5" transform="matrix(115.24735 -179.31248 8.643 5.55501 179.9 181.2)"/><circle r="1" fill="#16262c" fill-opacity=".5" transform="matrix(1.96543 -29.59103 254.43934 16.89984 167.3 7.8)"/><ellipse cx="81" cy="128" fill="#283a44" fill-opacity=".5" rx="65" ry="26"/><path fill="#3b474d" fill-opacity=".5" d="M51.3 93l16.1-36.5L125.1 82 102 47.7z"/><path fill="#c6baa9" fill-opacity=".5" d="M107.8 94.1l-25-5.9L86.7 66l27.4 21.1z"/><circle r="1" fill="#a09385" fill-opacity=".5" transform="rotate(35.8 -96.5 158.8) scale(4.82657 19.49236)"/><ellipse cx="38" cy="101" fill="#22343c" fill-opacity=".5" rx="25" ry="83"/><circle r="1" fill="#111d26" fill-opacity=".5" transform="matrix(-32.39648 -8.07735 49.58205 -198.86273 255 199)"/><path fill="#d7c7b5" fill-opacity=".5" d="M71 72l19-5-27 22z"/><circle r="1" fill="#1e2c35" fill-opacity=".5" transform="matrix(97.48488 23.26242 -6.9544 29.14349 40.8 197.6)"/><path fill="#34414a" fill-opacity=".5" d="M131.7 103.6L96.1 64.8l29.6 7-45 54.2z"/><path fill="#d4caba" fill-opacity=".5" d="M80.9 88.8l25.8-11.4-7-7.7-7.7-1z"/><ellipse cx="35" cy="34" fill="#202e36" fill-opacity=".5" rx="167" ry="22"/><path fill="#2e3b47" fill-opacity=".5" d="M78.4 69.9L29.9 96l45.2 48.5-20.8-88.7z"/><circle r="1" fill="#131c24" fill-opacity=".5" transform="rotate(-91.9 132 -108.4) scale(38.53774 21.03523)"/><path fill="#2e3a45" fill-opacity=".5" d="M100.3 46.7l18.2.8-55.2-6.1-27.7 66.3z"/><ellipse cx="148" cy="124" fill="#222f3a" fill-opacity=".5" rx="28" ry="88"/><path fill="#656360" fill-opacity=".5" d="M64.9 102.4l54.7-14.5-29.9 16.9-13.1-1.7z"/><path fill="#8c8377" fill-opacity=".5" d="M84 104.1L71.6 90.8l-.8-4.1 9.1-12.6z"/><circle r="1" fill="#1b2731" fill-opacity=".5" transform="rotate(-40.5 140.6 -224.8) scale(30.65587 67.62062)"/><path fill="#293742" fill-opacity=".5" d="M112 59h25v60h-25z"/><path fill="#2e3b47" fill-opacity=".5" d="M69.7 126l-4.3-17.4 34.9-8.7 4.3 17.5z"/><circle r="1" fill="#b4a697" fill-opacity=".5" transform="matrix(-3.18237 8.20018 -4.4043 -1.70924 68 89)"/><circle cx="103" cy="88" r="7" fill="#a49b8d" fill-opacity=".5"/><circle r="1" fill="#343e49" fill-opacity=".5" transform="matrix(5.31193 -20.88505 5.16019 1.31245 57.5 93.4)"/><path fill="#2d2a27" fill-opacity=".5" d="M207 118l-31 97-49 25z"/><circle r="1" fill="#1d2c34" fill-opacity=".5" transform="rotate(-83.4 31.5 28) scale(225.64436 22.82621)"/><circle r="1" fill="#24211b" fill-opacity=".5" transform="rotate(32.2 -32.3 466.5) scale(8.68698 77.3829)"/><path fill="#3c474c" fill-opacity=".5" d="M87 53l18 14-28-1z"/><circle r="1" fill="#24313c" fill-opacity=".5" transform="matrix(4.4676 -18.46683 43.47609 10.51797 93.2 39)"/><circle r="1" fill="#24333f" fill-opacity=".5" transform="rotate(-116.8 74.2 52) scale(56.41057 28.20946)"/><path fill="#18252e" fill-opacity=".5" d="M252 97.4l25.4 16L184 262.5l-25.5-16z"/><path fill="#e0d6c5" fill-opacity=".5" d="M89 67l11 4-4 5z"/><path fill="#8f897e" fill-opacity=".5" d="M61.3 99.2l8.3 2.2 10-25.7 7.4 4.6z"/><circle r="1" fill="#1e2933" fill-opacity=".5" transform="matrix(10.55979 10.44978 -58.54438 59.16069 131.9 201.8)"/><circle r="1" fill="#18252d" fill-opacity=".5" transform="matrix(6.80115 -18.09417 94.08143 35.36288 14.4 248.3)"/><path fill="#b8aa9a" fill-opacity=".5" d="M88 93l14-13-24 5z"/><path fill="#37414a" fill-opacity=".5" d="M117.1 92.5l8.1-7.7-35.9-33.5 15.8 20.5z"/><circle r="1" fill="#22303b" fill-opacity=".5" transform="matrix(48.09574 61.75563 -19.41155 15.11786 34.7 152.7)"/><circle r="1" fill="#232f3b" fill-opacity=".5" transform="matrix(-14.1046 -1.382 5.31642 -54.25876 154.2 130)"/><ellipse cx="77" cy="118" fill="#2a3745" fill-opacity=".5" rx="37" ry="13"/><path fill="#c4b8a6" fill-opacity=".5" d="M76.7 69.7L62.6 96.8l2.8-14.7 2.3-3.5z"/><circle r="1" fill="#848178" fill-opacity=".5" transform="matrix(1.26206 1.14036 -7.0174 7.7663 106.3 91.1)"/><circle r="1" fill="#1f2b36" fill-opacity=".5" transform="matrix(-71.35543 -67.55865 11.63419 -12.28803 143.1 38)"/><path fill="#938b7d" fill-opacity=".5" d="M81 71h4v4h-4z"/><ellipse cx="89" cy="69" fill="#d1c5b4" fill-opacity=".5" rx="8" ry="2"/><path fill="#141b21" fill-opacity=".5" d="M246.7 284.8L220 273.4l43.3-102.2 26.7 11.4z"/><path fill="#313d48" fill-opacity=".5" d="M55.5 100.1l5.3-4.6L78.5 116l-5.3 4.6z"/><path fill="#c2b9a9" fill-opacity=".5" d="M111 83l-13 4-22-16z"/><circle r="1" fill="#18232c" fill-opacity=".5" transform="matrix(-13.94609 -37.87936 14.54108 -5.3536 221.7 34.2)"/><path fill="#152029" fill-opacity=".5" d="M167 256l29 15 68-92z"/><path fill="#303b44" fill-opacity=".5" d="M111 50L77 69l-1-15z"/><path fill="#36404a" fill-opacity=".5" d="M58.4 94.5L54 92.2l13.6-26.7 4.4 2.3z"/><path fill="#2e271f" fill-opacity=".5" d="M183.1 194l45.2-92.3-27.1 40.2L120.8 271z"/><circle r="1" fill="#1e2b35" fill-opacity=".5" transform="matrix(-4.15743 10.83047 -71.07315 -27.28243 37.8 202)"/><circle r="1" fill="#6d6a65" fill-opacity=".5" transform="matrix(-4.23638 1.3776 -.93743 -2.88279 70.4 99.7)"/><path fill="#23303c" fill-opacity=".5" d="M87 34L15 50 0 115z"/><path fill="#cac1b2" fill-opacity=".5" d="M109.6 80.6l-23.7.9 12-10 8.4 3.1z"/><path fill="#414a50" fill-opacity=".5" d="M106.1 70.4l7.2 3.5-13.2-2.9-28.6-13.9z"/><path fill="#1a252d" fill-opacity=".5" d="M230 217l-92 54L256 93z"/><path fill="#202b36" fill-opacity=".5" d="M81.9-8.9l10 20.7-63.8 31.1-10-20.7z"/><path fill="#313c47" fill-opacity=".5" d="M76.6 116l-2.1-5.6L117.4 94l2.1 5.6z"/><path fill="#253440" fill-opacity=".5" d="M22 111l39 56L44 53z"/><path fill="#9f9282" fill-opacity=".5" d="M93.2 91.4l-11.8 2.1-.6-3 11.8-2z"/><path fill="#1c2832" fill-opacity=".5" d="M177 18l27 100 21-34z"/><path fill="#dad1c3" fill-opacity=".5" d="M72.3 76.6l2.3 3.3-4.9 3.5-2.3-3.3z"/><path fill="#565857" fill-opacity=".5" d="M74.6 106.3L102 99l-4.7-3.5-19 8.2z"/><circle r="1" fill="#212d38" fill-opacity=".5" transform="matrix(-4.52629 -21.2945 47.74815 -10.14918 104.3 191.3)"/><path fill="#364049" fill-opacity=".5" d="M104 61l11 21-15-15z"/><path fill="#b0a596" fill-opacity=".5" d="M88 75h5v3h-5z"/><path fill="#252727" fill-opacity=".5" d="M219.6 94l-30.7 58 77.3-116.1-16.9 18.4z"/><path fill="#293540" fill-opacity=".5" d="M121.5 58.4l-3.6-9.1-28.4-6.9 41.6 58.1z"/><circle r="1" fill="#23333e" fill-opacity=".5" transform="rotate(80.5 -46 134.5) scale(9.07327 39.45757)"/><path fill="#232524" fill-opacity=".5" d="M188.3 196.2L133 271l84-136.7 19.3-23.1z"/><path fill="#d5cab9" fill-opacity=".5" d="M73.6 72.8l.8.6-10 13.8-.8-.6z"/><path fill="#746f68" fill-opacity=".5" d="M85 101l-1-8-16 6z"/><circle r="1" fill="#1d2832" fill-opacity=".5" transform="matrix(18.59512 12.51886 -31.46317 46.7344 0 16.4)"/><path fill="#bdb4a5" fill-opacity=".5" d="M90 85.2L74.7 68.4l16.5 12L77.8 74z"/><path fill="#636461" fill-opacity=".5" d="M115.7 88l-10.9 8 .6-3.4-2 1.1z"/><path fill="#2f2c26" fill-opacity=".5" d="M184 161l-11 45-30 17z"/><path fill="none" stroke="#9e9483" stroke-opacity=".5" stroke-width=".5" d="M63.9 94.5q-2.7-22 26.6-28"/><path fill="#1c272f" fill-opacity=".5" d="M230 134l-63 89 36-8z"/><path fill="#958e81" fill-opacity=".5" d="M71 86l5 9 1-18z"/><path fill="#23282a" fill-opacity=".5" d="M94.7 286l53.3-76.2 3.3 2.3L98 288.2z"/><path fill="#37414a" fill-opacity=".5" d="M90.9 59l1.5 3.7L57 77l-1.5-3.7z"/><path fill="#23313c" fill-opacity=".5" d="M165 91l-10 54-44-110z"/><path fill="#a49a8d" fill-opacity=".5" d="M69 93.4l1.6-3.7 6.4 2.9-1.6 3.7z"/><path fill="#cdc1b0" fill-opacity=".5" d="M79 69h13v2H79z"/><path fill="#d3c9b9" fill-opacity=".5" d="M82.9 68.8l.7.8L71 81.2l-.7-.8z"/><path fill="#283440" fill-opacity=".5" d="M101 49l-53-1-2 21z"/><circle r="1" fill="#25292c" fill-opacity=".5" transform="matrix(-2.88289 -1.7054 31.58066 -53.38536 196.7 136.8)"/><path fill="#333f49" fill-opacity=".5" d="M122 92.4l-8.9-23.3-3.9 2.8 2.6 12.6z"/><circle r="1" fill="#1b2831" fill-opacity=".5" transform="rotate(-65.2 239.7 64.2) scale(12.35088 126.54007)"/></g></g></svg>