<svg xmlns="http://www.w3.org/2000/svg" viewBox="0 0 1800 1200"><defs/><filter id="a"><feGaussianBlur stdDeviation="12"/></filter><rect width="100%" height="100%" fill="#584830"/><g filter="url(#a)"><g fill-opacity=".5" transform="translate(3.5 3.5) scale(7.03125)"><circle r="1" fill="#89a7c5" transform="matrix(-245.60645 68.57455 -25.73484 -92.17184 141.5 103)"/><path fill="#7da4cf" d="M103 74l154 36L271-3z"/><circle r="1" fill="#314f78" transform="rotate(169.8 35.7 14.9) scale(175.51101 43.63962)"/><circle r="1" fill="#d6b077" transform="rotate(116.1 31.2 94.8) scale(16.54731 79.07397)"/><circle r="1" fill="#6c5c3e" transform="rotate(-82 105 37.8) scale(30.44101 103.21842)"/><circle r="1" fill="#dee0d8" transform="matrix(-1.10437 -8.74202 27.56516 -3.48229 208 79.4)"/><path fill="#d1c5b4" d="M103 127l-9 37-26-22z"/><path fill="#483f2c" d="M147 90l124 33-73 8z"/><path fill="#a4a59d" d="M9 132h30v38H9z"/><ellipse cx="225" cy="135" fill="#dbd3ba" rx="28" ry="5"/><path fill="#00000d" d="M74 165h70v5H74z"/><ellipse cx="43" cy="42" fill="#888e93" rx="54" ry="8"/><circle r="1" fill="#518bc6" transform="matrix(27.47453 -4.53159 2.47754 15.0211 21.2 87.8)"/><circle r="1" fill="#4e6d92" transform="matrix(-6.14996 -16.80555 43.31801 -15.85214 181.6 45.7)"/><path fill="#e4ded1" d="M256 16l1 13.9-31 2.2-1-14z"/><path fill="#444132" d="M151 146l70 19-6-21z"/><path fill="#22210e" d="M-8.6 114.4l81.7 7.2-.5 6-81.7-7.2z"/><circle r="1" fill="#2a3543" transform="rotate(-169 70.8 1.2) scale(34.02248 9.98967)"/><ellipse cx="122" cy="162" fill="#aca89c" rx="52" ry="3"/><path fill="#a68e69" d="M49 81h115v30H49z"/><circle r="1" fill="#333a43" transform="rotate(-97.6 40.5 18.8) scale(5.28617 105.83967)"/><path fill="#273337" d="M115 140h47v12h-47z"/><path fill="#9fa19f" d="M223 117l-13-32-58-4z"/><path fill="#211f18" d="M1 153.8l1-2.9 31 11.3-1 2.9z"/><path fill="#baae94" d="M213.9 165.3l57.1-10.7-30.8-22.8-2 15.9z"/><path fill="#2b3234" d="M182 164h71v4h-71z"/><path fill="#dddacd" d="M20.8 162.2l13.4 5 41.4 2.3-85.1 11z"/><ellipse cx="210" fill="#6481a2" rx="77" ry="12"/><path fill="#b1a58d" d="M149 156h63v8h-63z"/><path fill="#638cb7" d="M122 53l66 24-146-4z"/><path fill="#3a2723" d="M34.9 143.9l41.6 22.2-42.4 1.4 22.3-12.4z"/><circle r="1" fill="#e3c79c" transform="matrix(-8.57974 -4.78298 5.23676 -9.39375 73.2 81)"/><circle r="1" fill="#3e4d61" transform="matrix(50.1825 -4.83203 2.76991 28.76664 51.7 10.6)"/><path fill="#5f6b7a" d="M218 83h38v38h-38z"/><path fill="#bebdaf" d="M6 131l5.7-11.7-.4 26.4-18.1-15z"/><path fill="#cdc5b3" d="M217 134.5l-18.1 5.8-7.6 8-32.8-7.2z"/><path fill="#4b4530" d="M18 140l28-33-39-3z"/><path fill="#cdb593" d="M102.5 81.6l4.4 29.4 36.4 16.6-37-53.3z"/><path fill="#6081a4" d="M220.3 75l48.5-7.7.2-30.4-105.6-6z"/><path fill="#8b7a5e" d="M133.9 124.2l55.8 16.8-83-4.2-47.8-46.7z"/><path fill="#fffff4" d="M210 81V71l-25 8z"/><path fill="#7f725c" d="M125.4 75.6l-30.7 27.1L81 76.9l100.7 54.5z"/><path fill="#5c5139" d="M40 112h48v27H40z"/><path fill="#6194c5" d="M148.6 88.6l-3.8-12.4 74.6-22.8 3.8 12.4z"/><path fill="#8f928b" d="M7 138h50v13H7z"/><path fill="#dcd5c5" d="M107 122l-18 10-4 20z"/><path fill="#4f4f47" d="M-16 136.2l61.2 39.9-29.2-33-13.3 33z"/><ellipse cx="234" cy="144" fill="#3f403a" rx="5" ry="9"/><path fill="#c4c1b6" d="M-1.9 166.8l40.4-16.3L4.1 185l22.6-17.7z"/><path fill="#423b20" d="M55 87l-3 8 23 3z"/><path fill="#2c241c" d="M87 79h5v13h-5z"/><path fill="#e1c49a" d="M142 91.4L123.8 73l31 23.3-2.1 4.4z"/><path fill="#5b584d" d="M111 140l-40 22 93-11z"/><path fill="#2d302b" d="M205 185l-23-25 44 12z"/><path fill="#dddacb" d="M32.8 138.6l-.6-13 5-.2.6 13z"/><circle r="1" fill="#85a4c1" transform="matrix(-39.45795 -7.74134 2.23536 -11.39372 252 73.7)"/><path fill="#463c22" d="M211.4 114.4l6.5 11.2-17.3 10-6.5-11.2z"/><ellipse cx="210" cy="50" fill="#5f7084" rx="71" ry="6"/><circle r="1" fill="#494940" transform="matrix(2.29283 .35905 -5.41183 34.55924 245.8 165.2)"/><path fill="#473a2c" d="M151 166h29v4h-29z"/><ellipse cx="195" cy="100" fill="#e3d1b1" rx="11" ry="3"/><path fill="#3c516c" d="M206.3 111.4l64.7-.4-3.9 13.4-33.9 5.4z"/><path fill="#a4a9a6" d="M127 163l-18-13 7 17z"/><path fill="#1b210f" d="M5.4 130.1l-21.4 3.1L6 115l6.5-.7z"/><circle r="1" fill="#75674e" transform="rotate(38.4 -70.3 309) scale(29.59669 7.5383)"/><path fill="#2e373e" d="M193.7 147.3L195 161l29.9-17 3.5 4.5z"/><circle r="1" fill="#a2977e" transform="matrix(1.5229 .04254 -2.05941 73.72803 73 141.4)"/><circle cx="5" cy="59" r="19" fill="#3b4859"/><circle r="1" fill="#767f89" transform="matrix(15.67717 11.9449 -4.7536 6.2389 29.1 42)"/><path fill="#c9cfc6" d="M229 130h27v5h-27z"/><circle r="1" fill="#4e5b6b" transform="matrix(-4.25983 10.19403 -57.5739 -24.0587 93.3 26.2)"/><path fill="#a9b0a6" d="M115 169h29v1h-29z"/><path fill="#b2a184" d="M158 155l25-4-16 22z"/><path d="M0 167h8v3H0z"/><path fill="#c9b18d" d="M93 77h23v11H93z"/><path fill="#a0a8ac" d="M261 75.6l-29.8-5.4 39.8 38.1-26.8-7.7z"/><path fill="#887a62" d="M106 135l59 1-90-36z"/><path fill="#867d6a" d="M213 137h28v6h-28z"/><ellipse cx="50" cy="117" fill="#a69b82" rx="2" ry="33"/><circle r="1" fill="#7693b4" transform="rotate(166 120.7 20.4) scale(24.91292 6.07301)"/><path fill="#3f3c33" d="M38.2 164.8l-1 2.8-39.4-14.4 1-2.8z"/><path fill="#2c3644" d="M36.5 20.3l-22.9-2.2L45 39.7l25.5-6.9z"/><path fill="#464233" d="M206.5 108.7l11.3 23.4-19-25.8-5.4-7.2z"/><ellipse cx="15" cy="131" fill="#acafa8" rx="1" ry="33"/><path fill="#30201d" d="M50 158h21v9H50z"/><path fill="#584b35" d="M181.4 117.4l7.4-14.3-31.1-16.3 1.3 1.9z"/><path fill="#ad9975" d="M82.5 110.1L46.7 73.3l32.7 8.4L69 82.9z"/><path fill="#deded9" d="M15 142h17v3H15z"/><path fill="#9da19a" d="M59 158l11-4-20-13z"/><path fill="#ebece5" d="M27 156l9 1 3-7z"/><circle r="1" fill="#868e94" transform="matrix(.68474 4.1362 -31.23093 5.17025 70.8 41.7)"/><path fill="#c3ab89" d="M58 127h21v3H58z"/><path fill="#0e111c" d="M227.1 162l29.9 3-.1 1-29.9-3z"/><circle cx="192" cy="141" r="6" fill="#dddccd"/><path fill="#222217" d="M60 136l19 1 6-7z"/><path fill="#d8cdba" d="M224.2 158l-.2-2 31.8-4 .2 2z"/><path fill="#656056" d="M100.4 185L58 123.8l13.5 38.4 6.8-24.6z"/><path fill="#30311e" d="M33.7 106.7l-49.7 7.1 24.1 7.8-14.4-14.8z"/><path fill="#728fb0" d="M181.6 19.1l-5 12.1-8.5 8.8 23.8 2.1z"/><path fill="#cbcbc2" d="M32.9 168l-31-5.9 19 17.8 46.4-7.6z"/></g></g></svg>