<svg xmlns="http://www.w3.org/2000/svg" viewBox="0 0 1800 1200"><defs/><filter id="a"><feGaussianBlur stdDeviation="12"/></filter><rect width="100%" height="100%" fill="#25334d"/><g filter="url(#a)"><g fill-opacity=".5" transform="translate(3.5 3.5) scale(7.03125)"><circle r="1" fill="#d2e3e4" transform="matrix(240.75714 -18.43515 5.65414 73.84129 118.4 53)"/><circle r="1" fill="#e8d9c1" transform="matrix(67.01315 .07228 -.05133 47.59091 49.1 81)"/><circle r="1" fill="#21517f" transform="matrix(13.77245 -54.46606 103.29957 26.12065 201 24.6)"/><circle r="1" fill="#7a7c73" transform="rotate(84.1 -52.2 110) scale(31.93689 79.9726)"/><path fill="#7b7f7f" d="M81 72h175v43H81z"/><circle r="1" fill="#bcb09e" transform="rotate(-103.8 96.2 14) scale(15.72136 45.2999)"/><path fill="#d7d3c8" d="M-8.1 62.7L10 104l107.7-51.1L65.6 46z"/><path fill="#363019" d="M271 141l-98-29-85 31z"/><circle r="1" fill="#2e5175" transform="matrix(16.99752 -28.95418 125.32971 73.57467 221.7 0)"/><path fill="#5f80a0" d="M162 94L34-16l176 62z"/><ellipse cx="148" cy="155" fill="#324e69" rx="102" ry="13"/><circle r="1" fill="#9db0be" transform="matrix(20.09044 23.85816 -15.05101 12.67413 15.7 37.2)"/><ellipse cx="194" cy="110" fill="#767470" rx="68" ry="9"/><ellipse cx="76" cy="14" fill="#5b80a6" rx="36" ry="30"/><ellipse cy="109" fill="#b9b4a5" rx="118" ry="18"/><circle r="1" fill="#1d231a" transform="matrix(-2.42443 -12.92545 48.048 -9.01236 245.1 127.9)"/><path fill="#8c8f90" d="M145.1 131.4l-17.8-3.7-61.2-44.9 54.5-27.5z"/><path fill="#594f3c" d="M86.2 143.4l88.5-11.8-102.9-2.9-79.7 14.4z"/><circle r="1" fill="#b2b8b9" transform="matrix(-1.89934 13.48989 -22.52933 -3.17206 92.7 53)"/><path fill="#c8c3b5" d="M171 111l-10 7 16-1z"/><circle cx="9" cy="169" r="44" fill="#576370"/><circle r="1" fill="#d6d4cd" transform="matrix(9.10318 -5.84943 12.48955 19.43687 50.5 50.6)"/><path fill="#6986a4" d="M52-14L-16 5l192 62z"/><path fill="#ccc9c3" d="M31.7 16.6l.5 6L.3 25.4l-.5-6z"/><circle r="1" fill="#56748d" transform="matrix(48.25044 4.28174 -2.07104 23.33835 191.6 64.3)"/><ellipse cx="109" cy="87" fill="#747d89" rx="28" ry="10"/><ellipse cx="85" cy="142" fill="#000308" rx="175" ry="1"/><path fill="#877259" d="M81 134h33v7H81z"/><path fill="#636f7b" d="M266.2 81.6l-38.7 11.5-1.1 23.4 33.7-3.2z"/><path fill="#979693" d="M41 133h26v4H41z"/><ellipse cx="183" cy="122" fill="#2f3331" rx="31" ry="5"/><path fill="#b0aa9f" d="M48 94h73v35H48z"/><path fill="#637f9b" d="M111.4 45.1L91.1 58l23.7-62.9 78 93.5z"/><circle r="1" fill="#9f9a93" transform="rotate(-93.2 133 -36.7) scale(4.3085 35.9356)"/><path fill="#354b63" d="M119 144h54v50h-54z"/><circle r="1" fill="#466788" transform="matrix(95.89458 63.48156 -9.99574 15.09946 232.7 51.4)"/><path fill="#1b1d21" d="M49 139h39v3H49z"/><path fill="#ffc77b" d="M192 113h11v4h-11z"/><path fill="#9aa1a5" d="M76 65h53v10H76z"/><path fill="#232a2c" d="M204.8 140.6l16.8-27.2 46.8 13.4-17.7 17.6z"/><path fill="#7e96ad" d="M26.7 16.4l-.9 36-41.8-4 96.7-25.3z"/><path fill="#8f8270" d="M9 141l-5-9h30z"/><path fill="#373a31" d="M6 128h42v4H6z"/><circle r="1" fill="#dbd5ca" transform="matrix(28.42754 -10.01092 2.50066 7.101 62 56.6)"/><path fill="#574d37" d="M149 127l-60 2 41 10z"/><path fill="#7c94a9" d="M88 35L69 49 34 19z"/><circle r="1" fill="#527396" transform="matrix(114.02832 36.81077 -4.2611 13.19955 77.6 0)"/><path fill="#9a998d" d="M68 119h70v9H68z"/><path fill="#a5acae" d="M11.8 52.6L29 77.7l24.4-42.8 17.7 4z"/><path fill="#4e5e74" d="M0 144h75v26H0z"/><circle r="1" fill="#315272" transform="matrix(-77.96871 -47.52333 11.34545 -18.6138 247.2 0)"/><ellipse cx="38" cy="131" fill="#3e4237" rx="101" ry="2"/><path fill="#919089" d="M69.2 93.7l-12.8-.2 81.1 3.6-80.2-12.3z"/><ellipse cx="228" cy="137" fill="#323e48" rx="95" ry="3"/><path fill="#afaea8" d="M170.4 88.1l-1.5 18.5-2.9-11.3 5.1 22.7z"/><path fill="#f8ecda" d="M109.2 49.3l2 2.2-8.4 7.2-2-2.2z"/><circle r="1" fill="#141d1f" transform="matrix(-60.3021 4.8518 -.29218 -3.6315 227 130)"/><path fill="#5f594c" d="M143 125h29v3h-29z"/><path fill="#edc58c" d="M210 113h3v5h-3z"/><path fill="#6a859d" d="M118.2 60.1L138.8 93l23.7-29.6-55.3-30.6z"/><path fill="#777b7e" d="M131 126.2l-3.9-11.4 37.9-13 3.9 11.4z"/><path fill="#4c4c42" d="M212 119h44v3h-44z"/><path fill="#45423d" d="M46.1 142l-34.2-11.2 14.4 12.5 8.5-9z"/><ellipse cy="120" fill="#aeab9f" rx="81" ry="6"/><circle r="1" fill="#c9c3b8" transform="matrix(-36.19164 -23.14552 5.7377 -8.97179 17.9 72.2)"/><path fill="#816b51" d="M130 141l4-11-13 4z"/><path fill="#7a8088" d="M24 166h23v4H24z"/><path fill="#284154" d="M179.6 145.1l68-1.2.8 49-68 1.2z"/><ellipse cx="164" cy="141" fill="#060d17" rx="48" ry="1"/><path fill="#3d413a" d="M64 143.9l28.8-10.5 41.4-2.7-42.8-2.5z"/><path fill="#b0aaa1" d="M150.9 96.4l-33.6 12.9-2.2-5.7 33.6-12.9z"/><ellipse cx="88" cy="161" fill="#3b4c63" rx="39" ry="7"/><path fill="#636f78" d="M172 108h84v6h-84z"/><path fill="#070d1c" d="M115 136h8v5h-8z"/><path fill="#b7b4ab" d="M96.6 53.2l-110 68.9 122.6-15L68 90.4z"/><path fill="#e4ded2" d="M42.9 72.7l-6.7-8.2-9.6 5.9 28.3-24.7z"/><path fill="#50627b" d="M76 164h46v5H76z"/><path fill="#d8d1c4" d="M112 58l-5 2 3-14z"/><circle cx="89" cy="135" r="2" fill="#dad3bc"/><path fill="#c0bfba" d="M86.7 58.9l-6.5-17 18.6-1.4-34.4 21.2z"/><path fill="#1e282a" d="M187.1 135.1l-7.1-8.7-19.7-6.4-2.7 14.8z"/><ellipse cx="170" cy="117" fill="#eddbc1" rx="3" ry="2"/><ellipse cx="10" cy="4" fill="#6988a8" rx="47" ry="12"/><path fill="#5c778d" d="M164 60h47v27h-47z"/><path fill="#d3ccc1" d="M28 35h10v9H28z"/><ellipse cx="41" cy="144" fill="#6c7687" rx="47" ry="1"/><path fill="#79848f" d="M149 85l-35 13-19-26z"/><ellipse cx="189" cy="118" fill="#453c2e" rx="11" ry="2"/><path fill="#4b4f4d" d="M194.4 132.5l17-29.6-4.9 19-18.9 5.4z"/><path fill="#67839f" d="M-3.2-16l92.9 57.2L51.4 44l72.1-24.1z"/><path fill="#cfa879" d="M204.5 112.6v3l-17-.2v-3z"/><path fill="#808385" d="M141.5 127.2l23.2-23.8-21.1-8.3-10.8 30z"/><path fill="#c2c2bd" d="M-16 41.1l29.5-22.7-29.5-2.5.2 23.2z"/><path fill="#969391" d="M218 85h38v4h-38z"/><path fill="#3f4f61" d="M20.8 154.7L12.5 169l27.4-7.3-48.6 2.2z"/><path fill="#64707b" d="M182 106l-5 14-6-13z"/><path fill="#dad5c7" d="M169 103h2v14h-2z"/><path fill="#9caab2" d="M0 47h46v7H0z"/><path fill="#7b7b7d" d="M210.6 89.5l-16.4 25.2 34.1-9.1 33.2-3.3z"/><circle cx="51" cy="136" r="4" fill="#7e7c7b"/></g></g></svg>