<svg xmlns="http://www.w3.org/2000/svg" viewBox="0 0 1800 1013"><defs/><filter id="a"><feGaussianBlur stdDeviation="12"/></filter><rect width="100%" height="100%" fill="#242a34"/><g filter="url(#a)"><g fill-opacity=".5" transform="translate(3.5 3.5) scale(7.03125)"><circle r="1" fill="#ffffd4" transform="matrix(-4.5713 51.33862 -253.99509 -22.61625 123 15)"/><circle r="1" fill="#fcd5a1" transform="rotate(-3.4 436.6 -953) scale(112.4618 33.47783)"/><ellipse cx="190" cy="54" fill="#ebad5f" rx="57" ry="28"/><ellipse cx="86" cy="77" fill="#010000" rx="69" ry="19"/><ellipse cx="162" cy="70" fill="#fcc06b" rx="10" ry="25"/><path fill="#ffd059" d="M78 72h12v21H78z"/><circle cx="40" cy="143" r="49" fill="#575954"/><path d="M239 63h17v34h-17z"/><ellipse cx="39" cy="49" fill="#d9a355" rx="152" ry="10"/><ellipse cx="24" cy="78" rx="54" ry="19"/><ellipse cx="210" fill="#b4b5aa" rx="210" ry="38"/><path fill="#d2a35e" d="M201.2 97.3l21.2-32.9-70.9 19.8 36.9-41.8z"/><ellipse cx="120" cy="123" fill="#404647" rx="96" ry="27"/><circle r="1" transform="matrix(-33.249 -15.3469 5.88497 -12.74977 118.2 80)"/><path d="M215 74l56 16-71 8zm-39 3l21.5 4.3-3.4 17.6-21.6-4.2z"/><path fill="#af8b57" d="M220.3 74l24.1-49.4 15.3 7.4-24.1 49.4z"/><path fill="#bc9e6f" d="M271 30L47 46l131 27z"/><path d="M238 65h18v31h-18z"/><path fill="#050300" d="M91 65h61v32H91z"/><path fill="#b4905b" d="M182.8 78l51.6-39.5L271 59.2l-35.2 8.2z"/><circle r="1" fill="#dcb677" transform="rotate(176.1 3.2 22.1) scale(55.59834 15.76802)"/><circle r="1" fill="#c39759" transform="rotate(9.8 -272.4 775) scale(46.87907 7.12212)"/><path fill="#050000" d="M64.8 69l1.7-11.8 26.7 3.7-1.7 12z"/><ellipse cx="23" cy="77" fill="#0b0500" rx="53" ry="19"/><ellipse cx="28" fill="#cec4ac" rx="66" ry="33"/><path fill="#070100" d="M175.6 76.6l-12.1 20.1 38.1-.7-1.9-9.7z"/><path fill="#c99d5c" d="M159.5 60.6l71.4 12.2-13.3 2-12.9 12.1z"/><circle cx="162" cy="83" r="8" fill="#e2a95a"/><ellipse cx="196" cy="35" fill="#b5a587" rx="72" ry="15"/><path fill="#d38f44" d="M75.1 80.4l4.4-2.1 12.3 3.9-3.4 14.2z"/><path fill="#020000" d="M216.4 97l-9.6-10.3L223.6 71l9.6 10.3z"/><circle r="1" fill="#090804" transform="matrix(-26.03619 -3.65915 1.4354 -10.21346 54.9 87.6)"/><path fill="#bb945a" d="M240 83l-32-22 24-8z"/><path fill="#0c0a04" d="M47 91l58-32-121 1z"/><path fill="#4d4f50" d="M-16 97l38.3 1.4 18.1 24-12 17.2z"/><circle r="1" fill="#8f988d" transform="matrix(8.93 -14.51857 82.94008 51.0143 231.6 6)"/><path fill="#090702" d="M161.2 95.8l-26.6-31.5-33.5-2-10.9 31.6z"/><path fill="#c19c66" d="M119 58l69 21 45-40z"/><path fill="#2d3439" d="M127 97h114v47H127z"/><path fill="#3c4147" d="M50 97h83v34H50z"/><circle r="1" fill="#acafa2" transform="rotate(112.5 67 44.7) scale(15.0649 66.91138)"/><path fill="#bb9155" d="M229.3 75.4l-41.8-14.5 17.2 37 3.3-24.1z"/><path fill="#ccb48c" d="M167.6 45.8L33.7 41.2l.7-19 133.9 4.6z"/><path fill="#0a0804" d="M236 93.6l5.3-30.5 18.7 3.3-5.3 30.5z"/><path fill="#0a0a07" d="M88 61h23v20H88z"/><path fill="#ac8959" d="M223.8 70.6l12.3 11.2 12.9-50 22 25.8z"/><path fill="#c19855" d="M116.5 44.9L-1.9 60.2l75.6-2.9 11.5 4z"/><path fill="#dc9e51" d="M81 74h6v15h-6z"/><path fill="#ffbd6d" d="M165 92.8l-7.9 1.4-.1-1 7.9-1.4z"/><path fill="#6f6e69" d="M71.1 154.9h-5.8l.4-17-14.8 1.7z"/><path fill="#0c0a05" d="M42.5 55.3l-1.9.9L4.4 97.1l33.3-7.2z"/><path fill="#060704" d="M250.3 85.7l-.7 13-44-2.4.8-13z"/><path fill="#bf9b63" d="M185.1 60.8v23.3l31.4-38.2-.3 31.3z"/><ellipse cx="117" cy="45" fill="#c9a978" rx="71" ry="9"/><ellipse cx="144" cy="132" fill="#000305" rx="10" ry="2"/><path fill="#020608" d="M98 131h17v3H98z"/><path fill="#050503" d="M57 91l13 1 13-25z"/><path fill="#70706c" d="M5 125h32v3H5z"/><path fill="#16191d" d="M50.3 145l50.4-6.8-35.1 10.1 30.4-4.8z"/><path fill="#c09456" d="M152 75l5 15 30-24z"/><path fill="#494d51" d="M157 142l-32-16-4 9z"/><circle r="1" fill="#a69e85" transform="matrix(-38.25115 .64742 -.221 -13.05755 239 30)"/><ellipse cx="189" cy="139" fill="#5d5f5d" rx="33" ry="1"/><ellipse cx="26" cy="95" fill="#070704" rx="151" ry="2"/><path fill="#0b0a07" d="M91 60h21v30H91z"/><path fill="#1b1e22" d="M184.3 144.8l-27.1-15.1 26.6 24.5-66-15.1z"/><path fill="#0d1012" d="M57.9 125.1l22.5 4.8-.3 1-22.5-4.8z"/><path fill="#030400" d="M147 70h6v19h-6z"/><path fill="#20252c" d="M27 136h43v3H27z"/><path fill="#353c44" d="M135 97h35v21h-35z"/><path fill="#191a1b" d="M29 130h27v2H29z"/><path fill="#525555" d="M84.8 137.7l-3.6-.1 32.7-20L17.4 159z"/><ellipse cx="66" cy="113" fill="#292e31" rx="47" ry="2"/><path fill="#505658" d="M67 118h54v3H67z"/><path fill="#d9a95f" d="M113 61h14v2h-14z"/><ellipse cx="241" cy="138" fill="#0a0d0e" rx="14" ry="2"/><path fill="#030500" d="M174 78l-7 15 39 3z"/><path fill="#d0a45f" d="M17 44l44 9-69 6z"/><circle r="1" fill="#0c0a09" transform="matrix(10.43951 6.52142 -8.38421 13.42147 251.4 78.7)"/><path fill="#dda661" d="M168 93l-10-5 2 4z"/><circle r="1" fill="#bab9ab" transform="matrix(-52.50806 -8.17833 1.61427 -10.36422 87.2 4.8)"/><path fill="#3b4043" d="M-9 96h35l6 32z"/><ellipse cx="240" cy="50" fill="#aa9168" rx="25" ry="15"/><path fill="#b68442" d="M81.9 89.2l-6.4-6.4L87 71.3l3.5 23.6z"/><path fill="#232628" d="M9.5 128.5l12.7 3.2-2.3 27.3H59z"/><path fill="#0b0b08" d="M39.3 98.8l41.3-6.5L41.3 59l-1.2-6.7z"/><ellipse cy="143" fill="#6d6a61" rx="39" ry="1"/><path fill="#090907" d="M156.7 88.5l-40 1.5L83 71.2l61.4-2.8z"/><circle r="1" fill="#070702" transform="rotate(132.3 77.5 84.9) scale(4.20658 5.41669)"/><path fill="#060604" d="M151 69l-28-6 31 34z"/><ellipse cx="83" cy="81" fill="#c6934a" rx="5" ry="9"/><path fill="#545757" d="M-8 106l35 1-43 13z"/><path fill="#010403" d="M218 75h9v9h-9z"/><path fill="#be9557" d="M99 56h26v4H99z"/><ellipse cx="110" cy="142" fill="#5e5e5c" rx="19" ry="1"/><path fill="#7c7b73" d="M89.5 135.8l17-.6v1l-17 .6z"/><path fill="#5d5f5f" d="M32 133h13v4H32z"/><path fill="#585956" d="M46 130l14-7-29 4z"/><path fill="#c48c4c" d="M200 81h5v12h-5z"/></g></g></svg>