<svg xmlns="http://www.w3.org/2000/svg" viewBox="0 0 1800 1200"><defs/><filter id="prefix__a"><feGaussianBlur stdDeviation="12"/></filter><rect width="100%" height="100%" fill="#3b3e45"/><g filter="url(#prefix__a)"><g transform="translate(3.5 3.5) scale(7.03125)"><circle r="1" fill="#ecffff" fill-opacity=".5" transform="matrix(254.75377 -11.20337 2.47214 56.21412 93.2 43)"/><circle r="1" fill="#637379" fill-opacity=".5" transform="rotate(-97.7 123.1 27.7) scale(61.56778 255)"/><path fill="#acb3c8" fill-opacity=".5" d="M-16 70L238 8l33 80z"/><circle r="1" fill="#7994c0" fill-opacity=".5" transform="matrix(174.63934 6.09854 -1.19495 34.21894 111 13.3)"/><ellipse cx="171" cy="98" fill="#3d3941" fill-opacity=".5" rx="55" ry="11"/><ellipse cx="18" cy="87" fill="#a69ea3" fill-opacity=".5" rx="104" ry="19"/><path fill-opacity=".5" d="M107 149l4-14 26 11z"/><path fill="#b9b4b2" fill-opacity=".5" d="M53 63h203v23H53z"/><path fill="#5e6f7d" fill-opacity=".5" d="M90 163l-106-15 120-17z"/><ellipse cx="30" cy="124" fill="#354345" fill-opacity=".5" rx="64" ry="9"/><circle r="1" fill="#6e86ac" fill-opacity=".5" transform="rotate(169.4 16.5 1.5) scale(166.79392 24.55527)"/><circle r="1" fill="#607178" fill-opacity=".5" transform="matrix(-44.41066 9.53449 -2.58625 -12.04647 181.3 143.1)"/><circle r="1" fill="#a6a9bb" fill-opacity=".5" transform="matrix(31.97534 -8.85497 4.32337 15.6117 25.1 46.8)"/><path fill="#686973" fill-opacity=".5" d="M0 99h101v15H0z"/><circle r="1" fill="#97a7b7" fill-opacity=".5" transform="matrix(-125.77525 6.85454 -1.07747 -19.77075 169 43.3)"/><path fill="#4a4b50" fill-opacity=".5" d="M152 87h104v26H152z"/><ellipse cx="203" cy="104" fill="#4e5559" fill-opacity=".5" rx="4" ry="28"/><path fill="#44464e" fill-opacity=".5" d="M82.1 109.7l34.1 2.9 3.5-25.8 98.2 23.7z"/><path fill="#beb5b7" fill-opacity=".5" d="M131 84h18v7h-18z"/><path fill="#617279" fill-opacity=".5" d="M268.9 152.2l2.1-2.2-8.7-25.7L206 154z"/><path fill="#7e8283" fill-opacity=".5" d="M131.5 115v-2.9l161 2.8v3z"/><path fill="#242524" fill-opacity=".5" d="M212.9 145l-50.7 25.6 35.7-15.5 46.8-24z"/><ellipse cx="7" cy="92" fill="#99969a" fill-opacity=".5" rx="39" ry="10"/><path fill="#898e8c" fill-opacity=".5" d="M133 149h61v2h-61z"/><path fill="#121715" fill-opacity=".5" d="M109 142h29v6h-29z"/><path fill="#babcbc" fill-opacity=".5" d="M231 61h25v25h-25z"/><path fill="#a3a3a9" fill-opacity=".5" d="M155.2 79.5l11.9-6.4-76 27.9L4.3 60.7z"/><path fill="#545a63" fill-opacity=".5" d="M-10.2 102l54-1 .4 19-54 1z"/><path fill="#6e727e" fill-opacity=".5" d="M59 98h40v8H59z"/><path fill="#8498b6" fill-opacity=".5" d="M76.1 3.1L28.6 53.4l35.5 2.9L234-6.2z"/><path fill="#44434b" fill-opacity=".5" d="M107 96l-16 18 53-18z"/><path fill="#1e1f1f" fill-opacity=".5" d="M216.5 145.9l-.5-1 75.5-36.8.5 1z"/><path fill="#55656f" fill-opacity=".5" d="M117.6 109l47.7 41.1-33.2-7.8 51.7-11.5z"/><path fill="#adb3bd" fill-opacity=".5" d="M143 28h43v9h-43z"/><ellipse cx="115" cy="115" fill="#5f666e" fill-opacity=".5" rx="43" ry="4"/><circle r="1" fill="#404b3e" fill-opacity=".5" transform="matrix(.60416 4.88455 -22.29905 2.7581 104 169)"/><path fill="#313e34" fill-opacity=".5" d="M154 165h18v5h-18z"/><path fill="#151719" fill-opacity=".5" d="M127 135h4v11h-4z"/><path fill="#3d4a4d" fill-opacity=".5" d="M72.1 120.8l-58.3 27.1-29.8-18.4 36.3-8.3z"/><path fill="#5d6c7b" fill-opacity=".5" d="M60 134h28v19H60z"/><ellipse cx="131" cy="108" fill="#41424a" fill-opacity=".5" rx="34" ry="4"/><path fill="#474c51" fill-opacity=".5" d="M120 92h115v20H120z"/><path fill="#a1a1a5" fill-opacity=".5" d="M48 98l-63-41 133 37z"/><ellipse cx="204" cy="102" fill="#61665f" fill-opacity=".5" rx="25" ry="2"/><circle r="1" fill="#6e86a7" fill-opacity=".5" transform="matrix(-4.33453 -11.83797 94.80792 -34.71435 22 0)"/><circle r="1" fill="#44545c" fill-opacity=".5" transform="rotate(97.5 -2.1 111.4) scale(9.01636 30.92988)"/><path fill="#566265" fill-opacity=".5" d="M175.1 163l13.2-7.3-53.2-6.5-36.9.1z"/><path fill="#3f5048" fill-opacity=".5" d="M189 167h67v3h-67z"/><ellipse cx="134" cy="85" fill="#a5a2a5" fill-opacity=".5" rx="26" ry="4"/><path fill="#52545e" fill-opacity=".5" d="M184 85h14v11h-14z"/><path fill="#616c72" fill-opacity=".5" d="M17 161h39v4H17z"/><path fill="#4f5e64" fill-opacity=".5" d="M75 144h34v21H75z"/><path fill="#a8aab3" fill-opacity=".5" d="M-16 38.8L18.4 66l17.4-31.2 18.6.4z"/><path fill="#b4b8bf" fill-opacity=".5" d="M144 48h27v6h-27z"/><path fill="#191f23" fill-opacity=".5" d="M126.6 143.8l-5 6.4-10.2-8 5-6.4z"/><path fill="#2a2c2e" fill-opacity=".5" d="M56.5 117.5l-5.2-4.8-2 9.5.1-1.4z"/><path fill="#413e45" fill-opacity=".5" d="M202 80h3v7h-3z"/><circle r="1" fill="#879bb4" fill-opacity=".5" transform="matrix(-.86637 12.58497 -81.30762 -5.59737 235.7 18.2)"/><path fill="#5a6977" fill-opacity=".5" d="M9 137h100v3H9z"/><ellipse cx="51" cy="113" fill="#6b6969" fill-opacity=".5" rx="91" ry="2"/><path fill="#63636b" fill-opacity=".5" d="M246.9 90l-.4 1.9L219 86l.4-2z"/><path fill="#445454" fill-opacity=".5" d="M125 119h131v5H125z"/><path fill="#57666f" fill-opacity=".5" d="M231 131l-56 31-11-37z"/><path fill="#b4b6b9" fill-opacity=".5" d="M271 89l-18-27-86 4z"/><path fill="#465357" fill-opacity=".5" d="M169 136h22v7h-22z"/><ellipse cx="145" cy="148" fill="#a39f95" fill-opacity=".5" rx="7" ry="1"/><path fill="#364438" fill-opacity=".5" d="M231 163h25v2h-25z"/><path fill="#585d69" fill-opacity=".5" d="M151 88h105v3H151z"/><path fill="#6c7c8b" fill-opacity=".5" d="M244 135h12v5h-12z"/><ellipse cx="231" cy="39" fill="#92a4b7" fill-opacity=".5" rx="69" ry="12"/><ellipse cx="145" cy="149" fill="#b3ada4" fill-opacity=".5" rx="10" ry="1"/><path fill="#aeadb0" fill-opacity=".5" d="M9.5 58.1l23.4-4.2 42.6 14.3-33.7-.4z"/><ellipse cx="224" cy="114" fill="#8e8c8b" fill-opacity=".5" rx="25" ry="1"/><path fill="#5e615a" fill-opacity=".5" d="M236.1 100.5l23.3 4.2 1.9 1.9-36.4 1.6z"/><path fill="#aeb0b2" fill-opacity=".5" d="M236.1 87.7l30.3-13.3-13.7 14.9-18.8-36.1z"/><path fill="#555960" fill-opacity=".5" d="M161.9 81.6l-9.7 40.4-16-10.7 3.8 9z"/><path fill="#2f3a2d" fill-opacity=".5" d="M35 158h13v2H35z"/><ellipse cx="179" cy="144" fill="#64737f" fill-opacity=".5" rx="35" ry="2"/><path fill="#7a7b86" fill-opacity=".5" d="M88 97.3l18 .4v3l-18-.4z"/><path fill="#5e6973" fill-opacity=".5" d="M47.2 147.3l-34.5 4.9 7.6 12.5-36.3 10.8z"/><ellipse cx="1" cy="94" fill="#98979b" fill-opacity=".5" rx="39" ry="7"/><path fill="#a7a7a9" fill-opacity=".5" d="M130 80h19v11h-19z"/><circle r="1" fill="#7e93b2" fill-opacity=".5" transform="rotate(89.4 66.3 71.9) scale(9.3908 62.09775)"/><path fill="#525660" fill-opacity=".5" d="M0 105h60v8H0z"/><path fill="#adacab" fill-opacity=".5" d="M200.4 69.1l1.5 15.7-6 .6-26.3.8z"/><ellipse cx="166" cy="116" fill="#526169" fill-opacity=".5" rx="63" ry="2"/><path fill="#a6a3a5" fill-opacity=".5" d="M89 83h30v14H89z"/><path fill="#343f3d" fill-opacity=".5" d="M29 142h10v2H29z"/><path fill="#727e89" fill-opacity=".5" d="M41 151h13v3H41z"/><ellipse cx="45" cy="103" fill="#616773" fill-opacity=".5" rx="36" ry="3"/><path fill="#4b5b68" fill-opacity=".5" d="M53 130h69v5H53z"/><path fill="#4e5b63" fill-opacity=".5" d="M56 114h60v6H56z"/><path fill="#454751" fill-opacity=".5" d="M91.8 111.6L119.2 95l5.4-6.6 27.7 21.3z"/><ellipse cx="135" cy="153" fill="#767f8a" fill-opacity=".5" rx="4" ry="2"/><path fill="#4f5c5c" fill-opacity=".5" d="M119 166.1l46.3-14.9 13.9.9-21.8 20.1z"/><ellipse cx="165" cy="112" fill="#77787b" fill-opacity=".5" rx="3" ry="4"/><path fill="#536364" fill-opacity=".5" d="M232 153l-36 11 30 6z"/><path fill="#606166" fill-opacity=".5" d="M241 86h11v4h-11z"/><path fill="none" stroke="#2c2924" stroke-opacity=".5" stroke-width=".5" d="M141.3 185q38.4-26.6 46.2-23.4"/><path fill="#354234" fill-opacity=".5" d="M47.8 167.4l-8.6 5-1-1.8 8.6-5z"/></g></g></svg>