<svg xmlns="http://www.w3.org/2000/svg" viewBox="0 0 1800 1200"><defs/><filter id="a"><feGaussianBlur stdDeviation="12"/></filter><rect width="100%" height="100%" fill="#46332b"/><g filter="url(#a)"><g fill-opacity=".5" transform="translate(3.5 3.5) scale(7.03125)"><circle r="1" fill="#f4ffff" transform="rotate(169.3 59.9 21.1) scale(199.25287 79.91224)"/><circle cx="89" cy="158" r="168" fill="#989ea7"/><circle r="1" fill="#453637" transform="matrix(-30.30803 45.9189 -38.14663 -25.17807 218.4 61)"/><circle r="1" fill="#f3f1e2" transform="matrix(-66.9982 30.1692 -15.05187 -33.42643 115.2 53.3)"/><circle cx="79" cy="169" r="60" fill="#343346"/><circle r="1" fill="#fffcdf" transform="rotate(130.5 57.4 68.4) scale(21.71877 25.82171)"/><circle r="1" fill="#3c6898" transform="rotate(-115.6 17.3 -10.9) scale(26.89841 122.89573)"/><circle r="1" fill="#cfb58d" transform="matrix(1.67693 -17.1026 143.79036 14.09877 29.2 81)"/><circle r="1" fill="#a5bbce" transform="matrix(-7.32204 -20.76554 107.3412 -37.8491 113.3 25.4)"/><path fill="#4f4443" d="M159 58l49-55 63 30z"/><ellipse cx="158" cy="122" fill="#696064" rx="220" ry="21"/><path d="M122 134h9v36h-9z"/><ellipse cx="190" cy="113" fill="#442e1e" rx="9" ry="38"/><circle r="1" fill="#737079" transform="rotate(129.8 94 96) scale(58.45658 13.72414)"/><circle r="1" fill="#e4e3de" transform="matrix(56.32585 -18.5847 3.8916 11.7945 126.4 52.3)"/><circle r="1" fill="#434354" transform="matrix(-.1453 20.81181 -88.8056 -.61999 26.3 150.5)"/><path fill="#afcfef" d="M228 12l-1-28 44 27z"/><circle r="1" fill="#8e8583" transform="matrix(20.4013 -17.5936 6.72108 7.79366 204.4 51.2)"/><ellipse cx="246" cy="169" fill="#272532" rx="28" ry="10"/><circle r="1" fill="#75798f" transform="matrix(1.29971 -36.2469 21.62035 .77524 153.8 155.5)"/><circle r="1" fill="#879eb7" transform="rotate(75 41.7 72.3) scale(15.73177 92.69722)"/><ellipse cx="32" cy="111" fill="#dacbab" rx="36" ry="3"/><path fill="#b1a890" d="M68 92h45v18H68z"/><path fill="#716c85" d="M25 122h33v32H25z"/><path fill="#f8e4c8" d="M110 62h59v29h-59z"/><path fill="#d0d0c8" d="M198.4 17.7L68.6 74.8l-28.7-.3-12.4-20z"/><ellipse cx="183" cy="144" fill="#564a49" rx="10" ry="60"/><ellipse cx="33" cy="79" fill="#918d85" rx="84" ry="4"/><path fill="#514036" d="M180.7 63l-16.9-2 1.5-12 16.9 2z"/><path fill="#303036" d="M50 141h63v15H50z"/><path fill="#39210b" d="M238.2 91.7l22.7 17.8-22.9.4 28-44z"/><path fill="#676371" d="M206 2h21v18h-21z"/><path fill="#817f8c" d="M113 130h8v40h-8z"/><path fill="#8d827e" d="M197 37h11v90h-11z"/><circle r="1" fill="#456180" transform="matrix(5.6733 10.3326 -50.29488 27.61534 0 12.7)"/><path fill="#101826" d="M38 133h5v37h-5z"/><path fill="#c3ced9" d="M174 7l-9 44 40-49z"/><path fill="#433935" d="M191.9 26.1l38.9-7.9L271 40l-28.1-.8z"/><path fill="#32252a" d="M0 116h41v6H0z"/><path fill="#e8edf5" d="M129 181l40-19-21 23z"/><path fill="#7b6d6a" d="M170 68h15v51h-15z"/><ellipse cx="50" cy="91" fill="#e3c49c" rx="44" ry="6"/><path fill="#735d50" d="M87.6 132.8L53 116.9l112.3-15.3-77.2 19.3z"/><path fill="#6d676d" d="M116.1 181.1l-25.9-2-27.4 5.9-10.9-43.7z"/><path fill="#3c3537" d="M211 143l-19-10 29-4z"/><path fill="#ddc59d" d="M55.1 88.4l105.1 4.1 9.8 24.2 1.8-39.7z"/><path fill="#48311e" d="M190.1 125.6l8.6-7.6-3-39.2-13.5 13.6z"/><path fill="#2e2724" d="M101.2 147l18.4 33.2-8.8 4.8-18.4-33.2z"/><path fill="#e7e5e1" d="M99 69l72 10-17-43z"/><path fill="#74788c" d="M84 116h11v26H84z"/><ellipse cx="7" cy="169" fill="#19191c" rx="3" ry="22"/><path fill="#696369" d="M209 41h33v83h-33z"/><circle r="1" fill="#67687a" transform="matrix(-7.87188 -12.58792 53.13896 -33.23058 245.7 137)"/><path fill="#a29292" d="M60 119.3l-4.3 32.4-7.7-50.2-9.3 15.8z"/><path fill="#635d5f" d="M140.3 102l-1.5 65.9-19.6-70.5-11.5 21.1z"/><path fill="#807d88" d="M132.1 133.1l-21.9-2.3 1.7-16 21.9 2.4z"/><path fill="#7f7e72" d="M-12.7 97.3l46 2.4-.6 11-46-2.4z"/><path fill="#121e31" d="M49 135h4v35h-4z"/><path fill="#6a6b80" d="M240 28l31-17-25 3z"/><ellipse cx="114" cy="96" fill="#958f87" rx="36" ry="4"/><path fill="#8b858a" d="M174 101l-34 8 36 8z"/><path fill="#584b43" d="M197 45l-29 16 5-20z"/><path fill="#312928" d="M59 131h12v20H59z"/><circle r="1" fill="#7e92a6" transform="rotate(61 13.4 57) scale(11.66256 85.48633)"/><circle r="1" fill="#b6bab6" transform="matrix(-5.06003 -10.51437 46.7167 -22.48235 60.5 47.5)"/><path fill="#cfc3a9" d="M37 109h14v9H37z"/><path fill="#757289" d="M29 163l-1-34 13 16z"/><path fill="#646067" d="M229.5 3.3L227.7 0l-33 7.4 26.6-.4z"/><path fill="#776f74" d="M217 26h14v86h-14z"/><circle r="1" fill="#a2b2c4" transform="rotate(167 83.6 14) scale(66.58628 5.59918)"/><ellipse cx="71" cy="107" fill="#474539" rx="32" ry="1"/><path fill="#848582" d="M7.9 68.1l43.8 15.4-18.8-3.1-23 1.8z"/><path fill="#c9bea6" d="M86 104h28v6H86z"/><ellipse cx="26" cy="108" fill="#36342b" rx="29" ry="1"/><path fill="#483933" d="M70.9 111.1l54.6 1.5-70.4.7 6.5 8.8z"/><path fill="#70635e" d="M110.6 103.7l61.6 8.1-1.3-29.2 19.7 22.4z"/><path fill="#6d7183" d="M16.1 167.9l2.5-36.6-34.6 28.1 28.1-14.3z"/><path fill="#303334" d="M93 122h27v3H93z"/><path fill="#3d4149" d="M64 136l35-2-23-8z"/><path fill="#a09c8e" d="M13 96h68v11H13z"/><path fill="#4c6392" d="M100 124h12v16h-12z"/><path fill="#d0c4b3" d="M238 96h3v7h-3z"/><path fill="#898283" d="M180 57h21v20h-21z"/><path fill="#4f433c" d="M132 113h28v5h-28z"/><path fill="#ddd2bc" d="M120 99h30v4h-30z"/><path fill="#9ca8b8" d="M238.1 5L271-16l-22.2 30.6-40.2-2.7z"/><path fill="#393c48" d="M232 89l9 16-7 10z"/><circle r="1" fill="#412d1b" transform="matrix(2.21524 8.444 -5.62727 1.47629 193.8 88.6)"/><circle cx="8" cy="136" r="4" fill="#21151c"/><circle r="1" fill="#67626a" transform="rotate(-28.5 245.4 -451.7) scale(18.23975 17.03708)"/><path fill="#29231c" d="M23.8 188l-4.6-43.7 3-.3 4.6 43.7z"/><path fill="#5b5d71" d="M48 160L7 148l18 13z"/><path fill="#94745c" d="M63 111l29 5-7 11z"/><path fill="#7c7b89" d="M201 141l24 41-34-22z"/><ellipse cx="126" cy="169" fill="#0c1517" rx="5" ry="37"/><path fill="#848188" d="M174.2 131.6l-37.8-9.4 1.4-5.8 37.8 9.4z"/><path fill="#4a3b34" d="M162 100l-5 3-4-2z"/><path fill="#ccc0ac" d="M3 113h11v3H3z"/><path fill="#534b4d" d="M165 136h34v15h-34z"/><ellipse cx="33" cy="123" fill="#8a8297" rx="26" ry="2"/></g></g></svg>