<svg xmlns="http://www.w3.org/2000/svg" viewBox="0 0 1800 1012"><defs/><filter id="prefix__a"><feGaussianBlur stdDeviation="12"/></filter><rect width="100%" height="100%" fill="#3e3b3c"/><g filter="url(#prefix__a)"><g transform="translate(3.5 3.5) scale(7.03125)"><circle cx="125" r="145" fill="#e4f8ff" fill-opacity=".5"/><ellipse cx="188" cy="117" fill="#4d5158" fill-opacity=".5" rx="203" ry="34"/><circle r="1" fill="#c0c9dc" fill-opacity=".5" transform="matrix(16.0145 57.68623 -114.73726 31.85266 140.5 30)"/><path fill="#060600" fill-opacity=".5" d="M246 99l-34-24-84 24z"/><ellipse cx="28" cy="80" fill="#8c9baf" fill-opacity=".5" rx="147" ry="18"/><circle r="1" fill="#918177" fill-opacity=".5" transform="matrix(-10.68273 18.0635 -37.80273 -22.35647 226.3 129)"/><circle r="1" fill="#55606c" fill-opacity=".5" transform="matrix(121.71664 12.36353 -2.8903 28.45454 49 123.8)"/><path fill="#362d08" fill-opacity=".5" d="M134.1 138.2l76.9-9.8-47.8 29.6-100.4-5.7z"/><ellipse cx="249" cy="33" fill="#b7bec8" fill-opacity=".5" rx="166" ry="35"/><circle r="1" fill="#9ba7c1" fill-opacity=".5" transform="matrix(26.77636 7.98684 -24.70078 82.81089 26.5 15.8)"/><ellipse cx="173" cy="113" fill="#818e9b" fill-opacity=".5" rx="57" ry="15"/><path fill="#9baabd" fill-opacity=".5" d="M230 54h17v39h-17z"/><ellipse cx="134" cy="4" fill="#8796ad" fill-opacity=".5" rx="29" ry="18"/><path fill="#131c04" fill-opacity=".5" d="M263 103l-23 3 31-68z"/><ellipse cx="40" cy="125" fill="#515a66" fill-opacity=".5" rx="47" ry="29"/><path fill="#6d4f3f" fill-opacity=".5" d="M175 149l96-10-23-30z"/><circle r="1" fill="#8996a7" fill-opacity=".5" transform="matrix(2.41781 -19.20696 48.42942 6.0964 28.4 76.3)"/><path fill="#69727f" fill-opacity=".5" d="M63 97.2l83.8-4.3 12.5 42.4-74.2-14.4z"/><path fill="#383836" fill-opacity=".5" d="M194 91l45 10-28-32z"/><path fill="#9ea9b2" fill-opacity=".5" d="M137.4 100.8l47.1-31.7-138 27.5 88-9.3z"/><path fill="#818a94" fill-opacity=".5" d="M225.8 120.5l-61-.7-52.8-7.6 122.2-13.3z"/><path fill="#c8cacb" fill-opacity=".5" d="M54 19.4l26.8-1.7 123.8 25.6-114.3-8.4z"/><path fill="#cdd0d4" fill-opacity=".5" d="M203-14l38 51-89-53z"/><path fill="#a1aab3" fill-opacity=".5" d="M138 60h69v18h-69z"/><ellipse cx="128" cy="96" fill="#010002" fill-opacity=".5" rx="6" ry="2"/><path fill="#aab1bf" fill-opacity=".5" d="M10 40L8 2l74 27z"/><ellipse cx="179" cy="91" fill="#2b2f2c" fill-opacity=".5" rx="27" ry="5"/><path fill="#8f9baa" fill-opacity=".5" d="M233.1 78.8L255 46.5l10 6.7-22 32.3z"/><circle r="1" fill="#bfc4cb" fill-opacity=".5" transform="rotate(173.6 115.8 19) scale(54.18439 9.27945)"/><path fill="#7386a1" fill-opacity=".5" d="M86-16l29 21 34 2z"/><path fill="#b2c2c3" fill-opacity=".5" d="M194 140h4v3h-4z"/><path fill="#93a0b1" fill-opacity=".5" d="M158.5 4.6l47.6 5.8-.6 5L158 9.6z"/><circle r="1" fill="#89574c" fill-opacity=".5" transform="rotate(-118.4 164.8 -2) scale(14.59245 64.48397)"/><path fill="#555950" fill-opacity=".5" d="M246.5 119.9l-26.8 22.5-10.2-12.3 26.8-22.5z"/><path fill="#95a0ab" fill-opacity=".5" d="M230 58h16v35h-16z"/><circle r="1" fill="#60646a" fill-opacity=".5" transform="matrix(.27726 -21.5373 39.52854 .50888 71.7 142)"/><path fill="#929aa3" fill-opacity=".5" d="M227 98l6 6-24 18z"/><path fill="#38341f" fill-opacity=".5" d="M129 158l-16-15 76-12z"/><path fill="#4a3e38" fill-opacity=".5" d="M207 69h7v8h-7z"/><path fill="#646e7b" fill-opacity=".5" d="M167 99l-59 16-52-20z"/><circle r="1" fill="#94a2b9" fill-opacity=".5" transform="matrix(-39.55265 -16.67596 2.2031 -5.2254 66 2.9)"/><path fill="#a6b0bb" fill-opacity=".5" d="M229.3 59.6L271 29.7l-62.1 8.9-102.7-36z"/><path fill="#93a0ae" fill-opacity=".5" d="M44 74h80v22H44z"/><path fill="#9ca8b4" fill-opacity=".5" d="M256.8 51.5l-59.5 3.2 51.7 35L212.1 76z"/><path fill="#4f5967" fill-opacity=".5" d="M64 108l-23 24-57-42z"/><ellipse cx="201" cy="96" fill="#2b2e29" fill-opacity=".5" rx="60" ry="3"/><path fill="#dbddde" fill-opacity=".5" d="M184-16L154-2l56 8z"/><path fill="#a2abb9" fill-opacity=".5" d="M11 56l119 17-95-50z"/><path fill="#3c3d3f" fill-opacity=".5" d="M158.4 97.2l-1.7-6.8 38.9-9.6 1.7 6.8z"/><path fill="#95a0aa" fill-opacity=".5" d="M171 68h25v14h-25z"/><path fill="#a2acb8" fill-opacity=".5" d="M134 67h14v28h-14z"/><path fill="#3a3d3e" fill-opacity=".5" d="M223 80l-42 3 54 16z"/><path fill="#3e4344" fill-opacity=".5" d="M234.1 101.6l-16.9-23.5 15.9 9.5-23.2 7.9z"/><path fill="#aba9a3" fill-opacity=".5" d="M203.1 127.8l21.1-18.4.7.8-21.1 18.4z"/><path fill="#8d99aa" fill-opacity=".5" d="M0 61h61v34H0z"/><path fill="#282a1c" fill-opacity=".5" d="M252 86l7 23-10 10z"/><circle r="1" fill="#929dab" fill-opacity=".5" transform="matrix(-.10274 -6.0562 18.78035 -.3186 233.6 74.8)"/><path fill="#4a4b39" fill-opacity=".5" d="M183 140.9l-16.2-1.7 34.3-12.9 6.4 12.9z"/><path fill="#1e2416" fill-opacity=".5" d="M231 108l17-5-6-7z"/><path fill="#8597ab" fill-opacity=".5" d="M140.1 85.5l-41.9-9.6 29.9-2.1 8.1 4.3z"/><path fill="#747d87" fill-opacity=".5" d="M191 130l12-31 24 10z"/><circle r="1" fill="#a8b2be" fill-opacity=".5" transform="rotate(32.3 46 266.3) scale(7.92401 25.19186)"/><path fill="#72767b" fill-opacity=".5" d="M135.1 118.2l-.8 18.7 49.6-5.7 9.3-3.5z"/><ellipse cx="239" cy="48" fill="#aeb4bc" fill-opacity=".5" rx="106" ry="7"/><circle cx="69" cy="100" r="3" fill="#9fa094" fill-opacity=".5"/><circle cx="130" cy="94" r="3" fill="#393534" fill-opacity=".5"/><path fill="#cfd0d1" fill-opacity=".5" d="M92.1 30l-14.4-9.1 15 .5 33.7 8.2z"/><path fill="#857e76" fill-opacity=".5" d="M258.3 141.6L199.4 158l33.2-29.7-18.3 19.8z"/><circle r="1" fill="#c8cbcc" fill-opacity=".5" transform="rotate(-69 110 -102.8) scale(4.1775 20.22208)"/><path fill="#484a3f" fill-opacity=".5" d="M242.7 80.4l21.4 6.5-19.9 4.4 9 2z"/><path fill="#9aa4ab" fill-opacity=".5" d="M193 81.7l-79.8 14.8 117.2-42.7L175.6 82z"/><path fill="#525458" fill-opacity=".5" d="M186 98h40v3h-40z"/><path fill="#5e605a" fill-opacity=".5" d="M217.9 143.6l-18.4-4.6 2.6-10.6 18.4 4.6z"/><path fill="#a1abb5" fill-opacity=".5" d="M154 39h15v13h-15z"/><path fill="#3e3f3f" fill-opacity=".5" d="M193.2 94.8l3.7-16.9 21.1 3.6-41.7 2.6z"/><circle r="1" fill="#acb6c6" fill-opacity=".5" transform="matrix(3.47397 -14.64848 31.39227 7.44484 242.6 10.5)"/><path fill="#b1b9c2" fill-opacity=".5" d="M93.9 59.3L122.1 10 85.9-1.9l107 65.7z"/><ellipse cy="97" fill="#68758b" fill-opacity=".5" rx="32" ry="2"/><path fill="#51524b" fill-opacity=".5" d="M265.3 119.9l1.9 2.4-41.2-5.6 5.6-4.8z"/><path fill="#4a5664" fill-opacity=".5" d="M-10.8 128.8L-9.2 96l23.1 3.9 53.7-3.2z"/><path fill="#737d88" fill-opacity=".5" d="M153.2 111.9l50.3-11.9-36.3.1-43.1-2z"/><path fill="#919aa3" fill-opacity=".5" d="M250.8 91.7l-9.5-3-10 5.6-.7-28.3z"/><path fill="#c1c5c8" fill-opacity=".5" d="M205 40.9l20.8-3.4L271 25.1l-70.7 5.5z"/><path fill="#8695aa" fill-opacity=".5" d="M126 5h35v4h-35z"/><path fill="#838e9a" fill-opacity=".5" d="M218 103h18v3h-18z"/><path fill="none" stroke="#8e918f" stroke-opacity=".5" stroke-width=".5" d="M243 108q-30 8-40.5 19"/><circle r="1" fill="#9ba6ba" fill-opacity=".5" transform="matrix(-131.6285 50.00097 -1.8882 -4.97074 52.3 7.2)"/><ellipse cx="137" cy="97" fill="#252935" fill-opacity=".5" rx="18" ry="1"/><path fill="#5f666f" fill-opacity=".5" d="M73 97h17v45H73z"/><path fill="#adb6c1" fill-opacity=".5" d="M153 3.4l-11.9.8-14.5-17.9 79.3 24.4z"/><path fill="#8199b2" fill-opacity=".5" d="M231 56h25v5h-25z"/><path fill="#acb5c1" fill-opacity=".5" d="M128 72L71 55l39-27z"/><path fill="#3b4131" fill-opacity=".5" d="M252 68h4v23h-4z"/><path fill="#2b2a27" fill-opacity=".5" d="M60 101h7v2h-7z"/><path fill="#96a1ad" fill-opacity=".5" d="M224 80l20-31v44z"/><path fill="#8897b2" fill-opacity=".5" d="M36.7-.7l-6.2 12.6L-1.6-16l109 15.5z"/><path fill="#838b93" fill-opacity=".5" d="M232 111l-89 11 26-20z"/><path fill="#303434" fill-opacity=".5" d="M192 81h23v6h-23z"/><path fill="#97a4b3" fill-opacity=".5" d="M185.9 41.2l.5-4 29.7 3.6-.5 4z"/><path fill="none" stroke="#898f97" stroke-opacity=".5" stroke-width=".5" d="M260.3 64.5Q237 81 202.5 78.2"/></g></g></svg>