<svg xmlns="http://www.w3.org/2000/svg" viewBox="0 0 1800 1350"><defs/><filter id="a"><feGaussianBlur stdDeviation="12"/></filter><rect width="100%" height="100%" fill="#45372c"/><g filter="url(#a)"><g fill-opacity=".5" transform="translate(3.5 3.5) scale(7.03125)"><circle r="1" fill="#b1c2c9" transform="rotate(-104.8 107.3 -32.5) scale(126.38646 254.99999)"/><circle r="1" fill="#fff" transform="matrix(-43.15045 14.80785 -15.582 -45.40634 0 141.9)"/><circle r="1" fill="#341204" transform="matrix(49.38125 19.65741 -12.10375 30.40574 81.2 92)"/><path fill="#fff0d4" d="M214 34l18 88-105 15z"/><path fill="#fff" d="M193 103h63v23h-63z"/><ellipse cx="60" cy="10" fill="#185185" rx="251" ry="30"/><path fill="#fff" d="M139.1 45.1l-.1-11.3L128.9-16l-6 56.9z"/><ellipse cx="14" cy="86" fill="#e6eddf" rx="19" ry="44"/><circle r="1" fill="#594d34" transform="matrix(-123.83 3.23869 -.7015 -26.82127 141.2 180.2)"/><ellipse cx="18" cy="148" fill="#fffff4" rx="32" ry="25"/><ellipse cx="55" cy="77" fill="#000001" rx="24" ry="22"/><path fill="#e9b792" d="M124.5 151.8l-15 5.5-28-77 15-5.6z"/><ellipse cx="169" cy="69" fill="#58667d" rx="27" ry="53"/><path fill="#f3f8ed" d="M195.3 30.6l22.8-7-3.9 72.6 4.7 36.2z"/><circle r="1" fill="#343221" transform="matrix(28.15048 5.67613 -2.64118 13.09881 244.9 90.8)"/><circle r="1" fill="#8f4f2d" transform="matrix(42.22496 26.7145 -8.66566 13.69695 75 132)"/><circle cx="110" cy="45" r="18" fill="#292f20"/><circle r="1" fill="#fff" transform="matrix(61.08153 19.21446 -.8287 2.63441 236.3 156.7)"/><path fill="#100a00" d="M201.9 129.2l-2.3 11.7-31.5-6 2.3-11.8z"/><path fill="#fff" d="M84 68l-5-12 20 1z"/><path d="M113.3 119l-7.1-29.9 22.6 4.7 4.8 32.5z"/><ellipse cx="140" cy="110" fill="#e6d4c5" rx="9" ry="31"/><path fill="#fffff1" d="M63 143h15v15H63z"/><path fill="#fff" d="M51 53l-39 5 10 9z"/><ellipse cx="245" cy="29" fill="#335491" rx="29" ry="43"/><path fill="#ffe" d="M167.9 136.3l1.8-9.3-23.6-21.8.7 29.6z"/><path fill="#554123" d="M48 35l31-1 1 31-31 1z"/><ellipse cx="176" cy="99" fill="#d2a279" rx="14" ry="25"/><path fill="#2e592c" d="M122.5-4v36h-33V-4z"/><path fill="#ffffef" d="M133-16l4 71-14-36z"/><ellipse cx="6" cy="182" fill="#fcf6e7" rx="9" ry="84"/><ellipse cx="255" cy="183" fill="#55544a" rx="242" ry="16"/><path fill="#fcfff0" d="M112 115l-8 31 17-4z"/><path fill="#fff" d="M271 111l-43-12 21 25z"/><path fill="#ab8678" d="M101 66h39v26h-39z"/><path fill="#885233" d="M56.5 171.5l-21.3-57.3-3.3-33.3 33.9 36.6z"/><path fill="#3c5e8e" d="M139 0h59v70h-59z"/><circle r="1" fill="#f1e6b0" transform="matrix(-2.27858 .3169 -5.3142 -38.20946 85.7 0)"/><path fill="#fffff3" d="M226 107l-22 27-18-39z"/><path fill="#71563d" d="M173 104.6l11.5 37.7-38.1-39.8 25.1-12.1z"/><path fill="#fbeed6" d="M40.4 175.8l-24.2-40.3 15.4-9.3 24.2 40.3z"/><path fill="#539cda" d="M162 92l-25-24.5L148 56l25.2 24.3z"/><ellipse cx="6" cy="50" fill="#7ea6a6" rx="46" ry="8"/><path fill="#84765f" d="M188 168l-113 5 56-41z"/><circle r="1" fill="#875e4b" transform="matrix(-3.9007 -28.85019 24.37803 -3.29604 85.4 120.6)"/><ellipse cx="242" cy="97" fill="#0f1008" rx="21" ry="5"/><path fill="#fbf3d1" d="M111.3 56.1l-30.6-.9-1.3 13.7 22.4-13.7z"/><path fill="#263e66" d="M51.9 116.6l29-10.3 10 6.1-17.7 14.1z"/><ellipse cx="8" cy="89" fill="#82888e" rx="21" ry="11"/><path fill="#cad2c3" d="M71 43h25v7H71z"/><path fill="#777a77" d="M217 51h30v41h-30z"/><circle cx="14" r="45" fill="#34528e"/><path fill="#445250" d="M255.7 132.7l-19.1-8.1 9.8 11.8-14-25.2z"/><path fill="#c6c1c0" d="M88 84h14v17H88z"/><path fill="#8f6144" d="M178.2 108.5l22.9 12.5-17.3-16.7 6.7-42.7z"/><path fill="#fff" d="M171 80h13v5h-13z"/><path fill="#000104" d="M123.3 89l9.7 21.9-18.3 8.1-9.7-21.9z"/><path fill="#d57f52" d="M166 45.8l1.9 15-12 1.4-1.8-15z"/><path fill="#20201e" d="M102 70.1l-19.9-4.2 31.3 18.7-69.6-9.7z"/><path fill="#2c201b" d="M54.2 109.7L66.8 139l-9.6 11.7 3.3 13.8z"/><path fill="#543b3b" d="M90 54.4L94 42l42 13.6-4 12.4z"/><path fill="#9f6943" d="M77 118h30v52H77z"/><ellipse cx="119" cy="9" fill="#855f42" rx="7" ry="25"/><circle r="1" fill="#ffffe8" transform="rotate(53 -62.8 60.2) scale(12.91337 4.21462)"/><path fill="#f1efe2" d="M0 100h32v67H0z"/><circle r="1" fill="#c3ccab" transform="matrix(-19.9644 16.87475 -.64554 -.76373 67 17.3)"/><circle r="1" fill="#2e6746" transform="rotate(-28.7 94 -103.6) scale(27.48111 5.84708)"/><ellipse cx="197" cy="3" fill="#2d487e" rx="61" ry="18"/><path fill="#87a7b1" d="M110 44h9v14h-9z"/><ellipse cx="176" cy="70" fill="#572900" rx="5" ry="8"/><path fill="#ca7e4e" d="M51.3 115.4l9.3 66.4-6 .8-9.2-66.4z"/><path fill="#e7ecec" d="M141.2 122.3l-11-41.3 1.5 26.7 5.7-9.8z"/><path fill="#1e1e1c" d="M83 134h6v23h-6z"/><path fill="#1d1e1b" d="M137.2 125.4L126 102.3l-21.1 21.1 16.3-4.4z"/><path fill="#bb6b3f" d="M131.7 120l-18 5 9.2 16.7 10.9-4.2z"/><ellipse cx="56" cy="75" fill="#020d1a" rx="23" ry="15"/><path fill="#000001" d="M36 113l-5-7 6-8z"/><path fill="#5f6050" d="M219.5 156l51.5 21.3-65.5 29.7-43.8-69.5z"/><path fill="#a2735f" d="M38 110.2l30.4-10.8-.2-24.7 10.4 33.6z"/><path fill="#a6a692" d="M140 158l29-20-31 37z"/><path fill="#282220" d="M62 56V44l26 9z"/><path fill="#918260" d="M196 128h60v14h-60z"/><path fill="#eae9dd" d="M-12 100l59 28-52 67z"/><circle r="1" fill="#fafceb" transform="rotate(-152.2 119 30) scale(26.84252 10.14873)"/><circle cx="67" cy="150" r="6" fill="#ffffec"/><path fill="#a15939" d="M48.3 55.8l10.4 13.1L66.6 35l-10.8 4z"/><path fill="#000200" d="M16 179h4v13h-4z"/><path fill="#e6effe" d="M141.1 108.4L139 90.6l8-1 2.2 17.8z"/><path fill="#dfe1d9" d="M215.4 25l-17.9 5.3L216 80l1.5-49.1z"/><path fill="#f0f0dc" d="M101.9-16l33 9.1-1.5 44-6.8-28.8z"/><path fill="#d2977b" d="M106.9 73.5l35.5-1.5-65.9-12.6 17.3 4.1z"/><path fill="#978670" d="M36.2 176.7l45.4-16.2-48.6 5.9L9.4 207z"/><path fill="#faffe7" d="M6.5 52l45-3v1l-45 3z"/><path fill="#442816" d="M53.3 137.2l3-.8 12.4 46.4-3 .8z"/><path fill="#1d1a15" d="M100 158.7l19 3.6-24.1-8 3.8-14.9z"/><path fill="#68838f" d="M233.5 119.5l-8.4-17.3-2 1.5 14.2.7z"/><path fill="#6c8990" d="M63.6 19.1L-3.7 56.4l26.1-34.7L-5 71.4z"/><path fill="#eee1be" d="M230 69h11v5h-11z"/><path fill="#0e0100" d="M95 55.3l1.8-1.6 11.7-11.3-14.3 2.1z"/><path fill="#c5865d" d="M81.9 138.5L59 124.6l53.2-.8-26.4 9.3z"/></g></g></svg>