<svg xmlns="http://www.w3.org/2000/svg" viewBox="0 0 4536 3024"><defs/><filter id="a"><feGaussianBlur stdDeviation="12"/></filter><rect width="100%" height="100%" fill="#2f435f"/><g filter="url(#a)"><g fill-opacity=".5" transform="translate(8.9 8.9) scale(17.71875)"><circle r="1" fill="#ffe69d" transform="matrix(-3.92008 -57.85835 111.60574 -7.56162 191.2 82.8)"/><circle r="1" fill="#ffd8a2" transform="matrix(5.84122 -36.78365 66.83961 10.6141 222.7 98.2)"/><circle r="1" fill="#69666b" transform="rotate(69.9 73.9 148) scale(30.9523 199.54989)"/><ellipse cx="160" cy="156" fill="#403b2f" rx="255" ry="23"/><circle r="1" fill="#736a69" transform="matrix(-46.16625 -8.43136 3.89141 -21.30758 82 114.8)"/><ellipse cx="127" cy="91" fill="#ffd9aa" rx="22" ry="18"/><path fill="#efc692" d="M151.5 20.4l22.8-10.2 12.2 27.4-22.8 10.2z"/><circle r="1" fill="#47576a" transform="matrix(-18.14622 -23.64861 60.77108 -46.63129 104.7 41.6)"/><ellipse cx="200" cy="155" fill="#64594f" rx="83" ry="21"/><path fill="#d5e0d3" d="M271 69.4l-90.9-4.7-12.8 21 55.4 6.7z"/><ellipse cx="172" cy="127" fill="#c79760" rx="108" ry="8"/><circle r="1" fill="#08253e" transform="matrix(0 -22.91278 92.58786 0 26 156.8)"/><circle r="1" fill="#514f55" transform="matrix(1.12643 10.54031 -48.22328 5.15358 221.7 40.7)"/><path fill="#6c5b54" d="M120 110h67v15h-67z"/><ellipse cx="169" cy="129" fill="#ffdb7d" rx="35" ry="4"/><path fill="#8f7d72" d="M141 4l5 81.4 20.7 5.4 11.8-34.7z"/><path fill="#ffecac" d="M157 100h69v8h-69z"/><path fill="#545c6a" d="M55 137l67-31-59-29z"/><path fill="#c79d67" d="M186 107h70v27h-70z"/><path fill="#374d65" d="M23 21h89v56H23z"/><path fill="#debd90" d="M94.3 127l-7.1-6.9 31.4-2.8-18 11.5z"/><path fill="#bbaf9e" d="M171.8 66.2l99.2-9.7-134-5.6 52.5 20.8z"/><ellipse cx="81" cy="80" fill="#8b807c" rx="15" ry="12"/><path fill="#5e616f" d="M132 117.8l3.1 11.6-25.1 6.8-3.1-11.6z"/><path fill="#fff5d3" d="M125.2 82.4L143.3 98l-6.5 7.5L118.7 90z"/><path fill="#61666f" d="M144-16h75l-93 54z"/><path fill="#e5c18c" d="M157.6 88l-35.1 3.2L143 97l35.7 20.5z"/><path fill="#58575b" d="M136.7 53.9l24.6 30.3-.3-.4-9.5 6.8z"/><circle r="1" fill="#405161" transform="rotate(124.3 -10.4 64.6) scale(20.4458 34.0423)"/><path fill="#ddbe92" d="M163 15h12v27h-12z"/><path fill="#2b3545" d="M38 135h168v7H38z"/><ellipse cx="204" cy="162" fill="#5d5851" rx="37" ry="28"/><path fill="#d5d8cb" d="M213 62l37-8-18-3z"/><path fill="#b89c7b" d="M131.2 92.3l-2 9.8-30.4-6.4 2-9.8z"/><path fill="#eac385" d="M184.8 119.5l65.4-10.1-52.3 4.4-30.5.7z"/><path fill="#585f63" d="M174 21l97 12-91-44z"/><path fill="#ffeec7" d="M121.7 107.3l6.2 5.4 5.3-8.3-20.5-4.9z"/><path fill="#7e7d7b" d="M242 66.5h-22v-5h22z"/><path fill="#ffe39c" d="M137 124h23v6h-23z"/><path fill="#b69f85" d="M151 65l46-41-52 25z"/><circle r="1" fill="#b19374" transform="rotate(120.8 44.5 76.7) scale(4.37334 21.1574)"/><path fill="#c9c7af" d="M262 54l-51 35 60 3z"/><path fill="#c7a172" d="M253 98l-29 8-22-21z"/><path fill="#ffe39a" d="M104 117h15v4h-15z"/><circle r="1" fill="#454145" transform="rotate(109.8 11.8 129) scale(26.31355 32.39414)"/><circle r="1" fill="#7a695f" transform="matrix(-6.18584 3.55701 -4.68556 -8.14843 145.7 109)"/><ellipse cx="173" cy="106" fill="#ffffe4" rx="10" ry="3"/><ellipse cx="71" cy="57" fill="#324356" rx="36" ry="10"/><path fill="#90795d" d="M236 117h20v6h-20z"/><path fill="#887056" d="M182 109h29v3h-29z"/><path fill="#746e70" d="M48 127h76v7H48z"/><path fill="#425770" d="M56 23h78v28H56z"/><circle r="1" fill="#5f6364" transform="matrix(-15.93763 3.32954 -6.54511 -31.32968 255 25.8)"/><path fill="#e8c892" d="M221 113l41-1-86-29z"/><path fill="#ffffed" d="M121.8 92.6l-1.4-6.9 11.8-2.3 1.4 6.9z"/><path fill="#484e55" d="M219.3 47.2l-36 2.5-.6-9 36-2.4z"/><path fill="#938375" d="M115.3 89l23.9 23-36.6-26.6L137 44.1z"/><path fill="#626169" d="M80 84l29 31-31 11z"/><path fill="#ffffd6" d="M160 90l-13 2 1-4z"/><path fill="#d7b693" d="M92 84l10 10 13-10z"/><circle cx="164" cy="65" r="7" fill="#61605c"/><path fill="#394656" d="M0 105h59v30H0z"/><circle r="1" fill="#495a6c" transform="matrix(52.73 6.798 -1.98827 15.4224 32 92.3)"/><path fill="#686768" d="M154.4 86.2l16.2-14.3-3.7 15.7-59-56.9z"/><path fill="#e7b36b" d="M135 129h71v5h-71z"/><path fill="#a89480" d="M215.8 33.8l-1.5 3.7-22.1-9.3 1.5-3.7z"/><path fill="#d3b791" d="M161.1 85.9l-11-22.5 2.8-1.3 11 22.5z"/><circle r="1" fill="#817875" transform="matrix(15.82856 -19.49117 4.89068 3.97166 146.7 46.6)"/><path fill="#dfdeca" d="M183 76l40-8-53-4z"/><path fill="#1f3143" d="M107 174l-56-40 63 1z"/><path fill="#857869" d="M199 50h19v8h-19z"/><path fill="#746b63" d="M192.6 125.7l-27.4.9-92.8-16.7 72.4 2.7z"/><circle cx="141" cy="77" r="4" fill="#e2c19a"/><path fill="#474a4b" d="M206 135h50v17h-50z"/><path fill="#edc380" d="M187.4 129.6l.2-8 23 .8-.2 8z"/><circle r="1" fill="#3d5269" transform="matrix(34.4974 9.04558 -4.06942 15.51967 113 7)"/><path fill="#51555f" d="M31.1 70.8l67.3-6.2.7 20.1L119 72.4z"/><circle r="1" fill="#fddea4" transform="matrix(.55028 4.5514 -20.00563 2.41873 197 101.8)"/><path fill="#bf9a6f" d="M139.1 104.6l76.1-12.5L205 92l-45.6 3z"/><circle r="1" fill="#2e455c" transform="matrix(2.3888 -6.64331 19.06834 6.85656 40.5 75.5)"/><ellipse cx="179" cy="120" fill="#806e58" rx="22" ry="2"/><path fill="#6c6f76" d="M61.6 97.9L66.3 69l39.8 31.4-69.8-16.1z"/><circle r="1" fill="#6d676b" transform="matrix(-31.62668 38.67414 -4.15603 -3.39869 149.3 26.6)"/><path fill="#dfd0b0" d="M217 88l-50 3 2-17z"/><ellipse cx="230" cy="73" fill="#b7c6b8" rx="52" ry="4"/><path fill="#766d68" d="M120 116h18v14h-18z"/><path fill="#9bb1ac" d="M16.8 78.6l8-4 .4.8-8 4z"/><ellipse cx="129" cy="155" fill="#524d4c" rx="10" ry="21"/><path fill="#fff" d="M124 107l5-1-8-5z"/><path fill="#c2a585" d="M83 105h8v3h-8z"/><path fill="#edc684" d="M163 97h45v5h-45z"/><path fill="#af8f65" d="M219.8 118l-1.2 3.8-30.4-9.8 1.2-3.8z"/><path fill="#dec38e" d="M128 90h6v15h-6z"/><path fill="#d0b58d" d="M161.2 23.5l7.9 21.7 16.1-13.4-24.9-12.7z"/><path fill="#7c746e" d="M222 56.8l-8.6-31.2L258.7 50h-26.9z"/><path fill="#fff" d="M128 86l-11 3 5 1z"/><path fill="#736d6a" d="M184.4 28.9l12.1-17.1-22.7 8.4 5.6 5.7z"/><path fill="#fffdea" d="M133 94l1 4 14-1z"/><path fill="#3a3c41" d="M134 146h28v20h-28z"/><path fill="#203f57" d="M-11.7 25l-9-36 56.4-14 9 36z"/></g></g></svg>