<svg xmlns="http://www.w3.org/2000/svg" viewBox="0 0 1800 1200"><defs/><filter id="a"><feGaussianBlur stdDeviation="12"/></filter><rect width="100%" height="100%" fill="#2f394e"/><g filter="url(#a)"><g fill-opacity=".5" transform="translate(3.5 3.5) scale(7.03125)"><circle r="1" fill="#b2bbba" transform="matrix(240.73022 -12.002 2.95748 59.31963 218.2 54.2)"/><circle r="1" fill="#b4b4a5" transform="matrix(100.30164 -.35578 .129 36.36498 242.3 77.3)"/><circle r="1" fill="#485f7a" transform="matrix(27.9593 56.07768 -217.2158 108.2998 17.4 43)"/><circle r="1" fill="#25292f" transform="matrix(-6.6375 -40.80506 62.00142 -10.08539 82.8 136.2)"/><ellipse cy="94" fill="#8c7c68" rx="156" ry="19"/><circle r="1" fill="#47545b" transform="rotate(-60.8 251 -125.7) scale(30.91197 82.13688)"/><circle r="1" fill="#142030" transform="rotate(67.3 -100.6 86.6) scale(28.28035 68.75175)"/><circle r="1" fill="#3d5475" transform="rotate(67.8 16.7 59.3) scale(22.473 130.65693)"/><path fill="#6f869b" d="M255-9l16.8 46.1L113 95 96.2 49z"/><path fill="#d9a67a" d="M138 96h35v17h-35z"/><circle r="1" fill="#611d0d" transform="matrix(43.73688 -1.36577 .11601 3.7151 103 110.7)"/><path fill="#48453c" d="M67 105l21-5 4-58z"/><path fill="#bbae98" d="M212 76h44v37h-44z"/><path fill="#3d342d" d="M192 101l16 11-39 3z"/><path fill="#ff6d1c" d="M139.7 113.9l11.2 1.7-7.2-9.6-9.2-1.4z"/><circle r="1" fill="#586e8b" transform="matrix(-126.93745 40.04127 -5.85275 -18.5542 176.4 15)"/><path fill="#929088" d="M111 69h83v35h-83z"/><path fill="#8d847b" d="M0 96h35v17H0z"/><path fill="#e4ca9e" d="M52 102l-6-10 10-6z"/><path fill="#ffffe7" d="M90 78h8v4h-8z"/><ellipse cx="255" cy="161" fill="#485460" rx="43" ry="51"/><ellipse cx="152" cy="147" fill="#2f3e4f" rx="66" ry="34"/><ellipse cx="112" cy="95" fill="#653b13" rx="19" ry="2"/><path fill="#320d06" d="M48 101l-17 5 9 7z"/><path fill="#45433c" d="M79 91l26 20-51-19z"/><path fill="#461811" d="M113 105h24v8h-24z"/><path fill="#15222e" d="M0 114h21v49H0z"/><circle r="1" fill="#75808b" transform="matrix(7.7783 -3.4057 7.48673 17.099 67.5 76.2)"/><circle r="1" fill="#8c9aa0" transform="rotate(-19.5 280.5 -661.3) scale(54.22127 25.42768)"/><circle cx="128" cy="100" r="3" fill="#fffbca"/><path fill="#4b5f69" d="M48 102h62v7H48z"/><path fill="#17232f" d="M126 156l60-4-36 16z"/><ellipse cx="190" cy="104" fill="#544d44" rx="3" ry="12"/><path fill="#9e8767" d="M91 54h6v24h-6z"/><circle r="1" fill="#425671" transform="matrix(-136.1774 56.9455 -4.39612 -10.51271 74.6 13)"/><path fill="#564d40" d="M79.9 58.8l12.6-5.5-16.7 39 12-2.4z"/><path fill="#ddd3b6" d="M88 91h4v7h-4z"/><ellipse cy="79" fill="#657383" rx="89" ry="6"/><ellipse cx="126" cy="169" fill="#4e545d" rx="38" ry="4"/><circle cx="207" cy="96" r="14" fill="#aea28e"/><path fill="#4b1f1b" d="M35 109h100v5H35z"/><path fill="#7f868b" d="M97 60h69v33H97z"/><path fill="#3d4b5a" d="M217.1 164.6l-34.9-8.7-50.3-10.5 132.5-23.6z"/><circle r="1" fill="#202f42" transform="matrix(-6.32378 -25.22077 45.44873 -11.39569 72.4 140.3)"/><circle r="1" fill="#4e637f" transform="rotate(-117 71.8 -44) scale(16.50412 109.24329)"/><path fill="#fff1c1" d="M54 96h2v7h-2z"/><circle r="1" fill="#6b5943" transform="matrix(3.33126 -1.93347 9.4386 16.26215 98.5 96.6)"/><path fill="#ff7217" d="M139 108h8v5h-8z"/><circle r="1" fill="#758797" transform="matrix(48.96273 -14.87022 4.97399 16.3777 210.3 37.2)"/><path fill="#9e9a8f" d="M145 88h39v19h-39z"/><path fill="#2e3c4d" d="M148 113h56v20h-56z"/><circle r="1" fill="#5c6872" transform="matrix(10.4852 14.11834 -32.29515 23.9845 0 80)"/><path fill="#6f8696" d="M87 101.6l-12.5-.8 8.9 6.3 1.3.4z"/><path fill="#5c656a" d="M192 166h56v3h-56z"/><path fill="#4b4943" d="M87 109.4l26.5-11.7-17.1 13.8-13-30.1z"/><path fill="#364357" d="M75 140h65v7H75z"/><path fill="#677689" d="M83 50L192 8l-80 69z"/><circle r="1" fill="#9da19a" transform="matrix(-1.90406 -12.99327 40.55212 -5.9426 226.4 79.5)"/><ellipse cx="115" cy="101" fill="#e0bc8b" rx="3" ry="4"/><circle r="1" fill="#728898" transform="matrix(6.6506 .90862 -.2601 1.90384 79 92.8)"/><path fill="#767e84" d="M68.3 89.8L84.5 79l-32.4-8.2-33.4 21.3z"/><ellipse cx="66" cy="94" fill="#6d4e30" rx="12" ry="3"/><path fill="#5e7a8c" d="M48.3 104l-2.6-.7-14.1-1 13.3-9z"/><path fill="#8d8e89" d="M96 84h73v10H96z"/><path fill="#171309" d="M82 59h11v2H82z"/><path fill="#3a4654" d="M246.5 136.7l-18-25-4.2 44.9-25-52.2z"/><path fill="#08111b" d="M33.5 149.8l-33-.6v-5l33 .6z"/><path fill="#8499a9" d="M110.3 109.3l-2.8-.9 2.2-7.7 2.8.9z"/><path fill="#4d5863" d="M197 159.7l1.5-7.9 36.4 6.5-1.4 7.9z"/><path fill="#263341" d="M155.4 169.2v-15.6l27-12.3 2.6 20.2z"/><path fill="#b5a08d" d="M213 101h21v13h-21z"/><path fill="#847158" d="M90 96h58v3H90z"/><path fill="#7d99b2" d="M66 97h2v12h-2z"/><path fill="#7b8185" d="M70 77v17h10z"/><path fill="#4b5663" d="M199 113h57v4h-57z"/><path fill="#4b2d28" d="M117 103h6v9h-6z"/><path fill="#a29b8e" d="M187 106l-21-1 26-30z"/><path fill="#1b293a" d="M75 181l-91-71 64 10z"/><circle r="1" fill="#515d6a" transform="matrix(.32195 -1.8835 32.8331 5.61226 238.7 145.8)"/><path fill="#665644" d="M94 72l-17 5 4-13z"/><path fill="#34302f" d="M80 95.3l-9.1 15.3-5 9.3 6-20.8z"/><circle r="1" fill="#2d425f" transform="rotate(68.9 4.3 10.5) scale(10.08705 69.25642)"/><circle cx="94" cy="79" r="2" fill="#fffff9"/><path fill="#d1be9a" d="M49.3 96.8l-1-.5 8.4-17 1 .4z"/><path fill="#6a727b" d="M43 92l59-49-118 53z"/><path fill="#fff1d0" d="M125.8 97.7l5.2 6-.8.6-5.2-6z"/><path fill="#787370" d="M38.6 114.8l-34.2-3.6-16.3-29.9 41.5 23z"/><circle cx="143" cy="110" r="4" fill="#ff7c33"/><path fill="#2c394b" d="M13 151h87v4H13z"/><path fill="#cfaa7c" d="M148 107l-5-12-4 8z"/><circle r="1" fill="#513f30" transform="matrix(-2.18483 -.8832 3.96525 -9.80917 92 104.8)"/><path fill="#474636" d="M32 92h8l-4 4z"/><path fill="#aba091" d="M193.1 108.3l50.6-12.5-45.7 1.5-2.2-14.6z"/><path fill="#6b5a46" d="M190.2 105l.6-12h3l-.6 12z"/><path fill="#303e4e" d="M239 116.3l26.1 19.3-23.8-7.1-54.5 4z"/><path fill="#393528" d="M73 91l14-2-6-2z"/><path fill="#b8a795" d="M232 97h23v15h-23z"/><path fill="#152233" d="M98 151h40v3H98z"/><path fill="#756f63" d="M187 104l6 7-21-6z"/><path fill="#554531" d="M99 103l-5-11 15 11z"/></g></g></svg>