<svg xmlns="http://www.w3.org/2000/svg" viewBox="0 0 1800 1200"><defs/><filter id="a"><feGaussianBlur stdDeviation="12"/></filter><rect width="100%" height="100%" fill="#2f4060"/><g filter="url(#a)"><g fill-opacity=".5" transform="translate(3.5 3.5) scale(7.03125)"><circle r="1" fill="#ebffff" transform="matrix(14.03203 81.3318 -251.28751 43.35419 108.1 56.4)"/><ellipse cx="111" cy="17" fill="#f7ffff" rx="255" ry="27"/><ellipse cx="167" cy="123" fill="#22191a" rx="33" ry="81"/><circle r="1" fill="#adc9c7" transform="matrix(41.07392 -2.22448 1.5666 28.9265 83.7 152)"/><circle r="1" fill="#70a6ba" transform="matrix(-28.67236 15.16602 -40.46406 -76.49999 240 122.2)"/><circle cx="140" cy="125" r="22" fill="#291f1f"/><path fill="#c6cac0" d="M93.4 81.2l64.4-5.3v21l-36.3 8.7z"/><circle r="1" fill="#392f1b" transform="matrix(.65583 20.86873 -15.67133 .4925 16.3 154.2)"/><ellipse cx="61" cy="62" fill="#468bc5" rx="86" ry="20"/><path fill="#d9edff" d="M223 31L-16 43 9-16z"/><circle r="1" fill="#618cb0" transform="matrix(64.1165 10.49414 -7.18673 43.9091 247 88)"/><path fill="#583b28" d="M237 185l-29-77-33-8z"/><ellipse cx="101" cy="97" fill="#c4984e" rx="25" ry="14"/><ellipse cx="83" cy="144" fill="#859ca4" rx="47" ry="21"/><circle r="1" fill="#83927f" transform="matrix(19.91132 -16.06641 24.19368 29.98356 241 156)"/><circle r="1" fill="#96bcd7" transform="matrix(-6.21473 -18.8909 62.84114 -20.6735 33 95)"/><ellipse cx="212" cy="4" fill="#a8c9ef" rx="91" ry="41"/><circle r="1" fill="#05101a" transform="matrix(-5.90471 1.4067 -11.90796 -49.9844 206.1 154.4)"/><circle r="1" fill="#705543" transform="matrix(-8.91166 -.47743 2.3265 -43.42633 128.7 143.5)"/><ellipse cx="195" cy="49" fill="#44729b" rx="255" ry="6"/><circle r="1" fill="#39231c" transform="matrix(14.56957 12.31224 -6.09041 7.20703 176.2 61.4)"/><circle cx="176" cy="122" r="14" fill="#8f7266"/><path fill="#83b3df" d="M85 70l59-1 11 32z"/><circle r="1" fill="#8bb4d8" transform="matrix(-16.94087 12.39884 -4.41252 -6.02895 195 90)"/><circle r="1" fill="#c2b293" transform="matrix(2.79872 -4.60646 30.82709 18.72946 44 146.4)"/><circle r="1" fill="#6c94ad" transform="matrix(28.94462 -25.97052 12.57994 14.02057 90.8 134)"/><path fill="#00152a" d="M177 152l-31 32-2-86z"/><path fill="#fcd8a4" d="M124.2 100.7L94 81.1l3.8-5.8L128 94.9z"/><path fill="#405b7a" d="M198.1 159.1l-17 23.5-11.8-14.6 11.1-20.1z"/><circle cx="248" cy="93" r="43" fill="#6695b6"/><path fill="#726d54" d="M95.3 77.4l-1.5 48.4 4.9-11.8 6.5-11.7z"/><path fill="#42383a" d="M158.7 44.6l27.6 6.9-31.9 19.9-11.4 9.9z"/><path fill="#af8e61" d="M213.7 50.4l47.1 1.1 10-19.3L244.9 46z"/><circle r="1" fill="#93b9e1" transform="matrix(-82.04633 -15.55353 2.74772 -14.4945 220.1 0)"/><ellipse cx="164" cy="100" fill="#715c59" rx="11" ry="28"/><path fill="#05192e" d="M200.4 153.1l-14.9-52.3 20.8 21.3-43.1 19.9z"/><path fill="#6b4e44" d="M209.5 155l-8.8-52.4 28.3 65-12 17.4z"/><ellipse cx="53" cy="115" fill="#8cb0c9" rx="35" ry="19"/><path fill="#504a3f" d="M43 148.6L53.9 185 1.6 144.4l12-7.4z"/><path fill="#d9ac73" d="M13 130l43 32-19-27z"/><circle r="1" fill="#e4f0fd" transform="matrix(.60329 -9.17666 102.96282 6.76893 7.3 19.4)"/><path fill="#6d8db0" d="M87.2 133.6l-59-3.9 38.1 34.9L20.2 185z"/><path fill="#b6af99" d="M89 152h30v12H89z"/><path fill="#afb68b" d="M228 154h11v16h-11z"/><path fill="#c6d6e8" d="M253 40l-96 4-93-60z"/><circle r="1" fill="#7ba2c6" transform="rotate(-20.2 346.3 -550.4) scale(28.6203 16.85719)"/><ellipse cx="37" cy="91" fill="#f9c478" rx="14" ry="2"/><circle r="1" fill="#4d7aa6" transform="rotate(-177.7 128.2 30.3) scale(48.41919 6.70812)"/><path fill="#598bb9" d="M152 42L49 73l-65-29z"/><path fill="#63564f" d="M143 130l-14-17-16 72z"/><path fill="#72a1bf" d="M-5.5 128.9l24.9-20.2 10 12.4-24.8 20.2z"/><path fill="#101317" d="M209.3 159.7l6.2 14.2-16.4-3-.2-20.1z"/><path fill="#6a5b5a" d="M178.1 59l14.8 25.4-48.3-6.9 38.2 52z"/><path fill="#90b5d5" d="M150.3 99.4l-12.6 3.4-6-22.2 12.6-3.4z"/><path fill="#94b59f" d="M129 185l12-5-3-21z"/><path fill="#172332" d="M134.1 142.4l51.3-9.2-21.1 44-34.3-22.7z"/><circle r="1" fill="#b0babb" transform="matrix(-21.02284 -2.02815 .59106 -6.1267 57 128)"/><path fill="#897a58" d="M87 99h43v6H87z"/><circle cx="174" cy="120" r="15" fill="#706461"/><path fill="#f0d1a2" d="M91.6 94.4L89 99.8l-12.6-6.2 2.6-5.4z"/><path fill="#141c1e" d="M10 168.7l30-11 2 5.6-30 11z"/><ellipse cx="118" cy="97" fill="#f0cd8b" rx="18" ry="2"/><circle cx="125" cy="71" r="19" fill="#7aa5c4"/><path fill="#325a7b" d="M271 154.7l-35.4-9.1 35.4-3.7-17.9-5.7z"/><path fill="#795d4f" d="M210 110.6l10.7 29.1-4.7 1.7-10.7-29.1z"/><path fill="#fcc783" d="M249 46h7v5h-7z"/><circle r="1" fill="#93b7d3" transform="matrix(10.76237 -23.7255 19.3727 8.78785 0 103.5)"/><path fill="#8b847f" d="M138 126v18l-3-11z"/><circle r="1" fill="#bcd9f7" transform="matrix(-121.83355 -14.21167 1.02749 -8.80844 51 0)"/><path fill="#6185a8" d="M106.6 145.4l-65.7-5-.8-3.1 55.8-4.6z"/><path fill="#c0cee8" d="M0 31h90v13H0z"/><circle r="1" fill="#4a4443" transform="matrix(5.28944 6.03486 -12.51503 10.96919 158.5 58)"/><path fill="#7892b3" d="M155.2 46.9l25.8-2.8-10.6-5.5-29.8 8.1z"/><circle r="1" fill="#638fb7" transform="matrix(-25.929 4.94622 -3.69224 -19.3554 22 62.5)"/><path fill="#818796" d="M143 119l-8.4-24.7-30 41.6 40.8-43.7z"/><path fill="#c39f72" d="M91 97.6l-8.9-10.1 9.5-5.3 10.6-.9z"/><path fill="#286da8" d="M186 45h41v3h-41z"/><path fill="#162436" d="M141.3 154.6l-2-33.2 57.6 21.8-57.1 32.9z"/><path fill="#87a7b4" d="M52.3 162.2l-3.1-17.3 29.1-8.3 11.6 20.9z"/><path fill="#0f1c33" d="M152 101l-1 22-9-23z"/><ellipse cx="238" cy="128" fill="#5f8c99" rx="22" ry="16"/><path fill="#827c7f" d="M155 67h4v39h-4z"/><path fill="#353f4b" d="M-2.2 155.8l16-20.5 6.4 5-16 20.4z"/><path fill="#608ec1" d="M-8.6 168.1l.8-2.9L8.6 170l-.8 2.9z"/><path fill="#becee0" d="M220 16l29 28-63-3z"/><path fill="#4b608a" d="M-16 184l67.1-22.1-.9-3.8L67.6 176z"/><path fill="#4f84ae" d="M151.8 56.3l.6-11.4-42.5.8-60.2 11.7z"/><path fill="#89b1d2" d="M191 71h21v10h-21z"/><path fill="#85a8c6" d="M48 68h30v54H48z"/><path fill="#534848" d="M189.7 62.2l-33.9 8.2 37.3 10.7-1.7-2.3z"/><path fill="#75a3ba" d="M247 96l-68 1 63 21z"/><ellipse cx="255" cy="95" fill="#5b87b0" rx="45" ry="7"/><path fill="#d1e3f3" d="M-16-6.9l196.9 33.2-35.7 15.2-150-35.8z"/><path fill="#566e8c" d="M72 159h14v11H72z"/><path fill="#6c5e59" d="M195.6 105.3l25.3 53.7-3.2-29.3-10.6-22.8z"/><path fill="#8a6a46" d="M49 160l-23-17 19 7z"/><path fill="#8fafca" d="M116.9 68.7l18.2 32.7 18.5-3.1 1.5-11.8z"/><path fill="#192d4a" d="M177.6 102.4l20 9.3-.3-.9-6.1-8.6z"/><circle cx="185" cy="166" r="3" fill="#6d82a4"/><path fill="#5385b0" d="M194.3 58l42.4-2.5-59.5-11.4 14.5 21.5z"/></g></g></svg>