<svg xmlns="http://www.w3.org/2000/svg" viewBox="0 0 1800 1012"><defs/><filter id="a"><feGaussianBlur stdDeviation="12"/></filter><rect width="100%" height="100%" fill="#554036"/><g filter="url(#a)"><g fill-opacity=".5" transform="translate(3.5 3.5) scale(7.03125)"><circle r="1" fill="#ffee82" transform="matrix(-6.58658 64.41502 -154.60264 -15.80846 138 29.8)"/><circle r="1" fill="#ffd18b" transform="rotate(95 70.8 83.9) scale(41.74575 78.6133)"/><ellipse cx="115" cy="122" fill="#00050a" rx="255" ry="28"/><ellipse cx="177" cy="37" fill="#fff" rx="13" ry="12"/><ellipse cx="109" cy="78" fill="#ac6b3a" rx="255" ry="18"/><circle r="1" fill="#c68148" transform="rotate(-80.5 37 -9) scale(38.95815 89.34455)"/><circle r="1" fill="#885f3a" transform="matrix(4.15525 -10.77606 97.74486 37.69046 18.8 56.5)"/><circle r="1" fill="#d79d58" transform="rotate(-130.5 125.1 -40.8) scale(19.97444 79.85576)"/><circle r="1" fill="#d8a762" transform="rotate(-59.5 79.7 -78.3) scale(28.22625 79.98015)"/><circle r="1" fill="#fcd287" transform="rotate(162.6 83 22) scale(31.87797 14.43538)"/><circle cx="177" cy="38" r="9" fill="#fff"/><path fill="#ad7a45" d="M210 55h46v41h-46z"/><ellipse cx="22" cy="128" fill="#161b1a" rx="90" ry="34"/><path fill="#f2c97f" d="M188 11h21v40h-21z"/><circle r="1" fill="#a47343" transform="matrix(-17.72541 -37.91172 14.04777 -6.56796 7.6 22.5)"/><path fill="#604e35" d="M0 75h35v21H0z"/><path fill="#e9bf77" d="M154.3-16l17.3 69.2 40.7-1.1-94.6-12.8z"/><circle r="1" fill="#c4914f" transform="rotate(-35.3 192 -354.4) scale(39.97927 14.4294)"/><path fill="#25221d" d="M70 89.7l-74.3 26 103-26.1-2.6 68.4z"/><circle r="1" fill="#fff" transform="matrix(10.7921 1.53594 -1.1712 8.2293 177.6 37.5)"/><circle r="1" fill="#21221f" transform="rotate(93.3 67.2 176.5) scale(23.64315 60.9141)"/><path fill="#8a643e" d="M138 94L24 86-1 46z"/><circle r="1" fill="#b5854b" transform="matrix(70.40087 18.5402 -2.801 10.63597 145.3 75)"/><path fill="#433c35" d="M156 120l-35 13 72-6z"/><circle r="1" fill="#d0a163" transform="rotate(165.2 113.5 14.7) scale(13.92604 42.22862)"/><circle r="1" fill="#c99856" transform="rotate(-167.9 58.7 20.2) scale(54.96096 7.42612)"/><circle r="1" fill="#a57646" transform="matrix(-52.14896 -23.06489 3.83097 -8.6617 79.9 71.8)"/><path fill="#9d7244" d="M271 93V29l-60 65z"/><path fill="#f5d083" d="M158 21h11v31h-11z"/><circle r="1" fill="#d1a763" transform="matrix(29.5981 -11.95703 3.3084 8.18954 205 53.8)"/><circle r="1" fill="#cfa465" transform="matrix(11.4267 -10.80597 39.29091 41.54792 98.5 12.4)"/><path fill="#443d39" d="M83 132h33v4H83z"/><ellipse cx="76" cy="119" fill="#332f2d" rx="41" ry="3"/><ellipse cx="218" cy="137" fill="#403a38" rx="34" ry="2"/><path fill="#f9db91" d="M197.1 41.9l-15.4-27.2L164.3 44l5.8-24z"/><circle r="1" fill="#bc8b51" transform="matrix(9.7303 37.81938 -21.10223 5.42926 40.6 20.9)"/><path fill="#e0b775" d="M210.5 48.4l-13.1-27.1L153.5-16l76 30.3z"/><path fill="#302c2b" d="M61.8 126.4l-77.8-1 112.1 11.9 3.8-2.2z"/><ellipse cx="30" cy="108" fill="#151514" rx="64" ry="7"/><path fill="#382d22" d="M132 96h96v8h-96z"/><path fill="#494039" d="M139 140h46v2h-46z"/><path fill="#413732" d="M172 113h37v3h-37z"/><circle r="1" fill="#705437" transform="matrix(3.2236 -9.39759 36.9726 12.68253 22.4 80.6)"/><path fill="#9b6f45" d="M149 94L81 70l18 24z"/><path fill="#b6854a" d="M250.4-16l2.8 46.1-32.4 55.3L271 45.9z"/><circle r="1" fill="#dcaf6f" transform="matrix(9.36025 -22.04308 17.84279 7.57666 130.4 14.4)"/><path fill="#131315" d="M267.1 133.1l-43.3 7.3 14.2 5.5 9.1-25.5z"/><path fill="#ac804b" d="M179 71h44v24h-44z"/><path fill="#4a4141" d="M239 141h17v2h-17z"/><path fill="#0c1111" d="M124.7 128.8l8.9-3.5-24.1.1-1.3 7.4z"/><ellipse cx="78" cy="84" fill="#8f6741" rx="8" ry="12"/><circle r="1" fill="#fff" transform="matrix(7.3097 3.50222 -4.18887 8.74285 179.8 38.7)"/><circle r="1" fill="#c7985c" transform="rotate(51.4 19.2 81.6) scale(19.29628 31.94448)"/><path fill="#0d0f10" d="M91.3 140.2l-31.6-8.9 4.7 19.3-22.5-10.2z"/><path fill="#1d1e1a" d="M98 99l81 11-50 7z"/><path fill="#47423f" d="M14.1 140.2l.2-1 21.6 4.6-.2 1z"/><path fill="#f5cb7a" d="M177.7 55.7l-2.3-3.3 23-16 2.2 3.2z"/><circle r="1" fill="#604d41" transform="matrix(.16432 .9864 -11.15875 1.85888 157.1 128.4)"/><path fill="#b3844c" d="M26.8 52.3l-14.6-7.2.4-50.2 58.9 73.4z"/><path fill="#221d1a" d="M223 96h33v18h-33z"/><circle r="1" fill="#e6bb73" transform="matrix(.90763 -3.61601 28.85661 7.24309 168.3 50.3)"/><path fill="#3e3735" d="M226.9 114.1l.6-1.9L261 122l-.6 1.9z"/><path fill="#44403b" d="M107.1 141.9l3.5 16.1-3-3.5 23.4-14.6z"/><path fill="#15130f" d="M179 115h19v6h-19z"/><path fill="#0b0d0e" d="M221 135h6v8h-6z"/><path fill="#926a42" d="M271 95l-2-32-44 27z"/><path fill="#49413b" d="M151 116h31v2h-31z"/><path fill="#1b1c1c" d="M157.7 137.6l10-10.5 7.5 19.5-44.4-18.3z"/><circle r="1" fill="#cea263" transform="matrix(21.96711 7.26493 -11.67798 35.31096 99.3 0)"/><circle r="1" fill="#141314" transform="matrix(1.187 -2.92344 8.13565 3.3033 237 125.3)"/><ellipse cx="187" cy="127" fill="#7d604b" rx="7" ry="1"/><path fill="#e4bb78" d="M141.5 43.6l14-30.6 114.1-29H143z"/><ellipse cx="6" cy="135" fill="#0b0e0e" rx="16" ry="3"/><path fill="#030504" d="M87 124l-18 2 8 2z"/><path fill="#393632" d="M185 131l13 8-22-3z"/><path fill="#855f3b" d="M57.2 95.9l10.9-17.3-57.6-23.1-15.1 3.6z"/><path fill="#c09054" d="M27 35l84 30L42 6z"/><path fill="#f1ce87" d="M160.8 31.2l42.8-11.6-12.3 25.6-11.2-31.5z"/><path fill="#1a1a18" d="M33 126l-3-31h-46z"/><ellipse cx="89" cy="92" fill="#413019" rx="4" ry="2"/><ellipse cx="195" cy="96" fill="#432" rx="84" ry="1"/><ellipse cx="171" cy="60" fill="#d5a965" rx="21" ry="5"/><path fill="#262624" d="M87 107l83 13-48 6z"/><path fill="#453c38" d="M106 125l-6 3-6-2z"/><ellipse cx="231" cy="13" fill="#cda263" rx="8" ry="28"/><circle r="1" fill="#151413" transform="rotate(-5.9 1347.7 -2207.5) scale(45.32801 1)"/><path fill="#634a34" d="M27.3 95.6L-16 94.4 1.8 73.2-16 66z"/><circle r="1" fill="#3b3733" transform="rotate(-160.1 118 51.8) scale(11.43151 3.19645)"/><path fill="#211f1d" d="M73 93l4 15-33 25z"/><path fill="#9e7448" d="M173.4 96.1l59.3-13.4 9.6 12.8-50.5-1.4z"/><ellipse cx="164" cy="95" fill="#735939" rx="49" ry="1"/><path fill="#050b0c" d="M181 142h26v1h-26z"/><path fill="#463e38" d="M137 141h21v2h-21z"/><path fill="#c79a59" d="M192 66l70-59-36 53z"/><path fill="#4e433e" d="M68 129h7v3h-7z"/><ellipse cx="94" cy="116" fill="#353131" rx="32" ry="1"/><path fill="#191815" d="M174 126l13-5 5 4z"/><path fill="#c89a57" d="M149.8 69.5l44 3.7-70.5-23-17.4 1.7z"/><path fill="#a67847" d="M16 40.5l102.5 44L.5 49.6-2.3-16z"/><path fill="#b5864d" d="M26.6 41.7l124.7 31.7L75 68 19 45.3z"/></g></g></svg>