<svg xmlns="http://www.w3.org/2000/svg" viewBox="0 0 1800 1200"><defs/><filter id="a"><feGaussianBlur stdDeviation="12"/></filter><rect width="100%" height="100%" fill="#645047"/><g filter="url(#a)"><g fill-opacity=".5" transform="translate(3.5 3.5) scale(7.03125)"><circle r="1" fill="#ebffff" transform="rotate(80.7 28.7 113) scale(109.95953 254.95021)"/><circle r="1" fill="#a8ddff" transform="matrix(207.21443 68.48447 -20.67463 62.55553 131.3 23.2)"/><path fill="#00339e" d="M152 114l119 31-16-32z"/><ellipse cx="62" cy="80" fill="#321006" rx="9" ry="26"/><circle r="1" fill="#c9def6" transform="rotate(-28.1 174 -9.6) scale(26.0224 64.03767)"/><path fill="#392510" d="M236 153.8l-33.7-7.4-8.2-8-8 40.4z"/><path fill="#ffffd9" d="M252 184.9l-16-30 22-11.8 16 30z"/><ellipse cx="82" cy="128" fill="#f2e0c0" rx="62" ry="18"/><path fill="#5b5563" d="M124 72.6l-3.2 30.5 10.6 3-61.8 7.4z"/><circle cx="185" cy="19" r="94" fill="#aec9f7"/><path fill="#765b42" d="M137.3 131.3l22 4.4-17.8 40.4-8.9-29.2z"/><path fill="#414669" d="M77 59L55.2 74.2l-9.7-22 7.5-2.3z"/><path fill="#cce2ff" d="M111 76l-14 26-26-11z"/><circle r="1" fill="#9fc2f0" transform="matrix(-27.39893 -15.4385 21.65982 -38.44 14.9 60.7)"/><circle r="1" fill="#d4c4a7" transform="matrix(-23.0827 61.6638 -18.48738 -6.9204 5.8 155.6)"/><path fill="#d7c7ac" d="M169 134l-44 51 108-58z"/><path fill="#473836" d="M111 77h11v22h-11z"/><circle r="1" fill="#a4c4f2" transform="matrix(-56.74733 5.72193 -4.51673 -44.79466 46 4)"/><path fill="#1c5fa1" d="M155 116l103-4-53 19z"/><path fill="#6c402e" d="M71 75h13v13H71z"/><ellipse cx="227" cy="104" fill="#89ade2" rx="100" ry="10"/><circle cx="46" cy="161" r="25" fill="#a5937a"/><circle r="1" fill="#655654" transform="rotate(6.9 -836.8 885.8) scale(27.44823 3.62941)"/><path fill="#b4855f" d="M51 68h7v34h-7z"/><path fill="#e5dac4" d="M38 102h38v36H38z"/><path fill="#31261b" d="M202 163l-8-19 30 15z"/><path fill="#d7c8b7" d="M187.1 96.5l-73.4 6.1 44.9 67.4-53.4-68.3z"/><path fill="#c2aa8c" d="M196.4 181l-29.5-9.7 4.7-14.2 29.5 9.6z"/><path fill="#e7d8c0" d="M127 91l14 39-16 22z"/><path fill="#5c3d23" d="M111 159h6v11h-6z"/><circle r="1" fill="#6e4a35" transform="rotate(-146.7 44 20) scale(1 27.5005)"/><path fill="#0d1017" d="M59 85h10v14H59z"/><path fill="#2a1d00" d="M227 135l4-5 9 10z"/><path fill="#d7c5bd" d="M54 68h24v6H54z"/><path fill="#372f2f" d="M134 150h8v12h-8z"/><path fill="#eee1cd" d="M7.3 155.8l-10 8L7 185l18.8-38.3z"/><path fill="#524340" d="M68.6 73.2L44.8 60l30.8-2.3-21.9 27z"/><path fill="#a2998a" d="M104 118H65l33 14z"/><path fill="#f1ddbe" d="M251 140h5v30h-5z"/><circle r="1" fill="#c7ad8d" transform="matrix(10.90006 .06311 -.18282 31.57525 125.4 163.8)"/><path fill="#afa99a" d="M232 153l-71-23 69-3z"/><ellipse cx="247" cy="122" fill="#285f96" rx="77" ry="6"/><path fill="#f6e7e0" d="M72 81h6v14h-6z"/><path fill="#47372b" d="M140 133h9v9h-9z"/><path fill="#3669bb" d="M50.6 49.5l-4.8 12.6 6.9.2 15-9.7z"/><circle r="1" fill="#aac4eb" transform="matrix(-4.57084 -35.37423 8.01755 -1.03598 94.1 68.4)"/><circle r="1" fill="#eee5d1" transform="matrix(-6.53714 -7.18422 5.06126 -4.6054 150.4 169.1)"/><path fill="#aa9a83" d="M154 120l35 17-44 3z"/><path fill="#d6ccba" d="M72 143l67-37-34 51z"/><path fill="#806351" d="M62.6 103.6l24-1-3.4 11.9L54.6 92z"/><path fill="#301501" d="M164 166.1l4.9-1.1 1.1 4.9-4.9 1.1z"/><path fill="#64563f" d="M219.1 158.5l24 2.5 14.8 24-55.5-23.2z"/><path fill="#b3ad9c" d="M-16 111.7v40l53-32.2-14.3-21.2z"/><path fill="#b0c7e1" d="M179.4 102.6L98.1 16.8l-32 71.1 7.3-31.8z"/><path fill="#000f1f" d="M92 105h13v4H92z"/><path fill="#ded1ba" d="M162.5 146v-26h7v26z"/><path fill="#ffdab7" d="M105.6 98.8l3.3-2.3 7.5 10.7-3.3 2.3z"/><path fill="#0b234d" d="M119.7 105l8-1 .6 5-8 1z"/><path fill="#dfd7c5" d="M30.9 117l47.4 40.3 4-26.6-50.2-41.9z"/><path fill="#e0d0b9" d="M140 144h26v5h-26z"/><path fill="#b1a08a" d="M93.1 156.5l25.4-30.3-75 58.8 90.9-32.2z"/><path fill="#7b736d" d="M189.3 118.3l-26.4 11.9-14.1 32.9 3.4-22.4z"/><path fill="#448dc3" d="M237 129h19v12h-19z"/><path fill="#b2c9e2" d="M117.4 82.2l90.3-59.5L271 56.5l-118.9 57.9z"/><circle cx="40" cy="95" r="3" fill="#685f4a"/><circle r="1" fill="#514a42" transform="rotate(-56.5 195.2 -84.5) scale(2.30357 4.05161)"/><path fill="#786857" d="M26 158l20-8-4 10z"/><path fill="#bc9984" d="M91.8 90.2L87.7 94l-32.9 15.2 36.5-8.7z"/><path fill="#72564a" d="M80 90l6-13-14-3z"/><path fill="#b3acb0" d="M130.4 111.9l-.9.5-33.9-54.3.9-.5z"/><path fill="#422b2b" d="M124 91l-7-15-5 3z"/><path fill="#ac9c85" d="M244.9 143.9l-47.2 2.5 37.9 8.9 16.1-5.1z"/><path fill="#392214" d="M144.4 158.6l-.6-.7 9.8-8.5.6.7z"/><path fill="#7a6f63" d="M190.3 150l-3 14.8 19.4-27.4-7.1-.2z"/><path fill="#89afe0" d="M146 103h41v11h-41z"/><circle r="1" fill="#a8c2df" transform="rotate(-125.8 30.2 20.4) scale(29.94633 12.51439)"/><path fill="#c4b0a7" d="M97.3 24.6L62.8 58.1 60.6 62l7.9-4.5z"/><path fill="#e9e2cf" d="M127.1 160.3l8.8-40.2-9.4 23.1.5 9.7z"/><path fill="#dcd1bd" d="M176.3 185l7.4-51.7-11.5 44.3 18.7-12.2z"/><path fill="#cfc4b0" d="M145.9 121.9l-66.1-3.3 6.9-11.3 16.7 2.6z"/><path fill="#345c91" d="M167.7 119.7l-.3 1-27.1-10.4.3-1z"/><circle cx="67" cy="62" r="4" fill="#0e191e"/><path fill="#fffffe" d="M83 92l-12-6 7 10z"/><path fill="#b3ac9e" d="M34.4 132l42.5 14.6-3.3 9.5-42.5-14.7z"/><path fill="#e6e6dc" d="M18 142l25-21-23 8z"/><path fill="#c8c1b3" d="M207 152l17-14-23 2z"/><path fill="#3b6ca5" d="M201.7 134.6l-4.7-5.2 13.3-12 4.7 5.2z"/><circle cx="121" cy="138" r="2" fill="#432e1c"/><path fill="#473d32" d="M204 190l-2-41 18-1 2 41z"/><path fill="#725243" d="M87.7 36.3l.8.6-20.2 24.8-.8-.6z"/><path fill="#eae2d1" d="M159 141h34v4h-34z"/><path fill="#ece3ce" d="M108.1 117.7l12.5-3.6 5.3 18.2-12.5 3.6z"/><path fill="#1e243f" d="M120 101h4v10h-4z"/><circle cx="159" cy="159" r="3" fill="#745d4b"/><path fill="#906246" d="M59 102l-6-17 6-5z"/><circle r="1" fill="#aebfd7" transform="rotate(10.2 -424.4 851.5) scale(58.90064 1)"/><path fill="#363033" d="M143 162l-7.7-15.1 1.7-1 7.7 15.2z"/><path fill="#8c7c6b" d="M156 151.6l-19.3-24.8 15.7 2.2-4.7 24.3z"/><path fill="#e3d5bd" d="M150 125l8 4 1 9z"/><circle r="1" fill="#9a907e" transform="matrix(3.96908 .63136 -1.94752 12.24321 83.2 153.8)"/></g></g></svg>