<svg xmlns="http://www.w3.org/2000/svg" viewBox="0 0 3990 2660"><defs/><filter id="a"><feGaussianBlur stdDeviation="12"/></filter><rect width="100%" height="100%" fill="#50502a"/><g filter="url(#a)"><g fill-opacity=".5" transform="translate(7.8 7.8) scale(15.58594)"><circle r="1" fill="#e6efff" transform="matrix(-4.4253 66.62606 -152.1641 -10.10673 139.3 30.5)"/><circle r="1" fill="#807691" transform="matrix(16.80625 129.40099 -92.714 12.04145 113.5 169)"/><circle r="1" fill="#e0e7f3" transform="matrix(-7.94617 27.53016 -80.63477 -23.27403 160 22.3)"/><ellipse cx="101" cy="58" fill="#280f05" rx="20" ry="28"/><circle r="1" fill="#4b3b20" transform="rotate(-171.8 25.4 47.9) scale(49.10836 39.89945)"/><circle r="1" fill="#c6d0ea" transform="rotate(-43.9 289 -168.5) scale(6.34552 59.12179)"/><path fill="#3c4b40" d="M166 79h90v46h-90z"/><circle r="1" fill="#9a9fab" transform="rotate(-69.1 148 -31.8) scale(73.65337 22.68859)"/><circle r="1" fill="#fff" transform="matrix(-.62995 -3.08081 29.60387 -6.05323 0 151)"/><circle r="1" fill="#a5b0c5" transform="matrix(-24.8471 33.99245 -19.76342 -14.44625 15.4 28.7)"/><ellipse cx="56" cy="149" fill="#7d89b4" rx="13" ry="30"/><circle r="1" fill="#b0bcce" transform="matrix(25.5561 .08056 -.23537 74.67118 255 14.8)"/><path fill="#f6f7ef" d="M132 77l28 7-45 21z"/><circle r="1" fill="#32370c" transform="rotate(-42.9 260.1 -196) scale(14.89477 42.52213)"/><path fill="#325ea1" d="M197 13l9.3-28.6L233-6.9l-9.3 28.5z"/><path fill="#714d34" d="M115.5 97L73 72.3 86.5 49 129 73.6z"/><circle r="1" fill="#202f12" transform="matrix(-12.3702 -8.21874 38.45926 -57.88584 5.5 116.3)"/><path fill="#b7a885" d="M48.4 88.4l30.8-44.1-41.8 38.2-6.3 61.3z"/><path fill="#e2d4bf" d="M99.6 110.8L86.5 84l15.6.8-2.3 15.4z"/><circle r="1" fill="#72717d" transform="matrix(19.80741 19.19297 -41.44127 42.76797 128.6 143)"/><circle r="1" fill="#cbccbf" transform="matrix(-16.7287 -10.9286 5.63056 -8.61886 68.2 56)"/><path fill="#abb7ba" d="M123 69l145-4-146-35z"/><path fill="#0e1300" d="M163.3 155.3l-11.3-9.1 52.5 38.8-49.1-49.6z"/><path fill="#6d7b86" d="M254 96l-59 1 76-48z"/><path d="M89 116h4v33h-4z"/><path fill="#162020" d="M46 123.4l-.4 26.3H40l-4.5-65.9z"/><path fill="#dadddc" d="M176.3 112.6l-7.8-14-7.3-11.8-25.3-6.4z"/><path fill="#e3bca7" d="M42 112.8l-18.6 18-3.5-3.6 18.7-18z"/><circle r="1" fill="#4f625e" transform="matrix(.51797 -4.69171 25.67342 2.83437 159.8 78)"/><path fill="#243b50" d="M79.4 47.6l1-10.7 28.9 3.3-32.6 20.2z"/><path fill="#c2c7d5" d="M189 130l41 55-35-24z"/><path fill="#c9ced3" d="M45-16h207L89 31z"/><path fill="#848695" d="M87 106l64-18-51 40z"/><circle r="1" fill="#758499" transform="rotate(52.6 -7.1 66.3) scale(11.06986 30.85907)"/><ellipse cx="71" cy="103" fill="#5b2f26" rx="17" ry="26"/><path fill="#19220c" d="M-16 131.5l28.6 4.9L32.8 96l13.7 11.2z"/><path fill="#abb3b9" d="M28.5 50.9L-9.3 33.8-3 64l112.1-17.3z"/><path fill="#85899c" d="M187.4 162.5l-33-45.3 16.2-11.7 33 45.3z"/><path fill="#fffff2" d="M183 172.3l-12.8-2.7.9-4 12.7 2.8z"/><path fill="#f6f7f0" d="M161 86l-32-11-10 10z"/><path fill="#6f758f" d="M109 180l-65-76 18 81z"/><path fill="#3a230f" d="M155 171l7-29 14 21z"/><path fill="#8585a3" d="M27.6 141l9.4 3.3-12.6 34.8-9.4-3.4z"/><path fill="#31361d" d="M191 132l-31-50 81 42z"/><circle r="1" fill="#c8ced0" transform="matrix(13.87012 -4.1427 9.13478 30.58407 246.2 5.9)"/><ellipse cx="204" cy="65" fill="#92a0ac" rx="53" ry="15"/><path fill="#c8cdd0" d="M16 28l22 4-6-45z"/><path fill="#525924" d="M33.7 95.3L-16 91l48-33.7 22.6 2.8z"/><path fill="#6d6468" d="M117.8 83.6l2.6 47.5-25.3-15.7 21.5-78.2z"/><path fill="#7b848a" d="M13 40l-23-8L16-6z"/><path fill="#060710" d="M38 124h4v34h-4z"/><path fill="#cacecc" d="M205.5 27.8l-61.8 33.9-11.9 4.1L154.2-16z"/><ellipse cx="9" cy="149" fill="#f0dace" rx="14" ry="3"/><circle cx="126" cy="100" r="10" fill="#babebf"/><path fill="#76747c" d="M130 102l35 83-61-33z"/><path fill="#2d364d" d="M98 141L82 99l4 67z"/><path fill="#bdbcaf" d="M43 56.3l27.3-13.8 23.5 53.3-8.3-31z"/><circle cx="99" cy="41" r="12" fill="#294465"/><path fill="#4d2d28" d="M101.1 50.1l13 21.5-17.2 10.3-13-21.5z"/><path fill="#788386" d="M240 35l21 13-27-2z"/><circle r="1" fill="#686523" transform="matrix(5.0406 -2.91664 13.19503 22.80395 213.2 151.4)"/><path fill="#d3af82" d="M55 69L36 85l10 4z"/><circle r="1" fill="#5a6131" transform="matrix(-.28439 -5.34344 36.79583 -1.95833 211.3 106.5)"/><path fill="#625a55" d="M141.4 121.2l-4-27 15-1.3 10.7 58.2z"/><path fill="#9b9b9a" d="M163.5 131.7l-10.3-37.2 2.8-9.2 22.7 59z"/><path fill="#574a1b" d="M10.9 144.3l6.9-26.3 4.6 7.8L38 141.1z"/><path fill="#6b6f83" d="M89 185l-6-65-61 65z"/><path fill="#5e6966" d="M270.5 87.8l-78.3 9.9L114 69.2l104.5 13.3z"/><path fill="#7a5948" d="M105 47h15v45h-15z"/><circle r="1" fill="#795945" transform="matrix(-16.0974 12.7139 -4.95372 -6.27204 62.4 80.3)"/><path fill="#918d97" d="M29.5 113.4l14.9-3.1-13.5 23.9v-8.4z"/><path fill="#030208" d="M44.5 139.2l-16 59.9-1-.3 16-59.9z"/><path fill="#324588" d="M171 115l13 10 1 13z"/><circle r="1" fill="#7a7472" transform="rotate(-46.5 271.8 -137.4) scale(7.12547 31.11543)"/><path fill="#d0d0cd" d="M230.6 181.8l-.7.7-60.5-58.3.7-.7z"/><path fill="#b4977a" d="M96.1 101L84.9 76.9l7.1 41.4-1-33.2z"/><path fill="#181d1c" d="M190 127l-9-13 51 1z"/><path fill="#939d9f" d="M114 35l41 13-35 1z"/><path fill="#1e2019" d="M-1.2 91.6L25 103.8 5.2 146.4-21 134.2z"/><path fill="#a2abac" d="M183.6 48.4L271 65.6l-140 8.9 53.5-43.6z"/><ellipse cx="220" cy="76" fill="#7d8e9c" rx="38" ry="5"/><path fill="#3d1b1f" d="M16.2 157l3.3 20.6-21.7 3.5-3.3-20.7z"/><path fill="#333641" d="M90 33l-1 23-10-12z"/><path fill="#757e9c" d="M55.2 114.7l-6.6-7.2-4 77.5-7-16.4z"/><path fill="#201b18" d="M81.1 105.7l14.5 36-6.5-29.9-17.7 9.6z"/><path fill="#6781a1" d="M193.2 23.2l-6-5.8 47-5.9L203-16z"/><path fill="#10181e" d="M86 42h30v3H86z"/><ellipse cx="104" cy="134" fill="#787987" rx="11" ry="42"/><circle r="1" fill="#8a98a8" transform="rotate(-32.9 56.4 -91.5) scale(15.80564 36.1093)"/><path fill="#2e3d69" d="M121.6 115.4l2.7 6.7-11.8-4.5 5.5-4.6z"/><path fill="#d1d4d4" d="M193 167l15-5-2-6z"/><path fill="#d8dbd9" d="M175 17l52 29-33-1z"/><path fill="#2c2c1d" d="M163.3 172.2l13.2-15.8 19.2 14.1-27.4-6.6z"/><path fill="#5e6279" d="M155.4 91.6l6.1 21.1 24.5 20.6-17-27.3z"/><path fill="#8f764a" d="M37.6 99.2l-6.2-18.5L50 95.1l-1.9 16z"/><path fill="#c1c5c0" d="M261.2 54.6l-47.5 6.7-.9-6 47.5-6.6z"/><path fill="#2c2521" d="M84 54l-8 2 5-6z"/><path fill="#444823" d="M51 62l-33 49 2-50z"/><path fill="#240e08" d="M53 99h6v12h-6z"/><path fill="#61799e" d="M86 45h16v5H86z"/></g></g></svg>