<svg xmlns="http://www.w3.org/2000/svg" viewBox="0 0 4752 3168"><defs/><filter id="a"><feGaussianBlur stdDeviation="12"/></filter><rect width="100%" height="100%" fill="#594c34"/><g filter="url(#a)"><g fill-opacity=".5" transform="translate(9.3 9.3) scale(18.5625)"><circle r="1" fill="#d3ffff" transform="rotate(6.5 -8.6 1082.4) scale(255 24.63077)"/><circle r="1" fill="#00061f" transform="matrix(40.92994 -3.26698 4.51617 56.58036 180.6 142.1)"/><ellipse cx="65" fill="#9fbcfe" rx="255" ry="26"/><ellipse cx="162" cy="44" fill="#4f5854" rx="46" ry="33"/><circle r="1" fill="#696b68" transform="matrix(-8.4207 -80.74741 48.37732 -5.045 93 119.2)"/><ellipse cx="241" cy="11" fill="#cfdeff" rx="44" ry="33"/><ellipse cx="28" cy="143" fill="#142534" rx="18" ry="112"/><ellipse cx="248" cy="119" fill="#656359" rx="27" ry="66"/><ellipse cx="150" cy="61" fill="#6f6961" rx="117" ry="11"/><path fill="#070d0f" d="M177 94h33v76h-33z"/><circle r="1" fill="#81a5db" transform="matrix(.14086 22.13751 -30.02359 .19103 18.5 6.4)"/><ellipse cx="159" cy="45" fill="#12131a" rx="38" ry="5"/><path fill="#555652" d="M31 24h38v78H31z"/><circle r="1" fill="#5f6976" transform="rotate(175.8 30 82.4) scale(20.18766 61.87455)"/><path fill="#2d363a" d="M136 83h42v87h-42z"/><circle r="1" fill="#495333" transform="rotate(49.1 52.7 220.6) scale(24.37602 12.14794)"/><path fill="#8b9960" d="M0 140h16v21H0z"/><ellipse cx="5" cy="101" fill="#284119" rx="13" ry="38"/><ellipse cx="122" cy="81" fill="#574b32" rx="98" ry="13"/><path fill="#8e9e96" d="M127 7h71v15h-71z"/><ellipse cx="175" cy="136" fill="#727d87" rx="2" ry="40"/><ellipse cx="87" cy="36" fill="#253042" rx="39" ry="7"/><path fill="#323b4d" d="M246.4 64.7L271 46.4l-92.5-8.6-46-5.2z"/><path fill="#797a77" d="M76.5 52.7L43.6 30.3l-10-1.6 18.8 25.5z"/><ellipse cx="37" cy="142" fill="#131321" rx="7" ry="45"/><path fill="#333735" d="M224.9 185L221 82.1l-20.4 4.1 14.8 83.5z"/><ellipse cx="18" cy="49" fill="#22321d" rx="23" ry="11"/><circle r="1" fill="#94aedd" transform="rotate(-78.1 41.6 -44) scale(21.77162 60.60082)"/><circle r="1" fill="#7b7973" transform="rotate(91.7 67.5 134) scale(3.23533 92.0822)"/><path d="M143 96h29v7h-29z"/><path fill="#000b00" d="M0 162h15v8H0z"/><ellipse cx="251" cy="19" fill="#b5c7e2" rx="36" ry="26"/><path fill="#869895" d="M180 31h-56l18-25z"/><path fill="#7d9392" d="M194 25h16v15h-16z"/><ellipse cx="69" cy="71" fill="#514121" rx="46" ry="4"/><path fill="#8aa7d2" d="M5.7-7.8l30 7.5-7.4 30-30-7.4z"/><path fill="#597633" d="M24.1 47.6l2.6-19.1-29.3-2.3-8.1 15.3z"/><path fill="#7e7768" d="M65.2 43.9l12.7 9 62.5 18.8 24.8-9.6z"/><ellipse cx="139" cy="131" fill="#686b6b" rx="2" ry="39"/><ellipse cx="124" cy="146" fill="#473e2a" rx="4" ry="78"/><ellipse cx="150" cy="141" fill="#6a6e6f" rx="26" ry="2"/><path fill="#62703d" d="M16.4 100.7l-2-12-30.4 27.7 40.9-15.6z"/><path fill="#b7c8e0" d="M178.8-16L271 55.3 180 .6 156.9 21z"/><path fill="#534424" d="M229.6 75.6l34 1.8-1.2 21-34-1.8z"/><path fill="#4f5a2a" d="M154 15l-11-1-1-6z"/><circle r="1" fill="#18191a" transform="matrix(65.7006 5.51422 -.13744 1.63751 119.4 40.5)"/><path fill="#1e2b38" d="M59 25l-26-1 10 6z"/><path fill="#090a0b" d="M143 143l-1 30 18 2z"/><path fill="#606d4c" d="M188.5 17.7l-21-1-5.2 20.2-7.9-8z"/><path fill="#1c2234" d="M32.4 48.2l-3.7-23.7 4.9-.7 3.7 23.7z"/><path fill="#a9bedc" d="M94.4 21l-29.2 1.7 45.3-17.2 50 16.6z"/><circle r="1" fill="#151e11" transform="rotate(-44 146.2 45.2) scale(11.37308 4.43937)"/><path fill="#596841" d="M-7 66l23 14 3-22z"/><path fill="#87909c" d="M36.9 36.5l11.3 4.3-.2-13-9.1 7.1z"/><path fill="#b3c6e3" d="M167.5 12l1-4 30 8-1 4z"/><circle r="1" fill="#474f5a" transform="matrix(-.21095 2.65642 -74.37545 -5.90632 126.7 35)"/><ellipse cx="77" cy="130" fill="#77766e" rx="6" ry="31"/><path fill="#596952" d="M190.8 5.2l5.5 7.1-3.1 2.5-5.5-7.1z"/><path fill="#b9cdf1" d="M212 24h17v17h-17z"/><path fill="#626e42" d="M166 3l-8 4 5-8z"/><path fill="#605f5f" d="M44 72.8l6.7 44.9-23-45.2 3 37.4z"/><path fill="#4a4f53" d="M75 137l-20 48 1-57z"/><ellipse cx="15" cy="1" fill="#8aa5d1" rx="86" ry="23"/><path fill="#171618" d="M19 90l6-9-35-6z"/><ellipse cx="251" cy="21" fill="#a5b8d4" rx="55" ry="8"/><path fill="#bdccdf" d="M271-6L159-1l87 20z"/><path fill="#191918" d="M176 93h32v33h-32z"/><path fill="#637136" d="M188.8 42.4l-17.6-29.3 19.4 17.4 13.7-7.2z"/><path fill="#4f5253" d="M211 41l-43 33 59-21z"/><path fill="#302d27" d="M209.7 89.6l4.6 45.1 7.6-37.1-.6-8.7z"/><circle r="1" fill="#6b6552" transform="matrix(-31.65302 8.30401 -3.81472 -14.54085 75.2 99)"/><path fill="#13171a" d="M260.8 54.1L229 52l.3-4 31.7 2z"/><path fill="#5a5447" d="M188.5 66.2l-60.8-10.5L75 40.5l83.9 9.6z"/><circle r="1" fill="#4f5558" transform="matrix(-.9988 .04914 -4.18452 -85.05628 210.2 110.7)"/><path fill="#60676d" d="M173 80h3v56h-3z"/><path fill="#8da0af" d="M128 8h13v23h-13z"/><ellipse cx="130" cy="125" fill="#6f6958" rx="4" ry="44"/><path fill="#110e10" d="M32.5 67.2l-4-.5 3-23.9 4 .5z"/><path fill="#4e4739" d="M173 70l83 13-100 13z"/><path fill="#202527" d="M143 137l-3-45 36 45z"/><path fill="#a3b8d1" d="M147 24h4v10h-4z"/><ellipse cx="134" cy="37" fill="#777a7e" rx="12" ry="2"/><path fill="#b9cdee" d="M224.4 35.3l-23-1.6.2-3 23 1.6z"/><ellipse cx="231" cy="72" fill="#726f69" rx="26" ry="4"/><ellipse cx="253" cy="166" fill="#615d50" rx="30" ry="60"/><ellipse cx="108" cy="66" fill="#7d7d73" rx="31" ry="3"/><ellipse cx="136" cy="74" fill="#4a3e24" rx="31" ry="4"/><path fill="#302e30" d="M195.3 39.1l11.3 21.7-23.9-16.7 3.7-6.2z"/><path fill="#70695b" d="M44 47h38v19H44z"/><ellipse cx="192" cy="83" fill="#675c47" rx="32" ry="3"/><path fill="#393a41" d="M32.2 44.1L52.4 185H31.2l19.4-56z"/><path fill="#65714d" d="M146 14h22v3h-22z"/><ellipse cx="11" cy="132" fill="#1b260a" rx="5" ry="8"/><path fill="#404542" d="M13 112h21l-14 44z"/><path fill="#63583c" d="M79 71.5l39.2 87.3 7.1-19.8-5.7-63.8z"/><circle r="1" fill="#454d57" transform="matrix(-28.77114 .35152 -.03626 -2.96768 71.6 31.4)"/><path fill="#5c6d43" d="M210 27.5v1l-24 2v-1z"/><path fill="#a1bae0" d="M111 30L63 20 93 2z"/><path fill="#b0c3e0" d="M141 8L93-3l69-13z"/><path fill="#5b5140" d="M235 75l23-19-42-6z"/></g></g></svg>