<svg xmlns="http://www.w3.org/2000/svg" viewBox="0 0 4032 2268"><defs/><filter id="a"><feGaussianBlur stdDeviation="12"/></filter><rect width="100%" height="100%" fill="#6f5238"/><g filter="url(#a)"><g fill-opacity=".5" transform="translate(7.9 7.9) scale(15.75)"><circle r="1" fill="#d7d8c8" transform="matrix(41.41343 140.71077 -143.74245 42.3057 128.5 75.5)"/><circle r="1" fill="#ece7e2" transform="rotate(167.7 8.7 61.7) scale(40.61476 89.2874)"/><ellipse cx="188" cy="69" fill="#536264" rx="83" ry="45"/><circle r="1" fill="#1a9bf8" transform="matrix(2.01703 -22.71707 25.74542 2.28591 230.7 73.5)"/><path fill="#0b0700" d="M34 89h32v12H34z"/><path fill="#effbfb" d="M139 59l46 19-24 20z"/><path fill="#fff" d="M216.4 64.6l17-.2.2 17-17 .2z"/><ellipse cx="175" cy="59" fill="#070c02" rx="15" ry="13"/><path fill="#3f392d" d="M89 107l40-8 31-74z"/><ellipse cx="98" cy="63" fill="#b9cbc6" rx="24" ry="25"/><circle r="1" fill="#ac7e4f" transform="matrix(-116.57305 20.02608 -5.2684 -30.66768 176.9 16.4)"/><path fill="#dcfeff" d="M65.2 75.5l-44-30.4L6.1 77.4l35.3 12z"/><ellipse cx="192" cy="125" fill="#c59d71" rx="143" ry="30"/><path fill="#000200" d="M227 28h15v16h-15z"/><path fill="#4a3722" d="M55 91l18-7V39z"/><path fill="#534c3d" d="M136.7 41.2L233.3 52 192 94.5l-17.3-70.2z"/><path fill="#107cce" d="M221.7 103.4l9.4 15.4 4-21.9 12.1-36z"/><path fill="#57391e" d="M125 38h17v56h-17z"/><circle r="1" fill="#c8a17d" transform="matrix(76.49542 -21.64819 5.67642 20.05804 35 21.5)"/><ellipse cx="69" cy="121" fill="#cfb397" rx="24" ry="33"/><circle r="1" fill="#eedaca" transform="rotate(134.9 -24.1 58.1) scale(22.34724 62.82884)"/><path fill="#7e5a37" d="M150 115l63-19-12-31z"/><circle r="1" fill="#abbbc0" transform="matrix(23.09592 16.71944 -10.2904 14.21496 41.7 53.5)"/><ellipse cx="150" cy="66" fill="#bbc9ce" rx="9" ry="17"/><path fill="#3b5c69" d="M104.4 86.7l36.5-11.6-35.1 34.5-19.2-5.3z"/><circle r="1" fill="#e3ffff" transform="matrix(-9.0141 -3.41786 3.39357 -8.95004 226 73.5)"/><path fill="#024579" d="M229.7 45.7l17.7 9.4-7 13.2-17.8-9.4z"/><circle r="1" fill="#bc9666" transform="matrix(18.79798 3.97287 -6.95178 32.89292 210 25.2)"/><path fill="#202719" d="M49 98l10-18-23 16z"/><path fill="#c5a373" d="M271 80.8L224.7-16 271 10.6l-35.9 32.9z"/><circle r="1" fill="#98795b" transform="matrix(-1.3558 12.7182 -40.70478 -4.33924 149 105.7)"/><circle r="1" fill="#caae81" transform="rotate(-149.5 144 26) scale(25.26149 48.23194)"/><path fill="#efffff" d="M34.6 90.1l28.9-17.2-47.6-5.6 2.4 14.6z"/><circle cx="88" cy="71" r="13" fill="#cad7d6"/><path fill="#0069c2" d="M206 61h10v22h-10z"/><circle r="1" fill="#826a51" transform="matrix(-27.79176 1.00228 -.35372 -9.80816 126.2 37)"/><ellipse cx="68" cy="87" fill="#907455" rx="16" ry="9"/><path fill="#71614d" d="M92.8 32.7l-34.4 8.7 9 16.7 3.4 1.1z"/><path fill="#96988a" d="M155.5 106.1L188.2 79l1.5-24-22.2 32z"/><circle r="1" fill="#959888" transform="matrix(12.3237 -8.6131 11.52157 16.48518 109.3 58)"/><circle r="1" fill="#ba976e" transform="matrix(1.83138 -18.70522 80.683 7.89947 192.5 9)"/><path fill="#1e3744" d="M39.4 91l1.1 9-8 1-1-9z"/><path fill="#afc4cb" d="M83.9 71.2L74.7 66l9.8-21.6L97.8 39z"/><circle r="1" fill="#947149" transform="rotate(46.5 44.7 239.4) scale(25.87972 10.59286)"/><path fill="#c3a588" d="M92.6 80.2l25.1 21.3L74.1 159l54.1-27.1z"/><circle r="1" fill="#60462c" transform="rotate(157.2 60.5 47.5) scale(7.5487 26.2723)"/><path fill="#646e6d" d="M91 114h10v14H91z"/><path fill="#94a5a9" d="M168 39l-19 8 6 14z"/><path fill="#1a7bc5" d="M251 76l-25 30-4-21z"/><path fill="#43433a" d="M163 39.1l7.4-9.4-15.7-.5L141.2 54z"/><path fill="#025d9b" d="M114.8 97l-2.8-4 17.2-12 2.8 4z"/><path fill="#3b3b2d" d="M93 96h13v12H93z"/><circle r="1" fill="#c2a586" transform="matrix(5.18999 7.96143 -48.75563 31.7834 13.4 39.3)"/><path fill="#105994" d="M236 40v14l-35 18z"/><path fill="#ae8c66" d="M225 103l-29-16-71 72z"/><path fill="#d1dbdb" d="M161.7 97.2l3.3-12 2.6-9-24.8-13.7z"/><path fill="#d0d6d5" d="M63.7 68.9l-25.1-5.4 15.1 21.7 10.9-10.3z"/><path fill="#d9fcff" d="M91 108h11v3H91z"/><path fill="#bef0fe" d="M216 69h21v10h-21z"/><path fill="#a07d5d" d="M-14.4 27.7L-25.8 2.2l40.2-18L25.8 9.9z"/><path fill="#5c4d3a" d="M65.3 79.1l1.2-2.7-.7-30.9 13.8 39.2z"/><ellipse cx="18" cy="63" fill="#e8fcff" rx="6" ry="12"/><path fill="#7e95a2" d="M33 44h5v22h-5z"/><path fill="#977453" d="M124 89h33v16h-33z"/><path fill="#725f47" d="M176 120l-21-21 22 1z"/><path fill="#b3b3a2" d="M92.5 95.1l-.2-20.9 33.1-10.1-6.4 15.4z"/><path fill="#c5ab91" d="M121.7 159l-48.4-14.4-24.4-60.8 38.5 35.9z"/><path fill="#b89564" d="M241 21l30 19-31 8z"/><path fill="#6e8289" d="M24 86l-13 8 9-11z"/><circle r="1" fill="#d5bda5" transform="rotate(-106.2 71.2 48.1) scale(30.8018 17.30326)"/><circle cx="171" cy="59" r="12" fill="#282f2b"/><path fill="#a88863" d="M190 16.5l43.8 28.3-12.9 6.6-77-32.1z"/><ellipse cx="173" cy="60" fill="#909d9e" rx="4" ry="3"/><path fill="#8f9890" d="M31.5 47.7l29.3-2.1 5.7 25.5-32.4-25.3z"/><path fill="#c3ab92" d="M-16 47.9l63.6-34L8.9 60.4l10.5 28.9z"/><path fill="#1e81ce" d="M226.7 86.8l-18.8-16.3 1.2 15.6 12.8 7.7z"/><circle r="1" fill="#c4a67d" transform="matrix(34.29822 -6.26575 5.3097 29.06487 223.8 143)"/><path fill="#675032" d="M191.4 66.6l-9.5 29.7 25-26.9-19.2-17.2z"/><path fill="#0d191a" d="M227 28l10 1-6 16z"/><path fill="#909795" d="M140 73l30-30-12-4z"/><circle r="1" fill="#af8d6b" transform="matrix(8.18133 -16.60385 36.56852 18.01866 142.9 121.7)"/><path fill="#2c88d1" d="M224 112h11l-8-16z"/><path fill="#a5aaa2" d="M170 98l-15-2 34-35z"/><path fill="#131a18" d="M41 99l9-13v13z"/><path fill="#2c6a8f" d="M248 62l-18-22 10 38z"/><path fill="#e7f4fb" d="M60.1 80.6L45 88.3l-17.4.5L15.2 80z"/><path fill="#1b6198" d="M235 48.3l-20.6 4.5-7.6 21.6 17.3-12.5z"/><path fill="#a18769" d="M56 86l19 8-26 13z"/><path fill="#4a4c40" d="M94 119h5v8h-5z"/><path fill="#ccd6d7" d="M155 62l9 32-16-13z"/><path fill="#484736" d="M184.4 44.5l-11.2-2.6L160.1 28l3.4 13.2z"/><path fill="#090d07" d="M185 61l-4 7-2-6z"/><path fill="#b3d8f1" d="M17 84L4 93h11z"/><path fill="#827157" d="M126.7 39.2l37.7 3-50.6-5.8 5 38.9z"/><path fill="#503f2b" d="M139 56l3 22-30 8z"/><circle cx="112" cy="88" r="4" fill="#003c69"/><path fill="#5c6967" d="M96.9 95l.2 12h-8L89 95z"/><ellipse cx="77" cy="63" fill="#b0bfc0" rx="5" ry="11"/><ellipse cx="98" fill="#b3906e" rx="30" ry="27"/><path fill="#5d4d39" d="M60.4 89.3L57 87.4l12.7-22.7 3.5 1.9z"/></g></g></svg>