<svg xmlns="http://www.w3.org/2000/svg" viewBox="0 0 1800 1200"><defs/><filter id="a"><feGaussianBlur stdDeviation="12"/></filter><rect width="100%" height="100%" fill="#274249"/><g filter="url(#a)"><g fill-opacity=".5" transform="translate(3.5 3.5) scale(7.03125)"><circle cx="165" cy="73" r="205" fill="#d7d9e6"/><circle r="1" fill="#fff" transform="rotate(-101.3 84 -41.3) scale(83.73596 43.20398)"/><circle r="1" fill="#00250f" transform="rotate(-61.3 62.2 2.8) scale(31.85708 81.8302)"/><circle r="1" fill="#071f45" transform="rotate(-60.3 211.9 -131.1) scale(31.84283 50.97892)"/><circle r="1" fill="#fff" transform="matrix(-35.66315 -20.15637 9.19756 -16.27346 36.7 0)"/><ellipse cx="162" cy="33" fill="#fff" rx="19" ry="85"/><path fill="#434955" d="M164 159L28 108l107-29z"/><circle cx="228" cy="46" r="37" fill="#8ab3f1"/><circle r="1" fill="#c4b3a2" transform="matrix(-97.46321 -11.28483 3.20483 -27.67897 41 153.9)"/><circle r="1" fill="#413f47" transform="matrix(-24.08582 -14.94094 10.01814 -16.14993 174 138.7)"/><circle cx="110" cy="18" r="32" fill="#7da3da"/><path fill="#beb2ad" d="M199 131h31v39h-31z"/><path fill="#000c18" d="M196 105l-34-12 27-4z"/><circle r="1" fill="#3e70b8" transform="matrix(-1.20887 22.32112 -52.72972 -2.85574 235.2 10.8)"/><ellipse cx="190" cy="49" fill="#092123" rx="3" ry="64"/><path fill="#e3f4ff" d="M95.2 86.2l24.9-7.8-5.4-.6-12-25.9z"/><circle r="1" fill="#a99f8a" transform="matrix(5.62068 2.95835 -20.58261 39.1057 62.4 66.6)"/><circle r="1" fill="#0f3935" transform="matrix(16.52351 27.54454 -28.69385 17.21296 9.7 50)"/><circle r="1" fill="#2a4970" transform="matrix(-5.51206 -16.76514 63.87067 -20.99946 223.5 107.4)"/><path fill="#fffef5" d="M143 2h19v115h-19z"/><path fill="#38629a" d="M96 83h45v34H96z"/><path fill="#f8f1de" d="M65 29L-7-2l82-14z"/><path fill="#aab8cb" d="M196 49h60v34h-60z"/><path fill="#24584e" d="M99.9 55.8l-3.3 31.7-16.2 22.6-5.7-74.7z"/><ellipse cx="193" cy="141" fill="#0d2f42" rx="4" ry="79"/><path fill="#804b00" d="M152.6 120.2L139 148.5l-3.2-34.3 27 8.7z"/><path fill="#a8967f" d="M-16 95.6l8.5-18.8 61.8 14.7L90.1 112z"/><ellipse cx="185" fill="#191900" rx="5" ry="14"/><ellipse cx="82" cy="9" fill="#f7e2be" rx="4" ry="35"/><circle r="1" fill="#fffdf8" transform="matrix(.71555 49.01312 -16.08063 .23476 166.6 17)"/><path fill="#373a46" d="M233.9 154l-22.8-10.3 59.9-21v40.9z"/><circle r="1" fill="#6991ca" transform="matrix(13.66037 -12.51742 20.83213 22.73429 112.4 0)"/><ellipse cx="22" cy="113" fill="#3f546d" rx="54" ry="7"/><path fill="#8e8b8a" d="M133.1 167.6l5.4-46.2-87-1.6 32.9 59.1z"/><path fill="#7e7372" d="M154 130h38v40h-38z"/><path fill="#fefcf4" d="M141 95l27 21 9-19z"/><path fill="#7b5d2d" d="M72 0h7v35h-7z"/><path fill="#254b46" d="M52.8 81L31 96.6-16 1l84.9 47z"/><path fill="#b2cce7" d="M139.6 55.3L90.8 12.4l-2.3 30.2L136 86.4z"/><circle r="1" fill="#c4b8b4" transform="matrix(1.33776 -6.63455 43.47658 8.76642 241 163.8)"/><path fill="#0f3140" d="M174.2 110.3l11.1-36.4 12.5 3.8-11.1 36.4z"/><path fill="#ada08a" d="M183 16h7v58h-7z"/><path fill="#3f6091" d="M197 83h59v19h-59z"/><path fill="#1f302b" d="M81.1 95.6l18.5-41.7-9.8 47.2-45.5 24.3z"/><path fill="#e8e6d9" d="M56 0h16v32H56z"/><path fill="#b8b2ad" d="M235 133l4 8-25-8z"/><path fill="#7b9fce" d="M193 44v-60l78 77z"/><path fill="#00000a" d="M178 91l-15 5-1-5z"/><path fill="#4f4948" d="M121.6 127.9L75.5 136l11.8-13.1 2.3 3.4z"/><path fill="#c3d4e2" d="M99 49h33v34H99z"/><path fill="#2b486c" d="M110 106h27v18h-27z"/><circle r="1" fill="#9c9da0" transform="matrix(2.57525 -12.11558 30.62003 6.50849 127.9 157.7)"/><path fill="#b4b0a6" d="M86.4 126L79 102.1l-15.9 69.6-79.1-50.1z"/><path fill="#3f444b" d="M159 185l3-30 41 30z"/><circle r="1" fill="#6480a2" transform="matrix(3.62443 13.71545 -7.83592 2.07071 102 97.9)"/><circle r="1" fill="#959280" transform="rotate(-157.6 27.1 8.5) scale(52.47262 4.17089)"/><circle cx="209" cy="151" r="9" fill="#cdcbc6"/><circle r="1" fill="#657fa6" transform="matrix(.15994 7.85246 -29.64515 .60382 14 109.7)"/><path fill="#2a5451" d="M70 37L54 78 15 16z"/><circle r="1" fill="#a5988c" transform="matrix(2.596 2.7452 -18.91963 17.8914 50.6 85.8)"/><path fill="#2d4052" d="M135.8 148l35.8-25.3-18.3-4.5-15.9 22.7z"/><path fill="#5d8075" d="M94.3 68.3L75.9 83.2l-6.1 7 18-66.5z"/><path fill="#465567" d="M250.2 123.9l-81.4-17.1 53.5 38.9-77.2-17z"/><path fill="#9d6919" d="M141.1 141.2l-11.9-7.3 16.8-14.2 4.8-2.1z"/><path fill="#f1f1eb" d="M142.2 116.2l-.5-25.4 42.6-37.1-31 60.9z"/><path fill="#b7bbc4" d="M177 161l20 24-6-25z"/><path fill="#6b6453" d="M56.5 96.7L-1.7 82.2l1.2-4.9 58.2 14.5z"/><path fill="#5e5746" d="M69 94h8v35h-8z"/><path fill="#6a5a52" d="M85 0h2v37h-2z"/><path fill="#cdc8c4" d="M102.4 45.5l-23-8.9-7.4 1.7 20.2 8.6z"/><path fill="#091903" d="M44.1 107.9l.2-1 29.6 5.2-.2 1z"/><circle r="1" fill="#a9acb0" transform="matrix(32.81278 3.71463 -.11249 .99365 119.5 126)"/><ellipse cx="194" cy="152" fill="#00263f" rx="2" ry="79"/><path fill="#2d3d56" d="M234.6 153.1L249 90.8l26.4 6-14.4 62.4z"/><path fill="#a4a59f" d="M-16 90.7V96l92.3 14-19.4-13z"/><path fill="#a2b7ce" d="M197 83.2l-4.5-42.1 19.1-1 12.1 41.8z"/><path fill="#a29d8e" d="M141.3 116l-3.6-104h1l3.6 104z"/><path fill="#001f2b" d="M189 0h3v37h-3z"/><circle r="1" fill="#d9dad2" transform="rotate(145.7 25 13.8) scale(10.16187 28.33192)"/><circle r="1" fill="#8292a2" transform="rotate(-86.4 163 -34) scale(1 20.90088)"/><path fill="#eaede9" d="M146.2 98.1l-4 12.4 22.1 9.7 14.9-22.1z"/><path fill="#adaeae" d="M131.4 141.3l-13.6.5-38.9 14.9 55.7-21.4z"/><path fill="#453e37" d="M148 125v22l-20-3z"/><circle r="1" fill="#ecedea" transform="matrix(-19.77876 -3.17435 8.42245 -52.47858 161.8 4.6)"/><path fill="#7b7d83" d="M198 132.5l52.9 16.7-31.1-27.2 31.7.9z"/><path fill="#f8f9f5" d="M161 0h17v91h-17z"/><circle r="1" fill="#9db9dd" transform="rotate(-144.4 63 .2) scale(27.86796 18.01546)"/><path fill="#13221d" d="M189 17l2-22-9 15z"/><path fill="#999890" d="M190 60l-9-8-3 40z"/><circle r="1" fill="#d9a24b" transform="matrix(-1.63337 3.30253 -4.55529 -2.25296 139 126.7)"/><ellipse cx="63" cy="111" fill="#2a3122" rx="11" ry="4"/><path fill="#154239" d="M95 50h4v25h-4z"/><path fill="#5d6a80" d="M68 117.5l-26.1 7.1-57.9-6.7 56.5-6.9z"/><path fill="#506e94" d="M95 83h45v19H95z"/><circle r="1" fill="#a2a4a4" transform="matrix(-29.34412 -7.4252 1.01056 -3.99368 132.1 151.5)"/><ellipse cx="223" cy="5" fill="#5781be" rx="32" ry="13"/><ellipse cx="104" cy="109" fill="#4e6889" rx="20" ry="14"/><path fill="#bcb9b3" d="M59.8 120.2L43.4 129l23.5 34.9 6.4 21.1z"/><path fill="#082431" d="M172 106h15v6h-15z"/><path fill="#0b263d" d="M195 154h3v16h-3z"/></g></g></svg>