<svg xmlns="http://www.w3.org/2000/svg" viewBox="0 0 1280 853"><defs/><filter id="a"><feGaussianBlur stdDeviation="12"/></filter><rect width="100%" height="100%" fill="#313a4a"/><g filter="url(#a)"><g fill-opacity=".5" transform="matrix(5 0 0 5 2.5 2.5)"><circle r="1" fill="#e4c7a0" transform="matrix(38.80476 90.53828 -234.3795 100.45518 82.3 73.2)"/><circle r="1" fill="#fff" transform="rotate(3.4 -1878.6 1839.6) scale(46.6436 24.05579)"/><circle r="1" fill="#0c070a" transform="rotate(-126.7 91.1 -9) scale(15.55744 78.08108)"/><path d="M134 54l31 111 106 13z"/><circle r="1" fill="#fcf1e1" transform="rotate(136.3 35 103.9) scale(15.81204 80.37888)"/><circle r="1" fill="#ffffcf" transform="rotate(-140.8 130.6 -36.6) scale(17.0154 47.07321)"/><circle r="1" fill="#7e6c5e" transform="matrix(-55.05633 0 0 -38.61334 227 95.4)"/><ellipse cx="5" cy="30" fill="#00182b" rx="79" ry="10"/><ellipse cx="22" cy="90" fill="#e3c18b" rx="29" ry="47"/><circle r="1" fill="#16131c" transform="matrix(28.6485 -18.74154 6.1424 9.38934 79.7 62.7)"/><ellipse cx="125" fill="#cac5a8" rx="45" ry="53"/><circle r="1" fill="#192637" transform="matrix(11.79202 -7.50715 17.03828 26.76325 64.3 143.2)"/><path fill="#ffad83" d="M73.2 79.7l9.2-20.1 17.1 1.6 2.3 45.9z"/><ellipse cx="95" cy="116" fill="#fff" rx="37" ry="13"/><path fill="#ff907b" d="M212 85l-47-28 48-21z"/><ellipse cx="130" cy="75" fill="#121b2a" rx="33" ry="20"/><circle r="1" fill="#172427" transform="matrix(-41.35195 19.31241 -3.00404 -6.43228 18.8 154.5)"/><path fill="#060000" d="M226 89l19-37-51 43z"/><path fill="#000d41" d="M49 80.1L67.3 72 77 93.9 58.7 102z"/><ellipse cx="60" fill="#e8eadc" rx="96" ry="7"/><path fill="#e3edcd" d="M218 15h-55l1-26z"/><ellipse cx="217" cy="166" fill="#110f04" rx="74" ry="36"/><ellipse cx="91" cy="10" fill="#1d2e3e" rx="52" ry="4"/><ellipse cx="108" cy="145" fill="#002b4c" rx="20" ry="5"/><circle r="1" fill="#fff" transform="rotate(-44.6 204.3 -83.3) scale(30.26112 13.2471)"/><ellipse cx="239" cy="111" fill="#7a8176" rx="64" ry="21"/><path fill="#cfb38a" d="M-13.5 115.1l36.3-70.7 91.5-17-73.2 44.7z"/><path fill="#403932" d="M154 22h70v16h-70z"/><circle r="1" fill="#00010d" transform="rotate(159.4 74.8 82.4) scale(10.97703 39.15515)"/><path fill="#080703" d="M69 48h42v14H69z"/><path fill="#f0af88" d="M135 182l-3-56 28-6z"/><path fill="#fff" d="M116 158l-26-3 29-8z"/><path fill="#687374" d="M85 159h84v11H85z"/><path fill="#edc190" d="M128 40l-15 32-3-42z"/><path fill="#000312" d="M54 70h8v37h-8z"/><circle cx="154" cy="86" r="18" fill="#233c53"/><path fill="#24262b" d="M72.8 30.9l3 49.7-12.2-77 15.8 25.3z"/><path fill="#00040e" d="M-2 172l23-17-13-11z"/><circle r="1" fill="#c19f6c" transform="matrix(3.44259 -15.9226 7.31532 1.58163 55.5 154.8)"/><path fill="#e2e9d6" d="M197 2l-67 16 31 6z"/><path fill="#27353e" d="M150.1 117.5l-6.6 6.1 27.1 16.6-21.4 23.9z"/><path fill="#301e2c" d="M241.8 10.3l.8 4.2-21.6.5L229.3.4z"/><path fill="#485764" d="M108.6 144.8l-6.3 9.9 13.5-21.9 15.3 23.8z"/><path fill="#433229" d="M105 68h10v39h-10z"/><circle r="1" fill="#5e5e53" transform="rotate(-113.1 100.3 -47.5) scale(10.69685 40.61523)"/><ellipse cx="203" cy="67" fill="#ca7564" rx="25" ry="18"/><path fill="#fff" d="M83.8 91.9L97 115.5l-22.7 12.6L61 104.5z"/><path fill="#080e0d" d="M222 92.7l11.2-37.4 37.8-9.4-32.6 13.2z"/><path fill="#f5ffff" d="M140 126l18.3-4.8 1.8 6.7-18.4 5z"/><ellipse cx="111" cy="17" fill="#fcf1d6" rx="39" ry="3"/><path fill="#00264f" d="M75 138l16 4-9-15z"/><path fill="#64635a" d="M154.7 32.4l-32.4-18.2 12.5-1.1L107 26.5z"/><path fill="#f7f6ea" d="M141.2 121.7l16.9-7.6-27.3-17.7-15.7 2.5z"/><path fill="#c4d6da" d="M0 0h41v10H0z"/><path fill="#000006" d="M48 3h7v8h-7z"/><path fill="#bda787" d="M-2.2 48.9l32.5 60.9 29.9 23-18.9-91.3z"/><path fill="#030c1e" d="M152 185l-22-21-39 3z"/><path fill="#0a191d" d="M-.7 47L18 43.1 6.1 29.5-14-16z"/><path fill="#f4ffff" d="M87 146.5l15.6 12.2-22.3-11.3 6.9-6.4z"/><path fill="#fff" d="M119 93h12v38h-12z"/><path fill="#ffbc93" d="M78.1 76.1l-2.4-9.7 26.2-6.5 2.4 9.7z"/><path fill="#181b1c" d="M107.1 70.2l119.4-50.6-97.1 59 62.2 62.3z"/><path fill="#643e34" d="M215 60.8l4.7 17.5 2-32.5-44.3 32.6z"/><path fill="#f0ceaa" d="M224 16h32v34h-32z"/><path fill="#818d8d" d="M35.2 126.1l9.2 16.7-23.6 13-9.2-16.6z"/><path fill="#0d2031" d="M176 116l-42 9 33-18z"/><path fill="#343a39" d="M102 28l-28 6-8-13z"/><path fill="#ffab96" d="M180 47h35v8h-35z"/><circle r="1" fill="#ccb28d" transform="matrix(-20.75347 7.12767 -4.36032 -12.69585 50 55.3)"/><path d="M236.6 139.6l16.6-11.2 16.2 24-16.6 11.2z"/><path fill="#364d65" d="M74 6h70v2H74z"/><path fill="#f2a47a" d="M147 160l-10-51-11 52z"/><path fill="#536065" d="M127 75l106 50-45-47z"/><path fill="#daccaa" d="M126-14.2l-1.1 28.8-49.8 5.9 36.3 6.3z"/><path fill="#242c43" d="M100.7 169.7L78 149.4 63.1 115l7.8 46z"/><path d="M211.1 90.7l-1.8-.7 11.6-28.7 1.8.7z"/><ellipse cx="128" cy="42" fill="#d6ba8f" rx="21" ry="12"/><path fill="#ffa680" d="M105 85.6l-1.9-7.8 5.8-1.4 2 7.8z"/><ellipse cx="25" cy="19" fill="#96a2a1" rx="44" ry="5"/><path fill="#1a1318" d="M226 35.9l-7.3-11.7-9.9-1.5-10.5 8.4z"/><path fill="#fff" d="M70.9 98.7l-13 13.6 75.3 11.8-43.6 16.5z"/><path fill="#c7c6b7" d="M138.4 174.3l24.2-15.2-5.4 23.6-37.3 2.3z"/><path fill="#f5c7c9" d="M66 29l1-11-6-8z"/><path fill="#142b37" d="M71.9 30.2L11 23.7l14-6.1 3.1 20.9z"/><path fill="#b29568" d="M60 139.2l3.5 45.8-78.6-3.4L19 162.2z"/><path fill="#e8ffff" d="M99 162h20v3H99z"/><path fill="#5e6663" d="M205 103l66-19-13-32z"/><path fill="#2c5986" d="M62.8 61.6l21.9 33.2-15.2-2.4-11.9-32.6z"/><path fill="#ea9d8b" d="M209.1 43.7l-38.2 12-8.1 15.9 51.4-27.8z"/><path fill="#bdbba4" d="M68.7 33.9L3.4 43.1l-.1-1 65.3-9.2z"/><path fill="#8d897c" d="M196.1 122.8l72.7.9 2.2-1.8-33.8 14z"/><path fill="#08141d" d="M121.1 55.6l-11.2 43.9 19.1-8.7 9.5-23.3z"/><path fill="#ffeadf" d="M239 0h17v6h-17z"/><path fill="#030a09" d="M192.9 92l20.6-8.1 16.5-2.4-17.6 10.9z"/><path fill="#232b3f" d="M53 125.5l1 3.8-25 7.2-1-3.8z"/><path fill="#323430" d="M148 37l14 49 3-65z"/><path fill="#9fa798" d="M184.9-16l-41.1 62.3 8.1-60.6 68.2 38.1z"/><path fill="#af9872" d="M-6.4 154L-26 122.5 16.4 96 36 127.4z"/><path fill="#fdfff7" d="M60 112l17-16 2 40z"/><path fill="#020000" d="M136.4 163.6l1.1-1.7 10 6.5-1 1.7z"/></g></g></svg>