<svg xmlns="http://www.w3.org/2000/svg" viewBox="0 0 1800 1200"><defs/><filter id="a"><feGaussianBlur stdDeviation="12"/></filter><rect width="100%" height="100%" fill="#4a413d"/><g filter="url(#a)"><g fill-opacity=".5" transform="translate(3.5 3.5) scale(7.03125)"><circle r="1" fill="#e7e1d4" transform="rotate(169.6 58.5 14.7) scale(156.78002 72.39874)"/><circle r="1" fill="#c8b9a3" transform="rotate(14.1 -596.8 389) scale(169.57065 30.04143)"/><circle r="1" fill="#ddf3ff" transform="matrix(117.60712 15.35962 -3.46717 26.54778 74.5 6)"/><circle r="1" fill="#745530" transform="matrix(-9.75272 34.9303 -120.59457 -33.6706 133.2 84.9)"/><circle r="1" fill="#1b222f" transform="matrix(-27.72609 -4.1437 2.0311 -13.59036 55.4 43.5)"/><path fill="#ba996a" d="M40 129L11 40l89 40z"/><circle r="1" fill="#a49478" transform="rotate(116.1 57.9 106) scale(11.49691 66.52)"/><circle r="1" fill="#727466" transform="rotate(-7.8 444.6 -1723.9) scale(38.40395 43.13592)"/><circle r="1" fill="#cad6f4" transform="rotate(-131.9 11.7 16.7) scale(15.45298 67.53129)"/><circle r="1" fill="#0c0903" transform="matrix(-2.23167 6.77216 -64.496 -21.25378 175.7 123)"/><path fill="#b9b5ac" d="M81.3 114l34.7 10.6 38.6-3.9-59.3-12z"/><path fill="#533422" d="M135 54l-10 70-25-83z"/><path fill="#4f412e" d="M164 154L54 132l4-39z"/><path fill="#c9d5f2" d="M187-5L92 45 31-16z"/><path fill="#9e9282" d="M41 151h166v19H41z"/><circle r="1" fill="#acafa6" transform="matrix(55.66735 58.77645 -8.66836 8.20983 166.4 20.4)"/><path fill="#5a3a1c" d="M201 69l-49 15-20-32z"/><path fill="#a5a4a0" d="M55.6 102l4.4 15.4L2.4 134-2 118.6z"/><ellipse cx="201" cy="5" fill="#27160a" rx="34" ry="2"/><path fill="#352705" d="M17 74l-24 3 18 16z"/><ellipse cx="255" cy="54" fill="#a5a8a2" rx="4" ry="65"/><path fill="#483f32" d="M232 12h17v98h-17z"/><path fill="#dfb27f" d="M86 62h21v26H86z"/><circle r="1" fill="#706c65" transform="matrix(57.55681 23.7957 -3.89903 9.43094 238.1 121)"/><path fill="#0f0e05" d="M229 139.2l-9.8 5.2-15.5 2.1 32.4 38.5z"/><path fill="#2f1906" d="M85 98.1l43.6 2.5-73.9 12.9L65.8 99z"/><circle r="1" fill="#d9be73" transform="rotate(32.8 -109 148.2) scale(28.87631 5.7839)"/><path fill="#b5b1a6" d="M71 116l33-11 11 13z"/><path fill="#b7955e" d="M169.9 111.3l51.1 18.8-101.4-62.4-5.2 3.6z"/><path fill="#5e5c65" d="M157 15l-5 30 11 5z"/><path fill="#000010" d="M118.4 55.6l-2.6 3.1-20.2-16.3 2.6-3.1z"/><path fill="#211a10" d="M159 121.5l-50.7 10.8 98.2 4.5-51.1-33z"/><path fill="#263d56" d="M-16 109l50-1 11-19z"/><path fill="#96662e" d="M22.8 74.5l69.9 27.1-78.1-10.2 21.6-2.1z"/><path fill="#787464" d="M254.8 146.2l-1.7 25-20-1.4 1.8-25z"/><path fill="#3a3939" d="M39 28h28v26H39z"/><path fill="#a39074" d="M252 90l-97-40 49 2z"/><circle r="1" fill="#353739" transform="matrix(10.35783 -3.14695 6.1722 20.31511 209 95.6)"/><circle r="1" fill="#ac7b37" transform="matrix(-60.52457 -13.8037 .96064 -4.21208 252.3 131.5)"/><path fill="#686160" d="M219.1 101.2l-135-57.4-58.4-7.7L252 123.6z"/><path fill="#2f180a" d="M142.1 117.9l26.6-8.2-80.6-14.1 34 21.2z"/><path fill="#bec1b2" d="M166.5 39l-14.8-1 39-27.9 5.5 38.6z"/><path fill="#9e866d" d="M119.9 58.1l51.5 11.7-58.4 6.4 95 43.6z"/><path fill="#77491f" d="M85 91l43-12 24 28z"/><path fill="#a7adac" d="M215 11h10v39h-10z"/><circle r="1" fill="#b8bfd2" transform="rotate(-92.5 15.3 -2.7) scale(23.11686 51.30187)"/><path fill="#97a0a3" d="M232 64h24v5h-24z"/><ellipse cx="222" cy="1" fill="#a9c2dc" rx="133" ry="2"/><path fill="#918c8c" d="M119.7 32.8l-16.2 11.8 56.1 13 61.1-4.4z"/><path fill="#6c5a50" d="M65 48.4l27.4 5.8L87 79.6l-27.4-5.8z"/><path fill="#746655" d="M207.4 148.9l3.9 23.1-84.1-19.9-18.6-5.7z"/><path fill="#101617" d="M253 83l-20-9 15-7z"/><path fill="#c9cfdf" d="M98 40l75-36-148 9z"/><path fill="#181107" d="M267.3 94.9l1.6 6.8-32.2 7.4-1.6-6.8z"/><path fill="#463119" d="M222 79l-69-24 63 45z"/><path fill="#b4662f" d="M13 52.4l41.9 27.3-3.8 5.9L9 58.3z"/><path fill="#2f2716" d="M197 145l24-15 50 13z"/><circle r="1" fill="#8f8478" transform="rotate(-20.9 419.5 36.2) scale(34.85278 44.27498)"/><circle r="1" fill="#39291a" transform="matrix(23.52528 -15.91471 2.98412 4.41115 84.2 106.2)"/><path fill="#d9c684" d="M71 83.4l-62.2-12 10-7.2 20.3 16.2z"/><path fill="#332b1e" d="M66.2 108.1l9-7.7-29.7-3.9 1.1 5.4z"/><path fill="#c0c8c5" d="M246 111l17-10-7 10z"/><path fill="#b3ada4" d="M122 118h35v2h-35z"/><circle r="1" fill="#68718d" transform="matrix(-29.3336 -5.64876 .66496 -3.4531 151.7 40.5)"/><path fill="#c2a883" d="M111.8 47.4l1.5-6.8 46.9 10-1.5 6.8z"/><path fill="#a5978f" d="M35 39l11 31-21-7z"/><circle r="1" fill="#ddc081" transform="matrix(11.908 2.1309 -.62756 3.50694 22 83.3)"/><path fill="#b3b3a4" d="M250 8h6v39h-6z"/><path fill="#706253" d="M104.5 149.3L55 117.2l-17.8 12.7 2.7 9.4z"/><path fill="#59402e" d="M172 2l1 5 12 1z"/><path fill="#c1b37c" d="M69.2 99.4L55.9 77l28.8 5.7 11.2 7.1z"/><path fill="#c3cde1" d="M101 2h54v32h-54z"/><path fill="#1b1b1b" d="M67 47L52 30l27 10z"/><path fill="#b17439" d="M108.5 89.8l22.4 8.6-1.4 3.8-22.4-8.6z"/><path fill="#635344" d="M200 134h24v8h-24z"/><path fill="#380e00" d="M10 76h13v3H10z"/><path fill="#71675f" d="M227 11h17v42h-17z"/><path fill="#a89c8e" d="M95.5 35L51.7 69.1l5.7-7.8 12.5-11.5z"/><circle r="1" fill="#353736" transform="rotate(83.1 91.7 172.2) scale(2.10747 41.50542)"/><path fill="#b5b4a4" d="M159 8h32v29h-32z"/><ellipse cx="6" cy="45" fill="#c5c6cf" rx="5" ry="21"/><path fill="#84888a" d="M78.5 31.2l-36.7-6.3 36.3 14.2-5.9.3z"/><path fill="#282228" d="M62 91.8L33.6 79.2l.4-1 28.4 12.6z"/><path fill="#968e84" d="M91.8 124.1l37.8-5.8-42-7 15.9-8.3z"/><ellipse cx="235" cy="5" fill="#2e170d" rx="30" ry="1"/><path fill="#392621" d="M101.5 49.1l36.8 5.5-22.5 4.3 2.5 9z"/><path fill="#899782" d="M5 93l-19 15 8-39z"/><path fill="#956a43" d="M180.4 74.7l14.2 6.1 5.3-4.4L115.5 55z"/><path fill="#362a24" d="M63.6 64.3l5.1-8 8.7-3.6 8.7 1.5z"/><path fill="#a19486" d="M97 50.3L65.5 74.9 63 71.7l31.5-24.6z"/><path fill="#463b2f" d="M64.8 127.8l121.1 7.1-122.6-21.2L53 126.4z"/><path fill="#9c9a94" d="M55 108l-26 22 10-32z"/><path fill="#ced2db" d="M92.3 44.2L130.7 25l-26.6-3.9-36.3 6z"/><path fill="#7f6e59" d="M227.8 107l12-9.4-26.5-15.1 31.2 44.8z"/><path fill="#ac854c" d="M140.3 55.6l-37.5-11.9 70.3 12.8 31.6 11.1z"/><path fill="#1f1a1b" d="M49.3 30.3L41 58.7l2-7-4-15z"/><path fill="#6f7771" d="M205 11h11v55h-11z"/><path fill="#474743" d="M254 76h2v50h-2z"/><path fill="#615b56" d="M155.5 48.4h-1l4-38.8h1z"/><circle cx="51" cy="44" r="6" fill="#79807f"/></g></g></svg>