<svg xmlns="http://www.w3.org/2000/svg" viewBox="0 0 1800 1200"><defs/><filter id="a"><feGaussianBlur stdDeviation="12"/></filter><rect width="100%" height="100%" fill="#44443b"/><g filter="url(#a)"><g fill-opacity=".5" transform="translate(3.5 3.5) scale(7.03125)"><circle r="1" fill="#fff" transform="matrix(2.43075 -76.27876 217.93465 6.94485 148 0)"/><ellipse cx="139" cy="18" fill="#b1c6e7" rx="153" ry="51"/><ellipse cx="121" cy="163" fill="#4167a5" rx="255" ry="18"/><ellipse cx="121" cy="67" fill="#c0cad8" rx="37" ry="15"/><circle r="1" fill="#304754" transform="matrix(-51.38594 -.50557 .1437 -14.6051 193.5 81.6)"/><circle r="1" fill="#3e6da9" transform="rotate(143 42.4 35) scale(27.28093 12.63377)"/><circle r="1" fill="#f0efee" transform="matrix(-8.47136 -12.18869 27.26743 -18.95136 137.3 37)"/><circle r="1" fill="#475146" transform="matrix(59.70891 11.44395 -3.64631 19.02467 40.6 77)"/><circle r="1" fill="#e6e1dd" transform="matrix(3.26294 -12.61685 78.81124 20.38197 22.8 4.6)"/><ellipse cx="1" cy="37" fill="#b8bac2" rx="26" ry="24"/><circle r="1" fill="#93a7c0" transform="matrix(-68.87226 -27.04494 9.75318 -24.8373 244.7 44.5)"/><path fill="#5b604f" d="M77.6 125l28.9-46.5 11.5-6.3 100.5 56.3z"/><circle cx="179" cy="90" r="26" fill="#404e4d"/><path fill="#6487b3" d="M159.3 11.8l31.6 26 23.9 5.7 10.7-13.7z"/><path fill="#a3acbb" d="M131 37h14v46h-14z"/><ellipse cx="56" cy="142" fill="#1a1b16" rx="255" ry="4"/><circle r="1" fill="#919aa7" transform="rotate(-105 39.6 2.2) scale(9.78476 61.13613)"/><path fill="#b6bdc6" d="M261.2 73.6l-82.7-7.3 2.3-25.9 82.7 7.3z"/><path fill="#d8dadd" d="M95 51h14v28H95z"/><circle cx="41" cy="104" r="45" fill="#4c4a33"/><path fill="#333e3d" d="M200 70h34v50h-34z"/><circle cx="108" cy="34" r="10" fill="#3b6daa"/><path fill="#f1f3f2" d="M129 34l22-22 31 19z"/><circle r="1" fill="#929db1" transform="matrix(-5.938 16.49342 -39.99853 -14.40036 110.4 0)"/><circle cx="136" cy="61" r="19" fill="#b2b8c1"/><path fill="#9eafc6" d="M69.2 43.7L110.9 63l-8 17.2L61 61z"/><path fill="#4e5b5b" d="M116 77l14 32 59-19z"/><path fill="#536580" d="M116 145h50v25h-50z"/><circle r="1" fill="#5d5840" transform="rotate(92.5 -35.5 65.7) scale(16.98271 31.50865)"/><path fill="#6d6048" d="M271 108l-17 19-57-3z"/><path fill="#324864" d="M206.3 146.4l-43 20.3 84.5 5.9 20.4-27.7z"/><path fill="#a8b1bd" d="M140 67l32-54-13 60z"/><path fill="#c4bda7" d="M248 99l23 13v-12z"/><path fill="#c5c9cf" d="M214.3 17l-16.7-33-5.4 31.7 7.7 13.9z"/><path fill="#32351a" d="M53 145l-3-26 98 19z"/><circle r="1" fill="#638aba" transform="matrix(-3.20968 -3.92475 20.14197 -16.47219 91.3 49.7)"/><circle r="1" fill="#555239" transform="rotate(-165 67.7 50.5) scale(86.35617 13.0282)"/><ellipse cx="237" cy="134" fill="#332d22" rx="43" ry="7"/><circle cx="23" cy="70" r="15" fill="#353f42"/><path fill="#342d22" d="M53 145l-69-41 7 37z"/><path fill="#9aa1aa" d="M28 37h38v22H28z"/><ellipse cx="242" cy="87" fill="#445250" rx="25" ry="15"/><path fill="#43493e" d="M84.3 70.9L44.5 58.1-16 72.4l150.8 47.3z"/><path fill="#dfe0e3" d="M121.1 19.4l13 1.4-3.2 29.8-13-1.4z"/><path fill="#1f2826" d="M246 103l-14 16-34 2z"/><path fill="#d1d3d5" d="M95.1 52.4l1.6 1.1 3.7 26.5L129 31.8z"/><circle r="1" fill="#415464" transform="matrix(-1.70886 6.46777 -19.39772 -5.1251 123.2 85.7)"/><ellipse cx="16" cy="155" fill="#4c5b76" rx="103" ry="10"/><circle r="1" fill="#d0d2d4" transform="matrix(-20.2319 -3.0396 4.47087 -29.75865 5 0)"/><path fill="#6f6a59" d="M142 119h58v6h-58z"/><path fill="#9aa5b3" d="M130.5 50.7l38.3 18.2 52.4-53-84.4 56.5z"/><path fill="#455258" d="M181.9 65.1l30.9 9.1-74.6 27.9 25.4-33.5z"/><circle r="1" fill="#7695bc" transform="rotate(138.1 104.4 54.8) scale(22.53416 6.76958)"/><path fill="#d6d7d9" d="M25-16l70 40-31 6z"/><path fill="#b1b3b8" d="M34.8 48.2L9.9 31.5 27.2 5.8l24.9 16.7z"/><circle cx="251" cy="20" r="5" fill="#5d81ad"/><path fill="#929cac" d="M37.5 53.8L-9.8 62l-1.7-9.9L35.8 44z"/><path fill="#ced4db" d="M130 66l12 13-6 2z"/><circle r="1" fill="#5c563e" transform="matrix(-26.59585 7.11238 -4.5115 -16.8702 118.8 115.7)"/><path fill="#c6c9cc" d="M220.3 60.7l5.2-20.3L190 50.6l15.1 6.1z"/><ellipse cx="175" cy="147" fill="#596981" rx="91" ry="2"/><path fill="#ac9a81" d="M54 111l-1-7-5 5z"/><ellipse cx="171" cy="111" fill="#3a4338" rx="20" ry="10"/><path fill="#babec3" d="M106 77.9L86 75l23.7-21.7 29.8 10.5z"/><path fill="#404f59" d="M271 80.7l-128.1-4.9 79-4.8 13.4.1z"/><path fill="#f2f1ef" d="M157 18v30l-20-21z"/><circle r="1" fill="#b8c0ca" transform="rotate(98.6 69.3 117.4) scale(1.67189 18.05565)"/><path fill="#708cb3" d="M165.9 20.5L190 32.7l2.6-2.7-15.3-21.8z"/><path fill="#a3aeb9" d="M221.4 28.6l44.4-6.9-9 51.9-25.9-2.7z"/><path fill="#bcc0c7" d="M144 57.6l-6.5-13.5 40.4-19.7 6.6 13.5z"/><path fill="#8b744b" d="M233.7 117.2l15.6-3.3 1 4.9-15.6 3.3z"/><circle r="1" fill="#aab1ba" transform="rotate(131.9 73.3 65.4) scale(27.24726 6.02736)"/><path fill="#4779b1" d="M206 33h11v8h-11z"/><path fill="#bcc5d4" d="M51 60h7v2h-7z"/><path fill="#5e6c83" d="M3 152h40v7H3z"/><ellipse cx="233" cy="150" fill="#263b55" rx="68" ry="3"/><path fill="#3f4129" d="M82.2 108.8l99.5 30.3-20.1 1-56.2-19.1z"/><path fill="#4c5551" d="M151.6 72.4l42.2 56-62-49.4-13.7 24.4z"/><circle r="1" fill="#65604a" transform="rotate(-100.8 150.5 -17.6) scale(5.00896 19.5999)"/><path fill="#344763" d="M88 163h61v5H88z"/><path fill="#6a7c97" d="M137.4 168.5l106.3 8.7-134.8 7.8 15.5-20.1z"/><path fill="#aca196" d="M29.6 100.2l3.8-1.3 1 2.9-3.8 1.3z"/><path fill="#192317" d="M44 109l-6-3 13-5z"/><path fill="#aabad1" d="M95.5-16L208.8-2.1l-63.2 15.7 21.5 4.4z"/><path fill="#a7aebb" d="M93 31.7l18.7-12.6-10.1-4L70 33.7z"/><path fill="#d9dade" d="M36 13.7l7.1-28.1 37.4 37.9 10.9-11.6z"/><ellipse cx="132" cy="70" fill="#b2bac5" rx="11" ry="10"/><path fill="#999694" d="M99 111h11v2H99z"/><path fill="#1d1f12" d="M3 104h10v4H3z"/><path fill="#4d75a8" d="M118 33l-18-3 18-15z"/><path fill="#acb0b7" d="M51 17l33 16-88-1z"/><path fill="#3c4440" d="M61.2 76.9L25.4 55.6-16 65.9l9.5 23.5z"/><path fill="#5b5530" d="M46.2 139.9l21.2-7 26 3.8-27.1 1.3z"/><circle cx="118" cy="76" r="4" fill="#3b5162"/><ellipse cx="29" cy="168" fill="#3c4a60" rx="34" ry="8"/><ellipse cx="81" cy="150" fill="#384a66" rx="58" ry="3"/><path fill="#96a6bc" d="M177.2 5.6l-88.4 15 65.4-5.4 57 12.2z"/><path fill="#2d322c" d="M229.9 101.2L207.8 124l53.6-15-12.2-2.2z"/><path fill="#11181a" d="M43 143h76v2H43z"/><circle r="1" fill="#a0abbc" transform="rotate(39.1 -39.2 127.2) scale(5.65951 13.93783)"/></g></g></svg>