<svg xmlns="http://www.w3.org/2000/svg" viewBox="0 0 1800 1200"><defs/><filter id="a"><feGaussianBlur stdDeviation="12"/></filter><rect width="100%" height="100%" fill="#2e3444"/><g filter="url(#a)"><g fill-opacity=".5" transform="translate(3.5 3.5) scale(7.03125)"><circle r="1" fill="#fff" transform="matrix(253.4189 20.31056 -5.7693 71.9846 74.4 19.8)"/><circle r="1" fill="#effcff" transform="matrix(-5.06187 -48.1605 150.5741 -15.82598 114.4 14.6)"/><circle r="1" fill="#5c7490" transform="matrix(254.45976 -16.59 3.4509 52.9305 141.8 125.7)"/><path fill="#7b818c" d="M222 169L24 185l86-65z"/><circle r="1" fill="#3a6497" transform="matrix(62.72592 -24.32978 9.83632 25.35954 245.5 77.4)"/><circle r="1" fill="#a2b6ce" transform="matrix(3.43857 19.50108 -170.56612 30.0754 142.6 54.7)"/><circle r="1" fill="#3c5f8f" transform="matrix(120.08259 -1.25755 .1286 12.28019 65.4 93.5)"/><circle r="1" fill="#3b4148" transform="rotate(106.6 61.7 153.1) scale(23.62088 102.51941)"/><circle r="1" fill="#2d323a" transform="rotate(76.8 -81.6 64.7) scale(21.51328 60.38666)"/><circle r="1" fill="#d9dde7" transform="matrix(-5.48766 -34.86085 108.91141 -17.14442 127 0)"/><ellipse cx="112" cy="66" fill="#adb9ca" rx="70" ry="17"/><circle r="1" fill="#758fb0" transform="matrix(5.88307 14.53398 -52.40593 21.2129 207.4 64.8)"/><path fill="#848ea4" d="M124.5 156.6l-23.1-19.2-.1-5.2L55 165.9z"/><path fill="#3e454e" d="M52 113h204v18H52z"/><ellipse cx="28" cy="65" fill="#a8b3c3" rx="72" ry="14"/><circle r="1" fill="#495261" transform="rotate(45.8 -134.7 239.6) scale(18.24534 29.93985)"/><path fill="#c9ced6" d="M60 31h115v26H60z"/><path fill="#1f2428" d="M178 156h28v4h-28z"/><path fill="#383f44" d="M226.1 158.5L213 133.1l58 36.6-72.4 12.4z"/><circle r="1" fill="#a7b4c4" transform="matrix(47.16744 .59961 -.18878 14.85 207.1 29.7)"/><path fill="#656e7d" d="M193 168l-79-43 62 10z"/><circle r="1" fill="#565c67" transform="matrix(-47.21354 18.01643 -5.05518 -13.2475 57.3 141.7)"/><circle r="1" fill="#37577d" transform="matrix(2.0112 14.25877 -67.6887 9.5475 244.7 96.4)"/><path fill="#7a8798" d="M221 159l-56 8 40 6z"/><path fill="#3f5c82" d="M24 89h115v19H24z"/><path fill="#7086a4" d="M164.6 88.7l49.9 8.3-5.7-46.9 38.7-.3z"/><path fill="#8191a9" d="M14.2 82.3l35.6-2.2L-16 98.2l12.8-23.3z"/><path fill="#38414f" d="M118.2 185l-54.8-43.2 15-5.9 6.2 36.6z"/><path fill="#848fa3" d="M73.7 152.4l-4 20.4 5.9 3.6-17.1-27.1z"/><ellipse cx="191" cy="140" fill="#02080a" rx="6" ry="3"/><circle r="1" fill="#243b5b" transform="matrix(.42009 -5.3275 24.7332 1.95028 132.3 109.6)"/><path fill="#6c7584" d="M207.7 150.3l-63.5 4.5 48-6.6 24.9-7.4z"/><path fill="#383c42" d="M0 164h58v4H0z"/><path fill="#a9b6c5" d="M152 47h44v17h-44z"/><path fill="#2d3540" d="M0 113h128v5H0z"/><ellipse cx="234" cy="4" fill="#dbdfe4" rx="116" ry="6"/><ellipse cx="209" cy="134" fill="#545e69" rx="44" ry="4"/><circle r="1" fill="#4d698e" transform="matrix(-27.4848 17.84884 -6.66882 -10.26908 243.8 73)"/><path fill="#909cb3" d="M104.5 148.5l4.6 5.2-13.6 11.8-4.6-5.2z"/><ellipse cx="157" cy="121" fill="#525d6d" rx="19" ry="5"/><path fill="#99a9bd" d="M182 38l24 13 61-32z"/><circle cx="4" cy="130" r="27" fill="#363e49"/><circle r="1" fill="#c8cedb" transform="matrix(40.8289 15.42795 -9.42646 24.9464 3.5 16.8)"/><path fill="#7f8b9f" d="M84.2 142.1l28.6-5.1-27.2-4.4 20.8 16z"/><path fill="#4d688d" d="M143.9 88.6l-41.5-8.1 71 24.4 54.4-10.8z"/><path fill="#525c69" d="M252.4 184.2l-26-20.7 32 2.7 11.1-1.5z"/><ellipse cx="92" cy="82" fill="#7a8daa" rx="95" ry="2"/><ellipse cx="135" cy="169" fill="#717c8d" rx="24" ry="4"/><path fill="#3f4853" d="M163.2 163.5l-3.2 6.2-21.2-11.2 3.2-6.2z"/><path fill="#305074" d="M185 99h71v14h-71z"/><path fill="#11181e" d="M199 126h31v2h-31z"/><circle r="1" fill="#b2bdcd" transform="rotate(81.9 -25.1 34) scale(9.28735 51.71505)"/><path fill="#bec8da" d="M63 153h11v2H63z"/><ellipse cx="212" cy="162" fill="#a5acbb" rx="5" ry="2"/><path fill="#282f37" d="M229 152h27v9h-27z"/><path fill="#94a3b8" d="M187.9 91.3l-54.6-64.6 45.3 53.4 30.4 9.4z"/><ellipse cx="28" cy="109" fill="#344766" rx="58" ry="4"/><ellipse cx="192" cy="166" fill="#3c4758" rx="9" ry="2"/><circle r="1" fill="#4b5464" transform="matrix(.182 2.81454 -19.20883 1.24218 116.3 161.5)"/><path fill="#121923" d="M80 167h8v3h-8z"/><path fill="#3c434f" d="M39.3 146l44.3-3.2-54.5 9.5 10.7 19.9z"/><path fill="#5b708f" d="M27.8 86.4l53.8-4.7.6 6-53.8 4.6z"/><circle r="1" fill="#c3ccd5" transform="rotate(-112.8 95.2 -44.7) scale(9.94338 31.60559)"/><path fill="#486287" d="M137 106l13-13-64-7z"/><path fill="#838ea1" d="M144.4 152.4l.1 1-43 2.2v-1z"/><circle r="1" fill="#bac5d2" transform="rotate(-175.1 12 13) scale(25.09975 9.231)"/><path fill="#48515b" d="M159 144h55v4h-55z"/><ellipse cx="87" cy="66" fill="#99a8bb" rx="28" ry="6"/><circle r="1" fill="#2c3843" transform="matrix(.5201 -3.78806 21.627 2.96934 255 117.2)"/><path fill="#597395" d="M210.2 97.3l-1-7.8-28.7-8.7 53.1-10z"/><path fill="#626c7e" d="M94.9 185l-27-5.2 29.3-25.2-36.3-10z"/><path fill="#5b6476" d="M72.7 185l-38.3-50.7 26.4-.2L35.7 150z"/><path fill="#4b5667" d="M39 122h81v11H39z"/><ellipse cx="65" cy="145" fill="#1d252e" rx="17" ry="1"/><path fill="#707a8c" d="M141 132l10 15 21-5z"/><path fill="#586070" d="M10.6 164.6l-5.3-15.8 17.1 7.6 19.3 5.7z"/><path fill="#8498b3" d="M149.9 84l12-18.4 71.9-4-68.2 19.7z"/><path fill="#456085" d="M97.5 89.4l42.2 5.1-43.8 17.8-30.5-4.5z"/><path fill="#353e57" d="M136.3 96.2l54.9 26.3-2.9-2.1-9.8-14.9z"/><path fill="#acb7c5" d="M92.5 71.1l-24-18.7 19.4 32.2 15.1-.8z"/><path fill="#3d424b" d="M34.1 185l-46.4-31.7 31.9 15 15.7-7.6z"/><ellipse cx="223" cy="169" fill="#30363c" rx="10" ry="4"/><path fill="#242a31" d="M203 151h30v3h-30z"/><circle r="1" fill="#d5d9df" transform="matrix(120.41159 18.87586 -.99173 6.3264 40.5 11.2)"/><path fill="#365275" d="M105.1 86.9l-33.9 4-85.5 11.6 101.4-6.3z"/><path fill="#99a5bd" d="M59 168l5-12-5 6z"/><path fill="#95a0b1" d="M73.5 155.2l.5-2 12.5 3.6-.5 2z"/><circle r="1" fill="#2b333f" transform="rotate(-104.4 73.6 68.6) scale(1 10.36578)"/><path fill="#adb8c7" d="M161.7 83.3l-60.5-31.6 12.3 24.6 41.8-9.8z"/><path fill="#b8c3d0" d="M195 13h61v11h-61z"/><path fill="#505a67" d="M213 156h43v2h-43z"/><path fill="#aab5c3" d="M84 76.5l-55.8 6.2 15.7-27.5-54 1.2z"/><ellipse cx="125" cy="132" fill="#586274" rx="19" ry="6"/><path fill="#63799b" d="M115 82h43v8h-43z"/><circle r="1" fill="#203753" transform="matrix(16.92904 -.97612 .16825 2.918 3.3 107.5)"/><ellipse cx="172" cy="137" fill="#49525e" rx="8" ry="11"/><path fill="#262d38" d="M131 146h15v2h-15z"/><path fill="#707a8c" d="M131 159l-24-22-10 12z"/><path fill="#9ea8bd" d="M105.2 155.4l-.4 1-16-5.8.4-1z"/><path fill="#717c8d" d="M160 148h30v6h-30z"/></g></g></svg>