<svg xmlns="http://www.w3.org/2000/svg" viewBox="0 0 1200 1800"><defs/><filter id="a"><feGaussianBlur stdDeviation="12"/></filter><rect width="100%" height="100%" fill="#5c5932"/><g filter="url(#a)"><g fill-opacity=".5" transform="translate(3.5 3.5) scale(7.03125)"><circle r="1" fill="#d2d1ec" transform="matrix(-1.11647 134.418 -92.93093 -.77188 85 55.5)"/><circle r="1" fill="#1e1504" transform="matrix(33.71023 2.85148 -3.65834 43.24892 83.5 128.8)"/><circle r="1" fill="#dfe4e1" transform="matrix(103.51954 4.98051 -2.03967 42.39425 79 9.6)"/><circle r="1" fill="#e3e6ed" transform="matrix(12.08182 -.25624 1.33177 62.79366 143.8 105)"/><ellipse cy="146" fill="#27241f" rx="21" ry="117"/><path fill="#1e0e08" d="M144.3 49.2l32.5-9.9 17 55.5-32.6 9.9z"/><path fill="#f0f5f3" d="M55 55l-23 85-26-29z"/><circle r="1" fill="#221b2a" transform="matrix(-1.08142 -25.80198 50.48453 -2.11593 142 197.7)"/><ellipse cx="87" cy="239" fill="#6c6881" rx="132" ry="16"/><path fill="#2d2224" d="M-15 72l25-36 40 25z"/><path fill="#d4dae1" d="M26 58h8v132h-8z"/><path fill="#fff" d="M113.6 55.8l34.9 31.5-8 8.9-35-31.5z"/><path fill="#0a0602" d="M84.4 209.8l26.1 61.2-27.7-18.9-6.3 2.4z"/><path fill="#293310" d="M153 126l32-27-21 128z"/><path fill="#5a4543" d="M50 153h66v19H50z"/><circle r="1" fill="#747467" transform="matrix(.58126 -4.7997 62.16646 7.5286 11.9 14.9)"/><ellipse cx="88" cy="9" fill="#fff" rx="48" ry="5"/><path fill="#261f2e" d="M66.4 225.4l-72 1.2-.8-46 72-1.2z"/><ellipse cx="89" cy="30" fill="#f0f4f4" rx="65" ry="6"/><circle r="1" fill="#deddde" transform="matrix(28.35807 -9.12599 2.4543 7.62649 42.1 70.7)"/><path fill="#8d7b80" d="M108.3 191.9l11.4-7.4-49.6 26.8L82 169.1z"/><path fill="#465d00" d="M21.9 128l-11.1-11.4-23.4 7 41.3 36.9z"/><path fill="#48443f" d="M147 11h23v9h-23z"/><path fill="#d2d9db" d="M185 75.9L88.1 56.4l54.7 32.1-19.4-6.9z"/><circle r="1" fill="#36493d" transform="matrix(3.39348 6.13568 -8.35083 4.61863 130.4 59.7)"/><path fill="#e2eddf" d="M14 117l-30-33v31z"/><ellipse cx="91" cy="44" fill="#fff" rx="54" ry="3"/><path fill="#93958a" d="M129.3 16l-110.6-.8L130 27.9 150-16z"/><path fill="#958d8b" d="M38.3 177.2l15.2 16.5.1-98.7-35 114.2z"/><path fill="#603a1b" d="M21.9 98.9l-12.5 13L-8 95 4.5 82z"/><path fill="#4a1117" d="M37 56h10v12H37z"/><ellipse cx="124" cy="48" fill="#6b6a5d" rx="93" ry="2"/><path fill="#787476" d="M115 242.6l-1.7-19 71.7-6.2 1.7 19z"/><ellipse cx="147" cy="112" fill="#dadee1" rx="14" ry="19"/><ellipse cx="92" cy="39" fill="#4d4837" rx="52" ry="1"/><circle r="1" fill="#211a1d" transform="rotate(-8.6 1238.4 26) scale(13.29514 43.27532)"/><path fill="#a39a9a" d="M115 144h39v26h-39z"/><path fill="#6e6360" d="M139 174l-75-17 14-25z"/><ellipse cx="9" cy="37" fill="#90928a" rx="27" ry="6"/><path fill="#b5b3bc" d="M74.7 75.1l17.7-2.4-18.7 17-89.7 33.8z"/><path fill="#85817c" d="M72.2 271l14-78.1-11-60.8-.7 108.7z"/><path fill="#242229" d="M182 79.8l-35.6-22.3 9.6-15.3 35.6 22.3z"/><path fill="#776c6e" d="M153 201l-12 6 6-45z"/><path fill="#644d2a" d="M38 139l-2 15 23-23z"/><ellipse cx="59" cy="51" fill="#dae1df" rx="35" ry="2"/><circle r="1" fill="#3d3a2d" transform="matrix(24.79786 3.3306 -2.06503 15.37504 86.5 105)"/><ellipse cx="84" cy="165" fill="#442e33" rx="32" ry="5"/><path fill="#070414" d="M116 253h54v3h-54z"/><path fill="#978c83" d="M57.1 215.7L138 145l-62.4 61.8-33.2-9.3z"/><path fill="#d5dad7" d="M121.5 58.4l-46.1.1-57.1 42.3 5.1-31.6z"/><path fill="#676667" d="M143.9 36.7l.3-5 50 3.6-.4 5z"/><path fill="#341e17" d="M80.8 172.7l10.3 6.8-4.1 2.1-8.8-.8z"/><path fill="#888387" d="M38.8 92.5l-1.3 22.8 6.3-.2 5.6-35z"/><path fill="#8c8f80" d="M15.7 69.8l6 13.7-37.4 16.7-6-13.7z"/><path fill="#656359" d="M0 10h26v10H0z"/><circle r="1" fill="#505328" transform="rotate(98.3 20.7 140.2) scale(26.43429 9.64522)"/><path fill="#a4a6ac" d="M24.3 128.1l19.6 55.6-20.2-16.2-1.9 7.5z"/><path fill="#7e5126" d="M136 137l-9 8 10 10z"/><ellipse cx="81" cy="4" fill="#8a887b" rx="63" ry="2"/><path fill="#e0e4e5" d="M41 23L19.2-7.6-16 26.5v-39.7z"/><path fill="#141e0f" d="M185 215l-88 7 50-18z"/><path fill="#706c63" d="M-42.5 267.5l-1.9-37 116.9-6 1.9 37z"/><path fill="#342630" d="M51 185h22v19H51z"/><path fill="#9a9d9f" d="M103 250l-11-30 11 3z"/><path fill="#b9babe" d="M115 134h11v33h-11z"/><path fill="#c6c6c3" d="M92 171h24v8H92z"/><ellipse cx="93" cy="55" fill="#6c6b61" rx="66" ry="3"/><ellipse cx="92" cy="8" fill="#eaeeeb" rx="66" ry="4"/><path fill="#fff" d="M78 74h8v5h-8z"/><path fill="#d2d5d7" d="M128.4 93.6l56.6 21.2-43.5-.2-21.2-62z"/><path fill="#645e68" d="M74 74l28-9-18-6z"/><path fill="#706a65" d="M26 168l-6 43 12-1z"/><path fill="#e1e6e8" d="M29 32l-58-1v-9l58 1z"/><path fill="#594340" d="M132.7 208.1l-42.3-29.3-20.6 2.8 61.6-4.2z"/><ellipse cx="31" cy="145" fill="#c4c7c6" rx="4" ry="46"/><path fill="#703728" d="M154 81l31 23-31-10z"/><path fill="#1b1519" d="M122.3 191.4l62.7.6-30.4-18.1-12 28.8z"/><path fill="#a69fae" d="M61.1 73.3l59.6 15.1 17.9 45.4-34.5-40.5z"/><path fill="#2f261d" d="M0 49h24v11H0z"/><path fill="#b6b9b6" d="M134.2 57.9l12-16 5.6 4.2-12 16z"/><circle r="1" fill="#36342a" transform="matrix(-6.23423 13.186 -9.9105 -4.6856 13.2 153)"/><ellipse cx="87" cy="1" fill="#fff" rx="38" ry="1"/><path fill="#59493c" d="M47 67l-17-4-9-20z"/><path fill="#aca7a2" d="M62.6 181.6l-17.3 1.2 12.8-10.5 34.2 26z"/><path fill="#caccc9" d="M22 82h14v65H22z"/><ellipse cx="118" cy="50" fill="#cdcfd0" rx="29" ry="2"/><path fill="#382c1f" d="M52.9 169.1l5.4-23.4L63 147l-5.4 23.4z"/><path fill="#4b473e" d="M18.8 244.7l24.2-8.5-11.8 25.7-34.4-17.7z"/><path fill="#516008" d="M29.1 157.5L-16 111l.8 3.7 30.2 3.6z"/><path fill="#525042" d="M115 11h4v7h-4z"/><ellipse cx="81" cy="21" fill="#a4a49d" rx="90" ry="5"/><path fill="#25190b" d="M142.5 228.6v5l-11-.2v-5z"/><path fill="#d8dadc" d="M143 120l-19-49 29-5z"/><path fill="#dfe2e4" d="M143 26.2L157.5-16l-20.2 29.6 26.5 18.2z"/><path fill="#7a7d7d" d="M112 234h51v11h-51z"/><circle r="1" fill="#7c7d76" transform="matrix(-5.31777 -3.78734 7.01317 -9.84715 160.2 80.1)"/><path fill="#333a26" d="M87 198h33v25H87z"/><ellipse cx="87" cy="33" fill="#eaedeb" rx="61" ry="3"/><path fill="#dde0e0" d="M81 56.4l-45 14-6.3 50.3 17.6-44.4z"/><path fill="#a7a4a9" d="M35.9 108l19.2 37.5-6.6-37.5 43-35.2z"/></g></g></svg>