<svg xmlns="http://www.w3.org/2000/svg" viewBox="0 0 1800 1200"><defs/><filter id="a"><feGaussianBlur stdDeviation="12"/></filter><rect width="100%" height="100%" fill="#46433b"/><g filter="url(#a)"><g fill-opacity=".5" transform="translate(3.5 3.5) scale(7.03125)"><circle r="1" fill="#fff" transform="matrix(71.22796 -29.60352 27.19852 65.44136 128.5 6)"/><circle r="1" fill="#e7ffff" transform="matrix(45.12308 -65.04539 20.2326 14.0357 5.6 32)"/><ellipse cx="126" cy="14" fill="#ecffff" rx="68" ry="37"/><path fill="#748084" d="M78.7 205.5l-5.3-154 143.9-5 5.3 154z"/><circle r="1" fill="#cce9ff" transform="rotate(108.3 -2.7 9.2) scale(46.85313 22.90717)"/><circle r="1" fill="#827c7e" transform="rotate(53.9 -111 148.2) scale(20.44083 69.45473)"/><circle r="1" fill="#807c6b" transform="rotate(-67.1 237.6 -112.8) scale(26.99505 44.122)"/><circle r="1" fill="#486160" transform="matrix(-18.5056 12.3866 -15.29362 -22.84871 46 34.1)"/><circle r="1" fill="#c9e4ff" transform="matrix(6.00766 32.13653 -51.24854 9.58049 115.5 18)"/><circle r="1" fill="#182c1f" transform="rotate(33 -151.1 136.6) scale(40.23991 28.3833)"/><ellipse cx="137" cy="66" fill="#597788" rx="73" ry="17"/><circle r="1" fill="#1e2a21" transform="rotate(19.5 -23.6 724.5) scale(20.85643 71.11377)"/><path fill="#828784" d="M159 144h-57L66 43z"/><path fill="#566746" d="M191.8 79.1l-13.2-4.5 31.6-91.7 13.2 4.5z"/><path fill="#cde6ff" d="M186.3 44.2L151.5 35l14.2-53.1L200.5-9z"/><path fill="#382f37" d="M87 151h88v19H87z"/><circle r="1" fill="#384629" transform="rotate(-54.3 150.2 -85.9) scale(22.76781 13.77844)"/><path fill="#202b01" d="M194 85l5 45-17-8z"/><circle r="1" fill="#747867" transform="rotate(-154 30.9 68.6) scale(83.91921 8.84414)"/><circle r="1" fill="#5c7973" transform="matrix(-8.07142 25.69686 -15.19115 -4.77156 0 81)"/><path fill="#798791" d="M156 46h25v55h-25z"/><path fill="#aba5ab" d="M195.3 82l2.5-29 11 1-2.6 29z"/><path fill="#54635d" d="M77 59L36-5l-6 35z"/><path fill="#918170" d="M119 137l76 2-16-28z"/><path fill="#b4cbe9" d="M51 0h147v9H51z"/><path fill="#6584a3" d="M81 50h34v41H81z"/><circle r="1" fill="#4b5d43" transform="matrix(-10.93782 -28.49399 20.27284 -7.78201 218 29.8)"/><path fill="#cae0f7" d="M93 47l-20 4-3-67z"/><path fill="#bbcef7" d="M30.7-3.8l.6 31-36 .6-.6-31z"/><circle r="1" fill="#2e4334" transform="matrix(24.33263 11.55398 -9.00502 18.96453 49.9 62.3)"/><ellipse cx="43" cy="3" fill="#aab5ce" rx="3" ry="24"/><path fill="#cee0f1" d="M131 50.4l65.8-9-16.1-29.3L26.9-14.1z"/><path fill="#b2c9f5" d="M-.8 55.2l15.2-.3h8.3l-18.6-31z"/><path fill="#4a6d91" d="M157 48l46-10-55 32z"/><ellipse cx="124" cy="155" fill="#11131f" rx="44" ry="2"/><path fill="#342f28" d="M135 115h20v11h-20z"/><path fill="#797767" d="M236.6 149.6l-25-26 15.8-15.2 25 26z"/><path fill="#777278" d="M160 151l-43 13h39z"/><path fill="#344535" d="M12 55h23v76H12z"/><path fill="#908b7d" d="M166.9 84L147 92l-18.5 28.4 22.3-16.5z"/><path fill="#1d2322" d="M235 0h21v78h-21z"/><path fill="#7a7c80" d="M211.9 84.1l-2.5 28.7-9.8-2.3-5.2-83.8z"/><path fill="#b6b0bc" d="M157 165h30v2h-30z"/><path fill="#42442b" d="M197 51.1l-3.5-10.5-11.3 25.8 6.4 25.5z"/><path fill="#2e3723" d="M18 185l-34-36 60 16z"/><ellipse cx="219" cy="51" fill="#5b664b" rx="4" ry="52"/><path fill="#686456" d="M108.2 132.1l32.9-3.9L104 84.3l19.3 66.2z"/><path fill="#b7c0db" d="M101 113l12 4-25-1z"/><path fill="#566c53" d="M18 55l14 28-4-48z"/><path fill="#afc2dd" d="M51 30l10-46 8 13z"/><path fill="#a39494" d="M78 160.3l-20.4 2.8 1.8 1.9 20.3 6z"/><ellipse cx="150" cy="16" fill="#eef6f8" rx="31" ry="6"/><circle r="1" fill="#798975" transform="matrix(-20.52728 18.03116 -2.60158 -2.96172 212.8 0)"/><path fill="#3f4b4e" d="M33-8l2 40 8-37z"/><path fill="#58554c" d="M180 145h76v21h-76z"/><path fill="#686864" d="M23 144h69v16H23z"/><circle r="1" fill="#4c5943" transform="matrix(24.84784 -8.21764 1.9313 5.83973 144 87)"/><ellipse cx="140" cy="131" fill="#a59da4" rx="19" ry="3"/><path fill="#6e7e5d" d="M78 96l24 14 45-53z"/><ellipse cx="167" cy="152" fill="#22212c" rx="37" ry="2"/><path fill="#8e9293" d="M196.6 63.4l1.4-13.3 18.8 8.8L193 87z"/><path fill="#4f4c3d" d="M271 74.2l-48.3 55 48.3-1.8-26.9 57.6z"/><ellipse cx="57" cy="101" fill="#252e27" rx="23" ry="29"/><path fill="#575d3c" d="M180.8 136.8l-2.5-35.7 40.9-41.6-29.9 45.9z"/><path fill="#6581a7" d="M76 51h51v22H76z"/><path fill="#6f7e80" d="M5.4 103.2l-12.6 14.2 23.3-52.8L-10.1 47z"/><path fill="#786e60" d="M196.5 117.1l62.3 22.6-83 10.9 45.4-45.8z"/><path fill="#b8cce0" d="M115 4.7L253.6-16 193.8 6.6 94.3 18.2z"/><circle r="1" fill="#8b8597" transform="matrix(-5.25077 -.79232 .30302 -2.00813 72.2 129.2)"/><path fill="#5e6c67" d="M48.4 24.8l20.7 40.3-.9-16.6L44.7-16z"/><path fill="#343f31" d="M49.5 95.7l23.8-37.4 10.1 57 2.8 24.9z"/><path fill="#8c958c" d="M172 81l15-19-39 11z"/><path fill="#3a3a29" d="M186 126l10 14 3-41z"/><path fill="#323b2f" d="M3 129l48-2-38-54z"/><path fill="#ddecfa" d="M133.1 48.3l-35.9-3.7 41.8 6.2 44-10.4z"/><ellipse cx="131" cy="144" fill="#756b6d" rx="24" ry="9"/><path fill="#272c20" d="M214.7 119.4l8.8-16.8 3 17.2-3 3.2z"/><path fill="#333d36" d="M146.2 101.7l-17.8 4.2-20-6.9 27.6-5.2z"/><path fill="#8c8594" d="M88 137l37-13-33-7z"/><path fill="#556333" d="M44 124h8v32h-8z"/><circle r="1" fill="#5c594b" transform="rotate(-102.4 126.6 -17.4) scale(26.58477 2.58652)"/><path fill="#bed2e8" d="M72 25h28v25H72z"/><ellipse cx="218" cy="40" fill="#475037" rx="31" ry="3"/><circle r="1" fill="#3e4136" transform="rotate(-16.4 423.5 -706.9) scale(5.27274 29.02768)"/><circle r="1" fill="#6a655a" transform="matrix(-6.72583 -33.65949 19.11069 -3.8187 209.4 159.3)"/><circle r="1" fill="#353d33" transform="matrix(-1.86005 37.26576 -10.74431 -.53628 234.8 32)"/><path fill="#7a7f90" d="M227 123l-1-17 8 11z"/><path fill="#787873" d="M142 122h27v9h-27z"/><path fill="#44503a" d="M104.5 105.4l-29.1 9.3-1-40.6-17.6 21.4z"/><path fill="#b0b2be" d="M201 101l1 5 7-3z"/><path fill="#85817a" d="M177.5 102.2l-22.9-15.1-23 27 56.8-25.6z"/><path fill="#17171b" d="M176.5 149.8l.3 1-37.3 11.4-.3-1z"/><path fill="#8c9789" d="M104 93l-3-14 22-8z"/><path fill="#3c3842" d="M80.3 157.8l.4-10 11 .4-.4 10z"/><path fill="#757075" d="M80 161h74v3H80z"/><path fill="#34423a" d="M37.5 80.4l30.7-4.9-39.7-30L19.3 29z"/><ellipse cx="236" cy="135" fill="#8c897c" rx="16" ry="4"/><ellipse cx="77" cy="150" fill="#76717a" rx="27" ry="4"/><circle r="1" fill="#e7e1cf" transform="matrix(.20463 .97884 -3.2105 .67117 85.8 90.2)"/><path fill="#55625d" d="M68 71.8l2-46.1L63.1 53 35-1z"/></g></g></svg>