<svg xmlns="http://www.w3.org/2000/svg" viewBox="0 0 1800 1200"><defs/><filter id="a"><feGaussianBlur stdDeviation="12"/></filter><rect width="100%" height="100%" fill="#53372c"/><g filter="url(#a)"><g fill-opacity=".5" transform="translate(3.5 3.5) scale(7.03125)"><circle r="1" fill="#b0ac90" transform="matrix(24.75841 -248.0473 131.97017 13.17237 148.2 38.4)"/><ellipse cx="39" cy="27" fill="#ddcba3" rx="27" ry="64"/><ellipse cx="114" cy="7" fill="#c1ae9d" rx="102" ry="31"/><ellipse cx="235" cy="9" fill="#393d2d" rx="27" ry="94"/><circle r="1" fill="#563822" transform="rotate(36.4 -129 149.4) scale(28.38801 55.58386)"/><path fill="#49352c" d="M202 185l-92-18 35-106z"/><path fill="#000408" d="M206.4 125.8L230.9 98l11.9-11.2-33.1-17.2z"/><path fill="#fffadd" d="M228 29h28v12h-28z"/><path fill="#d4cfc3" d="M78 117l-21 16 6-49z"/><ellipse cy="72" fill="#001436" rx="16" ry="80"/><circle r="1" fill="#f4e8cc" transform="matrix(.03412 3.91016 -21.48561 .1875 235.9 74)"/><path fill="#b1a47e" d="M13-2.6l6.1 147.7-35.1.5 47.4 39.3z"/><path fill="#bcac96" d="M204 119l59 44-119-29z"/><ellipse cx="203" cy="70" fill="#e8ebe2" rx="3" ry="107"/><path fill="#0d0504" d="M209.2 185l61.8-16.2-31.7-6.4-34-11.2z"/><path fill="#bdb3a3" d="M152 61l-44 22L91 8z"/><path fill="#131b1b" d="M191.3 38.9L159 56.1l-31.9-17.2 24.7-2.2z"/><circle r="1" fill="#190b0d" transform="rotate(-161.1 135.7 45) scale(41.86567 7.04526)"/><path fill="#050302" d="M155 100l47 23-74-12z"/><ellipse cx="83" cy="69" fill="#523119" rx="20" ry="33"/><ellipse cx="250" cy="110" fill="#d3b8a6" rx="36" ry="9"/><circle r="1" fill="#a89b8f" transform="matrix(21.85035 -11.56916 15.7803 29.8038 72 168.5)"/><path fill="#1c1615" d="M206 47l65-53-41-10z"/><path fill="#42331f" d="M97 45l5 103-25-21z"/><path fill="#231e16" d="M52.1 94.7l-24.2 62.8 17.3-3.8 18.2-57.5z"/><path fill="#b7a58a" d="M146 56l50 35 25-33z"/><ellipse cx="196" cy="11" fill="#707268" rx="7" ry="255"/><circle r="1" fill="#212d12" transform="matrix(1.9262 -8.67468 30.01164 6.66406 239.6 52.8)"/><circle r="1" fill="#4b4230" transform="matrix(29.9032 -4.68549 .74138 4.73153 113 0)"/><ellipse cx="107" cy="81" fill="#b8a592" rx="6" ry="77"/><circle r="1" fill="#d9cca5" transform="rotate(69 5 233.8) scale(7.09557 16.79973)"/><path d="M129 157l3 27 29-13z"/><path fill="#1d1a16" d="M173 79l16 11-9 10z"/><ellipse cx="247" cy="75" fill="#d2c6ae" rx="29" ry="5"/><circle r="1" fill="#9c7163" transform="matrix(4.60267 -8.53772 27.53631 14.8448 152.7 130.7)"/><ellipse cx="11" cy="112" fill="#001a30" rx="6" ry="33"/><path fill="#d0bbab" d="M84 9h31v26H84z"/><path fill="#021110" d="M2 64h4v106H2z"/><path fill="#af9c7d" d="M60 83l-42 31L14-5z"/><path fill="#29200f" d="M132.3 149.6l24.6 5.1-13.5-22.8-15.7 2.3z"/><ellipse cx="204" cy="28" fill="#fff" rx="1" ry="161"/><path fill="#767064" d="M142 24l22 80-62 2z"/><path fill="#aa724a" d="M44 135l31-7-56-3z"/><path fill="#1b140b" d="M236.7 91.4L212 110.3l10.1-31.2 48.9 2.8z"/><circle cx="83" cy="65" r="11" fill="#9e7059"/><path fill="#949068" d="M219.4 38.9l16.1-19.2L271 32.3l-30-.4z"/><path fill="#c0a489" d="M223.9 118.2l11.8-27 18.5 4.5-14.2 23.5z"/><path fill="#b09f7b" d="M15 42l40-58 29 58z"/><path fill="#11120d" d="M244 120h12v18h-12z"/><path fill="#1a1712" d="M147.8 104.3L194 117l-66-3.8-.3-13z"/><circle r="1" fill="#896347" transform="matrix(-9.88561 6.2736 -8.02597 -12.6469 80.2 102.5)"/><path fill="#190e04" d="M22 125l15 34 3-16z"/><path fill="#80594d" d="M205 121h34v15h-34z"/><path fill="#c1a488" d="M158.2 87.1L156.4 69l-15.5 5.6 47.4.9z"/><path fill="#36322b" d="M195 35l-46 23-1-20z"/><path fill="#dfae9a" d="M127.3 4.3l60.3-9.5 1 6.9-60.2 9.5z"/><path fill="#252018" d="M156.6 80.3l-.3 5-29-1.6.4-5z"/><path fill="#040805" d="M243.8 43.4l21-1.8 1.4 17-21 1.8z"/><ellipse cx="195" cy="148" fill="#524d43" rx="2" ry="196"/><path fill="#93856f" d="M144.8 163.4l-50.4-19.3 2.8-7.5 50.4 19.3z"/><circle r="1" fill="#7c4c2b" transform="rotate(-161.3 25.9 53.7) scale(4.56381 30.52705)"/><circle r="1" fill="#978b70" transform="rotate(3.9 -2361.7 374.7) scale(13.47665 21.21819)"/><path fill="#aa7773" d="M205 29l22-21-16-24z"/><ellipse cx="6" cy="44" fill="#09293e" rx="8" ry="57"/><path fill="#181915" d="M217 82l-13 3 17-22z"/><path fill="#fa9e8e" d="M180 101h10v10h-10z"/><path fill="#3b3c33" d="M102 39h45v4h-45z"/><circle r="1" fill="#4e6a46" transform="matrix(12.38364 10.09985 -3.83423 4.70123 251.5 157.4)"/><path fill="#978976" d="M133.1 103.9l-25.7-4L111 78l25.7 4z"/><path fill="#412e1f" d="M185 136l-10 28 15 12z"/><path fill="#1e1a12" d="M45 129.8l-8.5-5.3L53 98.2l8.5 5.3z"/><path fill="#4f371c" d="M72.1 38.2l29.2 26.9-3.4-18.5-40.3 21.3z"/><path fill="#ac7853" d="M167 43h17v33h-17z"/><ellipse cx="199" cy="48" fill="#a0967f" rx="3" ry="170"/><path fill="#5b4327" d="M155 100l37-14-35 1z"/><path fill="#76834f" d="M233 45h10v26h-10z"/><path fill="#6a685d" d="M121 0h4v113h-4z"/><circle r="1" fill="#332b29" transform="matrix(-6.2795 -2.75464 9.37146 -21.36328 216.6 30.3)"/><path fill="#2f2519" d="M100.7 57.2l-10.1 75.1 13-34.8-17.4-15.4z"/><path fill="#493021" d="M186 22l-9 27 12-2z"/><path fill="#c4b574" d="M248 139l-32-7 14 25z"/><path fill="#ac9a7b" d="M13 18l27 59-17 51z"/><path fill="#a0998c" d="M71 92L59 78v47z"/><ellipse cx="236" cy="37" fill="#d5c8b0" rx="13" ry="5"/><path fill="#9b9a8b" d="M128 42l21 2-24 35z"/><path fill="#953921" d="M173 119l-2 14-19-13z"/><circle cx="184" cy="78" r="5" fill="#fad0a7"/><path fill="#25241f" d="M209.5 104.1l16.1 5.2 11.1-34.4-32.8 46.5z"/><path fill="#601b10" d="M171 151.6l-23.4-5.4 1.4-5.8 23.4 5.4z"/><path fill="#b0b57f" d="M205 54h15v15h-15z"/><path fill="#342d24" d="M145.9 78.7l-3.8 26-4.3-23.1-12.7-3.5z"/><path fill="#cbb8b1" d="M210.5 28.5l-4.3-23.3-2.9 22.3 5 8.5z"/><circle cx="230" cy="114" r="5" fill="#e3e6cf"/><path fill="#7e7d78" d="M189 0h6v145h-6z"/><ellipse cx="85" cy="21" fill="#f2f8f2" rx="2" ry="13"/><path fill="#a29a85" d="M126 51h2v119h-2z"/><path fill="#a39689" d="M29 153.6L51.5 185l40.6-40.8-6.5 32.3z"/><path fill="#8a7a66" d="M85 44l10-1-2-36z"/><path fill="#2c2c26" d="M206.2 108.3l-.8 14.2 32.5.1-16-6.4z"/><path fill="#74492b" d="M56 88l-25 7 7 30z"/></g></g></svg>