<svg xmlns="http://www.w3.org/2000/svg" viewBox="0 0 1800 1200"><defs/><filter id="a"><feGaussianBlur stdDeviation="12"/></filter><rect width="100%" height="100%" fill="#393940"/><g filter="url(#a)"><g fill-opacity=".5" transform="translate(3.5 3.5) scale(7.03125)"><circle r="1" fill="#b5c0bd" transform="matrix(-148.90007 3.63904 -1.54508 -63.22077 136.7 53.3)"/><path fill="#dbcbb7" d="M283.4 46.4L79.5 53.6l-.9-26 203.9-7.2z"/><circle r="1" fill="#655645" transform="rotate(-106.1 123.6 16.2) scale(42.08249 110.31273)"/><path fill="#222" d="M-16 177l149-78-123 5z"/><circle r="1" fill="#2a2a2f" transform="matrix(.66142 5.55675 -87.7544 10.44544 85.5 66.9)"/><path fill="#e7b06e" d="M124.3 124.2l.5-14 47 1.6-.6 14z"/><ellipse cx="218" cy="71" fill="#111e2d" rx="33" ry="6"/><path fill="#8d867b" d="M124 145h49v25h-49z"/><ellipse cx="108" cy="2" fill="#3f5f84" rx="255" ry="13"/><circle r="1" fill="#8ea6ac" transform="rotate(-102 91.9 -7.1) scale(10.16221 77.36804)"/><circle r="1" fill="#c8bfb2" transform="matrix(-5.51458 13.86551 -27.58942 -10.97284 158.6 28.7)"/><circle r="1" fill="#525d6e" transform="matrix(-65.50492 -10.84427 2.74566 -16.58518 0 30.8)"/><ellipse cx="222" cy="104" fill="#27323a" rx="35" ry="15"/><path fill="#beac99" d="M104 54L2 60l46-18z"/><circle r="1" fill="#a7a7aa" transform="rotate(98 24.1 44.1) scale(6.71103 49.73368)"/><ellipse cx="242" cy="140" fill="#141317" rx="88" ry="5"/><path fill="#8e6746" d="M271 135.4V116l-66.8 5.4 46.8 16.1z"/><circle r="1" fill="#646c6c" transform="matrix(1.79706 14.68383 -63.56192 7.77892 1.2 80.2)"/><path fill="#123" d="M173 74h28v6h-28z"/><path fill="#2c3744" d="M198.5 60.2l-.5-3.8-14.9-3L70.4 68.5z"/><ellipse cx="234" cy="9" fill="#6b7988" rx="29" ry="20"/><path fill="#9b9b8e" d="M87.7 99.8L-16 89.7 5.1 79.4-16 68.7z"/><circle r="1" fill="#34353b" transform="matrix(.61297 3.44066 -37.62776 6.70355 34.3 41.7)"/><path fill="#9ea9a5" d="M194 76h62v9h-62z"/><ellipse cx="244" cy="67" fill="#121926" rx="22" ry="3"/><path fill="#382e2e" d="M96.3 105.1L46.5 94.5l77.5 43-109 11.2z"/><path fill="#272227" d="M171.7 139.2l62.8-16-85.9 4.3-51.9 1.1z"/><path fill="#2b3a44" d="M129 95h63v6h-63z"/><circle r="1" fill="#324357" transform="matrix(.53283 8.00083 -35.50846 2.36474 51.3 3.3)"/><path fill="#6e7a8a" d="M113.6 48.6l33.3-39.4-61.3 1.3 44.6 40.4z"/><path fill="#555d5f" d="M125 176l1-32-112 1z"/><path fill="#111625" d="M97 120h44v3H97z"/><path fill="#656d78" d="M80 33l-18 8 50 16z"/><path fill="#8c8e8d" d="M203 43h53v21h-53z"/><path fill="#cd6832" d="M118.6 136l21.8 3-1 7-21.8-3z"/><circle r="1" fill="#192027" transform="matrix(34.6688 24.06818 -5.96377 8.59046 34.1 118.6)"/><ellipse cx="93" cy="64" fill="#393638" rx="26" ry="7"/><path fill="#92a7a7" d="M204.7 78.6l-113 19.6 81.1-7.7 18.1-1.9z"/><path fill="#e2a664" d="M157 121h31v3h-31z"/><path fill="#bc9f79" d="M21 90h45l-8 15z"/><path fill="#756e61" d="M90.1 114.3l-44.7-3.1 44.5 8 64.9-13.9z"/><circle r="1" fill="#6b7a8c" transform="matrix(2.45244 -13.6828 22.33646 4.00348 20 24.8)"/><ellipse cx="119" cy="124" fill="#e19a52" rx="16" ry="2"/><path fill="#93836f" d="M172.2 109l-3.4 16.8 29.3-28.6-52.7 7.7z"/><path fill="#cdc2b2" d="M231.8 35.2l-91.6 14.3-13.3-13.8 3-8.2z"/><path fill="#72706d" d="M210.7 41.5l-67.6 11.4L212 59l10.8-11.9z"/><circle r="1" fill="#676e6c" transform="matrix(.715 4.18343 -49.55196 8.46915 240 92.7)"/><circle r="1" fill="#27343f" transform="matrix(-.65654 -2.97868 28.46126 -6.27325 186.3 77.2)"/><path fill="#c1b3a1" d="M48.1 21.9l86.2 32.5-28.4 2-19.2-30.8z"/><path fill="#191c23" d="M186.2 120.4l-.3-7 73.9-3.8.3 7z"/><path fill="#bb8757" d="M15 123l-26-3 12 7z"/><path fill="#925e45" d="M68 124l33 11-33-1z"/><circle r="1" fill="#313d48" transform="matrix(.0983 2.52342 -15.17507 .59116 35.4 79.1)"/><ellipse cx="212" cy="107" fill="#5e564e" rx="70" ry="2"/><ellipse cx="240" cy="126" fill="#20242a" rx="80" ry="2"/><path fill="#99a6a2" d="M91 86h45v11H91z"/><path fill="#798695" d="M206 23.6l-32.1 3.9-30-17.2 105.5 12.4z"/><path fill="#534b46" d="M-9.3 74.7l22.3-32-29-4.4 30.7 30.4z"/><path fill="#deb883" d="M151 117h-20l9-12z"/><ellipse cx="80" cy="140" fill="#241d23" rx="35" ry="4"/><path fill="#bcac90" d="M177 109h27v2h-27z"/><ellipse cx="252" cy="120" fill="#b2906b" rx="22" ry="3"/><path fill="#1c2029" d="M223.6 107.8l-41.6-3.1 44-4.4 45-3.9z"/><circle r="1" fill="#905b3d" transform="rotate(-95.7 167.5 -31.4) scale(2.58588 26.40861)"/><path fill="#8b9491" d="M241.7 90l-7-17.2 22.9-2.1-52.1 20z"/><path fill="#4e4d4c" d="M103 97h25v27h-25z"/><path fill="#494e4f" d="M162 144h94v14h-94z"/><path fill="#21262d" d="M94.3 101.7l-27.6 5.1-28.4 34.8-25 6.7z"/><path fill="#8d9093" d="M270-10l-37 76 4-40z"/><ellipse cx="55" cy="56" fill="#bfae9b" rx="15" ry="5"/><path fill="#202225" d="M-.9 143.3L44.2 103l-23.5-9.2 10.6 50.7z"/><path fill="#a1937b" d="M110 111h68v3h-68z"/><circle r="1" fill="#c9bead" transform="matrix(-3.13605 5.00195 -16.81076 -10.53978 219.4 36.1)"/><path fill="#3d474e" d="M257.4 92.3l-91.7-.8-59.4 21 48-11.2z"/><circle r="1" fill="#5d6971" transform="matrix(-.31218 -3.95617 14.06344 -1.10974 124.7 80.9)"/><path fill="#9c9c8f" d="M260.6 92.8l.1 1-127.3 13.4-.1-1z"/><path fill="#92999b" d="M189 64.2l12.2-2.4 30.2-8.5-45.1 19.6z"/><path fill="#768b93" d="M182 78h46v14h-46z"/><path fill="#c6b28f" d="M100 97l-15-2-8 5z"/><circle r="1" fill="#2c323c" transform="rotate(82.5 -8.5 38.6) scale(1.88985 22.56091)"/><ellipse cx="8" cy="163" fill="#383c39" rx="38" ry="19"/><path fill="#252a31" d="M68.2 126.3l4.1-10.3 29.1 2.1-3.5 16.2z"/><path fill="#465666" d="M-16 54.8l38.4-32L-3.5 18l6.2 32.8z"/><ellipse cx="145" cy="52" fill="#848a8e" rx="20" ry="5"/><path fill="#8d8278" d="M25 66l-41-10 62-15z"/><circle cx="250" cy="89" r="6" fill="#4d4d4c"/><path fill="#1a2530" d="M198 69h30v4h-30z"/><path fill="#678490" d="M0 83h70v7H0z"/><path fill="#9a7659" d="M190.2 120.1l45.7 4.8v1l-45.8-4.8z"/><path fill="#7e746b" d="M128.6 145.7l62.6 3.8-39.9 3.7-10.9 31.8z"/><path fill="#353a39" d="M181.6 162.1l24.9-20.7 49.6 43.6h-45.8z"/><path fill="#595553" d="M88.7 56.8L48.9 83.3H27.4L39.7 66z"/><path fill="#84807b" d="M102 26h26v10h-26z"/><path fill="#849eb1" d="M125 67h52v9h-52z"/><path fill="#a1a99f" d="M194 99h21v2h-21z"/><circle r="1" fill="#657a94" transform="matrix(-.30896 4.1373 -54.8366 -4.09507 86.6 18)"/><path fill="#3c3839" d="M74 141l-7-40-23 21z"/><path fill="#a6734c" d="M234 127h22v3h-22z"/><ellipse cx="206" cy="4" fill="#566a80" rx="51" ry="14"/><path fill="#a3a399" d="M209 78.9l54.4-2.9-28.1 13.5-.1-1.1z"/></g></g></svg>