<svg xmlns="http://www.w3.org/2000/svg" viewBox="0 0 1800 1800"><defs/><filter id="a"><feGaussianBlur stdDeviation="12"/></filter><rect width="100%" height="100%" fill="#473438"/><g filter="url(#a)"><g fill-opacity=".5" transform="translate(3.5 3.5) scale(7.03125)"><circle r="1" fill="#ef8a77" transform="matrix(-111.38917 97.7802 -159.68273 -181.90727 149.5 162.3)"/><circle r="1" fill="#caf4b6" transform="matrix(25.64789 -46.78048 121.01235 66.3463 27.5 12)"/><circle r="1" fill="#c10a1e" transform="matrix(-27.81776 104.54683 -62.8032 -16.71064 202.8 155.3)"/><circle r="1" fill="#5f0017" transform="matrix(19.8559 .15994 -.71737 89.05741 60.9 202.6)"/><ellipse cx="7" cy="126" fill="#85bbcf" rx="17" ry="99"/><circle r="1" fill="#e0c800" transform="matrix(10.77035 4.22085 -18.95 48.3547 101.3 68.1)"/><circle r="1" fill="#1a5d70" transform="matrix(-12.75654 25.77826 -15.34242 -7.5923 205.4 153.2)"/><ellipse cx="167" cy="28" fill="#28281b" rx="90" ry="7"/><circle r="1" fill="#204658" transform="matrix(-10.91608 -9.2575 22.21219 -26.19172 35.9 89.8)"/><path fill="#fff" d="M24.4 55.6L4.8 59.8l-15.2-71.4 19.6-4.2z"/><path fill="#d8ffff" d="M149 220l30-20-16 29z"/><path fill="#fff" d="M67-13.3l1 25-47 1.6-1-25z"/><ellipse cx="95" cy="163" fill="#eff60f" rx="8" ry="32"/><path fill="#53716d" d="M100 85h36v119h-36z"/><circle cx="177" cy="48" r="11" fill="#e4fffe"/><ellipse cx="69" cy="26" fill="#ffdc00" rx="7" ry="25"/><circle r="1" fill="#0d1e41" transform="matrix(12.98917 20.00157 -17.33977 11.26058 149 255.2)"/><path fill="#cefff3" d="M144 138l6-37-19 10z"/><path fill="#e98252" d="M133 179l41-106-6 127z"/><circle r="1" fill="#945835" transform="matrix(56.93807 40.57477 -16.63937 23.34982 237.4 20)"/><path fill="#b6001a" d="M246 96l-53-11 70 118z"/><path fill="#222c57" d="M74 26.6l10.7-13.2 27.2 22-10.6 13.2z"/><ellipse cx="99" cy="2" fill="#f9ffff" rx="13" ry="19"/><path fill="#a40b14" d="M121 198h33v40h-33z"/><path fill="#594e5a" d="M59 16.5v21H21v-21z"/><circle r="1" fill="#5c8898" transform="rotate(-71.3 199.6 39.8) scale(35.66062 12.33343)"/><path fill="#ded6df" d="M8.4 145.6l28.3-36.1-52.7 33 19.9 66.7z"/><path fill="#2a6179" d="M184 266l68 5 19-59z"/><path fill="#221f49" d="M72 75h19v15H72z"/><path fill="#a8c6b8" d="M96.8 71.6L91 129.8l-44.9-24.4 47.7 2.2z"/><path fill="#b7ccf4" d="M23 39h45v21H23z"/><circle r="1" fill="#330930" transform="rotate(7.2 -1685 297.2) scale(4.18236 63.09284)"/><path fill="#bcdac8" d="M170 169l42-21-33 6z"/><path fill="#dfa42d" d="M110 51v-67l26 55z"/><path fill="#d20023" d="M173 106h26v46h-26z"/><path fill="#ffed00" d="M114 40l-10 45-21-18z"/><path fill="#5b809e" d="M-16 57l70 3L8 96z"/><path fill="#ffff08" d="M68.3 92.1l-12.2-7.2.3 22.6 9.3-2.8z"/><ellipse cx="236" cy="194" fill="#ff4" rx="5" ry="9"/><ellipse cx="220" cy="189" fill="#9e0017" rx="11" ry="33"/><path fill="#361a12" d="M159 25h10v61h-10z"/><circle r="1" fill="#ac002d" transform="rotate(31.1 -216 177.1) scale(16.20925 22.22291)"/><path fill="#0e1c24" d="M197 19.4l-78.1 8.3 71.3 7.9 5.6 31.4z"/><path fill="#57402b" d="M125 150l-29-23 25-68z"/><path fill="#ffff3b" d="M208.6 212l-7.2 14.2-8-4.1 7.2-14.3z"/><path fill="#431918" d="M9.9 132.6l-1.5 56.5 8.8-27.3-5.5-21.1z"/><path fill="#7c0019" d="M162 270l30 1 6-104z"/><path fill="#e8c200" d="M60.7 17.9l14.6 47.3L72.9 29l17.7-45z"/><path fill="#b70027" d="M173.6 151.6l9.5 77.3-26.5-79.9 50.9-31.9z"/><path fill="#ff0" d="M99.1 130.5l9.4 11.6-11.6 9.4-9.4-11.6z"/><path fill="#470025" d="M71 284.2l-19-2 13-124.4 19 2z"/><path fill="#d1a87d" d="M44.7 129.6l-5.2 13.9 2.1-51.8-30.8 51.1z"/><ellipse cx="237" cy="56" fill="#9f000e" rx="18" ry="12"/><path fill="#ffcc1b" d="M158 85l36 22 1-15z"/><path fill="#cef2e0" d="M167 203l16 15-28 6z"/><path fill="#b28556" d="M111-16l9 44 96-29z"/><path fill="#e9d861" d="M174.9 138l-38.5 6.5 21.4 10.9L160 125z"/><path fill="#ffff53" d="M233 79l-4 20 14-16z"/><path fill="#ffffa9" d="M247.4 106.2l6.5-7.2 17.1 4.7-4.5 16.4z"/><path fill="#525d61" d="M67.8 105l6.1 24.6L82 176l18.3-9.4z"/><ellipse cx="32" cy="236" fill="#778a93" rx="10" ry="32"/><path fill="#cfaf6c" d="M252.3 201.2l-54.9 35.9 45.6-19.7 3.1-19.6z"/><path fill="#ffff4d" d="M211 92l8-15-13 3z"/><circle r="1" fill="#00161e" transform="matrix(10.2579 -6.67455 11.09157 17.04626 7.5 239.2)"/><path fill="#2b282b" d="M26 17h6v29h-6z"/><ellipse cx="226" cy="25" fill="#000b19" rx="14" ry="7"/><ellipse cy="115" fill="#1a252b" rx="25" ry="5"/><circle cx="205" cy="186" r="5" fill="#ffffc0"/><path fill="#ffce43" d="M92 233l39 3-5 11z"/><path fill="#d7bb66" d="M196.1 233.9l-16-1.1 35.3-3.2-7.6 19.9z"/><path fill="#b3001c" d="M128.7 271.5l-36.6-13.3 7.2-19.7 36.6 13.3z"/><path fill="#fca000" d="M242.5 166.8l-10.8-16.2.3 24.4 39-32.5z"/><path fill="#464b4d" d="M43 61h12v70H43z"/><path fill="#677c8b" d="M77 197l59-13-53 58z"/><path fill="#d1d4dc" d="M73 17l6 37 20-2z"/><path fill="#6e605f" d="M66.6 95.4l5.9 39.3 11-68.9 20 27.2z"/><path fill="#88b6c0" d="M201 123l-4 21 18-4z"/><path fill="#fff429" d="M88 86l-13 20h28z"/><path fill="#ebc21e" d="M178.1 199.1l-3.8 13.6 5.4-28.3 14-2.8z"/><path fill="#b2bcca" d="M23.1 84.8l-8.7-39.9-30.4 8.3 63.8 13.7z"/><path fill="#ba0022" d="M179.3 182.4l-15.6-19.5 25.1 3.2 18.1 21.2z"/><path fill="#aeb2b3" d="M133.9 169.5l-24.7-5.2-6.5-12 33.2 7.9z"/><path fill="#5b001b" d="M33 168l11 8-31 30z"/><path fill="#e4edca" d="M26 160L2 123l16 2z"/><circle r="1" fill="#c1c9d0" transform="matrix(4.88576 -1.24088 8.34447 32.85495 61 56.3)"/><path fill="#ffff1a" d="M271 174v-50l-22 25z"/><circle cx="165" cy="172" r="5" fill="#ffff6f"/><path fill="#1f2d18" d="M114.4 130.3l.1-9.6-4.7 25.9 31.9-1.4z"/><path fill="#b2726d" d="M150 32l-43 40 16-43z"/><path fill="#b3002b" d="M222 78l-25 39 74 32z"/><path fill="#d8a462" d="M217.5 62.7l-14.3 10 58.8-4.3 9 20.7z"/><path fill="#e3bc3d" d="M177 68l30 6-16 7z"/><path fill="#faf953" d="M153 116l-7-14 23 14z"/><circle r="1" fill="#9f9dc2" transform="rotate(73.4 -82.1 96.7) scale(33.68193 2.84373)"/><ellipse cx="42" fill="#f2faff" rx="27" ry="12"/><path fill="#a00005" d="M25 125l-5-10 3 24z"/><path fill="#bf1637" d="M148.9 106.3l-7.2 45.6 47-65.7-8.8 55.4z"/><path fill="#aac7a7" d="M232.7 45.9L214.8 48l-1.5-12 17.9-2.2z"/><circle r="1" fill="#fdc205" transform="matrix(-4.17339 -2.11434 2.5371 -5.00785 186.2 126.8)"/><circle r="1" fill="#c6ae80" transform="matrix(-13.7932 18.82387 -1.92816 -1.41286 178.7 98.4)"/></g></g></svg>