<svg xmlns="http://www.w3.org/2000/svg" viewBox="0 0 1800 1200"><defs/><filter id="prefix__a"><feGaussianBlur stdDeviation="12"/></filter><rect width="100%" height="100%" fill="#332d38"/><g filter="url(#prefix__a)"><g transform="translate(3.5 3.5) scale(7.03125)"><circle r="1" fill="#eee5eb" fill-opacity=".5" transform="matrix(235.07508 2.88678 -1.00681 81.98629 135.1 68.8)"/><circle r="1" fill="#ffc87b" fill-opacity=".5" transform="matrix(-11.61189 .36232 -2.7864 -89.30195 134.5 152.4)"/><circle r="1" fill="#515a7b" fill-opacity=".5" transform="matrix(3.10551 93.61443 -35.88168 1.19032 10.9 55.4)"/><circle r="1" fill="#acadb1" fill-opacity=".5" transform="matrix(60.68923 10.21217 -5.34093 31.74029 225.7 113.4)"/><ellipse cx="114" cy="147" fill="#503318" fill-opacity=".5" rx="191" ry="4"/><circle r="1" fill="#a79ba0" fill-opacity=".5" transform="matrix(-54.71562 -57.91926 40.8129 -38.55545 154.5 35.5)"/><ellipse cx="134" cy="151" fill="#ffc270" fill-opacity=".5" rx="11" ry="15"/><ellipse cx="24" cy="118" fill="#6d7e9b" fill-opacity=".5" rx="102" ry="27"/><path fill="#fec838" fill-opacity=".5" d="M153.3 84.5L182.9 185h-.9l-8.7-21.7z"/><path fill="#352d2c" fill-opacity=".5" d="M87.9 141.4l36 5.3-14.3 33-125.6-9.9z"/><ellipse cx="35" cy="22" fill="#81707c" fill-opacity=".5" rx="40" ry="47"/><path fill="#465f80" fill-opacity=".5" d="M34 124.3L7.8 142.6-18 105.7 8.2 87.4z"/><path fill="#c19a80" fill-opacity=".5" d="M125.9 24l20.9 39.1-13.4-75.4-61.7 56.2z"/><path fill="#c2d4db" fill-opacity=".5" d="M241 130l30-17-68 15z"/><circle r="1" fill="#99a0ad" fill-opacity=".5" transform="matrix(-1.23709 -8.31539 35.35247 -5.25942 53.6 136)"/><circle r="1" fill="#ffd534" fill-opacity=".5" transform="rotate(73.4 -17.3 193.6) scale(28.24394 1)"/><path fill="#eac89f" fill-opacity=".5" d="M132 66h11v39h-11z"/><circle r="1" fill="#9495a6" fill-opacity=".5" transform="matrix(12.97124 -33.61574 62.8212 24.24068 212.1 82)"/><ellipse cx="221" cy="142" fill="#bd9978" fill-opacity=".5" rx="52" ry="4"/><path fill="#1f1d24" fill-opacity=".5" d="M148 146h48v4h-48z"/><path fill="#ca976b" fill-opacity=".5" d="M124 118h21v52h-21z"/><path fill="#b5bfbc" fill-opacity=".5" d="M154 130l65-6-29 14z"/><path fill="#ffc566" fill-opacity=".5" d="M126 141h19v13h-19z"/><circle r="1" fill="#76717f" fill-opacity=".5" transform="matrix(49.51786 -6.25556 1.00876 7.98514 74.8 116.3)"/><path fill="#c97936" fill-opacity=".5" d="M74 139l17 4-28 2z"/><circle r="1" fill="#d49f40" fill-opacity=".5" transform="rotate(-14.6 442.5 -556.1) scale(1 36.18962)"/><circle r="1" fill="#a99394" fill-opacity=".5" transform="rotate(-51.6 97.8 -55.6) scale(68.05266 9.71542)"/><circle r="1" fill="#87899e" fill-opacity=".5" transform="matrix(36.39434 -33.32776 10.71609 11.7021 102.7 79)"/><circle r="1" fill="#787a95" fill-opacity=".5" transform="matrix(-12.08408 42.36769 -13.57778 -3.87265 44.7 59)"/><path fill="#6d626e" fill-opacity=".5" d="M25.7 65.7l-4.2-13.5L2-10.3-8.9 82.8z"/><path fill="#8f8a8f" fill-opacity=".5" d="M258 113l-91-10-3 27z"/><circle r="1" fill="#917e83" fill-opacity=".5" transform="matrix(-4.28746 -19.19624 45.21609 -10.09896 64.8 11.6)"/><path fill="#222433" fill-opacity=".5" d="M1 146h122v6H1z"/><path fill="#e6c756" fill-opacity=".5" d="M174 159.7l-10.1-26.2 7.3 8.3-.4-3.6z"/><path fill="#383842" fill-opacity=".5" d="M183 147h73v15h-73z"/><ellipse cx="77" cy="133" fill="#939bab" fill-opacity=".5" rx="33" ry="9"/><path fill="#785a47" fill-opacity=".5" d="M39.4 174.2l33.6 7.6-18.2-23.7 45.7 26.9z"/><path fill="#8a5d40" fill-opacity=".5" d="M18.1 164.2l43.7-5.4.1 1-43.7 5.4z"/><path fill="#5d6f8e" fill-opacity=".5" d="M0 71h29v72H0z"/><path fill="#ae8569" fill-opacity=".5" d="M123.2 145.5l22.2 10.7-11.3 28.8-8.3-2.9z"/><circle r="1" fill="#cea059" fill-opacity=".5" transform="matrix(-19.58 -60.4038 1.18812 -.38513 132.8 20.8)"/><path fill="#cdb098" fill-opacity=".5" d="M123 72h18v23h-18z"/><path fill="#181716" fill-opacity=".5" d="M0 166h59v4H0z"/><path fill="#a69b94" fill-opacity=".5" d="M186 133h70v11h-70z"/><ellipse cx="3" cy="125" fill="#515b74" fill-opacity=".5" rx="33" ry="7"/><path fill="#ffbc65" fill-opacity=".5" d="M138.6 151.2l-15.6-3.6 2.4-10.8 15.6 3.6z"/><path fill="#ad8d79" fill-opacity=".5" d="M122 120h23v18h-23z"/><circle cx="239" cy="30" r="36" fill="#8d8392" fill-opacity=".5"/><path fill="#202229" fill-opacity=".5" d="M0 147h38v15H0z"/><circle r="1" fill="#948f9f" fill-opacity=".5" transform="matrix(-16.88992 -15.4856 32.20548 -35.12607 184.8 40)"/><path fill="#3a363f" fill-opacity=".5" d="M182 146h36v24h-36z"/><path fill="#84879b" fill-opacity=".5" d="M53 82h66v27H53z"/><path fill="#333038" fill-opacity=".5" d="M145 148h20v12h-20z"/><ellipse cx="35" cy="146" fill="#4e3b39" fill-opacity=".5" rx="22" ry="3"/><circle r="1" fill="#9c9ca9" fill-opacity=".5" transform="matrix(-29.64542 -11.16027 8.04002 -21.357 194.8 90.6)"/><path fill="#ac6d36" fill-opacity=".5" d="M148 143h46v3h-46z"/><path fill="none" stroke="#da9e3a" stroke-opacity=".5" stroke-width=".5" d="M165.8 131.8q-16-50.8-42.2-144.1"/><path fill="#86919e" fill-opacity=".5" d="M144 110h16v32h-16z"/><path fill="#3c3844" fill-opacity=".5" d="M77 150h44v11H77z"/><path fill="#928a97" fill-opacity=".5" d="M33.5 117l109.3-53.6-8.6-36.2-8.5-12.9z"/><path fill="#a99593" fill-opacity=".5" d="M141 41l-13-54 62 2z"/><path fill="#ffed35" fill-opacity=".5" d="M147.9 73.4l1-.3 3.2 11.5-1 .3z"/><path fill="#b59690" fill-opacity=".5" d="M97.8 16.8L141.6-16 46.9 88.1l22.5-37.6z"/><path fill="#c2cbcc" fill-opacity=".5" d="M179 129h30v3h-30z"/><ellipse cx="15" fill="#7e6e76" fill-opacity=".5" rx="16" ry="46"/><path fill="#c16d22" fill-opacity=".5" d="M72.6 144.4l16.6-3.8.2 1-16.6 3.8z"/><path fill="#697e98" fill-opacity=".5" d="M0 134h28v10H0z"/><path fill="#838a97" fill-opacity=".5" d="M122.5 142.1l.3-28.9-34.9 10.5 16.7 21.4z"/><path fill="#a7b5ba" fill-opacity=".5" d="M149 132h16v4h-16z"/><path fill="#a79992" fill-opacity=".5" d="M263.7 123.8l2.3 10.4 5 9.9-94.6-.4z"/><path fill="#9091a0" fill-opacity=".5" d="M189 110l-52-85 27 93z"/><path fill="#a36737" fill-opacity=".5" d="M5 165.6l-10 .7v-2l10-.6z"/><path fill="#a66835" fill-opacity=".5" d="M185.5 144v-1l41 3v1z"/><path fill="#8f8394" fill-opacity=".5" d="M51.9 37.1L71.6 12 88 25 68.4 50z"/><path fill="#999ca2" fill-opacity=".5" d="M171 133h40v10h-40z"/><path fill="#c19656" fill-opacity=".5" d="M160.3 109.3l4.8 16.9 5.8 23.4-23.7-74.4z"/><path fill="#925a2f" fill-opacity=".5" d="M78 142h24v4H78z"/><path fill="#725033" fill-opacity=".5" d="M141 134h2v6h-2z"/><path fill="#6a7b9a" fill-opacity=".5" d="M15.9 115.3l-3.6-15.4 28.3-26.1-.7 32.9z"/><path fill="#afbbc4" fill-opacity=".5" d="M268 128l-54-4 42-9z"/><path fill="#e5c397" fill-opacity=".5" d="M130 94h14v12h-14z"/><path fill="#c6ab96" fill-opacity=".5" d="M135.9 73.4l-14.4 3.9 1.9 25.1 21.1-8.4z"/><path fill="#25252e" fill-opacity=".5" d="M44 146l88 33H86z"/><ellipse cx="52" cy="145" fill="#8d5f48" fill-opacity=".5" rx="21" ry="1"/><path fill="#ffd43a" fill-opacity=".5" d="M163 122l14.9 45.7-1 .3-14.8-45.7z"/><path fill="#898185" fill-opacity=".5" d="M172.3 119.7l-6.6 13.8-21.4-8.9 53.3-3z"/><path fill="#c9a58b" fill-opacity=".5" d="M141-16l-38 33 44-19z"/><path fill="#bd9b81" fill-opacity=".5" d="M144.9 138.4l-20.5-18.5-2.9-30.6 1.3 10.7z"/><path fill="#a29191" fill-opacity=".5" d="M81 62.2l-9.4-15.5 51.5-30.9 9.3 15.5z"/><circle r="1" fill="#ffe49a" fill-opacity=".5" transform="rotate(-36.7 217.2 -159.4) scale(7.52313 1.1938)"/><path fill="#634212" fill-opacity=".5" d="M53 161h3v9h-3z"/><path fill="#786d7d" fill-opacity=".5" d="M62.9 116.5L33 119.1l1.2 11.2 47.7-13z"/><path fill="#302c34" fill-opacity=".5" d="M4.1 178.3l18.8-32.2 75 8-73.2 9.4z"/><path fill="#948b8c" fill-opacity=".5" d="M271 108.9l-52.4 13-1.6-6.8 52.4-13z"/><ellipse cx="252" cy="24" fill="#8c808a" fill-opacity=".5" rx="11" ry="45"/><path fill="#8a91a6" fill-opacity=".5" d="M143 89h9v18h-9z"/><path fill="#915e3e" fill-opacity=".5" d="M284.5 146.5l-59-1v-2l59 1z"/><path fill="#8a8f9f" fill-opacity=".5" d="M28 138h49v5H28z"/><path fill="#35323a" fill-opacity=".5" d="M146 146h23v24h-23z"/><path fill="#a08e84" fill-opacity=".5" d="M266.9 137l-21.7 3.8-2-11.8 21.6-3.8z"/></g></g></svg>