<svg xmlns="http://www.w3.org/2000/svg" viewBox="0 0 1200 1800"><defs/><filter id="a"><feGaussianBlur stdDeviation="12"/></filter><rect width="100%" height="100%" fill="#533e38"/><g filter="url(#a)"><g fill-opacity=".5" transform="translate(3.5 3.5) scale(7.03125)"><circle cx="90" cy="147" r="169" fill="#afc7ce"/><circle r="1" fill="#badfff" transform="matrix(-4.62334 -33.75122 106.56084 -14.59702 84.8 18.1)"/><path fill="#ffffdf" d="M6 128l-22 94 59 21z"/><circle r="1" fill="#3d424e" transform="matrix(34.15169 36.95975 -67.5489 62.41678 97.3 136.7)"/><circle r="1" fill="#f09f58" transform="matrix(12.71762 -11.6441 30.66201 33.4889 80.4 123)"/><circle r="1" fill="#ffe2ac" transform="matrix(8.25108 7.91037 -27.18527 28.3562 111 203)"/><circle r="1" fill="#0b61ab" transform="rotate(38.6 -221.4 164.6) scale(26.92267 37.67298)"/><path fill="#00000b" d="M0 82h28v30H0z"/><circle r="1" fill="#5e5952" transform="matrix(91.7514 -21.48602 5.12783 21.89728 74 255)"/><circle r="1" fill="#171d24" transform="rotate(67.6 -76.8 98.9) scale(15.40259 18.18086)"/><circle r="1" fill="#8b6a4b" transform="matrix(96.44427 -19.49914 3.23476 15.9994 133.5 58.5)"/><circle r="1" fill="#4c3e3a" transform="rotate(-38.8 281.9 -87.9) scale(80.78828 18.80577)"/><path fill="#2a3945" d="M14 67l9-46-39 56z"/><ellipse cx="83" cy="102" fill="#ffb96e" rx="5" ry="42"/><path fill="#c0d3e5" d="M61.4 65.4l-7-22L15-16l13 84.6z"/><path fill="#eed3b2" d="M3 232l27-73-38-38z"/><path fill="#343834" d="M20.4 17.6l.7 21.6-22-52.8 21.5 28.8z"/><circle r="1" fill="#cfc0a6" transform="matrix(.8151 -15.22594 16.3453 .87502 52.7 102.2)"/><path fill="#d1b693" d="M55 238l100-42-138 18z"/><circle r="1" fill="#5b656c" transform="rotate(-82.2 171 -21.5) scale(93.81896 19.05375)"/><path fill="#473331" d="M91 67h9v98h-9z"/><circle r="1" fill="#375b82" transform="rotate(115.1 40.7 98.4) scale(25.7685 41.83187)"/><path fill="#fee6c6" d="M22 236l-38-69 56 42z"/><path fill="#e49a59" d="M117 172l-14-40 4 54z"/><ellipse cx="160" cy="70" fill="#d8bf9f" rx="48" ry="4"/><path fill="#ca8751" d="M52 59l41 37-13 58z"/><path fill="#7c533a" d="M80.5 104.4l-14 .2-1-55 14-.2z"/><ellipse cx="157" cy="18" fill="#a0b6d0" rx="114" ry="22"/><path fill="#234f6d" d="M48 23.7L20.4-11.6 46 28.3l16.5 17.6z"/><circle r="1" fill="#00275a" transform="matrix(-12.90033 22.16498 -5.57207 -3.24302 74.4 177.8)"/><circle cx="43" cy="180" r="23" fill="#3a77a7"/><path fill="#0e1925" d="M4 42l3 30-23-39z"/><path fill="#485e72" d="M121 206h49v18h-49z"/><path fill="#999488" d="M22.5 164.9l42-27.8-25.9 12.3-37.8-8.2z"/><path fill="#4e352c" d="M132.1 139.7L107.4 121l6.5 35.9 38.9 12.5z"/><path fill="#fbe5c0" d="M175.1 232l-3.2 36.8-9-.8 3.2-36.8z"/><ellipse cx="66" cy="255" fill="#695a51" rx="44" ry="23"/><circle r="1" fill="#e4a56b" transform="matrix(-7.49496 -31.87469 4.40926 -1.03679 63.6 90.1)"/><path fill="#b6c0c5" d="M137.1 35.6L75 59.4l-65.2-1 67.7-23.5z"/><path fill="#5e574f" d="M124.4 38.2L139 51.8l-35.4 38L89 76.2z"/><path fill="#e9dbbc" d="M89.1 227.6l32-43.4 15.8 24.5-8.3-7.8z"/><path fill="#396293" d="M56.6 78l3.3 17-1.7 1.3-18.7-20.5z"/><ellipse cx="104" cy="131" fill="#eda864" rx="4" ry="19"/><ellipse cx="136" cy="249" fill="#728183" rx="30" ry="36"/><path fill="#b7ae9e" d="M151 137l1 12 17-12z"/><path fill="#7a5943" d="M78.7 53.2l2.7 15.1-5.4 50.3-12.2-72.2z"/><path fill="#605f65" d="M13 126l23 26-45-26z"/><ellipse cx="8" cy="32" fill="#b5d6f2" rx="5" ry="15"/><path fill="#37475b" d="M30 117h34v11H30z"/><path fill="#c0b9a8" d="M9.4 72.2l35.7 18.9 25 34.7-20.2-44.2z"/><path fill="#927e5b" d="M-14 223l50 18-22 30z"/><path fill="#757d77" d="M89.3 32.7l3.6 21.6L78.7-16 93 33.2z"/><path fill="#181c1a" d="M25.2 107.9l1.9-13.2-35.1 9.6-1.2 13.4z"/><path fill="#d5b493" d="M129 42h33v5h-33z"/><path fill="#2c3d45" d="M127.6 105.8l7.5 38 49.9 39.3-16.6-1.5z"/><path fill="#564640" d="M111 66l-16 90-7-76z"/><path fill="#161917" d="M30 132h28v13H30z"/><path fill="#677c8f" d="M5 45l5 28 35 2z"/><ellipse cx="84" cy="140" fill="#c6804a" rx="14" ry="10"/><circle r="1" fill="#a6c4e2" transform="rotate(-130.5 31.3 -7.7) scale(48.3064 15.26868)"/><ellipse cx="82" cy="104" fill="#e8bb8d" rx="4" ry="22"/><path fill="#e4d2b3" d="M157.1 164.9l-23.6 15.5 6.8-1.8-40.5 44.1z"/><circle r="1" fill="#baa78b" transform="rotate(-143.4 79 94) scale(7.01003 23.92437)"/><ellipse cx="146" cy="203" fill="#ddc09b" rx="25" ry="2"/><path fill="#afb3ab" d="M62 119h5v18h-5z"/><circle r="1" fill="#75aeb6" transform="rotate(-38.6 215.8 -109) scale(1.68546 21.47457)"/><path fill="#ecdaba" d="M24 148l10 13-24-17z"/><path fill="#1a4f83" d="M80.5 148.3l-40.6 57.3 15.9 4 22.1-43.2z"/><path fill="#765d4e" d="M65.6 213.3l34.5-17 11.3-27-7.2-11.8z"/><path fill="#605c4e" d="M126 187l17-27 2 10z"/><path fill="#837361" d="M185 212l-27-48-30 32z"/><path fill="#9c8b78" d="M56.5 236.2l-34.1 16.6 28.5-43 31.7-3.7z"/><path fill="#66707e" d="M6 88l24 7-46 1z"/><path fill="#3074ad" d="M58 168.9l-13-20.2 21-13.6 13 20.2z"/><path fill="#e9d7bb" d="M40.3 238.2l-25.7-68.7-30.6 48L24.2 238z"/><path fill="#c8b293" d="M138 164.4l-26.3 38.4 3.8 29.5-28.2-27.1z"/><circle cx="56" cy="106" r="6" fill="#f8eac9"/><path fill="#f6e1bd" d="M153 195l-12 11-1-5z"/><path fill="#3d3134" d="M103 153l-27-5 34 24z"/><ellipse cx="154" cy="57" fill="#706b5d" rx="70" ry="11"/><path fill="#183f54" d="M64.2 46.5l-.8.6-21.6-27.6.8-.6z"/><path fill="#9b948b" d="M50.9 118.1l-39.6-2.9 16 26.3 10.8-71.6z"/><path fill="#616b75" d="M118 205h38v20h-38z"/><path fill="#ccd0d2" d="M46 26l25 33-49-16z"/><circle r="1" fill="#4c7a9d" transform="matrix(-14.14555 -17.65653 7.9515 -6.37035 36.6 191.2)"/><path fill="#212c3b" d="M57.1 202.1l17.1-2.5 20.6-48L52 212.8z"/><ellipse cx="3" cy="78" fill="#aca698" rx="38" ry="5"/><path fill="#505754" d="M7.3 8.6l14.9 17L4.3-13.7-9.6-6.5z"/><circle r="1" fill="#5c5353" transform="matrix(-11.15291 -11.53635 20.32341 -19.64791 85.9 251.7)"/><path fill="#af9d89" d="M124.1 70.5l-1.1-2.8-17.4-3 11.7 9.8z"/><path fill="#a3c6e8" d="M-13-13l26 29L2 41z"/><ellipse cx="152" cy="17" fill="#a3b2c1" rx="28" ry="22"/><path fill="#5e4338" d="M76.6 72.6L64.2 58.7l14.7 49.6-17.2-26.9z"/><path fill="#e1bd89" d="M152 156l-5 2 9 15z"/><path fill="#cb9868" d="M97.5 151.3l16.7 8.7.7 22.3-13.4-41.8z"/><path fill="#535a55" d="M14 13h4v38h-4z"/><path fill="#f6e9cd" d="M24 165l-11 30 1-32z"/><path fill="#777578" d="M-16 116.4L45.2 135l5.4-11.7-40.8 17.4z"/><path fill="#d79463" d="M96 77L73 56l16 6z"/><circle r="1" fill="#938674" transform="matrix(-2.12914 2.31482 -14.57455 -13.40552 15.7 152.8)"/></g></g></svg>