<svg xmlns="http://www.w3.org/2000/svg" viewBox="0 0 1800 1200"><defs/><filter id="a"><feGaussianBlur stdDeviation="12"/></filter><rect width="100%" height="100%" fill="#503a2d"/><g filter="url(#a)"><g fill-opacity=".5" transform="translate(3.5 3.5) scale(7.03125)"><circle r="1" fill="#b3d4d7" transform="rotate(-105.4 62.1 -3.6) scale(73.14601 254.03187)"/><circle r="1" fill="#d7dadb" transform="matrix(15.99822 -66.63739 14.96435 3.59262 51.4 119.2)"/><circle r="1" fill="#7f7451" transform="matrix(20.08447 51.78084 -171.96426 66.70054 168.9 146.2)"/><circle r="1" fill="#050e15" transform="matrix(-17.1659 67.66765 -11.06889 -2.80795 18.9 137)"/><circle r="1" fill="#33411b" transform="rotate(63.6 104 205.7) scale(27.89728 26.2976)"/><circle r="1" fill="#f5ffff" transform="matrix(4.38036 -34.06841 17.42828 2.24085 0 96)"/><circle r="1" fill="#d6e8fe" transform="matrix(-57.14496 8.54037 -1.30832 -8.75415 142.4 3.2)"/><path fill="#cbe8f9" d="M27.5 66.5v-15h91v15z"/><circle r="1" fill="#2b2a2c" transform="matrix(-20.95873 -66.9398 9.02823 -2.82672 10.3 31.6)"/><path d="M77 77h10v45H77z"/><circle r="1" fill="#c0bcb2" transform="matrix(3.67064 19.24217 -43.10217 8.22218 187.7 65.1)"/><path fill="#22191b" d="M177.1 89.2l-8.4-17 7.6-52.5 4.1 36.3z"/><circle r="1" fill="#432b36" transform="matrix(5.862 40.57817 -9.9893 1.44307 141.4 92)"/><path fill="#d5eaf1" d="M121.2 49.7l-13.7 16 5.9 45.6 15.8-43.1z"/><path fill="#272320" d="M96 79.1l.1-14.1 10.1-1.8 5.6 68.6z"/><path fill="#bcc8d6" d="M42 64h34v57H42z"/><circle r="1" fill="#c7d3d2" transform="matrix(-9.41793 -21.74376 10.0008 -4.33168 159.7 75.5)"/><path fill="#faffff" d="M175.2 1.2l-44.8 10.4-1.6-6.8 44.8-10.4z"/><path fill="#51674d" d="M67 54l20-33H24z"/><circle r="1" fill="#795b43" transform="matrix(-3.22547 -9.50361 123.22979 -41.82352 231.6 80.5)"/><circle r="1" fill="#bbbfc4" transform="matrix(-5.06167 1.09437 -5.44875 -25.20145 91.5 85)"/><path fill="#516245" d="M234.7 46.1L203 40.9 218.6-16h-53.2z"/><path fill="#c0cedb" d="M68 26.2l-23.6-42 9.5 34.9 23.5-6.8z"/><path fill="#09101b" d="M79 86h10v28H79z"/><path fill="#b7c7ca" d="M111.3 92l-6.4-12.3 4.7-24.5 27.5 17.4z"/><path fill="#070c08" d="M132 54h13v14h-13z"/><path fill="#242d32" d="M-8 147l37 38 4-79z"/><path fill="#240f09" d="M77 86l-12 17 11-8z"/><path fill="#edf6ff" d="M180 59h19v10h-19z"/><path fill="#667c73" d="M105 18h79v35h-79z"/><circle r="1" fill="#3e4a3d" transform="matrix(-1.23521 -2.21905 15.62925 -8.69988 134.6 0)"/><path fill="#a9b7c0" d="M87 75l-54-5 12-26z"/><path fill="#726f6a" d="M58.5 62.4l38.2 12.7-51.8-11.2 5.5-7.6z"/><circle r="1" fill="#937b53" transform="matrix(38.46781 -19.51583 6.2063 12.2333 251 63)"/><path fill="#452521" d="M124 86h4v38h-4z"/><path fill="#060b13" d="M171 79l6 9V60z"/><circle r="1" fill="#9f917f" transform="matrix(5.34642 11.74164 -19.47831 8.86922 54.8 134.6)"/><path fill="#210f04" d="M105.6 83.8L83 72.8l1.3-2.6 22.5 11z"/><path fill="#e5d5ba" d="M206 59l38-4-36-9z"/><path fill="#849391" d="M135 16h88v14h-88z"/><path fill="#1b1b1c" d="M108.7 89.4l5 3.3-10.4 15.9-5-3.3z"/><path fill="#462b34" d="M201 51h5v18h-5z"/><path fill="#c3bab2" d="M111 88h12v25h-12z"/><path fill="#4d634a" d="M74.7 6.9l21.6 11.3-15.5 11.6L53.5-16z"/><path fill="#95a6aa" d="M124.4 15.2L71.1 35.5l14.6 12.9L103.1-16z"/><path fill="#b2c9cf" d="M85.1 72.1l60.8-23.7L56.7 57 103 72.8z"/><path fill="#bacdd9" d="M25.1 55l54.6 19.2L41.2 91l-1-19.3z"/><path fill="#3b3b3b" d="M32.7 95.3l12.5 2.8-30.7-64.5 1.3 26.2z"/><ellipse cx="6" cy="90" fill="#c2cfee" rx="9" ry="31"/><path fill="#555f58" d="M2.6 21.3l52.2-9.9-21 27.7L45.9 54z"/><ellipse cx="225" cy="141" fill="#6b6247" rx="63" ry="66"/><path fill="#250306" d="M169 33h7v9h-7z"/><path fill="#3f3b2f" d="M82 137.8L50 185l84.8-46.6-105.1 44.5z"/><path fill="#606a5b" d="M262-16L173 3l59 4z"/><path fill="#d8e3fd" d="M17 16l12-1 5-8z"/><path fill="#6a3129" d="M87.1 126.3l62-21.7 5.7 2-.9 10.3z"/><path fill="#b9cdd0" d="M140 68.3l22.9 18.4-11-39.2-9.6 31.9z"/><path fill="#525b3c" d="M271-8.5l-14.1 48.7-41 8.9-16.5-5.7z"/><path fill="#292524" d="M107.1 86.5l-35.9 8.9L89 85.6l19.2 6.3z"/><path fill="#b8b6bb" d="M37 100h41v23H37z"/><path fill="#c4b29a" d="M182.1 70.3l66.5-23.6-32.2 25.8L179.5 88z"/><circle r="1" fill="#6f6861" transform="matrix(11.79013 -33.08777 4.13227 1.47245 17.5 110.7)"/><path fill="#4d6049" d="M89.7 52l-22.4 2.1L53 47.7l-8.3-11.4z"/><path fill="#aa9b82" d="M174 94.7l-1.6-19.4L151 89.5l2.1 16.3z"/><path fill="#e7e1f4" d="M26 0L13 1v6z"/><path fill="#59667e" d="M126 77h22v30h-22z"/><path fill="#fbffff" d="M80 3L70 6l7-7z"/><path fill="#c7c9c8" d="M97.2 88.2l-5.3 4-5.1 33.6 14.8-29z"/><path fill="#150d0e" d="M104.8 75.3L97 73.4l2.2-8.7 7.8 1.9z"/><path fill="#bcc4d2" d="M9.4 62.2l10.8 26.7-5.2 22.4-31 62.9z"/><path fill="#2b3525" d="M123 8.2L80.8.8l.2-1 42.4 7.4z"/><path fill="#bac2d1" d="M51.8 35.2L54 13.6 49.8-16h18.8z"/><path fill="#3b512f" d="M99 28l11-9 21 1z"/><path fill="#d6e2f3" d="M126.1-16l-.4 21.2 4.2 4.6L111-.7z"/><path fill="azure" d="M91 2l-4 1 9 10z"/><path fill="#4c4432" d="M103 185l58-48-86 29z"/><path fill="#8f9d99" d="M109.3 63.1l-85-43.3-1.5-4.8 28.9 11.5z"/><path fill="#8faaa9" d="M144 57.4l34.8 9.4-19.4-14.7-18.6-1.6z"/><path fill="#756660" d="M183.7 52.9l-11.2-26.4 10.2-2.6-18 49.8z"/><path fill="#d2edf2" d="M90 79l-7 5 5-9z"/><path fill="#a97862" d="M149.9 122.4l9 23.4-4.8 1.8-9-23.4z"/><path fill="#61675e" d="M-12.7 5.9L59-16 38.3 32.8 39-1z"/><path fill="#3f3934" d="M103.9 90.2l-7.7 30.2 16.4-24.5-13.9-26.6z"/><path fill="#aebac4" d="M20.3 42.8l8.9 6.8 18 2.2-10.7 26.9z"/><path fill="#2b4616" d="M101 11h7v4h-7z"/><path fill="#dde1e5" d="M170 69l-24 1 11 13z"/><path fill="#9cafaa" d="M102 31l-1-19-28 32z"/><path fill="#b97c66" d="M131 117h3v35h-3z"/><path fill="#baccd6" d="M82.1 68.3l14.7 7.2.6-26-45 11.5z"/><path fill="#2f3436" d="M37.2 92.9L-16 172.7 28.7 185l1.1-25.7z"/><ellipse cx="61" cy="20" fill="#203313" rx="5" ry="2"/><path fill="#a9a29e" d="M34.9 120.5l59.9 3.4 5.4-32.1-22.9 40.6z"/><path fill="#3d3426" d="M210.9 100.6l.9 1.8-76.7 39-.9-1.8z"/><path fill="#bacbd5" d="M55 66l23 19-43 29z"/><path fill="#8a938e" d="M213.9 37.6l-.2-13.5L261.1-16h-20.9z"/><path fill="#0a1926" d="M168 65l8 11 3-12z"/><path fill="#d2daee" d="M44 9v1L28 9V8z"/><path fill="#a1b4be" d="M205.4-16L185.8 4.3l6.4 11.7L174 9.7z"/><path fill="#d3e2f3" d="M77.1 14.6L64.4 22l10.8-1-10.8-3.8z"/><path fill="#c8d3e6" d="M87.1 4.8l36.3 5-33.5 3.4 8.8 5.6z"/></g></g></svg>