<svg xmlns="http://www.w3.org/2000/svg" viewBox="0 0 1800 1200"><defs/><filter id="a"><feGaussianBlur stdDeviation="12"/></filter><rect width="100%" height="100%" fill="#665036"/><g filter="url(#a)"><g fill-opacity=".5" transform="translate(3.5 3.5) scale(7.03125)"><circle r="1" fill="#bde7ff" transform="matrix(5.158 -33.31868 218.79658 33.8715 162 4)"/><path fill="#9bc1de" d="M205 0h51v141h-51z"/><circle r="1" fill="#839aba" transform="matrix(-99.8063 13.5457 -3.7333 -27.5074 31.4 22.5)"/><path fill="#afb8a5" d="M42 29l62 156-59-68z"/><circle cx="155" cy="83" r="52" fill="#262a11"/><circle r="1" fill="#ff9746" transform="matrix(6.3896 -.145 1.52835 67.3485 128.5 129)"/><circle r="1" fill="#001d75" transform="rotate(-60.7 147.2 -21.8) scale(16.60145 25.68199)"/><path fill="#fffff8" d="M206 89h25v26h-25z"/><circle r="1" fill="#88b2ff" transform="matrix(-88.85361 -40.78319 6.20074 -13.50944 194.7 18.6)"/><circle r="1" fill="#00192b" transform="matrix(16.2018 4.25046 -15.7891 60.18447 4.3 143.2)"/><circle r="1" fill="#edff6f" transform="matrix(-15.68522 3.61771 -.98763 -4.28205 101 58.3)"/><circle r="1" fill="#918275" transform="matrix(2.68719 -31.90789 79.66283 6.70897 99.4 163.9)"/><circle r="1" fill="#6e8057" transform="rotate(25.7 -145.4 621.3) scale(24.56171 113.75148)"/><path fill="#22140d" d="M170 45l-34-22-86 28z"/><path fill="#fff" d="M97 130l-17 21-1-21z"/><path fill="#f0ff85" d="M146 57h27v6h-27z"/><circle r="1" fill="#feaf91" transform="matrix(-46.58427 16.16963 -1.8819 -5.42169 95.2 29.5)"/><circle r="1" fill="#464825" transform="matrix(41.11771 5.63243 -1.23778 9.03599 45.8 23)"/><path fill="#482414" d="M62 45l-8 100 36-73z"/><circle r="1" fill="#ff958c" transform="matrix(28.63057 9.8583 -2.43223 7.06371 149.4 22.3)"/><circle r="1" fill="#061a23" transform="matrix(2.17773 -7.81692 35.132 9.78748 184.8 162.5)"/><path fill="#ffecc2" d="M169 125h5v45h-5z"/><circle r="1" fill="#2f322e" transform="rotate(128.8 86.4 79.6) scale(17.445 27.0662)"/><path fill="#231d14" d="M74 185l52-140-3 73z"/><path fill="#e1ba50" d="M100.5 85.6L67.2 96.7l103.7.3-63.8-4.9z"/><path fill="#0064ee" d="M80 104h15v29H80z"/><circle r="1" fill="#e0edb2" transform="matrix(6.65867 .31422 -.8731 18.5024 50.7 92.8)"/><ellipse cx="33" cy="6" fill="#4275c1" rx="59" ry="8"/><path fill="#efdebd" d="M226.3 75.7l5 46.5 17.4 14.5-32.3-6.1z"/><path fill="#ffe4bb" d="M72.8 143.6l-10-.2.4-27 10 .2z"/><path fill="#271c21" d="M142 100h62v39h-62z"/><path fill="#d69962" d="M144.5 115.8l-28.9 14.7-4 27.9 15.7 16.9z"/><circle r="1" fill="#374f3c" transform="matrix(-1.28722 -23.05003 41.38615 -2.3112 10.5 67.8)"/><path fill="#abc0d8" d="M40.5 46.6l-54.7-27.7 31.4 31.6 31.1-15.2z"/><ellipse cx="123" fill="#dae5e8" rx="37" ry="8"/><path fill="#5a563c" d="M233 76h23v46h-23z"/><path fill="#748467" d="M264.1 185l-63.5-32.1-63.6-5.2 127.9-17z"/><path fill="#86a7e4" d="M217 0h39v57h-39z"/><path fill="#3c6fc9" d="M189 29l64-45-55 17z"/><path fill="#f8ab1b" d="M26 119h14v14H26z"/><ellipse cx="172" cy="140" fill="#dcc397" rx="3" ry="24"/><path fill="#ff870e" d="M125 51h4v85h-4z"/><path fill="#e7c290" d="M145 155l28 11-29 13z"/><circle r="1" fill="#b2ff57" transform="rotate(161.1 46.3 36.5) scale(18.17841 3.64863)"/><ellipse cx="53" cy="130" fill="#171a20" rx="12" ry="9"/><path fill="#101706" d="M135 53l41 28-44 10z"/><path fill="#cdcfd4" d="M18 110.4v4l-36 1.2v-4z"/><path fill="#545d27" d="M210 63.5l40.3-7.8 1.7 8.8-40.3 7.8z"/><path fill="#65543d" d="M32 152h71v18H32z"/><path fill="#c0d0e8" d="M19.7 163.1l7.3-2.9 6.8 3.4-4.8 7.6z"/><path fill="#e0eaf3" d="M170 7h20v13h-20z"/><path fill="#d2dca6" d="M41 78h22v13H41z"/><circle r="1" fill="#ff9185" transform="matrix(1.07483 -3.42464 40.66603 12.76315 167.8 29.3)"/><ellipse cx="10" cy="77" fill="#a2a4c1" rx="14" ry="3"/><ellipse cx="129" cy="96" fill="#ca9a25" rx="37" ry="3"/><circle r="1" fill="#b6a493" transform="matrix(-84.47044 13.46252 -.15739 -.98754 144.8 149.5)"/><path fill="#141e25" d="M173 146h24v24h-24z"/><path fill="#ccc98e" d="M254 63l-20 2-17 26z"/><path fill="#eaedf1" d="M207.8 26.4l.4-13.7 21.8-3-1.9 10.8z"/><path fill="#3d281c" d="M130.3 97.4l7.7 50.5 32.1-6.4.5-33.7z"/><path fill="#150907" d="M99 98h26v24H99z"/><path fill="#11170e" d="M124 94L96 83l28-37z"/><circle r="1" fill="#0a1526" transform="matrix(9.4918 -10.06022 12.80697 12.08335 11 148)"/><path fill="#6b8096" d="M203 51h4v80h-4z"/><path fill="#4c1f04" d="M65.5 92.4L83 96l-4.6 21.5L61 114z"/><path fill="#282e21" d="M230 137l33-9 8 13z"/><ellipse cx="186" cy="146" fill="#b7b599" rx="37" ry="2"/><path fill="#323624" d="M-16 49l86 26-77-1z"/><path fill="#111c15" d="M213.6 142.6l-30.1 39.8 36.2-33.2-5.9-.3z"/><path fill="#fff" d="M81 132h12v6H81zm37-107.5l.4 1-78.5 24-.3-1z"/><path fill="#d8d0b5" d="M113 132l-14 8 16-4z"/><path fill="#3e4241" d="M179.4 156.6l36.5-34.1 2.7 3-36.5 34z"/><path fill="#242229" d="M203.3 53.1l24.7-5.9-58-4.6 31.3 75.1z"/><path fill="#633f1d" d="M109.1 82.7L98.5 62.5 49.8 92.1l-.2 5.7z"/><path fill="#266c37" d="M163 63h21v31h-21z"/><path fill="#d7cbc3" d="M263.6 121.3l-45.6 3.8 40.1 1.9 12.9 47.1z"/><circle r="1" fill="#282e2b" transform="matrix(7.42598 22.9913 -7.21737 2.33115 33.3 95.4)"/><path fill="#002b6c" d="M92 104l3 48 10-44z"/><ellipse cx="141" cy="163" fill="#311b12" rx="3" ry="22"/><path fill="#05121d" d="M22 168h56v2H22z"/><ellipse cx="155" cy="58" fill="#afff5e" rx="11" ry="3"/><path fill="#456fa5" d="M78 26L63-1l35 20z"/><path fill="#6e3916" d="M128 23h6v96h-6z"/><path fill="#9c936b" d="M246.4 91.7l7.2 3.1-19.4 1.3-31-33.8z"/><circle r="1" fill="#db9950" transform="rotate(116.4 24.4 107.2) scale(15.42973 7.63829)"/><path fill="#e2ffc2" d="M58.1 66.4L56.2 71 48 67.6l1.9-4.6z"/><circle r="1" fill="#342a1a" transform="matrix(-27.4802 .26922 -.06112 -6.23864 89.3 45.8)"/><path fill="#120f0e" d="M95 150l18-16-1 9z"/><path fill="#3c5e7c" d="M52 111l-4 13-25-14z"/><path fill="#928074" d="M22 157.4L35.6 185 3.1 164.9l38.4-6.6z"/><path fill="#fffff4" d="M92 90l6-5 5 2z"/><path fill="#76a2d6" d="M269.9 33l-55.7-5.6 11.4 35.5L271 35.8z"/><path fill="#8caddc" d="M10.8 16.5L-16 5.2 20.1-16 8.8 10.7z"/><circle r="1" fill="#455c83" transform="matrix(3.8844 -6.6208 13.56583 7.95903 221.4 167)"/><path fill="#fff" d="M237.5 93.5l.2-1 12.8 2-.2 1z"/><path fill="#51543a" d="M77 29L3 5l52 35z"/><path fill="#dbae73" d="M194 157l11-2 3-12z"/><path d="M145 154l20-5 2 11z"/><path fill="#4e4e29" d="M215 65h15v14h-15z"/></g></g></svg>