<svg xmlns="http://www.w3.org/2000/svg" viewBox="0 0 1800 1200"><defs/><filter id="a"><feGaussianBlur stdDeviation="12"/></filter><rect width="100%" height="100%" fill="#543151"/><g filter="url(#a)"><g fill-opacity=".5" transform="translate(3.5 3.5) scale(7.03125)"><ellipse cx="127" cy="72" fill="#f68a5c" rx="110" ry="43"/><circle r="1" fill="#1b1201" transform="matrix(247.7307 3.60753 -.49434 33.94646 119.6 146)"/><ellipse cx="255" cy="103" fill="#ea925d" rx="223" ry="10"/><circle r="1" fill="#724761" transform="matrix(14.44865 -38.52554 78.03161 29.26504 227.7 65.1)"/><circle r="1" fill="#f28354" transform="matrix(-2.25655 -21.46965 40.95843 -4.3049 89.5 69.6)"/><ellipse cx="104" cy="144" fill="#7b3b38" rx="54" ry="19"/><path fill="#8f4d53" d="M94-1L-3 70l159-42z"/><ellipse cx="96" cy="119" rx="248" ry="7"/><ellipse cx="87" cy="108" fill="#ffc85c" rx="50" ry="4"/><path fill="#68364e" d="M64 106L6 44l14 64z"/><circle r="1" fill="#352754" transform="rotate(89 72.6 149.3) scale(10.02276 22.03713)"/><circle r="1" fill="#000504" transform="matrix(1.04746 -7.35628 41.38012 5.8921 33 116.7)"/><ellipse cx="233" cy="45" fill="#7f4b5c" rx="81" ry="23"/><circle r="1" fill="#31336a" transform="matrix(3.47856 19.9302 -66.68061 11.63822 190.3 0)"/><circle r="1" fill="#e37f5a" transform="matrix(-47.08299 -10.79824 1.5326 -6.68254 128.9 64.4)"/><circle cx="34" cy="19" r="37" fill="#4e2f3f"/><ellipse cx="163" cy="140" fill="#5a333f" rx="67" ry="15"/><path fill="#061325" d="M271 97l-25 88-1-74z"/><circle r="1" fill="#bd7567" transform="matrix(55.73527 -11.00026 1.3289 6.7332 209.1 101.7)"/><path fill="#ffb660" d="M61 102h48v10H61z"/><path fill="#000e1a" d="M192 112h31v15h-31z"/><ellipse cx="73" cy="97" fill="#7d3944" rx="43" ry="4"/><path fill="#241a31" d="M17.4 21.4L34.2-16-16-11.4l3.9 47.5z"/><path fill="#633c55" d="M144 89V79h50v10z"/><path fill="#a45c61" d="M182 28h49v14h-49z"/><circle r="1" fill="#99525a" transform="matrix(-30.3076 -20.36586 7.60665 -11.31989 111.4 37.4)"/><path fill="#000c1d" d="M56 147h33v5H56z"/><path fill="#7d3b31" d="M110 147l-54 15-9 23z"/><circle r="1" fill="#121321" transform="matrix(2.53921 -36.90063 24.8959 1.71314 0 142.2)"/><path fill="#392a50" d="M0 88h44v12H0z"/><path fill="#b85d50" d="M32 58h39v27H32z"/><path fill="#ffaa61" d="M61 110l49-14 14 16z"/><path fill="#8e484b" d="M89.6 103l11.2-15.6 21.6-.9 51.5.9z"/><path fill="#001d47" d="M113.3 169.6l-37.9 9.5-2.7-10.7 37.9-9.5z"/><path fill="#df6034" d="M96.1 102l-47 10-1.2-6 47-10z"/><path fill="#7b4551" d="M76 40.5L64.1 51.2 32 15.5 43.9 4.8z"/><path fill="#684063" d="M188.6 55.4l-14.8 10.3-34.4-49.1 14.8-10.3z"/><path fill="#0b0b0e" d="M135.4 110l-13.1 1.5 12.3 13.8 20.1-2.3z"/><path fill="#6d3634" d="M69 125h87l-39 39z"/><path fill="#ae453e" d="M21 106h27v4H21z"/><circle r="1" fill="#1c161e" transform="matrix(2.5243 1.03529 -9.7897 23.86976 56.4 145)"/><path fill="#894d55" d="M16.8 84.6l-8-32 20.4-5.2 8 32z"/><ellipse cx="242" cy="47" fill="#58385b" rx="49" ry="7"/><ellipse cx="144" cy="103" fill="#e48152" rx="35" ry="8"/><ellipse cx="91" cy="64" fill="#d57655" rx="25" ry="24"/><circle r="1" fill="#a65a58" transform="matrix(24.47995 1.92466 -.78868 10.0313 179 72)"/><circle r="1" fill="#41272f" transform="matrix(40.5277 3.688 -1.14837 12.6195 165.7 160.4)"/><path fill="#dc7e5b" d="M74 57h85v14H74z"/><path fill="#865b5c" d="M231.8 94.2l14.1-10.4 1.2 31.3L224 114z"/><path fill="#d28a6b" d="M150 104h34v10h-34z"/><path fill="#915259" d="M80 23h78v10H80z"/><path fill="#fdd68d" d="M99 113l-22-6 28-2z"/><ellipse cx="226" cy="138" fill="#37253b" rx="36" ry="13"/><ellipse cx="79" cy="75" fill="#a65859" rx="28" ry="4"/><path fill="#141221" d="M261 144.5l11 34.3-39 12.7-11-34.3z"/><path fill="#e98752" d="M71 90l32-5-65-9z"/><path fill="#24161c" d="M237.1 66.4l4.8-54.8h1L238 66.4z"/><ellipse cx="219" cy="120" fill="#090e14" rx="161" ry="6"/><path fill="#0c080a" d="M239 65.5h1l-3 43h-1z"/><circle cx="127" cy="48" r="7" fill="#694363"/><path fill="#a85d59" d="M179 88h37v13h-37z"/><path fill="#9e5954" d="M263.2 69.1l-20 .7-.4-13 20-.6z"/><path fill="#0b1628" d="M250 108h6v25h-6z"/><path fill="#7e4b5e" d="M211 16h24v49h-24z"/><path fill="#070d13" d="M80 127h2v38h-2z"/><ellipse cx="22" cy="117" fill="#080a0f" rx="39" ry="8"/><path fill="#b35d52" d="M42.9 71.8l-21.6 8.3L57 89.6 101.8 11z"/><path fill="#663a51" d="M26.2 106.7l25.2-1.6 8.2-12.3-26.5-6.5z"/><path fill="#071424" d="M96.8 175l63.4-21.9-4.6-3.2-50.2 35.1z"/><path fill="#493155" d="M266.4 80.1l-48.2-17.6-6.8 8.8 6.5 9.3z"/><circle r="1" fill="#7d4751" transform="matrix(16.25879 -3.60693 6.73838 30.37424 93.2 9)"/><circle r="1" fill="#3d3361" transform="matrix(-32.01094 6.2631 -4.59223 -23.47107 181.2 2.4)"/><circle r="1" fill="#23110d" transform="matrix(.92972 -.36826 2.6971 6.80912 108.4 116.5)"/><ellipse cx="118" cy="107" fill="#ed894d" rx="4" ry="7"/><path fill="#a75047" d="M68.6 89.9l-27.3 21.3 52.9-14 6.2-6.4z"/><path fill="#a75858" d="M157.6 88.2L131.4 67l-10.7-1.4.9 11.8z"/><circle r="1" fill="#b9615a" transform="matrix(-3.65396 3.89107 -9.57827 -8.9946 134 35.9)"/><path fill="#0c0f13" d="M91 143h2v27h-2z"/><path fill="#7e3b33" d="M89 146l24-8-32-4z"/><path fill="#1c1f2c" d="M204.4 110.4l-29.8 6.5 46-6.7L217 126z"/><path fill="#4d2a34" d="M6 127h79v5H6z"/><path fill="#976e74" d="M238 102.1l-21.5 3.2-15.6 2.9 28.4 5.6z"/><ellipse cx="177" cy="83" fill="#674257" rx="25" ry="4"/><circle r="1" fill="#5d385a" transform="rotate(-60.1 54.2 -88.4) scale(7.14489 41.81155)"/><path fill="#8d4a51" d="M28.8 58.8l29.8 3.5 7.3-12L113 12z"/><path fill="#372b52" d="M9 65l-25-3L6 86z"/><path fill="#562b2d" d="M55 150l19-21-20 56z"/><ellipse cx="148" cy="137" fill="#563037" rx="32" ry="11"/><path fill="#ca6d53" d="M43.2 58.2l6.1 2.5 6.6 20.2-13 10.1z"/><path fill="#5a3650" d="M2 35h56v17H2z"/><path fill="#0e0604" d="M102 159h8v6h-8z"/><path fill="#342f59" d="M271 10.1l-42.1-1.9-63.5 8.4L247-16z"/><ellipse cx="230" cy="86" fill="#6c4656" rx="12" ry="6"/><path fill="#884a4f" d="M98 90h33v8H98z"/><path fill="#a85a5d" d="M159.1 71.8l-30-29.3 13.8-15.4 18 32.1z"/><circle cx="71" cy="112" r="2" fill="#321402"/><path fill="#0a0d14" d="M50 117l-66 12v-28z"/><path fill="#ffa75d" d="M96 85.9l-1.3 4.9L84.1 88l1.2-4.9z"/><path fill="#6b425e" d="M165.5 37.1l67.7-29.8-85.5 43.6 50.6 11.9z"/><path fill="#2c1d29" d="M19.1 175.9L3.4 132.7l23.5-8.6 15.7 43.2z"/></g></g></svg>