<svg xmlns="http://www.w3.org/2000/svg" viewBox="0 0 4752 3168"><defs/><filter id="a"><feGaussianBlur stdDeviation="12"/></filter><rect width="100%" height="100%" fill="#603430"/><g filter="url(#a)"><g fill-opacity=".5" transform="translate(9.3 9.3) scale(18.5625)"><ellipse cx="121" cy="40" fill="#d5f2e1" rx="136" ry="236"/><circle r="1" fill="#cff4fd" transform="matrix(4.9437 -42.51289 98.9309 11.50438 177.2 20.4)"/><circle cx="61" cy="122" r="85" fill="#7d5d4d"/><circle cx="192" cy="37" r="13" fill="#130000"/><circle r="1" fill="#3a535d" transform="rotate(18.6 -216.8 787.9) scale(23.04071 48.47523)"/><path fill="#e1ffff" d="M86 91l37-78L91-7z"/><path fill="#513227" d="M102 49h33v87h-33z"/><ellipse cx="27" cy="12" fill="#94cacd" rx="37" ry="60"/><circle r="1" fill="#000a0e" transform="matrix(-.18576 -12.25575 22.22073 -.3368 5.3 81.2)"/><path fill="#3a0000" d="M165 157h30v13h-30z"/><path fill="#f0f2f0" d="M144.9 94.8L191.1 45l-33.8.3-22.3-1z"/><circle r="1" fill="#b88348" transform="rotate(-138.1 154.8 37.6) scale(97.52101 12.59524)"/><path fill="#007d93" d="M0 41h43v12H0z"/><circle r="1" fill="#925a3e" transform="matrix(-9.08112 3.08015 -18.08925 -53.33196 203.2 88)"/><path fill="#2b0b00" d="M120.4 132.1l9.3-6 34.7 9.1-16.3 13.1z"/><ellipse cx="179" cy="144" fill="#f1ffff" rx="22" ry="9"/><path fill="#e9eeea" d="M92 160l74 6-72 19z"/><path fill="#399fe4" d="M223 89h28v30h-28z"/><path fill="#d3d8d2" d="M99 41L77 72l21 45z"/><circle r="1" fill="#fff" transform="matrix(-6.56435 -7.57809 17.5499 -15.2022 9.3 5.9)"/><circle r="1" fill="#87715e" transform="matrix(2.13406 -72.17035 7.33052 .21676 237.5 0)"/><path fill="#f4f9ff" d="M205 11h25v49h-25z"/><circle r="1" fill="#f5fbff" transform="matrix(-8.53863 -9.68517 35.46086 -31.26296 151.8 2.3)"/><path fill="#240000" d="M232 75h24v10h-24z"/><circle r="1" fill="#30d3e7" transform="matrix(-36.00681 -10.72378 1.16077 -3.89747 114.9 35.8)"/><path fill="#eaf6f6" d="M37 49.2l21 17-7 8.6-21-17z"/><ellipse cx="171" cy="96" fill="#c89e75" rx="26" ry="36"/><circle r="1" fill="#7b4c38" transform="matrix(14.72437 36.81355 -14.42977 5.7715 54.8 146.9)"/><path fill="#919480" d="M197-16l-57 47 98-30z"/><circle r="1" fill="#7e4731" transform="matrix(6.55572 3.2036 -7.25454 14.84544 55.7 43)"/><path fill="#1cc5da" d="M160.4 47.4l46.6-35-48.5 27.2-47.9-.1z"/><path fill="#bfb7a1" d="M25 116L3 99l53-24z"/><path fill="#7b3732" d="M130.3 100.9l4.5-8.5 16.2 5 86.3 36.4z"/><circle r="1" fill="#d3d8cf" transform="rotate(-52.4 41.4 -54.9) scale(28.24411 10.04768)"/><path fill="#a7976b" d="M197.4 176.8l1.3-26 84 4.4-1.4 26z"/><path fill="#2d2c2b" d="M127.3 55.2l-5.8 40.6-20.8-3 5.8-40.6z"/><path fill="#c7b598" d="M109.6 143.2l-2.4 9.4 63 20.3-9.1-21.6z"/><path fill="#dee9f9" d="M243 10h13v53h-13z"/><path fill="#ecf7ed" d="M245 118h11v6h-11z"/><path fill="#b37b6b" d="M115 99l19 20 2-65z"/><path fill="#32405f" d="M117 2.5l7 11-4.6-2.1-35.8-24.7z"/><path fill="#fffff4" d="M185 106h25v5h-25z"/><path fill="#aa806c" d="M59 82h33v70H59z"/><path fill="#473329" d="M213.4 126.4l51.9 14.9-4.7 16.3-51.9-14.9z"/><path fill="#fff" d="M119.1 13.2L79.8-16h-5.4l26.1 42.3z"/><path fill="#57331a" d="M48 74L20 92l7-22z"/><path fill="#683c2c" d="M104.6 138.7l14.2 7.9-30.3-8L99 109.5z"/><path fill="#e3f1b8" d="M201.1 125.7l-36.7-4.8-10.7.8-2.6-14.9z"/><path fill="#8d8670" d="M75.9 42.2l-8.6-23.5 18.8-6.9 8.6 23.5z"/><path fill="#fff" d="M173 33l-28 3 41-17z"/><path fill="#17a8b9" d="M149.1 46.7l53.3-27-12-3.1-18.5 23.9z"/><ellipse cx="15" cy="49" fill="#00737c" rx="26" ry="5"/><path fill="#705848" d="M198.8 58l13.9 46.3.2-28.5 29.4-.5z"/><path fill="#acb6bd" d="M-16 67l61 4-3-22z"/><path fill="#e9e9e6" d="M126 75.1l54.6-40.4 5.6 34.8-13.8-6.8z"/><path fill="#daeaed" d="M76 161h8v9h-8z"/><path fill="#2d2623" d="M185 27h17v16h-17z"/><ellipse cx="233" cy="133" fill="#007edd" rx="8" ry="3"/><circle r="1" fill="#c6b5a0" transform="rotate(-61.7 151.5 -85.1) scale(9.24994 28.08912)"/><path fill="#e0e8f1" d="M233 9.4l-39.1 48.7 13.2 3.1L229 27.8z"/><path fill="#b69f90" d="M217 76h9v46h-9z"/><path fill="#f0f4ff" d="M197 14l37-7-31 23z"/><path fill="#564135" d="M52.9 161.9l21.5-19.4 8.7 9.6-21.5 19.4z"/><path fill="#c9b499" d="M106.5 123.9l5.9-11.5-11.2 22.3 13 4.3z"/><circle r="1" fill="#d4e2e3" transform="matrix(1.90674 -9.34434 11.93404 2.43518 100.5 44)"/><path fill="#0069a1" d="M233 118l-3-12 28 3z"/><path fill="#eceddc" d="M90 103.1l5-.2 1 16-5 .2z"/><ellipse cx="166" cy="134" fill="#4b2e23" rx="32" ry="2"/><path fill="#85656b" d="M163 65l-17 11h35z"/><path fill="#eff6fd" d="M143.3 58.6l28.5-14.9-41.6 3.1 15.7 17.7z"/><path fill="#20c6d9" d="M86.3 23.8l48.2 20.3-44.6-14.7 19.2-5.1z"/><path fill="#4e332a" d="M45.1 139.8l1-12.4 11.3-32.3-5.7 39.5z"/><path fill="#9f795f" d="M211 105l-30-2 8-65z"/><path fill="#981732" d="M154 97l-22-7-6 18z"/><path fill="#693e27" d="M132.5 142.3l26.6 10.5 25.1 24.2-34.2-41.7z"/><path fill="#869085" d="M36 22l7-34-52 50z"/><circle r="1" fill="#544f4a" transform="matrix(-17.9989 2.2052 -1.36432 -11.1356 119.2 58.7)"/><circle r="1" fill="#a37f6b" transform="matrix(42.71148 -57.50838 7.8718 5.84639 41.3 107.8)"/><path fill="#93a5b0" d="M233.5 84.2l15 8.3-3.9 17.7-36.7-48.7z"/><path fill="#cbdfe4" d="M95.1 83.5L76.3 72.2l4.6-7.7 18.8 11.3z"/><path fill="#b48a4e" d="M158 177v-21l-22-7z"/><path fill="#917361" d="M58.5 21.6l27 14.4L93 57.5l-50.6-6.7z"/><path fill="#9e867a" d="M70 77h22v36H70z"/><path fill="#e6c890" d="M159 126h33v6h-33z"/><path fill="#9c9174" d="M205 112l32 17 34-2z"/><path fill="#baccc7" d="M63.6 23.6l28.9 3.2-42.7-9.7L6.1 50z"/><path fill="#dfe9ed" d="M121.1 5.3l23.5 36.5-34.8-8.2 53.1-26.2z"/><path fill="#b2794d" d="M204.1 127.1l2.5-23.3-17.5 33.8 51.8 6.7z"/><path fill="#edf5fe" d="M23.5-4.3L10.3 21.5-15.5 8.3l13.2-25.8z"/><path fill="#fdf2e0" d="M168.1 94.6l-5.1 6.6 11.2 1.5-2.5-11z"/><path fill="#189097" d="M37.1 52.6l7-8.4-3.5-12.4-7.9 11z"/><path fill="#fefff3" d="M229 80v-4l-15 1z"/><path fill="#95a9b7" d="M149-4.2l-14 16.8-10-8.4 14-16.8z"/><path fill="#898070" d="M241.2-18l9.7 2.2L241 28l-9.8-2.2z"/><path fill="#f8d5bd" d="M32 94l12-16 8 2z"/><path fill="#894521" d="M170.5 73.4L174 75l-6.6 13.5L164 87z"/><path fill="#5f2c03" d="M166 163h27v7h-27z"/><path fill="#4c5478" d="M1.4 49.2L8 51.4l-9.4 27.4-6.6-2.2z"/><path fill="#515456" d="M28.3 80.2l-2.9.7-7.7-31 2.9-.8z"/><path fill="#9a6c41" d="M203.2 146.8l13.5-18.3-19.7 45.2 29.3 11.3z"/></g></g></svg>