<svg xmlns="http://www.w3.org/2000/svg" viewBox="0 0 2239 2240"><defs/><filter id="a"><feGaussianBlur stdDeviation="12"/></filter><rect width="100%" height="100%" fill="#574132"/><g filter="url(#a)"><g fill-opacity=".5" transform="matrix(8.75 0 0 8.75 4.4 4.4)"><ellipse cx="154" cy="46" fill="#fff" rx="251" ry="66"/><ellipse cx="133" cy="216" fill="#aaa881" rx="255" ry="81"/><circle r="1" fill="#bdf4ff" transform="matrix(-254.94407 5.34032 -1.03511 -49.41568 136.4 39)"/><path fill="#120000" d="M161 73h21v27h-21z"/><circle r="1" fill="#dac69a" transform="matrix(-3.0013 -18.63336 54.54928 -8.7863 209.2 242)"/><circle r="1" fill="#080000" transform="matrix(-5.06029 40.05632 -7.94474 -1.00365 82.7 178.5)"/><ellipse cx="35" cy="47" fill="#d7ecff" rx="116" ry="33"/><path fill="#ffbe6c" d="M170.5 148.5l-20.4-31.9 18.1-26.5 9.5 39.5z"/><path fill="#0c070e" d="M185 195.7l-13.2-49.2 23.2-6.2 13.2 49.2z"/><circle r="1" fill="#87abda" transform="matrix(-8.8661 95.5818 -49.99326 -4.63734 223.5 21.3)"/><circle r="1" fill="#103240" transform="matrix(-33.87541 .53216 -.36634 -23.32021 24.2 123.8)"/><ellipse cx="245" cy="211" fill="#0e1919" rx="27" ry="10"/><path fill="#1a1421" d="M0 163h37v19H0z"/><circle cx="27" cy="226" r="47" fill="#a6976f"/><circle r="1" fill="#96b0c1" transform="matrix(23.90669 17.90038 -12.25133 16.36215 64.7 93.2)"/><circle r="1" fill="#405210" transform="matrix(51.758 -13.04542 3.39718 13.47838 89 255)"/><ellipse cx="95" cy="127" fill="#000918" rx="8" ry="23"/><path fill="#ffba69" d="M163 171h10v38h-10z"/><path fill="#5b6562" d="M268.7 104.1l-100.8-6-5-14.1 19.8 44.8z"/><path d="M157 179h6v43h-6z"/><circle r="1" fill="#7087ab" transform="rotate(77.1 85.7 140.8) scale(11.37012 53.8717)"/><ellipse cx="221" cy="65" fill="#bad6e8" rx="46" ry="29"/><path fill="#8296ad" d="M34 144.9l22.6-16.5L76 155.1l-22.6 16.5z"/><path fill="#2b2c29" d="M80 217l67-35-56 12z"/><path fill="#61341c" d="M176.6 168.4l2-1.9 18.3 43.1-30.1 18.4z"/><path fill="#a89670" d="M130.2 271h120.5l-100.9-58.8 3.7-126.7z"/><path fill="#150600" d="M162.4 73.7l12.9 24.5 8.9-8.4-5.1-14.4z"/><path fill="#96b0c4" d="M1.8 162.4l20.4-7.8-12.9-15.4-19.7-1.4z"/><path fill="#dab77e" d="M108 191.6L86.5 187l3.5-16.6 21.5 4.6z"/><ellipse cx="36" cy="9" fill="#c8dcf2" rx="116" ry="58"/><path fill="#b2a274" d="M59 215h52v28H59z"/><path fill="#52cbce" d="M157 143h16v16h-16z"/><ellipse cx="126" cy="103" fill="#658190" rx="33" ry="11"/><circle r="1" fill="#181117" transform="rotate(3.5 -2837.2 613) scale(2.4801 29.51289)"/><path fill="#ffa86b" d="M160 93h11v52h-11z"/><ellipse cx="222" cy="236" fill="#e9cfa1" rx="20" ry="12"/><path fill="#253234" d="M72.5 148.1l10.9-26.3-59.2-21.7-40.2 7.5z"/><path fill="#de9899" d="M26.4 181.9l58-31.9-2.6-27.6-7.3 28.7z"/><circle r="1" fill="#d9bc90" transform="matrix(-35.59809 4.7498 -.33442 -2.50638 126.6 169.2)"/><path fill="#ffffe3" d="M237 145h19v5h-19z"/><path fill="#434132" d="M108.8 212.4l26.9-5.5-4-72.7 8.9 87.8z"/><ellipse cx="212" cy="146" fill="#536f87" rx="29" ry="8"/><path fill="#331a14" d="M51 159H28l-16-23z"/><path fill="#b19f76" d="M202.1 174.6l.6 11.5 34.4.5-17.2-23.8z"/><path fill="#210c15" d="M95 144l-32 26 21 10z"/><path fill="#fbdda7" d="M12 183h16v13H12z"/><path fill="#5c402c" d="M195.5 122.2l-26-32.1 5.2 30.8 15.1 143.7z"/><path fill="#daae85" d="M48.9 204.5L32.3 178l28 17.8 2.7-57.2z"/><ellipse cx="236" cy="162" fill="#5d621d" rx="34" ry="9"/><path fill="#00444c" d="M189 161l-32 6 22-27z"/><circle r="1" fill="#bed8f1" transform="rotate(77.2 24.5 120.3) scale(11.84781 59.84278)"/><path fill="#b9b5ad" d="M193.6 21.6L86.8 17.7l13.9 14 48.6 11z"/><ellipse cx="148" cy="229" fill="#e8d095" rx="19" ry="4"/><path d="M160 200l-9-2 17 22z"/><path fill="#f9cb81" d="M197 214l-3-17 14-5z"/><circle r="1" fill="#de9769" transform="matrix(-4.01146 -26.52452 1.34098 -.2028 183.3 122.9)"/><ellipse cx="119" cy="143" fill="#fffa58" rx="3" ry="10"/><circle r="1" fill="#2f482d" transform="matrix(-1.0784 -14.41295 58.01254 -4.3406 244.3 126.2)"/><path fill="#ffac6f" d="M162 171l7 42 5-51z"/><path fill="#2e3d3c" d="M117.8 103.6l26.2 44.9 4.5-24.3-26.9-20.6z"/><path fill="#b99173" d="M189 177l-4-14-9 37z"/><ellipse cx="25" cy="93" fill="#93adbc" rx="135" ry="8"/><ellipse cy="236" fill="#cec4a4" rx="21" ry="7"/><path fill="#323e22" d="M197 242l-24 24-2-2 24-24z"/><path fill="#ceb391" d="M135.5 153.7l15-1.3 2 23.9-15 1.3z"/><path fill="#251d18" d="M102 210.7l-16.8 4.5 6.9-95.5-22.2 93.1z"/><path fill="#504c3b" d="M235 209l6 27 10-2z"/><path fill="#5c451e" d="M120.8 99.6l1.7 80.1-1.5-22.4 15-1.4z"/><path fill="#0b0a09" d="M180.6 201.8l9.1-21.2 9.8 6.3-14.7 18.5z"/><path fill="#fcf2e3" d="M127.4 20.3L144.8 1l11.8 10.7L139.2 31z"/><path fill="#435253" d="M97 125h14v45H97z"/><path fill="#404321" d="M79 253h94v3H79z"/><path fill="#878b89" d="M171.3 44l29.4-12.9-37.7-4.8-8.8 15.2z"/><circle r="1" fill="#e09f6f" transform="matrix(2.38059 -.42164 5.91854 33.41594 168.5 223.5)"/><path fill="#687f8c" d="M28 137h43v15H28z"/><path fill="#7d725c" d="M3.8 200.4l68 7.8L15 235l-5.8-88.6z"/><path fill="#fcad64" d="M26.1 169.1l-14.9-16.9 2.7.7 7.7-2.3z"/><path fill="#749dd2" d="M200 10h56v23h-56z"/><ellipse cx="153" cy="149" fill="#362a26" rx="3" ry="17"/><path fill="#000b23" d="M51 179l4-10-10 2z"/><path fill="#514e41" d="M217 186.1l-8.3 15.7-20.5 19.1 60.4-30.7z"/><path fill="#bdad87" d="M185 218h50v20h-50z"/><path fill="#f79c63" d="M173.8 127.8l-15.7-24.4L148 128l25.5-25.3z"/><circle r="1" fill="#adc9e6" transform="rotate(-60.2 48.2 -53.4) scale(18.30154 49.53722)"/><path fill="#90a5ae" d="M49 184.6l-6.9 1.3-5.1-26.5 6.9-1.3z"/><circle r="1" fill="#92a0a6" transform="matrix(-22.01248 -3.17205 2.25448 -15.64499 73.2 99.9)"/><path fill="#f3deb1" d="M229 248l31-16-28 5z"/><path fill="#81979f" d="M180 96h76v14h-76z"/><path fill="#636a24" d="M72.7 240.5l1.7 4.7-61 22.3-1.8-4.7z"/><ellipse cx="113" cy="231" fill="#c9b479" rx="24" ry="4"/><path fill="#d3d9c4" d="M155 145h7v10h-7z"/><path fill="#555745" d="M160.6 192.7L107 214l48.5 11-39.5 3.1z"/><path fill="#6c6a61" d="M230.8 239.7l-7.2 31.3-23.1-8.7 27.5-19z"/><path fill="#cec0a1" d="M146.9 198.9l-8.7-12.6 14.8 5 2.2 7.4z"/><path fill="#d6c09c" d="M120.3 155.3l-30.4 6.4-.2-1 30.4-6.4z"/><path fill="#555d2f" d="M89 239l30 32 32-41z"/><ellipse cx="54" cy="55" fill="#d6ecf7" rx="78" ry="11"/><path fill="#a4c3df" d="M271 104.5l-93.4-36.3 23.2-44.5 57.8 13.7z"/><path fill="#7b1e23" d="M71 165l-10 28v-30z"/><path fill="#5d5545" d="M-5.5 200.7l56.5-1.8-49.8-5.6-7.4 5.4z"/></g></g></svg>