<svg xmlns="http://www.w3.org/2000/svg" viewBox="0 0 1800 1200"><defs/><filter id="a"><feGaussianBlur stdDeviation="12"/></filter><rect width="100%" height="100%" fill="#37324f"/><g filter="url(#a)"><g fill-opacity=".5" transform="translate(3.5 3.5) scale(7.03125)"><circle r="1" fill="#b8c7ea" transform="matrix(-128.85942 -15.11764 9.19912 -78.41124 131.2 64.3)"/><circle r="1" transform="matrix(-115.49441 -4.63873 .3708 -9.23234 13.8 91.9)"/><circle r="1" fill="#ecdfe3" transform="matrix(101.37897 2.47765 -.48914 20.0143 134.2 70.4)"/><ellipse cx="147" cy="16" fill="#2353a9" rx="255" ry="22"/><ellipse cx="78" cy="119" fill="#a99087" rx="103" ry="19"/><circle r="1" fill="#5d4953" transform="rotate(95.9 68 154.9) scale(15.80706 82.83174)"/><circle r="1" fill="#7995d7" transform="rotate(-91.6 66.6 -17.5) scale(20.7914 146.3668)"/><ellipse cx="51" cy="91" rx="39" ry="10"/><circle r="1" transform="matrix(-26.0764 .21465 -.20386 -24.76566 25.4 169)"/><circle r="1" fill="#ffe1bf" transform="matrix(61.3577 -3.48245 .5109 9.0017 134.4 80)"/><circle r="1" fill="#041114" transform="matrix(-1.39763 -18.15216 122.319 -9.418 207.7 169)"/><path fill="#63647c" d="M68 130h142v20H68z"/><ellipse cx="227" cy="78" fill="#d3b7a7" rx="61" ry="9"/><path fill="#000b10" d="M9 175l20-80 1 54z"/><circle r="1" fill="#394f84" transform="matrix(-66.9068 -37.67538 7.9359 -14.09319 204.6 16.4)"/><ellipse cx="163" cy="103" fill="#c6adad" rx="97" ry="3"/><circle r="1" fill="#515263" transform="rotate(40.3 -40.8 370) scale(19.70912 32.76447)"/><ellipse cy="73" fill="#9f9394" rx="69" ry="11"/><path fill="#ac959a" d="M78 145v-43l151 12z"/><circle r="1" fill="#385d9f" transform="matrix(-7.8117 -15.4836 128.55589 -64.85822 30 21)"/><ellipse cx="101" cy="97" fill="#000006" rx="29" ry="4"/><path fill="#68677c" d="M29 101h40v35H29z"/><circle r="1" fill="#8395c3" transform="matrix(44.98502 4.4901 -1.1627 11.64884 225.7 63)"/><circle r="1" fill="#e5ac8a" transform="matrix(-.43964 3.3049 -51.12663 -6.80129 129.6 89.2)"/><ellipse cx="244" cy="91" fill="#242e53" rx="92" ry="3"/><ellipse cx="130" cy="75" fill="#e0d2d2" rx="42" ry="15"/><ellipse cx="25" cy="94" fill="#04060c" rx="94" ry="7"/><ellipse cx="7" cy="131" fill="#33465a" rx="14" ry="28"/><ellipse cx="239" cy="108" fill="#1a2946" rx="64" ry="3"/><path fill="#091a27" d="M0 153h95v17H0z"/><circle r="1" fill="#617fbf" transform="rotate(81.5 8.7 51) scale(13.12882 94.96985)"/><circle r="1" fill="#5972ae" transform="matrix(2.78394 -11.50744 96.66025 23.38458 228.3 42.9)"/><path fill="#c8a89c" d="M93 103h67v17H93z"/><circle r="1" fill="#273b5d" transform="matrix(.5618 -14.3672 61.13914 2.39071 230 0)"/><path fill="#707088" d="M132 149L33 99l-7 33z"/><ellipse cx="226" cy="119" fill="#777285" rx="58" ry="8"/><path fill="#333a4b" d="M195 125l73 10-123 38z"/><circle r="1" fill="#111419" transform="rotate(-25.4 483.2 -462.2) scale(39.10412 19.84564)"/><ellipse cx="113" fill="#354c8a" rx="102" ry="11"/><path fill="#9e666c" d="M183.9 93l-49.4 11 8.4 4.3-21.4-16.5z"/><path fill="#4c506d" d="M179 141l-54 17-12-23z"/><circle r="1" fill="#8193c5" transform="matrix(104.94705 -21.96409 2.32558 11.11191 40.5 56.8)"/><path fill="#957662" d="M0 78h74v5H0z"/><path fill="#2e2a43" d="M222 90h34v10h-34z"/><circle r="1" fill="#a6a9cd" transform="matrix(-52.45026 -11.29443 2.72574 -12.65808 154 60.4)"/><circle r="1" transform="matrix(.98375 .17952 -7.05263 38.64714 26 118.9)"/><path fill="#090a0e" d="M29.9 103.9L-16 84.6-5.4 83 56 85.1z"/><path fill="#4a5a78" d="M31 141h64v7H31z"/><path fill="#786f83" d="M205 118l-57 8 71 14z"/><ellipse cx="209" cy="102" fill="#a89baa" rx="56" ry="2"/><path fill="#17131c" d="M119 91l1 9h16z"/><path fill="#c9aa98" d="M227.1 76.9l-33.2 3.8 9.2 9.4 51.6-8.4z"/><path fill="#be9376" d="M261.5 83.5l9.5 7.7-27.7-2-18.9-6.2z"/><path fill="#705f5f" d="M30 103h30v16H30z"/><path fill="#beb1b6" d="M67 62h30v22H67z"/><path fill="#010f1a" d="M121.9 158l-39 26.2-2.8-4.1 39-26.3z"/><ellipse cx="5" cy="135" rx="19" ry="2"/><path fill="#636270" d="M4 102h19v28H4z"/><path fill="#2b3c5d" d="M117 149l-42-7-10 27z"/><path fill="#99888d" d="M88.7 131.4l23-31.2-47.7 1.2-4.1 32.6z"/><path fill="#687492" d="M88 185l16-26-36 26z"/><path fill="#f8dab2" d="M129.7 78.9l-7.6-.7-16.3 13.3 58.6-5.4z"/><path fill="#8e8292" d="M217.3 110.6l-105.5 22.5 37.7 8.4 46.2-18.1z"/><circle r="1" fill="#3b5283" transform="matrix(-5.27927 10.2284 -39.79998 -20.5423 228 23.7)"/><path fill="#2c3751" d="M129 159l15 4-3-23z"/><ellipse cx="184" cy="88" fill="#2d4272" rx="18" ry="2"/><path fill="#222737" d="M246.9 150.6l-48.2-9.8-.9-.4 25.1 23.9z"/><circle r="1" fill="#3b5d99" transform="rotate(-33.3 51.2 -10.6) scale(34.43176 9.3066)"/><ellipse cx="66" cy="159" rx="2" ry="19"/><path fill="#0b131a" d="M35.4 136.9l-12.1 13.6-1.8-17 63 12.3z"/><ellipse cx="203" cy="96" fill="#7a5063" rx="30" ry="4"/><path fill="#5d5574" d="M134 98h67v4h-67z"/><ellipse cx="92" cy="136" fill="#6e708f" rx="32" ry="7"/><path fill="#b0757c" d="M129 94h78v3h-78z"/><path fill="#8592c5" d="M172 38l63 29-130-21z"/><path fill="#0e121f" d="M32 83h36v13H32z"/><circle r="1" fill="#1f3350" transform="matrix(83.95115 64.59354 -10.81271 14.0531 255 0)"/><path fill="#4e5067" d="M244.5 133.6l-65.4 10-13.9-2.2 105.8-33z"/><circle r="1" fill="#a4a1b5" transform="matrix(-.22515 -8.94343 21.05212 -.52998 228.2 70.5)"/><ellipse cx="168" cy="104" fill="#c5adaa" rx="68" ry="1"/><path fill="#6c6b87" d="M123.7 157.3l9.4-13 3.2 2.4-9.4 13z"/><circle r="1" fill="#101017" transform="matrix(-25.43224 18.64756 -6.42194 -8.75849 15.7 167.2)"/><path fill="#0d1728" d="M103.4 156.5l-41.4 28-3.4-5 41.4-28z"/><path fill="#1f202e" d="M74 89h30v9H74z"/><circle r="1" fill="#caa185" transform="rotate(-80.6 90.5 -6.7) scale(2.74639 18.76264)"/><path fill="#efb790" d="M218.3 89.5l-1.6 1.2-5-6.2 1.6-1.2z"/><circle r="1" fill="#6781b0" transform="matrix(-3.46714 -8.55166 24.91912 -10.10308 6.7 55.2)"/><path fill="#484558" d="M165 166h36v2h-36z"/><path fill="#a5a9c9" d="M82.8 73.4L148 59l-63.3-5.2L30 71.5z"/><path fill="#92899c" d="M42 120h107v5H42z"/><path fill="#9b929b" d="M60 78.4l20.4 5-92.1-7.5 46.2-10.1z"/><path fill="#7d7392" d="M150 110.6l-.2 3-25.9-2.2.3-3z"/><path fill="#dbb9a5" d="M118 103h29v5h-29z"/><path fill="#595969" d="M18.1 109l-26.7-5.4 35.1 2-10.2 49.9z"/><path fill="#09090b" d="M51 97l-67 4 32-19z"/><path fill="#000f16" d="M40 138h19v2H40z"/><path fill="#535371" d="M104.2 152.6l85.1-12-2.4-2.7-65.3 5.5z"/><circle r="1" fill="#676487" transform="rotate(74.5 23.6 153.7) scale(1.67947 20.36128)"/><circle r="1" fill="#6a7db9" transform="matrix(1.05357 -9.47575 35.98339 4.00084 159.2 33.6)"/><path fill="#484862" d="M223.3 85.9l19.6 6.1-59.6 8.6h52.4z"/></g></g></svg>