<svg xmlns="http://www.w3.org/2000/svg" viewBox="0 0 1875 2812"><defs/><filter id="a"><feGaussianBlur stdDeviation="12"/></filter><rect width="100%" height="100%" fill="#394044"/><g filter="url(#a)"><g fill-opacity=".5" transform="translate(5.5 5.5) scale(10.98438)"><circle cx="92" cy="135" r="170" fill="#f6fff7"/><ellipse cx="79" cy="103" fill="#4d666b" rx="130" ry="22"/><path fill="#1d3e23" d="M48.3 185.4L42 151.3l-10.6-.1-10.6 68.5z"/><circle cx="63" cy="121" r="16" fill="#2e0600"/><circle r="1" fill="#c5ca9c" transform="matrix(133.90892 -44.54557 17.37692 52.23693 92.5 244.4)"/><circle r="1" fill="#a6aacb" transform="matrix(-155.18734 -15.28953 5.732 -58.17923 93.6 13.8)"/><circle r="1" fill="#9fbfad" transform="rotate(93 3.2 128) scale(26.94081 55.7179)"/><circle r="1" fill="#4b290c" transform="matrix(1.08946 -3.60846 27.2764 8.23523 98.7 163.6)"/><path fill="#b0d3c7" d="M-16 105l80 61-24-60z"/><circle r="1" fill="#697657" transform="matrix(-22.15843 4.88892 -6.56377 -29.74945 36.5 190.8)"/><ellipse cx="108" cy="94" fill="#52626d" rx="170" ry="10"/><circle r="1" fill="#000009" transform="matrix(-3.8978 13.24746 -3.9157 -1.15212 31.2 181.5)"/><path fill="#415a48" d="M100.8 157.5l-17.5 8.3L40.9 116l26.6 45.3z"/><path fill="#9cb9ab" d="M25 172l-41-16 74-60z"/><path fill="#f1ae82" d="M101.1 154.4l-.2.5 41.7 22.9-45.1-16.3z"/><circle r="1" fill="#e5fffc" transform="rotate(-135.3 52 62) scale(11.85552 5.73359)"/><path fill="#63a28a" d="M37 144v65l24-32z"/><path fill="#d59167" d="M28 228.9l-7 .8-7-56.6 7-.8z"/><path fill="#b1c3ab" d="M59 174h64v33H59z"/><path fill="#8e94af" d="M-16 84l187-1L-2 22z"/><path fill="#97ada4" d="M79 105h92v51H79z"/><path fill="#86613b" d="M65 146l-19-17 23-9z"/><path fill="#392a23" d="M76.4 122l-6.5-21-16.2 2.3.9 17.2z"/><path fill="#212c30" d="M94 165l-32-7 37-2z"/><circle r="1" fill="#b9bfa2" transform="matrix(-3.88523 -62.0668 10.03126 -.62793 7 217.8)"/><path fill="#181922" d="M39 157l-8 27-4-20z"/><path fill="#e7f4e3" d="M74.5 147.6l38.2 15.6-38.4-11.8-2-8.4z"/><path fill="#8ea39f" d="M0 105h49v31H0z"/><circle r="1" fill="#abb0bd" transform="matrix(5.35819 -23.09632 164.5613 38.17708 82.4 0)"/><circle r="1" fill="#8f623f" transform="rotate(-66.4 191.2 -5.4) scale(2.95435 19.72947)"/><path fill="#969872" d="M-16 219l48-21 34 15z"/><path fill="#3d4354" d="M38.6 78.8h.2l1.5-6.7 11.2 1z"/><circle r="1" fill="#a3b7a2" transform="matrix(-51.67162 -18.88153 4.50564 -12.33024 150.7 165.1)"/><path fill="#c4f9f2" d="M43 197h14v3H43z"/><path fill="#b7bb9d" d="M16 215h135v41H16z"/><path fill="#a6b9a6" d="M186 204.7L71.5 192.9 42 151.3l53.2 15.8z"/><path fill="#b5d8d2" d="M37 137l-21 20 3 15z"/><path fill="#caeae4" d="M47.2 146l16.6 6.7-3 7.4-16.6-6.8z"/><path fill="#545247" d="M55 181h3v30h-3z"/><path fill="#2c373d" d="M115 88l-3.7-8.3 3.7-1.6 3.7 8.2z"/><path fill="#728085" d="M0 94h110v10H0z"/><path fill="#924e35" d="M19 180l-4 10-2-24z"/><path fill="#212528" d="M78.7 122l-3.6 7.1L49.3 116l3.6-7.1z"/><circle r="1" fill="#9aa780" transform="matrix(-16.61375 21.91725 -6.94151 -5.26181 44.7 222.8)"/><circle cx="59" cy="132" r="10" fill="#856548"/><path fill="#66a194" d="M68 139l7.1 17.6L64 161l-7.1-17.7z"/><path fill="#4c6170" d="M20 83h61v5H20z"/><path fill="#b9baba" d="M70.8 84.8L30.6 79l19.2-1.2 15.5 8z"/><path fill="#dcefe9" d="M45.1 145l4.1-4.6-25.7 4.6 25.6-12.7z"/><path fill="#899381" d="M158.5 227.8L186 208l-10.7 36.6 10.7 3.2z"/><path fill="#4f6167" d="M137 86h34v15h-34z"/><path fill="#856b4f" d="M37 206l-23-13 17 22z"/><path fill="#72a08c" d="M23 176l4-23 13-11z"/><path fill="#2a263b" d="M30 197l-7 2 3-17z"/><path fill="#624630" d="M136.5 182.1L119 170.7l.6-.8 17.6 11.4z"/><path fill="#cc987a" d="M28 208.6l-8.6-12.9 6.3-14.4-15-18.2z"/><circle r="1" fill="#979eae" transform="matrix(153.53214 13.43232 -1.3449 15.3723 143.6 66.8)"/><path fill="#77c7be" d="M47 188h7v9h-7z"/><path fill="#66493d" d="M60 99l12 7-24 7z"/><path fill="#385849" d="M59.8 142.9l-2.4 1.6 1.7-8.6 9.7 12.3z"/><path fill="#c9bead" d="M82 81h13v4H82z"/><path fill="#9aafa1" d="M36.6 129.1l-25 46.8-28.2-15 25-46.8z"/><path fill="#647378" d="M2.2 90.8l57.5 16.7 12.9-28.2 18.1 7.4z"/><path fill="#608472" d="M45.9 167.9l-13 35.6 5.4-48.2 17.9 7.2z"/><circle r="1" fill="#c1bca9" transform="rotate(103.7 -36.3 177.6) scale(8.93019 52.48973)"/><path fill="#91a6a2" d="M87.3 89.6L82.9 88l22 54-29.2-32.1z"/><path fill="#e0b592" d="M107 159l-6 6-3-12z"/><path fill="#0f0a0e" d="M90.4 161.7l-.2 1-22.6-4.4.2-1z"/><path fill="#afdcca" d="M72 146h7v11h-7z"/><path fill="#b3644b" d="M131 174h8v5h-8z"/><path fill="#252527" d="M23 193l14-19-1-20z"/><path fill="#868768" d="M38.1 202.1l24.3-4.8-8.2 15.6-2.4-6.9z"/><ellipse cx="96" cy="178" fill="#a7b4a3" rx="32" ry="8"/><path fill="#86a39c" d="M146 106h25v29h-25z"/><path fill="#3a4150" d="M51.4 74.9l-15-.8.2-3 15 .8z"/><circle r="1" fill="#9ba3b6" transform="matrix(-98.3093 4.12038 -.51566 -12.30338 28.8 19.8)"/><path fill="#a5aa84" d="M23.2 246.5l23 2-1.4 15-23-2z"/><path fill="#0f1610" d="M91 166.5v-3h4v3z"/><path fill="#fff" d="M37 79h12v1H37z"/><path fill="#94aa96" d="M84.3 162.7l40.9 19.5-48-10.1-40.6-16.3z"/><path fill="#262524" d="M61.5 107.8l5.7 5.7-12.7 12.7-5.7-5.7z"/><path fill="#778099" d="M25.6 84.3l-2-42 .1 36.3L-7.2 87z"/><ellipse cx="92" fill="#b0b4c1" rx="170" ry="6"/><circle r="1" fill="#86684f" transform="rotate(63.6 -72.6 116.4) scale(8.72778 8.04343)"/><circle r="1" fill="#aab7a8" transform="rotate(-64.8 237.8 -26.7) scale(17.99672 32.00709)"/><path fill="#8db0a0" d="M19.3 140.9l24.6 15.4-1.1-7.5-7.8 7.7z"/><path fill="#d7ede8" d="M34.3 139.8l12.5-11.7-1 11.8 6.6 7.6z"/><path fill="#96aba4" d="M4.7 148.5L-16 119.6l66.3.2-3.6 12z"/><path fill="#81989b" d="M0 104h49v11H0z"/><path fill="#a6bbac" d="M23 174h3v14h-3z"/><circle r="1" fill="#658d7a" transform="matrix(10.49823 2.07163 -.1936 .98108 75.9 155)"/><path fill="#adbda5" d="M17.9 206.3l-29.5 5.8-6.3-32.4 29.5-5.8z"/><path fill="#7aaea1" d="M44.3 137.1l29 14.7-16 1.3-4.1-15.7z"/><path fill="#423733" d="M66.6 123.7L81 125l-7.4 1.8-15.7-.7z"/><path fill="#8e95a6" d="M50 26l1 45-15 1z"/><path fill="#558b86" d="M50.1 182.6l-9.9 3.2L23.7 201l25.3-5.4z"/><path fill="#735d50" d="M55.3 102.6l23.9 1.3-6.7-.6 7.3 14.1z"/><path fill="#95aaa1" d="M163 164.5l23-39.7-120.7-23 23.8 14.6z"/><path fill="#6f4939" d="M18.5 203.3l-6-26.3 1-.3 6 26.3z"/><path fill="#25262b" d="M82.6 156.9l15.9 8.7-16.8-4.2-6.6-3.8z"/></g></g></svg>