<svg xmlns="http://www.w3.org/2000/svg" viewBox="0 0 1800 1200"><defs/><filter id="a"><feGaussianBlur stdDeviation="12"/></filter><rect width="100%" height="100%" fill="#454647"/><g filter="url(#a)"><g fill-opacity=".5" transform="translate(3.5 3.5) scale(7.03125)"><circle cx="31" cy="108" r="252" fill="#fffffb"/><circle r="1" fill="#ffff56" transform="matrix(223.79288 -9.76398 2.14134 49.07996 209 10.6)"/><circle r="1" fill="#fff" transform="matrix(-7.6903 43.24947 -251.06193 -44.64197 115.2 165)"/><circle r="1" fill="#ffff60" transform="matrix(21.33074 56.70482 -28.89122 10.86805 243.1 62.8)"/><circle r="1" fill="#19a3fd" transform="matrix(9.3342 -11.15674 38.91275 32.55605 182.5 65.4)"/><circle cx="97" cy="38" r="41" fill="#ffff69"/><path fill="#1b244c" d="M-16 32l120 56-53 2z"/><circle r="1" fill="#f8fafa" transform="matrix(114.0609 110.33775 -16.29599 16.84587 44.2 130)"/><circle r="1" fill="#2b84ad" transform="matrix(-11.77165 -2.8888 10.0822 -41.08427 145.3 60.1)"/><circle r="1" fill="#cdd6da" transform="matrix(-26.84538 -32.32914 21.38218 -17.75528 191.6 115.5)"/><path fill="#ea1a00" d="M159.7 62.9l4.8 1-26.2 123.2-4.8-1z"/><path fill="#fff670" d="M120 103L152-6-10-9z"/><path fill="#3e5228" d="M101 113.8l-54.4-8.2 88.1 19-42.1-46.8z"/><path fill="#fff874" d="M130-16l141 148V-16z"/><path fill="#29bdff" d="M155 84l53-4 11-25z"/><path fill="#16c5fc" d="M12.9 47l2.1-2.5 8.3-5.1 27.6 28.1z"/><ellipse cx="44" cy="37" fill="#fff96a" rx="8" ry="28"/><circle r="1" fill="#edf0f2" transform="rotate(-1 9754.8 -5857) scale(141.13074 7.14221)"/><path fill="#084d8d" d="M6 133h14v11H6z"/><path fill="#7e4541" d="M144.4 46.6l-4.3-15 18.2-18.5-.6 29.6z"/><ellipse cx="20" cy="9" fill="#ffeb75" rx="134" ry="30"/><path fill="#d4d3d4" d="M83 110L33 80l67 18z"/><path fill="#344644" d="M68 69l33 29 12-11z"/><ellipse cx="161" cy="56" fill="#5cc2ff" rx="36" ry="7"/><circle r="1" fill="#dececb" transform="rotate(113.3 54.7 146.4) scale(29.09264 67.34791)"/><path fill="#d01600" d="M168.7 72.9l-2.8-11.7-15.4 12.7 1 3.1z"/><path fill="#ffff61" d="M130.4 72l-7.1 33.3-15.7-3.3 7.1-33.3z"/><circle r="1" fill="#5b8937" transform="matrix(.90123 -2.04335 39.93445 17.61319 60.1 102.3)"/><path fill="#2f9787" d="M116.8 113.3l10.1 2.6L147 72.3l-4.3-14.9z"/><path fill="#02a4ff" d="M11 164.7l-5.9-6.8 9.9-8.6 5.9 6.8z"/><path fill="#f7f7f6" d="M16.5 185l.6-51.2 29.4-14.7L97 156.4z"/><path fill="#0ea4e4" d="M69.3 69.3l-11.2 3.8 7-20.7.3.4z"/><path fill="#351a5a" d="M27.6 76l-39.1-51.7 35.2 35.9L69.8 85z"/><circle cx="191" cy="19" r="31" fill="#ffe972"/><circle r="1" fill="#b0b8a7" transform="matrix(-45.4219 1.24318 -.25415 -9.28575 101 128.5)"/><path fill="#4b737e" d="M244 137l27 1-48-41z"/><circle r="1" fill="#0cb4ff" transform="matrix(-2.45977 .2598 -1.84241 -17.44322 134 73.5)"/><path fill="#0097ff" d="M32.2 46l-10 6.6-4.4-6.7 10-6.5z"/><circle r="1" fill="#fff171" transform="matrix(16.97433 -10.47418 17.27087 27.98895 240 84.9)"/><path fill="#32545d" d="M99.2 101.8l33.4 7.7-23.4 5.7.3-43.5z"/><path fill="#5abee4" d="M179.1 89.7L165 64.6l26.3-15.2 44.5 63.4z"/><ellipse cx="194" cy="147" fill="#e39482" rx="50" ry="3"/><path fill="#77daff" d="M154 90l-20 11 13-32z"/><path fill="#1aadf5" d="M210.1 78l18.4 20-52.3-42.2 35.2 7z"/><path fill="#cac8cd" d="M94 123.2l-110-15.1 50.6-35 7.5 25.5z"/><path fill="#ffe975" d="M165.9-3.1L53.3 65l3.6-21 41.5 41.5z"/><circle r="1" fill="#da4d2b" transform="matrix(3.35017 .54861 -4.45928 27.23122 147 128.6)"/><path fill="#fbe975" d="M146 21l-21 50L-3 29z"/><path fill="#3f8337" d="M136.9 62.9l10.1-3.5 3.1 11.4-17.3 1.7z"/><path fill="#e98670" d="M150 154h54v4h-54z"/><path fill="#00abff" d="M52 49.3l3.8 1.6-5.9 13.8-3.7-1.6z"/><path fill="#fae972" d="M-16 12.9L83.3-.9 42.6 67.8 31 41z"/><path fill="#a7bbc1" d="M187.4 71.8l-28.7 9.3-8.4 48.9 72.1-30.5z"/><path fill="#828d99" d="M156.3 61.4L145 46.1l18.6-13.5L175 47.9z"/><path fill="#19a9ec" d="M109.8 86.7l-4.7 5.4.3-12.1 5.6-4.8z"/><path fill="#f5f6f6" d="M-16 112.5l37.9 45.8-37.9-23.5 32.4-1.1z"/><path fill="#feffff" d="M69 101l28 10-10-13z"/><path fill="#a2a1a1" d="M223.8 106.3l-52.3 9 43.8 13.1 32.5.8z"/><circle r="1" fill="#878454" transform="matrix(.29254 -2.0053 14.94503 2.18024 162.3 18.5)"/><path fill="#454133" d="M156 36l-9-10-9 19z"/><path fill="#ffe27a" d="M161 15l22 32-26-19z"/><path fill="#1e9fe1" d="M193.6 64.2l23.8-7.2 3.4 2.9-14.7 8.9z"/><circle r="1" fill="#ffe876" transform="rotate(173.2 123.4 30.5) scale(30.65206 76.2808)"/><path fill="#41b7fc" d="M143.7 67.8l-9.9 9.6-9.4 20.8 3.6 7.1z"/><path fill="#a19cab" d="M-1.4 86l95.2 14.2-59.2-26.9-7.3 11.2z"/><circle r="1" fill="#54c1f9" transform="matrix(-9.74891 9.71494 -8.74103 -8.7716 183 62.4)"/><path fill="#e02800" d="M152.2 110l-1-.2 8.6-31.9 1 .3z"/><path fill="#554e47" d="M106.4 87.9l-34.7-6.3 28.1 19.6 18.3 22.4z"/><path fill="#bdbabf" d="M38.3 91.2L-16 48l15-4 19.7 18.2z"/><path fill="#003375" d="M12.8 133.2l4.7 3.8-6.3 7.8-4.7-3.8z"/><path fill="#7ac9eb" d="M153 70l11-22h-25z"/><path fill="#37b1f0" d="M129 74l19-24-15 3z"/><circle r="1" fill="#daddde" transform="matrix(-6.15474 9.56388 -37.21064 -23.9465 126 161.7)"/><path fill="#fbeb74" d="M76.9 74.2l47.2 4L149-.5 64.2 61.2z"/><path fill="#e6e9e7" d="M11.2 145.1l-.2-9.8 96.1-6.6-90.4-6.5z"/><path fill="#2baae3" d="M22.1 40.2l3.2 17.3 15.5 2-11.3-17.7z"/><path fill="#48a2bd" d="M64 53l8 21H54z"/><ellipse cx="47" cy="34" fill="#7e8240" rx="7" ry="2"/><path fill="#81c5de" d="M160 78h31v17h-31z"/><path fill="#57862d" d="M88.7 114.2L87 118 35.3 93.8 37 90z"/><path fill="#6e7b57" d="M125 123l7-23-37 12z"/><path fill="#ffeb6c" d="M231 55l-20 11 6 16z"/><path fill="#dededd" d="M-5 87l47 3-39 50z"/><path fill="#9d43c0" d="M155 22.9l-6.9-.9.9-6.9 6.9.9z"/><ellipse cx="176" cy="143" fill="#f0f6f5" rx="27" ry="3"/><path fill="#fbeb73" d="M-16-2.9L4.7 41.5l7.9 2.7 94.8-59.3z"/><path fill="#b3b9af" d="M102.4 117.5l-12.2-11.6L69.4 132l29.7-40.5z"/><path fill="#1b006e" d="M22 61l10-3-4 19z"/><path fill="#8d8685" d="M247 123l24 24-63-24z"/><circle r="1" fill="#ffec75" transform="matrix(-8.71123 -.10643 .37186 -30.43565 118.5 75.5)"/><circle r="1" fill="#4c7827" transform="matrix(5.29459 -18.9631 .96316 .26892 141.4 78.3)"/><circle r="1" fill="#dd3814" transform="matrix(4.73253 -29.88 1.82994 .28983 147.1 130.2)"/><path fill="#88968c" d="M68.4 74L65 80 47.6 70l3.5-6z"/><path fill="#ed18ff" d="M168 28h3v6h-3z"/><path fill="#959796" d="M137.4 109.2l-54.7 21.3-5.7-7.1h57.9z"/><path fill="#acbfc5" d="M142 133l-3-41 13-2z"/><path fill="#868e90" d="M239 166h16v4h-16z"/><path fill="#fbea76" d="M254.6 53.2l5.9-69.2-92.2 49.1 6 15z"/><path fill="#f6f7f6" d="M32 138l-30 9-5 13z"/><path fill="#b53828" d="M163.4 66.2l2.1 14.5 5.9-10.6-24.4 3.1z"/></g></g></svg>