<svg xmlns="http://www.w3.org/2000/svg" viewBox="0 0 1800 1200"><defs/><filter id="a"><feGaussianBlur stdDeviation="12"/></filter><rect width="100%" height="100%" fill="#2c344c"/><g filter="url(#a)"><g fill-opacity=".5" transform="translate(3.5 3.5) scale(7.03125)"><ellipse cx="129" cy="24" fill="#c9a77c" rx="130" ry="98"/><circle r="1" fill="#b39882" transform="matrix(4.86589 -54.80062 69.70977 6.1897 135.4 15.5)"/><circle r="1" fill="#545046" transform="matrix(-23.81035 -29.09838 197.35054 -161.48612 200.7 99.5)"/><path fill="#544f42" d="M51.2 173.3L-48.6 30.8 8.8-9.3l99.8 142.5z"/><ellipse cx="236" cy="146" fill="#242415" rx="48" ry="26"/><circle r="1" fill="#24271b" transform="matrix(-38.35399 -20.73792 17.12917 -31.67973 24.7 157)"/><ellipse cx="73" cy="105" fill="#64605f" rx="170" ry="16"/><circle cx="170" cy="56" r="10" fill="#ffc988"/><ellipse cx="123" cy="79" fill="#787274" rx="73" ry="26"/><circle r="1" fill="#53483f" transform="matrix(-25.836 -5.8143 16.47124 -73.1905 253.7 49.6)"/><circle r="1" fill="#4f493f" transform="rotate(-13.6 300 24.8) scale(26.10805 53.28573)"/><circle r="1" fill="#7d695b" transform="matrix(-23.81872 26.50696 -18.80256 -16.89567 210 34.2)"/><ellipse cx="133" fill="#a88c70" rx="86" ry="24"/><path fill="#383a3b" d="M170.5 121h43v62h-43z"/><circle r="1" fill="#85786f" transform="rotate(-42 91.5 -89.5) scale(18.68599 58.80156)"/><ellipse cx="60" cy="144" fill="#353a3f" rx="28" ry="23"/><path fill="#676259" d="M70 166h150v3H70z"/><path fill="#666261" d="M53 98h154v23H53z"/><ellipse cx="124" cy="122" fill="#272d31" rx="153" ry="2"/><ellipse cx="158" cy="152" fill="#292f34" rx="71" ry="5"/><circle r="1" fill="#74675d" transform="matrix(9.29994 -3.7197 20.13829 50.3493 38.4 32)"/><circle r="1" fill="#5a5652" transform="matrix(-31.90937 -43.09595 12.3608 -9.15226 25.3 76.9)"/><path fill="#ffcf8b" d="M175 45l5 12-19-7z"/><circle r="1" fill="#534f4c" transform="rotate(-55.6 197.3 -170.5) scale(38.54924 15.45992)"/><circle r="1" fill="#272924" transform="rotate(77.8 -87.1 77.3) scale(56.21795 12.4617)"/><circle r="1" fill="#6b5b4e" transform="rotate(20.1 96.8 684.6) scale(13.74272 61.49101)"/><path fill="#796f6b" d="M206 27l-80 90 81-50z"/><circle r="1" fill="#8d7662" transform="matrix(33.13146 -30.47079 11.84444 12.87868 202.5 14.9)"/><circle r="1" fill="#a78f7c" transform="rotate(-12.8 91.9 -604.6) scale(31.45698 27.04693)"/><ellipse cy="32" fill="#544b41" rx="12" ry="89"/><ellipse cx="60" cy="126" fill="#272e34" rx="41" ry="5"/><path fill="#091116" d="M40 167h32v3H40z"/><path fill="#53504c" d="M207 159l-51 5 26 18z"/><path fill="#857c78" d="M167 35l-19 51-79-37z"/><path fill="#6d6965" d="M101 157.5l25.2 12.3-1.3 2.7-25.1-12.3z"/><ellipse cx="255" cy="154" fill="#202221" rx="19" ry="36"/><path fill="#151d26" d="M142 165h10v5h-10z"/><path fill="#feb481" d="M162 51h11v10h-11z"/><circle r="1" fill="#6c6663" transform="matrix(-34.42387 -30.19813 11.18029 -12.74479 66.1 79)"/><path fill="#3c4044" d="M155 122l-80-2-63 53z"/><path fill="#5c5954" d="M85 159l3 11-29-6z"/><circle r="1" fill="#715d4a" transform="matrix(8.33483 -11.61435 21.18487 15.20295 11.8 2.8)"/><path fill="#47433e" d="M256.5 16.3l-15 71.1-30.6 35.4 51.3-2.7z"/><path fill="#292e33" d="M218 185l-49.1-30.1 31.6-20.5-21 19.8z"/><ellipse cx="148" cy="125" fill="#2f353d" rx="68" ry="4"/><path fill="#968579" d="M73 6l119 22-75 28z"/><path fill="#14191b" d="M38 156l-46 1 6 11z"/><circle r="1" fill="#45443f" transform="matrix(30.36004 18.77153 -6.19767 10.02376 4.5 100.8)"/><circle r="1" fill="#615b5b" transform="rotate(-141.9 117.7 3.3) scale(10.40955 54.5483)"/><path fill="#2d3438" d="M79 158h25v8H79z"/><path fill="#484c53" d="M81 129h54v9H81z"/><path fill="#1c252d" d="M100 136l4 12 5-10z"/><ellipse cx="89" cy="156" fill="#4c4c4c" rx="47" ry="2"/><path fill="#696462" d="M165.5 167.9l7.7-10.4 8.7 27.5-7.4-18.6z"/><circle r="1" fill="#8b745f" transform="matrix(-21.6974 -31.64167 13.73105 -9.41569 46.7 0)"/><path fill="#161a1a" d="M195 168h61v2h-61z"/><path fill="#0a0f11" d="M209 159h23v3h-23z"/><path fill="#786f64" d="M189.5 165.8v-1l19 1.4v1z"/><path fill="#182024" d="M102 168h16v2h-16z"/><circle r="1" fill="#424448" transform="matrix(.76186 -3.35017 17.91161 4.07326 178 150)"/><path fill="#837974" d="M113 166h22v2h-22z"/><path fill="#806750" d="M215.8 23.3l27-13.1 5.6-21.9-35.7-4.3z"/><path fill="#55504b" d="M210 156h25v2h-25z"/><path fill="#1b2327" d="M121.8 163.5l27.9 1-8.1 2.1-20.2-2.3z"/><path fill="#6e6965" d="M142 158h6v6h-6z"/><circle r="1" fill="#414243" transform="rotate(179.4 4.7 75.7) scale(83.97097 1)"/><path fill="#1a2229" d="M61.5 137.2v-1l27-1.4v1z"/><circle r="1" fill="#6e6664" transform="matrix(33.31777 -19.08705 4.2845 7.4789 169 97.3)"/><path fill="#1e252b" d="M138 155h26v3h-26z"/><path fill="#625b58" d="M5.2 25.6l9.6 1.2 65.9 88.3-31.9-2.3z"/><path fill="#494d52" d="M158 155l-14-14-22-3z"/><path fill="#4f5155" d="M71 143h29v6H71z"/><path fill="#242a30" d="M77 140h8v14h-8z"/><ellipse cx="201" cy="133" fill="#3b3f45" rx="31" ry="3"/><circle r="1" fill="#7e746e" transform="matrix(-12.12764 -24.71864 13.40351 -6.57613 76.8 53.3)"/><path fill="#635e5b" d="M75 166h28v4H75z"/><path fill="#1f272d" d="M119 154l14-9 11 6z"/><path fill="#2c3035" d="M49.4 122.1l-34.2 15.8 49 22.4-20.1 9.7z"/><path fill="#0d151b" d="M54 147h15v2H54z"/><path fill="#7d7470" d="M156.6 58.8L184 73.1l-15.9 12.4-59.2-1.3z"/><path fill="#2e3237" d="M214 162l8-42-37 38z"/><path fill="#515155" d="M127 157.7l7.9-7.7 4.1 4.3-7.9 7.7z"/><path fill="#57524f" d="M221 120l27-74-63 73z"/><path fill="#ffd18e" d="M164 54l7-8.5 3 2.5-7 8.5z"/><ellipse cx="158" cy="148" fill="#5b5a5d" rx="16" ry="1"/><ellipse cx="7" cy="128" fill="#1e2326" rx="19" ry="7"/><path fill="#756b65" d="M57.1 69.6l24.3 25.2-22.5-53.9L28 29.7z"/><path fill="#3e3e3e" d="M205 162h19v7h-19z"/><path fill="#3b3e42" d="M192.2 153.4l10.3-5.1-19.8-2.7 49.4-3.3z"/><path fill="#393938" d="M271 163.4l-40.8 4.5 36.2-.5-46.4-12.7z"/><path fill="#525152" d="M52 140h20v4H52z"/><path fill="#5c5e61" d="M112 138h14v3h-14z"/><ellipse cx="69" cy="165" fill="#746d65" rx="11" ry="1"/><circle r="1" fill="#6d645f" transform="rotate(-148.5 111 4.6) scale(8.36728 47.23273)"/><path fill="#5b5c5d" d="M65 132h22v2H65z"/><ellipse cx="83" cy="156" fill="#7c7a76" rx="5" ry="1"/><path fill="#615e5e" d="M135 171.2l-.3-1 42.4-7.4.2 1z"/><path fill="#1e2429" d="M145 168h14v2h-14z"/><ellipse cx="237" cy="124" fill="#212529" rx="31" ry="4"/><path fill="#8c7c71" d="M153.7 39.9L185.4 51l8.1-12.8 1.9-19.9z"/></g></g></svg>