<svg xmlns="http://www.w3.org/2000/svg" viewBox="0 0 1800 1200"><defs/><filter id="a"><feGaussianBlur stdDeviation="12"/></filter><rect width="100%" height="100%" fill="#4f423e"/><g filter="url(#a)"><g fill-opacity=".5" transform="translate(3.5 3.5) scale(7.03125)"><circle r="1" fill="#719c95" transform="matrix(45.983 166.8244 -184.21302 50.77595 139.5 115.5)"/><circle r="1" fill="#0091ab" transform="rotate(-96.7 78.5 18.9) scale(60.76101 24.75814)"/><circle r="1" fill="#b99d97" transform="matrix(8.1183 -37.07917 50.30918 11.01493 195.6 118.1)"/><ellipse cx="43" cy="72" fill="#042625" rx="19" ry="49"/><ellipse cx="255" cy="57" fill="#bcdaf8" rx="17" ry="34"/><circle cx="146" cy="50" r="61" fill="#5d5c3b"/><circle r="1" fill="#04aabe" transform="matrix(9.1108 25.79055 -22.92127 8.0972 67.4 75.7)"/><circle r="1" fill="#bdb5b8" transform="rotate(-135.8 43.5 73.2) scale(10.07507 38.20787)"/><circle r="1" fill="#2e3331" transform="rotate(96.1 -9.5 144.3) scale(22.07632 60.45182)"/><path fill="#0c1300" d="M4 115h20v32H4z"/><path fill="#1f190e" d="M83 43.3L86.7 57l-45-8.5 1.2-22.9z"/><ellipse cx="3" cy="66" fill="#539dce" rx="12" ry="46"/><path fill="#b59f9e" d="M72.2 106.1L51 93.2l26.6 27.3L191.2 137z"/><ellipse cx="26" cy="22" fill="#5a4728" rx="14" ry="82"/><path fill="#89a8a3" d="M208-4l-45 25 42 19z"/><path fill="#494530" d="M143-4l-34 174-14-78z"/><circle r="1" fill="#a79877" transform="matrix(1.57167 11.32646 -28.40833 3.94197 53.9 14)"/><circle r="1" fill="#9ca5b0" transform="matrix(69.8377 14.20864 -2.36411 11.61998 196.1 126.6)"/><path fill="#917963" d="M151 80h98v33h-98z"/><path fill="#95b6ac" d="M122.2 66.2l-44.5-.5 44-28.3-35.4 10.1z"/><circle r="1" fill="#aac3e2" transform="rotate(79.8 114.9 154) scale(31.90923 3.86672)"/><path fill="#c7b991" d="M26 118h18v25H26z"/><path fill="#03889b" d="M51 119h44v34H51z"/><path fill="#898888" d="M52 102l74 42 79-18z"/><path fill="#33262d" d="M209 13h16v33h-16z"/><path fill="#344341" d="M71-16h153l-88 49z"/><path fill="#282324" d="M45.6 53L-16 69.9l43.6 5.5 12.5 41.4z"/><ellipse cx="217" cy="101" fill="#3c4836" rx="4" ry="30"/><path fill="#b7a28c" d="M149 81h44v16h-44z"/><path fill="#c6baaf" d="M50.8 162.8L39 115.9 66.8 185l-7.7-8.9z"/><path fill="#323529" d="M212.2 73l-94.4-4.4 73.9 13.6 29.2-3.6z"/><circle r="1" fill="#a88a8b" transform="matrix(37.87285 14.4173 -2.89742 7.61123 237.8 162)"/><ellipse cx="186" cy="103" fill="#6d4639" rx="31" ry="7"/><path fill="#1b3439" d="M59.5 86.1l-1 57.2-28.4-38.5-13.4 8.1z"/><path fill="#88866d" d="M27.6 72.4l12.2-40.7 6.3-25.1-22.4 21.2z"/><path fill="#a57264" d="M58 23h60v13H58z"/><path fill="#21372b" d="M129 53h84v9h-84z"/><path fill="#b6bebb" d="M188.5 109.1l-24.7 49.6 15.9-4-1.7-40.1z"/><path fill="#b0d0af" d="M211 59h15v13h-15z"/><circle cx="8" cy="86" r="14" fill="#9d97aa"/><path fill="#171c20" d="M101 115.1l-4.6-20.4 16.5-3.8 4.7 20.4z"/><circle r="1" fill="#8491c8" transform="matrix(-14.06282 -34.82867 7.04044 -2.84273 11 169)"/><path fill="#3f3e54" d="M242.9 149.7l3.4-32-15.9 42.1L233 176z"/><path fill="#bbb8bf" d="M242.1 135l-83.9-23.9 89.6 10.3-49.2 19.4z"/><path fill="#092641" d="M45 152l40 16 5-13z"/><circle r="1" fill="#3c372b" transform="rotate(-105.8 71.7 67) scale(22.31989 2.32706)"/><path fill="#cab578" d="M157 6h5v28h-5z"/><path fill="#a28f53" d="M108.1 91.3l9.1-61.1-26.3 54.2 43.2 3.8z"/><path fill="#73abb8" d="M254 50l-32 28-2 33z"/><path fill="#f4dbef" d="M125 164h6v6h-6z"/><path fill="#32aebe" d="M92.1 55.9l-28.5 3.5 13.6 12.5L93.4 143z"/><path fill="#3e3336" d="M251 56h5v17h-5z"/><path fill="#543819" d="M120.1 2.7L149.4-16 57.2 15.9 31.9 23z"/><path fill="#16a0b8" d="M13 74V36L-3 20z"/><path fill="#c2bcca" d="M47 11L58 1l27 6z"/><path fill="#a4bbc0" d="M125.5 147.4l23.4-31.6 8.8 24.7 14.1-29.3z"/><path fill="#195a59" d="M149-6l22-9 23 45z"/><ellipse cx="230" cy="49" fill="#484751" rx="4" ry="69"/><path fill="#362b3d" d="M132.3 185l18.6-57.5 12 28.1-7 29.4z"/><path fill="#506169" d="M206 129l18-21-4 30z"/><path fill="#40422c" d="M45.3-5.4l-30.2-5.9-9 35.2 44.6-19z"/><path fill="#abd2fe" d="M251.2 52.6L249.1 42h-12l12.3 32.2z"/><path fill="#bed2dc" d="M175.5 138.5l2.6 2.2-9.6-10.6 52.3 8.3z"/><path fill="#704330" d="M237 23h9v18h-9z"/><ellipse cx="151" cy="7" fill="#102923" rx="3" ry="57"/><path fill="#d9eefa" d="M207.6 28.7l.7 5-14 1.6-.6-5z"/><path fill="#379db0" d="M69.5 131l29.2 38L83 185l10.5-52.8z"/><path fill="#ac9672" d="M124 60h21v9h-21z"/><path fill="#be8b78" d="M55.6 101l3.7-4.8L88.4 119l-3.7 4.8z"/><path fill="#2b4c4b" d="M80.6 130.1l11.6-10.8-46.5-9.3 14.7-8.3z"/><path fill="#c6c4cf" d="M206 82h5v36h-5z"/><path fill="#58626d" d="M170.2 140.3l-31.9-2.1 59 12.9 26.5-8.6z"/><circle r="1" fill="#a2a7bd" transform="matrix(8.76133 .66066 -.39832 5.28229 249.1 112.1)"/><path fill="#89a47a" d="M157.3 56.1l36.2-7-69.2 4.4 17.5-11.8z"/><path fill="#101218" d="M63 41L32 60l18-37z"/><circle r="1" fill="#009fba" transform="rotate(-166.5 31 31) scale(6.99571 19.4362)"/><path fill="#9d7521" d="M190 95l9-17 10 24z"/><path fill="#703e03" d="M103.2 92.2l31.6-19.6-34.6 4.6-3.4 8.7z"/><path fill="#13081f" d="M270.2 185l-19.1-48.5 17.9-9.9 2 23.5z"/><path fill="#6a695c" d="M198.7 132.8l-5.6-15.6-37.8 34.6 19.5-33.8z"/><path fill="#4c5b58" d="M164 122l-32 1 5-11z"/><path fill="#6a5643" d="M56.1 41L91 43.6 73.2 19.1l-12 14.7z"/><path fill="#5f423f" d="M228 185l-67-30 46 2z"/><path fill="#b3bbb3" d="M28.8 146.4l-21.6 26 41.3-31.6 3.8-9.8z"/><circle r="1" fill="#784a2d" transform="matrix(.14153 15.91356 -5.0886 .04526 43.3 162)"/><path fill="#c78160" d="M129 75h40v3h-40z"/><path fill="#74705f" d="M32.9 143.6L22.1 71.1H9l16.1 51.8z"/><ellipse cx="225" cy="37" fill="#71b7af" rx="2" ry="70"/><path fill="#296e34" d="M116 74l-3-25 36-35z"/><path fill="#353736" d="M22.2 48.7l-38.2 7V15l55 73.4z"/><path fill="#006676" d="M52 109h9v43h-9z"/><circle r="1" fill="#9d9b7e" transform="rotate(85.6 35 78.3) scale(26.08599 2.61364)"/><path fill="#aaabb7" d="M266 150.9l6.8 12.2-28.8 16-6.8-12.2z"/><path fill="#37a184" d="M146 0h3v65h-3z"/><path fill="#5d5354" d="M230.1 97.6l11.8 16.6-29.4 2.1L271 77.6z"/><path fill="#c9becb" d="M226.1 127l-8.6 14.4 25.9-21.6-27.4-3.7z"/><path fill="#3b2943" d="M95.5 126.5l.7 28.4 14 17.6-1.1-34.4z"/><path fill="#cfac91" d="M220 161l10-9-23-5z"/><path fill="#becbd4" d="M179.8 137.8l-2.3 12.9-9.8-37.5-16.1-5.2z"/><path fill="#93696f" d="M207 16l20-32-48 29z"/></g></g></svg>