<svg xmlns="http://www.w3.org/2000/svg" viewBox="0 0 1800 1200"><defs/><filter id="a"><feGaussianBlur stdDeviation="12"/></filter><rect width="100%" height="100%" fill="#5f4a37"/><g filter="url(#a)"><g fill-opacity=".5" transform="translate(3.5 3.5) scale(7.03125)"><circle r="1" fill="#d7ae81" transform="rotate(93.4 15.7 90) scale(80.23538 195.02804)"/><circle r="1" fill="#f4f2e9" transform="matrix(21.3005 37.1628 -22.07784 12.6543 130 102.2)"/><ellipse cx="25" cy="39" fill="#1f1109" rx="168" ry="10"/><path fill="#f0fafd" d="M40 50h45v32H40z"/><circle r="1" fill="#652700" transform="matrix(63.62916 -35.85319 7.25857 12.88188 34.8 114.2)"/><circle r="1" fill="#a64d00" transform="matrix(2.37474 25.59887 -48.72834 4.5204 216.7 130)"/><circle r="1" fill="#d79140" transform="matrix(-73.39756 27.35269 -9.3714 -25.147 120 169)"/><circle r="1" fill="#cbccbd" transform="rotate(93.9 48.2 58.1) scale(9.13195 70.08814)"/><ellipse cx="204" rx="44" ry="12"/><path fill="#000002" d="M30.5 94.3l57.5-.8-46.5-9.9-13.8-30.9z"/><path fill="#a43e00" d="M140.7 102.3L153.6 91l19.7 22.6-12.9 11.2z"/><path fill="#dcd4c7" d="M130 130l32-82-87 68z"/><circle r="1" fill="#c67017" transform="matrix(-1.40719 19.16224 -53.40618 -3.9219 46.3 137.8)"/><path fill="#290408" d="M188 48l21 54V58z"/><path fill="#0c0000" d="M271 153.4L191.2 185l-10.4-26.8 90.2-7.3z"/><ellipse cx="5" cy="30" fill="#1c2018" rx="16" ry="20"/><path fill="#e0d3b8" d="M139.6 109.4l-10.4 36.1 24.1 5.2 18.3-23.1z"/><path fill="#b39c87" d="M59.7 59.8l18.9-27.1-81.3-1L49.8 9.2z"/><path fill="#100" d="M.3 154l54.7 6.3L27.2 185l-40.5-32.4z"/><path fill="#a8a693" d="M181 16h59v22h-59z"/><ellipse cx="126" cy="29" rx="9" ry="5"/><path fill="#00141d" d="M95 77l-4 18H33z"/><path fill="#686959" d="M98.8 128.4l24-10.2 12.4 29.4-24 10.2z"/><path fill="#c4bda1" d="M104 44l-34 5 53 28z"/><path fill="#bd8b84" d="M170 108l-51-77 93 75z"/><path fill="#a86522" d="M175 185l-32-61 47 27z"/><path fill="#070d06" d="M252.7-5.7L134.1 1.6l91.3 16.7-10.4 9.3z"/><path fill="#0a1b1c" d="M240.3 48.8l-2.1-12.3 5.2 1.9 23.8 17.2z"/><path fill="#361d0b" d="M63.4 12.9L53.2 24.4l-5.8 10.1 26.4-12.1z"/><path fill="#e3cdb8" d="M76 115.5l-25.3-3.6 73.1-8.7-10.1 23.7z"/><path fill="#7f410e" d="M78.8 123.5l17.7-6.3-7.8-32.7 15.2 15.5z"/><path fill="#cccfc4" d="M78 21h42v8H78z"/><path fill="#833e28" d="M210.6 83.5l-6.5 12.8 22.1 43.7 44.8-7.1z"/><ellipse cx="122" cy="169" fill="#e09d44" rx="61" ry="7"/><path fill="#a9a59b" d="M82 83H39l61-21z"/><path fill="#b9b09b" d="M92 17l102 21-55-41z"/><circle cx="159" cy="65" r="20" fill="#b4af88"/><path fill="#693b1f" d="M58 157h128v5H58z"/><path fill="#0d1c1d" d="M88 30h29v14H88z"/><ellipse cx="170" cy="43" fill="#362d0f" rx="39" ry="4"/><path fill="#f3ffff" d="M51 127l-6-5 12-3z"/><path fill="#a29379" d="M189.1 38.8l53 8.2-21.9-31.8-91.9-12.9z"/><path fill="#961847" d="M190 76l-15 20-34 3z"/><path fill="#eceee6" d="M119 75h32v21h-32z"/><path fill="#a28768" d="M81.4 74.2L129 39.1l48.2 39 20.4-7.3z"/><path fill="#504d23" d="M90 119l-29-3-9 17z"/><circle r="1" fill="#f1f2ec" transform="matrix(-15.57308 -6.2527 1.75861 -4.38003 155.2 126)"/><circle r="1" fill="#b77328" transform="matrix(-4.122 9.60015 -28.04616 -12.0421 167.7 113.7)"/><ellipse cx="73" cy="101" fill="#ac5a10" rx="29" ry="7"/><circle r="1" fill="#c59d94" transform="matrix(16.57718 3.81118 -2.39644 10.42362 195 98)"/><path fill="#8c7e62" d="M239 42l-17-21 49-37z"/><path fill="#5ba9ba" d="M98 135h21v12H98z"/><circle r="1" fill="#8e4c16" transform="rotate(-152.9 23.2 63.8) scale(23.01721 24.28932)"/><path fill="#241505" d="M-14 59l33-18 1-23z"/><path fill="#d08f42" d="M57 131h43v27H57z"/><path fill="#f0ac49" d="M125 153l-20 10 29-1z"/><path fill="#a29e8d" d="M20.3 21.5l32.4 3.4-15-21.6-33.9 8.6z"/><path fill="#ece5d8" d="M131 111l-37 3-9 14z"/><path fill="#61452b" d="M212.9 66.5l-32.8-3.6 14.6-14.8-.1 44.6z"/><path fill="#c37b4b" d="M110 83h3v49h-3z"/><path fill="#49321c" d="M135.9 30.1H78l67 13.1-13.1 20.9z"/><path fill="#0d191d" d="M98 70L76 85l16 1z"/><path fill="#e1dccf" d="M86 48l-3 19-50-17z"/><circle cx="32" cy="73" r="7" fill="#0e1413"/><path fill="#c97f52" d="M74 28.3l-3.2 19.8L56 45.7l3.2-19.8z"/><path fill="#6c624d" d="M88.7-4.7l.5 9-84 4.4-.4-9z"/><path fill="#a22b5e" d="M201 101l28 2-19-21z"/><path fill="#d8d4c0" d="M134 109h13v40h-13z"/><path fill="#5b1800" d="M14 33h30v12H14z"/><path fill="#cc895c" d="M127 62l-9-20 19-5z"/><path fill="#877e61" d="M236 31l35 91-47-19z"/><path fill="#a29a85" d="M0 27h15v7H0z"/><path fill="#6f340e" d="M116 119l10 2-8 8z"/><circle r="1" fill="#9f6234" transform="matrix(-5.3525 -12.3978 8.16662 -3.52578 126.2 143.7)"/><path fill="#a9744d" d="M95.5 66.5l-30.4-1.8 2.8-.1 19.8 12.5z"/><path fill="#a49b93" d="M111 101l32 12-34-31z"/><circle r="1" fill="#836e4e" transform="matrix(-6.21477 -13.5978 25.2761 -11.55226 13.4 62.4)"/><path fill="#af9c76" d="M197.4 53.5l-31.7 4-1.1-9 31.7-4z"/><path fill="#c2baaa" d="M140 31L114 5l50 27z"/><path fill="#00111c" d="M35.7 89l-.2-2 36.8-4 .2 2z"/><path fill="#c6802e" d="M152 135h65v16h-65z"/><path fill="#d9dadd" d="M166 105l-9-6 21 6z"/><ellipse cx="75" cy="78" fill="#bfc8c7" rx="11" ry="5"/><path fill="#fff" d="M121 129l14 4-1-9z"/><path fill="#593e25" d="M114.1 56.7l-2.3 1.5 14.9.7-17.1-18.7z"/><path fill="#111404" d="M215 69l-29-16 19 2z"/><path fill="#dad7c8" d="M64 116l32-8-32-1z"/><path fill="#b3a37f" d="M271 160.3l-43.1 11.5 43.1-2.3-.8-5z"/><path fill="#c8d6d4" d="M108.4 79.7l44.5-6.7-53 .2 6.2 58.6z"/><ellipse cx="108" cy="145" fill="#ffefdb" rx="9" ry="2"/><path fill="#535834" d="M77 113l6 11-21 4z"/><path fill="#995a20" d="M72 105l-35 19-10-38z"/><path fill="#d08a35" d="M91 164l-22 21-7-24z"/><path fill="#231b11" d="M117 28l12-5 26 20z"/><path fill="#030400" d="M227 16l-41-9 62-12z"/><path fill="#867459" d="M95 4l38-20 19 24z"/><path fill="#ae6c2a" d="M47.7 158.7l-32-33.2 69.2 4.3 17-28.1z"/><path d="M-16 7L7 3l-17-13z"/><circle cx="153" r="6"/><path fill="#352f24" d="M68.9 24.7L56.2 19l11.9-2.4 39.2 29.6z"/></g></g></svg>