<svg xmlns="http://www.w3.org/2000/svg" viewBox="0 0 1800 1200"><defs/><filter id="a"><feGaussianBlur stdDeviation="12"/></filter><rect width="100%" height="100%" fill="#35475b"/><g filter="url(#a)"><g fill-opacity=".5" transform="translate(3.5 3.5) scale(7.03125)"><circle r="1" fill="#f4ffff" transform="matrix(1.4263 -68.0912 251.25268 5.263 133.6 47.8)"/><circle r="1" fill="#6e82a3" transform="matrix(-4.36748 62.22365 -254.37416 -17.85455 109.3 141.2)"/><circle r="1" fill="#b2c2de" transform="rotate(91.2 79.2 106.2) scale(40.02944 164.64751)"/><circle r="1" fill="#f1794f" transform="rotate(-78.6 116.9 29.7) scale(5.28602 32.26791)"/><path fill="#562514" d="M72 148l72 3-12-17z"/><circle r="1" fill="#597393" transform="rotate(98.7 25 129.1) scale(18.08068 196.03891)"/><ellipse cx="198" cy="157" fill="#557798" rx="65" ry="29"/><circle r="1" fill="#99a6bf" transform="matrix(-118.06665 -54.2625 12.84536 -27.94947 48.1 29)"/><path fill="#db9272" d="M90 137h16v10H90z"/><path fill="#253225" d="M44 146h95v5H44z"/><ellipse cx="10" cy="145" fill="#3a5b79" rx="31" ry="32"/><path fill="#d2e27b" d="M112 124h11v6h-11z"/><path fill="#aebccf" d="M271-14l-12 62L39 31z"/><ellipse cx="72" cy="108" fill="#78849f" rx="255" ry="6"/><circle r="1" fill="#919db6" transform="matrix(-.7276 16.53733 -205.7512 -9.05257 182.4 74.6)"/><path fill="#445b79" d="M191.4 112.4l-26.9.3-132 1.7 90.4 8.3z"/><path fill="#684f4c" d="M101 129h29v13h-29z"/><circle r="1" fill="#7f8ba4" transform="matrix(3.40805 -13.66893 144.15414 35.94166 5.3 74.3)"/><path fill="#de6e60" d="M35.5 127.5l57.1 20.1L38.2 136l1.9-5.3z"/><path fill="#4a5b6f" d="M39 150h217v4H39z"/><ellipse cx="237" cy="100" fill="#8090ac" rx="47" ry="15"/><circle r="1" fill="#2b3028" transform="matrix(12.63737 2.52628 -.19603 .9806 86.7 138.6)"/><circle r="1" fill="#8da7c5" transform="matrix(.87687 19.32346 -120.95175 5.4886 34.2 1.6)"/><circle r="1" fill="#a0adbd" transform="rotate(95.6 49 99) scale(12.35585 119.86658)"/><path fill="#bfb790" d="M114 134h9v5h-9z"/><path fill="#597899" d="M58 162h191v6H58z"/><path fill="#b9bea8" d="M56 130l11 7 3-3z"/><path fill="#5f2c32" d="M127 131.7l2 15.2-27.4-13.2 12.2 16.2z"/><ellipse cx="64" cy="133" fill="#ede8cb" rx="6" ry="1"/><path fill="#8c5950" d="M38 150h38v2H38z"/><path fill="#373c38" d="M75 134h13v5H75z"/><circle cx="108" cy="117" r="2" fill="#aa0704"/><path fill="#68816d" d="M34 143l.1-1 71.8 5v1z"/><circle r="1" fill="#d76557" transform="matrix(-.47253 2.98868 -17.89124 -2.82875 66.2 139.9)"/><path fill="#4f6e8d" d="M175 114h81v35h-81z"/><path fill="#45698d" d="M106 128h10v9h-10z"/><path fill="#a8aca5" d="M58 134h28v1H58z"/><path fill="#000713" d="M132 141l4 4-1 4z"/><path fill="#41617e" d="M56 155.3l39.6 13.9 47.5-18.3-35-.1z"/><path fill="#1e495e" d="M116 116l2 7 14 3z"/><path fill="#395572" d="M0 115h82v3H0z"/><circle r="1" fill="#6f7b96" transform="matrix(2.59983 -10.32656 47.52838 11.96584 15.6 97.4)"/><path fill="#627690" d="M206 147.4l-60.6-15-9.6 19.7 8-2.1z"/><ellipse cx="91" cy="148" fill="#232e2b" rx="46" ry="2"/><path fill="#28240a" d="M58.7 129.7l6.8 1.6-.2 1-6.8-1.6z"/><circle r="1" fill="#9eb5cf" transform="matrix(82.10149 -1.29139 .24056 15.29397 180.6 0)"/><path fill="#5c6672" d="M49.5 126l12 10.1-50.2-16 77.9 15.5z"/><circle r="1" fill="#8298b1" transform="matrix(20.78906 -18.65296 8.9371 9.96056 5.7 3.6)"/><path fill="#4e545e" d="M172 117l-13-4 9-6z"/><ellipse cx="164" cy="121" fill="#6c8db0" rx="45" ry="1"/><ellipse cx="53" cy="34" fill="#a6afbf" rx="50" ry="12"/><path fill="#496482" d="M35 117l15 55-39-53z"/><ellipse cx="85" cy="117" fill="#98a5af" rx="1" ry="18"/><ellipse cx="165" cy="128" fill="#456583" rx="46" ry="4"/><path fill="#566d5c" d="M67 147.2l-32.9 3.7 11.8 7.9-6.9-23.9z"/><circle cx="135" cy="139" r="4" fill="#7f7073"/><ellipse cx="97" cy="82" fill="#8a97ad" rx="69" ry="8"/><circle cx="116" cy="127" r="3" fill="#dbe995"/><ellipse cx="227" cy="151" fill="#426079" rx="27" ry="5"/><circle r="1" fill="#445a71" transform="matrix(-10.2855 -1.3176 .592 -4.62134 106.1 129.8)"/><ellipse cx="41" cy="169" fill="#587497" rx="22" ry="4"/><path fill="#503a42" d="M127 132l8 11-22-15z"/><path fill="#ca695d" d="M75 141h29v4H75z"/><ellipse cx="137" cy="105" fill="#7989a5" rx="35" ry="9"/><path fill="#95262b" d="M108 111.5h1l-1 9h-1z"/><path fill="#131f2d" d="M137 150l-6-5 8-4z"/><ellipse cx="4" cy="131" fill="#3c566f" rx="33" ry="6"/><path fill="#597796" d="M202 148l-35 37 86-14z"/><circle r="1" fill="#a8b4c5" transform="matrix(-77.82402 -12.46539 2.21602 -13.83508 125.8 35.2)"/><path fill="#5d7999" d="M131 133h80v5h-80z"/><path fill="#567494" d="M13 119h60v6H13z"/><circle cx="103" cy="138" r="2" fill="#bfc6b0"/><path fill="#3f556e" d="M-16 159.4v5.2l100.3-11.5-43.6.7z"/><path fill="#375875" d="M127 113v13l-8 10z"/><path fill="#4f6d8c" d="M174 152l-16 33-27-36z"/><circle r="1" fill="#143143" transform="rotate(-137.7 82 38.5) scale(2.62241 1.3026)"/><path fill="#7886a0" d="M61 86.6l53 10.5-4.5 17.3L-16 80.1z"/><path fill="#664a47" d="M68.2 138.5l-1.4-4.8 1-.2 1.4 4.8z"/><path fill="#394249" d="M179 112h5v3h-5z"/><path fill="#415c77" d="M145 167h33v3h-33z"/><ellipse cy="145" fill="#385166" rx="28" ry="3"/><path fill="#c2b9ac" d="M171 114h8v2h-8z"/><path fill="#8f9cb4" d="M92.4 87.3L9.6 43.4-16 46.2 8.9 64.5z"/><path fill="#476281" d="M12 113h75v6H12z"/><circle r="1" fill="#5f504f" transform="rotate(92 -31.6 115.2) scale(1.54836 11.58951)"/><path fill="#547090" d="M105.4 134.1l9.7 4.4-6.9-26.7 8.5 9.1z"/><circle r="1" fill="#5e7995" transform="matrix(.07243 .99737 -18.93225 1.37493 240.2 149)"/><path fill="#647690" d="M121.5 136.2l-1.5-1.4 12.5-13 1.5 1.4z"/><path fill="#e83e4d" d="M129.6 133.4l-2.3 5.6-1-.4 2.4-5.6z"/><ellipse cx="100" cy="121" fill="#5f7ea1" rx="7" ry="3"/><circle r="1" fill="#698072" transform="matrix(-.53551 1.89763 -12.21441 -3.44692 50.3 141.7)"/><path fill="#496989" d="M127 115h113v6H127z"/><path fill="#b3b6a5" d="M94.5 137.3l.2-1 10.8 2.4-.2 1z"/><path fill="#5a232f" d="M106 144h26v4h-26z"/><path fill="#4f6c8c" d="M157.1 155.6l-72.4 24.7-6.6-20.8 27.5 1.3z"/><path fill="#000a0d" d="M120 132l-.2 1-3.9-1 .3-1z"/><path fill="#677b96" d="M138 145h37v4h-37z"/><path fill="#240701" d="M103 131h2v4h-2z"/><path fill="#a19a95" d="M108.5 135.7l15 .6v2l-15-.6z"/><ellipse cx="83" cy="137" fill="#3e3b39" rx="6" ry="3"/></g></g></svg>