<svg xmlns="http://www.w3.org/2000/svg" viewBox="0 0 1800 1200"><defs/><filter id="a"><feGaussianBlur stdDeviation="12"/></filter><rect width="100%" height="100%" fill="#3d4758"/><g filter="url(#a)"><g fill-opacity=".5" transform="translate(3.5 3.5) scale(7.03125)"><circle r="1" fill="#c8e1f6" transform="matrix(-206.42783 -41.8409 10.41796 -51.39845 87.5 75.8)"/><path fill="#f6ffff" d="M-16-11l99 49-54 65z"/><circle r="1" fill="#003416" transform="rotate(-88.4 111.4 -96.2) scale(24.24933 123.05769)"/><circle r="1" fill="#2c4365" transform="rotate(89.5 70.7 171.9) scale(22.92291 101.90823)"/><circle r="1" fill="#738599" transform="rotate(166.4 34.3 67) scale(92.19761 25.39204)"/><path fill="#eaffff" d="M280.3 164.8l-26.8 29.8-23.8-21.4 26.8-29.8z"/><path fill="#d6bf99" d="M177 111l-94 26 188-1z"/><circle r="1" fill="#819ebf" transform="matrix(2.05918 -14.19901 70.9402 10.28794 206.4 63.3)"/><path fill="#4e5550" d="M-3 51.4L37.3 116 17 128.6-23.3 64z"/><path fill="#004135" d="M271-16L-16-1l267 58z"/><circle r="1" fill="#cce1fa" transform="matrix(6.37672 28.47763 -33.53625 7.50945 26.8 39.7)"/><path fill="#000800" d="M20.3 137.2l6.2 31.5-10.8 2-6.2-31.4z"/><path fill="#70829a" d="M15 141l211-21L7 84z"/><ellipse cx="214" cy="149" fill="#3e4a54" rx="165" ry="12"/><path fill="#f7f3e4" d="M173.8 51.1l-4.5-8-21.7 6 3.9 13.9z"/><path fill="#8ba3c3" d="M42 57h53v57H42z"/><circle r="1" fill="#798482" transform="matrix(14.86537 30.59218 -16.06521 7.80642 46.3 166.2)"/><circle r="1" fill="#516e94" transform="matrix(72.90508 7.35008 -.66353 6.58156 154.9 71.7)"/><path fill="#020500" d="M1 93h7v33H1z"/><path fill="#004a40" d="M60.2 19.3l6.5-33.4 45.1 8.8-6.5 33.4z"/><path fill="#6181ab" d="M87.5 39.5l-5.2 9.7-23.8-12.7 5.2-9.7z"/><ellipse cx="207" cy="132" fill="#f3dcaa" rx="41" ry="6"/><ellipse cx="250" cy="107" fill="#394c68" rx="116" ry="7"/><path fill="#a1a99e" d="M-5.2 185h6.3l8.6-53.5-21.3-3.5z"/><path fill="#abc3e3" d="M255.8 177.2l-16-16.5 14.4-14 16 16.6z"/><circle r="1" fill="#003c37" transform="rotate(-84.5 113.6 -105.5) scale(29.51657 132.54572)"/><ellipse cx="3" cy="16" fill="#fcf5ea" rx="37" ry="8"/><circle r="1" fill="#6984a7" transform="rotate(-11.1 468.6 -1004.2) scale(53.57865 15.59114)"/><circle r="1" fill="#e3e9ec" transform="rotate(-150.2 24.2 31.2) scale(27.38775 11.23149)"/><circle r="1" fill="#b2c7e3" transform="rotate(147.5 -12 41.1) scale(5.25743 11.16528)"/><circle r="1" fill="#3d5170" transform="matrix(-21.44984 10.13958 -8.41907 -17.81017 243.7 94)"/><path fill="#5a605a" d="M14 84h11v41H14z"/><path fill="#dcedfe" d="M55 41.1l23.9 7.3L75 61l-24-7.3z"/><path fill="#47607e" d="M102 68l41-20-11 23z"/><path fill="#a2c1e7" d="M-5 29.4l54-4.7 2 23.9-53.8 4.7z"/><path fill="#45505e" d="M57 138h189v9H57z"/><path fill="#6e809b" d="M125 137l-16-42-112 42z"/><path fill="#78797d" d="M192.7 115.4l42.9 14.8 35.4-2.1-56.5-23.2z"/><path fill="#004e46" d="M130 33L-2 0l156-16z"/><circle r="1" fill="#889196" transform="matrix(51.15456 12.73886 -.24165 .97036 52.7 20.4)"/><path fill="#fff" d="M-16 22L6 3l-22-4z"/><circle r="1" fill="#577091" transform="matrix(-90.71596 16.48588 -1.04468 -5.74849 136.5 109.9)"/><path fill="#8a9fb8" d="M158.8 90L59.3 59.1l-16.9.9-1 17.9z"/><circle r="1" fill="#03312c" transform="matrix(22.80786 47.67259 -27.23828 13.03153 236.3 7.8)"/><path fill="#4c5b5e" d="M49.1 141.7L1.5 62.8l4.8-3.2L-16 48.4z"/><path fill="#888776" d="M10.2 141.8L10 95.1l-5 13.1 13.2 5.5z"/><path fill="#8ca1b9" d="M48 14l25 32 77-2z"/><path fill="#777267" d="M98.2 148v-1l157.6-11v1z"/><path fill="#adb9c5" d="M94 74h38v8H94z"/><path fill="#09231f" d="M14 139h8v31h-8z"/><path fill="#b7c1ce" d="M72 79L43 67 25 97z"/><path fill="#647f9f" d="M139 84h41v22h-41z"/><ellipse cx="162" cy="111" fill="#3d506b" rx="30" ry="3"/><path fill="#7891ae" d="M235 53l-67-10 42 41z"/><path fill="#12140c" d="M0 113h9v16H0z"/><path fill="#0c0d0e" d="M4 91h7v7H4z"/><circle r="1" fill="#263642" transform="matrix(-1.6947 -7.8374 35.00015 -7.56818 204.4 167.3)"/><ellipse cx="101" cy="151" fill="#25303b" rx="41" ry="3"/><path fill="#9eadbf" d="M18.4 70.8L24.3 98 6.1 64.9l27.6 14z"/><path fill="#7d898d" d="M53 184l-2-44 25 44z"/><path fill="#ebd6ab" d="M150 132h84v5h-84z"/><path fill="#4e4a40" d="M19 106l5 23-10-1z"/><path fill="#fffff5" d="M152 48h13v6h-13z"/><path fill="#fffbda" d="M205.5 123.5l-24.7 8-.3-1 24.7-8z"/><ellipse cx="6" cy="134" fill="#878f97" rx="130" ry="4"/><path fill="#5b6764" d="M20.5 104l42.9 70.4-15.9-37.2-21.9-35.8z"/><path fill="#3b4244" d="M53.2 169.5l7 15.5-9.8-23-44.9-20.7z"/><path fill="#9e9689" d="M241 121l-28 9h43z"/><path fill="#fffffe" d="M20.5 27.4l-8.5 3-6.5-17.8 8.5-3z"/><path fill="#889fb5" d="M30.6 132.5h1l1.8 51h-1z"/><path fill="#929699" d="M221.7 110l-7.1 7.9-24 9.2-111.2 9.3z"/><path fill="#9daec7" d="M114 95h20v8h-20z"/><circle r="1" fill="#5c5a58" transform="rotate(-74.7 12.8 -8.8) scale(1 80.8822)"/><path fill="#aec9e8" d="M6 18v42l-22-40z"/><path fill="#8da3c2" d="M41 84v31l-14-13z"/><path fill="#728ba8" d="M153 46l-68 4-13 31z"/><path fill="#fbf9f0" d="M11 54l17 12 8-14z"/><path fill="#a9b6c5" d="M150.8 52.2l-10.4 9.1 8.1 3.9 35.1-10.5z"/><path fill="#728086" d="M13.2 87.3L3.1 110l22.8 1.1 7.5 29.9z"/><path fill="#506d8f" d="M173 71h21v27h-21z"/><path fill="#6d6d6b" d="M3.4 10.4L2.1 6.6l8.5-3 1.3 3.8z"/><circle r="1" fill="#00463f" transform="rotate(106.2 64.2 65.8) scale(14.31036 48.90488)"/><path fill="#f6f8f6" d="M30 71l-16 9 25-1z"/><path fill="#869bb3" d="M55 19l76 15-48 19z"/><path fill="#32474a" d="M18 139l-9 3 1 30z"/><path fill="#314258" d="M73 138h81v5H73z"/><ellipse cx="249" cy="108" fill="#36465e" rx="31" ry="6"/><path fill="#d0dfee" d="M67.4 57.4l-29.4 1 11.3-33.5L63.1 35z"/><path fill="#97aabf" d="M243.3 178l-9.7-10 33-32 9.8 10z"/><path fill="#97b1cf" d="M78.4 31.1L35.5 15.6l5.5 15 14.6-6z"/><path fill="#657b9a" d="M267.1 84.1l-42 2.7-1-33.8 31.5 5.6z"/><path fill="#abbed4" d="M-16 59.7L10.4 89-16 99l26.4-89z"/><path fill="#9fb5ce" d="M74 67l-16-9 24-8z"/><path fill="#a4bfe0" d="M38 33L25 16 9 45z"/><path fill="#7c898b" d="M207.4 53.9L155 43.4l41.4 2.8-3.4-.7z"/><path fill="#808786" d="M21.5 140.2l-34.9-14.1 8.1 58.9 20.5-53.7z"/><circle r="1" fill="#859ab4" transform="matrix(2.69466 -7.01983 31.97425 12.27377 75 76.2)"/><path fill="#7292bb" d="M24.1 69l1.3 4.9-11.5 3-1.3-4.8z"/><path fill="#00574f" d="M70.6-1.4L66.8 15 7.4 1.4 11.2-15z"/><path fill="#484e48" d="M42 148l-7 8v-20z"/></g></g></svg>