<svg xmlns="http://www.w3.org/2000/svg" viewBox="0 0 1800 1221"><defs/><filter id="a"><feGaussianBlur stdDeviation="12"/></filter><rect width="100%" height="100%" fill="#2b3950"/><g filter="url(#a)"><g fill-opacity=".5" transform="translate(3.5 3.5) scale(7.03125)"><circle r="1" fill="#dadadf" transform="rotate(174 62.8 30) scale(255 67.60344)"/><circle r="1" fill="#0a4579" transform="matrix(-4.1149 -36.11607 58.84087 -6.70407 11.5 39.8)"/><circle r="1" fill="#6e7267" transform="rotate(96.5 -25.2 123.2) scale(53.35059 227.34585)"/><path fill="#d2b9b2" d="M124 5L42 84l229-36z"/><circle r="1" fill="#413b21" transform="matrix(-2.46446 -17.84285 79.04638 -10.9179 191.8 124.9)"/><circle r="1" fill="#62a7dd" transform="matrix(5.38077 -27.56635 100.30976 19.5798 193.8 0)"/><path fill="#b19b97" d="M271 24L36 60l86 59z"/><path fill="#4075a9" d="M41 15h58v39H41z"/><circle r="1" fill="#617f8f" transform="matrix(-.2323 -8.91554 124.05025 -3.23221 176.9 154.7)"/><circle r="1" fill="#49525b" transform="matrix(25.39979 -7.98788 37.32274 118.67857 0 82)"/><path fill="#2f3026" d="M16 130h121v17H16z"/><path fill="#d9c4bb" d="M101 14h71v19h-71z"/><path fill="#9dc8d5" d="M267 103l-36-22-2 24z"/><circle r="1" fill="#628cae" transform="rotate(-89.9 98.8 73.3) scale(8.26763 35.73836)"/><ellipse cx="244" cy="46" fill="#c5b0aa" rx="51" ry="20"/><path fill="#6c6a76" d="M168 72h47v36h-47z"/><path fill="#80969b" d="M239 137h17v31h-17z"/><path fill="#a999a3" d="M32 106l29 23 82-56z"/><path fill="#4679ab" d="M204.6 6.9L86.7-16l-.1 33.3 29.6-6.6z"/><path fill="#6f7a93" d="M-14-2l94 31-53-45z"/><path fill="#6e8691" d="M51 147l120 6-49 17z"/><path fill="#3c3e32" d="M164 109h92v30h-92z"/><path fill="#27383f" d="M153.5 143.6l90.6 44.4-86.9-26 16.8-1.2z"/><path fill="#8f817f" d="M-16 87l55 41-27-64z"/><path fill="#4a75a1" d="M22 73l13-35 26 50z"/><path fill="#d8c6c0" d="M93 53.9L76.1 67.8l-20.6-2L70.4 52z"/><path fill="#6a9cc5" d="M200.7 31.7L268.3-.9l-97.6-8.3L188 51z"/><circle r="1" fill="#7a6e7f" transform="rotate(-94 103.7 17.9) scale(5.74726 49.22589)"/><circle r="1" fill="#8b8896" transform="rotate(124.1 33.6 59.3) scale(29.03004 15.70608)"/><circle r="1" fill="#9b8684" transform="matrix(57.75697 -1.8771 .3951 12.15695 216 68.5)"/><circle r="1" fill="#2f5577" transform="rotate(37 -44.4 36.2) scale(19.26731 32.65418)"/><path fill="#28383f" d="M222.7 119.5l-4.3 57.5 23.6-27.8-50.1-1.7z"/><path fill="#23414f" d="M7 60h3v81H7z"/><path fill="#9e8986" d="M124 120.8l-7.4-42.3 41.3-7.3 7.5 42.3z"/><ellipse cx="135" cy="155" fill="#88a0ac" rx="33" ry="3"/><path fill="#988e78" d="M148.1 139l-.6-2.9 22.4-5.1.6 2.9z"/><path fill="#d5c2ba" d="M112.8 33.8l1.1-20.8L124 3.7l20.8 40.6z"/><path fill="#17202f" d="M52 163.8l-.9.4L6 40.2l.9-.4z"/><path fill="#ae9c97" d="M165.5 15.2l-25.7 6.6-33.3 57 70.3 1.9z"/><ellipse cx="63" cy="140" fill="#7b7264" rx="24" ry="3"/><path fill="#223137" d="M213.9 165v1L84 157v-1z"/><ellipse cx="193" cy="130" fill="#53656f" rx="2" ry="67"/><path fill="#283438" d="M16 128h23v34H16z"/><path fill="#616d79" d="M230.5 94.7l10.3 44.9-.6-28.8-71.6-10.5z"/><path fill="#cdbfbe" d="M208.9 48.5l32.6-13.2-20.5-8.7-29.1 6.4z"/><path fill="#5c88b1" d="M136 14L86-16l120 27z"/><path fill="#6c808b" d="M240.7 146.8l-.7 29 25.9-41-100.4 20.7z"/><path fill="#646c7c" d="M253.6 99.4l17.4-8.9V73.2l-31.4 4.7z"/><path fill="#62727c" d="M167 82h3v80h-3z"/><ellipse cx="12" cy="138" fill="#627f8b" rx="4" ry="17"/><path fill="#565c57" d="M209 142l-65.1-7.8 52.3-.6 11.1-30.2z"/><path fill="#5f717c" d="M141 91h2v63h-2z"/><path fill="#30312d" d="M169 110h22v27h-22z"/><path fill="#517ca4" d="M31 65l69-23-1-45z"/><path fill="#7aa6c9" d="M241.9 32.8l-54-11.7 82.7-11.5.4 17.3z"/><path fill="#7594a3" d="M185 142v20l11 1z"/><path fill="#8d9791" d="M5 40h2v95H5z"/><path fill="#968a97" d="M12.7 3.2l12.6-18.3L83 25.8 74.8-1.8z"/><path fill="#978688" d="M40 68l83 11-51 10z"/><ellipse cx="38" cy="125" fill="#836969" rx="22" ry="4"/><path fill="#273c46" d="M228.8 168.5L190 145.3l51.5-12.1-53.4 18.1z"/><path fill="#6d90b1" d="M56.1 78.4l29 17.7-39.9 2.2-5.7-18.9z"/><path fill="#48525d" d="M49 157h73v14H49z"/><ellipse cx="127" cy="147" fill="#51595d" rx="42" ry="5"/><path fill="#938286" d="M21.5 109l18.9 24.2-19.7-49.7-6.1-14.6z"/><path fill="#75909f" d="M255.1 153.1l-51.5.3 34.4 4.5 4.2 10.4z"/><path fill="#5e8ba3" d="M60 148h36v6H60z"/><path fill="#2e2a19" d="M227.6 107l4.6 29.6-15.8 2.5-4.6-29.7z"/><path fill="#3a474f" d="M258 147l-13-3-5 8z"/><path fill="#c2bcb9" d="M109 84l4 11H83z"/><path fill="#314046" d="M6.2 134.8l3.9 29.3-26.1 9 .9-102.8z"/><path fill="#39311f" d="M244 139l14-38-19 5z"/><path fill="#778a9f" d="M225.4 107.9l4.1-31.3-35.4 5.4 14.3 21.8z"/><path fill="#5f7179" d="M107.1 159.4l23.4-1.6 39.9 8.9-3.7 13z"/><path fill="#2b302b" d="M49 138.8l62.8-3.7-106.4-6.9 46.5 7z"/><path fill="#192930" d="M149.6 162.5l56.5 4 57.5-7.9-46.4 5z"/><ellipse cx="97" cy="115" fill="#817884" rx="28" ry="14"/><path fill="#aa9a99" d="M271 44.2l-43.2 34.1 7.1-16.4-77.1-12.5z"/><path fill="#d7c4bd" d="M148.6 15.9h-47.1l-4.1 9.7 33.8 2.7z"/><path fill="#7da5c9" d="M203.6 30.8l-21 13.8-.6-24.4 64.2 8.2z"/><path fill="#545c6a" d="M194.6 97.2l-11 14 9.8-45.9 1.3 8.1z"/><path fill="#65829b" d="M15 163h25v10H15z"/><path fill="#303943" d="M149 150h34v3h-34z"/><path fill="#3b4a57" d="M30 146h27v20H30z"/><path fill="#6c7879" d="M258 144l10-46-15 20z"/><path fill="#4478a7" d="M102.7 5.1l24.8-18.6 7.8 10.4-24.8 18.6z"/><path fill="#807f8e" d="M196 73l-61 25 32 13z"/><ellipse cx="4" cy="90" fill="#b99588" rx="2" ry="20"/><path fill="#393834" d="M168 131l-19-16-40 17z"/><circle r="1" fill="#5e5e65" transform="rotate(160.2 .3 53) scale(2.25845 29.95077)"/><path fill="#5f6061" d="M108 118h10v20h-10z"/><ellipse cy="96" fill="#4c5c5e" rx="2" ry="44"/><ellipse cx="205" cy="143" fill="#001a34" rx="10" ry="3"/><path fill="#8ba4ac" d="M140 117.5h1l1 27h-1z"/><ellipse cx="165" cy="34" fill="#bfaca9" rx="7" ry="24"/><path fill="#7e98a2" d="M122 155h48v4h-48z"/><path fill="#738782" d="M15 28h2v39h-2z"/><path fill="#182221" d="M174 168h11l-3-13z"/><path fill="#244869" d="M0 0h4v68H0z"/><path fill="#636e76" d="M206.5 112.2l-7.8-33.5 8.2 60.4 1.1 24.8z"/></g></g></svg>