<svg xmlns="http://www.w3.org/2000/svg" viewBox="0 0 1800 1012"><defs/><filter id="a"><feGaussianBlur stdDeviation="12"/></filter><rect width="100%" height="100%" fill="#4e3c2f"/><g filter="url(#a)"><g fill-opacity=".5" transform="translate(3.5 3.5) scale(7.03125)"><circle r="1" fill="#adc1cd" transform="matrix(-249.70182 -51.71076 12.29587 -59.3745 188.6 33.3)"/><ellipse cx="181" cy="103" fill="#7f706b" rx="81" ry="66"/><circle r="1" fill="#000002" transform="matrix(5.56438 24.69111 -53.92856 12.15333 48 119.3)"/><path fill="#432f2a" d="M35 81l17-62 136 65z"/><circle r="1" fill="#abbecd" transform="matrix(-11.09922 -50.60294 41.96178 -9.20387 236.8 18.7)"/><circle cx="138" cy="123" r="20" fill="#c4b6aa"/><circle r="1" fill="#9caca2" transform="matrix(-33.87393 11.90453 -2.8857 -8.21113 23.5 79.9)"/><circle r="1" fill="#9fb6c0" transform="matrix(27.27972 -25.97813 17.72277 18.61074 125.7 23.8)"/><circle r="1" fill="#392c2b" transform="matrix(-9.52846 -23.96248 27.56795 -10.96214 149.6 71.3)"/><circle r="1" fill="#9ab4c4" transform="rotate(62.1 -14.3 28) scale(19.67251 29.71766)"/><path fill="#4d4e55" d="M165 49l100 2-65-26z"/><ellipse cx="239" cy="11" fill="#b0d6f7" rx="42" ry="10"/><circle r="1" fill="#8b7f74" transform="rotate(3 -1824.5 4473) scale(65.48348 27.39093)"/><circle r="1" fill="#a48583" transform="matrix(11.32885 4.86925 -5.98019 13.91356 152 70.6)"/><circle r="1" fill="#000c16" transform="rotate(117.8 -21.2 73.8) scale(42.97747 32.0113)"/><path fill="#9b8a81" d="M148.6 104.4l-60.4 39.7L34.3 158l71.8-36.6z"/><path fill="#332923" d="M57 66H30L67-1z"/><path fill="#ab9088" d="M122.3 76l12 59.1-15-40.2-25 2.8z"/><path fill="#1c1617" d="M107.1 134.4L75.3 70.3l27.9 37 16.7-16.4z"/><ellipse cx="64" cy="83" fill="#826d6a" rx="14" ry="12"/><circle r="1" fill="#beb19a" transform="rotate(-31.8 233.5 -349.8) scale(9.85906 27.28449)"/><path fill="#7a7f75" d="M-16 139.5l59.5-71.2-28.8 1-28.8 5.4z"/><path fill="#12191a" d="M136.6 40.2l14.2 7.3-15.4 30.3-14.2-7.3z"/><path fill="#95a7af" d="M80-7l32 61 68-21z"/><path fill="#fff" d="M178.4 44.9l7.6 10.5-2.4 1.7-7.6-10.5z"/><path fill="#3e3130" d="M214.7 97.6l-29-3.4 19.8 62.4-42.3-10.1z"/><path fill="#8a98a0" d="M0 3h51v46H0z"/><path fill="#000105" d="M147 49h31v5h-31z"/><circle r="1" fill="#000308" transform="matrix(2.7198 -5.26 7.78676 4.02631 193.2 46.2)"/><path fill="#000c16" d="M153 99l17 29-8-37z"/><ellipse cx="244" cy="75" fill="#43352d" rx="23" ry="4"/><path fill="#0d151b" d="M75 138l-27-19 61-68z"/><path fill="#8f6a5c" d="M63 25h35v29H63z"/><path fill="#25383f" d="M228.5 22.4l-23.2-.4-11.4-3.9 29.8 2.9z"/><path fill="#c5dbe9" d="M225 17l4-20-48 19z"/><path fill="#b5aaa1" d="M152 127l-36-6 35-20z"/><circle r="1" fill="#828379" transform="matrix(-42.92202 11.18035 -2.4247 -9.30857 177 6.1)"/><path fill="#f5fffb" d="M203 56.5l-.2 1-25.9-8 .3-1z"/><path fill="#cdccc8" d="M203 44l61.4 22.9-28.3-2.1L203 51.6z"/><circle r="1" fill="#898b88" transform="rotate(115.1 108.5 101.3) scale(8.69872 48.46639)"/><circle r="1" fill="#806251" transform="matrix(16.63805 20.2555 -11.06777 9.09117 194.9 77.2)"/><path fill="#000008" d="M99 151.8l-5.4-9.6 17.3-10 5.5 9.6z"/><ellipse cx="108" cy="56" fill="#110d05" rx="14" ry="3"/><path fill="#2a2624" d="M161.3 114.8l3.1-65.6 14.3 36-28.2 9.5z"/><path fill="#a7a8b9" d="M186 96l-12-13-13 14z"/><path fill="#020f1b" d="M127 4h13v3h-13z"/><path fill="#a3b1bb" d="M91.8 51l18.3-32.6 20.2 15.2-17.1 20.9z"/><path fill="#231b15" d="M127 69h9v32h-9z"/><path fill="#3a3838" d="M62 9L50 22l35-4z"/><ellipse cx="25" cy="58" fill="#3e2a17" rx="36" ry="10"/><path fill="#a2b1a3" d="M262.9 81.3l-28.8-1.6 1.5 10.2 35.4 6.6z"/><path fill="#0e1315" d="M118 112L77 95l-48 63z"/><path fill="#00040e" d="M176 18h25v2h-25z"/><path fill="#766354" d="M131 152l-37-31 65 15z"/><path fill="#0c1316" d="M-6.2 138.1L17.4 158l36.2-84.4L35.7 83z"/><circle r="1" fill="#66635e" transform="matrix(-26.9625 -19.72187 14.07076 -19.23666 246 135.4)"/><path fill="#826361" d="M138.4 72.4l19.3 10.3-9.6 18.7L132 89.2z"/><path fill="#abbcb9" d="M192.4 19.7L149 24l92.9.5-49.1-3.9z"/><path fill="#737873" d="M105.6 65.4l-9.1-8.8L123 66.9l20.6-38.2z"/><circle r="1" fill="#332d2e" transform="matrix(1.68139 8.4585 -24.8696 4.9436 183.9 142)"/><path fill="#5a413c" d="M68 37h13v59H68z"/><path fill="#8baac9" d="M213 10l54 8-13-34z"/><path fill="#a68c7b" d="M64 21h25v14H64z"/><path fill="#a49385" d="M228.2 51l-20 58.3-.9 10.4 15-9.9z"/><path fill="#d3dbd4" d="M242.6 56.5L198.3 54l11.6-2.6L259.8 64z"/><path fill="#b1d3f1" d="M155-16L141 3l-39-4z"/><circle r="1" fill="#415361" transform="matrix(-19.02823 -3.0819 .15988 -.98714 108.8 2.4)"/><path d="M211.4 56.8l-.2 1-8.6-2.6.2-1z"/><path fill="#ccb6ab" d="M114 83h9v7h-9z"/><circle r="1" fill="#728d9c" transform="matrix(21.08023 -1.42108 .5523 8.19276 159 39)"/><path fill="#6b5d4c" d="M200.5 64.3l22.8 9.9-33.5-4.4L159.1 53z"/><path fill="#ad948e" d="M164 63l-23 4 6-12z"/><path fill="#5a483c" d="M202.5 122l-14.9-9 12-12.8 17.4-20z"/><path fill="#716059" d="M261.3 115.5l-103.6 23.3-11.3-50 17.1 36.5z"/><path fill="#231d1b" d="M80.1 60.5v-1l85.8-6v1z"/><path fill="#744a64" d="M217.3 42.3l-7.5 5.7 14 6.1 3.1 1.3z"/><path fill="#c3dff0" d="M271 14l-7 10-30-3z"/><path fill="#202427" d="M48.7 27l14.7-10.8-4.9 22.4-5.5 3.3z"/><path fill="#382f2c" d="M165 124.6l-3.2-22.4L210 158l-24.2-37.2z"/><path fill="#a79683" d="M211.5 69.9l57.1-.1-105.9-15 40.5-1.9z"/><path fill="#4e433b" d="M133.6 86.5L91.3 71.7l6.7-37-15.1 4.9z"/><path fill="#7d5d57" d="M96.6 98.9l9.8 7.5 12.5 7.8 25.3-9.5z"/><path fill="#796b61" d="M53 65h9v24h-9z"/><path fill="#73534a" d="M44 43l53 10-13 21z"/><path fill="#827f8a" d="M178 116.9l12.1-8.2-.7-11.4-8.2-1.8z"/><path fill="#322b2a" d="M142.7 70.6l23.7 12.2-15.8 19.8 27.8-25.8z"/><path fill="#9faca6" d="M58.3-3.7l72 11.4-.6 4L57.7.3z"/><path fill="#707265" d="M136.9 14.8l-72-12.6.2-1 72 12.6z"/><path fill="#958378" d="M205.7 68.9L174.1 71l60.4 24.3-32.7-22.8z"/><path fill="#3097af" d="M253 56h3v19h-3z"/><path fill="#61565a" d="M173 118l11 33 8-31z"/><circle r="1" fill="#717c7f" transform="rotate(-143.3 85.9 -16.6) scale(32.07821 4.36277)"/><path fill="#a6a896" d="M126 65l-5-6h-17z"/><circle r="1" fill="#8a897b" transform="matrix(-29.33608 5.4901 -.95728 -5.1152 18.5 78.7)"/><circle cx="173" cy="48" r="4" fill="#162a31"/><path fill="#1d1b19" d="M87 77H73L58 63z"/><path fill="#d4d9d4" d="M197.5 56.3l-17.6-8.7 6.9 9.9 25.6-7z"/><path fill="#8a969e" d="M21 49L-16 4l69 44z"/><path fill="#372b23" d="M142.9 103.3l-18.7-30.9 2.7 21.2 6.4 11.9z"/><circle cx="185" cy="45" r="4" fill="#0b181c"/></g></g></svg>