<svg xmlns="http://www.w3.org/2000/svg" viewBox="0 0 1200 1800"><defs/><filter id="a"><feGaussianBlur stdDeviation="12"/></filter><rect width="100%" height="100%" fill="#2b3a4a"/><g filter="url(#a)"><g fill-opacity=".5" transform="translate(3.5 3.5) scale(7.03125)"><ellipse cx="71" cy="92" fill="#ffe6ba" rx="169" ry="137"/><circle r="1" fill="#ffe4ae" transform="rotate(-144.7 25 27) scale(58.4211 147.96086)"/><path fill="#5f5761" d="M179-11l-2 272-191 10z"/><ellipse cx="54" cy="129" fill="#e1c5aa" rx="52" ry="25"/><path fill="#6b6460" d="M32 152l-48 102 198 17z"/><circle r="1" fill="#ffd9a8" transform="matrix(-6.4059 -12.47546 31.45456 -16.15128 135.4 11)"/><path fill="#062c3b" d="M71.6 175l-10.4 59-16.8-3 10.4-59z"/><circle r="1" fill="#75625b" transform="rotate(-117.5 81 -11.1) scale(23.46384 59.99472)"/><path fill="#5a433a" d="M63 147L48 97l19 1z"/><path fill="#0d468c" d="M75 152h22v34H75z"/><circle r="1" fill="#ffe3b6" transform="matrix(2.5482 .0166 -.28778 44.19404 98.3 83.4)"/><path fill="#484353" d="M108 96h21v89h-21z"/><path fill="#ebcca5" d="M-16 158L33-16l24 169z"/><path fill="#f7edd9" d="M71 99l11 34-11 38z"/><path fill="#8995b6" d="M119 156l-2-17-56 14z"/><ellipse cx="6" cy="193" fill="#8a8587" rx="41" ry="31"/><path fill="#92a7b6" d="M120.8 185.8l-110.1 2.8 124 7.2-15.1-11.5z"/><path fill="#e9c59f" d="M40 10h61v51H40z"/><ellipse cx="86" cy="101" fill="#736157" rx="5" ry="52"/><ellipse cx="74" cy="118" fill="#cabaa8" rx="49" ry="7"/><path fill="#ecf6fc" d="M55.4 169.4l-6 .1-.8-43h6z"/><path fill="#377785" d="M60 141l13 48-20 1z"/><ellipse cx="69" cy="239" fill="#6b605c" rx="71" ry="28"/><path fill="#000929" d="M63.7 209.4l-15.6-3.3 4.2-19.5 15.6 3.3z"/><path fill="#f0cda8" d="M103 55.6L25.1 79l53.2 28.3-.2-50.4z"/><path fill="#232119" d="M145.2 36.1l9.8-3.9 2.5 19.2-7.5-1z"/><path fill="#b4cce6" d="M98 155h4v36h-4z"/><circle r="1" fill="#252821" transform="matrix(-.8672 8.262 -8.37729 -.8793 117 104.5)"/><ellipse cx="59" cy="136" fill="#e4daca" rx="45" ry="3"/><circle r="1" fill="#6b6462" transform="rotate(172.7 61 109.1) scale(54.19256 11.12036)"/><path fill="#a3adbb" d="M64 153h11v26H64z"/><path fill="#d0b18b" d="M-16 41L97 62l11-41z"/><path fill="#0d1418" d="M81.3 131.3l7.2-7 4.2 4.4-7.2 7z"/><path fill="#a7b1bd" d="M102 222h17v7h-17z"/><path fill="#778b9c" d="M121 105l2 16-34 9z"/><circle cx="111" cy="131" r="6" fill="#17130c"/><circle cx="84" cy="164" r="8" fill="#0051bf"/><path fill="#362a20" d="M58.1 112.9h-1.4l-6.3-11.5 14.4 4.6z"/><ellipse cx="73" cy="16" fill="#e4cbaa" rx="82" ry="10"/><path fill="#603d1b" d="M78 177h19v9H78z"/><path fill="#6e6664" d="M100.5 46l6.7 17.9L185 93l-49-65.2z"/><path fill="#929094" d="M150 112h20v30h-20z"/><path fill="#356d6e" d="M61.9 192.6l7.2 2.9 2.1-28.7-28.5 14.3z"/><circle cx="61" cy="143" r="4" fill="#1e1719"/><ellipse cx="124" cy="142" fill="#312926" rx="2" ry="44"/><path fill="#7f797a" d="M100 80h8v75h-8z"/><ellipse cx="80" fill="#ac9a87" rx="57" ry="7"/><circle r="1" fill="#caa581" transform="matrix(12.46372 2.99227 -3.95413 16.47016 34.3 145.5)"/><path fill="#7c4e2c" d="M96 64.5l-2.2 11.8-15.7-2.8 2-11.8z"/><path fill="#432a29" d="M65 153H54l9 10z"/><path fill="#423d3a" d="M76 237l-78-13 50-5z"/><path fill="#a2a9cb" d="M69 158l-23 10 27-1z"/><path fill="#b2b0cf" d="M108 155l10-18-1 20z"/><circle cx="87" cy="103" r="5" fill="#292528"/><circle r="1" fill="#57483e" transform="rotate(6.9 -1882 1466.5) scale(33.30421 21.86624)"/><path fill="#5e000e" d="M107 158h19v6h-19z"/><path fill="#1d0500" d="M55 171h11v4H55z"/><circle r="1" fill="#877a76" transform="matrix(-3.71385 28.99112 -15.95258 -2.04357 132.7 72.6)"/><circle r="1" fill="#706c6d" transform="matrix(30.37109 -8.3399 2.3667 8.61873 17.9 238.7)"/><path fill="#d5b592" d="M152 20L78 48l54-64z"/><path fill="#3e393d" d="M78 86h13v7H78z"/><path fill="#979a9f" d="M103.9 182.5v8.8l-19 14.4L71.4 190z"/><path fill="#d3a989" d="M91.4 84.7l9.7-6-18.9.4-5.7 5.1z"/><path fill="#a3a6a8" d="M31.1 216.9l-29.3 4.7-8-9 27.7-.6z"/><path fill="#eecda7" d="M95 39h4v84h-4z"/><path fill="#00317b" d="M89 157l1-7 10 2z"/><path fill="#b47d57" d="M91 69h5v53h-5z"/><path fill="#7e6c67" d="M29.2 188.3l-8.3-17 27.9-13.6 8.3 17z"/><circle cx="59" cy="127" r="4" fill="#25242a"/><path fill="#fffff5" d="M72 129h7v13h-7z"/><path fill="#9f6635" d="M56.9 96l2.1 2-9.9 10-2.1-2.2z"/><path fill="#cfb093" d="M85.1 99.1l23.3 7.3L66 84.7l-25.7-3.3z"/><path fill="#eacda7" d="M68 60h10v66H68z"/><path fill="#eae2de" d="M64.4 149.1l-1.3 4.9-11.5-3.1 1.3-4.9z"/><path fill="#e5cfaa" d="M-16 39.4l33.6 39 44-55.2-39.7 30z"/><path fill="#916c45" d="M80 141h12v9H80z"/><path fill="#6a6057" d="M24 191l6 32 6-33z"/><path fill="#736863" d="M141 78.1l-38.1-38.8 54.2-19.4-27.2 42.7z"/><path fill="#79777c" d="M152 164h18v52h-18z"/><path fill="#8090a4" d="M113 178l-34-5 18-5z"/><path fill="#9b8167" d="M152.7 55.3L92.2 37.2l-20.3 2.2 10.7-7.6z"/><path fill="#4d4e58" d="M151 149h19v10h-19z"/><path fill="#c4a578" d="M22 87L0 82l-6 24z"/><circle r="1" fill="#259194" transform="matrix(.24021 -7.74727 5.74158 .17802 62 183)"/><path fill="#8d837c" d="M52.2 219.8l9.5.8 21.4-.7 6.4-10.4z"/><path fill="#fdf7e2" d="M56 132l-11-18 8 32z"/><path fill="#c6a881" d="M13.3 43.7l-24-40.3 51.2 44.1-56.5-.9z"/><path fill="#5e5e5b" d="M150.7 84.2l22.7-55.4L185 72.9 157.5 88z"/><path fill="#584b39" d="M75 153h2v33h-2z"/><circle r="1" fill="#938379" transform="matrix(28.4882 -14.01793 2.71006 5.50756 18.8 164.8)"/><path fill="#7c8c9c" d="M104 113l17 16 1-22z"/><circle r="1" fill="#b39c8e" transform="matrix(3.5383 -.16686 .89833 19.04894 70.5 148.6)"/><path fill="#9e9d9d" d="M15 179l30 10-61 3z"/><ellipse cx="99" cy="111" fill="#fddfb7" rx="3" ry="6"/><circle r="1" fill="#458ce4" transform="rotate(-58 182.7 1.3) scale(2.34145 6.87283)"/><path fill="#e7d8ba" d="M47 11h56v11H47z"/><path fill="#fff" d="M65 134H51l-1 6z"/><path fill="#b4b5c0" d="M82 188h36v3H82z"/><path fill="#f9e4be" d="M34 87h3v59h-3z"/><ellipse cx="86" cy="75" fill="#7eb2d7" rx="2" ry="6"/></g></g></svg>