<svg xmlns="http://www.w3.org/2000/svg" viewBox="0 0 1800 1200"><defs/><filter id="a"><feGaussianBlur stdDeviation="12"/></filter><rect width="100%" height="100%" fill="#544540"/><g filter="url(#a)"><g fill-opacity=".5" transform="translate(3.5 3.5) scale(7.03125)"><circle r="1" fill="#f2ffff" transform="matrix(9.66594 -65.83966 252.2956 37.03959 192 58.2)"/><ellipse cx="255" cy="42" fill="#e0eefa" rx="170" ry="43"/><circle r="1" fill="#5c6460" transform="matrix(6.53059 -40.92723 105.66892 16.86115 166.7 119)"/><circle r="1" fill="#d4dada" transform="rotate(92.4 80.7 171.2) scale(163.62341 18.15229)"/><circle r="1" fill="#ccb9a3" transform="matrix(81.1889 49.36362 -6.54924 10.7716 17.9 158.1)"/><circle cx="42" cy="10" r="93" fill="#92a8c9"/><circle cx="105" cy="169" r="45" fill="#132217"/><circle cx="95" cy="59" r="31" fill="#cfd3d3"/><circle r="1" fill="#3c5e8e" transform="matrix(-19.08066 -4.2151 7.01021 -31.73334 14.5 4.7)"/><ellipse cx="47" cy="96" fill="#635952" rx="135" ry="9"/><path fill="#58595c" d="M163.2 53l-16.5 57.5-28.9-27.1 48-33.8z"/><path fill="#363a2d" d="M158 179l-30-50 107-14z"/><ellipse cx="255" cy="67" fill="#e8e9e0" rx="71" ry="22"/><path fill="#b4bcc5" d="M91 92L230-16-11 67z"/><path fill="#272120" d="M270 101.2l-.1 5-38-1.4.2-5z"/><circle r="1" fill="#62747a" transform="matrix(-29.21429 -3.3802 2.47178 -21.36293 232 169)"/><path fill="#140800" d="M19.8 8.7L.3 3.7l17-4.2 4.1 6z"/><circle r="1" fill="#7b7a80" transform="rotate(87.6 -6.6 111.2) scale(14.99753 61.90197)"/><circle r="1" fill="#899ebc" transform="matrix(34.37505 -69.19388 15.1044 7.50376 32.9 26.4)"/><path fill="#484b52" d="M118 78h60v15h-60z"/><path fill="#000100" d="M30.6 118.4l-46.6 4.3 16.9 7.4 34.9-3.7z"/><circle cx="45" cy="140" r="16" fill="#8c7151"/><path fill="#6d6a62" d="M228.7 87.9l10 68.4-92.4-21.4 94.5-18.3z"/><path fill="#a7a3a3" d="M142 123l-5-21 80 16z"/><ellipse cx="136" cy="4" fill="#879bba" rx="77" ry="16"/><path fill="#b7ab9f" d="M244.9 126l-61.3-36.9 46.5 9.6.3 14.6z"/><path fill="#080503" d="M199.4 123.9v1L60.6 132v-1z"/><circle r="1" fill="#534b41" transform="rotate(93.3 -24 36.7) scale(70.64321 1)"/><path fill="#3e3935" d="M188 87h37v4h-37z"/><circle r="1" fill="#efecea" transform="matrix(-37.32074 24.17316 -6.05887 -9.35423 255 0)"/><path fill="#5a4e46" d="M71.3 89.5l8.5 42.1L9.5 81.5l49 10.6z"/><path fill="#cebbb1" d="M100.1 165.8L75 181.7l64.3 3.3-34.7-17.2z"/><path fill="#9ca09e" d="M227.3 126.4l-9.9-1.6 53.6 9.4-41.9 31.1z"/><path fill="#bbc0c6" d="M-16 85.7L168.4 4.3l-15.9 67-42.8 6.6z"/><ellipse cx="73" cy="156" fill="#232219" rx="13" ry="32"/><path fill="#59534f" d="M190.2 83.9l52 21.7-12.9-17-23.7-3.4z"/><circle r="1" fill="#9aafcd" transform="matrix(-42.9104 21.39433 -8.13865 -16.3236 61.8 39)"/><path fill="#93806d" d="M32 135l-48-1 15 51z"/><path d="M50 105h12v5H50z"/><path fill="#ccc8be" d="M50 66h69v19H50z"/><circle r="1" fill="#d8d7cc" transform="matrix(4.53445 17.1622 -12.88918 3.40547 180.8 64.8)"/><path fill="#b5b0a9" d="M181 86h14v13h-14z"/><circle r="1" fill="#7d95b8" transform="rotate(75.1 11 38.4) scale(15.12099 126.47855)"/><circle r="1" fill="#283225" transform="rotate(56.9 -81 222.6) scale(12.11934 37.76682)"/><path fill="#606262" d="M137 81h44v23h-44z"/><path fill="#594c3e" d="M155 51h4v17h-4z"/><path fill="#72665c" d="M0 98h52v13H0z"/><path fill="#898884" d="M150.5 93.9l-13.4 36.3 9.7-44 53.1 17.1z"/><circle r="1" fill="#a9a399" transform="matrix(21.94268 3.71133 -.9639 5.69897 .6 89.1)"/><path fill="#e7e3da" d="M271 107.4l-10.4-49.3-47.9 6.5 13.4 20.5z"/><ellipse cx="248" cy="81" fill="#c8c4b7" rx="62" ry="4"/><path fill="#ece8e2" d="M183 17l-19 17 55-18z"/><path fill="#252523" d="M175 79l3 16.8-7 1.2-3-16.8z"/><path fill="#4a3b28" d="M197 119h40v5h-40z"/><path fill="#1f1a12" d="M3.3-9.2L-16-16 24.4 7.8l-14.3-.2z"/><ellipse cx="71" cy="86" fill="#a99c8c" rx="41" ry="4"/><path fill="#504e57" d="M84 91h28v9H84z"/><path fill="#78747b" d="M92 125l-41-14-4 14z"/><path fill="#4c4e51" d="M186 69.5h-6v-3h6z"/><path fill="#101113" d="M97 128h66v3H97z"/><path fill="#3e424a" d="M160.1 107.5l-4.7-7.5-37.6-7.4 44 4.9z"/><circle r="1" fill="#c4d0d9" transform="matrix(-3.13751 -11.13596 59.48834 -16.76061 216.1 49.4)"/><path fill="#c9cfd1" d="M150.7 74.1l2.8-5.9 4.1-20.1-45.3-16.3z"/><path fill="#514c49" d="M84.7 118.4l-35.3-7.1 41.4-2.8 36.2 7.9z"/><ellipse cx="159" cy="109" fill="#9d9996" rx="65" ry="3"/><ellipse cx="9" cy="89" fill="#564f4c" rx="2" ry="18"/><path fill="#d5d4cb" d="M239.5 120.2l7 .7-2 19-7-.8z"/><path fill="#52605f" d="M175 166h81v4h-81z"/><path fill="#aba8a1" d="M215.4 73.1l2.8 20.8-20.9-2.9 17.6 21.7z"/><path fill="#262524" d="M218.7 90l2.7-1.2 4 9.2-2.8 1.2z"/><path fill="#413b35" d="M140 71.6v-5l4-.2v5z"/><ellipse cx="127" cy="88" fill="#3d495b" rx="22" ry="4"/><path fill="#081620" d="M143.4 94.4l-1.9 9.8-3-.6 2-9.8z"/><path fill="#7d7b7f" d="M49 100l41-4 28 16z"/><path fill="#adb6c2" d="M141 44l-37-23 131-32z"/><path fill="#9f9386" d="M229.1 105.2l5.9 18 26.7-11.3-78.6 11z"/><path fill="#3e3d40" d="M235.5 95.7l-20.8 2.6-.2-2 20.8-2.6z"/><path fill="#58524a" d="M159.9 51.2l1 .3L148 98.8l-1-.3z"/><ellipse cx="31" cy="142" fill="#57412c" rx="16" ry="4"/><path fill="#deb87b" d="M37 128h15v2H37z"/><path fill="#c4c5c3" d="M106.7 91.4l-13.6.1 37.8-21.6-34.6-5.4z"/><path fill="#868b94" d="M113 94h20v19h-20z"/><path fill="#090502" d="M59 165h27v5H59z"/><path fill="#dad7cc" d="M191.7 62.8l77.4 38.1-106.9-53.7L162 80z"/><path fill="#52554d" d="M182 122h42v45h-42z"/><ellipse cx="74" cy="35" fill="#9fafc6" rx="16" ry="29"/><path fill="#9ba0a8" d="M166.4 86v1l-58.8-5v-1z"/><circle r="1" fill="#b2c2d0" transform="rotate(-6 453.6 -1981.1) scale(102.63876 6.07453)"/><path fill="#1e1814" d="M23 130h13v4H23z"/><path fill="#b0bbc7" d="M13 52h90v19H13z"/><ellipse cx="2" cy="73" fill="#b1b4b6" rx="7" ry="22"/><path fill="#686e6c" d="M225 120l-4 65 16-14z"/><ellipse cx="38" cy="121" fill="#0d100b" rx="9" ry="2"/><path fill="#696e74" d="M163.7 115.7l-9.8 9.4-21.8-.5-13.2-11.3z"/><path fill="#484f4b" d="M138 130h30v21h-30z"/><path fill="#eff0ea" d="M227 81l-6-16 50-3z"/><path fill="#c6c4be" d="M117.5 82.4l-2.4 8.3-2.9-19.9-65.2 14z"/><path fill="#7d6454" d="M70 157l8 5-11-2z"/><path fill="#3f3830" d="M68.9 146.8l-17-22L81 126l6.9 15z"/><path fill="#493f37" d="M70 88l-13 3 20 5z"/></g></g></svg>