<svg xmlns="http://www.w3.org/2000/svg" viewBox="0 0 1800 1012"><defs/><filter id="a"><feGaussianBlur stdDeviation="12"/></filter><rect width="100%" height="100%" fill="#2b3a4c"/><g filter="url(#a)"><g fill-opacity=".5" transform="translate(3.5 3.5) scale(7.03125)"><circle r="1" fill="#ccd6e6" transform="rotate(177.2 60.8 22.8) scale(255 50.66964)"/><circle r="1" fill="#c2c4c3" transform="matrix(12.02575 -24.11992 59.56638 29.6987 56.4 43)"/><ellipse cx="202" cy="26" fill="#eeeee8" rx="28" ry="9"/><circle r="1" fill="#3c557a" transform="matrix(-29.2335 22.26995 -13.80522 -18.12194 141.1 38.4)"/><ellipse cx="230" cy="51" fill="#324f7b" rx="72" ry="16"/><path fill="#2d3536" d="M59 86l212 72-33-74z"/><path fill="#2a4677" d="M288.1 46.2l-98-37.6 11.8-30.8 98 37.6z"/><ellipse cx="135" fill="#dfe0de" rx="57" ry="10"/><ellipse cx="63" cy="35" fill="#c7cace" rx="43" ry="14"/><path fill="#44597b" d="M3 44l37 49-56 1z"/><circle r="1" fill="#909aa3" transform="rotate(11.4 -280.3 1182.3) scale(64.12312 7.39376)"/><circle r="1" fill="#19262c" transform="rotate(170.5 14 60.3) scale(67.61541 22.44497)"/><path fill="#d8d8d8" d="M56 2L17-16l-2 30z"/><path fill="#8f97a0" d="M-16 30l84 60 98-22z"/><circle r="1" fill="#3e5478" transform="matrix(-1.24425 -7.22537 53.88176 -9.27878 161.9 17.2)"/><path fill="#b1b6bb" d="M160 43l34-9-54-2z"/><path fill="#3c4e70" d="M55 1l60 18H60z"/><path fill="#c7cacc" d="M27 30h102v6H27z"/><circle cx="241" cy="142" r="47" fill="#142533"/><circle r="1" fill="#576983" transform="matrix(27.02212 -30.64837 14.30237 12.61014 249 60.9)"/><ellipse cx="172" cy="90" fill="#595751" rx="107" ry="6"/><ellipse cx="165" cy="53" fill="#526888" rx="73" ry="12"/><path fill="#b7bcbc" d="M179.2 74.4l15.3-13.3L219.7 77 153 72.6z"/><ellipse cx="24" cy="65" fill="#4c6080" rx="23" ry="6"/><path fill="#7c776b" d="M-1 20L47 6 21 23z"/><path fill="#c1c4c6" d="M238 34l-14-17-59 16z"/><path fill="#40577c" d="M176 15l27 9-12-10z"/><path fill="#a4aaab" d="M97 65h64v18H97z"/><path fill="#abb1b9" d="M66.9-16l66.6 34.9 5.8 2.3-26.5-1.3z"/><path fill="#3f5475" d="M154 12l-26-2 15 36z"/><ellipse cx="190" cy="142" fill="#1a2a33" rx="189" ry="11"/><path fill="#768192" d="M87.8 95.3L14 44l22.6-10-17.9 61.5z"/><path fill="#555c5f" d="M90 84h61v12H90z"/><ellipse cx="241" cy="82" fill="#858f98" rx="127" ry="4"/><path fill="#2d436a" d="M60 13l-14 1L66 2z"/><circle r="1" fill="#d7dadb" transform="rotate(91.1 84 82.5) scale(5.18825 22.72954)"/><ellipse cx="214" fill="#ced2cf" rx="6" ry="3"/><ellipse cx="103" cy="124" fill="#35424e" rx="29" ry="16"/><path fill="#737f95" d="M9 45h53v7H9z"/><path fill="#0a673f" d="M-2-5l1 11L36-8z"/><ellipse cx="206" cy="115" fill="#293845" rx="31" ry="24"/><path fill="#b4babe" d="M170.5 29.8l8-11.4L201 42.6l-17.6-7.2z"/><path fill="#a6adba" d="M-12.3 28.5L36 55.1l-24.6 4.6 27.5-47.8z"/><path fill="#a5abb0" d="M19 73l68-25 12 18z"/><path fill="#b1b7be" d="M76 52l20.6-28.9L59 15.8-4.1 28.5z"/><path fill="#919ca6" d="M141-4l-1 14-48-1z"/><path fill="#babfc3" d="M158 40.9l-12 .2v-8l12-.2z"/><path fill="#596877" d="M137 118l-19-4-19 8z"/><path fill="#4a5c7a" d="M128.4 32l-31.3-9.9-.5-9.3 45 17.7z"/><path fill="#4d6382" d="M100.1 38.1l11.6 5.3L196 72.2l-65.8-34.4z"/><circle r="1" fill="#445a7b" transform="rotate(-54.7 100.7 -137) scale(7.14791 17.41478)"/><ellipse cx="236" cy="89" fill="#4c4c45" rx="113" ry="3"/><path fill="#a4acb3" d="M193 32h51v3h-51z"/><path fill="#b6b8b7" d="M115.4 54.1l-1.3 4.9-11.5-3.1 1.3-4.9z"/><ellipse cx="169" cy="68" fill="#b6bcbe" rx="35" ry="2"/><ellipse cx="13" cy="113" fill="#1a2832" rx="51" ry="18"/><path fill="#3f577e" d="M276.5 29.8L255.3 43 233.5 8.2 254.7-5z"/><path fill="#485b79" d="M-2.9 105.9L-16 49l41.2-.7L10 51.8z"/><path fill="#9ea5b0" d="M77-3.8L65.5 3.1l33.9.9L91 17.6z"/><path fill="#abafb5" d="M105 31h28v6h-28z"/><path fill="#899299" d="M131.6 77.2L65.4 90.6 38.8 59.3l26.9 8.9z"/><circle r="1" fill="#caced1" transform="matrix(1.55818 -4.29797 14.8624 5.3882 211 23.3)"/><ellipse cx="9" cy="90" fill="#677589" rx="58" ry="5"/><path fill="#8492a3" d="M115.6 11l57.3.3 21-6.5-42 3.4z"/><path fill="#d0d3d3" d="M76 41h29v4H76z"/><circle cx="75" cy="13" r="7" fill="#3d5275"/><circle r="1" fill="#12212d" transform="matrix(26.57422 -51.91622 15.7209 8.04701 255 128.5)"/><path fill="#576b89" d="M179.3 39.8l-42.8 7.3 27.1 23.3 49.1-30.8z"/><path fill="#7f6c42" d="M-18.9 28.2l127.5-41.4.3 1-127.5 41.4z"/><path fill="#b8bcc2" d="M16 1l-28 12 37-1z"/><path fill="#c9cdd1" d="M54.5 37.4l.8 10.2-33.2-22.5 36.6 7.8z"/><path fill="#b0b6b9" d="M97 58.3l32.8 12-2.7 7.4-33-12z"/><ellipse cx="102" cy="89" fill="#5c646c" rx="26" ry="5"/><path fill="#6c7c91" d="M141.8 79.9l7.6-6.7-34.1-7.1-1-12.5z"/><path fill="#b1b5bb" d="M-6 21L63 0 53-16z"/><circle r="1" fill="#5f738f" transform="matrix(-71.4784 -16.09756 1.12545 -4.99737 240.8 70)"/><circle cx="190" cy="64" r="2" fill="#e3e3da"/><path fill="#202c34" d="M114.9 115.4L60 100.9 97 97l48.3 18z"/><path fill="#4d6385" d="M179 3l-23 16 33-1z"/><path fill="#4d6180" d="M151.9 14.2L197 58.3l-36.5-32.1-48.4 29.9z"/><path fill="#5d5c54" d="M204 87.7l-37 8.5-1-3.9 37-8.5z"/><ellipse cx="227" cy="16" fill="#647592" rx="18" ry="4"/><path fill="#caced0" d="M161-3l28-13V7z"/><path fill="#c0c5c7" d="M144 64h12v5h-12z"/><path fill="#526888" d="M218.4 34.1L271 49.5l-78.4 4.8 7.2-21.1z"/><path fill="#8991a2" d="M29 54L3 45-9 14z"/><path fill="#b0b5b9" d="M46 54h47v6H46z"/><path fill="#8993a0" d="M32.1 61.2l35.2-12-10.8-14 16.3 2.3z"/><circle cx="198" cy="68" r="4" fill="#d2d6d3"/><path fill="#b8bdc3" d="M221.4 34.6l.2-4 25 .8-.2 4z"/><circle r="1" fill="#536584" transform="rotate(-85.1 45.5 21) scale(2.95335 26.20184)"/><path fill="#a5a9b2" d="M46 67l-22 5 10 4z"/><path fill="#535d6a" d="M48.5 95.5l20.1-4.9 16.1-4.1 16.7 9.3z"/><path fill="#293945" d="M96 122h149v9H96z"/><ellipse cx="230" cy="110" fill="#8c93a0" rx="4" ry="1"/><path fill="#4c6181" d="M183.4 47.5l-82.7-10.3 19.4 16.4 12.9-.5z"/><path fill="#bfc4c7" d="M175 20l-5 14 19-14z"/><path fill="#979fa6" d="M193.4 78.9l-.6-7 31.8-2.8.6 7z"/><ellipse cx="253" cy="92" fill="#3d3d3b" rx="48" ry="4"/><path fill="#9199a6" d="M41.7 22.5l-9.3 7.1L61.6 2.4 10.1 25.3z"/></g></g></svg>