<svg xmlns="http://www.w3.org/2000/svg" viewBox="0 0 1800 1200"><defs/><filter id="a"><feGaussianBlur stdDeviation="12"/></filter><rect width="100%" height="100%" fill="#6c533c"/><g filter="url(#a)"><g fill-opacity=".5" transform="translate(3.5 3.5) scale(7.03125)"><circle r="1" transform="matrix(1.64635 36.25553 -254.73749 11.56756 110.2 146.6)"/><circle r="1" fill="#ca5b13" transform="matrix(-106.7527 2.0389 -.66747 -34.9472 103.5 80.2)"/><ellipse cx="85" cy="99" fill="#ffffaf" rx="14" ry="11"/><circle r="1" fill="#040007" transform="matrix(5.90162 35.26666 -247.80502 41.46834 139.7 155.5)"/><circle r="1" fill="#160506" transform="matrix(50.64775 -15.37793 8.279 27.26716 20.3 130.5)"/><circle r="1" fill="#ffc760" transform="rotate(-87.1 88.4 -64.8) scale(3.19526 109.48536)"/><circle r="1" fill="#7e3b18" transform="rotate(-7.1 727.4 -1667) scale(84.72515 30.81508)"/><path fill="#ff8a32" d="M89 70.9l23.5 33.6L83 125 59.5 91.5z"/><path fill="#fff" d="M79 99h15v9H79z"/><ellipse cx="11" cy="69" fill="#d38f41" rx="102" ry="6"/><path fill="#742b12" d="M122 121l-45 30-33-58z"/><ellipse cx="91" cy="49" fill="#82532c" rx="254" ry="19"/><ellipse cx="126" cy="25" fill="#ffd77d" rx="41" ry="2"/><ellipse cx="174" cy="68" fill="#ffb755" rx="14" ry="3"/><path fill="#c65a13" d="M51.9 71.3l43.3-1.9L156 105l-44.2 3.2z"/><path fill="#edaa55" d="M139 52h78v3h-78z"/><ellipse cx="11" cy="90" fill="#963d0e" rx="47" ry="14"/><ellipse cx="84" cy="102" fill="#fff" rx="9" ry="5"/><circle r="1" fill="#140e0e" transform="matrix(7.56382 21.96692 -42.84174 14.7516 2.7 129.4)"/><path fill="#cd924d" d="M65 40h84v3H65z"/><path fill="#2f1812" d="M112 110l68-2-145 74z"/><ellipse cx="82" cy="21" fill="#f2af64" rx="35" ry="3"/><ellipse cy="51" fill="#704225" rx="117" ry="13"/><circle r="1" fill="#733a20" transform="matrix(2.40053 24.93047 -96.90967 9.33134 247.9 82.7)"/><ellipse cx="248" cy="24" fill="#301609" rx="46" ry="3"/><path fill="#ffd67a" d="M124 48h36v2h-36z"/><path fill="#fff58c" d="M104 58h21v2h-21z"/><circle r="1" fill="#ffaf5a" transform="matrix(-26.41568 -.96862 .084 -2.29098 179 28)"/><circle r="1" fill="#fa8219" transform="matrix(13.66556 4.57243 -.89066 2.66189 81.4 109)"/><path fill="#f0ba65" d="M64 68h120v2H64z"/><path fill="#c05c17" d="M35 103l62-29-55 8z"/><path fill="#e18135" d="M200 28h56v3h-56z"/><path fill="#f4a04c" d="M137 22h39v7h-39z"/><circle r="1" fill="#111112" transform="matrix(-10.84856 -38.82198 59.87905 -16.73283 203.3 148)"/><ellipse cx="49" cy="123" fill="#371e18" rx="13" ry="27"/><path fill="#7a4a2a" d="M217.8 52.5l-80.1 25 38.5 1-53.4-20.8z"/><path fill="#69492e" d="M229 31h27v42h-27z"/><path fill="#ed8927" d="M115 90l-4 17-38-21z"/><ellipse cx="98" cy="73" fill="#95491c" rx="34" ry="5"/><path fill="#792f14" d="M95.4 108l5.6 25.5-42.7-16.2L198.4 107z"/><path fill="#dda457" d="M63 46h24v2H63z"/><path fill="#a56b39" d="M14.2 22l149.7 8v2L14 24z"/><path fill="#7e5a36" d="M268.7 23.6l-166-2-3.3 2.3L28.5 4.5z"/><path fill="#faffff" d="M90.7 107.7L77.2 104l2-7.8 13.6 3.6z"/><path fill="#e98823" d="M47.1 96.5l40-13.1 6.5 8.5-19.9 8.7z"/><path fill="#ffae55" d="M180.6 29.2l-.2-3 21-1.4.2 3z"/><path fill="#7d3f1d" d="M-16 118.2l60.4-42-29.8 3.3-30.6-9.2z"/><path fill="#ebbd6a" d="M36 67l8 6 12-2z"/><path fill="#993d12" d="M65 108.2L63.1 97l27.8 25.3-36.9-9z"/><ellipse cx="175" cy="53" fill="#ffd069" rx="23" ry="1"/><ellipse cx="71" cy="143" fill="#291b16" rx="56" ry="11"/><ellipse cx="90" cy="23" fill="#ffd988" rx="15" ry="2"/><ellipse cx="15" cy="68" fill="#ffd868" rx="21" ry="1"/><path fill="#ffca74" d="M120 25h49v3h-49z"/><path fill="#99461b" d="M212.1 103.1l-60.7-22-25.9-7-.4 36.4z"/><path fill="#652f18" d="M81 63.2l-64.7-5-1.8 8.4-30.5-3.1z"/><path fill="#d68638" d="M31 64h54v3H31z"/><ellipse cy="73" fill="#edab4b" rx="52" ry="2"/><path fill="#ea8f3e" d="M216 58h17v2h-17z"/><path fill="#43241c" d="M205 102l-29 12 67-3z"/><path fill="#c99452" d="M117.1 44.3l3.6-4.9 13.3 3.7 6.9.7z"/><path fill="#773916" d="M0 70h34v2H0z"/><path fill="#81441e" d="M210 27h26v3h-26z"/><path fill="#5e3d2a" d="M118 51h35v2h-35z"/><path fill="#a34c18" d="M60 66l-44 35h27z"/><path fill="#cb8844" d="M98 56h20v6H98z"/><path fill="#7c5433" d="M160 28l-64 1 69 21z"/><ellipse cx="129" cy="22" fill="#8e4318" rx="34" ry="1"/><ellipse cx="63" cy="69" fill="#ffd67b" rx="16" ry="1"/><path fill="#7a3d1c" d="M46 58h19v11H46z"/><path fill="#542818" d="M52 99h14v21H52z"/><path fill="#6d4d31" d="M208 32h48v19h-48z"/><circle r="1" fill="#191412" transform="matrix(46.67403 42.48853 -24.40844 26.8129 20.5 154)"/><ellipse cx="127" cy="62" fill="#efa74d" rx="10" ry="1"/><ellipse cx="117" cy="46" fill="#f9cd77" rx="7" ry="1"/><path fill="#f0922f" d="M75.9 83.1l21.5 23.7-8.6 6.2 12.5-14.6z"/><path fill="#c0753a" d="M169 21h32v2h-32z"/><path fill="#582212" d="M148 67h21v2h-21z"/><ellipse cx="65" cy="65" fill="#e6a24b" rx="24" ry="1"/><path fill="#f4c473" d="M70.2 41.4l-.2-1 9.8-1.8.2 1z"/><path fill="#704d2e" d="M0 26h77v14H0z"/><ellipse cx="90" cy="68" fill="#ffe293" rx="18" ry="1"/><circle r="1" fill="#e29e48" transform="matrix(10.21678 .26314 -.02575 .99967 157.6 70)"/><path fill="#d68a43" d="M228.5 51l-22.9 3v-1l22.8-2.8z"/><path fill="#eea142" d="M56 90h53v3H56z"/><path fill="#7b4123" d="M166 100l97 7-68-47z"/><ellipse cx="123" cy="4" fill="#70593d" rx="147" ry="16"/><circle r="1" fill="#c85112" transform="matrix(-.64125 3.4736 -9.68973 -1.7888 88.2 114.5)"/><path fill="#aa7529" d="M155 79l-8 6-10-8z"/><path fill="#96481b" d="M48 83.6L20.1 70.3l11.2 30.5-47.3 5.8z"/><path fill="#df903d" d="M40.5 57.8v-1l29-.6v1z"/><path fill="#c8601b" d="M95.2 74.4l9.8 29.3-17.1 6.3 48.7-4.3z"/><path fill="#ffd586" d="M92.3 24.8l-32.7-4.6.1-1 32.7 4.6z"/><path fill="#de9045" d="M245 32.3l-18-.6v-4l18 .6z"/><path fill="#512819" d="M106.9 129.5l38.7 4.1-84.8.2 56.1-21.5z"/><path fill="#7c5533" d="M142 29h13v20h-13z"/><path fill="#fbcc73" d="M51 72.3v1l-22-1.6v-1z"/><path fill="#72381d" d="M72.5 53.7l11.9 2.7L48 63l56.8 1.1z"/><path fill="#a97340" d="M16 22h37v3H16z"/><ellipse cx="96" cy="36" fill="#7a5130" rx="7" ry="12"/></g></g></svg>