<svg xmlns="http://www.w3.org/2000/svg" viewBox="0 0 1200 1800"><defs/><filter id="a"><feGaussianBlur stdDeviation="12"/></filter><rect width="100%" height="100%" fill="#513128"/><g filter="url(#a)"><g fill-opacity=".5" transform="translate(3.5 3.5) scale(7.03125)"><circle r="1" fill="#7dc9ff" transform="matrix(166.34997 -29.81086 18.0723 100.84675 62.2 76.6)"/><circle r="1" fill="#f4d7b0" transform="matrix(36.51296 37.52113 -23.66424 23.0284 87.1 119.5)"/><ellipse cx="131" cy="29" fill="#2567df" rx="62" ry="77"/><circle r="1" fill="#5e615a" transform="rotate(179.2 61.2 91.2) scale(166.59577 37.18923)"/><path fill="#1e63d9" d="M.5 154.5l-79.7-32.3L-.5-72.5l79.7 32.3z"/><circle r="1" fill="#755a36" transform="matrix(-17.82916 -5.93097 17.55754 -52.7799 33.3 138)"/><circle r="1" fill="#1e383c" transform="rotate(-84.6 174.3 84.3) scale(50.3693 118.28465)"/><path fill="#d6dad5" d="M149.2 137.7L54.4 78.3l6.5-52.2 16.4 44.5z"/><ellipse cx="1" cy="167" fill="#68b4ff" rx="6" ry="41"/><circle r="1" fill="#050705" transform="rotate(-103.2 135 92.6) scale(15.8752 39.59686)"/><path fill="#cdb2a1" d="M118.6 179.9l-18.5 4.2-8.7-38 18.5-4.2z"/><path fill="#817e83" d="M149 75l36 40-20 120z"/><path fill="#518eed" d="M127 74h28v57h-28z"/><ellipse cx="50" cy="106" fill="#a19a87" rx="19" ry="43"/><path fill="#5d382d" d="M156.7 140.3l7.2 20.8-42.6 14.6-7.2-20.8z"/><ellipse cx="125" cy="228" fill="#656662" rx="10" ry="38"/><path fill="#4a4546" d="M53 256l53-91-43-9z"/><ellipse cx="76" cy="12" fill="#345ea7" rx="128" ry="16"/><path fill="#c4bdb1" d="M56 92h41v62H56z"/><path fill="#7e7261" d="M74.3 175.5l-30-51.9 19.5 91.6-41.1-11.6z"/><path fill="#50483e" d="M5 157l29-27 5 124z"/><path fill="#201e20" d="M115 193l-7 78-26-84z"/><path fill="#646059" d="M67.9 55.6L35.7 67.8l17.8-39.3-9 2.6z"/><path fill="#605c56" d="M37 271l1-37h-49z"/><path fill="#6e5b4a" d="M155.1 136.3l8-45.3 15.8 2.7-8 45.3z"/><path fill="#afa195" d="M87.3 159.4l-16.9-46.6 84.5 21.9-2.2 7.4z"/><ellipse cx="50" cy="125" fill="#5f5c55" rx="5" ry="44"/><circle r="1" fill="#a99272" transform="rotate(-124 68 75.1) scale(5.33904 21.13835)"/><path fill="#e4e3d5" d="M121.1 123.2l11.6 6.7L53 53.6l25.8 38.1z"/><path fill="#485363" d="M153 212h15v44h-15z"/><path fill="#d4d9cd" d="M132.1 136.3L68.5 89.7l2.1 14.3 53.7 33.8z"/><path fill="#1e231d" d="M8 177h16v58H8z"/><path fill="#bfc5c3" d="M56 12h5v29h-5z"/><path fill="#5281c9" d="M140 121L72 69l113-12z"/><path fill="#a7998d" d="M75 112.5l41.4 27.5.3 34.5-36.6-14.9z"/><path fill="#598bd7" d="M-16 41l33 61-19 102z"/><path fill="#423227" d="M84 160l16 19-48-27z"/><ellipse cx="59" cy="112" fill="#eaf0e9" rx="2" ry="39"/><circle r="1" fill="#3664b0" transform="matrix(7.36165 35.86316 -19.30542 3.96283 78.3 13.3)"/><ellipse cx="69" cy="134" fill="#fffaf8" rx="2" ry="17"/><path fill="#716e61" d="M63.4 82.3l1.7 25.9 3.3-18-19.8-5.6z"/><path fill="#121711" d="M47.1 222.5l-11.4 25.1 22.3-4.7-5-31.6z"/><path fill="#7f7b75" d="M116.7 225.7l1.3-34.6-24-3.9 19.9-17.1z"/><path fill="#7b8186" d="M154.7 127.6l22.9 54.5-15.9 4.5-2.2-17.3z"/><path fill="#4276c5" d="M-1.5 79.8l12.7-25 30.3 15.4-12.7 25z"/><circle r="1" fill="#978b78" transform="matrix(-.60823 -11.60576 20.1565 -1.05636 40 107.5)"/><path fill="#0f1f21" d="M126 219h6v29h-6z"/><path fill="#161720" d="M155 169h4v45h-4z"/><path fill="#454c55" d="M21.4 107.3L7.1 153.1l.7 46.5 4.9-16.6z"/><ellipse cx="78" cy="117" fill="#6c6f61" rx="2" ry="20"/><path fill="#b7c5ce" d="M53.3 35.5l14.3 8.3 3.8-2.9 5 20.2z"/><path fill="#2a2a24" d="M101.4 192l-16.4.6-48.2-8.7 23.9-4z"/><circle r="1" fill="#797f7c" transform="matrix(1.93832 -.08124 .8969 21.3994 63.4 130.4)"/><path fill="#777377" d="M115 212h38v5h-38z"/><path fill="#0f1520" d="M148 227l36.1 10.1-46-2.8 5.2 36.7z"/><circle r="1" fill="#c2bcb1" transform="matrix(-1.62754 8.95575 -2.21386 -.40233 157.7 95)"/><path fill="#453d37" d="M40.1 162.3l-7.8-10.5-48.3 92.3 42.7-62.8z"/><path fill="#858080" d="M118.2 242.5l.6-29h5l-.6 29z"/><path fill="#eceadc" d="M72 66l-22-5 30 17z"/><circle r="1" fill="#10150d" transform="matrix(-4.22896 11.30526 -21.59114 -8.0766 83.8 237)"/><path fill="#6492dc" d="M131.6 133l22.4 1 .2-24.1-35.9-3.9z"/><path fill="#716e67" d="M48.8 214.4l23.7-5.5-1.6 19.4-21.7-51.8z"/><path fill="#877f65" d="M109.1 115.5l-.6.8L65 84.5l.6-.8z"/><circle cx="36" cy="226" r="8" fill="#6f6552"/><path fill="#675248" d="M114 143l2 39 40-19z"/><path fill="#7d7b7d" d="M155 213l9 13-8 4z"/><path fill="#656a6e" d="M70.9 54.9l9 23.4-10.2-18.6L47 45.6z"/><path fill="#f3f4ea" d="M69 92h6v20h-6z"/><path fill="#61646f" d="M95 188l-27-10 27-7z"/><path fill="#72a8f3" d="M-1 202l8-21-23-13z"/><path fill="#462020" d="M132 148h7v34h-7z"/><path fill="#dfe9e2" d="M88 125h2v39h-2z"/><ellipse cx="81" cy="126" fill="#f4f5ea" rx="1" ry="27"/><ellipse cx="60" cy="244" fill="#565458" rx="3" ry="29"/><ellipse cx="91" cy="118" fill="#7c7e70" rx="2" ry="18"/><path fill="#8e8676" d="M64.1 71.3l-50.2 57.9L53 56.4l15.5 54.9z"/><path fill="#565045" d="M46 140h8v27h-8z"/><path fill="#a58579" d="M70 112h4v43h-4z"/><path fill="#8f8577" d="M41.1 152.1l51.9 7.4-14 12L89.8 153z"/><path fill="#251d1c" d="M178.9 122.9l6.1-11.6-32.4 16.7 19.5-6.2z"/><path fill="#72685b" d="M42 133l-20-29-8 76z"/><path fill="#faffff" d="M101 131h1v34h-1z"/><path fill="#a19580" d="M37 89h8v61h-8z"/><path fill="#1b2126" d="M185 212.5l-32.3 4.1-7.4 54.4-10.2-53.7z"/><path fill="#3e6ab3" d="M63 16h94v26H63z"/><path fill="#6f6454" d="M10.7 196.1l18.6-16.7 4 4.5-18.6 16.7z"/><path fill="#3b2f2b" d="M112.6 172.5l5.9 15.9 41.6-16.1-51.2 12.2z"/><path fill="#3a1d1f" d="M153 142h4v35h-4z"/><path fill="#858897" d="M133 225h3v16h-3z"/><path fill="#e9efe6" d="M112 146h2v19h-2z"/><path fill="#d8d7cd" d="M75 90l38 11 18 25z"/><path fill="#f3f5eb" d="M57.8 117l-.6 36h-1l.6-36z"/><path fill="#afafa6" d="M60 176.4l.8-15.9-10.4 10.3 8.9 2.9z"/><path fill="#e8e4dc" d="M94 129h2v32h-2z"/><path fill="#a8bedb" d="M23 105l-1-11 7 2z"/><path fill="#d6d8cf" d="M83 88l-2-10H50z"/><path fill="#67778e" d="M5 211l-1-19-11 39z"/><path fill="#f2f2e5" d="M97 112h4v16h-4z"/><circle cx="85" cy="175" r="4" fill="#281110"/><path fill="#cbd2d0" d="M61.3 28l3.4 2-8 14-3.4-2z"/></g></g></svg>