<svg xmlns="http://www.w3.org/2000/svg" viewBox="0 0 4657 3105"><defs/><filter id="a"><feGaussianBlur stdDeviation="12"/></filter><rect width="100%" height="100%" fill="#676837"/><g filter="url(#a)"><g fill-opacity=".5" transform="translate(9.1 9.1) scale(18.1914)"><circle r="1" fill="#fff" transform="matrix(-254.9878 2.49363 -.3819 -39.05117 123.3 30.4)"/><circle r="1" fill="#f4fbff" transform="matrix(75.68218 28.2964 -10.1119 27.04548 97.5 31.3)"/><circle r="1" fill="#212108" transform="matrix(-174.30297 -27.95875 3.63739 -22.67653 128 136.9)"/><circle r="1" fill="#eaf1ff" transform="matrix(-44.99085 -5.672 5.07194 -40.23113 225 23)"/><ellipse cx="244" cy="115" fill="#ffe200" rx="52" ry="12"/><path fill="#3f6dc4" d="M187.2 31.3l-60.8 5.3-3.6-41.9 60.8-5.3z"/><circle r="1" fill="#335fbe" transform="matrix(11.12427 -15.27115 36.9007 26.8803 7.3 21.5)"/><path fill="#c8d7ff" d="M102 49L0 74l-11-32z"/><circle r="1" fill="#fff" transform="rotate(101.8 30.9 40.3) scale(15.38799 49.22217)"/><circle r="1" fill="#8e8d59" transform="matrix(-44.15948 -3.36151 1.4196 -18.6489 133.3 106.3)"/><circle r="1" fill="#eaecf7" transform="matrix(-69.21773 4.17952 -.84428 -13.98223 180.3 48.2)"/><circle r="1" fill="#727248" transform="rotate(87.5 -9.2 75.4) scale(18.99312 59.82822)"/><circle r="1" fill="#131811" transform="rotate(-152.6 58 59.6) scale(28.88361 17.52458)"/><circle r="1" fill="#b7b592" transform="rotate(5.1 -1054.7 1561.8) scale(49.62023 3.23824)"/><ellipse cx="5" cy="135" fill="#928f36" rx="18" ry="26"/><circle r="1" fill="#5f6338" transform="matrix(7.174 10.05757 -18.42264 13.14074 192.6 74.1)"/><path fill="#878636" d="M179 146l-42-10-38 43z"/><path fill="#ad9579" d="M48.7 158l69.8 5-1.2 17-69.8-5z"/><path fill="#8a98b3" d="M76.4 52.9h43.1L77.5 35l-17.7 3.7z"/><circle r="1" fill="#9599a0" transform="matrix(-1.84466 10.45493 -21.83646 -3.85281 240 29.2)"/><circle r="1" fill="#33340f" transform="matrix(-18.16723 -5.45043 8.75376 -29.1778 207 146.4)"/><path fill="#10130e" d="M21 115h54v21H21z"/><circle r="1" fill="#f4f4fa" transform="matrix(-1.06903 -8.36914 50.11682 -6.40166 224.6 0)"/><path fill="#d8b609" d="M255.4 136.2l-30.4-6 5.6-28.4 30.4 6z"/><path fill="#918b5b" d="M56.3 135.9l-3.7 29.5-68.6-8.5 60.3-19.5z"/><path fill="#323611" d="M126.6 98.3l-23.9 5 25.3 9.1 23.6 18.9z"/><ellipse cx="61" cy="71" fill="#64674c" rx="40" ry="9"/><circle r="1" fill="#ced3e8" transform="matrix(7.8008 -5.79339 17.55459 23.63727 111.2 0)"/><path fill="#5a79a4" d="M42.3 46.3L24.7 57.8l-13-20.1 17.6-11.5z"/><path fill="#6d7043" d="M244.6 86.3l-41.4-23.5-70.5 5.9 12.5 31.2z"/><path fill="#444319" d="M183.1 114.8L271 90l-19-7-103.9 26.2z"/><path fill="#5d80b1" d="M129.6-16h30.1l28 48.5-29.9 8.3z"/><ellipse cx="64" cy="55" fill="#e2e4e8" rx="33" ry="7"/><path fill="#1f2411" d="M89.1 153.2l34.3-15.2-22.8.8 70.5 19.4z"/><path fill="#506699" d="M72.6-16L91.7 1.7 77.9 6.9 65.4-16z"/><path fill="#b6b7c3" d="M128 99h43v6h-43z"/><path fill="#8e904e" d="M188.5 101.1L261.6 57l-40.4 10.7-37.1 26z"/><path fill="#e4e6ea" d="M161 69l-56-43 88 29z"/><path fill="#d9dae4" d="M73.5 36.2L58.1 50.6 14.5 3.8l15.4-14.4z"/><path fill="#dadcde" d="M163 38l108 12-45 17z"/><ellipse cx="85" cy="95" fill="#a4a848" rx="63" ry="3"/><path fill="#f8f7f3" d="M10 62.4l-6.5-20 8.5-2.8 6.5 20z"/><path fill="#dedee0" d="M158.3 34.3l-36 40.7-19.6-35.7 52.6-10.7z"/><circle r="1" fill="#4f6d97" transform="matrix(-9.26573 2.03653 -.72493 -3.29827 82.4 46)"/><circle r="1" fill="#504d20" transform="matrix(1.47222 -8.50587 37.65502 6.51742 10.1 138)"/><path fill="#827f3d" d="M140.4 160.6l32.6 22.2-68.1-68.8 55.8 34z"/><path fill="#9da041" d="M175 139h15v7h-15z"/><path fill="#4a4a2f" d="M239 60h17v42h-17z"/><path fill="#2b2818" d="M137.9 121.1l32 5.1 8.3 22.3-50.6-16.9z"/><path fill="#e9ebee" d="M215-2.1l-27 66.7-11-4.5 27-66.7z"/><path fill="#506ea0" d="M5-4l22.8 30.4L7.1 42l-23-30.4z"/><path fill="#3e3f1a" d="M17 88l46 41-74-32z"/><path fill="#111407" d="M200 143l-20 18-28 1z"/><path fill="#c1bca2" d="M88 98h49v3H88z"/><circle r="1" fill="#faf9fd" transform="matrix(1.8729 -11.70387 39.90467 6.38572 82.4 19.5)"/><path fill="#7f97b7" d="M64.6 64l-35.5-3 17.3-33.1-36 41.8z"/><path fill="#969a1e" d="M209.6 185l-10.4-7.6-16.7-16.8-8.6 6.1z"/><path fill="#dcbc1d" d="M236.7 104.2l-41.4 5.9-9.6 15.9 20.1-9.1z"/><ellipse cx="50" cy="143" fill="#9095ac" rx="5" ry="8"/><path fill="#ebc94e" d="M60 165h18v5H60z"/><path fill="#a0a540" d="M12.9 141l-6.6 7.6-22.3-4.9L31.4 171z"/><circle cx="90" cy="74" r="14" fill="#686945"/><ellipse cx="43" cy="82" fill="#262926" rx="10" ry="4"/><path fill="#535735" d="M119.2 116.6L70 133.7l-6-6.9 25 11.6z"/><path fill="#525636" d="M102 79l110-8-37 25z"/><circle r="1" fill="#4f4a0d" transform="matrix(32.38754 10.83672 -7.00681 20.94116 241.7 155.6)"/><path fill="#3c4005" d="M-3 171.7L-.3 160l25.3 6.3-3 11.7z"/><path fill="#827825" d="M184.6 128l19.9-13 58.6 18.4-135.8-28z"/><path fill="#edca14" d="M223 103h33v8h-33z"/><path fill="#2f321d" d="M51.3 137.2l47.8-22-52.6 31 40-.4z"/><path fill="#262c10" d="M47.8 153l-5.8 1.4-5.8-23.3 5.8-1.5z"/><path fill="#858349" d="M111 87l-59 15-58-19z"/><path fill="#45401e" d="M120 96h29v2h-29z"/><path fill="#768aad" d="M98.8 45.4l5.6-2 4.8 13.2-5.6 2z"/><path fill="#8da1bd" d="M165.7 43.3l24.8-39.8 4.1 10.8-42.7 22.4z"/><path fill="#a8b0ba" d="M58.9 44.8l12-.7L61 32.9 23.2 22.7z"/><path fill="#9cb3d9" d="M10.2 67.3l16.2.9-42.4 8.2 11.2-26.3z"/><path fill="#768aa7" d="M165.5 16.3l-36.2 17.6-12.8.9 9.7-10.9z"/><path fill="#cbd0d7" d="M130.6-1.5l-24.9 42.8 33.7-23.1-59-23.4z"/><path fill="#f1f0ee" d="M228 46h24v15h-24z"/><ellipse cx="215" cy="100" fill="#292c1b" rx="14" ry="5"/><path fill="#78774f" d="M33 65h68v8H33z"/><circle cx="143" cy="44" r="5" fill="#9da9b4"/><path fill="#a5a239" d="M204.8 79.6l4.1 7-19.7 11.8-4.1-7z"/><path fill="#f6f6f3" d="M121 53l2-28 22 37z"/><path fill="#9c8870" d="M61.9 163.7l35.8 17.8-76.2-37.4 5.6 13z"/><path fill="#d9dcdf" d="M107 66L94 46l-12 8z"/><path fill="#555438" d="M19 71l-35 3 15 5z"/><path fill="#635d2c" d="M156 110h8v28h-8z"/><path fill="#2c2c18" d="M217.9 124.5l-24.6-3.2 5.3 23.4 3 40.3z"/><path fill="#282a1a" d="M110 127l28 29-57-14z"/><path fill="#eeeded" d="M16.9 59.5l-6.3 5-19.5-24 6.3-5z"/><path fill="#748fb5" d="M184.3 37.8l-1.3-.5 9.1-14.8-45.8 3.3z"/><path fill="#969353" d="M243.4 94l-2.9 2.9-29.9-31 2.9-2.8z"/><path fill="#b59c5d" d="M148 137l6 11 6-3z"/><path fill="#7990b1" d="M40 52.9l2.6.5 8.2-18-48.4 7.3z"/><path fill="#12150f" d="M63 110l39 49-47-29z"/><path fill="#696d4c" d="M226.1 78.4l-27.6-25.3 5.9 23.4 64.6-23z"/><path fill="#676930" d="M78.9 147.9l-6.4-6.6-5.5-2.6L32.6 185z"/><path fill="#dcdedd" d="M77.5 52.6L46.9 66.8l-9.3-10.1 18-16.3z"/></g></g></svg>