<svg xmlns="http://www.w3.org/2000/svg" viewBox="0 0 1800 1200"><defs/><filter id="a"><feGaussianBlur stdDeviation="12"/></filter><rect width="100%" height="100%" fill="#333d64"/><g filter="url(#a)"><g fill-opacity=".5" transform="translate(3.5 3.5) scale(7.03125)"><circle r="1" fill="#fffef5" transform="matrix(-129.60829 -161.66539 85.99836 -68.9455 59.8 77.7)"/><path fill="#dafcff" d="M-2 100L271-2 36-16z"/><ellipse cx="167" cy="93" fill="#1f2c61" rx="41" ry="65"/><circle r="1" fill="#751f02" transform="matrix(7.11292 22.15417 -41.89483 13.45096 53 132.5)"/><circle r="1" fill="#f8ffff" transform="matrix(-22.1144 6.00835 -12.64458 -46.5398 100.7 77.6)"/><ellipse cx="199" cy="162" fill="#f9eac4" rx="248" ry="7"/><ellipse cx="114" cy="144" fill="#67383f" rx="255" ry="12"/><circle r="1" fill="#253562" transform="matrix(14.87657 18.87474 -37.53881 29.5871 175.3 51)"/><circle r="1" fill="#bbd7f5" transform="matrix(-.38282 8.67604 -143.97535 -6.35268 231.7 8.2)"/><circle r="1" fill="#061312" transform="matrix(-20.80797 -8.57643 15.9293 -38.64737 234.6 107.9)"/><circle r="1" fill="#e7faff" transform="rotate(36.5 -44.3 323) scale(9.70967 13.30097)"/><circle r="1" fill="#cce1fb" transform="matrix(21.98106 14.00348 -31.20968 48.98938 117.8 42.4)"/><circle r="1" fill="#463525" transform="matrix(-10.04692 3.74517 -11.42324 -30.64439 60.6 107.4)"/><circle r="1" fill="#caddd9" transform="rotate(3.1 -2065.6 408.3) scale(32.43361 19.60017)"/><path fill="#132c5b" d="M163 83l-33 58-4-63z"/><path fill="#b3cce9" d="M-16-2l225 3L35 78z"/><ellipse cx="176" cy="115" fill="#8496bd" rx="30" ry="20"/><circle cx="218" cy="169" r="18" fill="#ede1cf"/><path fill="#81796f" d="M242 129h14v41h-14z"/><circle cx="179" cy="49" r="31" fill="#39456d"/><path fill="#0e305e" d="M94 127l75 15-32 11z"/><circle r="1" fill="#2a0000" transform="matrix(-3.08916 -6.09779 7.92686 -4.01577 6.9 149.3)"/><path fill="#dca863" d="M74 83L57 96l50 35z"/><path fill="#2a344d" d="M195 16h55v87h-55z"/><circle r="1" fill="#dcedfb" transform="matrix(-6.057 6.98172 -39.48482 -34.25508 89.2 84.5)"/><circle cx="178" cy="107" r="8" fill="#412623"/><circle r="1" fill="#bd6a68" transform="matrix(-1.52878 7.54306 -50.4599 -10.22692 62.8 143)"/><path fill="#554429" d="M-16 73l31-31 1 14z"/><path fill="#517cba" d="M185.5 125.1l24-1.2 1 21-24 1.2z"/><path fill="#3f3232" d="M81.7 105.5l-6 30.4-27.4-5.4 6-30.4z"/><path fill="#011c2c" d="M199 143l46 13-6-33z"/><path fill="#6f5b49" d="M57.1 113l7.3-41.4-28.8 22.2 32.4 25z"/><ellipse cx="16" cy="89" fill="#c0d5ea" rx="20" ry="29"/><path fill="#9bb8e4" d="M143.7 139.5l-6.5-2.6 13.1-32.4 6.5 2.6z"/><ellipse cx="58" cy="169" fill="#908e81" rx="161" ry="5"/><path fill="#b5d2e9" d="M114 125l-27 18 12 1z"/><path fill="#cf877d" d="M173 144h29v13h-29z"/><circle r="1" fill="#d2e2ee" transform="matrix(-36.3636 47.60947 -7.00104 -5.34732 123.4 62.1)"/><path fill="#563d34" d="M240.8 185.7l-11.5-9.6 20-23.8 11.4 9.6z"/><path fill="#a0684f" d="M31 108h12v41H31z"/><path fill="#e2d0c8" d="M132.1 164.1l-18.5-21.2 23.5 13.9-54.6-2.9z"/><path fill="#d5d6ce" d="M28.4 98.4l-22.1 6.7 65.1-11 .6 7.8z"/><circle r="1" fill="#052051" transform="matrix(-.50972 -2.93656 11.17557 -1.93981 108.5 143.1)"/><path fill="#a5bed6" d="M262.7-15.5l2.8 25.9-144.2 15.1-2.8-25.9z"/><path fill="#6d4642" d="M-5.2 110.3l8-.5 2.4 35.9-8 .5z"/><path fill="#171e28" d="M237 149l-43-54 56-13z"/><path fill="#394770" d="M160 21h70v28h-70z"/><path fill="#d0e3ff" d="M182 80l10 22-20-6z"/><ellipse cy="153" fill="#5b1e24" rx="95" ry="3"/><path fill="#31416a" d="M199 49l-32 46-44-18z"/><path fill="#888a97" d="M244.3 158.3l26.7-30.7-16.9 6.8-12.3-6z"/><path fill="#866045" d="M92.1 140.8L77 99.6l-26.1 11.8 56.8 14.7z"/><circle r="1" fill="#a4bed5" transform="matrix(-15.34628 -18.62833 33.21971 -27.36687 26 20)"/><path fill="#eae7dd" d="M136 157h101v6H136z"/><path fill="#dedcd2" d="M15 156h131v4H15z"/><path fill="#5f5244" d="M71 77L32 93l12 8z"/><path fill="#b7ccda" d="M106 121h24v11h-24z"/><circle cx="92" cy="56" r="34" fill="#d0dfee"/><path fill="#cee1e3" d="M251 9h5v11h-5z"/><path fill="#5b7296" d="M177.7 134.9l48.1 6.6-75.9-17.6-6.5 16.6z"/><path fill="#041018" d="M246 114.7l11.6-2.9 4.4 17.5-11.6 2.9z"/><path fill="#a1b7e9" d="M138.7 131.1l17.1-31.8 37.9-10.2-9-11.5z"/><path fill="#dca467" d="M87.8 116.6l15.6 22.9-14.2-36.4-18.9 42.3z"/><ellipse cx="15" cy="127" fill="#a4b8c3" rx="15" ry="7"/><path fill="#9d4654" d="M139.6 155.9l-17.9-2.1 40.5-7 27.8 8.9z"/><path fill="#243457" d="M162 74l-21 19-5 43z"/><path fill="#deeefe" d="M89 109l36-2-1-28z"/><ellipse cx="14" cy="122" fill="#62655e" rx="40" ry="2"/><path fill="#38446a" d="M229 14l-31 79-38-71z"/><path fill="#c7d7e8" d="M61.6 69.2l-25 20.1-18.2-22.5 25-20.1z"/><path d="M1 163v22l-17-27z"/><path fill="#3e3025" d="M92 138l-5-28-8 30z"/><path fill="#463a3d" d="M77.6 96.6L54 108.8l-9.1 22 15.1 1z"/><circle r="1" fill="#dda665" transform="matrix(1.94763 .40688 -4.02 19.24261 82.6 120.5)"/><ellipse cx="63" cy="149" fill="#852f30" rx="23" ry="3"/><path fill="#234982" d="M107 133h34v12h-34z"/><path fill="#47283c" d="M169 135l-32 10 48 3z"/><path fill="#cbcabe" d="M209.1 159.9l-26-16.2 33.1 30.5 34.1-17.2z"/><path fill="#903f43" d="M0 133h20v16H0z"/><path fill="#3e4f7d" d="M165 18l-40 61 8 57z"/><path fill="#8b8280" d="M71.5 123.6l67.9-10.5L63.5 125l2.5-22.6z"/><path fill="#feefd0" d="M.6 43.7l4.9 2.8 9.5-5.9h-29.9z"/><ellipse cx="228" cy="155" fill="#996a66" rx="32" ry="2"/><path fill="#363027" d="M7.3 56L2.1 68.9l-8.5-31.6-9.6 26.6z"/><ellipse cx="229" cy="4" fill="#97b3cc" rx="29" ry="12"/><path fill="#dcdce0" d="M116 144.6l-5.7 4.4 12.8-2.6.7 7.1z"/><path fill="#6779a6" d="M210.6 145.6l-20-49.8-10.6 25.9 8.7 18.3z"/><path fill="#d79997" d="M37.8 149.4l-4.5 2-5.1-10.8 4.5-2z"/><path fill="#c1d3e7" d="M150.6 41.3l-138.3 50L87.7 1.2l71 23.5z"/><path fill="#2d3b5f" d="M125.4 114.3l5.7 6.1 49.4-54.6-9.8 26.4z"/><path fill="#d5e4f0" d="M80.5 100l71.4-67.3L95.8 114 73.3 90.6z"/><path fill="#7792bf" d="M104 143.3l-31.6-1.8 73.2-9.4-30.3-1z"/><path fill="#c9d9ea" d="M16.3 105.4l-6.4-8.1 35.9 3.3 7 9z"/><path fill="#867253" d="M54.6 75.2l28.2 15-1.4 2.6-28.2-15z"/><path fill="#404f7a" d="M202 66l-70 2 33-51z"/><circle r="1" fill="#c99e96" transform="matrix(24.91687 7.53092 -.28932 .95723 217.5 152.7)"/><path fill="#99b7e3" d="M145 140l-5-13 11 4z"/><path fill="#95a2be" d="M244 139l-3-6 10-8z"/><circle r="1" fill="#4f4c5a" transform="matrix(-.9833 -.18196 18.20799 -98.39378 252.5 0)"/><ellipse cx="193" cy="127" fill="#2d364e" rx="2" ry="9"/></g></g></svg>