<svg xmlns="http://www.w3.org/2000/svg" viewBox="0 0 1200 1800"><defs/><filter id="prefix__a"><feGaussianBlur stdDeviation="12"/></filter><rect width="100%" height="100%" fill="#514131"/><g filter="url(#prefix__a)"><g transform="translate(3.5 3.5) scale(7.03125)"><circle r="1" fill="#fff" fill-opacity=".5" transform="rotate(178.4 52 3.1) scale(121.74892 53.31639)"/><circle r="1" fill="#a8aca5" fill-opacity=".5" transform="matrix(-17.37194 168.10478 -55.50384 -5.73576 134 156)"/><circle r="1" fill="#effbff" fill-opacity=".5" transform="matrix(-96.8752 8.98684 -2.93437 -31.63156 87.1 11)"/><circle r="1" fill-opacity=".5" transform="matrix(5.677 -30.56687 18.1587 3.3725 94.5 172)"/><circle r="1" fill="#9e9f8f" fill-opacity=".5" transform="rotate(-58 154.7 50.8) scale(21.69048 32.12454)"/><circle r="1" fill="#392511" fill-opacity=".5" transform="matrix(-13.74938 31.67014 -13.5688 -5.8908 113 69.7)"/><path fill="#e9edef" fill-opacity=".5" d="M136.8 178.3l-4.8-27.6 51.2-9 4.8 27.6z"/><circle r="1" fill="#f2dcdc" fill-opacity=".5" transform="matrix(13.92234 -13.487 11.085 11.4428 99 121.9)"/><circle r="1" fill="#646953" fill-opacity=".5" transform="matrix(-116.77494 -42.04157 5.02052 -13.94502 89 75.7)"/><path fill="#001533" fill-opacity=".5" d="M38.5 93h43v38h-43z"/><path fill="#4b4e41" fill-opacity=".5" d="M126.3 39.1l-47-23.2L147.8 67l37.2-8.5z"/><path fill="#bdb5ab" fill-opacity=".5" d="M159 133h11v118h-11z"/><path fill="#dbdddb" fill-opacity=".5" d="M24 40.2l92.6 26-12.8-.9 9.6-81.3z"/><path fill="#060b12" fill-opacity=".5" d="M89 145h23v50H89z"/><path fill="#8e8270" fill-opacity=".5" d="M44 230h116v26H44z"/><circle r="1" fill="#dcdfe5" fill-opacity=".5" transform="matrix(8.17976 -29.49527 66.51836 18.44717 142.3 10.4)"/><circle r="1" fill="#414336" fill-opacity=".5" transform="matrix(-4.17198 27.264 -11.45917 -1.7535 160 102.6)"/><path fill="#776d57" fill-opacity=".5" d="M21 40l42 56 58-30z"/><ellipse cx="119" cy="50" fill="#2f1d16" fill-opacity=".5" rx="15" ry="11"/><path fill="#4b392e" fill-opacity=".5" d="M72.7 79.9l43.8-4.6 2.8 26.8-43.8 4.6z"/><path fill="#978d7a" fill-opacity=".5" d="M99 197l1-27 10 40z"/><path fill="#a9aba5" fill-opacity=".5" d="M110.4 155l30-2 1.2 18-30 2z"/><path fill="#968a7b" fill-opacity=".5" d="M50 200h117v12H50z"/><circle r="1" fill="#5f5c55" fill-opacity=".5" transform="rotate(-153.9 24.2 -3.8) scale(51.39947 1)"/><path fill="#1b1e19" fill-opacity=".5" d="M26 194l40-24 19 31z"/><circle r="1" fill="#3d3f42" fill-opacity=".5" transform="rotate(142.9 42.7 139.8) scale(17.26255 5.56133)"/><path fill="#afa18e" fill-opacity=".5" d="M127.1 240.8l31.8 13.2-22.9-33.2-49.8 4.6z"/><circle r="1" fill="#181f1c" fill-opacity=".5" transform="rotate(-127.9 68 119.5) scale(13.01882 22.40391)"/><path fill="#515140" fill-opacity=".5" d="M71 48.3l-96.2-27.6.3-1 96.1 27.6z"/><path fill="#c3c9ce" fill-opacity=".5" d="M140 61l9.2-77L185 58.6l-58.5-27.8z"/><circle r="1" fill="#a09d90" fill-opacity=".5" transform="matrix(-2.37978 8.81987 -32.25785 -8.70384 0 142)"/><path fill="#515441" fill-opacity=".5" d="M159.9 55.7l-2.3 15-28.5-12.6 24.1-18.9z"/><path fill="#5f625f" fill-opacity=".5" d="M40 187.3l34.5-34.6 26.6 56.6-30.6-85.1z"/><path fill="#64604c" fill-opacity=".5" d="M85 23h3v32h-3z"/><path fill="#93927c" fill-opacity=".5" d="M122 105l-6-49 31 12z"/><path fill="#c0aba4" fill-opacity=".5" d="M119.2 110.6l-37.7 30.5 17.6 6.6 8.6-50.3z"/><path fill="#433a32" fill-opacity=".5" d="M141.3 207.8l-1 13.3-27 2.5 3.5-8.8z"/><path fill="#3b4938" fill-opacity=".5" d="M0 60h48v73H0z"/><circle r="1" fill="#f2f2f1" fill-opacity=".5" transform="matrix(.3456 17.4732 -40.69448 .8049 99.6 0)"/><path fill="#090609" fill-opacity=".5" d="M103.1 138.9l-16.4 30.3 19.9-2 4.7-22.9z"/><path fill="#76472e" fill-opacity=".5" d="M140.3 183.8l-5.8 36.7-2.4-16.8-6.2-39.9z"/><path fill="#5d6454" fill-opacity=".5" d="M135 113l-2 49-22-26z"/><path fill="#1d222d" fill-opacity=".5" d="M92.5 149.8l-19.6-30.1 26.7-34.6-58 22.3z"/><path fill="#bfb6ac" fill-opacity=".5" d="M145 180.3l4 36.8-6 .6-4-36.8z"/><path fill="#928971" fill-opacity=".5" d="M39.4 55.1L57.8 74l16.1-12.4L-16 35.5z"/><ellipse cx="8" cy="184" fill="#514d3e" fill-opacity=".5" rx="16" ry="31"/><path fill="#434a3e" fill-opacity=".5" d="M153 86l-18-6 25 56z"/><path fill="#858f82" fill-opacity=".5" d="M128 56l29 17 8 37z"/><path fill="#7ea4ea" fill-opacity=".5" d="M46 231h14v5H46z"/><path fill="none" stroke="#54554c" stroke-opacity=".5" stroke-width=".5" d="M66.7 118.7Q49.5 61.4-10.3-9.6"/><path fill="#bbbfc4" fill-opacity=".5" d="M139 52l36-68-54 42z"/><path fill="#8d8e85" fill-opacity=".5" d="M58.4 43.5L44.7 27.2 22.2-8.2l23.5 30.8z"/><path fill="#a19582" fill-opacity=".5" d="M143.1 195.5l-57.5 13.6-5.4 23.8 6.6 2.3z"/><path fill="#81523c" fill-opacity=".5" d="M152.7 176l3.3 36.5-.9 7.2-14.8-42.4z"/><ellipse cx="68" cy="255" fill="#615747" fill-opacity=".5" rx="35" ry="22"/><path fill="#908e86" fill-opacity=".5" d="M93 25.5l22.8 9.2-38.6-18.6 27.3 36.4z"/><path fill="#cfc3bf" fill-opacity=".5" d="M90 105l26.9 6.1-23.7 15.2-10.6-13.4z"/><path fill="#b4ab9e" fill-opacity=".5" d="M160.7 251.2l18.3-25.7-30.3 14.6-30.8-13.8z"/><path fill="#8a6551" fill-opacity=".5" d="M109 128l-19.6 19.2 13.1 3.2-.9-13.6z"/><ellipse cx="58" cy="26" fill="#65614c" fill-opacity=".5" rx="1" ry="20"/><path fill="#4e442f" fill-opacity=".5" d="M116.2 66.1l-22.3-4.5 41.1 8.2-27.6 19.1z"/><path fill="#cdc6b8" fill-opacity=".5" d="M156.4 164.8l-1.7-23.9 25-1.7 1.6 23.9z"/><path fill="#5d5d56" fill-opacity=".5" d="M71.5 217.9l-25.9-8.6-4.3-11.7 84.9-1.9z"/><path fill="#ced4d1" fill-opacity=".5" d="M109 62L52 46l40-9z"/><path fill="#95796e" fill-opacity=".5" d="M71.6 164.2l7.6 20.6-2.8 1-7.6-20.6z"/><path fill="#292a23" fill-opacity=".5" d="M78.7 226.4l-12.4 10.8-3.8-17.5-60.7 19.9z"/><path fill="#767262" fill-opacity=".5" d="M30 132h19v53H30z"/><path fill="#785f4e" fill-opacity=".5" d="M94 185l-15-3 4-27z"/><path fill="#86755d" fill-opacity=".5" d="M110 165h7v13h-7z"/><path fill="#00205d" fill-opacity=".5" d="M166.1 224.6l15.2 15.4-5.9-48.9-3.5 11.8z"/><path fill="#ada89d" fill-opacity=".5" d="M126 187l-16-49 18 19z"/><path fill="none" stroke="#706c5b" stroke-opacity=".5" stroke-width=".5" d="M127.7 126.3Q68.9 18.1 51.9 3.5"/><path fill="#767b75" fill-opacity=".5" d="M-16-8.2l42.2 39.9-2.3 3.1L-11.7-16z"/><path fill="#846149" fill-opacity=".5" d="M115.8 95.2L102.2 107 88.5 95.9l15.3-2.1z"/><path fill="#06121c" fill-opacity=".5" d="M110.6 174.8l2.7 25.8-6 .6-2.6-25.8z"/><path fill="#0d0f12" fill-opacity=".5" d="M94.6 189.9l8.1-37.6L82 141.4l3.1 12z"/><path fill="#cfdbe2" fill-opacity=".5" d="M167.9 40l-7.3 14.3-4.5-2.3 7.3-14.3z"/><path fill="#977464" fill-opacity=".5" d="M53.6 91.1l.8-15 14 .8-.8 15z"/><path fill="#aea497" fill-opacity=".5" d="M157 167h11v50h-11z"/><path fill="#1f2019" fill-opacity=".5" d="M112.2 103.2l3.2-7.3 6.4 2.9-3.2 7.3z"/><path fill="#a39c8c" fill-opacity=".5" d="M112.3 205.9H76.4l55.5-8.2-2.6 17.9z"/><path fill="#696a69" fill-opacity=".5" d="M52 128l36 36-8-23z"/><path fill="#5b5a49" fill-opacity=".5" d="M-5 32l31 9-42 69z"/><circle r="1" fill="#dfe3e5" fill-opacity=".5" transform="matrix(-17.32793 -22.58272 5.39252 -4.13773 54 24.2)"/><path fill="#a49694" fill-opacity=".5" d="M121.5 110.3L111 140.6l-8.5-3 10.5-30.2z"/><circle r="1" fill="#808380" fill-opacity=".5" transform="matrix(83.81061 35.14954 -.38676 .92218 45.3 3.4)"/><path fill="#b6a793" fill-opacity=".5" d="M131 220h15v9h-15z"/><path fill="#282821" fill-opacity=".5" d="M18.3 190.4l28.9-3.9-51.1 70.6 28.3-18.4z"/><path fill="#535147" fill-opacity=".5" d="M81.6 244.7L7.8 225.6l38.5-28.2-12.8 55.3z"/><path fill="#393b25" fill-opacity=".5" d="M17 67l38 22-4-28z"/><path fill="#483326" fill-opacity=".5" d="M157.7 82.3l12.4-4 10.2 31.4-12.4 4z"/><path fill="#dee4e9" fill-opacity=".5" d="M32.4 7.9l21.5 31.9-29.3-7 1-25.8z"/><path fill="#74736a" fill-opacity=".5" d="M23 3h2v43h-2z"/><path fill="#393b2f" fill-opacity=".5" d="M63.1 154.7l-23.5-13.1 3.5 12.8 13.7-21z"/><circle r="1" fill="#6a7765" fill-opacity=".5" transform="matrix(1.04525 -19.79162 16.16964 .85397 138 127.7)"/><path fill="#b8c3be" fill-opacity=".5" d="M162 67h8v6h-8z"/><path fill="#716f5c" fill-opacity=".5" d="M102.1 58.8L59.6 44.1l.3-.9 42.5 14.7z"/><path fill="#714f39" fill-opacity=".5" d="M133.7 173.3l3.9 36.5 3.8-26.7-27.7-5.4z"/><path fill="#313747" fill-opacity=".5" d="M69 77.8L66.9 119 31.8 77.4l48.1 25.3z"/><path fill="#797161" fill-opacity=".5" d="M-16 129.4l19.1 34.2-4.6-40.9 28.3 22.5z"/></g></g></svg>