<svg xmlns="http://www.w3.org/2000/svg" viewBox="0 0 1800 1200"><defs/><filter id="a"><feGaussianBlur stdDeviation="12"/></filter><rect width="100%" height="100%" fill="#645333"/><g filter="url(#a)"><g fill-opacity=".5" transform="translate(3.5 3.5) scale(7.03125)"><circle r="1" fill="#9fa7b5" transform="matrix(-94.26134 -11.99224 7.97565 -62.69014 119.3 44)"/><circle r="1" fill="#091a1e" transform="matrix(34.05816 44.06611 -39.42512 30.4712 220.5 139)"/><ellipse cx="56" cy="167" fill="#062233" rx="255" ry="26"/><circle r="1" fill="#ceba95" transform="rotate(70.6 30.5 122.5) scale(61.54042 21.40833)"/><circle r="1" fill="#4c5b6f" transform="matrix(22.8174 -51.2487 63.0738 28.08227 225.8 35.7)"/><circle cx="11" cy="30" r="66" fill="#4f5e77"/><ellipse cx="142" cy="136" fill="#b9985f" rx="255" ry="5"/><circle r="1" fill="#2e2a08" transform="matrix(-47.70764 .33307 -.1555 -22.27334 35.6 112)"/><circle r="1" fill="#b4aa94" transform="rotate(51.6 -17.1 169.4) scale(29.62073 32.65878)"/><path fill="#cab06f" d="M145 113l-6 12 44 9z"/><ellipse cx="242" cy="112" fill="#151405" rx="73" ry="15"/><path fill="#7b7b79" d="M-16 98l145-28-4-86z"/><ellipse cx="242" cy="132" fill="#6c5a28" rx="233" ry="6"/><circle cx="207" cy="41" r="47" fill="#5d5f60"/><path fill="#352f17" d="M161 110l-66 22-5-25z"/><ellipse cx="177" cy="138" fill="#c9a171" rx="176" ry="2"/><path fill="#e4ca87" d="M150.7 103.7l-10.6-86.2 26.4 89.2-18.5-1z"/><path fill="#ffffd9" d="M2 130.4l10 .2v5l-10-.2z"/><circle r="1" fill="#585d64" transform="matrix(-39.11776 -7.61044 12.46135 -64.05148 19.3 31)"/><circle r="1" fill="#152226" transform="matrix(-.16431 23.5358 -60.86298 -.42491 15.6 169)"/><ellipse cx="237" cy="130" fill="#d5bb90" rx="16" ry="2"/><path fill="#4e421e" d="M38 91h40v47H38z"/><path fill="#ffc98c" d="M78 124l12-3-12-3z"/><path fill="#27230e" d="M196 133h60v4h-60z"/><path fill="#454c41" d="M96 141h103v18H96z"/><path fill="#9c9385" d="M90 27h44v79H90z"/><path fill="#383016" d="M-16 134.3l42.8-8.3 17-36.6-12.2-6.6z"/><circle r="1" fill="#736a64" transform="matrix(-16.14637 1.25915 -3.57639 -45.86098 174.8 60.9)"/><path fill="#ab9771" d="M148.7 133.1l5.8-17.9-18.2 1.6 1.2 21.3z"/><circle r="1" fill="#342d16" transform="matrix(8.382 11.266 -21.97056 16.34629 192.9 105)"/><ellipse cx="163" cy="94" fill="#d48956" rx="5" ry="19"/><circle r="1" fill="#73726e" transform="matrix(12.11955 -43.98293 27.07122 7.4595 65 47)"/><path fill="#223132" d="M183 140h73v21h-73z"/><path fill="#785d1d" d="M154.5 103.4l27.5 32.1-42.9-29 1.9-4.4z"/><path fill="#a88c67" d="M45 123h13v5H45z"/><path fill="#ccb591" d="M133 132h44v2h-44z"/><path fill="#584724" d="M40 135h91v3H40z"/><path fill="#ffe4b1" d="M10.1 134.3l-.5 3-19.7-3.6.5-3z"/><path fill="#6d6d68" d="M135.2-16l51.7 121.8L164.6 91l43.9-105.2z"/><path fill="#f5dcb3" d="M144.6 116.4l3.8-1.3 3 8.5-3.8 1.3z"/><circle r="1" fill="#5f6672" transform="matrix(-30.1201 22.82283 -10.37791 -13.6961 30 66.3)"/><path fill="#25241c" d="M78 131v-15l-23 2z"/><path fill="#121511" d="M285.4 83.2l6.7 15.6-75.5 32-6.7-15.6z"/><path fill="#e3be8a" d="M80 138h71v2H80z"/><path fill="#6c6423" d="M153.1 135.4l-4.6-1.8 10.4-27 4.6 1.8z"/><path fill="#aa8b4e" d="M63 133.2l.2-2 33.8 3.6-.2 2z"/><path fill="#ba8973" d="M165 71.3L132.4-16h-7l35.9 102.6z"/><path fill="#574e0e" d="M52.9 138.4l-18.7-18.5L11.6 143l23.7-10.5z"/><circle r="1" fill="#575a5e" transform="matrix(-7.62285 27.7486 -43.14263 -11.85176 238.2 65.4)"/><path fill="#ffdd95" d="M91 103h7v3h-7z"/><circle r="1" fill="#878277" transform="matrix(-14.23587 64.23077 -16.78702 -3.72061 97.2 38.8)"/><ellipse cx="117" cy="129" fill="#614d19" rx="94" ry="2"/><path fill="#483e21" d="M114.5 136.2l17-.8-49.3-21.5 73.8-5.6z"/><path fill="#798492" d="M44 81h30v8H44z"/><path fill="#302b15" d="M16 99L4 132l-20-38z"/><path fill="#bcc19d" d="M147.9 109.5L141 54l-5.6-39.8 22.5 73.1z"/><circle cx="62" cy="107" r="18" fill="#4c3e21"/><path fill="#d4b087" d="M4 129l12 2 1 6z"/><circle r="1" fill="#ae926b" transform="matrix(-.03839 -.99926 8.86919 -.34072 197 131.7)"/><path fill="#917f5c" d="M231 128h25v6h-25z"/><circle r="1" fill="#525558" transform="matrix(40.80865 28.35593 -13.26295 19.08748 0 15.6)"/><ellipse cy="139" fill="#c19a68" rx="128" ry="2"/><path fill="#463c26" d="M80 114l62 16-37-27z"/><circle r="1" fill="#5f6363" transform="matrix(-12.56737 18.52225 -9.60605 -6.51772 193.1 72.8)"/><path fill="#392f12" d="M271 133l-40-11 40-1z"/><path fill="#2e2a13" d="M251 99l-73-1 26-13z"/><circle cx="86" cy="120" r="3" fill="#edb47b"/><path fill="#857874" d="M143.9 22.6L139.2 6l33.6 32.5-6.5 43.6z"/><path fill="#9b6a29" d="M77 95l2 6 13 1z"/><ellipse cx="244" cy="137" fill="#906c41" rx="24" ry="2"/><path fill="#4f4428" d="M68 111h87v6H68z"/><circle r="1" fill="#e0bb7f" transform="matrix(3.83415 -.76535 5.7559 28.83499 155.4 77.4)"/><path fill="#373318" d="M201.3 127.6l8.3 9.9 22.5-17.1 32.5 7.2z"/><circle r="1" fill="#6d6b65" transform="matrix(-15.48094 -7.27597 19.43155 -41.3441 58 17.5)"/><path fill="#d4ae7b" d="M37.6 140l-7.3-3.4 2.1-4.6 7.3 3.4z"/><path fill="#d6b68a" d="M128 138h46v2h-46z"/><circle r="1" fill="#5d6263" transform="matrix(17.46874 -1.76556 4.94966 48.97265 200.4 37.2)"/><path fill="#69410f" d="M162 108h11v15h-11z"/><circle r="1" fill="#9faa9b" transform="rotate(-106.1 92.3 -23.6) scale(48.6391 3.49997)"/><path fill="#be9954" d="M17 93l-7 2 7-5z"/><path fill="#6a717b" d="M73.6 79.9L41 70.2 1.7 91.7l41.7-7z"/><path fill="#af9159" d="M140.4 110.1l29.9-4.8-26.8-4.8 1.9 8z"/><path fill="#e1cda7" d="M138 126l1-6-3 2z"/><path fill="#fff5c6" d="M-1.8 134.5l11.3-4 .3 1-11.3 4z"/><path fill="#aa9d89" d="M107.5 69.8l20-11.5 23 39.9-20 11.5z"/><ellipse cx="59" cy="141" fill="#3f5251" rx="49" ry="1"/><path fill="#271b17" d="M172 114l10 14h-11z"/><path fill="#3d390d" d="M56 130.5v3H30v-3z"/><path fill="#a99370" d="M134.6 136.4l1.8-15 1 .2-1.8 15z"/><circle cx="182" cy="102" r="2" fill="#d79c51"/><path fill="#dfbfa1" d="M172 133.6l3.5-5 2.4 1.8-3.4 5z"/><ellipse cx="168" cy="129" fill="#80520b" rx="3" ry="9"/><path fill="#494b3b" d="M131 142h39v19h-39z"/><path fill="#57492f" d="M149.8 136.3l.4-9 6 .4-.4 9z"/><path fill="#cea986" d="M155 123h8v4h-8z"/><path fill="#3b351e" d="M169 104h49v6h-49z"/><path fill="#806e00" d="M57.3 130l2.6-4.2 6.8 4.1-2.6 4.3z"/><ellipse cx="33" cy="100" fill="#45381e" rx="13" ry="15"/><path fill="#544620" d="M76 109.1l12-.2v10l-12 .2z"/><path fill="#5f6063" d="M15.1 55.2l9-64.4 28.8 4-9 64.4z"/></g></g></svg>