<svg xmlns="http://www.w3.org/2000/svg" viewBox="0 0 1800 1800"><defs/><filter id="a"><feGaussianBlur stdDeviation="12"/></filter><rect width="100%" height="100%" fill="#344b64"/><g filter="url(#a)"><g fill-opacity=".5" transform="translate(3.5 3.5) scale(7.03125)"><ellipse cx="135" cy="40" fill="#fff" rx="255" ry="61"/><ellipse cx="79" cy="43" fill="#e8ffff" rx="255" ry="55"/><circle r="1" fill="#ffb667" transform="matrix(247.83161 3.02799 -.1977 16.18135 110.2 247.5)"/><ellipse cx="194" cy="50" fill="#c5f6ff" rx="255" ry="49"/><circle r="1" fill="#323528" transform="matrix(99.72334 -2.26304 .6381 28.11866 170.2 206.5)"/><path fill="#a7825e" d="M84 162h19v94H84z"/><path fill="#c7894e" d="M155.1 175.3L119 247.5l30.7-40.7 28.3 38.4z"/><ellipse cx="120" cy="117" fill="#174c6b" rx="255" ry="20"/><circle r="1" fill="#9fe2ff" transform="rotate(-179 57.7 3) scale(239.70936 27.2125)"/><ellipse cx="251" cy="252" fill="#d9ab7e" rx="57" ry="20"/><path fill="#0f3747" d="M57.6 136l-23.8 52.3-22.1 52-27.7-85.9z"/><path fill="#0c0e13" d="M95.3 198.5l31.8-4.7-35.4 45.4 33-7.9z"/><circle r="1" fill="#181c1c" transform="matrix(-19.59198 -32.86586 9.49474 -5.66 178 203.3)"/><ellipse cx="222" cy="158" fill="#2a617e" rx="59" ry="30"/><ellipse cx="35" cy="90" fill="#b5c2c7" rx="255" ry="8"/><circle r="1" fill="#002136" transform="rotate(-92.6 209.6 -14.2) scale(7.56785 78.02477)"/><ellipse cx="48" cy="67" fill="#dfece5" rx="255" ry="21"/><path fill="#f09049" d="M96.6 165.4l-4.8 8.2 14.6 26.4-4.6-30.4z"/><path fill="#2a6186" d="M256 211l-61 3-13-19z"/><path fill="#001826" d="M240.7 215.6l.5 15-50 1.8-.4-15z"/><path fill="#214e66" d="M56.6 227.4l38.1-43.1-16.4-87.2-51.5 88.1z"/><ellipse cx="158" cy="165" fill="#03161b" rx="31" ry="4"/><path fill="#001e1e" d="M0 216h34v13H0z"/><path fill="#5c91ad" d="M142 181.5h-30v-9h30z"/><path fill="#bb7742" d="M149 167h9v32h-9z"/><path fill="#a2c1d4" d="M189.1 98.6l66.6 1.1L271 82.5l-75.7 4.8z"/><path fill="#051f31" d="M234 160h22v15h-22z"/><ellipse cx="41" cy="233" fill="#927c62" rx="51" ry="4"/><path fill="#101a26" d="M102 205h28v30h-28z"/><ellipse cx="159" cy="154" fill="#366785" rx="80" ry="7"/><path fill="#453a30" d="M100.6 190l-15.7 13 26.7 5.4-2.6-62.8z"/><ellipse cx="67" cy="198" fill="#01181f" rx="18" ry="4"/><path fill="#a18569" d="M84 235h134v21H84z"/><path fill="#254c67" d="M43 99h165v48H43z"/><path fill="#487589" d="M32.7 182.3l17.7 5.6-33.3 25.6 27.7 6.6z"/><path fill="#ae8d52" d="M177 236l3-11-23-8z"/><path fill="#3c6480" d="M189.1 198l11.8-49 20.7 29.9-56.4 5.4z"/><path fill="#b18e6e" d="M126 241.4l-27.1 26.2-18.2-63.1 20.3 36.6z"/><path fill="#30607e" d="M252.1 202.3l18.9-25.4-10.3 43.9-69.3-9.8z"/><path fill="#e2935d" d="M137.8 227.2l16.1-44.6 2 5.7-20.7 28.6z"/><circle r="1" fill="#c2ebf9" transform="rotate(.8 -2814.9 10727.3) scale(221.96155 18.37271)"/><ellipse cx="122" fill="#a4dcff" rx="255" ry="16"/><path fill="#000b11" d="M25 194l-41 1 26 7z"/><ellipse cx="52" cy="167" fill="#507a9a" rx="40" ry="2"/><circle r="1" fill="#0e1a25" transform="matrix(-21.99602 -.12453 .0175 -3.09046 173.6 181.7)"/><ellipse cy="213" fill="#6590a6" rx="26" ry="2"/><ellipse cx="157" cy="241" fill="#736959" rx="32" ry="4"/><path fill="#ffb87c" d="M82.8 214.7l3.4-17.6 1 .2-3.4 17.6z"/><path fill="#242d2c" d="M165.1 200.6l-16.6-15 16.4 26.6 52.6-30z"/><circle r="1" fill="#194765" transform="rotate(148.1 36.6 115.7) scale(9.40339 17.61418)"/><ellipse cx="20" cy="93" fill="#a3c0cc" rx="176" ry="5"/><path fill="#1b3244" d="M125.7 237.4l26.3-34.2 8.9 28.4-38.8 4.6z"/><path fill="#c1a66d" d="M164 216l-9-1-5-23z"/><ellipse cx="197" cy="232" fill="#111923" rx="18" ry="4"/><path fill="#113244" d="M90.4 124.8l-17 4.9L88.7 140l34-10.8z"/><path fill="#122116" d="M33 228h54v2H33z"/><path fill="#072232" d="M32 180h58v4H32z"/><path fill="#ad966d" d="M155.7 198.4l-6-18.7 3.6 5.3-14.5 16.8z"/><path fill="#467899" d="M227.4 145.6l-35.9-6.1h27.9l51.6-4.1z"/><path fill="#547f9d" d="M179 157l18 11 29-9z"/><path fill="#476f8c" d="M225 189l46-11-65-2z"/><path fill="#355f7d" d="M58.3 196.1l22.4-39.6 78.9-16.1-18.6-14.5z"/><ellipse cx="132" cy="80" fill="#d7e0dc" rx="99" ry="11"/><path fill="#2d2a27" d="M172.2 168.3l-36.8-9.9 20.9-.7 5.8 43.9z"/><path fill="#2c516b" d="M134.4 219.6l3.1-6.1-15.6-.3-15.9 5.7z"/><ellipse cx="35" cy="154" fill="#406988" rx="74" ry="2"/><path fill="#77a0b5" d="M-2.3 191.2l.2-1 18.4 4.6-.2 1z"/><path fill="#e99b64" d="M93.5 177.4l-.4-6.3 6.8-8.7-1.5 27.8z"/><ellipse cx="24" cy="205" fill="#527b94" rx="32" ry="2"/><path fill="#567d95" d="M72.2 186.1l-37.7 3.2 6.4.9 22 3.6z"/><path fill="#00000c" d="M87.6 197.4l2.7 10.7-2 .5-2.6-10.7z"/><ellipse cx="35" cy="97" fill="#5982a3" rx="60" ry="1"/><path fill="#58859c" d="M63 213l-30.8-6.1 27.1 8.6 20.4 4.7z"/><path fill="#132832" d="M134 233l22-14 14 13z"/><path fill="#001c22" d="M38.2 218.2l29.8 3.6-.2 2-29.8-3.6z"/><ellipse cx="239" cy="148" fill="#04293f" rx="31" ry="2"/><path fill="#011e2c" d="M189 189h51v11h-51z"/><path fill="#9c8466" d="M87 228l16-9-8-23z"/><path fill="#1b3b53" d="M202.1 175l20.8-28.2-8 13.6 36.8 13.9z"/><ellipse cx="54" cy="237" fill="#927f68" rx="50" ry="8"/><path fill="#0a131e" d="M127.9 196.1l-16.6-6.8-5.7 39.9 14-21.4z"/><path fill="#b66733" d="M101 187l2-19 3 12z"/><circle r="1" fill="#062a38" transform="matrix(-62.99725 -13.21792 .44254 -2.10916 253.6 224.2)"/><path fill="#2a5371" d="M170 99h86v39h-86z"/><circle r="1" fill="#426d8a" transform="rotate(-176.6 41.2 71.9) scale(26.06965 2.37745)"/><path fill="#65502d" d="M164 217l11-8 4 24z"/><path fill="#000016" d="M96.8 201.7l1.4-9.9 3 .5-1.4 9.9z"/><path fill="#ffc577" d="M140 205h4v7h-4z"/><path fill="#a8c3d1" d="M166 89h90v10h-90z"/><path fill="#0e293e" d="M0 157h59v7H0z"/><path fill="#7da2b6" d="M74 178h11v3H74z"/><ellipse cx="108" cy="199" fill="#a28a6e" rx="2" ry="5"/><path fill="#9d8871" d="M49.9 225.5l15.3.2-81.2 29.8 82-4.8z"/><ellipse cx="21" cy="211" fill="#0b2a3e" rx="17" ry="2"/><ellipse cx="232" cy="204" fill="#163c59" rx="53" ry="4"/><path fill="#75a6c2" d="M242.9 214.4l18.5 4.2-.3 1-18.5-4.2z"/><path fill="#a98a69" d="M151 234h20v22h-20z"/><ellipse cx="245" cy="236" fill="#bf986e" rx="44" ry="3"/><path fill="#06293f" d="M134 182h16v9h-16z"/><ellipse cx="201" cy="215" fill="#6d9dad" rx="5" ry="2"/></g></g></svg>