<svg xmlns="http://www.w3.org/2000/svg" viewBox="0 0 1800 1200"><defs/><filter id="a"><feGaussianBlur stdDeviation="12"/></filter><rect width="100%" height="100%" fill="#2d2f39"/><g filter="url(#a)"><g fill-opacity=".5" transform="translate(3.5 3.5) scale(7.03125)"><circle r="1" fill="#ffe599" transform="rotate(-86 89 -50.9) scale(71.8139 220.50143)"/><circle r="1" fill="#ffc082" transform="matrix(12.35516 -38.48718 122.82054 39.42788 102 30)"/><circle r="1" fill="#585456" transform="matrix(251.61858 21.57132 -4.55242 53.10168 115.3 136.2)"/><path fill="#563d43" d="M184 15l87-2-13 41z"/><circle r="1" fill="#f8c37f" transform="rotate(16.1 -64 546.7) scale(58.09042 20.87249)"/><path fill="#d5945a" d="M31 56l167 47 51-67z"/><circle r="1" fill="#6f5b59" transform="matrix(1.79757 -19.9362 126.2042 11.37933 34.4 93.2)"/><circle r="1" fill="#a4674c" transform="rotate(-103.2 146.8 -55) scale(24.81654 37.0279)"/><circle r="1" fill="#af8367" transform="matrix(9.07343 -16.9308 66.22486 35.49076 37.4 48.1)"/><ellipse cx="165" cy="169" fill="#555a59" rx="83" ry="24"/><ellipse cx="152" cy="105" fill="#695a58" rx="255" ry="10"/><circle r="1" fill="#d5a98c" transform="matrix(19.70641 -9.9735 6.54403 12.9302 237.8 0)"/><ellipse cx="70" cy="9" fill="#c5aa8f" rx="97" ry="20"/><circle r="1" fill="#edbc79" transform="matrix(.7625 10.7392 -64.18723 4.55737 170.3 48.3)"/><ellipse cx="251" cy="53" fill="#61524e" rx="16" ry="11"/><path fill="#2e3a3e" d="M103 115h153v32H103z"/><path fill="#826257" d="M161 12l40 22-5-29z"/><circle r="1" fill="#c49262" transform="matrix(-18.24364 -5.26412 8.13772 -28.20254 219.8 58.9)"/><path fill="#997058" d="M144 82h71v23h-71z"/><ellipse cx="173" cy="94" fill="#f8d8b4" rx="3" ry="6"/><circle cx="172" cy="56" r="22" fill="#eebd73"/><ellipse cx="207" cy="163" fill="#0f151a" rx="28" ry="2"/><circle r="1" fill="#b2997b" transform="matrix(19.3784 -16.7861 29.55996 34.12495 13 9.6)"/><path fill="#4c494a" d="M224 16l-41 3 67 19z"/><circle r="1" fill="#9c6f59" transform="matrix(65.79725 18.37859 -3.08283 11.03683 19.1 63.6)"/><circle r="1" fill="#6b5651" transform="matrix(3.04543 11.68727 -37.74721 9.83606 247.7 99)"/><path fill="#655d5a" d="M0 86h165v28H0z"/><ellipse cx="132" cy="130" fill="#515559" rx="81" ry="3"/><path fill="#555759" d="M176 175l46-29-127 1z"/><circle r="1" fill="#4a5253" transform="rotate(-87.1 89.7 62.9) scale(9.26678 81.54482)"/><circle r="1" fill="#daae85" transform="rotate(167.6 80.3 12.6) scale(82.99985 2.5497)"/><path fill="#414248" d="M243 11h12v10h-12z"/><path fill="#2a3539" d="M0 115h43v21H0z"/><circle r="1" fill="#8a6b54" transform="matrix(-20.57742 -.06508 .0071 -2.2477 219.7 62)"/><path fill="#131f23" d="M4 159h49v4H4z"/><path fill="#be966f" d="M190 13l-11 15-23-6z"/><path fill="#957962" d="M254.3 17.5L231 42l1.1-27.7 24 15.4z"/><ellipse cx="114" cy="26" fill="#deb484" rx="43" ry="20"/><path fill="#172027" d="M175 134h61v5h-61z"/><path fill="#b18561" d="M132.3 86.8L94 83.2-16 38l129.9 24.5z"/><path fill="#252e36" d="M90 131h61v8H90z"/><path fill="#6b6c6a" d="M78 162l23-3-21-6z"/><path fill="#816759" d="M121 82l-12 22 76-5z"/><path fill="#b98259" d="M217.3 68.5l50.1-9.7 3.3 16.7-50.1 9.7z"/><path fill="#e7b473" d="M244.9 39.9l26.1-4-101.2 27-23.8-9.7z"/><path fill="#07131b" d="M73.5 168v-2h25v2z"/><path fill="#484b50" d="M115 120h51v14h-51z"/><path fill="#ddae7a" d="M161 25h31v21h-31z"/><path fill="#9b7159" d="M204.7 25.7l-19.8 8 66 9.4-18.1-11.5z"/><path fill="#666b67" d="M218 157h38v3h-38z"/><path fill="#121a22" d="M109 153.4l-36-1.8v-1l36 1.8z"/><ellipse cx="176" cy="127" fill="#091118" rx="12" ry="2"/><path fill="#2e3238" d="M113.3 152.4l-1.1 8.2-3.9-.9 34.1-7z"/><ellipse cx="238" cy="147" fill="#4a5155" rx="76" ry="7"/><path fill="#daa25f" d="M135 67h82v12h-82z"/><ellipse cx="16" cy="101" fill="#585554" rx="44" ry="14"/><path fill="#987864" d="M186 8.6l-10.5 4.6-11.4 13.5V-5.2z"/><path fill="#141c24" d="M190 164h42v2h-42z"/><path fill="#1d2c34" d="M67.5 144.8l-.8-6 29.8-3.6.8 6z"/><path fill="#9b7c64" d="M118.1 4.8l-6 .6L126.9-16l22.8 7.9z"/><path fill="#191f24" d="M207 125l15 6 16-5z"/><ellipse cx="171" cy="91" fill="#fffff8" rx="5" ry="1"/><path fill="#59524f" d="M221.4 32.6l-36.9-10.8 3.5-6.9 50.5 8.9z"/><path fill="#363a40" d="M115 185l51-33-27 6z"/><path fill="#deab6f" d="M237.6 49.3L188.4 65l20.3-35.6-35.9 17.2z"/><path fill="#50575a" d="M81 125l31 1-58 14z"/><ellipse cx="77" cy="118" fill="#32393d" rx="66" ry="4"/><path fill="#ab8672" d="M198 0h26v16h-26z"/><path fill="#2c3236" d="M268.1 185l-55-21.5-6.8-8.3 47.2 17.9z"/><path fill="#070f16" d="M132 135h36v2h-36z"/><path fill="#5a504c" d="M238 28h13v11h-13z"/><path fill="#636160" d="M144 162l62 4-41 19z"/><ellipse cx="100" cy="148" fill="#6b6e6f" rx="36" ry="1"/><path fill="#171d22" d="M49 155h19v2H49z"/><path fill="#575959" d="M15 151h35v9H15z"/><ellipse cx="50" cy="132" fill="#1c262b" rx="21" ry="2"/><path fill="#696763" d="M27 169h101v1H27z"/><path fill="#70726c" d="M42.3 162.9l.2 1-22.8 3.2-.2-1z"/><path fill="#222c32" d="M67 163h19v6H67z"/><ellipse cx="112" cy="166" fill="#1b2028" rx="27" ry="1"/><ellipse cx="186" cy="162" fill="#2f3439" rx="8" ry="4"/><circle r="1" fill="#846858" transform="rotate(111.7 -22.9 33.7) scale(8.72595 37.08701)"/><circle r="1" fill="#cca378" transform="matrix(4.08079 -10.9552 36.72945 13.68163 69.8 39.1)"/><path fill="#896c59" d="M95.3 79.7l-51.1 8.8 69 .1 58.2-1.7z"/><ellipse cx="146" cy="144" fill="#202933" rx="23" ry="3"/><ellipse cx="169" cy="81" fill="#c38e58" rx="47" ry="3"/><circle r="1" fill="#e1ba8c" transform="matrix(.52124 -2.00601 7.29418 1.89532 171.9 93.9)"/><path fill="#c49c76" d="M175.1 7.1L96-16l54 21.3 2.3 19.8z"/><path fill="#535759" d="M230.5 133.1l34.2-4.7-38 1.1 2.5-.3z"/><circle r="1" fill="#ddab6f" transform="rotate(107.1 42.2 73.7) scale(7.05778 36.95344)"/><path fill="#2d3538" d="M0 158h22v12H0z"/><path fill="#0d171f" d="M41 147h9v3h-9z"/><path fill="#6e6d6e" d="M104 149h41v2h-41z"/><circle r="1" fill="#7c6352" transform="matrix(-5.68487 .78884 -.3656 -2.63473 214.8 60.8)"/><path fill="#c0a383" d="M242.4 14.3L271-4.3l-82.9 7.6 2-19.3z"/><path fill="#5f5450" d="M176.7 16.7l-6.8-1.6 1.4-5.8 6.8 1.6z"/><ellipse cx="174" cy="50" fill="#edbd79" rx="37" ry="8"/><path fill="#a87654" d="M176 90.8l21.6-7.8 4.4 12.2-21.6 7.8z"/><path fill="#63615f" d="M118 160l-20-2 9 11z"/><path fill="#63564f" d="M263 36l-29 12 23 2z"/></g></g></svg>