<svg xmlns="http://www.w3.org/2000/svg" viewBox="0 0 1800 1200"><defs/><filter id="a"><feGaussianBlur stdDeviation="12"/></filter><rect width="100%" height="100%" fill="#444c5b"/><g filter="url(#a)"><g fill-opacity=".5" transform="translate(3.5 3.5) scale(7.03125)"><ellipse cx="168" cy="27" fill="#e3e2d7" rx="255" ry="85"/><ellipse cx="111" cy="160" fill="#1d70b1" rx="249" ry="61"/><ellipse cx="76" cy="90" fill="#b0bfc4" rx="232" ry="9"/><ellipse cx="145" cy="169" fill="#4677a7" rx="124" ry="23"/><path fill="#7a7c83" d="M82.7 37.8L26 83.8l-54.7-67.6 56.7-46z"/><circle r="1" fill="#204f75" transform="matrix(45.0999 -5.9945 1.59638 12.01042 155.8 113)"/><path fill="#afa498" d="M271 52L-16 98l189-85z"/><path fill="#214b6d" d="M155.6 124.3l-71.5-22.4-95.2 18.9L87.4 160z"/><path fill="#96bbd6" d="M14 88l24 19 52-9z"/><path fill="#b7bab8" d="M154.2 51.4l-30.3 60.9-17.5-1.5L143.1 48z"/><path fill="#b5d6ec" d="M272.4 109.7l-.8 5-78-12.4.8-5z"/><path fill="#30567b" d="M45.6-.9l23.7 22.4-15.8-2.4L22.1-16z"/><path fill="#20516b" d="M0 96h32v37H0z"/><ellipse cx="70" cy="69" fill="#a19991" rx="72" ry="23"/><path fill="#788081" d="M193.4 46.4L226 73.1l-74.7.1 40.1-12.7z"/><path fill="#596a7b" d="M24 91.7l-9.7-8.5 21.6-25 9.8 8.6z"/><path fill="#c2c1b3" d="M229.1 52l31.1-21.8L277 54l-31.1 21.8z"/><path fill="#092e46" d="M-16 133.2l43.5 40.3-27-5.6-16.3-21z"/><path fill="#babeb7" d="M247 66l-95 17 57 5z"/><path fill="#7d7c81" d="M71.9 44.5l44.5-9.5L139-12.4 1.4 92z"/><path fill="#1b4c62" d="M145 100l-13 16-2-20z"/><path fill="#4d7eab" d="M45.7 149.7l-43 1.5 119.7 18.2 21.7-6.4z"/><path fill="#062b46" d="M108 151.9l-24.5-4.1-37.9-2.1 66.4-4.2z"/><path fill="#5c88af" d="M20.4 95.2l48.6 6.3-.8 18.2 24.7 5.4z"/><path fill="#b3cbd9" d="M34.6 86.7l-36.3 2.2L-16 102l34.5-8.4z"/><path fill="#4b80b5" d="M139 128l-34 11 15 3z"/><path fill="#fafbe9" d="M268 94.5l-32.7-4 .6-5 32.8 4z"/><path fill="#c1b6a7" d="M-16 89l36-14-2-23z"/><circle r="1" fill="#1d4251" transform="rotate(22.9 -228.4 249.1) scale(13.81069 4.47743)"/><path fill="#133c5d" d="M203 114h26v12h-26z"/><ellipse cx="222" cy="142" fill="#3a6c98" rx="54" ry="14"/><path fill="#001929" d="M41 123h20v5H41z"/><ellipse cx="252" cy="102" fill="#1b3547" rx="14" ry="2"/><path fill="#687e8d" d="M247.9 57.6L214 72l44.3 12.4-41.6-5z"/><path fill="#848385" d="M117 44l24 6-55 39z"/><path fill="#0f3857" d="M227.9 159.3l-20.6-11.7 8.2-1.5 2.5 17.2z"/><ellipse cx="202" cy="6" fill="#948f8e" rx="80" ry="34"/><ellipse cx="59" cy="138" fill="#3f719f" rx="68" ry="3"/><path fill="#beb3a6" d="M63.7 49.7L31.8 80.9l5.1 2.9L63 64.9z"/><path fill="#bdb6a9" d="M109 75l49 16-16-42z"/><path fill="#00192b" d="M104 130h26v3h-26z"/><circle cx="244" cy="47" r="5" fill="#eff0e4"/><ellipse cx="81" fill="#636f82" rx="8" ry="17"/><path fill="#4d7ea4" d="M268.7 110l-74.8 4-9.5-17.8 31.3 12.7z"/><circle r="1" fill="#687079" transform="matrix(13.98214 -5.51223 1.75261 4.44562 162 72)"/><path fill="#cfe0ec" d="M126.4 105l-11.8 2-1-6 11.8-2z"/><path fill="#3e7294" d="M195.7 118.5l-74.5-22.7-26.9 6.4 27-2.8z"/><path fill="#616f82" d="M197 6l-11.6 6.3-6.7-26.4 19.8 11.7z"/><path fill="#4c5f72" d="M9 54l-25-5 5 33z"/><path fill="#bbb8ad" d="M176.9 86.4l-7.2-3.5 11.4-23.3 7.2 3.5z"/><path fill="#326189" d="M38.3 105.6L4 118.4l35 3.6 78.2.1z"/><circle r="1" fill="#b6aca3" transform="rotate(31 -77.5 195.8) scale(8.32305 23.8713)"/><path fill="#4c82b6" d="M134 130h30v5h-30z"/><path fill="#adbac1" d="M167 75.8L164.4 91l21.3 10.2-51.2-1.9z"/><path fill="#4f80ad" d="M223.8 144.5l33.5 26.6-56.5 5.7 28.4-13.8z"/><path fill="#0a2f4b" d="M152 128l-6-8 31 7z"/><path fill="#234557" d="M66.2 103l12.6 1.4 26.3 3.7 17.5 11.2z"/><path fill="#d4d8cd" d="M221 51l1 12 13-11z"/><path fill="#376997" d="M54.9 130.3l19.9-5.8 25.4 8.1-32 3.5z"/><path fill="#5c7b92" d="M255.8 70l3.7 8.2-17.3 7.8-3.7-8.2z"/><ellipse cx="247" cy="106" fill="#bdcbd6" rx="41" ry="2"/><path fill="#225178" d="M94.8 169.9l-34.2-2.8 41.4-29.3-55.6 11.9z"/><path fill="#67787e" d="M211.2 61.2l-25.9-6.3 6.5 14.9 18.4-15.6z"/><path fill="#001c30" d="M12 146h21v2H12z"/><path fill="#a99d97" d="M81.3 29.1L97.7-3.8l19.2 11.9L32 29.6z"/><path fill="#959798" d="M30.4-15.2l9.7 41.9-54.5 12.5-9.7-41.9z"/><path fill="#001929" d="M40.8 135.9l-12.7-3 1.1-4.8 12.7 3z"/><path fill="#93918c" d="M28 83h68v8H28z"/><path fill="#717681" d="M141 30l7-9-39-13z"/><path fill="#123958" d="M123.6 129.8l-44.7-7.7 16.4 7.2 14.3 7.1z"/><path fill="#04273e" d="M-2.3 167.4l59 4.6 15.7 13-54.6-19.9z"/><path fill="#898d91" d="M187.8 68.9l-3.1-6.6-4.3 13.3L198 96.9z"/><path fill="#6d7886" d="M-.4-9.7l30 38.7-45.3 14.8 62.6-5.2z"/><path fill="#a8b8c4" d="M74 102l59-8-47-7z"/><path fill="#f5f6ed" d="M228 70h5v6h-5z"/><path fill="#264f65" d="M64.5 113.4l-30.6-8.2-30.8-7.8-19.1 16.3z"/><path fill="#073252" d="M141.2 159.3l-18.6-3.6.2-1 18.6 3.6z"/><ellipse cx="170" cy="88" fill="#858d96" rx="14" ry="4"/><path fill="#5d92c6" d="M10 157.6l-20 1.8v-1l20-1.8z"/><path fill="#676c75" d="M159 47h5v12h-5z"/><ellipse cx="231" cy="98" fill="#6a8393" rx="29" ry="2"/><ellipse cy="141" fill="#487ba7" rx="25" ry="5"/><path fill="#7f8083" d="M85.9 34.3l-4.6 34.4-15.9-7.1L112.9 29z"/><path fill="#163956" d="M20.5 131.4L-8 134.9l23.9 2.3L-9.3 113z"/><circle r="1" fill="#3c72a4" transform="rotate(99 31.8 132.6) scale(2.81779 16.83753)"/><path fill="#526775" d="M228 63h8v8h-8z"/><path fill="#001019" d="M138 122h16v2h-16z"/><path fill="#225775" d="M194.8 104.8l-6.1-5.5-45.8 8.2 3.9-6.4z"/><path fill="#ede3d1" d="M192 77h10v6h-10z"/><path fill="#c2c4bb" d="M151.3 91.7l32.1-22.4-24 11.5-14.5-.1z"/><ellipse cx="91" cy="143" fill="#001b2c" rx="30" ry="1"/><path fill="#245176" d="M244.5 109.5l-67.3 15.4 76.6-10.4 11.1-5z"/><path fill="#092e4a" d="M183 139h12v4h-12z"/><path fill="#1b4568" d="M243.7 119.3l-48.6 4.2.3 13.6-10.8-19.2z"/><path fill="#dddfce" d="M206 40h11v4h-11z"/><path fill="#7fa7ba" d="M53 106L22 91l7 11z"/><circle r="1" fill="#09314c" transform="rotate(-174.3 10 77.6) scale(13.67565 1)"/><path fill="#a09d92" d="M236 52h20v19h-20z"/><path fill="#4879a8" d="M84.5 156.8l60.7-9.3-21.6-9.6 1.8 36z"/><path fill="#3b71a4" d="M115 119h28v3h-28z"/></g></g></svg>