<svg xmlns="http://www.w3.org/2000/svg" viewBox="0 0 4752 3168"><defs/><filter id="a"><feGaussianBlur stdDeviation="12"/></filter><rect width="100%" height="100%" fill="#543f38"/><g filter="url(#a)"><g fill-opacity=".5" transform="translate(9.3 9.3) scale(18.5625)"><circle r="1" fill="#c3d7db" transform="matrix(254.90058 7.12002 -3.41949 122.41947 139.4 38.4)"/><circle r="1" fill="#280e01" transform="matrix(24.61212 -57.57152 31.39357 13.42092 98.3 104.7)"/><circle r="1" fill="#e4eef7" transform="matrix(-161.8215 29.99184 -6.70231 -36.16243 60.4 19)"/><circle r="1" fill="#070a00" transform="matrix(-.01576 11.3055 -89.0436 -.12413 222.6 94)"/><circle r="1" fill="#c2c6ba" transform="matrix(47.73705 -41.20551 17.39123 20.14794 0 148.7)"/><ellipse cx="185" cy="43" fill="#b6c1c9" rx="50" ry="39"/><circle r="1" fill="#1a2325" transform="matrix(.84226 -12.04494 44.44952 3.10821 18.6 90.8)"/><ellipse cx="38" cy="66" fill="#d7dfde" rx="36" ry="14"/><path fill="#432f26" d="M45 137h88v23H45z"/><circle r="1" fill="#2a2e34" transform="rotate(22.8 -104.8 316.5) scale(30.00715 21.86901)"/><ellipse cx="252" cy="124" fill="#04090b" rx="57" ry="5"/><path fill="#c5ac93" d="M67.2 107.4l18.5 16.3-45.5 20.6L-2.1 185z"/><circle r="1" fill="#afb2a8" transform="rotate(103.8 23.5 120) scale(11.06327 33.10029)"/><circle r="1" fill="#e1e2df" transform="matrix(-9.4947 -16.33713 59.7584 -34.73 5 33.5)"/><path fill="#747573" d="M80 138l101 47H89z"/><path fill="#412a21" d="M114 170l-33-49 53 2z"/><circle r="1" fill="#94836c" transform="matrix(4.6263 3.99331 -26.93667 31.20644 74.2 81.9)"/><path fill="#b9a582" d="M135 130h121v26H135z"/><path fill="#524c43" d="M182 77l-94 23 94 9z"/><circle r="1" fill="#adb3b8" transform="matrix(-21.05618 23.12575 -45.17753 -41.1345 148.5 21.7)"/><path fill="#879db5" d="M64 28.7l27.1 15-13 23.6-27.2-15z"/><circle r="1" fill="#657a9c" transform="matrix(28.77944 -24.58327 17.66145 20.67612 251 5.3)"/><path fill="#5e6a71" d="M203 104h53v18h-53z"/><path fill="#555d1a" d="M153 157h103v13H153z"/><path fill="#e9b385" d="M92 111l-12 10 6-19z"/><ellipse cx="2" cy="124" fill="#abb2b0" rx="62" ry="20"/><path fill="#3b3a3c" d="M72 68h38v37H72z"/><path fill="#cac4b8" d="M71 73l11 1 3 12z"/><circle cx="59" cy="159" r="24" fill="#4a362b"/><path fill="#949ea7" d="M209.2 84.1l-5.9-99.7 43.5 45.4L271 75.7z"/><path fill="#abb0b3" d="M136.1 92.2l35.1-17.7L219.5 54l-49.3-70z"/><path fill="#a4a69b" d="M196.1 130.7l-59.6 41.9 2.6-61.6 60.2-1.3z"/><path fill="#474c4b" d="M34.8 103l3.7-23.7L61.2 83l-3.7 23.8z"/><circle r="1" fill="#242428" transform="matrix(-13.59266 9.15229 -4.83419 -7.17956 130.5 68.6)"/><circle r="1" fill="#343739" transform="matrix(.51314 -7.10664 73.6908 5.32085 224.1 90.8)"/><path fill="#b08a5f" d="M74.6 63.7l-19.4 41.2 20.3-1.3-12.3 21.7z"/><path fill="#a7b3b8" d="M141.8 135.5l-19.4-18.8 11.8-12.2 19.4 18.8z"/><circle r="1" fill="#746f6b" transform="matrix(-4.24029 1.38865 -11.4502 -34.9635 130.8 146.7)"/><path fill="#4b5155" d="M46.1 100.9L-3 105.7.8 73.3l42.6 9.4z"/><path fill="#dadad6" d="M-16-3.4l49.8 76.9-49.8-4.3 71-27.7z"/><path fill="#4a3125" d="M111.6 139L86 134.2 94.4 91l25.6 5z"/><path fill="#7a6b61" d="M67.9 112.8l5.4-2.5 22.8 48.9-5.4 2.5z"/><ellipse cx="250" cy="6" fill="#4c5f7b" rx="13" ry="12"/><path fill="#8c9aa6" d="M23 63l28 7 36-24z"/><path fill="#d8d9cf" d="M52 71h15v9H52z"/><path fill="#706e6b" d="M115.3 162l20-11.5 15.9 34.5-63.4-25.5z"/><path fill="#190304" d="M235.4 122.2l-3.4-2 2.6-4.4 3.4 2z"/><path fill="#a5a7a3" d="M58 104l9 29-83-2z"/><ellipse cx="195" cy="76" fill="#a7aa9f" rx="54" ry="6"/><path fill="#5d513d" d="M-16 175l5-22 32 5z"/><path fill="#a9b2bd" d="M84.8 56L11.4-16l29.9 50.7 33.9 35.2z"/><path fill="#50311f" d="M70 119.4l8.5-19.2 5.5 2.4-8.5 19.2z"/><path fill="#6c5b4c" d="M92 44L79 61l41-20z"/><path fill="#644d40" d="M103.4 111.4L167 99.3l-40.7-16.6-17.1 2.9z"/><path fill="#968774" d="M245 153l25-24-67-2z"/><path fill="#a7957c" d="M139.1 161.2l111.1-8.5-84.2-18.6-15.2 21.5z"/><path fill="#262526" d="M239.8 126.6l20-14-5.4 7 16.6 12.7z"/><path fill="#05090f" d="M235 159h16v5h-16z"/><path fill="#4b3d34" d="M70 69h9l-5 15z"/><path fill="#233e47" d="M150 107h30v3h-30z"/><path fill="#717a80" d="M31 117h24v5H31z"/><path fill="#242c32" d="M86 80l44-16-33 37z"/><path fill="#070400" d="M211 105h11v2h-11z"/><path fill="#a0a9af" d="M111 118l32-14 25 13z"/><path fill="#615a2e" d="M159.3 158.7l-28.4 6.7 65.4 9.1 37.8-19.3z"/><circle r="1" fill="#acb1b7" transform="matrix(17.34564 37.02898 -44.29878 20.75106 158.1 10.7)"/><path fill="#8c9593" d="M210 101l-50 17 59-2z"/><path fill="#b9ae9b" d="M139.5 163.5l22.9-9.4-18.6-14.5-14.7-21.3z"/><circle cx="204" cy="123" r="6" fill="#494943"/><path fill="#8c9aaa" d="M95.8 44L48.4 30.3 94 68.9 55.8 54.2z"/><path fill="#4c260b" d="M61.5 120.7l-1-11 4-.4 1 11z"/><path fill="#c4a985" d="M58.5 112.2l18.9-35.8-31 43.5 14-9z"/><circle r="1" fill="#3c251b" transform="matrix(8.4399 4.8951 -3.0827 5.31506 110 153.5)"/><path fill="#8c745b" d="M21 142h14v5H21z"/><path fill="#6b4b38" d="M118 108l20-32-8 37z"/><path fill="#515660" d="M0 71.2l13.6 3-3.5 16.6-13.7-3z"/><ellipse cx="50" cy="14" fill="#c7cacf" rx="39" ry="11"/><path fill="#6a5c55" d="M135.6 148.8l-5.3-23.6-2-6-16.3 10.6z"/><path fill="#a47d61" d="M90.9 95.8l-16.4 30.8 15.3-9.3 3.5-13.7z"/><path fill="#e8e8e2" d="M16.5 18.4L26 37-2.5 51.6-12 33z"/><path fill="#6e6865" d="M127 185l-40-5-6-52z"/><path fill="#c0c0b8" d="M222.5 71.8l32.6-4.6.4 3-32.6 4.6z"/><path fill="#758396" d="M207 70l54-7-6-14z"/><path fill="#a5a9ab" d="M29.2 46.7l6 13.7L4.7 49.9l90.1 1.5z"/><path fill="#515551" d="M193 106l-36-25-24 13z"/><path fill="#c8c2ab" d="M159 103h10v3h-10z"/><path fill="#abb3b6" d="M0 106h56v12H0z"/><circle cx="100" cy="69" r="11" fill="#484b50"/><path fill="#878988" d="M244 120.8l-67.3-.1 51.4-12.9 5.1 15.3z"/><circle r="1" fill="#4b382e" transform="matrix(28.18273 -6.0572 4.83757 22.5081 51 169)"/><circle cx="75" cy="63" r="4" fill="#e2e1d2"/><path fill="#6d6936" d="M223 154h33v5h-33z"/><path fill="#9f8a72" d="M93.5 53.7L78.9 65.3l10.8 3.2 13.8-36.1z"/><circle r="1" fill="#8a8c88" transform="rotate(-4 1250.7 -3058.1) scale(23.94224 2.98145)"/><path fill="#6a5f51" d="M190 146h16v3h-16z"/><path fill="#242931" d="M107 48l24 35-1-32z"/><path fill="#51352f" d="M127 120l-11-4 17 16z"/><path fill="#3f3e21" d="M246.7 163.8l-84.2-3.5 70.2 10.1-47.1 14.6z"/><path fill="#33332b" d="M229 85h27v18h-27z"/><path fill="#c49f79" d="M73.8 108.5l-6 12.7-3.6-1.7 6-12.7z"/></g></g></svg>