<svg xmlns="http://www.w3.org/2000/svg" viewBox="0 0 1800 1800"><defs/><filter id="a"><feGaussianBlur stdDeviation="12"/></filter><rect width="100%" height="100%" fill="#4f3a26"/><g filter="url(#a)"><g fill-opacity=".5" transform="translate(3.5 3.5) scale(7.03125)"><circle cx="115" cy="41" r="255" fill="#f5e2c8"/><circle r="1" transform="matrix(1.87278 24.47166 -191.86138 14.68289 130 99.8)"/><circle r="1" fill="#f0fcff" transform="matrix(215.69918 -5.22246 1.15206 47.58274 109.4 29.6)"/><circle cx="155" cy="255" r="79" fill="#7c3e0a"/><circle r="1" fill="#ffe4a3" transform="rotate(-60 256.9 -118.6) scale(38.2605 74.88173)"/><circle r="1" fill="#ffce94" transform="matrix(-26.66652 -14.7815 20.18197 -36.40925 72.2 177.3)"/><path fill="#fea87e" d="M133 93h29v29h-29z"/><ellipse cx="72" cy="103" fill="#0b1000" rx="61" ry="18"/><ellipse cx="254" cy="107" fill="#141600" rx="36" ry="21"/><circle r="1" fill="#694519" transform="matrix(-14.6869 7.27687 -31.57375 -63.72532 38 255)"/><ellipse cx="165" cy="169" fill="#ebc3a9" rx="18" ry="33"/><path fill="#584e4b" d="M62 109l86 11-13 60z"/><path fill="#d1cdd2" d="M75.3 70.9L271 2.7-16-16 1.1 97.6z"/><ellipse cx="183" cy="94" fill="#101400" rx="26" ry="16"/><circle r="1" fill="#151800" transform="matrix(16.7986 -.08708 .06747 13.01504 125.2 85.5)"/><circle r="1" fill="#ffd098" transform="rotate(-129.3 155.8 37) scale(61.78693 16.59915)"/><circle r="1" fill="#6c4629" transform="matrix(71.09781 -51.27736 13.3586 18.52217 93.8 251.3)"/><circle r="1" fill="#ff965c" transform="matrix(14.89919 -31.37761 6.02254 2.85971 117.1 209.4)"/><circle r="1" fill="#53697e" transform="matrix(-25.81476 3.11354 -2.12267 -17.59933 36.7 142)"/><circle r="1" fill="#ac8046" transform="matrix(15.35102 -15.40537 49.6886 49.51328 231.9 233.8)"/><path fill="#26210f" d="M182 205l-11 13 32 40z"/><circle r="1" fill="#a9623c" transform="matrix(-2.29736 13.42127 -24.88863 -4.26026 151.9 116.7)"/><circle r="1" fill="#8d4e24" transform="rotate(29.4 -186 535.4) scale(12.24623 5.38192)"/><path fill="#1a0f07" d="M136 149h12v14h-12z"/><circle r="1" fill="#fff" transform="rotate(126.2 50.8 88.3) scale(3.05261 11.47908)"/><ellipse cx="200" cy="125" fill="#ffd3a4" rx="18" ry="14"/><ellipse cy="175" fill="#dd9f52" rx="25" ry="28"/><path fill="#292b0f" d="M15 123L9 87l129-15z"/><path fill="#210d02" d="M124 173h28v6h-28z"/><path fill="#e09666" d="M157.5 204.8l-21.8-11.7L89.6 174l58.2 5.5z"/><circle r="1" fill="#dfb082" transform="rotate(-145.3 63.6 93.5) scale(23.23201 34.50121)"/><path fill="#bbc0bd" d="M-16 32l198 22L25 88z"/><path fill="#e3bba5" d="M176.4 194.4l15.1-37.6-42.7-8.7 12.1-40.3z"/><path fill="#b9bbbd" d="M271 67l-23-40-136 44z"/><circle r="1" fill="#e3b8a4" transform="rotate(-23.3 419 -259.6) scale(17.73215 4.27938)"/><path fill="#503d22" d="M33 233.8l21.2 22.6L33 276.2l-21.2-22.6z"/><path fill="#7b5c48" d="M164 101l20 58-3-50z"/><circle r="1" fill="#7d552b" transform="matrix(-6.22297 -2.26498 7.03142 -19.31868 26.8 192.7)"/><circle r="1" fill="#3a0500" transform="matrix(-5.6836 .0339 -.03163 -5.30463 140.6 133.4)"/><path fill="#cf9e5c" d="M24.9 229.6L0 249.7l-18.9-23.3L6 206.3z"/><circle r="1" fill="#6f7c86" transform="matrix(1.15866 -8.4657 39.89782 5.46061 98.7 135.7)"/><ellipse cx="25" cy="112" fill="#171806" rx="58" ry="7"/><path fill="#bfbdb8" d="M191.6 67.7l79.4.3-137-30.1 1.6 42.4z"/><path fill="#dbae63" d="M6 85l6 14-28 11z"/><path fill="#c9a07f" d="M125.4 167.6l-24.5 48.1-22.3-11.3 24.5-48.1z"/><path fill="#512d19" d="M79.9 233.4l9.4 29.5 17.5-43.2-23.6 3.3z"/><circle cx="144" cy="167" r="7" fill="#ffd8a2"/><ellipse cx="41" cy="132" fill="#727b81" rx="92" ry="7"/><path fill="#ffd1a1" d="M202 146l37-20 21 29z"/><path fill="#977658" d="M170.9 167.2l-1.3 19-13.7-38.8 44.4 57.4z"/><path fill="#6e4c2d" d="M131.1 185.8l-4.8 45.1 47.4-59-15.8 43.8z"/><path fill="#795837" d="M205.8 203.5l25.6 23.5-10.6-22.2-21.7-28z"/><path fill="#bcbec5" d="M152.3 94.4l-22.5 11.8 8-12.3 8.9-3.2z"/><circle r="1" fill="#3f3e27" transform="rotate(171.7 121.8 58.1) scale(39.00388 27.05977)"/><path fill="#282411" d="M103 82h28v45h-28z"/><path fill="#f8783b" d="M137 114l19 2-8 18z"/><path fill="#47381f" d="M194.6 109.5l-17.6-6 1.9-10-18.2 36.5z"/><path fill="#886338" d="M58 122l66-1-39-10z"/><path fill="#23230b" d="M160.4 82.1l97.2 28.1-64.6-.3-44.3-17.3z"/><path fill="#fdcc9c" d="M271 212l-100-57 67 5z"/><path fill="#421400" d="M154.1 109.4l-17.3-5 1.1-3.8 17.3 5z"/><path fill="#b09174" d="M47 156l-7 70-15-13z"/><path fill="#483629" d="M127.3 179l4.6-23.6 8.8 1.7-4.6 23.5z"/><path fill="#584321" d="M225.2 242.8l17.4 12.1 17.1 16.1-36.5-20.1z"/><path fill="#291d0a" d="M21.7 218.6L9 210.4l3.2-5 12.6 8.2z"/><path fill="#f7e3d1" d="M161 106h2v24h-2z"/><path fill="#1c1910" d="M93 251l24 1-10 16z"/><path fill="#a56f41" d="M230.1 150.8l28.3 21.3-36.2-15.6-2.2-5.2z"/><path fill="#f38b52" d="M125.7 181.1l-21 53.1 21.1-23.6 12-32.2z"/><circle r="1" fill="#bf935d" transform="rotate(-134.5 147.2 68.6) scale(15.23149 8.96058)"/><path fill="#ffe0ac" d="M173 173l-23 7 4-13z"/><path fill="#e3b88a" d="M68 137l52 30-80 41z"/><path fill="#2f1e0a" d="M120 218l16-18 11 5z"/><circle r="1" fill="#7e8285" transform="rotate(6.2 -998.3 1289) scale(2.70538 18.40582)"/><ellipse cx="98" cy="212" fill="#c45d30" rx="12" ry="7"/><path fill="#d49969" d="M225.6 124.9l-1.1 19.7-23-10.4 33.1-29.2z"/><path fill="#9b7649" d="M-16 184l34.3 4.6L-3.2 271l33.3-23.7z"/><path fill="#c4cfcb" d="M-16 63L6 89l25-13z"/><circle r="1" fill="#dfc8bb" transform="rotate(27.6 -126.3 359.3) scale(9.27378 5.37941)"/><path fill="#ce9768" d="M188.7 167.4l20.1 7.9-20.1 14-10.9-46.9z"/><path fill="#d7ad7d" d="M-16 131.8v47.6L88.5 151l-47.7 19.4z"/><path fill="#bd6222" d="M250 177l18-21 3 45z"/><path fill="#af8963" d="M41 229h36v18H41z"/><path fill="#4b4d3b" d="M271 101.7V62l-44.9 16.5-30.7 10.8z"/><ellipse cx="178" cy="217" fill="#775736" rx="6" ry="27"/><circle r="1" fill="#d7cdce" transform="rotate(-86.8 70.5 -70) scale(27.68988 174.36023)"/><path fill="#262613" d="M48 81h76v34H48z"/><ellipse cx="234" cy="43" fill="#c2c1c0" rx="38" ry="28"/><path fill="#d7ae83" d="M117.5 181.7l-50.3-45-34.9 36-7.7-6.7z"/><path fill="#4c3624" d="M117.5 245l-31.8-1 33.7-4.8-30.3-16.1z"/><ellipse cx="23" cy="122" fill="#937548" rx="40" ry="2"/><path fill="#dfc2b9" d="M128 139l4 10-6 7z"/><circle r="1" fill="#604120" transform="rotate(128.2 82.3 137.1) scale(3.56203 3.71067)"/><circle r="1" fill="#be9156" transform="matrix(5.56863 -19.11345 22.43201 6.53548 250.6 232.8)"/><path fill="#2e250e" d="M207 265l-20-23 37 21z"/><path fill="#626f76" d="M125.3 140.2l-8.3 27.1-12.6-12.2-8.3-13.9z"/><path fill="#a77947" d="M175.7 231l-16.8 18.7-18.6-16.8 16.8-18.6z"/><path fill="#ffd6a8" d="M223.5 157.4l-43.3-36 20.5-9.5-15 48.1z"/><path fill="#242313" d="M18.7 110.4l114-5.1-115.9 16.1L-2.9 92z"/><path fill="#5c4125" d="M139 233h9v23h-9z"/></g></g></svg>