<svg xmlns="http://www.w3.org/2000/svg" viewBox="0 0 1800 1200"><defs/><filter id="a"><feGaussianBlur stdDeviation="12"/></filter><rect width="100%" height="100%" fill="#2b5055"/><g filter="url(#a)"><g fill-opacity=".5" transform="translate(3.5 3.5) scale(7.03125)"><circle r="1" fill="#fff" transform="matrix(-49.20374 -82.13265 191.8604 -114.93905 68.5 39.5)"/><circle r="1" fill="#fff" transform="rotate(-12.3 31.4 -253.4) scale(91.80682 52.49941)"/><ellipse cx="89" cy="143" fill="#a3828a" rx="61" ry="96"/><circle r="1" fill="#937068" transform="matrix(-89.34368 -17.85504 7.44018 -37.22944 253.7 37.7)"/><circle r="1" fill="#fabfc4" transform="matrix(-.4666 -15.71494 12.62593 -.37489 239.9 156)"/><circle r="1" fill="#312e65" transform="matrix(33.22368 18.53038 -29.31174 52.5539 176.5 110.7)"/><circle r="1" fill="#54352e" transform="rotate(-10.7 595.1 -17.7) scale(80.87953 7.14801)"/><circle r="1" fill="#cbc2cb" transform="rotate(133.6 25.9 100.5) scale(44.60854 9.09613)"/><circle r="1" fill="#5b433f" transform="matrix(-13.56552 5.75888 -9.96632 -23.47649 100.9 57.4)"/><circle r="1" fill="#e6c7ab" transform="rotate(178.8 126 32.4) scale(6.33634 38.12495)"/><circle r="1" fill="#eddcc7" transform="matrix(-21.56467 -12.11283 14.17376 -25.23376 142.5 44.8)"/><circle r="1" fill="#f2e3e9" transform="matrix(-25.1263 -26.82615 10.12924 -9.4874 10.8 137.4)"/><path fill="#b9cfd9" d="M216.9 57.9L208.3-16l21.1 20.2 5.5 59z"/><circle r="1" fill="#14143b" transform="matrix(33.67764 -42.1171 22.86741 18.28522 212.1 126.2)"/><ellipse cx="55" cy="33" fill="#dbe1e5" rx="35" ry="64"/><path fill="#54494b" d="M224 69l-56-42 37-22z"/><circle r="1" fill="#563f35" transform="matrix(-27.26471 27.45573 -4.89738 -4.8633 74.4 145)"/><path fill="#cab6a6" d="M203.2 60.8l-70.4-17.5L172 60.8l10.2 22.1z"/><path fill="#fff" d="M112.6 37l-27-18.9L107.4-13l27 18.9z"/><circle r="1" fill="#304576" transform="matrix(-16.32951 -.77008 1.90017 -40.2931 163.7 106.5)"/><circle r="1" fill="#96a3ab" transform="matrix(1.28051 -10.42892 58.45353 7.1772 43.3 64.9)"/><ellipse cx="238" cy="48" fill="#413535" rx="8" ry="63"/><path fill="#676581" d="M90.8 165.9l38.4-94.6 11 7.4 11.2 35.7z"/><circle r="1" fill="#9facd8" transform="matrix(18.79863 -14.3741 10.73765 14.04284 102 105.8)"/><path fill="#fff4cd" d="M73 135l13-14-48 7z"/><path fill="#1c2b49" d="M150 179l59-132 61 80z"/><path fill="#b5a3a5" d="M226 142l35-1-28 31z"/><path fill="#4b3228" d="M103 157.7l-29.8 8-27.3 5.7 27.6-28.7z"/><ellipse cx="44" cy="157" fill="#bfb195" rx="8" ry="28"/><circle r="1" fill="#efeded" transform="matrix(47.0331 -15.01018 5.96873 18.7025 59.3 29.5)"/><path fill="#dfd4c1" d="M154 75l-9 21-14-54z"/><circle cx="210" cy="157" r="19" fill="#17142c"/><path fill="#534547" d="M83.7 59.9l33.9-19.7-17.4 41.4 33.5-10z"/><circle r="1" fill="#8b452a" transform="matrix(-.23969 -3.2001 27.9734 -2.0952 9.3 169)"/><path fill="#222427" d="M81 130l37 8-26-14z"/><path fill="#e5ded0" d="M250.9 59l11 1-2.8 31-11-1z"/><circle r="1" fill="#344e7d" transform="matrix(-22.2768 8.37691 -7.5937 -20.194 164.8 109.4)"/><path fill="#c1bbbd" d="M115.4 183l21-66.9 11.1 14.4-33.1 11.2z"/><path fill="#151f35" d="M154.6 172.8l-25.2-16.4 6-9.2 25.2 16.4z"/><path fill="#0d0102" d="M234 17h17v10h-17z"/><path fill="#becdcc" d="M100.3 76.7l14.4 11L86.3 65l-60.1 36.1z"/><circle r="1" fill="#293452" transform="matrix(-14.30283 19.75858 -5.71303 -4.13554 161.9 83.2)"/><ellipse cx="28" cy="106" fill="#53403e" rx="37" ry="5"/><path fill="#c4bca8" d="M127.7 23.4l-.4-28 43-.8.4 28z"/><circle r="1" fill="#82726f" transform="matrix(24.00654 1.80506 -2.25567 29.9995 192.4 33.1)"/><path fill="#6e5d59" d="M89.2 86.2l-21.9 22.6L56 96l27.9-12.2z"/><path fill="#a78e6e" d="M37.8 155.2l-12.6-22.5-15.5-29L43 120.9z"/><circle r="1" fill="#7a6246" transform="matrix(-17.35129 18.29262 -4.97254 -4.71665 254 50.2)"/><path fill="#b2bcbb" d="M63 165h29v5H63z"/><ellipse cx="229" cy="21" fill="#b9ccd4" rx="3" ry="36"/><path fill="#1b2a4b" d="M232.4 93l-36.5-24.6L207.6 51l36.5 24.6z"/><path fill="#5867a2" d="M106.4 115.4l24.7 13.1-7.5 14.1L99 129.5z"/><path fill="#61432b" d="M145.6 96.3l-5.5 2.4-9.7-23 5.5-2.4z"/><path fill="#1f1726" d="M237 111h19v32h-19z"/><path fill="#8b6764" d="M242.9 186.6l-.8-45 15-.2.8 45z"/><path fill="#2e4a75" d="M202 123l-8-20 39-40z"/><path fill="#aa9590" d="M200 61l-28 26 21-59z"/><path fill="#acb6bb" d="M94.9 61.2L-16 71.8l27.3 30.3 37.1-4.8z"/><path fill="#92bbde" d="M225 19l6-24-41-2z"/><path fill="#c1b8ca" d="M89.2 166l39-17.7-19.7-14 3.1 31z"/><ellipse cy="151" fill="#d1cbd1" rx="34" ry="16"/><path fill="#a79fa4" d="M223.6 171.8l25.5-30.4-24.8 2.7 26.9 40.9z"/><path fill="#c5c3ab" d="M71.5 141.3l-4.1 7.1-16.6 1.6 37.7-50z"/><path fill="#c3c4bb" d="M122.1 69.8l64-8.3-68.6-32.7-2.6 36.3z"/><ellipse cx="238" cy="52" fill="#cbd4d5" rx="1" ry="17"/><path fill="#5c5539" d="M44 140h13l-1-11z"/><path fill="#9f8668" d="M241.9 16.6l4.5-28.6 21.7 3.4-4.5 28.6z"/><path fill="#6d6555" d="M189.6 3.1l-16.3 1.7-32.9 9.5.1 1.8z"/><path fill="#a6a399" d="M220.5 38.9l24.6-6.7-30.9-3.7-7.1 14.6z"/><path fill="#c7b5ae" d="M141 130l-2.9.8-9.2-36.9 3-.7z"/><path fill="#edebe6" d="M-16 50L87 15l-6 38z"/><path fill="#8a7d7a" d="M117.4 39.2l-11.7 11.3-23.3 6 14.1-24.2z"/><path fill="#796150" d="M93 137h17v19H93z"/><path fill="#6e635d" d="M119 185l29-57-56 55z"/><path fill="#99a6ac" d="M10 53h68v26H10z"/><path fill="#e0dee4" d="M33.2 154.3L55 182l-14.9-5.3-4.6-20.4z"/><path fill="#3d2523" d="M0 115l19-9-18 3z"/><path fill="#e2e9e2" d="M248 32h8v8h-8z"/><circle r="1" fill="#e0ceb4" transform="rotate(178.4 19.4 64.7) scale(31.41423 2.73798)"/><path fill="#354a75" d="M195 132l-58-14 31-51z"/><path fill="#252d36" d="M84.4 56.5l32.3-6.9.9 4-32.3 6.8z"/><path fill="#3b392e" d="M34 130l4 11-9-5z"/><path fill="#a6aecf" d="M78.5 99.4l31.8 21.9 20-60.6-32.8 48.1z"/><path fill="#bfc3d1" d="M29.1 137.1l-16.4-24.7-28.7 27.7v18.3z"/><path fill="#792b35" d="M175.9 67.8l4.4 23.9-10-13.7-2.1 3.9z"/><path fill="#425c8f" d="M172.5 59.7l-30.6 94.1 11.1-.6 22.1-92.5z"/><path fill="#a89d86" d="M16 111h70v11H16z"/><path fill="#594d46" d="M208 11l-12 15 14 28z"/><path fill="#bdbab1" d="M230.8 11.6l-2.1 52.3 1 2.3-10-20.4z"/><path fill="#d7dde5" d="M133-9L-12 14 0 53z"/><path fill="#775d50" d="M249 92l22-8v82z"/><path fill="#bdb8b6" d="M174.3 85.9l11.9-11L111.3-16l69 73.1z"/><path fill="#453835" d="M98.5 151.6l-6.2 9-52.3 1.2 26.7-9.4z"/><path fill="#fff7da" d="M47.1 126l-8 11.8 5.1.5 2-2.5z"/><path fill="#b5b2a1" d="M120.3 63l14-65-19.5 48.9-10.2-13.5z"/><path fill="#c2ced4" d="M97 72.1L92 81 65 66l4.8-8.8z"/><path fill="#36383c" d="M128.6 158.9l-1.9 4.8 17.5-.9.2-25.8z"/><path fill="#000202" d="M105 137l-3-8-2 10z"/><path fill="#131b25" d="M202 138l15 1 3-45z"/><path fill="#c4c6bd" d="M146.9 95.3L177-6.1l-61.2 71.6 3.5-23.6z"/></g></g></svg>