<svg xmlns="http://www.w3.org/2000/svg" viewBox="0 0 1200 1800"><defs/><filter id="a"><feGaussianBlur stdDeviation="12"/></filter><rect width="100%" height="100%" fill="#4c3128"/><g filter="url(#a)"><g fill-opacity=".5" transform="translate(3.5 3.5) scale(7.03125)"><circle r="1" fill="#ff7015" transform="matrix(51.3783 -1.70678 .70721 21.28888 86.4 29.8)"/><path fill="#926238" d="M-16 84h201L87 271z"/><path fill="#ff962d" d="M103.4 52.3l-38.7-4.8 3.9-31.8 38.7 4.8z"/><circle r="1" fill="#1a1f24" transform="matrix(1.607 -15.19775 168.06308 17.7708 17.8 63.3)"/><ellipse cx="88" cy="122" fill="#aa582b" rx="22" ry="38"/><circle r="1" fill="#654e32" transform="matrix(-23.09664 -56.85076 156.30932 -63.50347 65.4 209.7)"/><circle r="1" fill="#833118" transform="rotate(-163.4 46.9 -5.8) scale(83.25886 12.95035)"/><path fill="#d04f15" d="M59 190h47v10H59z"/><path fill="#ffec74" d="M76 37h17v9H76z"/><ellipse cx="82" cy="168" fill="#bb5b25" rx="27" ry="6"/><circle cx="8" cy="127" r="43" fill="#544634"/><ellipse cx="81" cy="11" fill="#42241d" rx="162" ry="6"/><path fill="#1b1d21" d="M172 85l-2-45-66 16z"/><ellipse cx="85" cy="26" fill="#f56318" rx="34" ry="12"/><path fill="#962c1c" d="M14 33l26-21 52 54z"/><path fill="#8a291e" d="M86 64.8l-5-9.7 75-40 5.2 9.8z"/><ellipse cx="44" cy="230" fill="#425040" rx="105" ry="9"/><circle r="1" fill="#1e2222" transform="matrix(-.9351 13.35096 -55.80178 -3.90838 16.8 72.6)"/><path fill="#f15c15" d="M71 216h42v3H71z"/><ellipse cx="159" cy="119" fill="#543f30" rx="28" ry="35"/><ellipse cx="75" cy="1" fill="#b24419" rx="35" ry="3"/><ellipse cx="59" cy="205" fill="#40564b" rx="113" ry="4"/><circle r="1" fill="#b25627" transform="matrix(11.55864 -4.99631 8.84725 20.46753 81.2 106.2)"/><path fill="#201b1a" d="M-12.5 50.5L-37 28.4l65.5-72.9L53-22.4z"/><path fill="#425a51" d="M40 175h101v7H40z"/><circle r="1" fill="#b75222" transform="matrix(-.00862 1.6472 -36.24361 -.18977 81.3 157.7)"/><path fill="#c64316" d="M111.9 18.2l39.2-.5-26.2 15.2-35.3 23.8z"/><ellipse cx="34" cy="195" fill="#4f1f16" rx="35" ry="5"/><ellipse cx="92" cy="135" fill="#c1561f" rx="26" ry="3"/><ellipse cx="106" cy="242" fill="#6d4222" rx="61" ry="6"/><circle r="1" fill="#51312f" transform="rotate(101.9 18.9 64.6) scale(6.67905 29.53209)"/><ellipse cx="84" cy="188" fill="#7a4729" rx="67" ry="7"/><path fill="#e54c19" d="M76.9 50L64 49 48.4 35.1 66.8 28z"/><ellipse cx="144" cy="224" fill="#3f5547" rx="75" ry="5"/><path fill="#ff9c2c" d="M73 24h24v9H73z"/><path fill="#343d2d" d="M-14 243.5l5.3-10 63.8 17.8-68.4 13.3z"/><path fill="#5d513e" d="M15 125h79v9H15z"/><path fill="#54221a" d="M118 164h51v9h-51z"/><circle r="1" fill="#753520" transform="matrix(25.77717 -11.2357 4.75434 10.9075 121.2 3.6)"/><path fill="#e46f25" d="M63 195h40v3H63z"/><path fill="#ff9b34" d="M81 168h13v2H81z"/><ellipse cx="15" cy="220" fill="#371a12" rx="21" ry="3"/><circle r="1" fill="#7b472d" transform="matrix(-5.8534 -40.12365 11.23942 -1.63965 111.6 124.3)"/><path fill="#7a4525" d="M36 208h97v8H36z"/><path fill="#6c3122" d="M125.6 49.7l-17.2 1.2 25.8-24.7 39.9-6.8z"/><ellipse cx="71" cy="184" fill="#e2621b" rx="23" ry="1"/><path fill="#693024" d="M53.3 48.1l5.8 9.8L7 32.8 28.9 14z"/><ellipse cx="89" cy="161" fill="#615c47" rx="79" ry="2"/><ellipse cx="117" cy="230" fill="#703e21" rx="40" ry="3"/><circle r="1" fill="#68422c" transform="matrix(31.17992 -9.07884 2.767 9.50288 41.5 169.2)"/><ellipse cx="72" cy="146" fill="#4b594d" rx="34" ry="2"/><path fill="#55251b" d="M110 192h60v8h-60z"/><path fill="#68543a" d="M118 174h52v11h-52z"/><path fill="#ffb24f" d="M99.4 42.7l-22.6 4.8-7.6-5.9 11.5-4.3z"/><path fill="#28211e" d="M-14 203l43-8-30-5z"/><circle r="1" fill="#262120" transform="rotate(74.7 -41.4 31.6) scale(26.68025 25.44314)"/><ellipse cx="18" cy="140" fill="#6b533a" rx="66" ry="5"/><path fill="#923a1e" d="M49 194h24v6H49z"/><path fill="#5c341f" d="M108 207h62v13h-62z"/><circle r="1" fill="#344741" transform="matrix(-.06654 -1.92188 71.54624 -2.47716 59.3 236.2)"/><path fill="#e6531e" d="M97.2 40.3L81.6 51.5l17.7 1.8L113 20.9z"/><ellipse cx="154" cy="241" fill="#635939" rx="31" ry="4"/><path fill="#3b2212" d="M125 245h45v6h-45z"/><path fill="#ff610f" d="M70 219h13v1H70z"/><path fill="#675039" d="M31 115h114v2H31z"/><ellipse cx="88" cy="106" fill="#694c36" rx="73" ry="2"/><ellipse cx="84" cy="157" fill="#c46927" rx="10" ry="3"/><path fill="#e8671e" d="M88 215h24v2H88z"/><path fill="#564230" d="M17.3 114.4l28.1-30.2-61.4 1.4L26.6 176z"/><ellipse cx="169" cy="203" fill="#465649" rx="110" ry="3"/><path fill="#ce551c" d="M77.5 123.9l35 1.2v1l-35-1.2z"/><ellipse cx="152" cy="255" fill="#49593c" rx="40" ry="3"/><path fill="#b84110" d="M63 34L35 18l24-2z"/><path fill="#4a2e22" d="M0 169h43v7H0z"/><path fill="#75633f" d="M14 176h28v6H14z"/><path fill="#b25120" d="M60 148h46v2H60z"/><path fill="#723121" d="M38 11h67v5H38z"/><ellipse cx="144" cy="175" fill="#48564b" rx="76" ry="2"/><circle r="1" fill="#56311c" transform="matrix(-.54681 4.5186 -35.31868 -4.27403 122.5 247.4)"/><path fill="#83472b" d="M55 86h16v39H55z"/><path fill="#684c38" d="M113 85h46v18h-46z"/><ellipse cx="136" cy="139" fill="#6b5e44" rx="68" ry="2"/><path fill="#b34f1c" d="M63 240h35v2H63z"/><path fill="#41271e" d="M138.3 17.7l32.5.7 4.8-21.9-8.9-12.5z"/><ellipse cx="26" cy="232" fill="#674c2f" rx="55" ry="3"/><path fill="#ea7221" d="M97 31l-7-13 34 1z"/><path fill="#603426" d="M148.6 159.2l-31 .6-.2-11 31-.6z"/><ellipse cx="83" cy="154" fill="#635039" rx="112" ry="2"/><path fill="#db621e" d="M94.4 138.8l-36.9-2.6v-1l37 2.6z"/><path fill="#b94b1a" d="M72 167h52v2H72z"/><ellipse cx="23" cy="127" fill="#5e5d47" rx="62" ry="2"/><path fill="#755536" d="M21 222h66v2H21z"/><ellipse cx="63" cy="250" fill="#3c4e3d" rx="29" ry="2"/><path fill="#3d170d" d="M43.5 247.7l-52.9 3.6v-1l52.8-3.6z"/><path fill="#4b2824" d="M22.5 53.4l18.1.8-17.4-22.9-39.2-7z"/><circle r="1" fill="#5e2b1b" transform="matrix(-.185 -2.25027 26.3349 -2.16512 50.3 218.1)"/><ellipse cx="11" cy="202" fill="#6f4d2c" rx="41" ry="2"/><path fill="#9a3817" d="M102.2 53.2l-9.3.6 58.5-31.5-19-5.4z"/><path fill="#674826" d="M142 271l-22-26-78 10z"/><circle r="1" fill="#282624" transform="matrix(2.47604 13.49088 -47.86868 8.78555 156.6 69.2)"/></g></g></svg>