<svg xmlns="http://www.w3.org/2000/svg" viewBox="0 0 4752 3168"><defs/><filter id="a"><feGaussianBlur stdDeviation="12"/></filter><rect width="100%" height="100%" fill="#4c3b36"/><g filter="url(#a)"><g fill-opacity=".5" transform="translate(9.3 9.3) scale(18.5625)"><circle r="1" fill="#fffcdd" transform="rotate(7.8 -518.5 1214.7) scale(139.93929 168.35763)"/><path fill="#000003" d="M13 76l72 40-36 6z"/><circle cx="152" cy="99" r="71" fill="#cfb4a4"/><circle r="1" fill="#7c3e1f" transform="rotate(-12.9 370.6 -1080.1) scale(48.32402 17.29775)"/><circle r="1" fill="#a2663d" transform="matrix(28.23685 -24.05241 35.67933 41.88652 75 11)"/><circle r="1" fill="#e5dada" transform="rotate(-55.3 84.3 -24.4) scale(12.49715 44.47703)"/><ellipse cx="187" cy="11" fill="#e9c993" rx="60" ry="34"/><circle r="1" fill="#000002" transform="rotate(175.4 -2.5 63.3) scale(20.25977 48.5995)"/><circle r="1" fill="#8a7973" transform="matrix(-43.06865 34.6461 -15.1824 -18.87328 60.8 147)"/><ellipse cx="143" cy="86" fill="#ccbfba" rx="117" ry="11"/><path fill="#623624" d="M122.4 21l-7.2 14.5-31.4-10.7 15-18z"/><path fill="#351613" d="M29 0h11v30H29z"/><path fill="#6b6767" d="M24 29l-1 102-24-89z"/><path fill="#1c0603" d="M201.6 10.9l-4.5 13.4 5.5 2.3 5.8-14.7z"/><path fill="#c29b73" d="M234 83L83 63l78-67z"/><circle r="1" fill="#524e4c" transform="matrix(-4.14202 -28.04969 5.9619 -.88038 69.4 112.1)"/><circle r="1" fill="#6e5c5a" transform="matrix(.30293 3.47336 -44.11425 3.84741 197.7 99.9)"/><path fill="#d3e4da" d="M44.7 125.2l-4.9 1.8 10.8-14.6-30.9-11.5z"/><circle r="1" fill="#a7abb2" transform="rotate(-155.8 73.6 59.2) scale(35.35431 49.51437)"/><circle r="1" fill="#ceb89b" transform="matrix(-18.99492 34.15676 -10.53944 -5.86109 77.8 0)"/><path fill="#f5ecb0" d="M200.4 53.1l-9-8 54.2-60.2 9 8z"/><path fill="#1f1716" d="M66.6 111.7l-6.2 7.4-8-.9-58.5-47.9z"/><circle r="1" fill="#e1d7cc" transform="matrix(39.2175 9.61631 -1.66725 6.79941 107.3 75.8)"/><ellipse cx="39" cy="56" fill="#cec8cd" rx="15" ry="26"/><ellipse cx="43" cy="166" fill="#957b68" rx="25" ry="34"/><ellipse cx="248" cy="45" fill="#7e615f" rx="27" ry="17"/><path fill="#653e28" d="M265 59l-61 4 12-15z"/><path fill="#cbc0b4" d="M152 46.8l-23.1-27.6 19.1-16 23.1 27.6z"/><path fill="#eadfae" d="M212.2 4.3L193.5-16 170.3 7.2l19.6 17.3z"/><path fill="#aa7e56" d="M151.5-16l49.1 58.8-6.8 11.6-8.8-12.1z"/><ellipse cx="119" cy="53" fill="#7a4e2e" rx="4" ry="13"/><path fill="#7e7372" d="M9 64l3 22 56 19z"/><path fill="#4c5b5e" d="M162 80l-1 24 8-13z"/><circle r="1" fill="#c8b2ac" transform="rotate(-93.7 166.7 -38.9) scale(12.35733 49.96278)"/><circle r="1" fill="#b9957e" transform="matrix(-4.48396 -18.91267 52.34844 -12.41118 172.9 169)"/><circle r="1" fill="#5e493c" transform="rotate(-80.8 8.4 -3.6) scale(47.73579 24.19785)"/><path fill="#f4ecbd" d="M188 21l29 17-24-1z"/><ellipse cx="34" cy="119" fill="#c5cbb8" rx="12" ry="14"/><circle r="1" fill="#c8b6a1" transform="matrix(-7.34858 .54727 -.87328 -11.72614 105.8 47.6)"/><path fill="#081215" d="M3.4 185l11.8-30.9 15.3-12.2-43.2-45.6z"/><path fill="#b6a69d" d="M24 76l63-12-40 34z"/><ellipse cx="226" cy="69" fill="#b78659" rx="69" ry="7"/><path fill="#221d17" d="M19 77l25 27-18-5z"/><path fill="#ddcdc2" d="M170.2 82.5l22.1-13.2 11.4 19.2-37.3 5.9z"/><ellipse cx="76" cy="116" fill="#5b5b5a" rx="8" ry="13"/><path fill="#968d84" d="M93.4 152.4l39.5-29.1-45.1 6.9-62.1-.6z"/><circle r="1" fill="#9a8a81" transform="rotate(176.2 88.5 58.9) scale(44.64326 3.3668)"/><path fill="#bd906d" d="M95.5-16l30.6 49.8 20.8 8.2-14.3-39.2z"/><circle r="1" fill="#9d8076" transform="matrix(19.71047 -9.96436 6.07795 12.02278 241.8 40.2)"/><path fill="#cec2b7" d="M163 90l-44-25 5 49z"/><path fill="#272f25" d="M64.5 84.2l3-.3 2 22-3 .2z"/><ellipse cx="155" cy="73" fill="#b48b5f" rx="27" ry="5"/><ellipse cx="204" cy="20" fill="#462b1f" rx="3" ry="8"/><path fill="#130b09" d="M48 119l2-16 21 8z"/><path fill="#121b20" d="M-15 23l28 66-13 58z"/><path fill="#b59377" d="M69.9 125.8L86.8 185H74.9l-24.5-39.6z"/><path fill="#9f7151" d="M78.5 57.2l7.9-44.4 7.4-4.2 4.3 57.8z"/><path fill="#d0b798" d="M140.2 38l-21.9 9.6 24.5 12.3 43 3.7z"/><path fill="#b9afb6" d="M236.9 83.9L271 71.7l-15 12.4-36.8 24.7z"/><path fill="#b8c1c7" d="M136 160l9-46-28 36z"/><path fill="#e7e1dd" d="M41 30l-3 22h24z"/><circle r="1" fill="#c4a481" transform="matrix(-3.54591 2.76206 -15.83763 -20.33221 68.2 33.9)"/><path fill="#867d76" d="M33 112l-18 73 27-28z"/><path fill="#936440" d="M168.8 5.2L139.1-16l47.7 41.5-2.9 5.9z"/><path fill="#5b4137" d="M-16 23.5L32.3-16l9.6 45.1-.6 1z"/><path fill="#837e87" d="M27 98.1l-4.2 25L8.7 70.9l26.8 40.2z"/><ellipse cx="115" cy="1" fill="#bca58e" rx="44" ry="6"/><path fill="#585855" d="M65.8 81.1l4.5-4.7-4.2 38 9.7 13.5z"/><path fill="#e6daa8" d="M194 39l25-6 18-49z"/><path fill="#9f847c" d="M262 143l-40-20 33 62z"/><path fill="#c8b2a8" d="M199 113h24v42h-24z"/><path fill="#d8ccc1" d="M94.2 83.3l-40.9-36 44.9 21.8 34.1 2.7z"/><path fill="#683f4c" d="M247 7l16-23 8 19z"/><path fill="#9d9b97" d="M136 146l27-63-14 102z"/><path fill="#4a3023" d="M100 18l11-1 6 16z"/><circle r="1" fill="#dac28e" transform="rotate(-44.4 170.4 -226) scale(32.02909 2.02394)"/><circle r="1" fill="#c5b2a4" transform="matrix(-4.36547 2.0592 -10.82443 -22.94758 54.5 80)"/><path fill="#9f7044" d="M46 23L59 3 32-16z"/><ellipse cx="198" cy="100" fill="#785c50" rx="26" ry="2"/><path fill="#c6cdd3" d="M109 150l-12 10-1-14z"/><circle r="1" fill="#a7a1a0" transform="matrix(6.63411 -2.52006 7.25231 19.09185 31.1 63.2)"/><path fill="#cbc1ba" d="M146.3 134.1l1.5-11.9 10.2-10.7-30.4 7.4z"/><circle cx="131" cy="31" r="3" fill="#5b2e1a"/><path fill="#926742" d="M58 37l2 10 21 10z"/><path fill="#2b2420" d="M66.5 107.4l-19.8 20.2 1.1-20.3-13.9-5.8z"/><path fill="#a66e4a" d="M115 11h9v23h-9z"/><path fill="#684735" d="M213.1 53.3l45.7 17.2L271 25.8l-20.1 31.7z"/><path fill="#a5815f" d="M154.7 6.5l11.4 8.9 7-12.5L145-2.9z"/><path fill="#5c5c4d" d="M75.7 108.7l.3-1 26.3 9.6-.3 1z"/><circle r="1" fill="#576057" transform="matrix(.50603 .86251 -9.34728 5.48401 153.5 108.3)"/><circle r="1" fill="#997f6c" transform="matrix(18.01895 -34.03188 8.0401 4.25701 49.5 150.2)"/><path fill="#655b54" d="M27 86L9 73l6-32z"/><circle cx="81" cy="90" r="14" fill="#b8a99f"/><path fill="#bbb9b9" d="M26 31h14v26H26z"/><path fill="#a06d47" d="M207 64.5l64 9.8V62.7l-65.4-3.5z"/><path fill="#9b938e" d="M122 122.5l-51.6-16 19.7 15.7-18.6-24.8z"/><ellipse cx="200" cy="21" fill="#44342d" rx="4" ry="5"/><circle r="1" fill="#dee9e0" transform="matrix(-2.17599 1.09237 -3.39265 -6.75813 41.9 116.7)"/><path fill="#6d5247" d="M203 97h21v4h-21z"/><path fill="#c8b59e" d="M127 16h49v12h-49z"/></g></g></svg>