<svg xmlns="http://www.w3.org/2000/svg" viewBox="0 0 1800 1200"><defs/><filter id="prefix__a"><feGaussianBlur stdDeviation="12"/></filter><rect width="100%" height="100%" fill="#4c596b"/><g filter="url(#prefix__a)"><g transform="translate(3.5 3.5) scale(7.03125)"><circle r="1" fill="#a6ceef" fill-opacity=".5" transform="matrix(-1.57155 -69.25192 252.16679 -5.72246 118.2 24.3)"/><ellipse cx="118" fill="#fff" fill-opacity=".5" rx="255" ry="18"/><circle r="1" fill="#002f50" fill-opacity=".5" transform="matrix(-15.73702 40.78344 -103.91405 -40.0971 165.4 131.5)"/><circle r="1" fill="#00234a" fill-opacity=".5" transform="matrix(24.5199 37.91686 -32.85376 21.24571 32 146.8)"/><ellipse cx="179" cy="93" fill="#eec789" fill-opacity=".5" rx="26" ry="10"/><path fill="#fff" fill-opacity=".5" d="M-25 112.5l86.4-44 3.6 7-86.4 44z"/><ellipse cx="164" cy="49" fill="#4a6d91" fill-opacity=".5" rx="255" ry="32"/><circle r="1" fill="#00294b" fill-opacity=".5" transform="matrix(12.47653 34.21723 -113.72615 41.46763 208.7 147.4)"/><ellipse cx="82" fill="#f8ffff" fill-opacity=".5" rx="255" ry="18"/><path fill="#cad6d7" fill-opacity=".5" d="M98.9 170.2L34.5 45.8l50.2 127.4L61.3 71.7z"/><circle r="1" fill="#50718b" fill-opacity=".5" transform="matrix(4.43783 -12.28237 61.92134 22.37323 147.1 99.9)"/><circle r="1" fill="#9cadb9" fill-opacity=".5" transform="rotate(-70.4 134 -95.2) scale(16.37428 35.36693)"/><path fill="#001848" fill-opacity=".5" d="M79.5 129l-6.5 2.7L56.5 91l6.5-2.6z"/><circle r="1" fill="#325d88" fill-opacity=".5" transform="matrix(-24.62216 -18.82803 15.30146 -20.01032 242.7 45.5)"/><circle r="1" fill="#1b456f" fill-opacity=".5" transform="matrix(-1.71143 -8.88733 31.84566 -6.1325 8.2 71.2)"/><circle r="1" fill="#00304f" fill-opacity=".5" transform="matrix(-56.76002 -28.75746 12.43112 -24.5359 0 140.3)"/><path fill="#edecea" fill-opacity=".5" d="M-8.6 108.6l29.8-20.9 29-18.2 31.6.1z"/><path fill="#fffffc" fill-opacity=".5" d="M76 142l18 37-15-17z"/><circle r="1" fill="#103441" fill-opacity=".5" transform="matrix(-14.22941 -38.19865 25.79367 -9.60842 117.3 142.2)"/><ellipse cx="245" cy="100" fill="#1a588a" fill-opacity=".5" rx="41" ry="21"/><path fill="#fff" fill-opacity=".5" d="M31 26l11 5L25 5z"/><circle r="1" fill="#534030" fill-opacity=".5" transform="matrix(-9.65293 -7.87684 16.2776 -19.9479 120.6 149.6)"/><ellipse cx="190" cy="90" fill="#bcaa8c" fill-opacity=".5" rx="14" ry="18"/><path fill="#f3e8d1" fill-opacity=".5" d="M96.6 178.9l4.9 6.1-15.6-36.4 19.2 27.2z"/><circle r="1" fill="#003152" fill-opacity=".5" transform="matrix(12.82583 37.03878 -60.94687 21.10475 203.8 156.8)"/><path fill="#3b5d76" fill-opacity=".5" d="M195.9 142.8L79.3 54.6l83.3 21.8 8 18.2z"/><ellipse cx="94" cy="75" fill="#7696b4" fill-opacity=".5" rx="29" ry="8"/><path fill="#3e6286" fill-opacity=".5" d="M28 55l-44-33L97 47z"/><path fill="#003c65" fill-opacity=".5" d="M66 78l78 38-49 36z"/><circle r="1" fill="#fffcf3" fill-opacity=".5" transform="rotate(-109.5 96.5 43) scale(107.21447 1)"/><path fill="#d2dff1" fill-opacity=".5" d="M186 0h70v18h-70z"/><path fill="#174a6a" fill-opacity=".5" d="M84 170L46 84l-54 33z"/><path fill="#5d4022" fill-opacity=".5" d="M44.4 182L40 169.6 77.6 156l4.4 12.2z"/><path fill="#d0cecb" fill-opacity=".5" d="M49.7 68l10.8 97.1 4.9 19.9-4.2-28z"/><path fill="#013a5c" fill-opacity=".5" d="M116 80h58v5h-58z"/><ellipse cx="104" cy="59" fill="#114369" fill-opacity=".5" rx="31" ry="3"/><ellipse cx="159" cy="51" fill="#86a0b6" fill-opacity=".5" rx="68" ry="6"/><circle r="1" fill="#033d5c" fill-opacity=".5" transform="rotate(-22.4 355 -124) scale(3.7842 35.26385)"/><ellipse cx="221" cy="85" fill="#4c729b" fill-opacity=".5" rx="34" ry="5"/><path fill="#e5b876" fill-opacity=".5" d="M172 84l23 14-42-10z"/><circle r="1" fill="#083a5b" fill-opacity=".5" transform="matrix(2.1654 -6.90718 28.47178 8.92586 240.2 102.3)"/><ellipse cx="58" cy="87" fill="#002f5b" fill-opacity=".5" rx="3" ry="6"/><circle r="1" fill="#00304c" fill-opacity=".5" transform="matrix(-26.03657 23.15196 -21.6894 -24.3918 21.9 169)"/><path fill="none" stroke="#fffffd" stroke-opacity=".5" stroke-width=".5" d="M45.7 74.9q30.6 64.1 31 78.3"/><path fill="#434f58" fill-opacity=".5" d="M192.1 132.1l4.7-24.4-33-13 13.9 39.7z"/><path fill="#faffff" fill-opacity=".5" d="M-8.4 109.2l-1.6-3.7 44.4-20.7 1.6 3.7z"/><path fill="#5c7b98" fill-opacity=".5" d="M148.2 97.9l24.3 20.3-66-20.8L57.9 60z"/><path fill="#d0d9e0" fill-opacity=".5" d="M70.1 68.2l-11.4 13-40.1 18.5 26.1-21.9z"/><ellipse cx="162" cy="138" fill="#003453" fill-opacity=".5" rx="17" ry="22"/><path fill="#a1b6cc" fill-opacity=".5" d="M14.2 60.9L-16 59.3l77.6.4-34-5z"/><path fill="#494f56" fill-opacity=".5" d="M52.2 51.9l-12-13.4L49.1 73l4.5-8.7z"/><path fill="#90a6b8" fill-opacity=".5" d="M165 24l14 15 30-1z"/><path fill="#365f86" fill-opacity=".5" d="M189 60l38 4-23 5z"/><path fill="#3e5b78" fill-opacity=".5" d="M53 72l32-12-20-3z"/><path fill="none" stroke="#fffff5" stroke-opacity=".5" stroke-width=".5" d="M48.5 80.4q3.4 5.3 41 101.7"/><ellipse cx="249" cy="34" fill="#13426d" fill-opacity=".5" rx="27" ry="4"/><path fill="#7f9bb5" fill-opacity=".5" d="M91 18h15v39H91z"/><path fill="#4e749e" fill-opacity=".5" d="M19.9 108.2l-.6-5 32.8-3.4.6 5z"/><path fill="#1c4b70" fill-opacity=".5" d="M121.6 91l53.1 8.2 4.5 16.5-38.9-37.3z"/><path fill="#7492ac" fill-opacity=".5" d="M141.7 75.3l-41.1 7.6 80.3-9.8-44.7-56.9z"/><path fill="#4e4134" fill-opacity=".5" d="M103.3 155.2l-10.7 1 13.1 28.8 18.2-16.6z"/><path fill="#ead1ae" fill-opacity=".5" d="M206 75l-13 6-5-10z"/><path fill="#eae8e0" fill-opacity=".5" d="M52 74h3v29h-3z"/><ellipse cx="11" cy="36" fill="#4e739d" fill-opacity=".5" rx="25" ry="19"/><path fill="#7390ac" fill-opacity=".5" d="M237 64.9l34-5.5-113.1-11.8 3.5 2.7z"/><path fill="#002d51" fill-opacity=".5" d="M90.8 149.5l4-15.6 18.4 4.6-4 15.6z"/><path fill="#4f7294" fill-opacity=".5" d="M143.5 77L271 91.7v13.6l-21.7-7.5z"/><path fill="#0f3758" fill-opacity=".5" d="M0 72h18v6H0z"/><path fill="#f2efe9" fill-opacity=".5" d="M3.9-10.3L34 27.3l9.6 12.1L26.9 7z"/><path fill="#78879d" fill-opacity=".5" d="M14 74l22 5-52 28z"/><path fill="#fffffb" fill-opacity=".5" d="M70 100.1l29 71.4-1 .4-28.8-71.4z"/><path fill="#466a8b" fill-opacity=".5" d="M111.5 33.4l-11.4 17.7 29.7-12.6 46.4-2.4z"/><circle r="1" fill="#002e4e" fill-opacity=".5" transform="rotate(-15.4 742 -786.9) scale(66.79498 41.24448)"/><path fill="#fdf3e1" fill-opacity=".5" d="M60.1 111.1l1-.4L91.8 177l-1 .4z"/><path fill="#567498" fill-opacity=".5" d="M197 101l1-3.8 81 21.7-1 3.9z"/><circle r="1" fill="#0e466b" fill-opacity=".5" transform="matrix(16.25471 6.33745 -3.59707 9.226 209.2 114.6)"/><path fill="#264e6f" fill-opacity=".5" d="M154 42h68v2h-68z"/><path fill="#285a7d" fill-opacity=".5" d="M59 79l2 25 11 1z"/><path fill="#033c5e" fill-opacity=".5" d="M124.8 132.2L80 116.5l88.6-27.1-38.6 19.3z"/><path fill="#003452" fill-opacity=".5" d="M-22.3 119.8l73-11.5 1.6 9.9-73 11.5z"/><path fill="#c2a473" fill-opacity=".5" d="M164.7 89.6l1.6-6 39.7 6.7-3.8 11.3z"/><path fill="#e4d7c8" fill-opacity=".5" d="M11.3 87.8l-.2-1 29.6-4.6.2 1z"/><ellipse cx="164" cy="19" fill="#86a0ba" fill-opacity=".5" rx="59" ry="3"/><path fill="#6584a4" fill-opacity=".5" d="M265 37l-64 21 29-21z"/><path fill="#667684" fill-opacity=".5" d="M166 117l22-8-51-5z"/><path fill="#3c6689" fill-opacity=".5" d="M145 78h43v3h-43z"/><path fill="#f9f3e7" fill-opacity=".5" d="M77.2 151.7l-27.3-71 1-.4 27.2 71z"/><ellipse cx="238" cy="7" fill="#dae4f2" fill-opacity=".5" rx="209" ry="11"/><path fill="#6484a4" fill-opacity=".5" d="M120 93h38v3h-38z"/><path fill="#6e8daa" fill-opacity=".5" d="M128 71l-33-7-7 28z"/><path fill="#5a442c" fill-opacity=".5" d="M91.1 179.7l-9.9-27.3 5.7-2 9.9 27.2z"/><path fill="#39608a" fill-opacity=".5" d="M207 19h49v7h-49z"/><path fill="#a9b5c2" fill-opacity=".5" d="M25.9 2.1l14.2 34.4 4.2 4.6-20-57.1z"/><path fill="#002c53" fill-opacity=".5" d="M151.4 63.3l7.7 4.6-.5.8-7.7-4.6z"/><circle r="1" fill="#133d5e" fill-opacity=".5" transform="matrix(13.48874 1.1766 -.0869 .99622 223.4 64.7)"/><path fill="#4a4d47" fill-opacity=".5" d="M152.7 107l4.1 16.6-13.5 3.3-4.1-16.5z"/><path fill="#2b2b2b" fill-opacity=".5" d="M66 65l-7-2 4 7z"/><path fill="none" stroke="#cbc7c5" stroke-opacity=".5" stroke-width=".5" d="M58 130q4.2 55 11 55"/><path fill="#002a4d" fill-opacity=".5" d="M164.3 82.3L134 92.7l-.3-1L164 81.3z"/><path fill="#e0dbd8" fill-opacity=".5" d="M55.6 83.7l-14 3.6-.2-8 2.5-13.8z"/></g></g></svg>