<svg xmlns="http://www.w3.org/2000/svg" viewBox="0 0 4032 2688"><defs/><filter id="a"><feGaussianBlur stdDeviation="12"/></filter><rect width="100%" height="100%" fill="#4c5a2f"/><g filter="url(#a)"><g fill-opacity=".5" transform="translate(7.9 7.9) scale(15.75)"><circle r="1" fill="#dcffff" transform="rotate(-167.9 44.6 10.4) scale(104.84204 54.58684)"/><circle r="1" fill="#a7d2ff" transform="rotate(-34.4 88 -152.2) scale(52.31226 86.14162)"/><circle r="1" transform="matrix(-41.06486 4.95852 -6.03357 -49.96803 241 149.3)"/><circle r="1" fill="#a1bcff" transform="matrix(8.48091 -18.27056 24.25965 11.26096 236.7 44.6)"/><circle r="1" fill="#000008" transform="matrix(31.59392 -2.54199 1.1873 14.7567 191.2 47.8)"/><ellipse cx="8" cy="21" fill="#9abdff" rx="188" ry="43"/><circle r="1" fill="#a1be56" transform="matrix(-1.98742 19.23191 -151.9716 -15.70474 57.3 127)"/><circle r="1" fill="#154aa7" transform="matrix(-31.35808 1.36912 -.7016 -16.06911 111 4)"/><ellipse cx="185" cy="97" fill="#041430" rx="34" ry="29"/><ellipse cx="23" cy="169" fill="#000d03" rx="110" ry="19"/><path d="M163.5 8l18-17.4 11 11.5-18 17.3z"/><path fill="#efffff" d="M124.2 26.5L153.5 43l42.8-18.6 4.6-14z"/><circle r="1" fill="#b4daff" transform="matrix(-24.46706 -25.07842 12.91682 -12.60193 128.6 75.2)"/><circle r="1" fill="#162c36" transform="matrix(-56.67754 -15.6116 1.12758 -4.09366 84 84.6)"/><ellipse cx="56" cy="24" fill="#dff1ff" rx="17" ry="52"/><ellipse cx="183" cy="46" rx="20" ry="13"/><path fill="#ddfdff" d="M0 39h38v23H0z"/><circle r="1" fill="#000300" transform="matrix(-2.6475 -16.12338 96.63985 -15.86848 196.7 169)"/><path fill="#daffff" d="M247 63.7l-15.8 6-8.3-21.4 16-6z"/><circle r="1" fill="#326cdd" transform="rotate(-61.4 19 -6.7) scale(26.99661 14.73122)"/><path fill="#060f0f" d="M206.9 49.6l30.6-21.8L251.9 62l-16.6-19.1z"/><ellipse cx="169" cy="64" fill="#c1ecff" rx="22" ry="6"/><path fill="#7d9adc" d="M257.2-20.7l22 47.1-26.4 12.3-22-47.1z"/><circle r="1" fill="#0d1d2f" transform="matrix(49.68682 -21.51157 2.60625 6.01984 212 25.4)"/><path fill="#000008" d="M211 59l-16 28 54-15z"/><path fill="#021107" d="M147 106h108v18H147z"/><path fill="#59708b" d="M184.7 88.5l72.9-12.8 1.7 9.8-72.9 12.8z"/><path fill="#375098" d="M212.2-14.3l12.9 15.4-25.3 21.2-12.9-15.4z"/><path fill="#000b02" d="M114 84.2l5.4 19.2-15.3 4.4-5.5-19.2z"/><path fill="#a4cfff" d="M97 85l110-22L3 40z"/><path fill="#223724" d="M84 74l17 31-100-5z"/><path fill="#77a1d0" d="M119 79l40 20-38 2z"/><path fill="#b1deff" d="M248 61l-9-17-29 10z"/><circle r="1" fill="#000d09" transform="matrix(25.01424 6.76916 -10.62827 39.27488 227 151.9)"/><path fill="#9bb54e" d="M173 124h26v30h-26z"/><path fill="#5f7a2f" d="M93.4 158l80.2 16.1-55.6-37.7-80.1 6.4z"/><circle cx="43" cy="72" r="7" fill="#031000"/><ellipse cx="255" cy="31" fill="#c2cdde" rx="45" ry="5"/><path d="M222.3 45.3l-2-7.8 19.4-4.8 2 7.8z"/><path fill="#26361e" d="M222 88l-65-9 36-16z"/><circle cx="186" cy="20" r="9" fill="#f6ffff"/><path fill="#e6faff" d="M267.4 71l-4.1 2.7-20.7-30.6 4.1-2.8z"/><path fill="#131e19" d="M236.5 73.7l-5.1 29.6 28.6-9.5-11.4-9.9z"/><path fill="#c6e1fa" d="M116 82l40 6 7-48z"/><path fill="#bedcf1" d="M90.9 69.8l104.3-6.2-98.6 25.5-7.1 2.8z"/><path fill="#0e2226" d="M194.5 61.2l-35.7-.5 23.7-22.6 50.9-41z"/><path fill="#aed9ff" d="M184.8 80.3l6.8 7.3-4.4 4.1-6.8-7.3z"/><ellipse cx="56" cy="119" fill="#a3b365" rx="66" ry="5"/><path fill="#cbecff" d="M180 1l-31-1 49-16z"/><path fill="#0e230d" d="M62.4 157.6L4.7 140.1-16 165.6l59.5-24.4z"/><path fill="#080d10" d="M205 21h51v5h-51z"/><path fill="#191702" d="M131 97l4-14-8 8z"/><path fill="#b6dcff" d="M-16 27.6L94.9 78l-87-18.1-23.9 27z"/><path fill="#000506" d="M218.1-14.1l68.6 105.7-.8.5-68.6-105.7z"/><path fill="#021009" d="M173 18l-4-16 21 7z"/><path fill="#00020d" d="M212 57h15v22h-15z"/><path fill="#9cc9ff" d="M271 15l-5.4-31-27.1 27.5-5.8-21.7z"/><circle r="1" fill="#7aa5dd" transform="rotate(26.8 -63 110.6) scale(42.86518 5.58563)"/><path fill="#7995ae" d="M218.9 87.7l16.5-10.6.2 5.1-10.9 23.6z"/><circle r="1" fill="#e3ebf1" transform="rotate(-85.3 30.7 -33.3) scale(47.00771 14.87778)"/><circle r="1" fill="#c7dff8" transform="matrix(-15.17817 14.38538 -2.51174 -2.65016 182.6 17.7)"/><path fill="#a3bace" d="M199 33h21v5h-21z"/><path fill="#061e18" d="M162.8 124.4l-56.1-9.9.5-3 56.1 10z"/><path fill="#0f1c1f" d="M203.9 14.4l3.7 47.3 4.6-36-36-22.6z"/><path fill="#040621" d="M250 58h6v14h-6z"/><path fill="#c6d8f3" d="M29.4 19.3l3.9-14.1 89.3 38.7-83.5-13.1z"/><path fill="#99a65f" d="M106.1 111.5l75.3 29.2-68.3-10.5 10.6-22.5z"/><path fill="#f8ffff" d="M201.7 62.2l5.8 1.8-1.2 3.8-5.8-1.8z"/><path fill="#4a76bc" d="M126-16L93 25l-21-8z"/><path fill="#6ca0dc" d="M165 36l-37 3 29 16z"/><path fill="#66a1df" d="M78 41h30v16H78z"/><path fill="#b7d8ff" d="M253 67l-15-22-13 17z"/><path fill="#4c6c88" d="M170.3 89.2l-.6 14.3.5 2.7-11.6-4.5z"/><path fill="#b7ddfe" d="M181 55l-20 20-14-7z"/><path fill="#1a262c" d="M220.1 13.1L213.8-16l25.3 55.4-9.8-47.5z"/><path fill="#d1e7ff" d="M182.2 35.9L145 12.4l1.1 4.4-44.9 13z"/><circle r="1" fill="#414b34" transform="matrix(10.48285 5.56375 -8.54982 16.109 10.3 77.6)"/><path fill="#121911" d="M208 128l-36-11 19-31z"/><path fill="#dbf2ff" d="M186 30l14-9-19-11z"/><path fill="#31432b" d="M40 76h47v20H40z"/><path fill="#9ac0ee" d="M87 24L57 80l84-74z"/><path fill="#081812" d="M184 28l-22 23 41 11z"/><path fill="#607231" d="M89.4 158.4l75.4-4-20.3-13-22-8.7z"/><path fill="#92b2cd" d="M258.7 81.1l-4 5.8-11.4-8 4-5.8z"/><path fill="#061313" d="M158 77h19v15h-19z"/><circle r="1" fill="#67733d" transform="matrix(4.0016 -4.92074 17.4466 14.1878 25 87.9)"/><path fill="#fff" d="M110 110h11v2h-11z"/><ellipse cx="182" cy="165" fill="#0b1e0d" rx="22" ry="14"/><path fill="#dfedff" d="M235.7 31.5l-3.4 2.2-6-9.2 3.4-2.2z"/><path fill="#92acdf" d="M241.2 8.3l13.1 11.4-10.2-2.1-3.3-26.2z"/><path fill="#061818" d="M200 67h53v8h-53z"/><path fill="#3b5034" d="M98.4 114l21.9 2.9-69.4-45L7.7 62z"/><path fill="#23321b" d="M271 9.7l-67.8 9.9 44.4-12.4-3.5-4.7z"/><path fill="#4370c0" d="M17 16L50-5 7-14z"/><path fill="#c0ddff" d="M149-16l29 49-15 5z"/><path fill="#242232" d="M246.4 41.1l20.9 8.6L255.6 16l4.4 38.6z"/><path fill="#c5e2fb" d="M158.6 50.8L95.8 63.4l-50.5 2.1 54.4-9.6z"/><path fill="#1b1f22" d="M250.5 68l4.9 10.1-10.3-25.3L271 85.3z"/><path fill="#88beeb" d="M72.9 69.8l33.5-1.3 25.3 41L114.9 58z"/><path fill="#2d5ead" d="M61.3-16L168.4-2.6l-65.5 8.5L80.1 3z"/></g></g></svg>