<svg xmlns="http://www.w3.org/2000/svg" viewBox="0 0 4752 3168"><defs/><filter id="a"><feGaussianBlur stdDeviation="12"/></filter><rect width="100%" height="100%" fill="#544e38"/><g filter="url(#a)"><g fill-opacity=".5" transform="translate(9.3 9.3) scale(18.5625)"><ellipse cx="115" cy="164" fill="#a5e0d3" rx="99" ry="17"/><circle r="1" fill="#8fa596" transform="matrix(-55.49691 -49.63943 26.23907 -29.3353 125.2 61.8)"/><circle r="1" fill="#000003" transform="matrix(20.4593 15.77845 -22.52368 29.20556 255 156)"/><circle r="1" transform="rotate(82.1 -42.9 117.7) scale(6.54639 80.86577)"/><path fill="#8f9da0" d="M241.7 37.5l8.5 5-148.9 31 63.3 20z"/><ellipse cx="3" cy="51" fill="#131517" rx="34" ry="38"/><ellipse cx="64" cy="89" fill="#7c7165" rx="33" ry="48"/><path fill="#85b665" d="M146-3l98-13-60 42z"/><ellipse cx="171" cy="126" fill="#8fa7df" rx="5" ry="51"/><path fill="#212d2c" d="M169.4 78.6l-4.3 66.9-30.1.1 5.5-32.5z"/><ellipse cx="204" cy="36" fill="#001102" rx="22" ry="12"/><ellipse cx="206" cy="122" fill="#33494a" rx="35" ry="62"/><path fill="#b1b9b9" d="M97 158.5l131.7-12-34.2 16.1-24.3-19.1z"/><path fill="#72a774" d="M234 35h13v69h-13z"/><circle r="1" fill="#93bf95" transform="matrix(.6121 10.94825 -111.02555 6.2073 36 169)"/><ellipse cx="117" cy="42" fill="#445b2a" rx="15" ry="23"/><circle r="1" fill="#302a21" transform="matrix(-2.45159 9.98108 -36.27967 -8.91114 41 63.8)"/><path fill="#c1b2a0" d="M30 80h30v9H30z"/><path fill="#202e1e" d="M230 67l29 33-82-22z"/><path fill="#919581" d="M52.2 29.6l1.8 11 164.2 65.8L31.8 46.3z"/><path fill="#808b8c" d="M12.1-15.2l40.3 4.4-2.5 21.6-21.2 7.4z"/><path fill="#a29f97" d="M19.1 139.4l37.1-22 25.5-10.5-36.2 26.7z"/><path fill="#000500" d="M186 100h14v27h-14z"/><path fill="#8b8c8a" d="M133 85l41 18-79 12z"/><path fill="#8f9a77" d="M113.4 5.2L50 68.9l29.4-64L86.6-16z"/><path fill="#3e332f" d="M116 100L95 67l8 51z"/><path fill="#000d09" d="M-4.9 162.5l-7.6-16 33.8-1.8 101.7-8.9z"/><ellipse cx="218" cy="127" fill="#d2c9ac" rx="11" ry="3"/><path fill="#0e380f" d="M220 17l6-24 43 62z"/><path fill="#82c376" d="M238 9l31 7-35 7z"/><path fill="#292520" d="M52 121L34 90l-43 16z"/><circle r="1" fill="#315b1a" transform="matrix(17.9629 -10.77802 15.4214 25.70168 138 0)"/><ellipse cx="16" cy="120" fill="#968e96" rx="12" ry="6"/><path fill="#669462" d="M211.7 56.6l.9 26 9.1-17.4L238.1 21z"/><path fill="#03110e" d="M259.5 135l13 29.3-42 18.7-13-29.3z"/><path fill="#1c2529" d="M57-6L38 26l31 8z"/><ellipse cx="174" cy="164" fill="#666992" rx="23" ry="9"/><path fill="#84987f" d="M210.9 94.6l-15.4 7.2.9-11.6 1.3-6.7z"/><path fill="#80a579" d="M225 94l32 5-25 12z"/><path fill="#343828" d="M128.4 146.8l41.3-14.5-17.2-35.9-14.3 14.8z"/><path fill="#9a9faa" d="M196 55.7l-29.3 32.6-8-40.1 43.5 14.9z"/><path fill="#8c8c7a" d="M148.5 34.9l-7.8 89.1-31.8-12.7-4.2 24.8z"/><path fill="#5d624d" d="M18 25h18v28H18z"/><path fill="#463b3a" d="M95.1 49L81.7 27.5l-9.2-1.6 30.5 5.4z"/><path fill="#a1ab99" d="M157.8-5.2l7.6-2.5 14.4 36.6 5.8-18z"/><path fill="#344f29" d="M202.2 58.3l-76.3-36.2 84.8 26.8L223 35.3z"/><path fill="#b6a695" d="M93 89h9v11h-9z"/><ellipse cx="118" cy="141" fill="#010a10" rx="36" ry="5"/><path fill="#595c56" d="M124.3 107.4l49.9-30.8-32.5 14.3 16.7-35.4z"/><path fill="#94a687" d="M123 146h37v11h-37z"/><circle r="1" fill="#aba7a0" transform="matrix(-5.8126 -1.00955 1.94934 -11.22355 79.5 46.5)"/><path fill="#20281c" d="M250 106l-33 5 40 31z"/><path fill="#6f7a60" d="M176.7 55.3L153 98.4l46.9-58.2-18.4 4.8z"/><circle cx="151" cy="54" r="6" fill="#1f2225"/><circle r="1" fill="#81b172" transform="matrix(-2.97624 -17.2306 3.25946 -.563 216.5 6.5)"/><path fill="#312e28" d="M62.6 107.1l45.9-8.6-7.2-6.7-2.1 19.4z"/><circle r="1" fill="#332c26" transform="matrix(3.52809 -32.89004 3.47098 .37233 18.8 106.2)"/><path fill="#050c09" d="M19.9 28.7V-16l-5.3 34.1L-16 73.9z"/><path fill="#0c2723" d="M249 17h7v44h-7z"/><path fill="#77916d" d="M238 40h10v49h-10z"/><path fill="#a4998a" d="M83.1 115.5l-9 7.9-11.2-12.9 9-7.9z"/><path fill="#37301f" d="M45 88l1 30 16-4z"/><path fill="#080f19" d="M196 84l-12 14-4-18z"/><path fill="#21231d" d="M192 171l36-23 24 4z"/><path fill="#0d170a" d="M184 113h25v14h-25z"/><path fill="#7ca460" d="M97-2l61 45-20 9z"/><path fill="#83915f" d="M159.8 12.9l16.6 6-.6-4.3-17.4 18.2z"/><circle r="1" fill="#8f9178" transform="matrix(20.16477 -11.40997 4.15516 7.34339 88.3 72.2)"/><path fill="#3f5631" d="M214 5l-49 43 27-42z"/><path fill="#473d2f" d="M67.4 98.7l-13.8-15 67.1 6.7-24.1-4.8z"/><path fill="#dcd5cf" d="M206 168h14v2h-14z"/><path fill="#141c12" d="M120 42h5v21h-5z"/><path fill="#909fa9" d="M156.1 102.6l25.9 14.1-9.8 3.1-19-33.2z"/><path fill="#9aa0b1" d="M183 152l-7 15 35-20z"/><path fill="#ae9f8c" d="M47 79l9 22 10 1z"/><path fill="#101a09" d="M234 67l-12 36-8-19z"/><path fill="#9a9a9c" d="M241.2 138.6l.8 1.8-29.2 13-.8-1.8z"/><path fill="#09070b" d="M160 84l-6 3 10 9z"/><path fill="#18290a" d="M271 127.3l-27.2 3.6-20 1.6-13.6 15.5z"/><path fill="#b9c2db" d="M170 73h6v25h-6z"/><ellipse cx="191" cy="128" fill="#beb4b7" rx="19" ry="1"/><path fill="#b1c19c" d="M104.2 67.3l34.6 5.5-1 5.9-34.6-5.5z"/><path fill="#949aa9" d="M183.8 67.8l-26.2-6.1 32.5 12.7-1 13.7z"/><path fill="#d4d9f2" d="M171 153l-10-3 15-8z"/><path fill="#8d9e91" d="M214 72l-30-17 21 1z"/><path fill="#244210" d="M261.5 4.4L232-16l6.2 53.6-7.2-23.8z"/><path fill="#3b3837" d="M169 75l-29-3 15 6z"/><path fill="#6f6f4c" d="M36.2 143.6l-28.1-1.9 2.7-11.1 84.5-1.7z"/><path fill="#63805a" d="M48.9-16l40.5 34L110-13.8 61.7 8z"/><path fill="#929c8a" d="M123.8 50.9l25.9-7.4-5.1 26.6 19.3 8.8z"/><path fill="#393428" d="M12.5 46l60 30.8-.4-27.2-27.4 25.6z"/><path fill="#43453e" d="M66 38L49 54l3-28z"/><path fill="#687794" d="M187.1 97.2L162.5 152l12.1-48.3 1-22.6z"/><path fill="#aba197" d="M11 91l4 6-16-8z"/><path fill="#8e8070" d="M63.4 38.6L49.1 72.7l-.5-54.9-5.8 54.8z"/><path fill="#97a095" d="M194 64.3l-5.8-6.8 29.5-.9 10.5-16.2z"/><path fill="#3c411a" d="M72 123l16-11 1 29z"/><path fill="#2d342d" d="M171.3 129.8l35.7 14.1-38.1 11.4 37.3-22.8z"/><path fill="#142414" d="M213.3 48.5l-20.8 8.4 24-35.3-46.8 16.6z"/><path fill="#3b5d3c" d="M224.9 52.7l16.6.3-.5 11.3-33.8 8.5z"/></g></g></svg>