<svg xmlns="http://www.w3.org/2000/svg" viewBox="0 0 1800 1200"><defs/><filter id="a"><feGaussianBlur stdDeviation="12"/></filter><rect width="100%" height="100%" fill="#4a3a3d"/><g filter="url(#a)"><g fill-opacity=".5" transform="translate(3.5 3.5) scale(7.03125)"><circle r="1" fill="#97c3ea" transform="rotate(-25.1 146.4 -316.6) scale(220.90696 111.2941)"/><ellipse cx="93" cy="91" fill="#401f08" rx="35" ry="63"/><circle r="1" fill="#f5fffc" transform="matrix(-31.70397 14.30964 -16.68996 -36.97772 16.8 93.1)"/><circle r="1" fill="#b9c5ce" transform="rotate(-101.2 127.4 -21.6) scale(31.8384 50.96887)"/><ellipse cx="140" cy="153" fill="#5b5050" rx="227" ry="23"/><circle r="1" fill="#74a6de" transform="rotate(-178.8 13.5 14.5) scale(28.99985 58.78467)"/><circle r="1" fill="#5783bd" transform="matrix(-186.59096 -87.59246 16.76086 -35.70426 201.5 46.9)"/><ellipse cx="240" cy="79" fill="#8b9db2" rx="116" ry="31"/><path fill="#544742" d="M53 31h74v116H53z"/><circle r="1" fill="#3e68a1" transform="rotate(-168.6 86.9 -8.6) scale(118.54023 24.92384)"/><circle r="1" fill="#62504c" transform="matrix(11.84778 18.41213 -41.90245 26.96327 212.6 139)"/><ellipse cx="85" cy="162" fill="#857167" rx="80" ry="15"/><path fill="#d6d3ca" d="M47.9 133.7L-16 118.8l37.2-50.9 31.9 48.5z"/><ellipse cx="121" cy="146" fill="#382f2c" rx="18" ry="11"/><path fill="#43669d" d="M196 120l-51 41-14-29z"/><path fill="#bcbcba" d="M127 129l-1-48 90 33z"/><path fill="#5782ba" d="M8.4-8.8L132.1 0l-2.5 36.9L5.9 28z"/><path fill="#2d2832" d="M72 69h42v40H72z"/><ellipse cx="64" cy="87" fill="#81746c" rx="8" ry="41"/><ellipse cx="9" cy="140" fill="#3968a7" rx="37" ry="10"/><circle r="1" fill="#95afcb" transform="matrix(11.24876 -22.43437 39.35572 19.73326 11.7 55.9)"/><ellipse cx="235" cy="143" fill="#3c2e2d" rx="68" ry="8"/><path fill="#27201d" d="M71.4 148.2l-23-.4.2-10 23 .4z"/><ellipse cx="110" cy="169" fill="#171212" rx="34" ry="3"/><path fill="#7e6b5f" d="M89.9 117.1l-1.8-50 8-.2 1.8 50z"/><ellipse cx="143" cy="66" fill="#7598bf" rx="18" ry="34"/><circle r="1" fill="#9da0a4" transform="rotate(-70.1 195 -134.4) scale(17.45859 22.97188)"/><path fill="#665857" d="M164 152l77-55-44 80z"/><path fill="#8d8b8c" d="M83 72l6-19-17 12z"/><path fill="#a0918e" d="M77 148l23.2 15.5 29.5 3.7-38.5-19.8z"/><path fill="#231717" d="M88 36h37v3H88z"/><path fill="#6b5d57" d="M51 109h75v29H51z"/><ellipse cx="121" cy="89" fill="#6a5d58" rx="6" ry="55"/><ellipse cx="98" cy="88" fill="#9eb5ca" rx="2" ry="7"/><path fill="#cfcac5" d="M0 99h51v32H0z"/><circle r="1" fill="#5f7fab" transform="rotate(7.9 -212.8 1583) scale(89.89101 23.24065)"/><path fill="#1f161d" d="M80 73v42l16-35z"/><path fill="#1a0f15" d="M104.1 92.7l-8.9-38.9-10.6 6.8 29.6 13z"/><path fill="#3f3938" d="M60.5 31.5l-13 18.7 18.4-14.5 32.1 2z"/><path fill="#a9a9a9" d="M231 80l-79 53 78-26z"/><path fill="#7f878f" d="M146 158h17v12h-17z"/><path fill="#4f3f37" d="M52 79h6v33h-6z"/><path fill="#665b57" d="M97.2 69.2l27.8 2.4 2.7-34.5-12.7 3.2z"/><path fill="#847471" d="M-16 154v31l101-34z"/><path fill="#4c3b3a" d="M197.6 149.7l-30.2-7.1 30.1-19.7 73.5 42.5z"/><path fill="#241e20" d="M59 76h13v6H59z"/><path fill="#6a5455" d="M182.6 132.6l57.6-19.6-2.4-21-19.6 50.4z"/><path fill="#818489" d="M75 80.1l-.1 14.3-64 16.5 74.4-19z"/><ellipse cy="123" fill="#bfb9b7" rx="50" ry="9"/><path fill="#473f3c" d="M94 147l48 20-52-41z"/><path fill="#3a5e8f" d="M137 153.7l-2.7-18.8 32.7-4.6 2.7 18.8z"/><path fill="#6c6768" d="M202 185l7-33-45-5z"/><path fill="#817877" d="M109.5 61.3L152 98.5l-49.8-39.8-13.6 24.5z"/><path fill="#bab9bb" d="M127 107h17v24h-17z"/><path fill="#babcbb" d="M78.8 114.8l-8.5-2.8.9-2.8 8.5 2.8z"/><ellipse cx="220" cy="144" fill="#281e1b" rx="42" ry="2"/><path fill="#a7bccb" d="M6 67h46v25H6z"/><path fill="#7396c2" d="M45.9 59l-69-29.3L-12 3l69 29.3z"/><path fill="#2b1f1e" d="M32 169h102v1H32z"/><path fill="#141315" d="M166 159h6v11h-6z"/><path fill="#121527" d="M73 94h13v16H73z"/><path fill="#645d58" d="M94.2 37.6L90 23.9 66.5 43l56.2-1.6z"/><circle r="1" fill="#6f8fb4" transform="matrix(41.1195 13.30716 -5.21069 16.10117 167.4 63.5)"/><circle r="1" fill="#446899" transform="matrix(-.21136 13.27626 -62.20401 -.99032 226.7 .7)"/><ellipse cx="88" cy="140" fill="#3c3737" rx="47" ry="3"/><path fill="#1b1218" d="M104 99l-6-29 10-3z"/><path fill="#625150" d="M271 131l-35-29-25 20z"/><circle r="1" fill="#5b80b1" transform="rotate(-79.3 54.4 -47) scale(15.4469 108.29349)"/><path fill="#4d4647" d="M121.5 35.4L86.2 57.3l43.9-23.4-24.3 65.5z"/><path fill="#a3a8ae" d="M250 109l21-4-47-15z"/><path fill="#5a4740" d="M106 86h11v47h-11z"/><path fill="#888b9f" d="M139 124h45v8h-45z"/><path fill="#72523e" d="M0 150h37v4H0z"/><circle cx="145" cy="157" r="5" fill="#978880"/><path fill="#6c6562" d="M58 65.3l36.4 8.3-6.2-16.2L51 42.9z"/><ellipse cx="89" cy="146" fill="#231711" rx="39" ry="1"/><path fill="#6e6c6c" d="M85 99l23 14-20-2z"/><path fill="#211921" d="M90.3 86.5l-7.9 25.9.1-15-7.6-28.1z"/><path fill="#4e6e9a" d="M31.1 130.5l15 1-1.2 18-15-1z"/><path fill="#614e44" d="M89 78h6v30h-6z"/><path fill="#3b3538" d="M55.3 36L78 31.7l-.9 8.1 51.3-2.7z"/><path fill="#897a7a" d="M32.9 153.9l34.2.4 30.3 12.9-37.3.6z"/><path fill="#362c27" d="M115 166h28v4h-28z"/><path fill="#4a4341" d="M83.3 53.2L60.2 41.5l24.5-1.3-22.1 39.1z"/><path fill="#91a2b3" d="M127 82h106v21H127z"/><ellipse cx="224" cy="78" fill="#7b91ac" rx="44" ry="17"/><path fill="#8ca7c5" d="M9 69.2l5-21.4 39 9-5 21.4z"/><path fill="#76676a" d="M187.6 138.5l-9.8-34.9 12 42.1 45.3-28.5z"/><path fill="#3d322e" d="M226 185l-18-41 1 29z"/><path fill="#8e8080" d="M95 162h33v4H95z"/><ellipse cx="173" cy="116" fill="#b9b6b4" rx="38" ry="6"/><path fill="#4e423b" d="M131.4 147.7l9-6.4-26.6-1.3 38.4 38.5z"/><circle cx="80" cy="70" r="3" fill="#6e9bc7"/><path fill="#837872" d="M58 82h11v23H58z"/><path fill="#6b5957" d="M236 127l12 16 5-23z"/><path fill="#2a2227" d="M94.8 105.5l14-25.4 4.4 2.4-14 25.4z"/><path fill="#826b62" d="M116.2 83.8l5-.5 2.6 29-5 .4z"/><path fill="#7092b9" d="M126 40h2v38h-2z"/><path fill="#8e8683" d="M64 56h6v12h-6z"/><path fill="#7a726e" d="M120.2 41.9l-16.9-2.3-22-.9 21.3 5.2z"/></g></g></svg>