<svg xmlns="http://www.w3.org/2000/svg" viewBox="0 0 1800 1200"><defs/><filter id="a"><feGaussianBlur stdDeviation="12"/></filter><rect width="100%" height="100%" fill="#363745"/><g filter="url(#a)"><g fill-opacity=".5" transform="translate(3.5 3.5) scale(7.03125)"><circle r="1" fill="#d9d5b9" transform="rotate(-90.7 73.6 -50.6) scale(47.41906 254.99998)"/><circle r="1" fill="#ebac5a" transform="rotate(87.7 42.4 142.4) scale(6.9217 79.40442)"/><path fill="#2c2717" d="M-16 154l266 31 21-90z"/><ellipse cx="169" cy="97" fill="#be8b4d" rx="28" ry="15"/><ellipse cx="163" cy="35" fill="#aca493" rx="54" ry="29"/><circle r="1" fill="#4d5e71" transform="matrix(10.90759 29.36625 -64.46001 23.94256 31.1 0)"/><ellipse cx="25" cy="137" fill="#222522" rx="54" ry="57"/><circle r="1" fill="#5b4836" transform="rotate(11.4 -483.5 807.1) scale(53.29097 13.40012)"/><path fill="#372a1f" d="M271 1.6l-48.4 2.2 21.6 8.8 26.8.7z"/><path fill="#fd8" d="M146 91h64v4h-64z"/><ellipse cx="215" cy="75" fill="#22272c" rx="20" ry="14"/><circle r="1" fill="#968e7c" transform="matrix(-48.72177 -29.48361 11.89224 -19.65197 246.6 41.6)"/><path fill="#ae9979" d="M167.1 73l38.8-4.6-19 15.3-5.3-65.2z"/><path fill="#5e412e" d="M207 117l-35-18 99-8z"/><path fill="#3b3938" d="M149 64l77 23-155 6z"/><path fill="#676358" d="M184.8 65L79.9 74.5 3.2 73.1l90.4-7.3z"/><circle r="1" fill="#ce9763" transform="matrix(-.11332 -2.73914 12.54778 -.51911 123.5 92)"/><circle r="1" fill="#3d3b37" transform="matrix(-64.14677 -26.0472 9.56192 -23.54826 106.4 119.4)"/><ellipse cx="51" cy="109" fill="#101523" rx="70" ry="5"/><path fill="#d8b982" d="M160.7 95.7l-.4-13 11-.4.4 13z"/><path fill="#03070e" d="M154.2 183.6l-34.5-13.3 6-15.9 34.6 13.3z"/><path fill="#d9b37c" d="M245 86h11v5h-11z"/><path fill="#1c2839" d="M173 72l-36 15-49-20z"/><path fill="#dbae73" d="M206 89h41v4h-41z"/><path fill="#514e4b" d="M56.8 76.9L-16 53.6l.6 9.9 50.7 11.8z"/><path fill="#989787" d="M79 38h11v35H79z"/><circle r="1" fill="#b6a791" transform="matrix(26.8995 -.4355 .19013 11.744 172 50)"/><circle cx="102" cy="79" r="4" fill="#bc956a"/><circle r="1" fill="#767d7e" transform="matrix(-6.13507 -14.60555 81.3303 -34.16285 19 39.4)"/><ellipse cx="115" cy="35" fill="#8d8f88" rx="31" ry="33"/><circle r="1" fill="#717367" transform="matrix(20.15614 -4.83567 1.92122 8.00806 241.1 56)"/><circle r="1" fill="#262421" transform="rotate(65.1 11 262.9) scale(23.44244 37.2245)"/><ellipse cx="184" fill="#707678" rx="59" ry="9"/><ellipse cx="233" cy="115" fill="#595551" rx="24" ry="3"/><path fill="#775338" d="M216 100l-57 17-32-15z"/><circle r="1" fill="#162539" transform="matrix(-42.8622 .46807 -.05525 -5.05954 40.1 85.8)"/><ellipse cx="62" cy="91" fill="#8e705d" rx="14" ry="2"/><circle cx="188" cy="77" r="2" fill="#fff291"/><path fill="#2e333e" d="M220.1 61.8l4 10.3-26.2 10-4-10.2z"/><path fill="#1b1a1b" d="M-16 176.1l41.6-7.5.5-19.4-23.9-6.9z"/><circle r="1" fill="#545f6c" transform="matrix(-37.33241 .89413 -.399 -16.65934 .3 3.3)"/><ellipse cx="127" cy="90" fill="#d39c60" rx="6" ry="3"/><path fill="#baa085" d="M210 8l44 23-18-21z"/><ellipse cx="118" cy="115" fill="#494b49" rx="125" ry="3"/><circle cx="173" cy="93" r="4" fill="#ffeaa1"/><circle r="1" fill="#353236" transform="rotate(-177 95.2 41.4) scale(20.65561 1.66097)"/><path fill="#1e2630" d="M242.3 84.5l28.7-5.7L234.4 67l-34.6 8.9z"/><circle cx="75" cy="158" r="35" fill="#2f3030"/><path fill="#48423c" d="M153.7 150.4l4.9 7.2 35.4-56.7-37.3 22.6z"/><path fill="#736157" d="M13 92l-26-3 17 8z"/><path fill="#45484c" d="M3.9 63.3l24.6 2.8 41.1 9.8-32.7 3.6z"/><path fill="#8e644f" d="M91 100h32v2H91z"/><path fill="#baac99" d="M131.8 14.1l-13.9-2.7 19.8-2.5 37.5 9.7z"/><circle r="1" fill="#443f3a" transform="matrix(-.61905 2.97804 -24.7751 -5.15004 255 8.5)"/><path fill="#16181f" d="M22.2 177.2L140.5 161l14.1-22.4L144 185z"/><path fill="#131415" d="M172 134.5h50v5h-50z"/><path fill="#a16f40" d="M147.5 102.4l35.6 3.8 33.3-14.1-40 2.8z"/><path fill="#a29173" d="M99 61h107v5H99z"/><circle r="1" fill="#898c85" transform="rotate(-110.7 55.1 -7) scale(18.19718 59.95917)"/><path fill="#b39870" d="M269 62l2 19-24-21z"/><path fill="#3e3c37" d="M204 104l-52 22 55 9z"/><ellipse cx="179" cy="142" fill="#171718" rx="2" ry="29"/><circle r="1" fill="#2d2e35" transform="rotate(80.9 36.2 135) scale(5.76967 25.68428)"/><path fill="#353c49" d="M159.1 66.4L136 73.2l-4.3-10.4 42.7 20z"/><path fill="#958a76" d="M76.3 61l11.5-3.4 3.9 13.5-11.5 3.3z"/><path fill="#929088" d="M187.3 7.1l24.5 53.2 35.1-32.8-41.3-21.9z"/><path fill="#604f40" d="M171 84l-12 7 27-4z"/><path fill="#534744" d="M141.7 115.2l-20.6 15.2 13.1-34-44-10z"/><path fill="#2c2c32" d="M194 80h45v8h-45z"/><path fill="#5b5145" d="M157 147h34v3h-34z"/><ellipse cx="84" cy="161" fill="#121112" rx="20" ry="2"/><path fill="#161616" d="M215 129l-3-13-13-4z"/><path fill="#262329" d="M70 103h52v11H70z"/><path fill="#f9dc97" d="M168 90h22v3h-22z"/><path fill="#93785b" d="M225.8 4.6l.7 3.7L271 37.1V19.4z"/><path fill="#39393c" d="M198.4 68.7l-8-5.1-1.7 4.7 47.9 19.2z"/><path fill="#634a3a" d="M161.4 116l22.6-15.2 59.7-7.6-71.1 23.5z"/><path fill="#bb9a6d" d="M217 88h35v4h-35z"/><path fill="#ffefa0" d="M187.6 76l.8.5-2 3.5-.8-.5z"/><path fill="#cd9955" d="M144.3 98.4l32.3-.2 50.2-7.9-82.1 5.8z"/><path fill="#8e8a7a" d="M136 71l-30-9 11-9z"/><path fill="#2a2c35" d="M112.4 89.4l-42.9-3.5 42.1-4.7 77.3-3.7z"/><path fill="#bba584" d="M163 83h17v2h-17z"/><circle r="1" fill="#1d1d1f" transform="rotate(-65.1 144 6.4) scale(1 135.96461)"/><path fill="#2b313e" d="M29.3 108.1l40.8-3.8L.5 72.7l32.2-.1z"/><path fill="#29303f" d="M159 82l3-15-15-2z"/><ellipse cx="222" cy="149" fill="#070607" rx="2" ry="13"/><path fill="#03050d" d="M180 114h25v1h-25z"/><path fill="#a4865f" d="M173.3 60.1l20.6 16.6 2.6-6.3-10.9.7z"/><path fill="#6a6b69" d="M223 4l48-3-44-17z"/><path fill="#4e4e4b" d="M53 114h120v5H53z"/><path fill="#858887" d="M190 26L104 7 36 35z"/><path fill="#393b44" d="M231.5 68.7L199.8 79l-8.7-3.5 26.2-16.3z"/><ellipse cx="201" cy="145" fill="#443f39" rx="18" ry="4"/><path fill="#33322f" d="M241 162l-31-46 29 1z"/><path fill="#7d7e78" d="M-9 64.5l-3.7-35.8L37 23.5l3.7 35.8z"/><path fill="#3a4047" d="M110.9 72l-2.8 7.5-15-5.5 2.8-7.5z"/><path d="M225 162.2l14.3 4.6-.3 1-14.3-4.6z"/><path fill="#8a8c83" d="M60.6 39.6l26.3-2.3-2.3 3.9-26.5 38.5z"/><path fill="#3b3b3a" d="M57 145h57v8H57z"/></g></g></svg>