<svg xmlns="http://www.w3.org/2000/svg" viewBox="0 0 1200 1800"><defs/><filter id="a"><feGaussianBlur stdDeviation="12"/></filter><rect width="100%" height="100%" fill="#554639"/><g filter="url(#a)"><g fill-opacity=".5" transform="translate(3.5 3.5) scale(7.03125)"><circle r="1" fill="#d7e4e3" transform="rotate(-157.3 54 48.7) scale(162.66144 169)"/><circle r="1" fill="#51422d" transform="matrix(111.34777 -9.21735 3.91415 47.2839 48.1 95.6)"/><circle r="1" fill="#bdddff" transform="rotate(-65 82.3 -89.9) scale(35.70001 125.75119)"/><circle r="1" fill="#cbc6b9" transform="matrix(93.53439 -29.35682 13.9214 44.3553 89 183.2)"/><circle r="1" fill="#3d3b2b" transform="rotate(-165.7 86.9 40) scale(34.37342 26.41682)"/><path fill="#98c1ea" d="M46.9 14.5l-36 60-31.8-19 36-60z"/><path fill="#504431" d="M59.2 24.8l14.1 27.7-44.5 22.7-14.1-27.7z"/><path fill="#453925" d="M126.6 66.8l-23-13-26.2-4.1 22.4-10.9z"/><circle r="1" fill="#bbccdb" transform="rotate(28.9 -14.6 306.5) scale(27.17395 30.84093)"/><circle r="1" fill="#584936" transform="matrix(73.65494 -6.96244 1.02268 10.8188 27.7 137.4)"/><path fill="#c0d1de" d="M0 14h47v21H0z"/><circle r="1" fill="#6984a3" transform="matrix(1.05785 10.41955 -64.2945 6.52751 36.6 0)"/><path fill="#aaa292" d="M38 122l53-6-34-18z"/><circle r="1" fill="#bebeb7" transform="rotate(-26.6 392.1 -149.2) scale(51.38123 28.85224)"/><ellipse cx="77" cy="217" fill="#a7a092" rx="93" ry="25"/><ellipse cx="38" cy="173" fill="#b7b5aa" rx="38" ry="32"/><circle r="1" fill="#7495b4" transform="matrix(-18.30227 19.01887 -13.99258 -13.46536 .4 59.8)"/><path fill="#aecde9" d="M80.4 49L62 30.6l5.6-5.6L86 43.4z"/><path fill="#6a614f" d="M130 84h40v43h-40z"/><circle r="1" fill="#635644" transform="matrix(26.83732 19.05827 -11.322 15.94331 59.7 59.4)"/><path fill="#a09e93" d="M109 67h19v16h-19z"/><circle r="1" fill="#88796b" transform="rotate(178.7 77.4 124.3) scale(25.14065 16.79566)"/><path fill="#000c08" d="M140 78h24v5h-24z"/><circle r="1" fill="#889db4" transform="rotate(164.7 52.4 18.5) scale(41.28057 5.87624)"/><path fill="#4e3c28" d="M92 121l15-9 35 13z"/><path fill="#4b4030" d="M89.5 50l17.6 3.1-15.3-15.5-6.5 6.5z"/><path fill="#958571" d="M126.2 99.4l19.3 23-42-11.3-11.9-18.6z"/><path fill="#32516f" d="M3.5 71.2l2.3 7.6 11.2 16 3.6-25.7z"/><path fill="#88a3bb" d="M185 74.2V52.1L125.8 66l37.3 11.6z"/><path fill="#b7b6ae" d="M103 123l70 6-41 55z"/><path fill="#b1c1ca" d="M0 50h22v12H0z"/><path fill="#c7d3e0" d="M185 34v-46l-85 53z"/><path fill="#4a3f32" d="M143 106l-5-21-32 2z"/><path fill="#817c72" d="M157.6 83.3l-2.6 23.2 7.9 16.4-28.4-39.6z"/><ellipse cy="109" fill="#aeaa9b" rx="20" ry="4"/><circle cx="164" cy="109" r="8" fill="#34481b"/><path fill="#d0dbe3" d="M110.4-5.9l4 9.1L81.7 18l-4-9.1z"/><path fill="#534532" d="M43 127l-49 16 72-2z"/><ellipse cx="37" cy="55" fill="#6d614f" rx="17" ry="20"/><circle r="1" fill="#635a49" transform="rotate(18.3 -71 172.6) scale(4.30936 8.11337)"/><path fill="#918877" d="M61 124L9 96l92 20z"/><path fill="#504533" d="M44 120l-5-17-15 10z"/><path fill="#322d18" d="M143 126l22-3-18-3z"/><path fill="#b5cadc" d="M76.1 21.1l-27-10.9-17.7 27.4L67.8 9.9z"/><path fill="#6d6759" d="M109 46L75 56l55 12z"/><path fill="#aba599" d="M59.3 189.9l-3.2 52.5 84.8-13.7 44.1-42z"/><path fill="#c1c4bd" d="M134 150l-27 36-79-2z"/><path fill="#635444" d="M97 84h7v50h-7z"/><path fill="#5e7b99" d="M16 49l-31-4 36-8z"/><path fill="#91846f" d="M-16 65.7l26.7 36.8L-16 150l28.6-25.7z"/><path fill="#c2cfd8" d="M185 10.6l-67.8 35.9-1-6.4-49.5 1z"/><path fill="#232a1d" d="M145 78h25v4h-25z"/><path fill="#4f7193" d="M149 68l-20 5 36 1z"/><path fill="#51442f" d="M8 82h13l-7 23z"/><ellipse cx="141" cy="53" fill="#b1bfca" rx="21" ry="17"/><path fill="#2a342d" d="M137.1 75.9l20.3-2.2-6.6 12.1-18.8-9.7z"/><ellipse cy="21" fill="#dae2e4" rx="20" ry="5"/><ellipse cx="63" cy="234" fill="#a19c90" rx="68" ry="15"/><path fill="#a8947b" d="M100 93.8L94 99l-8-8.9 6-5.3z"/><path fill="#887660" d="M21 115l67-23-69-10z"/><path fill="#ada99c" d="M128 124l-71 49-37-12z"/><path fill="#4f4539" d="M151 102l-20 12-10-4z"/><path fill="#878274" d="M93 80l15-27 33 33z"/><path fill="#918068" d="M22 50h8v17h-8z"/><ellipse cx="83" cy="102" fill="#73614b" rx="14" ry="12"/><path fill="#c1cfd6" d="M86 33l-11 4 6 13z"/><path fill="#5d513f" d="M54 22l8 8-17-2z"/><path fill="#a58d7b" d="M154 105h4v15h-4z"/><path fill="#625848" d="M32.1 42.7L66 31.4 59.8 55 21.6 90.5z"/><path fill="#5d5344" d="M84.7 75.2l5-4.9 23.6 24.5-5 4.9z"/><path fill="#97a9c1" d="M124-16l35 23-41 21z"/><circle r="1" fill="#8a7c66" transform="matrix(.30783 -1.06982 102.22607 29.41447 25.4 249.1)"/><path fill="#7091b5" d="M157 73h7v6h-7z"/><path fill="#a19684" d="M107 101h22v7h-22z"/><path fill="#aaa597" d="M43.3 140.6l10.2 11.9-69.5 52.9 23-57.5z"/><path fill="#9aadbf" d="M18 41L55 3-2 33z"/><path fill="#5d5b51" d="M139.3 81.5L127 65 90.6 38.8l10.6 9.7z"/><ellipse cx="26" cy="1" fill="#8195ac" rx="63" ry="8"/><path fill="#a09586" d="M142.5 123.5l6.7-3.9-35.1-8.7 28.6 14.4z"/><path fill="#4d6d8d" d="M-16 74.2l17.9 3.6 16.5 5.9-2-15.7z"/><path fill="#4d473f" d="M72.5 139.7l30.2-6.9-36.2-1.8-3.7.5z"/><circle r="1" fill="#534632" transform="matrix(12.39587 -.93483 .23695 3.14198 1.7 145.1)"/><path fill="#958576" d="M180 81l.5 3-30.6 5-.4-3z"/><path fill="#5a564a" d="M79.5 51l27.7 20.1-25.1-12.4 17.1-21.5z"/><circle r="1" fill="#b2aea5" transform="rotate(-28.3 383.8 -243.2) scale(24.64584 26.81134)"/><path fill="#483e31" d="M86 45h22v6H86z"/><path fill="#acbfcf" d="M29 22h15v14H29z"/><path fill="#9c9b91" d="M119 69l-16-4 29 20z"/><path fill="#a09b8f" d="M28.2 122.8l69.5-8.6.1 1-69.5 8.6z"/><path fill="#95aabd" d="M66 26h6v16h-6z"/><path fill="#7e6f5c" d="M52.7 80.8l-10.3-6.2 12.9-21.4 10.3 6.2z"/><ellipse cx="169" cy="119" fill="#998a75" rx="11" ry="3"/><path fill="#a5c0d3" d="M1 71l8-5-18 4z"/><path fill="#80786c" d="M144 92h26v6h-26z"/><path fill="#7d7d73" d="M50.4 41l34.1 6.1L96.3 59l14.1.4z"/><circle cx="51" cy="30" r="4" fill="#9a8a73"/><path fill="#5e4f3c" d="M90 76l-1.3-1.8-13 6.8-26.8-20.9z"/><path fill="#90897b" d="M48.5 120.1l26.5 6.1-25.9-28.3 31.1 1.8z"/><path fill="#50493d" d="M145.8 97.1l-22.7-16.3 10.1 31.7 9.8-5.2z"/><path fill="#313124" d="M162 98l-6 4-4-4z"/></g></g></svg>