<svg xmlns="http://www.w3.org/2000/svg" viewBox="0 0 1800 1013"><defs/><filter id="a"><feGaussianBlur stdDeviation="12"/></filter><rect width="100%" height="100%" fill="#2c545c"/><g filter="url(#a)"><g fill-opacity=".5" transform="translate(3.5 3.5) scale(7.03125)"><circle r="1" fill="#a7bfff" transform="matrix(243.6302 -10.49682 2.07384 48.13372 181.6 51)"/><circle r="1" fill="#c5c2bb" transform="rotate(-92.8 147.6 -71.9) scale(25.95443 117.06235)"/><circle r="1" fill="#265baa" transform="matrix(-158.09316 22.25481 -7.12504 -50.6147 114.4 0)"/><ellipse cx="111" cy="88" fill="#bf9e78" rx="255" ry="10"/><circle r="1" fill="#79b7f8" transform="matrix(97.79337 -14.09224 2.86364 19.87226 230 51)"/><ellipse cx="190" cy="120" fill="#16407b" rx="255" ry="24"/><circle r="1" fill="#3f709e" transform="matrix(3.49473 -24.25172 62.27375 8.97378 243.9 122.8)"/><circle r="1" fill="#375f96" transform="matrix(-114.38095 -6.4421 2.13202 -37.85453 74.2 0)"/><circle r="1" fill="#103350" transform="matrix(-74.77927 11.90487 -5.92377 -37.20956 68.9 136)"/><path fill="#74a0d0" d="M151 74L-11 95l10-42z"/><ellipse cx="181" cy="84" fill="#92725e" rx="71" ry="8"/><path fill="#bfe1fa" d="M257.9 53.5l11.2 29.3-78.8-11 5.1-4.6z"/><ellipse cx="39" cy="92" fill="#c8b391" rx="255" ry="5"/><circle r="1" fill="#548cc9" transform="matrix(5.96021 14.54367 -101.65727 41.66066 201.4 31.7)"/><circle r="1" fill="#547aab" transform="matrix(-17.07144 27.0296 -53.72473 -33.93165 7.7 26.4)"/><circle r="1" fill="#81a8ce" transform="rotate(165.5 42.1 46.6) scale(27.91447 11.18873)"/><circle r="1" fill="#30578d" transform="matrix(-85.95887 17.71578 -3.96762 -19.25133 118 3.6)"/><path fill="#00283e" d="M172 141l-151-7 75 25z"/><path fill="#94816f" d="M90.7 94.8l65.1-2.3 67.7-1.9-80.7-16.9z"/><path fill="#234e71" d="M30 98l189 61-17-62z"/><path fill="#88736a" d="M39 87h37v7H39z"/><path fill="#a78471" d="M187 74h31v12h-31z"/><circle r="1" fill="#5584b9" transform="rotate(169.4 54.3 32.2) scale(79.04366 9.17328)"/><path fill="#f1d8a7" d="M155 92h98v4h-98z"/><circle r="1" fill="#3d72ae" transform="rotate(-19.4 119.8 -623.6) scale(85.72469 12.23877)"/><ellipse cx="26" cy="95" fill="#e0c595" rx="127" ry="2"/><path fill="#9ec2e2" d="M204.5 59.2l-48.3 13.4L176 80l92.4-31z"/><ellipse cx="15" cy="82" fill="#83a3c5" rx="35" ry="10"/><path fill="#00314c" d="M166 133h83v3h-83z"/><path fill="#557fa9" d="M221 127h35v7h-35z"/><circle r="1" fill="#1c3c5a" transform="rotate(161.5 -1.6 65.1) scale(68.79212 22.66619)"/><path fill="#bfdff7" d="M271 79l-48-2 28-11z"/><ellipse cx="188" cy="125" fill="#386288" rx="27" ry="7"/><circle r="1" fill="#41689d" transform="rotate(-150.5 25 4) scale(36.61325 20.15991)"/><ellipse cx="116" cy="101" fill="#1f425f" rx="38" ry="5"/><path fill="#8fb4d4" d="M94 91l27-11-55 5z"/><path fill="#01263c" d="M0 135h30v8H0z"/><path fill="#3d6995" d="M271 92.6l-7.3 28.6-24.3 3.9-13-26.7z"/><ellipse cx="29" cy="93" fill="#9f917d" rx="118" ry="2"/><ellipse cx="146" cy="84" fill="#988777" rx="29" ry="9"/><path fill="#32608b" d="M174 98h82v13h-82z"/><ellipse cx="116" cy="135" fill="#31587b" rx="54" ry="2"/><circle r="1" fill="#5c90cd" transform="matrix(-1.1088 -7.00069 68.2263 -10.80598 244.3 26)"/><path fill="#2c5287" d="M103.6-16l51.7 22-55.1 13.2-25.6-5.4z"/><ellipse cx="204" cy="139" fill="#346186" rx="40" ry="4"/><circle r="1" fill="#7ba5d2" transform="matrix(-69.30114 21.45229 -1.39147 -4.4951 180.9 57.4)"/><path fill="#5980b0" d="M39 56L-8 68l-8-84z"/><circle r="1" fill="#6993c1" transform="matrix(1.38838 5.93558 -58.79286 13.75207 132.9 59.9)"/><path fill="#9d847b" d="M183 79h68v9h-68z"/><path fill="#0c3b58" d="M215 112v3l-48 1v-3z"/><circle r="1" fill="#12405f" transform="matrix(107.65291 5.2651 -.09918 2.02798 159.3 130.4)"/><ellipse cx="10" cy="109" fill="#1d4163" rx="137" ry="12"/><circle r="1" fill="#4479b9" transform="matrix(-3.1284 17.2615 -38.93577 -7.05658 242.7 0)"/><path fill="#8eb7e2" d="M185 69l86-40-6 29z"/><path fill="#35649f" d="M225 1l-56-4-56 33z"/><path fill="#dfcba0" d="M179 93h42v4h-42z"/><path fill="#547eb2" d="M-16 48.1l91.2 14.4 70.2-8.8-116.3-6.6z"/><path fill="#28496e" d="M41 146l16-9H21z"/><path fill="#6f91b7" d="M19 80l68-11-103-12z"/><path fill="#34597d" d="M124 121h19v7h-19z"/><path fill="#ecd8b0" d="M3 96h58v1H3z"/><path fill="#5985af" d="M223 120h21v2h-21z"/><path fill="#002b42" d="M97 143h92v1H97z"/><path fill="#978979" d="M105 86h68v7h-68z"/><ellipse cx="60" cy="80" fill="#81a2c3" rx="60" ry="5"/><path fill="#2b5174" d="M58 116h19v6H58z"/><circle r="1" fill="#709cd0" transform="matrix(1.678 5.39016 -57.22124 17.81352 221.8 39.1)"/><circle r="1" fill="#b49b88" transform="matrix(-.2729 1.65598 -18.94664 -3.12243 163.9 78.4)"/><path fill="#0c3651" d="M86.4 131.8l6.9-10.7 57.3 10.3-117.5-12.2z"/><circle r="1" fill="#4972a5" transform="matrix(8.25017 -8.36614 19.09104 18.82641 15.4 24.1)"/><path fill="#90847e" d="M80.7 91.2l-10.8-2.9-13.5-2.9-30.8 7.1z"/><circle r="1" fill="#1e4a6c" transform="matrix(.1106 -.99386 115.43797 12.84645 174 118)"/><ellipse cx="204" cy="79" fill="#a58878" rx="21" ry="5"/><ellipse cx="113" cy="95" fill="#feedc0" rx="14" ry="1"/><path fill="#aed1eb" d="M211 69h44v6h-44z"/><path fill="#467098" d="M190 128l2.8-.8 20.1-1.2-23.2-4.2z"/><path fill="#254f73" d="M145 98h31v26h-31z"/><ellipse cx="119" cy="97" fill="#666e6e" rx="72" ry="1"/><path fill="#8fadc8" d="M83 94l45-17-51 5z"/><path fill="#a6c8e2" d="M181 77l15-11-30 9z"/><path fill="#827571" d="M160 89l6-8-21-2z"/><path fill="#a38471" d="M241 95h15v2h-15z"/><path fill="#9f8779" d="M165 81h91v9h-91z"/><ellipse cx="18" cy="136" fill="#002536" rx="19" ry="2"/><path fill="#33587c" d="M138 132h23v7h-23z"/><path fill="#497ab1" d="M168.7 22.7l44.9-6.2-77.3 32.1-11.2-13.3z"/><path fill="#133e5c" d="M140 116l-17 4 37 7z"/><path fill="#0f344e" d="M70.3 124.7l-47.8-8.2 16.9-2.8L8.6 106z"/><path fill="#3f6991" d="M188 138h68v2h-68z"/><path fill="#0a3856" d="M184.3 125.3l-22.7-3.6.1-1 22.7 3.6z"/><circle r="1" fill="#8ea7be" transform="matrix(.28717 2.77892 -57.03732 5.89423 0 90.4)"/><path fill="#0f3f5f" d="M179 140h36v2h-36z"/><path fill="#2a4e72" d="M66 126l-26 6 13-7z"/><path fill="#a2c3e0" d="M219.3 71.5L178 76.2l37.6-14.1 55.4-3.5z"/><ellipse cx="122" cy="142" fill="#023249" rx="32" ry="4"/><path fill="#a99581" d="M158 92l32-18-5 17z"/><path fill="#4576a5" d="M265 116l3-9h-32z"/><path fill="#b09d83" d="M21 92h48v3H21z"/><path fill="#96836e" d="M120 81L99 91l18 2z"/><path fill="#7fa5cb" d="M112 66h37v9h-37z"/></g></g></svg>