<svg xmlns="http://www.w3.org/2000/svg" viewBox="0 0 1800 1200"><defs/><filter id="a"><feGaussianBlur stdDeviation="12"/></filter><rect width="100%" height="100%" fill="#5a3a42"/><g filter="url(#a)"><g fill-opacity=".5" transform="translate(3.5 3.5) scale(7.03125)"><circle r="1" fill="#d6e7c4" transform="matrix(1.85112 -58.23122 254.87125 8.10215 84.3 30.2)"/><circle r="1" fill="#9d7647" transform="matrix(150.95606 -6.202 .88972 21.6558 119.5 83)"/><circle r="1" transform="matrix(69.1258 -3.25037 .4771 10.14646 220.3 107.1)"/><ellipse cx="124" cy="147" fill="#365c58" rx="255" ry="33"/><circle r="1" fill="#a0a4a1" transform="matrix(-2.17423 36.30303 -112.23794 -6.72207 104 31.7)"/><path d="M51 115h52v12H51z"/><path fill="#000d0a" d="M232.6 93.7L166.3 104l27.3 11.7 77.4-.3z"/><ellipse cx="101" cy="93" fill="#915f40" rx="76" ry="15"/><circle r="1" fill="#828995" transform="matrix(1.00707 -15.57321 254.46855 16.45574 117 0)"/><ellipse cx="194" cy="135" fill="#5a5e5f" rx="179" ry="10"/><ellipse cx="76" cy="86" fill="#856c51" rx="245" ry="11"/><path fill="#233233" d="M-16 121.6l47.9-.9 53.1-10-101-3.2z"/><ellipse cx="79" cy="62" fill="#a19175" rx="195" ry="11"/><path fill="#d1632a" d="M127.9 99.1L59.2 103l59.7 5.1-37.8-9z"/><circle r="1" fill="#4f504d" transform="matrix(.99788 -.06509 2.08872 32.02267 79.7 46.5)"/><circle r="1" fill="#35383b" transform="matrix(2.59646 -18.24367 58.26215 8.29193 241.7 169)"/><path fill="#1e2829" d="M220.1 94.4L86.7 119.3l63.6-3.8 20.6-3z"/><ellipse cx="124" cy="33" fill="#a5a49c" rx="44" ry="27"/><circle r="1" fill="#837660" transform="matrix(-46.70365 12.16539 -3.81573 -14.6488 250 68.8)"/><circle r="1" fill="#7e8584" transform="matrix(55.97086 48.75932 -16.32126 18.73519 255 19)"/><circle r="1" fill="#faab40" transform="matrix(-7.24041 -1.3234 .1798 -.9837 91 98)"/><ellipse cx="75" cy="17" fill="#969a9c" rx="135" ry="12"/><circle r="1" fill="#58403f" transform="matrix(-31.25267 -1.61558 .38434 -7.4349 32.2 105)"/><path fill="#321e1b" d="M81 75h2v43h-2z"/><path fill="#a6a396" d="M82 0l-9 58-89-2z"/><ellipse cx="123" cy="77" fill="#a08869" rx="41" ry="7"/><path fill="#070f10" d="M227 98h29v19h-29z"/><ellipse cx="224" cy="121" fill="#282c2f" rx="36" ry="2"/><path fill="#7e674d" d="M186 84l85 16V71z"/><ellipse cx="87" cy="115" fill="#2a3134" rx="102" ry="2"/><ellipse cx="62" cy="160" fill="#4d5052" rx="80" ry="35"/><circle r="1" fill="#9c8566" transform="matrix(-1.09948 7.21024 -56.97465 -8.68798 23.8 71.5)"/><circle r="1" fill="#743a3a" transform="rotate(170 48 59.2) scale(28.87088 4.40796)"/><path fill="#ffa231" d="M77.1 101.2l.2-1 21.6 4.6-.2 1z"/><circle r="1" fill="#90948e" transform="matrix(34.83811 8.85344 -4.0231 15.83083 217.2 29.1)"/><ellipse cx="128" cy="134" fill="#5b5e5f" rx="44" ry="8"/><path fill="#060c0d" d="M177 110h79v6h-79z"/><path fill="#6f5e4a" d="M98.2 98.5L92 75.3 81.2 43l13.5 46.1z"/><path fill="#d77d37" d="M137.9 102.7l-.2 1-51.6-6.4.2-1z"/><ellipse cx="149" cy="154" fill="#34383b" rx="46" ry="2"/><ellipse cx="171" cy="97" fill="#73513e" rx="23" ry="4"/><path fill="#0f1215" d="M52 118h37v8H52z"/><ellipse cx="145" cy="51" fill="#a89d88" rx="63" ry="8"/><path fill="#978c78" d="M225.5 72.4L271 48.7l-73.3.2-70.1 26.3z"/><circle r="1" fill="#413940" transform="rotate(81.5 -14 117.8) scale(3.38041 22.12536)"/><path fill="#626465" d="M11 136h40v4H11z"/><path fill="#544243" d="M134.8 104.4l-19.4-1.2 15.3 13.5 28.2-10.9z"/><path fill="#0e1719" d="M161 106l-25 7h41z"/><path fill="#565959" d="M244 165l-41 4 44 16z"/><path fill="#32363a" d="M57 140.9l36 1.2v1L57 142z"/><path fill="#474f51" d="M170 116h86v4h-86z"/><path fill="#f19b84" d="M82 112h6v2h-6z"/><path fill="#2f2a23" d="M80 55h1v22h-1z"/><ellipse cx="82" cy="101" fill="#26161e" rx="1" ry="16"/><path fill="#080c0d" d="M79 44l1 .2-1 3.9-1-.3z"/><path fill="#3c4043" d="M0 143h62v7H0z"/><ellipse cx="193" cy="159" fill="#4f5354" rx="44" ry="2"/><path fill="#151717" d="M193.6 97.2L172 111.4l3.9 2.8 85.4-16.9z"/><path fill="#77523f" d="M64.1 94.5l-.3 8-86-3 .4-8z"/><path fill="#32191e" d="M58 109h26v3H58z"/><circle r="1" fill="#7a7c7f" transform="matrix(4.1326 -9.25969 25.8626 11.54247 236.6 0)"/><circle r="1" fill="#8b8d90" transform="matrix(47.59835 -14.74258 2.85915 9.23115 9.2 8.7)"/><path fill="#673a2d" d="M104.8 112.6L92.4 81.1l10.5 37.7-1.2-13.8z"/><path fill="#2c2e32" d="M24 184l3-19-13 1z"/><path fill="#212428" d="M226.6 162.6l.1-1 26.7 3.8-.1 1z"/><path fill="#7b5943" d="M183.9 87.9L96.2 98.3l81.7 2.9 10.1 2z"/><path fill="#723b3c" d="M60 99l-18 6 42 4z"/><path fill="#535557" d="M34 161h124v5H34z"/><path fill="#a63e32" d="M85 105h29v4H85z"/><path fill="#864e3a" d="M157.4 105.9l-16.8-.2-46.7-10.4 71.6 6.3z"/><path fill="#393c3e" d="M243.6 140.9l8.5-1.7 1.7 7-37 32.5z"/><path fill="#df6c2b" d="M82 102.1v1L64 102v-1z"/><path fill="#545859" d="M31 131.9l-9.8-5.3 5.2-4.1 28.5 2.2z"/><ellipse cx="122" cy="119" fill="#3e4144" rx="18" ry="5"/><path fill="#383c3e" d="M121 143h25v4h-25z"/><path fill="#939496" d="M93-11L3 16l184-2z"/><path fill="#f78b34" d="M86.3 102.1l9.9 4.9-.5.9-9.9-4.9z"/><circle r="1" fill="#9c9787" transform="matrix(-27.0347 4.39483 -1.74548 -10.73727 201.8 47)"/><path fill="#866b50" d="M187.2 80.5l43.9 3.2-32.2 6.4-86.1 2.1z"/><path fill="#656767" d="M47 136h36v3H47z"/><path fill="#9ca09e" d="M103.3 25.8L23 37l-2.4-16.9L101 9z"/><path fill="#454844" d="M78 41V31l4 12z"/><ellipse cx="110" cy="39" fill="#a6a498" rx="31" ry="16"/><path fill="#31181e" d="M83.3 123.5h-1l.4-25h1z"/><ellipse cx="175" cy="131" fill="#575b5d" rx="32" ry="7"/><path fill="#a4927a" d="M33 56h46v14H33z"/><circle r="1" fill="#886d51" transform="matrix(32.17017 1.72971 -.25875 4.81241 22.5 84.3)"/><path fill="#26292d" d="M174 164h21v2h-21z"/><path fill="#414547" d="M171 139h36v4h-36z"/><path fill="#575b5d" d="M129.6 123.7l-22 28.6 15.6-1.6-17.7-27.7z"/><path fill="#555658" d="M101 152l-83 24 48 9z"/><ellipse cx="195" cy="156" fill="#222528" rx="17" ry="1"/><path fill="#3c4143" d="M221 122h35v6h-35z"/><ellipse cx="67" cy="100" fill="#864c39" rx="27" ry="2"/><path fill="#171a1d" d="M71 118h35v8H71z"/><path fill="#938165" d="M210.6 77.3l-67.4 3.4L208.1 65l30.8 3.1z"/><path fill="#a6947b" d="M160 70.5H90v-13h70z"/><path fill="#1e2024" d="M109.1 120.6l-42.4-6.7-20.6 10.4 27.3-1.4z"/><ellipse cx="166" cy="120" fill="#35393c" rx="61" ry="1"/><path fill="#141617" d="M197.9 114.1l72.5-13.3-45.1-6.7-65.5 13.6z"/></g></g></svg>