<svg xmlns="http://www.w3.org/2000/svg" viewBox="0 0 1800 1012"><defs/><filter id="a"><feGaussianBlur stdDeviation="12"/></filter><rect width="100%" height="100%" fill="#4d3d3b"/><g filter="url(#a)"><g fill-opacity=".5" transform="translate(3.5 3.5) scale(7.03125)"><circle r="1" fill="#fff" transform="matrix(-229.20262 -6.86735 1.09255 -36.4646 135.6 14.6)"/><circle r="1" fill="#a3d5f9" transform="matrix(-1.43753 32.0337 -185.20647 -8.31124 162.4 127.6)"/><circle r="1" fill="#e4e4d1" transform="matrix(155.28123 3.10823 -.5251 26.2333 158.7 14.7)"/><ellipse cx="97" cy="67" fill="#192116" rx="255" ry="14"/><circle r="1" fill="#868d93" transform="rotate(104.4 75.3 150) scale(20.95836 99.38166)"/><ellipse cx="10" cy="129" fill="#6f8294" rx="86" ry="35"/><path fill="#b5ae9d" d="M61.6 45.1l78.7 8.8L-16-15.6l12.1 61.7z"/><ellipse cx="66" cy="53" fill="#333432" rx="28" ry="10"/><path fill="#643a16" d="M196.7 81.8l-.4 19-29-.6.4-19z"/><path fill="#796656" d="M47 80l5 31 63-31z"/><circle r="1" fill="#889fb6" transform="matrix(1.61918 -12.19802 67.29429 8.93275 160.1 111.5)"/><path fill="#8cb5d2" d="M227 97h29v6h-29z"/><circle r="1" fill="#d2d3cc" transform="matrix(.95213 -22.63305 88.22139 3.7113 154.4 0)"/><ellipse cx="177" cy="58" fill="#45403c" rx="25" ry="9"/><ellipse cx="216" cy="80" fill="#363222" rx="44" ry="12"/><circle r="1" fill="#1b1b14" transform="matrix(.98227 -7.70169 77.51343 9.886 55.3 68.2)"/><path fill="#8f817d" d="M174.7 82.1l6.6 10.5-29.4-9.3-.6-9.8z"/><circle r="1" fill="#a6948d" transform="rotate(-13.7 344.2 -25.2) scale(6.13384 3.77176)"/><path fill="#bfb1a2" d="M96.3 51.4l-24-26.6 198.7 13-149.9 14.9z"/><ellipse cx="15" cy="124" fill="#728495" rx="57" ry="29"/><path fill="#210900" d="M82 94h37v2H82z"/><path fill="#362d1f" d="M44.2 83l-4 20.8 28.4-10L22.5 95z"/><path fill="#4d2f1b" d="M216 97h11v8h-11z"/><circle r="1" fill="#b3b0a5" transform="rotate(-159.1 5.2 8.9) scale(30.82179 27.44038)"/><path fill="#c49a78" d="M91.1 79.7l25.4 4.8-23.4.6-15.4-4.2z"/><path fill="#57524f" d="M80.6 59.2l-34-14.6 15.8-1.1 71.1 10.9z"/><path fill="#beb2a3" d="M249.3 50L187 37.2l76.2-18.6 7.8 41.7z"/><circle r="1" fill="#2a241d" transform="rotate(-132.8 49.5 20.8) scale(24.06696 6.57057)"/><path fill="#89a0b3" d="M198 96h18v21h-18z"/><ellipse cx="205" cy="91" fill="#715c4e" rx="156" ry="4"/><circle r="1" fill="#b5936d" transform="matrix(6.39673 -.5694 .14867 1.6702 124.6 84.7)"/><path fill="#545c87" d="M3 73l-8-12 21 10z"/><circle r="1" fill="#332e24" transform="rotate(28 -23.3 516.7) scale(24.36278 20.52208)"/><path fill="#00030d" d="M62 100h5v5h-5z"/><path fill="#d1b597" d="M173 91l12-3-14-2z"/><circle r="1" fill="#a59885" transform="matrix(-.33045 -2.4766 14.80532 -1.97545 218.8 50)"/><path fill="#c9976d" d="M146 83h17v5h-17z"/><path fill="#a5998e" d="M-16 37.4l65.8-2.9-5.9 14.6L29 42.7z"/><path fill="#1e2014" d="M148 92l-20-17 18-6z"/><path fill="#303332" d="M48 63l34-19-96 5z"/><ellipse cx="221" cy="142" fill="#768ca1" rx="130" ry="29"/><path fill="#e2a775" d="M51 84.6l.7 3-8.8 1.8-.6-3z"/><path fill="#6e6157" d="M175.5 60.9l-5.9-15.1 2.7-4.6-11 20.8z"/><ellipse cx="1" cy="99" fill="#909599" rx="15" ry="6"/><path fill="#9bafbe" d="M120 96h46v5h-46z"/><path fill="#232118" d="M54.7 58.6L51 85.3l-27.7-3.9L27 54.7z"/><circle r="1" fill="#65778a" transform="matrix(-.26517 -9.66008 38.00041 -1.04311 22 132.7)"/><path fill="#c9a793" d="M60 90h18v2H60z"/><path fill="#7e90a3" d="M22 121l98 2-88-26z"/><path fill="#3a2d19" d="M5 86l27-1-13 13z"/><path fill="#423b35" d="M147.9 93.4l10.2-39.5-30.8-2.4L157.2 90z"/><path fill="#d1a17d" d="M84 81h25v4H84z"/><ellipse cx="97" cy="93" fill="#302621" rx="13" ry="3"/><path fill="#1f1f18" d="M94 57l25 25-46-5z"/><path fill="#8296aa" d="M95.6 129.2L83.8 115l30.2-1.9-52.7-16.2z"/><path fill="#523c23" d="M40 89h18v11H40z"/><path fill="#b7aba0" d="M122 53L68 35h90z"/><path fill="#413835" d="M75 102l13-18-15 10z"/><path fill="#3c3531" d="M180.6 87.6l46.7-1.9L243 49l-74.4 38z"/><circle r="1" fill="#78675e" transform="matrix(-3.40679 1.45345 -3.48402 -8.16628 209.3 87.7)"/><path fill="#7b4424" d="M171 91h23v10h-23z"/><path fill="#958781" d="M210.3 42.3l9.4 10.9-37.8-9.1 16.3-2z"/><path fill="#bfb9af" d="M1-10l39 49h75z"/><path fill="#877061" d="M11 83h33v3H11z"/><circle cx="64" cy="105" r="2"/><path fill="#7c91a4" d="M253.9 111l-19.7 25.2-22-17.2 19.6-25.2z"/><path fill="#272713" d="M258 74l-46 7 50 6z"/><path fill="#2e2d31" d="M72 44h10v5H72z"/><path fill="#bdb2a5" d="M167.1 51.7l-30.4.2 56.9-11L125 33z"/><path fill="#757f8a" d="M-16 128.2l35.7-40.8-23.8 16.1L45.8 95z"/><path fill="#dea51f" d="M179 97l9 1-4 1z"/><path fill="#373433" d="M26 43l-42 25 76-15z"/><path fill="#77808f" d="M69 89h40v2H69z"/><path fill="#363430" d="M214.1 56.4l-48.6 28.1-6.8-3.5 23.4-31.8z"/><path fill="#735646" d="M151 68v-6l-20 6z"/><path fill="#27201a" d="M15 93.6l26 1.8v1l-26-1.8z"/><path fill="#413029" d="M84.6 83l-2.2 10.5-14.6-14.8L102 91z"/><path fill="#43403d" d="M92 53h41v10H92z"/><path fill="#dca16f" d="M123 82h8v3h-8z"/><path fill="#706462" d="M59 79l4 13 8-13z"/><path fill="#968c85" d="M6.8 41.9l15.1-1.4L-16 26.1l3.7 33.1z"/><path fill="#6f6265" d="M164 74l.9 7-9 1-.8-7z"/><path fill="#a58f80" d="M73 94h10v2H73z"/><path fill="#26261c" d="M153 81l-1-17-23 26z"/><path fill="#718598" d="M201 118h55v25h-55z"/><path fill="#b09184" d="M173.2 62.8l-8.6-2.6.2-1 8.6 2.6z"/><path fill="#23231b" d="M24 83l-8-29 50 23z"/><path fill="#899bab" d="M200.9 117.6l40.8-3.2-44-16.2 19.7-3.9z"/><path fill="#18100e" d="M76 84.2l-12-.4v-2l12 .4z"/><path fill="#292c2c" d="M146 54h26v5h-26z"/><path fill="#1d1209" d="M54 87h9v3h-9z"/><path fill="#886e62" d="M72 55l3-5 8 4z"/><path fill="#776555" d="M199.9 75.7l2.3-2 3.9 4.6-2.3 2z"/><path fill="#7696b3" d="M59 97h16v4H59z"/><path fill="#3c362e" d="M42 92h34v3H42z"/><ellipse cx="14" cy="73" fill="#ab8177" rx="5" ry="1"/><path fill="#c19a7f" d="M149 83h17v3h-17z"/><path fill="#b4a99b" d="M44 25l-45 7 46 14z"/><ellipse cx="164" cy="88" fill="#907c69" rx="26" ry="1"/><circle cx="219" cy="90" r="2" fill="#b79c8b"/></g></g></svg>