<svg xmlns="http://www.w3.org/2000/svg" viewBox="0 0 1800 1200"><defs/><filter id="a"><feGaussianBlur stdDeviation="12"/></filter><rect width="100%" height="100%" fill="#53392b"/><g filter="url(#a)"><g fill-opacity=".5" transform="translate(3.5 3.5) scale(7.03125)"><circle r="1" fill="#bcdee9" transform="rotate(42.8 43.3 285.2) scale(133.18073 73.91826)"/><circle r="1" fill="#86adc4" transform="matrix(47.01743 17.12372 -51.48411 141.3624 0 60)"/><circle r="1" fill="#44575b" transform="matrix(30.11968 -80.55874 58.4919 21.86923 89 76.8)"/><path fill="#a8a9a4" d="M141 51h115v66H141z"/><circle r="1" fill="#5c6062" transform="matrix(5.80563 -17.7121 113.10937 37.0747 185.3 126)"/><ellipse cx="218" cy="13" fill="#b0bbbb" rx="185" ry="11"/><path fill="#120a08" d="M136 152l2-123-31 60z"/><circle r="1" fill="#89b299" transform="matrix(-11.09251 -2.03586 5.16645 -28.14978 95.4 83.9)"/><circle r="1" fill="#8c95a1" transform="matrix(24.08142 -9.61993 26.21796 65.63102 3 70.6)"/><circle r="1" fill="#302d2a" transform="matrix(-15.60903 2.11927 -8.11517 -59.77066 53.6 69.9)"/><path fill="#ccc3b6" d="M266.9 86.1l-10.3 31-68.8-3.7-4.7-43z"/><circle r="1" fill="#f6faff" transform="matrix(-1.92404 -7.51445 43.7461 -11.201 255 0)"/><circle r="1" fill="#67798c" transform="rotate(-76.5 122.6 33.6) scale(15.89694 22.40306)"/><path fill="#64748a" d="M219 79.9l51.7 6.6.3-67.8-90.4 2.9z"/><path fill="#747974" d="M141 39h46v90h-46z"/><circle r="1" fill="#e8e4dc" transform="matrix(15.19714 22.30752 -3.19953 2.1797 203.6 65.5)"/><path fill="#2f2119" d="M81 26h62v8H81z"/><path fill="#362318" d="M116 181L45 94l87 54z"/><circle r="1" fill="#41474d" transform="matrix(-11.57304 -10.55616 40.59959 -44.51054 8 164.7)"/><path fill="#837c6c" d="M187 106l11-21 52 9z"/><path fill="#cec9bd" d="M142 95h20v11h-20z"/><path fill="#eef1ee" d="M176 12l-59-28 23 22z"/><circle r="1" fill="#fffffa" transform="matrix(.22432 -1.93878 62.22845 7.20008 245.9 114.2)"/><path fill="#2d9371" d="M228-1l-49 12-26-27z"/><ellipse cx="72" cy="7" fill="#737774" rx="60" ry="21"/><path fill="#5c4d46" d="M167.1 106.4l-23.7 40.7 61.6 16.7-35.4-75.7z"/><path fill="#bbbebb" d="M174.2 79.7l10-56.2 46.7-20.9-57.5 7.8z"/><ellipse cx="29" cy="84" fill="#434748" rx="3" ry="72"/><path fill="#fff" d="M267 113l-29-8 33-10z"/><circle r="1" fill="#705f63" transform="matrix(-4.11133 17.70045 -97.39242 -22.62157 255 139)"/><path fill="#1e1c1b" d="M48 47.7l-1-14 49-3.4 1 14z"/><path fill="#6a696e" d="M112.4 66.7l-7.9-15-52 20.9-30.9-21.5z"/><path fill="#6b8c7c" d="M71.5 59.1l56.4 51.2-2.2-25.1-30.3 26.6z"/><path fill="#56635a" d="M184.1 100.5l68 12-.2 1-68-12z"/><path fill="#282d31" d="M85-7.1l-.3 21.7 9.3 3.2 3.5-14z"/><path fill="#27191d" d="M27 181l60 4-76-49z"/><path fill="#031728" d="M83.4 122.6l5.7 17.1-24.5-12.4-36.5-6.9z"/><path fill="#eae4d7" d="M213 82h40v8h-40z"/><path fill="#151619" d="M132 32h8v101h-8z"/><path fill="#6b7676" d="M138 22h36v57h-36z"/><circle r="1" fill="#8a959b" transform="matrix(5.48095 -35.40476 16.59007 2.56828 8.3 56.5)"/><path fill="#eee8da" d="M261.7 112.5l-62.3-18.3 16.1 10.6 37.1 4.2z"/><circle r="1" fill="#542c12" transform="rotate(-115.8 99.5 53.7) scale(15.28206 53.87233)"/><path fill="#1f1c14" d="M41 85h27v27H41z"/><path fill="#4d4d3a" d="M163.5 18.3L152 9.8 62-11.4l88.3 23.9z"/><path fill="#aaaeb0" d="M176 40l15 27 65-12z"/><path fill="#4d5e6d" d="M222 69l-2 12 46-4z"/><circle r="1" fill="#626661" transform="rotate(-1.2 7627.2 -61) scale(16.23778 28.14971)"/><circle r="1" fill="#392014" transform="matrix(19.43022 -21.40715 6.68956 6.07178 206.6 167)"/><ellipse cx="225" cy="26" fill="#6c6851" rx="44" ry="4"/><path fill="#263b47" d="M112.5 130.1l-31.4-18.5 8.5-4.7 43.5-5.9z"/><path fill="#836b69" d="M91 87l21-22-18-26z"/><circle cx="146" cy="38" r="5" fill="#232523"/><circle r="1" fill="#828a8b" transform="matrix(-1.47356 9.97892 -48.92216 -7.2242 31.4 7)"/><path fill="#6e7076" d="M27 129h35v11H27z"/><path fill="#705a48" d="M82 112.4l-4.1-49.2L67 124.5 54.5 112z"/><path fill="#8e8784" d="M102.7 33.1l4 1.2 19.6 4.7-8.9 21.3z"/><path fill="#828b97" d="M0 80h29v53H0z"/><path fill="#4d5250" d="M170 29h4v99h-4z"/><path fill="#cccac1" d="M189 84l2-44 21 34z"/><path fill="#7e7669" d="M262.6 95.2l-37.3 7.1 19-1.9-34.1-11.7z"/><path fill="#6e957f" d="M113.3 96.9L82.5 70l10.2 49.2 21.7-36.1z"/><path fill="#585f65" d="M33.5 42.1l17.1-7.5 26.3-18.4L16 13.3z"/><path fill="#594c42" d="M49.6 129.1L47.5 185l15.8-40.9-42.8 16.4z"/><path fill="#96978b" d="M99.1 25.4l-.4-23.8L169 18.2l16.4 9z"/><path fill="#e6e7e0" d="M185 112l11.3-9.8 25.4 10.2.7-3.5z"/><path fill="#1f1713" d="M77 33h8v33h-8z"/><path fill="#545d64" d="M78.9 59.4L61.9 15l22.2 15.1-51.5 41.8z"/><path fill="#858c94" d="M224 45l-48 13h91z"/><path fill="#b7b7ac" d="M174 29h3v79h-3z"/><path fill="#919286" d="M192 82l22.4-4.5-10.5 24.5 6.5-5.7z"/><ellipse cx="32" cy="50" fill="#8f9294" rx="2" ry="33"/><path fill="#473327" d="M105.7 112.1V67.6l28.8-2.1-21.9 38.4z"/><ellipse cx="242" cy="169" fill="#584c4f" rx="20" ry="32"/><path fill="#2c495f" d="M76 134l26-2-9 19z"/><circle r="1" fill="#c7ced5" transform="matrix(-.34927 1.07493 -28.99095 -9.41973 156.8 11.3)"/><path fill="#9b9eae" d="M211 127l19 17-13-2z"/><path fill="#31342b" d="M133.7 44.6l-27.6 30.1 32.9.5-19.8-30z"/><path fill="#b8b2a7" d="M141 78h21v6h-21z"/><path fill="#5fae8d" d="M81 90h22v13H81z"/><path fill="#c9cac7" d="M173.6 12.8L191 41.2 175 26l11.4-5.3z"/><path fill="#4b5755" d="M181.9 117.7l-16.9 4.8-6.8-18.8 30.8.3z"/><path fill="#dfe2e5" d="M207 5h49v6h-49z"/><path fill="#6b4f44" d="M92.6 87.7l.2-17.8 18.6 2.9L77.2 58z"/><path fill="#23282a" d="M38 107h21v21H38z"/><path fill="#9ea8bb" d="M178 9l68 1-47 15z"/><path fill="#3a382e" d="M127 2L71 0l56-16z"/><path fill="#533623" d="M125 185l56-8-74-68z"/><path fill="#c3c8c9" d="M167.9 8.8L108.3-16l24.6 19.9 49.2 18.5z"/><path fill="#434140" d="M42.8 65.6l26.3 12.5-33.6 11.4-.2-78.7z"/><path fill="#828b88" d="M174 79l-22-48-11 39z"/><path fill="#fbf9ec" d="M259.8 98.2l-.7 20-9-.4.8-20z"/><path fill="#191911" d="M11 139h12l2 24z"/><path fill="#897f81" d="M183 131l55-15-43-8z"/><path fill="#7f7d74" d="M196 66h10v7h-10z"/><path fill="#576877" d="M77.7 151.3l-23.3 22.6.5-47.1L83 140.9z"/><path fill="#3e454c" d="M137 32h4v88h-4z"/><path fill="#171e23" d="M69.7 5.6L81.3-8.2l3 2.6L72.7 8.2z"/><path fill="#4d4d48" d="M-35.1 11.3l70.6 7.4-.4 4-70.6-7.4z"/><ellipse cx="29" cy="84" fill="#474a4b" rx="2" ry="69"/></g></g></svg>