<svg xmlns="http://www.w3.org/2000/svg" viewBox="0 0 1886 1258"><defs/><filter id="a"><feGaussianBlur stdDeviation="12"/></filter><rect width="100%" height="100%" fill="#655938"/><g filter="url(#a)"><g fill-opacity=".5" transform="translate(3.7 3.7) scale(7.36719)"><circle r="1" fill="#b2cbcf" transform="matrix(131.3679 -30.57027 54.98613 236.28883 119.8 97.6)"/><path fill="#c0e0ff" d="M-18.8-17.8l255-4.4.6 40-255 4.4z"/><ellipse cx="223" cy="27" fill="#102539" rx="166" ry="8"/><circle r="1" fill="#80561f" transform="matrix(26.96046 -3.33315 9.14638 73.98134 212 130.5)"/><circle r="1" fill="#5d3404" transform="rotate(-108.6 64.7 40) scale(43.44183 14.35213)"/><ellipse cx="124" cy="142" fill="#b8d1ab" rx="55" ry="53"/><ellipse cx="94" cy="44" fill="#653e29" rx="16" ry="34"/><path fill="#c5dfc3" d="M-21.3 69.5l37-1.9 5.6 108.9-37 1.9z"/><ellipse cx="221" cy="53" fill="#526773" rx="91" ry="20"/><ellipse cx="45" cy="169" fill="#d6e9c5" rx="62" ry="13"/><circle r="1" fill="#5c7686" transform="matrix(77.22408 -11.48253 2.88894 19.42914 20.6 45.5)"/><path fill="#5a2f00" d="M160.6 88.5l-26.8 3.8-2.4-16.8 26.8-3.8z"/><path fill="#3a2104" d="M100 70.8l5.5 23.5-20.8-16.7L73.5 45z"/><circle r="1" fill="#faf6fa" transform="matrix(41.0555 -.50971 .10497 8.45483 120.4 3.2)"/><path fill="#bdd3c8" d="M212 68l-14 14 61 5z"/><circle r="1" fill="#a4c5a7" transform="matrix(6.59186 7.09368 -18.40448 17.1025 194.8 130.8)"/><circle r="1" fill="#a4793f" transform="matrix(-12.19796 -32.76442 12.50515 -4.65558 32.7 127.8)"/><path fill="#634117" d="M159 104l75-15-1 25z"/><path fill="#bec6ac" d="M47.6 79.7l37.8 49.7-14.6-74.2-28.9 61.1z"/><path fill="#dda984" d="M76.4 43.9l42.1-21-20.8 22.3v21.1z"/><path fill="#c0d0ac" d="M243 85h13v85h-13z"/><path fill="#dbc1a5" d="M103 64h58v14h-58z"/><path fill="#56704f" d="M3 153.2L93.4 117l-38.6 42.2-32.1-3.3z"/><path fill="#ff925b" d="M232.6 118.6l-4.3 30.7-12.9-1.9 4.3-30.7z"/><path fill="#110808" d="M102.5 9.4l-.6-3.6 4 22.6-17.2-12.1z"/><circle r="1" fill="#678ea7" transform="rotate(-83 109.4 -77.9) scale(11.24505 56.29341)"/><path fill="#b2c3e4" d="M0 0h91v24H0z"/><path fill="#e99748" d="M197.3 98.3l33.6 8.8-25-29.9-7.1 4.9z"/><path fill="#1e351c" d="M51 111l-7 21 36-5z"/><path fill="#e0c19e" d="M245 13.7l9.5-5.5L265 26.3l-9.5 5.5z"/><circle r="1" fill="#68541f" transform="matrix(28.57368 1.20992 -.81071 19.14599 206 169)"/><ellipse cx="148" cy="55" fill="#610800" rx="5" ry="12"/><path fill="#1c0d00" d="M101 72l-9-6 18-32z"/><path fill="#dfe6ca" d="M177 185l-47-37 41 3z"/><path fill="#76a1e1" d="M223.4 17.5l-70.8 4.3L166.8-2l89.6-8.4z"/><path fill="#cfb796" d="M34.5 122.1L-16 92.6l90.6 29.2 12.8-25.3z"/><circle r="1" fill="#43341e" transform="matrix(-1.78708 9.02864 -22.12034 -4.37837 233.9 26.4)"/><path fill="#4c2a0c" d="M192 57h13v21h-13z"/><path fill="#c2d7c0" d="M184.8 71.1l4.5 15.4-22.1 6.4-4.5-15.4z"/><path fill="#230000" d="M42 112l4-35-12 23z"/><path fill="#120f12" d="M237 114l-12-33-7 6z"/><path fill="#b5c9bc" d="M30 59l-46 57 41-18z"/><path fill="#565f48" d="M242 40l-13 32 42 15z"/><path fill="#59717a" d="M0 24h91v22H0z"/><path fill="#b1dccf" d="M104 66h22v17h-22z"/><path d="M98 67l-10 5-8-18z"/><path fill="#eec295" d="M112 51H84l6 10z"/><path fill="#636f4e" d="M207.4 118.6l-29.8 3.6-3-24.8 29.8-3.6z"/><path fill="#7f4b22" d="M232.5 150.8l-11.4 25.7 13.2-63.8 12.6 31.1z"/><path fill="#fab992" d="M105.4 38.6l-5.2 7.4-12.6-3.7 3.1-12.5z"/><path fill="#c8bf91" d="M96.3 70.6h-3.2L79 108.2 98.1 78z"/><path fill="#dce7cc" d="M105.1 129.6l21.1 14.3-9.7 4.1-28.2-19.5z"/><path fill="#7a8869" d="M126 130h29v14h-29z"/><path fill="#acc5b1" d="M80 69l-32 5 27 49z"/><ellipse cx="55" cy="105" fill="#322409" rx="7" ry="8"/><path fill="#ffac7d" d="M155.9 75.6L138.5 65l5.6 1.2 15.4-8.9z"/><ellipse cx="57" cy="67" fill="#627c80" rx="27" ry="7"/><path fill="#7b562d" d="M55 85h6v27h-6z"/><path fill="#495639" d="M63.5 97.1l58.3-14.8 38.3 13.8 1.2-16.8z"/><path fill="#cfd3d5" d="M40-16l90 26-106 3z"/><path fill="#7a4524" d="M152.7 78.1l-17.4-9.6 4.5 12 11.3-9.9z"/><path fill="#b1bca2" d="M236 82h20v40h-20z"/><path fill="#ed8563" d="M29.6 119.2L16 98.2l8.4-5.4 13.6 21z"/><path fill="#5a7a8d" d="M110 26h26v39h-26z"/><path fill="#020000" d="M31 121l-9-3-2 4z"/><path fill="#99a29e" d="M88.2 38.6l-43.9 8.8 29.3 32.3L66 60.3z"/><path fill="#889e84" d="M54.5 155.2L76 162l32.4-48.5L86 125.3z"/><path fill="#9aa583" d="M207 148l1-40-52 28z"/><circle r="1" fill="#180e00" transform="matrix(2.32804 7.61467 -2.80143 .85648 232.3 96)"/><ellipse cx="30" cy="18" fill="#8ca8cb" rx="59" ry="6"/><path fill="#aec2a0" d="M237 151l-3 22 37-38z"/><ellipse cx="169" cy="22" fill="#514d26" rx="52" ry="3"/><ellipse cx="102" cy="50" fill="#060000" rx="6" ry="4"/><path fill="#372320" d="M205 141l11-22-4 25z"/><circle r="1" fill="#d79567" transform="matrix(7.22685 -21.22874 2.7857 .94833 46.5 103)"/><path fill="#f09f77" d="M143 65l-10 5 13-26z"/><path fill="#434541" d="M226.1 76.5l-22.6-13.6-21.3 21.8 28.9-11.6z"/><ellipse cx="32" cy="152" fill="#4f5933" rx="23" ry="3"/><path fill="#784914" d="M79.5 84.5l7.3 6.9.5-18.5-.2-5.6z"/><ellipse cx="151" cy="28" fill="#325d82" rx="47" ry="5"/><path fill="#311407" d="M98.9 11.6l8.5 17.8-7.7 4.9-5.4-18.6z"/><ellipse cx="250" cy="31" fill="#19160f" rx="44" ry="3"/><path fill="#d7e3c7" d="M51.8 159l12.7-8 3.7 6-12.7 8z"/><path fill="#6c3501" d="M72 49h23v3H72z"/><circle r="1" fill="#522c0e" transform="matrix(.95278 .30367 -3.35094 10.51377 157.6 74.7)"/><path fill="#5f5a4e" d="M245.9 23.6l-1.6-36.3L227 35.9l-29.6-18.1z"/><path fill="#260e00" d="M100 61h3v21h-3z"/><path fill="#0b868a" d="M189 92l6 2 5-16z"/><path fill="#4e5d4a" d="M60 129.4l-14.2 5.7 40-5.9-19.7-12.3z"/><path fill="#b3834e" d="M194.7 78.6l-10.5-18.2 5.1-3 10.5 18.2z"/><path fill="#869192" d="M122 34L95 63l53-12z"/><path fill="#120000" d="M40 83h11v3H40z"/><path fill="#672413" d="M29 78h7v21h-7z"/><path fill="#8fa48c" d="M96 165l-33-38 76 26z"/><path fill="#cf814c" d="M213 130l20-2-9 31z"/><path fill="#48261e" d="M226.4 88l-8.3 7.2-4.5-5.2 8.3-7.2z"/><path fill="#deb289" d="M209 68l-18 30 14-13z"/><path fill="#90ada7" d="M-2.3 95.3l47.9-23.2L25 61.5l-39.5 11.6z"/><path fill="#060100" d="M142 46l4-3 10 6z"/><path fill="#c3bca7" d="M81 85.7l3.1-20.5-36.4 26.1 6.1-17.5z"/></g></g></svg>