<svg xmlns="http://www.w3.org/2000/svg" viewBox="0 0 1800 1012"><defs/><filter id="a"><feGaussianBlur stdDeviation="12"/></filter><rect width="100%" height="100%" fill="#2f3d52"/><g filter="url(#a)"><g fill-opacity=".5" transform="translate(3.5 3.5) scale(7.03125)"><circle r="1" fill="#fff" transform="rotate(-11.5 302.6 -312.3) scale(255 74.35628)"/><circle r="1" fill="#fff" transform="matrix(-114.52784 10.40756 -4.36377 -48.02022 13.8 48)"/><circle r="1" fill="#495d70" transform="matrix(3.23825 28.10878 -111.52882 12.84857 162.6 105)"/><circle r="1" fill="#5a8ac1" transform="matrix(-38.55261 29.79684 -73.72107 -95.38392 198.2 .1)"/><circle r="1" fill="#415265" transform="matrix(4.36106 25.54221 -62.8646 10.73345 161 103.5)"/><circle r="1" fill="#8b9199" transform="matrix(7.0606 21.05307 -79.60856 26.69846 36.7 128.4)"/><ellipse cx="145" cy="46" fill="#a6bed7" rx="68" ry="32"/><circle r="1" fill="#eeeeed" transform="matrix(-99.20179 14.76874 -4.74861 -31.89648 3.6 67.6)"/><circle r="1" fill="#35619a" transform="matrix(-12.42025 28.36907 -104.18507 -45.61321 236.3 0)"/><ellipse cx="241" cy="80" fill="#b0b4b3" rx="26" ry="14"/><circle r="1" fill="#89a8d4" transform="matrix(-68.88706 -28.46774 9.83095 -23.78922 86.8 0)"/><path fill="#49586a" d="M115 73.8l125.6 24.1L63 94.6l18.4-16.1z"/><path fill="#354253" d="M217.7 101.1L215 76l-20.3 1.3L130.9 90z"/><ellipse cx="115" cy="120" fill="#5d6c7b" rx="34" ry="18"/><path fill="#000500" d="M122 140l57-2 21 20z"/><path fill="#688cb8" d="M190-16H66l205 81z"/><ellipse cx="56" cy="98" fill="#b4bcc2" rx="92" ry="3"/><path fill="#c0cddd" d="M78 62l94-6L-8-16z"/><path fill="#8d8f94" d="M-1.7 143l40.7-.1 15.6-28.8-59.4-.4z"/><ellipse cx="220" cy="98" fill="#687d94" rx="121" ry="3"/><circle r="1" fill="#9ba5ad" transform="matrix(.96777 9.48181 -60.1655 6.14086 180 68.2)"/><path fill="#b3b7bb" d="M0 105h76v8H0z"/><circle r="1" fill="#e8e8eb" transform="matrix(29.15429 60.30854 -25.26105 12.21167 0 31.4)"/><path fill="#4b5667" d="M0 114h84v3H0z"/><circle r="1" fill="#242d38" transform="matrix(-.00362 -2.0754 19.2522 -.0336 70.2 133)"/><path fill="#445467" d="M156.9 78l-3 18.7-16.8-2.6 3-18.8z"/><ellipse cx="227" cy="142" fill="#18272f" rx="46" ry="9"/><path fill="#333f4f" d="M199 73h12v24h-12z"/><path fill="#a1a5ab" d="M51 89l-38 69 10-67z"/><path fill="#d1d6d4" d="M98 72h71v3H98z"/><path fill="#535c6d" d="M8 128h55v2H8z"/><circle r="1" fill="#15242f" transform="matrix(.132 -2.1086 22.90855 1.43419 210 124)"/><path fill="#3b6191" d="M172.5-16l93.3 41.6 5.2-14-21.6-22.8z"/><path fill="#8ba1b7" d="M227 91l-56-67 100 39z"/><circle r="1" fill="#a1b5cd" transform="matrix(77.7475 38.8522 -4.15222 8.30904 124.4 28)"/><path fill="#939ea9" d="M143.7 72.5l-55-3.6L191 60.3l2.2 20.2z"/><path fill="#818a94" d="M41 126h76v5H41z"/><path fill="#e6e5dc" d="M118.6 61.5l14.2-9.8-10.8 1.5-58.7 16.5z"/><path fill="#3b4b5f" d="M119.5 118.8l-75-2.6v-1l75 2.6z"/><path fill="#8d98a6" d="M25 130.5l81.2-53.8-12.7-4.1-15.9 9.3z"/><circle r="1" fill="#000d12" transform="rotate(-91.7 184.8 -65.6) scale(1.63568 22.06842)"/><path fill="#495f75" d="M146 99h57v12h-57z"/><circle cx="3" cy="122" r="6" fill="#c2c1be"/><path fill="#ced5e3" d="M91 54l-68-7-34-63z"/><path fill="#123" d="M200 106h56v2h-56z"/><path fill="#435365" d="M143 77h35v17h-35z"/><path fill="#aebac2" d="M222.6 61.1l-50.4 13 14.5 5.7 8.6-17.5z"/><path fill="#151c1d" d="M99 138h22v5H99z"/><path fill="#9da8b2" d="M68 112h31v3H68z"/><path fill="#c8cac9" d="M2.7 93.3l62.8 4.4-.2 3-62.8-4.4z"/><path fill="#b3c1d4" d="M33.2 11.2l6.3-14.7 123.3 52.3-6.3 14.7z"/><path fill="#566575" d="M135.9 140.4l-51.2-32.8 82 8.4-82.5 5.7z"/><path fill="#55657a" d="M224 90h32v12h-32z"/><path fill="#a2a5a8" d="M13 138h35v3H13z"/><circle r="1" fill="#7e9bc0" transform="rotate(21.2 18.7 470.1) scale(68.08354 8.88938)"/><ellipse cx="163" cy="128" fill="#4b5b69" rx="37" ry="7"/><path fill="#d4d8d8" d="M125 73h12v5h-12z"/><path fill="#3b3c45" d="M10 137l-24 5 10-6z"/><path fill="#586371" d="M102 143l-37 4-22-17z"/><ellipse cx="8" cy="78" fill="#ece9e1" rx="41" ry="17"/><circle r="1" fill="#6486b1" transform="rotate(114.2 112.5 100.2) scale(7.61592 109.21975)"/><path fill="#77889d" d="M194 63l-31 1 18 8z"/><path fill="#6b7b8f" d="M108.3 100.5L91.2 74.9l42.4 30.7-44.3 3.7z"/><path fill="#000a15" d="M123.8 122.7l-.3-1 8.7-2.4.3 1z"/><ellipse cx="206" cy="94" fill="#2d2d35" rx="24" ry="2"/><path fill="#79848e" d="M107 136.3l-22-1.6v-1l22 1.6z"/><path fill="#303a47" d="M20 142h30v1H20z"/><ellipse cx="255" cy="66" fill="#6f788b" rx="13" ry="4"/><path fill="#d3d2cb" d="M159 57l-24 9 4-10z"/><path fill="#394a5a" d="M185 133l19-9 27 17z"/><path fill="#030a0c" d="M159 111.2l.2-1 13.8 2.6-.2 1z"/><circle r="1" fill="#92a9c9" transform="matrix(5.41883 -9.78166 80.15549 44.40448 93.4 0)"/><path fill="#a6abaf" d="M3 122h64v5H3z"/><path fill="#d9dcda" d="M58.6 91.2l2.1-29 55.9-9.9L75.7 84z"/><path fill="#717e8f" d="M87.1 73.9l28.3 3.9L58.6 96l50.5-1z"/><path fill="#3e4e60" d="M215.1 79.2l-22.8 17.4-17.5-13L204 72.1z"/><path fill="#212e3b" d="M58 132h22v4H58z"/><path fill="#b5c1c7" d="M118 72h76v4h-76z"/><path fill="#02090c" d="M200 142h55v1h-55z"/><ellipse cx="255" cy="127" fill="#132532" rx="27" ry="3"/><circle r="1" fill="#9a9da0" transform="matrix(-.12388 .9923 -51.31284 -6.40609 14 136.6)"/><ellipse cx="75" cy="105" fill="#9aa6b2" rx="24" ry="2"/><path fill="#4c505e" d="M27 113l-6 2-4-3z"/><path fill="#93a0ab" d="M226 93l26-34-39 13z"/><path fill="#535866" d="M26 128.5l24-2v1l-24 2z"/><path fill="#8b96a1" d="M106 64h22v7h-22z"/><path fill="#8a939d" d="M74.1 95.9l-.9-8.1-42.5 5.6-9.2 1.8z"/><path fill="#b5b6b6" d="M40 108l-53-13 14 18z"/><path fill="#6e7886" d="M59.9 113.1l-29.3 14.6 28-6.8-15.7-10.1z"/><path fill="#aeacab" d="M0 140h21v2H0z"/><ellipse cx="135" cy="97" fill="#7d8b9a" rx="34" ry="2"/><path fill="#959da8" d="M45.1 121.2l-19-22.7 65.7 15.2-71.5-1.6z"/><ellipse cx="189" cy="121" fill="#2b3b4b" rx="41" ry="2"/><path fill="#56667b" d="M110 79h36v12h-36z"/><circle r="1" fill="#5176a4" transform="matrix(-2.44726 6.97416 -37.95103 -13.31717 224.8 11.2)"/><path fill="#435363" d="M146.1 94.6l26.7 46.5 13.3-1.1-24.2-8.6z"/><path fill="#9ba1a8" d="M45.1 131.8L86.9 118l-31.1 8.7-45.2 9.8z"/><path fill="#1f3040" d="M212.8 104.7l11.1-2 8-1.1-4.3 6.6z"/><path fill="#495d71" d="M189.5 109.1l-9.4 23.7-9.7-33.5 53.5 1.2z"/><path fill="#7c8a9a" d="M106 98.4l-35 1.8 30.5 8.5L134.8 95z"/></g></g></svg>