<svg xmlns="http://www.w3.org/2000/svg" viewBox="0 0 1800 1200"><defs/><filter id="a"><feGaussianBlur stdDeviation="12"/></filter><rect width="100%" height="100%" fill="#4f413d"/><g filter="url(#a)"><g fill-opacity=".5" transform="translate(3.5 3.5) scale(7.03125)"><ellipse cx="116" cy="67" fill="#bfd7dd" rx="245" ry="118"/><circle r="1" fill="#c0d6f1" transform="matrix(-1.177 -34.92904 96.46487 -3.25058 186.4 29.5)"/><circle r="1" fill="#2d1f10" transform="matrix(-.37269 -15.9704 122.7227 -2.86386 182 83.8)"/><path fill="#003160" d="M102 41.6L91.2 88.4 22 72.4l10.8-46.8z"/><path fill="#c9dee8" d="M26.5 7.5v75h-53v-75z"/><ellipse cx="255" cy="136" fill="#8b7355" rx="147" ry="32"/><circle r="1" fill="#c3b096" transform="rotate(-95.6 91.4 23.2) scale(15.61677 104.37782)"/><circle r="1" fill="#7ba3cd" transform="matrix(112.33464 22.20108 -5.62163 28.44474 58.5 1)"/><path fill="#1a363f" d="M0 93h122v7H0z"/><circle r="1" fill="#a3adae" transform="matrix(-1.44347 -8.86183 33.06405 -5.38569 55.6 78)"/><circle r="1" fill="#084972" transform="rotate(-151.6 46.4 15.9) scale(23.79189 16.61898)"/><circle r="1" fill="#c4c1c1" transform="matrix(-58.5895 .01364 -.00486 -20.89962 220.4 47.6)"/><ellipse cx="160" cy="133" fill="#ccc0a2" rx="31" ry="9"/><path fill="#a69482" d="M-16 115l81 70 159-23z"/><path fill="#074262" d="M27 28h31v38H27z"/><path fill="#bcb8a0" d="M169.3 79.3l4.5-2.1 46.2 9.6-7.8-12.9z"/><ellipse cx="142" cy="45" fill="#aab8c6" rx="36" ry="27"/><path fill="#533f29" d="M102.2 138.2l35.7-8.1-68.3.6 23.4 7.8z"/><circle r="1" fill="#86786a" transform="matrix(-33.35407 -42.19746 30.36696 -24.0029 19.4 169)"/><ellipse cx="173" cy="145" fill="#3a3023" rx="31" ry="4"/><path fill="#4e4439" d="M166 63h31v39h-31z"/><path fill="#635c51" d="M188.4 127.6l74.1-22.6-31.4 80 39.9-44.8z"/><path fill="#322c29" d="M99 72l34-5 20 14z"/><ellipse cx="28" cy="101" fill="#1b6476" rx="34" ry="3"/><path fill="#88a0ba" d="M-9 11L189-4l-69 51z"/><circle r="1" fill="#665c50" transform="matrix(1.12575 4.2578 -46.71593 12.35152 138.4 125.3)"/><path fill="#3a332c" d="M211.1 66L271 93.5l-84.6 8.6L271 78.2z"/><path fill="#b7bdb2" d="M63 82h6v21h-6z"/><path fill="#b5aea1" d="M6 105l68 28 66-36z"/><path fill="#c9bda0" d="M172 119h42v5h-42z"/><path fill="#cacabf" d="M4 77h59v5H4z"/><path fill="#1b170c" d="M28 27h4v48h-4z"/><path fill="#57340e" d="M169 97h2v54h-2z"/><circle r="1" fill="#002d5a" transform="matrix(.29638 -3.031 26.93001 2.63329 65.4 64.5)"/><path fill="#abb9c7" d="M106.5 44.8l92.9-41.5 48.8 21.9-141.7 46.5z"/><path fill="#c8c6be" d="M130 81h14v3h-14z"/><circle r="1" fill="#edecdc" transform="rotate(-21.1 453.7 -311.9) scale(14.43585 1)"/><path fill="#9c9684" d="M212.4 79.9l2.4-6.6-45.1 4.1 5.7 5.1z"/><circle r="1" fill="#3c3735" transform="matrix(3.6755 -2.55155 2.87855 4.14653 59 91.4)"/><ellipse cx="183" cy="103" fill="#bcad93" rx="120" ry="3"/><circle cx="8" cy="62" r="20" fill="#bfc3bb"/><ellipse cx="102" cy="111" fill="#774216" rx="2" ry="17"/><ellipse cx="34" cy="59" fill="#b9b9b2" rx="1" ry="37"/><path fill="#332c1f" d="M182 126h41v3h-41z"/><circle cx="241" cy="50" r="20" fill="#b4b3b5"/><path fill="#b5bac2" d="M213.8 69.7l-27-4.7-33.2-16.5L271-9.4z"/><path fill="#6b787c" d="M20.2 63.5l86.2 28.7-44.8-12.1 56.5-5z"/><ellipse cx="147" cy="158" fill="#a39b91" rx="76" ry="8"/><path fill="#4a3f31" d="M127 120h29v4h-29z"/><path fill="#3f3a33" d="M193.3 105l41.5-20-41 7.8-44.8-22z"/><circle r="1" fill="#92a7ba" transform="rotate(26 -22 269.8) scale(24.26547 22.23123)"/><path fill="#ccc6af" d="M180.3 143l-31-2 .4-6 31 2z"/><ellipse cx="51" cy="73" fill="#184560" rx="23" ry="2"/><circle r="1" fill="#002f59" transform="matrix(.64946 -2.4905 32.24192 8.40783 59.8 34.9)"/><ellipse cx="68" cy="158" fill="#656f78" rx="2" ry="88"/><circle r="1" fill="#80776b" transform="matrix(-21.6154 -8.41126 19.16776 -49.25768 233.3 169)"/><path fill="#b1b8bf" d="M115.6 57.5l20.8 12.6 13.3.9 38.4-11.8z"/><path fill="#625c54" d="M195 136.6l-23.9 20.1 56.2-15.8-11.6 2.8z"/><path fill="#002c62" d="M88 76l11-23 5 6z"/><path fill="#7292b5" d="M198-16L29 4l90 14z"/><ellipse cx="35" cy="60" fill="#989d9e" rx="1" ry="36"/><path fill="#bcb7aa" d="M140.9 124.6l-36.3-20.8 32.8-6.9-4 37.3z"/><path fill="#948a77" d="M206 80h39v5h-39z"/><path fill="#4d453e" d="M118.4 67.6L68.7 84.8l45.8 4.5 26.6-13.4z"/><path fill="#6e8597" d="M39.1 44.2l34.4 6.7-.6 3L38.5 47z"/><path fill="#26281d" d="M237.8 91.1L271 65.9l-18.9 2.8 7.2 20.6z"/><circle cx="91" cy="58" r="5" fill="#87969c"/><path fill="#8a979c" d="M37.4 65.2l26.3 16.5-13.4-7.9 18.3-6.2z"/><path fill="#b1ac9a" d="M160.2 135.5l15 21.8-17.3-18 34.3 5z"/><path fill="#ebe7d0" d="M173.8 152.6l-.8-.6 9.2-10.6.8.6z"/><circle r="1" fill="#003560" transform="matrix(.74428 -2.9725 13.7905 3.453 87.4 51)"/><ellipse cx="64" cy="137" fill="#b4bfb8" rx="2" ry="55"/><ellipse cx="18" cy="87" fill="#8997a4" rx="37" ry="7"/><path fill="#453b2e" d="M157 140l10 11-28-4z"/><path fill="#443f3b" d="M271 90.9l-72.9-24.7-76 15.7 54.7-19.5z"/><path fill="#635744" d="M216.1 107.3l-49.5 12.3-.7-2.9 49.5-12.3z"/><circle r="1" fill="#776b5e" transform="matrix(1.23259 -23.51917 13.70057 .71802 0 162.3)"/><path fill="#438eb0" d="M27 38h2v41h-2z"/><path fill="#3f3b3b" d="M231 66l-15 1 2 17z"/><path fill="#9d9387" d="M117 84.7v-1l30 1.6v1z"/><path fill="#939ca4" d="M57 69h29v4H57z"/><path fill="#a49a8e" d="M141.8 126.5l-14.4-3.6 9.3 53-40.4-26.5z"/><circle cx="187" cy="88" r="2" fill="#dde6d2"/><path fill="#657e92" d="M39 55h19v4H39z"/><path fill="#4c2a03" d="M202.3 121.5h-1l.4-25h1z"/><path fill="#002c58" d="M91 51l-32 2 20 5z"/><ellipse cx="99" cy="133" fill="#605241" rx="24" ry="4"/><ellipse cx="24" cy="79" fill="#b1b3ad" rx="56" ry="4"/><path fill="#a59c8e" d="M96.6 138.8l-35.4 43.4 30.9-32.7-2.3-26.5z"/><path fill="#a79c85" d="M212 124l-39-4 56-16z"/><path fill="#3b342b" d="M206 118h23v2h-23z"/><path fill="#675d4c" d="M61.2 76.2l6.7-2 3 9.6-6.8 2z"/><path fill="#000f56" d="M69 74h20v1H69z"/><circle r="1" fill="#5f7b8e" transform="matrix(-35.56753 -5.76068 .15988 -.98714 70.6 42.9)"/><path fill="#796e61" d="M89.4 94.7l11.7-6.5-1-1.8L84 80.8z"/><circle r="1" fill="#8da5b7" transform="rotate(85.1 -.2 15.8) scale(13.21141 30.10927)"/><path fill="#002958" d="M38.2 39.6l56 10.9-.4 2-56-11z"/><circle r="1" fill="#417292" transform="rotate(38.1 -48 182.6) scale(1 10.99145)"/><path fill="#a9967d" d="M203 98h53v8h-53z"/><path fill="#b7ae9d" d="M74 102h28v28H74z"/></g></g></svg>