<svg xmlns="http://www.w3.org/2000/svg" viewBox="0 0 1800 1200"><defs/><filter id="a"><feGaussianBlur stdDeviation="12"/></filter><rect width="100%" height="100%" fill="#314054"/><g filter="url(#a)"><g fill-opacity=".5" transform="translate(3.5 3.5) scale(7.03125)"><circle r="1" fill="#f5e5ca" transform="rotate(179.7 98.2 48.2) scale(140.82733 57.06777)"/><circle r="1" fill="#8a7064" transform="matrix(17.92622 84.4192 -68.25234 14.49322 82.4 62.6)"/><circle r="1" fill="#d2d8ca" transform="matrix(2.60058 -34.51145 111.90358 8.43239 230.9 109.2)"/><path fill="#0c0000" d="M-35.1 121.4l146.7 31.1-8.5 40.1-146.7-31.1z"/><path fill="#ffb166" d="M119 24l5-40L55 6z"/><ellipse cx="235" cy="37" fill="#466481" rx="90" ry="27"/><circle r="1" fill="#725837" transform="rotate(7.9 -1028.8 1407.5) scale(95.69962 20.04785)"/><circle r="1" fill="#110f0b" transform="matrix(43.03908 5.25897 -1.7508 14.32843 19.6 96)"/><circle r="1" fill="#485872" transform="matrix(61.23231 -8.23373 3.33258 24.78359 79.6 67.3)"/><circle r="1" fill="#e1d8b5" transform="rotate(81.2 40.9 196) scale(18.646 52.78076)"/><circle r="1" fill="#9b8e76" transform="matrix(-.10516 7.08705 -64.67785 -.95967 58.2 124.7)"/><circle r="1" fill="#729bbc" transform="rotate(-27.8 273.4 -442.1) scale(56.58517 16.01385)"/><ellipse cx="130" cy="105" fill="#a2a09b" rx="43" ry="27"/><ellipse cx="133" cy="42" fill="#bd8d6f" rx="23" ry="11"/><circle r="1" fill="#654b44" transform="matrix(18.43698 24.02233 -60.00676 46.0548 17.1 36.5)"/><circle r="1" transform="matrix(1.56009 -11.1006 44.38085 6.23732 8.5 143.8)"/><path fill="#e3a880" d="M184 61l25 20-99 20z"/><circle r="1" fill="#3a372e" transform="rotate(84.4 -30.7 144) scale(9.86796 84.98221)"/><circle r="1" fill="#4f657c" transform="matrix(-63.65044 4.3918 -.97694 -14.15882 218.4 38.6)"/><ellipse cx="227" cy="110" fill="#b1cad1" rx="48" ry="17"/><circle r="1" fill="#bd9362" transform="matrix(.57855 -6.23655 79.54318 7.379 226 144)"/><circle r="1" fill="#495264" transform="matrix(-76.63975 -8.4611 1.75982 -15.94024 82 53.7)"/><circle r="1" fill="#edb277" transform="rotate(-1 298 -6440.8) scale(11.30699 17.0565)"/><path fill="#2b3d4d" d="M124 0h104v24H124z"/><circle r="1" fill="#6c5e4f" transform="matrix(1.93006 -8.57006 32.6711 7.35784 59 136.5)"/><circle r="1" fill="#95674c" transform="rotate(-112.8 31.6 -13.3) scale(6.05045 91.91177)"/><ellipse cx="55" cy="71" fill="#736c72" rx="116" ry="7"/><circle r="1" fill="#332a29" transform="rotate(-19.3 11.9 -70) scale(38.75478 14.24979)"/><ellipse cx="70" cy="87" fill="#666b76" rx="19" ry="26"/><path fill="#df9962" d="M106.1 85.5l58.6-12.2L174 80l-42.7 5.8z"/><circle r="1" fill="#90a1a7" transform="matrix(-56.41377 8.93506 -1.73668 -10.96497 143.4 108.7)"/><path fill="#1c1917" d="M11 76l31 25-58 21z"/><circle r="1" fill="#857474" transform="matrix(-1.61696 9.56005 -37.52537 -6.34694 145.4 56.5)"/><circle r="1" fill="#636f64" transform="rotate(-87.9 210 -45.9) scale(6.35366 59.78658)"/><path fill="#d6a176" d="M156 47.8l-4.6 6.5-19.5-14.1 4.7-6.5z"/><path d="M1 128l71 23-76-1z"/><path fill="#dfbea4" d="M177 73l-2 22 48-26z"/><circle r="1" fill="#7c6259" transform="matrix(4.69174 -6.00515 25.7924 20.15123 99.7 25.4)"/><path fill="#d4a679" d="M184.6 127.1l19.5 1.2-26.1 12.1-17.9-10.8z"/><circle r="1" fill="#60819c" transform="matrix(-9.46568 -9.41116 26.82787 -26.98328 247 52.7)"/><path fill="#615e59" d="M33.4 128.2l-49.4 1 34.5-19.5 62.7-7.2z"/><circle r="1" fill="#424e62" transform="rotate(-28.3 132.2 -136.6) scale(20.26289 27.57352)"/><path fill="#877f85" d="M102.9 90.8l29.7-5.7 27.8-.3-49.5 13.9z"/><circle r="1" fill="#393733" transform="matrix(.97632 18.3286 -55.31572 2.94653 115.7 169)"/><circle r="1" fill="#383d4b" transform="matrix(-23.6016 20.9531 -5.29024 -5.95894 11.6 47.9)"/><ellipse cx="224" cy="130" fill="#ded5b3" rx="37" ry="10"/><path fill="#000300" d="M55 148h43v5H55z"/><path fill="#4f596b" d="M142.6 38.3l1.5-16.6L167 66.9l22-50.8z"/><path fill="#8c7c70" d="M62.1 133.3l40.2 1.8-18.7-16.8-45.4-9.5z"/><circle r="1" fill="#314255" transform="rotate(114.1 66.3 56.3) scale(11.64615 26.25213)"/><path fill="#8c95a5" d="M202.2 51.8l58.3 32.1L191 68.8l-11.9-10.2z"/><path fill="#b2bba7" d="M117 119h63v11h-63z"/><circle r="1" fill="#6f5e59" transform="matrix(-43.13163 -6.3689 .77334 -5.23724 128.6 143.8)"/><ellipse cx="209" cy="154" fill="#313332" rx="206" ry="3"/><ellipse cx="112" cy="104" fill="#7f8c97" rx="47" ry="5"/><path fill="#a0b5bc" d="M153.7 121.7l-3.4-14.6 116-26.8 3.4 14.6z"/><circle r="1" fill="#181a12" transform="rotate(-14 697.8 5.7) scale(30.92518 19.22499)"/><path fill="#6e574a" d="M123 68h21v11h-21z"/><path fill="#8b7e7e" d="M89.1 91.5l26.7 1.8-37.5-19.4 63.4 2.6z"/><path fill="#2d3d4d" d="M255-16l-18.7 35.5L135.5-16l-18.8 40.9z"/><path fill="#564e43" d="M31.5 138.7l-17.8-30.3 23.6 6.3-53.3 3.1z"/><circle r="1" fill="#dea974" transform="rotate(29.4 60.1 229) scale(5.61225 22.07731)"/><circle r="1" fill="#4e4541" transform="rotate(143.5 25.5 60) scale(7.11467 3.30227)"/><ellipse cx="233" cy="149" fill="#736658" rx="67" ry="3"/><path fill="#49607a" d="M127 60L44 83l59-35z"/><circle r="1" fill="#dcb092" transform="rotate(82.8 15.3 128.2) scale(1 46.40647)"/><path fill="#9b7055" d="M90.3 17.3l-31-.6.4-24 31 .6z"/><path fill="#a9917f" d="M104.8 108.9l-58.9 18.8 46.1-2.8 26.7-.5z"/><path fill="#8c7974" d="M71 107l3-20-29-5z"/><path fill="#8c746a" d="M113 42l12-18.4 16 10.3-12 18.5z"/><circle r="1" fill="#85665d" transform="matrix(-20.52556 2.36674 -.48826 -4.23443 6 74.3)"/><circle r="1" fill="#3c4f61" transform="matrix(-1.01894 -10.0313 67.15034 -6.82088 213.4 19.4)"/><ellipse cx="225" cy="40" fill="#4c6880" rx="39" ry="8"/><path fill="#8da5b4" d="M219 74l-57 29 109-13z"/><path fill="#b08464" d="M93.4-13.8l7.1 39.1 16.3-1.2-4.2 2.4z"/><path fill="#657083" d="M55.2 87.4l63.1-4.4-62.4-12.9-30.2 9.8z"/><path fill="#222121" d="M0 79h18v38H0z"/><circle r="1" fill="#737686" transform="matrix(-20.64935 5.6999 -2.1349 -7.73423 179.2 53.9)"/><circle r="1" fill="#716b66" transform="matrix(.1038 -2.58454 62.9678 2.52905 102.6 133.4)"/><ellipse cx="254" cy="122" fill="#c8d3c7" rx="58" ry="9"/><path fill="#494140" d="M58 141h34v6H58z"/><path fill="#6d6e6d" d="M53 131l-6-24-35 17z"/><path fill="#d1bc8b" d="M203 135h53v8h-53z"/><path fill="#524f5a" d="M69.4 49.4l53.9-23.8-67.6 3.3L-16 75.4z"/><path fill="#424143" d="M68.7 116.7l-6.6-10L9.2 76.2l40.1 12.9z"/><ellipse cx="193" cy="162" fill="#525149" rx="36" ry="9"/><path fill="#887263" d="M196.3 140.5l-38.3.3-112.3-28.2 134 38.3z"/><circle r="1" fill="#b9a9a0" transform="rotate(-29 250 -313.1) scale(29.9395 2.68869)"/><path fill="#b98c71" d="M108 88.6l1 2.7-25 10.1-1-2.7z"/><path fill="#cc9e7a" d="M154 46l-9 9 2-19z"/><path fill="#a97e60" d="M178.8 70l-46.6 7.3-19.3 6.6 45.5-7.1z"/><path fill="#8e7965" d="M189.2 185l-4.8-57.1-12.5-.7 12.7 4.8z"/><ellipse cx="227" cy="53" fill="#5b7994" rx="25" ry="9"/><path fill="#98796f" d="M68 62l-1 9-9-2z"/><circle r="1" fill="#040700" transform="matrix(-7.46513 -3.15956 2.90288 -6.85868 11.3 137)"/><path fill="#957763" d="M169.3 130.6l1.8 5.6-30.2 6.3-32.7-2.1z"/><path fill="#869ba6" d="M127 100l64-7-36 15z"/><path fill="#4f453e" d="M24.7 136.7l100.7 16.7L-16 121.3v-4z"/><path fill="#ae7658" d="M58 118h16v5H58z"/><circle r="1" fill="#b5c1bd" transform="matrix(1.84043 9.40447 -33.7855 6.61174 196.2 112.8)"/></g></g></svg>