<svg xmlns="http://www.w3.org/2000/svg" viewBox="0 0 1800 1200"><defs/><filter id="a"><feGaussianBlur stdDeviation="12"/></filter><rect width="100%" height="100%" fill="#474342"/><g filter="url(#a)"><g fill-opacity=".5" transform="translate(3.5 3.5) scale(7.03125)"><circle r="1" fill="#dfe3dc" transform="rotate(129.9 44.3 50.2) scale(74.15536 145.43086)"/><circle r="1" fill="#cdd3d1" transform="matrix(-21.84797 -33.64293 84.76963 -55.05004 164 11)"/><path fill="#334248" d="M239.8 91l-59-1 1.4-75 59 1z"/><path fill="#e6e7e2" d="M89.4 80.3l-8.1 51.3-24.7-3.9 8.1-51.3z"/><circle cx="175" cy="144" r="83" fill="#797973"/><path fill="#fffffc" d="M140 137l-23-22 97-30z"/><path fill="#1c2b38" d="M4.6 30.6L1.9 45 81.6 7.8l-2.4-9.6z"/><ellipse cx="229" cy="126" fill="#b4b5b8" rx="36" ry="16"/><ellipse cx="125" cy="95" fill="#564637" rx="37" ry="14"/><circle r="1" fill="#4f5555" transform="matrix(1.26122 -17.88195 110.02994 7.76046 120.2 143.1)"/><circle r="1" fill="#283333" transform="matrix(-26.88303 6.95242 -22.20796 -85.87182 10.6 98.7)"/><circle r="1" fill="#97b3cd" transform="matrix(-2.73267 9.41004 -37.35107 -10.84675 209.4 9.4)"/><path fill="#dad6c9" d="M177.3 9.5l16 56.3 8.3-16-61.3 23.4z"/><circle r="1" fill="#1a2322" transform="matrix(-44.17807 1.98254 -.8318 -18.53559 245.7 65.5)"/><path fill="#dadbd6" d="M63 23L24 37l42 32z"/><circle r="1" fill="#bfc4c7" transform="matrix(24.59697 -11.49767 3.98705 8.5295 140.3 129.5)"/><path fill="#0b202d" d="M190 33L176 9l52 19z"/><path fill="#eae9e2" d="M132 43l-28 44-15-55z"/><path fill="#83786c" d="M112.1 27.6l31.8 27.8 6.4-.9L107.5-16z"/><path fill="#61594f" d="M151 8h13v29h-13z"/><path fill="#979eaa" d="M45.7 171.5l8.5-18.1 28 13-8.4 18.2z"/><circle r="1" fill="#262d2b" transform="matrix(29.20192 -5.6532 4.78995 24.74274 30.2 102.5)"/><circle r="1" fill="#3d230c" transform="matrix(-24.22652 6.5822 -.84664 -3.11613 167.1 72.7)"/><circle r="1" fill="#82a3cd" transform="rotate(-130.9 9 1) scale(16.02469 80.17304)"/><path fill="#f4ffff" d="M179 35.8l48.1 9.4-.1 1-48.1-9.4z"/><path fill="#d4cfca" d="M207.8 126l-13.1 17.8-13.5.9 36.5-49.3z"/><path fill="#2c201f" d="M198 118l-17 17 2-25z"/><circle r="1" fill="#938e89" transform="rotate(27.7 -233.5 210.6) scale(22.58295 8.69987)"/><path fill="#303735" d="M78 130.6l2.5-13.8 37.4 6.6-2.4 13.8z"/><path fill="#29211a" d="M81.7 79.1L76 81 64.3 44.9 70 43z"/><circle r="1" fill="#212729" transform="matrix(-10.06857 -9.6892 15.13873 -15.73147 245.4 161.9)"/><circle r="1" fill="#2a3536" transform="rotate(14.3 -566.9 639.6) scale(15.1915 21.65481)"/><path fill="#cee6f3" d="M191 11L104-2l112-14z"/><circle r="1" fill="#95a1a9" transform="rotate(25.4 -290.4 460) scale(12.81929 15.83303)"/><path fill="#4b5050" d="M261.6 108.1l-24.9 25.4-21.1-111.3 4.9-4.7z"/><circle cx="38" cy="73" r="11" fill="#b5b6b1"/><path fill="#2a302f" d="M214 119l-1 36-20 6z"/><path fill="#c5bfba" d="M227 94l-39 18 46 21z"/><circle r="1" fill="#535f6b" transform="matrix(45.73764 -2.2957 .23063 4.59492 73 13.6)"/><path fill="#d9d9d0" d="M121.2 99.6l-10.9 9.3-6.7 15.8-8.3-16.3z"/><path fill="#2a506f" d="M169.8 13.4l5.3-23.7-.1-5.7 7.2 21.3z"/><path fill="#617384" d="M257.3 21.7l-30.4 10L216.7.2l30.4-10z"/><path fill="#534f4d" d="M170.6 96l-4.8 6.2L176 51.3l27.4 36.2z"/><path fill="#3c3432" d="M170.7 96.1l-50.5 15.2-2.2-38L106.7 92z"/><path fill="#363e41" d="M45 21L27 11-4 54z"/><circle cx="131" cy="80" r="14" fill="#b38d58"/><path fill="#443b30" d="M91 127.6L86 81l5-.5 5 46.7z"/><path fill="#dddbd2" d="M160.3 11.2l-9.5 21.3-73.7 26.1 90.6-44.4z"/><ellipse cx="95" cy="48" fill="#cbc9bf" rx="19" ry="33"/><path fill="#4f5249" d="M18.3 56.7l-24.1-6.1 58.6 5.1 8.7 5.8z"/><path fill="#3a4a35" d="M89.6 57l11.8-2 1 6-11.8 2z"/><path fill="#d6dad7" d="M67 124L55 83l34 14z"/><path fill="#59574e" d="M124.1 21.6l-1.5 9.4 33.5 22.7-14.8 1.2z"/><path fill="#0c181b" d="M256 96l12-56-34-12z"/><path fill="#83838c" d="M0 160l58 25 11-15z"/><path fill="#9e9a93" d="M41 29l13 14 24-55z"/><path fill="#393e3d" d="M8 83l56 37-12-41z"/><path fill="#474a48" d="M126 96l-44 72 25 3z"/><path fill="#bacbdc" d="M36.1 8L19.3 18.9 2-8l16.8-10.9z"/><path fill="#dfe2ea" d="M185.2 140.5l49.2-29.7-3.6 14.3-40 1.8z"/><path fill="#dfe5e5" d="M61.6 39.7l-35.1 8.1 13.2 6.3L62 55.5z"/><circle cx="75" cy="14" r="5" fill="#04111b"/><path fill="#1c201f" d="M54.4 163.1L-16 73.4l2.5 47.2 78 26.7z"/><path fill="#564b3b" d="M199 96l22 20-12-3z"/><path fill="#f2f0e5" d="M169 49l-35-15 51 6z"/><ellipse cx="120" cy="29" fill="#563f31" rx="11" ry="4"/><path fill="#a7abad" d="M112.8 142.1l12.1-18.7 42.7-3.7-46.5 29.7z"/><circle r="1" fill="#d9d9d1" transform="matrix(3.0592 7.60998 -34.8505 14.00981 157.4 111.9)"/><path fill="#535252" d="M61.4 139.2L-16 156.4l1.4-12.2 105.4-24.4z"/><path fill="#2c3848" d="M37 3l26 12-14 5z"/><ellipse cx="118" cy="17" fill="#d2cec5" rx="25" ry="5"/><path fill="#c9cbc8" d="M106 101l-20-2 22-4z"/><path fill="#29302f" d="M252 48l-65 13 35 17z"/><path fill="#dcdbd5" d="M127.8 31.3L91.6 49.1l79.2 9.5-35.1 10.7z"/><path fill="#e6f1ff" d="M164 165l14 15-39-5z"/><path fill="#c2c1c4" d="M231 140l-8 6-15-14z"/><path fill="#d4d4cf" d="M191 38l-18-27-17 8z"/><path fill="#c6cacd" d="M181 54h23v5h-23z"/><path fill="#53514b" d="M76.3 28.4l7.3-1.9-8.6-3.7-11.1 7.4z"/><path fill="#afa79d" d="M82.6 142.2l15.3 14.7-19.5-29.8-13-30.1z"/><path fill="#39484a" d="M186.3 11.6l-.5 11.2-.7 25.6 11.1-37.2z"/><path fill="#d0d1cd" d="M70 70V58l-22 8z"/><path fill="#bdb9af" d="M33 28h78v9H33z"/><circle r="1" fill="#595d64" transform="rotate(-117.8 7.5 11) scale(46.64322 10.05432)"/><path fill="#818382" d="M268.2 133L242 146.7l-13.1 13.8-4.2-26z"/><path fill="#5c5756" d="M188.5 108l56.5 77-47-63-31.9.7z"/><path fill="#525b4d" d="M51 55l-12 2 14 21z"/><path fill="#a59e94" d="M161 121l53-42 1 20z"/><path fill="#aab1b7" d="M110-11v22H80v-22z"/><path fill="#323537" d="M227.9 78.4l-22 7.4-31.9 9.7 16.7-10.2z"/><ellipse cx="152" cy="18" fill="#4e463d" rx="6" ry="4"/><path fill="#7f898f" d="M81 8h94v5H81z"/><path fill="#c3bfb6" d="M107.8 19.2l-39.9 6.7-9.2 2.7 2.9-10.2z"/><path fill="#b5babb" d="M48.6 130.5l-1.9-3.5 18.7-9.5 1.9 3.5z"/><path fill="#868e8e" d="M205 40l10-9 14 19z"/><path fill="#d3d0c5" d="M94 109h15v12H94z"/><path fill="#736862" d="M209 163.6l-29.2-34.5-54 24.2 2-14z"/><path fill="#7a8295" d="M-16 116.2L.9 144l30.3-9.7-42 7.3z"/><path fill="#71766e" d="M252.1 138.3l10.6-44.1-47.2-3.8 46.1 19.6z"/><path fill="#998e80" d="M117 76l23-23-4-19z"/></g></g></svg>