<svg xmlns="http://www.w3.org/2000/svg" viewBox="0 0 1800 1200"><defs/><filter id="a"><feGaussianBlur stdDeviation="12"/></filter><rect width="100%" height="100%" fill="#3e565e"/><g filter="url(#a)"><g fill-opacity=".5" transform="translate(3.5 3.5) scale(7.03125)"><circle r="1" fill="#ebd8ce" transform="matrix(147.68575 -27.73183 39.68479 211.34122 141.5 56.6)"/><ellipse cx="63" cy="94" fill="#595c65" rx="255" ry="22"/><circle cx="79" r="64" fill="#c8cdcc"/><path fill="#e8d9cb" d="M163 115l-109-2 197 72z"/><circle r="1" fill="#e5e3e1" transform="matrix(-9.73106 -22.2868 35.44232 -15.47515 242.2 148.4)"/><circle r="1" fill="#646269" transform="matrix(-27.17274 20.56672 -37.70516 -49.81605 28.7 150.1)"/><circle r="1" fill="#173c2b" transform="matrix(8.86527 3.78136 -12.29284 28.82017 207.7 55.4)"/><ellipse cx="187" cy="38" fill="#fff" rx="6" ry="65"/><path fill="#76472a" d="M174 146l61-25-45-27z"/><circle r="1" fill="#6e3f24" transform="matrix(-9.52985 -4.15034 12.85276 -29.512 119.2 111.3)"/><path fill="#0c2a1e" d="M182.5 18.4l-2 26.7L174 58l-10.9-35.3z"/><path fill="#daeaf3" d="M165.9 67.4l-16.4 5.4-41.3-12L170.9 45z"/><path fill="#e2e3e0" d="M116 103l-31 38-19-25z"/><path fill="#1d6f74" d="M211.9 46.3l-3.4-11.5 59.6-17.1 3.4 11.5z"/><circle r="1" fill="#bdc6cb" transform="rotate(53.6 115.3 228.3) scale(26.42938 28.66547)"/><circle r="1" fill="#d5d5ce" transform="matrix(-16.38869 -12.30724 17.28972 -23.02352 153 129)"/><path fill="#d6d8d1" d="M178.1 25.3l3.8 5.8-3.9 75.8 14.5-7.2z"/><circle r="1" fill="#afb4b3" transform="rotate(68.4 11.7 64.4) scale(34.06787 109.73808)"/><path fill="#2d2719" d="M188.3 74l7.3-5.4 15.3-15.8.9 31.5z"/><ellipse cx="246" cy="67" fill="#e9e9de" rx="31" ry="6"/><path fill="#442e22" d="M125.9 68.1l-13.1-2.4 4.6 40.4 12.9-5.3z"/><path fill="#161a1a" d="M271 102.2l-23.8-24.3-8.9 12.9 30 9.3z"/><path fill="#c5bca6" d="M98 74h17v29H98z"/><circle r="1" fill="#627185" transform="rotate(141.9 -11.7 67) scale(99.68836 26.01663)"/><path fill="#6a6059" d="M113.3 117.1l71.4-13.9 8.4-10.8-3.8 21.6z"/><path fill="#b0b0ad" d="M208 87l40-10-26 33z"/><ellipse cx="155" cy="169" fill="#6d635a" rx="44" ry="9"/><circle r="1" fill="#8b7b6a" transform="rotate(-98.9 97.9 50.8) scale(14.13992 61.79462)"/><circle r="1" fill="#2e544d" transform="matrix(-7.73283 -37.54344 2.29168 -.47202 165.4 21.9)"/><path fill="#373835" d="M156.1 86.5l-5 9.6 28-3.5-3.2-10z"/><path fill="#170000" d="M233 57h12v6h-12z"/><path fill="#7f5c44" d="M197 39h7v116h-7z"/><path fill="#040201" d="M128 94l-14 1 21 19z"/><path fill="#d3d2c8" d="M183 101l7-16-36 21z"/><ellipse cx="51" cy="157" fill="#aaa89c" rx="36" ry="5"/><path fill="#a5826c" d="M128 101l-25 5 31 15z"/><path fill="#3f2e25" d="M176 98l10 27 8-2z"/><circle cx="125" cy="20" r="33" fill="#b7b7ab"/><circle r="1" fill="#99a0ac" transform="matrix(24.75138 -64.09954 28.5303 11.01669 18 7.8)"/><path fill="#b4bfd2" d="M271 19l-44 31 36-3z"/><circle r="1" fill="#d6d3cb" transform="matrix(16.56884 5.60824 -4.30401 12.71565 134.3 134.3)"/><circle r="1" fill="#d1d2d7" transform="matrix(56.62708 -18.45404 .77702 2.38431 104.2 165.2)"/><path fill="#4d4239" d="M175.6 60.8l-2-.2 10.8-87.4 2 .2z"/><path fill="#d09a79" d="M118 83h9v11h-9z"/><path fill="#3e6a7d" d="M70 67L-1 82l35 4z"/><path fill="#cdccc6" d="M181.5 100.2l14.9-74.4-1 46.7-17.6-26.7z"/><path fill="#bbb9b4" d="M268.2 39.6l-45.4 59.3 48.2 36.5-46.6-24.6z"/><path fill="#638d89" d="M238 43l-18 16-18-20 17.8-16z"/><path fill="#a68c7a" d="M210.9 137.8l-14.5-9.6-32.6 17.7 41.3 1.6z"/><path fill="#a1a1a2" d="M231.1 127l7.1 13-14.9-1.4-9.4-19.9z"/><path fill="#c8caca" d="M86 124l24-17-67 13z"/><path fill="#cbd0d4" d="M188 71l-68-7 42-15z"/><circle r="1" fill="#355b5f" transform="rotate(81.1 78.9 158.3) scale(1.59785 33.87433)"/><path fill="#363228" d="M70 163l-22 4 6-8z"/><path fill="#8c9a94" d="M74 57h42v19H74z"/><ellipse cx="236" cy="122" fill="#262e35" rx="10" ry="2"/><path fill="#70442d" d="M214.1 125.2l-16.7-9.8 6.4 15.1 17.7 6z"/><path fill="#545d6a" d="M29 104l-45 28 105-23z"/><path fill="#646671" d="M8 156l-13-27 89 9z"/><path fill="#2e190d" d="M205 65l6 20-20-12z"/><circle cx="219" cy="50" r="4" fill="#eee0d1"/><path fill="#cbcccd" d="M243 118h13v52h-13z"/><path fill="#886757" d="M106.1 139.8l-22.4 22.8 16.7-33 46.5-46.8z"/><path fill="#707a7e" d="M235 95.1l24.5 15.2-16.3 8.9-48.5-65.4z"/><path fill="#94b2e1" d="M178.5 15l-13-1 2-29 13 1z"/><path fill="#376c72" d="M227 48l44-28-35 5z"/><path fill="#705b45" d="M193 31.3l7-33.2 3 .6-7 33.2z"/><path fill="#cccdc9" d="M181.7 132.9l-2.6-10.3-45.2-10.7 40.7 29.6z"/><path fill="#5d4437" d="M121.5 70l-12.1 52.6-3-.6 12.2-52.6z"/><path fill="#2f6d64" d="M99.3 62.9l68.8-18.3L41.2 74.8l31.4-5.9z"/><path fill="#857c73" d="M118.2 140.1l25 10.8-47.9 13.8-17.2 19.2z"/><path fill="#c4c3bf" d="M218.1 124.1l36.5 60.9-60.8-23.8 42.2-35.7z"/><path fill="#d8d9d2" d="M197.2-2.1L187.8-16 181-8.2l7.1 73.6z"/><circle r="1" fill="#cfd2ce" transform="rotate(103.5 26.4 144.8) scale(5.37041 37.00945)"/><circle cx="179" cy="109" r="4" fill="#010f1d"/><circle r="1" fill="#131518" transform="matrix(.13452 -.99091 3.95313 .53666 233.2 137.4)"/><path fill="#bcbcbd" d="M72.4 112.7l39 7.5-63.2 5.8 12.3 10.8z"/><path fill="#aaaea7" d="M133.4 103.5l1.2 8.4-3.1 14.5 20.4-42.1z"/><path fill="#463e39" d="M-6 150.6l-10-20.9v33.8l39.5-8.7z"/><path fill="#b5b7b4" d="M194.3 130.1l4.2 12.4-3 22.1-10-20.8z"/><path fill="#02060a" d="M127.9 102.9l2.8-13-11.5 8.2-5.1 4.2z"/><path fill="#676865" d="M209 73h32v8h-32z"/><path fill="#bbc5c9" d="M215 63l18-9 1 8z"/><circle r="1" fill="#65748d" transform="matrix(-50.33537 7.55677 -2.41761 -16.10365 43.8 93.1)"/><path fill="#4e5d6d" d="M129 76h50v11h-50z"/><path fill="#7d726c" d="M192 112l-1-37 42 38z"/><ellipse cx="208" cy="55" fill="#1a5c57" rx="6" ry="16"/><path fill="#936950" d="M180.7 146.6l19.6-40.2 19.2 14-56 24.5z"/><path fill="#dcd9d1" d="M89 136v-25l-18 25z"/><path fill="#c6c3be" d="M208 136h22v34h-22z"/><path fill="#75482f" d="M199 139h5v15h-5z"/><path fill="#afa493" d="M125 138l-6-9-26 27z"/><ellipse cx="225" cy="33" fill="#a3a69e" rx="2" ry="22"/><path fill="#444448" d="M159 116l14-3 8-10z"/><circle r="1" fill="#224d48" transform="matrix(1.16904 6.36958 -3.05305 .56034 163.5 13.8)"/><path fill="#a5a5a2" d="M-10.4 133.8l44.3-10.7-26.8 10.1-23.1-.6z"/><path fill="#c2c2c2" d="M271 105.8l-36.9 25.5-1.6-22 23.5 71.2z"/><path fill="#e0dcd0" d="M166 108l-18-1 11-6z"/><path fill="#8c9192" d="M-16 47.9l47.1 21.2L2.6 83.3-16 76.9z"/><path fill="#a1816f" d="M101.6 143.9l6-30 30.7 4.9-24.9-14.2z"/></g></g></svg>