<svg xmlns="http://www.w3.org/2000/svg" viewBox="0 0 1200 1800"><defs/><filter id="a"><feGaussianBlur stdDeviation="12"/></filter><rect width="100%" height="100%" fill="#573d2f"/><g filter="url(#a)"><g fill-opacity=".5" transform="translate(3.5 3.5) scale(7.03125)"><path fill="azure" d="M228.8 205.3l-87.6 61.3L1.2 66.7 88.8 5.4z"/><circle cx="57" cy="124" r="33"/><ellipse cx="16" cy="69" fill="#fff" rx="119" ry="28"/><ellipse cx="88" cy="19" rx="169" ry="22"/><ellipse cx="113" cy="227" fill="#daeeee" rx="34" ry="52"/><circle r="1" fill="#fff" transform="matrix(32.31965 30.56317 -24.3885 25.7901 125.7 114.2)"/><path d="M164 132h6v124h-6z"/><circle r="1" fill="#20150c" transform="matrix(9.7919 -94.7543 42.14805 4.35558 37.8 212.7)"/><circle r="1" fill="#000404" transform="matrix(50.87337 38.30986 -12.00125 15.937 147.8 53.7)"/><ellipse cy="88" fill="#060000" rx="6" ry="84"/><path d="M82-8l26 43-75 8z"/><path fill="#faffff" d="M10 105L7 43l107-5z"/><path fill="#98c8e2" d="M88 166h75v54H88z"/><path fill="#ddeaf0" d="M87 85h59v68H87z"/><path fill="#040000" d="M165 86h5v163h-5z"/><circle cx="55" cy="117" r="26" fill="#291f19"/><circle cx="121" cy="255" r="44" fill="#c9ac91"/><path fill="#090601" d="M25 24h45v19H25z"/><path fill="#34281f" d="M0 101h73v89H0z"/><path fill="#f2f9f7" d="M144 127h22v27h-22z"/><path fill="#d7e4ef" d="M70 40h42v59H70z"/><path fill="#365964" d="M98 155h21v21H98z"/><path fill="#fff" d="M72 134h6v10h-6z"/><path fill="#e9e1dc" d="M79 211h76v11H79z"/><path fill="#cdd8e0" d="M12.3 84.5l52.8 25.2-6.4 6.8-26.8-39.1z"/><path fill="#ebf1f5" d="M22 93L4 34l81 52z"/><path fill="#d2dce3" d="M74.9 102.7l63.3-43.6-2.3 20.8 30.5 26.8z"/><circle r="1" fill="#2a221b" transform="matrix(10.6063 -16.28526 10.94815 7.13034 75 198.8)"/><circle r="1" fill="#e9eef0" transform="rotate(-141.7 29.3 32.6) scale(19.02182 30.06231)"/><circle cx="137" cy="36" r="26" fill="#0b0c07"/><path fill="#82afcd" d="M119.5 187l3.2-35.8 43.8 3.8-3.2 35.8z"/><ellipse cx="29" cy="4" fill="#4d3f2a" rx="34" ry="22"/><circle r="1" fill="#b2a491" transform="matrix(29.57229 11.17444 -11.93805 31.59314 132.5 251)"/><circle cx="94" cy="142" r="10" fill="#fafbf4"/><circle r="1" fill="#1e2124" transform="matrix(-1.16165 16.77232 -8.14675 -.56424 0 91.5)"/><path fill="#0b1213" d="M180.9 114.8l-44.4-70.3 7.3 41.6 38.1 22z"/><path fill="#2d221a" d="M-12-10.4L1.1 82.7l-1-4 8.3-32.3z"/><path fill="#86acc5" d="M73 158l28-12 5 65z"/><path fill="#281c14" d="M163 192h5v55h-5z"/><path fill="#0f1920" d="M53 109.4l-12.4-6.3 6.3-12.5 12.5 6.3z"/><path fill="#32221a" d="M77.5 97.9l10 37.5-16.3-9.4-19.7-36.5z"/><path fill="#818e8c" d="M111 111h4v45h-4z"/><path fill="#1b0a02" d="M83 142.8l2.5 3L67 161.2l-2.6-3z"/><circle cx="75" cy="42" r="5" fill="#f4f4f4"/><path fill="#150d03" d="M60.3 31.7l6.5-26.2 35 8.8-6.6 26.2z"/><ellipse cx="124" cy="157" fill="#556c87" rx="55" ry="4"/><path fill="#d6dbdf" d="M100.9 155l10.4-115.2-9.4-5.1-30 24.5z"/><ellipse cx="113" cy="192" fill="#97b7c5" rx="25" ry="19"/><circle cx="20" cy="133" r="32" fill="#35251a"/><path fill="#c7d4df" d="M128 79l13-20-55 20z"/><path fill="#dee7eb" d="M161 103l-36-40 40 81z"/><path fill="#cbcdcc" d="M77.6 211.2l-.9 4.5 2.1 11.7 86.1-24.9z"/><path fill="#2c2018" d="M73.5 177.6l17.4 4.7-6.4 24.1-17.4-4.7z"/><circle r="1" fill="#13110c" transform="matrix(-13.39054 44.07345 -21.82065 -6.62962 138.6 16.7)"/><path fill="#ecefee" d="M7.7 33.2L5 74.2l101.8-.6-94.5-27.1z"/><path fill="#422f22" d="M67 185l15 49-72 37z"/><path fill="#140e07" d="M166 118h4v89h-4z"/><circle r="1" fill="#e9f8ff" transform="rotate(-8.7 713.6 -371.4) scale(1 2.59466)"/><path fill="#070a09" d="M10 23h19v19H10z"/><path fill="#36261b" d="M26.6 102.8L-16 160.1l95.6 15.7-9-25.2z"/><path fill="#000409" d="M143.7 78.1l-9.7-7 2.3-3.2 9.7 7z"/><circle r="1" fill="#dce3e9" transform="rotate(152.9 .7 25.9) scale(1.73728 18.84466)"/><path fill="#fff" d="M74 132h3v15h-3z"/><path fill="#271f15" d="M7-16l146 7-50 46z"/><path fill="#2f1d12" d="M89.8 125.3l-9.3 3.8-8.3-20.4 9.3-3.8z"/><path fill="#dfddd8" d="M143 204h19v14h-19z"/><path fill="#dadfdd" d="M140 101h23v53h-23z"/><path fill="#181410" d="M63.9 44.9l18-19.1-8.7-18-38.3 31.3z"/><path fill="#e0ebf1" d="M56 108h8v6h-8z"/><path fill="#e5e9e9" d="M3.8 72.5l16.5 31.7 39.6-25.3-32.1-38.1z"/><path fill="#8b7a65" d="M167 216h3v20h-3z"/><path fill="#3a382a" d="M118 164.6l-14-.2v-7l14 .2z"/><path fill="#e2e5e7" d="M4.9 55.2l4.4 38.4 12.3-47.2 27.3-6z"/><path fill="#d4dadc" d="M107.3 96.4l8.8 12.1-23.4 17-8.8-12z"/><path fill="#1b435c" d="M48 120l7-13-18-9z"/><ellipse cx="168" cy="64" fill="#231e18" rx="23" ry="38"/><path fill="#b7a896" d="M86 219h78v37H86z"/><circle r="1" fill="#a0c0ce" transform="matrix(-23.53117 18.12144 -8.67714 -11.2675 140.8 187.3)"/><path fill="#e4e4de" d="M114 149l-23-28-8 28z"/><path fill="#dae0e4" d="M102 123L75 39l-3 52z"/><path fill="#35271d" d="M-16 164.7l101.7 46.2-22.9-92.3-35.4-19z"/><ellipse cx="167" cy="101" fill="#261d17" rx="4" ry="28"/><path fill="#5b452a" d="M21 9h36v13H21z"/><path fill="#9c9486" d="M92 159v10l37-2z"/><path fill="#d2dde5" d="M9 90h35v9H9z"/><path fill="#36281e" d="M-16 140.3l105.8-9.4-11.2 10.2 5.8-36.2z"/><path fill="#14110c" d="M109.9 46.8l34.2 17.4L176.7-16 130 12.4z"/><ellipse cx="81" cy="136" fill="#2d1b10" rx="3" ry="16"/><path fill="#a2c6d4" d="M95.6 206l-9-1.2 1.8-12.9 9 1.3z"/><circle r="1" fill="#291810" transform="matrix(2.789 6.39453 -7.42106 3.23673 0 49.4)"/><path fill="#d1d8dd" d="M52.5 42.9l59.1 46.6 2.8 52 3-90z"/><path fill="#97bacf" d="M82.3 180.6l29.2 11.6-24.6-29.6-12.8-7z"/><path fill="#412e22" d="M77 210l4 61-73-42z"/><path fill="#b8a896" d="M107.4 228.2l-30-3.3 35.1 30.6-38-12.9z"/><ellipse cx="3" cy="117" fill="#402e24" rx="6" ry="41"/><path fill="#949c9d" d="M111 86h2v38h-2z"/><path fill="#dadee1" d="M154.2 91.9L103.7 68l10.1 27.1-.6 23.5z"/><path fill="#6d9cb3" d="M118.4 168.9L92.1 174l18.9 7.8 11.1-.2z"/><path fill="#110d0a" d="M69 20h90v17H69z"/><path fill="#4c2f1e" d="M26 229h56v9H26z"/></g></g></svg>