<svg xmlns="http://www.w3.org/2000/svg" viewBox="0 0 1800 1800"><defs/><filter id="a"><feGaussianBlur stdDeviation="12"/></filter><rect width="100%" height="100%" fill="#474426"/><g filter="url(#a)"><g fill-opacity=".5" transform="translate(3.5 3.5) scale(7.03125)"><circle cx="87" cy="59" r="213" fill="#88a8cf"/><ellipse cx="29" cy="217" fill="#74cfff" rx="69" ry="93"/><circle r="1" fill="#2c0b05" transform="matrix(20.4448 106.16833 -23.50585 4.52651 151.5 235.3)"/><circle r="1" fill="#fff" transform="matrix(139.35053 -38.64532 1.13154 4.08018 126 1)"/><ellipse cx="196" cy="75" fill="#60593c" rx="242" ry="43"/><circle r="1" fill="#c49b5b" transform="matrix(19.36243 .27453 -.84495 59.59487 210.7 35)"/><ellipse cx="181" cy="108" fill="#050308" rx="49" ry="9"/><path fill="#f7f3ff" d="M130.8 87.9l-7 .2-2.6-76 7-.2z"/><circle r="1" fill="#5b96c8" transform="matrix(-10.40412 22.00765 -45.5203 -21.51972 197 179.6)"/><path fill="#0f1d25" d="M154 143h104l-5 27z"/><circle cx="53" cy="217" r="18" fill="#ebffff"/><circle r="1" fill="#4a86bb" transform="rotate(108.8 -16.4 108) scale(23.26375 51.2052)"/><ellipse cx="183" cy="238" fill="#2c3946" rx="90" ry="26"/><path fill="#01050a" d="M59 130.3l1.2-7 178.7 28.4-1 7z"/><circle r="1" fill="#c6a294" transform="matrix(1.0085 -7.75211 153.16066 19.9254 171.9 129.1)"/><path fill="#e2e3f4" d="M53 26h6v66h-6z"/><path fill="#fff" d="M251-16l20 36-23 10z"/><path fill="#242d3f" d="M31 77l90 30-137-6z"/><path fill="#1a150f" d="M176 181l-50 89 51-52z"/><circle r="1" fill="#675d25" transform="matrix(-13.78728 4.03421 -27.36603 -93.52586 249.4 74.8)"/><path fill="#6a473e" d="M99 189h65v37H99z"/><path fill="#d3ffff" d="M18 205h74v8H18z"/><path fill="#c9c8d1" d="M43 95h17v13H43z"/><path fill="#a9a1a1" d="M244.9 103.8l26.1 20.8-35.5-3.5-28.4-38.7z"/><circle r="1" fill="#acbac3" transform="matrix(2.9509 17.82497 -72.03905 11.92599 116.8 0)"/><circle r="1" fill="#356990" transform="matrix(5.9265 -27.882 18.8321 4.00289 240.8 187.2)"/><path fill="#c38652" d="M160 14l84 6-78 19z"/><path fill="#bbf8ff" d="M0 225h42v9H0z"/><ellipse cx="12" cy="60" fill="#a7b2c1" rx="4" ry="36"/><circle r="1" fill="#487aa2" transform="rotate(-79.7 111.6 48.5) scale(17.92096 51.28194)"/><path fill="#fff" d="M88 172.2l-.2 3-39.9-3.4.3-3z"/><path fill="#493f34" d="M53 240.2l26.2-16.8 22.6 13.2-8.5-5.2z"/><circle r="1" fill="#166088" transform="matrix(-48.37116 -3.29761 .17748 -2.60337 88.6 218.2)"/><ellipse cx="117" cy="107" fill="#dddaf4" rx="5" ry="9"/><path fill="#d5c8c0" d="M71 112.5l-.5 6-101.6-9 .6-6z"/><path fill="#ffe188" d="M224 53l-9-19-13 39z"/><circle r="1" fill="#746c5e" transform="matrix(-21.35228 14.511 -7.0723 -10.40657 18.8 255)"/><path fill="#1b72a3" d="M43 199l-59 17v-34z"/><path fill="#1f1715" d="M123.2 196l20.4-65.1 17 .5-32.1 73.8z"/><path fill="#b5cace" d="M41.6 215.2l89.5 15.1-8.3 13.3-19.1-9.7z"/><path fill="#3383b1" d="M232 207l-53-5-10 37z"/><path fill="#9d6960" d="M130.4 191.4l7.3 26.1 43.9-35-11.3 1.2z"/><path fill="azure" d="M44 219h11v28H44z"/><path fill="#3f352e" d="M183.8 120l49.3 4.2-4.2-19.4-43.3-10.5z"/><circle r="1" fill="#7598bb" transform="matrix(1.39048 -8.93299 70.38162 10.95538 220.3 170.4)"/><path fill="#d0ffff" d="M-16 214v23l39-29z"/><path fill="#2870a4" d="M49.8 175.6l17.9 3.9 35.9 21.9-24.4 6.1z"/><circle r="1" fill="#1f2631" transform="matrix(-.44145 3.026 -56.06234 -8.17861 45.8 123.6)"/><circle r="1" fill="#7e866f" transform="rotate(-43.2 194.3 -216.5) scale(14.21501 40.34625)"/><path fill="#1c2d23" d="M258.7 43.5l-3.6 25.8-19.8-2.8 3.6-25.8z"/><circle r="1" fill="#6a5349" transform="rotate(-118.8 161.7 70) scale(7.75475 116.73716)"/><path fill="#e5f3f5" d="M104 189.7l-15.7 2.5-10.3-6.6 3.2-5.8z"/><path fill="#00578d" d="M15 214h23v9H15z"/><path fill="#b29598" d="M126.7 177.9l3.1-21.7-19.5 21.5 9 23.6z"/><path fill="#6b94c0" d="M6.2 120.4l115.2 20.3-1.6 8.9L4.6 129.3z"/><path fill="#222a2a" d="M105 237l4-46-13 5z"/><path fill="#96d5f5" d="M41 167H-9l22 23z"/><ellipse cx="247" cy="85" fill="#85791d" rx="27" ry="17"/><path fill="#1a1d1e" d="M63 98h47v11H63z"/><path fill="#6e625e" d="M231.2-9.7l5.2 19.3-97.6 26.1-5.2-19.3z"/><path fill="#3f5358" d="M13 39h39v31H13z"/><ellipse cx="45" cy="179" fill="#216994" rx="63" ry="2"/><circle r="1" fill="#fff" transform="rotate(164.3 56 10.9) scale(30.94055 2.20684)"/><path fill="#07191c" d="M123 227l46 12-31 16z"/><path fill="#998478" d="M235 120l31 32-117-17z"/><ellipse cx="87" cy="49" fill="#425a5a" rx="30" ry="20"/><path fill="#416f8f" d="M271 190.2L168.4 152l-15.2-8.5 91.4 15.3z"/><path fill="#d4d6e5" d="M122 38h4v56h-4z"/><path fill="#7aa4c1" d="M147 167l77 25-17 18z"/><path fill="#797670" d="M129.3 89.3l-18.9-18.7 123.8-1.9-1.7 10.6z"/><circle r="1" fill="#f3fff9" transform="matrix(-.3098 1.8751 -23.0691 -3.81142 81.3 224.3)"/><path fill="#002c4b" d="M108.2 255l-13.7-6.1 5.3-11.9 13.7 6.1z"/><path fill="#aab6c5" d="M29.2 34.6l76.6-19.1 1 3.9-76.6 19.1z"/><path fill="#222527" d="M130 100h58v14h-58z"/><path fill="#c5f2ff" d="M28 185h34v5H28z"/><ellipse cx="83" cy="211" fill="#d6ffff" rx="13" ry="5"/><path fill="#fffffe" d="M200 175l-19-8 10-2z"/><path fill="#071c33" d="M10 102L9 78l-25 17z"/><path fill="#2585b5" d="M-16 221.7l42.6 18.1-42.6 19.6L.2 239.9z"/><path fill="#16110f" d="M142 137h9v53h-9z"/><path fill="#1b4765" d="M110.6 158.5l22 .6-53.9-12.3-43.8-8.8z"/><path fill="#4797c7" d="M84 161h40v17H84z"/><path fill="#bc7871" d="M134 155.7l-13-1.4 1-10 13 1.4z"/><circle r="1" fill="#b4b3b1" transform="matrix(5.7948 -1.53105 3.28125 12.41905 236.4 112.9)"/><circle r="1" fill="#244755" transform="matrix(-.67731 2.86524 -54.70638 -12.93204 250.1 189.7)"/><path fill="#160e06" d="M238 150h18v10h-18z"/><path fill="#bab9bc" d="M54 54h6v43h-6z"/><circle cx="26" cy="92" r="11" fill="#0f202e"/><path fill="#6c867e" d="M-16-6l57 26L94 4z"/><path fill="#c2bec4" d="M38 93l-5 4 20 1z"/><circle r="1" fill="#c9b5b9" transform="matrix(-.68302 -3.2764 5.49012 -1.1445 144 96.5)"/><path fill="#20212f" d="M176 89l22 3-1-10z"/><path fill="#bde3ff" d="M32 241.4l-1.6-4.8-35.5-16.2L45 233.7z"/><path fill="#b1adb7" d="M169 93h10v8h-10z"/><path fill="#4d753f" d="M203.1 56.9l-75.2 5.4-1.3-3.2 86.3-21z"/><path fill="#292523" d="M160.7 215l44.8 2.4-27.2-8-2.6-19.2z"/><path fill="#565c5a" d="M63.7 225.8l28.2.9L-16 255.5l85.8-20.2z"/><path fill="#1a1d28" d="M153 86h10v15h-10z"/><path fill="#94cbe3" d="M33.5 154.9l20.5.4-68.1 9.9L48.1 152z"/><path fill="#cd935c" d="M231 13l-61 12 45 17z"/></g></g></svg>