<svg xmlns="http://www.w3.org/2000/svg" viewBox="0 0 1800 1800"><defs/><filter id="a"><feGaussianBlur stdDeviation="12"/></filter><rect width="100%" height="100%" fill="#343f39"/><g filter="url(#a)"><g fill-opacity=".5" transform="translate(3.5 3.5) scale(7.03125)"><circle r="1" fill="#fffbd8" transform="matrix(-28.00471 138.88075 -178.80282 -36.05483 134.4 46.3)"/><ellipse cx="128" cy="184" fill="#7c633e" rx="255" ry="80"/><ellipse cx="141" cy="44" fill="#dfd5d8" rx="243" ry="63"/><circle r="1" fill="#ff9750" transform="matrix(-18.7894 19.43487 -22.5813 -21.83133 158.3 181.4)"/><circle r="1" fill="#c5ac73" transform="matrix(-12.98488 -5.40383 29.45517 -70.77799 41.4 187.3)"/><ellipse cx="102" cy="191" fill="#203d46" rx="27" ry="55"/><path fill="#a5c3c4" d="M172.5 173.8l15 64.4 8.4 32.8-27.6-8.5z"/><path fill="#324335" d="M225 100h31v156h-31z"/><circle cx="68" cy="140" r="20" fill="#ff9731"/><ellipse cx="36" cy="118" fill="#7f540f" rx="215" ry="10"/><circle cx="200" cy="52" r="61" fill="#ddc8ac"/><circle r="1" fill="#9b9794" transform="matrix(132.67927 35.6478 -9.751 36.29269 41.5 19.2)"/><circle cx="32" cy="81" r="31" fill="#b1d2e9"/><ellipse cx="144" cy="237" fill="#275886" rx="26" ry="27"/><ellipse cx="32" cy="255" fill="#73866d" rx="21" ry="144"/><circle r="1" fill="#be692e" transform="matrix(-1.63192 56.63502 -24.84198 -.71582 149.8 158.3)"/><circle r="1" fill="#5a6359" transform="matrix(4.9162 -23.53253 55.56662 11.60847 231.6 157.8)"/><circle r="1" fill="#ffc965" transform="matrix(10.35199 -8.08786 10.4908 13.42762 153.4 168.4)"/><circle r="1" fill="#fd8d54" transform="matrix(24.2644 39.7174 -3.96061 2.41964 95.3 254.3)"/><circle r="1" fill="#15322e" transform="matrix(-33.18907 -12.98945 9.26185 -23.66477 221.8 242.6)"/><circle r="1" fill="#b1cadf" transform="rotate(-177.4 57.3 41.3) scale(79.61558 18.87694)"/><path fill="#ffdf8b" d="M178.5 198l-9.7-8.7 22.7-25.3 9.7 8.7z"/><circle r="1" fill="#53829a" transform="matrix(-10.13638 -1.13333 2.32797 -20.821 172.5 202.8)"/><ellipse cx="15" cy="162" fill="#5a6c6f" rx="37" ry="31"/><ellipse cx="195" cy="129" fill="#efba67" rx="110" ry="3"/><circle r="1" fill="#bc9233" transform="matrix(2.98638 -12.43915 34.92867 8.38563 11.2 117.8)"/><path fill="#a8d069" d="M99 271l-81-36-20 36z"/><path fill="#22343d" d="M65 271l-17-56 31-59z"/><path fill="#433610" d="M247 94l-31 24 55 15z"/><path fill="#7a3c1e" d="M116.9 137.8l5.2 32.9 50.5-38.5-3.5 4z"/><circle r="1" fill="#6c652b" transform="matrix(1.67372 9.30215 -27.28604 4.90953 145.9 113)"/><path fill="#ffdb99" d="M188.7 248.8l-16.5 13.7 1.2 1.1 11-39.4z"/><path fill="#732b16" d="M62 104.2l10.9 13L46 139.9l-11-13z"/><circle r="1" fill="#ffdcb0" transform="rotate(-111 118.9 -41.9) scale(63.10347 8.01039)"/><path fill="#ffbd62" d="M97.7 139.6l-50.2 23.7 21.6-38.5 18.7 26.3z"/><ellipse cx="119" cy="99" fill="#c5d6db" rx="18" ry="11"/><path fill="#ffff83" d="M161.3 168.3l-17-.6.4-12 17 .6z"/><circle r="1" fill="#445950" transform="matrix(21.66116 3.8905 -8.13343 45.28452 0 208.8)"/><path fill="#9e9f95" d="M7-16l65 80-82-11z"/><path fill="#b6a88e" d="M219.6 99l3.2-30.9 65.6 7-3.2 30.8z"/><path fill="#844522" d="M190 168.2l-8 9-34-29.4 8-9z"/><circle r="1" fill="#1f3a37" transform="matrix(-22.0788 -11.6491 6.66858 -12.6391 110.4 239.6)"/><path fill="#826b53" d="M56.5 174.2l.7 36.8-32.9-51.4 60.6-1.9z"/><path fill="#fae772" d="M-16 125l7 9 35-16z"/><circle r="1" fill="#2e3936" transform="matrix(2.63577 1.96284 -12.30748 16.5269 38.2 234.7)"/><circle cx="3" cy="80" r="23" fill="#bfdae9"/><path fill="#bd6a3c" d="M74.6 192.8l17.1 67.5-22.4-37.4 6.2-25.7z"/><ellipse cx="217" cy="205" fill="#3f5249" rx="36" ry="25"/><path fill="#ffffe8" d="M127 126h11v6h-11z"/><path fill="#ffbe54" d="M77 132l-10 43-10-43z"/><path fill="#c9af75" d="M51.8 232L7.9 210l-9.9-7.7-7.7 1.8z"/><path fill="#ffcd64" d="M183.3 185.5l-3.5-10.4 18.9-6.6 3.5 10.4z"/><path fill="#d7dad0" d="M172 95h45v15h-45z"/><path fill="#363626" d="M179 114h24v10h-24z"/><circle r="1" fill="#f8e2b7" transform="rotate(-28.4 156 -496) scale(10.36985 63.32156)"/><path fill="#835f2c" d="M121.4 127.7L88 102.6l-37.3 4.7 29.8 22.4z"/><path fill="#546a6e" d="M92 133h31v18H92z"/><path fill="#d56c4a" d="M150 168h14v46h-14z"/><ellipse cx="127" cy="227" fill="#4a5e68" rx="8" ry="46"/><path fill="#a49472" d="M25.6 185.7l6.1-22 16.8 42.4L32.3 233z"/><path fill="#404548" d="M111.4 180.2l-47-11-2.8-12.2-8.6 57.1z"/><path fill="#5f6153" d="M177.2 131.1l91.7 60.8-60.2-10.7-24.3-19.4z"/><path fill="#323f49" d="M38.6 173.5l6-4.3 13.9 54.9-8-18.9z"/><circle cx="211" cy="125" r="8" fill="#ceb270"/><path fill="#98783a" d="M182 124h65v6h-65z"/><path fill="#43545f" d="M158.5 201.6l30.2 24.5-8.5 8.4-3.8-38.7z"/><path fill="#c1c273" d="M49 226l-9 21 11 24z"/><ellipse cx="2" cy="148" fill="#606e68" rx="54" ry="17"/><path fill="#c8622a" d="M70.7 127.1l15.6 8.3-38.2-17.7-.3 25.7z"/><circle r="1" fill="#a4a19f" transform="matrix(41.73923 18.5835 -4.92824 11.06902 144.5 57.2)"/><path fill="#a8adb3" d="M109.8 97.2l-92-15.5 60-.3 65.9 12.9z"/><path fill="#4f615f" d="M182 146l6 25-13 5z"/><path fill="#2e444e" d="M147 226l31 34-75-3z"/><ellipse cx="172" cy="235" fill="#d2d2b8" rx="2" ry="18"/><path fill="#4c677d" d="M122 213h48v18h-48z"/><path fill="#ed8534" d="M165 153l13 4-16-28z"/><circle r="1" fill="#c0b4a8" transform="matrix(1.54272 -16.8157 56.31674 5.16665 102.2 14.6)"/><path fill="#fdd579" d="M-16 194.7l33.1 20.4-18.8-7.6-5.5-9.9z"/><path fill="#2e4229" d="M173 125l-16-6 12-5z"/><ellipse cx="192" cy="130" fill="#ffcb7b" rx="107" ry="1"/><path fill="#a96633" d="M163.2 127.1l.3 5.9-31.2 13.3 1-16.6z"/><ellipse cx="44" cy="73" fill="#c2d4e2" rx="104" ry="6"/><path fill="#403b3e" d="M83 157l-3.9 57.2-7-54.7-3.8-1.4z"/><ellipse cx="64" cy="252" fill="#284833" rx="14" ry="26"/><circle r="1" fill="#cddad8" transform="matrix(20.41388 2.76006 -.68255 5.04823 110.5 103.5)"/><path fill="#dac8b2" d="M162.2-20.1l33.6 66-24 12.2-33.6-66z"/><path fill="#9d8868" d="M51 141l-21 18 29 26z"/><path fill="#707362" d="M177 132h79v21h-79z"/><ellipse cx="6" cy="131" fill="#ffe786" rx="36" ry="1"/><path fill="#383822" d="M253 106l16 17-65-8z"/><path fill="#b3533c" d="M149.8 188l18.5-4.7-38.4 24.7 11.3-45z"/><path fill="#afb297" d="M177.8 184.5l7.1 8.3-18.7 2.8-3-14.2z"/><path fill="#cbab83" d="M172 107h62v5h-62z"/><path fill="#b1bec6" d="M94 103l-104-4L91 48z"/><path fill="#fbbf68" d="M210.5 182.3l9.1.9-29.9-4-1.9-13.9z"/><path fill="#e8cf7e" d="M90 116h20v2H90z"/><path fill="#ded7b8" d="M180 215h-6l-2 13z"/><path fill="#ffe06a" d="M73.9 140.8l-23 2.4-.8-8 23-2.4z"/><ellipse cx="179" cy="100" fill="#dce6df" rx="37" ry="3"/><path fill="#c5895d" d="M101.8 251.3l-18-2.6-8.6-4.4 26.6 21.7z"/></g></g></svg>