<svg xmlns="http://www.w3.org/2000/svg" viewBox="0 0 3024 3024"><defs/><filter id="a"><feGaussianBlur stdDeviation="12"/></filter><rect width="100%" height="100%" fill="#3c5435"/><g filter="url(#a)"><g fill-opacity=".5" transform="translate(6 6) scale(11.8125)"><circle r="1" fill="#f1df91" transform="rotate(4.3 -282.5 3435) scale(38.04902 166.77246)"/><circle r="1" fill="#fad6f5" transform="matrix(-.7068 36.81052 -16.18152 -.3107 137.3 150)"/><circle r="1" fill="#e7f8ff" transform="rotate(82.8 66 75) scale(11.38044 81.50077)"/><circle r="1" fill="#bac861" transform="rotate(-122.8 35.2 33.6) scale(34.67085 49.85482)"/><circle r="1" fill="#10001a" transform="rotate(28.6 -264.8 221.7) scale(32.07413 99.52011)"/><path fill="#fff1d3" d="M0 240h32v16H0z"/><circle r="1" fill="#b2856a" transform="rotate(15 -845.7 960.3) scale(17.64558 69.16067)"/><ellipse cx="132" cy="38" fill="#84555c" rx="82" ry="29"/><ellipse cx="135" cy="255" fill="#c5969a" rx="98" ry="10"/><circle r="1" fill="#230c26" transform="matrix(27.99028 -2.64586 8.79318 93.02214 179.1 161.4)"/><circle cx="148" cy="90" r="27" fill="#070018"/><ellipse cx="197" cy="81" fill="#584b4c" rx="27" ry="43"/><path fill="#daccd1" d="M122 99h10v80h-10z"/><circle r="1" fill="#6c415b" transform="matrix(-17.67092 -70.91906 27.82197 -6.9324 124.5 223.3)"/><circle cx="48" cy="200" r="46" fill="#202024"/><ellipse cx="122" cy="21" fill="#fff" rx="9" ry="7"/><ellipse cx="115" cy="147" fill="#00000d" rx="8" ry="22"/><circle r="1" fill="#b6855b" transform="matrix(-67.57387 -.3597 .02845 -5.34493 108 48.7)"/><path fill="#539e94" d="M78-12l-28-4 7 68z"/><circle cx="244" r="37" fill="#b8bf83"/><ellipse cx="102" cy="234" fill="#d8a999" rx="4" ry="28"/><ellipse cx="133" fill="#cecde2" rx="47" ry="10"/><path fill="#e4fcf6" d="M140 122l10-6 4 24z"/><path fill="#b3a064" d="M208 104h21v35h-21z"/><path fill="#d9f5f8" d="M129 139.1l7.8 2-9.9 39.8-7.7-2z"/><path fill="#ffff9c" d="M229 43.8l11 88.3-1 .1L228 44z"/><path fill="#d9926b" d="M98 153h12v21H98z"/><path fill="#5e5341" d="M266 187l-64 64 15-95z"/><ellipse cx="239" cy="174" fill="#e7dbad" rx="4" ry="27"/><path fill="#fffff2" d="M4.6 206.2l-1.9 12.9-18.7 4.4v.3z"/><ellipse cx="162" cy="191" fill="#0e0f1e" rx="14" ry="44"/><path fill="#2c432b" d="M25 122L-9 66l-3 54z"/><path fill="#864437" d="M141 118.5l-18.2 5.2-5.8-20.2 18.2-5.2z"/><circle r="1" fill="#97b773" transform="matrix(6.22228 -42.80764 2.9293 .42579 196.9 9.5)"/><circle r="1" fill="#5b414f" transform="matrix(-34.17415 24.64717 -14.55899 -20.18653 19 25.9)"/><path fill="#232938" d="M109 247l38-84-31 18z"/><path fill="#333132" d="M60 56l3-40 63-7z"/><path fill="#a9c257" d="M23.5 79.7l7-30.2 38 8.8-7 30.2z"/><path fill="#ebddea" d="M78.3 12.8L125 5.3 61.1 19.4l-9.9-4.1z"/><path fill="#38472f" d="M37 96h38v82H37z"/><ellipse cx="94" cy="112" fill="#060f19" rx="18" ry="45"/><circle r="1" fill="#4e403c" transform="matrix(-.70681 17.84312 -57.15345 -2.264 171.7 234.2)"/><path fill="#8bbaff" d="M84 13l79-14-98-15z"/><ellipse cx="103" cy="248" fill="#c5b39c" rx="28" ry="4"/><path fill="#aec95a" d="M24.5 66L-5.9 36.6 11 74.7l9-6.8z"/><path fill="#dfcf96" d="M211.8 245l-21 26 53.8-27.4-20.7 27.4z"/><path fill="#ffc19b" d="M0 241h25v12H0z"/><ellipse cx="183" cy="21" fill="#12182a" rx="5" ry="36"/><circle r="1" fill="#82674d" transform="matrix(-1.15282 -47.17031 2.6422 -.06457 179.1 128)"/><path fill="#b1776b" d="M147.4 198.8l7.6-77.7-13.7 49.1-11.2 16.4z"/><path fill="#cd945c" d="M170.6 62.8l6.8-5.8-60.5 10.7 68.8-6.9z"/><path fill="#343436" d="M228.1 87.6l-10.5 11.9-10.8 8.4 6.5-43.9z"/><circle r="1" fill="#e5a970" transform="rotate(179.6 71.7 23.5) scale(36.8412 2.24411)"/><path fill="#263d19" d="M245.3 108.4l9.2 13.1-5.8 4-9.2-13z"/><path fill="#7fa253" d="M29 71l56 34-66-4z"/><path fill="#36343c" d="M97 27h66v17H97z"/><circle r="1" fill="#151527" transform="matrix(11.51878 34.21767 -7.57883 2.55128 85.4 204.6)"/><ellipse cx="164" cy="123" fill="#101a1e" rx="11" ry="61"/><path fill="#898961" d="M222 220l23-39-15-20z"/><path fill="#cbd8dc" d="M137.1 164l-16 22.4.2-23.2 7.8-44.6z"/><path fill="#cebc65" d="M199.5 108.3l19.7-3.5 1.3 7-19.7 3.4z"/><path fill="#111a21" d="M143 230l-12-42-2 53z"/><path fill="#2e332d" d="M212 234h-67l89-78z"/><circle r="1" fill="#cba669" transform="rotate(-98.5 91.5 -77.4) scale(3.32225 58.08504)"/><ellipse cy="230" fill="#30262d" rx="99" ry="11"/><ellipse cx="25" cy="177" fill="#242d27" rx="80" ry="27"/><circle r="1" fill="#eaf5d1" transform="matrix(1.43746 14.15155 -2.47703 .2516 238.5 160)"/><path fill="#969cad" d="M99 208h12v17H99z"/><path fill="#dd8" d="M256 104l-12-49-5 19z"/><path fill="#69615a" d="M175 56h36v34h-36z"/><path fill="#1a1e22" d="M171.3 61.3l-44.6 8.5 2.1 40.7 49 26.3z"/><path fill="#c6ba70" d="M224 212l6 30 9-9z"/><path fill="#ffffae" d="M258.1 62.1l-21.2-74 1-.2 21.2 74z"/><path fill="#56673e" d="M238 131.3l-5.8-37-6.2 44.5 11.6-12.4z"/><path fill="#b4674c" d="M142 211h7v36h-7z"/><path fill="#232e2d" d="M47 48h29v7H47z"/><path fill="#363d3f" d="M228-6l-33 70-2-31z"/><ellipse cx="68" cy="1" fill="#0a8e7d" rx="8" ry="12"/><path fill="#3d383c" d="M128 11h53v17h-53z"/><path fill="#644a55" d="M99.3 233.2l6.9 28.6-9.4-14.4L5 256.1z"/><path fill="#000211" d="M185.4 98.6l5.3 6.4 26-2.9-6.3-6.7z"/><ellipse cx="121" cy="106" fill="#dfbaa6" rx="4" ry="5"/><path fill="#8e5b46" d="M72 60h50v8H72z"/><path fill="#f6cf9f" d="M165 254h71v2h-71z"/><path fill="#152919" d="M33 120l17-25-6 42z"/><circle r="1" fill="#ebf0cc" transform="matrix(-17.65351 -21.10579 .76705 -.64159 220.4 11.8)"/><path fill="#90b26b" d="M48 108l8 15 1-21z"/><ellipse cx="218" cy="43" fill="#ffffa2" rx="2" ry="23"/><path fill="#484c46" d="M221 0h3v52h-3z"/><ellipse cx="127" cy="136" fill="#fcffff" rx="4" ry="14"/><path fill="#29212c" d="M184 99l32 29-12 5z"/><path fill="#634f25" d="M242 168l7-12-10-9z"/><path fill="#2f2f3d" d="M102 207.4l4.8-4.1 14.5-24 4.4-49.6z"/><path fill="#504731" d="M239.2 271l7.9-96.7 22.8-31.5-29.7 56.8z"/><path fill="#5f5c40" d="M207.3 151.3l22.9-5.9-18.6 64.6 20.1 61z"/><path fill="#e7ff43" d="M29.4 56.9l12.2-7 3 5.2-12.2 7z"/><path fill="#161d23" d="M73 80h20v152H73z"/><path fill="#a46149" d="M129.1 223.6l-.8-17.8-9.2 34.2 8.3 1.9z"/><path fill="#da242e" d="M32 111l-10 10-1-9z"/><path fill="#dbd564" d="M236.3 116.7l12.8-15-19-21.6 8.4 35.1z"/></g></g></svg>