<svg xmlns="http://www.w3.org/2000/svg" viewBox="0 0 1800 1200"><defs/><filter id="a"><feGaussianBlur stdDeviation="12"/></filter><rect width="100%" height="100%" fill="#484134"/><g filter="url(#a)"><g fill-opacity=".5" transform="translate(3.5 3.5) scale(7.03125)"><circle r="1" fill="#b8baae" transform="rotate(105.8 71.4 71.2) scale(94.21713 176.28642)"/><ellipse cx="103" cy="14" fill="#a8c2ec" rx="255" ry="22"/><circle r="1" fill="#71613a" transform="matrix(.79203 -53.54829 226.87831 3.35574 119.7 86.7)"/><ellipse cx="41" cy="133" fill="#99a8c2" rx="248" ry="2"/><path fill="#47450c" d="M113.8 99.2l97.6-6.8.1 13.5-90.2 9.7z"/><circle r="1" fill="#a58e72" transform="matrix(-.08361 -4.33126 98.70434 -1.90548 137.8 118.2)"/><path fill="#554f35" d="M69 38l79 82-164-83z"/><ellipse cx="247" cy="35" fill="#8ba5cc" rx="47" ry="7"/><circle r="1" fill="#a49071" transform="matrix(-.82344 14.72834 -27.6237 -1.5444 146 81.3)"/><path fill="#5d543c" d="M152 49l38 41 81-47z"/><circle r="1" fill="#39474c" transform="rotate(-91.9 156.9 3.1) scale(26.09785 94.7776)"/><circle r="1" fill="#ad8f6b" transform="rotate(-138.5 139.5 4.2) scale(13.74526 26.05093)"/><ellipse cx="1" cy="87" fill="#7e714e" rx="24" ry="37"/><ellipse cx="84" cy="142" fill="#424b4d" rx="255" ry="9"/><path fill="#c1a984" d="M198 119l-25-2 56-22z"/><ellipse cx="37" cy="27" fill="#8898af" rx="52" ry="11"/><circle r="1" fill="#2d3737" transform="matrix(3.30365 -17.07647 112.40505 21.74613 54.8 169)"/><ellipse cx="79" cy="87" fill="#7b704a" rx="19" ry="17"/><ellipse cx="143" cy="6" fill="#a2acb7" rx="115" ry="13"/><path fill="#5d5833" d="M191 117.3l.2-52.3-14.8 5.9 46.7 21.5z"/><path fill="#343217" d="M16 100l2 19 28 2z"/><ellipse cx="147" cy="24" fill="#8d9caf" rx="49" ry="13"/><circle r="1" fill="#dfe3ce" transform="rotate(-177 118.6 52) scale(6.1335 1.73588)"/><path fill="#e2bf9d" d="M166 112h13v7h-13z"/><path fill="#8692a5" d="M-7 45.5L4.5-16l55.9 57.6-41.1-11.7z"/><circle cx="217" cy="111" r="6" fill="#50411c"/><path fill="#7d5e46" d="M64 120h123v6H64z"/><ellipse cx="97" cy="42" fill="#6b6144" rx="39" ry="9"/><path fill="#000301" d="M79 114h10v4H79z"/><path fill="#d3c3a7" d="M150 117h52v2h-52z"/><path fill="#a08c72" d="M51 60L35 42l20 9z"/><path fill="#454432" d="M-8.5 40.4l45.7 14.5 60.4 22-77.7-17.6z"/><path fill="#716840" d="M76 91h67v10H76z"/><path fill="#363931" d="M238.8 42.9l30 7.5-1.6 6.7-30-7.5z"/><path fill="#3f2f2f" d="M150 126h106v4H150z"/><path fill="#e1e0d2" d="M65 117l7 3-12-1z"/><ellipse cx="55" cy="121" fill="#776148" rx="254" ry="2"/><path fill="#928166" d="M101 42l36 3v17z"/><path fill="#544c30" d="M266.4 112.7l-29 3.3 11.3-6.7L236 103z"/><path fill="#4c4a32" d="M84.6 69l10.3 18.7 26.2 8.9-35.3-35.7z"/><path fill="#615b39" d="M47 124L8 66l54 5z"/><circle r="1" fill="#72664c" transform="matrix(-3.4272 5.42998 -32.6738 -20.62244 211.4 55)"/><path fill="#323015" d="M127 104h20v8h-20z"/><path fill="#909eae" d="M278.9 35l-2 12.8L171 31l2-12.9z"/><path fill="#20211f" d="M58 134h51v1H58z"/><path fill="#baa990" d="M183.6 116.8l42.7-4.5.1 1-42.7 4.4z"/><path fill="#8b7956" d="M209 72h32v20h-32z"/><path fill="#62573f" d="M148 60l-46 1-10 16z"/><ellipse cx="113" cy="133" fill="#9fa2a6" rx="169" ry="1"/><path fill="#968669" d="M172.3 95.5l11-6.2-43.7-30-17.9 24.6z"/><path fill="#6a623a" d="M210.6 119.6l-1.1 15.1-14.7-48-8.3 25.7z"/><ellipse cx="110" cy="131" fill="#575c6a" rx="145" ry="1"/><path fill="#7b6f4e" d="M115 110L81 67l-31 2z"/><path fill="#84744d" d="M-3.5 89.1l9 14 27.7-5.4-20.8-11.4z"/><path fill="#70654c" d="M216 38l55 43-146-43z"/><circle cx="1" cy="113" r="3" fill="#dbb799"/><path fill="#fcffff" d="M59.6 118.7l4.4-2.3.4.9-4.4 2.3z"/><path fill="#775c44" d="M236.8 124.1l2.7-11.9-22.8 3.8-42.6 7.8z"/><path fill="#474737" d="M38.8 71.6L-16 33.3v17.2l30.9-16.1z"/><path fill="#84735a" d="M162 110l14 10-20-4z"/><path fill="#48423e" d="M-16 134.1l93.9 36-82.7-44.7 127.4 4.4z"/><path fill="#545025" d="M192 108l-45 4 34-21z"/><circle r="1" fill="#b99f7e" transform="rotate(-25.9 348.8 -394.5) scale(4.00392 7.76515)"/><ellipse cx="251" cy="117" fill="#a89577" rx="29" ry="2"/><ellipse cx="255" cy="134" fill="#85898d" rx="30" ry="2"/><path fill="#3f3c26" d="M28 79l-9-7-8 10z"/><path fill="#ae926f" d="M271 81l-16 16-37 2z"/><path fill="#635b37" d="M133.3 101.9L90.7 59l51.6 55.8.8-33.4z"/><path fill="#a19078" d="M126.7 81l21.3-.3-2.3 7.4-37.1-3.6z"/><path fill="#574d33" d="M235 106l12-5-4-5z"/><path fill="#796d55" d="M187.7 34.3l-46.1 38 39.9-10.7-12.6-26.1z"/><path fill="#575235" d="M227.6 84.5l-4.4 14.4-65.7-45 56.7 46.3z"/><path fill="#2f3416" d="M70 105l-10 2 1-11z"/><path fill="#4c4825" d="M10 104h42v7H10z"/><path fill="#756b42" d="M32.2 87.1l27.9 24.7L61 99-.3 77.9z"/><path fill="#8897ab" d="M126 8L85 31l82 5z"/><ellipse cx="44" cy="29" fill="#8d9bae" rx="47" ry="8"/><path fill="#776b47" d="M34 88h7v26h-7z"/><path fill="#33331a" d="M-5 120l-11-9 27 8z"/><path fill="#0e0f0d" d="M20 111.5h4v9h-4z"/><path fill="#5c562f" d="M132 87l-30 30 21-2z"/><path fill="#817357" d="M93 63L70 50l21-12z"/><path fill="#101415" d="M222 116.7l-7.8 1.6-.2-1 7.8-1.6z"/><path fill="#d5aa7f" d="M136 94.1v2l-8-.2v-2z"/><path fill="#87795a" d="M227.9 62.1l-15.7 13.7-29 1.6 68.5-16z"/><path fill="#25270d" d="M26 89h8v5h-8z"/><path fill="#c5b79d" d="M224.9 106.1l.2-1 22 6.8-.2 1z"/><circle cx="152" cy="118" r="2" fill="#fff4e6"/><ellipse cx="133" cy="40" fill="#5f5b41" rx="22" ry="5"/><path fill="#a0abb5" d="M153.6-13.6l22.2 43.3 75.6-11.1-28.7-3.2z"/><path fill="#aa9271" d="M242 101h4v13h-4z"/><path fill="#d9b490" d="M2.2 105.9l6.1 3.4-.5.8-6.1-3.4z"/><path fill="#3c3d37" d="M50 160h206v10H50z"/><circle r="1" fill="#94835e" transform="rotate(-97.4 92.5 -15.1) scale(1.75858 19.0759)"/><path fill="#5c5834" d="M272.7 109.2l.3 3-43.7 4.6-.3-3z"/><path fill="#454a4c" d="M271 181.4l-74.6-45.1 74.6-1.6-9.5 15z"/><path fill="#585138" d="M260 64l-15 10-8-8z"/><path fill="#585236" d="M31.8 74.3l67.8 17-6.9-23.2 13 19.6z"/><path fill="#e2d8bd" d="M174.2 119l-.2-1 23.8-3 .2 1z"/><path fill="#424218" d="M148 98l14-2-4-3z"/></g></g></svg>