<svg xmlns="http://www.w3.org/2000/svg" viewBox="0 0 1800 1200"><defs/><filter id="a"><feGaussianBlur stdDeviation="12"/></filter><rect width="100%" height="100%" fill="#3a3e47"/><g filter="url(#a)"><g fill-opacity=".5" transform="translate(3.5 3.5) scale(7.03125)"><circle r="1" fill="#fff" transform="rotate(-2 604.7 -3867.2) scale(255 81.20452)"/><circle r="1" fill="#e9f8fe" transform="rotate(-10.4 127.5 -461.3) scale(255 36.25567)"/><circle r="1" fill="#748085" transform="matrix(-223.41946 19.5954 -5.0402 -57.46654 106.3 143.1)"/><circle r="1" fill="#d0cec4" transform="matrix(71.5196 -11.0524 3.98022 25.75585 34.5 68.6)"/><ellipse cx="119" cy="105" fill="#6b5e54" rx="118" ry="17"/><circle r="1" fill="#aeb4b9" transform="rotate(174.7 115 22.5) scale(136.51287 22.26859)"/><circle r="1" fill="#41372c" transform="matrix(67.53083 0 0 6.30532 177 109.9)"/><path fill="#a79379" d="M4 100h56v13H4z"/><circle r="1" fill="#9d948e" transform="matrix(-27.2364 15.07196 -6.9092 -12.48555 242.3 88)"/><ellipse cx="24" cy="82" fill="#efefdb" rx="60" ry="5"/><ellipse cx="73" cy="138" fill="#53687c" rx="255" ry="24"/><ellipse cx="46" cy="30" fill="#d6e3e9" rx="70" ry="17"/><circle r="1" fill="#cccac5" transform="matrix(41.62961 11.70156 -5.7594 20.48972 238.4 20.7)"/><circle r="1" fill="#949da7" transform="matrix(-2.04512 -28.75487 55.91313 -3.97668 150.3 56.4)"/><path fill="#9b8671" d="M48 101h97v7H48z"/><circle r="1" fill="#999b9f" transform="matrix(-.55953 7.6194 -86.73253 -6.36924 32.2 69.7)"/><circle r="1" fill="#4a5160" transform="matrix(.2009 -4.42426 44.50347 2.0209 82.2 97.3)"/><ellipse cx="151" cy="165" fill="#465561" rx="93" ry="31"/><path fill="#25211d" d="M161.6 108.3l-105.1 6.1 83.2.7 100.9-.4z"/><path fill="#657a8a" d="M102 115l-68 19-50-19z"/><circle r="1" fill="#b6babc" transform="rotate(85.6 3.2 65.8) scale(8.67088 99.97781)"/><path fill="#7f868e" d="M129 69h83v9h-83z"/><ellipse cx="112" cy="87" fill="#777980" rx="44" ry="5"/><ellipse cx="27" cy="90" fill="#e2dbc8" rx="23" ry="5"/><path fill="#3d3328" d="M48 108l33-3-15 7z"/><path fill="#726863" d="M191.4 99.4l79.6 23.2L243.9 93l-54-5.6z"/><circle r="1" fill="#c0d4e5" transform="matrix(.97485 -12.11627 103.359 8.31607 30.7 14.1)"/><path fill="#fff2dd" d="M33 45l3-13-36 3z"/><circle cx="92" cy="103" r="4" fill="#d7c7af"/><path fill="#b6afa1" d="M136 78h120v6H136z"/><ellipse cx="211" cy="123" fill="#5b6d7a" rx="254" ry="9"/><circle r="1" fill="#8b8988" transform="matrix(12.01435 2.94311 -7.03014 28.69834 180 80.4)"/><circle r="1" fill="#6f5f51" transform="matrix(-22.5503 -9.57203 2.30827 -5.43795 3.7 99.6)"/><path fill="#d7dad6" d="M85.1 36.7l15 17.8-27.7 7.7-.9-17.5z"/><path fill="#708190" d="M2 165h76v3H2z"/><ellipse cx="153" cy="163" fill="#252f37" rx="18" ry="3"/><path fill="#cec9c1" d="M50.5 111.8l-.1 1-24.9-2.6.1-1z"/><ellipse cx="254" cy="113" fill="#3c2a19" rx="32" ry="2"/><path fill="#675b53" d="M178 94l37 15-80-5z"/><path fill="#54473f" d="M102.4 114.5l13.1-14.9 29.6 15.6-6.9-12.4z"/><path fill="#293540" d="M94.5 174.8l-24.7-5.1 54.4-6.8L90 164z"/><ellipse cx="8" cy="52" fill="#cac2b9" rx="37" ry="12"/><path fill="#b1b4b8" d="M137 18h78v15h-78z"/><ellipse cx="251" cy="83" fill="#b3b4af" rx="17" ry="7"/><path fill="#c3d5e3" d="M80 42L192-1l-67-9z"/><path fill="#b1a292" d="M28 105h12v9H28z"/><path fill="#47362f" d="M84.9 111.4l-3-18.3 7.8 3.3-4.7 9.7z"/><path fill="#91989f" d="M168 73.6l103 5.7-59.3-22.4-48.6-26.2z"/><path fill="#9a9183" d="M236 110h20v3h-20z"/><path fill="#b1c3cb" d="M139 58l26-13-30-2z"/><ellipse cx="92" cy="154" fill="#5a6773" rx="255" ry="6"/><path fill="#292826" d="M64 113h95v2H64z"/><path fill="#b2a08b" d="M6 101h16v4H6z"/><path fill="#d8d9c9" d="M42.7 87.3l54.5-7.6.1 1-54.5 7.6z"/><path fill="#28353f" d="M4 169h119v1H4z"/><ellipse cx="33" cy="114" fill="#473121" rx="35" ry="1"/><path fill="#9ea7b1" d="M134 68l-73-1 78-26z"/><path fill="#57606f" d="M62.7 89.7l7.9-3.3 30.1 10.1-93.4 3.6z"/><path fill="#a4a4a5" d="M65 76L48 48 5 76z"/><path fill="#747274" d="M182 93l18 14 31-18z"/><path fill="#212522" d="M23.2 107l.2 1-12.6 3-.2-1z"/><ellipse cx="213" cy="105" fill="#2e201e" rx="7" ry="2"/><path fill="#747f88" d="M17 154l23-4 7 9z"/><path fill="#60554d" d="M2 102l21-4-24-7z"/><path fill="#c3c6c3" d="M244.9 1l-4.8-17-33.5 64.5 52.1-28.3z"/><circle r="1" fill="#acafb1" transform="rotate(-162.4 118.2 4.5) scale(55.50833 10.52651)"/><path fill="#262e33" d="M178 164h14v3h-14z"/><path fill="#93979b" d="M125 86l47-20-107 9z"/><path fill="#644e3d" d="M234 104h22v6h-22z"/><ellipse cx="5" cy="74" fill="#98999b" rx="70" ry="3"/><path fill="#656e74" d="M222 116h34v23h-34z"/><path fill="#39454e" d="M67 144h32v3H67z"/><path fill="#273036" d="M96 160l9 3v-5z"/><path fill="#917f69" d="M112.4 108.2l-12.7-5-29.4 4 5.8 2.9z"/><path fill="#9d7a5a" d="M0 112h41v2H0z"/><path fill="#c9c7bc" d="M28.3 97.1l-44.3-9L32.9 84 36 73.2z"/><path fill="#9f928a" d="M113 94h13l-18-13z"/><ellipse cx="172" cy="98" fill="#64666c" rx="84" ry="3"/><path fill="#aea190" d="M47.6 106l28.6-5 .2 1-28.6 5z"/><ellipse cx="94" cy="111" fill="#5b4632" rx="34" ry="2"/><ellipse cx="9" cy="150" fill="#334351" rx="12" ry="2"/><ellipse cx="212" cy="114" fill="#1b2025" rx="52" ry="1"/><ellipse cx="184" cy="142" fill="#525e69" rx="57" ry="23"/><path fill="#babab9" d="M63 61L49 46 15 67z"/><path fill="#d4d3c6" d="M71 88l-53.6 5.9 15-12.9 31.4-4.4z"/><path fill="#515255" d="M43 96h39v5H43z"/><path fill="#918d8a" d="M176 96l-32-14h80z"/><path fill="#b8bec3" d="M147.4 23.9L115 41.4l-11.7-7.1 38.8-11.2z"/><path fill="#917451" d="M168 102h12v7h-12z"/><circle r="1" fill="#d4d6d5" transform="matrix(25.52182 -4.40838 .8833 5.11372 57.3 21.2)"/><path fill="#908e8e" d="M215.8 83.6l12.3-1.5 10.6 16.2L271 84.5z"/><ellipse cx="30" cy="117" fill="#647989" rx="110" ry="2"/><circle r="1" fill="#b9cfe0" transform="matrix(.10741 -10.60917 43.30247 .43841 17.5 10.4)"/><circle cx="241" cy="151" r="16" fill="#5d656c"/><path fill="#27282a" d="M206 107h8v5h-8z"/><path fill="#9da4ae" d="M138 30L92 71l90-41z"/><path fill="#c3c4c5" d="M203.8 16.8L167.3 27l2.5-16.5 74.9-11.8z"/><path fill="#807976" d="M136.8 101l-4.1.6-4.2-9.4-4.5 18.6z"/><path fill="#f9f2e6" d="M10.1 39.2l8.3 3.4 10.1-10-21 1z"/><path fill="#252225" d="M141 108h30v4h-30z"/></g></g></svg>