<svg xmlns="http://www.w3.org/2000/svg" viewBox="0 0 4752 3168"><defs/><filter id="a"><feGaussianBlur stdDeviation="12"/></filter><rect width="100%" height="100%" fill="#5c3a33"/><g filter="url(#a)"><g fill-opacity=".5" transform="translate(9.3 9.3) scale(18.5625)"><circle r="1" fill="#eff" transform="matrix(-31.27466 128.98676 -247.81951 -60.08734 75.7 40.2)"/><circle r="1" fill="#e7f7fb" transform="rotate(152.5 75.4 45.9) scale(44.74405 112.61446)"/><circle r="1" fill="#573334" transform="rotate(7.3 -956.4 524.3) scale(26.78685 105.33118)"/><circle r="1" fill="#7d503e" transform="rotate(-115.1 110.9 43.1) scale(46.54356 40.1448)"/><circle r="1" fill="#c3e4ff" transform="rotate(157.7 16.4 16.4) scale(108.15598 16.29354)"/><path fill="#201b23" d="M4 57h52v22H4z"/><path fill="#1f2c5c" d="M108 48.1l-53.7 5.7-2.3-22 53.7-5.6z"/><path fill="#000e4e" d="M262.7 77.5l-38.8-4 1.4-13 38.8 4z"/><ellipse cx="219" cy="115" fill="#d2cebc" rx="90" ry="38"/><circle r="1" fill="#92b0c8" transform="rotate(-51.7 132 -218.1) scale(44.31339 41.69472)"/><ellipse cx="24" cy="107" fill="#cdd0c3" rx="19" ry="28"/><ellipse cx="197" cy="166" fill="#695f54" rx="61" ry="10"/><ellipse cx="103" cy="68" fill="#715459" rx="46" ry="5"/><path fill="#816253" d="M-16 168l82-50 44 61z"/><path fill="#c1ddfc" d="M85.3-3.7l98-24.4 9.4 37.8-98 24.4z"/><circle r="1" fill="#d4bdad" transform="matrix(9.98478 8.40332 -21.40815 25.43703 93.2 106.7)"/><circle r="1" fill="#415f89" transform="rotate(-170.6 35.6 2) scale(66.88341 1.65423)"/><path fill="#544a63" d="M110 34l16 37-48-49z"/><circle r="1" fill="#cdd8dc" transform="matrix(-27.42697 -3.43075 2.99596 -23.95107 21.2 33.8)"/><circle r="1" fill="#e5eff8" transform="matrix(30.21918 12.45545 -6.0784 14.7473 145 50)"/><circle r="1" fill="#a38285" transform="matrix(-4.86375 -19.45062 29.04408 -7.26265 85.3 68.7)"/><path fill="#45353d" d="M53.9 33.4l-8.3 15.5 21.7 64.6L39 92z"/><circle r="1" fill="#ddd9cd" transform="matrix(20.59003 -14.73421 21.64486 30.24718 160.2 102.6)"/><circle r="1" fill="#a4a096" transform="matrix(1.21375 -10.23917 81.90067 9.70852 219 152.4)"/><ellipse cx="1" cy="81" fill="#6f573f" rx="4" ry="27"/><path fill="#a0c8f3" d="M271-8l-14 47-50-8z"/><path fill="#b3aea3" d="M9.9 164.7L44.6 113l-7.2-51L-16 172.4z"/><path fill="#6e4340" d="M40 130l41-42 5 25z"/><path fill="#2b5373" d="M271 65.7l-41.4-1.1-28.4 7.9 69.8 4.8z"/><path fill="#d7c6c0" d="M74 57l15 1-15-18z"/><circle cx="115" cy="119" r="11" fill="#634b50"/><path fill="#0d3658" d="M6.7 76L5.4 62l24-2 1.2 14z"/><circle r="1" fill="#816d69" transform="matrix(3.7228 -.9785 13.16471 50.0862 124 89.5)"/><path fill="#2e4170" d="M58 29l29-6 12 25z"/><circle r="1" fill="#755a51" transform="matrix(44.46174 -26.2946 11.19506 18.9298 34.6 169)"/><path fill="#d7edff" d="M18-18.5l148 34.2-2 8.8L16-9.7z"/><circle r="1" fill="#6d685e" transform="matrix(25.31076 192.25434 -1.56192 .20563 10.1 161.8)"/><ellipse cx="228" cy="1" fill="#84837d" rx="26" ry="9"/><path fill="#484151" d="M67.7 40.9L74.2 52l-26 15-6.3-11z"/><circle r="1" fill="#16376c" transform="matrix(.13348 -.99105 27.72941 3.73477 65.4 8.8)"/><path fill="#284663" d="M193 37h53v2h-53z"/><path fill="#aaabaa" d="M225 4l-81 23 53 9z"/><circle r="1" fill="#939b9b" transform="matrix(2.09826 -7.71111 27.95229 7.60606 20.8 6)"/><path fill="#5a3e3a" d="M150 184l44 1-64-37z"/><path fill="#b57d5a" d="M30 57h12v21H30z"/><path fill="#b4babb" d="M153.3 30.4l-75.6-7.9 1-9 75.6 8z"/><path fill="#7a94b7" d="M159.7 10.2l3-3.7-93.5-12L55.9-9z"/><path fill="#cbc9be" d="M153 152l-19-54 137-22z"/><path fill="#fff" d="M161.4-1.5l-1 8-23.8-3 1-8z"/><path fill="#a5aeab" d="M46 156l9 29-20-11z"/><path fill="#000e2b" d="M68 69h14v3H68z"/><path fill="#997371" d="M78 101.3l-.2 10.6-38.4-13L66.8 97z"/><path fill="#3c333a" d="M40.3 93.4v9.1L58 91.4l-6.2-27.7z"/><path fill="#798e9c" d="M228 42h28v21h-28z"/><path fill="#13203d" d="M95 65l7 4 4-5z"/><path fill="#bea28a" d="M93 108l-11 26-26-3z"/><path fill="#9f8679" d="M97.7 148.6l41.5-31.5 20.2 51.1 23.3-24z"/><path fill="#c8d2da" d="M39 55H-9l73-43z"/><path fill="#24477f" d="M22.9-10L40.3 5.8l10.3 3L16.2-16z"/><path fill="#c8beb8" d="M106.3 119L84.2 95.7l31.6-20.2 1.4 24.5z"/><path fill="#645c68" d="M45.9 40.6l15.9-14.9 1 29.4-22.7 9.1z"/><path fill="#896366" d="M76 74l33 6-21 11z"/><ellipse cx="221" cy="112" fill="#c2c1b7" rx="19" ry="40"/><path fill="#d4eeff" d="M160.3 14.7l31.1-25.2 6.3 7.8-31.1 25.2z"/><path fill="#c6c5be" d="M39 121l-28 34-3-16z"/><path fill="#6585bc" d="M108.8 31.9l-40.7-3.8-17.9 4.6 30.2-11.4z"/><path fill="#7a5b4b" d="M124 66h23v4h-23z"/><path fill="#7babe3" d="M69.6.2L29.1-1.6l23.1 5.7 29.3 5.4z"/><path fill="#6289a4" d="M10 66h15v5H10z"/><path fill="#d5dde1" d="M185 87L89 19l100 24z"/><path fill="#ac8f89" d="M61.5 97.8l-1-21.3 104.6-6.4-74-1z"/><path fill="#b1a898" d="M171.3 70l-2.6 72h-2l2.6-72z"/><path fill="#e0dfd9" d="M135 111l14 20 37-20z"/><path fill="#9ca0a1" d="M257 42l-68-1 23 18z"/><path fill="#c1c0bb" d="M5 83h34v25H5z"/><path fill="#4b4153" d="M87 28l-9 24 26-7z"/><path fill="#d0d7db" d="M57.5 32.4L38.7 15.6l52.2 4.5L28 33z"/><path fill="#ddddd7" d="M128 71.7l32-2.3 2 29-32 2.2z"/><path fill="#8d6e5b" d="M-16 54.9L.4 86.4l34.1-9.3-50.5-1.6z"/><path fill="#c6b0ac" d="M84 51h27v6H84z"/><path fill="#816159" d="M22 181l46-87-43 45z"/><path fill="#1d2f58" d="M72.8 11.2L49 7.8l.2-1L73 10.2z"/><path fill="#583634" d="M62.4 126L51 114.6 61.6 104 73 115.4z"/><path fill="#7b776f" d="M184 168l87-13-13 28z"/><circle r="1" fill="#cadff6" transform="rotate(-17 161.7 -828.8) scale(9.64175 4.09657)"/><path fill="#84a2c4" d="M231 19l40-10.5-23.1 20.6-18.7-.5z"/><circle r="1" fill="#817576" transform="matrix(-6.90442 1.13064 -2.00873 -12.26656 122.7 74.4)"/><circle r="1" fill="#4c6fa2" transform="matrix(-9.94547 10.55388 -.72777 -.68582 166.5 .1)"/><path fill="#c5c8cd" d="M102.2 83.8l10.4-2-5.4 11.1-23.5 4.2z"/><path fill="#baa5a1" d="M73 41h5v18h-5z"/><ellipse cx="15" cy="74" fill="#06101e" rx="10" ry="2"/><ellipse cx="205" cy="70" fill="#5f7079" rx="6" ry="2"/><path fill="#a3a29b" d="M129.6 24l-.1 1L6.4 10l.1-1z"/><path fill="#6289b4" d="M170 22h-16l3 5z"/><circle r="1" fill="#988d81" transform="matrix(-.51287 -4.62973 38.19186 -4.23078 177.1 156)"/><path fill="#788caa" d="M119 2L76-4l48-12z"/><path fill="#b3c3cc" d="M194 58h26v12h-26z"/><path fill="#abaea5" d="M5 164h-21L1 93z"/><path fill="#a89d91" d="M42.6 112.9l3.8 3.6-1.3 8.2-61.1 6.9z"/><path fill="#565045" d="M6 129h2v30H6z"/></g></g></svg>