<svg xmlns="http://www.w3.org/2000/svg" viewBox="0 0 1800 1350"><defs/><filter id="a"><feGaussianBlur stdDeviation="12"/></filter><rect width="100%" height="100%" fill="#4c413c"/><g filter="url(#a)"><g fill-opacity=".5" transform="translate(3.5 3.5) scale(7.03125)"><ellipse cx="138" cy="23" fill="#fff" rx="162" ry="51"/><circle r="1" fill="#daccb1" transform="matrix(2.44352 -34.08892 120.21497 8.61712 114.5 185)"/><ellipse cx="132" cy="33" fill="#fff2dc" rx="147" ry="37"/><circle r="1" fill="#1e221b" transform="matrix(-178.7189 -2.12979 .4456 -37.39192 18.3 108.8)"/><circle r="1" fill="#a5aaa1" transform="rotate(55 -50.3 284.4) scale(29.24622 11.08176)"/><ellipse cx="245" cy="155" fill="#101c19" rx="16" ry="95"/><path fill="#000202" d="M101 204l39-4-31-28z"/><circle r="1" fill="#dfb388" transform="matrix(-20.51964 17.34043 -43.70674 -51.71997 16 13.6)"/><circle r="1" fill="#ffe3bc" transform="matrix(-36.37314 19.09632 -13.556 -25.82037 80.3 38.4)"/><circle r="1" fill="#b8c8d5" transform="matrix(76.95583 -5.92302 3.13178 40.69025 210.7 26.4)"/><path fill="#41413b" d="M203.9 177.9l-29.8-.8L92.9 69.8l140.1-.5z"/><ellipse cx="53" cy="173" fill="#e9bf91" rx="35" ry="11"/><circle r="1" fill="#181b17" transform="rotate(-118.8 45.4 71.5) scale(24.9602 32.70498)"/><path fill="#e2d6ca" d="M156 178h71v8h-71z"/><path fill="#9d9892" d="M213.4 80.6l23.9 66.2-27.7-35 16.5 6.2z"/><path fill="#9aaeb7" d="M240.4 215l-11.1-8.5 34.3-45.5 11.1 8.5z"/><path fill="#bcbcb2" d="M106.3 178.4l-.6-17 50-1.8.6 17z"/><ellipse cx="61" cy="156" fill="#655b4e" rx="46" ry="6"/><circle r="1" fill="#000503" transform="matrix(7.32182 4.14365 -16.46228 29.0888 246.3 166.1)"/><circle r="1" fill="#9eacb9" transform="matrix(48.72107 11.15861 -5.02294 21.93132 254.1 30.1)"/><path fill="#a79f92" d="M225.3 176.5l-22.7 8.4-7-43.8-6.3-13.4z"/><ellipse cx="112" cy="72" fill="#867d75" rx="41" ry="6"/><circle r="1" fill="#282216" transform="matrix(-16.6253 -12.711 8.43718 -11.03537 12.6 69)"/><path fill="#e4c89f" d="M45 146h27v3H45z"/><circle r="1" fill="#e6ded4" transform="matrix(-4.56052 22.61734 -50.75659 -10.23446 131.1 39.6)"/><path fill="#c4ae9a" d="M-49.9-5.1L59-10.8l2.9 56L-47 50.7z"/><path fill="#909087" d="M150 164.9l18.6-27.8 50-1.8-76.6 10.9z"/><circle r="1" fill="#2a2b28" transform="matrix(4.72355 20.45996 -57.91415 13.37054 243.2 83)"/><ellipse cx="89" cy="178" fill="#2a2114" rx="2" ry="26"/><path fill="#35251e" d="M160 145h38v18h-38z"/><path fill="#d9c6b3" d="M227.7 116l-.7 4-22.7-4 .7-4z"/><path fill="#a5a2a3" d="M0 159h27v3H0z"/><path fill="#dcba96" d="M25 164h72v10H25z"/><circle r="1" fill="#ffdcb2" transform="rotate(-4.8 638.1 -866.7) scale(53.12577 15.33386)"/><circle r="1" fill="#504b3f" transform="matrix(-1.16629 1.26868 -43.7277 -40.19871 104.8 171.6)"/><circle r="1" fill="#b9a086" transform="matrix(.3363 -3.3242 19.78281 2.0014 54.8 155)"/><path fill="#1f2122" d="M188.1 178.6l-.2-17 10-.2.2 17z"/><path fill="#876554" d="M100 106.6l1.2-7.4-30.6.3-4.2.7z"/><ellipse cx="88" cy="150" fill="#e6d2b6" rx="20" ry="2"/><ellipse cx="213" cy="139" fill="#202b2c" rx="12" ry="15"/><path fill="#707470" d="M196 149h32v18h-32z"/><path d="M130 157h14v2h-14z"/><ellipse cx="158" cy="127" fill="#272a29" rx="42" ry="11"/><path fill="#3d3a30" d="M81 173l9-5 8 21z"/><path fill="#574c4d" d="M178 188h50v4h-50z"/><path fill="#20221f" d="M26 108h69v33H26z"/><path fill="#6f7870" d="M94 144h73v4H94z"/><circle r="1" fill="#686462" transform="matrix(-.4471 -3.69463 39.22938 -4.74728 181.2 73.8)"/><path fill="#d2c5b4" d="M158.2 184.7l33.5 5.1-40.8-19.8-19.6-19.7z"/><path fill="#443c33" d="M271 105.3l-57.1 2.3 8.1 9.9 22.5 14z"/><path fill="#c2ae96" d="M196 139l7-13-3 27z"/><path fill="#2f3029" d="M57 151h31v3H57z"/><circle r="1" fill="#d4d3cd" transform="rotate(-87 132.9 -79.8) scale(12.09732 29.28692)"/><path fill="#e3b38c" d="M-8.6 49.5l26.2 5.7 57.7-11.3L-16 30.5z"/><ellipse cx="126" cy="66" fill="#c8b7a5" rx="61" ry="5"/><path fill="#f4e5d8" d="M156 154l2 5-16 2z"/><circle r="1" fill="#625c54" transform="matrix(-.14243 -2.36851 94.44415 -5.67944 39.8 161.9)"/><circle r="1" fill="#bdbbac" transform="rotate(-80.3 151 15.2) scale(2.44844 20.2802)"/><path fill="#b69a7c" d="M88 187.6l-51.3-24.9-36.9 12.7 80 23.1z"/><path fill="#cdc6c1" d="M230.8 134.2l-15.3-18.5 1.1-2.5 13.1 11.4z"/><circle cx="134" cy="179" r="14" fill="#848682"/><circle r="1" fill="#877d76" transform="matrix(-2.51843 5.79506 -19.65336 -8.541 172.5 171.4)"/><path fill="#e5caa7" d="M83.5 162.4l2.7 3.5 2.5 9.5-21.1-13.6z"/><path fill="#e1cfc0" d="M49 156h36v2H49z"/><ellipse cx="166" cy="106" fill="#827b79" rx="61" ry="1"/><circle r="1" fill="#7f6d5b" transform="rotate(-162.8 17.8 93.7) scale(75.29069 9.23757)"/><ellipse cx="241" cy="153" fill="#3f4440" rx="28" ry="3"/><path fill="#a39585" d="M203 154.1l-12.9 9.4-1.2-1.6 13-9.4z"/><path fill="#131815" d="M-16 132l58 16-58 15z"/><path fill="#beaa98" d="M185 136h12v5h-12z"/><ellipse cx="21" cy="84" fill="#332b22" rx="43" ry="22"/><path fill="#c5bea6" d="M97.1 166.4l8.2 18.3-6.4 2.9-8.2-18.3z"/><circle r="1" fill="#d5d1ce" transform="matrix(26.10644 -2.97445 3.89327 34.17081 120.8 14.5)"/><circle r="1" fill="#b7aa9b" transform="matrix(-32.65077 -1.31139 1.14302 -28.45876 0 11.6)"/><ellipse cx="112" cy="189" fill="#babfb7" rx="2" ry="4"/><path fill="#bdb8a9" d="M126.2 171.2l-13.7 2.4L90.6 156l26.7 5.7z"/><path fill="#dccfbc" d="M204 180l8-9 12 6z"/><path fill="#38322b" d="M116 80L-2 129l48-63z"/><path fill="#c7cec3" d="M116 152h22v4h-22z"/><path fill="#3a3226" d="M52 155H24v-2h28z"/><path fill="#a7a093" d="M6 113h25v1H6z"/><path fill="#56534d" d="M100.2 151.9l11.8-1.2-50.1 10.5 51-5.3z"/><ellipse cx="69" cy="143" fill="#5e5c50" rx="23" ry="3"/><path fill="#56524f" d="M115 72h65v10h-65z"/><path fill="#181914" d="M132.3 207l-19-20.9L97 207l12.5-31.6z"/><path fill="#cdad8c" d="M29.5 152.9l10-1.2 12.1 5.1 12.4.7z"/><path fill="#ffe9d9" d="M140.2 162.3l1.8-3.6 9.8 5-1.8 3.6z"/><ellipse cx="84" cy="147" fill="#212a24" rx="20" ry="2"/><path fill="#2e2c27" d="M222.2 122.2l5.1 14.6-23.1 1.6 2.4-23.1z"/><ellipse cx="9" cy="167" rx="12" ry="1"/><circle r="1" fill="#d0c0ad" transform="matrix(-25.1665 -9.15985 7.4993 -20.60416 43 2)"/><ellipse cx="188" cy="104" fill="#20231b" rx="79" ry="2"/><path fill="#bab4b0" d="M40.3 157l.2 1-16.8 3-.2-1z"/><path fill="#8f7b69" d="M33 106h17v2H33z"/><path fill="#2d221e" d="M159 151h37v9h-37z"/><ellipse cx="192" cy="112" fill="#35251c" rx="53" ry="2"/><path fill="#80756c" d="M152 164h36v8h-36z"/><path fill="#1a2320" d="M89.5 176.4l-.1 1-13-1.8.2-1z"/><path fill="#ffddb0" d="M71 149h12v2H71z"/><circle r="1" fill="#ffdeb1" transform="matrix(-4.147 -10.22423 22.79332 -9.24507 64.4 53.5)"/></g></g></svg>