<svg xmlns="http://www.w3.org/2000/svg" viewBox="0 0 4369 2913"><defs/><filter id="a"><feGaussianBlur stdDeviation="12"/></filter><rect width="100%" height="100%" fill="#615536"/><g filter="url(#a)"><g fill-opacity=".5" transform="translate(8.5 8.5) scale(17.0664)"><circle r="1" fill="#c5bbb7" transform="matrix(3.71017 38.87989 -188.72757 18.0096 124.5 77.9)"/><circle r="1" fill="#efddb7" transform="matrix(-19.98783 -17.62164 26.5098 -30.06945 12.6 90)"/><path fill="#353421" d="M235-16l-38 97L83-5z"/><circle cx="71" cy="142" r="59" fill="#575f72"/><ellipse cx="243" cy="85" fill="#283242" rx="35" ry="24"/><circle r="1" fill="#c4ba8e" transform="rotate(155.3 39.8 39.8) scale(69.59324 16.70811)"/><circle r="1" fill="#131911" transform="matrix(-7.70089 20.27273 -58.78026 -22.32853 49 4.4)"/><path fill="#eee8ff" d="M216 112.6l-16.8 6.2-9.3-25.4 17-6.2z"/><path fill="#eadbe7" d="M128.7 111.7l-22.4-5.2 7-30.2 22.4 5.2z"/><ellipse cx="18" cy="35" fill="#9a9660" rx="25" ry="22"/><circle r="1" fill="#3f3f58" transform="rotate(19.8 -334.1 692.3) scale(87.38454 37.13968)"/><circle r="1" fill="#000002" transform="matrix(-23.92361 4.72553 -3.26638 -16.53648 255 16.3)"/><circle r="1" fill="#e09e72" transform="matrix(-13.19589 -.86084 2.15372 -33.0145 167.1 82.3)"/><path fill="#33160b" d="M145 40l25 6-29 26z"/><circle r="1" fill="#575657" transform="matrix(18.6493 -19.1775 56.27824 54.7282 105.2 134)"/><circle r="1" fill="#0f0a09" transform="matrix(22.26137 -93.68675 4.58841 1.09028 235.5 149.8)"/><path fill="#d8cbb2" d="M94 90L38 54l86-5z"/><ellipse cx="70" cy="42" fill="#868436" rx="58" ry="8"/><circle r="1" fill="#000306" transform="matrix(18.2002 8.91619 -4.69924 9.59234 187.5 23.8)"/><circle r="1" fill="#6c6c70" transform="matrix(46.99687 -30.0657 17.27592 27.00467 18.7 151)"/><path fill="#b0927c" d="M249 94h7v52h-7z"/><path fill="#e5cfaa" d="M11.1 57.8l2.8-3.7 15 52.9 22.8-7.9z"/><path fill="#625b6e" d="M185.8 108.1l85.2 1.2-97 13.5-5.9-30.3z"/><path fill="#daad8c" d="M170.1 98.4L97.2 50.3l45.3 63.1 33.3-74.7z"/><circle r="1" fill="#c0bdae" transform="matrix(56.0923 -16.4709 1.0571 3.60002 239.4 54.5)"/><path fill="#5e6269" d="M186 93l-11-21 82-12z"/><circle r="1" fill="#2f1d18" transform="rotate(161.9 69.2 73) scale(4.76764 24.43307)"/><path fill="#0b0f07" d="M7.6-17.3L27.8 7.6 8.4 23.3-11.8-1.6z"/><path fill="#1a1a14" d="M59.8-6L40 21.3l-.5 16.6L86 22.6z"/><path fill="#958454" d="M108 16.1l79.4 21-46.5 5.5L81.3 54z"/><circle r="1" fill="#746e60" transform="rotate(73 -56.4 67.6) scale(38.01031 2.44681)"/><ellipse cx="224" cy="39" fill="#a5a993" rx="57" ry="4"/><path fill="#adac9f" d="M40.3 17.1l-12.7 9.8L59 57.1 16.5 15.2z"/><path fill="#7b6364" d="M99 75L85 49l48 40z"/><circle r="1" fill="#b88960" transform="matrix(3.42805 1.2703 -9.7578 26.33243 243.7 169)"/><ellipse cx="136" cy="169" fill="#606268" rx="77" ry="22"/><path fill="#4d4843" d="M156 62.2l-26.2 9.6-5.9-16 26.3-9.6z"/><path fill="#575552" d="M228.9 185L56.8 120.1l5.1-55.3-21.5 4.5z"/><path fill="#4d4550" d="M130 96h7v54h-7z"/><path fill="#dcd4cb" d="M180 100l36 10-9-24z"/><path fill="#945f44" d="M162 123.3l-5.4-25.6-.1-37-17.2 3.9z"/><path fill="#4a4d4a" d="M82 116l17 13 11-62z"/><path fill="#55575b" d="M215 94h37v25h-37z"/><path fill="#e9e4e6" d="M109.1 81.3l6.6 18.6 12.7 1.3 7.1-8.2z"/><path fill="#e3d6b7" d="M92 77.9l22.9-30.1 21.4-3.8L122 60z"/><path fill="#5f2640" d="M124 88l9 2 11-12z"/><circle r="1" fill="#101516" transform="matrix(-4.80656 18.72032 -4.83997 -1.2427 215.8 11.8)"/><path fill="#817d38" d="M-16 37.8l46.6 20.8 56.6-15.2.5 8z"/><path fill="#373d3d" d="M176 45h16v24h-16z"/><path fill="#1b1f11" d="M165.7 34.6L167 6.9l-37 20.8 8.5-20.6z"/><path fill="#431c16" d="M167.8 99.2l7.6-4 3.2 11.8-1 5.5z"/><path fill="#525749" d="M69.3 51.2L36.5 37.4 69.6 57l19.1.9z"/><path fill="#716e63" d="M53 97.1L40.2 82.3l36.1-3.6 29.8-9.7z"/><ellipse cx="17" cy="29" fill="#271112" rx="10" ry="3"/><path fill="#1e1711" d="M236.9 113.2l-7.6 66.7-14.8-13.8 36-13.8z"/><path fill="#4d72a9" d="M179 97l20 16-11 3z"/><path fill="#d3c4a6" d="M61.2 59.5l-58.1-5 51.4 31.6L39.3 64z"/><path fill="#dac8a8" d="M-4 49l-12 48 45 18z"/><path fill="#838102" d="M132 24h19v11h-19z"/><path fill="#2f2927" d="M166 147.1l15.9-19.6-32.3-17.1-3.1 2.1z"/><path fill="#bccbbd" d="M7 33L-5 21l1-26z"/><path fill="#c4ae93" d="M145.7 44.1L114.2 37l58.6 2.4-18.6-6.9z"/><path fill="#c5bfc5" d="M33 22l-21-2 14-7z"/><path fill="#4c4029" d="M74 0h35v36H74z"/><path fill="#d8cbb0" d="M56 52l33.8 8.2-22 20.4-17.6-25.2z"/><path fill="#b0aa96" d="M205 68l47.9-36.9-7.5 28.1-20.4 7.5z"/><path fill="#cebea9" d="M120.7 75.7l-9.2 9.9 42.2-16.9-27 2.9z"/><path fill="#141815" d="M177 17h28v20h-28z"/><path fill="#08110d" d="M251.1 1.9l1.8-14.4-18.7 37.2 36.8 3z"/><path fill="#75746b" d="M84 84l-98 48 47 10z"/><path fill="#936e4f" d="M170.7 63.2l4.7 10.2 3.4-35.2-30.9 19.2z"/><path fill="#e7bb95" d="M156.7 105.4l12.7 2.9-13.5-43.6 25.8 20.5z"/><path fill="#e9c89f" d="M139 114l6-27 3 24z"/><path fill="#918b5b" d="M58.9 36.6l71.9 49.5L79 53.5l31.4-18.4z"/><path fill="#52342e" d="M126.1 144.4l-11.8-2.3 5.6-28.5 11.8 2.3z"/><path fill="#262d1e" d="M54 38l13 14-21-8z"/><path fill="#332723" d="M150 38l13-1-20 28z"/><path fill="#949389" d="M196 79l13-14-39 5z"/><path fill="#786733" d="M206 10l-55-9 43-15z"/><path fill="#7c8177" d="M239.6 25.1l.6 13.9-5.4 10.7-38.5 13.2z"/><path fill="#b29981" d="M133.1 50.2L108.2 22l.6-6.4 13.9 10.2z"/><path fill="#3e3e43" d="M22.3 17.3l5.4 9.8-17.9 5.7 12.7-15z"/><path fill="#807c8c" d="M219.7 99.9l18.8 7.4-26.4 2.3-25.9 5.2z"/><circle r="1" fill="#ccbaa5" transform="rotate(-114 168 -20.4) scale(6.54107 3.66717)"/><path fill="#908060" d="M165.7 33.3l31.6 6-26.4 11.5-1.4-34.5z"/><path fill="#787a7d" d="M184 179.9l-30-11.5 4-10.3 30 11.5z"/><path fill="#384734" d="M221 45l-25 11-16-10z"/><path fill="#a4bcbd" d="M129 97l1 18-27-16z"/><path fill="#232417" d="M55.4 8.7L34 31.3 75.6 34-16-12.6z"/><circle r="1" fill="#515151" transform="matrix(5.54 -8.43383 42.68016 28.03563 16 158.1)"/><path fill="#393316" d="M128.7 43.6L152.5-16 104 7.9l43.4 5.6z"/><path fill="#211811" d="M259 38l11 19-26 50z"/><path fill="#5b7b5a" d="M30 27.7L32 13l10 1.4L40 29z"/><path fill="#b9ae99" d="M175 108.7l-1 8-20.7-7.2 12.9-8.1z"/><path fill="#655563" d="M200.6 92.9l-.9-3.1 6.8-27.1L181.7 94z"/><path fill="#353225" d="M267.7-16l-42.2 47.9-.2-47.9-12.1 41.7z"/><path fill="#d4c19a" d="M95 66.2l10.2 7.1-15.7 19.3-2.7-27.8z"/><ellipse cx="159" cy="90" fill="#d89b6a" rx="24" ry="7"/><path fill="#a18e6e" d="M148 0h2v40h-2z"/><path fill="#706d65" d="M44.5 70l-6.7-9.7 73.7 46.3-48.9-4.4z"/></g></g></svg>