<svg xmlns="http://www.w3.org/2000/svg" viewBox="0 0 1800 1200"><defs/><filter id="prefix__a"><feGaussianBlur stdDeviation="12"/></filter><rect width="100%" height="100%" fill="#2a3a52"/><g filter="url(#prefix__a)"><g transform="translate(3.5 3.5) scale(7.03125)"><circle r="1" fill="#fff" fill-opacity=".5" transform="matrix(169.34527 -6.46673 1.88467 49.35416 118 28)"/><circle r="1" fill="#f2eedf" fill-opacity=".5" transform="matrix(189.37799 -4.57952 .3291 13.60967 142 162)"/><circle r="1" fill="#4075a9" fill-opacity=".5" transform="matrix(236.89933 -13.0713 2.30807 41.83066 160.5 85.6)"/><ellipse cx="110" fill="#f3ebd8" fill-opacity=".5" rx="254" ry="41"/><circle r="1" fill="#496c91" fill-opacity=".5" transform="matrix(-176.23214 14.6312 -2.64203 -31.82311 127.7 79)"/><ellipse cx="79" cy="142" fill="#050100" fill-opacity=".5" rx="186" ry="7"/><circle r="1" fill="#e8ddcc" fill-opacity=".5" transform="matrix(10.36608 -25.9136 18.35965 7.34432 158.4 24.4)"/><circle r="1" fill="#32567a" fill-opacity=".5" transform="matrix(-64.96225 .11338 -.04453 -25.51313 186.3 116.8)"/><path fill="#4b6e91" fill-opacity=".5" d="M271 47.2v-18L-16 95.9l265.6-8.3z"/><circle r="1" fill="#c2bfb7" fill-opacity=".5" transform="matrix(39.98514 11.81725 -5.29943 17.93128 7.5 40)"/><ellipse cx="116" cy="58" fill="#436a93" fill-opacity=".5" rx="31" ry="20"/><circle r="1" fill="#8e969e" fill-opacity=".5" transform="rotate(-6 1594.6 -58.7) scale(64.14464 15.04104)"/><path fill="#4a6d93" fill-opacity=".5" d="M169 82L61 42l-72 58z"/><circle r="1" fill="#a6acaa" fill-opacity=".5" transform="matrix(-38.07872 14.32177 -4.58955 -12.20271 225.8 26.8)"/><path fill="#252422" fill-opacity=".5" d="M170.5 153.7l-11.4 1.1 21.5-8.5.1 7.8z"/><ellipse cx="172" fill="#e3ddd3" fill-opacity=".5" rx="49" ry="24"/><path fill="#0c0b05" fill-opacity=".5" d="M0 135h56v16H0z"/><path fill="#aeafac" fill-opacity=".5" d="M124 154h111v13H124z"/><ellipse cx="69" cy="33" fill="#b1b5b6" fill-opacity=".5" rx="78" ry="10"/><ellipse cx="248" cy="123" fill="#305176" fill-opacity=".5" rx="170" ry="14"/><path fill="#14181a" fill-opacity=".5" d="M34 134h137v14H34z"/><ellipse cy="74" fill="#4d6f93" fill-opacity=".5" rx="238" ry="15"/><ellipse cx="10" cy="158" fill="#90969d" fill-opacity=".5" rx="65" ry="7"/><circle cx="242" cy="59" r="24" fill="#496b8d" fill-opacity=".5"/><path fill="#899193" fill-opacity=".5" d="M214 147h42v9h-42z"/><path fill="#52759a" fill-opacity=".5" d="M111 38l57 24-109 3z"/><path fill="#cfcec9" fill-opacity=".5" d="M82.3 52.1L20.3-16-16 15.4 95.2 43.9z"/><path fill="#b8b7b5" fill-opacity=".5" d="M-16 60.7l65.5-.9L43.2 41-6.5 15.9z"/><path fill="#bdbcb6" fill-opacity=".5" d="M198 47.5l45.7-26.7-93.6 30.3-45-36.9z"/><path fill="#171816" fill-opacity=".5" d="M209 138h47v9h-47z"/><circle cx="255" cy="16" r="21" fill="#aab2b3" fill-opacity=".5"/><path fill="#4b6e96" fill-opacity=".5" d="M75 42l-30 7 37 42z"/><path fill="#34577b" fill-opacity=".5" d="M172 103h30v39h-30z"/><ellipse cx="66" cy="145" fill="#0f1212" fill-opacity=".5" rx="100" ry="5"/><path fill="#030203" fill-opacity=".5" d="M172 151h10v3h-10z"/><ellipse cx="101" cy="135" fill="#202f40" fill-opacity=".5" rx="54" ry="4"/><circle r="1" fill="#d0cdc6" fill-opacity=".5" transform="matrix(-52.32761 -16.5993 3.82073 -12.04448 134.5 14.6)"/><ellipse cx="103" cy="151" fill="#7f878c" fill-opacity=".5" rx="49" ry="2"/><circle r="1" fill="#afb3b2" fill-opacity=".5" transform="matrix(1.1717 9.8807 -26.0231 3.08591 205.8 34.4)"/><path fill="#395b81" fill-opacity=".5" d="M68.9 129.2l51.2 3.9L271 88.3l-284 24.6z"/><circle cx="170" cy="152" r="2" fill-opacity=".5"/><path fill="#4e6f92" fill-opacity=".5" d="M85.1 68.8L5.5 94.9-16 71l31.2-12.2z"/><circle r="1" fill="#c9c6bf" fill-opacity=".5" transform="matrix(8.49995 25.5826 -7.09814 2.3584 144.6 27.5)"/><path fill="#16191c" fill-opacity=".5" d="M0 134h31v18H0z"/><path fill="#bfbfbd" fill-opacity=".5" d="M106 10L42 51l7-33z"/><circle r="1" fill="#dfd8cd" fill-opacity=".5" transform="matrix(21.97953 -1.41933 1.28643 19.9215 178.4 12.3)"/><ellipse cx="115" cy="60" fill="#507398" fill-opacity=".5" rx="30" ry="21"/><path fill="#171c21" fill-opacity=".5" d="M205 138h51v8h-51z"/><circle r="1" fill="#8e97a0" fill-opacity=".5" transform="matrix(26.22635 -3.17374 1.19444 9.87032 114.9 160.1)"/><path fill="#9ea09d" fill-opacity=".5" d="M165.4 147.6l60.9 3.4L76 185l126.1-27.1z"/><ellipse cx="204" cy="125" fill="#2e4e72" fill-opacity=".5" rx="117" ry="9"/><circle r="1" fill="#507295" fill-opacity=".5" transform="matrix(12.90762 -5.65181 6.00547 13.7153 192.8 58.8)"/><path fill="#547599" fill-opacity=".5" d="M51.9 57l-33.8 7.1 177.4-1.7L46.7 47.8z"/><path fill="#b0b7ba" fill-opacity=".5" d="M88 9l-7 38 33-12z"/><path fill="#42658a" fill-opacity=".5" d="M179.1 104.8L-16 94.3l82.2-7.5L271 78.6z"/><path fill="#5c6770" fill-opacity=".5" d="M220 153h36v1h-36z"/><path fill="#757e85" fill-opacity=".5" d="M26 151h60v3H26z"/><ellipse cx="252" cy="31" fill="#a5adaf" fill-opacity=".5" rx="24" ry="5"/><path fill="#4d6f92" fill-opacity=".5" d="M262.2 63.3l-98.6 26 70.3-54 37.1 5.9z"/><path fill="#bbb5b0" fill-opacity=".5" d="M38 57.1l-23 2.7-31 6 1.3-26z"/><path fill="#a7a6a3" fill-opacity=".5" d="M166.2 156.4l46.2-6.1-83.8 34.7 29.7-35.6z"/><path fill="#b2b6b4" fill-opacity=".5" d="M153 44l-50-11 40-5z"/><ellipse cx="150" cy="48" fill="#fcf0df" fill-opacity=".5" rx="4" ry="2"/><ellipse cx="218" cy="147" fill="#6f7465" fill-opacity=".5" rx="23" ry="1"/><ellipse cx="52" cy="122" fill="#34547a" fill-opacity=".5" rx="128" ry="6"/><ellipse cx="25" cy="137" fill="#1e2025" fill-opacity=".5" rx="68" ry="3"/><path fill="#070807" fill-opacity=".5" d="M0 149h84v1H0z"/><circle cx="110" cy="40" r="3" fill="#5b7596" fill-opacity=".5"/><ellipse cx="15" cy="159" fill="#8f959b" fill-opacity=".5" rx="32" ry="7"/><path fill="#b6baba" fill-opacity=".5" d="M128 22l-10 18-19-9z"/><circle r="1" fill="#b9b5b1" fill-opacity=".5" transform="matrix(-11.51267 -4.83817 1.58026 -3.76031 27.4 55)"/><path fill="#191d21" fill-opacity=".5" d="M151 135h20v13h-20z"/><path fill="#828b92" fill-opacity=".5" d="M231 147h24v4h-24z"/><path fill="#7a7a6f" fill-opacity=".5" d="M126 149.1v-1l44 .8v1z"/><path fill="#54769a" fill-opacity=".5" d="M110 42h29v15h-29z"/><ellipse cx="199" cy="38" fill="#aeb4b3" fill-opacity=".5" rx="26" ry="5"/><circle r="1" fill="#d2d2ce" fill-opacity=".5" transform="matrix(-3.06487 7.01521 -28.01664 -12.24017 5 6.1)"/><path fill="#ccbeb4" fill-opacity=".5" d="M42 54h6v4h-6z"/><ellipse cx="10" cy="150" fill="#010704" fill-opacity=".5" rx="30" ry="1"/><path fill="#d0ccc2" fill-opacity=".5" d="M232.2 2.6L172 40.2l-4.2-6.8L228-4.2z"/><path fill="#5b7797" fill-opacity=".5" d="M146.4 57.2l23.1-13.9 2.1 3.5-23.1 13.9z"/><path fill="#b5b8b6" fill-opacity=".5" d="M228.5 40.8L271-14.7l-63.9 33.4 1.7-6.1z"/><path fill="#305074" fill-opacity=".5" d="M175 141l39-7-46-7z"/><circle r="1" fill="#3f6187" fill-opacity=".5" transform="matrix(69.74548 3.51395 -.58753 11.66144 9 107.3)"/><path fill="#b8b3a8" fill-opacity=".5" d="M149 43h14v5h-14z"/><path fill="#727d8c" fill-opacity=".5" d="M102 167h32v2h-32z"/><path fill="#c4c2bd" fill-opacity=".5" d="M81 40l-23 2L42 9z"/><ellipse cx="84" cy="134" fill="#253954" fill-opacity=".5" rx="46" ry="1"/><path fill="#55769a" fill-opacity=".5" d="M77 55h79l-30-16z"/><ellipse cx="6" cy="73" fill="#4b6f94" fill-opacity=".5" rx="185" ry="11"/><path fill="#949ca5" fill-opacity=".5" d="M74 155h53v10H74z"/><circle r="1" fill="#2e4c6d" fill-opacity=".5" transform="matrix(3.08965 8.28528 -57.4705 21.43119 240 117.7)"/><path fill="#fff9eb" fill-opacity=".5" d="M156 48.8l-5.8 1.4-.2-1 5.8-1.4z"/><ellipse cx="126" cy="139" fill="#1f2022" fill-opacity=".5" rx="46" ry="2"/><circle r="1" fill="#b7b8b7" fill-opacity=".5" transform="matrix(8.13987 -6.35956 7.57437 9.69475 83 38.9)"/><ellipse cx="158" cy="150" fill="#7b7c7f" fill-opacity=".5" rx="23" ry="1"/><path fill="#929b9f" fill-opacity=".5" d="M265 158l-40-4-9 18z"/><path fill="#1e2326" fill-opacity=".5" d="M181 146l-2-3 1 9z"/><path fill="none" stroke="#727874" stroke-opacity=".5" stroke-width=".5" d="M187.9 148.9q-13.6-1.9-99 2.6"/><path fill="#dddad3" fill-opacity=".5" d="M241-2.5l-15.7 4.4-52.7 10.3L149.5-5z"/></g></g></svg>