<svg xmlns="http://www.w3.org/2000/svg" viewBox="0 0 1200 1800"><defs/><filter id="a"><feGaussianBlur stdDeviation="12"/></filter><rect width="100%" height="100%" fill="#334e5a"/><g filter="url(#a)"><g fill-opacity=".5" transform="translate(3.5 3.5) scale(7.03125)"><circle r="1" fill="#f1e3d3" transform="matrix(-10.29527 -154.27995 168.62497 -11.25253 60.7 72.2)"/><circle r="1" fill="#fff" transform="rotate(-78.8 46.6 -53.4) scale(74.97865 48.36457)"/><ellipse cx="75" cy="185" fill="#6d6859" rx="169" ry="66"/><ellipse cx="40" cy="6" fill="#f3ffff" rx="168" ry="10"/><circle r="1" fill="#baebff" transform="matrix(-32.23771 5.10595 -10.60392 -66.9505 81.6 65.6)"/><ellipse cx="76" cy="117" fill="#4494b8" rx="27" ry="54"/><circle r="1" fill="#806d59" transform="rotate(133.3 -13 34.2) scale(64.39997 30.08574)"/><circle r="1" fill="#fff" transform="matrix(26.57933 16.59582 -28.99756 46.44155 90.4 21.2)"/><circle r="1" fill="#6c6260" transform="matrix(8.34982 21.86603 -34.1941 13.05746 147.2 42.3)"/><path fill="#928177" d="M116 105h54v137h-54z"/><circle r="1" fill="#f4ce88" transform="matrix(1.62454 11.70745 -21.6046 2.99789 85.2 200.5)"/><circle r="1" fill="#576356" transform="matrix(76.79605 30.4057 -7.16034 18.08494 45.6 146.3)"/><circle r="1" fill="#3f3a33" transform="rotate(-13.8 985 -121.9) scale(9.48307 68.92878)"/><path fill="#e5d5b1" d="M48.8 67.6l5.7 99.4L33.6 65.7 16.7 37z"/><ellipse cx="126" cy="251" fill="#2d2011" rx="140" ry="6"/><path fill="#796859" d="M16 94h26v84H16z"/><ellipse cx="57" cy="4" fill="#d2ebff" rx="111" ry="13"/><circle r="1" fill="#84b5d6" transform="matrix(31.80374 32.13854 -15.58588 15.42351 80.1 98.4)"/><path fill="#64605f" d="M152 9.1l33-2-51.6 50.1 41.3 18.2z"/><circle cx="81" cy="146" r="31" fill="#4e888e"/><path fill="#afaa7e" d="M59 205l26-55 17 12z"/><path fill="#f6fbff" d="M51 14h63v50H51z"/><path fill="#a89176" d="M112 38h15v69h-15z"/><circle r="1" fill="#6a625f" transform="rotate(147.2 25.7 126.6) scale(55.07866 18.8517)"/><path fill="#a7a8ac" d="M149 148l21 67 15-68z"/><path fill="#646566" d="M16.8 79.2l-25.9-2.7 6.3-59.7 25.9 2.7z"/><path fill="#706c66" d="M151 150l-25-49 59 10z"/><path fill="#242223" d="M97 170h19v12H97z"/><path fill="#868380" d="M-6 219l53 32-16-98z"/><ellipse cx="120" cy="156" fill="#bd9e77" rx="6" ry="45"/><path fill="#336767" d="M53 140h29v34H53z"/><path fill="#484848" d="M70.7 223.7l5.1 47.3 6.1-63-54.6 6.8z"/><path fill="#9e9998" d="M148 223l-20-20 57 5z"/><path fill="#b0b8bf" d="M133 30h37v7h-37z"/><path fill="#c3b9b3" d="M130 71h22v33h-22z"/><path fill="#93bde1" d="M116 133L60 63l50 2z"/><circle r="1" fill="#ebf9ff" transform="matrix(-4.20171 -7.1421 31.67333 -18.6335 132.3 11.2)"/><path fill="#7b6a53" d="M-16 44.6l37.1 17.3 24.7-44.4 4.9 31.2z"/><path fill="#d7c7aa" d="M32 56L17 43l15-15z"/><path fill="#838a99" d="M151 9v26l-25-9z"/><ellipse cx="9" cy="100" fill="#c3cdd0" rx="9" ry="5"/><circle r="1" fill="#d0e6ff" transform="matrix(-1.8838 8.44742 -61.75996 -13.77271 53.2 13.4)"/><path fill="#f4deba" d="M41.4 112.6l9.9 25.9-4.3-19.8-23.1-3.4z"/><circle r="1" fill="#60554c" transform="matrix(-47.87407 -6.35893 1.16793 -8.79294 6.4 147.9)"/><path fill="#ecdaba" d="M78.2 193.9l10 6.4-13.4 7.6 30.5-5.3z"/><path fill="#fefeff" d="M49 47h63v18H49z"/><path fill="#6ca8cb" d="M50 73h18v59H50z"/><ellipse cx="46" cy="96" fill="#efd1a6" rx="3" ry="36"/><circle r="1" fill="#646057" transform="matrix(-2.78701 -8.47674 39.23712 -12.90051 22.6 236.8)"/><path fill="#5899ac" d="M103 119h12v33h-12z"/><circle r="1" fill="#595044" transform="rotate(170.1 8.8 56.8) scale(21.51109 1.77962)"/><path fill="#aeb588" d="M72.4 169.8l7 7.2-15.8 15.2-7-7.2z"/><path fill="#252521" d="M163.8 244.1l-37.6.4-34.8 5.2 48.9 10.3z"/><path fill="#675d51" d="M94.4 195l27.2 36.7 18.8-9.3-23.9-22.9z"/><path fill="#f2fbff" d="M139 0h31v9h-31z"/><path fill="#a9a987" d="M81.2 162.2l26.8 33.5-25.7-41.6-11.5 4.8z"/><path fill="#3a4b51" d="M88.3 155.7l12.1 1 13.2 7.5.9-13.9z"/><path fill="#5b5b59" d="M153 44h17v22h-17z"/><path fill="#a6866b" d="M88 223l13-19-34 4z"/><path fill="#c6bd7e" d="M61 204l-1.5 7.7 34.6-26.1-38.2 7.5z"/><path fill="#342e25" d="M4 52h19v4H4z"/><path fill="#dbeafa" d="M52 0h70v35H52z"/><ellipse cx="165" cy="13" fill="#898993" rx="24" ry="4"/><path fill="#aea48f" d="M0 63h16v9H0z"/><path fill="#807669" d="M133.5 74.6l-9.3 19-5.6 14.4 2.9 20.9z"/><path fill="#939799" d="M52 204.8l-68 9.5 23.9 12.5.8-8.5z"/><path fill="#6b6a66" d="M123 167h36v11h-36z"/><path fill="#514847" d="M19.5 189.8L-.6 184l1-3.8 20.2 5.8z"/><ellipse cx="169" cy="183" fill="#9d9da0" rx="44" ry="4"/><path fill="#887a6e" d="M40.1 125.2l-25.3-11.8-30.8-11.7 34.4 44z"/><path fill="#676056" d="M35.2 209.6l19.1-29-6-47.3-11 2.8z"/><path fill="#adadad" d="M134 151h36v6h-36z"/><path fill="#bca584" d="M29 91l13-47 5 33z"/><path fill="#9d9d9b" d="M122.4 37.5L110.5 70 151 22.4l-7-3.3z"/><path fill="#eff7ff" d="M102.7 16.1l43.1-.9-21.2 7.8-25.1 38.5z"/><path fill="#84858b" d="M182 242l-32-23-25 10z"/><path fill="#626058" d="M132 192h35v12h-35z"/><path fill="#a4adad" d="M14 82L-6 98l4-18z"/><path fill="#959798" d="M16.4 203.6l21.8 8.8-44.6-58.7L20.5 180z"/><path fill="#b5ab7e" d="M92 198l-15-18 34 13z"/><path fill="#706c6e" d="M148.2 74.7l-.1 6.1 10.8-2.8.6-3.4z"/><ellipse cx="30" cy="255" fill="#303631" rx="93" ry="8"/><path fill="#e9d9c8" d="M84.2 164.5l7.3 3.3-1.7 3.7-7.3-3.3z"/><ellipse cx="49" cy="123" fill="#ffedc8" rx="2" ry="12"/><path fill="#5c594d" d="M90.9 167.3l17.2 28.1 24.8 60.3-14.2-58z"/><circle r="1" fill="#767d84" transform="matrix(-.52577 6.00954 -25.12525 -2.19817 20.8 21.8)"/><path fill="#3e665f" d="M74.5 172.9l-22.8-7.7 41.9-6.3 4.5-10z"/><path fill="#7d7464" d="M22 64h9v32h-9z"/><path fill="#6d6e71" d="M96.1 251.9l36.7-69-51.4 79.3-1-9.4z"/><path fill="#a29682" d="M126.9 148.1l-2.5-41.6 27.8.2-19.9 16.6z"/><path fill="#6b6861" d="M129 153l-8-9 40-10z"/><path fill="#c0a77b" d="M102 201.2l2.2-8.1 13.9-8.7-23.7 30.2z"/><path fill="#686863" d="M127.6 46.5l21.3-6.3-6.7 25.4-12.4-4.1z"/><path fill="#5c4f52" d="M160 20l-16 12 41-10z"/><path fill="#c4c8c8" d="M28 33l-8-8 5-1z"/><path fill="#bcaa9d" d="M157 69h8v31h-8z"/><path fill="#60635e" d="M36 212l-26 38 27-18z"/><path fill="#71abbd" d="M113 118l-9 15-50-26z"/><path fill="#3e4145" d="M110 239v-10l-33 16z"/><path fill="#26323a" d="M12 112h13v3H12z"/></g></g></svg>