<svg xmlns="http://www.w3.org/2000/svg" viewBox="0 0 2688 4032"><defs/><filter id="a"><feGaussianBlur stdDeviation="12"/></filter><rect width="100%" height="100%" fill="#415832"/><g filter="url(#a)"><g fill-opacity=".5" transform="translate(7.9 7.9) scale(15.75)"><circle r="1" fill="#eee5bb" transform="matrix(55.51724 -122.4201 153.91262 69.79903 65.3 174.4)"/><path d="M53.5 126.2l2.4-22.8 60.6 6.4-2.4 22.8z"/><ellipse cx="123" cy="1" fill="#d3beb3" rx="20" ry="169"/><path fill="#484e3e" d="M183 174l-2.3 46-191.8-10 2.4-46z"/><ellipse cx="67" cy="147" fill="#f2f2b3" rx="169" ry="18"/><circle r="1" fill="#c3bb8a" transform="rotate(-97.2 24.4 -4.4) scale(62.32074 27.53587)"/><circle r="1" fill="#f2f2c4" transform="matrix(44.75986 -35.09621 14.78367 18.85432 159.6 106.9)"/><circle r="1" fill="#fcffcf" transform="matrix(36.00225 -6.63997 3.84908 20.8699 12 124)"/><path fill="#080618" d="M122.8 106.8l-82.6 28 51.3-6.2 7.9 23.5z"/><circle r="1" fill="#fad4c3" transform="rotate(110.2 12.5 54.2) scale(16.23537 44.58693)"/><circle cx="140" cy="48" r="36" fill="#755c59"/><path fill="#171620" d="M52.6 87.5l7.1 14 52.5 27.2-65.4 7.6z"/><path fill="#dff" d="M122.2-17.8L146-5.1l-12.2 23L110 5z"/><ellipse cx="75" cy="234" fill="#7dab60" rx="169" ry="35"/><path fill="#32233b" d="M30 37l91 8L84-2z"/><path fill="#41313c" d="M44 173l80-1-78 55z"/><circle r="1" fill="#43612b" transform="matrix(3.31347 -11.78804 38.58326 10.84527 0 81.4)"/><path fill="#c4e681" d="M-16 214l48-4 15-31z"/><path fill="#58623e" d="M-12 75l1-91 33 63z"/><circle r="1" fill="#bdd1d0" transform="matrix(21.90298 -6.4585 2.08193 7.06052 117.3 10)"/><path fill="#cef28b" d="M104 212v33l35-72z"/><ellipse cx="65" cy="154" fill="#e8e0a9" rx="35" ry="17"/><path fill="#121c21" d="M152.5 30l.4-22.4-17.7 4-.6 22.4z"/><ellipse cx="104" cy="71" fill="#cdbc9f" rx="28" ry="23"/><path fill="#5d484c" d="M13.9 156.6l33.3 20.8-63.2 15v-31.1z"/><path fill="#96a273" d="M64.6 122.4l-13.4 24.4 24.7-11.3 7.7 4.7z"/><path fill="#dcf397" d="M98 271h36l-2-45z"/><circle r="1" fill="#7b6c5b" transform="matrix(-17.28873 -7.77452 9.8742 -21.95794 150.2 55.8)"/><path fill="#dfb8b1" d="M185 83.1v-8.2l-39.7 1-33.5 37.5z"/><circle r="1" fill="#4e703f" transform="matrix(16.45801 -30.69406 8.07753 4.33114 2.6 255.2)"/><path fill="#697559" d="M138 251l-14-103 61 56z"/><path fill="#c6e06e" d="M54 19l11-6L44-7z"/><path fill="#595a4d" d="M115 26l31 32-99-24z"/><path fill="#000007" d="M109 125l-12 1 1 19z"/><path fill="#708340" d="M26.2 114l17.5 4.3-2 7.8-17.4-4.4z"/><path fill="#f3e3c9" d="M0 128h45v23H0z"/><ellipse cx="36" cy="160" fill="#858060" rx="40" ry="3"/><path fill="#0e0c15" d="M71 109l-15 28-7-36z"/><circle r="1" fill="#4c5943" transform="matrix(-14.32048 17.9436 -3.49866 -2.79222 123.2 226.9)"/><path fill="#5d8c57" d="M39 93l56 3-41-23z"/><path fill="#c189b7" d="M102 102l-50-8 38 17z"/><circle r="1" fill="#3d333f" transform="rotate(58.5 34.8 102.4) scale(2.61838 12.11957)"/><ellipse cx="105" cy="111" fill="#3d304e" rx="24" ry="4"/><path fill="#e0feae" d="M115.7 20.3l.8-.6 21.8 30-.8.6z"/><path fill="#f8f0bc" d="M81 131h15v28H81z"/><path fill="#e1c5a6" d="M104 51L6 59l39-24z"/><path fill="#7eac65" d="M174.8 117.5l-16.4 4.4-5.2-19.4 16.4-4.4z"/><circle r="1" fill="#bee79e" transform="rotate(-55 318.8 -14.6) scale(29.31789 5.08039)"/><circle r="1" fill="#eef7c3" transform="matrix(.01887 -7.56648 28.05055 .06994 140.4 128.5)"/><path fill="#8b7f6f" d="M132-13l22 26 31-28z"/><path fill="#d2b58b" d="M102.2 27.9l19.3-14.3.3 5.2-20.1 17.1z"/><path fill="#5a6340" d="M3 60l53-39-29 4z"/><path fill="#cdc9a5" d="M175.5 105.7L-16 30.3l75.3 12-25.3 31z"/><path fill="#29211f" d="M97 138l-2-20 14 35z"/><path fill="#525648" d="M83.5 187.6l-10.2 60.1 16.9-5.8-28.7-38.4z"/><path fill="#afa170" d="M156 32h6v40h-6z"/><path fill="#1e2125" d="M75.6 9.3l13.1-21-46.7 48 57.4-13.2z"/><ellipse cx="158" cy="150" fill="#b5cd7d" rx="41" ry="15"/><path fill="#4a4e3d" d="M108 192.3l.7 12.1-50.2-21.8 82.8-12.8z"/><circle r="1" fill="#9bc181" transform="matrix(.8188 5.88578 -52.82116 7.34825 64.5 226.8)"/><path fill="#5b3c43" d="M132 65h38v10h-38z"/><path fill="#fff" d="M101.8 18.4l-2.4-3.2 12.8-9.6 2.4 3.2z"/><path fill="#dbf1a0" d="M-16 113l19.2 16.8 38.9-37.7 8.6 23.5z"/><path fill="#434048" d="M44 9.7l58.6-.6L135.4-16l-21.6 1.5z"/><path fill="#12100f" d="M56 118h3v25h-3z"/><path fill="#000204" d="M83 126l-8 1 1 8z"/><path fill="#b3d48d" d="M18.5 179l-9.4 39.7 9.7 2.6 2.7-21.4z"/><path fill="#3e473a" d="M117.3 43.3l7.6-14.5.2-12.1-27.4 26.1z"/><path fill="#535941" d="M35.3 22.8L-1.9 43.6l25.2-23.4-5.1 23.9z"/><path fill="#afe5a3" d="M80 208l1 10 11-24z"/><path fill="#e9e4ae" d="M122.9 154.2l-20.8-22.8 10.8 36.5L-16 134.8z"/><circle r="1" fill="#b1c983" transform="matrix(-16.27496 52.54266 -5.52247 -1.71057 96.5 252.5)"/><ellipse cx="57" cy="85" fill="#7d906d" rx="7" ry="20"/><path fill="#202024" d="M45.7 133l25.2-11 5-9.8L46.3 123z"/><path fill="#a5a485" d="M118.1 55l-12.9 23.5 25.9-25.1-8.7-28.2z"/><path fill="#998e75" d="M53.6 141L4.3 175.2l87.3 21.3-85-28.8z"/><path fill="#93966f" d="M68.8 167.5l-27.7 19.1 17.1-9.6 123.4-11.5z"/><path fill="#544646" d="M84 209l25 10-7-11z"/><ellipse cx="66" cy="128" fill="#b6d986" rx="5" ry="4"/><path fill="#333f26" d="M19 0h9v11h-9z"/><path fill="#a2bd75" d="M11 57.4L30.6 65 23 84.6 3.4 77z"/><path fill="#a3af68" d="M-15 51.4l27.4-35.3L73-11.5 51.3-5.3z"/><path fill="#8b8d7a" d="M107.4 4l53.2 49.4-25.9-7.2-11.5-40.1z"/><path fill="#d5f47e" d="M32 26l13-6-12-3z"/><path fill="#e0c9b5" d="M113 87h41v21h-41z"/><circle r="1" fill="#76a24c" transform="matrix(3.73697 8.05815 -32.6635 15.1477 47 255)"/><path fill="#3c2827" d="M142.8 83l-4.3 2.6-5.3-8.5 4.3-2.7z"/><circle cx="102" cy="120" r="14" fill="#292832"/><path fill="#9d92b6" d="M112 109h3v13h-3z"/><path fill="#9d8470" d="M98.6 41l5.3 29.4 28.6 12.8-13.4-14.9z"/><circle cx="135" cy="53" r="5" fill="#1b2b17"/><path fill="#121113" d="M20.7 5.4L-.4 11.5l-.3-1 21.1-6z"/><path fill="#afda80" d="M118 203l-2-11 24-15z"/><path fill="#556b3d" d="M21 95l-37-54 20 59z"/><path fill="#3b412c" d="M-16 64.5l32.4-33.6L-16 56.3l31-6.1z"/><path fill="#68935c" d="M81.1 94.2l-9.4-3.3 5.2-15 9.4 3.2z"/><path fill="#dcbec0" d="M93 5.1L84.4-.3l.6-.8 8.4 5.4z"/><path fill="#b1ec44" d="M166.1 147.6l18.9-15.4-28 7.1 24.3-24.6z"/><path fill="#dab7bf" d="M64 93h12v11H64z"/><path fill="#3d272f" d="M-13 204l5-32 23 7z"/></g></g></svg>