<svg xmlns="http://www.w3.org/2000/svg" viewBox="0 0 1800 1200"><defs/><filter id="a"><feGaussianBlur stdDeviation="12"/></filter><rect width="100%" height="100%" fill="#344054"/><g filter="url(#a)"><g fill-opacity=".5" transform="translate(3.5 3.5) scale(7.03125)"><circle r="1" fill="#fffff8" transform="matrix(3.45468 54.8363 -254.49546 16.03318 157 41.6)"/><circle r="1" fill="#f0efeb" transform="matrix(-29.51916 32.36498 -84.04873 -76.65842 195.8 31.4)"/><path fill="#342613" d="M69 72l141-7-88 120z"/><circle r="1" fill="#dad5cc" transform="matrix(-5.20233 35.8936 -61.5065 -8.9146 0 81.4)"/><ellipse cx="64" cy="163" fill="#181b17" rx="123" ry="36"/><circle r="1" fill="#717984" transform="matrix(19.64094 -23.99797 61.5975 50.41398 54.7 37.5)"/><ellipse cx="155" cy="100" fill="#3f3223" rx="50" ry="27"/><ellipse cx="153" cy="13" fill="#dedfe0" rx="61" ry="29"/><circle r="1" fill="#63503c" transform="matrix(52.78888 -2.23335 .7325 17.31374 85 112.2)"/><path fill="#bdbfbf" d="M171.6 37.2l74.6 60.5-13.8 17-74.6-60.4z"/><ellipse cx="207" cy="121" fill="#4d4437" rx="211" ry="16"/><circle r="1" fill="#616b78" transform="rotate(178.1 18.7 .3) scale(41.64465 27.74348)"/><path fill="#adaeb0" d="M63 103l-34.3 6.8L17 48.9l34.4-6.7z"/><circle r="1" fill="#b8bcbf" transform="matrix(33.45353 -63.7635 42.91709 22.51646 255 37.1)"/><path fill="#93979c" d="M100 92L27 79l130-18z"/><ellipse cx="244" cy="143" fill="#6b6a69" rx="40" ry="13"/><path fill="#d1d2d2" d="M-14.6 130.9l34.5-20.1-35.9-73 50.1 21.7z"/><circle cx="155" cy="127" r="57" fill="#373634"/><circle r="1" fill="#302b28" transform="rotate(-111.1 73.9 25) scale(7.72358 25.47791)"/><circle r="1" fill="#e4e4e3" transform="matrix(-9.71489 25.84605 -10.51548 -3.9525 162 40.6)"/><circle r="1" fill="#abaeb1" transform="rotate(96.9 39.5 63.8) scale(15.37383 33.00653)"/><ellipse cx="204" cy="130" fill="#050400" rx="49" ry="2"/><path fill="#172028" d="M42 128.2l95 1.6-1 58-95-1.6z"/><ellipse cx="87" cy="117" fill="#5a4f47" rx="79" ry="10"/><circle r="1" fill="#6f7281" transform="matrix(-19.23152 -4.36317 1.59168 -7.01563 240 112.1)"/><path fill="#99a0a8" d="M174 56h28v20h-28z"/><path fill="#72777d" d="M72 56h42v36H72z"/><path fill="#201a10" d="M245.4 129.7l3.4-5.8-18.1-1.4-112.5 7.9z"/><circle r="1" fill="#33393d" transform="matrix(105.39466 27.06075 -4.39851 17.13107 203.6 162.8)"/><circle r="1" fill="#979ba0" transform="matrix(18.99174 3.05426 -3.82332 23.77386 127.5 54)"/><circle r="1" fill="#b6babc" transform="matrix(15.67258 4.31695 -16.0831 58.3893 239.1 51.3)"/><path fill="#3d3327" d="M229 119.6L204.4 135 189 110.4 213.6 95z"/><ellipse cx="101" cy="103" fill="#433a32" rx="40" ry="13"/><ellipse cx="28" cy="100" fill="#9c9da0" rx="35" ry="9"/><path fill="#e1e3e3" d="M165 54L105-2l101 46z"/><ellipse cx="160" cy="84" fill="#3d3731" rx="20" ry="18"/><circle r="1" fill="#595f67" transform="rotate(88.8 55.6 197) scale(6.00466 78.76035)"/><path fill="#e4e5e3" d="M8.3 48.2l9.4 23.1-26 10.5-9.4-23.1z"/><path fill="#c5cacf" d="M247-16L214 89l-33-67z"/><path fill="#5d5652" d="M-16 128l63-24 58 18z"/><path fill="#a1a09f" d="M38 72l22 34 12-35z"/><path fill="#b8bcbd" d="M151.2 14.3L99.5-8.9 148.8.2l16.7 6.9z"/><path fill="#b2b5b7" d="M85 36l37 2-31-54z"/><path fill="#adacab" d="M268 106l3-93-43 88z"/><path fill="#babcbb" d="M151 50l-31 28 64-28z"/><path fill="#5e554a" d="M151 107h37v8h-37z"/><path fill="#3a3d41" d="M0 135.2L32 164 8 190.8-24 162z"/><path fill="#5c5f6b" d="M253 136l18-28-33-4z"/><circle r="1" fill="#9da2a6" transform="matrix(14.79614 8.94165 -3.32646 5.50444 181.3 68.5)"/><circle r="1" fill="#10161b" transform="matrix(34.64968 -6.942 2.12108 10.58696 71 169)"/><path fill="#242930" d="M262 173L87 139l24 46z"/><path fill="#c0c1bc" d="M203 67h39v28h-39z"/><ellipse cx="23" fill="#646d7a" rx="26" ry="16"/><circle r="1" fill="#3e444b" transform="matrix(-33.1435 -4.36343 1.2363 -9.39057 178.7 144.3)"/><path fill="#67584c" d="M116.4 97.2l-34.1 20.6 43.1-16.4-12.6-3z"/><circle r="1" fill="#b0b0af" transform="rotate(-167.1 22.8 42.3) scale(30.18432 13.39872)"/><path fill="#898e94" d="M105 39l36 12-30 34z"/><circle r="1" fill="#525862" transform="matrix(1.97711 5.1238 -42.5866 16.4328 15 121.5)"/><path fill="#8f9093" d="M48.8 71.9l-2.4-23.6 49.2 43L64.7 95z"/><path fill="#8c929a" d="M68.6 6.9l-8.6-2 19.5 48.2L84-16z"/><path fill="#2f2c26" d="M134 136l68-25-43 3z"/><path fill="#372e27" d="M117.9 81.6l7.5-2.7 2.7 7.5-7.5 2.7z"/><path fill="#afb1b2" d="M41 40l8 37-25-22z"/><ellipse cx="11" cy="108" fill="#bbbab5" rx="18" ry="4"/><path fill="#423c34" d="M214 106l-25-28-21 60z"/><path fill="#6d727b" d="M96 62.8l13.8 5.7-15.2 12-34.1-12.6z"/><ellipse cx="166" cy="130" fill="#1c1e1b" rx="53" ry="3"/><path fill="#797d86" d="M225 132h31v4h-31z"/><path fill="#6e5a4a" d="M97 107l-53 14 46 1z"/><circle r="1" fill="#b5bac2" transform="matrix(-19.95616 8.70264 -11.84884 -27.17075 245.8 28.8)"/><path fill="#e3e3e2" d="M110.9 13.7l49.8-.1-9.5 41.5L123.9-.2z"/><path fill="#3b3732" d="M55.7 117l69.8-18.5-60.3-3-5.4 12.3z"/><path fill="#80858d" d="M2.3 104.8L-16 96.2l77.4 9.9-5.3 1.3z"/><path fill="#b8b9b6" d="M228 106l21-25-64-5z"/><path fill="#4c4f55" d="M208.2 165l62.8-7.3-71.1-23.8 37.9 2.7z"/><ellipse cx="233" cy="112" fill="#63656c" rx="9" ry="8"/><path fill="#ced0d3" d="M213 59l-54-8 47-57z"/><circle r="1" fill="#8f939a" transform="rotate(-75.9 34 8.7) scale(5.92162 46.24416)"/><circle r="1" fill="#a49a93" transform="matrix(-2.24058 .44232 -.26358 -1.33516 51.3 122.6)"/><circle r="1" fill="#83858a" transform="matrix(2.60168 -5.41271 8.31456 3.99649 108.5 83.1)"/><path fill="#c6c6c2" d="M49.6 88.7l-15.5-7.9-19.8 13.9 13.5-3.2z"/><path fill="#bdc0bf" d="M143.2 50.1l-4.5-19.7L151 47.2l30.2 27.5z"/><path fill="#332c24" d="M113 122h21v7h-21z"/><path fill="#4f483d" d="M195 94l25 10-10-10z"/><path fill="#463d35" d="M140.2 69.4l1.9-.1L91.6 107l77.2-37.7z"/><path fill="#c4c5c6" d="M101 14h29v11h-29z"/><path fill="#7b8189" d="M69.2 76.9l33-19.5-44.7-21.7 15.3 49.2z"/><path fill="#494239" d="M46.1 126.9l24.7 5-29.4-11.6-57.4 15.1z"/><path fill="#63564a" d="M124.9 113l12.8 11.4 20.9-16.6-11.9 15.9z"/><path fill="#56585c" d="M4 163l11 11-31 3z"/><path fill="#acafb3" d="M103.8 23.7L107 39 76.7 22.8 103.8-16z"/><circle r="1" fill="#777f8b" transform="matrix(-1.3295 -8.18645 26.4082 -4.28876 42.3 24.3)"/><path fill="#20272c" d="M21.8 163.1l-5.5.8-12.7-14.8 83.5 2z"/><path fill="#9e9fa3" d="M-16 84.3l34.3 10.1 14.2 15.3-4.9 1.1z"/><path fill="#a1a1a4" d="M239 83l27-6 5 51z"/><ellipse cx="218" cy="128" fill="#131412" rx="29" ry="2"/><path fill="#9ea0a3" d="M39.6 80.4l3.7-13.5 25 6.7-3.6 13.5z"/><circle cx="222" cy="104" r="3" fill="#cccac1"/><path fill="#c4c8ca" d="M204 0h13v95h-13z"/><path fill="#9ea1a4" d="M173.8 61.1l34.1 3.7-32.6 10.8-6.3-17z"/></g></g></svg>