<svg xmlns="http://www.w3.org/2000/svg" viewBox="0 0 1800 1200"><defs/><filter id="a"><feGaussianBlur stdDeviation="12"/></filter><rect width="100%" height="100%" fill="#2a4e52"/><g filter="url(#a)"><g fill-opacity=".5" transform="translate(3.5 3.5) scale(7.03125)"><circle r="1" fill="#e7c1ad" transform="rotate(-84.7 133.5 -4.2) scale(71.37802 254.99999)"/><circle r="1" fill="#472c19" transform="matrix(-53.54577 13.41527 -46.74444 -186.5759 205.8 38.5)"/><circle r="1" fill="#cfd7db" transform="matrix(4.64843 14.74293 -67.10165 21.15707 96.9 103.3)"/><ellipse cx="156" cy="18" fill="#251a18" rx="163" ry="35"/><circle r="1" fill="#a69989" transform="matrix(212.2974 -82.64803 7.48216 19.21937 226.5 117.8)"/><ellipse cx="157" cy="67" fill="#82999d" rx="254" ry="9"/><ellipse cx="59" cy="20" fill="#484846" rx="69" ry="43"/><ellipse cx="177" cy="95" fill="#2d2722" rx="7" ry="53"/><ellipse cx="18" cy="77" fill="#61889c" rx="55" ry="35"/><circle r="1" fill="#a7bec2" transform="matrix(-95.09222 14.88228 -1.32074 -8.43902 51 76.9)"/><ellipse cx="84" cy="160" fill="#a79d93" rx="105" ry="59"/><path fill="#41525b" d="M-16 97.7l2.9 34.5 31.4-17.5 51.5-25.1z"/><circle r="1" fill="#79664d" transform="matrix(-61.944 53.52123 -13.5435 -15.67488 202 157.8)"/><ellipse cx="224" cy="27" fill="#0e1b1c" rx="105" ry="23"/><circle r="1" fill="#5d4427" transform="matrix(-3.51812 -15.27018 35.90599 -8.27243 245.7 74.2)"/><path fill="#d3d9d9" d="M133.3 79.1l-77.8 32.2 106.4-16.8 1.9-17.8z"/><path fill="#f0d8ab" d="M271 80l-38 18 38 9z"/><path fill="#47555e" d="M142.8 78.7l14.7-5.4.6-14.7-31-8.3z"/><ellipse cx="59" cy="52" fill="#493b27" rx="54" ry="5"/><path fill="#6f6356" d="M26 152l36-19 44 4z"/><path fill="#e6e4d7" d="M70 69h35v7H70z"/><path fill="#1c2629" d="M44-13l13 51-64 4z"/><path fill="#baa995" d="M196 78l-15-9 48-11z"/><path fill="#f4edde" d="M123 53l15 15-19-5z"/><path fill="#09141c" d="M19 116l-35 8 11-14z"/><path fill="#625e52" d="M68-16H31l61 67z"/><path fill="#353028" d="M153.8 2.8l25.8 74-37.2 38.2 47.9-30.6z"/><circle r="1" fill="#cac0a9" transform="matrix(2.56425 .1759 -1.57009 22.88965 166.7 109.5)"/><path fill="#628396" d="M35 42h46v5H35z"/><path fill="#fff" d="M4.8 2.7L1.8-16-2.4 1l-5.9 6z"/><path fill="#3b3a37" d="M187.5 108.3L159 144.4l33.7-67.7-13.6 48.9z"/><ellipse cx="56" cy="91" fill="#698087" rx="27" ry="13"/><path fill="#f2f1e9" d="M13 114l21-3-10-2z"/><path fill="#a5a39e" d="M151 185l-167-24 153-25z"/><ellipse cx="216" cy="165" fill="#876f50" rx="47" ry="16"/><path fill="#c4af9c" d="M167.1 65.6l1.6-5.7 5.6 14.8-15.1-1z"/><circle r="1" fill="#2d2b25" transform="matrix(14.1964 .26517 -.1451 7.76838 178.6 86.6)"/><path fill="#a5abaa" d="M44 114h124v8H44z"/><path fill="#72614b" d="M185.3 88.6l85.7 73.7-14.5-58.3-20.7 1.4z"/><path fill="#648590" d="M42 72l-58-22L98 60z"/><circle r="1" fill="#222421" transform="matrix(35.12697 .91816 -.36205 13.8513 145.6 42.1)"/><ellipse cx="113" cy="79" fill="#3b6793" rx="13" ry="4"/><ellipse cx="122" cy="52" fill="#4f493e" rx="45" ry="4"/><path fill="#597e91" d="M107 66l-34-8 54-5z"/><path fill="#877363" d="M178 129l-27 5 60 42z"/><path fill="#b29e89" d="M166 135l11-11-1 48z"/><path fill="#827769" d="M130 123l2.3 10.7L60 149l-2.3-10.8z"/><path fill="#b1bbbd" d="M-4 124l36-9v11z"/><path fill="#020202" d="M232 55l29 1 10-11z"/><path fill="#8a867f" d="M188 112l-9 39 56-36z"/><path fill="#2d2f29" d="M219 147h33v4h-33z"/><path fill="#4f4b47" d="M167 133.7l9.3-84.7 2.3 96.4 15.7-50.9z"/><path fill="#c7b392" d="M271 104l-14-16-28 15z"/><path fill="#74624c" d="M205 82.3l14.7-31.8-26.4 15.4 45.1-4.4z"/><path fill="#1f2624" d="M130.1 17.2L210.7-16l-39.6 84.9 21.1-3.7z"/><path fill="#678596" d="M8.3 49L-16 143.3l5.2-101.1 73.1 3.7z"/><circle r="1" fill="#9d9387" transform="matrix(-29.4968 2.09374 -.6539 -9.21208 57.2 131.4)"/><circle r="1" fill="#3a3a35" transform="matrix(40.84097 -39.86612 8.31078 8.514 124 16)"/><path fill="#341d0a" d="M150 103h5v8h-5z"/><path fill="#efe8d1" d="M165 104h3v21h-3z"/><path fill="#d6d9cd" d="M92 69l2 14 13-16z"/><path fill="#81786e" d="M60.8 139.8l1 9-70.6 7.4-1-9z"/><ellipse cy="84" fill="#8ca6b5" rx="42" ry="10"/><path fill="#7c939f" d="M126.3 64.1L98 76.3l19 8-62 17.6z"/><circle cx="160" cy="71" r="8" fill="#8a9aa9"/><path fill="#53697c" d="M122.7 82.5l34.8-12 14.4-4.9-36.6 2.8z"/><path fill="#989991" d="M142.6 114.3l16.7-20.5-34.7 5.4L87 117.7z"/><path fill="#a8a79e" d="M184.3 73.2l38.3-2.9-30.9-6.1-11 9.6z"/><path fill="#5d6a73" d="M22 118.5L2.8 98.8l7.6 17.6 34.9-3z"/><path fill="#b7a489" d="M141.7 154l23.4-12.2 7.7 38.6-14.4-17.5z"/><path fill="#526d73" d="M88.6 54.6L-16 69.2V57.9l36.4.6z"/><path fill="#d6dbda" d="M130 84l-37 20 60-11z"/><path fill="#c5c3ba" d="M77 107.1L50.7 114l20.7-19.1L86.6 106z"/><path fill="#765e44" d="M176 135l21 50-18-19z"/><path fill="#526569" d="M47 84h14v17H47z"/><path fill="#7e6d54" d="M181 106l64-20-28 30z"/><path fill="#1d2a33" d="M94 7l32-3-26 26z"/><path fill="#374138" d="M146 62.5v-9h20v9z"/><path fill="#362d25" d="M175.6 94.3l-13.3-7 6.1-11.6 13.3 7z"/><path fill="#8e8883" d="M117 55h23v3h-23z"/><path fill="#bfa68d" d="M191 97l-12 11 7-2z"/><path fill="#604f3b" d="M271 84.5l-15.6-27.4-37.2 5.9 22.2 26.6z"/><path fill="#ccbca4" d="M211 60h19v2h-19z"/><path fill="#86725d" d="M158.7 133.6l16.5 9-9.4 13.3 20.9 28.4z"/><path fill="#575a48" d="M184 59h23v7h-23z"/><path fill="#969977" d="M107 67h22v9h-22z"/><path fill="#1e251f" d="M181 70l9 11-5 22z"/><path fill="#2b3233" d="M0 4h43v39H0z"/><path fill="#434f51" d="M34.4 97.8l.2 6-27 .4-.2-6z"/><path fill="#aea993" d="M166 94l6 4-2 7z"/><path fill="#605543" d="M219.7 92.4l-62.2 1.3 13.5-3.3 71.5-11.7z"/><path fill="#fffae0" d="M162 63l-4 1-1 2z"/><path fill="#d2c2a7" d="M148 148h22v4h-22z"/><path fill="#605d54" d="M65.4-15.2L71 45.5l8.8-59 2.3 16.4z"/><path fill="#343c42" d="M182 147h58v2h-58z"/><ellipse cx="10" cy="163" fill="#aba79e" rx="22" ry="9"/><path fill="#e3ccad" d="M170.4 143.5l5.3-11.8 1.9.8-5.3 11.8z"/><path fill="#bca487" d="M171.9 130.8l10.1 44.7.1 9.5-6.9-25.8z"/><path fill="#eac49f" d="M174.7 77.1l-.9.5-8.5-14.7.9-.5z"/><path fill="#9eadb7" d="M124 80l-28 6-17 26z"/></g></g></svg>