<svg xmlns="http://www.w3.org/2000/svg" viewBox="0 0 1800 1232"><defs/><filter id="a"><feGaussianBlur stdDeviation="12"/></filter><rect width="100%" height="100%" fill="#2f4e45"/><g filter="url(#a)"><g fill-opacity=".5" transform="translate(3.5 3.5) scale(7.03125)"><circle r="1" fill="#fff" transform="matrix(4.1086 -69.05341 238.90502 14.21455 117.3 50)"/><path fill="#9b766d" d="M88.7 140L8 188.6-36.8 114 44 65.5z"/><circle r="1" fill="#d0d3e6" transform="rotate(-33.2 152 -120.8) scale(40.71951 52.68025)"/><path fill="#f0f5ff" d="M-16 5L3 125 36-11z"/><path fill="#4c3827" d="M56 112L36 10l-19 98z"/><ellipse cx="158" cy="131" fill="#7a6961" rx="255" ry="18"/><circle cx="195" cy="8" r="25" fill="#ffe8de"/><ellipse cx="235" cy="48" fill="#5f77ac" rx="98" ry="20"/><path fill="#e7e9e0" d="M56 61h32v53H56z"/><path fill="#c1c9d5" d="M31.8 146.7l-2 13.9-37.6-5.3 2-13.9z"/><circle r="1" fill="#91a6cb" transform="matrix(82.59379 26.47789 -11.99997 37.4321 90.6 11.4)"/><circle r="1" fill="#d3cacd" transform="rotate(125.3 84.5 102.7) scale(34.68017 9.76902)"/><ellipse cx="110" cy="141" fill="#dadddb" rx="51" ry="2"/><ellipse cx="145" cy="85" fill="#bcbbc2" rx="31" ry="30"/><ellipse cx="174" cy="174" fill="#162820" rx="81" ry="23"/><path fill="#ecefea" d="M-16 100.6L3.9 39.9l11.2 50.2-1.2 20.2z"/><ellipse cx="105" cy="131" fill="#1c362b" rx="52" ry="8"/><circle r="1" fill="#201501" transform="matrix(-2.1668 -4.77144 10.4258 -4.73456 168.7 119.5)"/><path fill="#2a2816" d="M-16 172l75 12 33-31z"/><path fill="#694e3f" d="M26 32h20v26H26z"/><path fill="#695748" d="M14 73h43v25H14z"/><path fill="#9da0a1" d="M176 145h57v5h-57z"/><path fill="#667a9d" d="M252.8-41l38 12.3L257.3 75l-38-12.3z"/><path fill="#939795" d="M128 94l44-21L70 86z"/><path fill="#e1af7e" d="M141.9 128.8l2.5-11.7 9.7 2-2.5 11.8z"/><path fill="#243d30" d="M114 113h19v27h-19z"/><path fill="#91968d" d="M50.9 139.2l44.5-6.3 1.7 12-44.5 6.2z"/><path fill="#e9d7c6" d="M152.1 25.2l-11.5-20L152-1.1l11.5 20z"/><path fill="#b3a498" d="M32.2 29.7l1.5 36.9 30.4 5-53.7 3z"/><path fill="#a2abbe" d="M237 83l34 43-126-57z"/><path fill="#87786e" d="M201 123l-14-26-18 50z"/><path fill="#e7dfd0" d="M139 55L82 77l78-7z"/><circle r="1" fill="#adbfd4" transform="matrix(-18.27858 -1.82445 3.18215 -31.88102 55.6 7.4)"/><circle r="1" fill="#889cb7" transform="matrix(27.95561 16.19527 -12.78874 22.07539 186 74)"/><path d="M212 115h11v5h-11z"/><ellipse cx="105" cy="142" fill="#b2b1ae" rx="50" ry="2"/><ellipse cx="22" cy="100" fill="#b48b67" rx="3" ry="32"/><path fill="#dce4ed" d="M5 42h21v21H5z"/><circle r="1" fill="#7f96b4" transform="matrix(9.67342 33.29612 -26.264 7.6304 114.6 6.8)"/><path fill="#698275" d="M96.4 138.4l-17-1.6 35.4-23.5 14.1-19.9z"/><path fill="#796964" d="M236 125l-37-8 51 50z"/><ellipse cx="7" cy="137" fill="#1b2827" rx="25" ry="3"/><path fill="#15110d" d="M80.1 128l-.3 9-24-1 .4-9z"/><path fill="#848785" d="M8.1 123.1l68.1 20.3-92.2-11.8 37.3-32.4z"/><ellipse cx="35" cy="24" fill="#3b3a2f" rx="2" ry="41"/><circle r="1" fill="#c1bbba" transform="rotate(46 113.1 266.2) scale(14.1299 51.40588)"/><path fill="#bdcad5" d="M45 3l70 94-66-37z"/><path fill="#6d829b" d="M179 38l-18-23-11 29z"/><path fill="#687e5d" d="M81.7 174.9l-9.3 1.8 43.8-38.9L75.7 190z"/><path fill="#5f5f53" d="M103 105l3 20-11-17z"/><path fill="#312d24" d="M221.8 135.9l-23.4.6-22.9-21.3-17.1 9.8z"/><path fill="#4b463c" d="M26 73h13v55H26z"/><path fill="#bb8342" d="M178 101h8v18h-8z"/><path fill="#ebece4" d="M56 77h11v29H56z"/><circle cx="15" cy="66" r="3" fill="#393a33"/><path fill="#e7af7a" d="M160 128h12v4h-12z"/><path fill="#e0d7c6" d="M223 103.5l-4-31.8 10-1.2 4 31.8z"/><path fill="#a4a7a5" d="M240.8 98.4l-5.4 46.1-2.1-59.4-34.2 2.3z"/><path fill="#2f141a" d="M243.1 151l11.9-9 16 13.3-26.3 6z"/><path fill="#c6c1b3" d="M116 75L68 86l18 33z"/><path fill="#2b3c31" d="M26 181l45-35 41-1z"/><path fill="#171207" d="M220 121.7l63.9-4.4v1l-63.8 4.4z"/><path fill="#e8ded0" d="M168.7 14.3L178.2.2l29 19.5-9.4 14.1z"/><path fill="#d2cfc5" d="M117.8 108.3l22.9 4.3 23.4-15.1-31.9 1.8z"/><path fill="#283f2d" d="M96 146h84v3H96z"/><path fill="#dadacf" d="M.2 118.7l-4.7-41.8 21.1 39.8-5-39.2z"/><path fill="#b1c2d4" d="M3 0h32v29H3z"/><path fill="#cfcbbf" d="M198 100h12v21h-12z"/><path fill="#838387" d="M171 133h23v9h-23z"/><circle cx="22" cy="149" r="8" fill="#a5a9ae"/><path fill="#a39d98" d="M36 133h4v24h-4z"/><path fill="#a7afb4" d="M220 108h36v9h-36z"/><path fill="#31281a" d="M27.3 32.3l8.3-3.4 1.1 2.8-8.3 3.4z"/><path fill="#746052" d="M129 109l-10 7 32 16z"/><path fill="#392e26" d="M105 121.5L84 131l-3-6.4 21-9.4z"/><path fill="#8b7b69" d="M4 108h13v17H4z"/><path fill="#937d75" d="M40 80h5v51h-5z"/><path fill="#28453a" d="M92 140.6l22.3-25.6 45.9 25.7 5.8-1.8z"/><path fill="#858e93" d="M116 77h18v11h-18z"/><path fill="#646258" d="M46 69h10v99H46z"/><path fill="#777c80" d="M185 101h13v22h-13z"/><path fill="#a1a5af" d="M215-16l-3 46 27 5z"/><circle r="1" fill="#8397ae" transform="matrix(-6.10702 9.49112 -49.22732 -31.6751 169 54.4)"/><path fill="#3e3536" d="M236.4 142.4l34.6-20v2.3l-27.4.6z"/><path fill="#112322" d="M45.6 37.4l-.6.8-10.6-7.6.6-.8z"/><path fill="#ccd6de" d="M53 40l-7 24 26 16z"/><path fill="#232023" d="M208 130l-20 13 12 1z"/><path fill="#888687" d="M210 139l18 3-36 5z"/><ellipse cx="236" cy="130" fill="#d3a56f" rx="4" ry="5"/><ellipse cx="75" cy="103" fill="#c5cfcf" rx="20" ry="12"/><ellipse cx="67" cy="116" fill="#48433b" rx="20" ry="2"/><path fill="#332f27" d="M246 115.5l-19.4 15.8-.6-.8 19.4-15.8z"/><path fill="#9aaab8" d="M173 100l74-10-114-22z"/><ellipse cx="214" cy="51" fill="#7288a3" rx="23" ry="22"/><path fill="#b0936e" d="M221.9 127l-2.4-.6-6.7 6.1-6.3-5.1z"/><path fill="#a9bbcb" d="M119.4 57.2l-10.6 17-66.2-41.4 10.6-17z"/><path fill="#8c9492" d="M203.7 147l-34.4-4.4-1.5-1.3 19.8 10z"/><path fill="#c4986f" d="M244 121h12v3h-12z"/><circle cx="214" cy="117" r="4" fill="#281f09"/><path fill="#30443b" d="M191 149h45v12h-45z"/></g></g></svg>