<svg xmlns="http://www.w3.org/2000/svg" viewBox="0 0 4752 3168"><defs/><filter id="a"><feGaussianBlur stdDeviation="12"/></filter><rect width="100%" height="100%" fill="#4b443b"/><g filter="url(#a)"><g fill-opacity=".5" transform="translate(9.3 9.3) scale(18.5625)"><circle r="1" fill="#9ba4a2" transform="rotate(151.3 85.7 53.6) scale(208.59038 94.09701)"/><circle r="1" fill="#a7bacf" transform="rotate(84.8 62.7 152.3) scale(29.13122 106.22362)"/><circle r="1" fill="#40341d" transform="matrix(52.06733 -12.50026 5.5253 23.01457 140.7 140.9)"/><path fill="#d9e6f4" d="M192 80l13 45 50-60z"/><circle cx="14" cy="77" r="110" fill="#706956"/><path fill="#97adcc" d="M248 98.3l29.6 4.7-15.6 98.7-29.6-4.7z"/><circle r="1" fill="#26241b" transform="matrix(45.29807 -12.58556 2.02417 7.28542 45.5 96.3)"/><path fill="#bfbaac" d="M62 79.5l91-45.7-67.9 14.3-26.9 20.5z"/><circle r="1" fill="#3c3f38" transform="matrix(22.09296 -22.58056 19.959 19.528 122 8.8)"/><circle r="1" fill="#b9cee1" transform="matrix(6.26281 -.86238 11.06715 80.37252 206 32.9)"/><circle r="1" fill="#647584" transform="matrix(-4.99998 -12.45208 75.84563 -30.4549 214.7 57.6)"/><path fill="#9ea5a3" d="M27 6l39 11-82 3z"/><circle r="1" fill="#a09d95" transform="matrix(-8.11354 -10.76704 35.51642 -26.76354 106.6 90.2)"/><path fill="#1a1914" d="M143.7 160.7l48.8-6.2-30.7-28.4 4.6 22.8z"/><path fill="#4c5255" d="M223 89h23v58h-23z"/><path fill="#87a3b5" d="M229-8.5h18v53h-18z"/><path fill="#b1976a" d="M222 185l-40-30-95 28z"/><path fill="#c9c0ae" d="M90 23L75 70l-1-39z"/><circle r="1" fill="#a29780" transform="rotate(-112.2 120 23.5) scale(9.39781 10.55614)"/><circle r="1" fill="#71644c" transform="matrix(-7.55357 13.32386 -40.04228 -22.70079 186.4 124.4)"/><circle r="1" fill="#292e29" transform="matrix(-1.94925 -5.95581 67.33942 -22.03917 18.8 44.4)"/><path fill="#3b3020" d="M93.7 185l28.7-53.7L61.2 185l-4.7-32.7z"/><path fill="#485862" d="M148 58l47-24-14-48z"/><path fill="#dee6ed" d="M233.5 98.9l-30.1-6.4 5.4-32.7 26.1 37.3z"/><path fill="#3e3929" d="M98.7 114.4l51.9 70.6-32.5-64.3L51.9 131z"/><path fill="#908775" d="M17.2 129l109 22.9-26.1-26.9-25.1 6.5z"/><path fill="#393326" d="M37 115l37-8-62-14z"/><path fill="#000406" d="M232.9 151.4l8.6-8.9-11.5 21.1-36.3-.5z"/><path fill="#2c3235" d="M102 61L78 89l60-39z"/><path fill="#979990" d="M40.1 43.9l1.8 6.7-28 7.5-1.8-6.7z"/><path fill="#414747" d="M203-16L88 53l55-64z"/><path fill="#333029" d="M199.3 122l4-14.6-120.5 44.4 89.9-26z"/><circle r="1" fill="#2f3026" transform="matrix(-.63015 3.2017 -60.308 -11.86966 20.8 33)"/><path fill="#ccb5a6" d="M44.7 112.2L38 152.8l-1.7-8.5-.4-14.8z"/><path fill="#b2c0cd" d="M173.7 90.2l19.6-7.2 22.4 19.1-45.4 1.6z"/><path fill="#6e716e" d="M216 110l-56-12-62 30z"/><path fill="#43484e" d="M213.4 122.7l7.5-13 33.7 19.6-7.5 13z"/><ellipse cx="195" cy="139" fill="#99886f" rx="14" ry="17"/><path fill="#31290e" d="M38 166h46v4H38z"/><path fill="#7a8697" d="M240 84l-15 5 11 46z"/><path fill="#909aa7" d="M217.5 183l36.2-44.4 12.4 21.2-3.2-9z"/><path fill="#a4a6a6" d="M52.8 48.3l7.7 4.6-11.3 18.8-7.7-4.6z"/><path fill="#aebccd" d="M246 77h8v45h-8z"/><path fill="#000306" d="M192 160l-25-17 8-9z"/><path fill="#5c646f" d="M268.7 93.9l2.3 82.4-26.7-99-12 17.4z"/><path fill="#92a6b9" d="M203.7 49.7l-32.2 1.7 44.3-24.5-.4 51.8z"/><path fill="#87826d" d="M94.8 19.6l-27.6 3 49.4 1.1 10.6-19.5z"/><circle r="1" fill="#4a463e" transform="rotate(8.6 -628 737.8) scale(25.43543 2.20468)"/><circle r="1" fill="#32322a" transform="matrix(1.36256 1.6339 -21.34035 17.7963 51.7 44.4)"/><path fill="#c6b0a7" d="M125 86h12v21h-12z"/><circle r="1" fill="#7b8681" transform="rotate(138.7 -9.8 33.5) scale(15.15557 5.71779)"/><path fill="#211c16" d="M146.7 161.3l-5.8-8.1-20.8 1.5 7.3 11.4z"/><path fill="#42433b" d="M-16 93.9V77.6l78.8-10-7.4 5.6z"/><path fill="#878b8c" d="M170.2 29.7l6.8-12.1-21.4-3.4L132.5 25z"/><path fill="#5a6d78" d="M221.1-8.1l-18.8-3.6 16 75.4 16 4.5z"/><path fill="#aca89f" d="M47.8 80.1l67-21.9-9-3.2-22.7-3.8z"/><circle r="1" fill="#9ba3a2" transform="matrix(-.06656 5.4474 -7.49931 -.09163 108.3 111.8)"/><path fill="#23241f" d="M163 123l-34 4-27 23z"/><path fill="#6b7378" d="M116 83l88-25-18 26z"/><path fill="#8d846b" d="M123.7 142.7l-13.7 9.4 34.6-3.6 19.5-14.6z"/><path fill="#413e31" d="M92.7 29.6l41.3-3.3L102.2 42l-20.4-4.8z"/><path fill="#6d6c5e" d="M134 132l-22-15 53-8z"/><path fill="#2f2318" d="M250.1 172.7L253 158l6.9 1.3L257 174z"/><path fill="#414b5a" d="M128 93l7.7 2.2-1.7 5.8-7.7-2.2z"/><path fill="#51462c" d="M-16 135.7l52.6-6.8-.1 1.2-52.5-10z"/><path fill="#857457" d="M90 166h137v4H90z"/><ellipse cx="80" cy="159" fill="#b18e77" rx="9" ry="7"/><path fill="#aba5a7" d="M73.3 112l.4 22h-5l-.4-22z"/><path fill="#0c1017" d="M226.2 121l-7.9-1.2 1.5-8.9 7.9 1.3z"/><path fill="#141616" d="M214 155h33v4h-33z"/><path fill="#7e6a43" d="M208.7 160.6l28.4-25.1-13.9-14.2-24.5 3z"/><path fill="#dce5ec" d="M172.4 111.9l29.8-19.1 16.1-2.7 7.4-19.9z"/><path fill="#23221a" d="M1.2 40.5l19 2-1.4 13-19-2z"/><path fill="#414f5f" d="M269 63l-19 7 19 43z"/><path fill="#8492a0" d="M175.8 114.9l35-39.5-40.6 30.5v8.6z"/><circle r="1" fill="#9c9993" transform="rotate(-176.7 31.2 39.8) scale(24.05971 1.17402)"/><path fill="#8a969c" d="M100.7 77l100.1 3.6-35.7 6.7 13.8-39.8z"/><circle r="1" fill="#888370" transform="matrix(-.40392 -2.4399 26.24988 -4.34564 72.6 13)"/><path fill="#979685" d="M21 36v4H-3v-4z"/><path fill="#9e9481" d="M97.1 19.4l1.6 8.7-9.8 1.7-63.5 24.7z"/><path fill="#8b7d5d" d="M137 26l-24 26-14-8z"/><path fill="#41433f" d="M40.7 24.7l40.6-13.8-26.2 40.3-13.9-26z"/><path fill="#e7f6ff" d="M207 118l9-12-3 12z"/><path fill="#15191b" d="M108.3 160.6l3.8-7.6-21.6.1 2.4 5.2z"/><path fill="#a5b2c1" d="M259.1 146.3l-20.2 4.5 28.5-19.4-26.2 35.7z"/><path fill="#63523d" d="M65 179l6-50-23 37z"/><path fill="#8d8a82" d="M67.7 85.7l29.6-19.3-5.3 8.7-33 17.8z"/><path fill="#8d97a4" d="M210.9 121.8l-11-17.5L241 85.1 200.1 118z"/><path fill="#83704f" d="M194.9 102l11 6.1-32.8 16.6 2.4-11.7z"/><path fill="#ab9987" d="M51.4 123.9l-21.1 5.4 11.4-12 23.3-3.1z"/><path fill="#4c5d5d" d="M246.9-7.3L271 49.5v31.8l-24.6-64.9z"/><path fill="#393128" d="M60 122h34v5H60z"/><path fill="#ffebe0" d="M129 95l-3-6 8-6z"/><path fill="#aaa69e" d="M16 118l8 7 2-10z"/><path fill="#0b0e08" d="M-1.8 85.5l-13 4-1.2 8.1 30.7-12.3z"/><circle r="1" fill="#3e4740" transform="matrix(-1.12957 10.60526 -22.59092 -2.40618 6 1.6)"/><path fill="#0f110a" d="M4 107l20-6-13 9z"/><path fill="#9c9b96" d="M126 96l-6-35-36 36z"/><path fill="#4b5251" d="M184.6 36l3.2-17.1-32.7 37.6-4.8-23.2z"/><path fill="#535859" d="M173 103l-27-2-16 29z"/></g></g></svg>