<svg xmlns="http://www.w3.org/2000/svg" viewBox="0 0 4752 3168"><defs/><filter id="a"><feGaussianBlur stdDeviation="12"/></filter><rect width="100%" height="100%" fill="#4c3c31"/><g filter="url(#a)"><g fill-opacity=".5" transform="translate(9.3 9.3) scale(18.5625)"><ellipse cx="125" cy="108" fill="#cad4d9" rx="45" ry="84"/><circle r="1" fill="#807741" transform="rotate(148.3 4.6 58.9) scale(54.83731 130.93741)"/><circle r="1" fill="#fdffff" transform="matrix(19.73368 20.21798 -13.01925 12.70739 128 51)"/><path fill="#41271e" d="M137 77l-32 90-60-38z"/><circle r="1" fill="#54626e" transform="matrix(34.97727 17.5037 -47.1109 94.14068 205.4 114.3)"/><circle r="1" fill="#000e22" transform="rotate(102.2 37.4 39) scale(54.16186 28.37415)"/><path fill="#cecfcd" d="M147.7 26.3L52.9 130.7 105.1 37l46.6-28.9z"/><circle r="1" fill="#cbd6de" transform="matrix(-16.07512 25.84863 -10.68537 -6.64517 133.5 149.5)"/><path fill="#404247" d="M226 132l-54 21-28-143z"/><path fill="#c4ccd2" d="M136 53h19v53h-19z"/><ellipse cx="188" cy="38" fill="#3f2a17" rx="46" ry="19"/><circle r="1" fill="#24170e" transform="matrix(20.3643 -88.70956 22.10041 5.0734 252.8 153.6)"/><path fill="#837758" d="M120.8-8.6l17.2-8 21.2 45.2-17.2 8z"/><path fill="#dfe8ee" d="M271 38l-17 1-20-19z"/><circle r="1" fill="#87714f" transform="matrix(-27.37679 -24.34976 10.92037 -12.27793 66.3 110.5)"/><path fill="#3d2b1e" d="M117.1 111.9l-15.8 59.6-1.1-37.5-51.9-17.4z"/><path fill="#929ba2" d="M169.4 138.1l15.1 46.9-36.9-50.1 8.2-32.5z"/><path fill="#0b1220" d="M132 14l-30-30-17 63z"/><circle r="1" fill="#e3eaf7" transform="matrix(-.61271 -8.54774 6.41299 -.45969 82.6 91)"/><circle r="1" fill="#3a3c3a" transform="matrix(10.37387 -12.1867 3.24944 2.76607 138 117.2)"/><ellipse cx="30" cy="95" fill="#6f6938" rx="33" ry="136"/><circle r="1" fill="#cacfce" transform="matrix(7.61967 -14.03368 4.03034 2.1883 129.5 118)"/><path fill="#5c5d64" d="M157 59h91v32h-91z"/><path fill="#ecefee" d="M144.1 45.6l-46.2 2.3 6.1-12.2 29.6-14.6z"/><path fill="#cf9e88" d="M58 105h26v10H58z"/><ellipse cx="64" cy="78" fill="#7a8789" rx="4" ry="32"/><path fill="#fcbd9d" d="M72.3 130.3l2.1-4.6 17.3 8-2.1 4.6z"/><circle r="1" fill="#737475" transform="matrix(8.15142 -24.40391 8.37953 2.79894 109 76.1)"/><circle r="1" fill="#313c47" transform="matrix(-5.54747 51.0653 -4.97406 -.54036 75.6 55.3)"/><path fill="#b8bfc5" d="M154.5 63.2L107.3 49l14 32.1 28.8-4.4z"/><path fill="#d1a889" d="M73.5 170.7l25.2 8.7-3.1-29.9-13.1 23z"/><ellipse cx="112" cy="161" fill="#4a587c" rx="6" ry="25"/><path fill="#341605" d="M108 115l-28-12 34-1z"/><circle r="1" fill="#3d1e26" transform="rotate(-31.8 83.5 -69) scale(8.66626 16.54106)"/><path fill="#5d5d5d" d="M271 55l-31-31 8 107z"/><circle r="1" fill="#6a5938" transform="matrix(29.33493 14.49611 -7.21393 14.5984 166.8 7.4)"/><ellipse cx="49" cy="164" fill="#847151" rx="27" ry="15"/><path fill="#c4c6c2" d="M121 132h36v16h-36z"/><path fill="#1c2319" d="M82 116.6l-21.1 16.2 1.6-12 47.5 13.5z"/><path fill="#4f322a" d="M165 70l-30-49 20 13z"/><path fill="#8e8d7b" d="M131 13l-1-29 19 46z"/><path fill="#61635d" d="M102.2 87.9l36.4-9.7 8.7 6.9-39.4 20.9z"/><path fill="#95755d" d="M97.7 126.5l-15-5.7 3.6-9.3 15 5.7z"/><path fill="#262f35" d="M175 121h50v14h-50z"/><ellipse cx="77" fill="#121316" rx="21" ry="39"/><path fill="#c1c7c7" d="M157.9 92.9l-34.3 30.9 14.1-30.6 16.4-7.3z"/><path fill="#8b6d51" d="M34.8 61.2l-3.6-70 8-.4 3.6 70z"/><path fill="#000004" d="M271 109l-27 45 27 22z"/><path fill="#686d72" d="M133.6 146.6l-37.7 33.1 28.6-70.6-8.2 43.9z"/><path fill="#9b9c9d" d="M84 93h16l-2-41z"/><path fill="#6b6f74" d="M127 183l57-14-19-39z"/><path fill="#666159" d="M226.7 178.8l1.8-31.2 9.1-38.3-38.1 64.2z"/><path fill="#e4eff6" d="M96.6 51.5L76.3 95l-.9-.5L95.7 51z"/><path fill="#1f2425" d="M81 74l24-40-25 22z"/><circle r="1" fill="#65635e" transform="matrix(5.00862 10.22956 -20.78158 10.17512 223 107.4)"/><path fill="#d89983" d="M104.8 135.3l-1 5-16.6-3.6 1-5z"/><ellipse cy="112" fill="#615c24" rx="20" ry="72"/><circle r="1" fill="#2d221f" transform="rotate(-112.5 119.8 -44.7) scale(7.9491 20.80786)"/><circle r="1" fill="#4f2a25" transform="matrix(3.62417 9.42108 -11.69545 4.49909 79.6 148)"/><circle cx="200" cy="96" r="12" fill="#2b343a"/><path fill="#7e7c51" d="M-16 50.6l36.8-5 53.1 4.6-11.5 7.3z"/><path fill="#1a202d" d="M109-16l27 35-25 9z"/><path fill="#404142" d="M150.7 112L133 129.7l-5.7-5.7 17.7-17.7z"/><path fill="#b08f77" d="M68 108l-18 25 11-34z"/><path fill="#080008" d="M42 12l-6-28L48-6z"/><ellipse cx="82" cy="145" fill="#c19a7f" rx="3" ry="4"/><circle r="1" fill="#69582e" transform="matrix(-6.71295 4.0976 -2.41298 -3.9531 71.4 101.1)"/><path fill="#f5f8f7" d="M269.5 44.7l-.6.8-28.4-22.2.6-.8z"/><path fill="#b8bdbe" d="M149.9 89.6L125 125.1l30.3-47 6.3 37.4z"/><path fill="#d3dce6" d="M117 165h20v5h-20z"/><circle r="1" fill="#5b595c" transform="matrix(13.43125 2.049 -3.72861 24.44122 170.1 78)"/><path fill="#696560" d="M94 102l44-3-27-29z"/><path fill="#40485c" d="M75 40.6l7.8 9.2L69 61.4l-7.8-9.2z"/><path fill="#666a76" d="M231.7 57.9l13-11.6 26.3 9.9-32-35.3z"/><path fill="#848039" d="M56.6 70.8l3.7 10.4-32.9 12-3.7-10.4z"/><path fill="#3f4745" d="M76.3 84.9l11.8-17.7L65 52.3 67.6 91z"/><path fill="#353528" d="M93.5 157.8L57 134.9l14.5-22.7-1.3 45.2z"/><path fill="#abb0b4" d="M145.3 70.9l-10.1 4.5-20.9-35.7 3.4 45.2z"/><path fill="#4f4035" d="M14.9 45.9L35.8 5.7 3.2 14.9l28.1 16.6z"/><path fill="#c79778" d="M92 146h5v10h-5z"/><path fill="#472a18" d="M98 152.5l-38.8-17.8 47.4 21.8 7.8-61.1z"/><path fill="#2f1d10" d="M248.3 111l.4-27.1-15.8 75.9 16-47.7z"/><path fill="#5c7480" d="M80 27l1-10-4 7z"/><circle cx="130" cy="29" r="6" fill="#f7f9f7"/><path fill="#a9b5b4" d="M64 95.6l-2-17 2-.2 2 17z"/><path fill="#5d573f" d="M110 134l16-18-11-37z"/><path fill="#bdc3c5" d="M155.1 133l-31.2 3.7-8.1 15.6 45.3-30.3z"/><path fill="#c7afab" d="M21 165l4 5-9 1z"/><path fill="#3e3924" d="M262 36L243-8l-21 8z"/><path fill="#222018" d="M60 120h29v5H60z"/><path fill="#bdbec0" d="M95 67h6v25h-6z"/><path fill="#55492e" d="M238 34l-16-50-11 48z"/><path fill="#635f58" d="M132.5 104.4l-18.7 10.2-5.3-61.5 13 35.3z"/><path fill="#3d4c5b" d="M157 132h4v20h-4z"/><path fill="#b78d73" d="M75.4 108.4l.7-.8 20.5 16-.7.8z"/><path fill="#a9a45f" d="M17.8 2L8.9 6.9l-4.7-9 8.9-4.7z"/><path fill="#28343c" d="M137 116l8 9-2-16z"/><path fill="#636468" d="M112 122h6v48h-6z"/><path fill="#7a7047" d="M2.8 44.9l-18.1-14.2L3.2 7.1l18.1 14.2z"/><path fill="#a26552" d="M36 16L33-5l16 32z"/></g></g></svg>