<svg xmlns="http://www.w3.org/2000/svg" viewBox="0 0 1800 1200"><defs/><filter id="a"><feGaussianBlur stdDeviation="12"/></filter><rect width="100%" height="100%" fill="#50413d"/><g filter="url(#a)"><g fill-opacity=".5" transform="translate(3.5 3.5) scale(7.03125)"><circle r="1" fill="#eff9ef" transform="rotate(101.2 6.1 42) scale(217.087 105.59132)"/><circle r="1" fill="#f5ffff" transform="matrix(-28.04273 32.91523 -55.2861 -47.102 220.4 0)"/><circle r="1" fill="#eaf1f2" transform="matrix(115.03006 -3.58261 1.21111 38.8863 53.2 9.9)"/><ellipse cx="140" cy="89" fill="#404237" rx="159" ry="15"/><path fill="#a8aa9f" d="M196.3 196.7l3.5-99.9 70 2.5-3.6 99.9z"/><circle r="1" fill="#161c16" transform="rotate(69.7 38 142.8) scale(22.85765 31.63439)"/><ellipse cx="105" cy="169" fill="#716961" rx="78" ry="33"/><circle r="1" fill="#f2f1e6" transform="rotate(130.5 -.7 37.6) scale(24.09901 13.31001)"/><path fill="#a7a296" d="M121.2 104.5l32.4 18-22.8 41-32.4-18z"/><path fill="#d5d9d6" d="M79 86l-27-6 44-92z"/><path fill="#6c6f65" d="M169 0l74 77-17 39z"/><circle r="1" fill="#dfdfd3" transform="rotate(-51.8 115.9 -91.3) scale(18.32688 12.86433)"/><circle r="1" fill="#ccbfae" transform="rotate(-4.7 2127.3 -2525) scale(70.23178 4.60357)"/><path fill="#172225" d="M146 127h56v28h-56z"/><circle r="1" fill="#c7cdcb" transform="matrix(-10.12118 -13.34225 35.17303 -26.68158 226.4 3.9)"/><path fill="#f5f0e6" d="M50.7 66.2L-.4-16l-8.1 42.3 58.7 48.4z"/><ellipse cx="217" cy="115" fill="#958d84" rx="72" ry="9"/><ellipse cx="78" cy="90" fill="#4c4c43" rx="93" ry="7"/><circle cx="96" cy="48" r="8" fill="#3a3a21"/><path fill="#413c26" d="M7 55l11-8-24-8z"/><path fill="#aaaeae" d="M102.9-2.4l45.9-14L163 30.4l-45.9 14z"/><ellipse cx="4" cy="118" fill="#655b4d" rx="55" ry="4"/><path fill="#4c4b3d" d="M223 55h33v51h-33z"/><path fill="#7d807b" d="M148.5 80.4l60.9-9.9 6.5-36.9 7.5 47.7z"/><path fill="#3b361b" d="M56.8 44.7l4.5 10-10 4.6-4.6-10z"/><circle cx="173" cy="23" r="15" fill="#424641"/><path fill="#31332f" d="M16 87.9l-9.2 20-20.9-9.8 9.3-20z"/><path fill="#555045" d="M148 33h11v124h-11z"/><path fill="#040b0a" d="M163 47h23v29h-23z"/><circle r="1" fill="#92a1b0" transform="matrix(-23.75362 -1.78604 1.25146 -16.6439 54.8 0)"/><ellipse cx="191" cy="119" fill="#212420" rx="5" ry="35"/><ellipse cx="91" cy="169" fill="#736a66" rx="63" ry="18"/><path fill="#625e5d" d="M199 121h57v38h-57z"/><path fill="#fffff5" d="M3.8 54.6l2.4 19.8-8 1-2.4-19.8z"/><path fill="#b4a897" d="M141 39h7v25h-7z"/><path fill="#7f8f9a" d="M44 92l-31-8 42-20z"/><ellipse cx="99" cy="90" fill="#5b5343" rx="26" ry="15"/><path fill="#bfb09e" d="M3.6 124.6l51.1-7.5-16.5 39.6-12.2 10z"/><path fill="#c2c6c4" d="M232.5 16L215.7 3.5l-72.3-15.3 17.4 19.2z"/><circle r="1" fill="#3c342b" transform="rotate(-86 67.6 10.7) scale(32.17605 1)"/><path fill="#b1bbbd" d="M213.3 56.3l47.9-16.2 1.5-11.6-48.4 12z"/><path fill="#ae9e88" d="M104.1 82.5l6.2 18.3 26.4-1.7L95 132.8z"/><path fill="#111009" d="M179 86h37v9h-37z"/><path fill="#998b7c" d="M220.7 74l7.6 2.4-9 27.6-7.6-2.4z"/><path fill="#dcdad3" d="M108.7 18.8L23.6 29.5l55.2 30.6L121-1.3z"/><path fill="#6e6464" d="M168 92.2l-9.4 51.7-9.9-17.8 41.4 3.9z"/><path fill="#86857e" d="M52.6 88.8L48 147.3l15.7 3.3 10.6-84.7z"/><path fill="#443a31" d="M6 53h3v46H6z"/><ellipse cx="226" cy="112" fill="#ab9e8e" rx="30" ry="7"/><circle r="1" fill="#c6c5bc" transform="matrix(7.85861 7.02353 -19.21198 21.49625 116 50.8)"/><path fill="#2e302b" d="M193.4 36.5l-12.1-9.9-38.5 9.4 47.1 33.4z"/><circle r="1" fill="#444136" transform="rotate(-177.4 47.6 34.1) scale(1 29.25706)"/><ellipse cx="169" cy="23" fill="#67625a" rx="14" ry="8"/><path fill="#595541" d="M110 51l-22-6 6 11z"/><path fill="#5b5042" d="M156.1 102.8l-46.3-4.2 34.5-62.5-12.3 9.1z"/><path fill="#918a83" d="M68 131h70v31H68z"/><path fill="#1e1d1b" d="M178 151l11-20-55 18z"/><path fill="#484d4a" d="M55 96.7l2.5-8.7L97 99.3l-2.4 8.7z"/><path fill="#4f483e" d="M25 115h55v2H25z"/><path fill="#403b32" d="M210 100h46v5h-46z"/><path fill="#b8bbb3" d="M48 50L17 67l26 8z"/><path fill="#7c7a74" d="M154.2 127.1l5.3 3.8.1 36.9-4.8-33.8z"/><path fill="#f4f0ea" d="M40.6 41.5l-50.4 1.6L-16-3.3 27.4 36z"/><path fill="#918772" d="M76.2 91.5l13.9 5.4 17.4-21.5-.6 14z"/><path fill="#818787" d="M196.3 86.3l-11.9-1.7 1.3-8.9 11.9 1.7z"/><path fill="#b7bcb1" d="M14 99h34v7H14z"/><ellipse cx="181" cy="158" fill="#534941" rx="34" ry="6"/><path fill="#3a63a2" d="M166 129h10v6h-10z"/><path fill="#050b05" d="M160 96h6v12h-6z"/><path fill="#6c7473" d="M75.8 74l-20 28.2 14.4 2.3-5.7-33.1z"/><path fill="#acaca2" d="M112 73l19-5-1 9z"/><path fill="#c6c5be" d="M140.6 41.1l42.7-54.3L125.6 37l20.3 3.8z"/><path fill="#d6d4cd" d="M49 56l-65-66 55 21z"/><path fill="#454039" d="M-61 130l-.1-1 122-15 .2 1z"/><path fill="#8b8477" d="M197.8 105.2l11.3-13-2.3 47.3-12.8-16.7z"/><path fill="#443c23" d="M107.4 96.6l5.1-7.5 25.1-3.5-17 13.3z"/><circle r="1" fill="#909da8" transform="matrix(-29.3927 11.9163 -4.1179 -10.15722 233.7 26.6)"/><path fill="#b9c0be" d="M56.3 81.8l10.8 4-9.2-30-4.1 23.5z"/><path fill="#a69a89" d="M136 168h120v2H136z"/><path fill="#202616" d="M253.9 83l-12.6-3.4 2.8-10.6 12.6 3.4z"/><path fill="#a49e93" d="M133 146l8-35-109 8z"/><path fill="#a0907c" d="M-37.7 118.7l19.7-13.8 71.7 102.4L34 221.1z"/><path fill="#dbd9ce" d="M10 59h11v24H10z"/><ellipse cx="26" cy="99" fill="#484a47" rx="24" ry="1"/><path fill="#5f6a71" d="M24 76h25v7H24z"/><path fill="#544a3e" d="M170.7 124.4l-37.3-27.1 17.8 33.4L178 110z"/><path fill="#545a54" d="M193 54h52v15h-52z"/><ellipse cx="15" cy="55" fill="#9b9687" rx="6" ry="10"/><path fill="#3e4948" d="M51 92l28 1 21-16z"/><path fill="#acaea4" d="M84.7 49.6L66.4 68.8l28.2-29.3L91 80.7z"/><path fill="#645c4f" d="M107.1 80.7l27.8 12.4 26.7 10.8-56.5-34.5z"/><circle r="1" fill="#685f5b" transform="matrix(.04336 3.22854 -56.70024 .76142 96 168)"/><ellipse cx="116" cy="113" fill="#645c50" rx="23" ry="1"/><path fill="#3f3a30" d="M51 47h2v37h-2z"/><path fill="#4c4948" d="M176.8 5.2l-3 .2 16.9 18.7-32.3-6.3z"/><path fill="#b2a690" d="M149.3 69.7l-10.6-9.2 2-2.2 10.6 9.2z"/><path fill="#907660" d="M150 100h7v11h-7z"/><path fill="#56554e" d="M166 85l-2.8 1.4L140.1 41l2.7-1.4z"/><path fill="#93a0a8" d="M161 108h16v3h-16z"/><path fill="#95968f" d="M-1 97.3v-1l24-1.6v1z"/></g></g></svg>