<svg xmlns="http://www.w3.org/2000/svg" viewBox="0 0 1800 1013"><defs/><filter id="prefix__a"><feGaussianBlur stdDeviation="12"/></filter><rect width="100%" height="100%" fill="#2d425f"/><g filter="url(#prefix__a)"><g transform="translate(3.5 3.5) scale(7.03125)"><circle r="1" fill="#fff" fill-opacity=".5" transform="matrix(-240.03402 -21.46149 4.55001 -50.88916 78.6 53.8)"/><circle r="1" fill="#f3ffff" fill-opacity=".5" transform="matrix(-5.66161 38.8985 -228.4564 -33.25145 90.1 44.2)"/><ellipse cx="145" cy="123" fill="#587c9f" fill-opacity=".5" rx="255" ry="28"/><path fill="#331e25" fill-opacity=".5" d="M66 82h38v23H66z"/><ellipse cx="204" cy="1" fill="#040d00" fill-opacity=".5" rx="86" ry="17"/><ellipse cx="219" cy="46" fill="#ccdaef" fill-opacity=".5" rx="255" ry="25"/><circle r="1" fill="#d2def1" fill-opacity=".5" transform="matrix(50.49383 -.94302 .31083 16.64328 17.6 81.4)"/><ellipse cx="182" cy="129" fill="#4c6987" fill-opacity=".5" rx="255" ry="33"/><circle r="1" fill="#d2bea9" fill-opacity=".5" transform="matrix(-.53639 -3.58904 63.21644 -9.44776 214 143)"/><circle r="1" fill="#c6d5eb" fill-opacity=".5" transform="matrix(80.35001 75.87015 -16.97137 17.97346 61.3 20.5)"/><ellipse cx="115" cy="105" fill="#446488" fill-opacity=".5" rx="248" ry="9"/><ellipse cx="99" cy="94" fill="#ffc0a5" fill-opacity=".5" rx="16" ry="4"/><path fill="#bdc7d7" fill-opacity=".5" d="M105 60h151v36H105z"/><path fill="#daebef" fill-opacity=".5" d="M270.4 31.1l.6-2.1-38.2-10 1.6 8.7z"/><path fill="#141f10" fill-opacity=".5" d="M191.1 12L271 27.3 208.1-16l24.3 42.7z"/><path fill="#1c2633" fill-opacity=".5" d="M65 82h33l-35 20z"/><circle r="1" fill="#c6d8ee" fill-opacity=".5" transform="rotate(10.1 -58 478.8) scale(139.48818 15.04556)"/><circle r="1" fill="#223a51" fill-opacity=".5" transform="matrix(.60442 -3.94988 33.61241 5.14342 29.5 125.6)"/><path fill="#62676a" fill-opacity=".5" d="M215.2 19.4L161.1 14l64.7 14.7-19-17z"/><circle r="1" fill="#3a382d" fill-opacity=".5" transform="rotate(-78.1 52 -62.3) scale(4.20584 39.59131)"/><path fill="#c0cbdb" fill-opacity=".5" d="M0 54h62v41H0z"/><path fill="#4d6b8c" fill-opacity=".5" d="M17 98h239v21H17z"/><circle r="1" fill="#cdddec" fill-opacity=".5" transform="rotate(-171.8 118.5 8) scale(28.21039 3.76814)"/><path fill="#fd9975" fill-opacity=".5" d="M83.5 96l1.1-8 13.9 2-1.1 8z"/><ellipse cx="210" cy="104" fill="#3c5877" fill-opacity=".5" rx="123" ry="4"/><ellipse cx="227" fill="#11211a" fill-opacity=".5" rx="56" ry="21"/><ellipse cx="197" cy="142" fill="#bfb8ae" fill-opacity=".5" rx="22" ry="2"/><path fill="#314b65" fill-opacity=".5" d="M71 128h109v5H71z"/><circle r="1" fill="#c0c7d3" fill-opacity=".5" transform="matrix(32.2055 -7.43523 1.66266 7.2018 66.5 76.7)"/><circle r="1" fill="#596a81" fill-opacity=".5" transform="rotate(173.2 114.4 77.7) scale(24.50429 1.95023)"/><ellipse cx="249" cy="25" fill="#d5e7f9" fill-opacity=".5" rx="18" ry="3"/><path fill="#b5c3d4" fill-opacity=".5" d="M226.8 98.2l-86-1.5.4-17 86 1.6z"/><path fill="#bdc9da" fill-opacity=".5" d="M44.1 70.6l22 2-2.2 24.8-22-2z"/><path fill="#cad9e6" fill-opacity=".5" d="M41 57l94-46 97 17z"/><path fill="#1b242a" fill-opacity=".5" d="M79 81v8l23-1z"/><path fill="#353b3e" fill-opacity=".5" d="M224 25h8v3h-8z"/><circle r="1" fill="#5a7999" fill-opacity=".5" transform="matrix(-5.12369 8.19962 -14.39683 -8.99614 184.2 118)"/><path fill="#193044" fill-opacity=".5" d="M120 137v-3l22-1v3z"/><circle r="1" fill="#5d5f64" fill-opacity=".5" transform="matrix(-.33148 3.0596 -24.5112 -2.6556 191.8 18.3)"/><circle r="1" fill="#c4d6ec" fill-opacity=".5" transform="matrix(13.83131 24.84997 -56.15468 31.2553 17.4 12.4)"/><path fill="#547397" fill-opacity=".5" d="M54 99h63v21H54z"/><ellipse cx="26" cy="135" fill="#273e56" fill-opacity=".5" rx="25" ry="2"/><path fill="#59789c" fill-opacity=".5" d="M0 96h41v7H0z"/><path fill="none" stroke="#505053" stroke-opacity=".5" stroke-width=".5" d="M254.6 31.4Q163.4 15.7 77.7-.2"/><path fill="#567596" fill-opacity=".5" d="M129 111h22v21h-22z"/><path fill="#aeaaa6" fill-opacity=".5" d="M252 139.4l-46.6 2.4 46-9-12.1 26.2z"/><path fill="#567293" fill-opacity=".5" d="M111 133l-92 26 34-28z"/><path fill="#5b7898" fill-opacity=".5" d="M160.5 137.7l.8 21.3h-97l60.6-21.3z"/><path fill="#d6967b" fill-opacity=".5" d="M84 88h6v10h-6z"/><path fill="#3b3834" fill-opacity=".5" d="M236.6 20.5l-46-3.3-141.2-21L156.9 7.9z"/><circle r="1" fill="#636c76" fill-opacity=".5" transform="matrix(-.18009 .98365 -137.02264 -25.08652 229 27)"/><path fill="#0f2220" fill-opacity=".5" d="M223-16L102 0l164 22z"/><circle r="1" fill="#6987ac" fill-opacity=".5" transform="matrix(-.00698 .99998 -133.9027 -.93483 236.2 97.7)"/><path fill="#514148" fill-opacity=".5" d="M73 90h12v8H73z"/><path fill="#2c4660" fill-opacity=".5" d="M8 111h29v4H8z"/><path fill="#c4cfdb" fill-opacity=".5" d="M-16 52.1l77.7 1.8L271 51.8 100.8 84.1z"/><path fill="#37536d" fill-opacity=".5" d="M198.2 120l11.4-7.6 6.3-2.5 25.8 14.1z"/><circle r="1" fill="#bdc8d7" fill-opacity=".5" transform="rotate(156.6 54.5 55.4) scale(23.24309 10.23645)"/><path fill="#5d7c9f" fill-opacity=".5" d="M87 114h169v2H87z"/><path fill="#223a50" fill-opacity=".5" d="M84 120h16v4H84z"/><circle r="1" fill="#9dafc2" fill-opacity=".5" transform="matrix(-18.03744 -6.10534 .61383 -1.8135 219 25.7)"/><path fill="none" stroke="#e7d3b7" stroke-opacity=".5" stroke-width=".5" d="M271 133.7q-89 9.2-135.5 25.3"/><path fill="#958c8e" fill-opacity=".5" d="M75 89h3v7h-3z"/><path fill="#546f8c" fill-opacity=".5" d="M181.9 143.9l27.4-4 61.7-7.5-66.8-5.2z"/><path fill="#5b799c" fill-opacity=".5" d="M13.5 114.1l27.5 9.2 49.3-5.6-97.5 1.2z"/><ellipse cx="160" cy="129" fill="#192f3f" fill-opacity=".5" rx="12" ry="2"/><path fill="#c7d5e3" fill-opacity=".5" d="M252.2 32.4l-57.1 36.8-49.9-53.4 75.4 10.8z"/><path fill="#343a3b" fill-opacity=".5" d="M87.6 82.6l.2-1 16.6 3.8-.2 1z"/><path fill="#6381a4" fill-opacity=".5" d="M220 123h26v3h-26z"/><circle r="1" fill="#677485" fill-opacity=".5" transform="rotate(81.1 31.8 206.4) scale(2.62283 52.02291)"/><ellipse cx="232" cy="90" fill="#bac5d3" fill-opacity=".5" rx="127" ry="6"/><circle cx="80" cy="79" r="3" fill="#b59982" fill-opacity=".5"/><path fill="#304a65" fill-opacity=".5" d="M64.3 125.5l43.9 6.2-41.8.3-18.7-10.6z"/><path fill="#c8daeb" fill-opacity=".5" d="M232 21h8v6h-8z"/><path fill="#383d3e" fill-opacity=".5" d="M135.6 12l-61-14.8-17.8-5.5 58.7 11.9z"/><path fill="#364f6b" fill-opacity=".5" d="M63 133l20 2-13 4z"/><circle r="1" fill="#202633" fill-opacity=".5" transform="matrix(-2.2745 7.60665 -2.43668 -.7286 72 90.2)"/><path fill="#2b445d" fill-opacity=".5" d="M41 107h27v2H41z"/><path fill="#302f2d" fill-opacity=".5" d="M234.9 18.7L138.7 5.5l90.6 19.3 9.6-16.1z"/><path fill="#587798" fill-opacity=".5" d="M264.6 105.7l-54.9 2.1 56.3 17.5-27.3-16.2z"/><path fill="#547393" fill-opacity=".5" d="M86 124h57v5H86z"/><path fill="#3d5873" fill-opacity=".5" d="M215 125h10v14h-10z"/><path fill="#e3d7c7" fill-opacity=".5" d="M70.2 78l-1.6.6 35.8 1.5-38.3 2.3z"/><path fill="#3b5774" fill-opacity=".5" d="M120 101l-21 44 22-9z"/><path fill="#263e53" fill-opacity=".5" d="M31 121l14 6H12z"/><path fill="#c3d5ea" fill-opacity=".5" d="M100.6 26.8l23.8-11.7-43.9-14H45.3z"/><path fill="#253b51" fill-opacity=".5" d="M-10.4 140.2v-1l32.8-3.4v1z"/><path fill="#2a2c31" fill-opacity=".5" d="M91 85.5l-10.3-4.1.4-1 10.2 4.2z"/><path fill="#6781a1" fill-opacity=".5" d="M13 143h69v1H13z"/><path fill="#4a6787" fill-opacity=".5" d="M21.8 121.7l-24.6 1.6 43.4 6.2-20.3 6.1z"/><ellipse cx="23" cy="70" fill="#c0cbda" fill-opacity=".5" rx="88" ry="10"/><path fill="#e0836e" fill-opacity=".5" d="M85 91h18v7H85z"/><path fill="#334f6b" fill-opacity=".5" d="M101 105h55v2h-55z"/><ellipse cx="47" cy="138" fill="#597699" fill-opacity=".5" rx="27" ry="2"/><path fill="#6886a8" fill-opacity=".5" d="M170 123l19 1-6 4z"/><path fill="none" stroke="#495054" stroke-opacity=".5" stroke-width=".5" d="M228.3 26.5Q107.1 8.1 108-6.5"/><path fill="#283f57" fill-opacity=".5" d="M22.5 140h15v2h-15z"/><path fill="#5f7c9e" fill-opacity=".5" d="M47.3 114.4l30.6 13.7L56.8 84l12.7 28.1z"/><path fill="#52708f" fill-opacity=".5" d="M151 159l25.3-25.4-29-4.9 58.1 27.3z"/><path fill="none" stroke="#e9d6bb" stroke-opacity=".5" stroke-width=".5" d="M210.4 141q28.4-1 58.7-10.3"/></g></g></svg>