<svg xmlns="http://www.w3.org/2000/svg" viewBox="0 0 4752 3168"><defs/><filter id="a"><feGaussianBlur stdDeviation="12"/></filter><rect width="100%" height="100%" fill="#274649"/><g filter="url(#a)"><g fill-opacity=".5" transform="translate(9.3 9.3) scale(18.5625)"><circle cx="136" cy="133" r="201" fill="#b1c4c3"/><path fill="#050000" d="M104 148L91 78l-107 28z"/><circle r="1" fill="#aae2d2" transform="rotate(95.3 57.3 149) scale(43.84128 95.27307)"/><ellipse cx="212" cy="135" fill="#ffede2" rx="94" ry="8"/><path fill="#4e250b" d="M54 56h58v34H54z"/><circle r="1" fill="#fffff3" transform="matrix(.75413 -4.87138 44.44878 6.88104 209.5 166.4)"/><path fill="#190600" d="M30 130l56-13 74 33z"/><ellipse cx="22" cy="77" fill="#fff" rx="37" ry="4"/><ellipse cx="254" cy="105" fill="#649b8f" rx="166" ry="27"/><path fill="#fffff8" d="M230.1 62.3l-2.2 64-14-.6 2.2-64z"/><path fill="#000002" d="M157.6 143l47.8 4.1-1 12-47.8-4.2z"/><circle r="1" fill="#fff0ec" transform="matrix(-67.83378 -9.34217 1.20155 -8.72447 202.9 138.4)"/><circle r="1" fill="#83bfb0" transform="rotate(-87.5 112.4 47.6) scale(18.049 107.50372)"/><ellipse cx="67" cy="17" fill="#595f84" rx="230" ry="39"/><path fill="#aa8461" d="M92 74h33v55H92z"/><ellipse cx="24" cy="109" fill="#1e443c" rx="35" ry="22"/><circle r="1" fill="#323230" transform="rotate(-173.5 119.8 72.3) scale(62.11656 7.18191)"/><path d="M69 51L40 65l24 11z"/><circle r="1" fill="#786651" transform="rotate(-83.1 195.2 -72.2) scale(5.78683 49.89554)"/><path fill="#cdf7eb" d="M88.3 67.8l-1.7 14-12.9-1.6 1.7-14z"/><path fill="#fff2e5" d="M111.2 75.2l94.3-12.8 47.7-.3 9.4 4.1z"/><path fill="#dba481" d="M118 124h22v27h-22z"/><path fill="#6ed7ca" d="M71.7 105.5l5-17.3 7.6 2.3-5 17.3z"/><circle r="1" fill="#54a5a1" transform="rotate(-104.1 122.4 -14.4) scale(25.64848 51.07334)"/><path fill="#25261c" d="M95 94L81 58l29-1z"/><path fill="#419b99" d="M264 72l-36-9 2 59z"/><ellipse cx="162" cy="48" fill="#6a9299" rx="69" ry="18"/><path fill="#807f79" d="M42 119.1l13.5 4.4-5.9 7-42.3-14.4z"/><ellipse cx="150" cy="147" fill="#01121a" rx="11" ry="5"/><circle r="1" fill="#55647b" transform="matrix(-38.04264 -17.19355 19.40209 -42.92928 30.4 24.6)"/><circle r="1" fill="#5cb7aa" transform="matrix(60.89404 -8.29616 .8474 6.21999 164.5 61)"/><path fill="#ffefec" d="M242 114l-1-17 13 14z"/><path fill="#000002" d="M117 129l-3 14-51-10z"/><path fill="#51b8b1" d="M51 81l-4 25-10-26z"/><path fill="#558c80" d="M201.6 121.3l-.9 8.2-96.3-8.8 2-20.6z"/><circle r="1" fill="#cfc0b3" transform="matrix(-21.6775 -3.69944 .55833 -3.27164 148.6 154.9)"/><ellipse cx="188" cy="138" fill="#f2efeb" rx="40" ry="7"/><path fill="#62a299" d="M-9 146.7l-7-21.2 102.7 14.2 55.2 14.7z"/><ellipse cx="221" cy="98" fill="#ffeadd" rx="7" ry="28"/><circle r="1" fill="#b88263" transform="matrix(7.04293 -37.63354 5.62146 1.05203 102.5 95.4)"/><path fill="#3ea69f" d="M8 105l22-25-41-1z"/><path fill="#f9ece5" d="M241 158h15v3h-15z"/><path fill="#020f0e" d="M53.2 135.7l42.5-6.9-101.9-22.5 59.4-.6z"/><path fill="#327166" d="M253 128l-33-6 42-10z"/><path fill="#232519" d="M51 58h70v4H51z"/><path fill="#fff" d="M137 71h23v4h-23z"/><path fill="#baa390" d="M187.1 126.1l-.4 6-89.8-6.2.4-6z"/><path fill="#22605c" d="M248.5 58.1l-25.2-3.3 30.6-10.3 12.7 6.2z"/><path fill="#b55a36" d="M112 72l9 31 8-3z"/><ellipse cx="229" cy="169" fill="#fff1e8" rx="24" ry="3"/><path fill="#63aeab" d="M103 82.5l78.5-11.6 28.4-3.3 6.9 40.5z"/><path fill="#fffff4" d="M-29.3 72v-1l86.6 9v1z"/><ellipse cx="96" cy="41" fill="#717c8f" rx="57" ry="16"/><path fill="#2c2422" d="M120 143l11 4 6-12z"/><path fill="#c89475" d="M68 79.2l-7.2 8.3 15.4-25.6 5.4 19.8z"/><path fill="#42978e" d="M195 47l59 11-62 5z"/><path fill="#fffffb" d="M224 63h32v3h-32z"/><path fill="#5b3924" d="M72.6 73.9l.8 50-16 .2-.8-50z"/><circle r="1" fill="#083231" transform="matrix(12.71205 -6.22757 5.1783 10.57023 27.8 99.4)"/><path fill="#241b11" d="M208 0h5v13h-5z"/><path fill="#34241b" d="M111.6 76.9L92.7 87.1 66 95.2l26.1-15.5z"/><path fill="#a7795b" d="M138.9 72l-35.3 17.7 10.3-23.8L95 68.4z"/><path fill="#55afa8" d="M0 69h55v6H0z"/><circle r="1" fill="#e2d8cf" transform="matrix(.89912 -5.09771 40.59982 7.16086 222 169)"/><circle r="1" fill="#17100c" transform="matrix(-5.56597 -6.4292 8.8181 -7.63412 63.8 63.5)"/><path fill="#e9e1d5" d="M210.8 125.5l5.3 1.9 5.4 1.7 6.2-65.9z"/><ellipse cx="203" cy="138" fill="#e8e6e2" rx="32" ry="9"/><path fill="#4a9895" d="M231.1 104l36.6-23.5 1.1 104.5-18.9-81.6z"/><ellipse cx="205" cy="97" fill="#5aa59e" rx="11" ry="30"/><path fill="#4badac" d="M82 75l-3-7 15-5z"/><path fill="#fffffd" d="M132.4 76.8l-.2-1 61.4-8.6.2 1z"/><circle r="1" fill="#f4ffff" transform="matrix(1.39922 -2.29229 3.36646 2.0549 81.3 79)"/><ellipse cx="255" cy="155" fill="#384341" rx="90" ry="3"/><path fill="#719d8f" d="M194 167L93 141l77 44z"/><path fill="#cf9d7b" d="M130.3 139.5l12.4-5-21.6-5.6-6.3 17.5z"/><ellipse cx="27" cy="77" fill="#fef5e6" rx="30" ry="3"/><ellipse cx="101" cy="108" fill="#eac09f" rx="3" ry="13"/><circle r="1" fill="#101d20" transform="matrix(14.40452 1.98412 -.3701 2.68686 252 165.5)"/><path fill="#376b60" d="M104 116h28v6h-28z"/><path fill="#00080c" d="M48.5 133.4l40.7 6.4-13.6-23.7-7.8 3.2z"/><path fill="#e49c73" d="M111 100l-9-13 29 14z"/><ellipse cx="215" cy="35" fill="#6d7889" rx="187" ry="15"/><path fill="#4b5559" d="M257.6 68.8l-22-84.8L234.3.2l13.4-5.4z"/><path fill="#3f2f21" d="M81 96h10v35H81z"/><path fill="#52483c" d="M103.3 55.8l18.5 45.6-11.6-42.8-27.3 9.7z"/><path fill="#30665f" d="M206 63l-12.9.6-16.9-6.3 36.6 5.7z"/><path fill="#83867b" d="M40 128l12 1-3-14z"/><path fill="#707c87" d="M44 12h13v49H44z"/><ellipse cx="148" cy="110" fill="#5baba7" rx="45" ry="8"/><path fill="#50897b" d="M71.6 107.7l9.5 17.9-2.8-28.2L91.7 82z"/><path fill="#18171b" d="M28 130v-6l-18 2z"/><path fill="#f6f5f0" d="M141 132h23v9h-23z"/><path fill="#1b3035" d="M141.3 141.6l30.6 4.9-1.2 7.9-30.6-4.9z"/><path fill="#696a5c" d="M225.9 131.5l26.4 5-31.3-9 8.5-13.8z"/><ellipse cx="236" cy="143" fill="#e9e2dd" rx="47" ry="6"/><path fill="#debca9" d="M129.9 152.9l11.6.4-2.1-11.4-1.3.1z"/><path fill="#51596f" d="M-6 69l-10-25 61 23z"/><path fill="#34251d" d="M54 124l-7-27 14-20z"/><path fill="#4a8a85" d="M39 78.1l6.5 7 3.9 21.9-6.4 4.2z"/><circle r="1" fill="#7e5d47" transform="matrix(4.07553 -13.58367 3.91426 1.1744 63.8 85.4)"/></g></g></svg>