<svg xmlns="http://www.w3.org/2000/svg" viewBox="0 0 1800 1200"><defs/><filter id="a"><feGaussianBlur stdDeviation="12"/></filter><rect width="100%" height="100%" fill="#53342b"/><g filter="url(#a)"><g fill-opacity=".5" transform="translate(3.5 3.5) scale(7.03125)"><ellipse cx="120" cy="17" fill="#ff7100" rx="146" ry="47"/><circle r="1" transform="rotate(-91.4 124.1 -34.5) scale(25.74348 254.96314)"/><ellipse cx="100" cy="21" fill="#f55b00" rx="114" ry="37"/><circle r="1" transform="matrix(-2.19901 -24.80981 175.71862 -15.5748 215 84.3)"/><circle r="1" fill="#485c53" transform="matrix(214.4294 1.62185 -.2743 36.26668 120.2 148.7)"/><path fill="#fff" d="M96.6 54.5l1.8 5.8-30.6-3.7 17.9-6.4z"/><circle cx="240" cy="80" r="36"/><ellipse cx="35" cy="88" fill="#000607" rx="100" ry="25"/><path fill="#bc3f00" d="M93 42l42 32 135-63z"/><path fill="#000607" d="M177.5 113l93.5 1.4-16.8-67.8-31.6.3z"/><circle r="1" fill="#b14407" transform="matrix(13.4093 27.61538 -18.28353 8.878 202.8 32.7)"/><ellipse cx="28" cy="59" fill="#202227" rx="40" ry="6"/><path fill="#fff" d="M80 49l-7 8 21-1z"/><ellipse cx="88" cy="22" fill="#df5e00" rx="67" ry="29"/><ellipse cx="246" cy="26" fill="#aa4116" rx="27" ry="21"/><path fill="#c64900" d="M111 20h74v45h-74z"/><path fill="#302e31" d="M104 67h50v8h-50z"/><path fill="#000507" d="M184 57h18v44h-18z"/><path fill="#c44a00" d="M3-16l-19 59 90 14z"/><ellipse cx="83" cy="169" fill="#5b5348" rx="104" ry="26"/><path fill="#020608" d="M218 55l16-15 17 57z"/><ellipse cx="169" cy="92" fill="#030708" rx="80" ry="21"/><circle cx="236" cy="145" r="33" fill="#42423a"/><circle r="1" fill="#d26000" transform="rotate(179.8 59.2 .1) scale(115.24641 24.84341)"/><path fill="#ffe4d1" d="M100.2 59.8l8.4-.5-21.7 1.6-1.8-12.7z"/><ellipse cx="74" cy="94" fill="#070908" rx="255" ry="19"/><path fill="#9d381d" d="M79.4 66.5l-11.8-5.7 20.3-1 76.8 7.4z"/><path fill="#dc4c00" d="M99 60l53 6-78-49z"/><path fill="#3f3e35" d="M0 113h54v33H0z"/><path fill="#302b24" d="M20.9 79.5l-27.7-4.3 4-24.7 27.6 4.3z"/><path fill="#b84b06" d="M169 16l96-32-89 81z"/><path fill="#a64619" d="M237 11h19v35h-19z"/><path fill="#ab3e11" d="M212.6 28.7l5.5 34.1-22.5-7.7-63.1 15.2z"/><path fill="#15100e" d="M156.7 63.9l25.1-1.3L29.3 93.2l79.3 14.5z"/><path fill="#e54c00" d="M69.2 58L61 45.4 80.8 32 89 44.5z"/><path fill="#2c2e2d" d="M141 150h56v4h-56z"/><path fill="#5f564b" d="M58.2 153.8l48.1-23.1 10.3 35 119-10.2z"/><ellipse cx="227" cy="117" fill="#454239" rx="255" ry="5"/><path fill="#362c29" d="M155 69l-54-7 12 15z"/><circle cx="93" cy="17" r="34" fill="#de5f00"/><path fill="#f9ffff" d="M83 52h11v7H83z"/><ellipse cx="20" cy="143" fill="#2a2a28" rx="18" ry="4"/><path fill="#252929" d="M68.7 156l-.7 4-24.7-4 .7-4z"/><path fill="#21110c" d="M57.6 79.5l62.4 3.4-11.4-17.5-42.4 3z"/><path fill="#000504" d="M222 47h34v12h-34z"/><path fill="#030606" d="M201 60h55v53h-55z"/><path fill="#3c3a37" d="M102.9 165.7l26.8-16.5-22.1 6.1-27.5-5z"/><path fill="#6d6254" d="M140 167h66v3h-66z"/><path fill="#b84404" d="M150 68l-40-11 84-23z"/><path fill="#6a5d4e" d="M20 162h87v5H20z"/><circle r="1" fill="#2d2e2e" transform="matrix(-41.24796 -4.93079 .1187 -.99293 150.8 150.9)"/><path fill="#cf2b00" d="M84 65l-6-8 19 4z"/><ellipse cx="84" cy="54" fill="#f7ffff" rx="6" ry="4"/><path fill="#ac4018" d="M204 42h17v13h-17z"/><ellipse cx="41" cy="169" fill="#2a2f2f" rx="22" ry="2"/><path fill="#b5420e" d="M175 44h9v21h-9z"/><path fill="#5c342c" d="M56.3 55.1l-43.5-.7 83.9 13.1L50.1 54z"/><path fill="#06090a" d="M166 84.4l-6.2-18 14.2-4.8 6.2 18z"/><circle cx="193" cy="57" r="2" fill="#cc4317"/><path fill="#02070a" d="M244.2 54.6l-2.2 2-12.2-13.2 2.2-2z"/><path fill="#080909" d="M177.6 90.7l-9.7 6L271 83l-84.3-26.6z"/><path fill="#e65402" d="M102.2 36.6L97 56.3 78.2 42.9l42.6-10.8z"/><ellipse cx="46" cy="132" fill="#5d5448" rx="19" ry="4"/><path fill="#61574b" d="M119.3 156.6l32.9-6.6 3.6 9.3-57.7 10.1z"/><circle r="1" fill="#c85500" transform="matrix(-10.7834 -15.51528 28.5323 -19.83046 174.3 14.7)"/><path fill="#563933" d="M100.6 60l31.7 9.1-.9 2.9-31.7-9.1z"/><path fill="#c24a00" d="M-3 14l-9 29 74 9z"/><ellipse cx="83" cy="67" fill="#4f1c11" rx="12" ry="3"/><path fill="#675c4e" d="M200 153h44v3h-44z"/><path fill="#353431" d="M242 152h14v14h-14z"/><path fill="#422e27" d="M70.5 58v8h-39v-8z"/><path fill="#9d3d17" d="M237 46.9l34-30.1-50.8 32.6 7.7-15.3z"/><path fill="#43322c" d="M13 56l24-1-38-10z"/><path fill="#373938" d="M126.3 163.8l.2-1 53.2 9.4-.2 1z"/><path fill="#5e564b" d="M168 150l-38-24-3 14z"/><circle r="1" fill="#070908" transform="matrix(38.38238 -14.38963 6.0169 16.04929 26.6 92.3)"/><path fill="#4f3b3a" d="M148 68.5l7.8-2 .2 1-7.8 2z"/><circle cx="208" cy="51" r="10" fill="#a94116"/><circle r="1" fill="#d55100" transform="rotate(-131.5 35.6 5.2) scale(28.14225 10.21675)"/><path fill="#fff" d="M96.4 59.9l-.5.8-4.3-2.6.5-.8z"/><path fill="#1f2221" d="M-16 141.7l60.5-3.3-42.2 4.8-18.3 8.4z"/><ellipse cx="148" cy="149" fill="#10171a" rx="11" ry="1"/><path fill="#080908" d="M226.4 46.6l-11.5 17.7-18.2-7.9 62.6 62.5z"/><path fill="#706252" d="M109 153.1l-11.7 2.5L95 145l11.7-2.5z"/><path fill="#2c2e30" d="M92 166h40v1H92z"/><path fill="#bc4510" d="M135 61h33v3h-33z"/><path fill="#242626" d="M72.5 153.4l.2 1-23.2 6.2-.2-1z"/><path fill="#aa4009" d="M152.8 53.6l23.2-9.3-1.1 24 5.7-3.5z"/><path fill="#585349" d="M203.6 163.8l40.6-6.6-61.8 21.6 13.3-32.2z"/><path fill="#605649" d="M30 143l27-3-44 20z"/><path fill="#4a423b" d="M55 113h97v15H55z"/><path fill="#4a352d" d="M109 64h29l-20 9z"/><path fill="#12161f" d="M168 169h9v1h-9z"/><circle cx="244" cy="30" r="16" fill="#a64617"/><path fill="#373735" d="M231.9 157.7l-29 6.8 15.1-9.6 3.3-.1z"/><path fill="#1c2022" d="M197 150h20v2h-20z"/><path fill="#49463c" d="M62.1 152.9l-46.4 13.5-31.7 5.1 8.1-9.7z"/><path fill="#675a4d" d="M43 167l38-17 16 12z"/><path fill="#f5ffff" d="M92 59.2l-3.1-2.6 3.2-3.8 3 2.6z"/><path fill="#262728" d="M94 155h24v2H94z"/></g></g></svg>