<svg xmlns="http://www.w3.org/2000/svg" viewBox="0 0 1800 1013"><defs/><filter id="a"><feGaussianBlur stdDeviation="12"/></filter><rect width="100%" height="100%" fill="#3a5060"/><g filter="url(#a)"><g fill-opacity=".5" transform="translate(3.5 3.5) scale(7.03125)"><circle r="1" fill="#fff" transform="matrix(254.03266 -22.1903 4.22707 48.39112 57.2 45)"/><circle cx="148" cy="143" r="89" fill="#667272"/><circle r="1" fill="#cacedf" transform="matrix(-151.63505 -42.53689 6.5534 -23.36146 172.7 37.3)"/><ellipse cx="154" cy="83" fill="#483014" rx="73" ry="15"/><ellipse cx="101" cy="129" fill="#618093" rx="255" ry="36"/><ellipse cx="21" cy="23" fill="#bec3d1" rx="237" ry="49"/><path fill="#abb1c3" d="M106 31l-122 69h93z"/><circle r="1" fill="#a2aebc" transform="matrix(108.8913 21.76343 -5.73698 28.70444 228.3 45.6)"/><ellipse cx="112" cy="110" fill="#24434e" rx="221" ry="5"/><path fill="#594d3e" d="M186.2 97.3l84.8-.5-85.1-35L70.1 96.7z"/><ellipse cx="28" cy="123" fill="#71808f" rx="163" ry="8"/><path fill="#4c4840" d="M110 65l72 14L75 92z"/><ellipse cx="128" cy="1" fill="#c4cad7" rx="137" ry="13"/><ellipse cx="99" cy="100" fill="#708697" rx="219" ry="4"/><ellipse cx="150" cy="61" fill="#aeb5c5" rx="21" ry="9"/><circle r="1" fill="#9da8b9" transform="matrix(-44.09822 6.60305 -2.72479 -18.1974 237 55)"/><path fill="#b5bdd0" d="M32 90h47v6H32z"/><path fill="#574f3f" d="M230.1 98.5L271 84.9l-68.3-13.1-89.3 23.7z"/><path fill="#c6c8d2" d="M21.9 10.5l90-12.7 4.2 29.7-90 12.7z"/><path fill="#366170" d="M172 100h84v4h-84z"/><path fill="#a7aeba" d="M138.7 40.3L37.3 83.9l83.4-17.5 46.4-.4z"/><circle r="1" fill="#a2aec2" transform="matrix(-37.07599 -8.2138 11.29026 -50.96276 255 27.4)"/><ellipse cx="244" cy="125" fill="#5e7a8b" rx="122" ry="9"/><path fill="#5b6d7c" d="M-16 95.3L67.3 159-16 113.5l53.3-17.1z"/><path fill="#5c594f" d="M244 84l-69-23-24 19z"/><ellipse cx="177" cy="143" fill="#446875" rx="116" ry="9"/><ellipse cx="112" cy="98" fill="#8094a4" rx="137" ry="1"/><ellipse cx="194" cy="93" fill="#393635" rx="45" ry="3"/><path fill="#a5abbb" d="M82.7 72.2l-5.6 26.4-97.8-20.8 5.6-26.4z"/><path fill="#b2bac7" d="M88 56l183-25L130-2z"/><path fill="#677a88" d="M-9.4 133.7l69.1 3.2 3.9 22.1-5.1-46.4z"/><path fill="#8e9aaa" d="M72 97h37v4H72z"/><path fill="#b3b8c4" d="M71.4 98l39.7-64.9L-16 17 90.4 76.2z"/><circle r="1" fill="#a0aab8" transform="matrix(1.35365 13.56183 -53.92037 5.38197 246 58.7)"/><path fill="#395461" d="M169 106l-25 11 59-3z"/><path fill="#565049" d="M77 96l21-26 34-3z"/><path fill="#335159" d="M15 141h40v3H15z"/><path fill="#a5acb7" d="M142.4 54.7L97.3 72.9l-14.9 9.6-10.6-29.7z"/><path fill="#4e4942" d="M80 88h74v8H80z"/><path fill="#355966" d="M215 133h29v5h-29z"/><circle r="1" fill="#afb6c6" transform="matrix(7.87245 -13.36477 17.39596 10.247 15.8 4.4)"/><path fill="#594c40" d="M222 80h34v16h-34z"/><ellipse cx="154" cy="106" fill="#436372" rx="195" ry="2"/><path fill="#5a7888" d="M256.4 145.2l-119.8-10.5 50.8-3.6 64 11.1z"/><path fill="#627d8a" d="M157.2 98.7l16-5 30.1 12.9-60.2-1.1z"/><path fill="#395a67" d="M123 131h18v9h-18z"/><path fill="#a7afbb" d="M126 53h42v15h-42z"/><path fill="#667388" d="M0 96h65v3H0z"/><path fill="#646264" d="M184.2 61.5L165.7 67l42.2 11.3-12.1-10.5z"/><path fill="#615b49" d="M206 71l17 2 14 14z"/><path fill="#a0aec2" d="M213.4 29.2l-.8-21 42-1.4.8 21z"/><ellipse cx="252" cy="111" fill="#314c58" rx="63" ry="4"/><circle r="1" fill="#9faabb" transform="matrix(-7.86363 -20.92085 23.2911 -8.75455 247.3 56.4)"/><ellipse cx="191" fill="#bec6d3" rx="77" ry="6"/><path fill="#524f3f" d="M135.1 94.9l28.5-12.2-55.4-14.5 10.6-.8z"/><ellipse cx="92" cy="103" fill="#7d90a0" rx="69" ry="1"/><ellipse cx="19" cy="109" fill="#3c5865" rx="94" ry="5"/><ellipse cx="156" cy="139" fill="#10363d" rx="10" ry="1"/><path fill="#57524e" d="M107.9 68.2l-13.8 6.6-14.5 13.5 42.9 9.6z"/><path fill="#617584" d="M13 114h23v23H13z"/><path fill="#8091a0" d="M53 127h40v2H53z"/><path fill="#6b8797" d="M64 134h28v4H64z"/><path fill="#5d7a89" d="M161 142l-69 17 27-22z"/><path fill="#3f5866" d="M11 124h6v12h-6z"/><ellipse cx="170" cy="72" fill="#5d584f" rx="34" ry="4"/><ellipse cx="88" cy="107" fill="#446372" rx="54" ry="3"/><path fill="#657d90" d="M261 115h-27l7 12z"/><path fill="#85776e" d="M228 97h17l-6-3z"/><path fill="#395867" d="M218.7 141.8l18.5 2.5-2.4-9.2 36.2 5z"/><path fill="#1a333b" d="M0 121h5v2H0z"/><circle cx="106" cy="129" r="3" fill="#35535e"/><ellipse cx="96" fill="#cfd2db" rx="20" ry="11"/><ellipse cx="250" cy="72" fill="#a4b0bf" rx="30" ry="5"/><ellipse cx="93" cy="45" fill="#b2b8c3" rx="118" ry="12"/><path fill="#465e6b" d="M181 118h21l-9 6z"/><path fill="#405360" d="M64.4 122.2l.2 3-11 .6-.2-3z"/><ellipse cx="156" cy="101" fill="#4c6576" rx="161" ry="1"/><path fill="#a1a9ba" d="M1.7 56.2l77.2 42.5-66.5-10.1L-16 103z"/><ellipse cx="40" cy="129" fill="#3a5764" rx="5" ry="2"/><path fill="#a9b1bc" d="M142 51h80v11h-80z"/><ellipse cx="14" cy="102" fill="#798899" rx="135" ry="1"/><path fill="#4e6c7c" d="M242.6 128.8l-53.2-11 55.7 20 25.9-17.4z"/><path fill="#647e8c" d="M159 121h53v9h-53z"/><path fill="#8290a0" d="M83 121l-20 6 9-8z"/><path fill="#2b2124" d="M242.1 94.5l15.9 2-.1 1-15.9-2z"/><path fill="#6f634c" d="M224.2 74.8l12.2 3.1 21.1 2.7-31.6-.8z"/><path fill="#55513f" d="M184.7 98.2l32.2-23.4-46.2 6.6-1.5 14.2z"/><path fill="#8d9194" d="M164.4 97.3l7.3-1 6.9 1.9-19.6.8z"/><path fill="#566977" d="M137.2 113.6l-5.9 1.5-22.7 7.2-36.7-6.3z"/><ellipse cx="135" cy="112" fill="#35515c" rx="157" ry="2"/><path fill="#778494" d="M55 118l-3 9-19-7z"/><path fill="#393635" d="M180 92h56v3h-56z"/><circle r="1" fill="#909db1" transform="matrix(22.18758 -.66379 .08615 2.87955 255 56.7)"/><path fill="#6e8292" d="M-12.1 135.4l-.6-6 26.8-2.8.6 6z"/><path fill="#394e59" d="M61 114h24v2H61z"/><path fill="#476672" d="M188.3 123l-6.9-.7 26.7 36.7-22.7-1.6z"/><path fill="#496774" d="M128 127l-10 15 4-19z"/><path fill="#a6b2c3" d="M83 81l-6 14-41-2z"/><path fill="#17383f" d="M67 142h10v1H67z"/><path fill="#a3acb9" d="M184 58l-54-5 9 16z"/></g></g></svg>