<svg xmlns="http://www.w3.org/2000/svg" viewBox="0 0 1800 1013"><defs/><filter id="prefix__a"><feGaussianBlur stdDeviation="12"/></filter><rect width="100%" height="100%" fill="#447c74"/><g filter="url(#prefix__a)"><g transform="translate(3.5 3.5) scale(7.03125)"><ellipse cx="116" cy="18" fill="#a890c9" fill-opacity=".5" rx="255" ry="30"/><path fill="#565c5c" fill-opacity=".5" d="M0 47h256v15H0z"/><circle r="1" fill="#4b857c" fill-opacity=".5" transform="matrix(-3.52458 -23.67859 99.8675 -14.86538 151.7 80.4)"/><path fill="#6b7b97" fill-opacity=".5" d="M176 46l95 1-3-25z"/><ellipse cx="24" cy="43" fill="#6b7b94" fill-opacity=".5" rx="255" ry="5"/><path fill="#c6bbcb" fill-opacity=".5" d="M45.5 50.4l1.5-3.7 7.5 2.9-1.5 3.7z"/><ellipse cx="127" fill="#808fa7" fill-opacity=".5" rx="87" ry="30"/><circle r="1" fill="#396f66" fill-opacity=".5" transform="rotate(151.1 106 97) scale(63.6545 20.65024)"/><path fill="#2f3b52" fill-opacity=".5" d="M0 48h166v3H0z"/><path fill="#768685" fill-opacity=".5" d="M226.1 52.5l-3.2-6.8 18.6 9.8-54.9 1.6z"/><path fill="#3b746a" fill-opacity=".5" d="M-28.2 72.6L102 160.4l-35.8 53L-64 125.6z"/><ellipse cx="195" cy="55" fill="#a4a4a1" fill-opacity=".5" rx="30" ry="1"/><path fill="#9ea6b0" fill-opacity=".5" d="M53.2 51.8l-8 .4-.4-6 8-.4z"/><path fill="#39605d" fill-opacity=".5" d="M253.8 45.2l-31.4 17.6 39.5 1.4 9.1 11.6z"/><ellipse cx="69" cy="54" fill="#5f6f5a" fill-opacity=".5" rx="109" ry="3"/><path fill="#3b4b58" fill-opacity=".5" d="M159.5 52v-4h61v4z"/><path fill="#488a84" fill-opacity=".5" d="M0 64h176v5H0z"/><path fill="#6e7c93" fill-opacity=".5" d="M0 31h58v17H0z"/><path fill="#3e6d62" fill-opacity=".5" d="M209.8 51.6l7.9 1-1.5 11.8-7.9-1z"/><ellipse cx="146" cy="58" fill="#4e7a6b" fill-opacity=".5" rx="127" ry="3"/><circle r="1" fill="#4b837a" fill-opacity=".5" transform="matrix(-.22616 -23.7044 50.98764 -.48646 162.5 92.1)"/><path fill="#3a4954" fill-opacity=".5" d="M226 47h45l-18 8z"/><path fill="#848a9c" fill-opacity=".5" d="M181.9 47.8l.1 1-9.9 1.4-.1-1z"/><ellipse cx="160" cy="56" fill="#788880" fill-opacity=".5" rx="58" ry="1"/><ellipse cx="211" cy="70" fill="#3d8278" fill-opacity=".5" rx="48" ry="8"/><circle r="1" fill="#427e74" fill-opacity=".5" transform="matrix(-85.8744 -5.49108 .86297 -13.4959 59 108.7)"/><path fill="#415b50" fill-opacity=".5" d="M113.5 53.5h105v1h-105z"/><path fill="#a1b0b3" fill-opacity=".5" d="M228 53h10v2h-10z"/><circle r="1" fill="#427b70" fill-opacity=".5" transform="matrix(-4.64219 -12.39031 157.12996 -58.8707 229.2 113.1)"/><ellipse cx="248" cy="43" fill="#6e8198" fill-opacity=".5" rx="90" ry="4"/><circle r="1" fill="#366c64" fill-opacity=".5" transform="matrix(-.2243 -7.1375 32.92477 -1.0347 246.4 143)"/><circle r="1" fill="#41716d" fill-opacity=".5" transform="matrix(69.61096 .4178 -.01518 2.52857 190.1 61.5)"/><circle r="1" fill="#437571" fill-opacity=".5" transform="matrix(-2.19244 -16.6532 28.53522 -3.75673 2.1 84.3)"/><circle r="1" fill="#3f776d" fill-opacity=".5" transform="matrix(.84168 -12.03656 115.35547 8.06644 95 143)"/><path fill="#79857c" fill-opacity=".5" d="M0 55h28v1H0z"/><path fill="#486a66" fill-opacity=".5" d="M224.1 62.4l-.5-.8 24.3-14 .5.8z"/><ellipse cx="239" cy="48" fill="#36405a" fill-opacity=".5" rx="54" ry="1"/><circle cx="50" cy="50" r="2" fill="#c8caca" fill-opacity=".5"/><path fill="#2b424c" fill-opacity=".5" d="M39.4 51.6l-42.9-2.2v-1l43 2.2z"/><ellipse cx="176" cy="50" fill="#374c48" fill-opacity=".5" rx="33" ry="1"/><path fill="#76849b" fill-opacity=".5" d="M-16 29L-5-2l106 46z"/><path fill="#bbbdba" fill-opacity=".5" d="M52 50h3v3h-3z"/><circle cx="231" cy="54" r="2" fill="#aeb5b7" fill-opacity=".5"/><ellipse cx="5" cy="52" fill="#465953" fill-opacity=".5" rx="35" ry="2"/><path fill="#69788f" fill-opacity=".5" d="M0 43h71v5H0z"/><ellipse cx="91" cy="67" fill="#49847e" fill-opacity=".5" rx="52" ry="6"/><circle r="1" fill="#7889a1" fill-opacity=".5" transform="rotate(-107.3 101.8 -63.1) scale(11.59416 42.74713)"/><circle r="1" fill="#457e74" fill-opacity=".5" transform="matrix(-63.33319 32.96917 -7.56926 -14.54042 193.3 104.3)"/><circle r="1" fill="#7a88a0" fill-opacity=".5" transform="rotate(112.9 21.5 25) scale(9.74253 68.11603)"/><path fill="#437064" fill-opacity=".5" d="M134 51h95v3h-95z"/><circle r="1" fill="#72859d" fill-opacity=".5" transform="matrix(-43.39863 11.0354 -2.37072 -9.3233 230 29.2)"/><circle r="1" fill="#467b76" fill-opacity=".5" transform="matrix(2.33885 12.106 -34.01374 6.57138 57 86)"/><path fill="#64707b" fill-opacity=".5" d="M209.5 49.5v-1h41v1z"/><path fill="#b2b4b7" fill-opacity=".5" d="M225.5 54.3l-5 .4v-1l5-.4z"/><ellipse cx="206" cy="57" fill="#4d7c6b" fill-opacity=".5" rx="54" ry="2"/><ellipse cx="173" cy="52" fill="#548073" fill-opacity=".5" rx="34" ry="1"/><ellipse cx="165" cy="84" fill="#4b827b" fill-opacity=".5" rx="48" ry="17"/><circle r="1" fill="#417d72" fill-opacity=".5" transform="matrix(-54.8588 -32.0777 7.22935 -12.36353 88.8 140.7)"/><ellipse cx="126" cy="38" fill="#74849c" fill-opacity=".5" rx="94" ry="5"/><ellipse cx="46" cy="61" fill="#466e6b" fill-opacity=".5" rx="52" ry="3"/><path fill="#5f726e" fill-opacity=".5" d="M15 50h5v6h-5z"/><ellipse cx="147" cy="56" fill="#808c91" fill-opacity=".5" rx="11" ry="1"/><ellipse cx="121" cy="112" fill="#458177" fill-opacity=".5" rx="69" ry="7"/><path fill="#324a50" fill-opacity=".5" d="M59 49h104v1H59z"/><circle r="1" fill="#3c7168" fill-opacity=".5" transform="matrix(-15.41987 -9.38276 7.34085 -12.06415 9.5 143)"/><path fill="#617f72" fill-opacity=".5" d="M106.6 56.2l-3.9.9.4-3.2 13.1-1.2z"/><circle cx="243" cy="49" r="1" fill="#8c929e" fill-opacity=".5"/><path fill="none" stroke="#486467" stroke-opacity=".5" stroke-width=".5" d="M43.5 47.8q17.9 5.7 65.7 1.4"/><circle r="1" fill="#6a7c93" fill-opacity=".5" transform="rotate(65.6 92.5 211.2) scale(1 27.93346)"/><circle r="1" fill="#3c6866" fill-opacity=".5" transform="matrix(.00565 .99998 -31.60983 .17867 236.8 60.4)"/><path fill="#4b7e79" fill-opacity=".5" d="M28 62h76v2H28z"/><circle r="1" fill="#41857d" fill-opacity=".5" transform="matrix(44.57685 -1.73278 .14268 3.6706 176.7 67.8)"/><path fill="#417970" fill-opacity=".5" d="M247.2 77.8l-11.9 25.1-48.7 39.4 84.4-17.8z"/><ellipse cx="255" cy="51" fill="#354f54" fill-opacity=".5" rx="52" ry="1"/><ellipse cx="41" cy="57" fill="#5c7b63" fill-opacity=".5" rx="45" ry="1"/><path fill="#4b7f78" fill-opacity=".5" d="M204 94h30v10h-30z"/><circle cx="229" cy="52" r="2" fill="#5b797c" fill-opacity=".5"/><path fill="#4b5e50" fill-opacity=".5" d="M52 53h50v1H52z"/><ellipse cx="128" cy="48" fill="#45546a" fill-opacity=".5" rx="49" ry="1"/><circle cx="172" cy="47" r="3" fill="#68798c" fill-opacity=".5"/><path fill="#48756e" fill-opacity=".5" d="M104 58h84v4h-84z"/><ellipse cx="244" cy="68" fill="#3c7e76" fill-opacity=".5" rx="20" ry="6"/><path fill="#576585" fill-opacity=".5" d="M227 47h29v1h-29z"/><path fill="#466857" fill-opacity=".5" d="M233 54h23v3h-23z"/><path fill="#457d75" fill-opacity=".5" d="M246 123l-34-10-33 14z"/><circle r="1" fill="#707f94" fill-opacity=".5" transform="rotate(-82.1 47.8 -5) scale(9.82864 2.81184)"/><path fill="#3c5253" fill-opacity=".5" d="M184 49h34v2h-34z"/><path fill="#4a7864" fill-opacity=".5" d="M232 104h19v3h-19z"/><path fill="#488171" fill-opacity=".5" d="M216 57h40v2h-40z"/><path fill="#407a73" fill-opacity=".5" d="M6.8 94.8l39.6 5.6-3.2 22.8-39.6-5.6z"/><ellipse cx="65" fill="#828ea4" fill-opacity=".5" rx="55" ry="2"/><path fill="#54807e" fill-opacity=".5" d="M187 138h10v3h-10z"/><ellipse cx="130" cy="50" fill="#3a5652" fill-opacity=".5" rx="31" ry="1"/><ellipse cx="114" cy="26" fill="#7f8da3" fill-opacity=".5" rx="22" ry="6"/><path fill="#4b7c70" fill-opacity=".5" d="M0 96h67v2H0z"/><path fill="#929aa2" fill-opacity=".5" d="M177.6 48.2l3 .6-.2 1-3-.6z"/><ellipse cx="234" cy="49" fill="#2e4849" fill-opacity=".5" rx="4" ry="1"/><circle cx="219" cy="55" r="1" fill="#aab7ba" fill-opacity=".5"/><path fill="none" stroke="#728298" stroke-opacity=".5" stroke-width=".5" d="M236.7 52.2q-4.9 3.3-57.1-30.7"/><ellipse cx="59" cy="60" fill="#466b65" fill-opacity=".5" rx="45" ry="2"/></g></g></svg>