<svg xmlns="http://www.w3.org/2000/svg" viewBox="0 0 3168 3168"><defs/><filter id="a"><feGaussianBlur stdDeviation="12"/></filter><rect width="100%" height="100%" fill="#3b595d"/><g filter="url(#a)"><g fill-opacity=".5" transform="translate(6.2 6.2) scale(12.375)"><circle cx="195" cy="39" r="178" fill="#deb3b6"/><circle r="1" fill="#ff6e67" transform="matrix(5.7595 35.19338 -72.70986 11.89918 181.4 181.7)"/><path fill="#99c6d5" d="M162.2 64.5L-36 47l9.8-111.6L172-47z"/><ellipse cx="53" cy="171" fill="#0f514d" rx="60" ry="123"/><ellipse cx="220" cy="119" fill="#256d72" rx="85" ry="28"/><ellipse cx="91" cy="237" fill="#003f3c" rx="167" ry="26"/><circle r="1" fill="#ff7875" transform="matrix(-56.15333 -12.97923 8.45011 -36.55854 180 181.7)"/><ellipse cx="230" cy="19" fill="#81a8b1" rx="203" ry="79"/><path fill="#03302a" d="M135.1 154l-36 37.4L78.8 172l36-37.4z"/><path fill="#ff9c96" d="M139 149h115v41H139z"/><circle r="1" fill="#9d6160" transform="matrix(-42.14218 22.31313 -8.40364 -15.8717 91.1 128.6)"/><ellipse cx="170" cy="197" fill="#ff5155" rx="66" ry="20"/><ellipse cx="233" cy="59" fill="#356770" rx="74" ry="13"/><circle r="1" fill="#15595d" transform="matrix(-32.35454 -26.01372 5.27174 -6.55672 134.5 97)"/><ellipse cx="10" cy="48" fill="#89a3ae" rx="15" ry="58"/><path fill="#f0afc0" d="M179 132l-25 19-37-33z"/><circle r="1" fill="#93969e" transform="rotate(173.3 30.7 27.5) scale(14.3942 99.83667)"/><circle r="1" fill="#45797f" transform="matrix(51.40434 7.13294 -3.22947 23.27353 37.7 159.8)"/><path fill="#daddde" d="M219 29l49 18-99-5z"/><circle r="1" fill="#fffcee" transform="matrix(-16.58244 31.60405 -2.65407 -1.39257 243 180)"/><path fill="#014f52" d="M70 70h41v14H70z"/><circle r="1" fill="#125752" transform="matrix(-4.35891 -2.17493 34.18862 -68.51971 228.2 227.5)"/><circle r="1" fill="#71372a" transform="matrix(14.07741 -4.25022 8.96676 29.69935 101 123.5)"/><ellipse cx="242" cy="139" fill="#003431" rx="63" ry="4"/><circle r="1" fill="#004747" transform="rotate(-82.3 213.6 27) scale(19.18792 70.07067)"/><circle r="1" fill="#2d4944" transform="matrix(8.87773 27.49815 -16.099 5.19753 46.3 106.2)"/><path fill="#b8c7ce" d="M183 21l88-37-5 39z"/><path fill="#bf112b" d="M113 209l69-9 13 21z"/><path fill="#cbbaa5" d="M73 82l46 3 5 21z"/><ellipse cx="154" cy="110" fill="#21585b" rx="29" ry="13"/><circle r="1" fill="#b7bfc9" transform="matrix(42.01407 -7.33263 2.81245 16.1146 28.5 7)"/><path fill="#ef92bc" d="M68 123l-19 15 45 4z"/><path fill="#d8d8d5" d="M212 83h44v9h-44z"/><path fill="#004c4c" d="M199.1 221.6L-16 199l189.1 72 75.7-69.2z"/><ellipse cx="135" cy="189" fill="#ff706b" rx="28" ry="19"/><circle r="1" fill="#2e5b66" transform="matrix(-35.18054 3.51148 -1.01235 -10.1424 19 61.3)"/><path fill="#fdd2cd" d="M209.8 218.7l23.3-12.5 17.3-27.4-34.9 27.1z"/><path fill="#81989a" d="M252.9 117.6l1 14-98.8 6.8-1-14z"/><path fill="#c2c4ca" d="M158.3 35.2L41.2 16.5l35-1.4 55.9-.6z"/><path fill="#507784" d="M55.8 34.8l67.9-3.6.5 10-67.9 3.6z"/><path fill="#31697b" d="M54 16L31 28h49z"/><path fill="#d48876" d="M126 146l-30-20 5-15z"/><path fill="#cdc8ca" d="M74.2 55.3l3.8 1.2 50.2 10 28.8-9.3z"/><ellipse cx="220" cy="80" fill="#acb9bd" rx="87" ry="7"/><path fill="#ff8b86" d="M260 145l-40 63-94-43z"/><ellipse cx="198" cy="15" fill="#3d6c7b" rx="62" ry="2"/><circle r="1" fill="#296069" transform="matrix(.7896 3.47546 -18.44925 4.19157 169.6 13.6)"/><path fill="#5c3836" d="M37 48h13v53H37z"/><path fill="#114a50" d="M171.9 90.7l25 .5 12.7.5-34.4-7z"/><path fill="#205863" d="M227 25h29v6h-29z"/><path fill="#d8ad9b" d="M52 45h9v41h-9z"/><path fill="#55615f" d="M0 83h37v32H0z"/><circle r="1" fill="#02504d" transform="matrix(-86.8479 -28.77987 9.56324 -28.85863 57.2 220.1)"/><path fill="#075b5c" d="M-16 118l92-1-77 48z"/><path fill="#3c4542" d="M71 116l34 53 39-18z"/><circle r="1" fill="#678b8e" transform="matrix(-1.82134 5.63898 -30.26848 -9.77645 23.3 174.4)"/><path fill="#94a69d" d="M245.6 223.6l25.4-46.9-.9-26.2-26 51.4z"/><path fill="#563844" d="M181.1 207.6l21.6 46.1-39.9-65.7 11.8 10.5z"/><path fill="#e6e7fa" d="M151.7 130.6l-3.2 6.2-22.2-11.4 3.2-6.2z"/><circle r="1" fill="#3a6973" transform="matrix(37.91047 6.07227 -.4073 2.54284 115.2 67.5)"/><path fill="#18575f" d="M161 31h25v6h-25z"/><ellipse cx="246" cy="55" fill="#bec2c8" rx="24" ry="3"/><path fill="#e95d67" d="M138 133h16v26h-16z"/><path fill="#5d7a83" d="M160 56l-44.8-16.2 61.7-3.5L70.6 54.1z"/><path fill="#25191e" d="M108.2 114.7L74.6 104l19.1-4.5 6 .4z"/><circle cx="7" cy="42" r="10" fill="#bdc0c9"/><path fill="#b8c4cb" d="M152.6 21.3l39.8-3.5 1 11-39.8 3.4z"/><path fill="#2d5d64" d="M259 69l-69-23 33 22z"/><circle r="1" fill="#3e6c6e" transform="matrix(-34.83438 -3.65893 .60975 -5.80507 199.9 142.2)"/><path fill="#ff5d5b" d="M203.6 200.5l-2 16-89.2-11 2-16z"/><path fill="#2b6371" d="M220 6l-15-22-36 14z"/><circle r="1" fill="#2377a8" transform="matrix(-.45079 -1.64781 26.68045 -7.29894 214.5 216.9)"/><circle r="1" fill="#a8b9bc" transform="matrix(-.9181 -2.23208 27.47105 -11.29935 153.9 90.5)"/><path fill="#0d4340" d="M106 143l-46 28 49-9z"/><path fill="#38616a" d="M249 128.4l-34.9-.2 39.7-23.1 2.7 3.7z"/><path fill="#ff9f9b" d="M160 140l79 19-90 6z"/><path fill="#cbd5da" d="M200.6 12.6L170.8 2.3l38.5 5.6 7.5 6.7z"/><path fill="#94a4ac" d="M143.2 122.6l113.2-27.8-94.3 13.8 42.9.7z"/><path fill="#5f8288" d="M-1.4 142.1L30.1 132l-1.2 16.2-30.1-5.6z"/><path fill="#295e72" d="M20 11l-36 7 7-10z"/><path fill="#598280" d="M271 258.4l-32.7-9.5 10-13.8-19-5.2z"/><path fill="#91a2aa" d="M245 82l-29 1-18-32z"/><path fill="#00433d" d="M200.6 225.1l30.4-17.3 19.6 20.1L118.4 243z"/><path fill="#ba8b71" d="M128 148l-7-47-13 37z"/><path fill="#8e2942" d="M79.4 145.8l24.7-7.3-22.8 2.3-19.8-24.2z"/><ellipse cx="31" cy="60" fill="#56838d" rx="9" ry="24"/><path fill="#4c7484" d="M63 14.3l65.8-4.6.2 2-65.8 4.6z"/><path fill="#aeb9bd" d="M181 63.2l-43 .4 71 16.7-53.3 4.3z"/><path fill="#203c4b" d="M171.9 191.4l-3.6-1.9-9.5 1.2 8.4 3.3z"/><ellipse cx="97" cy="80" fill="#074e4f" rx="31" ry="3"/><circle r="1" fill="#145254" transform="matrix(-16.80479 2.4216 -.30908 -2.14484 207.2 49.8)"/><path fill="#c6c7cd" d="M89 7l20-19 42 14z"/><path fill="#b4a8a2" d="M93.2 96.4l32.8-6 10.4-7.9-50 12.6z"/><path fill="#ff5456" d="M188 221l35-11-20-18z"/><path fill="#c7ccce" d="M249.8 27.8l21.2-1.3-53.3 19.4 53.3-5.5z"/><path fill="#9f0023" d="M116.8 206.1l90.8 11.6-54.2-1.2-35.6-4.6z"/><path fill="#005254" d="M-2.1 85.8l23.3-5.4 1 3.8-23.4 5.4z"/><path fill="#2f6b6c" d="M78.6 260.4l3.3-18.9 7.5-4 22.1.2z"/><path fill="#025454" d="M.5 134L79 119.3l10.1 17.2-27.7-19.2z"/><path fill="#b0b9b6" d="M-12.5 98.4l-1-3.8 26-7 1 3.8z"/></g></g></svg>