<svg xmlns="http://www.w3.org/2000/svg" viewBox="0 0 1800 1240"><defs/><filter id="a"><feGaussianBlur stdDeviation="12"/></filter><rect width="100%" height="100%" fill="#493f3d"/><g filter="url(#a)"><g fill-opacity=".5" transform="translate(3.5 3.5) scale(7.03125)"><circle r="1" fill="#e4ffff" transform="matrix(-1.15859 73.75178 -251.25507 -3.94703 151.2 55.1)"/><circle r="1" fill="#f5f7fc" transform="matrix(21.80965 27.81488 -62.0418 48.647 221.6 17.3)"/><circle r="1" fill="#596a7c" transform="matrix(-3.15536 50.86146 -254.5107 -15.78942 93.8 149.6)"/><ellipse cx="16" cy="56" fill="#8eaada" rx="41" ry="85"/><path fill="#372310" d="M47 94h32v54H47z"/><ellipse cx="210" cy="140" fill="#281e0f" rx="139" ry="9"/><circle r="1" fill="#7e8587" transform="matrix(-2.65459 17.1069 -90.91544 -14.10793 214.1 168.8)"/><circle cx="100" cy="25" r="81" fill="#90a2c1"/><circle r="1" fill="#cdd6dd" transform="rotate(-169.6 2.9 31.6) scale(72.56343 15.52375)"/><circle r="1" fill="#66778d" transform="matrix(20.41837 33.45514 -25.2384 15.40352 16.8 131)"/><path fill="#fffef4" d="M172 55l39-21 2-50z"/><circle r="1" fill="#7891b4" transform="matrix(-10.29797 38.26358 -87.822 -23.63575 51.8 0)"/><path fill="#fffdf4" d="M166.7 3.3l38.1 9.8 40.1-27L136.6-3.1z"/><path fill="#2f2e2c" d="M112.7 117.3l22.6 16.5-24.8 9.8-25.2 2.7z"/><ellipse cx="174" cy="126" fill="#636b7c" rx="50" ry="9"/><circle r="1" fill="#9aa1b0" transform="matrix(6.72348 21.06746 -59.36441 18.9456 190.6 86.3)"/><ellipse cx="21" cy="141" fill="#100a04" rx="42" ry="2"/><path fill="#bebeba" d="M192.5 89.2l-58.3-17.8 9.3-30.6 58.3 17.8z"/><path fill="#adaeab" d="M176.7 5.2L197.4 21l-30 39.9L146.5 45z"/><path fill="#8292aa" d="M80 76h15v59H80z"/><path fill="#413e36" d="M52 99h25v77H52z"/><path fill="#eaece9" d="M269.5-14.1l-64.2 84.3L271 15.4 221.5-16z"/><path fill="#8c929c" d="M44.6 139.8l1-.3-51.9-.7 55-18.8z"/><path fill="#202020" d="M213 133l-5-20-3 28z"/><path fill="#82889a" d="M221 70h35v58h-35z"/><ellipse cx="93" cy="154" fill="#637587" rx="16" ry="10"/><circle r="1" fill="#828fa1" transform="matrix(.50256 -9.2811 53.31415 2.88687 98.2 92)"/><path fill="#9ca4ae" d="M206 41l-38 58 41 17z"/><path fill="#edece6" d="M168.2 53l54.7-42.9-42.1 57.4-15-14z"/><circle r="1" fill="#98aec8" transform="matrix(-20.81365 .90874 -.24247 -5.55343 231.6 8.5)"/><ellipse cx="244" cy="148" fill="#191308" rx="44" ry="2"/><path fill="#838587" d="M190 169l22-17-55-3z"/><path fill="#6a5d50" d="M58 116l-13 16 35-2z"/><path fill="#d4d2cc" d="M37 61l7 23 28-15z"/><ellipse cx="62" cy="142" fill="#171718" rx="39" ry="2"/><path fill="#768090" d="M139.1 95.3l62.2 21.8-9.4 13.2-23.8 5.5z"/><circle r="1" fill="#6e97ca" transform="matrix(46.66832 -6.06116 1.85684 14.2969 21.8 0)"/><ellipse cx="15" cy="160" fill="#4c637d" rx="32" ry="18"/><path fill="#a9bdd3" d="M201.1 39.6l27-16.1 12.3 11.4-40.1 18.4z"/><path fill="#91b0d7" d="M-16 77.6l44.8 10.5-44-57.6 41 4.9z"/><path fill="#c4c7cb" d="M152.2 1.3l-26.3 6.1-2-8.7L150-7.4z"/><path fill="#73767b" d="M195 153h61v12h-61z"/><circle r="1" fill="#8391a6" transform="rotate(-91.7 71.1 -45.4) scale(16.60448 37.46836)"/><path fill="#6e665f" d="M163 141h68v2h-68z"/><path fill="#3e3c39" d="M124.4 136.8l-12.7-25.5-3.3 21.8-34.1 1.5z"/><path fill="#4a433c" d="M48 93h10v60H48z"/><ellipse cx="215" cy="137" fill="#272320" rx="30" ry="5"/><path fill="#8a97ac" d="M39.2 78.7l5.9 18-32.3 10.6-5.9-18z"/><path fill="#b0b4bb" d="M249.2 29.1l-3.2 10-54.7 45.2 71.8-45.9z"/><circle r="1" fill="#4a565e" transform="matrix(42.64562 2.98615 -1.18477 16.91985 131.2 175)"/><circle r="1" fill="#9ea6b0" transform="matrix(3.0491 22.33327 -13.7755 1.88073 164.4 20.2)"/><path fill="#49484a" d="M98.5 136.9L93 124.3l36.6 2.4-75.4 15.8z"/><path fill="#717887" d="M271 120l-52 7-9-22z"/><path fill="#dedbd7" d="M30 65L5 48l12 20z"/><path fill="#9ba5b2" d="M14 53l139 42-6-63z"/><path fill="#eff0ee" d="M246 30l25-16-32-4z"/><path fill="#949ba3" d="M239.8 116.1l18.4-39-58.6-20.7-5.2 13.3z"/><path fill="#657591" d="M6.1 99.7L46 130.5l-62-3.8L1.9 81.6z"/><path fill="#2c2f2f" d="M237.4 147.8l6.9-20.8-29.2 5.9 29.4.4z"/><path fill="#8895a6" d="M57 81h86v17H57z"/><ellipse cx="18" cy="133" fill="#93979d" rx="29" ry="4"/><path fill="#282723" d="M117.3 132.2l3.7 13.5-10.3 4 1.4-37.4z"/><path fill="#4e5661" d="M258.2 138.2l-13 1.5-1.4-11.9 13-1.5z"/><path fill="#f8f7f1" d="M173.7-16l24.8 34.8 11-23.1L175 3.5z"/><path fill="#5d6876" d="M118.4 145.6l19 2-1.8 16.8-19-2z"/><ellipse cx="68" cy="175" fill="#3c4954" rx="68" ry="8"/><path fill="#584c41" d="M49 106h31v27H49z"/><ellipse cx="180" cy="146" fill="#291f15" rx="27" ry="2"/><path fill="#0e1316" d="M53 143h44v2H53z"/><path fill="#bbbdbb" d="M151 43h26v26h-26z"/><path fill="#4b3f34" d="M144 130h16v12h-16z"/><path fill="#26201a" d="M66 104h2v35h-2z"/><path fill="#758095" d="M163.8 117.8l-39.2-16.5L112 120l28.7 13.4z"/><ellipse cx="103" cy="128" fill="#616e7c" rx="19" ry="2"/><path fill="#8a96a6" d="M114.4 68.8l39.4 37.1-64.6 5.5-23.6-19.9z"/><path fill="#7e8ca2" d="M39 89h9v39h-9z"/><path fill="#98aec7" d="M236 2l4.6 16.4L228 22l-4.7-16.4z"/><path fill="#e1e3df" d="M241.8 35.3l-5 16-59.2-2.8 42.3 8.5z"/><path fill="#6b625a" d="M214 142h41v2h-41z"/><path fill="#aeb5c0" d="M78 4l10-5 5 11z"/><path fill="#85a1c6" d="M61.5 30.7L67.4-16 55.3 1.3 24.7 11.5z"/><path fill="#76849d" d="M110 115l-1 10-30-10z"/><path fill="#627184" d="M12 144h33v14H12z"/><path fill="#aac1d9" d="M22 67L11 79l20 11z"/><path fill="#2c2d2e" d="M206.6 138.3l2.8-22.8 2 .2-2.8 22.8z"/><path fill="#818b95" d="M206 72h26v9h-26z"/><path fill="#878e9a" d="M179.3 113.4l76.1 5.3 15.6-7.3-79.4-7.7z"/><path fill="#7e90ad" d="M-18.6 98.8l4-18.6 33.2 7-4 18.6z"/><circle r="1" fill="#8d9db3" transform="rotate(-172.1 34.3 16.9) scale(62.39052 10.92393)"/><path fill="#a0a8b1" d="M208.2 104.1l4.3 8.6 18.9-22.4L100.5 64z"/><path fill="#b3c6d8" d="M193 42h16v10h-16z"/><ellipse cx="235" cy="173" fill="#616364" rx="39" ry="6"/><ellipse cx="58" cy="139" fill="#52483e" rx="20" ry="2"/><ellipse cx="162" cy="141" fill="#6f6b68" rx="28" ry="1"/><path fill="#74777e" d="M229 93l-17 23 5 10z"/><path fill="#7b8aa1" d="M80 100h13v32H80z"/><circle r="1" fill="#f2f2ed" transform="matrix(-2.70201 -1.90422 15.54265 -22.05436 196.9 34.8)"/><path fill="#9ba5b1" d="M115.3 86.8L189 10.2 95.6 65.7 59.5 80.3z"/><path fill="#b2c0ce" d="M208.6 43.6l47.1-27.8-31 26.4 3.6 5.9z"/><path fill="#fefefa" d="M271 25.4l-32.2 6.3 11.4-8.8 20.6-2.4z"/></g></g></svg>