<svg xmlns="http://www.w3.org/2000/svg" viewBox="0 0 1800 1200"><defs/><filter id="a"><feGaussianBlur stdDeviation="12"/></filter><rect width="100%" height="100%" fill="#5c443f"/><g filter="url(#a)"><g fill-opacity=".5" transform="translate(3.5 3.5) scale(7.03125)"><ellipse cx="41" cy="40" fill="#fdffff" rx="215" ry="41"/><circle r="1" fill="#d0e7ed" transform="rotate(-74 190 -122) scale(94.91306 28.18078)"/><circle r="1" fill="#e4f9ff" transform="matrix(90.34602 -104.2983 29.42802 25.49135 22.1 38)"/><path fill="#2a201b" d="M160 185l32-201 33 131z"/><circle r="1" fill="#0e0501" transform="matrix(13.75934 -24.41889 13.08376 7.37232 91.7 49)"/><circle r="1" fill="#fcffff" transform="matrix(-9.69581 17.58304 -40.63281 -22.40614 136.4 31.1)"/><circle r="1" fill="#b5cace" transform="matrix(15.09772 4.22735 -10.41575 37.19918 149.4 141.8)"/><circle r="1" fill="#000005" transform="matrix(-22.6066 -1.70041 2.8764 -38.241 22.5 140.3)"/><path fill="#716b68" d="M44 58h56v103H44z"/><circle r="1" fill="#14574a" transform="matrix(1.39028 -14.70766 85.9131 8.12118 237.9 13.2)"/><circle r="1" fill="#d5e7eb" transform="matrix(9.70214 11.5262 -35.21278 29.64023 118.8 67.6)"/><path fill="#1b2223" d="M162.4 104.7l5.5-37.3-14.3-8.8L60 151.7z"/><circle r="1" fill="#e6efea" transform="matrix(9.15934 -13.09762 30.80643 21.54335 238.4 54.2)"/><circle r="1" fill="#645349" transform="matrix(-17.88553 -18.43566 23.58119 -22.87752 58.3 86.6)"/><path fill="#949796" d="M87.5 171.4l1-31 64 2.2-1 31z"/><path fill="#161917" d="M71 30l24-7-5 33z"/><path fill="#385148" d="M229-16L101-4l168 43z"/><path fill="#eaf8fb" d="M170 42L140 8l54 13z"/><path fill="#978a80" d="M178 108.8l-53-40.5 36 18.2 24.3-38.6z"/><path fill="#6d7177" d="M245.6 124.6l-32.2 72.2-21-9.4 32.2-72.2z"/><circle r="1" fill="#ebedeb" transform="matrix(32.0191 -7.11162 3.78214 17.02855 44.1 46.3)"/><path fill="#03151e" d="M133.2 135.9l-27.5-38-32.5 18.5 44.9 25.9z"/><ellipse cx="195" cy="49" fill="#362019" rx="9" ry="29"/><path fill="#2b281c" d="M192 152l-14 13-44-41z"/><path fill="#8c7c74" d="M56 100l-18 85 55-57z"/><path fill="#ffe" d="M248 123l23-39-27 21z"/><path fill="#f4fafe" d="M69 6L44 21l62 6z"/><path fill="#7d7f7a" d="M65.7 8.1L10.8 43l68.6-55.1L96.5 15z"/><circle r="1" fill="#001319" transform="matrix(-17.60456 -7.83806 22.35137 -50.20199 19.4 157.3)"/><ellipse cx="201" cy="69" fill="#563933" rx="27" ry="15"/><path fill="#8a7663" d="M170 97l8 45 24 10z"/><path fill="#0a0502" d="M145.3 70.8l16.1-10 5.3 8.4-16.1 10z"/><path fill="#9c7a69" d="M116 95h13v26h-13z"/><path fill="#001010" d="M154 153h32v14h-32z"/><path fill="#7a8d9d" d="M0 79h42v21H0z"/><path fill="#56423b" d="M86.6 185L80.5 22.7l40.7 13.9-70.3 25.2z"/><path fill="#23333f" d="M114 82l43-12-67 44z"/><circle r="1" fill="#b1c3d6" transform="rotate(169.5 73.2 67.7) scale(9.6456 14.58105)"/><path fill="#d6e2e7" d="M184 57l-8-42L61-8z"/><path fill="#cac9c3" d="M272.1 75.8l-41.7 5.1-4.5-36.7 41.7-5.1z"/><ellipse cx="218" cy="169" fill="#74726b" rx="39" ry="17"/><path fill="#1c1719" d="M66.8 185l-9.6-28.4h27.4l5.2 28.4z"/><path fill="#756861" d="M228 127l-17 4 8-63z"/><circle r="1" fill="#3f5f55" transform="rotate(-165.8 121.2 -7.1) scale(60.74801 18.21891)"/><path fill="#b9cdd9" d="M170 100l-7-8 11-24z"/><path fill="#000a12" d="M169 90l-33 28-5-19z"/><path fill="#dbd9cf" d="M85 71h56v7H85z"/><path fill="#13191d" d="M131.8 139.9l-20.5-39-10.2.9-9.7 39.4z"/><path fill="#e2e7e3" d="M108 68.3l6.2-44.6 13.9 2-6.3 44.6z"/><path fill="#62645d" d="M60.7 7.1L-40.1 77.7l-.6-.8L60.1 6.3z"/><path fill="#12325f" d="M223 120h14v10h-14z"/><path fill="#4b3e2f" d="M81.6 25.6l-.2 11-11-.2.2-11z"/><path fill="#9fa3a5" d="M45.8 136l17.7 7.5-5.3-36.1L43.3 185z"/><path fill="#182120" d="M196.6 25.4l8.3 5.1-22.4 14-1.1-11.1z"/><path fill="#646553" d="M163 149l73 6-35-15z"/><circle cx="170" cy="136" r="7" fill="#00090e"/><path fill="#dde3df" d="M88.6 7.5l52.9 56.3 35.1-8.8-2 13.6z"/><path fill="#c3bcb2" d="M246 116h10v44h-10z"/><path fill="#cbd0ce" d="M237.3 33.9l-29.1-8.5-2.3 29.4L271 44.5z"/><circle r="1" fill="#3b2f29" transform="rotate(-63.6 137.7 -90.5) scale(9.5824 13.2835)"/><path fill="#514e47" d="M126 3l68-2 10 21z"/><path fill="#8e8d8c" d="M202.2 166.5l-38.7 3.5 54.7-1.4 6.9-44.4z"/><path fill="#775245" d="M62 62l42-16 1 18z"/><circle r="1" fill="#ebeef2" transform="matrix(6.02002 9.12984 -21.11815 13.92486 57 24.8)"/><path fill="#b4b2b1" d="M146.5 136.8L160 150l-14.6 15.2L132 152z"/><path fill="#554310" d="M116 159h21v6h-21z"/><circle r="1" fill="#d6dfe9" transform="matrix(9.49133 22.14494 -34.35516 14.72464 25.1 0)"/><circle r="1" fill="#8d9493" transform="rotate(54 -48.3 26.4) scale(3.04188 44.90781)"/><path fill="#705046" d="M63.6 142.7L56.5 57l30 83 24 45z"/><path fill="#a8b4bb" d="M-16 137.9l36.1-52.8-25.5 28.6 63.7-61.8z"/><path fill="#6b4f41" d="M199 73l-14-32 38 20z"/><path fill="#263239" d="M82.5 30.6l-4.7 9.8 35.9 6.2-14.2-19.2z"/><path fill="#403b37" d="M72 9l13-25L71-3z"/><path fill="#090d10" d="M-1.3 185l19.6-39.3 26.2 4-3.8 35.3z"/><path fill="#a0b4d1" d="M84 94l15 8 6-17z"/><path fill="#d3d5d4" d="M148 22h45v5h-45z"/><path fill="#72645a" d="M132 168h123v2H132z"/><path fill="#e5e9e9" d="M69.7 31l7.6 20.7-31 11.3-7.6-20.7z"/><path fill="#959183" d="M153.7 86.6l-30.5-44.7-12.4-6.1L83.9 8z"/><path fill="#a4abb3" d="M154.9 103.9l-16.2 16.4 27.2 23.2-10.1-40.3z"/><path fill="#ad968b" d="M42.6 67.7l4.8-1.3 8 30-4.8 1.2z"/><path fill="#aab2bd" d="M235.7 110.8l12.8-19.5-21.3 5.9-5.9 23.8z"/><path fill="#727881" d="M236 88l11-18 16 20z"/><path fill="#a19997" d="M114.4 114.2l6.3-23.2 2.9.8-6.3 23.2z"/><path fill="#6b4e38" d="M133 131h17l-24-22z"/><path fill="#3f3f3c" d="M218.7 156.4L187 166l-3.8-12.4L215 144z"/><path fill="#17232c" d="M56 120L16 96l33 44z"/><path fill="#6a6960" d="M45.4 64.9L40 80.2l9.5 36.1-28.1-17.2z"/><path fill="#e8eff1" d="M54.8 11.2l22.9 7.1-3.9-16L99.5 25z"/><path fill="#724f3f" d="M139 68l2 25 20-6z"/><path fill="#b1b1ad" d="M61.1 115.1l-14.5 33.1-1.7 2.9 9.4-5.8z"/><path fill="#1d1b18" d="M152.8 98.1l17 5.8-14.4-21.8 13.1 32.7z"/><path fill="#3c4449" d="M93 134l9-35-19 4z"/><path fill="#7b7460" d="M166 143h39v7h-39z"/><path fill="#dde7ee" d="M89.1 7.4L120.7 43l22.4-10L89.9-7z"/><path fill="#3b1f22" d="M174 96h39v26h-39z"/><path fill="#515046" d="M65-10.9l2.7 1.5L57 10.9l-2.6-1.5z"/><ellipse cx="242" cy="127" fill="#583c38" rx="3" ry="8"/><circle r="1" fill="#342821" transform="rotate(-163.4 106.3 -6.7) scale(167.19897 1)"/><path fill="#7f857c" d="M81.4-8.3l22 38.1-.8.5-22-38.1z"/></g></g></svg>