<svg xmlns="http://www.w3.org/2000/svg" viewBox="0 0 4752 3168"><defs/><filter id="a"><feGaussianBlur stdDeviation="12"/></filter><rect width="100%" height="100%" fill="#58593f"/><g filter="url(#a)"><g fill-opacity=".5" transform="translate(9.3 9.3) scale(18.5625)"><ellipse cx="172" cy="38" fill="#b9e7ff" rx="255" ry="44"/><ellipse cx="160" cy="99" fill="#d1d1d1" rx="37" ry="10"/><ellipse cx="48" cy="39" fill="#90a8db" rx="255" ry="37"/><ellipse cx="132" cy="149" fill="#38351d" rx="141" ry="34"/><ellipse cx="51" cy="41" fill="#cacdce" rx="90" ry="14"/><circle r="1" fill="#6a8eba" transform="matrix(-19.81037 64.14093 -50.91239 -15.72464 224.7 20.8)"/><path fill="#414c50" d="M143.2 56.3l11.3 35.2-110.4-2.2L128.8 69z"/><circle r="1" fill="#121c24" transform="matrix(-3.40134 -10.8415 36.58768 -11.47878 236.6 96.7)"/><circle r="1" fill="#5a80b6" transform="matrix(93.29088 -16.08384 2.17013 12.58739 54.8 8)"/><path fill="#131f22" d="M6.6 86.7L28.3 110l41-18.4-38.5-15.3z"/><path fill="#636355" d="M188 58h19v51h-19z"/><path fill="#85867a" d="M35.6 133l67.2-45.1-1.6 13.1 7.4 9.3z"/><path fill="#252829" d="M91 178l37-76-16-34z"/><path fill="#a6b7c7" d="M45.1 34.8l48-20.8 41.3 61.4-12.5 4.3z"/><ellipse cx="86" cy="159" fill="#a2a566" rx="4" ry="20"/><ellipse cx="137" cy="156" fill="#999f5c" rx="5" ry="17"/><ellipse cx="168" cy="137" fill="#1e1611" rx="251" ry="4"/><path fill="#98975d" d="M204 114h52v8h-52z"/><path fill="#443d2a" d="M143.7 60.6l4.4 22.5-11.8 2.3-4.4-22.5z"/><path fill="#81844f" d="M170 119h10v51h-10z"/><path fill="#929857" d="M151 141h10v29h-10z"/><path fill="#949c5c" d="M189 143h10v27h-10z"/><path fill="#9ca260" d="M115.3 138.7l7-.4 2.4 45-7 .4z"/><path fill="#c2c1b1" d="M125.7 98.9l-.4-8.8 74.7 6.6-19.5 2z"/><ellipse cx="71" cy="169" fill="#9ea364" rx="4" ry="32"/><path fill="#bfc5cf" d="M126 12l34-13 37 21z"/><ellipse cx="124" cy="119" fill="#01070f" rx="36" ry="4"/><ellipse cx="55" cy="156" fill="#8c8b5c" rx="4" ry="49"/><path fill="#85884d" d="M38 112h7v58h-7z"/><path fill="#81837d" d="M128.3 109l-10.1 7.6 62.2-9.5-43.5-12.7z"/><ellipse cx="48" cy="135" fill="#28211a" rx="154" ry="4"/><path fill="#0e0907" d="M241 128h9v42h-9z"/><path fill="#8d9356" d="M210 140h9v30h-9z"/><path fill="#899350" d="M238.4 142.8l1.2 32-10 .4-1.2-32z"/><circle r="1" fill="#5780b8" transform="matrix(-3.62634 20.16086 -87.85299 -15.80214 230 0)"/><ellipse cx="26" cy="152" fill="#858a46" rx="4" ry="37"/><path fill="#90a9c0" d="M210 36.5l-4.7 47.9 30.4-.4L271 59.2z"/><path fill="#4c5856" d="M72 79h101v13H72z"/><path fill="#a5a191" d="M109.4 103.3l-17.8-3.6-5.8 6.3 22.1 9.4z"/><ellipse cx="4" cy="169" fill="#15100f" rx="3" ry="60"/><circle r="1" fill="#1a150e" transform="matrix(4.4972 -.49421 3.3581 30.55792 224.5 151.2)"/><circle r="1" fill="#94b2d1" transform="rotate(131 69.4 73.1) scale(9.80267 22.13588)"/><path fill="#1a140f" d="M160 130h10v40h-10z"/><circle r="1" fill="#7094be" transform="matrix(47.0716 19.30769 -4.22407 10.29816 129.4 25)"/><path fill="#aaa18d" d="M59 127l-13-7 6-14z"/><ellipse cx="204" cy="169" fill="#16110e" rx="5" ry="47"/><path fill="#2d2400" d="M191.7 59l-.4 26h-3l.4-26z"/><ellipse cx="186" cy="129" fill="#626541" rx="105" ry="4"/><ellipse cx="146" cy="159" fill="#16110f" rx="5" ry="35"/><ellipse cx="184" cy="150" fill="#191311" rx="5" ry="27"/><ellipse cx="12" cy="158" fill="#868b46" rx="4" ry="22"/><path fill="#99b0c4" d="M64 46h42v32H64z"/><ellipse cx="13" cy="60" fill="#a9b2b7" rx="47" ry="15"/><path fill="#00000a" d="M-7.2-1.5l27.8-3 .6 6-27.8 3z"/><path fill="#c0bdae" d="M192.3 107l-11.5-16.5 5-3.4 11.4 16.4z"/><path fill="#0a090f" d="M44 104h14v6H44z"/><ellipse cx="18" cy="151" fill="#181009" rx="4" ry="29"/><path fill="#fffbe4" d="M104 90h10v2h-10z"/><path fill="#9cbbd8" d="M132 53l1 26-16-4z"/><ellipse cx="49" cy="94" fill="#1b231c" rx="34" ry="5"/><path fill="#343826" d="M202 61h4v27h-4z"/><path fill="#04101c" d="M216 102h28v10h-28z"/><path fill="#333023" d="M119 185l-9-67-29-13z"/><path fill="#343d2e" d="M139.4 87.9l-36 .7 6.7-20.2 9.1 12.4z"/><ellipse cx="48" cy="149" fill="#221a13" rx="4" ry="26"/><path fill="#363932" d="M63.3 77.2l-43 66.9 40.1-67.2 1-18.8z"/><path fill="#6f774c" d="M240.9 101.1l25.4-6.3-20.7 87.3L271 173z"/><ellipse cx="128" cy="154" fill="#211c1a" rx="4" ry="46"/><path fill="#4d5565" d="M26 97.9L.8 72.9l-16.8 29 47.8 13.5z"/><ellipse cx="33" cy="169" fill="#1f1710" rx="4" ry="49"/><path fill="#97b4cf" d="M164 66l-8 16-23-37z"/><path fill="#636953" d="M199.1 140.7l-35.2-35.1 34.4-1.2-15.4 3.6z"/><path fill="#cacfd2" d="M64 43L29 26 9 57z"/><ellipse cx="27" cy="136" fill="#312d20" rx="237" ry="4"/><ellipse cx="224" cy="139" fill="#29251b" rx="67" ry="4"/><path fill="#3f4a3f" d="M207.5 85.8l5.3 8 36.6-16L271 85z"/><path fill="#dddede" d="M82.7 17.2l-3 9.5 13.4.2 2.7-9.4z"/><path fill="#4b6079" d="M37 76h21v7H37z"/><path fill="#8cacc8" d="M139 43h79v17h-79z"/><circle r="1" fill="#1c2020" transform="matrix(.4103 1.68877 -18.27405 4.43986 184 112.8)"/><ellipse cx="63" cy="169" fill="#251d18" rx="4" ry="52"/><circle r="1" fill="#2d271f" transform="matrix(4.65463 -.23971 1.49233 28.97725 78.6 154)"/><path fill="#332c1b" d="M209 73h2v26h-2z"/><path fill="#2f363b" d="M161.7 78l2.8-1 5.8 15-2.8 1z"/><path fill="#343a37" d="M106.4 113.4l-2-17.6 24.4 16.2-2.2-25.5z"/><path fill="#91a2a7" d="M194 62h8v24h-8z"/><path fill="#4e5550" d="M199.4 108.7l-11.8-28.4 18.1-.6-7.3 5.6z"/><path fill="#312a1d" d="M92 133h23v37H92z"/><path fill="#858654" d="M105 139h2v31h-2z"/><path fill="#6c8bb6" d="M239.8-16H81.1L-16 11.6l155.9-4.9z"/><ellipse cx="151" cy="95" fill="#d1ceb9" rx="24" ry="3"/><path fill="#8e847d" d="M155.4 100.7l-19.7-5.5-7.2 10.8 16.4 14z"/><path fill="#707c86" d="M-16 30.9l28.6 21.2-28.6 2.1L7.3 96.1z"/><ellipse cx="56" cy="118" fill="#616340" rx="36" ry="3"/><path fill="#dad49e" d="M227 113h7v4h-7z"/><ellipse cx="244" cy="136" fill="#1e1812" rx="5" ry="13"/><path fill="#5f645a" d="M171.7 93.5l-81.8-4.4 154.4-1.5-41.2-.9z"/><path fill="#95abc0" d="M62 48h45v31H62z"/><circle r="1" fill="#0f101e" transform="matrix(-9.4614 -3.83043 1.32227 -3.26608 0 114.6)"/><path fill="#c3cacf" d="M13.1 34.9l21.7 27.8-37.9-28.8 20.4-12.3z"/></g></g></svg>