<svg xmlns="http://www.w3.org/2000/svg" viewBox="0 0 1800 1200"><defs/><filter id="a"><feGaussianBlur stdDeviation="12"/></filter><rect width="100%" height="100%" fill="#4e423d"/><g filter="url(#a)"><g fill-opacity=".5" transform="translate(3.5 3.5) scale(7.03125)"><path fill="#fff" d="M254.2 37.3l-255 4.4-1.4-77 255-4.4z"/><circle r="1" fill="#909181" transform="matrix(3.6884 70.37896 -235.80379 12.35795 106.3 100)"/><circle r="1" fill="#efffff" transform="matrix(-.77 -23.73222 165.5196 -5.37034 132.6 5.2)"/><ellipse cx="182" cy="103" fill="#c4c2be" rx="68" ry="12"/><path fill="#040e00" d="M142 30h72v9h-72z"/><circle r="1" fill="#463c2e" transform="matrix(189.00937 61.41287 -4.48628 13.80735 63 113.6)"/><circle r="1" fill="#395878" transform="matrix(-.05266 -11.46107 41.1681 -.18916 107 0)"/><path fill="#faffff" d="M136 40l18-29H42z"/><circle r="1" fill="#d8eaf9" transform="matrix(7.12599 12.29713 -51.31037 29.73354 9.5 34.1)"/><circle r="1" fill="#9c9489" transform="rotate(-165.9 50.4 73.8) scale(55.51265 20.48159)"/><path d="M74 71.8l-7.1 13.3L50 76l7-13z"/><path fill="#b8d4ee" d="M216 0h40v40h-40z"/><path fill="#605b4d" d="M57 28h47v36H57z"/><path fill="#1f2513" d="M200 23h15v17h-15z"/><circle r="1" fill="#ebf4fc" transform="rotate(-8.3 116.7 -1375) scale(63.00325 17.19694)"/><circle r="1" fill="#9f8e79" transform="matrix(12.07083 -44.30132 9.39802 2.56069 162.4 169)"/><path fill="#3b342b" d="M183.7 125l-10.2 57.8 68.3-54.1-13.5 39.4z"/><path fill="#363228" d="M15 87h40v29H15z"/><path fill="#a2a09a" d="M319.2 128.2l-146.6-20.6 2.2-15.8 146.6 20.6z"/><path fill="#8a887d" d="M107 58h107v19H107z"/><path fill="#928b80" d="M-11 100l27 49 30-23z"/><ellipse cx="124" cy="131" fill="#8b8376" rx="8" ry="39"/><path fill="#595244" d="M24 37h33v36H24z"/><circle r="1" fill="#e7eef0" transform="matrix(7.71897 -5.01276 10.9746 16.89941 41.6 20.4)"/><ellipse cx="238" cy="22" fill="#89a0b6" rx="27" ry="10"/><path fill="#e8f1f7" d="M106 22h25v17h-25z"/><circle r="1" fill="#80735f" transform="matrix(17.026 -9.55454 11.43133 20.3704 252.2 153.4)"/><circle r="1" fill="#564e4e" transform="matrix(-65.45636 -6.76426 1.05415 -10.20079 229.1 86.8)"/><circle r="1" fill="#91816e" transform="matrix(8.13866 3.01455 -6.22756 16.81315 90.2 108.8)"/><path fill="#a8a79c" d="M172.1 166.2l39.5 18.8h-78.9l24.2-24.3z"/><path fill="#494141" d="M99.3 94.3l-5.1-10.6 69.9-1.8 24.9 8.2z"/><circle r="1" fill="#3f3325" transform="matrix(-1.93576 -4.2258 22.74344 -10.41835 136.6 168.6)"/><path fill="#c6d4dc" d="M184 31l48-23-74 12z"/><path fill="#474c35" d="M149 28l57 10-79 8z"/><path fill="#bfbaae" d="M143.3 91.2l1 6.9-33.6 4.7-1-6.9z"/><path fill="#a8c1d3" d="M0 19h12v35H0z"/><path d="M171 162l11-2 17 19z"/><path fill="#706b60" d="M117.9 132.2l83.3 36-37.3-30.6-53 47.4z"/><path fill="#2f271a" d="M10.4 83.8L-16 80.9V42.5L2.8 64z"/><circle r="1" fill="#080500" transform="matrix(-3.28934 -5.32337 6.6907 -4.13422 60.6 70.7)"/><path fill="#42392e" d="M186 141h46v18h-46z"/><circle r="1" fill="#9e988a" transform="matrix(-2.51896 4.25955 -35.87047 -21.21266 82.6 148.3)"/><path fill="#3f3d3b" d="M265 49.4l-33.6 7.5 23.4 6.5-13.5-24.3z"/><path fill="#918d85" d="M249.1 100l21.9 9.1-87.2 9.4-49.4-3.6z"/><path fill="#797165" d="M29 95.3l-9.5 12.6 61.3-23.8 29 31.4z"/><path fill="#8d897d" d="M27 57l-8-14 26-6z"/><path fill="#170a00" d="M32 60h10v8H32z"/><path fill="#050604" d="M146 137h15v5h-15z"/><path fill="#3e4136" d="M225.2 28.4l-1.9 2.4-17.8-8.3-18.9 19.7z"/><path fill="#939189" d="M108 69h29v13h-29z"/><circle r="1" fill="#7a8ea0" transform="rotate(-177.6 36.4 0) scale(56.22531 2.41138)"/><path fill="#554c41" d="M154 114l-40.6-10.8-10.2 49.1-5.1-40z"/><ellipse cx="14" cy="11" fill="#e5eaec" rx="53" ry="9"/><path fill="#8b867c" d="M111 145l60.5-18.3-66.5 31.6-73.6 9.3z"/><path fill="#433b31" d="M200 114h14v9h-14z"/><path fill="#524a3f" d="M149.1 118.5l-56.9 27.2 47.7-3.1 2.3-4.8z"/><path fill="#6c5e49" d="M53 34l36-4-26-4z"/><path fill="#4d513c" d="M135.7 51.5l-2.1-9.7 81.3-1.9-51.1-13.5z"/><path fill="#ccd8df" d="M217 33h39v6h-39z"/><path fill="#a8bbc9" d="M32 33l-48 26 27-44z"/><circle r="1" fill="#908c7e" transform="matrix(-27.0941 -2.0384 .14697 -1.95346 107.9 53.2)"/><ellipse cx="255" cy="27" fill="#6b8aad" rx="25" ry="5"/><path fill="#9a9083" d="M197.7 124l33.9 9.1-1.3 4.8-33.9-9z"/><circle cx="26" cy="159" r="4" fill="#1d1916"/><ellipse cx="96" cy="39" fill="#968d7e" rx="17" ry="3"/><path fill="#cbd7dc" d="M190 31l-23-9 53-16z"/><path fill="#9c9282" d="M125 137l-4-21 13-12z"/><path fill="#dde4ea" d="M81 9L41 24l78 5z"/><path fill="#363025" d="M63 110l-41 5-38-21z"/><circle r="1" fill="#878377" transform="rotate(13.7 -336.6 331) scale(60.82237 3.56958)"/><path fill="#262217" d="M74.3 83.5l-15.2-19-6.3 13.3 38.4 15.3z"/><path fill="#726b60" d="M36.3 125.4L65 148.6l-11.3 14L25 139.4z"/><path fill="#a9a195" d="M43.2 182.9L98.3 138l-23.6 4.9 3.5 29.4z"/><path fill="#cbd3d6" d="M209 12.5l-.8 11.6 16.8.9 46-21.7z"/><path fill="#383026" d="M95 109v21l20 1z"/><path fill="#9f9d94" d="M190.4 108.5L168.5 92l3.8 51-6.8-7z"/><path fill="#e3e9ed" d="M107 16l35 5-5 20z"/><path fill="#657a8f" d="M114-16l26 25-43-3z"/><path fill="#8e8e83" d="M178 151.3l.7-.6 23.4 30-.8.6z"/><ellipse cx="214" cy="81" fill="#8b897f" rx="20" ry="2"/><ellipse cx="250" cy="85" fill="#564e4c" rx="25" ry="15"/><circle r="1" fill="#97a8b5" transform="matrix(7.06426 -12.28409 4.66636 2.6835 74.9 0)"/><path fill="#504437" d="M160 140l15 4-36 12z"/><path fill="#524e45" d="M7 131l-10-11 22 9z"/><path fill="#161911" d="M39.6 47.9l.1-1L60.4 50l-.1 1z"/><path fill="#51483c" d="M84 139l-29-12 22-19z"/><path fill="#6b6152" d="M60.6 123.9l-8.4-38.4 22.9 43.9-47.7 5.5z"/><path fill="#675d4f" d="M171 127.7l52.7-18.4-25.3 16.4 2.9 23.4z"/><circle r="1" fill="#e6edf2" transform="rotate(-120.2 85.2 -44.3) scale(10.88272 41.58779)"/><path fill="#7b7b7a" d="M178 42l15-13-12 22z"/><path fill="#2c2d1c" d="M32 88l13 6 4-11z"/><circle r="1" fill="#b2afa2" transform="matrix(.0425 -2.43449 44.3785 .77463 182.4 96.7)"/><circle r="1" fill="#322c26" transform="matrix(-.19734 2.9711 -4.58188 -.30433 185 120.8)"/><ellipse cx="40" cy="27" fill="#cbd8df" rx="14" ry="9"/><circle r="1" fill="#999a95" transform="matrix(-2.85305 2.17658 -5.21883 -6.8408 255 146)"/><path fill="#352e23" d="M55.9 113.7l.9-17.3-35.7 17.8-9.6-2z"/><path fill="#555048" d="M-16 157l39.8 28 35.8-16-42.2-3.5z"/><path fill="#474440" d="M227 71l-5-16-15-10z"/><path fill="#918f82" d="M86.1 70.7l3.2 13.1-9.7 2.2.5-15.5z"/><path fill="#8e887d" d="M236.5 117.7l22.8 5.9-35-20.7-5 25.3z"/></g></g></svg>