<svg xmlns="http://www.w3.org/2000/svg" viewBox="0 0 1800 1200"><defs/><filter id="prefix__a"><feGaussianBlur stdDeviation="12"/></filter><rect width="100%" height="100%" fill="#2a4451"/><g filter="url(#prefix__a)"><g transform="translate(3.5 3.5) scale(7.03125)"><circle r="1" fill="#9f9a94" fill-opacity=".5" transform="matrix(51.28112 133.30365 -155.38367 59.77516 132 43.1)"/><circle r="1" fill="#fff" fill-opacity=".5" transform="matrix(-17.20256 2.76119 -7.1769 -44.71307 240 27.5)"/><circle r="1" fill="#444f52" fill-opacity=".5" transform="matrix(-27.43204 -65.60147 129.68778 -54.2305 188.2 151.6)"/><path fill="#c6b6a6" fill-opacity=".5" d="M52.9 62.9l124.5-4.2L45.6 85.6l13.5-5.2z"/><circle r="1" fill="#2d2b29" fill-opacity=".5" transform="rotate(-168.5 103 19.3) scale(5.69396 67.5842)"/><circle r="1" fill="#edefec" fill-opacity=".5" transform="rotate(-91.9 124 -105) scale(10.22898 18.87958)"/><path fill="#f2f3f0" fill-opacity=".5" d="M246.8 37.1l17.6 30.1-35.3-3.9 7.8-38.9z"/><ellipse cx="11" cy="9" fill="#8497a3" fill-opacity=".5" rx="15" ry="74"/><circle r="1" fill="#634f3f" fill-opacity=".5" transform="rotate(18.2 -96.8 229.2) scale(27.09669 19.83748)"/><circle r="1" fill="#788f99" fill-opacity=".5" transform="matrix(-87.46924 -14.48044 3.48484 -21.05018 68.8 0)"/><path fill="#343232" fill-opacity=".5" d="M219.3 152.2l-36.9-28 21.4-27.7 33 51.2z"/><path fill="#fff" fill-opacity=".5" d="M205 14L179-2l-2-14z"/><circle r="1" fill="#4f5b5f" fill-opacity=".5" transform="rotate(32.3 -236.6 153.7) scale(115.03959 44.07135)"/><path fill="#3d454b" fill-opacity=".5" d="M168.3 64l52.6-27L271 17.4l-64.5 19.4z"/><path fill="#ccb8a5" fill-opacity=".5" d="M170.4 60.3l47.3 47.3-2 2.1-47.4-47.3z"/><path fill="#e2ad82" fill-opacity=".5" d="M35 60l26-9-5 17z"/><circle r="1" fill="#607277" fill-opacity=".5" transform="rotate(-25 331.2 -245) scale(51.46522 30.65055)"/><path fill="#bcbec0" fill-opacity=".5" d="M67 92l18-22-19-8z"/><ellipse cx="102" cy="169" fill="#213543" fill-opacity=".5" rx="27" ry="14"/><path fill="#2b4860" fill-opacity=".5" d="M18 36l28-20-12 41z"/><path fill="#36444c" fill-opacity=".5" d="M94.7 74.5l4 16.1-99.9 14.5L90.6 84z"/><path fill="#969db0" fill-opacity=".5" d="M226.6 124.9l-18-13.3 24.4 9.5 3.9 29z"/><path fill="#a1aeb0" fill-opacity=".5" d="M211.9-9.1l-74 89.7 62.7-71.3L213-16z"/><path fill="#fffffb" fill-opacity=".5" d="M16.3 83.3l.5-.8 23 12.2-.6.8z"/><circle r="1" fill="#5c5d5d" fill-opacity=".5" transform="matrix(-11.93141 -13.80886 50.42939 -43.57302 237 159.6)"/><circle r="1" fill="#b4c2c4" fill-opacity=".5" transform="matrix(-.83817 -.5454 15.14374 -23.27249 189 34.7)"/><circle r="1" fill="#ab9b8c" fill-opacity=".5" transform="matrix(4.4031 -4.14926 7.04877 7.47997 70.3 38)"/><path fill="#abb6b8" fill-opacity=".5" d="M139.1 63.9l43.3-32.8-17.1 15.4-3.5 3.8z"/><path fill="#fff" fill-opacity=".5" d="M68 103h39v1H68z"/><path fill="#130c0b" fill-opacity=".5" d="M70 49L60 70l3-18z"/><path fill="#2b2c32" fill-opacity=".5" d="M271 28.7L256.3-16l-4 39.6L271-5z"/><path fill="#d3d7d6" fill-opacity=".5" d="M142.5 89.4l.4.9-37.4 14.3-.4-.9z"/><path fill="#bfb78d" fill-opacity=".5" d="M94 33h9v16h-9z"/><path fill="#eaebe7" fill-opacity=".5" d="M243.9 46.5L271 7.9l-42.6 37.7 1.5 12.9z"/><path fill="#a0acb0" fill-opacity=".5" d="M161 71l-30 21 15-3z"/><path fill="#556169" fill-opacity=".5" d="M264.7 19.6l-14.1 69.7 10.6 56.1-8.3-107.3z"/><path fill="#b6bec3" fill-opacity=".5" d="M41.2 64.9L15.1 49.8-11 25.3l9.7 8.3z"/><path fill="#303b3e" fill-opacity=".5" d="M182 78l-33-13 55 43z"/><path fill="#243841" fill-opacity=".5" d="M86 51h47v4H86z"/><path fill="#101003" fill-opacity=".5" d="M117.7 34.6l-6.4 4.8-3-4 6.4-4.8z"/><path fill="#606d6f" fill-opacity=".5" d="M215.3 123.2l-22.2-22.4 9 25.9 13 10.6z"/><path fill="#496269" fill-opacity=".5" d="M83.4 68.3l22.9-1.6.3 5-22.9 1.6z"/><path fill="#0b1820" fill-opacity=".5" d="M221 125h6v23h-6z"/><path fill="#8594a0" fill-opacity=".5" d="M214 22l6-38 15 1z"/><path fill="#505f64" fill-opacity=".5" d="M214.5 20.9l22.5 9-27.8 6.4 50.6 97.9z"/><ellipse cx="102" cy="62" fill="#a99078" fill-opacity=".5" rx="25" ry="7"/><path fill="#2c3941" fill-opacity=".5" d="M98.9 78.2L52 98.2l15.6-1.7 57.6-28.6z"/><path fill="#a08c79" fill-opacity=".5" d="M71 92L50 47l-8 21z"/><path fill="#a0abbe" fill-opacity=".5" d="M227.4 115.1l9 22.3-3.8 1.5-9-22.3z"/><path fill="#1e1d1d" fill-opacity=".5" d="M194.5 71.7l8.2-26.8 4.8 1.4-8.2 26.8z"/><path fill="#d6d9d6" fill-opacity=".5" d="M211.9 20.4l-1.6.2 38.2 5.9-7-28.2z"/><path fill="#283236" fill-opacity=".5" d="M82.5 46.4L76.7 45l4.8-19.4 5.8 1.4z"/><path fill="#395163" fill-opacity=".5" d="M22 29l18 49-4-63z"/><circle r="1" fill="#dce0df" fill-opacity=".5" transform="matrix(-11.12346 .11673 -.12935 -12.32545 238.3 51.6)"/><path fill="#3b4850" fill-opacity=".5" d="M66.9 26l-30.8 2.6 21.6-12.8 38.6 24.8z"/><path fill="#4a565c" fill-opacity=".5" d="M230.3 126.9L248 66l23 10.7v98.1z"/><circle r="1" fill="#7d807c" fill-opacity=".5" transform="matrix(-18.68404 -8.69232 1.38261 -2.97191 255 6.4)"/><path fill="#d7dddb" fill-opacity=".5" d="M68.3 102.9l-.2 1L47.7 99l.2-1z"/><circle cx="234" cy="24" r="2" fill="#152331" fill-opacity=".5"/><path fill="#cbd1d2" fill-opacity=".5" d="M-13.5 61l.5-.9 38.5 27-.5.8z"/><path fill="#6d838a" fill-opacity=".5" d="M156 33l-8-26-47 45z"/><path fill="#1a2327" fill-opacity=".5" d="M197.2 132l-7 .8-5.4-44.7 7-.9z"/><path fill="#d0dae3" fill-opacity=".5" d="M168 64l-9-7 12 4z"/><path fill="#506b73" fill-opacity=".5" d="M194 8.5L185.1 23 156 5.5 164.8-9z"/><circle r="1" fill="#6c7b82" fill-opacity=".5" transform="matrix(-28.87518 -28.4748 7.07892 -7.17845 14.7 64)"/><path fill="#75583f" fill-opacity=".5" d="M226.5 118l-47.2-42.7-20-12.6 47.4 45.4z"/><path fill="#56666a" fill-opacity=".5" d="M197 89l8-35 66 23z"/><path fill="#3b4f56" fill-opacity=".5" d="M192 74l21-58-37 44z"/><ellipse cx="38" cy="111" fill="#657274" fill-opacity=".5" rx="36" ry="12"/><path fill="#5a696e" fill-opacity=".5" d="M131 95l32-19-15 109z"/><path fill="#1d242e" fill-opacity=".5" d="M-29.4 103l58.7-5 .1 1-58.7 5z"/><path fill="#b4bebe" fill-opacity=".5" d="M185.5 24.9l-12.7 16.9-25.7 16.9 4.9-.9z"/><path fill="#5d6a6d" fill-opacity=".5" d="M115.7 120.3l16.4-21.6L4.4 119.3l66.9 59z"/><circle r="1" fill="#362e2b" fill-opacity=".5" transform="matrix(-1.90127 -.34552 6.86038 -37.75023 205.5 37)"/><path fill="#7f8e92" fill-opacity=".5" d="M210-16l-3 30-36-30z"/><path fill="#7a8a96" fill-opacity=".5" d="M0 1h67v17H0z"/><path fill="none" stroke="#dee2df" stroke-opacity=".5" stroke-width=".5" d="M80.6 104.8q18-.2 41.4-5.8"/><path fill="#54626a" fill-opacity=".5" d="M.5 86l14.8-2.5L-16 53.8l17.8 54.3z"/><path fill="#968e7f" fill-opacity=".5" d="M52.7 30.5l-5.6 5.7 2.5 2.9 14.1-6.4z"/><path fill="#bbb5a9" fill-opacity=".5" d="M108.8 67.4l13.1-3.7 35.3-2.7-17.6 6.6z"/><ellipse cx="74" cy="69" fill="#cecdc7" fill-opacity=".5" rx="7" ry="6"/><path fill="#b3b5b8" fill-opacity=".5" d="M163.2 123l.7-.8 72.9 72.9-.7.7z"/><path fill="#192528" fill-opacity=".5" d="M-1.1 128.8l.8-.6 47.4 73-.8.6z"/><path fill="#9fa0a0" fill-opacity=".5" d="M199 199.7l-.8-.5 40.8-63 .8.6z"/><path fill="none" stroke="#8b9295" stroke-opacity=".5" stroke-width=".5" d="M-.4 47.8q5.7 13.6 78.9 117.4"/><path fill="#ebf3ec" fill-opacity=".5" d="M220 1l-19-12 58-5z"/><path fill="#301e15" fill-opacity=".5" d="M216 147l-15-17 28 18z"/><path fill="#4e6267" fill-opacity=".5" d="M80 75h19v28H80z"/><path fill="#f6f8f4" fill-opacity=".5" d="M174.2 37L199 8.3l.7.7L175 37.7z"/><path fill="#b7bdbd" fill-opacity=".5" d="M156.1 79.5l1.9-5.1-18.9 16.7-23.2 11.1z"/><path fill="#534b45" fill-opacity=".5" d="M95.8 33.1L74.7 64 51.6 44l42 11.4z"/><path fill="#4f5b66" fill-opacity=".5" d="M212 19.9l-.8-.6L234-10l.8.6z"/><circle r="1" fill="#a19282" fill-opacity=".5" transform="matrix(.15174 .98842 -20.56712 3.15739 82 43.9)"/><path fill="#87898c" fill-opacity=".5" d="M55.1 56.5L80 83.6l-15.2 8.5-6.4-1.8z"/><circle cx="217" cy="111" r="4" fill="#9f928e" fill-opacity=".5"/><path fill="none" stroke="#b8c2c2" stroke-opacity=".5" stroke-width=".5" d="M186.6 41.6q8.8-18 32.2-57.6"/><path fill="#e8e8e4" fill-opacity=".5" d="M243 5h8v20h-8z"/><path fill="none" stroke="#2d2c32" stroke-opacity=".5" stroke-width=".5" d="M253.6-8.5q4.6 34.3-9.6 37.3"/><path fill="#b9926e" fill-opacity=".5" d="M39.2 63.9l5.3 4.7 14.7-14.1-15.5-1.8z"/><path fill="#394853" fill-opacity=".5" d="M28.1 61.6l3.7-3.3 18 20-3.6 3.4z"/></g></g></svg>