<svg xmlns="http://www.w3.org/2000/svg" viewBox="0 0 1800 1012"><defs/><filter id="a"><feGaussianBlur stdDeviation="12"/></filter><rect width="100%" height="100%" fill="#315a55"/><g filter="url(#a)"><g fill-opacity=".5" transform="translate(3.5 3.5) scale(7.03125)"><circle r="1" fill="#e4c8e3" transform="matrix(-4.17292 -41.61077 237.27978 -23.7955 133.4 21.8)"/><ellipse cx="144" cy="104" fill="#709b8b" rx="249" ry="19"/><path fill="#a2a4af" d="M214 0h42v63h-42z"/><circle r="1" fill="#3c1100" transform="matrix(-.10366 -9.8305 119.1793 -1.2567 203.8 76.3)"/><ellipse cx="81" cy="134" fill="#3f6861" rx="254" ry="24"/><ellipse cx="207" cy="92" fill="#78a08d" rx="137" ry="6"/><ellipse cx="169" cy="63" fill="#594138" rx="58" ry="6"/><circle r="1" fill="#767580" transform="matrix(-6.5637 21.46255 -54.02794 -16.5229 14.4 50)"/><path fill="#280502" d="M95 85h53v3H95z"/><circle r="1" fill="#b0b4bb" transform="rotate(-75.9 31.3 -24.8) scale(10.67933 24.4658)"/><circle r="1" fill="#a3aab5" transform="matrix(-3.19056 -13.18818 77.88924 -18.8434 181.3 0)"/><path fill="#574651" d="M0 68h98v19H0z"/><ellipse cx="206" cy="46" fill="#898e96" rx="255" ry="14"/><path fill="#7d808c" d="M53.9 66.9l50.7 3.9 36.5-10.2-12.6-18.2z"/><path fill="#5e749a" d="M44-16h123L80 19z"/><path fill="#29281d" d="M191.9 80.2l18.3-29.1 10.9 11.7 1.8 27.4z"/><path fill="#a8745e" d="M139 85h117v3H139z"/><ellipse cx="5" cy="88" fill="#78967f" rx="119" ry="3"/><path fill="#8f969f" d="M161.7 72.5l16.1-44.6-59.2-35.2L173 66.5z"/><path fill="#858a93" d="M241.7 14.5l-58.8 55.3 3.4-32.6 73.5 35.5z"/><ellipse cx="33" cy="126" fill="#3c675f" rx="253" ry="14"/><path fill="#969ba5" d="M30 55L98 7l87 29z"/><circle r="1" fill="#abb3b9" transform="rotate(-158.9 102.1 -19) scale(173.50743 6.56188)"/><path fill="#21241a" d="M169 65l33 18.5 20.3 3.5-14.7-21.8z"/><ellipse cx="213" cy="102" fill="#558a7e" rx="115" ry="7"/><path fill="#322e21" d="M109.5 69.6l48.7-6 2.3 18.8-48.7 6z"/><path fill="#17100a" d="M48 85h25v2H48z"/><path fill="#365954" d="M42 113.6l77.4 24L-16 152.2v-30.3z"/><path fill="#858a93" d="M136.6 53.7l90.7-2.5-111.4-10.9 18.6 33.1z"/><path fill="#868994" d="M94 67l26 1-51-30z"/><path fill="#4b453f" d="M219 66l46 12-19-20z"/><circle r="1" fill="#437168" transform="rotate(8.4 -759.7 1366.8) scale(80.43031 16.51925)"/><path fill="#342c23" d="M107.4 86.4l20.4-27 2.8 5.6-35.1 21z"/><path fill="#657d98" d="M255 17.2L236.4-5 251-17.2 269.6 5z"/><path fill="#89919c" d="M271 53.5l-68.9-54 12.3 61.8 4.2-1.7z"/><circle r="1" fill="#3c3526" transform="matrix(3.58739 -4.11612 4.716 4.11022 197.2 62)"/><path fill="#91969c" d="M231.2 47.4l10.6-2.4-35.4-24.4 26.3 52.7z"/><circle r="1" fill="#a0a3aa" transform="rotate(155.3 14.9 9.5) scale(8.03134 23.69087)"/><path fill="#818592" d="M62.8 69.8L-6.1-16-16 41l56.4 29.4z"/><path fill="#2a2717" d="M169 77l7-3-5-19z"/><path fill="#1c2018" d="M229.6 77.2l5.9-13.8 12.9 5.4-5.9 13.8z"/><path fill="#a9aeb6" d="M61 3L33 6l60 28z"/><path fill="#b6b9bc" d="M181.5-16L153.9 9l23.2 1-13.9-26z"/><ellipse cx="18" cy="80" fill="#333540" rx="47" ry="3"/><path fill="#758196" d="M157 29L143 9h-17z"/><path fill="#545865" d="M63 67h28v11H63z"/><path fill="#332e1f" d="M164 63l-14 5 12-11z"/><path fill="#26281d" d="M165 79l-29-17 12 24z"/><path fill="#6d7d97" d="M95 28L68 13l3-29z"/><path fill="#303027" d="M161 78l-58.4 6.4 36.3 3.6 12.5-30.2z"/><path fill="#2d291e" d="M179 56h3v16h-3z"/><path fill="#8b909a" d="M61.4 14.7l-15.8 4.4-.5 51.1 27.9-5z"/><circle r="1" fill="#456a61" transform="matrix(-23.50011 5.29598 -3.2108 -14.24745 0 105)"/><path fill="#9399a0" d="M241.4 54.7l-20.3 12.1 16.1-28.3-51.8-15.2z"/><ellipse cx="85" cy="86" fill="#e8baa4" rx="9" ry="1"/><path fill="#a7abb4" d="M92.6 15.8l34.8-1.5-36.5-3.9-5.2 5.3z"/><path fill="#d5b7a2" d="M229 87h27v1h-27z"/><path fill="#6e819a" d="M222 2l32-2-54-13z"/><path fill="#888c93" d="M176 61.9l25.5-26.1L189.6 65l-23.2-23.4z"/><path fill="#868c95" d="M208.4 59l-6.7-11.2-26.2-43.5 26.4 57.9z"/><path fill="#818a99" d="M115.4 13l92 14 30.3-18.3-37 5.5z"/><path fill="#77849a" d="M180-11.7l2.3 21.3L150.2-16l3.1 22.1z"/><path fill="#afb3b9" d="M172 3h72v5h-72z"/><ellipse cx="220" cy="88" fill="#67695e" rx="52" ry="1"/><ellipse cx="82" cy="92" fill="#568c80" rx="55" ry="4"/><path fill="#828993" d="M237.4 52.9l-7.6-39.4 11.7 52.4-73.3-40.2z"/><path fill="#3c3927" d="M135.9 62.6l80 24.8-50.9-7.6-24.2-19.7z"/><path fill="#343825" d="M190.4 85.4l39.7 1.6.6-21.4L205.9 83z"/><circle r="1" fill="#777e8a" transform="matrix(-8.57891 9.50789 -10.22936 -9.2299 2.5 57.5)"/><path fill="#979ba1" d="M170.5 67.2l-19.6-56.6 18.8 14.6-4.5 41.6z"/><path fill="#464b53" d="M-16 75.6l141.2 9.7-54.8-9.7-41.9-8.8z"/><path fill="#3b3724" d="M93 70h26v10H93z"/><circle r="1" fill="#b2b8bd" transform="rotate(57 103.7 247.9) scale(25.65426 3.02667)"/><path fill="#7f858e" d="M271 89.6l-13.1-63.4-11.1 38.9-10.9-19.8z"/><path fill="#626667" d="M249 72h7v5h-7z"/><ellipse cx="74" cy="98" fill="#4c756d" rx="69" ry="4"/><path fill="#a1a6af" d="M164 68l-5-3 7 2z"/><path fill="#6f7f9a" d="M78.7-16l53.9 32.1-16.4-5.3-67-5.9z"/><path fill="#2c2d24" d="M125.1 59.1l5.1 11.8-26.8 6.4 26.1-13.9z"/><path fill="#29261e" d="M208 53h5v8h-5z"/><path fill="#838d99" d="M248.9 57.5L271 36.7l-52.7-5 28.1-20.6z"/><path fill="#888e97" d="M154.6 61.8l-1.5-48.2L142.2 63 195 38.1z"/><path fill="#7e889a" d="M114.8 39.8l-4.6 5.3-31-27 4.6-5.2z"/><ellipse cx="87" cy="83" fill="#5e797d" rx="18" ry="1"/><path fill="#252317" d="M243.2 68.6l-2-.3 1.6-9 2 .4z"/><path fill="#b8bac0" d="M51-3L43 8l8 9z"/><path fill="#a5a08f" d="M87 85h7v4h-7z"/><path fill="#878c97" d="M15.7 28.9l82.8 7.8L25.7 59l89.5 11.5z"/><path fill="#1a181a" d="M99 84h24v3H99z"/><ellipse cx="190" cy="100" fill="#57887c" rx="98" ry="5"/><circle cx="169" cy="85" r="3" fill="#988675"/><path fill="#30312a" d="M250.7 69.8l-.6-9.3-12 27.8 4.8-7.8z"/><path fill="#3b392b" d="M182.3 55.9l3.4 17.7-17.6-18.2 7.4 24.7z"/><path fill="#747a87" d="M-16 10.1L8.7 4.8l-20.4 25.7 36.9 2.4z"/><path fill="#454133" d="M116.9 62.7l-10.5 19.8 7-7.1 5.4-13.1z"/><path fill="#7b808a" d="M133.6 52.6l18.4-9-57 30.2 8.8-15.8z"/><path fill="#9ca1aa" d="M82 13.9L106.9 24l16.7-8.1-5.2 20.9z"/><ellipse cx="197" cy="92" fill="#669787" rx="86" ry="4"/><path fill="#adafb4" d="M151 12l-10-27-22 6z"/><path fill="#7d8088" d="M212 56h25v5h-25z"/></g></g></svg>