<svg xmlns="http://www.w3.org/2000/svg" viewBox="0 0 15253 2501"><defs/><filter id="prefix__a"><feGaussianBlur stdDeviation="12"/></filter><rect width="100%" height="100%" fill="#534235"/><g filter="url(#prefix__a)"><g transform="translate(29.8 29.8) scale(59.58203)"><circle r="1" fill="#b9deff" fill-opacity=".5" transform="matrix(-171.13244 29.46844 -15.4073 -89.47496 89.3 0)"/><ellipse cx="185" cy="34" fill="#47544c" fill-opacity=".5" rx="221" ry="15"/><circle r="1" fill="#c2cce7" fill-opacity=".5" transform="matrix(-.40737 -15.55683 175.58135 -4.59776 91.9 8)"/><path fill="#383310" fill-opacity=".5" d="M139 19h116v10H139z"/><path fill="#8ba1ad" fill-opacity=".5" d="M260.5 50h-73V30h73z"/><path fill="#bcbfcc" fill-opacity=".5" d="M220.7-16l-33.2 37.5 16.1-.3 29.1.4z"/><ellipse cx="89" cy="18" fill="#b6bfd2" fill-opacity=".5" rx="39" ry="9"/><path fill="#362e00" fill-opacity=".5" d="M51 27l-39-1 26-7z"/><ellipse cx="160" cy="22" fill="#313312" fill-opacity=".5" rx="17" ry="5"/><path fill="#41452c" fill-opacity=".5" d="M216.9 29l36.5-23.6-14.1 25.7-19.6-7.2z"/><path fill="#600" fill-opacity=".5" d="M109.8 32.2L107 48.9l-6.9-1L103 31z"/><path fill="#dca953" fill-opacity=".5" d="M90.2 56l6.4-31.5.2 2.4 6.2 9.9z"/><path fill="#7c8fa7" fill-opacity=".5" d="M0 29h87v5H0z"/><ellipse cx="155" cy="25" fill="#37341a" fill-opacity=".5" rx="40" ry="2"/><path fill="#6c818d" fill-opacity=".5" d="M208 27h-73l105 29z"/><path fill="#b0bbce" fill-opacity=".5" d="M8 6h83v16H8z"/><path fill="#2b2b3f" fill-opacity=".5" d="M92.2 28.3l-2.6-2.7L81.9 56l11.7-16.6z"/><ellipse cx="38" cy="26" fill="#433b16" fill-opacity=".5" rx="43" ry="1"/><path fill="#9da3ad" fill-opacity=".5" d="M121 16h135v2H121z"/><path fill="#b1b6c4" fill-opacity=".5" d="M100.4-16L244.8 6.9l-15.3 13.7-10.8 2z"/><ellipse cx="35" cy="39" fill="#3c5b6f" fill-opacity=".5" rx="51" ry="3"/><path fill="#435047" fill-opacity=".5" d="M245 9h8v22h-8z"/><ellipse cx="164" cy="24" fill="#42432a" fill-opacity=".5" rx="46" ry="3"/><path fill="#a1a9b8" fill-opacity=".5" d="M196.7 23.1l-27.4-11L271 10.3l-4.7-14.6z"/><ellipse cx="74" cy="21" fill="#9da8bd" fill-opacity=".5" rx="35" ry="4"/><circle cx="251" cy="38" r="2" fill="#fce5d4" fill-opacity=".5"/><path fill="#8398c4" fill-opacity=".5" d="M-57.8 0L66.5-13l1.3 13-124.3 13z"/><path fill="#556d7a" fill-opacity=".5" d="M207.2 40.7l-95.7-14.2-6 5.8L133.1 56z"/><path fill="#3a352c" fill-opacity=".5" d="M182 23h5v9h-5z"/><ellipse cx="7" cy="27" fill="#352a00" fill-opacity=".5" rx="9" ry="1"/><path fill="#144748" fill-opacity=".5" d="M245 10h11v5h-11z"/><path fill="#6c808a" fill-opacity=".5" d="M133 38l46-10-38-2z"/><path fill="#9ba5b7" fill-opacity=".5" d="M-3.6 18.1L175 14.8l-40.5 6.6-40.3 6.5z"/><path fill="#272b29" fill-opacity=".5" d="M126 30h12v2h-12z"/><path fill="#b0bacb" fill-opacity=".5" d="M1.2 10.7l28.9-2 146.9-4-78.2 20.8z"/><path fill="#45422b" fill-opacity=".5" d="M240.2 56l8.5-31.6-104.6.4 105.6 5.8z"/><ellipse cx="32" cy="34" fill="#657f95" fill-opacity=".5" rx="28" ry="4"/><path fill="#969fad" fill-opacity=".5" d="M246.9 8.7l18.5 6.4L254-14.1l-22.1 32.4z"/><ellipse cx="35" cy="23" fill="#333612" fill-opacity=".5" rx="9" ry="1"/><path fill="#809096" fill-opacity=".5" d="M198 30h48v7h-48z"/><path fill="#000203" fill-opacity=".5" d="M250 27h6v3h-6z"/><path fill="#6e6d5e" fill-opacity=".5" d="M270.2 25.4l-3.1-32.1-20.9 36.5.2-13.8z"/><circle r="1" fill="#4a4c37" fill-opacity=".5" transform="matrix(.54243 -2.90352 19.27328 3.6006 171.7 22.3)"/><path fill="#3f4030" fill-opacity=".5" d="M182 18.4L203.3 29l-35.7-1.9-10.9 1z"/><path fill="#959ca7" fill-opacity=".5" d="M167 18l2-6 8 7z"/><path fill="#664d27" fill-opacity=".5" d="M74 29h9v2h-9z"/><ellipse cx="131" cy="4" fill="#7d818a" fill-opacity=".5" rx="1" ry="19"/><path fill="#8b97ad" fill-opacity=".5" d="M44.9 19.3l-55.2.9 10 5.8 16.2-.2z"/><path fill="#b0b6c3" fill-opacity=".5" d="M197 15l37-16 5 17z"/><path fill="#776c5b" fill-opacity=".5" d="M28 30h15l-11-5z"/><path fill="#4d6573" fill-opacity=".5" d="M-14.3 56L-.7 28.4l17.5 10.7L89.2 33z"/><path fill="#3f3f24" fill-opacity=".5" d="M234 29l9-12-13 2z"/><path fill="#514e2a" fill-opacity=".5" d="M27 25h35v2H27z"/><ellipse cx="84" cy="1" fill="#99a8c8" fill-opacity=".5" rx="70" ry="4"/><circle cx="137" cy="28" r="3" fill="#908785" fill-opacity=".5"/><path fill="#caac68" fill-opacity=".5" d="M94 30h7v6h-7z"/><path fill="#687a80" fill-opacity=".5" d="M260.7 56l-29.1-18.9L126.9 30 266 51.8z"/><path fill="#43432c" fill-opacity=".5" d="M203 20h12v6h-12z"/><path fill="#dedede" fill-opacity=".5" d="M211 4h8v4h-8z"/><path fill="#919297" fill-opacity=".5" d="M48 28h32v1H48z"/><path fill="#6c7a86" fill-opacity=".5" d="M90.8 25.2l21 8.5 30-8L97 29.5z"/><path fill="#4a4a33" fill-opacity=".5" d="M158.3 19.8l26.7-1.7 15.4 10 55.8.1z"/><circle cx="255" cy="17" r="3" fill="#899290" fill-opacity=".5"/><path fill="#464830" fill-opacity=".5" d="M155.9 19.3l-17.9 2-19.4 2.1 93.6 5z"/><path fill="#471323" fill-opacity=".5" d="M104 36h6v5h-6z"/><path fill="#a8afbf" fill-opacity=".5" d="M191.4-.3l51.6 10L195.7 23l44.5-28.8z"/><path fill="#8093a5" fill-opacity=".5" d="M43 30h32v3H43z"/><ellipse cx="136" cy="26" fill="#434038" fill-opacity=".5" rx="22" ry="1"/><path fill="#84939c" fill-opacity=".5" d="M188 29h40v3h-40z"/><path fill="#2f3644" fill-opacity=".5" d="M85 40l3 16 5-25z"/><path fill="#7d90b5" fill-opacity=".5" d="M8.4 1.3l49.7-9.1-60.9 6.2L-16 29z"/><path fill="#5f6672" fill-opacity=".5" d="M185 17.5l-1-7h1l1 7z"/><path fill="#2b3938" fill-opacity=".5" d="M128.6 31.6l-1.1 1.7-4.1-3 1.1-1.6z"/><circle cx="1" cy="28" r="1" fill="#181701" fill-opacity=".5"/><path fill="#bfac9f" fill-opacity=".5" d="M255 46.4l-8.8-12.2.8-.6 8.8 12.2z"/><path fill="#4e4734" fill-opacity=".5" d="M59.6 28l-.1-1 13-1v1z"/><path fill="#98a4b9" fill-opacity=".5" d="M108 19.8l31.7-3.5-30.4 11.2-19.1-4.4z"/><path fill="#cdd0d7" fill-opacity=".5" d="M170 4l-10-20h-41z"/><path fill="#353521" fill-opacity=".5" d="M243.4 26.8l-36.9-2.6v-1l37 2.6z"/><path fill="#3e402a" fill-opacity=".5" d="M248.3 19l10.4 16.8-.9-17.2-32.8 4.6z"/><path fill="#1b1b1a" fill-opacity=".5" d="M186 27h15v1h-15z"/><path fill="#3f1d15" fill-opacity=".5" d="M246 35l2 6-2-1z"/><path fill="none" stroke="#6c6b62" stroke-opacity=".5" stroke-width=".5" d="M51 27.3q3.6-1.1 28.4-2"/><circle r="1" fill="#4c513d" fill-opacity=".5" transform="rotate(-154.3 123.7 -18.4) scale(1 12.64626)"/><path fill="#6c6e6a" fill-opacity=".5" d="M202 27h5v3h-5z"/><path fill="#3a381c" fill-opacity=".5" d="M29 22h7v1h-7z"/><path fill="#893628" fill-opacity=".5" d="M97 30l13 4-6-4z"/><ellipse cx="241" cy="16" fill="#95918e" fill-opacity=".5" rx="6" ry="2"/><path fill="#aeb5c4" fill-opacity=".5" d="M209 11l-28-5 16 15z"/><ellipse cx="75" cy="11" fill="#b7c0d0" fill-opacity=".5" rx="27" ry="4"/><path fill="#71848b" fill-opacity=".5" d="M156 28l27-1-18 10z"/><ellipse cx="64" cy="6" fill="#a4b2cd" fill-opacity=".5" rx="62" ry="3"/><path fill="#67625d" fill-opacity=".5" d="M251 37h14l-17-5z"/><path fill="none" stroke="#575145" stroke-opacity=".5" stroke-width=".5" d="M240.6 8.6q-5.2 11.7 11.1 26.7"/><path fill="none" stroke="#9fa9be" stroke-opacity=".5" stroke-width=".5" d="M-11 10.2q92.1 8.2 104.2 23.2"/><path fill="#a6acbc" fill-opacity=".5" d="M213 16h14v5h-14z"/><path fill="#566d74" fill-opacity=".5" d="M109 36h59v5h-59z"/><circle r="1" fill="#4d4d38" fill-opacity=".5" transform="rotate(85 -9.4 19.7) scale(1 37.288)"/><path fill="#c6b77f" fill-opacity=".5" d="M96 31h4v5h-4z"/><path fill="#a6abb8" fill-opacity=".5" d="M187 16h44v4h-44z"/></g></g></svg>