<svg xmlns="http://www.w3.org/2000/svg" viewBox="0 0 1800 1200"><defs/><filter id="prefix__a"><feGaussianBlur stdDeviation="12"/></filter><rect width="100%" height="100%" fill="#384c63"/><g filter="url(#prefix__a)"><g transform="translate(3.5 3.5) scale(7.03125)"><circle r="1" fill="#d7fbff" fill-opacity=".5" transform="matrix(-3.44608 -76.70093 254.74302 -11.4453 117.9 61.5)"/><circle r="1" fill="#bdd2ff" fill-opacity=".5" transform="matrix(204.59293 12.93864 -2.12356 33.57885 73.4 79.7)"/><circle r="1" fill="#577fda" fill-opacity=".5" transform="matrix(-8.26157 50.06277 -164.44408 -27.13727 155.4 14.5)"/><circle r="1" fill="#59729e" fill-opacity=".5" transform="rotate(87.4 .5 143) scale(15.1521 229.61595)"/><circle r="1" fill="#8daddc" fill-opacity=".5" transform="rotate(98.4 19.3 57.1) scale(22.33915 212.29514)"/><path fill="#243754" fill-opacity=".5" d="M43 170l220 2-86-52z"/><circle r="1" fill="#4c72b2" fill-opacity=".5" transform="matrix(193.6317 24.8649 -3.45204 26.88222 192.5 0)"/><circle r="1" fill="#cad9e3" fill-opacity=".5" transform="matrix(.19792 -14.4994 136.86756 1.86829 40 93.3)"/><path fill="#718eb1" fill-opacity=".5" d="M197.2 119.5l73.8-8.3V151l-36.7.6z"/><circle r="1" fill="#5d7392" fill-opacity=".5" transform="rotate(173.3 25.2 74.5) scale(97.60098 14.18282)"/><ellipse cx="185" cy="166" fill="#16263c" fill-opacity=".5" rx="85" ry="9"/><ellipse cx="176" cy="114" fill="#94a5bf" fill-opacity=".5" rx="255" ry="7"/><ellipse cx="33" cy="46" fill="#94aedb" fill-opacity=".5" rx="72" ry="22"/><path fill="#4a6589" fill-opacity=".5" d="M134.4 159.8l47.2-46.5 89.4 53.8-89.4-30.5z"/><ellipse cx="10" cy="141" fill="#7288a2" fill-opacity=".5" rx="59" ry="8"/><path fill="#394c69" fill-opacity=".5" d="M25 149l87 1-58 16z"/><path fill="#17233a" fill-opacity=".5" d="M-14.5 170.1l17.2 9.2 86.4-5.2-62.4-11.8z"/><ellipse cx="195" cy="105" fill="#b5c0c7" fill-opacity=".5" rx="83" ry="8"/><circle r="1" fill="#a8c3e4" fill-opacity=".5" transform="matrix(1.13846 -13.20655 105.06405 9.05698 94 79.6)"/><circle r="1" fill="#678dc6" fill-opacity=".5" transform="matrix(76.86932 6.65427 -1.61337 18.63747 177.5 31.2)"/><path fill="#829cb7" fill-opacity=".5" d="M69.3 115l.7-9 130.7 9-.7 9z"/><circle r="1" fill="#9baec9" fill-opacity=".5" transform="matrix(.20398 6.8728 -54.55388 1.61912 51.8 117.8)"/><circle r="1" fill="#3e5370" fill-opacity=".5" transform="rotate(105.4 9.2 124.5) scale(5.47525 32.04359)"/><circle r="1" fill="#4f74b0" fill-opacity=".5" transform="rotate(-171.8 117.2 -5.7) scale(113.22572 9.23943)"/><path fill="#435772" fill-opacity=".5" d="M175.3 165.1l-59.9 11.7-.7-4 59.9-11.6z"/><ellipse cx="19" cy="99" fill="#c9d5dc" fill-opacity=".5" rx="83" ry="9"/><ellipse cx="203" cy="162" fill="#132439" fill-opacity=".5" rx="16" ry="9"/><circle r="1" fill="#506683" fill-opacity=".5" transform="rotate(67 -106.7 116) scale(1.85847 68.43009)"/><path fill="#41597b" fill-opacity=".5" d="M219.6 156l-21.4-7.8 72.8-18.6-26.9 36.9z"/><path fill="#738eaf" fill-opacity=".5" d="M165.1 116.5l21.7 1.8 73.5-6.2 10.7 25.6z"/><path fill="#496386" fill-opacity=".5" d="M128 127h74v13h-74z"/><circle r="1" fill="#89aad5" fill-opacity=".5" transform="rotate(-82.9 100.5 -45.9) scale(8.76647 97.59795)"/><path fill="#3e526f" fill-opacity=".5" d="M85 148l24 15 47-20z"/><path fill="#273955" fill-opacity=".5" d="M33 149h15v9H33z"/><circle r="1" fill="#6487c0" fill-opacity=".5" transform="rotate(-80.6 57.9 -55) scale(8.1824 173.23279)"/><path fill="#102035" fill-opacity=".5" d="M155.3 164.1l-44.4.6 25.6-7.7h1.3z"/><circle r="1" fill="#5a779b" fill-opacity=".5" transform="matrix(-1.03606 5.13828 -32.27193 -6.50716 204.6 127.8)"/><path fill="#30456b" fill-opacity=".5" d="M10.7 142l26.5-5 .1 1-26.5 5z"/><circle r="1" fill="#94add7" fill-opacity=".5" transform="rotate(87.5 -7.5 38.6) scale(13.99951 59.72448)"/><ellipse cx="200" cy="50" fill="#789bce" fill-opacity=".5" rx="89" ry="9"/><path fill="#839ccc" fill-opacity=".5" d="M-34.2 18.3l1.8-12.9 144.6 20.3-1.8 12.9z"/><path fill="#8098b8" fill-opacity=".5" d="M83 118h32v12H83z"/><path fill="#273a58" fill-opacity=".5" d="M116 148l7-7 21 4z"/><circle r="1" fill="#8094ac" fill-opacity=".5" transform="matrix(-17.65599 7.80985 -.56664 -1.28103 8.6 143)"/><path fill="#657891" fill-opacity=".5" d="M22.6 155.4l6.4 2.1-30.9 9.2 37.2-7z"/><path fill="#7389a1" fill-opacity=".5" d="M0 156h24v2H0z"/><circle r="1" fill="#637c99" fill-opacity=".5" transform="matrix(.25442 1.35946 -27.92966 5.2269 102 144.6)"/><path fill="#0c192d" fill-opacity=".5" d="M30 166.5L12.3 176l-2.3-4.4 17.7-9.4z"/><path fill="#7e94b4" fill-opacity=".5" d="M80 131l-26-9 2 14z"/><path fill="#3e5472" fill-opacity=".5" d="M188 154.8l-33.5 5.1-11.2-20.3 38-15.5z"/><circle r="1" fill="#aec5d9" fill-opacity=".5" transform="matrix(58.92412 2.5638 -.37839 8.69654 164.8 94.6)"/><path fill="#96b1cf" fill-opacity=".5" d="M234 66h22v42h-22z"/><circle r="1" fill="#7f99b8" fill-opacity=".5" transform="rotate(82.7 15.4 153.4) scale(2.91332 38.53156)"/><path fill="#2a3c55" fill-opacity=".5" d="M237.2 185l-100.9-5.6L209 142l-46.6 9.3z"/><path fill="#2c4161" fill-opacity=".5" d="M230 154h26v12h-26z"/><path fill="#4d6585" fill-opacity=".5" d="M146 150.4l-40.3-10.5-64-.2 82.2 7.9z"/><path fill="#68809e" fill-opacity=".5" d="M37.2 139l33.2 4.9 9.3-7.5 14 12.5z"/><path fill="#496383" fill-opacity=".5" d="M180 127h20v17h-20z"/><path fill="#c4ccd1" fill-opacity=".5" d="M35.3 112.7l28.1-9.5-8.5.9-67.6-3z"/><path fill="#546e8f" fill-opacity=".5" d="M226 151l-10-18 55 6z"/><path fill="#5e7296" fill-opacity=".5" d="M26 126l-14 11 28-7z"/><path fill="#778da5" fill-opacity=".5" d="M42 160.5l-.3-1 12.3-4 .3 1z"/><path fill="#849bb8" fill-opacity=".5" d="M175.7 123.2l-64.3-6.6-123.3 23L71.8 118z"/><path fill="#778ca5" fill-opacity=".5" d="M43 144.4l.7 4-18.7 3.2-.7-4z"/><path fill="#97abbf" fill-opacity=".5" d="M141.6 116.3l-29.8 1.2-83.6-6.1 59.3-7z"/><ellipse cx="31" cy="141" fill="#42597d" fill-opacity=".5" rx="83" ry="1"/><path fill="#516989" fill-opacity=".5" d="M109.9 135.9l67.9 13.6-25.7-.3-34.8-20.1z"/><ellipse cx="45" cy="90" fill="#bacfe5" fill-opacity=".5" rx="53" ry="7"/><path fill="#567194" fill-opacity=".5" d="M168.6 121.7l-37.4 18.9 25.3-6.4 16.1-11.5z"/><path fill="#374c6c" fill-opacity=".5" d="M-17.8 166l-.1-1 85.7-15 .1 1z"/><path fill="#162741" fill-opacity=".5" d="M100 139h11v2h-11z"/><path fill="#667fa1" fill-opacity=".5" d="M70 141l10-18 17 15z"/><path fill="#b3c0cc" fill-opacity=".5" d="M117 103.7l95-.8-51.3 10.9-81.8-8.4z"/><circle r="1" fill="#607490" fill-opacity=".5" transform="matrix(.18567 .98261 -8.2358 1.55617 51.8 163)"/><ellipse cx="188" cy="143" fill="#354a67" fill-opacity=".5" rx="21" ry="6"/><path fill="#687f9a" fill-opacity=".5" d="M50.4 150.8l49.3-3.3 23.4-2.1-17.6-1.3z"/><path fill="#8cadd7" fill-opacity=".5" d="M221.5 60.7l-77.8 3.8 127.1 18.1.2-7.4z"/><ellipse cx="154" cy="161" fill="#0e1d31" fill-opacity=".5" rx="13" ry="2"/><path fill="#2b3d57" fill-opacity=".5" d="M155.4 148.3l-24.6 4.4-.2-1 24.6-4.4z"/><path fill="#1c2b43" fill-opacity=".5" d="M44.6 149.4l.3 1-15.5 4.2-.3-1z"/><path fill="#435978" fill-opacity=".5" d="M205 152l-45.8 4.9-.1-1 45.7-4.8z"/><circle r="1" fill="#9eb3c8" fill-opacity=".5" transform="matrix(81.96985 -1.19173 .03006 2.06764 3.1 114.6)"/><path fill="#3e5169" fill-opacity=".5" d="M90 161h19v5H90z"/><circle cx="185" cy="160" r="5" fill="#14253b" fill-opacity=".5"/><path fill="#3a4e6a" fill-opacity=".5" d="M162 165l-47 15 4-13z"/><path fill="none" stroke="#233450" stroke-opacity=".5" stroke-width=".5" d="M91.2 155.7q-14.5-6.2-104 23.5"/><path fill="#7495cb" fill-opacity=".5" d="M65 14l65 33 73-5z"/><ellipse cx="117" cy="136" fill="#7a91ab" fill-opacity=".5" rx="31" ry="1"/><path fill="#7a8d9f" fill-opacity=".5" d="M23 158l-6 3 14-2z"/><path fill="#51647f" fill-opacity=".5" d="M-6.9 149.3L90 174.2 53.6 185l15.8-18.7z"/><path fill="#3a4f6c" fill-opacity=".5" d="M137.3 131l18.9 28.4-29.3 13.6 32.3-12.4z"/><path fill="#a5b5c6" fill-opacity=".5" d="M271 88.5l-66.1 18.3 61.8 7.2 4.3-23.4z"/><path fill="#516a88" fill-opacity=".5" d="M131 150l-36 3v-1l35.8-3z"/><path fill="#354a69" fill-opacity=".5" d="M74.6 144l.2 1-39.4 7-.2-1z"/><path fill="#5e7595" fill-opacity=".5" d="M49 139h8v13h-8z"/><ellipse cx="13" cy="37" fill="#91aad5" fill-opacity=".5" rx="52" ry="17"/><path fill="#4e6789" fill-opacity=".5" d="M211.1 127.5L180 144.4l24.5-1.3-27.5-7.4z"/><path fill="#4d6483" fill-opacity=".5" d="M0 154h41v2H0z"/><path fill="#2f425f" fill-opacity=".5" d="M39.2 164.4l-22.9-.7 36.5-4.1-28 15z"/><circle r="1" fill="#5b80bb" fill-opacity=".5" transform="matrix(-110.44385 -19.67305 1.61372 -9.05937 160.9 6)"/></g></g></svg>