<svg xmlns="http://www.w3.org/2000/svg" viewBox="0 0 3168 3168"><defs/><filter id="a"><feGaussianBlur stdDeviation="12"/></filter><rect width="100%" height="100%" fill="#4c6435"/><g filter="url(#a)"><g fill-opacity=".5" transform="translate(6.2 6.2) scale(12.375)"><circle cx="88" cy="115" r="64" fill="#a3ad86"/><path fill="#b1ba88" d="M126 271l123-107-63-5z"/><path fill="#e3faf5" d="M248 92l-33 22-19-44z"/><circle r="1" fill="#12091b" transform="matrix(-54.41799 -20.06323 8.5136 -23.09166 192.7 129.6)"/><circle r="1" fill="#e5c4cc" transform="matrix(40.85372 -13.65187 4.92325 14.733 81.6 152)"/><ellipse cx="160" cy="56" fill="#8f8d80" rx="29" ry="47"/><circle r="1" fill="#191810" transform="rotate(172.8 102 117.4) scale(43.99265 25.74761)"/><circle r="1" fill="#3d5f25" transform="rotate(-79.6 89.7 10.5) scale(23.39837 64.73798)"/><circle r="1" fill="#412e6a" transform="matrix(28.77777 -6.93714 14.43773 59.8929 89 224)"/><circle r="1" fill="#101411" transform="matrix(-15.22924 27.92229 -71.13732 -38.79938 218 0)"/><path fill="#8f7e90" d="M149 163h33v93h-33z"/><circle r="1" fill="#0e1708" transform="rotate(111.1 -69.6 116.2) scale(36.93525 25.2081)"/><path fill="#819f63" d="M-16 95l66-16-64-92z"/><path fill="#ffebed" d="M115 151l19-50-34 47z"/><circle cx="95" cy="219" r="12" fill="#7c94ea"/><path fill="#accd86" d="M127.4 13.4L146.8-16 133.9 4.4l78.6 20.3z"/><path fill="#a8c587" d="M145 96L67 61l67-7z"/><circle r="1" transform="matrix(4.72692 -30.9728 4.12853 .63008 193.2 82.7)"/><path fill="#000101" d="M147.7 105.8L145 97l19.4 33.4-21.9-79.2z"/><path fill="#131711" d="M188.1.1L123 9.6l35.2 32.9L24.7-16z"/><circle r="1" fill="#94c65d" transform="matrix(29.9504 7.07998 -3.6217 15.32087 213 174.8)"/><path fill="#4b652a" d="M132 87l-29 61-26-31z"/><path fill="#141711" d="M220 88l51 99v-50z"/><path fill="#e7fbfa" d="M213 103l-18-25 27 6z"/><path fill="#9ea597" d="M190.2 50.2l-55.6.1L167 37.6l34.9-10.1z"/><circle r="1" fill="#ffdbde" transform="matrix(1.84289 2.1305 -34.04559 29.44956 136.4 252)"/><circle r="1" fill="#a18877" transform="matrix(-7.99043 3.27803 -8.01854 -19.54576 47.5 183.6)"/><path fill="#b9d7bb" d="M218.7 72.1l14.5 12.7 17 25.7-9.4 1.4z"/><circle r="1" fill="#464d3a" transform="matrix(8.08977 1.29577 -5.11495 31.9337 175.4 188.6)"/><path fill="#100d0a" d="M142 241l14-23-36-8z"/><path fill="#fff7ff" d="M102 148h6v26h-6z"/><circle r="1" fill="#030007" transform="matrix(-11.1514 4.7439 -7.39836 -17.3912 255 190.7)"/><ellipse cy="149" fill="#819960" rx="16" ry="38"/><circle r="1" fill="#55441c" transform="matrix(12.5051 8.06017 -17.4473 27.06896 74 188.7)"/><path fill="#221713" d="M126 150l-6 51-20 8z"/><circle r="1" fill="#8dae6c" transform="matrix(15.61552 -12.78115 6.15673 7.52206 141 196.6)"/><path fill="#1b260c" d="M17 142h19v36H17z"/><ellipse cx="239" cy="57" fill="#2c3823" rx="71" ry="12"/><circle r="1" fill="#8b9375" transform="matrix(-1.4254 28.91432 -7.05328 -.3477 178 91.9)"/><circle r="1" fill="#6f8f5c" transform="matrix(1.26669 -13.40015 46.29445 4.37611 38.7 30.5)"/><path fill="#395228" d="M93.5 94.7L79.3 70.1l-40.2 6.7-18.4 38z"/><circle r="1" fill="#ab8b80" transform="matrix(-3.68076 -9.39631 51.43299 -20.14756 255 250.1)"/><path fill="#d7fbde" d="M107 87l11-1-16 19z"/><circle r="1" fill="#091625" transform="matrix(-28.807 4.43206 -1.78807 -11.6219 73 255)"/><path fill="#171716" d="M182.9 32.8L134.7-16l46.8 18.3-21.1 31.6z"/><path fill="#bac8bf" d="M179 236l-19-24 19 54z"/><path fill="#2a262d" d="M160 95h14v76h-14z"/><path fill="#7ab85a" d="M71 104l-41 8 17 42z"/><path fill="#e0bcb8" d="M147.1 85.8l-39.3 49.5-12.6 47.5 27.5-44.6z"/><path fill="#8a8969" d="M117 188l39-40-11-40z"/><ellipse cx="94" cy="193" fill="#856346" rx="12" ry="19"/><circle r="1" fill="#e5d8d5" transform="matrix(-14.95512 13.16364 -3.86197 -4.38756 74.3 152.8)"/><path fill="#1c240e" d="M198.8 245.7l-1.2-64.8-14.5 51.3.4 38.8z"/><circle r="1" fill="#738e63" transform="matrix(2.92948 -7.1894 26.96717 10.98837 227.7 79.7)"/><path fill="#2c3c22" d="M137.3 61l-22.4-77-80 29.7 108.5 10.8z"/><path fill="#c1d9de" d="M160 110l7 5-9-17z"/><path fill="#566a45" d="M233.9 100.3l1.8 61.2-12.8-68.6L214 67z"/><path fill="#84bc6f" d="M27 250h26l-4-16z"/><path fill="#a8c189" d="M43.2 7.3L44.5-16 32.3 5.7l.8 17.2z"/><path fill="#a0a799" d="M148.5 211l-1.4 10.6 1.4-50.3 12.4-25.8z"/><path fill="#9ba376" d="M191.3 77.4l-13.2 24.3-16.3-12.1L151 72.8z"/><path fill="#96a989" d="M147.8 5.9l-6.7 25.7 45.3-10.9-8.1-2z"/><path fill="#50512c" d="M109 158l29 30-19-44z"/><ellipse cx="43" cy="57" fill="#0b1103" rx="12" ry="6"/><path fill="#28380e" d="M23 66.9L3.4 38.7-16 40.5l39.3 27z"/><path fill="#55653a" d="M153 203l89-15-68 32z"/><path fill="#314329" d="M123.4 101.8L137.9 82l1 11.5-16.4 21.9z"/><path fill="#8fa86c" d="M62 65l-38-4-28 22z"/><path fill="#d3ddbd" d="M106.7 63.5l-23.5-1.7 35-5 7.5 7.1z"/><ellipse cx="137" cy="11" fill="#b5d195" rx="14" ry="5"/><path fill="#475949" d="M262.7 72l12.2 24-27.6 14-12.2-24z"/><circle r="1" fill="#5d7c45" transform="matrix(-12.32903 20.59081 -4.79186 -2.8692 200.8 15.3)"/><path fill="#a1c394" d="M0 24h16v13H0z"/><circle r="1" fill="#253016" transform="matrix(-7.00512 -4.29274 27.31694 -44.5772 251.3 119.7)"/><ellipse cx="212" cy="168" fill="#c3ed95" rx="22" ry="3"/><path fill="#283720" d="M89.9 96.8l-26-41.6 31.4-38.1-36 35.9z"/><path fill="#a38175" d="M111.2 176.1l-34.1-22.2 29.9 39.3 3.1-6z"/><path fill="#231f18" d="M193 157l13-60-49 54z"/><path fill="#b6c0b2" d="M237.4 117.1l-.1 5.2-9.4-3.8-1.7-2.9z"/><circle r="1" fill="#38532b" transform="matrix(-12.51328 -11.14892 16.74334 -18.7923 47.9 221.4)"/><path fill="#4b643e" d="M73 13h47v44H73z"/><path fill="#364574" d="M63 207h27v39H63z"/><path fill="#ddb8b2" d="M147.5 239l18.8-21.4-8.9 26.5-42.8 26.9z"/><path fill="#07000b" d="M190 58h7v38h-7z"/><path fill="#daeee1" d="M225.4 96.2l-8.4 5.5-10.4-16 8.4-5.4z"/><path fill="#719243" d="M90 77l31 6 33-34z"/><path fill="#a6c389" d="M5 139l-20 30H5z"/><path fill="#121738" d="M115 244l-7-17 31 15z"/><path fill="#728e55" d="M224.6 254.3L200.4 266l-7-14.4 24.2-11.8z"/><path fill="#21202e" d="M170.5 26l-12.8 12.5-14.1-.9 18.7-9.2z"/><ellipse cx="206" cy="106" fill="#90ac97" rx="2" ry="14"/><path fill="#0f1406" d="M231 13.8L216.7-7.9l-9.1 23.6-4.4 12.1z"/><path fill="#6575ac" d="M115 222l-23.3 15.7L81.1 222l23.2-15.7z"/><path fill="#554635" d="M152.5 102l-36.1 47.4 5.2-3.1 19-46.7z"/><circle cx="134" cy="145" r="11" fill="#99c075"/><ellipse cx="92" cy="255" fill="#050a10" rx="6" ry="23"/><circle r="1" fill="#2a3021" transform="matrix(28.0157 -8.19623 2.55623 8.7375 7.6 4)"/><path fill="#405221" d="M47 160L9 129 2 79z"/><path fill="#47311f" d="M164 123.6L127.5 183l-13.8 21.9 32.2-23.8z"/><path fill="#23252b" d="M57.4 205.9l26.5-21.3L63.7 213l44.5-1.9z"/></g></g></svg>