<svg xmlns="http://www.w3.org/2000/svg" viewBox="0 0 1800 1800"><defs/><filter id="prefix__a"><feGaussianBlur stdDeviation="12"/></filter><rect width="100%" height="100%" fill="#5c5042"/><g filter="url(#prefix__a)"><g transform="translate(3.5 3.5) scale(7.03125)"><circle r="1" fill="#e3ffff" fill-opacity=".5" transform="matrix(9.33442 -107.29162 67.84302 5.90237 223 66)"/><circle r="1" fill="#f5ffff" fill-opacity=".5" transform="matrix(43.09454 -39.31473 59.46985 65.18741 34.4 51.3)"/><ellipse cx="242" cy="26" fill-opacity=".5" rx="41" ry="8"/><circle r="1" fill="#fff" fill-opacity=".5" transform="matrix(-4.3777 21.2629 -33.42213 -6.88111 231.2 54)"/><circle r="1" fill="#a1775c" fill-opacity=".5" transform="matrix(-34.29366 -59.16658 39.07622 -22.64905 111.2 42.2)"/><circle r="1" fill="#bcf6ff" fill-opacity=".5" transform="matrix(34.52972 57.15234 -24.69395 14.91934 30.9 42.7)"/><path fill="#d47c5e" fill-opacity=".5" d="M111 271l-127-40 102-54z"/><circle r="1" fill="#d1ffff" fill-opacity=".5" transform="matrix(-39.88233 79.07408 -12.54828 -6.32893 198 0)"/><circle r="1" fill="#0d0e0d" fill-opacity=".5" transform="matrix(-.43524 -9.99818 29.52598 -1.28532 203.2 85.4)"/><ellipse cx="27" cy="181" fill-opacity=".5" rx="42" ry="21"/><ellipse cx="233" cy="228" fill="#b3866e" fill-opacity=".5" rx="57" ry="33"/><path fill="#e0ffff" fill-opacity=".5" d="M232 90l-72 14 111 17z"/><circle r="1" fill-opacity=".5" transform="matrix(-4.1489 -1.7284 12.33574 -29.61089 188.6 57.5)"/><circle r="1" fill="#2b0000" fill-opacity=".5" transform="matrix(30.2156 -4.29432 3.67885 25.88503 125.8 130.8)"/><circle cx="138" cy="210" r="53" fill="#802116" fill-opacity=".5"/><path fill="#c1ffff" fill-opacity=".5" d="M165.7 2.8l98.8-21 5.8 27.4-98.8 21z"/><ellipse cx="203" cy="185" fill="#010f13" fill-opacity=".5" rx="55" ry="15"/><path fill="#a07956" fill-opacity=".5" d="M75.3 132.7l-92 1.6-.6-37 92-1.6z"/><path fill="#ffdeae" fill-opacity=".5" d="M81 178l9.2 28.5L73 212l-9.3-28.5z"/><path fill="#e3ffff" fill-opacity=".5" d="M184 82l87-47-69-1z"/><circle r="1" fill="#8a7156" fill-opacity=".5" transform="matrix(27.30657 73.9627 -27.1772 10.03365 89.2 30.2)"/><path fill="#d8dcc7" fill-opacity=".5" d="M-6 16l-10 110 45-5z"/><ellipse cx="255" cy="150" fill="#a18c89" fill-opacity=".5" rx="105" ry="24"/><circle r="1" fill="#c1f7ff" fill-opacity=".5" transform="matrix(32.43129 76.71445 -12.76034 5.39447 41.3 23)"/><path fill="#0d0b0f" fill-opacity=".5" d="M199.3 26l-18.8 23.5.1 28.3 26-50.8z"/><path fill="#c3faff" fill-opacity=".5" d="M174.7 107.2l.2-123.2-20.1 104.3-6.9 21.5z"/><circle r="1" fill="#81482e" fill-opacity=".5" transform="rotate(27 -281.2 323.2) scale(80.11416 20.98579)"/><path fill="#d5ffff" fill-opacity=".5" d="M78 132l-2-51 22 24z"/><path fill="#0b0a10" fill-opacity=".5" d="M271 37.4l-16.6-22.3-11.1 1.3-48.4 13.8z"/><path fill="#8d715e" fill-opacity=".5" d="M122.6-22.8l53.3 13.3-14.5 58.3-53.3-13.3z"/><ellipse cx="19" cy="231" fill="#8e825c" fill-opacity=".5" rx="45" ry="29"/><path fill-opacity=".5" d="M28 195h45v6H28z"/><ellipse cx="9" cy="158" fill="#c1aa90" fill-opacity=".5" rx="79" ry="4"/><circle r="1" fill="#9e2826" fill-opacity=".5" transform="matrix(-28.52246 -10.77774 8.21133 -21.73065 92.8 244.2)"/><path fill-opacity=".5" d="M236.4 87.2l34.6 2.7-11.8 3.1-46.4-3.8z"/><path fill="#353430" fill-opacity=".5" d="M175 91l46-23v28z"/><path fill="#e5ffff" fill-opacity=".5" d="M237 45h19v42h-19z"/><path fill="#040506" fill-opacity=".5" d="M18 163h77v11H18z"/><path fill="#9e8d7b" fill-opacity=".5" d="M183 198h73v29h-73z"/><path fill="#ffdfdb" fill-opacity=".5" d="M85 196.5l-21.6 25-4.5-4 21.7-25z"/><path fill="#fff" fill-opacity=".5" d="M210 90h13v5h-13zm15.8-16l.8 3-18.4 5-.8-3z"/><circle cx="175" cy="245" r="31" fill="#943c3f" fill-opacity=".5"/><path fill="#cdffff" fill-opacity=".5" d="M169.6 86l-14.1-5 23-63 14 5z"/><path fill="#756155" fill-opacity=".5" d="M206 129.5l-47.7-5 1.7-16 47.7 5z"/><circle r="1" fill="#baf8ff" fill-opacity=".5" transform="rotate(171.3 112.3 8.5) scale(31.24333 21.69007)"/><path fill="#dbf7ff" fill-opacity=".5" d="M220 32.1l-23.7 53.5-13.8-5.9 17.9-37.2z"/><path fill="#847262" fill-opacity=".5" d="M73.1 95.9L25 92.5l-41 15.7 93 7.7z"/><path fill="#342a1a" fill-opacity=".5" d="M23 127h29v30H23z"/><path fill="#84939f" fill-opacity=".5" d="M49.4 41.7l-14.8 8.6 25.5 121.6-7-69.3z"/><path fill="#1d1305" fill-opacity=".5" d="M160 218l-27-12 32-42z"/><path fill="#befaff" fill-opacity=".5" d="M187 111l-27-24 90 22z"/><path fill="#2e1301" fill-opacity=".5" d="M96.3 173.5l31.5 38.8-10.1 8.2-31.5-38.8z"/><circle r="1" fill="#141008" fill-opacity=".5" transform="rotate(84.1 -2.8 128.9) scale(13.89227 28.48591)"/><path fill="#c1a780" fill-opacity=".5" d="M17.7 154.1l2.5-19-12.6-34.4 6.5 62.4z"/><path fill="#a08b86" fill-opacity=".5" d="M173.7 170.3L157.6 63.7l-29.5 39.7 110.7 22.8z"/><path fill="#7a3c26" fill-opacity=".5" d="M168 122l-54 16 52 29z"/><path fill="#abaca6" fill-opacity=".5" d="M268 130l2 59-81-62z"/><path fill="#ee9882" fill-opacity=".5" d="M87.4 241.8l6.7-30.4-5.8-19.5-13.6-3.7z"/><path fill="#c8714e" fill-opacity=".5" d="M121.3 192.6L96.1 145l-4.8.9 8.1 33.7z"/><path fill="#6a7790" fill-opacity=".5" d="M13.3-16L-5.4 3.5 8 7.7l16.3 30.5z"/><ellipse cx="253" cy="109" fill="#f4fff9" fill-opacity=".5" rx="43" ry="9"/><circle r="1" fill="#8b725c" fill-opacity=".5" transform="rotate(44.2 27.9 152.8) scale(49.99112 56.68424)"/><path fill="#dfffff" fill-opacity=".5" d="M73.1 78.7l-26.4-89 5.4 83.1 27.8-5.3z"/><circle r="1" fill="#9ecfdc" fill-opacity=".5" transform="matrix(-12.886 12.74544 -4.94877 -5.00334 85.7 90.2)"/><path fill="#5b3d26" fill-opacity=".5" d="M183 238h73v11h-73z"/><path fill="#191314" fill-opacity=".5" d="M194 31l-10 16 36-23z"/><path fill="#030c12" fill-opacity=".5" d="M203 72h22v5h-22z"/><path fill="none" stroke="#22150b" stroke-opacity=".5" stroke-width=".5" d="M271 99.8q-43.5-1.4-60.8-4.9"/><path fill="#1e2021" fill-opacity=".5" d="M170.4 83l51.7 14.8-37.3-16.6 6-40.8z"/><path fill="#626d73" fill-opacity=".5" d="M45.8 106.4l-2.6 1.4-31-58.2 2.6-1.4z"/><path fill="#000205" fill-opacity=".5" d="M170 109l-2 5 19-2z"/><path fill="#19201f" fill-opacity=".5" d="M-16 154.4l88.4 44.8-6 6.3L-7 200z"/><path fill="#a6e7ff" fill-opacity=".5" d="M164.2 71.7L162 124l2.5-11.4 12.9-44.9z"/><path fill="#391d0e" fill-opacity=".5" d="M120 133l-59-10 51 27z"/><circle r="1" fill="#302922" fill-opacity=".5" transform="matrix(21.01413 2.20867 -.10453 .99452 252 119.2)"/><path fill="#d9f4f3" fill-opacity=".5" d="M0 31h8v61H0z"/><path fill="#ad3c2e" fill-opacity=".5" d="M-16 120.9l26.7 5.3v33.9l-13.8-6.6z"/><path fill="#653b30" fill-opacity=".5" d="M138 62l-26 21 46 8z"/><circle r="1" fill="#70553f" fill-opacity=".5" transform="matrix(-8.6877 52.95296 -5.04404 -.82755 161.4 18)"/><path fill="#3d151e" fill-opacity=".5" d="M65.5 228.6l-1.8-8 11.2-5.5-6 19.8z"/><circle r="1" fill="#fff6d5" fill-opacity=".5" transform="rotate(-81.3 181.2 -98) scale(2.01261 30.51318)"/><circle r="1" fill="#c46e57" fill-opacity=".5" transform="matrix(-4.9299 -1.52606 4.73577 -15.29881 154 164.3)"/><circle r="1" fill="#b4fdff" fill-opacity=".5" transform="matrix(11.22463 -30.09554 12.82447 4.7831 183.3 15.7)"/><path fill-opacity=".5" d="M235 79.5l.2 1-52.2 14-.2-1z"/><path fill="#1e1914" fill-opacity=".5" d="M70 178.4l-24.1-16.7 38.7 2.4L78 184z"/><path fill="#494e4a" fill-opacity=".5" d="M215 96h29v3h-29z"/><path fill="#9b795b" fill-opacity=".5" d="M115.4 44.7L68.5 59 46.6-12.7 93.5-27z"/><ellipse cx="214" cy="103" fill="#9dd8f3" fill-opacity=".5" rx="45" ry="6"/><path fill="#1a1f23" fill-opacity=".5" d="M169.2 167.8l82.2 11.6-2.6 18.8-82.2-11.6z"/><circle r="1" fill="#795a3b" fill-opacity=".5" transform="matrix(-4.55133 -17.73372 29.55138 -7.5843 28.6 251.3)"/><circle r="1" fill="#7b7d80" fill-opacity=".5" transform="matrix(-.12977 8.26046 -33.83636 -.53154 217 164.5)"/><path fill="#928668" fill-opacity=".5" d="M0 204h61v21H0z"/><path fill="#b3808a" fill-opacity=".5" d="M200 233l5-16-34-33z"/><path fill="#768f93" fill-opacity=".5" d="M92 76l23 29-25 5z"/><path fill="#ffa7a0" fill-opacity=".5" d="M59 218h4v31h-4z"/><path fill="#927054" fill-opacity=".5" d="M54 160.6l21.2-37.7L90.5 155l-41.4-12.3z"/><path fill="#4b100e" fill-opacity=".5" d="M105.2 175l7.6-4 35.8.9-12.6 9.7z"/><path fill="#4d0906" fill-opacity=".5" d="M195 254.4l6.6 16.6-12.7-34.1-16.4 33.5z"/><ellipse cx="61" cy="85" fill="#9ce5ff" fill-opacity=".5" rx="15" ry="12"/></g></g></svg>