<svg xmlns="http://www.w3.org/2000/svg" viewBox="0 0 1200 1800"><defs/><filter id="a"><feGaussianBlur stdDeviation="12"/></filter><rect width="100%" height="100%" fill="#4b3b2a"/><g filter="url(#a)"><g fill-opacity=".5" transform="translate(3.5 3.5) scale(7.03125)"><circle r="1" fill="#fbdf93" transform="rotate(83.1 -2.8 100) scale(39.79212 28.2533)"/><circle r="1" transform="matrix(-2.4301 35.58338 -164.93531 -11.26399 105.2 21.4)"/><circle r="1" transform="matrix(51.70984 160.89466 -31.9925 10.28205 161 75.8)"/><circle r="1" transform="matrix(35.713 29.02316 -23.0998 28.4243 94.1 249.3)"/><circle r="1" fill="#060904" transform="matrix(-32.16905 -6.8195 35.04733 -165.326 31.9 82.4)"/><circle r="1" fill="#a89054" transform="matrix(2.0103 41.1035 -22.51443 1.10114 76.7 130.2)"/><circle r="1" fill="#748864" transform="matrix(11.92424 -.93846 4.44932 56.53396 146.2 180.4)"/><path fill="#ffe49a" d="M76 59l20-13v82z"/><circle r="1" fill="#848375" transform="rotate(114.7 -48.8 118.5) scale(30.79043 13.06956)"/><circle r="1" fill="#49341a" transform="matrix(-6.77954 -28.7718 8.89418 -2.09575 111.7 105)"/><path d="M136 144l-48 31 45 12z"/><path fill="#bfa660" d="M95.2 199l-30.7-4.2 2.3-15.9 30.7 4.3z"/><circle r="1" fill="#000003" transform="matrix(21.5014 -3.57665 19.12592 114.97735 165.2 116.5)"/><circle r="1" fill="#8a763f" transform="matrix(-10.60796 -12.07478 28.51077 -25.04733 111.5 136.8)"/><path fill="#242323" d="M79 77l7 33-29 35z"/><path fill="#d8ce9a" d="M93 47.5l-34.7 76.6 9.9-47.5 17.4-25.1z"/><circle r="1" fill="#000504" transform="matrix(12.09872 19.85824 -56.2598 34.27653 92 25.8)"/><circle r="1" fill="#000002" transform="matrix(-32.40358 -22.52108 18.0451 -25.96349 92.5 249.8)"/><circle r="1" fill="#000001" transform="matrix(-.06438 -30.32031 12.68734 -.02694 49 90)"/><circle r="1" fill="#829875" transform="matrix(15.89442 42.46838 -5.77674 2.16203 133.5 125.3)"/><path fill="#0b0001" d="M51.6 177.8l84.1 3.4-69-9.1-39.6-51.3z"/><ellipse cx="16" cy="112" fill="#3c2e1c" rx="20" ry="104"/><path fill="#8f9569" d="M134.9 168.3l15.5 8.8-12.3 38.5-9-4.3z"/><circle r="1" fill="#a68742" transform="matrix(4.24549 -8.26083 24.11729 12.3946 74.4 154)"/><path fill="#8c8963" d="M117.7 56l-3.4 7.3-20-9.3 3.4-7.3z"/><path fill="#080306" d="M129 178l-9 75-23-9z"/><path fill="#8e8573" d="M28.6 207.2l16.4-31 12.4 6.6-16.4 31z"/><circle r="1" fill="#e5b979" transform="matrix(-15.14854 1.02522 -.52639 -7.7778 97.2 118.4)"/><path fill="#fdf3bb" d="M71.7 75.5l3 .5-6.4 36.5-3-.5z"/><path fill="#020607" d="M107 39l78 148-8-203z"/><path fill="#3a2d1d" d="M124.7 114.9l-24.4-7.7 16.6-26.3-2.8 67.1z"/><path fill="#c6cc87" d="M129.3 140.5l-1.9-8.1 8.2 11.2-17.4-55.2z"/><path fill="#070b07" d="M67.6 84.4l-23.8-7.8 12.6-39 23.8 7.8z"/><circle r="1" fill="#1e261f" transform="matrix(15.86893 9.78731 -34.58501 56.07538 168.8 237.2)"/><circle r="1" fill="#515945" transform="matrix(-8.13437 2.95563 -14.60255 -40.1886 144.6 145.6)"/><path fill="#eaeea5" d="M126 100l-9-33v36z"/><path fill="#504d3e" d="M52.5 210.9l4.5 31.5-54.5 17.3 66.7-85.5z"/><ellipse cx="92" cy="190" fill="#816d41" rx="32" ry="9"/><path fill="#030000" d="M99 160h32v22H99z"/><path d="M51 257l-27 14 3-33z"/><path fill="#504f3d" d="M123 239.7l3.2-29.9 42.8 4.5-3.2 29.9z"/><path fill="#422d18" d="M85 112l-18 30-20-10z"/><circle r="1" fill="#544c31" transform="rotate(171.3 53.4 53.8) scale(4.67304 32.0873)"/><circle r="1" fill="#050909" transform="matrix(9.4556 -78.8812 4.59401 .55069 46.3 115)"/><path fill="#b6944c" d="M62 147h15v22H62z"/><ellipse cx="169" cy="195" rx="6" ry="36"/><path fill="#0c0005" d="M86.3 225.7l-25-19.7-6.4 3.4 1.8 20.7z"/><path fill="#dca865" d="M119.4 72.4l-1.8-11.1-31.3 39.9-7-19.3z"/><circle r="1" fill="#4b3c2a" transform="matrix(8.61641 .5445 -2.79895 44.29212 7.4 156.6)"/><path fill="#664524" d="M91 126l28-7-28 31z"/><path fill="#0e0e0b" d="M118.2 69.2l66.8 50.4L115.1 5.3l11.8 100z"/><path fill="#604a2c" d="M78 192h18v24H78z"/><path fill="#402e1c" d="M77.1 180l-1-21.7 5.3-22.3-.1 40.3z"/><path fill="#656957" d="M42.9 155l30.9-58.8-1.5 28-8.1-23.2z"/><path fill="#90836f" d="M33.5 196l-7.1 13.8 23-15.5-36.9 55.2z"/><ellipse cx="13" cy="42" fill="#241c0f" rx="25" ry="48"/><path fill="#f5e1a7" d="M69.5 77.5l2.8.8-5.8 20.2-2.8-.8z"/><path fill="#e6d298" d="M82 54l-6 24 31-23z"/><path fill="#482b13" d="M74 79h6v12h-6z"/><path fill="#090a08" d="M185 82L-11-1l193-15z"/><circle r="1" fill="#190705" transform="matrix(.03047 -3.49186 20.6675 .18036 69.7 172.7)"/><path fill="#141009" d="M-16 271l35-45-14 39z"/><path fill="#747160" d="M48 236l-14 9 12-44z"/><path fill="#91754c" d="M97.6 91.4l2.5 20.3L118.3 61l-7.6-6.2z"/><path fill="#eab572" d="M83 90l19-23-12 59z"/><path fill="#805730" d="M93 81l1 8-9-8z"/><path fill="#91773f" d="M58.9 158.9l39 14.6-36.6-39.1L48 149.1z"/><path fill="#3f311e" d="M79 216l40-3 6-29z"/><circle r="1" fill="#a6b07f" transform="rotate(-1.1 9367 -7004.2) scale(2.07375 15.37994)"/><path d="M126 271l20-18 34-3z"/><path fill="#b4a46d" d="M117.9 66.6l-40.3-9.9 14.6-8 28.4 27.7z"/><path fill="#0e100c" d="M36.8-16l-.1 104.5 26.8 4.3 22.1-54.1z"/><path fill="#aa945d" d="M68 180h25l-23 12z"/><path fill="#91783e" d="M97.6 174.6l-13.2-4 3.1-32.5 7.5 9.7z"/><path fill="#4d391e" d="M63.6 123.2l10.7 19.2-7.9 4.4-10.7-19.2z"/><path fill="#e2d198" d="M79 56l24 14-34 9z"/><ellipse cx="131" cy="195" fill="#4b4a33" rx="4" ry="28"/><path fill="#f5fcba" d="M121 85l-4-18-1 16z"/><path fill="#6b6d59" d="M80 107l-28 24 6-21z"/><path fill="#9b7845" d="M73.5 125.2l15.7-13.4L67.3 137l46.5-13.9z"/><path fill="#392f22" d="M16 241l17-4 6-17z"/><circle r="1" fill="#525f4d" transform="rotate(-18.5 382.2 -357.3) scale(3.14371 37.82989)"/><path fill="#525139" d="M155 156l9 57-30 44z"/><path fill="#643822" d="M98 85h5v15h-5z"/><path fill="#2b2215" d="M14.7 7.4L33 171.8 36 6l1.5 2.6z"/><path fill="#090c0b" d="M63 83L36 93l3 83z"/><path fill="#715e49" d="M16 232.8l11.5 3.5-7.6 24.9-11.4-3.5z"/><path fill="#f2cb87" d="M90.5 124l14.9-4.7-8.8-3.2-13.8-42z"/><path fill="#211415" d="M80.6 113l-4.3-.6-7.4 18 14.4-14.6z"/><path fill="#2a2211" d="M112 81h5v12h-5z"/><path fill="#e5e7a2" d="M118 70l-3-11-1 8z"/><circle r="1" fill="#ccd896" transform="rotate(165.9 54.7 61.4) scale(1 19.24113)"/><path fill="#11070a" d="M79 216h46v40H79z"/><ellipse cx="137" cy="235" fill="#68614d" rx="2" ry="36"/><path fill="#b49754" d="M56 140l20 20-24-12z"/><path fill="#484d38" d="M139.1 128.6l-15-28.4 14.9 55.7-11.7 49.8z"/><path fill="#1b0e0d" d="M131.1 170.6l-76.4 4.7 68.3 9.3 2.4 19.7z"/><path fill="#707658" d="M156.3 164.5l-16.9 18.7 3.8-17.3-8.5-53.4z"/><path fill="#372716" d="M93 139h15v5H93z"/><path fill="#2d261e" d="M141 228h9v28h-9z"/></g></g></svg>