<svg xmlns="http://www.w3.org/2000/svg" viewBox="0 0 3168 3168"><defs/><filter id="a"><feGaussianBlur stdDeviation="12"/></filter><rect width="100%" height="100%" fill="#3b4f31"/><g filter="url(#a)"><g fill-opacity=".5" transform="translate(6.2 6.2) scale(12.375)"><circle r="1" fill="#b7a69d" transform="rotate(-163.2 62.9 70.1) scale(88.40119 48.16881)"/><path fill="#e1b29a" d="M53 126L29 271 6 196z"/><path fill="#f5ffff" d="M128.6 145.2l59.4 26.4-8.6 19.2-59.4-26.4z"/><circle r="1" fill="#a2a592" transform="matrix(19.36111 -1.95308 3.8057 37.7263 206.6 136.7)"/><path fill="#b8c7a3" d="M184 225l-61 31 111 15z"/><path fill="#000030" d="M34 271l16-114 86 114z"/><circle r="1" fill="#577160" transform="rotate(59.4 56.7 217) scale(64.5599 48.29994)"/><path fill="#000531" d="M97.6 202.7l-.8 68.3 27.4-26.8-7.4-83.3z"/><circle r="1" fill="#153c12" transform="matrix(36.61533 11.09606 -3.32896 10.98507 163.2 145.6)"/><ellipse cx="86" cy="98" fill="#866b74" rx="36" ry="27"/><circle r="1" fill="#161516" transform="matrix(10.08027 -42.48169 25.4247 6.0329 235.4 201.7)"/><path fill="#261004" d="M89 160l24-74-2 62z"/><path fill="#ebebf9" d="M215.6 128.9l5-8.8-16.8-6.4-15.9 7.3z"/><circle r="1" fill="#cb9b9b" transform="matrix(-.36267 20.77725 -17.91237 -.31266 88.5 180)"/><ellipse cx="28" cy="89" fill="#1d2e15" rx="17" ry="49"/><ellipse cx="128" cy="254" fill="#be8284" rx="7" ry="50"/><path fill="#381f11" d="M43 164l20-56 4 45z"/><circle r="1" fill="#2a351e" transform="matrix(13.71647 -45.14623 70.49962 21.41942 87.7 20)"/><ellipse cx="123" cy="138" fill="#a4b289" rx="9" ry="44"/><path fill="#d9ffbf" d="M176 244.8l-36.5 4.5 39-20-1.6 12.3z"/><circle r="1" fill="#caa898" transform="rotate(-10.4 691.4 -371) scale(11.94642 21.70144)"/><ellipse cx="190" cy="245" fill="#474149" rx="14" ry="91"/><path fill="#fff" d="M175.3 186.7l-11.9-3.2-15.6-23.6 20.5 4.1z"/><path fill="#987165" d="M11 246l41-79-21 97z"/><path fill="#0d1717" d="M235 179l-80 39 7-25z"/><path fill="#79b555" d="M10.3 212.3L-17.9 202l9.6-26.3L19.9 186z"/><path fill="#31552e" d="M126 128h36v23h-36z"/><path fill="#8b8e57" d="M189.6 172.6l29.7 6.7 5.4-20.5-31.8-25.3z"/><path fill="#29272b" d="M121 89l-68-2 52 16z"/><path fill="#32583e" d="M172 92h48v23h-48z"/><path fill="#ada18b" d="M45 194l10-97-38 94z"/><path fill="#365132" d="M141.4 109.9l59.6 13.3-30.7 20.7 20.7 62z"/><path fill="#bb9688" d="M68 115l-4 63 22 20z"/><path fill="#5f8645" d="M18 159l37-46-52 21z"/><path fill="#d1e0b2" d="M206.1 3.2l6-3.7 5.8 9.3-6 3.7z"/><path fill="#404c3f" d="M132.8 237.5l-3-54.2 6.1-7.3 22.6 53.8z"/><path fill="#d9f4dc" d="M170.1 170l2.8-4.1 15 10-2.8 4.2z"/><path fill="#bee2b0" d="M118 129l-2-18 26 8z"/><path fill="#2b2834" d="M216.2 148.1l-8.9 3.8 13.1-24.2-20.6 3.1z"/><path fill="#1d263d" d="M119 174.8l-17.7 21.5-33.8 22.9 60.4 41.7z"/><path fill="#bb947d" d="M14.8 258.1l-1.6-30 6-.2 1.6 30z"/><circle r="1" fill="#243020" transform="matrix(9.06076 14.88816 -52.3233 31.84334 15.8 98.2)"/><ellipse cx="220" cy="136" fill="#ccd1ce" rx="4" ry="8"/><path fill="#c1ddcb" d="M132.3 168.3l2.7-1.4 20.7 38.8-2.7 1.4z"/><path fill="#d9c0b7" d="M74 110.9l30.8 4.3-.9 6-30.7-4.4z"/><path fill="#6e7265" d="M176 221h33v23h-33z"/><path fill="#04000c" d="M224 147h6v39h-6z"/><path fill="#764f34" d="M81 139h20v26H81z"/><path fill="#978589" d="M127.5 241.7l8.9 29.3-.9-43.1 35.7-14.4z"/><ellipse cx="122" cy="154" fill="#bdc7aa" rx="6" ry="16"/><path fill="#6b7456" d="M167.9 37.5L155 50.6l38.4-4.9 41.4-41.9z"/><path fill="#455234" d="M123 27h19v87h-19z"/><path fill="#383e24" d="M182.3 7.1l28.2-4.6-3.9 10.1L112 68.5z"/><path fill="#fafaee" d="M247 136l24-13-14 3z"/><path fill="#77927c" d="M236.6 65.8l3.6-11.8L271 68l-.8 9.5z"/><path fill="#282a20" d="M177.3 160.2l11.2-51.6-.2 103.8 41.9 18.9z"/><path fill="#1b2a3f" d="M49 155l-2 60 39-6z"/><circle r="1" fill="#b2d3ae" transform="matrix(-1.92741 .48056 -.9771 -3.91896 235.3 184.5)"/><path fill="#f9ffff" d="M154 176l21-2-24-20z"/><path fill="#537449" d="M167 143l-57-17 57-2z"/><path fill="#9b9" d="M158 199.5l-1.4-25.2-47.5-47.6 30 38z"/><path fill="#70543d" d="M107 130l-50-9 32-4z"/><circle r="1" fill="#221f23" transform="rotate(-172.2 28.9 120.4) scale(9.30149 37.02998)"/><circle r="1" fill="#1f2c1e" transform="matrix(14.48664 10.79195 -6.45573 8.66588 239.4 134.4)"/><path fill="#827b65" d="M50 114l-13-14 60 1z"/><path fill="#2d4423" d="M48.4 61.8l-18.8 84.7-45.6-17.1 38.4 21.9z"/><path fill="#f3f6fd" d="M198.8 120.7l3.4-3.6 11 10.2-3.4 3.6z"/><path fill="#646972" d="M133 69l-65 2 22 23z"/><path fill="#584e3c" d="M61.1 181.8l-2.8-34.9 13.4-81.4-28.4 94.1z"/><path fill="#a3c987" d="M24 132.1l-1.4 6.9L8 135.9l1.5-6.9z"/><path fill="#7f9089" d="M202 188l-10-39-1 25z"/><path fill="#151325" d="M201 186l-5.5-15.2 1.7-8.2 12.1 34.7z"/><path fill="#bad882" d="M247.1 8.1l1.7-1.5L271 27.2l-10.2-3.8z"/><circle cx="194" cy="136" r="7" fill="#9bb0b1"/><path fill="#517366" d="M185 71l63 9-22 29z"/><circle r="1" fill="#a5b789" transform="matrix(-.76497 -3.49495 16.42001 -3.59399 29.9 150.6)"/><path fill="#fff" d="M185 182l-2-16h-6z"/><path fill="#162d11" d="M146 189l12 17 10 1z"/><path fill="#6b8481" d="M226 34h13v17h-13z"/><path fill="#312209" d="M101.4 111l-11.6-3.1.8-2.9 11.6 3.1z"/><path fill="#e2f7f9" d="M233.8 153.2l.6-.7 7.8 6.3-.6.7z"/><path fill="#425238" d="M87 39l37 72-11-83z"/><path fill="#434934" d="M171.4 164.9l11.8 27.5 4.3 78.6 6.7-75.8z"/><path fill="#8c9f5d" d="M109 148h26v10h-26z"/><circle cx="173" cy="237" r="6" fill="#d9ece1"/><path fill="#385020" d="M15.1 223l1.6-24.3-32.7 62L11.4 271z"/><path fill="#1d2224" d="M185 160.3l23.7 46.2 56.8 64.5-78-76.1z"/><path fill="#3c5d39" d="M144 168l-2 15 12 11z"/><circle r="1" fill="#b9987d" transform="matrix(-7.71656 -31.49238 2.41346 -.59137 134.8 249.1)"/><path fill="#cdadb7" d="M44.8 160.5l-12.3 19.1-8.2-3.5 2.1-8.2z"/><path fill="#1c201e" d="M115 108l-2 13-14-25z"/><circle cx="174" cy="187" r="6" fill="#abd3bd"/><path fill="#538047" d="M164.8 91.2L148.2 80l9-13.2L173.8 78z"/><path fill="#a77e6d" d="M123 170h8v52h-8z"/><path fill="#161a15" d="M160 25.5l6.6-41.5 1.2 28.2 5.3 13.9z"/><ellipse cx="146" cy="63" fill="#2a3922" rx="7" ry="65"/><path fill="#cae38a" d="M206-16L151 2l-4-18z"/><ellipse cx="177" cy="250" fill="#7d8ba4" rx="3" ry="27"/><ellipse cx="255" cy="45" fill="#2a3228" rx="17" ry="9"/><path fill="#5e4f3d" d="M69.3 104.9l12.5 5.5.1-5.5.3-4z"/></g></g></svg>