<svg xmlns="http://www.w3.org/2000/svg" viewBox="0 0 1800 1200"><defs/><filter id="a"><feGaussianBlur stdDeviation="12"/></filter><rect width="100%" height="100%" fill="#514a2e"/><g filter="url(#a)"><g fill-opacity=".5" transform="translate(3.5 3.5) scale(7.03125)"><circle r="1" fill="#a6b2c9" transform="matrix(141.16983 -127.46107 103.04462 114.12733 99.5 29.7)"/><circle r="1" fill="#fff" transform="matrix(-19.3611 -2.1717 4.48561 -39.99015 163 52.5)"/><path fill="#a7c9f4" d="M-16 2l275-13L59 54z"/><circle r="1" fill="#483d31" transform="matrix(28.93105 16.14413 -43.26827 77.5388 76.8 117.6)"/><circle r="1" fill="#585c52" transform="matrix(-21.04814 -43.71981 91.424 -44.01448 184.1 140.5)"/><circle cy="72" r="41" fill="#5d441d"/><ellipse cx="221" cy="9" fill="#7fa0c8" rx="69" ry="38"/><circle r="1" fill="#fae9d5" transform="matrix(.57505 -32.9445 4.39316 .07668 160.4 149.2)"/><path fill="#cecdbe" d="M177 56h18v53h-18z"/><ellipse cx="61" cy="117" fill="#262c36" rx="33" ry="17"/><circle r="1" fill="#7990a9" transform="matrix(-4.97146 8.37418 -50.4581 -29.95525 247.4 138.6)"/><path fill="#e3dccf" d="M110 89h7v49h-7z"/><path fill="#0e1b01" d="M89 65.3l12.7-26L125 50.7l-12.7 26z"/><ellipse cx="55" cy="78" fill="#9b8d80" rx="36" ry="17"/><ellipse cx="73" cy="169" fill="#a89076" rx="27" ry="37"/><circle r="1" fill="#25362a" transform="matrix(-17.79033 -9.73395 6.84125 -12.50347 186.3 127.6)"/><path fill="#cfbda1" d="M-16 170.2v-15.4l44.4-51.3-1.9 35.3z"/><path fill="#2f201f" d="M105 185l26.6-2-23-44.7-15.1-12.2z"/><path fill="#3a2c15" d="M123.5 105.4l9-16.8 30 16-9 16.8z"/><ellipse cx="159" cy="53" fill="#efefda" rx="16" ry="32"/><path fill="#453b14" d="M47 51h23v18H47z"/><ellipse cx="243" cy="95" fill="#2f2515" rx="26" ry="11"/><path fill="#cad8e8" d="M11 34l-21-18 57-2z"/><path fill="#fffdd3" d="M59 42h28v10H59z"/><path fill="#a6a7b0" d="M212.8 172.2l31.7 12.8-107.6-73.3 55.6 44.5z"/><path fill="#34371f" d="M132.7 130.4l25 28.7-14.4 12.5-25-28.7z"/><path fill="#51585e" d="M178 46h78v13h-78z"/><path fill="#373d3b" d="M126.1 28l3.9 6.3-32.5 72.4 46.5-84z"/><path fill="#434727" d="M185 142l47 32 7-47z"/><circle r="1" fill="#b0a895" transform="matrix(16.69087 24.10468 -4.6977 3.25284 127.6 116)"/><ellipse cx="155" cy="30" fill="#5d543f" rx="25" ry="2"/><path fill="#164fb6" d="M79.9 109.8L83.4 93l14.7 3.1-3.5 16.7z"/><path fill="#3e4018" d="M162 133l7 26 52 23z"/><path fill="#202222" d="M69 118.8L89.3 185 72.2 99.5l-18-6.4z"/><path fill="#2f2f38" d="M-10.6 145.5l1.9-4.2-5.8-1 67-67z"/><circle r="1" fill="#867b69" transform="rotate(-157.6 32.2 50.9) scale(19.08199 11.55582)"/><path fill="#4d0013" d="M-10.6 92.2l14.5.7 7.9.8 4.6-16.5z"/><circle r="1" fill="#a99b85" transform="matrix(42.75957 -1.79216 .33103 7.89813 227.9 64)"/><path fill="#9baed2" d="M86 68l-10-1-2 36z"/><path fill="#b1b5c1" d="M98.3 106.2l.8-.7 92.6 110.3-.8.7z"/><path fill="#8cabbd" d="M204 129l35-15-14 18z"/><circle r="1" fill="#3c342f" transform="matrix(-5.0569 -1.26178 8.11744 -32.53257 41.4 143.3)"/><path fill="#d9d9cc" d="M144 22h8v67h-8z"/><path fill="#ad9c89" d="M154.3 110.9l8.6 14.6 62.5-99.7L187 87z"/><path fill="#708cad" d="M262 19l-140 3 95-32z"/><path fill="#5e5d1e" d="M-12.7 65.5l104.2-7.7-44.3-4-52.5-25.3z"/><path fill="#a2abb1" d="M21 21h108v20H21z"/><path fill="#a38768" d="M10 137l27 7-15 40z"/><path fill="#899cb0" d="M177 18h62v31h-62z"/><path fill="#59606d" d="M127 24h17v69h-17z"/><path fill="#bec0c0" d="M194.9 185l-24.6-10.8 1.4-7.8-47.2-47z"/><path fill="#99b1b9" d="M237.3 146.5l2-10.9 33.4 6-2 10.8z"/><path fill="#00113d" d="M238 114.2l20.9 7.1-3 8.5-20.8-7.1z"/><path fill="#53616f" d="M188 95l-14-14-18 11z"/><path fill="#dfe2e4" d="M180.3 98.1l-.6 1.6 2.2 7.7 17.9-8.8z"/><path fill="#625630" d="M245 84l-30 9-31-19z"/><ellipse cx="19" cy="5" fill="#7a9fd0" rx="67" ry="11"/><circle r="1" fill="#5a6a81" transform="matrix(-.4461 3.2479 -64.57672 -8.86958 226 113)"/><path fill="#111213" d="M99 81l6 7 11-25z"/><path fill="#988e8c" d="M133.1 90.8l-53.5-25 1.3-2.6 53.5 25z"/><path fill="#a38c77" d="M38.6 132.6l67.1 48-14.1-47-4.8 17.1z"/><path fill="#b0b5bd" d="M178 230.5l-.8.5L94 107.5l.9-.5z"/><ellipse cx="193" cy="84" fill="#bbbeb7" rx="3" ry="26"/><path fill="#464849" d="M98 94h13v52H98z"/><path fill="#353435" d="M62 126h4v44h-4z"/><path fill="#6b6937" d="M61.6 65.2l67.1-20.5-1.1-3.3-27.8-.6z"/><path fill="#2a5071" d="M179.2 108.8l-9.1 4.6 38.7 20.5 2.6-14.6z"/><circle r="1" fill="#393638" transform="rotate(-142.7 63.3 68.4) scale(33.99667 1.60389)"/><path fill="#717067" d="M190.5 82.8l12.2-49.5 11.4 33.8L167.4 78z"/><ellipse cx="49" cy="33" fill="#a1aab5" rx="21" ry="18"/><path fill="#fffffc" d="M158 135.2l5.9.7-1.8 15-6-.8z"/><path fill="#dcdac7" d="M200.3 26.2l-33.9-4.9L176.9 79l.1-54z"/><path fill="#837a6d" d="M17 66h61v13H17z"/><ellipse cx="220" cy="52" fill="#293845" rx="43" ry="2"/><path fill="#ada79b" d="M139.8 110.3l-2.3 9.7-27.3-6.3 2.3-9.7z"/><circle r="1" fill="#97999c" transform="rotate(-160.9 77 32.9) scale(85.80922 1)"/><path fill="#dcd8d1" d="M106.6-2.3l31 .6-.2 6-31-.6z"/><path fill="#e1d8cb" d="M71.8 58.4l4 .7 8.3-20.3-6.5 11.5z"/><path fill="#b3a690" d="M36.6 99.3l43.9-51.9-50.3 51.5 7 25.8z"/><path fill="#5e5c55" d="M61 65.8l-37.2 36.9 31.4-60.9 5.2 50.3z"/><path fill="#2c3218" d="M132 138l22 30-1-17z"/><path fill="#90837c" d="M117.9 80.4l79.4 16.9-91.7-14.1 22.7 31.6z"/><path fill="#fffff7" d="M157 159h5v11h-5z"/><path fill="#433c3a" d="M115 161.6l-72.9-40.1 26.6 10.1L114 155z"/><path fill="#20251c" d="M86 55h29v13H86z"/><path fill="#7092b9" d="M140.6 5.7L163.1-16l-1.5 41.2-51-14.5z"/><path fill="#9aa2ab" d="M54 118l9-9-11-1z"/><path fill="#b39f84" d="M50 146l-2 39 16-24z"/><path fill="#fff5de" d="M156 124l10-9-4 11z"/><path fill="#232a31" d="M87 115L62 93l-10 43z"/><path fill="#dbd8cd" d="M111 91h4v46h-4z"/><path fill="#7a8284" d="M177 30h5v40h-5z"/><path fill="#6c5241" d="M126.3 86.9l-27.2 16.2 26.5-7.2 42.5 8.9z"/><path fill="#3b2238" d="M4.4 94.8L-16 60.2l39.3 17.6L-16 76z"/><path fill="#5a5623" d="M34.3 44l-10.4-5.8-11.8-3.6 15.7 32z"/><ellipse cx="159" cy="30" fill="#423c2f" rx="19" ry="1"/><path fill="#dd496a" d="M-12.4 83.4l-.2-6 25-.8.2 6z"/><path fill="#676641" d="M151 140l-24-20 36 11z"/><path fill="#706d6d" d="M-16 110.6l.7 27.4 58.5-55.1-6.6-3.2z"/><path fill="#4d5258" d="M250 137.3l-32-14.4 3.8-23-16.7 9.1z"/></g></g></svg>