<svg xmlns="http://www.w3.org/2000/svg" viewBox="0 0 1800 1200"><defs/><filter id="a"><feGaussianBlur stdDeviation="12"/></filter><rect width="100%" height="100%" fill="#343f4c"/><g filter="url(#a)"><g fill-opacity=".5" transform="translate(3.5 3.5) scale(7.03125)"><circle r="1" fill="#d1d2d1" transform="rotate(94.4 24.2 92.8) scale(139.15964 178.99706)"/><circle r="1" fill="#fff" transform="rotate(-5.3 207 -1216) scale(214.3068 31.59008)"/><circle r="1" fill="#3c3532" transform="matrix(1.95057 39.02184 -181.31807 9.06347 163.7 77.6)"/><circle r="1" fill="#0f2734" transform="matrix(.53499 13.70932 -36.00965 1.40522 129.6 139.9)"/><ellipse cx="44" fill="#e2e7f1" rx="142" ry="50"/><ellipse cx="217" cy="9" fill="#d2d9e2" rx="254" ry="26"/><ellipse cx="244" cy="101" fill="#393637" rx="103" ry="13"/><circle r="1" fill="#90a5b4" transform="matrix(-71.50592 13.1678 -4.0392 -21.93428 33.3 139.3)"/><ellipse cx="9" cy="104" fill="#464140" rx="107" ry="10"/><path fill="#444850" d="M142 37h35v72h-35z"/><path fill="#7d7b7c" d="M147 101L1 97l132-39z"/><ellipse cx="178" cy="159" fill="#5f7c8e" rx="102" ry="12"/><path fill="#192828" d="M86 143h77v6H86z"/><circle r="1" fill="#918881" transform="rotate(-32 228.8 -315.2) scale(22.88775 8.62089)"/><ellipse cx="226" cy="90" fill="#a4b0c3" rx="3" ry="15"/><path fill="#686160" d="M45.1 67.5l-66.7 5.9-1.5-17 66.7-5.8z"/><path fill="#777f85" d="M84 110l95 2-24 20z"/><path fill="#5d5251" d="M84 127h13v26H84z"/><path fill="#dce7ee" d="M217 30l45-6 8 15z"/><circle r="1" fill="#53504f" transform="matrix(-37.4554 -32.90852 12.93581 -14.72311 255 69.4)"/><path fill="#92a3b0" d="M11 115h126v12H11z"/><path fill="#7f99aa" d="M179 156l-16-43 108 3z"/><path fill="#575b5f" d="M142.7 132.6l24.5-4-5.4 30.9-8.1-80z"/><path fill="#392f32" d="M201 79h19v32h-19z"/><path fill="#5d6167" d="M141.8 21.2L138 70.9l78.4-34.5-70.4 1.2z"/><path fill="#d7d5d3" d="M97 135h5v9h-5z"/><path fill="#96938c" d="M135.4 88.9l-8.9 2.7-4.4-6.4 7.1-36.3z"/><path fill="#292f38" d="M237 80h15v31h-15z"/><path fill="#716e6d" d="M104 43h29v20h-29z"/><ellipse cx="19" cy="107" fill="#3f3f43" rx="121" ry="4"/><path fill="#545352" d="M105.3 40.2l7.1 54 66.9 21.9L94 77.8z"/><path fill="#92918b" d="M212.7 62.5l15.5 14.7-30.4-.4 34-55.4z"/><ellipse cx="64" cy="168" fill="#788d9c" rx="74" ry="19"/><path fill="#2c1c16" d="M104 124h5v9h-5z"/><path fill="#908a91" d="M36.3 84.6l-9 1.2-11.7 15.8 8.6 2.6z"/><path fill="#97a6af" d="M75 130.4l-91 11.7 1.7-30.6 34.5 1.3z"/><path fill="#a29f95" d="M93 64L78 79l14 2z"/><ellipse cx="8" cy="43" fill="#d6d6d8" rx="15" ry="10"/><path fill="#4d5057" d="M106.2 53.6L35.4 88.7l28.3-5.5 8.3-.1z"/><path fill="#7e7b75" d="M193 46l-13 30-20 10z"/><path fill="#6c6a6c" d="M84 49L-16 90l8-37z"/><path fill="#56595b" d="M213 34h20v33h-20z"/><ellipse cx="131" cy="87" fill="#a4a29d" rx="11" ry="4"/><path fill="#747374" d="M98.6 49.2l-7.7-2.9-26.3 5-13.4 30.1z"/><path fill="#595c62" d="M202.9 75.4l-38.7-39.7-10.5 1.1-17.5 2.3z"/><path fill="#7e7670" d="M116 111h42v8h-42z"/><path fill="#484a4e" d="M142 57h30v54h-30z"/><path fill="#384048" d="M146 117h12v9h-12z"/><path fill="#879aa7" d="M160 143l13-24 46 1z"/><path fill="#665a53" d="M207.3 88.5l-71.7 8.7 34.2 3.3 33.8 8z"/><path fill="#828d95" d="M149 112h5v22h-5z"/><path fill="#686673" d="M222 76h25v10h-25z"/><path fill="#3d434a" d="M206.3 49.6L193.4 71l-7.7-4.6L198.6 45z"/><path fill="#cbd2da" d="M36-5l158 41 51-52z"/><path fill="#061021" d="M140 130.2l-23.9 2.6v-1l23.8-2.6z"/><path fill="#4d4949" d="M62.2 112.5L36 92.8l65.6 23.8-36.3-29.2z"/><path fill="#0a2123" d="M107 146l-4-5-11 4z"/><path fill="#98969e" d="M88 91h13v7H88z"/><path fill="#313f47" d="M166 131l-8 10-17-8z"/><path fill="#536570" d="M135 148h25v10h-25z"/><ellipse cx="233" cy="112" fill="#8f785e" rx="26" ry="2"/><path fill="#424244" d="M0 93h19v19H0z"/><path fill="#53524e" d="M125 86l-28 19 9-21z"/><path fill="#7a7c80" d="M134.7 121.8l-13-50.3 5.9 66.6-11.6-25.3z"/><circle r="1" fill="#becad4" transform="matrix(-13.8816 -16.42195 16.05963 -13.57533 247.5 16.6)"/><path fill="#8e8f96" d="M55 82l-3 12 22-10z"/><ellipse cx="47" cy="44" fill="#d0d3d6" rx="39" ry="7"/><ellipse cx="201" cy="113" fill="#3e4345" rx="54" ry="1"/><path fill="#2c0e08" d="M86 130h3v5h-3z"/><path fill="#8d9aa5" d="M93.4 143.2l-4.2-27.5 26.5.2-30.6 23.4z"/><path fill="#bbb8b3" d="M135 115h3l2-8z"/><path fill="#595558" d="M43 113L27 93l60-2z"/><circle r="1" fill="#748c9a" transform="matrix(60.81396 -16.52279 3.03272 11.16226 253.3 136.5)"/><path fill="#7b8895" d="M221 83h7v23h-7z"/><path fill="#d2d5da" d="M143 0h48v36h-48z"/><path fill="#5a5d61" d="M131 66h17v17h-17z"/><path fill="#31363c" d="M65 113h61v1H65z"/><path fill="#7d93a0" d="M111 124h5v10h-5z"/><path fill="#7c7670" d="M223 38.8l-42 42.8-6.6.9 16.1 14.7z"/><path fill="#7f7c76" d="M139.7 40.7L102 88.6 135.7 74l-24.6-17.1z"/><path fill="#d9d9dd" d="M19 12h83v35H19z"/><circle r="1" fill="#647881" transform="matrix(.5269 7.53502 -33.0241 2.30927 228 169)"/><path fill="#140000" d="M120 126h3v4h-3z"/><path fill="#949fb0" d="M70 86h4v9h-4z"/><path fill="#606266" d="M217.8 34.1L84.4 49.8l84.6-14-10.9 29.1z"/><path fill="#53545d" d="M46.8 78.5L-16 98.8l82.5-49.3-2 11.9z"/><path fill="#3c4149" d="M109.1 74l-4.7-1.7L109 60l4.7 1.7z"/><path fill="#55514b" d="M201 62l-8 19-3-7z"/><circle r="1" fill="#28252b" transform="matrix(1.69349 -.46011 1.33342 4.9078 109.2 132)"/><path fill="#6b696d" d="M31.2 111.6L46.6 41l-15.9 63.3-31.8-9.8z"/><circle cx="152" cy="96" r="3" fill="#9c8f8b"/><path fill="#212c35" d="M224 105l-14 2 5-22z"/><path fill="#525d65" d="M143.9 22.3L141 32l-1-.2 3-9.8z"/><path fill="#7b7b80" d="M120 108l23-13-30 1z"/><path fill="#3a3a3a" d="M154 89l10 13-3 13z"/><ellipse cx="141" cy="60" fill="#8f99a0" rx="1" ry="33"/><path fill="#645958" d="M80.4 147.7l11.4-15.2-2.2-6.2-2.3-1.2z"/><path fill="#3d4753" d="M185 46l-18 30 3-29z"/><path fill="#5d5c5e" d="M219 89l9-55 23 4z"/><path fill="#9a968f" d="M208 61l1 10-20 15z"/></g></g></svg>