<svg xmlns="http://www.w3.org/2000/svg" viewBox="0 0 1800 1013"><defs/><filter id="prefix__a"><feGaussianBlur stdDeviation="12"/></filter><rect width="100%" height="100%" fill="#59464a"/><g filter="url(#prefix__a)"><g transform="translate(3.5 3.5) scale(7.03125)"><circle r="1" fill="#d1ffff" fill-opacity=".5" transform="matrix(237.45391 -8.29207 2.50546 71.74696 108.4 49.7)"/><circle r="1" fill="#86a5d8" fill-opacity=".5" transform="rotate(-5.4 629.5 -1317.7) scale(204.00215 120.43852)"/><circle r="1" fill="#305987" fill-opacity=".5" transform="matrix(-.63524 -27.73696 169.63672 -3.88508 114 132)"/><circle r="1" fill="#b0bdcf" fill-opacity=".5" transform="rotate(87.7 37.1 76.2) scale(46.30936 138.76078)"/><path fill="#281d0f" fill-opacity=".5" d="M113 115h69v14h-69z"/><ellipse cx="224" cy="107" fill="#818ba7" fill-opacity=".5" rx="231" ry="9"/><path fill="#211c26" fill-opacity=".5" d="M128.5 128.4l-12.3-1.7-9-18.3 34 17.8z"/><path fill="#d5cdc7" fill-opacity=".5" d="M144.9 103l4.2 11.8 16 1-23.4-15.4z"/><path fill="#2d3e46" fill-opacity=".5" d="M174.1 103.5l-4.3 25.1-8.1-10.8.5-13.3z"/><path fill="#492811" fill-opacity=".5" d="M202.9 111.7l-6.5 18.2-19.7-1.8 28.9-9.2z"/><circle r="1" fill="#4a75a9" fill-opacity=".5" transform="rotate(9.6 -787.3 713) scale(113.0457 15.52221)"/><path fill="#76819b" fill-opacity=".5" d="M133 92h15v30h-15z"/><circle r="1" fill="#9ba8bf" fill-opacity=".5" transform="matrix(-99.06931 56.2792 -12.99108 -22.86843 236.9 44.2)"/><path fill="#9da6bd" fill-opacity=".5" d="M198 73L68 110l-84-43z"/><path fill="#7689b0" fill-opacity=".5" d="M0 105h108v12H0z"/><path fill="#20222e" fill-opacity=".5" d="M127.8 111.9l-21 2.6 29.8 11.1-20.5 5.8z"/><path fill="#5f80ae" fill-opacity=".5" d="M205 104h49v20h-49z"/><circle r="1" fill="#3e699b" fill-opacity=".5" transform="matrix(-59.88647 8.62977 -1.38308 -9.59789 223.4 134)"/><path fill="#381c14" fill-opacity=".5" d="M198 126.6v3l-64-2.2v-3z"/><circle cx="155" cy="112" r="4" fill="#f8eee2" fill-opacity=".5"/><path fill="#587aa9" fill-opacity=".5" d="M59 120h58v11H59z"/><path fill="#6d635a" fill-opacity=".5" d="M174.6 121.3l-.2 4-51-2.6.2-4z"/><path fill="#c9ad8e" fill-opacity=".5" d="M179 125l13-4h-14z"/><circle r="1" fill="#a4b6cd" fill-opacity=".5" transform="matrix(-69.01239 19.3985 -9.41193 -33.48402 105.7 23.8)"/><path fill="#244e69" fill-opacity=".5" d="M165.8 111.5l31.7 22.5-20.2-14.3-34.6 1.8z"/><path fill="#8a98b3" fill-opacity=".5" d="M141.5 118.7l-2.6-48.1 44.7 50.6-19.3-14.7z"/><path fill="#3a464e" fill-opacity=".5" d="M135 95h2v26h-2z"/><path fill="#2a1f1e" fill-opacity=".5" d="M166.1 116.2l-5-.4.8-8 5 .4z"/><circle r="1" fill="#8c97b2" fill-opacity=".5" transform="matrix(40.51886 -11.30337 3.14126 11.2604 228 94)"/><circle r="1" fill="#6780a3" fill-opacity=".5" transform="matrix(-1.4399 8.60447 -39.32638 -6.58098 5.4 112.2)"/><path fill="#9badc0" fill-opacity=".5" d="M28.2-11.4l1.6 94-52 .8-1.6-94z"/><path fill="#5a4e4d" fill-opacity=".5" d="M208 119l-20 5 18-12z"/><path fill="#95acc5" fill-opacity=".5" d="M272.8 40.5l-38.1 22-37.5-65 38.1-22z"/><path fill="#463f3e" fill-opacity=".5" d="M170.8 128.8l14.8-12.1-4.3-4.5.8 3.9z"/><path fill="#3a5e8c" fill-opacity=".5" d="M115 129h141v5H115z"/><path fill="#8b99b5" fill-opacity=".5" d="M0 97h129v11H0z"/><path fill="#005cac" fill-opacity=".5" d="M149.6 121.9l-3.4-5 4.2-2.8 3.4 5z"/><circle cx="172" cy="103" r="3" fill="#494854" fill-opacity=".5"/><ellipse cx="255" cy="143" fill="#204878" fill-opacity=".5" rx="29" ry="3"/><ellipse cx="130" cy="143" fill="#5879a6" fill-opacity=".5" rx="78" ry="4"/><ellipse cx="26" cy="137" fill="#436793" fill-opacity=".5" rx="82" ry="7"/><path fill="#8a776a" fill-opacity=".5" d="M127.8 119.2l28.6 4.6-.2 1-28.6-4.6z"/><path fill="#92a0b9" fill-opacity=".5" d="M111 73l51 29 70-8z"/><path fill="#000811" fill-opacity=".5" d="M126 120l-10-2-8-8z"/><path fill="#7d8fb1" fill-opacity=".5" d="M16 105h94v6H16z"/><path fill="#4a6d9c" fill-opacity=".5" d="M176.1 133.2l-27.4-5.9-14.7 10 67.8 6.3z"/><path fill="#7384a2" fill-opacity=".5" d="M225.6 100l-5.1 11.8-20.8 14.7 1.3-5.3z"/><path fill="#35333b" fill-opacity=".5" d="M177.9 130.4l-50.6-8.8.4-8.6-12.9 10.5z"/><circle r="1" fill="#597aa5" fill-opacity=".5" transform="matrix(.01091 1.10582 -109.6201 1.08186 59.9 143)"/><path fill="#111415" fill-opacity=".5" d="M195 123l2 4-10-3z"/><path fill="#63779c" fill-opacity=".5" d="M116.2 106.5l32.6 5.1-1 6-32.6-5.2z"/><circle r="1" fill="#a4b2c5" fill-opacity=".5" transform="matrix(-38.97862 2.11608 -1.17673 -21.67554 57.3 62.3)"/><path fill="#274263" fill-opacity=".5" d="M111 117l7 8 7-3z"/><path fill="#b6a180" fill-opacity=".5" d="M186 125.2l-9.8 1.6-.3-2 9.9-1.6z"/><path fill="#2a496e" fill-opacity=".5" d="M0 133h21v2H0z"/><circle r="1" fill="#9fb3cb" fill-opacity=".5" transform="matrix(-14.28616 28.8384 -42.86712 -21.23582 175.6 23.7)"/><circle r="1" fill="#082942" fill-opacity=".5" transform="matrix(.03141 .9995 -8.37952 .26334 155.7 119.9)"/><path fill="#95a0b5" fill-opacity=".5" d="M-16 67l32.1 16.5 39.7 19.2-71.8-6.8z"/><path fill="#5c3515" fill-opacity=".5" d="M134.7 118h-1l-.4-8h1z"/><ellipse cx="76" cy="121" fill="#6180ad" fill-opacity=".5" rx="37" ry="3"/><circle cx="150" cy="111" r="4" fill="#d1ccc5" fill-opacity=".5"/><path fill="#4f5f69" fill-opacity=".5" d="M137 91v9l-3-3z"/><path fill="#6c80a4" fill-opacity=".5" d="M151 111l-10 3v-9z"/><circle r="1" fill="#0f7bbf" fill-opacity=".5" transform="matrix(3.51415 2.30333 -.6365 .9711 152 117.3)"/><path fill="#127ba7" fill-opacity=".5" d="M174.2 119.6l-8.7-2.2.3-1 8.7 2.2z"/><ellipse cx="199" cy="121" fill="#665143" fill-opacity=".5" rx="2" ry="6"/><ellipse cx="234" cy="119" fill="#426a9a" fill-opacity=".5" rx="29" ry="2"/><path fill="#5a7aa6" fill-opacity=".5" d="M43 137l26 11-10-13z"/><path fill="#0a0003" fill-opacity=".5" d="M117 126h15v2h-15z"/><path fill="#8a9bb8" fill-opacity=".5" d="M142.2 118.3l1.6-20.7-64.1 12 49.6-26.4z"/><circle r="1" fill="#9ea5a4" fill-opacity=".5" transform="matrix(-1.96095 -1.45633 1.86976 -2.51764 175.4 113)"/><path fill="#24414c" fill-opacity=".5" d="M172 105h1v10h-1z"/><ellipse cx="159" cy="93" fill="#94a7bf" fill-opacity=".5" rx="1" ry="28"/><path fill="#9cacc3" fill-opacity=".5" d="M112 60h122v18H112z"/><path fill="#97adc4" fill-opacity=".5" d="M-34.3 45.5l56-69.2L44.3-5.5l-56 69.2z"/><path fill="#7f91ae" fill-opacity=".5" d="M233 105l29-27-8 29z"/><path fill="#94a2bb" fill-opacity=".5" d="M98 80l92 24 73-33z"/><ellipse cx="96" cy="135" fill="#3d5f8d" fill-opacity=".5" rx="17" ry="4"/><path fill="#4d709d" fill-opacity=".5" d="M264.6 139.9l-58.5-4.6-39.2-1L271 143z"/><path fill="none" stroke="#292b30" stroke-opacity=".5" stroke-width=".5" d="M165.4 103.9q-.7 20.1-7.1 22"/><path fill="#f3f5f0" fill-opacity=".5" d="M160.1 111l.3.9L150 115l-.3-1z"/><path fill="#1f1f1d" fill-opacity=".5" d="M161 125h13v4h-13z"/><circle cx="180" cy="119" r="2" fill="#101f29" fill-opacity=".5"/><path fill="#585253" fill-opacity=".5" d="M181.9 121l.1 1-5.9 1-.1-1z"/><path fill="#3e7a96" fill-opacity=".5" d="M166 118h2v5h-2z"/><circle cx="151" cy="116" r="2" fill="#026cb5" fill-opacity=".5"/><path fill="#8697b5" fill-opacity=".5" d="M143 94h21v14h-21z"/><path fill="#5e7ca7" fill-opacity=".5" d="M202 110l-20 12h9z"/><path fill="#4c6e9a" fill-opacity=".5" d="M34 125h83v9H34z"/><path fill="#32425f" fill-opacity=".5" d="M161 129h30v1h-30z"/><path fill="#0d131e" fill-opacity=".5" d="M163 109h4v3h-4z"/><circle cx="201" cy="122" r="2" fill="#a9856a" fill-opacity=".5"/><ellipse cx="157" cy="120" fill="#030b19" fill-opacity=".5" rx="1" ry="3"/><path fill="#3e312c" fill-opacity=".5" d="M134 124h26v2h-26z"/><path fill="#274054" fill-opacity=".5" d="M128.8 113h-1l-.6-6h1z"/><path fill="#7289af" fill-opacity=".5" d="M26 109h83v7H26z"/><path fill="#4e4a46" fill-opacity=".5" d="M184.5 128.3l-.4 1-18.6-7.6.4-1z"/><path fill="#8e9bb6" fill-opacity=".5" d="M174 91h16v13h-16z"/><ellipse cx="199" cy="119" fill="#2e374e" fill-opacity=".5" rx="2" ry="3"/><path fill="#406089" fill-opacity=".5" d="M230 123h26v12h-26z"/></g></g></svg>