<svg xmlns="http://www.w3.org/2000/svg" viewBox="0 0 1200 1800"><defs/><filter id="a"><feGaussianBlur stdDeviation="12"/></filter><rect width="100%" height="100%" fill="#273a51"/><g filter="url(#a)"><g fill-opacity=".5" transform="translate(3.5 3.5) scale(7.03125)"><circle cx="95" cy="117" r="160" fill="#d5d2bc"/><circle cx="84" cy="150" r="55" fill="#1d1d1e"/><circle r="1" fill="#d3eaf7" transform="matrix(4.84266 -42.18277 148.71352 17.07258 127 12)"/><circle r="1" fill="#1b0300" transform="matrix(14.79584 -20.44383 15.69922 11.36202 95.8 71.7)"/><circle r="1" fill="#d4cfc6" transform="rotate(4.5 -3087.8 1092.4) scale(25.75001 50.64532)"/><circle r="1" fill="#12120b" transform="matrix(36.29014 -6.07289 3.17997 19.00273 49.4 136.8)"/><circle r="1" fill="#b2ccdb" transform="rotate(-37.3 184.2 -190.7) scale(44.7574 22.65151)"/><path fill="#b8c9cf" d="M72.3 161.2l5.1-20.4 24.3 6-5.1 20.4z"/><circle r="1" fill="#b6b8a6" transform="matrix(-19.76119 15.10695 -38.6219 -50.52077 5.3 184.2)"/><circle r="1" fill="#001038" transform="matrix(12.6395 11.58197 -11.12654 12.14249 120.6 181.4)"/><ellipse cx="39" cy="35" fill="#9dafb4" rx="43" ry="35"/><path fill="#2e2a23" d="M38 127h31v81H38z"/><circle r="1" fill="#5d656a" transform="matrix(-11.46976 25.90326 -100.10892 -44.32743 157.3 143.2)"/><circle r="1" fill="#c0beb7" transform="matrix(-2.87246 11.1875 -97.93745 -25.14606 130.3 243.3)"/><path fill="#666156" d="M146 243l5-44-132-47z"/><path fill="#b8bec2" d="M154 183h16v63h-16z"/><path fill="#83a3bb" d="M96.6 140.6l12.9-29.5 27.2 20.6 19.9-18.2z"/><ellipse cx="39" cy="250" fill="#343327" rx="9" ry="18"/><path fill="#495300" d="M-3 262.3l11-24.7 9 4.1-11 24.7z"/><ellipse cx="166" cy="154" fill="#283a47" rx="9" ry="27"/><ellipse cx="134" cy="13" fill="#c5d3db" rx="56" ry="17"/><path fill="#767a75" d="M77 97l-52 40-37-45z"/><path fill="#b2b6b1" d="M-2.7 180.5l1.5-76.3 44.9 118.3-11.6-63.9z"/><path fill="#3b2f1e" d="M72 57h46v24H72z"/><ellipse cx="62" cy="137" fill="#151a18" rx="16" ry="28"/><path fill="#21313f" d="M91.4 189.8l9.7-17.5-10.9-31.4 75 61.6z"/><path fill="#adbfc4" d="M185 54l-51.6 6.6-28.6-14.3 18.6 32.1z"/><circle r="1" fill="#f1e1c8" transform="matrix(-7.67402 15.12632 -3.38104 -1.7153 18.7 250.3)"/><path fill="#ffe9bb" d="M168.1 78.8l3 .6-13.2 67.8-3-.6z"/><path fill="#797b77" d="M94.3 231.9l-18-67.6 15.4-4.2 18 67.6z"/><path fill="#172b3a" d="M9.5 114.4l-5.3.9-8.1-17 15.6-2.8z"/><path fill="#5e5b50" d="M19.3 121.7l-2 41.3-5.1-1.4-8.8-10.9z"/><path fill="#b2c5d7" d="M133 167h13v17h-13z"/><circle cx="99" cy="116" r="7"/><path fill="#b7c6c6" d="M55 82L39 95 4 85z"/><path fill="#2a2e2d" d="M134.9 225.7l5.6-15.1 6.8-1-1.4 25.5z"/><path fill="#9ba8aa" d="M20.3 53.3l60.3 20.6-39-62.7L-16-4.1z"/><path fill="#a2b0af" d="M29 165l24-8-1 9z"/><path fill="#565247" d="M185 240l-32.1-48.8 15.5-68.3-24.5 72.7z"/><path fill="#112843" d="M124.8 158.9l30.7-4.8-51.1 38.2-24.1-.2z"/><path fill="#cbcfcc" d="M91 190l-22 40-33-3z"/><path fill="#848787" d="M81 85.6l14.4 44.7-12.3 4-14.5-44.6z"/><path fill="#a4a49e" d="M90 201l9-9 34 11z"/><path fill="#3e2b1c" d="M109.2 100.6l28.2 30.6L94.9 99 71.3 74.6z"/><ellipse cx="18" cy="12" fill="#e3bd8c" rx="4" ry="73"/><path fill="#7b7e72" d="M123.6 258L15 226.8l1.4-4.8L125 253.2z"/><path fill="#b8c6cb" d="M83.1 140.4l16.8 16.8-6.6 3.2-16.1-4.6z"/><circle r="1" fill="#8198a6" transform="rotate(91.4 19.5 108.8) scale(12.29744 29.62413)"/><path fill="#343635" d="M115.7 81.6l-69.1-9.9-10.2-3.9 82.1 4.9z"/><ellipse cx="16" cy="103" fill="#5b4d36" rx="2" ry="54"/><path fill="#6b5948" d="M34.7 159.4l7.7 11.1 42.9 23-22.7 13.7z"/><path fill="#afb4b4" d="M20.7 115.5l20.3-26 6.3 5-20.3 26z"/><path fill="#001221" d="M0 75h12v5H0z"/><path fill="#fde3c1" d="M-2 115l9 56-23-3z"/><ellipse cx="95" cy="36" fill="#294d68" rx="14" ry="2"/><path fill="#232624" d="M34 162l29 38-24-4z"/><path fill="#1d211d" d="M157 216l11 5-3-10z"/><path fill="#8c8478" d="M149 152l-58-18 32 22z"/><path fill="#acb3b4" d="M150 202l27-2-29 22z"/><path fill="#e0ccac" d="M12 81h2v62h-2z"/><path fill="#52402c" d="M174.7 81.3l3 .8-18.4 68.6-3-.8z"/><circle r="1" fill="#3f4a4e" transform="rotate(88.4 -19 44.3) scale(1 88.25815)"/><path fill="#514c41" d="M92.8 207.2l24.8-4.2-20.8 24.4 5.1-34.2z"/><path fill="#466073" d="M66.5 50.3l-95 3.4v-2l95-3.4z"/><path fill="#17446a" d="M132 121l1-12 25 3z"/><path fill="#7d8469" d="M-13.5 261l-15.7-19.4L13.5 207l15.7 19.4z"/><circle r="1" fill="#817e70" transform="matrix(-69.60919 -44.86006 2.16124 -3.35358 165.5 255.1)"/><path fill="#89a8c1" d="M47 205l-10-11 25 14z"/><path fill="#222e36" d="M139 149l12-15 1 14z"/><path fill="#a8aea9" d="M32.4 160.4l-5.5-9.4-42.9 54.1 51.2-34.7z"/><path fill="#b1c1cc" d="M135 176l-1-14 14 9z"/><path fill="#b8c3bf" d="M31.6 62.2l-21.5 6.3 64.1-1.7 15.7-.2z"/><path fill="#b8bab6" d="M109 224l47 38-111-42z"/><path fill="#9c8f7b" d="M97 177.1l16.1-8.7 19.2-18.8-19 14.9z"/><path fill="#cdd6d5" d="M161.3 59l17 11-10.4-40.4-41.4 22.1z"/><path fill="#bcc2c8" d="M148.2 213.7l13.5 7.9 23.3 3.2-14.7 31.5z"/><circle r="1" fill="#c4b499" transform="rotate(51 -154.8 181.6) scale(1 20.92753)"/><circle r="1" fill="#b3c0c0" transform="matrix(66.93354 -3.97658 .1068 1.7977 28.1 55)"/><circle r="1" fill="#a4a9a0" transform="rotate(7.4 -1484.5 1154) scale(18.83008 2.21619)"/><path fill="#bac5cd" d="M156.6 194.9l.4-20.2 28 22.1-40.9-4.3z"/><path fill="#d6b895" d="M162 111.2l2 .5-18 85-2-.4z"/><circle cx="28" cy="95" r="6" fill="#314c5f"/><path fill="#0f1211" d="M54 151h19v17H54z"/><path fill="#b6b8b5" d="M112.3 264.2l4.9-24L78.8 271l-43-46.8z"/><path fill="#66737d" d="M73 158h25v19H73z"/><ellipse cx="70" cy="103" fill="#7a807d" rx="28" ry="8"/><ellipse cx="15" cy="58" fill="#a09076" rx="4" ry="36"/><ellipse cx="97" cy="214" fill="#c1c1be" rx="23" ry="2"/><ellipse cy="226" fill="#404435" rx="6" ry="9"/><path fill="#aab7ba" d="M109.6 94.3l59.9-.3-51 13.3 5.9 7.9z"/><path fill="#fce8c7" d="M16.9-4l7.9 1.4L21 18l-7.9-1.4z"/><path fill="#14120d" d="M28 138l-13-3 9 17z"/><path fill="#afc7d6" d="M131.5 121.7l26.8-3.3.2 2-26.8 3.2z"/><path fill="#4e493c" d="M136.6 218.5l-51.7 4.4 40.1-7.2-1.2 12.1z"/><path fill="#2f302d" d="M105.2 81.4l18.7 1.3-8.8-22.2-22.6-13.6z"/><circle r="1" fill="#b3a790" transform="matrix(1.39924 -.26509 5.91056 31.1981 24 112.6)"/><path fill="#455100" d="M11.8 271l2.5-30.7-24.2 17.9L26 271z"/><path fill="#536a7f" d="M178.3 70.8l-15 5.7-3.6-9.3 15-5.7z"/><path fill="#496a84" d="M140 83h26v4h-26z"/><path fill="#222523" d="M35.6 162.9l-7.8-14.7 41.8-39.9 13.6 27.8z"/></g></g></svg>