<svg xmlns="http://www.w3.org/2000/svg" viewBox="0 0 1800 1200"><defs/><filter id="a"><feGaussianBlur stdDeviation="12"/></filter><rect width="100%" height="100%" fill="#625d37"/><g filter="url(#a)"><g fill-opacity=".5" transform="translate(3.5 3.5) scale(7.03125)"><circle r="1" fill="#d4e5ff" transform="matrix(-11.85792 -53.04928 105.50442 -23.58303 114.6 120.8)"/><circle r="1" fill="#243d59" transform="matrix(-4.31124 49.3837 -217.21365 -18.96293 165.4 33.6)"/><circle r="1" fill="#d5d3db" transform="rotate(-54.3 149.8 -1.5) scale(67.77328 35.34046)"/><circle r="1" fill="#060b1f" transform="matrix(-14.65859 -1.7857 15.75865 -129.36083 8.4 63.2)"/><circle r="1" fill="#151529" transform="rotate(18.6 -311.3 824.8) scale(24.88516 128.67224)"/><ellipse cx="152" cy="169" fill="#656c7f" rx="46" ry="35"/><circle r="1" fill="#6c6c76" transform="matrix(30.53327 -65.18156 8.80125 4.1228 35.8 100.2)"/><ellipse cx="88" cy="121" fill="#d5d6d8" rx="57" ry="19"/><circle r="1" fill="#616e72" transform="rotate(61.3 16.6 125.1) scale(29.03077 45.39252)"/><circle r="1" fill="#809ab1" transform="matrix(6.15539 31.16876 -22.7494 4.49268 200.7 99)"/><path fill="#212717" d="M174-33l146.5 20.5-6.4 45.6-146.6-20.6z"/><path fill="#5e6469" d="M163.5 150.2l-47.3 9.2 76.1 16.1-45.7-64.7z"/><path fill="#9ba1ac" d="M64 65l-36 42 100-43z"/><path fill="#8c929b" d="M100 96l79 89h-36z"/><path fill="#aab5c2" d="M188.4 156l15.6-40-67.6-26.3 54.9 74.3z"/><path fill="#6f7968" d="M203 132l38-90-8 93z"/><path fill="#2f1016" d="M80 165h15v5H80z"/><path fill="#354750" d="M143 43h39v36h-39z"/><path fill="#6b6d7d" d="M28.6 99.3L63 93.4 25.2 75.7l-8.8 34z"/><ellipse cx="87" cy="111" fill="#d5d7d4" rx="27" ry="20"/><path fill="#080914" d="M47.4 87.3L22.5 109l-2-2.3 25-21.7z"/><path fill="#3e4641" d="M9 0h76v71H9z"/><circle r="1" fill="#353621" transform="rotate(-44.9 227.7 -253.7) scale(29.56237 10.37032)"/><path fill="#c2c2c2" d="M43.5 157.5l-33.1-29.8 17.6-6.5 104.3 24.9z"/><path fill="#acb8c5" d="M202.7 122.9l4-17.6 16.6 3.8-4 17.6z"/><path fill="#eae9e1" d="M52 79h25v9H52z"/><path fill="#768ca6" d="M208.9 88l-79.4-13 6.6-32.5 9.8 52.3z"/><path fill="#9fa2a6" d="M10 160h76v10H10z"/><path fill="#c9cac9" d="M28.4 93.7l7.4-2.1 11.8-13.8-9.2 5.4z"/><path fill="#373420" d="M154 151h13v11h-13z"/><path fill="#222713" d="M246 0h10v70h-10z"/><path fill="#201b23" d="M20.6 107.7l-24.8 61-10.1-50 56.9-9.3z"/><path fill="#3d3a4b" d="M15.8 142.2l5.5 1.7-17 32.4-8.6-7.8z"/><path fill="#5a6546" d="M184.1 164.8l14-36.4 17.8 6.8-14 36.4z"/><path fill="#366799" d="M112 102h44v3h-44z"/><path fill="#6f7985" d="M146 84l-44-23-52 3z"/><path fill="#2d2f1e" d="M141 160l-20-1 12-5z"/><path fill="#1f191f" d="M225 175l-7-24-25 27z"/><ellipse cx="137" cy="98" fill="#a9bdde" rx="23" ry="5"/><ellipse cx="166" cy="69" fill="#858b95" rx="51" ry="2"/><path fill="#4c4747" d="M90 156l-9-3-1 11z"/><path fill="#4c5d53" d="M189 10l39-1-58 58z"/><path fill="#6e706f" d="M125 123l27 29-39-24z"/><path fill="#2c312d" d="M-16 14.3l4.8-21L97.2-16l-1.1 29.6z"/><path fill="#697183" d="M122.4 157.5l-18.4-23-4.2 22.1 28.8 2.5z"/><path fill="#abb1c0" d="M144.9 148.9l9.2 35.4-65.7-32.6 78.1 31.5z"/><path fill="#6b6d6f" d="M155.7 134.1l-7.1-30.8-4.2 43.2 12.7-17.8z"/><path fill="#b4c6e8" d="M149 142h15v5h-15z"/><path fill="#273f5e" d="M76 80h31v2H76z"/><path fill="#b6c5e3" d="M117 144h22v6h-22z"/><path fill="#526f84" d="M174.3 89.5l35.6-13.3-20.1-16.5 49.3 27.5z"/><path fill="#766d6d" d="M59.6 117.3l-18-24 .8-.6 18 24z"/><path fill="#5a6063" d="M102.5 155.2l76.8-8.9 1.8-14.7-16.9 16.7z"/><path fill="#a19da8" d="M9 136h3v34H9z"/><path fill="#536057" d="M33 41v44l59-59z"/><path fill="#d3e7ff" d="M192 75h17v3h-17z"/><path fill="#99b0c2" d="M134 39h2v64h-2z"/><path fill="#111f28" d="M141 59h12v9h-12z"/><path fill="#242828" d="M29 31l-40-17L2 172z"/><path fill="#93908b" d="M11.8 68L9.1 80.7l-3-.7L9 67.3z"/><path fill="#838b89" d="M87 44h19v8H87z"/><path fill="#76804b" d="M242 47l-16 27 27-18z"/><path fill="#30313e" d="M49 83.3l14.7-19.6 8-14.4-53.6 65.5z"/><ellipse cx="57" cy="101" fill="#ebe9e6" rx="25" ry="2"/><path fill="#505b54" d="M96 3h71v40H96z"/><path fill="#f6f4e8" d="M55.5 91.6l-12.9 1.8-.1-1 12.9-1.8z"/><path fill="#324d5a" d="M105 70h52v4h-52z"/><path fill="#293838" d="M212 43h24v22h-24z"/><path fill="#b0b9c8" d="M184 155l-4-30 14 21z"/><circle r="1" fill="#d8d8d5" transform="matrix(-24.0118 9.80582 -3.967 -9.71411 51.3 122.7)"/><ellipse cx="96" cy="58" fill="#404644" rx="29" ry="5"/><path fill="#2e2729" d="M12.6 139.4l-5.9-23.6-22.7 38.6 44.8-31.3z"/><path fill="#2c2526" d="M39 89h36v1H39z"/><path fill="#bdc1c5" d="M114 89l-26 23 8 50z"/><path fill="#6f7f8c" d="M157.9 73.1l-43 33.2 11.6-19.2 29.2 3.9z"/><path fill="#909daa" d="M164.5 79.9l20.3 1.6 40.7 48.7-93.4-42.9z"/><path fill="#342f2e" d="M38 93h20v2H38z"/><path fill="#b8bec8" d="M130 107h11v29h-11z"/><path fill="#b6baca" d="M149.4 158.6l-11.9 1.7-1-7 12-1.6z"/><ellipse cx="234" cy="26" fill="#3d4633" rx="26" ry="10"/><path fill="#7c8da4" d="M198 41h2v33h-2z"/><path fill="#bdb4ae" d="M97.4 157.7l38.5 15.5-24.2-14.6L90.8 180z"/><path fill="#161e17" d="M167 160h17v3h-17z"/><path fill="#747165" d="M45 107l-12 4-10 16z"/><path fill="#bfc1c3" d="M81 82h39v17H81z"/><path fill="#688395" d="M138 87h92v3h-92z"/><path fill="#8ba2c4" d="M155.2 162.6l-20.4 16.7 7 5.7 26-23.7z"/><circle r="1" fill="#b1b4b8" transform="rotate(78.1 -40.4 131.4) scale(5.44935 31.67829)"/><path fill="#abb3b6" d="M184.4 115.8l16.9 24.4-27.3-9.1-27.1-8.6z"/><circle cx="85" cy="74" r="5" fill="#b8c6d9"/><path fill="#5a594b" d="M106.4 166.7l12.3 1.8-8.5-10.9 2.7.7z"/><path fill="#313e3e" d="M134 43l26.8-3.8L162 47l-26.7 3.7z"/><path fill="#354548" d="M20 57l24-6-25 37z"/><ellipse cx="30" cy="160" fill="#bdbcb7" rx="11" ry="39"/><path fill="#d7d0c8" d="M31 102l-5 6 15-3z"/><circle cx="25" cy="72" r="3" fill="#9ca09f"/><path fill="#635e5b" d="M76 169l9-18h9z"/><path fill="#262822" d="M234.2 97l32-16.1-23.1 34-10.4-2.7z"/><path fill="#adacaa" d="M95.6 146.7L25 86.9l21.9-6.3-13.8 13.1z"/><ellipse cx="127" cy="105" fill="#325276" rx="8" ry="2"/></g></g></svg>