<svg xmlns="http://www.w3.org/2000/svg" viewBox="0 0 1800 1350"><defs/><filter id="a"><feGaussianBlur stdDeviation="12"/></filter><rect width="100%" height="100%" fill="#4c3b32"/><g filter="url(#a)"><g fill-opacity=".5" transform="translate(3.5 3.5) scale(7.03125)"><circle r="1" fill="#c9fdff" transform="matrix(-191.68456 40.24698 -14.66891 -69.86373 64.5 19.7)"/><circle r="1" fill="#546a87" transform="matrix(-241.0259 83.2557 -17.7057 -51.25814 72.9 115.1)"/><ellipse cx="42" cy="16" fill="#c3deff" rx="122" ry="44"/><path fill="#1d1b29" d="M158 22h28v124h-28z"/><path fill="#ba976c" d="M12 160l107-10-135 56z"/><circle cx="195" r="31" fill="#c4d6ff"/><circle r="1" fill="#1a110a" transform="matrix(-122.589 50.1402 -7.47904 -18.28569 146.2 163)"/><ellipse cx="122" cy="85" fill="#4b5b74" rx="254" ry="28"/><path fill="#d2d5d1" d="M123.4 101.2l-13.5 33.4-9.3-3.8 13.5-33.4z"/><circle r="1" fill="#b6c3d8" transform="matrix(6.4044 -7.72314 19.7257 16.35751 148.5 43.7)"/><path fill="#cc8864" d="M167.3 157.9l-5.8-10.2h-7.2l8.1 58.2z"/><ellipse cx="245" cy="32" fill="#4e472a" rx="30" ry="22"/><path fill="#7e6b54" d="M264 187l-72-16 79-49z"/><circle cx="170" cy="34" r="14" fill="#3f1700"/><path fill="#29262b" d="M134.5 118.1l52.3-66.5 6.3 22.6 2 73.5z"/><path fill="#bf9f6e" d="M190 125.4l81-27.3-15.9-1.8-58.2 12.3z"/><path fill="#9bb2cd" d="M194 60l26-3-45-48z"/><path fill="#9c775e" d="M128 157.3l-49.8 5.3-2.1-20 49.7-5.2z"/><path fill="#9ab4ce" d="M177.6 54.5l-74.8 1.8L129.5-16l43 82.1z"/><path fill="#1a364b" d="M106 133l-72 22 75-49z"/><circle r="1" fill="#72a6ea" transform="matrix(48.14146 -6.06273 1.81888 14.44292 160 0)"/><ellipse cx="144" cy="174" fill="#0a0905" rx="14" ry="32"/><circle r="1" fill="#bbcbe2" transform="matrix(8.49153 37.09756 -49.92974 11.42878 23.4 18.5)"/><circle r="1" fill="#506478" transform="matrix(-127.13213 37.25593 -6.0537 -20.65762 45.6 101)"/><path fill="#c5cddd" d="M147.1 24.6L247-16l3.1 33.9-25.4-11.1z"/><circle r="1" fill="#a2855a" transform="matrix(10.21191 -9.37382 4.5856 4.99559 140.2 136)"/><circle r="1" fill="#36527e" transform="matrix(-.47556 -22.47192 30.46203 -.64465 220.5 69.5)"/><path fill="#5e3118" d="M171.3 87.4l-14.4-16.5-17 62.3-27.4-3.9z"/><circle r="1" fill="#9b5b51" transform="matrix(2.98116 -.53976 8.5849 47.41545 120.2 191)"/><path fill="#425b7f" d="M182.5 110.7l-21-12.7-18 17.4 5.4 10.7z"/><path fill="#a08967" d="M117 132l-33 27H31z"/><path fill="#03243d" d="M150 114h37v30h-37z"/><circle r="1" fill="#3d1f0c" transform="rotate(4.4 -1247 2525.7) scale(4.2555 25.98868)"/><circle cx="176" cy="42" r="8" fill="#160800"/><circle r="1" fill="#2f435a" transform="matrix(-41.82082 7.97926 -1.9956 -10.45934 15.2 152.5)"/><path fill="#171710" d="M90 164l-18 43-46-15z"/><path fill="#68624c" d="M203.1 39.7l6.1-7.5-6.4 30.4L269.1-16z"/><path fill="#6e91be" d="M174 52.7l-5.2 7-179.3 2.6 53-4.9z"/><path fill="#c8d3d2" d="M119 98l-17 13 27-5z"/><path fill="#8b6d6c" d="M141.2 112.9L165 53.8l-12.9-25.5 24.2 22.3z"/><path fill="#49342f" d="M109.4 140.3l15.3-37.4-2 34.7-24.2 33.7z"/><path fill="#1b2227" d="M222 41l11 14 38 2z"/><path fill="#a09485" d="M-16 165.4v7.5l36.4-11.1 3 19.3z"/><circle r="1" fill="#27231a" transform="rotate(151.2 97.2 95.2) scale(55.69126 15.33267)"/><path fill="#9099b0" d="M231 56h16v6h-16z"/><ellipse cx="124" cy="42" fill="#b1bdc0" rx="35" ry="11"/><path fill="#9aaac3" d="M199 46l13-27-34 33z"/><path fill="#e6eae6" d="M196.6 14.3l17.8-16.8-38.2 18.1-.6 8.3z"/><circle r="1" fill="#68533c" transform="matrix(-16.56772 10.93257 -1.83992 -2.7883 20.9 176.7)"/><ellipse cx="90" cy="120" fill="#2d4457" rx="22" ry="6"/><circle r="1" fill="#656f80" transform="matrix(-50.15922 16.88044 -6.83592 -20.31252 18 90.5)"/><path fill="#4c3c2d" d="M163.6 23.1L161.3 38l-7-1.1 2.4-14.9z"/><path fill="#c97e4d" d="M160.3 81.1l-21.8 32.3-.8-.5 21.8-32.3z"/><ellipse cx="102" cy="182" fill="#1a1209" rx="14" ry="21"/><path fill="#603a27" d="M177 140h9v52h-9z"/><path fill="#b19a77" d="M143 122h7v19h-7z"/><path fill="#361d12" d="M142.1 135.4l-9.5-4.3 38.6-51.2-32.5 34z"/><circle r="1" fill="#98b4d7" transform="matrix(-8.68055 -7.18117 16.18905 -19.5692 169 4.3)"/><path fill="#3b5671" d="M156.8 59.7L112.1 64l20.1 60.4 17.6-31.2z"/><path fill="#876f4a" d="M189.3 115.9l36.8-8 2.5-12.8-27.8 7.7z"/><path fill="#8d9ab3" d="M198 39l42-37-63 21z"/><circle r="1" fill="#3f5164" transform="matrix(-4.66823 -14.03323 61.39017 -20.4218 45.8 130.6)"/><path fill="#767eac" d="M156 112l15 1-11-10z"/><path fill="#29496a" d="M155.7 101.4l-8.1 42.8 18 3.1-6.3-14.8z"/><circle r="1" fill="#604f3e" transform="matrix(-18.51843 8.92193 -5.25458 -10.90646 206.2 175.8)"/><ellipse cx="24" cy="15" fill="#82b0de" rx="23" ry="4"/><path fill="#6987b5" d="M134 49l33 18 6-16z"/><path fill="#191514" d="M188.4 94.1l-11.6-72.5-7.5 14.7 22.2 48.3z"/><path fill="#4b484f" d="M116.2 109.5l15.3 44.9-14.6 6.6 21.1-58.4z"/><path fill="#fff" d="M113 114.8l-6.5-4.7.6-.9 6.4 4.7z"/><circle r="1" fill="#5f2f27" transform="rotate(-105 130 37.4) scale(26.00013 3.05033)"/><circle r="1" fill="#6d6b44" transform="matrix(-.18334 26.26055 -7.15026 -.04992 255 2)"/><path fill="#1a1816" d="M213.3 146.4l-30 36.2 6.9-77.5-28.4 28.6z"/><path fill="#6e8199" d="M230 41l-13 18-16 1z"/><path fill="#5f412a" d="M157 19l5 28 13 5z"/><circle r="1" fill="#a57156" transform="matrix(-2.9931 .36724 -4.23081 -34.48195 162.7 180.9)"/><path fill="#7f7b76" d="M23.3 178l20 6.7-23.7 11-34.5 11.3z"/><circle r="1" fill="#b0b7b6" transform="rotate(-156.8 69.2 46.7) scale(8.42139 2.68881)"/><path fill="#48413d" d="M271 89V64l-50 37z"/><path fill="#3e3e4f" d="M164 69h21v43h-21z"/><path fill="#cda591" d="M102.6 156.7l-2-.5 8.8-35 2 .6z"/><path fill="#659edc" d="M154.8 15.2l-23.9-2.5 2.3-21.9 23.9 2.5z"/><path fill="#9d554c" d="M108.9 160.2l.3-.9 9.8 27.6-6.2-35.4z"/><circle r="1" fill="#343a3e" transform="rotate(54.6 63.8 253.6) scale(1.64482 22.38235)"/><path fill="#36210b" d="M113 121h10v9h-10z"/><path fill="#354d73" d="M197 66h40v33h-40z"/><path fill="#c3cbde" d="M243.8 9.7L155.3-16l8 26.9 53-26.9z"/><path fill="#5d0404" d="M110 159h21v9h-21z"/><path fill="#d7deed" d="M0 4h33v7H0z"/><path fill="#5c5844" d="M240.2 48.8L227.5 5.9l7.6 4.3-26.6 30.1z"/><path fill="#362525" d="M157.6 75l7.5 16.3 5.8-34.2.3 18z"/><path fill="#8ba3c0" d="M198.4 62.7l.9-46.5-14 32.8 4.5 9.5z"/><path fill="#606872" d="M262 42.8l-26.3 3.8-2.5-.5L245 35.7z"/><path fill="#898099" d="M122 146l-15 8 6 6z"/><path fill="#1f170d" d="M161.9 36.9l25.3 3.7-3 7.6-18.1-14z"/><path fill="#b4c2ce" d="M192.9 43.7l-7.3-8.8-10.5-17.3 11.1 2.4z"/><path fill="#354756" d="M64 148l47-60-7 46z"/><path fill="#2e3a4a" d="M41.7 154.8l-54.3 16.7 56.2-24.1 11.6 9.5z"/><path fill="#96b4d2" d="M0 47h84v13H0z"/><path fill="#90a2b9" d="M251.9 9.2l-2.4 7.7-13.4-4.1 2.4-7.7z"/></g></g></svg>