<svg xmlns="http://www.w3.org/2000/svg" viewBox="0 0 4536 3024"><defs/><filter id="a"><feGaussianBlur stdDeviation="12"/></filter><rect width="100%" height="100%" fill="#2f435f"/><g filter="url(#a)"><g fill-opacity=".5" transform="translate(8.9 8.9) scale(17.71875)"><ellipse cx="187" cy="81" fill="#ffe79f" rx="104" ry="59"/><ellipse cx="229" cy="94" fill="#fed8a4" rx="73" ry="40"/><circle r="1" fill="#7f7572" transform="matrix(108.67887 -81.92181 26.34271 34.94669 151.5 48)"/><ellipse cx="128" cy="90" fill="#ffe2ac" rx="23" ry="18"/><circle r="1" fill="#886842" transform="matrix(4.99118 -39.8815 95.11845 11.9041 207 150.6)"/><circle r="1" fill="#3d5068" transform="matrix(54.05368 -29.34875 16.91434 31.15234 95.2 41.7)"/><ellipse cx="167" cy="128" fill="#dfb57b" rx="98" ry="7"/><circle r="1" fill="#545156" transform="rotate(-101.1 129.6 -76.5) scale(14.53079 52.90743)"/><ellipse cx="43" cy="157" fill="#19262c" rx="124" ry="24"/><path fill="#d9e5d5" d="M175 66h81v22h-81z"/><circle r="1" fill="#f6cc96" transform="matrix(-2.04128 -15.93469 9.40205 -1.20443 171.3 28.8)"/><circle r="1" fill="#596069" transform="matrix(6.0235 -19.35673 81.59536 25.39117 52.5 102.8)"/><ellipse cx="177" cy="161" fill="#46474a" rx="85" ry="28"/><path fill="#ebcea0" d="M118.6 87.9l68.1-2.8-112.3 45.4 43.9-9.1z"/><circle r="1" fill="#ecc88b" transform="matrix(40.72928 5.05194 -1.55145 12.50799 199.7 108)"/><ellipse cx="227" cy="60" fill="#a5a195" rx="79" ry="7"/><path fill="#3c5169" d="M42 32l113-48-50 100z"/><path fill="#ffd37d" d="M137 126h66v8h-66z"/><path fill="#e3dabc" d="M171 64h33v27h-33z"/><circle r="1" fill="#35465c" transform="matrix(-26.53777 13.28913 -6.61178 -13.20341 53.6 114.1)"/><ellipse cx="150" cy="116" fill="#6b6162" rx="26" ry="8"/><path fill="#6b6866" d="M279.7 27.5L257.4 57l-27.1-20.5L252.6 7z"/><path fill="#4d4b50" d="M142 58l7 32 9-10z"/><path fill="#978577" d="M61.6 82.3l63.5-9.2-12.9 16 44 19.8z"/><ellipse cx="219" cy="139" fill="#3b3f46" rx="134" ry="5"/><path fill="#fffbd0" d="M156 103h53v4h-53z"/><path fill="#f1deb5" d="M158.5 91.3l-41-8.1 12.3 18.2-7.9 12.3z"/><ellipse cx="253" cy="114" fill="#cda875" rx="63" ry="21"/><path fill="#484d54" d="M175 39h44v10h-44z"/><path fill="#4f4d52" d="M160 120h25v5h-25z"/><path fill="#495561" d="M175 0h62v25h-62z"/><path fill="#c4a888" d="M163.2 39.4l-7.3-25.3 32.3 18.8-45.7 30.8z"/><path fill="#6f6b6f" d="M69 68h29v67H69z"/><path fill="#766e6f" d="M166.8-12.3l8.2 3.7-37.8 85-8.2-3.8z"/><path fill="#192e40" d="M4 135h113v35H4z"/><path fill="#b69976" d="M110.8 63.3l63 64.6L149 82.1l-3.1-7z"/><path fill="#d8b07f" d="M89.1 129.8l-1.6-7.8 27.4-5.8 1.6 7.8z"/><path fill="#e6c399" d="M111 87l-18-2 10 11z"/><path fill="#5d5856" d="M157 67.7l-1.7-4.9 10-2.8 10.8 12.5z"/><ellipse cx="198" cy="110" fill="#8b755b" rx="17" ry="3"/><path fill="#89877b" d="M214 66l57-18v16z"/><path fill="#fff" d="M121 84h12v6h-12z"/><path fill="#434c5b" d="M103.8 47l13.5 29-19 9-13.6-29z"/><circle r="1" fill="#fbe1a5" transform="matrix(21.72164 1.47245 -.2732 4.03033 208.2 102.8)"/><path fill="#635f62" d="M90 102h27v15H90z"/><path fill="#7b6b5f" d="M156.3 117L138 105l3.8-6 18.4 12z"/><path fill="tan" d="M168 93.6l-1.7.9-16.4-32 1.8-1z"/><path fill="#5b514f" d="M120 141h19v29h-19z"/><path fill="#7c7063" d="M200 112.6l-100.9 2.9 93.4 11.9-46.1-19.1z"/><circle cx="209" cy="169" r="36" fill="#595750"/><path fill="#fffff8" d="M117.7 101.5l2-2.2 10.6 9.2-2 2.2z"/><path fill="#fff4be" d="M136.5 125.5l.3-2 16.7 3-.3 2z"/><path fill="#c4cec6" d="M228 52h20v7h-20z"/><path fill="#a49482" d="M212 37l3-11-17 3z"/><ellipse cx="240" cy="74" fill="#b2c2b5" rx="52" ry="4"/><path fill="#6d6355" d="M166 72l2 13-6 5z"/><path fill="#364454" d="M-16 138l99-20-96-21z"/><path fill="#fff7cf" d="M164.3 105.6l26.6-4.2.8 5-26.6 4.2z"/><ellipse cx="186" cy="94" fill="#c7a476" rx="47" ry="3"/><path fill="#aa9888" d="M194 55l-47-10-8 15z"/><path fill="#ffecbe" d="M147 89h15v5h-15z"/><ellipse cx="44" cy="91" fill="#586676" rx="47" ry="6"/><path fill="#6b6866" d="M217.7 59.5l-12.3-2.8L271 28.4l-54.2-1.8z"/><ellipse cx="70" cy="59" fill="#364455" rx="34" ry="8"/><path fill="#7c736b" d="M139.6 125.5l-1.6 6-48.4-37.2 22.2 5.8z"/><path fill="#5e606c" d="M103 83l8-46 62-44z"/><path fill="#486179" d="M56 26.3l4-8 50 25.4-4 8z"/><path fill="#dcd4bb" d="M180.4 66.5l-5.6 22.6-8.2-6.1L234 57z"/><path fill="#e4c797" d="M164.7 26.6l-3-2.7 11.6-12.5 3 2.7z"/><path fill="#e4bf81" d="M170.3 113.3l35.3 3.3-24.6 2.3-14.9-.6z"/><path fill="#a9beb5" d="M17 76h7v3h-7z"/><path fill="#233c4f" d="M-5.8 77.2l-.4-20 24-.4.4 20z"/><path fill="#fff" d="M135 95h4v7h-4z"/><path fill="#927b5f" d="M240.7 115.9l15.6 3.3-1 5-15.6-3.4z"/><ellipse cx="230" cy="84" fill="#cec6a8" rx="38" ry="7"/><path fill="#ceb28a" d="M189.7 36.5l-25.6 2.9.5-10.4 27.7 1.5z"/><ellipse cx="177" cy="133" fill="#c59660" rx="47" ry="2"/><path fill="#7e7673" d="M147.7 73.2l-17.1 2.7-18-23.4 8.8-1.4z"/><path fill="#455163" d="M70.3 93.3l-60.5 42 76-11.7-3.5-27.8z"/><circle r="1" fill="#a69381" transform="matrix(1.47431 -1.86888 20.57625 16.2321 97.6 90)"/><path fill="#bc9d6a" d="M126.2 102.9l-3.1-2.6 10.7-13.2 3.1 2.6z"/><path fill="#525b65" d="M179 0h77v26h-77z"/><path fill="#d1b791" d="M158 77l7-6 7 6z"/><path fill="#82746b" d="M50.8 133l52.4 1.6-11.3-11.2 45.9-17.2z"/><path fill="#edc17c" d="M187 121h24v6h-24z"/><path fill="#3c3e47" d="M108 133l22 1-19 51z"/><path fill="#4a5665" d="M34 63h35v16H34z"/><path fill="#af9d84" d="M175 63h49v2h-49z"/><path fill="#776653" d="M155.8 87l-.2 1-21.4-5 .2-1z"/><path fill="#fad897" d="M101 117l14 1-10 4z"/><path fill="#a18e78" d="M168.8 18.3l21.3 2.6-12 4.7-11.7 9.2z"/><path fill="#fff" d="M129.8 88.2l.2 1-13.8 2.6-.2-1z"/><path fill="#665d55" d="M175 142h15v28h-15z"/><path fill="#766d6b" d="M160.5 35l2.1-21.1-17.3.5-13.4 45.5z"/><path fill="#dcc292" d="M271 95l-61 17 49 1z"/><path fill="#f9db9e" d="M217 97l-18-4 4 16z"/><circle r="1" fill="#b99c77" transform="matrix(31.5005 5.46847 -.38755 2.23242 234.1 96.7)"/><circle cx="85" cy="106" r="2" fill="#facd94"/><circle r="1" fill="#204058" transform="matrix(37.59166 -4.11029 1.2678 11.59503 8 7.5)"/><path fill="#495f77" d="M120.2 6.8l-32-5.1L202-9l2 12.9z"/></g></g></svg>