<svg xmlns="http://www.w3.org/2000/svg" viewBox="0 0 1800 1012"><defs/><filter id="a"><feGaussianBlur stdDeviation="12"/></filter><rect width="100%" height="100%" fill="#444241"/><g filter="url(#a)"><g fill-opacity=".5" transform="translate(3.5 3.5) scale(7.03125)"><circle r="1" fill="#c1866a" transform="matrix(7.70852 -55.06907 134.1328 18.7758 136.7 4.9)"/><circle r="1" fill="#665e58" transform="rotate(-147.6 103.8 34.8) scale(212.11638 54.44478)"/><circle r="1" fill="#c47f59" transform="matrix(-58.23912 2.13553 -.57134 -15.58122 185 24.6)"/><path d="M49 117h30v11H49z"/><ellipse cx="121" cy="142" fill="#69665b" rx="134" ry="17"/><circle r="1" fill="#5a4d50" transform="rotate(-16.5 328 -769.8) scale(49.5893 22.31693)"/><path fill="#636159" d="M240 158L35 106l209-3z"/><path fill="#424243" d="M51 104l165-3L2 46z"/><ellipse cx="27" cy="121" fill="#5f5a4d" rx="23" ry="16"/><circle cx="125" cy="2" r="39" fill="#897060"/><circle r="1" fill="#63524f" transform="matrix(-4.94372 13.7015 -103.90266 -37.48976 35 26.5)"/><ellipse cx="67" cy="120" rx="17" ry="5"/><circle r="1" fill="#8c5852" transform="rotate(11.4 -162.1 820) scale(74.11008 7.82667)"/><path fill="#be7d59" d="M162 13h42v25h-42z"/><ellipse cx="164" fill="#7b7160" rx="147" ry="12"/><path fill="#444443" d="M254.5 105.5h-61v-29h61z"/><circle r="1" fill="#605d53" transform="matrix(.44276 -4.01305 17.33038 1.91207 54.3 113.5)"/><path fill="#92624b" d="M262.8 32l-40.6 5.7-3-21.7 40.6-5.7z"/><circle r="1" fill="#5d4f4e" transform="rotate(158.8 112.4 49) scale(46.30391 12.85649)"/><circle r="1" fill="#504b4e" transform="matrix(1.37871 -17.92524 100.56195 7.73468 138.7 74.7)"/><circle r="1" fill="#ac6b54" transform="matrix(-32.02608 .46963 -.08642 -5.89354 148.5 34.7)"/><ellipse cy="142" fill="#3f3a32" rx="37" ry="6"/><path fill="#605e57" d="M83 110h131v33H83z"/><path fill="#ff4b56" d="M186 93h10v2h-10z"/><circle r="1" fill="#cb7651" transform="matrix(.10863 2.00119 -45.96739 2.49512 194.1 35.5)"/><circle r="1" fill="#64574b" transform="rotate(-164.5 124 -17) scale(23.16742 10.4463)"/><path d="M50 120h23v6H50z"/><circle r="1" fill="#745452" transform="rotate(179.9 93.9 29.4) scale(28.5919 9.60518)"/><ellipse cx="175" cy="46" fill="#a46152" rx="41" ry="3"/><circle r="1" fill="#9e795f" transform="matrix(.37332 5.9096 -31.06705 1.96256 156.2 13.6)"/><ellipse cx="206" cy="59" fill="#9d5a51" rx="20" ry="2"/><path fill="#885f53" d="M181.2 32l-5.9-.9 43.9-1.9-14.3 4.3z"/><circle r="1" fill="#625550" transform="matrix(9.04476 -12.17823 25.37865 18.84871 39.5 31.1)"/><path fill="#5d504f" d="M188 40h68v4h-68z"/><path fill="#3a3b34" d="M-5.1 95.5l128.4-.5-139.3 8 7.4-47.9z"/><circle r="1" fill="#57544d" transform="rotate(163.3 11.1 65.4) scale(10.35961 15.93825)"/><path fill="#554946" d="M-15-11l56 70h-57z"/><path fill="#7b6056" d="M123.6 36.2l-18.5 16.5-42.5-38 90.2 13.2z"/><path fill="#705d52" d="M214 21h42v3h-42z"/><ellipse cx="223" cy="48" fill="#985d50" rx="18" ry="2"/><ellipse cx="236" cy="140" fill="#555049" rx="35" ry="8"/><ellipse cx="185" cy="16" fill="#ba855d" rx="35" ry="3"/><path fill="#43423f" d="M194 91h62v10h-62z"/><circle r="1" fill="#7f6c5e" transform="matrix(60.73652 2.20322 -.57652 15.893 93.6 0)"/><circle r="1" fill="#837263" transform="rotate(3.7 37.4 2422.4) scale(51.68003 7.58522)"/><circle r="1" fill="#5b4f4e" transform="matrix(39.10479 7.41002 -.93168 4.91673 234.7 57)"/><path d="M52 120h30v6H52z"/><circle r="1" fill="#524e44" transform="matrix(5.70856 -14.08164 22.05071 8.93915 8.5 123.5)"/><path fill="#7f644c" d="M46.4 7.6l-65-1.2.2-14 65 1.2z"/><ellipse cx="161" cy="20" fill="#976f59" rx="77" ry="2"/><ellipse cx="188" cy="104" fill="#505048" rx="160" ry="3"/><circle r="1" fill="#715353" transform="matrix(29.8097 1.6883 -.31245 5.5169 139.9 54.3)"/><path fill="#67635a" d="M49 113l13 3 6-7z"/><path fill="#5c5a54" d="M148 126L48 151l29-27z"/><circle r="1" fill="#725d56" transform="rotate(158.8 37.5 24.4) scale(29.85781 9.5142)"/><path fill="#9b6551" d="M168 31h88v2h-88z"/><path fill="#b06652" d="M170 45h30v3h-30z"/><circle r="1" fill="#464544" transform="matrix(39.74963 22.6506 -5.92984 10.40631 34 77.5)"/><path fill="#8e6757" d="M95.7 31.9l-29.9-2.5 100.6-1.2-49.1 8z"/><path fill="#4c4747" d="M239.9 96.4l3.8-54.3 25.9-6.7 1.4 21.7z"/><path fill="#6c675e" d="M170 122l19 8 15-8z"/><path fill="#675352" d="M17 42l100 15-53-25z"/><path fill="#67625b" d="M219 144L98 158l40-29z"/><path fill="#575051" d="M146 79l73-13L83 52z"/><path fill="#4e4a46" d="M156 131h46v2h-46z"/><path fill="#9b7357" d="M245 12l-38-5 14 17z"/><path fill="#d98357" d="M158 35h37v2h-37z"/><circle r="1" fill="#5e5b52" transform="matrix(4.38705 4.11971 -24.32655 25.90515 234.9 130.8)"/><path fill="#5d534c" d="M22 49l25-15L2-5z"/><circle r="1" fill="#050807" transform="rotate(-104.1 79.8 37.3) scale(4.14609 8.95674)"/><circle r="1" fill="#965e4f" transform="matrix(-70.97802 5.34856 -.07514 -.99717 234.7 35.8)"/><circle r="1" fill="#765853" transform="matrix(-.01672 1.9161 -69.75095 -.6087 91.7 44.5)"/><ellipse cx="149" cy="37" fill="#bc7455" rx="16" ry="2"/><path fill="#9e5a52" d="M173 57h24v2h-24z"/><path fill="#796a5d" d="M123.5 7.6L83.9 24.4l-9.4-22 39.6-16.8z"/><path fill="#47443f" d="M36 129l-4 8 16-6z"/><path fill="#886d58" d="M66.1 7.9L35.6 7l-.6-.2L22.1-16z"/><path fill="#55524d" d="M146 124h31v5h-31z"/><path fill="#474641" d="M58.1 103.3L38.5 81.6 57 117.9l-5 2.2z"/><circle cx="82" cy="118" r="2" fill="#1f221f"/><path fill="#6c675f" d="M176 113h35v3h-35z"/><path fill="#6d6055" d="M63 9L11 5l90 34z"/><ellipse cx="124" cy="45" fill="#926055" rx="15" ry="2"/><path fill="#625e56" d="M86.3 133.9L21.6 127l.1-1 64.7 6.8z"/><path fill="#3a3935" d="M59 141h8v2h-8z"/><path fill="#be7d57" d="M168 23h40v5h-40z"/><ellipse cx="239" cy="29" fill="#845e4f" rx="28" ry="2"/><path fill="#3c3d37" d="M-3.3 71.4l8.4 9.4 14.2 22.7-23.5 1.4z"/><circle r="1" fill="#4e494b" transform="matrix(-77.43145 -8.62386 .60966 -5.47402 163.7 84.5)"/><path fill="#4a483f" d="M61.1 101L-7 122l-9-13.7 62.5-11.8z"/><path fill="#5e5d57" d="M83 111h73v16H83z"/><path fill="#41403b" d="M241 139h15v2h-15z"/><path fill="#766e63" d="M168 142h42v1h-42z"/><path fill="#bd865d" d="M184.8 13.7l-5.7 5.1 19.9 1.3-3.6-9.6z"/><circle r="1" fill="#121716" transform="matrix(-11.10987 2.75536 -.24072 -.9706 65 118.2)"/><path fill="#5f5c54" d="M51 125l-4-11-11 5z"/><path fill="#504f47" d="M175 97h37v8h-37z"/><ellipse cx="181" cy="96" fill="#41413d" rx="158" ry="2"/><path fill="#594f4e" d="M239.7 51.2L271 41.1l-35.9 17.3-48.7-1.9z"/><path fill="#786556" d="M191.4-14.9L271 14.8l-66.5-8.3 22.3-7.1z"/></g></g></svg>