<svg xmlns="http://www.w3.org/2000/svg" viewBox="0 0 2065 3098"><defs/><filter id="prefix__a"><feGaussianBlur stdDeviation="12"/></filter><rect width="100%" height="100%" fill="#2c3442"/><g filter="url(#prefix__a)"><g transform="translate(6 6) scale(12.10156)"><circle r="1" fill="#e6ffff" fill-opacity=".5" transform="matrix(-24.10302 141.13636 -149.12204 -25.4668 83.5 100.1)"/><circle r="1" fill="#f7f3f9" fill-opacity=".5" transform="matrix(-107.26581 7.98469 -1.45152 -19.4996 91.2 164.7)"/><ellipse cx="55" cy="227" fill="#505154" fill-opacity=".5" rx="169" ry="35"/><circle r="1" fill="#7ea0ea" fill-opacity=".5" transform="rotate(-7.1 414.2 -553.1) scale(169 111.92672)"/><ellipse cy="205" fill="#444733" fill-opacity=".5" rx="74" ry="17"/><path fill="#685c4d" fill-opacity=".5" d="M114.8 204l-5.9-1.4 22.3-96.5 5.9 1.3z"/><path fill="#57719d" fill-opacity=".5" d="M17 247l-33-38 151 30z"/><circle r="1" fill="#dddcdb" fill-opacity=".5" transform="matrix(2.6771 -18.2237 40.72502 5.98259 68.1 178.1)"/><circle r="1" fill="#5f82bc" fill-opacity=".5" transform="matrix(6.12302 -70.27462 38.32108 3.33891 10 59.1)"/><ellipse cx="130" cy="21" fill="#9fb4d4" fill-opacity=".5" rx="33" ry="134"/><path fill="#b3aeae" fill-opacity=".5" d="M122 208h48v19h-48z"/><circle r="1" fill="#425167" fill-opacity=".5" transform="matrix(-1.79778 -73.56068 2.4152 -.05903 168.6 120.5)"/><path fill="#d1d3d8" fill-opacity=".5" d="M158.5 109.2l-37.9 84.5 52.3 2.7-8.8-7z"/><ellipse cx="98" cy="149" fill="#5d5752" fill-opacity=".5" rx="2" ry="86"/><circle r="1" fill="#978d85" fill-opacity=".5" transform="matrix(-83.17929 3.8797 -.23643 -5.06907 155 255)"/><path fill="#506a93" fill-opacity=".5" d="M25 234h138v10H25z"/><path fill="#eef0ee" fill-opacity=".5" d="M97.5 161v16h-91v-16z"/><path fill="#3d3e3e" fill-opacity=".5" d="M95 63h3v61h-3z"/><path fill="#121119" fill-opacity=".5" d="M0 247h106v6H0z"/><path fill="#9ba1a1" fill-opacity=".5" d="M0 222h92v7H0z"/><ellipse cx="164" cy="52" fill="#22354b" fill-opacity=".5" rx="2" ry="19"/><path fill="#5a5943" fill-opacity=".5" d="M86 193.3L62.4 204l-21.6 14.5 56 3.4z"/><path fill="#e5e6de" fill-opacity=".5" d="M110 185l-7-41 17-8z"/><circle r="1" fill="#7f7969" fill-opacity=".5" transform="matrix(8.23367 -30.94443 2.468 .65669 134 108.6)"/><path fill="#516382" fill-opacity=".5" d="M88.8 123.4l-90-47.9.4-.9 90 47.9z"/><path fill="#0f4138" fill-opacity=".5" d="M143 225l-23 4 36 4z"/><ellipse cx="44" cy="183" fill="#aaafb6" fill-opacity=".5" rx="67" ry="4"/><circle r="1" fill="#9aafd5" fill-opacity=".5" transform="rotate(82.2 75 95.2) scale(28.49079 90.68139)"/><path fill="#746d6a" fill-opacity=".5" d="M93.8 233.5L128 133.1l-10.2 105 5.3 8.5z"/><path fill="#3b516d" fill-opacity=".5" d="M170 170l15-45-21-55z"/><path fill="#364a5b" fill-opacity=".5" d="M161 95.3l-1 .1-5-34.7 1-.1z"/><ellipse cx="135" cy="246" fill="#211c20" fill-opacity=".5" rx="33" ry="4"/><path fill="#41312d" fill-opacity=".5" d="M64.8 229.5l-9.3 37.1 7.2 4.4-7.5-41.3z"/><path fill="#67686a" fill-opacity=".5" d="M168.1 212.9l-5.2-66.7.3 47.1 21.8 52.6z"/><path fill="#adb0b5" fill-opacity=".5" d="M107 196l7-24-53 23z"/><path fill="#fffff6" fill-opacity=".5" d="M126 144l9 14-9 16z"/><path fill="#a5c4ef" fill-opacity=".5" d="M170.2 55l-1.4 42h-1l1.4-42z"/><path fill="#43474a" fill-opacity=".5" d="M22.5 189.1L12 248.3l17.4-16.2-45.4-23.4z"/><ellipse cx="54" cy="145" fill="#8da9ca" fill-opacity=".5" rx="38" ry="15"/><path fill="#596779" fill-opacity=".5" d="M71.2 255.4l35.4.5 6.2-25.8 57.1 6.4z"/><ellipse cx="99" cy="182" fill="#6c6055" fill-opacity=".5" rx="2" ry="38"/><path fill="#ced2da" fill-opacity=".5" d="M166.1 176.5l-3.2-60.9 3-.1 3.2 60.9z"/><ellipse cx="82" cy="161" fill="#e3e7e5" fill-opacity=".5" rx="16" ry="10"/><path fill="none" stroke="#434d54" stroke-opacity=".5" stroke-width=".5" d="M159.8 102.2l4 63.3"/><path fill="#445263" fill-opacity=".5" d="M136 144l1 50h-1l-1-50z"/><path fill="#636972" fill-opacity=".5" d="M122.5 137l-6.2-17.5 8.5 12 6.4 16.1z"/><path fill="#777b7c" fill-opacity=".5" d="M154.7 205.9h-1l-4.4-49.8h1z"/><ellipse cx="21" cy="221" fill="#62819d" fill-opacity=".5" rx="48" ry="4"/><path fill="#a5a5a5" fill-opacity=".5" d="M158.4 224.7l-28.8-1.1 8.3 11L107 200z"/><path fill="#63644f" fill-opacity=".5" d="M131.2 208.9l14.1-4.1L185 198l-69.8.8z"/><path fill="#685a54" fill-opacity=".5" d="M74 226h67v3H74z"/><path fill="#95afd3" fill-opacity=".5" d="M83 92h13v63H83z"/><ellipse cx="107" cy="80" fill="#88a3ce" fill-opacity=".5" rx="10" ry="65"/><path fill="#d9dce0" fill-opacity=".5" d="M-13.4 154l70.7 6.1-1.9 22-70.7-6.2z"/><path fill="#66623d" fill-opacity=".5" d="M0 188h28v7H0z"/><path fill="#a9a8a7" fill-opacity=".5" d="M103 234l22-24 16 3z"/><circle r="1" fill="#617489" fill-opacity=".5" transform="matrix(.9954 -.09585 3.71628 38.59504 158.7 86.9)"/><path fill="#c7ced2" fill-opacity=".5" d="M100 133.9l-.1 33.5 3.4 16.7 14.8-27.2z"/><ellipse cx="142" cy="174" fill="#59636c" fill-opacity=".5" rx="1" ry="15"/><ellipse cx="48" cy="57" fill="#7a98c9" fill-opacity=".5" rx="19" ry="104"/><ellipse cx="146" cy="156" fill="#dde6ea" fill-opacity=".5" rx="4" ry="26"/><path fill="#aeb4bb" fill-opacity=".5" d="M69.5 198.6L30 188.8l-44.7-6.9 113 1.1z"/><circle r="1" fill="#758b9b" fill-opacity=".5" transform="matrix(-.41117 -2.03894 26.02919 -5.24905 0 230.7)"/><path fill="#a0b6d3" fill-opacity=".5" d="M131.6 157.8l26.3-13.5-.2-44-14.7 19.2z"/><circle r="1" fill="#124337" fill-opacity=".5" transform="matrix(-15.91891 -.47004 .12215 -4.13689 165.2 230.7)"/><path fill="#635859" fill-opacity=".5" d="M0 254h106v2H0z"/><path fill="#424d41" fill-opacity=".5" d="M38 212h34v7H38z"/><path fill="#5d6670" fill-opacity=".5" d="M162 143h2v27h-2z"/><circle r="1" fill="#c1b0a4" fill-opacity=".5" transform="matrix(-.02618 .99966 -15.95723 -.41785 78.6 225.2)"/><path fill="#7c9bc8" fill-opacity=".5" d="M-13.7 159.2l32.2-1.3 55.6-42.6-50.6-25.6z"/><ellipse cx="138" cy="153" fill="#fafcf5" fill-opacity=".5" rx="2" ry="11"/><path fill="#4f6f97" fill-opacity=".5" d="M122.1 243.5l52.4-2.9-57-9.8 7 5.4z"/><path fill="#7b7c6a" fill-opacity=".5" d="M50.3 195.1l-37.2-7 67.7 8.4-9 9.3z"/><path fill="#56392a" fill-opacity=".5" d="M119.2 234.8l-2.2 9.7-5.4-5.9 6.1-5.3z"/><ellipse cx="106" cy="248" fill="#21222a" fill-opacity=".5" rx="60" ry="3"/><path fill="#6f6764" fill-opacity=".5" d="M110 227l-27-7 37-36z"/><path fill="#bcbcb4" fill-opacity=".5" d="M150 203h20v2h-20z"/><path fill="#9c9286" fill-opacity=".5" d="M127 254h43v2h-43z"/><path fill="#747679" fill-opacity=".5" d="M159 207.4l19.4-24.4.2 33.8-32.5 2.3z"/><path fill="#9fb7d8" fill-opacity=".5" d="M167 23h3v47h-3z"/><circle r="1" fill="#6484bb" fill-opacity=".5" transform="matrix(13.69486 2.41477 -12.1549 68.93386 1.6 48.5)"/><path fill="#8ea9cf" fill-opacity=".5" d="M87.7 136l-27.4 26.5-16-16.6 27.4-26.4z"/><path fill="#747473" fill-opacity=".5" d="M113.6 178.6l13-48.3 3.8 1-13 48.4z"/><path fill="#5f666c" fill-opacity=".5" d="M141 145h1v23h-1z"/><ellipse cx="107" cy="204" fill="#64666b" fill-opacity=".5" rx="1" ry="36"/><path fill="#535e76" fill-opacity=".5" d="M165.7 104.1h1l5.6 105.8h-1z"/><path fill="#ccc6c3" fill-opacity=".5" d="M166 174h3v21h-3z"/><ellipse cx="3" cy="252" fill="#10151b" fill-opacity=".5" rx="54" ry="2"/><ellipse cx="45" cy="238" fill="#465e86" fill-opacity=".5" rx="13" ry="10"/><path fill="#313d5a" fill-opacity=".5" d="M-3.2 235.9l7.9 16.7 23.9-24.9-18.1 3.4z"/><path fill="#99918c" fill-opacity=".5" d="M55 253h41v1H55z"/><path fill="#dcdfde" fill-opacity=".5" d="M121 141l-13 3 3 38zm-20 22h5v33h-5z"/><ellipse cx="55" cy="226" fill="#c3b5a4" fill-opacity=".5" rx="12" ry="2"/><ellipse cx="135" cy="140" fill="#585e61" fill-opacity=".5" rx="1" ry="11"/><ellipse cx="80" cy="149" fill="#7e8b9c" fill-opacity=".5" rx="1" ry="40"/><path fill="#505456" fill-opacity=".5" d="M96 98h3v31h-3z"/><path fill="#52709d" fill-opacity=".5" d="M94 231h15v13H94z"/><ellipse cx="169" cy="255" fill="#858483" fill-opacity=".5" rx="3" ry="15"/><circle r="1" fill="#597095" fill-opacity=".5" transform="rotate(28.6 -155.6 74.6) scale(49.13773 1)"/></g></g></svg>