<svg xmlns="http://www.w3.org/2000/svg" viewBox="0 0 1800 1200"><defs/><filter id="a"><feGaussianBlur stdDeviation="12"/></filter><rect width="100%" height="100%" fill="#324157"/><g filter="url(#a)"><g fill-opacity=".5" transform="translate(3.5 3.5) scale(7.03125)"><circle r="1" fill="#fff" transform="matrix(21.57054 -68.60865 243.26047 76.481 154.2 40.2)"/><circle r="1" fill="#e5ddc8" transform="matrix(61.6315 -60.98945 45.81166 46.29393 215 68.7)"/><circle r="1" fill="#66655e" transform="matrix(161.15878 62.186 -8.31383 21.54579 166 129.4)"/><ellipse cx="55" cy="126" fill="#25292a" rx="65" ry="52"/><circle cx="31" cy="37" r="46" fill="#7297c5"/><path fill="#f0e9dc" d="M191.4 90l57.7-96 63.5 38-57.7 96z"/><ellipse cx="170" cy="149" fill="#646b6b" rx="92" ry="36"/><circle r="1" fill="#1a1617" transform="matrix(-59.56309 -4.70606 1.78007 -22.52971 33.4 107)"/><circle r="1" fill="#b7c0c5" transform="rotate(117.3 49.2 79.4) scale(29.92245 60.99951)"/><path fill="#a0b2c8" d="M22 82l97-38-134 12z"/><circle r="1" fill="#6885ac" transform="matrix(129.94288 -20.43883 3.79795 24.146 33.1 9.4)"/><circle r="1" fill="#95a6bc" transform="matrix(-82.09334 30.85514 -10.73407 -28.55911 133.5 30.3)"/><ellipse cx="37" cy="151" fill="#324453" rx="148" ry="20"/><path fill="#585559" d="M78.2 97.3l20.1-19.4 37.5 38.8-20.1 19.4z"/><path fill="#d6c7ae" d="M220 104h36v26h-36z"/><path fill="#383841" d="M41 75l59 46-38-53z"/><path fill="#ccc8b9" d="M130 77h100v29H130z"/><ellipse cx="226" cy="164" fill="#878680" rx="70" ry="4"/><ellipse cx="189" cy="121" fill="#9a9489" rx="35" ry="9"/><ellipse cx="255" cy="136" fill="#7e807a" rx="41" ry="8"/><path fill="#afb6bc" d="M107 48h57v45h-57z"/><circle r="1" fill="#ede9e4" transform="rotate(5.6 -487.4 2657) scale(18.06525 38.83369)"/><circle r="1" fill="#303136" transform="rotate(-61.7 121.2 -13.1) scale(25.64883 13.90924)"/><ellipse cx="27" cy="67" fill="#8fa2b9" rx="18" ry="17"/><circle r="1" fill="#2f3d44" transform="matrix(-.30672 -4.87525 22.33214 -1.40502 201.6 153.3)"/><ellipse cy="161" fill="#1a2835" rx="45" ry="16"/><circle r="1" fill="#607a9e" transform="rotate(-119.6 8.1 -4.7) scale(18.25804 97.79105)"/><circle r="1" fill="#c8c9c7" transform="matrix(34.89751 -46.31057 8.89349 6.70172 216.7 42.2)"/><ellipse cx="125" cy="134" fill="#4c5d6b" rx="95" ry="5"/><path fill="#54585e" d="M85 79l55 28-14 78z"/><path fill="#191b1f" d="M-16 130V50l65 74z"/><circle r="1" fill="#889db9" transform="rotate(161 30.5 24) scale(75.1597 20.19607)"/><path fill="#31393f" d="M256.6 158l-.4 4-38.8-4 .4-4z"/><ellipse cx="156" cy="120" fill="#807f7c" rx="15" ry="14"/><circle r="1" fill="#d3cab6" transform="rotate(-86 153 -50.3) scale(7.45121 37.77737)"/><path fill="#43484f" d="M100 78L84 90l22-7z"/><path fill="#a7b5c0" d="M109.8 94.1l36.8-10.7-78.7-8.9 25.9-24.2z"/><path fill="#212c31" d="M79 154h109v2H79z"/><circle r="1" fill="#62696b" transform="matrix(36.44715 -2.4642 .33349 4.93248 164.2 162.7)"/><ellipse cx="66" cy="80" fill="#5a6170" rx="16" ry="5"/><circle r="1" fill="#aeb3b8" transform="matrix(63.48986 -54.22546 11.83243 13.854 171.7 34.9)"/><circle r="1" fill="#797a76" transform="matrix(1.04212 -2.73658 26.07683 9.9304 238.6 166)"/><path fill="#d1c8b7" d="M271 128h-43l-40-44z"/><circle cx="207" cy="123" r="11" fill="#8e8a82"/><path fill="#707575" d="M200 130h56v13h-56z"/><path fill="#314456" d="M22 129h60v24H22z"/><circle r="1" fill="#768eb0" transform="rotate(-50.7 43.3 -5.9) scale(33.77318 16.20115)"/><path fill="#313e45" d="M243 149l-35-10 14 10z"/><ellipse cx="86" cy="54" fill="#98aabf" rx="43" ry="17"/><path fill="#798183" d="M147 150h21v3h-21z"/><path fill="#2a2f39" d="M25 100l32-17-73-2z"/><path fill="#4d525b" d="M47.3 72.3L35.7 84.7l39.9-5.8-20.6-8z"/><path fill="#2a2626" d="M62 124h50v5H62z"/><ellipse cx="151" cy="91" fill="#bdbfb8" rx="26" ry="15"/><path fill="#cac9c2" d="M187.3 118.6L207 98.8 245.4 0l-64.2 80.4z"/><circle r="1" fill="#8c9fb5" transform="matrix(-19.13709 -.34784 .27027 -14.86935 26 68.8)"/><path fill="#2f2f34" d="M95 128.4L83.1 80.8l-15.9 5.6-37.6-3.9z"/><path fill="#99958b" d="M237.3 166.1l-5.8-1.4 11.9 17 23-2.8z"/><ellipse cx="73" cy="169" fill="#2a3542" rx="40" ry="10"/><path fill="#656465" d="M144 142l-39-52 39 23z"/><circle r="1" fill="#8897ab" transform="rotate(161.2 66.9 11) scale(38.10614 18.93939)"/><path fill="#122028" d="M24 143h35v2H24z"/><ellipse cx="216" cy="145" fill="#979995" rx="9" ry="1"/><circle r="1" fill="#a0a7b1" transform="matrix(-5.53869 -8.37519 50.05843 -33.10469 187.4 7.5)"/><path fill="#353a39" d="M143 169h87v1h-87z"/><ellipse cx="147" cy="135" fill="#57656e" rx="32" ry="7"/><path fill="#6e7271" d="M177 159h56v10h-56z"/><path fill="#959288" d="M175 114l58 16-22-17z"/><path fill="#14181d" d="M52.9 128.1l-19.4-8.7-38.2-13 .7 22z"/><path fill="#95a6b9" d="M37 63L23 74l16 9z"/><path fill="#1e2c36" d="M167 160h14v2h-14z"/><path fill="#dfd9cd" d="M271 115.2l-40.3-55L217.4 83l4.5 16z"/><path fill="#878786" d="M111 92h16v5h-16z"/><path fill="#b6bbbc" d="M112 90l46 4 64-94z"/><path fill="#878884" d="M266.4 153.2l-24.9-15 2.1-3.4 24.9 15z"/><path fill="#2e3b40" d="M196 147h18v6h-18z"/><path fill="#8399b6" d="M83.5.2L-5.2 54.6 7.2 76.5l5.2 1.7z"/><path fill="#686f74" d="M124 157h17v3h-17z"/><path fill="#25282c" d="M33 81l55 49-91-31z"/><path fill="#545355" d="M128.7 127.4l2.2-6.4-32.1-41.8 9.3 51.7z"/><path fill="#575e61" d="M205.2 143.2l-7.6-1.3 15.1 20.8-10.8 9.4z"/><path fill="#9eb1c3" d="M60 62l10 13 32-1z"/><path fill="#313c43" d="M119 168h34v2h-34z"/><path fill="#464245" d="M85 105l41 23-34-5z"/><path fill="#112129" d="M77 141h16v2H77z"/><path fill="#1a272b" d="M148 153l-11 4 18-1z"/><path fill="#23323b" d="M232 144h13v2h-13z"/><ellipse cx="228" cy="165" fill="#878680" rx="21" ry="2"/><circle r="1" fill="#c5c4ba" transform="rotate(22.5 -124.6 499.1) scale(14.479 27.98108)"/><path fill="#7d7c7a" d="M144.3 127.5l-4.6-18.7 5.8-3.9 19.8 25.3z"/><path fill="#cbc2b0" d="M226 115h30v14h-30z"/><path fill="#3b4a59" d="M50.7 154l42.1-25.2 43.9 34.9-33.2-11.3z"/><path fill="#565a64" d="M72.8 76.1l15.4 11.1 21.5 6.3-16.8-13.4z"/><path fill="#3b4145" d="M232 167l-20 18 7-19z"/><path fill="#000402" d="M45.5 161.6v1l-15-.2v-1z"/><path fill="#28292b" d="M54.1 82l-25 33.3 63.6 13.1L39 78.3z"/><ellipse cx="254" cy="134" fill="#2b3639" rx="5" ry="1"/><path fill="#394a52" d="M120 141h31v10h-31z"/><path fill="#5b666b" d="M161 148h9v7h-9z"/><path fill="#4c5e6d" d="M123 145l-16-18-1 18z"/></g></g></svg>