<svg xmlns="http://www.w3.org/2000/svg" viewBox="0 0 3477 2318"><defs/><filter id="a"><feGaussianBlur stdDeviation="12"/></filter><rect width="100%" height="100%" fill="#2e344e"/><g filter="url(#a)"><g fill-opacity=".5" transform="translate(6.8 6.8) scale(13.58203)"><circle r="1" fill="#e1d3ab" transform="matrix(-7.64858 -132.65047 181.37185 -10.45784 113.7 100.5)"/><circle r="1" fill="#001544" transform="matrix(20.57658 32.54893 -21.48368 13.58142 61 60.6)"/><circle r="1" fill="#0a0905" transform="matrix(-.96292 13.85655 -50.86054 -3.5344 170.5 67)"/><path fill="#e8dfcb" d="M109 29h110v22H109z"/><path fill="#110f06" d="M35.8 108.2L146 129.9l-86.8-.8-24.5-9z"/><circle r="1" fill="#e5fcff" transform="matrix(9.31384 10.63912 -5.40773 4.7341 78.3 32.7)"/><ellipse cx="171" cy="60" fill="#3d362e" rx="22" ry="19"/><path fill="#635448" d="M145.2 135.5v-28.4l-27.7.7-54.7 8z"/><path fill="#b0a798" d="M4 185L-16-16h53z"/><path fill="#d8cfbd" d="M155.2 32.5l64.2 4 14.2 31-32.1-10.9z"/><ellipse cx="235" cy="100" fill="#393834" rx="2" ry="161"/><circle r="1" fill="#a39d8d" transform="matrix(-49.2449 10.01899 -3.1035 -15.25417 114.4 93.7)"/><path fill="#162038" d="M57.7 33.1l31.9 67.3-48.1-69.9 11-28.9z"/><ellipse cx="117" cy="9" fill="#a5a092" rx="65" ry="20"/><path fill="#4f669f" d="M70.8 92.5l-45-50.9 2.5-17 35.5 35z"/><path fill="#6b6256" d="M220 69l-99-12 54-15z"/><ellipse cx="55" cy="154" fill="#a0998e" rx="105" ry="25"/><ellipse cx="235" cy="55" fill="#a69f90" rx="17" ry="52"/><ellipse cx="132" cy="40" fill="#eae7dc" rx="13" ry="14"/><ellipse cx="15" cy="93" fill="#333433" rx="2" ry="161"/><ellipse cx="106" cy="48" fill="#393d3f" rx="2" ry="161"/><circle r="1" fill="#1f2122" transform="matrix(11.0681 -19.48062 6.22867 3.53888 80.9 69.8)"/><ellipse cx="253" cy="72" fill="#414542" rx="2" ry="107"/><ellipse cx="189" cy="114" fill="#9d9587" rx="45" ry="36"/><path fill="#15191b" d="M122 65h80v10h-80z"/><ellipse cx="181" cy="141" fill="#252a2d" rx="2" ry="90"/><path fill="#343a3c" d="M198 76h3v94h-3z"/><path fill="#ada192" d="M16 37h15v116H16z"/><ellipse cx="125" cy="114" fill="#34393d" rx="2" ry="60"/><path fill="#25272a" d="M32 59h2v111h-2z"/><path fill="#b1a897" d="M94 0h12v107H94z"/><path fill="#758bb6" d="M68.1 15.5l10.5 47.7-18.2-26.7-7.7 1.8z"/><path fill="#afaa9e" d="M108 0h12v104h-12z"/><ellipse cx="57" cy="106" fill="#1a262c" rx="25" ry="2"/><path fill="#1b2429" d="M162 62h2v101h-2z"/><path fill="#203b7f" d="M41.7 6.8l-4.3 2.8 23.2 19.8-9.9-21.1z"/><path fill="#03070a" d="M88.4 29.5h-1l2.2-41h1z"/><path fill="#0f1419" d="M47 118h34v9H47z"/><path fill="#141f27" d="M143 62h2v108h-2z"/><ellipse cx="236" cy="43" fill="#00111e" rx="1" ry="64"/><path fill="#1c2129" d="M88.6 103.7L73.2 33.5l16.1 53.8-4 18z"/><path fill="#212221" d="M87 121h2v49h-2z"/><path fill="#091318" d="M201 6v26h-2V6z"/><path fill="#918b7e" d="M136.9-16l93.3 51.5-49.4-3.6-33.6-2.7z"/><path fill="#e9ce99" d="M67.7 81.8l-1.4 3.8-14-5.4 1.4-3.8z"/><path fill="#0d1820" d="M67 115h1l3 56h-1z"/><path fill="#f5feff" d="M87 50l-4-21-13-4z"/><path fill="#131c2f" d="M25 38.5l9-10.1 43.8 42.5-25.9-42.3z"/><circle cx="173" cy="47" r="5" fill="#150200"/><path fill="#e3d4bf" d="M173.8 56.3l-10.2-3.7 12.2.4 4.2.5z"/><path fill="#08131a" d="M144 0h2v28h-2z"/><ellipse cx="218" cy="13" fill="#2a2b28" rx="2" ry="24"/><ellipse cx="125" cy="3" fill="#2b3336" rx="2" ry="25"/><path fill="#41413b" d="M217 60h2v105h-2z"/><ellipse cx="190" cy="7" fill="#b4ad9f" rx="8" ry="29"/><path fill="#271f0b" d="M58.7 91.4L31 58.4l2.3-1.8 27.7 33z"/><path fill="#183786" d="M89.2 61.8l-.3-25.3-8-13.6 13.4 19.7z"/><ellipse cx="189" cy="157" fill="#a69f92" rx="8" ry="79"/><path fill="#b4aea3" d="M126 129h7v41h-7z"/><path fill="#1a191a" d="M49 154h3v16h-3z"/><ellipse cx="235" cy="91" fill="#332e2e" rx="1" ry="98"/><ellipse cx="73" cy="50" fill="#d0dee2" rx="3" ry="5"/><path fill="#b1a99d" d="M107 134h15v36h-15z"/><path fill="#162757" d="M65 49l14-8-14-7z"/><circle r="1" fill="#a39d91" transform="matrix(7.44425 .39418 -3.75054 70.8311 207.6 154.6)"/><path fill="#ffed8f" d="M68 109h7v7h-7z"/><ellipse cx="7" fill="#b2ac9f" rx="8" ry="59"/><ellipse cx="250" cy="17" fill="#a79b8c" rx="3" ry="105"/><path fill="#fff065" d="M50.8 106l.4 5-10 1-.4-5z"/><ellipse cx="181" fill="#000009" rx="1" ry="31"/><path fill="#d1cabd" d="M122.6 55.6l-2.5-26.7 78.8 4.3L165.3 44z"/><path fill="#7d7f85" d="M43.3 21.1l9.7 3.4-30.1 23.8 18.3-3z"/><path fill="#a4a8af" d="M50 15l17-31 2 49z"/><path fill="#565e4f" d="M82.2 124.8l-11.1-10 8.7-9.6 11.1 10z"/><path fill="#d0b668" d="M94.3 104.7l-6 17-2.4 3.2 4.2-25z"/><ellipse cx="69" fill="#323c42" rx="2" ry="22"/><path fill="#3b60b9" d="M58.1 57.2L42.3 33l5.5 29.8L70 70.5z"/><circle r="1" fill="#3d3624" transform="rotate(109.7 119.7 85.6) scale(2.6279 59.28198)"/><path fill="#51403d" d="M114.5 134.5l-6.7-1.8 5.7-21.2 6.7 1.8z"/><path fill="#aeaba2" d="M126 75h11v34h-11z"/><path fill="#4a4943" d="M165.2 33.5l-3.5-6.1 1.4-43.4.9 33.4z"/><path fill="#2d291b" d="M60 95l12-3-30-17z"/><circle r="1" fill="#d7cfbf" transform="matrix(-.94522 12.0101 -10.76104 -.84691 211.4 48.6)"/><path fill="#a9a093" d="M65 127.6l-12.5-1.8L64.3 185l3.3-54.8z"/><path fill="#1d1517" d="M233 139h2v31h-2z"/><path fill="#2b2d30" d="M250.8 210.5l1.4-83h1l-1.4 83z"/><path fill="#a39f92" d="M251 172l20-1-15-70z"/><path fill="#242522" d="M150.2 73.6l-34.5-14.7 99.6 14.4-5.2 7.5z"/><path fill="#ada495" d="M95 102l10-52-17 20z"/><path fill="#a09583" d="M49.3 87.1l-16.9 18.1 4-38.7L28 51.8z"/><ellipse cx="161" cy="160" fill="#2c2927" rx="1" ry="33"/><path fill="#a2988a" d="M163 125h16v45h-16z"/><path fill="#151713" d="M185.7 91.9l16.3-4.7.3 1-16.3 4.6z"/><path fill="#afa796" d="M68.3 98.7l9.2-13.1 8.2 5.7-9.2 13.1z"/><path fill="#a79f91" d="M223 2h12v96h-12z"/><ellipse cx="253" cy="59" fill="#20242a" rx="1" ry="66"/><path fill="#aea79a" d="M195 81h4v44h-4z"/><ellipse cx="152" cy="127" fill="#a49c8f" rx="8" ry="51"/><path fill="#26272b" d="M89 88.2l-.4 14.9-12.2-61.9 11.7 26.2z"/><path fill="#364a7e" d="M96.1 63.5L36.6 6.4l33.8 30.7.4-6z"/></g></g></svg>