<svg xmlns="http://www.w3.org/2000/svg" viewBox="0 0 1800 1800"><defs/><filter id="a"><feGaussianBlur stdDeviation="12"/></filter><rect width="100%" height="100%" fill="#037a95"/><g filter="url(#a)"><g fill-opacity=".5" transform="translate(3.5 3.5) scale(7.03125)"><circle r="1" fill="#00f0ff" transform="matrix(102.83808 180.29434 -156.0844 89.02897 134.3 137.2)"/><circle r="1" fill="#00baec" transform="matrix(-89.53409 88.19876 -178.95248 -181.6618 111.9 171.5)"/><circle r="1" fill="#0095c0" transform="matrix(-20.41796 25.66889 -50.49336 -40.16423 216 67.8)"/><circle r="1" fill="#00d4f5" transform="rotate(91.3 -11.5 109.9) scale(51.94496 19.91213)"/><circle r="1" fill="#01a8c4" transform="matrix(-22.71455 19.37067 -31.36028 -36.77387 134.6 240)"/><circle r="1" fill="#01aad9" transform="rotate(-177.7 66 3.3) scale(150.26329 43.42646)"/><circle cx="206" cy="33" r="34" fill="#009ec2"/><circle r="1" fill="#00d2f1" transform="matrix(-36.44346 -19.66646 4.2983 -7.96509 204.6 169.5)"/><circle r="1" fill="#00d5fb" transform="matrix(-11.43087 1.18127 -2.11122 -20.42981 254.9 33)"/><ellipse cx="140" cy="16" fill="#00c3ee" rx="21" ry="17"/><circle r="1" fill="#01abcf" transform="matrix(-22.99442 6.21036 -12.75674 -47.23302 37.7 158.3)"/><circle r="1" fill="#00c7ee" transform="rotate(160.7 30.3 41.3) scale(33.79882 16.66323)"/><ellipse cx="2" cy="200" fill="#00c9eb" rx="17" ry="54"/><path fill="#00c6e5" d="M198 163h58v75h-58z"/><circle r="1" fill="#01a1c8" transform="rotate(-125 85 117.8) scale(13.34984 32.76169)"/><circle r="1" fill="#00c4f3" transform="matrix(-16.4683 -1.95237 1.47262 -12.42162 255 134)"/><path fill="#01accd" d="M165 165h26v60h-26z"/><circle r="1" fill="#009ab6" transform="matrix(-11.20161 12.35918 -30.52357 -27.6647 241.7 86.7)"/><circle r="1" fill="#00b6d2" transform="matrix(35.66432 -6.6744 3.1044 16.58818 177.6 80.5)"/><path fill="#00d7f3" d="M66 149h37v16H66z"/><ellipse cx="202" cy="6" fill="#007da5" rx="11" ry="5"/><path fill="#01a5c7" d="M123 168.7l17.3 25.7-13.3 9-17.3-25.8z"/><path fill="#00c5e3" d="M190.2 193.3l-68.4 33.5 25.4-36.9-16.9-14.5z"/><path fill="#00b0db" d="M102 127l-56 30 19-84z"/><path fill="#00d0f1" d="M85 81h36v35H85z"/><ellipse cx="67" cy="209" fill="#00d4e9" rx="6" ry="16"/><path fill="#00c1ec" d="M40.7 128.8l16.2-17.7-3.8-66.6-15.6-7.8z"/><path fill="#01aed7" d="M94 37h55v38H94z"/><ellipse cx="185" cy="254" fill="#01accc" rx="90" ry="14"/><path fill="#00b2cd" d="M75.3 215.2l-15.8-39 23.2-9.4 15.8 39z"/><path fill="#00bfe5" d="M150.3 135.3l-33.5 25.3-21.1-28 33.5-25.2z"/><path fill="#00c8fa" d="M6 104l-22-22 34 7z"/><ellipse cx="243" cy="157" fill="#02a1cf" rx="18" ry="7"/><path fill="#01adce" d="M32 200l40-51-75 27z"/><path fill="#00adca" d="M221 216l-44-41 10-15z"/><circle r="1" fill="#03a9d2" transform="matrix(-25.60007 -16.35256 8.75998 -13.71382 33.5 15.8)"/><circle r="1" fill="#01add6" transform="matrix(3.74605 -7.22805 64.94153 33.657 218.3 37.2)"/><path fill="#00d3f4" d="M158 154h26v10h-26z"/><path fill="#00d2ef" d="M231 221l-49-29 26 28z"/><circle r="1" fill="#00b4e3" transform="matrix(37.50781 28.66286 -18.52779 24.2452 1.2 47.2)"/><path fill="#01aad7" d="M63.5 142.6L7.9 84.7l37.7-7.5-61.6 48.4z"/><circle r="1" fill="#00d2f3" transform="matrix(6.57605 6.39493 -12.96466 13.33185 0 199.4)"/><circle r="1" fill="#00b1d4" transform="matrix(13.16224 9.81083 -5.0514 6.77697 223 207)"/><circle r="1" fill="#01a2c3" transform="rotate(-127.2 139 90) scale(19.9053 15.67343)"/><path fill="#00b0d9" d="M253.4 100.2l17.6 31.4-132-1.1 119.8-21.7z"/><path fill="#00bee5" d="M214.9-15.6L253.4-5l6.8 33.8 10.8 9.6z"/><path fill="#00c5e8" d="M183 109l4 16-48-21z"/><path fill="#00bfd9" d="M197.5 271l-41.4-40.3 44.4 10.6 1.2 16.3z"/><circle r="1" fill="#01a7d2" transform="matrix(59.1406 2.96086 -.40497 8.08884 19 255)"/><path fill="#00c5e0" d="M182.2 98l12.8 17.6-1.1-35.5 20.8-3.4z"/><path fill="#009ab8" d="M229 74h-23l-24-47z"/><circle r="1" fill="#00c6e6" transform="matrix(7.91317 8.97573 -4.14882 3.65768 64 11.1)"/><circle cx="11" cy="166" r="10" fill="#00cbe7"/><path fill="#00c5de" d="M110.9 145.3l-2 50.8-7.6 17.6-13.5-44.4z"/><path fill="#00cae4" d="M51 184l32 34-14 13z"/><path fill="#01a9d0" d="M193 108l-64-9 18-11z"/><circle r="1" fill="#00c1e7" transform="rotate(-139.9 128.6 32.6) scale(12.4618 10.20397)"/><ellipse cx="142" cy="218" fill="#01b0cf" rx="54" ry="10"/><circle r="1" fill="#01abcb" transform="matrix(-6.9291 -.99501 4.19498 -29.2132 180.3 66)"/><circle cx="129" cy="234" r="6" fill="#00c9e2"/><path fill="#01b1d6" d="M221.2 123.7l-23-.4.6-29 23 .4z"/><path fill="#00c5ed" d="M168 22l-7-9-33 18z"/><path fill="#02a9d1" d="M148.9 68.5l-5.4 11.6-10.8-33.9-32.1 11.3z"/><path fill="#00c3e5" d="M76.1 63.1l41.5 96.2 15.1-20.4L84.9 121z"/><path fill="#00bde2" d="M252.3 129.7L118.4 64.3l-16.5 126.4 29.7-110.9z"/><path fill="#02a8d0" d="M47 147.2l-6-5.2 34-39.2 6 5.2z"/><circle r="1" fill="#01a2c4" transform="matrix(-9.62113 -3.0642 5.88284 -18.47123 172 44.5)"/><path fill="#00acd1" d="M42.3 222.6l16.8-11.9-8.5-6.9-33.4 14.6z"/><path fill="#00c7ea" d="M2 244l40-18-13-6z"/><circle r="1" fill="#02a8ce" transform="matrix(-19.40407 24.28824 -7.3367 -5.86135 118.2 0)"/><path fill="#00b3db" d="M256.9 201.9l-26.1-12.7 8.3-17 26.1 12.6z"/><path fill="#01a6c9" d="M184 187l-15-4 25-29z"/><path fill="#00d0eb" d="M152 188h11v21h-11z"/><path fill="#0098ba" d="M261 62l-6 21-68-29z"/><path fill="#00d6f2" d="M109.9 120.9L86 96.3l36.1-11-12.9 9.1z"/><path fill="#00d0e9" d="M261.1 259.5l9.9-94.9v66.8l-27.5-5.6z"/><path fill="#019fc4" d="M37 198l-9-15v25z"/><path fill="#00d6f5" d="M260.6 86.5L271 56.7l-24.6-20.5 24.6-49z"/><path fill="#00b4d3" d="M90 214l44 40-71-13z"/><path fill="#01a6d1" d="M30 62h9v20h-9z"/><path fill="#00b1d3" d="M109 157l4 49 23-34z"/><path fill="#00c1dd" d="M44.8 165.3l6.8-10.6L40.8 142l-7.1 20.4z"/><path fill="#01a5cc" d="M56 220l-26 36 34-27z"/><path fill="#00d0ef" d="M47.8 66L59 63.3l-9.1 28.1-9.7-15.8z"/><path fill="#01aedc" d="M194.4-7.9l-27.2 32.4L141-7l71.8 12.3z"/><path fill="#01a4c7" d="M200 39h43v15h-43z"/><path fill="#00d1f2" d="M189 165h33v5h-33z"/><path fill="#00b6dc" d="M108 51l56-12-29-30z"/><path fill="#00ceef" d="M0 137h6v19H0z"/><path fill="#00b5dc" d="M235.5 32.7L271 82.3l-36.2-67.5 1.5 30.1z"/><ellipse cx="106" cy="71" fill="#00b2dc" rx="20" ry="9"/><path fill="#009bb6" d="M227.5 71.4l-5.1-4.3-21.5 25.8 25.8-4.9z"/><path fill="#00b5dd" d="M.5 243.5l44.3-28.1-50.3 9.7L4.1 271z"/><path fill="#00b5d5" d="M236 228.5L190.8 271l57.1-33.6-30.6-55z"/><path fill="#00b8e1" d="M83 71l-69 36 48 8z"/><path fill="#00b8dd" d="M157.8 191.5l5.9-11.6 36.5 18.6-5.9 11.6z"/><path fill="#02b6ce" d="M227.8 85.7l-.6-11 7-.4.6 11z"/><path fill="#00bde4" d="M96 106l-27 21-5 37z"/><path fill="#00d4f2" d="M78 149l21 25 7-26z"/><path fill="#009ec3" d="M211 42l-9 20-9-61z"/></g></g></svg>