<svg xmlns="http://www.w3.org/2000/svg" viewBox="0 0 1200 1800"><defs/><filter id="a"><feGaussianBlur stdDeviation="12"/></filter><rect width="100%" height="100%" fill="#2b4d3e"/><g filter="url(#a)"><g fill-opacity=".5" transform="translate(3.5 3.5) scale(7.03125)"><circle r="1" fill="#c4a1a7" transform="matrix(-92.68444 96.95177 -122.15922 -116.78238 103.1 100.9)"/><circle r="1" fill="#fff" transform="matrix(-8.69215 -73.87143 17.99194 -2.11704 136 36.2)"/><circle r="1" fill="#000014" transform="matrix(-6.4456 -84.2168 15.54625 -1.18985 68.4 167.1)"/><circle r="1" fill="#fffff5" transform="matrix(-11.43066 -4.23346 20.11569 -54.31387 43.5 30)"/><path d="M22.7 173.6l-10.1-52 16.7-3.2 10.1 52z"/><path fill="#00092a" d="M165 139l-21-33-16 65z"/><circle r="1" fill="#555461" transform="matrix(9.95671 -41.19457 80.5607 19.47149 42 224.7)"/><ellipse cx="45" cy="70" fill="#e1eae7" rx="6" ry="67"/><path fill="#fff" d="M146.2 17l-8 12.6L79.9-6.9l8-12.7z"/><circle cx="87" cy="37" r="34" fill="#84592a"/><path fill="#09100f" d="M56 140h20v99H56z"/><circle r="1" fill="#baa384" transform="rotate(126.6 30.3 58.5) scale(20.56078 33.29202)"/><path fill="#d8dad7" d="M131.2-16l36 134.8-42.3-25.1-6.8-19.5z"/><path fill="#e2e8ea" d="M46.6 23.9L107-16l42.2 33.6L15.7-16z"/><ellipse cx="76" cy="178" fill="#3a3538" rx="51" ry="16"/><circle r="1" fill="#5f4d25" transform="matrix(18.5565 -94.58323 21.40374 4.19925 0 14.9)"/><path fill="#354e1f" d="M33.2 75l16.1 13.5L28.8 113 12.7 99.5z"/><circle r="1" fill="#8899ab" transform="matrix(1.94349 14.00596 -72.90193 10.11598 147.5 196.7)"/><circle r="1" fill="#4e4a3f" transform="matrix(7.61689 -9.57206 45.92846 36.54722 98.5 115)"/><ellipse cx="16" cy="65" fill="#c4b891" rx="10" ry="29"/><circle r="1" fill="#073081" transform="matrix(15.69157 10.5046 -6.49073 9.69574 63.2 126.8)"/><circle r="1" fill="#6d747a" transform="matrix(-22.65582 -21.57484 24.4373 -25.6617 26.8 197.5)"/><path fill="#a6adba" d="M81.9 151.3l54-1.4-5.4 27.3 7.2-3.5z"/><circle r="1" fill="#5d6b81" transform="matrix(-63.81708 36.87211 -12.59956 -21.80691 165 226.8)"/><path fill="#00080f" d="M38.6 158.7l-8 7.5-23.2-24.9 8-7.5z"/><path fill="#afa290" d="M123 117l44 7V61z"/><path fill="#bec0ef" d="M79 181h28v4H79z"/><path fill="#00020c" d="M144 143h6v36h-6z"/><path fill="#7d7665" d="M147 0h23v44h-23z"/><path fill="#0e3100" d="M134 103.8l-12.1 4.7-4-10.3 12.2-4.7z"/><circle r="1" fill="#57422e" transform="matrix(25.95155 -5.72112 2.27085 10.30078 80.6 18.4)"/><path fill="#1a1614" d="M66 160h47v10H66z"/><path fill="#98a4bc" d="M151 148h19v25h-19z"/><ellipse cx="39" cy="117" fill="#bebeaf" rx="6" ry="19"/><path fill="#2b3939" d="M106.2 222.3l-9.6 25.2-30.8-11.8 9.6-25.2z"/><circle r="1" fill="#bdb795" transform="rotate(15.4 -445 60.1) scale(8.97321 25.16005)"/><circle r="1" fill="#786c4b" transform="rotate(-9.7 87.5 -127.2) scale(13.48712 28.02484)"/><path fill="#dfe3e8" d="M122.1 93.8l7.8-2L150.6-16l-30.5.4z"/><path fill="#d4d4cd" d="M30.4 67l-4.7-7.4 23.7 35.2 3.3-56.9z"/><circle r="1" fill="#8a9a99" transform="matrix(13.8833 27.52818 -16.5588 8.3511 0 166.7)"/><path fill="#8f989c" d="M75 193h95v8H75z"/><ellipse cx="167" cy="56" fill="#614627" rx="8" ry="19"/><circle r="1" fill="#1e1c2e" transform="matrix(16.225 -9.44317 1.84188 3.16467 116.4 184)"/><path fill="#5f4635" d="M52 25h9v92h-9z"/><path fill="#151017" d="M40.6 180.7l-11.3-.4 12.4 9 22.3 3z"/><path fill="#d3d6d6" d="M91-2l-53-8-7 26z"/><path fill="#b2ab96" d="M170 29l-14 23-23-3z"/><path fill="#40423e" d="M9 213l13-29 17 25z"/><path fill="#283751" d="M152.6 144.8l-2-41.4-8.1 4.5-14.4 38.2z"/><path fill="#e0e0da" d="M137.4 42.1l-2.2-2 65.4-70.2 2.2 2z"/><path fill="#9fa6ac" d="M32.6 198.5l22.7-.2 3.4-3.2-33.2-9.3z"/><path fill="#644f3a" d="M101.1 12.7l17 12 2.2 18 .2 39.3z"/><path fill="#b7b29e" d="M104 85l-14 25.4-6-3.4 14-25.4z"/><path fill="#020c1a" d="M82 145l5 33-36-10z"/><path fill="#132e64" d="M61.2 124.2l24.9 7.6-7.3 24-24.9-7.6z"/><path fill="#66666a" d="M19 244h139v12H19z"/><path fill="#8d8d83" d="M71.9 119.4l-1.7-6.7 6.3-43.2 3.4 58.1z"/><path fill="#f6dcbd" d="M96 47l-6-10-8 14z"/><ellipse cx="1" cy="68" fill="#3a372c" rx="6" ry="28"/><path fill="#8e8b9e" d="M116 181.6l-11.3.5-8.9 1.9 44.2-35.8z"/><path fill="#9ea3a9" d="M137 144l-50 10 40 13z"/><path fill="#5e533f" d="M175 8l-12 26-25 15z"/><path fill="#a9977c" d="M158 67h10v71h-10z"/><path fill="#a1acac" d="M142 115l-10-28-1 50z"/><ellipse cx="160" cy="140" fill="#2b2b31" rx="53" ry="4"/><path fill="#5e4a32" d="M31.5 133.5l-45.6 22.8L-.6 141l35.7-19.8z"/><path fill="#917f67" d="M38.1 91.8l39.1-5.5-31.3-47.5L115.6 63z"/><path fill="#1d1f19" d="M53 90h31v8H53z"/><path fill="#433b28" d="M35 24l-51 6 7-14z"/><path fill="#aba991" d="M107 121h-4V69h4z"/><path fill="#0d2616" d="M95 101h7v19h-7z"/><path fill="#00051b" d="M157 11l6-18 16-9z"/><circle r="1" fill="#1b2f4d" transform="rotate(-60.7 185.4 -57.2) scale(15.26355 10.5008)"/><circle r="1" fill="#b6b099" transform="rotate(-71.7 55 17.5) scale(31.3973 6.38794)"/><path fill="#475334" d="M39 82l-13 38L9 94z"/><path fill="#938781" d="M52.4 171.1l-15.1 7.5 24.2 8.1-12.2-31.5z"/><path fill="#8c9aa2" d="M54.8 163.5l-20.2-5.2 17.4-7.2.5-6.1z"/><path fill="#302b1d" d="M55 189h20v52H55z"/><path fill="#2b2215" d="M63 186h51v6H63z"/><path fill="#2e4b12" d="M105 102h28v4h-28z"/><path fill="#2f5dbc" d="M59 117h16v7H59z"/><path fill="#6c553d" d="M84.5 60.2l8.9 5.6 2.8-11.2 15.9-24.7z"/><path fill="#d7dbdd" d="M123.6 30.8L90.3-16l56.3 30.9-26.2 79.9z"/><path fill="#938864" d="M-16 153l39-58-8 31z"/><ellipse cx="130" cy="186" fill="#9ca8bc" rx="11" ry="5"/><path fill="#8e9ca0" d="M106.1 141.8l.8 1.3-23.3 13.5-1.7-18.3z"/><path fill="#958766" d="M15.5 53.6l23-24.6 1-5.1L-.7 39.8z"/><path fill="#bab7a6" d="M113 108h5v16h-5z"/><path fill="#c3c4c1" d="M158 124l-26-65 22-19z"/><circle r="1" fill="#0d1c2b" transform="matrix(-7.26217 8.19997 -7.38737 -6.5425 27.1 152.6)"/><path fill="#9ea8b4" d="M149.3 21.2l6.6-10.3.1-26.9-7.3 14.3z"/><path fill="#1a2d1e" d="M107 109l6-6-1 23z"/><path fill="#82725e" d="M113.8 181.1l-1.3-2.8-29.6-4.8 16.1-9.9z"/><path fill="#3c4136" d="M83 102l7 11-11 7-7-11z"/><path fill="#555862" d="M35 262l28-25-79-34z"/><path fill="#291c15" d="M93 36l-7 3 4-14z"/><path fill="#a3b1c0" d="M65 201h2v11h-2z"/><ellipse cx="43" cy="32" fill="#c9cbc7" rx="7" ry="58"/><path fill="#adada4" d="M29 131h21v6H29z"/><path fill="#a49983" d="M78.2 108.1l-.8-29.4 60.5 21.2-74-33z"/></g></g></svg>