<svg xmlns="http://www.w3.org/2000/svg" viewBox="0 0 1200 1800"><defs/><filter id="a"><feGaussianBlur stdDeviation="12"/></filter><rect width="100%" height="100%" fill="#4c423c"/><g filter="url(#a)"><g fill-opacity=".5" transform="translate(3.5 3.5) scale(7.03125)"><circle cy="103" r="159" fill="#919a93"/><ellipse cx="69" cy="15" fill="#d2dbe6" rx="61" ry="28"/><circle r="1" fill="#464338" transform="matrix(-112.91426 17.48005 -5.83428 -37.68717 100.4 73)"/><circle r="1" fill="#939a92" transform="rotate(153.7 56.6 107) scale(24.2372 15.40942)"/><path fill="#232015" d="M77 210h93v28H77z"/><circle r="1" fill="#2c2d25" transform="matrix(20.98655 -24.88181 10.79183 9.10236 72.1 174.4)"/><ellipse cx="22" cy="146" fill="#9b9a89" rx="30" ry="27"/><ellipse cx="169" cy="104" fill="#6e736b" rx="53" ry="51"/><circle r="1" fill="#c9caca" transform="rotate(-47.1 47.2 -20.6) scale(22.80985 11.89749)"/><path fill="#b5babf" d="M66 9h28v47H66z"/><circle r="1" fill="#878980" transform="rotate(-111.4 105 115.3) scale(52.28567 40.08633)"/><path fill="#4e4a3f" d="M54-5L31 130l42-43z"/><path fill="#1e2021" d="M12.8 12.6L-3.2-16 35-8.2 3 24z"/><path fill="#312c1e" d="M-6 193l59-17h-69z"/><path fill="#4f4f48" d="M145 156l-34 59-8-97z"/><path fill="#303027" d="M185 38.2l-79.6 29.5-62 24.6 120.2-77.9z"/><path fill="#7d7c76" d="M76 27h63v17H76z"/><path fill="#cad6e5" d="M10 6l-26 53V-5z"/><path fill="#a9aeab" d="M61.6 227.3l13.7-5.6-5.1-30.2-10.9 16.8z"/><path fill="#e0ebf6" d="M100.6-12.7l18.6-4 6.2 29.4-18.6 4z"/><path fill="#0d0d05" d="M9 40L6 23l-22 33z"/><ellipse cx="55" fill="#383934" rx="22" ry="3"/><circle r="1" fill="#aeb3b2" transform="rotate(-142 78.3 73.8) scale(6.96651 10.08931)"/><path fill="#d1d7de" d="M65 41L60-5l27 24z"/><ellipse cx="31" cy="80" fill="#2a261c" rx="34" ry="5"/><path fill="#94928c" d="M93.6 132.2l-11.8 22.1-27.4-14.5 11.8-22.1z"/><path fill="#c3c9cf" d="M22 40.5L6.9 24.1l56.6 2.1L21.3-9z"/><path fill="#322e25" d="M58.1 203.5l99.4 18.1-116 11.9 83.1-25.8z"/><path fill="#66685b" d="M121 196h49v16h-49z"/><path fill="#6a6a66" d="M102.7-7.2l-5.1 20.4-24.3-6 5.1-20.4z"/><path fill="#484540" d="M38.8 239.4l-6.5-4.2-8.3-1.6-26.4 29.7z"/><circle r="1" fill="#42413c" transform="rotate(-117.4 104 3) scale(21.56007 8.14501)"/><circle r="1" fill="#9d9e98" transform="matrix(22.08806 -5.65512 1.08231 4.22735 153.8 185.3)"/><circle r="1" fill="#3b362c" transform="matrix(-.96812 .25047 -10.48665 -40.533 107.8 50.4)"/><path fill="#8a8980" d="M124 56h18v17h-18z"/><circle r="1" fill="#929382" transform="rotate(-102.1 178.7 66.4) scale(9.62947 5.5518)"/><path fill="#292f2c" d="M141 86l5-64 39-32z"/><path fill="#363b39" d="M154 175l-25-4-9-31z"/><ellipse cx="69" cy="242" fill="#666152" rx="25" ry="7"/><path fill="#aaaeb0" d="M118.2 36.9h-.9l-22.4-22 43 6.2z"/><path fill="#837e6e" d="M171.1 64.8l-13.6-5.6-11.8 24.9 39.3.8z"/><path fill="#898b85" d="M98.4 155.4l10.6 10.4 14.9-2-14-19.8z"/><circle r="1" fill="#acb3ad" transform="matrix(-2.9143 -4.30306 12.94208 -8.7652 33 255)"/><path fill="#c3cad2" d="M88.6 36.6l12.4-6.5L69.1-.3l18 32.2z"/><circle r="1" fill="#7a7668" transform="matrix(-11.51059 -20.01752 9.9355 -5.71316 19.6 101)"/><path fill="#47463f" d="M78 151l-28-7 41 82z"/><path fill="#6d6a63" d="M23 49l70 13 10-22z"/><path fill="#959591" d="M61.6 43L14.4 20.4l42.9 12.9L72.7 2.7z"/><circle r="1" fill="#454239" transform="matrix(-.20902 -2.342 29.62775 -2.6442 125.6 182.3)"/><circle r="1" fill="#3a382f" transform="matrix(1.26406 -3.94333 26.23791 8.41074 30.2 62.7)"/><path fill="#969997" d="M13.7 201.6l12 4.8-15.4 38-12-4.8z"/><path fill="#81837c" d="M148.7 110.5l4.8 11.9-.5 45.8-33.6-33.9z"/><circle r="1" fill="#3f3d32" transform="matrix(-22.43023 11.22112 -7.51662 -15.0252 116.3 241.3)"/><circle r="1" fill="#3b392d" transform="matrix(1.50255 -5.04021 5.37417 1.6021 7.7 209.3)"/><path fill="#595a57" d="M103.5 56.8L77.6 38.6l-.3 10.2 1-20.6z"/><path fill="#6b675a" d="M105.5 216.7l10.2-19-34.7 26-14.7-18.5z"/><path fill="#373329" d="M101.5 34.8l24.8 55-6.4-11.5L101.7 21z"/><path fill="#929694" d="M112.9 202.3l-16.3 5-3.5-11.6 16.3-5z"/><path fill="#7b857f" d="M163 95h7v31h-7z"/><path fill="#99978a" d="M-4 167.3l67.7-36.4L41 163.3l2.6-35.7z"/><path fill="#e7f2ff" d="M78 45L63 35l9-4z"/><path fill="#78796f" d="M136.3 89.7l18.9 1.5-42.5 25.2 1.5-19z"/><path fill="#c3cacc" d="M79.7 221.8l-1.3 1.4-16.1-15 1.3-1.4z"/><path fill="#5c584b" d="M29.4 165l32.5 24-2 30.6L38.7 189z"/><circle r="1" fill="#a6afa8" transform="matrix(1.58103 -2.9542 4.84954 2.59538 17.3 194.4)"/><path fill="#a4a7a8" d="M38.6 229l-6.3 3-9-19 6.4-3z"/><path fill="#232019" d="M122.2 214.3l-29.5 1.2-19.4 9.1 37 1.6z"/><path fill="#34393b" d="M108 88h5v44h-5z"/><path fill="#a8a9a7" d="M8.8 37.4l2.1-17.9L47 49.6l-8-36.1z"/><path fill="#757b6d" d="M161 15L147 4l4-20z"/><path fill="#8a8d8a" d="M84.9 170.3l14.6 33.4-8-47.8 6.4 2.8z"/><path fill="#454135" d="M62.8 72l5.8 22.1 106.6-6-83.9-.9z"/><ellipse cx="48" cy="251" fill="#9da098" rx="25" ry="3"/><path fill="#424643" d="M176 113.1l-24 36.2-1.3 16 9.7 2z"/><path fill="#c0c4c2" d="M55-16L87 6l14-20z"/><path fill="#565b61" d="M51 7.3L-14-16l.9 16.2 83.2 1.4z"/><path fill="#483f32" d="M5 163h16v5H5z"/><path fill="#625a4c" d="M56.7 249.7l44.5-20.5L82.7 271l-23.3-44.4z"/><path fill="#353127" d="M37.3 97.7L8.5 68.1-16 78.6l55.3 1.3z"/><path fill="#5f5a4d" d="M21 206l5-19 21 36z"/><path fill="#3e3a2f" d="M28 244l4-6-20-8z"/><path fill="#363834" d="M67.4 162l20.2-5.9-5.6 44.4-17-39.8z"/><path fill="#666356" d="M-1.6 138.7l112.5-8.2-98.4 10.4-28.5 36.3z"/><path fill="#868682" d="M49.9 35.1l18.3 17.3L61.4 20l16.2-2.2z"/><path fill="#939491" d="M116 174h24v6h-24z"/><path fill="#a3a295" d="M13.8 137.8l-19.7 37.4 14.6-18.1 21.5-11.4z"/><path fill="#615d55" d="M-7.8 56.6L8.3 37.4l21.5 18-16.1 19.2z"/><path fill="#909088" d="M75.6 235l-38.7-13.3 31.7 4-6.7 18.2z"/><circle r="1" fill="#37342b" transform="rotate(111 -34.4 110.7) scale(4.50065 12.93447)"/><path fill="#25231f" d="M147 69l-10 7-5 13z"/><path fill="#4d473b" d="M101 177h15v16h-15z"/><ellipse cx="55" cy="1" fill="#30302e" rx="2" ry="19"/><path fill="#424442" d="M-7.1 2.1L30.4-16-4.9 44.9 14.7 4.4z"/><ellipse cx="69" cy="200" fill="#b6bdbe" rx="5" ry="4"/><path fill="#4c4d4c" d="M76.8 137.8l-.9-2.6-19.5-6.4L72.6 141z"/><path fill="#6f716b" d="M45.7 142.4l20-33.2L28.8 134l26.8-44.8z"/><path fill="#191713" d="M147 222l-25-5 22-10z"/><path fill="#787568" d="M29 160l33 3 2 16z"/><path fill="#474c43" d="M147.6 19.4l-9.1 27-9.2-52.6L161.2 14z"/><path fill="#8a877c" d="M124.1 185l3 .3-3.2 25.8-3-.4z"/></g></g></svg>