<svg xmlns="http://www.w3.org/2000/svg" viewBox="0 0 1800 1012"><defs/><filter id="a"><feGaussianBlur stdDeviation="12"/></filter><rect width="100%" height="100%" fill="#2f3847"/><g filter="url(#a)"><g fill-opacity=".5" transform="translate(3.5 3.5) scale(7.03125)"><circle r="1" fill="#b8d5f7" transform="rotate(84.9 17.2 77.7) scale(82.1749 190.24306)"/><ellipse cx="156" cy="112" fill="#3c4c5d" rx="254" ry="33"/><circle r="1" fill="#9fb4d1" transform="matrix(194.69629 2.66946 -.54992 40.10848 44.4 41.2)"/><path fill="#20140e" d="M184.6 89.6L97.2 75.1 56.5 92.4l44.3 3.4z"/><ellipse cx="221" cy="117" fill="#4e6b88" rx="123" ry="24"/><circle r="1" fill="#658ec0" transform="rotate(-76.5 86.2 -109.4) scale(44.44013 255.00001)"/><ellipse cx="36" cy="64" fill="#adafb7" rx="59" ry="25"/><ellipse cx="196" cy="87" fill="#433a37" rx="132" ry="7"/><path fill="#a7a6ab" d="M127.5 82.4l-23.7-42.7 91 63.7-9.1-34.3z"/><ellipse cx="207" cy="69" fill="#9da6b1" rx="146" ry="11"/><ellipse cx="9" cy="125" fill="#5a687b" rx="28" ry="45"/><circle r="1" fill="#222123" transform="matrix(-12.39984 .31024 -.1574 -6.29081 215.5 89.6)"/><circle r="1" fill="#8d868a" transform="matrix(-.19449 3.04692 -28.29107 -1.80584 255 94.6)"/><path fill="#988e90" d="M28.9 97L58 99.1 19.4 82.7l8.9-4.2z"/><circle r="1" fill="#97a7bd" transform="rotate(70.4 7.2 89.6) scale(27.0751 35.48826)"/><path fill="#a09694" d="M183 88l21 10-39-2z"/><circle r="1" fill="#517eb2" transform="rotate(-153.9 114.8 -26.6) scale(114.4629 20.43786)"/><path fill="#2d4151" d="M83.1 158l-33.6-27-41.8-4.2 44.7-3.9z"/><circle r="1" fill="#7f98b9" transform="rotate(16.6 9.7 230.1) scale(203.93689 25.05395)"/><path fill="#516377" d="M164.4 84.6l66 24.3-49.9 19.2 15.1-49.3z"/><path fill="#80828e" d="M90.6 99.7l40.8-6.2 2.6-7.6 8.6 13.5z"/><path fill="#262c36" d="M130.1 85.5l-5.3 6.8-53.4 3.2L102.1 75z"/><path fill="#313238" d="M138 79h21v16h-21z"/><ellipse cx="102" cy="126" fill="#3b536b" rx="28" ry="6"/><path fill="#534745" d="M31 88l-8 9-33-13z"/><path fill="#294257" d="M218 118h38v13h-38z"/><circle r="1" fill="#6b8db7" transform="rotate(112.4 86.6 68.3) scale(16.47532 76.80768)"/><path fill="#878182" d="M58.3 92.1L70.4 96l38.8-1.2-56.3 6.5z"/><ellipse cx="27" cy="73" fill="#adadb2" rx="84" ry="8"/><ellipse cx="189" cy="97" fill="#8c8e97" rx="38" ry="2"/><path fill="#9a8d88" d="M0 98l-.8-6L14 90l.8 6z"/><path fill="#4c474a" d="M51.6 89.9l86 4.8H51.1l-11-.9z"/><ellipse cx="213" cy="107" fill="#435e78" rx="55" ry="10"/><path fill="#1a2c33" d="M84.6 146l-35.8-3 .6-7 35.8 3z"/><path fill="#5f7a95" d="M46 141l-54 17-7-18z"/><path fill="#1d2e37" d="M0 138h76v2H0z"/><path fill="#c0c0c2" d="M162 80h21v2h-21z"/><path fill="#6a7796" d="M0 81h60v4H0z"/><path fill="#677e99" d="M103 122h83v3h-83z"/><path fill="#607b98" d="M229 123h27v3h-27z"/><circle r="1" fill="#8ca2c0" transform="matrix(-1.56887 -16.97343 62.56507 -5.78296 54.3 33.4)"/><ellipse cx="209" cy="56" fill="#8197ad" rx="59" ry="16"/><ellipse cx="35" cy="109" fill="#596f8a" rx="125" ry="13"/><path fill="#3e5a73" d="M173 117l-31 31-41-1z"/><path fill="#726764" d="M228.3 80.1l-28.4-.4-28.1 2.3.1 12z"/><path fill="#4e6680" d="M124.6 158l-46.8-34.9-41.7 8.4 48.4 8.4z"/><path fill="#506983" d="M151 108h65v14h-65z"/><ellipse cx="25" cy="107" fill="#41556a" rx="62" ry="2"/><path fill="#9ea7b5" d="M-16 68.8l174.7 9.4-38.3 3.1-2.3-27.9z"/><path fill="#637c94" d="M170 136h26v4h-26z"/><path fill="#48464a" d="M176.9 83.5l-3.7 8.4-16.4 4.7-.2-15.7z"/><path fill="#647890" d="M36 137.5L7.2 116.3l64.6-8.1-68 23.2z"/><path fill="#c3bcba" d="M29 94h14v3H29z"/><path fill="#202124" d="M200 92l-3-4 18-4z"/><path fill="#605e62" d="M253.6 98.7L215.5 81l40.6-.9-2.9 19z"/><path fill="#142731" d="M246 141.3l-26.1-1.6 8 5.6 25.2 12.7z"/><path fill="#212327" d="M18 91h8v5h-8z"/><path fill="#a29c99" d="M109.4 98.9l-.3 1L86.6 95l.3-1z"/><path fill="#2d323a" d="M71.8 96.4l-6-1.6.4-9.4 19.5-2.9z"/><path fill="#253d4f" d="M193 125h48v3h-48z"/><path fill="#a9a1a0" d="M56.7 98.7L56 97l9.3-3.6.7 1.8z"/><path fill="#7f99be" d="M-16 3L87-16l67 58z"/><path fill="#c0b6b6" d="M127.7 94.3l12.8 2.4-.2 1-12.8-2.4z"/><path fill="#63616a" d="M0 88h39v4H0z"/><path fill="#2a2d37" d="M148 85l-77 6 39-14z"/><path fill="#28363f" d="M85.2 119l17.9 2-.3 2-17.9-2z"/><path fill="#3b4f62" d="M63 120l-13-3 22-2z"/><path fill="#516984" d="M160 128l-36 5 12-9z"/><ellipse cx="58" cy="125" fill="#2e4150" rx="38" ry="1"/><path fill="#9696a6" d="M38 86h27v3H38z"/><ellipse cx="211" cy="109" fill="#57728e" rx="44" ry="2"/><path fill="#a8a3a7" d="M243.3 92.3l.2 1-12.8 2.4-.2-1z"/><path fill="#757885" d="M171.1 96.2L180 98l-52.9-5.9 20.9 8z"/><path fill="#1c3546" d="M184 140h24v3h-24z"/><path fill="#6d819c" d="M53 130h37v2H53z"/><path fill="#2f4659" d="M167 129h32v6h-32z"/><path fill="#2b3b49" d="M54 133h12v10H54z"/><path fill="#182a2f" d="M104.6 135.2l.5-1.9 20.3 5.5-.5 1.9z"/><circle r="1" fill="#1b2d39" transform="matrix(20.84935 2.37548 -.1132 .99357 256.5 122)"/><path fill="#3c5066" d="M271 132.6v-32l-54.2 2.7 6.3-12.2z"/><path fill="#97908f" d="M180 95h39v2h-39z"/><path fill="#354759" d="M1 113h23v2H1z"/><path fill="#6e829b" d="M111 116h31v4h-31z"/><path fill="#485e73" d="M177.4 113.1l-6.5-3.4 2.5-11.7-38.5 25z"/><path fill="#5e5b5c" d="M98 94h17v3H98z"/><ellipse cx="41" cy="98" fill="#707682" rx="20" ry="3"/><circle cx="255" cy="137" r="5" fill="#243d52"/><path fill="#373a41" d="M157.9 76.3l-11.2 8.2-10.7 5 24 5.7z"/><path fill="#9197a1" d="M163 95h28v3h-28z"/><path fill="#a3a6ae" d="M160.1 80.8l10.3 1.9 16-2.3-29.7-10.9z"/><path fill="#374f66" d="M103 126h39v3h-39z"/><path fill="#394e61" d="M8.2 126.8l-2.6 14.8-13.8-2.4 2.6-14.8z"/><path fill="#c8bfbb" d="M0 94h5v2H0z"/><path fill="#1b1f26" d="M224 83l3 5-21 1z"/><path fill="#687c95" d="M78 137l-13-7 26 4z"/><path fill="#233745" d="M105 134h39v2h-39z"/><ellipse cx="74" cy="77" fill="#a6a9b0" rx="24" ry="3"/><path fill="#1f2f37" d="M29 138h8v4h-8z"/><ellipse cx="170" cy="126" fill="#283e50" rx="24" ry="1"/><path fill="#263948" d="M76.4 143.8l-.5-2 35.7-9.6.5 2z"/></g></g></svg>