<svg xmlns="http://www.w3.org/2000/svg" viewBox="0 0 3962 2229"><defs/><filter id="a"><feGaussianBlur stdDeviation="12"/></filter><rect width="100%" height="100%" fill="#33372f"/><g filter="url(#a)"><g fill-opacity=".5" transform="translate(7.7 7.7) scale(15.47656)"><circle r="1" fill="#fff" transform="rotate(-34.3 213.3 -203.2) scale(164.18845 132.74339)"/><circle r="1" fill="#fff" transform="rotate(7.3 -46 1615.4) scale(116.76047 36.6783)"/><circle r="1" fill="#0c1300" transform="rotate(99.7 4.3 41.2) scale(18.25427 101.86028)"/><circle r="1" fill="#e8d3b4" transform="matrix(236.60264 19.28176 -3.9305 48.23038 128.7 125.4)"/><path fill="#1c1c17" d="M59 5h26v75H59z"/><ellipse cx="159" cy="58" fill="#06130c" rx="51" ry="8"/><path fill="#bfd5eb" d="M169-16l-54 64-39-15z"/><ellipse cx="244" cy="29" fill="#e6f8ff" rx="80" ry="30"/><path fill="#c8e1fe" d="M26.5 7.1l21 10.4L76.8-16 29.9-3.5z"/><circle r="1" fill="#37352a" transform="matrix(-28.42186 -7.50938 1.61618 -6.117 214.6 81.9)"/><ellipse cx="14" cy="41" fill="#4b5145" rx="80" ry="30"/><ellipse cx="202" cy="108" fill="#3e2a23" rx="5" ry="17"/><ellipse cx="208" cy="62" fill="#2e3630" rx="128" ry="3"/><path fill="#cec1ad" d="M80 63l98 3-65 93z"/><path fill="#2f382d" d="M79-2l17 18-70 53z"/><path fill="#8093a1" d="M67.2 39.8L36.1 27 1 20.3l52.1-6.8z"/><ellipse cx="151" cy="21" fill="#c0d3e1" rx="30" ry="31"/><path fill="#08070b" d="M65 56h14v25H65z"/><path fill="#30331f" d="M3.7 63.5L-.4 29.7l42.7-5.2 4.1 33.8z"/><circle r="1" fill="#363329" transform="matrix(-.39807 2.53417 -22.43057 -3.52343 184 77.9)"/><path fill="#d5d2bf" d="M0 72h62v32H0z"/><path fill="#828176" d="M-12.4 47.6l32.6 5.1-3.8 23.7-32.6-5.1z"/><path fill="#b5c5d6" d="M96.3 48.1l24.6 1.5L66.8-16h126.1z"/><path fill="#907d6c" d="M62.3 116.3L71 77.7l15.1 30.2 5.4-.4z"/><circle r="1" fill="#716354" transform="matrix(-.46714 -16.72389 3.40261 -.09504 116.5 77.7)"/><path fill="#a4b7c8" d="M67.1.8l10.2 10.3-28.8-3.2-34-2.3z"/><path fill="#abbaca" d="M77 28h11v12H77z"/><ellipse cx="255" cy="47" fill="#fffffc" rx="44" ry="13"/><path fill="#1b2616" d="M87 39.6l8.3-3.3 9.7 24-8.3 3.4z"/><path fill="#716054" d="M136.1 72.6l8.6-3.6-5.7 25.2-1.4-9.9z"/><path fill="#c9c7b5" d="M142 68h69v6h-69z"/><path fill="#b2c1d4" d="M45 6h8v27h-8z"/><circle r="1" fill="#9a9c93" transform="rotate(90.5 -19.7 45.4) scale(3.11936 32.15099)"/><path fill="#272a22" d="M54 31l39-17H59z"/><path fill="#3b3c36" d="M237 89l-14-15-26 6z"/><path fill="#c47f63" d="M75 53l5-2v18z"/><circle r="1" fill="#cad6e1" transform="rotate(-116.1 111.7 -67) scale(20.2836 99.01834)"/><path fill="#414c40" d="M105.8 64.1l24.6-31.5-7.9 28.3 17.9-12z"/><circle cx="234" cy="116" r="28" fill="#b6b09f"/><ellipse cx="215" cy="60" fill="#576167" rx="32" ry="3"/><path fill="#332f28" d="M66 67h44v2H66z"/><path fill="#cbc1ac" d="M85 97h115v47H85z"/><path fill="#342e23" d="M5 58h49v4H5z"/><path fill="#9c8e78" d="M207.4 119.7l4.6 7.7-21.4 12.9-4.6-7.7z"/><path fill="#e5e9e3" d="M271 103.5h-22.3l-18.8-6.1-2.6-5.9z"/><path fill="#acbed2" d="M68.1 8.7L80 .7l191 9.6L38.1-16z"/><circle r="1" fill="#3b4436" transform="rotate(-79.8 100.7 -50.5) scale(7.26141 31.91183)"/><path fill="#aec2dc" d="M14 14h4v10h-4z"/><path fill="#cdc6b5" d="M57.7 62.5L90.4 159 71.5 85.2l-83.7 36z"/><path fill="#c5d1d9" d="M88.6-12.3l-4 16.9 86.8 6.1L100.6 52z"/><path fill="#92b2b4" d="M254 85l-26-4 43-25z"/><path fill="#826b68" d="M194 102h14v13h-14z"/><path fill="#383e26" d="M82.4 42.3l28.5 9.3-5.3 16.1-28.5-9.3z"/><path fill="#303831" d="M77.3 29.2L64 17.2 78.7.8l13.3 12z"/><path fill="#cdc5b4" d="M67.7 83.4l58.1-19.6-45.3 43.1 6.1-28.5z"/><path fill="#bac8da" d="M46 14L33 7l45-23z"/><path fill="#2d382c" d="M45.4 17.8L44 20.5 24.6 10.2 26 7.5z"/><path fill="#93a2ae" d="M42 30h25v4H42z"/><path fill="#2b321e" d="M-5 48V4l47 49z"/><path fill="#795d48" d="M83.3 112.2l-5.5-1.8 3.6-16.5h-6.8z"/><path fill="#603726" d="M66 95h2v21h-2z"/><path fill="#42422b" d="M23 10l33 44-17 8z"/><path fill="#9eadbe" d="M157 12.3l-6.6-.1L110.8-16h90.6z"/><ellipse cx="172" cy="56" fill="#3c4245" rx="11" ry="7"/><path fill="#c4d2da" d="M129 47l5 3 3-6z"/><path fill="#504d45" d="M177.8 73.6l41 2.8-.6 8-41-2.8z"/><path fill="#58646a" d="M226.5 58.9l-44.7-6.4 21.7 14.6 67.5-2.3z"/><ellipse cx="201" cy="44" fill="#ebf3ef" rx="40" ry="7"/><path fill="#314440" d="M58 6h7v11h-7z"/><path fill="#cec4b4" d="M121 64h9v46h-9z"/><path fill="#363b34" d="M218 84h28v4h-28z"/><path fill="#b4b5ab" d="M177 66h27v9h-27z"/><circle r="1" fill="#474f48" transform="rotate(-35.4 67.5 -126) scale(1 18.75527)"/><path fill="#716b5d" d="M236.3 85.7l-28.4 2.2 18.7 6.7-1.1-9.1z"/><ellipse cx="116" cy="77" fill="#4d3a33" rx="2" ry="7"/><path fill="#95a8b6" d="M45 23l-10 1-7-12z"/><path fill="#435050" d="M64.6 17.9l-14.2-5 1-2.8 14.2 5z"/><path fill="#cfc4b2" d="M181.7 125.1l-30.6-49.3L213 86.3 78.6 99.2z"/><path fill="#131714" d="M205.7 98.8l-6-.6.6-5 6 .6z"/><path fill="#a7b3bf" d="M88.2 22.9l-9.4 16.2 41.7-11.5-12 19.8z"/><path fill="#586460" d="M6.3 3.5L51.4.9 20.2-5.6 31.7 8.2z"/><path fill="#18201f" d="M51 21.1l7.5-5 .5.8-7.5 5z"/><path fill="#5d655f" d="M75.1 48.4l14.3-2.8-18-20.7L78.3 59z"/><path fill="#8aa4a4" d="M228 66h25v19h-25z"/><path fill="#767165" d="M52 55h9v14h-9z"/><path fill="#3f4031" d="M46.4 31.7l11.1 31.4-23.1-.3 48.5-21z"/><path fill="#6d5d54" d="M138 70h4v20h-4z"/><path fill="#b7ac96" d="M195.7 159l-14.9-19.9-.9-18.3 91.1 20.9z"/><path fill="#f9fff6" d="M230 38h26v21h-26z"/><path fill="#857d6d" d="M161.5 75.2l-41-1.4v-1l41 1.4z"/><path fill="#c4cfdc" d="M218 0h27v30h-27z"/><path fill="#d6e0e8" d="M261.3 11.8L109.6 26l139.2-39.8-86.4 65.3z"/><path fill="#aebbca" d="M17 5l28-3.2 5 19.8L30.1 4.1z"/><path fill="#6b6450" d="M0 68h32v5H0z"/><path fill="#a4b0b8" d="M96 45l12 4 6-8z"/><path fill="#d9ccb9" d="M80 72h2v27h-2z"/><path fill="#c5cfd3" d="M193.7 11.6L129.3 31l-39-8.9L160.8 53z"/><circle r="1" fill="#839fa4" transform="rotate(-88 149 -82.3) scale(3.87566 35.88678)"/><circle r="1" fill="#d0c7b3" transform="matrix(3.12211 .0453 -.17277 11.9075 73.3 103)"/><path fill="#1a1e21" d="M80 79l-8-27-8 24z"/></g></g></svg>