<svg xmlns="http://www.w3.org/2000/svg" viewBox="0 0 3960 2228"><defs/><filter id="a"><feGaussianBlur stdDeviation="12"/></filter><rect width="100%" height="100%" fill="#59372e"/><g filter="url(#a)"><g fill-opacity=".5" transform="translate(7.7 7.7) scale(15.46875)"><circle r="1" fill="#c7f1e6" transform="matrix(-22.78208 140.6608 -157.40193 -25.49355 124.3 59)"/><ellipse cx="199" cy="20" fill="#fff" rx="141" ry="28"/><circle r="1" fill="#000e0c" transform="rotate(-83.9 43 -2.2) scale(9.20368 86.73757)"/><ellipse cx="119" cy="115" fill="#747360" rx="144" ry="72"/><ellipse cx="233" cy="30" fill="#f5fdf3" rx="109" ry="18"/><circle r="1" fill="#97aabc" transform="matrix(64.25593 -10.22707 3.85985 24.25117 76.3 8.2)"/><path fill="#1a2518" d="M2 5l18 38-36 9z"/><circle cx="52" cy="96" r="49" fill="#9e8c72"/><circle r="1" fill="#698d90" transform="rotate(7.4 -471 1518.3) scale(120.92336 19.97778)"/><ellipse cx="122" cy="88" fill="#3b221b" rx="5" ry="17"/><ellipse cx="213" cy="1" fill="#718598" rx="30" ry="6"/><circle r="1" fill="#6a7467" transform="matrix(-6.44846 17.42592 -86.02515 -31.83358 210.5 115.8)"/><circle r="1" fill="#31424e" transform="matrix(-.13635 3.27185 -42.47438 -1.77 118.5 47.1)"/><path fill="#b0bdc4" d="M205.7 27.4L31.9 23.1l177.7-13 35.8-8.5z"/><path fill="#21281f" d="M20 33h51v14H20z"/><ellipse cx="255" cy="28" fill="#fbfef1" rx="36" ry="21"/><ellipse cx="97" cy="132" fill="#907e65" rx="112" ry="28"/><circle r="1" fill="#a7b2b8" transform="matrix(-8.38608 29.71698 -42.13702 -11.891 73.3 3.4)"/><path fill="#5b463d" d="M145.8 71.5l-3.2 34.4 5.6 18.4 3.1-35.2z"/><path fill="#81909f" d="M6-14l45 47-43-5z"/><circle r="1" fill="#879b9a" transform="matrix(-.13578 13.21284 -84.97253 -.8732 244.6 65)"/><circle r="1" fill="#948c7d" transform="matrix(4.57284 -22.251 69.0018 14.18066 37.9 71.9)"/><path fill="#d0dee3" d="M196 29L110-1l58-15z"/><path fill="#627880" d="M64 49h192v6H64z"/><path fill="#121b12" d="M10 20l-26 6L2 8z"/><path fill="#404646" d="M70 54.9l19.9-14.7-5.6-6-41.9 1.9z"/><circle r="1" fill="#a0acb3" transform="matrix(-40.8992 -12.3482 1.7627 -5.83832 120.9 13)"/><path fill="#2f3528" d="M17.9 42.4l-4.4-6.7 12.6-8.1 4.4 6.7z"/><path fill="#e6f0e6" d="M117 25h23v17h-23z"/><path fill="#6e877e" d="M193.3 69.1l84 37.4-12.6 28.4-84-37.4z"/><path fill="#eff4ea" d="M164 24l39-8-35 26z"/><path fill="#9b9384" d="M124 97h17v25h-17z"/><path fill="#a09b92" d="M97.1 75.5L119 99l-8 7.5L89 83z"/><path fill="#9babaf" d="M98 37l-2-15 20 11z"/><ellipse cx="46" cy="50" fill="#7f8379" rx="75" ry="3"/><circle r="1" fill="#597777" transform="matrix(46.3793 1.2199 -.13784 5.24052 118.8 53.8)"/><path fill="#493226" d="M121 76h3v39h-3z"/><circle r="1" fill="#767360" transform="matrix(65.84013 31.26319 -3.6215 7.62688 232.1 143.3)"/><path fill="#ced5d0" d="M239 56h17v3h-17z"/><path fill="#8e9aa5" d="M17.5 30.5L72.1 3 46.4-12.2.5 27.6z"/><path fill="#241b12" d="M178 90h4v5h-4z"/><ellipse cx="128" cy="46" fill="#2d393e" rx="19" ry="2"/><path fill="#433736" d="M150 104l-1-27-5 17z"/><path fill="#b8c3ca" d="M224.9 6.3l-95.8-5.1 5.3-15.1 82 40.8z"/><path fill="#3e464a" d="M123 42H96l22 6z"/><path fill="#b6bfbe" d="M57.9 13.6l62.1 17-78.6 1.8-2.2.9z"/><path fill="#8496ab" d="M30.4-4L12.7 17.8-4.3 4l17.6-21.8z"/><path fill="#d7e1e6" d="M240.7 16.3l1.7-32 27 1.4-1.8 32z"/><circle r="1" fill="#7b8e85" transform="matrix(10.28536 -4.32357 7.64961 18.1977 161.5 83.2)"/><ellipse cx="73" cy="46" fill="#232e21" rx="34" ry="2"/><path fill="#2e3724" d="M23 27h5v19h-5z"/><path fill="#184e63" d="M118 92h10v5h-10z"/><path fill="#bfcacc" d="M135.3 31.1l14.3 5.7v-2L204.3-16z"/><path fill="#dbdfd2" d="M121.3 34.2l115.4 12.6-87.2-.4-7.9-2.8z"/><path fill="#96a2aa" d="M118 15L91 3l51 4z"/><path fill="#120a00" d="M65 51h6v2h-6z"/><path fill="#7e5c4b" d="M133 95l-15-19-2 13z"/><path fill="#80715a" d="M134.4 159l3.6-33 10.8-27.8-5.2 60.8z"/><path fill="#a09683" d="M32 48h41v2H32z"/><path fill="#4d6069" d="M155 47h13v4h-13z"/><path fill="#38352c" d="M56 50h18v2H56z"/><path fill="#96a399" d="M271 60.4l-45.9 14.4 46.6 7-31 11z"/><circle cx="147" cy="83" r="2"/><path fill="#3a424a" d="M58 32h7v8h-7z"/><circle r="1" fill="#928973" transform="matrix(68.21527 30.76384 -10.97927 24.34528 14.6 92.2)"/><path fill="#708487" d="M136 49h83v10h-83z"/><path fill="#b1b9bc" d="M194.2 24.3l22.5-11 3 6.4-22.4 11z"/><path fill="#8a8576" d="M122.3 58.2l12.8 73.2-11.2-43.6 38 56.7z"/><ellipse cx="248" cy="23" fill="#fffffb" rx="22" ry="5"/><path fill="#313b35" d="M8.3 24.8l.4-1.4-.8-9.5-23.9-19z"/><path fill="#e2eced" d="M144.6 13.2l2.9-9.3 13.8 3-1.7 5.2z"/><path fill="#d9dcd1" d="M225.8 25.6l13.3 4.3-22.8 18.2-34.9.5z"/><path fill="#d3dbdd" d="M198 7l-9 18 30-15z"/><circle r="1" fill="#8b9697" transform="matrix(-33.56472 -.12023 .00626 -1.74653 209.7 54)"/><path fill="#9ea7a9" d="M29 13h23v20H29z"/><path fill="#908c7f" d="M41 74l25-22 62 29z"/><path fill="#7b827a" d="M132 70L73 50l27 28z"/><ellipse cx="105" cy="45" fill="#475152" rx="26" ry="3"/><path fill="#251f16" d="M120 74h5v7h-5z"/><path fill="#343d24" d="M27.8 49.7l-45.7-20.3 4.1-9.1 45.7 20.3z"/><path fill="#667a70" d="M181.8 92.5l48.7 3.1-40.8 11.6-14.8-11.8z"/><path fill="#585852" d="M5 47h12v2H5z"/><ellipse cx="251" cy="48" fill="#96a3a6" rx="81" ry="1"/><circle r="1" fill="#918c7b" transform="matrix(.54628 -14.084 37.97652 1.47301 33.3 61)"/><path fill="#778b84" d="M165.1 85.9l-32.8-12.4 73.1-7.6 62.8 38.9z"/><path fill="#afb9be" d="M158.6 11.7l-67.8 6.5 21.5.7 52.3 1.2z"/><path fill="#97a2aa" d="M239 6l-61-1 51-21z"/><path fill="#7d5e38" d="M16 100h9v3h-9z"/><path fill="#695d49" d="M188.5 126.9l61.5 31.3-.5 1-61.5-31.4z"/><path fill="#76523e" d="M119 101h3v15h-3z"/><ellipse cx="249" cy="41" fill="#f6f5dd" rx="33" ry="7"/><path fill="#b5bebf" d="M96 39L77-16v47z"/><path fill="#3a494e" d="M168.4 46.2v1l-24.8 2.6v-1z"/><path fill="#3b444a" d="M42 35h39v5H42z"/><path fill="#748989" d="M209 58h42v4h-42z"/><path fill="#838a81" d="M127.1 75l5.4 2.8-3.6 7.1-5.4-2.7z"/><ellipse cx="231" cy="8" fill="#b2bdc2" rx="17" ry="3"/><path fill="#9daaae" d="M98 29v8l20-7z"/><path fill="#979387" d="M115.9 91.7L78.5 67.3l27.6 30.3 15.1 18.1z"/><path fill="#8e826a" d="M2 127h133v17H2z"/></g></g></svg>