<svg xmlns="http://www.w3.org/2000/svg" viewBox="0 0 4544 3029"><defs/><filter id="a"><feGaussianBlur stdDeviation="12"/></filter><rect width="100%" height="100%" fill="#4e482a"/><g filter="url(#a)"><g fill-opacity=".5" transform="translate(8.9 8.9) scale(17.75)"><circle cx="125" r="132" fill="#c9daf6"/><circle r="1" fill="#706e6f" transform="matrix(13.66738 -70.31255 140.29266 27.27013 237.5 107)"/><ellipse cx="116" cy="10" fill="#d4e7fb" rx="116" ry="31"/><circle r="1" fill="#dcc8f1" transform="matrix(-16.93297 -22.49191 25.79528 -19.4199 242.2 153.3)"/><ellipse cx="28" cy="70" fill="#563a37" rx="24" ry="50"/><circle r="1" fill="#444529" transform="rotate(-79.8 144 -99.8) scale(24.27162 70.81357)"/><path fill="#f5fdfb" d="M47 27h75v27H47z"/><ellipse cx="18" cy="136" fill="#62607a" rx="166" ry="20"/><path fill="#c1cbcd" d="M-9 84l27-19L-3-7z"/><path fill="#c9ada5" d="M-18.2 118l70.1 34.3-5.7 11.6-70.1-34.2z"/><circle r="1" fill="#734c41" transform="matrix(-29.69301 -33.2785 17.63679 -15.73657 210.5 105.3)"/><circle r="1" fill="#242c41" transform="matrix(42.25187 4.79262 -5.80393 51.16761 97 169)"/><path fill="#cec9c4" d="M172 129l6-47-43 52z"/><path fill="#3a3d1a" d="M69 58l71-13-24 19z"/><ellipse cx="218" cy="20" fill="#d5d7d3" rx="115" ry="12"/><circle r="1" fill="#5a4844" transform="rotate(77.3 -41.2 74) scale(78.83307 16.76355)"/><path fill="#f1e6db" d="M238 143l-17 42-9-48z"/><path fill="#4a6b82" d="M269.5 64.2l2 58-49 1.6-2-58z"/><ellipse cx="137" cy="78" fill="#8ca3a0" rx="44" ry="24"/><circle r="1" fill="#1d3141" transform="rotate(24.4 -292.4 492.8) scale(23.82325 36.15985)"/><path fill="#bcc9d0" d="M93.2 108.6l.9-2.1L59.4 118l1.8 16.8z"/><ellipse cx="233" cy="38" fill="#554e26" rx="83" ry="6"/><path fill="#e0e4e0" d="M46 31h94v15H46z"/><path fill="#8fa9b2" d="M43.7 61.8L140 73 63.1 85.6l-25-17.8z"/><path fill="#7a9cc5" d="M107-28.9l20.5 12.4L93 40.9 72.5 28.5z"/><circle r="1" fill="#222923" transform="matrix(-2.91728 5.19853 -11.6426 -6.53352 1.6 55)"/><ellipse cx="199" cy="4" fill="#6f8eb7" rx="75" ry="5"/><ellipse cx="26" cy="36" fill="#433b34" rx="20" ry="11"/><ellipse cx="20" cy="164" fill="#10183f" rx="22" ry="12"/><path fill="#f6fffe" d="M266 145.9l-3.6 3.4-24.4-25.2 3.6-3.4z"/><path fill="#644c48" d="M0 76h55v42H0z"/><ellipse cx="191" cy="91" fill="#f7bd8d" rx="7" ry="8"/><ellipse cx="208" cy="81" fill="#483a33" rx="10" ry="35"/><circle r="1" fill="#515887" transform="matrix(11.75568 -1.35732 1.72613 14.94994 255 158)"/><path fill="#94a09a" d="M116 142.4l66.4 8.2-.3 3-66.5-8.2z"/><path fill="#969883" d="M232.5 72.2l-36.3-14.9 6.8.3 31.8-8.7z"/><path fill="#10406a" d="M75 107l-34 21-23-7z"/><path fill="#94c5e6" d="M14 145l-30-19 36 7z"/><path fill="#fffff3" d="M160 105l3 14 12-26z"/><path fill="#1e1316" d="M47 141l42 44 24-25z"/><path fill="#496766" d="M151.3 105.9l7.3 11.6-89.4-22.4 25.5-1.6z"/><path fill="#835a4e" d="M203 117h38v21h-38z"/><path fill="#5b5042" d="M143.3 134.9l17.8-14.9 14.3 31-68.5-17.2z"/><path fill="#cbd6dc" d="M28.6-16L-12.9 85.7l32.1-21.4-35.2 1.1z"/><path fill="#5c572b" d="M203 56l-76-6 25-13z"/><path fill="#b1746b" d="M205 166l-3-31 24 50z"/><path fill="#05030d" d="M156 166l7-20 16 17z"/><circle r="1" fill="#505d63" transform="matrix(-.381 -11.48507 38.91645 -1.291 97 133.9)"/><path fill="#393a2d" d="M221.6 27.8l-.7 16.5L181.7 68l19.6-26.6z"/><path fill="#d9dede" d="M44 53l96-12-89-16z"/><path fill="#7e7f75" d="M187.4 65.9l9.4 2.6-25.7 29.8L126.2 66z"/><ellipse cx="148" cy="62" fill="#baccda" rx="23" ry="3"/><path fill="#776d96" d="M168 109v24l24-13z"/><path fill="#545948" d="M31 55h94v7H31z"/><path fill="#3c271c" d="M45 88h10v41H45z"/><path fill="#3c2e21" d="M218.1 46.1l-28.8 29.1-5.7 11.2 27.3-15.8z"/><path fill="#96b7dc" d="M87 12L49 28 4 15z"/><path fill="#4c2732" d="M225 128h12v14h-12z"/><path fill="#94644c" d="M23.1 136.5l46.6-10.8L42.4 139l9.3 42z"/><path fill="#f8f5ef" d="M125.3 2.5l7.6 6.4-12.2 14.6-7.6-6.4z"/><path fill="#8d7872" d="M34.7 49.1l-20.9-.7 5.8-12.3 12.2-3.8z"/><path fill="#a9b5b2" d="M50.7 74.1l43-26.6-55.4 20.8-7.1-7.6z"/><circle r="1" fill="#7d764e" transform="matrix(-1.29953 -4.57782 29.56536 -8.3929 193 39.3)"/><path fill="#c6d5e1" d="M32.8-16.2L41.6-8-8.8 46.2l-8.8-8.2z"/><path fill="#7a5141" d="M89 165l-35-38 34 18z"/><path fill="#ebeae1" d="M138 9h13v29h-13z"/><circle r="1" fill="#374863" transform="matrix(9.90952 10.15466 -9.96435 9.7238 5.4 155.5)"/><path fill="#061119" d="M95.5 141.3l9.8 2L94.6 185l-9.2-14.1z"/><ellipse cx="119" cy="166" fill="#5f677f" rx="8" ry="7"/><path fill="#b4bab7" d="M143.8-16l56.9 50.5-50.4-1.5 6.3 21.6z"/><circle r="1" fill="#2d2f35" transform="matrix(1.78558 11.0536 -5.80308 .93742 39.7 40.7)"/><path fill="#6f4034" d="M193 124l9-24-26-5z"/><ellipse cx="255" cy="60" fill="#2f3314" rx="24" ry="6"/><path fill="#2c2b29" d="M15 24h16v10H15z"/><path fill="#415557" d="M242.4 127.7l-31.9-36.3 60.5 23.3-37.4 11z"/><path fill="#889aae" d="M53 2l65-18 3 28z"/><path fill="#dbd1da" d="M212.4 133.2l22 13.6-15.5-.7 13.5 38.2z"/><path fill="#a4b2c3" d="M239.8 32.6l3.6-25.8 18.8 2.6-3.6 25.8z"/><circle cx="131" cy="140" r="5" fill="#050101"/><path fill="#7a93b2" d="M160.7 18.1L173.3-16l23.5 36.4 13-36.4z"/><path fill="#8da5a2" d="M110 122L82 91l51 32z"/><path fill="#755f54" d="M-1 78.3l41.5 41.9-23.7-50.4 19.1-13.3z"/><path fill="#916c53" d="M195.2 120.7l15.4 51.5 4.9-45.6-19.6-23.9z"/><path fill="#5f3b2d" d="M58.5 145.5l-60.4-34.6L4 125.5l9.2 7z"/><circle cx="97" cy="124" r="10" fill="#344862"/><path fill="#4f5040" d="M89 53h33v10H89z"/><path fill="#312d11" d="M172 59h18v6h-18z"/><ellipse cx="223" cy="38" fill="#d1d5cb" rx="1" ry="28"/><path fill="#9fa8a2" d="M142 60.3l-11.2-17.2-17.6 60.2-17.9-28.6z"/><path fill="#3e5660" d="M123 66h43v3h-43z"/><path fill="#d2dcd8" d="M215 66v-4h13z"/><path fill="#938ab5" d="M238.4 142l-12.6 17.7 19.6 5.9.1-45.7z"/><path fill="#698bb6" d="M100-16l41.3 30.2-11.3 5.6L155.7-16z"/><path fill="#2d2838" d="M164.5 174.8l-12.4-25.6h-4.3l-54.9 3z"/><path fill="#bb9894" d="M165.7 70.9l19 45.6-26.5 15.3 21-7z"/><path fill="#9eb6cf" d="M39.4 11.3l35.2 21.5 40.2-2.1-2.4-8.2z"/><path fill="#806559" d="M199.1 76.9l4.3 32.9 24.2-21.5-38.3 3.3z"/><path fill="#c6c7c2" d="M170.5 7.6l36.8 27.1-.1-11.4-24-20.8z"/><path fill="#7d959d" d="M56 66h42v45H56z"/><path fill="#e9f1ee" d="M2 37.2l-18 58.2V34.6l28 18.3z"/></g></g></svg>