<svg xmlns="http://www.w3.org/2000/svg" viewBox="0 0 1800 1800"><defs/><filter id="a"><feGaussianBlur stdDeviation="12"/></filter><rect width="100%" height="100%" fill="#593a43"/><g filter="url(#a)"><g fill-opacity=".5" transform="translate(3.5 3.5) scale(7.03125)"><ellipse cx="147" cy="104" fill="#89b8bb" rx="255" ry="148"/><circle r="1" fill="#f9ffff" transform="matrix(101.61147 26.67057 -11.6696 44.4597 174.1 0)"/><ellipse cx="128" cy="158" fill="#414342" rx="93" ry="106"/><ellipse cx="240" cy="74" fill="#b4d0e5" rx="28" ry="88"/><ellipse cx="55" cy="49" fill="#dcf1ff" rx="63" ry="8"/><ellipse cx="15" cy="100" fill="#b1c6d2" rx="19" ry="62"/><path fill="#aeb9bf" d="M54.6 236l2.2-17.9 64.6 8-2.2 17.8z"/><circle cx="170" r="54" fill="#bcd5ec"/><ellipse cx="130" cy="26" fill="#1d0000" rx="4" ry="18"/><circle r="1" fill="#5f0c17" transform="rotate(84.4 54.6 153) scale(25.97199 12.20207)"/><circle r="1" fill="#93abaa" transform="matrix(3.46721 -30.2805 26.92986 3.08355 239.2 255)"/><ellipse cx="105" cy="144" fill="#174d1b" rx="22" ry="32"/><circle r="1" fill="#3a5159" transform="rotate(-179 27.5 13.9) scale(71.03807 13.01508)"/><ellipse cx="128" cy="203" fill="#363f46" rx="91" ry="22"/><path fill="#543239" d="M90.9 55.6l-55.5 62.6-2-49.9-.3-7.3z"/><path fill="#687a8b" d="M211.8 63.5l54.9-23.1-32.8-3.7-82.9 4.8z"/><circle r="1" fill="#838c80" transform="matrix(1.44932 -19.73602 79.82496 5.86198 27.3 229)"/><circle r="1" fill="#6e7b82" transform="matrix(73.80686 27.3753 -10.63168 28.6642 200.8 147.9)"/><ellipse cx="156" cy="238" fill="#b4bcbd" rx="16" ry="7"/><circle r="1" fill="#132022" transform="matrix(-10.60284 1.97077 -4.47693 -24.08611 130.2 247.9)"/><ellipse cx="195" cy="239" fill="#4c514e" rx="24" ry="53"/><path d="M16 127l-8-18 9 3z"/><path fill="#c3d7e4" d="M136 0h24v55h-24z"/><path fill="#d6edff" d="M156.4-6.5l-51.5 34.4 5.4-7.3L79.6 1.4z"/><path fill="#3d2e3e" d="M114 50l22 6-6-43z"/><circle cx="244" cy="75" r="28" fill="#adc0cd"/><circle r="1" fill="#c9dcec" transform="matrix(1.23637 -28.39765 74.41798 3.23998 210 9.7)"/><path fill="#889494" d="M34 125l-50 72 54-1z"/><path fill="#5d444d" d="M159 54h54v25h-54z"/><path fill="#86979b" d="M217 123h39v84h-39z"/><path fill="#baccdb" d="M84 39h30v17H84z"/><path fill="#a4b3bf" d="M0 42h33v63H0z"/><path fill="#621a22" d="M35 63h12v42H35z"/><ellipse cx="59" cy="129" fill="#676b73" rx="25" ry="47"/><ellipse cx="32" cy="18" fill="#4d6067" rx="47" ry="24"/><path fill="#b0b9bd" d="M218 246l-19-3 11-6z"/><ellipse cx="109" cy="104" fill="#5f131e" rx="75" ry="2"/><ellipse cx="116" cy="79" fill="#6a5e67" rx="71" ry="24"/><path fill="#6e7986" d="M80.7 37.5l78.2 8.6-41.1-20.4-41.5-14.6z"/><path fill="#a3b7c2" d="M216 137l-3-65 17 49z"/><ellipse cx="117" cy="250" fill="#515538" rx="121" ry="8"/><path fill="#b4c5cf" d="M136 46h90v6h-90z"/><path fill="#394147" d="M42 176h24v43H42z"/><path fill="#09263d" d="M214.7 53.4l-6 8.2 14.5-3.1-2.1-4.9z"/><path fill="#60666d" d="M131 108h84v78h-84z"/><path fill="#787d83" d="M108 174h6v52h-6z"/><path fill="#b6bcbc" d="M180.3 243l1.6-7.9 9.8 2-1.6 7.8z"/><path fill="#303840" d="M132 219l74 12 2-21z"/><path fill="#633742" d="M132.4 46.3l-3.1-1.9-7.6-5.4 12.4-34z"/><path fill="#63222c" d="M141 59h5v42h-5z"/><path fill="#485356" d="M74.2 12.3L-16 38l69.9 4.4 30.6-.9z"/><path fill="#313236" d="M204.6 163.5L229 162l-11.4-4.5-9.7 7.9z"/><path fill="#686f74" d="M45.7 189.4l59.3 10.5-69.7-3.9 6.9-59.9z"/><path fill="#7d8e9c" d="M144 39h112v6H144z"/><path fill="#611723" d="M117 63h4v40h-4z"/><path fill="#797e84" d="M113 221h21v7h-21z"/><ellipse cx="3" cy="41" fill="#c7d6e3" rx="16" ry="2"/><circle r="1" fill="#6c727b" transform="matrix(2.00233 17.72875 -5.8133 .65657 209.2 199.2)"/><circle r="1" fill="#7f8588" transform="matrix(2.82002 44.37804 -37.56463 2.38706 0 189)"/><path fill="#cadce8" d="M111.8 40l11.8-2 .6 4-11.8 2z"/><path fill="#632b35" d="M78 70h9v27h-9z"/><ellipse cx="166" cy="195" fill="#000003" rx="2" ry="10"/><path fill="#8a9399" d="M186 210h3v23h-3z"/><path fill="#00010a" d="M187 188h4v19h-4z"/><path fill="#80888d" d="M229.6 214l-115.4-12 .2-2 115.4 12z"/><path fill="#663941" d="M187 59h26v49h-26z"/><path fill="#262e32" d="M162.8 213.6l-36.1 8.5 3.4-44.6 5.9 40.4z"/><path fill="#232c37" d="M108 262l33-37-1 35z"/><circle r="1" fill="#61747f" transform="matrix(-6.33358 -13.30836 81.15363 -38.62181 27.2 12.4)"/><circle r="1" fill="#5c2e36" transform="matrix(-.0307 -.99953 56.16327 -1.72505 87.2 62.3)"/><path fill="#8b949c" d="M214.4 226.8l56.6-.5-31.6 38.4 20.4 6.3z"/><path fill="#cce0f1" d="M101.4 18.4l8.4 5 18.7-1.7L72.6-16z"/><ellipse cx="159" cy="206" fill="#060f13" rx="2" ry="23"/><path fill="#7f8287" d="M164.6 217.2l-.2.7 10.1-6.4.2 14.6z"/><path fill="#243541" d="M114 47l4 10 10-18z"/><path fill="#22252b" d="M216 192h2v44h-2z"/><ellipse cx="67" cy="83" fill="#5a1a21" rx="2" ry="22"/><path fill="#8c9397" d="M61 217h-1l3-42h1z"/><path fill="#20292f" d="M80 179h15v13H80z"/><path fill="#601d27" d="M169 64h4v39h-4z"/><path fill="#656a71" d="M109 180l97 8-53-59z"/><path fill="#626c71" d="M31.8 123l54 66 1.6-29.3-19.5-52.6z"/><path fill="#94a1ab" d="M144.2 240.5l1.8-3.3 16.2-4.1-22.8-3.9z"/><ellipse cx="10" cy="244" fill="#706e53" rx="71" ry="6"/><path fill="#0e2b42" d="M180 54l11-2-11-2z"/><path fill="#96a9b1" d="M10 124l25 26v-18z"/><path fill="#9da7b6" d="M58.5 224.4l.5-4 58.5 7.2-.5 4z"/><path fill="#8a9093" d="M73 199h5v18h-5z"/><path fill="#293134" d="M15 127l4-11-10-5z"/><path fill="#242a2e" d="M121 231l-10-51 12 23z"/><path fill="#190805" d="M172 234h6v12h-6z"/><ellipse cx="169" cy="105" fill="#5d2730" rx="44" ry="2"/><path fill="#cbdbea" d="M107.3 8.8l18.4 16.7 7.7-28.4h-67z"/><path fill="#3e3e42" d="M223.3 143.2l-7 7.7-1.5 5.3-3.2-14.7z"/><ellipse cx="152" cy="51" fill="#cbdce6" rx="16" ry="3"/><path fill="#8c8f94" d="M177.3 242.7l3.4-21.7 2 .3-3.4 21.7z"/><ellipse cx="152" cy="200" fill="#0b1218" rx="2" ry="16"/><path fill="#5f6563" d="M-11 219l49 3-54 11z"/><path fill="#667b80" d="M173 61h9v43h-9z"/><path fill="#00070d" d="M171 187h4v15h-4z"/></g></g></svg>