<svg xmlns="http://www.w3.org/2000/svg" viewBox="0 0 1800 1200"><defs/><filter id="a"><feGaussianBlur stdDeviation="12"/></filter><rect width="100%" height="100%" fill="#3b414c"/><g filter="url(#a)"><g fill-opacity=".5" transform="translate(3.5 3.5) scale(7.03125)"><circle r="1" fill="#c2ecff" transform="matrix(-232.50103 7.51869 -1.44996 -44.8371 16.8 42.8)"/><path fill="#e5f1ff" d="M53.4-24.8L85 67l-98.4 33.9L-45 9z"/><circle r="1" fill="#2e559b" transform="matrix(1.3346 43.8737 -80.9694 2.463 193 19.4)"/><circle r="1" fill="#887235" transform="matrix(-111.39612 23.27186 -8.26469 -39.56082 226.8 94.6)"/><circle r="1" fill="#6c8ba3" transform="matrix(-3.69734 -20.96867 76.47588 -13.48476 18.6 157.4)"/><ellipse cx="66" cy="108" fill="#595941" rx="58" ry="30"/><ellipse cx="248" cy="111" fill="#b08f57" rx="16" ry="35"/><path fill="#8ca5d1" d="M69 79l94-1L39-16z"/><circle r="1" fill="#406395" transform="matrix(101.92747 10.53318 -3.20302 30.99497 237.1 19.1)"/><path fill="#d5e1f1" d="M29 24.2l15.3 57L-3 93.8l-15.3-57z"/><ellipse cx="169" cy="132" fill="#313530" rx="71" ry="9"/><path fill="#7f96b2" d="M-9 134l4 51 40-43z"/><path fill="#6581ae" d="M132 82L86-16l97 83z"/><path fill="#5e6662" d="M73.3 75l6.3 25.3-99 24.7-6.2-25.3z"/><ellipse cx="184" cy="108" fill="#9c8967" rx="25" ry="8"/><ellipse cx="97" cy="169" fill="#374f5e" rx="56" ry="34"/><circle r="1" fill="#a2b7d3" transform="matrix(-18.69403 18.04213 -42.12514 -43.6472 53.6 34.1)"/><path fill="#2f3228" d="M205.6 113.4l31.1-14.8-19.8 36.7-63.5-1.9z"/><path fill="#bac1cb" d="M155 120h27v4h-27z"/><path fill="#2f3936" d="M192.9 78.5L4.4 139.8l112.1-64.5 51.3 19.1z"/><path fill="#7a6a4b" d="M71 121.8l1.6-17 37.2 25.4-66.6 10z"/><circle r="1" fill="#434432" transform="matrix(.90337 21.55378 -50.32171 2.1091 229.8 158.4)"/><ellipse cx="30" cy="104" fill="#b7b9bb" rx="22" ry="2"/><circle r="1" fill="#809ac1" transform="matrix(60.71255 41.1254 -11.3832 16.80478 69.4 9.5)"/><path fill="#557baf" d="M253-10l18 54-36 7z"/><ellipse cx="12" cy="123" fill="#303a3a" rx="56" ry="14"/><path fill="#bdcee2" d="M-16-16l37 99 61-9z"/><circle cx="237" cy="93" r="14" fill="#9e8452"/><path fill="#374042" d="M126.6 91.2l-84.5-6.8 6.9-1.9 20-5.3z"/><circle r="1" fill="#3c5d8b" transform="rotate(-86.9 108 -104.8) scale(21.81168 58.37451)"/><path fill="#545956" d="M199 132l-83 6 87 19z"/><circle r="1" fill="#a59179" transform="matrix(-24.28573 1.06034 -.04362 -.99905 240.6 136)"/><path fill="#434429" d="M190.6 110.7l-38.9 4.6-68.4 21.2 37.7-6.7z"/><path fill="#84734f" d="M146 84l-35 21 6 18z"/><path fill="#2a2d2a" d="M139 123h41v12h-41z"/><path fill="#45432c" d="M255.6 67l-43.3-11.9L225 84.4l-78.2 3z"/><path fill="#6d87ad" d="M126.8 82.9l-43.9-90 24.3-11.8 43.9 90z"/><path fill="#282e23" d="M211 123l17-5-9-29z"/><circle r="1" fill="#a29180" transform="matrix(-4.39264 1.49818 -.83653 -2.45269 193.1 134.3)"/><circle r="1" fill="#756546" transform="matrix(-27.41138 8.6112 -1.53369 -4.88207 201.1 65.2)"/><path fill="#5b7ba7" d="M136 59l19 18 57-26z"/><path fill="#bea38d" d="M185 106h17v5h-17z"/><path fill="#7a6c50" d="M104 119l-33 19-25-11z"/><ellipse cx="5" cy="75" fill="#d8e3ea" rx="19" ry="16"/><path fill="#2e3636" d="M79 112.8l39.3-35.5 10.7 12-39.3 35.4z"/><path fill="#766845" d="M221.2 133.4l-24.4-35.1 33.8 31.1 11.7-24.6z"/><path fill="#4e4f44" d="M162.5 90.7l-28.1 19.9 63.1-51-37.2 16.2z"/><path fill="#64685a" d="M9.3 90l3.3 23.8-15.9 2.2-3.3-23.8z"/><path fill="#3a4f60" d="M32.5 162.2L88.3 185l22.8-50-33.5 20z"/><path fill="#353f3f" d="M21 107h50v24H21z"/><ellipse cx="248" cy="136" fill="#c4af9b" rx="32" ry="1"/><path fill="#546e89" d="M25 137L6 173l65-32z"/><path fill="#796b4c" d="M130.5 138.2l-.6-27.8-15.6-8.6 27.6 34.3z"/><circle r="1" fill="#a2acc0" transform="rotate(-103.2 97.8 22.3) scale(1.52783 3.41798)"/><path fill="#967e50" d="M109 107h26v5h-26z"/><path fill="#b1b6b2" d="M178 118l.3 1-18.3 5-.3-1z"/><ellipse cx="220" cy="168" fill="#2d3635" rx="11" ry="38"/><path fill="#252a21" d="M99 115h19v5H99z"/><path fill="#cfa66d" d="M260.3 77.2l3.5 3.5-14.1 14.1-3.5-3.5z"/><path fill="#a6bad1" d="M27-16l35 93 35-3z"/><circle r="1" fill="#5a759d" transform="rotate(-126.1 72.6 -26.7) scale(67.02938 15.49777)"/><path fill="#413e24" d="M134 105h65v1h-65z"/><ellipse cx="247" cy="121" fill="#7c6948" rx="20" ry="12"/><circle r="1" fill="#6f7368" transform="matrix(22.6407 -9.93857 .43488 .99068 6.5 95.1)"/><path fill="#937d42" d="M239 77v-8l18 1z"/><path fill="#7a94b5" d="M67.4-16l50.2 94.8 14.7 2.8 23.6-3z"/><circle r="1" fill="#5b5243" transform="matrix(3.0987 -8.2622 21.6552 8.12168 255 149.4)"/><ellipse cx="51" cy="136" fill="#867269" rx="48" ry="1"/><circle r="1" fill="#9b9284" transform="matrix(-7.39774 2.55715 -.3267 -.94513 193.6 134.4)"/><circle r="1" fill="#3f4745" transform="matrix(6.67832 19.28585 -68.31863 23.65745 150.9 169)"/><path fill="#23221b" d="M89 132h37v4H89z"/><path fill="#5e5e5a" d="M157 123h42v3h-42z"/><path fill="#c8a25a" d="M154.8 80.8l7.7-6.4.7.8-7.7 6.4z"/><ellipse cx="102" cy="89" fill="#313c41" rx="22" ry="9"/><ellipse cx="46" cy="105" fill="#949da8" rx="9" ry="2"/><path fill="#b09464" d="M237 92h4v28h-4z"/><path fill="#42586e" d="M144.8 138.7l-101 24.1 1.5-25.9 37 .8z"/><path fill="#565a50" d="M36 83h33v21H36z"/><path fill="#95abc6" d="M62.1-16l52.4 94.6-28.7 2.7-30.5-61z"/><path fill="#726642" d="M141.7 117.2l5.3-18.1 30.5-10.3 29.9-6.7z"/><path fill="#937c47" d="M182 113h32v3h-32z"/><path fill="#a0805e" d="M210 54l3 7-19 1z"/><path fill="#7e92a9" d="M-16 137l12 45 15-45z"/><path fill="#232a25" d="M208 118.5v4l-26 1v-4z"/><path fill="#353c23" d="M154 119.7l-11 8.8-5-6.2 11-8.8z"/><circle r="1" fill="#bccbda" transform="matrix(2.46283 8.80034 -16.27945 4.5559 48.4 72)"/><path fill="#415059" d="M39 96.4L5.9 107.1l10-15.8 32.9 1.3z"/><path fill="#c8c1c4" d="M164.7 121.7l-9.7-2.4.3-1 9.7 2.4z"/><path fill="#454334" d="M203.1 77.2l-44.8 3.6L182.6 66l-10 27z"/><path fill="#464b45" d="M97.6 83.5l42.3 5.4-18.6-11.1L112 79z"/><path fill="#5d5435" d="M175.8 108.7l39.4-9.5 52-62-65.1 68z"/><path fill="#5578a7" d="M262.3 48.9L214.5 53l-.8-10 47.8-4.2z"/><path fill="#8c7857" d="M225 132l-7.2-3.7 3.2-6.2 7.2 3.6z"/><circle r="1" fill="#9d8f6d" transform="rotate(61 -45.9 160.8) scale(1 6.56226)"/><path fill="#9f8953" d="M187 68h12v4h-12z"/><path fill="#47462e" d="M209 80l9-20 37-1z"/><circle r="1" fill="#3c5d8b" transform="rotate(96.8 97.8 97.7) scale(9.95734 41.63624)"/><circle r="1" fill="#4d6b95" transform="rotate(-133.1 83.4 -26.1) scale(43.04134 15.57741)"/><path fill="#585a43" d="M80 101l6.6 7.6L70 123l-6.6-7.6z"/><path fill="#545139" d="M152.2 124.3l-57.3-10.9 51-3L95.7 135z"/></g></g></svg>