<svg xmlns="http://www.w3.org/2000/svg" viewBox="0 0 1800 1200"><defs/><filter id="a"><feGaussianBlur stdDeviation="12"/></filter><rect width="100%" height="100%" fill="#343242"/><g filter="url(#a)"><g fill-opacity=".5" transform="translate(3.5 3.5) scale(7.03125)"><circle r="1" fill="#eabaab" transform="matrix(-11.67005 68.93627 -121.13617 -20.50684 81 49.2)"/><circle r="1" fill="#e69a75" transform="matrix(65.64937 25.09658 -8.2795 21.65807 131.8 79)"/><ellipse cx="170" cy="27" fill="#545f80" rx="34" ry="61"/><path fill="#8e6f6e" d="M226 12h30v99h-30z"/><circle r="1" fill="#abb1aa" transform="matrix(1.51875 21.83522 -94.88933 6.60003 36 64.4)"/><ellipse cx="210" cy="156" rx="20" ry="60"/><path fill="#d7763a" d="M-22 93.5h208v17H-22z"/><ellipse cx="93" cy="136" fill="#4c3e46" rx="94" ry="27"/><path fill="#57537c" d="M-8.2-20l211.7-11 2.7 51L-5.5 31z"/><circle r="1" transform="matrix(5.57714 .38021 -6.1185 89.74943 218 38.6)"/><ellipse cx="60" cy="92" fill="#373b46" rx="31" ry="9"/><circle r="1" fill="#36242f" transform="matrix(2.16316 -8.30664 44.40201 11.56288 197.3 64.1)"/><path fill="#e98349" d="M222 88h34v14h-34z"/><circle r="1" fill="#d8a394" transform="matrix(-15.57203 7.40023 -22.33352 -46.9956 102.2 61.9)"/><path fill="#b45f46" d="M142.4 113l1.3-38 56 2-1.4 38z"/><circle r="1" fill="#3c5a7a" transform="matrix(-8.39222 51.12902 -18.98768 -3.1166 247.8 9.3)"/><circle r="1" fill="#12181d" transform="matrix(-10.88637 -24.98513 70.54278 -30.73647 244.5 146.8)"/><circle r="1" fill="#020b09" transform="matrix(-2.6236 -.17426 4.20034 -63.23915 204 44.6)"/><ellipse cx="115" cy="102" fill="#f19756" rx="60" ry="6"/><circle r="1" fill="#91859e" transform="matrix(-50.27026 -6.17241 1.35438 -11.03056 130.7 34)"/><ellipse cx="78" cy="129" fill="#433b46" rx="129" ry="20"/><circle r="1" fill="#7c818e" transform="matrix(48.38863 14.18195 -3.59474 12.26519 44.4 51.6)"/><path fill="#836567" d="M214.1 54.3l-2.5 38.4-6.9 3.4 8.8-83.5z"/><circle r="1" fill="#596d85" transform="matrix(-19.59703 1.24719 -2.82375 -44.36959 185.2 8)"/><path fill="#8f6b6b" d="M146.5 75.4l53.3 8.3-3.2-14-97.1-25.6z"/><ellipse cx="15" cy="94" fill="#937b5e" rx="29" ry="15"/><path fill="#000505" d="M207.5-26.7l20 .4-1 53-20-.4z"/><circle r="1" fill="#5a454d" transform="matrix(16.6952 -10.31117 20.94227 33.90843 109.5 149.7)"/><path fill="#463945" d="M200 99l-6 28-24-16z"/><circle r="1" fill="#56455e" transform="matrix(4.49371 15.56884 -91.12027 26.30051 17.2 0)"/><path fill="#c9c1a5" d="M59 75h71v8H59z"/><ellipse cx="79" cy="96" fill="#5f4657" rx="21" ry="5"/><path fill="#533945" d="M223 55h33v28h-33z"/><path fill="#5f352e" d="M221 101h35v15h-35z"/><path fill="#000605" d="M227.1-16l-12.4 35.8-1.3 165.2 10-117.2z"/><path fill="#7f4e4d" d="M0 110h169v3H0z"/><path fill="#adb19d" d="M53 52l-69 21 77 5z"/><path fill="#977587" d="M61 51.9l49.6-35.2-36.9-6.2-46 21.4z"/><path fill="#000100" d="M57 169l13-11h15z"/><path fill="#6d646b" d="M231 57.2l36.8-8.9-42.2-11.6-3.5 72.8z"/><path fill="#c97657" d="M179.6 82.5l-41.7 11.7 61.4 2.4.1-11.3z"/><path fill="#60584f" d="M2.3 176.8l-1.1-9 54.5-6.6 1.1 9z"/><ellipse cx="139" cy="132" fill="#202636" rx="94" ry="3"/><path fill="#2f3241" d="M219.3 121.6l1-6.7 24.2-6.4-13.1 58.5z"/><circle r="1" fill="#b8959a" transform="matrix(34.35737 -3.79309 1.2175 11.02803 84 43)"/><path fill="#7c5d58" d="M155 80l-14 12-11-8z"/><ellipse cx="142" fill="#576585" rx="45" ry="18"/><ellipse cx="118" cy="96" fill="#e38e59" rx="21" ry="13"/><ellipse cx="206" cy="44" fill="#000909" rx="3" ry="24"/><ellipse cx="244" cy="86" fill="#965f50" rx="23" ry="5"/><path fill="#61657a" d="M61.7 27.5L-1.2 42.7-13.9 7.2l39.8 23.2z"/><circle r="1" fill="#e7bba2" transform="matrix(14.02274 13.40976 -3.86996 4.04686 109.5 71.2)"/><path fill="#e3a566" d="M51.9 107.4L47.3 99l72.3 3.2-35.8 1.3z"/><path fill="#1a1f25" d="M63.7 145.2L.2 141.6l-15.1-6.4 61.6 6.6z"/><path fill="#564352" d="M183 50h17v27h-17z"/><path d="M203 156h20v14h-20z"/><path fill="#ec8869" d="M106.3 71.5l52 14.7-10.6-7.9-21.7-8.2z"/><path fill="#554351" d="M106 132.5l84.2-23.4-94.9 6.1-58.1-7.3z"/><path fill="#4c3d42" d="M146.6 147.5L.9 185l128.2-4.3 64-22.5z"/><ellipse cx="48" cy="161" fill="#232225" rx="61" ry="3"/><path fill="#b35943" d="M206 77h6v20h-6z"/><path fill="#a28984" d="M102 50l82 20-38 6z"/><path fill="#7e515d" d="M119 55l60 11-33-21z"/><ellipse cx="203" cy="70" fill="#0b0d0d" rx="3" ry="29"/><circle r="1" fill="#905b4e" transform="matrix(-45.67108 4.47809 -.09758 -.99523 69.4 107)"/><path fill="#90705f" d="M85 82h31L85 97z"/><path fill="#403d4c" d="M198 144l13 7-15 6z"/><path fill="#856171" d="M34 31L27 8l87 9z"/><ellipse cx="118" cy="89" fill="#f7c18e" rx="10" ry="4"/><path fill="#5b4850" d="M70 134h44v20H70z"/><path fill="#2c3e59" d="M267-13l-31 28 20 14z"/><path fill="#d88452" d="M0 105h36v3H0z"/><path fill="#67494d" d="M200 115l7-8 3 6z"/><ellipse cx="110" cy="110" fill="#af5f50" rx="43" ry="2"/><path fill="#75726e" d="M74 61l-22 6 26 6z"/><path fill="#000306" d="M188.2 105l.5 1-125 61-.4-1z"/><path fill="#827766" d="M23 90l43-9-34-2z"/><ellipse cx="124" cy="95" fill="#9c594e" rx="8" ry="3"/><path fill="#14161c" d="M183.4 140.4l8.7 23 13.7-82.7-4.7 50.7z"/><path fill="#030201" d="M159.7 176.5l-1.1-2.8 31.7-12.2 1.1 2.8z"/><path fill="#4a454f" d="M46 88h36v9H46z"/><ellipse cx="128" cy="153" fill="#685159" rx="36" ry="3"/><circle r="1" fill="#7d8793" transform="matrix(42.90215 -2.55814 .45655 7.6568 22.5 45.5)"/><path fill="#77544d" d="M8 99h30v5H8z"/><path fill="#00020a" d="M94 169h32v1H94z"/><path fill="#3d3040" d="M277.7 64l.5 9-54 3-.4-9z"/><path fill="#97564a" d="M161.1 104.4l35.3-8.2-32.7-1.2 16 21.2z"/><path fill="#040607" d="M208.9 115.7l2.4 43.5-3.6 21.4 13.3-54.2z"/><path fill="#b8b197" d="M0 67h16v18H0z"/><circle r="1" fill="#34353b" transform="rotate(-173.7 8.7 61.3) scale(31.95099 13.45375)"/><path fill="#3d4b5d" d="M214.5 30.7l1.3-28-4.3 27.5 58 11.7z"/><ellipse cx="151" cy="149" fill="#182535" rx="36" ry="2"/><circle r="1" fill="#755756" transform="rotate(85.6 -44.7 134) scale(1 38.73461)"/><path fill="#745d7a" d="M58.7-16l97.7 42.1-16.5 4L33.2-1.8z"/><path fill="#5c6479" d="M204 16l-4 38-28-38z"/><path fill="#654f5a" d="M111 143h57v4h-57z"/><path fill="#f89d53" d="M99 105h44v4H99z"/><ellipse cx="207" cy="28" fill="#0b1115" rx="4" ry="18"/><path fill="#784c4b" d="M224.5 73.5l20.2 1.5-19.8 19.4-1.6-19.3z"/><ellipse cx="12" cy="58" fill="#919a98" rx="58" ry="8"/></g></g></svg>