<svg xmlns="http://www.w3.org/2000/svg" viewBox="0 0 3024 3024"><defs/><filter id="prefix__a"><feGaussianBlur stdDeviation="12"/></filter><rect width="100%" height="100%" fill="#43362b"/><g filter="url(#prefix__a)"><g transform="translate(6 6) scale(11.8125)"><circle cx="63" cy="113" r="243" fill="#fffbce" fill-opacity=".5"/><circle r="1" fill="#514139" fill-opacity=".5" transform="matrix(19.11918 9.0093 -36.64035 77.75667 184.1 165.1)"/><path fill="#d4b391" fill-opacity=".5" d="M4 206L-16-7l252-9z"/><path fill="#675a4f" fill-opacity=".5" d="M155 210.7l95.1-99.8-100.9-90.6 22.3 99.1z"/><circle r="1" fill="#bc8f66" fill-opacity=".5" transform="rotate(-125.3 83.8 47.2) scale(61.42391 92.64191)"/><circle r="1" fill="#4d3d36" fill-opacity=".5" transform="matrix(-35.60962 15.0421 -2.99749 -7.09605 70 181.4)"/><circle r="1" fill="#c6b9a2" fill-opacity=".5" transform="matrix(20.08312 -30.54492 56.35925 37.0559 216.5 18.7)"/><ellipse cx="233" cy="215" fill="#b8a791" fill-opacity=".5" rx="66" ry="52"/><circle r="1" fill="#463522" fill-opacity=".5" transform="matrix(-4.78187 -37.32831 3.62074 -.46383 143.4 186.2)"/><path fill="#ffd093" fill-opacity=".5" d="M106 158l-61 15 70-49z"/><circle r="1" fill="#c0ab92" fill-opacity=".5" transform="matrix(47.45207 -28.6547 22.45024 37.17751 66.6 239.7)"/><circle r="1" fill="#c4baa0" fill-opacity=".5" transform="rotate(22.8 -151.8 30.6) scale(55.58458 235.10079)"/><path fill="#f6cb94" fill-opacity=".5" d="M158 37.8l-18.3 94.3-9.8-2L148.3 36z"/><ellipse cx="181" cy="110" fill="#a98f6f" fill-opacity=".5" rx="52" ry="13"/><path fill="#6b523c" fill-opacity=".5" d="M111.5 124.3l-38.2 26 61.9-69.8-1.9 16.9z"/><circle r="1" fill="#2a241e" fill-opacity=".5" transform="matrix(-5.54465 37.99536 -4.40128 -.64228 162.1 203)"/><circle r="1" fill="#6e6453" fill-opacity=".5" transform="matrix(6.771 24.27183 -6.16757 1.72054 48.6 102.6)"/><path fill="#4a3b28" fill-opacity=".5" d="M129.7 144.3l13.2 27.7-9.6-44.3-10.6-6.6z"/><path fill="#ffd89a" fill-opacity=".5" d="M86.7 118.5L60.3 126l-15.9 36.1 30.1-26.3z"/><path fill="#797267" fill-opacity=".5" d="M63 129l-79 62 27 8z"/><ellipse cx="164" cy="58" fill="#52443a" fill-opacity=".5" rx="7" ry="27"/><path fill="#908673" fill-opacity=".5" d="M77 61l83-77-46 86z"/><path fill="#433f36" fill-opacity=".5" d="M165 177l-3-37 64-22z"/><path fill="#e4ad79" fill-opacity=".5" d="M109 128l30 96 2-49z"/><circle r="1" fill="#8a8474" fill-opacity=".5" transform="matrix(-15.94127 -13.2347 26.67176 -32.12629 206 167.6)"/><ellipse cx="152" cy="177" fill="#d8af83" fill-opacity=".5" rx="5" ry="62"/><circle r="1" fill="#967156" fill-opacity=".5" transform="matrix(-23.81704 -58.42059 7.93042 -3.2331 127.7 217.6)"/><path fill="#9a9587" fill-opacity=".5" d="M199 89l71 14L133 1z"/><path fill="#e6ba82" fill-opacity=".5" d="M45 65h83v19H45z"/><path fill="#655a45" fill-opacity=".5" d="M139 110h92v5h-92z"/><circle r="1" fill="#bcac97" fill-opacity=".5" transform="rotate(97.3 67 178.4) scale(43.84926 13.04123)"/><ellipse cx="7" cy="210" fill="#b6a48c" fill-opacity=".5" rx="24" ry="46"/><path fill="#7b5e3a" fill-opacity=".5" d="M138.9 62.1l4.2-5.1-5.8 23.7-9.8 5.1z"/><path fill="#56534c" fill-opacity=".5" d="M192 96l-33-67 10 56z"/><circle r="1" fill="#cea983" fill-opacity=".5" transform="matrix(19.32214 7.42627 -5.2812 13.74098 151.3 132.7)"/><path fill="#bfab8f" fill-opacity=".5" d="M119 245h92v11h-92z"/><path fill="#aba691" fill-opacity=".5" d="M76 0h83v41H76z"/><circle r="1" fill="#947f5e" fill-opacity=".5" transform="rotate(-61.3 130 -36.3) scale(3.38657 46.45904)"/><circle r="1" fill="#c2b291" fill-opacity=".5" transform="matrix(-11.95125 -8.59107 15.29201 -21.2731 75.6 202)"/><path fill="#6a4f35" fill-opacity=".5" d="M71.7 153.9l19.8-25.8 32.1-9.3L65 149.7z"/><path fill="#f8c48a" fill-opacity=".5" d="M138.2 58.2l-29.3 19.9L134 47.8l13.6-20.1z"/><path fill="#926f52" fill-opacity=".5" d="M105 70.1l-19.7-5.7-10.7-1.8 55.9-12.5z"/><path fill="#7b6652" fill-opacity=".5" d="M79.1 161.7l35.2 9.5-56.6 29.6-29.2-2.7z"/><path fill="#afa790" fill-opacity=".5" d="M64 123l-50-13-1 59z"/><path fill="#eac190" fill-opacity=".5" d="M79.1 147.5l-20.2 27.8-40.2 28 31.5-30.9z"/><path fill="#f0bf89" fill-opacity=".5" d="M86.9 125.8L15 191.2l23.4-14.5L71.6 107z"/><path fill="#c1a988" fill-opacity=".5" d="M212.9 119.7l-48.2 8.6-23.8-8.3 54.2-5.6z"/><path fill="#dea875" fill-opacity=".5" d="M137.6 224.5l8.3 16.8-.5-25.9-23.8-60.9z"/><path fill="#786753" fill-opacity=".5" d="M51.3 144l-23 35.5-9-10-.7-6.1z"/><path fill="#f4d09c" fill-opacity=".5" d="M156 86l-8-33-13 52z"/><path fill="#d8ad7d" fill-opacity=".5" d="M40 70l66 43-12 19z"/><circle r="1" fill="#c1b598" fill-opacity=".5" transform="matrix(-4.317 17.92308 -54.0197 -13.01131 50.2 35.7)"/><path fill="#7f6e58" fill-opacity=".5" d="M-1.1 217.7l86.2-83.9L52 172.5l3.4-5.1z"/><path fill="#ffe8a7" fill-opacity=".5" d="M57.2 61.8l20 9-2.4 5.4-20-9z"/><path fill="#b89774" fill-opacity=".5" d="M136.6 119.5l6.7-37.4 75.9 21.4-111.7 3.6z"/><circle r="1" fill="#aa7b57" fill-opacity=".5" transform="rotate(-43.8 137 -19.5) scale(3.46066 24.24128)"/><path fill="#ddba8d" fill-opacity=".5" d="M120.5 102.7l38.7 45.2-54.3-57.2L119.3 75z"/><path fill="#352a22" fill-opacity=".5" d="M142 172h4v32h-4z"/><path fill="#795037" fill-opacity=".5" d="M129 199l9 18-13-8z"/><path fill="#7d7667" fill-opacity=".5" d="M138.7 38.2L152.8 24l37.1 60.8-43.3-70.7z"/><path fill="#f1c58f" fill-opacity=".5" d="M110.5 157.4l-5.7 8.3 5.4-33-34.6 20z"/><circle r="1" fill="#a1967d" fill-opacity=".5" transform="matrix(16.84277 27.63746 -12.2541 7.46787 106.4 201.7)"/><circle r="1" fill="#4e5049" fill-opacity=".5" transform="matrix(6.51914 1.34678 -8.03662 38.90155 176.4 170.2)"/><path fill="#524439" fill-opacity=".5" d="M38 191l33-6-3-11z"/><path fill="#968f7c" fill-opacity=".5" d="M27 204l15 21 34-44z"/><ellipse cx="215" cy="104" fill="#ba9f7e" fill-opacity=".5" rx="22" ry="3"/><path fill="#857157" fill-opacity=".5" d="M110 114l9-9-39-21z"/><ellipse cx="150" cy="235" fill="#f5ddb0" fill-opacity=".5" rx="1" ry="49"/><path fill="#6a4f3b" fill-opacity=".5" d="M154 197h4v45h-4z"/><path fill="#696960" fill-opacity=".5" d="M248 106l-74 83 5-38z"/><ellipse cx="188" cy="230" fill="#afa086" fill-opacity=".5" rx="25" ry="23"/><path fill="#48382c" fill-opacity=".5" d="M184.6 132.1l-12.5 9.5-3.6 11.2 54.3-31.3z"/><path fill="#d6be98" fill-opacity=".5" d="M65 226l11-44-24 36z"/><path fill="#937152" fill-opacity=".5" d="M154.1 190.4l12-55.8 28.2-13.9-24.4 24.1z"/><path fill="#866b57" fill-opacity=".5" d="M121 147l2-14-15 20z"/><circle r="1" fill="#b8ab90" fill-opacity=".5" transform="rotate(140.3 76.5 145.8) scale(17.43955 31.87115)"/><circle r="1" fill="#fbcd96" fill-opacity=".5" transform="rotate(34.7 -229.8 154.7) scale(2.02433 37.04106)"/><circle r="1" fill="#b1a58c" fill-opacity=".5" transform="matrix(-6.7797 10.6011 -92.99815 -59.4748 227.5 56.4)"/><path fill="#44494b" fill-opacity=".5" d="M243.2 105.4l-12.2 5.1-21.1 2.7 12.2-4.5z"/><ellipse cx="184" cy="107" fill="#7b6955" fill-opacity=".5" rx="36" ry="2"/><path fill="#ab7349" fill-opacity=".5" d="M154 50h5v21h-5z"/><path fill="#66553e" fill-opacity=".5" d="M132.4 153.6l-8.2-35.9 19.1 41.3 4.4 21.1z"/><path fill="#8d806c" fill-opacity=".5" d="M100 67l24-58-2 50z"/><path fill="#fddba3" fill-opacity=".5" d="M156 30v18l-12 17z"/><path fill="#baaa8e" fill-opacity=".5" d="M16 104h24v52H16z"/><path fill="#e6c191" fill-opacity=".5" d="M79.8 105.7L55 75.2 26.3 44.7l25.6 40.5z"/><path fill="#8f8672" fill-opacity=".5" d="M167.2 203.3l36.6-56.7 17.7-10.6-28.2 77.1z"/><path fill="#a28c6d" fill-opacity=".5" d="M81 96l18 1-27 18z"/><path fill="#d3915d" fill-opacity=".5" d="M80 160h40v7H80z"/><path fill="#765c43" fill-opacity=".5" d="M96.3 163.6l4.6 10.9 17.8 13.8-6.7-15.6z"/><path fill="#f5b174" fill-opacity=".5" d="M108.8 73.3l41-44 1.4 1.4-41 44z"/><path fill="#a0927c" fill-opacity=".5" d="M64.3 242.4l-16.1-38.1-4.6 66.7-36.9-22.8z"/><path fill="#74573f" fill-opacity=".5" d="M150 245l-15-15 6 14z"/><path fill="#826343" fill-opacity=".5" d="M138 111h42v6h-42z"/><path fill="#c89a6e" fill-opacity=".5" d="M154.5 64.6l12.9 20.5-21.3-5.4 7.8 15.3z"/><path fill="none" stroke="#65503b" stroke-opacity=".5" stroke-width=".5" d="M30.6 186l77.4-67.3"/><path fill="#867b68" fill-opacity=".5" d="M41 81h8v44h-8z"/><path fill="#86705c" fill-opacity=".5" d="M110.7 81.8l-6 1.2-1.4-6.8 6-1.2z"/><path fill="#805a3f" fill-opacity=".5" d="M163.5 80.1L180 96.3l28.1 2.2-25.2-9z"/><ellipse cx="130" cy="101" fill="#604534" fill-opacity=".5" rx="2" ry="9"/></g></g></svg>