<svg xmlns="http://www.w3.org/2000/svg" viewBox="0 0 1800 1800"><defs/><filter id="a"><feGaussianBlur stdDeviation="12"/></filter><rect width="100%" height="100%" fill="#2d475e"/><g filter="url(#a)"><g fill-opacity=".5" transform="translate(3.5 3.5) scale(7.03125)"><circle r="1" fill="#bed7f2" transform="matrix(-4.23782 97.06204 -254.7573 -11.12294 135.5 69.7)"/><ellipse cx="116" fill="#fff" rx="255" ry="9"/><ellipse cx="147" cy="142" fill="#4a6b84" rx="200" ry="65"/><ellipse cx="169" cy="35" fill="#98b2d0" rx="255" ry="28"/><path fill="#24465e" d="M100 142h72v54h-72z"/><path fill="#ffd9ae" d="M194.3 130.3l.8 5-53.4 8.4-.8-5z"/><ellipse cx="235" cy="175" fill="#97b3cf" rx="87" ry="4"/><path fill="#a9c0da" d="M217.3 103.4l48.3 8.5-3 16.7-48.2-8.5z"/><ellipse cx="106" fill="#fffcf5" rx="227" ry="8"/><path fill="#88a9c7" d="M38 168.6l38.4-2.4 1.9-11.3-85.6 19.6z"/><circle r="1" fill="#002b3b" transform="matrix(1.14008 11.84018 -44.56125 4.29076 64.3 233.6)"/><ellipse cx="90" cy="175" fill="#082d3f" rx="52" ry="7"/><path fill="#26475e" d="M53 146h115v12H53z"/><ellipse cx="174" cy="97" fill="#edd5be" rx="13" ry="5"/><path fill="#779abb" d="M271 206l-55.2-.1-3.9-.2-36.1-12.4z"/><ellipse cx="237" cy="234" fill="#0c3445" rx="122" ry="13"/><path fill="#7d9fbf" d="M7.4 183.2l.4-5 64.8 4.6-.4 5z"/><path fill="#0c3146" d="M170 178h47v16h-47z"/><path fill="#678ca7" d="M52.8 257.8l67.3-14.2-15.8-7.6-23.1 10.6z"/><path fill="#899fb6" d="M214 111L82 99l60 25z"/><ellipse cx="95" cy="186" fill="#6e8fae" rx="39" ry="3"/><path fill="#3e5b77" d="M214 120l-33 28 90 2z"/><circle r="1" fill="#274b66" transform="matrix(.09017 5.166 -20.8545 .36402 57.7 122.3)"/><path fill="#7998b4" d="M35 158h142v5H35z"/><path fill="#5c84a4" d="M0 250h59v6H0z"/><ellipse cx="12" cy="151" fill="#466a7f" rx="44" ry="16"/><ellipse cx="146" cy="219" fill="#4b738f" rx="58" ry="4"/><path fill="#153d54" d="M-16 189l159-1-80 24z"/><path fill="#62819e" d="M179 176l-63 8 106-44z"/><path fill="#6c8ba8" d="M107 211.2l51.1-10.1-64.3 1.1 59.3-9.8z"/><path fill="#4b7593" d="M141.2 243.5l91.9 8.7 5.2 15.5-93-19.9z"/><path fill="#ae9583" d="M121 131h58v11h-58z"/><path fill="#a3c6e8" d="M27.6 198.4l.3 1-35.5 10.2-.3-1z"/><circle r="1" fill="#2b506e" transform="matrix(.66616 4.15898 -26.9699 4.31988 86 134.6)"/><path fill="#88acd3" d="M229 164h27v4h-27z"/><path fill="#2b4258" d="M127 93h23v10h-23z"/><path fill="#5f616a" d="M113 126.1l59.7-4.7 17.3 6.1-21.3 10z"/><circle r="1" fill="#00213a" transform="matrix(-14.63517 .1277 -.01568 -1.79672 13.2 138.7)"/><circle r="1" fill="#2f4e68" transform="matrix(-73.7703 -4.11743 .09777 -1.75162 247.3 96.4)"/><path fill="#365877" d="M109 113h56v5h-56z"/><ellipse cx="58" cy="50" fill="#718da9" rx="101" ry="6"/><path fill="#6f8eac" d="M237.7 52.6l4 32.8-81.4 10-4-32.8z"/><path fill="#193a4f" d="M148.7 164.8l-40.7.7 14.1 3.6 76.6 21.1z"/><path fill="#4c7492" d="M147 218.4l-77.4-7.7 14.3 13.5-33.9-10z"/><path fill="#3d617d" d="M270 192.7l-45.5 30.1 41.7 29.4-19.5-29z"/><path fill="#adc4de" d="M34.3 141.7l.2 1-38.8 9.6-.2-1z"/><ellipse cx="87" cy="81" fill="#6988a7" rx="77" ry="14"/><ellipse cx="80" cy="102" fill="#92abc5" rx="51" ry="2"/><path fill="#b5cce3" d="M222 129h22v3h-22z"/><ellipse cx="26" cy="125" fill="#294e67" rx="59" ry="2"/><ellipse cx="5" cy="63" fill="#8ba7c2" rx="56" ry="10"/><path fill="#93b0cd" d="M1 130l27-6 10 10z"/><path fill="#8ba5be" d="M183 164l37-6-52-7z"/><path fill="#b8cee2" d="M60 141h31v3H60z"/><path fill="#68859f" d="M82 164l49-68-11 48z"/><path fill="#072837" d="M271 267.2l-19.1-26.3-38.8-6.9 6.8 10.1z"/><ellipse cx="191" cy="34" fill="#9bb2cb" rx="114" ry="7"/><circle r="1" fill="#5881a0" transform="rotate(-16.7 786 83.3) scale(58.89406 1)"/><path fill="#335470" d="M123 69h92v2h-92z"/><ellipse cx="108" cy="205" fill="#6c8dac" rx="28" ry="2"/><path fill="#344d62" d="M206 120l19 14-45-7z"/><path fill="#022c3b" d="M129.7 257.3l-97.6 1 58.3-7.5-2.8-2.5z"/><path fill="#89a6c4" d="M74 111.8l-53.6-10.6-15.6-1.1 45 14.2z"/><path fill="#95aec8" d="M6.3 164.7l23 .6 46.9-5 11.7-2z"/><path fill="#8baaca" d="M0 156h34v2H0z"/><path fill="#98b4d1" d="M221 187h21v2h-21z"/><circle r="1" fill="#3a5a78" transform="matrix(-33.336 3.62339 -.10806 -.99414 70.5 69.9)"/><path fill="#6d89a5" d="M176.7 140.7l58.9-1.5 28.5-56.4-16 61.6z"/><path fill="#98acbf" d="M124.5 124.8l40.2-12.3L125 99.1l37.8 22.3z"/><ellipse cx="149" cy="139" fill="#d6c9b0" rx="31" ry="2"/><path fill="#5d839f" d="M117 244l4 10 16-3z"/><ellipse cx="222" cy="14" fill="#a0b5d1" rx="115" ry="4"/><path fill="#375674" d="M111 74h19v8h-19z"/><ellipse cx="31" cy="149" fill="#1a3949" rx="22" ry="2"/><path fill="#24435d" d="M185 112l-9-4 21-1z"/><path fill="#0d3345" d="M158 212.1l-20.5-13 9.4-.8 44.8 15.9z"/><path fill="#022c3b" d="M-16 215l23.4 2.7 26.8 15.7 12.2 14.8z"/><circle r="1" fill="#4b6276" transform="matrix(31.7993 3.02263 -.44907 4.72442 170.8 145.8)"/><circle r="1" fill="#85a2bd" transform="matrix(26.50267 2.82576 -.33476 3.13973 236.8 175.7)"/><path fill="#95adc7" d="M176 66l32-8 34 12z"/><path fill="#173548" d="M139 159l-1-19-30 14z"/><path fill="#668bac" d="M242 213h14v7h-14z"/><path fill="#365975" d="M27 183l84 28-33-27z"/><path fill="#042639" d="M60.3 129.5l37.5 6-.1 1-37.5-6z"/><ellipse cx="213" cy="172" fill="#3d6080" rx="39" ry="2"/><ellipse cx="17" cy="21" fill="#7f99ba" rx="160" ry="13"/><path fill="#88a6ac" d="M83 120h23v10H83z"/><path fill="#052d40" d="M42 181l-28.8-3 .7-7 28.9 3z"/><path fill="#b4c9df" d="M232 123h24v4h-24z"/><path fill="#365879" d="M249 86l22 21-47-22z"/><ellipse cx="189" cy="133" fill="#d5c0b9" rx="14" ry="3"/><circle r="1" fill="#9ab5cf" transform="matrix(-7.76858 .65609 -.16533 -1.95764 213.3 199.2)"/><path fill="#234662" d="M243 183l-35 3-3-12z"/><path fill="#8faac5" d="M40.4 133.7l-1.3 9.1 26.5-1.8-47.3-8.1z"/><path fill="#5581a7" d="M4 199l-20 5 33 7z"/><path fill="#8e9195" d="M142 106.8l4-6.7 49-1.1 40.6.2z"/><path fill="#698cac" d="M57 209l-3 5 22 4z"/><path fill="#5b7b9a" d="M241 198l-32-7 2-9z"/><path fill="#4b6a88" d="M196.2 76.1l-4.1-2.9 12.8-4.4-73.1 11.4z"/><path fill="#36536b" d="M251.2 96l-48.9-3.8-2.1-1.2-22.5 6.4z"/></g></g></svg>