<svg xmlns="http://www.w3.org/2000/svg" viewBox="0 0 1800 1200"><defs/><filter id="a"><feGaussianBlur stdDeviation="12"/></filter><rect width="100%" height="100%" fill="#2b3138"/><g filter="url(#a)"><g fill-opacity=".5" transform="translate(3.5 3.5) scale(7.03125)"><circle r="1" fill="#fff" transform="matrix(-234.28777 5.31673 -1.85115 -81.57318 132.8 67)"/><circle r="1" fill="#eef0e2" transform="matrix(8.94147 33.75538 -183.68786 48.6571 161.7 55.1)"/><circle r="1" fill="#637682" transform="matrix(-179.8662 17.63603 -4.83135 -49.2739 89 168.8)"/><ellipse cx="88" cy="18" fill="#5c9fd9" rx="108" ry="36"/><circle r="1" fill="#e4ddcf" transform="rotate(-66.9 86.3 -10.2) scale(59.27597 24.80982)"/><circle r="1" fill="#ffdfaf" transform="rotate(-36.4 174.6 -315.5) scale(78.83071 26.30309)"/><circle r="1" fill="#81b6e3" transform="matrix(-21.10248 41.7931 -26.8561 -13.56038 15.4 70)"/><circle r="1" fill="#486f8b" transform="matrix(-4.21072 -10.18596 59.60806 -24.64104 185.6 106.1)"/><circle r="1" fill="#a7c8d7" transform="matrix(-69.68622 25.77771 -3.68715 -9.96767 222.5 111.2)"/><ellipse cx="106" cy="148" fill="#04121b" rx="35" ry="5"/><circle r="1" fill="#767f89" transform="matrix(-10.45613 18.20456 -47.11165 -27.05947 24.4 139.6)"/><path fill="#0d120e" d="M174 143h82v9h-82z"/><circle r="1" fill="#5b8ab3" transform="rotate(69.7 85.3 122.4) scale(27.44426 69.93725)"/><circle r="1" fill="#a29788" transform="matrix(-56.87075 37.78484 -5.8286 -8.77274 243.3 60)"/><circle r="1" fill="#558cbb" transform="matrix(-61.44848 54.41177 -15.86662 -17.91855 34.2 0)"/><path fill="#496c8e" d="M72 117h41v28H72z"/><path fill="#8eacc8" d="M79 7l92 40-69 27z"/><path fill="#618daf" d="M296.6 127.3l.6 11-123.8 6.4-.6-11z"/><path fill="#b8ae9d" d="M132.8 99.3l-28.7-11.9-45.2 14.3 69.8 22.1z"/><path fill="#5a758a" d="M140.6 101.2l93 1.2-107.4 35.1-4.5-4.1z"/><ellipse cx="206" cy="156" fill="#6c6156" rx="195" ry="5"/><path fill="#4c7191" d="M-11 182l1-75 33 11z"/><circle r="1" fill="#b4a99c" transform="matrix(6.8337 10.62817 -20.74009 13.33547 46.2 123.3)"/><circle r="1" fill="#e3d7c2" transform="matrix(-92.38357 70.27108 -7.97627 -10.4862 202.6 38)"/><circle r="1" fill="#cec5b6" transform="matrix(.67844 4.2999 -56.05354 8.84418 228.8 117.6)"/><circle r="1" fill="#adb7bd" transform="rotate(53.9 40.1 184.6) scale(9.55656 118.11966)"/><path fill="#eae0ce" d="M24 94l58-59-19 75z"/><circle r="1" fill="#708ca2" transform="rotate(-23.7 320.2 -521.7) scale(34.92963 13.03792)"/><ellipse cx="142" cy="143" fill="#577e9d" rx="45" ry="4"/><path fill="#f3e3c2" d="M187 26l84-27-87 85z"/><circle r="1" fill="#c2b39d" transform="matrix(-57.19682 15.2189 -1.3628 -5.12181 148.6 93.2)"/><ellipse cx="174" cy="169" fill="#60584f" rx="159" ry="13"/><circle r="1" fill="#93b4d1" transform="rotate(135.6 7 33.4) scale(61.72042 8.04908)"/><circle r="1" fill="#4e82ad" transform="matrix(.07781 -13.70056 46.5275 .26425 139.8 0)"/><circle r="1" fill="#8ab5d1" transform="rotate(-16.7 463 -745.4) scale(27.59554 9.85711)"/><ellipse cx="142" cy="150" fill="#202322" rx="84" ry="2"/><circle r="1" fill="#d7be9b" transform="matrix(-5.2006 -8.68272 30.71047 -18.39436 245 47.6)"/><path fill="#c6ced2" d="M15 95l57-68 33 25z"/><ellipse cx="253" cy="132" fill="#6e8ba3" rx="66" ry="9"/><circle r="1" fill="#6a97bd" transform="rotate(9 -106.1 814) scale(22.7783 20.24708)"/><path fill="#303437" d="M34 151h36v3H34z"/><path fill="#b3aa9d" d="M79.4 87.3L52.9 120l89.4-26.3-23.3 24.6z"/><path fill="#786e62" d="M25 153h43v17H25z"/><ellipse cx="241" cy="156" fill="#636260" rx="80" ry="6"/><path fill="#e1ccae" d="M127.3 107.6l-12.7 5.2 20.3-26.7-33.3-2.4z"/><circle r="1" fill="#7fabd1" transform="matrix(26.01082 17.1244 -13.81413 20.98275 0 50.6)"/><circle r="1" fill="#8ea6bd" transform="matrix(-63.54867 33.30075 -4.09044 -7.8059 168 27.3)"/><ellipse cx="230" cy="143" fill="#212827" rx="32" ry="2"/><path fill="#677c92" d="M42.3 151.8l35.8-4.9-94.1-17.3v23.8z"/><path fill="#537088" d="M129.3 148.2l19.8-14.5 42.3-26.4-41.2-2.3z"/><path fill="#e0cfb3" d="M46.5 120.1l25.8-19 11.9-21.8-63.4 36.2z"/><circle r="1" fill="#a9bac9" transform="matrix(-10.35149 .90564 -2.64105 -30.18732 94.3 47)"/><path fill="#172127" d="M80 146h44v3H80z"/><path fill="#c6cbca" d="M149 46h33v19h-33z"/><path fill="#45494b" d="M130 152h46v18h-46z"/><circle r="1" fill="#5788b1" transform="matrix(-1.06667 -11.28414 95.4005 -9.018 20.8 0)"/><path fill="#8fa8b4" d="M11 99h14v15H11z"/><path fill="#3f586a" d="M31.2 152.8L26.7 185-16 159.4l19.5-6.8z"/><path fill="#7e8389" d="M247.2 58l-47.9 41.7 67-27.8-26.4-12.2z"/><path fill="#7d8793" d="M98.8 117.3l-43.3 24-27.8 6.3 69-48.4z"/><path fill="#58728b" d="M130 125l-66 25-3-23z"/><circle r="1" fill="#658195" transform="matrix(6.31912 -3.73712 2.60206 4.39984 190.8 114.1)"/><path fill="#8c98a2" d="M201.6 131.8l9.8-10.7-64.5 14.5 18.8 6.4z"/><circle r="1" fill="#739cc1" transform="matrix(4.37607 11.03172 -29.86846 11.84823 28.3 32.8)"/><path fill="#ebe0cc" d="M34.1 112.3l23.3-47.1L74 47.8 76.6 85z"/><path fill="#99b6cd" d="M153.8 44.2l-59.6 8.7 56 17.8-9.1 5.1z"/><path fill="#aca395" d="M169.1 106.6L160.7 88l12.7 5.5 86.7-39.2z"/><path fill="#838788" d="M210.1 97.9l-80.8-.3v32.6l18.3-23.7z"/><path fill="#9eb5ca" d="M-12.1 85l98.3-67.1-27.5-7.3-2.4 39.5z"/><path fill="#536e88" d="M-16 109l19 14 36-2z"/><path fill="#a2a5a3" d="M28 128.9l-15.6-.1 25-15.8 8.8 21z"/><circle r="1" fill="#aac6d1" transform="matrix(.92963 3.75409 -35.41526 8.76989 233 109.7)"/><path fill="#a6aaa8" d="M66 107l47 2-6-19z"/><path fill="#bbc0c1" d="M170.6 57.8l-6.1-5.1 28.9-34.5 6.1 5.1z"/><path fill="#b1c4d1" d="M21.3 110.3l54.8-88.8-68 76.9 34.3-2.1z"/><path fill="#bbc6ca" d="M86 51l62 23-64 5z"/><circle r="1" fill="#7591a5" transform="rotate(152.6 77.7 80.4) scale(67.36135 1.80327)"/><path fill="#7897b3" d="M190.2 18.6l47-25.4-27.3-9.2-55.3 39.6z"/><path fill="#f6e5c3" d="M202.4 36.6l-28.2 40.9 31.2-5.3 9-15.2z"/><path fill="#647e94" d="M137 134l29 14-60-4z"/><ellipse cx="128" cy="150" fill="#293135" rx="65" ry="3"/><path fill="#d7c5b0" d="M241.1 112.8l-22.6 14.1-8.5-5.5 9.6-5.7z"/><path fill="#dacab3" d="M131 74h56v15h-56z"/><path fill="#909394" d="M113 126l-21-14 46 2z"/><circle r="1" fill="#e5cea8" transform="matrix(5.0896 3.80751 -15.52241 20.74924 220.7 56.2)"/><circle r="1" fill="#454e57" transform="matrix(-10.17838 -12.3354 16.29213 -13.4432 93.5 170)"/><path fill="#212829" d="M209 142h47v9h-47z"/><path fill="#889299" d="M0 134h14v6H0z"/><circle r="1" fill="#a59e96" transform="matrix(8.24224 5.79275 -4.94396 7.03454 246.6 63.1)"/><path fill="#6c879b" d="M176 129l12 13-15 4z"/><path fill="#61605c" d="M190 161h66v7h-66z"/><path fill="#8398a6" d="M30 102l-.6 3-21.5-5 .7-3z"/><path fill="#89a5c0" d="M55.3 5.7l-3.5.1 73.1 48.6-21.1-41.1z"/><circle r="1" fill="#55748c" transform="matrix(39.65702 -6.13923 .15299 .98823 222.8 139)"/><path fill="#acc8d2" d="M-15.1 97.5l25.3 5.1 19.5 3.3-25.6 5z"/><ellipse cx="140" cy="138" fill="#7e92a2" rx="30" ry="3"/><circle r="1" fill="#ead5b1" transform="matrix(4.31445 7.98665 -27.46804 14.83845 241.3 27.6)"/><path fill="#d2cbbd" d="M185 35l37-14 20-27z"/><path fill="#919ca3" d="M268 129l-33-10 36-14z"/><path fill="#7090aa" d="M271 89V63l-43 29z"/></g></g></svg>