<svg xmlns="http://www.w3.org/2000/svg" viewBox="0 0 1800 1200"><defs/><filter id="a"><feGaussianBlur stdDeviation="12"/></filter><rect width="100%" height="100%" fill="#333f49"/><g filter="url(#a)"><g fill-opacity=".5" transform="translate(3.5 3.5) scale(7.03125)"><circle r="1" fill="#dcdfe5" transform="matrix(-254.99977 -.34416 .10623 -78.70519 128.1 64)"/><circle r="1" fill="#e9eefc" transform="matrix(254.14253 20.89432 -2.69604 32.7926 109.7 0)"/><circle r="1" fill="#5d707a" transform="matrix(3.41973 -45.21364 210.81408 15.9449 148.6 142.3)"/><circle r="1" fill="#3f3328" transform="rotate(-177.3 16 20.8) scale(171.9721 13.27988)"/><circle r="1" fill="#5b6871" transform="matrix(166.74886 7.36295 -.92803 21.0171 124.7 141)"/><ellipse cx="159" cy="67" fill="#a2acb6" rx="114" ry="13"/><circle r="1" fill="#66574a" transform="matrix(.08763 8.81897 -87.71784 .87164 231.2 49.1)"/><ellipse cx="13" cy="41" fill="#414145" rx="53" ry="16"/><path fill="#6b6866" d="M72.8 25.4L-2.3 44.7l142.5 9.8-49.3-23.9z"/><ellipse cx="183" cy="33" fill="#a6adba" rx="83" ry="8"/><ellipse cx="108" fill="#d2d3d8" rx="98" ry="15"/><ellipse cx="84" cy="139" fill="#5b6a73" rx="187" ry="12"/><path fill="#4b1f12" d="M209 140l17 9-21 8z"/><path fill="#3b3431" d="M231 46h25v8h-25z"/><circle r="1" fill="#82919f" transform="matrix(-91.7529 1.29549 -.28547 -20.21853 189 96.4)"/><path fill="#61564d" d="M194.5 45.3l-23.8-8.9-45.6 22 76.3-17.6z"/><ellipse cx="76" cy="169" fill="#344b52" rx="49" ry="19"/><path fill="#4b4b4c" d="M22 28h63v9H22z"/><path fill="#beae9c" d="M185 52l-2-13-6 7z"/><ellipse cx="169" cy="137" fill="#4c291d" rx="4" ry="10"/><circle r="1" fill="#7f878d" transform="matrix(-65.21528 .18464 -.05238 -18.50053 21.4 94.4)"/><ellipse cx="3" cy="39" fill="#3b3b3f" rx="14" ry="16"/><ellipse cx="26" cy="19" fill="#c0c5ca" rx="31" ry="7"/><path fill="#8d847d" d="M58 45h78v6H58z"/><path fill="#a6abb2" d="M211.4 16.8l-13.6 35.8 29.3-20.9 11.1 46.2z"/><ellipse cx="173" cy="148" fill="#797f84" rx="36" ry="4"/><ellipse cx="207" cy="72" fill="#949fab" rx="131" ry="16"/><ellipse cx="68" cy="53" fill="#383938" rx="91" ry="2"/><path fill="#b3bcca" d="M120.7 40.1L67.5 21 175.2 6.4 118.6 41z"/><path fill="#455a63" d="M141 138l-65 12-23-19z"/><path fill="#a5adbd" d="M230 24l25.6-24L276 22l-25.6 24z"/><path fill="#8f989f" d="M11.2 78.4l19.5-37.1-.8 15.8 181.6 28.4z"/><path fill="#7e756d" d="M111 45l32 3-6-15z"/><path fill="#5f3e29" d="M85 91l9 7H81z"/><circle r="1" fill="#667689" transform="matrix(44.8953 -17.46316 7.16982 18.43259 255 117.7)"/><path fill="#3a3e3e" d="M159 43l-15 10-1-16z"/><ellipse cx="190" cy="53" fill="#3c4141" rx="24" ry="2"/><path fill="#a09792" d="M193.3 58.7l-37.5 1.8 12.6-36.1-4 28.8z"/><path fill="#35383d" d="M38 45h17v12H38z"/><path fill="#6f6862" d="M242.9 36.4l5.2 3-7 12.2-5.2-3z"/><path fill="#6c7881" d="M4 114h50v29H4z"/><path fill="#b2bbc8" d="M136.3 22l-23.2 3.3L154 41.2l42.4-16.3z"/><path fill="#939396" d="M31 43l24-3-13-2z"/><path fill="#b0bac9" d="M179 16h49v24h-49z"/><path fill="#e9d0df" d="M203 146l-1 2 8 1z"/><path fill="#707f8a" d="M165 102l-62 14 112 20z"/><path fill="#2d3733" d="M163.8 52l.5-7 14 1-.6 7z"/><path fill="#09121b" d="M198.2 53l-1.4-9.9 1-.1 1.4 9.9z"/><path fill="#2a322f" d="M144 50.9l1.5-5.9 16.5 4.1-1.5 5.9z"/><path fill="#503931" d="M245 49h11v8h-11z"/><path fill="#9da5ae" d="M14 59h218v7H14z"/><path fill="#2c434a" d="M117 164h49v5h-49z"/><path fill="#697178" d="M28 166h19v4H28z"/><path fill="#3e525a" d="M32.5 163.5l-46.3-13.2 78.8-1.5-42.9-8.1z"/><path fill="#4c453e" d="M112 50h31v6h-31z"/><path fill="#7b8893" d="M57.6 53.6l-4.7-15.3 6.3 5.5L65 54z"/><path fill="#494a4c" d="M0 27h45v13H0z"/><path fill="#a5a8ae" d="M222.2 43.9l1.6 17.9-4 .3-1.6-17.9z"/><path fill="#947569" d="M163.1 133v-.7l-3.5 16.2 11-16.6z"/><path fill="#3e2d29" d="M217.9 149.6l4.6-6.1-1.4 17-17.3-21.9z"/><path fill="#706c69" d="M9 43h31v6H9z"/><path fill="#7f898f" d="M41.4 109.8l71.7-22.7-120.5-12 52.6 58.2z"/><path fill="#8a8681" d="M88 36.9l8.8-5.5 2.9 12.5L118 65.4z"/><circle r="1" fill="#273c45" transform="rotate(-82.2 124.3 49.3) scale(1 38.59745)"/><ellipse cx="19" cy="137" fill="#1d3743" rx="5" ry="2"/><path fill="#807870" d="M68 54h31v3H68z"/><path fill="#58676f" d="M74.8 123.2L8.2 153.8 25 167.6l-32.6 2z"/><path fill="#585553" d="M113.4 54.7l-4.5 1 1.9-20.7-16.7 1.8z"/><path fill="#b89181" d="M173.6 45.1l-4 .7-1.2-6.9 4-.7z"/><path fill="#5a6b7a" d="M238 122l33 24-50 6z"/><path fill="#bbc0c9" d="M53-2l23 29-65-4z"/><path fill="#524d49" d="M193 52.2l.2-1 37.7 4.6-.1 1z"/><path fill="#abb4c1" d="M115 23l-37 3 49 12z"/><path fill="#d2c0b1" d="M234 54h8v2h-8z"/><path fill="#a8aeb9" d="M249 27l22-22-22 42z"/><circle cx="161" cy="48" r="3" fill="#c7aa8d"/><path fill="#7c756f" d="M0 55h44v5H0z"/><path fill="#cfbfad" d="M141 55h34v1h-34z"/><path fill="#4b5761" d="M253 175l-58-21 65-4z"/><path fill="#675451" d="M174 47l-12-11 16 2z"/><path fill="#706861" d="M135 34l-23 17 34-11z"/><path fill="#5c6a73" d="M79.6 155.5l-.4 5-44.8-4 .4-5z"/><path fill="#5b6c74" d="M116.1 149l49.4 6.8-6.4-19.4-45.9-6.2z"/><path fill="#b35438" d="M213.6 150.7l-.7-.8 7.5-6.6.7.8z"/><path fill="#3a4e57" d="M88.6 155.4l27.8-17.9-19.9 4.1-11.1 37.9z"/><path fill="#798696" d="M245.3 117L271 69.2l-74.7 42.5-31.7 9.2z"/><path fill="#7c878e" d="M92 92h77v21H92z"/><path fill="#36231a" d="M207 149l4-9 1 13z"/><path fill="#616c76" d="M172 137h31v16h-31z"/><ellipse cx="143" cy="56" fill="#9d8269" rx="49" ry="1"/><path fill="#2a4049" d="M86 185l-56.2-30.1 29.2 6 3.1-2.2z"/><path fill="#90999f" d="M0 59h93v18H0z"/><path fill="#827c76" d="M131.4 57.5l-4.1-21 7.6-3 4.6 9.1z"/><path fill="#bfc2cb" d="M167.8 28.1l3.4 19.9 1.4-27.4L24.9 7.5z"/><path fill="#a2998a" d="M169 147l-3 4-3-8z"/><path fill="#6d7a82" d="M1 113h150v14H1z"/><path fill="#aeb4c1" d="M209.9 34.1L268.1-16l-45.4 63.2 12.4-3z"/><ellipse cx="154" cy="161" fill="#67777d" rx="12" ry="3"/><path fill="#9ba4ae" d="M89 57h142v12H89z"/><path fill="#5f6f78" d="M113.7 150.2l-40.4 9 85.7-34.8-19.9 23.6z"/></g></g></svg>