<svg xmlns="http://www.w3.org/2000/svg" viewBox="0 0 1200 1800"><defs/><filter id="a"><feGaussianBlur stdDeviation="12"/></filter><rect width="100%" height="100%" fill="#2a4e36"/><g filter="url(#a)"><g fill-opacity=".5" transform="translate(3.5 3.5) scale(7.03125)"><circle r="1" fill="#e9cff3" transform="matrix(8.79833 -168.77082 59.82149 3.1186 71.8 104.1)"/><circle r="1" fill="#f8feff" transform="rotate(89.3 25.8 57) scale(147.45391 23.50405)"/><circle r="1" fill="#7b6876" transform="rotate(108.8 60.4 80.5) scale(169 44.87895)"/><circle cy="161" r="67" fill="#544853"/><ellipse cx="113" cy="255" fill="#bdbcfe" rx="20" ry="26"/><circle r="1" fill="#62606c" transform="matrix(5.19559 -159.59265 20.96831 .68263 28.5 117)"/><circle r="1" fill="#b9bbd9" transform="matrix(-3.91494 .2463 -5.57768 -88.65476 164.3 93.2)"/><circle r="1" fill="#383131" transform="rotate(74.5 -56.9 188) scale(66.80313 35.41531)"/><path fill="#86a4d0" d="M83 188l-91 66 72 17z"/><circle r="1" fill="#9c97a1" transform="matrix(8.34337 2.13533 -14.35634 56.09446 135.3 30.4)"/><path fill="#acb7bc" d="M84 179l-38-56 13 128z"/><circle r="1" fill="#8d7383" transform="matrix(5.91265 -29.58993 9.8896 1.97614 17 28.7)"/><ellipse cx="78" cy="86" fill="#eeecec" rx="12" ry="63"/><path fill="#131d29" d="M30 26h10v34H30z"/><path fill="#273032" d="M40 223L9 240l27-62z"/><ellipse cx="75" cy="248" fill="#6c809c" rx="61" ry="31"/><path fill="#656661" d="M160 116.7l-16.3 38.6-37.8-16 16.4-38.6z"/><path fill="#b4b1a2" d="M90 63h17v79H90z"/><ellipse cx="163" cy="18" fill="#a6b4cb" rx="3" ry="153"/><ellipse cx="25" cy="83" fill="#959697" rx="4" ry="136"/><path fill="#3d2b3d" d="M0 60h17v53H0z"/><path fill="#130612" d="M0 132h8v101H0z"/><ellipse cx="58" cy="83" fill="#9e9f96" rx="8" ry="52"/><circle r="1" fill="#afd2f3" transform="rotate(168.3 40.9 13.9) scale(23.63581 29.52615)"/><path fill="#2d2225" d="M157 35l-8 84-16-23z"/><circle r="1" fill="#4c4a49" transform="matrix(-6.77721 20.7349 -5.77203 -1.88659 113.7 73)"/><path fill="#1c3340" d="M123.3 208.3l-38-8.8 1.4-5.8 38 8.8z"/><ellipse cx="157" cy="204" fill="#282825" rx="27" ry="46"/><path fill="#23252c" d="M46 96l-9-22 11-4z"/><path fill="#96adc9" d="M113 215l-1 56-25-70z"/><path fill="#d6e1fb" d="M141 0h6v19h-6z"/><path fill="#848d9d" d="M10 151h5v83h-5z"/><circle r="1" fill="#9d8281" transform="matrix(-6.86966 -11.80326 6.53869 -3.8056 2 117.6)"/><path fill="#1b111f" d="M164 15h5v26h-5z"/><circle r="1" fill="#5b6a7f" transform="matrix(.7477 -35.69438 12.9665 .27161 85 246.8)"/><circle r="1" fill="#3b3130" transform="matrix(-1.15835 -.23074 11.71298 -58.79957 124 30)"/><path fill="#8e9494" d="M101 154h12v24h-12z"/><path fill="#1f0323" d="M16.8-16L-16-8.1 2.8 83.6l2.5-61.2z"/><path fill="#abc2dd" d="M60 192h16v42H60z"/><path fill="#8b8289" d="M164.4-16l-45 145.8 27-71.5 27.9-56.1z"/><path fill="#c6c8d0" d="M39.7 24.9L30.4-9.9l3.9-1 9.3 34.8z"/><path fill="#484a4b" d="M26 113h9v86h-9z"/><path fill="#424241" d="M137.3 117.3l21.1-11.8-11.8-39.4-36.2 80.7z"/><path fill="#b2b9bb" d="M41.3 39.9l12.9-7.3 13 109.2-15-83z"/><ellipse cx="38" cy="26" fill="#64696c" rx="23" ry="9"/><path fill="#e0d6cb" d="M60 180l29-22 1-43z"/><path fill="#e6ffff" d="M125 57h3v27h-3z"/><path fill="#1e242a" d="M31 47h2v66h-2z"/><path fill="#4e5258" d="M19.6 235.1L50.9 94.7l18.5 18.5-18.4-6z"/><path fill="#423436" d="M168 85h2v101h-2z"/><path fill="#858988" d="M41 151h32v40H41z"/><circle r="1" fill="#3a2b2e" transform="matrix(-28.00583 81.23826 -1.5349 -.52914 142.6 44.5)"/><path fill="#c1c7c2" d="M111 25h6v28h-6z"/><path fill="#b0c4d5" d="M23 48h2v87h-2z"/><path fill="#3d3437" d="M34.4-16h22.3L42.8 20.1l.5-9.7z"/><path fill="#7e8181" d="M3.5 93.5l29.7 28L6.6 89.4-16 69.7z"/><path fill="#070a07" d="M154 214l16-28-4 54z"/><path fill="#d3d7da" d="M64 52h44v16H64z"/><ellipse cx="131" cy="186" fill="#394d3c" rx="17" ry="42"/><path fill="#89a1bb" d="M34 222l29-31 6 60z"/><ellipse cx="102" cy="118" fill="#bbc4c0" rx="5" ry="28"/><ellipse cx="165" cy="115" fill="#abbbcd" rx="2" ry="56"/><path fill="#797977" d="M133.1 128.4l31.1-5-16.6 15.5-47.8 11.4z"/><path fill="#c4bab0" d="M97.8 156.5l-25.2 46-6.3-74.9L77.7 138z"/><path fill="#eff0f1" d="M91 101l-3 48-19-24z"/><path fill="#ad9b8b" d="M90.1 73l2 6.7-5.9 29 21-52.8z"/><path fill="#cecdbe" d="M53.3 111.5l2 .3-4.6 36.7-2-.3z"/><ellipse cx="56" cy="165" fill="#292f35" rx="1" ry="35"/><path fill="#3d3328" d="M10.6 102.7l11.4 7.1-.3 15-13.8-12.3z"/><path fill="#3f3537" d="M185 242.2L151.7 271 113 190.2l-2.4 40.4z"/><path fill="#2e373f" d="M39 76.6l3-.1 3 81h-3z"/><path fill="#42506b" d="M86 201l-5-17 45 5z"/><path fill="#8f8272" d="M69.8 144.7l-2 .2-7.6-87.6 2-.2z"/><path fill="#3a3336" d="M160 67.6l-23.1 20.7 22.7-57.9-1.7-33.5z"/><path fill="#4f454c" d="M26.3 35l10.2 12.2L13.6-9.5 2.7-15.3z"/><path fill="#a8a3a6" d="M36 83h4v51h-4z"/><path fill="#d0e1e5" d="M115 90h3v22h-3z"/><path fill="#939aa6" d="M98 202.8L93.1 94.3l-4.2 98.6 24.9 15.3z"/><path fill="#ccd5dd" d="M63 25h41v31H63z"/><path fill="#212939" d="M-6.7 48.4l22 54.8.5-36.4L3.7 44.5z"/><path fill="#9d938d" d="M102.8 12.8l1.5 11.6 14 2.8 11-43.2z"/><circle r="1" fill="#906e4d" transform="matrix(.99075 .13572 -2.24957 16.42223 91.6 88.7)"/><ellipse cx="75" cy="167" fill="#d9e0e8" rx="2" ry="52"/><path fill="#acb5b7" d="M55.3-6L42.7 48.4l-2-.4L53.3-6.5z"/><path fill="#5b5653" d="M120 4h8v48h-8z"/><ellipse cx="36" cy="198" fill="#23333f" rx="5" ry="21"/><path fill="#000014" d="M86 198h16v3H86z"/><path fill="#3a3953" d="M109.8 20.9l1.4 16-3 .2-1.4-16z"/><path fill="#1f2b1c" d="M125.6 269.8l20.3-53.6-19.1-24.2 38.8 5.6z"/><ellipse cx="55" cy="92" fill="#5e6366" rx="1" ry="61"/><path fill="#37404f" d="M99 73h1v27h-1z"/><path fill="#38403a" d="M153.5 183.9l23.6 19.1-21.6-72.5-53.1 83.4z"/><path fill="#5f4e69" d="M-11 242l3 21 25-37z"/><ellipse cx="109" cy="96" fill="#535861" rx="2" ry="64"/><path fill="#1a1d20" d="M-8 120l15 34 6-17z"/><circle r="1" fill="#808484" transform="rotate(-10.8 965.7 -459.6) scale(28.30877 4.59574)"/><path fill="#969798" d="M110.8 142.8l30.5-78.7-6.3 5.6-2.2 25.6z"/><path fill="#92888d" d="M30 174l-7-14 7-22z"/><path fill="#cccbbb" d="M47 97l3-21 8 6z"/><path fill="#748496" d="M43 263.3l2 1.8-7.1-90.4 8.5-16.6z"/></g></g></svg>