<svg xmlns="http://www.w3.org/2000/svg" viewBox="0 0 1800 1350"><defs/><filter id="a"><feGaussianBlur stdDeviation="12"/></filter><rect width="100%" height="100%" fill="#284b5d"/><g filter="url(#a)"><g fill-opacity=".5" transform="translate(3.5 3.5) scale(7.03125)"><ellipse cx="145" cy="56" fill="#7297e0" rx="255" ry="72"/><circle r="1" fill="#683800" transform="rotate(-176.8 65.5 50.8) scale(58.14434 30.33009)"/><circle r="1" fill="#d1a77e" transform="matrix(-.6024 -14.32922 188.10437 -7.90783 136.6 191)"/><circle r="1" fill="#9bbddc" transform="matrix(-6.60326 26.48424 -49.53801 -12.35121 227 99.7)"/><circle r="1" fill="#87a7c8" transform="matrix(-46.48249 18.82859 -8.9897 -22.19303 36 100.1)"/><circle r="1" fill="#2968bf" transform="matrix(-242.45782 20.84096 -4.4131 -51.34085 119.4 21.7)"/><ellipse cx="225" cy="152" fill="#497191" rx="54" ry="27"/><circle r="1" fill="#486776" transform="matrix(-48.6224 26.57957 -14.1327 -25.85315 37.3 148.2)"/><ellipse cx="243" cy="62" fill="#4c89c8" rx="120" ry="26"/><path fill="#6c512d" d="M117 79l-78 47 175-1z"/><circle r="1" fill="#325152" transform="matrix(-26.37887 22.58238 -18.30927 -21.38737 106.8 156.3)"/><path fill="#dac7ac" d="M194 202l-56-14 5-15z"/><path fill="#f8e5c3" d="M39 186l-55 17 30-20z"/><circle r="1" fill="#95a9c3" transform="matrix(-1.62126 11.11333 -36.78908 -5.36695 16 85.4)"/><ellipse cx="87" fill="#2a589f" rx="114" ry="35"/><path fill="#0e0a05" d="M232.8 191.5l4.1-8.5 12.8-2-20.3 26z"/><path fill="#4985c0" d="M82 96l-98-41 117 3z"/><ellipse cx="173" cy="133" fill="#1b4a71" rx="158" ry="7"/><circle r="1" fill="#d1d7d4" transform="matrix(-.3128 4.35262 -15.54024 -1.11677 191.2 93.1)"/><path fill="#355255" d="M124 183l78-72-175 67z"/><path fill="#d9ccb8" d="M53 182h14v10H53z"/><path fill="#423f36" d="M66 117l71-44H96z"/><path fill="#090702" d="M126 178l10 29 9-8z"/><path fill="#3f585c" d="M166 176.4l18.8 26.3-61.4-54.8 114.7 30.9z"/><path fill="#d2b898" d="M174 178h19v13h-19z"/><ellipse cx="97" cy="125" fill="#8b7c6a" rx="105" ry="2"/><path fill="#3c3419" d="M190 113l-36 6 53 6z"/><path fill="#110d05" d="M150 192.7l24.5 8.9-26.1-16.3 9.2 19.8z"/><path fill="#e0d8c7" d="M135 176h22v6h-22z"/><ellipse cx="43" cy="153" fill="#345e77" rx="44" ry="30"/><path fill="#d5bfa2" d="M219.6 181.7l26 25.3-21.1-28.6-8.2.2z"/><path fill="#432f1e" d="M194 178l1 7 24 2z"/><circle r="1" fill="#5d482c" transform="matrix(1.54267 7.0318 -22.00722 4.82805 72 117.2)"/><ellipse cx="24" cy="117" fill="#6587b6" rx="29" ry="8"/><circle r="1" fill="#5689c5" transform="matrix(37.7507 -12.04778 5.36665 16.81592 229.3 72.3)"/><path fill="#cab094" d="M96.3 207l-68.2-28 81.8 28-3.7-28.5z"/><path fill="#899fbb" d="M267.3 126.5l-58 1-.6-32 58-1z"/><path fill="#3e3e35" d="M112.4 190.9l9.1 16.1-36.2-35.2 4.5 19.5z"/><path fill="#c5bcae" d="M115 183h9v7h-9z"/><path fill="#4678bb" d="M-16 42.5v29.8L6.5 89.2 64 52.6z"/><path fill="#261301" d="M72 187.6l.3 19.4-15.7-3.9L120 207z"/><path fill="#f0cfac" d="M241.5 176l-15 1v-1l15-1z"/><circle r="1" fill="#464038" transform="matrix(-1.6828 -6.9559 7.91052 -1.91376 175.7 104)"/><path fill="#675a4c" d="M88.1 101.9l58.8 17.2-18.9-48-17.3 6.1z"/><circle r="1" fill="#3a332c" transform="matrix(-1.78563 2.53723 -9.13283 -6.4274 166 182.3)"/><path fill="#6a9bc9" d="M59 106l27-15 5-17z"/><path fill="#463e36" d="M136.8 88.4l26.4-.6-29.8-14.9-25.3 1.2z"/><path fill="#d8dcd9" d="M196.8 96.7l-6 3.5-7.6-13 6-3.4z"/><path fill="#315559" d="M182 132l-64 49 65-19z"/><path fill="#81674b" d="M-16 128.1l20.5-4.4 19.4 5.3-17.1 2.1z"/><path fill="#446b87" d="M218 135h38v29h-38z"/><circle r="1" fill="#4277b4" transform="matrix(135.92906 -22.79051 2.43225 14.50665 159.8 51.4)"/><path fill="#bea180" d="M184 185h24v4h-24z"/><path fill="#3c6171" d="M180.5 179.4l-16.2-4 25.7-54 23.6 41.7z"/><path fill="#2a261f" d="M234.1 183.9l12.5 5.4 4.6-.9-15.6-8.2z"/><path fill="#b0bdcd" d="M17.7 80.8l13.2-4.3 5.4 20.9.9-12.7z"/><path fill="#ddc7ac" d="M168.9 190.1L133 207h35.6l-18.2-32.4z"/><path fill="#0f0600" d="M33 190h9v2h-9z"/><path fill="#9e8a71" d="M42 184h46v5H42z"/><path fill="#faf2e3" d="M53 190h16v2H53z"/><path fill="#344d51" d="M63.1 188.7l16.1-8.4-20.1-7 14.4 16.6z"/><path fill="#91a4b9" d="M254 93l-59 22-14-18z"/><path fill="#5990c3" d="M188.3 97.7l-33-21.9 45.9-13.2-22.1 33z"/><circle r="1" fill="#5f83aa" transform="matrix(-34.84853 4.08052 -1.07733 -9.20063 39.3 107.6)"/><path fill="#3e525e" d="M201.1 175.5l3.1 28.9-15.6-7.7 29.3-23.2z"/><ellipse cx="121" cy="36" fill="#346bab" rx="68" ry="19"/><ellipse cx="135" cy="130" fill="#173655" rx="58" ry="4"/><path fill="#244652" d="M0 177h129v4H0z"/><path d="M209 184h3v6h-3z"/><path fill="#bfc6c8" d="M56.8 97.2l-8-.4.4-6 8 .4z"/><path fill="#4f341e" d="M179 190h13v2h-13z"/><path fill="#385f77" d="M52.3 135.4l-66.5-7.5L30 169.1l-.5 23.8z"/><path fill="#403025" d="M108 182h4v10h-4z"/><path d="M169 185h5v3h-5z"/><path fill="#9d9486" d="M29 188l9-9 19 11z"/><path fill="#383a38" d="M65 111l33-7-8-11z"/><path fill="#524940" d="M93.3 75.8l67.3 3.8 15.5 11.9 12.4 19.6z"/><path fill="#374e4b" d="M156 162l-32 21-43-22z"/><path fill="#706858" d="M100.8 207l47.3-28.2 6.3 10.3-16.4-6.3z"/><path fill="#f5e3c6" d="M175 185h3v7h-3z"/><path fill="#705c47" d="M198 118l-21 6 40 3z"/><path fill="#ccb998" d="M220 185h13v5h-13z"/><path fill="#325259" d="M181.6 178.1l-8.6-34.9-84.9-11.8 37.3 41.6z"/><path fill="#aa9476" d="M63 118h5v5h-5z"/><path fill="#d3ac82" d="M81.4 180.5l1.1 5.9-5.9 1.1-1.1-5.9z"/><path fill="#e1e2db" d="M150.4 198.2l-11.6-13.8.8-.6 11.6 13.8z"/><path fill="#2f5161" d="M24 181l-40 11 29-23z"/><path fill="#bfa98f" d="M195.4 201.5l-9.4-23.2 4.6-1.8 9.4 23.2z"/><path fill="#d4c5a8" d="M7 185h21v7H7z"/><path fill="#58544b" d="M134 177l9 14-7 2z"/><path fill="#b7af9f" d="M125.9 181.7l50.9-3.8-22.6 3.1-6.3-6.1z"/><path fill="#477fb7" d="M58 91L37 67l99-11z"/><path fill="#907255" d="M83 112l11 1-10 10z"/><path fill="#3a402b" d="M67 118h33v5H67z"/><path fill="#765f49" d="M145 88l11.6 13.6-51.9 11.3 70 1.9z"/><path fill="#d9a87f" d="M105 181h3v11h-3z"/><path fill="#4a5860" d="M239 164l13 20-11-5z"/><ellipse cx="227" cy="111" fill="#7495b6" rx="40" ry="7"/><path fill="#3a6279" d="M200 137h14v43h-14z"/><path fill="#867860" d="M81 123h86v4H81z"/></g></g></svg>