<svg xmlns="http://www.w3.org/2000/svg" viewBox="0 0 1800 1200"><defs/><filter id="a"><feGaussianBlur stdDeviation="12"/></filter><rect width="100%" height="100%" fill="#46452b"/><g filter="url(#a)"><g fill-opacity=".5" transform="translate(3.5 3.5) scale(7.03125)"><circle cx="143" cy="133" r="208" fill="#8797b0"/><ellipse cx="20" cy="84" fill="#4a4401" rx="255" ry="24"/><circle cx="147" cy="169" r="76" fill="#9a9998"/><circle r="1" fill="#0d0000" transform="matrix(-.01672 -4.7896 67.18752 -.23453 126.2 135.5)"/><circle r="1" fill="#a6a094" transform="matrix(-62.44542 19.95624 -11.58932 -36.26433 22.5 151.2)"/><circle r="1" fill="#4966a2" transform="matrix(3.7836 -34.27144 235.0556 25.95038 129.5 19)"/><ellipse cx="199" cy="157" fill="#7c98ac" rx="255" ry="17"/><circle r="1" fill="#4d4b0d" transform="matrix(2.36898 17.50874 -48.43425 6.5533 91.8 64.8)"/><circle r="1" fill="#f8f7f9" transform="matrix(-.81978 -4.12988 20.86758 -4.14222 176 127.8)"/><path fill="#5b5a2d" d="M255 121L129 90l141-34z"/><ellipse cx="45" cy="137" fill="#231c19" rx="154" ry="3"/><path fill="#4d69a7" d="M137 55h65v16h-65z"/><ellipse cx="32" cy="124" fill="#d3b589" rx="97" ry="6"/><path fill="#373718" d="M-5 87l38-29 63 62z"/><path fill="#c6b7a3" d="M224.3 131.2l46.7 4.1-84-23.5 14.2 30.6z"/><path fill="#67533c" d="M74.8 97.5l65.7 27.1 25.5 1.7-21.9-17.7z"/><circle r="1" fill="#1c0f11" transform="matrix(24.50556 -.3342 .03805 2.7903 232.3 136.8)"/><circle r="1" fill="#4d679a" transform="matrix(3.0155 14.90815 -61.07749 12.3543 9.6 50.8)"/><path fill="#9e8a74" d="M39.3 102.7l19.4 4.8-10 39.8-19.4-4.8z"/><path fill="#c09f86" d="M135 95l75 14-48 13z"/><path fill="#8a8c58" d="M163 100l-29-36 49 14z"/><path fill="#120706" d="M80 137l-27-1 5-8z"/><path fill="#5b5331" d="M-16 106.2l118.4 16.3-31-35.2-22.1 36.2z"/><path fill="#e4e7e8" d="M15 139h24v4H15z"/><path fill="#d6dde6" d="M203 121l4 23 7-9z"/><circle r="1" fill="#2c3955" transform="matrix(14.5639 -5.24333 1.26646 3.51774 191.4 133.8)"/><circle r="1" fill="#31342a" transform="rotate(-107.1 154.7 -57.2) scale(10.92342 25.81935)"/><path fill="#caaf91" d="M-11.3 87.6l21.1 42 106.4-5.4L3.4 136.9z"/><ellipse cx="136" cy="133" fill="#231c18" rx="25" ry="4"/><path fill="#978367" d="M92 103h14v31H92z"/><ellipse cx="236" cy="120" fill="#8a7757" rx="31" ry="9"/><ellipse cx="231" cy="163" fill="#85949d" rx="71" ry="25"/><circle r="1" fill="#515226" transform="matrix(-45.04404 6.49095 -2.83928 -19.70323 90.3 68.7)"/><ellipse cx="40" cy="91" fill="#171b14" rx="17" ry="7"/><circle r="1" fill="#4e6284" transform="rotate(-105 130 -71) scale(27.7273 75.06727)"/><ellipse cx="144" cy="101" fill="#b49d8d" rx="26" ry="4"/><path fill="#201716" d="M213 132h18v7h-18z"/><path fill="#6376a3" d="M163 65l-15 9-19-25z"/><path fill="#595840" d="M174 96l52-11 17 37z"/><path fill="#f4f6fa" d="M179 122h27v5h-27z"/><path fill="#d0c3b3" d="M61.3 117.3l.8 3.4 13.5 4.7 31.3.4z"/><path fill="#5e5c2e" d="M7 65l-6 53 30-9z"/><circle r="1" fill="#2d2b2c" transform="rotate(8.6 -423.8 509.7) scale(30.81614 3.76719)"/><path fill="#767c84" d="M41 139h114v14H41z"/><ellipse cx="238" cy="130" fill="#d7c5b2" rx="32" ry="2"/><ellipse cx="53" cy="10" fill="#5d6e8f" rx="92" ry="42"/><path fill="#676625" d="M95 61l61 33-34-50z"/><ellipse cx="131" cy="110" fill="#42352e" rx="22" ry="2"/><ellipse cy="120" fill="#ddd3b9" rx="30" ry="3"/><path fill="#2e2f2d" d="M63.6 116.9l-10.5-3.3 41.5-9.8L77 98.1z"/><circle r="1" fill="#65682e" transform="rotate(104.5 7.1 69.1) scale(4.48646 48.01117)"/><path fill="#c7c9cc" d="M219 130l-28 8 8-8z"/><path fill="#564b29" d="M4 122h11v4H4z"/><path fill="#2a2724" d="M92.3 73.2l11.4-8.2 10 13.8-11.4 8.2z"/><path fill="#b3a38c" d="M118 128l6-24 3 24z"/><ellipse cx="32" cy="158" fill="#76878f" rx="52" ry="17"/><ellipse cx="84" cy="136" fill="#282422" rx="41" ry="3"/><path fill="#7d7150" d="M160.2 115.5l-44.7 15.2 49.7-3.3-25.9-72.8z"/><ellipse cx="200" cy="94" fill="#797653" rx="29" ry="3"/><path fill="#1f1614" d="M271.6 137.2l-.4 4-40.8-4.4.4-4z"/><path fill="#3b3431" d="M192 139l-9-11-32 10z"/><circle r="1" fill="#e4e5e2" transform="rotate(-106 132 3) scale(3.38755 5.19841)"/><path fill="#8c8078" d="M231.6 114.6l15.2 3.2H271l-33-11.1z"/><path fill="#a39585" d="M152.5 94.8l-6.2 19.6 23.6 10.8 32.9-3.6z"/><path fill="#4a4e26" d="M178 99l11-32h31z"/><ellipse cx="64" cy="59" fill="#6e6f21" rx="33" ry="2"/><path fill="#556788" d="M130.4 68.6L215-2.6l27.4 73-18.9-3.7z"/><circle r="1" fill="#aaa8a0" transform="matrix(-.9047 .42605 -16.51058 -35.05912 162.6 98.5)"/><circle r="1" fill="#626436" transform="matrix(1.1903 -4.40226 17.0731 4.61626 82.8 115.1)"/><path fill="#2e2e18" d="M90 51h30v5H90z"/><path fill="#505234" d="M203.1 92.8l52.1 15-56.5-2.1 53.9 20.2z"/><path fill="#bfc1c8" d="M50 138l-19.6 4-.4-2 19.6-3.8z"/><path fill="#9d896f" d="M91 129l11 5 10-23z"/><path fill="#8a7963" d="M29.8 114.4l27.6 15.9v-27.1l-65.5 15.1z"/><path fill="#626721" d="M0 74h37v8H0z"/><path fill="#948769" d="M205.5 109.9l.8 19.7 64.7.3-43.3-10.6z"/><path fill="#4f4f25" d="M151 88L92 62l37 36z"/><path fill="#8d8b4a" d="M-14 80l-2 19 32 2z"/><circle cx="122" cy="101" r="6" fill="#aa9481"/><path fill="#716f3b" d="M65 73l10-6 28 16z"/><path fill="#f9faf8" d="M159.6 132.3l-.5-2 31.3-6.6.5 2z"/><path fill="#556888" d="M-9 68l1-41 142 7z"/><ellipse cx="32" cy="125" fill="#7c6d53" rx="14" ry="2"/><path fill="#cdccc3" d="M154 110h2v18h-2z"/><path fill="#0c0b0a" d="M114 136h16v4h-16z"/><path fill="#62662f" d="M217 66l54 49-85-40z"/><path fill="#cdb398" d="M25.8 129.2l27.9-2.4.5 6-27.9 2.4z"/><path fill="#284f97" d="M185 129h19v3h-19z"/><path fill="#a6a487" d="M151 72h2v27h-2z"/><path fill="#89873a" d="M132 54l-26-10h17z"/><path fill="#575336" d="M153 119l5 16-17-19z"/><path fill="#625349" d="M155 111.3l-48.4 2 16-3 25.8-3.7z"/><path fill="#646635" d="M196 103l-34-8-9-26z"/><path fill="#b2a189" d="M114.4 130.3l10.3-4.7-20-17.1 6.7 18.8z"/><path fill="#443f35" d="M107 100h9v10h-9z"/><circle r="1" fill="#716c5f" transform="matrix(-2.54461 3.38618 -3.1007 -2.33009 74.3 99.2)"/><path fill="#757533" d="M132.7 82.1L83.3 51.8l105.1 43.6-57.5-23.1z"/><path fill="#2b2e24" d="M54 102h26v7H54z"/><path fill="#313424" d="M248.7 70.1l20.2 24.3-26-4.7 20.9-31z"/><path fill="#74763c" d="M112.6 45.4L71 50.2l-18.4 4.9 50.5-6.2z"/></g></g></svg>