<svg xmlns="http://www.w3.org/2000/svg" viewBox="0 0 4752 3168"><defs/><filter id="a"><feGaussianBlur stdDeviation="12"/></filter><rect width="100%" height="100%" fill="#3e5a36"/><g filter="url(#a)"><g fill-opacity=".5" transform="translate(9.3 9.3) scale(18.5625)"><circle r="1" fill="#e2c0b2" transform="rotate(-112.7 80 -29.7) scale(107.87496 255)"/><circle r="1" fill="#e1ffff" transform="matrix(51.5211 138.58324 -30.28299 11.2583 241.2 27)"/><path fill="#604f1c" d="M16 152L195 7l76 177z"/><circle r="1" fill="#ebdcf8" transform="matrix(74.9796 -77.77675 32.19068 31.03298 26.7 28)"/><ellipse cx="86" cy="94" fill="#2d4409" rx="30" ry="33"/><path fill="#dff5ff" d="M225.7 185l31.6-56.3 13.7 34.1-29.4 22.2z"/><ellipse cx="203" fill="#f5d8ca" rx="116" ry="27"/><ellipse cx="194" cy="96" fill="#233e1b" rx="42" ry="24"/><path fill="#bcdfa9" d="M189.3 138.1l-46 15.3 13.4-41.5 34.1 27.1z"/><ellipse cx="134" cy="169" fill="#924932" rx="101" ry="24"/><circle r="1" fill="#9d82a7" transform="rotate(-116.6 42.8 57.6) scale(109.20532 24.86484)"/><path fill="#a6d5ac" d="M128.6 54.9l-10 26.4 1.2 21.4L151.3 65z"/><path fill="#335631" d="M226.9 73.4l-14-22.9-106.4-20.2 6.2 17.8z"/><path fill="#fbffe4" d="M113 46l-37 9 18-21z"/><path fill="#d7effd" d="M214.1 46L187.3-4.1l18.6-9.9 26.8 50.3z"/><path fill="#b78f50" d="M188 2l-61 18 86 26z"/><ellipse cx="152" cy="123" fill="#97c983" rx="18" ry="15"/><path fill="#223f1d" d="M133 115L95 97l72-4z"/><path fill="#7e4528" d="M253.8 134.8l-18.1 8.5-35.5-76.1 18.1-8.5z"/><circle r="1" fill="#c7aa4e" transform="matrix(-11.6598 13.68079 -14.32183 -12.20614 45 85.8)"/><ellipse cx="91" cy="73" fill="#212825" rx="36" ry="5"/><path fill="#6c290d" d="M102 159.1l49.8-17L49.9 139l66.6-13.6z"/><path fill="#e78b34" d="M111 101l-3 49-15-5z"/><path fill="#4f2112" d="M81 10v8l22-9z"/><path fill="#dfa756" d="M172 92.8L161.3 94 158 63.2l11-1.2z"/><ellipse cx="255" cy="80" fill="#8ba7ba" rx="16" ry="49"/><circle r="1" fill="#e3f5fe" transform="matrix(-81.7198 -15.58183 2.87452 -15.07559 232.1 0)"/><path fill="#ccbb8c" d="M93.3 73L59.7 39.5l38.5 13.4 6.6 16.4z"/><circle r="1" fill="#67311c" transform="rotate(88.6 35.6 181.2) scale(23.93416 30.78412)"/><circle cx="94" cy="96" r="13" fill="#7ea34c"/><circle r="1" fill="#bde4b3" transform="matrix(4.46618 8.86444 -6.12322 3.08506 153.8 141.7)"/><path fill="#8de481" d="M189 69l13-10 8 18z"/><ellipse cx="111" cy="19" fill="#cdb6b7" rx="27" ry="6"/><ellipse cx="158" cy="131" fill="#292b06" rx="9" ry="3"/><circle r="1" fill="#275030" transform="matrix(19.4249 -14.47888 11.89443 15.9576 194.5 108.7)"/><circle r="1" fill="#2f6274" transform="matrix(-1.46819 1.04982 -22.21023 -31.06144 255 49.6)"/><path fill="#51933e" d="M121.8 98.2l19-28.2 17.4 11.8-19 28.2z"/><path fill="#e4efd7" d="M48 36h15v29H48z"/><path fill="#d4bd79" d="M123.2 80.8l58.9-21.5.4 11.8-38.2-7.6z"/><path fill="#c8d1f1" d="M241 157l-20 28 43-23z"/><path fill="#8d6a56" d="M30 183l8-60 91 62z"/><path fill="#bef291" d="M44 114h9v19h-9z"/><path fill="#3f4924" d="M91 134L59 86l24-32z"/><path fill="#502f19" d="M121.4 147.1l14.4-16.5 10.5 6.5 3.8 19.5z"/><path fill="#8baa3d" d="M87.3 136.2l-19.5-1.5-21.7-25.4 4.7-11.9z"/><path fill="#b0baa8" d="M139.8 54.2l-17.5-2.5.4 24.6 4.6 16z"/><path fill="#5b562a" d="M43 70h8v21h-8z"/><circle r="1" fill="#d7c9cb" transform="matrix(5.27375 11.84503 -41.4945 18.47454 46.2 14.3)"/><circle r="1" fill="#341f1f" transform="matrix(-18.16959 24.93984 -2.56926 -1.8718 97.2 122.6)"/><circle r="1" fill="#744e50" transform="matrix(-.65916 -2.97738 27.0664 -5.99225 97.5 32.8)"/><ellipse cx="7" cy="106" fill="#a098ad" rx="14" ry="48"/><path fill="#4a7d48" d="M187 44.5l-56.8 5-1.2-14 56.8-5z"/><path fill="#d7c289" d="M37.2 68.8l7.4 44.2 12.3-19.9-44.5 2.5z"/><path fill="#335435" d="M133.2 66.8l-.7-.9-22.9 26.5-29.5-15.7z"/><path fill="#66423e" d="M29 105l-7-15 35 22z"/><path fill="#252016" d="M166 74l47 18-23-22z"/><path fill="#2d3d30" d="M143.7 63.5l-4.6 3.7 1.9-31.7 12.3 7.1z"/><path fill="#b7cbd3" d="M206 12.8l23.2-9.3L246 45.2l-23.2 9.3z"/><path fill="#6aad53" d="M171 89l20-5-37 24z"/><path fill="#b7a42c" d="M112 133l14-8 8 14-14 8z"/><path fill="#cce0bf" d="M183.5 133.4l-28.6-9.2 5.2-9.3 12.8 26.8z"/><path fill="#c2a07f" d="M119 15l59 23-13-37z"/><path fill="#4f2711" d="M166 138l19 10-21 8z"/><path fill="#5b2108" d="M99.2 138.5l13.4-12.1.4-9.9 10.6 11.9z"/><circle r="1" fill="#978843" transform="matrix(11.96034 -2.97417 5.36138 21.56025 193.9 35)"/><path fill="#d7d1c8" d="M126.4 3.7L85.1 36.8l22.9 3.4-30.1 10.1z"/><path fill="#3e583c" d="M167 61.8l-52.8-16.2 104.9.6 3.5 1.6z"/><path fill="#96bb74" d="M183.3 133.6L118.8 113l.7 13.5 7.7-2z"/><path fill="#3e4b2d" d="M125.7 43.8l-10.4 12.9-25.2 49.6 26.8-38.1z"/><circle cx="58" cy="121" r="9" fill="#457338"/><path fill="#0c050d" d="M133.4 113.3l-1.3-2.8 26.5-11.8 1.3 2.8z"/><path fill="#d6c436" d="M107 111.6l7.5-6.5 4.6 5.3-7.6 6.5z"/><path fill="#8cc7ae" d="M124.1 104.9l-6.2-12.8 2.9-15.5 12.3-6z"/><path fill="#3d4a12" d="M146 135l8-6v-12z"/><path fill="#7e5646" d="M81.4 49.2l-1.8.1L70.4 39l15.1-6.5z"/><path fill="#4a2f34" d="M60 20h9v4h-9z"/><circle cx="70" cy="128" r="6" fill="#ddd152"/><path fill="#8fac5f" d="M68.1 30l5.1 64.3 56.9-6.5-56 1.7z"/><ellipse cx="192" cy="120" fill="#79aa4c" rx="11" ry="5"/><path fill="#786157" d="M71.7 15l23.4 22L117 20.1l25 38.1z"/><path fill="#491d19" d="M113 160.3l10.4-12.5-38.8-23.7 28.1 9.7z"/><path fill="#331a0d" d="M178.2 118.3l10.8 18.5 18.9-12.2-38.9 1.6z"/><circle r="1" fill="#d0dfe9" transform="matrix(9.01432 -5.52742 27.33237 44.57465 255 25.2)"/><path fill="#9ba461" d="M115.9 59.3l-10.6-17.4-8.3 7.7 26.5 27.3z"/><path fill="#1c3221" d="M203.7 91.4l-44.8 14.2-1.4 11.8 43.3-41.1z"/><circle cx="142" cy="126" r="8" fill="#c2d59b"/><circle r="1" fill="#b89c4a" transform="matrix(7.93433 3.54329 -2.64015 5.91199 59.4 82.9)"/><circle cx="99" cy="140" r="8" fill="#df8956"/><path fill="#5e3526" d="M76 131l-8 12 47 18z"/><path fill="#2c2a1c" d="M70.5 109.9l.9-30-12.9 13 24.8 4.8z"/><path fill="#709866" d="M147.2 34.1l-30.8 1.5 69.2 12.1-36.2-27.3z"/><path fill="#a5bbc3" d="M246 47l9 88-36-83z"/><path fill="#3c2d20" d="M178 31.5h6v29h-6z"/><circle cx="91" cy="117" r="4" fill="#a4e06f"/><path fill="#29575f" d="M244.1 33.8l9.8 20L271 79.9l-15.2-28.6z"/><path fill="#b0b075" d="M63 45L25 87l60-35z"/><path fill="#fffffa" d="M213.7 4.2l10.1 5.2-31.6-1.9L149.1-16z"/><path fill="#54906e" d="M191.1 100.9l17.3-8.9-11.3 1.3-24.2 10.3z"/><path fill="#a6cf7a" d="M91.3 95.2l-6-11.6 5.4-2.8 6 11.6z"/><path fill="#c4a25c" d="M154.3 55.1l-2.6 26.8-5.9-6.7 2.8-18.4z"/></g></g></svg>