<svg xmlns="http://www.w3.org/2000/svg" viewBox="0 0 1800 1013"><defs/><filter id="prefix__a"><feGaussianBlur stdDeviation="12"/></filter><rect width="100%" height="100%" fill="#2c355b"/><g filter="url(#prefix__a)"><g transform="translate(3.5 3.5) scale(7.03125)"><circle cx="102" cy="78" r="175" fill-opacity=".5"/><circle cx="158" cy="95" r="185" fill="#0f0300" fill-opacity=".5"/><circle r="1" fill="#ffd987" fill-opacity=".5" transform="matrix(75.80188 1.5112 -.09607 4.81885 179 92.6)"/><circle r="1" fill="#020200" fill-opacity=".5" transform="matrix(75.79603 207.90354 -74.16937 27.04015 42 93.8)"/><ellipse cx="165" cy="82" fill="#4e3c1e" fill-opacity=".5" rx="103" ry="9"/><path fill="#eecd97" fill-opacity=".5" d="M96 92h160v4H96z"/><circle r="1" fill-opacity=".5" transform="matrix(-214.5439 -4.34065 .58805 -29.06531 170.5 127.4)"/><path fill="#281f0d" fill-opacity=".5" d="M73.1 64.1l156.5 30 39.7 21.8-74.9-72.8z"/><ellipse cx="196" cy="1" fill="#080703" fill-opacity=".5" rx="255" ry="55"/><path fill="#3e3b37" fill-opacity=".5" d="M106.4 82.3l-.8 15-32-1.6.8-15z"/><ellipse cx="170" cy="93" fill="#f7daa3" fill-opacity=".5" rx="29" ry="3"/><circle r="1" fill="#634727" fill-opacity=".5" transform="rotate(-179 87.1 42.5) scale(53.72144 4.04403)"/><path fill="#86653b" fill-opacity=".5" d="M242 88h14v10h-14z"/><circle r="1" fill="#14110f" fill-opacity=".5" transform="matrix(30.79277 21.96427 -15.17405 21.27323 105 60.3)"/><path fill="#4a3419" fill-opacity=".5" d="M137.3 79.2l.8-4.2-13 25.2 9.3-3.9z"/><path fill="#1a140d" fill-opacity=".5" d="M271 97l-43-65-116 14z"/><path fill="#f8e1b3" fill-opacity=".5" d="M167 94h51v2h-51z"/><path fill="#634424" fill-opacity=".5" d="M209 91l-10-2-5 5z"/><path fill="#5c6a78" fill-opacity=".5" d="M70 84h31v3H70z"/><path fill="#a07542" fill-opacity=".5" d="M123.2 90.3l39.8-1.9 15.9 4.6-34.9-.9z"/><path fill="#825623" fill-opacity=".5" d="M135 96h55v2h-55z"/><path fill="#13100e" fill-opacity=".5" d="M163.5 37.4L91 88l22.4 1.9L62.9 68z"/><path fill="#392c1b" fill-opacity=".5" d="M116.4 96.8l13.4-20.1L241 91l-71.7-20.8z"/><path fill="#08070a" fill-opacity=".5" d="M49.7 84.8l31.4-.5L3.8-16h163z"/><circle r="1" fill="#040404" fill-opacity=".5" transform="matrix(5.15817 24.52433 -110.72168 23.28796 182.8 131.2)"/><ellipse cx="102" cy="115" fill="#060507" fill-opacity=".5" rx="36" ry="21"/><path fill="#121111" fill-opacity=".5" d="M86.3 89.3L64 96.5l30.5-21.4-18.3-28.6z"/><path fill="#3b2914" fill-opacity=".5" d="M164.8 100.7l62-3.5-8.1 2.2-21.9-4.2z"/><path fill="#edd299" fill-opacity=".5" d="M137 92h47v3h-47z"/><circle cx="247" cy="94" r="3" fill="#e2bc8c" fill-opacity=".5"/><path fill="#dbc3a1" fill-opacity=".5" d="M238.1 93.6l-3.6 3.5-.6-.7 3.6-3.5z"/><path fill="#5b4324" fill-opacity=".5" d="M80 91h26v5H80z"/><path fill="#463521" fill-opacity=".5" d="M270 84l-53.1 5 26.4 5.5 2.7-3.1z"/><circle r="1" fill="#040406" fill-opacity=".5" transform="matrix(39.62745 -7.32112 35.22502 190.6644 9 102.4)"/><circle r="1" fill="#798d9d" fill-opacity=".5" transform="rotate(95.8 3.6 77.7) scale(1 1.46957)"/><path fill="#847c5d" fill-opacity=".5" d="M105 91h12v4h-12z"/><path fill="#9ca8b8" fill-opacity=".5" d="M97 82l-9 3h7z"/><path fill="#15110f" fill-opacity=".5" d="M97 79l-7.7 19.5 42.2-40.1L25.2 85.1z"/><path fill="#d7b480" fill-opacity=".5" d="M223 93h10v4h-10z"/><path fill="#b7883f" fill-opacity=".5" d="M134 95h34v1h-34z"/><path fill="#765229" fill-opacity=".5" d="M173.4 93.9l3.3-5.5-48.1-3.2 37.1 6.1z"/><path fill="#a98e75" fill-opacity=".5" d="M177 89h15v2h-15z"/><ellipse cx="179" cy="73" fill="#251c13" fill-opacity=".5" rx="75" ry="6"/><path fill="#14100e" fill-opacity=".5" d="M51.8 92.5l14.8 5.8L102 85.4l-44.9 3.7z"/><path fill="#857663" fill-opacity=".5" d="M159 95v-5l-4-3z"/><path fill="#876742" fill-opacity=".5" d="M220.1 91.6l4.1 6.3-4.7-2.3-5.1-5.8z"/><path fill="#fff4cb" fill-opacity=".5" d="M216 92.2l-1.1 3.9-1-.3 1.2-3.9z"/><circle r="1" fill="#16110b" fill-opacity=".5" transform="matrix(-41.90047 -7.95155 2.99703 -15.79276 247.7 65.4)"/><ellipse cx="218" cy="97" fill="#43301a" fill-opacity=".5" rx="85" ry="1"/><circle r="1" fill="#728390" fill-opacity=".5" transform="matrix(.31566 1.24747 -2.50944 .63499 84 81.6)"/><circle r="1" fill="#080708" fill-opacity=".5" transform="rotate(95.3 102.9 93.7) scale(20.2774 120.24629)"/><path fill="#261e14" fill-opacity=".5" d="M100.8 100.9l49.8-34L106 77.4l8.3 16.3z"/><path fill="#b57928" fill-opacity=".5" d="M146 90h3v7h-3z"/><circle cx="213" cy="93" r="2" fill="#fff9d0" fill-opacity=".5"/><ellipse cx="117" cy="96" fill="#3b2f1f" fill-opacity=".5" rx="17" ry="1"/><path fill="#0a0809" fill-opacity=".5" d="M85.9 96.9L8.7 67l38.6-38.9 27.2 71.2z"/><path fill="#fcfef5" fill-opacity=".5" d="M188.2 92.5l.3 1-6.7 2-.3-1z"/><circle r="1" fill="#816748" fill-opacity=".5" transform="matrix(4.86302 2.18098 -.40921 .91244 249.9 92)"/><path fill="#f5eed2" fill-opacity=".5" d="M176 93h17v2h-17z"/><path fill="none" stroke="#43321d" stroke-opacity=".5" stroke-width=".5" d="M208 93.7q-41.5-22.9-107-2.2"/><path fill="#15110e" fill-opacity=".5" d="M231.1 58.8L132.9 61 80 87.6 147.8 27z"/><path fill="#0e0c0c" fill-opacity=".5" d="M151 31l-90-4-8 67z"/><path fill="#35281b" fill-opacity=".5" d="M212.1 82.2h22.3l6.9 20.1.5-10.7z"/><path fill="none" stroke="#785e3c" stroke-opacity=".5" stroke-width=".5" d="M213.4 92.5q-19 2.4-63.2-9.7"/><path fill="none" stroke="#7a5d38" stroke-opacity=".5" stroke-width=".5" d="M212.3 97q12.6.6 50.3-1"/><path fill="#140f0c" fill-opacity=".5" d="M110 97h41v3h-41z"/><path fill="#f0c68a" fill-opacity=".5" d="M225.5 91.4l-2.4 2-.6-.8 2.4-2z"/><circle cx="92" cy="84" r="2" fill="#93a1b1" fill-opacity=".5"/><path fill="#a58d63" fill-opacity=".5" d="M104 94h29v1h-29z"/><ellipse cx="242" cy="98" fill="#211910" fill-opacity=".5" rx="104" ry="1"/><circle cx="88" cy="85" r="1" fill="#a8b7c6" fill-opacity=".5"/><path fill="none" stroke="#4d3822" stroke-opacity=".5" stroke-width=".5" d="M139.6 71.4q15.8.7 23.6 30.2"/><path fill="none" stroke="#0f0d0e" stroke-opacity=".5" stroke-width=".5" d="M95 35.2Q88.7 141.5 76.3 159"/><path fill="#543c1f" fill-opacity=".5" d="M184.8 86.8l-67.3.7 15.4 4.4 17.8-12.1z"/><path fill="#a27847" fill-opacity=".5" d="M175 96h49v1h-49z"/><circle cx="141" cy="93" r="2" fill="#fff7bf" fill-opacity=".5"/><path fill="#1f1912" fill-opacity=".5" d="M81 83l1 8 14 1z"/><circle cx="76" cy="85" r="1" fill="#c1d6e4" fill-opacity=".5"/><ellipse cx="90" cy="121" fill="#050406" fill-opacity=".5" rx="82" ry="26"/><path fill="#fffdd5" fill-opacity=".5" d="M135.3 93l4.9-1 .5 3-4.9 1z"/><path fill="#af9261" fill-opacity=".5" d="M222 95h16v2h-16z"/><path fill="#473724" fill-opacity=".5" d="M250 90h6v4h-6z"/><ellipse cx="182" cy="92" fill="#bec0c1" fill-opacity=".5" rx="3" ry="2"/><path fill="#997656" fill-opacity=".5" d="M87 92l1 2-6-2z"/><path fill="#0f0c0c" fill-opacity=".5" d="M257.2 65.8L145.6 26.2l47.3-9L260.7 46z"/><circle cx="211" cy="94" r="2" fill="#fdf6db" fill-opacity=".5"/><path fill="#3c2c1a" fill-opacity=".5" d="M141.1 83.2L121.5 90l21.4-14.2 90.8 11z"/><path fill="#dca855" fill-opacity=".5" d="M134.5 90.6l11-.2v1l-11 .2z"/><path fill="#1b1510" fill-opacity=".5" d="M95 72l5 18 61-38z"/><circle cx="87" cy="85" r="1" fill="#abbad0" fill-opacity=".5"/><path fill="#060506" fill-opacity=".5" d="M249 123.7l-5-41.6 12.5 76.9-82-60.2z"/><path fill="none" stroke="#281e16" stroke-opacity=".5" stroke-width=".5" d="M104.5 76.3q20.5 29.2 59.7 23.3"/><path fill="none" stroke="#0e0c0b" stroke-opacity=".5" stroke-width=".5" d="M231.4 92.9q1.9 25.1 35.1 61.7"/><circle r="1" fill="#080708" fill-opacity=".5" transform="matrix(-4.16452 18.84892 -2.34849 -.51888 106.2 112.1)"/><ellipse cx="146" cy="96" fill="#71502a" fill-opacity=".5" rx="13" ry="1"/><path fill="#94a5b5" fill-opacity=".5" d="M75.3 86.4l-5-.8.4-2 5 .8z"/><path fill="#111011" fill-opacity=".5" d="M67 70l42-11-35 25z"/><path fill="#d1ad79" fill-opacity=".5" d="M207 96.1l-.5.8-7.5-5 .5-.8z"/><circle cx="90" cy="84" r="1" fill="#b9cada" fill-opacity=".5"/><path fill="#5c4327" fill-opacity=".5" d="M199.5 87.9l-46.3-3.4-10.9 2 41.2 3.1z"/></g></g></svg>