<svg xmlns="http://www.w3.org/2000/svg" viewBox="0 0 3024 4032"><defs/><filter id="a"><feGaussianBlur stdDeviation="12"/></filter><rect width="100%" height="100%" fill="#4f3324"/><g filter="url(#a)"><g fill-opacity=".5" transform="translate(7.9 7.9) scale(15.75)"><circle r="1" fill="#ffffe7" transform="rotate(128.9 24.1 126) scale(136.70546 82.33714)"/><circle cx="142" cy="30" r="145" fill="#8a8774"/><circle r="1" fill="#fff" transform="rotate(-7.5 1848.4 -997.4) scale(110.45833 38.26005)"/><circle r="1" fill="#f7ffff" transform="matrix(-136.5064 11.22287 -1.0711 -13.02795 81 4.7)"/><circle r="1" fill="#6d4a39" transform="matrix(91.78332 -50.36924 13.89924 25.32733 117.4 133.3)"/><circle r="1" fill="#000203" transform="rotate(-137.5 46.7 8.8) scale(17.34244 39.575)"/><circle r="1" fill="#f2a247" transform="rotate(27.7 -133.4 81.6) scale(22.54627 32.82206)"/><circle r="1" fill="#fff5c3" transform="matrix(-45.32387 -17.69112 12.2941 -31.49697 128 204.3)"/><circle r="1" fill="#001816" transform="matrix(42.82944 18.7727 -5.79157 13.21331 162 49.5)"/><ellipse cx="107" cy="255" fill="#f11c00" rx="19" ry="16"/><ellipse cx="26" cy="32" fill="#71a1ac" rx="35" ry="22"/><path fill="#9ea9a5" d="M104 62l18 99 12-141z"/><ellipse cx="19" fill="#f3ffff" rx="109" ry="11"/><circle r="1" fill="#5f5b36" transform="rotate(91.1 15.9 170.2) scale(29.03282 32.75494)"/><ellipse cx="95" cy="229" fill="#f5fff0" rx="65" ry="14"/><path fill="#302c21" d="M109 155L-2 126l-5 102z"/><circle r="1" fill="#f89b54" transform="matrix(11.51561 5.14004 -16.08517 36.0368 139 173.9)"/><path fill="#262213" d="M71.5 269.7L-16 251.2 29.1 94.8 18.1 229z"/><circle r="1" fill="#c48a63" transform="matrix(-28.53585 2.59914 -2.05474 -22.55889 81.8 194.7)"/><path fill="#001314" d="M119 69h45v9h-45z"/><path fill="#faffff" d="M128 56l2 9 29 3z"/><circle r="1" fill="#f8fffe" transform="matrix(6.37112 -32.18796 17.25141 3.41465 141.2 227)"/><ellipse cx="89" cy="91" fill="#8a3f36" rx="25" ry="45"/><path fill="#2b0700" d="M54 70l12 13-55 35z"/><path fill="#523431" d="M116.6 155.2l23-6.6 5.8 20.2-23 6.6z"/><path fill="#9bacbd" d="M51 124l25 18-16-54z"/><circle r="1" fill="#52461d" transform="matrix(4.17862 -.49087 2.60694 22.19181 120.7 253.7)"/><ellipse cx="48" cy="159" fill="#845741" rx="12" ry="42"/><ellipse cx="97" cy="21" fill="#415c59" rx="43" ry="9"/><circle r="1" fill="#91aa9f" transform="rotate(123.1 17.5 174.3) scale(97.76865 15.8351)"/><path fill="#ffffdc" d="M38 101l-8 25-3-14z"/><path fill="#7b9586" d="M139.3 16.1l-36-30.8 73.4 25L150.3 24z"/><path fill="#ddfbeb" d="M125.3 43.3l-20.7-4.1 8.4 9.3 3.3 12.8z"/><path fill="#ffc28b" d="M77 174h78v22H77z"/><path fill="#99cdcd" d="M185 6h7v33h-7z"/><path fill="#108ee6" d="M18 26l4.7 22.5L6.1 52 1.3 29.5z"/><circle r="1" fill="#281704" transform="matrix(-11.98787 -70.22944 3.72733 -.63624 17 138.5)"/><circle cx="72" cy="238" r="21" fill="ivory"/><path fill="#e3fffa" d="M100-16l39 29-54-3z"/><circle r="1" fill="#504536" transform="matrix(-.15568 3.15961 -16.83505 -.82949 75.4 212.6)"/><ellipse cx="25" cy="82" fill="#fd9d36" rx="12" ry="20"/><path fill="#2a3534" d="M172 75l-68-45 39-13z"/><path fill="#363226" d="M8.6 34.4l30.3-6.5 2.5 11.7-30.3 6.5z"/><path fill="#b3b499" d="M42.2 53.7l-13-9.4 30.6-42 13 9.4z"/><ellipse cx="160" cy="207" fill="#f1fff8" rx="28" ry="14"/><circle r="1" fill="#767863" transform="matrix(18.69058 5.64302 -3.27747 10.8555 37.7 217.3)"/><path fill="#232d2a" d="M109 26l2 41-43-54z"/><path fill="#1b1510" d="M34 52h42v9H34z"/><path fill="#afb4bb" d="M122 82l-16 52 18-1z"/><path fill="#2c1400" d="M24.2 104l16.5 61.8L9.8 174l-16.5-61.9z"/><path fill="#5b5b5e" d="M113.6 147.5l-17.5 30-9.1.6-41.1-52.9z"/><path fill="#ffd660" d="M194.5 204.2l-37-15.4 5.3.6 32.7 1.2z"/><ellipse cx="113" cy="76" fill="#e2fad9" rx="4" ry="10"/><path fill="#acccdb" d="M168.6 61l-8.7-8.4 3.5-3.6 8.7 8.4z"/><path fill="#ffffae" d="M95.1 193.3l-8.9 11-8.5-7.5 1.5-24.5z"/><circle r="1" fill="#ffbc80" transform="matrix(5.14312 .07616 -.37201 25.12331 148 157.8)"/><path fill="#65c5f6" d="M26.8 52.4l-8.6-6.1 3 11.5L9.4 15.7z"/><circle r="1" fill="#ae5b3d" transform="matrix(8.1176 -27.40458 11.4644 3.39591 139.2 128.4)"/><path fill="#787755" d="M146 74l11 114 50-99z"/><path fill="#c5ecf5" d="M27 51.8l-.8-7 24.9-2.6.7 7z"/><path fill="#24373c" d="M134 73l-27-10 27 1z"/><path fill="#fff" d="M43 198l21 5-11 4z"/><path fill="#1f2307" d="M174.9 67.6l-1.1-23.2-6-31.9L202 70.9z"/><path fill="#885d48" d="M52.7 167.3l-25 32 44.1 1.6 3.9-19.8z"/><path fill="#61401b" d="M-3 26l6 39 9-6z"/><path fill="#b9af9d" d="M142 41l-11-5 7 11z"/><path fill="#252016" d="M57.9 33.2l-20.8 81.4 62-89L52.3 34z"/><ellipse cx="34" cy="17" fill="#a19979" rx="37" ry="8"/><path fill="#949373" d="M134 189l55-25 18 25z"/><path fill="#ffc099" d="M84.6 187.8l65.9-6.1-21.5-2.8-18.2-16.9z"/><path fill="#a3a3a4" d="M131 78.4l-8.7 64.3-29.4-.1 13.6-13.7z"/><path fill="#483e28" d="M218.1 157.1l-.3 8-64-2.2.4-8z"/><ellipse cx="11" cy="250" fill="#413727" rx="22" ry="48"/><ellipse cx="13" fill="#f2fff6" rx="24" ry="12"/><path fill="#5b564d" d="M132.8 148.2l-30.3 21.5-13.5 9.7-43-28z"/><path fill="#3abdff" d="M-1 28.4l16-3.9 3.8 5.6-14.7 3.8z"/><path fill="#172020" d="M53 167l23 10 1-19z"/><path fill="#3e4231" d="M190.3 7.6l-13.9 5.3-19.9 5.2 25.6 15.6z"/><path fill="#1a2a2f" d="M142.3 60.6l28.4 6.4 21.1-5.4-68.6-11.4z"/><path fill="#7d8468" d="M118.7-5.8l41 38.3 14.9-1.5-40.9-47z"/><path fill="#181109" d="M57.4 135.2l-4-14.1 3.3 35.5 5.6-9z"/><ellipse cx="45" cy="129" fill="#744736" rx="11" ry="33"/><circle r="1" fill="#b48e6e" transform="rotate(121.4 -45 142.4) scale(4.60284 17.4844)"/><path fill="#eea856" d="M123 216.1l38.1-57.1-16.5 38.7-28.9-10.3z"/><ellipse cx="58" cy="102" fill="#8b9fa6" rx="6" ry="14"/><path fill="#d7feec" d="M153.1 6.1l36.2-6.5-120.8-2L145.1-6z"/><path fill="#99a88a" d="M167.2 83.6l1.7-16 25.9 2.8-1.7 16z"/><path fill="#14160e" d="M130.1 75l-8.2-1.9 46.3-1.2-2.3 5.6z"/><path fill="#959071" d="M107 76h37v14h-37z"/><path fill="#c08a73" d="M125.7 200l-35.4-14.7 4.1 26.1 6.2-11z"/><path fill="#151009" d="M27.7 26.4L30 35l-9.7 2.5L18 29z"/><circle r="1" fill="#7a9089" transform="rotate(-56.9 77.4 -96) scale(3.07821 19.37835)"/><path fill="#a4c4c7" d="M127.1 72.7l27.8-3.8L126.3 58l21.3 2.3z"/><path fill="#69390c" d="M28.6 94.1l-1.3 32.3-43-63 20.4 58.8z"/><circle r="1" fill="#a9b8a9" transform="matrix(-6.05959 1.56712 -4.0425 -15.6312 37.4 232.6)"/><path fill="#e0913e" d="M49.2 71.7l-25.5 31.1L6.5 72 34 60.2z"/><path fill="#e1e4cc" d="M110.4 49.7l13.1-9.2 4 5.8-13 9.2z"/><path fill="#3a3c34" d="M105.4 45.8l2.9 2.8 16.5-5.8 14.9 4.6z"/><path fill="#0c150f" d="M126 57l-11 1 6-5z"/><circle r="1" fill="#ff6250" transform="matrix(6.82658 3.90962 -5.86341 10.2381 99 250)"/></g></g></svg>