<svg xmlns="http://www.w3.org/2000/svg" viewBox="0 0 1800 1200"><defs/><filter id="a"><feGaussianBlur stdDeviation="12"/></filter><rect width="100%" height="100%" fill="#5c3130"/><g filter="url(#a)"><g fill-opacity=".5" transform="translate(3.5 3.5) scale(7.03125)"><circle r="1" fill="#32697c" transform="rotate(-168.5 73.2 8.6) scale(150.83181 77.28234)"/><circle r="1" fill="#00171f" transform="rotate(-106.8 37.5 41.6) scale(255 35.7555)"/><circle r="1" fill="#afb3a4" transform="matrix(-59.64408 14.64999 -1.68673 -6.86712 96.3 81.6)"/><ellipse cx="227" cy="156" fill="#0a2832" rx="255" ry="24"/><path fill="#00060f" d="M-16 48l140 16-140 36z"/><ellipse cx="220" cy="105" fill="#fecc83" rx="69" ry="3"/><ellipse cx="131" cy="35" fill="#557089" rx="71" ry="17"/><ellipse cx="116" cy="88" fill="#c5b69c" rx="37" ry="4"/><path fill="#af6245" d="M19 113.2l147.2 14.6-59 5.5-51.8-37.7z"/><path fill="#947c60" d="M250 77l-107 5 72 20z"/><ellipse cx="118" cy="100" fill="#322621" rx="99" ry="5"/><ellipse fill="#2a4461" rx="154" ry="46"/><path fill="#b33222" d="M64 119h172v9H64z"/><path fill="#39261d" d="M266.6 86.9l-2 17.8L185 83.9l21 .6z"/><path fill="#241f24" d="M229 38l32 13-101 26z"/><path fill="#7a7a65" d="M38 88h46v27H38z"/><circle r="1" fill="#203850" transform="rotate(-78.9 100.6 -122.4) scale(15.47483 134.01172)"/><ellipse cx="17" cy="134" fill="#531e15" rx="255" ry="6"/><path fill="#221410" d="M212 68h44v9h-44z"/><circle r="1" fill="#818077" transform="rotate(161.7 93.9 52.3) scale(44.81945 3.85348)"/><path fill="#2f262a" d="M59 95h75v13H59z"/><ellipse cx="218" cy="169" fill="#464242" rx="175" ry="15"/><ellipse cx="182" cy="106" fill="#deb685" rx="44" ry="2"/><ellipse cx="208" cy="113" fill="#441b19" rx="79" ry="5"/><circle r="1" fill="#301e21" transform="rotate(171.7 64.3 45) scale(27.8808 3.71322)"/><path fill="#121517" d="M183 124l52 31 36-18z"/><path fill="#a1825f" d="M271 105.9l-12.6-3.2-66-15 12.3 22.6z"/><path fill="#a6a294" d="M52 86h50v8H52z"/><path fill="#1b232e" d="M78.3 59.7L-3.5 18.3l86.8 31.1 8.4 27.7z"/><path fill="#515f6e" d="M52.4 44.4l-63.8-11.2L59.9 63l11.4-12z"/><ellipse cx="242" cy="81" fill="#8c897f" rx="90" ry="3"/><path fill="#cc2a26" d="M152 132.5h-28v-7h28z"/><path fill="#3b2624" d="M150 87h30v17h-30z"/><ellipse cx="114" cy="39" fill="#5a6c7c" rx="43" ry="14"/><path fill="#0d0c14" d="M0 140h32v30H0z"/><path fill="#844323" d="M4.5 135.4l-20.5 2.5L2.4 129l42.4 2.5z"/><ellipse cx="145" cy="20" fill="#40546a" rx="96" ry="13"/><path fill="#8f2d23" d="M218 130l-51-13 81-4z"/><path fill="#ab7043" d="M62 118h32v8H62z"/><circle r="1" fill="#bc8b64" transform="rotate(-97.7 117.2 -6.8) scale(1 23.55082)"/><path fill="#1f1d1e" d="M47.2 92.7L-16 96.6v19.5l52-8.4z"/><path fill="#000f19" d="M162 124h9v6h-9z"/><path fill="#472e23" d="M13 114h56v10H13z"/><path fill="#928d82" d="M162.3 88l-75.7 5.6 98.6-17.2 8.5.4z"/><path fill="#da2c2b" d="M145 119h39v4h-39z"/><ellipse cx="175" cy="53" fill="#35343c" rx="28" ry="6"/><path fill="#1b1f27" d="M81.6 47l-1.4 4.8L.4 29l1.4-4.8z"/><ellipse cx="60" cy="111" fill="#bb8f5c" rx="21" ry="3"/><circle r="1" fill="#47352e" transform="rotate(-170.6 122.3 36.5) scale(15.06159 9.23419)"/><path fill="#49241e" d="M216 120l54-22-12 28z"/><path fill="#1b1118" d="M162 79l-18-3 39-9z"/><circle r="1" fill="#22364e" transform="matrix(1.04213 11.0246 -125.46715 11.86014 46.9 0)"/><path fill="#201c25" d="M99 117h30v4H99z"/><ellipse cx="118" cy="146" fill="#1e2a35" rx="104" ry="8"/><path fill="#534f4e" d="M192.5 89l9.8-3.9L230.5 55l-43 26.7z"/><circle cx="32" cy="59" r="10" fill="#313540"/><path fill="#7d8489" d="M160 72l-32-2 36-8z"/><ellipse cx="235" cy="128" fill="#993a16" rx="32" ry="3"/><path fill="#15151d" d="M107 63l-91 3 32 15z"/><path fill="#382524" d="M161 107h24v10h-24z"/><path fill="#ddbd8d" d="M194 104h28v5h-28z"/><circle r="1" fill="#2e2b2f" transform="matrix(9.32699 14.6993 -23.1667 14.69971 69.8 146.3)"/><path fill="#4c413a" d="M124.5 85.4l-74.1 27.3-24.6-28.6 15.1 26.3z"/><ellipse cx="197" cy="37" fill="#4e5c68" rx="33" ry="15"/><path fill="#3a2427" d="M103 110l7-19 62 10z"/><path fill="#918c80" d="M95.3 79.2L32.7 92.4l57.2-1.2 64.3 2.7z"/><path fill="#512027" d="M115 124h52v3h-52z"/><path fill="#292f37" d="M238 35h18v22h-18z"/><ellipse cx="122" cy="122" fill="#c6302f" rx="41" ry="2"/><path fill="#a18b70" d="M179 96h45v2h-45z"/><ellipse cx="177" cy="135" fill="#6d3325" rx="30" ry="3"/><path fill="#322126" d="M132 99h70v5h-70z"/><circle r="1" fill="#5b5652" transform="matrix(.85588 2.49982 -30.02305 10.27919 59.9 84.2)"/><path fill="#5b524b" d="M143 86h39v8h-39z"/><path fill="#d62f28" d="M120 128h38v3h-38z"/><path fill="#909696" d="M133 69l-49 9 10 10z"/><path fill="#362a2c" d="M184.3 91.4l12.1 2.2-6.7 1.6-62.1 12.1z"/><path fill="#766653" d="M81 97l-39 13 4-11z"/><ellipse cx="106" cy="150" fill="#2c343f" rx="53" ry="9"/><path fill="#3a323a" d="M93 75l38-11-21-9z"/><ellipse cx="225" cy="111" fill="#232121" rx="57" ry="2"/><path fill="#332d2e" d="M215.1 79.4l-13-7.1L271 61.2l-35.4 14.9z"/><ellipse cx="253" cy="102" fill="#816b4e" rx="19" ry="4"/><circle r="1" fill="#25303d" transform="matrix(30.961 4.83984 -1.63708 10.4726 240.8 0)"/><path fill="#556676" d="M97.3 56.7l39.3-8.7 89.9-13.4L46.6 31z"/><path fill="#645d5b" d="M110 82.1l8.6-7-2.9 14 20-4.1z"/><path fill="#291d1a" d="M253 81l-10 13 28 8z"/><path fill="#27313c" d="M67.3 68.5l-8.5-3 5.3-10.8 28.5-5.8z"/><circle r="1" fill="#0f141c" transform="matrix(-14.7617 27.33904 -23.0477 -12.4446 1 73.5)"/><path fill="#a29c8a" d="M181 89h24v3h-24z"/><path fill="#1a1b1f" d="M192 123h8v9h-8z"/><circle r="1" fill="#5f7484" transform="matrix(12.78194 -.06693 .01149 2.19394 51.4 48.7)"/><path fill="#30272e" d="M165.3 80.4l-29.8 3.1-.8-8 29.8-3z"/><ellipse cx="240" cy="63" fill="#666d6c" rx="12" ry="4"/><circle r="1" fill="#322627" transform="matrix(.3902 1.93858 -19.77628 3.98067 71.6 104.5)"/><path fill="#a8a396" d="M139 91l10-9-29 7z"/><path fill="#3a444e" d="M186 39h70v5h-70z"/><path fill="#2d2a2f" d="M208.2 59.1l9.6 1.7-15.9 8.4-71 10.7z"/><circle r="1" fill="#1c1b1d" transform="matrix(28.5015 14.05664 -4.05958 8.23128 249.7 145.5)"/><circle r="1" fill="#322d2c" transform="matrix(15.16135 21.3008 -11.65421 8.29516 245.6 168.8)"/></g></g></svg>