<svg xmlns="http://www.w3.org/2000/svg" viewBox="0 0 1800 1012"><defs/><filter id="a"><feGaussianBlur stdDeviation="12"/></filter><rect width="100%" height="100%" fill="#20293a"/><g filter="url(#a)"><g fill-opacity=".5" transform="translate(3.5 3.5) scale(7.03125)"><circle r="1" fill="#feffff" transform="matrix(-1.5373 46.13265 -235.4451 -7.84589 153.8 34.2)"/><path fill="#5b5f5a" d="M187 158l84-78L88 65z"/><circle r="1" fill="#dbdcd2" transform="matrix(-4.77218 -19.04322 38.3121 -9.6009 161.4 31.7)"/><circle r="1" fill="#f1fffa" transform="matrix(-114.02576 3.6667 -.09348 -2.90687 245.4 142)"/><path fill="#5c5444" d="M34 75h162v21H34z"/><circle r="1" fill="#a8b1b2" transform="matrix(8.62157 19.6405 -49.618 21.78078 112 48.3)"/><circle r="1" fill="#869ba6" transform="rotate(-111.8 143.7 -47.8) scale(28.13482 31.37053)"/><path fill="#d9d7cd" d="M74.8 10.7L50.4 38.8l-14.6-3.1-7.1-18z"/><path fill="#627e9a" d="M-22.4-22.8l46.7-4.9 10.1 96.5-46.7 4.9z"/><circle r="1" fill="#5076a3" transform="matrix(-109.80243 -17.96617 1.4184 -8.66877 30.8 0)"/><path fill="#ccccc5" d="M119.8-16l41.4 57.3 59.1-6.1 2.3-2.8z"/><path fill="#47515a" d="M148.6 158L271 127.6l-52-11-95.7 16.5z"/><path fill="#fff4e0" d="M271 145l-97.5 3 90.3-11.1 7.2 1.7z"/><path fill="#748da8" d="M148.7 34L89.8 45.6 85.3 22l58.9-11.4z"/><ellipse cx="185" cy="112" fill="#26313f" rx="110" ry="16"/><path fill="#4e4e4c" d="M122 71h72v16h-72z"/><path fill="#b78f69" d="M57 81l6 11-18 4z"/><path fill="#acb1af" d="M103 38h89v32h-89z"/><circle r="1" fill="#444846" transform="rotate(96.3 -15.9 51) scale(4.31335 19.42911)"/><path fill="#a7a9a7" d="M54 44h64v31H54z"/><ellipse cx="39" cy="21" fill="#c6c4bf" rx="15" ry="10"/><path fill="#aba894" d="M35.1 60.7l-51.1 18 20.2-10 76.6-24.5z"/><path fill="#565a60" d="M197.8 121.2l-37.2-.8.4 11.2-31.6 26.4z"/><path fill="#e9e5da" d="M150 16h31v9h-31z"/><path fill="#43484a" d="M181 68l47 22-29 15z"/><path fill="#577295" d="M27.5 10.9l-39.8 13-3.3-37.9L94 0z"/><path fill="#a6adb0" d="M207 23L81-6l90-10z"/><path fill="#728495" d="M271 4l-83-20 39 40z"/><path fill="#7297a0" d="M147 141h67v2h-67z"/><path fill="#8b7b6a" d="M194 88l-9-11-6 13z"/><ellipse cx="215" cy="58" fill="#879cab" rx="31" ry="21"/><path fill="#cecbc5" d="M105 39h32v9h-32z"/><path fill="#929aa0" d="M193.3 42.2l-74.4 30.9-64.2-6.9 85.6-13.8z"/><path fill="#8f755d" d="M211 93h45v3h-45z"/><path fill="#dbd2c1" d="M78.5 66.9l-8.4-5-6.3-6.1 15.3.5z"/><ellipse cy="107" fill="#14232e" rx="110" ry="13"/><circle r="1" fill="#31383c" transform="rotate(43.3 -51.2 196.3) scale(18.77236 7.41514)"/><path fill="#acafaf" d="M55.7 37l-7-7.2L70.3 9l7 7.2z"/><path fill="#323736" d="M9 69h34v26H9z"/><path fill="#999fa6" d="M31.4 15.8L8.9 18.5l19.8 18.3 9.6-1.6z"/><path fill="#758290" d="M187 61h34v10h-34z"/><path fill="#7890a1" d="M69 53L35 67 24 29z"/><path fill="#768ea7" d="M154.5 4.5L77.4 14.9l32.6 24-42.5 17.6z"/><path fill="#3a424c" d="M245 139l26-56-70 55z"/><circle r="1" fill="#97795c" transform="matrix(.0458 -8.22545 1.59004 .00885 77.4 89)"/><path fill="#e0dcd0" d="M176 56l10 2v-7z"/><path fill="#24303d" d="M52 133l78-40 51 26z"/><path fill="#92a0a8" d="M264.8 61.6l-4.2 21.6-35.4-6.8 4.2-21.6z"/><ellipse cx="162" cy="95" fill="#9f8b7f" rx="20" ry="1"/><ellipse cx="235" cy="85" fill="#53585b" rx="22" ry="5"/><path fill="#a1a9ab" d="M205.5 16.1l17.9 14.5-18.9 23.3-17.9-14.5z"/><path fill="#192532" d="M64.8 122.7l28.3 20.1-7.2-24-16.3-41.1z"/><path fill="#f6f3e8" d="M224 141h32v2h-32z"/><ellipse cx="140" cy="76" fill="#5d5956" rx="25" ry="7"/><circle r="1" fill="#414547" transform="rotate(149.1 70.7 63.5) scale(22.4771 3.30465)"/><path fill="#57534b" d="M59.1 97.1l-10-26.8-2.6 4.5L68 73.5z"/><circle r="1" fill="#52493f" transform="matrix(.10333 1.5157 -33.88461 2.31002 28.3 88.1)"/><path fill="#343c3d" d="M81 76h21v16H81z"/><path fill="#2e3842" d="M102.8 144.7l35.7-32.2 18.7 20.8-35.7 32.2z"/><path fill="#c4c4c2" d="M35 13h40v5H35z"/><path fill="#8d9aa2" d="M48 19l57 15-27 23z"/><path fill="#a98564" d="M47 89h10v7H47z"/><ellipse cx="127" fill="#c2c3c2" rx="17" ry="4"/><path fill="#363b3d" d="M156 82l36 13-54-4z"/><path fill="#a2a39b" d="M176.7 8.8l-53.9 19.9L162 11.8l-7.3-10.2z"/><circle r="1" fill="#979a98" transform="matrix(2.90323 1.74889 -5.01999 8.3334 165.8 68.7)"/><path fill="#111b27" d="M203 124h14v5h-14z"/><path fill="#acaaa5" d="M111.6 37.7L67.9 77.4l37.9-4.4-45.2-1.1z"/><path fill="#627a97" d="M31 21L-16-3l39-13z"/><path fill="#212b37" d="M32.9 98.8l7.7-21.5-27.1-2.1 48.3 26.7z"/><circle cx="131" cy="77" r="3" fill="#9e8b7b"/><path fill="#899aa5" d="M196.5 73.6l16.9 10.9 41.9-78.6 13.6 78.4z"/><circle r="1" fill="#374049" transform="matrix(.41341 -.91054 23.27642 10.56811 207.2 82.5)"/><path fill="#d7d1c8" d="M34.3 21l4-3 11.4 15-4 3z"/><circle r="1" fill="#04121b" transform="matrix(14.31675 -1.66826 .181 1.5533 106.6 134.3)"/><path fill="#bebdb7" d="M155.3 67.3l.4-13 9 .4-.4 13z"/><path fill="#3c444e" d="M216 122h14v19h-14z"/><path fill="#8a7f75" d="M154 94.4l-.2 1-11.8-1.8.2-1z"/><path fill="#95958f" d="M-14.1 61.8l6.7 2.5 34.2 5.1-6.7-5z"/><path fill="#a9adab" d="M239 21h17v6h-17z"/><ellipse cx="126" cy="62" fill="#8695a1" rx="26" ry="4"/><path fill="#b9bcb5" d="M56.5 120.6l7-.2v1l-7 .2z"/><circle r="1" fill="#9ba0a7" transform="rotate(94.9 -1.1 17.4) scale(2.3894 16.84731)"/><path fill="#8094ab" d="M150 34L95 3l36-1z"/><path fill="#0e1d28" d="M31 141l-17-15h-29z"/><path fill="#8a959d" d="M197.2 16.4L271 46.5 204.7-1.9l-37.9 12.7z"/><path fill="#4a4f58" d="M133 135l34-8-12-5z"/><path fill="#bebdba" d="M117 37h70v6h-70z"/><path fill="#313c49" d="M157.9 117.1l-51.6 2.4 49 14.4-77.2-11.4z"/><circle r="1" fill="#d8cfc0" transform="matrix(6.1591 1.04361 -.57324 3.38308 70.4 60)"/><path fill="#69809a" d="M26.3 21.5L12.4 37.9l-24.5 17.5 2.6-29.2z"/><circle r="1" fill="#c0beba" transform="matrix(2.4692 3.89573 -14.42995 9.146 38.7 22.4)"/><path fill="#cac6bb" d="M84 54h15v4H84z"/><path fill="#b4b4b2" d="M57.7 50.3L73 46.2l-10.3-.3-13.9-1.7z"/><circle r="1" fill="#4f5253" transform="matrix(1.98098 -4.36796 18.98802 8.61152 149.8 78.4)"/><path fill="#3f4347" d="M61.4 76.5l-.2 1-34.6-10 .2-1z"/><path fill="#d4d2cb" d="M192.3 27.5l-28.5 6.7-15.9-11.1 26-10.3z"/><path fill="#758da4" d="M28 39h47v6H28z"/><path fill="#616567" d="M205.7 79.4l14.2 7.8 31.8 8.7L271 84.7z"/><path fill="#899dae" d="M271 40l-11 24-86-14z"/></g></g></svg>