<svg xmlns="http://www.w3.org/2000/svg" viewBox="0 0 1800 1200"><defs/><filter id="prefix__a"><feGaussianBlur stdDeviation="12"/></filter><rect width="100%" height="100%" fill="#3e4451"/><g filter="url(#prefix__a)"><g transform="translate(3.5 3.5) scale(7.03125)"><circle r="1" fill="#a3b3c3" fill-opacity=".5" transform="matrix(4.26042 -36.82174 185.32043 21.4423 142.7 .1)"/><circle r="1" fill="#000401" fill-opacity=".5" transform="matrix(2.44843 -74.07473 130.52927 4.31445 158.4 133.3)"/><path fill="#cacdc9" fill-opacity=".5" d="M10 55h17v115H10z"/><path fill="#586471" fill-opacity=".5" d="M-5-16l-11 64 249-3z"/><path fill="#d7d9d7" fill-opacity=".5" d="M-16 181.7l17.4-27.5L68.8 185H8.6z"/><circle r="1" fill="#a2adbb" fill-opacity=".5" transform="rotate(7.2 94 1496) scale(77.5256 18.07647)"/><circle r="1" fill="#2b343d" fill-opacity=".5" transform="rotate(93 43.4 110.3) scale(20.89383 132.54293)"/><circle r="1" fill="#090d0f" fill-opacity=".5" transform="matrix(-2.16781 19.63578 -122.47992 -13.52191 205.2 135.4)"/><path fill="#2e3231" fill-opacity=".5" d="M24.8 68.2l52.1 83-73.6 8 27.1 8.9z"/><path fill="#191e1d" fill-opacity=".5" d="M12.3 154.9l-28.3 2L-2.4 51.4 8.5 73.3z"/><path fill="#b1b2b5" fill-opacity=".5" d="M17.2 185l-26.5-20.5 39.1-2.8 13.9 10.4z"/><path fill="#3c4651" fill-opacity=".5" d="M26 73h117v15H26z"/><ellipse cx="241" cy="40" fill="#5a6470" fill-opacity=".5" rx="120" ry="8"/><path fill="#171e23" fill-opacity=".5" d="M27 89h134v35H27z"/><path fill="#4e5865" fill-opacity=".5" d="M-16 7l158 20-45 27z"/><circle r="1" fill="#5d5e5a" fill-opacity=".5" transform="matrix(.30023 -.95387 28.36295 8.92717 86.6 131.6)"/><path fill="#8f989e" fill-opacity=".5" d="M8 54h17v27H8z"/><circle r="1" fill="#303231" fill-opacity=".5" transform="rotate(-74.4 126.7 36.4) scale(25.83134 30.35497)"/><circle r="1" fill="#282f37" fill-opacity=".5" transform="matrix(41.805 4.63298 -2.71811 24.5265 235 82)"/><path fill="#555e69" fill-opacity=".5" d="M30 48.8l89.4-19L.3 4.7 40.2 99z"/><path fill="#999ea2" fill-opacity=".5" d="M22.5 149.7L8.8 80.2l14.3-.3 4.8 72.2z"/><ellipse cx="70" cy="62" fill="#252c35" fill-opacity=".5" rx="46" ry="7"/><circle r="1" fill="#7c8796" fill-opacity=".5" transform="rotate(99.3 84.8 92.2) scale(16.0953 24.76499)"/><path fill="none" stroke="#938f84" stroke-opacity=".5" stroke-width=".5" d="M268.2 176.7q-85-20.4-147.5-35"/><path fill="#030709" fill-opacity=".5" d="M232 147l12 20-68-15z"/><path fill="#61605b" fill-opacity=".5" d="M115.1 143.5l-10.9-8 64.3 19.1-25.8-9.4z"/><path fill="#8a8a86" fill-opacity=".5" d="M18 125h48v1H18z"/><path fill="#5e5d56" fill-opacity=".5" d="M146.9 149l21.7 2.4 60.4 16.9-36.6-8.3z"/><path fill="#4f4a48" fill-opacity=".5" d="M24.3 162.1l-32.8-10.9-7.5-3.8 38.5 7.8z"/><path fill="#8b8a7c" fill-opacity=".5" d="M35 84l13 33.6-1 .4-13-33.6z"/><path fill="#7e8b9d" fill-opacity=".5" d="M138.3-11.2l.4 21-79 1.4-.4-21z"/><circle r="1" fill="#5f5e5a" fill-opacity=".5" transform="matrix(-7.26191 -44.8364 .98714 -.15988 70.2 169)"/><path fill="#091015" fill-opacity=".5" d="M0 89h9v27H0z"/><ellipse cx="255" cy="80" fill="#3c444c" fill-opacity=".5" rx="42" ry="9"/><path fill="#8ba292" fill-opacity=".5" d="M253 165l-10 20 28-22z"/><ellipse cx="16" cy="141" fill="#423d38" fill-opacity=".5" rx="1" ry="18"/><ellipse cx="158" cy="168" fill="#131615" fill-opacity=".5" rx="50" ry="12"/><path fill="#72736f" fill-opacity=".5" d="M7.8 140l.2-1 60.2 15-.2 1z"/><path fill="#4c4c49" fill-opacity=".5" d="M67 154.7l13.7.8 46.2 23.2-46.7-19.2z"/><path fill="#9da7b5" fill-opacity=".5" d="M257-16L164-1l91 11z"/><path fill="#b0b4b8" fill-opacity=".5" d="M2 155h8v15H2z"/><circle r="1" fill="#1d242b" fill-opacity=".5" transform="rotate(160 83.3 57.8) scale(62.87827 8.92042)"/><path fill="#898a84" fill-opacity=".5" d="M27.8 162.5h-1l-.6-39h1z"/><path fill="#75736a" fill-opacity=".5" d="M241.2 171l-40.6-11 .2-1 40.6 11z"/><path fill="#1b1e1f" fill-opacity=".5" d="M28 138l32 27-30-5z"/><path fill="#161e24" fill-opacity=".5" d="M26 89l14 13-14 6z"/><path fill="#4f5965" fill-opacity=".5" d="M245.5 37.5l7.6-12.5 5.3 30.5L210.2 40z"/><ellipse cx="214" cy="20" fill="#848f9d" fill-opacity=".5" rx="31" ry="6"/><circle r="1" fill="#6a7686" fill-opacity=".5" transform="matrix(50.07976 -11.24882 1.51335 6.73742 7.6 10.4)"/><circle r="1" fill="#1d201f" fill-opacity=".5" transform="matrix(34.3513 9.85008 -4.05222 14.13178 117.6 156.2)"/><circle r="1" fill="#4d4a3d" fill-opacity=".5" transform="matrix(-205.82121 150.54112 -.59036 -.80714 53.7 4.8)"/><ellipse cx="222" cy="145" fill="#0f1215" fill-opacity=".5" rx="65" ry="12"/><path fill="#535153" fill-opacity=".5" d="M17.1 153.5l-4.5 14.1.9-5.1 13 3.2z"/><path fill="none" stroke="#797975" stroke-opacity=".5" stroke-width=".5" d="M99.5 135.7q44.5 10.8 67.2 16.6"/><path fill="#303940" fill-opacity=".5" d="M30 65l-2 12-3-24z"/><path fill="#181e22" fill-opacity=".5" d="M120 97l151 21-51 22z"/><circle r="1" fill="#2b333d" fill-opacity=".5" transform="matrix(-3.56484 -9.84777 49.0573 -17.7585 87.8 75.2)"/><path fill="#2c3744" fill-opacity=".5" d="M0 54h9v30H0z"/><ellipse cx="131" cy="92" fill="#21282f" fill-opacity=".5" rx="91" ry="7"/><path fill="#9aa0a6" fill-opacity=".5" d="M11 99h15v24H11z"/><circle r="1" fill="#515456" fill-opacity=".5" transform="rotate(123.2 -8 105) scale(1 70.06212)"/><path fill="#414b54" fill-opacity=".5" d="M125 29L98 58l-60-9z"/><path fill="#353837" fill-opacity=".5" d="M6 106l-12 49 18-2z"/><path fill="#1c2021" fill-opacity=".5" d="M68.1 133.4l-.1 18.4 18.2 9.2 105.6-.1z"/><path fill="#79796a" fill-opacity=".5" d="M45 110.9l-1 .3-33-108 1-.4z"/><circle r="1" fill="#7e8a99" fill-opacity=".5" transform="matrix(-74.36229 -13.92765 .7245 -3.86825 147.5 9.1)"/><path fill="#3f4a55" fill-opacity=".5" d="M0 45h15v11H0z"/><ellipse cx="104" cy="11" fill="#6d798a" fill-opacity=".5" rx="57" ry="5"/><path fill="#8e959a" fill-opacity=".5" d="M16 53h9v57h-9z"/><path fill="#7a7c7e" fill-opacity=".5" d="M18 119H3l24 10z"/><path fill="#605f5a" fill-opacity=".5" d="M65.6 145.2l-1.1-14.4 5.4 34.4-.9 8.4z"/><path fill="#101617" fill-opacity=".5" d="M242 169.5l-45-6 39 21.4 35-35.9z"/><path fill="#686967" fill-opacity=".5" d="M103.5 137.5l-39.3-12 .3-1 39.3 12z"/><path fill="#13191e" fill-opacity=".5" d="M67.5 125.7l4.4-15.4 34.6 10-4.4 15.4z"/><ellipse cx="152" cy="47" fill="#444e58" fill-opacity=".5" rx="225" ry="3"/><path fill="#b5babf" fill-opacity=".5" d="M78 185H4l-11-29z"/><path fill="#626b7a" fill-opacity=".5" d="M133.2 14.7l-23.4-2.8 27.1 29.7 72.9 1.8z"/><path fill="#7c8898" fill-opacity=".5" d="M126.4 2.7L79.4-16 47.5 7.1-8.3-4.3z"/><path fill="#1a1f27" fill-opacity=".5" d="M158 83.2l41.9-2.7-64.4-17.7 12.4 7.1z"/><circle r="1" fill="#4a4b49" fill-opacity=".5" transform="matrix(3.67711 27.16086 -1.48806 .20146 .7 129.6)"/><path fill="#1b2229" fill-opacity=".5" d="M207 66h43v5h-43z"/><circle r="1" fill="#707988" fill-opacity=".5" transform="rotate(18 47.5 818.4) scale(18.39935 10.93799)"/><path fill="#8b9399" fill-opacity=".5" d="M9 60h11v29H9z"/><path fill="#6a6865" fill-opacity=".5" d="M49 166l50 19H56z"/><ellipse cx="51" cy="120" fill="#13181e" fill-opacity=".5" rx="24" ry="4"/><path fill="#1d2123" fill-opacity=".5" d="M40 142l21-15 4 23z"/><path fill="#39434e" fill-opacity=".5" d="M50 88h37L32 65z"/><path fill="#6a6a65" fill-opacity=".5" d="M119.3 140.3l18.6 6.6 11.1 1.6-18.6-5.8z"/><path fill="#171d23" fill-opacity=".5" d="M35.9 87.8l1.7 3.4 4.2 29.5-15.2-1.7z"/><path fill="#797a75" fill-opacity=".5" d="M117 174l-.4 1L93 164l.4-1z"/><path fill="#4e5865" fill-opacity=".5" d="M128.1 26.7l-64.2 4.6 52.2 9.7 26.8-6.9z"/><path fill="#313841" fill-opacity=".5" d="M144.9 46.5l57.4 19.4-77.8-6.5 29.7-16.6z"/><path fill="#323a42" fill-opacity=".5" d="M195.7 114.6l36.8 3.8-.2 1-36.8-3.8z"/><ellipse cx="2" cy="14" fill="#596473" fill-opacity=".5" rx="33" ry="9"/><path fill="none" stroke="#565656" stroke-opacity=".5" stroke-width=".5" d="M-16 156.1q59.4 7.2 86.5 19.4"/><path fill="#12191e" fill-opacity=".5" d="M9 112l-17 1L9 96z"/><path fill="#222932" fill-opacity=".5" d="M74.2 60.7L130.7 77l34.5-15.7L61.7 72.1z"/><ellipse cx="75" cy="18" fill="#5e6a7b" fill-opacity=".5" rx="38" ry="5"/><path fill="#3c444d" fill-opacity=".5" d="M173 61l36-6-56-7z"/><circle cx="19" cy="158" r="3" fill="#342a2b" fill-opacity=".5"/></g></g></svg>