<svg xmlns="http://www.w3.org/2000/svg" viewBox="0 0 1200 1800"><defs/><filter id="a"><feGaussianBlur stdDeviation="12"/></filter><rect width="100%" height="100%" fill="#573c2b"/><g filter="url(#a)"><g fill-opacity=".5" transform="translate(3.5 3.5) scale(7.03125)"><ellipse cx="126" cy="158" fill="#9bb5c1" rx="169" ry="162"/><circle r="1" fill="#120000" transform="matrix(20.43466 -36.32424 20.89144 11.75274 88.9 151.3)"/><circle r="1" fill="#84b7ea" transform="matrix(69.50468 -28.67838 13.606 32.97537 111.1 43.2)"/><ellipse cx="134" cy="219" fill="#d8be99" rx="92" ry="30"/><path fill="#002e28" d="M41 43l64-45-121 2z"/><ellipse cx="144" cy="124" fill="#493f3f" rx="64" ry="49"/><path fill="#fffdcb" d="M22 111h15v62H22z"/><circle r="1" fill="#2a3233" transform="rotate(117.6 -12.3 47) scale(16.94849 41.99263)"/><circle r="1" fill="#8ac5fc" transform="rotate(19.2 -125.3 56.9) scale(44.37311 11.01196)"/><circle r="1" fill="#ffecc7" transform="matrix(3.88499 -23.98665 15.03865 2.43573 65.4 211.2)"/><path fill="#ad632c" d="M37.4 201.6l-21.2-13.2 52.4-84 21.2 13.2z"/><circle r="1" fill="#77685d" transform="rotate(-78.4 184.1 45.7) scale(86.44449 16.57822)"/><circle r="1" fill="#ffedc5" transform="matrix(5.79116 -32.5114 9.14773 1.62946 152.3 255)"/><path fill="#373a3d" d="M63.1 110.4L68.3 61l-32.5 49.4 7.3 39.3z"/><path fill="#1c1e1b" d="M93 192l-60-13 65-44z"/><ellipse cx="135" cy="92" fill="#392017" rx="16" ry="21"/><circle r="1" fill="#244563" transform="matrix(10.45872 35.64405 -23.42276 6.87273 166.2 149.8)"/><path fill="#82a0c0" d="M71.6 35.9L151 79.3l34 8.6L167.6-16z"/><path fill="#a57d62" d="M117 72l1 93 31 10z"/><circle r="1" fill="#61584d" transform="rotate(175.1 5.7 114) scale(31.39889 18.68731)"/><path fill="#9badb8" d="M67 54h52v38H67z"/><path fill="#424e52" d="M73.2 53.5L64 61.1 48.8 42.5l9.3-7.6z"/><circle r="1" fill="#21473e" transform="matrix(36.57462 -9.39718 6.6247 25.78387 37.3 11)"/><path fill="#a98f6d" d="M23.2 113.8l-4.4 84-30-1.6 4.4-84z"/><path fill="#f4deb8" d="M21 198l9-10-5 30z"/><path fill="#6f6350" d="M43 237h101v19H43z"/><path fill="#979998" d="M134 98l11 43-18 4z"/><ellipse cx="132" cy="184" fill="#504944" rx="121" ry="4"/><circle r="1" fill="#fffbde" transform="matrix(-4.53776 .25201 -1.05405 -18.97913 28 149.3)"/><path fill="#434c50" d="M164 217h6v39h-6z"/><path fill="#be8555" d="M69.7 108.2l-34.3 47 36.4.1 9.5-26.9z"/><path fill="#857d6e" d="M32 232l35-48-18-15z"/><path fill="#dccaa9" d="M185 211l-16-19.5-22.4 9.6-14.2 22.3z"/><circle r="1" fill="#777569" transform="matrix(31.17758 -13.08685 8.63497 20.5716 1.3 97.2)"/><circle r="1" fill="#678fbd" transform="matrix(43.89707 -16.22468 5.1996 14.06788 119.2 13.4)"/><circle cx="46" cy="94" r="10" fill="#061526"/><path fill="#24393f" d="M112.7 106.2L42.5 16.4l.8-.6 70.2 89.8z"/><path fill="#5f463d" d="M151 99l-27 28-8-42z"/><path fill="#e8d7ba" d="M84 242l-19-61-9 42z"/><path fill="#d2864b" d="M118 102h5v62h-5z"/><path fill="#535561" d="M93.2 143.7l-35-64.2 57 72.4-10.5 29z"/><circle r="1" fill="#535e60" transform="matrix(-9.60285 -48.93042 1.7225 -.33805 111.4 20.5)"/><path fill="#8c999f" d="M126 164.9l9.3-9L152 173l-9.3 9z"/><path fill="#363941" d="M158.9 178.7l22.8 1.5-36.3-29.2-22-5.7z"/><path fill="#191a1d" d="M44 114l2 27 11-25z"/><path fill="#93abbf" d="M67.6 76.2L94.4 87l-6 14.8L61.6 91z"/><path fill="#264139" d="M46.1 34.8L135.5-16-16-.2l83.4 59.4z"/><path fill="#a49178" d="M36 159l-5-42 16 39z"/><circle r="1" fill="#62635f" transform="matrix(-16.1155 -5.91518 3.41138 -9.29408 42 193.6)"/><path fill="#8baac8" d="M76.2 72.4L53.8 36.3l58.9 51.8-46.4-59.5z"/><path fill="#161821" d="M92 122l17-14 7 35z"/><path fill="#77523b" d="M104 88l-29 20 11 37z"/><circle r="1" fill="#2e3a4c" transform="rotate(178 81.8 111.3) scale(15.8379 1.71528)"/><path fill="#3d546c" d="M141 106h29v51h-29z"/><circle r="1" fill="#987056" transform="rotate(-99 108.2 .7) scale(2.83643 70.78723)"/><path fill="#292827" d="M139.6 108.7l15.8-14.5-15.7-21.9-14.8 4.2z"/><path fill="#4c5d6a" d="M40.1 63.1l27.3 44.8 21.9-2.1L3.6 53.4z"/><path fill="#968c7d" d="M125 183l-48 9 47 56z"/><path fill="#6e4530" d="M11 183l66-36-43 43z"/><path fill="#82a9d1" d="M0 35h18v18H0z"/><path fill="#625c51" d="M0 235h74v13H0z"/><path fill="#d7c5aa" d="M57 239.2l-5.6-34.6-11.5.3 19.2 12.4z"/><path fill="#8da0b3" d="M150 0h20v77h-20z"/><path fill="#000206" d="M79 148l-11 31-9-14z"/><path fill="#fffbdd" d="M26.5 134.2l-3-23.9 4-.5 3 23.9z"/><path fill="#6c3f29" d="M119.3 93l12.5 63.1-7 10.3-3.1-63.4z"/><path fill="#5f4e47" d="M129.3 124.1l15.4-35.7-34.3 20.3 12.2-44.5z"/><path fill="#adb5b8" d="M88.9 64.5l1.3 10.2 30.6 4.8-11.9 14.4z"/><path fill="#4c4d43" d="M61 55h4v41h-4z"/><path fill="#f1dcbf" d="M24.5 104.7l-1.4 50.2.5 20.4 12.3-12z"/><path fill="#1f1f21" d="M78.8 184.6L96.7 120l-2.4 68.4-22.7 2.2z"/><ellipse cx="29" cy="255" fill="#988266" rx="35" ry="11"/><circle r="1" fill="#a2bbc7" transform="matrix(-5.07926 .88445 -1.74508 -10.02168 55.5 72.2)"/><path fill="#727373" d="M36 104h9v21h-9z"/><ellipse cx="79" cy="226" fill="#bfb19a" rx="4" ry="37"/><path fill="#5f7180" d="M111.7 9.4L143.8-16l-39.5 26.4-63.5 45.4z"/><path fill="#282e2f" d="M8 63L-8 52l41 10z"/><ellipse cx="101" cy="154" fill="#626b7d" rx="4" ry="22"/><path fill="#5d4e45" d="M37.3 30.2L65 51.4l-79.2-26.8 53.8 8.3z"/><path fill="#b0794f" d="M29.1 171.8l-39.8 27.5 68.6-39.8 16.8-43.3z"/><path fill="#73938f" d="M174.1 170.5l-48.4-50.2 3.1 7.5 39.1 40z"/><path fill="#8ba6be" d="M57.2 31.3l21.2 61.2-3-33.3-25.6-20.8z"/><path fill="#789dc5" d="M115.6 37.5l47.3 4.3-5.4-25.8-55.9-32z"/><path fill="#d77c45" d="M119 104l-8 8 6 8z"/><ellipse cx="14" cy="145" fill="#ac9d84" rx="5" ry="30"/><circle r="1" fill="#ead5b7" transform="matrix(-.99078 .13552 -2.61995 -19.15488 35.5 128.4)"/><circle r="1" fill="#535856" transform="rotate(-101.1 62.8 -35.7) scale(32.91989 1)"/><path fill="#533a30" d="M104.5 87.8L92 126.2l-1.5-17.6 9.1-24z"/><path fill="#4d4c48" d="M126.5 180.2l-7.2 5.1 65.7 7.6-41.3-12.3z"/><circle cx="151" cy="253" r="9" fill="#e9d6b7"/><path fill="#6b7173" d="M57.1 82.1l-2.8 31.1-30.2.5 47.3-17.8z"/><path fill="#fff5cf" d="M22 192h4v12h-4z"/><path fill="#ac7d4a" d="M160 77h10v7h-10z"/><path fill="#f2e0c5" d="M136.3 138.8l-.9.4-7.7-14 .9-.4z"/><path fill="#505245" d="M63.2 241.2l1 .4-23.5-3.5 60.6 32.9z"/><path fill="#dccaac" d="M51 235l13-53 19 22z"/><path fill="#514843" d="M108 252h35v4h-35z"/><path fill="#38342f" d="M92 159l-20 28-18-14z"/><path fill="#736b5e" d="M20 104h3v56h-3z"/><path fill="#c18653" d="M68.7 139.8L51.2 130l12.1-21.9 17.5 9.7z"/></g></g></svg>