<svg xmlns="http://www.w3.org/2000/svg" viewBox="0 0 3168 3168"><defs/><filter id="a"><feGaussianBlur stdDeviation="12"/></filter><rect width="100%" height="100%" fill="#414140"/><g filter="url(#a)"><g fill-opacity=".5" transform="translate(6.2 6.2) scale(12.375)"><circle r="1" fill="#959b93" transform="matrix(-164.08645 64.40956 -58.97782 -150.24882 135.5 159.3)"/><circle r="1" fill="#b1b5b1" transform="matrix(-18.25814 9.62833 -39.83547 -75.53972 164.5 145.2)"/><circle r="1" fill="#cbcfbd" transform="matrix(35.73914 -2.09954 1.19619 20.36193 37.5 62.1)"/><ellipse cx="128" cy="41" fill="#e3d6cc" rx="28" ry="20"/><circle r="1" fill="#cec1c9" transform="rotate(135.7 30 148.9) scale(16.22326 40.46875)"/><circle cx="231" cy="107" r="29" fill="#9fc3c8"/><circle r="1" fill="#262718" transform="matrix(39.4354 66.56265 -8.7544 5.1866 227.8 164)"/><path fill="#282920" d="M99-7L34 33l71 36z"/><ellipse cy="112" fill="#322f27" rx="36" ry="37"/><circle r="1" fill="#3e423b" transform="matrix(-11.70594 24.65266 -51.98835 -24.68588 206 44.8)"/><circle r="1" fill="#c4cdcf" transform="rotate(18.6 -457.3 741.4) scale(11.40743 20.52779)"/><ellipse cx="23" cy="219" fill="#504c49" rx="46" ry="82"/><path fill="#d5cecd" d="M140 137l1-37 63 40z"/><path fill="#b1bbbd" d="M174.2 6l35.5-22 8.3 35.6-14.1-2.5z"/><path fill="#cda293" d="M66 164h32v31H66z"/><circle r="1" fill="#40413e" transform="matrix(-14.24872 10.42849 -23.65142 -32.31557 225.3 241.4)"/><circle r="1" fill="#5d6358" transform="rotate(-179.7 60 75.4) scale(64.23404 17.02343)"/><path fill="#474a3f" d="M139.6 100.9l-26.8 21L68.4 65l26.8-21z"/><path fill="#4e4c4c" d="M138 261l-30-88-53 91z"/><circle r="1" fill="#43503b" transform="matrix(-25.72841 -16.51735 5.85992 -9.12776 161.3 69.3)"/><path d="M172.9 11l-22.7-7.8 4.9-14.2 22.7 7.8z"/><path fill="#dee3e0" d="M149 80l-39-9 41 28z"/><path fill="#51b9ee" d="M108.3 179.4l25.2-1.3-22.7-21.1-1.3 25.1z"/><path fill="#393930" d="M154.9 103.5L149.7 90l58.5 27.8-10.7 15.8z"/><path fill="#c2bbb7" d="M130.4 203.8l.5 46.2 38.1-16.7-54.2-20.7z"/><ellipse cx="183" cy="183" fill="#8f9998" rx="30" ry="38"/><path fill="#b5a848" d="M211.5 100.3l-3.4 33.1L271 135l-72.7-21.2z"/><path fill="#474541" d="M166 210l-3 23 75 8z"/><path fill="#e1e2e8" d="M219 179l-26 20-4 22z"/><path fill="#eee0bb" d="M146.5 118.5l-12.3 6.8-8.7-15.8 12.3-6.8z"/><circle r="1" fill="#5d93bf" transform="matrix(-13.54435 6.30895 -10.93268 -23.47079 223.7 99.8)"/><path fill="#c2a3ed" d="M65.3 170.3l2.4-5.5 35 14.9-2.4 5.5z"/><path fill="#595b50" d="M136 146L34 94l76-53z"/><path fill="#363936" d="M152 135l3 80-15-43z"/><path fill="#7c7766" d="M180.1 151.6l21.8 18.3.1 22.9-37.8 10z"/><path fill="#d8e2f1" d="M163.1 211l1.1 24.1-10 13.5-12.1 19z"/><path fill="#4b4b48" d="M222.4 142.5l-88.7-2 24.8 15.3 52.5-16z"/><path fill="#6fcb94" d="M187 67l13 8-32 27z"/><path fill="#cbc9dd" d="M141 195h8v18h-8z"/><path fill="#d1e3f0" d="M153.1 32.5l4.3 25.1-25.9-34.1 26.8 12.4z"/><path fill="#d9c7b4" d="M127 49l-20-23.7 10-8.4 20 23.8z"/><path fill="#464341" d="M212.3 239.5L166.9 271l-6.7-31.3-19.5 31.3z"/><path fill="#2f373c" d="M118.3 196.7l-25.2-35.2 8.4-7.8.9-14z"/><path fill="#c0bdce" d="M243 104.6l15-11-10.2-11.7-18.4 5.8z"/><path fill="#909388" d="M50.1 110.7l18.8-13.6-6.4 49.9-19.4 2.3z"/><ellipse cx="144" cy="248" fill="#382921" rx="3" ry="18"/><circle r="1" fill="#1d2015" transform="matrix(-22.2586 -18.04479 4.40207 -5.43004 232.2 11.2)"/><path fill="#393b37" d="M239 222l32-4-42-82z"/><path fill="#c6c3c5" d="M175.7 236.7l8-2.6L186 250l-18.1 4.3z"/><circle r="1" fill="#888973" transform="matrix(18.80166 9.99702 -7.67758 14.43942 126.6 155.8)"/><circle r="1" fill="#37372e" transform="rotate(49.4 68 274.3) scale(30.37222 9.59418)"/><path fill="#707877" d="M57 25.5L47.7 18 83-25.5l9.3 7.5z"/><path fill="#a38c76" d="M102 31h15v28h-15z"/><path fill="#32332e" d="M0 17h50v25H0z"/><path fill="#31312f" d="M255 86l12 35-14 13z"/><path fill="#3b3a33" d="M154 83l36-14V39z"/><circle r="1" fill="#a78746" transform="matrix(-4.42994 7.86189 -15.1337 -8.5274 73.2 186.2)"/><path fill="#7f98af" d="M271 61.1l-43.1-40.9L271 36.6l-23.7 16.8z"/><path fill="#e5d1af" d="M163 83h7v12h-7z"/><path fill="#585c55" d="M116.8 141.5l29.9 4.8-10.4-21.5-75.5-85.6z"/><circle r="1" fill="#4b5153" transform="rotate(79.4 -52.3 171.3) scale(11.38729 25.81598)"/><circle r="1" fill="#b5b6a3" transform="matrix(-11.02227 -8.64256 14.18013 -18.0846 49.7 64.1)"/><path fill="#474942" d="M147 103L14.2-14.4l121.1 117.3-4.6 2.4z"/><path fill="#d5cf6b" d="M233 123h15v15h-15z"/><path fill="#7c7f87" d="M49 268l-22-43 18-13z"/><path fill="#cfcad7" d="M161 188l6-17v32z"/><path fill="#424138" d="M65.9 157.1l-13.1 52.4-10.7-2.6 13.1-52.4z"/><path fill="#1f211f" d="M71.4 9.6L87-3.3l-6.4 30.5L43.8-2.6z"/><circle r="1" fill="#3c403a" transform="rotate(38.9 -135 431.4) scale(62.89293 4.32845)"/><path fill="#3b3524" d="M129.9 66.9L141 78.4l-2.9 2.7L127 69.6z"/><path fill="#403c3a" d="M111 216h18v27h-18z"/><circle r="1" fill="#4e5552" transform="rotate(26.3 41 225.1) scale(52.421 4.44577)"/><path fill="#31352f" d="M194 87h7v43h-7z"/><path fill="#eaf1f5" d="M136 80l-10-11-9 4z"/><path fill="#5375a1" d="M223 107h28v18h-28z"/><path fill="#626564" d="M237.9 185L202 207.6l24.2 20L259 271z"/><circle r="1" fill="#504e48" transform="matrix(-1.14737 -.74727 8.708 -13.37036 155 218.8)"/><path fill="#dbe1e0" d="M154 94l-14-20 1 25z"/><path fill="#b6b6bf" d="M141.7 139.7l.7-8 29.9 2.6-.7 8z"/><path fill="#bfbdbd" d="M140.9 61.2l-14-1.3 17.9-35.7-32.7 41.7z"/><path fill="#dfda36" d="M108 139h9v7h-9z"/><path fill="#3face6" d="M135 173.7l-1.2 9-16.8-2.4 1.2-9z"/><path fill="#41443e" d="M208 129l40 24-18 40z"/><path fill="#46433c" d="M3 85h39v25H3z"/><path fill="#8ea3ae" d="M169 148.3l17.8 16.1 10.6-16 27.8 24.7z"/><path fill="#49494c" d="M53 199h36v20H53z"/><path fill="#2a2a25" d="M185.4 17.9l-22-23.6 3.4 24.5 19.7 7.9z"/><ellipse cx="137" cy="236" fill="#dad0c3" rx="4" ry="14"/><path fill="#524d40" d="M165 84l-11-24-2 43z"/><circle r="1" fill="#727673" transform="rotate(69.9 82.8 160) scale(46.55259 5.27595)"/><path fill="#afbac1" d="M143.7 201.4l-24 16.2-3.4-5 24-16.2z"/><path fill="#bbc7d0" d="M202 0h7v16h-7z"/><path fill="#757473" d="M5.2 85.2l6.8-8L6.7 52 32 46.5z"/><path fill="#bac4c6" d="M179 214l24-10-12 15z"/><path fill="#45443f" d="M62.2 153.7l33.2 11-16.8-25.5L43 199.3z"/><circle r="1" fill="#7a8885" transform="rotate(135.8 69.8 33) scale(7.5367 25.13588)"/><path fill="#c8bdb1" d="M98.4 49.2L120 32.7 150.2 51 99.4 39.1z"/><path fill="#abafaf" d="M166.5 180.8l-11.7-18.7 42.9 30.2-2.7-10.6z"/><path fill="#484742" d="M117 82l-2-39-6 23z"/><path fill="#686b62" d="M108 87h29v18h-29z"/></g></g></svg>