<svg xmlns="http://www.w3.org/2000/svg" viewBox="0 0 1800 1200"><defs/><filter id="a"><feGaussianBlur stdDeviation="12"/></filter><rect width="100%" height="100%" fill="#2b3d54"/><g filter="url(#a)"><g fill-opacity=".5" transform="translate(3.5 3.5) scale(7.03125)"><circle r="1" fill="#d8e6f7" transform="matrix(-254.14253 -20.89432 5.33302 -64.8668 84.3 36.7)"/><circle r="1" fill="#6f7378" transform="matrix(9.22553 59.30927 -249.57325 38.821 117.9 169)"/><circle r="1" fill="#2b538e" transform="rotate(-85.9 60.3 -64.7) scale(20.41203 189.45795)"/><path fill="#dad7d1" d="M87 64.3L40.3 75.1 27 17.7 73.7 6.9z"/><ellipse cx="106" cy="109" fill="#372f25" rx="94" ry="13"/><circle r="1" fill="#babfc2" transform="matrix(-120.74174 -8.14254 1.27934 -18.97068 160.5 66.7)"/><path fill="#a1a09e" d="M0 16h33v89H0z"/><circle r="1" fill="#42679b" transform="matrix(2.25272 20.84282 -44.21846 4.7792 128.2 27.6)"/><ellipse cx="61" cy="40" fill="#3c5e8f" rx="27" ry="5"/><circle r="1" fill="#2c4368" transform="rotate(-88.5 8.6 -8.9) scale(15.76843 40.25766)"/><ellipse cx="210" cy="37" fill="#6b8ebb" rx="57" ry="27"/><ellipse cx="60" cy="22" fill="#dbdad7" rx="25" ry="11"/><circle r="1" fill="#687079" transform="matrix(-32.90962 5.69986 -1.23025 -7.10319 160.2 88.1)"/><ellipse cx="63" cy="138" fill="#596779" rx="252" ry="17"/><path fill="#a9b1bb" d="M205.8 64.2L185.5 99l85.5 4.5V39.3z"/><circle r="1" fill="#8c9091" transform="matrix(-105.53324 21.81871 -3.05427 -14.77296 24.7 85.4)"/><path fill="#d5d7d8" d="M156.1 49.2l-58.2 2.5 69.4 13.8 21.4 5.4z"/><ellipse cx="213" cy="108" fill="#697076" rx="61" ry="7"/><ellipse cx="139" cy="169" fill="#283a50" rx="76" ry="11"/><circle r="1" fill="#7b848e" transform="rotate(9.9 -404.9 194.5) scale(14.89461 33.31809)"/><path fill="#241b0e" d="M0 112h74v10H0z"/><path fill="#413324" d="M161 122l41-11 32 11z"/><path fill="#dfded8" d="M60 40.9l5.9 28.6-16.2-3.4-12.6-4.2z"/><path fill="#b4b2ac" d="M61 77l94-13-30 33z"/><path fill="#354456" d="M80 96h67v14H80z"/><path fill="#d5d4d0" d="M77.4 43.1L108 48l-1.4 8.9L76 52z"/><path fill="#b5bac1" d="M22 20L-5 51-16 3z"/><path fill="#506d98" d="M93 0h110v34H93z"/><ellipse cx="239" cy="30" fill="#aaacb3" rx="33" ry="5"/><path fill="#c6c9cb" d="M9.8 37.9L84.3 6.2 68.8 30.5l2.9 7.3z"/><path fill="#41474f" d="M35.3 139.8l10.2 40.7-38.8 9.7-10.2-40.7z"/><circle r="1" fill="#717377" transform="matrix(-8.56489 -12.41551 15.09834 -10.41565 55 137.9)"/><path fill="#84888b" d="M113 94l-89 5L5 52z"/><path fill="#d3d6d7" d="M231 60h25v10h-25z"/><path fill="#5a6d83" d="M200 92l-36-4 19-13z"/><path fill="#52647a" d="M144.4 118.3l112.2 27.4-148.6-4.1 22.7-24.4z"/><path fill="#363028" d="M69 114L46 94 6 114z"/><path fill="#8b99ab" d="M241.6 71.1L172.9 80l93.1 4.3 5-19.8z"/><circle r="1" fill="#a6a9a6" transform="matrix(.5624 -3.03447 35.4534 6.5709 187.2 96.1)"/><path fill="#6e8bad" d="M201.7 45.1l2.9-12.2-42.9-6.8 4.3 40.8z"/><ellipse cx="83" cy="11" fill="#78869b" rx="31" ry="5"/><path fill="#838d9a" d="M158.5 77.4L71.3 60.9l26.9-4.4 58.2 13.8z"/><ellipse cx="228" cy="147" fill="#445974" rx="74" ry="26"/><path fill="#384555" d="M4.9 120.4l21-14.2-41.9-8.6V53.2z"/><ellipse cx="48" cy="2" fill="#3f597f" rx="132" ry="3"/><circle r="1" fill="#3e3125" transform="matrix(-32.66686 -6.7208 1.19215 -5.7945 95.2 112.1)"/><ellipse cx="151" cy="54" fill="#c8cccf" rx="13" ry="11"/><path fill="#486996" d="M54 38l21 8 4-6z"/><path fill="#8b9aaf" d="M229 33l15-26-43 23z"/><ellipse cx="128" cy="77" fill="#c8c8c4" rx="15" ry="7"/><path fill="#e7ebea" d="M191 69l-18-7 7-2z"/><circle r="1" fill="#3a4d64" transform="rotate(176.2 77.8 56) scale(37.88777 5.20477)"/><path fill="#aeafae" d="M13 80L0 68l28 4z"/><ellipse cx="7" cy="138" fill="#565c63" rx="43" ry="18"/><path fill="#c9c6b9" d="M112 89h13v8h-13z"/><ellipse cx="120" cy="86" fill="#80888e" rx="23" ry="4"/><path fill="#d4d6d5" d="M55 33.3l-20.9 1.8 5.3-11.9 57.2-6z"/><path fill="#a5adb7" d="M0 17h37v24H0z"/><path fill="#746557" d="M156.2 108.2l45.9 2.1-31.1 7.9 11.8 2.4z"/><path fill="#425a7f" d="M-10-16h179.6L11 17.8-16 .5z"/><path fill="#b5b8b6" d="M246.4 84L233 96.2l-14.5.7-25.3-2.4z"/><path fill="#b3b8be" d="M34 12h44v10H34z"/><circle r="1" fill="#57739a" transform="matrix(-.70171 -3.03367 11.18445 -2.58704 47.5 41.5)"/><path fill="#9ba5ac" d="M50.4 93.4L95.9 88 76.3 63.9l52.3-30.1z"/><path fill="#24221f" d="M47 88h2v26h-2z"/><ellipse cx="255" cy="8" fill="#5679a9" rx="75" ry="11"/><path fill="#747c89" d="M12.5 38.9l38 46.9L6.4 61.6l38.8-7.8z"/><path fill="#6985a9" d="M206.4 36.7L145.6 25l-4.7 25.7-20.6-.5z"/><path fill="#7798c0" d="M164 61l100-2 7-31z"/><path fill="#abb3bc" d="M239 72l-67 7 57-28z"/><path fill="#9ea6af" d="M78 38l7-16-25 16z"/><path fill="#3f3428" d="M171 105l-15 15h14z"/><ellipse cx="67" cy="87" fill="#8b949b" rx="18" ry="13"/><path fill="#2d2413" d="M229 115h12v3h-12z"/><path fill="#4a6691" d="M129-16L86 27l137-38z"/><path fill="#3d495a" d="M72 185l152-15-129-24z"/><path fill="#42546a" d="M100.4 127.6l-18.3-6.7 144.5 1-13.1 5.5z"/><path fill="#94999c" d="M190.4 103.1l15.3-39.3-16.6 49.7 8.4-2.7z"/><path fill="#5c6775" d="M128 119h25v23h-25z"/><path fill="#c4c7c9" d="M47 46h66v8H47z"/><circle r="1" fill="#858f97" transform="rotate(-171.7 9.6 44.4) scale(32.78384 9.1957)"/><path fill="#51453a" d="M53 98h6v22h-6z"/><path fill="#8191a3" d="M202 97h18v8h-18z"/><ellipse cx="36" cy="116" fill="#151416" rx="15" ry="5"/><path fill="#e3e3de" d="M69 50.6l1.4 5.8-21.4 5-1.4-5.8z"/><path fill="#6a747f" d="M58 73l-29 7 18 4z"/><path fill="#909aa8" d="M12 21v25l31-8z"/><path fill="#afb6bc" d="M130.9 45.5l14.2-1.9 12.3 27.2 36.7 3.6z"/><ellipse cx="58" cy="131" fill="#6c737c" rx="27" ry="7"/><path fill="#6b7785" d="M94.6 95.8l-.2-7 15-.6.2 7z"/><path fill="#939aa0" d="M178.1 70.9l-75.8 20.9L178 79.6l32.7 12.5z"/><path fill="#101f30" d="M74 163h31v2H74z"/><path fill="#acb0b2" d="M23.5 53.3l32.9 14 44.9-19.9-47.7 30.1z"/><path fill="#adb1b2" d="M72 79.6l11.7-2.7 14.6-10-3.1 23z"/><path fill="#717e92" d="M116 64l-10-9-3 16z"/><path fill="#c0c2c5" d="M1 18h91v4H1z"/><ellipse cx="235" cy="135" fill="#516379" rx="89" ry="12"/><path fill="#476086" d="M65.3-16L30.1 18.5-.7 8.7l80-.2z"/><path fill="#5a4f43" d="M72 114h39v6H72z"/><ellipse cx="126" cy="107" fill="#324254" rx="17" ry="10"/></g></g></svg>