<svg xmlns="http://www.w3.org/2000/svg" viewBox="0 0 1800 1200"><defs/><filter id="a"><feGaussianBlur stdDeviation="12"/></filter><rect width="100%" height="100%" fill="#354051"/><g filter="url(#a)"><g fill-opacity=".5" transform="translate(3.5 3.5) scale(7.03125)"><circle r="1" fill="#fff" transform="matrix(21.3756 -87.9897 202.55934 49.20834 146 49.2)"/><path fill="#654f36" d="M143 185l-159-41L82 0z"/><ellipse cx="186" cy="13" fill="#c6e0f0" rx="91" ry="107"/><circle r="1" fill="#b9e3ff" transform="rotate(64 -11.5 40.6) scale(24.1341 48.7123)"/><path fill="#7b7366" d="M271 185L16 153l252-50z"/><circle r="1" fill="#302824" transform="matrix(2.10622 14.98653 -44.48401 6.25182 81.1 95.7)"/><circle cx="11" cy="103" r="43" fill="#83745d"/><circle cx="151" r="56" fill="#6f9ac7"/><path fill="#fffff9" d="M245.1-44.2l42.4 26.5L249 44.2l-42.4-26.5z"/><path fill="#1b2a3e" d="M30.3 56.9l5.4-5.1 61.9-29.6L83 56z"/><circle r="1" fill="#e8e4d6" transform="matrix(31.6115 -17.99411 10.74538 18.87714 150.5 98.1)"/><ellipse cx="47" cy="113" fill="#a79a90" rx="24" ry="14"/><circle r="1" fill="#fffffd" transform="matrix(3.97268 -10.09474 21.33784 8.3973 10.3 49.5)"/><circle r="1" fill="#2d2420" transform="matrix(6.86335 -.2934 2.64168 61.79439 102.9 141.6)"/><path fill="#77838d" d="M119 123h137v28H119z"/><circle r="1" fill="#d2cfc6" transform="matrix(-36.73982 -18.43819 11.6485 -23.21075 204.2 93.4)"/><path fill="#372f2e" d="M247 98h9v34h-9z"/><circle r="1" fill="#95bee4" transform="matrix(-38.40766 -28.1635 20.75468 -28.30396 27.2 9)"/><path fill="#a59c8a" d="M-10.7 154.1l2.4-71 21 .8-2.4 71z"/><circle r="1" fill="#2a3031" transform="rotate(68.6 -59 72.2) scale(6.3443 42.03597)"/><path fill="#5d4931" d="M15.9 78l9.6 6.5 25.3-20.4-66.8 5.5z"/><ellipse cx="19" cy="161" fill="#25211c" rx="8" ry="66"/><circle r="1" fill="#9a856f" transform="matrix(-1.86958 -9.70859 33.50102 -6.45128 64.8 152.3)"/><ellipse cx="183" cy="155" fill="#392b18" rx="86" ry="3"/><path fill="#a19985" d="M41 57h74v25H41z"/><path fill="#282b33" d="M41.7 145.6l-5-7.6 85.6-55.6 5 7.6z"/><circle r="1" fill="#c6d6de" transform="matrix(-29.08668 8.51212 -6.00886 -20.5328 141.9 64.6)"/><path fill="#573f37" d="M69.7 15.2l16.5 18.3.4-25.8-13.2-3.8z"/><ellipse cx="185" cy="21" fill="#7597b8" rx="20" ry="37"/><path fill="#fff8ea" d="M138-13l33 7-19 22z"/><path fill="#041e1b" d="M30.8 52l1.3-4.8L57.2 54l-1.3 4.9z"/><path fill="#a7c3db" d="M85 59l54 2-31-37z"/><path fill="#9d7f6e" d="M73.7 144.9l36.5-43.8 5.2 53.2-27.1-46.2z"/><path fill="#c09e88" d="M82 56L48 40l24-1z"/><path fill="#1e3a5b" d="M96.5 53.8L63.9 37.2l5.8-8.1 19.9-3.3z"/><circle r="1" fill="#c2caca" transform="rotate(28 -202.8 184.6) scale(4.54947 8.59155)"/><circle r="1" fill="#829bb3" transform="rotate(122.3 102.7 89.8) scale(8.35461 22.91873)"/><ellipse cx="110" cy="116" fill="#cdc9c4" rx="3" ry="16"/><path fill="#4e4541" d="M85 106l30 30 16-6z"/><path fill="#e0e0d8" d="M117 98h14v27h-14z"/><path fill="#7aaad7" d="M132.8 16.8l-32 18.5L75.1-8.8l32-18.5z"/><ellipse cx="79" cy="68" fill="#625847" rx="35" ry="3"/><ellipse cx="139" cy="141" fill="#8794a0" rx="22" ry="11"/><path fill="#453226" d="M65.8 94l-15.7 20.9-6.3-4.5 12.8-24.2z"/><circle r="1" fill="#f8efe5" transform="matrix(35.8762 51.36113 -8.8759 6.1999 222.5 0)"/><path fill="#101a27" d="M50.2 132.9l-4.1 23.4-13-17 8.7-9.6z"/><path fill="#4f2716" d="M45 56l10-15 22 17z"/><path fill="#211e1b" d="M115.5 173.5l-2.1-10-16 14.1 4.3-59.9z"/><path fill="#1d1b21" d="M61.8 125.8l15.4 33.1.5-16.2-3.2-27.4z"/><path fill="#a19685" d="M29.5 140.9l21.3-25.7-1.4 12.8-24.2-11.3z"/><path fill="#a89a84" d="M27.4 90.7l35.5-6.3-71.6-3.3L-16 111z"/><circle r="1" fill="#3f3c3b" transform="rotate(-92.2 116.7 6.7) scale(41.93912 2.02985)"/><ellipse cx="183" cy="116" fill="#b8b6ae" rx="66" ry="7"/><path fill="#fff9ea" d="M36.7 55.8L-16 29.9 8 62l25.3-1.2z"/><path fill="#a88c75" d="M79 147l-1-26 21 37z"/><path fill="#d3dfe2" d="M121 64l-16 16 41 3z"/><path fill="#948574" d="M68.8 153.5l7-8.9-6.5-6.9-32.9 32.8z"/><path fill="#b9cddc" d="M27.8 53.5L-16 23l76.7 21.1 11-16.7z"/><path fill="#2d2730" d="M69 106l16-10 26 21z"/><ellipse cx="31" fill="#8bb4d9" rx="43" ry="23"/><path fill="#987864" d="M78.4 126.1L68.6 111l10 1.7 50.4 12.9z"/><ellipse cx="47" cy="62" fill="#b0a590" rx="66" ry="3"/><path fill="#898278" d="M11 110.7l-27 46.1 30.7-5-.6-25.2z"/><path fill="#554e4e" d="M271 119.4l-30.3-9 8.6-21.7 21.7 48.7z"/><path fill="#504433" d="M99.3 157.5L92.4 185H11.6L-16 162.4z"/><path fill="#c9d0cd" d="M254 113h2v17h-2z"/><path fill="#d6d4d0" d="M242 24h14v29h-14z"/><path fill="#09345d" d="M69 40l17 17 3-14z"/><path fill="#7a664a" d="M279 154.9v7l-74 1.2v-7z"/><path fill="#817265" d="M112.7 92.5l-1.9.8-19.5-43.8 1.9-.8z"/><path fill="#d0d2cd" d="M123.7 116l16.4.4 118.7-18.5-130.7-26.8z"/><path fill="#e4ebe7" d="M111.3 124l-2.6-21.8 2-.2 2.6 21.8z"/><path fill="#c1b1b1" d="M55 150l-10 8 1 7z"/><ellipse cx="200" cy="73" fill="#bdc9ce" rx="58" ry="15"/><path fill="#cee0ec" d="M98 43l-1 12 19 6z"/><path fill="#9c816b" d="M69 107l-1-17h14z"/><path fill="#6e5e4c" d="M18.6 89.9l14.6-16 45.1-1.7L24 61z"/><path fill="#574135" d="M89.3 9.3l-4.2 8-12.4-6.6 4.2-8z"/><path fill="#91b2cf" d="M126 61L88 18l87-9z"/><path fill="#11171e" d="M115 148h13v5h-13z"/><path fill="#585c5a" d="M92.5 86.2l23.8 9.8-19.9-29.9 17 1.2z"/><path fill="#855b44" d="M94.5 25.7l1.9 37.6 3.1 13.4-9-34.4z"/><path fill="#39362e" d="M10.7 176.5l-13-12.5 23.6-24.5 13 12.5z"/><path fill="#191d1c" d="M71 88h36v3H71z"/><path fill="#96b8d6" d="M54.5-16l22.3 39.8-5 5.4L-16 21z"/><path fill="#544d40" d="M170.6 124.4l-7 .2-.2-5 7-.2z"/><ellipse cx="249" cy="56" fill="#85a0b8" rx="60" ry="4"/><path fill="#574734" d="M229 123l-3 2-1-10z"/><path fill="#938671" d="M99 141l-21 17 21-2z"/><path fill="#adbac0" d="M146.6 79.4L271 77.8l-5.6 43.4-14.6-32.5z"/><path fill="#c5bdaa" d="M62 80l-15 5-4-7z"/><circle r="1" fill="#f5f1eb" transform="matrix(.62729 -35.46237 16.87117 .29843 234 0)"/><path fill="#352f24" d="M146 154h54v6h-54z"/><ellipse cx="113" cy="91" fill="#aab4b8" rx="6" ry="2"/><path fill="#82776b" d="M61.4 124.8L36 132l16.8-37.2-31.2 12z"/><path fill="#8fa5ba" d="M246 40.7l-17.7 20.4 37.4 3.9-75.9-43.4z"/><path fill="#47494a" d="M185 128l11-11v6z"/><path fill="#4e3f33" d="M44.9 111.8L35.1 66l5.3 12.2 4.7 25.6z"/><path fill="#5b534b" d="M108 110.8l.1-12.3-19.1-7 19.4 28.7z"/><path fill="#a7a7a4" d="M55 110l17-5-19 23z"/></g></g></svg>