<svg xmlns="http://www.w3.org/2000/svg" viewBox="0 0 1800 1200"><defs/><filter id="a"><feGaussianBlur stdDeviation="12"/></filter><rect width="100%" height="100%" fill="#4b3b31"/><g filter="url(#a)"><g fill-opacity=".5" transform="translate(3.5 3.5) scale(7.03125)"><circle r="1" fill="#d5d2b7" transform="matrix(16.98048 -58.83024 27.4911 7.9349 168.6 42)"/><circle r="1" fill="#9ce8d9" transform="rotate(-107 100 -6) scale(13.49888 68.60588)"/><path fill="#2e0000" d="M131 34h45v37h-45z"/><circle r="1" fill="#020908" transform="matrix(-40.99493 -29.95868 37.5626 -51.4 1.2 54.5)"/><path fill="#b6a488" d="M133 68l-48-2-19 78z"/><circle r="1" fill="#ffff92" transform="matrix(-3.23768 -.05292 .89694 -54.87699 134 133)"/><circle r="1" fill="#ffbe8a" transform="matrix(-16.97862 3.31862 -9.79574 -50.11666 176.3 10.7)"/><circle r="1" fill="#081111" transform="matrix(5.0885 -28.98767 16.60826 2.91541 112 119.4)"/><ellipse cx="224" cy="115" fill="#16221d" rx="37" ry="76"/><circle r="1" fill="#fff261" transform="matrix(31.8243 -25.405 1.73658 2.17538 159 158.5)"/><path fill="#a66431" d="M78 37l70-40 39 59z"/><path fill="#e7cc87" d="M243.4-17.7l-13.5 44-15.3-4.6 13.5-44z"/><circle r="1" fill="#020b00" transform="matrix(11.31671 -3.33069 22.93894 77.93984 38.7 136.5)"/><circle r="1" fill="#5beffd" transform="matrix(23.44946 -17.03703 4.6251 6.3659 148.3 90)"/><circle r="1" fill="#001215" transform="matrix(20.89338 3.24615 -3.66681 23.6009 160.3 118.2)"/><path fill="#777e84" d="M-16 163l6-111 35 83z"/><path fill="#ddfcc8" d="M75 97h15v31H75z"/><path fill="#fcdd9d" d="M184 0h5v106h-5z"/><path fill="#b9855a" d="M104 43L73-6l-47-9z"/><path fill="#58f6ff" d="M154 93l41-36 1 19z"/><circle r="1" fill="#14160e" transform="rotate(75.9 -86.9 110.5) scale(26.5822 50.05058)"/><path fill="#182731" d="M148 74L36 46l112-6z"/><path fill="#ffc851" d="M178 146l6-40 3 24z"/><path fill="#171e1b" d="M137 104l2 63 44-85z"/><path fill="#e27f4f" d="M127.9 55l2.5-9.3-52.9-22.1 66 40.9z"/><ellipse cx="222" cy="48" fill="#2e3536" rx="30" ry="28"/><path fill="#4f2114" d="M86 67l40 33-2-17z"/><circle r="1" fill="#5d4c3e" transform="matrix(-53.20623 -29.99849 3.7363 -6.62682 50.7 72.5)"/><path fill="#dac8ab" d="M47 75h14v9H47z"/><path fill="#ffdf9d" d="M178.6 68.4l-29.3 4.1-28 11.9 5 5z"/><path fill="#916d55" d="M101.5 179.6l43.9 1.1-93.6-69.6 12.7.9z"/><path fill="#ff6930" d="M175 35h19v25h-19z"/><path fill="#626d83" d="M157.9 38.6l31 35.9-47.3-54.8 48.4 4.5z"/><ellipse cx="133" cy="133" fill="#ffdb64" rx="3" ry="35"/><path fill="#13b1ca" d="M78 129.4l-3.7-8.2L98 110.6l3.7 8.2z"/><circle r="1" fill="#6e879f" transform="rotate(12.1 -67.7 1227) scale(32.52378 3.73084)"/><path fill="#201d1a" d="M34 20h51v45H34z"/><path fill="#5c5132" d="M65 82l-25 58 41-1z"/><ellipse cx="170" cy="9" fill="#fdddad" rx="15" ry="12"/><path fill="#101317" d="M13.8 129L-6 109.2 32.2 71 52 90.8z"/><path fill="#6e0a13" d="M176 50l-41-21 43 7z"/><ellipse cx="207" cy="66" fill="#2a2b23" rx="10" ry="116"/><path fill="#ffd664" d="M176.4 142l1.9 2.3-46.7 37.7-1.9-2.3z"/><path fill="#ffffac" d="M6.3 151.7l-13.8-2.5 1.2-6.9 13.8 2.5z"/><path fill="#aa882b" d="M157 3l-44 12 30 16z"/><path fill="#211501" d="M175.2 148.3l8.7 34.2-68.1 2.3 29.7-13.5z"/><path fill="#feffd1" d="M197.7 28.1l.6-5.7-26.4 10.5 18 5.7z"/><circle r="1" fill="#ffb96e" transform="matrix(8.46085 4.6022 -1.59524 2.93275 92.2 33.8)"/><path fill="#39332a" d="M134.1 50.1l-37-48.2-23.9 20.9 95 30.3z"/><circle r="1" fill="#e5ab5a" transform="matrix(-1.61005 -.20117 14.94067 -119.57956 178.5 158.7)"/><path fill="#1b170c" d="M126 111l5 54-54-35z"/><path fill="#f0cd89" d="M21 127l-3 13 10 1z"/><path fill="#63dae4" d="M196.3 64.4l-54.7 39.5-17.9-11.3L140 81.5z"/><circle r="1" fill="#453b2a" transform="matrix(-43.2167 19.73544 -.63054 -1.38077 85.4 115.9)"/><path fill="#cb8258" d="M80 5h26L95-16z"/><path fill="#ffe69c" d="M73 96l18 12-15 9z"/><path fill="#ffeb9e" d="M97 91l11-6 11 6z"/><ellipse cx="150" cy="65" fill="#0e2734" rx="28" ry="5"/><ellipse cx="63" cy="90" fill="#131e25" rx="34" ry="4"/><path fill="#96a3a9" d="M148 68l-53 1 25 8z"/><path fill="#2d2a22" d="M186.5 100.3l-2.1 34.5 61 15.6L198.9 60z"/><path fill="#18111a" d="M102.5 16.6L114 7.7l27.2-5.5-5.5 9.4z"/><path fill="#9b9281" d="M-2 90H9l9 13z"/><path fill="#e0b86b" d="M228-1l-7.4 26-6.7-2 7.5-26z"/><ellipse cx="65" cy="96" fill="#846951" rx="18" ry="5"/><path fill="#262010" d="M162.1 192.9l31.1-63.8 20.7 10-31.1 63.8z"/><ellipse cx="247" cy="10" fill="#132933" rx="13" ry="20"/><path fill="#8d5e3b" d="M56.3 36.9l-6.7-7.7-2.9 3.9.6 20.8z"/><path fill="#ffe7a6" d="M90.2 80.5l-1.8 5.7-8.6-2.7 1.8-5.7z"/><path fill="#281808" d="M135.5 166l-21 19 67.6-48.4-44.9-14.7z"/><path fill="#080a0a" d="M41 76l4-56L12 6z"/><path fill="#7a542f" d="M26 70L10 40l26 10z"/><path fill="#241b1a" d="M134 65l-19-26-37 16z"/><path fill="#012944" d="M124 94l2 14-34 13z"/><path fill="#2d1f0e" d="M49.9 49.6l24 65.1-2.8-23.9-3-17.4z"/><path fill="#0b0b08" d="M43 65h-59l37 36z"/><circle cx="61" cy="119" r="7" fill="#8a8b83"/><path fill="#af8564" d="M60.5 79l-17.1 6.1 14.4-20.7-17.7 2.3z"/><path fill="#d8c096" d="M141.5-16l26.9 34.9L154.1-16 139 14.7z"/><path fill="#e98756" d="M114.3 30l1.6.2-30.5 7 24 6.6z"/><path fill="#8898b3" d="M176.3 36.7L147.6 28l2-6.7 28.8 8.7z"/><path fill="#6f4806" d="M153.3 32.7L149 47l-38.2-11.7L115 21z"/><path fill="#3f4b5b" d="M128.9 72.2l5.9 5.3 16.6-4.9 9.8-36.3z"/><path d="M69 125l-16 7 17 2z"/><circle r="1" fill="#ff9d62" transform="matrix(-6.1096 11.43047 -5.85355 -3.12873 182.8 56.5)"/><path fill="#111011" d="M64 4L53 29 1 47z"/><path fill="#a18e52" d="M53 154h12v4H53z"/><path fill="#ffc153" d="M128 178.8l45.5-34.4.6.8-45.6 34.4z"/><path fill="#66d4dc" d="M191.3 62l3.9 11.9-8.2 7.7-66.2 26.3z"/><ellipse cx="176" cy="24" fill="#2d4038" rx="15" ry="2"/><path fill="#3f4245" d="M80 52.5l24.9 29.6L59.3 56l-13.4-6.1z"/><path fill="#000a0f" d="M101 1l-9 8 18 14z"/><path fill="#242c2b" d="M139 107l34 37 13-62z"/><path fill="#423931" d="M247.8 69.4l-56.7-12 3-14.8 56.8 12z"/><path fill="#140c04" d="M83 154l-15-20 32 24z"/><path fill="#ffbe5d" d="M131 106h5v62h-5z"/><path fill="#0b293e" d="M94 119.5l-2.9-6.4 33-14.6 2.8 6.4z"/><circle r="1" fill="#59eaea" transform="rotate(-35.2 235.2 -76.4) scale(7.55428 3.85594)"/><path fill="#cd8053" d="M95.3 184.7l16.7-.2-17.8-20.8 10.8-5.9z"/><path fill="#ffe29b" d="M96.2 87.3l8.5-3 3 8.4-8.4 3z"/></g></g></svg>