<svg xmlns="http://www.w3.org/2000/svg" viewBox="0 0 1200 1800"><defs/><filter id="a"><feGaussianBlur stdDeviation="12"/></filter><rect width="100%" height="100%" fill="#523c35"/><g filter="url(#a)"><g fill-opacity=".5" transform="translate(3.5 3.5) scale(7.03125)"><circle r="1" fill="#f4934b" transform="matrix(-6.57051 76.64174 -167.17692 -14.33212 97.6 55.8)"/><circle cx="74" cy="255" r="93" fill="#001928"/><path fill="#ffffca" d="M101.7 156.3l15.5-1.8 30.1 19.2-58.7-3.8z"/><circle cx="154" cy="198" r="38" fill="#001b25"/><ellipse cx="99" cy="115" fill="#884832" rx="169" ry="26"/><circle r="1" fill="#001419" transform="matrix(96.78495 -3.2003 .54839 16.58465 14.6 187.5)"/><path fill="#fff9b4" d="M97 155h30v16H97z"/><circle r="1" fill="#b87e4d" transform="matrix(84.12978 3.0849 -2.00049 54.55632 131 31)"/><ellipse cx="137" cy="234" fill="#172a31" rx="144" ry="64"/><path fill="#ff9c42" d="M92 167h44v4H92z"/><circle r="1" fill="#4a3b2f" transform="matrix(-5.97625 -15.1716 31.45524 -12.39055 76.2 155.5)"/><circle r="1" fill="#fff7d6" transform="matrix(-13.45274 -.14088 .05928 -5.66095 112.3 162.6)"/><circle r="1" fill="#b16539" transform="rotate(13 -307.5 492.1) scale(91.24484 25.61166)"/><circle r="1" fill="#8b5033" transform="matrix(8.66076 -23.9251 67.25734 24.34682 24.7 100)"/><path fill="#4e3d34" d="M185 164l-66-12 21 20z"/><path fill="#2a3a41" d="M124.9 206l24.9 46.7-32.7 17.4-24.9-46.8z"/><circle r="1" fill="#12171b" transform="matrix(-.07977 8.66368 -163.34642 -1.50403 32.5 180.2)"/><ellipse cx="121" cy="5" fill="#9d7951" rx="128" ry="24"/><path fill="#3d3831" d="M0 147h94v23H0z"/><circle r="1" fill="#774a38" transform="matrix(-119.04777 -13.34413 1.0512 -9.37818 93.7 129.9)"/><ellipse cx="45" cy="255" fill="#32464c" rx="33" ry="8"/><ellipse cx="164" cy="252" fill="#465a60" rx="59" ry="2"/><path fill="#ffa96b" d="M92 164h38v8H92z"/><ellipse cx="117" cy="181" fill="#181e22" rx="169" ry="11"/><ellipse cx="164" cy="61" fill="#ba7643" rx="139" ry="11"/><path fill="#fffbc6" d="M115 153.6l.9 5-10.9 1.8-.9-5z"/><path fill="#081218" d="M177 245l-4-20-34 10z"/><path fill="#563f32" d="M-16 132.3l132.7 22.6 68.3 22.9-40.3-39.8z"/><path fill="#27383e" d="M37 248l62-29H17z"/><path fill="#503a30" d="M90.9 170.4l45.3 18L-16 133.7l126.6 7.9z"/><circle r="1" fill="#a05d37" transform="rotate(21.7 -212.3 185.7) scale(57.22367 14.55724)"/><path fill="#172024" d="M153.5 204.9l11.2-8 20.3.8-55.3-35z"/><path fill="#ffdaa9" d="M95.6 166.7L95 163l31.9-4.9 4.5 12.5z"/><path fill="#111c21" d="M84 198l-43 12 73 11z"/><ellipse cy="242" fill="#050e11" rx="35" ry="4"/><path fill="#303d44" d="M107.5 218.6l43.2 3.8-36.5 11.5-15.5-3z"/><ellipse cx="117" cy="237" fill="#142026" rx="68" ry="5"/><circle r="1" fill="#202a2f" transform="matrix(7.57764 -17.18082 30.01376 13.23765 119.5 198.3)"/><circle r="1" fill="#b17a4d" transform="rotate(99.9 71.2 86.9) scale(18.7906 81.82792)"/><circle r="1" fill="#946c45" transform="matrix(107.71612 -30.8871 3.92342 13.6826 25 5.6)"/><path fill="#ffffe4" d="M108 156h11v6h-11z"/><path fill="#6d4635" d="M25.1 127.6l98.7 23.3-26.6 7.2 38-25.2z"/><path fill="#453c37" d="M134 147h36v24h-36z"/><path fill="#443438" d="M93 172h37v3H93z"/><ellipse cx="72" cy="244" fill="#3e5257" rx="9" ry="2"/><circle r="1" fill="#a76f42" transform="matrix(-32.48461 -10.8709 7.79228 -23.28502 51.9 36.1)"/><ellipse cx="24" cy="161" fill="#3f3934" rx="69" ry="10"/><path fill="#0b171c" d="M82 243h15v12H82z"/><path d="M17 217h17v2H17z"/><path fill="#56696a" d="M23.6 228l-.1-1 17-1v1z"/><path fill="#ffe5ab" d="M120.5 157.9l.5-.9 8.5 5.1-.5.9z"/><path fill="#2a3a41" d="M143 271h30l-47-42z"/><path fill="#081719" d="M23 174l-39-6v44z"/><ellipse cx="139" cy="2" fill="#9a7551" rx="108" ry="5"/><circle r="1" fill="#314248" transform="rotate(75 -117.6 155.7) scale(3.41371 14.79806)"/><path fill="#493931" d="M109 146l63 9-33 11z"/><ellipse cx="114" cy="169" fill="#ffa758" rx="18" ry="2"/><path fill="#141e24" d="M105 239l26 12 13-8z"/><ellipse cx="157" cy="220" fill="#090e13" rx="25" ry="2"/><circle r="1" fill="#ffedcb" transform="matrix(7.31435 -.2997 .179 4.36836 117.6 161.1)"/><path fill="#0e181c" d="M110.4 239.6l6.2 3.5-30.3-2.2-46-3.5z"/><path fill="#202c31" d="M16 193h92v12H16z"/><path fill="#5c7073" d="M181.8 249l.2 1-25.8 3-.2-1z"/><path fill="#253137" d="M120 221h39v11h-39z"/><path fill="#834e35" d="M19 104.9l68.4 29-85-9.1L-16 60.2z"/><path fill="#233137" d="M86.9 227.3L146 241l17.6-20.4-15.8 35.5z"/><path fill="#935439" d="M68 112h102v16H68z"/><path fill="#152227" d="M43.1 216l38.6 17.3-94.7-23.9 70.7-4.6z"/><path fill="#000b11" d="M146.5 249l45-3v1l-45 3z"/><circle cx="128" cy="167" r="4" fill="#ffb76e"/><path fill="#121c20" d="M43.8 209.2l3.7 7.7-14.1 23.2 11.5-8z"/><ellipse cx="65" cy="252" fill="#32444c" rx="22" ry="2"/><path fill="#36494f" d="M111.3 250.7l-13.1 7.2-1.5-2.6 13.1-7.2z"/><path fill="#543b31" d="M99 143l20-3-31 27z"/><path fill="#3b4e54" d="M95 227h19v4H95z"/><path fill="#403b36" d="M0 162h93v9H0z"/><path fill="#2b3c42" d="M94 223.3l-47.7-10.4 7 9.8 10.6-3z"/><ellipse cx="69" cy="247" fill="#101b20" rx="29" ry="2"/><path fill="#0b161a" d="M0 228h27v4H0z"/><path fill="#ffecca" d="M119 161l-24 1 12-7z"/><path fill="#0b1419" d="M79 215h30v5H79z"/><ellipse cx="122" cy="171" fill="#923825" rx="11" ry="1"/><path fill="#3c4e53" d="M114 221h24v3h-24z"/><path fill="#324248" d="M43 234l14 9-5-18z"/><path fill="#000004" d="M150 235h20v2h-20z"/><path fill="#83503c" d="M135 124h35v11h-35z"/><path fill="#34454d" d="M80 246l-11-4 12-2z"/><ellipse cx="161" cy="213" fill="#26343a" rx="27" ry="4"/><path fill="#384951" d="M117 208h12v3h-12z"/><circle r="1" fill="#b87344" transform="rotate(17.3 -135 539) scale(42.44855 20.86712)"/><circle r="1" fill="#a57147" transform="matrix(-76.07653 .59829 -.04035 -5.13127 89.2 28.2)"/><path fill="#111b20" d="M119 226h45v2h-45z"/><path fill="#495c62" d="M149 252l6 19 20-8z"/><circle r="1" fill="#a05c3b" transform="matrix(-52.5212 -5.3711 1.55398 -15.19556 116.3 102.4)"/><path fill="#0b1114" d="M150.5 207l-19.6 4.7-3.1-5.5 18.7 2.9z"/><circle r="1" fill="#a56639" transform="rotate(-149.8 22.1 28.8) scale(36.19083 14.03864)"/><path fill="#121d23" d="M65.1 239.5l2.1-5.1-32 2.7 51.4-7.3z"/><path fill="#314449" d="M5 222h36v2H5z"/><ellipse cx="49" cy="177" fill="#0d1618" rx="41" ry="4"/><ellipse cx="165" cy="245" fill="#30444a" rx="62" ry="1"/></g></g></svg>