<svg xmlns="http://www.w3.org/2000/svg" viewBox="0 0 1800 1013"><defs/><filter id="a"><feGaussianBlur stdDeviation="12"/></filter><rect width="100%" height="100%" fill="#545976"/><g filter="url(#a)"><g fill-opacity=".5" transform="translate(3.5 3.5) scale(7.03125)"><circle r="1" fill="#e9ffff" transform="rotate(-179.6 72.8 18.3) scale(255 52.56692)"/><ellipse cx="115" cy="108" fill="#4477a7" rx="146" ry="44"/><circle r="1" fill="#bed0e7" transform="rotate(-38.1 71.5 -13) scale(124.41547 39.88958)"/><path fill="#47506a" d="M194 75L71 111 46 56z"/><path fill="#b2c3dd" d="M258-2l-.1 97.7-25.6 3.3L18.7-6.7z"/><path fill="#b1c1d4" d="M0 0h39v95H0z"/><circle r="1" fill="#4b79ad" transform="rotate(-76.5 187.8 -51.6) scale(35.66553 130.90192)"/><ellipse cx="121" cy="78" fill="#30243e" rx="43" ry="4"/><path fill="#7e8386" d="M166 81h59v20h-59z"/><path fill="#aec1d8" d="M107-16h135L65 80z"/><circle r="1" fill="#2a5c88" transform="matrix(-48.24033 -36.25174 21.89356 -29.13384 35.7 143)"/><path fill="#5c6d87" d="M207.3 78.7l-25.2-15.2 3.4 24.2 28.8-29.8z"/><circle cx="109" cy="67" r="9" fill="#2f4a65"/><ellipse cx="123" cy="93" fill="#343e46" rx="78" ry="4"/><path fill="#b4bfd2" d="M114.3 70l24.3-54.1 1.4 60.4-10.5-3.2z"/><path fill="#fbfdf8" d="M172 96h63v2h-63z"/><path fill="#fffffe" d="M209.2 73l16 1-.4 5-16-1z"/><path fill="#727f9b" d="M66 55L37 75h68z"/><path fill="#9eadc6" d="M47.4 96l-13.3-7.6 24.3-43.9L-16 97.4z"/><path fill="#525155" d="M220.8 85.6l-3-6.7L202.1 98l17.3-6.2z"/><path fill="#a0aec6" d="M271 92.3l-8.7-17.5-25.2-33.4-16.5 58.2z"/><path fill="#dcd9d4" d="M79.6 52L79 74.1l11.9-15.9-42.3-7.7z"/><ellipse cx="163" cy="77" fill="#363a52" rx="17" ry="5"/><ellipse cx="77" cy="108" fill="#416996" rx="253" ry="12"/><circle r="1" fill="#4d4d6a" transform="matrix(4.34868 1.3962 -2.9206 9.0966 60.7 63.6)"/><path fill="#577ba8" d="M132 118h124v22H132z"/><path fill="#557090" d="M85 61h33v9H85z"/><path fill="#6b88a7" d="M152.8 89.4H62.1l4.6-26.9 16.9 20.1z"/><path fill="#7c8eaa" d="M138 75l-13-11 54-1z"/><path fill="#ffffea" d="M119 60h5v9h-5z"/><path fill="#323d54" d="M208 72l-9-1 17-4z"/><path fill="#53637d" d="M64.4 76.7l-20 27.5.3-38.6-11.6 23.7z"/><path fill="#fffcf3" d="M164 63l-7-2v7z"/><path fill="#aab8cb" d="M21.8 44.7l32.7 3.4.2 32.7 1.6 1.9z"/><path fill="#8a9ba7" d="M158 86h50v5h-50z"/><path fill="#fff" d="M215 95h16v2h-16z"/><ellipse cx="47" cy="98" fill="#5f81a5" rx="40" ry="3"/><path fill="#e6dfd7" d="M222 69l-18 9 31 3z"/><ellipse cx="110" cy="33" fill="#adbdd2" rx="54" ry="27"/><path fill="#254c6e" d="M12 134h33v8H12z"/><path fill="#8096b1" d="M83 64h17v13H83z"/><ellipse cx="208" cy="51" fill="#a9b6cb" rx="69" ry="17"/><path fill="#24354b" d="M46 91h38v5H46z"/><path fill="#5d7896" d="M68 82h112v9H68z"/><path fill="#5c7a9f" d="M124.4 66.8l31.7-.1 27.6 58.2-29-64z"/><path fill="#6284b2" d="M121 98h95v3h-95z"/><path fill="#5c7192" d="M197 65l-24 8 21 6z"/><path fill="#463e4c" d="M82 64h2v19h-2z"/><path fill="#3f6795" d="M231 96h25v26h-25z"/><path fill="#fed7c0" d="M174 64h6v8h-6z"/><path fill="#7692b0" d="M63 56h16v26H63z"/><path fill="#464f68" d="M56.7 87l42.4-12.2 11.6-13.9L125 77.6z"/><path fill="#c4c7ca" d="M202.9 67.6l-8.3 14.3 8.5-33.6-6.5 18.9z"/><path fill="#868f97" d="M53 51.7l-6.6 1 14.7 3.2 18.8 3.9z"/><path fill="#4b516e" d="M60.3 103.5l4.2-38.3.5-5.5-9.9 2.1z"/><ellipse cx="145" cy="104" fill="#2d527c" rx="38" ry="2"/><ellipse cx="197" cy="93" fill="#434654" rx="28" ry="2"/><path fill="#8ca0bf" d="M230 79h26v18h-26z"/><path fill="#fff9ea" d="M126 61h11v3h-11z"/><path fill="#486586" d="M65 64l13-3v6z"/><path fill="#375e87" d="M15 103h60v26H15z"/><circle r="1" fill="#aabcd2" transform="rotate(94.7 84.1 81.9) scale(37.74971 129.28575)"/><path fill="#a7b2b6" d="M70.9 95.5l.1 1-13.9 2-.1-1z"/><path fill="#a9b1bc" d="M176 79h54v2h-54z"/><path fill="#393b4b" d="M193.5 77.8l-21 1.4v-1l21-1.4z"/><path fill="#e4e4e1" d="M53 44h8v9h-8z"/><ellipse cx="79" cy="69" fill="#d4c4be" rx="1" ry="15"/><path fill="#7990ae" d="M123 64h27v12h-27z"/><path fill="#3c4b69" d="M202 69h6v8h-6z"/><path fill="#6c7e9d" d="M173.2 72.4l-20.1 5.8 5.3-3.1 12.5-16.9z"/><path fill="#4e6d90" d="M36 83h54v6H36z"/><ellipse cx="207" cy="57" fill="#a7b4c9" rx="59" ry="10"/><ellipse cx="193" cy="96" fill="#fff" rx="11" ry="1"/><path fill="#597ba8" d="M95 121h105v12H95z"/><path fill="#3d4155" d="M54 82h18v3H54z"/><path fill="#aabacf" d="M133 6h38v57h-38z"/><path fill="#abb8cb" d="M40.9 82.6L29 47l-45 17.3v16.2z"/><path fill="#93aac7" d="M0 83h36v11H0z"/><path fill="#3d515f" d="M38 90h116v2H38z"/><path fill="#ffffe7" d="M197 68h3v9h-3z"/><path fill="#7f8489" d="M218.8 76.6l7 5.8-2.6 3-7-5.8z"/><ellipse cx="9" cy="130" fill="#4a6e98" rx="69" ry="4"/><path fill="#c69e92" d="M219 71l-8 1 7-7z"/><path fill="#fff" d="M211 74h10v4h-10z"/><path fill="#e3e6e7" d="M231.3 80.3l-5.5.3-5.8-16.4-1.1 4.6z"/><path fill="#f8f4eb" d="M63 54.7v-3l10-.4v3z"/><path fill="#416794" d="M86 136h67v8H86z"/><path fill="#38608e" d="M186 133h70v2h-70z"/><path fill="#e5e9e2" d="M87 59l-9 6 3-9z"/><path fill="#9ba9c0" d="M68 78h12v4H68z"/><path fill="#496d99" d="M196 97h13v30h-13z"/><path fill="#7288a9" d="M47 54.9l5.6-3.4-4.2 27.9 7.3-13.3z"/><ellipse cx="44" cy="75" fill="#64637d" rx="5" ry="4"/><circle r="1" fill="#f8f9ed" transform="matrix(-3.71101 -1.27168 .32417 -.946 55.8 57)"/><path fill="#404e65" d="M74 92h82v6H74z"/><path fill="#a4a7b2" d="M160 96h24v1h-24z"/><ellipse cx="216" cy="84" fill="#697986" rx="10" ry="3"/><circle r="1" fill="#b2c3d6" transform="matrix(15.49352 -28.8 41.8097 22.49233 22.9 15.3)"/><path fill="#7c6a75" d="M182 66l2.3 2-8.3 10-2.3-2z"/><path fill="#494d64" d="M136.5 76.3l5.5-11.1-2.1 10.1 23.2 3z"/></g></g></svg>