<svg xmlns="http://www.w3.org/2000/svg" viewBox="0 0 1800 1200"><defs/><filter id="a"><feGaussianBlur stdDeviation="12"/></filter><rect width="100%" height="100%" fill="#564332"/><g filter="url(#a)"><g fill-opacity=".5" transform="translate(3.5 3.5) scale(7.03125)"><circle r="1" fill="#bab0bf" transform="rotate(10.1 -213.8 610.1) scale(255 146.29987)"/><circle r="1" fill="#5d0000" transform="matrix(-43.02688 -11.38258 22.169 -83.80025 100.3 131.4)"/><ellipse cx="235" fill="#fff" rx="76" ry="47"/><circle r="1" fill="#e3faff" transform="matrix(-167.01003 -1.37455 .07217 -8.76854 127.8 4.8)"/><circle r="1" fill="#e1f7eb" transform="matrix(-44.18725 64.29284 -5.11837 -3.51776 35.7 74.8)"/><circle r="1" fill="#83000a" transform="matrix(10.00029 -52.74755 25.88 4.90653 118.2 125)"/><circle r="1" fill="#dbeefa" transform="matrix(-11.69369 15.63128 -97.06738 -72.61568 253 43.8)"/><path fill="#7fb4c1" d="M35.7 125.5l56-2 .6 19-56 2z"/><ellipse cx="227" cy="153" fill="#6e95ad" rx="89" ry="31"/><circle r="1" fill="#70745a" transform="rotate(-147.9 50.6 21.1) scale(27.68282 52.14563)"/><path fill="#000c08" d="M24.1 99.8l9-.5 2.8 53-9 .4z"/><path fill="#b9cfbf" d="M6 117h21v53H6z"/><path fill="#41000a" d="M129 137l-79 10-5 35z"/><path fill="#d9d9c7" d="M36.4 185l13.4-93.2L-16 70.6l55.2 31.2z"/><circle r="1" fill="#4a574f" transform="rotate(-87.5 171.5 -65.3) scale(16.27186 35.93371)"/><path fill="#766f55" d="M75 11L29 0l-45 122z"/><path fill="#4c5645" d="M105 22l11 48 41-64z"/><circle r="1" fill="#6c7667" transform="matrix(44.8452 13.36894 -6.96785 23.37318 203.8 63)"/><path fill="#e6eef1" d="M271 96.8V35.7L158.5 15.4l76.9 30.8z"/><ellipse cx="103" fill="#dae4e1" rx="49" ry="16"/><path fill="#797160" d="M42 123L93-16l14 108z"/><path fill="#640011" d="M130 94l11 45-78-23z"/><path fill="#c3c9c2" d="M1.5 86.5L36.1 127l-41.6-9 53.7-49.2z"/><path fill="#fdffff" d="M42.4-14l4 10.2L-.5 14l-4-10.3z"/><path fill="#d0d1c4" d="M19 164l30-30-6 51z"/><path fill="#000c0b" d="M1 165l-10-12 15-24z"/><path fill="#095a67" d="M124.6 111.9l-1.1-21 14-.8 1 21z"/><circle r="1" fill="#40565a" transform="matrix(.1255 26.98302 -3.4456 .01603 15.5 158.4)"/><path fill="#e50d3d" d="M123 74h19v19h-19z"/><path fill="#454c47" d="M148 116h70v9h-70z"/><circle r="1" fill="#576470" transform="matrix(-22.21172 9.51502 -7.93267 -18.51791 165 165.3)"/><circle r="1" fill="#b7001f" transform="matrix(-7.61636 -2.97569 8.05264 -20.61095 138.3 127)"/><circle r="1" fill="#838372" transform="matrix(19.66833 26.1324 -25.94684 19.52867 158.2 52.6)"/><path fill="#1b211f" d="M39.5 105.6l-2.1-6.2-16.3 18.8 17.7-2.2z"/><ellipse cx="207" cy="14" fill="#cdd7e1" rx="38" ry="23"/><path fill="#735e48" d="M29 72l-45-24 71-9z"/><path fill="#a1b9a7" d="M79 164h17v6H79z"/><ellipse cx="248" cy="151" fill="#96a0a8" rx="34" ry="26"/><circle r="1" fill="#8c0016" transform="matrix(.9006 10.22386 -30.11782 2.653 103.7 148.7)"/><path fill="#b0aa97" d="M-16 44.4l74.2-27.7 51.9 34.5L14 17.9z"/><path fill="#2a1a15" d="M70 110l3 35.8-3 .3-3-35.9z"/><path fill="#d7e1e0" d="M91 11.1L60.2 43.6 97.4-16 46.6 3.6z"/><path fill="#a10017" d="M130.9 59.5l-47.5 63.9 65-51.6-49.7 9.8z"/><path fill="#060a08" d="M27 159l7 7 3-7z"/><path fill="#cdccc0" d="M-1 115l14 12 29-7z"/><path fill="#686658" d="M39 1l34 13-79 6z"/><path fill="#c3c7c1" d="M12.1 58.7L24 145.2 23.6 82 11.2 60z"/><path fill="#939587" d="M158 166l15-112-29 20z"/><circle r="1" fill="#385259" transform="rotate(179.3 26.6 81.9) scale(4.8271 55.28493)"/><path fill="#d8e0d8" d="M6 92h40v7H6z"/><path fill="#0c110d" d="M113 51h14v13h-14z"/><path fill="#b0856f" d="M86.2 82.7l4.9 18.6 3.2 8.3-20.5-1.7z"/><path fill="#6a6e6a" d="M244 56l-67-27 94 80z"/><path fill="#030d16" d="M65.4 147l-4.5 36.8-10.2-27.9 1.1-6.7z"/><path fill="#590011" d="M108.9 158.5l21.6-40.3-32.1 6.3-3.8 60.5z"/><path fill="#727144" d="M85 19l25-35H91z"/><path fill="#003645" d="M132 155v17l11-32z"/><path fill="#fffff7" d="M145.9 137.4l-8.8 55.3-1-.1 8.8-55.3z"/><circle r="1" fill="#ced6de" transform="matrix(6.8096 -43.437 84.64223 13.26932 234.6 0)"/><path fill="#9f0013" d="M110.8 113.7L68 118.2l-.8-8 42.8-4.4z"/><path fill="#526665" d="M111.2 157.1l-9.7 18.5 15.7-14.7-4.2-7.2z"/><ellipse cx="29" cy="138" fill="#0b0d0e" rx="4" ry="15"/><path fill="#c2b1a1" d="M33 143l14 13 1-47z"/><path fill="#58483d" d="M62 48L42 75l43-22z"/><path fill="#9c9684" d="M158 7l-21 21 30-4z"/><path fill="#151e18" d="M-11 114.7l-1.2-1.7L11 97.3l1.2 1.7z"/><path d="M39 135h5l-3 3z"/><path fill="#7a7a6f" d="M177 115L159 14l101 78z"/><path fill="#b6bbb3" d="M-2.6 183.1l57.1-26.4L8.6 185l8.6-78.7z"/><path fill="#50443c" d="M56 123l23 2-32-36z"/><path fill="#fffff8" d="M234 147h22v2h-22z"/><path fill="#69889f" d="M74 124h20v17H74z"/><path fill="#dee5ed" d="M127 14l-39-1 39-29z"/><path fill="#474740" d="M80.6 70.7l15-16.7-22 52.6 1.3-40z"/><path fill="#6f7577" d="M214 147l57 4-26 16z"/><ellipse cx="20" cy="134" fill="#cccaba" rx="3" ry="37"/><path fill="#b2bbc1" d="M216.8 155.2l-8.5 5.5 54.3 6.6-23.3 11.4z"/><path fill="#4f1c04" d="M42 118h5v6h-5z"/><path fill="#610014" d="M118.1 67.9l-3.8 101.7 10.3-58.6-23.8-30.9z"/><path fill="#b43445" d="M134 74l-32.9-19.6L131 82.2l13.8 35.8z"/><path fill="#aabbcb" d="M185 166h27v4h-27z"/><path fill="#747369" d="M193.9 59.4l-74.1 17.8 46.4-43.9 35 76.5z"/><path fill="#728594" d="M48.4 149.6L71 144l-2.1-2-11.6-18.8z"/><path fill="#e6eae7" d="M248.7 60l22.2 54.9.1-67.1-54.1-7.4z"/><circle r="1" fill="#a7afa6" transform="rotate(-58.8 105.7 45.6) scale(39.38312 3.46839)"/><path fill="#eefff5" d="M136 164h4v6h-4z"/><path fill="#dde2da" d="M41 91h7v23h-7z"/><circle r="1" fill="#ced6d8" transform="matrix(-1.21817 -.8509 58.938 -84.37625 70.2 20.9)"/><path fill="#40464a" d="M240 112h16v12h-16z"/><path fill="#736857" d="M12.2 90.8L3.1 42.1-16 54.4l33.7 31.1z"/><ellipse cx="122" cy="156" fill="#890016" rx="8" ry="24"/><ellipse cx="193" cy="122" fill="#424042" rx="52" ry="2"/><path fill="#6b695d" d="M132 62l8-52-37 11z"/><path fill="#504f4d" d="M154.9 16.6l20 32.9-14.8-5.7 4.4-4.1z"/><path fill="#171a17" d="M27 125h9v5h-9z"/><path fill="#edf1fa" d="M68 9L18-10l96-6z"/><path fill="#313140" d="M130.4 152.6l8.9-10.2 4 5.2L138 164z"/><path fill="#74889b" d="M148 124h99v16h-99z"/><path fill="#e3ebf5" d="M105-9l50-7 8 25z"/><ellipse cx="94" cy="117" fill="#6d0014" rx="26" ry="7"/></g></g></svg>