<svg xmlns="http://www.w3.org/2000/svg" viewBox="0 0 1800 1200"><defs/><filter id="a"><feGaussianBlur stdDeviation="12"/></filter><rect width="100%" height="100%" fill="#2e4b68"/><g filter="url(#a)"><g fill-opacity=".5" transform="translate(3.5 3.5) scale(7.03125)"><circle r="1" fill="#c2dbed" transform="rotate(91.7 44.5 101.8) scale(69.8323 254.99999)"/><circle r="1" fill="#825427" transform="matrix(.34024 -21.65839 168.55041 2.6478 116.2 127.2)"/><ellipse cx="201" cy="80" fill="#a1b5c0" rx="202" ry="32"/><circle r="1" fill="#3779bc" transform="matrix(224.96628 3.53405 -.38762 24.6749 98.3 16)"/><circle r="1" fill="#938170" transform="rotate(171.5 16.4 60.3) scale(86.79528 15.69427)"/><circle r="1" fill="#282624" transform="matrix(164.98186 -1.46235 .0873 9.8491 149.4 141)"/><circle r="1" fill="#719ec8" transform="matrix(186.84013 -13.31761 1.49888 21.02858 62 51)"/><circle r="1" fill="#81807b" transform="matrix(-43.07782 -17.29767 6.80806 -16.95467 20.5 120.3)"/><ellipse cx="184" cy="95" fill="#9ab7c5" rx="52" ry="21"/><ellipse cx="92" cy="110" fill="#806958" rx="51" ry="10"/><circle r="1" fill="#9da4a7" transform="rotate(-102.5 53.2 35.2) scale(15.95005 119.55218)"/><path fill="#1c1a16" d="M201 122h13v10h-13z"/><path fill="#6c7f8e" d="M230 49h26v21h-26z"/><path fill="#151513" d="M0 144h256v5H0z"/><path fill="#3e3e37" d="M39.8 134.4l44.9-2.3-34-12.7 3.9-5.9z"/><ellipse cx="54" cy="163" fill="#274053" rx="253" ry="15"/><circle r="1" fill="#4676a8" transform="matrix(244.14472 1.78946 -.101 13.7789 111.7 0)"/><path fill="#bb9c7c" d="M215 125h41v5h-41z"/><ellipse cx="157" cy="119" fill="#97836f" rx="49" ry="12"/><path fill="#5d5b53" d="M0 136h85v9H0z"/><path fill="#9c9688" d="M0 127h41v9H0z"/><path fill="#83a3bb" d="M271 109l-58-62-120-9z"/><path fill="#262623" d="M87.2 135.3l54.2 4.2 10.7-5-93.2-7.2z"/><circle cx="208" cy="137" r="9" fill="#625b58"/><circle r="1" fill="#608fbc" transform="rotate(173 18.7 20) scale(106.15655 12.31411)"/><ellipse cx="142" cy="96" fill="#9ebaca" rx="31" ry="9"/><path fill="#887767" d="M47 129l151-6L96 95z"/><ellipse cx="122" cy="153" fill="#314f6a" rx="69" ry="6"/><path fill="#8c8f8f" d="M31.2 93l-.3-7 53.9-3 .3 7z"/><circle r="1" fill="#756358" transform="matrix(-33.36241 9.69883 -1.41284 -4.85995 20.6 121)"/><ellipse cx="66" cy="141" fill="#84857d" rx="19" ry="2"/><ellipse cy="110" fill="#9fbdc7" rx="20" ry="4"/><ellipse cx="236" cy="104" fill="#9fafb2" rx="102" ry="7"/><path fill="#80a9c9" d="M173.2 63.1l-51.4 18.5 64.2 4.5 37-15.2z"/><path fill="#6a94ba" d="M192.7 66.3L188.8 55l44.5-15.3 3.9 11.3z"/><path fill="#201e1e" d="M52 127l2-8-15 11z"/><path fill="#8d765f" d="M271 113.8l-104.2 3.4 89.6 10.3 12.1-13.7z"/><path fill="#857465" d="M22.2 109.7l6.5 21 82.7-32.4-17-1.7z"/><path fill="#92a2b2" d="M165.7 46.1l35.1 20.7-52.8-7.3-44.3-19.3z"/><ellipse cx="30" cy="147" fill="#101414" rx="95" ry="2"/><path fill="#091216" d="M57 124l1-4 5 8z"/><path fill="#9a846d" d="M103 120h98v10h-98z"/><path fill="#292522" d="M170 131h22v16h-22z"/><path fill="#192d3c" d="M271 153.2l-31.4-1.3 29.4 10.4-67.4 22.7z"/><circle r="1" fill="#90b5ca" transform="rotate(11.9 -346.7 1144.5) scale(39.04796 9.59841)"/><path fill="#99a19f" d="M0 133h49v2H0z"/><circle r="1" fill="#b7bab9" transform="matrix(23.57651 -6.93895 .70918 2.4096 103.1 70.4)"/><path fill="#7da4c8" d="M-14.3 66.5l112-21.4 33.1 1.7-42.5 28.9z"/><path fill="#5e8cb5" d="M93 5l88 41 90-13z"/><path fill="#a7b4ba" d="M51 134h9v2h-9z"/><path fill="#a59f8f" d="M53 118h4v12h-4z"/><path fill="#2e2c2a" d="M83.9 129.4l44.8 6.7-84.7-3.4 46.4-7.7z"/><ellipse cx="255" cy="41" fill="#a7adad" rx="18" ry="4"/><path fill="#707e89" d="M27.2 108.5l-.2-6-5.8-2.5-35.9.3z"/><path fill="#464339" d="M38 137l-47 10 20-12z"/><path fill="#4d4d49" d="M99 127h23v2H99z"/><path fill="#2a2724" d="M211.1 139l-.2-5 28-1 .2 5z"/><path fill="#939691" d="M62.1 124.9l20.9-6 52.3-55-60 64z"/><path fill="#96b6c9" d="M45 93.5l95.8-5 .2 4-95.8 5z"/><path fill="#52738d" d="M183 150h73v2h-73z"/><path fill="#483e39" d="M214.5 147.4l43.1-1.2-6.6-7.4-40.5 1.2z"/><circle r="1" fill="#4977a8" transform="matrix(-4.2875 -15.40669 39.99672 -11.13064 11.2 5.7)"/><path fill="#999f9f" d="M-16.6 69.9L46.7 102l-4.1 8-63.3-32z"/><ellipse cx="175" cy="106" fill="#95a2aa" rx="25" ry="9"/><path fill="#9ea6a2" d="M214.9 106.9l51.6 4.4-24.4 4.7-19.2-6.1z"/><path fill="#949389" d="M9 137l-22 1 33-11z"/><path fill="#97826e" d="M241.3 127.6l2.4-6.6 15 5.4-2.4 6.6z"/><path fill="#36322e" d="M202 120l17 11-17-3z"/><path fill="#29221b" d="M234 145h22v5h-22z"/><ellipse cx="75" cy="109" fill="#70645c" rx="5" ry="12"/><path fill="#8c98a3" d="M232.9 66.6l-21.1 2.6 29.3-22.7L271 35.1z"/><path fill="#483933" d="M36 137h70v2H36z"/><ellipse cx="185" cy="131" fill="#554e47" rx="42" ry="2"/><path fill="#7b6d64" d="M162 113l-49 5-5-19z"/><circle r="1" fill="#4b7aa8" transform="matrix(-6.21674 17.80425 -40.2631 -14.05874 229.5 0)"/><path fill="#91acbf" d="M79.2 96.8L53.5 66.9l37.2-1.2-27.8 38.7z"/><path fill="#9c8974" d="M115 102l-22 19 11 5z"/><path fill="#774d3d" d="M112 140.3l18 .4v3l-18-.4z"/><path fill="#739ab7" d="M271 77.1l-36.8 9.5L271 67.1l-63.4 1.1z"/><circle cx="85" cy="118" r="3" fill="#c9a581"/><path fill="#222323" d="M19.6 144l59.8.5-95.4 7.4 31.2-9.7z"/><path fill="#574e44" d="M24 129h4v5h-4z"/><path fill="#7a98b2" d="M126.5 72.4l-11.6 1.7-5 7.9 43.9-9.9z"/><ellipse cx="15" cy="136" fill="#434638" rx="6" ry="2"/><path fill="#233c53" d="M0 160h86v9H0z"/><path fill="#3f5c79" d="M22.2 177l-.3-1 52-15 .2 1z"/><path fill="#8d897a" d="M56 129.5v1H38v-1z"/><ellipse cx="254" cy="110" fill="#93999b" rx="104" ry="2"/><path fill="#6d7f8d" d="M271 66l-31-5 30-20z"/><path fill="#302d2c" d="M114.9 144.2L44 146l44-2.7 9.3-18.7z"/><ellipse cx="242" cy="116" fill="#7f6d5b" rx="62" ry="2"/><path fill="#2f4a63" d="M58.2 147.7l106.2 3.3 31.3-4-12.2 9.8z"/><path fill="#59473c" d="M102.3 142.9l52.8-.2 8.4-12.6 9.7 7.2z"/><ellipse cx="127" cy="13" fill="#5484b4" rx="104" ry="8"/><path fill="#8f918c" d="M129 129h14v2h-14z"/><ellipse cx="93" cy="126" fill="#667477" rx="13" ry="3"/><path fill="#122434" d="M35.1 185h79l-1-17.5 16.8.3z"/><path fill="#182f40" d="M151 162h40v2h-40z"/><path fill="#75838d" d="M41 100h16v4H41z"/><ellipse cx="70" cy="52" fill="#739bc1" rx="67" ry="8"/></g></g></svg>