<svg xmlns="http://www.w3.org/2000/svg" viewBox="0 0 1800 1200"><defs/><filter id="a"><feGaussianBlur stdDeviation="12"/></filter><rect width="100%" height="100%" fill="#503c44"/><g filter="url(#a)"><g fill-opacity=".5" transform="translate(3.5 3.5) scale(7.03125)"><ellipse cx="85" cy="30" fill="#fc9767" rx="102" ry="79"/><circle r="1" fill="#ffb26e" transform="matrix(-37.98691 -2.4107 1.55213 -24.45787 84.7 78.6)"/><circle r="1" fill="#0b1f2b" transform="matrix(-2.54687 -42.8687 254.55118 -15.12313 155.6 155.6)"/><circle r="1" fill="#79534b" transform="rotate(-142.7 106.2 -26.2) scale(49.62336 103.08653)"/><circle r="1" fill="#774a48" transform="matrix(24.95864 -.54066 1.454 67.12128 13.2 42)"/><ellipse cx="85" cy="93" fill="#ffffe2" rx="11" ry="9"/><circle r="1" fill="#d7ac84" transform="matrix(-.4718 5.73869 -39.96977 -3.28611 102.7 8.2)"/><circle r="1" fill="#7a554f" transform="matrix(18.87875 10.16516 -39.38539 73.1466 193.4 22.7)"/><path fill="#ffa861" d="M106.4 69.4l1.2 23-44 2.2-1.2-23z"/><path fill="#ac594a" d="M61 111L-1 90l55-73z"/><path fill="#5a4147" d="M25 126l125 3V90z"/><circle r="1" fill="#22242d" transform="matrix(-30.19768 -44.23756 53.8454 -36.75622 255 145)"/><circle r="1" fill="#83685c" transform="matrix(-60.71941 -18.09561 3.81617 -12.80507 166.9 7.3)"/><path fill="#c65e49" d="M105 60h39v42h-39z"/><circle cx="86" cy="96" r="6" fill="#fff"/><circle r="1" fill="#775551" transform="matrix(-38.83934 -7.53111 3.83812 -19.79389 17.9 25.4)"/><path fill="#db7452" d="M44.8 53.8l24.8 2.6-4.4 41.8-24.8-2.6z"/><circle r="1" fill="#814746" transform="matrix(-.71868 4.07047 -42.39584 -7.48533 53 104)"/><circle r="1" fill="#33343e" transform="matrix(-.70575 9.40676 -123.68146 -9.27935 50.3 123.2)"/><path fill="#cc7857" d="M5 62l125 9-34-29z"/><path fill="#7f4b48" d="M130 92.6l63.5-84.5-14.8 84-110.4 30.2z"/><circle r="1" fill="#dda67b" transform="matrix(-15.73533 .9073 -.27344 -4.74236 109 12.9)"/><path fill="#977a6a" d="M108.2 4.5l48-20.5L33 12.8-16-6.1z"/><ellipse cx="201" cy="113" fill="#3a353d" rx="62" ry="15"/><path fill="#fa9760" d="M64 58l51 13-9 28z"/><ellipse cx="238" cy="68" fill="#543d3c" rx="29" ry="34"/><ellipse cx="180" fill="#635657" rx="72" ry="6"/><ellipse cx="93" cy="31" fill="#9e6254" rx="66" ry="16"/><circle r="1" fill="#824e48" transform="matrix(-16.2012 13.9845 -19.94212 -23.10317 0 71.4)"/><path fill="#ffba6c" d="M100 97.6l-4.9 3.4L78 76.4l5-3.4z"/><ellipse cx="184" cy="17" fill="#a5715b" rx="24" ry="4"/><path fill="#614947" d="M171 27h60v24h-60z"/><path fill="#1a1f28" d="M136 149h120v8H136z"/><path fill="#875f56" d="M45 23L-3 0l91 16z"/><path fill="#ffa966" d="M106.4 84.9l-48.9 9.9 20.8 6.7-9-21.8z"/><circle r="1" fill="#674545" transform="rotate(-83 82.3 28.8) scale(4.79675 34.4714)"/><circle cx="83" cy="96" r="5" fill="#fffff7"/><circle r="1" fill="#c99975" transform="matrix(-.12236 2.91945 -16.4785 -.69065 32.5 0)"/><circle r="1" fill="#99574c" transform="rotate(-28.1 205.2 -258.3) scale(11.93614 28.53508)"/><path fill="#3e3943" d="M60 113h97v13H60z"/><path fill="#d76548" d="M68.3 108.9L54.8 93.2l39 12.8-27.6-1.1z"/><path fill="#514947" d="M217.7 1.6l53.3 45-1.8-49.9 1.8-5.8z"/><path fill="#b35748" d="M128.3 98l20.2-15.8-51 18.1L71.9 115z"/><path fill="#ac624f" d="M140.7 69.2L73.2 55.4l50.1.9 17.6-4.8z"/><path fill="#6b504d" d="M-16-4.8L8.7 50.5-16 24.6l47.3-5.3z"/><path fill="#3b3942" d="M8.5 145.5l34.2-9.1 32.6 12.3-30.4 1.8z"/><circle r="1" fill="#5e3f41" transform="matrix(-3.00922 -8.35843 50.57148 -18.20685 190 92.3)"/><path fill="#996252" d="M-16 56.8l69.2 2.3L60-16 21.3 71.5z"/><path fill="#0d1119" d="M30 164l14-5-28 1z"/><path fill="#ffe496" d="M75.9 91.7l24.4-3.8-20.7 9.8-1.8 3.3z"/><path fill="#b27b61" d="M87 13v14l53-10z"/><path fill="#df9565" d="M41 58h46v4H41z"/><path fill="#f37e51" d="M95.2 102.4l-2-5.6 19.6-7.2 2 5.6z"/><path fill="#b76851" d="M55.2 63.5l-5 20.3-21.4-5.3 5-20.3z"/><path fill="#7f4e4a" d="M0 35h66v7H0z"/><path fill="#f08656" d="M56 76h16v21H56z"/><ellipse cx="87" cy="110" fill="#804d4a" rx="29" ry="3"/><circle r="1" fill="#9c7362" transform="rotate(-83.4 65.3 -68.4) scale(1.86713 50.34165)"/><ellipse cx="150" cy="39" fill="#b17459" rx="15" ry="3"/><path fill="#af6f58" d="M93 21l-58 8 46 6z"/><path fill="#1d222a" d="M215 131h41v28h-41z"/><path fill="#66534f" d="M230.7.5l17.9 34.2L152-16l21 19.5z"/><path fill="#906256" d="M158 35l-44-3 44-26z"/><path fill="#7a564e" d="M179.5 32.6l75.7-12.8-102.2 4 22.9 48.6z"/><circle r="1" fill="#262831" transform="matrix(-.81903 7.33361 -37.20994 -4.15567 0 132.5)"/><path fill="#db8158" d="M111.9 67.9L83.4 55.6l24.4 31.3 26.4-20.5z"/><circle r="1" fill="#44343b" transform="matrix(41.88008 -18.03054 2.8267 6.56564 230.7 95.8)"/><path fill="#c79573" d="M57 5h74v3H57z"/><ellipse cx="100" cy="169" fill="#31313b" rx="52" ry="24"/><path fill="#ffb873" d="M103.5 95.6l-30.7-8.1 2.3-6 21.3.3z"/><path fill="#844c48" d="M-13.1 91.4L26 97.5l30.7 10.3L-16 57.7z"/><path fill="#816762" d="M55 3l29-3-36-16z"/><path fill="#eea06c" d="M71 62h28v3H71z"/><path fill="#8e574d" d="M178 52l-61 5 33 8z"/><path fill="#6e4646" d="M130.1 109.4l-56.5 6.7L134.9 98l85.7-22.2z"/><path fill="#35343e" d="M121 113h39v27h-39z"/><circle cx="87" cy="98" r="3" fill="#fff"/><path fill="#fff" d="M80 98h14v3H80z"/><circle r="1" fill="#664745" transform="matrix(-.64963 7.26746 -31.03693 -2.77436 217.4 59.8)"/><circle r="1" fill="#9f5e4f" transform="matrix(-50.42368 5.92342 -.59921 -5.10085 55.7 42.7)"/><ellipse cy="106" fill="#4a3a3f" rx="25" ry="6"/><path fill="#b16953" d="M75.7 58l3.2-16 41.4 5.5H13.7z"/><path fill="#c4674e" d="M140.7 82.1L112 78.2l25.9-13.6-32.9 38.7z"/><path fill="#a77660" d="M56 8h32v6H56z"/><path fill="#af5748" d="M27 92l25 6-15-22z"/><path fill="#151820" d="M40 150h19v3H40z"/><path fill="#c67556" d="M96.6 57.1l-35.5.2 40.7-6.8 31.9 5.4z"/><path fill="#252933" d="M271 111l-60 6 3 36z"/><ellipse cx="70" cy="121" fill="#443b45" rx="38" ry="8"/><path fill="#2f323c" d="M153 136h39v15h-39z"/><ellipse cx="58" cy="169" fill="#3a3a42" rx="44" ry="3"/><ellipse cx="120" cy="8" fill="#d09a74" rx="20" ry="2"/><path fill="#794b48" d="M201.9 63l-32.3-6.2-25.3 42 41.4-15.5z"/><path fill="#fff" d="M91.8 102l-11.9-2 .3-2 11.9 2z"/><circle r="1" fill="#fd9e5f" transform="matrix(2.058 2.66275 -3.70255 2.86165 96.7 97.9)"/><path fill="#35353e" d="M16.9 131.7l39.4-13-60.4-2.7 3.1 13.8z"/><path fill="#2d3039" d="M201.6 157.6l12 3 2.1 13.8-112.9-21.1z"/><path fill="#764e4a" d="M21 52.4l-37-3.9 2.5 9 45.6-3.1z"/><path fill="#ffac68" d="M81 78l-8 21-5-14z"/><path fill="#b76b52" d="M39 62h25v7H39z"/></g></g></svg>