<svg xmlns="http://www.w3.org/2000/svg" viewBox="0 0 3024 4032"><defs/><filter id="a"><feGaussianBlur stdDeviation="12"/></filter><rect width="100%" height="100%" fill="#2d4b54"/><g filter="url(#a)"><g fill-opacity=".5" transform="translate(7.9 7.9) scale(15.75)"><circle r="1" fill="#fbf7f1" transform="matrix(6.82436 70.74335 -190.11745 18.33995 79 39.3)"/><ellipse cx="3" cy="104" fill="#fff" rx="6" ry="191"/><ellipse cx="115" cy="97" fill="#5f645b" rx="107" ry="43"/><circle r="1" fill="#001201" transform="matrix(19.38504 -77.17506 33.23352 8.34768 71.8 234.1)"/><path fill="#fffffc" d="M-2.8-73.5l45.5 7.2-40 251.8-45.4-7.2z"/><circle r="1" fill="#f9aa81" transform="matrix(7.23697 22.53486 -10.94484 3.51489 116.5 205.7)"/><circle r="1" fill="#fff" transform="matrix(-4.63317 .05356 -1.89137 -163.60471 4.1 239.7)"/><path fill="#fbae91" d="M95 43h29v84H95z"/><circle r="1" fill="#002219" transform="rotate(-7.9 1681.6 -1030.4) scale(27.33006 98.02927)"/><path fill="#fef5e5" d="M-16 268.5l58.2-51.9-4.6-12.8-16 60z"/><circle r="1" fill="#b9ccd5" transform="matrix(-151.02857 10.46365 -2.19336 -31.65817 82.5 25.3)"/><path fill="#365451" d="M9 72h80v78H9z"/><path fill="#6b7a80" d="M108 18L13 52l171-14z"/><circle r="1" fill="#618e9b" transform="matrix(-34.54715 -34.38102 19.39602 -19.48974 176.7 86.6)"/><path fill="#fff" d="M89 119l.8.4L19 247.1l-.8-.5z"/><path fill="#48160f" d="M-34 26.2L53.4 58 52 61.8-35.4 30z"/><circle r="1" fill="#001006" transform="matrix(18.1727 -32.07884 14.74444 8.35274 121.1 253.5)"/><path fill="#fff" d="M18.9 56.9l111.7-15.7-46.2 19.2-38.8-6.2z"/><circle r="1" fill="#0d2515" transform="rotate(-85.7 115.4 86) scale(44.3752 13.19427)"/><path fill="#f5c8a7" d="M112 145h4v59h-4z"/><path fill="#2d595d" d="M123 85l71 107-42-126z"/><circle r="1" fill="#c98770" transform="matrix(-16.58538 -19.4075 12.03998 -10.2892 106.6 108.9)"/><ellipse cx="2" cy="185" fill="#fff" rx="5" ry="142"/><path fill="#eea689" d="M120.8 225.3l12.2-17.1 3.8-11.7-33 8.8z"/><path fill="#fdfdf4" d="M-11 32l35 12 26-60z"/><path fill="#605e54" d="M87.4 203.4l20.7-18.9 31.1 13.1-58 12.8z"/><path fill="#142c1f" d="M53.4 140.2l-20.3 19.4-7.9 71.6 39.3-70.1z"/><path fill="#fff" d="M8 183.8l-24-71.1 35.3-18.6L6.4 57.4z"/><path fill="#fffffd" d="M131.6 52.6l23.3-5.8-28.9-4-87.3 12z"/><path fill="#172120" d="M106.7 113.3l-14.5 14.4-11.1-41-4.9 31.8z"/><path fill="#021d1a" d="M159 271L43 207l-18 37z"/><path fill="#e4957f" d="M100 110h35v11h-35z"/><path fill="#1c1713" d="M55 50l-17-2 10-7z"/><path fill="#9b7e71" d="M122.4 126.5l-16.1-91.6 34.4-.1L73 67.1z"/><path fill="#0b281f" d="M118 136h14v63h-14z"/><circle cx="56" cy="87" r="31" fill="#547076"/><path fill="#fff" d="M0 243h13v13H0z"/><path fill="#25403b" d="M8.2 216.1l.7-112.4 52.4 22.1-13.9 9.6z"/><path fill="#fff" d="M28 58h21v3H28z"/><path fill="#3c6153" d="M14 63l1 25 51 11z"/><path fill="#a4c0cc" d="M-7-16l71 58L207 0z"/><path fill="#675259" d="M59.4 60.1l51.8-6L92.4 66l2.4-4.2z"/><path fill="#899b9d" d="M172.1 94.3l34.9 32.1-56.1-31.6 53.4 5.7z"/><path fill="#2e5357" d="M120.5 113.7l23.4-6.5 1.9-28.6L124 99.4z"/><path fill="#cdc9bd" d="M115 110h3v43h-3z"/><path fill="#fffff9" d="M27.2 62.6l1.5-9.3L-6.1 44l-9.9 6.5z"/><path fill="#494e47" d="M87.4 105l20.2-12.8 3.7-11.7 8 12.2z"/><path fill="#27423c" d="M59.5 175.6l51.2 16.5 4.2-43.5-21.2-37.3z"/><circle r="1" fill="#87a4ae" transform="matrix(13.94389 -8.92946 23.29756 36.38054 170.8 50.7)"/><path fill="#7f9399" d="M44.5 110.2L16.9 103l31.4-8.2 13.2 19.1z"/><path fill="#a29c8c" d="M108 191.6l-13.4 4.9-3.3 2.9 2.1 7.5z"/><path fill="#161c1d" d="M137 35l5 7 8-1z"/><path fill="#bed5e2" d="M220.9 6.7l-18 30L147 3.3l18-30z"/><ellipse cx="115" cy="24" fill="#86a3ae" rx="36" ry="14"/><path fill="#f4fdfa" d="M25.4 264.4L-16 220.5 12.1 271l13.4-31.4z"/><path fill="#204747" d="M115.5 148l13.5 6.7 77.8 69.2-64.7-115.5z"/><circle cx="161" cy="255" r="48" fill="#0c2d2c"/><path fill="#17312d" d="M20.7 241.7l-12.2 1.6-1.2-20.9 52-86z"/><path fill="#001b1b" d="M110 200l-9 3 10-19z"/><circle r="1" fill="#7a786c" transform="matrix(-.74342 .66883 -16.32285 -18.1432 0 5.6)"/><path fill="#f6b590" d="M113.6 166.4l4.7 26.5-4 .7-4.6-26.5z"/><path fill="#c1c8a9" d="M11 61h18v14H11z"/><path fill="#e1a591" d="M93 103h26v11H93z"/><path fill="#ffc59b" d="M71.5 37v12h-7V37z"/><path fill="#f6e9db" d="M25.8 230.3l7.8-14 2.6 1.4-7.8 14z"/><path fill="#0a3c3d" d="M136.5 109.8l57 21.1-15.8 1 5.6 6.2z"/><ellipse cx="3" cy="199" fill="#fff" rx="5" ry="155"/><circle r="1" fill="#172420" transform="rotate(-17.9 799 68.5) scale(3.55097 3.26001)"/><ellipse cx="75" cy="52" fill="#fff" rx="28" ry="4"/><path fill="#dc8e6a" d="M106 70L72 58l36 30z"/><path fill="#577171" d="M94 124l16 26-9 11z"/><path fill="#678c86" d="M192.6 188.2l-10.4-3.6 7.2-20.8 10.4 3.6z"/><path fill="#efeeeb" d="M120 39h8v19h-8z"/><path fill="#0a2521" d="M26 240l1 29 81-55z"/><path fill="#789ba5" d="M111.7 69.5l2.1-8.5 55.7-20.6-50.7 36.8z"/><path fill="#4f413f" d="M53 45L29 56l3-11z"/><circle r="1" fill="#c6dadf" transform="matrix(-31.18641 3.28763 -1.56056 -14.80345 52.7 0)"/><circle cx="19" cy="4" r="3" fill="#454443"/><path fill="#f3e2d0" d="M82.7 130.8l-52.5 98.9-1-.5 52.6-98.9z"/><path fill="#262b2a" d="M92.5 102.7l5.7-.6-27.9 3.1 12.1 16.9z"/><circle r="1" fill="#51737a" transform="matrix(-27.05841 -8.88716 2.3358 -7.11173 154.5 80.8)"/><circle r="1" fill="#dccec0" transform="rotate(-174.8 62 43.1) scale(1 64.16661)"/><circle r="1" fill="#efa882" transform="rotate(-30.6 195.5 -171.7) scale(2.28161 25.98749)"/><path fill="#d99d84" d="M80.7 103.5l41.4-57.2-18.6 21.2-6 29.5z"/><circle cx="94" cy="108" r="5" fill="#ffcfbd"/><path fill="#454a4c" d="M30 47h35v3H30z"/><path fill="#685252" d="M116.4 39L31.7 54l-.1-1 84.7-15z"/><path fill="#282f2a" d="M111.5 210.3l-2.4 44.7 12.7-6.9 1 6.8z"/><path fill="#7b8f8c" d="M147 120l1.4-1.5L219 182l-1.4 1.5z"/><path fill="#f78d80" d="M128 112h9v8h-9z"/><path fill="#0d2926" d="M80 145l-56 97 70 29z"/><path fill="#335356" d="M69 115l28-40-15 2z"/><path fill="#6d7e81" d="M76.7 123.3l7.7 13.7 4.3-10.7L42.8 141z"/><path fill="#fff" d="M136 44h12v7h-12z"/><path fill="#778e93" d="M82 81H52V71h30z"/><circle r="1" fill="#d6d0c7" transform="matrix(-21.54074 40.91252 -.88485 -.46588 42.3 204)"/><path fill="#897b75" d="M46 105h29v12H46z"/><ellipse cx="81" cy="60" fill="#624346" rx="25" ry="2"/><path fill="#fffffe" d="M66.9 58.4L99.5 47l31.3 2.4-96.9 2.3z"/><path fill="#2e4e45" d="M13.4 78.3l12.9-7.7 10.3 17.1-12.9 7.7z"/></g></g></svg>