<svg xmlns="http://www.w3.org/2000/svg" viewBox="0 0 1800 1012"><defs/><filter id="a"><feGaussianBlur stdDeviation="12"/></filter><rect width="100%" height="100%" fill="#373c5c"/><g filter="url(#a)"><g fill-opacity=".5" transform="translate(3.5 3.5) scale(7.03125)"><ellipse cx="54" cy="62" fill="#f48e60" rx="127" ry="57"/><circle r="1" transform="matrix(-158.4799 34.5501 -8.18894 -37.56233 178.9 132)"/><circle r="1" transform="matrix(2.59857 30.31106 -102.5372 8.79054 211.1 119.6)"/><path fill="#7b505e" d="M-12-16L175 96l96-50z"/><ellipse cx="26" cy="132" fill="#280d00" rx="143" ry="15"/><ellipse cx="36" cy="106" fill="#f1ac63" rx="95" ry="10"/><path d="M135 93h121v40H135z"/><ellipse cx="66" cy="12" fill="#6f5770" rx="104" ry="20"/><circle r="1" fill="#8b5046" transform="matrix(-3.37502 -20.40515 62.02026 -10.25816 185 72.4)"/><ellipse cx="59" cy="126" rx="208" ry="6"/><circle r="1" fill="#df9a5f" transform="matrix(36.03592 28.52396 -10.77831 13.61685 7 90.6)"/><circle r="1" fill="#b6755c" transform="rotate(-46.4 122.1 -36.2) scale(19.05736 59.12574)"/><path fill="#3c2f39" d="M92 87h70v12H92z"/><ellipse cx="42" cy="139" fill="#673f2c" rx="95" ry="8"/><circle cx="237" cy="61" r="28" fill="#473744"/><path fill="#242435" d="M60.2 87.3l4.2-2.4-23.8 6.7 25.9 6.1z"/><circle r="1" fill="#070500" transform="rotate(-170 6 61.3) scale(22.51613 10.38896)"/><circle r="1" fill="#645a72" transform="rotate(147.4 -1 18) scale(18.57409 32.69657)"/><circle r="1" fill="#464a6a" transform="matrix(-.81444 -27.1952 28.05538 -.8402 166.2 23.7)"/><path fill="#ad6d62" d="M117 16l40 63-120 8z"/><circle r="1" fill="#a87a5b" transform="matrix(-.47502 -5.39706 39.653 -3.49002 85.7 113.3)"/><circle r="1" fill="#625168" transform="matrix(-16.84195 -6.03029 20.58337 -57.48712 82.9 6.4)"/><path fill="#cb775e" d="M50 26L24 15l22 75z"/><circle r="1" fill="#1c314b" transform="matrix(17.73305 -11.44679 23.94123 37.0891 239.4 11)"/><path fill="#b96d53" d="M66.6 91L182 66.4l-58.4 29.3-30.8-34.5z"/><path d="M101 119l170 3-63-37z"/><path fill="#aa5b47" d="M167 95l44-13-50-6z"/><circle r="1" fill="#946262" transform="rotate(-123.7 17.9 -8.3) scale(84.30761 16.35321)"/><path fill="#c17753" d="M87.9 77l-1.7 11.8-98-13.7 1.6-12z"/><path fill="#383142" d="M99 83h17v15H99z"/><ellipse cy="107" fill="#e3b47f" rx="40" ry="7"/><circle r="1" fill="#785562" transform="matrix(.45716 -16.3667 42.28264 1.18106 161.8 51.6)"/><ellipse cx="30" cy="126" rx="140" ry="5"/><path fill="#c67956" d="M119 114L34.4 46.2l34.2 50.5 63.5 6.1z"/><circle cx="218" cy="74" r="15" fill="#6c474c"/><path fill="#5b4240" d="M27 82.5l41.5 11.2-1.5 5.8-41.5-11.2z"/><circle r="1" fill="#8a6471" transform="matrix(34.96764 -32.26721 7.04255 7.63193 95.4 37.7)"/><path fill="#554a69" d="M70.7 22.2L63.3-16h132.8L74.4 29z"/><ellipse cx="78" cy="117" fill="#765043" rx="23" ry="3"/><path fill="#241d1b" d="M96 133l106-4-71 29z"/><path fill="#030502" d="M143 97h113v38H143z"/><path fill="#af6f52" d="M110 118.1L89.7 96.9l51.3 4.2-24.4 10z"/><circle r="1" fill="#2a4367" transform="rotate(7.7 37 1462.8) scale(33.87495 14.24801)"/><circle r="1" fill="#3d3f5a" transform="matrix(-33.95867 -11.53004 3.62677 -10.6817 225.2 35.3)"/><path fill="#a45d51" d="M171 90l-28-35 55 36z"/><path fill="#7b5449" d="M37 113h6v10h-6z"/><path d="M-.4 127.3L3.9 114l8.5 2.7L8.1 130z"/><circle r="1" fill="#4f353f" transform="rotate(-163.5 129.1 15.1) scale(13.24477 19.35775)"/><path fill="#63484d" d="M140 89l21-10 2 17z"/><path fill="#d88e5b" d="M-12 93h65l-7 19z"/><circle cx="68" cy="118" r="4" fill="#6e4a45"/><ellipse cx="176" cy="32" fill="#524660" rx="31" ry="12"/><path fill="#bf6d53" d="M145 78l-4 5 15 11z"/><path d="M262 88.2l.9 16-69 3.6-.8-16z"/><path fill="#633e2d" d="M1 131h16v4H1z"/><path fill="#84646f" d="M34 40L23 71 9-14z"/><path fill="#333046" d="M128 89h20v7h-20z"/><circle r="1" fill="#b88664" transform="rotate(-6.9 963.6 -745) scale(23.07415 6.08366)"/><path fill="#b66e50" d="M-16 68l40 20 17-17z"/><path fill="#ba6d53" d="M116.5 87.5l14.4 4.2-1.4 4.8-14.4-4.2z"/><path fill="#614b63" d="M101.2 6l134.5 49.8L208.6 67l-17.5-15.1z"/><path fill="#8a5c61" d="M120 73l54-5-58-53z"/><path fill="#5e5067" d="M9.8 22L23.6 6.8 8-16-6.8 38.1z"/><path fill="#7f5344" d="M35 115l2 7 17-5z"/><ellipse cx="35" cy="83" fill="#403846" rx="6" ry="2"/><path fill="#cb7a5e" d="M34 60l21 13-20-53z"/><circle r="1" fill="#050400" transform="matrix(21.5596 -8.98105 3.60856 8.66258 144.7 109.7)"/><circle cx="5" cy="121" r="8" fill="#050602"/><path fill="#3e3242" d="M55.5 87.6l7.7 1.2 4.8 9.1-16.1-5.3z"/><path fill="#a86454" d="M107 46L88 71l38 18z"/><circle r="1" fill="#71536a" transform="matrix(-8.41906 -22.75967 10.43648 -3.86057 133.5 22.3)"/><path fill="#000504" d="M73 120h18v13H73z"/><path fill="#57352b" d="M9 133h94v6H9z"/><path fill="#be7c5d" d="M105.7 80.1l-59 28.1 43.2 10.4-47.2-51.2z"/><path fill="#5a3e46" d="M183.5 69.6l-4.4 14 12.4-.8-1.3-12.1z"/><path fill="#b98d64" d="M13 112h47v5H13z"/><path fill="#0f0d09" d="M270 138l-104-14 31 34z"/><path fill="#060705" d="M78.4 117.2l2.9 18.3-29.3-9.9 59.3 7.5z"/><path fill="#ca855b" d="M22.4 95.6l56.8 15.8L-16 95.6l51.9-20.1z"/><path fill="#4d383c" d="M108 94h16v6h-16z"/><path fill="#9b6354" d="M57 73l-68-23 8 21z"/><path fill="#624549" d="M151 88h19v8h-19z"/><ellipse cx="11" cy="108" fill="#ddad7b" rx="40" ry="4"/><path fill="#1d2e45" d="M268-16l-4 58-34-48z"/><path fill="#624146" d="M246 80.7l-30.9 8.2-3.1-11.6 30.9-8.2z"/><path fill="#99696c" d="M128.2 50.3l-8.4-25-37.7 17.1-13.6 22.9z"/><circle r="1" fill="#75525d" transform="matrix(12.6952 39.5409 -5.19564 1.66814 58.6 4.2)"/><path fill="#030503" d="M197 88h21v32h-21z"/><path fill="#a16b53" d="M59 98L41 85l18 28z"/><path fill="#8b524f" d="M190.9 55.9l15.9 25.4-7.7 4.8-15.9-25.4z"/><path fill="#cd8257" d="M67.5 90.3l2-2.6 18.6-.7-17 23.6z"/><path fill="#040401" d="M74.7 125.5l61.9-14.5-17.7 1.4-16.1 19.1z"/><path fill="#3f2825" d="M95 133h34v6H95z"/><path fill="#bb7353" d="M134.1 105l-3.6-4.8-5.7-2.1-15.2 17.3z"/><circle r="1" fill="#4f3d48" transform="matrix(3.81818 .33852 -.39056 4.40517 157.6 85.3)"/><path fill="#c0855e" d="M91 118l1-17-56-5z"/><ellipse cx="121" cy="100" fill="#9f604b" rx="19" ry="2"/><path fill="#744f48" d="M63 114h11v7H63z"/><path fill="#040503" d="M154 96h27v31h-27z"/><path fill="#a5635a" d="M52.5 18.5l7.5 6.7-12.8 34.5-8-34.2z"/></g></g></svg>