<svg xmlns="http://www.w3.org/2000/svg" viewBox="0 0 4752 3168"><defs/><filter id="a"><feGaussianBlur stdDeviation="12"/></filter><rect width="100%" height="100%" fill="#2f3f56"/><g filter="url(#a)"><g fill-opacity=".5" transform="translate(9.3 9.3) scale(18.5625)"><circle cx="173" cy="9" r="192" fill="#e1dfc6"/><circle r="1" fill="#091f41" transform="matrix(23.89557 79.56052 -44.38313 13.33023 110.4 107.1)"/><circle r="1" fill="#fff" transform="matrix(60.14869 16.11331 -9.23495 34.47275 198.6 43.8)"/><circle r="1" fill="#b4c1d4" transform="matrix(-37.5836 -35.17011 33.69073 -36.0027 208 121.1)"/><ellipse cx="4" cy="6" fill="#dacf6e" rx="52" ry="79"/><circle r="1" fill="#334154" transform="matrix(10.32747 -15.75943 32.93633 21.58384 22.5 112.8)"/><circle r="1" fill="#2a70b1" transform="matrix(48.84034 10.02548 -4.39336 21.4028 126.8 65.4)"/><circle cx="116" r="40" fill="#d9c566"/><circle r="1" fill="#fdffff" transform="matrix(-28.35026 23.21973 -12.35667 -15.08694 181 25)"/><path fill="#4b3d35" d="M164.1 96.7l-19 89L68 169.3l19-89z"/><path fill="#69552a" d="M211 51l40-67-45 39z"/><circle cx="76" cy="47" r="31" fill="#445f8b"/><path fill="#d2dce3" d="M228 16.3L251-3l31 36.7L259 53z"/><ellipse cx="178" cy="105" fill="#fff" rx="6" ry="46"/><circle r="1" fill="#dac2b3" transform="rotate(-55 76.6 16.6) scale(11.84656 45.84202)"/><circle r="1" fill="#574437" transform="matrix(9.88135 -14.57317 16.82905 11.41096 166.1 168)"/><path fill="#7d6e4c" d="M27.4 71L18 43.6 60.6 29 70 56.4z"/><path fill="#d2cab9" d="M7.6 93.3l-23.6 7.6 77.7 9.6-30.7-7.9z"/><path fill="#565b62" d="M260 169.3l-77.7-47.4 12.1 2.2 73.9 32.6z"/><path fill="#0c0000" d="M27 145.6l9.8 20.8-29.9 14-9.7-20.8z"/><circle r="1" fill="#787579" transform="matrix(-23.96896 -7.74176 9.58674 -29.6811 62 145)"/><path fill="#c0bdb6" d="M150 113h25v36h-25z"/><circle r="1" fill="#efeeef" transform="matrix(-38.04579 -18.1979 4.19123 -8.76248 160.3 42.8)"/><path fill="#b85c3f" d="M91.2 29l3.3-7.3L178.8 61l-3.3 7.3z"/><circle r="1" fill="#274f79" transform="rotate(-115.4 44.2 63.1) scale(23.96528 32.57789)"/><path fill="#813e2f" d="M65 9l36 15-52 8z"/><path fill="#d1836d" d="M141.9 149.6l33.6 35.4-61.4-55.5-8.1-14.6z"/><circle r="1" fill="#4976b0" transform="rotate(9.2 -330.2 444.7) scale(12.96227 37.4462)"/><path fill="#d3dfee" d="M287.7 163.9l-89.3-38 5.9-13.8 89.3 38z"/><path fill="#2d699d" d="M153 58l21 49L63 56z"/><path fill="#0c1016" d="M90 133h28v22H90z"/><path fill="#777e86" d="M188 93l83 1V59z"/><path fill="#fff" d="M-7.5 55.6l1-18 16 .8-1 18z"/><path fill="#78767c" d="M135 162l-50 23-49-33z"/><path fill="#263549" d="M48.1 125.9L33.4 146 6 126.1 20.6 106z"/><path fill="#e2ebea" d="M189.1 10.9l9.9 47.5-18.1 38.9L166.5 78z"/><circle r="1" fill="#272f3d" transform="matrix(-6.73736 12.66156 -25.94112 -13.80356 108.5 96.6)"/><path fill="#b1bdc6" d="M6 140l-16-21 16 8z"/><path fill="#53463f" d="M12 91l31-2-5 22z"/><ellipse cx="42" cy="3" fill="#cad384" rx="97" ry="8"/><path fill="#707577" d="M185 87h9v52h-9z"/><path fill="#8b9449" d="M134 27l40-28-26-15z"/><path fill="#899344" d="M-4.7 34.7L-16 5.3l27.2 10.1 38.5 8.2z"/><path fill="#e1e6e6" d="M233.6 71.6L271 33.7l-59.8 27.6-19.7 25.1z"/><path fill="#908b70" d="M192.4 85.6l38.5-62.5-37.6 23.5 16.7 2.6z"/><path fill="#b29768" d="M35 101h26v18H35z"/><ellipse cx="28" cy="79" fill="#cbbcaa" rx="27" ry="11"/><path fill="#4c5458" d="M171.6 107.2l-20.3 12.7-7-11L164.8 96z"/><path fill="#584b2e" d="M221 33l21-49-17 2z"/><path fill="#6a5e55" d="M147 132h21v7h-21z"/><path fill="#e5e9ec" d="M164 116l11-9 1 41z"/><path fill="#296ea7" d="M76 49l2-22 68 25z"/><path fill="#c7be67" d="M80.7 26.8l48.2 18.4-45.7-20.7L53 15.2z"/><path fill="#cbcbc9" d="M200.6 59.4l8.8-5.6 12.8-34.6-4.2 1.5z"/><path fill="#858d99" d="M-3.4 151.1l39-10.3 20.1 23.3-5.3-34.2z"/><path fill="#664935" d="M68-12l-1 37-22 32z"/><circle r="1" fill="#737f91" transform="matrix(-19.35655 -10.65337 4.80945 -8.7385 234.2 157.6)"/><path fill="#a3a83c" d="M100.7 3.2l-.5.2 20.3 1.7 6.5 30.2z"/><circle r="1" fill="#d9d7c8" transform="rotate(115.5 -28.3 50.4) scale(4.63052 8.87196)"/><path fill="#e4ecf0" d="M133.7 40.9l-1-10.8 39.6-24.3 53.2 4.3z"/><path fill="#c6c59e" d="M84.3 123.7l4.4 2.5-7 12.1-4.4-2.5z"/><path fill="#889fa6" d="M165 63h11v28h-11z"/><path fill="#151d24" d="M91 121l33 29-24-36z"/><path fill="#94a3ac" d="M256.7 38l-49.4 24-4-8 49.4-24.2z"/><circle r="1" fill="#a9a3a9" transform="matrix(-3.70048 -.68183 3.62782 -19.68924 53.2 59)"/><path fill="#a7ab68" d="M199.6 3.5l-47.3 5.3-48.7-24.4 90.6-.4z"/><path fill="#362f33" d="M92 93l62 29-15 24z"/><circle r="1" fill="#f1facc" transform="matrix(2.47952 -6.48458 9.90444 3.78718 3.4 1.4)"/><path fill="#9b9655" d="M7.9 52.4l2.4-9.8 42.3-11.1-13.5 43.4z"/><path fill="#d5d87d" d="M14 27h40v9H14z"/><path fill="#8d3b50" d="M154 54.8l-74-33 2-4.6 74 33z"/><path fill="#585f40" d="M48 0h23v3H48z"/><path fill="#bdc076" d="M177.3 66.1L98.1 29.7l8.1 6.7 81 35.1z"/><circle r="1" fill="#b7c7db" transform="matrix(-22.42667 -16.21184 3.16192 -4.37405 213.2 162.2)"/><path fill="#1d1f32" d="M-1 82l-3 8 31 6z"/><path fill="#211c15" d="M34 178l-50-3 53-39z"/><circle r="1" fill="#4c4a42" transform="matrix(-29.55885 -12.91394 .40035 -.91636 230.2 142.9)"/><path fill="#605c52" d="M72.8 108.7L54.5 104l10 24.2-60.7 28.4z"/><path fill="#121a23" d="M76.8 121.6l3.4-27.8 5 .6-3.4 27.8z"/><path fill="#fcfefc" d="M169 50h37v9h-37z"/><path fill="#d2d7d9" d="M245 34.2l-9-14.4 29-18 9 14.4z"/><path fill="#8c97b0" d="M38 161l37-23H47z"/><path fill="#bfd1c8" d="M224 5l-11 2-11 21z"/><path fill="#6a625b" d="M143 149h37v21h-37z"/><circle r="1" fill="#2e6290" transform="matrix(-11.79167 .74187 -.83216 -13.22687 5.7 117.2)"/><path fill="#a2adb8" d="M223.2 100.6L211.6 72l11.2-4.5L234.4 96z"/><path fill="#c0b4a7" d="M59 87l-75-20 39 25z"/><path fill="#554d39" d="M83 85.4L64 14.9l1-.3 19 70.5z"/><path fill="#696966" d="M253 77l15-13-37 11z"/><path fill="#cacfba" d="M120.6 38.9l-8.8-16.8 25.1 19.1-4.3-33.7z"/><ellipse cx="191" cy="105" fill="#775d22" rx="2" ry="13"/><path fill="#868e97" d="M212.9 51.9l2.1-6.8-28.7 42.6 11.9-26.6z"/><path fill="#647cad" d="M56 53l22 21-11-47z"/><path fill="#5a4f41" d="M207.8-16l11 20.2 14.4 3.1L271-8.5z"/><path fill="#56514b" d="M154.5 182l-65.2-31.1 104.4 24.2-16.8-19.8z"/><path fill="#2b6293" d="M63.7 19.3l30.4 61.6L114 41 66.1 22.6z"/><path fill="#6a6a72" d="M88.5 185L41 150.5l70 7 17.6 27.5z"/><path fill="#7c8366" d="M170.8-16l-29.7 41.2 2.5 3.1-13.2-5.3z"/><path fill="#eaf1f5" d="M167.1 37l58.7-62.8 5 4.7-58.6 63z"/><path fill="#c4c7ba" d="M90 107l-2-7 4 3z"/></g></g></svg>