<svg xmlns="http://www.w3.org/2000/svg" viewBox="0 0 1800 1200"><defs/><filter id="a"><feGaussianBlur stdDeviation="12"/></filter><rect width="100%" height="100%" fill="#3c4048"/><g filter="url(#a)"><g fill-opacity=".5" transform="translate(3.5 3.5) scale(7.03125)"><circle r="1" fill="#acc3db" transform="rotate(-175 65.9 23.3) scale(255 72.30376)"/><circle r="1" fill="#000d0a" transform="matrix(-1.554 24.7 -234.84847 -14.77541 155.8 155.3)"/><circle r="1" fill="#3f3727" transform="matrix(-70.24877 47.55675 -6.00082 -8.86415 174.8 112.3)"/><ellipse cx="66" cy="51" fill="#9da7b4" rx="86" ry="29"/><circle r="1" fill="#3b6bac" transform="matrix(.99855 -37.50676 216.4271 5.76197 143 0)"/><path fill="#060000" d="M148 56h10v43h-10z"/><path fill="#eeead8" d="M171 48l-10 62 31-27z"/><circle r="1" fill="#c8c0af" transform="matrix(-22.59721 26.6724 -8.50638 -7.20672 41 83.5)"/><circle r="1" fill="#615249" transform="matrix(1.54815 -12.4293 85.66173 10.66973 112.2 120.3)"/><path fill="#eae8e2" d="M76.5 125.3l13.2-20.6 15.9-8-25.3-.9z"/><path fill="#54554f" d="M73 47h24v45H73z"/><path fill="#e6e6e3" d="M204 114l-12.4 4.2-5.5-16.1 12.3-4.3z"/><path fill="#fffff7" d="M120 75H96V65h24z"/><path fill="#172623" d="M271 85v23l-48-30z"/><path fill="#54514b" d="M0 73h38v18H0z"/><path fill="#d0cec8" d="M185.9 87.5l-56.7 18-27.6-21.9 73 15.2z"/><path fill="#232525" d="M115.5 79.2l49.1-.2 4.5-1.8-37.5-7z"/><path fill="#fbf6e4" d="M254 99l-27 4v13z"/><circle r="1" fill="#27414f" transform="matrix(8.44892 -22.71847 116.73663 43.41397 39.7 163.1)"/><path fill="#8ca1b4" d="M266 50L127 20l41 53z"/><circle r="1" fill="#0c1313" transform="rotate(-77.4 154.3 -8) scale(19.46113 39.56074)"/><path fill="#192532" d="M221.1 86l6.9 33.7-30.6-45.2 2.5 24.6z"/><path fill="#a3886a" d="M171 120h14v25h-14z"/><circle r="1" fill="#0e1617" transform="rotate(13.3 -516 188) scale(48.86738 9.05255)"/><path fill="#98a2b0" d="M41.6 54l51.7 26.8L51.6-6.8 45.1-16z"/><path fill="#e2d4ba" d="M36 109l-2-19-37 16z"/><ellipse cx="45" cy="81" fill="#dedfde" rx="21" ry="5"/><ellipse cx="230" cy="149" fill="#051010" rx="44" ry="19"/><path fill="#302c44" d="M99 90.7l17.4 63.7-2.1-63.1 12.2 28.6z"/><ellipse cx="251" cy="122" fill="#9b8a6e" rx="83" ry="8"/><path fill="#69736d" d="M207 59h49v22h-49z"/><circle r="1" fill="#373f48" transform="matrix(.99098 -.13399 6.81534 50.40735 185.3 46.6)"/><ellipse cx="167" fill="#3b5b89" rx="112" ry="13"/><path fill="#262727" d="M73 78h26v9H73z"/><path fill="#fffff2" d="M218 111.8l-3.2 2.3-6.9-9.9 3.3-2.3z"/><ellipse cx="19" cy="69" fill="#ece6dc" rx="30" ry="3"/><path fill="#363a43" d="M35 114l15-29 11 43z"/><ellipse cx="81" cy="60" fill="#9e9890" rx="68" ry="8"/><path fill="#0f0c0f" d="M202 90l7 13-4 13z"/><path fill="#746a64" d="M137 118.6L170.4 69l6.6 4.5-33.6 49.7z"/><circle r="1" fill="#7092ba" transform="matrix(-1.33488 11.52222 -95.12434 -11.02042 77.5 35.8)"/><path fill="#e9e5d8" d="M89 92h11v14H89z"/><path fill="#121620" d="M74 49h31v3H74z"/><path fill="#202b19" d="M185.9 100.5l-15.5 1.8 12.6 19.9 5.2-1z"/><ellipse cx="229" cy="124" fill="#c0b7a9" rx="44" ry="3"/><path fill="#ccccc6" d="M138 77.2l-11.3 18.3-3.5-14.8-3-1.3z"/><path fill="#b1b9c4" d="M58 123l22-13 4 9z"/><ellipse cx="45" cy="17" fill="#d7d8d8" rx="2" ry="56"/><path fill="#d4d1c7" d="M196.9 106.9l-6.7 8.3 5.5 4.6 21-3.2z"/><path fill="#fffff3" d="M63 101h6v9h-6z"/><path fill="#7d716f" d="M0 46h43v14H0z"/><path fill="#a4a39c" d="M228 5h6v70h-6z"/><ellipse cx="41" cy="93" fill="#dee1de" rx="29" ry="2"/><path fill="#a9a69e" d="M228 82l-10.3 23.7 35.3-5.8L153.9 42z"/><path fill="#1f2529" d="M214 126l-37-2 25 16z"/><circle r="1" fill="#1c211f" transform="matrix(19.15253 -.03047 .00456 2.86799 1.4 76.2)"/><ellipse cx="59" cy="88" fill="#4b545c" rx="47" ry="3"/><path fill="#d7dad6" d="M121.6 74.9L93.7 50.8l22.6.8L96 77z"/><path fill="#2c2624" d="M218.2 103.2l-23.9-10.8 31.7 13.1-4.8 11.4z"/><path fill="#485e6b" d="M65.5 75.5l27.1 8.3-36.1-16.6-8.7 9.9z"/><circle r="1" fill="#463d35" transform="matrix(-1.72002 1.59834 -16.42216 -17.67235 247.7 74)"/><path fill="#d9d6c7" d="M158 68l37 7-31-15z"/><path fill="#e7e8e2" d="M158.2 100.5l18.4-19.8 5.2 4.8-18.4 19.8z"/><path fill="#3e301f" d="M8 101l5-8 6 9z"/><path fill="#f1f2ff" d="M207 92h3v10h-3z"/><path fill="#2e3f55" d="M223.5 90.3l-28.3 18-32-2.4 53.2-3.6z"/><path fill="#070d0b" d="M150 57h5v42h-5z"/><path fill="#ffffe9" d="M57 27.8l-1 .1-5-55.7 1-.1z"/><ellipse cx="170" cy="2" fill="#e6e2cf" rx="1" ry="65"/><path fill="#04a8ff" d="M120 106l-4-1 5 12z"/><path fill="#666462" d="M62.9 109L28.8 70.5l34.4 54.2 14.4-9.6z"/><path fill="#141618" d="M146.6 74.5l-9.8 15.1-3.4-2.1 9.8-15.1z"/><path fill="#765d5b" d="M111.4 105.3l-9.8-19-11.3 47.8 9-2z"/><path fill="#9f907c" d="M174.5 140.5l-17.8-28.2-2-18.7 2.5 1.1z"/><path fill="#2c3439" d="M242.7 99.8l3 .6-2.4 11.8-3-.6z"/><path fill="#454242" d="M219 117h37v4h-37z"/><path fill="#085383" d="M211 64h18v9h-18z"/><path fill="#cec0ab" d="M234.3 77l7.6 3.6-12.8-18.4 18 15.5z"/><path fill="#b5b5b1" d="M93.5 73.2l29.1-10.6-21.7-12.1 14.1 62.7z"/><path fill="#373936" d="M145 60l-4-8-7 7z"/><ellipse cx="223" cy="37" fill="#6385ac" rx="134" ry="9"/><path fill="#b4b1af" d="M-8 80l26.6 4-.6 4-26.6-4.2z"/><path fill="#503f35" d="M117.7 138.5l42.1-5.9 22 3.3-54.1-20.1z"/><circle r="1" fill="#99aabf" transform="rotate(7 -318.3 2108.3) scale(23.27734 7.85325)"/><path fill="#0e120d" d="M180.3 145.5l-2 13.9-134.6-19 2-13.8z"/><path fill="#3a4445" d="M229 85l-37 2 2-12z"/><path fill="#fffff8" d="M189 61h15v3h-15z"/><path fill="#48525b" d="M99 69l3-10-19 9z"/><path fill="#345d99" d="M53-8.3l-2 27-6-.4 2-27z"/><path fill="#e4e4dd" d="M178 98l14-13-37 13z"/><path fill="#304051" d="M84.2 129.9l-15.1-12.6 66.7 25.5L82 112.7z"/><circle cx="154" cy="53" r="3" fill="#fff"/><path fill="#a5a7a3" d="M147.7 91.7l.1-61.5 2.3 42.6-26.9 30.2z"/><path fill="#2e71a3" d="M41.6-16L23.9 68.2l-6.2 14.7L26.9 46z"/><path fill="#00050a" d="M66 111h7v6h-7z"/><path fill="#d2cec3" d="M222.4 113.1l17.9-6.1-1.8 7 1.9 2.9z"/><path fill="#efefe7" d="M32.6 82.2v-1l38.8-3.4v1z"/><path fill="#404646" d="M160 111l-5-12-7 22z"/><ellipse cx="223" cy="27" fill="#eae1cc" rx="1" ry="19"/><path fill="#e2e4e2" d="M24 102l8-3-19-11z"/></g></g></svg>