<svg xmlns="http://www.w3.org/2000/svg" viewBox="0 0 2532 1688"><defs/><filter id="prefix__a"><feGaussianBlur stdDeviation="12"/></filter><rect width="100%" height="100%" fill="#4d5937"/><g filter="url(#prefix__a)"><g transform="translate(5 5) scale(9.89063)"><circle r="1" fill="#e3cdd4" fill-opacity=".5" transform="matrix(-60.52677 81.5529 -202.56213 -150.33717 107.8 121)"/><ellipse cx="239" cy="12" fill="#baa7a9" fill-opacity=".5" rx="30" ry="25"/><ellipse cx="60" cy="24" fill="#7f746a" fill-opacity=".5" rx="221" ry="33"/><ellipse cx="22" cy="96" fill="#c8c2b8" fill-opacity=".5" rx="62" ry="35"/><circle r="1" fill="#475133" fill-opacity=".5" transform="rotate(54.2 12.1 218.6) scale(10.29786 46.18489)"/><circle r="1" fill="#c9bab1" fill-opacity=".5" transform="matrix(4.0231 13.7726 -62.98712 18.39914 133 .8)"/><circle r="1" fill="#d0cbba" fill-opacity=".5" transform="matrix(38.9182 -3.02442 1.38722 17.85068 139.8 69.4)"/><circle r="1" fill="#bfb5af" fill-opacity=".5" transform="rotate(-111.9 111.2 38.3) scale(36.39614 53.84329)"/><circle r="1" fill="#120e13" fill-opacity=".5" transform="rotate(151.5 87.7 36.8) scale(33.45344 6.59167)"/><circle cx="230" cy="71" r="24" fill="#262428" fill-opacity=".5"/><path fill="#bcb0ae" fill-opacity=".5" d="M213.3 115.9l1.5-22 59.9 4.2-1.5 22z"/><circle r="1" fill="#555756" fill-opacity=".5" transform="matrix(-17.33671 22.436 -9.14193 -7.06414 40.2 150.2)"/><ellipse cx="255" cy="7" fill="#b2aa9f" fill-opacity=".5" rx="15" ry="61"/><circle r="1" fill="#687554" fill-opacity=".5" transform="matrix(-18.87674 -48.07455 10.51072 -4.1271 89.5 74.1)"/><circle r="1" fill="#918781" fill-opacity=".5" transform="rotate(22 -26.8 525.8) scale(23.31197 10.85468)"/><circle r="1" fill="#71635d" fill-opacity=".5" transform="rotate(115.8 66.4 133.9) scale(14.01903 25.98939)"/><ellipse cx="234" cy="53" fill="#191519" fill-opacity=".5" rx="7" ry="31"/><path fill="#798568" fill-opacity=".5" d="M225 56l-70 59 72-33z"/><circle r="1" fill="#b4aaa3" fill-opacity=".5" transform="matrix(-16.1072 -16.7101 50.91417 -49.07722 0 144.2)"/><path fill-opacity=".5" d="M193.4 70.9l18.3-8.2 2.9 6.4-18.3 8.2z"/><path fill="#bdb2af" fill-opacity=".5" d="M157.9 16.5L147-16l30.9 29.1-1.2-5.4z"/><path fill="#c1ae98" fill-opacity=".5" d="M136.6 40.9L82.5 1l-9.2 27.6L100 40.7z"/><circle r="1" fill="#72695e" fill-opacity=".5" transform="matrix(21.5003 14.21453 -27.34732 41.3644 17.3 16.3)"/><circle r="1" fill="#6d6b5a" fill-opacity=".5" transform="matrix(-12.27198 -4.80934 9.269 -23.65169 156.8 101.6)"/><path fill="#100c15" fill-opacity=".5" d="M235.5 76.9l29.4 31.9 6.1-22.1-40.8-35.2z"/><path fill="#72685f" fill-opacity=".5" d="M170.4 49.8l-29.2 4.8-4.4-13.7-2.7-56.9z"/><path fill="#354529" fill-opacity=".5" d="M95.7 74.3L85 91.1l27.3 6.9-18.8-14.7z"/><path fill="#343032" fill-opacity=".5" d="M197.3 39.3L178.5 16l26.2-32 5.4 51.8z"/><path fill="#524a45" fill-opacity=".5" d="M179.8 176.1l-9.5-3.2 5.9-17 9.5 3.2z"/><path fill="#5c584b" fill-opacity=".5" d="M265 56l-49-69 5 35z"/><path fill="none" stroke="#26261e" stroke-opacity=".5" stroke-width=".5" d="M169 83.3q-33.7 21.6-109.5 44.4"/><path fill="#9dcd77" fill-opacity=".5" d="M19.3 54.6l44.3-40.9-21.1 34-2.3-2z"/><circle r="1" fill="#413d3c" fill-opacity=".5" transform="rotate(-19.3 387.6 -235.4) scale(75.83317 1)"/><path fill="#c4bdad" fill-opacity=".5" d="M133.1 97.2l-14.6-45.7 16-4.6 34.4 26.2z"/><path fill="#939381" fill-opacity=".5" d="M225 81l-40-6-32 31z"/><path fill="#cab8ae" fill-opacity=".5" d="M184.2 35l33.3 16.3-1.7 3.6-33.3-16.2z"/><circle r="1" fill="#4b4842" fill-opacity=".5" transform="matrix(-27.77281 -6.50294 .78632 -3.35821 198.7 52)"/><path fill="#51483c" fill-opacity=".5" d="M110.1 26l1.4-2.9 34.8-13.5-25.7 19z"/><path fill="#7f9965" fill-opacity=".5" d="M74.8 90l-21-24.2L65.2 56l21 24.2z"/><circle r="1" fill="#b3aca5" fill-opacity=".5" transform="matrix(-4.26567 -10.19983 17.72407 -7.4124 130.1 116)"/><path fill="#2f322d" fill-opacity=".5" d="M271 97.7l-86.8-6.5 22.7 3.9L271 54z"/><path fill="#6a6259" fill-opacity=".5" d="M101 61L54 32l44 7z"/><path fill="#64753f" fill-opacity=".5" d="M183 90l-3-24 30-19z"/><path fill="#404636" fill-opacity=".5" d="M209 61l23-33-20 61z"/><path fill="#a6c884" fill-opacity=".5" d="M219 25l-2 17 16-14z"/><path fill="#515248" fill-opacity=".5" d="M11.2 51l-15.7 3.3-6.7-31.3 15.7-3.3z"/><path fill="#e6ddc3" fill-opacity=".5" d="M204 75h7v11h-7z"/><path fill="#b6b6a0" fill-opacity=".5" d="M233.3 9.7l24.3-6 3.1 12.6-24.3 6z"/><path fill="#5d5752" fill-opacity=".5" d="M93 160l7-2 4 18z"/><path fill="#a6af92" fill-opacity=".5" d="M136.5 73l-5.8 26.9-45.4-22.8-28.6 12.1z"/><circle r="1" fill="#bcb6ae" fill-opacity=".5" transform="matrix(-19.26559 9.4053 -9.55165 -19.56536 33.7 79.2)"/><path fill="#bcb3a8" fill-opacity=".5" d="M138 185l-27-60 59 5z"/><path fill="#68655e" fill-opacity=".5" d="M17 159h34v11H17z"/><path fill="#b0af9f" fill-opacity=".5" d="M51 103l42 10 33-13z"/><path fill="#b0a59c" fill-opacity=".5" d="M252.6 145.8L131.4 185 271 157.7l-27.8-64z"/><path fill="#afae8a" fill-opacity=".5" d="M138.1 56.7L76.7 70.8l82.4-36.3-40.2-1.3z"/><path fill="#776d69" fill-opacity=".5" d="M174 107v24l43-9z"/><path fill="#a59c94" fill-opacity=".5" d="M209.5 94.9l37.8 55.9-25.5-27.5-43.9-17.2z"/><path fill="#aea29e" fill-opacity=".5" d="M209 25h21v6h-21z"/><ellipse cx="221" cy="71" fill="#b6d89c" fill-opacity=".5" rx="4" ry="3"/><path fill="#687647" fill-opacity=".5" d="M31.3 55l-2.1-2.7 30-20.8 16.4-2z"/><ellipse cx="50" fill="#665e58" fill-opacity=".5" rx="35" ry="7"/><ellipse cx="19" cy="22" fill="#94887d" fill-opacity=".5" rx="16" ry="15"/><path fill="#444447" fill-opacity=".5" d="M163 88h32v4h-32z"/><path fill="#5d5a4c" fill-opacity=".5" d="M130.2 43.5l8 4.9 25.7-18.8-19.2 27.2z"/><path fill="#4f4a45" fill-opacity=".5" d="M230.6 80.5L188.4-3.1l35.3 53.4 11-42.4z"/><path fill="#6c7257" fill-opacity=".5" d="M123.3 42.5l-8.8-.2-52.4 36.6 69.6-34.7z"/><path fill="#2f2b2c" fill-opacity=".5" d="M155 21l21 27-7-25z"/><path fill="#82766d" fill-opacity=".5" d="M231.2 113.2l15.8 34.5 4.3-26.3-74.2 49.9z"/><path fill="#7f7572" fill-opacity=".5" d="M186 25l-52-7 34-7z"/><path fill="#9a938d" fill-opacity=".5" d="M179.7 4.3l9.4 6.9-19.7.8L99.5-5.4z"/><path fill="#435a2f" fill-opacity=".5" d="M88 93.3l-5.2-10.8 30.4 15.8-28-3.4z"/><path fill="#292a21" fill-opacity=".5" d="M187 13l33 10-39 8z"/><path fill="#a5a19a" fill-opacity=".5" d="M68 128l89-33-93 75z"/><path fill="#9fc577" fill-opacity=".5" d="M41 8l15 23h14z"/><path fill="#c0b3a8" fill-opacity=".5" d="M195 105l-14-7 8 22z"/><path fill="#d3d0cd" fill-opacity=".5" d="M191 81l5-4v10z"/><path fill="#525c3e" fill-opacity=".5" d="M157 85l10 14h-31z"/><circle cx="117" r="7" fill="#645f5f" fill-opacity=".5"/><circle cx="174" cy="61" r="12" fill="#aba396" fill-opacity=".5"/><path fill="#b3aa9e" fill-opacity=".5" d="M89.5-5.1L74-3.3l67.4 11.5-76.5 17.4z"/><path fill="#b9ada3" fill-opacity=".5" d="M144.3 133.8l57.6-.1-2.5 6.7-60 7.2z"/><path fill="#867a79" fill-opacity=".5" d="M146.5 130.6L201.9 92l16 27-41-30z"/><ellipse cx="144" cy="19" fill="#a29789" fill-opacity=".5" rx="8" ry="5"/><circle r="1" fill="#45403c" fill-opacity=".5" transform="matrix(-1.31422 2.46743 -21.64688 -11.52966 207.8 41.4)"/><path fill="#534f4b" fill-opacity=".5" d="M255-12l-49 24 32-6z"/><path fill="#4c4844" fill-opacity=".5" d="M140.2 8l3.8-4.6L161.8 18l-3.8 4.7z"/><path fill="#a49f95" fill-opacity=".5" d="M179.3 44.4l16-4.6-6.9-4.7L165.7 46z"/><path fill="#beb5b0" fill-opacity=".5" d="M176 111l-10 24 1-19z"/><path fill="#bcae98" fill-opacity=".5" d="M208 19l10-6 9 4z"/><path fill="#544944" fill-opacity=".5" d="M105.3 110.7l15.5-6.2-4.5 7.8h-7.5z"/><path fill="#aaa299" fill-opacity=".5" d="M-3 185l65-83-78 34z"/><path fill="#796a67" fill-opacity=".5" d="M164.4 116L147 129.5l-7.4-9.5 17.4-13.5z"/><path fill="#b0a8a0" fill-opacity=".5" d="M246.8 157.7l-19.9-12.8 39.2 2.9-11.1-46.1z"/><path fill="#819d65" fill-opacity=".5" d="M103.9 73l12.6 12.3-27.1 25.6 25.5-9.1z"/><path fill="#161513" fill-opacity=".5" d="M236.8 38.3l17 49.1-6.6 2.3-17-49.1z"/><path fill="#9b978d" fill-opacity=".5" d="M241 94.8l-29.7 40.5 8.8 7.8-16.4-49.4z"/><path fill="#7d746b" fill-opacity=".5" d="M246.6 172.4l-8.5-4.2L234 181l-13-28.1z"/><path fill="#a99a8c" fill-opacity=".5" d="M166.6-16L81.2 23.8l-1.4 24.9-21.6 11z"/><path fill="#515257" fill-opacity=".5" d="M175.1 154.3l-4.1-2.8 3.9-5.8 4.1 2.8z"/></g></g></svg>