<svg xmlns="http://www.w3.org/2000/svg" viewBox="0 0 1800 1800"><defs/><filter id="prefix__a"><feGaussianBlur stdDeviation="12"/></filter><rect width="100%" height="100%" fill="#303e4b"/><g filter="url(#prefix__a)"><g transform="translate(3.5 3.5) scale(7.03125)"><circle r="1" fill="#fff" fill-opacity=".5" transform="rotate(1.7 -977.3 5521.1) scale(252.63086 40.90294)"/><circle r="1" fill="#f3ffff" fill-opacity=".5" transform="matrix(6.10396 -45.1459 93.12754 12.59134 85.2 .9)"/><ellipse cx="225" cy="86" fill="#697785" fill-opacity=".5" rx="255" ry="51"/><circle r="1" fill="#000737" fill-opacity=".5" transform="matrix(6.2772 -82.26716 48.15084 3.67404 43.6 203.3)"/><path fill="#101820" fill-opacity=".5" d="M200 129L176 13l-30 122z"/><circle r="1" fill="#c4d7ea" fill-opacity=".5" transform="matrix(13.14934 -9.78634 17.6924 23.77226 139.6 51.9)"/><path fill="#678499" fill-opacity=".5" d="M252.7 42.4l23.8 103.3-69.2 16-23.8-103.4z"/><circle r="1" fill="#feffff" fill-opacity=".5" transform="matrix(1.32528 28.883 -52.31052 2.40024 45.8 0)"/><path fill="#c6f2ff" fill-opacity=".5" d="M-8 140l27-10-28 46z"/><circle r="1" fill="#8facc6" fill-opacity=".5" transform="rotate(67.8 21.8 96.2) scale(25.54121 41.28416)"/><ellipse cx="91" cy="145" fill="#8fb4cf" fill-opacity=".5" rx="10" ry="16"/><circle r="1" fill="#6a6a6e" fill-opacity=".5" transform="rotate(119.1 1.8 34.3) scale(16.95741 40.36065)"/><circle r="1" fill="#36241d" fill-opacity=".5" transform="matrix(-.80418 -9.91611 38.06284 -3.08683 102.2 77.3)"/><path fill="#f4ffff" fill-opacity=".5" d="M184-16l-53 59 22 14z"/><circle r="1" fill="#001d3c" fill-opacity=".5" transform="matrix(-13.29579 82.09069 -46.93289 -7.60147 34 213.7)"/><circle r="1" fill="#526c7a" fill-opacity=".5" transform="rotate(91.1 41.3 64.5) scale(5.15202 33.13912)"/><path fill="#00070f" fill-opacity=".5" d="M131 124h18v71h-18z"/><path fill="#8086ae" fill-opacity=".5" d="M142 104l-14 34-46-37z"/><ellipse cx="178" cy="170" fill="#4e5f61" fill-opacity=".5" rx="32" ry="43"/><path fill="#6e727b" fill-opacity=".5" d="M111 44l19 4 34-47z"/><ellipse cx="73" cy="51" fill="#d1e8ff" fill-opacity=".5" rx="9" ry="22"/><circle r="1" fill="#003467" fill-opacity=".5" transform="matrix(-35.80492 5.92747 -4.19691 -25.35148 47.4 148.3)"/><circle r="1" fill="#3b5261" fill-opacity=".5" transform="rotate(-10.7 980.6 -1199.5) scale(19.2465 61.63571)"/><circle r="1" fill="#7793af" fill-opacity=".5" transform="matrix(21.5728 13.3757 -30.29269 48.8571 221.1 35.4)"/><path fill="#546d78" fill-opacity=".5" d="M109 149h20v59h-20z"/><ellipse cx="129" cy="6" fill="#e5fbff" fill-opacity=".5" rx="23" ry="14"/><path fill="#f8c9ca" fill-opacity=".5" d="M27 66h31v5H27z"/><path fill="#362a21" fill-opacity=".5" d="M36.5 72l-51.8-22.6 60.1 33.1 53.8-9.7z"/><path fill="#dff1ff" fill-opacity=".5" d="M170 35l-20-15 35-36z"/><path fill="#a08a8e" fill-opacity=".5" d="M163 124l-14-13 3-38z"/><path fill="#3f3b3f" fill-opacity=".5" d="M105.5 58.9l19.6 56.4-50.7-67.6 92.4 64.9z"/><ellipse cx="171" cy="49" fill="#50423c" fill-opacity=".5" rx="16" ry="15"/><path fill="#b6cce4" fill-opacity=".5" d="M128 34l-24 20 20 16z"/><circle r="1" fill="#051b28" fill-opacity=".5" transform="matrix(11.07052 28.10644 -6.91445 2.72345 189.4 106)"/><circle r="1" fill="#212d2e" fill-opacity=".5" transform="matrix(-57.74649 5.66563 -2.97274 -30.29937 177.2 255)"/><circle r="1" fill="#6a7795" fill-opacity=".5" transform="matrix(10.93636 4.56801 -11.01028 26.3599 193 10.4)"/><circle r="1" fill="#e8f7ff" fill-opacity=".5" transform="matrix(20.26667 -4.7535 9.3551 39.88565 53.7 1.5)"/><path fill="#000e3d" fill-opacity=".5" d="M101 135h15v22h-15z"/><path fill="#bcd4e8" fill-opacity=".5" d="M156 41l-42 15 44 24z"/><ellipse cy="103" fill="#405a57" fill-opacity=".5" rx="59" ry="31"/><circle r="1" fill="#001b36" fill-opacity=".5" transform="matrix(41.60816 -57.98673 38.96685 27.96052 28.4 219.6)"/><circle r="1" fill="#7a8e9f" fill-opacity=".5" transform="matrix(15.36304 .82059 -1.89098 35.40283 209.4 77.8)"/><circle r="1" fill="#6d7092" fill-opacity=".5" transform="matrix(17.8841 -23.56144 5.1181 3.88485 96.7 114.3)"/><path fill="#adcfe8" fill-opacity=".5" d="M99.1 27l29 4.8-28.2 21-36.2-.6z"/><path fill="#141f1f" fill-opacity=".5" d="M129 94h28v6h-28z"/><path fill="#394647" fill-opacity=".5" d="M214 202L70 251l21-65z"/><path fill="#09121d" fill-opacity=".5" d="M127.3 141l18.9 73.4 9.9-6.6-2.7-16.6z"/><path fill="#ccf8ff" fill-opacity=".5" d="M154 92l-12-3 3 4z"/><path fill="#002b59" fill-opacity=".5" d="M27 126l51-5-30 113z"/><path fill="#707b85" fill-opacity=".5" d="M107 49l-31 6 4 19z"/><path fill="#dae8f4" fill-opacity=".5" d="M166.2 32.6l-19 21.9-17.4-15.1 19-21.9z"/><circle r="1" fill="#383d40" fill-opacity=".5" transform="matrix(-.62373 -.78164 43.41577 -34.64466 112.7 45)"/><path fill="#556d76" fill-opacity=".5" d="M-15 22l-1-9.7 83.1 33.1-74.5-10.6z"/><circle r="1" fill="#814952" fill-opacity=".5" transform="matrix(-20.28156 -1.70207 .60794 -7.24412 135.7 84)"/><path fill="#031d32" fill-opacity=".5" d="M131.4 143.7l10.1-29.3 17 5.9-10 29.3z"/><path fill="#22343e" fill-opacity=".5" d="M209 148h25v108h-25z"/><circle r="1" fill="#788fa3" fill-opacity=".5" transform="rotate(-175.9 128.5 23.2) scale(16.94029 52.99822)"/><circle r="1" fill="#a7a299" fill-opacity=".5" transform="matrix(3.0176 14.44122 -1.73033 .36156 16.6 105.4)"/><path fill="#9cb3ce" fill-opacity=".5" d="M66.3 101.3l.1 1-30.7 4.4-.1-1z"/><circle r="1" fill="#534e49" fill-opacity=".5" transform="matrix(12.7443 24.93112 -5.67107 2.89894 75 86)"/><path fill="#192530" fill-opacity=".5" d="M168 137l31-28-22-51z"/><path fill="#535c66" fill-opacity=".5" d="M158 111h10v106h-10z"/><circle r="1" fill="#526778" fill-opacity=".5" transform="rotate(-103.4 174.4 -30.9) scale(82.77444 9.50845)"/><path fill="#d4e3f1" fill-opacity=".5" d="M152.7 58.9L173.8-.6l-29.1 19.4 12.9 36.3z"/><path fill="#eecfc5" fill-opacity=".5" d="M5 59h28v2H5z"/><circle r="1" fill="#36312e" fill-opacity=".5" transform="matrix(7.03482 4.24367 -10.25304 16.99665 105.9 83)"/><path fill="#273333" fill-opacity=".5" d="M55 73l-23-4-4 35z"/><path fill="#625046" fill-opacity=".5" d="M174.5 100.8l-8.2 63.6.1-74.3 12.4 5.7z"/><path fill="#c9dff5" fill-opacity=".5" d="M95.9 17.1L23.6 30.8 141.4-8l-19.2 31.9z"/><path fill="#734052" fill-opacity=".5" d="M61.1 65.5l-.7 4-25.5-5 .7-4z"/><circle r="1" fill="#65879c" fill-opacity=".5" transform="matrix(-1.44901 11.80126 -4.68739 -.57554 96.9 154.3)"/><path fill="#485b66" fill-opacity=".5" d="M98 181l28-47-7 114z"/><path fill="none" stroke="#1a1b21" stroke-opacity=".5" stroke-width=".5" d="M121.4 38.3q20.4-17.4 65.4-54.3"/><path fill="#283442" fill-opacity=".5" d="M157.5 71.9l33.3-19.7-5.5 7.2-27.5 41.7z"/><path fill="#6f7f9a" fill-opacity=".5" d="M133.4 125.8l-23.6 7.9 20.5-33 11.4-5.8z"/><ellipse cx="63" cy="67" fill="#150104" fill-opacity=".5" rx="3" ry="6"/><circle r="1" fill="#e1eefc" fill-opacity=".5" transform="matrix(-65.03175 -39.69555 7.03322 -11.52227 19 6.2)"/><path fill="#394244" fill-opacity=".5" d="M136 71l-23 32 17 5z"/><path fill="#421b18" fill-opacity=".5" d="M-5.7 50.7l13.9 11 18.1 1.7-12.1 10.2z"/><path fill="#46485a" fill-opacity=".5" d="M113.4 106.8l7.8-6.8-42.3 38.2 24.6-3.5z"/><circle r="1" fill="#3e3c3b" fill-opacity=".5" transform="rotate(-126.8 39 52.7) scale(1 120.51347)"/><circle r="1" fill="#a2bcd4" fill-opacity=".5" transform="matrix(-22.3915 17.92206 -.9636 -1.2039 94.1 56.4)"/><path fill="#91797b" fill-opacity=".5" d="M121 45l8-8 16 19z"/><ellipse cx="63" cy="116" fill="#414249" fill-opacity=".5" rx="26" ry="9"/><path fill="#550d1c" fill-opacity=".5" d="M190 0h2v17h-2z"/><path fill="#cbc6cb" fill-opacity=".5" d="M35.3 66.6l23.9 2.9-.5 4-23.9-3z"/><path fill="#7e8fa0" fill-opacity=".5" d="M145.8 66.9l2.7 6.7L169 60.1l-2.9 10.4z"/><ellipse cx="91" cy="23" fill="#445157" fill-opacity=".5" rx="16" ry="2"/><path fill="#587679" fill-opacity=".5" d="M39.4 84.3l-14.3-17 14.1 43.5L56 82.4z"/><path fill="#a1a7c0" fill-opacity=".5" d="M124 87v4h-10v-4z"/><path fill="#530f22" fill-opacity=".5" d="M200 19.9L203-8l1 .1-3 27.9z"/><path fill="#555b5b" fill-opacity=".5" d="M134 23h12v5h-12z"/><circle r="1" fill="#002345" fill-opacity=".5" transform="matrix(-27.77393 13.42815 -13.08921 -27.07289 62.6 176.8)"/><circle r="1" fill="#394347" fill-opacity=".5" transform="rotate(76.4 -37.5 229) scale(35.15863 19.9389)"/><path fill="#50788a" fill-opacity=".5" d="M81.1 37.3l-1.2-10 5-.6 1.2 10z"/><path fill="#3c515e" fill-opacity=".5" d="M239 130l-11-50-14 93z"/><path fill="#7b4b5a" fill-opacity=".5" d="M216 8l10-24h39z"/><path fill="#8facc6" fill-opacity=".5" d="M-1 149l8-22 2 17z"/><circle r="1" fill="#2d3744" fill-opacity=".5" transform="rotate(-15.6 343.5 23.5) scale(3.44068 27.85544)"/><ellipse cx="169" cy="19" fill="#e0edfc" fill-opacity=".5" rx="5" ry="15"/></g></g></svg>