<svg xmlns="http://www.w3.org/2000/svg" viewBox="0 0 1200 1800"><defs/><filter id="a"><feGaussianBlur stdDeviation="12"/></filter><rect width="100%" height="100%" fill="#413421"/><g filter="url(#a)"><g fill-opacity=".5" transform="translate(3.5 3.5) scale(7.03125)"><circle r="1" fill="#cd6e17" transform="matrix(-62.7094 -.31733 .77765 -153.67442 90.9 39.1)"/><circle r="1" fill="#fcae32" transform="matrix(-12.74707 33.80393 -21.59575 -8.1435 91.5 23.2)"/><path fill="#ffffcd" d="M80 96h12v70H80z"/><ellipse cx="80" cy="75" fill="#521c05" rx="169" ry="22"/><circle r="1" fill="#fff" transform="rotate(-95.7 61 -18.6) scale(9.17484 7.32707)"/><circle r="1" fill="#6b3c15" transform="matrix(-31.70934 -10.08483 46.555 -146.38107 148 101)"/><ellipse cx="20" cy="116" fill="#613512" rx="47" ry="119"/><ellipse cx="100" cy="219" fill="#71481a" rx="65" ry="17"/><ellipse cx="80" cy="5" fill="#975e1e" rx="92" ry="31"/><ellipse cx="141" cy="255" fill="#030e11" rx="144" ry="11"/><path fill="#c95e00" d="M112.1 57.8l-6.9 8.2-22 6.6-44.3-37.9z"/><path fill="#fffbc1" d="M79 97h12v30H79z"/><path fill="#be7e3d" d="M78 135h17v55H78z"/><path fill="#ffbd0a" d="M104 42.7L86.1 56.3l13.3-26.8H70.5z"/><ellipse cx="82" cy="198" fill="#1b2321" rx="169" ry="7"/><path fill="#ca721d" d="M48 206h64v4H48z"/><path fill="#fff" d="M83 36h9v13h-9z"/><path fill="#714417" d="M80.7 198.4l.1-25.4-57.7-76.3 13.3 86.8z"/><path fill="#bf7209" d="M73 96h8v71h-8z"/><circle r="1" fill="#1b2221" transform="matrix(-47.77385 1.46689 -.05358 -1.74494 69 172)"/><path fill="#bb6e17" d="M66 218h47v6H66z"/><path fill="#fcb73f" d="M54 13h61v3H54z"/><path fill="#ce7401" d="M92 92h8v44h-8z"/><circle r="1" fill="#3c1f12" transform="rotate(103.2 -25.3 45.3) scale(15.20841 47.00247)"/><circle r="1" fill="#a24e00" transform="rotate(-82 81 -40) scale(27.89948 11.11713)"/><circle cx="145" cy="156" r="36" fill="#683e18"/><circle r="1" fill="#2a2820" transform="rotate(-179.2 38.9 106.6) scale(65.14373 4.00177)"/><path fill="#6a3814" d="M120.2 19.7l49.5-7 6.1 43.6-49.5 7z"/><circle r="1" fill="#4c2513" transform="matrix(-1.02978 -9.19692 58.74115 -6.57722 149.6 86.5)"/><circle r="1" fill="#6b3b18" transform="matrix(-21.80086 -25.98125 15.31654 -12.8521 18.4 26.6)"/><path fill="#eb8f00" d="M52 38.8l39.6 21.1-23-29 63.5 3.2z"/><circle r="1" fill="#bd8638" transform="matrix(39.54871 -1.71069 .14673 3.39212 91.2 3.5)"/><ellipse cx="100" cy="231" fill="#aa671b" rx="28" ry="2"/><path fill="#d19c6d" d="M83 189.7l-1-17 7-.4 1 17z"/><ellipse cy="227" fill="#382e1b" rx="101" ry="7"/><ellipse cx="66" cy="244" fill="#69461d" rx="44" ry="4"/><ellipse cx="91" cy="181" fill="#8d5b21" rx="52" ry="4"/><path fill="#fff" d="M78 44l8-10v15z"/><path fill="#fffff8" d="M82 180h14v1H82z"/><path fill="#442c14" d="M51 154h50v2H51z"/><path fill="#fea008" d="M89.9 32.9l21.3 9.2-44 12.4 29-4.1z"/><path fill="#2b261a" d="M81 234h89v6H81z"/><ellipse cx="94" cy="67" fill="#7e3f11" rx="40" ry="9"/><circle r="1" fill="#a45201" transform="matrix(1.97999 6.357 -19.22786 5.98881 58.4 37.4)"/><path fill="#24241e" d="M100 224h49v4h-49z"/><path fill="#f2b939" d="M90 97h3v38h-3z"/><path fill="#ffcdab" d="M82 207h10v2H82z"/><path fill="#ffebcf" d="M83 174h8v3h-8z"/><ellipse cx="80" cy="143" fill="#2b2319" rx="36" ry="1"/><ellipse cx="152" cy="229" fill="#7f4c1b" rx="30" ry="4"/><path fill="#9e580b" d="M102.5 88.4l2.4 69.9 25.3 3.8-38.4 3.5z"/><path fill="#8d571a" d="M60 217h62v8H60z"/><path fill="#9c5005" d="M62 97h13v41H62z"/><path fill="#e09d35" d="M81 12h47v4H81z"/><circle r="1" fill="#f2f7ff" transform="matrix(-3.27884 .02802 -.03855 -4.51008 85.5 102)"/><circle r="1" fill="#372b18" transform="matrix(18.1825 -2.43558 7.1106 53.0832 0 201.7)"/><path fill="#64380b" d="M65.5 138.9l37 1.2v1l-37-1.2z"/><circle cx="85" cy="42" r="6" fill="#f5ffff"/><circle r="1" fill="#ffd300" transform="matrix(-6.5644 7.16772 -.73746 -.67539 79.2 38.6)"/><ellipse cx="109" cy="193" fill="#362f21" rx="51" ry="4"/><circle r="1" fill="#20201a" transform="matrix(-65.53986 4.35315 -.54539 -8.2112 139.8 248)"/><path fill="#db6600" d="M112 41l-22 7 1 12z"/><ellipse cx="101" cy="150" fill="#563c1f" rx="93" ry="1"/><ellipse cx="66" cy="234" fill="#905a20" rx="19" ry="2"/><path fill="#90541a" d="M130.3 46.4l-2.7-23.9 18.4-9.4-55.3 3.4z"/><circle r="1" fill="#5a3417" transform="matrix(-11.53175 -67.15803 16.60583 -2.8514 152.2 125.3)"/><path fill="#854b13" d="M43 175h35v16H43z"/><ellipse cx="7" cy="171" fill="#352e21" rx="109" ry="3"/><path fill="#8e581e" d="M93 172h42v8H93z"/><path fill="#2e2317" d="M74 182h52v1H74z"/><circle r="1" fill="#643a17" transform="matrix(.12898 -36.95116 18.08988 .06315 29.2 133.7)"/><ellipse cx="104" cy="8" fill="#875624" rx="46" ry="3"/><path fill="#22140e" d="M23 94l-32 4 7-13z"/><path fill="#8d4206" d="M53 45h21v17H53z"/><path fill="#463721" d="M82 135h55v2H82z"/><path fill="#d59b3e" d="M90.9 119.7l-9.1-6.9-9 11.1 23.3-15.4z"/><path fill="#fddfab" d="M75 136h17v2H75z"/><ellipse cx="85" cy="159" fill="#f5caa9" rx="5" ry="3"/><path fill="#975814" d="M94 183h23v7H94z"/><ellipse cx="166" cy="223" fill="#23211b" rx="24" ry="3"/><path fill="#67441f" d="M55 202h48v4H55z"/><circle r="1" fill="#824614" transform="matrix(-21.15018 4.4185 -1.58934 -7.60776 37.4 36.7)"/><path fill="#ffd120" d="M93.9 30.4l2.7 15.1-.3-.4-12.5-16.3z"/><path fill="#7c5527" d="M62 241h59v3H62z"/><circle r="1" fill="#7f4010" transform="matrix(-5.24653 -5.638 23.33257 -21.71252 116.7 56)"/><path fill="#252b22" d="M107 169h53v2h-53z"/><circle r="1" fill="#572d14" transform="matrix(7.4993 -9.26086 34.72377 28.11875 33.4 68)"/><path fill="#ffbe0a" d="M85 53L72 42l3-6z"/><path fill="#945515" d="M100.3 138.9L122.4 81l-13.1 51.4-29.1 3.6z"/><path fill="#46321a" d="M23 244l54-24-87 6z"/><path fill="#a75904" d="M114.5 132.5h-41v-1h41z"/><path fill="#2b271d" d="M185 208l-42-17-41 13z"/><circle r="1" fill="#724b24" transform="matrix(-43.03947 -10.32083 1.97135 -8.22084 16.7 3.3)"/><path fill="#a35809" d="M58.7 161.6l3.4-7.2 17.2 8-3.4 7.2z"/><ellipse cx="129" cy="214" fill="#27251d" rx="38" ry="2"/><circle r="1" fill="#2d281d" transform="rotate(-.3 47433.2 -16040) scale(40.0385 1)"/><ellipse cx="59" cy="254" fill="#101413" rx="118" ry="3"/><circle cx="86" cy="146" r="3" fill="#f1d1a1"/><path fill="#5a3a1b" d="M-20.4 19.6L-5-6l27.4 16.5L7 36z"/><path fill="#6b411b" d="M129 100h24v66h-24z"/></g></g></svg>