<svg xmlns="http://www.w3.org/2000/svg" viewBox="0 0 1800 1200"><defs/><filter id="a"><feGaussianBlur stdDeviation="12"/></filter><rect width="100%" height="100%" fill="#453f3e"/><g filter="url(#a)"><g fill-opacity=".5" transform="translate(3.5 3.5) scale(7.03125)"><circle r="1" fill="#d1e3e8" transform="matrix(-9.54077 -86.39003 198.98918 -21.97604 110.8 52.4)"/><circle r="1" fill="#87c6ff" transform="matrix(89.9812 -16.7276 7.8894 42.4387 48.8 48.9)"/><circle r="1" fill="#a87439" transform="matrix(48.73937 47.81896 -41.57173 42.3719 194.7 76.8)"/><circle r="1" fill="#00366d" transform="matrix(-6.26332 -17.84804 74.43732 -26.1219 4.7 126)"/><circle r="1" fill="#1a2530" transform="matrix(11.77324 20.91284 -29.47104 16.59123 191.4 113.6)"/><circle r="1" fill="#e2af6a" transform="matrix(-83.6019 57.09919 -15.74782 -23.05721 141.8 90)"/><path fill="#2b78cf" d="M-1.8-9.8l254-22.2 3.6 41.8L1.8 32z"/><path fill="#171417" d="M215 46l-3 38 36-18z"/><ellipse cx="66" cy="75" fill="#d9d7c7" rx="48" ry="19"/><path fill="#c4ac86" d="M222 80h29v45h-29z"/><path fill="#5aa8fc" d="M232 16h19v43h-19z"/><path fill="#75634e" d="M108 124h80v18h-80z"/><path fill="#222423" d="M224 170l-36-8 31-99z"/><path fill="#513821" d="M125 68l-1 34-16-22z"/><path fill="#f1c280" d="M80 75h30v59H80z"/><circle cx="189" cy="41" r="31" fill="#c5935e"/><ellipse cx="240" fill="#3b82cc" rx="43" ry="25"/><ellipse cx="9" cy="108" fill="#325c85" rx="74" ry="16"/><path fill="#9cc1e7" d="M0 43h138v18H0z"/><path fill="#d8b27f" d="M133 64h25v67h-25z"/><path fill="#d6aa6f" d="M69.2 118.1L55 120l-15 13.8 73.7 16.8z"/><ellipse cx="141" cy="45" fill="#00000a" rx="3" ry="14"/><circle r="1" fill="#5890cd" transform="rotate(56.1 65 134.8) scale(23.84309 50.24446)"/><path fill="#554d45" d="M152 135l-12 50-34-65z"/><circle r="1" fill="#3f3e34" transform="rotate(-68.1 141 40) scale(19.00976 42.54598)"/><circle r="1" fill="#c9a97c" transform="matrix(-8.78924 -3.06074 10.77691 -30.94708 245 90.8)"/><ellipse cx="192" cy="73" fill="#d3b88a" rx="22" ry="13"/><ellipse cx="7" cy="76" fill="#afc3d0" rx="72" ry="18"/><path fill="#caa67b" d="M236.7 52.1l-61.8 1L237 25.2l-3.1 14.1z"/><path fill="#282226" d="M228 59l25-1-21 18z"/><circle r="1" fill="#b86d33" transform="rotate(82.3 80.1 114.4) scale(7.72156 19.39004)"/><ellipse cx="155" cy="42" fill="#5d4128" rx="4" ry="17"/><ellipse cx="49" cy="23" fill="#6b97c8" rx="106" ry="14"/><path fill="#e8c28b" d="M144.9 131.3l-47.1-58 16.1-4-9.3 45.3z"/><path fill="#545b5d" d="M219.2 134l35.2-24.7 10.4 14.7-35.2 24.7z"/><path fill="#504c46" d="M155.6 106.4l22.5 43.8 32-9.3 9.2-65z"/><circle r="1" fill="#5d5951" transform="matrix(.92858 -7.46247 43.22992 5.37926 92.3 152.6)"/><path fill="#b18c60" d="M129.6 78.7L183.2 51l-63.6 11.4-19.5 25.8z"/><path fill="#523831" d="M250 31h3v24h-3z"/><ellipse cx="174" cy="42" fill="#806a4d" rx="5" ry="21"/><path fill="#62442f" d="M230 50l10 12-50-5z"/><path fill="#3f6485" d="M79 92l-81 4-14 66z"/><path fill="#123b65" d="M68 109h12v9H68z"/><path fill="#6f6656" d="M218.5 95l.1-15.9 9.8-4.2 4.4 30.8z"/><path fill="#c6a477" d="M243 104l28-28-15-51z"/><ellipse cx="70" fill="#4a81b9" rx="187" ry="14"/><path fill="#574f43" d="M135 71l-1 8-21-8z"/><path fill="#a3c5de" d="M-16 76.8l125.9-6.1 17.2-4.8-55.4-20.8z"/><path fill="#f1c68a" d="M50 122l9-3-3 23z"/><circle cx="187" cy="47" r="10" fill="#cdb996"/><path fill="#c3a378" d="M117.2 121.3L161 79.2l-3 43.7 12.7 18.2z"/><ellipse cx="63" cy="130" fill="#75563c" rx="3" ry="10"/><path fill="#d3b283" d="M122.6 76.2l55.1-17.4-61.6 9.9 7.2-3.4z"/><path fill="#e4c596" d="M66 127h43v11H66z"/><path fill="#3e393c" d="M164 75h3v20h-3z"/><path fill="#1a292e" d="M18 138l13 24-45 5z"/><path fill="#45352e" d="M116 88h10v11h-10z"/><path fill="#87b4e0" d="M233 39h16v20h-16z"/><path fill="#5a8cc2" d="M224.9 23L186.3 6.9 271 9.1 250.1 35z"/><path fill="#ffffe1" d="M167 36h2v20h-2z"/><path fill="#b5854d" d="M34 142l-1.3-4.8 21.4-5.3 1.2 4.9z"/><path fill="#764720" d="M136 36l20-13 20 2z"/><path fill="#2c2822" d="M210.3 146.1l57.8 31.7-66.2-9.4-32.4-18.5z"/><path fill="#81654b" d="M162 83.6l-9 .8-1-12 9-.8z"/><path fill="#d5c4a5" d="M153 98l21-1-23-15z"/><path fill="#5b82a9" d="M0 93h80v6H0z"/><path fill="#d4b586" d="M80 74h29v57H80z"/><path fill="#7fa8d4" d="M0 25h139v28H0z"/><path fill="#d39e60" d="M158 29h76v5h-76z"/><path fill="#b79e7b" d="M271 77l-48-1 22 26z"/><path fill="#caab7b" d="M168.9 78.3l39-12.7 5.2 16.1-39 12.7z"/><path fill="#b99b74" d="M224.1 111.2l46.9-89L239.1 123l-18.6.5z"/><path fill="#67584b" d="M134.3 166.7l-41.1-16.4 16.6-12.4-.5-24.1z"/><path fill="#385774" d="M-16 135l63-32v27z"/><path fill="#865f38" d="M198 29h3v27h-3z"/><path fill="#bb935f" d="M202 57h14l-6 23z"/><path fill="#c8985f" d="M145 33h8v44h-8z"/><circle r="1" fill="#a4b1b9" transform="matrix(.15652 -7.1834 45.8811 .99971 34 87.4)"/><path fill="#cdaf82" d="M168.2 55.2l-24.3 34.9-26.5 36.7 13.5-47.3z"/><path fill="#9bbcd8" d="M9 47h130v13H9z"/><path fill="#5f5c5e" d="M166 156l-22-27 25 4z"/><path fill="#ac6f3d" d="M202.5 15.5l-25.2-.2 6.9 7.8 53.5 7.7z"/><path fill="#8f623c" d="M139 56h64v3h-64z"/><path fill="#333939" d="M67 147l-11 26 105 4z"/><path fill="#575551" d="M245.3 102.9L264 94l-49 73.2 48.2-35.7z"/><path fill="#dcc096" d="M126.4 103.1l-24.2-15.9 16.7 38.6 4.8-15.2z"/><path fill="#cba571" d="M138.4 135.7L120 113.8l11.4-19.4 31.1 9.4z"/><path fill="#a95318" d="M25.5 131l4.8 3.6-1.8 2.4-4.8-3.6z"/><path fill="#402c1a" d="M122.1 89.2l-10.9-1.5.7-5 10.9 1.6z"/><path fill="#471a01" d="M254.8 28.8l-2.6 10.7-1-.3 2.6-10.7z"/><path fill="#352a1a" d="M13.6 144.3l42.4 9.5L45 140l-29 1.5z"/><path fill="#252424" d="M209 117h12v49h-12z"/><path fill="#b07e50" d="M155.6 59.7l-25.7 9.4-6.7-7.2 2.1-2.3z"/><path fill="#473e38" d="M229 50l-14.8 34.2 43-33.6L242 68z"/><path fill="#49453e" d="M198.9 88.4l29.8 49.1-6.8 45.2-.5-106.8z"/><circle r="1" fill="#000d15" transform="matrix(3.44123 -.08945 .10979 4.22382 153 154.4)"/><path fill="#59422e" d="M176 18h2v30h-2z"/><path fill="#cf8d57" d="M154.3 24.5l22.8-13.2 4 11.4-23.9 3.7z"/><path fill="#a9885c" d="M238 74l8-9 10 5z"/><path fill="#d3a064" d="M213 33h20v19h-20z"/></g></g></svg>