<svg xmlns="http://www.w3.org/2000/svg" viewBox="0 0 3119 4678"><defs/><filter id="a"><feGaussianBlur stdDeviation="12"/></filter><rect width="100%" height="100%" fill="#3c525e"/><g filter="url(#a)"><g fill-opacity=".5" transform="translate(9.1 9.1) scale(18.27344)"><circle r="1" fill="#dcc7b6" transform="matrix(-169.80536 -8.13269 5.7035 -119.08538 87 164.3)"/><circle r="1" fill="#3d3637" transform="rotate(-79.6 110 22.8) scale(104.22538 17.85925)"/><circle r="1" fill="#fff" transform="matrix(-35.61494 9.67636 -2.67196 -9.83446 28.8 .2)"/><ellipse cx="145" cy="99" fill="#d5d8d6" rx="51" ry="30"/><circle r="1" fill="#2b3b42" transform="matrix(-3.3599 -62.03876 7.2518 -.39274 25.6 144.2)"/><ellipse cx="167" cy="189" fill="#beb9b2" rx="24" ry="134"/><ellipse cx="4" cy="134" fill="#b9c6cb" rx="11" ry="89"/><ellipse cx="123" cy="25" fill="#9c99a3" rx="30" ry="11"/><circle r="1" fill="#473632" transform="rotate(167.1 45 102.6) scale(10.98535 25.67617)"/><path fill="#3c2c25" d="M94 144l-2-59-51 53z"/><circle r="1" fill="#121e31" transform="matrix(-.24562 -4.01589 32.1796 -1.96819 136.5 66.2)"/><path fill="#2f2836" d="M118 126h16v34h-16z"/><ellipse cx="10" cy="68" fill="#86a7be" rx="59" ry="21"/><path fill="#b5b7ca" d="M35 159h38v17H35z"/><path fill="#525441" d="M124 51l-136-4L58-5z"/><ellipse cx="164" cy="16" fill="#4a410c" rx="23" ry="42"/><path fill="#d8d9cb" d="M76 130h7v34h-7z"/><path fill="#b4bcc5" d="M85 73l1-20 72-3z"/><circle r="1" fill="#b0a899" transform="rotate(-107.6 139.8 88.7) scale(29.3744 55.88632)"/><path fill="#3b3a3b" d="M20.4 129.5L37 194.2 8.7 143.4l8.8-21z"/><path fill="#babebe" d="M44 143.5l14.6-67.6L6.2 91l22.5-13.6z"/><path fill="#003b51" d="M45 158.8L41.3 134l17.7-2.9 4 24.7z"/><ellipse cx="106" cy="132" fill="#c5c4ba" rx="12" ry="21"/><circle r="1" fill="#b2ac9f" transform="rotate(36.4 -357.2 136.5) scale(14.08786 53.93578)"/><path fill="#3e1d0e" d="M80 129l17 15 1 27z"/><ellipse cx="8" cy="31" fill="#768189" rx="51" ry="7"/><path fill="#c6cac3" d="M53 113l5 12 8-36z"/><path fill="#1c232b" d="M127 39l-71 5 19 13z"/><path fill="#484442" d="M142 191l-35-2v30z"/><path fill="#52413d" d="M57 71h35v23H57z"/><ellipse cx="27" cy="127" fill="#37788a" rx="15" ry="13"/><ellipse cx="76" cy="114" fill="#00000a" rx="13" ry="5"/><path fill="#412420" d="M134 163l-11-6 18 28z"/><path fill="#afc8ec" d="M71-16L-4-2l14 21z"/><circle cx="83" cy="204" r="19" fill="#b5ac9c"/><path fill="#213047" d="M113 59h26v10h-26z"/><circle r="1" fill="#615c57" transform="matrix(9.09027 3.68203 -7.12186 17.58262 50.1 230.2)"/><path fill="#73665f" d="M10.9 215l108.6-52.1L-1.4 201-16 169.9z"/><path fill="#242817" d="M167 21l19-23L84-16z"/><ellipse cx="7" cy="114" fill="#b9c7d2" rx="14" ry="12"/><path fill="#cacebc" d="M63 140h4v36h-4z"/><path fill="#b2b8ba" d="M92 73h79v19H92z"/><path fill="#37221c" d="M46.7 146.2L33.9 126l3.4-2.1L50.1 144z"/><path fill="#6f615a" d="M88 62l11 58-23-17z"/><path fill="#b1b4b2" d="M182.5 136l-31.2-87.6-18.4 86.7L186 195z"/><path fill="#b8bbbc" d="M90.7 68.6l-8.9-1.5 3.5-19.7 8.9 1.5z"/><ellipse cx="22" cy="97" fill="#42363d" rx="10" ry="7"/><path fill="#bab3a3" d="M30 160l7-28 10 67z"/><circle r="1" fill="#525449" transform="matrix(-53.05372 11.49667 -3.67011 -16.93647 77.1 12.7)"/><path fill="#007ba3" d="M45.2 157.6l2.6-11 17.3 1.4-3.8 12.4z"/><path fill="#bbb6a9" d="M19 190L5 100l-21 127z"/><path fill="#7e9baa" d="M0 49h69v21H0z"/><path fill="#383d3b" d="M164.2 32.5L102 54.6l-61.3-6.5-31.5-1.8z"/><path fill="#362c26" d="M119 124h13v16h-13z"/><path fill="#3d2224" d="M142 142.8l3.8 17.6-3.9.8-3.7-17.6z"/><path fill="#a09ea1" d="M112.6 134.9l30.9 18.3-47.2-2.9-7.1-42.6z"/><path fill="#643e33" d="M32 161l2 31-21-40z"/><path fill="#81a1c8" d="M108 17l-6 17 25-4z"/><path fill="#c7c0b1" d="M116 158v24h19z"/><path fill="#bcb9ab" d="M54 188l5 20-8-2z"/><circle r="1" fill="#563f34" transform="matrix(-5.07052 -35.46404 3.58652 -.51279 72 149.5)"/><path fill="#6f7445" d="M186 59.8L143.9 24l17-8-19.3 34.4z"/><path fill="#8e8e87" d="M43 24l-5 16 21 2z"/><circle r="1" fill="#070c13" transform="matrix(2.11287 .42987 -1.86062 9.14523 18.9 140.7)"/><circle r="1" fill="#bcc6c6" transform="matrix(4.6351 3.78415 -10.6974 13.10294 43 102.6)"/><path fill="#c4b9be" d="M62.5 56.2l9.4 3.4-4.4 12.2-9.4-3.4z"/><path fill="#6a5e5e" d="M103.7 167l-60.3 24.1 72.6-16.9 2.9-27.3z"/><path fill="#76857b" d="M102.3 54.5l-20.9-9.2L80.1 26l-16.6.3z"/><path fill="#b7b4a7" d="M93 163l-15 10-1-45z"/><path fill="#251b17" d="M53 146l19-19-23 1z"/><circle r="1" fill="#a7a49a" transform="matrix(-19.13266 13.59687 -70.80763 -99.63602 15 255)"/><path fill="#58423b" d="M61 100l-2-24-10 47z"/><path fill="#bab1a2" d="M106 172h5v15h-5z"/><path fill="#5e6982" d="M152.6 33.3l-27 .4-.2-13 27-.4z"/><path fill="#5d514a" d="M62.4 159l.7 27.9 8.2 3.4-28 9.8z"/><ellipse cx="112" cy="209" fill="#2b161e" rx="9" ry="4"/><path fill="#bfb9aa" d="M103.1 181.2L93 194.8l-8-6 10-13.6z"/><path fill="#585f51" d="M0 12h19v13H0z"/><ellipse cx="12" cy="44" fill="#1e2d2a" rx="31" ry="4"/><path fill="#d7ddd6" d="M86.8 94.8l1-.2 3.4 14.6-1 .2z"/><path fill="#48342f" d="M98.3 120.8l-3 .6-7.6-36.2 3-.6z"/><path fill="#cacacc" d="M152 57h19v4h-19z"/><path fill="#aca497" d="M120.3 206.4l40.2-15.4 7.2 18.6-40.2 15.4z"/><path fill="#3f433e" d="M62.7 6.6L25.3 29.7 52 28.1l31.2 55.2z"/><path fill="#adb5bb" d="M9.8 153.8L-16 93.7l32.6-7-.7 14z"/><path fill="#272a24" d="M90 44l39 5-12-16z"/><path fill="#6c6863" d="M101.2 186.7l-6.3 8.5 26.7 8.9 27.3-17.8z"/><path fill="#b4b0a4" d="M105 167l-10-25 34-43z"/><path fill="#b3ada5" d="M131.8 135.3l25.3 66.2-21.5-33.6 2 9.2z"/><circle r="1" fill="#626974" transform="matrix(-36.60028 6.90372 -.73478 -3.89545 169.6 63.8)"/><path fill="#b2b1ad" d="M43.5 139l16.3-62.3-26.5 26.6 16.3 36.4z"/><ellipse cx="48" cy="68" fill="#7c7d7b" rx="20" ry="7"/><path fill="#b3b0a5" d="M20 189l-29-23 30-1z"/><path fill="#819299" d="M18.1 21.2l-3.1-.3v14.9l-31-3.5z"/><path fill="#c09f87" d="M119 22l-15-6 28 3z"/><path fill="#44322c" d="M61 209l10-3-11-8z"/><path fill="#0e1a26" d="M63.5 118.1l20.8 2 6-2.4-26-12.4z"/><path fill="#aeb1ac" d="M64 122l-3-23-8 19z"/><path fill="#614f48" d="M21 165h14v32H21z"/><path fill="#424735" d="M103 0h46v14h-46z"/></g></g></svg>