<svg xmlns="http://www.w3.org/2000/svg" viewBox="0 0 1800 1200"><defs/><filter id="a"><feGaussianBlur stdDeviation="12"/></filter><rect width="100%" height="100%" fill="#47443d"/><g filter="url(#a)"><g fill-opacity=".5" transform="translate(3.5 3.5) scale(7.03125)"><circle r="1" fill="#93beea" transform="rotate(147.6 66.2 64.2) scale(138.6742 147.37372)"/><circle cx="239" cy="73" r="82" fill="#6bb5ff"/><circle r="1" fill="#3a2c15" transform="matrix(16.48298 -11.49906 55.92065 80.15778 142.6 101.6)"/><ellipse cx="228" cy="132" fill="#e5ecf0" rx="40" ry="24"/><circle r="1" fill="#86704e" transform="matrix(-66.7243 -117.45602 49.29044 -28.00087 89.4 145.4)"/><circle r="1" fill="#337cd5" transform="matrix(136.9124 45.81025 -12.00288 35.87284 192.4 19.3)"/><circle r="1" fill="#eeb971" transform="matrix(-3.07646 -11.2043 19.88493 -5.45997 57.3 21)"/><ellipse cx="91" cy="169" fill="#55584c" rx="179" ry="15"/><circle r="1" fill="#6da4e2" transform="rotate(-24 245 -372.7) scale(22.58476 67.1378)"/><path fill="#64441d" d="M74 3L47-3 7 32z"/><circle r="1" fill="#212626" transform="rotate(140.6 46 67.2) scale(9.53949 41.01677)"/><circle r="1" fill="#5e5c53" transform="matrix(-6.8167 10.5367 -26.7547 -17.3089 117.4 41.7)"/><circle r="1" fill="#366eac" transform="rotate(-78 131 -142) scale(30.77846 55.34022)"/><path fill="#d7dfe4" d="M200 157l-22-46 43 49z"/><path fill="#948d7c" d="M78.7 140l-31-107.7L83.4 22l31 107.6z"/><ellipse cx="218" cy="107" fill="#8bb5e3" rx="46" ry="19"/><path fill="#44443e" d="M104.7 198l-13.5-27.8 70-34.2 13.6 27.8z"/><circle r="1" fill="#6d9eda" transform="matrix(28.64622 -13.81908 10.11898 20.9761 109.1 0)"/><path fill="#8fa5c7" d="M145 170l79 10-34-17z"/><circle cx="45" cy="134" r="18" fill="#979a9c"/><path fill="#8a887f" d="M43.9 14.3l17.4 67.2-17.6 1L3.2 38.1z"/><path fill="#848265" d="M58 158l-36 27-23-31z"/><circle r="1" fill="#222d28" transform="matrix(7.2784 -6.43117 15.03877 17.01996 4 89)"/><circle r="1" fill="#538bcc" transform="rotate(-141.2 88.3 -16.1) scale(84.76883 30.46591)"/><path fill="#f4d6a9" d="M75 13L54 34l-8-17z"/><path fill="#2d2e23" d="M16 113l-26 36 44 7z"/><path fill="#334e79" d="M271 157l-45.4-.9-6.7 2.6-7 19.3z"/><path fill="#202f2d" d="M0 45h14v32H0z"/><path fill="#666560" d="M75.8 21.4l70 49.9-8.8-30.2-22.9-18.8z"/><ellipse cx="165" cy="67" fill="#639ad9" rx="21" ry="20"/><circle r="1" fill="#6a6559" transform="matrix(-24.42484 -33.82248 6.62244 -4.78238 173 126.7)"/><path fill="#a09b90" d="M145 135h-20l-14-40z"/><path fill="#c3d0da" d="M198.5 150.1L187.1 119l83.9 28.6-4 9.9z"/><circle cx="180" cy="169" r="4" fill="#ffe"/><path fill="#343b36" d="M119.3 72.1L80.9 46.5l8.4.8.9-22.2z"/><path fill="#7f888c" d="M107.4 39l32.3 15.7-3 6.3-32.4-15.7z"/><path fill="#2b2a24" d="M165 149l-24-31h16z"/><path fill="#9b7c57" d="M32 7l1 17L72 7z"/><path fill="#5b656f" d="M163 99l-33-44-16 23z"/><path fill="#827d6c" d="M95.3 61.9L51.7 30.7 35.6 62.1l44-54.5z"/><path fill="#6e6a62" d="M98 99.4l39.3 45.4 49.7 22.3-71.2-12.1z"/><path fill="#fae5ce" d="M202 155h17v5h-17z"/><path fill="#7c8182" d="M15.9 88.2l28.6 32.1-3.3-41-41.4-2.1z"/><path fill="#575d5a" d="M23 102l10 40-22-33z"/><path fill="#7a89a7" d="M227 151.5v5h-28v-5z"/><circle r="1" fill="#94938a" transform="rotate(-128.1 60.3 20.3) scale(27.3241 12.04463)"/><circle r="1" fill="#73a4da" transform="matrix(3.68027 -19.19788 80.1897 15.3725 233.5 96.7)"/><path fill="#6094d2" d="M149.1 44.5L135.2 6.7l-67.8-.1 6.2-11.5z"/><path fill="#403e37" d="M34.5.4L47.2 5l15-13.9.5 19.7z"/><path fill="#3c3b37" d="M-16 36.8l32.4.8L32.1 1.1 31.8 17z"/><path fill="#7a7062" d="M79.4 118.3l-16.9 10.9-5.3 19.1 61.4 17.1z"/><ellipse cx="148" cy="165" fill="#3b3a30" rx="29" ry="3"/><path fill="#96bade" d="M184 105h72v24h-72z"/><path fill="#4a4637" d="M49 165h88v5H49z"/><path fill="#6d696a" d="M34.2 8.7l10.5-5-25.6 13.8L31.2-16z"/><circle r="1" fill="#5188c7" transform="matrix(-9.07293 16.92095 -118.56693 -63.57503 238 58.8)"/><path fill="#a39b90" d="M31 17h12v19H31z"/><path fill="#2b2c24" d="M124 94l4-15 26 27z"/><path fill="#18201a" d="M99 72l16 14-14-24z"/><path fill="#4a5156" d="M100.2 32l1.2-9 32.3 13.2 8.5 11.2z"/><path fill="#785f3f" d="M61 10l1.3-6L81 8l-1.2 6z"/><circle r="1" fill="#6196d3" transform="matrix(4.8797 -17.96715 72.42194 19.6691 220 74.2)"/><circle r="1" fill="#807e75" transform="matrix(26.57193 -7.21943 8.4471 31.09052 39.2 58)"/><path fill="#f8e2b4" d="M59 36l-3-6 7-12z"/><ellipse cx="51" cy="156" fill="#545747" rx="35" ry="3"/><path fill="#818588" d="M114 158.7l-11.7 2.7-8.3-36 11.7-2.8z"/><path fill="#546d92" d="M185 164h30v6h-30z"/><path fill="#1e2823" d="M102.1 62.4l11 7.2.5-17 10.7 2.5z"/><circle r="1" fill="#232216" transform="rotate(-70.2 110.5 66.5) scale(4.33859 18.75317)"/><path fill="#464139" d="M1 122h26v21H1z"/><circle r="1" fill="#dec298" transform="matrix(1.195 3.9861 -11.85615 3.55436 62 17.2)"/><circle r="1" fill="#366fb0" transform="matrix(6.08499 -11.31785 50.58992 27.19945 239.7 4.2)"/><path fill="#71706e" d="M148.2 130.1l-9.8 5.4-33.2 27.5 49.2-15.5z"/><circle r="1" fill="#4781c2" transform="matrix(70.17282 38.4185 -7.4943 13.68863 194 17)"/><path fill="#6386b9" d="M36.5 1.7l-6.7-3.8 3.6 10.4L44.1 2z"/><path fill="#6c6d66" d="M156.1 109.7l-21.8-43 48.6 55.4-21.2-5.4z"/><path fill="#ada096" d="M87 20h24v3H87z"/><path fill="#115082" d="M262 166l1-10h-28z"/><path fill="#838579" d="M59.1 25.9l46.5 24-13.8-7.1-10-25.7z"/><path fill="#8d877c" d="M89.9 112.5l-33.2-6.1-2.5 35.7 44.2-57.4z"/><path fill="#31312d" d="M46.6-8.2L-16 28.4l26.1 10.8L-8.4 8.1z"/><path fill="#353436" d="M153 135l2 21h8z"/><path fill="#282b28" d="M12.9 104.7l-23-61.3 28.6 33.2L-16 65.3z"/><path fill="#939593" d="M19 112l30 34 10-16z"/><path fill="#908e86" d="M26.1 50.8l-11.6-7.9L32 17.2l11.6 7.9z"/><path fill="#3a3b35" d="M89.5 49.3l9.9-23.1-13.9-.9 39.7 83.9z"/><path fill="#666a6a" d="M12 107l5 13 34-10z"/><path fill="#777167" d="M44.5 30.1L32.9 59.2 84.3 17 48.1 41.1z"/><path fill="#8b8b86" d="M22.5 95.4L14 80.3l32.8 3.1 1.9-38.8z"/><path fill="#80a0cd" d="M138 169h13v1h-13z"/><path fill="#6a6f71" d="M3.2 74.2l20.2 21.5-2.2-3.4L6.3 69.9z"/><path fill="#6a604b" d="M2.4 25.9l.4-1.4L44.6 5.3 5.2 16.6z"/><path fill="#7b7365" d="M82 73l-2 18-35 18z"/><path fill="#a2c3dd" d="M200 153l-22-41 18 1z"/><path fill="#9f9f97" d="M80.1 36.9l2-.2L92 129l-2 .2z"/><ellipse cx="152" cy="59" fill="#6199d7" rx="8" ry="20"/><path fill="#9b9c95" d="M110 83l2 23 5-5z"/><path fill="#333736" d="M189 161h21v3h-21z"/><path fill="#8f9db9" d="M199 153h57v3h-57z"/><path fill="#2d2e2d" d="M32.3 16L15.7 30.2l-2-2.2 16.6-14.4z"/></g></g></svg>