<svg xmlns="http://www.w3.org/2000/svg" viewBox="0 0 1800 1013"><defs/><filter id="a"><feGaussianBlur stdDeviation="12"/></filter><rect width="100%" height="100%" fill="#4b4a3e"/><g filter="url(#a)"><g fill-opacity=".5" transform="translate(3.5 3.5) scale(7.03125)"><circle r="1" fill="#a5e7ff" transform="matrix(-6.22333 56.47795 -253.46586 -27.92952 116 30)"/><circle r="1" fill="#e9e7ff" transform="matrix(-57.58227 7.96047 -4.32562 -31.28945 45.7 44)"/><ellipse cx="233" cy="34" fill="#5383db" rx="165" ry="62"/><ellipse cx="137" cy="133" fill="#0b4897" rx="255" ry="13"/><path fill="#5c5739" d="M238 98L43 69l61 48z"/><circle r="1" fill="#fffdf7" transform="rotate(9.7 -325.4 76.5) scale(124.04079 6.52029)"/><circle r="1" fill="#3a6cb5" transform="matrix(4.03596 -28.00764 223.15147 32.15662 154 0)"/><path fill="#91adce" d="M271 100L116 79 46-9z"/><path fill="#141d20" d="M0 88h87v34H0z"/><path fill="#fffaef" d="M114 26L28 7l45 25z"/><path fill="#4b4e3c" d="M175 122l-44-48L-9 96z"/><path fill="#618ec5" d="M20 50l137-29 92 65z"/><path fill="#647491" d="M0 126h77v18H0z"/><path fill="#f5ebd9" d="M184.7 89.6l-34.1-12.3-20.3 1.7 33.1 10.4z"/><path fill="#5e88d0" d="M76.2-16l60.2 46.2-147.1-41.1 12 44.1z"/><path fill="#faf4eb" d="M40 78l26-18-82-1z"/><ellipse cx="231" cy="135" fill="#0e3258" rx="128" ry="15"/><path fill="#fff" d="M80 74l24 5 3-12z"/><ellipse cx="65" cy="81" fill="#484d47" rx="18" ry="11"/><circle r="1" fill="#595845" transform="matrix(32.72662 3.09358 -1.97868 20.93227 121 98.6)"/><path fill="#6b93c6" d="M88 68l82-25L55 29z"/><path fill="#141b20" d="M31 96l85 23-92 1z"/><path fill="#e7e6e7" d="M0 33h17v38H0z"/><ellipse cx="171" cy="96" fill="#787050" rx="55" ry="6"/><ellipse cx="238" cy="80" fill="#83a4c7" rx="76" ry="14"/><circle r="1" fill="#0b161d" transform="matrix(.01247 -3.57193 27.24703 .09511 248.5 113.1)"/><circle r="1" fill="#4978b1" transform="rotate(175.5 119.4 7) scale(105.92523 42.14715)"/><path fill="#5983c4" d="M26 23h15v10H26z"/><ellipse cx="39" cy="38" fill="#ede9e9" rx="19" ry="5"/><path fill="#656a58" d="M11.5 78.4l-1.2-8.8 15.4 4.2 83.8 18.7z"/><path fill="#2c362f" d="M176 126.3l-20.1-14.5-5.9-26.5 26 23.1z"/><path fill="#484d40" d="M134 91l-75 23 18-39z"/><path fill="#82a5cf" d="M91 51.6l95 20.9-55.1 6.8-51.7-18.9z"/><path fill="#bdc5d7" d="M13 17h13v37H13z"/><path fill="#f2f1ed" d="M164.5 80.6l-1.7 5.8-17.3-5 1.7-5.8z"/><path fill="#e9e8e9" d="M45 16h35v12H45z"/><ellipse cx="152" cy="31" fill="#5686bf" rx="32" ry="20"/><circle r="1" fill="#a6b4cd" transform="rotate(-40.5 94 -129.3) scale(6.68597 11.20967)"/><circle r="1" fill="#e5e4e9" transform="matrix(-11.29709 -7.03714 2.93256 -4.7078 79.3 68.7)"/><path fill="#3e597a" d="M39 121h52v23H39z"/><path fill="#646045" d="M112 86h47v19h-47z"/><path fill="#272f30" d="M45 107l9-20 49 4z"/><path fill="#698ecb" d="M53.5 16.2L36.9-16-16 25.9 78 .4z"/><circle cx="18" cy="90" r="17" fill="#3c3a2b"/><circle r="1" fill="#426ea8" transform="matrix(1.59368 -17.635 48.13716 4.35017 236 6.7)"/><path fill="#ebebe8" d="M34 78.4l6.7-2.3-51.7-9.6 42.2-16.2z"/><path fill="#5b757f" d="M187.5 120.2l-73 2.6v-1l73-2.6z"/><circle r="1" fill="#494f46" transform="matrix(18.4446 -13.8374 2.86355 3.81697 40.4 85.3)"/><circle r="1" fill="#5985b8" transform="rotate(147.6 43.3 17) scale(10.79815 16.22774)"/><path fill="#88835c" d="M203.5 117.4l.2-2 30.8 3.2-.2 2z"/><path fill="#5a5a46" d="M40.4 91.2L28.9 72l-9.2 4.9 87.3 34.6z"/><path fill="#2a3125" d="M14.6 87.2L0 90l31-7.6 33 24.5z"/><path fill="#807253" d="M216.4 92l22.9 4.9 31.7 1.3-8.6 8.3z"/><path fill="#cdcfd2" d="M36.5 78.9l25.9-13.2-14-5.7-24.3 12.3z"/><circle r="1" fill="#113455" transform="matrix(-78.55654 .27422 -.00456 -1.30692 129.6 125.4)"/><path fill="#3e4b4f" d="M154.9 87.9l-37.3-11.6 12.7 1L90 81.4z"/><path fill="#30362d" d="M109 99.8l5.8-9.9-33.3 29.6 30-17.1z"/><path fill="#081018" d="M7.6 100.2l-22 2.4-1.6 12.5 20.8 7.5z"/><ellipse cx="98" cy="73" fill="#f1ece8" rx="13" ry="5"/><path fill="#b0bbcc" d="M13 41l27 14-40-6z"/><ellipse cx="222" cy="42" fill="#5b88bf" rx="42" ry="14"/><path fill="#7496c9" d="M2.7-1.6L-16 35.7l60.6-17.1-20.3 14z"/><path fill="#cfd5df" d="M16 17.3l17 2.1-49 22.5 43.3-4.7z"/><path fill="#799dcb" d="M37.5 53.2l36-14 48.9 36.3-63.5-18.2z"/><path fill="#aebdda" d="M50.2 9.2l-15.9 1.1-14 20.6 25.6-13.1z"/><path fill="#d9dadc" d="M63.7 28.2l4.4-5.1 15.4-6 20.8 16.5z"/><path fill="#655e41" d="M24 81.6l-40-8.7 28-2 9.4 4z"/><ellipse cx="174" cy="87" fill="#bec5cb" rx="14" ry="3"/><path fill="#2b3325" d="M109 117h83v3h-83z"/><path fill="#111c29" d="M18 107h33v15H18z"/><path fill="#797952" d="M189 113h16v5h-16z"/><path fill="#4b473b" d="M8.6 105.6l36.5-16.4-38 29.9-1.7 9z"/><ellipse cx="143" cy="132" fill="#25476f" rx="49" ry="6"/><path fill="#aec1d6" d="M176.8 90.2l-53.9-16.6 15.9 9.3 3.8-3.1z"/><path fill="#81725d" d="M228.5 99.3l-23.7-8-8.6 7 12.7 2.5z"/><path fill="#8fa8c5" d="M271 88.3L228.2 70l42.8 31.6-34.5-7.8z"/><path fill="#6e6747" d="M96.8 109.5l6.9 10.8 42.8-37.4-40 25.4z"/><path fill="#5b5534" d="M62.6 111.9l31.5-2.1-5.6-10.1-28.3 5.1z"/><path fill="#18334f" d="M261.7 131.2l-68.8-4.4 55.9-8.9 22.2-4.4z"/><path fill="#2b476b" d="M47 135h66v6H47z"/><path fill="#536683" d="M0 127h57v17H0z"/><path fill="#5f6251" d="M58.8 85.5L45 92.1 29.3 78.5l183.3 17.7z"/><path fill="#676545" d="M190.5 100.3l-11.7-10.7-16.3.2 23.9 23.1z"/><circle cx="93" cy="116" r="6" fill="#161c25"/><path fill="#6d92c4" d="M115 41L49 28l32 21z"/><path fill="#eeecea" d="M61 61h7v11h-7z"/><path fill="#4e4f3b" d="M150 96h39v5h-39z"/><path fill="#505754" d="M151.9 85.4l9.5 2.4-17.2 5.6-35.1-17.6z"/><path fill="#353b2b" d="M191.6 108.9l-1.6 9.9-35.6-5.7 1.6-9.9z"/><path fill="#7199c6" d="M162 61h67v22h-67z"/><path fill="#7697c7" d="M25 46l14 9 21-6z"/><path fill="#5f88bf" d="M70-24.6l5.6 26.4L-32 24.6l-5.6-26.4z"/><path fill="#9fb2cf" d="M42.5 27.2l82.5 7.7-61.3-4.2-47.6 6.9z"/><path fill="#3c3e2d" d="M204.9 111.9l13.2.7 26.1-9.2-11-7z"/><path fill="#080f19" d="M21.1 99.9l-8 .2-.2-6 8-.2z"/><path fill="#292e25" d="M64 93.1l-40.5-1.9L35 83.5l17.4 35.8z"/><path fill="#7395c7" d="M16.6 11.2l29.7 6.9-62.3-.8L8.9 31.5z"/><path fill="#849fc5" d="M123.9 31.2l-28.5 6.3-4.4-3.1 33.2-13.7z"/><path fill="#cdd4de" d="M63.2 43.1l-6.4-16.2L74 11.3 50.6 44.2z"/><path fill="#44667f" d="M0 122h81v2H0z"/></g></g></svg>