<svg xmlns="http://www.w3.org/2000/svg" viewBox="0 0 4752 3168"><defs/><filter id="a"><feGaussianBlur stdDeviation="12"/></filter><rect width="100%" height="100%" fill="#3f302e"/><g filter="url(#a)"><g fill-opacity=".5" transform="translate(9.3 9.3) scale(18.5625)"><circle cx="213" cy="169" r="212" fill="#fffdd8"/><ellipse cx="246" cy="127" fill="#581800" rx="23" ry="119"/><ellipse cx="61" cy="151" fill="#ddedff" rx="43" ry="59"/><circle r="1" fill="#f9ffff" transform="rotate(-27 215 -390.5) scale(18.7175 37.788)"/><circle r="1" fill="#614319" transform="matrix(58.26847 35.847 -11.54555 18.76702 126.1 108.4)"/><ellipse cx="28" cy="76" fill="#100826" rx="96" ry="9"/><path fill="#fff1c1" d="M82-9l116-7L57 55z"/><ellipse cy="91" fill="#866549" rx="32" ry="60"/><circle r="1" fill="#b7c7eb" transform="rotate(5.3 -1288 2282.8) scale(15.24294 100.4234)"/><circle r="1" fill="#dcbc75" transform="matrix(-44.37272 -58.42275 21.49876 -16.32854 152.8 50)"/><circle r="1" fill="#140e00" transform="matrix(-16.74574 20.6932 -6.05119 -4.89685 168 128.8)"/><circle r="1" fill="#b7c2d9" transform="matrix(78.79581 33.30385 -12.51174 29.60235 101.2 165)"/><path fill="#ccad66" d="M112 98.5l49.3-22 14.7 33-49.3 22z"/><ellipse cx="213" cy="17" fill="#5e3d2d" rx="45" ry="7"/><ellipse cx="22" cy="16" fill="#713902" rx="32" ry="41"/><path fill="#c3cdd5" d="M-15.3 148.2l20.4-21.5 15.4-42.9-9 11.5z"/><ellipse cx="112" cy="46" fill="#cba348" rx="38" ry="22"/><path fill="#8393be" d="M142 172l53-62 38 75z"/><circle r="1" fill="#f0f3e9" transform="rotate(-53.2 60.2 -71.5) scale(30.71387 10.15808)"/><path fill="#dce3ee" d="M53.2 84.3l22.1 3.6-64.7 90.6-18.1 6.5z"/><ellipse cx="22" cy="74" fill="#221e2b" rx="41" ry="10"/><path fill="#e2e4e2" d="M162 30h61v22h-61z"/><path fill="#565161" d="M72 73h78v14H72z"/><ellipse cx="240" cy="69" fill="#8a6136" rx="17" ry="70"/><circle r="1" fill="#abbbd0" transform="matrix(-.07324 .99731 -156.87375 -11.52009 19.8 63.4)"/><path fill="#514837" d="M126.6 134.8l30-19.4 25.7-11.5-27.6 51.5z"/><path fill="#fabf6a" d="M-16 52.2L8.2 62.3 2.4 42.2-.4 30.7z"/><ellipse cx="244" cy="169" fill="#5d3e1a" rx="21" ry="56"/><path fill="#976e50" d="M188 28.9L151 8l45.6 1 73.5 26.9z"/><path fill="#98653b" d="M30.7 82.1L47 92l-57.7 96-16.3-10z"/><path fill="#d2c4a3" d="M188.1 57.4l-9.8-27.7L117.7-16l53.7 85z"/><path fill="#7a4321" d="M33 71l30-42-8 26z"/><path fill="#d4c08f" d="M68.8 67L145-16 58.5 44.6l-5.8 10.7z"/><path fill="#3d3232" d="M-.4 147l13.8-42.4-5.1 16.2L48.9 51z"/><path fill="#5f2f02" d="M44.6 6.1L63-21.2l22.4 15L67 21.3z"/><path fill="#b3b19e" d="M89.2 149.8L68.9 84.9 92.3 105l27.6 33.6z"/><path fill="#110100" d="M99 92l-2 15 9-1z"/><path fill="#bb9e6b" d="M163 69L92 5l46 3z"/><path fill="#463e39" d="M262.9 26.7l-70.6-7.4.8-8 70.6 7.4z"/><ellipse cx="248" cy="2" fill="#bb9f92" rx="56" ry="13"/><path fill="#635640" d="M193 75l2 9 8-7z"/><path fill="#d3d9dd" d="M199 30h24v70h-24z"/><ellipse cx="220" cy="169" fill="#b1bad5" rx="4" ry="98"/><path fill="#757a90" d="M173 158l-61-34 29 36z"/><circle r="1" fill="#d4ab88" transform="matrix(-.40107 5.20425 -31.11587 -2.39799 190.6 25)"/><path fill="#b59346" d="M68.7 62.4l15.9 3 49.3 5.2-24.4-43z"/><path fill="#91772f" d="M187 117l-51 10 63-34z"/><path fill="#be9034" d="M94 94l15.2 28.6-18.8-13.2-19.5-21.3z"/><path fill="#63411c" d="M129.9 90.5l-19.3 21.4 7.2 10.2 7.8-26.3z"/><path fill="#d05003" d="M173 6l3-12 10 8z"/><path fill="#c99642" d="M104 87h10v22h-10z"/><circle r="1" fill="#c3986b" transform="matrix(5.82473 2.77385 -11.6819 24.5305 27.6 111)"/><circle cx="55" cy="97" r="12" fill="#dadcd8"/><path fill="#a89b8a" d="M13 90l-24.8.3 38.2 11.2v3.3z"/><ellipse cx="75" cy="168" fill="#b5bdca" rx="70" ry="33"/><path fill="#342d2b" d="M186.8 118.6l-30.3 2.3-7.2 24 12.7 4.9z"/><path fill="#b0855c" d="M248 46l-39-22 39 1z"/><path fill="#c2b07d" d="M182.4 34.9l15.4 66.4-59.3 12 3.3-21.6z"/><path fill="#4c3b38" d="M156 9h39v4h-39z"/><path fill="#6b666b" d="M125 90l-24-20 58 5z"/><path fill="#edf4f1" d="M89.9-14.1l-22 45 17.8-4.5 2-8.7z"/><path fill="#8c939a" d="M0 60h45v5H0z"/><path fill="#001f30" d="M-16 85l25 15-25 39z"/><path fill="#cbc4bb" d="M78 5l103 1-67-22z"/><path fill="#d8e2ec" d="M180.4 41.3l14.2 27.1 3 6L212.4 30z"/><path fill="#cfe7e3" d="M256.3-7.3L264-1l-10.3 12.2L246 5z"/><path fill="#ceba84" d="M129 62l33 7-39-39z"/><path fill="#5e4424" d="M136.7 109.6l-19.6-5.9 2.4-1.8 16.8 2.8z"/><path fill="#593416" d="M76.8-8.8L33.6 60.6l-19.4-2.1L-16-16z"/><path fill="#ddd6be" d="M149 5l10 29 16-2z"/><path fill="#8b682f" d="M155.6 49.4l1.4 17 1.8-5.4-14.9-12.4z"/><path fill="#ad8033" d="M68.8 84.8l32.6 3.1-9.1 17.6L72.5 88z"/><path fill="#b7b9be" d="M20 84l-3 18-14 9z"/><ellipse cx="236" cy="16" fill="#706660" rx="78" ry="3"/><circle r="1" fill="#4c3c32" transform="matrix(12.70811 -26.58794 2.02244 .96666 10.8 121.4)"/><circle r="1" fill="#c8cbcc" transform="rotate(-55.3 141.7 8.1) scale(33.92195 15.51286)"/><ellipse cx="162" cy="39" fill="#bfaa7e" rx="23" ry="4"/><path fill="#835b38" d="M224 40h32v91h-32z"/><path fill="#99a1b2" d="M222 158l-59 27 36-91z"/><circle r="1" fill="#9ca3ac" transform="matrix(4.64522 -5.21368 46.01698 40.99963 135.7 156.6)"/><ellipse cx="55" cy="54" fill="#b6753c" rx="4" ry="11"/><path fill="#3e3439" d="M0 67h61v18H0z"/><circle r="1" fill="#898795" transform="matrix(2.44755 4.32602 -11.68262 6.6097 124.1 79.7)"/><path fill="#e6d59e" d="M59 45h12v19H59z"/><path fill="#4c4148" d="M63 71h49v15H63z"/><path fill="#0f0d1d" d="M119.3 93.5h-3l.4-9h3z"/><path fill="#05020a" d="M100 93h3v16h-3z"/><path fill="#ac8041" d="M126.8 12.8l7.7 21.7 7.3-3.9L122.2 6z"/><path fill="#ab8d53" d="M141 129l-23 2-19-22z"/><path fill="#7b8197" d="M180.5 157.5l-30.1 1.9 21-23 21.3-17.3z"/><path fill="#dbe3ee" d="M172.4 26.2l.1 5 21.4 11.5 9-8z"/><path fill="#936a32" d="M112 51l18 17-17-30z"/><path fill="#b7a46e" d="M139.7 97.3L164 72.8l-42.4 22.1 1.8-8.1z"/><path fill="#c3a392" d="M181 10l7-26 32 21z"/><path fill="#635f54" d="M139.1 75.3l18.3-1.8-18.5 13.8-11.3 2.8z"/><path fill="#222126" d="M15.8 85.1L-16 60v21.4l19.5 8.7z"/><circle cx="102" cy="81" r="2" fill="#c3d5ec"/><path fill="#b7a99f" d="M210.3 17.8l-.1 1-70.5-8.6.1-1z"/><path fill="#956d48" d="M13 147l-26 8 10 22z"/><path fill="#c1ae72" d="M105.6 14.6l-26 33.1 35.1 7.7-8.1-8.4z"/></g></g></svg>