<svg xmlns="http://www.w3.org/2000/svg" viewBox="0 0 1800 1012"><defs/><filter id="prefix__a"><feGaussianBlur stdDeviation="12"/></filter><rect width="100%" height="100%" fill="#3b4351"/><g filter="url(#prefix__a)"><g transform="translate(3.5 3.5) scale(7.03125)"><circle r="1" fill="#fffee3" fill-opacity=".5" transform="matrix(-35.1386 -74.52389 209.1117 -98.5978 140.8 0)"/><ellipse cx="182" cy="142" fill="#d1c0ae" fill-opacity=".5" rx="197" ry="14"/><circle r="1" fill="#6b6f7b" fill-opacity=".5" transform="matrix(237.41923 -93.04358 5.3833 13.73657 211.6 63.3)"/><circle r="1" fill="#e2d2c1" fill-opacity=".5" transform="matrix(-3.23964 -19.1539 103.33585 -17.47795 147.6 14.5)"/><ellipse cx="23" cy="108" fill="#6c737f" fill-opacity=".5" rx="95" ry="15"/><path fill="#475569" fill-opacity=".5" d="M218 40L113 98l158-12z"/><ellipse cx="97" cy="75" fill="#b1a8a0" fill-opacity=".5" rx="27" ry="41"/><circle r="1" fill="#b6aa9e" fill-opacity=".5" transform="matrix(.38002 12.3442 -155.53297 4.7881 165.6 32)"/><ellipse cx="44" cy="138" fill="#524e50" fill-opacity=".5" rx="53" ry="16"/><path fill="#717981" fill-opacity=".5" d="M0 96h98v26H0z"/><path fill="#e1d9cb" fill-opacity=".5" d="M62-12l163-1-109 34z"/><path fill="#a9a297" fill-opacity=".5" d="M161 130h95v13h-95z"/><path fill="#bcad9d" fill-opacity=".5" d="M85.8 93.9l39.6-5.1L180.8 64 271-16z"/><ellipse cy="15" fill="#8e8787" fill-opacity=".5" rx="77" ry="10"/><path fill="#576577" fill-opacity=".5" d="M210 42h46v33h-46z"/><ellipse cx="75" cy="125" fill="#25292c" fill-opacity=".5" rx="64" ry="3"/><ellipse cx="240" cy="17" fill="#bcb19f" fill-opacity=".5" rx="21" ry="22"/><path fill="#4f5869" fill-opacity=".5" d="M184 96l-64-3 105-54z"/><path fill="#7b777a" fill-opacity=".5" d="M59 129h51v14H59z"/><ellipse cx="85" cy="91" fill="#c4b6a8" fill-opacity=".5" rx="36" ry="5"/><path fill="#b5aea6" fill-opacity=".5" d="M-13 50l107-1 27-65z"/><circle r="1" fill="#7e888d" fill-opacity=".5" transform="matrix(1.7031 9.9817 -27.85236 4.75223 87 111.3)"/><path fill="#ddd5c2" fill-opacity=".5" d="M190.8 17.9l-5.2-14.1L223.2-10l5.2 14.1z"/><ellipse cx="205" cy="64" fill="#646a79" fill-opacity=".5" rx="26" ry="11"/><ellipse cx="25" cy="62" fill="#a79b93" fill-opacity=".5" rx="37" ry="34"/><path fill="#59606a" fill-opacity=".5" d="M216.8 109.9l26.9-49.8 4.7 8.7-23.4 41.8z"/><circle cx="130" cy="102" r="14" fill="#494b57" fill-opacity=".5"/><circle r="1" fill="#928d8a" fill-opacity=".5" transform="matrix(27.1052 -19.76545 13.85165 18.99535 1.3 15.1)"/><circle r="1" fill="#a9a497" fill-opacity=".5" transform="matrix(-26.9781 -11.62726 4.45093 -10.32725 189.2 29.5)"/><ellipse cx="132" cy="55" fill="#aaa399" fill-opacity=".5" rx="47" ry="22"/><ellipse cx="11" cy="110" fill="#71757b" fill-opacity=".5" rx="35" ry="14"/><path fill="#9b958e" fill-opacity=".5" d="M131 129h125v10H131z"/><ellipse cx="39" cy="84" fill="#b1a89d" fill-opacity=".5" rx="98" ry="8"/><path fill="#655a4c" fill-opacity=".5" d="M210 124h46v5h-46z"/><path fill="#e4dece" fill-opacity=".5" d="M167.7 3.7L134 .3l-12.9 9.3-18.1 8.7z"/><path fill="#393f42" fill-opacity=".5" d="M172.7 128.5l-81.6-5.9 25.1-12 139.6 12.3z"/><ellipse cx="38" cy="127" fill="#343232" fill-opacity=".5" rx="50" ry="2"/><path fill="#d9d2c0" fill-opacity=".5" d="M127 27h27v6h-27z"/><path fill="#6b676b" fill-opacity=".5" d="M98 128l-67 30-43-29z"/><path fill="#3d4c59" fill-opacity=".5" d="M194.9 122.1l-62.3-32.5 67.4-2.4 49.5-32.6z"/><path fill="#515f71" fill-opacity=".5" d="M271 31l-77 22 77 17z"/><circle r="1" fill="#98958f" fill-opacity=".5" transform="matrix(-4.54115 -12.68306 32.3182 -11.57148 17.2 65.3)"/><path fill="#5e6675" fill-opacity=".5" d="M222 79.5l-6.8-36.3-20.3 9.2 14.6 27.3z"/><circle r="1" fill="#ada698" fill-opacity=".5" transform="matrix(-1.22657 -12.32621 34.57472 -3.4405 230.4 29.3)"/><path fill="#2b3c47" fill-opacity=".5" d="M231.7 89.7L257 80l9.4 24.3L241 114z"/><path fill="#c2bbb1" fill-opacity=".5" d="M75-3.1L171.2-16l-59.4 26-23 36.8z"/><path fill="#b3aa9c" fill-opacity=".5" d="M103.3 98.5L173 67.4l16.7-17.8-20.4-5.2z"/><ellipse cx="95" cy="71" fill="#a3a099" fill-opacity=".5" rx="40" ry="14"/><path fill="#797f85" fill-opacity=".5" d="M48 90.2l-52.8 33.5 109.9-7.4-28.3-10.9z"/><path fill="#b0aca4" fill-opacity=".5" d="M75 56L36 39 88-4z"/><path fill="#615c66" fill-opacity=".5" d="M116 111l28-12-23-8z"/><path fill="#989693" fill-opacity=".5" d="M70.2 5.6L76.1 17l-40.6 9.1L-16 .4z"/><path fill="#7f7b79" fill-opacity=".5" d="M78 129h31v14H78z"/><path fill="#535458" fill-opacity=".5" d="M168 112h45v5h-45z"/><path fill="#ccbfaf" fill-opacity=".5" d="M3.2 47.2l.8-5 14.8 2.6-.8 5z"/><ellipse cx="171" cy="39" fill="#a49f95" fill-opacity=".5" rx="54" ry="6"/><ellipse cx="182" cy="128" fill="#61574d" fill-opacity=".5" rx="96" ry="1"/><path fill="#5e6978" fill-opacity=".5" d="M235.8 41.2l35.2-9.5L247.4 59l-27.8-16.2z"/><circle cx="6" cy="108" r="16" fill="#73787c" fill-opacity=".5"/><path fill="#b5afa3" fill-opacity=".5" d="M175.3 14.4l22.4-28.7-26.2 49.9-50.3-13.7z"/><ellipse cx="133" cy="112" fill="#344451" fill-opacity=".5" rx="22" ry="6"/><ellipse cx="179" cy="78" fill="#545e6d" fill-opacity=".5" rx="19" ry="12"/><path fill="#4b4e57" fill-opacity=".5" d="M57 140h20v3H57z"/><path fill="#bdb5a7" fill-opacity=".5" d="M234.3-16l-25.1 36.7h56.7l-48.2-34.3z"/><path fill="#908c87" fill-opacity=".5" d="M127 130l47 20 34-20z"/><ellipse cx="83" cy="101" fill="#80888d" fill-opacity=".5" rx="33" ry="7"/><path fill="#353b3f" fill-opacity=".5" d="M226.1 115.8l-9.8-4.2-13.6 17.3 68.3-11.7z"/><path fill="#c1b6a7" fill-opacity=".5" d="M81 92h36v4H81z"/><path fill="#4c596b" fill-opacity=".5" d="M228 42l-25 4 38 19z"/><path fill="#b7b2a8" fill-opacity=".5" d="M39 33l99-17-50 35z"/><path fill="#383c43" fill-opacity=".5" d="M77 122h34v6H77z"/><path fill="#6b7180" fill-opacity=".5" d="M210 68.8l-8.4-9.5 22.4-7.1-15.4 19.7z"/><path fill="#8b8985" fill-opacity=".5" d="M0-16l-14 59 25-13z"/><path fill="#a29f98" fill-opacity=".5" d="M45.5 33.5L3.1 42.8l11.4-15.6L76 29.9z"/><path fill="#586070" fill-opacity=".5" d="M187.9 56.2l-35.5 26.7 1.1 11.2 55.1-27.8z"/><path fill="#35475b" fill-opacity=".5" d="M227 62h10v12h-10z"/><path fill="#a3a098" fill-opacity=".5" d="M101 82.7l6.2-46.4 32.5-2.4 37.1 2.8z"/><path fill="#d8d1c2" fill-opacity=".5" d="M137.5 16.7l30.4-6.7-1.6-6.1-81.5 10z"/><path fill="#a6a49c" fill-opacity=".5" d="M132.6 27.6l-26.9 1.8-.3-5 26.9-1.8z"/><path fill="none" stroke="#88837d" stroke-opacity=".5" stroke-width=".5" d="M196 158q43.6-49 65.9-26.7"/><path fill="#aea79d" fill-opacity=".5" d="M68 62L14 94l53-6z"/><path fill="#535256" fill-opacity=".5" d="M181 142h8v1h-8z"/><path fill="#505158" fill-opacity=".5" d="M94.5 138.5l-12.8 2-.2-1 12.8-2z"/><path fill="#afa79c" fill-opacity=".5" d="M138 84l-23-11 61-35z"/><circle r="1" fill="#767377" fill-opacity=".5" transform="matrix(-.43336 -2.47043 56.24556 -9.86643 45.5 142)"/><path fill="#7f6864" fill-opacity=".5" d="M137.4 128.4l-1.3-2.7 4.5-2.1 1.3 2.7z"/><path fill="#4e5768" fill-opacity=".5" d="M116.9 96.8l5.2-.7 60.1-27.7-58.4 22z"/><path fill="#6e7174" fill-opacity=".5" d="M11 120h72v3H11z"/><circle cx="207" cy="52" r="6" fill="#48576a" fill-opacity=".5"/><path fill="#a7a199" fill-opacity=".5" d="M229 138.3l-36.5.6 26.3 19.1-55.2-9.4z"/><path fill="#3c4b59" fill-opacity=".5" d="M230.4 91.5l34.7 2.6-69.9-15.9 15.3 30.1z"/><ellipse cx="8" cy="132" fill="#58555b" fill-opacity=".5" rx="51" ry="4"/><path fill="#ada699" fill-opacity=".5" d="M271 20l-90 2 5 30z"/><path fill="#5f6676" fill-opacity=".5" d="M206.9 72.2l-19.8-4.6 46.9-2.8-20.5 16.7z"/><path fill="#a19b95" fill-opacity=".5" d="M150 135h18v7h-18z"/><path fill="#7d848a" fill-opacity=".5" d="M99.5 118.7l-64-6.2 44.2-14.2 38.2 9z"/><path fill="#5d5554" fill-opacity=".5" d="M185.5 126.4l-15 .2v-3l15-.2z"/><ellipse cx="230" cy="36" fill="#ada69a" fill-opacity=".5" rx="17" ry="5"/><path fill="#5c6270" fill-opacity=".5" d="M115.5 105.7l78.9-53.4 23.7-9.9 9.1-1.1z"/><path fill="#6c707d" fill-opacity=".5" d="M243.3 65.6l2 6.7-6.6 2-2-6.6z"/></g></g></svg>