<svg xmlns="http://www.w3.org/2000/svg" viewBox="0 0 1200 1800"><defs/><filter id="a"><feGaussianBlur stdDeviation="12"/></filter><rect width="100%" height="100%" fill="#474a2c"/><g filter="url(#a)"><g fill-opacity=".5" transform="translate(3.5 3.5) scale(7.03125)"><circle r="1" fill="#c0cdfc" transform="matrix(-17.07851 -168.13484 80.73424 -8.20069 121 111.9)"/><circle r="1" fill="#8cb1e0" transform="matrix(61.9611 28.70655 -28.4388 61.38316 47.7 31.8)"/><circle cx="113" cy="224" r="81" fill="#515b69"/><circle r="1" fill="#d7d8d4" transform="matrix(-11.80443 -57.63071 26.79218 -5.4878 82.6 108)"/><ellipse cx="30" cy="22" fill="#695d49" rx="24" ry="90"/><ellipse cy="121" fill="#bbd2ff" rx="6" ry="51"/><ellipse cx="85" cy="14" fill="#69baff" rx="31" ry="62"/><path fill="#f6e0bf" d="M135.7 116.2L121.2 62l23.1-6.3 14.5 54.1z"/><path fill="#351205" d="M123 125l39-18v24z"/><path fill="#6d4543" d="M107 43h22v56h-22z"/><path fill="#c5c8b0" d="M25 74.4L2.7 84.1 7.2 53l33.6-2.8z"/><ellipse cx="134" cy="185" fill="#463f3d" rx="7" ry="63"/><circle r="1" fill="#53666f" transform="matrix(-28.54085 9.43737 -28.38932 -85.85604 81 247.8)"/><ellipse cx="23" cy="14" fill="#454d66" rx="33" ry="38"/><circle r="1" fill="#c8b392" transform="matrix(9.50295 7.97392 -45.82108 54.60744 166 30.2)"/><circle r="1" fill="#273a37" transform="matrix(22.67352 22.5405 -42.23293 42.48218 12.6 206.2)"/><path fill="#d1c9bd" d="M42 121l80 6 63-38z"/><path fill="#a48952" d="M36 56h20v57H36z"/><path fill="#50292f" d="M135.4 2.7l-4-14.1-16 24 7.9 9.3z"/><path fill="#262329" d="M70 195l13-34-3 65z"/><circle r="1" fill="#667b85" transform="matrix(-9.81435 27.3416 -9.91126 -3.55768 7.8 144.1)"/><ellipse cx="95" cy="146" fill="#30202b" rx="4" ry="12"/><circle r="1" fill="#9cacbc" transform="matrix(7.9964 1.34746 -6.65017 39.465 75 149.2)"/><path fill="#f1dbc1" d="M72.1 60.4l-23.5-9.5 11.1 52.6 18.8-6.6z"/><path fill="#83734c" d="M18.3 55.8L73.1 86l1.3-11.1-65.1-9.2z"/><path fill="#6a5543" d="M129 173l-23-57 3 48z"/><ellipse cx="157" cy="166" fill="#a79f8f" rx="9" ry="42"/><path fill="#766e4d" d="M152 61h18v31h-18z"/><path fill="#967359" d="M42 100h42v9H42z"/><path fill="#6a7793" d="M66 266l-10-45 59 20z"/><path fill="#49465f" d="M156.6-16l1.9 1-19.1 30.3 12 20.6z"/><path fill="#69423a" d="M111.1 90.3l14.1 24.6 4-11 2.4-18.5z"/><ellipse cx="13" cy="13" rx="42" ry="2"/><ellipse cx="91" cy="28" fill="#7fb6fd" rx="28" ry="22"/><path fill="#93959b" d="M60.8 100l14.4 71.7-34.4 15.1 28.3 7z"/><circle r="1" fill="#495d3f" transform="matrix(-7.29582 -44.07045 8.63594 -1.42967 34.8 127.5)"/><path fill="#7b6d57" d="M128.8 123.8l22 1.5-3.6 51-22-1.6z"/><path fill="#fffff7" d="M70 104l-16 14 14 9z"/><circle r="1" fill="#c8c5c8" transform="matrix(5.71309 -1.38102 10.45458 43.24905 169 26.5)"/><path fill="#1a2745" d="M128 172l11 34-12 24z"/><path fill="#d7b28c" d="M115.4 38.8l25.5-44.1 7.7 4.5-25.5 44.1z"/><ellipse cx="113" cy="180" fill="#878c99" rx="27" ry="11"/><circle r="1" fill="#fffffe" transform="matrix(-5.22358 -2.04388 3.81043 -9.73836 62.5 91.5)"/><circle r="1" fill="#7d8690" transform="matrix(-17.74387 4.70138 -2.1238 -8.0156 28.5 34.2)"/><path fill="#d7ccb5" d="M114 109h11v31h-11z"/><path fill="#4e403e" d="M139 110h27v18h-27z"/><circle r="1" fill="#60a0ea" transform="rotate(-81.8 48.7 -23.2) scale(30.27791 11.44862)"/><circle r="1" fill="#21211f" transform="matrix(-3.71868 21.42795 -13.52266 -2.34677 21.2 217.1)"/><path fill="#b4c1d1" d="M79.3 81.4l13.8 86.2-50.5-10.1 64.7-25.6z"/><circle r="1" fill="#425853" transform="matrix(2.13718 11.59785 -53.6404 9.88453 13.8 248)"/><path fill="#a69579" d="M163.1 29.5l-43.7 27.9 12.1 19.9 21.4-18z"/><path fill="#c9cabf" d="M96.3 88.2l19.7-7.1 1.7 4.7L98 92.9z"/><path fill="#898162" d="M-5.1 96.2L62.3 75l-56.1-.7-1.7-24.8z"/><ellipse cx="12" cy="46" rx="36" ry="1"/><path fill="#2f1e1e" d="M118.3 168l.4-25.8 5.5 17.6 8.1 3.2z"/><path fill="#97c7fb" d="M99 82l-25-4 42-69z"/><path fill="#d4d1c7" d="M150.4 101.5l-28.3-22.4 27.4-14.9 1.8 8.3z"/><path fill="#ccd1c7" d="M45 78h3v38h-3z"/><path fill="#6582a1" d="M57.5 38.2l30.2 22.7L80 39.6l-20.9 5.8z"/><path fill="#625256" d="M105 50h17v31h-17z"/><path fill="#695443" d="M72 142l-10 7v-21z"/><path fill="#c7c7c2" d="M132 116V88l53 8z"/><ellipse cx="54" cy="172" fill="#445e0f" rx="11" ry="9"/><path fill="#c0bcb6" d="M5 51h34v8H5z"/><path fill="#fff" d="M58 60h13v10H58z"/><path fill="#54705d" d="M164 140h6v44h-6z"/><path fill="#9e9594" d="M140.2 185.2l50.3 26.8-4.7 8.8-50.3-26.8z"/><path fill="#474546" d="M5.4 42.5l-2.2 32L-.1 31l23.7-10.5z"/><circle r="1" fill="#5d677a" transform="rotate(-74.4 209 47.4) scale(19.99542 66.37508)"/><path fill="#5b5a37" d="M47.1 90.4L16.5 143 5.1 82.6 46.5 93z"/><circle r="1" fill="#5e656f" transform="matrix(-2.5856 -17.06699 2.30428 -.3491 54.5 105.7)"/><path fill="#aec1c9" d="M7 66h20v11H7z"/><path fill="#3b3227" d="M134 147h7v25h-7z"/><path fill="#a3a6a8" d="M114.9 153.6l-13.1 12.2 1.5-82.7-22.8-4.3z"/><path fill="#8a6e33" d="M20 63l26 15 1-21z"/><path fill="#d3dddc" d="M74.7 135.5l27.3 1.1-4.4-24-7.9-2.3z"/><path fill="#574738" d="M125 180h25v7h-25z"/><path fill="#443746" d="M126 0h2v43h-2z"/><path fill="#50576b" d="M55.8 71.4V56.3l-23.4-8.1L49 33z"/><path fill="#c2b39d" d="M166 91h4v47h-4z"/><path fill="#8d9eb3" d="M104.9 162.9l-23.4-15.2-39.5 7.8 4 7.3z"/><path fill="#001965" d="M78 167h8v7h-8z"/><path fill="#697386" d="M.5-8.5l55.9 3-.9 16-55.9-3z"/><path fill="#9b8e78" d="M92.9 93.8l33 9.5-13.1 11.1-12.7-34.1z"/><path fill="#c0c7d6" d="M151 17h6v15h-6z"/><path fill="#968c85" d="M124 126h9v35h-9z"/><path fill="#808c8e" d="M14 151l2-37-7 21z"/><ellipse cx="16" cy="83" fill="#d2ecff" rx="4" ry="2"/><circle r="1" fill="#777e8f" transform="rotate(-98.5 132.5 57.8) scale(25.48198 13.6727)"/><circle cx="78" cy="222" r="7" fill="#393639"/><path fill="#525757" d="M-16 83.8l54.1-39.2-21 19-21 11.6z"/><path fill="#584040" d="M126 99l5-16-26 14z"/><path fill="#3a4632" d="M28.5 82.6L1.8 207.3l32.6-80.1-15.7-53z"/><path fill="#e9ebe3" d="M78.7 107.7l-4.4 2.8 2.2-22.8-24.6-9.5z"/><path fill="#3f4622" d="M158.1 80.8l-4.2-5.6 8-6 4.2 5.6z"/><path fill="#7a99b4" d="M46 112h11v40H46z"/><path fill="#a7aa8c" d="M32 75h13v16H32z"/><path fill="#556a5a" d="M56.6 162.8l-32.3-21.6 29.5-13.3-24-8.4z"/><path fill="#485943" d="M64 199l-18 17-9-42z"/><path fill="#493f25" d="M93.7-16h-6L73.1 3.5 51.7-11.6z"/></g></g></svg>