<svg xmlns="http://www.w3.org/2000/svg" viewBox="0 0 1800 1800"><defs/><filter id="a"><feGaussianBlur stdDeviation="12"/></filter><rect width="100%" height="100%" fill="#523c27"/><g filter="url(#a)"><g fill-opacity=".5" transform="translate(3.5 3.5) scale(7.03125)"><circle cx="92" cy="82" r="242" fill="#fff7ec"/><circle r="1" fill="#010000" transform="matrix(-1.88694 -32.72556 205.576 -11.85344 194 160.3)"/><circle r="1" fill="#f0eff9" transform="matrix(12.41154 -66.61316 250.6857 46.70843 178.3 43.5)"/><circle cx="97" cy="239" r="58" fill="#ffde92"/><ellipse cx="96" cy="113" fill="#2c0000" rx="16" ry="25"/><circle r="1" fill="#28250c" transform="matrix(74.3274 7.87054 -4.25116 40.14684 195.9 166.6)"/><circle r="1" fill="#273028" transform="matrix(-21.30147 -22.72241 45.16056 -42.33646 12.2 206)"/><circle r="1" fill="#c7cbcf" transform="matrix(-10.97115 50.40628 -59.76133 -13.00731 22.1 93)"/><ellipse cx="96" cy="159" fill="#bf6930" rx="38" ry="27"/><circle r="1" fill="#ffbb7f" transform="rotate(111.5 10.8 182.9) scale(27.33081 127.54885)"/><path fill="#b7bcb8" d="M271 106L72 78l125 54z"/><circle r="1" fill="#65737b" transform="matrix(5.23577 -18.01268 67.45943 19.60851 255 217.8)"/><path fill="#854519" d="M126.4 252.6L88 240.9l3.5-11.5 38.3 11.7z"/><circle r="1" fill="#131704" transform="matrix(83.43991 -13.98408 2.84977 17.00392 212 156.5)"/><path fill="#ffa570" d="M112 148h23v16h-23z"/><ellipse cx="45" cy="167" fill="#282100" rx="17" ry="26"/><ellipse cx="136" cy="118" fill="#c4d2d7" rx="26" ry="13"/><circle r="1" fill="#ffce9d" transform="matrix(-8.64092 -37.41475 30.22656 -6.98081 63.6 245.4)"/><path fill="#5f3f1e" d="M86 95h27v89H86z"/><circle r="1" fill="#8d6d4a" transform="rotate(86.4 19.2 213.2) scale(6.64798 38.55509)"/><path fill="#fb884c" d="M85.1 120l18-10.8L111 122l-18 10.8z"/><circle r="1" fill="#797c80" transform="matrix(-8.69077 -22.69642 35.5237 -13.60252 14.4 222.4)"/><path fill="#c29d60" d="M13 158l15.4-19.8 12.6 9.9-15.4 19.7z"/><ellipse cx="154" cy="140" fill="#161c06" rx="35" ry="11"/><circle r="1" fill="#34240a" transform="rotate(174.7 7.2 90.4) scale(56.12147 11.82628)"/><path fill="#c98852" d="M176 271l17-59-47 4z"/><path fill="#3a1f03" d="M123 237l14 31-23-28z"/><ellipse cx="239" cy="200" fill="#80868a" rx="89" ry="7"/><path fill="#1a0700" d="M99.3 89l10 11.2L90.7 117l-10-11.1z"/><path fill="#bcbeb7" d="M239.5 83l7.1 40.4-54.1 9.6-7.1-40.4z"/><path fill="#c4bcb8" d="M121 72l-89 57-48-93z"/><path fill="#e38b63" d="M76 136h8v56h-8z"/><ellipse cx="98" cy="211" fill="#edc39b" rx="46" ry="24"/><circle r="1" fill="#bcac97" transform="matrix(9.26855 -1.82404 1.02058 5.18589 111.3 147.1)"/><path fill="#6f5947" d="M174.4 205.8l-61.3-14.1 4.5-19.5 61.3 14.1z"/><path fill="#2f2c17" d="M172 125h19v32h-19z"/><ellipse cx="156" cy="94" fill="#c2bcb8" rx="46" ry="33"/><circle r="1" fill="#fdddb7" transform="rotate(148.3 41.2 146.3) scale(5.33373 53.75857)"/><ellipse cx="50" cy="187" fill="#986d45" rx="33" ry="3"/><path fill="#100e0c" d="M164 189h92v3h-92z"/><ellipse cx="168" cy="15" fill="#d7cfce" rx="194" ry="30"/><path fill="#e4763f" d="M114 156h8v40h-8z"/><path fill="#3d2611" d="M95.9 137.9l-20-7.9 27-35.1-23.2 13.4z"/><path fill="#696e6a" d="M260.8 271l-4.2-78.8-33 33.3 31.9 18z"/><path fill="#c17a41" d="M222.6 240.1l3.6 28.2-22.2-29.1-.8-17.4z"/><path fill="#aeb1ad" d="M-16 86.2l90.6 57.4 15.7 2.5-5-13.5z"/><circle r="1" fill="#ac754a" transform="matrix(-3.70872 6.6907 -4.94311 -2.74001 104.2 209.8)"/><path fill="#fcd086" d="M-4 147l10 12 25-19z"/><path fill="#b8b9b4" d="M122.7 91l-15 34.2 14.3 6.7 149-17.5z"/><path fill="#723616" d="M75.3 184.6L53 201.4l16.2-45.5 11.2 13.6z"/><path fill="#240f04" d="M105 155h6v30h-6z"/><path fill="#6b767a" d="M140 194l77 23-18-27z"/><path fill="#e68a58" d="M59.8 150.3l13.8-6.5-.7-10.3-.9 23.7z"/><path fill="#f5c793" d="M230 266l-52-17 2-23z"/><path fill="#f9d7ad" d="M172.1 205.5l39.5 14.3-1.7 4.7-39.5-14.3z"/><path fill="#91734f" d="M228 164h9v17h-9z"/><circle r="1" fill="#56523d" transform="matrix(-18.58974 6.7294 -2.8394 -7.84374 202.3 138.7)"/><path fill="#040e00" d="M6 141l-11 5-11-11z"/><path fill="#f2d9b3" d="M229.7 242.6l3.3-8.9 17.9 6.8 8.7 9.5z"/><ellipse cx="98" cy="191" fill="#ffd6ad" rx="14" ry="7"/><circle r="1" fill="#c07f4a" transform="matrix(-1.9382 2.80958 -29.53801 -20.3769 177 249.6)"/><path fill="#755f2f" d="M20.4 148.9l17.1 8.7 5.1 4-50.7 10.3z"/><circle r="1" fill="#cd905d" transform="matrix(-19.55672 -13.69376 2.64709 -3.78044 100.9 240.8)"/><path fill="#fff" d="M218 66h7v9h-7z"/><path fill="#c89d71" d="M-2 282.5l48.6-72 7.5 5-48.7 72z"/><path fill="#fdd7a4" d="M118.4 271l-73.3-54.3L70.6 271l-6.2-60.2z"/><path fill="#202112" d="M115.6 131.2l9.2 12.8 67.8 38.8 30.2-21.7z"/><ellipse cx="197" cy="232" fill="#ffddb3" rx="4" ry="14"/><path fill="#221e14" d="M126 188h74v4h-74z"/><circle cx="5" cy="219" r="29" fill="#676e70"/><path fill="#fdd4a4" d="M164 243l-1 28-36-27z"/><circle r="1" fill="#f7d5ad" transform="matrix(-1.25159 8.64382 -20.77575 -3.00823 132.2 213)"/><path fill="#34381b" d="M240 124h16v21h-16z"/><path fill="#522810" d="M89 103h24v13H89z"/><path fill="#212312" d="M0 168h65v17H0z"/><path fill="#b7bab7" d="M64 62l19 59-30 26z"/><path fill="#b2b6b1" d="M-16 91l44 63 28-54z"/><path fill="#c16c41" d="M89.6 123.9l-4.3-15 23.6 10.2L98 133.6z"/><path fill="#2a2d17" d="M39.9 144.6l-2.2 45.5 24.1-39.6-17.5-10.2z"/><path fill="#d7a36d" d="M104 223l-26-10 4-20z"/><path fill="#1d1d0d" d="M41 169.6l-.6.8-21.4-18 .6-.8z"/><path fill="#b2825c" d="M192.6 237.7l.7-19.1 74.3 10.7-106.3-15.6z"/><path fill="#d7723d" d="M130 146l7 11-18 15z"/><path fill="#753717" d="M54.4 165.9l24.1-17.3-5.7 38.8-24.3-29.5z"/><ellipse cx="24" cy="71" fill="#c9bebb" rx="123" ry="24"/><path fill="#665529" d="M-1 157l11 14 18-5z"/><path fill="#ca6e45" d="M68 182h23v7H68z"/><ellipse cx="228" cy="101" fill="#bfbcb6" rx="116" ry="22"/><path fill="#edcca3" d="M218.1 222.4L258 248l-30.2-4.9 4.7 5.8z"/><path fill="#777b7d" d="M0 194h52v18H0z"/><path fill="#5e3d1b" d="M107.7 123.1l9.2 10.6-10.6 9.2-9.2-10.6z"/><path fill="#a68968" d="M218 179.1l1.4-5.8 14.6 3.6-1.4 5.8z"/><path fill="#bb915e" d="M19.4 145.9l17.1 4.8-19.2 22.7 10.2-20.1z"/><path fill="#ffe0b8" d="M57 196l25-2-8-6z"/><path fill="#fee2bc" d="M121 229l10 17-2-21z"/><circle cx="180" cy="142" r="18" fill="#302d19"/><path fill="#c08853" d="M244.4 250l6.4 14.2-32-24.3 15.3 6z"/><path fill="#f0bf8e" d="M116.2 236.4l-7.8-3.9 13.3 31.9-37.5 6.6z"/><path fill="#2a2706" d="M0 159h18v5H0z"/><path fill="#b8bbb4" d="M260.6 121.2l-65-26.6-2.6 35.7 18.4-1.1z"/></g></g></svg>