<svg xmlns="http://www.w3.org/2000/svg" viewBox="0 0 1800 1800"><defs/><filter id="a"><feGaussianBlur stdDeviation="12"/></filter><rect width="100%" height="100%" fill="#4f423c"/><g filter="url(#a)"><g fill-opacity=".5" transform="translate(3.5 3.5) scale(7.03125)"><circle cx="12" cy="120" r="187" fill="#b7947f"/><circle r="1" fill="#fff" transform="matrix(-8.43295 56.27973 -23.4786 -3.51803 255 25.7)"/><circle r="1" fill="#f6ffff" transform="matrix(37.6757 -16.68271 11.47423 25.91304 147 11)"/><circle r="1" fill="#000008" transform="matrix(38.51054 48.36498 -28.3639 22.5847 201.2 123.5)"/><circle r="1" fill="#fff" transform="matrix(18.71543 -14.13472 135.49976 179.41183 14 236.5)"/><circle r="1" fill="#e5a36a" transform="rotate(39.7 -198.2 396.3) scale(84.52212 29.81228)"/><path fill="#380e0b" d="M91 194.8L44.3 120 113 77.2l46.7 74.7z"/><path fill="#ffab88" d="M174 64l97-29-81 58z"/><ellipse cx="42" cy="52" fill="#081b22" rx="161" ry="14"/><path fill="#e9e3c4" d="M46 67h109v17H46z"/><circle r="1" fill="#ffb5c4" transform="matrix(11.94574 18.96952 -12.03506 7.57888 58.1 195)"/><path fill="#f3d3b1" d="M267.6 158l-25 1.8-2.2-31.9 25-1.7z"/><ellipse cx="28" cy="149" fill="#27394c" rx="34" ry="31"/><ellipse cx="247" cy="109" fill="#000819" rx="99" ry="24"/><ellipse cx="19" cy="12" fill="#b1a28e" rx="104" ry="24"/><ellipse cy="244" fill="#fffffc" rx="14" ry="73"/><ellipse cx="11" cy="91" fill="#e7a67f" rx="68" ry="15"/><path fill="#ab7334" d="M39.6 229.8l73.2-63.6 69.6 80-73.2 63.6z"/><ellipse cx="175" cy="208" fill="#e0c092" rx="46" ry="12"/><path fill="#d3e3df" d="M205.4 1.8l-90.5 37.3-3.3-51.7L236.7-16z"/><circle cx="190" cy="31" r="25" fill="#251c10"/><path fill="#00040d" d="M164 112l50 84 57-20z"/><ellipse cx="102" cy="110" fill="#29261a" rx="28" ry="32"/><ellipse cx="85" cy="33" fill="#e4ffff" rx="45" ry="3"/><ellipse cx="248" cy="27" fill="#eeeded" rx="14" ry="29"/><path fill="#f3799f" d="M179.4 171l-20.5 4.8-10.3-44.8 20.5-4.8z"/><path fill="#ffa887" d="M271 235.7l-40.7-49.3 13.3-.1 27.4 30.8z"/><path fill="#853c1d" d="M56.3 216.8l-21.5 18-23-27.6 21.4-18z"/><path fill="#674c22" d="M156 217h63v39h-63z"/><circle r="1" fill="#fff9cc" transform="matrix(-9.78282 32.1875 -10.2473 -3.11448 39.3 255)"/><path fill="#65472f" d="M88 5h28v26H88z"/><circle cx="122" cy="232" r="9" fill="#004c39"/><path fill="#bdd6e6" d="M105 36l51-36 14 43z"/><ellipse cx="23" cy="55" fill="#6b513a" rx="37" ry="24"/><path fill="#b46364" d="M39 175l93-47-19 32z"/><ellipse cx="142" cy="91" fill="#d9b89c" rx="13" ry="18"/><path fill="#d68364" d="M184.2 89.8l57.2-57.9-21.3 44.7-15.3 17.9z"/><path fill="#161416" d="M31 190l35-39-45 15z"/><path fill="#000e1d" d="M186.5 88.8l-22.8 46.8-10.3-9.7 6.9-51.7z"/><circle r="1" fill="#0b1827" transform="matrix(-21.5047 21.35509 -15.93637 -16.04802 230.1 101.2)"/><path fill="#0e1205" d="M257.8 59.9l-12.6-.9-19.7-.2 11.8-6.3z"/><circle r="1" fill="#ffffd5" transform="matrix(15.94583 -4.0761 25.28808 98.9276 4.4 239.3)"/><ellipse cy="93" fill="#d4e1c2" rx="13" ry="19"/><path fill="#ee76a2" d="M126.2 171.5l-10.6-.3 64.8-9.3-40.4 29.8z"/><circle r="1" fill="#b66f57" transform="rotate(163.1 12.1 53) scale(21.26836 23.31633)"/><path fill="#c3baa4" d="M100.3 76.1L144.2 93l29.1-28-122.5.2z"/><path fill="#0a111b" d="M204.7 114.3l-27.9-40.8-6.6 61.8 12.8 37.9z"/><circle r="1" fill="#4a2f26" transform="matrix(-5.16873 6.44578 -17.00025 -13.6321 66.4 228)"/><ellipse cx="214" cy="13" fill="#242720" rx="24" ry="15"/><ellipse cx="94" fill="#e0ead4" rx="113" ry="3"/><path fill="#1c272d" d="M90 37l-51-3 62 34z"/><path fill="#004a37" d="M208.7 235l-11.4-8.2 10-13.8 11.4 8.2z"/><circle r="1" fill="#cfb06f" transform="matrix(.77787 5.28354 -59.50345 8.7604 136.6 218.4)"/><path fill="#d2ac6e" d="M174 183h10v66h-10z"/><path fill="#cfddd4" d="M256 80l15-21-55 1z"/><circle cx="163" cy="225" r="8" fill="#000029"/><path fill="#2b010a" d="M98.1 175.3l34.7-9.7 12 4.3 7.8-19.3z"/><path fill="#cf9399" d="M47.3 174l-25.2 52.3 49.1-74.5 19.3-5.2z"/><path fill="#e9c27c" d="M167.5 12.2L190.7-16 183 20.8l-3.3 1.4z"/><path fill="#b3adff" d="M164 209l-25-2 20-12z"/><path fill="#f2ae8d" d="M245.5 126.3l8.4 3.4-12.8 18.8 1-23.9z"/><path fill="#f0f0d0" d="M-2 44l-14-19 30 1z"/><path fill="#51634e" d="M26.8 4l22-2 2.4 28-22 2z"/><path fill="#503618" d="M32.5 225.6l14-11.3-19.6 4.8-5.4 32.9z"/><circle r="1" fill="#6e6a6e" transform="rotate(63.5 -100 88.4) scale(32.5809 12.36211)"/><path fill="#b58c4b" d="M183.9 207.5l39.3 2.2-32.5-51.6-36.5 26.2z"/><path fill="#d28071" d="M66.3 227.8l15.8-.7-28.9-49 55.1 22.1z"/><path fill="#ffd4d3" d="M49.2 181l10.1 18.3-10.5 5.8-10.1-18.4z"/><path fill="#723b21" d="M181.9 174.9l-49.6 17.2 2.1 7.1 33.9-15.2z"/><path fill="#bc7558" d="M27.4 221L7.6 209.3l17-28.3 19.8 11.9z"/><path fill="#21150f" d="M88 153h10v32H88z"/><circle r="1" fill="#6f3717" transform="matrix(-6.70819 6.76971 -12.25973 -12.14831 230.5 204.5)"/><path fill="#c1ccd2" d="M113 0h53v40h-53z"/><path fill="#5a5656" d="M86 101l-23 59-25-66z"/><circle r="1" fill="#dcceb7" transform="rotate(-106.5 12.8 -5.6) scale(24.7088 3.78728)"/><path fill="#8b4023" d="M113.4 171.5l5.6-4.8 17.7 22.2-67.2 11.4z"/><path fill="#dfd78e" d="M82.9 224.2l5.9-1 4.3 24.6-5.9 1z"/><path fill="#d9efdd" d="M58.5 27.5l-4 .6-5-31.6 4-.6z"/><circle r="1" fill="#b59186" transform="matrix(-9.60835 23.58054 -11.44247 -4.66246 249 244.8)"/><path fill="#1c232a" d="M58 55h115v9H58z"/><ellipse cx="67" cy="83" fill="#c1bfa0" rx="16" ry="12"/><ellipse cx="165" cy="255" fill="#855024" rx="47" ry="20"/><path fill="#000e17" d="M262.4 158.7l-10.5-10.2 19.1-29-22.7-2.4z"/><ellipse cx="42" cy="73" fill="#886051" rx="11" ry="36"/><path fill="#ee9599" d="M161 182l7-59 5 33z"/><path fill="#5f3221" d="M90.7 149.5l60.3-24-25.1-27.4-50 54.6z"/><path fill="#6f0d08" d="M79.4 1.1l.2 5-23 .8-.2-5z"/><path fill="#dde7a5" d="M163 187h37v4h-37z"/><path fill="#e1875b" d="M-9 59l44 64 2-26z"/><path fill="#a75a43" d="M192 88l15-25-36-11z"/><path fill="#221916" d="M41.1 192.2l-36-38.3L43 173.2 23.2 204z"/><circle r="1" fill="#969250" transform="matrix(-6.394 10.2724 -15.0875 -9.39114 147.2 238.7)"/><path fill="#021101" d="M70 177l-2 8 14-4z"/><circle r="1" fill="#111924" transform="matrix(-7.04472 9.97276 -66.55725 -47.01576 233.6 164.9)"/><path fill="#3f494f" d="M24.8 182.5L8.4 136.1l-4 47.5 8.2 14.8z"/><path fill="#6f2e15" d="M59 225l13-28-5 61z"/><path fill="#081727" d="M156.4 114.4l63.1-31.5 8.4-21.4 11 21.7z"/><path fill="#394a58" d="M28 122l-13-21-26 25z"/><path fill="#650404" d="M58.9 29.3l.3-4 20 1.4-.4 4z"/><ellipse cx="22" cy="52" fill="#3e3529" rx="10" ry="24"/></g></g></svg>