<svg xmlns="http://www.w3.org/2000/svg" viewBox="0 0 2565 3847"><defs/><filter id="a"><feGaussianBlur stdDeviation="12"/></filter><rect width="100%" height="100%" fill="#593736"/><g filter="url(#a)"><g fill-opacity=".5" transform="translate(7.5 7.5) scale(15.02734)"><circle r="1" fill="#beffff" transform="matrix(-92.72375 142.48616 -56.5965 -36.83052 52.6 39)"/><path fill="#9399a5" d="M160.8 51.4l72 124.7-125.6 72.5-72-124.7z"/><circle r="1" fill="#a3fdff" transform="matrix(-21.33853 -41.42064 151.12474 -77.85444 31.6 18)"/><circle r="1" fill="#003696" transform="matrix(82.61914 -6.22872 3.77399 50.05897 170 51.3)"/><path fill="#d9ffff" d="M147 106h24v47h-24z"/><circle r="1" fill="#fcf6ef" transform="matrix(-10.24823 53.72313 -12.69993 -2.42264 59.5 88.2)"/><circle r="1" fill="#70452c" transform="rotate(-9.8 419.4 -603.2) scale(29.8355 33.79396)"/><path fill="#8ecfff" d="M0 0h140v33H0z"/><circle r="1" fill="#3ea0d8" transform="matrix(-20.55092 -40.17614 25.29581 -12.93932 17.2 129.4)"/><ellipse cx="162" cy="44" fill="#0029a3" rx="25" ry="64"/><path fill="#a3bbcd" d="M105 221.2l-31.2 42.3 41.8-16.3 12.1-4.6z"/><circle r="1" fill="#805c4c" transform="matrix(-23.28233 54.59244 -33.5816 -14.32173 99.4 124.7)"/><circle r="1" fill="#c3e4ff" transform="matrix(14.46685 -13.70886 52.4019 55.29933 20.7 44.3)"/><circle r="1" fill="#c69788" transform="matrix(11.76457 12.528 -18.35018 17.23197 115 185.6)"/><circle r="1" fill="#164350" transform="matrix(12.61847 -34.0956 15.65039 5.79206 32.8 180.7)"/><ellipse cx="142" cy="252" fill="#5b321e" rx="9" ry="135"/><path fill="#2f3946" d="M107.3 22.8l22.8 9.6 23.7 53.8-68.1-47.1z"/><path fill="#bd5607" d="M61 48h7v34h-7z"/><path fill="#a39caa" d="M149 154h22v50h-22z"/><ellipse cx="41" cy="22" fill="#8cd0ff" rx="51" ry="31"/><ellipse cx="25" cy="75" fill="#968164" rx="43" ry="5"/><circle r="1" fill="#3a271a" transform="rotate(-77.7 160.7 74.4) scale(23.28863 48.18607)"/><path fill="#fff" d="M43 80h30v19H43z"/><circle r="1" fill="#7dc9ff" transform="matrix(-9.28213 3.41516 -8.97943 -24.40537 127.1 13)"/><circle r="1" fill="#4c597e" transform="matrix(-9.07876 16.63832 -41.75708 -22.7849 22.5 255)"/><ellipse cx="132" cy="88" fill="#bff" rx="5" ry="7"/><circle r="1" fill="#d7dde5" transform="rotate(54.8 -164.6 85.4) scale(6.09675 27.22206)"/><ellipse cx="55" cy="184" fill="#997469" rx="5" ry="35"/><path fill="#3d291a" d="M51 271l35-11-17-125z"/><path fill="#896556" d="M34.3 128.1l6-44.1 8.4 37.2-15 5.1z"/><path fill="#bbb7a9" d="M136.7 200.3l-7-6.2L116 163l14.3-22.6z"/><path fill="#003592" d="M143 0h28v107h-28z"/><circle r="1" fill="#b1a495" transform="matrix(3.92941 -6.86099 21.43511 12.27628 73 81.6)"/><path fill="#a0d9ff" d="M114.4 23.6l-35.8 5.9-.5 48.2-13.6-30.3z"/><ellipse cx="145" cy="224" fill="#533a35" rx="36" ry="12"/><path fill="#161515" d="M-11.4 225.6l3-28.8 33.8 3.6-3 28.8z"/><path fill="#4f7690" d="M-8 195l54-37-36 8z"/><path fill="#5dacdf" d="M0 87h33v46H0z"/><ellipse cx="112" cy="9" fill="#8dbfff" rx="30" ry="17"/><path fill="#90696a" d="M186 214.6v39.6L144.4 211l4.1-40z"/><path fill="#ffffe9" d="M98.3-4.9L119 24.6l-3.3 2.3L95-2.6z"/><circle cx="85" cy="117" r="23" fill="#7e635d"/><path fill="#eff3de" d="M43 132l22-32-7 38z"/><path fill="#f8f9e5" d="M148 149l37-2-37-10z"/><path fill="#eaf8e4" d="M161.3 122l.9-14.8 2.4-2.1 15.3 32.7z"/><circle r="1" fill="#654f49" transform="matrix(-5.81019 -6.21291 41.20183 -38.53108 107.9 153.2)"/><path fill="#a4b4ca" d="M104.2 239.4l-12.6 15.5-7.8-6.3 12.6-15.5z"/><path fill="#9c3d0f" d="M53 98h7v5h-7z"/><path fill="#fffff3" d="M66.1 101.5L38.3 80.9 78 92.5 89.8 88z"/><path fill="#8d7b74" d="M123 189h8v65h-8z"/><path fill="#addf7f" d="M168.3 142.1l-5.6-20.5-13.5 3.2-6.3 12.6z"/><circle r="1" fill="#96767e" transform="matrix(26.83369 11.22478 -5.34711 12.78268 107.8 194.9)"/><path fill="#bef" d="M-14 30l38 43 27-5z"/><path fill="#7e827c" d="M96-4l18 28-16-13z"/><path fill="#b0a67d" d="M-1.9 88.6L-16 124l3.6-63.5 56.3 23.9z"/><path fill="#ff870f" d="M63 66l8 2-9-27z"/><path fill="#76595d" d="M22 212l33-10-19 19z"/><path fill="#fbffff" d="M79 74l-9 1.7L67 58l8.8-1.5z"/><path fill="#87a3b3" d="M58.2 147l-4-34.5-10.8-18.4v9.4z"/><path fill="#7a5e5f" d="M128 53l-52 5 41 80z"/><ellipse cx="78" cy="85" fill="#f3a859" rx="5" ry="10"/><circle r="1" fill="#333f4d" transform="matrix(-5.93934 6.66102 -20.16391 -17.97926 127.3 43.6)"/><path fill="#402421" d="M140 217h24v39h-24z"/><path fill="#6f7686" d="M54.3 79.4l5.7 1.2-17.1-34.4-7.2-16.8z"/><path fill="#2f1d15" d="M42.4 255.4l50.2-1 29-5.8 10.5 7.9z"/><ellipse cx="88" cy="62" fill="#6b717d" rx="10" ry="27"/><circle r="1" fill="#90ccff" transform="rotate(-2.3 542.2 -1566) scale(28.2325 29.55769)"/><path fill="#749fb1" d="M151 151h20v21h-20z"/><path fill="#bbc4c6" d="M2 186l-18-7 34-33z"/><path fill="#cdad84" d="M23.3 47.4l10.4-6 3 5.2-10.4 6z"/><path fill="#0f3464" d="M135 42l16-6-5-49z"/><path fill="#003aad" d="M159 89l-7-74 34 21z"/><path fill="#5a3e3a" d="M110.7 109.2l19.1-5.9 16.1-2.5-30.7-9.2z"/><path fill="#2a434a" d="M58 183l6 13 27-22z"/><path fill="#7bc3ff" d="M144-16l-8 52-47-52z"/><circle r="1" fill="#0055ae" transform="matrix(-1.4299 1.1058 -3.35038 -4.33235 169 133.7)"/><path fill="#d3ffff" d="M50 61l15 11-14-34z"/><path fill="#634138" d="M135.7 129.4l-4.1-6.4-42.3 53 20.4-5.8z"/><path fill="#2b6ad1" d="M135 76h5v19h-5z"/><path fill="#4ca4c2" d="M146.1 109.9l9.9-1.6 1.9 11.8-9.9 1.6z"/><path fill="#7facc3" d="M115.3 165.9l22.1.2-5.6 1.6-1.7-25.9z"/><path fill="#fff" d="M77 92L48 74l-6 22z"/><path fill="#e1c6c6" d="M54.2-16l10.7 70.1-9.4-38.8L52.7-16z"/><path fill="#6e5247" d="M53 167l19-40 4 52z"/><path fill="#435d6a" d="M45 140h6v69h-6z"/><ellipse cx="138" cy="137" fill="#77584c" rx="7" ry="42"/><path fill="#837d7a" d="M48 77l3-11 19 13z"/><circle r="1" fill="#7abfff" transform="rotate(-148.8 44.2 -5.8) scale(21.82378 11.48177)"/><path fill="#379ac3" d="M37.1 153.7l-9.3 5.8-17-27.2 9.4-5.8z"/><circle r="1" fill="#806862" transform="matrix(24.5856 16.83035 -10.21457 14.92134 92 118.3)"/><circle r="1" fill="#907b6f" transform="rotate(-97.7 65.2 34.2) scale(21.57052 5.17219)"/><path fill="#907e8e" d="M100.9 172.1l-25.1 15 50.3 55.3-38.5-34z"/><ellipse cx="17" cy="63" fill="#bfe0ff" rx="31" ry="5"/><circle cx="128" cy="147" r="3" fill="#ffffe2"/><path fill="#cfd8dc" d="M30 97l3-56h1l-3 56z"/><path fill="#b5bdae" d="M14.5 164.6l10-6.8-4.7-.9-12.7-29.1z"/><path fill="#92b1d0" d="M130.5 252.3l-.7.7-14.3-15.3.7-.7z"/><path fill="#284070" d="M172.1 109.3L186 81.9V66.4l-28.5 38.1z"/><path fill="#fff" d="M57 102h4v28h-4z"/><path fill="#858a85" d="M19.6 84.8l-17.8-28 1.8.7-.1 21.7z"/></g></g></svg>