<svg xmlns="http://www.w3.org/2000/svg" viewBox="0 0 1800 1200"><defs/><filter id="a"><feGaussianBlur stdDeviation="12"/></filter><rect width="100%" height="100%" fill="#3d453e"/><g filter="url(#a)"><g fill-opacity=".5" transform="translate(3.5 3.5) scale(7.03125)"><circle r="1" fill="#fff" transform="rotate(-177.2 67.6 -1.6) scale(237.6252 57.76384)"/><circle r="1" fill="#fefcfd" transform="rotate(-170 59.3 8.7) scale(41.93636 25.52719)"/><circle r="1" fill="#070b11" transform="matrix(-11.85431 -1.16713 3.71431 -37.72551 169.5 30.6)"/><circle r="1" transform="rotate(56.7 -27.6 285.5) scale(40.98939 57.42697)"/><path fill="#707175" d="M248 59L-6 40l-10 69z"/><ellipse cx="242" cy="20" fill="#00000a" rx="6" ry="49"/><path fill="#090100" d="M70.4 52.1L56.7 46l9-20.1L79.2 32z"/><circle r="1" fill="#120c06" transform="matrix(59.59557 46.56117 -16.01364 20.49652 28.2 159.6)"/><circle r="1" fill="#c7d4d8" transform="matrix(-26.47837 4.336 -3.67706 -22.45447 205.2 29.3)"/><circle r="1" fill="#d3d6d7" transform="rotate(-114.9 30.3 -4.1) scale(15.88983 39.92373)"/><circle r="1" fill="#665d89" transform="matrix(17.81576 -12.41587 20.79581 29.84028 127.5 153.6)"/><circle r="1" fill="#1b242b" transform="matrix(5.76076 27.22689 -16.17652 3.42268 57.3 84.8)"/><path fill="#65606e" d="M75 54h87v53H75z"/><path fill="#f0eae3" d="M81 26h73v25H81z"/><path fill="#8bb3d8" d="M183 0h56v21h-56z"/><path fill="#5f5f6a" d="M261 56.6l-23.4-9.4-20.5 24 26.2 21.2z"/><circle r="1" fill="#8c989b" transform="matrix(.98994 -6.25022 25.25394 3.99983 14.2 84.2)"/><ellipse cx="109" cy="6" fill="#a5b7c9" rx="52" ry="12"/><path fill="#8a9391" d="M102 53l-35-5 35 32z"/><ellipse cx="169" cy="25" fill="#393b3d" rx="9" ry="73"/><circle r="1" fill="#c5d5de" transform="matrix(19.6025 -.58179 .04132 1.3922 21 71.4)"/><path fill="#473b4b" d="M54 165l59-44-48-82z"/><path fill="#69668d" d="M151.3 147.5l19.7-11.9 7.7 13-19.7 11.8z"/><circle r="1" fill="#060b0b" transform="rotate(79 14.8 214.3) scale(15.27321 54.02422)"/><circle r="1" fill="#2d3628" transform="matrix(-27.75177 34.14855 -23.03016 -18.7161 208 115)"/><circle r="1" fill="#bcbbb2" transform="rotate(-83.2 99.3 -66.6) scale(28.53196 4.76613)"/><path fill="#2d2033" d="M36.1 136.5l12 41.5 60.6-19.1-4.1-17.4z"/><path fill="#e1d5c4" d="M55.1 7.5l-.7 11.4-28.7 24.2 32.4 5.2z"/><path fill="#9b937c" d="M118 78.9l-1-29 21-.8 1 29z"/><path fill="#27313a" d="M245.2 94l-6.6-78 11.2-32-.5 23.1z"/><path fill="#47433d" d="M60 30h19v19H60z"/><path fill="#4b7187" d="M23.2-18.1L32-6-1.2 18.1-10 6z"/><path fill="#c0b39c" d="M177 66l1-27h56z"/><circle cx="110" cy="62" r="9" fill="#3a3227"/><path fill="#a3b8bd" d="M248.3 61.7l18.4 3.5 4.3-9.3-21.5-50z"/><path fill="#5e5d7a" d="M145.5 138l5.9 11.6L52.5 200l-5.9-11.6z"/><path fill="#202335" d="M131.6 80.1l12.2 6.8-19.4 35-12.2-6.8z"/><ellipse cx="203" cy="58" fill="#7a7c7a" rx="29" ry="7"/><path fill="#3b4126" d="M1 95h34v47H1z"/><circle cx="107" cy="94" r="16" fill="#354a77"/><circle r="1" fill="#2d2430" transform="rotate(-145.9 88.3 42.8) scale(34.77878 5.0306)"/><circle r="1" fill="#566f8a" transform="matrix(-36.17248 -2.67646 .24066 -3.25248 24.2 48.6)"/><path fill="#d0b188" d="M86 48h70v6H86z"/><path fill="#1e4745" d="M82 72.3L57.7 90 40 65.7 64.3 48z"/><path fill="#544a5b" d="M89 101l8 32-76 1z"/><path fill="#2a2b2b" d="M260 86l-25-26 3-20z"/><path fill="#685c55" d="M147.2 72.4l51.4 10.2-36.8 10.1-1.5 53.9z"/><ellipse cx="27" cy="75" fill="#283639" rx="32" ry="4"/><ellipse cx="165" cy="68" fill="#3c3d39" rx="10" ry="25"/><path fill="#7f6b70" d="M129 94h20v10h-20z"/><path fill="#c5b28e" d="M-16 39.7l80.5 8.2L6.4 28.7l-22.4-.9z"/><path fill="#bebfb4" d="M234.1 42.5l4.9-15.4-61.6 2.2 54.8 32.3z"/><circle r="1" fill="#5b5e6d" transform="matrix(5.08003 -7.85447 14.90882 9.64257 236.9 77.3)"/><path fill="#705b60" d="M59.1 89.2L40.8 92l53.3 7.1-20 12.1z"/><circle r="1" fill="#8ea8bb" transform="matrix(-44.48215 10.2334 -2.21285 -9.61875 49.7 2.2)"/><path fill="#062857" d="M253 10l10-26 5 50z"/><path fill="#313f4d" d="M161-10l19.8-1.8 2.3 25.9-20 1.7z"/><path fill="#a8b8c6" d="M157-6l4 27L69-2z"/><path fill="#cfcece" d="M52 12h99v16H52z"/><path fill="#0f0e13" d="M47.3 95.6l.3 8.6 8.3 9.8 15.9-4.1z"/><path fill="#0b130a" d="M36.3 172.3l-38.9 3.4-1.7-20 38.9-3.4z"/><path fill="#2f4051" d="M25.4 52.9l-7 14.6-34.4 2.8L-7.6 47z"/><path fill="#3c2f24" d="M90.1 84.8l2.8-9.9-44.2 23.4 37.1-6.8z"/><path fill="#26272a" d="M108 86l-12 32-8-11z"/><path fill="#555371" d="M29 109l41 14-34-24z"/><path fill="#e0dfdb" d="M79 34h78v16H79z"/><path fill="#93888f" d="M162.9 92.2l-5.1 4.6-8.4-20.3 4.2 3.8z"/><path fill="#c9c9c0" d="M178.7 48.9l1.1 10.4L213.1 38l-20.9-24.5z"/><circle r="1" fill="#88a3c0" transform="matrix(12.41917 -3.13246 5.60135 22.2075 226.5 .7)"/><path fill="#7e88b2" d="M109.3 142.6l-.6.8-16-12 .6-.8z"/><path fill="#47523d" d="M181.7 120.8l-12.8-3.5 24.9-18.8 50.6-1.3z"/><path fill="#3e2e35" d="M125 143l-28-15 23 26z"/><path fill="#6e7371" d="M106 86l38-30-22 37z"/><path fill="#2a2328" d="M152 114l2-22-8-12z"/><path fill="#687a81" d="M81.4 102.1l3.5-1.3 21.1-29-15.6 10z"/><path fill="#584d48" d="M66.1 88.9l-5.7-39.2L82.1 32 63.2 71.6z"/><path fill="#57583c" d="M179.7 68.9l39.5-7.4-24 32.4-23 2.1z"/><path fill="#646c8b" d="M118 154l51-4-16 12z"/><path fill="#252d23" d="M201 73h23v27h-23z"/><path fill="#695754" d="M60 90l22-7-7-14z"/><circle r="1" fill="#040c07" transform="rotate(-151.6 145 36.9) scale(14.69614 22.29332)"/><path fill="#a9afb1" d="M35 87l-10-7-16 1z"/><path fill="#7f8788" d="M156 52.6l.9 9-36.8 3.8-1-9z"/><path fill="#5d7487" d="M38 68l-9-8 39-19z"/><path fill="#3b403c" d="M59 31h17v7H59z"/><path fill="#707a7b" d="M72 52h36v7H72z"/><path fill="#3e403e" d="M162 90l17-38-24 4z"/><path fill="#494141" d="M117 78l-6-28-9 28z"/><path fill="#060913" d="M100.7 147.7l.4 4-25.8 2.6-.4-4z"/><path fill="#5f5b6e" d="M147.7 117.2l18 12.5 11.7 25-3.7-.7z"/><path fill="#1c1710" d="M139 65h11v2h-11z"/><circle r="1" fill="#344c7e" transform="matrix(.51391 4.46662 -6.03635 .69452 132 116.4)"/><path fill="#141514" d="M178 132.6l17.6 20.8 8.4 19.9-36.8-39.3z"/><path fill="#52514d" d="M171 29l12 10-29 16z"/><ellipse cx="23" cy="69" fill="#a5b2ba" rx="17" ry="2"/><circle r="1" fill="#1c271e" transform="matrix(-30.5337 33.3217 -8.59043 -7.87168 227.7 133.4)"/><path fill="#acbec6" d="M181 16h54v16h-54z"/><path fill="#495450" d="M66.7 24.2L55.2 42.1l41.6 37.8-33.7-13.7z"/><path fill="#d7c4a7" d="M78 47.8l-4.1 4.9 37.4-5.3-31.9-3.3z"/><path fill="#322833" d="M158.5 163.5L113.7 185l47-5.5 6.2-29z"/></g></g></svg>