<svg xmlns="http://www.w3.org/2000/svg" viewBox="0 0 4652 3101"><defs/><filter id="a"><feGaussianBlur stdDeviation="12"/></filter><rect width="100%" height="100%" fill="#434c37"/><g filter="url(#a)"><g fill-opacity=".5" transform="translate(9 9) scale(18.17188)"><circle r="1" fill="#ffefeb" transform="matrix(-190.64271 12.3129 -6.3965 -99.03808 137.3 135.2)"/><ellipse cx="118" cy="111" fill="#001335" rx="58" ry="11"/><path fill="#4f5b6a" d="M42 57L88-9l182 64z"/><ellipse cx="56" cy="77" fill="#d6c3aa" rx="255" ry="21"/><circle r="1" fill="#d2beaa" transform="matrix(95.51895 -9.58186 2.3716 23.64177 131.1 147.6)"/><circle r="1" fill="#7b8a9c" transform="matrix(66.10149 13.65155 -2.08132 10.07785 128.4 37.2)"/><path fill="#493322" d="M136 83l12-.9 2 27-12 .8z"/><circle r="1" fill="#383528" transform="rotate(-76 43.5 -5.5) scale(21.8329 42.44235)"/><path fill="#3a4953" d="M114.8 67.1l-1.4 54.1-46.2-1.5 32.6-15.8z"/><circle r="1" fill="#9d927e" transform="rotate(-135 25.4 36.5) scale(25.31851 32.09196)"/><path fill="#d0c0a9" d="M174.7 69l46.4-7.4 8.2 51.4-46.4 7.4z"/><ellipse cx="181" cy="52" fill="#425056" rx="112" ry="5"/><path fill="#e2d7c6" d="M159.9 61.5l-33.4 37.8L115 79.9 74.1 65.7z"/><path fill="#556d90" d="M142 95l1 16 43-9z"/><circle r="1" fill="#c0af93" transform="matrix(36.11531 -7.01221 5.6307 29.00008 244.6 82.6)"/><path fill="#708caa" d="M177 37h57v17h-57z"/><ellipse cx="147" cy="20" fill="#99a6bb" rx="35" ry="2"/><circle r="1" fill="#1f2219" transform="matrix(-8.25149 -40.52703 21.18123 -4.3126 1.2 11)"/><circle r="1" fill="#7597bd" transform="matrix(.1317 -5.53149 34.27012 .81593 123 46.7)"/><ellipse cx="175" fill="#8a96ae" rx="3" ry="41"/><ellipse cx="86" cy="24" fill="#cecccd" rx="26" ry="2"/><ellipse cx="8" cy="153" fill="#95846e" rx="22" ry="43"/><circle r="1" fill="#444428" transform="matrix(-1.4515 19.3044 -66.91565 -5.03141 108 -.1)"/><ellipse cx="49" cy="92" fill="#bcb09d" rx="19" ry="39"/><path fill="#2d271d" d="M231 42h25v10h-25z"/><path fill="#463a20" d="M85 27h30v7H85z"/><ellipse cx="31" cy="57" fill="#887f6b" rx="52" ry="6"/><circle r="1" fill="#b9aa96" transform="rotate(-175.5 103.6 80.6) scale(41.87131 82.49639)"/><path fill="#2c2e22" d="M97 117h80v3H97z"/><circle r="1" fill="#a39b93" transform="matrix(-17.39304 -3.20901 .75887 -4.1131 127.3 29.3)"/><ellipse cx="196" cy="55" fill="#262317" rx="33" ry="2"/><ellipse cx="162" cy="80" fill="#d7ccba" rx="17" ry="16"/><circle r="1" fill="#a0907a" transform="rotate(107.2 62.3 169.4) scale(10.10852 52.09279)"/><path fill="#3f4031" d="M80.6 46.2l9.6-17.5L.4 43.5l96 14.2z"/><path fill="#5b718f" d="M174 96.2l7 13.7-44.1-1.7 31.8-13.5z"/><ellipse cx="79" cy="81" fill="#ccc2b1" rx="27" ry="21"/><path fill="#566d89" d="M63 104h57v8H63z"/><path fill="#7f756a" d="M207 116h32v7h-32z"/><path fill="#5b4325" d="M136 103.7l8.9 1.6 2.5-22.2-15.9 19.5z"/><path fill="#afb2b9" d="M73 19h13v8H73z"/><path fill="#333a45" d="M129 38.5l27.9-2 .2 3-28 2z"/><circle r="1" fill="#272326" transform="matrix(3.2585 -14.85994 30.70149 6.73223 249.7 0)"/><path fill="#29302e" d="M66 115h99v4H66z"/><path fill="#b4a697" d="M20 185l117-67-98 7z"/><path fill="#93a4b9" d="M164 36h41v4h-41z"/><path fill="#d0c3ae" d="M252 109l-93-23 40 25z"/><circle r="1" fill="#c3b8a7" transform="matrix(-27.57994 24.80371 -27.21752 -30.26392 153.6 162.1)"/><path fill="#48555c" d="M109.7 77.2l6.7 2.3-10.1 29.3-6.7-2.3z"/><path fill="#7d8489" d="M46.1 54.4l32 7.5 8.8-34.2 20 24.6z"/><path fill="#605d61" d="M227 30l21 16 23-12z"/><path fill="#495255" d="M132.5 125.3l28.8-6.7 21.3-15.3-18.6 2.4z"/><ellipse cx="190" cy="16" fill="#3d3b2d" rx="13" ry="20"/><path fill="#4f4d52" d="M133 134h35v2h-35z"/><path fill="#2d271b" d="M99 54h70v2H99z"/><path fill="#c5b9ac" d="M112 86h15v16h-15z"/><path fill="#373c2d" d="M-5.9 52.7l58.9.8 13.4-37L29.7-16z"/><path fill="#38444d" d="M182 45l-9-6-1 13z"/><path fill="#0c1119" d="M10 169h17v1H10z"/><path fill="#85a0bc" d="M143 104h19v5h-19z"/><ellipse cx="87" cy="59" fill="#a49881" rx="40" ry="3"/><path fill="#3c4046" d="M181 130h11v2h-11z"/><path fill="#212728" d="M70 103h5v17h-5z"/><path fill="#756d68" d="M159 142h32v2h-32z"/><path fill="#d2c6b4" d="M147 156l7-25 18 23z"/><circle r="1" fill="#7f94a9" transform="matrix(-6.95382 1.38951 -.9248 -4.62816 226.8 42.6)"/><path fill="#423e24" d="M140 30l19-6 7 10z"/><path fill="#aa9f8d" d="M7 61h31v86H7z"/><path fill="#ad9974" d="M229 53h27v9h-27z"/><path fill="#9c9183" d="M177 160.4l51.4 4.6-64.1-12.7 32-1.4z"/><ellipse cx="186" cy="114" fill="#b7ac9d" rx="18" ry="5"/><path fill="#4d4741" d="M238 161h18v2h-18z"/><path fill="#b4bcc4" d="M118 26h21v3h-21z"/><path fill="#8390a4" d="M115 86h2v34h-2z"/><path fill="#c6b399" d="M235 143l-16-18 40-4z"/><path fill="#cbbfa9" d="M61.1 92.6l8 7.5L55 115.4l-8-7.5z"/><path fill="#bbad96" d="M203 151h38v19h-38z"/><path fill="#8b8072" d="M251.8 141.2L207 150l55.8 16.8-30.5-13z"/><path fill="#736b5e" d="M9 157l12-1-25 29z"/><path fill="#4b4d37" d="M155.2-15L85.6 23.8l37.1-2.1-13.8 2.9z"/><path fill="#d4c9b8" d="M104.2 61.3l-15.8 40 21.8-21.9 27.3-17.1z"/><path fill="#555455" d="M80 146h13v2H80z"/><path fill="#cbbfaf" d="M59.6 132.4l27.5-8.7-16.7-.9 14.9 31.9z"/><path fill="#2c3333" d="M7 113h10v2H7z"/><path fill="#a39783" d="M60.4 161.2l28.6 7.7-33.8 2.4-58.6-5.8z"/><circle r="1" fill="#53504f" transform="matrix(-5.30032 .6186 -.11592 -.99326 197.5 146.2)"/><path fill="#b7b296" d="M243.4 33l-11-1 .2-1 11 1z"/><path fill="#474937" d="M174.9 16L52.4 17l109.3-33 13.8 56z"/><ellipse cx="233" cy="89" fill="#b2a998" rx="67" ry="9"/><circle r="1" fill="#d6cab6" transform="rotate(88.8 -23 136.7) scale(1.92089 38.90399)"/><ellipse cx="175" cy="59" fill="#a99c85" rx="103" ry="3"/><path fill="#736d68" d="M16 127h25v3H16z"/><path fill="#4c515d" d="M139 40l-10-8 31 5z"/><path fill="#708aa4" d="M84 41h87v11H84z"/><circle cx="63" cy="27" r="3" fill="#7b8ea3"/><path fill="#908783" d="M167.9 120.3l-40.2 3.5-43.3-.9 73.1-3.8z"/><ellipse cx="3" cy="79" fill="#9e9581" rx="14" ry="19"/><path fill="#494939" d="M98 34L44 24l4 20z"/><circle cx="99" cy="95" r="5" fill="#d7cfbe"/><path fill="#3d3730" d="M239 169h17v1h-17z"/><circle r="1" fill="#64503b" transform="matrix(5.29926 .34273 -.80935 12.51427 142.4 95)"/></g></g></svg>