<svg xmlns="http://www.w3.org/2000/svg" viewBox="0 0 1800 1200"><defs/><filter id="a"><feGaussianBlur stdDeviation="12"/></filter><rect width="100%" height="100%" fill="#364156"/><g filter="url(#a)"><g fill-opacity=".5" transform="translate(3.5 3.5) scale(7.03125)"><circle r="1" fill="#e9ffff" transform="matrix(-.2828 -81.0144 254.99845 -.89012 153.9 55.5)"/><ellipse cx="91" cy="152" fill="#14acb8" rx="255" ry="38"/><circle r="1" fill="#acd4ff" transform="matrix(-1.99723 -43.98253 215.39288 -9.78093 158.7 45.7)"/><ellipse cx="120" cy="97" fill="#48360c" rx="255" ry="6"/><ellipse cx="165" cy="108" fill="#fadcb0" rx="173" ry="7"/><ellipse cx="111" cy="7" fill="#65a0de" rx="173" ry="16"/><circle r="1" fill="#e1e1de" transform="matrix(-102.1867 5.1345 -.68543 -13.64146 193.7 69.2)"/><ellipse cx="110" cy="134" fill="#338695" rx="255" ry="13"/><path fill="#665b4b" d="M-3.4 106.2l5-18.4 34.5.3 47.4 18.8z"/><path fill="#5e5a4a" d="M184 91h68v16h-68z"/><path fill="#e6e0ce" d="M226.3 116l-86.9-6.9 99.7-5.3-26.8-7.5z"/><path fill="#fff6ea" d="M94.2 11l12.8 2.3-3.2 17.7L91 28.7z"/><ellipse cx="45" cy="111" fill="#f2e7d4" rx="255" ry="3"/><circle r="1" fill="#85aed4" transform="matrix(-1.49286 -13.01641 176.4668 -20.2391 80.3 40.2)"/><path fill="#232c22" d="M174 97h33v7h-33z"/><path fill="#828d9a" d="M25.2 92.1L9.7 93.4l25 4.6 142.1-6.5z"/><ellipse cx="193" cy="116" fill="#69a8b6" rx="160" ry="3"/><path fill="#ece0ce" d="M157.5 98l12-.9 1 15-12 .8z"/><path fill="#2e2f29" d="M224 91h32v8h-32z"/><ellipse cx="57" cy="80" fill="#bdc2cc" rx="179" ry="8"/><path fill="#9cbeda" d="M154 74l-25-39 142 6z"/><circle r="1" fill="#288391" transform="matrix(-135.09248 -23.82045 3.62867 -20.57923 181.2 155.8)"/><circle r="1" fill="#ecebe7" transform="rotate(82.2 79.9 167.1) scale(6.63512 37.85757)"/><ellipse cx="204" cy="121" fill="#5da1ae" rx="250" ry="7"/><ellipse cx="205" cy="84" fill="#aabed8" rx="14" ry="10"/><path fill="#484731" d="M40.9 106.1l40.9-7.3 35.2-2.2-45-2.7z"/><path fill="#d5c3aa" d="M84.3 98.2l2.8 5.3-19.4 10.3-2.8-5.3z"/><path fill="#e2d3bf" d="M80.8 111l21.4-14.6-5.3 15.4 17-4.1z"/><circle r="1" fill="#bca788" transform="matrix(-.47005 -2.4202 52.38173 -10.17349 253 99.8)"/><path fill="#e4e3e2" d="M135.4 59.8l-33.7 3.1 31.2 19.3L151 67.6z"/><path fill="#c9ced8" d="M6.8 32.6L61.2 24l-15.8 9.2L-16 7.7z"/><path fill="#eaddc7" d="M230 110l-8-15-10 3z"/><ellipse cx="79" fill="#6d9ed4" rx="108" ry="14"/><path fill="#a18f74" d="M176 98.9l-37.4 5.3-6.6 7.5-18.8-5.9z"/><circle r="1" fill="#358695" transform="matrix(163.05986 9.97317 -.57522 9.4048 198.5 138.7)"/><path fill="#424532" d="M167 97h47v5h-47z"/><path fill="#514c2f" d="M5 107l29-8-30-3z"/><path fill="#d8cca6" d="M128.4 93.3l-7.8 9.6 5.2 2.2 2.7-9.9z"/><path fill="#809fca" d="M257 73v16l-53-1z"/><path fill="#9fb5ce" d="M73 69h26v25H73z"/><ellipse cy="91" fill="#70676a" rx="60" ry="4"/><path fill="#9e8973" d="M74 103h11v8H74z"/><ellipse cx="190" cy="119" fill="#77b0ba" rx="123" ry="3"/><ellipse cx="129" cy="90" fill="#95abcc" rx="26" ry="3"/><path fill="#535032" d="M146.1 94.5l7.7 6.4-3.9 4.6-7.7-6.4z"/><circle cx="199" cy="107" r="4" fill="#f1e6d4"/><ellipse cx="38" cy="116" fill="#296783" rx="71" ry="1"/><path fill="#e4e5e6" d="M93.9 17.3l5.9-7.7 3.7 12.4L96 36.2z"/><path fill="#3b392b" d="M244 90h12v7h-12z"/><path fill="#484b32" d="M130 94h24v7h-24z"/><path fill="#76a1ce" d="M77.5 5.6l2.9 26.9-18 1.9-2.8-26.9z"/><path fill="#d3d2d3" d="M73 82L44 70l-27 6z"/><path fill="#504b41" d="M241 107l12-5-14 1z"/><circle r="1" fill="#7ea7d2" transform="matrix(11.77415 -22.97547 30.364 15.56052 128.4 5.3)"/><ellipse cx="25" cy="50" fill="#8faecd" rx="55" ry="18"/><circle r="1" fill="#92b9da" transform="matrix(-67.57377 7.1685 -1.52503 -14.37571 228.6 21.9)"/><path fill="#efefeb" d="M234 52l-5 13 33-3z"/><ellipse cx="16" cy="103" fill="#796d4b" rx="60" ry="2"/><path fill="#ddd3c1" d="M174 103h11v10h-11z"/><path fill="#cfbea5" d="M94 108H70l14-11z"/><path fill="#4c4f35" d="M154 97l14-7 17 5z"/><circle r="1" fill="#48483d" transform="rotate(-129.2 70.8 26.8) scale(1.9064 9.17005)"/><circle r="1" fill="#a5c2da" transform="matrix(72.8488 -17.39084 2.47124 10.35182 220.5 47.7)"/><path fill="#e5e1e0" d="M26 27.5l2.4-4.4 9.6 5.4-2.4 4.4z"/><circle r="1" fill="#1e6879" transform="rotate(-75.5 122.4 67.5) scale(13.52071 34.11261)"/><path fill="#b5c5d5" d="M136 70h40v21h-40z"/><ellipse cx="22" cy="110" fill="#e6d7c1" rx="36" ry="4"/><path fill="#d6dadc" d="M190 63l34 18-57-8z"/><path fill="#d5cebd" d="M194.8 115l70-5.9-57-3.1-16.4-2.6z"/><path fill="#819cbd" d="M207.2 95.9l21.6-11.1-41.5 1.1 7.8-.3z"/><ellipse cx="36" cy="114" fill="#b7d2cf" rx="40" ry="1"/><path fill="#fff3db" d="M160 99h6v4h-6z"/><path fill="#e0dad2" d="M-16 55.1l7.5 9.6.3 13.2 16.9-4.4z"/><path fill="#c1b297" d="M168.7 103l-24.2-3 13 6.3-19.1-1.5z"/><path fill="#6a5943" d="M171 105h4v3h-4z"/><path fill="#83a6cc" d="M48.8 22.3L-16 25.5l60.1-12.4 68.5-4.3z"/><path fill="#a3bad0" d="M178.3 75.5l-29-37.5 8.3 49.4 29.7 7.2z"/><ellipse cx="1" cy="98" fill="#2e372c" rx="24" ry="2"/><path fill="#a38c6d" d="M105 104h30v3h-30z"/><path fill="#dbd3c4" d="M223 96l-8 1 8 4z"/><path fill="#94a7c2" d="M234.3 89.9l-.2 2.4 4.7.6L271 73.8z"/><path fill="#f5ebd8" d="M98 103h28v2H98z"/><path fill="#322d24" d="M185 100l3 6 6-6z"/><path fill="#dbd0bd" d="M137 107h85v4h-85z"/><circle cx="213" cy="106" r="2" fill="#605749"/><path fill="#474939" d="M41 101l17 3 5-8z"/><path fill="#e9dfcd" d="M111 107h18v6h-18z"/><path fill="#4890a4" d="M50.2 116.7l-.4 11-66-2.4.4-11z"/><path fill="#aac6dc" d="M265.4 55.3l-75.1-3 36.6 12.4 11.6-32.9z"/><ellipse cx="98" cy="102" fill="#f3ecdb" rx="2" ry="4"/><path fill="#a29572" d="M24 107l15-5-15-2z"/><path fill="#43909e" d="M209.5 135.5l41.7 11.5 13.8-34.1-27.4 16.9z"/><path fill="#5a5b33" d="M123 98l-15 4-8-11z"/><ellipse cx="189" cy="96" fill="#646741" rx="24" ry="3"/><path fill="#207b89" d="M160 185L13 140l195 4z"/><circle r="1" fill="#9caec4" transform="rotate(-138.5 18.5 38.3) scale(6.14669 12.35729)"/><circle r="1" fill="#85add4" transform="rotate(-103.3 101.4 -72.6) scale(13.62655 96.04352)"/><circle cx="217" cy="93" r="4" fill="#323b30"/><ellipse cx="47" cy="25" fill="#e3e1e2" rx="5" ry="3"/><path fill="#4e4c39" d="M87.3 96.4l-18.8-.8-1.9 5.1 1.6 4z"/></g></g></svg>