<svg xmlns="http://www.w3.org/2000/svg" viewBox="0 0 1800 1200"><defs/><filter id="a"><feGaussianBlur stdDeviation="12"/></filter><rect width="100%" height="100%" fill="#49372c"/><g filter="url(#a)"><g fill-opacity=".5" transform="translate(3.5 3.5) scale(7.03125)"><circle r="1" fill="#b6b6a5" transform="matrix(247.43254 -61.66148 34.66145 139.08797 132.8 10.5)"/><circle cx="167" cy="96" r="32"/><ellipse cx="30" cy="16" fill="#a1b1bd" rx="68" ry="60"/><circle r="1" fill="#d5c5a6" transform="matrix(-39.2184 3.63818 -2.98554 -32.18315 217.7 19.1)"/><circle r="1" transform="rotate(173.1 84.9 28) scale(13.42298 19.7399)"/><circle r="1" fill="#685e50" transform="matrix(-131.58493 -30.13697 6.91346 -30.18573 77.6 159.2)"/><circle r="1" fill="#504e48" transform="matrix(.1689 -16.12877 57.38536 .60096 93 32.1)"/><path fill="#f1dab7" d="M152.1 51.1L61.8 68.7l-2-9.8 90.4-17.6z"/><circle cx="218" cy="148" r="47" fill="#5e5e54"/><ellipse cx="177" cy="16" fill="#d9ccb2" rx="47" ry="8"/><path fill="#ceddea" d="M-16 33.3l85.7-19.8 43.6-7 9.6-22.5z"/><path fill="#facea3" d="M142 114l-41 21 39 8z"/><ellipse cx="156" fill="#1b1b18" rx="41" ry="8"/><circle r="1" fill="#101012" transform="rotate(164.2 89 65) scale(5.61472 51.54959)"/><path fill="#bcaa8f" d="M94 153l-18 17 71 15z"/><path fill="#a39077" d="M272.4 139.4l-93.3-18 2.5-12.8 93.3 18z"/><circle r="1" fill="#d6c5aa" transform="rotate(80.5 -26 46.5) scale(6.16094 91.67854)"/><path fill="#e0b389" d="M165.8 139.9l-35.9-20.2 54.8 19.1-38.5 18.9z"/><path fill="#070809" d="M176 121l-34-43 46-2z"/><ellipse cx="199" cy="141" fill="#2f2f2c" rx="23" ry="19"/><path fill="#c08c67" d="M160 80l-12-40 26 39z"/><path fill="#b8a485" d="M78.2 82.3l24.6 36.5-19 12.9-24.6-36.5z"/><path fill="#c0af93" d="M198 166h54v4h-54z"/><path fill="#4d4843" d="M45.4 172.1l-26.3-39L50.6 112l26.3 39z"/><ellipse cx="229" cy="71" fill="#a28d69" rx="40" ry="27"/><circle r="1" fill="#66563d" transform="matrix(.55003 -8.18714 29.54218 1.9847 42.8 76.6)"/><ellipse cx="168" cy="46" fill="#1b1108" rx="12" ry="20"/><circle cx="153" cy="102" r="6" fill="#cbbeb0"/><ellipse cx="247" cy="12" fill="#75664b" rx="21" ry="8"/><path fill="#6b604f" d="M93.3 89.7l3.4 76.5 46-83.1-101.4-2z"/><circle r="1" fill="#8fabc5" transform="matrix(-94.30873 33.34272 -4.6917 -13.27033 42.2 0)"/><path d="M166 123l3-12-38-4z"/><path fill="#73503b" d="M165.6 93.5l-10.1-70.6 4 41.5 29.4-11.6z"/><path fill="#ceb791" d="M132 80l-14.3-17.8 23.4 1L100.5 82z"/><circle r="1" fill="#443d37" transform="matrix(-1.4934 -6.39906 43.39816 -10.12812 78.3 154.4)"/><path fill="#272c30" d="M146.5 96.9l8.8-50.2-29.2 66.1 23.9-3z"/><circle r="1" fill="#aa9778" transform="rotate(-120.7 146.3 -6.4) scale(7.96471 23.95846)"/><circle r="1" fill="#4a4741" transform="matrix(-.60419 -3.85826 50.14223 -7.85206 125 7.7)"/><circle r="1" fill="#767a79" transform="matrix(1.72684 7.71457 -53.77665 12.03747 47.7 43)"/><path fill="#b09f88" d="M27 168h89v2H27z"/><path fill="#595044" d="M103 48.3l41.3-2.2 7.5-21.1-66.4-.3z"/><path fill="#481e11" d="M144 133h17v9h-17z"/><circle r="1" fill="#e9c2a8" transform="rotate(16.9 -359.3 534.1) scale(6.63948 13.35094)"/><path fill="#b7a487" d="M34 125.6L3.6 137l42-25.2 10-32.3z"/><path fill="#b8a58c" d="M62 159.9l24.1-47.7.6 25.9-21.7 7.8z"/><path fill="#877a68" d="M134.8 171.2l-11.6.1 103.7-8-92.8 1.4z"/><circle r="1" fill="#b9ad95" transform="rotate(139.1 99.2 54.5) scale(26.32193 16.08446)"/><circle r="1" fill="#b79a7b" transform="matrix(33.53246 -7.14158 .4447 2.088 122.9 152.7)"/><path fill="#2f3637" d="M239.6 185l31.4-41.1-54.6-23.3 29.8 7.8z"/><path fill="#bbaf98" d="M206 3l-90 11 155 29z"/><path fill="#f9dbb6" d="M155 57h5v16h-5z"/><path fill="#deb079" d="M160 26l-8 24-21 9z"/><path fill="#222527" d="M27.7 158.8l-7.1-9.7L2.7 185l20.2-19.1z"/><path fill="#ac9273" d="M84.6 139.9l-36.5-11 92.6 17.4-13.1-21.4z"/><path fill="#9a856d" d="M28.2 154.5l-5.6-3 43.2-6.3-39.7 20.2z"/><path fill="#393b39" d="M218.6 104.3l19.6 5.4-1.5-17.1-1.7 2.2z"/><path fill="#43423b" d="M66.3 103.9l-60 1.3 3.5 5 13.4-11.6z"/><path fill="#131514" d="M164 28.5h20v29h-20z"/><path fill="#2a2a2b" d="M154 151l-39 7 15 14z"/><path fill="#121318" d="M192.3 124.3l-6.6.8 18.3-12.2-21.4-44.5z"/><path fill="#deb88b" d="M166 131h10v20h-10z"/><path fill="#a89678" d="M-16 107.1L9.8 78l3.3 24.9 74.1-54.6z"/><path fill="#5d4c3e" d="M131.2 124.5l-48.5 11.4 26.1-20.5 18.4 16.2z"/><path fill="#8e99a1" d="M0 32h84v7H0z"/><path fill="#0b0d0e" d="M145 73l-5 33 25-30z"/><ellipse cx="226" cy="133" fill="#f2d6a8" rx="3" ry="4"/><path fill="#e1cca4" d="M247 126h9v7h-9z"/><path fill="#9e8f75" d="M214.7 85.4l56.3 4.8-72.7 9.7-12.6-44.1z"/><path fill="#b8a385" d="M97.4 122.8l3.6-1.3-8.8-9 31.2-6.8z"/><path fill="#40403c" d="M122 97.3l-34.7 12.5 34.1-3.7L95.6 90z"/><path fill="#d4c0a0" d="M25 104h11l-10 13z"/><path fill="#564e44" d="M215 82h6v33h-6z"/><path fill="#93785a" d="M147.8 63.6L164 35.2l-31.8 23.2 4.8 37.2z"/><path fill="#c0ad8e" d="M105 100l-30 9-3-13z"/><path fill="#484239" d="M189 82h42v4h-42z"/><path fill="#373a39" d="M225.7 122.9L212.5 185l-25.2-76.1 28.4 29.4z"/><path fill="#988b75" d="M211 147l22-1 17 11z"/><path fill="#5c4635" d="M124.4 152.7l-10.9-7.6-16.3 4 60.8-9.4z"/><ellipse cx="231" cy="143" fill="#2b302f" rx="59" ry="5"/><path fill="#ae997e" d="M191 117l-9-18-1 29z"/><ellipse cx="144" cy="5" fill="#474239" rx="21" ry="6"/><path fill="#3f3e36" d="M227.1 72.2l-1.3 3.8-17-6.2 1.4-3.8z"/><path fill="#8f7a5f" d="M-9.8 169l-1.3-25 21-1 1.2 25z"/><path fill="#939493" d="M58 16h84v4H58z"/><path fill="#54524b" d="M-2 141l28-22-13-17z"/><path fill="#181916" d="M149.7 89.2l2.1-27.8 10.1 25.3 52.9 17.3z"/><path fill="#383b38" d="M56 101h19v4H56z"/><path fill="#593e3b" d="M165 120l25 9-32 1z"/><path fill="#bfb49f" d="M31 70l88-12-59-8z"/><path fill="#795d44" d="M163.3 88.1l1.7-34.6-65.9 11.3 57.3-5.9z"/><ellipse cx="191" cy="3" fill="#3c382f" rx="15" ry="2"/><path fill="#83796a" d="M76 111l8 8-39 13z"/><path fill="#b19169" d="M159 141l2 16-27-12z"/><path fill="#a8947b" d="M58.5 146.5l5.3 11.5 10.8-23.7-9 11.5z"/><path fill="#131616" d="M162.4 96.6l43.5.2-5.8 6.1-17.1-38z"/><path fill="#d0bd9b" d="M8 113l-4 7-20-15z"/><path fill="#2d2e27" d="M125 54l15 7h-14z"/><path fill="#c0c7ca" d="M25.3 25l104.5-41 .9 14.4L67 15.2z"/><path fill="#cab391" d="M213.8 127.7l32.2-4.8-29.3.8-16.9-7.8z"/><path fill="#eedbc5" d="M141 126l-7 8-7-20z"/></g></g></svg>