<svg xmlns="http://www.w3.org/2000/svg" viewBox="0 0 1200 1800"><defs/><filter id="a"><feGaussianBlur stdDeviation="12"/></filter><rect width="100%" height="100%" fill="#5d392e"/><g filter="url(#a)"><g fill-opacity=".5" transform="translate(3.5 3.5) scale(7.03125)"><circle r="1" fill="#d4e4cd" transform="rotate(-29.8 257.3 -111.1) scale(169 164.47863)"/><circle r="1" fill="#e4ffff" transform="matrix(142.37671 20.39883 -8.7333 60.95544 116.5 0)"/><circle r="1" fill="#6e3c00" transform="matrix(-1.50349 -80.66059 27.74882 -.51723 118.6 110.8)"/><circle r="1" fill="#3f3e1c" transform="matrix(78.50216 15.95474 -3.68135 18.11336 56.8 97.5)"/><ellipse cx="69" cy="246" fill="#474344" rx="104" ry="21"/><circle r="1" fill="#fff" transform="matrix(-100.86865 -135.59689 21.20913 -15.77718 169 45.3)"/><ellipse cx="136" cy="73" fill="#ffad49" rx="20" ry="18"/><path fill="#c77100" d="M89 115h63v26H89z"/><ellipse cx="118" cy="158" fill="#0e3555" rx="22" ry="18"/><circle r="1" fill="#a3c5fd" transform="matrix(3.40752 -24.24574 62.58693 8.79602 51.6 18.8)"/><ellipse cx="47" cy="118" fill="#352418" rx="79" ry="3"/><path fill="#c08d43" d="M86 60h64v43H86z"/><path fill="#f9ffff" d="M20 67h56v5H20z"/><circle r="1" fill="#3a3c3e" transform="rotate(-143.8 15.5 20) scale(26.80238 7.07526)"/><path fill="#e5effa" d="M66 49.5l17.1-47 32.9 12-17.1 47z"/><circle r="1" fill="#0f1d37" transform="matrix(-73.4373 .25635 -.01338 -3.8342 126.4 109.8)"/><path fill="#2c2640" d="M127.9 49.8l-22.3 9-7.5-18.6 22.3-9z"/><circle r="1" fill="#bfa984" transform="matrix(-51.2331 9.77324 -5.94929 -31.18725 30 154.8)"/><circle cx="143" cy="208" r="38" fill="#b19078"/><circle r="1" fill="#799bca" transform="matrix(-36.57854 25.61257 -12.51445 -17.87248 30.6 0)"/><ellipse cx="49" cy="87" fill="#314734" rx="23" ry="17"/><path fill="#fcffff" d="M154 0h16v81h-16z"/><path fill="#b1a090" d="M130 148l53-39v108z"/><path fill="#404146" d="M92.5 213.6l27.3 45.4-22.3 13.4L70.2 227z"/><path fill="#8a543a" d="M102 175h29v36h-29z"/><path fill="#00001c" d="M98 105h7v29h-7z"/><path fill="#e8eefb" d="M134.8 64.2L185 19.7 148.4-16l-23.1 92.3z"/><path fill="#d3cf94" d="M25.1 111.6l1.4-47.1-2.8-15.4-5.6 19.1z"/><path fill="#6c3320" d="M85 121h6v51h-6z"/><path fill="#d58600" d="M103.3 116.3l39-.6.4 22-39 .6z"/><path fill="#000433" d="M118 85h5v33h-5z"/><path fill="#c6bda3" d="M117 171l6 40-17 22z"/><path fill="#f1faee" d="M30.4 69.6h45.5L47 59.3l10-1z"/><path fill="#74453c" d="M148 122h6v51h-6z"/><path fill="#42575b" d="M152 86h18v19h-18z"/><ellipse cx="94" cy="84" fill="#dc9200" rx="6" ry="22"/><circle r="1" fill="#cbdcf1" transform="matrix(-53.768 46.3561 -15.71935 -18.23273 112.5 3.4)"/><path fill="#dbd7bc" d="M-9 75.8l22 2-17.6-22.4 26.1-.2z"/><path fill="#509cb5" d="M30.3 84l-3-12.3 21-1.9L62 72.6z"/><path fill="#e7d0b7" d="M0 105h35v6H0z"/><ellipse cx="137" cy="96" fill="#4884d1" rx="6" ry="8"/><circle r="1" fill="#8d7f69" transform="matrix(-1.44 -10.11097 91.60322 -13.04612 13 227)"/><path fill="#050a10" d="M107 154h19v15h-19z"/><path fill="#d4f6dd" d="M85 81v-8l-29-2z"/><path fill="#d9c7a6" d="M37 198l-21 22 17-50z"/><path fill="#588bd8" d="M99 91h12v11H99z"/><path fill="#8a6062" d="M106.4 83.3l19-56.2 7.1 52.9-10.5 7.4z"/><path fill="#ffe" d="M105 219l2 10-7-2z"/><ellipse cx="105" cy="248" fill="#38393c" rx="58" ry="3"/><path fill="#df9d2e" d="M152.4 122.6l-4.7-64.7-6.1 43.2 6.7 6.4z"/><path fill="#a4967d" d="M110.2 148.6l-17.5-10-36.5 91.1-35.1-66.5z"/><path fill="#555e70" d="M105.8 35.6l5.6-3.8 16.6-2.1 8.7 14.1z"/><path fill="#5c5955" d="M-16 37.3l64.4 21.4 2.6-9.3-37.6-16.8z"/><path fill="#d1c2a6" d="M78 248l-3 23H-7z"/><path fill="#cdba9e" d="M155 184l-24 29 2-42z"/><path fill="#00132f" d="M-9 104.5v-7H9v7z"/><path fill="#c5b9a5" d="M34 104h60v2H34z"/><path fill="#e3ceb6" d="M133 241l15-3-27-8z"/><path fill="#656160" d="M177 236l-39-22 33 52z"/><path fill="#764931" d="M119.3 170.6l-9.8-7.7-10.6 8.6 6.5 38.5z"/><path fill="#69673d" d="M94 70l-39-8 7-10z"/><path fill="#fffadc" d="M32 114h57v1H32z"/><path fill="#85482b" d="M119 175l8 49 5-23z"/><path fill="#95a8a6" d="M147.6 152.4l-23.1-4.4 17.8-8.2 2.9-14.7z"/><ellipse cx="98" cy="44" fill="#e4eff3" rx="4" ry="19"/><circle cx="117" cy="148" r="6" fill="#97ab8f"/><path fill="#b9af9e" d="M75 235h12v7H75z"/><circle cx="169" cy="136" r="15" fill="#c9beaa"/><path fill="#002848" d="M136 167l6-9-3 14z"/><path fill="#50432f" d="M15 75h5v43h-5z"/><path fill="#fff" d="M158.2 68.7L185 85.5l-1.6-60.2-49.3 21.9z"/><circle r="1" fill="#564b4b" transform="matrix(-3.31578 -1.61721 16.34026 -33.5025 110.7 246.4)"/><ellipse cx="2" cy="223" fill="#675f53" rx="16" ry="9"/><path fill="#102230" d="M151 115l-40-6 25-7z"/><circle cx="142" cy="74" r="13" fill="#dd9729"/><path fill="#a58c80" d="M75 57h55v9H75z"/><path fill="#a2845e" d="M29.7 47.5L11.4 76.7 19.2 97l-33.9-15.5z"/><path fill="#3e3e20" d="M83 90l-54 13 23-26z"/><path fill="#ebecdc" d="M12.7 56.2l-1.5 11-10-1.4 1.6-11z"/><path fill="#3f4549" d="M18 255l32 1 26-17z"/><path fill="#3c3f42" d="M74 223l-32 12 64-5z"/><path fill="#463e40" d="M153 116h17v5h-17z"/><path fill="#cbba80" d="M2.7 58L31 86.1l1.4-9.6L10 69.4z"/><path fill="#dfb38a" d="M123.7 43.2l17 14.9L121 79.5l17.2-35.8z"/><path fill="#795444" d="M156.1 139.7l.5 24.7-10.7-30.2 2.3-15.3z"/><path fill="#af9f87" d="M21.3 239.7l60.3-22.6-38.5 2.8 26.4-52z"/><path fill="#cb890a" d="M116.5 94.6L99.7 71.9l-.4 37.5-12.2-28.1z"/><circle r="1" fill="#d7e6f8" transform="matrix(-1.07643 -25.03162 35.55392 -1.52892 143.6 9.8)"/><path fill="#b7a688" d="M23.8 258.1l-12 1.7-1.6-12 12-1.6z"/><path fill="#1b2120" d="M105.3 123.8l-4.1 11.3-9.7-27.4 19-5.5z"/><ellipse cx="17" cy="117" fill="#5a4e46" rx="74" ry="3"/><path fill="#84705e" d="M107.8 220.7L63.7 212l2.5-12.8 44.1 8.6z"/><path fill="#8b5227" d="M91 68l51 10-34 5z"/><path fill="#c2a173" d="M98 113.9l-35.8 14.3 24.7 5.5-18.7 17.9z"/><circle r="1" fill="#d7d6a2" transform="rotate(168.5 7.7 43) scale(1 28.63996)"/><path fill="#726f67" d="M157 196.9l-13-22.4 11.5 34.4-20.5-3.7z"/><path fill="#e4a626" d="M138.8 74.5l-2.1 5.1-10.5 25.8-3.5-14z"/><ellipse cx="115" cy="207" fill="#5e5852" rx="2" ry="13"/><circle r="1" fill="#373f42" transform="matrix(21.27297 -7.08882 .9235 2.77133 4.5 247.7)"/><path fill="#756a57" d="M0 204h59v3H0z"/></g></g></svg>