<svg xmlns="http://www.w3.org/2000/svg" viewBox="0 0 4454 2969"><defs/><filter id="prefix__a"><feGaussianBlur stdDeviation="12"/></filter><rect width="100%" height="100%" fill="#5e5733"/><g filter="url(#prefix__a)"><g transform="translate(8.7 8.7) scale(17.39844)"><circle r="1" fill="#7fa2eb" fill-opacity=".5" transform="rotate(66.7 25.4 92.9) scale(103.14746 254.99999)"/><path fill="#445158" fill-opacity=".5" d="M262 183.9L12.7 232.3-6 136.1l249.3-48.4z"/><circle r="1" fill="#95989f" fill-opacity=".5" transform="rotate(81.6 -26.5 139.6) scale(17.26385 34.29912)"/><ellipse cx="54" cy="90" fill="#8a9ab5" fill-opacity=".5" rx="88" ry="30"/><path fill="#656a7c" fill-opacity=".5" d="M273.8 86.7L206.3 95l-6-49.7 67.4-8.3z"/><circle r="1" fill="#4b4510" fill-opacity=".5" transform="matrix(86.64155 -5.60286 1.02172 15.7997 218 112.4)"/><circle r="1" fill="#5374ad" fill-opacity=".5" transform="matrix(-4.8514 42.90207 -98.16882 -11.101 12.5 24.2)"/><path fill="#cfc7b7" fill-opacity=".5" d="M85 133h47v9H85z"/><circle r="1" fill="#2a3532" fill-opacity=".5" transform="rotate(-156.9 134 52.7) scale(29.79836 70.35534)"/><circle r="1" fill="#455769" fill-opacity=".5" transform="matrix(-139.74017 11.48873 -2.0615 -25.0746 86.7 169)"/><circle r="1" fill="#828ea2" fill-opacity=".5" transform="matrix(-65.56314 24.9761 -11.55395 -30.32951 146 18.6)"/><path fill="#aca9a2" fill-opacity=".5" d="M84.3 99.7l-45.7 33.8 36.8-9.8 111.9-49.6z"/><ellipse cx="26" cy="83" fill="#b9bcc5" fill-opacity=".5" rx="10" ry="22"/><circle r="1" fill="#73623a" fill-opacity=".5" transform="matrix(-48.6233 8.38323 -1.68356 -9.76478 112.8 122.1)"/><ellipse cx="82" cy="77" fill="#607aa0" fill-opacity=".5" rx="51" ry="17"/><ellipse cx="183" cy="85" fill="#919497" fill-opacity=".5" rx="61" ry="8"/><ellipse cx="186" cy="137" fill="#526069" fill-opacity=".5" rx="45" ry="10"/><path fill="#9f9892" fill-opacity=".5" d="M107 127h41v13h-41z"/><circle cx="246" cy="56" r="34" fill="#636976" fill-opacity=".5"/><path fill="#495159" fill-opacity=".5" d="M0 129h72v10H0z"/><circle r="1" fill="#506d9a" fill-opacity=".5" transform="matrix(-34.33912 73.30617 -36.29475 -17.0017 2.6 18)"/><circle r="1" fill="#384341" fill-opacity=".5" transform="matrix(-50.2324 28.3045 -16.47691 -29.2418 214.7 168.9)"/><circle r="1" fill="#394b5c" fill-opacity=".5" transform="matrix(9.94695 1.24645 -4.39901 35.10499 55.5 163.4)"/><ellipse cx="150" cy="98" fill="#858d9a" fill-opacity=".5" rx="21" ry="10"/><path fill="#70788a" fill-opacity=".5" d="M29.1 101.6l-14 54.9 50-44.4 33.6-15.6z"/><path fill="#454119" fill-opacity=".5" d="M220.2 128.4l2.7-38 44.9 3.2-2.7 38z"/><ellipse cx="134" cy="107" fill="#ada89b" fill-opacity=".5" rx="2" ry="27"/><ellipse cx="112" cy="149" fill="#88897e" fill-opacity=".5" rx="27" ry="4"/><path fill="#555f63" fill-opacity=".5" d="M134.4 126.9l65.5 22.3-123.1 13.4 74.8 22.4z"/><circle r="1" fill="#565530" fill-opacity=".5" transform="matrix(1.97936 13.12474 -40.00262 6.03284 188 113)"/><ellipse cx="85" cy="39" fill="#687fa0" fill-opacity=".5" rx="23" ry="58"/><path fill="#697384" fill-opacity=".5" d="M232 46.8l3.4 17.7L98 91.2l-3.4-17.7z"/><circle r="1" fill="#b2ab9d" fill-opacity=".5" transform="matrix(-.99705 -.07672 2.62172 -34.07228 109.8 109)"/><path fill="#c2b9a9" fill-opacity=".5" d="M114.7 43.7l-6.4 60.7-1-.1 6.4-60.7z"/><circle r="1" fill="#5b5527" fill-opacity=".5" transform="rotate(-64.4 156.5 -39.3) scale(7.01686 11.96519)"/><path fill="#b9aea5" fill-opacity=".5" d="M203 128h11v3h-11z"/><path fill="#a5aaa9" fill-opacity=".5" d="M100 97l-30 34-13-12z"/><circle r="1" fill="#14110f" fill-opacity=".5" transform="matrix(16.78012 -.73264 .04673 1.07026 105 144)"/><path fill="#a19c91" fill-opacity=".5" d="M177 128h7v6h-7z"/><path fill="#a4adbb" fill-opacity=".5" d="M23 86.9l9.1-24.2-13.6 1.9 42.3 39.2z"/><path fill="#afafa8" fill-opacity=".5" d="M89 134h37v9H89z"/><path fill="#596674" fill-opacity=".5" d="M69.7 118.3l18.2 22.1-17.2 33.5-8.8-20.7z"/><circle r="1" fill="#767c87" fill-opacity=".5" transform="matrix(39.94972 -28.99219 14.58642 20.09933 222.2 22.6)"/><ellipse cx="59" cy="68" fill="#6d87ab" fill-opacity=".5" rx="28" ry="27"/><path fill="#8f96a2" fill-opacity=".5" d="M7 91h23v28H7z"/><path fill="#bab9b5" fill-opacity=".5" d="M123 137h17v4h-17z"/><ellipse cx="171" cy="82" fill="#a4a593" fill-opacity=".5" rx="31" ry="3"/><path fill="#7e92ac" fill-opacity=".5" d="M111.5 107l-70.6 27.9L106 98.2l76.7-18.1z"/><circle r="1" fill="#596272" fill-opacity=".5" transform="matrix(-25.21873 7.77469 -5.2237 -16.94411 254.1 67.5)"/><path fill="#5b7fb0" fill-opacity=".5" d="M-16 79.4l21 5.3 14.4-7.6-.8-31.4z"/><path fill="#445769" fill-opacity=".5" d="M-16 123.8l58.3 9.7L16.9 185l79.8-23z"/><path fill="#50502c" fill-opacity=".5" d="M194 95h41v32h-41z"/><ellipse cx="7" cy="105" fill="#697588" fill-opacity=".5" rx="10" ry="6"/><path fill="#59616e" fill-opacity=".5" d="M58 91h3v28h-3z"/><path fill="#37372e" fill-opacity=".5" d="M58 127l11 7-19 5z"/><path fill="#70747d" fill-opacity=".5" d="M75 130l33-3-15 8z"/><path fill="#302e13" fill-opacity=".5" d="M271 109l-4 20h-47z"/><path fill="#747e8c" fill-opacity=".5" d="M232 87l-90 21 45-25z"/><path fill="#b9b59e" fill-opacity=".5" d="M140.5 82l1.2 2.8L63.5 118l-1.2-2.8z"/><path fill="#47514e" fill-opacity=".5" d="M191.6 128.7l51.9 7.1-6.3 12.1-64 14.3z"/><path fill="#595a31" fill-opacity=".5" d="M212.4 121.3l-73.7 6.4-1.1-13 73.7-6.4z"/><path fill="#837c7c" fill-opacity=".5" d="M259.4 89.5l-56.1-8.2-57.9-1.1 39.3-8.8z"/><path fill="#87857b" fill-opacity=".5" d="M115.4 150.6l-1.3-4.6 10.1-2.1 16.4.6z"/><path fill="#586778" fill-opacity=".5" d="M9.3 185l-1.9-60.7-23.4-12.7 53.7 45z"/><path fill="#9f8e8a" fill-opacity=".5" d="M121.4 86.9l-60.3 25.6-5 13.6 20.6-17.2z"/><circle r="1" fill="#7d8796" fill-opacity=".5" transform="matrix(-38.67456 25.21572 -12.56793 -19.27604 183.3 19.6)"/><ellipse cx="122" cy="105" fill="#838a96" fill-opacity=".5" rx="27" ry="5"/><path fill="#5f5545" fill-opacity=".5" d="M70 122h28v7H70z"/><path fill="#978262" fill-opacity=".5" d="M172 130.5l-1-15h1l1 15z"/><path fill="#4d4734" fill-opacity=".5" d="M221.4 109l-41.2-9 62.3-10.7-11.7 18.4z"/><path fill="#d9ccb1" fill-opacity=".5" d="M108.5 99h1v26h-1z"/><path fill="#c6c2bb" fill-opacity=".5" d="M121 136l-7 1-1-7 7-1z"/><path fill="#535d5f" fill-opacity=".5" d="M202.9 128.1L101 173.8l40.9-5.9-6.4-27.1z"/><ellipse cx="11" cy="132" fill="#0f191f" fill-opacity=".5" rx="9" ry="1"/><path fill="#afb5bc" fill-opacity=".5" d="M39 89L22 64l10 36z"/><ellipse cx="199" cy="127" fill="#424511" fill-opacity=".5" rx="6" ry="3"/><path fill="#968680" fill-opacity=".5" d="M63.5 116.2L35 134.7l-.5-.9L63 115.3z"/><path fill="#6a7d99" fill-opacity=".5" d="M79 59h31v36H79z"/><path fill="#5b5530" fill-opacity=".5" d="M110 113h22v14h-22z"/><path fill="#827c62" fill-opacity=".5" d="M211 115h2v14h-2z"/><path fill="#8d9cb3" fill-opacity=".5" d="M34.9 107.9l-9.9 3.9-2.8-41.1L3.7 93.4z"/><circle r="1" fill="#7a889f" fill-opacity=".5" transform="matrix(-10.74835 15.29335 -48.22326 -33.89187 116 5.4)"/><path fill="#4d4931" fill-opacity=".5" d="M186 103l-49 7 14 11z"/><path fill="#525c5d" fill-opacity=".5" d="M206 149l-30-19-40 2z"/><ellipse cx="181" cy="92" fill="#7e8281" fill-opacity=".5" rx="1" ry="40"/><path fill="#5b5233" fill-opacity=".5" d="M94 118l11 7 2-12z"/><path fill="#95928a" fill-opacity=".5" d="M51 126l25 4-19-10z"/><path fill="#d9cfc6" fill-opacity=".5" d="M143 128h6v2h-6z"/><path fill="#6a7688" fill-opacity=".5" d="M121 49h85v26h-85z"/><path fill="#475c73" fill-opacity=".5" d="M9 181l-25-25 26-34z"/><path fill="#596a7a" fill-opacity=".5" d="M65 133l-70 20 18-20z"/><circle r="1" fill="#a9bcb6" fill-opacity=".5" transform="matrix(-14.88328 8.9581 -1.01272 -1.68256 73 115.8)"/><circle r="1" fill="#536d94" fill-opacity=".5" transform="matrix(15.46896 11.35747 -66.20881 90.1769 0 22)"/><path fill="#4c4d21" fill-opacity=".5" d="M216 106h30v20h-30z"/><path fill="#778dae" fill-opacity=".5" d="M58.6 99.2l3.3-34.3-36.1 12.4 20.4 13.2z"/><path fill="#617ba3" fill-opacity=".5" d="M50 47L36 18 8 70z"/><circle r="1" fill="#817e77" fill-opacity=".5" transform="matrix(-.01808 -.99984 7.06149 -.12767 126.8 136.1)"/><path fill="none" stroke="#676765" stroke-opacity=".5" stroke-width=".5" d="M91 131.4q56.1 9.4 89.3-3.6"/><circle cx="81" cy="146" r="1" fill="#ffffe0" fill-opacity=".5"/><circle r="1" fill="#62799c" fill-opacity=".5" transform="matrix(.55035 21.8658 -35.54143 .89456 70.8 28.9)"/></g></g></svg>