<svg xmlns="http://www.w3.org/2000/svg" viewBox="0 0 1800 1013"><defs/><filter id="a"><feGaussianBlur stdDeviation="12"/></filter><rect width="100%" height="100%" fill="#3a526a"/><g filter="url(#a)"><g fill-opacity=".5" transform="translate(3.5 3.5) scale(7.03125)"><circle r="1" fill="#fff8ea" transform="matrix(249.9409 44.04967 -16.7068 94.7955 152.8 42.6)"/><circle r="1" fill="#506f8b" transform="matrix(157.1119 -.57343 .15466 42.37523 122.3 114.5)"/><ellipse cx="122" cy="23" fill="#efe8d6" rx="255" ry="34"/><circle r="1" fill="#617b8e" transform="rotate(-106.2 87.6 46) scale(57.96716 132.90591)"/><circle r="1" fill="#c0a69e" transform="matrix(.69045 -19.7719 180.334 6.2974 154.9 56)"/><circle r="1" fill="#5e7285" transform="matrix(-55.39646 14.77539 -9.78737 -36.69519 122.3 107)"/><circle r="1" fill="#d9e5e1" transform="matrix(-113.17864 -16.51098 2.62387 -17.98595 222.3 9.3)"/><path fill="#202429" d="M209 91h47v5h-47z"/><path fill="#788ea3" d="M56.2 76l8.2 77.7-78.6 8.2-8.2-77.6z"/><path fill="#97aeba" d="M202 97h54v18h-54z"/><ellipse cx="67" cy="97" fill="#beb7af" rx="187" ry="2"/><circle r="1" fill="#ac9896" transform="matrix(54.33268 11.84644 -3.43736 15.76518 152.8 63.4)"/><circle r="1" fill="#988596" transform="matrix(47.76453 -4.88783 .93 9.08808 72.7 75)"/><ellipse cx="35" fill="#c5d5d7" rx="139" ry="23"/><circle r="1" fill="#c5beb8" transform="rotate(-84.3 150 -103.2) scale(16.15907 69.16548)"/><circle r="1" fill="#5f7a8d" transform="rotate(101.3 -15.4 95.3) scale(25.02727 81.26327)"/><circle r="1" fill="#cdc8bf" transform="matrix(53.21677 -11.40869 4.5935 21.42674 23 42.7)"/><path fill="#4f6e88" d="M124.9 94.3l106.5 3.3-15.2-7.1L93.4 79.6z"/><circle r="1" fill="#9a99ac" transform="rotate(178.4 107.8 43.2) scale(15.46945 10.64958)"/><circle r="1" fill="#7895a6" transform="matrix(-74.88974 -19.90873 4.50141 -16.93274 248.3 124.8)"/><path fill="#3a3e44" d="M225 95h46l-19-8z"/><ellipse cx="117" cy="114" fill="#577185" rx="44" ry="16"/><path fill="#bab2aa" d="M271 87.3L80.8 44.5l-1-11 65.8-10.9z"/><path fill="#6b8190" d="M58 124l180 8-117 27z"/><circle r="1" fill="#4d6c86" transform="matrix(47.89366 1.73377 -.14883 4.11138 118.1 92)"/><circle r="1" fill="#bba9a5" transform="matrix(.78646 6.59542 -121.07628 14.43747 18.4 64.3)"/><ellipse cx="22" cy="78" fill="#9c96ab" rx="40" ry="9"/><path fill="#8e818c" d="M63 69h115v7H63z"/><circle r="1" fill="#4e687e" transform="matrix(.01931 1.22937 -114.19027 1.79384 15.7 140.5)"/><circle r="1" fill="#cbd0c8" transform="matrix(1.9076 -8.13306 83.11675 19.49486 201.4 22)"/><circle r="1" fill="#7f909f" transform="matrix(.04371 .99904 -62.248 2.72349 53.4 143)"/><ellipse cx="245" cy="98" fill="#a9adae" rx="89" ry="2"/><path fill="#9196b0" d="M263.4 76.5l1 12-33.8 3-1-12z"/><ellipse cx="209" cy="143" fill="#8ca0ab" rx="34" ry="4"/><circle r="1" fill="#d9e0db" transform="matrix(69.65866 14.17222 -3.24024 15.9263 238.3 .8)"/><path fill="#38546a" d="M133 141h18v3h-18z"/><path fill="#2f363a" d="M221 95.1v1L203 95v-1z"/><ellipse cx="128" cy="18" fill="#c0c9c4" rx="52" ry="11"/><path fill="#6d8798" d="M170.9 99.3l37.4.6 8.9 27.3-46.2 26.4z"/><circle r="1" fill="#66839c" transform="matrix(-32.58243 -.1706 .02217 -4.23428 204.8 90)"/><path fill="#b1a1a9" d="M200 68h56v14h-56z"/><ellipse cx="3" cy="130" fill="#9cabb6" rx="21" ry="1"/><path fill="#879eaf" d="M228 103h28v27h-28z"/><path fill="#8b9aa8" d="M33 135h28v2H33z"/><path fill="#556c7f" d="M127 143.9l1.2-20.4-20.5 14.1-17.4.2z"/><path fill="#c1c3b7" d="M108.8 39.3l-70.4-.4 104.5-20.7 96 28.3z"/><path fill="#7e909d" d="M127.5 133.8L138 140l-8.6-2.9 91.3 1.6z"/><path fill="#ab9995" d="M152 53L86 64l113 11z"/><path fill="#436177" d="M93 122.6l-54 3.8v-1l53.8-3.8z"/><ellipse cx="26" cy="20" fill="#ccd0c8" rx="62" ry="10"/><ellipse cx="81" cy="1" fill="#c2d2d4" rx="80" ry="10"/><path fill="#4e6c82" d="M247.5 131v1l-21 1v-1z"/><path fill="#212f36" d="M214 94h42v1h-42z"/><path fill="#5e7b93" d="M0 101h97v18H0z"/><ellipse cx="189" cy="126" fill="#5d788a" rx="30" ry="2"/><ellipse cy="85" fill="#8290aa" rx="66" ry="5"/><path fill="#758d9e" d="M50 98h131v2H50z"/><ellipse cx="16" cy="97" fill="#b4b7ba" rx="69" ry="1"/><path fill="#8797a6" d="M19 141l34 16 19-14z"/><ellipse cx="7" cy="135" fill="#7e94a5" rx="12" ry="3"/><path fill="#b8aca2" d="M212 63L65 57l72-19z"/><path fill="#314e68" d="M0 139h31v1H0z"/><path fill="#446279" d="M195 134h18v2h-18z"/><ellipse cx="239" cy="51" fill="#c4beb8" rx="33" ry="10"/><circle r="1" fill="#5d7a99" transform="matrix(.63592 3.98172 -29.22384 4.66733 72.6 89)"/><path fill="#778ea2" d="M25 120l26 2-2-7z"/><path fill="#71768e" d="M187.1 80.6l-15.2 8.2 14.2-2-99.5-16z"/><ellipse cx="116" cy="139" fill="#314c60" rx="15" ry="1"/><path fill="#355064" d="M98 122l-1-4-9 5z"/><path fill="#605553" d="M243 90h13v4h-13z"/><ellipse cx="4" cy="132" fill="#36536a" rx="18" ry="1"/><path fill="#8998a2" d="M137.4 136.4l.1 1-25 2.2v-1z"/><ellipse cx="142" cy="128" fill="#5b7485" rx="29" ry="4"/><path fill="#4b6e89" d="M242.5 136.6l.1-1 17 1.8-.2 1z"/><circle r="1" fill="#8f96a8" transform="matrix(28.90892 1.71687 -.29334 4.93923 220 84)"/><path fill="#566f89" d="M189 86l-68-11-16 20z"/><ellipse cx="255" cy="96" fill="#7d746d" rx="51" ry="1"/><path fill="#788c99" d="M128 120h34v2h-34z"/><ellipse cx="30" cy="54" fill="#c3b6af" rx="51" ry="6"/><path fill="#73889a" d="M46.7 159L45 137.9l30.6-5.2-44.1 15.8z"/><path fill="#43627a" d="M0 141h21v2H0z"/><ellipse cx="72" cy="132" fill="#26445c" rx="7" ry="1"/><circle r="1" fill="#7e8f9b" transform="matrix(.04267 .99909 -23.6572 1.01045 161.4 139.5)"/><path fill="#7891a2" d="M225.5 127.7l-33.2-7.3 42-7.8 28 9.7z"/><path fill="#8796a3" d="M85.3 139.3l.2-1 47.2 8.4-.2 1z"/><path fill="#8a9fb1" d="M11.8 140l.2 1-5.8 1-.2-1z"/><path fill="#968f9d" d="M52.2 67.9l37 10.1-38.5 4.5L36.1 65z"/><ellipse cx="37" cy="96" fill="#b5b5b6" rx="38" ry="1"/><path fill="#8097a8" d="M193 103h33v10h-33z"/><ellipse cx="248" cy="134" fill="#94a7b2" rx="7" ry="2"/><path fill="#48657d" d="M56.1 138.9l.8 7.9-9.7 12.2 23.4-21.3z"/><path fill="#244865" d="M16 122h6v2h-6z"/><path fill="#7a909e" d="M141 124h24v2h-24z"/><ellipse cx="6" cy="99" fill="#7391a9" rx="50" ry="2"/><path fill="#d5d5ca" d="M271 39.5l-2.1-17.7-48.6-13.2-24.7 16.5z"/><ellipse cx="132" cy="68" fill="#a08f90" rx="37" ry="3"/><ellipse cx="36" cy="131" fill="#8094a6" rx="22" ry="1"/><ellipse cx="198" cy="123" fill="#90a3ad" rx="16" ry="1"/><ellipse cx="166" cy="141" fill="#567083" rx="24" ry="1"/><circle r="1" fill="#ab9ea9" transform="matrix(-20.2442 -2.70798 .9518 -7.1155 15 72)"/></g></g></svg>