<svg xmlns="http://www.w3.org/2000/svg" viewBox="0 0 3793 2529"><defs/><filter id="a"><feGaussianBlur stdDeviation="12"/></filter><rect width="100%" height="100%" fill="#354963"/><g filter="url(#a)"><g fill-opacity=".5" transform="translate(7.4 7.4) scale(14.8164)"><circle r="1" fill="#fbe7cc" transform="rotate(89.8 -3.3 76) scale(141.34174 239.91468)"/><circle cx="139" cy="102" r="68" fill="#5d4b4c"/><ellipse cx="28" cy="13" fill="#ebfeff" rx="75" ry="34"/><circle r="1" fill="#d2e6f9" transform="matrix(16.66958 -39.65537 138.67795 58.29484 221.9 13.1)"/><circle r="1" fill="#f6f3ea" transform="rotate(-138.8 22.3 59.3) scale(46.44007 26.2096)"/><circle r="1" fill="#4a572b" transform="rotate(146.3 108.4 85.9) scale(20.65229 34.25818)"/><circle r="1" fill="#233950" transform="matrix(-23.41075 -30.26424 17.3261 -13.40253 116.6 105)"/><path fill="#fffff3" d="M207 92h14v52h-14z"/><ellipse cx="101" cy="49" fill="#1d67b7" rx="20" ry="15"/><ellipse cx="135" cy="156" fill="#a07f75" rx="76" ry="24"/><ellipse cx="22" cy="83" fill="#fffff8" rx="49" ry="6"/><path fill="#f0fbff" d="M154.2 27.2l-10.6 14.5-17.8-12.9 10.6-14.5z"/><circle r="1" fill="#b1ac9f" transform="rotate(37.2 -22.8 277.3) scale(61.55497 9.19122)"/><path fill="#534f49" d="M75 91l-10 25-36-23z"/><path fill="#e9ded3" d="M69 118l-85 36 78-10z"/><circle r="1" fill="#dbd4c5" transform="matrix(42.05536 3.53026 -1.10915 13.21315 251 138.5)"/><ellipse cx="191" cy="142" fill="#8e6969" rx="15" ry="103"/><path fill="#523028" d="M166.4 28.9l11.4 4-4.2 12.2-11.4-4z"/><path fill="#61433a" d="M136.2 109.6l27.5-24.8 14 15.6-27.4 24.8z"/><path fill="#5c6158" d="M219.3 62.2l-5 26.7-21.7 31.5 17.5-60.9z"/><path fill="#82afb2" d="M107 76L91 23 36 54z"/><path fill="#564f59" d="M75.2 57.3l36.5-16.7 18.7-55.7-30.8 55.6z"/><path fill="#b3a7a5" d="M132 185l37-68 6 36z"/><path fill="#bec1be" d="M184 110l-18-34 22 3z"/><path fill="#4f4134" d="M80 53l19 94 4-56z"/><ellipse cx="121" cy="86" fill="#2469a8" rx="14" ry="11"/><path fill="#9a9893" d="M51 134.4l-13.3 7L9.1 87.7l13.2-7z"/><path fill="#1d293a" d="M108.6 122.7l21.1-10.6 15.5 9.3-5.4 16.5z"/><circle r="1" fill="#5f4b41" transform="matrix(-17.9014 14.91489 -2.93759 -3.5258 183 57.8)"/><path fill="#b5bcbe" d="M169 49l-34 5 11 22z"/><ellipse cx="180" cy="169" fill="#362a20" rx="6" ry="15"/><path fill="#68563b" d="M130.2 39l-19 25.2-1.6 12.9 38.9-30.3z"/><path fill="#145aa6" d="M227 100h29v8h-29z"/><path fill="#b1b9bd" d="M102.5 167.1l18-7.9 57.4 25.8-160.3-18.2z"/><path fill="#848884" d="M-16 126.5l35.4-6.1-34.6-33.1L3.2 44.8z"/><path fill="#eae8e3" d="M-16 124l11 34 53-34z"/><ellipse cx="204" cy="23" fill="#939086" rx="3" ry="91"/><path fill="#644438" d="M86.5 163h-7v-24h7z"/><path fill="#f8ead0" d="M87 129h7v13h-7z"/><circle cx="94" cy="45" r="11" fill="#2e60a7"/><circle r="1" fill="#cdd3df" transform="matrix(.68068 23.42261 -71.3634 2.07387 10.8 25.5)"/><path fill="#d2b498" d="M103 102h3v47h-3z"/><ellipse cx="142" cy="150" fill="#bebdb6" rx="4" ry="17"/><path fill="#d5edd8" d="M-15 72L6 62l25 10z"/><circle r="1" fill="#8fa0b1" transform="matrix(40.04821 11.34415 -3.0673 10.82849 94.5 0)"/><path fill="#5f3d2c" d="M148 150l12-27-9-16z"/><path fill="#73734c" d="M222 65h16v57h-16z"/><circle r="1" fill="#b5a7a8" transform="matrix(4.52199 -.1713 1.13664 30.00433 189.4 163.4)"/><path fill="#8b7568" d="M93 90l-52 48 41-77z"/><ellipse cx="19" cy="61" fill="#528c77" rx="57" ry="3"/><path fill="#eeecdf" d="M74 126h6v17h-6z"/><path fill="#7c5039" d="M66 136l-1 23 11-34z"/><path fill="#614237" d="M102.8 159.1l-3.1-22.4-5 28.6 18-1.5z"/><path fill="#dae2e5" d="M165 45l-4-28-12-1z"/><path fill="#d2cbb5" d="M69 74l-20-5 38-11z"/><path fill="#9bc3b8" d="M27 59.5l38.1-21.8 29.5-11.4-16.9 34.1z"/><path fill="#979c98" d="M8 86h66v8H8z"/><path fill="#384541" d="M213 8l1 5-9-1z"/><path fill="#256a86" d="M192 79h24v8h-24z"/><path fill="#c0cad4" d="M271 31.8L219.2-16 201 61.4l-14.2 8.2z"/><path fill="#d8ddd3" d="M224.6 82.6l-16 27.8-5.2-3 16-27.8z"/><path fill="#a26163" d="M172 155.9l13.7-3.7-32.4-43.6 56.2 13.9z"/><circle r="1" fill="#8b888d" transform="matrix(-7.87648 -3.08357 9.78393 -24.99145 79.5 108.4)"/><path fill="#d3dbde" d="M195.3 24.6L202 32l-19.3 17.4L176 42z"/><path fill="#f1efe6" d="M6 81l-15-1 29 44z"/><ellipse cx="199" cy="165" fill="#5c3c2b" rx="5" ry="10"/><path fill="#716b64" d="M123 0h5v41h-5z"/><path fill="#7493ba" d="M112.9 50.9l-20.6-2.7-7.8 12.7 19.8 20.5z"/><ellipse cx="23" cy="81" fill="#e9e9e1" rx="48" ry="4"/><path fill="#a67b6c" d="M117.8 104.3l43.3-12.4 1 3.8-43.2 12.4z"/><path fill="#5f4032" d="M123.6 126.7l-7 40.3-.3-39.9-7.4 2.5z"/><path fill="#c6ced2" d="M126 88.1l-6.7 1.6-1.4-5.8 6.8-1.6z"/><path fill="#bfb4a7" d="M204.3 94.8l10.9 48.4-16.7-58.3-11.2 27.5z"/><path fill="#645c3d" d="M138.2 55.7l2.4 21.1-25.8-12.1-22.4 22.4z"/><path fill="#a19f9f" d="M49 146.7l4.6 32.6-42.6 6-4.6-32.6z"/><path fill="#9cd6cc" d="M43 55L2 47l25 13z"/><path fill="#b9c5b4" d="M189.8 57.2l8.8 1.9-2.4 11.7-8.8-1.9z"/><path fill="#e4e6e5" d="M268.7 155.3l-71.5-15.1 17.6 4-1.5-8.6z"/><path fill="#c1cbd5" d="M131-16l57 39-60 14z"/><path fill="#504441" d="M152 107l26-18-6 26z"/><path fill="#939794" d="M19.6 104.9L4.3 82.5l22.9 45.1 40.8-23z"/><ellipse cx="60" cy="169" fill="#fff9ed" rx="12" ry="3"/><path fill="#4e545e" d="M37 95h23v10H37z"/><path fill="#99a1a3" d="M170 144l-9-36-8 44z"/><circle r="1" fill="#6b7a4b" transform="matrix(.09381 2.44202 -11.57771 .44477 32.7 49.6)"/><ellipse cx="109" cy="141" fill="#653a25" rx="3" ry="13"/><path fill="#705a53" d="M167.9 72.3l-19.6 2 6.5 92.8-8.9-15.2z"/><path fill="#5e5a45" d="M8.2 73l97.7 7v1L8 74z"/><circle r="1" fill="#beb1a7" transform="matrix(15.02734 10.69043 -1.36796 1.92292 127.5 47.4)"/><path fill="#3a3942" d="M120.1 100l-6.6-16.2 21.4 20.6 4.7-15.5z"/><path fill="#885338" d="M38 139l-3-4 16-4z"/><circle r="1" fill="#698980" transform="rotate(-69.6 53.6 16.5) scale(5.20671 24.98307)"/><path fill="#282930" d="M98.4 74.3L93 75l-10.3 2.9L98 92.4z"/><path fill="#535651" d="M190 99.6l9.1-40 3 .8-9.2 40z"/><ellipse cx="176" cy="81" fill="#c0b9b4" rx="13" ry="8"/><ellipse cx="244" cy="86" fill="#817f4c" rx="23" ry="15"/><ellipse cx="13" cy="143" fill="#e7e8e7" rx="38" ry="5"/><path fill="#4a4c4b" d="M106.4 97.4l3.5-26.7-25.5 56.6 14.8-.1z"/><path fill="#50583d" d="M223 79l-1-18 16 9z"/><path fill="#7c5038" d="M100 134l-20 1 26-10z"/></g></g></svg>