<svg xmlns="http://www.w3.org/2000/svg" viewBox="0 0 1800 1200"><defs/><filter id="a"><feGaussianBlur stdDeviation="12"/></filter><rect width="100%" height="100%" fill="#355968"/><g filter="url(#a)"><g fill-opacity=".5" transform="translate(3.5 3.5) scale(7.03125)"><circle r="1" fill="#e2e9ff" transform="matrix(250.43465 .8887 -.23184 65.33156 134.8 55.8)"/><ellipse cx="141" cy="139" fill="#6a8180" rx="211" ry="31"/><ellipse cx="98" cy="28" fill="#88a4e3" rx="255" ry="77"/><circle r="1" fill="#614209" transform="matrix(.55161 -12.59021 47.35123 2.0746 155.3 118)"/><circle r="1" fill="#cacfdb" transform="matrix(-65.82941 -16.8615 5.56115 -21.71143 218.8 98.4)"/><circle r="1" fill="#c2c7d2" transform="matrix(90.86834 -.08839 .01512 15.53997 36.8 102)"/><ellipse cx="50" cy="122" fill="#715223" rx="109" ry="7"/><path fill="#5e81c2" d="M89.3 27.1L-14 64.8-37.3.8 66-36.7z"/><circle r="1" fill="#387493" transform="matrix(.35266 -20.20384 175.91998 3.0707 131 152.1)"/><circle r="1" fill="#f0f2f1" transform="rotate(-107.5 84.1 -22.1) scale(6.8467 16.99231)"/><path fill="#f8f8f2" d="M160.3 77.6l50.9-9.3-12.3 15.6-40-2.3z"/><circle r="1" fill="#d9dddf" transform="rotate(-169.2 60.5 39.5) scale(20.91864 5.11517)"/><ellipse cx="96" cy="129" fill="#dbbaab" rx="28" ry="2"/><ellipse cx="202" cy="124" fill="#58452a" rx="44" ry="5"/><circle cx="255" cy="47" r="54" fill="#7f97c6"/><path fill="#658395" d="M168 128h50v27h-50z"/><circle r="1" fill="#7e9acc" transform="rotate(35.7 -3 155.5) scale(32.13073 77.67247)"/><path fill="#6a674d" d="M179.6 108.2l-27-6.1-96.7 20.2 98.6 10z"/><path fill="#201e12" d="M8 125h59v4H8z"/><path fill="#bdc2d2" d="M207 116l56 9-14-18z"/><circle r="1" fill="#326572" transform="matrix(-2.5289 14.48995 -118.91699 -20.75434 74.1 169)"/><path fill="#b9c0cd" d="M94 116H-15l71-23z"/><path fill="ivory" d="M181 93h20v7h-20z"/><path fill="#93a8c3" d="M161 102l57-23-116 13z"/><path fill="#827841" d="M40.2 113.2l-49.8 3.6 35.9 15L42.7 118z"/><ellipse cx="23" cy="130" fill="#ffd6bb" rx="26" ry="1"/><ellipse cx="201" cy="72" fill="#dce3e9" rx="20" ry="4"/><path fill="#e1e5ec" d="M141.1 55.2l1.5 3.2-24.3-17.2 14.3-1.4z"/><path fill="#726b4d" d="M220 119l-29-6-5 17z"/><path fill="#90a7c9" d="M261.3 90.1L192 75.9l4.4 17.6 36.7 9.1z"/><path fill="#fdfbf2" d="M121 83l-11 8-13-4z"/><path fill="#c1cce2" d="M47.4 56.7L31.2 46l19.3.2 4.6 3.7z"/><ellipse cx="160" cy="25" fill="#829bcd" rx="34" ry="29"/><circle r="1" fill="#7d98c8" transform="matrix(25.89415 15.86823 -11.01285 17.97103 28.5 69.2)"/><circle r="1" fill="#4f7994" transform="rotate(-95.9 163.5 -22.6) scale(5.43863 126.46467)"/><circle cx="138" cy="114" r="3" fill="#d9d3d9"/><ellipse cx="167" cy="126" fill="#403933" rx="80" ry="2"/><path fill="#b1bed5" d="M24 94h13v23H24z"/><path fill="#4b4c2b" d="M189.3 126.7l-1.1-13.1-46.5-1.8 16.6 6.3z"/><path fill="#e9eceb" d="M162 75h27v10h-27z"/><path fill="#565256" d="M156 117l-54-5 20 17z"/><path fill="#afbcc8" d="M98 99h101v5H98z"/><path fill="#828544" d="M129.2 112.4l57.3-1-28.2-9.1-26.4 1.8z"/><path fill="#bbb7be" d="M160.4 122.7l.1 1-10.9 1.6-.1-1z"/><path fill="#8ca5cc" d="M45 66h53v31H45z"/><path fill="#b2aab3" d="M91 125v3l-18 1v-3z"/><circle r="1" fill="#6b8bc3" transform="matrix(-31.47988 63.6947 -19.72924 -9.7508 14.3 18.1)"/><path fill="#9d978f" d="M101 122h29v2h-29z"/><path fill="#bc9483" d="M136 129h76v1h-76z"/><path fill="#b49982" d="M0 129h70v2H0z"/><path fill="#a9b6cc" d="M195 103l76-7-49 25z"/><ellipse cx="128" cy="53" fill="#fbfbf6" rx="10" ry="3"/><circle cx="38" cy="115" r="3" fill="#53562b"/><ellipse cx="238" cy="155" fill="#426982" rx="32" ry="25"/><path fill="#69624f" d="M186 118h29v13h-29z"/><path fill="#7c98ca" d="M127 48L59-16l13 77z"/><ellipse cx="177" cy="104" fill="#f6f3eb" rx="5" ry="3"/><path fill="#4d7a8c" d="M93 131h90v24H93z"/><path fill="#6b6c4b" d="M82.3 127.7l-16.1-14.5L48 126.1l52.5-13z"/><path fill="#bfc7d4" d="M70.6 101.3l-18.9 17.5-9.9-13.2-42.3-20z"/><path fill="#88a2cb" d="M158 71l-30-48 61 54z"/><path fill="#6f642b" d="M0 118h72v7H0z"/><ellipse cx="226" cy="35" fill="#839bc9" rx="50" ry="38"/><path fill="#b3bfd2" d="M116 105l-41 12-17-14z"/><ellipse cx="152" cy="93" fill="#94a9c7" rx="28" ry="11"/><path fill="#7f7845" d="M124.8 106.6l1 3.9-40.6 10.9-1-3.9z"/><path fill="#a2b1ca" d="M7.7 81.1l1.2 37.8-24.9-12.5 9.7-43.9z"/><ellipse cx="12" cy="151" fill="#356678" rx="27" ry="20"/><path fill="#a1abc2" d="M243.5 105.2L271 97l-18.5 56.3 18.5 8.4z"/><path fill="#48493a" d="M71.7 114.8l-12.2 4.4 19.5 4.3-27.1 8.5z"/><path fill="#2c3334" d="M178.3 120.9l20.3.4-11.4 5.6-16.2-6.5z"/><ellipse cx="7" cy="126" fill="#3c3828" rx="64" ry="3"/><path fill="#8ea2be" d="M31.4 107.5L-16 86.9l42.4 10.9 22.5 22.3z"/><path fill="#d4d9e4" d="M207 97h19v4h-19z"/><ellipse cx="222" cy="126" fill="#49443e" rx="28" ry="3"/><path fill="#47453f" d="M111 118h42v5h-42z"/><circle r="1" fill="#94a8ca" transform="matrix(-28.66194 1.2514 -.61021 -13.97618 232.9 85.7)"/><path fill="#89898b" d="M188.8 121.8l-3.6-.6 16.9-10.5-2.5 9.4z"/><circle cx="192" cy="95" r="6" fill="#e4e7e8"/><path fill="#bec1db" d="M257.2 127.6l-8.7-2.3.3-1 8.7 2.4z"/><path fill="#bcc9df" d="M27.5 48.6l39.3 5.6 1.4-1.3-30.8-6.1z"/><ellipse cx="97" cy="126" fill="#473e33" rx="9" ry="3"/><ellipse cx="27" cy="63" fill="#809aca" rx="42" ry="13"/><path fill="#e4e7e9" d="M100 86h20v6h-20z"/><path fill="#ad9279" d="M182 128h27v2h-27z"/><ellipse cx="57" cy="131" fill="#3b3236" rx="21" ry="1"/><path fill="#46778b" d="M118 169.6l-2.1-28.1-32.3-13.2-27.1 13.4z"/><path fill="#e9eded" d="M213 73l-5 5-19-8z"/><path fill="#97a8bd" d="M138.1 100.1L120 94.6l-78.2 27.2 78.8-21.3z"/><path fill="#8ea5c6" d="M168.7 98.6l24.7 10.3-23-21-76-10.5z"/><ellipse cx="242" cy="130" fill="#7e92b0" rx="22" ry="1"/><path fill="#b4a49e" d="M71.5 129.4l-.9-3.9 3.9-.9.9 3.9z"/><path fill="#a5b1c0" d="M38.4 110l4.4 2-4.5-14L22 122.1z"/><path fill="#b6aeaa" d="M104 121h5v3h-5z"/><path fill="#5f5f43" d="M55.9 123.5l-1-.1 1.2-9 1 .2z"/><ellipse cx="122" cy="55" fill="#dee4ea" rx="11" ry="3"/><path fill="#bac1cb" d="M143 100l-20-1-1 8z"/><path fill="#849fca" d="M79 61h41v24H79z"/><path fill="#b1bbc9" d="M205 111h51v7h-51z"/><path fill="#3e677f" d="M232 133h23v37h-23z"/></g></g></svg>