<svg xmlns="http://www.w3.org/2000/svg" viewBox="0 0 1800 1200"><defs/><filter id="a"><feGaussianBlur stdDeviation="12"/></filter><rect width="100%" height="100%" fill="#353b4d"/><g filter="url(#a)"><g fill-opacity=".5" transform="translate(3.5 3.5) scale(7.03125)"><circle r="1" fill="#c2c8bc" transform="matrix(-254.19444 -12.76485 4.1958 -83.55368 159.6 27.3)"/><path fill="#eee5cb" d="M313.3 49.8L76.2 29.1l2.5-29L315.8 21z"/><circle r="1" fill="#364c6a" transform="rotate(33 -30.5 55.6) scale(92.49446 24.78871)"/><circle r="1" fill="#44505a" transform="matrix(-80.99666 17.08258 -5.33806 -25.3103 240 65)"/><path fill="#f9bf63" d="M207 99h49v15h-49z"/><circle r="1" fill="#9aa6a8" transform="matrix(23.55272 2.6457 -1.30769 11.6414 13.7 93.6)"/><path fill="#ddd3ba" d="M189 52l63-28-101-13z"/><ellipse cx="55" cy="131" fill="#263031" rx="185" ry="29"/><path fill="#455972" d="M127.1 24.9l36.5 8.3-64.8 50.3 13.1-45.3z"/><ellipse cx="200" fill="#434f57" rx="46" ry="14"/><ellipse cx="99" cy="13" fill="#c1c0bc" rx="26" ry="29"/><circle r="1" fill="#2f3c4e" transform="matrix(-1.23128 12.29098 -31.69245 -3.17488 16.6 30.3)"/><path fill="#cfc5ab" d="M255 23.5l-69.5 36.3L251.8.2 271-15.3z"/><path fill="#160d09" d="M182 108h23v6h-23z"/><ellipse cx="55" cy="80" fill="#71808f" rx="39" ry="21"/><ellipse cx="243" cy="63" fill="#4b5660" rx="14" ry="32"/><path fill="#636f79" d="M205.5 101.6l-70.8-17.7 11.8-47.5 70.8 17.7z"/><path fill="#000100" d="M214 161h42v6h-42z"/><path fill="#c1c0b5" d="M134-16l27 29-87 33z"/><path fill="#b9996b" d="M160 101h78v8h-78z"/><ellipse cx="178" cy="149" fill="#3f4649" rx="91" ry="17"/><ellipse cx="33" cy="74" fill="#4e5f75" rx="82" ry="5"/><path fill="#99998d" d="M213 6.1l-24.1-.6 12.8 14.8 31.1-4.7z"/><ellipse cx="35" cy="89" fill="#838c92" rx="115" ry="11"/><path fill="#ffefcb" d="M130.7 64.6l-2.8-4 7.4-5.2 2.8 4z"/><ellipse cx="93" cy="4" fill="#a1a6a8" rx="38" ry="10"/><circle r="1" fill="#657384" transform="matrix(12.08678 -9.98905 37.82964 45.77398 61.2 30)"/><circle r="1" fill="#202832" transform="matrix(9.58186 30.09167 -52.83215 16.82294 0 140.6)"/><circle r="1" fill="#787264" transform="matrix(-65.3394 1.62792 -.1649 -6.61883 213.3 93.1)"/><path fill="#1b2424" d="M72 162h69v8H72z"/><circle r="1" fill="#485768" transform="matrix(-34.81316 -13.29525 1.8145 -4.75121 147.1 55)"/><path fill="#c4bfb1" d="M157 25l51 27-8-47z"/><path fill="#3b4b5e" d="M159-5l16.2-11.8L191 5l-16.2 11.8z"/><path fill="#2f3536" d="M184 113h72v24h-72z"/><path fill="#b3a18a" d="M120 103h43v4h-43z"/><circle r="1" fill="#cfc5ab" transform="matrix(-17.3973 -6.1949 4.2497 -11.93455 249.8 21.8)"/><path fill="#778089" d="M-16 98l48-17-4 25z"/><path fill="#4c5b6f" d="M34.9 61L6.5 57.3l51.7-25.8L20.3.1z"/><path fill="#c7c3b5" d="M87.3 14.7l17 34.8 17-37.2 126.5 35.1z"/><circle r="1" fill="#77848d" transform="matrix(-4.41567 -12.59946 15.1309 -5.30286 158.2 45.3)"/><path fill="#808686" d="M221.3 38.5l-38.7 23 84.3-24.1-42.4 3.6z"/><path fill="#c1a472" d="M216 98h40v15h-40z"/><circle r="1" fill="#637181" transform="matrix(-6.1142 -6.09289 17.66037 -17.72212 117 42.3)"/><path fill="#1c2630" d="M41 105h84v5H41z"/><path fill="#75818b" d="M65 102l-1-46 29 47z"/><path fill="#6c6b62" d="M223 154h33v5h-33z"/><ellipse cx="187" cy="63" fill="#485666" rx="37" ry="5"/><circle r="1" fill="#2f3c4c" transform="matrix(33.55583 7.17272 -1.06523 4.9834 8.6 30.9)"/><circle r="1" fill="#242c30" transform="rotate(101.6 28.3 156.3) scale(3.38252 50.16577)"/><path fill="#797c74" d="M258.4 2.6l-42.1 7.5-29.2-6.7L219 18.3z"/><circle r="1" fill="#b4b3aa" transform="matrix(-2.65469 7.70978 -24.29843 -8.36662 158 13.4)"/><path fill="#959a9c" d="M81.9 18.9l-9.6 25.5 16.2 1.2L86 18z"/><path fill="#2a313a" d="M216 163l-48-51 32-6z"/><path fill="#8f969d" d="M19.6 46L-16 82.8V61.3l30-19.4z"/><circle r="1" fill="#595e62" transform="rotate(-165.1 126.3 27.4) scale(47.28119 9.2133)"/><path fill="#475464" d="M146.8 44.2l-22.7-7.3-15.2 16.3 19.4 2.7z"/><path fill="#657783" d="M172 166.4l55.8 18.6H103.1z"/><path fill="#616157" d="M271 125.3l-15.9 21-16.4-3.7 11.2-8.4z"/><path fill="#252c32" d="M54.5 114.5l-26.2-7.8 4.3-7.8 24.5 2.7z"/><path fill="#727e89" d="M56.4 54.6l33.1-11.9 34 30.7 11.4-19z"/><path fill="#cdc9bb" d="M191.4 16.8L79.3 30l9.1 10.2 42.8-24.6z"/><path fill="#3c4553" d="M95 138h50v25H95z"/><path fill="#cec6b2" d="M237.1 33.3l-45.2 14.2-13.6-5.2 24.1-29.9z"/><path fill="#818788" d="M148 88h46v8h-46z"/><path fill="#586069" d="M171 152l26-1 3-8z"/><ellipse cx="51" cy="165" fill="#434e59" rx="51" ry="2"/><ellipse cx="140" cy="114" fill="#2f3540" rx="34" ry="8"/><path fill="#151c25" d="M90 145l13 10-43-4z"/><circle cx="96" cy="42" r="5" fill="#5e6f82"/><path fill="#3b444e" d="M173.2 147.7l-11.7-15.2 80.4-6.3-118.5-.1z"/><path fill="#a99576" d="M174 100h61v7h-61z"/><ellipse cx="63" cy="77" fill="#516175" rx="43" ry="3"/><path fill="#3b4a5b" d="M215 47l38 6-28 3z"/><path fill="#fff0cb" d="M133 57l3 3-2 5z"/><path fill="#515d63" d="M214.8-16L138.5.1l107.9 9.8.5-25.9z"/><ellipse cx="30" cy="81" fill="#a09d94" rx="24" ry="3"/><circle r="1" fill="#070e0c" transform="matrix(1.1104 4.73422 -8.85728 2.07746 253.4 163.3)"/><path fill="#9ba1a3" d="M97.8 23.8L47.6.7 93.7-6 79.2 30.4z"/><path fill="#232a2e" d="M262.9 148.7l-23.8-1.1-74.4-14.9 65.5 8.7z"/><path fill="#566678" d="M95.6 80.3l31.1-11.5-14.4-4.9-57.5-21.4z"/><path fill="#ccc8b8" d="M160 14h-19l4 20z"/><path fill="#dcd1b5" d="M271 4.8l-21.9 32.7L271 21.9l-32.2-7.4z"/><path fill="#d0c6b1" d="M241 21l-20-4 4 28z"/><path fill="#54657a" d="M6 64l-22 13 62-1z"/><path fill="#767e82" d="M184 75l24-9-42 2z"/><path fill="#727c82" d="M191.2 55.2l56.4 1.5-17.1 11.6-16.1-19.6z"/><path fill="#79848c" d="M198 59.9L175.7 37l-18.6-4.9-27.1 2.4z"/><path fill="#a7a9a4" d="M172.3 7.8L55.6-16l61.2 31.3 24.8-2z"/><path fill="#747e86" d="M-16 83l67.4 1.7-29.9 22-4.8-2.2z"/><path fill="#4e5b6d" d="M40 41L-6 4l70 30z"/><path fill="#20272e" d="M113.6 176.2l-68.3-19.6 53 7.1-7.1 14.8z"/><path fill="#788593" d="M15 61h35v12H15z"/><path fill="#48515a" d="M149 167l31-13-47 4z"/><path fill="#58677b" d="M8 50h59v11H8z"/><path fill="#525e6d" d="M224 80.7l-73.7-6.9 9.1-18.8 12.1 28.9z"/><path fill="#7d8891" d="M78.9 74.7l8.2-4.7-21.3-8.7-6.7 1.6z"/><ellipse cx="179" cy="164" fill="#0c1418" rx="9" ry="2"/><path fill="#c9c5b8" d="M105 40l23-21L84 7z"/><ellipse cx="92" cy="97" fill="#7c848b" rx="42" ry="6"/><path fill="#3e4756" d="M5 144h15v6H5z"/></g></g></svg>