<svg xmlns="http://www.w3.org/2000/svg" viewBox="0 0 1200 1800"><defs/><filter id="a"><feGaussianBlur stdDeviation="12"/></filter><rect width="100%" height="100%" fill="#58493e"/><g filter="url(#a)"><g fill-opacity=".5" transform="translate(3.5 3.5) scale(7.03125)"><circle r="1" fill="#fffff4" transform="rotate(77.1 -65.7 168.7) scale(76.78358 133.89086)"/><circle r="1" fill="#fbfce6" transform="matrix(-101.6241 -3.05007 1.45761 -48.56563 82 26)"/><circle r="1" transform="matrix(-2.52261 22.43502 -65.2073 -7.33197 15.6 90.5)"/><circle r="1" fill="#e9eadb" transform="rotate(-141 92.2 85) scale(93.71636 20.61227)"/><circle r="1" fill="#625c43" transform="matrix(34.32371 24.1231 -16.66556 23.71269 5.2 181.3)"/><circle r="1" fill="#858476" transform="rotate(-14.6 534.7 -378.1) scale(93.65827 18.14027)"/><circle r="1" fill="#2e2f23" transform="rotate(-11.1 488.5 -552.2) scale(50.93089 16.72724)"/><path fill="#978c77" d="M40 57h96v22H40z"/><path fill="#cbc3b2" d="M172 251l-2-110-96 128z"/><path fill="#786951" d="M49 21h98v8H49z"/><circle r="1" fill="#a59f74" transform="matrix(.98886 13.6434 -35.06329 2.54135 92.5 225.9)"/><circle r="1" fill="#e9e2d1" transform="matrix(-9.67795 .84736 -2.82005 -32.20852 5.7 3.3)"/><circle r="1" fill="#7c7a70" transform="matrix(13.35115 -16.09156 18.11823 15.03267 90.5 142.1)"/><circle r="1" fill="#6b5f4e" transform="matrix(3.70134 9.14901 -19.82072 8.0187 0 235.6)"/><ellipse cx="41" cy="37" fill="#cac5b9" rx="35" ry="13"/><ellipse cx="157" cy="70" fill="#000302" rx="22" ry="7"/><path fill="#070804" d="M0 81h124v10H0z"/><path fill="#bcbeb7" d="M34.7 183.5l-7.4 18.6 51.1-45.6L27 130.6z"/><path fill="#bab7ad" d="M168-16l17 46L15 5z"/><circle r="1" fill="#e6eae4" transform="matrix(-6.33152 16.58062 -18.37755 -7.0177 100.4 198)"/><path fill="#9e9968" d="M69.7 188.5l51.1 6-99-19.4 17.8 46.1z"/><path fill="#9e9c8d" d="M106.9 183.7l8.2-82.7 25.9 17.5 44 8.4z"/><path fill="#2f312b" d="M3.3 154.8l21.4-10L36.2 96-16 117.8z"/><path fill="#56544b" d="M42 100l-43 39 119-32z"/><path fill="#887c64" d="M47 55l-8 17-55-22z"/><path fill="#b6ac97" d="M103 80l32-4-5-12z"/><path fill="#b7af9e" d="M183 34l-18 31-73-28z"/><circle r="1" fill="#c5b8a4" transform="rotate(82.5 -125.2 150.4) scale(25.73032 46.41031)"/><circle r="1" fill="#060400" transform="matrix(36.48684 6.63061 -1.55058 8.5325 13.6 76)"/><path fill="#7f7665" d="M53.5-2.4l-47.6 27L31.8 19h12.8z"/><ellipse cx="169" cy="106" fill="#72634d" rx="39" ry="16"/><path fill="#4b4332" d="M103.3 72.4l2.3-12.3 9.9 5 25-.5z"/><path fill="#796c54" d="M120.2 6.4L96.8-16l65.6 18.3-44.3.8z"/><path fill="#60544c" d="M23 199h40v5H23z"/><path fill="#4e4d49" d="M40.3 137l14.5-15.8 2.9 17-16.1 5z"/><path fill="#5d5956" d="M-7.9 169.2L17.8 152l10 14.9L2.3 184z"/><ellipse cx="169" cy="244" fill="#dbd3c7" rx="37" ry="30"/><ellipse cx="15" cy="188" fill="#dcdd7e" rx="58" ry="2"/><path fill="#5a4d39" d="M55.6 77.3l19.3-12 6.5 47.4 37.1-7.1z"/><path fill="#24231e" d="M181.4 55.4L110.6 87l50.4-.7 9.3-5.5z"/><ellipse cx="134" cy="28" fill="#655439" rx="23" ry="2"/><path fill="#544326" d="M9 190h18v9H9z"/><path fill="#c0ab87" d="M127 109.6l-12.6 56.3-4.6-7.2 9.1-59.6z"/><path fill="#8b8678" d="M158.6 155.4l-18.6-20-32.6 40.9-9.7-9.5z"/><path fill="#858f47" d="M76.7 222.7l-.7 12.6-18.9-5.8 13.8-13.1z"/><path fill="#cdcbbf" d="M0 0h39v10H0z"/><path fill="#b5b1a4" d="M86.2 56.8l35.7-4.3L84.8 76l-8.2 7.8z"/><path fill="#c7c7c2" d="M57 126h5v50h-5z"/><path fill="#908672" d="M130 45h40v8h-40z"/><path fill="#b5aaa0" d="M116.8 243.3l-35.2-19.4 60.7-25.2 6 9.5z"/><ellipse cx="117" cy="200" fill="#f5f7f5" rx="11" ry="7"/><path fill="#5f4c31" d="M99 79l-22-3 39-10z"/><path fill="#1b150a" d="M75.5 26.3l.5-1 12.5 6.4-.5 1z"/><path fill="#7c6e58" d="M-16 41l29.4 7-27.1 24L2.1 37.2z"/><circle r="1" fill="#9b967a" transform="matrix(-20.74764 5.33481 -.50348 -1.9581 123.3 190)"/><circle r="1" fill="#d6d9d7" transform="matrix(-4.04551 8.19777 -29.5682 -14.59158 78.3 173.5)"/><circle r="1" fill="#b2b5b3" transform="matrix(20.38937 -1.32164 .85692 13.21998 40.5 154.2)"/><ellipse cx="145" cy="131" fill="#aaada9" rx="19" ry="13"/><path fill="#4f4a3e" d="M13 35h15v3H13z"/><circle r="1" fill="#978e80" transform="rotate(-97.4 95 108.1) scale(7.56161 79.97316)"/><path fill="#c7c0a9" d="M38 72h21v2H38z"/><path fill="#14140f" d="M-10.1 129.6l9.7-38.8L14 94.4l-9.7 38.8z"/><circle r="1" fill="#a79678" transform="matrix(-.33781 -1.7117 9.00708 -1.77759 105.9 79.4)"/><path fill="#807b72" d="M78.6 150.2L59 146.4l4.4-22.6 19.6 3.8z"/><path fill="#8b7e69" d="M40 20h93v8H40z"/><path fill="#c6c3b5" d="M62.8 48.9l18.4-5.5-9.7-8.9L54.8 8.8z"/><path fill="#ccc2b1" d="M42 216l17 18-42-9z"/><path fill="#baa06b" d="M29 141l11-8-8-5z"/><path fill="#696053" d="M164.1 117.1l-34.6-.7-10.2-29.3 15.1 1.2z"/><path fill="#c2beb1" d="M138.4 45.7l-37.7-1.2 53-11.3 31.3 3.7z"/><path fill="#9da46b" d="M163 194l-23-18-18 5z"/><path fill="#cac7ba" d="M162 24L110 8l23 16z"/><path fill="#bfc875" d="M70.1 210.9l8.6-7.9 7.2 11.7-4.2 23.5z"/><ellipse cx="105" fill="#7d7867" rx="3" ry="27"/><path fill="#1f1c16" d="M115.8 79.9L-16 91.4l124.7 1.2 8.3 17.1z"/><circle r="1" fill="#bfbdaf" transform="matrix(-2.20983 -12.0044 18.66027 -3.43507 87 7)"/><path fill="#bdbcb2" d="M115 69l8 5 11-6z"/><path fill="#29231a" d="M15.4 135.1l15-10.9-12.1 21.3 13.9-1.5z"/><path fill="#837c76" d="M47 183l-63 6 43-26z"/><ellipse cx="108" cy="41" fill="#cfcabb" rx="6" ry="9"/><path fill="#a5998a" d="M110 214l-42 26 39 5z"/><path fill="#81745a" d="M13.3 67l3.1-4.2L50.3 54 27.4 70.6z"/><path fill="#493b25" d="M130.9 65l5.1-3.1 3.1 5.1-5.1 3.1z"/><path fill="#c7c376" d="M52.1 198l20.7-16-42.4 17.3 4.4-14.4z"/><circle r="1" fill="#b4b2a7" transform="matrix(22.28717 15.72187 -1.2795 1.81382 63.8 59.4)"/><path fill="#6a5231" d="M130 22v9l-9-1z"/><path fill="#c3c5ba" d="M158 148h12v62h-12z"/><ellipse cx="44" cy="32" fill="#cac5b6" rx="38" ry="4"/><path fill="#908775" d="M72 3l23 18-9-13z"/><path fill="#6b645a" d="M.3 244.4L-16 249l38.3-22.6-16.9 17.7z"/><path fill="#836544" d="M78 98l14.3-7.2 3.6 7.1-14.2 7.3z"/><circle cx="92" cy="75" r="5" fill="#493c28"/><circle cx="107" cy="158" r="19" fill="#9b9788"/><path fill="#766e5e" d="M24 11l19-1v12z"/><path fill="#6e6e64" d="M61.1 5.4l17 16.5-16.6-12-1.9-15z"/><path fill="#bfaf96" d="M129 38l-7-11-33 1z"/><path fill="#796e5c" d="M84.2 53.3l-19.8 30-4.1-4.8 14.3-18.8z"/><path fill="#645f56" d="M37 122h21v18H37z"/><path fill="#776c55" d="M127.5-10.3l10.9 25.8-1.9.8-10.9-25.8z"/><path fill="#e1d7c2" d="M2 1l12 46-22-33z"/></g></g></svg>