<svg xmlns="http://www.w3.org/2000/svg" viewBox="0 0 3168 3168"><defs/><filter id="a"><feGaussianBlur stdDeviation="12"/></filter><rect width="100%" height="100%" fill="#2f5250"/><g filter="url(#a)"><g fill-opacity=".5" transform="translate(6.2 6.2) scale(12.375)"><circle r="1" fill="#9bb4c5" transform="matrix(249.97465 -50.37535 23.6767 117.48951 118.2 86.1)"/><circle r="1" fill="#ffc29a" transform="rotate(-12.1 919.6 -623) scale(173.45762 15.38072)"/><path fill="#0d5768" d="M0 54h88v136H0z"/><path fill="#d95f31" d="M164.3 177.8L104 211.3l-38.3-69.1 60.3-33.5z"/><path fill="#ffebe6" d="M247 153.8l3.7 20.7-77.8 13.7-3.6-20.7z"/><path fill="#ffc28f" d="M209 65l-76 33 11 20z"/><path fill="#3b0000" d="M97 190l-58-3 38-25z"/><path fill="#4588a4" d="M0 0h163v97H0z"/><path fill="#287b85" d="M154 243l117 12V149z"/><path fill="#120e14" d="M147 121l-14 28-14-58z"/><ellipse cx="237" cy="122" fill="#287688" rx="86" ry="32"/><path fill="#ffa580" d="M158 193.2l39.1-29-21.9-17.6-96 60.9z"/><ellipse cx="24" cy="236" fill="#004847" rx="109" ry="21"/><path fill="#edeff1" d="M109.8 205.6l-130.3 13.7-1.3-13 130.3-13.6z"/><path fill="#ffcfa7" d="M103 117l29 8-33 33z"/><path fill="#2e4f58" d="M32.1 161.7l65.5-37.2-5.9 55 46.7-20.2z"/><path fill="#236776" d="M110 117L56 78l119 2z"/><path fill="#688582" d="M-4.2 237.8l111.1-12.4-15.2-8.3-32.5 2.9z"/><path fill="#f55d28" d="M79.9 197.3l21-25.1 88.4-7.4-18.9 14.7z"/><circle r="1" fill="#6092ac" transform="matrix(180.57491 70.88131 -14.44392 36.79686 183.2 21.2)"/><circle r="1" fill="#e5f6f7" transform="matrix(.5195 2.9985 -93.54026 16.20631 139.5 190)"/><path fill="#0b4c48" d="M123 198h85v20h-85z"/><path fill="#fdb794" d="M175.7 91.6l38.9-22.5-13.4-4.3-69.9 50.4z"/><path fill="#f3aa86" d="M147.7 178.6l-10.1-81.9 13.3 43.9-18.6 22.2z"/><path fill="#7e979c" d="M247 190l-39 26 63-12z"/><circle r="1" fill="#5a3e36" transform="matrix(3.77184 .3426 -5.18442 57.07877 129 165.4)"/><ellipse cx="4" cy="176" fill="#003d3c" rx="31" ry="8"/><path fill="#2d727d" d="M154.1 138.6l52.9 23-5.6-29.3-61.9 37.8z"/><ellipse cx="122" cy="112" rx="9" ry="5"/><path fill="#100b08" d="M83.1 156.7l-15.1 12 1.7 27.7 14.3-8.8z"/><path fill="#ff5a0e" d="M245 151l-3 8-17-7z"/><path fill="#00494c" d="M187 186l-41 34 107-27z"/><path fill="#79301c" d="M132 157.3l-55.4 6.2 16.1-33 4.8 23.6z"/><path fill="#004542" d="M132 248h93v8h-93z"/><ellipse cx="255" cy="223" fill="#004244" rx="56" ry="8"/><circle r="1" fill="#00322e" transform="matrix(.55587 5.68305 -70.50612 6.89632 79.9 235.9)"/><ellipse cx="38" cy="115" fill="#468798" rx="72" ry="13"/><ellipse cy="95" fill="#1e6470" rx="135" ry="10"/><path fill="#f1996e" d="M142.5 151.2L90 145.8l38.1 10.6 35.9 27.4z"/><path fill="#757c72" d="M188.5 229.9l-40.4 3.7-10.7 13 25.3 1.5z"/><path fill="#535a4b" d="M152 212l-67-1 94-24z"/><ellipse cx="93" cy="184" fill="#ff6821" rx="7" ry="10"/><circle r="1" fill="#ffbc98" transform="matrix(11.62167 -9.14561 4.94104 6.27877 154 104.3)"/><path fill="#2388a4" d="M92 161h34v9H92z"/><ellipse cy="197" fill="#b4aaaa" rx="65" ry="6"/><path fill="#e1ccc6" d="M243 184l-15-32-43 7z"/><path fill="#d98862" d="M123.5 195.7l-66.8 18.6 83.1-15.3-11.4-18.5z"/><circle r="1" fill="#0d586b" transform="rotate(176.8 125.1 88) scale(3.72277 23.46801)"/><circle r="1" fill="#508698" transform="matrix(-9.26904 -22.1733 87.09921 -36.40982 174.2 51.5)"/><circle r="1" fill="#689499" transform="matrix(92.23023 -11.30291 .20973 1.7114 251 250.5)"/><path fill="#597c86" d="M85.4 193.9L-16 150.4l89.7 22.2-40.2 16.9z"/><path fill="#ffcba9" d="M169 168l12-19-34 13z"/><path fill="#2d707e" d="M185.5 160l-4.4-22.6 27.4-5.4 4.4 22.6z"/><circle r="1" fill="#5d847e" transform="rotate(164.3 102.1 106.7) scale(28.59688 4.68182)"/><path fill="#7197a4" d="M152 129h78v10h-78z"/><path d="M141 139l-10-15-2 13z"/><circle r="1" fill="#004043" transform="matrix(-43.06962 -13.00349 6.0757 -20.12369 0 235.4)"/><path fill="#096b8c" d="M128 146l2-14-16 16z"/><path fill="#88392d" d="M185.2 165.8l-2.8-6.4-5.7 12.4 11.2-3.4z"/><path fill="#003b3a" d="M203 194.2L305 165l2 6.8L205 201z"/><ellipse cx="52" cy="156" fill="#005059" rx="25" ry="5"/><path fill="#d2aa8f" d="M93.1 130l12.8-18.5-.3 50.1 25.4-42.4z"/><path fill="#210b31" d="M125.5 177.8v3l-19-.6v-3z"/><path fill="#ebf1ee" d="M199.1 173.9l71.9-17.2-74 28.8-7.9-9.8z"/><path fill="#d34e25" d="M49 181h18v4H49z"/><path fill="#164c43" d="M63.5 214l73.8-13 1.2 7-73.8 13z"/><path fill="#3a7c8e" d="M75.7 122.4L15.6 156l47.1-3 35.4-37.9z"/><circle r="1" fill="#f85700" transform="matrix(-9.28007 -.53509 .359 -6.2263 143.5 178.7)"/><path fill="#809fa5" d="M199 240h30v4h-30z"/><ellipse cx="111" fill="#6e93aa" rx="162" ry="16"/><path fill="#ac5939" d="M178 77l-22 16 12-1z"/><circle r="1" fill="#3e8093" transform="matrix(44.614 -20.88116 3.36148 7.18203 204.2 90)"/><path fill="#f87642" d="M232 159l-2 8-9-10z"/><path fill="#679bb0" d="M97.8 109.2l26.7-13.6 3.7 7.2-26.7 13.6z"/><path fill="#6d8b89" d="M69.9 230.8L93 195.3l-14.3 23.6-59.5 14.4z"/><path fill="#003b37" d="M37.7 185.1l-.7-2.9 21.3-5.3.7 2.9z"/><circle r="1" fill="#aa9187" transform="rotate(-20.2 648.3 -323) scale(15.9475 1)"/><path fill="#1f6b7c" d="M149 140l23 10-27 12z"/><path fill="#004c50" d="M265 132l-33 6 17 4z"/><path fill="#0b626e" d="M65.9 129L-16 151.1l62.8 2.3-34.6-19.5z"/><path fill="#2c6e7e" d="M55.6 66.8L75.8 56 36.1 41.9l-25.4 2.4z"/><path fill="#ffd1b4" d="M144 131h4v25h-4z"/><path fill="#608c95" d="M197 211h37v6h-37z"/><path fill="#ffc19d" d="M91 179l-5-11 5-5z"/><path fill="#ffe2cd" d="M216 74.5l-17-6.2 1-2.8 17 6.2z"/><path fill="#004c4a" d="M228.2 250.5l-49-12-67 26.9 116.5-14.3z"/><path fill="#638c9c" d="M35 68h27v22H35z"/><ellipse cx="18" cy="204" fill="#e1e3e2" rx="55" ry="4"/><path fill="#00423d" d="M102 217l28 8 11-16z"/><path fill="#ff6f41" d="M89 174h22v18H89z"/><path fill="#925e4d" d="M78.2 153.9l33.3-24.9-23.1-1.8-12.6 9.3z"/><path fill="#004a52" d="M73.9 108.7L59.4 112l-18.9-.6 41.6-7.4z"/><path fill="#f08c70" d="M133 165h49v12h-49z"/><path fill="#00474c" d="M-5 119.5l30 1v4l-30-1z"/><path fill="#efdcc2" d="M132.2 187.4l-1-.1 4.6-36.7 1 .1z"/><path fill="#6a8fa2" d="M109.8 91.2l-36.4 6.5-1.2-7 36.4-6.4z"/><path fill="#426b79" d="M183.8 157.9l66-12.2 21.2 24.1-26.8-18.7z"/><circle cx="1" cy="180" r="13" fill="#005358"/><path fill="#342020" d="M129 119l6 30 9-17z"/><path fill="#4c8795" d="M65 158l-57 5 59 15z"/></g></g></svg>