<svg xmlns="http://www.w3.org/2000/svg" viewBox="0 0 1200 1800"><defs/><filter id="a"><feGaussianBlur stdDeviation="12"/></filter><rect width="100%" height="100%" fill="#3f3d3e"/><g filter="url(#a)"><g fill-opacity=".5" transform="translate(3.5 3.5) scale(7.03125)"><circle r="1" fill="#fff" transform="rotate(-118.8 67.7 45.3) scale(169)"/><circle r="1" fill="#392f29" transform="rotate(-66.3 151.6 5) scale(109.74459 30.09992)"/><path fill="#f4ffff" d="M-36.8 58L43.5-56.5 132.8 6 52.5 120.7z"/><circle r="1" fill="#f2f0f6" transform="matrix(33.8753 107.88057 -20.1754 6.33522 157.8 37.6)"/><circle r="1" fill="#f0f1e5" transform="matrix(-13.98635 -3.44233 16.86578 -68.52643 137 201)"/><path fill="#384654" d="M134 97.4l26.6 19.4-40.5 55.8-26.7-19.4z"/><path fill="#1b1e13" d="M27.9 239.6L21 215.8 16.8 78.1l7.4 30.5z"/><path fill="#694429" d="M114.3 71l42 1.9L127.2 28l-21.9 5.9z"/><circle r="1" fill="#b8b8a9" transform="matrix(26.05557 16.49066 -23.08185 36.46977 104.2 207)"/><circle r="1" fill="#593926" transform="matrix(-9.77643 -2.1853 12.0221 -53.78382 52.7 229.4)"/><path fill="#630713" d="M144.2 78l7.6-54.5 4 .5-7.6 54.5z"/><circle r="1" fill="#9aabba" transform="matrix(-15.59183 16.1093 -20.17171 -19.52374 49.6 117.2)"/><path fill="#d5dcdc" d="M155 23h15v138h-15z"/><ellipse cx="118" cy="3" fill="#d2dee9" rx="122" ry="27"/><circle r="1" fill="#e5e6d4" transform="matrix(-13.05149 8.27213 -14.21703 -22.43116 13.1 255)"/><path fill="#8e989f" d="M26 180h17v66H26z"/><path fill="#59493c" d="M46.7 141.1l41.4 33.8-3 25.8-44.6-9.1z"/><path fill="#cad5e2" d="M0 9h108v53H0z"/><path d="M16 107L9 94l1 19z"/><ellipse cx="91" cy="108" fill="#45525e" rx="17" ry="41"/><ellipse cx="169" cy="231" fill="#78736b" rx="23" ry="27"/><path fill="#eae5df" d="M-5 43l3 49 82 3z"/><path fill="#606a73" d="M125 168l-60 5 76-108z"/><path fill="#fff" d="M136 263l6-17 21 12z"/><path fill="#737978" d="M80.8 94.3l-3.2 14-61.1-17.1-1.5 10.1z"/><circle r="1" fill="#e3dad1" transform="matrix(-2.91424 .214 -2.10463 -28.65957 143.4 61.3)"/><path fill="#382e25" d="M133.2 33.5l-22.6-2.2 12.4 9.2L134.6 85z"/><path fill="#6e767e" d="M16 217h29v24H16z"/><path fill="#c7cbba" d="M-1.8 142.4l16 1.4-6.4 71.8-16-1.4z"/><path fill="#70747c" d="M116 102l-24 32 83-42z"/><path fill="#543630" d="M152 21h4v19h-4z"/><path fill="#49483e" d="M20.9 79.4L19.6 144l-7 5.4 14.5 80.7z"/><path fill="#373837" d="M126 167l-43-3 44-9z"/><path fill="#614331" d="M53 231l-25 23 32-5z"/><path fill="#999283" d="M103 263l-16-59-33 31z"/><path fill="#b5b9b2" d="M89 169l41 3-14 99z"/><path fill="#8f7565" d="M120.8 94.3L90.7 80.2l6.8-7.3 27.7-35.7z"/><path fill="#1f2528" d="M85 147.7l-6-.6 4-36.8 6 .6z"/><ellipse cx="19" cy="107" fill="#5b6058" rx="3" ry="23"/><circle r="1" fill="#e0e1e0" transform="matrix(.09544 -18.20982 8.60356 .0451 158.7 80)"/><circle r="1" fill="#e6e3db" transform="matrix(-5.25377 -.45965 4.11111 -46.9902 148.3 185.9)"/><path fill="#2b2c24" d="M21 122h4v98h-4z"/><path fill="#8e8e83" d="M18 108h3v111h-3z"/><path fill="#d7dadd" d="M94.9 67.1L40.5 91.5-16 74.2l128.2-22.5z"/><path fill="#a8b3bd" d="M28 104l46-2-30 48z"/><ellipse cy="140" fill="#000200" rx="5" ry="3"/><path fill="#807673" d="M6.4 148.3l128 12-59-17.1-56.2 5.8z"/><ellipse cx="75" cy="224" fill="#d6c7b0" rx="4" ry="19"/><circle r="1" fill="#ecece7" transform="rotate(-173.1 82.5 63.8) scale(2.52567 37.77373)"/><path fill="#bec2b9" d="M20 119l-15-9.9 3.8 54.5 10.7-33.5z"/><circle cy="118" r="4" fill="#531f00"/><path fill="#43362e" d="M134 39.3l-14.8-9.4-13.5 7.9 12.3 2.8z"/><path fill="#fcf3db" d="M22 242h14v5H22z"/><path fill="#6b4c3b" d="M74.9 216.8l-23 7-8.8-28.6 23-7z"/><path fill="#c0d3d7" d="M29 254h27v2H29z"/><path fill="#312c2a" d="M66.2 183.6l-8.5 26-1.5-20.8 6.7-30.8z"/><path fill="#574635" d="M149.4 66.6l-4.1 1.9-11.1-14.8-36.6 25.4z"/><circle r="1" fill="#464647" transform="matrix(1.78776 3.0725 -27.76356 16.15454 116 129.1)"/><path fill="#6a614b" d="M173.2 155.8l1 .3-39.4 108.1-1-.3z"/><ellipse cx="35" cy="190" fill="#949ba2" rx="7" ry="38"/><path fill="#ebe4dc" d="M23 83h56v12H23z"/><path fill="#825b42" d="M72 141H51l-9 53z"/><ellipse cx="52" cy="98" fill="#6f706e" rx="35" ry="2"/><path fill="#c8c9c6" d="M149.5 271l-33.4-93.8 40.2-47.3-14.7 93z"/><path fill="#cb9552" d="M133.6 37.4l2.9-.8 8 32-3 .8z"/><circle r="1" fill="#d6dce1" transform="matrix(-20.90854 -30.46768 7.93806 -5.44752 127.7 10.2)"/><path fill="#2f2c29" d="M110.8 105.9l2.9-4.9-16.8-1.6 2.7-16.6z"/><path fill="#8f978d" d="M91 168h31v9H91z"/><path fill="#c4c8b8" d="M-16 69l26 61-4-48z"/><circle r="1" fill="#636563" transform="rotate(-141 71.7 77.7) scale(5.62054 32.91695)"/><path fill="#d1dadd" d="M139 28h8v34h-8z"/><path fill="#7c818a" d="M95 88l-9 43 12-22z"/><path fill="#b1b0ad" d="M164 99l-11 93 32-64z"/><path fill="#69707c" d="M131.3 161.2l21.2-71.6-31.9 44.6L71 153.1z"/><circle cx="111" cy="45" r="7" fill="#7a6c69"/><path fill="#a58976" d="M109 97l-4-34-4 22z"/><path fill="#776b58" d="M165.9 208.3l-6.3 58.3 8.8-54.2L185 115z"/><path fill="#757a7c" d="M27 241l-9-57-7 31z"/><ellipse cx="78" cy="112" fill="#636e7b" rx="5" ry="28"/><path fill="#717573" d="M8.8 110.4l16-14.2-4.5 9.2 59-3.3z"/><path fill="#575b63" d="M157.7 115.9l-5.4 12.6-17.7 27 20.3-52z"/><path fill="#737174" d="M67.8 239.9l-30.3 7.4 34.8-20.1-3.8 19.7z"/><path fill="#383d3a" d="M19 87h3v37h-3z"/><path fill="#363b2f" d="M13.9 106l-6 .9-1.8-13 6-.8z"/><circle r="1" fill="#484b51" transform="rotate(-70.9 151.6 -42.6) scale(23.06903 1.34019)"/><path fill="#e3e4d5" d="M70 241l5 5-16-4z"/><path fill="#7a838f" d="M110.1 115.7l24.5-28.1 19.2 32.8-4.5-16.8z"/><path fill="#c5c6ba" d="M6.9 92l3.2 25.7-3 .4-3.2-25.8z"/><circle cx="88" cy="81" r="10" fill="#5b6671"/><circle cx="151" cy="22" r="2" fill="#323b37"/><path fill="#343223" d="M-3.4 230l2-5.7 4.8 1.7-2 5.7z"/><path fill="#974d52" d="M144 65l4 15 5-25z"/><ellipse cx="112" cy="151" fill="#8995a3" rx="34" ry="2"/><path fill="#deded4" d="M7.7 260l-3.3-26.8 10-1.2 3.2 26.8z"/><circle r="1" fill="#a9b0b6" transform="matrix(15.88223 -1.57926 1.97457 19.85776 40.6 128)"/><path fill="#a87c4a" d="M136.2 39l-8.3-3.4 1.9-4.6 8.3 3.4z"/><path fill="#883b40" d="M154.6 35.3l-4.2 33.8-3-.4 4.2-33.8z"/><circle r="1" fill="#b1b3ac" transform="matrix(-12.06357 5.29554 -24.07148 -54.83636 116.2 239.2)"/><path fill="#878a8d" d="M26 197h18v39H26z"/><path fill="#191919" d="M133.3 64.5l-6.5 4.7-4-5.7 6.4-4.7z"/></g></g></svg>