<svg xmlns="http://www.w3.org/2000/svg" viewBox="0 0 1800 1200"><defs/><filter id="prefix__a"><feGaussianBlur stdDeviation="12"/></filter><rect width="100%" height="100%" fill="#4c3628"/><g filter="url(#prefix__a)"><g transform="translate(3.5 3.5) scale(7.03125)"><circle r="1" fill="#b3cdd8" fill-opacity=".5" transform="matrix(3.85389 61.25582 -254.49684 16.01158 130.7 8.8)"/><circle r="1" fill-opacity=".5" transform="matrix(-4.57227 -20.45517 24.8141 -5.54661 84.8 59.7)"/><circle r="1" fill="#faffff" fill-opacity=".5" transform="matrix(5.2528 -8.882 59.40704 35.13322 115 5.2)"/><circle r="1" fill="#b1bfc8" fill-opacity=".5" transform="matrix(-.9047 33.94605 -45.83397 -1.22153 18 43.5)"/><path fill="#342823" fill-opacity=".5" d="M178 53.4l-8 17.2-146-68 8-17.2z"/><circle r="1" fill="#6a6566" fill-opacity=".5" transform="matrix(173.1084 70.64423 -7.25811 17.78546 174.3 143)"/><circle r="1" fill="#768c96" fill-opacity=".5" transform="matrix(-11.24223 -27.25088 31.14379 -12.84823 251.3 76.9)"/><circle r="1" fill="#738eb3" fill-opacity=".5" transform="matrix(32.17393 -1.8733 .5583 9.58882 20.8 116.2)"/><ellipse cx="243" cy="38" fill="#221d13" fill-opacity=".5" rx="57" ry="8"/><circle r="1" fill="#dad7c3" fill-opacity=".5" transform="matrix(1.24744 9.22628 -43.39128 5.86673 218.8 11.9)"/><circle r="1" fill="#0b181f" fill-opacity=".5" transform="matrix(1.98595 -22.70157 58.0232 5.0759 198 114.4)"/><path fill-opacity=".5" d="M156 13l98-21-74-6z"/><ellipse cx="51" cy="139" fill="#5c5058" fill-opacity=".5" rx="25" ry="70"/><circle r="1" fill="#ebc3a8" fill-opacity=".5" transform="rotate(41 -94.9 196.1) scale(25.50018 3.10357)"/><ellipse cx="212" cy="51" fill="#c5cfd0" fill-opacity=".5" rx="51" ry="6"/><ellipse cx="97" cy="166" fill-opacity=".5" rx="17" ry="29"/><path fill="#ccd6dc" fill-opacity=".5" d="M160 66l-47-2-6-23z"/><path fill="#312e2d" fill-opacity=".5" d="M-16-7l116-9-46 34z"/><circle r="1" fill="#68726d" fill-opacity=".5" transform="rotate(-103.7 165.1 -6.6) scale(14.15836 54.86986)"/><circle cx="82" cy="57" r="20" fill="#111011" fill-opacity=".5"/><path fill="#030100" fill-opacity=".5" d="M-3.4 177.2l-2.2-43 29-1.4 2.2 43z"/><path fill="#fff" fill-opacity=".5" d="M145.2 4.3l2.1-2.1 37.5 37.5-2.1 2.1z"/><path fill="#2a2924" fill-opacity=".5" d="M184 27h20v21h-20z"/><path fill="#7d8987" fill-opacity=".5" d="M191 63l-1 19-41-13z"/><path fill-opacity=".5" d="M33 88.7l2.6 9.7L-5 109.3l-2.6-9.7z"/><path fill="#d2dadd" fill-opacity=".5" d="M160.8 23.3l-14.1 16.9-37.5-31.5 14.1-16.9z"/><path fill="#283036" fill-opacity=".5" d="M104 69h65v34h-65z"/><path fill="#b7c5d3" fill-opacity=".5" d="M33.5 29.3l71.6 11.1L62.3 24l-48.4-4.6z"/><path fill="#887874" fill-opacity=".5" d="M90.3 92.8l20-45.9-7.4 51.3-32.2 2.2z"/><path fill="#c7c1b0" fill-opacity=".5" d="M205.9 40.7l43.2-1.8-1.2-3.6-13.5.2z"/><path fill="#55362e" fill-opacity=".5" d="M66 130l-5-47 94 69z"/><ellipse cx="228" cy="65" fill="#403f3c" fill-opacity=".5" rx="69" ry="5"/><path fill="#b3b3a4" fill-opacity=".5" d="M253-16l-2 43-55 6z"/><path fill="#9aa2a0" fill-opacity=".5" d="M123.1 28.9l42.1-.8 32 31.2-9 4.9z"/><path fill="#101110" fill-opacity=".5" d="M267 127l-27-24-76 40z"/><path fill="#7e7c74" fill-opacity=".5" d="M165 177l60-43-58 13z"/><circle r="1" fill="#3e413b" fill-opacity=".5" transform="rotate(-20.3 587.6 -564.6) scale(80.27593 18.71032)"/><path fill="#674f3d" fill-opacity=".5" d="M165 131l45-20-11 23z"/><path fill="#7e9ebc" fill-opacity=".5" d="M26.8 105.8l2.6 8.7-38.2 11.7-2.6-8.7z"/><ellipse cx="137" cy="158" fill="#342620" fill-opacity=".5" rx="29" ry="15"/><path fill="#35454d" fill-opacity=".5" d="M97.3-4l.3-1 49.1 17-.3 1z"/><ellipse cx="30" cy="79" fill="#566164" fill-opacity=".5" rx="33" ry="9"/><ellipse cx="218" cy="75" fill="#343c3c" fill-opacity=".5" rx="8" ry="22"/><circle r="1" fill="#4e4b49" fill-opacity=".5" transform="matrix(-.12089 .99267 -122.1666 -14.87788 4.5 15.2)"/><path fill="#59554a" fill-opacity=".5" d="M195 47l-33-31 13-3z"/><path fill-opacity=".5" d="M87 150.8l35.4 18.8-9.4 17.6-35.4-18.8z"/><ellipse cx="115" cy="72" fill="#5b4e49" fill-opacity=".5" rx="35" ry="5"/><path fill="#0a0b0d" fill-opacity=".5" d="M253 16h3v27h-3z"/><path fill="#131417" fill-opacity=".5" d="M71.3 88.5L58.8 69.8l19.3-31.1 7.8 19.6z"/><path fill="#cedde8" fill-opacity=".5" d="M84 4l40 2-62-22z"/><path fill="#b5b5b0" fill-opacity=".5" d="M38.5 26.9l-6.4 39.2-30.6 8.5 8.6-43z"/><path fill="#a3bdd5" fill-opacity=".5" d="M86.3 100.7l-.5-6 16-1.4.4 6z"/><ellipse cx="249" cy="50" fill="#b7bcbb" fill-opacity=".5" rx="41" ry="7"/><path fill="#1a1b19" fill-opacity=".5" d="M211 47l-12-19-18-1z"/><path fill="#827f7d" fill-opacity=".5" d="M226 69h10v34h-10z"/><circle r="1" fill="#090c0b" fill-opacity=".5" transform="rotate(96.5 22 102.8) scale(6.56568 14.2276)"/><path fill="#ecbd97" fill-opacity=".5" d="M108.1 106.3L127 127l-3 2.6-19-20.6z"/><path fill="#adaa9e" fill-opacity=".5" d="M171.7 14.6l-1.4-5 53.5-8.1-36.7 28.4z"/><path fill="#4f4b49" fill-opacity=".5" d="M45-16l54 29-43 9z"/><path fill="none" stroke="#403f3b" stroke-opacity=".5" stroke-width=".5" d="M58.5 70q37-61.6 188.6-2.7"/><path fill="#5b4c3f" fill-opacity=".5" d="M103.2 26.1L97.4 32l4.3 36 11 25z"/><circle r="1" fill="#9ba6aa" fill-opacity=".5" transform="rotate(94.7 69.6 100.9) scale(3.9282 20.85874)"/><path fill="#657b8c" fill-opacity=".5" d="M157.5 131.7l27.4-5.8-26.7 14.2-4.4-12.3z"/><path fill="#7d90a3" fill-opacity=".5" d="M36 32h25v39H36z"/><path fill="#040f18" fill-opacity=".5" d="M125.6-13l25.5 25.4-.7.7-25.5-25.5z"/><path fill="#0c1927" fill-opacity=".5" d="M239 80h7v13h-7z"/><path fill="#744d3d" fill-opacity=".5" d="M149.5 117.1l-20.2-17.4-21.3 6.6 45.1 49.8z"/><path fill="#0b0f11" fill-opacity=".5" d="M160.6 5.3l.7-.7 18.1 20.1-.7.7z"/><circle r="1" fill="#36312a" fill-opacity=".5" transform="matrix(-33.1851 13.32532 -.56039 -1.39558 4.3 126.2)"/><path fill="#c3ced2" fill-opacity=".5" d="M212 57h-31l-21-14z"/><path fill="#655f5a" fill-opacity=".5" d="M137.4 37.8l65.5 27.3.8 3.4-36.2 9.2z"/><path fill="#5c5c54" fill-opacity=".5" d="M197.8 38.3l-5.2-19.2 10.4 5.3-17.2-7.1z"/><path fill="#e8f0f6" fill-opacity=".5" d="M124.1-16h-49l67.2 24.2-4-5.3z"/><path fill="#5c4d50" fill-opacity=".5" d="M24 104l32-30 15 111z"/><circle r="1" fill="#4c3132" fill-opacity=".5" transform="matrix(.0366 -5.2437 32.88592 .2296 71.5 88.6)"/><circle r="1" fill="#141816" fill-opacity=".5" transform="matrix(-39.14116 3.16923 -.15044 -1.85797 236.2 33)"/><path fill="#9eb0c1" fill-opacity=".5" d="M60.1 50.3L84.2 31l-22.1-7.4 1.1 24.1z"/><circle r="1" fill="#32353b" fill-opacity=".5" transform="matrix(7.98536 15.20988 -18.95215 9.9501 163.6 94.5)"/><path fill="#4b5a62" fill-opacity=".5" d="M112.2-16L142.4.3l19.5 11-.3 3z"/><path fill="#1c1b21" fill-opacity=".5" d="M181.4.9l23.8 1.9-47.5 9.3 1.9-3.5z"/><path fill="#a39c93" fill-opacity=".5" d="M106.9 42.5l4.7 7.7-8.5 5.3-4.7-7.7z"/><path fill="#2c353a" fill-opacity=".5" d="M188.3 49L159 21.7l.7-.7L189 48.3z"/><path fill="#242322" fill-opacity=".5" d="M101 25l-3 22 12-20z"/><ellipse cx="15" cy="96" fill="#030609" fill-opacity=".5" rx="17" ry="6"/><path fill="#a1b5c6" fill-opacity=".5" d="M19 7l-35 7 4-17z"/><path fill="#251917" fill-opacity=".5" d="M201.1 84.7l-12.2-16.1 22.8 3.6 6.1 17.8z"/><circle r="1" fill="#938889" fill-opacity=".5" transform="matrix(-9.78048 -4.39 1.08053 -2.4073 129.3 128.4)"/><path fill="#b8b7ac" fill-opacity=".5" d="M271 2.9l-41.2 16.4L258 30.6 224.7-16z"/><path fill="#fff" fill-opacity=".5" d="M185.3 43L162 19.7l.7-.7L186 42.3z"/><ellipse cx="85" cy="43" fill="#655242" fill-opacity=".5" rx="5" ry="8"/><ellipse cx="221" cy="38" fill="#beb6a6" fill-opacity=".5" rx="13" ry="2"/><path fill="#000305" fill-opacity=".5" d="M271 104.9l-22.8 5.4 7.5 18.2-26.1 4.4z"/><path fill="#f5f5f4" fill-opacity=".5" d="M133.6 14.7l11.2 3.7 10.2-2.3-39.7-11.2z"/><path fill="#595c61" fill-opacity=".5" d="M229 103l41 3-59-21z"/><path fill="#33312f" fill-opacity=".5" d="M8.7 3.5L32.8 10 20.4-5.9-1.8-.8z"/><circle r="1" fill="#4e5255" fill-opacity=".5" transform="matrix(.47679 9.74867 -35.37684 1.73022 4.6 82.4)"/><path fill="#40362c" fill-opacity=".5" d="M203 41h28v6h-28z"/><path fill="#8da4b2" fill-opacity=".5" d="M156 9l13-10-35-15z"/><path fill="#57443d" fill-opacity=".5" d="M77.5 157.7L105.9 84l-4.8 11.2-42.3 24.7z"/><path fill="#7b7145" fill-opacity=".5" d="M200.7 83.1L187 85.5l-10-3.3 3.8-6.7z"/></g></g></svg>