<svg xmlns="http://www.w3.org/2000/svg" viewBox="0 0 1800 1200"><defs/><filter id="a"><feGaussianBlur stdDeviation="12"/></filter><rect width="100%" height="100%" fill="#343b48"/><g filter="url(#a)"><g fill-opacity=".5" transform="translate(3.5 3.5) scale(7.03125)"><circle r="1" fill="#cdfaff" transform="matrix(83.89156 165.7281 -201.7651 102.1335 94.7 61.3)"/><circle cx="79" cy="18" r="97" fill="#c7e7ff"/><circle r="1" fill="#483223" transform="matrix(6.3814 43.9119 -71.51926 10.39338 222 93.4)"/><ellipse cx="141" cy="24" fill="#96bdff" rx="198" ry="31"/><ellipse cx="60" cy="150" fill="#32639e" rx="235" ry="38"/><ellipse cx="34" cy="85" fill="#c8d8fa" rx="122" ry="28"/><ellipse cx="235" cy="85" fill="#403d26" rx="46" ry="20"/><circle cx="174" cy="75" r="20" fill="#8f7e77"/><path fill="#2a2a3c" d="M156.2 115.7l-18.7-2.3 33.9-41.5-15.2-1.1z"/><ellipse cx="171" cy="118" fill="#c7a786" rx="84" ry="3"/><circle r="1" fill="#aecdf1" transform="matrix(2.2174 12.63468 -159.93217 28.06837 188 41.2)"/><ellipse cx="72" fill="#87addf" rx="234" ry="28"/><circle r="1" fill="#dcc9af" transform="matrix(7.53614 -10.90516 4.86781 3.36396 183.3 77.8)"/><ellipse cx="127" cy="84" fill="#c3d6ed" rx="27" ry="26"/><path fill="#6c675b" d="M203.3 71.4l-51.5-7.3 84.6-18.6-.5 69.2z"/><ellipse cx="53" cy="105" fill="#8fa5cc" rx="64" ry="8"/><path fill="#2b2c2c" d="M180 88h76v10h-76z"/><ellipse cx="20" cy="117" fill="#3c5b8c" rx="112" ry="5"/><path fill="#5a87aa" d="M188 154l-96-25 179-5z"/><path fill="#363436" d="M183 90l2.5 6.6-50.5 19.3-2.5-6.5z"/><circle cx="166" cy="62" r="6" fill="#1f2c48"/><path fill="#091733" d="M271 56l-13-14-17 16z"/><circle r="1" fill="#b6d0ec" transform="matrix(-1.51381 -23.40932 119.77458 -7.74547 39.5 70.5)"/><path fill="#b08c6e" d="M229.1 108.9l5.1-14 29 34.2-17.1-11.2z"/><circle r="1" fill="#957158" transform="matrix(-15.55027 1.65808 -.40513 -3.7995 124.8 115.3)"/><path fill="#4b3c26" d="M216.8 101.2l-20.4 13 23.2-.4 14.6-.4z"/><path fill="#b79777" d="M176.7 102.4l18.5-2.7-7.8 24 6.1-6.5z"/><ellipse cx="202" cy="28" fill="#9bbce5" rx="156" ry="19"/><circle r="1" fill="#50627e" transform="rotate(80.6 14.4 218.9) scale(9.37166 61.58427)"/><path fill="#8e9067" d="M192 77l33 12 8-9z"/><path fill="#4e505d" d="M155 71h13v38h-13z"/><ellipse cx="224" cy="118" fill="#c2b4a5" rx="82" ry="2"/><ellipse cx="250" cy="78" fill="#212623" rx="27" ry="4"/><path fill="#c3d0df" d="M158 91.5l-56 30 16.5-17.6L-12 81.7z"/><path fill="#b2a393" d="M189 57l-25 36 26-9z"/><path fill="#0c0f19" d="M248 92h8v14h-8z"/><ellipse cx="76" cy="2" fill="#88acde" rx="255" ry="13"/><path fill="#4873a1" d="M-16 156l3-38 132 2z"/><path fill="#9db5d2" d="M235.7 57.1l-14.4-3.3 32.2-2.2-19-27z"/><path fill="#545557" d="M147 120h77v4h-77z"/><path fill="#444548" d="M223 75l10-28-12 3z"/><ellipse cx="55" cy="54" fill="#a8c6e7" rx="118" ry="13"/><path fill="#908977" d="M163.6 65.1l15.7 33-15.9-6.8 31.5.6z"/><path fill="#8f8c72" d="M202 65h45v3h-45z"/><path fill="#5d88b3" d="M108 120h46v25h-46z"/><path fill="#32303b" d="M126.8 112.9l.3 3-14 1.2-.2-3z"/><path fill="#2a3143" d="M142 102h10v13h-10z"/><path fill="#46484a" d="M184 54l33 29-13-24z"/><circle r="1" fill="#bdcfe2" transform="rotate(147.4 52 65.9) scale(17.38958 16.05366)"/><circle r="1" fill="#7b7c58" transform="matrix(22.10075 5.26514 -.71516 3.00193 237.2 84.5)"/><path fill="#837058" d="M207.7 105l20.4-13 10.9-1.3-39 20.9z"/><path fill="#151c1d" d="M248 62h4v16h-4z"/><path fill="#8f8c87" d="M203.9 71l-1.3-21.8-8.5 5.4L214.4 70z"/><path fill="#332d1b" d="M194 103h13v5h-13z"/><ellipse cx="180" cy="65" fill="#2d344a" rx="4" ry="6"/><path fill="#291e1e" d="M172 109l6 4 8-5z"/><path fill="#2a2d30" d="M192 82l30.4 9.1-18.8 22.6 13.9-5z"/><path fill="#b7aa9d" d="M170 72l4-10 6 14z"/><path fill="#436078" d="M214 121l52 20 1-17z"/><ellipse cx="255" cy="116" fill="#545563" rx="38" ry="2"/><path fill="#96b9e2" d="M234.8 58.1L271 5.8l-72.2 52.3L240.9-16z"/><path fill="#af9679" d="M123 115h35v4h-35z"/><ellipse cx="56" cy="85" fill="#c1d5e7" rx="98" ry="12"/><path fill="#abc9e9" d="M166.5 44.2l-8.2 26.2-45.4 4.8 95.3-32.4z"/><path fill="#4c6f9b" d="M39 119h106v5H39z"/><path fill="#b39c80" d="M204 118.2l-2 2.3-20-16.7 2-2.3z"/><path fill="#b0a191" d="M234 117h21v5h-21z"/><circle r="1" fill="#618aae" transform="rotate(166.8 -3.2 85.3) scale(59.6889 9.36397)"/><path fill="#969371" d="M255.2 59.4L185 75.6l-.2-1L255 58.4z"/><path fill="#2e362b" d="M194.4 80l-1-2.9 32.2-11 1 2.8z"/><path fill="#5b82a0" d="M97 182l163-38-80-22z"/><path fill="#81705a" d="M219.8 110.5l59.8-41.8.6.8-59.8 41.8z"/><path fill="#505460" d="M155 74.7l12.9-21.5-18.9 59.4 19.8-24.2z"/><path fill="#302b2c" d="M271 108l-36-4 36-6z"/><path fill="#bdafa0" d="M189 65l-13 29-1-15z"/><path fill="#3e3f2a" d="M171.6 97.7l2.7-3 8 7.6-2.6 3z"/><path fill="#9db2d5" d="M0 103h118v10H0z"/><path fill="#1f2227" d="M270.4 86.4l-.2 1-50.6-11.8.2-1z"/><path fill="#797266" d="M212 48l22 25-29-17z"/><path fill="#b79067" d="M242 113l-12-8 19 1z"/><path fill="#8f8f64" d="M220 74l-6-5 6 15z"/><path fill="#756f70" d="M154 86h4v29h-4z"/><path fill="#7b6d55" d="M223 101.2l21.1-4.9-33.6 3.6-18.8 13.9z"/><path fill="#3f464d" d="M252 46l19-13-17 25z"/><path fill="#b1a08f" d="M194 75l-14 1 8-19z"/><path fill="#4b4d55" d="M216.9 51.4l3.5-3.5 12.7 12.7-3.5 3.5z"/><path fill="#212531" d="M283.4 99.7l-90.8-6.4v-1l90.8 6.4z"/><ellipse cx="18" cy="115" fill="#365e91" rx="87" ry="2"/><path fill="#3d3f46" d="M160.8 111.2l18.4-16.8-47.6 16.3 10.7.6z"/><circle r="1" fill="#8baddb" transform="matrix(-51.85488 32.7184 -9.58014 -15.1834 20.8 8.7)"/><path fill="#70655b" d="M185 53l2.9-.8 1.2 4.9-3 .7z"/><path fill="#857363" d="M101 118h58v2h-58z"/><path fill="#453e36" d="M249.6 87.4l8.2 2.7-7.9 24.5 20.8.9z"/><path fill="#a3c3e5" d="M216.4 52.5l12.9-15.8-171.4 3.1 157.5 10.5z"/><ellipse cx="238" cy="74" fill="#6c6f4c" rx="10" ry="3"/><path fill="#222a27" d="M220.7 68.1l14.2 9.3-1.6 2.5-14.2-9.3z"/><ellipse cx="80" cy="138" fill="#5a84a9" rx="66" ry="7"/><path fill="#32392e" d="M194.5 73.7l.5-2 18.5 4.6-.5 2z"/><path fill="#4c769b" d="M127.8 156.8l53.2-10.5-34.4-26.5 28 4.4z"/><path fill="#9dbfe6" d="M143 30l50-12-10 39z"/></g></g></svg>