<svg xmlns="http://www.w3.org/2000/svg" viewBox="0 0 1800 1200"><defs/><filter id="a"><feGaussianBlur stdDeviation="12"/></filter><rect width="100%" height="100%" fill="#344457"/><g filter="url(#a)"><g fill-opacity=".5" transform="translate(3.5 3.5) scale(7.03125)"><ellipse cx="182" cy="66" fill="#918f8e" rx="255" ry="79"/><ellipse cx="126" cy="107" fill="#b35900" rx="48" ry="24"/><circle r="1" fill="#e2ddcc" transform="matrix(49.8107 4.28116 -1.4093 16.39705 233.7 96)"/><circle r="1" fill="#2d4768" transform="matrix(74.69064 -11.82984 3.95848 24.99285 29 59)"/><path fill="#545053" d="M243 185l-60-92-130 68z"/><ellipse cx="199" cy="12" fill="#4b6887" rx="198" ry="71"/><path fill="#ffae32" d="M106.4 112.6l.2-16 43 .8-.2 16z"/><ellipse cx="230" cy="119" fill="#9f9e97" rx="41" ry="14"/><ellipse cx="57" cy="91" fill="#92a5a8" rx="41" ry="8"/><path fill="#7a3900" d="M35 113l71-23-18 21z"/><circle r="1" fill="#acb5b0" transform="matrix(-19.28138 -1.3821 .57027 -7.9557 173.9 87.4)"/><ellipse cx="238" cy="20" fill="#405366" rx="32" ry="59"/><circle r="1" fill="#6c839d" transform="rotate(176 50.2 9.2) scale(94.43487 9.99318)"/><circle r="1" fill="#50535b" transform="rotate(-77.1 121.3 22) scale(20.00038 87.05516)"/><path fill="#482f20" d="M186.4 114.5l12.8-10-86-31.1 52.1 39z"/><ellipse cx="117" cy="54" fill="#7f8a9a" rx="42" ry="6"/><ellipse cx="228" cy="146" fill="#525e67" rx="73" ry="15"/><ellipse cy="73" fill="#3b4d62" rx="124" ry="13"/><ellipse cx="79" cy="110" fill="#be7314" rx="29" ry="4"/><ellipse cx="88" cy="87" fill="#9badb2" rx="21" ry="4"/><path fill="#b0978c" d="M9 103h50v5H9z"/><path fill="#ae6935" d="M107 132l-4-35 45 29z"/><path fill="#6c3e12" d="M123.7 101.4L115.9 88l16.8-11.1 18.1 9.5z"/><path fill="#aeafa8" d="M171 100.2l18.3-9.3 57.1-3.1-95.8-6.8z"/><circle r="1" fill="#533d20" transform="matrix(-28.54933 13.4343 -1.38493 -2.94313 95.4 96.7)"/><path fill="#56555c" d="M74 113h30v28H74z"/><path fill="#44332b" d="M167 98h30v16h-30z"/><path fill="#ffc83d" d="M117 95l19 16-31-14z"/><circle cx="205" cy="100" r="12" fill="#a0a7a8"/><path fill="#283b50" d="M3 118l39-3-58-11z"/><circle r="1" fill="#465367" transform="matrix(-51.80594 11.46037 -2.44791 -11.06565 64 47)"/><circle r="1" fill="#384a60" transform="matrix(30.50389 2.6151 -.99123 11.56215 242.4 17.5)"/><ellipse cx="239" cy="44" fill="#5e7085" rx="130" ry="9"/><path fill="#506073" d="M262 50.1l-76.1 34-83.3-6.1L196 49.8z"/><path fill="#482e10" d="M64.9 105.5l12-5.1 4.2 10.1-12 5.1z"/><path fill="#3a516a" d="M-6-10.5h78v21H-6z"/><circle r="1" fill="#58677b" transform="matrix(-38.00925 -11.50347 4.9728 -16.4309 85 67.1)"/><path fill="#bebaac" d="M266 97l5-19-74 7z"/><path fill="#fba937" d="M92 104h8v8h-8z"/><circle r="1" fill="#5f4a45" transform="matrix(6.52077 4.13727 -17.90783 28.22462 150.6 123.5)"/><path fill="#515d6c" d="M147 113h109v4H147z"/><circle r="1" fill="#334358" transform="matrix(-5.755 15.20368 -31.15476 -11.79291 0 65)"/><path fill="#878b8a" d="M271 120.3l-71.1 14.4-7.9-3.5-7.9-16.6z"/><path fill="#707f89" d="M69 97L-3 85l50 27z"/><path fill="#a1a9a6" d="M83 85h28v4H83z"/><path fill="#695756" d="M142.4 148.8l-38 1.4-.8-21 38-1.4z"/><path fill="#75859c" d="M79.4 23.5l-11.3-3.6-2.5-7.9 67.6-7.4z"/><path fill="#3f4d5d" d="M91 131l25 54-132-57z"/><path fill="#e17d0c" d="M50 112l17-6-9 7z"/><path fill="#67686b" d="M4.8 128.8l88.6-.4 20.9-15.7-117.2 12.7z"/><ellipse cx="234" cy="150" fill="#49515d" rx="146" ry="10"/><path fill="#734e36" d="M183.9 93.7l12.8 11.2-58-3.4 13.8 11.4z"/><path fill="#617790" d="M209.8-13L97.6 26l65.7-1.4L247.4-16z"/><path fill="#676a6c" d="M159 115h34v16h-34z"/><path fill="#56351d" d="M133 80l20 5v16z"/><path fill="#78480f" d="M105 96H90l13 15z"/><circle r="1" fill="#8f9a9e" transform="matrix(-25.55821 5.24908 -.49544 -2.41232 90.8 89.6)"/><ellipse cx="133" cy="108" fill="#ffb448" rx="9" ry="3"/><path fill="#a6652a" d="M139 93l-3 8-5-17z"/><ellipse cx="98" cy="111" fill="#dc9032" rx="18" ry="2"/><path fill="#3e312c" d="M157.5 115.7l24.9-20.6 15.3 18.2-42.4-1.7z"/><circle r="1" fill="#465d76" transform="matrix(-1.55899 -6.80256 35.97309 -8.24419 178.5 25.2)"/><path fill="#738193" d="M93 51h54v11H93z"/><path fill="#576b82" d="M61.6 9.9l-73.8-1.6 11 33.4 38.1-2.6z"/><ellipse cx="43" cy="89" fill="#979792" rx="61" ry="2"/><path fill="#5e656c" d="M197 131h59v20h-59z"/><ellipse cx="190" cy="165" fill="#404c59" rx="73" ry="16"/><path fill="#496576" d="M0 94h38v8H0z"/><path fill="#35404c" d="M26.4 156.1l-28.8-16.2-5.7 36.1 131.5-15.5z"/><path fill="#9c6034" d="M147.6 117.2l-1 11.3-12 2-16.4-12.8z"/><path fill="#959c9f" d="M228 112l-47-28 20 27z"/><circle r="1" fill="#4d5f75" transform="rotate(-62.3 127 -135.5) scale(4.47051 40.0291)"/><path fill="#808d92" d="M53 89.6l3.5 17.3 50.8-18.3-71.1 2.9z"/><path fill="#ffb13c" d="M105 96h14v5h-14z"/><path fill="#744e33" d="M142 78l13 19 25 6z"/><ellipse cx="20" cy="105" fill="#9e877e" rx="41" ry="2"/><path fill="#63768e" d="M190.1 58.4L91.8 16.9l70.5-15.7-47.4 41.6z"/><ellipse cx="115" cy="121" fill="#be804c" rx="3" ry="11"/><circle r="1" fill="#4b5967" transform="matrix(2.05052 -6.62417 48.51712 15.01856 35.2 130.7)"/><path fill="#6c5853" d="M95.7 141.1L83 113.4l99.5 3.5-80.5.9z"/><path fill="#869495" d="M193.6 78.8l-19.2 7.8 65.8-6.1 6.8 4.6z"/><path fill="#4a4850" d="M159.7 149.1L101.2 185l42.3-38.1 11.8-35.9z"/><circle r="1" fill="#4a596d" transform="matrix(-4.4721 10.79662 -24.6391 -10.20585 64.1 70.5)"/><path fill="#989f9f" d="M210 90.9l-69.7-11.4 88.4 32.3-39-18.2z"/><circle r="1" fill="#623727" transform="matrix(2.56533 -.34424 .133 .99112 141.9 105.7)"/><path fill="#576779" d="M118 61h80v20h-80z"/><ellipse cx="19" cy="112" fill="#353840" rx="30" ry="2"/><path fill="#ce8952" d="M137 112l14-6v-7z"/><path fill="#67788e" d="M63 34l-32-7L71 9z"/><path fill="#804e1b" d="M122.7 90.5l9.8 13.8L105.4 90l22.5-7.8z"/><path fill="#594327" d="M88.4 101.9l-26.2 6.8-12.6 2.3 72.6-28.5z"/><ellipse cx="233" cy="58" fill="#41546a" rx="51" ry="4"/><circle cx="62" cy="110" r="3" fill="#f49510"/><path fill="#415066" d="M81 50l-50-2 66-18z"/><ellipse cx="224" cy="86" fill="#cbc0af" rx="41" ry="2"/><path fill="#5a6772" d="M38.7 109.9l-29 11.6L86 133.2-16 94.8z"/><path fill="#aca9a4" d="M219 78l-7 30 47 1z"/><path fill="#949087" d="M239 118h17v15h-17z"/><path fill="#697176" d="M0 85h43v3H0z"/><path fill="#aa6721" d="M82.9 108.3l33.7-19.5.5.9-33.7 19.5z"/></g></g></svg>