<svg xmlns="http://www.w3.org/2000/svg" viewBox="0 0 1800 1200"><defs/><filter id="a"><feGaussianBlur stdDeviation="12"/></filter><rect width="100%" height="100%" fill="#443c3c"/><g filter="url(#a)"><g fill-opacity=".5" transform="translate(3.5 3.5) scale(7.03125)"><circle r="1" fill="#ff9a30" transform="rotate(-85.8 77.8 -59.3) scale(62.79074 175.83068)"/><path fill="#ec7d38" d="M176 104L15 8l256-24z"/><circle r="1" fill="#883a30" transform="matrix(241.88295 8.97297 -.3817 10.28931 67.3 71.2)"/><ellipse cx="163" cy="49" fill="#de702e" rx="114" ry="22"/><ellipse cx="169" cy="96" fill="#ff8f4c" rx="11" ry="6"/><circle r="1" fill="#514037" transform="rotate(12.8 -358.8 512) scale(57.87827 18.29242)"/><circle r="1" fill="#a55c35" transform="matrix(54.85686 3.42605 -2.13556 34.19397 35.8 39)"/><path fill="#5b3e36" d="M179 76h77v18h-77z"/><circle r="1" fill="#c6823f" transform="rotate(-170.8 66 -1.6) scale(125.00012 30.97937)"/><circle r="1" fill="#e28333" transform="matrix(.43683 20.2209 -42.60373 .92037 171.3 41.3)"/><circle r="1" fill="#2a342b" transform="matrix(15.11715 6.26173 -13.58075 32.78682 247.6 137.3)"/><path fill="#485043" d="M92 133L5 185l236-23z"/><path fill="#ff642d" d="M149 89l30-5-46-7z"/><circle cx="17" cy="130" r="42" fill="#363e31"/><ellipse cx="63" cy="10" fill="#b4733e" rx="46" ry="35"/><path fill="#ffb559" d="M163.3 99.1l-.6-7 14-1.2.6 7z"/><circle r="1" fill="#b36230" transform="matrix(-6.23938 -58.57959 16.70795 -1.77958 245.6 10.5)"/><path fill="#f52428" d="M181 94l1 7-24-2z"/><circle r="1" fill="#7a4735" transform="matrix(2.36399 -8.97574 64.42068 16.96682 9 60.4)"/><circle r="1" fill="#aa482d" transform="matrix(62.61286 -4.6165 .3265 4.42831 243.4 66.5)"/><path fill="#3d4238" d="M233 99l-5 63L3 106z"/><path fill="#55544a" d="M180 144h47v16h-47z"/><circle r="1" fill="#914236" transform="rotate(-146.6 80.8 20.3) scale(22.97109 5.62594)"/><circle r="1" fill="#a95232" transform="matrix(1.09256 -9.02841 60.5961 7.33293 76.7 63)"/><ellipse cx="83" cy="126" fill="#30342f" rx="206" ry="6"/><path fill="#d1602d" d="M143 62h53v14h-53z"/><path fill="#473e37" d="M172 88l96-7-52 36z"/><path fill="#c46a32" d="M100 17l26 49L21 43z"/><path fill="#7f4234" d="M122.1 77.4l91.7 8.3 55.5-31.9-9.9 21.8z"/><ellipse cx="152" cy="83" fill="#ff7a31" rx="15" ry="3"/><path fill="#433e38" d="M123 124l40-33L1 89z"/><circle r="1" fill="#d07030" transform="rotate(-114.9 126 -50.3) scale(19.27429 21.40275)"/><path fill="#1c2122" d="M71 161l10 11-27-10z"/><path fill="#656053" d="M111 167h58v3h-58z"/><path fill="#4b4d45" d="M67 143l-48 16 3-20z"/><circle r="1" fill="#5d4538" transform="matrix(55.82103 3.70763 -.43163 6.49853 56.9 78.8)"/><circle r="1" fill="#ae7740" transform="matrix(-42.72174 -8.22691 2.26809 -11.77803 241.7 2.7)"/><path fill="#be8249" d="M119-16l88 22L48 9z"/><circle r="1" fill="#9e6d3e" transform="matrix(8.07742 -16.3439 23.22298 11.47716 20.7 0)"/><path fill="#000407" d="M223 164h14v2h-14z"/><path fill="#333634" d="M105.2 166.2l26.6-11.4 41 10-62.2.6z"/><circle r="1" fill="#202623" transform="matrix(9.17102 -6.9187 3.22591 4.27608 5.9 168)"/><ellipse cx="48" cy="154" fill="#1b2323" rx="11" ry="3"/><path fill="#96522c" d="M20.3 52.9l-17 8.6L-20.3 15l17-8.6z"/><ellipse cx="186" cy="117" fill="#4a483f" rx="172" ry="4"/><path fill="#ffff6f" d="M165 93v-1l12 1v1z"/><path fill="#ffc76b" d="M166 93h14v3h-14z"/><path fill="#653d39" d="M146.7 88.5l39.3.6-65.3 4.9-16.2-17.7z"/><path fill="#ff462a" d="M157.5 97.8v-1l19 1.4v1z"/><path fill="#242829" d="M80 163h63v2H80z"/><circle r="1" fill="#cf7f39" transform="rotate(-177.2 86.3 9) scale(49.2492 13.58001)"/><path fill="#504f47" d="M123.7 162.6L22.6 139.7 90 162.2l17.7-32z"/><ellipse cx="60" cy="168" fill="#615e50" rx="35" ry="1"/><path fill="#bf4e36" d="M179 83h24v2h-24z"/><path fill="#b15430" d="M179 69h35v9h-35z"/><circle r="1" fill="#5c3d37" transform="matrix(-.07768 2.3202 -25.52022 -.85443 188 88.7)"/><ellipse cx="7" cy="119" fill="#4f4d45" rx="156" ry="2"/><path fill="#4e4d45" d="M193.9 139.8l.3 2.4 20.9 42.8 17.4-36z"/><path fill="#1b2021" d="M240 152l-3 12-9-13z"/><circle r="1" fill="#43413c" transform="matrix(-9.01756 19.39684 -22.2433 -10.34087 179.4 124.8)"/><path fill="#a13337" d="M169.5 101.6l-10.9 1.8-.1-1 10.9-1.8z"/><circle r="1" fill="#844a38" transform="matrix(-52.53683 -5.89295 .5385 -4.80086 66 70.9)"/><ellipse cx="194" cy="163" fill="#252827" rx="10" ry="2"/><path fill="#884535" d="M114.8 77.5l68 5.2-54.4-9.7 21.3 17.9z"/><circle r="1" fill="#684539" transform="matrix(32.9519 -5.69623 .59685 3.45269 232.5 80.5)"/><path fill="#282d2c" d="M169 147l-12-10-9 7z"/><path fill="#b17743" d="M49.6 18.3l1.6 6.7-37.9-41L95.9 6.4z"/><circle r="1" fill="#4d3f33" transform="matrix(34.68945 4.67188 -1.02247 7.592 20 84)"/><path fill="#272d2b" d="M205 136l21-2 15 11z"/><path fill="#bf5a2e" d="M188 65l49 2 34-21z"/><path fill="#ae5e31" d="M28.9 27.3l-22 17.9 57.7 15.3L89 68.4z"/><path fill="#f87734" d="M149 73l8-3 2 5z"/><path fill="#ff8e2e" d="M172.5 84.3l-23 .4v-3l23-.4z"/><path fill="#545249" d="M209 149h39v3h-39z"/><path fill="#56544b" d="M140 163h30v6h-30z"/><ellipse cx="176" cy="140" fill="#504f46" rx="35" ry="2"/><ellipse cx="90" cy="135" fill="#3f433c" rx="62" ry="6"/><path fill="#57534a" d="M98.9 144.3l32.9-6.1-30.5 14 24.4 5.1z"/><path fill="#534139" d="M174.8 104.1l50.1-19.8-45.9 2.5 8.1 32.9z"/><path fill="#13191b" d="M239 143l-9 4 20-1z"/><path fill="#585649" d="M164 166h91v2h-91z"/><ellipse cx="168" cy="49" fill="#de7d34" rx="59" ry="10"/><path fill="#5b554b" d="M117 153h32v3h-32z"/><path fill="#474841" d="M229.5 115l3.9 25.9 37.6 2.6-39.5-7.4z"/><path fill="#633d38" d="M170 80h9v3h-9z"/><ellipse cx="43" cy="153" fill="#171c1f" rx="24" ry="1"/><path fill="#484942" d="M15 154h32v9H15z"/><path fill="#4a4a41" d="M238 156h18v6h-18z"/><circle r="1" fill="#cb7635" transform="matrix(30.85545 -4.8529 2.4337 15.47386 110.7 36)"/><ellipse cx="177" cy="5" fill="#c78142" rx="44" ry="11"/><path fill="#131a1d" d="M58.8 162.5l.2 1-11.8 2-.2-1z"/><ellipse cx="247" cy="136" fill="#1e2322" rx="7" ry="3"/><path fill="#565249" d="M165.2 161.1l40.8-.3-43.2-13.3 12.7 8.1z"/><ellipse cx="44" cy="116" fill="#2f312e" rx="77" ry="1"/><path fill="#626053" d="M71 148h15v3H71z"/><path fill="#10181a" d="M24.6 167l-.1-1 13-1v1z"/><path fill="#545148" d="M127 136.2l35.7-4.4.3 2-35.7 4.4z"/><path fill="#43433e" d="M186.3 154.1l26.8-17.3-3.8 17.7-24.8 6.3z"/><ellipse cx="162" cy="120" fill="#55534a" rx="16" ry="2"/><path fill="#655e52" d="M206 154h17v4h-17z"/></g></g></svg>