<svg xmlns="http://www.w3.org/2000/svg" viewBox="0 0 1800 1200"><defs/><filter id="a"><feGaussianBlur stdDeviation="12"/></filter><rect width="100%" height="100%" fill="#33343e"/><g filter="url(#a)"><g fill-opacity=".5" transform="translate(3.5 3.5) scale(7.03125)"><circle r="1" fill="#f5fbff" transform="matrix(18.14384 -154.87761 234.29118 27.4471 175.3 76.8)"/><circle r="1" fill="#5b4a46" transform="matrix(.60384 36.91703 -162.22593 2.65347 78.7 123.6)"/><circle r="1" fill="#c1cddf" transform="matrix(254.78762 10.40521 -1.9786 48.44895 170 39.5)"/><path fill="#5b090e" d="M95 94l-73 47 88-3z"/><path fill="#460105" d="M162.8 18.7l9.8 10.9L168 27l-87.6 84.7z"/><ellipse cx="254" cy="144" fill="#00191d" rx="70" ry="6"/><path fill="#f1fcf9" d="M215.4 120.1l46.8-3.8-25.7-27.7 1.7-2.1z"/><circle r="1" fill="#909a9c" transform="matrix(59.32807 20.61111 -4.99781 14.38596 163 118.1)"/><path fill="#2b2725" d="M14 122h38v15H14z"/><path fill="#701b26" d="M60.8 128.1l8.1 6.5 80.5-94.4L119.6 66z"/><path fill="#baa380" d="M0 141h90v11H0z"/><ellipse cx="4" cy="154" fill="#00020b" rx="34" ry="3"/><path fill="#617184" d="M94 96h135v12H94z"/><path fill="#c8d7da" d="M-16 80.4l1 21.1 84.5 7.6-85.5-.1z"/><path fill="#031e3c" d="M24 96h26v10H24z"/><path fill="#c1cac6" d="M108 116h54v7h-54z"/><path fill="#decfb8" d="M218 130l-33-5-11-18z"/><path fill="#9bb0b6" d="M129 150h127v17H129z"/><path fill="#364c53" d="M244.9 125.8l-15.2 22.3 41.3 7.2-88.2-47.9z"/><path fill="#425966" d="M167 113h12v44h-12z"/><ellipse cx="11" cy="113" fill="#3a1626" rx="40" ry="3"/><path fill="#ff5450" d="M60 121h18v7H60z"/><circle r="1" fill="#b9c1cb" transform="rotate(163.9 114.5 30) scale(88.79315 23.61113)"/><circle r="1" fill="#acb8c7" transform="matrix(70.824 -.71974 .29074 28.6094 47.4 59.5)"/><path fill="#070e0c" d="M118 159l-6-16 13 11z"/><path fill="#45010b" d="M118.1 132.8l8.9-12 3.9 10.3-7.5 6.1z"/><path fill="#a0977f" d="M17 130l25 5 21 28z"/><path fill="#474e56" d="M169 64h3v29h-3z"/><path fill="#2b4950" d="M56 151h40v7H56z"/><path fill="#d6dddd" d="M226 81l8 41 28-3z"/><path fill="#939695" d="M84.3 165.4l-5.7-11-11.5-8.3L48.9 91z"/><path fill="#707e8f" d="M107 91h101v25H107z"/><path fill="#3a3827" d="M212 98l15 7 3-8z"/><path fill="#c7b190" d="M104 138h56v4h-56z"/><path fill="#001915" d="M71 133.5h18v7H71z"/><ellipse cx="223" cy="119" fill="#165067" rx="23" ry="2"/><circle r="1" fill="#b2bbc6" transform="matrix(2.80505 42.23209 -101.01993 6.70974 56 25.7)"/><path fill="#7e9ba6" d="M0 158h177v12H0z"/><circle r="1" fill="#7b91a8" transform="matrix(9.01375 11.75339 -22.19465 17.02122 73.3 91.7)"/><path fill="#4e3d32" d="M185.4 133.4l-3.7-10.6 13.2 8.3 31 .2z"/><path fill="#002945" d="M220 141h36v6h-36z"/><path fill="#64000d" d="M97 114.8l-3 11.6-27-7.2 3-11.6z"/><circle r="1" fill="#c3c0b2" transform="matrix(-20.34652 .49726 -.0574 -2.34865 6.3 119)"/><path fill="#785e47" d="M201.4 139.2l-17 3.3 2.1 7.4 39.2-1.1z"/><path fill="#c8b6a1" d="M112 145v-21l10-6z"/><ellipse cx="140" cy="129" fill="#121117" rx="4" ry="6"/><path fill="#b09c8b" d="M181 134h75v6h-75z"/><ellipse cx="216" cy="81" fill="#98a7ba" rx="103" ry="11"/><path fill="#c7d0d0" d="M14.8 100.6l-1.9 9.8-15.7-3 1.9-9.8z"/><path fill="#edeee9" d="M37 109.7v-3l22-.4v3z"/><path fill="#dcc3a6" d="M41 154.3v-5l18 .4v5z"/><path fill="#4b4445" d="M220 123h34v5h-34z"/><ellipse cx="40" cy="156" fill="#0c100a" rx="40" ry="1"/><path fill="#7a828f" d="M178 110h78v2h-78z"/><circle cx="98" cy="123" r="5" fill="#d67970"/><path fill="#38484d" d="M79 155h50v4H79z"/><path fill="#818693" d="M94.7 100.5l5.2 16.6 23.9-39.3-43.6 38.4z"/><circle r="1" fill="#553032" transform="matrix(1.37854 1.27208 -24.12048 26.13912 142.8 47.4)"/><path fill="#fff" d="M215 108h41v2h-41z"/><path fill="#6a7f8f" d="M24.4 46.1l.5 42.6-32.4.3 32.4 28.5z"/><path fill="#e8e8e1" d="M240.7 98.8l-.4-6.5-14.1-1.3-12.5 3.1z"/><path fill="#cfccbc" d="M109.7 151l-13 1-.4-5 13-1z"/><path fill="#a9b3c3" d="M147.9-12.8L196.7 8 186 32.8 137.3 12z"/><path fill="#404344" d="M109.4 130.9l6.3-2-18.1 15.7 5.2-36.6z"/><path fill="#dde4e7" d="M58.8 145l.2-1 30.2 7-.2 1z"/><ellipse cx="55" cy="75" fill="#9ca9bb" rx="54" ry="12"/><path fill="#1a3c54" d="M57 145v5h16z"/><circle cx="48" cy="137" r="4"/><path fill="#533a46" d="M51 113l-29 23 41-7z"/><ellipse cx="7" cy="124" fill="#252427" rx="44" ry="2"/><path fill="#a39e89" d="M-16 151.9l31.8-34.7-4.6 22.7-1.6-8.9z"/><path fill="#826847" d="M105 142h56v8h-56z"/><path fill="#c2ac92" d="M147 133h14v9h-14z"/><path fill="#b3b3ab" d="M194 111l-17 3 40 15z"/><path fill="#4b627a" d="M246.1 138.9l2.7 6.9 22.2-17.2-5.8-13.5z"/><path fill="#313231" d="M12 141.9l31.9-2.8v1l-31.8 2.8z"/><path fill="#83888e" d="M167 24h5v52h-5z"/><circle r="1" fill="#b3bdc8" transform="matrix(.31535 19.46354 -79.73278 1.29182 220.9 51.9)"/><path fill="#596166" d="M149.7 130.6l34.9 9.7-15.6-18h10.5z"/><ellipse cx="245" cy="114" fill="#f3ede7" rx="27" ry="3"/><circle r="1" fill="#b0b5b0" transform="matrix(-3.19979 -23.8772 .99114 -.13282 181.7 134.3)"/><path fill="#817a69" d="M56.1 136l43.2 18.8-31.9-21.6-29.5 25.9z"/><path fill="#94694e" d="M213 139l8 6-1 9z"/><path fill="#2f4246" d="M100.3 131.3l-6.7-8.6-2.2 16.9h20.4z"/><path fill="#540003" d="M94 92l16-9-12 14z"/><ellipse cx="47" cy="92" fill="#66788a" rx="47" ry="4"/><circle cx="126" cy="132" r="8" fill="#593938"/><path fill="#8895a2" d="M213.4 118l-4.7-20.6 5.9-1.3 4.7 20.5z"/><path fill="#acb3ba" d="M132 152h32v9h-32z"/><path fill="#020004" d="M213 131h6l-3-3z"/><path fill="#5d6268" d="M175.2 67.6l-6.9 1.3 4.2 29.3-1.5-30z"/><circle cx="113" cy="138" r="7" fill="#a79a88"/><path fill="#b6c6cc" d="M229.8 123.1l22.8-2.3 3.9-.3-33.2-.2z"/><path fill="#b0a28c" d="M131 117h6v28h-6z"/><ellipse cx="23" cy="135" fill="#1e2119" rx="38" ry="1"/><ellipse cx="29" cy="143" fill="#c6ad90" rx="35" ry="2"/><path fill="#991b25" d="M0 110h13v6H0z"/><path fill="#aab79f" d="M80 125h7v3h-7z"/><ellipse cx="139" cy="94" fill="#6a798c" rx="37" ry="7"/><path fill="#b4aa99" d="M146.3 130.6l17-4.9.3-11.1-20.3 15.6z"/></g></g></svg>