<svg xmlns="http://www.w3.org/2000/svg" viewBox="0 0 1800 1200"><defs/><filter id="prefix__a"><feGaussianBlur stdDeviation="12"/></filter><rect width="100%" height="100%" fill="#4a493c"/><g filter="url(#prefix__a)"><g transform="translate(3.5 3.5) scale(7.03125)"><circle cx="175" cy="6" r="182" fill="#5c9fb1" fill-opacity=".5"/><path fill="#fff6ed" fill-opacity=".5" d="M168.9 167.4l-20.7 38.9-67-35.7 20.6-38.9z"/><path fill="#e9e7ff" fill-opacity=".5" d="M271 42L121 52 265 2z"/><ellipse cx="70" cy="76" fill="#1e0000" fill-opacity=".5" rx="19" ry="22"/><circle r="1" fill="#079277" fill-opacity=".5" transform="matrix(-132.41325 -2.6608 .84268 -41.93573 85.2 2.5)"/><ellipse cx="216" cy="63" fill="#3f311b" fill-opacity=".5" rx="59" ry="20"/><circle r="1" fill="#585252" fill-opacity=".5" transform="matrix(38.3269 39.17294 -24.75845 24.22373 49 134.5)"/><ellipse cx="228" cy="112" fill="#2f4577" fill-opacity=".5" rx="74" ry="39"/><path fill="#cbb4b1" fill-opacity=".5" d="M82 87l22 93 9-94z"/><path fill="#ddd9d0" fill-opacity=".5" d="M158 56l51-34-108 34z"/><circle r="1" fill="#005a4e" fill-opacity=".5" transform="matrix(-1.50874 -4.25712 96.82111 -34.31387 234.2 6.7)"/><path fill="#584e2e" fill-opacity=".5" d="M84 60h149v17H84z"/><path fill="#eedbd9" fill-opacity=".5" d="M202.1 168.9l-57.7-7-58.5-44.2 65.3 67.3z"/><circle r="1" fill="#9bb99f" fill-opacity=".5" transform="rotate(-79.3 43.6 16.3) scale(7.34378 39.91008)"/><path fill="#262a14" fill-opacity=".5" d="M60 39h13v88H60z"/><path fill="#26497c" fill-opacity=".5" d="M142 73l-42 30 142 7z"/><circle r="1" fill="#236b5d" fill-opacity=".5" transform="rotate(125.5 11.4 6.5) scale(33.24433 71.51701)"/><circle r="1" fill="#6d7389" fill-opacity=".5" transform="matrix(-12.41567 18.06896 -41.10361 -28.2434 146.4 136.3)"/><circle r="1" fill="#3faa9b" fill-opacity=".5" transform="rotate(-19.6 145.9 -406.3) scale(73.22808 10.64747)"/><circle r="1" fill="#475964" fill-opacity=".5" transform="matrix(-11.43722 -39.68297 24.00353 -6.91817 24.5 102.3)"/><path fill="#e6b79b" fill-opacity=".5" d="M126.9 90.8l-54.3 12.1 12.9-7.1 26.9-10.3z"/><circle r="1" fill="#6f7978" fill-opacity=".5" transform="rotate(87.4 -76.3 97.2) scale(56.8077 8.73246)"/><path fill="#bcb1b0" fill-opacity=".5" d="M51 105.8l13.9-3.9-17-21.9 6.5 28.1z"/><path fill="#616065" fill-opacity=".5" d="M85.2 103.8l38.3 18.4-53.9 5.7L74 84.1z"/><path fill="#c4cbd5" fill-opacity=".5" d="M262.4 26l-20.1-1.2-37.8 19.8 62.4 3.4z"/><circle r="1" fill="#fff" fill-opacity=".5" transform="matrix(-1.78807 -3.8333 10.32682 -4.81704 105 164.7)"/><path fill="#dfe1de" fill-opacity=".5" d="M83.6 145.4l13.8-7.3 61.3 37.2-62.4-49.9z"/><path fill="#4f7bb9" fill-opacity=".5" d="M186.3 26.2l19.2 8.3L271 2.4l-16.3 23.1z"/><path fill="#37ac96" fill-opacity=".5" d="M-2.2 35.8L49 49.5l-2.8 10.7L-5 46.5z"/><path fill="#46434e" fill-opacity=".5" d="M89.9 185h38l-9.8-20.6-8.6 1.4z"/><circle r="1" fill="#bbaba8" fill-opacity=".5" transform="matrix(.11494 -.99337 70.91188 8.20478 218 159)"/><path fill="#cbbda3" fill-opacity=".5" d="M246.5 124.4l-50.7-7.8 19.2 1 13.9 2.3z"/><path fill="#264569" fill-opacity=".5" d="M136.5 155.3l1-5.9 64 11.3-1 5.9z"/><path fill="#86745d" fill-opacity=".5" d="M120.3 61.4l-2-14.5-44.8 69.7L91 54.7z"/><path fill="#006658" fill-opacity=".5" d="M128 42.2L76.5 58.6l47.1-8.5L261.8-3.6z"/><ellipse cx="191" cy="80" fill="#325c91" fill-opacity=".5" rx="96" ry="4"/><path fill="#1e1c14" fill-opacity=".5" d="M60 156l-8 15 37-10z"/><circle r="1" fill="#b2aaa5" fill-opacity=".5" transform="matrix(-.16677 .986 -105.58413 -17.85822 199.4 157.9)"/><path fill="#868f91" fill-opacity=".5" d="M181 125l-39-18 64 9z"/><path fill="#54583f" fill-opacity=".5" d="M170 52.3l58 3.1-119.7 22.4L147.7 55z"/><path fill="#4b3d27" fill-opacity=".5" d="M45 75l-46 1-15-20z"/><path fill="#ede4fc" fill-opacity=".5" d="M-16 53l32 6-32 4z"/><path fill="#4b3b2c" fill-opacity=".5" d="M98.8 64.5l-42.3 73.4L24.8 163l58.8-91.6z"/><path fill="#e8d5b9" fill-opacity=".5" d="M122 107.2l7 39.4-1 .2-7-39.4z"/><path fill="#86735f" fill-opacity=".5" d="M120.5 155.6l-5.5-11.2-13.9 14.1 11.8-.8z"/><path fill="#183a5d" fill-opacity=".5" d="M271 124l-81-11 81-11z"/><path fill="#2e1a05" fill-opacity=".5" d="M66 146l19-4-21-4z"/><path fill="#007565" fill-opacity=".5" d="M213 19l10-35 45 17z"/><path fill="#1c2e39" fill-opacity=".5" d="M14 152l-22-5 20-42z"/><path fill="#131505" fill-opacity=".5" d="M85.4 63.6L59.7 79l-5.1-8.6L80.3 55z"/><path fill="#9d7d6d" fill-opacity=".5" d="M86.8 114.5l-55 54.9 17.7-28 22.8-4.5z"/><path fill="#c5a590" fill-opacity=".5" d="M53 61l-2 9-26-8z"/><path fill="#141d1e" fill-opacity=".5" d="M189 73h67v4h-67z"/><path fill="#ccc1af" fill-opacity=".5" d="M109.4 136.5L91.9 78.8l.5-9.7 7 25.7z"/><path fill="#315592" fill-opacity=".5" d="M0 77h47v12H0z"/><path fill="#a2a7a8" fill-opacity=".5" d="M192.1 158.3l-65.6-32 1.4-2.6 65.6 32z"/><circle r="1" fill="#9c9c98" fill-opacity=".5" transform="matrix(-.14949 .98876 -73.69521 -11.14186 147 109.3)"/><path fill="#edf0ed" fill-opacity=".5" d="M137.1 182.9l-13-38.1 13 15.7 89.7 24.5z"/><path fill="#fff" fill-opacity=".5" d="M95 166.5l30.9-11.8 1 2.8-30.8 11.8z"/><path fill="#18416b" fill-opacity=".5" d="M166.1 144.3l-15.4-3.6-27.7 2.2 51 7.8z"/><circle r="1" fill="#c2c7ca" fill-opacity=".5" transform="rotate(-109 91.4 -27) scale(4.81884 19.35364)"/><ellipse cx="211" cy="50" fill="#5b624a" fill-opacity=".5" rx="40" ry="6"/><path fill="#5d6871" fill-opacity=".5" d="M95.4 165.8l-7.3 15.8-102.6-35.3 9.6 32z"/><path fill="#cdd8e4" fill-opacity=".5" d="M216.8 45.8l-5.8-.3-6.2.1 18.6-27.1z"/><path fill="#5f8381" fill-opacity=".5" d="M-16 100l54 2-39 9z"/><path fill="#6f8ebe" fill-opacity=".5" d="M227 37l-14-10 34-15z"/><path fill="#ad998d" fill-opacity=".5" d="M214.9 176.4l-27.8-10.3-58.4-15.7 19.4 14.6z"/><path fill="#486070" fill-opacity=".5" d="M224.7 122.9l-4.3 24.6-59.1-10.4 4.3-24.6z"/><path fill="#787b82" fill-opacity=".5" d="M83 130h11v31H83z"/><circle r="1" fill="#1a2926" fill-opacity=".5" transform="matrix(.25708 -1.66633 47.8866 7.38782 0 89.4)"/><path fill="#348876" fill-opacity=".5" d="M60 16h36v41H60z"/><path fill="#294d74" fill-opacity=".5" d="M103 96h39v9h-39z"/><path fill="#dfbd9f" fill-opacity=".5" d="M81 94l8 9 36-18z"/><path fill="#4174ba" fill-opacity=".5" d="M210 27l-24 14 26-6z"/><path fill="#b6abac" fill-opacity=".5" d="M188.2 154.3l.3-1 47.3 16.4-.3 1z"/><path fill="#2c3d62" fill-opacity=".5" d="M193 164h25v6h-25z"/><circle r="1" fill="#45566a" fill-opacity=".5" transform="matrix(.25125 14.39397 -47.6512 .83175 241 145.2)"/><path fill="none" stroke="#ada59c" stroke-opacity=".5" stroke-width=".5" d="M114.5 129.2Q211.7 151 271 164.5"/><path fill="#496478" fill-opacity=".5" d="M70 109h31v14H70z"/><path fill="#97a6ae" fill-opacity=".5" d="M70 129l11-5-14 15z"/><path fill="#4aa599" fill-opacity=".5" d="M141.3.1L76 30.6l-1.3-2.7L140-2.6z"/><ellipse cx="255" cy="29" fill="#d7dee6" fill-opacity=".5" rx="21" ry="6"/><path fill="#274c79" fill-opacity=".5" d="M145.1 92.2l-24.9 5.2.3-20.9 15.8 2z"/><path fill="#8f6f62" fill-opacity=".5" d="M-16 12.2l4.8 32.8 55.4 19.9-43.3-8z"/><circle r="1" fill="#cbcdb7" fill-opacity=".5" transform="rotate(77.8 8.6 86.9) scale(1 7.45018)"/><path fill="#6d6147" fill-opacity=".5" d="M6.2 67.8L7.8 61l40 9.2-1.6 6.8z"/><circle r="1" fill="#1b6559" fill-opacity=".5" transform="rotate(-106.3 11.4 -8.5) scale(20.01424 44.09534)"/><path fill="#465347" fill-opacity=".5" d="M173.7 65.4l9-19.5 15.1-1.9L233 79.7z"/><path fill="#d7d8d5" fill-opacity=".5" d="M106.9 184.3l-16.6-64.7 12.1 11.2-12.2 54z"/><path fill="#333520" fill-opacity=".5" d="M235 56h21v13h-21z"/><path fill="#c4ced5" fill-opacity=".5" d="M176.2 49.7L199.9 31l-14.3 3.1-35.3 20.7z"/><path fill="#98a1b0" fill-opacity=".5" d="M56.4 95.9l-41-8.8.2-1 41 8.8z"/><path fill="#005752" fill-opacity=".5" d="M247.2-4.3l-69 31.6 19.8-3.6L261.3-1z"/><circle r="1" fill="#309589" fill-opacity=".5" transform="matrix(69.28756 -15.61463 1.79706 7.9742 194.3 4.8)"/><path fill="#d0d1d2" fill-opacity=".5" d="M135 58l-19-6 26-7z"/><path fill="#a59f91" fill-opacity=".5" d="M237 122h19v3h-19z"/><path fill="#58b8a7" fill-opacity=".5" d="M159.3 28.7l-78 28.4-.6-1.8 78-28.4z"/><path fill="#1e281f" fill-opacity=".5" d="M63.1 105.1l-.9 7 8.2 18.8-14.3-7.2z"/><path fill="#47668e" fill-opacity=".5" d="M202 81h54v19h-54z"/><path fill="#3d8475" fill-opacity=".5" d="M-16 30.6l4.7-6.6 55.6 6.5L57.4 57z"/></g></g></svg>