<svg xmlns="http://www.w3.org/2000/svg" viewBox="0 0 1800 1200"><defs/><filter id="a"><feGaussianBlur stdDeviation="12"/></filter><rect width="100%" height="100%" fill="#313949"/><g filter="url(#a)"><g fill-opacity=".5" transform="translate(3.5 3.5) scale(7.03125)"><circle r="1" fill="#d7dddb" transform="matrix(-248.10156 58.91193 -14.91944 -62.8317 136.3 25.5)"/><circle r="1" fill="#cfcec9" transform="matrix(44.70126 8.90426 -16.59535 83.3122 10.6 101.7)"/><ellipse cx="128" cy="94" fill="#21190d" rx="59" ry="34"/><ellipse cx="236" cy="74" fill="#b0b7ba" rx="41" ry="22"/><circle r="1" fill="#e4e1dc" transform="rotate(-31.7 109.3 14) scale(27.94454 42.26)"/><path fill="#51585f" d="M6 202l-22.3-68.5L56 110l22.3 68.5z"/><circle r="1" fill="#606e80" transform="matrix(51.5889 -13.054 6.2065 24.52782 143.6 53.1)"/><circle r="1" fill="#2d2923" transform="matrix(-6.89026 -25.07723 31.69424 -8.70836 101.5 102.2)"/><path fill="#1e1a14" d="M44.7 114.5l5.5-.3 62.8 12.9-101 4.7z"/><circle r="1" fill="#a5adb5" transform="matrix(20.13747 80.7882 -24.56263 6.12254 239 0)"/><ellipse cx="167" cy="102" fill="#2f2a20" rx="51" ry="27"/><ellipse cx="58" cy="83" fill="#cbc8bd" rx="14" ry="18"/><ellipse cx="44" cy="11" fill="#637588" rx="37" ry="20"/><circle r="1" fill="#586067" transform="matrix(-34.2945 5.09031 -2.8188 -18.9909 250 140.6)"/><circle r="1" fill="#dad9d6" transform="matrix(33.0112 -12.93083 3.92696 10.02516 24.4 50.1)"/><ellipse cx="51" cy="60" fill="#636d77" rx="16" ry="7"/><circle r="1" fill="#6f7681" transform="matrix(-6.34274 -12.20806 29.24818 -15.196 41 147.8)"/><circle r="1" fill="#6b7583" transform="matrix(-45.19753 -6.11095 2.03611 -15.0594 124.5 63.8)"/><path fill="#58626e" d="M213 98l-34-29 92 22z"/><ellipse cx="191" cy="42" fill="#69737f" rx="64" ry="11"/><path fill="#8a8c91" d="M39 166l-29-35-26 34z"/><path fill="#353433" d="M189 90L63 127l12-55z"/><ellipse cx="243" cy="62" fill="#989c9f" rx="68" ry="13"/><ellipse cx="193" cy="119" fill="#2a2317" rx="40" ry="10"/><circle r="1" fill="#9ea8b2" transform="rotate(-76.6 120.6 -141) scale(16.28585 84.00715)"/><path fill="#9c9e9e" d="M5 88h57v21H5z"/><path fill="#cfcfcc" d="M74.7 91.2L31.4 61.3 1.1 7.4l-11.8 57z"/><path fill="#626b77" d="M149 41l37 34-98-6z"/><circle r="1" fill="#3d4a56" transform="rotate(179.7 73 70.2) scale(92.69173 10.60408)"/><path fill="#141f30" d="M0 168h76v2H0z"/><path fill="#828c96" d="M20 33L-8-1l96 25z"/><path fill="#3a3632" d="M106.3 131L95.4 84.8 19.6 130l125.6-10.4z"/><circle r="1" fill="#7b8a9c" transform="matrix(.16878 -10.73395 18.93164 .29769 24.5 111.6)"/><circle r="1" fill="#728293" transform="rotate(-70.5 59.2 -76.6) scale(27.77421 59.12949)"/><path fill="#7b8792" d="M82 67l52 14-64-61z"/><path fill="#4a535e" d="M80.7 142.7l.8 4-78.2 16.6-.8-4z"/><path fill="#425263" d="M0 128h65v4H0z"/><path fill="#767d85" d="M161.3 57.4l63.4 17.4-29.5 7.9-16.8-4.2z"/><path fill="#98a0a6" d="M35 28l29-5 6 28z"/><path fill="#c6c4bf" d="M66.5 80L35.4 98.4-9.9 74.8 60.7 67z"/><circle r="1" fill="#a9a9a5" transform="matrix(-7.2555 -13.30737 9.72824 -5.30408 59.5 89)"/><path fill="#111313" d="M23 124h65v4H23z"/><ellipse cx="119" cy="127" fill="#101617" rx="76" ry="2"/><ellipse cx="165" cy="93" fill="#2f2f30" rx="43" ry="16"/><path fill="#2b3741" d="M233 171l-96-31-110 34z"/><path fill="#616975" d="M247 129h9v22h-9z"/><path fill="#7e8187" d="M49.9 164.1L-16 121v30.4l62.1 12.2z"/><path fill="#3d4144" d="M237.5 135.5l-24.8-35.2 42.4-6.5 15.9 23.9z"/><path fill="#697787" d="M20 0l3 29L99-5z"/><path fill="#101c2c" d="M41 153h11v3H41z"/><path fill="#7f858c" d="M32 67l23-20 6 18z"/><path fill="#a7a7a9" d="M9 162h20v5H9z"/><ellipse cx="138" cy="123" fill="#45413c" rx="52" ry="2"/><path fill="#bcc0c1" d="M246.5 8.4L256 5l7.6 20.6L254 29z"/><circle cx="69" cy="72" r="7" fill="#a3a7a6"/><path fill="#2e2d2b" d="M94 75h20v39H94z"/><path fill="#94979a" d="M31.2 139.9L.7 141.3l-6.7 2.2 45.9-1.8z"/><path fill="#423f3d" d="M73 77h18v46H73z"/><path fill="#c8c7c4" d="M69.9 85.2L18.4 74.7l50.1-39.8L15.1 54z"/><path fill="#788798" d="M36 117l-24 9-28-26z"/><ellipse cx="247" cy="62" fill="#9ca1a5" rx="54" ry="9"/><path fill="#404d5b" d="M60 130h29v29H60z"/><circle r="1" fill="#87929d" transform="matrix(2.78888 -6.17669 108.07638 48.79836 187.6 11.9)"/><path fill="#403a36" d="M74.7 126.5L71.3 98 35 126.4l-4.3-5.1z"/><path fill="#76808c" d="M162.4 14.9L271 52.4l-26.2-12-23.4 19.1z"/><ellipse cx="225" cy="86" fill="#616b76" rx="19" ry="11"/><path fill="#292622" d="M239 127l-63-28 9 28z"/><circle r="1" fill="#a8abad" transform="matrix(3.27087 -1.99655 8.61391 14.11186 9.2 20.3)"/><path fill="#3e4853" d="M238.3 162.7l-48.9-3.4 2.3-32 48.9 3.4z"/><path fill="#d3d4d3" d="M38 82l-52-98-2 62z"/><path fill="#5a6470" d="M156.3 75.9l-38.9-4.6 1.8-13.2 36.5-9.8z"/><path fill="#3b3939" d="M175 103l-20-29 30 4z"/><path fill="#d3d1cf" d="M1.6 58.8l34.7-29L49 45.4 10.8 61.8z"/><path fill="#9c9fa2" d="M0 134h20v3H0z"/><ellipse cx="53" cy="164" fill="#212d3d" rx="20" ry="2"/><path fill="#9a9c9d" d="M62.5 91.1l8.2 7.7-30.8 19.6 7.3-33.9z"/><path fill="#3a3937" d="M125.7 106.7L89.9 71l-14 3.7-.6 20z"/><path fill="#202832" d="M116 166h63v4h-63z"/><path fill="#b9b8b4" d="M-16 84.5l2.7 14.2 65.3.4-25.7-16.8z"/><ellipse cx="55" cy="138" fill="#3c4756" rx="51" ry="1"/><path fill="#97a0a6" d="M80.8 39.4L50.5 49.9l3-4.1-2.2-13.5z"/><path fill="#b4b3b2" d="M26.9 146l-8-1 .2-1 8 1z"/><path fill="#28261e" d="M197 119l-107 1 39-21z"/><path fill="#404750" d="M-7 126h21l-19 10z"/><ellipse cx="25" cy="160" fill="#5d646f" rx="48" ry="2"/><path fill="#302f2f" d="M101 81h36v14h-36z"/><path fill="#68707c" d="M271 93l-60 2 60-32z"/><path fill="#394452" d="M26 146h33v2H26z"/><path fill="#182230" d="M38 152h9v3h-9z"/><path fill="#58616d" d="M14 128h26v5H14z"/><path fill="#636975" d="M57.3 149.9l-23.6-3.7 16.9 7.1 27.7-2.6z"/><circle r="1" fill="#86898e" transform="matrix(.57511 -1.58964 20.76947 7.51415 21.6 156.2)"/><path fill="#868b8f" d="M170 53h23v15h-23z"/><circle cx="64" cy="83" r="6" fill="#c6c4bd"/><path fill="#4a443f" d="M67.8 111.1l12.3-15.4-36.2 19.2-1.9 2.9z"/><path fill="#262524" d="M198 84l11 11-6 20z"/><path fill="#323c4b" d="M79 139h49v31H79z"/><path fill="#757c85" d="M28 132h27v5H28z"/><path fill="#8f979d" d="M63 74l22-26-7 26z"/><path fill="#87949d" d="M102 44L93-3 83 35z"/></g></g></svg>