<svg xmlns="http://www.w3.org/2000/svg" viewBox="0 0 1995 1330"><defs/><filter id="a"><feGaussianBlur stdDeviation="12"/></filter><rect width="100%" height="100%" fill="#29404a"/><g filter="url(#a)"><g fill-opacity=".5" transform="translate(3.9 3.9) scale(7.79297)"><circle r="1" fill="#fff" transform="rotate(94.3 74 101.2) scale(42.1414 244.73675)"/><circle r="1" fill="#dbf8ff" transform="matrix(254.99993 .18863 -.02212 29.90428 152.3 22.9)"/><circle r="1" fill="#5d7b8c" transform="matrix(-215.69366 -.12744 .0285 -48.24343 93.2 96.7)"/><circle r="1" fill="#fbfeff" transform="rotate(-168.7 52.7 7.8) scale(48.9525 16.35579)"/><circle r="1" fill="#4d6d91" transform="matrix(-119.71569 -10.64856 1.44654 -16.26267 183.8 78.4)"/><path fill="#4071d0" d="M-16-15L42 5 27 20z"/><circle r="1" fill="#9fbff1" transform="matrix(-8.17896 26.11983 -106.79534 -33.44104 194.4 24.6)"/><circle r="1" fill="#3f564c" transform="matrix(176.45101 3.05614 -.34554 19.95025 86.5 133.7)"/><path fill="#e7ecff" d="M50.9 44.9L-16-12l2 32.5-2 15.6z"/><ellipse cx="146" cy="53" fill="#8fadd3" rx="106" ry="7"/><circle r="1" fill="#4f666a" transform="matrix(96.41907 8.38422 -2.01725 23.19854 70.6 80.7)"/><path fill="#517fbf" d="M135 10L72-4l78-12z"/><path fill="#dbe5ec" d="M162.4 20.1l65.7-4.9-31.9 37.3 74.8-7.1z"/><circle r="1" fill="#5a76a0" transform="rotate(-92.2 144.8 -66.3) scale(18.33119 70.96559)"/><circle r="1" fill="#193741" transform="matrix(45.10188 -35.87566 16.14267 20.29412 135.9 169)"/><circle r="1" fill="#596946" transform="matrix(33.89317 -7.30548 3.34881 15.53653 104.8 132.7)"/><circle r="1" fill="#617aa4" transform="rotate(-80.8 35.5 24.7) scale(4.89947 48.13213)"/><path fill="#769dd5" d="M180 8h53v8h-53z"/><circle r="1" fill="#fffffd" transform="matrix(23.54123 2.72437 -.82695 7.14569 129.5 33.1)"/><circle r="1" fill="#c9d8f3" transform="matrix(-15.0651 -11.16152 26.53615 -35.81678 245 4.5)"/><path fill="#b2c4e9" d="M67.8 50.9l-7.9-61.4-31.5 29.1L32 53.4z"/><circle r="1" fill="#2f4b5d" transform="matrix(63.05764 -2.0597 .60028 18.3777 205 137.3)"/><path fill="#e8effc" d="M91.2 50.4L59.3 20.5 95.1.3l6.9 9.2z"/><path fill="#586e7c" d="M105 89l-83 44-3-26z"/><circle r="1" fill="#485956" transform="matrix(-.40645 -16.63102 69.9478 -1.70949 5.2 90.8)"/><ellipse cx="244" cy="58" fill="#789ac2" rx="150" ry="6"/><path fill="#5782c0" d="M161.1 3.6L126.4.9 100.5-16l82 10.1z"/><path fill="#546e7e" d="M114.1 104.4l66.8-34.1 90.1 30-124.8 1.6z"/><ellipse cx="33" cy="47" fill="#a8b7ca" rx="170" ry="5"/><path fill="#ecf2ed" d="M242 42l-49 1 37-12z"/><ellipse cx="80" cy="67" fill="#405d73" rx="60" ry="7"/><circle r="1" fill="#84bce3" transform="rotate(-90.2 110.1 -75.6) scale(5.7656 25.34774)"/><path fill="#739bd5" d="M36 22l-25-5-4-33z"/><ellipse cx="125" cy="169" fill="#1b2e36" rx="74" ry="12"/><path fill="#ecf3f3" d="M120 46l25-25-15-10z"/><path fill="#d0dbe7" d="M32 43l36-18 35 21z"/><path fill="#8c8e7e" d="M87 148l-13-7-2-10z"/><path fill="#ebf3f9" d="M28 20l8 19-52-15z"/><ellipse cx="3" cy="150" fill="#414941" rx="16" ry="39"/><circle r="1" fill="#4a5c48" transform="rotate(31.5 -187.4 212.2) scale(29.01437 13.38301)"/><path fill="#7fa5d7" d="M194-16l10.4 30.7-32.2 3.6 41-34.3z"/><path fill="#92b6da" d="M269.5 57.2l-39.7-31.6 22.7.9L271 47.6z"/><path fill="#a9b1a2" d="M156 99l-13-3 5-3z"/><path fill="#c0c0a7" d="M100 89h8v3h-8z"/><path fill="#6d7b7a" d="M197 142l-2 7-11-6z"/><path fill="#90b3d8" d="M119 27l-6-22 20 2z"/><circle r="1" fill="#b1c6eb" transform="rotate(-120.8 37.7 -19.8) scale(7.47196 57.26706)"/><ellipse cx="228" cy="11" fill="#82a6d5" rx="10" ry="4"/><ellipse cx="161" cy="50" fill="#94aec6" rx="43" ry="6"/><path fill="#d1def3" d="M148 8l36-8-15 12z"/><path fill="#54717f" d="M70 93l23 30 6-25z"/><path fill="#33596d" d="M123 117l91 10-47-30z"/><ellipse cx="187" cy="23" fill="#b9d2ed" rx="50" ry="7"/><path fill="#697958" d="M152 125l-8 9-18-15z"/><path fill="#dfe8e5" d="M184 42h20v5h-20z"/><path fill="#526c88" d="M66.5 57.9l-1.4 13L1.5 64l1.4-13z"/><circle r="1" fill="#3a4e5c" transform="rotate(64.1 -66.4 46.5) scale(15.36503 22.63095)"/><path fill="#586d7a" d="M48 124l-5-30-34 16z"/><path fill="#526967" d="M26 77h121v10H26z"/><path fill="#39525e" d="M27 124l-29 26 91-1z"/><path fill="#feffff" d="M84 1l6 19 8-13z"/><path fill="#95b7df" d="M44 38l11-14-29-4z"/><circle cx="75" cy="128" r="2" fill="#bac5b6"/><path fill="#c2d1f3" d="M196 10l31-26 30 18z"/><circle r="1" fill="#516b8c" transform="matrix(-4.11074 11.44177 -48.19169 -17.31408 230.5 90)"/><path fill="#fcfffd" d="M109 32l3.3-11.2 14.5 15.4-8.3 11.2z"/><ellipse cx="226" cy="158" fill="#2f3946" rx="35" ry="17"/><path fill="#84acdb" d="M148 14h46v4h-46z"/><path fill="#86a8d5" d="M131.2 1.8L51-4.2l83.5 16 24.4 6.1z"/><path fill="#586456" d="M157 97h67v5h-67z"/><path fill="#5a7685" d="M150 67l-44 5 75 20z"/><path fill="#738fae" d="M124.6 50.1l-.4 11.2 47.7 6.6-37.2-20.4z"/><path fill="#40585b" d="M67 80h141v2H67z"/><path fill="#d3dff1" d="M96.2 34L62.7 18.8l13.7-9.2L11.3-16z"/><path fill="#cfc8b0" d="M73.7 139.3l.8-.5 3.8 5.9-.8.5z"/><ellipse cx="9" cy="86" fill="#6a7a77" rx="25" ry="2"/><circle r="1" fill="#b0c3d5" transform="matrix(-2.92466 2.6988 -3.42007 -3.7063 107.9 40.6)"/><path fill="#2f4d4f" d="M109.6 149.8l-2.4-7.1 20.7-4.3 64.5 6.9z"/><path fill="#a7bde2" d="M80.9 9.9L52.6 0-15 1.8 101.1-16z"/><ellipse cx="233" cy="48" fill="#c1cbd4" rx="41" ry="4"/><path fill="#f3f9f7" d="M110.6 20.5l-5.8-9.4 2.6-1.6 5.8 9.4z"/><path fill="#5a6e53" d="M107 110h15v31h-15z"/><path fill="#425b51" d="M104.1 96.1l11.7-12.7 11.6 13.4-63.5-12.1z"/><path fill="#e1e5f8" d="M259.6 10.1l-18-1.2.8-11 18 1.2z"/><path fill="#b4cce9" d="M97 28l11-13 11 4z"/><path fill="#d4e1e9" d="M145 38h26v4h-26z"/><path fill="#bccdec" d="M18.5 21.6l-34.5-.5 20.9-2.7L1-5.3z"/><path fill="#fdfff8" d="M223 37l14 9-3-12z"/><path fill="#495b47" d="M79.4 122.3l-5.6 12.6 31.4 27.2 8.2-38.4z"/><path fill="#677d7d" d="M92.4 77.1L78 97l3.1-12.4 9.8 4.7z"/><path fill="#9ac1e1" d="M186.6 27.8l-34.4 9.3-6.8-17.1-4.4 12.2z"/><path fill="#a3b4c2" d="M80.9 48.3L53.1 57 47 46.5 41.3 40z"/><circle r="1" fill="#627fab" transform="matrix(67.35794 5.9644 -.4281 4.8346 217.6 66.7)"/><ellipse cx="29" cy="7" fill="#7194ca" rx="15" ry="5"/><path fill="#4c6c7e" d="M162.2 104.8l-19.6-9.4-22.2 2.3 50 20.5z"/><path fill="#2f3f38" d="M10 184l-26-24 89-1z"/><circle r="1" fill="#babcb3" transform="rotate(27.1 -228.9 150.8) scale(2.92665 1)"/><path fill="#5e7b9f" d="M17.9 50.6l85.6 12.3-99.4-7.6-5.4-3.1z"/><path fill="#a1bbe2" d="M230.2 11.4L165.8-1.4l12-14.6L271 21.1z"/><path fill="#3e5871" d="M265.4 140.1l-12.7-41.5-66.6 3.2 36.5 23.5z"/></g></g></svg>