<svg xmlns="http://www.w3.org/2000/svg" viewBox="0 0 1800 1200"><defs/><filter id="a"><feGaussianBlur stdDeviation="12"/></filter><rect width="100%" height="100%" fill="#453737"/><g filter="url(#a)"><g fill-opacity=".5" transform="translate(3.5 3.5) scale(7.03125)"><circle r="1" fill="#9bc9da" transform="matrix(178.44146 50.15763 -34.9675 124.40084 121.4 95.6)"/><circle r="1" fill="#6fc3f8" transform="matrix(206.24341 -.93302 .1691 37.3803 121.6 149)"/><ellipse cx="128" cy="97" fill="#351a0e" rx="122" ry="16"/><circle r="1" fill="#6f6153" transform="matrix(-110.8831 -3.48464 2.06759 -65.79174 193.7 29.6)"/><ellipse cx="139" cy="119" fill="#eac3a9" rx="255" ry="7"/><circle r="1" fill="#958677" transform="matrix(68.74056 17.87208 -8.7122 33.50934 67.2 56.7)"/><path fill="#dbd7ce" d="M219 104h37v12h-37z"/><ellipse cx="152" cy="160" fill="#499acd" rx="255" ry="32"/><path fill="#372a28" d="M102.4 97l-20.3 16.6-70.7-1.8L32.3 93z"/><ellipse cx="161" cy="95" fill="#2f262a" rx="65" ry="8"/><path fill="#d6d0c4" d="M0 101h19v17H0z"/><path fill="#82817a" d="M118 35h51v56h-51z"/><circle cx="36" cy="9" r="53" fill="#95918a"/><ellipse cx="142" cy="118" fill="#b4b5b6" rx="37" ry="10"/><ellipse cx="244" cy="48" fill="#5f6160" rx="39" ry="57"/><path fill="#66625d" d="M107 91l-86-3 36-33z"/><path fill="#473937" d="M210 111l-34-46 3 47z"/><path fill="#877869" d="M-8.9 58l32.5 5.7L17 102l-32.5-5.8z"/><path fill="#352f32" d="M109 85l-22 15 81 8z"/><path fill="#291f1f" d="M20 107h41v5H20z"/><path fill="#b1c5d9" d="M63 123h183v4H63z"/><path fill="#4d514f" d="M126 35l2-43-25-8z"/><ellipse cx="65" cy="128" fill="#88999e" rx="65" ry="3"/><ellipse cx="149" cy="76" fill="#7c7a75" rx="34" ry="16"/><path fill="#595d5c" d="M143 46.4l2.5-13.8 39.4 7-2.4 13.8z"/><path fill="#72675d" d="M113 46l23 7-68 24z"/><path fill="#a7abaa" d="M271 103.8l-30.9 24.7-14.6-28.2-14.2 8.4z"/><path fill="#a5a49e" d="M129.1 108.9l91.8 8.6-96.8 5.6 1-5.6z"/><path fill="#606768" d="M44 41l4-15-20-3z"/><path fill="#1b1a20" d="M118 95h58v5h-58z"/><path fill="#76635d" d="M43 107l-4-11 27 11z"/><path fill="#5a5d56" d="M114 12L79-7l20 30z"/><path fill="#4c3f3e" d="M171 100h47v13h-47z"/><path fill="#746a69" d="M176 104h18v7h-18z"/><circle r="1" fill="#4590bd" transform="matrix(.22591 5.80221 -80.68027 3.14132 179.6 169)"/><circle r="1" fill="#7b7a75" transform="rotate(-59.3 153.3 -166) scale(29.58692 7.27715)"/><ellipse cx="244" cy="9" fill="#4f5a5f" rx="17" ry="29"/><path fill="#919392" d="M40.1 5.6l36-17.5 15.8 32.3-36 17.5z"/><path fill="#2e2829" d="M55 95h56v9H55z"/><path fill="#76716a" d="M7-16l6 50-29-15z"/><path fill="#5b5e65" d="M128 108h6v10h-6z"/><path fill="#525656" d="M213 26l7 15-45 7z"/><path fill="#797f80" d="M185 41l40-27-7-30z"/><ellipse cx="97" cy="153" fill="#62a7d4" rx="82" ry="8"/><path fill="#8e8b83" d="M98 84.2l36.1-22.3-55.7-4.6 42.1 29z"/><path fill="#88847c" d="M134.6 33.6l-2.4-15.3 16.7 38.6-92.9-29z"/><path fill="#6c6d6b" d="M106 93L64 75l-5 19z"/><path fill="#67625b" d="M167.2 63.5L141.6 67l-21.3-18.5 14.5 3.3z"/><path fill="#5f5b56" d="M271 110.5l-84.4-33 1.7 10.3 41.9-8.8z"/><path fill="#4d5757" d="M173 17l33-9-13-8z"/><path fill="#2a292c" d="M184.7 113.3l23.5-2.7L217 90l5.1 9.7z"/><path fill="#8a8681" d="M-15 67l62-2-17 20z"/><path fill="#a7a7a4" d="M238.6 123.4l-24-18.5 56.4-.3L161.5 121z"/><path fill="#483f3d" d="M18 88h21v19H18z"/><path fill="#b0b4ad" d="M209 107l2 9 1-8z"/><path fill="#7d7b75" d="M203 82l-8-73-15 64z"/><path fill="#c1c1b9" d="M137 111h28v5h-28z"/><path fill="#312424" d="M179 81.9l4.3-2.6L191 92l-4.3 2.6z"/><path fill="#78766f" d="M251 90l-15.6-50.3 33.3 17.4-47.4 17.1z"/><path fill="#797873" d="M137.5 21L72 22l4.3 13.9 47.5-25.3z"/><path fill="#888287" d="M90 105h14v3H90z"/><circle r="1" fill="#afaeab" transform="matrix(-7.02731 13.05113 -9.15959 -4.93193 7.3 114.7)"/><ellipse cx="78" cy="110" fill="#3b3438" rx="35" ry="3"/><path fill="#4c4e4d" d="M209 49.9l19.8-1.1L247 33l-12.9 21.2z"/><path fill="#6c6a62" d="M9 101l17-22-42 20z"/><path fill="#908f8b" d="M11 25L9-1l85 24z"/><ellipse cx="151" cy="105" fill="#434347" rx="30" ry="5"/><path fill="#594b47" d="M109.5 91.3L128 80.1l-21.5 29.1-7-22.2z"/><circle r="1" fill="#94938f" transform="matrix(-17.09782 3.1916 -1.29523 -6.9387 73.7 51.6)"/><path fill="#75b2d9" d="M215.7 149l-23.7-2.4 22.1-6.8 18.9 3.8z"/><circle r="1" fill="#7d807e" transform="matrix(-20.16449 -8.87014 1.2178 -2.76843 159.2 34.3)"/><path fill="#564f4b" d="M177 33h3v46h-3z"/><path fill="#acc3d7" d="M100 124h59v4h-59z"/><ellipse cx="39" cy="113" fill="#929690" rx="88" ry="1"/><circle r="1" fill="#828381" transform="rotate(174.3 47.7 6.5) scale(17.03389 3.21844)"/><ellipse cx="78" cy="167" fill="#5297c4" rx="126" ry="8"/><path fill="#19261f" d="M246 9h4v8h-4z"/><path fill="#504a47" d="M43.8 77.7L28.6 101l-4.1 9.5-.2-22.4z"/><path fill="#5a9ac3" d="M21 185l-37-55 77-1z"/><ellipse cx="248" fill="#767f82" rx="72" ry="3"/><path fill="#76b7e1" d="M189 155h35v4h-35z"/><path fill="#343033" d="M217.7 103.5l-9.9 6.6 1.5-20.1-27.8-5.3z"/><path fill="#2e3836" d="M127 14.2l.2-1 11.8 2.6-.2 1z"/><path fill="#776762" d="M58 104h11v5H58z"/><path fill="#7a7f80" d="M160 13l36 2-16 14z"/><path fill="#514a3f" d="M114.2 30.2l16.5 2.4-12.2-16.8 4.4 13.2z"/><path fill="#649cb6" d="M23 129h226v3H23z"/><circle r="1" fill="#898883" transform="matrix(-92.25125 -15.07799 .23451 -1.43482 128.7 47.8)"/><circle r="1" fill="#95948c" transform="matrix(2.76715 -3.00915 7.78214 7.1563 129.3 65)"/><ellipse cx="81" cy="118" fill="#a5a19e" rx="54" ry="2"/><path fill="#777f80" d="M172 7l-14-23-24 24z"/><circle r="1" fill="#676662" transform="matrix(63.22665 57.23312 -1.71132 1.89053 211.3 63.4)"/><path fill="#80807b" d="M177 85l-40-4 38-31z"/><path fill="#70645b" d="M64 83l13-15 23-3z"/><path fill="#808587" d="M236 24l-15 5 1 16z"/><path fill="#7ec1ec" d="M161 157l-8 4 19-1z"/><path fill="#4e5559" d="M239.6-16l-20.3 48.8 16.9-19.4L207-13.4z"/><ellipse cx="255" cy="102" fill="#5c644b" rx="36" ry="2"/><path fill="#787171" d="M92 105h30v2H92z"/><path fill="#463733" d="M177.3 67.6L174 90.3 162.8 96l14.8 14.8z"/></g></g></svg>