<svg xmlns="http://www.w3.org/2000/svg" viewBox="0 0 4752 3168"><defs/><filter id="a"><feGaussianBlur stdDeviation="12"/></filter><rect width="100%" height="100%" fill="#343c5c"/><g filter="url(#a)"><g fill-opacity=".5" transform="translate(9.3 9.3) scale(18.5625)"><circle r="1" fill="#aeb092" transform="rotate(-77.1 92.8 -50.2) scale(101.32709 138.98864)"/><circle r="1" fill="#2f3000" transform="matrix(-18.26998 -15.60144 49.90833 -58.44489 48.2 135.9)"/><circle r="1" fill="#9b8b13" transform="rotate(-172.4 86 79.2) scale(116.08867 30.94042)"/><circle r="1" fill="#a0a5b8" transform="matrix(58.36051 7.5029 -6.4382 50.07886 11.8 56.1)"/><circle r="1" fill="#d1c8a4" transform="rotate(18.5 -316 494.5) scale(56.34557 17.08457)"/><path fill="#ffd982" d="M165 84l55 2-104-36z"/><ellipse cx="206" cy="44" fill="#294479" rx="99" ry="18"/><circle r="1" fill="#192e59" transform="rotate(87.4 35.3 47) scale(43.86753 16.13503)"/><path fill="#2c351a" d="M208 102L93 80l18-26z"/><circle r="1" fill="#443911" transform="matrix(-18.6514 12.62795 -20.98057 -30.98817 241.7 130.3)"/><path fill="#b4bcd0" d="M165.1-8.7L233.9 1 169 20.9 156.6 7z"/><circle r="1" fill="#061c4f" transform="rotate(76.4 21.4 27.1) scale(12.94204 25.66129)"/><path fill="#2b2c00" d="M43.8 158.9l-32.3 25.2-49.3-63 32.3-25.2z"/><circle r="1" fill="#323600" transform="rotate(-143.9 52.2 49.2) scale(17.3124 35.13429)"/><path fill="#bababd" d="M185 50h25v16h-25z"/><path fill="#a8aebc" d="M77 39L59 5 15 57z"/><path fill="#a4a9be" d="M161 32l-42-1-19-40z"/><path fill="#a5abbf" d="M94.2 36L78.8 82.4l32.4-25-8.2-19.7z"/><circle r="1" fill="#6c7888" transform="matrix(20.94846 -6.2613 8.48395 28.38477 26 98.9)"/><path fill="#ad9f88" d="M104.2 109.8l-30.4 38.6 69.6 3.7 103.3-28z"/><path fill="#4c6289" d="M249.4-50.6L307.8-27l-53.2 131.6L196.2 81z"/><path fill="#4b543e" d="M162 81l-12 35 110-11z"/><ellipse cx="161" cy="162" fill="#515c10" rx="104" ry="12"/><path fill="#302d0f" d="M62 57l15-22 14 22z"/><path fill="#1a0f00" d="M198 131l-3 11 32 15z"/><path fill="#ffda98" d="M186 86l38 7-53-26z"/><ellipse cx="120" cy="108" fill="#454339" rx="4" ry="21"/><ellipse cx="245" cy="84" fill="#7684a0" rx="27" ry="19"/><path fill="#32456b" d="M68 9h37v28H68z"/><path fill="#b7bda3" d="M194 152l-67-23 2-33z"/><path fill="#a3a6ae" d="M-16 23L93 82 4-4z"/><ellipse cx="232" cy="42" fill="#3e4e6a" rx="24" ry="27"/><path fill="#514b41" d="M216 101h27v58h-27z"/><path d="M243 122h13v14h-13z"/><circle r="1" fill="#806351" transform="rotate(-70.5 158.4 -16) scale(5.38957 28.08796)"/><circle r="1" fill="#e0ab76" transform="rotate(110.2 56.1 94.6) scale(7.47663 25.99262)"/><ellipse cx="172" cy="127" fill="#a5beb0" rx="22" ry="8"/><path fill="#404114" d="M46 92h42v45H46z"/><circle cx="175" r="13" fill="#c4c7ca"/><ellipse cx="30" cy="140" fill="#444914" rx="46" ry="11"/><path fill="#6f7e68" d="M214 109L100 78l60 40z"/><path fill="#cbc9c2" d="M20 99l20-2-2 9z"/><path fill="#34352b" d="M207 102h33l-57-17z"/><path fill="#343b2f" d="M117.2 55l7.1 3.6 2.8 19.9-51.8 21.9z"/><circle r="1" fill="#566475" transform="matrix(41.6496 4.512 -.50085 4.62328 20.8 93.5)"/><circle r="1" fill="#394e70" transform="matrix(20.54245 14.76125 -8.01574 11.15509 159.7 48.9)"/><path fill="#b6bbc8" d="M54 13h14v17H54z"/><path fill="#979ca3" d="M71 90.6l-42 .8v-10l42-.8z"/><path fill="#636743" d="M38.5 109.1l29.4-46.8-13 22.3 17.4 26.9z"/><path fill="#1f1d00" d="M196 138h33v6h-33z"/><path fill="#7a6a72" d="M54.7 172l-13.4-22.3 6-3.6 13.4 22.2z"/><path fill="#8e8a70" d="M212 146l3-7 23 7z"/><path fill="#757f96" d="M160.2 4.5l-45.1 35L263.9-16l-87.3 55.7z"/><path fill="#99aa91" d="M92 95h22v29H92z"/><path fill="#c49a72" d="M79 145l12-17 43 25z"/><path fill="#47577f" d="M155.6 18.5l-30-7.5 4.8-19.5 30 7.5z"/><path fill="#090b02" d="M1 153.5h36v11H1z"/><path fill="#3d4a66" d="M13 6.4L11.1-16l35.5 41.9-18.3-10.1z"/><path fill="#4a6664" d="M92 87l28-15-33 43z"/><circle r="1" fill="#91969f" transform="matrix(-18.9226 4.34042 -1.48677 -6.48176 199.3 55.2)"/><path fill="#9fa2aa" d="M73 55l18 13-53 2z"/><path fill="#acaa8e" d="M202 120h15v19h-15z"/><circle r="1" fill="#959aa6" transform="matrix(.7719 6.19257 -26.86944 3.34925 126.8 24.6)"/><path fill="#666970" d="M37 73h61v8H37z"/><path fill="#bb9270" d="M143 135h52v12h-52z"/><circle r="1" fill="#3e506d" transform="rotate(65.3 64.7 169.1) scale(10.77313 32.95491)"/><path fill="#746a64" d="M226 106h16v26h-16z"/><path fill="#2d2d29" d="M193.4 152.1l75.2 6.5-34.1-9.7-37.4-6.1z"/><path fill="#7c928b" d="M158.4 135.7l-7.8-10.3 15.8-27.9 2.8 18.1z"/><path fill="#be8d76" d="M77 116h2v22h-2z"/><path fill="#818897" d="M92.1 51.2L49.4 17 24.2 35.8l67.5 2z"/><path fill="#85603f" d="M121.3 61.2l2.4 2.3-15.3-18.1 70 49.1z"/><path fill="#1d1e09" d="M229.9 137.6l.2 6-24 .8-.2-6z"/><path fill="#1a2111" d="M243.2 109.1l-2.8-7.6 30.6 10.3-15 6.5z"/><circle r="1" fill="#414511" transform="rotate(-.8 9015 28) scale(12.63408 29.62318)"/><path fill="#262c11" d="M90.5 98.1L32.9 132l44.3-11.5-17.5-24.3z"/><path fill="#5e7191" d="M11 115h35v7H11z"/><path fill="#486666" d="M131 72l-10 15 46 11z"/><path fill="#b6bbc5" d="M86 55l15-22 2 11z"/><path fill="#393c18" d="M75 43h2v119h-2z"/><path fill="#595f1c" d="M67 176l94-9-119-29z"/><path fill="#545131" d="M94 126l8 11 2-10z"/><path fill="#304060" d="M67.7 9.8l-1.3 13.8L74.1-16 6.6 2.3z"/><path fill="#4f5645" d="M217 93l-89-20 47 27z"/><path fill="#96988a" d="M114.2 127.5l-27-1 .6-14 27 1z"/><path fill="#717b8a" d="M86.7 71.8l-31.3.6.8 29.1-10.1-9.7z"/><path fill="#6d5840" d="M122.4 45.6L92.3 75.3 69.5 99.7l26.8-18.6z"/><ellipse cx="225" cy="145" fill="#e2dbd5" rx="11" ry="1"/><circle r="1" fill="#999ba3" transform="matrix(-2.97118 -3.63008 8.15463 -6.67449 255 64.4)"/><path fill="#493f2d" d="M194.5 122.8l4-.5 3 24.9-4 .5z"/><path fill="#272810" d="M77 58l7-17-16 3z"/><path fill="#566c95" d="M191 74l30 17-21-30z"/><ellipse cx="31" cy="126" fill="#3d4857" rx="12" ry="6"/><ellipse cx="161" cy="133" fill="#d3ccb0" rx="34" ry="2"/><path fill="#ac985a" d="M124 94h5v41h-5z"/><circle r="1" fill="#575a1b" transform="rotate(54.4 -91.5 223.8) scale(11.40096 29.32593)"/><ellipse cx="5" cy="96" fill="#495b77" rx="25" ry="4"/><path fill="#3e442a" d="M69.5 80l5.5-6 9 27.1-16.7-18.7z"/><path fill="#9a9e95" d="M128 94l-15-10v9z"/><path fill="#374766" d="M60.6 8.8l57.1 38L102 27 53.5-16z"/></g></g></svg>