<svg xmlns="http://www.w3.org/2000/svg" viewBox="0 0 4032 2688"><defs/><filter id="a"><feGaussianBlur stdDeviation="12"/></filter><rect width="100%" height="100%" fill="#49423d"/><g filter="url(#a)"><g fill-opacity=".5" transform="translate(7.9 7.9) scale(15.75)"><circle r="1" fill="#bbbb82" transform="matrix(19.78513 68.99893 -245.12174 70.28753 151.2 128.6)"/><path fill="#132227" d="M-1-15l58 173 47-17z"/><circle r="1" fill="#c3e66b" transform="matrix(6.0793 39.72835 -26.00251 3.97894 15 136)"/><circle r="1" fill="#244c2a" transform="rotate(179.7 123.1 36.4) scale(28.22052 46.23281)"/><circle r="1" fill="#e6947c" transform="matrix(19.39858 -12.69945 17.63142 26.93223 116.3 110)"/><circle r="1" fill="#2d212d" transform="rotate(100.9 40.5 95.1) scale(24.52808 17.20854)"/><circle r="1" fill="#abda5f" transform="matrix(-15.67332 -27.14699 102.1611 -58.98273 230.8 164.9)"/><circle r="1" fill="#bfa3af" transform="matrix(31.7165 -35.44949 10.91249 9.76335 181.7 74.3)"/><path fill="#000096" d="M164.8 114.2l1.1-.6-27.7-2 8.4 41.9z"/><path fill="#7c9583" d="M114 29l67-32-30 57z"/><circle r="1" fill="#211539" transform="matrix(-29.86093 2.23784 -.4279 -5.70964 180.3 145.7)"/><path fill="#1c3621" d="M103.7 38.3l-64.3 60-49.1-52.6 64.3-60z"/><ellipse cx="143" cy="169" fill="#a5c661" rx="150" ry="15"/><path fill="#cbbe98" d="M197.1 71.8l-4.1-.3 33 50.6-33.6 8.5z"/><path fill="#f8b698" d="M86 92l26 2-51 36z"/><circle r="1" fill="#172d32" transform="matrix(8.86765 -10.91808 26.4429 21.47689 199.5 20.4)"/><path fill="#f0d9ce" d="M184 88l-13 42 15-3z"/><path fill="#ffa7a3" d="M136 164l2-26 22 16z"/><path fill="#182132" d="M49.1 85l-6.7 47.3.5 14.8 39.7-41.4z"/><path fill="#594f48" d="M44.7 89.1l96.4-12.7L192.2 51l-59.5-18.8z"/><path fill="#643642" d="M84 105l45 51-60 1z"/><path fill="#fecba9" d="M120 116l19 27-4-48z"/><path fill="#00070a" d="M186 110l10-13-10-12z"/><path fill="#f3dacc" d="M191 44l16-5 18 22z"/><ellipse cx="32" cy="143" fill="#ff40ff" rx="9" ry="4"/><circle r="1" fill="#b3cd65" transform="matrix(8.14922 5.45543 -9.58307 14.31501 32.6 116.4)"/><path fill="#84786e" d="M71 142l22-36-61 45z"/><path fill="#2d201e" d="M150 77l3 30-29-25z"/><path fill="#84896b" d="M122.7 69.2l-8.9-22.8-29.3 11.2 48.1 15.6z"/><path fill="#eaeeff" d="M134 32l1-14-8 7z"/><path fill="#663241" d="M183 116h15v38h-15z"/><path fill="#71926b" d="M241 0l6 36 24-1z"/><circle r="1" fill="#7e4830" transform="rotate(-120.1 93.3 27) scale(22.56469 4.73593)"/><path fill="#192044" d="M104 91l-17 1 4-16z"/><path fill="#b7c3e7" d="M58.9 85.6l11.4-6.8-8.6 14.3.5 1.8z"/><path fill="#9fa7a3" d="M141.5 23.8l11.1-2.6-4.9 19 30.9-25z"/><path fill="#1d3521" d="M218 102h38v9h-38z"/><path fill="#0f156a" d="M165 153l-24-42-2 27z"/><path fill="#203533" d="M123 14l39 9-13-39z"/><path fill="#ffe2c4" d="M74 83l12 2-8 7z"/><path fill="#f4feff" d="M62 100h4v6h-4z"/><path fill="#b5bf6f" d="M256 119l-55-13-4 29z"/><path fill="#fff2e4" d="M156 152l-19 9 29-5z"/><circle r="1" fill="#4d6246" transform="matrix(-41.84825 -26.1571 11.24942 -17.99773 75.6 0)"/><path fill="#ffd3bc" d="M71.3 102.9l46.6-15.3-18.1-6.2 6.5 17.8z"/><path fill="#73864f" d="M-8.2 100.8l-5.4-38.6 21.8-3 5.4 38.6z"/><path fill="#7e5b3f" d="M81 115l46-5-1-16z"/><path fill="#b6709f" d="M114 152l-17-16-2 21z"/><path fill="#9e9687" d="M182.6 87l59.3-.5-86.3-20.1-15 11.5z"/><path fill="#e8cb6a" d="M157 125h8v20h-8z"/><path fill="#eda78d" d="M126.8 102.3l10.7-4.6-43.1-16.4 96.3 36.1z"/><ellipse cx="224" cy="35" fill="#263032" rx="18" ry="12"/><path fill="#243a27" d="M210.1 90.3l3.7 20.7-4 .7-3.6-20.7z"/><path fill="#d17360" d="M120.8 144.5l17.4-10 11 19-17.4 10z"/><path fill="#1c2423" d="M109.3 53.8l-66.5-6 8.9 27.4L85.1 8.9z"/><path fill="#cfbdb4" d="M188.6 43.4l24.3.7-16.7 3.6-47.5 50.2z"/><path fill="#112220" d="M88.1 124.3l-6.4 20.9-9 8 32.4-18.4z"/><path fill="#7d716e" d="M199 48l29 10-63 28z"/><path fill="#fffff4" d="M180 94h4v15h-4z"/><ellipse cx="17" cy="100" fill="#697c42" rx="30" ry="5"/><path fill="#d3c9b8" d="M214 79h4v44h-4z"/><path fill="#edd1c3" d="M205 96h4v33h-4z"/><path fill="#fff" d="M133 117.3l-14.7-2.6.7-4 14.7 2.6z"/><path fill="#423a2f" d="M115.9 148.1l25.6 4.9-3.9-8-25.7 12.1z"/><path fill="#232830" d="M84.7-5.7l-19 99.8L91.2 71l-10.5 9.3z"/><path fill="#1e23a7" d="M146 110h17v12h-17z"/><circle r="1" fill="#bba59a" transform="matrix(-11.2959 14.09958 -3.50363 -2.80693 183.1 123)"/><circle cx="172" cy="37" r="14" fill="#293e32"/><path fill="#fff" d="M165 9h5v4h-5z"/><path fill="#cfdcb5" d="M120 32h9v6h-9z"/><path fill="#c69763" d="M87.4 81.5l40.5 52.4 12.8-16.4-.9 18.8z"/><path fill="#c28570" d="M115 114l-6-18 20-30z"/><path fill="#3f504e" d="M271.1 17.3l-61.5 17.6-12.7-44.2 61.5-17.6z"/><path fill="#324138" d="M164.1 15l-36.4-1.9 2.2 25.1-43.1-48.7z"/><path fill="#e09f73" d="M141.1 161.5l-37.6-47.4 6.1 22.6-22.1-24z"/><path fill="#415039" d="M-25.2 12.6L21.4-8.2l15.8 35.6-46.6 20.8z"/><path d="M167 80h6v4h-6z"/><path fill="#d4d6b9" d="M175 149l5 4 3-5z"/><path fill="#93a28c" d="M163 15.7l17.5 5.5-34.6 11.3-.6 16.6z"/><path fill="#403236" d="M135.8 65.3L106 86.6l2.2-4.8 2.2-11.6z"/><path fill="#2f342e" d="M150 103l-11-37-17 19z"/><path fill="#87a15f" d="M225 80l23-2-29 16z"/><path fill="#676858" d="M210.6 119.5L222 126l-16.5 28.5L194 148z"/><path fill="#273620" d="M132.7 37.6l10.6-6.2-3-46.3 7.1 66z"/><path fill="#2a3532" d="M59.9 102.5l48.9-13.9L74 94.1l-90-17.9z"/><path fill="#ffcca7" d="M81.1 85.8l20.4 17.7-.6.7-20.4-17.7z"/><path fill="#2e472f" d="M248.6 102.1l22.4 55.1-8.3-100.5-25.5 36.1z"/><circle r="1" fill="#8cae51" transform="matrix(-.31586 5.64963 -119.73726 -6.69435 36.2 160.1)"/><path fill="#e4745c" d="M82 73h11v7H82z"/><path fill="#a8865f" d="M138 79h4v44h-4z"/><path fill="#302f28" d="M171 129.5l5 23.5-7 1.5-5-23.5z"/><path fill="#6d724e" d="M95.6 35l-3.7-17.6 20.5-4.4 3.7 17.6z"/><path fill="#fff" d="M139 124l-11-1 5-3z"/><path fill="#d7bfb5" d="M165.4 95.5l-12.1-15 20.3-7.3-10.1-4.5z"/><path fill="#837e6b" d="M155.7 96l19 18.9 12.7 8.2-13.5-27.3z"/><path fill="#1e2225" d="M23 23L4 21l32-34z"/><path fill="#d0c1ac" d="M202.1 84.2l-3.8-6.9-3.1 27 4.2 13.4z"/><path fill="#b3ca68" d="M41 128l3-21-60 11z"/><path fill="#6e483d" d="M105.3 117.4l-2-11.3 4.2 5.9 38.6 47.3z"/><path fill="#232e27" d="M128.3 44L139 93.9l-28.6-65.5-28.1 16.8z"/></g></g></svg>