<svg xmlns="http://www.w3.org/2000/svg" viewBox="0 0 1800 1013"><defs/><filter id="prefix__a"><feGaussianBlur stdDeviation="12"/></filter><rect width="100%" height="100%" fill="#3e697d"/><g filter="url(#prefix__a)"><g transform="translate(3.5 3.5) scale(7.03125)"><circle r="1" fill="#cdcaf3" fill-opacity=".5" transform="matrix(254.97908 -3.2662 .54261 42.35963 154.1 52.3)"/><circle r="1" fill="#5175bc" fill-opacity=".5" transform="matrix(2.51094 33.39443 -180.33288 13.5593 139.7 10.3)"/><circle r="1" fill="#bec0c3" fill-opacity=".5" transform="rotate(-92.4 111.1 -36.3) scale(16.45247 239.07887)"/><ellipse cx="65" cy="93" fill="#896a59" fill-opacity=".5" rx="108" ry="4"/><ellipse cx="221" cy="89" fill="#4c3b1b" fill-opacity=".5" rx="10" ry="5"/><circle r="1" fill="#5777ae" fill-opacity=".5" transform="matrix(-2.29356 -23.34346 156.65238 -15.39155 145.9 4.3)"/><path fill="#e0cfb7" fill-opacity=".5" d="M131.4 83.3l15.9 14.1 57.4-5.7 4-4.2z"/><path fill="#50616d" fill-opacity=".5" d="M133.8 97.2l-49 2.6-.6-11 49-2.6z"/><circle r="1" fill="#a0b3cb" fill-opacity=".5" transform="matrix(-29.3144 8.94203 -6.84555 -22.44157 10 70.7)"/><path fill="#597a85" fill-opacity=".5" d="M153 93l86-2 31 35z"/><circle r="1" fill="#6f8db5" fill-opacity=".5" transform="rotate(-104.5 122.7 -82.1) scale(21.4391 100.85323)"/><ellipse cx="72" cy="52" fill="#859fc3" fill-opacity=".5" rx="225" ry="15"/><path fill="#b9bcbf" fill-opacity=".5" d="M0 78h103v13H0z"/><path fill="#ab9a8b" fill-opacity=".5" d="M271 89l-43 3 11-11z"/><path fill="#457788" fill-opacity=".5" d="M63 96h193v23H63z"/><ellipse cx="245" cy="94" fill="#3e1b10" fill-opacity=".5" rx="59" ry="1"/><ellipse cx="89" cy="14" fill="#5274aa" fill-opacity=".5" rx="126" ry="9"/><path fill="#e2ded4" fill-opacity=".5" d="M139 87h68v4h-68z"/><ellipse cx="109" cy="94" fill="#53453d" fill-opacity=".5" rx="29" ry="2"/><ellipse cx="132" cy="82" fill="#b3b7bc" fill-opacity=".5" rx="106" ry="6"/><path fill="#ffe9c3" fill-opacity=".5" d="M139 91h13v4h-13z"/><path fill="#363136" fill-opacity=".5" d="M234.7 97.1l26.4-8.8-9.1 3.5 19 2.1z"/><path fill="#45717b" fill-opacity=".5" d="M170 89l-88 70 159-6z"/><circle r="1" fill="#7691ba" fill-opacity=".5" transform="matrix(-.2003 -7.47188 162.47602 -4.3554 96.5 42)"/><path fill="#2c5c60" fill-opacity=".5" d="M4.1 137l-20.1 1.5L129 159l-76.2-18.8z"/><path fill="#c1ad98" fill-opacity=".5" d="M202 91l15-11-9 14z"/><path fill="#605658" fill-opacity=".5" d="M19 92h119v3H19z"/><ellipse cx="180" cy="91" fill="#f8ecdb" fill-opacity=".5" rx="7" ry="3"/><path fill="#757f90" fill-opacity=".5" d="M138.4 93.2l-23-.4.2-6 23 .4z"/><ellipse cx="35" cy="100" fill="#47758a" fill-opacity=".5" rx="255" ry="5"/><ellipse cx="50" cy="70" fill="#9eafc5" fill-opacity=".5" rx="81" ry="13"/><ellipse cx="174" cy="95" fill="#7f7d82" fill-opacity=".5" rx="23" ry="3"/><path fill="#d1beb1" fill-opacity=".5" d="M0 92h18v2H0z"/><path fill="#66635f" fill-opacity=".5" d="M211 85h20v11h-20z"/><path fill="#61747d" fill-opacity=".5" d="M168 98l-4.9 3.6-7-9.7 4.8-3.5z"/><ellipse cx="36" fill="#4567a6" fill-opacity=".5" rx="101" ry="9"/><circle r="1" fill="#6180af" fill-opacity=".5" transform="rotate(-99 100.9 -73.6) scale(12.60359 88.74568)"/><path fill="#abb1ba" fill-opacity=".5" d="M79 70l13 26-27-21z"/><path fill="#838787" fill-opacity=".5" d="M218 85.6l-34 1.8v-1l34-1.8z"/><circle r="1" fill="#a9b7c6" fill-opacity=".5" transform="rotate(-149.1 72.5 26.6) scale(6.8042 3.5335)"/><circle r="1" fill="#3e6c78" fill-opacity=".5" transform="rotate(-12.4 603.7 -339.3) scale(47.675 16.82749)"/><ellipse cx="245" cy="77" fill="#afb6be" fill-opacity=".5" rx="54" ry="7"/><ellipse cx="199" cy="143" fill="#2d5d5e" fill-opacity=".5" rx="20" ry="3"/><path fill="#d3d5d4" fill-opacity=".5" d="M226 95h7v1h-7z"/><circle cx="133" cy="89" r="4" fill="#696970" fill-opacity=".5"/><path fill="#292423" fill-opacity=".5" d="M238 93h18v2h-18z"/><path fill="#b4a49a" fill-opacity=".5" d="M33.1 83.4l-3 2.9-7.6 6.2 1.9 2.4z"/><path fill="#457185" fill-opacity=".5" d="M0 121h74v12H0z"/><path fill="#8d8c8b" fill-opacity=".5" d="M138 94h22v3h-22z"/><path fill="#676768" fill-opacity=".5" d="M252.2 84.2l-2.9 10.1L265 69.4l-1.4 45.4z"/><path fill="#497480" fill-opacity=".5" d="M221.6 139.7l-3.3 8.1 52.6-8.5-19.3-17.3z"/><circle cx="42" cy="90" r="2" fill="#635c5e" fill-opacity=".5"/><path fill="#716467" fill-opacity=".5" d="M167 94h7v-5z"/><circle r="1" fill="#95a7c0" fill-opacity=".5" transform="rotate(176.9 84.3 32.7) scale(108.34601 9.06014)"/><ellipse cx="217" cy="93" fill="#87675b" fill-opacity=".5" rx="25" ry="1"/><path fill="#507687" fill-opacity=".5" d="M77 135l44 18 46-10z"/><path fill="#e8e5da" fill-opacity=".5" d="M173.3 92l12.7-3 .7 3-12.7 3z"/><path fill="#fce9d2" fill-opacity=".5" d="M146 88l7 5 2-5z"/><path fill="#437384" fill-opacity=".5" d="M141 122l91-22-77-5z"/><path fill="#fffff4" fill-opacity=".5" d="M68 90l2-1-3-1z"/><path fill="#b1b0b2" fill-opacity=".5" d="M232 89h17v3h-17z"/><path fill="#4e5650" fill-opacity=".5" d="M218 86h14v6h-14z"/><ellipse cx="79" cy="35" fill="#6c8ab5" fill-opacity=".5" rx="84" ry="7"/><path fill="#567c8e" fill-opacity=".5" d="M197 138h28v4h-28z"/><path fill="#c9c9c9" fill-opacity=".5" d="M91 84h41v3H91z"/><path fill="#37656f" fill-opacity=".5" d="M78.4 128.2l60.8 7-5.8 7.3L87 132.4z"/><ellipse cx="13" cy="90" fill="#999497" fill-opacity=".5" rx="28" ry="2"/><path fill="#54555a" fill-opacity=".5" d="M214.2 93.4l-16.6 2.1-1.7.9 28.6-1.4z"/><circle r="1" fill="#7d96bb" fill-opacity=".5" transform="matrix(-88.64375 13.15092 -1.21997 -8.2232 229 35.2)"/><path fill="#8a8e8f" fill-opacity=".5" d="M249 83l-13 8-9-6z"/><path fill="#2d5c62" fill-opacity=".5" d="M155 134h13v6h-13z"/><ellipse cx="225" cy="96" fill="#5e859e" fill-opacity=".5" rx="87" ry="1"/><ellipse cx="85" cy="11" fill="#5173a9" fill-opacity=".5" rx="84" ry="6"/><ellipse cx="7" cy="57" fill="#8ca2c1" fill-opacity=".5" rx="218" ry="5"/><path fill="#577c8e" fill-opacity=".5" d="M168 137h39v3h-39z"/><path fill="#6d7e97" fill-opacity=".5" d="M86 89h32v2H86z"/><circle cx="188" cy="87" r="3" fill="#94999c" fill-opacity=".5"/><path fill="#e8d8c2" fill-opacity=".5" d="M205 89h4v4h-4z"/><circle cx="20" cy="92" r="2" fill="#303748" fill-opacity=".5"/><path fill="#a1a9b2" fill-opacity=".5" d="M219.3 64l-.6 30h-2l.6-30z"/><path fill="#3d6c76" fill-opacity=".5" d="M180 118h61v20h-61z"/><ellipse cx="224" cy="94" fill="#404144" fill-opacity=".5" rx="16" ry="1"/><path fill="#b8babe" fill-opacity=".5" d="M167.8 81l28.4.5-26.2 8.4-77.6-8z"/><path fill="#a5acb0" fill-opacity=".5" d="M206 84h7v5h-7z"/><path fill="#577d92" fill-opacity=".5" d="M188 132h25v2h-25z"/><path fill="#9c8980" fill-opacity=".5" d="M189 91h11v2h-11z"/><circle r="1" fill="#5777ac" fill-opacity=".5" transform="matrix(-.823 -6.008 54.6628 -7.48787 191 4.5)"/><path fill="none" stroke="#4c5e64" stroke-opacity=".5" stroke-width=".5" d="M214 82.7q.4 9.5 2.6 19.2"/><path fill="#6b6460" fill-opacity=".5" d="M90 97.5l-1.4-3.8 9.5-3.2 1.3 3.8z"/><path fill="#6c5f54" fill-opacity=".5" d="M37 94.5h72v1H37z"/><path fill="#4f778d" fill-opacity=".5" d="M42 129l-27 2 19-11z"/><path fill="#f3eee2" fill-opacity=".5" d="M176.1 89l-.1-1 7.9-1 .1 1z"/><ellipse cx="198" cy="109" fill="#3c6c7b" fill-opacity=".5" rx="143" ry="2"/><path fill="#32636d" fill-opacity=".5" d="M115 123h39v3h-39z"/><path fill="none" stroke="#a1abb9" stroke-opacity=".5" stroke-width=".5" d="M269.4-1.2Q250.3 89.5 226 93"/><path fill="#ebe9e4" fill-opacity=".5" d="M166.6 86.3l.9.5-4.1 6.9-.9-.5z"/><path fill="none" stroke="#525455" stroke-opacity=".5" stroke-width=".5" d="M271 88q-38.1 14.5-65.8-.5"/><circle cx="117" cy="88" r="3" fill="#7a92ac" fill-opacity=".5"/><path fill="#5e5459" fill-opacity=".5" d="M159 92.8l-3.7 1.3-.4-1 3.8-1.2z"/><path fill="#7a6a64" fill-opacity=".5" d="M49 89h4v6h-4z"/></g></g></svg>