<svg xmlns="http://www.w3.org/2000/svg" viewBox="0 0 1800 1200"><defs/><filter id="a"><feGaussianBlur stdDeviation="12"/></filter><rect width="100%" height="100%" fill="#263445"/><g filter="url(#a)"><g fill-opacity=".5" transform="translate(3.5 3.5) scale(7.03125)"><circle r="1" fill="#fff" transform="matrix(-230.46397 12.88494 -3.90999 -69.93524 117.9 25.1)"/><circle r="1" fill="#69685e" transform="matrix(-230.2474 13.34722 -2.93856 -50.69185 211.6 109.5)"/><circle r="1" fill="#cdccc7" transform="matrix(-105.18144 -7.355 2.41599 -34.55025 85.8 44.8)"/><circle r="1" fill="#5a7398" transform="matrix(-44.12415 -42.6102 46.00013 -47.63453 234 41.5)"/><path fill="#c7ab8d" d="M169 152h87v7h-87z"/><circle r="1" fill="#34342e" transform="matrix(1.58322 19.2571 -154.4274 12.69624 69.3 133.3)"/><circle r="1" fill="#687a98" transform="matrix(-79.36973 6.84075 -1.14565 -13.29234 34.7 92.3)"/><path fill="#4c4c44" d="M110.8 86.9l24.6-3.3L231 107 4.7 130.2z"/><ellipse cx="166" cy="52" fill="#9ea3a7" rx="39" ry="29"/><circle r="1" fill="#647691" transform="matrix(.44327 -14.24585 44.51487 1.3851 55 0)"/><ellipse cx="132" cy="19" fill="#c6c9c8" rx="33" ry="14"/><path fill="#776d4e" d="M166 137h81v17h-81z"/><circle r="1" fill="#cccac5" transform="rotate(-68.7 50.3 -12) scale(16.86811 56.06867)"/><circle r="1" fill="#687991" transform="matrix(109.80975 78.03772 -12.89865 18.15017 232.1 35.5)"/><circle r="1" fill="#6f6143" transform="matrix(25.7483 -9.2978 4.2334 11.7235 100.1 146.9)"/><circle r="1" fill="#57533f" transform="matrix(36.91518 17.44973 -9.12719 19.30872 225 131.6)"/><path fill="#1a2431" d="M39 152l-18-20 94-9z"/><circle r="1" fill="#293136" transform="rotate(21.6 -342.8 444.6) scale(13.77823 58.30996)"/><path fill="#d5b89b" d="M191 156l35 2-20-8z"/><ellipse cx="51" cy="76" fill="#93999f" rx="129" ry="8"/><path fill="#555951" d="M110 87h75v19h-75z"/><ellipse cx="166" cy="84" fill="#5974a3" rx="17" ry="8"/><circle r="1" fill="#aeafad" transform="matrix(.44149 9.41952 -47.10216 2.20766 17.5 65.7)"/><circle r="1" fill="#2e4a74" transform="rotate(-68.1 201.6 -138.5) scale(14.81405 25.17636)"/><circle r="1" fill="#637488" transform="matrix(42.88583 2.54403 -.43784 7.38092 28.4 94.1)"/><path fill="#787866" d="M194 143l28-10-7 23z"/><path fill="#828e9f" d="M215.5 77.6l-68.6-91 13.6-10.2 68.6 91z"/><circle r="1" fill="#536888" transform="matrix(-36.84455 6.29795 -1.5099 -8.83325 221.9 83.4)"/><path fill="#555248" d="M114.5 124.5l23.2-39.7-23.6.2L84 102.2z"/><path fill="#212428" d="M81.8 156.8l-8.1-3.3-47.6-4.4 15.2 10z"/><path fill="#1c2539" d="M253 138l-11 19 29-15z"/><path fill="#343a39" d="M267.9 117.4l-44.1 17.7-3.4-8.2 23.8-17.7z"/><path fill="#4a4332" d="M113 135h52v24h-52z"/><ellipse cx="150" cy="123" fill="#2c3747" rx="33" ry="16"/><ellipse cx="86" cy="152" fill="#a7928a" rx="12" ry="2"/><path fill="#1d3446" d="M86 158h108v12H86z"/><ellipse cx="245" cy="45" fill="#5b708b" rx="19" ry="14"/><circle r="1" fill="#a3a7aa" transform="matrix(-24.14429 9.12337 -10.18069 -26.9424 162.5 46.3)"/><circle r="1" fill="#63778e" transform="matrix(.47522 5.5692 -37.62545 3.21057 93.4 0)"/><circle r="1" fill="#8d96a4" transform="matrix(31.88323 5.30534 -1.18776 7.13799 34.2 9)"/><circle r="1" fill="#373d38" transform="rotate(11.9 -557 996.4) scale(19.49552 4.25771)"/><path fill="#6a5e46" d="M104 131h34v7h-34z"/><path fill="#bdbfbf" d="M115.4 25.8l-66.6-2.6 93.6-20.8 7.9 48.8z"/><path fill="#a5917f" d="M247 159l-8-7-21 6z"/><circle r="1" fill="#41443f" transform="matrix(-16.66413 -24.91459 14.07124 -9.41156 5.1 128.3)"/><ellipse cx="61" cy="148" fill="#919380" rx="3" ry="4"/><path fill="#c5c5be" d="M61 56l64 4-27-23z"/><path fill="#6d6458" d="M174 142h20v18h-20z"/><path fill="#2b2e31" d="M77 119h23v20H77z"/><path fill="#5c584c" d="M170.5 107l-7.8-15.1 23-4.6 36.1 67.4z"/><path fill="#675c43" d="M219.2 151.2L271 133l-30.9-8.8-6.9 34z"/><path fill="#9a7b65" d="M124 151l10-4-14 1z"/><circle r="1" fill="#42575b" transform="rotate(145.6 52 73) scale(26.53764 7.00042)"/><path fill="#a39486" d="M113 152l-5 5-8-2z"/><path fill="#e8dac7" d="M205 148h4v2h-4z"/><circle r="1" fill="#868b95" transform="matrix(-48.69866 24.26514 -3.29674 -6.61636 215 22.2)"/><circle r="1" fill="#999da3" transform="rotate(125.4 51.9 60) scale(3.83814 33.41778)"/><ellipse cx="19" cy="147" fill="#9c8d7a" rx="2" ry="3"/><path fill="#c2c0bc" d="M180 159.7l-12.3-4.5.4-.9 12.2 4.5z"/><path fill="#ffd7a6" d="M219 157h17v1h-17z"/><path fill="#6a603c" d="M234 116l2-12h-25z"/><circle cx="142" cy="148" r="7" fill="#232f24"/><path fill="#778094" d="M103 77L84 97l55-21z"/><path fill="#474946" d="M63 131l12-34-91 20z"/><path fill="#323e4b" d="M169.4 173.3l11.3-14.5 13.5 26.2-17.8-34.2z"/><path fill="#323533" d="M62.2 150.7l5-33.6 10.3 39.6-32 2.2z"/><path fill="#866d5a" d="M149 155.8l11.4-3.5.6 1.9-11.4 3.5z"/><path fill="#58594e" d="M215.4 158l30.1-5-51.7-6 59.4-6z"/><path fill="#a58b80" d="M81.9 158.8l1.4-6.9-.3.2-6.6-2.7z"/><path fill="#f5c6a1" d="M107.1 150.4l-.8-.5 2.6-4.3.8.5z"/><path fill="#bcddca" d="M198.2 144.2l-4.7-1.5.3-1 4.7 1.6z"/><path fill="#7e7b72" d="M215 153l2-21 5 21z"/><path fill="#bbbbba" d="M0 16h13v54H0z"/><circle r="1" fill="#7f8ca3" transform="rotate(157.2 90 53.4) scale(20.57905 9.35612)"/><path fill="#494630" d="M91.8 123.5l27.9 18.6-32.1 11.8 6.2 4.7z"/><path fill="#323930" d="M-16 161l58-26-55-1z"/><path fill="#172430" d="M76.8 124.5l-43.2 23.6-.3 8.9 49.1-31z"/><ellipse cx="19" cy="84" fill="#7a8597" rx="75" ry="6"/><circle r="1" fill="#576c8c" transform="rotate(-166.2 109.3 33.4) scale(30.32696 4.53505)"/><path fill="#97a3b0" d="M156 8.1l-22-9-40.7 12.8 17.1-2z"/><path fill="#586979" d="M10 92h24v16H10z"/><circle r="1" fill="#c9c8c6" transform="matrix(-16.71401 -13.07466 6.3793 -8.15498 33 34.5)"/><path fill="#5b6142" d="M103 120l26-34 21-1z"/><path fill="#2f3743" d="M169 141l2-36-69 20z"/><path fill="#404347" d="M57.4 133.9l75.7-50.4-30.7 8.8L28.2 133z"/><path fill="#8997a7" d="M131.8-16l64 45.9L155.1 18l1.9-3.8z"/><path fill="#979797" d="M145 49.3l15.7 29.1L154 83l-29.3 1.5z"/><path fill="#193243" d="M156 160h100v10H156z"/><path fill="#d9b390" d="M197 154h19v4h-19z"/><path fill="#89796e" d="M209 130l5-2 2 13z"/><ellipse cx="75" cy="67" fill="#abadac" rx="67" ry="6"/><path fill="#89836d" d="M164 146h28v2h-28z"/><path fill="#435977" d="M239.4 75.5l-27.5 27.4-.5 2.9 59.6-4.3z"/><circle r="1" fill="#aeb0b4" transform="matrix(30.34347 -7.90388 1.8187 6.98208 83 33)"/><path fill="#8a99a3" d="M261-9L234 2l37 29z"/><circle cx="172" cy="155" r="2" fill="#fafffd"/><circle r="1" fill="#6a7c94" transform="matrix(3.52516 -8.38602 30.40452 12.78088 230.4 56.1)"/><path fill="#687894" d="M238.5-16L197.8 3l4.6 26.3 24-17.3z"/><circle cx="110" cy="154" r="2" fill="#cabb9b"/><path fill="#a58d7a" d="M175 140h3v8h-3z"/></g></g></svg>