<svg xmlns="http://www.w3.org/2000/svg" viewBox="0 0 1800 1200"><defs/><filter id="a"><feGaussianBlur stdDeviation="12"/></filter><rect width="100%" height="100%" fill="#573a30"/><g filter="url(#a)"><g fill-opacity=".5" transform="translate(3.5 3.5) scale(7.03125)"><circle cx="114" cy="80" r="170" fill="#789196"/><circle r="1" fill="#26130c" transform="rotate(-178.1 41 53.4) scale(60.87707 47.60723)"/><circle r="1" fill="#fff" transform="matrix(57.21835 -4.27958 1.2146 16.23927 138.8 0)"/><ellipse cx="246" cy="168" fill="#b9bab5" rx="255" ry="23"/><ellipse cx="159" cy="118" fill="#36241e" rx="77" ry="29"/><circle r="1" fill="#7f8a8f" transform="matrix(.79042 25.25796 -131.90756 4.12791 183.5 33)"/><circle r="1" fill="#ebffff" transform="rotate(179.8 67 .1) scale(46.7519 13.61076)"/><ellipse cx="255" cy="162" fill="#a7acac" rx="60" ry="33"/><path fill="#241f21" d="M141 147L27 102l-5 49z"/><circle r="1" fill="#655d58" transform="matrix(47.7 2.46188 -.52546 10.18103 111 115.5)"/><circle r="1" fill="#673e28" transform="rotate(31.7 -91 138) scale(37.32232 11.6454)"/><circle r="1" fill="#2e1f19" transform="matrix(-20.51187 9.01827 -7.13834 -16.23601 197.8 107.1)"/><path fill="#7c8384" d="M205 90l-45-79-59 61z"/><ellipse cx="8" cy="134" fill="#bfc1bc" rx="15" ry="7"/><path fill="#957255" d="M103.4 96.6L42.2 81.4l-16-5.5 5.1-13.5z"/><path fill="#828079" d="M0 149h153v16H0z"/><circle r="1" fill="#677277" transform="matrix(13.26549 -25.16023 41.39484 21.82502 64.7 21.3)"/><path fill="#89918d" d="M19 85h6v35h-6z"/><path fill="#252121" d="M26 86h27v64H26z"/><ellipse cx="144" cy="138" fill="#2f2c2c" rx="41" ry="10"/><circle r="1" fill="#767672" transform="rotate(-113.5 112.6 -64.4) scale(62.04403 23.47775)"/><circle r="1" fill="#282225" transform="matrix(-.53117 5.87359 -34.75675 -3.1432 70.3 62.7)"/><path fill="#dcf3ff" d="M90-16l7 29 91-12z"/><path fill="#342c2d" d="M185 129h45v9h-45z"/><circle r="1" fill="#989b97" transform="matrix(.24695 -20.2303 54.32295 .66312 197.9 163.8)"/><circle r="1" fill="#7b858d" transform="matrix(28.12151 -1.01432 .49978 13.85618 124 25)"/><path fill="#87756c" d="M146 117l42 15-12-13z"/><circle cx="146" r="15" fill="#d4eaff"/><path fill="#535a5b" d="M112.9 49.8l-11.3 12.1-24.7-5.5-11.1-30.1z"/><path fill="#696b69" d="M187 2l-23 94 69-48z"/><path fill="#6f716f" d="M160 71l-10 21-48-18z"/><path fill="#a0a5a6" d="M228 130h28v16h-28z"/><path fill="#abb5ab" d="M35 68h7v11h-7z"/><path fill="#8d8987" d="M203 123h19v6h-19z"/><path fill="#4e5552" d="M257.4 131.2l-28-1.4 1.2-21 28 1.4z"/><path fill="#312521" d="M239.3 113.8l-56.7 15.4-2.7-42.3-21.4 30.2z"/><path fill="#7e7776" d="M119 115h35v5h-35z"/><path fill="#7f8588" d="M151.1 32.9L271-8.2 195.9 2 154 10.9z"/><path fill="#261e1b" d="M30.1 56l.8 44h-3L27 56z"/><path fill="#7e868d" d="M77 3h15v31H77z"/><path fill="#494844" d="M207 66l-16 8 33 29z"/><path fill="#8f8c86" d="M1 185l-9-42 40 10z"/><path fill="#8d8f8e" d="M37 16l19-4 11 27z"/><path fill="#26201f" d="M67 88l-22 34-20-45z"/><path fill="#644632" d="M130 99h75v11h-75z"/><path fill="#a2a190" d="M85 80h6v7h-6z"/><path fill="#505959" d="M8.2 10.3L-16-7.3v55.5l67.2-15.9z"/><path fill="#474843" d="M46 125l-15-14-47 13z"/><path fill="#2c372e" d="M47.1 3.9l14.6-.7L75-7l-35.1-9z"/><circle r="1" fill="#6f716b" transform="matrix(-17.80546 -21.62755 14.95718 -12.3139 4 87)"/><path fill="#212b2e" d="M66.2 90l65 16.2-1.4 5.8-65-16.2z"/><circle r="1" fill="#413a37" transform="rotate(-6.7 1162.7 -892.5) scale(28.5013 11.83932)"/><ellipse cx="68" cy="156" fill="#807d78" rx="56" ry="7"/><path fill="#85847d" d="M162 91l16 5-13-19z"/><path fill="#412e28" d="M209 87l3-58h1l-3 58z"/><path fill="#717676" d="M58.7-.7L48.4 54.1l62.9-3.7-47 10.2z"/><path fill="#7f5940" d="M67 69l10 21-37-10z"/><path fill="#71777a" d="M135 90l-26-70-50-36z"/><path fill="#7f8588" d="M163.3 21.3l14.7 47-19.4.7-37.1-57.4z"/><path fill="#4e352b" d="M95.7 99.4L25.3 41.3l35.2 18.3 9.7 25.2z"/><path fill="#514b48" d="M64 101h34v24H64z"/><path fill="#362b28" d="M123.8 89.8l-8-17.6-8.1 10.1 80.5 21.4z"/><circle r="1" fill="#61686a" transform="matrix(13.99337 -22.6572 9.88349 6.10417 192 29)"/><path fill="#302d2d" d="M90.2 55.2l6.3 3.4-8.3 18L72 105.9z"/><circle r="1" fill="#694e3a" transform="rotate(91.6 7.2 92.5) scale(8.5896 11.68677)"/><path fill="#8d8f89" d="M238.3 137.5l-61.9 8.1-17.1 1.7L97.7 185z"/><circle r="1" fill="#3b3028" transform="matrix(-2.121 6.52775 -3.39539 -1.10323 158 89.2)"/><path fill="#372d2b" d="M24 124h60v26H24z"/><path fill="#3e3736" d="M27 58.5l13.2 70.6 92.4 6.5-107.8 4z"/><path fill="#2f2828" d="M52 109h44v4H52z"/><path fill="#6f5d52" d="M139.5 106.6l41 17.4-40.6 1.9 18.3-44.2z"/><circle cx="248" cy="68" r="36" fill="#726e67"/><path fill="#292626" d="M224 105h5v34h-5z"/><path fill="#36302d" d="M174.5 89.9l3.3-3.9 5.9 5 4 22.8z"/><circle r="1" fill="#222024" transform="matrix(-19.90774 -6.7384 1.0321 -3.04922 180.7 113.7)"/><path fill="#828687" d="M214 16h39l-38 26z"/><path fill="#272323" d="M197.3 127.7l7.2-18.9 4-29.6 5.8 21.1z"/><ellipse cx="103" cy="11" fill="#d6edff" rx="7" ry="4"/><circle r="1" fill="#707677" transform="matrix(-25.78458 -11.49412 1.60393 -3.59807 33.6 40.2)"/><path fill="#050b11" d="M42 123l-5-18 18 16z"/><path fill="#d7eafb" d="M131.2 13.9l25.3-2.2L201.4-16 183.8 4.9z"/><ellipse cx="240" cy="4" fill="#737674" rx="55" ry="12"/><path fill="#5f615f" d="M258.4 106.6l-23.7 18-4.5 2.8-.7-24z"/><ellipse cx="145" cy="84" fill="#82847e" rx="8" ry="7"/><path fill="#404947" d="M15 59l-7 9 17 1z"/><path fill="#929288" d="M22.9 142l-27.1-18.1-11.8-1.5 38.2 5.7z"/><path fill="#43342e" d="M121.5 76.6l-17.4 35.1 24.5.8 13.9.3z"/><path fill="#626463" d="M145.6 83l-4.1-33.7 23.4 30.4-85.3 5.2z"/><path fill="#828583" d="M99 71l50-1-27-7z"/><path fill="#362a26" d="M50.5 60.2l68.6 27.3-43-32.2L90.3 79z"/><circle r="1" fill="#373130" transform="matrix(-44.2132 -2.78166 .52866 -8.40283 116.6 141)"/><path fill="#858785" d="M201.6 46.4l13-40 3.8 1.2-13 40z"/><path fill="#80868a" d="M159 9h24v14h-24z"/><path fill="#3a3231" d="M187.1 108.9l-4.5 32h6.4l25.3 1.6z"/><path fill="#9ea49b" d="M36.6 73.2l-4 .5-1.2-8.9 4-.5z"/><path fill="#734f3b" d="M166.3 122.4l-34-31.4 30 8.7-5.5 17.9z"/><circle cx="128" cy="15" r="5" fill="#6a747c"/><path fill="#d2e4f6" d="M100.9 7.2l-32-12.5L148 15.1l50.4-22.6z"/><path fill="#8f918d" d="M213.3 136.5l57.7 23.9-35.8-26.5-34.4 16.3z"/><path fill="#899093" d="M80-3l13 45-14-18z"/></g></g></svg>