<svg xmlns="http://www.w3.org/2000/svg" viewBox="0 0 4000 2666"><defs/><filter id="a"><feGaussianBlur stdDeviation="12"/></filter><rect width="100%" height="100%" fill="#563f33"/><g filter="url(#a)"><g fill-opacity=".5" transform="translate(7.8 7.8) scale(15.625)"><circle r="1" fill="#daf0e5" transform="matrix(108.30924 143.9029 -134.8557 101.49983 122.8 53.4)"/><ellipse cx="69" cy="4" fill="#fff" rx="192" ry="15"/><circle r="1" fill="#827762" transform="matrix(254.41996 17.18961 -2.83954 42.02745 74.8 134.8)"/><circle r="1" fill="#ecf8f5" transform="rotate(-73.1 32.7 -41.8) scale(32.26392 76.89454)"/><path fill="#303f00" d="M68 103l23-6v70z"/><ellipse cx="143" cy="39" fill="#222728" rx="7" ry="18"/><circle r="1" fill="#7e96a2" transform="matrix(-7.41742 -33.38809 91.596 -20.34875 237.4 28.6)"/><path fill="#a7bcbc" d="M58 17h81v37H58z"/><ellipse cx="199" cy="91" fill="#938d7d" rx="109" ry="49"/><ellipse cx="32" cy="6" fill="#fffff8" rx="69" ry="12"/><path fill="#525962" d="M0 19h146v2H0z"/><ellipse cx="173" cy="25" fill="#b1bec3" rx="25" ry="15"/><path fill="#262221" d="M141.1 50.2l-2.5-41.1 9.6 20.3 1.4 4.1z"/><ellipse cx="217" cy="51" fill="#688182" rx="51" ry="11"/><path fill="#e8f1ef" d="M85.4-3.1l47.1 17.4 39.5.3 1.9-18.7z"/><path fill="#30221e" d="M50 33h4v22h-4z"/><path fill="#9c9282" d="M85 111l5-52-56-15z"/><circle r="1" fill="#978f84" transform="matrix(58.6015 46.37573 -19.54773 24.70098 12 83.8)"/><path fill="#b9c0cd" d="M278.8-10l1.3 24-112.9 6L166-4z"/><ellipse cx="87" cy="136" fill="#374203" rx="4" ry="25"/><circle r="1" fill="#c2cec5" transform="matrix(.17047 -4.06008 37.37948 1.56942 92.4 50)"/><path fill="#c4cdcc" d="M21 23h89v9H21z"/><path fill="#75928c" d="M73.1 35l62 2-.2 6-62-2z"/><path fill="#719096" d="M-16 56.8l63.9-18.7-23.5-11.2-40.4 3.7z"/><path fill="#3e160e" d="M207 52l4-11-1 19z"/><path fill="#4d4c00" d="M70 95h5v16h-5z"/><path fill="#9a9484" d="M149 41l-48 64 139 57z"/><path fill="#2b2721" d="M142 18l1-5-7 3z"/><path fill="#7e8e98" d="M271 71V17H165z"/><path fill="#494b07" d="M89.9 116.6L86.1 90l4-.5 3.8 26.7z"/><path fill="#fffff1" d="M56.3 17.5l-60 1-.6-34 60-1z"/><path fill="#817b71" d="M77 149l51 36-144-29z"/><path fill="#666a20" d="M73.7 125.7L89 163.4l-4.8-44-17-36z"/><path fill="#a19988" d="M81 95h5v24h-5z"/><path fill="#707d86" d="M0 19h53v4H0z"/><path fill="#999383" d="M94 115l43 47 72 13z"/><circle cx="153" cy="34" r="5" fill="#bfd1cc"/><path fill="#464c18" d="M88.8 149.8l7.1 6.9-6.8-24.2L74 96z"/><path fill="#a7bcb9" d="M25 44h24v6H25z"/><path fill="#463d33" d="M144.4 29.3L142.2 64l6.6-33.5L134 64.1z"/><path fill="#c2cbca" d="M137 14l2 23-19-6z"/><path fill="#979083" d="M0 52h71v58H0z"/><ellipse cx="131" cy="1" fill="#e0e5e0" rx="51" ry="14"/><ellipse cx="156" cy="48" fill="#8aa8a0" rx="12" ry="10"/><circle r="1" fill="#464231" transform="matrix(.69964 4.64016 -2.07443 .31278 175.2 53.6)"/><path fill="#91a4a2" d="M172 21h36v27h-36z"/><path fill="#676e62" d="M231 61h25v4h-25z"/><path fill="#acb7ba" d="M0 23h54v4H0z"/><path fill="#e4e4d9" d="M48 10h83v8H48z"/><ellipse cx="71" cy="73" fill="#999081" rx="210" ry="16"/><path fill="#847d6e" d="M271 181.7l-116.2-55.8-22 12.6L271 185z"/><path fill="#adbabb" d="M158.4 27.4l38.9 9.6-46.2-3.6-9.9-22.2z"/><path fill="#999484" d="M92 94h31v36H92z"/><path fill="#cad1d2" d="M146 6h40v12h-40z"/><path fill="#7c908b" d="M179 40h30v20h-30z"/><path fill="#464e13" d="M92 126l-7-18 4-17z"/><path fill="#a0b2ac" d="M55 33h39v15H55z"/><circle cx="52" cy="45" r="2" fill="#001d38"/><path fill="#979283" d="M61 77.5l21.4 33.2 17.9-55.6-47.5-3.2z"/><path fill="#9da6b3" d="M214 7h42v10h-42z"/><ellipse cx="159" cy="19" fill="#606567" rx="35" ry="1"/><circle r="1" fill="#938b7f" transform="matrix(15.73491 16.63709 -31.8729 30.14453 235.7 99.3)"/><circle r="1" fill="#d8dfda" transform="matrix(37.43837 -1.3728 .03664 .99933 85.2 28)"/><path fill="#b4bcba" d="M92 19.6l-66.1 14 38.5-.6L49 21.4z"/><circle r="1" fill="#5e3a24" transform="matrix(1.11203 5.98539 -1.23876 .23015 144 52.6)"/><path fill="#353513" d="M87 137l2 20 5-13z"/><path fill="#302e2a" d="M144 27l6 15-13-16z"/><path fill="#473127" d="M71 72h7v2h-7z"/><path fill="#837d6e" d="M83 185l15-52 10 52z"/><path fill="#7a968f" d="M116 38h24v8h-24z"/><path fill="#707683" d="M208 18h48v3h-48z"/><path fill="#918979" d="M91 130h43v13H91z"/><path fill="#383633" d="M139.7 16.9l3.1 14.1-5.7 26.6L150.7 31z"/><path fill="#a0b2ae" d="M99 30h30v7H99z"/><path fill="#aaafb0" d="M82 20h58v5H82z"/><circle r="1" fill="#868175" transform="matrix(47.80592 -5.43769 1.5451 13.58383 37.2 157)"/><path fill="#9b9385" d="M84 91l1 27-10-26z"/><path fill="#ccd3ca" d="M71 50h41v3H71z"/><path fill="#573d2f" d="M139 14h4v18h-4z"/><path fill="#989384" d="M41 95l27-1 9 47z"/><path fill="#4f5214" d="M88.6 133.5l-1 .5-20.2-43.5 1-.5z"/><path fill="#fffff6" d="M16 0h28v18H16z"/><path fill="#7b7764" d="M72 152h14v14H72z"/><path fill="#e4e9e4" d="M166.5-16L150.8 3.3l-27.7-5.7 12.5 21.5z"/><ellipse cx="52" cy="39" fill="#412d23" rx="2" ry="6"/><path fill="#cad0cc" d="M46 22h49v9H46z"/><path fill="#847e6a" d="M211.2 124.9l-12.5-.1 12.4 8.3 27.7 14.4z"/><path fill="#788c89" d="M26 45L-7 30l56 9z"/><path fill="#969389" d="M44.9 42l27.5 21.8.4 12.1L39.1 35z"/><path fill="#534139" d="M208 41h4v21h-4z"/><path fill="#7f9693" d="M199.8 50.1l12.2-.8-12.1-14.2-50.1 9.7z"/><path fill="#a7b5ae" d="M145 45l9 8-8 2z"/><path fill="#cfd6d3" d="M110 26h27v4h-27z"/><circle cx="11" cy="104" r="40" fill="#918d82"/><path fill="#0a1f25" d="M140 36h9v4h-9z"/><path fill="#9d9889" d="M164.2 108.2l2-5.7 69.6 25.3-2 5.7z"/><ellipse cx="52" cy="18" fill="#b8b9b1" rx="85" ry="1"/><circle r="1" fill="#929fa3" transform="matrix(-2.1173 -8.70735 24.07772 -5.85477 203.4 30.8)"/><path fill="#c2cdc5" d="M50.9 47.3l1-.4 1.2 3.8-1 .4z"/><path fill="#b5bfb7" d="M55 43h30v8H55z"/></g></g></svg>