<svg xmlns="http://www.w3.org/2000/svg" viewBox="0 0 1200 1800"><defs/><filter id="prefix__a"><feGaussianBlur stdDeviation="12"/></filter><rect width="100%" height="100%" fill="#373841"/><g filter="url(#prefix__a)"><g transform="translate(3.5 3.5) scale(7.03125)"><circle cx="98" cy="101" r="167" fill="#edf7fd" fill-opacity=".5"/><ellipse cx="94" cy="218" fill="#4c4e56" fill-opacity=".5" rx="169" ry="48"/><circle r="1" fill="#b8bdc3" fill-opacity=".5" transform="matrix(-168.95629 3.84348 -1.8231 -80.14202 99.4 92.5)"/><path fill="#2c1a02" fill-opacity=".5" d="M125 133l-23-11 7 17z"/><path fill="#695f52" fill-opacity=".5" d="M17.4 142.9l20.3 62.3-28.1-54.8-18.8-44.7z"/><circle r="1" fill="#99a5b8" fill-opacity=".5" transform="rotate(97.8 13.8 41) scale(65.43766 158.64061)"/><circle cx="64" cy="131" r="40" fill="#bcbbb5" fill-opacity=".5"/><path fill="#9097a1" fill-opacity=".5" d="M2.1 235.6L15 246.8l-17 19.6-12.8-11.2z"/><circle r="1" fill="#c0c3c3" fill-opacity=".5" transform="matrix(-6.33702 17.60176 -54.44364 -19.60092 152.4 124.9)"/><path fill="#e0d8c8" fill-opacity=".5" d="M-2.9 123.6L23 181.1l-10.9-14.4-28.1 12.2z"/><circle r="1" fill="#5e523f" fill-opacity=".5" transform="matrix(-2.93148 50.80495 -4.35223 -.25113 27.7 236.8)"/><path fill="#918a7c" fill-opacity=".5" d="M102.4 127.9l5.8 8.8-71.5-5 93 16.7z"/><circle r="1" fill="#8b8982" fill-opacity=".5" transform="rotate(15.7 -770 489.4) scale(106.47189 5.89303)"/><ellipse cx="40" cy="173" fill="#616a79" fill-opacity=".5" rx="169" ry="3"/><circle r="1" fill="#909caa" fill-opacity=".5" transform="matrix(112.02899 -16.75637 2.15582 14.4133 124.5 79)"/><ellipse cx="43" cy="110" fill="#bdc1c3" fill-opacity=".5" rx="43" ry="11"/><circle r="1" fill="#898476" fill-opacity=".5" transform="matrix(-.44225 1.88829 -92.18394 -21.5902 40.8 127.5)"/><path fill="#abb1b9" fill-opacity=".5" d="M73 34l107 30-11-80z"/><path fill="#c5beaf" fill-opacity=".5" d="M37 192.5l.3-1 117.7 36-.3 1z"/><path fill="#b6afa7" fill-opacity=".5" d="M15 186l13-3-31-6z"/><circle r="1" fill="#94a3b7" fill-opacity=".5" transform="rotate(79.4 19.3 31.5) scale(29.58713 122.96799)"/><ellipse cx="70" cy="119" fill="#bdc0c3" fill-opacity=".5" rx="41" ry="11"/><path fill="#bfbcb1" fill-opacity=".5" d="M5 120l24 52 23-6z"/><path fill="#979283" fill-opacity=".5" d="M150 157l-33-16 65 12z"/><path fill="#595f6b" fill-opacity=".5" d="M124 271l61-14-72-20z"/><path fill="#34302a" fill-opacity=".5" d="M25 213h4v33h-4z"/><ellipse cx="157" cy="191" fill="#606976" fill-opacity=".5" rx="45" ry="21"/><path fill="#b2b3ae" fill-opacity=".5" d="M27 153h143v18H27z"/><path fill="#646872" fill-opacity=".5" d="M94 247l-110 4 77-28z"/><path fill="#3a4658" fill-opacity=".5" d="M149.4 238.2l22 6.7-.8 2.9-22-6.7z"/><path fill="#bec0c0" fill-opacity=".5" d="M91.5 137.7l60.5 10.1-112.1-29.5 17.6 11.2z"/><circle cy="255" r="6" fill="#bfbcb6" fill-opacity=".5"/><path fill="#020400" fill-opacity=".5" d="M4.7 251.4l.2-1 14.4 4.2-.2 1z"/><circle r="1" fill="#332f29" fill-opacity=".5" transform="matrix(7.54706 4.97816 -1.10192 1.67055 112.8 131.4)"/><path fill="#454a54" fill-opacity=".5" d="M10 196h24v4H10z"/><circle r="1" fill="#afb2b4" fill-opacity=".5" transform="rotate(-82.5 45.5 26.8) scale(19.23461 22.78929)"/><path fill="#5e5a58" fill-opacity=".5" d="M18.6 169.4l-1.2-9.8L-16 91l22.4 48.6z"/><path fill="#5f6779" fill-opacity=".5" d="M0 207h20v42H0z"/><path fill="#cbcbc4" fill-opacity=".5" d="M0 162h16v9H0z"/><path fill="#a19d96" fill-opacity=".5" d="M39.6 211.6l-50-14.3.8-3 50 14.4z"/><path fill="#787064" fill-opacity=".5" d="M105.2 144l69.8 10.4-62-12.2 7.4-12z"/><path fill="#ada597" fill-opacity=".5" d="M18.2 153.7l5.2 26.3-12.9-24.7 16.4 39.1z"/><circle r="1" fill="#99a2ad" fill-opacity=".5" transform="matrix(-42.27263 18.6126 -9.46064 -21.48684 69.8 76.4)"/><path fill="#606674" fill-opacity=".5" d="M-14.3 172.9L2 179.6l-11.4 20.2 25-27.8z"/><path fill="#8e9aad" fill-opacity=".5" d="M23 20h46v15H23z"/><path fill-opacity=".5" d="M-4.3 185.3l-.2-1 8.8-1.6.2 1z"/><path fill="#535962" fill-opacity=".5" d="M46 224h25v6H46z"/><path fill="#999893" fill-opacity=".5" d="M171 234.2l11 7.1-10.7-11.9-27.9-5.3z"/><path fill="#2f2f2d" fill-opacity=".5" d="M110 132h14v3h-14z"/><path fill="#babdbd" fill-opacity=".5" d="M149 122l-31 20 47 5z"/><path fill="#7a6f5f" fill-opacity=".5" d="M15.3 122l-.5.8-26-12.7.4-1z"/><path fill="#574f44" fill-opacity=".5" d="M26 182l3 17 5-11z"/><path fill="#97958b" fill-opacity=".5" d="M179.4 253.6l-20.6-8.6 9.1 12.5 2.7-5.4z"/><path fill="#e2cdb1" fill-opacity=".5" d="M19 186h6v2h-6z"/><path fill="#524f4e" fill-opacity=".5" d="M12 150.6l.9-.3 19.1 45-.9.4z"/><circle r="1" fill="#9aa5b3" fill-opacity=".5" transform="rotate(22.7 38.4 320.6) scale(28.05092 14.80687)"/><circle r="1" fill="#878075" fill-opacity=".5" transform="matrix(-4.29983 79.39401 -.99854 -.05408 22.7 247.1)"/><path fill="#73777d" fill-opacity=".5" d="M64 234.2l-33.2 3.1-3.2 33.7 9.1-5.5z"/><circle cx="105" cy="220" r="3" fill="#3b4456" fill-opacity=".5"/><path fill="#404a59" fill-opacity=".5" d="M155 223l-9-2v-8z"/><circle r="1" fill="#94918a" fill-opacity=".5" transform="matrix(67.0872 15.51893 -.22537 .97427 113.3 226.6)"/><ellipse cx="116" cy="107" fill="#b3b7bb" fill-opacity=".5" rx="148" ry="8"/><circle r="1" fill="#a1aec1" fill-opacity=".5" transform="matrix(17.659 -1.28777 .57186 7.8418 18.6 1.4)"/><path fill="#69707c" fill-opacity=".5" d="M28 172h99v13H28z"/><path fill="#6f6c66" fill-opacity=".5" d="M4.7 123.2l41.5 93.2-1 .4-41.4-93.2z"/><path fill="#39352e" fill-opacity=".5" d="M26 206h2v40h-2z"/><path fill="#585f6c" fill-opacity=".5" d="M141 230l-5-9-26 1z"/><circle r="1" fill="#999181" fill-opacity=".5" transform="matrix(-52.97136 -14.7832 .2688 -.9632 143 242.7)"/><path fill="#635341" fill-opacity=".5" d="M108.8 123.4l2.8 6.4-6.4 2.8-2.8-6.4z"/><path fill="#747983" fill-opacity=".5" d="M34 173l-2 35 33-35z"/><path fill="#4f535a" fill-opacity=".5" d="M46 238.8l-44-1.6v-2l44 1.6z"/><path fill="none" stroke="#656264" stroke-opacity=".5" stroke-width=".5" d="M122.5 137.5q-.7-3.6 10-2.7"/><path fill="none" stroke="#8d8d8b" stroke-opacity=".5" stroke-width=".5" d="M185 269.8q-58.5-92.7-78-122.8"/><path fill="#969590" fill-opacity=".5" d="M66.4 172.8l-.7-.7 29.9-31 .7.8z"/><circle r="1" fill="#857f74" fill-opacity=".5" transform="matrix(97.387 17.1667 -.1736 .98482 163 152.3)"/><circle r="1" fill="#948f86" fill-opacity=".5" transform="matrix(.2957 -.95528 161.44204 49.97466 37.6 210.4)"/><path fill="#b4b5b1" fill-opacity=".5" d="M86.1 141.1l-24.5-6.3-48.3-12.5 16.8 48.3z"/><path fill="#525963" fill-opacity=".5" d="M60 235h33v3H60z"/><path fill="#7e7b75" fill-opacity=".5" d="M3 133.5l18.3-14-17.3 8L-16 63z"/><ellipse cx="123" cy="253" fill="#5d6168" fill-opacity=".5" rx="2" ry="35"/><path fill="#a4a39d" fill-opacity=".5" d="M-8.4 103l1-.5L26.3 175l-1 .5z"/><path fill="#68645c" fill-opacity=".5" d="M1 119l6 10-12-1z"/><path fill="#575f6e" fill-opacity=".5" d="M143.9 240.9l-58-18.8.2-1 58 18.8z"/><path fill="#787b7e" fill-opacity=".5" d="M125.3 249.1l-10.8-17.7 21.4 20.6 20.2-8.4z"/><path fill="#3d3d3c" fill-opacity=".5" d="M6 249h5v7H6z"/><path fill="#918c80" fill-opacity=".5" d="M28 230h1v17h-1z"/><path fill="#8d8d8a" fill-opacity=".5" d="M133.2 174.2l.8-.5 46.8 72-.8.6z"/><path fill="#5c6370" fill-opacity=".5" d="M68 195h41v5H68z"/><path fill="#93938f" fill-opacity=".5" d="M148 151.1l-19.2 20.5-.7-.7 19-20.5z"/><path fill="none" stroke="#c7bdaf" stroke-opacity=".5" stroke-width=".5" d="M25.6 184Q22 189 5 181"/><path fill="#bbbdbf" fill-opacity=".5" d="M40 125.7l47.9 11.1 17.3 2.1-13.1-22.5z"/><path fill="#515b69" fill-opacity=".5" d="M154 232h16v4h-16z"/><path fill="#d0c5ae" fill-opacity=".5" d="M5.9 140.6L23 181l-1 .3L5 141z"/><path fill="#444954" fill-opacity=".5" d="M113 249h13v3h-13z"/><path fill="#626772" fill-opacity=".5" d="M40 193.4l25.2 8.4-35.8.4 14.2-13.6z"/><path fill="#acafaf" fill-opacity=".5" d="M185 156.8l-32.1 16.1-72.1-29.6 74.8 8.6z"/><path fill="#938779" fill-opacity=".5" d="M103.5 136.7l-1.1-7.4-5.1-3 13.9 5z"/><path fill="#95928c" fill-opacity=".5" d="M30.3 204l21.1 6.1-1.7 5.8-21.1-6z"/><path fill="none" stroke="#9b9d9f" stroke-opacity=".5" stroke-width=".5" d="M30.8 35.7Q30 74 158.8 271"/><path fill="#8a8a87" fill-opacity=".5" d="M128 194.4l57.3-51.5.6.7-57.2 51.5z"/></g></g></svg>