<svg xmlns="http://www.w3.org/2000/svg" viewBox="0 0 1800 1200"><defs/><filter id="a"><feGaussianBlur stdDeviation="12"/></filter><rect width="100%" height="100%" fill="#2e415c"/><g filter="url(#a)"><g fill-opacity=".5" transform="translate(3.5 3.5) scale(7.03125)"><circle cx="167" cy="12" r="129" fill="#fff"/><ellipse cx="40" cy="122" fill="#688cb2" rx="242" ry="25"/><ellipse cx="151" cy="12" fill="#fdffff" rx="105" ry="24"/><circle r="1" fill="#4a3f38" transform="matrix(46.08201 9.66914 -6.84676 32.63085 50.6 54.1)"/><circle r="1" fill="#a9bed2" transform="matrix(-6.17126 -16.2696 70.3523 -26.6855 81.3 100.8)"/><circle r="1" fill="#edffff" transform="matrix(3.4532 -8.3166 34.92156 14.50005 25.8 0)"/><circle r="1" fill="#425f7d" transform="matrix(106.81364 -18.25799 3.02663 17.70649 131.8 136.6)"/><circle r="1" fill="#625d5d" transform="rotate(-77.4 45 .8) scale(30.01554 71.18812)"/><ellipse cx="225" cy="6" fill="#cedfed" rx="193" ry="28"/><path fill="#423323" d="M243.4 169L139 181.8l-4.5-36.8L239 132.2z"/><circle r="1" fill="#3e3e45" transform="rotate(67.3 -57.9 58) scale(24.17229 53.81689)"/><ellipse cx="197" cy="50" fill="#898072" rx="115" ry="12"/><ellipse cx="57" cy="125" fill="#6886aa" rx="67" ry="15"/><ellipse cx="102" cy="68" fill="#a7b8c7" rx="27" ry="9"/><ellipse cx="181" cy="81" fill="#b1c1c8" rx="102" ry="11"/><circle r="1" fill="#605853" transform="matrix(76.26885 24.0645 -5.42827 17.20408 28.4 30.1)"/><circle r="1" fill="#728eae" transform="matrix(22.5851 21.0559 -14.45102 15.50054 239.6 113.4)"/><ellipse cx="217" cy="58" fill="#5982b0" rx="110" ry="5"/><path fill="#facd99" d="M172 50h84v3h-84z"/><path fill="#625e61" d="M240.5 143.8l30.5 21.7-95.7-16.3h-4.2z"/><path fill="#27272b" d="M-16 14.8v127.9L21 97l-8.9-5.7z"/><path fill="#6e7c8e" d="M39.6 90.7l-47.1 42.6 83.7-44.1 14.3-8.7z"/><ellipse cx="56" cy="2" fill="#b3c6e1" rx="40" ry="10"/><circle r="1" fill="#4b6b8a" transform="rotate(77.8 -89.4 82) scale(12.42391 60.82801)"/><circle r="1" fill="#141615" transform="matrix(.38755 6.35576 -31.95702 1.9486 166.6 167.4)"/><path fill="#dce0df" d="M271 28.8L56.5 17l25.7 16.3 5.4 1.7z"/><circle r="1" fill="#3f5c7f" transform="rotate(178.9 83.7 69.6) scale(48.57055 6.42455)"/><circle r="1" fill="#9cb0c7" transform="rotate(-21 315 -141.2) scale(28.79036 10.56874)"/><path fill="#8e7a75" d="M8 41.7L2 31.3l26-15 6 10.4z"/><ellipse cx="171" cy="61" fill="#cabeac" rx="5" ry="29"/><path fill="#7d7b80" d="M2 52h50v7H2z"/><path fill="#58749b" d="M96.4 60.1l-24.8 1-65.7 7.4 70.7.8z"/><path fill="#3d414b" d="M57.9 48l17.6-12 34.7 25.9-84-38.5z"/><path fill="#908685" d="M263.3 169.8l-13.8 2.2-2.8-17.8 13.8-2.2z"/><circle r="1" fill="#3e4754" transform="matrix(-19.9829 8.54004 -2.30709 -5.39837 65.8 79.4)"/><path fill="#26211f" d="M271 119.6l-46.5 51.5 33.2-5.4-15-2.7z"/><path fill="#728dab" d="M74 105h182v15H74z"/><path fill="#cad4dc" d="M193 0h63v35h-63z"/><path fill="#826b5a" d="M60 55l46-11 14 14z"/><path fill="#577292" d="M159.6 116.4l-16.5 42.5 27.1-17.3-93.1-22.8z"/><ellipse cx="167" cy="35" fill="#a9aaaf" rx="109" ry="2"/><path fill="#89a4bd" d="M116 91h116v17H116z"/><path fill="#2f2f30" d="M144.9 141.3l5.7 21.3-15.5 4.1-5.7-21.3z"/><path fill="#394048" d="M-16-1.8l65.4 30.6-65 19.8 83.1-19z"/><path fill="#193142" d="M30 164h102v6H30z"/><path fill="#526c91" d="M236 147l21-17-17-16z"/><path fill="#b7c8db" d="M57.2 18L10 1.9 16.9-18 64-1.8z"/><path fill="#3a4253" d="M73 58l-60-1-8 24z"/><path fill="#aa9373" d="M114 47h104v7H114z"/><path fill="#5f5e58" d="M5 0l11 22 49 1z"/><path fill="#151316" d="M236 134l-1 10-18-7z"/><path fill="#9e8b78" d="M68.7 31.8l4.8 3.4 53.7 34.7-59.3-46z"/><path fill="#587496" d="M198.1 125.1l-2.6 21.7 65.3-32.5-125.3 5.8z"/><path fill="#fbe9cc" d="M178 63l-19 4 5-5z"/><circle r="1" fill="#778ea9" transform="matrix(-45.96217 -5.318 1.19296 -10.31044 220.2 110.7)"/><path fill="#80818b" d="M213 153l16-10-15 4z"/><path fill="#5d7a9c" d="M0 125h59v18H0z"/><path fill="#b0bcc6" d="M94 65h43v30H94z"/><ellipse cx="128" cy="38" fill="#a6abb3" rx="27" ry="6"/><path fill="#423f44" d="M23.2 98.9L8.1 95 2.2 59.5l50.7 37.2z"/><circle r="1" fill="#bbcfe6" transform="matrix(.10153 9.31209 -94.4874 1.0302 186.5 0)"/><ellipse cx="241" cy="50" fill="#e2c8a9" rx="27" ry="2"/><ellipse cx="148" cy="150" fill="#827b7c" rx="4" ry="5"/><path fill="#9babba" d="M189 67h67v28h-67z"/><path fill="#343b47" d="M117.2 57.4L72.5 61l-77.4 4.7-11.1-4.3z"/><path fill="#818d9d" d="M99.7 72.4L58.1 61.5l36.5 1.7-60 54.1z"/><path fill="#efc28a" d="M102 51h6v6h-6z"/><path fill="#7993b5" d="M29 111h69v13H29z"/><path fill="#40454d" d="M42.2 29.4l46 13.1-2.7 5.4-12.1 2.7z"/><ellipse cx="228" cy="59" fill="#6d86a3" rx="57" ry="6"/><path fill="#2d2f3c" d="M103 58L92 48v10z"/><path fill="#6b5e50" d="M102.5 50.8l.7-2.6L63 23.1l53.9 30z"/><path fill="#222020" d="M246 160l-16-9-11 34z"/><ellipse cx="88" cy="57" fill="#a79a92" rx="3" ry="8"/><path fill="#496581" d="M123.1 150.9l31.2-16.3-72.4-.3-25.7 15.8z"/><path fill="#6c7276" d="M22.7 13l-27-29L.4 4.4l13-3z"/><path fill="#d9e1e3" d="M145 12h67v23h-67z"/><path fill="#7a6f62" d="M163 67h13v3h-13z"/><path fill="#373637" d="M154 184l15-38 25-8z"/><path fill="#98abc1" d="M80.4 80.8L52.2 112l49.3-1.8-18.2-4.5z"/><circle r="1" fill="#58575f" transform="matrix(-13.95347 -18.25054 1.94393 -1.48624 203.4 162.5)"/><path fill="#a09078" d="M174 44h82v6h-82z"/><path fill="#6f8199" d="M8 102h49v2H8z"/><path fill="#f9ddc4" d="M166 51h18v2h-18z"/><path fill="#b7c8dc" d="M54.6-3.6l-18.7 18L25.4 3.6l18.7-18z"/><path fill="#9097a0" d="M56 33h13v2H56z"/><path fill="#0c0e0c" d="M143.7 178.6l22.7-24.4-4.4 10.2-23.8 2.2z"/><path fill="#86a0b9" d="M165 57l-7 17-57-15z"/><path fill="#726463" d="M-15 8l33 16 1 27z"/><path fill="#352e2b" d="M246 153.5l-3-10.5 21-6.5 3.2 10.5z"/><path fill="#7e8ea4" d="M96 72.4L111.9 90 87.2 62.1l-36.9 1.7z"/><path fill="#8c7e78" d="M26.9 34.7l-16.8 1 8.1-12.2 4 2.2z"/><path fill="#a19c9b" d="M217 32h14v14h-14z"/><path fill="#537194" d="M128.3 114.5l84.1 18.2-112.6-6 62.7-13.1z"/><ellipse cx="170" cy="66" fill="#dfd1c1" rx="1" ry="30"/><path fill="#363842" d="M2 99l28-28 54-1z"/><path fill="#d8dad8" d="M232 21h24v13h-24z"/><path fill="#869bb1" d="M160.9 58.4l13.8-3.6 4.1 21.2 36.3-15.3z"/><path fill="#3e454c" d="M34.9 18.6l-3.6-9.1-47.3-6 4.1 5.5z"/><path fill="#8798ad" d="M62 104l-24-7 20-1z"/></g></g></svg>