<svg xmlns="http://www.w3.org/2000/svg" viewBox="0 0 1800 1200"><defs/><filter id="a"><feGaussianBlur stdDeviation="12"/></filter><rect width="100%" height="100%" fill="#28405d"/><g filter="url(#a)"><g fill-opacity=".5" transform="translate(3.5 3.5) scale(7.03125)"><circle cx="133" cy="9" r="165" fill="#90a5b4"/><circle r="1" fill="#322006" transform="matrix(29.0438 -.22092 .98425 129.3975 174 154.5)"/><circle r="1" fill="ivory" transform="matrix(-7.86763 9.11542 -22.9849 -19.83855 207.7 79.8)"/><path fill="#ffd38e" d="M146 92l-36 3 29 90z"/><circle r="1" fill="#ffe" transform="matrix(5.62635 -22.13954 8.66715 2.2026 82.4 149)"/><path fill="#00080f" d="M69.6 156.6l5.1-24.9-90.5 2.7L5.6 185z"/><circle r="1" fill="#fbe9c9" transform="matrix(-.81772 25.82187 -7.9607 -.2521 233.3 125.7)"/><circle cx="31" cy="45" r="89" fill="#4b80ba"/><ellipse cx="106" cy="155" fill="#885326" rx="23" ry="38"/><path fill="#100c00" d="M201 185l53.5-1.4 1.4-25.2-53.9-24.7z"/><circle r="1" fill="#4a88c9" transform="rotate(-24.3 193.6 -507) scale(27.91621 57.76132)"/><path fill="#251904" d="M155 180h52l-78-69z"/><path fill="#1f0600" d="M197.2 54.7l-35.5 6.2-4.9-27.6 35.5-6.2z"/><path fill="#b4b298" d="M149.1 128.6l-19.7-35.3 39.1 28.8 36.3 25.2z"/><path fill="#ffffd0" d="M62 27h21v10H62z"/><path fill="#4072aa" d="M82 0h76v81H82z"/><ellipse cx="78" cy="168" fill="#fff" rx="7" ry="33"/><circle r="1" fill="#1f0100" transform="matrix(6.14959 20.84952 -2.9389 .86683 131.6 59)"/><path fill="#593d0d" d="M62.3 54.2l13.2-2L81 39.1l-26.1-5.5z"/><circle r="1" fill="#1a2433" transform="matrix(-.67117 -15.37238 21.73435 -.94894 163.6 92.8)"/><path fill="#cdc8bc" d="M208.5 108.5l22.8-2.3L160.4 52l61.7 22.8z"/><path fill="#372d15" d="M192.5 185l29.7-80.2L271 74.5l-40.1 32.2z"/><path fill="#bcb6aa" d="M196.2 130.5L177 111.1l64.5 35.5-42.3-11.9z"/><ellipse cx="9" cy="104" fill="#708da5" rx="97" ry="28"/><path fill="#ffd6ae" d="M129.9 101.1l19 89L136 193l-19-89z"/><circle r="1" fill="#2f64a2" transform="matrix(61.92402 -47.00289 22.21214 29.26342 37.2 4.4)"/><path fill="#301200" d="M78 104h31v5H78z"/><path fill="#8b9aa0" d="M237 95h19v39h-19z"/><path fill="#2a180f" d="M117.1 147.9l-6.2-2.6-6.7 29.4 21.1-.4z"/><path fill="#211806" d="M76.9 70l-1-3.8 25.2-6.3 1 3.9z"/><path fill="#658db1" d="M125 52L15 102l120-3z"/><path fill="#2a2d30" d="M179.3 104.6l2.2 67.7-12.2-47.8-45.6-51.6z"/><path fill="#181610" d="M207.7 140l13.8 45-4.1-55.1 9.9-30.6z"/><circle r="1" fill="#3c444e" transform="matrix(14.41856 21.36183 -12.48398 8.42629 187.4 90.9)"/><circle r="1" fill="#7197bc" transform="matrix(10.7117 -1.50372 2.7959 19.9165 145.6 62.5)"/><path fill="#e3c4a2" d="M54.1 98.7l68 3.6-.2 3-68-3.6z"/><path fill="#6b787f" d="M46 94h6v76h-6z"/><path fill="#dadbd5" d="M214 73l21 14-21 30z"/><path fill="#63442a" d="M104 85v33l19 18z"/><ellipse cx="204" cy="8" fill="#3d71ad" rx="35" ry="23"/><path fill="#dddbd0" d="M222.5 141.7l1.5-23.5 10.7-13 2.4 42.3z"/><path fill="#6a4418" d="M181.8 48l2.9-21.2 15.1 10.1 2 25.9z"/><path fill="#382e20" d="M146 175l35-10-45-51z"/><circle r="1" fill="#646a5c" transform="matrix(-3.74787 5.55644 -21.66548 -14.61355 149.8 128.3)"/><path fill="#7a93ab" d="M103.1 114l-45.9 17.6 43.3-1.1 9.3 3.4z"/><path fill="#f1b577" d="M141 68l4 18-10-12z"/><path fill="#050700" d="M124 48l-2-19 15 35z"/><path fill="#fff7d7" d="M69 30h16v8H69z"/><path fill="#c4bca8" d="M138.6 91.5l-11.8 19.2 42.6 17.1-27-26.4z"/><path fill="#a29f95" d="M196.4 58.3l21.6 53.4-28.7-8.5 18 16.3z"/><path fill="#001127" d="M79 132l-27 2 1 26z"/><path fill="#948b7f" d="M83 146h15v24H83z"/><path fill="#fffff7" d="M74.9 185l12.6-51.6-9.2-1.1-2.7 17.1z"/><path fill="#272319" d="M163 28h29v31h-29z"/><ellipse cx="142" cy="1" fill="#3e76b4" rx="23" ry="47"/><path fill="#ffd6b3" d="M168 0h3v22h-3z"/><path fill="#6e5842" d="M54 179l17-46 3 52z"/><path fill="#d1c8b8" d="M215.1 113.8l-6.4 23.8-14.6-10.9 17.7.2z"/><path fill="#333735" d="M81.4 69.3L52.8 44.5l17.3-2 2.3 30.9z"/><path fill="#7b725e" d="M271 184.4l-24.2-64.6-21.7-35.6 22.1 53.2z"/><path fill="#001e30" d="M-16 132l59 53v-52z"/><path fill="#b4b1a3" d="M237.7 146.2l-22.9-5.5 11.9-21.9 7.4 38.8z"/><path fill="#5e5349" d="M49 102h30v4H49z"/><path fill="#e5e6e0" d="M215.5 84.4l-29.1-21.1 4-5.7 29.2 21.1z"/><circle r="1" fill="#3d6da5" transform="rotate(167.6 44.7 10.8) scale(20.50024 24.14675)"/><path fill="#161d23" d="M168 110.9l-21.4-3.8L192 135l27.1 10.8z"/><path fill="#001626" d="M243 132.4l8.6 21.3-4.6 1.9-8.6-21.3z"/><path fill="#828369" d="M224-14.7l18-12.6 38 54-18 12.6z"/><path fill="#c4c4bc" d="M210 61l-42-2 32 13z"/><ellipse cx="46" cy="117" fill="#253440" rx="2" ry="14"/><path fill="#c08f61" d="M115.2 100.9l17.2 52.6L108 105l-.4-3.8z"/><ellipse cx="35" cy="72" fill="#5080b0" rx="35" ry="33"/><path fill="#252d2f" d="M126.2 45.8l-1.5-.7L104.2-16h2.6z"/><circle r="1" fill="#5785b5" transform="matrix(2.24524 30.85477 -11.60321 .84434 118.6 70.3)"/><path fill="#555144" d="M261.6 75.3l-6 6.5-22.2 10.7-24.4 37.6z"/><circle r="1" fill="#f2dbc1" transform="rotate(76.2 -29.5 164) scale(43.24286 2.90557)"/><path fill="#bcb8af" d="M189 118l19 18 4-12z"/><path fill="#362616" d="M131 58h6v26h-6z"/><path fill="#3c4b57" d="M110.9 121.1l-16-59-19.2 5.8 28.9 6.8z"/><path fill="#a1aa99" d="M199 150l-22-20 11 2z"/><path fill="#5c5a57" d="M222 113l-34 15 17-23z"/><path fill="#44291e" d="M165.5-8l7 57.7-2 .2-7-57.6z"/><path fill="#6591b7" d="M256.6 77.1l-24.3 15.8-16.9-26 24.3-15.8z"/><path fill="#917056" d="M102.2 130.6l-3.9-15.9L134 185l-3.1-40.9z"/><path fill="#181816" d="M155.7 43l-.7-7.1 17.3-3.1 8.3 22.8z"/><path fill="#4a4d3e" d="M188.8 185l-1.8-31.6 9-31.6 12.7 52.7z"/><path fill="#222d38" d="M153 89h39v25h-39z"/><circle r="1" fill="#22221c" transform="rotate(136.8 75 123.4) scale(21.18836 16.97608)"/><path fill="#606052" d="M207.3 142.6l-20.9-9.7 19.3 26 1.2-4.9z"/><path fill="#fffff7" d="M249.5-14L264 12l-3.5 2L246-12.1z"/><path fill="#112d46" d="M244.7 133.3L219.4 185l45.2-1.1-18.6-53.6z"/><circle r="1" fill="#4775a7" transform="rotate(167 97.8 11.2) scale(25.56353 32.62517)"/><path fill="#ac9e7e" d="M63.1 24.4l15 40.5-2.5 1.7-5.1-15.8z"/><path fill="#1d1207" d="M67 42l3 10-14-8z"/><path fill="#37455b" d="M132 84h21v9h-21z"/><path fill="#d3d5c7" d="M140.5 117.1l-8.6-6.9 7.6-9.3 8.6 6.9z"/><circle cx="171" cy="139" r="11" fill="#575441"/><path fill="#919e91" d="M159 132.9l-20.5-22.2 24 8.1 4 3.3z"/><path fill="#6d8ead" d="M107.8 125.2l-42.9-8.3-28.7-17.5 63.4 12.2z"/><path fill="#6c89a7" d="M48 108h26v25H48z"/></g></g></svg>