<svg xmlns="http://www.w3.org/2000/svg" viewBox="0 0 1800 1200"><defs/><filter id="a"><feGaussianBlur stdDeviation="12"/></filter><rect width="100%" height="100%" fill="#5d2a30"/><g filter="url(#a)"><g fill-opacity=".5" transform="translate(3.5 3.5) scale(7.03125)"><circle r="1" fill="#fff" transform="rotate(-88.1 79 -69.4) scale(33.56229 172.24735)"/><circle r="1" fill="#92977b" transform="matrix(140.14958 16.31894 -4.6803 40.1952 208.7 66.3)"/><ellipse cx="92" fill="#f9ffff" rx="103" ry="33"/><path fill="#577353" d="M0 185L-16 2l287 162z"/><circle r="1" fill="#583738" transform="matrix(64.7536 -14.73241 4.03453 17.73305 164.9 38.5)"/><circle r="1" fill="#bbb7a4" transform="matrix(-1.70751 -18.94186 69.47716 -6.26302 234 75)"/><path fill="#fff" d="M257.4-.4L156 23l-3.4-14.6L254-15z"/><circle r="1" fill="#292b2d" transform="matrix(6.26298 -43.68703 29.66166 4.2523 141.6 109.5)"/><ellipse cx="99" cy="20" fill="#e4f1f0" rx="33" ry="21"/><path fill="#b3cfe0" d="M9.2 117.6l-.4-19 16-.2.4 19z"/><circle r="1" fill="#796f69" transform="matrix(-.54171 -28.20971 61.41031 -1.17926 61.9 164.8)"/><circle r="1" fill="#857361" transform="matrix(.80048 -30.56894 19.03146 .49836 20.2 45.6)"/><path fill="#67363e" d="M115.3 74.4l84.3-61.6 23.2-3.2-4.3 49.8z"/><path fill="#080e0e" d="M206 82l-7 31-3-38z"/><path fill="#476039" d="M271 107l-15 47-99-53z"/><ellipse cx="164" fill="#f5fff9" rx="50" ry="19"/><path fill="#beb096" d="M169 64h13v47h-13z"/><circle r="1" fill="#292723" transform="matrix(-10.1102 -10.98337 25.19527 -23.19228 96.7 107.5)"/><path fill="#7b8163" d="M142.9 51.7l-80 45.6 79.7-80.2 9 2.8z"/><path fill="#948355" d="M217 6h39v27h-39z"/><circle r="1" fill="#8d7550" transform="matrix(-.30654 7.98295 -59.9119 -2.30059 59.3 44.9)"/><circle r="1" fill="#4f1119" transform="matrix(42.40205 20.00456 -4.869 10.32044 13.5 83)"/><path fill="#1d1f18" d="M212 132l-30-39-5 37z"/><circle r="1" fill="#74644f" transform="rotate(-154.7 131.4 59.3) scale(62.06235 31.80935)"/><circle r="1" fill="#c6d3d3" transform="rotate(-164.6 26 2.6) scale(52.17125 23.04362)"/><path fill="#fff" d="M255.6-5.2l-.2 11-35-.6.2-11z"/><path fill="#ac9885" d="M110 114h14v12h-14z"/><path fill="#aea182" d="M220 125l14-93-29 60z"/><path fill="#04080a" d="M228 124h28v12h-28z"/><path fill="#c0b094" d="M143 77h16v8h-16z"/><path fill="#494e1d" d="M42.2 112.3l4.7-66.8 30.9 2.2-4.7 66.8z"/><path fill="#0f191d" d="M34.9 132.3L-16 114.4v30.7l31.5-11.4z"/><path fill="#151516" d="M113 151l33-3-35-27z"/><path fill="#4f584e" d="M16.7 46l-4-2.2 24.9-26.7-37 9z"/><path fill="#737936" d="M51 57l12-5 6-31z"/><circle cx="136" cy="97" r="11" fill="#746b67"/><ellipse cx="170" cy="44" fill="#804550" rx="30" ry="22"/><path fill="#907054" d="M101.9 42.1l-66.3-7.6 67.5 46 23.2-7.1z"/><path fill="#83b0c6" d="M38 106h5v18h-5z"/><path fill="#ac9e8e" d="M221 21h17v71h-17z"/><path fill="#090d11" d="M163 82h5v43h-5z"/><path fill="#3e453e" d="M195.1 12.4l-66.8 54.7 10.6 56.7-1.1-47.5z"/><path fill="#3f4844" d="M218 8l11 10-49 6z"/><path fill="#94a0a6" d="M27 126L7 94l21 9z"/><path fill="#a6b13d" d="M41 69l11-1-16 17z"/><ellipse cx="175" cy="151" fill="#8c7967" rx="6" ry="24"/><path fill="#748070" d="M98.4 36.3l18 46.6 31.1-62.8-60 32.2z"/><path fill="#988772" d="M84 87l-15-1 1-13 15 1z"/><path fill="#6d4726" d="M78 78l27 4-41-49z"/><path fill="#273715" d="M46.4 81.6l-.5 44.2 13.6-1.3-11.6-53.6z"/><path fill="#6b6145" d="M271 81l-68 28 15 21z"/><ellipse cx="191" cy="90" fill="#bdbeb7" rx="3" ry="14"/><path fill="#324855" d="M26 99h14v33H26z"/><path fill="#4d504b" d="M262.6 46.6L222 52.3l-.6-5 40.6-5.6z"/><path fill="#d6dbde" d="M-9.9 30.3l1.5-40.9L-16 5.6l27.8 8.7z"/><circle r="1" fill="#baab99" transform="matrix(-4.49487 3.6154 -7.43232 -9.2403 171.8 77)"/><path fill="#736251" d="M143.3 128.9l8.8 10.3 39 8.1-31.3-18.3z"/><path fill="#98938c" d="M203.1 77.1l-21.3 6.7L237 50.2l34-.1z"/><path fill="#ccd4d5" d="M65.2 31.3l-13.1 6.3-38.9-15.4 27.4.8z"/><path fill="#2b3633" d="M7.2 99.2l5 5.2-6.8 53.9-19.6-39.9z"/><path fill="#21211d" d="M150.7 113.6l-6.2-29.3 8.8-2 6.2 29.4z"/><path fill="#716737" d="M56.5 96.7l15.7-3.2 19.2 27.6-36.2-16.6z"/><path fill="#2e2114" d="M57.9 66.9l-19.8 3-2-12.8 19.8-3z"/><path fill="#958271" d="M-16 60l32 9 15-12z"/><ellipse cx="80" cy="138" fill="#6a5e56" rx="33" ry="12"/><path fill="#2e2b26" d="M24 152h20v6H24z"/><path fill="#37322f" d="M184 135h21l-2-56z"/><path fill="#7d373f" d="M158 66l59-7 5-23z"/><path fill="#86786e" d="M121.2 157.7L6.3 158.8l8.4 26.2-22.3-14.1z"/><circle r="1" fill="#453d37" transform="rotate(-11.9 206.5 -667.8) scale(8.41109 2.96995)"/><path fill="#303b3f" d="M153.2 45.4l-1.5 8.9-3.4 24.5 14.5-5.2z"/><path fill="#ac893b" d="M204.1 103.3l10.3-12.2 11.5 9.6-10.3 12.2z"/><path fill="#e3e3e3" d="M51-5l111-1-53 46z"/><path fill="#eaedea" d="M241 0l-78 21L87-4z"/><path fill="#95716b" d="M123 82L97 33l2 39z"/><path fill="#322c2d" d="M128.4 66.2l10 40.5-.3-25.8-39.9 36.3z"/><path fill="#a4937c" d="M143 68l5 16 1-16z"/><path fill="#7b8684" d="M30 16l-7 10-26-8z"/><path fill="#35402d" d="M26.5 35.3l-33.8-3.6.8-7 33.8 3.6z"/><path fill="#212125" d="M106 82h16v31h-16z"/><path fill="#3f3835" d="M195 79h10v29h-10z"/><path fill="#4e461f" d="M102.2 70.8L72 101.5 61.9 89.4 74 121.9z"/><path fill="#686556" d="M134.4 65.1l-33.8-7.5 30-24.1-20.7 2z"/><path fill="#944f55" d="M160.8 65.2l1.6-12.9 30.4-29-.3 25.8z"/><path fill="#b5b2ac" d="M214 83h31v8h-31z"/><path fill="#641e29" d="M24 100l14-22-54-16z"/><path fill="#333635" d="M238.4 92.7l13.5 6.4-.4-1.2-14 36.9z"/><path fill="#dad9db" d="M68 9h27v28H68z"/><path fill="#7a6959" d="M153 163h86v7h-86z"/><ellipse cx="201" cy="169" fill="#453a33" rx="6" ry="22"/><path fill="#5f5635" d="M56 49.7l12.4-26.4L50 84.2l28.9 6.5z"/><path fill="#877c73" d="M104.9 161.5l-60.2 1.1 52.1-5.7 39.6-3.7z"/><path fill="#5d6b58" d="M132 23l-.3-1 14.2-5 .4 1z"/><path fill="#627221" d="M44 111h24v12H44z"/><path fill="#a7b054" d="M63.1 58.4l-.3-28 3 23.1L72 49z"/><path fill="#e6e7e6" d="M129 31l10-23-24 19z"/><path fill="#b7ada7" d="M120 59h2v23h-2z"/><ellipse cx="63" cy="65" fill="#2c241e" rx="17" ry="4"/><path fill="#aa9070" d="M220 10h36v31h-36z"/><path fill="#9aafb3" d="M-11 103.7l-.2-1 24.1-6.4.3 1z"/></g></g></svg>