<svg xmlns="http://www.w3.org/2000/svg" viewBox="0 0 4636 3091"><defs/><filter id="a"><feGaussianBlur stdDeviation="12"/></filter><rect width="100%" height="100%" fill="#3d4852"/><g filter="url(#a)"><g fill-opacity=".5" transform="translate(9 9) scale(18.10938)"><circle r="1" fill="#dcdbbf" transform="matrix(-3.69887 75.62881 -254.69558 -12.4567 118.6 154.1)"/><circle r="1" fill="#5c7bbc" transform="rotate(93.2 63.6 60.1) scale(54.80458 219.10242)"/><path fill="#efc9ba" d="M248 169L-6 185l4-70z"/><circle r="1" fill="#4a7c80" transform="rotate(93.6 43.4 128) scale(21.90811 181.07672)"/><circle r="1" fill="#5e4a46" transform="rotate(13 -516.2 556.1) scale(82.58993 6.48151)"/><circle r="1" fill="#bd4741" transform="matrix(21.16278 -5.79674 1.94119 7.0869 121.4 143.8)"/><ellipse cx="169" cy="87" fill="#5b787c" rx="255" ry="16"/><ellipse cx="103" cy="61" fill="#183240" rx="107" ry="8"/><circle cx="108" cy="108" r="6" fill="#e9feff"/><path fill="#72826b" d="M267 109l-10 60-97-22z"/><circle r="1" fill="#5e4e43" transform="rotate(-9.6 853.5 -578.4) scale(3.96237 22.89939)"/><ellipse cx="234" fill="#8c97b2" rx="33" ry="7"/><circle r="1" fill="#d1c8bc" transform="matrix(-8.35205 22.05229 -107.06939 -40.5513 25.8 169)"/><path fill="#3d0600" d="M102 95h9v8h-9z"/><path fill="#909b94" d="M50 92h50v17H50z"/><path fill="#eb484e" d="M117.2 143.7l5.6 5.3 25.9-5.9-5.2-9.5z"/><circle r="1" fill="#839988" transform="matrix(-.29919 -21.42645 39.54866 -.55224 157.2 116.4)"/><circle r="1" fill="#525c62" transform="rotate(105.9 -20.5 71) scale(2.74393 90.20439)"/><circle r="1" fill="#ad998e" transform="rotate(24.6 -276.4 139.6) scale(47.90753 14.26501)"/><path fill="#c4c9c8" d="M136.3 153.9l1.3-6.9 98.1 19.1-1.3 6.9z"/><path fill="#4a7477" d="M-16 81.7L-2.6 67l52.2.6 112.9 16.1z"/><ellipse cx="61" cy="27" fill="#526990" rx="65" ry="22"/><ellipse cx="109" cy="58" fill="#0c1d30" rx="172" ry="2"/><path fill="#a8cdd3" d="M108 101h6v27h-6z"/><path fill="#455776" d="M138 42h118v14H138z"/><path fill="#324d56" d="M133 59h123v12H133z"/><circle r="1" fill="#829584" transform="matrix(-4.22898 18.26585 -39.87353 -9.23168 228.2 133.2)"/><circle r="1" fill="#16232e" transform="matrix(-1.3233 8.8448 -2.16977 -.32463 105.4 120.6)"/><path fill="#727669" d="M261 168.9l10 12-100.7-33.5 47.1 2.7z"/><path fill="#515554" d="M100.8 124.4l44.4 12.1-80.8-9 8.1-11z"/><circle r="1" fill="#63827c" transform="rotate(-173.8 118.7 46) scale(72.85511 18.54863)"/><path fill="#615250" d="M27.8 58.1l-35-8.7L-3.8 36l35 8.7z"/><path fill="#545144" d="M97 149h17v3H97z"/><ellipse cx="62" cy="53" fill="#453635" rx="48" ry="3"/><circle r="1" fill="#cbeaee" transform="matrix(.2216 -4.09156 1.79372 .09714 103 111.2)"/><path fill="#1b2b2d" d="M139 143l12-3-6-1z"/><path fill="#060000" d="M46 90h3v4h-3z"/><path fill="#b3a38f" d="M66.7 174.1l45.7-38.8 3.8 22.5 5.8-21.7z"/><path fill="#878d86" d="M19 90l98 12-94 14z"/><path fill="#8f9986" d="M128.2 132.3l4.3-20.6 75.3 16-4.3 20.6z"/><ellipse cx="5" cy="50" fill="#9a9796" rx="4" ry="3"/><path fill="#d6d2cf" d="M58.8 130.7l46.6 11.6-.2 1-46.6-11.6z"/><path fill="#707070" d="M-16 81.5L106.6 138l-85.3-32.1-29.7-5z"/><path fill="#cdcde7" d="M53 92h7v3h-7z"/><path fill="#4a6e76" d="M128 71h118v17H128z"/><path fill="#ea3f45" d="M134 134l16 4-29 6z"/><path fill="#465879" d="M219 21h37v35h-37z"/><path fill="#9f664a" d="M114 141l-6 10-4-24z"/><path fill="#baa593" d="M65.7 158.2l42.6-11.8-38.1-16 28 4.2z"/><path fill="#4c6184" d="M112.2 55.4l130-12.7-11.9-40.3-33.9 4.7z"/><circle r="1" fill="#9a9d97" transform="matrix(.45315 -2.16891 40.79483 8.52326 207.2 160.7)"/><ellipse cx="27" fill="#445d88" rx="177" ry="18"/><path fill="#768379" d="M171.2 125.8l-58.9 12 27.8-78.6-29.2 84z"/><path fill="#84958b" d="M174 113l-63-15 11 25z"/><path fill="#221f36" d="M108 130l5 2 2-6z"/><path fill="#8d827b" d="M45.8 124.5l13.1.9-6.2-10.3-51.4-14.4z"/><path fill="#869287" d="M95 122l-67-20 76 2z"/><path fill="#787b6c" d="M215.7 141.9l-78.6-5.8 120.8 27.3-80.9-8.7z"/><path fill="#d6cecb" d="M128.2 148.3l.5-1.9 61.1 15.3-.5 1.9z"/><circle cx="106" cy="97" r="4" fill="#281d16"/><path fill="#343234" d="M17.1 42.1l-2 12.9 11.2-.4-29.5-10.9z"/><path fill="#b59c86" d="M106 156l12-7 21 4z"/><path fill="#1f575e" d="M44 88h3v12h-3z"/><ellipse cx="65" cy="55" fill="#575152" rx="18" ry="2"/><ellipse cx="140" cy="92" fill="#668585" rx="33" ry="10"/><path fill="#f27f76" d="M125 139h14l-5 5z"/><path fill="#51688e" d="M27 13h120v33H27z"/><path fill="#3f3a2d" d="M-16 41.5l29.5 14.9-29.5-4.1 25.5-8.6z"/><path fill="#355058" d="M72 62h131v4H72z"/><circle r="1" fill="#323139" transform="matrix(-.177 1.7501 -40.27559 -4.07324 81.4 53.5)"/><path fill="#778e83" d="M169 105h60v16h-60z"/><path fill="#5f8183" d="M64 81h40v15H64z"/><path fill="#cac4c0" d="M12.6 122.8l65 11.4-.2 1-65-11.4z"/><path fill="#e9d1cd" d="M97.8 117.4l-.3-1 4.7-1.8.3 1z"/><path fill="#08060a" d="M102.2 126.8l3.7-10.3 2 .7-3.8 10.3z"/><path fill="#636759" d="M232 154l14-2-21 9z"/><path fill="#93b3bb" d="M103 129l12-4-5-4z"/><path fill="#899087" d="M73.5 116.9l-55.7-14.5 27.3-13.2-4.8 10.7z"/><path fill="#5b5377" d="M119 148h10v2h-10z"/><path fill="#57626a" d="M3 97l-15-7 33 3z"/><path fill="#4e5b50" d="M169.7 147.3l-22-6.7.6-2 22 6.8z"/><path fill="#ef2b33" d="M148 136l-16 1 9 4z"/><path fill="#8c9684" d="M226 155l-37-37 69 25z"/><path fill="#979f8e" d="M177 141l-12-22-17 13z"/><circle cx="57" cy="89" r="2" fill="#763e29"/><path fill="#d5ebf0" d="M102 107h6v5h-6z"/><ellipse cx="26" cy="72" fill="#426c6e" rx="179" ry="3"/><path fill="#656f60" d="M222.3 160.4l-55.2-18.5 27.8 12.5 24.5-5z"/><circle cx="102" cy="151" r="2" fill="#505154"/><circle cx="110" cy="134" r="4" fill="#6d3e2d"/><path fill="#c2aaa0" d="M114 138h5v9h-5z"/><circle r="1" fill="#444e52" transform="matrix(29.94174 6.54966 -.2137 .9769 75.5 119)"/><circle r="1" fill="#5c5c5a" transform="matrix(20.37783 1.92627 -.40393 4.27315 89.6 126.8)"/><circle r="1" fill="#4b5c81" transform="matrix(11.78844 -7.78825 16.40378 24.82908 0 15.9)"/><path fill="#8593ae" d="M202.6 2.6l28-8 .8 2.8-28 8z"/><path fill="#455673" d="M104 51h152v4H104z"/><path fill="#d4eaed" d="M106.8 103.6l3.9 1-1.5 5.8-3.9-1z"/><path fill="#9fa49a" d="M57.2 99l-8.7 2.2 9.9 7.9 2.8-9.2z"/><ellipse cx="11" cy="56" fill="#757777" rx="13" ry="1"/><path fill="#9a7057" d="M107 138h8v17h-8z"/></g></g></svg>