<svg xmlns="http://www.w3.org/2000/svg" viewBox="0 0 1800 1200"><defs/><filter id="a"><feGaussianBlur stdDeviation="12"/></filter><rect width="100%" height="100%" fill="#202b3a"/><g filter="url(#a)"><g fill-opacity=".5" transform="translate(3.5 3.5) scale(7.03125)"><ellipse cx="116" cy="50" fill="#fffad3" rx="255" ry="88"/><ellipse cx="102" cy="110" fill="#f3ffff" rx="42" ry="23"/><ellipse cx="141" cy="154" fill="#2d7abe" rx="255" ry="29"/><path fill="#00000d" d="M140.5 87l38.5 16.9-14.4 19.3-24.8-12.9z"/><ellipse cx="117" cy="126" fill="#cbe7ee" rx="82" ry="7"/><circle r="1" fill="#ccab94" transform="rotate(82.6 -20 77.7) scale(21.92026 95.91781)"/><ellipse cx="111" cy="32" fill="#9e7e68" rx="255" ry="37"/><path fill="#eafaff" d="M134.2 87.5l9 31.7-39.4 11.3-9-31.7z"/><ellipse cx="4" cy="130" fill="#a4d7f5" rx="57" ry="4"/><ellipse cx="214" cy="84" fill="#bd977d" rx="53" ry="28"/><circle r="1" fill="#baa792" transform="rotate(23.9 73.2 346) scale(67.6905 30.03437)"/><circle r="1" fill="#6b615b" transform="matrix(.29712 7.30928 -197.88439 8.04403 130.7 54)"/><circle r="1" fill="#204d78" transform="matrix(-.79557 10.20416 -45.58313 -3.5539 91.1 142.3)"/><path fill="#32749c" d="M188 125h68v12h-68z"/><path fill="#bfdbe8" d="M168 115l33 8-69 8z"/><path fill="#191a24" d="M148 99.3l24.6-4.3 3.4 19.7-24.6 4.3z"/><circle r="1" fill="#5d4849" transform="matrix(.62065 5.8566 -23.41592 2.4815 248.5 116)"/><circle r="1" fill="#a3aeb5" transform="rotate(68.2 -29.7 109.2) scale(17.2433 21.98103)"/><circle r="1" fill="#645e52" transform="matrix(-33.62575 -16.4122 3.67943 -7.53852 0 1.6)"/><path fill="#1b4971" d="M104 138l119-10-47 34z"/><path fill="#d7e3e7" d="M147.4 116.4l-.9 9.8-75.4-5.5 63.3-33.6z"/><ellipse cy="152" fill="#002442" rx="59" ry="4"/><ellipse cx="46" cy="43" fill="#c1ac96" rx="47" ry="5"/><path fill="#656169" d="M0 120h67v5H0z"/><circle r="1" fill="#94b1cf" transform="matrix(-84.9396 -6.6849 .17786 -2.25992 255 126)"/><ellipse cx="25" cy="129" fill="#8ab5d1" rx="55" ry="5"/><path fill="#d6e5ee" d="M110 87.2l5.4 28-3.8-15-27.1-22.4z"/><circle r="1" fill="#b29b85" transform="matrix(2.59676 -11.95526 48.64412 10.56583 129.8 75.7)"/><circle r="1" fill="#647c8e" transform="matrix(8.6273 -8.53743 2.45643 2.48229 93 101.4)"/><path fill="#b19e89" d="M55.8-16L57 14.4l22.2 17.5 30.1-21.4z"/><path fill="#163e63" d="M207 138h49v25h-49z"/><path fill="#71695c" d="M63 26.3l-18.5-9.9-26.9 27.7 2.4-3.4z"/><ellipse cx="116" cy="128" fill="#acc3c6" rx="60" ry="5"/><path fill="#001631" d="M51 163l-19-5-12 6z"/><circle r="1" fill="#b79e82" transform="matrix(-1.26948 -19.2747 49.03572 -3.22962 28.7 85.6)"/><circle r="1" fill="#c9ac8c" transform="rotate(15.9 127.5 911) scale(16.07843 18.01044)"/><circle cx="201" cy="89" r="31" fill="#aa9580"/><path fill="#24507b" d="M34 133h75v18H34z"/><path fill="#32363e" d="M176.5 108.9l-30-16.9 1.8 28.8 12.8 1.1z"/><path fill="#758397" d="M138 109l-2-18 12 21z"/><path fill="#4b4c3d" d="M125.6 21.4l1.5 6.8-10.7 2.4-1.5-6.8z"/><path fill="#25282e" d="M185 115l-43-7 10-15z"/><path fill="#87786c" d="M211.4 110.6l9.3-17.7 16 8.5-9.4 17.7z"/><path fill="#b6a48f" d="M118 59h34v15h-34z"/><path fill="#685e56" d="M47.7 100.1l-5.7-2L46.3 86l5.7 2z"/><path fill="#7da8c2" d="M98 132h87v2H98z"/><path fill="#b8a48e" d="M180-14l-52 59 110-61z"/><path fill="#8a7d6e" d="M110 64h9v27h-9z"/><path fill="#6f685a" d="M40 59l-56 13 3-29z"/><path fill="#bda68d" d="M186 74l60 27 5-26z"/><path fill="#b1c5d5" d="M164 115h8v6h-8z"/><path fill="#726960" d="M151.5 50l116.4 4.8-79.5 3.7-38.3 11.2z"/><path fill="#366d91" d="M176 128h50v10h-50z"/><path fill="#ac9782" d="M211 109l-33-51-43 27z"/><path fill="#746357" d="M257 122l-26-6 40-29z"/><path fill="#b5a38c" d="M97 59l23 23-68-18z"/><path fill="#6ca4c4" d="M0 124h45v6H0z"/><path fill="#e5eded" d="M120.6 93l-36.3 27.3 34.5-4.7 34.6 7.7z"/><path fill="#796d5e" d="M0 104h42v2H0z"/><path fill="#2c5c93" d="M68 145.3l2.7 7.6 54.4 7.7L39.2 185z"/><path fill="#204b77" d="M102 135h91v26h-91z"/><path fill="#c8d8e4" d="M196.9 121.5l13.4-3.9.8 3-13.4 3.8z"/><path fill="#696259" d="M-7 16l31-4 18-28z"/><path fill="#292e34" d="M251 21l20-17-3 20z"/><circle r="1" fill="#00203c" transform="matrix(-.09758 2.30001 -12.62163 -.5355 48.2 154.6)"/><path fill="#0c3a5b" d="M0 137h21v10H0z"/><path fill="#5b5851" d="M47.3 30.8l-12.4-6.6 3.8-7 12.4 6.6z"/><path fill="#27292f" d="M169.4 97.3l5.9 13.8-34.4-14.5-3.9-6.9z"/><path fill="#ae9c87" d="M259 36.3L224.6 4.4l13.6 25.5-2 5.5z"/><path fill="#b6c1c9" d="M85.9 117l-19.6 10-8.2-16 19.6-10z"/><path fill="#cdb598" d="M60 4l11-7-14 25z"/><circle r="1" fill="#ae9a7f" transform="rotate(34.8 -3.2 69.7) scale(9.73312 6.17431)"/><path fill="#92806f" d="M156 6l-40-22-13 20z"/><path fill="#7f7666" d="M182 21.5l-4.4-4.2 10.5-10.8 4.3 4.2z"/><path fill="#ae9d89" d="M-1.4 56.8l83.2-17.4-10.4-11.2-35.6 15.3z"/><path fill="#807365" d="M235.7 13.8l-38.1-1.4 68.3-18.1-71.7-7.9z"/><path fill="#3b90b6" d="M203 124h27v3h-27z"/><path fill="#a69480" d="M232 68l-47 55-25-57z"/><path fill="#30649b" d="M0 156h81v4H0z"/><path fill="#887f73" d="M234.6 73.5l10.8-.6 8.4-19.5-28.2 10.9z"/><path fill="#baa996" d="M47.5 97.5L55 73.1l16.9 56.2L41 95.8z"/><path fill="#3e6496" d="M165 164h66v4h-66z"/><path fill="#d1cdc9" d="M84 80h16v8H84z"/><path fill="#776d63" d="M37 74l29-22-23 5z"/><circle r="1" fill="#988b73" transform="rotate(-172.9 1 1.4) scale(12.04251 9.15776)"/><path fill="#5b80a0" d="M65.9 136l99.1-15.8L48.2 139l44.7.5z"/><path fill="#b3cbd5" d="M71.1 133.1l69.1-15.9-40.8 8.2-75.8.2z"/><path fill="#8b96a9" d="M236 120h20v6h-20z"/><path fill="#8a7c6e" d="M156 40h100v8H156z"/><path fill="#696058" d="M23.6 26.8L16 31.3l-3.5-6 7.7-4.6z"/><path fill="#023259" d="M52.4 163.2l13.8 2.7-.6 3-13.8-2.8z"/><path fill="#002140" d="M214 155h31v2h-31z"/><path fill="#0f3f6b" d="M89 156h101v4H89z"/><path fill="#2d5888" d="M117 137l27 19-56-3z"/><path fill="#494b43" d="M37.8 22.3l-22-11.7.4-1 22 11.8z"/><path fill="#86a6b7" d="M119.5 132.3l20-9.1-55.6 8.8 45.4 3.5z"/><ellipse cx="237" cy="151" fill="#305683" rx="42" ry="3"/><path fill="#6d7884" d="M163 112.4l28.8 4.5-25.5-2.2-.4 15.8z"/><path fill="#305c90" d="M153 147l21 11-23-1z"/><path fill="#726b4d" d="M107.9 17.4l-8.3 1.9 9.9 6.3 1.3-1.8z"/></g></g></svg>