<svg xmlns="http://www.w3.org/2000/svg" viewBox="0 0 1800 1200"><defs/><filter id="prefix__a"><feGaussianBlur stdDeviation="12"/></filter><rect width="100%" height="100%" fill="#2d333c"/><g filter="url(#prefix__a)"><g transform="translate(3.5 3.5) scale(7.03125)"><circle r="1" fill="#a2a394" fill-opacity=".5" transform="matrix(184.00795 -14.9307 4.97197 61.2752 152.5 40.6)"/><circle r="1" fill="#d3b990" fill-opacity=".5" transform="rotate(-145.7 76.1 8) scale(32.61195 42.35074)"/><ellipse cx="180" cy="74" fill-opacity=".5" rx="4" ry="173"/><ellipse cx="229" cy="161" fill="#0b0901" fill-opacity=".5" rx="167" ry="21"/><path fill="#355370" fill-opacity=".5" d="M-4 69L-6 0l157-13z"/><circle r="1" fill="#24415e" fill-opacity=".5" transform="matrix(-118.32757 -50.97934 10.9136 -25.33145 225.9 5.9)"/><circle r="1" fill="#66533f" fill-opacity=".5" transform="rotate(7.1 -726.2 324.2) scale(134.76668 16.53338)"/><path fill="#141713" fill-opacity=".5" d="M-16 111l140 2-138 52z"/><ellipse cx="224" cy="96" fill="#574e42" fill-opacity=".5" rx="73" ry="16"/><circle r="1" fill="#7f8681" fill-opacity=".5" transform="rotate(138.5 34.6 45.6) scale(36.27903 25.17979)"/><circle r="1" fill="#b39060" fill-opacity=".5" transform="rotate(-173.5 63.8 37) scale(46.73303 14.07474)"/><ellipse cx="140" cy="50" fill="#cfbea1" fill-opacity=".5" rx="23" ry="14"/><circle r="1" fill="#566d89" fill-opacity=".5" transform="matrix(-28.70677 -21.31953 1.72305 -2.32009 216 169)"/><ellipse cx="138" cy="20" fill="#788086" fill-opacity=".5" rx="31" ry="13"/><ellipse cx="77" cy="37" fill="#5b7180" fill-opacity=".5" rx="39" ry="24"/><path fill="#1a1e1d" fill-opacity=".5" d="M170 89h19v64h-19z"/><path fill="#988d74" fill-opacity=".5" d="M173 39h6v53h-6z"/><path fill="#0e1514" fill-opacity=".5" d="M184.6 39.3l-19.1-53.4 5 39.5L180.6-16z"/><circle r="1" fill="#4d4946" fill-opacity=".5" transform="matrix(-.79876 13.14288 -69.23747 -4.20793 43.8 98.9)"/><ellipse cx="243" cy="123" fill="#1b1f20" fill-opacity=".5" rx="69" ry="12"/><circle r="1" fill="#52636f" fill-opacity=".5" transform="matrix(-11.49321 19.3213 -44.40299 -26.41298 228.7 41.9)"/><ellipse cx="171" cy="79" fill="#03080b" fill-opacity=".5" rx="1" ry="107"/><path fill="#405468" fill-opacity=".5" d="M115-16l45 15-9 28z"/><circle r="1" fill="#363227" fill-opacity=".5" transform="matrix(1.80644 12.01264 -64.054 9.63235 118.9 129.2)"/><ellipse cx="52" cy="70" fill="#897a64" fill-opacity=".5" rx="27" ry="14"/><circle cx="126" cy="92" r="9" fill="#d8a860" fill-opacity=".5"/><ellipse cx="180" cy="36" fill="#0a1517" fill-opacity=".5" rx="3" ry="100"/><circle r="1" fill="#a69885" fill-opacity=".5" transform="rotate(175.8 81.2 16.3) scale(6.98307 12.62191)"/><ellipse cx="88" cy="159" fill="#161716" fill-opacity=".5" rx="20" ry="23"/><circle r="1" fill="#3d5060" fill-opacity=".5" transform="matrix(-20.20957 -17.2704 64.50031 -75.47729 14 3.6)"/><path fill="#090c0c" fill-opacity=".5" d="M12 151l19 34-47-38z"/><circle r="1" fill="#5b5a52" fill-opacity=".5" transform="matrix(-9.70191 -14.86922 47.03867 -30.69192 236 79.4)"/><path fill="#182626" fill-opacity=".5" d="M182.2 28.7l6.6 46.5-1 .1-6.6-46.5z"/><path fill="#605549" fill-opacity=".5" d="M192.4 109.4L93.7 98.1l30.6-22.6-25.1 34.4z"/><path fill="#7a7b6d" fill-opacity=".5" d="M168 58l2 25-35-15z"/><path fill="#747b76" fill-opacity=".5" d="M80 44l69 27-108-7z"/><path fill="#211f1c" fill-opacity=".5" d="M170 0h2v76h-2z"/><path fill="#727068" fill-opacity=".5" d="M128.2 67.2l42.4-65.4-13 6.7-5.7 13z"/><path fill="#baa789" fill-opacity=".5" d="M90 69h48v9H90z"/><ellipse cx="146" cy="143" fill="#374551" fill-opacity=".5" rx="34" ry="3"/><path fill="#454f56" fill-opacity=".5" d="M66.7 159.8L35.3 185l10.5-20 26.5-26z"/><path fill="#7d7c6a" fill-opacity=".5" d="M188 58h18v31h-18z"/><circle r="1" fill="#605a50" fill-opacity=".5" transform="rotate(73.4 -41.8 36.8) scale(20.99946 16.05079)"/><path fill="#111212" fill-opacity=".5" d="M221.5 174.5l-2.8-32.8 47.8-4.2 2.8 32.8z"/><path fill="#c7bba4" fill-opacity=".5" d="M118 40.5l2.8-8.6 17.2 5.6-2.8 8.6z"/><path fill="#433f38" fill-opacity=".5" d="M133 113l-38 26 95-21z"/><path fill="#87694a" fill-opacity=".5" d="M146 85l-29 18 53-13z"/><path fill="#596a76" fill-opacity=".5" d="M100.4 5.8l44.2-10.5-55.8 45L.5 64.6z"/><path fill="#858783" fill-opacity=".5" d="M147.5-2.6L104 47.7l37.1 2.8-34.4-19.2z"/><path fill="#cdb998" fill-opacity=".5" d="M140.9 69.3l-8.6-7 20.8-25.6 8.6 7z"/><path fill="#74604c" fill-opacity=".5" d="M66 83l51 1 8 19z"/><ellipse cx="174" cy="34" fill="#978f7d" fill-opacity=".5" rx="2" ry="30"/><ellipse cx="187" cy="106" fill="#0e1311" fill-opacity=".5" rx="1" ry="33"/><path fill="#7e7a69" fill-opacity=".5" d="M174 54h5v34h-5z"/><path fill="#9e9585" fill-opacity=".5" d="M141 47l21-9-33-25z"/><ellipse cx="136" cy="137" fill="#27221a" fill-opacity=".5" rx="22" ry="5"/><path fill="#191815" fill-opacity=".5" d="M78 147l79-1-105 30z"/><circle r="1" fill="#35475a" fill-opacity=".5" transform="rotate(-161.2 128.2 -16.7) scale(57.0073 11.41694)"/><path fill="#667174" fill-opacity=".5" d="M181.2 7l6.4 35.4 56.9 40-59.5-74z"/><path fill="#34393d" fill-opacity=".5" d="M173 91h7v31h-7z"/><path fill="#383933" fill-opacity=".5" d="M268.2 102.6l-32-18.3-27.3-20.6 59.6 39.6z"/><path fill="#2a2b28" fill-opacity=".5" d="M185.1 85.3L111 128.5l-29.8 13.9 85.5-47.7z"/><path fill="#ecd4a8" fill-opacity=".5" d="M125 51h9v8h-9z"/><path fill="#968770" fill-opacity=".5" d="M88.4 88l21.9-14.5 20.4-4.5L57 67.2z"/><circle r="1" fill="#cca974" fill-opacity=".5" transform="matrix(11.07789 10.91955 -2.44717 2.48265 116.5 83.2)"/><path fill="#575049" fill-opacity=".5" d="M98 100h70v14H98z"/><path fill="#6f6254" fill-opacity=".5" d="M65 72L31 86l74 11z"/><path fill="#393d44" fill-opacity=".5" d="M203 99h47v15h-47z"/><ellipse cx="198" cy="145" fill="#000002" fill-opacity=".5" rx="22" ry="2"/><path fill="#6e6453" fill-opacity=".5" d="M184 75h3v32h-3z"/><ellipse cx="182" cy="131" fill="#0e1211" fill-opacity=".5" rx="3" ry="40"/><path fill="#868171" fill-opacity=".5" d="M169 89V53l-23 8z"/><path fill="#aea18c" fill-opacity=".5" d="M169.7 32.3l-7 1.2-2.4-13.8 7-1.2z"/><path fill="#5b5f5f" fill-opacity=".5" d="M142.4 42l10.5-17.1L160 3.6l-12.6 21z"/><path fill="#52626d" fill-opacity=".5" d="M192 11.4l-.1 17L271 77.6V53.8z"/><path fill="#64584a" fill-opacity=".5" d="M105 143l1-5 17 5z"/><path fill="#282e34" fill-opacity=".5" d="M124 114l-96 19-11 38z"/><path fill="#b6a993" fill-opacity=".5" d="M166.4 53.3l-19.1-20.5 4.3-4 19.1 20.4z"/><path fill="none" stroke="#403c33" stroke-opacity=".5" stroke-width=".5" d="M138.2 51.7q-17 28.6-55.2 76.9"/><path fill="#464545" fill-opacity=".5" d="M63 108l-79 1 5-41z"/><circle r="1" fill="#161b20" fill-opacity=".5" transform="matrix(40.20984 9.89505 -2.278 9.25692 6.5 119.2)"/><path fill="#272c2e" fill-opacity=".5" d="M153.8 137.4l11.7-15.3 6.8-10 9 31.9z"/><ellipse cx="104" cy="145" fill="#243749" fill-opacity=".5" rx="32" ry="2"/><path fill="#ecbc6e" fill-opacity=".5" d="M139 96l-17-6 7-2z"/><circle r="1" fill="#465464" fill-opacity=".5" transform="matrix(8.10203 8.99088 -2.12145 1.91172 202.5 159.3)"/><path fill="#191a18" fill-opacity=".5" d="M199.8 139.8l-15-19v55.7L136.5 149z"/><path fill="#20211e" fill-opacity=".5" d="M85.8 124.8l-.7-.6 35-45 .8.6z"/><path fill="#7a807c" fill-opacity=".5" d="M80.3 71.1l15.4-25.7 19.6-18.8-4.7 44.8z"/><ellipse cx="118" cy="74" fill="#efce97" fill-opacity=".5" rx="4" ry="3"/><path fill="#6a675f" fill-opacity=".5" d="M-10.7 51.5l59 39L9.1 44.6l43.2 20.9z"/><path fill="#717168" fill-opacity=".5" d="M245 65l-40-9 33 24z"/><path fill="#455250" fill-opacity=".5" d="M211.5 67.5l-38.9-42.3 26.6 26.3 14.9 13.4z"/><path fill="#151a1e" fill-opacity=".5" d="M209 114h47v5h-47z"/><path fill="#2a3137" fill-opacity=".5" d="M223 133l46-12-89-6z"/><path fill="#9c7f58" fill-opacity=".5" d="M133.1 98.7l3.4-13.5-18-9.6 42 12.1z"/><path fill="#6b7178" fill-opacity=".5" d="M57 3.6l11.5 11.2-3.5 3.6L53.5 7.2z"/><circle r="1" fill="#1c1d1b" fill-opacity=".5" transform="matrix(12.84406 13.38534 -18.55058 17.80043 81.4 169)"/><ellipse cx="183" cy="56" fill="#396871" fill-opacity=".5" rx="1" ry="18"/><path fill="#5d5449" fill-opacity=".5" d="M154 123.8l-18-.6v-3l18 .6z"/><path fill="#101514" fill-opacity=".5" d="M176 0h6v20h-6z"/></g></g></svg>