<svg xmlns="http://www.w3.org/2000/svg" viewBox="0 0 1800 1350"><defs/><filter id="a"><feGaussianBlur stdDeviation="12"/></filter><rect width="100%" height="100%" fill="#562b2c"/><g filter="url(#a)"><g fill-opacity=".5" transform="translate(3.5 3.5) scale(7.03125)"><circle cx="54" r="202" fill="#93bbac"/><circle r="1" fill="#fff" transform="rotate(-84.4 63.7 -70.3) scale(38.95252 104.57706)"/><circle r="1" transform="matrix(27.8213 -6.47422 13.63233 58.58143 51 143.7)"/><ellipse cx="104" fill="#fff" rx="65" ry="33"/><ellipse cx="191" cy="122" fill="#44524a" rx="83" ry="115"/><circle r="1" fill="#37291e" transform="matrix(21.75527 22.5972 -26.45544 25.46977 84.3 81.8)"/><path fill="#e1e0d1" d="M97.2 204l6.6-78.9-1.4-30.7L74 125.1z"/><circle r="1" fill="#fff" transform="rotate(-133.8 63.2 -16.7) scale(41.73843 18.89519)"/><path fill="#ffffe1" d="M41.1 197l-3.6-19.1L-16 192l19.1-3.6z"/><circle r="1" fill="#1e2223" transform="matrix(-.42317 18.01764 -59.8999 -1.40684 234.5 89)"/><path fill="#e9e8e0" d="M259 58.7l.6 5-72.6 7.6-.6-5z"/><ellipse cx="209" fill="#fff" rx="38" ry="10"/><path d="M45 103h31v49H45z"/><path fill="#d4bfae" d="M0 44h46v24H0z"/><ellipse cx="3" cy="155" fill="#c6bb9a" rx="12" ry="65"/><ellipse cx="191" cy="28" fill="#969393" rx="50" ry="19"/><path d="M192.1 197.8l10.7-31.2 51.1 17.6-10.7 31.2z"/><path fill="#d8c4aa" d="M207 127.9l-17.9 7.6-37.6-7.3 55.1-3.8z"/><circle r="1" fill="#1d1c15" transform="rotate(10.1 -853.3 760.1) scale(5.52423 50.05935)"/><ellipse cx="100" cy="7" fill="#fff" rx="59" ry="19"/><ellipse cx="26" cy="111" fill="#706351" rx="15" ry="69"/><path fill="#afb69e" d="M141.6 189l18.8-13.2 12 17.2-18.8 13.2z"/><path fill="#3a3635" d="M91 60h76v29H91z"/><path fill="#fff" d="M127 0h20v39h-20z"/><path fill="#1a3141" d="M88 186l-73-10 71-27z"/><circle r="1" fill="#ffffe3" transform="matrix(.50385 -3.1109 10.7753 1.74522 22.5 80.9)"/><path fill="#a8aea4" d="M197.5 173.7l-26.3-15.9-19.2-3.3 2.4 7.9z"/><circle r="1" fill="#5d5a4f" transform="matrix(5.8085 -18.19276 49.19244 15.70592 13.9 20.6)"/><path fill="#373731" d="M98 106l34 33-35-84z"/><path fill="#817e7c" d="M133.2 37.3L129.9 58 58.8 46.7 62.1 26z"/><path fill="#fff" d="M28 0h150v10H28z"/><path fill="#929b95" d="M138.3 87.7l14.6 3.7-9.2 36.9-14.6-3.7z"/><path fill="#dcd4ce" d="M187.9 15.2l17.9.7-3.7 14.7-14.3 8.2z"/><path fill="#d8dcd6" d="M107.8 166.5l5.9-14.4-1.2-7.3-11.3 4.3z"/><circle r="1" fill="#596164" transform="rotate(112.6 109.8 96.8) scale(27.41639 28.8452)"/><path fill="#9c816c" d="M77 90l-10 15 58-3z"/><path fill="#293129" d="M138.2 183.5l8-34.2 31.3 53.4 1.5-38.6z"/><path fill="#010801" d="M22 132h4v51h-4z"/><path fill="#0d0b05" d="M61.9 112.7l-6-.7 6.2-58.7 6 .7z"/><path fill="#757775" d="M147 16h40v33h-40z"/><path fill="#2c3028" d="M175.8 131.7l95.2 54.5-89.2-37.3-22-6.9z"/><path fill="#fff" d="M198-1L99 32 64-5z"/><path fill="#9e7f66" d="M48.1 54.6L59 53.5l-6.5 47-16.1-1z"/><path fill="#d4caae" d="M96.7 175.4l20.2 31.6 24.2-17.1-59.9 6z"/><path fill="#091112" d="M42.2 154l38.4-59.3-.1 20.7L40 179.2z"/><path fill="#d8c4ba" d="M138 52l-22 8V48z"/><path fill="#a1a39c" d="M87 76h34v5H87z"/><circle r="1" fill="#4e473e" transform="rotate(44.5 -32.2 260.1) scale(14.40155 36.05582)"/><path fill="#fff" d="M236.6-.5L10.3-1l171.8 5.6 34.3 9.7z"/><circle r="1" fill="#7c8373" transform="matrix(50.0519 21.33092 -.66615 1.56309 207 164.4)"/><circle cx="96" cy="118" r="10" fill="#dbdad0"/><path fill="#888985" d="M212.8.7l26.4 40.7L241 3.9l-44.5 83.9z"/><path fill="#7a7975" d="M201.9 9.6l-16.4-5.5-45.9 18.1 22.3-5.2z"/><path fill="#ffffef" d="M161 110h19v2h-19z"/><path fill="#131918" d="M14.1 88l2.8 39.8-3 .3-2.8-40z"/><path fill="#b7b5b0" d="M213.8 52.7l-4.7 44.7h-1l4.8-44.8z"/><path fill="#001308" d="M-16-1l54-9L9 5z"/><path fill="#b9b0a2" d="M-14 101.3l56.7.9L19 98l-35-12z"/><path fill="#bdb4aa" d="M11.7 42.6L-16 66.5l60.2.7L-16 38.9z"/><path fill="#fff" d="M144-3l3 45-69-24z"/><path fill="#cfb89d" d="M154 127l23-9-1 7z"/><path fill="#dfddcc" d="M15 78h40v3H15z"/><circle r="1" fill="#32302b" transform="matrix(-25.82114 5.3473 -.77934 -3.7633 239 46.7)"/><circle r="1" fill="#9a947a" transform="rotate(-179.5 89.5 91) scale(1.19725 36.1945)"/><path fill="#fff8dc" d="M18 182h20v8H18z"/><ellipse cx="233" cy="144" fill="#4a4e46" rx="92" ry="15"/><path fill="#0a0e0e" d="M36.6 114.9l20.8 44.7 17-47-10.8-14.4z"/><path fill="#1d241a" d="M85.6 130l10.2 4.2-1.4 3.7-10.2-4.1z"/><path fill="#c9c9be" d="M82 104h5v46h-5z"/><path fill="#101d1e" d="M103 100L88 80l34 2z"/><path d="M181 180h9v12h-9z"/><path fill="#000200" d="M102 140h8v5h-8z"/><path fill="#4a4835" d="M60 51.1l-3.3-2.8L2.9 22.2l13.4 15.6z"/><path fill="#b6b7ac" d="M88.5 173.8l-13.3-42.6v-9l8.5-2.6z"/><ellipse cx="135" cy="150" fill="#8d8067" rx="6" ry="28"/><path fill="#5d523f" d="M3 117h6v23H3z"/><path fill="#949591" d="M157.9 141.8l25.4 10.8 12.3 9.8-2.7-8.6z"/><path fill="#3c3629" d="M13.5 95l-4.6 2-3.7-26.9 7.3-1.3z"/><path fill="#2b2d2d" d="M151.2 89l-11.3-4.3L153 51l11.2 4.3z"/><path fill="#433b2f" d="M12 72h47v4H12z"/><circle r="1" fill="#4f5751" transform="rotate(-158.6 127.9 38) scale(35.74796 9.44101)"/><path fill="#9ba2a2" d="M106.9 101.3l19.8-12.5-8.2-.6-14.5 14.6z"/><path fill="#896147" d="M47.5 144.3L49 139l-6.3-8.7-15.1 23.3z"/><path fill="#d1c2ad" d="M191.4 123.9l-16.6 7.9 34.7-2.8.8-1.7z"/><path fill="#fff" d="M170 168l-2-10 5 2z"/><path fill="#aca48d" d="M2 137h14v55H2z"/><path fill="#bda280" d="M86.3 45.1l-10.7 3 13.3 10.2-5.1-14.4z"/><path fill="#91847d" d="M116.9 40.3l44.9 3-5.8 8.6-69.4-9.2z"/><path fill="#2d2c25" d="M51.2 69.7l26.1-16.4 16.5 13.2L104 45.8z"/><path fill="#ada283" d="M14.2 10.4l-5.6-4L-16 61.5v-2.2z"/><path fill="#a49985" d="M198.4 106.7l-10 26 2-21.5-14.3-4.5z"/><path fill="#f7f6f1" d="M239.1-16l23.2 12.5-34.6 12.4-17.3 5.1z"/><path fill="#7f8380" d="M258.9-7.7l-25.7 45.9 6-54.2-27.4 63.1z"/><path fill="#373f38" d="M16 146h12v35H16z"/><path fill="#656866" d="M196.4 103.2l-32-41.5-9.7 53.6.9-49.4z"/><path fill="#141716" d="M231 71h10v26h-10z"/><path fill="#c09c80" d="M80.1 85.9l-4 19.7-1.8-15.8L94.6 99z"/><circle r="1" fill="#766f5c" transform="matrix(26.618 -61.80629 2.09823 .90364 168.8 149)"/><path fill="#fff" d="M208 12l-46-24 58 2z"/><path fill="#373e41" d="M244 19h11v27h-11z"/></g></g></svg>