<svg xmlns="http://www.w3.org/2000/svg" viewBox="0 0 4752 3168"><defs/><filter id="a"><feGaussianBlur stdDeviation="12"/></filter><rect width="100%" height="100%" fill="#2a3d4e"/><g filter="url(#a)"><g fill-opacity=".5" transform="translate(9.3 9.3) scale(18.5625)"><circle r="1" fill="#b4b581" transform="matrix(-63.41592 246.9887 -120.75196 -31.00383 87.2 115)"/><circle r="1" fill="#b6c8eb" transform="rotate(19.4 -19 264.4) scale(36.2126 24.81754)"/><circle r="1" fill="#506228" transform="matrix(-15.36044 -91.79036 49.5472 -8.29136 232.3 80)"/><circle r="1" fill="#231911" transform="matrix(-4.60464 -11.39297 39.85122 -16.10647 31.5 136.6)"/><circle r="1" fill="#969ea9" transform="matrix(-19.1374 -.63545 3.67215 -110.59097 100.7 134)"/><circle r="1" fill="#486424" transform="rotate(-32.9 226 -200.7) scale(55.11641 12.00322)"/><path fill="#b6a2a6" d="M246 156l-76-39-9 31z"/><ellipse cy="52" fill="#514f3b" rx="34" ry="116"/><path fill="#cbb4a9" d="M43 150l64-7 28 36z"/><circle r="1" fill="#222d18" transform="matrix(45.37709 -23.42086 8.3665 16.20978 244.3 86.9)"/><path fill="#55474b" d="M141.5 157.6l117.1-20.7 6 33.5-117.2 20.7z"/><circle r="1" fill="#6d9d36" transform="matrix(24.3662 -40.36429 13.86537 8.36993 176.4 90)"/><path fill="#effcff" d="M115.6 29.6L90 33.3l-1.5-11 25.7-3.6z"/><path fill="#afb7a1" d="M147.7 30.8l49.5 6.6-27 10.6-20.3-7z"/><path fill="#faffff" d="M179.3 139.3l-9.8-2 3.2-16.6 9.8 2z"/><ellipse cx="82" cy="95" fill="#8da1c8" rx="26" ry="9"/><ellipse cx="212" cy="16" fill="#627f5e" rx="40" ry="27"/><path fill="#3d3830" d="M109.5 147.7L34.9 116l1.6-3.7 74.6 31.7z"/><path fill="#535765" d="M24 44h68v35H24z"/><ellipse cx="57" cy="19" fill="#8a898e" rx="19" ry="36"/><path fill="#2f4445" d="M123 23h22v22h-22z"/><path fill="#aead88" d="M138 109.1l-62.1 10.7 44.2 58.2-25-43.8z"/><path fill="#2b212b" d="M146.6 164.5l-19.6-6.8 24.2-10.8 6.3 1.6z"/><path fill="#454549" d="M73.9 118.3l76.9-40.4-14.2 3.9 23.7 20.8z"/><circle r="1" fill="#020b18" transform="matrix(1.3052 -3.48628 21.98888 8.23222 189 169)"/><path fill="#201a1c" d="M260.3 128.1L213.9 151l1.9-15.1 55.2-24.2z"/><path fill="#94b35a" d="M180.6 93.3l3 8.4-74.2 27-3-8.4z"/><path fill="#7b6864" d="M243 122l-66 12 59-29z"/><path fill="#b49e99" d="M120 154.7l-3.2-12.6 27.2-6.8 3.2 12.6z"/><path fill="#1e2019" d="M-10 153l69-47-28 33z"/><path fill="#776b67" d="M63.3 147.9l73-9.4-92.9-6.5-49.2 30.6z"/><path fill="#6e5f63" d="M-5.7 185h111.5l-6.5-23.6-31-7.9z"/><path fill="#b7a298" d="M88.6 143.7l-43.4 7.7-16.3 7.2 32.2 5z"/><circle r="1" fill="#1f3222" transform="matrix(-20.0102 17.15082 -20.06912 -23.41505 254.9 58.1)"/><circle r="1" fill="#6d9e7a" transform="rotate(-76.8 61.2 -77.2) scale(11.78174 48.94187)"/><ellipse cx="20" cy="37" fill="#848a7d" rx="69" ry="7"/><ellipse cx="187" cy="73" fill="#5a7f3e" rx="41" ry="23"/><path fill="#9e9592" d="M9.6 97.3l44.3-13.7-12.4 25.6 58.8-9.4z"/><path fill="#667c92" d="M74.6 67.8l46.6-1.4-2.1 19.9-57.5 23z"/><path fill="#647b7b" d="M98 0h5v80h-5z"/><path fill="#c7d9ef" d="M107 91.4l2 4.7-26 10.5-2-4.7z"/><path fill="#7d7f4e" d="M180 107h13v35h-13z"/><ellipse cx="94" cy="36" fill="#bfd2ec" rx="3" ry="34"/><path fill="#96a496" d="M180.6 33.4l-19 34 7.7-45.5.9-19.3z"/><path fill="#131516" d="M264.1 3.6l-17.3 87.8-10.2-.3 34.4 58z"/><path fill="#d8cebe" d="M68 118l14 9 18-2z"/><circle r="1" fill="#42433f" transform="rotate(-118 44.4 20) scale(4.33668 33.2948)"/><path fill="#454437" d="M25 106l66 36-28-28z"/><path fill="#757676" d="M205 156l-20-22 71 25z"/><path fill="#292526" d="M59.2 166.3L42 165.2 12.2 185H51z"/><path fill="#3a4d50" d="M55 18l-71-34 29 31z"/><path fill="#9fb778" d="M127 130l58-32-40 7z"/><path fill="#312f25" d="M-1.1 134.9l29.2 20.4 18.4-5.2-44.8-12.5z"/><path fill="#9f9890" d="M139 120l43 40-14-29z"/><path fill="#404145" d="M98.6 115.2l35.8-24.9-27.7 29.7-36.3-14z"/><path fill="#728d61" d="M197-16l-9 61 30 23z"/><path fill="#dce8fb" d="M82 23h38v5H82z"/><path fill="#40632a" d="M183.2 69.3l27.3 35.7-55 9.2L192.1 99z"/><path fill="#1f3b2c" d="M193.6 57.7l-6.8 4.2-8.4-13.6 6.8-4.2z"/><path fill="#74833f" d="M13.8 56l-19.2-5.6L6.2 10.1l19.2 5.5z"/><path fill="#597498" d="M94 56.5l-19 1-1-20 19-1z"/><ellipse cx="39" cy="4" fill="#647184" rx="16" ry="41"/><path fill="#7d9063" d="M164 60l23 30-73-31z"/><path fill="#434e3c" d="M145.8 76.1l30.8-3.5-37.5 34.1-18.6-14.1z"/><path fill="#2e2e27" d="M21.5 84.6l21.4-11.8L7.3 84.2-16 91.1z"/><path fill="#3c3331" d="M121 133l24-10-17 14z"/><circle r="1" fill="#a4b4cf" transform="matrix(-5.6957 5.7208 -1.77769 -1.76989 197.1 134)"/><path fill="#a69b8f" d="M77 133l-34 23 14-21z"/><path fill="#243020" d="M26.9 48.1l5.6 5.7-34.3 3.8L9.8 60z"/><path fill="#747058" d="M.3 147.1l-6.1-51.6L42 124l2.2-23z"/><path fill="#8e7e54" d="M-14.8 185l36-.6 8.4-33.5-15.4-.8z"/><ellipse cx="227" cy="80" fill="#4a5d37" rx="22" ry="7"/><path fill="#afa097" d="M53.1 82l-5.7-9L45 90.5l18.8-6.6z"/><path fill="#9e9892" d="M10 68h35v3H10z"/><path fill="#9cabc5" d="M80 6h38v14H80z"/><path fill="#c6cacc" d="M180.6 101l-4.3 3.6-12.7 4.9-1.6-1.4z"/><path fill="#bfbeb6" d="M83.8 155.2l2.6-6.5 39.8 16.1-2.6 6.5z"/><path fill="#4c6765" d="M105-2.7l33.6 40.8-18.2-27.4-88.3-25.6z"/><circle r="1" fill="#92a7c6" transform="matrix(1.46395 .85204 -7.9081 13.58749 104.3 100.8)"/><path fill="#939085" d="M152 162l1-11 23 19z"/><path fill="#383c2d" d="M226.7 136.6l-7.5 10.6-13.9-9.8 7.5-10.6z"/><ellipse cx="252" cy="24" fill="#3f5335" rx="26" ry="30"/><path fill="#292922" d="M67 119l-14 18-13-9z"/><path fill="#536f5d" d="M118.7 24.4l79.9-18.5 2.7 11.7-79.9 18.5z"/><path fill="#484242" d="M167 140l10 26-19-11z"/><path fill="#799848" d="M188.2 118.3l17.6-10.8-88.8 2.1.2 15z"/><circle r="1" fill="#7d9e6e" transform="matrix(-5.46515 6.27636 -10.91564 -9.50482 196.5 6.3)"/><path fill="#ced1de" d="M173 32l-4 12-2-17z"/><path fill="#7e7c90" d="M199.9-.8L223.1-16l-.2 44.2-11.8-39.1z"/><ellipse cx="228" cy="151" fill="#a9a79c" rx="6" ry="4"/><ellipse cx="104" cy="65" fill="#5c7a7e" rx="4" ry="30"/><path fill="#87856e" d="M67.8 124.2l-2.6-35.9L40 107l82.2 12.4z"/><path fill="#7f95b0" d="M90.1 97.8l2.5-24 22.9 7.6 6.5 11.4z"/><path fill="#aca79e" d="M176 152l-21-23 42 17z"/><path fill="#969899" d="M38.7 141.2l-2-3.4 8.6-5 2 3.4z"/><circle cx="174" cy="124" r="5" fill="#f2edee"/><path fill="#929694" d="M66.3.2l13.6 46.4-18.4.1L41.4 4.5z"/><path fill="#1b1a1d" d="M-16 88l27 10-27 7z"/><path fill="#69655a" d="M184.7 147.2l38.2 17.2 5.4 3.2-43.3-2.4z"/><path fill="#324027" d="M187.7 90.1l14.2-4.3L184 83l-2.5 10.8z"/></g></g></svg>