<svg xmlns="http://www.w3.org/2000/svg" viewBox="0 0 1800 1200"><defs/><filter id="prefix__a"><feGaussianBlur stdDeviation="12"/></filter><rect width="100%" height="100%" fill="#232a3b"/><g filter="url(#prefix__a)"><g transform="translate(3.5 3.5) scale(7.03125)"><ellipse cx="109" cy="74" fill="#d1dee4" fill-opacity=".5" rx="255" ry="68"/><circle r="1" fill="#324255" fill-opacity=".5" transform="matrix(.91372 30.78658 -102.99067 3.0567 176.8 -.2)"/><ellipse cx="253" cy="165" fill="#e8ddac" fill-opacity=".5" rx="29" ry="8"/><path fill="#98a9b6" fill-opacity=".5" d="M181 130h75v10h-75z"/><ellipse cx="46" cy="79" fill="#a7a6a3" fill-opacity=".5" rx="126" ry="23"/><circle r="1" fill="#495668" fill-opacity=".5" transform="rotate(-177.8 62.1 1.7) scale(241.22038 13.74713)"/><ellipse cx="147" cy="141" fill="#09121f" fill-opacity=".5" rx="116" ry="2"/><ellipse cx="9" cy="133" fill="#88929c" fill-opacity=".5" rx="49" ry="7"/><ellipse cx="169" cy="11" fill="#333e4e" fill-opacity=".5" rx="62" ry="16"/><path fill="#798b9f" fill-opacity=".5" d="M113 4L-16 91 47 4z"/><circle cx="235" cy="83" r="57" fill="#83919b" fill-opacity=".5"/><path fill="#a7a5a2" fill-opacity=".5" d="M115 45L45 86l104 16z"/><path fill="#757e8a" fill-opacity=".5" d="M116 139L77 82l-93 56z"/><ellipse cx="215" cy="127" fill="#717e8e" fill-opacity=".5" rx="110" ry="13"/><circle r="1" fill="#4b5567" fill-opacity=".5" transform="matrix(14.11698 14.46621 -14.31916 13.97348 117 12.8)"/><circle r="1" fill="#7e8c9a" fill-opacity=".5" transform="matrix(25.51149 -26.41792 18.45494 17.82172 168 57.4)"/><path fill="#6d7a89" fill-opacity=".5" d="M-2.8 64.5L16.8 96l16.4-7.6-18.5-27.8z"/><path fill="#75879a" fill-opacity=".5" d="M11.2 28.3l37.5 45.1 61.4-20.5L92.3 2.4z"/><path fill="#b5b1ac" fill-opacity=".5" d="M23 50l25 24-17 26z"/><path fill="#434f60" fill-opacity=".5" d="M63.4 6.4L-2.4 19.2l-5-25.6 65.8-12.8z"/><circle r="1" fill="#5e6b7d" fill-opacity=".5" transform="matrix(10.6686 -.50312 .19598 4.1558 115.6 76.9)"/><path fill="#222e3b" fill-opacity=".5" d="M50 140h206v17H50z"/><path fill="#a2a09d" fill-opacity=".5" d="M244.5 56.5L267.6 0 246 24.9 236 27z"/><circle r="1" fill="#8a8877" fill-opacity=".5" transform="matrix(-1.89077 -7.22325 19.20535 -5.02722 241 165.9)"/><path fill="#77828e" fill-opacity=".5" d="M42 101l25 14-13-79z"/><path fill="#6e7c8c" fill-opacity=".5" d="M36.4 83.6l-10 8.4-14.8-17.6 10-8.4z"/><path fill="#b8b4ae" fill-opacity=".5" d="M117.5 58.9l-25.3 8L109 53l9.8-13z"/><path fill="#b8b3ad" fill-opacity=".5" d="M63 65h11v25H63z"/><path fill="#76808d" fill-opacity=".5" d="M162.3 86.6l43.6 15.9-76.9 34.2 15.7-66.1z"/><ellipse cx="22" cy="137" fill="#84909d" fill-opacity=".5" rx="255" ry="2"/><path fill="#242e3c" fill-opacity=".5" d="M168.9 139.5l-77.8.5 129.7 32.6 12.9-17.9z"/><ellipse cx="171" cy="9" fill="#384454" fill-opacity=".5" rx="45" ry="14"/><circle r="1" fill="#b1aca6" fill-opacity=".5" transform="matrix(-3.78655 -3.64388 12.0507 -12.52252 32.5 95)"/><path fill="#77808b" fill-opacity=".5" d="M104.8 82.7l-19.7-5.8-2-5.3 14-.7z"/><path fill="#b0a9a3" fill-opacity=".5" d="M138.8 71l-25.4 15.9 17.3 22.2-.1-14.4z"/><path fill="#b6b1aa" fill-opacity=".5" d="M106 91l-13 6-31-35z"/><path fill="#283240" fill-opacity=".5" d="M22 140h71v30H22z"/><circle r="1" fill="#959495" fill-opacity=".5" transform="matrix(-1.37664 -5.89522 30.2704 -7.0687 220.2 104.1)"/><circle r="1" fill="#4d5869" fill-opacity=".5" transform="matrix(-29.41716 7.06243 -1.2331 -5.1362 92 0)"/><path fill="#b6b192" fill-opacity=".5" d="M227 167l5 18h-65z"/><path fill="#798799" fill-opacity=".5" d="M1 16L102 5-11 78z"/><path fill="#2f3945" fill-opacity=".5" d="M257.7 161l13.3-16.6-52.6 23.5 12.8-17.2z"/><path fill="#b6b1ac" fill-opacity=".5" d="M134.8 76.7l1.1-7.1-14.8-6.8-23.6-4.3z"/><path fill="#d5cbbe" fill-opacity=".5" d="M23 62h7v7h-7z"/><path fill="#546374" fill-opacity=".5" d="M271 4.7l-39.4 10.6 4.1-.3 12.9 8.4z"/><path fill="#7a818b" fill-opacity=".5" d="M30 97h95v32H30z"/><ellipse cx="25" cy="118" fill="#657588" fill-opacity=".5" rx="41" ry="5"/><path fill="#485365" fill-opacity=".5" d="M126.5 38.5l-1.1-5.7L158.1-16H76.3z"/><circle r="1" fill="#5a6577" fill-opacity=".5" transform="rotate(-153.6 52 -1.6) scale(7.53085 8.66908)"/><path fill="#949393" fill-opacity=".5" d="M49 108l-65-27v25z"/><circle r="1" fill="#969898" fill-opacity=".5" transform="matrix(5.85189 -8.37335 9.60288 6.71117 0 58)"/><path fill="#6a7888" fill-opacity=".5" d="M88 101l-9 6-7-30z"/><path fill="#7a8a99" fill-opacity=".5" d="M153 29h76v50h-76z"/><path fill="#989a9c" fill-opacity=".5" d="M144.3 63.1l-30.2 31.6L153.9 52l-18.1-4.9z"/><path fill="#5a687b" fill-opacity=".5" d="M173.3 23.2l-71.1 7.6 55.8 3.6-4.1-1.8z"/><path fill="#778390" fill-opacity=".5" d="M233 102l38 35-104 1z"/><path fill="#76899c" fill-opacity=".5" d="M169.9 42.2l-3 13.7-94.8-20.1 3-13.7z"/><path fill="#7b828c" fill-opacity=".5" d="M121 70.5l1.6 3.6L97 85.5 95.4 82z"/><path fill="#848689" fill-opacity=".5" d="M163 30h42v12h-42z"/><path fill="#a5a29f" fill-opacity=".5" d="M97.2 80.3l-7.4 14.6 10.5 7.6L120 82z"/><path fill="#3e4b5b" fill-opacity=".5" d="M219 23L188 4l83-1z"/><path fill="#525f71" fill-opacity=".5" d="M74.2 5.2L.3 19.6l19.2-1.7L-16 10z"/><path fill="#727d8a" fill-opacity=".5" d="M130 67l20-3-20-5z"/><path fill="#85888e" fill-opacity=".5" d="M62.1 123.3l49.8-30.8 7 5.9-27.3 23.3z"/><path fill="#788798" fill-opacity=".5" d="M5.9 23.9l56.9 57.6 20.6-55.8L97.7 7z"/><path fill="#949598" fill-opacity=".5" d="M185.2 93.9l28.9 8.8 32.5 4-1.5-8.7z"/><path fill="#adaba7" fill-opacity=".5" d="M86.5 70.1l-11.6-2.8-16.1-.6L77.5 83z"/><path fill="#2e3947" fill-opacity=".5" d="M59 185l-14-30-27 2z"/><path fill="#9b9d9d" fill-opacity=".5" d="M238 24h7v36h-7z"/><path fill="#b6b3ae" fill-opacity=".5" d="M43.2 91.9l-23 6.7 24.4-18.9-18.1-15.5z"/><path fill="none" stroke="#535d6b" stroke-opacity=".5" stroke-width=".5" d="M271 137q-57 8.2-126.5-.8"/><path fill="#7d8691" fill-opacity=".5" d="M136 60l-25 3 9-9z"/><ellipse cx="86" cy="49" fill="#768595" fill-opacity=".5" rx="23" ry="11"/><ellipse cx="102" cy="142" fill="#212836" fill-opacity=".5" rx="184" ry="2"/><ellipse cx="79" cy="139" fill="#5c6576" fill-opacity=".5" rx="44" ry="1"/><path fill="#696d6b" fill-opacity=".5" d="M237 157h13v2h-13z"/><path fill="#798592" fill-opacity=".5" d="M14.6 42.8l-15.9 64.8L24 56.2l36.8-23.6z"/><path fill="#627082" fill-opacity=".5" d="M112 76h15v5h-15z"/><path fill="#667384" fill-opacity=".5" d="M192 28l32-3-18 9z"/><ellipse cx="197" cy="117" fill="#898c91" fill-opacity=".5" rx="19" ry="5"/><path fill="#394455" fill-opacity=".5" d="M148.1 39.5L151.6 0l80.2 13.5-76.7 8.7z"/><path fill="#97989a" fill-opacity=".5" d="M44.3 92l3-14.1-23.8-24 27.1 9.8z"/><ellipse cx="180" cy="24" fill="#485668" fill-opacity=".5" rx="41" ry="4"/><circle cx="77" cy="65" r="6" fill="#9d9d9d" fill-opacity=".5"/><path fill="#82919d" fill-opacity=".5" d="M169 62h29v25h-29z"/><ellipse cx="76" cy="136" fill="#7d8996" fill-opacity=".5" rx="255" ry="3"/><path fill="#6e7986" fill-opacity=".5" d="M116 95l-10 19 19-17z"/><path fill="#9b9897" fill-opacity=".5" d="M169 29h10v9h-10z"/><ellipse cx="155" cy="156" fill="#253141" fill-opacity=".5" rx="44" ry="8"/><path fill="#5f6a7a" fill-opacity=".5" d="M96.9 28.2L93.2 2.8 107 3.9l-.5-3.7z"/><path fill="#b9b6b1" fill-opacity=".5" d="M103 59l10-9-13 27z"/><path fill="#1e2834" fill-opacity=".5" d="M152 169l62-16 15 32z"/><circle r="1" fill="#7f868f" fill-opacity=".5" transform="matrix(.25134 2.93175 -7.3817 .63283 89.7 77.2)"/><path fill="#6c7b8c" fill-opacity=".5" d="M96 123h131v5H96z"/><path fill="#838990" fill-opacity=".5" d="M169 108.9l-36-49 11.9 48.4 29.6 1.8z"/><path fill="#a3a39f" fill-opacity=".5" d="M241 31h15v7h-15z"/><circle cx="214" cy="47" r="18" fill="#768798" fill-opacity=".5"/><circle r="1" fill="#394453" fill-opacity=".5" transform="matrix(-70.02412 -4.675 .26614 -3.9863 8.4 0)"/><path fill="#81878f" fill-opacity=".5" d="M21 117l29-35 6 20z"/><path fill="#637080" fill-opacity=".5" d="M125 30.4l2.9 26.9-3 .3-2.8-26.9z"/></g></g></svg>