<svg xmlns="http://www.w3.org/2000/svg" viewBox="0 0 1800 1200"><defs/><filter id="a"><feGaussianBlur stdDeviation="12"/></filter><rect width="100%" height="100%" fill="#553535"/><g filter="url(#a)"><g fill-opacity=".5" transform="translate(3.5 3.5) scale(7.03125)"><circle cx="123" cy="31" r="141" fill="#c8b8a4"/><circle r="1" fill="#2d000b" transform="rotate(-121.3 72.6 39.2) scale(40.63208 72.68481)"/><circle r="1" fill="#e2e5c3" transform="rotate(-91.6 105.3 -79.3) scale(21.75327 126.57393)"/><circle cx="220" cy="137" r="32" fill="#141e25"/><circle r="1" fill="#fefffa" transform="matrix(45.19489 16.00435 -5.56236 15.70763 246.6 43.1)"/><circle r="1" fill="#fabdc8" transform="matrix(-32.09427 9.40061 -8.08914 -27.61683 161 169)"/><ellipse cy="58" fill="#d1c5c8" rx="23" ry="57"/><circle r="1" fill="#9a242f" transform="rotate(147.1 15 51.1) scale(22.05002 58.42305)"/><circle r="1" fill="#b69c7e" transform="matrix(15.34913 -6.995 30.21758 66.30643 166.2 55.7)"/><circle r="1" fill="#2c282b" transform="rotate(24.3 -179.1 334.6) scale(12.07535 85.19392)"/><circle r="1" fill="#fcf6dd" transform="matrix(-4.11705 15.34044 -10.31781 -2.76908 101.4 60.3)"/><path fill="#d8f1de" d="M271 146v23l-49 3z"/><path fill="#fff" d="M167 25h89v12h-89z"/><path fill="#a8c8d9" d="M0 10h36v25H0z"/><ellipse cx="92" cy="1" fill="#4c8c66" rx="91" ry="12"/><circle r="1" fill="#5f6358" transform="matrix(16.92384 -17.40317 34.5716 33.6194 233.3 94.4)"/><path fill="#853040" d="M28.1 103.6l11.3 71.1L4 180.4l-11.3-71.1z"/><path d="M42 185l-10-59 22-27z"/><circle r="1" fill="#1f4fb3" transform="matrix(20.60528 -1.65786 .77318 9.60978 86.7 166.1)"/><circle r="1" fill="#b1a083" transform="matrix(2.13317 -13.1706 46.8868 7.594 172 55.5)"/><path fill="#622e25" d="M185 131l-67-61 24-12z"/><circle cx="153" cy="44" r="17" fill="#845230"/><path fill="#d4b69f" d="M198.2 124.5l-42-40.9-6.5-43.1 25.7 34.4z"/><path fill="#0a070a" d="M184 40h18l-10 10z"/><ellipse cx="74" cy="74" fill="#46645b" rx="13" ry="31"/><ellipse cx="229" cy="15" fill="#617073" rx="38" ry="6"/><path fill="#e5e8d8" d="M107 61l-5 32-11-40z"/><circle r="1" fill="#0e1810" transform="rotate(-85 116.1 -2.1) scale(30.88122 12.9297)"/><path fill="#b8c4b1" d="M52 12h37v33H52z"/><path fill="#e3a973" d="M135 121l27 23-22-58z"/><path fill="#ffeed3" d="M179-11l1 32 47-37z"/><path fill="#858799" d="M95.1 134.5l32.6 29.2-41.7-9.1 4-22z"/><path fill="#7b7676" d="M175.2 148l45.3 21.1-9.7 20.9-45.3-21.1z"/><ellipse cx="42" cy="67" fill="#972d32" rx="18" ry="34"/><path fill="#d33244" d="M61 106h33v18H61z"/><path fill="#dcdecf" d="M164.7 37l20.2-21.2-19.3 46.3 35.2-2.8z"/><path fill="#ff9089" d="M13 37h12v56H13z"/><circle r="1" fill="#4c3e33" transform="matrix(-6.34203 3.04498 -17.77694 -37.02541 217.9 100.5)"/><path fill="#16262a" d="M-4.3 48.9l5-.6 3.6 34.8-5 .6z"/><path fill="#7c001b" d="M90.5 141.5L63 165.6l-2.3-31.5-.5-18z"/><path fill="#d2a17b" d="M226.7 88l7 3.9 33.7 9-32.5 3.2z"/><circle r="1" fill="#9d5740" transform="rotate(86.5 8.8 146.8) scale(11.85456 28.83235)"/><path fill="#4b523e" d="M163 10l-41-5 27 12z"/><path fill="#698789" d="M46 28l29 60L64-16z"/><path fill="#e4e1c8" d="M15 74.4l8.8 8-22.7 25.2-9-8z"/><path fill="#d4896f" d="M182 126l-2.8-31.8L204 92l2.7 31.8z"/><path fill="#16191c" d="M192.2 159.4l5.2-11.9 19.9-25.2 13.7 44.6z"/><path fill="#77847b" d="M201 37h28v35h-28z"/><path fill="#cac7ae" d="M263.5 35.1l-3.1 75.9 4.3-34.5-58.9-40z"/><path fill="#2c6b3f" d="M205.4 1.3l37-2.6.2 4-37 2.6z"/><path fill="#d9b991" d="M68 12h72v32H68z"/><path fill="#1d2527" d="M101.4 177.9L95 73.9 75.3 93.1l33.3 32.3z"/><path fill="#a7918b" d="M121.9 137.7l7.6-33.3 10.7 53.2L95.6 185z"/><path fill="#964140" d="M109.1 63.1l32.2 11.1L97 76.5l-4.3 19.4z"/><path fill="#28171b" d="M105.9 73.1l2.2 11.6L160 89l-3.9-9.7z"/><path fill="#ffdfb7" d="M32 35l8-20-15-5z"/><circle r="1" fill="#bb9579" transform="matrix(-2.85473 9.92746 -31.13617 -8.9535 147.8 0)"/><path fill="#938166" d="M90 25h11v32H90z"/><ellipse cx="255" cy="121" fill="#3e5779" rx="21" ry="22"/><circle r="1" fill="#eeb8b3" transform="rotate(129.4 29.7 117.4) scale(38.97415 11.30842)"/><path fill="#7f7791" d="M.5 104.3l18.4 7.9-7.4 17.5-18.4-7.9z"/><ellipse cx="6" cy="26" fill="#7e9099" rx="13" ry="23"/><path fill="#31242c" d="M16.9 102.7l56.6 4.7-42.9-7L74.8 185z"/><circle r="1" fill="#363827" transform="matrix(-3.57355 3.66195 -5.0928 -4.96986 119.7 48.7)"/><path fill="#fdfdf8" d="M215.9 35.8L169 39.1l-.9-13L215 23z"/><path fill="#c7cdbb" d="M146 59l15 25 7-23z"/><path fill="#e8e7e4" d="M98.7 66l-15.4 6.4 12.2-14.3 28.6.8z"/><path fill="#101f0e" d="M175 185h-28l51-27z"/><path fill="#902c3f" d="M141 151.1l-15.6-33.5 28 25.1-8.4-.9z"/><path fill="#71523b" d="M155 39.1l40.9 3.2-22.4.7-14 19.2z"/><path fill="#d0b78b" d="M137 109.1l5.7 25.5 4.4-40.9L161 99z"/><path fill="#eed7ab" d="M127 44h10v13h-10z"/><ellipse cx="143" cy="54" fill="#876051" rx="5" ry="44"/><path fill="#d9f8ff" d="M143 24h13v5h-13z"/><circle r="1" fill="#f7eed6" transform="rotate(85.7 112 129.7) scale(1 37.71984)"/><path fill="#c25f6a" d="M18.5 104.8L16.7 59 45 110.3l-12-5.8z"/><circle cx="243" cy="82" r="12" fill="#784c29"/><ellipse cx="173" cy="120" fill="#66543a" rx="7" ry="20"/><path fill="#605145" d="M66.6 69l-18.2 73.9 29-80.6 56 59.8z"/><path fill="#696357" d="M197.8 80l1.1-43.6-4.9 11.3-4.7 42.7z"/><path fill="#c49f8c" d="M86.8 149.2l6.8-16.7 5.6 2.3-6.8 16.7z"/><path fill="#273762" d="M92.1 144l20.4-2.8-10.1 25.6L90.9 185z"/><path fill="#71351d" d="M43 39l6-23-12 7z"/><ellipse cx="134" cy="150" fill="#f1b27b" rx="3" ry="16"/><path fill="#b0b5ab" d="M117 173.4l-13.3-12.8 9-15.6 5.7 15.8z"/><path fill="#a28174" d="M62 100.8l12.8-20-3.7 33.6 9.8-11.3z"/><path fill="#e4ddcb" d="M209.2 53.7l7.8 1.9-2.2 8.7-7.8-1.9z"/><ellipse cx="229" cy="21" fill="#ad9574" rx="43" ry="3"/><path fill="#232b29" d="M134.6 104.9l24.7-16.7-21.3 8.9-71.2.2z"/><path fill="#534537" d="M7.1 43l8.3-8.5-2.4 1.8-.9 15.4z"/><path fill="#ffd19d" d="M182 87l4-24.7 4 .7-4 24.7z"/><path fill="#9da590" d="M50 128l4-15 3 10z"/><path fill="#8a9277" d="M207.5 163.5l-13.3-2.3-7.4 16.6 68.3 7.2z"/><path fill="#563f33" d="M205 104h32v24h-32z"/><path fill="#565443" d="M184.5 48.3l33.6 5.7 7.7-4.8-8.1-2.7z"/><path fill="#2b0508" d="M127.9 59.3l-4.7 10 11.7-4.7 7.9-1.9z"/><path fill="#323437" d="M69 45h17v8H69z"/><path fill="#5e876b" d="M21 0h114v13H21z"/><path fill="#7e7665" d="M168.9 85.5l19.1 4.7.1 5.8-26.6-29.6z"/><path fill="#be0011" d="M150.4 163.4l27-7.7.2 1-27 7.6z"/></g></g></svg>