<svg xmlns="http://www.w3.org/2000/svg" viewBox="0 0 1800 1200"><defs/><filter id="a"><feGaussianBlur stdDeviation="12"/></filter><rect width="100%" height="100%" fill="#273956"/><g filter="url(#a)"><g fill-opacity=".5" transform="translate(3.5 3.5) scale(7.03125)"><circle r="1" fill="#d7d3bd" transform="matrix(-7.90296 87.25476 -189.40051 -17.15465 118.8 37.1)"/><circle r="1" fill="#f9ffff" transform="rotate(-174.4 23.8 79) scale(27.71011 12.3515)"/><circle r="1" fill="#b5c3df" transform="matrix(23.35425 40.80607 -25.60501 14.65434 146.7 113.3)"/><circle r="1" fill="#3f220b" transform="rotate(-67.1 120.1 -95.6) scale(27.90261 20.39267)"/><circle cx="213" cy="120" r="26" fill="#000f5c"/><path fill="#b4b396" d="M1 185L-12 83l39 18z"/><path fill="#000009" d="M27 66h16v46H27z"/><ellipse cx="82" cy="121" fill="#112637" rx="44" ry="20"/><circle cx="87" cy="13" r="63" fill="#b0b0a5"/><path fill="#c5d8f6" d="M132 79l8 54 51-57z"/><path fill="#606b78" d="M122 136h58v34h-58z"/><path fill="#767f73" d="M236 43h20v121h-20z"/><path fill="#1a0a00" d="M203 68h21v11h-21z"/><path fill="#e0f0ff" d="M34.6 151.6L80.7 185l-30.6-37.8L12.4 185z"/><circle r="1" fill="#01060a" transform="rotate(-35.2 189.5 -218.4) scale(16.49041 7.52517)"/><path fill="#8c9fa5" d="M154.7-16l22.6 70.5 7.1 75.1L203.8 25z"/><path fill="#001701" d="M33 170.7l12.2-10.3 5.8 6.9-12.2 10.3z"/><path fill="#00367e" d="M191 99h42v27h-42z"/><circle r="1" fill="#081517" transform="matrix(-33.68134 -2.35523 .81814 -11.69988 50.6 136.2)"/><path fill="#d2cfc6" d="M103 66h41v19h-41z"/><path fill="#dacfd2" d="M177.4 118.3l6.2 5.2-27 32.2-6.2-5.2z"/><path fill="#63411d" d="M68.7 117.1l-31.2-11.2 13.9-.6 19-27.5z"/><path fill="#272c34" d="M155 138l6 38-30-42z"/><path fill="#84815e" d="M181.3 181.1l53.8-30-2.4 29.3-40.2-30.4z"/><circle r="1" fill="#c69888" transform="matrix(-5.66038 -5.73887 6.93265 -6.83783 157.4 51.2)"/><path fill="#768aa4" d="M108 103l39 82-22-125z"/><path fill="#435963" d="M0 139h23v31H0z"/><path fill="#4a576f" d="M180.7 104.8l-5 18.3-14.4-3.9 5-18.3z"/><circle r="1" fill="#03223c" transform="rotate(76.7 16.1 195.8) scale(13.35908 29.36404)"/><path fill="#e6bfb1" d="M40.9 91.7l12-7.2L61 98.3l-12 7.2z"/><circle r="1" fill="#1d4066" transform="rotate(-147 70 50.3) scale(26.88044 20.15864)"/><circle r="1" fill="#b9cae7" transform="matrix(-10.43428 3.49126 -2.20227 -6.58188 173.3 76.6)"/><ellipse cx="92" cy="96" fill="#cb947a" rx="9" ry="12"/><path fill="#001e39" d="M29 66h12v50H29z"/><circle r="1" fill="#d6a589" transform="rotate(-162.7 112.8 28) scale(8.92647 9.65948)"/><circle r="1" fill="#41342a" transform="matrix(4.9424 -2.0069 10.8491 26.71812 162.1 37)"/><path fill="#cfdefe" d="M64.7 185l-15.1-21.8 3.8-19.4 12.4 22.3z"/><path fill="#49321f" d="M228.4 101.9l-19.9 3.9 16.2-25-16.4-21.7z"/><circle r="1" fill="#75725d" transform="matrix(-6.40814 -14.87954 20.4143 -8.79179 9.9 71.9)"/><path fill="#ffc01d" d="M46 103l13 9-13-1z"/><circle cx="39" cy="16" r="18" fill="#7e9ec3"/><path fill="#0d121a" d="M219.2 145.2l-1.8 28-43.3 11.8 75-47.2z"/><ellipse cx="71" cy="83" fill="#696961" rx="33" ry="8"/><path fill="#7e8274" d="M234.7 104.3l15.9-2.2 4.7 33.6-15.9 2.2z"/><path fill="#cedfff" d="M25 151h12v19H25z"/><path fill="#194263" d="M28 100h18v31H28z"/><circle r="1" fill="#686553" transform="matrix(-12.64453 5.78912 -11.42521 -24.95483 255 12.6)"/><path fill="#0054bd" d="M207 99l-20 32 2-24z"/><path fill="#10151a" d="M103 155l18-18 18-1z"/><circle cx="136" cy="157" r="12" fill="#657ea8"/><path fill="#34a7ec" d="M62 152h9v7h-9z"/><circle r="1" fill="#a6bed1" transform="matrix(-7.66008 -9.25945 8.87896 -7.34532 68.6 45.5)"/><ellipse cx="128" cy="31" fill="#a0917a" rx="16" ry="37"/><path fill="#3c425b" d="M0 146h50v5H0z"/><path fill="#abbbd1" d="M126.9 135.9l47.2-8-18-3.7 38.3-73.3z"/><ellipse cx="116" cy="78" fill="#bab5a8" rx="14" ry="19"/><circle cx="222" cy="16" r="19" fill="#7093b1"/><ellipse cx="255" cy="144" fill="#112647" rx="52" ry="7"/><circle r="1" fill="#26211e" transform="matrix(-4.23829 1.97653 -7.05482 -15.12771 150.3 66.9)"/><path fill="#848685" d="M-16 149.6l23.7 19.9L30 145.2l11.5 7.5z"/><path fill="#445a77" d="M120.3 108.3l-30.8-7.7 44.3 3.7-38.1 74.6z"/><path fill="#9bb3da" d="M168.1 137.9l-6-11.6 20.3 5.2 7.8-43.4z"/><ellipse cx="12" cy="112" fill="#97a99f" rx="5" ry="28"/><path fill="#54698a" d="M167 181.9l17.5-32.1-16.6-10.3-9 14.2z"/><path fill="#9f9b91" d="M47 40L11 20l10 60z"/><path fill="#05468d" d="M236 130l-23 24 19-45z"/><path fill="#2b2826" d="M63.1 93.8l2.4 45.5 4.2-44.9-12.9-17.2z"/><path fill="#79654b" d="M159 0l5 21-25 29z"/><path fill="#9d9c8d" d="M89 96l-20 21V89z"/><path fill="#01451c" d="M0 166h24v4H0z"/><path fill="#ddb7a6" d="M166 137.7L154.1 155l-4.1-2.8 11.7-17.4z"/><path fill="#bdceea" d="M130.1 70l25.6 13.5-9.8 18.6-25.6-13.6z"/><circle cx="194" cy="46" r="3" fill="#020000"/><path fill="#93a1b1" d="M109.4 110.3l-3.5-26.6 23.3 52.4 22-9.2z"/><path fill="#1c150e" d="M155 77l20-10-4-25z"/><path fill="#081c34" d="M190.6 147.3l2.4-31.2 30.8 12.7-60 12.3z"/><path fill="#6f4f0f" d="M217 14h9v7h-9z"/><path fill="#81867f" d="M188.1 185l-1.2-5.6 19.8-28.7-18.8 12.7z"/><path fill="#373335" d="M213.4 107.9l21.5-10.7-46.3-3.5 10.1 1.5z"/><circle cx="79" cy="15" r="12" fill="#99b2cb"/><path fill="#282420" d="M17 94h2v38h-2z"/><path fill="#64554e" d="M91.7 79.2l11.9 27.8-1.4-30.8-9.4-1.4z"/><ellipse cx="104" cy="19" fill="#7b8d84" rx="6" ry="52"/><path fill="#45433b" d="M206.3 79.5l4.4-18.1-9.6 10.6-11.7 1.2z"/><path fill="#315887" d="M78 147.5l30-9.3-8.8 46.8 15.7-29.3z"/><path fill="#878c83" d="M43 92l-2-27 55-3z"/><ellipse cx="253" cy="92" fill="#afbcc4" rx="38" ry="2"/><path fill="#386395" d="M77.8 127.6l-1.4-9.9 23.8-3.3 1.4 9.9z"/><path fill="#0d1218" d="M41 127l3 19 59-16z"/><path fill="#074fa4" d="M183.9 121.1l17.8-28.3L218 123l15.1-20.2z"/><path fill="#58676c" d="M-16 64.6l32.4 3.9 14.2 16.2L-16 96.2z"/><path fill="#747262" d="M236.7 56.7l-1 26.1-12.9 5.6L250.5-16z"/><ellipse cx="114" cy="39" fill="#c0b5a2" rx="4" ry="50"/><circle cx="181" cy="17" r="3" fill="#121516"/><path fill="#a38478" d="M168.1 50L150 43.6l5.9 26.2 5.9-12.5z"/><path fill="#8f8974" d="M160 19.9l72 30.5-36.1-31.5-17.2 24.8z"/><path fill="#252f3f" d="M145.9 149.5l15.3-12.4-35.1 5.4 23.7.8z"/><path fill="#778478" d="M215.1 183.9l6.9-30.6 8.1-.7-2.9 32.4z"/><path fill="#24232c" d="M242 102h3v15h-3z"/><path fill="#0d2712" d="M62 185l38-8-5-24z"/></g></g></svg>