<svg xmlns="http://www.w3.org/2000/svg" viewBox="0 0 1200 1800"><defs/><filter id="a"><feGaussianBlur stdDeviation="12"/></filter><rect width="100%" height="100%" fill="#614f31"/><g filter="url(#a)"><g fill-opacity=".5" transform="translate(3.5 3.5) scale(7.03125)"><circle r="1" fill="#faffff" transform="matrix(19.65796 -57.08026 159.78949 55.03017 133 52)"/><circle r="1" fill="#888f98" transform="matrix(-52.9013 -56.37104 123.23348 -115.64822 93.3 206)"/><circle r="1" fill="#3a352f" transform="rotate(120.9 29.1 84.6) scale(46.83058 20.76695)"/><ellipse cx="96" fill="#e8eae8" rx="50" ry="65"/><circle r="1" fill="#999894" transform="matrix(-75.5976 -11.16328 4.0947 -27.7293 35.6 74)"/><circle r="1" fill="#afb8bd" transform="rotate(18 -336.2 599.2) scale(23.09029 47.29662)"/><path fill="#010000" d="M34.5 204l21.6 21-14.6 15-21.6-20.8z"/><ellipse cx="71" cy="200" fill="#c0b8ac" rx="29" ry="16"/><path fill="#2a2f34" d="M96.7 86.5l-50 30.1-1.1 28.2 37.6 5.8z"/><path fill="#000420" d="M106.1 210.2L95 183.8l4.1-24.9 20 19.8z"/><circle r="1" fill="#4e402e" transform="matrix(-2.66837 15.60334 -40.69577 -6.95949 142.6 229.7)"/><path fill="#756859" d="M24.4 21.5L-16 18.3 30.7-16l38.2 83.6z"/><path fill="#a69f94" d="M111 187h59v30h-59z"/><ellipse cx="169" cy="23" fill="#cbccca" rx="38" ry="58"/><path fill="#b3b8af" d="M55 177l45-12-90-5z"/><ellipse cx="10" cy="140" fill="#1e2d2f" rx="15" ry="46"/><ellipse cx="83" fill="#fff" rx="23" ry="15"/><path fill="#a7a297" d="M134.6 247.2l-6 22.3-77.2-20.7 6-22.3z"/><path fill="#a09b96" d="M94 115l-4 20-29-33z"/><path fill="#1a1105" d="M144 11h7v15h-7z"/><path fill="#d5cebf" d="M62.7 96.3l-16.3-7.6 22.9-49 16.3 7.6z"/><path fill="#5f574d" d="M13.6 54.1l-2 54.2 63.3 10.5-61.8-75.9z"/><path fill="#020f2a" d="M136 174l-4-28 16-4z"/><path fill="#7b3f00" d="M32 173h14v26H32z"/><ellipse cx="8" cy="203" fill="#b1a69b" rx="39" ry="8"/><path fill="#b9bbb2" d="M0 3l11 87-27 23z"/><path fill="#908a85" d="M34 104h11v57H34z"/><circle r="1" fill="#1c1507" transform="matrix(75.75943 1.3085 -.06692 3.8748 169 223.4)"/><path fill="#ac9480" d="M143.6 98l-19.5 78.5-9.7-2.4 19.5-78.6z"/><path fill="#b1aea4" d="M132 48L122-2 59 111z"/><path fill="#b1afa7" d="M15 159h12v14H15z"/><path fill="#212020" d="M92.5 91.2l22.3 25.7-11.3 9.9L81.2 101z"/><path fill="#332516" d="M111 196h59v4h-59z"/><path fill="#360b00" d="M7-3l8 16-6 6z"/><path fill="#9c9c8f" d="M-8.7 222.8l39-.6.4 21-39 .6z"/><circle r="1" fill="#403622" transform="rotate(95.5 -85.5 122.6) scale(5.64849 74.56379)"/><path fill="#408bbf" d="M160 122h10v43h-10z"/><path fill="#272c25" d="M49 109h28v36H49z"/><ellipse cx="133" cy="232" fill="#8b7d6c" rx="37" ry="7"/><path fill="#d8c6b3" d="M167.6 103.9l6.3-.2-23.1 43.4 8.6-81.6z"/><circle r="1" fill="#c98000" transform="rotate(170 10.6 97.2) scale(10.54479 5.90259)"/><path fill="#c9c6b8" d="M-18 25.1l49.3-7.8L36 46.9l-49.3 7.8z"/><path fill="#7e756a" d="M155 80l-25 59-18-111z"/><circle r="1" fill="#c5c2ba" transform="matrix(-16.18838 27.68115 -5.95025 -3.4798 109.8 65.1)"/><ellipse cx="106" cy="191" fill="#0c2234" rx="5" ry="29"/><path fill="#35545f" d="M88 82L76 64l7-3z"/><path fill="#715746" d="M43.9 63.4l18.9-10.9L47 49.2l11.6 37.7z"/><path fill="#0d0d0d" d="M33 243l-1-34h17z"/><path fill="#5f584e" d="M36 71L18 48l-27 9z"/><path fill="#d7d7d2" d="M117 30h47v19h-47z"/><path fill="#a1a69d" d="M34 142l62 34H63z"/><path fill="#030510" d="M11.3 185.2l-16.2-5.3 5.6-17 16.2 5.2z"/><path fill="#192b33" d="M111.1 134.6l9.4 11.5-30.7-5.6 20.1-26.9z"/><ellipse cx="2" cy="160" fill="#9f9c8f" rx="27" ry="3"/><path fill="#3e3429" d="M125.9 92.1l-13-8.6-1.7-7.8 12.2 57.1z"/><path fill="#dfdacd" d="M96.7 89.2L83.3 66l-7.7-29.4L98.8 14z"/><path fill="#6c6860" d="M159.2 48.5l.5 5-23 2-.4-5z"/><path fill="#9cadad" d="M0 185h25v5H0z"/><circle r="1" fill="#38311d" transform="matrix(3.97532 -.10889 .5664 20.6779 17.2 92.3)"/><path fill="#13151d" d="M31.9 178.4l4 10.4 8.9-9-7.9-7.7z"/><circle r="1" fill="#a8a291" transform="rotate(-175.6 39.4 93.4) scale(28.67264 6.57948)"/><path fill="#817e7d" d="M131 246h39v10h-39z"/><path fill="#192c1d" d="M155 177h15v6h-15z"/><path fill="#1c2830" d="M110.2 160.6l11 25.7-7.4 3.1-11-25.7z"/><path fill="#a6a396" d="M125 181h29v16h-29z"/><path fill="#938877" d="M25.7 96.9l-1.4 24.6-4.4-45.4 31.7 32.4z"/><path fill="#342e21" d="M23.3 262.7l15.6-44.1-7.3 25.1 19.7 18.5z"/><path fill="#5f5048" d="M135 146l6.3-67.9 2.5 77.4 8.3-8.4z"/><path fill="#fff" d="M65 0h38v14H65z"/><ellipse cx="154" cy="139" fill="#cdaa94" rx="6" ry="28"/><circle cx="20" cy="140" r="15" fill="#2e241c"/><circle r="1" fill="#5f6860" transform="matrix(3.45494 -.25978 1.7809 23.6851 64.8 122.7)"/><path fill="#3e3c22" d="M66 177h29v6H66z"/><path fill="#ac9684" d="M124 158l-25 4 53-54z"/><path fill="#573b29" d="M58.6 19.4l1.8-15 1 .2-1.8 15z"/><path fill="#3e3b32" d="M80 92.3l14.8.5 1 2.6-41.2 34.7z"/><path fill="#b0a79d" d="M85.7 128.2l6.4-21v6.6l-13.7.6z"/><path fill="#8d8b7c" d="M78 141h20v21H78z"/><path fill="#62533b" d="M131 241l-60-26 31 26z"/><path fill="#817b6c" d="M28 210l-7 38 13-18z"/><path fill="#1a1616" d="M77.8 142.2l-8.9-19 7.3-3.4 8.9 19z"/><circle cx="4" cy="123" r="5" fill="#92907d"/><path fill="#466675" d="M88.1 78.8l-12 2.5.6-24.3 1.8 9.9z"/><ellipse cx="169" cy="78" fill="#877d71" rx="2" ry="32"/><path fill="#3b4041" d="M103.6 168.4l24.8 15.1-36.2-12.4 12.4-27.1z"/><path fill="#cbc8bd" d="M64.1 103.6L29.9 53.8 9 22.8l17.1 13.7z"/><path fill="#aca597" d="M123 87l10-1 3 22z"/><path fill="#1c140b" d="M127 241h43v2h-43z"/><path fill="#1b4b62" d="M116.3 147l-11-.1.4-22 11 .2z"/><path fill="#b3ac9e" d="M99.6 95l-28.4-7.9 53.1-21.5-15.9 23z"/><path fill="#635046" d="M50.6 142.5L28.1 95.6l9.6 67.9-19.9-9.7z"/><path fill="#a99d89" d="M39 123l8-16-10-7z"/><path fill="#5f4336" d="M64.7 207.9l-9.9-13.7 12.4 30.5-6-6.3z"/><path fill="#cac8bd" d="M-16 21L8-14 3 21z"/><ellipse cx="115" cy="33" fill="#5f5950" rx="3" ry="6"/><path fill="#86837b" d="M48 227h43v29H48z"/><path fill="#333133" d="M137 93h2v75h-2z"/><path fill="#a7896d" d="M112 107l7 5v21z"/><circle r="1" fill="#241e1b" transform="rotate(27.7 -12.2 179) scale(1 3.30863)"/><path fill="#8da7aa" d="M33.7 157l-1.1-6.9 19.7-3.1 1.1 6.9z"/></g></g></svg>