<svg xmlns="http://www.w3.org/2000/svg" viewBox="0 0 1800 1200"><defs/><filter id="prefix__a"><feGaussianBlur stdDeviation="12"/></filter><rect width="100%" height="100%" fill="#493d32"/><g filter="url(#prefix__a)"><g transform="translate(3.5 3.5) scale(7.03125)"><circle r="1" fill="#fff3d9" fill-opacity=".5" transform="matrix(46.18483 36.47458 -19.51646 24.71213 153.6 131)"/><circle r="1" fill="#f4dcb2" fill-opacity=".5" transform="rotate(6.4 -792.1 390) scale(92.54875 17.60848)"/><circle r="1" fill="#d6d3be" fill-opacity=".5" transform="matrix(-2.39636 57.17533 -15.03151 -.63 209.4 50.4)"/><path fill="#d6cfb6" fill-opacity=".5" d="M231 106l40 8-26-130z"/><path fill="#fff" fill-opacity=".5" d="M160 101l35 5-36 79z"/><circle r="1" fill="#897357" fill-opacity=".5" transform="matrix(35.28244 44.45116 -91.65099 72.7466 66.8 26.5)"/><ellipse cx="119" cy="142" fill="#494943" fill-opacity=".5" rx="33" ry="34"/><circle r="1" fill="#372e1f" fill-opacity=".5" transform="matrix(7.20667 2.05135 -19.84366 69.71362 202 138.7)"/><path fill="#e6d1af" fill-opacity=".5" d="M195 30l21 26-14 70z"/><circle r="1" fill="#ffffec" fill-opacity=".5" transform="rotate(87.3 10.9 157.1) scale(38.62505 12.53007)"/><ellipse cx="229" cy="106" fill-opacity=".5" rx="4" ry="145"/><path fill="#2b2012" fill-opacity=".5" d="M177 96.6L7.6 62.8l113.7 27 73.7 17.9z"/><circle r="1" fill="#f3d7af" fill-opacity=".5" transform="matrix(-.39547 8.38594 -49.36138 -2.32782 114 101.6)"/><path fill="#6d777b" fill-opacity=".5" d="M192.6 36.2l.8-49 34 .6-.8 49z"/><path fill="#efcda0" fill-opacity=".5" d="M234 89h22v21h-22z"/><path fill="#5e594f" fill-opacity=".5" d="M154 112.9l-3 58-71-3.8 3-58z"/><circle cx="201" cy="127" r="20" fill="#645a49" fill-opacity=".5"/><path fill-opacity=".5" d="M210 75h21v10h-21z"/><path fill="#866d51" fill-opacity=".5" d="M59.9 69.7L128.7-16l-16.3 72.9 14 32.4z"/><path fill="#57656c" fill-opacity=".5" d="M240-15l31 31-35 41z"/><ellipse cx="227" cy="169" fill="#151710" fill-opacity=".5" rx="20" ry="33"/><circle r="1" fill="#bca686" fill-opacity=".5" transform="rotate(79.9 -31.2 82.6) scale(8.15236 47.66985)"/><ellipse cx="233" cy="6" fill-opacity=".5" rx="4" ry="56"/><circle r="1" fill="#2f393c" fill-opacity=".5" transform="matrix(-4.96862 44.3106 -75.41894 -8.45685 27 154.5)"/><path fill="#372e25" fill-opacity=".5" d="M111.7 43l34-39.2 10.6 9.2-34 39.2z"/><path fill="#1c170c" fill-opacity=".5" d="M190 45h6v63h-6z"/><path fill="#2c2319" fill-opacity=".5" d="M195.3 120l4.7 65 4.1-26.6 6.4-45.8z"/><circle cx="219" cy="92" r="5" fill="#bba888" fill-opacity=".5"/><path fill="#8f7659" fill-opacity=".5" d="M106 9l61-25 22 20z"/><circle r="1" fill="#584d40" fill-opacity=".5" transform="rotate(-176.6 3.5 27.6) scale(26.1008 36.53698)"/><ellipse cx="204" cy="97" fill="#fddfb3" fill-opacity=".5" rx="5" ry="14"/><path fill="#baae98" fill-opacity=".5" d="M198 42h27v31h-27z"/><path fill="#f1d9b3" fill-opacity=".5" d="M155 112l36-5-80-19z"/><path fill="#12130e" fill-opacity=".5" d="M211.9 79.9l-2.7 21.9L227 93l.3 53z"/><path fill="none" stroke="#161107" stroke-opacity=".5" stroke-width=".5" d="M-9.6 185q52.6-19.5 205-101.7"/><path fill="#fff" fill-opacity=".5" d="M160 109h18v32h-18z"/><path fill="#8d7d69" fill-opacity=".5" d="M158.5 151.7l4.2 33.3-51.4-29.9 45.1-22.2z"/><circle r="1" fill="#c7b192" fill-opacity=".5" transform="matrix(-28.19301 2.88233 -1.24265 -12.15475 89.6 98.6)"/><circle r="1" fill="#4b4b46" fill-opacity=".5" transform="matrix(-.6293 15.668 -48.08868 -1.93144 80.3 125.2)"/><path fill="#4a4f4a" fill-opacity=".5" d="M229 111h27v29h-27z"/><path fill="#6b5b48" fill-opacity=".5" d="M201 128l-12.3 38-5.7-2 12.3-38z"/><path fill="#f3e5cf" fill-opacity=".5" d="M179.9 161.1l8.2-14h-38.2l-.7 6.4z"/><path fill="#818078" fill-opacity=".5" d="M194 4h32v45h-32z"/><path fill="#605b51" fill-opacity=".5" d="M34 167l56-13v17z"/><path fill="#7f7766" fill-opacity=".5" d="M34.8 69.5l11.8 5.1-62.6 53.1V62.1z"/><path fill="#2e261a" fill-opacity=".5" d="M175 74h22v25h-22z"/><circle r="1" fill="#433425" fill-opacity=".5" transform="matrix(-.4439 1.84897 -35.4617 -8.5136 137.4 91.9)"/><ellipse cx="255" cy="23" fill="#666966" fill-opacity=".5" rx="18" ry="33"/><path fill="#a99576" fill-opacity=".5" d="M182.5 133.1l-5-16.8 14.6-9.3 8.7 5.3z"/><path fill="#5d6366" fill-opacity=".5" d="M227-16l-43 5 39 40z"/><path fill="#3d3123" fill-opacity=".5" d="M-17.3 50.5L53 66.7l-1.6 6.8L-19 57.3z"/><path fill="#68655b" fill-opacity=".5" d="M209 110h13v30h-13z"/><path fill="#252016" fill-opacity=".5" d="M222 73l-22 9 11-9z"/><path fill="#78624b" fill-opacity=".5" d="M164.6 0l-98 47.7L43.4.1l98-47.8z"/><ellipse cx="232" cy="16" fill="#000d0a" fill-opacity=".5" rx="6" ry="29"/><path fill="#1e180d" fill-opacity=".5" d="M82 142l127.5-65 .4 1-127.4 65z"/><path fill="#dbc2a2" fill-opacity=".5" d="M159 165h28v4h-28z"/><circle cy="138" r="29" fill="#2a2e2d" fill-opacity=".5"/><circle r="1" fill="#574836" fill-opacity=".5" transform="matrix(-29.88126 -13.02558 4.9339 -11.31859 146.5 83.4)"/><path fill="#18150f" fill-opacity=".5" d="M87 138.6L-9.1 185l17.4-4 87.2-42.4z"/><circle r="1" fill="#171710" fill-opacity=".5" transform="rotate(164.6 109.2 76.2) scale(2.16701 47.62285)"/><circle r="1" fill="#af9c7f" fill-opacity=".5" transform="matrix(4.602 12.77626 -24.89567 8.96739 64.5 95.7)"/><ellipse cx="228" cy="79" fill="#0d120b" fill-opacity=".5" rx="4" ry="52"/><ellipse cx="182" cy="132" fill="#e0d0b5" fill-opacity=".5" rx="3" ry="10"/><path fill="#342c21" fill-opacity=".5" d="M203 115.6L191.9 95l13.4 39.7 15-50.4z"/><ellipse cx="190" cy="24" fill="#262319" fill-opacity=".5" rx="4" ry="25"/><path fill="#886f53" fill-opacity=".5" d="M98.8 58.9l18 1.3-1.6 22.9-18-1.3z"/><path fill="#66523e" fill-opacity=".5" d="M-29.1-7.2L57.5 8.1l-10.4 59L-39.5 52z"/><path fill="#4f463b" fill-opacity=".5" d="M84 145h77v2H84z"/><path fill="#c9b294" fill-opacity=".5" d="M150 159h50v3h-50z"/><path fill="#d4c3a4" fill-opacity=".5" d="M200 107l9-36-14-31z"/><path fill="#81715d" fill-opacity=".5" d="M184 141v24l14-37z"/><circle r="1" fill="#a09887" fill-opacity=".5" transform="matrix(8.61045 -4.3328 11.43778 22.72998 208 43)"/><path fill="#474946" fill-opacity=".5" d="M248.7 182.3l11.7-67.5-39.4 64.9 43.3-39.7z"/><path fill="#9e896d" fill-opacity=".5" d="M-16 107.2l87.2-28.9-36.6 30.9H4.3z"/><path fill="#161107" fill-opacity=".5" d="M234 150.2L223.6 185l-8.9-45.3h16.5z"/><path fill="#998e78" fill-opacity=".5" d="M237 35h13v56h-13z"/><circle r="1" fill="#7f6d54" fill-opacity=".5" transform="rotate(61.9 -41.2 233.7) scale(1 33.15992)"/><path fill="#f4ead9" fill-opacity=".5" d="M153.6 132.9l26.3 52.1-4.1-22.3 5.5-10.4z"/><path fill="#271f13" fill-opacity=".5" d="M191 149h30v5h-30z"/><path fill="#897c69" fill-opacity=".5" d="M102.5 108.7l40.5 2.4-9.2 3.6-69.3-1.4z"/><path fill="#564f45" fill-opacity=".5" d="M110 160h43v8h-43z"/><path fill="#9b8a73" fill-opacity=".5" d="M147 107h6v46h-6z"/><path fill="#c1ae92" fill-opacity=".5" d="M130 169h25v1h-25z"/><path fill="#edd8b6" fill-opacity=".5" d="M141.9 109.4l19-9.1-30.6-2.5-4.6 12z"/><path fill="#443a2c" fill-opacity=".5" d="M158.3 99l34-83.7 6.3 80.9 1.8 14.2z"/><path fill="#1f1c14" fill-opacity=".5" d="M208 96l16-.5-2.3 79.4 9.3-57.1z"/><path fill="#2b2821" fill-opacity=".5" d="M-16 58.6l21.3 1.6 60.3 12.6L97 83.5z"/><path fill="#231c0f" fill-opacity=".5" d="M250.5 87l-.5.8-14.5-8.7.5-1z"/><path fill="#6e6659" fill-opacity=".5" d="M230 139h7l-6-23z"/><ellipse cx="108" cy="151" fill="#353533" fill-opacity=".5" rx="31" ry="2"/><path fill="#36291d" fill-opacity=".5" d="M189 162l10 3-1 20z"/><path fill="#857b6a" fill-opacity=".5" d="M212.5 148.8l-5-.8 2-12.8 5 .8z"/><circle r="1" fill="#504334" fill-opacity=".5" transform="matrix(8.44586 -.23457 .91417 32.91516 123.8 59.3)"/><path fill="#705b45" fill-opacity=".5" d="M31 30.5l60 15-8 32-60-15z"/><path fill="#59544b" fill-opacity=".5" d="M124.8 144.3l1.2-23.4-48.4 30.5 89.8-4.8z"/><path fill="#807661" fill-opacity=".5" d="M205.4 185h12l-3.8-9.7-10.4-15.6z"/><circle r="1" fill="#6d5d4a" fill-opacity=".5" transform="matrix(-.12706 -.9919 14.81229 -1.8975 189 144.3)"/><ellipse cx="197" cy="3" fill="#787b79" fill-opacity=".5" rx="5" ry="27"/><path fill="#575d61" fill-opacity=".5" d="M265-8.5l-5.2 32.6-22.7-3.6 5.1-32.6z"/></g></g></svg>