<svg xmlns="http://www.w3.org/2000/svg" viewBox="0 0 4752 3168"><defs/><filter id="a"><feGaussianBlur stdDeviation="12"/></filter><rect width="100%" height="100%" fill="#294555"/><g filter="url(#a)"><g fill-opacity=".5" transform="translate(9.3 9.3) scale(18.5625)"><circle r="1" fill="#cca987" transform="rotate(5 -237 1908.3) scale(156.74749 105.89871)"/><ellipse cx="211" cy="9" fill="#eafffb" rx="72" ry="21"/><circle r="1" fill="#1f0000" transform="matrix(-2.14033 -23.63675 43.25995 -3.91723 148.8 101.2)"/><ellipse cx="51" cy="149" fill="#684c3b" rx="87" ry="36"/><ellipse cx="189" cy="149" fill="#432c1a" rx="123" ry="22"/><circle r="1" fill="#160a00" transform="matrix(3.18502 -30.31064 18.90547 1.98657 17.4 84.8)"/><path fill="#a09ba0" d="M18 107l46 43-21 21z"/><path fill="#c1d0bb" d="M-13.6 14.5l113.9-28.8-53.3 29-44.7 7.6z"/><circle r="1" fill="#4e3c34" transform="matrix(-27.85087 36.95936 -9.22214 -6.94938 77.3 63.9)"/><circle r="1" fill="#c6d0f4" transform="rotate(-36.3 181.5 -107.5) scale(15.46495 8.4307)"/><path fill="#787d80" d="M192 86h25v81h-25z"/><path fill="#4e5447" d="M206 65h50v44h-50z"/><path fill="#453c2c" d="M88 0h15v67H88z"/><circle r="1" fill="#6d683f" transform="matrix(17.7278 33.20122 -12.52368 6.68702 0 28.5)"/><circle r="1" fill="#9b8b95" transform="rotate(29.8 -123.5 327.2) scale(37.72091 2.69784)"/><path fill="#cfd1d1" d="M218.5 116.8l5.1 5.1 47.4-6.3-33.6-7.1z"/><path fill="#a8c2d1" d="M161.2 130.9l43.8-21-23.7-28.7 28.8 14.2z"/><path fill="#fff" d="M198.8 18l6.8-13.1 26.9-.1-10.8 14.8z"/><path fill="#11120c" d="M-16 62l65 35 5 41z"/><path fill="#98956b" d="M112.1 71.1L96.5-17.5l43.4-7.6 15.6 88.6z"/><path fill="#c9c9c8" d="M81.9 107.4l50.1 25.7-33.4-11.2-18-41.8z"/><path fill="#231e1c" d="M44 146.3L3 203l-21-15.3L23 131z"/><circle r="1" fill="#e4ecee" transform="matrix(-.1048 .9945 -84.08983 -8.86183 226.4 30.2)"/><ellipse cx="238" cy="131" fill="#5d5549" rx="80" ry="10"/><path fill="#271015" d="M96.3 99.1l18-12.6 11.4 16.4-18 12.6z"/><path fill="#152b33" d="M4.1 58.7l16.1-10.9 13.2 54.5-2.8-65.4z"/><ellipse cx="142" cy="169" fill="#292b29" rx="76" ry="33"/><path fill="#9f908c" d="M33 26h42v35H33z"/><path fill="#150f11" d="M186.4 107.8l-78.1-29.3 81.9 14.8-9.6 26.2z"/><path fill="#716b65" d="M29.8 75.6L70.6 130l3.6-13.5 9.7-27.9z"/><ellipse cx="207" cy="26" fill="#858881" rx="47" ry="6"/><circle r="1" fill="#1b0d07" transform="rotate(124.5 78.3 146.3) scale(14.35976 27.19029)"/><path fill="#8d95d6" d="M15.9 39.7l11.4-.8.8 6.6L30.7-16z"/><path fill="#5e6f5e" d="M238.2 31.9L248.5-16l-20.4 28.3 8.6-28.3z"/><ellipse cx="141" cy="80" fill="#453434" rx="29" ry="7"/><path fill="#d6e8d7" d="M189 16.1l6.1-32.1-49.8 41.4-.2-41.4z"/><path fill="#030e25" d="M191 133l-12-7 19-11z"/><path fill="#fff" d="M67-10l-17-6-12 28z"/><path fill="#081721" d="M-12.1 21.2l23 11.8 12-11.6-28.5 4z"/><path fill="#4c3732" d="M43.8 32.2l9.1-20.1 4.7 3.2-6.3 23z"/><path fill="#747364" d="M201 32h17v117h-17z"/><path fill="#a8b3a7" d="M121 125h45v5h-45z"/><path fill="#084d8f" d="M1.1 6.7l20.6-2.2 19.2-1.1 5-19.4z"/><path fill="#a9afbd" d="M175.9 78.6l-46.3-8.2.5-3 46.3 8.2z"/><circle r="1" fill="#888ca5" transform="matrix(-8.70044 2.17055 -4.42718 -17.74596 44 169)"/><path fill="#5a5d5b" d="M191.5-16h8.3l-2.7 8-5.9 45.3z"/><circle r="1" fill="#4a4a4c" transform="rotate(152.8 39 86.2) scale(24.40424 14.51891)"/><path fill="#92846f" d="M37 118l-1.5 9-44.4-7 1.4-9z"/><path fill="#a1939f" d="M144.2 95.9l18.8 16-55.4-26.3 24.6 8.4z"/><path fill="#58413b" d="M71.8 84.3l-27.3-1L43.3 58l25.2 22.5z"/><path fill="#868469" d="M115.2 73.1l101.2-12.8-107.3-43.2-18.2 63.8z"/><path fill="#bbc0c3" d="M90 107.6l17.4 11.8-3.4 5-17.4-11.8z"/><path fill="#1e231e" d="M0 60h32v55H0z"/><circle r="1" fill="#9b939c" transform="matrix(-2.5564 .09374 -.71651 -19.54036 63.3 168.8)"/><path fill="#7d7c5f" d="M8.1 33l15.7 23.3-10 6.7-15.6-23.3z"/><path fill="#b8cde3" d="M173 78.5l2.7-4.2L197 87.5l-2.6 4.2z"/><path fill="#2f537c" d="M27 18l14-8-8 31z"/><path fill="#6f705e" d="M271 40l-63 84-22-98z"/><path fill="#69666a" d="M-16 155l34 5-26-53z"/><circle r="1" fill="#5b2d28" transform="matrix(-1.4751 -6.59652 23.02604 -5.14904 166.9 113.8)"/><path fill="#b3c3d4" d="M171.4 73.2l34.8 28.3-16.7 18.5 9.4-29.3z"/><path fill="#9e8f7c" d="M69-16l15 60-40 11z"/><path fill="#d5e0df" d="M203.9 27.2l60.5 11.4L246.2-16l19.7 49.6z"/><path fill="#5a6968" d="M72.4 128.8L85 84.5l-39.6 34.9 19.8 14z"/><path fill="#e3f1e1" d="M242 23l25-21-21-18z"/><path fill="#262e2e" d="M101 125l-12 51-9-69z"/><path fill="#9f9c9c" d="M33 118l-1 18 31 18z"/><circle r="1" fill="#6b7076" transform="matrix(-.10729 .99423 -114.38457 -12.34324 181.4 18)"/><path fill="#9d9297" d="M46.4 13.6L29.4 66l7.5 11.7L46 24.8z"/><path fill="#b8c9ef" d="M20 18.7l6.3 12 2.5-3.8L17.7 6.8z"/><path fill="#687385" d="M189.9 144.3l-6.6-12.8L213 142l-16.4-28.8z"/><path fill="#141616" d="M178.2 123.8l-4.7 48.7 21.2 6.4-10.7-39.5z"/><path fill="#803a36" d="M103.4 116.8l-9.1-7.9 1.8-7.4 42.5 26.1z"/><path fill="#23221d" d="M99.8 51.3L95.5-8.6l8.1 30.4-.9 12.9z"/><path fill="#cbc67f" d="M15 18L3 7l8-2z"/><path fill="#aaabbc" d="M192 163h6v5h-6z"/><path fill="#f3feff" d="M162 15l-8-8 31 7z"/><path fill="#c5c7d3" d="M122 71L87 84l-5 16z"/><path fill="#1f2220" d="M56.1 112.5L-16 25.9v93.9l73-22.4z"/><path fill="#1e1b1e" d="M140.2 106.7l3.8-3.4 15.2 13.6-20.9 4.5z"/><path fill="#afaf9d" d="M89.2 123.6l-16 5.8-.4-1 16-5.8z"/><path fill="#444843" d="M274 93l-8.2 21.5L236 103l8.3-21.5z"/><path fill="#787065" d="M48.3 69.2l36-37.4 9.4 9-36 37.4z"/><path fill="#56934f" d="M221 1l-10 3-18-20z"/><path fill="#a9a3c4" d="M77.3 90.8l-5.1 2.3L68 92l20.3-15.5z"/><path fill="#233f6c" d="M52 113h11v30H52z"/><path fill="#ebf3ed" d="M214.6-15.9l13.9 11.3L209.1 20l25.8 1.2z"/><path fill="#293432" d="M22.3 66l11.4-38.8-2.2 51.5-47.5-2.1z"/><path fill="#887d6d" d="M271 141.8l-39.4-27.2 9.8.5 29.6 6.6z"/><path fill="#4d4848" d="M27.6 146.9l10.1 35.3-4.2-44 36.1 24.1z"/><ellipse cx="69" cy="123" fill="#c5c5bb" rx="3" ry="4"/><path fill="#817d63" d="M135 20l97 59-22-48z"/><path fill="#655346" d="M192 151l23-2 17 36z"/><path fill="#686656" d="M105.8 77L88.2 60.7l-4.8 28.6 25.1-19.1z"/><ellipse cx="140" cy="78" fill="#574641" rx="25" ry="5"/><path fill="#312c20" d="M4 120h9v23H4z"/><path fill="#252119" d="M138 131h18v39h-18z"/><circle r="1" fill="#afab97" transform="matrix(.73988 -2.65278 20.03588 5.5882 113.9 123.4)"/><path fill="#664b4e" d="M93 97h-4l8-12z"/><path fill="#e4ecf4" d="M83 94h6v9h-6z"/></g></g></svg>