<svg xmlns="http://www.w3.org/2000/svg" viewBox="0 0 1800 1012"><defs/><filter id="a"><feGaussianBlur stdDeviation="12"/></filter><rect width="100%" height="100%" fill="#334457"/><g filter="url(#a)"><g fill-opacity=".5" transform="translate(3.5 3.5) scale(7.03125)"><circle r="1" fill="#e3dacf" transform="rotate(-178.9 81.6 6) scale(252.75124 31.82156)"/><circle r="1" fill="#6e747a" transform="rotate(-84.9 120.5 -23) scale(67.28971 234.93673)"/><ellipse cx="173" cy="87" fill="#363228" rx="233" ry="9"/><ellipse cx="70" cy="133" fill="#5e6f86" rx="219" ry="39"/><ellipse cx="178" cy="12" fill="#b1b2af" rx="50" ry="28"/><path fill="#555d66" d="M19 32h138v53H19z"/><path fill="#8e939d" d="M22.1 104.8l6.1 3.5-.9 8.9 57.7-1z"/><path fill="#b1afaa" d="M81.3 27.1l-36-1.2 1.4-37 36 1.2z"/><ellipse cx="129" cy="91" fill="#090f18" rx="56" ry="4"/><path fill="#a4a9aa" d="M189.8.5l35.9 45.9 26 1.3 9.5-18.9z"/><path fill="#606871" d="M235 2h21v20h-21z"/><ellipse cx="70" cy="48" fill="#5e6979" rx="202" ry="10"/><ellipse cx="227" cy="75" fill="#4b5152" rx="81" ry="17"/><circle r="1" fill="#696f7a" transform="matrix(.2857 -3.449 31.90144 2.64264 112 22)"/><path fill="#3c5061" d="M195 138.5l-60.4-.5L271 113.8l-114.3 37.9z"/><path fill="#a2a3a2" d="M130-16l110 60L50 0z"/><path fill="#bcbcb6" d="M103.9 29.2l-7.6 4.5-21.4-7.9-.6-3.2z"/><ellipse cx="22" cy="77" fill="#4f5354" rx="100" ry="11"/><path fill="#888a8b" d="M149 3l-23 27 68-26z"/><path fill="#676e7e" d="M43.5 2.1L-5.6 42.4 47.7 46 14.2 8.8z"/><ellipse cx="3" cy="1" fill="#c0bdb6" rx="12" ry="8"/><path fill="#e5d3c8" d="M19 140h11v2H19z"/><ellipse cx="233" cy="99" fill="#5b6d80" rx="74" ry="5"/><ellipse cx="37" cy="109" fill="#f9efe0" rx="4" ry="2"/><ellipse cx="100" cy="89" fill="#1d2228" rx="21" ry="5"/><path fill="#596472" d="M52 28h33v18H52z"/><path fill="#636d7b" d="M152 40h70v13h-70z"/><path fill="#a5a9aa" d="M165.4 42.6L129.5 9.3l48.9 7.3 55.3 18.6z"/><path fill="#435364" d="M39.2 99.7l-55.2 16 59.8 8-54.2 4.8z"/><path fill="#7d8085" d="M4 9h60v7H4z"/><ellipse cx="129" cy="47" fill="#576270" rx="36" ry="17"/><path fill="#a8acac" d="M227 46L196-4l50 44z"/><ellipse cx="163" cy="117" fill="#6e7c8e" rx="47" ry="2"/><path fill="#9c9c9c" d="M-16 13.1l28.3 4.4-1.4 14.7L-16 48.4z"/><path fill="#767c86" d="M110 19h38v9h-38z"/><path fill="#405467" d="M241 108l29-20-18 60z"/><path fill="#415264" d="M128.2 126.3l26.9 8.3L56.2 158l79.1-22.9z"/><path fill="#6c7680" d="M0 95h77v6H0z"/><path fill="#35485d" d="M71 130h27v4H71z"/><ellipse cx="136" cy="89" fill="#25282c" rx="48" ry="3"/><ellipse cx="32" cy="94" fill="#303338" rx="177" ry="1"/><path fill="#afafad" d="M93 32L70 20l49 9z"/><path fill="#b9b7b1" d="M146.8 6.2l-19.7-1.7L72-16l76.5 3.9z"/><ellipse cx="231" cy="79" fill="#4e5354" rx="145" ry="8"/><path fill="#878b8c" d="M219 2h23v20h-23z"/><circle r="1" fill="#909191" transform="matrix(12.074 4.12865 -3.23783 9.46885 81.2 11.3)"/><path fill="#2b414e" d="M207 132h20v3h-20z"/><path fill="#cac0ba" d="M28 110h19v2H28z"/><path fill="#7c8490" d="M77 105h29v3H77z"/><path fill="#222d36" d="M4 141h12v2H4z"/><path fill="#b0b0ac" d="M62.9 10L43.4 26.8l4.5-4.7 27.9 4.2z"/><path fill="#647284" d="M12 112h112v7H12z"/><path fill="#697584" d="M142 139h108v3H142z"/><path fill="#657387" d="M126 129l-31 17-28-7z"/><ellipse cx="183" cy="112" fill="#2f4353" rx="11" ry="2"/><path fill="#3c4c5c" d="M184.4 158l-20.1-6.6 17.6-14.3-27.8-7z"/><path fill="#3f5163" d="M94 107h39v4H94z"/><path fill="#52554e" d="M35 86h45v7H35z"/><ellipse cx="23" cy="43" fill="#5a6574" rx="25" ry="12"/><path fill="#b6b4ac" d="M212 1.9l52.8-3L190.9-16l6.7 26.9z"/><path fill="#8b8c8d" d="M93 7h99v5H93z"/><path fill="#334555" d="M97 121h19v3H97z"/><path fill="#778397" d="M11 133h26v3H11z"/><circle r="1" fill="#58616c" transform="matrix(11.23108 -14.9362 17.45384 13.12418 104.4 51.9)"/><path fill="#a8a3a1" d="M51 110h13v2H51z"/><path fill="#606b76" d="M207.4 44.6l7.3-8.3 21.9 19-7.3 8.4z"/><path fill="#37444f" d="M1 114l21-5-14-5z"/><path fill="#475a6b" d="M234.7 119.8l-11.8-14.2-18.9-9.2 10.7 22.8z"/><path fill="#6c747c" d="M271 10.3l-3.8 24.4-37-24.7 18.2-4.4z"/><path fill="#616b79" d="M146 41h77v9h-77z"/><path fill="#80848b" d="M16.2-11.4l25 .8-1.4 42-25-.8z"/><path fill="#546072" d="M237 44h19v11h-19z"/><path fill="#747e8c" d="M-1 105l19-6-17 11z"/><path fill="#a5abad" d="M150 13l84 12-27 15z"/><path fill="#6a7788" d="M105 101h31v5h-31z"/><path fill="#637387" d="M110 118l39-3 7 16z"/><path fill="#728091" d="M181 110.4l-32 2.2v-1l32-2.2z"/><path fill="#485667" d="M18 135l47 6-16 8z"/><path fill="#192b35" d="M182 142h13v1h-13z"/><path fill="#828a91" d="M237.2 26l11.4 8-56.3 9.3 34-5.5z"/><path fill="#b2b1ad" d="M44.8 5.6l.4-12 22 .8-.4 12z"/><path fill="#535a5f" d="M103 66h72v17h-72z"/><path fill="#a1a2a1" d="M141.3 7l55.1 35.6-43.7-8.4-24.5-38z"/><path fill="#757d8a" d="M21.9 114.7l25-1.9-11.2-9.5 13.1 16.3z"/><path fill="#4a5c71" d="M84.3 116.8l30.9-5-59.4 27.3 32.3-4.8z"/><path fill="#425363" d="M149 105l25-4-19-3z"/><path fill="#475869" d="M184.8 118.5l5.9 18.2 36-12.5-79.9-2.8z"/><path fill="#848c97" d="M210.5 140.5h-39v-1h39z"/><circle r="1" fill="#606b7a" transform="matrix(-2.88732 9.93693 -6.3056 -1.83218 195.7 47.5)"/><path fill="#595343" d="M117 82l35 1-17 5z"/><path fill="#535b63" d="M101 69l-117 1 80-24z"/><path fill="#6b7789" d="M128 137h30v2h-30z"/><path fill="#3d5162" d="M173 108.3l86-1.6v1l-86 1.6z"/><path fill="#586a7d" d="M229.7 115.3l22-15.7-28.7 6.5 39 8.4z"/><path fill="#40505d" d="M68.4 114.6l-3.5-2 6.7-11.2 3.5 2z"/><circle r="1" fill="#5a697c" transform="rotate(175.3 19.8 52.6) scale(24.42887 4.62207)"/><path fill="#647382" d="M191 118.7l15-16.1 5 4.7-15 16.1z"/><path fill="#171f25" d="M166 88h17v7h-17z"/><path fill="#9aa3aa" d="M167.6 33.9l21.7 8.2L206 11.7l22.8 28.4z"/><circle cx="160" cy="97" r="3" fill="#747c85"/></g></g></svg>