<svg xmlns="http://www.w3.org/2000/svg" viewBox="0 0 1800 1200"><defs/><filter id="a"><feGaussianBlur stdDeviation="12"/></filter><rect width="100%" height="100%" fill="#363f54"/><g filter="url(#a)"><g fill-opacity=".5" transform="translate(3.5 3.5) scale(7.03125)"><circle r="1" fill="#e3f5fd" transform="matrix(215.26815 60.44775 -36.02024 128.27624 136.2 93.3)"/><circle r="1" fill="#193351" transform="matrix(21.78999 .45196 -1.01695 49.02981 82.7 104)"/><ellipse cx="176" cy="131" fill="#4c5c73" rx="255" ry="11"/><circle r="1" fill="#d3ccbd" transform="matrix(-129.85731 10.44807 -1.08771 -13.51901 129.2 160.2)"/><circle r="1" fill="#a9b7c8" transform="matrix(-11.95162 40.876 -61.21689 -17.89904 159 76.9)"/><path fill="#233e5c" d="M37 140h80v9H37z"/><circle r="1" fill="#aab6bb" transform="rotate(-156.5 25 33.5) scale(34.52654 38.77586)"/><path fill="#435972" d="M83 28l31 100-65 20z"/><circle r="1" fill="#8fa5be" transform="matrix(-18.3522 45.30695 -103.4624 -41.90886 112.7 0)"/><circle r="1" fill="#a1adb8" transform="matrix(-35.72649 12.40107 -9.41563 -27.12567 205.4 99.6)"/><circle r="1" fill="#617082" transform="rotate(-88.5 99.3 38.1) scale(8.01248 79.75246)"/><circle r="1" fill="#708aaa" transform="rotate(-124 129 -50.5) scale(39.65112 32.13107)"/><circle r="1" fill="#b4b3a4" transform="rotate(14.6 -635.7 173.8) scale(39.86424 22.41798)"/><ellipse cy="120" fill="#58677a" rx="64" ry="3"/><circle r="1" fill="#bfc1bf" transform="matrix(48.88089 25.02385 -7.06268 13.79604 178.9 169)"/><path fill="#a8b3be" d="M204 75L90 47l24 73z"/><ellipse cx="47" cy="38" fill="#9caab7" rx="28" ry="56"/><path fill="#55667b" d="M35 135h88v15H35z"/><path fill="#808fa4" d="M68.3 133.2l20.8 1.2-9.4 10-56.3-20.9z"/><path fill="#2b4057" d="M74.2 61L83 35.4l4.8 1.6L79 62.6z"/><path fill="#556c84" d="M88 152l34-7L84 34z"/><circle r="1" fill="#a2a39e" transform="matrix(41.73462 -1.19709 .49951 17.41468 240.6 162.2)"/><ellipse cx="73" cy="157" fill="#bdbfbc" rx="56" ry="7"/><path fill="#77869e" d="M117 118h46v19h-46z"/><path fill="#5a5e63" d="M0 133h48v9H0z"/><path fill="#889bb2" d="M138.7 23l91.7 8-3.1 36-91.7-8z"/><path fill="#b8bcbb" d="M123 142h77v28h-77z"/><path fill="#546277" d="M236 120h20v22h-20z"/><path fill="#98a5b2" d="M236 121l1-68-70 71z"/><path fill="#302c2e" d="M41 147h56v2H41z"/><path fill="#40546c" d="M87.8 111.5l-6.7-64-12.9 24.1L54 145.9z"/><ellipse cx="50" cy="164" fill="#aeb1af" rx="21" ry="17"/><circle r="1" fill="#a0acb4" transform="matrix(.65306 31.17672 -19.28748 .40402 44.4 89.3)"/><path fill="#a1adba" d="M31.9 82.7L6.1 84.1l60.2-3.6 17.8-49.1z"/><circle cx="124" cy="20" r="42" fill="#94a5ba"/><path fill="#909597" d="M11 162h31v8H11z"/><path fill="#556778" d="M95 131L78.3 9.3l13.1 45.3 2.7 61.4z"/><path fill="#97a1b0" d="M91 141h45v2H91z"/><circle r="1" fill="#71859d" transform="matrix(8.55666 -.77872 3.5947 39.49912 253 22.9)"/><path fill="#808b9a" d="M27.5 132.2l26.9-14.7 3.7 15.4 40.4 8.9z"/><circle r="1" fill="#8d9ead" transform="matrix(-.42734 13.9778 -49.66911 -1.5185 33.9 37)"/><circle r="1" fill="#869ab3" transform="matrix(9.09159 -47.51075 20.30377 3.8853 209.2 19.3)"/><path fill="#96a2a5" d="M-14.8 28.3l18.5-4.2 21.1 91.6-18.5 4.2z"/><path fill="#5b666e" d="M-15.1 106.2l35 25.4-6.7 10.2-29.2.3z"/><path fill="#989b9e" d="M70 150h36v5H70z"/><ellipse cx="10" cy="144" fill="#b8b9ae" rx="29" ry="3"/><path fill="#a4b0ba" d="M23.5 58.2L73.1 60l-12 39.5-2.8-25.1z"/><path fill="#404043" d="M65.4 138.3l-30.7 4.4-.1-1 30.7-4.4z"/><path fill="#758196" d="M120 117h30v25h-30z"/><ellipse cx="102" cy="169" fill="#c4c6c3" rx="45" ry="4"/><circle r="1" fill="#93a1ae" transform="matrix(28.7082 -12.81205 3.9157 8.77399 220.1 113.8)"/><path fill="#808da1" d="M52 122h5v18h-5z"/><path fill="#a1adb8" d="M89.5 42.8l9.1 35.1 15.7 45.3 32.8-14.7z"/><path fill="#707e8e" d="M38.6 116.2l-.2 12-19-.4.2-12z"/><path fill="#556980" d="M88.1 143.9l31.2-6.7-8.3-20.8-28.1-90.5z"/><path fill="#2a3541" d="M35.1 138.8l8.8 5.6-9 5.6 14.5-5.1z"/><path fill="#b5b9b9" d="M122 142h102v11H122z"/><path fill="#374b61" d="M79 93h7v39h-7z"/><path fill="#233441" d="M37 145h16v3H37z"/><path fill="#9daab7" d="M173 56l92 18-137 42z"/><path fill="#979b9a" d="M264.3 165.4l-22.7 7.9-7.9-22.7 22.7-7.9z"/><path fill="#b0b3b1" d="M235.3 157l11.9-2.9-6.2 11.8-15.9-1.8z"/><path fill="#929eaa" d="M51 136l-1 4h5z"/><circle r="1" fill="#7f8da1" transform="matrix(4.04044 12.4352 -5.62305 1.82704 121.5 128.2)"/><circle r="1" fill="#989c9d" transform="rotate(-3 3182.3 -779.8) scale(32.04005 1)"/><path fill="#646f7f" d="M112 137h126v4H112z"/><path fill="#95a1a8" d="M-5 96.7l64.3 14.9-2.3 9.7-64.3-14.9z"/><path fill="#b0b3b5" d="M105 149h91v7h-91z"/><path fill="#476c96" d="M55 142h67v4H55z"/><path fill="#6b7887" d="M43.4 132.6l-18.1 9.7-2.9-17.2L48 143.7z"/><circle r="1" fill="#33465b" transform="rotate(-88.3 68.4 -14) scale(6.34277 3.02866)"/><path fill="#b9bbb7" d="M31 149h20v13H31z"/><path fill="#62636d" d="M223.4 165.8l.1 1-8.9 1.4-.1-1z"/><ellipse cx="76" cy="136" fill="#949daf" rx="10" ry="2"/><path fill="#cbcac1" d="M177 169h52v1h-52z"/><path fill="#304b65" d="M81.5 16.5v11h-1v-11z"/><path fill="#aaadae" d="M179 165.6l-8.8-8.2 64.5 15.2.6 1.7z"/><ellipse cx="174" cy="141" fill="#898d97" rx="67" ry="1"/><path fill="#333f4d" d="M88 138h10v3H88z"/><path fill="#9ca19c" d="M33.2 151.6L-16 136.4v33.1l59.6-28.3z"/><path fill="#b2b5ab" d="M-1 162l12-8 19 14z"/><path fill="#c5c7c4" d="M116.3 157.4L59 160.5l14.4 9.9-5.4-6.1z"/><path fill="#476183" d="M92 131h26v8H92z"/><circle r="1" fill="#90a1b7" transform="matrix(-49.57197 12.25482 -4.05942 -16.42076 140.9 39.1)"/><circle r="1" fill="#707f96" transform="rotate(-75.9 171.3 -50) scale(4.93983 39.07903)"/><circle r="1" fill="#99a6b4" transform="matrix(5.2262 -13.11606 23.69372 9.44096 193.8 112.9)"/><circle r="1" fill="#7b828e" transform="matrix(.32227 -.94665 4.30295 1.46484 206.6 155)"/><path fill="#3e5b7e" d="M93 145h28v4H93z"/><path fill="#607085" d="M211.2 136.1l57.6 9.5-16.4-23.8-21.2-.1z"/><path fill="#4f657c" d="M65 93l11 4 4-45z"/><path fill="#768497" d="M57 119.8l-1.2 10-28.8-3.6 1.2-10z"/><path fill="#7b7e87" d="M49 166h19v2H49z"/><path fill="#8e9da5" d="M-16 4.9l27.8 45.5L29.6 9l106.3-25z"/><path fill="#2a3847" d="M49 134.6l1 .2-3 10.6-1-.2z"/><circle cx="62" cy="138" r="2" fill="#0c1417"/><circle r="1" fill="#8798ac" transform="rotate(-125.3 70.2 51.7) scale(1.41279 5.34882)"/><circle r="1" fill="#607589" transform="matrix(3.76367 46.73491 -.99677 .08027 85.3 62.6)"/><path fill="#b5b9ba" d="M219 166l-1-11-17 5z"/><circle r="1" fill="#96a6b8" transform="matrix(43.8868 35.6978 -8.32351 10.2329 80.6 0)"/><path fill="#808587" d="M10 169h33v1H10z"/></g></g></svg>