<svg xmlns="http://www.w3.org/2000/svg" viewBox="0 0 1800 1200"><defs/><filter id="a"><feGaussianBlur stdDeviation="12"/></filter><rect width="100%" height="100%" fill="#424244"/><g filter="url(#a)"><g fill-opacity=".5" transform="translate(3.5 3.5) scale(7.03125)"><circle r="1" fill="#e6e8e2" transform="rotate(54.4 74 203.6) scale(255 143.57502)"/><circle r="1" fill="#fffff7" transform="matrix(101.33618 -11.00863 3.32034 30.56426 175.4 27.8)"/><circle r="1" fill="#65686c" transform="matrix(15.38413 69.75793 -129.1931 28.49172 169.8 120.8)"/><circle r="1" fill="#3f514f" transform="matrix(29.50766 7.33236 -14.7843 59.49658 45 68.7)"/><path fill="#fff" d="M79 0h37v63H79z"/><circle r="1" fill="#f4fff9" transform="matrix(-1.13867 8.64909 -38.52008 -5.07126 23.4 0)"/><path fill="#d7b4a6" d="M0 73h46v13H0z"/><circle r="1" fill="#fff1de" transform="matrix(-9.26369 44.09487 -25.59257 -5.37663 156.7 24.8)"/><path fill="#1a170d" d="M210 53h36v21h-36z"/><circle r="1" fill="#38495b" transform="matrix(9.6975 -9.4468 37.22554 38.21343 146.4 124.6)"/><path fill="#544547" d="M194 35h13v108h-13z"/><circle r="1" fill="#416a6e" transform="matrix(44.72535 26.76757 -11.36822 18.9949 31 35.7)"/><circle r="1" fill="#9aa3ac" transform="matrix(-12.4395 18.65164 -32.82689 -21.89353 203.7 146.8)"/><circle r="1" fill="#92aac0" transform="matrix(30.42309 35.4612 -14.73479 12.64136 138.7 162.3)"/><circle r="1" fill="#1c3026" transform="matrix(2.4679 -.23349 7.03766 74.38627 123.2 .4)"/><path fill="#493633" d="M188 125l-20-68-9 63z"/><path fill="#c0c3bb" d="M207.8 82l39.6-1.6 15 25.2-57.4-8.1z"/><path fill="#403b3c" d="M62 27l25 59-56-13z"/><path fill="#2b2b33" d="M144.5 74l-28.1 6.8 17.4 23.2 9.3-15.7z"/><circle r="1" fill="#7e8486" transform="matrix(8.55736 60.88878 -13.38894 1.8817 64.5 169)"/><circle r="1" fill="#f7b66a" transform="matrix(-25.44344 2.75604 -.8126 -7.50184 101.7 61.3)"/><path fill="#bb927c" d="M248 12h8v103h-8z"/><circle r="1" fill="#5d534e" transform="matrix(-12.01177 3.15507 -13.74526 -52.32998 253.4 158.2)"/><path fill="#fffdf0" d="M126 40L78-7l2 71z"/><path fill="#050405" d="M79 143h18v18H79z"/><path fill="#c0c1ae" d="M154.5 110l10.8-6.2-18.8-23.9-7.8 24.9z"/><ellipse cx="68" cy="25" fill="#50585a" rx="9" ry="113"/><path fill="#493631" d="M206.1 146.2l2.9-23.8-14.3-42.7 6.1 66.8z"/><circle r="1" fill="#f6cc97" transform="matrix(-2.22329 -8.23987 25.12587 -6.77948 156.6 55.1)"/><circle r="1" fill="#9f908b" transform="matrix(49.4001 15.46604 -1.61086 5.14527 19.3 78.7)"/><path fill="#4d4235" d="M230.1-4.3l1-.3 30.8 115-1 .2z"/><path fill="#79838e" d="M75 76L63 56 9 52z"/><path fill="#77848e" d="M94 68l27 117-38-52z"/><path fill="#dde0df" d="M132.7 45.3l-7.9-49.8L166.5-16l70.6 44.4z"/><path fill="#3d291f" d="M167 61h23v10h-23z"/><path fill="#b7bcad" d="M180 72h10v36h-10z"/><circle cx="75" cy="127" r="9" fill="#0a1011"/><path fill="#25171b" d="M121 58h8v13h-8z"/><path fill="#f0e1c3" d="M211.2 33l-2.8 21.2 32.5-8.1-7.1-28.8z"/><path fill="#735b49" d="M179 45l28-16-6 20z"/><path fill="#43515e" d="M148.9 116.1L79.8 84.9l34.1 33.8 46.1 33.2z"/><path fill="#21110a" d="M51.1 58.6l17.1-16.4-7-4.6-10.5 2.6z"/><path fill="#1e1104" d="M27 89l-43-13 9 13z"/><path fill="#a8a9a8" d="M166 115h31v20h-31z"/><path fill="#858c9d" d="M191 59h19v21h-19z"/><path fill="#4c3a3a" d="M175 73l10 52-27-50z"/><path fill="#f9f8f0" d="M-.7-2.1l2.1-5.7 27.3 10-2.1 5.6z"/><path fill="#313631" d="M223 75h25l-7-30z"/><path fill="#c4cdc5" d="M168 108.8l1.1-7 8.9 1.4-1.1 7z"/><path fill="#a5b0ba" d="M208 124h22v19h-22z"/><path fill="#54646b" d="M254 13h2v157h-2z"/><path fill="#8e9fae" d="M127.6 158.7L79 103l8.6-6.4L201.7 185z"/><path fill="#eee3cc" d="M179 62l1-32-39 13z"/><circle r="1" fill="#416c6e" transform="matrix(4.82458 -22.69786 25.15154 5.34612 15.2 29.5)"/><path fill="#d0ab97" d="M247 33h7v80h-7z"/><circle r="1" fill="#26312b" transform="matrix(-37.63884 -12.0021 1.36094 -4.26794 44.3 72.3)"/><path fill="#8b929a" d="M123.3 72.9l-7.1 24.8-36.2.8L112.8 88z"/><circle cx="188" cy="53" r="5" fill="#ffebae"/><path fill="#737d85" d="M74.9 157.8l44.5 12.3L50.9 185l24.2-54.3z"/><path fill="#c0c3b2" d="M85 73h31v5H85z"/><path fill="#5e5f5d" d="M122.3 175.5L97 143.2l8.7-6.7 25.3 32.3z"/><path fill="#5c5448" d="M246 46l3 22-40-14z"/><path fill="#20150a" d="M80 104.5L7.3 86.4l.7-3 72.7 18.2z"/><circle r="1" fill="#272627" transform="matrix(-11.31867 7.47005 -4.18038 -6.33414 87.2 152)"/><circle r="1" fill="#eaeae7" transform="rotate(-28.5 97.3 -200.2) scale(12.84964 31.26062)"/><path fill="#484246" d="M190 81h15v22h-15z"/><path fill="#d1d5d0" d="M229.5 7.8l4.1 30.4-25.1-1.2L86.3-16z"/><path fill="#485560" d="M99.2 120.2L118 98l6.9 5.8L106 126z"/><circle r="1" fill="#353330" transform="rotate(-87 72.4 44.5) scale(13.43468 23.75727)"/><path fill="#9da8a8" d="M204.8 97.8l13 .4-.6 18-13-.4z"/><path fill="#364540" d="M134.7 96.2h-1L123.3-2.1h1z"/><path fill="#6b6863" d="M-16 84.8l108 36.8-1 .3-11.9-17.8z"/><path fill="#545252" d="M71 81h116v3H71z"/><path fill="#a1aeb8" d="M24.3 7.5l49.8 18-.4 1L24 8.5z"/><path fill="#80614c" d="M179.4 45.5l1.8 24.3 6.6-28.1-8.5 4.5z"/><path fill="#675953" d="M103.1 69.3l-5.4-1.1-45.3-.2 26.7 7.1z"/><path fill="#3c4649" d="M10 120h36v50H10z"/><path fill="#0a1d34" d="M126 94l-6-19 18 20z"/><path fill="#434e59" d="M163.3 154.2l-33.9-25.3 50.5 13.6-2.3 22.3z"/><path fill="#224d53" d="M56.1 12.5l9.3-10.6 2.9 20.3-22.2-9.6z"/><path fill="#b1b3aa" d="M133 71h64v3h-64z"/><circle r="1" fill="#0c312f" transform="rotate(112.2 -17.5 26) scale(3.4137 35.92834)"/><path fill="#eae3d9" d="M195 42l-10-19-37 10z"/><path fill="#68524c" d="M200.3 68.1l-4.2-34.8 8.1 2.1 5.2 21.4z"/><circle cx="4" cy="76" r="7" fill="#d19f82"/><path fill="#daaa82" d="M132 68l32-6-33-10z"/><path fill="#4b4043" d="M160.5 93.1l10.7-35 7.3 53.4-18.1-32.3z"/><path fill="#a5a8ac" d="M196 162l-37-40 29 6z"/><path fill="#414048" d="M45 78h18v13H45z"/><path fill="#635b55" d="M185.8 125.9l-37.5-6 1.9-11.8 37.5 6z"/><path fill="#778182" d="M163 75l-43-7 11 18z"/><path fill="#a8b5bd" d="M188.7 130.1l11.5 3.2-3.9-21-5.9 1.7z"/><path fill="#937e6c" d="M249 18h7v23h-7z"/><path fill="#53767f" d="M54.1 11.1L-13 7l10.6-23 20.1 38.1z"/><path fill="#421e16" d="M163 99h2v30h-2z"/><path fill="#143e47" d="M113-16l17 9-12 11z"/><path fill="#4d4b49" d="M195.9 133.6l11-1.1 1.2 11.9-11 1.1z"/><path fill="#f2d4a2" d="M119 50l-40 4 41 15z"/><path fill="#494447" d="M76 146h22v7H76z"/><path fill="#5a6e6f" d="M78.8 21.4l.7-6.7L71 17 44.8 44.5z"/></g></g></svg>