<svg xmlns="http://www.w3.org/2000/svg" viewBox="0 0 1800 1200"><defs/><filter id="a"><feGaussianBlur stdDeviation="12"/></filter><rect width="100%" height="100%" fill="#44424e"/><g filter="url(#a)"><g fill-opacity=".5" transform="translate(3.5 3.5) scale(7.03125)"><circle cx="200" cy="128" r="255" fill="#7abcff"/><ellipse cx="141" cy="79" fill="#38567f" rx="125" ry="41"/><circle r="1" fill="#94b6e3" transform="rotate(90.4 57 65.8) scale(16.1255 181.87233)"/><circle r="1" fill="#90afd9" transform="matrix(1.67285 -22.24815 233.30685 17.54243 72 153.4)"/><circle r="1" fill="#ffdb9c" transform="matrix(14.7666 9.08511 -4.2781 6.95347 89 99)"/><circle r="1" fill="#5f2c06" transform="matrix(-1.11223 9.39628 -37.3662 -4.42301 140 110.4)"/><ellipse cx="40" cy="54" fill="#295991" rx="215" ry="17"/><ellipse cx="63" cy="79" fill="#587cae" rx="145" ry="16"/><ellipse cx="59" cy="50" fill="#97abcf" rx="86" ry="3"/><path fill="#ebd9c9" d="M73.2 125.4l5.4 2.1 13.3-1.1 9.9-13z"/><ellipse cx="39" cy="56" fill="#002d5b" rx="134" ry="3"/><ellipse cx="33" cy="40" fill="#00346d" rx="65" ry="4"/><ellipse cx="209" cy="3" fill="#bfd1e6" rx="79" ry="4"/><path fill="#09325d" d="M43 97h35v13H43z"/><path fill="#6e90be" d="M-18.5 118.2l36.8-38 76.2 73.6-36.8 38z"/><ellipse cx="236" cy="164" fill="#95afcf" rx="129" ry="16"/><ellipse cx="229" cy="99" fill="#4d72a4" rx="48" ry="45"/><path fill="#678abb" d="M272.5 17.3l-3.8 35.8-137.2-14.4 3.8-35.8z"/><ellipse cx="29" cy="28" fill="#1d4b89" rx="122" ry="3"/><circle r="1" fill="#7796c1" transform="matrix(-.12332 1.75751 -142.90076 -10.02663 206 56.6)"/><circle r="1" fill="#00315c" transform="matrix(-61.89452 -1.84807 .0604 -2.02268 146.5 57.7)"/><path fill="#eabf9d" d="M75.3 100.8l4.1 1 35.5 16-25.9-26z"/><path fill="#7291bb" d="M165.7 60.2l93.2 7-3.6-42.1 13.9 56.6z"/><path fill="#7e99c6" d="M-17.5 59.2v-1l147 2.6v1z"/><circle r="1" fill="#1d4a7d" transform="matrix(-151.7349 -8.82651 .07636 -1.3127 196 76.2)"/><path fill="#594340" d="M74 111h118v6H74z"/><ellipse cx="56" cy="74" fill="#86a2ca" rx="89" ry="2"/><ellipse cx="238" cy="127" fill="#275180" rx="26" ry="5"/><path fill="#688cba" d="M0 126h144v25H0z"/><ellipse cx="165" cy="31" fill="#395c90" rx="44" ry="3"/><path fill="#003260" d="M169.7 56.4l88.8 6.2-.2 3-88.8-6.2z"/><path fill="#356092" d="M129 78h112v14H129z"/><ellipse cx="53" cy="34" fill="#7a9bca" rx="107" ry="3"/><path fill="#dfd1bb" d="M89.8 94.1l14.8 10.9-14.7 3.4-14.5-6.7z"/><circle r="1" fill="#15457b" transform="matrix(.18504 -2.88295 98.08254 6.29523 183.3 49.8)"/><path fill="#8aa7ce" d="M116 52h67v3h-67z"/><circle r="1" fill="#9597a8" transform="matrix(-28.66346 5.46785 -.54922 -2.87913 188.3 119.8)"/><path fill="#373133" d="M194.5 114.1l-22.3 5.7-69.4-16.4 33.8 4.2z"/><circle r="1" fill="#597eb0" transform="matrix(-.63252 5.05439 -78.28528 -9.79686 175.3 96.4)"/><path fill="#957b6e" d="M73.2 82.3l31.4 12.9-15.8-2.4-13.6 8.2z"/><path fill="#7c99c3" d="M7 65h119v2H7z"/><path fill="#675859" d="M113 102l37 17-34 2z"/><ellipse cy="79" fill="#002a5a" rx="72" ry="1"/><path fill="#152a48" d="M86.8 108.6l-15.7-6.3 12.3 19 .2-4.8z"/><path fill="#9ea6b6" d="M86.4 127.1L112 93.2l-18.8 10.3 17.3 15.8z"/><circle r="1" fill="#6a8fc0" transform="matrix(.86928 -9.10687 136.8635 13.06413 158.5 17.8)"/><ellipse cx="13" cy="63" fill="#0b3a68" rx="45" ry="2"/><path fill="#0b3d6d" d="M50 61l144 5v1L50 62z"/><circle r="1" fill="#a3bbda" transform="matrix(110.25 4.23538 -.09991 2.60081 111 0)"/><path fill="#2c568c" d="M87 40h63v10H87z"/><path fill="#8197bc" d="M215.5 45l32.8 5.5L271 41l-79.9-5.9z"/><ellipse cx="5" cy="136" fill="#6e8fba" rx="74" ry="35"/><circle r="1" fill="#a3bcd9" transform="matrix(-56.34796 -1.18032 .23942 -11.42988 236.6 0)"/><path fill="#143f6d" d="M205.6 138.2l.4-2 26.4 5.6-.4 2z"/><ellipse cx="98" cy="77" fill="#255186" rx="45" ry="2"/><circle r="1" fill="#28558e" transform="matrix(45.97149 .27897 -.0195 3.21306 12.3 26.8)"/><path fill="#fff4da" d="M97 103l-10 2 2-13z"/><circle r="1" fill="#728fb8" transform="matrix(-45.15149 1.06607 -.0786 -3.32913 36.2 74)"/><circle r="1" fill="#6485b2" transform="rotate(175.5 14.2 44.6) scale(49.84516 6.20921)"/><path fill="#1f4779" d="M151 137l4-5 14 4z"/><path fill="#b6b5be" d="M164 119.6l13 1.8-1 7-13-1.8z"/><path fill="#eeddc6" d="M76.9 124l19-5.8 1.2 3.8-19 5.8z"/><path fill="#6a8cba" d="M182.8 67.7L271 79.1l-99.1-7.3-31-5z"/><path fill="#744a4b" d="M96 93l3 7-12-11z"/><path fill="#275286" d="M37 67h81v3H37z"/><circle r="1" fill="#7898c2" transform="matrix(.1935 -1.4294 40.27638 5.4522 241.5 59.5)"/><path fill="#5a7dab" d="M210.2 154.8l29.1-9.1-50-11.4-39.2-15.9z"/><ellipse cx="244" cy="90" fill="#234e7e" rx="46" ry="3"/><path fill="#7695c2" d="M112.7 72.2l152.6 10.6v1L112.7 73.2z"/><path fill="#406294" d="M176.2 31.1L258 37l-.2 2-81.8-6z"/><path fill="#8393b2" d="M212.4 116.6l-.3 1-80.5-20.2.3-1z"/><ellipse cx="136" cy="22" fill="#6e8db8" rx="68" ry="6"/><ellipse cx="5" cy="79" fill="#214e7f" rx="56" ry="2"/><path fill="#433c3e" d="M128.5 111.3l58.7 2-75.7-17.8 2.3 4.8z"/><path fill="#6e90bc" d="M204 128l67 28-4-20z"/><path fill="#1b497e" d="M166.1 101.6L143.4 98l48.3 13.1-15.3-7.6z"/><path fill="#133e69" d="M216.9 127.1l62.4 8.8-.2 1-62.4-8.8z"/><path fill="#6c8dbc" d="M213.4 64.5v1l-114.8-6v-1z"/><path fill="#587aa8" d="M271 95l-50-4-23 43z"/><path fill="#634945" d="M134.4 120.7l-15.5-2-16.7-4.2 5.4-15.9z"/><path fill="#6a8cbb" d="M94.8 138l5.3-31.7-12.9 9.6 118.6 36.6z"/><circle r="1" fill="#244e7f" transform="matrix(-.07534 .99716 -130.53272 -9.8623 195.6 76)"/><path fill="#2a5794" d="M102 119h27v3h-27z"/><path fill="#1d4b80" d="M170 66h39v3h-39z"/><path fill="#174570" d="M154 85h29v3h-29z"/><path fill="#5b7dad" d="M172.1 81.5l-1.4 3.7 19.7 1.7 50.7 1.1z"/><ellipse cx="13" cy="41" fill="#1f4d81" rx="113" ry="4"/><path fill="#534b47" d="M86 88.3l1 6-9 1.4-1-6z"/><path fill="#6a8cbd" d="M56 36h95v3H56z"/><path fill="#4d71a2" d="M38 58h90v4H38z"/><path fill="#295181" d="M8 87h35v2H8z"/><ellipse cx="2" cy="36" fill="#34588e" rx="41" ry="1"/><path fill="#2a507d" d="M38.9 99.3l32.3-6 8.3 10.7-36.2 1.5z"/><circle r="1" fill="#819fc5" transform="matrix(1.7515 11.56695 -86.92423 13.16225 98.4 169)"/><path fill="#97afce" d="M197.6 177l3.5-24.8 63.3 8.9-3.5 24.7z"/><path fill="#a998a2" d="M138 120h41v1h-41z"/><path fill="#6589bb" d="M36 127h167v7H36z"/><path fill="#5175a6" d="M94 89h103v9H94z"/><circle r="1" fill="#124476" transform="rotate(92.9 92.7 138.3) scale(2.24653 42.09392)"/><ellipse cy="18" fill="#879dc1" rx="97" ry="5"/></g></g></svg>