<svg xmlns="http://www.w3.org/2000/svg" viewBox="0 0 3168 4752"><defs/><filter id="a"><feGaussianBlur stdDeviation="12"/></filter><rect width="100%" height="100%" fill="#5f3436"/><g filter="url(#a)"><g fill-opacity=".5" transform="translate(9.3 9.3) scale(18.5625)"><circle r="1" fill="#b2ff8c" transform="matrix(1.29426 24.30407 -121.24373 6.45656 96.2 23.3)"/><circle r="1" fill="#9fdcc0" transform="rotate(-79.7 140.2 92) scale(26.23639 64.25279)"/><circle r="1" fill="#8bc198" transform="matrix(-35.0515 4.69657 -17.41332 -129.95923 169 169.5)"/><circle r="1" fill="#63b079" transform="rotate(-82.7 95 59) scale(57.17111 24.54232)"/><ellipse cx="159" cy="231" fill="#fff" rx="6" ry="71"/><path fill="#fff" d="M72 196.4l6.5 30.4-22.5 4.8-6.5-30.4z"/><ellipse cx="28" cy="26" fill="#d7ff69" rx="67" ry="13"/><circle r="1" fill="#233f26" transform="matrix(-12.57042 -4.9263 20.30713 -51.81768 31.4 233)"/><circle r="1" fill="#63946f" transform="matrix(11.78657 -44.35918 23.0927 6.1359 115.5 228.4)"/><path fill="#fff6f1" d="M33 182.3l8 6.2-40 51.2-8-6.2z"/><circle r="1" fill="#386b3b" transform="matrix(-26.14546 -21.17218 29.76894 -36.76158 28.1 76)"/><path fill="#c8e5fb" d="M23.3 158l-10.7-12 20-18 10.8 12z"/><path fill="#4e383e" d="M114 100.9l44.5-18 19.5 48.2-44.5 18z"/><circle r="1" fill="#f3ffff" transform="matrix(9.1238 4.64726 -2.20314 4.32535 117.5 199.2)"/><circle r="1" fill="#49684d" transform="matrix(-12.85996 -20.96325 27.31502 -16.75648 147.2 48)"/><path fill="#2f3a24" d="M3.4 233.7L31 197l17.5 13.3L21 247z"/><path fill="#31401e" d="M-9 168l10 53 38-51z"/><ellipse cx="162" cy="187" fill="#fff" rx="6" ry="22"/><circle r="1" fill="#cbff8b" transform="matrix(5.36922 13.6357 -29.01363 11.42447 39.1 21.8)"/><circle r="1" fill="#e1ffb4" transform="matrix(-2.645 -5.13004 15.4657 -7.97396 149.7 79.6)"/><path fill="#396334" d="M56.3 49.2l25.9-40 70.4 28.4L77.4-16z"/><path fill="#fff" d="M72 201.2l-23.5 8.4 10.1 28.1 24.2-17.4z"/><path fill="#2d462d" d="M137 176h16v80h-16z"/><ellipse cx="87" cy="58" fill="#924f46" rx="42" ry="17"/><path fill="#dbf7b6" d="M104 21h20v22h-20z"/><ellipse cx="129" cy="131" fill="#a34f4c" rx="7" ry="68"/><ellipse cx="79" cy="33" fill="#afff16" rx="17" ry="9"/><path fill="#324435" d="M80.6 238.6l61.4 17.8-76.3 10.4 1.2-42.8z"/><ellipse cx="44" cy="46" fill="#587f34" rx="40" ry="11"/><path fill="#bddbff" d="M112.8 11.3l18.7-2.1L83.7-16h16.8z"/><path fill="#fff" d="M153 219h9v37h-9z"/><path fill="#f5f5f4" d="M17.1 192.8l-7 13.1 31.8-20L.7 229.3z"/><circle r="1" fill="#492228" transform="rotate(-165.6 44.7 49.7) scale(19.97895 56.13298)"/><path fill="#3e422d" d="M172 256l-13-50 24 16z"/><path fill="#a5e643" d="M151.4 62.3L181 76.7l-4.4 9L147 71.3z"/><ellipse cx="21" cy="249" fill="#3c6c4a" rx="50" ry="12"/><ellipse cx="19" cy="21" fill="#ecfff6" rx="19" ry="4"/><path fill="#dffdca" d="M141 15h29v6h-29z"/><path fill="#4d3b31" d="M142 227l-72 4 18-17z"/><path fill="#f4ffff" d="M121 200l-15-2 12-10z"/><path fill="#385d4b" d="M141 21.2l-1.8-15 29.8 8.2-61.5-28.1z"/><path fill="#385041" d="M0 46h34v87H0z"/><circle r="1" fill="#442220" transform="matrix(9.36078 1.33856 -2.49244 17.4301 63.8 184)"/><path fill="#fcfff8" d="M138.1 79.2l1.9-2.9-.3 12L161.6 77z"/><path fill="#9e798c" d="M98.2 84.5l-44.3-1.9 3.3-4.3 30.3 12.3z"/><path fill="#cbc2d5" d="M130 167l12 8 10-12z"/><path fill="#41563e" d="M136 90h16v71h-16z"/><path fill="#65463a" d="M54.3 113.2l-21.1 65.1-6.6 11.7 25.1-1.6z"/><circle r="1" fill="#9eb9e0" transform="rotate(-8.8 68.5 -265.5) scale(13.23992 4.98878)"/><path fill="#abe4a4" d="M185 172v-35.1l-30.9-.7z"/><path fill="#b5626e" d="M130.5 69.9l-19.3-20.1 8.6 38.1 8.8-4.1z"/><path fill="#286d3b" d="M-43.3 8L44-27.2 53.3-4-34 31.2z"/><path fill="#6fab1c" d="M58.7 64.3l.2-26.8-31.5-5.9 22 31z"/><circle cx="169" cy="102" r="5" fill="#fdffff"/><path fill="#aee97f" d="M46.8 120.4l-1.6 18-8-.8 1.6-18z"/><path fill="#677f62" d="M121.7 217.6l-17.7 7.5 55.4-71 23.7-15.2z"/><circle r="1" fill="#4d7349" transform="matrix(3.20987 -4.7388 37.3812 25.32054 76.7 7.1)"/><path fill="#bfc9d5" d="M80 68l-17-1-9-9z"/><path fill="#ebf3fe" d="M52.5 202.3l-.9 18.8L66.3 242l1.5-35.8z"/><path fill="#bdff59" d="M59.5 30.2l-64.2-1L-16 50.4l33.4-11.5z"/><circle r="1" fill="#404a4b" transform="rotate(178.1 75.2 16.6) scale(24.71666 6.00482)"/><circle r="1" fill="#41543f" transform="matrix(-13.4825 -7.49792 21.00094 -37.76315 130.7 232.3)"/><path fill="#4d7b00" d="M60 25l11-6v17z"/><path fill="#739b8b" d="M31 168l-29-4 15-26z"/><circle r="1" fill="#d8d9d1" transform="rotate(113.6 -77.6 118.6) scale(30.03402 4.84585)"/><path fill="#59614a" d="M185 228l-17-77-6 120z"/><path fill="#39362f" d="M25.3 203.5l-6.3 7.8-6.2 9.2 33 27.9z"/><circle cx="135" cy="42" r="5" fill="#a2c5ce"/><path fill="#fbf7ea" d="M123.6 35.1l-1.5 7.6-21.1-8.9 1.7-1.4z"/><path fill="#cbff52" d="M90 42L59 9l36 19z"/><path fill="#a73953" d="M70 44h35v10H70z"/><ellipse cx="23" cy="188" fill="#9eb9a2" rx="13" ry="3"/><path fill="#43282a" d="M88.6 233.1l9.1-68.2 26.1 1.8-57.7 19.8z"/><path fill="#fff" d="M156 178l5 27 5-42z"/><path fill="silver" d="M138.3 16.8l-12.7 9.1 10.4.7 20.8-8.9z"/><path fill="#405b42" d="M132.7 74.9L120.6 53l39.9-15.7-2 21.8z"/><path fill="#26372c" d="M11 60h38v27H11z"/><path fill="#53704c" d="M129.1 32.7l-7.1-8.2L-.3-16l131.5 31.2z"/><path fill="#6f7062" d="M18 97l45-4-35 23z"/><circle cx="114" cy="60" r="4" fill="#c6b6ce"/><path fill="#d4e0f2" d="M19 136h16v7H19z"/><circle r="1" fill="#7d535e" transform="rotate(103.4 -2.6 97.2) scale(2.22785 44.44144)"/><path fill="#b6acdc" d="M97 72h10v4H97z"/><path fill="#a2e63b" d="M40.7 10.7l38.7 33.4-25.6-17.6-26.9-8z"/><path fill="#7f282e" d="M138.3 83.5L90 39.3l35.9 88.8-7.1-52z"/><path fill="#a12d30" d="M50 81l14-5 4-18z"/><path fill="#789776" d="M134.2 207.4l-22.7-16.5 32.4-4.1-42.9 28.5z"/><path fill="#588d5a" d="M165.2 7.4l13.4-20.3-17.7 37.3L128-16z"/><ellipse cx="67" cy="216" fill="#fbf8f8" rx="14" ry="9"/><path fill="#454f56" d="M179.3 141.8l-25.9-62 23 12.5-46 24.5z"/><circle r="1" fill="#582225" transform="rotate(-128.1 81.2 52.7) scale(7.02325 57.33867)"/><path fill="#dbeaf8" d="M117.6 12.8l-1.5-10.7 10.2 4.8 1.8 4z"/><path fill="#303e23" d="M178.3 150.3l2.6 9.7-21.2 5.7-2.6-9.7z"/><path fill="#3b492d" d="M-15 195l26-34-16 97z"/><path fill="#85ad73" d="M14.4 124.5l-1 7-27.8-4 1-7z"/><ellipse cx="98" cy="12" fill="#41576a" rx="3" ry="35"/><path fill="#aeb6cd" d="M117 82h12v4h-12z"/><path fill="#71815a" d="M43.8 199.2l4.4-17.2-26 23.8 27.8 5.7z"/><circle r="1" fill="#e3fed3" transform="matrix(-1.2403 2.36386 -6.41221 -3.36442 52 30.6)"/><circle r="1" fill="#5b2826" transform="matrix(-4.1497 -14.66474 3.3241 -.94062 128.6 182.5)"/></g></g></svg>