<svg xmlns="http://www.w3.org/2000/svg" viewBox="0 0 1800 1200"><defs/><filter id="a"><feGaussianBlur stdDeviation="12"/></filter><rect width="100%" height="100%" fill="#344050"/><g filter="url(#a)"><g fill-opacity=".5" transform="translate(3.5 3.5) scale(7.03125)"><circle cx="141" r="165" fill="#9f8968"/><circle r="1" fill="#0d0301" transform="matrix(-17.46459 13.45835 -65.99762 -85.64359 98.4 118)"/><circle r="1" fill="#a3b4c8" transform="matrix(-1.91118 -39.46759 114.4491 -5.54208 195.4 0)"/><circle r="1" fill="#96aec8" transform="matrix(-46.348 107.39323 -29.36589 -12.67352 2.7 56)"/><path fill="#dfa125" d="M166 96h90v41h-90z"/><circle r="1" fill="#2d2825" transform="rotate(-91.1 135.6 -67) scale(22.73835 30.06158)"/><ellipse cx="166" cy="133" fill="#ffe400" rx="50" ry="4"/><path fill="#3a312e" d="M57.7-16l56.1 142.1 39.5 4.7-11.8-57.6z"/><circle r="1" fill="#4f7487" transform="matrix(17.32294 -22.5757 35.84395 27.50403 34 121)"/><path fill="#000547" d="M171 122.5h54v7h-54z"/><circle r="1" fill="#2a1818" transform="matrix(-16.38555 -2.44884 3.31414 -22.1754 46 45.4)"/><path fill="#d7dde2" d="M141 185l41.1-89.1-11.3 19.5-32.3 59.7z"/><path fill="#adc3da" d="M59 9l27 38-21-1z"/><circle r="1" fill="#53361c" transform="matrix(4.48711 17.7949 -79.45205 20.0344 222.5 155.3)"/><ellipse cx="180" cy="148" fill="#9c6b56" rx="57" ry="9"/><ellipse cx="198" fill="#b5d1f1" rx="18" ry="25"/><path fill="#8b6f58" d="M139 109l36-125 20 51z"/><path fill="#ffd342" d="M169 105h38v17h-38z"/><path fill="#9aabaf" d="M114.1 122.1l-4.9-3.1 12.4-14.3 4 14.6z"/><circle r="1" fill="#1e1919" transform="rotate(53.8 -65.1 144) scale(66.95895 15.69203)"/><ellipse cx="193" cy="142" fill="#02141b" rx="31" ry="3"/><path fill="#97adc8" d="M55-13l-71 34 34 31z"/><circle r="1" fill="#32505c" transform="rotate(6.8 -1226 629.6) scale(44.15718 18.559)"/><path fill="#3b322b" d="M246-12l5 66-15-13z"/><path fill="#2b364e" d="M255.1 122.5l-63.4 9-.8-6 63.4-9z"/><path fill="#bca892" d="M90.3 53.1l-8.5 45.3L91.2 77l.9-5z"/><circle r="1" fill="#2c1e1e" transform="rotate(137.9 33.3 24) scale(5.17065 42.32108)"/><circle r="1" fill="#93afd2" transform="rotate(103.5 54.4 47) scale(32.17446 11.67694)"/><path fill="#160c05" d="M197 63h27v18h-27z"/><path fill="#6c655a" d="M226.8 64.8l-64.3-22.1 8.7-25.5 64.3 22.1z"/><path fill="#121b14" d="M168.7 163.4L278 144l5.3 30.5L174 194z"/><ellipse cx="11" cy="81" fill="#f7fbf7" rx="15" ry="3"/><circle r="1" fill="#856c56" transform="rotate(-75.2 97 -42.4) scale(39.24103 5.68033)"/><ellipse cx="132" cy="58" fill="#382a2b" rx="12" ry="21"/><path fill="#d0d5d2" d="M174.5 111.3l28-63 1 .4-28 63z"/><path fill="#c5e0ff" d="M166 23l-15-1 13-21z"/><path fill="#291b22" d="M8.8 86l45-2-20-53.4 4.8 61.3z"/><path fill="#c69248" d="M195 88h27v22h-27z"/><path fill="#54432e" d="M155.6 88.6l-7.2 18.4 10.5 23.4 20-65.4z"/><path fill="#90aed6" d="M34-16l12 39 14-12z"/><circle r="1" fill="#b79a7b" transform="matrix(4.09195 .12286 -.32536 10.83628 130.2 87.6)"/><path fill="#acb5ba" d="M147 172.8l38-80.7-47.8 88 31.4 4z"/><path fill="#462511" d="M246 98l-25-7 47-8z"/><path fill="#966f5a" d="M139.5 162l113.2-23.3-12.2-11 30.5 16.9z"/><path fill="#ffb703" d="M121 129h42v5h-42z"/><path fill="#9a887f" d="M189.5 69.3L163 74.7l-14.7 29 3-52.4z"/><path fill="#111720" d="M189 30h5v40h-5z"/><path fill="#2e323c" d="M114 130v18l49-8z"/><path fill="#0b0e10" d="M113.5 108.3l14.5-8.4-19.1-7.1-22.3 42.5z"/><path fill="#7d8e99" d="M68.3 116.2L44.7 90.1l-5.6-.6-55.1 1.6z"/><path fill="#292626" d="M92.5 36.7l-9.6 44L84.2 36 132 85.9z"/><path fill="#a39b8e" d="M244 78l27-10-35-10z"/><path fill="#b4916f" d="M121.6 38.8l-17.8 57.3 3.5-1.4 13-35.5z"/><path fill="#e9a500" d="M136 135.9l48.6 1.9 26.5-.3 59.9-11.9z"/><path fill="#4c343b" d="M194 95l-8 21V97z"/><ellipse cx="208" cy="100" fill="#3f3c4c" rx="3" ry="18"/><path fill="#887d78" d="M71.5 62.1l-.8-1.8 8.6-35.9L85 79.6z"/><path fill="#413534" d="M32 25h31v35H32z"/><circle r="1" fill="#403f3f" transform="matrix(19.62904 -24.59592 2.6586 2.12172 114.4 39)"/><path fill="#523827" d="M172-4l8 8-12 30z"/><path fill="#585a52" d="M124.4 42.3l6.4-11.2 18.6-19.2L182.7-16z"/><path fill="#a4b7c7" d="M210 24h-32v-38h32z"/><path fill="#161f1d" d="M154 159h24v11h-24z"/><path fill="#aa795f" d="M128.6 145.3l21 .4-.2 11-21-.4z"/><path fill="#0c2116" d="M148 157l-53 2 36 26z"/><ellipse cx="185" cy="151" fill="#a06f57" rx="29" ry="8"/><path fill="#4f6470" d="M107 148L-16 89l14 49z"/><path fill="#0f1414" d="M120 104l.2-3 43.9 3-.3 3z"/><path fill="#343134" d="M70-10L54 20l31-9z"/><circle r="1" fill="#87847a" transform="matrix(-23.96155 -1.42477 .13513 -2.27252 206.9 53.8)"/><path fill="#594d40" d="M160 36.2l74.3 13.9L121.8 44l37.9-18.9z"/><path fill="#827d7a" d="M32.4 65.2l11 14.5-39.7-.9L-16 22.6z"/><path fill="#939fa1" d="M211 43h20l5-52z"/><ellipse cx="154" cy="36" fill="#aa9c8a" rx="32" ry="3"/><ellipse cx="242" cy="106" fill="#b08a71" rx="19" ry="10"/><path fill="#765731" d="M178.3 98.1l-12.6 8.2-12-18.4 12.6-8.2z"/><path fill="#2b2524" d="M92 110l23-52-24 16z"/><path fill="#2a201c" d="M126.8 88l10.6-21.9-19.5 7.7-10.3 25.8z"/><path fill="#9faeb7" d="M77 53L61 29l21 6z"/><path fill="#7e7164" d="M99.9 75l40.2 10.8-47.5-22.4L118 47z"/><path fill="#c1b38d" d="M221 94.7l-1 .4-13-37.8 1-.4z"/><path fill="#9c8173" d="M96.6 63.6l34-9.5L132 71l7.2-17.7z"/><circle cx="200" cy="28" r="5" fill="#583e27"/><path fill="#c38821" d="M115 128h23v4h-23z"/><path fill="#0c1a1b" d="M-32 90.4l82-5.8v1l-81.8 5.8z"/><path fill="#252221" d="M221.7 60.8L226 58l16.4 25.1L238 86z"/><path fill="#c2c9cc" d="M148.2 158.6l22.7-37.7.9.5-22.7 37.7z"/><path fill="#babbb1" d="M15.3 79.9l-19.5 5.8 26.1 8.2-35 6.6z"/><path fill="#3f2717" d="M70 117.6L38.5 80 50 70.4 81.5 108z"/><path fill="#153332" d="M7.7 156.7L-16 120.1 3.1 185l94.2-6.4z"/><ellipse cx="168" fill="#e59b4f" rx="3" ry="24"/><path fill="#a4804e" d="M225.7 135.2l4.4-60.6h-2.6L211.3 88z"/><path fill="#242a33" d="M214.1 137.2l1.5 23.7-5.5-15.8 60.9-12.7z"/><path fill="#885842" d="M115.6 157.1l-4.1 4.4-15.1-14.6 4.1-4.4z"/><path fill="#434f55" d="M123 106h42v21h-42z"/><path fill="#9ab3ca" d="M252 27h4v18h-4z"/><path fill="#35352d" d="M134 121h29v9h-29z"/><ellipse cx="45" cy="24" fill="#b19465" rx="11" ry="3"/><path fill="#474f4f" d="M134.5 14.4l24.7-22.8-16.6 20.1-33.1 24.7z"/><path fill="#44434a" d="M225.9 125.1l32.5-10 1.7 5.8-32.5 10z"/></g></g></svg>