<svg xmlns="http://www.w3.org/2000/svg" viewBox="0 0 1200 1800"><defs/><filter id="a"><feGaussianBlur stdDeviation="12"/></filter><rect width="100%" height="100%" fill="#593c2e"/><g filter="url(#a)"><g fill-opacity=".5" transform="translate(3.5 3.5) scale(7.03125)"><circle r="1" fill="#d1b48f" transform="matrix(-38.83396 -22.78375 40.279 -68.6539 135.3 227.2)"/><circle r="1" fill="#ddc595" transform="matrix(18.92251 7.66083 -16.71017 41.2747 97.2 77.5)"/><circle r="1" fill="#13180e" transform="rotate(-60.6 185.4 60.4) scale(79.44081 49.00861)"/><circle r="1" fill="#000e06" transform="rotate(163 75 35.6) scale(36.33581 123.80148)"/><circle r="1" fill="#d3d5a8" transform="matrix(4.60071 1.05794 -10.38009 45.14056 46.5 93.8)"/><path fill="#9f9e7c" d="M117 66l68 136-46 67z"/><path fill="#590007" d="M134 225l10 46-71-48z"/><circle r="1" fill="#1e2c15" transform="matrix(-108.20084 76.39933 -22.80215 -32.29363 45.3 18.5)"/><path fill="#976151" d="M87 271l-23-87-11 43z"/><path fill="#24170c" d="M80 203l44-39-11-99z"/><path fill="#e9b789" d="M91 206.6l17.1 23.9 17.7-20.8 2.7-13z"/><path fill="#e0b790" d="M60.2 70l55-2.1-24.5 54.8L89 81.8z"/><path fill="#7d795c" d="M77 33h43v39H77z"/><ellipse cx="20" cy="179" fill="#272a1a" rx="23" ry="94"/><circle r="1" fill="#d2c8a2" transform="matrix(-4.9864 32.21017 -4.29915 -.66554 46.4 87.8)"/><path fill="#2e1f0d" d="M111 257l25-37-8-20z"/><path fill="#695b42" d="M82 210l72-83 15 29z"/><path fill="#b7a279" d="M73 241h39v15H73z"/><path fill="#2f1103" d="M79 82h12v14H79z"/><path fill="#d2ba9c" d="M130.5 199l14.6-3.2 16.4 77.3-14.6 3.1z"/><path fill="#b50018" d="M81 228h35v12H81z"/><path fill="#d8a27a" d="M86 119L53 91l50 11z"/><path fill="#221215" d="M42 271l49-53-32 15z"/><path fill="#342e1a" d="M78.3 103.6l-48.1 45.7 27.3-62.5-.4 18.1z"/><path fill="#dfb28a" d="M128 190l-9 37-20-1z"/><circle r="1" fill="#262018" transform="matrix(-2.26195 15.61093 -69.94567 -10.13479 111 18.6)"/><path fill="#f6d9b0" d="M104 73l-29 7 22 4z"/><path fill="#634229" d="M60 149l5-42 36 36z"/><ellipse cx="8" cy="60" fill="#433e24" rx="40" ry="72"/><path fill="#3c452a" d="M108.5 259.7l5.6-26.4 23.4 5-5.6 26.4z"/><path fill="#382b1b" d="M124 152.8l5.5 13-3.7-49.9 11.9 71.5z"/><path fill="#8e7f63" d="M87.8 32.3l-13.6.7 53.2 56.5-11.7-51.8z"/><path fill="#2d3323" d="M54 23h26v40H54z"/><path fill="#2a1f16" d="M50.9 139.4L9.3 173.2 110 194.7l1-33.1z"/><path fill="#cdc09b" d="M49.6 86.1l-.5-23.3 17.5 10.1-10.5 2.4z"/><circle cx="79" cy="218" r="12" fill="#370d17"/><path fill="#baa683" d="M146.3 179.6l-2 .5-24.6-91.7 2-.5z"/><circle r="1" fill="#fdf3d1" transform="rotate(102.9 -12.6 65.5) scale(29.21512 1)"/><circle r="1" fill="#eabb94" transform="matrix(10.51882 -16.33732 5.08765 3.2757 95.5 102.8)"/><circle r="1" fill="#68543c" transform="matrix(-1.3805 .33867 -10.1134 -41.22408 140.1 203.4)"/><circle r="1" fill="#9d745e" transform="rotate(-92.3 131.9 71.6) scale(26.53385 1.92129)"/><path fill="#eaba8c" d="M70.2 88.5l6.3-3.2 7.3 14.2-6.3 3.2z"/><path fill="#6b6851" d="M143 116l18 64 9-23z"/><path fill="#625537" d="M60.5 125.9l23.9-63.6 18.9 9.9-24.9-32.3z"/><path fill="#522411" d="M83 94l9-4-8 19z"/><path fill="#241d12" d="M19 174h42v45H19z"/><ellipse cx="97" cy="202" fill="#906c4e" rx="12" ry="10"/><circle r="1" fill="#866c4f" transform="rotate(83.7 -6.6 129.3) scale(56.09969 2.86962)"/><path fill="#362418" d="M108 78h8v50h-8z"/><path fill="#a26953" d="M64.2 215.4l-1.8 9.1 31.9 30.2-10.7-5.2z"/><path fill="#d2c0a0" d="M140 220l-1 .3-15-64.3 1-.3z"/><path fill="#b2a17e" d="M111.1 251l-30.5 20 36.8-33-18.8 3.1z"/><path fill="#422e1f" d="M79.3 148.1l28.6-54.9 27.1 56.3-12.7-35.3z"/><path fill="#897957" d="M137 240v-12l-16 12z"/><circle r="1" fill="#2c2619" transform="matrix(11.69356 -5.62773 13.7864 28.64604 143 90.4)"/><path fill="#220b0c" d="M69 238h37v2H69z"/><path fill="#b79a79" d="M58 97l9-8-4 15z"/><path fill="#c39b75" d="M96 218l-9 12 9-33z"/><ellipse cx="169" cy="238" fill="#88936d" rx="10" ry="80"/><path fill="#b8001d" d="M106.2 238.4l-4.4 2.5-10-17.3 4.4-2.5z"/><path fill="#2c261b" d="M116-2l-5 47-12-58z"/><path fill="#654329" d="M69 74l-8 54 15-7z"/><path fill="#b09f83" d="M158 160l-6 39-9-30z"/><circle r="1" fill="#2f2719" transform="matrix(16.62812 8.65605 -12.7628 24.5171 44.7 21.4)"/><path fill="#a39e7b" d="M123.1 76.3l-4 .3-2.2-33 4-.2z"/><circle r="1" fill="#4c3520" transform="matrix(.99231 -.12375 14.84084 119.00782 128 191.4)"/><path fill="#8b0009" d="M112 223l-3 4 7 9z"/><path fill="#7c011c" d="M82.4 239l-10.7-25.4-5.5 7.6 12.3 13.3z"/><path fill="#a29675" d="M144.2 155L129 105.9l2.4 20.8 13.8 22.9z"/><path fill="#937f61" d="M60 184h6v17h-6z"/><path fill="#97835f" d="M43.6 75.5l2.2 19.3-7.9 32.1-4.2-11.5z"/><path fill="#8e734e" d="M33 222l10-3-4-3z"/><path fill="#6d553e" d="M96 83h12v4H96z"/><path fill="#cfa37a" d="M78.2 98.7l-3.4-14.5 10 36.6-13.1-6.9z"/><path fill="#3c3924" d="M19 127l22-1-26 64z"/><path fill="#998160" d="M111 248.9l-41.4-10 5.3 9.6L38.1 271z"/><path fill="#3f3722" d="M50.5 85.5l9.1 90.1-3.5-55.9-.2-47z"/><path fill="#bca782" d="M84 47l12-6-3 11z"/><path fill="#a5644a" d="M69 227l-17-7-1 11z"/><path fill="#fd5252" d="M80 234h16v4H80z"/><path fill="#b99a77" d="M80 65.3l-3.5 9.6L96.8 77l-29.7-8z"/><ellipse cx="29" cy="89" fill="#373220" rx="9" ry="35"/><path fill="#171c1a" d="M79.7 221.6l2.2 16.3 10-27.6-3.7 2z"/><path fill="#ebcaa2" d="M80 74l24 7-6-11z"/><path fill="#190c0f" d="M48 232h23v7H48z"/><path fill="#3c3323" d="M129 137h5v28h-5z"/><ellipse cx="10" cy="48" fill="#494028" rx="11" ry="108"/><path fill="#300006" d="M116 239l-1-7 17-4z"/><circle r="1" fill="#523523" transform="matrix(2.38967 12.33564 -23.52194 4.5567 86 131.8)"/><path fill="#110813" d="M.8 241.1l1.5 5.4 45.1 13.6L-16 271z"/><path fill="#7d654e" d="M162 257.8l-1 .2-19-81.8 1-.2z"/><path fill="#a49271" d="M123.7 98.7l-16.6-54.3 20.6 48.5 4.4 45.3z"/><path fill="#976e49" d="M123.4 170.6l4.1 23.8-24.1 6.4 19.3-36.4z"/><path fill="#65482f" d="M118.3 64.9l-8 33 14.2 19.7-6.7-44.8z"/><path fill="#c29c76" d="M109.5 223.1l10.4 6.9 6.8-21-33.8 12.6z"/><path fill="#020000" d="M89 36l2 1v4z"/><path fill="#453527" d="M63.7 195.1l24.1 1.9 9.9 3-23.4 24.7z"/><path fill="#ffddb7" d="M77 109h17v3H77z"/><path fill="#cfbb98" d="M129.3 185.6l3.9-.7 5.5 31.5-3.9.7z"/><ellipse cx="84" cy="107" fill="#974830" rx="11" ry="1"/></g></g></svg>