<svg xmlns="http://www.w3.org/2000/svg" viewBox="0 0 1800 1200"><defs/><filter id="a"><feGaussianBlur stdDeviation="12"/></filter><rect width="100%" height="100%" fill="#2e3a5f"/><g filter="url(#a)"><g fill-opacity=".5" transform="translate(3.5 3.5) scale(7.03125)"><circle r="1" fill="#daffff" transform="rotate(81.4 26.7 78.6) scale(56.35303 255)"/><circle r="1" fill="#93afb4" transform="rotate(12.3 -675 618) scale(255 36.53283)"/><circle r="1" fill="#9cc3ff" transform="matrix(154.23975 -14.96725 3.1838 32.80947 72.3 58.6)"/><path fill="#453c1e" d="M53 88h203v38H53z"/><path fill="#d0e0f5" d="M0 75h46v38H0z"/><ellipse cx="123" cy="5" fill="#5e8ddd" rx="255" ry="39"/><circle r="1" fill="#abc8ec" transform="rotate(-8.7 508.8 -1371.4) scale(164.61094 12.66825)"/><ellipse cx="188" cy="144" fill="#787c7c" rx="47" ry="25"/><circle r="1" fill="#5d4a35" transform="rotate(-96.5 125.4 -33.1) scale(8.24076 81.45448)"/><path fill="#444345" d="M238 112.8L61.4 90.3l-22.8 21.5.5 8.9z"/><ellipse cx="164" cy="169" fill="#26426e" rx="192" ry="5"/><ellipse cx="37" cy="136" fill="#6c8eac" rx="114" ry="15"/><circle r="1" fill="#9b8462" transform="rotate(170.1 119 46.6) scale(86.27757 3.20747)"/><ellipse cx="33" cy="78" fill="#acc6e2" rx="48" ry="17"/><ellipse cx="198" cy="46" fill="#89abd8" rx="182" ry="24"/><path d="M186 136h19v5h-19z"/><circle r="1" fill="#222829" transform="matrix(-25.56565 -4.18654 3.73065 -22.78171 242.1 118.7)"/><path fill="#a0856a" d="M197 131l31 4-25-22z"/><path fill="#3f454b" d="M127 86h70v40h-70z"/><ellipse cx="253" cy="86" fill="#9c9054" rx="11" ry="6"/><ellipse cx="230" cy="158" fill="#8c8f94" rx="82" ry="6"/><path fill="#3c5677" d="M212.3 151l1.8-15 57.6 7-1.8 15z"/><ellipse cx="151" cy="105" fill="#565b5e" rx="35" ry="8"/><path fill="#3d3c3b" d="M48 95h72v25H48z"/><circle r="1" fill="#baccdf" transform="matrix(14.23964 -5.40953 5.0653 13.3335 33.7 99)"/><path fill="#a3bfdf" d="M45.4 54.5l212 10.2-73.1 15.4-89.8 7.5z"/><ellipse cx="51" cy="169" fill="#456179" rx="75" ry="16"/><circle r="1" fill="#5d87c5" transform="matrix(-158.56102 5.62576 -.43579 -12.2826 113.4 .9)"/><path fill="#687f93" d="M142.6 123.8l42.5 6.7-3.7 23.7-42.5-6.7z"/><path fill="#253039" d="M190 83h31v38h-31z"/><path fill="#564c45" d="M65.9 118.5l-57.6 2.1 28.8-8.8 133.4-32.1z"/><path fill="#789ccf" d="M-23 28.8L211 8.3l2 23-234 20.4z"/><path fill="#222a32" d="M84.2 117.2l16.6 3.8 17.2-9 .3-23.2z"/><path fill="#636357" d="M269.5 83.7l-30.6-6.9L271 59.2l-60.4 46.7z"/><path fill="#555152" d="M263.7 129.4l-88.1 7.6 19.9-4.2 50.1-11.3z"/><path fill="#b9cfe5" d="M65.5 75.2l5.3 9.6-32.3 18-5.3-9.6z"/><path fill="#9a815b" d="M95 89h6v18h-6z"/><ellipse cx="130" cy="125" fill="#5b6455" rx="47" ry="3"/><path fill="#141a20" d="M264 89l-43 35-3-21z"/><path fill="#1f2935" d="M175 119h22v8h-22z"/><path fill="#515f6b" d="M191.5 110.4l-19.4-9.5 2.2 13.1 22.7 8.2z"/><path fill="#a99179" d="M199.6 129.7l3.5-11.5 13.3 4.1-3.5 11.5z"/><path fill="#878672" d="M208 89l-6 6 18-7z"/><path fill="#8bacd9" d="M241.5 71.4l29.5-8.9V38.6L40.2 40z"/><circle r="1" fill="#766756" transform="matrix(-57.69317 4.69863 -.2588 -3.17777 240.2 75.3)"/><path fill="#393438" d="M145 101l17-16-69 9z"/><path fill="#776452" d="M78.5 119.8l-81.4.2 57.5-7.7 3.1 5.3z"/><path fill="#3a3023" d="M203.8 143.8l4.1-2-.5-11.7-19.4 7.1z"/><path fill="#1f4c80" d="M0 114h18v5H0z"/><path fill="#5f7787" d="M52 150l-61 19 54-2z"/><circle r="1" fill="#708396" transform="matrix(-2.12679 8.6574 -37.96906 -9.32752 180 154.5)"/><path fill="#21303d" d="M57 94l1 16-18 4z"/><path fill="#916649" d="M60.1 91.9L171.7 82l.2 2L60.3 94z"/><path fill="#2c3137" d="M180.5 86l-16.1 8.7 14 3L245.3 82z"/><path fill="#262d36" d="M111 115h64v7h-64z"/><path fill="#698aab" d="M14 121h46v26H14z"/><path fill="#a8c3dd" d="M0 75h120v13H0z"/><path fill="#4b658a" d="M78 159h96v7H78z"/><path fill="#60686d" d="M76 106h20v6H76z"/><path fill="#b79f97" d="M147 154h16v5h-16z"/><path fill="#18232c" d="M200.9 121.5l-3.1-13.6 19.4-6.3 8.4-29.2z"/><path fill="#948b84" d="M227 154h29v9h-29z"/><path fill="#3b465a" d="M215.9 128.3l34.5 14.7-44.3-2.2 48.6-18.5z"/><path fill="#8e7158" d="M167 89v-8l21-3z"/><path fill="#9d7a57" d="M183 140h9v6h-9z"/><path fill="#957c62" d="M52 106l-2 15 4-3z"/><path fill="#b69477" d="M111 117.9l-1.5 2.6-4.4-2.4 1.4-2.6z"/><path fill="#34363b" d="M70.6 119.5l12.9-16.8 1.1-10.8L57 117.4z"/><path fill="#1e262c" d="M99.6 104.7l10.2 10.7 16.9-10.6L79 123.6z"/><path fill="#4e443d" d="M160.7 85l-.2-1 24.8-3 .2 1z"/><path fill="#bacbde" d="M5 90h42v16H5z"/><ellipse cx="80" cy="152" fill="#536e89" rx="75" ry="5"/><path fill="#6f7b7d" d="M128 127h63v8h-63z"/><path fill="#98735a" d="M85 87h3v16h-3z"/><path fill="#142130" d="M44 111l5 5-3 4z"/><path fill="#3c4650" d="M248.2 85.7L227.3 106l-3.5-3.6L244.7 82z"/><ellipse cx="109" cy="143" fill="#758a9c" rx="43" ry="5"/><path fill="#425879" d="M216 143h40v8h-40z"/><path fill="#395276" d="M48 181.8l33.4-29.6-25.6 1.4 63.3 16.3z"/><path fill="#081324" d="M199.1 134l3.3 5-7.5 5-3.3-5z"/><path fill="#886a56" d="M61.5 96l4.9-7.7 12.4 1.5-12.1 9z"/><circle r="1" fill="#81a4d3" transform="rotate(3.3 -615.4 3686) scale(116.17478 8.44606)"/><path fill="#adc4de" d="M193.4 77.7l-8.8-5.5-45.8 10.4 42.8-2.8z"/><path fill="#454345" d="M97 103l37-18-24 23z"/><path fill="#917d64" d="M248.5 70.8l13.3-7.8-31.1 17.4 30.4-9.4z"/><circle r="1" fill="#5f88c2" transform="rotate(-17.9 9.6 -61.2) scale(119.33798 17.25816)"/><circle r="1" fill="#5e6057" transform="matrix(-41.34242 -3.68971 .2188 -2.45167 89.2 122.4)"/><path fill="#95a7c9" d="M-16 100.1l59.7 8.4-11.5 5.7-24.7-3.5z"/><path fill="#565e66" d="M145 102l-28 15 3-11z"/><path fill="#2b3034" d="M260.7 109l-21.8 26.7 21.5 14.2-19.5-47.8z"/><ellipse cx="254" cy="17" fill="#7095cd" rx="220" ry="13"/><path fill="#3e3f44" d="M200 79h8v23h-8z"/><path fill="#7c8189" d="M184.9 139.8l18 3.3 46 21.1-38.2-.2z"/><ellipse cx="5" cy="136" fill="#5a7ba1" rx="13" ry="18"/><ellipse cx="57" cy="62" fill="#95b5dd" rx="255" ry="9"/><path fill="#5f748a" d="M56 124h48v6H56z"/><path fill="#4b6183" d="M167 137h19v6h-19z"/><path fill="#2e343a" d="M177.8 87.8l-18.9 37.6-24.1-7.6 35.4 5.4z"/><path fill="#0f1b21" d="M116.1 105.9l-6.1 4.2 2.1 12.7 7.3-16.6z"/><path fill="#908962" d="M252.6 80l1.7 10.9-6.9 1-1.7-10.8z"/></g></g></svg>