<svg xmlns="http://www.w3.org/2000/svg" viewBox="0 0 4752 3168"><defs/><filter id="a"><feGaussianBlur stdDeviation="12"/></filter><rect width="100%" height="100%" fill="#5a3e36"/><g filter="url(#a)"><g fill-opacity=".5" transform="translate(9.3 9.3) scale(18.5625)"><circle r="1" fill="#d3d9cb" transform="rotate(-169.3 66.9 14.1) scale(147.02159 143.25446)"/><ellipse cx="83" cy="41" fill="#1d0a1b" rx="27" ry="39"/><circle r="1" fill="#e9e7d0" transform="matrix(-57.66808 -24.39025 12.5809 -29.74616 162.6 73.2)"/><path fill="#a5cde6" d="M254.9 21.3l-142.6 20L107 4.7l142.6-20z"/><path fill="#805942" d="M23.1 166.4L-10.8 123 91 43.6 124.8 87z"/><circle cx="173" cy="169" r="61" fill="#875b3c"/><path fill="#c2e4f7" d="M60.9 31.9l-64.4-9L1.1-10l64.4 9z"/><path fill="#321a16" d="M0 29h112v15H0z"/><path fill="#1e4c80" d="M271 36l-103.4-1-11.7 8.4L260 61z"/><circle r="1" fill="#c8a77f" transform="matrix(12.05957 17.97538 -64.99582 43.60529 69 159)"/><path fill="#402f20" d="M-21.7 136.5l131-32.7 2.4 9.7-131 32.7z"/><circle r="1" fill="#c4b8a2" transform="matrix(-7.6748 31.41985 -112.69493 -27.52751 197.7 86.1)"/><circle r="1" fill="#6a605f" transform="matrix(20.67849 23.19414 -38.10213 33.96955 219.6 163.3)"/><ellipse cx="157" cy="155" fill="#d17526" rx="22" ry="17"/><path fill="#e7e3da" d="M188.3 140.8l1.6 13.9-7.7-1.6-16.4-22z"/><path fill="#dedfdd" d="M44.9 124.1l60 18.4-30 10.6-5.4-16.2z"/><path fill="#9c7057" d="M80 45h35v82H80z"/><path fill="#868d8c" d="M136.3 25.6l4.4-17.4 97 24.2-4.4 17.4z"/><circle cx="127" cy="121" r="10" fill="#eee7d5"/><path fill="#c99b7c" d="M70 75h26v34H70z"/><path fill="#422f27" d="M144 128l-31 16 23 7z"/><ellipse cx="84" cy="25" fill="#333c58" rx="25" ry="24"/><path fill="#35333f" d="M201 50l-33-10 37-12z"/><circle r="1" fill="#cccbbc" transform="matrix(9.44163 43.48013 -23.3533 5.07113 139.5 64.5)"/><circle r="1" fill="#634c4a" transform="rotate(-6.1 733.8 -438.3) scale(57.0196 6.84988)"/><path fill="#a6a69c" d="M-16 127.3l28.3-19.6 42.9-3.2-38.4-18.7z"/><circle r="1" fill="#525149" transform="rotate(-24 320.2 28.1) scale(53.85475 14.4898)"/><path fill="#e7be4d" d="M125 98l-6 23-12-33z"/><path fill="#a76c08" d="M43 158l8 27 64-12z"/><path fill="#619ff4" d="M240.7 177.4l-44.5-18 1.1-2.8 44.5 18z"/><path fill="#82a5ca" d="M59.2 3l49.9 7 21.7-12.3L-2.6-12.5z"/><path fill="#471a05" d="M210.3 166.6l-1.8 4.6-30.8-11.8 1.8-4.6z"/><path fill="#b1b4af" d="M9 47l55-6-45 25z"/><circle r="1" fill="#918770" transform="matrix(-2.16208 9.92916 -67.06783 -14.60405 186.4 117.9)"/><path fill="#9dc4e7" d="M208.5 19.8L154.8 14l2.7-25.9L211.2-6z"/><path fill="#93aacb" d="M208.2 37.1l34.1 10.6-39.2-1.4L236.8-16z"/><ellipse cx="65" cy="49" fill="#302426" rx="7" ry="27"/><path fill="#814929" d="M67 158l-1-20-14-6z"/><ellipse cy="36" fill="#684126" rx="48" ry="10"/><path fill="#00003e" d="M242 51h14v6h-14z"/><ellipse cx="194" cy="61" fill="#c4c1b1" rx="25" ry="13"/><path fill="#5e4e4c" d="M88.8 29.3l23.9-2.5 2.5 23.9-23.9 2.5z"/><path fill="#c0c9c8" d="M114.4 38.4l29 5.9 20.9-8-56.1-27.6z"/><path fill="#b9a896" d="M68.2 144.1l17.5 14.5-40.6-21.5-14.4 20.1z"/><path fill="#c5bcb2" d="M108 147.9L79.3 131l-27.9-9.3 29.3 38.8z"/><path fill="#4d4130" d="M271 136v22l-82-20z"/><circle r="1" fill="#749ab6" transform="matrix(58.37709 -2.38277 .21145 5.1805 231.1 4.8)"/><path fill="#533b2d" d="M98 86h9v29h-9z"/><path fill="#98876b" d="M268.6 89.2l-78.3-8.3L271 108l-23.1-68.3z"/><ellipse cx="225" cy="27" fill="#79868c" rx="36" ry="6"/><path fill="#6a5753" d="M14 140h24v30H14z"/><path fill="#adbac0" d="M27.2-1.9L-5.7 26.4l41.6 3.2 27 2.3z"/><path fill="#956c3a" d="M110 134h10v36h-10z"/><path fill="#65564b" d="M155 130l23-2-56-24z"/><path fill="#675954" d="M104 114h15v13h-15z"/><path fill="#b5cddf" d="M205 17l66 10-19-16z"/><ellipse cx="245" cy="48" fill="#5e91c4" rx="34" ry="4"/><path fill="#cfd6e5" d="M177 162h5v8h-5z"/><path fill="#7b5739" d="M52.7 113.5l68.2 28.7L86 131.6l-35.1-11.5z"/><path fill="#5a3e3b" d="M58 64h44v10H58z"/><path fill="#d5c1aa" d="M179 130l3 12-25-11z"/><path fill="#7f4937" d="M34 84h26v14H34z"/><path fill="#ae8172" d="M80.7 67.7L92 45.3l28.9 35.4-49.8-35z"/><path fill="#927b6c" d="M104.3 152.1L81.8 185 63 145.6l17.2 9.7z"/><path fill="#736f5f" d="M224 51l-15 64.3-1-.3 15-64.3z"/><path fill="#cdc8b5" d="M165 103l-44-50 125 56z"/><path fill="#505964" d="M239 28h17v18h-17z"/><path fill="#918876" d="M209 119h47v21h-47z"/><path fill="#124e83" d="M261.7 58.6l-44.4-4.1 1.4-8.9 18.5 7.7z"/><path fill="#623d2c" d="M200.2 160.5l-13.2-5.3-13.2 29.8h64.9z"/><path fill="#1a3d62" d="M163 37h21v8h-21z"/><path fill="#a2a59e" d="M120 2l36 46 4-64z"/><circle r="1" fill="#dfaa71" transform="rotate(65.3 -41.7 191.3) scale(3.9851 9.76155)"/><path fill="#97afb7" d="M176 33h15v5h-15z"/><path fill="#9a9489" d="M46.2 132.5l1 2.9-29.4 10-1-2.8z"/><path fill="#f2dab8" d="M105 128h17v5h-17z"/><path fill="#4c4139" d="M271 156.4l-63.9-19.8-24.9-5.7-3.3 4.9z"/><circle r="1" fill="#846361" transform="rotate(17.7 -385.2 826.6) scale(48.66182 5.99521)"/><path fill="#99909b" d="M31.8 84.5l18-4.9 19-91.8L49 69.6z"/><ellipse cx="152" cy="15" fill="#002040" rx="13" ry="1"/><path fill="#985c42" d="M133.6 108.9l-5.2 3-12-20.8 5.2-3z"/><path fill="#352c20" d="M47.9 129.6l-36.3 6.5-27.6-2.3L3.1 144z"/><path fill="#5e4130" d="M107 110l-67 19 27-20z"/><path fill="#5f8597" d="M245 0h11v14h-11z"/><ellipse cx="87" cy="41" fill="#2b2026" rx="23" ry="5"/><path fill="#b0aaa0" d="M20.5 104.7l-9.3-18.9 20.2-1.4 3.4 15.5z"/><path fill="#bdc9ce" d="M14 8l60-7-22 17z"/><path fill="#caad8d" d="M58.7 184.7l58.9-30.8-20.4-21.8 12.9 44.6z"/><ellipse cx="83" cy="142" fill="#dadad7" rx="10" ry="8"/><path fill="#b8d6f3" d="M164.9 6.2L145.2 15 163.4.9 271-16z"/><ellipse cx="96" fill="#aecde5" rx="24" ry="2"/><path fill="#b27f6a" d="M55 76h64v11H55z"/><path fill="#ad9988" d="M91.6 121.3L102 124l-17.9-10.6 28.6 4.7z"/><circle r="1" fill="#46475b" transform="matrix(11.94369 -13.21834 16.9215 15.28974 91.1 21.9)"/><path fill="#5b4a45" d="M205.4 51.2l-5.6-27.3-8.3 6.5 1.9 16.7z"/><path fill="#362928" d="M45 139.3l-7.5 6.5-3.7 1-49.8 11z"/><path fill="#b7b39e" d="M219 58h24v30h-24z"/><path fill="#bab39e" d="M119 69l2-32-14 30z"/><path fill="#a05420" d="M169 141h7v29h-7z"/><path fill="#827564" d="M19.8 86.3l47.8-21.6-76.9 6.7-6.7 16.4z"/></g></g></svg>