<svg xmlns="http://www.w3.org/2000/svg" viewBox="0 0 1200 1800"><defs/><filter id="a"><feGaussianBlur stdDeviation="12"/></filter><rect width="100%" height="100%" fill="#59433d"/><g filter="url(#a)"><g fill-opacity=".5" transform="translate(3.5 3.5) scale(7.03125)"><circle r="1" fill="#e0f1ef" transform="matrix(33.61387 118.60225 -158.50509 44.92301 73.2 88.6)"/><circle r="1" fill="#61beff" transform="matrix(136.39087 17.30295 -3.44416 27.14866 106.8 16.6)"/><circle r="1" fill="#4a676d" transform="matrix(20.33981 43.42085 -134.11973 62.82627 106.8 210)"/><circle r="1" fill="#cfa279" transform="matrix(-45.78679 -30.0763 53.48302 -81.42012 57 121)"/><ellipse cy="75" fill="#020000" rx="11" ry="15"/><path fill="#9fa7a4" d="M141 103h20v131h-20z"/><path fill="#81d2ff" d="M43.3 2.9l7 .5L42.7 113l-7-.5z"/><ellipse cx="110" cy="242" fill="#0d1b21" rx="112" ry="7"/><path fill="#1a2129" d="M74.1 193.1l-5.3 1.2 43.9 58.7-14.4-60.2z"/><path fill="#4c3a30" d="M2 146l22 3-35 38z"/><path fill="#362622" d="M28 189h13v65H28z"/><circle r="1" fill="#77b7ff" transform="rotate(20.9 -15 164.2) scale(22.08146 35.29557)"/><path fill="#c3ac95" d="M41 93h26v130H41z"/><circle cx="140" cy="17" r="35" fill="#7db2f5"/><path fill="#93684a" d="M24 43h12v73H24z"/><path fill="#491e01" d="M127 88l7 17 3-25z"/><path fill="#390000" d="M9 40l-25-29 1 44z"/><path fill="#0b6ebf" d="M47 235l30-14 17 12z"/><path d="M-3.4 98.1l6-.2.8 22-6 .2z"/><circle cx="157" cy="70" r="20" fill="#ddac7b"/><circle r="1" fill="#d0b192" transform="matrix(8.59195 26.92215 -49.69464 15.85958 82.6 117.6)"/><path fill="#82acc9" d="M31.8 270l-48.2-16.7 4.6-13.2 48.2 16.6z"/><path fill="#79807c" d="M94 146h76v65H94z"/><path fill="#b28865" d="M75.2 34.1L101 67.9l31.9-8L90 25.5z"/><path fill="#86cbff" d="M137 75l2-27-16 23z"/><circle r="1" fill="#7c99ad" transform="matrix(-2.2139 6.1221 -14.33302 -5.18318 102 254.7)"/><path fill="#788886" d="M47 235l65-103-59 54z"/><path d="M11 222l-2 16-8-3z"/><ellipse cy="4" fill="#6da5e4" rx="115" ry="23"/><path fill="#b1937d" d="M-16 204.5l44.2 17.8L13 126.6l37.7 74.5z"/><ellipse cx="42" cy="83" fill="#9fd7ff" rx="5" ry="25"/><path fill="#30312b" d="M127 185h9v22h-9z"/><path fill="#18313c" d="M114.7 269.5l-2.8-19.8 65.4-9.2 2.8 19.8z"/><path fill="#c5a284" d="M10 25h17v73H10z"/><path fill="#0d1112" d="M93.9 236.1l2.2-29.9 8.8 2.2v40.2z"/><path fill="#788a97" d="M79 209l14-6 1 20z"/><path fill="#a17e5c" d="M40 119h100v5H40z"/><path fill="#544f41" d="M83 148h58v3H83z"/><path fill="#87bbec" d="M83.1 27.6l.3-8.6-63.6-4.4 27.8 41.7z"/><ellipse cx="143" cy="239" fill="#99beef" rx="4" ry="3"/><circle r="1" fill="#929994" transform="rotate(162.1 38.6 93.7) scale(12.71929 43.71905)"/><path fill="#a9b1a6" d="M142 82h9v118h-9z"/><path fill="#1e140c" d="M9 66l-25-2 26 21z"/><path fill="#8c9d9e" d="M40.3 215.8l.1 11.1-2.8 5.5 16.3-4z"/><circle r="1" fill="#341807" transform="matrix(-1.1935 4.0591 -2.35853 -.69349 28 74.5)"/><circle r="1" fill="#421101" transform="rotate(-155.1 40.2 100.9) scale(7.7043 5.30287)"/><path fill="#2d3e43" d="M-14.6 236.1l41.3 16.4 47.8 13.8 9-16.4z"/><path fill="#778ea0" d="M105 229h27v6h-27z"/><path fill="#5c5965" d="M82 16.5l6.6-7.6 5.3 4.6-6.5 7.6z"/><ellipse cx="83" cy="184" fill="#474037" rx="15" ry="3"/><path fill="#a58e7b" d="M86.7 27.2L46.3 67.7l-19-47.5-5.1 54.3z"/><path fill="#cdb095" d="M47 66h81v13H47z"/><path fill="#1f252b" d="M90.6 207.8l-16 1.4-1.2-15 16-1.4z"/><ellipse cx="67" cy="152" fill="#8f7052" rx="53" ry="2"/><path fill="#d0bba5" d="M36 130h65v19H36z"/><path fill="#3c444a" d="M154 183l-1 20 15-4z"/><path fill="#85a7ca" d="M122 237l5-1-3 8z"/><path fill="#8ebcec" d="M145 56L127 7 86 26z"/><ellipse cx="128" cy="209" fill="#89a8c1" rx="19" ry="2"/><path fill="#4d5f67" d="M14 240l-4-39 20 36z"/><path fill="#2c2815" d="M132 122h8v4h-8z"/><path fill="#9e521d" d="M-9.3 90.4l.6-8 18 1.2-.6 8z"/><path fill="#242928" d="M121.1 244.2l-89.6 6.7 21.6 17.2-2.1-34.4z"/><path fill="#1c1800" d="M156 96h12v2h-12z"/><path fill="#807371" d="M151 130h19v28h-19z"/><path fill="#5f4e41" d="M25 35l15 20-9-5z"/><path fill="#93a4a4" d="M143 208h11v25h-11z"/><path fill="#151501" d="M158 156h12v2h-12z"/><path fill="#3e464f" d="M109 211h35v16h-35z"/><ellipse cx="158" cy="77" fill="#ad875f" rx="27" ry="5"/><path fill="#5f4126" d="M135 89h3v17h-3z"/><path fill="#816958" d="M-16 212l25.5-78.6 1.1 14.6 19.5-23.3z"/><path fill="#d2ae8e" d="M138 52h12v37h-12z"/><path fill="#81baf6" d="M134 49l-1 36-6-15z"/><circle r="1" fill="#a88362" transform="rotate(-64.5 91.6 -62.5) scale(5.30433 25.90571)"/><path fill="#ccb19b" d="M22 157h66v10H22z"/><path fill="#d5b99d" d="M94.3 109.6l-48.2-30-1.4 22.6 14.3 8.4z"/><path fill="#bb9574" d="M86 25l20 15-55 32z"/><path fill="#a97e58" d="M92 108h40v4H92z"/><path fill="#90a4ac" d="M64 208h26v4H64z"/><path fill="#6c4f3c" d="M26.3 35.6l.2 2-26.8 2.8-.2-2z"/><path fill="#2e4560" d="M53 222h32v8H53z"/><path fill="#6c6c64" d="M118 166h22v30h-22z"/><path fill="#8f6641" d="M54.6 85l72.8-5v1l-72.8 5z"/><ellipse cx="123" cy="78" fill="#ceb49d" rx="5" ry="22"/><path fill="#997659" d="M32.8 95.1l-7.5-23.8-5.9 40.3.8 13.2z"/><path fill="#a2744b" d="M25.2 132.2l15.5-7 2 4.6-15.4 7z"/><ellipse cx="131" cy="154" fill="#98a29d" rx="40" ry="3"/><path fill="#6a9dd4" d="M127-16l47 64 4-58z"/><path fill="#bc9980" d="M38.8 187.1l11.5 34.5 7.4-67-73.7 67.3z"/><path fill="#cfbead" d="M6 29h20v9H6z"/><path fill="#1d232f" d="M93.4 218.5l4.1-8 10.5-.9-11.7-8z"/><path fill="#4a5b63" d="M58 255l-27-9h49z"/><path fill="#989f99" d="M88 136h82v10H88z"/><ellipse cx="19" cy="14" fill="#75ade3" rx="62" ry="12"/><path fill="#778a97" d="M86 247h23v7H86z"/><path fill="#ba9f88" d="M25 38l17 26-58-5z"/><path fill="#409ce9" d="M92 234l-8.6 2.7L82 232l8.6-2.6z"/><path fill="#612d1f" d="M7.7 42.2l1.1 2.7-8.6 1.3L-16 4.8z"/><circle cx="105" cy="58" r="2" fill="#2f0d00"/></g></g></svg>