<svg xmlns="http://www.w3.org/2000/svg" viewBox="0 0 1200 1800"><defs/><filter id="prefix__a"><feGaussianBlur stdDeviation="12"/></filter><rect width="100%" height="100%" fill="#2f292a"/><g filter="url(#prefix__a)"><g transform="translate(3.5 3.5) scale(7.03125)"><circle r="1" fill="#fff" fill-opacity=".5" transform="rotate(124.8 15 80.7) scale(169)"/><circle r="1" fill="#d4ffff" fill-opacity=".5" transform="matrix(-102.60164 43.12976 -16.84493 -40.0725 46.7 36)"/><circle r="1" fill="#320300" fill-opacity=".5" transform="matrix(-36.31826 -15.56795 8.01573 -18.69979 117.9 124.3)"/><circle r="1" fill="#2c0100" fill-opacity=".5" transform="matrix(-38.333 -9.27373 4.51279 -18.65363 88.7 243.8)"/><circle r="1" fill="#ffe6c2" fill-opacity=".5" transform="matrix(150.57424 4.18488 -.81151 29.19858 80.4 199.3)"/><circle r="1" fill="#ffffe7" fill-opacity=".5" transform="matrix(-22.98042 -25.03509 21.89242 -20.09567 159.7 236)"/><circle r="1" fill="#f9ebc6" fill-opacity=".5" transform="matrix(18.34303 8.63522 -22.42481 47.63505 61.2 94.8)"/><circle r="1" fill="#94ccff" fill-opacity=".5" transform="matrix(137.15184 6.61668 -1.97494 40.937 80.7 7)"/><circle r="1" fill="#5b4539" fill-opacity=".5" transform="matrix(42.02725 -1.93973 1.29682 28.09766 83.3 240.7)"/><circle r="1" fill="#ffcc7e" fill-opacity=".5" transform="rotate(137.7 -42.7 121.7) scale(75.34508 24.32408)"/><path fill="#e5a368" fill-opacity=".5" d="M93 127l81 38-97 16z"/><circle r="1" fill="#4b665e" fill-opacity=".5" transform="matrix(-24.47142 -27.70385 16.27122 -14.37273 129 85.4)"/><circle r="1" fill="#ffdbb0" fill-opacity=".5" transform="rotate(164.5 14.3 35.9) scale(65.1929 15.71514)"/><path fill="#0e0200" fill-opacity=".5" d="M130.2 105.2l-39.5 18.9-6.5-.7 8.1-23.9z"/><path fill="#5e4001" fill-opacity=".5" d="M132 117h20v44h-20z"/><circle r="1" fill="#b3c0bb" fill-opacity=".5" transform="matrix(-14.92254 -1.30555 5.08375 -58.10753 167.2 145.9)"/><circle r="1" fill="#b27961" fill-opacity=".5" transform="rotate(-166.7 33 119.4) scale(32.67091 13.39226)"/><ellipse cx="111" cy="152" fill="#ffccb0" fill-opacity=".5" rx="22" ry="12"/><circle r="1" fill="#9da9a2" fill-opacity=".5" transform="rotate(118.5 67.1 62.6) scale(55.80077 25.35387)"/><ellipse cx="3" cy="174" fill="#fff" fill-opacity=".5" rx="21" ry="7"/><path fill="#a36054" fill-opacity=".5" d="M21.8 178.3L-16 190.9l46.1 8.9-5.8-16.7z"/><path fill-opacity=".5" d="M115.4 49l5.7 2-6.5 20-5.7-2z"/><ellipse cx="9" cy="213" fill="#fff8bb" fill-opacity=".5" rx="41" ry="15"/><circle cx="14" cy="22" r="39" fill="#9fd5ff" fill-opacity=".5"/><circle r="1" fill="#608795" fill-opacity=".5" transform="rotate(23.2 -353.6 128.3) scale(39.7775 20.2202)"/><path fill="#e2e4e4" fill-opacity=".5" d="M119.8 214.3l-10.7-31.2 33-11.4 10.8 31.2z"/><circle r="1" fill="#451600" fill-opacity=".5" transform="matrix(29.05275 14.11677 -3.71496 7.6455 92.3 246.8)"/><path fill="#889f9e" fill-opacity=".5" d="M10.2 111.1L28.9 182 30 91.8 1.4 60.9z"/><path fill="#5b7297" fill-opacity=".5" d="M94 207l-30 19 59 13z"/><path fill="#607f76" fill-opacity=".5" d="M22.8 94.5l51-22.4-37.4 37-52.4-1z"/><path fill="#a8c6d8" fill-opacity=".5" d="M88.2 53l-9.6 85.5-71.1 3 88.4-47.7z"/><path fill="#86644f" fill-opacity=".5" d="M139 132l-63-11 22 28z"/><path fill="#ab1424" fill-opacity=".5" d="M100 190h11v10h-11z"/><path fill="#876848" fill-opacity=".5" d="M84.9 152.6l-1.1 11.1 26.6 11 22.5 7.9z"/><path fill="#f3f0e8" fill-opacity=".5" d="M45 176l37-13-14 27z"/><ellipse cx="159" cy="56" fill="#aec3ca" fill-opacity=".5" rx="10" ry="31"/><path fill="#fee9cd" fill-opacity=".5" d="M46 97l2 38 29-33z"/><path fill="#200" fill-opacity=".5" d="M16 127l-32 5v10z"/><path fill="#b9a48c" fill-opacity=".5" d="M102 81l-8-62-16 7z"/><circle r="1" fill="#96cdff" fill-opacity=".5" transform="matrix(-52.59805 -16.88739 7.6582 -23.8525 86 0)"/><path fill="#402800" fill-opacity=".5" d="M156 148l-56-51 38 16z"/><circle r="1" fill="#ffed9c" fill-opacity=".5" transform="rotate(33.4 -421.4 133.2) scale(25.56252 12.71557)"/><path fill="#d9d5ce" fill-opacity=".5" d="M116 178l-15 32 84 54z"/><path fill="#cd7737" fill-opacity=".5" d="M56.4 220.8l3.7 17.6-22.5 4.8-3.7-17.6z"/><circle r="1" fill="#ffbf8f" fill-opacity=".5" transform="matrix(-14.41788 6.68794 -8.35899 -18.02034 44 192.9)"/><path fill="#22261f" fill-opacity=".5" d="M32 66h4v10h-4z"/><path fill="none" stroke="#19271f" stroke-opacity=".5" stroke-width=".5" d="M41.1 87.9q70.5-29.4 70.9-36.2"/><ellipse cx="106" cy="229" fill="#00000c" fill-opacity=".5" rx="2" ry="18"/><path fill="#7e6d63" fill-opacity=".5" d="M14.4 231l-29.4-3.4 35.1 21L36.3 271z"/><path fill="#5d6e6d" fill-opacity=".5" d="M152.9 88.4l-12.6-37.7-64.2 69.9 31-56z"/><circle r="1" fill="#dad0b9" fill-opacity=".5" transform="matrix(.97475 2.4268 -44.45226 17.85476 55.3 86.3)"/><circle r="1" fill="#ada38d" fill-opacity=".5" transform="matrix(15.77014 23.5979 -7.78054 5.19962 156 177.4)"/><path fill="#360900" fill-opacity=".5" d="M96 166l8 1-17-15z"/><path fill="#cecfd5" fill-opacity=".5" d="M102 170l-3 40-50 9z"/><path fill="#ffe7cb" fill-opacity=".5" d="M-15.4 52.3L33 63.4 13.1 98.8l19-13.6z"/><path fill="#92795d" fill-opacity=".5" d="M88 168l-18 19 27-7z"/><path fill="#687678" fill-opacity=".5" d="M142-16h32l-34 32z"/><path fill="#595142" fill-opacity=".5" d="M5 67h5v18H5z"/><path fill="#95765d" fill-opacity=".5" d="M71.2 46.8l1.6-24 4 .4-1.6 24z"/><circle r="1" fill="#ffedbf" fill-opacity=".5" transform="matrix(5.72718 13.3059 -22.18258 9.54792 60.9 62.4)"/><ellipse cx="97" cy="229" fill="#000019" fill-opacity=".5" rx="2" ry="17"/><path fill="#c6ced0" fill-opacity=".5" d="M110.1 239.3l-4.2-29.7 6-.9 4.2 29.7z"/><path fill="#fff2c9" fill-opacity=".5" d="M174.2 279.1L137.6 263l14.2-32 36.6 16.2z"/><path fill-opacity=".5" d="M114.3 216.3l6.4 21-1 .4-6.4-21z"/><circle r="1" fill="#639dd1" fill-opacity=".5" transform="rotate(25.1 -118 259.4) scale(3.19515 28.69425)"/><path fill="#b9b7b3" fill-opacity=".5" d="M131 201h24v28h-24z"/><path fill="#aedaf3" fill-opacity=".5" d="M26.9 136.1l3 4.7L37 146l-28.7-3.8z"/><path fill="#56704a" fill-opacity=".5" d="M159.8 229.5l17 20.9-4.7-23.6 12.9 17.8z"/><path fill="#302436" fill-opacity=".5" d="M88.1 239.7l-6.6-4.6 5.6-36.3-6.9 26.4z"/><path fill="#aabcc2" fill-opacity=".5" d="M134.3 63.3l-18.6 5.6 8.4-25.3 11.3 12.5z"/><path fill="#000015" fill-opacity=".5" d="M87.6 232.8l3.8-23.7 1 .1-3.8 23.7z"/><path fill="#96aeb9" fill-opacity=".5" d="M62.1 122.1l35-35.8-50.9 75.8 44.2 2.5z"/><path fill="#c1b39f" fill-opacity=".5" d="M-12 106l67-28-54 5z"/><path fill="#ffe0bd" fill-opacity=".5" d="M127 155l-41-6 20 17z"/><path fill="#cbcfcc" fill-opacity=".5" d="M45.7 138.7l-28.2-26.5 70.8-8.4 1.6-21z"/><path fill="#425f6e" fill-opacity=".5" d="M55.7 144.6l-32-9 15.2 10.5 21.6-8z"/><path fill="#3a361e" fill-opacity=".5" d="M89.5 67.3l6.7-2.7 4.4-4.2L-.8 106.5z"/><path fill="#b3816a" fill-opacity=".5" d="M90.6 120.2l23.3-.3-17.5 35.4 37.6-12.2z"/><path fill="#502100" fill-opacity=".5" d="M107.2 271l19.1-27.6-79-13.7L163.1 271z"/><path fill="#4b5342" fill-opacity=".5" d="M164 75h4v18h-4z"/><path fill="#c0c9cd" fill-opacity=".5" d="M100 210h5v28h-5z"/><path fill="#858f8c" fill-opacity=".5" d="M156.3 122.5L79.8 80l54.9 18.9 13.2 30.2z"/><path fill="#bfab95" fill-opacity=".5" d="M34 237h25v8H34z"/><path fill="#055b78" fill-opacity=".5" d="M17 102h22v4H17z"/><path fill="#341100" fill-opacity=".5" d="M138 153l15-8h-16z"/><path fill="#030200" fill-opacity=".5" d="M88 103h21v8H88z"/><circle r="1" fill="#b4dfff" fill-opacity=".5" transform="matrix(6.23972 -14.28215 12.3069 5.37676 110.5 35)"/><path fill="#c1c3c3" fill-opacity=".5" d="M92 197h4v41h-4z"/><path fill="#775d46" fill-opacity=".5" d="M83 123h56v17H83z"/><path fill="#857985" fill-opacity=".5" d="M22 249h57v7H22z"/><path fill="#fdfcf1" fill-opacity=".5" d="M5.9 64.4l46 15.4-27.1-.3-8.5-.8z"/><path fill="#3f4361" fill-opacity=".5" d="M76 222l4-17-6 11z"/><ellipse cx="161" cy="144" fill="#b4bbba" fill-opacity=".5" rx="8" ry="43"/><path fill="#94766b" fill-opacity=".5" d="M136.9 68.4l13.3-5.1 2.7-12-16.6-5.9z"/><path fill="#f9b864" fill-opacity=".5" d="M24.5 223.1l17.2-10.6-2.9-8.5 1.1-6.5z"/><path fill="#c0bfbe" fill-opacity=".5" d="M124 243l-15-55 17 19z"/><path fill="#886330" fill-opacity=".5" d="M125.1 157.4l28.1-7.4-.6-22-19.7 41.2z"/><path fill="#f3d4ad" fill-opacity=".5" d="M37 39h14v32H37z"/><path fill="#664e44" fill-opacity=".5" d="M124 82l-12-11-18 17z"/><path fill="#2d4c56" fill-opacity=".5" d="M26 118l6 9-1 13z"/></g></g></svg>