<svg xmlns="http://www.w3.org/2000/svg" viewBox="0 0 1200 1800"><defs/><filter id="a"><feGaussianBlur stdDeviation="12"/></filter><rect width="100%" height="100%" fill="#635f30"/><g filter="url(#a)"><g fill-opacity=".5" transform="translate(3.5 3.5) scale(7.03125)"><circle r="1" fill="#c4bacc" transform="matrix(102.1444 54.67462 -71.63428 133.82882 61.8 96.1)"/><circle r="1" fill="#88cfff" transform="matrix(-5.68552 -27.45435 165.48868 -34.27106 56.6 1.5)"/><circle r="1" fill="#655c6b" transform="matrix(-22.609 -46.56142 152.02526 -73.8195 120 220.5)"/><circle r="1" fill="#756436" transform="matrix(55.94156 3.81371 -2.0441 29.98386 68.3 110)"/><path fill="#d5c6a6" d="M71 149l-87 60 17-94z"/><ellipse cx="101" cy="171" fill="#0d5ff8" rx="11" ry="16"/><circle r="1" fill="#b39675" transform="rotate(129.3 -2.6 127.8) scale(12.15408 52.44983)"/><circle r="1" fill="#c2a786" transform="rotate(57.1 -51 56.3) scale(27.70694 73.39032)"/><path fill="#22282f" d="M64.9 200.2l-25.4-23.7-16.1-1.8 106.8 94.6z"/><circle r="1" fill="#88b2ff" transform="rotate(80 18.4 25.3) scale(27.04654 168.99998)"/><path fill="#1f293b" d="M116 178l10.4-20.5L186 188l-10.5 20.5z"/><path fill="#fbf3da" d="M110 99l-6-25 24-1z"/><circle r="1" fill="#f3e3cf" transform="matrix(24.79557 -8.22145 2.27543 6.8626 153 88)"/><path fill="#a49582" d="M118.1 182.6l76.3 44-8.5 14.8-76.3-44z"/><ellipse cx="136" cy="61" fill="#8e8046" rx="72" ry="14"/><ellipse cx="159" cy="116" fill="#f4f3e3" rx="35" ry="4"/><ellipse cx="99" cy="192" fill="#060500" rx="10" ry="7"/><path fill="#222b31" d="M54 229l-26-9 25 45z"/><circle r="1" fill="#837359" transform="matrix(-33.40477 -19.36407 12.5753 -21.69353 149 148)"/><path fill="#1f222f" d="M91 264.9l-10.5-53.7 38 46.1 2.6-20.9z"/><path fill="#4b4f1b" d="M43 124l-31 13 9-24z"/><path fill="#645c4c" d="M134.2 82.8l-79.1-2.4 42.7 110.7-9-94.2z"/><path fill="#d9d8cf" d="M-16 163.4l33.8-6.7 23.4 6.4-57.2 39z"/><path fill="#b4a47a" d="M42 111h28v66H42z"/><ellipse cx="11" cy="252" fill="#8e826b" rx="26" ry="44"/><path fill="#232c41" d="M147.6 232.9l37.4 11.6-50.2-32.4-18.5 4.5z"/><path fill="#ffc394" d="M105 200.3l5.8-1.4 10.2 40.8-5.8 1.4z"/><path fill="#ddb9b7" d="M104.9 156.2l14.7 10.4-20.2-33.9-6 27.5z"/><circle r="1" fill="#91866f" transform="matrix(-29.0339 -44.3478 8.81175 -5.76894 63.3 233.5)"/><path fill="#fcbc89" d="M99.9 234.4l-7.6-41 6.6 5.4 4.5 24z"/><path fill="#3e4139" d="M135 134l20-10-58-2z"/><ellipse cx="114" cy="102" fill="#3c3e1e" rx="11" ry="6"/><path fill="#f4f7eb" d="M113.1 73.4l-6.7-1.8-5.1 11.9 23.3.8z"/><path fill="#585232" d="M159.6 75.8l-23 .4-.2-16 23-.4z"/><ellipse cx="75" cy="142" fill="#6b6a2c" rx="7" ry="22"/><circle r="1" fill="#7c746d" transform="rotate(-128.5 133.3 92.9) scale(37.69936 17.01382)"/><path fill="#aa9980" d="M120.4 101.1l.3 42.1-96.4-66.6 106.5 63.1z"/><path fill="#f0b68a" d="M110.9 205.4l8.9-50.7-11.6-8.2 4.1 16.5z"/><path fill="#b9a276" d="M155.6 63.3l-37.3-24.6 16.1-15.8 35.1 30.8z"/><path fill="#202027" d="M95 242.8l12.9-9.6 15 20-12.8 9.6z"/><path fill="#e7d4b6" d="M115 87h51v6h-51z"/><path fill="#5c5341" d="M63 100l43-36-12 38z"/><path fill="#a89c72" d="M89.8 92.8l-17.7-3.1 6-34.5L96 58.3z"/><path fill="#2d3733" d="M155 156l19 10-34-3z"/><circle r="1" fill="#a59776" transform="rotate(179.5 16 71.6) scale(43.88677 13.71456)"/><path fill="#cdbfa7" d="M155 120h15v12h-15z"/><path fill="#f1f6f8" d="M162 70l18-8 2 18z"/><path fill="#a08d63" d="M5 89h36v27H5z"/><path fill="#bcaa96" d="M92.6 168.4l-5.2 15.1-52-17.9 5.2-15.1z"/><circle r="1" fill="#7caeff" transform="matrix(-14.178 -3.05068 .93661 -4.3529 158.1 .1)"/><path fill="#585939" d="M137.3 51.8l-36.8 16.3 25.9-1.7-9.7-18.8z"/><ellipse cx="15" cy="51" fill="#bba795" rx="33" ry="16"/><path fill="#4574cf" d="M92 155h19v29H92z"/><path fill="#383c42" d="M38 175l3 17-14-25z"/><path fill="#aa917b" d="M77.4 20.6l44.8-.7-12.9 46.6-54.6-41.2z"/><path fill="#726c3d" d="M76.2 57.7L86.7 49l-7.3 19.5-29.9 21z"/><path fill="#746943" d="M185 48.8l-60.4 30.6 2.9 10.6 13.8-8.2z"/><path fill="#907f5f" d="M141.3 8.3L185 46.4l-72.5-.3 30.5 55.1z"/><path fill="#95856f" d="M117 135h53v28h-53z"/><ellipse cx="92" cy="180" fill="#262f4a" rx="2" ry="24"/><path fill="#918676" d="M117 181l12 31 52 1z"/><path fill="#5b5444" d="M98 129.1l-5.8 16L64 135l5.8-16z"/><circle r="1" fill="#e2e1d7" transform="matrix(-2.38251 -2.26883 4.05458 -4.25773 34.3 134.1)"/><path fill="#b7a585" d="M126.5 77.7l-36.9 29.5 34 46.1L97 111.4z"/><path fill="#dce8ea" d="M60 134l-1 12-3-13z"/><path fill="#3d3627" d="M101 196h16v4h-16z"/><path fill="#dfdcd0" d="M127 123l-5-5 20-6z"/><ellipse cx="43" cy="87" fill="#c6ad93" rx="13" ry="4"/><path fill="#2d2825" d="M51 145.9l-.2 1L35 144l.2-1z"/><path fill="#2d2b2e" d="M74 96l28-6-12 11z"/><path fill="#d1d0cd" d="M165 95l-23-18h19z"/><path fill="#bbad7e" d="M131.8 46.4l48 6.3-101.1 7.7 71.2-.5z"/><path fill="#706551" d="M132.7 139.7l-13.3 9.6-18.7-8.4 84.3 27.7z"/><path fill="#999383" d="M44.7 182.9l18.1-17.1 31.4 16.4L63 200.6z"/><path fill="#9d8669" d="M151 90l-47 24 81-4z"/><path fill="#b99b7e" d="M165.5 134.3l-63.3 9.7-24.3 29.9 18.2-39.3z"/><path fill="#9c8e76" d="M10 229l14-59 33 41z"/><path fill="#393a41" d="M185 258.3v-18l-44.3-26.2 11.8 22.2z"/><path fill="#4e4e4b" d="M86.1 213.8l-19.7-7.7L88 252.2l9.5-38.3z"/><path fill="#36351b" d="M163 44.2l2.7-4.2 9.3 5.8-2.7 4.2z"/><path fill="#4b75c7" d="M88 186l19-37 7 19z"/><path fill="#212937" d="M117 118l-16 11 19-6z"/><path fill="#eebc91" d="M97 135h8v23h-8z"/><path fill="#887066" d="M160 6l-33 25-9-17z"/><path fill="#736c60" d="M171.9 105l-13 29.2-2.8-1.2 13-29.2z"/><path fill="#ccbea5" d="M.7 113l1.5 25.4 14.8.4v-14.6z"/><path fill="#716f40" d="M15.4 93.2l7-.4 2.2 42-7 .4z"/><path fill="#9fbdec" d="M6.6 41l8.1-15.4 37.1 8.6L70.4 6.8z"/><path fill="#726438" d="M152.7 114.6l4.8 3.5-8.2 11.3-4.8-3.5z"/><path fill="#fff" d="M157 80h13v3h-13z"/><path fill="#fdfff6" d="M119 86l-10-16-1 9z"/><path fill="#5e5e25" d="M62 131h5v13h-5z"/><path fill="#887b3e" d="M41.2 133.7l13.9-2.2 1.7 10.8-13.9 2.2z"/><path fill="#b4ab8c" d="M90.2 59.2l12 10.7-28.1 3.5 41.8-19.5z"/><path fill="#a5956c" d="M70.8 95.9l3.3 30.4-39.8 6.8 27.3-23.3z"/><path fill="#b9a47a" d="M21 92.4l.3 15.5 11.9 6.3 11.4 2.6z"/><path fill="#706f31" d="M94 85l20 2-3-6z"/><path fill="#e2e3dd" d="M164 112h-23l32 10z"/><path fill="#45481d" d="M88 71h9v7h-9z"/><path fill="#ead9c2" d="M106 89h60v3h-60z"/></g></g></svg>