<svg xmlns="http://www.w3.org/2000/svg" viewBox="0 0 1200 1800"><defs/><filter id="a"><feGaussianBlur stdDeviation="12"/></filter><rect width="100%" height="100%" fill="#4b4a2b"/><g filter="url(#a)"><g fill-opacity=".5" transform="translate(3.5 3.5) scale(7.03125)"><circle r="1" fill="#cbcfea" transform="matrix(-59.8961 59.8506 -118.2792 -118.36914 96.6 77.2)"/><circle r="1" fill="#edffff" transform="matrix(41.88217 -29.09474 16.42284 23.64085 80.7 19)"/><circle cx="43" cy="231" r="106" fill="#66696c"/><circle r="1" fill="#321602" transform="matrix(12.2714 4.32308 -14.50044 41.16062 116.4 65.3)"/><circle r="1" fill="#dae1e2" transform="rotate(-142 56.5 40.5) scale(29.90147 18.57602)"/><path fill="#d6feff" d="M118.7 19L78.3 51.6 29.3-9l40.4-32.8z"/><path fill="#fafaff" d="M185 254l-22 14 6-92z"/><ellipse cx="82" cy="155" fill="#d6dde1" rx="6" ry="40"/><ellipse cx="56" cy="188" fill="#2a2f2b" rx="21" ry="55"/><circle r="1" fill="#96a4ae" transform="matrix(16.725 .43938 -1.03519 39.40438 2.8 197.6)"/><path fill="#222806" d="M122 184l6 74-62-46z"/><path fill="#6a692e" d="M57 47l37 54 18-48z"/><path fill="#b4aaa0" d="M129 172h19v74h-19z"/><ellipse cy="33" fill="#735c62" rx="27" ry="86"/><circle r="1" fill="#5a676e" transform="rotate(-177.4 80.3 63.7) scale(14.41226 83.50117)"/><ellipse cx="163" cy="22" fill="#645b5e" rx="54" ry="17"/><circle r="1" fill="#737c92" transform="rotate(-62.9 245.2 67) scale(31.43331 22.06254)"/><path fill="#e4ecf1" d="M36 48l42 14-28 7z"/><circle r="1" fill="#121123" transform="rotate(-178.1 80 109.3) scale(7.38427 31.90869)"/><path fill="#5b5564" d="M53.9 63.8l1.3-40.5 19.7 37.9-12.6-5.8z"/><circle r="1" fill="#ccc3b6" transform="matrix(-6.1723 -.60596 5.10559 -52.00543 136.4 101)"/><path fill="#6c6c67" d="M-16 203L43 61l14 110z"/><circle r="1" fill="#c8b2a2" transform="matrix(-13.8958 25.0483 -6.25003 -3.46727 141.1 4.2)"/><path fill="#2e3308" d="M101 149.8l6.3 3.1L91 186.2l-6.3-3.1z"/><ellipse cx="41" cy="248" fill="#bfbea5" rx="15" ry="5"/><path fill="#a5a7b4" d="M107.1 177.3l-4.7 20.4-1.2 2.3L80 188.8z"/><path fill="#383a29" d="M20 180h54v63H20z"/><path fill="#1e1317" d="M-5-16l-11 38 32-4z"/><circle cx="152" cy="15" r="10" fill="#1f1c20"/><path fill="#c7c8ca" d="M143.3 173.6l30.3 7.7 4.3 16.8-35.5-16z"/><circle r="1" fill="#bce1ff" transform="matrix(-57.9656 12.85066 -2.95045 -13.30861 102.2 0)"/><circle r="1" fill="#92898b" transform="matrix(24.2408 -1.7376 2.28487 31.87563 14 85)"/><path fill="#251916" d="M19 24l10 15-6 22z"/><path fill="#b3c1c4" d="M13 168h5v68h-5z"/><circle r="1" fill="#151c00" transform="matrix(-8.69983 -15.09786 8.82966 -5.08791 9.7 255)"/><path fill="#e3e5e1" d="M74 111h9v37h-9z"/><ellipse cx="69" cy="124" fill="#3d3f24" rx="3" ry="12"/><path fill="#fdfdf9" d="M100.7 100.2l-22.2.9-13-13.3 29.6 31.8z"/><path fill="#1e180e" d="M162.8 164.4l-17 1.2-.6-8 17-1.2z"/><path fill="#8f8b88" d="M15 137h22v32H15z"/><path fill="#70818f" d="M157 138l28-154-41 57z"/><circle r="1" fill="#dff0ff" transform="rotate(-144.9 46.3 2) scale(15.02166 22.96294)"/><path fill="#332332" d="M116 14h6v29h-6z"/><ellipse cx="20" cy="86" fill="#b5d8f3" rx="2" ry="34"/><path fill="#656d59" d="M15.4 6.8L40.3.4l4 18 14.5 12.9z"/><path fill="#383b38" d="M65.4 159.6l-34.1-37.5 35.2 52.1-61.6-24.1z"/><circle r="1" fill="#28343c" transform="matrix(-5.00612 10.78477 -8.94238 -4.15092 0 188)"/><path fill="#8b9970" d="M24 212l23 5-24 8z"/><path fill="#585c32" d="M133 64L74 86l-8-16z"/><path fill="#454917" d="M96 231h37v25H96z"/><path fill="#9a8975" d="M130 228l-4-151-24 59z"/><ellipse cx="141" cy="36" fill="#ddcbb0" rx="2" ry="81"/><path fill="#a5a8b0" d="M164 191h6v60h-6z"/><path fill="#2d1d13" d="M25 140l-6-12 22-2z"/><ellipse cx="13" cy="100" fill="#634f57" rx="6" ry="31"/><path fill="#414948" d="M39.8 57.2l-1.7 10.5 22.5 21.9.2 2.7z"/><path fill="#d4fcff" d="M108 24h6v12h-6z"/><path fill="#b3b5b0" d="M144.5 166.7l-1 46.7 1.2 41.2 3.1-23.5z"/><path fill="#786f62" d="M67 115h7v98h-7z"/><path fill="#2e172c" d="M77.7 231.1l-17.3 28.6 27.3-68.5 10.1 20.9z"/><path fill="#5f5044" d="M98.7 34.6l-5.3 3.3 36.3 32.3-12.5 46z"/><ellipse cy="73" fill="#a1cfee" rx="1" ry="43"/><path fill="#565958" d="M161.5 106.9L185 93.2l-49.5 50.4 5.6-27.2z"/><ellipse cx="42" cy="114" fill="#bbcfcf" rx="2" ry="19"/><path fill="#594945" d="M134 54l6-23-32-16z"/><path fill="#273016" d="M124 228l-5-52-13 54z"/><ellipse cx="54" cy="81" fill="#bcd0e2" rx="2" ry="45"/><path fill="#162011" d="M31 178.1L52.1 208l-21.7 3.2-1.2-16.4z"/><path fill="#d9bd9f" d="M146 27l-16-1-10-21z"/><path fill="#81898b" d="M50.1 118.5l40.6 60.9-26-62.1 30.8-33.8z"/><path fill="#818587" d="M95.9 265.9l-47.6-12.5 28-5.7 18.3-27.6z"/><path fill="#c9e4ff" d="M66 41L38-16h116z"/><ellipse cx="36" cy="70" fill="#dae1d9" rx="1" ry="49"/><path fill="#b5bdc5" d="M91.6 130.9l10.8-27.8-6.4 40.2-34.2-35.9z"/><circle r="1" fill="#aba69e" transform="rotate(-87.9 119.6 -12.1) scale(44.33585 4.40716)"/><path fill="#d9dce0" d="M37 24h15v33H37z"/><path fill="#6c6070" d="M54.4 18.7l-2 11.2 14.8 22.8L59 27z"/><path fill="#332f2b" d="M148 186l16 9-3 53z"/><path fill="#31252e" d="M34.5 48.3l-2 3.7-40-68 19.1 30.1z"/><path fill="#2a382a" d="M97 137h6v30h-6z"/><path fill="#35353b" d="M140.7 23.9l-.5-16.3 11.9 25.2 24.3-46.2z"/><circle r="1" fill="#a89792" transform="matrix(-16.29088 -13.00484 1.59646 -1.99985 36.5 32.8)"/><ellipse cx="60" cy="239" fill="#898a92" rx="4" ry="7"/><path fill="#68604d" d="M113 199l6-26-28 26z"/><ellipse cx="25" cy="83" fill="#b9baac" rx="2" ry="37"/><path fill="#141f20" d="M39 122h2v45h-2z"/><path fill="#243967" d="M55 118h4v49h-4z"/><path fill="#ced2c6" d="M91 45l7 4 13-15z"/><path fill="#68805c" d="M43 83h9v50h-9z"/><path fill="#7c7b51" d="M66.5 68.2l46.1-27.3-9.6 49.5-26.9-.3z"/><path fill="#616751" d="M65.3 61.5l-3.5 23.4-7.8-15 58.2 19.3z"/><path fill="#8d9592" d="M36 170h25v4H36z"/><ellipse cx="18" cy="192" fill="#545546" rx="2" ry="45"/><path fill="#8d96a1" d="M37 170l-4-13-28 12z"/><path fill="#27281a" d="M56.5 234.3L32 236.2l15.8-20.8 8.7 45.8z"/><path fill="#d9c4ab" d="M159 147l-9 5 14 1z"/><circle r="1" fill="#c4c5bb" transform="rotate(68.5 -20.6 82.9) scale(16.57598 2.11764)"/><path fill="#b3bfb0" d="M4 87h5v25H4z"/><circle r="1" fill="#a40019" transform="matrix(2.92407 6.29937 -2.1221 .98505 87.1 199.7)"/><path fill="#838c88" d="M167.1 197.4l-2 5.6-12.2-4.4 2-5.6z"/></g></g></svg>