<svg xmlns="http://www.w3.org/2000/svg" viewBox="0 0 1800 1800"><defs/><filter id="a"><feGaussianBlur stdDeviation="12"/></filter><rect width="100%" height="100%" fill="#673d38"/><g filter="url(#a)"><g fill-opacity=".5" transform="translate(3.5 3.5) scale(7.03125)"><circle r="1" fill="#cffef0" transform="rotate(20.2 -140.8 619.6) scale(255 159.29757)"/><circle r="1" fill="#410100" transform="matrix(-43.78563 13.53145 -16.2929 -52.72123 57 76)"/><circle r="1" fill="#b6f2ff" transform="matrix(48.10682 10.12478 -16.95539 80.56173 181.7 138.4)"/><circle r="1" fill="#8e4751" transform="matrix(64.526 36.01004 -12.34971 22.12931 63 184.6)"/><ellipse cx="29" cy="13" fill="#fde7c9" rx="230" ry="13"/><circle r="1" fill="#457868" transform="rotate(-5.7 1543.7 -1930.6) scale(45.57591 15.30907)"/><circle r="1" fill="#ff9cac" transform="rotate(163.3 -.9 69) scale(44.32796 21.38748)"/><circle r="1" fill="#a0f0ff" transform="matrix(-38.89263 6.47807 -3.4917 -20.96331 109.9 138)"/><path fill="#2b1c02" d="M40 19l-56 135L81 43z"/><ellipse cx="169" cy="249" fill="#708e80" rx="76" ry="39"/><ellipse cx="190" cy="81" fill="#fbf9ff" rx="36" ry="21"/><circle r="1" fill="#022d38" transform="rotate(62.7 -192.3 136.7) scale(19.72967 68.39159)"/><ellipse cx="234" cy="183" fill="#4fbbbb" rx="25" ry="44"/><path fill="#bc665e" d="M96 60L41 227l6-151z"/><ellipse cx="97" cy="188" fill="#1d574d" rx="26" ry="13"/><ellipse cx="208" cy="32" fill="#dac6a7" rx="129" ry="21"/><path fill="#725834" d="M89 58h57v23H89z"/><circle r="1" fill="#bdfefc" transform="matrix(-8.0996 -17.22033 31.33476 -14.73833 160.4 176.6)"/><path fill="#b9ffff" d="M258.5 175.6l-13.8 10-21.2-29.2 13.8-10z"/><path fill="#20070e" d="M69.1 127.9l1.6 56.4-6.2-11.8-4.7-27.5z"/><path fill="#417459" d="M250.2 231.6l-28.8-3.5 4.4-35.7 28.8 3.5z"/><circle r="1" fill="#b3646d" transform="matrix(5.68429 13.13561 -37.26938 16.1279 38.2 200.3)"/><path fill="#17240a" d="M159 146h42v8h-42z"/><circle r="1" transform="matrix(-5.63015 4.24262 -9.72676 -12.90784 41.6 99.3)"/><ellipse cx="19" cy="5" fill="#fff9e1" rx="15" ry="32"/><path fill="#041407" d="M0 161h20v40H0z"/><ellipse cx="190" cy="114" fill="#d0cfda" rx="35" ry="27"/><circle r="1" fill="#a8dfdb" transform="rotate(-97.9 189.2 6.9) scale(39.65999 12.9595)"/><ellipse cx="53" cy="44" fill="#42392a" rx="32" ry="24"/><path fill="#7fb9bf" d="M129 156.3l-49.4 28.5L65 159.7l49.3-28.5z"/><path fill="#ffbac2" d="M3.3 131.5l24.3-25.2 23 22.2-24.2 25.2z"/><path fill="#320700" d="M191.9.7l.3-6 87.9 4.6-.3 6z"/><ellipse cx="249" cy="77" fill="#75633d" rx="24" ry="13"/><path fill="#c18a89" d="M119 238l-34 33-73-12z"/><path fill="#6c7558" d="M271 154l-59-19 21-26z"/><path fill="#bb5967" d="M27 143h35v51H27z"/><circle r="1" fill="#5b8169" transform="matrix(5.01994 -49.07293 11.91957 1.21932 175.4 241.5)"/><path fill="#706d59" d="M145.3 102.9L47.6 86.4l77.6 25.9 10 25.2z"/><path fill="#2f8082" d="M114 153l27 12-50 23z"/><path fill="#d3a782" d="M54.3 93.3l-11.2-9.5 48.5-20-1.5 14.6z"/><circle r="1" fill="#d0f6ff" transform="matrix(27.4764 -18.46338 4.00368 5.95811 99.5 131.2)"/><path fill="#81c7be" d="M217 189l-95 31-2-26z"/><ellipse cx="6" cy="82" fill="#a88264" rx="7" ry="59"/><path fill="#452c1e" d="M114 200l6-.6 8 76.6-6 .6z"/><path fill="#bc6e73" d="M69 221v38l20-17z"/><path fill="#f0f4fa" d="M149.8 211.4l-5.7-16-24.8 2.7 37.6-32.9z"/><path fill="#547868" d="M236.9 179l-32-17.5 41.3 65.5-29.5 14.2z"/><path fill="#9a866d" d="M264 13L145 3l41-19z"/><path fill="#572929" d="M59 139l18 45-12 15z"/><path fill="#238f85" d="M185.2 153.1l31.6-19.9 8.3 2.8-25.6 27.5z"/><path fill="#cf8288" d="M70 188l-52 1v-14z"/><path fill="#51a4a5" d="M106 103l11 12-41 8z"/><path fill="#8bb4ae" d="M158.7 271l-35.8-46.4-2.4-76.3 20.5 63.5z"/><path fill="#3d8784" d="M159.8 145.1l13.4 8.7-31.4-16.3 8.4 23.6z"/><path fill="#130000" d="M82 227l7 13 23-14z"/><ellipse cx="31" cy="7" fill="#f3e8d5" rx="29" ry="15"/><path fill="#a08e72" d="M97 65L81 28l88 41z"/><path fill="#786952" d="M17.4 37.8l42-16.7L47.9 37l-53 47.7z"/><path fill="#f4c4d3" d="M1 156l11 5 20-17z"/><path fill="#d1dce1" d="M91 179l-6-17 29-3z"/><circle r="1" fill="#aea590" transform="matrix(6.24919 11.41437 -99.60187 54.53043 217.8 255)"/><path fill="#2e1b07" d="M20 99l14-32 28 51z"/><path fill="#d9f4fd" d="M217 198l-9 12-19-47z"/><path fill="#4d3016" d="M16 52h8v69h-8z"/><circle r="1" fill="#d7c7b3" transform="matrix(24.44976 2.36009 -1.15493 11.96467 241.4 100.5)"/><path fill="#290000" d="M3.4 147.8l3.6-3.5 7.6 8-3.6 3.4z"/><path fill="#4c6854" d="M147.3 232l55.6 6.7-26-24.7-9 57z"/><path fill="#19726b" d="M75 155h9v16h-9z"/><path fill="#402b2b" d="M56 196l-41-10-22 15z"/><path fill="#aa4d4b" d="M63 183l60 64-12-39z"/><path fill="#2a393f" d="M59 208l7 42-76-24z"/><path fill="#d3dff0" d="M148 83h81v24h-81z"/><path fill="#538586" d="M115 154l-21-18 23 2z"/><path fill="#c9b395" d="M154 86l-54 10-1-17z"/><path fill="#52291c" d="M72.1 89.6l-7.5-14.4L62 98.4l20.8-11.1z"/><path fill="#783b3b" d="M26 149l15-3-25 33z"/><path fill="#362524" d="M72.5 123.1l-13.1 27.7 20.3 49.3L67 159.3z"/><path fill="#4d2a15" d="M79 109l18-35 3 38z"/><path fill="#aaeafa" d="M230.1 152.4l-22.3 15-4-5.8 22.4-15z"/><path fill="#c2b093" d="M24.4 28.2L15.3 59-.6-16-16 49.7z"/><path fill="#241812" d="M84 49L58 34 31 76z"/><path fill="#cba187" d="M92.6 82.5l-5.3-23.2-16.7 19.9-6-20.6z"/><path fill="#dc737b" d="M7.9 216.4l.2-15 16 .2-.2 15z"/><path fill="#ffa4bb" d="M3 132h60v10H3z"/><path fill="#331716" d="M56 229l34-12-19-14z"/><path fill="#ce8388" d="M70.8 205.3L54 207.7 68.5 195l3.5-1z"/><path fill="#92b8af" d="M213 227l-46-51-15 23z"/><circle r="1" fill="#99afad" transform="rotate(-150.4 96 44) scale(34.34766 8.62321)"/><path fill="#94919c" d="M101 235h23v12h-23z"/><ellipse cx="41" cy="207" fill="#ec98a0" rx="10" ry="4"/><path fill="#b0e4f1" d="M101.7 107.1l3.6 11.2 16.6 31 55.7 38.3z"/><path fill="#653036" d="M74.5 249.1l1.8-5.7 35.2 11.5-1.8 5.7z"/><path fill="#b9f9ff" d="M249 164.2l-13.4-12.6-4.1 6.6 15.4 29.4z"/><path fill="#955856" d="M84.7 127.6L63.3 137l-16.7-7.1 34.3-46.6z"/><path fill="#7f6b4f" d="M206.7 256.7l5.8-17.3-1.8-2.2 46.6-25z"/><path fill="#f3bbc9" d="M42 190h17v4H42z"/><ellipse cx="236" cy="46" fill="#b8a98e" rx="126" ry="14"/><path fill="#171219" d="M119.5 264.8l-16.4 6.2 17.4-21.8 13.1-11.3z"/><ellipse cx="179" cy="23" fill="#cac2ae" rx="108" ry="15"/><path fill="#8b9d8a" d="M182 227l-15 35 68-60z"/></g></g></svg>