<svg xmlns="http://www.w3.org/2000/svg" viewBox="0 0 1800 1012"><defs/><filter id="prefix__a"><feGaussianBlur stdDeviation="12"/></filter><rect width="100%" height="100%" fill="#304861"/><g filter="url(#prefix__a)"><g transform="translate(3.5 3.5) scale(7.03125)"><ellipse cx="76" cy="34" fill="#cedaf6" fill-opacity=".5" rx="255" ry="52"/><ellipse cx="232" cy="82" fill="#a3b7d5" fill-opacity=".5" rx="42" ry="12"/><circle r="1" fill="#262a2d" fill-opacity=".5" transform="matrix(7.73732 26.28916 -35.58898 10.4744 154.2 99.8)"/><path fill="#99a2b5" fill-opacity=".5" d="M61 85l-77 15L16-16z"/><circle cx="75" cy="142" r="63" fill="#2a3640" fill-opacity=".5"/><path fill="#241e17" fill-opacity=".5" d="M113.4 92l1.6-11.2 68.1 20.2-19.6-31.5z"/><path fill="#919db3" fill-opacity=".5" d="M90 90L3-1l132 80z"/><circle r="1" fill="#21384b" fill-opacity=".5" transform="matrix(1.8272 30.57157 -123.60939 7.38785 183 125.3)"/><circle r="1" fill="#718cab" fill-opacity=".5" transform="rotate(-174.4 111.4 23.3) scale(62.22866 33.38939)"/><ellipse cx="21" cy="77" fill="#808ea6" fill-opacity=".5" rx="40" ry="18"/><ellipse cx="71" fill="#92a1bb" fill-opacity=".5" rx="170" ry="22"/><path fill="#534435" fill-opacity=".5" d="M43 90h168v6H43z"/><path fill="#313b45" fill-opacity=".5" d="M69.4 74.1l24.9 19.3-97.8 3.7-10.8 60.9z"/><ellipse cx="119" cy="111" fill="#2b4257" fill-opacity=".5" rx="255" ry="17"/><path fill="#13181f" fill-opacity=".5" d="M156 70h14v24h-14z"/><ellipse cx="116" cy="138" fill="#152837" fill-opacity=".5" rx="62" ry="6"/><path fill="#7e8fa8" fill-opacity=".5" d="M162 40l109 40h-99z"/><path fill="#3f526a" fill-opacity=".5" d="M13.6 122.9l85.3-5.6-48 8.6-59.4 24.8z"/><path fill="#adb0bb" fill-opacity=".5" d="M39 32l16 12-62 25z"/><circle cx="98" cy="73" r="17" fill="#8392a9" fill-opacity=".5"/><path fill="#2d271e" fill-opacity=".5" d="M33 90h47v4H33z"/><circle r="1" fill="#778ead" fill-opacity=".5" transform="matrix(-13.46621 -26.20636 44.03597 -22.62801 149 44)"/><path fill="#8090a8" fill-opacity=".5" d="M26.4 96.7l42.3-17 15.2-51.9-98.2 64.4z"/><path fill="#6d88aa" fill-opacity=".5" d="M241 23h15v72h-15z"/><path fill="#484035" fill-opacity=".5" d="M165.6 68.9l-24.3 10-41.5 11.3 37.5 1.7z"/><path fill="#c0c0c7" fill-opacity=".5" d="M15 31L-6 54l-4-30z"/><ellipse cx="26" cy="110" fill="#14252f" fill-opacity=".5" rx="24" ry="3"/><path fill="#464344" fill-opacity=".5" d="M21.1 99.5l46.5-17.2 25.5 11-53.2-4.5z"/><path fill="#949fb1" fill-opacity=".5" d="M62 80l55-30-66 5z"/><ellipse cx="136" cy="110" fill="#475970" fill-opacity=".5" rx="19" ry="3"/><path fill="#1e3446" fill-opacity=".5" d="M191 99h65v14h-65z"/><circle r="1" fill="#463f38" fill-opacity=".5" transform="rotate(-164.9 96.6 30.7) scale(16.34222 3.80202)"/><path fill="#1a2e3e" fill-opacity=".5" d="M-.5 151.9l-1.1-8 84.1-11.8 1.1 8z"/><ellipse cx="111" cy="94" fill="#605954" fill-opacity=".5" rx="50" ry="2"/><ellipse cx="56" cy="24" fill="#7790b1" fill-opacity=".5" rx="250" ry="6"/><path fill="#3e5672" fill-opacity=".5" d="M136 141h77v2h-77z"/><path fill="#1d2229" fill-opacity=".5" d="M166.1 73l-22.7 11.5 9.3 4.6 30.6 6.7z"/><path fill="#313443" fill-opacity=".5" d="M77 79l-20 7 12-10z"/><path fill="#808ea5" fill-opacity=".5" d="M98.4 89.4L63.1 73.6l127.4-21.2-54.8 28.3z"/><path fill="#5b6572" fill-opacity=".5" d="M0 95h119v1H0z"/><path fill="#152835" fill-opacity=".5" d="M159 141l-50-11 29-5z"/><circle r="1" fill="#3b4d64" fill-opacity=".5" transform="rotate(93.2 -45.2 66) scale(3.15371 30.77903)"/><ellipse cx="230" cy="80" fill="#7589a5" fill-opacity=".5" rx="42" ry="12"/><ellipse cx="213" cy="35" fill="#6f8bad" fill-opacity=".5" rx="82" ry="13"/><path fill="#3a526b" fill-opacity=".5" d="M204 123h36l-27 11z"/><path fill="#8594ab" fill-opacity=".5" d="M271 55.4l-104.9 7.2 4.5 5 1.2 13.8z"/><circle cx="33" cy="137" r="4" fill="#091c27" fill-opacity=".5"/><path fill="#7d8da7" fill-opacity=".5" d="M78 71L51 88 8 85z"/><path fill="#1d3142" fill-opacity=".5" d="M173.3 130.2l11.4 15.6-9.6-29.5 21.2-.8z"/><path fill="#3b3834" fill-opacity=".5" d="M133.4 94l36.5-20.9-26.9 4.1-37.5 16.7z"/><path fill="#41444c" fill-opacity=".5" d="M43.3 92.6l33-14.2 11.6 8.1-16 2.1z"/><path fill="#374b63" fill-opacity=".5" d="M26.6 143.7l22.1-6.9L32.1 110l30.2 28.5z"/><path fill="#12232e" fill-opacity=".5" d="M83 113.3l-21.7 3.4-.3-2 21.7-3.4z"/><path fill="#748aa8" fill-opacity=".5" d="M218 49h7v46h-7z"/><path fill="#3e3331" fill-opacity=".5" d="M230 93h7v2h-7z"/><path fill="#364b60" fill-opacity=".5" d="M50 95h157v4H50z"/><path fill="#4f6079" fill-opacity=".5" d="M10.7 141.7l-26.7-.8 41.7-6.5-3.9 2.4z"/><path fill="#1d232a" fill-opacity=".5" d="M160 72h11v22h-11z"/><path fill="#3a4f67" fill-opacity=".5" d="M140.3 114.1l-42.2 20.7-.4-1 42.2-20.6z"/><circle r="1" fill="#25394b" fill-opacity=".5" transform="matrix(-4.67987 -3.12108 15.6413 -23.45314 88.4 129.6)"/><path fill="#8194b1" fill-opacity=".5" d="M112 56L-16 16H99z"/><path fill="#2f475e" fill-opacity=".5" d="M109 138h42v2h-42z"/><path fill="#516581" fill-opacity=".5" d="M31.4 128l.2 3-19 1-.2-3z"/><path fill="#8e9fb7" fill-opacity=".5" d="M260.7 14.1L93.7-16l18.7 25 104.4 8.3z"/><path fill="#7e8da6" fill-opacity=".5" d="M0 70h29v25H0z"/><circle r="1" fill="#7a8aa3" fill-opacity=".5" transform="matrix(1.11946 -2.57457 24.16191 10.5059 189.5 79.7)"/><path fill="#9ea6b7" fill-opacity=".5" d="M109.2 61.2L98.8 50.4l-18.6 3.7 3.5 2.2z"/><path fill="#3b4757" fill-opacity=".5" d="M28.8 99l14.5-12.3 2 2.3-14.6 12.3z"/><path fill="#6e85a3" fill-opacity=".5" d="M221.7 90.9l30.6 4.7 13.8-1.9L242.8 63z"/><path fill="#7f90ad" fill-opacity=".5" d="M1.2 53.6l31.4-12L16.9 16l.6 21.9z"/><path fill="#0b1d27" fill-opacity=".5" d="M60 131h19v2H60z"/><path fill="#292826" fill-opacity=".5" d="M42 92h36v3H42z"/><path fill="#192b3a" fill-opacity=".5" d="M95 109h39v2H95z"/><path fill="#1e3344" fill-opacity=".5" d="M222 128h13v14h-13z"/><path fill="#10222c" fill-opacity=".5" d="M94 133l-15 8 32-5z"/><path fill="#98a4b7" fill-opacity=".5" d="M230 49l5 5 8-8z"/><ellipse cx="158" cy="137" fill="#172937" fill-opacity=".5" rx="28" ry="3"/><ellipse cx="140" cy="110" fill="#5b677a" fill-opacity=".5" rx="7" ry="2"/><path fill="#12232a" fill-opacity=".5" d="M0 119h22v2H0z"/><path fill="#071920" fill-opacity=".5" d="M65.7 139.1L36.5 146l-.2-1 29.2-6.8z"/><path fill="#b2b6c2" fill-opacity=".5" d="M38 42h18v6H38z"/><circle r="1" fill="#9ba2b2" fill-opacity=".5" transform="rotate(27.3 -116.7 55) scale(6.8393 10.34436)"/><path fill="#8392aa" fill-opacity=".5" d="M82 59h71v17H82z"/><path fill="#7e8fa8" fill-opacity=".5" d="M87 77h26v11H87z"/><circle r="1" fill="#7993b4" fill-opacity=".5" transform="matrix(-73.14098 -44.90571 9.44864 -15.38964 250.7 0)"/><path fill="#30455b" fill-opacity=".5" d="M62 112L5 96l106-1z"/><path fill="#495e79" fill-opacity=".5" d="M119.3 122.4l-14.4 4.1-.2-1 14.4-4z"/><path fill="#2a4359" fill-opacity=".5" d="M146 104l50-9 29 17z"/><path fill="#3b516a" fill-opacity=".5" d="M124.7 133.7l-.1-1 30.7-4.4.1 1z"/><path fill="#7a8fad" fill-opacity=".5" d="M58.3 39.8l90-.9-67.2 14L63 65z"/><path fill="#344c65" fill-opacity=".5" d="M133.3 158l91.9-27.7 1.2-2.1-5 10.4z"/><path fill="#13252f" fill-opacity=".5" d="M41 104l4 9-18-4z"/><path fill="#384d66" fill-opacity=".5" d="M66 128h46v2H66z"/><path fill="#806b59" fill-opacity=".5" d="M141 92h11v2h-11z"/><path fill="none" stroke="#333f49" stroke-opacity=".5" stroke-width=".5" d="M271 126.2Q233.6 91 178 86.8"/><path fill="#2f455c" fill-opacity=".5" d="M56.2 134l51.9 15-.3 1L56 135z"/><path fill="#8094b2" fill-opacity=".5" d="M113.7 22l-12.1 1.7 23.6-14.8L271 16.8z"/><path fill="#a3a9b4" fill-opacity=".5" d="M60 70h24l-5-7z"/><path fill="#07151a" fill-opacity=".5" d="M0 142h17v1H0z"/><ellipse cx="49" cy="95" fill="#5b616b" fill-opacity=".5" rx="62" ry="1"/></g></g></svg>