<svg xmlns="http://www.w3.org/2000/svg" viewBox="0 0 1800 1200"><defs/><filter id="a"><feGaussianBlur stdDeviation="12"/></filter><rect width="100%" height="100%" fill="#523b34"/><g filter="url(#a)"><g fill-opacity=".5" transform="translate(3.5 3.5) scale(7.03125)"><circle r="1" fill="#e3fdfc" transform="matrix(138.61303 -8.7208 2.43375 38.6833 181.2 6.9)"/><circle r="1" fill="#fff" transform="matrix(23.85645 63.46906 -21.51888 8.08841 34 119.3)"/><circle r="1" fill="#90d3de" transform="matrix(13.02793 16.08227 -45.50726 36.86452 127 128.2)"/><path fill="#e5eee2" d="M84.7 8.6L69.2 40.9 4.3 65.7l45.9-52.2z"/><circle r="1" fill="#cc8236" transform="matrix(26.90406 6.7664 -19.20705 76.36959 242.6 138)"/><path fill="#f1fcff" d="M7.1 56.8l56.7 61.4-57 17.9-1-48.7z"/><ellipse cx="54" cy="75" fill="#0f0c04" rx="30" ry="22"/><path fill="#270300" d="M18 122h14v33H18z"/><path fill="#c9dced" d="M93.3 90.3l-60.5 23.5-4.3 71.2 48.8-82.4z"/><circle r="1" fill="#0b0000" transform="matrix(-17.11758 -19.14497 49.45556 -44.21838 25.2 1.9)"/><path fill="#000600" d="M101 95h40v21h-40z"/><circle r="1" fill="#b5acae" transform="matrix(11.01164 -1.4096 5.36486 41.9099 153.5 102.6)"/><circle r="1" fill="#412918" transform="matrix(9.26688 -39.20224 18.23479 4.31046 84.7 57.2)"/><path fill="#c5d3da" d="M271 44L173 7l-68 34z"/><path fill="#6ecad6" d="M76.9 127.3l29.7-5.8 28.7 36.3-46.7 7z"/><circle r="1" fill="#00302a" transform="matrix(-13.0263 -3.76012 14.14531 -49.00396 211.3 93.5)"/><path fill="#29190b" d="M132 134h64v25h-64z"/><path fill="#fff" d="M7 58h17v68H7z"/><path fill="#5e4f44" d="M57 120h27v50H57z"/><path fill="#522b0b" d="M168 43h29v91h-29z"/><path fill="#c98b75" d="M162.2 138.3l-35.9 1.6-8-21.6 13.1-1.7z"/><path fill="#472d15" d="M121 44h92v17h-92z"/><path fill="#263f37" d="M101.6 128.4l-20.9-5 65.9-49.5-9 37.8z"/><ellipse cx="84" cy="66" fill="#0f0300" rx="12" ry="22"/><path fill="#aaa89b" d="M41 24l56 21H30z"/><path fill="#94949d" d="M68 153l-31-50 24-2z"/><path fill="#2a9495" d="M9 163l13 22 9-32z"/><ellipse cx="1" cy="91" fill="#453142" rx="5" ry="36"/><path fill="#cbdbec" d="M61 147l-35 28 14-58z"/><path fill="#694a2d" d="M31.5 125.2l-1.7 35.5-28.7-15.5 29.6-32.3z"/><ellipse cx="125" fill="#707065" rx="39" ry="11"/><path fill="#7a7977" d="M279.3 12.2l-23.8 28.3-62.8-52.7 23.8-28.3z"/><circle r="1" fill="#706459" transform="matrix(.9986 -8.08131 29.97366 3.70384 198.2 163)"/><path fill="#7e7163" d="M98.2 107.7l-48.3 20.6 25.9-29.5 20.3-20.2z"/><path fill="#7a4417" d="M238.1 47l32 8.6-12.2 45.4-32-8.6z"/><circle r="1" fill="#604733" transform="matrix(-3.5337 -3.26589 33.20676 -35.92986 35.4 16.5)"/><ellipse cx="144" cy="162" fill="#22150d" rx="13" ry="28"/><path fill="#7e7a7f" d="M147 131l13 27 1-55z"/><circle r="1" fill="#0b0200" transform="rotate(-52 18 8.3) scale(54.66891 20.02074)"/><circle r="1" fill="#f7fcfd" transform="matrix(8.61464 27.48935 -3.86132 1.21007 31.3 106.4)"/><path fill="#9c9894" d="M21.9 95.4l-9.4 7.6 8.8 3.9 9-3.6z"/><path fill="#4e3b30" d="M70.7 144.5l14.2 11.1-29.6 37.9-14.2-11.1z"/><path fill="#121312" d="M48 101l15-45-31 14z"/><circle r="1" fill="#9ca09f" transform="matrix(4.49983 -14.8107 28.14377 8.55073 229.7 27.5)"/><path fill="#65402c" d="M93 27h11v48H93z"/><path fill="#aeafa7" d="M81.4-2.7l6.8 48 4.8.2-4.1-31.8z"/><path fill="#412b1a" d="M100.1 60.4l46.5 20.1-10.9 36.5-33.8-23.3z"/><path fill="#4d5163" d="M-16 84V45l29 10z"/><circle r="1" fill="#ab7640" transform="matrix(1.1792 25.78087 -18.18112 .8316 242.6 128.5)"/><path fill="#d4b69c" d="M155 89l-17-23 11-4z"/><path fill="#221609" d="M216 86.8l-7.3 58.5-44.3 7.1 7.6 2.4z"/><path fill="#7cbcc9" d="M83 139h48v21H83z"/><path fill="#dce4ec" d="M31.7 139.1l-.4-17.1 29.7 2.7-27.6 34.2z"/><path fill="#9e9f9f" d="M24 81.4l-2.5-43.3 11.7 47.4 33.9 56.1z"/><path fill="#6b452e" d="M90.2 33.9L57.4 65.1l22.9-43.7 6.7 5.7z"/><path fill="#73a0d0" d="M143 85h22v15h-22z"/><path fill="#c2cbd0" d="M178.6 16.8l-64.5 24.1 121.6 3.9-77.3-1.2z"/><path fill="#56311a" d="M151.7 67.9l61-17.1-25 69.3-14.1-13.2z"/><path fill="#155b5c" d="M220 54l18-6-19 52z"/><path fill="#8c8f9e" d="M31 178l45-40-37 16z"/><path fill="#461e00" d="M10 155.3L7.7 185-16 131l21.1-11.2z"/><path fill="#1f1b11" d="M90 164h91v4H90z"/><path fill="#9c875f" d="M102 143l-16-14v19z"/><path fill="#bbbcb4" d="M81-16l-8 56-34-15z"/><path fill="#327e86" d="M105.4 115.8l16.4 13.2-4 7.2-37.5-10.7z"/><path fill="#653716" d="M229 92l-16 67-10-23z"/><path fill="#9ea39e" d="M26 124v-10L9 129z"/><path fill="#90938c" d="M175.2-16l26 6.4 13.3 17.4-62.6 18.9z"/><path fill="#563f2e" d="M141.3 66.4l6.1 19.6-25.2 19.1 7.7-61.1z"/><path fill="#d8d0be" d="M20.4 54.8L19.1 48l24.5-4.7 1.3 6.9z"/><path fill="#a47f67" d="M97 48h3v31h-3z"/><path fill="#1e0400" d="M46 45h17l-6 6z"/><path fill="#e4cabb" d="M126 136l-4-6 20-4z"/><path fill="#704f3f" d="M73.5 37.3l-10.9 9.8 12.6 36-15.8 25z"/><circle r="1" fill="#205453" transform="matrix(-8.86802 20.34228 -4.87341 -2.12452 200.6 94.6)"/><path fill="#b29474" d="M200 152l16 19-8-19z"/><path fill="#39413c" d="M22 137h10v23H22z"/><path fill="#bababf" d="M70.3 109.5l-15.3 11-11.8-16.7-16-17.5z"/><path fill="#4f1d0d" d="M142 120.5l1 1.7-13 7.3-1-1.7z"/><path fill="#cfc2a7" d="M149 121l-9-19 17-4z"/><path fill="#bbc6c7" d="M102 44l39-2-17-23z"/><path fill="#1b0600" d="M135.4 100.7l7.9 11.2-6.5 4.7-4.6-13.2z"/><path fill="#472a1c" d="M93.8 20.4l-3.2 3.7 5 20.6 10.5-8.1z"/><path fill="#82cbe0" d="M96 142l-14 23 30-8z"/><path fill="#5d554e" d="M23.3 68l9-17.4 8 44.1 27.9 17.5z"/><path fill="#59493f" d="M90.8 125.9l-52.2 9.8 27.9-3.1-4.1 11.2z"/><path fill="#f3f4f7" d="M4.5 65l17.6-5.1 1.1 36.9L7.7 100z"/><path fill="#aeb9b4" d="M84.1 21.8l12.1-4.3 24.7 24.7L73.5 3z"/><ellipse cx="218" cy="46" fill="#5c2a16" rx="106" ry="2"/><path fill="#c49d8a" d="M116.9 122.7l26.5-9.4 11.3-.2-36.6 16.8z"/><path fill="#453645" d="M5 61L4 98l-7-28z"/><path fill="#706a6f" d="M49 111l-8 3-1-13z"/><path fill="#33231c" d="M82 163l-9-6 10-8z"/><path fill="#342114" d="M222.9 167.2l11.5 15.8-47.2-50.4 15.4 13z"/><path fill="#947054" d="M209.2 167.3l-62.6-6.6.2-2 62.6 6.6z"/><path fill="#764223" d="M8 136v31l23-46z"/><path fill="#e5f0fa" d="M34.9 164l17.7-11.2-13.9 12.3-16.5 9.7z"/><path fill="#f1f2f0" d="M37.8 90.4L23.5 112l16.5 5.6-28.8-33.2z"/><path fill="#e1e8f0" d="M66 127l-34-3-1 12z"/><path fill="#875b49" d="M94 163l34-7-18 11z"/></g></g></svg>