<svg xmlns="http://www.w3.org/2000/svg" viewBox="0 0 1800 1200"><defs/><filter id="a"><feGaussianBlur stdDeviation="12"/></filter><rect width="100%" height="100%" fill="#4e2c2e"/><g filter="url(#a)"><g fill-opacity=".5" transform="translate(3.5 3.5) scale(7.03125)"><circle r="1" fill="#b0d1cf" transform="rotate(-15.7 267.7 -353.5) scale(255 89.89619)"/><ellipse cx="73" cy="16" fill="#e1eef9" rx="52" ry="26"/><circle r="1" fill="#4c5250" transform="rotate(164.7 91.2 80.5) scale(130.1704 69.67323)"/><circle r="1" fill="#e8e2cd" transform="matrix(-31.7242 -29.5833 14.51779 -15.56842 37.2 140.7)"/><path fill="#a3d1ff" d="M217.2 192.2L204 157.6l30.8-11.8 13.2 34.6z"/><circle r="1" fill="#513e47" transform="matrix(-10.6158 -41.9532 28.53435 -7.2203 51.7 75.9)"/><circle r="1" fill="#a1a79a" transform="matrix(33.20898 25.00521 -10.12973 13.4531 233 103.6)"/><circle r="1" fill="#2f2622" transform="matrix(41.76692 12.61969 -5.32405 17.62081 142.6 94.7)"/><ellipse cx="248" cy="68" fill="#001246" rx="29" ry="14"/><ellipse cx="163" cy="41" fill="#210700" rx="12" ry="13"/><path fill="#b7c1c5" d="M40.3 14.1l51.5 64.7 59.8-10.5L44.5-9.8z"/><path fill="#dae1e0" d="M16 51.5L31.5-8.8 68 41.1l3.4-26.4z"/><path fill="#b6d0e4" d="M196.1 50.8l-20.3-11 48.8-17.3 16.8-1z"/><circle r="1" fill="#231e1c" transform="rotate(65.1 -61.4 178) scale(17.15692 54.39877)"/><path fill="#742e03" d="M75.7 146.5l-29.1-45.8-62.6 14.8L31.2 84z"/><path fill="#bce1ff" d="M255 33l-39 16 38 3z"/><path fill="#cac5ba" d="M5.2 68.4l20.9 17.9-42.1 17L5.5 15.6z"/><path fill="#dac1a2" d="M132 139l21-35-25 18z"/><circle r="1" fill="#8d97a2" transform="matrix(6.04486 -16.2546 58.93269 21.91623 103.5 0)"/><path fill="#8eabba" d="M57 60l-18 42 33-25z"/><ellipse cx="117" cy="86" fill="#87bee2" rx="17" ry="4"/><circle r="1" fill="#ece1cb" transform="matrix(.6745 8.63697 -29.57782 2.30983 18.6 118.2)"/><path fill="#652d31" d="M44 40l39 43-29-57z"/><circle r="1" fill="#414a4c" transform="matrix(-53.50466 24.15828 -2.25132 -4.98612 243.4 31.6)"/><circle r="1" fill="#4b3f3f" transform="matrix(11.66169 -27.34044 12.07012 5.14834 73.2 92.5)"/><ellipse cx="184" cy="169" fill="#977055" rx="29" ry="15"/><circle r="1" fill="#728480" transform="rotate(-105 82.4 71) scale(9.97059 44.16251)"/><path fill="#3b2f39" d="M47.4 56.2l13.2 5.4-38.7 21.7-8-20.6z"/><path fill="#0b1d2b" d="M174 5h42v4h-42z"/><path fill="#9cb3c4" d="M197.4 66.5L181 77.7l-12.3-18.2L185 48.3z"/><circle r="1" fill="#a49f8c" transform="rotate(56.9 16.5 236) scale(16.9178 20.58408)"/><path fill="#57554b" d="M234.6 89.4l.7-9.7 35.7 25.2-100.6-8.2z"/><path fill="#3f271d" d="M156 87h26v35h-26z"/><path fill="#212f4c" d="M101 139l27-1-29-29z"/><path fill="#69a5d1" d="M86.7 97l-4.6 3.7-20.8-25.6 4.6-3.8z"/><path fill="#1b110c" d="M146.7 110l-17.9 6.6-7.5-20.7 17.9-6.5z"/><path fill="#d3e0e7" d="M69 12h32v30H69z"/><path fill="#042240" d="M225.6 138.2l31 4.2 4.8 42.6 5.5-1.7z"/><path fill="#8a7963" d="M23 139l-33-26 14 72z"/><path fill="#c5f6ff" d="M167-3l57 8-35-15z"/><path fill="#ebdfd0" d="M41 159l3-20-35 24z"/><path fill="#70787e" d="M115 18L91 47l82 6z"/><path fill="#16262a" d="M198.4 66.6L271 83.4l-81.1-11.3 6.7 15z"/><path fill="#748fba" d="M241 150l20 35-65-29z"/><circle r="1" fill="#a5988c" transform="matrix(-9.1323 -6.37078 17.6344 -25.27833 83 121.3)"/><path fill="#638dac" d="M26 64l28-12-18-23z"/><path fill="#0e1317" d="M96 76h35v6H96z"/><path fill="#b18d74" d="M77.4 67.7L62.9 37.4l61.1 76.3-.4 10.2z"/><circle r="1" fill="#08121e" transform="matrix(3.53449 -3.65727 4.75484 4.59522 149.1 78.2)"/><path fill="#c3beae" d="M215.7 77.1l16.2 2 2.7 10-46.7-5.6z"/><path fill="#b47d5b" d="M145 95h7v30h-7z"/><path fill="#70240c" d="M97 100L68 73l9-9z"/><path fill="#82a6cf" d="M233 127l6-14 32-3z"/><path fill="#5c4336" d="M169.9 59.2l-17-33.8-1.5 12.7 10.7 38.8z"/><path fill="#443e3e" d="M105.6 154L51 157.4l1.6-.7L83.1 185z"/><path fill="#7e6567" d="M161.8 108.1l43.7 26.5-56.1-.5 63.9-51.8z"/><path fill="#959ca4" d="M40.5 19.3l33 44.6L153.8-16 68.5 66z"/><ellipse cx="1" cy="38" fill="#aba191" rx="20" ry="21"/><path fill="#c19f70" d="M22.7 109.9l45 24.8-31.3-36.2 1.8 4.4z"/><path fill="#e6e4ce" d="M110 104l4-10h-10z"/><path fill="#093455" d="M207.4 54.9l61.9 11.7L238.4 89 220 61z"/><path fill="#c2daf6" d="M189.3 11.5L162.6-16l39.4 3.6-28.2 29.3z"/><path fill="#7d614b" d="M235.7 130.7l-5.4 16-84.7 33.5 56.7-37.5z"/><path fill="#001c3f" d="M207-1l-11-15 43 21z"/><path fill="#814c27" d="M-10.4 111.8l3.2-15.3L28.7 91l23.5 11.8z"/><path fill="#5d738b" d="M270 14l1-29-91 48z"/><path fill="#8a989f" d="M94.9 59.5l31.2-20.1 37 26.8 47.2 19.2z"/><ellipse cx="44" cy="169" fill="#94dddf" rx="11" ry="5"/><path fill="#689da6" d="M208.2 61.2l24.6 5-24 6.7-7.2-15.9z"/><path fill="#b0adaa" d="M115 81h21v6h-21z"/><circle r="1" fill="#c3c5d1" transform="matrix(-3.20689 8.37025 -10.04529 -3.84864 60 146.4)"/><path fill="#383335" d="M51.1 112.9l16.1-25.3 6.5 29.2-12.5 8.5z"/><path fill="#8c959c" d="M70.6 9.2l-19 14.9L75.3-14l128.4 37.3z"/><path fill="#fefcf5" d="M11.9 129.2l15.7-8.9-7.8-5.2-13.5 4.7z"/><path fill="#121515" d="M196 80l12-15-20 6z"/><path fill="#88868c" d="M59.9 103.3l-11.5-.4-19.7-18.1 31-9.5z"/><path fill="#7f7563" d="M30-12l-39-4 30 43z"/><path fill="#b8c8d0" d="M260.2 14.4l-1.7 3.2L235 29.3l-64.4 20.6z"/><path fill="#005fa8" d="M102 88h20v4h-20z"/><path fill="#94b6d8" d="M251.1-16l-8 22.5-39.2-4.2 22.6 7.6z"/><path fill="#ccd1d0" d="M62.1 2.3L40.4 42.2l-19.8.2 7-39.5z"/><path fill="#aa7659" d="M73 143h37v8H73z"/><circle r="1" fill="#9a8974" transform="rotate(-13 619.8 -65.5) scale(45.12016 4.30053)"/><path fill="#5e615b" d="M175.3 14.8L140.5 2l6.2-16.9L181.5-2z"/><path fill="#c9d0d1" d="M24 87l-32 9-4-23z"/><path fill="#5d2b2f" d="M51.5 27l10.2 13.6L50.5 49 40.3 35.4z"/><path fill="#0a0d0a" d="M134.2 148.7l-1.4 20.7 21.4-8.1 3.7-1.6z"/><path fill="#5b5252" d="M129.6 127.8l20 16.9-61.9-22.9 14.1-21z"/><path fill="#4e3333" d="M161.8 126.1l59.5 58.9h14.5l-30.4-23.3z"/><path fill="#444448" d="M9 65l32-12-10 33z"/><path fill="#302d1d" d="M162 76l-15 55 27-46z"/><path fill="#8c8b80" d="M147 96l-2-12-10 6z"/><path d="M187 35l-3-5h11z"/><path fill="#4f5e6a" d="M197 55h59v6h-59z"/><path fill="#b9c8d4" d="M193.8 45l22.9-10.4 14.7-7.3-39.2 2.3z"/><path fill="#706e63" d="M186 108h48v15h-48z"/><path fill="#95838c" d="M201 91l-24 34 12 4z"/><circle cx="149" cy="34" r="3" fill="#daf9ff"/><path fill="#9199ac" d="M77.4 124.7l18.1 1.4 3.3 7-30.4 5z"/><path fill="#3e2e25" d="M189.3 71.2l-14.2 53.6 9.3-12.1-8.1-22.5z"/></g></g></svg>