<svg xmlns="http://www.w3.org/2000/svg" viewBox="0 0 1800 1200"><defs/><filter id="a"><feGaussianBlur stdDeviation="12"/></filter><rect width="100%" height="100%" fill="#314763"/><g filter="url(#a)"><g fill-opacity=".5" transform="translate(3.5 3.5) scale(7.03125)"><circle cx="149" cy="93" r="169" fill="#979489"/><circle r="1" fill="#1b3c5d" transform="matrix(-195.59102 1.80208 -.3486 -37.83621 126.7 57.9)"/><circle r="1" fill="#bba993" transform="matrix(-5.97676 18.88043 -95.17483 -30.12838 144.8 129.1)"/><ellipse cx="174" cy="6" fill="#bbd6eb" rx="126" ry="13"/><circle r="1" fill="#3a2d25" transform="matrix(4.18962 12.66824 -42.267 13.97848 202 122.6)"/><path fill="#fffbe8" d="M113.4 126.5l54-14.5 3.2 11.5-54 14.5z"/><circle r="1" fill="#ab8e73" transform="rotate(-156.8 39.7 80) scale(102.64608 43.565)"/><ellipse cx="88" cy="100" fill="#f0fbfd" rx="54" ry="4"/><circle r="1" fill="#3a2416" transform="matrix(1.10545 6.92317 -38.95757 6.2205 121.3 148.5)"/><path fill="#adafad" d="M20.9 103.1l-.8-42 13-.2.8 42z"/><path fill="#45352e" d="M3.1 136.4l43.4 26.7 72.9-7-56.3-5.3z"/><path fill="#b1c3d0" d="M2.6-18.8l25.8-3.1 5 40.7-25.8 3.1z"/><circle r="1" fill="#a2998b" transform="matrix(-79.117 -4.49229 1.0387 -18.2934 232.2 155.9)"/><path fill="#241411" d="M8 107h60v7H8z"/><path fill="#bdcace" d="M253.9 86l15.5 29-13.3 7-15.5-29z"/><path fill="#480b15" d="M37.3-16L62 32l-7.9-16.8-16.4 7.4z"/><path fill="#efd1b0" d="M204.2 119.9l5.3-3.2-23.3 11.7 8.4 7z"/><path fill="#babea8" d="M206.2 46.2L178.5 34l-22-14.5 69.6 31.9z"/><circle r="1" fill="#38383a" transform="rotate(-159.9 120.2 38.8) scale(31.87046 15.18297)"/><ellipse cx="164" cy="97" fill="#b2c1cc" rx="67" ry="3"/><path fill="#001c10" d="M-16 43l25 3L3-8z"/><ellipse cx="129" cy="106" fill="#5c605f" rx="50" ry="6"/><path fill="#fff" d="M-16 142l4-28 22-1z"/><ellipse cx="96" cy="164" fill="#b4b2a7" rx="36" ry="5"/><path fill="#d7c7b0" d="M157 159l11-13-43 8z"/><path fill="#2b435f" d="M146 94L41 97l49-61z"/><path fill="#4e432b" d="M17.3 70.2l5.4 47.9-36.1-40.4 42.8-16.8z"/><path fill="#9fabae" d="M50 0h77v19H50z"/><path fill="#edcaa7" d="M27.5 139.2l32.9 5.5 23.2-11.1-36.8 5.3z"/><path fill="#bdbea0" d="M263.7 71.1l-50.6-21.5 1.2-2.7 50.6 21.5z"/><circle r="1" fill="#8d969a" transform="rotate(76.6 -14.2 35.3) scale(86.26306 1.98385)"/><path fill="#0e345c" d="M200 19h56v8h-56z"/><path fill="#3c3735" d="M157 129.5l-8.3 20.3 41.9-17.9-26.6-.7z"/><path fill="#7a7b77" d="M45 102l9 35 101-25z"/><path fill="#e1b993" d="M86.5 149.8l-29.8 3.5 48-15.2-16.4 13.6z"/><path d="M164 153h9v4h-9z"/><path fill="#bec5ca" d="M23 92.8l10.1-31.1 4.1 8.3-15.1-1.3z"/><path fill="#8a5d3f" d="M79 133h62v10H79z"/><path fill="#dac7b8" d="M99 126h53v10H99z"/><path fill="#223548" d="M117 48h75v10h-75z"/><path fill="#1c1c1b" d="M47 157h31v5H47z"/><path fill="#9e9e99" d="M4 156h42v14H4z"/><path d="M0 73h15v6H0z"/><path fill="#38323d" d="M25.6 32L48.2 2.3l4 12.3-19.8 43z"/><path fill="#475f7a" d="M39 20h43v41H39z"/><path fill="#4e5457" d="M253.5 142.5L208 132.2l26.4-27.4 35.4 23.1z"/><path fill="#d2c8ba" d="M102.2 132.8l64.9-24.1 12.7 3.5 1.1 3.2z"/><path fill="#59433b" d="M13.8 128.4l-4.7 8.8L29.8 157l8.4-1z"/><circle r="1" fill="#363637" transform="matrix(24.55154 13.7214 -1.26587 2.265 45.8 121)"/><path fill="#a7a499" d="M162.3 178.6l-137.2-16 26.1 10.5 88.2-8z"/><path fill="#232223" d="M229 101l-6 18-38-18z"/><path fill="#7d7970" d="M-16 105.8L4 66l23 5.5L2.1 47.3z"/><path fill="#9aacb8" d="M153.9 20l58.3-33.1L122-1.9l106.2 57.1z"/><ellipse cx="168" cy="87" fill="#233b55" rx="43" ry="7"/><path fill="#49637f" d="M151.2 16.2l54.4 34.9-110.7-7.7 15.2-18.6z"/><path fill="#817d76" d="M230.5 83.8l-23.8 35.4-14.1 19.2 24.2-51.6z"/><ellipse cx="106" cy="98" fill="#fff" rx="15" ry="2"/><path fill="#928e86" d="M41.5 115.4l39.9 23.3 4.6-35 72.9-3z"/><path fill="#8e8b63" d="M20.9 79.1l-22.6 1.4 9.6 15.3L-16 104z"/><path fill="#555b5f" d="M133.3 123.5l-4.4-20.6 27.6 2.6-15 16.3z"/><path fill="#1a324c" d="M237.6 71l3.8 1.5 16 5.9-88.4 3.5z"/><path fill="#daf0ff" d="M124 131l22-5-27-6z"/><circle r="1" fill="#4e4a45" transform="rotate(12.8 -649 685.8) scale(46.42384 3.81104)"/><path fill="#7c878a" d="M8.8 23.9L-2.3-16l24 43 7.4 39.5z"/><path fill="#a7a49a" d="M193.3 140.8l-40.4 19 9.2-16.1 24.8-8.2z"/><path fill="#9c978e" d="M8 111l28 40v-32z"/><path fill="#5a4439" d="M59.7 144.4L46 185l6.6-32.4 50-13.7z"/><ellipse cx="208" cy="95" fill="#93a4ad" rx="33" ry="3"/><path fill="#2e4357" d="M50.6 95.9L96.8 44 23.9 94l3.6-12.6z"/><path fill="#9fb2c5" d="M37.3-4.4l-2.8 22.8-15.8-2 2.8-22.8z"/><path fill="#2c3e4d" d="M245 62l-43-14-12 15z"/><circle r="1" fill="#907c6a" transform="matrix(1.68997 2.3882 -19.68288 13.9282 176 117.8)"/><ellipse cx="66" cy="26" fill="#2f4965" rx="45" ry="7"/><path fill="#93a2ac" d="M136.1 16.4L134.9 2 24.2-16l48.1 36.7z"/><circle r="1" fill="#674e40" transform="matrix(22.2245 7.78853 -1.61894 4.61963 103.3 139.3)"/><path fill="#dfe3e0" d="M46 97.9L95.8 96l.2 6-50 1.8z"/><circle r="1" fill="#849eb5" transform="matrix(64.65428 -3.65083 .87828 15.5538 236 3.8)"/><path fill="#63737e" d="M102.8 97.1l-47.6 1.1 24.5-3-29.5-16.6z"/><path fill="#8e9ca7" d="M185.6 101.6l-53 1.8-.2-5 53-1.8z"/><path fill="#e3cbae" d="M188 123l2 10 10-5z"/><path fill="#a9907a" d="M132.9 128.7l-43.2 3 66.8 12.6-17.3-15.4z"/><path fill="#908b83" d="M150.8 160.1l21.1-2.3 99.1-20-47.8 35.9z"/><path fill="#7a8b97" d="M38 33l32 2-21 5z"/><circle r="1" fill="#79807f" transform="matrix(1.36038 -3.25209 23.82743 9.96723 29.6 95.6)"/><path fill="#242222" d="M138.4 150.6L80 159l-1 2.6 27.7-11.4z"/><path fill="#264463" d="M237 93.2l-21-12.9 26.3 4.2.7 9.5z"/><ellipse cx="198" cy="68" fill="#466485" rx="46" ry="5"/><path fill="#363b40" d="M149 114l8-9-25-1z"/><path fill="#5e5049" d="M192.4 119.8L178 142.9l21.5-44.6-35.6 5z"/><path fill="#293e55" d="M38 62h17v33H38z"/><circle r="1" fill="#302b2e" transform="matrix(10.28827 -.40054 .06045 1.55274 29.6 153)"/><path fill="#272025" d="M7 107l23 8 24-8z"/><path fill="#524636" d="M11 84L0 111l17 2z"/><path fill="#526c87" d="M67.1 62.3L33.5 41.5l59.6 9.8-61.8 6.3z"/><path fill="#535c60" d="M222.6 100l19-6.6 7.8 22.7-19 6.5z"/><ellipse cx="138" cy="72" fill="#102843" rx="13" ry="3"/><path fill="#1e1919" d="M156 156h15v2h-15z"/><path fill="#9d9d95" d="M21 126l-8-11-29 19z"/><path fill="#37302d" d="M47 152h12v12H47z"/><path fill="#112637" d="M66.5 58.5l57-2v1l-57 2z"/></g></g></svg>