<svg xmlns="http://www.w3.org/2000/svg" viewBox="0 0 4289 2859"><defs/><filter id="a"><feGaussianBlur stdDeviation="12"/></filter><rect width="100%" height="100%" fill="#533e37"/><g filter="url(#a)"><g fill-opacity=".5" transform="translate(8.4 8.4) scale(16.7539)"><circle cx="124" cy="54" r="189" fill="#bbeff5"/><ellipse cx="162" cy="135" fill="#494426" rx="32" ry="80"/><ellipse cx="180" cy="23" fill="#c4c3e6" rx="129" ry="32"/><ellipse cx="97" cy="61" fill="#4a6274" rx="255" ry="6"/><path fill="#0b414d" d="M168.6 130l9-51.2 17.8 3.2-9 51.2z"/><circle r="1" fill="#858fbe" transform="rotate(-85.5 37.5 -9.7) scale(28.72245 77.17509)"/><path fill="#d1bbb0" d="M171.5 60.5L182 64l-15.5 47.6L156 108z"/><path fill="#749569" d="M281.4 100.8l19.9 49.1-156.7 63.3-19.9-49.1z"/><path fill="#f0d7f3" d="M199 120l7-13-21-2z"/><circle r="1" fill="#97b4b0" transform="matrix(-2.17986 -14.39782 27.8657 -4.21892 119 84.6)"/><path fill="#4e2820" d="M143 64.4l14-4 10.3 10.9-16.5 21.1z"/><circle cx="68" cy="161" r="70" fill="#8ca98a"/><path fill="#98583e" d="M135 110l60-18-4-20z"/><circle r="1" fill="#c9cdd6" transform="matrix(59.93714 -7.09265 1.50785 12.74221 151.7 3)"/><path fill="#00889c" d="M191.2 93.9l-10.4 6.8-6.4 25 20.3-24.3z"/><circle r="1" fill="#577b80" transform="rotate(58.9 -72.3 44.6) scale(18.68536 48.3555)"/><path fill="#514430" d="M192 124.2l-7.4 28-38.7-10.4 7.5-28z"/><path fill="#633f2f" d="M131.8 93.5l.9 19-10.7 31.6 37.5-59.5z"/><circle r="1" fill="#93aea7" transform="matrix(-7.8539 21.0062 -36.73357 -13.73412 231.4 91.4)"/><path fill="#b89886" d="M168 64l1 50h-19z"/><ellipse cx="141" cy="128" fill="#9cc0b2" rx="5" ry="11"/><circle r="1" fill="#8ba3a5" transform="matrix(29.86315 -42.06533 22.27983 15.81697 107.3 85.6)"/><circle r="1" fill="#80959f" transform="matrix(14.5137 7.52781 -6.1609 11.87827 177.8 61.4)"/><path fill="#004e58" d="M174 97h9v34h-9z"/><circle r="1" fill="#78988e" transform="rotate(-149.3 25.6 56.5) scale(24.7199 61.90787)"/><path fill="#a98061" d="M169.3 125.5l8 10.2-8.6 6.8-8-10.2z"/><circle r="1" fill="#9aa1b4" transform="matrix(.03687 -8.77609 125.41604 .52685 164.3 47.8)"/><path fill="#7fb1b6" d="M172.6 89l-10.8-2.4 3.6-15.6 10.8 2.4z"/><path fill="#00c5e1" d="M184 100h9v6h-9z"/><path fill="#b7bcc7" d="M267.8 28l-78.4 9.7-3.2-25.8 78.4-9.6z"/><path fill="#6e4b3f" d="M150 71l13 19-21 30z"/><ellipse cx="157" cy="152" fill="#627654" rx="32" ry="10"/><circle r="1" fill="#7d8bb3" transform="matrix(6.20597 20.59734 -109.69562 33.05126 12.7 10.7)"/><path fill="#583c31" d="M192 73h-13l-10 40z"/><ellipse cx="25" cy="59" fill="#546a78" rx="130" ry="4"/><path fill="#424138" d="M142.7 146.2l18.1-28.6H141l15.2 23.3z"/><path fill="#614d4d" d="M198 137l-24 1 20-22z"/><ellipse cx="91" cy="65" fill="#748b90" rx="53" ry="5"/><path fill="#5f8e70" d="M268.3 119l-2.5 11.7-36.1-7.7 2.5-11.7z"/><ellipse cx="209" cy="137" fill="#93a18f" rx="17" ry="12"/><ellipse cx="84" cy="107" fill="#8da69e" rx="47" ry="33"/><circle r="1" fill="#5a6d75" transform="matrix(0 -6.38325 22.95995 0 246.3 62.3)"/><path fill="#2e2725" d="M146 62h18v8h-18z"/><ellipse cx="85" cy="27" fill="#99a4b5" rx="46" ry="22"/><path fill="#a88470" d="M192.7 90.7l-36.5 1.6 54.3-9.9-20.2 3.5z"/><path fill="#4d3423" d="M126 125l14-20-5 23z"/><path fill="#839c81" d="M111.6 168.1L102 158l34.4-32 9.6 10z"/><path fill="#634538" d="M185.7 135.3l-18.8-8.6-8.9-23.5-1.9 9.5z"/><path fill="#968691" d="M189.2 105.6l10.8 16.3-3 2-12.4-14.6z"/><path fill="#94a7a6" d="M180.9 63.2l36.2 46.3-23-45.5-22.3 19.4z"/><ellipse cx="181" cy="114" fill="#00606f" rx="6" ry="16"/><path fill="#819775" d="M205 153.5l2.5 17.9-50.5 7-2.5-17.8z"/><path fill="#647f67" d="M232 146h24v12h-24z"/><path fill="#475c68" d="M0 57h24v11H0z"/><path fill="#c5c0d1" d="M204.8 102.5l-6.6 16.3-6.5-10.7-7.7.9z"/><circle cx="139" cy="84" r="8" fill="#94a9a8"/><path fill="#44422a" d="M148 132l20 2-24 16z"/><path fill="#5f4737" d="M177 89l-1.8-11.8 15.9-2.3 1.7 12z"/><circle r="1" fill="#859c80" transform="rotate(-45.1 184.9 72.2) scale(27.42671 47.48436)"/><path fill="#91a7a0" d="M201.2 72.6l22.5-10.7 7.1 55.9-28.2 3.1z"/><path fill="#ce9477" d="M159.2 133.5l-.4-4 10-1 .4 4z"/><circle r="1" fill="#0b3536" transform="matrix(5.99165 3.73693 -1.41422 2.2675 180.8 97.8)"/><path fill="#85976a" d="M155 143h14v10h-14z"/><path fill="#2f373d" d="M159.3 121.6l-5.3-2.7 16.5-5.8 7.9 5.1z"/><circle cx="179" cy="147" r="7" fill="#3f5840"/><ellipse cx="197" cy="57" fill="#44646e" rx="66" ry="1"/><path fill="#ac9c85" d="M125 123l-16 11 21 4z"/><path fill="#cd9e7e" d="M157 97l8 14 3-18z"/><path fill="#6b8b66" d="M85 160h37v3H85z"/><circle r="1" fill="#7a86a8" transform="matrix(6.0822 38.4015 -20.31475 3.21754 2.2 18)"/><ellipse cx="41" cy="32" fill="#8b96b2" rx="35" ry="17"/><path fill="#718186" d="M204 52l32 18-60-7z"/><circle r="1" fill="#79989b" transform="matrix(3.43872 12.9637 -39.31394 10.42831 58 79.6)"/><circle cx="152" cy="111" r="4" fill="#cf997d"/><circle r="1" fill="#90a68e" transform="matrix(46.82197 -37.22976 14.49369 18.22798 57.2 158)"/><path fill="#998365" d="M200.3 120.2l-1.6 32-5-.4 1.6-32z"/><path fill="#0c3c9d" d="M191 126h5v5h-5z"/><path fill="#5e6c7a" d="M16 66h79v2H16z"/><path fill="#84939c" d="M156.3 46.4L138.5 74l14.4-19.4 25.9 20.7z"/><ellipse cx="249" cy="140" fill="#82998a" rx="68" ry="6"/><path fill="#bcc1cd" d="M93 0h88v16H93z"/><path fill="#1e2928" d="M172.3 106.1l-.8 14.6 6.5 12.4-4-22.8z"/><path fill="#2a2c28" d="M165.4 136.7l-12.4-3.1-8.7 3.8 19.6-.6z"/><path fill="#8ba19e" d="M160 77h16v9h-16z"/><path fill="#917368" d="M197 96l-12-3-5-12z"/><path fill="#083541" d="M195.7 121.5l-17 5.9-.4-1 17-5.8z"/><path fill="#8c99b9" d="M53 0h42v9H53z"/><path fill="#3c342d" d="M179.1 80l-.2 12h-4l.2-12z"/><path fill="#7d728f" d="M186 112h6v9h-6z"/><path fill="#a4abbb" d="M209 38h31v19h-31z"/><path fill="#735441" d="M165.6 96l-19.8.1 16.8 21.3-13.7-32.1z"/><path fill="#2b2320" d="M149.2 60.2l2.7 1.3-7 14.3-2.8-1.3z"/><path fill="#a6a79b" d="M174 104h2v3h-2z"/><path fill="#72967d" d="M254.9 107.1l-37.4 2.2 53.5 10.1-66.8 11.4z"/><path fill="#586c48" d="M158.2 144l11.3-7.3 34.7 1.6-19.4.9z"/><ellipse cx="186" cy="70" fill="#96aeb4" rx="19" ry="3"/><path fill="#c28466" d="M195 120l6 14h-5z"/><path fill="#d5a481" d="M174 88l-15 5 5-7z"/><path fill="#a2aabe" d="M89 12l66 2-27 42z"/><path fill="#3b3223" d="M136 105l4 4-3 13z"/></g></g></svg>