<svg xmlns="http://www.w3.org/2000/svg" viewBox="0 0 1200 1800"><defs/><filter id="a"><feGaussianBlur stdDeviation="12"/></filter><rect width="100%" height="100%" fill="#4b4547"/><g filter="url(#a)"><g fill-opacity=".5" transform="translate(3.5 3.5) scale(7.03125)"><path fill="#e5dab7" d="M166.8 18.7l-26.4 167-229.2-36.4 26.4-167z"/><circle r="1" fill="#f5ddb3" transform="matrix(9.72832 -168.71977 18.81305 1.08475 8.3 126.2)"/><circle r="1" fill="#19231f" transform="matrix(-10.04261 11.98666 -60.87686 -51.00357 135.3 104.6)"/><circle cx="86" cy="115" r="31" fill="#d9dadd"/><circle r="1" fill="#9fb2c1" transform="rotate(-117.9 139 54.1) scale(32.15667 19.4825)"/><circle r="1" fill="#f9cf8e" transform="rotate(-148.9 29.7 10.9) scale(22.36171 48.4307)"/><circle r="1" fill="#2b1f1b" transform="matrix(-33.68589 18.0943 -5.69892 -10.60959 65.6 74.3)"/><ellipse cx="50" cy="162" fill="#4e555f" rx="29" ry="43"/><circle r="1" fill="#65655a" transform="matrix(-16.4671 31.20511 -78.38543 -41.36438 147.8 20.2)"/><ellipse cx="133" cy="143" fill="#4e5557" rx="16" ry="50"/><circle r="1" fill="#435a72" transform="matrix(-149.95069 13.833 -2.19716 -23.81742 76.8 250)"/><circle r="1" fill="#ffd7aa" transform="matrix(14.65283 -17.69007 8.01328 6.63747 54.8 106.9)"/><path fill="#41392e" d="M26 97h13v76H26z"/><ellipse cx="93" cy="73" fill="#393132" rx="30" ry="16"/><path fill="#738197" d="M77.2 164.4l53.5-23.7-.7 32-60.2 36.1z"/><circle r="1" fill="#fae6c0" transform="matrix(35.7566 -42.76442 8.09685 6.77001 20.3 85)"/><ellipse cx="10" cy="197" fill="#7c8d9e" rx="17" ry="46"/><path fill="#a5b5c5" d="M132 60h16v41h-16z"/><path fill="#78bdff" d="M88 114L70 84l44 10z"/><path fill="#40250f" d="M26 22h15v10H26z"/><path fill="#d0cdc1" d="M76 35l51 16L13 62z"/><path fill="#a2b1c0" d="M155 219l-9-70-8 56z"/><ellipse cx="102" cy="210" fill="#000004" rx="8" ry="17"/><circle r="1" fill="#35261c" transform="matrix(-6.09824 1.02545 -5.22345 -31.0632 128.2 110)"/><circle r="1" fill="#c1b199" transform="matrix(-.65161 16.94474 -36.35931 -1.3982 87.9 136.2)"/><ellipse cx="9" cy="6" fill="#614621" rx="166" ry="3"/><circle r="1" fill="#73726e" transform="matrix(22.78273 -12.02047 17.50078 33.1697 161.3 41.7)"/><path fill="#1e1d1f" d="M63.4 207.6l-2.1-40.4 4.6-3.5 13.5 26z"/><circle r="1" fill="#e5c086" transform="matrix(-5.7076 -9.49903 75.27637 -45.2306 37.6 4.9)"/><path fill="#292926" d="M23.4 246.9l1.3-51.7 2-22.1 24.8 60.3z"/><ellipse cx="169" cy="128" fill="#284020" rx="23" ry="48"/><path fill="#718279" d="M165.6 48.9l-33.2 73.2 24-11.8 2.5-9z"/><ellipse cx="90" cy="136" fill="#fcdca8" rx="11" ry="17"/><circle r="1" fill="#a3afbc" transform="rotate(-57 119.2 -89.7) scale(7.79839 33.46194)"/><ellipse cx="10" cy="112" fill="#ead0a5" rx="17" ry="42"/><path fill="#797b80" d="M55 212l-21-70 37-26z"/><path fill="#564a3e" d="M42 72l-13 47 59-75z"/><ellipse cx="125" cy="196" fill="#495062" rx="16" ry="27"/><path fill="#ffe092" d="M125 140h5v27h-5z"/><circle r="1" fill="#d0aa70" transform="matrix(-30.98957 25.18454 -11.98349 -14.74568 2.7 58.2)"/><path fill="#6e6b62" d="M76 21h94v17H76z"/><circle r="1" fill="#627089" transform="rotate(-146.4 69.5 118.1) scale(15.44889 24.60342)"/><path fill="#7f8fa8" d="M120.4 160.1l-8.9 37.2-8.3-42.6 16.3-60.9z"/><path fill="#4a3e37" d="M47.8 71.5l54.8 20 31.9 25.2-25.2-55.5z"/><path fill="#87b8ff" d="M66.5 88.1l41.2 19.3-.8-12.8-21.1-10z"/><path fill="#454a37" d="M136 150.5l27.3-17.3-35.2 46.9 3.9-47.6z"/><path fill="#363e4a" d="M99 154h5v35h-5z"/><path fill="#959589" d="M131 27L83 14l72-5z"/><path fill="#b7955f" d="M23 61l22-49 21 20z"/><path fill="#271d12" d="M118.4 124l7.6-25 9.6 3-7.6 24.8z"/><path fill="#43474d" d="M-15 251.4L3.4 233 21 250.6 2.6 269z"/><path fill="#2c241f" d="M148.5 26.1l-5.6 9.4-9.4-5.6 5.6-9.4z"/><path fill="#a6a9a8" d="M15 205h7v30h-7z"/><path fill="#96a1a9" d="M154.1 88.2L94.5 37.4 69.4 47.7l29.7 7.2z"/><circle r="1" fill="#ffe9c3" transform="rotate(166.6 26.2 28) scale(18.49068 7.06567)"/><circle cx="60" cy="135" r="18" fill="#888886"/><path fill="#69819d" d="M72 170l47 9-48 6z"/><path fill="#5e5e5b" d="M157 172h13v38h-13z"/><ellipse cx="53" fill="#cdbc99" rx="85" ry="2"/><path fill="#6085ae" d="M122 201h6v24h-6z"/><path fill="#e6c49c" d="M50 95h30v26H50z"/><path fill="#818888" d="M134 83h7v111h-7z"/><path fill="#322f2f" d="M130.2 180.1l-10-19.6 6.7 32.8 8.4 24.8z"/><path fill="#4d483f" d="M144 50h24v11h-24z"/><circle r="1" fill="#343c4e" transform="rotate(-98.7 83.3 37.1) scale(1.63784 13.81728)"/><path fill="#3b362d" d="M82 8l62 1-21-14z"/><path fill="#303c1a" d="M35 136l-5-23 17 26z"/><ellipse cx="22" cy="7" fill="#967345" rx="61" ry="3"/><path fill="#b49162" d="M94 126l6 23 9-39z"/><path fill="#202324" d="M74 196l14 6 6 34z"/><path fill="#c9a986" d="M36.2 120.2l-3-6.3 20.6-10 3 6.2z"/><path fill="#decbaf" d="M116.4 97.1l-19.8 28.3-.8-20.8 22.5 9.3z"/><path fill="#798084" d="M154 76.7l-20.9-4.1 2.5 30.1-18.2-32.3z"/><path fill="#1b1613" d="M67.2 209.7l2.8-20.2-1.7-25.3-9 13.5z"/><path fill="#9fa4a7" d="M24 145l-40 82 33-30z"/><path fill="#203512" d="M138 102h32v4h-32z"/><path fill="#e2c797" d="M0 10h80v13H0z"/><path fill="#414934" d="M161 122l-36 4v12z"/><ellipse cy="86" fill="#c7a56e" rx="6" ry="24"/><path fill="#716f6b" d="M6 206l5 43 12-16z"/><path fill="#806344" d="M23.1 24.2l9.1-6.2L43 33.8 33.8 40z"/><path fill="#554d44" d="M62 56h33v30H62z"/><path fill="#65718d" d="M37 190h26v10H37z"/><circle r="1" fill="#7f7c72" transform="matrix(-22.22774 -40.26548 6.08094 -3.35686 160.8 21)"/><path fill="#f2debc" d="M104.7 128.8l8.2-26.2 1.9 9.2-12.6 42z"/><path fill="#281f12" d="M159 2h11v10h-11z"/><path fill="#71727d" d="M96 204l-27-11 25-8z"/><path fill="#494b4d" d="M31.5 143.7l-3.6 74.5L14.8 190l38.1-.5z"/><path fill="#868480" d="M-24.1 155.4l48-.8.2 14-48 .8z"/><path fill="#000202" d="M65 186h18v5H65z"/><path fill="#233021" d="M175 83l-32 9 42 5z"/><path fill="#647fac" d="M36 178h13v7H36z"/><path fill="#f7d3a1" d="M127 139h2v40h-2z"/><path fill="#9ca9b2" d="M152 154l-10 20-2-9z"/><path fill="#e2d4ba" d="M26.1 138.2l-42.1-16 38.7 31.2 1.7 5.9z"/><path fill="#222a1b" d="M139.5 152.4l28.7-14.8-6 10.7 22.8 24.2z"/><path fill="#b4bcc7" d="M149.8 113l-10.8 2-.8-4 10.8-2z"/><ellipse cx="52" cy="131" fill="#b0b1ad" rx="10" ry="4"/><path fill="#453c34" d="M117.8 105.8l19.4 7.6-20.8-47.6-12 23.4z"/><circle r="1" fill="#99a5b5" transform="rotate(92.5 -23.3 172) scale(27.87864 3.80758)"/></g></g></svg>