<svg xmlns="http://www.w3.org/2000/svg" viewBox="0 0 1800 1800"><defs/><filter id="a"><feGaussianBlur stdDeviation="12"/></filter><rect width="100%" height="100%" fill="#3b5e77"/><g filter="url(#a)"><g fill-opacity=".5" transform="translate(3.5 3.5) scale(7.03125)"><ellipse cx="131" cy="14" fill="#b6cdec" rx="176" ry="86"/><circle r="1" fill="#001b2b" transform="matrix(-14.60618 80.3726 -154.99279 -28.16696 118.8 223.6)"/><path fill="#39719b" d="M271 93L85 31l112 166z"/><circle r="1" fill="#d3e4f9" transform="rotate(.6 -219.1 18627.2) scale(255 14.00402)"/><circle r="1" fill="#002a39" transform="matrix(25.07729 -71.21081 154.53513 54.42041 75.7 254.9)"/><ellipse cx="66" cy="81" fill="#eacdb2" rx="51" ry="11"/><path fill="#5482a8" d="M161 112l110 51-19-137z"/><circle r="1" fill="#004563" transform="matrix(68.84283 -8.81897 6.67359 52.0955 205.6 217.3)"/><path fill="#305c7c" d="M131.6 86L46.1 43l62.6 3.5 143.2 43.3z"/><circle r="1" fill="#407c8c" transform="matrix(41.83746 -24.2846 5.13217 8.8417 125.2 173.1)"/><path fill="#e9dad0" d="M171 50h50v14h-50z"/><circle r="1" fill="#5281ac" transform="matrix(-19.98473 -3.41605 7.0488 -41.23721 15.3 67.3)"/><circle r="1" fill="#03445e" transform="matrix(-53.31654 42.8676 -18.8144 -23.4004 69.6 141.5)"/><circle r="1" fill="#7e9ebf" transform="rotate(-95.1 162.5 -41.7) scale(7.7713 56.14672)"/><path fill="#fff" d="M30 74h37v8H30z"/><path fill="#c2d4e6" d="M141.6-36.2l140 37.6-9.2 34.8-140-37.6z"/><path fill="#002e3e" d="M185.6 260.4l-202.9 7.1-2.3-68 202.9-7z"/><path fill="#10466f" d="M-9.1 61.3L28 63.2l30.2.9-.1-9.2z"/><circle r="1" fill="#002e3e" transform="rotate(67.1 -100.5 131.4) scale(18.28477 76.03086)"/><ellipse cx="239" cy="48" fill="#064262" rx="17" ry="5"/><path fill="#43779f" d="M67 128.1l1.8-12.9L159 128l-1.8 12.9z"/><ellipse cx="135" cy="42" fill="#4375a1" rx="38" ry="14"/><path fill="#094465" d="M169.7 83.5l-39.8.2L108 64.1l60.7 12z"/><path fill="#124666" d="M232 115l-47-22-24 12z"/><circle r="1" fill="#356991" transform="rotate(-59.1 319.8 -102.3) scale(9.7789 19.78993)"/><path fill="#869ab5" d="M114 86h47v17h-47z"/><circle r="1" fill="#aac3e0" transform="matrix(35.3459 4.94863 -.5764 4.11694 85.4 28.6)"/><path fill="#6388af" d="M216.8 18.8l29.5 20.4-55.1 19.7-10.9-45.5z"/><path fill="#5e6f7b" d="M33 81l-14 21 54-19z"/><path fill="#27577c" d="M195.5 60.1l31 11.7 15.4 4.6 24.3-2.6z"/><path fill="#a3bbd8" d="M216.4 122l-57.7-12.2.9-3.9 57.7 12.3z"/><circle r="1" fill="#7fa2c4" transform="matrix(30.24136 -1.46747 .08908 1.83567 27 138.9)"/><circle r="1" fill="#8eabcd" transform="matrix(62.9656 10.46883 -.28357 1.70558 126.5 64)"/><circle r="1" fill="#a68463" transform="rotate(10.7 -459.8 484) scale(18.10419 5.90662)"/><path fill="#a07b6a" d="M35 66h62v7H35z"/><path fill="#adc8e8" d="M27.3 103.4l-37 .4-6.3 3 31.8-9.9z"/><circle r="1" fill="#92adcb" transform="rotate(-158.4 121.4 30) scale(21.25495 4.04116)"/><circle r="1" fill="#d7d9dd" transform="matrix(-11.64161 -15.24096 2.64726 -2.02207 74 67)"/><path fill="#b1c8e6" d="M83 19h48v8H83z"/><path fill="#3a6e91" d="M65 193l-7 17 37-19z"/><path fill="#104764" d="M160 111.8l-21.1 22.5 30.9-4.8L20.6 86.3z"/><ellipse cx="24" cy="35" fill="#0e4775" rx="34" ry="2"/><path fill="#6593b9" d="M182.5 153.1l1.4-4.8 85.6 24.6-1.4 4.8z"/><path fill="#efe7e1" d="M115.8 88.9l-9.2-6 7.6-11.8 9.2 6z"/><ellipse cx="104" cy="38" fill="#1c5480" rx="34" ry="3"/><path fill="#0c4869" d="M170.1 125.3l48.2 34.8 21.7 3.3-43.3-33.4z"/><ellipse cx="129" cy="177" fill="#3c7275" rx="27" ry="16"/><path fill="#ebdbcb" d="M177 75l15-24-14-3z"/><path fill="#003c5a" d="M0 124h67v9H0z"/><ellipse cx="14" cy="12" fill="#bacfe8" rx="31" ry="5"/><path fill="#0f4d69" d="M0 142h27v39H0z"/><path fill="#0b426d" d="M7 48h33v4H7z"/><path fill="#759bb8" d="M132 141l48-12-19 15z"/><path fill="#476c8e" d="M187.4 103.1l48.8-52.5-14.6 4.7-48.2 27.9z"/><path fill="#004163" d="M56.4 121l-72.4-4.8v44.6V101z"/><circle r="1" fill="#8baacd" transform="rotate(94.7 35.8 73.4) scale(2.1618 59.47697)"/><path fill="#343d4e" d="M84.8 92.1l.2-1 68.2 10.8-.2 1z"/><ellipse cy="19" fill="#003d74" rx="28" ry="2"/><path fill="#487ba4" d="M54 139h37v4H54z"/><path fill="#336990" d="M20 92h22v56H20z"/><path fill="#7a9ec5" d="M191 13L91 10l83 28z"/><circle r="1" fill="#376386" transform="rotate(173 4.4 38) scale(19.12395 5.62626)"/><ellipse cx="255" cy="131" fill="#07456d" rx="29" ry="5"/><path fill="#164c64" d="M135 181l26-32 110 63z"/><ellipse cx="7" cy="66" fill="#a5bcda" rx="39" ry="3"/><circle r="1" fill="#002b39" transform="matrix(-54.78659 6.92116 -6.56817 -51.9924 40.8 244.6)"/><path fill="#7094b7" d="M119.8 103.1l33.4 11.2L132 85.8l53.6 11.7z"/><path fill="#495363" d="M93 61l9 20-20-22z"/><path fill="#a0b9da" d="M65.6 40.2l-66.9 5.6 25 1.2 24.5-.9z"/><ellipse cy="92" fill="#074164" rx="36" ry="4"/><path fill="#90aac8" d="M254.7 88.7l-67.1-26.4L271 87.9v-5z"/><path fill="#477090" d="M134.3 167.6l56.8-3.3-69.8-1.7-37.6 39.1z"/><circle r="1" fill="#8a746c" transform="rotate(103.1 3.3 61.5) scale(3.28457 14.62451)"/><circle r="1" fill="#18506e" transform="matrix(1.26011 3.38834 -24.1828 8.9935 159.4 130.8)"/><path fill="#9db5d1" d="M102 128h22v3h-22z"/><ellipse cx="66" cy="169" fill="#003041" rx="37" ry="25"/><path fill="#ded8d4" d="M201.9 56.9l4.1-11.7 4.2 16.4-32.8 5.6z"/><path fill="#7493b5" d="M118.1 82.3L88.1 53-16 31.1l144.1 40.5z"/><path fill="#134c7b" d="M142.4 32v1l-48.8-5v-1z"/><ellipse cx="181" cy="70" fill="#7b7f89" rx="26" ry="6"/><ellipse cx="241" cy="144" fill="#608aaa" rx="30" ry="6"/><path fill="#b0c6e3" d="M53.5 32.1l-.3 3L10.5 30l.3-3z"/><path fill="#9fbdd9" d="M-16 142l13-9 19 7z"/><path fill="#064a71" d="M232 150h24v15h-24z"/><path fill="#537ea7" d="M135 57l42-34h59z"/><path fill="#9ab6d4" d="M271 15.1l-39.3 29.4 39.3-5.2-72.6-26z"/><path fill="#1c4150" d="M59 90l-9 11 39 1z"/><path fill="#003649" d="M97.4 271l94.7-4.7-81.3-80.5-36.4 17.3z"/><circle r="1" fill="#2a5c81" transform="matrix(18.425 8.94588 -.97566 2.00948 231 112.7)"/><path fill="#5986aa" d="M198 168.1l-18.5-4.1-5.6-14.3-44-20.6z"/><path fill="#95b1ce" d="M167 10.4l-14.6 10.2 77.4 9.6-13.6 11.5z"/><path fill="#757180" d="M199.9 59.5l-15.3-1L200.8 43l1.4-1.2z"/><ellipse cx="48" cy="60" fill="#154462" rx="17" ry="3"/><path fill="#a3bada" d="M-13.5 57.8l39 .8 22.1-6.5-26.9 2z"/><path fill="#8caacb" d="M248.7 113.5l-8.2 13-33.5-11.9 64 6.5z"/><path fill="#92b0d1" d="M126 34h59v4h-59z"/><path fill="#7e9ebf" d="M173.4 107.6l-12.3-2.7 33.7 24.5 23.4 7.2z"/><path fill="#124a6f" d="M211 129l27 10-23 3z"/><path fill="#00394f" d="M148 145l-22 16-68-35z"/><path fill="#05415f" d="M132.8 119.4l13 1.3-13-16.8-87.9 11z"/></g></g></svg>