<svg xmlns="http://www.w3.org/2000/svg" viewBox="0 0 1606 1606"><defs/><filter id="a"><feGaussianBlur stdDeviation="12"/></filter><rect width="100%" height="100%" fill="#252837"/><g filter="url(#a)"><g fill-opacity=".5" transform="translate(3.1 3.1) scale(6.27344)"><circle r="1" fill="#fffffd" transform="matrix(220.10475 128.75908 -74.36054 127.1142 148.8 86.8)"/><circle r="1" fill="#140b0f" transform="matrix(52.561 -63.62755 38.91592 32.1474 121.6 180.1)"/><circle r="1" fill="#fff" transform="matrix(143.25264 -3.521 1.41709 57.65466 176.6 26.6)"/><circle r="1" fill="#867a6d" transform="rotate(-157 19.8 97) scale(61.51198 138.07597)"/><circle r="1" fill="#4c2d25" transform="rotate(39.5 -36.5 270.7) scale(26.54088 39.50322)"/><ellipse cx="254" cy="91" fill="#cae0f2" rx="59" ry="186"/><circle cx="102" cy="25" r="63" fill="#fff9f0"/><path fill="#7d6d67" d="M186.2 194.7l42 64.5-86.4 56.1-42-64.5z"/><path fill="#000819" d="M138 116l-33 125-44-32z"/><circle r="1" fill="#c0a194" transform="rotate(34.8 -136.4 323.3) scale(22.19757 29.82313)"/><circle r="1" fill="#fff4e5" transform="rotate(126.8 98.6 69) scale(40.63077 67.29796)"/><path fill="#827872" d="M10 271l113-144L-16 27z"/><path fill="#a3c1db" d="M68 82h67v35H68z"/><circle r="1" fill="#9c7952" transform="matrix(-23.08361 -.36263 .51391 -32.71384 18.6 27)"/><path fill="#00000b" d="M61.3 96.7l-4 18.6-18.6-4 4-18.6z"/><path fill="#252026" d="M185.1 53.7l4.7 12.1-43 16.5-4.6-12.1z"/><ellipse cx="190" cy="180" fill="#834f36" rx="10" ry="39"/><path fill="#8ea9c6" d="M172 88h84v51h-84z"/><circle r="1" fill="#9aa0a7" transform="matrix(-4.69655 12.61164 -32.30215 -12.02926 147.6 255)"/><path fill="#342824" d="M143.9 230l63.6 2.5-66.8 10.7-3.2 3.9z"/><path fill="#0c1d33" d="M119 163h65v21h-65z"/><circle cx="233" cy="213" r="35" fill="#91adc4"/><path fill="#706a66" d="M30 57h32v13H30z"/><circle r="1" fill="#808b97" transform="matrix(-31.89899 -20.49686 6.61325 -10.29211 18 185.1)"/><path fill="#9e715e" d="M66.5 169.9l45.3-19.1 18.4-36.6-31.4 7.7z"/><path fill="#806057" d="M141 78l58 6-43 61z"/><path fill="#202a3a" d="M153 202.3l25.7-69.5 9.9 33.2-49.4 74.5z"/><path fill="#a3c0d7" d="M173 128l89 60-68-94z"/><path fill="#b0958b" d="M124 227l30-8-22 23z"/><path fill="#2e2f39" d="M135.5 88.4l17.2 11.4-48.4 66.4 59.6-108.5z"/><ellipse cx="83" cy="233" fill="#1b2731" rx="37" ry="23"/><circle r="1" fill="#847c74" transform="matrix(-18.10762 17.6089 -10.66957 -10.97176 74.9 116)"/><circle cx="137" cy="197" r="16" fill="#5f768f"/><path fill="#e4dddc" d="M61 40h77v42H61z"/><ellipse cx="172" cy="7" fill="#eee7e1" rx="133" ry="48"/><path fill="#a08072" d="M200 216l-16-80 21 17z"/><path fill="#66615f" d="M193.6 93.5l5.7-18.1-19.2-26.2-4.5-.5z"/><path fill="#726a6c" d="M36.4 224.5L-3.5 271l110.4-16.2L63.6 271z"/><path fill="#1e2634" d="M137.2 152.3l8.9 23.3-76.3 50.1 59.7-104.8z"/><path fill="#a9b6c3" d="M160.6 49.2l-20.3 32.6-53.1 53 20.9-45z"/><path fill="#f2ebe3" d="M40 35h7v23h-7z"/><path fill="#815946" d="M94.5 165.9L39 239.3l-9.6-7.2L85 158.7z"/><path fill="#596371" d="M205 264l66 7-83-40z"/><path fill="#8196b6" d="M111 213l-1 16 8-9z"/><path fill="#9e7e70" d="M135 124h38v27h-38z"/><circle r="1" fill="#635d56" transform="matrix(-24.7506 -22.36388 4.13642 -4.57787 49.2 91)"/><ellipse cx="170" cy="88" fill="#9b7d79" rx="19" ry="17"/><path fill="#829cb1" d="M178.8 190.5l-18 21.8 13.7-27.4 8.8 1.9z"/><circle r="1" fill="#a69d90" transform="rotate(54.7 40 206.6) scale(9.29224 5.04734)"/><circle r="1" fill="#998a79" transform="matrix(-24.70397 .18413 -.36913 -49.52647 16.2 38.8)"/><ellipse cx="154" cy="255" fill="#9ea6ac" rx="16" ry="14"/><path fill="#9a9693" d="M20.1 108.5l21.2-8.5 19.4 91.8-7.7-77.4z"/><circle r="1" fill="#565c64" transform="rotate(34.7 -348.3 135) scale(22.1303 30.44882)"/><path fill="#171d26" d="M179 232l-35 5 19 3z"/><circle r="1" fill="#99b1c6" transform="matrix(-27.8114 -7.45204 20.22582 -75.48377 236.4 158)"/><circle r="1" fill="#1e242f" transform="rotate(-162.1 64.3 94.4) scale(19.37591 55.80695)"/><path fill="#61524e" d="M184.4 163.4l-6 52.7-62.9 8.4 70.3-5.5z"/><ellipse cx="54" cy="77" fill="#e3e5e4" rx="11" ry="2"/><circle r="1" fill="#202b3b" transform="matrix(-43.47393 38.73386 -.95242 -1.06898 140 216.3)"/><path fill="#a27b68" d="M196 213l-67 11 69 8z"/><circle cx="154" cy="155" r="10" fill="#ac8e7f"/><path fill="#192332" d="M168 197.5l-22.8 27.2 9.1-25.5-7.3-30.5z"/><path fill="#3f373b" d="M152 61l-14 33 6 36z"/><path fill="#9db9d4" d="M95 82h38v34H95z"/><path fill="#a28274" d="M126 120l-18-6 1 38z"/><path fill="#67615b" d="M7.6 130.7l-1.2-37 10-.4 1.2 37z"/><path fill="#151a25" d="M43 94h12v18H43z"/><path fill="#8295af" d="M145.2 172.4l2.8 1-5.2 14.2-2.8-1z"/><ellipse cx="239" cy="99" fill="#8fa8c2" rx="47" ry="18"/><path fill="#e3dbda" d="M181.9 27.5L271 86.6l-35.6-7.3-36.8 4.8z"/><path fill="#967969" d="M185 147h18v29h-18z"/><circle r="1" fill="#686563" transform="matrix(-1.27993 18.85714 -4.33985 -.29457 30 126)"/><path fill="#8e8179" d="M131 108l4 7 8-9z"/><path fill="#9f9a8f" d="M17.6 249.8l-33.6-9.5v6.5l32.1 5.9z"/><path fill="#595243" d="M58 79h9v5h-9z"/><path fill="#9d968e" d="M18.6 135.5l-2.3-96.7-26.5 14.3 46.4 32.8z"/><path fill="#876b67" d="M165 113l20-15-49-11z"/><path fill="#091e35" d="M114.9 208.4l7.7-4.5 4.5 7.7-7.7 4.5z"/><path fill="#9bbfdb" d="M180 203l-3-18-6 7z"/><path fill="#67686e" d="M101.2 254.4l32.6-16.6 9.2 7.6L86.5 271z"/><path fill="#8c8b8b" d="M-16 187.8l73.1-26.7L4 139.7l33.6 51.1z"/><ellipse cx="144" cy="216" fill="#152535" rx="13" ry="5"/><path fill="#433f45" d="M189 68h5v28h-5z"/><path fill="#5c4d4d" d="M158.2 79.5l28.6 5-1 6-28.6-5z"/><path fill="#443d43" d="M154 61h35v10h-35z"/><path fill="#a7c0da" d="M77.5 102.9l-10.8-2.1L70.5 81l10.8 2.1z"/><path fill="#766057" d="M59 144.7l34 26.9 7.6-51.8-36 54.1z"/><path fill="#5a7999" d="M271 222l-23 6 18 20z"/><circle r="1" fill="#1d222c" transform="matrix(-8.82988 -22.88317 30.60105 -11.80796 79.7 230.7)"/><path fill="#725d54" d="M151.4 106.9l25.5 7.9-6.3 2.7-33 23.3z"/><path fill="#14263e" d="M176.5 138.3l8-.6 1 14-8 .6z"/><circle r="1" fill="#a1b5c9" transform="matrix(5.8528 -16.1833 27.13377 9.8131 200.8 129.2)"/><path fill="#5a7291" d="M120 215h11v13h-11z"/><circle cx="176" cy="240" r="5" fill="#a8afb2"/><path fill="#aabdcb" d="M231.8 144.1l-29 73 54.3 53.9-47.1-32.9z"/><ellipse cx="11" cy="15" fill="#968370" rx="29" ry="42"/><path fill="#484043" d="M152 84.4l-15.8-11.6 4.8 7.4 28-23.5z"/><path fill="#797a7e" d="M4 223l23-22 21 6z"/><path fill="#826254" d="M41.1 210.7l62.1-87.9 12.3 18.8-66.7 68.8z"/><path fill="#4c4748" d="M4.3 246.4L-14 218.8l47.5 19.9-18.7 2.7z"/></g></g></svg>