<svg xmlns="http://www.w3.org/2000/svg" viewBox="0 0 2896 2896"><defs/><filter id="a"><feGaussianBlur stdDeviation="12"/></filter><rect width="100%" height="100%" fill="#5b4036"/><g filter="url(#a)"><g fill-opacity=".5" transform="translate(5.7 5.7) scale(11.3125)"><circle cx="218" cy="81" r="163" fill="#d2efee"/><circle cx="8" cy="35" r="118" fill="#646460"/><circle r="1" fill="#320c00" transform="rotate(-85.5 96.7 -49.7) scale(12.9828 46.12682)"/><circle r="1" fill="#c8c9d7" transform="rotate(11.6 -732 605.4) scale(37.08464 57.65972)"/><path fill="#afc8da" d="M271 62L-14 0l281-16z"/><circle r="1" fill="#042326" transform="matrix(-2.29716 -28.55107 35.74622 -2.87607 148.4 241.2)"/><path fill="#bfbfaf" d="M1.6 129.6L-11 65l33.4-6.5L35 123z"/><circle r="1" fill="#68685d" transform="matrix(65.80806 -43.75348 12.93113 19.44925 165.7 181.8)"/><ellipse cx="64" cy="246" fill="#001615" rx="54" ry="32"/><circle r="1" fill="#5a311f" transform="rotate(-55.1 123 -18.8) scale(44.15514 27.7415)"/><circle r="1" fill="#c7c8b6" transform="rotate(88.3 51.5 156.4) scale(38.53189 93.1422)"/><ellipse cx="12" cy="35" rx="29" ry="25"/><ellipse cx="254" cy="217" fill="#b6b2a6" rx="63" ry="37"/><circle r="1" fill="#fff" transform="matrix(25.66154 .80645 -.47506 15.1165 215.7 1.5)"/><circle r="1" fill="#848378" transform="matrix(-23.65726 2.44474 -6.42782 -62.20069 .1 161.4)"/><path fill="#9eb3a7" d="M40 31h59v27H40z"/><path fill="#5d5b3f" d="M161 140l6 44 102-11z"/><path fill="#101b21" d="M98 28h21v34H98z"/><path fill="#3e2413" d="M128 31l50 32 32-6z"/><circle r="1" fill="#cfdbea" transform="matrix(34.44188 1.08238 -.62822 19.99017 117.4 134.7)"/><ellipse cx="156" cy="68" fill="#c9c8bd" rx="54" ry="8"/><circle r="1" fill="#948d91" transform="matrix(30.39727 -3.51195 2.82242 24.42918 118.1 204.3)"/><path fill="#301e16" d="M55 269l34-99-63 35z"/><circle r="1" fill="#9e897b" transform="rotate(-171.4 66.5 41) scale(63.88964 20.0983)"/><path d="M54 19h26v9H54z"/><path fill="#342e5f" d="M97 42L86-16l16 21z"/><circle r="1" fill="#6b5c53" transform="matrix(-4.22287 10.60767 -50.80428 -20.22495 213 250.8)"/><path fill="#357c9a" d="M233 40h23v22h-23z"/><circle r="1" fill="#65b7aa" transform="rotate(29.3 -163.6 528.4) scale(27.75587 23.12449)"/><circle r="1" fill="#bec9cb" transform="rotate(38 33 315.9) scale(60.52323 8.29517)"/><circle r="1" fill="#876559" transform="rotate(-22.2 472 -86) scale(15.50686 34.56775)"/><path fill="#50311b" d="M215.7 63.5l-66-3.7-61.6-37.1 70.3 18.2z"/><path fill="#c3d8d7" d="M190.7 112.1l33.7-9.3 33.9 27.1-34.5 2.1z"/><path fill="#1e2725" d="M104.3 252.1l32.8 18.2 33.5-37.8-19.2-23.9z"/><circle r="1" fill="#9baccc" transform="matrix(-16.9151 -22.61087 11.4588 -8.57228 144.4 151.7)"/><path fill="#452f27" d="M66.2 142.8L38 130.2l13.9-31L80 111.8z"/><path fill="#4b4834" d="M153 195l65-51 3 23z"/><circle r="1" fill="#c2c0c2" transform="matrix(12.9575 9.44877 -15.3153 21.00252 85 141.5)"/><circle r="1" fill="#a9a495" transform="rotate(70.7 -37.6 239.5) scale(18.05915 36.23278)"/><path fill="#6e7283" d="M128 31.2L106.7-.3l13.3-9 21.3 31.6z"/><path fill="#a5b8ac" d="M44.2 18.6l-7.1 10.7 63.8 20.6-31.1 5.3z"/><circle r="1" fill="#6a5d4c" transform="rotate(15.9 -627.1 906.2) scale(41.75582 2.4642)"/><path fill="#778a6b" d="M44.6 55.6L20.3 42.7 42.1 82l20.4-25.9z"/><path fill="#423427" d="M44 119.9L31.5 85.8 68 58.7l23.8-6.2z"/><path fill="#8c9386" d="M223.7 23L262-3.4l-25.7 51.7-67.6-50.2z"/><circle cx="83" cy="90" r="25" fill="#8c645b"/><path fill="#8596a1" d="M0 0h91v12H0z"/><path fill="#bfc3be" d="M271 204l-39 39 39 8z"/><path fill="#807f8e" d="M153 150.3l9.7 38.5-48.4 52.3 22.1-76z"/><path fill="#fff" d="M245 26h11v8h-11z"/><path fill="#1c1716" d="M31.1 52.1l16.4-17.8L-16 6.5l58.9 9.6z"/><path fill="#9b947f" d="M182.9 109.2L271 96.7l-34.9-14.1-90.7 28.7z"/><circle cx="179" cy="148" r="11" fill="#a7998b"/><path fill="#a0afb1" d="M94.4 29.7L80.2 17.2l14.1 37.9 6.9 3.4z"/><path fill="#e5f0f9" d="M208.8 16.8l27.2-4.7 35-19.4-96.2-.3z"/><path fill="#cdcbc1" d="M193 63h63v15h-63z"/><circle r="1" fill="#00070a" transform="matrix(-6.26104 -6.80882 10.81094 -9.94117 10.5 46.2)"/><path fill="#585045" d="M11 170h21v67H11z"/><circle r="1" fill="#43524f" transform="matrix(35.04342 -.92932 .17365 6.54826 81.3 255)"/><path fill="#3b4e4c" d="M177 271l2.8-19.7 22.3-13.9-54.6-22.2z"/><path fill="#2d2519" d="M102 77l11 7-10 5z"/><path fill="#b3c0c7" d="M154 37l-3-53 88 83z"/><circle r="1" fill="#a9a99c" transform="rotate(11.3 -335.3 734.1) scale(34.33768 17.35023)"/><circle r="1" fill="#8f887d" transform="matrix(-10.59359 -4.04862 9.01187 -23.5804 0 163.2)"/><path fill="#332e2c" d="M145 37l-42 3-18-18z"/><path fill="#986c5d" d="M174 268l53-25-36-3z"/><path fill="#69382c" d="M83 161l2 7H62z"/><path fill="#c5c1bc" d="M162.8 160.3L143 131.9l128-30.4-118.9 13.7z"/><circle r="1" fill="#bdc3ba" transform="rotate(-88.8 221 -26.4) scale(9.72112 22.64267)"/><path fill="#a48a7a" d="M70 102l49 1-33 14z"/><circle r="1" fill="#262118" transform="rotate(165.7 -3.4 125) scale(52.18539 11.97207)"/><path fill="#756e63" d="M27 113.5L-16 135l58.7-8.9-18.1-71.4z"/><circle r="1" fill="#c5c7ca" transform="matrix(-30.69018 1.59232 -.65682 -12.65956 116.2 152)"/><path fill="#65513f" d="M212.4 148.5l-55.6 55.7 12.5-45.2-3.8 17.8z"/><path fill="#845a34" d="M117 39.6l3.8 25.4 55.5-8.5-67.9-17.3z"/><path fill="#8b4c45" d="M170.3 148l-6.2 3.4-10.4-19.5 6.2-3.3z"/><path fill="#929f9d" d="M223.6 20.4L271 5.1l-53.2 54.3 21 29.9z"/><path fill="#a09a92" d="M156.4 212.5l17.7 10.9 39.2 17.9-38.4-46.2z"/><ellipse cx="58" cy="226" fill="#14110e" rx="8" ry="26"/><circle r="1" fill="#a1998f" transform="matrix(12.16334 -8.52194 15.85237 22.62604 9.5 95.5)"/><path fill="#6c4c3e" d="M48 178l30-61-54 22z"/><path fill="#8f8c89" d="M88.6 217.2l-15.7-14 32.6-25 25.7 45.6z"/><circle cx="86" cy="36" r="3" fill="#3d1b0a"/><path fill="#2f2b2e" d="M64 78h33v3H64z"/><path fill="#9db7c5" d="M66.4 30.6l24.7-9.4-6.5 8.1 6.1-.6z"/><path fill="#8e97a7" d="M79.9 21.1l43.7-14.6-131.1.6 78.3 11.7z"/><path fill="#51535e" d="M119.1 18.7l7.3 11.6-15.1-43.6L127.2 19z"/><path fill="#1a3c4c" d="M226 2l-23-18h30z"/><path fill="#dfe1e6" d="M135 115l25 22-58-16z"/><circle r="1" fill="#c1c5bf" transform="matrix(.151 -4.3242 28.09544 .98111 162.8 65.8)"/><ellipse cx="95" cy="2" fill="#606068" rx="25" ry="3"/><path fill="#694626" d="M33.3 26.3l-41.1-3.5L-10 32l6.5 6z"/><path fill="#79909b" d="M45 19h8v33h-8z"/><path fill="#a7a3a6" d="M87.7 196.3L86.2 157l54.8 23-24.1 22.5z"/><path fill="#acbbc0" d="M118-16h15v48z"/><path fill="#6c8510" d="M68 54L47 76.7 44 74l21.2-22.7z"/><path fill="#bbb3ae" d="M156 140v55l9-24z"/><path fill="#150f11" d="M66 29L44 15l30 6z"/><path fill="#85a2c6" d="M118.6 137.3l10.2-7.4 29.3 9.2-5 8.1z"/><path fill="#aecc54" d="M73 50h23v5H73z"/></g></g></svg>