<svg xmlns="http://www.w3.org/2000/svg" viewBox="0 0 1800 1200"><defs/><filter id="a"><feGaussianBlur stdDeviation="12"/></filter><rect width="100%" height="100%" fill="#353b44"/><g filter="url(#a)"><g fill-opacity=".5" transform="translate(3.5 3.5) scale(7.03125)"><circle r="1" fill="#e8d0a2" transform="matrix(-9.77974 73.29577 -172.00674 -22.9506 229.8 86.2)"/><path fill="#fff0b8" d="M260.4 70.3l4 45-125.2-11.7 59.9-52.1z"/><circle r="1" fill="#786b52" transform="rotate(-159.6 55.2 42.5) scale(255 29.37758)"/><path fill="#566572" d="M-16 116L75-16 271 3z"/><circle r="1" fill="#2f302f" transform="matrix(1.08924 -14.4265 78.73263 5.94451 128.5 127.3)"/><circle r="1" fill="#fff" transform="matrix(19.24775 -.15166 .12615 16.01024 224.3 89.9)"/><circle r="1" fill="#11120a" transform="rotate(-156.9 44.9 75.4) scale(194.84877 29.7469)"/><ellipse cx="117" cy="95" fill="#b89e72" rx="81" ry="19"/><path fill="#e7d2bc" d="M220 115h11v39h-11z"/><circle r="1" fill="#684f2c" transform="matrix(12.32706 -26.34846 14.94952 6.9941 255 120)"/><circle r="1" fill="#5f656f" transform="matrix(3.37022 22.07944 -167.47771 25.56394 234.8 7.7)"/><circle r="1" fill="#a29582" transform="matrix(51.09561 -16.70062 8.32042 25.45635 183 55)"/><circle r="1" fill="#5e5748" transform="matrix(.85025 -9.91776 46.02472 3.94571 111.1 148)"/><circle r="1" fill="#736d57" transform="matrix(-4.34888 -19.54153 54.00474 -12.01853 43.4 90.7)"/><circle r="1" fill="#3e4e5d" transform="matrix(-10.91098 -25.33501 70.75412 -30.47154 60.7 32.4)"/><ellipse cx="202" cy="108" fill="#dcb06a" rx="77" ry="5"/><circle cx="225" cy="93" r="14" fill="#fff"/><path fill="#7e6e55" d="M171 114h45v46h-45z"/><circle r="1" fill="#443d31" transform="matrix(-.14153 1.80081 -42.61077 -3.34888 222.9 141.5)"/><path fill="#2a2f2e" d="M46 113h82v28H46z"/><ellipse cx="217" cy="154" fill="#9e8a71" rx="35" ry="12"/><ellipse cx="150" cy="169" fill="#141515" rx="94" ry="4"/><path fill="#c4aa84" d="M228 45L126 83l145-10z"/><circle r="1" fill="#81837c" transform="rotate(-26.8 184.2 -249) scale(75.35542 15.75608)"/><path fill="#f1d3a0" d="M186 75h24v28h-24z"/><path fill="#574c3c" d="M146 114h74v7h-74z"/><circle r="1" fill="#dcd2c6" transform="rotate(9.4 -780.7 1446.3) scale(12.32179 2.35233)"/><ellipse cx="236" cy="21" fill="#6d6b68" rx="59" ry="18"/><path fill="#c5a97b" d="M122 83h68v23h-68z"/><circle r="1" fill="#5a656c" transform="matrix(-70.37438 41.825 -7.63395 -12.84481 94.7 37.2)"/><path fill="#7c694f" d="M22.8 86.8L137 114.1l-55.2-.4-52.7-1.2z"/><path fill="#473b29" d="M234 114h22v8h-22z"/><path fill="#63594a" d="M188.5 170.1l-77.1-22.7 91.9 3.3 24 8.4z"/><ellipse cx="255" cy="159" fill="#4c4134" rx="19" ry="5"/><path fill="#131719" d="M0 159h155v11H0z"/><path fill="#d2c0aa" d="M233.2 134.9l-20.5-3.9 9.4-9.1 10.5 2.7z"/><circle r="1" fill="#2b3a49" transform="matrix(-111.80973 61.75735 -10.85219 -19.64754 0 31.7)"/><ellipse cx="37" cy="125" fill="#202425" rx="57" ry="13"/><path fill="#5a4f3d" d="M14 75l-30 37 49-1z"/><path fill="#8a7b62" d="M156 122h61v8h-61z"/><path fill="#c2a16c" d="M239.6 103.8l31.4 15.8L237.1 60 271 74.4z"/><path fill="#363837" d="M52.4 128.4l73.9 33.7-93.6-6.4 56.2-48z"/><circle r="1" fill="#a2977f" transform="matrix(-4.28437 -10.4452 56.89895 -23.33861 156.2 73.1)"/><path fill="#e8d1a4" d="M240.3 70l-.6 12-38-2 .6-12z"/><path fill="#36332c" d="M135 157h49v6h-49z"/><path fill="#434542" d="M123.3 145.3l43.9-11.4-60.3-15.7-40.1 9.2z"/><path fill="#a9987c" d="M170 143h50v6h-50z"/><path fill="#f1d5a4" d="M250.6 82.4l3 2.7-22.2 24.5-3-2.7z"/><path fill="#a78c63" d="M172 112l-70-21-7 21z"/><path fill="#f9f9f5" d="M230 81.5l3.3 14.7-27.3 6.3-3.3-14.7z"/><ellipse cx="215" cy="154" fill="#9b896e" rx="56" ry="2"/><ellipse cx="145" cy="121" fill="#5d5a52" rx="36" ry="9"/><path fill="#605b50" d="M113 139h43v19h-43z"/><circle r="1" fill="#3d4a54" transform="matrix(36.74355 -28.8324 6.5304 8.32224 33.6 36.6)"/><path fill="#c3a067" d="M175 103h35v10h-35z"/><path fill="#423f38" d="M246 133h10v12h-10z"/><path fill="#98856c" d="M213 130h29v10h-29z"/><path fill="#e8ded1" d="M213 147h13v3h-13z"/><circle r="1" fill="#747568" transform="rotate(-121.2 52.3 24) scale(14.17784 22.35949)"/><path fill="#1e2c3a" d="M56.9-16L1.3-8.2-16 51.3 3.6 23.1z"/><ellipse cx="227" cy="133" fill="#ded1c4" rx="4" ry="3"/><path fill="#d2b889" d="M194 101l-34 3 42-38z"/><path fill="#a08a65" d="M251 129.5l-21.9-12.6-2.3-8.6 5.5 23.7z"/><path fill="#e7cd99" d="M217.8 101.3l-39.7-7.6 51.8 18.1 2.2-3.6z"/><circle r="1" fill="#baa58d" transform="matrix(.12861 .9917 -12.28059 1.59263 226.4 159)"/><path fill="#bda37a" d="M229 148h27v2h-27z"/><ellipse cx="5" cy="147" fill="#151a1c" rx="13" ry="28"/><path fill="#ae977e" d="M245.7 160.5l.2 1-17.6 4-.2-1z"/><path fill="#848077" d="M213 19l51 23-126 2z"/><path fill="#5c626b" d="M271 20.9l-85.4-6-95.1 15.7L183.7-2z"/><path fill="#e8d8be" d="M223 116h6v13h-6z"/><path fill="#98836a" d="M243 165h13v3h-13z"/><circle r="1" fill="#a79476" transform="matrix(-5.38574 8.46573 -32.59524 -20.7365 255 65.5)"/><path fill="#a1885d" d="M236.8 119.3l-24-1.5 9-.9-16.6 9.4z"/><circle r="1" fill="#918c79" transform="matrix(5.51865 14.22793 -31.83918 12.3496 115.6 77.5)"/><path fill="#5c564a" d="M202.2 139.9l-17.4 3-42-16.4 72.6 7.5z"/><path fill="#e3e0db" d="M218.9 146.3l1-2.9 11.2 4.3-1 2.9z"/><path fill="#99866a" d="M236 145.4l16.1 12.8-27.5-8.8-21.7 12.3z"/><path fill="#544837" d="M213 140h31v3h-31z"/><path fill="#837764" d="M156.2 147.9l53.1 4-42.3-13.2-14.8 3.5z"/><ellipse cx="84" cy="121" rx="9" ry="2"/><ellipse cx="221" cy="162" fill="#4a443a" rx="74" ry="1"/><path fill="#beaa87" d="M154.1 99.9l22-37.7 69.9-3.5L170.9 90z"/><circle r="1" fill="#535a56" transform="rotate(138.7 1 39.3) scale(38.71056 8.97663)"/><path fill="#e6ca9b" d="M253.5 93l-6.6-14-19.4-7.8L247.4 96z"/><path fill="#857358" d="M56 98h33v15H56z"/><circle r="1" fill="#6a7178" transform="matrix(44.76348 -15.58247 3.288 9.44538 125.6 37.3)"/><ellipse cx="231" cy="113" fill="#96743c" rx="85" ry="1"/><path fill="#000209" d="M245 169h11v1h-11z"/><path fill="#41423e" d="M128.9 141.7l-41-23 77.1 15.7-136.3 10.2z"/><path fill="#242828" d="M30.9 130.2l54.9-1.7 25 2.4-17.8 9.8z"/><path fill="#d2b279" d="M260 99l-25 1 8 10z"/><path fill="#302d2a" d="M246 159h10v5h-10z"/><path fill="#584e44" d="M248 165l-8 10-37-11z"/><path fill="#262827" d="M108.5 165.3l20.1-3.8-4.9-9-35.9 22.7z"/><circle r="1" fill="#4b5765" transform="rotate(61.8 40.7 98.9) scale(9.01794 82.52578)"/><path fill="#edd8ab" d="M197 98.4l9.7 3.5 5.8-23.9-12.2 7.8z"/><path fill="#383c3d" d="M54 116h21v11H54z"/><path fill="#796a51" d="M247.8 147.4l4.5-.6-6.5 5.4 25.2 26.1z"/><ellipse cx="254" cy="136" fill="#40392f" rx="26" ry="1"/></g></g></svg>