<svg xmlns="http://www.w3.org/2000/svg" viewBox="0 0 1200 1800"><defs/><filter id="a"><feGaussianBlur stdDeviation="12"/></filter><rect width="100%" height="100%" fill="#304157"/><g filter="url(#a)"><g fill-opacity=".5" transform="translate(3.5 3.5) scale(7.03125)"><circle r="1" fill="#e4e8e3" transform="rotate(98.2 43.6 67.8) scale(106.86016 128.5316)"/><circle r="1" fill="#cae5fc" transform="matrix(73.32206 -10.62713 5.62374 38.80109 145.5 30.5)"/><ellipse cx="102" cy="115" fill="#666460" rx="168" ry="44"/><ellipse cx="70" cy="230" fill="#232826" rx="40" ry="130"/><circle r="1" fill="#d1b691" transform="rotate(77.8 -34.5 74.9) scale(62.49194 13.90344)"/><path fill="#8b4614" d="M72.7 107.7L72.5 29l-19.6.3-10 12.7z"/><path fill="#c2996f" d="M119 198l11-38-38-53z"/><path fill="#0b0800" d="M78 161l-57 40 5-66z"/><ellipse cx="155" cy="117" fill="#537fa9" rx="37" ry="45"/><ellipse cy="244" fill="#ffefb1" rx="5" ry="25"/><path fill="#c2bdb0" d="M19 70l-35-40 148 39z"/><circle r="1" fill="#6192c8" transform="rotate(-10.8 38 -403.7) scale(169 26.43003)"/><path fill="#2c282b" d="M97.8 109L68.2 72.5l-5.1 53.4 21.8-5.3z"/><path fill="#718aa3" d="M117 235h41v21h-41z"/><path fill="#030a14" d="M40 272.5l4.2-60.8 53.9 3.8-4.3 60.8z"/><path fill="#6d8aa7" d="M15 218l27-19 1 30z"/><ellipse cx="150" cy="218" fill="#0e181a" rx="35" ry="16"/><circle r="1" fill="#d5dbd4" transform="rotate(7.5 -336.8 1202.9) scale(54.66447 20.21658)"/><circle r="1" fill="#4f7191" transform="rotate(-108 95 38.3) scale(24.17001 12.46112)"/><ellipse cx="112" cy="97" fill="#d19f74" rx="7" ry="42"/><path fill="#573525" d="M61.9 87.3l-10.1-3.8L69.6 32l3.3 8z"/><circle r="1" fill="#ffefbd" transform="rotate(-86 73.5 47.1) scale(33.30012 1)"/><path fill="#341a15" d="M124 92l9-25-16 4z"/><path fill="#415b70" d="M16.4 67.8l16.1 7.9-46.4 48.2-2.1-43.8z"/><path fill="#465f7b" d="M77.5 190.5L87.9 206l-19 39.5-7.1 6.7z"/><path fill="#ffae5d" d="M88 71l-6 17 37-27z"/><circle r="1" fill="#6a4e2f" transform="matrix(3.7957 27.54967 -8.37891 1.15442 51.7 196.3)"/><path fill="#3d3830" d="M33.2 109l12 14 13.3 31.2-28.9-10.3z"/><path fill="#6d8caf" d="M102 220h10v21h-10z"/><path fill="#0b0a10" d="M54 28h13v11H54z"/><path fill="#445869" d="M115 123h26v61h-26z"/><path fill="#ffae61" d="M50 43h12v30H50z"/><path fill="#0c0600" d="M13.7 218.6L36 232l-5.7 9.4L8 228z"/><circle r="1" fill="#8cb1c8" transform="matrix(-24.93305 16.09851 -7.32682 -11.34764 21.3 46)"/><ellipse cx="111" cy="169" fill="#f5c18b" rx="3" ry="14"/><circle cx="48" cy="98" r="18" fill="#ceb28b"/><ellipse cx="58" cy="121" fill="#000007" rx="2" ry="19"/><circle r="1" fill="#453b3a" transform="matrix(-16.97013 -4.80206 2.03803 -7.20224 66 79.7)"/><path fill="#99b4cf" d="M185 1L89 54 53 16z"/><circle r="1" fill="#486e99" transform="matrix(6.98758 13.56686 -45.91108 23.6464 21.4 0)"/><path fill="#212c2f" d="M-16 154.6L42.2 271l-24.6-72.2-6.6-72.5z"/><path fill="#3f6f99" d="M90 83h18v27H90z"/><path fill="#c4ccc5" d="M76.5 44.3l24.7-4.7 62.7 32.1-97.7-6.5z"/><path fill="#7d848c" d="M143.4 145.3l-32.7-3.9 74.3 22-59.9-7.9z"/><path fill="#5e615f" d="M7 260l-6-53 41 64z"/><path fill="#7a99b6" d="M135 74h35v23h-35z"/><circle r="1" fill="#886e47" transform="rotate(-176.5 12 82.8) scale(3.04165 28.98055)"/><path fill="#6e859a" d="M92 207l-20 7-2-15z"/><path fill="#000c33" d="M79 211h21v36H79z"/><path fill="#0f0f0d" d="M71.1 158.3l-43.6-15.7 47.3 68.5L49.5 271z"/><path fill="#f7b06d" d="M106 139l-13-15 2-19z"/><path fill="#14293a" d="M115.3 211.5l5.6-30.6-36.2 1.7-28.1 9.7z"/><path fill="#314e66" d="M69 142h36v38H69z"/><circle r="1" fill="#907453" transform="matrix(1.81245 .0823 -1.08474 23.88793 166.9 179.5)"/><path fill="#0d0e0d" d="M33 141l18 75-22-37z"/><path fill="#3a566d" d="M0 75h18v80H0z"/><path fill="#3f3e41" d="M106.2 113.5l-43.7 5.9 12-32.9-41.4-27.9z"/><path fill="#866450" d="M102.6 160.8l14.1-71 2-32.2 2.5 33.7z"/><path fill="#627ea1" d="M132.5 271l8.1-39.8 9.4 1-4.2 38.4z"/><path fill="#ebc9a3" d="M112.2 66.5l3.2 26.7-10.2 7.3 5.7-10z"/><ellipse cx="169" cy="243" fill="#2d2a26" rx="11" ry="64"/><path fill="#cbb18d" d="M50.5 131.1l7.4-23.1 9.9-19.5-34.9 14.2z"/><path fill="#9e8364" d="M103.5 159l19.9 7.2-14 79.4 19.1-84.5z"/><path fill="#6f6454" d="M41 84h5v18h-5z"/><path fill="#e9d8c1" d="M21 78h3v31h-3z"/><path fill="#d2a37a" d="M119 160l-9 3-6-33z"/><path fill="#617b94" d="M15 206l27 12 2-15z"/><path fill="#293237" d="M74 42l-7-12 3 26z"/><path fill="#ffefc1" d="M121 121l-8 3 8-9z"/><path fill="#556a7b" d="M110.7 144.9l-33.3-35.6-6 60.9-.3-18z"/><path fill="#090905" d="M63 235l-25 36 7-62z"/><path fill="#314f6a" d="M81.7 223.8l33.5-6.3-28.8-18.9 19.6 27.6z"/><path fill="#0f191f" d="M138 217l-1 24-10-6z"/><path fill="#dfbd91" d="M60 114h3v31h-3z"/><path fill="#262b2b" d="M116.9 233.5l-.1 17.2 34.6 20.3H31.9z"/><path fill="#2a4560" d="M117 134h27v9h-27z"/><circle r="1" fill="#2d231e" transform="matrix(-2.80515 1.26884 -7.53312 -16.65423 85.1 107.2)"/><path fill="#825736" d="M67.2 83.3l-2.7 27.3-9.3-1.3 30.7-21.1z"/><path fill="#efdab8" d="M32 80h5v26h-5z"/><path fill="#a7b3af" d="M0 52h44v20H0z"/><path fill="#34434e" d="M127.3 160.9l41.3 57.7-20.1-2.9-28.8-15.3z"/><ellipse cx="88" cy="69" fill="#cabdac" rx="23" ry="5"/><path fill="#403534" d="M114 79l12 9 10-18z"/><path fill="#bf9e6f" d="M17 138l4 13 4-24z"/><path fill="#3c3839" d="M128.9 157.8l-13.9-1.9 9 8.2-18.1 25.5z"/><path fill="#feefca" d="M110 131h5v8h-5z"/><path fill="#776046" d="M54 221l-6-39 14 22z"/><path fill="#5a7993" d="M104 122l6-51-26 22z"/><path fill="#9a4d13" d="M45 39l27 7-22-15z"/><path fill="#87a4c2" d="M126.6-16L-16 45.2l70.2-18.5L89 38.8z"/><path fill="#f19f64" d="M117 72l-5-10-24 13z"/><path fill="#323337" d="M75 102.4l5.8 30.5-13.7 2.7-6-30.5z"/><path fill="#ebcca8" d="M117.2 96.3l-3.9.9-4.5-19.5 3.9-.9z"/><path fill="#0a0e10" d="M28 255l-1-30 11 15z"/><path fill="#3e3e3d" d="M43 121l-14 18 28 15z"/><path fill="#262823" d="M7.2 237.4l9.4-26-.9 34.6-6.1-4z"/><path fill="#1f313c" d="M24 149l-6 54 16-4z"/><path fill="#b09167" d="M18 176h2v25h-2z"/><circle r="1" fill="#081621" transform="matrix(4.7166 -4.50728 8.93052 9.34525 151.5 227.8)"/><path fill="#4e6273" d="M134 122l-23-18 20-9z"/></g></g></svg>