<svg xmlns="http://www.w3.org/2000/svg" viewBox="0 0 1800 1200"><defs/><filter id="a"><feGaussianBlur stdDeviation="12"/></filter><rect width="100%" height="100%" fill="#513d33"/><g filter="url(#a)"><g fill-opacity=".5" transform="translate(3.5 3.5) scale(7.03125)"><circle cx="112" cy="26" r="167" fill="#9eb2c0"/><circle r="1" fill="#000318" transform="matrix(-4.657 -76.14143 45.93209 -2.80933 159.3 140.4)"/><circle r="1" fill="#fff" transform="matrix(-40.6317 -18.87662 11.96643 -25.7576 211 60.4)"/><ellipse cx="21" cy="41" fill="#c8d1cc" rx="54" ry="112"/><circle cx="147" cy="43" r="24" fill="#0b0007"/><circle r="1" fill="#000006" transform="matrix(-13.0907 -11.14105 31.64866 -37.18705 255 .9)"/><circle r="1" fill="#edf0ee" transform="rotate(-92.1 85.7 -25.7) scale(48.51589 7.55276)"/><ellipse cx="96" cy="13" fill="#441b00" rx="10" ry="92"/><ellipse cx="96" cy="139" fill="#332125" rx="24" ry="21"/><path fill="#c9cec9" d="M197 39h33v74h-33z"/><circle r="1" fill="#8c8d81" transform="rotate(-107.4 63.4 36.2) scale(47.85688 25.77342)"/><ellipse cx="96" cy="109" fill="#eef5f8" rx="19" ry="7"/><circle r="1" fill="#cbd3db" transform="matrix(-12.00195 29.5405 -35.4341 -14.39645 9.6 32.6)"/><path fill="#251719" d="M75 81h32v23H75z"/><circle r="1" fill="#dbdfdc" transform="matrix(58.1364 24.08089 -5.36172 12.94434 228.9 55.4)"/><path fill="#544640" d="M78 0l167 40-29-44z"/><circle r="1" fill="#dfd4c3" transform="matrix(-.52649 -9.41695 26.22248 -1.46606 49 147.4)"/><circle cx="235" cy="156" r="43" fill="#59506f"/><ellipse cx="241" cy="82" fill="#4a5057" rx="99" ry="3"/><circle r="1" fill="#8a736f" transform="rotate(2.7 -3004 3035) scale(26.40866 7.41)"/><path fill="#1b2c3b" d="M114.3 101l116.5 32-97.3 4-27.8-4.2z"/><ellipse cx="79" cy="35" fill="#2e4245" rx="5" ry="63"/><path fill="#797a76" d="M52.1 131.1l15.4-16.5-19.2-40.4-64.3 54.6z"/><path fill="#05151d" d="M182.4 156l-4.7 26.6-60-10.6 4.6-26.6z"/><path fill="#c7c9c6" d="M107.2 89.6l.5-83.6 5.1 20.5 24 53.7z"/><path fill="#514541" d="M-8 172l13-27 86 40z"/><path fill="#775c5c" d="M129.9 82.4l-1.9-2.6 9.6-41.3 35.2 32.8z"/><path fill="#091a21" d="M164.9 55L120 27.8l21.2-7.6 22.6 8.5z"/><path fill="#9a9ba9" d="M225.5 133l-34 30.8-3.2 19.3L268 93.7z"/><path fill="#d6d8d4" d="M271 26.9l-60.8 76.2 15.6 4.9 19.7-25.4z"/><path fill="#d6d4d2" d="M77 105h30v14H77z"/><path fill="#bfc1c2" d="M126 13.7L177.1 26l-70.7-13.7.7 74.1z"/><path fill="#745f5c" d="M258 28l13 26-74-27z"/><circle cx="240" cy="143" r="12" fill="#171425"/><path fill="#939fb0" d="M229.9 120.3l5.5-17.1 44.7 14.5-5.5 17.1z"/><circle r="1" fill="#001521" transform="matrix(28.42752 -27.96447 8.47018 8.61043 255 0)"/><path fill="#b5c4c0" d="M64 94h7v76h-7z"/><circle r="1" fill="#716961" transform="matrix(-4.06291 -30.15382 6.84302 -.92202 168.7 34.9)"/><path fill="#61505a" d="M172.2 185l89.9-100.2-93.4-8.9L243 88.5z"/><path fill="#2e292e" d="M94 144l-20 16v-47z"/><circle cx="186" cy="40" r="15" fill="#dde0dd"/><path fill="#dcc6ae" d="M0 130h39v18H0z"/><path fill="#b82832" d="M200 134l9 2-10 31z"/><path fill="#8b6d51" d="M81 75h26v14H81z"/><path fill="#000008" d="M81.6 3.8l-.2-7 29-.6.2 7z"/><path fill="#dce1e0" d="M117 16h17v7h-17z"/><path fill="#2a212d" d="M79 88h32v13H79z"/><path fill="#cbc5b4" d="M9 45h14v68H9z"/><path fill="#54546f" d="M257.7 68.4l17.9 14.5-23.3 28.7-17.9-14.5z"/><circle r="1" fill="#233849" transform="matrix(-13.59356 14.63069 -18.68778 -17.36306 176.1 100)"/><path fill="#5b5552" d="M-2.5 173.4l-13.5-37 79 40.9-2.4-26.2z"/><path fill="#9ca1a3" d="M203 55h34v9h-34z"/><path fill="#3f414b" d="M193 115h28v21h-28z"/><ellipse cx="208" cy="82" fill="#717677" rx="2" ry="29"/><circle r="1" fill="#d6dad7" transform="matrix(3.64299 -8.4099 17.82092 7.71965 244 54.7)"/><path fill="#f9f2dc" d="M32 130.1l12-10.5 2 2.3-12 10.5z"/><path fill="#5f4533" d="M79 4h37v9H79z"/><path fill="#718aa3" d="M265.6 149.8l-28.5 18.6-2.7-4.2 28.5-18.6z"/><path fill="#777279" d="M83 176.3l6-28.9 33.6 37.2-5.1-35z"/><path fill="#896f6e" d="M165 152l-4-20-22 16z"/><ellipse cx="239" cy="169" fill="#201d29" rx="35" ry="5"/><path fill="#4e5e77" d="M64 122l-8 16-19-6z"/><circle r="1" fill="#625651" transform="matrix(.23372 -1.32297 33.71331 5.95599 122.5 67.4)"/><path fill="#c7c6bd" d="M196.8 52.4l-9 8.6-21 7.4-4.4-4.4z"/><ellipse cx="51" cy="8" fill="#99a7b1" rx="24" ry="62"/><path fill="#cb9a9f" d="M212.4 158l7.9-17.4-24.4-5.5 10.6 4z"/><path fill="#c3c7c7" d="M228 103l-38-21 45 3z"/><path fill="#b2b2ae" d="M114.5 104.6l18.9-35.9-12.3-13.5-16.6 68.6z"/><path fill="#9fb3bd" d="M85.4 61.5l-1.8-53h3l1.8 53z"/><path fill="#48505d" d="M138 64l-8 58-20-9z"/><path fill="#0f1b24" d="M127 87h41v8h-41z"/><path fill="#18222b" d="M129 127.4l4.7 37.7-14.1 19.9 22.1-57.1z"/><path fill="#6a737a" d="M56.3 104.3L42.5 65.2l-17.4 62.7-15.8-2.7z"/><path fill="#17232c" d="M157.9 20.8l6.4 12.2-38.9 7.7-4.3-15.2z"/><path fill="#e7ddce" d="M44 139h27v8H44z"/><circle r="1" fill="#736b67" transform="matrix(13.2258 -27.5338 8.97708 4.31212 221.3 6.5)"/><circle r="1" fill="#6d888d" transform="matrix(-2.4885 -.107 2.72126 -63.28528 74.2 52.6)"/><path fill="#7a6b68" d="M249.1 26.4l9-2.9.9 27.9L210.3 34z"/><path fill="#7f7070" d="M91 126l24 24 13-7z"/><circle r="1" fill="#5d5153" transform="matrix(-2.58804 -1.32437 33.00268 -64.49288 161.7 51)"/><circle r="1" fill="#cdd6dc" transform="matrix(7.59802 -25.08968 5.2729 1.59682 20.9 38.5)"/><path fill="#6a7084" d="M-4.8 103.8L4 99.3l12.7 24.9-8.9 4.5z"/><path fill="#acb4b3" d="M3 107l-19 25 17 53z"/><path fill="#223441" d="M166 107h32v53h-32z"/><circle r="1" fill="#614a4e" transform="matrix(11.37823 -6.30276 11.97844 21.6244 142.8 61.9)"/><path fill="#9f9981" d="M56.7 132.9L18.1 84.1 16 117.4l20.7 5.2z"/><path fill="#9696b0" d="M249.8 124l11.4 53.8-1 .2-11.4-53.8z"/><path fill="#e5e7e6" d="M107 18h5v45h-5z"/><path fill="#1b262d" d="M163 33l8 26-10 1z"/><ellipse cx="82" cy="73" fill="#97aebd" rx="5" ry="4"/><path fill="#4d505e" d="M192.4 78.3l-50.6 10.4 29.1-20.9 37.3 76.1z"/><path fill="#6a7486" d="M178 137l8 15 1-9z"/><path fill="#503930" d="M23 179l6-25-45 9z"/><path fill="#e7e9e2" d="M178 68h29v7h-29z"/><path fill="#e5e7e0" d="M246 81l-27-2 23-15z"/><path fill="#bdc0c1" d="M98 119l-15-12 35-7z"/><circle r="1" fill="#aeafa8" transform="matrix(5.45936 -.3991 .66605 9.11123 174 44)"/><path fill="#adc6d2" d="M192 166h8v4h-8z"/><ellipse cx="71" cy="117" fill="#81938e" rx="3" ry="60"/><path fill="#85909e" d="M251.1 103.6l10.7 39.6-22.3-45.3-10.1 20.3z"/></g></g></svg>