<svg xmlns="http://www.w3.org/2000/svg" viewBox="0 0 3168 4752"><defs/><filter id="a"><feGaussianBlur stdDeviation="12"/></filter><rect width="100%" height="100%" fill="#4f4b42"/><g filter="url(#a)"><g fill-opacity=".5" transform="translate(9.3 9.3) scale(18.5625)"><path fill="#99a29f" d="M8.3-34.8L144-1l-34.4 137.8L-26 103z"/><circle r="1" fill="#b8bfb1" transform="matrix(112.31433 -6.95536 1.7758 28.67547 70.6 255)"/><circle r="1" fill="#99a2b3" transform="rotate(88.8 -58.1 164.7) scale(102.9297 15.72187)"/><path fill="#c7d5f5" d="M135.9-10.5L98.7 40.1l-.5-3.9 4.4 62.8z"/><path fill="#1a1b15" d="M96.8 79.7l-1.3 47.6-41.1-64.6L65.5 58z"/><ellipse cx="50" cy="167" fill="#323923" rx="38" ry="65"/><circle r="1" fill="#908b79" transform="rotate(113 -43.3 65.5) scale(34.73239 38.43598)"/><ellipse cx="92" cy="239" fill="#fff" rx="25" ry="5"/><circle cx="169" cy="132" r="37" fill="#151e0e"/><path fill="#070f0e" d="M33.7 228.8l-66 3.4-1.4-27 66-3.4z"/><circle r="1" fill="#414a4c" transform="matrix(20.92886 119.3588 -8.36223 1.46627 132.5 212.9)"/><circle r="1" fill="#a8b5d4" transform="rotate(31.6 63.1 233.8) scale(14.27631 25.95381)"/><path fill="#4a4936" d="M-30.6 88.9l80-26 5.2 16.2-80 26z"/><path fill="#272417" d="M26.8 24.7l3.5-8.3 35 14.9-3.6 8.3z"/><path fill="#272b2f" d="M114.7 38.9l18.5-12L159.3 67l-18.5 12z"/><path fill="#444737" d="M10 117h88v27H10z"/><path fill="#bdbfbe" d="M57.1 32.2l47.8-13.6L75 13.7 139.1-16z"/><path fill="#9a9881" d="M39 136l45-22 7-31z"/><path fill="#b1b1b0" d="M39.2 37.2l26.2 10.7-27.2 16.3-20.6 6.7z"/><ellipse cx="121" cy="79" fill="#5f6780" rx="9" ry="48"/><path fill="#b2b4c5" d="M83 219h48v7H83z"/><path fill="#99968e" d="M125.3 22.7l30.4 25 4.3-20.4-27.9-.4z"/><circle r="1" fill="#beb99b" transform="rotate(63.7 -20.4 16.4) scale(32.46758 5.81362)"/><path fill="#bbc8c4" d="M-.3 116.4l-2-12.9 24.6-3.9 2 12.9z"/><circle r="1" fill="#aab7cd" transform="matrix(-2.30073 43.9005 -5.36121 -.28097 107.1 79)"/><path fill="#384237" d="M114 90l71 147-74-71z"/><path fill="#414332" d="M17.4 69.4L4.9 67.3l.1-7 42.6-41.5z"/><path fill="#292e19" d="M134.9 203.2l23 27.4-39 10 14.9-13z"/><circle r="1" fill="#727778" transform="rotate(-41.2 196.3 -167.8) scale(91.06168 5.41502)"/><path fill="#c1c6a8" d="M55.1 17.8l-71.1-33 8.2-.8 40.5 31.5z"/><path fill="#292721" d="M38 147l5-51 18 2z"/><path fill="#a4a392" d="M37.2 83.3l-.5-8.1 46.7 28.2-4.4 17.4z"/><path fill="#292b23" d="M72.9 57.7l-5.9-3 .3 37.9L96.5 91z"/><path fill="#c0b7a7" d="M24.5 39.4L-16-11.8l9.1 30.7 46 11.8z"/><path fill="#828460" d="M185 270.9l-201-15.6 19.1-27 88.1 15z"/><path fill="#252827" d="M55 185.5v-27h42v27z"/><circle r="1" fill="#686446" transform="matrix(1.68629 -16.52533 18.0742 1.84434 83.2 41.4)"/><path fill="#c0a190" d="M122 214l-12-39 13-1z"/><path fill="#373528" d="M48 14.1L63-16H15.7z"/><path fill="#aeada8" d="M11.3 124.8l-8.5 23.5-14.1-5.1 8.5-23.5z"/><path fill="#e1ecfd" d="M121 242l-9-16-22 13z"/><path fill="#1f2721" d="M185 55l-43 14 31-60z"/><path fill="#b9a6ba" d="M82 203h5v16h-5z"/><path fill="#dbe4e9" d="M112 36.8l-7 10.7 5 14.2 13.9-66.2z"/><path fill="#b1ae91" d="M6.2 55.2L-16 121.6l17-81 31.2 14.1z"/><path fill="#373b2d" d="M37 115l59 17-3-16z"/><path fill="#6c6753" d="M50 163l-13-12-26 38z"/><path fill="#474040" d="M97.8 13.7L73.9 8.1l36.9 12.5L113.3 0z"/><circle r="1" fill="#959492" transform="matrix(38.63966 -11.22586 1.05347 3.62607 150.4 238.5)"/><path fill="#d7d3cd" d="M136 170h34v1h-34z"/><ellipse cx="82" cy="53" fill="#95995a" rx="9" ry="20"/><path fill="#5a5a5e" d="M60.1 271l96.1-32.8 19.5 8.6-41.4 17.5z"/><path fill="#2c3130" d="M147 33l-24 25 25 54z"/><path fill="#7e8298" d="M127 195h5v35h-5z"/><path fill="#6a7280" d="M129 11l55-3-66-24z"/><path fill="#a8a79b" d="M66.7 23.2l38.7-15.1L61.2-8l48.3 36.7z"/><path fill="#95947c" d="M47.3 95.8l25.5-33.4L42 77.5l-6 26.6z"/><path fill="#a0acbf" d="M96.3 88.9l3.6-41.2 16.6 28.1-14.9 20.1z"/><path fill="#979688" d="M151 35l-11 15 16-3z"/><path fill="#9ca08a" d="M16.7 82.3l-29-15.9 45.9 5.1V40.3z"/><path fill="#313629" d="M10 185h69v43H10z"/><path fill="#9ba0a1" d="M66.8 52l-.9-17.6-31.2 9.2-12.9 12z"/><path fill="#565c64" d="M74 241.9l24.3-60.2-.1 26.2L127 192z"/><path fill="#3c3c37" d="M45.6 29.2L10.1 66l20.3-3.1-14.6-19.3z"/><path fill="#223" d="M80 49h19v5H80z"/><path fill="#313431" d="M139.9 186.1L98.7 162l73.2 17.5 2.6 15.9z"/><path fill="#4f574f" d="M105.7 102.1l72.6 28.2-52.4 4.9 1.3 39.3z"/><path fill="#9ca2a8" d="M65.4 13.1l19.5-1.9-33.6 17.3 9.9-16.2z"/><circle r="1" fill="#3b3b39" transform="rotate(-44.7 112.7 9.8) scale(20.33391 4.55546)"/><path fill="#534f2c" d="M17 22l20 5L6-2z"/><ellipse cx="80" cy="31" fill="#2f3135" rx="26" ry="2"/><path fill="#c2cdda" d="M119.1 17.1l26.2-7-21.7 16.8-11.8-41.3z"/><circle r="1" fill="#7e9093" transform="matrix(14.28604 -12.28793 4.3163 5.01817 102 139.6)"/><path fill="#4a4230" d="M12 145l-19-20 32 15z"/><path fill="#9da384" d="M70 126l-10-21 22 5z"/><path fill="#adaeaa" d="M85.3-.1l-19 2.9-17.2-7.7 9.6 13.2z"/><path fill="#2b2b1f" d="M0 77h6v22H0z"/><path fill="#747987" d="M103.9 58.4l21.7 32.8-4.5-64.7 13.5 14.9z"/><path fill="#b5b7ac" d="M37.4 3.9l.5-2.7 4.8 22.5L28.6 8.4z"/><path fill="#aca289" d="M48.4 229.7l31.8 9.4-24.1 6.9-26.4-11.5z"/><path fill="#514745" d="M103 208l17 5-8-26z"/><path fill="#404438" d="M48.9 111.7l34.8 27.7L57 107.7l11.9-31z"/><path fill="#3f424d" d="M89 65h8v63h-8z"/><path fill="#181614" d="M153 138h17v30h-17z"/><path fill="#9b9c95" d="M59.6 74.3l-19.2-6.5 8.1-4.5L-16 29.8z"/><path fill="#aab3c6" d="M105 227l3-18 12 39z"/><path fill="#b3bdb6" d="M81.5 58.2l23.6 4.6-.6 3-23.6-4.6z"/><path fill="#292d1e" d="M143 101l40-15-42 63z"/><path fill="#d2dae4" d="M105.2 36.1l-2 15.5 13.1-6.6 8.9 14.9z"/><path fill="#d4dee8" d="M122.7 25.9l-12.2 14.7 5.1-18.2-15 15.2z"/><path fill="#a4a283" d="M85.8 34.1l12.3 17.7-20.6-10.7-17.2 4.2z"/><path fill="#736f6a" d="M150 185.4l3-56.9h1l-3 57z"/><path fill="#5e5f3f" d="M6.2 47.3l4.5 3.3 18.4 26-26.3-16z"/><path fill="#47473f" d="M73.7 54.9L47.6 28.3 65.3 9.2 34.9 24.8z"/><path fill="#746b68" d="M130.5 18.1l14.4 1.8L185-8.4l-51.1 42.6z"/><path fill="#7c8280" d="M124.2 188.9l36.2 31.5-.6.7-36.2-31.5z"/><path fill="#c6c7be" d="M143 31h14v3h-14z"/><path fill="#293024" d="M44.4 75.5l8.5-5.3 2.7 4.3-8.5 5.3z"/><path fill="#303331" d="M57 52.7l-6.7 9.8 26.8 13.4-3 31.4z"/><path fill="#47505f" d="M114.7 69.4L112.1 51l2.9 3.4 17.9 23.3z"/></g></g></svg>