<svg xmlns="http://www.w3.org/2000/svg" viewBox="0 0 3168 3168"><defs/><filter id="a"><feGaussianBlur stdDeviation="12"/></filter><rect width="100%" height="100%" fill="#2a3f3d"/><g filter="url(#a)"><g fill-opacity=".5" transform="translate(6.2 6.2) scale(12.375)"><circle r="1" fill="#d6c599" transform="matrix(-9.07696 200.45421 -227.06815 -10.2821 109.6 164.5)"/><ellipse cx="200" cy="51" fill="#497100" rx="73" ry="70"/><circle r="1" fill="#e8ebfe" transform="rotate(-146.2 33.7 35.7) scale(17.33356 54.13083)"/><circle r="1" fill="#1f2734" transform="matrix(31.53704 -36.02447 23.89932 20.92228 88.4 167.7)"/><circle r="1" fill="#fff3eb" transform="rotate(3.6 -2894 269.2) scale(30.15121 25.49696)"/><circle r="1" fill="#fff" transform="matrix(-16.84162 -18.63899 68.69581 -62.07143 9.3 .1)"/><ellipse cx="131" cy="152" fill="#d9a597" rx="21" ry="83"/><circle r="1" fill="#31192f" transform="matrix(10.99978 -23.10145 22.13874 10.54139 98 69.4)"/><path fill="#afa09e" d="M41 213h215v41H41z"/><circle r="1" fill="#0088ac" transform="matrix(20.16467 17.3583 -9.13598 10.61302 70.4 102)"/><ellipse cx="131" cy="9" fill="#a1d730" rx="31" ry="38"/><ellipse cx="201" cy="137" fill="#b6cacf" rx="25" ry="16"/><path fill="#2e2335" d="M177 179l50 15 26-36z"/><circle r="1" fill="#375272" transform="matrix(-10.18854 -15.43814 48.98793 -32.33002 45 30.5)"/><circle r="1" fill="#4b443f" transform="matrix(-93.72655 -29.8804 5.25658 -16.48843 221 106.3)"/><path fill="#e0c9e3" d="M31.6 85.6L9.1 99.8 27.4 133l40.4-32.1z"/><circle r="1" fill="#005f65" transform="rotate(124.3 2.5 97.5) scale(23.92658 14.82899)"/><circle r="1" fill="#fff" transform="matrix(-1.20994 -6.22462 16.71376 -3.24883 125.8 96.5)"/><ellipse cx="114" cy="156" fill="#724a3f" rx="15" ry="41"/><circle r="1" fill="#fbb1a1" transform="rotate(16.1 -484.5 224.2) scale(10.47147 22.00866)"/><path fill="#8bc02a" d="M177.3 36.7l-14.3-50 81.7-23.4 14.3 50z"/><path fill="#3b2324" d="M197 155l-53 21 20-41z"/><path fill="#cba5ee" d="M234.6 158L192 178l-4.6-10 42.6-20z"/><circle r="1" fill="#e1ebe6" transform="matrix(7.46462 -8.34872 23.45221 20.9687 8.9 11.5)"/><path fill="#ffdeb8" d="M143.3 170.3l-13.5-6.3 16.9-36.3 13.5 6.3z"/><path fill="#444149" d="M79.3 85.8l-12.6 87.3-11.2-38.5 16.7-96.4z"/><circle r="1" fill="#82636c" transform="rotate(6.6 -614.8 2091.8) scale(19.14398 32.88365)"/><path fill="#00aaba" d="M72 101l1 22 41-21z"/><path fill="#f96900" d="M190 192l-27-4 10-23z"/><path fill="#d9c8bd" d="M75 24h43v10H75z"/><circle r="1" fill="#6b3f34" transform="matrix(12.74392 -5.07513 11.50892 28.89954 61.1 199.1)"/><ellipse cx="95" cy="230" fill="#c3b8a5" rx="24" ry="21"/><path fill="#dbc3b9" d="M208.3 203.5l-86.9-1.3 1.1-19.8 43.6 14.4z"/><path fill="#ffb9a5" d="M41 225l-2-31 23 30z"/><path fill="#46464c" d="M-12.6 148.8l9.7-25.2 35.5 13.6-9.7 25.2z"/><circle r="1" fill="#587b1d" transform="matrix(-9.58349 -22.21464 57.44808 -24.78334 185.5 56.4)"/><path fill="#efe7e3" d="M135 96h9v34h-9z"/><path fill="#c58f75" d="M116.3 161.9l-21 20.1-7.6-7.9 21-20.1z"/><circle r="1" fill="#a35d42" transform="matrix(8.1396 -20.91505 15.28372 5.94803 50.8 171.1)"/><path fill="#c1e7b7" d="M177 48l9-17-8-12z"/><path fill="#b6afac" d="M133 117h61v15h-61z"/><path fill="#edfafa" d="M46.9 8.3L4.1 4.4l-19.4-1.3 64.2-9.8z"/><circle r="1" fill="#d6ff27" transform="matrix(18.39818 -5.77644 2.05732 6.55264 204.7 0)"/><path fill="#d6979b" d="M117 99l-50 31 61-17z"/><path fill="#2b481e" d="M252.1-16l-30.4 51.8 36.7 23.7-20.3-23.9z"/><circle r="1" fill="#3c353b" transform="matrix(-6.68539 24.91516 -15.52397 -4.16549 206.9 98.3)"/><path fill="#6f4f4b" d="M100 205h57v10h-57z"/><path fill="#a58e86" d="M66.1 85.4L62 78.9l10.7-52.8 17.5 24.4z"/><path fill="#eef" d="M16.1 127l-9.5-3.1L19.9 83l9.5 3.1z"/><path fill="#a7a995" d="M-3 73l66-30-18 45z"/><path fill="#4f5b85" d="M127 104l-5 25 22-13z"/><path fill="#192b3d" d="M243.4 164.1l-22.2 35.3-33.3 11.2 14.3-1z"/><circle cx="230" cy="148" r="7" fill="#b3d0f6"/><path fill="#dcc0ab" d="M135.3 148.7l2.3 50.1 32.4-20.3-51.7 18.6z"/><circle r="1" fill="#c4af81" transform="matrix(19.9209 -5.2762 .4726 1.78432 212.4 182.6)"/><circle r="1" fill="#005e60" transform="matrix(-14.0016 14.61097 -10.41803 -9.98353 84.4 151.5)"/><path fill="#afaf83" d="M134.4 69.6L90 20l.8-13.9 25.6 20.3z"/><path fill="#d8cabf" d="M36 195l7-63-39 65z"/><path fill="#4b5c34" d="M144 94h47v22h-47z"/><path fill="#0ab8c0" d="M106 109l-26 8 36-29z"/><path fill="#794f42" d="M100 105l13 74 27-40z"/><path fill="#553939" d="M31.6 241.5L66 229.8l-.2-4.1-46.4 14.7z"/><path fill="#3f5a6f" d="M98.5 5.6L97.9-16 24.1 14.1l.3 12.4z"/><path fill="#8f5044" d="M114.4 123.4L70.7 139l43.6 10.2-82-18.7z"/><path fill="#2c3743" d="M-5 39l38 16-43 13z"/><path fill="#7fa433" d="M124 0h19v89h-19z"/><path fill="#00daf5" d="M68 96L55 81l-5 11z"/><path fill="#015b75" d="M69.3 129.2l-27.5-19.4 42.6 10.7L67 90.6z"/><circle r="1" fill="#292d35" transform="matrix(-10.60242 14.96818 -9.69835 -6.86964 104 75.2)"/><path fill="#bc9ea0" d="M39 94.5l1.5 22.1L70.9 104 65 97.5z"/><path fill="#86512c" d="M199.7 178.4l4-11.5-72.3 33.1 38.5-8.6z"/><path fill="#3b363b" d="M184 166.4l-2-4.6 32-14.2 2 4.6z"/><path fill="#d3d4c6" d="M109.2 142.2l-1.5 8.8-7-1.2 1.6-8.8z"/><path fill="#e6e2c5" d="M45.1 57.3l19 6.6-7.2 20.8-19-6.6z"/><path fill="#222632" d="M122.2 174.4l-59.6 29.3-9-12.8 29-4.9z"/><path fill="#c69ab3" d="M16 123h26v11H16z"/><path fill="#b0a49f" d="M211 196l-64-2 12 20z"/><path fill="#8fbf63" d="M215 44l10-11-11-20z"/><path fill="#0e0c26" d="M211 177l19-14-1 15z"/><path fill="#a2938d" d="M-1 258l17-62-32 10z"/><path fill="#656b69" d="M10.3 55.6L24.2 85-8.9 72.9l52 15.8z"/><path fill="#e1f9ff" d="M205 201l-5-1 14-10z"/><circle r="1" fill="#0051d0" transform="matrix(2.11364 1.24503 -1.9408 3.29484 29 174)"/><path fill="#8a8378" d="M95 239h94v17H95z"/><path fill="#cdd2c8" d="M8.1 20.6l4.6 15.6 5.1-3.2 24.7-5.7z"/><path fill="#6e5c5c" d="M5 219h22v37H5z"/><path fill="#766559" d="M227 134l-47-21 38 6z"/><path fill="#eed1c1" d="M132.9 209.7l-11.6-11.1 11.8-12.3 11.6 11.1z"/><path fill="#959785" d="M6.6 144.1l15.6-5-18.5 23.6-19.7-9.3z"/><path fill="#fff6f0" d="M145.8 111l-28.6-16.8 2.1 8.1 19.1-13.1z"/><path fill="#898884" d="M229 182h27v74h-27z"/><path fill="#dffcff" d="M74.7 210.6l-.6 3-10.8-2.2.6-3z"/><path fill="#accc41" d="M110.8 5.1l25.5 16-11.1 17.8-25.5-16z"/><path fill="#605255" d="M91.6 29.8l15.7 8.6-28.1 66.8L85.8 35z"/><path fill="#d1d1c7" d="M13.3 77.4L-16 66.7l48.3 6.7-13.8-1.7z"/><path fill="#414653" d="M7 92.4l1 51-15 .2-1-51z"/><path fill="#687472" d="M18.8 31.2l63.7-11.5-10.8 15-23.9 24.8z"/><path fill="#c7bba8" d="M140 238l-50.9-32.4-23 30.3 36-15z"/><circle r="1" fill="#53534f" transform="matrix(13.50564 -8.21156 4.77225 7.84896 109.4 189.8)"/><circle r="1" fill="#354c59" transform="rotate(167 -.8 13.9) scale(4.34926 4.23671)"/></g></g></svg>