<svg xmlns="http://www.w3.org/2000/svg" viewBox="0 0 1800 1200"><defs/><filter id="a"><feGaussianBlur stdDeviation="12"/></filter><rect width="100%" height="100%" fill="#574d2f"/><g filter="url(#a)"><g fill-opacity=".5" transform="translate(3.5 3.5) scale(7.03125)"><path fill="#aebfd7" d="M144.3-51.9l113 222-109.6 55.8-113-222z"/><circle r="1" fill="#236eca" transform="matrix(4.89467 -40.58599 113.33196 13.66783 68.6 0)"/><circle r="1" fill="#fff2d4" transform="matrix(27.17798 5.24916 -3.26558 16.90782 193 153.1)"/><ellipse cx="33" cy="148" fill="#857364" rx="125" ry="31"/><path fill="#162508" d="M0 72h97v32H0z"/><circle r="1" fill="#e1bd91" transform="matrix(-9.14278 19.17408 -47.06957 -22.4442 138.8 83)"/><circle r="1" fill="#846f41" transform="matrix(-57.71591 -112.90073 16.54394 -8.45742 231.8 132)"/><circle r="1" fill="#333400" transform="matrix(-19.69966 -3.86768 1.5246 -7.76542 91 46.2)"/><ellipse cx="110" cy="141" fill="#25384a" rx="38" ry="12"/><path fill="#c2c7c0" d="M44 125h29v10H44z"/><path fill="#c4a987" d="M138 150h113v20H138z"/><circle r="1" fill="#6f7851" transform="matrix(31.64466 -15.68294 5.44887 10.99461 20 32.8)"/><path fill="#f7fbfa" d="M164 138h50v13h-50z"/><ellipse cx="132" cy="113" fill="#a29f96" rx="54" ry="19"/><path fill="#666435" d="M154 38l16 46-29-12z"/><circle r="1" fill="#5a8bbd" transform="rotate(-117.8 80 -31.4) scale(22.03322 43.62111)"/><path fill="#38669b" d="M60 81L77 0 38-16z"/><ellipse cx="192" cy="31" fill="#72703b" rx="15" ry="70"/><ellipse cx="6" cy="139" fill="#a08158" rx="53" ry="16"/><ellipse cx="125" cy="85" fill="#392a27" rx="3" ry="14"/><path fill="#22260d" d="M76 68l24 20-31 27z"/><path fill="#c5ae86" d="M60 75l13-37 8 28z"/><path fill="#566673" d="M63 116h45v24H63z"/><ellipse cx="152" cy="90" fill="#dac4a8" rx="25" ry="12"/><path fill="#826e58" d="M240.1 142.7L163 56l92.1 63.5-1.5 47.8z"/><circle r="1" fill="#606634" transform="matrix(-4.30203 30.37122 -12.28312 -1.73988 34.8 42.8)"/><path fill="#fff" d="M161 123h4v15h-4z"/><circle r="1" fill="#4067a1" transform="matrix(-10.82268 -13.27464 43.94076 -35.82447 8 14)"/><path fill="#dbdacf" d="M127 117h18v13h-18z"/><path fill="#515a37" d="M71 86l-18 38L35 12z"/><path fill="#a48e6c" d="M66 53h117v12H66z"/><path fill="#4d4637" d="M128 158l-29-9 56-27z"/><path fill="#2c3119" d="M244 109l-31-24h48z"/><path fill="#a2855e" d="M90 155h48v15H90z"/><circle r="1" fill="#3763a2" transform="matrix(63.5326 -5.08171 1.65608 20.70463 98 0)"/><path fill="#b1a18f" d="M195 100h13v39h-13z"/><ellipse cx="219" cy="169" fill="#846948" rx="40" ry="4"/><path fill="#677990" d="M76 133h55v9H76z"/><path fill="#252c15" d="M79 45h30v8H79z"/><path fill="#6c96c5" d="M177 42l-64 2 60-29z"/><path fill="#5a5043" d="M107 87.3l5.9 1.3-8 34.1-5.8-1.3z"/><ellipse cx="231" fill="#53602e" rx="36" ry="98"/><circle r="1" fill="#42491c" transform="matrix(-7.24776 -11.64107 19.82039 -12.34023 71.6 85.5)"/><path fill="#dec6a7" d="M127 64h15v36h-15z"/><path fill="#776546" d="M218.5 67.7L182 83.2l59 51.8-29 16.7z"/><path fill="#c1b8a6" d="M122 88l-21 17 11 21z"/><path fill="#676867" d="M125.9 106.8l23.1 3.7-22.9 11.6 16.5 20.5z"/><path fill="#ddc4a5" d="M100 67h21v21h-21z"/><path fill="#bba080" d="M185.2 126.2l-24.4-74.7 7.8-4.4 21.6 46z"/><path fill="#2c2e1b" d="M23 56l17 39-56 36z"/><path fill="#978674" d="M261.9 174.5l-22.6-59.8.6 15.8-9 5.7z"/><path fill="#3e4347" d="M148.2 91l-5.1-4.8 4.7-5.1 5.1 4.7z"/><circle r="1" fill="#d8dbce" transform="rotate(-50.2 198.7 -110) scale(6.38154 4.25533)"/><path fill="#595845" d="M122 133l-7-22 8-2z"/><ellipse cx="104" cy="147" fill="#302b24" rx="29" ry="5"/><path fill="#b4a68d" d="M130.7 152.4l39.2-8.3 5.4 25.5-39.2 8.3z"/><circle r="1" fill="#373c2b" transform="matrix(5.6567 -29.14325 9.9313 1.92767 45 95.7)"/><path fill="#696849" d="M161 82l-16-27 23 4z"/><path fill="#806649" d="M189 86h7v50h-7z"/><path fill="#37393a" d="M149.5 130l-3.6-9.4 6.6-2.5 3.6 9.3z"/><path fill="#656a3b" d="M176 19l8 48 25-83z"/><path fill="#7d6e56" d="M11.8 107.4l16.6 6.1 21.3 23.4-56.7.2z"/><path fill="#1d1e15" d="M210.3 50.6L208 45l19.6-7.6L230 43z"/><path fill="#c6b29b" d="M116 52h28v10h-28z"/><ellipse cx="86" cy="64" fill="#504131" rx="34" ry="1"/><path fill="#d4dcdf" d="M69 51l-1-9 8-1z"/><path fill="#6c6d33" d="M51.2 121.2l-2.9-26 33 28.1-16.3 1.1z"/><path fill="#654c30" d="M32 152l57 5-92 28z"/><ellipse cx="128" cy="50" fill="#665e14" rx="6" ry="3"/><ellipse cx="108" cy="63" fill="#523b2d" rx="25" ry="1"/><path fill="#507db2" d="M52 22l6 39 23-45z"/><ellipse cx="102" cy="86" fill="#c4a682" rx="4" ry="17"/><path fill="#968169" d="M177 56h26v20h-26z"/><circle cy="94" r="10" fill="#636535"/><path fill="#262b1f" d="M67.2 109l30.4-12.3 1.6-5.2-20.6-12.2z"/><path fill="#696a39" d="M224 103l-2-67 20 18z"/><path fill="#c6c0b1" d="M63.7 133.2l-15 .6-.4-9 15-.6z"/><path fill="#8a847b" d="M79.7 106.2l23.5-9.3 14 9-35.8 10.4z"/><path fill="#5d6845" d="M-1 55l11-33 47 40z"/><path fill="#f9fffa" d="M169 114.5h2v11h-2z"/><path fill="#e6e7de" d="M98 124l-4-19-1 12z"/><path fill="#bfbfb7" d="M130.6 120.9l-3.2 10.5-8.8-19.7 29.7 9.5z"/><path fill="#1f1e11" d="M29.3 80.4l-12.6 9.1-2.4 26.3 22-16.5z"/><path fill="#bfb098" d="M215.3 156.5l19.6-1 8.5 1.8-57.6 20.2z"/><circle r="1" fill="#64625c" transform="matrix(8.27054 17.37038 -1.0805 .51446 178.8 117.4)"/><path fill="#565445" d="M130.6 128.4l26.5 14.1-3.7 7-26.5-14z"/><path fill="#a7a89f" d="M198.5 134.6l-10.3 4.5L215 141l-48.2-40.8z"/><path fill="#ccccc4" d="M128.4 115.9l15.7 16.3-1.7-20.2-16.7 16.1z"/><path fill="#1e230f" d="M246 41l19-26 6 36z"/><path fill="#5885b8" d="M153.6 26.4L95.1 43.7l-2.3-23.6 28.6 33.2z"/><path fill="#251916" d="M249 99l-19-18 10 27z"/><circle r="1" fill="#3a3d25" transform="matrix(-3.4447 .02104 -.14506 -23.75 75.5 114.4)"/><path fill="#ceb497" d="M175 63l-7 13-6-6z"/><path fill="#c6b598" d="M148 130h15v9h-15z"/><path fill="#bbaa96" d="M240 185l-1.1-49.4 2.1 5.3 13 44.1z"/><path fill="#696d3d" d="M186.6-2.9l-11.1 22.4 73.4 6.2-66.6-33z"/><path fill="#686966" d="M191.7 130.4l-24.6 8.9-3.9-42.5 6.8 34.9z"/><circle cx="135" cy="108" r="7" fill="#6b6057"/><path fill="#617256" d="M55.3 76.9l.5 14.9L65.2 64l5-31.9z"/><path fill="#dde3df" d="M181 112h5v9h-5z"/></g></g></svg>