<svg xmlns="http://www.w3.org/2000/svg" viewBox="0 0 1800 1200"><defs/><filter id="a"><feGaussianBlur stdDeviation="12"/></filter><rect width="100%" height="100%" fill="#304b5a"/><g filter="url(#a)"><g fill-opacity=".5" transform="translate(3.5 3.5) scale(7.03125)"><circle r="1" fill="#f6faff" transform="rotate(166.4 95 18.6) scale(186.75852 64.48242)"/><circle r="1" fill="#826f62" transform="matrix(11.89828 63.68582 -168.35202 31.45282 146.5 133.7)"/><ellipse cx="255" cy="38" fill="#c5e1f5" rx="112" ry="30"/><circle r="1" fill="#4475a7" transform="matrix(-7.86205 -35.59745 83.3495 -18.40855 86.6 6.3)"/><circle r="1" fill="#bfd8e9" transform="rotate(162.6 64.3 96.3) scale(34.56872 17.54715)"/><ellipse cx="55" cy="78" fill="#dac3a9" rx="30" ry="13"/><circle r="1" fill="#c07737" transform="matrix(61.00852 -5.0595 1.06709 12.86717 175 75)"/><ellipse cx="218" cy="96" fill="#443826" rx="183" ry="14"/><ellipse cx="90" cy="153" fill="#9fbdd7" rx="62" ry="3"/><circle r="1" fill="#98b6d0" transform="rotate(-21.8 153.7 -436.9) scale(117.0273 29.392)"/><circle r="1" fill="#557694" transform="matrix(50.97506 -1.15783 .51957 22.87487 54 11.6)"/><ellipse cx="8" cy="96" fill="#3d4238" rx="10" ry="51"/><circle r="1" fill="#657e92" transform="matrix(-1.13869 12.5121 -83.73803 -7.62076 247.5 125.2)"/><circle r="1" fill="#d4e1e1" transform="matrix(3.06712 -13.28516 36.02866 8.31787 237.7 54.3)"/><path fill="#d8c0a4" d="M64 58h127v16H64z"/><path fill="#43454b" d="M198.2 70.8l-5.1-4.3 20.4-5.7 11.6 20.6z"/><path fill="#d2d7cb" d="M-.5 37.6l-9.1 59.5-6.4-54L7.5 63.7z"/><path fill="#97a4ad" d="M45.5 149.5l-4 .7-15-85.7 4-.7z"/><circle r="1" fill="#6f95b8" transform="matrix(4.94924 17.26004 -79.99288 22.93759 121.6 25.6)"/><ellipse cx="108" cy="143" fill="#2d4358" rx="58" ry="9"/><path fill="#d18e55" d="M171 85l27-27-94 29z"/><circle r="1" fill="#2f2e1c" transform="matrix(54.2666 10.33765 -.86488 4.54011 32.4 92.8)"/><circle r="1" fill="#7892a7" transform="matrix(-11.2963 -1.18729 2.2829 -21.72043 20.7 25.5)"/><path fill="#394450" d="M-16 175.4L24.7 154l57.8 1.1 56.6 21z"/><circle r="1" fill="#b1afa7" transform="matrix(-20.26959 -16.06548 9.60082 -12.11322 38 70.6)"/><circle r="1" fill="#6c756c" transform="matrix(3.09856 -.71008 12.57643 54.87921 49 56.5)"/><ellipse cx="22" cy="150" fill="#879eb0" rx="44" ry="3"/><path fill="#4f4339" d="M109.8 95.5L98.7 91l7.5-18.5 11.1 4.5z"/><circle r="1" fill="#3a4a55" transform="rotate(-170 6.3 61.9) scale(36.15726 20.91527)"/><circle r="1" fill="#3c596f" transform="rotate(-157.2 133 54.7) scale(37.4186 21.29054)"/><path fill="#003020" d="M-16 8L0-16l13 67z"/><ellipse cx="173" cy="94" fill="#7b7367" rx="45" ry="5"/><path fill="#bbcfd9" d="M271 57l-21-39-145 42z"/><path fill="#7e5c42" d="M173.1 83.9L216.2 68l21.1-1.4L271 84.7z"/><path fill="#251a13" d="M241 83l30 18-38 1z"/><ellipse cx="65" fill="#4d7295" rx="63" ry="22"/><path fill="#8cafd0" d="M41 146.4l30.3-21.2 1.7 2.4-30.3 21.2z"/><circle r="1" fill="#1c443d" transform="matrix(12.48145 58.55883 -3.09505 .6597 18.9 93)"/><path fill="#dac0a4" d="M112.2 69.1l-11.9 11.5-30.2 8.8L55 84.2z"/><path fill="#26272a" d="M-4 166l35-12-17 31z"/><path fill="#66767d" d="M0 104h111v3H0z"/><path fill="#bfbeb7" d="M42.9 50.2l-31.6-6.8 7.1 27.8 10.4 9.9z"/><path fill="#566372" d="M36 108l153 3-13 39z"/><ellipse cx="120" cy="155" fill="#99abb8" rx="40" ry="2"/><circle r="1" fill="#93b2cd" transform="matrix(-5.01778 -11.87875 82.83162 -34.98945 171.3 28.4)"/><path fill="#a4bac8" d="M158 147h14v7h-14z"/><path fill="#788b9f" d="M-8.6 166.3l46.9-14 14.6-2.9-40.6 6.6z"/><ellipse cx="220" cy="108" fill="#1a2428" rx="67" ry="2"/><path fill="#1b2617" d="M78 89.5v15H62v-15z"/><path fill="#6f808b" d="M41 125L31 97l-6 30z"/><path fill="#142115" d="M41.5 96h13v8h-13z"/><path fill="#483d2f" d="M22 104l-3-25 21 10z"/><path fill="#212b33" d="M68.3 113.7l-12.6 9.5 12.9 3.4.4-7.5z"/><path fill="#262b2d" d="M32.8 144.3l7.8-2.8-10.3-12.1-12.2 7.4z"/><ellipse cx="255" cy="120" fill="#6b8595" rx="33" ry="9"/><path fill="#47565f" d="M198.6 143.5l-26.4-2.1 13.9 38-4.7-26.7z"/><path fill="#616c65" d="M53.1 74.7l-8.9-39.8-5-34.4L29-4.7z"/><path fill="#9dacb7" d="M188 185h-44l-13-39z"/><path fill="#826f5a" d="M108.8 101L103 79.4l2.6-5.4L76 92.4z"/><path fill="#292814" d="M213 83l2 16-15-18z"/><path fill="#5c5f62" d="M-.6 97.5l14.4-4.4 10.8 35.4-14.4 4.4z"/><ellipse cx="155" cy="150" fill="#414641" rx="2" ry="11"/><path fill="#433e37" d="M168 85h16v11h-16z"/><ellipse cx="6" cy="153" fill="#353a3c" rx="14" ry="3"/><ellipse cx="149" cy="100" fill="#2b2928" rx="43" ry="2"/><circle r="1" fill="#6187ae" transform="rotate(162.3 56.3 15.7) scale(49.82591 12.21924)"/><path fill="#d49b63" d="M167 59l36 14-76 4z"/><path fill="#7b8e9a" d="M26.1 143l-30 5.6 28.8 3.8 2-.8z"/><path fill="#dcc7ae" d="M70.5 88.1L65 79.2 48.1 91.7 29.8 83z"/><path fill="#a5b2b1" d="M169 97h41v1h-41z"/><path fill="#626c72" d="M233 156l-39-29-38 7z"/><ellipse cx="111" cy="129" fill="#475562" rx="42" ry="9"/><circle r="1" fill="#879baa" transform="rotate(-87.4 133.1 22.2) scale(2.5267 65.5557)"/><path fill="#324755" d="M90.2 141.9L47 147.7l71 5.1 5.2-10.4z"/><path fill="#6d6b6d" d="M139 111h58v15h-58z"/><path fill="#403023" d="M-5.5 62l12.9-1.7 4.1 33.8-12.9 1.6z"/><path fill="#c5ccca" d="M160.7 58.9l27.2-5.7 31-12.3-31.6 23.8z"/><ellipse cx="190" cy="104" fill="#5b5f5d" rx="130" ry="2"/><path fill="#677a82" d="M65.4 114.1L40.9 34.9l19.4 73.2-31.7.6z"/><path fill="#38434c" d="M191 66l25 10-6-10z"/><path fill="#8097aa" d="M19 29L8 16l5 32z"/><path fill="#9e7457" d="M135.4 70.1l14.8 15.4-47 4.3 27-21.5z"/><path fill="#3e4135" d="M70 89h64v3H70z"/><path fill="#98acb5" d="M197 164l13 18-24-6z"/><path fill="#96735c" d="M202.1 77l36.1-10.2 2.9 12.3-4.4-1.8z"/><path fill="#e0a06a" d="M102 77l-2 7-12-2z"/><path fill="#aebcbb" d="M2.8 50.6l3.3 7.6-22.1-1.3V-16z"/><path fill="#184746" d="M7.3 26.6L28 128.8 5.3 49.7-10.2 8.9z"/><path fill="#825f38" d="M269 64.9l-20.3 4.3L271 81.4l-44.4 5.1z"/><circle r="1" fill="#655b4e" transform="matrix(-72.1565 11.70916 -.34616 -2.1332 177 86)"/><path fill="#878982" d="M264.4 180.4l-55.3-36 .5-.8 55.3 36z"/><path fill="#d2dfde" d="M237 52h19v16h-19z"/><circle r="1" fill="#8d9fae" transform="matrix(74.15365 4.65067 -.08643 1.37816 31.6 150.3)"/><path fill="#808176" d="M137 92h31v4h-31z"/><path fill="#516676" d="M260.4 154.5l-69.2-24.3 35.3-9.2 44.5 29.3z"/><path fill="#3d3c36" d="M24.3 160.3l7.4-20.8 1.5 5.8L13.9 185z"/><path fill="#3a3e3b" d="M178 114h2v38h-2z"/><path fill="#edd7c0" d="M74 58h10v9H74z"/><path fill="#65584b" d="M226.9 108l-24.1-49.3 37.5 38-45.6-7.9z"/><circle r="1" fill="#4f5c65" transform="rotate(95.2 -26.2 124.2) scale(5.26507 32.30017)"/></g></g></svg>