<svg xmlns="http://www.w3.org/2000/svg" viewBox="0 0 1800 1200"><defs/><filter id="a"><feGaussianBlur stdDeviation="12"/></filter><rect width="100%" height="100%" fill="#303344"/><g filter="url(#a)"><g fill-opacity=".5" transform="translate(3.5 3.5) scale(7.03125)"><circle r="1" fill="#a4c6ed" transform="matrix(-101.2226 -170.4783 150.84593 -89.56576 114.3 104.9)"/><ellipse cx="60" cy="110" fill="#2b1a00" rx="126" ry="34"/><circle r="1" fill="#7ba9ff" transform="matrix(-239.07555 -88.70107 14.10781 -38.02471 185.7 62.5)"/><circle r="1" fill="#f6f8ff" transform="rotate(54 -37.7 35.5) scale(33.59604 17.16973)"/><circle r="1" fill="#2758b7" transform="rotate(-16.7 92.8 -631.2) scale(89.8104 51.06993)"/><circle r="1" fill="#bdbdb1" transform="matrix(-24.65596 43.82494 -31.6493 -17.80594 222.6 136.4)"/><ellipse cx="71" cy="159" fill="#969e66" rx="127" ry="21"/><ellipse cx="159" cy="129" fill="#534c49" rx="86" ry="13"/><circle r="1" fill="#060d15" transform="matrix(-.59016 11.34533 -46.5577 -2.42185 35.6 126.2)"/><path fill="#f2e3d7" d="M206 136l-20-8 49-41z"/><path fill="#ddcdb6" d="M155.7 124.4l-29.2 4.5-3.8 13.5 31.4-13.1z"/><path fill="#aa9087" d="M0 77h34v23H0z"/><ellipse cx="64" cy="70" fill="#675044" rx="31" ry="17"/><circle r="1" fill="#b9cef1" transform="matrix(-2.18827 16.63451 -56.73354 -7.4633 240 105)"/><circle r="1" fill="#8bacec" transform="matrix(7.05256 -27.27024 44.88545 11.60817 23 17.8)"/><path fill="#a7b7dc" d="M215 59l-34-34 62 11z"/><ellipse cx="227" cy="133" fill="#111320" rx="18" ry="4"/><path fill="#25272d" d="M193 106l-53 33h38z"/><ellipse cx="143" cy="94" fill="#5e4f47" rx="30" ry="9"/><circle r="1" fill="#2653ae" transform="rotate(-161.8 128.6 -13.7) scale(148.52212 25.05202)"/><path fill="#2a1d00" d="M-1.1 65.5l15 1-.8 10-15-1z"/><path fill="#f0e6e0" d="M12.8 65.6L-16 60.2l50.5-18.9.5 31.4z"/><circle r="1" fill="#2b2f38" transform="matrix(.75779 -25.53256 35.37634 1.04995 82 114)"/><path fill="#4e4247" d="M175.4 108.9l2.2-4.5 63 30.7-2.2 4.5z"/><path fill="#97b4ea" d="M20 37l82 2-9 21z"/><path fill="#ffebc6" d="M186.7 104.3l34.1 2.3-1 16.3-26.9-12.8z"/><path fill="#c5c5d1" d="M112 81l43-1-53-14z"/><circle r="1" fill="#4976c9" transform="matrix(-56.89169 23.88925 -4.08873 -9.73722 253.4 50.9)"/><circle r="1" fill="#5d86cd" transform="rotate(-42.4 87 -125.4) scale(19.37939 65.8921)"/><circle r="1" fill="#83a8e2" transform="matrix(3.35883 10.61504 -30.49765 9.65012 232.4 90.8)"/><circle r="1" fill="#8da1a3" transform="matrix(53.1487 10.45518 -3.21779 16.35755 213.1 157)"/><circle r="1" fill="#6c5e5d" transform="matrix(39.34518 9.73695 -1.41904 5.73406 124 85.3)"/><path fill="#ced9ed" d="M220.5 52.6l3.7-1 6.7-5.1-9-24.2z"/><path fill="#726562" d="M38 75l-3-32 54 18z"/><path fill="#4069b0" d="M177-8.2l18.5 64.4-34.6 10-18.4-64.4z"/><path fill="#45434b" d="M220.5 134v-30h3v30z"/><path fill="#646269" d="M77.8 111.2l11.8-41.4 10.6 3-11.8 41.4z"/><ellipse cx="31" cy="154" fill="#7b8772" rx="93" ry="17"/><path fill="#abbee3" d="M195.8 61.7l-8.6 10.8-21.8 3.2-18.5-2.7z"/><path fill="#7a9e3f" d="M29 112l-38-3 22-7z"/><path fill="#44444b" d="M156 140.3l31.6-1.4-15.7-45-21-7.5z"/><path fill="#494b51" d="M32 120l58-43-54-14z"/><circle r="1" fill="#8aa8e1" transform="rotate(-136.2 9.8 6.7) scale(35.17034 23.71869)"/><path fill="#121216" d="M95.7 100.9l13 .2-.4 20-13-.2z"/><path fill="#dfd1bf" d="M190 121h18v12h-18z"/><path fill="#c1d4f0" d="M241 106h15v23h-15z"/><path fill="#547ac5" d="M195 25h61v15h-61z"/><path fill="#696156" d="M-16 53.4l47.3 21.7-47.3 12 24.5 17.5z"/><path fill="#adb1ac" d="M198 183l-8-44 33-3z"/><path fill="#7d7978" d="M48 117.5l-5.8-1.9-2.9-11.2 3.9-15.5z"/><path fill="#b8d2ff" d="M23.2 49.1l-7.8 13.4-26.5 2.3-4.9-28z"/><path fill="#f2d1b1" d="M22 50h13v24H22z"/><circle r="1" fill="#cfbdac" transform="matrix(-7.24945 4.02376 -2.22017 -4 142.2 130.8)"/><circle r="1" fill="#7793ab" transform="matrix(-32.46635 12.78884 -10.3961 -26.39205 251.5 161.7)"/><path fill="#212b33" d="M128 138l-15 1-17-28z"/><path fill="#89968b" d="M125 141h62v29h-62z"/><path fill="#464550" d="M167 114h37v8h-37z"/><path fill="#b7c7e1" d="M189.5 93.2l53.7.4-73 2.7 14.2 7.5z"/><path fill="#857a7c" d="M92.1 77.3L42.4 62.1l3.5-11.4 49.7 15.2z"/><path fill="#1d212a" d="M52.3 128.9l-.8 11-67.8-4.8.8-11z"/><path fill="#212624" d="M135 140l37-2-20-9z"/><path fill="#3d4354" d="M219 121l8.1 16.6 19.8-1.9-11.1-11.9z"/><path fill="#af937d" d="M209.6 124.6l8.8 2-2 8.8-8.8-2z"/><circle cx="88" cy="126" r="5" fill="#5e708d"/><path fill="#6f6b76" d="M151 118V88l-14 3z"/><path fill="#fffff4" d="M24.9 65.2l-6.7-6.9-8 3 8.5 8.4z"/><path fill="#9e9384" d="M100 134h12v4h-12z"/><circle cx="127" cy="113" r="17" fill="#3e3d44"/><path fill="#bfcde5" d="M209.1 53.6l25.4-9.4-14.2-15.6 2.8 27.3z"/><path fill="#7d97ca" d="M191.7 19.5l9.9 1.9-7.4 16.8-15-7.2z"/><path fill="#828d7b" d="M136.5 141.1l-20-3.3-32 44.8 114.2-44.2z"/><circle r="1" fill="#6f94d8" transform="rotate(150 28.6 15.1) scale(13.10703 41.49645)"/><path fill="#567ec5" d="M123 45h80v17h-80z"/><circle cx="164" cy="89" r="4" fill="#ceaa87"/><path fill="#726659" d="M187 137l22 1-35-16z"/><ellipse cx="18" cy="103" fill="#465833" rx="25" ry="6"/><path fill="#222c2a" d="M79 80l7 13-28 6z"/><path fill="#f1dcca" d="M109 79l2 2 3-8z"/><circle r="1" fill="#8b8187" transform="matrix(14.45885 -4.31037 1.48681 4.9874 7.5 83.8)"/><circle r="1" fill="#acc3e8" transform="rotate(-78.7 104.5 -35.3) scale(3.36118 19.80609)"/><path fill="#83a4df" d="M96 70V50l30 23z"/><path fill="#20252a" d="M87.9 128.8L61.7 139l-69.3-25.4 115.5 27.7z"/><circle r="1" fill="#505359" transform="rotate(32.4 -136.1 203) scale(10.92379 14.39768)"/><path fill="#54535a" d="M110 107l5-30 21 6z"/><circle r="1" fill="#3158a3" transform="rotate(20.2 95.7 686.7) scale(82.91854 20.32307)"/><path fill="#91afde" d="M194 87h62v19h-62z"/><path fill="#615656" d="M189.3 108L170 95.8l-35.3-11.3 56.3 31.1z"/><path fill="#757f6a" d="M30 146h51v18H30z"/><path fill="#fff3e0" d="M193 111h25v2h-25z"/><path fill="#b6cae4" d="M265.1 102.4l-31.3 21.1-10.1-5-.7-9.7z"/><path fill="#c4b7aa" d="M136.2 127.6l23.7-2.4-13.8 4.3-24.7 7.5z"/><path fill="#62595d" d="M36 63l22-12-22-6z"/><circle r="1" fill="#3e67ae" transform="matrix(-3.6335 12.03476 -27.76926 -8.38403 160 16)"/><path fill="#444854" d="M184 118l-16-29-5 43z"/><path fill="#547bc7" d="M237 36h19v25h-19z"/><path fill="#8ba9de" d="M31.5 43.2l80.3 24.3L-16-4.7v50.4z"/><path fill="#242e34" d="M14.3 72.3l-.9 1.7-29.4 1.5 5.3-8.6z"/><path fill="#6791d5" d="M176.1 75.1l-38.7 6.3 81.2 7.8 40.6-29.4z"/><circle r="1" fill="#648bcf" transform="rotate(-123 57.3 -13.4) scale(55.28327 12.69922)"/><path fill="#567ec5" d="M271 38.6L221.9 54l-31.7 9.7 56 5.7z"/></g></g></svg>