<svg xmlns="http://www.w3.org/2000/svg" viewBox="0 0 1800 1200"><defs/><filter id="a"><feGaussianBlur stdDeviation="12"/></filter><rect width="100%" height="100%" fill="#334c59"/><g filter="url(#a)"><g fill-opacity=".5" transform="translate(3.5 3.5) scale(7.03125)"><ellipse cx="153" cy="33" fill="#ffffef" rx="187" ry="56"/><circle r="1" fill="#090409" transform="matrix(-.66747 34.76242 -239.09414 -4.59084 152.5 146.4)"/><circle r="1" fill="#717383" transform="rotate(90.7 -10.8 79.8) scale(18.44366 249.30832)"/><circle r="1" fill="#c8b8ae" transform="matrix(138.93747 18.16752 -5.02853 38.45604 176.6 43.2)"/><path fill="#54697d" d="M-5 70l101 45 63-36z"/><path fill="#120c06" d="M127 90l-14 20 29 5z"/><circle r="1" fill="#c2b2a9" transform="rotate(88.9 9 63.5) scale(21.31586 69.3978)"/><path fill="#7f7c84" d="M206 101h50v13h-50z"/><path fill="#6b7c8c" d="M147 78h24v36h-24z"/><path fill="#110100" d="M176 108h32v5h-32z"/><ellipse cx="89" cy="95" fill="#5f6d7f" rx="38" ry="18"/><ellipse cx="37" cy="82" fill="#3d566d" rx="101" ry="6"/><path fill="#b19e8d" d="M166 59h90v26h-90z"/><ellipse cx="14" cy="19" fill="#a39a9d" rx="37" ry="53"/><ellipse cx="125" cy="3" fill="#adb4b6" rx="87" ry="45"/><circle r="1" fill="#050c10" transform="matrix(30.88416 4.0595 -.855 6.50472 234 142.1)"/><path fill="#050b11" d="M135 149.2l43.8 32.4-52.3-18.5 55.6-8.9z"/><path fill="#050505" d="M109 108h37v5h-37z"/><path fill="#b7a59c" d="M108 87h40v3h-40z"/><path fill="#394655" d="M153.5 149.9l2.3-15.8 28.7 4-2.3 15.8z"/><ellipse cx="22" cy="117" fill="#161e27" rx="97" ry="5"/><path fill="#637587" d="M84 74h26v40H84z"/><ellipse cx="8" cy="86" fill="#3e5268" rx="17" ry="20"/><path fill="#79818c" d="M27.4 38.9l-8.7-9.7 17.9-16 8.7 9.6z"/><path fill="#3b4859" d="M52 132l-19 14 53-13z"/><path fill="#11181e" d="M220 114h36v12h-36z"/><path fill="#1a222a" d="M52 115l24-10 28 47z"/><ellipse cx="178" cy="95" fill="#54697a" rx="44" ry="9"/><path fill="#40495a" d="M42.5 178l-22-1 1-17 22 1z"/><circle r="1" fill="#647082" transform="rotate(126.8 3 65) scale(13.55929 10.58371)"/><ellipse cx="102" cy="158" fill="#353f4c" rx="30" ry="5"/><circle r="1" fill="#a1a7a3" transform="matrix(-11.6894 15.88516 -55.84336 -41.09344 238.5 27.9)"/><ellipse cx="122" cy="46" fill="#b9b5ab" rx="96" ry="26"/><path fill="#0e141b" d="M54 163h147v7H54z"/><path fill="#5f6175" d="M-5 112.4l13.5-9.9 23 4.7-8.4 7.2z"/><path fill="#161d20" d="M228.7 132.5l-46.1-7.1-6.8-28.7-10.4 33.1z"/><path fill="#15191d" d="M26 111h22v8H26z"/><ellipse cx="215" cy="103" fill="#897e7e" rx="38" ry="3"/><ellipse cx="157" cy="85" fill="#bda697" rx="18" ry="2"/><path fill="#0e171e" d="M71 139.1l-31.6 36.7 38.6-22 41.9-4.1z"/><circle r="1" fill="#333e47" transform="matrix(.02 1.90914 -55.07096 .57672 207 160.9)"/><ellipse cx="54" fill="#9ea5ac" rx="54" ry="17"/><circle r="1" fill="#293643" transform="matrix(-30.02174 2.72 -.51083 -5.63827 99.6 128.1)"/><ellipse cx="106" cy="90" fill="#828a91" rx="55" ry="2"/><path fill="#414240" d="M132 107l11-9-35-1z"/><path fill="#050d12" d="M130 141h35v4h-35z"/><path fill="#0d151c" d="M204.9 135l-28.7 7.6 76.1 8.4-20.1 7.2z"/><path fill="#b7a89d" d="M133 67h62v12h-62z"/><path fill="#35373a" d="M129.9 97l-3.7-6.8 3.7-2.8 2.8 13.1z"/><path fill="#5a6a7c" d="M87 73h46v2H87z"/><path fill="#68717d" d="M34 74H-5l-2-14z"/><path fill="#34414d" d="M256.1 185l-105.6-41.8 58 13.9-19.6-2.6z"/><path fill="#999087" d="M249.8 86.7l11.3-2.3-1.4-15.9L191.2 86z"/><circle r="1" fill="#aea49e" transform="matrix(61.52753 23.94693 -7.66057 19.68253 0 42.2)"/><circle r="1" fill="#b0a799" transform="matrix(7.35947 18.58789 -37.85698 14.98864 235 60.2)"/><path fill="#172028" d="M0 114h31v39H0z"/><path fill="#0c0f11" d="M126 106l21 7-41 1z"/><path fill="#475c6b" d="M197 86h59v13h-59z"/><ellipse cx="43" cy="107" fill="#68656e" rx="36" ry="4"/><path fill="#617488" d="M171 113l-4-11-21 11z"/><circle r="1" fill="#081016" transform="matrix(28.64904 -1.34226 .08415 1.796 178.1 129.3)"/><path fill="#303c45" d="M273.9 137.7l-1.7 5.8-46.1-13.2 1.7-5.8z"/><path fill="#4c6176" d="M60 81h71v7H60z"/><path fill="#293543" d="M114.6 142.6l-22.4-28.3 3.7 17.1 103.1 6.1z"/><path fill="#000105" d="M-.5 151.9v-1l37 1.2v1z"/><path fill="#546779" d="M137.9 104.8l29.7-19.5 17.8 3.1-13.2 19.4z"/><ellipse cx="46" cy="155" fill="#2a3441" rx="5" ry="30"/><path fill="#28313a" d="M29.3 107.5L5.8 179.9 30 101.8l6.5 3.9z"/><path fill="#7d8790" d="M149.6 79.1l-36.6.3-35.6-1.1-7-4.6z"/><path fill="#727a7f" d="M255.2 88.4l-36.5-1.3-15.4-2.1 33.6-.5z"/><path fill="#2c3540" d="M82.6 158.7L69.1 185l2.1-23.6-44.2-1.5z"/><path fill="#200d01" d="M110 106h4v2h-4z"/><path fill="#cbae97" d="M137.4 103.4l5.6 2.3-.4.9-5.6-2.3z"/><path fill="#02090e" d="M21.5 129.3l-27 .4v-3l27-.4z"/><ellipse cx="132" cy="2" fill="#a7afb4" rx="71" ry="15"/><path fill="#5c6b7a" d="M110 80h60v3h-60z"/><path fill="#131115" d="M63 110h14v3H63z"/><path fill="#6c7988" d="M33.4 23.4l1.4-6.9 9.8 2.1-1.4 6.9z"/><ellipse cx="150" cy="159" fill="#313c47" rx="37" ry="2"/><path fill="#232e38" d="M149.7 120.2l-4.2-16.4-9.8 20.5-82.5-3.2z"/><circle r="1" fill="#aaaca9" transform="matrix(23.81367 -13.41831 6.73737 11.95691 53 33.3)"/><ellipse cx="201" cy="133" fill="#313e4b" rx="20" ry="2"/><path fill="#2b3440" d="M-5 145.8l37.4-.8 25.8 9.5-19.3-3.1z"/><ellipse cx="226" cy="150" fill="#141d24" rx="36" ry="5"/><path fill="#111a22" d="M144.2 161.7l-38.1-16 60.8 5.2-4.4-.7z"/><path fill="#091219" d="M73 138l12 7 18-9z"/><path fill="#34404e" d="M105 158h22v6h-22z"/><path fill="#232424" d="M239.3 119.3l-69.3-4.8 8-10.7 10.8 6.7z"/><path fill="#3c4958" d="M160.2 148.7l-.3-3 28-2.4.2 3z"/><path fill="#4b5e73" d="M23.3 71.1l-12 40.6 12.3-2.2 43-30.1z"/><path fill="#202a34" d="M32.4 106.3l17.9 46.2-28.1-15.3 5.7-22.1z"/><ellipse cx="159" cy="120" fill="#1d2933" rx="76" ry="6"/><path fill="#273039" d="M191 165.5l80 14.4-59.6-31.2 24.7-3.7z"/><path fill="#3b4553" d="M46 159l-34 25-8-13z"/><path fill="#4a6072" d="M207 107h49v7h-49z"/><circle r="1" fill="#727781" transform="matrix(14.12634 2.01684 -.49138 3.44172 192.4 103.3)"/><ellipse cx="184" cy="83" fill="#ab9d93" rx="24" ry="3"/><ellipse cx="61" cy="98" fill="#50687c" rx="31" ry="6"/><path fill="#374351" d="M65 128h13v9H65z"/><path fill="#b7aba5" d="M107.7 70L35.9 39.2l20.8 36.3 13.5-1.2z"/></g></g></svg>