<svg xmlns="http://www.w3.org/2000/svg" viewBox="0 0 1800 1200"><defs/><filter id="a"><feGaussianBlur stdDeviation="12"/></filter><rect width="100%" height="100%" fill="#55392a"/><g filter="url(#a)"><g fill-opacity=".5" transform="translate(3.5 3.5) scale(7.03125)"><circle r="1" fill="#e7c68e" transform="rotate(110.5 10.8 38.3) scale(37.75645 135.88689)"/><circle r="1" transform="matrix(-161.20201 -101.3714 11.28415 -17.94419 166.7 38.7)"/><circle r="1" fill="#0c262e" transform="matrix(-196.35684 .72438 -.17022 -46.1421 117.8 142)"/><ellipse cx="51" cy="76" fill="#b08f63" rx="136" ry="22"/><ellipse cx="160" cy="88" fill="#e5b157" rx="45" ry="10"/><circle r="1" fill="#ded6c1" transform="rotate(76.6 17.7 22.4) scale(15.07822 27.61342)"/><circle r="1" fill="#000509" transform="matrix(-11.32144 16.5032 -139.94316 -96.00309 196.3 57.5)"/><circle r="1" fill="#32555f" transform="matrix(79.81236 46.4519 -12.88117 22.13206 225.5 21.7)"/><path fill="#6c584c" d="M131.7 95.1l-52 2.7-1.4-29 52-2.6z"/><path fill="#f2b344" d="M157 86.9l-22-17.3 16-20.5 22 17.3z"/><circle r="1" fill="#645f54" transform="matrix(56.58956 17.04703 -2.5477 8.45738 194.7 149)"/><ellipse cx="154" cy="169" rx="67" ry="10"/><path fill="#33353d" d="M77 37l46-12 3 25z"/><ellipse cx="13" cy="106" fill="#0f1617" rx="81" ry="8"/><path fill="#ffe381" d="M135 85l25 12 5-18z"/><ellipse cx="49" cy="84" fill="#857466" rx="63" ry="15"/><circle r="1" fill="#011" transform="rotate(28.2 30.4 218.2) scale(50.5595 12.83752)"/><path fill="#a27942" d="M160.4 92.3L172.6 64l38.7 33.3-55.6 2.3z"/><path fill="#080908" d="M92.4 108l54.5-58.6.7.7-54.5 58.5z"/><path fill="#5f5e55" d="M200.2 112.5L212 105l19.4 2.4 15.4 20.1z"/><path fill="#9c7f67" d="M58 62l37-41-46-31z"/><circle r="1" fill="#000e0c" transform="matrix(-63.3815 -50.96004 11.93282 -14.84144 206.4 63.5)"/><path fill="#010709" d="M43 185l-56-23 138 2z"/><ellipse cx="137" cy="105" fill="#5b534a" rx="38" ry="5"/><path fill="#2e3738" d="M218 44l44-60v93z"/><path fill="#5a534b" d="M28.4 133l64.4 2.4-33.2 6.6-75.6-.7z"/><ellipse cx="4" cy="43" fill="#816c5d" rx="13" ry="56"/><ellipse cx="205" cy="142" fill="#4e4d46" rx="136" ry="4"/><path fill="#505351" d="M133-7l94 42 44-49z"/><path fill="#c1935f" d="M147 46l-98-3 78 25z"/><path fill="#6b5a4d" d="M85 42l73 9-47-21z"/><ellipse cx="121" cy="98" fill="#27211e" rx="46" ry="2"/><circle r="1" fill="#000605" transform="matrix(-.13461 2.71853 -44.5968 -2.2083 255 138.2)"/><path fill="#a07a49" d="M175 101l-5-36 42 27z"/><path fill="#111514" d="M140 135l16-15-66 1z"/><path fill="#fff" d="M163 90l-11 1 3-5z"/><circle r="1" fill="#111615" transform="matrix(-36.83075 -7.4933 1.0328 -5.07634 188 119.7)"/><path fill="#cfa166" d="M116 86l20 4-34 8z"/><ellipse cx="29" cy="150" fill="#191c1b" rx="119" ry="6"/><path fill="#635c50" d="M248.4 176.1l-23-19.1-29.9-5.6 10.2 12.6z"/><path fill="#1d211e" d="M257.9 158.6l-12.3-3.8L180 143l56.1 16.1z"/><path fill="#4c4942" d="M111.1 117.6l19-12.5 48.5 31.2-45.2-17.5z"/><path fill="#f1bd56" d="M152 67.5l-13.9 6.6 39.5 2.9-1.3-8.8z"/><path fill="#04191f" d="M200 95l28.8 3-.7 7-28.9-3z"/><circle r="1" fill="#071513" transform="matrix(-7.9756 15.84403 -90.85214 -45.73334 129.7 18)"/><path fill="#060b0d" d="M35 110l32 5-46 10z"/><path fill="#4d4c48" d="M106 131h53v9h-53z"/><path fill="#a87840" d="M149 49l18.2 13.1-22 5.8L120 83.5z"/><path fill="#8f765e" d="M72.7 41L50.8-2.4 65 1.3l32.7 19.5z"/><path fill="#8c8174" d="M153.3 133.3l.2-1 39.2 8.4-.2 1z"/><ellipse cx="64" cy="80" fill="#b38b63" rx="33" ry="4"/><path fill="#906538" d="M124 78h29v4h-29z"/><path fill="#42413d" d="M76.4 163.4l-20.3 3.4 34.6-27.2 2.3 19.2z"/><path fill="#514f4a" d="M46 118l-6 11 36-13z"/><path fill="#43423e" d="M10.4 110.7l26.6-4.1-24.3 24.8 9.2-30.8z"/><path fill="#645c56" d="M-16 68v33l53-8z"/><path fill="#1f2120" d="M114 95.1l33.1 6.3-56.4 5.3L-16 185z"/><path fill="#02090b" d="M0 101h12v17H0z"/><circle r="1" fill="#c5b498" transform="matrix(6.00104 11.91526 -26.32975 13.2608 36.6 0)"/><ellipse cx="13" cy="64" fill="#a98262" rx="79" ry="11"/><path fill="#060b0e" d="M113 171l69-16 67 25z"/><circle cx="225" cy="38" r="4"/><path fill="#393734" d="M119 155h27v9h-27z"/><path fill="#363634" d="M81.8 133.9l-54.5 24L-3.6 185l63.4-35.6z"/><path fill="#000403" d="M201 82l54 36 1-46z"/><path fill="#4c4c44" d="M166 129h76v3h-76z"/><ellipse cx="240" cy="163" fill="#605a4f" rx="28" ry="4"/><path fill="#a1763f" d="M164 87l10-20 43 28z"/><circle r="1" fill="#1a201f" transform="rotate(163.2 17 83.4) scale(105.0382 1)"/><path fill="#726e62" d="M215 118h20v3h-20z"/><path fill="#4e4941" d="M160.1 143.3l-.3 10.1-13.2 4.4 31.1 1.5z"/><path fill="#0a0e0f" d="M125 120l-29-4 1 9z"/><path fill="#bb9367" d="M59.4 32L72 40.8l65.9 17.1-94.7-11.4z"/><path fill="#050807" d="M-16 173.7l55.5-28.1-19.4 12.8L-2.6 185z"/><circle r="1" fill="#4d514f" transform="matrix(-2.9401 6.82992 -45.12347 -19.4245 190.4 15.5)"/><circle r="1" fill="#121615" transform="matrix(-.19546 .98071 -53.69898 -10.70238 145.9 127.9)"/><path fill="#5f5852" d="M67 129l-17 11 34-5z"/><path fill="#9a7f68" d="M55 58L11 16l46-7z"/><path fill="#45433e" d="M32.2 106.6L26 109l86.3 9.8 56.3 1.9z"/><path fill="#1e211f" d="M182.3 99.9l-31.5 26.2 39.4-4.9-17.4-22.5z"/><circle r="1" fill="#071513" transform="matrix(6.62924 -11.2297 28.05103 16.5594 143.5 13)"/><path fill="#7f6d5c" d="M18 83h80v14H18z"/><path fill="#6c594a" d="M129.8 40l-.6 11-19-1 .6-11z"/><path fill="#54524a" d="M219.5 151.1l39.2 1.3-57.5-12.9-35.5-2.7z"/><ellipse cx="153" cy="118" fill="#55524a" rx="11" ry="4"/><path fill="#7d6c5e" d="M215 95l-40 2v-2l40-2z"/><path fill="#0e1212" d="M186 124h51v4h-51z"/><circle r="1" fill="#0d1010" transform="matrix(.04528 4.24525 -12.09726 .12904 37 146.4)"/><path fill="#f5c25c" d="M161 90h22v2h-22z"/><path fill="#383733" d="M133.8 135l57.9 13.2-17.5 12.6 47.8-13.3z"/><path fill="#e0ab4f" d="M163 87.7l11-17.5-35.2 29.5-2.2-16.6z"/><circle r="1" fill="#4f4d48" transform="matrix(-17.55849 4.03899 -.50654 -2.20208 10.7 121.6)"/><path fill="#000305" d="M50 166h74v4H50z"/><circle r="1" fill="#000406" transform="matrix(-.01389 -1.51376 8.72637 -.08006 174.1 132.5)"/><path fill="#101413" d="M25 129l-8 7-16-8z"/><circle cx="133" cy="54" r="6" fill="#d4a055"/><path fill="#3c3832" d="M18.7 185l40.8-23.1-48.8-3.3 45.7-5.8z"/><path fill="#b18b64" d="M94.5 64.3L-11 53.2 94.3 82.8 75.8 70z"/><path fill="#726f64" d="M243.7 113.2l-33.6-5.4.2-1 33.6 5.4z"/><circle r="1" fill="#5a5048" transform="rotate(-9.6 700.6 -832) scale(26.95377 2.66331)"/></g></g></svg>