<svg xmlns="http://www.w3.org/2000/svg" viewBox="0 0 1800 1200"><defs/><filter id="a"><feGaussianBlur stdDeviation="12"/></filter><rect width="100%" height="100%" fill="#283c4a"/><g filter="url(#a)"><g fill-opacity=".5" transform="translate(3.5 3.5) scale(7.03125)"><ellipse cx="53" fill="#c4c3c8" rx="85" ry="210"/><ellipse cx="149" cy="5" fill="#d2e6ff" rx="255" ry="33"/><circle r="1" fill="#071a30" transform="rotate(178.4 51 35.5) scale(87.86966 29.10625)"/><path fill="#fffff1" d="M63 114.7l43.8 3.8-5.8 66.8-43.8-3.8z"/><circle r="1" fill="#c3c3c5" transform="matrix(35.34427 -1.72862 .624 12.75855 222.1 142)"/><circle r="1" fill="#0e202f" transform="rotate(99.2 -27.6 69) scale(59.9419 14.26313)"/><circle r="1" fill="#b0a99c" transform="matrix(31.56733 -26.65799 14.24967 16.87389 76.9 113.2)"/><ellipse cx="112" cy="125" fill="#000019" rx="6" ry="35"/><path fill="#fff" d="M0 164h101v6H0z"/><ellipse cx="50" cy="19" fill="#96a6ba" rx="226" ry="22"/><path fill="#e8d7bf" d="M7 62h11v99H7z"/><path fill="#f93" d="M73.7 36.7l-4.8 22.5-18.6-4 4.8-22.4z"/><path fill="#fff" d="M80 139l27-35-9 81z"/><circle r="1" fill="#1b344f" transform="rotate(-111.8 44 26) scale(31.13727 20.10999)"/><circle r="1" fill="#58606c" transform="matrix(49.52949 -.77628 .3921 25.01716 152.2 158.7)"/><circle r="1" fill="#15212d" transform="matrix(-55.00792 -40.50032 25.73914 -34.95914 244.6 88.7)"/><path fill="#3a4142" d="M70 110l34-2-47 25z"/><path fill="#010000" d="M5 113.5H-5v-43H5z"/><path fill="#fffef1" d="M53 109l32-28-19 33z"/><circle cx="142" cy="74" r="37" fill="#132a40"/><path fill="#c2c8c7" d="M181 145l28-17 27 15z"/><path fill="#998d7b" d="M41 113h32v48H41z"/><circle r="1" fill="#25394c" transform="matrix(4.86957 24.55925 -26.4342 5.24133 44 83)"/><ellipse cx="216" cy="156" fill="#232b37" rx="17" ry="14"/><path fill="#baad95" d="M189 101h4v69h-4z"/><circle r="1" fill="#555d57" transform="rotate(33 13 44.1) scale(3.07058 68.32948)"/><path fill="#aec0dc" d="M6 34h46v12H6z"/><path fill="#fff374" d="M60 37h10v23H60z"/><path fill="#172241" d="M46.3 45.7L8.6 49.3 4.4 62.7l58.7-18.4z"/><circle r="1" fill="#0b1d33" transform="matrix(14.88114 8.79507 -13.6271 23.05687 146.4 122.5)"/><path fill="#8f8a7e" d="M171 123l27-34-25 17z"/><ellipse cx="50" cy="76" fill="#9ea09f" rx="35" ry="2"/><path fill="#989386" d="M204 129l7-36-11 11z"/><path fill="#a1a6a6" d="M65.2 114.6l13.7-35.4 31.5 7.9-3.4 14z"/><circle r="1" fill="#c9b5a5" transform="rotate(-113.3 49 74.5) scale(25.3326 19.15067)"/><circle cx="98" cy="61" r="20" fill="#102c49"/><path fill="#858171" d="M255.3 13.1l-97.1 124.8 73.4-89.4L271-1.3z"/><path fill="#bdbbaa" d="M112.2 183.4l-3-.6 8.6-44.2 3 .6z"/><path fill="#eeeddd" d="M123 74h2v24h-2z"/><path fill="#0b2842" d="M112.7 167.1l-10.6.9 4.2-47.3 15.6-32z"/><path fill="#fff" d="M11 166h55v4H11z"/><path fill="#d7cdb7" d="M175.4 111l-9.9 56.2-1-.2 10-56.2z"/><circle r="1" fill="#938e7b" transform="matrix(148.50391 -200.69152 .80386 .59482 234.4 64.7)"/><ellipse cx="160" cy="15" fill="#97a9be" rx="90" ry="22"/><path fill="#fefefb" d="M19 73L7 79l3-21z"/><path fill="#838178" d="M65.7 34.4l15 28.8-12 39.8 14.9-75.4z"/><path fill="#000617" d="M189 160.5l4.7 20-30.1 4.5 5.5-22.6z"/><path fill="#8b867b" d="M21 83l8-18-41 28z"/><path fill="#32393e" d="M21 100h20v64H21z"/><path fill="#89939d" d="M242 151l-36-25 65 10z"/><path fill="#112639" d="M148.9 37.7l45.7-.9-5.8 65-66.3-.8z"/><path fill="#efebd7" d="M6.6 55.2l-20.8 45.6-.6-57.2-1.2-24.2z"/><path fill="#a79b8c" d="M114.4 185l-85.3-48.2 28.6-1.4 12.4 46.5z"/><path fill="#b5ac96" d="M198.5 87.2l.8.6-81.8 101-.8-.6z"/><path fill="#ad0027" d="M51 44l8-12v27z"/><circle r="1" fill="#0f2742" transform="matrix(11.887 -23.70794 3.75608 1.88327 62.2 88.7)"/><path fill="#8ba1bd" d="M88.8 25.1L-16-6.2 234.8-16 75 49.1z"/><path fill="#d8d4c8" d="M18 107h27v2H18z"/><path fill="#082240" d="M103 105l-28 6 22 3z"/><path fill="#021422" d="M296.1 19.3L231 109l-17-12.4L279 7z"/><path fill="#a2988c" d="M80.5 78.3l-.2-1 39.2-7.6.2 1z"/><path fill="#c8c0ab" d="M113 182.7l11-105.5 1 .1-11 105.5z"/><path fill="#98988e" d="M57 151l-24 8-13-7z"/><path fill="#241f16" d="M29 159h29v4H29z"/><path fill="#815352" d="M-16 161.6L.8 140.8l15.7 27.3-12.9-11.2z"/><path fill="#fdfaf2" d="M55.7 161.2l-31 9.5L22 185l47.5-20.8z"/><path fill="#00172c" d="M59 76l15-12-43 5z"/><path fill="#efe8e2" d="M79.1 168.5l-2.2-42 20-1 2.2 42z"/><path fill="#f1eff5" d="M235 166h4v4h-4z"/><path fill="#868c8d" d="M188 150l-20 10 46-7z"/><path fill="#0f0900" d="M4 127l-1-6h7z"/><path fill="#171612" d="M15 102v-5l-5 4z"/><path fill="#a3b0bf" d="M211 28L78 43l25-32z"/><ellipse cx="152" cy="104" fill="#6c6e6c" rx="32" ry="2"/><circle r="1" fill="#213a54" transform="matrix(3.01052 -12.80418 27.95144 6.57195 140.6 53.3)"/><circle cy="162" r="5" fill="#fff"/><path fill="#112235" d="M173.1 91.8l-37.7 59.4 55.3-47.9-15.7 41.5z"/><circle r="1" fill="#aaaca9" transform="rotate(-86 68.7 9.1) scale(1 22.27427)"/><path fill="#4a4d50" d="M16.8 88.3l-.6-26.4 23.9 19.7L-4 84z"/><circle cx="47" cy="155" r="3" fill="#fff"/><path d="M7 112l-8-24-15 31z"/><path fill="#7a7b72" d="M203.2 111.2l-1.9 50.6-5 23.2-.4-18.5z"/><ellipse cx="114" cy="103" fill="#0c253b" rx="6" ry="27"/><path fill="#828c97" d="M250 87h6v8h-6z"/><path fill="#0f2741" d="M27 149l-8-38 20-4z"/><path fill="#99a0a4" d="M101.6 87.5L79.1 80l21.5 35.4 7.9-9.3z"/><path fill="#fbf7f1" d="M53 107h13v8H53z"/><path fill="#264463" d="M1 47l33 27 17-23z"/><path fill="#808281" d="M221.6 106l-39.1-2.4 21.5-3.9-3 6.8z"/><path fill="#dddfdc" d="M99.9 166.1l-74.4 13.8 100.1-6.8-6.7-1.4z"/><path fill="#d9dee0" d="M227 140h12v6h-12z"/><path fill="#4e5e5d" d="M27 116h56v3H27z"/><path fill="#c5c2b7" d="M15 88h4v82h-4z"/><path fill="#a1a7aa" d="M237.1 36.3l-3.9 9.4 37.8-48-13.1 40.1z"/><circle r="1" fill="#091e31" transform="matrix(-8.1379 -7.35156 24.9415 -27.60928 201.1 62.6)"/><path fill="#475261" d="M238.6 133.5l32.4 21.2-32.7-7.2 9.1-14.9z"/><path fill="#061a31" d="M187 131l-15 21 15-11z"/><ellipse cx="243" cy="107" fill="#5a5a58" rx="38" ry="2"/><path fill="#c0b9a9" d="M-16 136.6l32.3-2.6-27.1-18.6 22 .3z"/><path fill="#e1e6e6" d="M205 138h12v6h-12z"/></g></g></svg>