<svg xmlns="http://www.w3.org/2000/svg" viewBox="0 0 1800 1200"><defs/><filter id="a"><feGaussianBlur stdDeviation="12"/></filter><rect width="100%" height="100%" fill="#595379"/><g filter="url(#a)"><g fill-opacity=".5" transform="translate(3.5 3.5) scale(7.03125)"><circle r="1" fill="#efffff" transform="rotate(179.8 57 25.2) scale(244.27607 64.45579)"/><ellipse cx="121" cy="143" fill="#044e8a" rx="250" ry="31"/><path fill="#a8bcd6" d="M271 113L142-16-16 112z"/><circle r="1" fill="#b0c3d9" transform="matrix(-.72475 -41.52116 108.035 -1.88576 130.8 29.1)"/><path fill="#6e90be" d="M172 116.6l-1-20 99-5.2 1 20z"/><circle r="1" fill="#193758" transform="matrix(-20.92983 6.8806 -13.52774 -41.14949 5 160)"/><ellipse cx="1" cy="109" fill="#b39e94" rx="173" ry="5"/><circle r="1" fill="#22426d" transform="matrix(3.42162 23.74527 -35.3014 5.08682 243.5 137.2)"/><path fill="#001c40" d="M94.6 164l-33 1-.2-7 33-1z"/><circle r="1" fill="#98a5c0" transform="matrix(-146.13354 -14.07106 1.37343 -14.26362 14.9 90)"/><ellipse cx="248" cy="26" fill="#96afca" rx="32" ry="70"/><path fill="#3a5f96" d="M115 176l4-35 109-5z"/><ellipse cx="134" cy="116" fill="#416197" rx="112" ry="4"/><ellipse cx="10" cy="12" fill="#93aabd" rx="25" ry="94"/><path fill="#4e75ac" d="M187 159h39v7h-39z"/><path fill="#3b6198" d="M39 152l50 5 58-36z"/><path fill="#f2e9db" d="M203 113l3-11 6 11z"/><path fill="#4b71a8" d="M61 166h82v4H61z"/><circle r="1" fill="#395b87" transform="matrix(-6.86687 -4.22453 3.27221 -5.3189 24.4 116)"/><path fill="#f2ceb1" d="M191 112h-8l2-11z"/><path fill="#052852" d="M81 157h55v4H81z"/><path fill="#001537" d="M197 136h36v2h-36z"/><path fill="#072242" d="M259 160l12-25-32 25z"/><ellipse cx="142" cy="72" fill="#a8b2ca" rx="99" ry="31"/><ellipse cx="216" cy="146" fill="#001c3c" rx="23" ry="2"/><path fill="#7091bf" d="M210 96h46v17h-46z"/><ellipse cx="151" cy="138" fill="#1c3e6f" rx="30" ry="5"/><circle r="1" fill="#aebed1" transform="rotate(-128.6 51 -20) scale(19.92527 98.41687)"/><path fill="#1b3b64" d="M70 133l-60 13-21 29z"/><path fill="#466a9f" d="M48.7 166.6l-18.5-3.9 60 8L29.1 155z"/><path fill="#567db5" d="M191 138h45v2h-45z"/><path fill="#4369a0" d="M140 148l1 32-24-44z"/><path fill="#0a2a53" d="M155 162h18v5h-18z"/><path fill="#455883" d="M61 108h12v2H61z"/><path fill="#2e5182" d="M216 113h40v17h-40z"/><path fill="#e5c6ad" d="M74 109h49v3H74z"/><path fill="#022047" d="M83 129h18v3H83z"/><path fill="#7da5db" d="M97.5 135.2v1l-19 .6v-1z"/><path fill="#b8a695" d="M12 113l12-8-40-4z"/><path fill="#5178b0" d="M214.1 148.2l23.9 2.6-.1 1-23.9-2.6z"/><path fill="#3c6196" d="M194.4 143.8l-25.7 18.4 41.1 6.2-45.4-53z"/><path fill="#90a1b5" d="M-10.5-38.5h21v143h-21z"/><ellipse cx="168" cy="135" fill="#012145" rx="28" ry="1"/><circle r="1" fill="#a2b2c5" transform="rotate(97.7 -.3 33) scale(52.84322 16.37383)"/><circle r="1" fill="#aebfd3" transform="matrix(-75.65868 -20.8085 7.40446 -26.92225 135.5 8.7)"/><path fill="#10315c" d="M185.1 154.1l13.4-7.3 18.7 4.7-33 .3z"/><path fill="#113462" d="M68.5 143.9v-1l35 1.2v1z"/><ellipse cx="101" cy="141" fill="#668dc3" rx="9" ry="2"/><ellipse cx="124" cy="128" fill="#12315c" rx="17" ry="2"/><path fill="#2d4e7b" d="M39.4 148.7l1 22.2-53.2-55.6 41.9.1z"/><path fill="#4b72a9" d="M286 145.4l-.2 1-65.7-5.8v-1z"/><path fill="#5074a3" d="M271 166.3l-21.8-1.4-21.8-3.4 39.2-.4z"/><path fill="#365a8f" d="M56 140h27v19H56z"/><ellipse cx="138" cy="110" fill="#d7bdac" rx="32" ry="2"/><path fill="#3d6195" d="M178.7 158.7l57.9-4.2 25.4-1.1-29.9-2.7z"/><path fill="#4970a8" d="M103 162h62v2h-62z"/><path fill="#1c3f6f" d="M120.2 162l-13.2-8.2-2.8-4.5 39.5 10.4z"/><ellipse cx="5" cy="159" fill="#001831" rx="12" ry="2"/><path fill="#9baac8" d="M68 90h111v18H68z"/><circle r="1" fill="#0d2e59" transform="matrix(.028 .9996 -17.3209 .48515 69 138.3)"/><path fill="#193a69" d="M152 153h19v5h-19z"/><circle r="1" fill="#16355e" transform="matrix(44.0242 -1.32521 .03707 1.2314 236 157.8)"/><ellipse cx="23" cy="114" fill="#6282a6" rx="56" ry="1"/><path fill="#45699c" d="M0 162h60v2H0z"/><path fill="#142f55" d="M227 130h29v5h-29z"/><ellipse cx="253" cy="4" fill="#92a6bf" rx="10" ry="94"/><path fill="#41679c" d="M186.1 157.3L239 185l-71.4-46.3 31.5.9z"/><ellipse cx="169" cy="147" fill="#0b2d59" rx="21" ry="1"/><path fill="#446aa2" d="M75 147h29v6H75z"/><path fill="#476da5" d="M214 144l-11 1 13-5z"/><path fill="#4c73ab" d="M153 143h27v3h-27z"/><path fill="#000f2d" d="M59.3 148.3l-6.8-1.7.2-1 6.8 1.8z"/><path fill="#14335f" d="M56 123h21v3H56z"/><path fill="#385c92" d="M121.8 132.1l92.6-7.2-69.2 9.3-8.7 3.2z"/><path fill="#7f99c2" d="M191 110l-6-12 26 15z"/><path fill="#657295" d="M153.3 105.7l2.9.8-1.5 5.8-2.9-.8z"/><path fill="#34578d" d="M74 118h72v11H74z"/><path fill="#a6b7cd" d="M214 67.4l-23.5-68L216-9.4l23.5 68z"/><path fill="#5a80b5" d="M122.7 173l-55.6-7 .2-1 55.6 7z"/><path fill="#778ab1" d="M164.9 110.8l18.8-9.3-.4 13.9-6.3-2.7z"/><path fill="#1c3d6d" d="M103.7 163.6l-17.5 4.3-32.9-7.4 64.9 7.7z"/><path fill="#7591be" d="M190.9 99.8l-.9.3 10.5 10.3 7.9-15.4z"/><circle r="1" fill="#848ca2" transform="matrix(-15.99666 -3.81094 .23175 -.97278 57.8 107.4)"/><path fill="#2b4b78" d="M0 167h65v3H0z"/><circle r="1" fill="#929fb8" transform="matrix(-.79107 6.88137 -26.40261 -3.0352 11.7 98.2)"/><path fill="#143160" d="M138 166h17v2h-17z"/><path fill="#0f2a4e" d="M216 142h16v7h-16z"/><path fill="#5a81bb" d="M115 151h23v2h-23z"/><path fill="#001e42" d="M96 161.2v1l-38-1.4v-1z"/><path fill="#c6b3a8" d="M14.9 106.1l9.7 2.9 39.4 3-16.8-5.1z"/><path fill="#476da4" d="M105.7 136.1l-45.2 8.8-.2-1 45.2-8.8z"/><path fill="#6e95cb" d="M115.5 143.9l15-.8v1l-15 .8z"/><path fill="#42689f" d="M177 130h20v5h-20z"/><path fill="#6b8bb6" d="M237 99h19v15h-19z"/><path fill="#082a51" d="M139 140.5l20-1v2l-20 1z"/><path fill="#3f649a" d="M176 160l-19.3 25-7.3-13.7 37.1-8.1z"/><path fill="#183967" d="M204 136l-3-9-15 10z"/><path fill="#33568a" d="M76.5 152.3l9.8-12.6 10.8 21.9-92.2-21.4z"/><path fill="#a2afc9" d="M86 80l82 25 79-27z"/><ellipse cy="138" fill="#3f6394" rx="17" ry="2"/></g></g></svg>