<svg xmlns="http://www.w3.org/2000/svg" viewBox="0 0 1200 1800"><defs/><filter id="a"><feGaussianBlur stdDeviation="12"/></filter><rect width="100%" height="100%" fill="#5c312f"/><g filter="url(#a)"><g fill-opacity=".5" transform="translate(3.5 3.5) scale(7.03125)"><circle cx="106" cy="130" r="169" fill="#00120a"/><ellipse cx="86" cy="178" fill="#b3af96" rx="13" ry="146"/><circle r="1" fill="#949887" transform="matrix(-19.568 -20.12223 29.02304 -28.22367 90.6 74.3)"/><circle r="1" transform="matrix(6.40195 -168.8787 35.83242 1.35835 147.2 133.1)"/><circle r="1" transform="matrix(-92.21126 141.62656 -38.26096 -24.91122 46.1 27.2)"/><path fill="#ffebbe" d="M77.2 219.9l.6-34 15 .2-.6 34z"/><ellipse cx="27" cy="176" fill="#000b06" rx="33" ry="169"/><path fill="#fff" d="M97.1 130.7l-8.4 18.1-11.8-5.5 8.4-18.1z"/><path fill="#aba38d" d="M63.6 81.3l4.2-45.6 14.6 18 50.2-2.4z"/><path fill="#141b18" d="M38.9 164L185 49.8 67.2 111.1 22.5 41.5z"/><circle r="1" fill="#e3c873" transform="matrix(.43099 18.99199 -3.47298 .07881 19 202.7)"/><path fill="#0b130a" d="M101.6 142.4l-.7 26.5 39.1 11.6-73.7-3.2z"/><circle r="1" fill="#b9b7a2" transform="rotate(9 -429.3 802.2) scale(8.60035 5.68873)"/><path fill="#eff0e7" d="M72 89h15v15H72z"/><path fill="#dcce78" d="M62.5 181.4l3.9 35.4 1.2-46.3-1 7.1z"/><path d="M92 226h9v30h-9z"/><circle r="1" fill="#000003" transform="matrix(162.023 8.77485 -1.48683 27.4536 114 11.1)"/><path fill="#9b938d" d="M100 117l13 7-15 23z"/><path fill="#0e110f" d="M50 18l35 49-101-13z"/><circle r="1" fill="#dfd0b3" transform="matrix(13.17838 -16.3906 2.14425 1.72402 95.6 53.3)"/><path fill="#e2ced8" d="M70 248h15v8H70z"/><circle r="1" fill="#efe5d1" transform="matrix(-.13033 2.07786 -17.0169 -1.06736 73.1 70)"/><path fill="#0e1413" d="M117 147.8L88.6 71.4l2.3 59.3L185 59.6z"/><path fill="#656141" d="M113 226.1L98.1 229 89 181.9l14.7-2.9z"/><path fill="#141a11" d="M68 119h9v116h-9z"/><circle r="1" fill="#000509" transform="rotate(10.9 -833 915.4) scale(34.62292 159.21943)"/><path fill="#29261a" d="M112.7 52.8l12.5 13-18 17.4-12.4-13z"/><path fill="#f0e7d2" d="M71.7 42l36.4 47.2-28.2-29.4-9.4-17.3z"/><path fill="#060703" d="M79 38h11v18H79z"/><path fill="#000001" d="M44 187l-51 84 89-47z"/><path fill="#cdc6b8" d="M73.4 81.6l25.3-48.4-27.1 59L54 93.3z"/><path fill="#fef5f8" d="M76 133h18v9H76z"/><circle r="1" fill="#d6c7ae" transform="matrix(22.37672 -16.05083 1.10631 1.54232 94.6 63)"/><path fill="#1d201a" d="M38.3 88.9L40.8 59l33 19.1-3.3 5.6z"/><path fill="#020708" d="M106 47l6-63 65 50z"/><path fill="#776851" d="M108.6 207.2L62.4 271l.1-16.5 11.5-23z"/><path fill="#fff" d="M63 54h5v3h-5z"/><circle r="1" fill="#38321d" transform="rotate(-85 115.2 57.5) scale(5.84928 68.43042)"/><path fill="#5b5c51" d="M137.8 79.8l-46.3-21L94 92.3l8.5 11.4z"/><path fill="#a9944d" d="M14 188h10v18H14z"/><path fill="#1a170f" d="M82 77h3v20h-3z"/><path fill="#161a19" d="M98 142l19 7-44 8z"/><path fill="#ffedd7" d="M85 83h3v24h-3z"/><path fill="#fffffd" d="M116 72h10v3h-10z"/><path fill="#ddd4bf" d="M95.1 37.6L83.4 65.5 70 45.5l21.9 23.6z"/><path fill="#e8e7dc" d="M108.6 51.3l-10.4 8.4 11.2-5.1 12.8-9.7z"/><path fill="#a99b5c" d="M61.3 178.6l-1 2.1 8.7-5.2-4.4 40.4z"/><path fill="#d2bb9b" d="M79 180h10v41H79z"/><circle r="1" transform="matrix(-13.18546 1.19085 -4.51994 -50.04614 2 223.7)"/><path fill="#1e211b" d="M50.9 147.4l19.5-62L55 98.1l40.5 21.3z"/><path fill="#313224" d="M71.8 242.2l57.1 28.8-31.6-54.1-10.4 26.2z"/><path fill="#2f3525" d="M80 185l25 10 13-20z"/><path fill="#807063" d="M85.9 160.9l11-44.1 13.5 15-44.3 37.1z"/><path fill="#111613" d="M154.7 103.8l-66.3 74.6 69.6.9-58.4-92.1z"/><path fill="#3c3a30" d="M73 60l47.5 33.1-4.8-30.7L97 83.5z"/><path fill="#e5daff" d="M82.6 239.2l-.5 2-8.7-2.4.5-2z"/><path fill="#dfdfd5" d="M88.6 92.6l-16.2 4.3-9.5 7.4 24-9z"/><path fill="#0c0f0c" d="M21 119h57v42H21z"/><path fill="#fffff3" d="M93.3 55.6L104 43.7l.7.7L94 56.3z"/><path fill="#fffbed" d="M112.8 90.7l-.7.8-11-10.2.8-.8z"/><path fill="#1d2019" d="M91.9 61.9l33.7-21.3L43 33.1l83.1-5.5z"/><path fill="#e0d9c1" d="M117 78l11 3-6 1z"/><circle cx="102" cy="96" r="3" fill="#c4bbb4"/><path fill="#d9ced2" d="M72.6 140.6l14.6 10.5-2.7-7.5 6.7-14.6z"/><path fill="#e8e0d5" d="M56 91h3v7h-3z"/><path fill="#c4ad89" d="M68 231h30v2H68z"/><path fill="#eadfc8" d="M72 76l-4-9 22 3z"/><path fill="#b3b5a5" d="M107.7 43.7l-3.2 2.5-6.2-8 3.2-2.4z"/><path fill="#ffeed6" d="M88.2 64.7l.8.6-17.2 22-.8-.6z"/><path fill="#b19b9e" d="M78 144h4v23h-4z"/><path fill="#e6dfcb" d="M71.6 42.7l-1.5-1.6 3 10.2 23.2 26.8z"/><path fill="#5d5030" d="M22.5 223.2l-1.1 9.9-5.1 1.8-1.1-29.2z"/><ellipse cx="105" cy="66" fill="#f2e0c3" rx="2" ry="3"/><circle r="1" fill="#7a6142" transform="matrix(2.28063 -.49978 3.24288 14.79797 96 63.4)"/><path fill="#33342b" d="M66 117l14-18 19 28z"/><path fill="#0b1011" d="M164.2 32.6l.3 42.6L185 95.1 107.6 64z"/><path fill="#5f5637" d="M16 144h5v20h-5z"/><ellipse cx="123" cy="53" fill="#b1b39e" rx="5" ry="3"/><path fill="#453d2d" d="M108.4 229.2l5.3-9.1-37.9 8.5 29.3 6.3z"/><path fill="#e7e3db" d="M75.3 106.2l-.8 1.5 4-12.7-8 14.9z"/><circle r="1" fill="#7a9178" transform="rotate(-103.5 107.2 42.9) scale(1.49759 13.74464)"/><path fill="#806e55" d="M109.5 208l-20.6 16.8 20.9-4.4-30.4-38.8z"/><path fill="#0d110c" d="M116.4 214.2L95.1 271l-2-41.7 57.1 41.7z"/><path fill="#e0ccac" d="M83 199h8v25h-8z"/><path fill="#f5ecd7" d="M113.1 49.2L95.6 65.5l-.7-.7 17.5-16.3z"/><path fill="#555239" d="M71.9 162.1L63.6 174l2.2-30.8-6.4 20.2z"/><path fill="#c6b7d1" d="M84 244l4 27-23-6z"/><path fill="#28271e" d="M38 67l36-13 9 12z"/><path fill="#25271f" d="M82.4 75.5l32 19.2 6.7 36.3L96 74.8z"/><path fill="#846e54" d="M80.1 235.4l-1-42.8-.5-24.4-4.4 32.7z"/><path fill="#dbc68b" d="M20.4 201.3l1.2 8.9-4 .5-1.2-8.9z"/><ellipse cx="63" cy="173" fill="#1e1e15" rx="55" ry="6"/><circle r="1" fill="#020406" transform="rotate(-46.6 18.8 -3) scale(118.95785 36.79271)"/><path fill="#cdbcba" d="M101.4 128.7l-2.4-3.2 5.6-4.2 2.4 3.2z"/><path fill="#020505" d="M53.6 253.1L19.4 271-16 241.2l91.7 2.5z"/><path fill="#dbd8cc" d="M71 101.1l-.6-.8L95 84.9l.6.8z"/><circle cx="64" cy="54" r="2" fill="#f7f1d7"/><path fill="#5d4b35" d="M88 74.3l3.1-2.8-17.6 15.1 2.3 4.8z"/><path fill="#3c3b2c" d="M78.5 73.9l1 1.7-10 6.5-1-1.7z"/><path fill="#555746" d="M103 267v-26l10 10z"/></g></g></svg>