<svg xmlns="http://www.w3.org/2000/svg" viewBox="0 0 1800 1200"><defs/><filter id="a"><feGaussianBlur stdDeviation="12"/></filter><rect width="100%" height="100%" fill="#2b3957"/><g filter="url(#a)"><g fill-opacity=".5" transform="translate(3.5 3.5) scale(7.03125)"><circle r="1" fill="#bbedff" transform="rotate(-84 104.4 -29.6) scale(104.3914 239.67352)"/><circle r="1" fill="#a7c4ec" transform="matrix(-1.47196 36.86944 -163.60213 -6.53157 148.7 78.3)"/><ellipse cx="248" cy="135" fill="#0e376b" rx="56" ry="22"/><circle r="1" fill="#3b7ed5" transform="matrix(4.10053 -51.77522 254.204 20.1326 74.5 0)"/><ellipse cx="59" cy="142" fill="#596576" rx="121" ry="29"/><ellipse cx="200" cy="169" fill="#ffdfbd" rx="67" ry="15"/><path fill="#fff8d8" d="M173 101h18v38h-18z"/><path fill="#e2871a" d="M105.4 162.6l.2 11-107 1.8-.2-11z"/><path fill="#8b6e5c" d="M181.8 81.4L203.6 185l-10.4-92.4-40.3 30.9z"/><ellipse cx="160" cy="2" fill="#346eb2" rx="255" ry="15"/><circle r="1" fill="#234165" transform="matrix(-23.42802 1.59596 -.47795 -7.01613 181.1 146.4)"/><ellipse cx="125" cy="48" fill="#76a2d3" rx="175" ry="19"/><path fill="#d7c0b1" d="M75 114H10.9l43.8-9.9 61.5 10.9z"/><path fill="#b0aa9c" d="M0 150h108v6H0z"/><circle r="1" fill="#a7bcce" transform="rotate(96.6 8 88.9) scale(16.64017 76.06501)"/><circle r="1" fill="#c3bfb2" transform="matrix(-.8457 -1.92903 28.22697 -12.37494 248.2 145)"/><path fill="#fffffb" d="M156 159h38v7h-38z"/><circle r="1" fill="#5f84ad" transform="matrix(-75.01686 -3.14414 .62408 -14.89 105.3 129.4)"/><ellipse cx="45" cy="160" fill="#3d474f" rx="42" ry="4"/><path fill="#5e6c7d" d="M180.2 136.8l-2 8.2 28.7 24.5 30.7 15.5z"/><path fill="#fffbf7" d="M190 104l-5 28-9-34z"/><ellipse cx="33" cy="117" fill="#386aa2" rx="134" ry="4"/><path fill="#5f3207" d="M191 98l-20-3 7-6z"/><path fill="#96816e" d="M271 166l-63 19 10-24z"/><ellipse cx="36" cy="128" fill="#abb2b5" rx="89" ry="2"/><ellipse cx="105" cy="110" fill="#9d9692" rx="36" ry="5"/><path fill="#825b45" d="M195.2 113.8l3.6 41.9-6 .5-3.6-41.9z"/><ellipse cx="252" cy="154" fill="#1a3557" rx="19" ry="5"/><ellipse cx="20" cy="141" fill="#45668b" rx="91" ry="8"/><path fill="#98bbdc" d="M23 91l111-36 123 32z"/><path fill="#9a5a2b" d="M171 128h16v4h-16z"/><path fill="#4b627a" d="M72 153h79v9H72z"/><path fill="#a2a2a2" d="M197 103h55v12h-55z"/><path fill="#fffffb" d="M189 157l15 11.7-5 6.3-15-11.7z"/><ellipse cx="248" cy="160" fill="#fff" rx="33" ry="2"/><path fill="#995c33" d="M166 118l7-17-2 22z"/><path fill="#595b5f" d="M147 165h14v5h-14z"/><circle r="1" fill="#7a747d" transform="rotate(-10.2 609 26.7) scale(31.5035 7.68414)"/><path fill="#326191" d="M198 115h58v28h-58z"/><ellipse cx="68" cy="112" fill="#e5eae8" rx="20" ry="2"/><path fill="#d6dae1" d="M187.9 113l-18.2 23.6 2.4-14.5 28-40.6z"/><path fill="#ddcfb5" d="M0 155h39v2H0z"/><path fill="#e6d1b8" d="M215 155h-16l9-8z"/><circle cx="190" cy="133" r="5" fill="#d0deec"/><path fill="#fcdfbb" d="M142 162l-36 23 5-14z"/><path fill="#29517b" d="M204.1 146.1l15.3 11.8 51.6-60-31.9 53z"/><path fill="#c8bfaf" d="M108 211.3l-9-84.5 1-.1 9 84.5z"/><path fill="#758494" d="M66 106h39v6H66z"/><path fill="#f0dfbc" d="M74.7 152l-6.5 12.4-1-.5 6.6-12.3z"/><path fill="#25598d" d="M171 154l-3-38-10 37z"/><ellipse cx="8" cy="120" fill="#31649b" rx="44" ry="5"/><path fill="#bebeb9" d="M97.2 129.2v-1l69.6-7.4v1z"/><path fill="#ecebdc" d="M232.7 159.5l-2.2-9.3-15.2 8.7 55.7 7.9z"/><path fill="#dfc7a2" d="M156 136h2v27h-2z"/><circle cx="48" cy="161" r="3" fill="#e5c99c"/><path fill="#a2b1bd" d="M166 115l-92-11 100-17z"/><path fill="#ffc899" d="M180.8 104.9l-5-7.6 3.4-2.2 5 7.6z"/><ellipse cx="193" cy="119" fill="#4e4141" rx="4" ry="10"/><ellipse cx="139" cy="58" fill="#7da5d3" rx="237" ry="12"/><path fill="#99b5d0" d="M189 104.4l-13.1-51.1L258 98.4l-58.4 10.7z"/><path fill="#e3c495" d="M86 153h3v17h-3z"/><path fill="#96aac0" d="M-16 96L1 71l62 27z"/><path fill="#3b536b" d="M31.4 152l-56.7 5-.1-1 56.7-5z"/><path fill="#eae8e2" d="M171 135l11-1-13-4z"/><circle r="1" fill="#3b4b5d" transform="matrix(-.17703 -1.03234 13.81789 -2.3696 65.7 156.8)"/><path fill="#c1bdb4" d="M271 139.2l-38.2 14.7-37.3 17.6 61.3-30.9z"/><path fill="#f9ddac" d="M22 159h4v6h-4z"/><ellipse cx="241" cy="156" fill="#394a58" rx="31" ry="1"/><path fill="#c19b69" d="M78 163h29v7H78z"/><path fill="#434b48" d="M159 158.8l-13.7 3.4-.2-1 13.6-3.4z"/><path fill="#507eaf" d="M31 120h68v8H31z"/><path fill="#f1f1ef" d="M32 112h33v2H32z"/><path fill="#46596e" d="M95.3 179.4l33.4-15.1-23 4.1 19.9-12.7z"/><ellipse cx="61" cy="129" fill="#e6d3b5" rx="23" ry="1"/><ellipse cx="30" cy="105" fill="#7e8492" rx="24" ry="5"/><path fill="#ffffe9" d="M152.9 114.5l-19.9-2 .1-1 19.9 2z"/><ellipse cx="180" cy="113" fill="#efedee" rx="7" ry="13"/><path fill="#866036" d="M0 165h66v5H0z"/><circle r="1" fill="#6793c8" transform="matrix(3.13695 11.95733 -74.60742 19.5729 24.7 46.5)"/><ellipse cx="171" cy="138" fill="#837f7b" rx="20" ry="2"/><path fill="#f9f9ef" d="M175 163l-12-5-18 6z"/><path fill="#cdc8bc" d="M186 112h43v3h-43z"/><path fill="#a7a297" d="M65.8 153.6l-4.1-29.7 1.9 22.6 31.1 7.3z"/><path fill="#4a688c" d="M28 149.8l-41.8-3.7 1.8-19.9 41.8 3.7z"/><path fill="#2e5781" d="M271 135l-57 20 10-28z"/><ellipse cx="254" cy="110" fill="#8692a2" rx="41" ry="5"/><ellipse cx="38" cy="154" fill="#ccccbe" rx="28" ry="1"/><circle r="1" fill="#4176b5" transform="rotate(170 5.3 7) scale(48.13879 14.18136)"/><ellipse cx="126" cy="20" fill="#5589c5" rx="95" ry="12"/><path fill="#ded8cc" d="M61.4 107l-1.6-5.3-10.6 9.6 16.3 2.4z"/><circle r="1" fill="#4076b4" transform="matrix(-.54022 17.6379 -67.784 -2.0761 254.1 9.3)"/><path fill="#e8efe9" d="M163.6 157.3l-.1-1 23-1.6v1z"/><path fill="#5a7796" d="M78 137h51v14H78z"/><ellipse cx="192" cy="109" fill="#593c31" rx="2" ry="5"/><ellipse cx="4" cy="126" fill="#e5e4d3" rx="9" ry="1"/><path fill="#153a65" d="M46 162l-19-3 17-3z"/><path fill="#563c25" d="M183 89l-13 3 16 4z"/><path fill="#a9a59f" d="M159.7 153.3l.3 1-57.7 16.4-.3-1z"/><ellipse cx="166" cy="86" fill="#9ab9d6" rx="7" ry="23"/><circle r="1" fill="#8fb2d8" transform="matrix(1.58554 10.24197 -51.3815 7.95428 63.9 71.7)"/></g></g></svg>