<svg xmlns="http://www.w3.org/2000/svg" viewBox="0 0 1800 1200"><defs/><filter id="prefix__a"><feGaussianBlur stdDeviation="12"/></filter><rect width="100%" height="100%" fill="#275758"/><g filter="url(#prefix__a)"><g transform="translate(3.5 3.5) scale(7.03125)"><circle r="1" fill="#eed9ff" fill-opacity=".5" transform="rotate(-178.9 54.8 22.7) scale(255 72.28168)"/><circle r="1" fill="#d8dad9" fill-opacity=".5" transform="matrix(-8.54944 -23.73244 95.50368 -34.40452 187.6 40.7)"/><circle r="1" fill="#5371a4" fill-opacity=".5" transform="rotate(81 43 66.5) scale(24.25352 130.30994)"/><ellipse cx="161" cy="109" fill="#798095" fill-opacity=".5" rx="255" ry="9"/><circle r="1" fill="#707c8a" fill-opacity=".5" transform="matrix(-4.7102 -16.56326 91.61494 -26.05315 229.7 91.3)"/><circle r="1" fill="#c0c4c8" fill-opacity=".5" transform="matrix(-13.67566 -31.60259 54.66948 -23.6576 220.8 38.4)"/><ellipse cx="18" cy="59" fill="#7689a9" fill-opacity=".5" rx="88" ry="59"/><path fill="#a69fb0" fill-opacity=".5" d="M72 120h32v5H72z"/><path fill="#c5cbd0" fill-opacity=".5" d="M112 32h88v17h-88z"/><path fill="#878d97" fill-opacity=".5" d="M155 64h18v58h-18z"/><path fill="#627ba3" fill-opacity=".5" d="M66 3l116 28 4-47z"/><path fill="#a1a7b1" fill-opacity=".5" d="M271 19L98 89l123-15z"/><path fill="#0e1a2d" fill-opacity=".5" d="M104 118h48v3h-48z"/><path fill="#7b879a" fill-opacity=".5" d="M123 87h133v31H123z"/><path fill="#273238" fill-opacity=".5" d="M168.7 140.1l8.7-23.8 93.6 7.6-121.2-.8z"/><circle r="1" fill="#cad0d5" fill-opacity=".5" transform="matrix(5.99728 10.97884 -57.07129 31.17567 227.4 14.4)"/><path fill="#627ba0" fill-opacity=".5" d="M214.2-3.6l-6.4 23.8-6.9-7.7-74-12.4z"/><ellipse cx="228" cy="158" fill="#356961" fill-opacity=".5" rx="58" ry="21"/><path fill="#dbc3b3" fill-opacity=".5" d="M158 118h13v5h-13z"/><path fill="#a3abb6" fill-opacity=".5" d="M68.4 91.2l-2-17 93.2-11.4 2 17z"/><path fill="#444d4f" fill-opacity=".5" d="M163 65h2v53h-2z"/><path fill="#0b1516" fill-opacity=".5" d="M155 131v-11l26 8z"/><ellipse cx="50" cy="113" fill="#7e889b" fill-opacity=".5" rx="108" ry="5"/><circle r="1" fill="#2e3849" fill-opacity=".5" transform="matrix(-47.48785 1.32646 -.13458 -4.81791 26.5 122.4)"/><ellipse cx="29" cy="30" fill="#6f84a9" fill-opacity=".5" rx="91" ry="26"/><path fill="#565d64" fill-opacity=".5" d="M185.7 132.3l-9.2-11.6-19.4-2.9 20.1-4.8z"/><circle r="1" fill="#bdc2c9" fill-opacity=".5" transform="matrix(32.1414 5.31434 -2.34636 14.19092 146.5 47.9)"/><path fill="#8a99ad" fill-opacity=".5" d="M66.7 114.8l49.7-63.7-8.1-2.4L47.8 75z"/><path fill="#8d98a9" fill-opacity=".5" d="M263 42l-34-3 42-21z"/><path fill="#d2d5d9" fill-opacity=".5" d="M190.8 12.8l-5.1 5.2 13.1 13.2 22.6-7.3z"/><path fill="#bfc5ca" fill-opacity=".5" d="M233 65l-70-9-6-33z"/><circle r="1" fill="#7b8faf" fill-opacity=".5" transform="matrix(-61.06745 13.59027 -1.40913 -6.3319 121.7 28.5)"/><circle r="1" fill="#6f86a8" fill-opacity=".5" transform="rotate(68.9 74.8 130.4) scale(20.80618 10.39931)"/><path fill="#364b56" fill-opacity=".5" d="M96 117h58v8H96z"/><path fill="#28615c" fill-opacity=".5" d="M117 131h96v39h-96z"/><circle cx="239" cy="95" r="22" fill="#748196" fill-opacity=".5"/><ellipse cx="241" cy="122" fill="#2a4045" fill-opacity=".5" rx="72" ry="5"/><circle r="1" fill="#7f8a9f" fill-opacity=".5" transform="matrix(64.10635 10.9697 -3.39628 19.84768 9.2 95.4)"/><path fill="#adb4bf" fill-opacity=".5" d="M152 25l-38 62-25-7z"/><path fill="#828d9d" fill-opacity=".5" d="M233 66.3l-55.7 18.1.5 32.8 48.8.2z"/><path fill="#979fad" fill-opacity=".5" d="M161.8 86.7L55.7 99.9l105-32.9 4.9-6.1z"/><circle r="1" fill="#667ca4" fill-opacity=".5" transform="rotate(162 38.8 10.6) scale(52.31112 14.57892)"/><path fill="#3d575b" fill-opacity=".5" d="M137.6 124.3l55-.5-44.3-10.3 61.7 12.2z"/><path fill="#c2c8cf" fill-opacity=".5" d="M133.1 30.6l-30.2 19.3 25-6.2 18.2-10.3z"/><path fill="#6a6f73" fill-opacity=".5" d="M75.6 115.5l14.6.6 21.6 9.5-1.1 1.5z"/><circle r="1" fill="#565e5e" fill-opacity=".5" transform="matrix(.21858 -1.63816 18.67564 2.49186 170 124.3)"/><ellipse cx="226" cy="146" fill="#3a696c" fill-opacity=".5" rx="33" ry="5"/><path fill="#d7d9db" fill-opacity=".5" d="M216 3h25v4h-25z"/><path fill="#8994a5" fill-opacity=".5" d="M52 90h106v21H52z"/><path fill="#abb1b9" fill-opacity=".5" d="M243 37l27 24-104 6z"/><path fill="#22484c" fill-opacity=".5" d="M-16 124l19.2 13.6 77.4-14.2-96.6-1.3z"/><path fill="#586168" fill-opacity=".5" d="M173 86h2v31h-2z"/><path fill="#7288a8" fill-opacity=".5" d="M198.4 11.4l-31.7 13.4 53.9-29.2-12.8 20z"/><circle r="1" fill="#7687a7" fill-opacity=".5" transform="matrix(19.69782 -7.32555 13.53428 36.39258 20.8 41.4)"/><path fill="#8e9dab" fill-opacity=".5" d="M81 121h22v3H81z"/><path fill="#2f6561" fill-opacity=".5" d="M197 126h59v7h-59z"/><ellipse cx="87" cy="54" fill="#8094b4" fill-opacity=".5" rx="23" ry="13"/><ellipse fill="#a2a7b7" fill-opacity=".5" rx="28" ry="4"/><path fill="#464453" fill-opacity=".5" d="M60 118h40v3H60z"/><path fill="#7f9fa1" fill-opacity=".5" d="M179.5 160l-.8-3 3.8-1 .8 3z"/><path fill="#6f7b8f" fill-opacity=".5" d="M216.6 83.1l54.4-2.2v-5.8l-24.5-3.5z"/><path fill="#adb5c0" fill-opacity=".5" d="M185 34l-37-5-18 14z"/><path fill="#1e5250" fill-opacity=".5" d="M55 148h82v9H55z"/><path fill="#9ca2b1" fill-opacity=".5" d="M2.6 68.2L-3 66.3l-8.3-5.3L4.4 49.8z"/><path fill="#1a2940" fill-opacity=".5" d="M163 118v-7l4 6z"/><path fill="#000e13" fill-opacity=".5" d="M162 129l-8-6 24 5z"/><circle r="1" fill="#2d5855" fill-opacity=".5" transform="rotate(-68 134.1 71.3) scale(30.95378 57.04431)"/><path fill="#bfc5ca" fill-opacity=".5" d="M167.5 44.3l-20 21.9 49.9-8.2-10.5-35z"/><path fill="#a5abb4" fill-opacity=".5" d="M166 83.5l2.1-20.9 18 1.9-2.2 20.9z"/><path fill="#788494" fill-opacity=".5" d="M79 114h76v4H79z"/><path fill="#c8ced2" fill-opacity=".5" d="M231.1 16.3l-10-32.3 40.5 29.4-18.3 10.7z"/><path fill="#2a5e56" fill-opacity=".5" d="M4 159h239v11H4z"/><path fill="#979faa" fill-opacity=".5" d="M252.8 69.5l-24.3-1 33.8-15.9-18.8-2z"/><path fill="#f6f4e4" fill-opacity=".5" d="M164.4 121.2l-5-.4.2-2 5 .4z"/><ellipse cx="126" fill="#6179a0" fill-opacity=".5" rx="91" ry="4"/><ellipse cx="226" cy="111" fill="#748296" fill-opacity=".5" rx="66" ry="6"/><path fill="#20474e" fill-opacity=".5" d="M123 117h33l-49 17z"/><path fill="#a1a9b4" fill-opacity=".5" d="M163.3 82.9l.8-5.5-6.1-12.7-10.8 23.9z"/><ellipse cx="109" cy="124" fill="#b4c1ca" fill-opacity=".5" rx="2" ry="1"/><path fill="#8a95ad" fill-opacity=".5" d="M21 1h29v5H21z"/><path fill="#d6dadb" fill-opacity=".5" d="M160 32v-6l10 5z"/><path fill="#bec4ca" fill-opacity=".5" d="M217.5 5L235 39.8l-27.2 1.3 2.4-31.4z"/><path fill="#828ea0" fill-opacity=".5" d="M174 86h38v26h-38z"/><path fill="#253548" fill-opacity=".5" d="M180 118h76v3h-76z"/><circle r="1" fill="#b9bec4" fill-opacity=".5" transform="matrix(80.75399 9.48641 -.17129 1.4581 228.3 56.3)"/><path fill="#8194b1" fill-opacity=".5" d="M148.5 21.8l33.8-2.1-17.4 5.8-70.4 16.8z"/><path fill="#d1d4d6" fill-opacity=".5" d="M118 36h15v7h-15z"/><path fill="#b3bac3" fill-opacity=".5" d="M108.2 49l2.1-7.7L153.8 53l-2.1 7.7z"/><path fill="#54544d" fill-opacity=".5" d="M89.1 118.6l-1.7 1-2.5-4.2 1.7-1z"/><ellipse cx="204" cy="118" fill="#344354" fill-opacity=".5" rx="36" ry="1"/><path fill="#a4acb8" fill-opacity=".5" d="M208 40h30v14h-30z"/><path fill="#466b6a" fill-opacity=".5" d="M255.5 161h-19v-4h19z"/><path fill="none" stroke="#ded8d0" stroke-opacity=".5" stroke-width=".5" d="M157.7 118.3q6.3 6 16.2 1"/><path fill="#bcc1c8" fill-opacity=".5" d="M103 70l15 6-8-18z"/><path fill="#7488a9" fill-opacity=".5" d="M185 5l-51 22 51-7z"/><ellipse cx="85" cy="81" fill="#748691" fill-opacity=".5" rx="1" ry="33"/><path fill="#235a5a" fill-opacity=".5" d="M226 138l-52 9 9-23z"/><ellipse cx="165" cy="119" fill="#c6c6be" fill-opacity=".5" rx="8" ry="1"/><path fill="#d5d8da" fill-opacity=".5" d="M189 14h13v6h-13z"/><path fill="#b4bcc2" fill-opacity=".5" d="M239 3.7l31-7.2 1 3.8-31.2 7.2z"/></g></g></svg>