<svg xmlns="http://www.w3.org/2000/svg" viewBox="0 0 1800 1200"><defs/><filter id="a"><feGaussianBlur stdDeviation="12"/></filter><rect width="100%" height="100%" fill="#353653"/><g filter="url(#a)"><g fill-opacity=".5" transform="translate(3.5 3.5) scale(7.03125)"><ellipse cx="95" cy="59" fill="#b9b295" rx="98" ry="156"/><circle r="1" fill="#a1bbff" transform="matrix(-9.82919 33.09834 -31.6475 -9.39833 151.2 135)"/><ellipse cx="230" cy="33" fill="#131500" rx="70" ry="38"/><circle r="1" fill="#99b8ff" transform="matrix(19.75433 -14.26094 18.89338 26.17122 38.4 105.5)"/><circle r="1" fill="#0a0b00" transform="matrix(7.79217 -79.61993 60.19607 5.89122 255 123.7)"/><path fill="#22220f" d="M44 126l-60 50 158-18z"/><path d="M77 142L60 72l22-39z"/><circle r="1" fill="#7f99ff" transform="matrix(23.48145 -32.0433 15.1 11.06534 167.5 107.2)"/><path fill="#fffff1" d="M113 126l53 46-83-37z"/><path d="M43 53.6l-21 .8-1-32 21-.8z"/><circle r="1" fill="#fbcf95" transform="rotate(176.7 42.6 23.5) scale(7.70627 59.46661)"/><path fill="#372e0f" d="M89.7 92.1l37.6-20.8 17 30.6-37.6 20.8z"/><path fill="#8b5400" d="M-16 127l32 32L5 19z"/><circle r="1" fill="#d1aa6b" transform="matrix(2.64146 -16.19169 48.45906 7.90545 39.1 6.9)"/><path fill="#9d958d" d="M208.8 30.8l-1.1-9.1-15.4 15.6L208 66.2z"/><circle r="1" fill="#020817" transform="rotate(29.6 -255.5 303) scale(19.51709 14.32386)"/><ellipse cx="170" cy="6" fill="#c3ffc6" rx="13" ry="11"/><circle r="1" fill="#8ea2f1" transform="rotate(157.5 6.5 60.8) scale(27.47887 20.29771)"/><ellipse cx="113" cy="34" fill="#d49823" rx="5" ry="90"/><circle r="1" fill="#5d4c23" transform="matrix(14.13096 61.69902 -8.83406 2.02327 151 26.5)"/><ellipse cx="86" cy="104" fill="#ffd08d" rx="7" ry="20"/><path fill="#b5d6fc" d="M85 147h10v23H85z"/><path fill="#000008" d="M151 102h-33l48-15z"/><path fill="#272c39" d="M199.2 160.2l-27.3-10 9-24.4 27.2 10z"/><path fill="#6a78ca" d="M183.6 150.7l-56.2-16.3 52.5 50.6h3.8z"/><circle r="1" fill="#131c1f" transform="rotate(85.9 12.6 64.7) scale(19.04595 6.61619)"/><path fill="#9db2ff" d="M180.7 68.4l-22.8 103 34.6-68.1-5-35.6z"/><path fill="#351f0d" d="M122 138h23v7h-23z"/><path fill="#a0691e" d="M110.7 126l-99.4 22.9-2-8.8 99.4-23z"/><path fill="#fff" d="M123 33h7v17h-7zm27 36h6v23h-6z"/><circle r="1" fill="#8a5d17" transform="matrix(8.69982 -.50028 3.62654 63.06474 2.7 29.7)"/><path fill="#ffffe0" d="M141 170l-20-29 55 39z"/><ellipse cx="69" cy="78" fill="#2c2c26" rx="14" ry="27"/><path fill="#fff" d="M135 59h13v8h-13z"/><path fill="#95a8ff" d="M104 128l51-29-23 41z"/><ellipse cx="54" cy="47" fill="#ad8d60" rx="8" ry="54"/><path fill="#c2d5ff" d="M80 127l-27-19-1 18z"/><path fill="#16151d" d="M191 69l-32-36 35-23z"/><path fill="#7f98e7" d="M13 70h28v62H13z"/><path fill="#4d5239" d="M132.1 64.1l16.9 5.1-30.1 21.1-4.7-58z"/><circle r="1" fill="#13140e" transform="matrix(26.69678 .94902 -3.9854 112.11297 248.4 124.5)"/><ellipse cx="36" cy="159" fill="#3a3b2a" rx="50" ry="19"/><path fill="#000003" d="M103 94h7v25h-7z"/><path fill="#fffff5" d="M80 170.5l-10.4 5.7L89.7 165l65.2 20z"/><path fill="#354c93" d="M48.7 127.2l-1.3-21.5L36 99.3l-.6 12.3z"/><path fill="#bba684" d="M30.4-16L13.6 56.7 8.2-10.6l51.5 52.3z"/><circle r="1" fill="#515d41" transform="matrix(15.47305 -22.51342 15.4078 10.58949 139 7)"/><path fill="#6d7fd6" d="M147.5 132.6l-9.3-19.3 56.7-52.7 6.3 14.5z"/><circle r="1" fill="#7a603a" transform="matrix(.43694 11.42034 -24.88631 .95214 27 57.5)"/><path fill="#5a666e" d="M97.6-16l-6.9 126.3 2.5-.1 18.5-23.7z"/><circle r="1" fill="#fffff9" transform="matrix(1.00345 -2.2211 22.26221 10.05765 111 144)"/><path fill="#7a5936" d="M126 141l-46-14 14-7z"/><path fill="#e2c19b" d="M84 4h9v94h-9z"/><path fill="#d3dfff" d="M16.5 132l8.4-12.5 6.6 4.5-8.4 12.5z"/><path fill="#383a38" d="M201 182.5l21-117.8-7.4-21.6-37.2 94.9z"/><circle r="1" fill="#585d3f" transform="matrix(-26.74004 28.05252 -5.35968 -5.10892 146.5 39.6)"/><path fill="#aa8659" d="M184.2 58.1l-2.9 9.9-31.4-6.3 3.4-17.8z"/><path fill="#313b72" d="M193.2 99.4l-3.7 47.9-59.5 14.2 42.2-13.5z"/><path fill="#252937" d="M105.2 163.6l63 21.4-67.3-39.3-13.3 17.9z"/><path fill="#624013" d="M78 139l19-14-24 1z"/><path fill="#735b2f" d="M-11.1 155.5l-7.2-37.3 29.4-5.7 7.2 37.3z"/><path fill="#222418" d="M64.7 29.4l-1.8 6-4.2 14.3 5.3-2.6z"/><ellipse cx="108" fill="#c2ad78" rx="6" ry="42"/><path fill="#efc492" d="M93 121l-18 4 11-19z"/><path fill="#4c5245" d="M126.7 104.8l15.2-31.4 7.9 26.5 2.5-48z"/><circle r="1" fill="#b4f3e0" transform="matrix(-3.03566 -2.85067 8.5493 -9.10407 165 4.4)"/><path fill="#867d6b" d="M204 46l-1-20-22 16z"/><path fill="#7f694f" d="M35.3 66.3l26.5-11.1-.2 45.6-10.9-7.9z"/><path fill="#2b1b25" d="M151.5 13.6L174.1-16 145.9-2l3.6 40.5z"/><path fill="#f5f3da" d="M96.3 134.7l42.3 13.5 10 4.2-2.9 6.1z"/><path fill="#8c8e8a" d="M98.2 51.1l18.4 40.5 7.2 1.1-22.1-2.5z"/><path fill="#adc0f5" d="M31 78l38 28-38-9z"/><path fill="#3c3939" d="M168.7 66.8L173 69l-11.8 22.1L157 89z"/><path fill="#dfd3b3" d="M29 133.3l.2 1-58.2 14.4-.2-1z"/><path fill="#b2c1f5" d="M193.5 104.2l-44.7 31.2 34.8-35.3-2.1-21.7z"/><path fill="#abbdfe" d="M170.4 163l-2.7-16.4-26.2 2.2 29.1-18.7z"/><path fill="#2e3132" d="M61.2 90.5l24.1-36.3-11.9-38-1.9 32.5z"/><circle cx="139" cy="88" r="4" fill="#e7f1bc"/><path fill="#bbc9ff" d="M100.3 128.7l29.3 9.4 24.6-7.5-15.4-1.8z"/><path fill="#9d7148" d="M179 15l22-20-32-11z"/><path fill="#182951" d="M16 74l12-8-17-6z"/><path fill="#f4f4e5" d="M118.9 143.1l-20.3-7.8-14 3.3 32.3 11.6z"/><path fill="#576194" d="M19.6 111.4l-15-13 16.8 24.7 6.3-19z"/><path fill="#19222b" d="M118 94l3 17 41-19z"/><ellipse cx="97" cy="53" fill="#3d4447" rx="2" ry="67"/><path fill="#8c7557" d="M110.5 133.8l32.3 10.6-1.3 3.8-32.3-10.6z"/><path fill="#434ea2" d="M167 124l2.5 3.1-16.5 13-2.5-3.2z"/><circle r="1" fill="#7d5d2e" transform="matrix(4.02025 -.1125 .27566 9.85031 72.8 9.5)"/><path fill="#fff" d="M150.6 70.2l3-.3 1.8 20-3 .2z"/><path fill="#000607" d="M22 23h8v20h-8z"/><path fill="#00000e" d="M134 139h12v4h-12z"/><path fill="#161914" d="M38 145l-54 9 34 4z"/><path fill="#dcddd7" d="M174.3 154.6l-30 16.5-37.7-35.6 36.8 23.7z"/><path fill="#131007" d="M131.3 159.9l8 9-10.6 9.2-8-9z"/><path fill="#271b13" d="M106.9 63.9h-1l-2.8-31.8h1z"/><circle r="1" fill="#8799ed" transform="rotate(151.5 52.4 71.9) scale(13.58642 2.8881)"/><path fill="#95a282" d="M65 27h5v32h-5z"/><path fill="#262624" d="M190.7 76.1l.3-23.8-11.7-29.4 22.5 34.8z"/><path fill="#21252a" d="M67.8 119l13.5-3.5-12.7-56-8.6-3.6z"/></g></g></svg>