<svg xmlns="http://www.w3.org/2000/svg" viewBox="0 0 1675 1675"><defs/><filter id="a"><feGaussianBlur stdDeviation="12"/></filter><rect width="100%" height="100%" fill="#7c5d52"/><g filter="url(#a)"><g fill-opacity=".5" transform="translate(3.3 3.3) scale(6.54297)"><ellipse cx="105" cy="106" fill="#41b4ff" rx="255" ry="127"/><circle r="1" fill="#ffffe3" transform="matrix(-28.29603 19.0536 -16.56812 -24.6049 87 95.4)"/><circle cx="193" cy="150" r="79" fill="#609fff"/><circle r="1" fill="#184db7" transform="matrix(-252.32908 -36.81083 10.71583 -73.45434 128 0)"/><circle cx="20" cy="182" r="53" fill="#67aaff"/><path d="M-34.2 269.3l-2.2-13.8 194.6-30.8 2.2 13.8z"/><circle r="1" fill="#fdac7e" transform="matrix(-16.58151 -2.38943 6.31502 -43.82322 90 188.2)"/><ellipse cx="81" cy="47" fill="#c66c17" rx="20" ry="24"/><circle r="1" fill="#171415" transform="matrix(-9.27167 -16.79722 93.93977 -51.85252 233.2 245.8)"/><circle r="1" fill="#3378e5" transform="matrix(.40122 -62.03433 34.54708 .22344 23.7 94.4)"/><circle r="1" fill="#ffdac2" transform="matrix(62.12201 7.29766 -.64001 5.44815 125.6 79.2)"/><ellipse cx="162" cy="226" fill="#8e4714" rx="22" ry="12"/><circle r="1" fill="#ffedeb" transform="rotate(64.4 -28 126.7) scale(29.85767 14.80352)"/><path fill="#79b3ff" d="M103 176h41v50h-41z"/><path fill="#f9c7b3" d="M72 152l-17-47 41-64z"/><circle r="1" fill="#80b2ed" transform="matrix(9.9048 -28.76565 45.54289 15.68167 198 195)"/><path d="M199 231v21l-42-21z"/><circle r="1" fill="#407bcd" transform="matrix(-87.80129 37.26944 -13.86825 -32.67155 213 91.8)"/><path fill="#956b4f" d="M109.6 90.2l65.3-8.2 15.8 12.9-71.1-10.5z"/><path fill="#2b1404" d="M70 35L60 66l16 2z"/><ellipse cx="114" cy="230" fill="#a56238" rx="59" ry="3"/><ellipse cx="25" cy="249" fill="#03050d" rx="49" ry="7"/><path fill="#431000" d="M78.3 160.4l-.9 6.7L65 147.9l20.9 6.2z"/><ellipse cx="11" cy="214" fill="#7db0ed" rx="60" ry="17"/><circle r="1" fill="#281b1b" transform="rotate(-128.9 180.2 48.7) scale(15.98957 28.75164)"/><path fill="#354c6b" d="M94 123h17v31H94z"/><circle r="1" fill="#1f5aad" transform="rotate(1.3 86 7380.4) scale(201.39139 32.60664)"/><path fill="#3b7bde" d="M114 87h30v27h-30z"/><path fill="#b89685" d="M73 49h34v22H73z"/><path fill="#f8d7c3" d="M79.5 77.3l60.8-1.9L192.8 87l-24.4.1z"/><path fill="#a8c1da" d="M65 131l54 11-33 7z"/><circle r="1" fill="#3c7bd4" transform="matrix(-3.66034 -19.30405 43.36144 -8.22199 148.4 55)"/><ellipse cx="63" cy="95" fill="#d3a893" rx="7" ry="32"/><path fill="#eae2e5" d="M58 70l60 5-36 52z"/><path fill="#a37c68" d="M201 225h10v31h-10z"/><circle r="1" fill="#568fdb" transform="rotate(145.6 -6.4 75.7) scale(27.23918 70.08127)"/><path fill="#ab7f66" d="M238 244l-54 27 77-4z"/><ellipse cx="238" cy="174" fill="#6aa1e5" rx="132" ry="28"/><path fill="#f3dfdc" d="M110.8 114.6l.8-28.8 6.8 46.8-21.3-22.7z"/><path fill="#79aae4" d="M231.3 229.4l26.3-65.2-149.4 42.2 17.6-1z"/><circle r="1" fill="#0e0d12" transform="matrix(60.4682 -8.43914 .75169 5.38601 98.4 242.1)"/><path fill="#907667" d="M138 225h94v7h-94z"/><path fill="#89694e" d="M6 231h76v9H6z"/><path fill="#e19669" d="M68 148l14-3-23-23z"/><path fill="#cfa184" d="M97 231l14-76H80z"/><path fill="#a47e63" d="M212 263l-84-22-78 23z"/><path fill="#3b2317" d="M66 40h32v7H66z"/><circle r="1" fill="#eaba9e" transform="rotate(-84.4 153.7 60.8) scale(22.65328 5.40056)"/><path fill="#493224" d="M100 72l-9-5 12-15z"/><ellipse cx="86" cy="212" fill="#4689d1" rx="3" ry="19"/><path fill="#3b76c6" d="M0 34h58v77H0z"/><path fill="#0d0c10" d="M211 242l15 9 40-28z"/><path fill="#6ea1e0" d="M0 170h71v60H0z"/><path fill="#0b0e15" d="M198.9 271l-4.3-50 .7 8.3-17.5 2.9z"/><path fill="#8c6d60" d="M195 226h36v11h-36z"/><path fill="#9b7d6e" d="M271 226.4l-23.3-14.7 23.3 33.8-30.5-2.7z"/><path fill="#ebeef5" d="M92 68L53 85l20-17z"/><path fill="#3b516b" d="M79.7 157.9l21.8-8.3-2.1-26.1 19.5 9.3z"/><circle r="1" fill="#3c2c19" transform="rotate(116.5 33.9 40.8) scale(4.71452 6.86243)"/><path fill="#574a47" d="M124 85h46v4h-46z"/><path fill="#2a2a37" d="M94 122l-14 4 30 2z"/><path fill="#f6e8e6" d="M102 117l-31-7 7 17z"/><path fill="#2a4977" d="M67 106h4v9h-4z"/><ellipse cx="169" cy="255" fill="#966c52" rx="16" ry="20"/><path fill="#8a5939" d="M146 218l31 11v-15z"/><path fill="#6d3b2e" d="M63.9 94l-10.8-2 1-6 10.8 2z"/><path fill="#f9d4bf" d="M87 45l-13 8 16-3z"/><circle r="1" fill="#3b77ca" transform="rotate(28 -32.4 466) scale(47.81785 26.63283)"/><ellipse cx="14" cy="39" fill="#2e69b9" rx="51" ry="24"/><path fill="#3b3131" d="M91.5 159.5l19.9-9.4-12.9-3.1-3.3 11.2z"/><circle r="1" fill="#6da0de" transform="matrix(25.89876 2.12104 -2.44949 29.90922 127.2 198.2)"/><path fill="#548fda" d="M113.3 91.6L271 129.2l-169.3 67.4 17-61z"/><ellipse cx="89" cy="210" fill="#6a5d5d" rx="2" ry="29"/><path fill="#508ad3" d="M61 170.1L54.8 67.9l9.2 4.5-80 60.2z"/><circle r="1" fill="#306abb" transform="matrix(-91.70112 -6.24142 1.32534 -19.47242 188.6 38.6)"/><path fill="#9f6a52" d="M71 196h4v45h-4z"/><path fill="#896a5e" d="M234.2 215.5l13.4-10.9 18.7-7.2-15 19.1z"/><path fill="#91b6ce" d="M85.3 135.6l11.9 16.8-4.1 1.2-16.9-.4z"/><path fill="#80614c" d="M50 229h96v4H50z"/><path fill="#af9e84" d="M71.8 26.8L93.6 35l-29.2 3.7 7.8-13z"/><path fill="#946145" d="M101.5 181.3l4 .6-3 20.8-4-.6z"/><circle r="1" fill="#ddb59c" transform="matrix(-3.85398 -13.4215 4.54866 -1.30615 95.8 214.5)"/><path fill="#0d0f17" d="M230.8 226.9l4.4 8 35.8 1.6-20.8-20.4z"/><path fill="#ad9d98" d="M69 79l7 3-10 20z"/><path fill="#624740" d="M77.7 175l-9.3-27.2 1.7.3 11.4-2.2z"/><path fill="#e3dbd9" d="M122 75l-42-6-14 64z"/><path fill="#7aade5" d="M179 211h54v15h-54z"/><circle r="1" fill="#e1bfa4" transform="rotate(99.2 -17.6 125.2) scale(11.03471 5.09176)"/><path fill="#4a82d1" d="M137 73.1l39.2 10.5 8.2-20.2-81.8 5.7z"/><path fill="#3b333e" d="M73 66h19v2H73z"/><path fill="#3b5b7b" d="M72 129h9v6h-9z"/><path fill="#7fafe2" d="M0 220h71v10H0z"/><path fill="#4781cd" d="M115 88h53v31h-53z"/><path fill="#44546b" d="M93 147l5 3-4 15z"/><path fill="#020a16" d="M245 245h11v8h-11z"/><path fill="#e3c8b8" d="M151 85.9l32-.4-42.8-11.2-8.6 6.1z"/><path fill="#7aabe4" d="M154.8 215.9L102 228.5l15.7-31.3 104.7 11.4z"/><path fill="#d4b19b" d="M82.4 218.7l8.8-52.7-11.1 3.6-7.9 32.7z"/><path fill="#916f59" d="M132 230h67l-36-13z"/><path fill="#a49799" d="M108 63.7l-10.5 6 8.2 20.5-9-61.5z"/></g></g></svg>