<svg xmlns="http://www.w3.org/2000/svg" viewBox="0 0 4040 2693"><defs/><filter id="a"><feGaussianBlur stdDeviation="12"/></filter><rect width="100%" height="100%" fill="#614132"/><g filter="url(#a)"><g fill-opacity=".5" transform="translate(7.9 7.9) scale(15.78125)"><circle r="1" fill="#a9cfdb" transform="matrix(-117.4099 10.10337 -8.66004 -100.63706 58.2 78.6)"/><circle r="1" fill="#fff" transform="matrix(71.77696 21.39995 -7.21406 24.1965 47.3 0)"/><circle cx="215" cy="157" r="159" fill="#78736d"/><circle r="1" fill="#cec7b2" transform="matrix(46.6276 36.16807 -12.55023 16.17966 136.6 63.7)"/><path fill="#8ccbfa" d="M204.2 10.7l7-16.6 40.6 17.2-7 16.6z"/><ellipse cx="59" cy="137" fill="#555a5f" rx="114" ry="45"/><ellipse cx="154" cy="29" fill="#37201c" rx="30" ry="17"/><path fill="#ffcf96" d="M251 148l14-21-62 21z"/><circle r="1" fill="#eefdfd" transform="rotate(-76.1 17.8 -22.7) scale(16.16932 67.95199)"/><path fill="#222527" d="M134 154l39 31-8-75z"/><path fill="#d0ad87" d="M206 158h46v12h-46z"/><path fill="#ccc9b6" d="M127.3 99.1l52.5-13.4-9.5-26.3L117.5 91z"/><path fill="#282b2e" d="M107.3 143.7l-31.9 25.8-10.7-13.2 31.9-25.8z"/><circle r="1" fill="#5f3a28" transform="rotate(36.2 -32.2 425.3) scale(117.79866 13.07176)"/><path fill="#6e6162" d="M141.9 48.3L102 65.8l58.1 8.3-37 7.3z"/><path fill="#d7d1bc" d="M104 14h21v41h-21z"/><ellipse cx="18" cy="99" fill="#798488" rx="67" ry="84"/><circle r="1" fill="#8a9898" transform="rotate(-149.7 48.4 24.1) scale(53.62341 28.14771)"/><path fill="#c69a73" d="M171.4 151.9l-6.2 12.6 13.7-83.9 2.8 11.8z"/><circle r="1" fill="#606161" transform="matrix(-72.49898 -41.56822 5.38371 -9.38971 31.2 96.9)"/><ellipse cx="181" cy="18" fill="#685757" rx="31" ry="42"/><ellipse cx="187" cy="149" fill="#753e28" rx="10" ry="83"/><path fill="#92bbdf" d="M212 8h44v7h-44z"/><circle r="1" fill="#748789" transform="matrix(20.12247 -1.07201 .38466 7.22043 83.7 34.4)"/><circle r="1" fill="#cfa984" transform="rotate(80.5 48 218) scale(10.92407 19.29552)"/><path fill="#696c6a" d="M166 134l-17-26 28-20z"/><path fill="#e8d0a7" d="M121.4 22.6l-1.7-29.3 11.5 22L146.7-16z"/><circle r="1" fill="#473f3c" transform="matrix(-15.32609 -7.52305 10.82046 -22.04362 151 21.9)"/><path fill="#c5c7b8" d="M138 56h36v16h-36z"/><path fill="#f5f4ee" d="M5.3 8.8l43.8-3L-16-11.1 5.4 20.6z"/><path fill="#e7e2c7" d="M204 99l8-7-6-5z"/><ellipse cx="238" cy="153" fill="#7e4d39" rx="74" ry="7"/><path fill="#fdb884" d="M240.2 178.5l-7.3-5.2 13-17.8 7.2 5.2z"/><circle r="1" fill="#878788" transform="matrix(-5.74486 -5.52797 22.3317 -23.2079 109.8 159.8)"/><path fill="#48626b" d="M116.7 16.3l-8.8-18 5.4-2.6 8.8 18z"/><circle r="1" fill="#756b6c" transform="matrix(-1.11207 -10.69285 38.97362 -4.0533 231.3 32.2)"/><path fill="#796967" d="M128 52l-55 5 63 15z"/><circle cy="152" r="15" fill="#545458"/><path fill="#3b626e" d="M230.5 8.9l-10.9-1.3L248.5-16l9.7 24.1z"/><path fill="#7b6e73" d="M179.1 5.8l36.3 11.3 21 6.6-68.6-.8z"/><path fill="#d3e0e2" d="M33 24l91-40-31 39z"/><path fill="#96a09a" d="M41 23.1l76.5 19.8L-16 13.2l36-2.7z"/><circle r="1" fill="#634535" transform="matrix(8.46382 -21.14536 39.27628 15.72106 234.5 79.6)"/><path fill="#3d2f2f" d="M210.9 15.9l-41.8 35.7 13.8-24.7 20.6 7.1z"/><path fill="#e1aa84" d="M193.4 151l52.6-9.7 21.7-7.8-60.9 11.4z"/><path fill="#787871" d="M267.8 126.7l-60 22.3 18.5-8.3-10.8-26.8z"/><path fill="#483a33" d="M172.8 143.7l52.4-13.1 2 7.7-52.4 13.1z"/><path fill="#3b3939" d="M219.8 172.6l.4-8 14 .8-.4 8z"/><path fill="#b6b4a3" d="M108 78l19-1-22-26z"/><path fill="#eebd90" d="M176 74h2v53h-2z"/><path fill="#3e3536" d="M212.4 6.3l-3 7.4-37.8-16 3-7.4z"/><path fill="#595556" d="M86.5 126.6L24.7 185 57 166.6 93.3 132z"/><path fill="#d6d3c3" d="M124.6 94.5l-2 9.1 22.7-14.1-3.9-3.9z"/><path fill="#818386" d="M47 97l-49 18 71 57z"/><circle r="1" fill="#3c3c3c" transform="matrix(-16.9196 3.32954 -4.94283 -25.11777 153.2 155.5)"/><path fill="#a8c2d7" d="M218 18l-7-11 32 13z"/><path fill="#76827d" d="M118 71h50v4h-50z"/><path fill="#7d5744" d="M185.5 41.7l23.1 12.4-11.2 110.1-25.6-112.8z"/><path fill="#947e5f" d="M123 21.1l23.4-30-21.1 45.1-1.3 2.5z"/><path fill="#737879" d="M54.4 137.7l52.7-61.1 36.1 6.9-12.5-8.2z"/><path fill="#c7c9bd" d="M120 24l-10 30-25-9z"/><path fill="#15405a" d="M246 18h10v7h-10z"/><circle r="1" fill="#7e8389" transform="rotate(5.7 -1229.7 1156.4) scale(18.00275 6.01312)"/><path fill="#67443a" d="M211.5 160.9l11.3-18.2-25.6 13.8-8.8 28.5z"/><path fill="#595f5e" d="M18.4 108.3L6.6 77.5l15-5.8 11.8 30.8z"/><circle r="1" fill="#585e5e" transform="matrix(11.81577 -4.69011 8.50299 21.42152 216.3 120.6)"/><circle r="1" fill="#c2c2aa" transform="matrix(5.61688 -3.84596 2.1456 3.13358 212.8 166)"/><path fill="#836e65" d="M209.1 23.8l19.6-.4L178 54.6l.6-10.6z"/><path fill="#cca37a" d="M178.8 189l-10.6-45.8 1-.2 10.6 45.8z"/><path fill="#674f40" d="M227.2 162.7L271 153l-56.7 2.6L268 185z"/><path fill="#899485" d="M100 20h22v4h-22z"/><path fill="#707069" d="M176.2 112.3l-48.1-8.8 19.2-15.7 21.2 50.4z"/><path fill="#50514f" d="M136 110l-28 8-9-16z"/><path fill="#513627" d="M204.4 87.3l6.7-21.2 40.9 58.2 19-7.9z"/><path fill="#c3beac" d="M157.8 89l-33.6-13.9 47.3 8.7-23.6 31.7z"/><path fill="#303233" d="M146 13v29l-15-27z"/><path fill="#7693ad" d="M271 4l-32 19 14.1 7.2-21.5-22.5z"/><path fill="#746361" d="M147 5h58v8h-58z"/><path fill="#66402e" d="M172 134l4 46 19-54z"/><path fill="#2e3236" d="M143 0h54v4h-54z"/><circle r="1" fill="#953138" transform="matrix(1.18008 -3.65359 4.5431 1.46738 119.7 63)"/><path fill="#9a998d" d="M150.5 46.2L114 52.8l59.2 9-16.8-14z"/><path fill="#7b5f57" d="M159.9 38.8l-14-21.2 15.5 10.1 40.7-16.1z"/><path fill="#96a4a6" d="M75.2 55.7l-2.5 10.7-43.9-10.1 2.5-10.7z"/><path fill="#d3a781" d="M239.4 149.6l8.1-10.1-9.8-4.8-13.6 15.9z"/><path fill="#696a6a" d="M66.9 84.2l9.3 26.1-36.7 43.8 23.2-67.9z"/><path fill="#d7c099" d="M127.8-9l5.9-1.4L138.2 9l-5.9 1.3z"/><path fill="#e5b78e" d="M171.1 134.5l8.8-45.2 1 .2-8.8 45.2z"/><circle r="1" fill="#dbc8a8" transform="matrix(2.34947 .4312 -6.45578 35.17478 126 0)"/><circle r="1" fill="#676e71" transform="matrix(-1.84561 -4.91017 6.50698 -2.44581 170.2 95.6)"/><path fill="#a0a7a0" d="M13.6 8.3L-16 16.4l24.6 5.9 17.3-2.1z"/><path fill="#383836" d="M214.6 121.5l-2.9 21.5-6.4 1.3-7.3 1.1z"/><circle r="1" fill="#34302e" transform="matrix(-5.04655 -5.02339 17.29957 -17.37934 150.8 147.3)"/><path fill="#748383" d="M102.2 63.1l-14.4-17-36.2-22.6 11.9 28.4z"/><ellipse cx="145" cy="169" fill="#797c81" rx="8" ry="4"/><path fill="#f5f0df" d="M114 76h12v3h-12z"/><circle r="1" fill="#dfdaca" transform="matrix(-19.94994 3.59784 -.17748 -.98412 156.6 64.2)"/><circle r="1" fill="#8b999c" transform="matrix(-.94927 5.74978 -36.32236 -5.99673 37.3 71.3)"/><path fill="#655c55" d="M172.3 105.6l-3.9 8.8-57.9 70.6 50.5-80.2z"/><path fill="#828c90" d="M7.6 99.7L-6.3 39.9l-9.7 99.6L19.7 111z"/></g></g></svg>