<svg xmlns="http://www.w3.org/2000/svg" viewBox="0 0 1800 1200"><defs/><filter id="a"><feGaussianBlur stdDeviation="12"/></filter><rect width="100%" height="100%" fill="#5f473d"/><g filter="url(#a)"><g fill-opacity=".5" transform="translate(3.5 3.5) scale(7.03125)"><circle r="1" fill="#fbf7c8" transform="matrix(137.28773 20.64507 -3.395 22.57643 104.5 123.8)"/><circle r="1" fill="#8198b4" transform="matrix(-28.63366 -49.32814 109.37068 -63.48674 187.4 28.9)"/><circle r="1" fill="#ffffd3" transform="matrix(-89.04125 -.1554 .01418 -8.1241 135.3 133.3)"/><ellipse cx="122" cy="167" fill="#000f19" rx="255" ry="15"/><ellipse cx="210" cy="96" fill="#3b4252" rx="57" ry="34"/><path fill="#8f745f" d="M105-9L29 124l152-6z"/><path fill="#2e241e" d="M-9.2-39.1L65.4 5.7 9.2 99l-74.6-44.8z"/><path fill="#d9aa60" d="M192 148.3l26.6-32.8 38.4 23.8 9.8 7z"/><circle r="1" fill="#8392ab" transform="rotate(161.8 74.5 38.7) scale(49.49269 20.42187)"/><circle r="1" fill="#466a96" transform="matrix(32.2522 -21.58652 28.1204 42.01439 238.4 25.3)"/><circle r="1" fill="#95aaa6" transform="rotate(22.3 -284.8 70) scale(97.1793 13.72544)"/><path fill="#5e6a5f" d="M0 146h256v7H0z"/><circle r="1" fill="#745642" transform="rotate(131.9 41.5 37.7) scale(80.20255 19.58846)"/><circle r="1" fill="#aa8e74" transform="matrix(.60182 -9.00358 45.3664 3.0324 43.2 97.7)"/><ellipse cx="165" cy="128" fill="#fff4d2" rx="22" ry="7"/><circle r="1" fill="#29374f" transform="matrix(40.73273 11.44945 -6.13213 21.81576 241.7 92.1)"/><ellipse cx="240" cy="123" fill="#956139" rx="63" ry="7"/><ellipse cx="134" cy="133" fill="#f0e2bb" rx="98" ry="6"/><circle r="1" fill="#3c525d" transform="rotate(-9.4 860.8 -26.7) scale(22.58069 10.92963)"/><path fill="#878ea4" d="M167.7 59.3l-3.6-23.7 10.8-31.1-49.7 17.4z"/><path fill="#f5d27f" d="M231 138h25v8h-25z"/><path fill="#ac9378" d="M172.4 108.5L74.8 107l54.5-44.2-52.7 25.7z"/><path fill="#73706a" d="M50 108h55v17H50z"/><path fill="#20170e" d="M89.9 159.4l-101 22.6-4.9-29.3h64.2z"/><path fill="#56504a" d="M171.4 176.9L83.5 181l40.1-27.3 5.6-17.4z"/><ellipse cx="219" cy="39" fill="#788fab" rx="42" ry="7"/><path fill="#cdc09e" d="M35 126h66v12H35z"/><path fill="#52515a" d="M155 66h70v54h-70z"/><ellipse cx="235" cy="150" fill="#747263" rx="202" ry="3"/><ellipse cx="236" cy="139" fill="#f0d58f" rx="177" ry="2"/><ellipse cx="19" cy="112" fill="#8ea5ad" rx="37" ry="11"/><path fill="#505a5e" d="M22 140h57v13H22z"/><circle r="1" fill="#574234" transform="matrix(28.09928 -55.62712 8.8088 4.44964 39.9 43.3)"/><path fill="#6c4d3b" d="M215 135h41v3h-41z"/><circle r="1" fill="#5f606a" transform="matrix(1.63093 10.70145 -38.41182 5.85407 147.4 86.4)"/><path fill="#daaf72" d="M109 118h58v7h-58z"/><ellipse cx="221" cy="143" fill="#c6a55e" rx="81" ry="4"/><circle r="1" fill="#a0805f" transform="matrix(-2.95551 -7.1915 35.64112 -14.64752 122.5 111.2)"/><path fill="#bc8140" d="M184 123h38v7h-38z"/><ellipse cx="217" cy="23" fill="#545a6e" rx="45" ry="8"/><path fill="#262d3a" d="M154 153h102v17H154z"/><path fill="#9b8a82" d="M129 58.1l-21.8 26L94.9 74l21.9-26z"/><path fill="#b6bba8" d="M0 116h40v12H0z"/><path fill="#83836f" d="M84 143h54v9H84z"/><path fill="#312623" d="M23.9-18.1l-13.1 93-34.7-4.8 13.1-93z"/><path fill="#c5a989" d="M52 104l8-14 36 17z"/><path fill="#6b645d" d="M80 114h52v5H80z"/><path fill="#deb077" d="M116 114l-11-7 21-8z"/><path fill="#33323c" d="M208.9 116.6l27-16.5L271 33v87.3z"/><ellipse cx="145" cy="129" fill="#ece7cf" rx="42" ry="6"/><path fill="#464142" d="M146 153h37v15h-37z"/><path fill="#8f6844" d="M73 87l-76.2-.4-12.8-9.3 14.8 23.4z"/><ellipse cx="220" cy="122" fill="#b17e52" rx="43" ry="2"/><path fill="#886751" d="M108 61L66 96l43-95z"/><path fill="#5b7290" d="M188 49h58v17h-58z"/><circle r="1" fill="#737d81" transform="rotate(-88 80.5 30.3) scale(3.3661 27.81343)"/><path fill="#65606c" d="M191.5 25l-23 20.8-8-8.9 23-20.7z"/><ellipse cx="202" cy="142" fill="#403732" rx="7" ry="2"/><path fill="#ffc" d="M201 138h18v3h-18z"/><path fill="#faefc9" d="M180 131h45v5h-45z"/><path fill="#808c9c" d="M177 69L94 81l31-21z"/><path fill="#836a56" d="M164 94l8 27-27-10z"/><path fill="#5f4c44" d="M226 126l43-7-1 23z"/><path fill="#b19a7c" d="M47 123l34 5 16-11z"/><path fill="#65708c" d="M159.7 12.2l7.7-27 51 14.6-7.8 27z"/><path fill="#7b6157" d="M143 31.5l-1 14-13-1 1-14z"/><circle r="1" fill="#384d69" transform="matrix(12.4408 .12018 -.1544 15.98311 255 60.2)"/><path fill="#7f7e7c" d="M30.9 99L93 116l-60.9-1.8 37.1-19.7z"/><path fill="#78654a" d="M180 147h76v6h-76z"/><path fill="#574131" d="M67 76l-78 20 56-45z"/><circle r="1" fill="#4d3e37" transform="matrix(-52.17266 18.20027 -4.24799 -12.17722 84.9 0)"/><path fill="#444144" d="M61 114l-9 5 11 2z"/><path fill="#dec78f" d="M123 146l-1-10H87z"/><path fill="#cfa470" d="M128.2 125.6l23.9-29.3 2.9 1.5-22.6 27.9z"/><path fill="#3f3129" d="M67.2 177.1l-.4-23 70-1.2.4 23z"/><path fill="#3f4442" d="M125 140h9v4h-9z"/><circle r="1" fill="#535b5e" transform="matrix(-2.01749 5.4632 -28.9432 -10.68834 25.3 139.4)"/><ellipse cx="207" cy="117" fill="#584841" rx="35" ry="5"/><circle r="1" fill="#efe1b1" transform="rotate(168.1 86.3 77.7) scale(13.2797 6.36188)"/><path fill="#87a1bd" d="M214 42l9 4 7-18z"/><path fill="#6c5d55" d="M132 108h26v4h-26z"/><path fill="#f0bd7e" d="M95.6 87.7l-11.8-2.5.6-3 11.8 2.6z"/><path fill="#c4c3a8" d="M64.9 129.1l-23.8-2.8-2.6 13.3 20.2-4.2z"/><path fill="#fdf0c4" d="M225.3 130.3l9.7 2.4-.3 1-9.7-2.4z"/><path fill="#1a202a" d="M244 185l-81-13 103-22z"/><path fill="#dcb478" d="M137 112.1h-11.3l18.6 6.8 14.4 5.6z"/><path fill="#ecb85b" d="M195 146h21v2h-21z"/><path fill="#6d6864" d="M71 87h19v11H71z"/><circle r="1" fill="#4e6684" transform="matrix(-12.73195 29.07413 -10.48836 -4.593 245.5 18.8)"/><path fill="#404657" d="M172 86l77-22-38 46z"/><path fill="#444a4e" d="M0 139h61v8H0z"/><path fill="#ac8a68" d="M55.3 102.7L72.6 90l-57.1.3 35.2 9.3z"/><circle r="1" fill="#67595a" transform="rotate(-95.8 67.4 -57.8) scale(6.51552 22.58529)"/><path fill="#a88361" d="M114.2 65.8L90.4 68l26-11.1 4.8 3.2z"/><path fill="#4a4d48" d="M90 142h6v5h-6z"/><path fill="#ebcb83" d="M142 141h10v6h-10z"/><path fill="#8f97a8" d="M147 25l24 27-28-5z"/><path fill="#727f97" d="M123.3 17.8l51.3-3.5-1.8 46.7 34.5-16.2z"/><path fill="#8199b1" d="M178.7 64.2l-6.2-6.3 21.6-3.5 15.4-16.5z"/><path fill="#6f5544" d="M65.3 27.6l-9.8 53.3 39.4.8-22.3-31.4z"/></g></g></svg>