<svg xmlns="http://www.w3.org/2000/svg" viewBox="0 0 1800 1200"><defs/><filter id="prefix__a"><feGaussianBlur stdDeviation="12"/></filter><rect width="100%" height="100%" fill="#3d516e"/><g filter="url(#prefix__a)"><g transform="translate(3.5 3.5) scale(7.03125)"><circle r="1" fill="#abcaf4" fill-opacity=".5" transform="rotate(-78 78.6 -59) scale(66.51844 254.99998)"/><ellipse cx="234" cy="142" fill="#fffcd3" fill-opacity=".5" rx="6" ry="102"/><circle r="1" fill="#dee0e2" fill-opacity=".5" transform="matrix(-1.19723 13.5091 -71.91175 -6.37313 17.4 62.6)"/><circle r="1" fill="#1b3344" fill-opacity=".5" transform="rotate(169.6 60.2 78.9) scale(83.66482 42.68209)"/><circle r="1" fill="#4166a1" fill-opacity=".5" transform="rotate(73.9 95.8 142.7) scale(31.63617 82.27943)"/><circle r="1" fill="#b7a185" fill-opacity=".5" transform="matrix(-4.96256 -17.96303 80.11918 -22.13412 255 162.5)"/><circle r="1" fill="#464229" fill-opacity=".5" transform="matrix(1.05204 -13.7996 105.94178 8.07665 32.2 99.5)"/><circle r="1" fill="#182d3f" fill-opacity=".5" transform="matrix(94.473 18.75101 -4.86386 24.50553 32 169)"/><circle r="1" fill="#9da9af" fill-opacity=".5" transform="rotate(-83.6 124 -38.2) scale(13.18217 67.60625)"/><path fill="#f4f0e8" fill-opacity=".5" d="M.2 46.7L30.1 58l-4.3 11.2L-4.1 58z"/><circle r="1" fill="#6185ba" fill-opacity=".5" transform="matrix(-.86634 39.53322 -105.46315 -2.31115 99.3 22)"/><path fill="#bec2ca" fill-opacity=".5" d="M259 58l-54-24 9 20z"/><circle r="1" fill="#8498ae" fill-opacity=".5" transform="matrix(1.36294 -6.92145 46.88045 9.23149 48 75)"/><path fill="#7b7b6f" fill-opacity=".5" d="M146 104h82v10h-82z"/><path fill="#d2c7ba" fill-opacity=".5" d="M230 53h11v69h-11z"/><path fill="#e6e5e0" fill-opacity=".5" d="M173 80l20 8-40-3z"/><circle r="1" fill="#4c638d" fill-opacity=".5" transform="rotate(-25.8 153.2 -524.7) scale(11.35709 69.56849)"/><path fill="#0d243a" fill-opacity=".5" d="M243 117h13v26h-13z"/><circle r="1" fill="#5f7ea7" fill-opacity=".5" transform="matrix(5.8884 -17.91221 51.22796 16.84048 177.9 57.3)"/><path fill="#e8e9e4" fill-opacity=".5" d="M75 57l16 13-42-2z"/><ellipse cx="131" cy="107" fill="#484d47" fill-opacity=".5" rx="28" ry="9"/><ellipse cx="67" cy="134" fill="#2e4763" fill-opacity=".5" rx="74" ry="23"/><path fill="#cbb389" fill-opacity=".5" d="M242.8 57l1 .2-36.6 127.9-1-.3z"/><circle r="1" fill="#1f3954" fill-opacity=".5" transform="rotate(-28.1 382.9 -245.7) scale(68.97164 22.34151)"/><path fill="#5f7292" fill-opacity=".5" d="M242 60l-1 55 30-61z"/><path fill="#6c8cbc" fill-opacity=".5" d="M56.1 61.6l18.8 1.9L42.2-5.4 14.7 15.1z"/><path fill="#c6ced9" fill-opacity=".5" d="M217.7 37l3 7.8-6.7 2.8-15.9.1z"/><ellipse cx="204" cy="15" fill="#5170a2" fill-opacity=".5" rx="38" ry="27"/><path fill="#999a9c" fill-opacity=".5" d="M254 12l-21 36 11 4z"/><path fill="#cdd2d7" fill-opacity=".5" d="M118 81l-25 2-8-9z"/><ellipse cx="22" cy="95" fill="#414640" fill-opacity=".5" rx="45" ry="17"/><path fill="#7f92a6" fill-opacity=".5" d="M185 77h45v30h-45z"/><path fill="#5c7aa9" fill-opacity=".5" d="M212.5-16l-43.6 77.7L238.8 40l-42.5 24.4z"/><path fill="#a49c90" fill-opacity=".5" d="M245 144h11v21h-11z"/><path fill="#beb8b5" fill-opacity=".5" d="M230 99h9v71h-9z"/><ellipse cx="139" cy="60" fill="#6987af" fill-opacity=".5" rx="35" ry="25"/><path fill="#7390bb" fill-opacity=".5" d="M37.2 25.3l10.4 16-26.8 17.4-10.4-16z"/><circle r="1" fill="#8196b2" fill-opacity=".5" transform="matrix(-18.4942 -5.91 2.29446 -7.18007 45.6 74.2)"/><path fill="#dde0e4" fill-opacity=".5" d="M9.2 45.7L38.4 67l-3.3-12.5-51.1 5.7z"/><path fill="#efeeea" fill-opacity=".5" d="M61.6 68.8l-3.4 3.6-15.8-15.2 3.4-3.6z"/><ellipse cx="58" cy="139" fill="#42566f" fill-opacity=".5" rx="26" ry="9"/><path fill="#d9b46d" fill-opacity=".5" d="M250.1 19.8l-1-.4L260-11.8l1 .4z"/><path fill="#93a3b0" fill-opacity=".5" d="M53.6 75.7l-20.8 2.2 125.7 21.3-47.5-1z"/><path fill="#354e6a" fill-opacity=".5" d="M203 143l-45-10-41 16z"/><path fill="#1a334b" fill-opacity=".5" d="M74 145h88v9H74z"/><circle r="1" fill="#525855" fill-opacity=".5" transform="matrix(53.23422 4.37665 -.3065 3.72804 47 88)"/><path fill="#1d3146" fill-opacity=".5" d="M41.3 183.8l20.1-18.6-46.8-20.1-5.1 38.3z"/><path fill="#838e96" fill-opacity=".5" d="M241 90h15v25h-15z"/><path fill="#919ea8" fill-opacity=".5" d="M231 112l-3-17-41 8z"/><path fill="#6c6a67" fill-opacity=".5" d="M216.2 155.3l22.8-3.8.3 20.4 8.6-27.3z"/><path fill="#5b5f62" fill-opacity=".5" d="M225.5 156.6l3 9.5-24 7.3-3-9.5z"/><ellipse cx="63" cy="74" fill="#7a93b3" fill-opacity=".5" rx="67" ry="3"/><path fill="#6c8cbc" fill-opacity=".5" d="M39 57L-2 21l128-37z"/><path fill="#5b5f55" fill-opacity=".5" d="M-16 73.3l35.8 11.4 71.4 6.6-59.7-13.9z"/><path fill="#7390b7" fill-opacity=".5" d="M71.8 63.7l-19.4-3.4L49.9 34l23.6 14.4z"/><path fill="#001634" fill-opacity=".5" d="M217 156l-.4-.9 8.4-3.2.4 1z"/><circle cx="208" cy="153" r="6" fill="#162d43" fill-opacity=".5"/><path fill="#b9c1d1" fill-opacity=".5" d="M245 39l-14-8 8 10z"/><circle r="1" fill="#d4dadf" fill-opacity=".5" transform="matrix(2.67405 2.89475 -2.51834 2.32634 75.6 59.1)"/><path fill="#4c6ca0" fill-opacity=".5" d="M219.3 16l29 7.4-3.6 14.5-29-7.3z"/><path fill="#647eab" fill-opacity=".5" d="M228.4 24.9l-7.9 21.7 19.1 3-14.3-28.4z"/><path fill="#476497" fill-opacity=".5" d="M269.2 54.4l-24-4.4 3.8-17.6L262.5-16z"/><circle r="1" fill="#bbc4cf" fill-opacity=".5" transform="matrix(.64458 2.95712 -10.06183 2.19323 221.2 53)"/><circle r="1" fill="#5f7fae" fill-opacity=".5" transform="matrix(-7.26065 -25.83059 38.80945 -10.90885 154.1 17)"/><path fill="#162e43" fill-opacity=".5" d="M143.8 150.1L198 185l-18.3-29.1-30.6-5.6z"/><path fill="#2b4562" fill-opacity=".5" d="M25 113h152v18H25z"/><path fill="#d8dbdd" fill-opacity=".5" d="M66.6 65.4L64.8 73l-19.4-4.5 1.8-7.7z"/><path fill="#c6c7c4" fill-opacity=".5" d="M238 86l3-16-15 13z"/><path fill="#b5bbbf" fill-opacity=".5" d="M46.3 76.7l-6.9-1.3 15 9.3v-4.2z"/><path fill="#5d78a1" fill-opacity=".5" d="M207 67l23-14-4 25z"/><path fill="#e5e5df" fill-opacity=".5" d="M170 83h9v6h-9z"/><path fill="#263b52" fill-opacity=".5" d="M240 115h15v29h-15z"/><circle r="1" fill="#2b3f50" fill-opacity=".5" transform="matrix(5.68528 -20.78757 1.6707 .45693 224.1 135.3)"/><path fill="#7b93b5" fill-opacity=".5" d="M18.7 71.8L-9.5 57.3-16 87.1v-6z"/><path fill="#e9e9e7" fill-opacity=".5" d="M-11 39l33 20-38 5z"/><path fill="#f0efea" fill-opacity=".5" d="M215 44l-10 2 2-5z"/><path fill="#ac9e80" fill-opacity=".5" d="M224.7 125.5l25.7-103.4-17 61.8-21.9 82.1z"/><path fill="#313a3b" fill-opacity=".5" d="M0 99h40v12H0z"/><path fill="#6b7070" fill-opacity=".5" d="M2 112h74v1H2z"/><circle r="1" fill="#5d6462" fill-opacity=".5" transform="rotate(98.6 28.8 114) scale(2.07791 33.25712)"/><path fill="#37516e" fill-opacity=".5" d="M60.2 128.3l65 11.5-1.4 7.9-65-11.5z"/><path fill="#7790ae" fill-opacity=".5" d="M155.8 76.4l12.4 8.3 6.3-22.8 54.7 38z"/><path fill="#5f6a74" fill-opacity=".5" d="M217.8 112.4l16.3 1.4-50.8-9.1 24.6 11z"/><path fill="#f7f5f1" fill-opacity=".5" d="M33 53.4l-1 8-5-.8 1-8z"/><path fill="#90a3bf" fill-opacity=".5" d="M26.8 63.4L8.4 37.2l.8-.6 18.4 26.2z"/><ellipse cx="157" cy="111" fill="#404949" fill-opacity=".5" rx="17" ry="4"/><path fill="#c9cac7" fill-opacity=".5" d="M239.7 56.7l-.8 13-11.5-20.4 26.6 5.8z"/><path fill="#5471a1" fill-opacity=".5" d="M246 81l25-12-29-12z"/><path fill="#132c42" fill-opacity=".5" d="M105.6 163.5H74.8l43.9 8 5.8-12.6z"/><path fill="#92a4b7" fill-opacity=".5" d="M59 76.8L39.8 54 74 87.4l34.2 7z"/><path fill="#94908a" fill-opacity=".5" d="M194.3 165.4l-8.4 7.1L174 185l31.1-26.4z"/><path fill="#7e97b5" fill-opacity=".5" d="M28.1 77.5L38 61.6l32.1 25.6 32.1-15.5z"/><path fill="#2f445d" fill-opacity=".5" d="M75.9 155.5l53-18.8L-16 168.8l78-7.7z"/><path fill="none" stroke="#b4a998" stroke-opacity=".5" stroke-width=".5" d="M239.5 151.7q-37 8.4-49 17"/><path fill="#253d56" fill-opacity=".5" d="M187.7 126.7l-60.6-11.5 96.6.6-9.6 42.3z"/><ellipse cx="134" cy="158" fill="#38506c" fill-opacity=".5" rx="28" ry="2"/><path fill="#5777a7" fill-opacity=".5" d="M163 35l71 6-34-44z"/><path fill="#d0b894" fill-opacity=".5" d="M213 162l-6 21 6-5z"/><path fill="none" stroke="#b7a580" stroke-opacity=".5" stroke-width=".5" d="M264.2-16Q248.4 21.5 237 77.8"/><path fill="#cbcdcf" fill-opacity=".5" d="M24.4 65.9l14.1-3.1-46.6-7.3 30.9 17z"/></g></g></svg>