<svg xmlns="http://www.w3.org/2000/svg" viewBox="0 0 1800 1200"><defs/><filter id="a"><feGaussianBlur stdDeviation="12"/></filter><rect width="100%" height="100%" fill="#72403c"/><g filter="url(#a)"><g fill-opacity=".5" transform="translate(3.5 3.5) scale(7.03125)"><circle r="1" fill="#fff" transform="matrix(-41.40402 -45.66228 54.11245 -49.06617 148.3 83.7)"/><circle cx="151" cy="80" r="58" fill="#f2ffff"/><circle r="1" fill="#050d00" transform="matrix(27.3585 5.41713 -30.15946 152.3164 230 118.5)"/><path fill="#e49a00" d="M74 132h122v38H74z"/><path fill="#ffffad" d="M198 116l-2 44-145-48z"/><circle r="1" fill="#6d3600" transform="rotate(-62.2 76.8 3.4) scale(153.10061 53.52955)"/><path fill="#ddf5ef" d="M102 33h116v37H102z"/><circle r="1" fill="#291d00" transform="matrix(5.44872 -26.11883 73.80265 15.39616 189 0)"/><circle r="1" fill="#f9ffe7" transform="rotate(43.2 -83.2 178.8) scale(21.79191 27.8997)"/><circle r="1" fill="#7e3200" transform="matrix(-127.3598 -33.64776 6.2586 -23.68939 84 154)"/><circle r="1" fill="#d0f3ff" transform="matrix(3.14 10.34896 -19.51147 5.92 133.6 27)"/><path fill="#796967" d="M113.9 92.7l27.8 16.7 15-.6L124.3 81z"/><circle r="1" fill="#6d2e00" transform="rotate(62.1 -31.9 264.4) scale(23.73309 111.53857)"/><circle r="1" fill="#1a1300" transform="matrix(22.25686 -63.47044 18.50257 6.4882 231.8 92.3)"/><path fill="#d3dbf0" d="M208.1 81.3l-84.2 43.9 67.6 18.7 4.6-14.1z"/><circle r="1" fill="#693200" transform="rotate(-15.2 315.5 -55.2) scale(42.39568 103.663)"/><path fill="#ffff04" d="M190.2 159.8l-46-14 3.6-11.6 46 14z"/><circle r="1" fill="#fff73a" transform="matrix(2.55087 -7.56784 20.43969 6.88955 129.2 133.4)"/><path fill="#e5e8ec" d="M223 36l-21 33-62-22z"/><path fill="#adc1d8" d="M130.5 10.5l40.4 19.7-7.4 15.3-40.4-19.7z"/><circle r="1" fill="#94b94f" transform="matrix(-5.01822 12.33895 -5.62626 -2.28819 107.1 33.6)"/><path fill="#332507" d="M227 36l8-52-88 30z"/><circle r="1" fill="#81420a" transform="matrix(21.77633 14.35884 -38.75615 58.77678 48.9 94.1)"/><circle r="1" fill="#899d1c" transform="rotate(13.6 -344.4 919.1) scale(2.47075 60.16598)"/><path fill="#f9f3b8" d="M115.4 119.5l-5.3 17.2-33.5-10.2 5.3-17.2z"/><path fill="#793a0b" d="M40 34L208-6 62-12z"/><path fill="#4d6670" d="M151.3 20.3l33.5 5-28.2-21.4 45.1 33.9z"/><path fill="#b55600" d="M142 170l47-12-121-32z"/><ellipse cx="148" cy="79" fill="#ebf1f0" rx="19" ry="22"/><path fill="#9bd42e" d="M89.8 89.8l28.5-72.9-27.4 48.8L83.5 93z"/><path fill="#f5e86e" d="M72 111l9 17 1-35z"/><path fill="#7c5854" d="M123.8 96.6l.6-1.9 47.8 14.7-.6 1.9z"/><circle r="1" fill="#572713" transform="matrix(-22.0727 62.98765 -27.09284 -9.49412 21.6 17.9)"/><path fill="#cbb0b0" d="M152 136l-39-14 16-19z"/><circle r="1" fill="#602e00" transform="matrix(1.25635 23.88839 -41.41414 2.17807 230.6 167.2)"/><path fill="#e6eaf4" d="M106.1 123.8l-25-10.1L94 82.2l25 10.1z"/><path fill="#98afcb" d="M169.9 38.5l33.8 6.7 2.1-14.6-83.8-6.9z"/><circle r="1" fill="#81bb2e" transform="matrix(-7.43609 26.99655 -2.73253 -.75266 213.3 75.3)"/><ellipse cx="94" cy="162" fill="#954600" rx="44" ry="28"/><circle r="1" fill="#5c3204" transform="matrix(-8.64326 -11.55369 64.2118 -48.03656 14.1 169)"/><circle r="1" fill="#251601" transform="matrix(7.77178 15.13104 -41.16176 21.14197 238.3 112.4)"/><path fill="#d8dbdd" d="M197.2 152.6L110.5 32l22.8-18.8 9.7 2.7z"/><circle r="1" fill="#954e02" transform="matrix(8.80524 4.37096 -13.8799 27.96089 64.3 105.8)"/><path fill="#8a7d80" d="M130 96.5L122.3 66l-1.9 17.3-3.8 5.7z"/><path fill="#d8dcdc" d="M144 128.9l24.9 7.6 25.9 6.6 8.8-84.8z"/><path fill="#e0e5e2" d="M217 46.8l-8.2-14-59.2 35.5L208.1 84z"/><path fill="#3b393c" d="M195.7 35.3l-10.4-3.8 1-2.8 10.4 3.8z"/><path fill="#745a3d" d="M192.3 143.6l12.7-12-1.8 12.7 5.1-57.3z"/><path fill="#241503" d="M271 102l-81 64 24-57z"/><path fill="#3e2910" d="M217.5 35.5l52.1 34.8-4.3-81.1-92.8 32.5z"/><path fill="#eadfb6" d="M112.9 135.9l-30.2-13-12.3-12 41.7 8.7z"/><circle r="1" fill="#fee200" transform="matrix(-2.36368 3.7351 -9.78073 -6.18953 183.2 150.5)"/><path fill="#fdeb23" d="M112.4 136.9l9.5 3.8 37 8.1-48.2-22.1z"/><path fill="#e0dedd" d="M125.4 112.6l43.8 21.1-44.6-46.9 17.2 9.8z"/><circle r="1" fill="#fff270" transform="rotate(31 -177.5 350.2) scale(16.80111 6.38306)"/><path fill="#763c38" d="M131 95l-9-11-1 8z"/><circle r="1" fill="#696846" transform="matrix(-18.66543 45.06233 -1.9304 -.7996 94.3 56.4)"/><path fill="#9f9f9f" d="M137 97.7l2.8-5.3 31.2 15.9-2.8 5.3z"/><circle r="1" fill="#b9c7d5" transform="matrix(-35.77887 22.35712 -2.14482 -3.43243 134.2 50.1)"/><path fill="#814a1b" d="M159.5 5.5L196.9-16 121 8.7l17.6 7.3z"/><path fill="#ba6a00" d="M75.1 126.3l96.6 27.8.6 7.9-16 4.3z"/><path fill="#6b3410" d="M142 4L43-7l71 31z"/><path fill="#a7b4b8" d="M115 71h14v15h-14z"/><path fill="#90968d" d="M152.7 76.7l-.6 3-12.8-2.4.6-3z"/><path fill="#b0c2d8" d="M150.8 20.6l-5.2 13-20.4-8.2 5.2-13z"/><path fill="#263430" d="M89 72.6l-1-.3 11-29 1 .4z"/><path fill="#b2c6d6" d="M197.8 29.3l3.3 23L221 37.8l-11.1-4z"/><path fill="#e7773c" d="M181 141h13v3h-13z"/><path fill="#bc725e" d="M115 121l9-4 5-12z"/><path fill="#7f3f00" d="M80 151.3L5.9 185l74.7-55.1-8.7-17.6z"/><path fill="#dee3e4" d="M103 62l-19 50 42-8z"/><path fill="#eaeae7" d="M132.4 31.9l-10.1 25-16.7-6.8 10.1-25z"/><circle r="1" fill="#633000" transform="matrix(-13.9128 -13.9442 34.92176 -34.84313 242.3 154.7)"/><path fill="#472811" d="M30.4 148.3l34.7-13.1-42.7 34.9-29 14.9z"/><path fill="#c46b53" d="M133 113h4v7h-4z"/><path fill="#bec2b8" d="M179 85l17 23-2-26z"/><circle r="1" fill="#723912" transform="matrix(48.61022 -52.88047 13.87084 12.75073 61.3 53.7)"/><path fill="#eaede7" d="M140.6 93.5l60.5 23.4-34.5-39.6 11.8-18.5z"/><path fill="#c1b3b6" d="M98 130l7-5-24-8z"/><path fill="#b0b5c1" d="M169 136l4-13 17 8z"/><path fill="#748b9e" d="M167 20.8l-22.6-2.7 20.6 9.5 3.8-2.2z"/><path fill="#a9c44c" d="M109.9 38.5l-1.6-14.2-18.9 51.9-3.1 22.3z"/><path fill="#b18855" d="M204 100h4v16h-4z"/><circle r="1" fill="#f6fafc" transform="rotate(146.3 54.5 80) scale(6.70809 6.26756)"/><path fill="#a8b9cf" d="M154.3 18.8L121.6 27l65 15.5-40.9-25.6z"/><path fill="#e0e3e6" d="M106.9 71.9l13.5 44.5 34.4 11-61.2-10.2z"/><path fill="#ffff4f" d="M84.4 128.6l-1 .5-11.8-19.7 1-.5z"/><ellipse cx="186" cy="13" fill="#422c15" rx="38" ry="9"/><path fill="#eeeeeb" d="M169 125.2l2.3-27.7 13.5 24.6-28.2-15.5z"/><path fill="#fbe400" d="M191 158l4-8-18 3z"/><circle cx="106" cy="129" r="5" fill="#f0f1ec"/><path fill="#5c7263" d="M80.7 93.1l-8.5 18.2-.9-.4 8.5-18.2z"/><path fill="#564129" d="M204 115.7l3.7 1.7-9.7 20.9-3.7-1.7z"/><circle r="1" fill="#8c5e5d" transform="rotate(103.3 31.7 108.1) scale(1 15.63163)"/><path fill="#63300f" d="M30 80l-46 105L-5-16z"/><circle r="1" fill="#9a4f02" transform="rotate(114.2 6.7 71) scale(32.40671 3.03738)"/><circle r="1" fill="#ccbc94" transform="matrix(-2.1164 -.35037 1.86 -11.23535 83 97.4)"/><path fill="#ffff91" d="M71 113.5l.3-1 83.7 24-.3 1z"/><path fill="#f3f3f2" d="M129.9 80.1l-3-13.2 19.5-4.7-10.9 26.5z"/><circle r="1" fill="#452c14" transform="matrix(23.14982 -13.90981 14.92616 24.8413 219.2 7.7)"/></g></g></svg>