<svg xmlns="http://www.w3.org/2000/svg" viewBox="0 0 4752 3168"><defs/><filter id="a"><feGaussianBlur stdDeviation="12"/></filter><rect width="100%" height="100%" fill="#383946"/><g filter="url(#a)"><g fill-opacity=".5" transform="translate(9.3 9.3) scale(18.5625)"><ellipse cx="112" cy="60" fill="#8e937c" rx="171" ry="105"/><path fill="#b4bdaf" d="M102.9 99.8L262.3 66l6.8 32.3L109.7 132z"/><path fill="#23201f" d="M93 64L-7 63l50 73z"/><ellipse cx="198" cy="7" fill="#939ea9" rx="45" ry="25"/><circle r="1" fill="#1b2426" transform="rotate(-93.2 108 -42.8) scale(8.6577 72.4833)"/><ellipse cx="147" cy="157" fill="#4e5151" rx="202" ry="34"/><path fill="#95a09a" d="M122 73h134v37H122z"/><path fill="#a2a299" d="M16.8 111.3l-28.4-12.2 56.2-16.5 2.5 1.7z"/><circle r="1" fill="#31281d" transform="matrix(22.77616 11.12017 -9.88705 20.2505 49 0)"/><path fill="#c0c694" d="M86 100h10v35H86z"/><circle r="1" fill="#08070e" transform="rotate(-107.6 31.6 43.1) scale(7.67954 47.65602)"/><path fill="#393f42" d="M118 115.2L98.3 80.6l3-54.3 26.9 69.3z"/><path fill="#c1bbb2" d="M127 155h32v7h-32z"/><path fill="#8a99bc" d="M224 0h14v56h-14z"/><path fill="#181620" d="M31 93h28v36H31z"/><circle r="1" fill="#424b59" transform="rotate(-6 1384.7 -1564.8) scale(46.94761 19.29149)"/><path fill="#22343f" d="M244 0h12v53h-12z"/><path fill="#8ea3a1" d="M82 75l39 22-48-6z"/><path fill="#dcc8b6" d="M107 22.7l-8.7 2.2L95 11.3l8.8-2.2z"/><path fill="#84816a" d="M40.4 141.2l33.9 3.9-11.2-87.6-3.3 104z"/><circle r="1" fill="#584b3b" transform="matrix(-15.2178 7.12854 -15.35313 -32.77543 8.8 42.4)"/><path fill="#495255" d="M219.7 72.9l8.9-68-31.8 24.9-1 39z"/><circle r="1" fill="#2e2e3e" transform="matrix(6.1489 -.89703 3.69139 25.30355 75 110.2)"/><path fill="#35393b" d="M127 166l-2-32-87 27z"/><path fill="#292d2a" d="M178 80h3v51h-3z"/><ellipse cx="3" cy="2" fill="#cdc3bf" rx="7" ry="9"/><path fill="#a2aa98" d="M180 17l-15 16 32 13z"/><path fill="#a7a7bb" d="M196 70.1l35.7 5-3.8 26.8-35.6-5z"/><path fill="#979385" d="M109 3.8L138.5-4l12.8 30.9-13.9-11.7z"/><circle r="1" fill="#716a52" transform="matrix(-10.16536 -1.07905 3.91306 -36.86353 19.9 136.3)"/><path fill="#adb088" d="M70 185l15-26-18 8z"/><path fill="#3b3c37" d="M143 86h3v67h-3z"/><path fill="#56605f" d="M205.5 48.7l58.3 19.8-60.5 12.1 12.5-40.8z"/><path fill="#cdc6c2" d="M228 53h28v4h-28z"/><circle r="1" fill="#2c2c28" transform="matrix(-4.43512 -36.64986 4.77604 -.57796 37.2 139)"/><path fill="#4b5462" d="M271 128l-61-23-42 80z"/><path fill="#aaaa7a" d="M105 114h30v16h-30z"/><path fill="#9aa1b1" d="M212.6 27.7L198.3-2.8l.5-7.5 29 42.4z"/><path fill="#99b593" d="M185.9 70.5l1.2 6.9-69 12.1-1.2-6.9z"/><path fill="#65614f" d="M147.4 21.9L187.3-.7l-8.9 18.8-75.2 55.8z"/><path fill="#d7c8c4" d="M22 8l-8 9 3-14z"/><path fill="#556076" d="M257 13l-27 37 4-31z"/><path fill="#575855" d="M102 111L88 96l73-14z"/><path fill="#c3d0e8" d="M235.9 9.5V-16l-8.6 30.2 4 8.7z"/><circle cx="32" cy="38" r="4" fill="#e8d9d2"/><path fill="#282e33" d="M79.3 79.5l-2-10.9 119.1 1.6-19.7-21.6z"/><path fill="#73716f" d="M229.8 99.7L271 56.8l-23.8 44.3-119.3 25.6z"/><path fill="#686251" d="M37 21h132v39H37z"/><path fill="#8b8772" d="M60.3 150.1l-13.8-31.2-3 27.9-.8 13.4z"/><path fill="#2b3341" d="M225.3 18.9l-5.6-14.6-9.3 1.1 11.4 15.1z"/><path fill="#c9c7d2" d="M11.5 95.6l7.5 1.2-10 7.7-3.9-8.9z"/><path fill="#b6c898" d="M123 94h-11l-4 11z"/><path fill="#7c8688" d="M70 89l-4 9-15-30z"/><path fill="#1c151e" d="M51 85l21 19-38-3z"/><path fill="#4d463c" d="M60 51L16 14l24-9z"/><circle cx="136" cy="111" r="8" fill="#bfcd9e"/><path fill="#323033" d="M114.9 42.8l-9.5-7.2-2 7.1 2.6 29z"/><path fill="#a6ba90" d="M148 87h21v28h-21z"/><path fill="#a9afbd" d="M229.2 48.8l-18 4.6 13.2 2.2 3.3-1.3z"/><path fill="#474944" d="M181.1 17.8l19.7-7.2 2 5.6-19.6 7.2z"/><path fill="#b8aaa8" d="M228.8 110.9l41.3-10.4-21.7 1.2-42.4 6.8z"/><path fill="#9d9379" d="M10 106h19v9H10z"/><path fill="#9ea5a1" d="M185.9 8.8l2.1 27.1 25.4-25.5-53.3 28.8z"/><path fill="#9a8d7d" d="M115 0h4v57h-4z"/><path fill="#60616d" d="M210.6 104v55.4l2.6-69-15.1 9.9z"/><circle r="1" fill="#3c464c" transform="rotate(-137.1 70.1 18) scale(29.03911 5.82107)"/><path fill="#bcaa8c" d="M-12 152l20-31h-24z"/><path fill="#898a6f" d="M65.5 104.6l6.9 43.5-8 1.3-6.8-43.5z"/><path fill="#7d7d6c" d="M162.5 124.9l-74.2 14.2-4.7-2.3 59.9-16.3z"/><path fill="#7c7b81" d="M230.1 128.2l-6.5 4.3-39.5 3.5 5.1-5.1z"/><path fill="#2c2b2a" d="M50.2 114.8L37 109.9l26.9 37.3 1.6-6.3z"/><path fill="#645f4d" d="M35.5 59L-16 29.6l85.4 33.8L-16 78.6z"/><path fill="#af9b91" d="M106 0h2v40h-2z"/><path fill="#3a3f3d" d="M118.3 117l-3-7.4 6.4-2.6 3 7.4z"/><path fill="#aebe91" d="M92 88L79 77l5 18z"/><path fill="#828d95" d="M183 71h16v47h-16z"/><path fill="#364955" d="M133.4 90.3l30.1-5.3 42.4-7.9-41.2 4.8z"/><path fill="#9aa591" d="M141.6-2.8l32.8 18.6-1-31.8h-35.7z"/><path fill="#1d110f" d="M7.5 162.1l-2-15.1-10.6-11.1-3.4 8.1z"/><path fill="#3d3829" d="M13.3 22l-16 1-.6-13 16-1z"/><path fill="#b7c1de" d="M198 8l21-10-13-12z"/><path fill="#2e3335" d="M206 36l-4-5 12-13z"/><path fill="#b8b7b1" d="M188.1 13.5l-5 2.4 7.8-23.5 13.9-8.4z"/><path fill="#cbc6cb" d="M207 103l13-9 21 1z"/><path fill="#4e514b" d="M143.8 86l.7-.8 37.7 32.8-.7.8z"/><path fill="#2a2725" d="M71.7 76.1l-16.8-11 11.3 20.8 29.1-19.2z"/><ellipse cx="194" cy="146" fill="#3f4751" rx="82" ry="9"/><path fill="#8e8274" d="M99 34L71 7l16 29z"/><path fill="#706c5d" d="M206 27l-59 11 45 18z"/><path fill="#55513d" d="M29 138l-4-20-41-19z"/><path fill="#676765" d="M63.3 76.4L35.8 56.6l52.4-45.1-43.7 68.2z"/><path fill="#968287" d="M80 149l-3-6 17-1z"/><path fill="#636769" d="M51 55.3L38.9 22.2l31.9 54L81 72.5z"/><path fill="#4b4f37" d="M157.7 61.3l-38.1-3.6 29.3-6.9 57.9-3.9z"/><path fill="#5e6171" d="M252.1 106.7l-22.6-24.6 41.5 56.4-46.1-27.3z"/><path fill="#424c57" d="M233 18h4v33h-4z"/><path fill="#9493b8" d="M105 86l-7 17 11-10z"/><path fill="#454728" d="M1.5 77.4l29.6-9.1 45.2-8.9 20.3 4.5z"/><path fill="#15131c" d="M-16 97.3l67.2-28.1-14.4 15.2-39.6-7.9z"/><path fill="#88816f" d="M158 29l16 5-18 23z"/></g></g></svg>