<svg xmlns="http://www.w3.org/2000/svg" viewBox="0 0 1800 1200"><defs/><filter id="a"><feGaussianBlur stdDeviation="12"/></filter><rect width="100%" height="100%" fill="#5f5132"/><g filter="url(#a)"><g fill-opacity=".5" transform="translate(3.5 3.5) scale(7.03125)"><circle r="1" fill="#a0d2ff" transform="matrix(181.14314 72.73082 -26.22603 65.31847 188.6 48)"/><ellipse cx="38" cy="59" fill="#b38d58" rx="84" ry="45"/><circle r="1" fill="#c1d4ef" transform="rotate(21.7 -120 523) scale(73.13994 28.24587)"/><circle r="1" fill="#3675ca" transform="matrix(-22.43758 57.54942 -193.2683 -75.35216 198.5 0)"/><path fill="#000900" d="M137.2 201.6L73.7 188l13-61.7 63.6 13.5z"/><ellipse cx="239" cy="148" fill="#112e34" rx="67" ry="30"/><circle r="1" fill="#937242" transform="matrix(-128.08973 -90.09545 7.14735 -10.16148 49 34.4)"/><circle cx="26" cy="32" r="37" fill="#ae9673"/><circle r="1" fill="#4d73a9" transform="matrix(45.36292 12.69547 -2.70392 9.66155 230 133.3)"/><circle r="1" fill="#383c0c" transform="matrix(-81.56804 -22.55669 8.727 -31.558 199.1 169)"/><circle r="1" fill="#85a3c1" transform="rotate(108.9 98.9 129.3) scale(21.2817 92.56806)"/><path fill="#40382e" d="M10 6h15v32H10z"/><path fill="#384117" d="M176 185L79 73l-10 44z"/><circle r="1" fill="#cfdbe1" transform="rotate(-64.8 136.5 -79.7) scale(14.90713 29.84827)"/><path fill="#494035" d="M14 79l39 16-68 75z"/><circle r="1" fill="#699ade" transform="matrix(-4.38535 10.28909 -32.00786 -13.6422 74 8.3)"/><circle r="1" fill="#426fa6" transform="rotate(96.1 93.1 83.6) scale(23.6857 206.50418)"/><circle r="1" fill="#010a0b" transform="matrix(-13.30314 9.18345 -18.8432 -27.29623 107.3 162.5)"/><path fill="#ffd7a1" d="M87 31.5L39 11l2-4.6L89 27z"/><path fill="#95bae9" d="M110 24l11 37 46-7z"/><path fill="#6f5d55" d="M92 169l-108-1 80-35z"/><ellipse cx="134" cy="114" fill="#5b5b32" rx="29" ry="21"/><path fill="#5f5139" d="M101.2 70.8L65.8 35.2l17.4 33.7 25.3-25.8z"/><ellipse cx="191" cy="103" fill="#b3b8bb" rx="31" ry="16"/><ellipse cx="37" cy="74" fill="#2c3720" rx="12" ry="6"/><path fill="#b99c72" d="M79 79L47 0 21 40z"/><path fill="#ac9c7d" d="M31 52L-7 78l-9 54z"/><path fill="#c8b18b" d="M21.2 76.6l36 16.4 26.7-4.7-3.2 6.9z"/><path fill="#aa956f" d="M120 116.2l-7.3 5.5 34.8-8.4-7.9-2.9z"/><path fill="#e2b171" d="M96.9 23l11.1 6.6-12.9 21.5L84 44.4z"/><path fill="#9aa4ae" d="M174 99h82v21h-82z"/><path fill="#30321a" d="M83.9 80.4l-14.7 49.3 31.8-20.6-45.4-28.9z"/><path fill="#1f1f0d" d="M201 156.9l32.5 12.3 23.6-5.9-16-22.3z"/><circle r="1" fill="#5f5939" transform="matrix(35.28567 6.34841 -.57133 3.17557 0 42.2)"/><path fill="#b9c6ce" d="M168 69l55 19-86 9z"/><path fill="#3a3d1b" d="M18 96L6 84l26-7z"/><path fill="#7a663a" d="M95.7 52.9l-30-.9 15.8-20-25.6-13.3z"/><path fill="#416288" d="M271 156v-38l-89 3z"/><path fill="#434227" d="M17.8 75.1L1.5 72.3l-17.5.6L2.9 59.7z"/><path fill="#4f501c" d="M145.4 174.6l-55.8-67.7 68 26.4-19.5-1.3z"/><path fill="#b3a484" d="M57.2 69.6l-6.6-.5-5 7.4 33.3 1z"/><path fill="#656628" d="M193 189.1l-21 6.1-19-66.3 21-6.1z"/><circle r="1" fill="#d4bb92" transform="rotate(-171.2 31.4 42) scale(22.92876 1.41425)"/><path fill="#36351b" d="M109.4 95.4l-33.2 2.5 57-4.3.9 15.1z"/><path fill="#9e9369" d="M122 108L98 95l12 15z"/><path fill="#cd9e65" d="M107 60l1-36 15 47z"/><circle cx="149" cy="100" r="5" fill="#1f2512"/><path fill="#e5bc85" d="M24 1l30 19-1-14z"/><path fill="#5f553a" d="M93.4 21.2L72.8 72.9l12.6 12.8-1.8-55.3z"/><path fill="#bfcdd9" d="M145 98l-31-47 57 23z"/><path fill="#a18b73" d="M134 95.4l9-1.6 3 16.8-9 1.6z"/><path fill="#ccaf82" d="M113.4 80.3L74.3 67l34.7 7.5-9.6-22.7z"/><path fill="#73614f" d="M58 109.5l-23.9 38.6 12.5-61 23.9 9.3z"/><path fill="#343625" d="M99 55l2 14-11-1z"/><ellipse cx="11" cy="33" fill="#e5c289" rx="5" ry="3"/><ellipse cx="51" cy="94" fill="#938061" rx="34" ry="3"/><ellipse cx="229" cy="65" fill="#7a9cbe" rx="55" ry="14"/><path fill="#504e31" d="M34.2 79.7l2-7.8 41.6 10.4-2 7.8z"/><path fill="#806d4e" d="M32 15L19 2l1 55z"/><path fill="#726945" d="M124.5 77.1l-9.4 14.4-32.7-25.2 4.9 34.9z"/><path fill="#161d16" d="M161.6 156.4l-3.7 10.6 9.9 18-33.5-41.3z"/><path fill="#14190f" d="M196.6 140.3l-7.3 36.1-6.7-33.8 12.7-4.4z"/><path fill="#302e28" d="M10 5h8v19h-8z"/><path fill="#543f2b" d="M102 38h4v17h-4z"/><path fill="#6591c8" d="M127 13.2L120.2 50l-13.7-25L-5.3-16z"/><path fill="#c0a780" d="M154.9 103.2l.4 1-34.2 16.6-.4-1z"/><path fill="#38422e" d="M64 63.1L29.8 56l.2-1 34.2 7z"/><path fill="#917f57" d="M58 157l-12 12-12-17z"/><path fill="#4a3f2c" d="M22 174l28-79-32 40z"/><path fill="#303126" d="M146.5 157.3l-72.3-18.7L92.9 185 71 149.3z"/><ellipse cx="48" cy="67" fill="#354024" rx="8" ry="3"/><path fill="#f1d7b2" d="M38.1 67.8l-.3 1-17.9-6.6.3-1z"/><path fill="#7b6b50" d="M19 150v21l-35-46z"/><path fill="#e9c58d" d="M58 34l-4 12 15-10z"/><ellipse cx="1" fill="#a1c3e5" rx="7" ry="2"/><circle r="1" fill="#605b3e" transform="matrix(37.04677 7.48499 -.44146 2.185 65.6 70.4)"/><path fill="#94764c" d="M52 18h13v17H52z"/><path fill="#d1b488" d="M-3 67l10 33-13-3z"/><path fill="#587897" d="M226 130l-3 10-35-15z"/><path fill="#d4bb99" d="M21.7 81.3l-10.4-3.8 1-2.8 10.4 3.8z"/><path fill="#a69171" d="M35 75.5l.5-18.4 3.7 12.8L28.9 97z"/><path fill="#e3b97d" d="M92.3 36.7l-.2 1-30.4-6.4.2-1z"/><path fill="#222612" d="M84.4 116.8l32.5 47.9-24.3-51.6-28-14.6z"/><path fill="#534117" d="M84.7 31.7l-.6 3-12.8-2.4.6-3z"/><circle r="1" fill="#4578b4" transform="matrix(16.71542 -16.72856 30.28315 30.25937 131.8 7.7)"/><path fill="#cfba97" d="M33.5 60.2l.2-1 64.8 12.6-.2 1z"/><path fill="#4d4b20" d="M122 115.6l-63.8-11.5 59.9-21-17 16.5z"/><path fill="#af9d7e" d="M13.7 58.3l11.2 17.5L35.1 58 73 67.7z"/><path fill="#c2a379" d="M17.9-1.4l28.1 7-1.9 7.8-28.1-7z"/><circle r="1" fill="#9ca7b3" transform="matrix(-20.42756 22.13713 -11.41031 -10.52913 244.6 94.9)"/><path fill="#332c1f" d="M19.8 116.4L2.9 142.2l9.7-4-19.7-16.9z"/><path fill="#515022" d="M117 152l32-45-32 21z"/><path fill="#b69c74" d="M62.6 72.9l50.1 8.3-16-37.7 9.8 39.9z"/><path fill="#8fa9d0" d="M98.4 18.1l9.8 5.9L97 25.8 62.6 5.3z"/><path fill="#bca47d" d="M49 85l1-11-15 15z"/><path fill="#726751" d="M187.3 125.8l-43-13.9 22.4-2.5 3.5 32.9z"/><path fill="#d5b689" d="M56 57l22-5-13-1z"/><path fill="#040809" d="M209 146h6v16h-6z"/><path fill="#635141" d="M74 105l-49 23 43 38z"/><circle r="1" fill="#5075a2" transform="matrix(-68.27769 -42.71352 10.8974 -17.41952 232.8 11.5)"/></g></g></svg>