<svg xmlns="http://www.w3.org/2000/svg" viewBox="0 0 1800 1200"><defs/><filter id="a"><feGaussianBlur stdDeviation="12"/></filter><rect width="100%" height="100%" fill="#5a3527"/><g filter="url(#a)"><g fill-opacity=".5" transform="translate(3.5 3.5) scale(7.03125)"><ellipse cx="51" cy="126" fill="#cac098" rx="227" ry="101"/><circle cx="191" r="124" fill="#47555d"/><circle r="1" fill="#d1cbb2" transform="matrix(7.9548 -24.92567 92.03254 29.37133 93.2 112.2)"/><circle r="1" fill="#030000" transform="matrix(7.0684 32.45563 -17.65602 3.84524 207.4 57.1)"/><ellipse cx="91" cy="161" fill="#cc6700" rx="149" ry="19"/><circle r="1" fill="#d2d0c2" transform="matrix(9.80929 9.25817 -24.56451 26.02679 151.8 62)"/><ellipse cx="105" cy="57" fill="#431500" rx="22" ry="37"/><circle r="1" fill="#b8b59e" transform="matrix(39.43347 -18.52573 4.75116 10.11322 105.7 9.5)"/><path fill="#d0c7b1" d="M271 63l-44 3 24 85z"/><path d="M-9 51l58 12-65 18z"/><path fill="#662400" d="M246 130l-8 45-94-82z"/><circle r="1" fill="#abb" transform="matrix(-50.45865 -16.2005 4.94615 -15.40544 33.7 42.5)"/><path fill="#ff0" d="M90.9 124.2l20.9-2.2 3.3 31.8-20.9 2.2z"/><ellipse cy="120" fill="#c3c5bb" rx="23" ry="32"/><path fill="#2c2429" d="M209 120h-79l82-45z"/><path fill="#e0f2fa" d="M158.8 142.6l-41.8 3.7-1.8-21 41.8-3.6z"/><path fill="#adb1a2" d="M232 40h24v18h-24z"/><circle r="1" fill="#0c0318" transform="rotate(-125.7 77.2 54.1) scale(9.60307 8.74096)"/><path fill="#c9b7a2" d="M128 91l18 37 2-92z"/><path fill="#163e4d" d="M114-16L-16 5l73 24z"/><circle r="1" fill="#b8bebc" transform="rotate(123.7 12 65.7) scale(16.13776 40.11046)"/><path fill="#dbb5b1" d="M228.4 88.9l-5.3 25.1-12.9 21.4 3.5-39.9z"/><ellipse cx="207" cy="148" fill="#b56017" rx="28" ry="26"/><ellipse cx="206" cy="50" fill="#0a0600" rx="25" ry="16"/><ellipse cx="187" cy="86" fill="#9a6954" rx="18" ry="24"/><path fill="#9a591a" d="M34 126h58v17H34z"/><circle r="1" fill="#354c5a" transform="matrix(-.86621 -21.56683 64.30423 -2.58272 184.4 16.7)"/><path fill="#463530" d="M70 109l-42 4 26 5z"/><path fill="#ffdb00" d="M76.5 69.6l-12.7 5.9-4.3-9 12.7-6z"/><path fill="#000509" d="M189.1 121.4l19.9-.2 1-13.6 9.7-32.2z"/><circle r="1" fill="#2d2227" transform="matrix(1.50088 -26.02992 4.62221 .26652 229.9 108.7)"/><path fill="#ccd0cc" d="M165.2 120.3l6.1-.3 20.6 18.6-63.1 1.4z"/><ellipse cx="127" cy="117" fill="#85614f" rx="29" ry="7"/><path fill="#a0a097" d="M128 36l21 49 10-49z"/><path fill="#191d1b" d="M201.2 91.4l-15.5 7.8L169.1 69l-6.2 18.8z"/><path fill="#f0e0e2" d="M200.5 102.3l-6.6-2.2 3.6-10.4 6.6 2.2z"/><path fill="#5e544b" d="M163 63.4L142.2 52l-46.4-7.6L117.2 65z"/><circle cx="173" cy="160" r="7" fill="#33001d"/><path fill="#d2832a" d="M74.4 195.5L68 159l93.6-16.5L168 179z"/><path fill="#baad95" d="M222 65h19v10h-19z"/><path fill="#35332d" d="M129.1 22.3l4.7-14.7-49.2 24.6-9.7 40.5z"/><path d="M214 59h42v5h-42z"/><path fill="#8c4ee8" d="M0 166h20v4H0z"/><circle r="1" fill="#a7a49a" transform="matrix(15.64997 18.38094 -24.65355 20.99061 34.9 93.3)"/><path fill="#965e44" d="M85 71h44v15H85z"/><path fill="#bbc2bf" d="M79 91l2-25-67 44z"/><path fill="#6a8499" d="M-16 .7L7.6 1l46 10.9-34-4.2z"/><path fill="#16232b" d="M-10.4 59.4L12 48.1l10.5 20.5L0 79.9z"/><path fill="#d3cab4" d="M127 64h26v14h-26z"/><ellipse cx="248" cy="113" fill="#b0a99b" rx="14" ry="19"/><path fill="#5d463e" d="M16 121.4l23.7 14.5-55.3 26.4 85.8-32.2z"/><path fill="#847f7d" d="M159 107l13 6-12-49z"/><circle cx="5" cy="40" r="8" fill="#965a2a"/><path fill="#fff236" d="M116 122l-12 38-16-34z"/><path fill="#acb2b0" d="M18.8 59.8l-3-14 75.8 13.8-69.4.4z"/><path fill="#1c140a" d="M106 24l22 39 1-21z"/><circle r="1" fill="#2f2522" transform="rotate(168.7 96.3 53.9) scale(35.36073 2.51272)"/><path fill="#302f2f" d="M146.2 114l56-4.8-63.9 17.4 10.6-1z"/><path fill="#71706f" d="M132 119l-19-22 14-35z"/><path d="M181 111h19v11h-19z"/><path fill="#94958b" d="M254.2 104.6l20.4 5.1-18.8 75.7-20.4-5.1z"/><path fill="#9ea2a2" d="M87 85l15 33 45-2z"/><path fill="#2b1d13" d="M166.2 72.4l26.3-39 3.3 2.2-26.3 39z"/><ellipse cx="216" cy="109" fill="#c7b1b1" rx="7" ry="13"/><path fill="#c48361" d="M179 86l2-28 20 13z"/><path fill="#211710" d="M229 36l-52 9 37 42z"/><path fill="#a86026" d="M230 138l-118 8 94 19z"/><path fill="#b7784b" d="M15 116h37v11H15z"/><path fill="#3c4347" d="M118 14h138v23H118z"/><circle r="1" fill="#4e5c6a" transform="matrix(36.45628 -12.21987 4.81388 14.36154 171.2 1.9)"/><path fill="#9a9c96" d="M35 29h46v26H35z"/><path fill="#aaa89a" d="M-3 121v34l45-23z"/><path fill="#202530" d="M150 107l11-38-13 21z"/><path fill="#cad0c8" d="M145.6 57.2l2.5-5.7 24 3.1-2.7 4.9z"/><path fill="#a1a095" d="M142 53l47-15-54-1z"/><path fill="#ac9e9a" d="M189.5 108.7l-4.2-1.7 18.5-20.5-.7 15.1z"/><path fill="#463022" d="M77 115v3l-34-1v-3z"/><path fill="#c37b39" d="M34 143l45-16-32 58z"/><path fill="#0d0700" d="M38 63l-18-3-20 9z"/><path fill="#c1b49d" d="M148.3 91.3L135 130.2l-2.3-55.8 19.5-.2z"/><path fill="#182d34" d="M9 5L-9 16l57 10z"/><path fill="#dcded4" d="M113 128h26v17h-26z"/><path fill="#9c5624" d="M102 119h35v5h-35z"/><path fill="#634b3c" d="M204.7 82.8l-31.9-19.4 15.1-3.4-35.7 2.2z"/><path fill="#d3a47a" d="M21.8 116.5l24 10.5 76.7-1.9-51.1-7.1z"/><path fill="#47322a" d="M224 188l15.4-53.9 6.7 2-15.5 53.8z"/><path fill="#3c210a" d="M82 36l9 30 24-1z"/><path fill="#1f1e1b" d="M193.6 98.4L162.5 89l26.4.9 10.1-4.2z"/><path fill="#f4c9a2" d="M80 119l27 6-16-16z"/><path fill="#9f5a1e" d="M182 122l59 5-14 53z"/><path fill="#050000" d="M73 145l14 4-13 5z"/><path fill="#2c2627" d="M204 62l28 18-5 12z"/><path fill="#6a594d" d="M89.4 38.1l49.6 27 7.4-17.7-20.7 18.7z"/><path fill="#a38d7c" d="M159.5 74.5l1.3 30-28.4.1 22.3 8.9z"/><path fill="#595752" d="M125 97.3l6 .5-2 23-6-.6z"/><path fill="#4b2f31" d="M-16 156.4l8.5 26.7 5.6-10 9-20.2z"/><path fill="#babcb2" d="M161.5 140l8.5-20.8-37.1 6.7-16 2.8z"/><ellipse cx="12" cy="71" fill="#2a2e2c" rx="16" ry="4"/><circle r="1" fill="#744d32" transform="matrix(1.22992 -4.032 8.15833 2.48862 24.7 124.8)"/><path fill="#989b97" d="M58 29l-36-7-11 29z"/></g></g></svg>