<svg xmlns="http://www.w3.org/2000/svg" viewBox="0 0 3024 3024"><defs/><filter id="a"><feGaussianBlur stdDeviation="12"/></filter><rect width="100%" height="100%" fill="#415a34"/><g filter="url(#a)"><g fill-opacity=".5" transform="translate(6 6) scale(11.8125)"><circle r="1" fill="#d3a9af" transform="matrix(48.35424 22.32212 -50.44705 109.27853 89.8 226)"/><circle cx="238" cy="163" r="62" fill="#120d16"/><ellipse cx="68" cy="120" fill="#e8d4cd" rx="66" ry="7"/><path fill="#fff" d="M161.3 135.7l-8.4 15.9-36.2-19.3 8.4-15.9z"/><circle r="1" fill="#c8f9b2" transform="matrix(-9.03794 19.12447 -12.98752 -6.1377 11.9 173.7)"/><path fill="#ebfcd3" d="M111 196h47v27h-47z"/><circle cx="65" cy="28" r="83" fill="#1d2524"/><path fill="#b28d82" d="M163 51h33v59h-33z"/><ellipse cx="114" cy="169" fill="#644b35" rx="75" ry="26"/><path fill="#f8e8f2" d="M185 260l-32 7 17-42z"/><path fill="#ffffd8" d="M116 99L95 78l-29-2z"/><circle r="1" fill="#eebfc9" transform="matrix(12.7342 -15.6274 12.36676 10.07722 101.7 240.7)"/><path fill="#233631" d="M0 223h63v33H0z"/><path fill="#ffd8cd" d="M85.2 161.2l17-17 10.6 10.6-17 17z"/><path fill="#100011" d="M158 112h23v55h-23z"/><ellipse cx="141" cy="81" fill="#1f2b29" rx="21" ry="42"/><circle r="1" fill="#1b291b" transform="matrix(34.88909 14.82174 -25.72843 60.56249 229.6 214.7)"/><ellipse cx="171" cy="205" fill="#776469" rx="21" ry="29"/><circle r="1" fill="#68727f" transform="rotate(51.3 78.3 269.6) scale(13.1677 44.9717)"/><path fill="#efdeec" d="M181.7 50.4l10.9 7.4-23.5 14.7-6.2-7.9z"/><path fill="#434428" d="M120.4 176.5l-24 6.9 33.9 19.5 61-59z"/><path fill="#f6ffff" d="M105 124.3l50.6 24.5-1.3-22.4-18.7-3.6z"/><circle r="1" fill="#512638" transform="rotate(158.2 19.2 76.5) scale(30.24184 20.20649)"/><path fill="#2a2c2c" d="M118 271h34l-28-51z"/><path fill="#ffff74" d="M155 109l10-14 12 11z"/><ellipse cx="82" cy="197" fill="#de9c83" rx="31" ry="10"/><path fill="#001" d="M194.5 58.4l-30.4 18.3 17.3-2.2 22-6.6z"/><path fill="#16462d" d="M109 132l33 25-42-13z"/><circle r="1" fill="#c8f1aa" transform="matrix(6.95164 2.79245 -10.65724 26.53056 144.2 211.3)"/><path fill="#81a089" d="M139 170l-17-50-10 54z"/><path fill="#557e4c" d="M61.2 178L41 214.9 6.8 196 27 159.2z"/><path fill="#1c2b1f" d="M-14 114L86 73 25 35z"/><ellipse cx="191" cy="94" fill="#7d7050" rx="18" ry="25"/><circle r="1" fill="#424945" transform="matrix(77.08716 102.21353 -10.72989 8.09224 229.1 86.9)"/><path fill="#9d6850" d="M82 111h13v90H82z"/><path fill="#3b4738" d="M158.2-13.4l-64.1 132L167 57.4l23.4-6z"/><path fill="#da9b8b" d="M111.3 187.9l-2-34.7-35.4 5.9 23.5 8.4z"/><path fill="#f7ffd8" d="M125.2 216.1l18.1-24 6 28.5-34.3-30z"/><path fill="#2c4732" d="M128 134l34 41-30-19z"/><path fill="#acc091" d="M100.6 81.6l12.8 9.3-5.7 9.5-32.2-25z"/><ellipse cx="82" cy="217" fill="#6b707c" rx="46" ry="9"/><path fill="#949999" d="M74 184l-53 82 16-51z"/><path fill="#e2f2ff" d="M92 248h22v8H92z"/><path d="M155.4 76l-4 22.6-14.8-2.6 4-22.6z"/><path fill="#181714" d="M179 128l48.5-30.3-16.1-18.4-14.7 121.1z"/><path fill="#414d4d" d="M41 245h52v11H41z"/><path fill="#fff" d="M130 136.8l15-11.7 11 14.1-15 11.7z"/><path fill="#f99391" d="M63.5 232l49.6-6 1.4 12-49.6 6z"/><path fill="#f0e6ca" d="M91 113.1l-63.7 4.6-43.3 8.5 73.7-7.2z"/><path fill="#546851" d="M15 96h54v19H15z"/><path fill="#945937" d="M64 165h33v31H64z"/><path fill="#bae4b2" d="M26 156l-5 14-33-7z"/><path fill="#685157" d="M151 212h14v44h-14z"/><path fill="#556651" d="M211 131l60-24-59 7z"/><path fill="#5f4f49" d="M29.7 119l22 2-1.4 16-22-2z"/><path fill="#171d15" d="M67 84l31 3-12 29z"/><path fill="#95ab92" d="M127.8 124.3L91 110l-4.4 4 3.1 25.5z"/><path fill="#171f21" d="M64.4 92.4l19.2 5.9 144.9 35.1-46.3 5.4z"/><path fill="#887f74" d="M179 152.5l-12 2.9-3.4 50.9-16.4-25.7z"/><circle r="1" fill="#649458" transform="matrix(.80543 -2.37953 23.23655 7.86514 235.2 229.1)"/><path fill="#2b2d24" d="M12.4 157.3L-16 114.4l71 53.9L94 138z"/><ellipse cx="74" cy="33" fill="#21321f" rx="29" ry="46"/><circle r="1" fill="#4d5a55" transform="matrix(5.48595 13.40207 -45.71367 18.71223 197 11.4)"/><path fill="#3a3a23" d="M143 191l3-49 14 21z"/><path fill="#142017" d="M27 199l-36 37 7 30z"/><ellipse cx="97" cy="159" fill="#ffeae0" rx="5" ry="6"/><path fill="#2f4734" d="M109 137h12v20h-12z"/><path fill="#fbf4dd" d="M128 140l-8-6 9 15z"/><path fill="#7b8572" d="M146.2 222.6l-50.9 18.6L140 248l12-26.9z"/><circle cx="160" cy="104" r="4" fill="#e3cfff"/><path fill="#fba196" d="M63 199l44 1-18 9z"/><path fill="#2b353b" d="M198.6 27L281-24.6l8.5 13.6L207 40.5z"/><path fill="#1c2127" d="M181 70l-17-2 8 14z"/><ellipse cx="211" cy="153" fill="#3b422b" rx="52" ry="11"/><path fill="#fff" d="M149 130l-28-13 36 35z"/><path fill="#e7e5e7" d="M253 24l-2-7 20 4z"/><path fill="#eaf2c6" d="M70 80h26v3H70z"/><path fill="#161a12" d="M150 228.6l-8.2 16-31.1 26.4h39.2z"/><path fill="#ba9a9e" d="M121 239l-6-51-13 29z"/><path fill="#637453" d="M200 222.5l-24.8-12.1 4.3-2.5 1.9-46.3z"/><ellipse cx="25" cy="14" fill="#365632" rx="36" ry="23"/><path fill="#5d4b4c" d="M82.5 116.7l-.7 7 16.6 23.5-73.6-15.3z"/><path fill="#4d4c2d" d="M139.8 178l-47.2 8 40.1 15.9 18-16.5z"/><path fill="#9c917c" d="M43.6 113.7l16.2-4.1-27 30 .3-10.1z"/><path fill="#ebefda" d="M105 160h18v3h-18z"/><path fill="#272b1e" d="M130.4 42.6L90 58.2 172.9-16l-30.7 60.3z"/><path fill="#7f9085" d="M226.2 32.8l-.3 22.2L210 43.5l61-12.2z"/><path fill="#151820" d="M157 111h19v40h-19z"/><path fill="#fff" d="M137.4 169.9l-4.5-6.7 1.7-1 4.5 6.6z"/><ellipse cx="63" cy="195" fill="#e4d49e" rx="8" ry="6"/><path fill="#405748" d="M140.8 165.3l-19.5 19.9-14.7-39.8 5.1 38.8z"/><path fill="#3c4f43" d="M129.8 107.8l21.2 21.6 11.3-5.1-6.6-30.9z"/><path fill="#cbc3a7" d="M56.5 133.2l-3.2-20.4 71.4 6.8-53.9-7.5z"/><path fill="#9fa795" d="M142.2 166.8l5.6 1.3-.2 1.6-8.3-16.9z"/><circle r="1" fill="#15100d" transform="rotate(-16.3 407 -695.4) scale(5.3449 10.43151)"/><path fill="#555852" d="M72 212l25 14 7-19z"/><path fill="#4c6b54" d="M-22.5 115.5l43.4-6.9 1.6 9.9-43.4 6.9z"/><path fill="#f3d5aa" d="M261.4 105.1l2.6 2.9 7 5.5-19 7.2z"/><path fill="#292420" d="M46 163l-11-17 16-31z"/><circle r="1" fill="#43554d" transform="matrix(-16.76636 -27.07392 12.77003 -7.90823 241.7 62.8)"/></g></g></svg>