<svg xmlns="http://www.w3.org/2000/svg" viewBox="0 0 1800 1200"><defs/><filter id="a"><feGaussianBlur stdDeviation="12"/></filter><rect width="100%" height="100%" fill="#2e3c57"/><g filter="url(#a)"><g fill-opacity=".5" transform="translate(3.5 3.5) scale(7.03125)"><circle r="1" fill="#faf8e5" transform="matrix(3.52744 50.44475 -157.27727 10.9979 156.4 83.3)"/><ellipse cx="196" cy="104" fill="#e6dec1" rx="154" ry="23"/><circle r="1" fill="#556689" transform="matrix(247.90585 -26.37643 2.61059 24.53628 152.9 46.9)"/><ellipse cx="142" cy="151" fill="#3b2d10" rx="255" ry="26"/><ellipse cx="35" cy="121" fill="#bfa273" rx="245" ry="12"/><circle r="1" fill="#13191d" transform="matrix(47.62814 -4.60887 3.60139 37.21677 38.8 158.4)"/><circle r="1" fill="#bfc9cc" transform="matrix(.85567 24.50311 -78.63924 2.74614 153.8 97)"/><circle r="1" fill="#43495c" transform="matrix(-13.31626 17.7404 -60.17324 -45.16711 246.1 39.7)"/><ellipse cx="237" cy="135" rx="73" ry="5"/><path fill="#97a6b7" d="M267 84l-281 26 146-63z"/><circle r="1" fill="#4d6685" transform="matrix(-77.61393 44.38482 -7.8794 -13.77837 43.8 62.1)"/><circle r="1" fill="#555557" transform="matrix(-.4046 -13.96804 66.76577 -1.93397 160.3 153.3)"/><ellipse cx="64" cy="129" fill="#6e6561" rx="36" ry="9"/><path fill="#866b71" d="M99 45l90-34 36 25z"/><circle r="1" fill="#192532" transform="matrix(-4.34399 -18.49512 130.46096 -30.64166 57 0)"/><ellipse cx="157" cy="121" fill="#eec183" rx="25" ry="14"/><path fill="#9a9e8d" d="M-8.4 117.7l2-22.9 62.8 5.5-2 22.9z"/><path fill="#6a8bab" d="M142 51h114v21H142z"/><path fill="#d4d2bf" d="M70 121l165-7-77-33z"/><circle r="1" transform="matrix(-.03107 4.65532 -24.84448 -.16582 33 142.4)"/><path d="M210 129h46v10h-46z"/><circle r="1" fill="#7189a2" transform="matrix(61.9891 -22.21758 3.97629 11.09421 44.4 80.9)"/><path fill="#9f7a57" d="M128 127h73v5h-73z"/><path fill="#443a44" d="M268 27.4l-91.3-11.2 5.3-43.6 91.3 11.2z"/><ellipse cx="140" cy="136" rx="41" ry="2"/><path fill="#b48c85" d="M117 68l53-38-27 1z"/><path fill="#978063" d="M217 115l28 7-56 10z"/><path fill="#f6c1a2" d="M209.4 71l1.5 5.9-24.3 6-1.5-5.8z"/><path fill="#41403f" d="M54 136l-60-17-10 18z"/><circle r="1" fill="#9b8086" transform="rotate(148.5 95.1 48.2) scale(36.7272 3.23165)"/><circle r="1" fill="#2a3e57" transform="matrix(-3.23113 -15.30012 73.85695 -15.59737 34.2 30.3)"/><path fill="#8c9cb1" d="M216.8 65.8l51.8 11-5.4 25.4-51.8-11z"/><circle r="1" fill="#4c6c8e" transform="matrix(-5.9178 10.84353 -25.12222 -13.7103 234.6 49.7)"/><circle r="1" fill="#111616" transform="matrix(37.35368 22.64158 -8.85705 14.61221 20.3 161.8)"/><path fill="#494640" d="M34 137l-1-32-4 17z"/><path fill="#b4c2c9" d="M92 88h152v14H92z"/><path fill="#586a8a" d="M132 26L26 60l78 1z"/><path fill="#c2af8f" d="M104 106.6l-2.2 20.9-19.8-2.1 2.2-20.9z"/><path d="M96 136h112v3H96z"/><path fill="#2d4a67" d="M271 51.5l-15.6 2.7L271 11.6l-44.8 28.8z"/><path fill="#475067" d="M26 35.5l149.2-8.6 62.4 7.2-37-27.1z"/><path fill="#474e56" d="M169 139h87v6h-87z"/><path fill="#6a625e" d="M59 128h54v8H59z"/><circle r="1" fill="#969481" transform="matrix(-22.49678 -24.52984 5.3496 -4.90621 0 104)"/><path fill="#b0956e" d="M99 125l54-6-6 15z"/><ellipse cx="160" fill="#1c2e3a" rx="30" ry="9"/><ellipse cx="177" cy="114" fill="#ebd2a6" rx="29" ry="8"/><path fill="#8c9caf" d="M158.1 60.8l33.4-17.2-18.8 36-56.5-5.5z"/><path fill="#b99b98" d="M106 55h31v9h-31z"/><path fill="#404545" d="M33 93h2v12h-2z"/><path fill="#9f9678" d="M251.4 86.6l11.3 13.4-36.2 30.4 35.8-9.6z"/><circle r="1" fill="#0d0e0a" transform="rotate(-105.8 169.4 -26.2) scale(3.88039 5.58033)"/><path fill="#afb7ae" d="M44 97h44v20H44z"/><path fill="#e2b06d" d="M168 119h36v7h-36z"/><circle r="1" fill="#86a1b4" transform="rotate(-105.3 74.7 10) scale(7.39485 27.48606)"/><path fill="#8d715b" d="M201 125l-30 4 17 3z"/><path fill="#6a849f" d="M251.7 60.7l-24.5-8.9 3.8 26.5 30-3.8z"/><path fill="#2d3335" d="M97.6 185l12.6-46.8-69.5 10.9 46.6 19.4z"/><circle r="1" fill="#536d8a" transform="matrix(74.74934 -34.85619 3.3647 7.2156 7.8 78.5)"/><circle r="1" fill="#564e61" transform="matrix(-3.6036 -3.31592 17.54859 -19.07106 112.3 19.4)"/><path fill="#1b2122" d="M143 166h113v3H143z"/><path fill="#6c6271" d="M187.9 18.2l39.4 15.1-57.6 4.3-25.4-6.4z"/><path fill="#978869" d="M225 119h31v8h-31z"/><path fill="#757a93" d="M68 56l64-21 22 19z"/><path fill="#1c3349" d="M271 11l-23-2-15 18z"/><path fill="#50484c" d="M226 120h12v2h-12z"/><ellipse cx="69" cy="140" fill="#111617" rx="35" ry="3"/><circle r="1" fill="#192431" transform="matrix(25.51238 -3.63358 1.91025 13.41243 19 0)"/><path fill="#484743" d="M92 160h49v7H92z"/><path fill="#b2b3a1" d="M271 65.1l-36 43.7-20.3 12.5 34.9-3.3z"/><circle r="1" fill="#2e383c" transform="matrix(-24.23471 9.52014 -8.6401 -21.99444 229 169.2)"/><path fill="#54504c" d="M151 155h52v10h-52z"/><path fill="#050909" d="M241.1 127.1l29.9 2.8-1 12-60.5-4z"/><circle r="1" fill="#a6bdc8" transform="matrix(35.27962 1.28782 -.26943 7.38083 201 92.2)"/><path fill="#060b0a" d="M0 138h44v11H0z"/><path fill="#a88777" d="M90 106h12v4H90z"/><path fill="#cdbcb8" d="M218.9 77.4l-9.3-4.4-39.3 7.9-30.8 14.8z"/><circle r="1" fill="#b48653" transform="rotate(72.5 -1.7 180.8) scale(3.42626 10.48063)"/><path fill="#685f57" d="M70 131l6-11-14 4z"/><circle cx="253" cy="120" r="8" fill="#a89d7c"/><ellipse cx="174" cy="142" fill="#585355" rx="36" ry="3"/><path fill="#d6c2a0" d="M110.3 122.7l51.8-2.6-83.1-5.6 31.9-9.4z"/><path fill="#617a97" d="M140 67l-2.4-4.3L184 37l2.4 4.3z"/><path fill="#3a4e6a" d="M98.9 32.8L-16 66.5v-8.1l126.8-46z"/><ellipse cx="249" cy="159" fill="#5a5957" rx="132" ry="1"/><path fill="#040807" d="M94.8 166.4l.1 1-39.7 4.2-.1-1z"/><path fill="#9e8b91" d="M205.9 40.2l-44.2 25.7.7-4L197 35.6z"/><ellipse cx="135" cy="131" fill="#95775e" rx="32" ry="3"/><path fill="#544148" d="M257.5 3.8l-12.2 11.8-18.8-19.4 12.2-11.8z"/><path fill="#58637c" d="M96.1 33.2l70.5-9.5-69.3 22.8-7.1 7.7z"/><path fill="#6c6765" d="M138 152l11 3 6-4z"/><path fill="#c1bbb6" d="M124 71l-16 32-28 4z"/><path fill="#564e49" d="M25.3 117l22.8 7.5-3.4 10.4-22.8-7.4z"/><ellipse cx="56" cy="164" fill="#090e0d" rx="12" ry="3"/><path fill="#9f947b" d="M49.7 124.4L17 115.8l10.7-2.1 60.9 7.2z"/><circle r="1" fill="#0f110d" transform="matrix(-.12806 -1.5726 14.58975 -1.18802 118.2 136.2)"/><path fill="#c2cfc1" d="M243 109l-30-11-49 21z"/><path fill="#a17f7a" d="M133.9 32l38.5 2.6-12.9 13.6-1.1-6.1z"/><path fill="#bdab8a" d="M171 119.6l38.7-1.6 14.3 8.3-.3-13.9z"/><path fill="#e8d1ad" d="M206.9 104.1l-17.6.8-63.5 13.4 42.9 2.9z"/></g></g></svg>