<svg xmlns="http://www.w3.org/2000/svg" viewBox="0 0 1800 1200"><defs/><filter id="a"><feGaussianBlur stdDeviation="12"/></filter><rect width="100%" height="100%" fill="#463d36"/><g filter="url(#a)"><g fill-opacity=".5" transform="translate(3.5 3.5) scale(7.03125)"><circle r="1" fill="#fff" transform="matrix(-188.96233 -.07828 .02136 -51.56666 110.9 33.3)"/><circle cx="104" cy="52" r="62" fill="#a4c1d6"/><ellipse cx="230" cy="42" fill="#cceafb" rx="55" ry="32"/><ellipse cx="170" cy="66" rx="5" ry="52"/><path fill="#6a767b" d="M156 130l101-33L35 74z"/><path fill="#000600" d="M-15 49l34 21-34 115z"/><circle r="1" fill="#757978" transform="rotate(94 -52 85.4) scale(70.77099 18.44754)"/><path fill="#8aa4be" d="M111 100l54 32-1-37z"/><circle r="1" fill="#090e00" transform="rotate(-89.5 133.4 -40.3) scale(46.03659 6.00844)"/><circle r="1" fill="#21201b" transform="rotate(7.1 -1058 901.1) scale(35.25404 30.38668)"/><ellipse cx="42" cy="169" fill="#a69f9d" rx="64" ry="6"/><circle r="1" fill="#a6b9c6" transform="rotate(83 -2.2 32) scale(69.71902 21.42201)"/><circle r="1" fill="#9a998f" transform="matrix(5.52345 1.09818 -8.56432 43.07524 186.6 111.5)"/><path fill="#effcec" d="M179 59l38 14-39 5z"/><ellipse cx="124" cy="69" fill="#d8dac9" rx="42" ry="14"/><ellipse cx="163" cy="9" fill="#b1b8c2" rx="200" ry="12"/><path fill="#606367" d="M55 133l110-44-88-12z"/><path fill="#181e0f" d="M-16 100.9l81.4 16 1.5-30.6L41 104.9z"/><path fill="#23201d" d="M11 145h118v15H11z"/><path fill="#868175" d="M146 141h31v12h-31z"/><ellipse cx="235" cy="107" fill="#4d4a3e" rx="35" ry="36"/><circle r="1" fill="#867a70" transform="rotate(-151.3 32 58.3) scale(28.81987 6.47456)"/><circle r="1" fill="#a8c2d7" transform="rotate(-88.1 95 -55) scale(31.33901 20.377)"/><ellipse cx="64" cy="29" fill="#829ebc" rx="103" ry="10"/><path fill="#c4d2d6" d="M177 35h79v37h-79z"/><circle r="1" fill="#98a1ae" transform="matrix(.92362 -17.92814 51.73663 2.66537 243.9 12.6)"/><path fill="#212914" d="M12 63.6l15 41.3-15 5.5-15-41.3z"/><path fill="#4b5d73" d="M15 85l53-6 33 20z"/><path fill="#101304" d="M167 99h13v34h-13z"/><circle r="1" fill="#bdbcb5" transform="matrix(-.87867 -13.96599 35.07644 -2.20682 21.5 41.4)"/><path fill="#ddaf6d" d="M185 93h18v8h-18z"/><circle r="1" fill="#6b6560" transform="matrix(11.2629 18.99228 -7.61981 4.51874 243.5 125.3)"/><path fill="#1e1d1a" d="M142 161l-65-40-7 45z"/><path fill="#2d271d" d="M233.5 165.1l-18.8-24.7 5.8-27.9 36.2 48z"/><path fill="#443f30" d="M77 104.4l73 60.5-7.6-52.4-7.3 7.9z"/><path fill="#353123" d="M135.1 98.7l-15.4-4 13.9-1.8 31.1-12.7z"/><path fill="#7e7976" d="M189.6 125.8l29.6-7.6-25.8-17.4-15 23.5z"/><path fill="#b2a6a2" d="M10 138h17v7H10z"/><path fill="#2d3428" d="M178.3 106.8l-4.9-80.2L167.9 9l-2.1 85.1z"/><path fill="#7589a0" d="M125.9 104.4L56.8 84.8l85.8 16.4-13.8 28.5z"/><circle r="1" fill="#a7c0d6" transform="matrix(8.0584 21.55315 -16.92956 6.3297 191.8 27.6)"/><path fill="#807873" d="M43.3 179.9l-13.9-25.4L81.8 185l-33.9-36.8z"/><path fill="#505042" d="M210.9 88.4l-33.5 6-2.3-12.8 33.5-6z"/><circle r="1" fill="#bbb7ae" transform="matrix(-36.37837 -5.25056 1.28664 -8.91442 251.8 64.6)"/><ellipse cx="44" cy="72" fill="#bdbeb2" rx="26" ry="11"/><path fill="#d2a266" d="M152.3 90.7l11.5 8.5-12.6-.1-5.9-2z"/><path fill="#403b37" d="M45.2 151.1l-29.5 2.1 43.9-22.4-56.4-5.3z"/><circle r="1" fill="#13180b" transform="matrix(3.1752 18.57565 -4.5341 .77503 53.2 107)"/><path fill="#807469" d="M172.3 148.8l-3.4-15.5 43.3 6-63.9 6.8z"/><ellipse cx="67" cy="128" fill="#645e56" rx="4" ry="35"/><path fill="#bfc5c1" d="M72 48h92v33H72z"/><ellipse cx="26" cy="59" fill="#8dabbe" rx="93" ry="5"/><ellipse cx="244" cy="47" fill="#cae2ee" rx="51" ry="8"/><path fill="#807971" d="M31.3 129.8l15.7 8.4-23-30-23.2 9z"/><path fill="#151b0b" d="M132 130l17 7-10-23z"/><path fill="#748fac" d="M11 21h98v8H11z"/><path fill="#313226" d="M265 93l6 28-58-23z"/><path fill="#483c34" d="M81 109h47v17H81z"/><circle r="1" fill="#5c534b" transform="matrix(-8.65048 -9.80042 8.87768 -7.83601 237.2 142)"/><ellipse cx="188" cy="169" fill="#39332b" rx="29" ry="27"/><path fill="#7992aa" d="M144 106h16v21h-16z"/><path fill="#6d7680" d="M72.3 125.2L61.6 78.3l29.7.6 7.2-17.7z"/><path fill="#251f18" d="M224.7 134.3l-16.2-4.6L219 118l27.1 6.6z"/><path fill="#17140a" d="M61.7 149.2l-32.8 5 31-15.4 2.9-6.2z"/><ellipse cx="56" fill="#bfbebb" rx="38" ry="20"/><path fill="#846e56" d="M128.5 165.2l22.8 15.9 1.7-22.2-3.6 7.9z"/><path fill="#303518" d="M153 128l29 3-39 14z"/><ellipse cx="97" cy="90" fill="#607b9a" rx="41" ry="4"/><ellipse cx="80" cy="85" fill="#506072" rx="52" ry="4"/><path fill="#191b0e" d="M0 106h56v4H0z"/><path fill="#484b42" d="M82 105l-6-9h32z"/><path fill="#25180d" d="M217 108h-15l-3-7z"/><path fill="#b4bac1" d="M150.6-13.4l19.5 38.1-5.1 7.7-65.4-46z"/><path fill="#544637" d="M60.9 136.9l-7.4-3-22.2-19.2 2.1-17.2z"/><path fill="#53564d" d="M144 82h27v6h-27z"/><path fill="#b3b2ac" d="M180 65h76v5h-76z"/><path fill="#313531" d="M44 110.9l-.6-26.2 28.8 14.1-29 8.6z"/><path fill="#6786a3" d="M189.4 116l-8.4 21.1-.4-36.9L189 111z"/><path fill="#ecc78f" d="M189 91h5v12h-5z"/><path fill="#d9d8c4" d="M111 72h55v9h-55z"/><path fill="#7a8da5" d="M26 87h7v16h-7z"/><path fill="#222417" d="M165 114.2l2.5-28.7 8.7-25 4.2 73z"/><path fill="#2f2b24" d="M-16 169.2L-3.1 133l20.6-7.9 4.4 1.6z"/><path fill="#938271" d="M9 110h33v3H9z"/><path fill="#5f554d" d="M173.8 154.4l-35.8 1.4 48.8-14.4 13.8 12z"/><circle r="1" fill="#97b6d3" transform="rotate(-17.6 184.7 -417.3) scale(34.43372 8.99466)"/><path fill="#817a75" d="M42.6 166l-22.4-36.8 11.4 27.1 99.2 28.7z"/><ellipse cx="212" cy="17" fill="#b4b5b7" rx="39" ry="8"/><path fill="#3d3631" d="M8 156.8l28.6 4.5-.6 4-28.6-4.6z"/><path fill="#0c0b03" d="M254.3 154.2l-14.4 9-2.2-3.4 14.4-9z"/><ellipse cx="255" cy="5" fill="#8a9baf" rx="71" ry="6"/><path fill="#42453b" d="M230 72h21v30h-21z"/><path fill="#8e867f" d="M69 105h68v4H69z"/><path fill="#73665a" d="M252 120.6l-51.6-9.5 40.3 11.8-18.4-24.4z"/><path fill="#4e4c30" d="M130.2 149.5l-2.5-10.7 36-8.3 2.6 10.7z"/><path fill="#252320" d="M66 158h64v8H66z"/><path fill="#2c2f1f" d="M-14.8 64.9l4.8-6.4L22.8 83 18 89.5z"/><path fill="#7d6d5a" d="M184 92h42v3h-42z"/><path fill="#9cbbd3" d="M197.1 27.4l-22.4 31.1.9-3.6-2.3-35.7z"/><path fill="#766448" d="M161 81h6v19h-6z"/></g></g></svg>