<svg xmlns="http://www.w3.org/2000/svg" viewBox="0 0 1200 1800"><defs/><filter id="a"><feGaussianBlur stdDeviation="12"/></filter><rect width="100%" height="100%" fill="#4a3e3c"/><g filter="url(#a)"><g fill-opacity=".5" transform="translate(3.5 3.5) scale(7.03125)"><circle r="1" fill="#cdf9ff" transform="matrix(11.35824 58.1023 -165.86052 32.42357 72.2 41.7)"/><circle r="1" fill="#84857a" transform="matrix(-52.81368 -103.65269 150.5801 -76.7244 75.3 199.3)"/><circle r="1" fill="#181416" transform="matrix(-10.14452 21.17324 -40.219 -19.26972 116 114)"/><ellipse cx="163" cy="51" fill="#b0ceff" rx="15" ry="79"/><ellipse cx="39" cy="118" fill="#0c0b0c" rx="18" ry="39"/><path fill="#aea792" d="M65 154.6l-1 62-65-1.2 1-62z"/><ellipse cx="61" cy="75" rx="5" ry="30"/><circle r="1" fill="#aac2e8" transform="matrix(20.72429 7.60447 -20.95229 57.10078 15 73.5)"/><circle r="1" fill="#bdd1fb" transform="matrix(-10.26578 -23.72282 24.2937 -10.51283 126.7 62.2)"/><path fill="#c0cece" d="M61 102h18v54H61z"/><circle r="1" fill="#332c29" transform="matrix(19.69821 -3.91547 11.42154 57.46022 103.5 167.8)"/><ellipse cx="106" cy="17" fill="#869dcf" rx="169" ry="31"/><ellipse cx="139" cy="110" rx="14" ry="26"/><path fill="#a6a49c" d="M145 169.3l-28.7-36.1-5.4-29.9 11.3 10.4z"/><path fill="#1c0806" d="M101.5 62.3l1 31-14 .4-1-31z"/><circle r="1" fill="#9f8474" transform="matrix(14.19535 54.10945 -20.37524 5.34535 100.6 240.4)"/><path fill="#001928" d="M72 158h20v32H72z"/><circle r="1" fill="#110405" transform="rotate(-8 712 -483.3) scale(19.29241 5.00052)"/><path fill="#c1d6fc" d="M69.2 88l-2.4-34.8 18-1.3 2.4 35z"/><ellipse cx="3" cy="133" fill="#b3ab95" rx="16" ry="37"/><path fill="#ada095" d="M31 118l18-23-20-4z"/><path fill="#0e1618" d="M20 120h42v26H20z"/><path fill="#2a313e" d="M93 199h45v24H93z"/><ellipse cx="7" cy="221" fill="#998766" rx="30" ry="24"/><path fill="#a9967a" d="M134.1 252.1l-4.7 9.3 20.1-44.2-37.8 7.9z"/><path fill="#9e9181" d="M120 145h50v16h-50z"/><path fill="#23181a" d="M65.8 53.5l.5-5.8-14.8 2.6 13.2 29.5z"/><ellipse cx="54" cy="79" fill="#b6cbea" rx="4" ry="23"/><path fill="#a3c3d8" d="M154 75h16v52h-16z"/><path fill="#231813" d="M145 27.8l.2 1L95 42.2l-.2-1z"/><path fill="#85adce" d="M85 133l-5-33H51z"/><circle r="1" fill="#211610" transform="rotate(77 -49.3 155.2) scale(37.16672 5.67029)"/><path fill="#aabdd5" d="M121.5 103.1l-19.8-43.6L68.2 58l51.9-22.4z"/><path fill="#838378" d="M96.6 148.8l2.9 42.5 10 .9V165z"/><path fill="#9ea097" d="M56 219.6v23.9l14.1-36.8-23.3-51.1z"/><path fill="#bf9588" d="M81.9 236.2l-6.5-50.8 17.7 39.4 23.6-2.1z"/><ellipse cx="41" cy="213" fill="#4b473d" rx="3" ry="81"/><path fill="#afd6f1" d="M116 112h8v15h-8z"/><path fill="#a8c0d4" d="M25 61l-6 62-32-4z"/><path fill="#564d3d" d="M31.2 271l36.1-71.5-27.1 21.1-34.4 41.5z"/><circle r="1" fill="#120d08" transform="rotate(-74 164.2 -27.4) scale(9.47319 5.49597)"/><path fill="#828fa2" d="M134 214.3l51 28-23.8-1.6-.5 3.1z"/><path fill="#363238" d="M39.3 58.2l95.1-27.3.3 1L39.6 59z"/><path fill="#3f352f" d="M112.5 89.4l4 56.9-33 2.3-4-56.9z"/><path fill="#6a3f25" d="M34 77h14v21H34z"/><ellipse cx="74" cy="192" fill="#211f1c" rx="2" ry="36"/><path fill="#a79174" d="M51.2 177l18.5-50.8 13.1 4.8-18.5 50.8z"/><path fill="#24292b" d="M59.1 111.6l2.8 33-36 19.2 26.5-66z"/><path fill="#231e1f" d="M148.6 113.2l3-31-24.6 6.4-20.5 18.1z"/><path fill="#a9b9ce" d="M102 88l83-14-44-43z"/><circle r="1" fill="#adc1dd" transform="matrix(-3.93417 -5.15717 13.91731 -10.61687 38.3 70.3)"/><path fill="#090d0e" d="M37 106h13v24H37z"/><path fill="#2b190e" d="M153 245l14 1-26-16z"/><circle cx="166" cy="142" r="16" fill="#91816d"/><path fill="#8fa5c3" d="M21 14l-36 55L178 7z"/><path fill="#8ca3ae" d="M40 160l21 35-7-46z"/><ellipse cx="72" cy="97" fill="#100e0b" rx="15" ry="4"/><path fill="#c28c6a" d="M84.4 144.2l7.2 3.5-4 8.1-7.2-3.5z"/><path fill="#4f493b" d="M36 270l40-49 9 18z"/><path fill="#cb7b77" d="M77 191h15v23H77z"/><path fill="#9fb2cd" d="M131.4 32.7l-10.9 19.7-50 19.8 4.8-21.4z"/><path fill="#767774" d="M107 166l-31 7 27-19z"/><path fill="#463d37" d="M99 72l-23 77 43-16z"/><path fill="#b7c4cf" d="M-2 92.4L4 68l30 7.5-6 24.3z"/><path fill="#8d8268" d="M93 221l89 34-109 1z"/><path fill="#4e4538" d="M169 232l-22.4-16.8L161 196l22.4 16.8z"/><circle r="1" fill="#765f43" transform="matrix(1.38446 6.14331 -11.20303 2.52471 1.4 128.9)"/><ellipse cx="33" cy="192" fill="#939d9c" rx="5" ry="37"/><path fill="#171f22" d="M90 188l9-20-37 20z"/><circle r="1" fill="#8f7d68" transform="matrix(13.52206 13.7122 -4.85081 4.78355 131 143.4)"/><path fill="#181411" d="M133.4 133.6L109 88.5l14.8 22.4 2 19.3z"/><path fill="#353133" d="M135 38l1-8-6-10z"/><path fill="#3a3835" d="M39 178h10v11H39z"/><path fill="#181511" d="M83 95h8v40h-8z"/><path fill="#393433" d="M87 68h6v42h-6z"/><path fill="#2a1e1b" d="M58 67h9v33h-9z"/><path fill="#998769" d="M50.2 239.5l8.5 6 13.2-12.7-14.6-15.6z"/><path fill="#120502" d="M58.5 47v6h-5v-6z"/><circle r="1" fill="#948369" transform="matrix(-16.5993 -61.39976 15.3479 -4.14927 12.6 180.3)"/><path fill="#1e2930" d="M64 168l35-19-7 16z"/><path fill="#2e2f2d" d="M31.3 102.9l-7.7-4.1-6.7 55.1 7.3-3.7z"/><path fill="#8fa9ba" d="M61.9 131.7l-2.6-20.8 20.8-2.6 2.6 20.8z"/><path fill="#9da2a0" d="M31.9 99.2l4.8 1.2-4.6 18.4-4.8-1.2z"/><path fill="#9da8a7" d="M53 142h3v44h-3z"/><path fill="#9fb3cc" d="M68.7 50.4l58.1 27.1-23.9 7.1-2.2-42.5z"/><path fill="#a0a19b" d="M46 106l-11-5 15-6z"/><path fill="#a9bdd9" d="M57.6 75.8l-7.2 7-16-16.6 7.2-7z"/><circle r="1" fill="#685d4f" transform="rotate(-78.9 188.6 -2.7) scale(22.36461 34.34701)"/><path fill="#b7856a" d="M36 88l5 7 7-7z"/><path fill="#887f72" d="M117.2 154.4l12.6-3.2 5 20.4-12.6 3.2z"/><path fill="#5c98b9" d="M97.1 156.2l-3.1 4.7 2.2 6.4 4.3-13.5z"/><circle r="1" fill="#4d9ec5" transform="matrix(.37983 -3.14163 2.44248 .2953 78 173)"/><ellipse cx="94" cy="210" fill="#404046" rx="5" ry="10"/><path fill="#316f90" d="M88 167l-12-11 5-4z"/><path fill="#514437" d="M158 127h12v7h-12z"/><path fill="#af9f87" d="M23.9 162.3L11.2 170l6.8-28 7.6 30.2z"/><circle r="1" fill="#4f4d42" transform="matrix(-2.68603 14.34855 -30.74798 -5.75599 44.8 255)"/><path fill="#53402e" d="M38.3 95.7l8-19.6-12.8 4.7-3.9 15.9z"/><ellipse cx="138" cy="7" fill="#859abf" rx="97" ry="16"/><path fill="#564f51" d="M70.3 90.6l34.9 8.6 7.9-11-38.6-.1z"/></g></g></svg>