<svg xmlns="http://www.w3.org/2000/svg" viewBox="0 0 1800 1200"><defs/><filter id="prefix__a"><feGaussianBlur stdDeviation="12"/></filter><rect width="100%" height="100%" fill="#3c3c4c"/><g filter="url(#prefix__a)"><g transform="translate(3.5 3.5) scale(7.03125)"><circle r="1" fill="#f0f1e0" fill-opacity=".5" transform="matrix(.34302 62.02797 -254.9961 1.41015 124 53.8)"/><ellipse cx="153" cy="99" fill="#777876" fill-opacity=".5" rx="255" ry="17"/><circle r="1" fill="#b6b5b6" fill-opacity=".5" transform="rotate(178 29.8 6.3) scale(148.09953 41.44802)"/><circle r="1" fill="#6c6d54" fill-opacity=".5" transform="matrix(-200.4048 -4.7534 .27146 -11.445 123.9 151.4)"/><ellipse cx="130" cy="151" fill="#0e0e0b" fill-opacity=".5" rx="30" ry="5"/><ellipse cx="99" cy="142" fill="#93958d" fill-opacity=".5" rx="91" ry="3"/><circle r="1" fill="#7f817f" fill-opacity=".5" transform="matrix(-85.8107 7.1285 -2.4347 -29.30819 240.4 84.8)"/><path fill="#d8d9d3" fill-opacity=".5" d="M11 151h18v6H11z"/><path fill="#373b2c" fill-opacity=".5" d="M71 114h185v27H71z"/><path fill="#20201d" fill-opacity=".5" d="M24 144h57v10H24z"/><ellipse cx="203" cy="152" fill="#272721" fill-opacity=".5" rx="31" ry="6"/><path fill="#9d9d85" fill-opacity=".5" d="M100.1 180.4l35.2-20.9 25.5 15.3-35.4-13.5z"/><path fill="#c6c8c1" fill-opacity=".5" d="M232 156h16v5h-16z"/><path fill="#afafa5" fill-opacity=".5" d="M13 138h31v5H13z"/><ellipse cx="3" cy="87" fill="#939392" fill-opacity=".5" rx="117" ry="28"/><path fill="#7d7d6b" fill-opacity=".5" d="M8 153l-3 14 30-11z"/><path fill="#8e9081" fill-opacity=".5" d="M177.6 142.7l41.4-1.6 16.8 1.9-61.6 5.1z"/><path fill="#d2d4cd" fill-opacity=".5" d="M93 157l-7-6 13 3z"/><path fill="#151815" fill-opacity=".5" d="M240.9 153l16.7-13.5-11 45.5 17-27.5z"/><path fill="#b0b1aa" fill-opacity=".5" d="M161 154h11v7h-11z"/><path fill="#3d4137" fill-opacity=".5" d="M178.7 143.2L-16 109.7 3 164l7.6-26.5z"/><path fill="#202311" fill-opacity=".5" d="M24 161h85v4H24z"/><circle r="1" fill="#b2b2b2" fill-opacity=".5" transform="rotate(-95 50.6 -42.2) scale(16.52912 81.85922)"/><path fill="#2a2e1b" fill-opacity=".5" d="M146 164h88v6h-88z"/><circle r="1" fill="#909190" fill-opacity=".5" transform="rotate(-10.6 488.4 -890.5) scale(64.49331 22.31523)"/><circle r="1" fill="#80806e" fill-opacity=".5" transform="matrix(-7.39476 9.97946 -3.03746 -2.25075 243.7 166.2)"/><circle r="1" fill="#9fa09f" fill-opacity=".5" transform="matrix(4.33923 17.80023 -125.35058 30.55718 115.4 40)"/><ellipse cx="131" cy="169" fill="#848471" fill-opacity=".5" rx="14" ry="9"/><circle r="1" fill="#868786" fill-opacity=".5" transform="rotate(31.7 24.9 459.5) scale(20.26597 43.04902)"/><path fill="#7a7b7a" fill-opacity=".5" d="M10 103h246v11H10z"/><path fill="#21221c" fill-opacity=".5" d="M219.2 158.4L216 150l16.8-6.4 3.2 8.4z"/><path fill="#313332" fill-opacity=".5" d="M82 139l22 8-9 5z"/><path fill="#1c1b11" fill-opacity=".5" d="M326.2 116.3l.3 1-158.7 48.4-.3-1z"/><path fill="#f4f5f2" fill-opacity=".5" d="M19.2 154.3l-.2-1 7.8-1.6.2 1z"/><path fill="#92928a" fill-opacity=".5" d="M115 142h44v4h-44z"/><path fill="#2d302e" fill-opacity=".5" d="M159 131h92v11h-92z"/><circle r="1" fill="#83857c" fill-opacity=".5" transform="matrix(1.03107 2.64457 -8.21627 3.20339 218 144.5)"/><path fill="#979791" fill-opacity=".5" d="M15 140h69v3H15z"/><path fill="#c0c1be" fill-opacity=".5" d="M234 156h18v3h-18z"/><path fill="#080b00" fill-opacity=".5" d="M38 181l-17 2 4-24z"/><path fill="none" stroke="#12110c" stroke-opacity=".5" stroke-width=".5" d="M12.3 146q-3.2 16.3-8.1 39"/><path fill="#b4b6af" fill-opacity=".5" d="M40.1 135.7l-.2 3-6-.4.2-3z"/><ellipse cx="171" cy="117" fill="#4c4f4b" fill-opacity=".5" rx="243" ry="3"/><path fill="#6b6c65" fill-opacity=".5" d="M191 157h56v5h-56z"/><path fill="#727472" fill-opacity=".5" d="M238.1 96.6L271 52.8v61.6l-101.2 1z"/><path fill="#6e7069" fill-opacity=".5" d="M85 144h4v23h-4z"/><ellipse cx="69" cy="151" fill="#151514" fill-opacity=".5" rx="17" ry="2"/><path fill="#30302d" fill-opacity=".5" d="M101 146h60v10h-60z"/><path fill="#070805" fill-opacity=".5" d="M52.9 162.4l2.2 1.8 27.6-1.8-28.8-1.8z"/><path fill="#313432" fill-opacity=".5" d="M13.1 128L-.6 179.4l-12.5-3.4L.6 124.7z"/><path fill="#696a59" fill-opacity=".5" d="M16 155l-7 18 20-14z"/><path fill="#21211c" fill-opacity=".5" d="M29 142l14 12-28-12z"/><path fill="#93948f" fill-opacity=".5" d="M178.3 143.6L162.5 163l-.8-.6 15.8-19.4z"/><path fill="#8c8c86" fill-opacity=".5" d="M81.6 146.1l-56.9-6.5 56.1 1.8 20.8 19z"/><path fill="#3b3e3c" fill-opacity=".5" d="M0 119h149v18H0z"/><path fill="#2e3323" fill-opacity=".5" d="M120 185l-45-15 39-8z"/><path fill="#404039" fill-opacity=".5" d="M138 164l51 21H63z"/><path fill="#878786" fill-opacity=".5" d="M.2 98.3L-16 114l12.4.8 258.4-21.4z"/><path fill="#4f5447" fill-opacity=".5" d="M28 164h66v4H28z"/><ellipse cx="203" cy="149" fill="#4f4f4a" fill-opacity=".5" rx="27" ry="3"/><path fill="#1e2325" fill-opacity=".5" d="M173 144l-8 9 2-10z"/><path fill="#969690" fill-opacity=".5" d="M87 155h14v4H87z"/><path fill="#a4a39b" fill-opacity=".5" d="M13.6 138.7l-16.3 60.9-1-.3 16.4-60.9z"/><circle r="1" fill="#9e9e9f" fill-opacity=".5" transform="rotate(-92.6 61.8 -14) scale(10.25369 130.75373)"/><path fill="#33342d" fill-opacity=".5" d="M13 140.6l-7.5 32.6 43.2-8.5-39.2 12.4z"/><path fill="#121311" fill-opacity=".5" d="M102 151h57v3h-57z"/><circle r="1" fill="#70726b" fill-opacity=".5" transform="matrix(.85871 -.87025 8.22138 8.1124 26.7 152)"/><path fill="#57574d" fill-opacity=".5" d="M265 159l-30 9-7-8z"/><path fill="#5c5b53" fill-opacity=".5" d="M119.5 176.9l50.9-19 29.8-4.1-14.7 3.2z"/><path fill="#7c7d6a" fill-opacity=".5" d="M241 142l6 6 4-6z"/><path fill="#303231" fill-opacity=".5" d="M249.2 148.5l-7.5-32.2 20 1.9-6.4 53.1z"/><path fill="#454340" fill-opacity=".5" d="M108 147h48v4h-48z"/><path fill="#a2a399" fill-opacity=".5" d="M229.7 141l-.5 3-6.9-1 .5-3z"/><circle cx="16" cy="153" r="3" fill="#c8c9c7" fill-opacity=".5"/><circle r="1" fill="#a8a8a7" fill-opacity=".5" transform="matrix(-1.50228 -6.98265 152.02653 -32.70758 173.3 9.3)"/><path fill="#50504d" fill-opacity=".5" d="M38 145h33v4H38z"/><path fill="#93938d" fill-opacity=".5" d="M99 139l-5 5 22-2z"/><path fill="#7d7e77" fill-opacity=".5" d="M133 143h96v3h-96z"/><path fill="#b7b7b9" fill-opacity=".5" d="M126 161h11v2h-11z"/><path fill="#0f100c" fill-opacity=".5" d="M166 163h11v4h-11z"/><path fill="#181816" fill-opacity=".5" d="M28 148h22v3H28z"/><path fill="#161716" fill-opacity=".5" d="M176 152h21v2h-21z"/><path fill="#3a3c3c" fill-opacity=".5" d="M144 135h78v7h-78z"/><path fill="#74756e" fill-opacity=".5" d="M160 138l5 9-6 11z"/><ellipse cx="40" cy="81" fill="#919291" fill-opacity=".5" rx="139" ry="11"/><path fill="#262a2d" fill-opacity=".5" d="M19.8 150.7l-10.1-6.5.5-.9 10.1 6.5z"/><path fill="#a9aba6" fill-opacity=".5" d="M233 156h19v4h-19z"/><circle r="1" fill="#9a9b9a" fill-opacity=".5" transform="rotate(-114.2 102.5 -39) scale(17.05242 58.56411)"/><path fill="#2f302a" fill-opacity=".5" d="M204.6 154l26.9 4.4 8.1-10.7-16.6 1z"/><ellipse cy="115" fill="#525653" fill-opacity=".5" rx="110" ry="2"/><path fill="#21231d" fill-opacity=".5" d="M254.5 185l5.2-32.5-11.5 17-27-.9z"/><path fill="#5c5c55" fill-opacity=".5" d="M106 155h43v6h-43z"/><path fill="#3e413b" fill-opacity=".5" d="M23 155.6l16.6 27.9L67.1 165l29.7 20z"/><path fill="#414344" fill-opacity=".5" d="M64.2 114.1l55.3 15.3-25.2-2.7-.8 27.8z"/><ellipse cx="105" cy="141" fill="#94948a" fill-opacity=".5" rx="23" ry="1"/><path fill="#232626" fill-opacity=".5" d="M232 142l-25-12 20-1z"/><path fill="#3d3f3c" fill-opacity=".5" d="M126 160l-19 8-25-8z"/><path fill="#63625b" fill-opacity=".5" d="M201 156h20v8h-20z"/><ellipse cx="150" cy="113" fill="#6d706d" fill-opacity=".5" rx="161" ry="1"/><circle r="1" fill="#939494" fill-opacity=".5" transform="matrix(47.33091 -36.279 9.39237 12.25363 218.3 40.8)"/></g></g></svg>