<svg xmlns="http://www.w3.org/2000/svg" viewBox="0 0 1800 1350"><defs/><filter id="prefix__a"><feGaussianBlur stdDeviation="12"/></filter><rect width="100%" height="100%" fill="#474444"/><g filter="url(#prefix__a)"><g transform="translate(3.5 3.5) scale(7.03125)"><ellipse cx="109" fill="#fff" fill-opacity=".5" rx="118" ry="44"/><path fill="#fff" fill-opacity=".5" d="M115 39L266 0-16-3z"/><ellipse cx="23" cy="105" fill="#687476" fill-opacity=".5" rx="96" ry="88"/><circle r="1" fill="#667a80" fill-opacity=".5" transform="matrix(-47.34468 -29.67679 15.84207 -25.27356 216.2 146.8)"/><circle cx="118" cy="14" r="35" fill="#dffdff" fill-opacity=".5"/><circle r="1" fill="#12171a" fill-opacity=".5" transform="rotate(-163 6 40.3) scale(48.67828 21.11751)"/><circle r="1" fill="#7f858f" fill-opacity=".5" transform="rotate(-73.8 82.5 -41.3) scale(12.98335 57.4727)"/><circle r="1" fill="#0e1119" fill-opacity=".5" transform="rotate(155.1 45.5 83.7) scale(21.05889 30.40085)"/><path fill="#f3ffff" fill-opacity=".5" d="M132 40l1-54L259-3z"/><path fill="#4a5257" fill-opacity=".5" d="M133.2 100.8l111.2-30.4-2.3-66.1L143.7 39z"/><path fill="#8ba3ae" fill-opacity=".5" d="M56 115l42 10 23-38z"/><circle r="1" fill="#fcffff" fill-opacity=".5" transform="rotate(-152.9 121.4 -29.3) scale(14.61829 7.16895)"/><circle r="1" fill="#d4edff" fill-opacity=".5" transform="rotate(99.5 37.4 43.8) scale(15.75335 87.36995)"/><circle r="1" fill="#291c19" fill-opacity=".5" transform="matrix(-1.62201 19.06176 -32.24872 -2.74412 151 153.2)"/><path fill="#8b8e91" fill-opacity=".5" d="M244 44.8l-25.1-1.6 32.3-22.9 19.8 9.2z"/><path fill="#b6c2c8" fill-opacity=".5" d="M85.3 78.6l-29.8 3.7-.8-7 29.8-3.6z"/><path fill="#0b0000" fill-opacity=".5" d="M178 126h8v22h-8z"/><circle r="1" fill="#68655f" fill-opacity=".5" transform="matrix(52.28741 46.72226 -24.60945 27.54072 53 161.1)"/><path fill="#232630" fill-opacity=".5" d="M149 36h16v76h-16z"/><circle r="1" fill="#1e262c" fill-opacity=".5" transform="matrix(-3.69141 -39.05105 21.5908 -2.04093 255 81.4)"/><path fill="#617b8a" fill-opacity=".5" d="M187 127h69v24h-69z"/><path fill="#8c8783" fill-opacity=".5" d="M118.7 59.3L203 25.2l2.2 5.5L121 64.8z"/><path fill="#a7bec7" fill-opacity=".5" d="M166 128h11v13h-11z"/><path fill="#6c7278" fill-opacity=".5" d="M-6.5 31l31.4 31 92.3-4.4L-16 .5z"/><ellipse cx="97" cy="84" fill="#2a343c" fill-opacity=".5" rx="70" ry="5"/><path fill="#374d62" fill-opacity=".5" d="M164 68h26v58h-26z"/><circle r="1" fill="#5d5a52" fill-opacity=".5" transform="matrix(-8.3571 22.59216 -48.1536 -17.81255 230.7 182)"/><path fill="#030b09" fill-opacity=".5" d="M202 139h54v2h-54z"/><path fill="#312825" fill-opacity=".5" d="M167.6 66.9l17.6-17-39.8-12.6-.7 13.1z"/><circle r="1" fill="#6c6c6c" fill-opacity=".5" transform="rotate(32.6 -38.6 256.5) scale(16.48695 19.67903)"/><path fill="#2f373a" fill-opacity=".5" d="M226.7 36l-14.2-11 14.8-19 14.2 11z"/><path fill="#716e6b" fill-opacity=".5" d="M210 77l-34-30 62 16z"/><path fill="#0d0b07" fill-opacity=".5" d="M107.1 129l-35.4 10.8-.8-2.8 35.4-10.8z"/><path fill="#818179" fill-opacity=".5" d="M118.1 140.7l-.3 4.7-14.6 1.6 5.3-13.6z"/><path fill="#7c8a91" fill-opacity=".5" d="M120.6 93l-13 22.5L89.4 105l13-22.5z"/><path fill="#121015" fill-opacity=".5" d="M164.6 101.9L143.1 96l13.5 19.3-5.6 37.1z"/><path fill="#7f8280" fill-opacity=".5" d="M168 25l-12 22 5 8z"/><ellipse cx="82" cy="113" fill="#a0b9c7" fill-opacity=".5" rx="25" ry="3"/><path fill="#a6a398" fill-opacity=".5" d="M44.4 71.9l-.1 1L5.6 68l.1-1z"/><path fill-opacity=".5" d="M211 132h45v2h-45z"/><path fill="#727478" fill-opacity=".5" d="M130.4 102.4l18.5-22.5-12.5 39.4 18.3-5.2z"/><ellipse cx="216" cy="34" fill="#2d3539" fill-opacity=".5" rx="8" ry="22"/><ellipse cx="179" cy="8" fill="#e4f3f9" fill-opacity=".5" rx="23" ry="18"/><path fill="#8da6b7" fill-opacity=".5" d="M191 116l54 3v1l-54-3z"/><path fill-opacity=".5" d="M106 139.2l-9.3 5.8-2.7-4.2 9.3-5.8z"/><circle r="1" fill="#8094a5" fill-opacity=".5" transform="matrix(62.7548 21.99309 -1.72907 4.93372 54 28.6)"/><circle r="1" fill="#3b2324" fill-opacity=".5" transform="rotate(51.8 -63.3 227.7) scale(4.9277 30.62861)"/><path fill="#3f4d52" fill-opacity=".5" d="M25 98h65v13H25z"/><path fill="#83959f" fill-opacity=".5" d="M187 134h40v6h-40z"/><ellipse cx="146" cy="128" fill="#757484" fill-opacity=".5" rx="9" ry="6"/><path fill="#cbe1ee" fill-opacity=".5" d="M265.4-16l-26.5 27.8 29.9-8L248.6-16z"/><path fill="#31302e" fill-opacity=".5" d="M55.3 70l2.4-15.2-5.5.4-44.6 50.4z"/><path fill="#566877" fill-opacity=".5" d="M164 75l22-18-22 60z"/><path fill="#a6b7c3" fill-opacity=".5" d="M191.4 124l.2-3 21 1-.2 3z"/><path fill="#000737" fill-opacity=".5" d="M118 126h18v15h-18z"/><path fill="#11191a" fill-opacity=".5" d="M211 47h40v7h-40z"/><path fill="#342d36" fill-opacity=".5" d="M105 116.6l26.8-17.4 9.2 14.2-26.8 17.4z"/><path fill="#36393e" fill-opacity=".5" d="M144.1 50.3l28.2-14.9 8.5-6.4-13.2 2.3z"/><path fill="#30393c" fill-opacity=".5" d="M217 121l-35-54 78 37z"/><path fill="#858984" fill-opacity=".5" d="M227.7 196.2l-20-1.4.6-9 20 1.4z"/><path fill="#565b57" fill-opacity=".5" d="M39 207l47-47 52 2z"/><path fill="#2d3a3d" fill-opacity=".5" d="M71 116h23v3H71z"/><path fill="#59595b" fill-opacity=".5" d="M33 58l129 1-47 22z"/><path fill="#a19c94" fill-opacity=".5" d="M30 81.2v1l-36 2.6v-1z"/><path fill="#a1a0a0" fill-opacity=".5" d="M133.3 23.9l7.9 24.7-25.5 8.8 32.7 1.7z"/><circle r="1" fill="#17181c" fill-opacity=".5" transform="matrix(5.9241 -1.81118 2.09507 6.85267 151.3 43.2)"/><path fill="#28201a" fill-opacity=".5" d="M176.4 177.6L160.3 167l4.7-43.9 3.1 17.5z"/><path fill="#707881" fill-opacity=".5" d="M199.1 36.8l16.1 1.1-16.3-20.6-13.5 8.7z"/><ellipse cx="240" cy="125" fill="#0f2227" fill-opacity=".5" rx="41" ry="2"/><path fill="#7c8991" fill-opacity=".5" d="M198 142h35v11h-35z"/><path fill="#b1aa9c" fill-opacity=".5" d="M61.5 73l-33-1v-1l33 1z"/><circle r="1" fill="#5b6a7c" fill-opacity=".5" transform="matrix(-11.73758 -1.90107 .30655 -1.8927 133 119.5)"/><path fill="#a5aeb1" fill-opacity=".5" d="M47 77h66v2H47z"/><path fill="#5e6e75" fill-opacity=".5" d="M44 107l76-10-19-14z"/><ellipse cx="216" cy="133" fill="#1f2a2b" fill-opacity=".5" rx="24" ry="2"/><path fill="#cfe7f7" fill-opacity=".5" d="M103.3-16L-16 7.9l41-.7 42.3 23.7z"/><path fill="#191d1e" fill-opacity=".5" d="M-16 72.4l46.5-1 2.2 14.9-.8-.8z"/><path fill="#151f25" fill-opacity=".5" d="M60 83h46v4H60z"/><path fill="#d2e0e8" fill-opacity=".5" d="M156.9 20.3l-14 20.7-24.4 5.4-24.2-25.8z"/><path fill="#13100a" fill-opacity=".5" d="M97 138l23-22-4-11z"/><path fill="#94a7ad" fill-opacity=".5" d="M171 126h6v21h-6z"/><path fill="#879aa7" fill-opacity=".5" d="M209 122h25v3h-25z"/><path fill="#696a68" fill-opacity=".5" d="M-16 98l57 51 52-26z"/><path fill="#080d0b" fill-opacity=".5" d="M116 161l6-17 33 9z"/><path fill="#86847e" fill-opacity=".5" d="M237.3 53l-4.6-.5-10.7 4.1 12.8 2.1z"/><path fill="none" stroke="#515d63" stroke-opacity=".5" stroke-width=".5" d="M79.5 124Q84 100 74 11"/><path fill="#494e53" fill-opacity=".5" d="M194.3 25.8l5.7-11.7 16.5 37.4 1.4-38.4z"/><path fill="#43494a" fill-opacity=".5" d="M35 81h22v23H35z"/><path fill="#464e57" fill-opacity=".5" d="M41.9 39.5l5.8-2.9 6.7 13-67.6-3.9z"/><path fill="#121b1c" fill-opacity=".5" d="M208 140h39v2h-39z"/><path fill="#7f8480" fill-opacity=".5" d="M127 83h9v6h-9z"/><path fill="#403428" fill-opacity=".5" d="M168 145l27 9 1-9z"/><path fill="#282729" fill-opacity=".5" d="M181 163.1l-8.9-84.8-1.1 46.4 17.2-2.1z"/><path fill="#383d43" fill-opacity=".5" d="M-9 69l-7-33 46 30z"/><path fill="#8d9ea0" fill-opacity=".5" d="M136 100l5-13 2 22z"/><path fill="#dfeef7" fill-opacity=".5" d="M246.6 7.9L271-10.2 79.7 31.4 73.8-16z"/><circle r="1" fill="#f1f3ee" fill-opacity=".5" transform="matrix(-34.60335 -6.40363 1.79003 -9.67278 159.8 14)"/><path fill="#241710" fill-opacity=".5" d="M132 103l-9-13 13-1z"/><path fill="#828489" fill-opacity=".5" d="M81 37l25 3 9 30z"/><ellipse cx="245" cy="130" fill="#728b9e" fill-opacity=".5" rx="58" ry="2"/></g></g></svg>