<svg xmlns="http://www.w3.org/2000/svg" viewBox="0 0 1200 1800"><defs/><filter id="a"><feGaussianBlur stdDeviation="12"/></filter><rect width="100%" height="100%" fill="#4d4428"/><g filter="url(#a)"><g fill-opacity=".5" transform="translate(3.5 3.5) scale(7.03125)"><circle r="1" fill="#daf1ff" transform="matrix(9.0165 -103.05896 161.7752 14.1535 105.7 52.5)"/><circle cx="76" cy="207" r="112" fill="#6a6c80"/><circle cx="72" cy="17" r="72" fill="#afd4ff"/><circle r="1" fill="#605752" transform="rotate(-124.3 99.4 28.8) scale(25.09195 124.09668)"/><path fill="ivory" d="M27.7 70l12-.8 4.6 64.8-12 .8z"/><ellipse cx="82" cy="77" fill="#6290c2" rx="43" ry="27"/><path fill="#87604e" d="M0 50h26v80H0z"/><circle r="1" fill="#d0dee9" transform="matrix(49.28825 -7.8947 4.31227 26.9224 96.1 21.7)"/><ellipse cx="169" cy="59" fill="#84767b" rx="30" ry="107"/><path fill="#06091e" d="M72 139h14v50H72z"/><path fill="#b9a074" d="M79.3 102.4l-50.6 17.9 2.4 36.2 66.6-32.8z"/><circle r="1" fill="#040c1d" transform="matrix(-7.67553 .15032 -.45096 -23.0264 124.2 176.2)"/><ellipse cx="100" cy="196" fill="#6d7588" rx="14" ry="49"/><path fill="#51521d" d="M91 103h18v44H91z"/><ellipse cx="22" cy="20" fill="#3f3024" rx="2" ry="55"/><circle cx="35" cy="240" r="65" fill="#626570"/><path fill="#000004" d="M39.4 187.5l-1.7-19.9 12.9-1.1 1.7 19.9z"/><ellipse cx="31" cy="82" fill="#fff4de" rx="7" ry="25"/><path fill="#8eafd7" d="M93.8 99.3l1.4-38 41 1.4-1.4 38z"/><circle r="1" fill="#7c8491" transform="rotate(81.1 -67.3 117.7) scale(32.6738 9.63617)"/><path fill="#0f1a07" d="M4 173l31-10-23-13z"/><circle r="1" fill="#a39478" transform="matrix(82.00139 -11.16356 1.25361 9.20833 125 112.7)"/><ellipse cx="148" cy="44" fill="#5c5853" rx="3" ry="150"/><path fill="#a3a8b2" d="M121.4 251.1l.2 7-45 .8-.2-7z"/><path fill="#6b8db2" d="M25 44l80 36-50 16z"/><circle r="1" fill="#c5a48b" transform="matrix(3.9174 -.11018 1.2476 44.35588 139 78.5)"/><path fill="#707446" d="M42 98h21v26H42z"/><path fill="#d1c1bc" d="M67.7 104.5l12.9-1.8 3.7 26.8-12.9 1.8z"/><circle r="1" fill="#e8e6da" transform="matrix(2.66542 -.17907 .58475 8.70394 20.4 83)"/><path fill="#6e6f82" d="M135 175h35v25h-35z"/><path fill="#40484e" d="M15.3 138.7l-29 1.5-1.6-31 29-1.4z"/><circle r="1" fill="#91919c" transform="matrix(6.82919 31.85532 -10.43465 2.237 161.6 126.3)"/><path fill="#c2b8af" d="M135 150l-3-32-7 15z"/><path fill="#424626" d="M120 137l-3-21-37 29z"/><ellipse cy="28" fill="#8fb6de" rx="10" ry="31"/><path fill="#7a6c54" d="M62 125l-24 11 67 18z"/><path fill="#a9633d" d="M10 91l-26-29 41-3z"/><path fill="#acacb8" d="M140 233l-21 20 18-8z"/><path fill="#737c89" d="M36 163L6 190l32 13z"/><path fill="#737271" d="M11.6 135.6l17.3-10 15.5 26.8-17.3 10z"/><path fill="#979596" d="M31.3 249l8.1-3.4 12.7-10.4-68.1 29z"/><path fill="#5a4f40" d="M158 147l-68-3 68 28z"/><path fill="#fff8d6" d="M57 141l4-10v15z"/><path fill="#d4dddf" d="M144 15l-17 31-59-15z"/><path fill="#1f2c19" d="M153.1 168.2l31.9 14.6-35.5-26.2-9.7 10.3z"/><path fill="#b7ab9d" d="M15 82h6v58h-6z"/><path fill="#4b484d" d="M84 250l50-7v-60z"/><circle r="1" fill="#9b9899" transform="matrix(25.68825 16.42832 -1.38456 2.16498 77.7 255)"/><ellipse cx="145" cy="75" fill="#59534f" rx="2" ry="47"/><path fill="#f8efe3" d="M31 73h11v39H31z"/><path fill="#2e262d" d="M70 167h4v53h-4z"/><circle cx="52" cy="9" r="30" fill="#abc4da"/><path fill="#332828" d="M22 136h24v3H22z"/><path fill="#3e4953" d="M10 52h3v65h-3z"/><path fill="#aca093" d="M12 121L9 85l-25 6z"/><path fill="#6d7481" d="M89 150h26v52H89z"/><path fill="#9fb8cf" d="M135 81l-2-45-92-1z"/><path fill="#261e23" d="M38 198l13-2-2-28z"/><path fill="#9a95a4" d="M173.7 252.2l11.3 4.9-38-22.8 1.6 5.9z"/><circle r="1" fill="#7ea0c0" transform="matrix(-22.10223 19.50138 -12.24318 -13.87602 88.7 82.1)"/><path fill="#362421" d="M92 214l-10-3-1-21z"/><ellipse cx="20" cy="22" fill="#4c5764" rx="1" ry="24"/><path fill="#cebda1" d="M117 144l12-6-19 3z"/><path fill="#d8c6a6" d="M28 116l27 8-22 9z"/><path fill="#acafb9" d="M31 158l20-24-1 11z"/><path fill="#eae6dc" d="M25 30h114v4H25z"/><path fill="#736c35" d="M124 106h6v26h-6z"/><path fill="#161c2e" d="M89.2 149l1.6 1.1-19.7 7 9.5 37.6z"/><path fill="#2a411c" d="M52 99h14v4H52z"/><path fill="#cfc8b1" d="M23.8 124l-2.6-30h1l2.6 29.8z"/><path fill="#5f6456" d="M91 101h15v19H91z"/><path fill="#9c8f8a" d="M131.8 53.1l27.6-35.5-15.7-12.8 9.3-9.9z"/><path fill="#645f4b" d="M21.4 119.8l-1.9-6.5 12.3 12-8.2 32.8z"/><path fill="#848496" d="M183.4 214.9l-50.3-3.5-1.5-5.3 32.3 10.3z"/><path fill="#888d98" d="M62 196l8 14-17-4z"/><path fill="#93b0cb" d="M21.1 61.8l-.7-40.2L19-16l-35 41.5z"/><ellipse cx="50" cy="83" fill="#6d91b7" rx="10" ry="18"/><path fill="#92a9b1" d="M97 112l-12-11-26 5z"/><path fill="#927f78" d="M75 131l13 22 3-27z"/><path fill="#bdbdb7" d="M121.4 99.4l-14.3 1.3 1.5 10.1-4.2-1.8z"/><path fill="#816a60" d="M138 161l16-16-43 11z"/><path fill="#1f242d" d="M115 172l14-23 5 59z"/><ellipse cx="121" cy="108" fill="#928469" rx="2" ry="33"/><path fill="#999ea7" d="M97.2 217l-.3-1 21.9-7 .3 1z"/><path fill="#352e34" d="M114 213h26v8h-26z"/><path fill="#81868d" d="M7 215h21v8H7z"/><path fill="#322320" d="M75.7 148l-7-4 3.6-6 7 4z"/><path fill="#cd9c5b" d="M55 118h20v8H55z"/><path fill="#939599" d="M56.5 245.1l-3.9-19.6L65.9 249l16.7 3.2z"/><ellipse cx="10" cy="60" fill="#556474" rx="5" ry="11"/><path fill="#c8d8e3" d="M134 45l13-61-40 50z"/><path fill="#c4af9b" d="M138 46h5v73h-5z"/><ellipse cx="24" cy="86" fill="#71716a" rx="2" ry="21"/><ellipse cx="96" cy="238" fill="#5a5757" rx="34" ry="15"/><path fill="#a99d94" d="M55.6 109.1l10.9 12.7 12.7-16.2-50.1-3.2z"/><path fill="#525152" d="M43 211l43 5-94 39z"/><path fill="#6b717e" d="M21 142.3l19 31.3-2-16.1-4.3-15.3z"/><path fill="#8a8177" d="M11.8 136.1l-.3-16.8-4.2 25.9 30.6-28.4z"/><path fill="#2d2f34" d="M-16 135.2l28 .3-9.8-9.1L-16 21.6z"/><path fill="#5c565b" d="M87 202h47v10H87z"/></g></g></svg>