<svg xmlns="http://www.w3.org/2000/svg" viewBox="0 0 3168 4752"><defs/><filter id="a"><feGaussianBlur stdDeviation="12"/></filter><rect width="100%" height="100%" fill="#2f324f"/><g filter="url(#a)"><g fill-opacity=".5" transform="translate(9.3 9.3) scale(18.5625)"><circle cx="33" cy="157" r="169" fill="#989574"/><path fill="#f9eed9" d="M30 28.3l76.2-24.7 11.7 36.1-76 24.7z"/><ellipse cx="108" cy="176" fill="#010a3e" rx="79" ry="35"/><ellipse cx="8" cy="210" fill="#c8d4b4" rx="30" ry="59"/><circle r="1" fill="#001406" transform="rotate(74.2 -65.8 67.5) scale(25.78526 41.77715)"/><path fill="#b2daff" d="M153.9 82.5l-5.3 52.4 23.2 26.3V91.5z"/><path fill="#fff4e1" d="M50 223h38v13H50z"/><path fill="#03001e" d="M51 254l57 10 56-43z"/><path fill="#253e28" d="M131 165l-15-72 69-109z"/><ellipse cx="117" cy="215" fill="#fff" rx="21" ry="3"/><path fill="#ded5bc" d="M139 43.8l-31.5-18.3 5.9 31.7L123 61z"/><circle r="1" fill="#a26758" transform="matrix(-24.20873 9.64602 -15.46457 -38.8116 95.2 114)"/><circle r="1" fill="#f6f7f8" transform="rotate(-56.3 323 -30.6) scale(27.51905 12.66348)"/><circle r="1" fill="#88a2ec" transform="matrix(-4.69757 -7.09726 15.68184 -10.37958 44.3 135)"/><path fill="#4f7036" d="M172.8-9.6l-23.2 47.7L91.2 9.6l23.2-47.7z"/><path fill="#dad9cb" d="M113.5-16L38.1 49.5 94.9 33 54.2-16z"/><path fill="#183720" d="M.8 65.2l.4-23 34 .6-.4 23z"/><circle r="1" fill="#112d10" transform="rotate(-77.2 96 65) scale(10.06964 17.25063)"/><path fill="#bbab94" d="M59.5 74.8l3 33.5-28.8-49.9L46.2 2.2z"/><ellipse cx="47" cy="172" fill="#353f69" rx="24" ry="35"/><path fill="#886a57" d="M78 44.8l18.5-15.4 33.4 39.8-18.4 15.4z"/><circle r="1" fill="#668750" transform="rotate(65.2 -3 23.4) scale(33.5692 21.21147)"/><circle r="1" fill="#241b29" transform="matrix(8.30442 -4.5243 15.38723 28.24353 57.3 195.9)"/><path fill="#fff6eb" d="M88 212h42v4H88z"/><path fill="#884a38" d="M104.4 239.1L34.6 259l72.8-41.4 31.7-1.3z"/><circle r="1" fill="#9cb271" transform="matrix(6.59221 5.01423 -7.14127 9.38862 147 94.2)"/><path fill="#191f3c" d="M99 195l-41-69 23 4z"/><path fill="#e7e7de" d="M55.8 36l10.3 4.8 3.3-21.2-27.5-.8z"/><path fill="#ac8a81" d="M95 137l30-54-17-11z"/><path fill="#394483" d="M115 106l17 33 53 23z"/><path fill="#1e2b1e" d="M138 52l-6 66-20-8z"/><path fill="#2a2d4a" d="M142 232l41-53-58-59z"/><path fill="#9f6554" d="M151 257.6l34-39.8-20.2-11.8-16.1 5.6z"/><path fill="#7882ae" d="M41.7 127.9l29-17.1L59 129l16.9 52z"/><path fill="#719e59" d="M17.1 64.1l25.6 21.2L16.4 91-16 73.6z"/><path fill="#708e52" d="M160.8 36.3L157 63l-23.8-3.3L137 33z"/><path fill="#6274ab" d="M26 154l-6 40 27 2z"/><path fill="#897c71" d="M51 64l59-23-57 6z"/><ellipse cx="38" cy="111" fill="#192924" rx="23" ry="14"/><path fill="#cbe0fa" d="M154 90h11v18h-11z"/><path fill="#b2bb8f" d="M0 154h25v50H0z"/><path fill="#6e5142" d="M57 56h42v49H57z"/><path fill="#78975c" d="M128 17.9L112-10l14-8 16 28z"/><path fill="#ffdbcc" d="M86 227l-39 6 7-12z"/><path fill="#131e18" d="M139 57l-6 26 26-2z"/><path fill="#acc687" d="M32 18l-22 8-3-9z"/><path fill="#25332d" d="M141-16l44 83-30-10z"/><path fill="#2a4387" d="M32 271l-.8-19.8 3.7-17.4 18.9 18.5z"/><path fill="#e1ada8" d="M88.4 208.6l37.6 12.8 16.2 6.5-3.6-8z"/><path fill="#794130" d="M36.1 202.5l29.6 5.4-23.1 22.6-3-.7z"/><path fill="#141a27" d="M61.7 172.4L39.2 146l.2 13.4 22.5 30.7z"/><circle cx="136" cy="114" r="8" fill="#050b12"/><path fill="#8395c2" d="M162 135h-17l-19-16z"/><circle cx="10" cy="254" r="22" fill="#b3b982"/><path fill="#d5d3ce" d="M67.5 41.5l21 2.7-5.3-35.7 13.9 8.3z"/><path fill="#312c3e" d="M161 228l-61 43 15-42z"/><path fill="#3b4832" d="M27.1 4.1l8-1L38.9 34l-8 1z"/><ellipse cx="16" cy="63" fill="#809b78" rx="5" ry="15"/><ellipse cx="92" cy="214" fill="#ce8c7d" rx="11" ry="5"/><path fill="#062043" d="M166.2 91l-4.4-2.3 10-19.6 4.4 2.2z"/><path fill="#764633" d="M104 230l-48 21-17-12z"/><circle r="1" fill="#3b5432" transform="matrix(24.86356 -9.87423 1.22666 3.08876 15.3 82.4)"/><circle r="1" fill="#a7b8e5" transform="rotate(69.8 -63.4 101) scale(2.14655 14.15691)"/><path fill="#91aa80" d="M32 0l-48 7 31 7z"/><path fill="#28314f" d="M61 125h5v85h-5z"/><path fill="#a18376" d="M126 122l-19-22-20 32z"/><path fill="#1e312c" d="M6 72l7-20-29-34z"/><path fill="#8c9384" d="M122.1 27.8l-14.3 4.8L83-12.6l25.9 26.4z"/><path fill="#2a491e" d="M68 12l-16 2L63-7z"/><path fill="#607e93" d="M158.4 69.6l19.9.1-25.5-11.6 3.9 29.8z"/><path fill="#748e62" d="M135.8 49.1l34.7-9.7-19.5-6 2.9 2.9z"/><path fill="#516193" d="M22.2 186.5l22 6.3-2.4 8.7-22-6.3z"/><path fill="#adaa97" d="M107.2 67.6L148.5 23l-13.8 27.5-8.2-12.3z"/><path fill="#2e4228" d="M96-11l13 26 23-6z"/><path fill="#b78777" d="M48.8 225.5l26.9 15-31.3-3.8 1.6-.5z"/><path fill="#433c61" d="M68 198h12v26H68z"/><ellipse cx="22" cy="225" fill="#8e8d8b" rx="19" ry="17"/><path fill="#161b25" d="M49 250h41v6H49z"/><path fill="#6f8564" d="M72-14L61 17l21-5z"/><path fill="#21362e" d="M61.5 118.9L40.4 76.3l-27.7 75.2L-16 74.2z"/><path fill="#957467" d="M79 74h45v18H79z"/><path fill="#635247" d="M95.8 46.6l-6.1-10.2 19 6.8-52.1 78.4z"/><path fill="#875d51" d="M83 143l29-1-63-52z"/><path fill="#0b1321" d="M35.1 249.2l4.1-12.9 5.3 8.4-8.2 6.3z"/><path fill="#293728" d="M128.1 33.7L185 5.1l-40.2 36.2L135.5 7z"/><path fill="#ebe2db" d="M98 208.8l1.6 2.5-11.6 7.9-1.6-2.5z"/><path fill="#d1c8be" d="M87.6 65.5l-29.5-18 11.6-31.1-34 22.7z"/><circle cx="97" cy="221" r="8" fill="#854d36"/><path fill="#3f5237" d="M14 22h16v29H14z"/><path fill="#808bb4" d="M57 121h4v44h-4z"/><path fill="#4f4440" d="M60 58h41v14H60z"/><circle r="1" fill="#815d56" transform="matrix(7.70006 7.3601 -26.24797 27.46036 152 240)"/><circle r="1" fill="#262e54" transform="matrix(-13.69594 -3.61623 9.24512 -35.01456 128.3 161.8)"/><path fill="#bdc4ac" d="M40.9 8.7l6.7 2-2.5 8.6-6.7-2z"/><circle r="1" fill="#7391a2" transform="matrix(4.16082 -2.26855 1.24573 2.28483 68.5 187.8)"/><path fill="#a18e7a" d="M52.3 59.5L62 41.6 36.9 72.1l30.6 27z"/><ellipse cx="11" cy="71" fill="#92ad75" rx="19" ry="4"/><path fill="#9f9386" d="M51 48.7l15.9-9.6 3.8 21.1 27.2-12.1z"/><path fill="#2e2534" d="M148 208l7 20-20-9z"/><path fill="#7f9569" d="M157 107l-8-13-22 6z"/></g></g></svg>