<svg xmlns="http://www.w3.org/2000/svg" viewBox="0 0 1800 1200"><defs/><filter id="a"><feGaussianBlur stdDeviation="12"/></filter><rect width="100%" height="100%" fill="#4f4142"/><g filter="url(#a)"><g fill-opacity=".5" transform="translate(3.5 3.5) scale(7.03125)"><circle cx="95" cy="31" r="163" fill="#907774"/><circle r="1" fill="#f20000" transform="matrix(56.23083 16.96857 -9.71757 32.2023 153.8 109.2)"/><circle cx="235" r="53" fill="#63a2cc"/><circle r="1" fill="#001a1a" transform="rotate(135.9 37.8 97) scale(17.48525 30.57205)"/><ellipse cx="47" cy="1" fill="#748c8e" rx="36" ry="224"/><path fill="#fff" d="M200.3 83.9l-12 .2-.6-40 12-.2z"/><circle r="1" fill="#1b3430" transform="matrix(-7.8977 -28.14482 32.10521 -9.00903 106.4 30.5)"/><ellipse cy="87" fill="#15342b" rx="29" ry="51"/><circle r="1" fill="#261718" transform="rotate(-27 390.6 -371.3) scale(49.79522 16.66363)"/><circle r="1" fill="#ff8c38" transform="matrix(-20.09554 14.67128 -11.63408 -15.93543 132.8 96.7)"/><circle r="1" fill="#ca0009" transform="matrix(20.9805 6.2147 -10.7209 36.19317 171.5 117.7)"/><path fill="#fffff6" d="M251 0h5v53h-5z"/><circle r="1" fill="#243934" transform="matrix(16.27113 -26.55355 15.85928 9.71804 171.5 48.3)"/><circle r="1" fill="#6da7de" transform="matrix(-.80624 -20.98539 27.19226 -1.0447 23.4 0)"/><ellipse cx="162" cy="166" fill="#929685" rx="255" ry="5"/><path fill="#171b06" d="M33.6 61.5l-13.3-4.3 8-24.7 13.4 4.3z"/><path d="M3.4 88.5l-.7-13 38-2 .6 13z"/><path fill="#1b352c" d="M222 51h27v31h-27z"/><path fill="#3e6488" d="M94 2l165-18-18 45z"/><path fill="#93a2a5" d="M107.9 57.5l-66.7 5.9 1.1-53.1 54.2 85.2z"/><path fill="#a39b85" d="M65.8 159.1l2.6-29.9 41.8 3.7-2.6 29.9z"/><path fill="#5f1b0e" d="M78 92h32v38H78z"/><path fill="#86959c" d="M200.5 36.8l-8.9 65.4 34.7-48.5 24.8-28.2z"/><ellipse cx="63" cy="104" fill="#a88f89" rx="13" ry="43"/><path fill="#070000" d="M28 119h18v9H28z"/><circle r="1" fill="#67a898" transform="rotate(17.2 -157.4 464.3) scale(7.65585 16.47765)"/><path fill="#a8bbc4" d="M167.6 9.4l19.8 4 6.8-9.3L156.4-16z"/><circle r="1" fill="#2c0d12" transform="matrix(.92617 -9.01713 31.72878 3.25893 142 153.2)"/><path fill="#4d3d0e" d="M197 94h20v49h-20z"/><ellipse cx="162" cy="13" fill="#688ea4" rx="7" ry="36"/><path fill="#001a2e" d="M70 33h-8V5h8z"/><path fill="#83aea6" d="M223 89h26v14h-26z"/><path fill="#667b73" d="M115 112l-8 28 29-22z"/><path fill="#c60016" d="M154 73h25v75h-25z"/><path fill="#fff" d="M188 52h8v24h-8z"/><path fill="#ce0c08" d="M120.6 70l-11.7 43.5-13.5-3.6 11.7-43.4z"/><path fill="#777d75" d="M13 89h16v81H13z"/><circle r="1" fill="#1e392c" transform="matrix(2.9185 7.23415 -24.44236 9.86088 157.3 60.2)"/><path fill="#ff662b" d="M112 84l67-6-67 39z"/><circle r="1" fill="#878f8d" transform="matrix(-2.24174 -8.42895 12.9495 -3.444 25.2 67.8)"/><path fill="#001623" d="M8.3 15.2l1.4 19-10 .6-1.4-19z"/><path fill="#152726" d="M155.4 40l-19.6-2.3 5.2 1.9 15.2-39z"/><path fill="#eef2e2" d="M189 57l36-24-24 8z"/><path fill="#babfba" d="M42 26.7l-1.6 32.1 9.9 3.7 10.3 8.1z"/><circle r="1" fill="#2a3a41" transform="matrix(-13.90468 -19.54401 34.12294 -24.27692 248 129.5)"/><path fill="#817b70" d="M103.8 117.5l-32.4-9.6 71.1 77.1-123.7-23.6z"/><ellipse cx="211" cy="69" fill="#5b6a79" rx="17" ry="25"/><circle r="1" fill="#96a5a6" transform="matrix(-6.23087 15.04264 -9.02613 -3.73875 20.4 26.5)"/><path fill="#172120" d="M129.4 156.6l-1.3-41.8 28.3 29.3-38.5 23.1z"/><path fill="#3e4240" d="M82 3l57-1-58 76z"/><ellipse cx="52" cy="112" fill="#9e9f9b" rx="10" ry="25"/><path fill="#996353" d="M74.6 130.6L88 79.8l-9.2-15.9-18.4 62.6z"/><path fill="#424738" d="M60 86L50 67 25 87z"/><path fill="#99775a" d="M125.1 40.9l21.1-1.5 8.8 14.5 1.8 12.3z"/><path fill="#58718a" d="M69 0h14v49H69z"/><path fill="#85785f" d="M123 76l53-11-23 13z"/><ellipse cx="64" cy="126" fill="#2e2825" rx="36" ry="2"/><circle r="1" fill="#393533" transform="matrix(35.45989 -34.0048 .69214 .72176 12.9 157)"/><path fill="#5f8294" d="M136.6-6.7l14 .5-1.2 35-14-.6z"/><path fill="#e53822" d="M171.2 77.6l-14 34.3-19.2 10.2 5.1-40.4z"/><path fill="#fff" d="M195 86l-1-23-6 16z"/><path fill="#1d2113" d="M0 51h41v7H0z"/><ellipse cx="130" cy="53" fill="#b7c6c0" rx="2" ry="14"/><path fill="#8b8c7f" d="M-13.5 158.6l33.8-32.7 11.2 11.5-33.8 32.7z"/><path fill="#416272" d="M-16 122.1l67.2-20-22.9 20.3-24.7 3.3z"/><path fill="#c3bb9d" d="M225 40h31v11h-31z"/><path fill="#1d3941" d="M260 87l-17 5-18-10z"/><path fill="#8c9a94" d="M92.8 52.9l8.3 32.3-12.8 3.5 24.6-27.8z"/><path fill="#3c4441" d="M169 74V11h32z"/><path fill="#33151e" d="M157 157l61-19-19-8z"/><path fill="#bb0014" d="M155 154l-10-40 61 6z"/><path fill="#42628e" d="M192 0h58v29h-58z"/><path fill="#979588" d="M208 161h48v5h-48z"/><path fill="#283022" d="M81 95h17v20H81z"/><path fill="#7a92a6" d="M20 43l-7-9-29 4z"/><path fill="#16281e" d="M18.6 129.5l8.6-9.1-43.2 12.9.5 15.8z"/><path fill="#59604f" d="M216.4 102.1L202.9 122l44.9-5.1 1.9-14.8z"/><path fill="#38443c" d="M169.9 66.7l-10.7 8.9 20.3-36.8 26.4-1.7z"/><ellipse cx="15" cy="91" fill="#a8a599" rx="32" ry="2"/><path fill="#17170c" d="M80 51h48v5H80z"/><path fill="#3d2814" d="M148.3 24l5 11-15.6 7-5-11z"/><path fill="#8f7c85" d="M79 48l-6 92-24-99z"/><path fill="#fd753a" d="M133.1 113.9l-18.7 1.3-4-16.7 42.5-27.2z"/><path fill="#22251c" d="M242.2 58.5l-11.5-11.6 8.3-2.4-16.4 12.9z"/><path fill="#b77664" d="M192 95l6-9-22-8z"/><path fill="#6f7978" d="M214 59h42v6h-42z"/><path fill="#1c262e" d="M128 3h8v33h-8z"/><ellipse cx="42" fill="#4b76a4" rx="60" ry="5"/><path fill="#e3e7cd" d="M253 0l-3 41 16 25z"/><path fill="#bccfca" d="M121.9 126.1l-2-.5 2.2-7.7 2 .5z"/><path fill="#353129" d="M151 61l35 3 1 15z"/><ellipse cx="58" cy="108" fill="#bec9c1" rx="3" ry="18"/><path fill="#2e383a" d="M151.9 12.1l-29.2-3.5L157 3.7l-.8 2z"/><path fill="#16150c" d="M224 66h25v5h-25z"/><path fill="#a3b4b9" d="M191 38l2-7 16-3z"/><path fill="#2d3524" d="M65.7 41.8l14.2 1.7-5.2-9.6-1.5 2.7z"/><path fill="#15080e" d="M83 123h30v3H83z"/><ellipse cx="61" cy="163" fill="#4c433e" rx="100" ry="1"/><path fill="#9daab3" d="M168 1l42 3-29 6z"/><path fill="#4d4d44" d="M131 34h11v22h-11z"/></g></g></svg>