<svg xmlns="http://www.w3.org/2000/svg" viewBox="0 0 1800 1200"><defs/><filter id="a"><feGaussianBlur stdDeviation="12"/></filter><rect width="100%" height="100%" fill="#484734"/><g filter="url(#a)"><g fill-opacity=".5" transform="translate(3.5 3.5) scale(7.03125)"><circle r="1" fill="#f2ffff" transform="matrix(7.24355 50.26675 -252.39296 36.37038 116.5 23.5)"/><ellipse cx="107" cy="144" fill="#73a4ce" rx="255" ry="35"/><circle r="1" fill="#fff" transform="rotate(178.7 11.8 63.5) scale(9.6115 94.2816)"/><ellipse cx="85" cy="20" fill="#aac4f3" rx="250" ry="37"/><circle r="1" fill="#2c2c27" transform="rotate(173 61.2 39.5) scale(67.18743 13.8998)"/><circle r="1" fill="#b7c0d2" transform="matrix(49.03362 -11.2302 4.90266 21.40615 26.7 67.6)"/><circle r="1" fill="#b9c5d2" transform="matrix(31.6701 5.98413 -5.44634 28.82395 212.7 32.3)"/><ellipse cx="113" cy="86" fill="#4f4c36" rx="45" ry="29"/><path fill="#f4e4d2" d="M16 76h17v94H16z"/><circle r="1" fill="#3d5f72" transform="matrix(.98125 -27.27263 119.98446 4.31695 157.4 162.4)"/><path fill="#333a37" d="M175.8 48.6l55 24.9 4.5 28.4L146.7 71z"/><ellipse cx="244" cy="112" fill="#b6855c" rx="211" ry="2"/><circle r="1" fill="#aebdce" transform="matrix(-24.1333 15.524 -12.8783 -20.02034 152.8 35.7)"/><circle cx="52" cy="25" r="50" fill="#98abc5"/><path fill="#ffffeb" d="M51 99h10v5H51z"/><path fill="#bbc3cd" d="M234.9 55.1l-37.3 7.3L260.4-16l7.1 50.7z"/><ellipse cx="239" cy="70" fill="#192839" rx="42" ry="12"/><path fill="#cdccc7" d="M36 76l-52-66 43 114z"/><path fill="#505147" d="M26 95l70-36 86 26z"/><path fill="#442b08" d="M40 110h69v2H40z"/><path fill="#c8a98f" d="M147 100h15v5h-15z"/><path fill="#585446" d="M170.5 50.1l-25.7 73.1 24.3-51.1 47.9-4.3z"/><path fill="#c0cbd6" d="M170.2 55.3l-42.6-.5 17.1 5.6 20.9-3z"/><circle r="1" fill="#fffdda" transform="rotate(75.8 -34.6 35.2) scale(214.5586 1)"/><circle r="1" fill="#b3b1ad" transform="matrix(.02386 -.99972 27.07367 .64615 239.4 113.2)"/><circle r="1" fill="#8aa3c6" transform="matrix(-1.2636 -19.66447 141.80859 -9.1124 48.5 0)"/><path fill="#1c2220" d="M59 95h28v9H59z"/><circle r="1" fill="#acb9c9" transform="matrix(13.387 16.8902 -28.72189 22.76469 76.9 44.2)"/><path fill="#9cabbf" d="M14 68L-6 2l53 60z"/><path fill="#4f728c" d="M34 118h60v41H34z"/><ellipse cy="89" fill="#3f381a" rx="12" ry="3"/><ellipse cx="96" cy="92" fill="#62602c" rx="45" ry="5"/><ellipse cx="211" cy="31" fill="#acbac8" rx="35" ry="29"/><ellipse cx="233" cy="117" fill="#5c6766" rx="71" ry="4"/><path fill="#373f41" d="M78.5 81.9L82.7 70l-37 13.7 19.5-.2z"/><path fill="#585447" d="M168 52h20v18h-20z"/><path fill="#465a6c" d="M14 99h2v67h-2z"/><path fill="#28333a" d="M261.9 56.8L139 80.4l64.3 4.9 42.8-38.2z"/><path fill="#f0d3b4" d="M156 99h5v5h-5z"/><path fill="#23261e" d="M172 103h49v6h-49z"/><path fill="#383827" d="M127 96h30v13h-30z"/><path fill="#657f8b" d="M193 119h34v33h-34z"/><circle r="1" fill="#5e5229" transform="matrix(.07586 -2.41375 46.15307 1.45042 145.3 109.4)"/><circle r="1" fill="#406271" transform="matrix(-71.14276 -6.65304 1.73598 -18.5633 131.5 169)"/><path fill="#a9b6c6" d="M182 17L30 38l4 49z"/><ellipse cx="120" cy="67" fill="#515043" rx="28" ry="11"/><path fill="#fff" d="M32 66h1v81h-1z"/><path fill="#446a87" d="M0 120h15v50H0z"/><ellipse cx="153" cy="14" fill="#9db1c9" rx="88" ry="15"/><path fill="#eedfcb" d="M47 99h11v2H47z"/><path fill="#575629" d="M215 82l-2 23-51-15z"/><path fill="#272b24" d="M97.8 96.7l6.4-7.7 10 8.3-6.4 7.7z"/><path fill="#b8b5b1" d="M16 110h5v58h-5z"/><path fill="#4e6f80" d="M37 165l148-31-85-19z"/><circle r="1" fill="#5b5948" transform="matrix(37.62469 -.42811 .0698 6.13364 73.9 87.6)"/><path fill="#5f7c90" d="M33 150l62-35-62-1z"/><path fill="#9f8569" d="M132 75h-17l12 4z"/><ellipse cx="62" cy="113" fill="#7c6752" rx="29" ry="2"/><path fill="#293237" d="M125.6 85.4l27-3 6.5-14L124 82.8z"/><path fill="#d8d4cc" d="M14 90h19v8H14z"/><path fill="#9b815e" d="M163.5 83.5h-7v-5h7z"/><path fill="#99907f" d="M46 121.4l-.5-.8 26.5-16 .5.8z"/><path fill="#7b756c" d="M176.6 68.6l11.6-7.1-9.3 13.1-15.2-41.3z"/><ellipse cx="100" cy="72" fill="#434842" rx="12" ry="15"/><ellipse cx="162" cy="96" fill="#1b2321" rx="15" ry="3"/><path fill="#716548" d="M10.6 81.1L10 98l-26 19.6 31.6-16z"/><path fill="#ffffeb" d="M34 164l-2 15 6-5z"/><path fill="#625d49" d="M153.1 71.3l-22.7 7.1 3-14.9 37.6-6.8z"/><circle cx="98" cy="103" r="4" fill="#6a6771"/><circle r="1" fill="#b6bec6" transform="matrix(27.61864 -8.76798 3.25011 10.23768 221.3 48)"/><path fill="#2a2e18" d="M225 97h15v9h-15z"/><circle r="1" fill="#546870" transform="rotate(178.4 125.9 78.5) scale(16.84864 39.28877)"/><path fill="#6e633b" d="M230 110l41-2V93z"/><path fill="#98a5b8" d="M5.4 80.9L-6.2 34.3l4.8-1.2 11.6 46.6z"/><path fill="#aebbc9" d="M200-16l-57 77 33-13z"/><path fill="#9c6a46" d="M0 112h16v2H0z"/><path fill="#303836" d="M205.9 74l4.1-14.4 22.1 6.4-4.1 14.4z"/><circle r="1" fill="#93795b" transform="matrix(-8.67216 .65877 -.07575 -.99713 143.1 86.2)"/><path fill="#af7a59" d="M178.9 100.9l8-.7.2 3-8 .6z"/><path fill="#656428" d="M142 94l26-7 14 7z"/><circle r="1" fill="#1b1e22" transform="rotate(65.2 -36.5 117.2) scale(4.00188 6.53812)"/><path fill="#444841" d="M185 52l-29 25 18-27z"/><path fill="#847d63" d="M46 97h12v3H46z"/><path fill="#597481" d="M210 141.6l-68.5 11.2-24.8-39.4 58 6.2z"/><path fill="#3f4645" d="M67.2 72.7L46.9 87.1l30.6-11 2.9-7.8z"/><circle r="1" fill="#766d2e" transform="matrix(-1.71721 2.72745 -6.10868 -3.84605 121.7 97.3)"/><ellipse cx="152" cy="115" fill="#6b7976" rx="75" ry="2"/><path fill="#5f612b" d="M246 99l-4-8-21 4z"/><path fill="#1c221f" d="M125 105l8-15 5 9z"/><path fill="#817e2a" d="M95.9 100l-10.1-4.4 2.3-5.5 10.1 4.3z"/><path fill="#b8957f" d="M153 100l-10 1 5-2z"/><ellipse cx="244" cy="111" fill="#867565" rx="38" ry="2"/><path fill="#b7c0ca" d="M271 35.6l-54 26.3 5.2-18.8-2.2-14.6z"/><path fill="#a1adbd" d="M24 26l-7 62-8-36z"/><path fill="#58513c" d="M16.6 105.4l-1.8-9.2-29.9-24.6 29.9 42.6z"/><path fill="#f0d6bd" d="M57.1 104.2l-5.9-3.8 1.7-2.6 5.9 3.8z"/><path fill="#333934" d="M208.6 77.5l-1.2 35.5L197 57.8l-5.3-2.3z"/><path fill="#b0bbc7" d="M118 43l36 3-50 12z"/><ellipse cx="253" cy="113" fill="#bcb7b0" rx="32" ry="1"/><path fill="#313530" d="M171.7 98.1l-10.9 7 4.7-14.5-49.4-31.8z"/></g></g></svg>