<svg xmlns="http://www.w3.org/2000/svg" viewBox="0 0 1800 1200"><defs/><filter id="a"><feGaussianBlur stdDeviation="12"/></filter><rect width="100%" height="100%" fill="#5a6330"/><g filter="url(#a)"><g fill-opacity=".5" transform="translate(3.5 3.5) scale(7.03125)"><circle r="1" fill="#f7ffff" transform="matrix(4.08363 -37.07562 232.64436 25.62419 119.5 19)"/><circle r="1" fill="#e0d6dc" transform="matrix(3.79687 -36.10985 253.60194 26.66565 142.4 152.7)"/><circle r="1" fill="#cfffff" transform="matrix(-92.06488 -11.61589 4.40057 -34.87792 30.4 10.8)"/><circle r="1" fill="#b8efff" transform="rotate(-168 108 -2.4) scale(64.81974 42.79537)"/><circle r="1" fill="#fffbf2" transform="rotate(30.3 -156.4 520.8) scale(25.5628 43.13021)"/><circle r="1" fill="#150f1b" transform="matrix(1.49867 19.93165 -72.24683 5.43227 178.9 103.8)"/><circle r="1" fill="#272d1b" transform="matrix(-15.42224 .45101 -.85928 -29.38305 139.2 45.4)"/><ellipse cx="153" fill="#7ab3ff" rx="155" ry="25"/><ellipse cx="115" cy="86" fill="#e6e3f7" rx="55" ry="3"/><path fill="#ecf3ff" d="M259 7l12 60-120-26z"/><path fill="#d8ecff" d="M103.2 9.8L98 52.4-1.2 40.2 4-2.4z"/><circle r="1" fill="#41362a" transform="matrix(47.52447 -28.74924 2.86341 4.73341 174.7 160.5)"/><circle r="1" fill="#515149" transform="rotate(-155.2 88.8 15.4) scale(20.35533 22.70613)"/><path fill="#d1b79c" d="M33 122l26-24 92 47z"/><ellipse cx="29" cy="90" fill="#2a2a19" rx="45" ry="15"/><path fill="#727a61" d="M126 12l40 13-110 77z"/><ellipse cx="203" cy="6" fill="#86baff" rx="45" ry="32"/><path fill="#648e7c" d="M-22.3 171.2l1.6-47 75 2.6-1.6 47z"/><path fill="#ffead7" d="M271 114l-54 8 33 19z"/><path fill="#d5e5ff" d="M243.5 60h-69V22h69z"/><ellipse cx="109" cy="112" fill="#847057" rx="53" ry="4"/><path fill="#818555" d="M61 51h68v35H61z"/><path fill="#070f05" d="M137 108l70-2 14-36z"/><path fill="#938b69" d="M241 89.4l13 20.1-11 7.1-13-20.1z"/><circle cx="102" r="33" fill="#8ab9ff"/><circle r="1" fill="#d7eaff" transform="matrix(58.81072 18.7494 -4.15162 13.02228 45 28.3)"/><path fill="#2e280b" d="M132 19h5v71h-5z"/><path fill="#a7a3b7" d="M180 71h10v17h-10z"/><path fill="#281710" d="M206 159l-15 7 14 19z"/><ellipse cx="102" cy="100" fill="#241d2a" rx="36" ry="7"/><circle r="1" fill="#adabb3" transform="matrix(41.90985 -3.86555 .38975 4.2256 113.6 85.2)"/><circle r="1" fill="#161d15" transform="matrix(-15.6382 -2.9266 1.07853 -5.76306 170.3 78.6)"/><path fill="#add1ff" d="M221.9 41.6l5.2-31.7-78 27.2-1.7 9.4z"/><circle r="1" fill="#7f6c53" transform="matrix(.17507 -7.07557 32.00742 .79193 140.7 125.7)"/><path fill="#49442f" d="M155.8 46.4l-34.5 17.2 8.7 31 41.9-49.3z"/><path fill="#a29488" d="M152 66.6l8 12.7-16 10-8-12.6z"/><path fill="#3d5519" d="M208 62h34v4h-34z"/><path fill="#fffaff" d="M284 1.6L244 59l-18-12.6L266-11z"/><ellipse cx="237" cy="115" fill="#01001a" rx="10" ry="3"/><path fill="#44492b" d="M132 99.9l.2-76.1 10.6-14.6 2.2-2.1z"/><path fill="#5e6e31" d="M43.8 88.4l-26.7 23.7 40.8-68.9 44.9 34.7z"/><path fill="#b9ae88" d="M111.2 68l-2.3-12.6 36-3.5-10.3-4.1z"/><ellipse cx="161" cy="140" fill="#e9c59f" rx="31" ry="4"/><circle r="1" fill="#8daa9b" transform="matrix(4.76824 23.28566 -47.24738 9.67492 64.1 159.1)"/><path fill="#c2aebe" d="M0 106h74v2H0z"/><circle r="1" fill="#77b1ff" transform="matrix(67.432 3.00104 -.6616 14.86571 190.3 0)"/><path fill="#fff" d="M74 87h52v2H74z"/><path fill="#f3d7be" d="M205.6 124.4l-15.3 2.7-21.7 4.8 38.4-1.7z"/><ellipse cx="24" cy="31" fill="#daecff" rx="89" ry="11"/><path fill="#080514" d="M34.6 97.5l14.7 14.1-4.4-18.1 19.6 8.8z"/><path fill="#e1eaff" d="M271 32.5l-91.4 20.9 18.5 10.3 54.3-10.2z"/><path fill="#181c19" d="M143.4 87.7l49.6 38-20.7.4 10.4-36.5z"/><ellipse cx="226" cy="161" fill="#dfc0a9" rx="18" ry="28"/><path fill="#677772" d="M104.5 16.7l20 11.5-3 5.1-20-11.5z"/><path fill="#43463a" d="M183.4 142.7l-7.7 26.2 2.9 13-25.7-3.7z"/><path fill="#acddff" d="M117 15l13 18-1-10z"/><path fill="#abadb6" d="M58 71h15v5H58z"/><path fill="#50655b" d="M146.8 41.9L122 11l29.4 13.6 17.9 1z"/><path fill="#070605" d="M193 141h10v7h-10z"/><path fill="#696538" d="M69.9 86.3l101.7-42.1 16.8 6.9-48.6.6z"/><path fill="#768852" d="M271 76.9l-31.9-4.6-4.6 21.7 36.5-3.3z"/><path fill="#89926d" d="M136.5 185l11.5-13.9 52-22.8-89-4.4z"/><path fill="#6d7e44" d="M243.5 75.2L153 70.1l27.3-14.5 26.3 10.7z"/><path fill="#b9dcff" d="M97.1 51L16.9 31.5l97.4 18.8 4.1 2.9z"/><ellipse cx="77" cy="117" fill="#d5c4ae" rx="34" ry="4"/><path fill="#1f2517" d="M14 71h14v35H14z"/><path fill="#8d7f69" d="M132 93h4v38h-4z"/><path fill="#819256" d="M4 41l37 21-31-3z"/><path fill="#aaceff" d="M3-31L96.9-5.7 87 31-6.8 5.8z"/><path fill="#948f6a" d="M271 113.2l-52.3-4.8 4.9 76.6-4.1-83.4z"/><path fill="#abd0ff" d="M175 17l-34 34 60-26z"/><path fill="#091500" d="M223.7 78.3l9.7 39.2 1.3-17.2-17.9-11z"/><path fill="#aab7ae" d="M164 85h24v3h-24z"/><ellipse cy="134" fill="#788467" rx="57" ry="12"/><ellipse cx="89" cy="110" fill="#716951" rx="63" ry="3"/><path fill="#c6b7ac" d="M69 100l-19 24-2-21z"/><path fill="#d4d7db" d="M113 31l12 17-25-16z"/><path fill="#ac9d81" d="M134.8 120.3l-7.8-2.5-11.9-3.3-66.4 18.3z"/><path fill="#2a2a27" d="M156 87l8 35-59-30z"/><path fill="#51632a" d="M58.4 89.2l10.1-25.4L45.2 52l33.9 35.7z"/><path fill="#cabaaf" d="M169.1 185l14.5-26.6-9.7-.8 23.1.5z"/><path fill="#fcfaff" d="M12.5 107.3v3l-23 .4v-3z"/><path fill="#cbba98" d="M174.5 141.2l-105.8-2 15-13.6 67.3 8.5z"/><path fill="#111110" d="M33 95h37v7H33z"/><ellipse cx="244" cy="147" fill="#ebd4c2" rx="15" ry="30"/><path fill="#c1b09e" d="M238 142l-42 43 23-47z"/><path fill="#655943" d="M172.6 134.1l-67.5-8.3.3-2 67.5 8.4z"/><path fill="#bfddff" d="M50.7 49.2l36.7-23.3-17.5 9.9-42.3 7.5z"/><path fill="#8b8d87" d="M127 75h2v34h-2z"/><path fill="#7c8137" d="M27 94l35-25-25 3z"/><ellipse cx="103" cy="100" fill="#cfcac3" rx="1" ry="8"/><ellipse cx="164" cy="69" fill="#a49899" rx="8" ry="3"/><path fill="#423c1e" d="M133 63l-22 5 25 20z"/><path fill="#d7e6ff" d="M186 45h70v16h-70z"/><path fill="#736947" d="M221.1 135.4l10.4-43.7-31.7 83.9-4.9-24.2z"/><path fill="#b4a88b" d="M271 117.2l-61.8 5.1 43.2-5.3-21.3-14.4z"/><path fill="#d9c4b1" d="M14 113h36v4H14z"/><path fill="#56542b" d="M152.8 78L135 54.3l12.5-21.7-2 15.6z"/><path fill="#667c3f" d="M183.9 64.4l7.2 9.1L271 67l-40-6.6z"/><path fill="#455829" d="M24.3 43.3L84.6 60-16 68.8l57 4.7z"/></g></g></svg>