<svg xmlns="http://www.w3.org/2000/svg" viewBox="0 0 1160 774"><defs/><filter id="a"><feGaussianBlur stdDeviation="12"/></filter><rect width="100%" height="100%" fill="#3d3650"/><g filter="url(#a)"><g fill-opacity=".5" transform="translate(2.3 2.3) scale(4.53125)"><circle r="1" fill="#ffdffd" transform="matrix(-6.96935 -65.39318 115.68468 -12.32922 135 73.1)"/><circle r="1" fill="#ffdbe2" transform="matrix(53.80002 -27.46245 18.704 36.64187 110.1 70)"/><path fill="#6f577e" d="M56-6l-72 82 79 73z"/><circle r="1" fill="#765a81" transform="matrix(-73.2963 67.04517 -26.47098 -28.93907 243.7 68)"/><path fill="#e9ccd2" d="M101.6 133.1l-64.4 6.3 66.2-115.3-31.3 114.2z"/><ellipse cx="58" cy="160" fill="#261f12" rx="255" ry="24"/><path fill="#785986" d="M56.5-27l164-3 1 57-164 3z"/><circle r="1" fill="#3f3b5b" transform="matrix(-32.01664 10.04672 -15.6106 -49.74748 8 85.3)"/><circle r="1" fill="#635c89" transform="matrix(79.37738 -10.29824 1.9176 14.78065 194.3 121.7)"/><circle r="1" fill="#c99cb6" transform="matrix(6.75797 36.46276 -40.51558 7.50912 167.8 54.6)"/><path fill="#f8e1dd" d="M116.4 85.2l-45 1.6-1.8-50 45-1.6z"/><path fill="#b388a8" d="M70 18L32 34l32 74z"/><path fill="#a592b5" d="M229 135.7l8.7-50.3-11.8 19.8-6.1 34.3z"/><path fill="#7c5d77" d="M217 17h34v83h-34z"/><path fill="#886682" d="M72 150.9l-16.9-34.6 76.5 34.5-45.5-5.7z"/><path fill="#b596b7" d="M93.9 89.8l-63.4 40.6 35.6 6.4 53.1 2.3z"/><ellipse cx="120" cy="6" fill="#56496e" rx="58" ry="10"/><path fill="#6b577d" d="M24 17h22v119H24z"/><circle r="1" fill="#a486ae" transform="rotate(160.5 70 63) scale(46.2896 22.49466)"/><circle r="1" fill="#1e1e20" transform="matrix(95.47525 -27.37709 5.25194 18.31569 255.2 151.7)"/><path fill="#a87e99" d="M214 27l-44 66 65-44z"/><circle r="1" fill="#d9bdc9" transform="matrix(7.57712 11.848 -34.05467 21.77887 139.9 58)"/><path fill="#986766" d="M91.3 169.1L54.4 166l.3-3 36.9 3.2z"/><ellipse cx="121" cy="30" fill="#b591b3" rx="53" ry="8"/><path fill="#574b6f" d="M46.6 126.7l12.7-7.7-36.1-16.1-11.1-78.2z"/><path fill="#564764" d="M105.2 139.3l102.2-18.5-86.5 34.5 28.8 4.6z"/><path fill="#1d1e20" d="M0 136h46v34H0z"/><path fill="#d0a7bd" d="M104 31L52 63l5-28z"/><path fill="#ceb4ca" d="M102.7 106.1l4.3 30.4 35.8-71.7-90 35.4z"/><circle r="1" fill="#725c84" transform="matrix(-48.06266 12.75823 -2.02327 -7.62203 77.7 19.7)"/><circle r="1" fill="#302b3e" transform="matrix(6.72956 -19.49722 44.47534 15.35087 245.5 0)"/><path fill="#836588" d="M210.3 8.7l28.4 23.5-52-.4-17.6-26.1z"/><path fill="#e5cbcf" d="M48.5 137.3l25.8-61.2 17-44.4-30.5 103.2z"/><path fill="#4b3942" d="M58 137l54 1-64 17z"/><path fill="#73628b" d="M193 87h32v37h-32z"/><circle r="1" fill="#323048" transform="matrix(2.72714 52.03694 -11.15602 .58466 0 84)"/><ellipse cx="157" cy="148" fill="#3a303a" rx="68" ry="11"/><circle r="1" fill="#f6e9e3" transform="matrix(-12.14117 20.08443 -6.61022 -3.99592 91 66.4)"/><path fill="#927da0" d="M228 140l-5-45 18-14z"/><path fill="#362e44" d="M14.5 18l-25.6 23.7-4.9-53 129.1 4.5z"/><circle r="1" fill="#42405f" transform="matrix(-4.74815 -7.7878 23.49108 -14.32229 252.2 113.7)"/><circle r="1" fill="#bc98b3" transform="matrix(-9.10871 -9.6228 45.62176 -43.18451 162.6 74.5)"/><circle r="1" fill="#65526e" transform="rotate(105.5 104.3 127.5) scale(52.07654 8.58917)"/><path fill="#69526c" d="M64 119l-45 5 20-9z"/><path fill="#3f4467" d="M170.1 138.1l42.4 2 15.6-10.1-17.4-6.3z"/><ellipse cx="110" cy="160" fill="#1a1c1a" rx="42" ry="4"/><path fill="#dcb2b9" d="M245.3 59l-5.6 24.3-1-.2 5.6-24.4z"/><ellipse cx="231" cy="144" fill="#1f1e21" rx="47" ry="5"/><circle r="1" fill="#4f405f" transform="matrix(28.70057 -26.26063 5.48542 5.99508 29 22.6)"/><path fill="#be97a9" d="M201.3 31.5l27.1 21-12.1 5-19.8-20.9z"/><circle r="1" fill="#836e98" transform="rotate(62.5 -10.4 195.8) scale(9.83434 47.31842)"/><path fill="#9378a1" d="M74 120h27v17H74z"/><circle r="1" fill="#d7d7f4" transform="matrix(-2.91646 -.509 .77343 -4.43157 108 133.6)"/><path fill="#a083a9" d="M62.4 59.2l.1 39.9-15.4 30 3.7-44.8z"/><path fill="#d1acbb" d="M65 38h11v40H65z"/><path fill="#7f6b95" d="M53.8 123.3l-18.7-19 2.3-35.1 11.9-9.8z"/><path fill="#b5a2c4" d="M224.4 109.2l6.2 29.4-1 .2-6.2-29.4z"/><path fill="#665981" d="M234.9 94l7.7 2-7.5 30-7.7-2z"/><path fill="#e6cad1" d="M87 94l40-47-20-17z"/><path fill="#69526e" d="M213.6 8.2L271 93l-20.3-73.8-54.6 3.1z"/><path fill="#4f3c43" d="M35 162h27v6H35z"/><path fill="#816d97" d="M173.4 126.2l-60.9 12.6 7-19.1-30.3 2.1z"/><ellipse cx="144" fill="#514566" rx="87" ry="9"/><circle r="1" fill="#513f47" transform="matrix(-68.45183 -1.31434 .0192 -.99982 96.5 155)"/><path fill="#9f7b9b" d="M211 46l-33 21 23 26z"/><path fill="#2c3250" d="M222.6 145.5L271 130V12.5l-16.4 100.7z"/><path fill="#464464" d="M18.2 68.7l16.9 42.8-13.2 20.1-16-59.5z"/><path fill="#725879" d="M12.9 51l4.4 1.5 14.9-26.9L41 62.7z"/><path fill="#e4d1d6" d="M141.3 70.8l-1.7-1 25-38.6 1.8 1z"/><path fill="#503d49" d="M63 138h66v11H63z"/><path fill="#786389" d="M227.1 108.1l11.3-50.2L201 99l23.3 26.5z"/><circle r="1" fill="#c4a4ba" transform="matrix(1.9673 -13.65216 .98978 .14263 229.2 104.3)"/><path fill="#fef3f0" d="M56.9 124.2l-4.9 12-.9-.4 4.9-12z"/><circle r="1" fill="#d8cede" transform="matrix(.9701 .24273 -4.89487 19.56292 110.3 109.4)"/><path fill="#a380a5" d="M170.3 25.9l27.9 18.4L184 14.1l-60.3 9.8z"/><path fill="#2a2637" d="M-16 33L29.3-2.8-16-16v65.4z"/><path fill="#6c6089" d="M199 114l-29 23h-52z"/><path fill="#efe2e1" d="M70.9 82.2l5.8-4.1-11.4 31.3-5.6 10.1z"/><path fill="#9d799b" d="M57.7 41.7l-7.1 51.8-13-55.1 40.6-14.2z"/><ellipse cx="69" cy="166" fill="#7f5857" rx="17" ry="2"/><path fill="#1f2023" d="M112 154l-9-10-27 7z"/><path fill="#2e2931" d="M174 139h47v24h-47z"/><path fill="#c6a3b8" d="M69.2 103.6l-14.3 29.3 26.6-14.7 1.4-29.8z"/><path fill="#2d2832" d="M33 137h24v23H33z"/><ellipse cx="141" cy="148" fill="#49394a" rx="28" ry="3"/><path fill="#b08a98" d="M248 55l-27-6 14-1z"/><circle r="1" fill="#856892" transform="matrix(32.19724 -1.29317 .07422 1.84783 140.7 14.7)"/><path fill="#c8a6bb" d="M176.6 36.4l-13.9 11.7-49.3 49.5 68.2-42.1z"/><ellipse cx="121" cy="155" fill="#5d4653" rx="21" ry="2"/><path fill="#a992b7" d="M112.7 132.9l56.6-59.8-56.5 45.2 15.8 12.4z"/><circle r="1" fill="#282738" transform="matrix(-20.7485 2.73935 -.57514 -4.35623 242.6 5.7)"/><path fill="#9f81a6" d="M84.8 22.7l47.6 10.7 31.4-11.8-28.4-1.7z"/><path fill="#55445f" d="M232.6 19.7l-18.7-.5 37.8-6.9L271 58z"/><path fill="#66597d" d="M31.2 136.6l8.7-.7 3.4-24.8-11-59.6z"/><path fill="#ad8fa8" d="M224.1 102.8L241.7 86l-18.5 25.5 5.8-3z"/><path fill="#f4e6e3" d="M80.7 53.5l5.6-6.9 14.6-.5-11.8 36.8z"/><path fill="#43466f" d="M229 126l20-7-19 20z"/><path fill="#5d577e" d="M214.2 127.6l-71 11.4 62.6-23.9 21.1 13.1z"/><path fill="#503a3b" d="M89 165h27v4H89z"/><ellipse cx="88" cy="158" fill="#1e1f1e" rx="38" ry="3"/></g></g></svg>