<svg xmlns="http://www.w3.org/2000/svg" viewBox="0 0 2220 1249"><defs/><filter id="a"><feGaussianBlur stdDeviation="12"/></filter><rect width="100%" height="100%" fill="#2b3a55"/><g filter="url(#a)"><g fill-opacity=".5" transform="translate(4.3 4.3) scale(8.67188)"><circle r="1" fill="#bec5a9" transform="matrix(154.07952 36.96222 -20.10438 83.80646 139 54.6)"/><circle r="1" fill="#00337d" transform="rotate(72.3 -18.8 118.7) scale(16.29131 75.67287)"/><circle r="1" fill="#6fd3ff" transform="matrix(1.31663 13.19091 -36.0094 3.59422 127.2 56.1)"/><ellipse cx="22" cy="26" fill="#976211" rx="25" ry="32"/><circle r="1" fill="#001811" transform="matrix(-5.49761 9.4078 -21.73498 -12.7012 118.8 87)"/><ellipse cx="234" cy="73" fill="#00447a" rx="26" ry="16"/><path fill="#7e5715" d="M127.9-18.7l64.9 3.4-2.7 50-64.9-3.4z"/><path fill="#b2c5d4" d="M8 70h91v21H8z"/><path fill="#ffffe7" d="M123.9-8.3l-1.8 49-12-.4 1.8-49z"/><path fill="#684200" d="M86.4 55.3l26-13.8-.9-57.5H86.9z"/><ellipse cx="95" cy="140" fill="#004300" rx="102" ry="6"/><ellipse cx="228" cy="28" fill="#ffe3ca" rx="4" ry="65"/><circle r="1" fill="#ada494" transform="matrix(15.14693 -18.28315 37.8704 31.37426 207 112.1)"/><ellipse cx="195" cy="46" fill="#ffffce" rx="4" ry="36"/><ellipse cx="11" cy="124" fill="#0031bd" rx="47" ry="12"/><ellipse cx="73" cy="8" fill="#cedbec" rx="5" ry="78"/><path fill="#004fc2" d="M103.1 81.5L62.3 63.4l6-13 13.5.2z"/><circle r="1" fill="#b4c3d5" transform="matrix(21.64722 -7.85595 4.04905 11.15724 142.1 111)"/><circle r="1" fill="#f7dab5" transform="rotate(-135.7 96.6 -13.2) scale(19.67809 6.38521)"/><circle r="1" fill="#996f4b" transform="matrix(62.16594 40.52547 -16.45224 25.2377 255.2 29.9)"/><path fill="#c6e2df" d="M99.9 134.7l-4.5-15-18.1 1.3-15 3.2z"/><path fill="#00397c" d="M60 90h56v30H60z"/><path fill="#5298e0" d="M171 85.9l-49.5-8 55-9.1L241 51.5z"/><circle r="1" fill="#eee1dd" transform="matrix(-3.64319 -.42138 5.3913 -46.61255 230.1 28.9)"/><ellipse cx="129" cy="53" fill="#52a8ff" rx="24" ry="15"/><path fill="#fff" d="M85.3 58.4l4.6-3.9 18.2-3.4-9.5 18.1z"/><ellipse cx="50" cy="77" fill="#d0d6cb" rx="4" ry="44"/><path fill="#005653" d="M229 75l4-30 38 43z"/><circle r="1" fill="#b5a177" transform="matrix(-10.95277 4.85047 -11.39696 -25.7353 20 73.4)"/><path fill="#000c4e" d="M-16 114.1l65.4 2.1-33.1-23.8L3 69.1z"/><path fill="#00438f" d="M180.9 117l-19.3 23-8.5-7 19.3-23z"/><ellipse cx="159" fill="#384200" rx="12" ry="30"/><circle r="1" fill="#003f50" transform="matrix(-26.4036 -9.45364 4.39522 -12.27565 125.8 85)"/><path fill="#f4f4e4" d="M234.3 124l.4-26h7l-.4 26z"/><ellipse cx="255" cy="122" fill="#1c5e94" rx="12" ry="31"/><circle r="1" fill="#000d6c" transform="matrix(.72216 14.25557 -6.50243 .3294 216.6 72.8)"/><path fill="#3c3000" d="M91 31h17v18H91z"/><path fill="#ace5ff" d="M111 56h49v10h-49z"/><path fill="#004700" d="M-10.7 159l136.2-13-53.3-16.7-11.5-5.1z"/><circle cx="75" cy="77" r="7" fill="#fff"/><path fill="#e9b03f" d="M160.2 70l.7-13 19 1-.8 13z"/><circle cx="218" cy="48" r="9" fill="#e8b79b"/><path fill="#286fbb" d="M88 83l-10 39-23-37z"/><circle r="1" fill="#706457" transform="matrix(-.28589 -5.45505 39.47281 -2.06868 209.9 138.2)"/><path fill="#a48b6d" d="M143-12l10 60-30-20z"/><circle cx="32" cy="36" r="15" fill="#5b4f19"/><circle r="1" fill="#7b9ac4" transform="matrix(-.05 5.92852 -31.5232 -.2659 230.7 92.2)"/><path fill="#c5bd91" d="M182 102h21v31h-21z"/><circle r="1" fill="#56a3f7" transform="rotate(-154.9 28 24) scale(5.25565 12.46576)"/><ellipse cx="89" cy="105" fill="#867b66" rx="47" ry="3"/><path fill="#092a4d" d="M95 92h22v29H95z"/><path fill="#1a4880" d="M179 81h43v7h-43z"/><path fill="#404c47" d="M233.9 24.8l1.6-24.9 1.7 2.9 30.9 21.1z"/><path fill="#b7c2ce" d="M1 67l15 9-1-35z"/><ellipse cx="207" cy="73" fill="#afc2d9" rx="3" ry="27"/><circle r="1" fill="#1d7dff" transform="rotate(.2 -11821 33175) scale(17.96772 6.41828)"/><path fill="#3f5c7d" d="M87 69l70-7-28 16z"/><ellipse cx="165" cy="35" fill="#ffffe6" rx="5" ry="7"/><ellipse cx="93" cy="85" fill="#fff9d8" rx="5" ry="7"/><circle r="1" fill="#ded3ae" transform="matrix(.50629 -8.83509 3.73162 .21384 121.2 128.5)"/><ellipse cx="222" cy="19" fill="#4d3a27" rx="5" ry="15"/><path fill="#80662b" d="M193.8 64.5l-13.2-2.6 11.1-28.2-9.1 5.4z"/><circle r="1" fill="#e69e2d" transform="matrix(-9.1208 -6.2651 3.27059 -4.76135 28 91.7)"/><path fill="#c47f27" d="M245 31h11v30h-11z"/><path fill="#0b50a2" d="M104.1 55.9l2.1-2.8 9.5 1.2-15.3 15.8z"/><path fill="#00449a" d="M44 138l-60-17 92-8z"/><path fill="#f5eacc" d="M124 34l-14 10 7-53z"/><path fill="#003700" d="M0 140h177v4H0z"/><path fill="#fff" d="M88.7 124.6l4.9-3.4 5.7 8.2-4.9 3.4z"/><path fill="#9a907c" d="M46 91h12v28H46z"/><circle r="1" fill="#aa8868" transform="matrix(-76.1657 42.4136 -8.13578 -14.61011 17.7 0)"/><circle r="1" fill="#00261d" transform="matrix(-19.38938 -1.65669 .77278 -9.04438 127 90)"/><path fill="#ffe5af" d="M191 12h7v29h-7z"/><ellipse cx="60" cy="20" fill="#9e7c71" rx="11" ry="28"/><path fill="#718fb4" d="M174.2 86L153 152.3l6.7-70.1-23.9 26.3z"/><path fill="#276380" d="M126 124h26v15h-26z"/><path fill="#001a56" d="M0 101h46v16H0z"/><path fill="#46513d" d="M59 53h8v22h-8z"/><ellipse cx="236" cy="101" fill="#724547" rx="28" ry="3"/><path fill="#719ec9" d="M130 82.4l-9-13.2 54.8 11.3 13.6-16.1z"/><path fill="#8f7162" d="M87.2 48.9L107.1.3 77.4-14.2l.6 64.6z"/><path fill="#005290" d="M83.1 50.9L82.7 73l58.8 9.7-74.8-27.5z"/><path fill="#003347" d="M233.3 50.9L271 75.5l-37 5 30.8 10z"/><ellipse cx="74" cy="10" fill="#ecd9bd" rx="4" ry="31"/><ellipse cx="201" cy="49" fill="#2f4a69" rx="2" ry="48"/><path fill="#00516d" d="M156.6 87.6l4 13 9.7-17.5-62.2-4.1z"/><circle r="1" fill="#5b7b86" transform="matrix(-16.67108 3.23454 -.82422 -4.24812 30.5 74.5)"/><path fill="#7b7854" d="M183 116h53v6h-53z"/><path fill="#2b3a00" d="M157 37l-7-3 14-18z"/><circle r="1" fill="#7c8d97" transform="matrix(-4.45245 9.68033 -21.457 -9.86912 252.2 0)"/><path fill="#fffffc" d="M88 53h14v10H88z"/><path fill="#66361d" d="M233 43h13v10h-13z"/><path fill="#276db5" d="M171 103.3l10.3 14.8-12.3 8.6-10.3-14.8z"/><ellipse cx="240" cy="116" fill="#f6ffff" rx="4" ry="6"/><path fill="#002052" d="M-16 89L9.5 70l.8 21.9-26.3 45.2z"/><path fill="#b8b099" d="M239 104l-77-4 34 20z"/><path fill="#c4c0ae" d="M126 103h18v12h-18z"/><path fill="#146d9e" d="M113 97l-12-6-7-28z"/><path fill="#698ab4" d="M142.6 44.5l8.9 5.2 5.8 11.8 36-11.3z"/><path fill="#60969d" d="M65.9 119.9l4.3 10 29.1 6.2L78.2 118z"/></g></g></svg>