<svg xmlns="http://www.w3.org/2000/svg" viewBox="0 0 2688 1344"><defs/><filter id="a"><feGaussianBlur stdDeviation="12"/></filter><rect width="100%" height="100%" fill="#404446"/><g filter="url(#a)"><g fill-opacity=".5" transform="matrix(10.5 0 0 10.5 5.3 5.3)"><circle cx="132" cy="64" r="153" fill="#fff"/><circle cx="129" cy="59" r="154" fill="#ffffed"/><circle r="1" fill="#ffa47f" transform="matrix(-77.05635 14.78333 -9.22509 -48.08469 206.4 60.5)"/><ellipse cx="163" cy="105" fill="#ffede7" rx="158" ry="24"/><circle r="1" fill="#ff8066" transform="matrix(-36.36404 22.72855 -10.45824 -16.73243 195.4 47.3)"/><circle r="1" fill="#e4e7ed" transform="matrix(86.5551 -61.0579 37.72558 53.47942 67 38.4)"/><path fill="#b43b2e" d="M17 119h33v5H17z"/><circle r="1" fill="#fdd0bb" transform="rotate(-50.9 95.8 -163.3) scale(40.82363 32.70231)"/><path fill="#ffcbb3" d="M206.6 106l25.7-145.7 55.1 9.7-25.7 145.7z"/><circle r="1" fill="#d6dfe1" transform="rotate(82.3 -3.3 83.1) scale(92.52665 44.10565)"/><circle r="1" fill="#ffceb5" transform="matrix(-74.26861 9.52384 -2.85275 -22.24623 202 89.9)"/><path fill="#f37561" d="M223.7 18.3l-46.9 53.8 37.8-13.9-8.3-52.1z"/><circle r="1" fill="#fe9f82" transform="matrix(-7.05984 -8.1789 21.41385 -18.48394 150.8 67.2)"/><ellipse cx="247" cy="117" fill="#fff1e0" rx="129" ry="8"/><ellipse cx="17" cy="96" fill="#d5ddde" rx="112" ry="25"/><path fill="#ee6b5c" d="M163 54h57v8h-57z"/><path fill="#fac3ab" d="M162.8 94.6l-27.8-76-9.2 44.8 80.5 16.4z"/><ellipse cx="201" cy="5" fill="#99a7ae" rx="58" ry="2"/><path fill="#fff" d="M193 2h63v2h-63z"/><circle r="1" fill="#820000" transform="matrix(7.12441 .39832 -.05582 .99844 41.5 122.6)"/><ellipse cx="222" cy="40" fill="#f9af94" rx="60" ry="10"/><path fill="#fff0e2" d="M128 100h31v28h-31z"/><path fill="#fff" d="M149 2h46v3h-46z"/><path fill="#9accdd" d="M173 125h83v2h-83z"/><path fill="#f9efeb" d="M222 0l-26 8h42z"/><path fill="#f78a70" d="M200 9h21v22h-21z"/><circle r="1" fill="#fcaf95" transform="matrix(.32945 -29.99718 9.19978 .10104 255 66.7)"/><path fill="#fefdf7" d="M100 13h12v13h-12z"/><path fill="#9f9d99" d="M192 5h32v2h-32z"/><path fill="#fff" d="M160 127h96v1h-96z"/><circle r="1" fill="#f3d2c1" transform="matrix(4.52737 12.47552 -27.6527 10.03517 158.4 22.6)"/><ellipse cx="195" cy="7" fill="#faffff" rx="59" ry="1"/><ellipse cx="28" cy="122" fill="#ff4e1e" rx="8" ry="2"/><ellipse cx="37" cy="123" fill="#9b0000" rx="8" ry="1"/><ellipse cx="8" cy="124" fill="#d9dedf" rx="16" ry="187"/><path fill="#f78c70" d="M136 80l15-14-16-1z"/><ellipse cx="222" cy="8" fill="#fff" rx="73" ry="1"/><path fill="#ffdac8" d="M261.6 21.9l-35.5 4L271-3.4 249.8.4z"/><ellipse cx="120" cy="97" fill="#d8e0e2" rx="8" ry="214"/><path fill="#ffe4d5" d="M143 106h113v17H143z"/><path fill="#fad0bc" d="M209.3 63.2l-53.9 43.4 60.7 8.2 6.8-11.3z"/><ellipse cx="171" cy="5" fill="#848987" rx="20" ry="1"/><path fill="#fcfdf5" d="M75.5 105l1.3-6.9-6.5-6.1-5.1 20.7z"/><path fill="#fbb398" d="M182 84l-19-18 1 27z"/><ellipse cx="218" fill="#fbb094" rx="19" ry="2"/><path fill="#d5dddf" d="M47 111h79v17H47z"/><path fill="#efb298" d="M184.8 40l4.5-31.7 11.9 1.7-4.5 31.7z"/><path fill="#d65755" d="M204 56l9-5 6 7z"/><path fill="#fef5ec" d="M127 0h2v116h-2z"/><circle r="1" fill="#f2d3c1" transform="matrix(6.51621 45.21937 -10.38722 1.49682 140.6 16.7)"/><path fill="#a30000" d="M32 121h16v2H32z"/><path fill="#fbb297" d="M217 23h6v58h-6z"/><path fill="#f7a186" d="M203.7 63.5l21.5 3.5-56.9-25.1 62.6-16.3z"/><path fill="#d8dddd" d="M-15 56l107 70-53-7z"/><path fill="#fad5c3" d="M229 56h12v48h-12z"/><path fill="#fec4aa" d="M161.3 79.1l-4-8.9-29.9 18 8.7 6.3z"/><path fill="#eab69d" d="M174.2 37.7l-10.9-4.6-12.6 16.8 37.2 1.9z"/><ellipse cx="213" cy="23" fill="#e05b57" rx="6" ry="3"/><path fill="#f6b196" d="M246 12l-28-1V8l28 1z"/><ellipse cx="208" cy="124" fill="#fff" rx="48" ry="1"/><path fill="#91a1a0" d="M10 119h26v2H10z"/><ellipse cx="221" cy="2" fill="#fff" rx="72" ry="1"/><ellipse cx="34" cy="127" fill="#dee3e8" rx="61" ry="2"/><path fill="#f37865" d="M177 66l19-4-30-12z"/><path fill="#fc9e82" d="M157.4 52.1l38.1 22.6 12.9-15.1-39.9 17z"/><path fill="#fff" d="M148.5 2.5h105v1h-105z"/><path fill="#fdebde" d="M256.7 128.7l-17-19.6 13.6-11.8 17 19.6z"/><path fill="#f3bfa7" d="M200.8 108.5l51.9-14.9.5 2-51.9 14.8z"/><path fill="#f7866c" d="M209 35h6v17h-6z"/><path fill="#eec7b3" d="M141 51l7-33 45 12z"/><circle cx="25" cy="54" r="60" fill="#daddde"/><ellipse cx="200" cy="126" fill="#a8c6ce" rx="39" ry="1"/><path fill="#edb49a" d="M206.4 16l-56.5 49.4-21.9 6.5 1.2-4.5z"/><path fill="#fbd9c6" d="M142.7 97.8l16.9-20.9-4.2 6.9 31.5 32.4z"/><path fill="#fcc2aa" d="M224.8 42.2l17.1 23.1 8 37.9-1.8-67.3z"/><path fill="#fceee2" d="M225 106l31 17h-57z"/><path fill="#fff0e6" d="M138 109l-13 19 59 15z"/><path fill="#f2e1d7" d="M222.4-5.8l-20.7-4-5.3 22.7L213.3-16z"/><circle cx="170" cy="4" r="1" fill="#6d716d"/><circle cx="193" cy="62" r="3" fill="#d65456"/><path fill="#d8dddd" d="M67.3 133.3L-16-1.2l22.2 131 16.7-21.2z"/><ellipse cx="20" cy="124" fill="#b6b4b6" rx="25" ry="1"/><path fill="#ffab8e" d="M217 12h10v7h-10z"/><path fill="#d9dddd" d="M110 0h17v128h-17z"/><path fill="#fbc4ad" d="M215.9 61l-8.1-.4-30.2 20 47.1 6.8z"/><circle cx="43" cy="122" r="2" fill="#5e0000"/><path fill="#f5b293" d="M20.1 126.2L12 122l18.8-.9-14.5 4z"/><path fill="#f4d7c8" d="M149.4-16l-21.6 55.4 1.2 13-1.1 26.7z"/><ellipse cx="201" cy="13" fill="#efbea5" rx="7" ry="5"/><path fill="#ee7260" d="M210.3 28.2l-5.9 3.8-2.7-4.2 5.9-3.8z"/><path fill="#fcceb8" d="M259.2 3.5l-5.9 5-29.8 8.8 15.8 15.9z"/><path fill="#facfba" d="M187.5 112l4.9-38.9-21 41.9 37.4-2z"/><path fill="#f9a88d" d="M253 71h3v23h-3z"/><path fill="#f3ddd0" d="M127.9-.6l21-1.8 1.2 15-21 1.8z"/><path fill="#f6c1a8" d="M195 100h35v4h-35z"/><path fill="#ffe3d4" d="M128 90.4l1.1 29.9 33.4-44.4-12.6 28.8z"/><circle cx="143" cy="70" r="4" fill="#f3826a"/><path fill="#fdad92" d="M133.2 64.8L146.3 87l14.1-23.4-33 17.1z"/><path fill="#f0dbd1" d="M170 12.3L165.3-.9l5.4 29L176-2.8z"/><path fill="#fefffd" d="M225 126l46 1-20 16z"/></g></g></svg>