<svg xmlns="http://www.w3.org/2000/svg" viewBox="0 0 1355 903"><defs/><filter id="a"><feGaussianBlur stdDeviation="12"/></filter><rect width="100%" height="100%" fill="#323c57"/><g filter="url(#a)"><g fill-opacity=".5" transform="translate(2.6 2.6) scale(5.29297)"><circle r="1" fill="#fff" transform="matrix(-34.88937 7.47963 -17.69503 -82.53993 34.1 27.8)"/><circle r="1" fill="#ffffed" transform="matrix(-8.7416 26.1259 -88.69856 -29.67812 185 54.8)"/><circle r="1" fill="#c7c9ae" transform="matrix(-78.29274 36.76815 -8.79457 -18.72682 218.4 40.7)"/><circle r="1" fill="#fff" transform="matrix(26.4177 -6.64622 14.6605 58.27322 32.6 6.8)"/><circle r="1" fill="#fff" transform="matrix(-4.76304 13.35297 -49.29313 -17.58298 145.2 35.4)"/><path fill="#6d6e59" d="M121 109l150-7-16-91z"/><circle r="1" fill="#655438" transform="matrix(84.57265 -56.95879 19.91117 29.56419 59 110.5)"/><ellipse cx="201" cy="147" fill="#3c3112" rx="168" ry="40"/><circle r="1" fill="#392a08" transform="rotate(104.6 34.2 43) scale(38.76755 19.32971)"/><circle cx="121" cy="67" r="21" fill="#00001c"/><path fill="#f4fff8" d="M103.5 54.1l17.9-9.6L111 7.6 88.7 67.9z"/><path fill="#fff" d="M187.7 39l73-37.2 3.6 7.2-73 37.2z"/><circle r="1" fill="#c1c4c0" transform="rotate(65.1 22.4 170.4) scale(33.12701 20.46038)"/><circle r="1" fill="#0f2f00" transform="rotate(-87.4 91 -87.5) scale(15.09682 61.86098)"/><circle r="1" fill="#b0a380" transform="rotate(-153.6 14.6 34.5) scale(34.36828 27.43694)"/><circle r="1" fill="#9ea399" transform="matrix(-13.06556 2.7025 -20.88295 -100.96125 0 150.5)"/><ellipse cx="69" cy="110" fill="#786a61" rx="41" ry="28"/><path fill="#dae9e8" d="M41.1 70l30.3-58.1L52.6-11-16 3.1z"/><ellipse cx="168" cy="42" fill="#e9f4f1" rx="32" ry="19"/><circle r="1" fill="#6a6f6a" transform="matrix(-16.64898 32.3954 -27.67102 -14.22097 225.8 65.2)"/><circle r="1" fill="#171311" transform="matrix(-17.18766 25.64193 -19.73454 -13.22797 131.3 147.3)"/><ellipse cx="210" cy="111" fill="#281500" rx="31" ry="12"/><path fill="#38332e" d="M19 71L7 121 4 53z"/><ellipse cx="125" cy="98" fill="#000624" rx="16" ry="9"/><path fill="#7d5341" d="M72 40h22v78H72z"/><path fill="#0d0906" d="M65 18h36v19H65z"/><path fill="#dad6c4" d="M62 41L12 61l31 25z"/><circle r="1" fill="#525650" transform="matrix(-57.58228 -1.50785 .7416 -28.32085 233.4 169)"/><path fill="#283f2b" d="M145.1 17.7l103.8-29.4L208 33.4l-5.5-1.5z"/><path fill="#e6f2eb" d="M-4.3 60.5l3.6-41.8 9 .8-3.6 41.8z"/><path fill="#9e1d00" d="M7 35l7-4 1 18z"/><path fill="#181c1c" d="M89.8 132.8l-48.5 8.6L17.8 181l25.4-10.5z"/><circle r="1" fill="#8b9d9e" transform="matrix(-3.67101 -14.64028 11.59577 -2.9076 57.5 105.9)"/><path fill="#dcecef" d="M160 22L98 52l8-41z"/><path fill="#131711" d="M261.3 22.2l-6.6 38.9-5.2 64.5 21.5-8.2z"/><circle cx="127" cy="64" r="17" fill="#03122d"/><path fill="#e2ebeb" d="M170 28h33v18h-33z"/><path fill="#d4e1e5" d="M78.3 12.1L23.4-16l-7.1 82.4 27.8-35.8z"/><path fill="#0b0805" d="M7 128.2l-1.1-23.8 11.4 21.5 15.1-31.1z"/><path fill="#727870" d="M254.4 103.6l-97.5-16.3-13.7-9.3 77.1-5.4z"/><circle r="1" fill="#4b5459" transform="matrix(1.61528 -11.34955 27.59999 3.92806 78.3 161.8)"/><circle r="1" fill="#d3d8d4" transform="matrix(24.4595 15.91248 -10.08975 15.50922 164.1 54)"/><path fill="#614639" d="M83 139L72 16l45 102z"/><path fill="#748383" d="M30 83L14 61l-4 54z"/><circle r="1" fill="#98967e" transform="matrix(8.15 2.70205 -5.72251 17.26044 61.5 63)"/><path fill="#323f41" d="M39 115l-17 3 32-46z"/><path fill="#31393b" d="M192 53h10v9h-10z"/><path fill="#202316" d="M272.1 11.3l-47.8 20.3-.4-.9 47.8-20.3z"/><path fill="#92593c" d="M23 51l4 16 4-16z"/><path fill="#162417" d="M51-4l94-12-27 28z"/><path fill="#55524d" d="M-16 36v11l37 7z"/><path fill="#252124" d="M101 100h63v5h-63z"/><path fill="#182641" d="M140 63h6v36h-6z"/><circle r="1" fill="#ebeddf" transform="rotate(62.6 92.2 196.3) scale(2.6258 24.17839)"/><path d="M111 132h26v11h-26z"/><path fill="#535652" d="M2.1 174.7l34.8-38 30.6 4.8-48.1-21.3z"/><path fill="#53453e" d="M-10.8 47.8l24 22.6 4.1 36.8-23.2-30z"/><path fill="#272920" d="M60 49h2v45h-2z"/><path fill="#222520" d="M64 43.3l-1.4-19.8 35-15.2 8.4 10.9z"/><circle r="1" fill="#464a44" transform="matrix(-.21963 -8.12757 13.69497 -.37008 124.9 151.2)"/><path fill="#4d534b" d="M218 41l53-35-10 29z"/><path fill="#7f7e76" d="M105 107h42v4h-42z"/><path fill="#d5dfe1" d="M96.4 58.3l34.2-30.4-27.7-18.8 2.5 15.6z"/><path fill="#5a5a51" d="M172.1 82.2l-59.4-12.1 79.9 18.5-1.5 23.8z"/><circle r="1" fill="#dce9e9" transform="matrix(3.74969 18.26705 -4.35793 .89456 2.9 28.5)"/><path fill="#868b82" d="M242.7 75.9l-33.1-36.4-9.5-15.9 12.4 69.8z"/><path fill="#d8e3e4" d="M102 25h76v20h-76z"/><circle r="1" fill="#21130e" transform="matrix(.29582 10.59036 -6.00394 .1677 21.7 112.3)"/><path fill="#203628" d="M202 28L94 6 269-7z"/><circle r="1" fill="#976e59" transform="rotate(-103 12.8 7.6) scale(41.10435 1)"/><path fill="#979995" d="M1 100l-12 85 20-33z"/><path fill="#ffffef" d="M20 61l3 13h9z"/><path fill="#938ba6" d="M74 6h9v5h-9z"/><path fill="#29363c" d="M107.4 58.6l-4.2-2.8 5.4-8.4 4.2 2.8z"/><path fill="#676e6a" d="M46 108h28v29H46z"/><path fill="#5d4437" d="M114.7 152.9l-18.9-31.3L74.3 109l31.4-22.2z"/><ellipse cx="75" cy="67" fill="#776257" rx="6" ry="37"/><path fill="#686865" d="M25 51h33v1H25z"/><path fill="#cacfc7" d="M57.1 56.5l-.6-.4-26.7-5 8.5 44.8z"/><circle r="1" fill="#9ba3a0" transform="matrix(-4.14396 -3.19053 14.26818 -18.53194 180.3 79.7)"/><circle r="1" fill="#3e3e38" transform="rotate(53.8 -50.7 261.2) scale(45.72522 25.76099)"/><circle r="1" fill="#0d141d" transform="matrix(.75386 4.91803 -21.01034 3.22057 64.6 145.5)"/><circle r="1" fill="#5b5e5c" transform="matrix(-1.64587 -.77761 13.73622 -29.07358 56.1 63.6)"/><path fill="#3e3430" d="M10.6 42.7l1.9-.6 5 15.2-2 .6z"/><path fill="#d6dedc" d="M98.3 29.6l44.9 23 6.8 25.9 55.5-49.3z"/><path fill="#b9c7ca" d="M57 68l4 3-12 12z"/><path fill="#60625e" d="M4 124h29v21H4z"/><path fill="#d9d7c3" d="M214.8 28.1l30.7-21.7L271-1.4l-13.8 17z"/><path fill="#282115" d="M79 185l-52-42 7 42z"/><path fill="#82857e" d="M28.8 99.1l-10.3-.8L12 70.7l24.9 6.5z"/><path fill="#64685e" d="M251 83l-29 16 29 14z"/><ellipse cx="120" cy="116" fill="#545449" rx="18" ry="6"/><ellipse cx="66" cy="61" fill="#d3c7a7" rx="5" ry="8"/><path fill="#535955" d="M262.2 143.6l-1.4 40-31-1.2 1.4-40z"/><path fill="#ebf9f6" d="M94 54l-4 6 9-1z"/><path fill="#2f4058" d="M101.6 129.9l6.7 12-28.5.8 12.3 38.8z"/><circle r="1" fill="#e9a870" transform="rotate(-102.1 26.8 16.6) scale(15.38839 1.70774)"/><path fill="#898987" d="M135 106h42v3h-42z"/><path fill="#242016" d="M267.9 137.1L255 76.8l-.1 36.2-91.7-3.4z"/><path fill="#1e273f" d="M111.3 78.3l6.9-32.7-13 4.6-5.9 55.1z"/></g></g></svg>