<svg xmlns="http://www.w3.org/2000/svg" viewBox="0 0 1800 772"><defs/><filter id="a"><feGaussianBlur stdDeviation="12"/></filter><rect width="100%" height="100%" fill="#4d3e39"/><g filter="url(#a)"><g fill-opacity=".5" transform="translate(3.5 3.5) scale(7.03125)"><ellipse cx="167" cy="26" fill="#fff" rx="255" ry="41"/><circle r="1" fill="#ffffe4" transform="matrix(77.36151 13.91953 -7.24197 40.24918 219.7 36.4)"/><circle r="1" fill="#080a03" transform="matrix(-1.88746 35.47207 -36.47106 -1.94061 119.7 64.6)"/><ellipse cx="134" cy="53" rx="7" ry="36"/><path fill="#796f63" d="M111.7 82.3l45.4-23.9 10.4-9.8 79.9 35z"/><circle r="1" fill="#ffffda" transform="matrix(-.7756 -34.619 51.5812 -1.15563 246.9 32.5)"/><circle r="1" fill="#0b120c" transform="matrix(1.1564 18.57297 -81.57894 5.07929 48.4 103.6)"/><path d="M112.1 23.7l4.4 46.1-28.7-23.4L81 92.1z"/><circle r="1" fill="#6a8489" transform="matrix(-26.0609 25.60998 -43.54411 -44.31081 24.7 35)"/><path fill="#c6c6bf" d="M115.7 97.9l15.5-95.3-19.9 28.1 6.9 11.3z"/><path fill="#1c1c18" d="M174 124l-39-15 34-63z"/><circle r="1" fill="#777a7b" transform="matrix(94.98704 -3.56614 .18669 4.97261 146.5 77)"/><path fill="#c3c1b7" d="M95 22h5v60h-5z"/><path fill="#ffffe0" d="M145 40h4v21h-4z"/><path fill="#000100" d="M105.8 79.2l-7.4-36.7L110.1 22l7.6 26.7z"/><path fill="#96acbb" d="M54-16L29 40 204 4z"/><path fill="#fde098" d="M171 49h85v18h-85z"/><ellipse cx="46" cy="71" fill="#253540" rx="123" ry="5"/><path d="M150 52.5h6v31h-6zM128 35h16v26h-16z"/><ellipse cx="30" cy="5" fill="#6f8fa6" rx="62" ry="16"/><path fill="#9e9281" d="M56 24l31 42-103-4z"/><circle cx="255" cy="29" r="31" fill="#ffffe2"/><path fill="#a39588" d="M115 60h13v20h-13z"/><ellipse cx="156" cy="108" fill="#322e26" rx="104" ry="22"/><ellipse cx="90" cy="51" rx="3" ry="11"/><path fill="#c0c1c2" d="M216-15l-94-1 28 68z"/><ellipse cx="166" cy="83" fill="#151011" rx="4" ry="36"/><path fill="#c5c6c1" d="M116 10h10v34h-10z"/><path d="M126.5 36l-2.1 14.1 11.7-3.3-1-28.4z"/><ellipse cx="6" cy="80" fill="#65767b" rx="74" ry="4"/><path fill="#090300" d="M139.4 60.2l-39-11.4 29 12.7-2.2 26.1z"/><path d="M133.6 38.6l2.2-7.7 8.6 2.5-2.2 7.7z"/><circle r="1" fill="#644f3b" transform="matrix(-1.3263 -7.6785 28.45589 -4.91519 235 85.2)"/><path fill="#acafa9" d="M105 31l-61-2 14 29z"/><path fill="#818483" d="M171 66h51v13h-51z"/><path fill="#12120b" d="M115.1 95.2l-10.2-57.8 3.7-16 6.9 17.2z"/><path fill="#182935" d="M64.4 71.2l-9.5-8.1-42.3 11.8-19.5-8.3z"/><path d="M85 50h9v22h-9z"/><path fill="#988b80" d="M142 80l-1-29 12 32z"/><path d="M137 59h4v26h-4z"/><path fill="#b6aa9b" d="M101.5 75.2l1.9-2.6-9.3-50.2 2.1 32.2z"/><circle r="1" fill="#d7d7db" transform="matrix(-44.59366 28.49273 -11.028 -17.2598 222 0)"/><path fill="#bfbdba" d="M111 27l18 2-17 6z"/><path d="M38.1 104.2l-.3 9-40-1.4.4-9z"/><path fill="#12160e" d="M105.4 37.8l15.3 17.7-14.7-33 9.5 3.9z"/><path fill="#6a7172" d="M86 63.6l-1.3-4.7-22 21.5 20.2 1.9z"/><path fill="#d2bca0" d="M160.7 64.3l10.9-38.9-26 33.1-3.2-31.3z"/><path fill="#493f39" d="M203.4 111.9l67.6 7.4-139.9-24.7-99.9-.1z"/><path fill="#c8c5bc" d="M141 10l-4 18 43 26z"/><path fill="#271f19" d="M38 83h147v10H38z"/><path fill="#817d72" d="M52.6 53.1L-16 49.4l8.5 17.9L89.2 62z"/><path d="M114 63l-11-1 14-26zM88 42h7v32h-7z"/><circle cx="158" cy="76" r="4" fill="#a0a19d"/><circle r="1" fill="#8e8579" transform="matrix(2.75823 -16.76654 1.40507 .23114 124.2 67.4)"/><path d="M117.8 49l5.3 9.6-.9.5-5.3-9.7z"/><circle r="1" fill="#fcffb9" transform="rotate(-156.5 129.6 .9) scale(30.43858 10.68116)"/><path fill="#06090a" d="M130 21h7v51h-7z"/><path fill="#020100" d="M77.6 95l18-42.4.8.4-18 42.4z"/><path fill="#9aa09e" d="M69 9L-2 38l92 12z"/><path fill="#afb4b4" d="M109.4 12L126 8.5l4.6 21.5-16.6 3.5z"/><path fill="#a0a9ad" d="M108 33l-39-1 19-43z"/><path fill="#6a6969" d="M168 67h76v4h-76z"/><path d="M103 35h3v51h-3z"/><path fill="#220a06" d="M149 52l9 12-6 20z"/><path fill="#adb4b7" d="M181.7-5l-69.5 36.6 20-1.4-15.4-26.9z"/><path fill="#ead9bd" d="M166.3 31.7l44 1.6-.6 17-44-1.6z"/><path fill="#928479" d="M109 65l-2 9 5 1z"/><path fill="#aeb2b0" d="M103 21l-17-8 12 34z"/><path fill="#dcc4a6" d="M160.4 60.7l-14.2-16.9 5.4-4.5 14.2 16.9z"/><circle r="1" fill="#2f2923" transform="matrix(-57.69303 -18.0648 1.5909 -5.08084 199.7 99.7)"/><path fill="#090200" d="M83.4 60.5l.2-11h1l-.2 11z"/><path fill="#d2caba" d="M118 32h6v17h-6z"/><path fill="#0c0000" d="M144.9 64l-2.8-15.8 1-.2 2.8 15.8z"/><ellipse cx="5" cy="73" fill="#2e4854" rx="54" ry="5"/><ellipse cx="77" cy="91" fill="#0a0d0b" rx="56" ry="2"/><circle r="1" fill="#111312" transform="matrix(.35522 -3.31372 27.99298 3.00076 37.8 100.5)"/><path fill="#86847f" d="M132 69h4v12h-4z"/><path d="M110.4 24l-3 5-1.8-1 3-5z"/><path fill="#8c837a" d="M163.8 64.6l-2.6 20.9-1-.1 2.6-20.9z"/><path fill="#120c07" d="M102 134l-1 .1-11-70 1-.2z"/><path fill="#a39582" d="M50.2 47.1l20.5 20.2 15.9-3.4-9.5-18.1z"/><path fill="#000715" d="M163 58h6v16h-6z"/><path fill="#453d31" d="M0 84h67v7H0z"/><ellipse cx="255" cy="82" fill="#634f3d" rx="65" ry="6"/><circle cx="98" cy="77" r="5" fill="#6d6f6e"/><ellipse cx="188" cy="55" fill="#e3c4a7" rx="20" ry="5"/><path fill="#c8cac3" d="M136 26.8l30.4 6.4-.4 2-30.4-6.4z"/><path fill="#bcae97" d="M102 55l-5-10-4 5z"/><path fill="#51463e" d="M94.2 120.8L79.3 117l-8.7-12.6-24.9 1.3z"/><path fill="#21282a" d="M64 67l-14-4-9 7z"/><path fill="#a8afb2" d="M147-11L91 21l37 3z"/><path fill="#0d100e" d="M69 103h53v3H69z"/><path d="M129 55h3v30h-3z"/><path fill="#889aa5" d="M110.5 2.7L50.9 31.8-16 27.6 117.8-16z"/><ellipse cx="112" cy="63" fill="#0b0504" rx="2" ry="29"/><path d="M140 107h18v2h-18z"/><path fill="#9b9085" d="M135 77h3v6h-3z"/><path fill="#90908b" d="M177 74h49v4h-49z"/></g></g></svg>