<svg xmlns="http://www.w3.org/2000/svg" viewBox="0 0 1800 1013"><defs/><filter id="a"><feGaussianBlur stdDeviation="12"/></filter><rect width="100%" height="100%" fill="#3d4849"/><g filter="url(#a)"><g fill-opacity=".5" transform="translate(3.5 3.5) scale(7.03125)"><circle r="1" fill="#c6cccc" transform="matrix(24.17166 -164.1974 104.49944 15.38346 175.6 109)"/><circle r="1" fill="#c5b4b7" transform="matrix(4.23866 40.67327 -100.66032 10.49005 255 115.1)"/><circle r="1" fill="#756665" transform="matrix(-54.97331 -14.11475 5.82906 -22.7027 56.4 119.1)"/><circle r="1" fill="#507a77" transform="matrix(11.35558 34.49671 -109.2912 35.97633 162.8 15.4)"/><circle r="1" fill="#616369" transform="matrix(-16.61518 -4.35891 26.29832 -100.24325 76.9 90.7)"/><path fill="#242914" d="M-12.6 87l7.4-26 55.8 16-7.4 26z"/><ellipse cx="207" cy="142" fill="#c6bdc2" rx="20" ry="38"/><path fill="#90898c" d="M118 159L97 25l150 40z"/><path fill="#837d7a" d="M56.4 102.3l62.8-11.1-94.5 37.3-22-17.2z"/><path fill="#3b3c34" d="M40 114h37v14H40z"/><circle cx="52" cy="8" r="34" fill="#2a4241"/><path fill="#676667" d="M158.6 80.5l-23.2-10.6-37.6-10.6 37.5 28z"/><circle r="1" fill="#54544f" transform="matrix(-14.41508 15.475 -25.81335 -24.04534 52.5 57.1)"/><path fill="#4f837d" d="M82 32l20-48L271 4z"/><path fill="#383311" d="M-5 159l-9-43 48 14z"/><ellipse cx="219" cy="27" fill="#6b8e85" rx="61" ry="27"/><path fill="#ccc1ce" d="M176.8 116.2L200 159l30.6-18.3-70-4.6z"/><path fill="#4e4b4f" d="M101.2 125.2L91 133.4l-18.3-22.6 10.1-8.2z"/><path fill="#babcb9" d="M187.9 66.1l11.4 13.7 6.5-13.4 19.8-3.4z"/><path fill="#979997" d="M271 131l-24-89-45 86z"/><path fill="#a3999e" d="M131 87l-53-4 59 33z"/><path fill="#907e8a" d="M76.5 158.7l82.5-23.1-138 7.9 8.9-8.2z"/><path fill="#716473" d="M146 139h42v5h-42z"/><path fill="#b1a8aa" d="M156.2 95l24.2 6.9 5.5-8.4-31-8.6z"/><path fill="#675f66" d="M148.1 117.2l14.2.4-28.2-18.4 22.8 1z"/><ellipse cx="185" cy="46" fill="#7f8d8b" rx="34" ry="21"/><path fill="#8d8389" d="M85 133l10-17-38 18z"/><path fill="#686a6b" d="M12 52h98v10H12z"/><circle r="1" fill="#273c30" transform="matrix(6.21974 -10.60381 31.33098 18.37742 16.8 2.8)"/><ellipse cx="125" cy="138" fill="#9b8b98" rx="32" ry="17"/><path fill="#958b8f" d="M71.2 115.7l5.7-14.4 26-.7-41.2-4.9z"/><path fill="#666c6a" d="M161.4 57.5l13.8-2.7 3.4 17.7-13.8 2.7z"/><ellipse cx="52" cy="110" fill="#b1a5a6" rx="6" ry="4"/><path fill="#7d7870" d="M271.1 149.3l-35.5-30.8 3.3-3.8 35.5 30.8z"/><path fill="#484c3f" d="M33 96l40-36-32 60z"/><path fill="#b5b5b8" d="M234 76l15 46-24-25z"/><path fill="#cac0c4" d="M232 128.3l17.7 12-22.8-4.7-9.6-20.4z"/><path fill="#595750" d="M44 90h51v8H44z"/><circle r="1" fill="#706d75" transform="matrix(-2.93412 -2.49055 12.06979 -14.21947 125.7 139.6)"/><circle r="1" fill="#656463" transform="matrix(-3.26591 -6.41386 30.06428 -15.3086 2.1 109.4)"/><ellipse cx="11" cy="68" fill="#464a3b" rx="69" ry="7"/><circle r="1" fill="#385c68" transform="rotate(-125.5 48.6 -22) scale(11.22342 30.99173)"/><path fill="#847e87" d="M201 125l-23-17 12 19z"/><path fill="#17221a" d="M-16 156.2L1.2 89.6l31.6 1.9-39.9-26z"/><path fill="#958c91" d="M15 119l21-7-7 15z"/><path fill="#80807f" d="M220.2 103.8L160 70.2l34.9 33.5 34.7-15.2z"/><path fill="#8c8a91" d="M99.9 75.8L84.1 87.7l8.5-33.4-16.7-2.2z"/><path fill="#a9a9a9" d="M155.4 60l8.2 19.5-5.6 2.7-13-24.1z"/><path fill="#9caca7" d="M241.8 39.3l-22.9 2.4-.7-7 22.9-2.4z"/><path fill="#3d3d3e" d="M63.1 120.4l-29.6 23.1 44.2-21-44.5-1z"/><circle r="1" fill="#9b8f93" transform="rotate(-94 85.8 39.1) scale(3.34108 2.95474)"/><path fill="#7b717c" d="M99 107h28v17H99z"/><ellipse cx="130" cy="81" fill="#676666" rx="28" ry="3"/><path fill="#778084" d="M271 92.1l-21-9.8-6.1-5.1-11 6.3z"/><path fill="#6c7974" d="M271 41l-63 2 17 13z"/><path fill="#867f84" d="M167.7 124.3l17-11.5-11.6-1.1-79.7 8.7z"/><path fill="#b1a4ad" d="M145.9 124.6l-3.6 34.4-12.6-19.7 47.7-8.6z"/><path fill="#333837" d="M47 47h8v39h-8z"/><circle r="1" fill="#59867e" transform="matrix(-2.03127 21.8964 -96.5934 -8.9607 219.1 -.1)"/><ellipse cx="137" cy="27" fill="#678281" rx="44" ry="16"/><path fill="#5c535c" d="M102 135h13v5h-13z"/><circle r="1" fill="#ccc4cb" transform="matrix(.3659 -2.05038 65.1176 11.62075 225 143)"/><path fill="#838584" d="M229.1 103L271 91.8l-8.6 5.7-17.8 8.6z"/><path fill="#c2bec7" d="M212.3 116.2l-15.2 7.1-9.4-17.2 23.3.4z"/><path fill="#2f3b32" d="M-11.5 66l-7.8-10.3L17.5 28l7.8 10.3z"/><path fill="#494538" d="M29.5 108.2L4.2 127.1l14 13.9-34.2-12.2z"/><path fill="#8c9997" d="M179 54l-38-8 63-14z"/><path fill="#e6d2d3" d="M49 142h6v2h-6z"/><path fill="#676968" d="M47 76L24 56l17 2z"/><path fill="#55565a" d="M98.1 101.3l-14.8 10.9L55.5 159l27.1-56.8z"/><path fill="#404b4c" d="M22.4 56.8l36-37.4L92.3 26 56 52.3z"/><path fill="#b4a5aa" d="M58 109h11v4z"/><path fill="#b8aab7" d="M93 99l22 5-18 1z"/><path fill="#79777c" d="M124.6 90.1l-20.1 13.4-14.1-25.1-.8 14.7z"/><path fill="#bdb7bd" d="M237.7 113.7l-10.4-12.1 43.1 23.1-.4 1.5z"/><path fill="#71787d" d="M166.4 54.3L87 42.1l23.8 31.6 5.5-13.8z"/><path fill="#c4bfbe" d="M102 86h15v4h-15z"/><path fill="#867d86" d="M80 117l-16 27 27-23z"/><circle cx="97" cy="135" r="3" fill="#d0c0ce"/><path fill="#60676c" d="M111.8 59.9l-.7-3.9-36.5 25.2 27.2-37.8z"/><circle r="1" fill="#6a6c71" transform="matrix(2.52632 -2.42018 11.88287 12.404 144 75.4)"/><circle r="1" fill="#908790" transform="matrix(-1.66123 -.48578 6.17982 -21.13332 166.5 143)"/><path fill="#393a44" d="M89.7 129l9-9.4 3.6 3.5-9 9.3z"/><ellipse cx="117" cy="5" fill="#4f7679" rx="20" ry="17"/><path fill="#aa9fa3" d="M115.5 136.3l-12.4 19.8 28-28.5-14.9-2.4z"/><circle r="1" fill="#36412e" transform="matrix(12.47539 -3.74657 1.06933 3.56066 39.5 101.4)"/><path fill="#1b2110" d="M.6 159l12.8-22 15.1-5.6L.9 159z"/><path fill="#2d3724" d="M10 85l35-24-26 7z"/><path fill="#c8c8d5" d="M262 91.4l-1.3 5.9-12.7-2.7 1.3-5.9z"/><path fill="#a2a2a0" d="M196 68l-24 9 56 6z"/><path fill="#958d8f" d="M202.8 133.9l1.7-8.7 16.5-20.6 6.2 2.4z"/><ellipse cx="186" cy="80" fill="#737475" rx="9" ry="5"/><circle cx="18" cy="101" r="2" fill="#bcb4ae"/><path fill="#cec3c4" d="M184.5 134.3l13.9-7.2 5 31.9-18.2-20z"/><path fill="#83888e" d="M92.6 60l41.1 10.7-55.3-17.5-6.3 2.5z"/><path fill="#868182" d="M244 119l27 13-43-3z"/><path fill="#b3acb6" d="M173.1 96.1l-3.6 14.9-9.8-9.1 5.1-1z"/><circle r="1" fill="#84827e" transform="matrix(-.16602 -.98612 14.95425 -2.51767 45 107)"/><path fill="#959895" d="M172.2 46.9l23.9 9.7L155.7 70l32-2.9z"/><circle r="1" fill="#9c9799" transform="matrix(-.25776 1.49225 -6.45045 -1.11419 0 111.2)"/></g></g></svg>