<svg xmlns="http://www.w3.org/2000/svg" viewBox="0 0 1800 1013"><defs/><filter id="a"><feGaussianBlur stdDeviation="12"/></filter><rect width="100%" height="100%" fill="#5f3730"/><g filter="url(#a)"><g fill-opacity=".5" transform="translate(3.5 3.5) scale(7.03125)"><circle cx="113" cy="64" r="129" fill="#709788"/><circle r="1" fill="#96d1e4" transform="matrix(3.68214 50.14124 -20.24275 1.48653 24.4 75.8)"/><circle r="1" fill="#1fceca" transform="matrix(-38.99664 -13.64768 6.08974 -17.40071 176.1 108.2)"/><path fill="#000b17" d="M164 159L9 138l139-23z"/><circle r="1" fill="#793c21" transform="matrix(-87.71564 -20.63219 7.41289 -31.51513 159 51)"/><circle r="1" fill="#00000b" transform="matrix(-9.03333 13.66033 -14.27655 -9.44082 103.4 21)"/><ellipse cx="175" cy="18" fill="#aecace" rx="57" ry="5"/><path fill="#fff" d="M29 67.2L20.2 69 13 34.8l8.8-1.9z"/><ellipse cx="44" cy="10" fill="#a09e90" rx="43" ry="11"/><path fill="#aa7740" d="M238.3 127.1l-8.6 11.1 4-110.9-46.3 65.1z"/><circle r="1" fill="#400b0a" transform="rotate(36.7 -97 190) scale(42.11083 5.31469)"/><path d="M188.8 12l-2.4 6.6L157.2 8l2.4-6.6z"/><circle r="1" fill="#abaaa5" transform="matrix(-1.53998 5.8223 -50.16922 -13.26957 132.1 7.5)"/><circle r="1" fill="#021212" transform="rotate(-88.7 140 -118.3) scale(58.71899 10.69139)"/><path fill="#a5bec1" d="M199.7 25l-10-11.2L208.3-3l10 11.1z"/><path fill="#5ad3ef" d="M101.5 123.6l-16.6-30 25 21.6 8.6 4.7z"/><circle r="1" fill="#5d7b83" transform="rotate(-115 30.3 40.6) scale(44.44308 21.91937)"/><path fill="#000f15" d="M184.3 145.6l-4.1-17.2 25.2.7 6.5-4.3z"/><circle r="1" fill="#877269" transform="rotate(-65.2 119.4 -52.6) scale(15.77858 43.23516)"/><path fill="#183235" d="M31 123h125v21H31z"/><ellipse cx="49" cy="18" fill="#7fcde4" rx="34" ry="3"/><path fill="#836342" d="M32.2 160.2l-28 1.5-2.4-48 28-1.4z"/><path fill="#83b4bb" d="M197 116h32v12h-32z"/><path fill="#36c4cc" d="M138 113.6l27 2.9-38.3-17.1 1.1 5.1z"/><path fill="#6d432d" d="M144 23h103v32H144z"/><path fill="#fff" d="M36 65h5v16h-5z"/><path fill="#002235" d="M36.9 95.8l-16.7-67 3-.6 16.6 67z"/><circle r="1" fill="#feffff" transform="matrix(11.28682 37.03492 -2.37641 .72424 24.4 61.7)"/><path fill="#29a2a2" d="M149.5 164.5L166 87.2l20.6 4.3-16.4 77.3z"/><path fill="#6d534a" d="M-8.3 71L-17 33l25.4-6L17 65z"/><ellipse cx="66" cy="124" fill="#534d47" rx="16" ry="65"/><circle cx="215" cy="95" r="11" fill="#ce9f2b"/><path fill="#aadae1" d="M145 90l30 15-25-24z"/><circle r="1" fill="#6b242b" transform="matrix(-15.23714 10.8077 -8.05484 -11.35604 95.3 43)"/><path fill="#afb3c2" d="M202.7 144.4l9-4.1 5.8-5.6h-25.4z"/><path fill="#c7e2e0" d="M39.7 98l-8.1-41.1 2.8-21.7 11.3 89.4z"/><path fill="#8a9692" d="M167.9 23.7l-42.9.6-21.1-28.9L126.7-7z"/><path fill="#443021" d="M43.4 31.5l25.2-8.1-39.9-3.7 20.9 52z"/><path fill="#314443" d="M126.5 94.6l46.8 15.1-35.9-26.2 1.4 19.2z"/><path fill="#0c0000" d="M129.3-3.5l1.4-3.7 28 10.7-1.4 3.7z"/><path fill="#e8f9f9" d="M22 30l-12-3 11 39z"/><ellipse cx="17" cy="2" fill="#90775b" rx="79" ry="12"/><path fill="#89533a" d="M121 107L49 65l-3-36z"/><path fill="#463f49" d="M155 139l-10-14 38 2z"/><path fill="#002226" d="M222.2 124.3l7.3 19.5 14.9 15.2h-35.3z"/><path fill="#c2cdd3" d="M229 57h3v32h-3z"/><path fill="#6697a0" d="M4 112L0 67l59 52z"/><path fill="#281d19" d="M208.1-41.3l70.2 72.7-14.4 13.9-70.2-72.7z"/><path fill="#90a1a1" d="M217.6 7l-40.1 11.1 9 1.5 44.6 2.8z"/><path fill="#784b34" d="M214 101l27 24 3-50z"/><circle r="1" fill="#4187a1" transform="rotate(-101.7 45.1 31.8) scale(18.66455 6.01459)"/><path fill="#25302f" d="M126 114h29v12h-29z"/><path fill="#94a9a9" d="M88 69l11-7 2 27z"/><path fill="#131107" d="M182.3 10.8L143.2-.7l39 18.7 39.7-34z"/><path fill="#061a1a" d="M84 11h33v12H84z"/><path fill="#34d0b7" d="M169 128l-18-18 50 7z"/><path fill="#826349" d="M195 37l47-12-20 62z"/><path fill="#8da0a0" d="M64.8 13.8l15.9 14.1 8.4-39.8 52 4.2z"/><circle r="1" fill="#693b28" transform="matrix(-9.73439 31.44672 -18.2162 -5.63886 179.8 55.6)"/><circle r="1" fill="#84755d" transform="rotate(45.9 -15.5 98.3) scale(7.83834 29.24761)"/><ellipse cx="196" cy="130" fill="#001717" rx="16" ry="3"/><path fill="#807173" d="M-5.4 51.1l29.7-7.6L-16 28.9l41.6-14.5z"/><circle r="1" fill="#334e51" transform="rotate(-102.6 59.7 35.4) scale(85.98752 1)"/><path fill="#332a26" d="M260.9 159l-19.1-1.5.5-18.2 3.4-82.8z"/><path fill="#4b2824" d="M65.7 95.7L59 79l21.3-8.7L87 87z"/><path fill="#585f55" d="M222 133.3l6.1-11.3 8.9-31.1 1.3 52z"/><path fill="#7d684b" d="M98.8 60.8L124.1 26l29.1 21.2L127.9 82z"/><path fill="#34545f" d="M52.4 117l49.7 38.7-10.5 13.4-49.7-38.8z"/><path fill="#815632" d="M186 92.7l5-52.3 29.4-12.5-17.5 74.4z"/><path fill="#007e78" d="M181.8 115.5l-18-1.6-10.3-16 32.1 16.1z"/><path fill="#63a0ac" d="M78.5 92.1l36.6 25.1-.7 5.8-18-.3z"/><path fill="#191012" d="M85.9 85.2l4 14.6 1.9-1.2 31.8 22.4z"/><path fill="#172323" d="M123.8 23.3L109.4 4.6l-24.6 6L121 32.2z"/><path fill="#a7c7de" d="M7 15h34v3H7z"/><path fill="#a0c8bf" d="M212.5 127.3l-1.6 2.5-59.4-37 1.6-2.6z"/><path fill="#cd2e3a" d="M7 18h12v8H7z"/><circle r="1" fill="#12a290" transform="rotate(-55.3 197.4 -130.2) scale(7.15861 16.97581)"/><path fill="#928b7c" d="M60 40l38 29-20-1z"/><path fill="#4ca2a5" d="M192.1 96.5l-47-16.9 21.3 21.8L178.8 87z"/><path fill="#589fa3" d="M50 64L38 50l4 25z"/><ellipse cx="118" cy="139" fill="#1b2522" rx="30" ry="18"/><path fill="#85443a" d="M125.6 103.7l-57.4-38 42.2 41.2 29.2 12.8z"/><path fill="#45929e" d="M151 139h33v5h-33z"/><circle r="1" fill="#dcebe6" transform="rotate(162.4 13.3 33) scale(1 26.07686)"/><ellipse cx="194" cy="26" fill="#4c3120" rx="35" ry="3"/><path fill="#5a5c5f" d="M242.5 24.8L239.2 53l-8.4-27L222 4.3z"/><path fill="#2c332c" d="M44.4 129.3L80.2 159l-55.9-23.5 13.9-16.2z"/><path fill="#a2b7b8" d="M226.6 16.6L199.5-8.6l18.3 26.9 9.5 2.9z"/><path fill="#634a40" d="M125.9 97.3l50-26.1-42.6 12.7 27.9 18z"/><path fill="#863b37" d="M102 29l-28-8 37 24z"/><path fill="#8d938d" d="M122 11h45v12h-45z"/><path fill="#bb9d46" d="M231.5 107.9l-24.1-14.8-1.6-11.7 12.3 3z"/><path fill="#21a498" d="M193.4 101.8l-8.3 27 21.2.5-51.2-43.1z"/><path d="M228.8 138.9l-19.3 5.2-.3-1 19.3-5.2z"/><path fill="#8a9299" d="M158.6 121.1l18.1 37.9h16l-39.9-33.8z"/><path fill="#543a3b" d="M107.6 52.3l-1.3-14-12.5 31.6-18.2-26z"/><path fill="#262d2b" d="M106.3 111.1l28.2 20.3 12.3-7.3-19.2-13.5z"/><path fill="#f0f8f6" d="M12.9 35l9.8 1.4 4.6 22.1-8.1 7.4z"/><path fill="#8b928e" d="M84 14.8L81.4 27 66.7-.7 107.1-16z"/><path fill="#343738" d="M20 16.5l19.3 8.2-1.2 2.8-19.4-8.2z"/></g></g></svg>