<svg xmlns="http://www.w3.org/2000/svg" viewBox="0 0 1669 939"><defs/><filter id="a"><feGaussianBlur stdDeviation="12"/></filter><rect width="100%" height="100%" fill="#4b322b"/><g filter="url(#a)"><g fill-opacity=".5" transform="translate(3.3 3.3) scale(6.51953)"><circle r="1" fill="#edf9fb" transform="rotate(-78.9 84.5 -66.1) scale(68.08272 217.86164)"/><circle r="1" fill="#ffffeb" transform="rotate(74 81.4 183.4) scale(41.4581 77.05518)"/><circle r="1" fill="#434a4e" transform="matrix(72.48747 -1.84427 3.50687 137.83412 38 95.8)"/><circle r="1" fill="#050000" transform="matrix(-15.0439 -3.2326 10.20918 -47.51169 82.5 77.8)"/><circle r="1" fill="#ab9f93" transform="matrix(-62.12533 -23.56959 5.183 -13.66147 8.3 70.4)"/><path d="M149 79h15v65h-15z"/><path fill="#afaea7" d="M160.8 62.3L127.4 125l-36.2-19.3L124.6 43z"/><circle r="1" fill="#fff8df" transform="matrix(8.84335 -26.27748 40.47345 13.62082 238.4 73)"/><circle r="1" fill="#b7a9a9" transform="matrix(10.1289 23.29639 -63.5405 27.62638 206.2 24)"/><path fill="#4f615e" d="M176 104h80v40h-80z"/><circle r="1" fill="#87828d" transform="matrix(-20.83674 -18.86435 54.36613 -60.05046 55.2 29.7)"/><path fill="#070b12" d="M201 132l-10-21 80 15z"/><path d="M0 96h64v8H0z"/><path fill="#1c140d" d="M66 58h29v86H66z"/><circle r="1" fill="#baa586" transform="matrix(2.02292 8.26533 -31.69565 7.75742 207.5 101.2)"/><circle r="1" fill="#837f8e" transform="matrix(25.31932 6.12539 -12.24732 50.62436 125.3 24)"/><path fill="#030000" d="M104 86L83 63l26 16z"/><ellipse cx="156" cy="114" fill="#221c1a" rx="21" ry="17"/><path fill="#4e5d59" d="M97 105h40v39H97z"/><path fill="#c7c1b8" d="M134.4 88.4L178 70.3l-14.8-19.7-64.3 21.3z"/><path fill="#090000" d="M155 103l13-17-17-2z"/><path fill="#8a8876" d="M243.7 136.3l-56.3 7.7 83.6 8.3-10.2-23.4z"/><path fill="#a9a090" d="M94 84h57v14H94z"/><circle r="1" fill="#afa8ad" transform="rotate(80.1 101.6 128.2) scale(32.84502 46.26412)"/><path fill="#0c0000" d="M85 31h16v12H85z"/><ellipse cx="27" cy="113" fill="#586056" rx="42" ry="9"/><path fill="#87858f" d="M59 14h25v36H59z"/><path fill="#190d0b" d="M71.8 52.7L95 42.4 72 85l-9.2-5.8z"/><circle r="1" fill="#fef8ef" transform="matrix(3.33132 -15.51547 33.61003 7.2164 255 68.4)"/><path fill="#848086" d="M147.8-16L92.9 49l42.2 75.1L79.5-16z"/><path fill="#948f8f" d="M255 117l-22-5 25-3z"/><path fill="#797667" d="M176 123h19v18h-19z"/><path fill="#9a8773" d="M68.5 59.5l-9-10.4-49 32.8 52.8-5.1z"/><path fill="#675a59" d="M168 111.4l8.5 7.2-20.8 1.4 9.3-14.9z"/><ellipse cx="103" cy="142" fill="#303d37" rx="78" ry="10"/><circle r="1" fill="#e3dbd2" transform="rotate(136.7 90 73.3) scale(28.8956 18.34467)"/><ellipse cx="232" cy="94" fill="#dcc59f" rx="70" ry="7"/><path fill="#721500" d="M47 82l5-6 6 10z"/><ellipse cx="172" cy="119" fill="#2b1c18" rx="40" ry="3"/><path fill="#030000" d="M98 76h12v4H98z"/><path d="M75 65h25v8H75z"/><ellipse cx="32" cy="22" fill="#767784" rx="57" ry="40"/><circle r="1" fill="#707173" transform="rotate(131.2 17.2 58.3) scale(18.07238 1)"/><path fill="#0b0306" d="M209 115.6l14.5-6.1-22.1 3.6-25.3 8.4z"/><path fill="#0e0908" d="M77.2 100.5l-39.7 4.8-53.5-5.2 3-8.1z"/><ellipse cx="177" cy="31" fill="#a39895" rx="34" ry="14"/><path fill="#736d6b" d="M99 93h37v32H99z"/><path fill="#6c635c" d="M-16 67l78 29-55-5z"/><path fill="#c3c6c0" d="M123 83l18 10 27-35z"/><path fill="#9a9394" d="M118.9 72.3l73.4-64.8-88 38.5L99 76.2z"/><circle cx="93" cy="59" r="8" fill="#41230f"/><path fill="#8a7d77" d="M105.6 90.1l39.8 13.5-49.9-.5-5.7-32z"/><path fill="#aaa392" d="M161 94h49v5h-49z"/><path fill="#23201d" d="M138.3 110.2l37.8 15.7-17 25.5-25.8-27.8z"/><path fill="#32221a" d="M96.5 111.1l.2-11.7-30-3.8 33.1 42.8z"/><circle r="1" fill="#d3bea6" transform="rotate(-96.6 124.4 -71.3) scale(7.68542 62.89162)"/><circle r="1" fill="#80818e" transform="matrix(7.18502 -16.80623 29.57074 12.64212 110.8 18.7)"/><path fill="#73776d" d="M80 111h4v9h-4z"/><path fill="#fdefd4" d="M255 38l-35 52 48 3z"/><path fill="#423017" d="M218 104h38v2h-38z"/><path fill="#d0cdc9" d="M210 58h-63l25 34z"/><path fill="#3c4c5e" d="M216 114h40v9h-40z"/><path fill="#525651" d="M142 143v-17l-31 4z"/><path fill="#988871" d="M69.3 78l-33.7 4.2-41.7-15.3 6.5-1.8z"/><path d="M89 89l-26-9 26 18z"/><path fill="#8f878e" d="M55 43h30v6H55z"/><path fill="#634a39" d="M79 72h15v7H79z"/><path fill="#190b09" d="M153 101h19v9h-19z"/><circle r="1" fill="#b7b3b6" transform="matrix(-31.93726 .57957 -.3253 -17.92558 242.8 16)"/><path fill="#a09895" d="M104.4 73.2l58.7-4.8-72.8-17.6 10.3-7.6z"/><circle r="1" fill="#38473e" transform="matrix(-2.24987 -13.24878 54.63018 -9.27713 13.3 132.1)"/><path fill="#757068" d="M174 103h54v3h-54z"/><path fill="#240504" d="M150 88h18v4h-18z"/><path fill="#1c1512" d="M203 109h44v2h-44z"/><path fill="#5d4f4c" d="M162 108l15 9-22 6z"/><path fill="#c4b28f" d="M200 99h56v5h-56z"/><path fill="#888784" d="M179 107h35v4h-35z"/><path fill="#1c1a1b" d="M221 122l-17 16-4-30z"/><path fill="#2b1c16" d="M71.8 67.2l-2.1-15.9L91 47.6l1.8-14.8z"/><path fill="#aba298" d="M123.5 91.6l33-53.5-34 20.6-23.7 34.7z"/><path fill="#262b25" d="M114.4 131.2L7.1 151.9l21.8-9L82.1 123z"/><path fill="#8f8985" d="M122.6 105.7L94.3 89.1l21.1.7 36.3 8.5z"/><path fill="#5b574f" d="M67.6 105.9L52.9 104 .3 112.2l66.4 4.3z"/><path fill="#2c1b14" d="M97.1 31.5l4.6 7.3-15.6 19-24.3 17.3z"/><path fill="#736960" d="M68.5 91.1l-5.4-13.5-14.2-9.4-14.1 2.1z"/><circle r="1" fill="#b79c84" transform="matrix(-1.49363 -4.3278 4.7335 -1.63364 60.3 68.6)"/><path fill="#706f5c" d="M196.2 118.5l3.5 16.6-2 .4-3.4-16.6z"/><circle r="1" fill="#3a2314" transform="rotate(125.9 28.9 65.1) scale(1.53576 9.69401)"/><path fill="#f0d6b7" d="M218.4 49.9l-6.8-7.8 59.4-.9-11.3 11.1z"/><path fill="#beb5a9" d="M151.6 53l47-18.9-66.9 60.3 17.6-.3z"/><path fill="#45463a" d="M186 126l34 4-10 12z"/><ellipse cx="246" cy="107" fill="#a6987d" rx="23" ry="2"/><circle cx="32" cy="77" r="4" fill="#d2b185"/><circle r="1" fill="#e2e3e3" transform="matrix(-1.46721 -9.20117 34.27438 -5.46538 219.4 67.5)"/><path fill="#989382" d="M233 137l22 4 16 15z"/><path fill="#858288" d="M111 21L66 10 52 45z"/><path fill="#120b0f" d="M156.5 107.6l-2 .4-5-25.6 2-.4z"/><circle r="1" fill="#e7d4b4" transform="rotate(-82.4 163.4 -81.5) scale(5.25842 31.12921)"/><path fill="#58564e" d="M146 159l-52-9-4-18z"/><circle r="1" fill="#2f1d15" transform="matrix(-15.00137 -13.7675 1.87334 -2.04123 167.6 106.4)"/></g></g></svg>