<svg xmlns="http://www.w3.org/2000/svg" viewBox="0 0 1800 1013"><defs/><filter id="a"><feGaussianBlur stdDeviation="12"/></filter><rect width="100%" height="100%" fill="#2a5560"/><g filter="url(#a)"><g fill-opacity=".5" transform="translate(3.5 3.5) scale(7.03125)"><circle r="1" fill="#fa7137" transform="matrix(83.60875 -23.25226 8.69797 31.2755 116.7 63.5)"/><circle r="1" fill="#15d1bb" transform="matrix(23.12612 -56.2786 70.24689 28.866 229.6 103.9)"/><circle r="1" fill="#1fc0b1" transform="matrix(181.65591 178.95846 -35.17528 35.70548 25.2 115.7)"/><circle r="1" fill="#0d899f" transform="rotate(-176 74.4 -2.6) scale(249.2928 31.82519)"/><circle r="1" fill="#af3623" transform="rotate(-121.2 48.2 25.8) scale(13.23025 34.29277)"/><circle r="1" fill="#158a9d" transform="rotate(71.5 -1.8 44.3) scale(23.61299 87.72656)"/><circle r="1" fill="#912614" transform="matrix(-19.49356 23.08813 -8.24898 -6.9647 147.7 105.5)"/><circle cx="95" cy="70" r="35" fill="#b7481e"/><ellipse cx="84" cy="131" fill="#159f92" rx="98" ry="29"/><path fill="#d17960" d="M128.8 58.7l.6-35.2L207.2 53l-62.6 8.3z"/><path fill="#15a4a0" d="M159.2 59.3l73.7-7.2-32.2 60.5-49.3-40.1z"/><path fill="#51100f" d="M133.1 132.4l-10.8 1.3 14-30.4 23.5 7.6z"/><path fill="#b59f7d" d="M153.4 88.8L111.6 104l36.9-37.9 21.6-30.5z"/><path fill="#852e24" d="M134.9 42.8L35.4 61.7 111 28l15.8-1.6z"/><path fill="#eda75d" d="M120.5 68.8l-60.2 4.3 52.6 10.8-7.1-.7z"/><path fill="#9a4033" d="M174 34h30v18h-30z"/><path fill="#158583" d="M266 39v46l-87-67z"/><path fill="#16b0a0" d="M143 90l-58 19 33 17z"/><path fill="#c87e5b" d="M80.3 94l40.2 4.4-35.4 8.2-52.5-33.3z"/><path fill="#783426" d="M78.5 46L64 95.2 41.8 69.9l20.1-22.4z"/><path fill="#1ba29b" d="M23.4 137.6l2.3-32.7L52 93.1l58.7 16.4z"/><circle r="1" fill="#1b9fa0" transform="matrix(-7.767 -9.83472 26.13905 -20.64338 26.2 62.7)"/><path fill="#bc654c" d="M114 29l54 58-27 13z"/><path fill="#bc5734" d="M118 25.9l-34.3 47 74.2-42.7-11.2-2z"/><path fill="#e8ce9f" d="M173.5 55.3L161 61.6l-4.5-8.9 12.5-6.3z"/><path fill="#cf8469" d="M205.3 37.9l1.6 12.6-9.8-3.1 1.6-13.3z"/><circle r="1" fill="#179a98" transform="rotate(176.7 88 37.4) scale(21.36202 13.93778)"/><circle r="1" fill="#eda96c" transform="rotate(-36.9 145.2 -77.8) scale(6.17529 6.49573)"/><path fill="#006b7b" d="M188.7 23.6l1.4 9.9-20.8 3-1.4-10z"/><circle r="1" fill="#7a3022" transform="rotate(112 14 73.6) scale(5.5237 24.63407)"/><path fill="#189298" d="M39.3 36.4l-29 89.2-26.3 23.8L.8 10.8z"/><circle r="1" fill="#1db0a1" transform="matrix(49.27691 37.96754 -6.86465 8.90943 244.2 91.5)"/><path fill="#1ba597" d="M220 131l-94 2 59-36z"/><path fill="#5f1a20" d="M107 30l10 14-44 1z"/><path fill="#ed8648" d="M91 50l3 15 22-19z"/><path fill="#039595" d="M69 99L56 88l-21 16z"/><circle r="1" fill="#67332f" transform="matrix(14.76546 -.0954 .06372 9.86293 151.9 98.8)"/><path fill="#751810" d="M109 53h13v13h-13z"/><path fill="#6d1c05" d="M90 69l1-11-25-2z"/><circle r="1" fill="#1a807f" transform="matrix(-44.37189 15.41848 -3.38714 -9.74763 82.8 132)"/><path fill="#b37e62" d="M43.3 101.8l25.5-52.7-31.7 53.1-5.8-18.3z"/><ellipse cx="243" cy="21" fill="#196c73" rx="48" ry="30"/><path fill="#3f262e" d="M22.4 88l7.2-14.2 8 4.1-7.2 14.3z"/><circle r="1" fill="#19697f" transform="rotate(107.6 18.3 29) scale(19.67154 41.46079)"/><path fill="#e3a36c" d="M79 98h21v6H79z"/><path fill="#9a686c" d="M158 21l31 27-39-12z"/><path fill="#b15225" d="M120.9 96.7l20.3-17.2-6.7-15.4-20.9 2.4z"/><path fill="#bda788" d="M155.9 72.3l-12.8 14.9-12.2 6.7 13.9-23.1z"/><path fill="#93574b" d="M145.6 98.6l-11.1 20.2-6.1-3.4 11.1-20.2z"/><path fill="#21998e" d="M111.5 148l-1.6-43.7 39.3-19.9-7.5 6.3z"/><path fill="#05aaa3" d="M37 65h8v8h-8z"/><path fill="#e89c70" d="M138.2 58.8l-6-1 3.6-22.6 6 1z"/><circle cx="102" cy="78" r="8" fill="#ef9d4e"/><path fill="#9d4e38" d="M127.1 86L99.7 96.5l57.8-33.7L142.3 39z"/><ellipse cx="174" cy="105" fill="#1da498" rx="8" ry="49"/><circle r="1" fill="#198583" transform="matrix(10.1073 -9.82886 39.05666 40.1631 238.4 129.8)"/><path fill="#b15937" d="M58.7 90.7l9.4-46.3L54.7 72l19 28.6z"/><path fill="#3e2727" d="M160.5 109.8l-2.6-17.2-34.5 35.7-6.5 11.4z"/><path fill="#c98971" d="M144 39l24-2-10 25z"/><path fill="#1e8989" d="M194.1 80.1l-21.2 12.3-19.1-20.2 4.4-9.9z"/><path fill="#cab5a3" d="M189.4 54.9v1L152.7 59v-1z"/><path fill="#472d34" d="M189.2 50.8l7.8-6.3 3.8 4.7-7.8 6.3z"/><path fill="#d6813e" d="M109 93l25-6-21 13z"/><path fill="#19767d" d="M87 19h67v8H87z"/><path fill="#6d2d2c" d="M58.1 59l-12.2-2.8-1 16.4 9 5.9z"/><path fill="#8c4029" d="M102.6 82.6l-3.1 18.8 36.3-22.5 5 5.7z"/><path fill="#177e7b" d="M112.4 159l18.9-29.3 18.9-10.9 28.7 9.1z"/><circle r="1" fill="#ca6c37" transform="matrix(2.4084 .71523 -5.33785 17.97436 80.9 65)"/><path fill="#b4745f" d="M28 102l-7-5 21-2z"/><path fill="#1c9691" d="M39 103h55v13H39z"/><path fill="#d17a4c" d="M132.3 36.2l-21.5 4.5-1-4.9 21.4-4.5z"/><path fill="#9f3d22" d="M123 36l-17 18 32-8z"/><circle r="1" fill="#61231e" transform="matrix(-5.60113 17.1391 -2.30431 -.75306 68.4 65.8)"/><path fill="#772a1c" d="M83 80l3-6 14 20z"/><path fill="#1d8284" d="M195.9 22.9l67.2 16.8-68.8 19.8 14-12.9z"/><path fill="#1d948f" d="M88.8 104.3l-73.9 13.9 38.7-28.7 43.8 24.1z"/><circle cx="181" cy="11" r="24" fill="#1a6c79"/><circle cx="74" cy="70" r="3" fill="#ffda97"/><path fill="#c49172" d="M155.8 79l-4.7 6.4-17-12.3 4.8-6.5z"/><circle r="1" fill="#1ba298" transform="rotate(75.5 -57.5 50) scale(15.2251 17.07494)"/><path fill="#bf5e2e" d="M140 74l20-32-17 15z"/><circle r="1" fill="#9c3f2f" transform="matrix(4.37292 -1.15538 1.90987 7.22858 141 34.4)"/><ellipse cx="2" cy="36" fill="#1b7d8e" rx="37" ry="20"/><path fill="#e6aa6a" d="M81 74h35v3H81z"/><path fill="#632921" d="M176 33l-4 6 18-5z"/><path fill="#80665f" d="M167.9 49.1l13.3 7.7-3.1-.8 21.8-14z"/><path fill="#9e6f64" d="M31.6 82.9l9.3-7.9 12.9 4.8-23.1 13.1z"/><circle cx="94" cy="73" r="4" fill="#b1501a"/><path fill="#9f6e67" d="M170 91l-33-8 21-8z"/><path fill="#8d6d58" d="M42.8 60.1l-6.1-3.5 12.9 1.3-4.8 13.7z"/><path fill="#f5b46a" d="M102 52v-5l-7 10z"/><path fill="#1ea39f" d="M22 42l39 6-15 7z"/><path fill="#e9a98e" d="M203 50l-1-8 5 1z"/><path fill="#1da198" d="M161 62l110 41-39-56z"/><circle r="1" fill="#b1624b" transform="matrix(1.7481 -2.84863 16.8623 10.34777 66.5 91.6)"/><path fill="#b6775d" d="M52.6 78.5l-19.3 23.4 21.4-15.8 7.2-23.8z"/><path fill="#1c9188" d="M140.4 90.6L65.1 159l79-24.1-25.1.8z"/><ellipse cx="184" cy="41" fill="#da7c3e" rx="5" ry="3"/><path fill="#1fb0a0" d="M166 99h23v27h-23z"/><path fill="#1b6c78" d="M100 25.3l-21.3-7.9-49.9 25.3 45.5 3z"/></g></g></svg>