<svg xmlns="http://www.w3.org/2000/svg" viewBox="0 0 1800 1013"><defs/><filter id="prefix__a"><feGaussianBlur stdDeviation="12"/></filter><rect width="100%" height="100%" fill="#3d7584"/><g filter="url(#prefix__a)"><g transform="translate(3.5 3.5) scale(7.03125)"><circle r="1" fill="#0081bf" fill-opacity=".5" transform="rotate(-99.7 116.1 -48.7) scale(149.62268 209.39875)"/><circle r="1" fill="#ff5a00" fill-opacity=".5" transform="matrix(-5.68444 -10.158 19.7285 -11.0401 90 88.7)"/><circle r="1" fill="#039bcd" fill-opacity=".5" transform="matrix(44.04407 23.06749 -77.96558 148.8641 215.8 73.5)"/><path fill="#300500" fill-opacity=".5" d="M137.8 43.7l6.5-23.8 45.1 38.2-49.5-8.5z"/><circle r="1" fill="#085480" fill-opacity=".5" transform="matrix(1.2347 -81.53069 49.27722 .74625 14.6 65.6)"/><path fill="#f28260" fill-opacity=".5" d="M92.2 97.7l29.2-18.1-18.2-8.4L75 76.7z"/><path fill="#7e2200" fill-opacity=".5" d="M75.9 93l-1.2 22.4 9.6-10.7L93 86.4z"/><circle r="1" fill="#0b9edd" fill-opacity=".5" transform="matrix(1.37319 -25.35523 47.00588 2.54575 232.2 47.1)"/><circle r="1" fill="#1e383f" fill-opacity=".5" transform="matrix(-9.9333 -.40526 1.02698 -25.17241 152.3 44.6)"/><circle cx="122" cy="142" r="54" fill="#0a879d" fill-opacity=".5"/><circle r="1" fill="#0f7fbf" fill-opacity=".5" transform="matrix(-35.42943 -28.89554 11.60032 -14.2234 115.6 54.6)"/><path fill="#372b23" fill-opacity=".5" d="M161.7 30.2l21.2 22.5-23-1.9-31-12.3z"/><circle r="1" fill="#0191aa" fill-opacity=".5" transform="matrix(.60948 15.8651 -59.22988 2.27538 173 8.3)"/><path fill="#507a6b" fill-opacity=".5" d="M84 20.6L81.2-1.3 108-4.6l2.6 21.9z"/><path fill="#0d91d3" fill-opacity=".5" d="M148 47h10v15h-10z"/><circle r="1" fill="#177fa6" fill-opacity=".5" transform="rotate(-62.9 212.7 -112.3) scale(24.46778 124.76054)"/><path fill="#e6774a" fill-opacity=".5" d="M65.9 89.9l47-22.4-25.7 31.6.1-6.4z"/><circle r="1" fill="#004965" fill-opacity=".5" transform="matrix(25.459 -1.02254 .08865 2.20728 87.4 101.2)"/><circle r="1" fill="#1274a9" fill-opacity=".5" transform="matrix(-43.35139 -26.05352 10.7044 -17.81143 62.2 44)"/><circle cx="141" cy="36" r="3" fill="#ddbbb8" fill-opacity=".5"/><circle r="1" fill="#145c7e" fill-opacity=".5" transform="matrix(-34.25578 3.14136 -4.84175 -52.79815 0 102.6)"/><path fill="#f69488" fill-opacity=".5" d="M98 78h22v4H98z"/><path fill="#10798f" fill-opacity=".5" d="M99 159l-115-5 79-70z"/><path fill="#ffeac8" fill-opacity=".5" d="M76 105l2 6-3-2z"/><path fill="#90482e" fill-opacity=".5" d="M120.7 87.9l-5.6-4.2 4.2-5.6 5.6 4.2z"/><path fill="#212c30" fill-opacity=".5" d="M165.8 14.5l-10.5 50.4 13.1-18.1-28.1 2.8z"/><path fill="#102023" fill-opacity=".5" d="M146.4 52.1l3.9 12.8-14.5-19.7-3.7-7.9z"/><path fill="#140000" fill-opacity=".5" d="M85 101l-5 9-1-16z"/><circle r="1" fill="#1583bf" fill-opacity=".5" transform="matrix(-20.09013 1.2204 -1.63631 -26.93707 174.8 80)"/><path fill="#0c6889" fill-opacity=".5" d="M164.5 18.5v13h-35v-13z"/><path fill="#c75a22" fill-opacity=".5" d="M86.6 82l21.3 11.4-33.2 4.3-7.2-3.8z"/><path fill="#156e95" fill-opacity=".5" d="M110.9 81.5l-2 2.2-12.7 31 40.3-21.5z"/><circle r="1" fill="#0d93a9" fill-opacity=".5" transform="matrix(83.24945 .98767 -.287 24.19116 167.2 143)"/><path fill="#135f92" fill-opacity=".5" d="M51 100l32-21-99-15z"/><path fill="#1185bb" fill-opacity=".5" d="M109 16h23v57h-23z"/><path fill="#12241d" fill-opacity=".5" d="M185 57h6v7h-6z"/><path fill="#ffa089" fill-opacity=".5" d="M77 75h29v3H77z"/><path fill="#05b4f0" fill-opacity=".5" d="M181 67l17-5-4 13z"/><path fill="#11758c" fill-opacity=".5" d="M17 24l99-23-85-17z"/><circle cx="190" cy="20" r="28" fill="#0c91b8" fill-opacity=".5"/><path fill="#1197d8" fill-opacity=".5" d="M145 47.6l8-.2v5l-8 .2z"/><path fill="#222a2b" fill-opacity=".5" d="M167.5 57.5h-7v-21h7z"/><circle r="1" fill="#1580b3" fill-opacity=".5" transform="matrix(85.493 14.14649 -2.90851 17.57733 208.6 99)"/><path fill="#157399" fill-opacity=".5" d="M142 81.3L85.9 99.5l-13.7 29.7 65.3-24.2z"/><circle r="1" fill="#1289c6" fill-opacity=".5" transform="rotate(171.8 115.2 45.9) scale(55.09123 13.57375)"/><path fill="#1478a1" fill-opacity=".5" d="M139.8 34.8L42.3 45.1l-2-20L137.6 15z"/><circle r="1" fill="#e48a69" fill-opacity=".5" transform="matrix(1.33745 1.05247 -6.30911 8.01745 101.4 76.5)"/><path fill="#177bb2" fill-opacity=".5" d="M2.5 32.9L109.2 69l-1.9 12.2 33.3-27.8z"/><path fill="#7b7a7c" fill-opacity=".5" d="M103.4 18.7l-13.2-4.8 2.4-6.6 13.2 4.8z"/><circle cx="54" cy="74" r="22" fill="#126698" fill-opacity=".5"/><ellipse cx="231" cy="42" fill="#109bd4" fill-opacity=".5" rx="59" ry="10"/><path fill="#242828" fill-opacity=".5" d="M195.3 58.3l-27.6-9.9-29.9-1.2L157 35.5z"/><path fill="#ee9c72" fill-opacity=".5" d="M81 81l-4 9-10 3z"/><path fill="#08a6df" fill-opacity=".5" d="M160 67l3-15 5 16z"/><path fill="#632000" fill-opacity=".5" d="M79.1 94.2l-5.9 2.4 7.8 10.7 5.3-20.4z"/><path fill="#312522" fill-opacity=".5" d="M144.6 39.2l14.3 11.7-.9 15.2 10-32.4z"/><path fill="#128498" fill-opacity=".5" d="M134 6.1l-31.5-18.9 5 38 7.5-1.3z"/><circle r="1" fill="#e46d3b" fill-opacity=".5" transform="rotate(92.9 7 89.6) scale(8.24292 8.06219)"/><circle r="1" fill="#0a94af" fill-opacity=".5" transform="matrix(-96.80155 -18.81631 2.40553 -12.37537 232.8 10.6)"/><path fill="#01586e" fill-opacity=".5" d="M139.8 35l3.7 7.1-5.3 2.8-3.7-7z"/><path fill="#8f665a" fill-opacity=".5" d="M77.1 101.4L68 79.5l11 26-6.6.4z"/><path fill="#337474" fill-opacity=".5" d="M33-16l68 32-10-29z"/><path fill="#11799b" fill-opacity=".5" d="M87.2 12.5l-9.7 19.8L30.8 9.5l9.7-19.8z"/><path fill="#443f42" fill-opacity=".5" d="M164.4 24.6L144 37.4l20.9 2.4-9-16.6z"/><circle r="1" fill="#16588f" fill-opacity=".5" transform="matrix(-10.4096 18.75029 -41.85196 -23.23497 0 62)"/><path fill="#0c91cb" fill-opacity=".5" d="M188.6 54.7l23.3-9 7.5 19.6-23.3 9z"/><path fill="#1589be" fill-opacity=".5" d="M87.5 48l63.7 21.1-21-26.6 1.8-14.4z"/><circle r="1" fill="#117da4" fill-opacity=".5" transform="matrix(20.19932 12.04121 -4.731 7.93632 171.2 18.6)"/><circle r="1" fill="#d48770" fill-opacity=".5" transform="matrix(2.46437 -.19828 .29022 3.60708 76.7 107)"/><path fill="#c17768" fill-opacity=".5" d="M84.2 19.4l-.2-1 9.8-1.8.2 1z"/><path fill="#144f62" fill-opacity=".5" d="M142.3 18.7l1.2 4.1 19.1-1.6-23.7 12.3z"/><path fill="#0a6d9d" fill-opacity=".5" d="M64 70h38v4H64z"/><circle r="1" fill="#13658b" fill-opacity=".5" transform="matrix(9.78886 -13.31299 19.81125 14.56694 14.6 20)"/><path fill="#136d92" fill-opacity=".5" d="M69 82l1 31-33 1-1-31z"/><path fill="#168cc6" fill-opacity=".5" d="M148 48l5 15 3-15z"/><path fill="#157292" fill-opacity=".5" d="M118 93l-11-16 8 26z"/><path fill="#152122" fill-opacity=".5" d="M138.7 47.2l.8-.5 13.8 22-.8.6z"/><circle r="1" fill="#133339" fill-opacity=".5" transform="matrix(-6.89565 12.96884 -.88295 -.46947 159.7 58)"/><path fill="#148dc8" fill-opacity=".5" d="M194 76l-25-25 4 16z"/><path fill="#147cb0" fill-opacity=".5" d="M142 104l-10-14 24-37z"/><path fill="#157fa0" fill-opacity=".5" d="M62.2 108.2l80.3 25.3-103.7-8.1 16-24.1z"/><path fill="#1285ab" fill-opacity=".5" d="M106 114l165 32-15-49z"/><circle r="1" fill="#136781" fill-opacity=".5" transform="rotate(132.8 -21.9 68.6) scale(39.90096 14.20274)"/><path fill="#f5a285" fill-opacity=".5" d="M98 75h7v9h-7z"/><path fill="#147495" fill-opacity=".5" d="M104.8 118.5l-11.5-20 26-15 11.4 20z"/><path fill="none" stroke="#c26037" stroke-opacity=".5" stroke-width=".5" d="M67.6 102.2q7.9-8 40.8-31"/><circle r="1" fill="#146c9f" fill-opacity=".5" transform="matrix(38.74133 16.38423 -3.72725 8.81327 41 53.8)"/><ellipse cx="154" cy="35" fill="#744641" fill-opacity=".5" rx="12" ry="2"/><path fill="#d16534" fill-opacity=".5" d="M86 87l10 9 12-15z"/><circle cx="119" cy="80" r="2" fill="#6e3b2d" fill-opacity=".5"/><circle cx="106" cy="72" r="3" fill="#d37755" fill-opacity=".5"/><circle r="1" fill="#0e2e35" fill-opacity=".5" transform="matrix(1.2002 1.25746 -2.19158 2.09178 166.5 56)"/><circle cx="114" cy="79" r="3" fill="#df9198" fill-opacity=".5"/><circle r="1" fill="#0a0700" fill-opacity=".5" transform="matrix(.05912 -4.04957 2.13146 .03112 81.5 103)"/><path fill="#59878a" fill-opacity=".5" d="M110.6 8.8l-17.1-.5 24-24.3L94.6 1.7z"/><path fill="#9b4719" fill-opacity=".5" d="M65.4 101.5l10.1-3 7.7-.9 7.9-12.9z"/><path fill="#148fc5" fill-opacity=".5" d="M171.7 52.8l9.5 2.9-2.9 9.5-9.5-2.9z"/><path fill="#cf8f80" fill-opacity=".5" d="M108.9 83.8l-8.6-1.7 12.8-2-35.3-7z"/><path fill="#703513" fill-opacity=".5" d="M77 106h3v6h-3z"/><path fill="#0b92bc" fill-opacity=".5" d="M169 39.9L182.3 27l4.1 31 16.2-3.3z"/></g></g></svg>