<svg xmlns="http://www.w3.org/2000/svg" viewBox="0 0 1800 1200"><defs/><filter id="prefix__a"><feGaussianBlur stdDeviation="12"/></filter><rect width="100%" height="100%" fill="#535434"/><g filter="url(#prefix__a)"><g transform="translate(3.5 3.5) scale(7.03125)"><circle r="1" fill="#fff" fill-opacity=".5" transform="matrix(-4.37592 -35.6872 69.62063 -8.53679 223.6 169)"/><ellipse cx="104" cy="89" fill="#080000" fill-opacity=".5" rx="116" ry="82"/><circle r="1" fill-opacity=".5" transform="matrix(14.43583 -49.04875 137.6689 40.51816 212.1 7.5)"/><circle r="1" fill="#d3d1f7" fill-opacity=".5" transform="matrix(9.47866 19.83124 -86.86465 41.51833 39.4 2.8)"/><ellipse cx="131" cy="89" fill="#7b6922" fill-opacity=".5" rx="74" ry="38"/><path fill="#ffdeaf" fill-opacity=".5" d="M2 185l-12-57 58 46z"/><circle r="1" fill="#000001" fill-opacity=".5" transform="rotate(-69.8 149.8 19) scale(30.11252 74.98858)"/><ellipse cx="220" cy="162" fill="#eddcbc" fill-opacity=".5" rx="54" ry="27"/><circle r="1" fill="#08070e" fill-opacity=".5" transform="matrix(-.43019 -22.40433 116.94023 -2.24537 176 18.7)"/><circle r="1" fill="#000009" fill-opacity=".5" transform="matrix(71.39255 -42.01668 9.14191 15.53347 125.6 160.3)"/><circle cx="229" cy="70" r="7" fill="#faf3fa" fill-opacity=".5"/><path fill="#0d0c10" fill-opacity=".5" d="M-16 44l88-9-17 150z"/><path fill="#000005" fill-opacity=".5" d="M235 35h21v49h-21z"/><circle r="1" fill="#544c57" fill-opacity=".5" transform="rotate(179.4 117 55.6) scale(36.80635 28.02029)"/><path fill="#c3c4d2" fill-opacity=".5" d="M97 123h50v3H97z"/><path fill="#c2beb6" fill-opacity=".5" d="M253.8 84.2l11.5 16.4-13.1 9.2-11.5-16.4z"/><path fill="none" stroke="#fbfcff" stroke-opacity=".5" stroke-width=".5" d="M131.6 124q39.6 0 69.4-19.5"/><circle r="1" fill="#d2cfc7" fill-opacity=".5" transform="rotate(-119.3 31.7 31.8) scale(1 24.32574)"/><circle cx="77" cy="83" r="29" fill="#4b3f14" fill-opacity=".5"/><circle r="1" fill-opacity=".5" transform="rotate(25.5 -126 598.7) scale(45.30715 1.84179)"/><path fill="#01040e" fill-opacity=".5" d="M44 24l70 7-130 52z"/><circle r="1" fill="#00000b" fill-opacity=".5" transform="rotate(-137.2 117.7 -8.4) scale(15.32615 10.54863)"/><path fill="#f5f2ea" fill-opacity=".5" d="M21.3 92.7l.5.9-15.1 7.7-.5-.9z"/><circle r="1" fill="#120c09" fill-opacity=".5" transform="rotate(-62.1 214.7 -126.6) scale(2.19312 31.99333)"/><circle r="1" fill="#75671d" fill-opacity=".5" transform="rotate(101.2 46.2 106.3) scale(15.42733 27.98098)"/><path fill="#babab5" fill-opacity=".5" d="M98.2-21.9L106-6.7 49.8 21.9 42 6.7z"/><circle r="1" fill="#645a4e" fill-opacity=".5" transform="matrix(-.36975 .92913 -56.63831 -22.53912 208.2 37.8)"/><path fill="#a7a5a4" fill-opacity=".5" d="M219.3 85.5l-17.7 19.9 13.5-7.2 14.7-31.1z"/><circle r="1" fill="#ab9a7a" fill-opacity=".5" transform="matrix(-2.98308 -7.09647 29.54187 -12.41826 193.9 147.4)"/><circle r="1" fill="#0f0d0d" fill-opacity=".5" transform="matrix(43.17508 -39.01168 1.4878 1.64659 214.7 114.9)"/><path fill="#e9e6d8" fill-opacity=".5" d="M281.2 160.7L273 180l-44.2-18.7L237 142z"/><path fill="#241e09" fill-opacity=".5" d="M173.8 117.1l19.5-14.4-65.8-1 34.8 12.2z"/><path fill="#7d7c8e" fill-opacity=".5" d="M-5.6 47.8L-17 23.4 15.6 8.2 27 32.6z"/><path fill="#948e86" fill-opacity=".5" d="M241 69l-14 3-9-22z"/><circle r="1" fill="#676860" fill-opacity=".5" transform="matrix(-24.7353 4.13927 -.16505 -.98629 111.8 21.3)"/><path fill="#605425" fill-opacity=".5" d="M145 39L71 59l62 24z"/><ellipse cx="138" cy="149" fill="#05020a" fill-opacity=".5" rx="23" ry="25"/><path fill="#8a8778" fill-opacity=".5" d="M114 20.2l40-1.4v1l-40 1.4z"/><path fill="#000006" fill-opacity=".5" d="M242 68l-25 24 54-24z"/><path fill-opacity=".5" d="M-3.6 91.2l27.7-16 5.5 9.6-27.7 16z"/><path fill="#13100d" fill-opacity=".5" d="M0 101h83v14H0z"/><path fill="#aeb2d0" fill-opacity=".5" d="M197.1 109.7l-31.9 11.6-.3-1 31.9-11.6z"/><ellipse cx="99" cy="148" fill="#0b090b" fill-opacity=".5" rx="42" ry="24"/><path fill="#020107" fill-opacity=".5" d="M176 125h36v10h-36z"/><path fill="#958e86" fill-opacity=".5" d="M240 123l-9-15-13 5z"/><path fill="#968f8b" fill-opacity=".5" d="M238 83.2l3 4-15 11.6-3-4z"/><path fill="#222428" fill-opacity=".5" d="M216 76l-64-48-18 24z"/><path fill="#907754" fill-opacity=".5" d="M169.3 157.6l2.5-8.5-16.1 14.4-7.6 21.5z"/><circle r="1" fill="#28231f" fill-opacity=".5" transform="matrix(-8.62917 10.43088 -45.71501 -37.81875 7.5 124.8)"/><path fill="#b5b3aa" fill-opacity=".5" d="M33.8 66.2l.5 1-48.1 26.6-.5-1z"/><path fill="#524b3d" fill-opacity=".5" d="M24 120l-9-11-31 18z"/><path fill="#110f09" fill-opacity=".5" d="M176-16l55.8 63.7 3.3 25.8L271 11.7z"/><path fill="#776c5e" fill-opacity=".5" d="M164 19.3l70.4 28.5-.4.9-70.4-28.5z"/><path fill="#f9f6ea" fill-opacity=".5" d="M107 123.5h36v1h-36z"/><path fill="#8a6e27" fill-opacity=".5" d="M124 104l-22.7 2.9-1.4-11 22.8-2.8z"/><path fill="#8d8b8a" fill-opacity=".5" d="M211.4 98.3L238.8 62l-32.7 37.7-27.4 18.7z"/><path fill="#030406" fill-opacity=".5" d="M-4 113.7l48.5-8.8-9.9-14.8-13.5 2.8z"/><path fill="#1a1717" fill-opacity=".5" d="M227.4 94l-19.8 7.1 21.8-17.2-11.1 32.5z"/><path fill="#50452b" fill-opacity=".5" d="M60 102l-19-2 31 16z"/><path fill="#232131" fill-opacity=".5" d="M183 127l23-23-45 21z"/><path fill="none" stroke="#c9c1bc" stroke-opacity=".5" stroke-width=".5" d="M211.5 44.4q17.4 17.2 11.1 35.3"/><path fill="#40360b" fill-opacity=".5" d="M111 123h26l-2-25z"/><path fill="#121211" fill-opacity=".5" d="M212.8 46.2L124.1-13l88.6 101.5 11.1-20.4z"/><path fill="#25252b" fill-opacity=".5" d="M153.2 40L91.4 60.4 93-.1 63.8 23z"/><path fill="#8e7e6e" fill-opacity=".5" d="M75.2 116.5l27.9 8-.3 1-27.9-8z"/><path fill="#4c493c" fill-opacity=".5" d="M41 62l12-20-21 20z"/><path fill="none" stroke="#c0c0c1" stroke-opacity=".5" stroke-width=".5" d="M159.8 121.7q-29 6.1-56.2 2"/><path fill="#222123" fill-opacity=".5" d="M86 126h74v11H86z"/><path fill="#4c4323" fill-opacity=".5" d="M162.7 40.2L57.8 60.7l-5.5 12.4.7 7.7z"/><path fill="#231b13" fill-opacity=".5" d="M253 107h3v28h-3z"/><path fill="#c4beb8" fill-opacity=".5" d="M145.7 123.3l22.3-5.6.3 1-22.3 5.6z"/><path fill="#2f2a25" fill-opacity=".5" d="M271 57l-48-1 22 15z"/><path fill="#1e1b0e" fill-opacity=".5" d="M204.2 85.3l-11.5 5-5-12-14.6 6.3z"/><path fill="#6e645b" fill-opacity=".5" d="M219.6 39.6l-17.7-1.8 14.6 12-12-14.8z"/><path fill="#37290d" fill-opacity=".5" d="M87 74.4l51.6 35 4.3-8-43.3-24.7z"/><path fill="#000001" fill-opacity=".5" d="M195 133l-59 36 15-36z"/><circle r="1" fill="#ba9872" fill-opacity=".5" transform="rotate(-55.3 171 65.7) scale(14.46631 41.55711)"/><path fill="#a5a49c" fill-opacity=".5" d="M225.5 77.4l-11.7 20.3 14.6-34 9.2 12.6z"/><path fill="#777027" fill-opacity=".5" d="M63 99l-2-10 31 10z"/><path fill="#0f0e0e" fill-opacity=".5" d="M62.6 15.4L31.8 30.6l-42.1 23.5 87.5-12.4z"/><path fill="#07020e" fill-opacity=".5" d="M223 78h5v10h-5z"/><path fill="#6e6860" fill-opacity=".5" d="M253 97l-16 1 23 14z"/><path fill="#847b6d" fill-opacity=".5" d="M211.2 118l18.1 8.5-2.5 5.4-18.1-8.4z"/><path fill="#a4a3a3" fill-opacity=".5" d="M36.3 26.7l71.1-32.2L42.1-16H29.4z"/><path fill="#64635a" fill-opacity=".5" d="M219 103.4l-2 1.2-17.8 10L212.1 99z"/><path fill="#000001" fill-opacity=".5" d="M-19.5 94.5l52.3-17 .7 2-52.3 17z"/><path fill="#bebdb3" fill-opacity=".5" d="M243 91h13v6h-13z"/><circle r="1" fill="#74662b" fill-opacity=".5" transform="matrix(-4.23336 -6.04587 2.98542 -2.09042 176.5 63.5)"/><path fill="#070605" fill-opacity=".5" d="M18 87l23 61 65 6z"/><path fill="#1f1d27" fill-opacity=".5" d="M176.7 120l1.1 7.8-44.5 6.3-1.1-8z"/><path fill="#4e473a" fill-opacity=".5" d="M159 14l-10 4 24 6z"/><path fill="#0b0b0b" fill-opacity=".5" d="M75 23l81-9-17-30z"/><path fill="#c5ba9b" fill-opacity=".5" d="M177 149l-25 31 77-45z"/><path fill="#7b5e1f" fill-opacity=".5" d="M90.1 63.2L122 90.4l-8.1-25.8-15.8-3.5z"/><path fill="#bab8b4" fill-opacity=".5" d="M203.4 104.3l1.6-3.4-17.4 10.7 1.5-.5z"/><path fill="#80808a" fill-opacity=".5" d="M-16 53l30-17-8-52z"/><path fill="#6b601e" fill-opacity=".5" d="M161.3 88.5l-40.9-48.9 22 51.7-32.1 19.8z"/><path fill="#4b463c" fill-opacity=".5" d="M33.9 78.1l4.8 7-19.1 9 17.4-14z"/><path fill-opacity=".5" d="M212.4 94.6l27.7 16-.5.8-27.7-16z"/><path fill="#e1ddcb" fill-opacity=".5" d="M259.4 168.8l-2.9-16-55.4 20.8 6.4-19.9z"/></g></g></svg>